<svg width="24" height="24" viewBox="0 0 24 24" fill="none" xmlns="http://www.w3.org/2000/svg">
<path fill-rule="evenodd" clip-rule="evenodd" d="M10.5674 0.75H16.4326C17.385 0.749994 18.1456 0.749989 18.7599 0.800176C19.3899 0.85165 19.9318 0.959634 20.4295 1.21322C21.2291 1.62068 21.8793 2.27085 22.2868 3.07054C22.5404 3.56824 22.6483 4.11012 22.6998 4.74013C22.75 5.35438 22.75 6.11496 22.75 7.06737V16.9327C22.75 17.8851 22.75 18.6456 22.6998 19.2599C22.6483 19.8899 22.5404 20.4318 22.2868 20.9295C21.8793 21.7292 21.2291 22.3793 20.4295 22.7868C19.9318 23.0404 19.3899 23.1483 18.7599 23.1998C18.1456 23.25 17.385 23.25 16.4326 23.25H10.5673C9.6149 23.25 8.85438 23.25 8.24013 23.1998C7.61012 23.1483 7.06824 23.0404 6.57054 22.7868C5.77085 22.3793 5.12068 21.7292 4.71322 20.9295C4.45963 20.4318 4.35165 19.8899 4.30018 19.2599C4.24999 18.6456 4.24999 17.885 4.25 16.9326V7.06732C4.24999 6.11491 4.24999 5.35438 4.30018 4.74013C4.35165 4.11012 4.45963 3.56824 4.71322 3.07054C5.12068 2.27085 5.77085 1.62068 6.57054 1.21322C7.06824 0.959634 7.61012 0.85165 8.24013 0.800176C8.85439 0.749989 9.61495 0.749994 10.5674 0.75ZM17.1269 7.08833C17.0833 6.97056 16.9167 6.97056 16.8731 7.08833L16.6789 7.61328C16.4962 8.10697 16.107 8.49621 15.6133 8.67889L15.0883 8.87314C14.9706 8.91671 14.9706 9.08329 15.0883 9.12686L15.6133 9.32112C16.107 9.50379 16.4962 9.89303 16.6789 10.3867L16.8731 10.9117C16.9167 11.0294 17.0833 11.0294 17.1269 10.9117L17.3211 10.3867C17.5038 9.89303 17.893 9.50379 18.3867 9.32112L18.9117 9.12686C19.0294 9.08329 19.0294 8.91671 18.9117 8.87314L18.3867 8.67889C17.893 8.49621 17.5038 8.10697 17.3211 7.61328L17.1269 7.08833ZM11.8479 9.62809C12.1578 8.79064 13.3422 8.79063 13.6521 9.62809L13.9505 10.4345C14.2274 11.1827 14.8173 11.7726 15.5655 12.0495L16.3719 12.3479C17.2094 12.6578 17.2094 13.8422 16.3719 14.1521L15.5655 14.4505C14.8173 14.7274 14.2274 15.3173 13.9505 16.0655L13.6521 16.8719C13.3422 17.7094 12.1578 17.7094 11.8479 16.8719L11.5495 16.0655C11.2726 15.3173 10.6827 14.7274 9.93454 14.4505L9.12809 14.1521C8.29064 13.8422 8.29063 12.6578 9.12809 12.3479L9.93454 12.0495C10.6827 11.7726 11.2726 11.1827 11.5495 10.4345L11.8479 9.62809Z" fill="#353566"/>
<path d="M2.75 5C2.75 4.58579 2.41421 4.25 2 4.25C1.58579 4.25 1.25 4.58579 1.25 5V7.5C1.25 7.91421 1.58579 8.25 2 8.25C2.41421 8.25 2.75 7.91421 2.75 7.5V5Z" fill="#353566"/>
<path d="M2 10C2.41421 10 2.75 10.3358 2.75 10.75V13.25C2.75 13.6642 2.41421 14 2 14C1.58579 14 1.25 13.6642 1.25 13.25V10.75C1.25 10.3358 1.58579 10 2 10Z" fill="#353566"/>
<path d="M2 15.75C2.41421 15.75 2.75 16.0858 2.75 16.5V19C2.75 19.4142 2.41421 19.75 2 19.75C1.58579 19.75 1.25 19.4142 1.25 19V16.5C1.25 16.0858 1.58579 15.75 2 15.75Z" fill="#353566"/>
</svg>
