<svg width="24" height="24" viewBox="0 0 24 24" fill="none" xmlns="http://www.w3.org/2000/svg">
<path d="M6.26838 3H17.7326C18.5454 2.99999 19.201 2.99999 19.732 3.04336C20.2786 3.08803 20.7587 3.18239 21.203 3.40873C21.9086 3.76825 22.4822 4.34193 22.8418 5.04754C22.9547 5.26918 23.0348 5.49977 23.0922 5.74309C23.1098 5.81781 23.0802 5.89527 23.0191 5.94169L13.4811 13.1835C12.7339 13.7508 12.5242 13.8929 12.3206 13.947C12.1102 14.0029 11.8889 14.0029 11.6785 13.947C11.475 13.8929 11.2652 13.7508 10.518 13.1835L0.981629 5.9429C0.920499 5.89648 0.890861 5.81906 0.908469 5.74435C0.965929 5.50056 1.04609 5.26956 1.15921 5.04754C1.51874 4.34193 2.09242 3.76825 2.79802 3.40873C3.24224 3.18239 3.72238 3.08803 4.26902 3.04336C4.79993 2.99999 5.45556 2.99999 6.26838 3Z" fill="#353566"/>
<path d="M22.9308 7.89211C23.0618 7.79263 23.2498 7.88506 23.2501 8.04957C23.2505 8.19958 23.2505 8.35559 23.2505 8.51788V15.4821C23.2505 16.295 23.2505 16.9506 23.2071 17.4815C23.1625 18.0281 23.0681 18.5082 22.8418 18.9525C22.4822 19.6581 21.9086 20.2317 21.203 20.5913C20.7587 20.8176 20.2786 20.912 19.732 20.9566C19.2011 21 18.5454 21 17.7326 21H5.00049C4.58627 21 4.25049 20.6642 4.25049 20.25C4.25049 19.8358 4.58627 19.5 5.00049 19.5H9.50049C9.9147 19.5 10.2505 19.1642 10.2505 18.75C10.2505 18.3358 9.9147 18 9.50049 18H3.50049C3.08628 18 2.75049 17.6642 2.75049 17.25C2.75049 16.8358 3.08628 16.5 3.50049 16.5H5.00049C5.4147 16.5 5.75049 16.1642 5.75049 15.75C5.75049 15.3358 5.4147 15 5.00049 15H1.50049C1.30158 15 1.11081 14.921 0.970159 14.7803C0.829506 14.6397 0.750488 14.4489 0.750488 14.25V8.5179C0.750487 8.35615 0.750486 8.20059 0.750827 8.051C0.751202 7.88648 0.939193 7.79404 1.07022 7.89353L9.71713 14.4589C10.3049 14.906 10.7653 15.2563 11.2932 15.3966C11.7561 15.5196 12.243 15.5196 12.7059 15.3966C13.2338 15.2563 13.6942 14.906 14.282 14.4589L22.9308 7.89211Z" fill="#353566"/>
</svg>
