<svg width="24" height="24" viewBox="0 0 24 24" fill="none" xmlns="http://www.w3.org/2000/svg">
<path d="M17.2321 1.75H5.7679C4.95507 1.74999 4.29944 1.74999 3.76853 1.79336C3.2219 1.83803 2.74176 1.93239 2.29754 2.15873C1.59193 2.51825 1.01825 3.09193 0.658726 3.79754C0.545598 4.01956 0.465441 4.25056 0.40798 4.49435C0.390372 4.56906 0.420011 4.64648 0.481141 4.6929L10.0175 11.9335C10.7647 12.5008 10.9745 12.6429 11.178 12.697C11.3884 12.7529 11.6097 12.7529 11.8201 12.697C12.0237 12.6429 12.2335 12.5008 12.9806 11.9335L22.5186 4.69169C22.5797 4.64527 22.6094 4.56781 22.5917 4.49309C22.5343 4.24977 22.4542 4.01918 22.3413 3.79754C21.9817 3.09193 21.4081 2.51825 20.7025 2.15873C20.2582 1.93239 19.7781 1.83803 19.2315 1.79336C18.7006 1.74999 18.0449 1.74999 17.2321 1.75Z" fill="#353566"/>
<path d="M22.7497 6.79957C22.7493 6.63506 22.5613 6.54263 22.4303 6.64211L13.7815 13.2089C13.1937 13.656 12.7333 14.0063 12.2054 14.1466C11.7426 14.2696 11.2556 14.2696 10.7927 14.1466C10.2648 14.0063 9.80442 13.656 9.21665 13.2089L0.569733 6.64353C0.438705 6.54404 0.250713 6.63648 0.250338 6.801C0.249997 6.95057 0.249999 7.10612 0.25 7.26789V14.2321C0.249993 15.045 0.249988 15.7006 0.293364 16.2315C0.338026 16.7781 0.432386 17.2582 0.658727 17.7025C1.01825 18.4081 1.59193 18.9818 2.29754 19.3413C2.74176 19.5676 3.2219 19.662 3.76853 19.7066C4.29944 19.75 4.95505 19.75 5.76788 19.75H12.366C12.5938 19.75 12.8093 19.6464 12.9517 19.4685C13.094 19.2905 13.1477 19.0576 13.0977 18.8353C13.0011 18.4064 12.95 17.9596 12.95 17.5C12.95 14.1587 15.6587 11.45 19 11.45C19.9594 11.45 20.8646 11.6728 21.6687 12.0687C21.9012 12.1832 22.1762 12.1695 22.3962 12.0326C22.6162 11.8957 22.75 11.655 22.75 11.3958V7.26788C22.75 7.10559 22.75 6.94958 22.7497 6.79957Z" fill="#353566"/>
<path fill-rule="evenodd" clip-rule="evenodd" d="M14.25 17.5C14.25 14.8766 16.3766 12.75 19 12.75C21.6234 12.75 23.75 14.8766 23.75 17.5C23.75 20.1234 21.6234 22.25 19 22.25C16.3766 22.25 14.25 20.1234 14.25 17.5ZM21.0414 16.3418C21.2854 16.0978 21.2854 15.702 21.0414 15.458C20.7973 15.2139 20.4016 15.2139 20.1575 15.458L16.9575 18.658C16.7134 18.902 16.7134 19.2978 16.9575 19.5418C17.2015 19.7859 17.5973 19.7859 17.8414 19.5418L21.0414 16.3418ZM17 16.25C17 15.8358 17.3358 15.5 17.75 15.5C18.1642 15.5 18.5001 15.8358 18.5001 16.25C18.5001 16.6642 18.1642 17 17.75 17C17.3358 17 17 16.6642 17 16.25ZM20.25 18C19.8358 18 19.5 18.3358 19.5 18.75C19.5 19.1642 19.8359 19.5 20.2501 19.5C20.6643 19.5 21.0001 19.1642 21.0001 18.75C21.0001 18.3358 20.6642 18 20.25 18Z" fill="#353566"/>
</svg>
