<svg width="24" height="24" viewBox="0 0 24 24" fill="none" xmlns="http://www.w3.org/2000/svg">
<g clip-path="url(#clip0_9001_277396)">
<path d="M4.25 2.50024C4.25 1.2576 5.25736 0.250244 6.5 0.250244H17.5C18.7426 0.250244 19.75 1.2576 19.75 2.50024V10.0002C19.75 10.4145 19.4142 10.7502 19 10.7502C18.5858 10.7502 18.25 10.4145 18.25 10.0002V2.50024C18.25 2.08603 17.9142 1.75024 17.5 1.75024H6.5C6.08579 1.75024 5.75 2.08603 5.75 2.50024V10.0002C5.75 10.4145 5.41421 10.7502 5 10.7502C4.58579 10.7502 4.25 10.4145 4.25 10.0002V2.50024Z" fill="#353566"/>
<path d="M1.89477 10.8625C1.66344 10.7193 1.3727 10.7126 1.13502 10.845C0.897339 10.9774 0.75 11.2282 0.75 11.5002V18.2323C0.749993 19.0452 0.749988 19.7008 0.793364 20.2317C0.838026 20.7783 0.932386 21.2585 1.15873 21.7027C1.51825 22.4083 2.09193 22.982 2.79754 23.3415C3.24175 23.5679 3.7219 23.6622 4.26853 23.7069C4.79944 23.7503 5.45505 23.7503 6.26788 23.7502H17.7321C18.545 23.7503 19.2006 23.7503 19.7315 23.7069C20.2781 23.6622 20.7582 23.5679 21.2025 23.3415C21.9081 22.982 22.4817 22.4083 22.8413 21.7027C23.0676 21.2585 23.162 20.7783 23.2066 20.2317C23.25 19.7008 23.25 19.0452 23.25 18.2324V11.5002C23.25 11.2282 23.1027 10.9774 22.865 10.845C22.6273 10.7126 22.3366 10.7193 22.1052 10.8625L13.7107 16.0592C12.9001 16.5609 12.6421 16.7092 12.3848 16.7671C12.1315 16.8243 11.8685 16.8243 11.6152 16.7671C11.3579 16.7092 11.0999 16.5609 10.2893 16.0592L1.89477 10.8625Z" fill="#353566"/>
<path d="M8.34379 7.76898C9.30328 6.87758 10.587 6.3335 11.9994 6.3335C13.4124 6.3335 14.6964 6.87794 15.656 7.76988C15.9594 8.05188 16.434 8.03454 16.716 7.73114C16.998 7.42775 16.9807 6.95319 16.6773 6.67119C15.4511 5.53153 13.806 4.8335 11.9994 4.8335C10.1935 4.8335 8.54883 5.53106 7.32284 6.67004C7.01938 6.95197 7.00192 7.42652 7.28385 7.72999C7.56578 8.03345 8.04033 8.05091 8.34379 7.76898Z" fill="#353566"/>
<path d="M12.0026 9.11133C11.3851 9.11133 10.8187 9.37121 10.3981 9.80771C10.1106 10.106 9.63582 10.1147 9.33757 9.82727C9.03933 9.53983 9.03057 9.06504 9.31801 8.76679C10.0011 8.05805 10.9492 7.61133 12.0026 7.61133C13.0561 7.61133 14.0042 8.05805 14.6873 8.76679C14.9747 9.06504 14.966 9.53983 14.6677 9.82727C14.3695 10.1147 13.8947 10.106 13.6072 9.80771C13.1865 9.37121 12.6202 9.11133 12.0026 9.11133Z" fill="#353566"/>
<path d="M12 10.0002C11.4477 10.0002 11 10.448 11 11.0002C11 11.5525 11.4477 12.0002 12 12.0002C12.5523 12.0002 13.0001 11.5525 13.0001 11.0002C13.0001 10.448 12.5523 10.0002 12 10.0002Z" fill="#353566"/>
</g>
<defs>
<clipPath id="clip0_9001_277396">
<rect width="24" height="24" fill="white"/>
</clipPath>
</defs>
</svg>
