<svg width="24" height="24" viewBox="0 0 24 24" fill="none" xmlns="http://www.w3.org/2000/svg">
<g clip-path="url(#clip0_9001_277306)">
<path d="M6.5 0.25C5.25736 0.25 4.25 1.25736 4.25 2.5V10C4.25 10.4142 4.58579 10.75 5 10.75C5.41421 10.75 5.75 10.4142 5.75 10V2.5C5.75 2.08579 6.08579 1.75 6.5 1.75H17.5C17.9142 1.75 18.25 2.08579 18.25 2.5V10C18.25 10.4142 18.5858 10.75 19 10.75C19.4142 10.75 19.75 10.4142 19.75 10V2.5C19.75 1.25736 18.7426 0.25 17.5 0.25H6.5Z" fill="#353566"/>
<path d="M1.13502 10.8448C1.3727 10.7124 1.66344 10.7191 1.89477 10.8623L10.2893 16.0589C11.0999 16.5607 11.3579 16.7089 11.6152 16.7669C11.8685 16.824 12.1315 16.824 12.3848 16.7669C12.6421 16.7089 12.9001 16.5607 13.7107 16.0589L22.1052 10.8623C22.3366 10.7191 22.6273 10.7124 22.865 10.8448C23.1027 10.9772 23.25 11.2279 23.25 11.5V18.2321C23.25 19.045 23.25 19.7006 23.2066 20.2315C23.162 20.7781 23.0676 21.2582 22.8413 21.7025C22.4817 22.4081 21.9081 22.9818 21.2025 23.3413C20.7582 23.5676 20.2781 23.662 19.7315 23.7066C19.2006 23.75 18.545 23.75 17.7321 23.75H6.26788C5.45505 23.75 4.79944 23.75 4.26853 23.7066C3.7219 23.662 3.24175 23.5676 2.79754 23.3413C2.09193 22.9818 1.51825 22.4081 1.15873 21.7025C0.932386 21.2582 0.838026 20.7781 0.793364 20.2315C0.749988 19.7006 0.749993 19.045 0.75 18.2321V11.5C0.75 11.2279 0.897339 10.9772 1.13502 10.8448Z" fill="#353566"/>
<path d="M10.25 8C10.25 7.58579 10.5858 7.25 11 7.25H12C12.4142 7.25 12.75 7.58579 12.75 8L12.75 12C12.75 12.4142 12.4142 12.75 12 12.75C11.5858 12.75 11.25 12.4142 11.25 12V8.75H11C10.5858 8.75 10.25 8.41421 10.25 8Z" fill="#353566"/>
<path d="M12 3.5C11.4477 3.5 11 3.94772 11 4.5C11 5.05228 11.4477 5.5 12 5.5C12.5523 5.5 13.0001 5.05228 13.0001 4.5C13.0001 3.94772 12.5523 3.5 12 3.5Z" fill="#353566"/>
</g>
<defs>
<clipPath id="clip0_9001_277306">
<rect width="24" height="24" fill="white"/>
</clipPath>
</defs>
</svg>
