<svg width="24" height="24" viewBox="0 0 24 24" fill="none" xmlns="http://www.w3.org/2000/svg">
<g clip-path="url(#clip0_9001_277276)">
<path d="M6.5 0.250244C5.25736 0.250244 4.25 1.2576 4.25 2.50024V10.0002C4.25 10.4145 4.58579 10.7502 5 10.7502C5.41421 10.7502 5.75 10.4145 5.75 10.0002V2.50024C5.75 2.08603 6.08579 1.75024 6.5 1.75024H17.5C17.9142 1.75024 18.25 2.08603 18.25 2.50024V10.0002C18.25 10.4145 18.5858 10.7502 19 10.7502C19.4142 10.7502 19.75 10.4145 19.75 10.0002V2.50024C19.75 1.2576 18.7426 0.250244 17.5 0.250244H6.5Z" fill="#353566"/>
<path d="M1.13502 10.845C1.3727 10.7126 1.66344 10.7193 1.89477 10.8625L10.2893 16.0592C11.0999 16.5609 11.3579 16.7092 11.6152 16.7671C11.8685 16.8243 12.1315 16.8243 12.3848 16.7671C12.6421 16.7092 12.9001 16.5609 13.7107 16.0592L22.1052 10.8625C22.3366 10.7193 22.6273 10.7126 22.865 10.845C23.1027 10.9774 23.25 11.2282 23.25 11.5002V18.2324C23.25 19.0452 23.25 19.7008 23.2066 20.2317C23.162 20.7783 23.0676 21.2585 22.8413 21.7027C22.4817 22.4083 21.9081 22.982 21.2025 23.3415C20.7582 23.5679 20.2781 23.6622 19.7315 23.7069C19.2006 23.7503 18.545 23.7503 17.7321 23.7502H6.26788C5.45505 23.7503 4.79944 23.7503 4.26853 23.7069C3.7219 23.6622 3.24175 23.5679 2.79754 23.3415C2.09193 22.982 1.51825 22.4083 1.15873 21.7027C0.932386 21.2585 0.838026 20.7783 0.793364 20.2317C0.749988 19.7008 0.749993 19.0452 0.75 18.2324V11.5002C0.75 11.2282 0.897339 10.9774 1.13502 10.845Z" fill="#353566"/>
<path d="M10.2065 6.02365C10.4648 5.32578 11.4518 5.32577 11.7101 6.02365L11.9587 6.69569C12.1895 7.31917 12.681 7.81075 13.3045 8.04146L13.9765 8.29014C14.6744 8.54838 14.6744 9.53545 13.9765 9.79368L13.3045 10.0424C12.681 10.2731 12.1895 10.7646 11.9587 11.3881L11.7101 12.0602C11.4518 12.758 10.4648 12.758 10.2065 12.0602L9.95784 11.3881C9.72713 10.7646 9.23556 10.2731 8.61208 10.0424L7.94004 9.79369C7.24216 9.53545 7.24215 8.54838 7.94004 8.29014L8.61208 8.04146C9.23556 7.81075 9.72713 7.31917 9.95784 6.69569L10.2065 6.02365Z" fill="#353566"/>
<path d="M14.3942 3.9071C14.4305 3.80896 14.5693 3.80896 14.6056 3.9071L14.7675 4.34456C14.9197 4.75597 15.2441 5.08033 15.6555 5.23257L16.093 5.39444C16.1911 5.43076 16.1911 5.56957 16.093 5.60588L15.6555 5.76776C15.2441 5.91999 14.9197 6.24436 14.7675 6.65576L14.6056 7.09322C14.5693 7.19137 14.4305 7.19137 14.3942 7.09322L14.2323 6.65576C14.0801 6.24436 13.7557 5.91999 13.3443 5.76776L12.9069 5.60588C12.8087 5.56957 12.8087 5.43076 12.9069 5.39444L13.3443 5.23257C13.7557 5.08033 14.0801 4.75597 14.2323 4.34456L14.3942 3.9071Z" fill="#353566"/>
</g>
<defs>
<clipPath id="clip0_9001_277276">
<rect width="24" height="24" fill="white"/>
</clipPath>
</defs>
</svg>
