<svg width="24" height="24" viewBox="0 0 24 24" fill="none" xmlns="http://www.w3.org/2000/svg">
<path fill-rule="evenodd" clip-rule="evenodd" d="M8.367 1.25H15.633C16.7251 1.24999 17.5906 1.24999 18.2883 1.30699C19.0017 1.36527 19.6053 1.48688 20.1565 1.76772C21.0502 2.22312 21.7769 2.94977 22.2323 3.84355C22.5131 4.39472 22.6347 4.99835 22.693 5.71173C22.75 6.40935 22.75 7.27484 22.75 8.36698V15.633C22.75 16.7252 22.75 17.5906 22.693 18.2883C22.6347 19.0017 22.5131 19.6053 22.2323 20.1565C21.7769 21.0502 21.0502 21.7769 20.1565 22.2323C19.6053 22.5131 19.0017 22.6347 18.2883 22.693C17.5906 22.75 16.7252 22.75 15.633 22.75H8.36698C7.27484 22.75 6.40935 22.75 5.71173 22.693C4.99835 22.6347 4.39472 22.5131 3.84355 22.2323C2.94977 21.7769 2.22312 21.0502 1.76772 20.1565C1.48688 19.6053 1.36527 19.0017 1.30699 18.2883C1.24999 17.5906 1.24999 16.7252 1.25 15.633V8.36699C1.24999 7.27486 1.24999 6.40935 1.30699 5.71173C1.36527 4.99834 1.48688 4.39472 1.76772 3.84355C2.22312 2.94978 2.94978 2.22312 3.84355 1.76772C4.39472 1.48688 4.99835 1.36527 5.71173 1.30699C6.40935 1.24999 7.27486 1.24999 8.367 1.25ZM15.6249 6.68H8.37508C7.97629 6.67999 7.63966 6.67998 7.36391 6.70251C7.07513 6.72611 6.7985 6.77749 6.53527 6.91161C6.13543 7.11534 5.81034 7.44043 5.60661 7.84027C5.58455 7.88356 5.56473 7.92722 5.54691 7.97123C5.51816 8.04219 5.50379 8.07767 5.50405 8.12705C5.50425 8.16585 5.51828 8.21752 5.53773 8.25109C5.56248 8.29381 5.59968 8.32243 5.67407 8.37965L11.3292 12.7297C11.7146 13.0262 11.7975 13.0782 11.8702 13.0977C11.9552 13.1205 12.0446 13.1205 12.1295 13.0977C12.2023 13.0782 12.2851 13.0262 12.6705 12.7297L18.3259 8.3795C18.4003 8.32226 18.4375 8.29364 18.4622 8.25092C18.4817 8.21734 18.4957 8.16566 18.4959 8.12686C18.4961 8.07748 18.4818 8.042 18.453 7.97104C18.4352 7.92709 18.4154 7.8835 18.3934 7.84027C18.1897 7.44043 17.8646 7.11534 17.4647 6.91161C17.2015 6.77749 16.9249 6.72611 16.6361 6.70251C16.3603 6.67998 16.0237 6.67999 15.6249 6.68ZM5.375 9.68005C5.375 9.57006 5.501 9.50816 5.58818 9.57522L10.7195 13.5224L10.7808 13.5696C11.0678 13.7911 11.3193 13.9853 11.6109 14.0635C11.8657 14.1319 12.134 14.1319 12.3888 14.0635C12.6804 13.9853 12.932 13.7911 13.2189 13.5696L13.2803 13.5224L18.4117 9.57512C18.4989 9.50801 18.625 9.56999 18.625 9.68006V14.33C18.625 14.7288 18.625 15.0653 18.6025 15.3411C18.5789 15.6299 18.5275 15.9065 18.3934 16.1697C18.1897 16.5696 17.8646 16.8947 17.4647 17.0984C17.2015 17.2325 16.9249 17.2839 16.6361 17.3075C16.3603 17.33 16.0237 17.33 15.6249 17.33H8.37503C7.97625 17.33 7.63966 17.33 7.36391 17.3075C7.07513 17.2839 6.7985 17.2325 6.53527 17.0984C6.13543 16.8947 5.81034 16.5696 5.60661 16.1697C5.47249 15.9065 5.42111 15.6299 5.39751 15.3411C5.37498 15.0653 5.37499 14.7287 5.375 14.3299V9.68005Z" fill="#353566"/>
</svg>
