<svg width="24" height="24" viewBox="0 0 24 24" fill="none" xmlns="http://www.w3.org/2000/svg">
<path d="M17.2321 2.24976H5.7679C4.95507 2.24975 4.29944 2.24974 3.76853 2.29312C3.2219 2.33778 2.74176 2.43214 2.29754 2.65848C1.59193 3.01801 1.01825 3.59168 0.658726 4.29729C0.545603 4.51931 0.465447 4.7503 0.407987 4.99408C0.390378 5.06879 0.420017 5.14621 0.481147 5.19263L10.0174 12.4331C10.7646 13.0004 10.9743 13.1425 11.1779 13.1966C11.3883 13.2525 11.6096 13.2525 11.82 13.1966C12.0236 13.1425 12.2333 13.0004 12.9805 12.4331L22.5185 5.19127C22.5797 5.14484 22.6093 5.06738 22.5917 4.99266C22.5342 4.7494 22.4542 4.51888 22.3413 4.29729C21.9817 3.59169 21.4081 3.01801 20.7025 2.65848C20.2582 2.43214 19.7781 2.33778 19.2315 2.29312C18.7006 2.24974 18.0449 2.24975 17.2321 2.24976Z" fill="#353566"/>
<path d="M22.7497 7.29911C22.7493 7.1346 22.5613 7.04217 22.4303 7.14165L13.7814 13.7085C13.1936 14.1557 12.7332 14.506 12.2053 14.6463C11.7424 14.7693 11.2555 14.7693 10.7926 14.6463C10.2647 14.506 9.80429 14.1557 9.21653 13.7085L0.569733 7.14326C0.438705 7.04377 0.250713 7.13621 0.250338 7.30072C0.249997 7.45031 0.249999 7.60586 0.25 7.76765V14.7319C0.249993 15.5447 0.249988 16.2003 0.293364 16.7312C0.338026 17.2779 0.432386 17.758 0.658727 18.2022C1.01825 18.9078 1.59193 19.4815 2.29754 19.841C2.74176 20.0674 3.2219 20.1617 3.76853 20.2064C4.29944 20.2498 4.95505 20.2498 5.76788 20.2498H12.1C12.5142 20.2498 12.85 19.914 12.85 19.4998C12.85 15.2748 16.275 11.8498 20.5 11.8498C20.9672 11.8498 21.4239 11.8915 21.8669 11.9714C22.0856 12.0108 22.3105 11.9513 22.481 11.8088C22.6515 11.6663 22.75 11.4555 22.75 11.2333V7.76763C22.75 7.60527 22.75 7.44919 22.7497 7.29911Z" fill="#353566"/>
<path d="M18.0532 14.2517C18.3558 14.2732 18.6156 14.4748 18.7115 14.7626L19.9862 18.5868C20.0426 18.7558 20.2752 18.7724 20.3549 18.613L20.8292 17.6644C20.9562 17.4103 21.2159 17.2498 21.5 17.2498H23C23.4142 17.2498 23.75 17.5856 23.75 17.9998C23.75 18.414 23.4142 18.7498 23 18.7498H22.0871C22.0114 18.7498 21.9421 18.7926 21.9082 18.8603L20.6708 21.3352C20.5352 21.6065 20.2494 21.7694 19.9468 21.7479C19.6442 21.7264 19.3844 21.5247 19.2885 21.2369L18.0138 17.4127C17.9574 17.2437 17.7248 17.2272 17.6451 17.3865L17.1708 18.3352C17.0438 18.5893 16.7841 18.7498 16.5 18.7498H15C14.5858 18.7498 14.25 18.414 14.25 17.9998C14.25 17.5856 14.5858 17.2498 15 17.2498H15.9129C15.9886 17.2498 16.0579 17.207 16.0918 17.1392L17.3292 14.6644C17.4648 14.393 17.7506 14.2301 18.0532 14.2517Z" fill="#353566"/>
</svg>
