<svg width="24" height="24" viewBox="0 0 24 24" fill="none" xmlns="http://www.w3.org/2000/svg">
<path d="M16.0418 12.75H14.9588L15.5003 11.4503L16.0418 12.75Z" fill="#353566"/>
<path fill-rule="evenodd" clip-rule="evenodd" d="M8.367 0.25H15.633C16.7251 0.249995 17.5907 0.249991 18.2883 0.306988C19.0017 0.365275 19.6053 0.486883 20.1565 0.76772C21.0502 1.22312 21.7769 1.94978 22.2323 2.84355C22.5131 3.39472 22.6347 3.99834 22.693 4.71173C22.75 5.40935 22.75 6.27484 22.75 7.36698V13.633C22.75 14.7252 22.75 15.5906 22.693 16.2883C22.6347 17.0017 22.5131 17.6053 22.2323 18.1565C21.7769 19.0502 21.0502 19.7769 20.1565 20.2323C19.6053 20.5131 19.0017 20.6347 18.2883 20.693C17.5906 20.75 16.7252 20.75 15.633 20.75L14.9061 20.75L13.9501 22.2146C13.742 22.5334 13.5585 22.8145 13.3901 23.0275C13.2162 23.2473 12.9935 23.4815 12.6766 23.6144C12.2438 23.7959 11.7562 23.7959 11.3234 23.6144C11.0065 23.4815 10.7838 23.2473 10.6099 23.0275C10.4414 22.8145 10.2581 22.5335 10.05 22.2146L9.09392 20.75L8.36698 20.75C7.27484 20.75 6.40935 20.75 5.71173 20.693C4.99835 20.6347 4.39472 20.5131 3.84355 20.2323C2.94978 19.7769 2.22312 19.0502 1.76772 18.1565C1.48688 17.6053 1.36527 17.0017 1.30699 16.2883C1.24999 15.5907 1.24999 14.7252 1.25 13.633V7.367C1.24999 6.27486 1.24999 5.40935 1.30699 4.71173C1.36527 3.99835 1.48688 3.39472 1.76772 2.84355C2.22312 1.94978 2.94978 1.22312 3.84355 0.76772C4.39472 0.486883 4.99834 0.365275 5.71173 0.306988C6.40935 0.249991 7.27487 0.249995 8.367 0.25ZM10.3497 5.5C10.3497 5.08579 10.0139 4.75 9.59973 4.75C9.18552 4.75 8.84973 5.08579 8.84973 5.5V6H6C5.58579 6 5.25 6.33579 5.25 6.75C5.25 7.16421 5.58579 7.5 6 7.5H11.0185C10.7409 8.33591 10.355 9.02776 9.82789 9.64867C9.73986 9.75236 9.64737 9.85468 9.55014 9.95588C9.20801 9.57367 8.93213 9.17465 8.704 8.747C8.50904 8.38153 8.05473 8.24331 7.68926 8.43827C7.3238 8.63323 7.18558 9.08754 7.38054 9.453C7.66648 9.98903 8.00778 10.4788 8.41434 10.9361C7.9111 11.3044 7.32518 11.6683 6.64088 12.0416C6.27724 12.2399 6.14325 12.6955 6.3416 13.0591C6.53995 13.4228 6.99552 13.5568 7.35916 13.3584C8.17752 12.912 8.89627 12.4607 9.52263 11.9799C10.1245 12.4613 10.8254 12.9136 11.6408 13.3584C12.0045 13.5568 12.4601 13.4228 12.6584 13.0591C12.8567 12.6955 12.7228 12.2399 12.3591 12.0416C11.6978 11.6809 11.1378 11.3259 10.6606 10.9649C10.7681 10.8519 10.8717 10.7369 10.9714 10.6195C11.7407 9.71331 12.2531 8.69935 12.5858 7.5H13.2C13.6142 7.5 13.95 7.16421 13.95 6.75C13.95 6.33579 13.6142 6 13.2 6H12.015C12.004 5.99975 11.993 5.99976 11.982 6H10.3497V5.5ZM16.1925 9.21156C16.0761 8.93206 15.803 8.74999 15.5002 8.75C15.1974 8.75001 14.9243 8.93209 14.8079 9.2116L13.1481 13.1961C13.1435 13.2065 13.1391 13.217 13.1349 13.2276L12.3085 15.2116C12.1492 15.594 12.33 16.0331 12.7124 16.1923C13.0948 16.3516 13.5339 16.1708 13.6931 15.7884L14.334 14.25H16.6667L17.3077 15.7884C17.467 16.1708 17.9061 16.3516 18.2885 16.1923C18.6708 16.033 18.8516 15.5939 18.6923 15.2116L17.8658 13.2276C17.8616 13.217 17.8572 13.2065 17.8526 13.1961L16.1925 9.21156Z" fill="#353566"/>
</svg>
