<svg width="24" height="24" viewBox="0 0 24 24" fill="none" xmlns="http://www.w3.org/2000/svg">
<path d="M14.5003 2.25C12.785 2.25 11.2107 2.84472 9.96937 3.83981C9.64618 4.09889 9.17416 4.04692 8.91508 3.72373C8.65601 3.40054 8.70798 2.92852 9.03117 2.66944C10.529 1.46872 12.4317 0.75 14.5003 0.75C19.3328 0.75 23.2503 4.66751 23.2503 9.5C23.2503 11.5685 22.5316 13.4712 21.3308 14.9691C21.0718 15.2923 20.5997 15.3443 20.2765 15.0852C19.9534 14.8261 19.9014 14.3541 20.1605 14.0309C21.1556 12.7896 21.7503 11.2153 21.7503 9.5C21.7503 5.49594 18.5043 2.25 14.5003 2.25Z" fill="#353566"/>
<path d="M5.60472 2.53501C5.22117 2.22336 4.69002 2.16695 4.24956 2.39108C4.11008 2.46206 3.97509 2.58027 3.77668 2.754L3.09753 3.34834C3.04186 3.39706 3.01192 3.42325 2.98433 3.4481C1.53078 4.75686 0.925284 6.76516 1.41319 8.65926C1.42244 8.69517 1.43561 8.74344 1.46016 8.83347L1.47292 8.88025C1.93175 10.5586 2.65722 12.1525 3.62148 13.6008L3.65253 13.6473C5.42368 16.2998 7.70079 18.5768 10.3532 20.348L10.3998 20.379C11.8481 21.3433 13.442 22.0687 15.1203 22.5275L15.1657 22.5399C15.2565 22.5647 15.3051 22.578 15.3412 22.5872C17.2353 23.0752 19.2436 22.4697 20.5523 21.0161C20.577 20.9888 20.6029 20.9591 20.6508 20.9044L20.6516 20.9035L20.6523 20.9027L21.249 20.2208C21.4229 20.0222 21.5412 19.8871 21.6123 19.7473C21.8352 19.3086 21.7801 18.78 21.4714 18.3968C21.373 18.2746 21.2293 18.1668 21.0182 18.0084L16.4064 14.5453L16.4005 14.5414L16.3989 14.5402C16.3034 14.4685 16.2204 14.4062 16.1476 14.3599C16.0703 14.3108 15.9884 14.2689 15.8923 14.249C15.7477 14.219 15.5976 14.2323 15.4606 14.2873C15.3695 14.3239 15.2963 14.3795 15.2289 14.4415C15.1653 14.4999 15.0946 14.5759 15.0132 14.6634L13.1524 16.6626C11.6761 15.8828 10.5777 15.1267 9.67204 14.221C8.76623 13.3152 8.04344 12.2501 7.33046 10.8409L9.2605 8.83245C9.33879 8.75099 9.40694 8.68006 9.45924 8.6167C9.51486 8.5493 9.5643 8.47688 9.59593 8.38854C9.64362 8.25531 9.65264 8.11131 9.62196 7.97316C9.60161 7.88157 9.5616 7.80355 9.51483 7.72973C9.4709 7.66041 9.4121 7.58147 9.34469 7.49099L5.99083 2.98916C5.83334 2.77763 5.72619 2.6337 5.60472 2.53501Z" fill="#353566"/>
<path d="M14.2502 11.75C14.2502 11.3358 14.586 11 15.0002 11C15.4145 11 15.7503 11.3358 15.7503 11.75C15.7503 12.1642 15.4146 12.5 15.0003 12.5C14.5861 12.5 14.2502 12.1642 14.2502 11.75Z" fill="#353566"/>
<path d="M15.0002 5.5C14.3099 5.5 13.7502 6.05964 13.7502 6.75C13.7502 6.81168 13.7572 6.87309 13.768 6.93023C13.8449 7.33724 13.5773 7.72954 13.1703 7.80646C12.7633 7.88337 12.371 7.61578 12.2941 7.20877C12.2692 7.07718 12.2502 6.9213 12.2502 6.75C12.2502 5.23122 13.4815 4 15.0002 4C16.519 4 17.7502 5.23122 17.7502 6.75C17.7502 7.51699 17.4353 8.21178 16.9295 8.70972C16.6686 8.96654 16.3844 9.14137 16.1981 9.25594L16.1972 9.25652C16.162 9.27813 16.1304 9.29758 16.1031 9.31504C15.9201 9.43205 15.8502 9.49868 15.7943 9.60333C15.5992 9.9687 15.1448 10.1067 14.7794 9.91156C14.4141 9.71642 14.2761 9.26204 14.4712 8.89667C14.7076 8.454 15.0349 8.21761 15.2951 8.05127C15.3534 8.01402 15.4058 7.98136 15.4539 7.9514C15.6297 7.84194 15.7472 7.7687 15.8771 7.64082C16.1083 7.41323 16.2502 7.09888 16.2502 6.75C16.2502 6.05964 15.6906 5.5 15.0002 5.5Z" fill="#353566"/>
</svg>
