<svg width="24" height="24" viewBox="0 0 24 24" fill="none" xmlns="http://www.w3.org/2000/svg">
<path fill-rule="evenodd" clip-rule="evenodd" d="M8.367 0.25H15.633C16.7251 0.249995 17.5907 0.249991 18.2883 0.306988C19.0017 0.365275 19.6053 0.486883 20.1565 0.76772C21.0502 1.22312 21.7769 1.94978 22.2323 2.84355C22.5131 3.39472 22.6347 3.99834 22.693 4.71173C22.75 5.40935 22.75 6.27484 22.75 7.36698V13.633C22.75 14.7252 22.75 15.5906 22.693 16.2883C22.6347 17.0017 22.5131 17.6053 22.2323 18.1565C21.7769 19.0502 21.0502 19.7769 20.1565 20.2323C19.6053 20.5131 19.0017 20.6347 18.2883 20.693C17.5906 20.75 16.7252 20.75 15.633 20.75L14.9061 20.75L13.9501 22.2146C13.742 22.5334 13.5585 22.8145 13.3901 23.0275C13.2162 23.2473 12.9935 23.4815 12.6766 23.6144C12.2438 23.7959 11.7562 23.7959 11.3234 23.6144C11.0065 23.4815 10.7838 23.2473 10.6099 23.0275C10.4414 22.8145 10.2581 22.5335 10.05 22.2146L9.09392 20.75L8.36698 20.75C7.27484 20.75 6.40935 20.75 5.71173 20.693C4.99835 20.6347 4.39472 20.5131 3.84355 20.2323C2.94978 19.7769 2.22312 19.0502 1.76772 18.1565C1.48688 17.6053 1.36527 17.0017 1.30699 16.2883C1.24999 15.5907 1.24999 14.7252 1.25 13.633V7.367C1.24999 6.27486 1.24999 5.40935 1.30699 4.71173C1.36527 3.99835 1.48688 3.39472 1.76772 2.84355C2.22312 1.94978 2.94978 1.22312 3.84355 0.76772C4.39472 0.486883 4.99834 0.365275 5.71173 0.306988C6.40935 0.249991 7.27487 0.249995 8.367 0.25ZM15.4103 4.89823L13.4057 7.58897C13.3222 7.70097 13.2805 7.75697 13.2663 7.81784C13.2538 7.87153 13.2563 7.92763 13.2735 7.97999C13.2931 8.03936 13.3396 8.09143 13.4326 8.19559L14.5778 9.47743C13.7978 11.0976 12.5977 12.2977 10.9775 13.0777L9.78376 11.8809C9.67934 11.7762 9.62712 11.7239 9.56586 11.701C9.51188 11.6808 9.45323 11.6766 9.39693 11.6889C9.33304 11.7028 9.27391 11.7472 9.15567 11.836L6.39446 13.9092C6.2503 14.0174 6.17822 14.0715 6.13117 14.1299C5.98298 14.3139 5.95651 14.5677 6.06354 14.7783C6.09752 14.8451 6.15688 14.9129 6.2756 15.0486L6.61789 15.4397C6.64794 15.4741 6.66314 15.4915 6.67731 15.5072C7.42524 16.3379 8.57294 16.6839 9.65538 16.4051C9.67593 16.3998 9.70396 16.3921 9.76002 16.3768L9.78585 16.3698C10.7775 16.0987 11.7191 15.6701 12.5748 15.1004L12.6026 15.0819C14.1778 14.03 15.53 12.6778 16.5819 11.1026L16.6004 11.0748C17.1701 10.2191 17.5987 9.27746 17.8698 8.28585L17.8768 8.26002C17.892 8.20433 17.8998 8.17586 17.9051 8.15539C18.1839 7.07294 17.8379 5.92524 17.0072 5.17731C16.9914 5.16313 16.9742 5.14803 16.9397 5.11789L16.5504 4.77714C16.4148 4.65853 16.347 4.59921 16.2803 4.56527C16.0689 4.45767 15.8139 4.48475 15.6298 4.63435C15.5717 4.68155 15.5179 4.75378 15.4103 4.89823Z" fill="#353566"/>
</svg>
