<svg width="24" height="24" viewBox="0 0 24 24" fill="none" xmlns="http://www.w3.org/2000/svg">
<g clip-path="url(#clip0_9001_284863)">
<path opacity="0.4" fill-rule="evenodd" clip-rule="evenodd" d="M12 23C18.0751 23 23 18.0751 23 12C23 5.92487 18.0751 1 12 1C5.92487 1 1 5.92487 1 12C1 18.0751 5.92487 23 12 23ZM6 10.8C6 9.81991 6 9.32986 6.19074 8.95552C6.35852 8.62623 6.62623 8.35852 6.95552 8.19074C7.32986 8 7.81991 8 8.8 8H11.95C12.9301 8 13.4201 8 13.7945 8.19074C14.1238 8.35852 14.3915 8.62623 14.5593 8.95552C14.75 9.32986 14.75 9.81991 14.75 10.8V11.1505L17.184 9.16547C17.5106 8.89912 18 9.13151 18 9.55295V14.4598C18 14.879 17.5151 15.1121 17.1877 14.8503L14.75 12.9005V13.2C14.75 14.1801 14.75 14.6701 14.5593 15.0445C14.3915 15.3738 14.1238 15.6415 13.7945 15.8093C13.4201 16 12.9301 16 11.95 16H8.8C7.81991 16 7.32986 16 6.95552 15.8093C6.62623 15.6415 6.35852 15.3738 6.19074 15.0445C6 14.6701 6 14.1801 6 13.2V10.8Z" fill="#353566"/>
<path fill-rule="evenodd" clip-rule="evenodd" d="M8.77893 7.5H11.9711C12.4432 7.49999 12.8279 7.49999 13.1401 7.5255C13.4628 7.55187 13.7521 7.60797 14.0215 7.74524C14.4448 7.96095 14.789 8.30516 15.0048 8.72852C15.142 8.99793 15.1981 9.28715 15.2245 9.60989C15.2365 9.75682 15.2429 9.91976 15.2462 10.1003L16.868 8.77771C17.5212 8.24501 18.5 8.70979 18.5 9.55268V14.4595C18.5 15.298 17.5301 15.7642 16.8754 15.2404L15.2455 13.9368C15.242 14.1026 15.2357 14.2533 15.2245 14.3901C15.1981 14.7128 15.142 15.0021 15.0048 15.2715C14.789 15.6948 14.4448 16.039 14.0215 16.2548C13.7521 16.392 13.4628 16.4481 13.1401 16.4745C12.8279 16.5 12.4433 16.5 11.9711 16.5H8.77891C8.3068 16.5 7.92214 16.5 7.60989 16.4745C7.28715 16.4481 6.99793 16.392 6.72852 16.2548C6.30516 16.039 5.96095 15.6948 5.74524 15.2715C5.60797 15.0021 5.55187 14.7128 5.5255 14.3901C5.49999 14.0779 5.49999 13.6932 5.5 13.2211V10.7789C5.49999 10.3068 5.49999 9.92215 5.5255 9.60989C5.55187 9.28715 5.60797 8.99793 5.74524 8.72852C5.96095 8.30516 6.30516 7.96095 6.72852 7.74524C6.99793 7.60797 7.28715 7.55187 7.60989 7.5255C7.92215 7.49999 8.30678 7.49999 8.77893 7.5ZM15.25 12.6598V11.3876L17.5 9.55268V14.4595L15.25 12.6598ZM14.2278 9.69132C14.2496 9.95805 14.25 10.3017 14.25 10.8V13.2C14.25 13.6983 14.2496 14.0419 14.2278 14.3087C14.2065 14.5696 14.1672 14.7125 14.1138 14.8175C13.9939 15.0527 13.8027 15.2439 13.5675 15.3638C13.4625 15.4172 13.3196 15.4565 13.0587 15.4778C12.7919 15.4996 12.4483 15.5 11.95 15.5H8.8C8.3017 15.5 7.95805 15.4996 7.69132 15.4778C7.43042 15.4565 7.28745 15.4172 7.18251 15.3638C6.94731 15.2439 6.75608 15.0527 6.63624 14.8175C6.58277 14.7125 6.5435 14.5696 6.52218 14.3087C6.50039 14.0419 6.5 13.6983 6.5 13.2V10.8C6.5 10.3017 6.50039 9.95805 6.52218 9.69132C6.5435 9.43042 6.58277 9.28745 6.63624 9.18251C6.75608 8.94731 6.94731 8.75608 7.18251 8.63624C7.28745 8.58277 7.43042 8.5435 7.69132 8.52218C7.95805 8.50039 8.3017 8.5 8.8 8.5H11.95C12.4483 8.5 12.7919 8.50039 13.0587 8.52218C13.3196 8.5435 13.4625 8.58277 13.5675 8.63624C13.8027 8.75608 13.9939 8.94731 14.1138 9.18251C14.1672 9.28745 14.2065 9.43042 14.2278 9.69132Z" fill="#353566"/>
<path fill-rule="evenodd" clip-rule="evenodd" d="M12 0.5C5.64873 0.5 0.5 5.64873 0.5 12C0.5 18.3513 5.64873 23.5 12 23.5C18.3513 23.5 23.5 18.3513 23.5 12C23.5 5.64873 18.3513 0.5 12 0.5ZM1.5 12C1.5 6.20101 6.20101 1.5 12 1.5C17.799 1.5 22.5 6.20101 22.5 12C22.5 17.799 17.799 22.5 12 22.5C6.20101 22.5 1.5 17.799 1.5 12Z" fill="#353566"/>
</g>
<defs>
<clipPath id="clip0_9001_284863">
<rect width="24" height="24" fill="white"/>
</clipPath>
</defs>
</svg>
