<svg width="24" height="24" viewBox="0 0 24 24" fill="none" xmlns="http://www.w3.org/2000/svg">
<g opacity="0.4">
<path d="M1.5 7.6C1.5 5.63982 1.5 4.65972 1.88148 3.91103C2.21703 3.25247 2.75247 2.71703 3.41103 2.38148C4.15972 2 5.13982 2 7.1 2H16.9C18.8602 2 19.8403 2 20.589 2.38148C21.2475 2.71703 21.783 3.25247 22.1185 3.91103C22.5 4.65972 22.5 5.63982 22.5 7.6V11.7571C21.5491 10.9718 20.3297 10.5 19.0001 10.5C16.8629 10.5 15.0111 11.7197 14.1006 13.5H1.5V7.6Z" fill="#353566"/>
<path d="M13.8272 18H10V20C10 21.1046 9.10457 22 8 22H16C14.8954 22 14 21.1046 14 20V18.4634C13.9372 18.3115 13.8794 18.1571 13.8272 18Z" fill="#353566"/>
</g>
<path fill-rule="evenodd" clip-rule="evenodd" d="M7.07755 1.5C6.11647 1.5 5.36451 1.5 4.76049 1.54935C4.14594 1.59956 3.64062 1.70334 3.18404 1.93597C2.43139 2.31947 1.81947 2.93139 1.43597 3.68404C1.20334 4.14062 1.09956 4.64594 1.04935 5.26049C0.999995 5.86451 0.999997 6.61646 1 7.57754V12.4224C1 12.7935 1 13.1342 1.00284 13.4464C1.00096 13.464 1 13.4819 1 13.5C1 13.5217 1.00139 13.5431 1.00407 13.5641C1.00935 14.0104 1.02149 14.3985 1.04935 14.7395C1.09956 15.3541 1.20334 15.8594 1.43597 16.316C1.81947 17.0686 2.43139 17.6805 3.18404 18.064C3.64062 18.2967 4.14594 18.4004 4.76049 18.4507C5.36451 18.5 6.11646 18.5 7.07754 18.5H9.5V20C9.5 20.8284 8.82843 21.5 8 21.5H7.5C7.22386 21.5 7 21.7239 7 22C7 22.2761 7.22386 22.5 7.5 22.5H16.5C16.6819 22.5 16.8411 22.4029 16.9286 22.2577C16.6557 22.0201 16.3828 21.7676 16.1168 21.5H16C15.1716 21.5 14.5 20.8284 14.5 20V19.4566C14.1412 18.853 13.8553 18.2008 13.6826 17.5H7.1C6.11166 17.5 5.40047 17.4996 4.84192 17.454C4.28921 17.4088 3.93014 17.3219 3.63803 17.173C3.07354 16.8854 2.6146 16.4265 2.32698 15.862C2.17814 15.5699 2.09118 15.2108 2.04602 14.6581C2.02982 14.4598 2.01933 14.2423 2.01252 14H13.8757C14.0134 13.6476 14.1864 13.3128 14.3904 13H2.0005C2.00002 12.812 2 12.6124 2 12.4V7.6C2 6.61166 2.00039 5.90047 2.04602 5.34192C2.09118 4.78921 2.17814 4.43014 2.32698 4.13803C2.6146 3.57354 3.07354 3.1146 3.63803 2.82698C3.93014 2.67814 4.28921 2.59118 4.84192 2.54602C5.40047 2.50039 6.11166 2.5 7.1 2.5H16.9C17.8883 2.5 18.5995 2.50039 19.1581 2.54602C19.7108 2.59118 20.0699 2.67814 20.362 2.82698C20.9265 3.1146 21.3854 3.57354 21.673 4.13803C21.8219 4.43014 21.9088 4.78921 21.954 5.34192C21.9996 5.90047 22 6.61166 22 7.6V11.3894C22.3658 11.6279 22.7014 11.9088 23 12.225V7.57754C23 6.61646 23 5.86451 22.9507 5.26049C22.9004 4.64594 22.7967 4.14062 22.564 3.68404C22.1805 2.93139 21.5686 2.31947 20.816 1.93597C20.3594 1.70334 19.8541 1.59956 19.2395 1.54935C18.6355 1.5 17.8835 1.5 16.9225 1.5H7.07755ZM10.5 20V18.5H13.5V20C13.5 20.5628 13.686 21.0822 13.9998 21.5H10.0002C10.314 21.0822 10.5 20.5628 10.5 20Z" fill="#353566"/>
<path fill-rule="evenodd" clip-rule="evenodd" d="M19 14C17.8954 14 17 14.8954 17 16C17 17.1046 17.8954 18 19 18C20.1046 18 21 17.1046 21 16C21 14.8954 20.1046 14 19 14ZM18 16C18 15.4477 18.4477 15 19 15C19.5523 15 20 15.4477 20 16C20 16.5523 19.5523 17 19 17C18.4477 17 18 16.5523 18 16Z" fill="#353566"/>
<path fill-rule="evenodd" clip-rule="evenodd" d="M14.5 16.002C14.5 13.517 16.5144 11.5 19.0001 11.5C21.4854 11.5 23.5 13.5147 23.5 16C23.5 18.7667 21.3 20.9 19.3 22.4C19.1222 22.5333 18.8778 22.5333 18.7 22.4C16.7001 20.9001 14.5 18.7667 14.5 16.002ZM19.0001 12.5C17.0674 12.5 15.5 14.0687 15.5 16.002C15.5 18.1211 17.1234 19.9113 19 21.3709C20.8765 19.9113 22.5 18.121 22.5 16C22.5 14.067 20.9331 12.5 19.0001 12.5Z" fill="#353566"/>
</svg>
