<svg width="24" height="24" viewBox="0 0 24 24" fill="none" xmlns="http://www.w3.org/2000/svg">
<g opacity="0.4">
<path d="M1.5 7.6C1.5 5.63982 1.5 4.65972 1.88148 3.91103C2.21703 3.25247 2.75247 2.71703 3.41103 2.38148C4.15972 2 5.13982 2 7.1 2H16.9C18.8602 2 19.8403 2 20.589 2.38148C21.2475 2.71703 21.783 3.25247 22.1185 3.91103C22.5 4.65972 22.5 5.63982 22.5 7.6V13.5H20.4146C20.2508 13.0388 19.8686 12.671 19.3638 12.5448C18.6066 12.3555 17.8395 12.7785 17.5857 13.5H1.5V7.6Z" fill="#353566"/>
<path d="M11.5066 18H10V20C10 21.1046 9.10457 22 8 22H15.4315L15.404 21.9097C15.1106 21.8182 14.8462 21.661 14.628 21.4552L14.5631 21.4356C14.3316 21.3656 14.1134 21.2384 13.9289 21.0501L11.9289 19.0101C11.6565 18.7322 11.516 18.3675 11.5066 18Z" fill="#353566"/>
</g>
<path d="M7.07755 1.5H16.9224C17.8835 1.5 18.6355 1.5 19.2395 1.54935C19.8541 1.59956 20.3594 1.70334 20.816 1.93597C21.5686 2.31947 22.1805 2.93139 22.564 3.68404C22.7967 4.14062 22.9004 4.64594 22.9507 5.26049C23 5.86451 23 6.61646 23 7.57754V12.4225C23 12.7935 23 13.1341 22.9972 13.4464C22.999 13.464 23 13.4819 23 13.5C23 13.5217 22.9986 13.5431 22.9959 13.5641C22.9906 14.0104 22.9785 14.3985 22.9507 14.7395C22.9229 15.0791 22.8788 15.3854 22.8056 15.6685L22.0494 14.9282C22.0134 14.8929 21.9762 14.8599 21.938 14.8292C21.9438 14.7743 21.9491 14.7173 21.954 14.6581C21.9702 14.4598 21.9807 14.2423 21.9875 14H20.5685L20.4362 13.5656C20.3722 13.3553 20.2634 13.1623 20.1186 13H21.9995C22 12.812 22 12.6124 22 12.4V7.6C22 6.61166 21.9996 5.90047 21.954 5.34192C21.9088 4.78921 21.8219 4.43014 21.673 4.13803C21.3854 3.57354 20.9265 3.1146 20.362 2.82698C20.0699 2.67814 19.7108 2.59118 19.1581 2.54602C18.5995 2.50039 17.8883 2.5 16.9 2.5H7.1C6.11166 2.5 5.40047 2.50039 4.84192 2.54602C4.28921 2.59118 3.93014 2.67814 3.63803 2.82698C3.07354 3.1146 2.6146 3.57354 2.32698 4.13803C2.17814 4.43014 2.09118 4.78921 2.04602 5.34192C2.00039 5.90047 2 6.61166 2 7.6V12.4C2 12.6124 2.00002 12.812 2.0005 13H17.8815C17.7308 13.1682 17.6162 13.3728 17.5531 13.6046L17.4454 14H2.01252C2.01933 14.2423 2.02982 14.4598 2.04602 14.6581C2.09118 15.2108 2.17814 15.5699 2.32698 15.862C2.6146 16.4265 3.07354 16.8854 3.63803 17.173C3.93014 17.3219 4.28921 17.4088 4.84192 17.454C5.40047 17.4996 6.11166 17.5 7.1 17.5H11.5765C11.4743 17.8249 11.4833 18.1802 11.6039 18.5H10.5V20C10.5 20.5628 10.314 21.0822 10.0002 21.5H13.9998C13.8255 21.268 13.6907 21.0047 13.6052 20.72L13.9289 21.0501C14.1134 21.2384 14.3316 21.3656 14.5631 21.4356L15.228 21.6367C15.2919 21.656 15.342 21.7059 15.3614 21.7698L15.5638 22.4344C15.5705 22.4564 15.5777 22.4783 15.5854 22.5H7.5C7.22386 22.5 7 22.2761 7 22C7 21.7239 7.22386 21.5 7.5 21.5H8C8.82843 21.5 9.5 20.8284 9.5 20V18.5H7.07754C6.11646 18.5 5.36451 18.5 4.76049 18.4507C4.14594 18.4004 3.64062 18.2967 3.18404 18.064C2.43139 17.6805 1.81947 17.0686 1.43597 16.316C1.20334 15.8594 1.09956 15.3541 1.04935 14.7395C1.02149 14.3985 1.00935 14.0104 1.00407 13.5641C1.00139 13.5431 1 13.5217 1 13.5C1 13.4819 1.00096 13.464 1.00284 13.4464C1 13.1342 1 12.7943 1 12.4233V7.57756C0.999997 6.61647 0.999995 5.86451 1.04935 5.26049C1.09956 4.64594 1.20334 4.14062 1.43597 3.68404C1.81947 2.93139 2.43139 2.31947 3.18404 1.93597C3.64062 1.70334 4.14594 1.59956 4.76049 1.54935C5.36451 1.5 6.11647 1.5 7.07755 1.5Z" fill="#353566"/>
<path d="M15.35 16.3571C15.5472 16.1638 15.5504 15.8473 15.3571 15.65C15.1638 15.4528 14.8473 15.4496 14.65 15.6429L12.65 17.6029C12.5553 17.6957 12.5014 17.8224 12.5 17.955C12.4987 18.0876 12.5501 18.2153 12.643 18.31L14.6429 20.35C14.8362 20.5472 15.1528 20.5504 15.35 20.357C15.5472 20.1637 15.5503 19.8472 15.357 19.65L13.7071 17.9671L15.35 16.3571Z" fill="#353566"/>
<path d="M20.6427 15.6502C20.8359 15.4529 21.1525 15.4495 21.3498 15.6427L23.3498 17.6007C23.4446 17.6935 23.4986 17.8201 23.5 17.9527C23.5014 18.0854 23.45 18.2131 23.3572 18.3079L21.3572 20.3499C21.164 20.5471 20.8474 20.5504 20.6501 20.3572C20.4529 20.164 20.4496 19.8474 20.6428 19.6501L22.2929 17.9654L20.6502 16.3573C20.4529 16.1641 20.4495 15.8475 20.6427 15.6502Z" fill="#353566"/>
<path d="M19.4851 14.1214C19.552 13.8535 19.3892 13.582 19.1213 13.515C18.8534 13.4481 18.5819 13.611 18.5149 13.8789L16.5149 21.8789C16.448 22.1467 16.6108 22.4182 16.8787 22.4852C17.1466 22.5522 17.4181 22.3893 17.4851 22.1214L19.4851 14.1214Z" fill="#353566"/>
</svg>
