<svg width="24" height="24" viewBox="0 0 24 24" fill="none" xmlns="http://www.w3.org/2000/svg">
<g opacity="0.4">
<path d="M1.5 7.6C1.5 5.63982 1.5 4.65972 1.88148 3.91103C2.21703 3.25247 2.75247 2.71703 3.41103 2.38148C4.15972 2 5.13982 2 7.1 2H16.9C18.8602 2 19.8403 2 20.589 2.38148C21.2475 2.71703 21.783 3.25247 22.1185 3.91103C22.5 4.65972 22.5 5.63982 22.5 7.6V13.5H22.1012C21.1581 11.7158 19.2835 10.5 17.125 10.5C14.9665 10.5 13.0919 11.7158 12.1488 13.5H1.5V7.6Z" fill="#353566"/>
<path d="M11.8201 18H10V20C10 21.1046 9.10457 22 8 22H16C15.242 22 14.5825 21.5783 14.2433 20.9568C13.1263 20.2891 12.2602 19.2452 11.8201 18Z" fill="#353566"/>
</g>
<path d="M7.07755 1.5C6.11647 1.5 5.36451 1.5 4.76049 1.54935C4.14594 1.59956 3.64062 1.70334 3.18404 1.93597C2.43139 2.31947 1.81947 2.93139 1.43597 3.68404C1.20334 4.14062 1.09956 4.64594 1.04935 5.26049C0.999995 5.86451 0.999997 6.61646 1 7.57754V12.4224C1 12.7935 1 13.1342 1.00284 13.4464C1.00096 13.464 1 13.4819 1 13.5C1 13.5217 1.00139 13.5431 1.00407 13.5641C1.00935 14.0104 1.02149 14.3985 1.04935 14.7395C1.09956 15.3541 1.20334 15.8594 1.43597 16.316C1.81947 17.0686 2.43139 17.6805 3.18404 18.064C3.64062 18.2967 4.14594 18.4004 4.76049 18.4507C5.36451 18.5 6.11646 18.5 7.07754 18.5H9.5V20C9.5 20.8284 8.82843 21.5 8 21.5H7.5C7.22386 21.5 7 21.7239 7 22C7 22.2761 7.22386 22.5 7.5 22.5H16.5C16.7761 22.5 17 22.2761 17 22C17 21.9076 16.9749 21.821 16.9312 21.7467C15.6455 21.7032 14.4692 21.2282 13.5426 20.4619C13.6143 20.8461 13.774 21.1993 13.9998 21.5H10.0002C10.314 21.0822 10.5 20.5628 10.5 20V18.5H12.0245C11.8761 18.1817 11.7565 17.8473 11.6693 17.5H7.1C6.11166 17.5 5.40047 17.4996 4.84192 17.454C4.28921 17.4088 3.93014 17.3219 3.63803 17.173C3.07354 16.8854 2.6146 16.4265 2.32698 15.862C2.17814 15.5699 2.09118 15.2108 2.04602 14.6581C2.02982 14.4598 2.01933 14.2423 2.01252 14H11.9152C12.0592 13.6474 12.238 13.3126 12.4472 13H2.0005C2.00002 12.812 2 12.6124 2 12.4V7.6C2 6.61166 2.00039 5.90047 2.04602 5.34192C2.09118 4.78921 2.17814 4.43014 2.32698 4.13803C2.6146 3.57354 3.07354 3.1146 3.63803 2.82698C3.93014 2.67814 4.28921 2.59118 4.84192 2.54602C5.40047 2.50039 6.11166 2.5 7.1 2.5H16.9C17.8883 2.5 18.5995 2.50039 19.1581 2.54602C19.7108 2.59118 20.0699 2.67814 20.362 2.82698C20.9265 3.1146 21.3854 3.57354 21.673 4.13803C21.8219 4.43014 21.9088 4.78921 21.954 5.34192C21.9996 5.90047 22 6.61166 22 7.6V12.4C22 12.6124 22 12.812 21.9995 13H21.8028C22.3582 13.8298 22.6988 14.8157 22.7447 15.878C22.8556 15.5374 22.9159 15.1646 22.9507 14.7395C22.9785 14.3985 22.9906 14.0104 22.9959 13.5641C22.9986 13.5431 23 13.5217 23 13.5C23 13.4819 22.999 13.464 22.9972 13.4464C23 13.1341 23 12.7943 23 12.4232V7.57754C23 6.61646 23 5.86451 22.9507 5.26049C22.9004 4.64594 22.7967 4.14062 22.564 3.68404C22.1805 2.93139 21.5686 2.31947 20.816 1.93597C20.3594 1.70334 19.8541 1.59956 19.2395 1.54935C18.6355 1.5 17.8835 1.5 16.9225 1.5H7.07755Z" fill="#353566"/>
<path fill-rule="evenodd" clip-rule="evenodd" d="M12.5 16.125C12.5 13.5707 14.5707 11.5 17.125 11.5C19.6793 11.5 21.75 13.5707 21.75 16.125C21.75 17.222 21.368 18.2299 20.7299 19.0228L23.3535 21.6465C23.5488 21.8417 23.5488 22.1583 23.3535 22.3536C23.1582 22.5488 22.8416 22.5488 22.6464 22.3535L20.0228 19.7299C19.2299 20.368 18.222 20.75 17.125 20.75C14.5707 20.75 12.5 18.6793 12.5 16.125ZM17.125 12.5C15.123 12.5 13.5 14.123 13.5 16.125C13.5 18.127 15.123 19.75 17.125 19.75C19.127 19.75 20.75 18.127 20.75 16.125C20.75 14.123 19.127 12.5 17.125 12.5Z" fill="#353566"/>
</svg>
