<svg width="24" height="24" viewBox="0 0 24 24" fill="none" xmlns="http://www.w3.org/2000/svg">
<path opacity="0.4" d="M1.88148 3.91103C1.5 4.65972 1.5 5.63982 1.5 7.6V12.4C1.5 14.3602 1.5 15.3403 1.88148 16.089C2.21703 16.7475 2.75247 17.283 3.41103 17.6185C4.15972 18 5.13982 18 7.1 18H10V20C10 21.1046 9.10457 22 8 22H16C14.8954 22 14 21.1046 14 20V18H16.9C18.8602 18 19.8403 18 20.589 17.6185C21.2475 17.283 21.783 16.7475 22.1185 16.089C22.5 15.3403 22.5 14.3602 22.5 12.4V7.6C22.5 5.63982 22.5 4.65972 22.1185 3.91103C21.783 3.25247 21.2475 2.71703 20.589 2.38148C19.8403 2 18.8602 2 16.9 2H7.1C5.13982 2 4.15972 2 3.41103 2.38148C2.75247 2.71703 2.21703 3.25247 1.88148 3.91103Z" fill="#353566"/>
<path d="M11.125 14.125C11.125 13.6418 11.5168 13.25 12 13.25C12.4832 13.25 12.8751 13.6418 12.8751 14.125C12.8751 14.6082 12.4833 15 12.0001 15C11.5169 15 11.125 14.6082 11.125 14.125Z" fill="#353566"/>
<path d="M10.2083 7.70842C10.2083 6.7189 11.0105 5.91675 12 5.91675C12.9895 5.91675 13.7917 6.7189 13.7917 7.70842C13.7917 8.20834 13.5876 8.65968 13.2569 8.98524C13.2064 9.03496 13.1117 9.09681 12.931 9.20171L12.8764 9.23328C12.7238 9.32142 12.5327 9.43172 12.3529 9.56363C11.9304 9.87363 11.5 10.3551 11.5 11.1459C11.5 11.4221 11.7239 11.6459 12 11.6459C12.2762 11.6459 12.5 11.4221 12.5 11.1459C12.5 10.7909 12.6666 10.5738 12.9445 10.3699C13.0774 10.2724 13.2197 10.1901 13.3775 10.0987L13.433 10.0666C13.5924 9.97403 13.8021 9.85175 13.9585 9.69784C14.4722 9.19205 14.7917 8.48708 14.7917 7.70842C14.7917 6.16662 13.5418 4.91675 12 4.91675C10.4582 4.91675 9.20834 6.16662 9.20834 7.70842C9.20834 8.03381 9.26422 8.34723 9.36732 8.63893C9.45935 8.89928 9.74501 9.03575 10.0054 8.94372C10.2657 8.8517 10.4022 8.56604 10.3102 8.30568C10.2444 8.11952 10.2083 7.91872 10.2083 7.70842Z" fill="#353566"/>
<path fill-rule="evenodd" clip-rule="evenodd" d="M7.07755 1.5C6.11647 1.5 5.36451 1.5 4.76049 1.54935C4.14594 1.59956 3.64062 1.70334 3.18404 1.93597C2.43139 2.31947 1.81947 2.93139 1.43597 3.68404C1.20334 4.14062 1.09956 4.64594 1.04935 5.26049C0.999995 5.86451 0.999997 6.61646 1 7.57754V12.4224C0.999997 13.3835 0.999995 14.1355 1.04935 14.7395C1.09956 15.3541 1.20334 15.8594 1.43597 16.316C1.81947 17.0686 2.43139 17.6805 3.18404 18.064C3.64062 18.2967 4.14594 18.4004 4.76049 18.4507C5.36451 18.5 6.11646 18.5 7.07754 18.5H9.5V20C9.5 20.8284 8.82843 21.5 8 21.5H7.5C7.22386 21.5 7 21.7239 7 22C7 22.2761 7.22386 22.5 7.5 22.5H16.5C16.7761 22.5 17 22.2761 17 22C17 21.7239 16.7761 21.5 16.5 21.5H16C15.1716 21.5 14.5 20.8284 14.5 20V18.5H16.9225C17.8835 18.5 18.6355 18.5 19.2395 18.4507C19.8541 18.4004 20.3594 18.2967 20.816 18.064C21.5686 17.6805 22.1805 17.0686 22.564 16.316C22.7967 15.8594 22.9004 15.3541 22.9507 14.7395C23 14.1355 23 13.3835 23 12.4225V7.57754C23 6.61646 23 5.86451 22.9507 5.26049C22.9004 4.64594 22.7967 4.14062 22.564 3.68404C22.1805 2.93139 21.5686 2.31947 20.816 1.93597C20.3594 1.70334 19.8541 1.59956 19.2395 1.54935C18.6355 1.5 17.8835 1.5 16.9225 1.5H7.07755ZM10.5 18.5V20C10.5 20.5628 10.314 21.0822 10.0002 21.5H13.9998C13.686 21.0822 13.5 20.5628 13.5 20V18.5H10.5ZM16.9 17.5C17.8883 17.5 18.5995 17.4996 19.1581 17.454C19.7108 17.4088 20.0699 17.3219 20.362 17.173C20.9265 16.8854 21.3854 16.4265 21.673 15.862C21.8219 15.5699 21.9088 15.2108 21.954 14.6581C21.9996 14.0995 22 13.3883 22 12.4V7.6C22 6.61166 21.9996 5.90047 21.954 5.34192C21.9088 4.78921 21.8219 4.43014 21.673 4.13803C21.3854 3.57354 20.9265 3.1146 20.362 2.82698C20.0699 2.67814 19.7108 2.59118 19.1581 2.54602C18.5995 2.50039 17.8883 2.5 16.9 2.5H7.1C6.11166 2.5 5.40047 2.50039 4.84192 2.54602C4.28921 2.59118 3.93014 2.67814 3.63803 2.82698C3.07354 3.1146 2.6146 3.57354 2.32698 4.13803C2.17814 4.43014 2.09118 4.78921 2.04602 5.34192C2.00039 5.90047 2 6.61166 2 7.6V12.4C2 13.3883 2.00039 14.0995 2.04602 14.6581C2.09118 15.2108 2.17814 15.5699 2.32698 15.862C2.6146 16.4265 3.07354 16.8854 3.63803 17.173C3.93014 17.3219 4.28921 17.4088 4.84192 17.454C5.40047 17.4996 6.11166 17.5 7.1 17.5H16.9Z" fill="#353566"/>
</svg>
