<svg width="24" height="24" viewBox="0 0 24 24" fill="none" xmlns="http://www.w3.org/2000/svg">
<g opacity="0.4">
<path d="M1 6.8C1 5.11984 1 4.27976 1.32698 3.63803C1.6146 3.07354 2.07354 2.6146 2.63803 2.32698C3.27976 2 4.11984 2 5.8 2H14.6745C15.1637 2 15.4083 2 15.6385 2.05526C15.8425 2.10425 16.0376 2.18506 16.2166 2.29472C16.4184 2.4184 16.5914 2.59135 16.9373 2.93726L20.0627 6.06274C20.4086 6.40865 20.5816 6.5816 20.7053 6.78343C20.8149 6.96237 20.8957 7.15746 20.9447 7.36154C21 7.59171 21 7.8363 21 8.32548V10.5392C19.6681 10.7553 18.9012 11.8369 18.4654 13.0901L16.2634 14.191C15.9967 13.7754 15.5305 13.5 15 13.5H7C6.17157 13.5 5.5 14.1716 5.5 15V21.9999C4.01747 21.9988 3.24038 21.9799 2.63803 21.673C2.07354 21.3854 1.6146 20.9265 1.32698 20.362C1 19.7202 1 18.8802 1 17.2V6.8Z" fill="#353566"/>
<path d="M16.5 19.9273V21.9999C17.6207 21.9991 18.3383 21.9881 18.8821 21.8502C18.7174 21.557 18.58 21.2394 18.4654 20.91L16.5 19.9273Z" fill="#353566"/>
</g>
<path d="M15.5217 2.54147C15.3625 2.50323 15.1875 2.50002 14.6745 2.50002H5.8C4.95167 2.50002 4.34549 2.50041 3.87032 2.53923C3.40099 2.57758 3.10366 2.65092 2.86502 2.77251C2.39462 3.01219 2.01217 3.39464 1.77248 3.86505C1.65089 4.10368 1.57756 4.40101 1.53921 4.87034C1.50039 5.34552 1.5 5.95169 1.5 6.80002V17.2C1.5 18.0483 1.50039 18.6545 1.53921 19.1297C1.57756 19.599 1.65089 19.8964 1.77248 20.135C2.01217 20.6054 2.39462 20.9879 2.86502 21.2275C3.10366 21.3491 3.40099 21.4225 3.87032 21.4608C4.18067 21.4862 4.54691 21.4951 5 21.4983V15C5 13.8955 5.89543 13 7 13H15C15.7263 13 16.3622 13.3872 16.7126 13.9665L15.9934 14.326C15.835 14.2535 15.6783 14.1939 15.5212 14.1464C15.3695 14.0536 15.191 14 15 14H14.5131L14.5 14L14.4887 14H7C6.44772 14 6 14.4477 6 15V21.5H16V19.6773L17 20.1773V21.4983C17.4531 21.4951 17.8193 21.4862 18.1297 21.4608C18.3336 21.4441 18.505 21.4209 18.6533 21.3899C18.7957 21.7137 18.9645 22.0183 19.1645 22.29C18.876 22.3795 18.5627 22.4288 18.2111 22.4575C17.7525 22.495 17.1959 22.4994 16.5085 22.5L16.5 22.5H5.5L5.4915 22.5C4.8041 22.4994 4.24749 22.495 3.78889 22.4575C3.25771 22.4141 2.81413 22.3239 2.41103 22.1185C1.75247 21.783 1.21703 21.2476 0.881478 20.589C0.676087 20.1859 0.585932 19.7423 0.542533 19.2111C0.499994 18.6905 0.499997 18.0435 0.5 17.2222V6.77782C0.499997 5.95655 0.499994 5.30956 0.542533 4.78891C0.585932 4.25773 0.676087 3.81416 0.881478 3.41105C1.21703 2.75249 1.75247 2.21706 2.41103 1.8815C2.81413 1.67611 3.25771 1.58595 3.78889 1.54255C4.30954 1.50002 4.95652 1.50002 5.77779 1.50002L14.7315 1.50001C15.1659 1.49988 15.4665 1.4998 15.7552 1.5691C16.0103 1.63034 16.2541 1.73135 16.4778 1.86842C16.7309 2.02352 16.9435 2.23619 17.2505 2.54342L20.4566 5.74949C20.7638 6.05655 20.9765 6.26909 21.1316 6.5222C21.2687 6.74588 21.3697 6.98974 21.4309 7.24484C21.5002 7.53348 21.5001 7.83415 21.5 8.26852L21.5 10.5C21.1304 10.5 20.7983 10.56 20.5 10.669V8.3255C20.5 7.81252 20.4968 7.63753 20.4586 7.47828C20.4218 7.32523 20.3612 7.17891 20.279 7.0447C20.1934 6.90506 20.0719 6.77905 19.7092 6.41632L16.5837 3.29083C16.221 2.9281 16.095 2.80663 15.9553 2.72106C15.8211 2.63882 15.6748 2.57821 15.5217 2.54147Z" fill="#353566"/>
<path d="M13.5 7.00002C13.7761 7.00002 14 7.22388 14 7.50002C14 7.77616 13.7761 8.00002 13.5 8.00002L8.5 8.00002C8.22386 8.00002 8 7.77616 8 7.50002C8 7.22388 8.22386 7.00002 8.5 7.00002L13.5 7.00002Z" fill="#353566"/>
<path fill-rule="evenodd" clip-rule="evenodd" d="M14.5 15C13.3954 15 12.5 15.8954 12.5 17C12.5 18.1046 13.3954 19 14.5 19C15.0174 19 15.4888 18.8036 15.8439 18.4812L19.509 20.3138C19.5034 20.3751 19.5005 20.4372 19.5005 20.5C19.5005 21.6046 20.3959 22.5 21.5005 22.5C22.6051 22.5 23.5005 21.6046 23.5005 20.5C23.5005 19.3954 22.6051 18.5 21.5005 18.5C20.8165 18.5 20.2126 18.8434 19.852 19.3672L16.3957 17.6391C16.4633 17.4384 16.5 17.2235 16.5 17C16.5 16.7765 16.4633 16.5616 16.3957 16.3609L19.852 14.6328C20.2126 15.1566 20.8165 15.5 21.5005 15.5C22.6051 15.5 23.5005 14.6046 23.5005 13.5C23.5005 12.3954 22.6051 11.5 21.5005 11.5C20.3959 11.5 19.5005 12.3954 19.5005 13.5C19.5005 13.5628 19.5034 13.6249 19.509 13.6862L15.8439 15.5188C15.4888 15.1964 15.0174 15 14.5 15ZM13.5 17C13.5 16.4477 13.9477 16 14.5 16C15.0523 16 15.5 16.4477 15.5 17C15.5 17.5523 15.0523 18 14.5 18C13.9477 18 13.5 17.5523 13.5 17ZM21.5005 12.5C20.9482 12.5 20.5005 12.9477 20.5005 13.5C20.5005 14.0523 20.9482 14.5 21.5005 14.5C22.0528 14.5 22.5005 14.0523 22.5005 13.5C22.5005 12.9477 22.0528 12.5 21.5005 12.5ZM20.5005 20.5C20.5005 19.9477 20.9482 19.5 21.5005 19.5C22.0528 19.5 22.5005 19.9477 22.5005 20.5C22.5005 21.0523 22.0528 21.5 21.5005 21.5C20.9482 21.5 20.5005 21.0523 20.5005 20.5Z" fill="#353566"/>
</svg>
