<svg width="24" height="24" viewBox="0 0 24 24" fill="none" xmlns="http://www.w3.org/2000/svg">
<g clip-path="url(#clip0_9001_285313)">
<path opacity="0.4" d="M11.6156 5H9.13602C7.65122 5 6.90883 5 6.2813 5.25187C5.7273 5.47423 5.23937 5.8346 4.86392 6.29871C4.43864 6.82442 4.22031 7.53398 3.78366 8.95312L1.29409 17.0442C1.24335 17.2091 1.21797 17.2916 1.19529 17.3744C1.08086 17.7923 1.0162 18.2223 1.00268 18.6554C1 18.7412 1 18.8274 1 19C1 21.2091 2.79086 23 5 23H18C20.2091 23 22 21.2091 22 19C22 18.8274 22 18.7412 21.9973 18.6554C21.9838 18.2223 21.9191 17.7923 21.8047 17.3744C21.782 17.2916 21.7567 17.2091 21.7059 17.0442L19.7757 10.7712C19.5237 10.9877 19.1601 11.2658 18.7084 11.3993C18.2543 11.5335 17.7457 11.5335 17.2916 11.3993C16.7484 11.2388 16.3326 10.8691 16.0851 10.649C16.0603 10.627 16.0372 10.6065 16.0159 10.5878C15.0221 9.71923 13.3645 8.21005 12.5148 7.03085C12.0609 6.40096 11.765 5.70456 11.6156 5Z" fill="#353566"/>
<path fill-rule="evenodd" clip-rule="evenodd" d="M22.8641 1.8092C22.0491 0.70492 20.847 0.355591 19.9021 0.551743L19.9002 0.552146C19.166 0.70757 18.5143 1.05543 18 1.60069C17.4857 1.05543 16.8341 0.707567 16.0999 0.552142L16.0979 0.551743C15.153 0.355591 13.951 0.704925 13.136 1.8092C12.2957 2.94776 12.2186 4.90917 13.3262 6.4463C14.098 7.51746 15.6666 8.95435 16.6741 9.83495C16.6931 9.8516 16.712 9.86817 16.7307 9.88461C17.0093 10.129 17.2574 10.3465 17.5751 10.4404C17.8441 10.5199 18.1559 10.5199 18.425 10.4404C18.7426 10.3465 18.9907 10.129 19.2692 9.88465C19.288 9.86819 19.3069 9.85161 19.326 9.83494C20.3335 8.95434 21.902 7.51745 22.6739 6.44631C23.7815 4.90917 23.7044 2.94774 22.8641 1.8092ZM20.1063 1.53068C20.6641 1.41528 21.4738 1.6095 22.0595 2.40302C22.6202 3.16272 22.738 4.64672 21.8626 5.86169C21.1685 6.82481 19.6891 8.18942 18.6679 9.08201C18.2983 9.40506 18.2221 9.45759 18.1415 9.48141C18.0575 9.50626 17.9426 9.50626 17.8585 9.48141C17.7779 9.4576 17.7018 9.40507 17.3322 9.08202C16.3109 8.18943 14.8315 6.82481 14.1375 5.86171C13.262 4.64672 13.3799 3.16271 13.9406 2.40303C14.5262 1.60951 15.336 1.41528 15.8938 1.53068C16.6317 1.68709 17.1513 2.09352 17.6039 2.68116C17.6985 2.80408 17.8449 2.8761 18 2.8761C18.1552 2.8761 18.3015 2.80408 18.3962 2.68116C18.8487 2.09352 19.3684 1.68709 20.1063 1.53068Z" fill="#353566"/>
<path d="M17.5 18.25C17.0858 18.25 16.75 18.5858 16.75 19C16.75 19.4142 17.0858 19.75 17.5 19.75C17.9142 19.75 18.2501 19.4142 18.2501 19C18.2501 18.5858 17.9142 18.25 17.5 18.25Z" fill="#353566"/>
<path d="M13.75 19C13.75 18.5858 14.0858 18.25 14.5 18.25C14.9142 18.25 15.2501 18.5858 15.2501 19C15.2501 19.4142 14.9143 19.75 14.5001 19.75C14.0859 19.75 13.75 19.4142 13.75 19Z" fill="#353566"/>
<path fill-rule="evenodd" clip-rule="evenodd" d="M11.5341 4.50003C11.5724 4.83417 11.643 5.16957 11.7471 5.50003H9.13602C7.60744 5.50003 6.98366 5.50876 6.46755 5.71592C5.99268 5.90651 5.57447 6.2154 5.25265 6.61321C4.90288 7.04558 4.71108 7.63921 4.26154 9.10019L2.33014 15.3773C3.077 14.8259 4.00044 14.5 5 14.5H18C18.9996 14.5 19.923 14.8259 20.6699 15.3773L19.3519 11.0939C19.587 10.9405 19.777 10.7716 19.9149 10.649C19.9396 10.627 19.9627 10.6065 19.984 10.5878C20.0491 10.5309 20.1171 10.4713 20.1875 10.4091L22.1865 16.906C22.2346 17.0624 22.2622 17.1521 22.287 17.2424C22.4118 17.6983 22.4823 18.1673 22.4971 18.6398C22.5 18.7334 22.5 18.827 22.5 18.9909V19C22.5 21.4853 20.4853 23.5 18 23.5H5C2.51472 23.5 0.5 21.4853 0.5 19V18.9909C0.5 18.827 0.5 18.7334 0.502923 18.6398C0.517676 18.1673 0.588206 17.6983 0.713047 17.2424C0.73779 17.152 0.765288 17.0627 0.813477 16.906L3.34112 8.69117C3.74353 7.38253 3.9885 6.58589 4.47519 5.98427C4.90428 5.45386 5.46191 5.04201 6.09506 4.78788C6.81321 4.49963 7.64666 4.49978 9.01577 4.50001L11.5341 4.50003ZM1.5 19C1.5 17.067 3.067 15.5 5 15.5H18C19.933 15.5 21.5 17.067 21.5 19C21.5 20.933 19.933 22.5 18 22.5H5C3.067 22.5 1.5 20.933 1.5 19Z" fill="#353566"/>
</g>
<defs>
<clipPath id="clip0_9001_285313">
<rect width="24" height="24" fill="white"/>
</clipPath>
</defs>
</svg>
