<svg width="24" height="24" viewBox="0 0 24 24" fill="none" xmlns="http://www.w3.org/2000/svg">
<g clip-path="url(#clip0_9001_285333)">
<path opacity="0.4" d="M15.6573 5.03473C15.2 5 14.6311 5 13.864 5H9.13602C7.65122 5 6.90883 5 6.2813 5.25187C5.7273 5.47423 5.23937 5.8346 4.86392 6.29871C4.43864 6.82442 4.22031 7.53398 3.78366 8.95312L1.29409 17.0442C1.24335 17.2091 1.21797 17.2916 1.19529 17.3744C1.08086 17.7923 1.0162 18.2223 1.00268 18.6554C1 18.7412 1 18.8274 1 19C1 21.2091 2.79086 23 5 23H18C20.2091 23 22 21.2091 22 19C22 18.8274 22 18.7412 21.9973 18.6554C21.9838 18.2223 21.9191 17.7923 21.8047 17.3744C21.782 17.2916 21.7567 17.2091 21.7059 17.0442L20.3077 12.5H15C14.5363 12.5 14.0986 12.2855 13.8145 11.919C13.5304 11.5525 13.4318 11.0752 13.5474 10.6261C13.8677 9.38135 14.6312 8.32556 15.6546 7.58923L16.8891 6.70098C16.8891 6.70098 16.4453 6.20186 15.9839 5.57885C15.8611 5.41313 15.7517 5.23002 15.6573 5.03473Z" fill="#353566"/>
<path fill-rule="evenodd" clip-rule="evenodd" d="M19 0.5C17.4812 0.5 16.25 1.73122 16.25 3.25C16.25 4.76878 17.4812 6 19 6C20.5188 6 21.75 4.76878 21.75 3.25C21.75 1.73122 20.5188 0.5 19 0.5ZM17.25 3.25C17.25 2.2835 18.0335 1.5 19 1.5C19.9665 1.5 20.75 2.2835 20.75 3.25C20.75 4.2165 19.9665 5 19 5C18.0335 5 17.25 4.2165 17.25 3.25Z" fill="#353566"/>
<path d="M16.75 19C16.75 18.5858 17.0858 18.25 17.5 18.25C17.9142 18.25 18.2501 18.5858 18.2501 19C18.2501 19.4142 17.9143 19.75 17.5001 19.75C17.0859 19.75 16.75 19.4142 16.75 19Z" fill="#353566"/>
<path d="M14.5 18.25C14.0858 18.25 13.75 18.5858 13.75 19C13.75 19.4142 14.0858 19.75 14.5 19.75C14.9142 19.75 15.2501 19.4142 15.2501 19C15.2501 18.5858 14.9142 18.25 14.5 18.25Z" fill="#353566"/>
<path fill-rule="evenodd" clip-rule="evenodd" d="M15.4522 4.52088C15.0362 4.49983 14.5571 4.49991 13.9842 4.50001H9.01577C7.64666 4.49978 6.81321 4.49963 6.09506 4.78788C5.46191 5.04201 4.90428 5.45386 4.47519 5.98427C3.9885 6.58589 3.74353 7.38253 3.34112 8.69117L0.813507 16.9059C0.765319 17.0626 0.73779 17.152 0.713047 17.2424C0.588206 17.6983 0.517676 18.1673 0.502923 18.6398C0.5 18.7334 0.5 18.827 0.5 18.9909V19C0.5 21.4853 2.51472 23.5 5 23.5H18C20.4853 23.5 22.5 21.4853 22.5 19V18.9909C22.5 18.827 22.5 18.7334 22.4971 18.6398C22.4823 18.1673 22.4118 17.6983 22.287 17.2424C22.2622 17.1521 22.2347 17.0628 22.1866 16.9064L20.8308 12.5H19.7846L20.6699 15.3773C19.923 14.8259 18.9996 14.5 18 14.5H5C4.00044 14.5 3.077 14.8259 2.33014 15.3773L4.26154 9.10019C4.71108 7.63921 4.90288 7.04558 5.25265 6.61321C5.57447 6.2154 5.99268 5.90651 6.46755 5.71592C6.98366 5.50876 7.60744 5.50003 9.13602 5.50003H13.864C14.9041 5.50003 15.5253 5.50407 15.9787 5.57193C15.7555 5.26868 15.5768 4.90774 15.4522 4.52088ZM5 15.5C3.067 15.5 1.5 17.067 1.5 19C1.5 20.933 3.067 22.5 5 22.5H18C19.933 22.5 21.5 20.933 21.5 19C21.5 17.067 19.933 15.5 18 15.5H5Z" fill="#353566"/>
<path d="M19 8.5C17.3513 8.5 15.8682 9.63272 15.4842 11.1246C15.4154 11.3921 15.1428 11.553 14.8754 11.4842C14.6079 11.4154 14.4469 11.1428 14.5158 10.8754C15.0199 8.91683 16.921 7.5 19 7.5C21.0789 7.5 22.9801 8.91683 23.4842 10.8754C23.553 11.1428 23.3921 11.4154 23.1246 11.4842C22.8572 11.553 22.5846 11.3921 22.5158 11.1246C22.1318 9.63272 20.6487 8.5 19 8.5Z" fill="#353566"/>
</g>
<defs>
<clipPath id="clip0_9001_285333">
<rect width="24" height="24" fill="white"/>
</clipPath>
</defs>
</svg>
