<svg width="24" height="24" viewBox="0 0 24 24" fill="none" xmlns="http://www.w3.org/2000/svg">
<g clip-path="url(#clip0_9001_285303)">
<path opacity="0.4" d="M11.5764 5C11.5261 5.32597 11.5 5.65994 11.5 6C11.5 9.58985 14.4101 12.5 18 12.5C18.7689 12.5 19.5066 12.3665 20.1912 12.1214L21.7059 17.0442C21.7567 17.2091 21.782 17.2916 21.8047 17.3744C21.9191 17.7923 21.9838 18.2223 21.9973 18.6554C22 18.7412 22 18.8274 22 19C22 21.2091 20.2091 23 18 23H5C2.79086 23 1 21.2091 1 19C1 18.8274 1 18.7412 1.00268 18.6554C1.0162 18.2223 1.08086 17.7923 1.19529 17.3744C1.21797 17.2916 1.24334 17.2091 1.29408 17.0442L3.78366 8.95312C4.22031 7.53398 4.43864 6.82442 4.86392 6.29871C5.23937 5.8346 5.7273 5.47423 6.2813 5.25187C6.90883 5 7.65122 5 9.13602 5H11.5764Z" fill="#353566"/>
<path d="M18.5 4.70711L19.6464 5.85352C19.8417 6.04879 20.1583 6.04879 20.3535 5.85352C20.5488 5.65826 20.5488 5.34168 20.3535 5.14642L18.3535 3.14643C18.2598 3.05266 18.1326 2.99998 18 2.99998C17.8674 2.99998 17.7402 3.05266 17.6464 3.14643L15.6464 5.14645C15.4511 5.34171 15.4511 5.65829 15.6464 5.85355C15.8417 6.04882 16.1582 6.04882 16.3535 5.85355L17.5 4.70706V8.5C17.5 8.77614 17.7239 9 18 9C18.2761 9 18.5 8.77614 18.5 8.5V4.70711Z" fill="#353566"/>
<path fill-rule="evenodd" clip-rule="evenodd" d="M18 0.5C14.9624 0.5 12.5 2.96243 12.5 6C12.5 9.03757 14.9624 11.5 18 11.5C21.0376 11.5 23.5 9.03757 23.5 6C23.5 2.96243 21.0376 0.5 18 0.5ZM13.5 6C13.5 3.51472 15.5147 1.5 18 1.5C20.4853 1.5 22.5 3.51472 22.5 6C22.5 8.48528 20.4853 10.5 18 10.5C15.5147 10.5 13.5 8.48528 13.5 6Z" fill="#353566"/>
<path d="M17.5 18.25C17.0858 18.25 16.75 18.5858 16.75 19C16.75 19.4142 17.0858 19.75 17.5 19.75C17.9142 19.75 18.2501 19.4142 18.2501 19C18.2501 18.5858 17.9142 18.25 17.5 18.25Z" fill="#353566"/>
<path d="M13.75 19C13.75 18.5858 14.0858 18.25 14.5 18.25C14.9142 18.25 15.2501 18.5858 15.2501 19C15.2501 19.4142 14.9143 19.75 14.5001 19.75C14.0859 19.75 13.75 19.4142 13.75 19Z" fill="#353566"/>
<path fill-rule="evenodd" clip-rule="evenodd" d="M20.6699 15.3773L19.7143 12.2716C20.0393 12.1829 20.3541 12.0697 20.6567 11.9341L22.1865 16.906C22.2346 17.0624 22.2622 17.1521 22.287 17.2424C22.4118 17.6983 22.4823 18.1673 22.4971 18.6398C22.5 18.7334 22.5 18.827 22.5 18.9909V19C22.5 21.4853 20.4853 23.5 18 23.5H5C2.51472 23.5 0.5 21.4853 0.5 19V18.9909C0.5 18.827 0.5 18.7334 0.502923 18.6398C0.517676 18.1673 0.588206 17.6983 0.713047 17.2424C0.73779 17.152 0.765288 17.0627 0.813477 16.906L3.34112 8.69117C3.74353 7.38253 3.9885 6.58589 4.47519 5.98427C4.90428 5.45386 5.46191 5.04201 6.09506 4.78788C6.81321 4.49963 7.64666 4.49978 9.01577 4.50001L11.6739 4.50003C11.5972 4.82463 11.5449 5.15865 11.5189 5.50003H9.13602C7.60744 5.50003 6.98366 5.50876 6.46755 5.71592C5.99268 5.90651 5.57447 6.2154 5.25265 6.61321C4.90288 7.04558 4.71108 7.63921 4.26154 9.10019L2.33014 15.3773C3.077 14.8259 4.00044 14.5 5 14.5H18C18.9996 14.5 19.923 14.8259 20.6699 15.3773ZM1.5 19C1.5 17.067 3.067 15.5 5 15.5H18C19.933 15.5 21.5 17.067 21.5 19C21.5 20.933 19.933 22.5 18 22.5H5C3.067 22.5 1.5 20.933 1.5 19Z" fill="#353566"/>
</g>
<defs>
<clipPath id="clip0_9001_285303">
<rect width="24" height="24" fill="white"/>
</clipPath>
</defs>
</svg>
