<svg width="24" height="24" viewBox="0 0 24 24" fill="none" xmlns="http://www.w3.org/2000/svg">
<g opacity="0.4">
<path d="M7.37794 2.5C6.62656 2.5 6.03206 2.49999 5.55309 2.53913C5.0636 2.57912 4.65089 2.66246 4.27453 2.85423C3.663 3.16582 3.16582 3.663 2.85423 4.27453C2.66246 4.65089 2.57912 5.0636 2.53913 5.55309C2.49999 6.03206 2.5 6.62655 2.5 7.37794V14C2.5 14.2761 2.72386 14.5 3 14.5H12.5034C12.5011 14.4194 12.5 14.3387 12.5 14.2579C12.5 12.731 12.7859 12.0027 13.5871 11.5999L13.5881 11.5994L17.1582 9.8143C17.996 9.3951 19.0029 9.39524 19.8425 9.81467L21.5 10.643V7.37793C21.5 6.62662 21.5 6.03203 21.4609 5.55309C21.4209 5.0636 21.3375 4.65089 21.1458 4.27453C20.8342 3.663 20.337 3.16582 19.7255 2.85423C19.3491 2.66246 18.9364 2.57912 18.4469 2.53913C17.9679 2.49999 17.3734 2.5 16.6221 2.5H7.37794Z" fill="#353566"/>
<path d="M12.6766 16C12.8955 17.0712 13.3122 18.0882 13.894 19H3.25C2.00736 19 1 17.9926 1 16.75V16H12.6766Z" fill="#353566"/>
</g>
<path d="M7.37794 2.5C6.62656 2.5 6.03206 2.49999 5.55309 2.53913C5.0636 2.57912 4.65089 2.66246 4.27453 2.85423C3.663 3.16582 3.16582 3.663 2.85423 4.27453C2.66246 4.65089 2.57912 5.0636 2.53913 5.55309C2.49999 6.03206 2.5 6.62656 2.5 7.37794L2.5 14C2.5 14.2761 2.72386 14.5 3 14.5C3.27614 14.5 3.5 14.2761 3.5 14V7.4C3.5 6.62168 3.50039 6.06801 3.53581 5.63452C3.57075 5.20687 3.63727 4.94042 3.74524 4.72852C3.96095 4.30516 4.30516 3.96095 4.72852 3.74524C4.94042 3.63727 5.20687 3.57075 5.63452 3.53581C6.06801 3.50039 6.62168 3.5 7.4 3.5H16.6C17.3783 3.5 17.932 3.50039 18.3655 3.53581C18.7931 3.57075 19.0596 3.63727 19.2715 3.74524C19.6948 3.96095 20.039 4.30516 20.2548 4.72852C20.3627 4.94042 20.4293 5.20687 20.4642 5.63452C20.4996 6.06801 20.5 6.62168 20.5 7.4V10.1432L21.5 10.643V7.37793C21.5 6.62662 21.5 6.03203 21.4609 5.55309C21.4209 5.0636 21.3375 4.65089 21.1458 4.27453C20.8342 3.663 20.337 3.16582 19.7255 2.85423C19.3491 2.66246 18.9364 2.57912 18.4469 2.53913C17.9679 2.49999 17.3735 2.5 16.6221 2.5H7.37794Z" fill="#353566"/>
<path d="M1 15.5H12.5894C12.6383 15.8383 12.7069 16.1722 12.7941 16.5H1.5V16.75C1.5 17.7165 2.2835 18.5 3.25 18.5H13.5973C13.7883 18.847 14.0021 19.1812 14.2373 19.5H3.25C1.73122 19.5 0.5 18.2688 0.5 16.75V16C0.5 15.8674 0.552678 15.7402 0.646447 15.6464C0.740215 15.5527 0.867392 15.5 1 15.5Z" fill="#353566"/>
<path fill-rule="evenodd" clip-rule="evenodd" d="M19.3934 10.7081C18.8303 10.4267 18.1676 10.4267 17.6045 10.7083L14.036 12.493C13.7076 12.6573 13.5002 12.9928 13.5 13.36C13.4993 14.7737 13.5894 16.1315 14.1667 17.451C14.9568 19.2568 16.4181 20.6575 18.2165 21.4423C18.3966 21.5209 18.6013 21.5209 18.7815 21.4423C20.5804 20.6573 22.042 19.2548 22.8321 17.4487C23.4088 16.1304 23.4993 14.7739 23.5 13.3614C23.5002 12.9935 23.2924 12.6571 22.9633 12.4926L19.3934 10.7081ZM18.0518 11.6027C18.3334 11.4619 18.6647 11.4619 18.9463 11.6026L22.5 13.379C22.4994 14.6465 22.4342 15.8633 21.916 17.0479C21.2465 18.5782 20.0268 19.8009 18.499 20.4744C16.9715 19.8018 15.7521 18.5797 15.0828 17.0502C14.5642 15.8648 14.4994 14.6473 14.5 13.3791L18.0518 11.6027Z" fill="#353566"/>
</svg>
