<svg width="24" height="24" viewBox="0 0 24 24" fill="none" xmlns="http://www.w3.org/2000/svg">
<g opacity="0.4">
<path d="M7.37794 2.5C6.62656 2.5 6.03206 2.49999 5.55309 2.53913C5.0636 2.57912 4.65089 2.66246 4.27453 2.85423C3.663 3.16582 3.16582 3.663 2.85423 4.27453C2.66246 4.65089 2.57912 5.0636 2.53913 5.55309C2.49999 6.03206 2.5 6.62655 2.5 7.37794V14C2.5 14.2761 2.72386 14.5 3 14.5H13.5226C13.7761 11.6982 16.1309 9.5 19.0001 9.5C19.9003 9.5 20.75 9.71626 21.5 10.0997V7.37793C21.5 6.62662 21.5 6.03203 21.4609 5.55309C21.4209 5.0636 21.3375 4.65089 21.1458 4.27453C20.8342 3.663 20.337 3.16582 19.7255 2.85423C19.3491 2.66246 18.9364 2.57912 18.4469 2.53913C17.9679 2.49999 17.3734 2.5 16.6221 2.5H7.37794Z" fill="#353566"/>
<path d="M13.5805 16C13.7616 17.1155 14.2342 18.1155 14.8508 19H3.25C2.00736 19 1 17.9926 1 16.75V16H13.5805Z" fill="#353566"/>
</g>
<path d="M7.37794 2.5H16.6221C17.3734 2.5 17.9679 2.49999 18.4469 2.53913C18.9364 2.57912 19.3491 2.66246 19.7255 2.85423C20.337 3.16582 20.8342 3.663 21.1458 4.27453C21.3375 4.65089 21.4209 5.0636 21.4609 5.55309C21.5 6.03202 21.5 6.62645 21.5 7.37775V10.0997C21.1832 9.93773 20.8486 9.80561 20.5 9.70701V7.4C20.5 6.62168 20.4996 6.06801 20.4642 5.63452C20.4293 5.20687 20.3627 4.94042 20.2548 4.72852C20.039 4.30516 19.6948 3.96095 19.2715 3.74524C19.0596 3.63727 18.7931 3.57075 18.3655 3.53581C17.932 3.50039 17.3783 3.5 16.6 3.5H7.4C6.62168 3.5 6.06801 3.50039 5.63452 3.53581C5.20687 3.57075 4.94042 3.63727 4.72852 3.74524C4.30516 3.96095 3.96095 4.30516 3.74524 4.72852C3.63727 4.94042 3.57075 5.20687 3.53581 5.63452C3.50039 6.06801 3.5 6.62168 3.5 7.4V14C3.5 14.2761 3.27614 14.5 3 14.5C2.72386 14.5 2.5 14.2761 2.5 14L2.5 7.37794C2.5 6.62656 2.49999 6.03206 2.53913 5.55309C2.57912 5.0636 2.66246 4.65089 2.85423 4.27453C3.16582 3.663 3.663 3.16582 4.27453 2.85423C4.65089 2.66246 5.0636 2.57912 5.55309 2.53913C6.03206 2.49999 6.62656 2.5 7.37794 2.5Z" fill="#353566"/>
<path d="M13.5199 15.5H1C0.867392 15.5 0.740215 15.5527 0.646447 15.6464C0.552678 15.7402 0.5 15.8674 0.5 16V16.75C0.5 18.2688 1.73122 19.5 3.25 19.5H15.2235C14.9719 19.1831 14.7368 18.8498 14.526 18.5H3.25C2.2835 18.5 1.5 17.7165 1.5 16.75V16.5H13.6826C13.603 16.177 13.5474 15.8437 13.5199 15.5Z" fill="#353566"/>
<path fill-rule="evenodd" clip-rule="evenodd" d="M19 13C17.8954 13 17 13.8954 17 15C17 16.1046 17.8954 17 19 17C20.1046 17 21 16.1046 21 15C21 13.8954 20.1046 13 19 13ZM18 15C18 14.4477 18.4477 14 19 14C19.5523 14 20 14.4477 20 15C20 15.5523 19.5523 16 19 16C18.4477 16 18 15.5523 18 15Z" fill="#353566"/>
<path fill-rule="evenodd" clip-rule="evenodd" d="M14.5 15.002C14.5 12.517 16.5144 10.5 19.0001 10.5C21.4854 10.5 23.5 12.5147 23.5 15C23.5 17.7667 21.3 19.9 19.3 21.4C19.1222 21.5333 18.8778 21.5333 18.7 21.4C16.7001 19.9001 14.5 17.7667 14.5 15.002ZM19.0001 11.5C17.0674 11.5 15.5 13.0687 15.5 15.002C15.5 17.1211 17.1234 18.9113 19 20.3709C20.8765 18.9113 22.5 17.121 22.5 15C22.5 13.067 20.9331 11.5 19.0001 11.5Z" fill="#353566"/>
</svg>
