<svg width="24" height="24" viewBox="0 0 24 24" fill="none" xmlns="http://www.w3.org/2000/svg">
<path opacity="0.4" d="M9 2C6.79086 2 5 3.79086 5 6V12C5 14.2091 6.79086 16 9 16C11.2091 16 13 14.2091 13 12V6C13 3.79086 11.2091 2 9 2Z" fill="#353566"/>
<path fill-rule="evenodd" clip-rule="evenodd" d="M9 1.5C6.51472 1.5 4.5 3.51472 4.5 6V12C4.5 14.4853 6.51472 16.5 9 16.5C9.61599 16.5 10.2031 16.3762 10.7377 16.1522C10.8043 16.0488 10.8848 15.9519 10.9791 15.8643C11.4812 15.3977 12.0381 14.9887 12.639 14.6478C13.1805 13.9048 13.5 12.9897 13.5 12V6C13.5 3.51472 11.4853 1.5 9 1.5ZM5.5 6C5.5 4.067 7.067 2.5 9 2.5C10.933 2.5 12.5 4.067 12.5 6V12C12.5 13.933 10.933 15.5 9 15.5C7.067 15.5 5.5 13.933 5.5 12V6Z" fill="#353566"/>
<path d="M9.00504 18.5C9.73578 18.4995 10.4383 18.3783 11.0938 18.1554C11.4698 18.4309 11.9585 18.503 12.4266 18.572C12.4767 18.5793 12.5266 18.5867 12.576 18.5942C11.651 19.0969 10.6084 19.4107 9.5 19.4836V21.5H13C13.2761 21.5 13.5 21.7239 13.5 22C13.5 22.2761 13.2761 22.5 13 22.5H5C4.72386 22.5 4.5 22.2761 4.5 22C4.5 21.7239 4.72386 21.5 5 21.5H8.5V19.4836C4.59098 19.2263 1.5 15.9741 1.5 12C1.5 11.7239 1.72386 11.5 2 11.5C2.27614 11.5 2.5 11.7239 2.5 12C2.5 15.5882 5.40743 18.4973 8.99496 18.5L9 18.5L9.00504 18.5Z" fill="#353566"/>
<path d="M12.3403 17.3295C13.5628 16.1938 15.1995 15.5 16.9993 15.5C18.7998 15.5 20.437 16.1943 21.6596 17.3307C21.8619 17.5187 22.1782 17.5071 22.3662 17.3049C22.5542 17.1026 22.5427 16.7862 22.3404 16.5982C20.9401 15.2967 19.0622 14.5 16.9993 14.5C14.9372 14.5 13.0598 15.2961 11.6597 16.5969C11.4574 16.7849 11.4457 17.1012 11.6337 17.3035C11.8216 17.5058 12.138 17.5175 12.3403 17.3295Z" fill="#353566"/>
<path d="M17.0032 18.833C16.1459 18.833 15.3645 19.1947 14.7897 19.7911C14.5981 19.9899 14.2815 19.9958 14.0827 19.8041C13.8839 19.6125 13.878 19.296 14.0697 19.0971C14.8194 18.3192 15.8553 17.833 17.0032 17.833C18.1511 17.833 19.187 18.3192 19.9368 19.0971C20.1284 19.296 20.1225 19.6125 19.9237 19.8041C19.7249 19.9958 19.4084 19.9899 19.2167 19.7911C18.6419 19.1947 17.8605 18.833 17.0032 18.833Z" fill="#353566"/>
<path d="M17 20.625C16.5168 20.625 16.125 21.0168 16.125 21.5C16.125 21.9832 16.5168 22.375 17 22.375C17.4832 22.375 17.8751 21.9832 17.8751 21.5C17.8751 21.0168 17.4832 20.625 17 20.625Z" fill="#353566"/>
</svg>
