<svg width="24" height="24" viewBox="0 0 24 24" fill="none" xmlns="http://www.w3.org/2000/svg">
<path opacity="0.4" d="M9 2C6.79086 2 5 3.79086 5 6V12C5 14.2091 6.79086 16 9 16C11.2091 16 13 14.2091 13 12V6C13 3.79086 11.2091 2 9 2Z" fill="#353566"/>
<path fill-rule="evenodd" clip-rule="evenodd" d="M4.5 6C4.5 3.51472 6.51472 1.5 9 1.5C11.4853 1.5 13.5 3.51472 13.5 6V12C13.5 14.4853 11.4853 16.5 9 16.5C6.51472 16.5 4.5 14.4853 4.5 12V6ZM9 2.5C7.067 2.5 5.5 4.067 5.5 6V12C5.5 13.933 7.067 15.5 9 15.5C10.933 15.5 12.5 13.933 12.5 12V6C12.5 4.067 10.933 2.5 9 2.5Z" fill="#353566"/>
<path d="M2.5 12C2.5 11.7239 2.27614 11.5 2 11.5C1.72386 11.5 1.5 11.7239 1.5 12C1.5 15.9741 4.59098 19.2263 8.5 19.4836V21.5H5C4.72386 21.5 4.5 21.7239 4.5 22C4.5 22.2761 4.72386 22.5 5 22.5H12.5858C12.4876 22.2223 12.4722 21.9182 12.5474 21.6261C12.5582 21.5839 12.5696 21.5418 12.5815 21.5H9.5V19.4836C11.7261 19.3371 13.687 18.2193 14.9627 16.55C14.7494 16.2547 14.5777 15.9065 14.4564 15.5338C13.2987 17.3178 11.2898 18.4983 9.00504 18.5L9 18.5L8.99496 18.5C5.40743 18.4973 2.5 15.5882 2.5 12Z" fill="#353566"/>
<path d="M18 19.5C16.3513 19.5 14.8682 20.6327 14.4842 22.1246C14.4154 22.3921 14.1428 22.553 13.8754 22.4842C13.6079 22.4154 13.4469 22.1428 13.5158 21.8754C14.0199 19.9168 15.921 18.5 18 18.5C20.0789 18.5 21.9801 19.9168 22.4842 21.8754C22.553 22.1428 22.3921 22.4154 22.1246 22.4842C21.8572 22.553 21.5846 22.3921 21.5158 22.1246C21.1318 20.6327 19.6487 19.5 18 19.5Z" fill="#353566"/>
<path fill-rule="evenodd" clip-rule="evenodd" d="M18 11.5C16.4812 11.5 15.25 12.7312 15.25 14.25C15.25 15.7688 16.4812 17 18 17C19.5188 17 20.75 15.7688 20.75 14.25C20.75 12.7312 19.5188 11.5 18 11.5ZM16.25 14.25C16.25 13.2835 17.0335 12.5 18 12.5C18.9665 12.5 19.75 13.2835 19.75 14.25C19.75 15.2165 18.9665 16 18 16C17.0335 16 16.25 15.2165 16.25 14.25Z" fill="#353566"/>
</svg>
