<svg width="24" height="24" viewBox="0 0 24 24" fill="none" xmlns="http://www.w3.org/2000/svg">
<path opacity="0.4" d="M18 10C19.4001 10 20.1002 10 20.635 10.2725C21.1054 10.5122 21.4878 10.8946 21.7275 11.365C22 11.8998 22 12.5999 22 14V18C22 19.4001 22 20.1002 21.7275 20.635C21.4878 21.1054 21.1054 21.4878 20.635 21.7275C20.1002 22 19.4001 22 18 22L6 22C4.59987 22 3.8998 22 3.36502 21.7275C2.89462 21.4878 2.51217 21.1054 2.27248 20.635C2 20.1002 2 19.4001 2 18L2 14C2 12.5999 2 11.8998 2.27248 11.365C2.51217 10.8946 2.89462 10.5122 3.36502 10.2725C3.8998 10 4.59987 10 6 10L18 10Z" fill="#353566"/>
<path d="M22.4953 7.93125C22.5216 8.12191 22.4362 8.31075 22.2756 8.41683C22.115 8.52292 21.9078 8.52741 21.7428 8.42839L19.2428 6.92839C19.006 6.78632 18.9292 6.47919 19.0713 6.2424C19.2133 6.00561 19.5205 5.92882 19.7573 6.0709L21.2642 6.97505C20.6039 4.81324 18.9404 3.12108 16.8527 2.47745C16.5888 2.3961 16.4408 2.11623 16.5222 1.85234C16.6036 1.58845 16.8834 1.44048 17.1473 1.52184C19.9571 2.38805 22.0742 4.88195 22.4953 7.93125Z" fill="#353566"/>
<path d="M7 4.49964C6.72386 4.49964 6.5 4.7235 6.5 4.99964C6.5 5.27579 6.72386 5.49964 7 5.49964H9C9.27614 5.49964 9.5 5.27579 9.5 4.99964C9.5 4.7235 9.27614 4.49964 9 4.49964H7Z" fill="#353566"/>
<path d="M5.5 15.2496C5.08579 15.2496 4.75 15.5854 4.75 15.9996C4.75 16.4139 5.08579 16.7496 5.5 16.7496C5.91421 16.7496 6.2501 16.4139 6.2501 15.9996C6.2501 15.5854 5.91421 15.2496 5.5 15.2496Z" fill="#353566"/>
<path d="M19 14.4996C19.2761 14.4996 19.5 14.7235 19.5 14.9996V16.9996C19.5 17.2758 19.2761 17.4996 19 17.4996C18.7239 17.4996 18.5 17.2758 18.5 16.9996V14.9996C18.5 14.7235 18.7239 14.4996 19 14.4996Z" fill="#353566"/>
<path fill-rule="evenodd" clip-rule="evenodd" d="M10.0219 1.49964H5.97812C5.2966 1.49964 4.75458 1.49964 4.31729 1.53537C3.86949 1.57195 3.48765 1.64848 3.13803 1.82663C2.57354 2.11425 2.1146 2.57319 1.82698 3.13767C1.64884 3.4873 1.57231 3.86913 1.53572 4.31693C1.49999 4.75423 1.5 5.29624 1.5 5.97776V12.9996C1.5 13.022 1.50147 13.044 1.5043 13.0655C1.5 13.3383 1.5 13.641 1.5 13.9777V18.0215C1.5 18.703 1.49999 19.2451 1.53572 19.6824C1.57231 20.1302 1.64884 20.512 1.82698 20.8616C2.1146 21.4261 2.57354 21.885 3.13803 22.1727C3.48765 22.3508 3.86949 22.4273 4.31729 22.4639C4.75454 22.4997 5.2965 22.4996 5.97793 22.4996H18.0219C18.7033 22.4996 19.2455 22.4997 19.6827 22.4639C20.1305 22.4273 20.5123 22.3508 20.862 22.1727C21.4265 21.885 21.8854 21.4261 22.173 20.8616C22.3512 20.512 22.4277 20.1302 22.4643 19.6824C22.5 19.2451 22.5 18.7031 22.5 18.0217V13.9778C22.5 13.2963 22.5 12.7542 22.4643 12.3169C22.4277 11.8691 22.3512 11.4873 22.173 11.1377C21.8854 10.5732 21.4265 10.1142 20.862 9.82663C20.5123 9.64848 20.1305 9.57195 19.6827 9.53537C19.2454 9.49964 18.7034 9.49964 18.0219 9.49965H14.5V5.97775C14.5 5.29626 14.5 4.75422 14.4643 4.31693C14.4277 3.86913 14.3512 3.4873 14.173 3.13767C13.8854 2.57319 13.4265 2.11425 12.862 1.82663C12.5123 1.64848 12.1305 1.57195 11.6827 1.53537C11.2454 1.49964 10.7034 1.49964 10.0219 1.49964ZM3.13803 9.82662C2.906 9.94485 2.6918 10.092 2.5 10.2636V5.99964C2.5 5.29133 2.50039 4.79016 2.5324 4.39837C2.56393 4.01241 2.62365 3.77682 2.71799 3.59166C2.90973 3.21534 3.21569 2.90938 3.59202 2.71763C3.77717 2.62329 4.01276 2.56358 4.39872 2.53205C4.79052 2.50003 5.29168 2.49965 6 2.49965H10C10.7083 2.49965 11.2095 2.50003 11.6013 2.53205C11.9872 2.56358 12.2228 2.62329 12.408 2.71763C12.7843 2.90938 13.0903 3.21534 13.282 3.59166C13.3764 3.77682 13.4361 4.01241 13.4676 4.39837C13.4996 4.79016 13.5 5.29133 13.5 5.99964V9.49965L5.97812 9.49964C5.2966 9.49964 4.75458 9.49964 4.31729 9.53537C3.86949 9.57195 3.48765 9.64848 3.13803 9.82662ZM6 10.4996L18 10.4996C18.7083 10.4996 19.2095 10.5 19.6013 10.532C19.9872 10.5636 20.2228 10.6233 20.408 10.7176C20.7843 10.9094 21.0903 11.2153 21.282 11.5917C21.3764 11.7768 21.4361 12.0124 21.4676 12.3984C21.4996 12.7902 21.5 13.2913 21.5 13.9996V17.9996C21.5 18.708 21.4996 19.2091 21.4676 19.6009C21.4361 19.9869 21.3764 20.2225 21.282 20.4076C21.0903 20.784 20.7843 21.0899 20.408 21.2817C20.2228 21.376 19.9872 21.4357 19.6013 21.4672C19.2095 21.4993 18.7083 21.4996 18 21.4996H6C5.29168 21.4996 4.79052 21.4993 4.39872 21.4672C4.01276 21.4357 3.77717 21.376 3.59202 21.2817C3.21569 21.0899 2.90973 20.784 2.71799 20.4076C2.62365 20.2225 2.56393 19.9869 2.5324 19.6009C2.50039 19.2091 2.5 18.708 2.5 17.9996L2.5 13.9996C2.5 13.2913 2.50039 12.7902 2.5324 12.3984C2.56393 12.0124 2.62365 11.7768 2.71799 11.5917C2.90973 11.2153 3.21569 10.9094 3.59202 10.7176C3.77717 10.6233 4.01276 10.5636 4.39872 10.532C4.79052 10.5 5.29168 10.4996 6 10.4996Z" fill="#353566"/>
</svg>
