<svg width="24" height="24" viewBox="0 0 24 24" fill="none" xmlns="http://www.w3.org/2000/svg">
<path opacity="0.4" d="M5 7.2C5 5.37983 5 4.46974 5.35423 3.77453C5.66582 3.163 6.163 2.66582 6.77453 2.35423C7.46974 2 8.37983 2 10.2 2H13.8C15.6202 2 16.5303 2 17.2255 2.35423C17.837 2.66582 18.3342 3.163 18.6458 3.77453C19 4.46974 19 5.37983 19 7.2V16.8C19 18.6202 19 19.5303 18.6458 20.2255C18.3342 20.837 17.837 21.3342 17.2255 21.6458C16.5303 22 15.6202 22 13.8 22H10.2C8.37983 22 7.46974 22 6.77453 21.6458C6.163 21.3342 5.66582 20.837 5.35423 20.2255C5 19.5303 5 18.6202 5 16.8V7.2Z" fill="#353566"/>
<path d="M12 17.75C11.5858 17.75 11.25 18.0858 11.25 18.5C11.25 18.9142 11.5858 19.25 12 19.25C12.4142 19.25 12.7501 18.9142 12.7501 18.5C12.7501 18.0858 12.4142 17.75 12 17.75Z" fill="#353566"/>
<path fill-rule="evenodd" clip-rule="evenodd" d="M13.8223 1.5H10.1777C9.28649 1.5 8.58703 1.49999 8.02469 1.54594C7.45183 1.59274 6.97738 1.68971 6.54754 1.90873C5.84193 2.26825 5.26825 2.84193 4.90873 3.54754C4.68971 3.97738 4.59274 4.45183 4.54594 5.02469C4.49999 5.58703 4.5 6.28649 4.5 7.17767V16.8223C4.5 17.7135 4.49999 18.413 4.54594 18.9753C4.59274 19.5482 4.68971 20.0226 4.90873 20.4525C5.26825 21.1581 5.84193 21.7317 6.54754 22.0913C6.97738 22.3103 7.45183 22.4073 8.02469 22.4541C8.58703 22.5 9.28648 22.5 10.1777 22.5H13.8223C14.7135 22.5 15.413 22.5 15.9753 22.4541C16.5482 22.4073 17.0226 22.3103 17.4525 22.0913C18.1581 21.7317 18.7317 21.1581 19.0913 20.4525C19.3103 20.0226 19.4073 19.5482 19.4541 18.9753C19.5 18.413 19.5 17.7135 19.5 16.8224V7.17765C19.5 6.2865 19.5 5.58702 19.4541 5.02469C19.4073 4.45183 19.3103 3.97738 19.0913 3.54754C18.7317 2.84193 18.1581 2.26825 17.4525 1.90873C17.0226 1.68971 16.5482 1.59274 15.9753 1.54594C15.413 1.49999 14.7135 1.5 13.8223 1.5ZM7.00153 2.79973C7.2669 2.66452 7.5951 2.58437 8.10612 2.54262C8.62298 2.50039 9.28166 2.5 10.2 2.5H13.8C14.7183 2.5 15.377 2.50039 15.8939 2.54262C16.4049 2.58437 16.7331 2.66452 16.9985 2.79973C17.5159 3.06338 17.9366 3.48408 18.2003 4.00153C18.3355 4.2669 18.4156 4.5951 18.4574 5.10612C18.4996 5.62298 18.5 6.28166 18.5 7.2V16.8C18.5 17.7183 18.4996 18.377 18.4574 18.8939C18.4156 19.4049 18.3355 19.7331 18.2003 19.9985C17.9366 20.5159 17.5159 20.9366 16.9985 21.2003C16.7331 21.3355 16.4049 21.4156 15.8939 21.4574C15.377 21.4996 14.7183 21.5 13.8 21.5H10.2C9.28166 21.5 8.62298 21.4996 8.10612 21.4574C7.5951 21.4156 7.2669 21.3355 7.00153 21.2003C6.48408 20.9366 6.06338 20.5159 5.79973 19.9985C5.66452 19.7331 5.58437 19.4049 5.54262 18.8939C5.50039 18.377 5.5 17.7183 5.5 16.8V7.2C5.5 6.28166 5.50039 5.62298 5.54262 5.10612C5.58437 4.5951 5.66452 4.2669 5.79973 4.00153C6.06338 3.48408 6.48408 3.06338 7.00153 2.79973Z" fill="#353566"/>
</svg>
