<svg width="24" height="24" viewBox="0 0 24 24" fill="none" xmlns="http://www.w3.org/2000/svg">
<path opacity="0.4" d="M2.35423 3.77453C2 4.46974 2 5.37983 2 7.2V16.8C2 18.6202 2 19.5303 2.35423 20.2255C2.66582 20.837 3.163 21.3342 3.77453 21.6458C4.46974 22 5.37983 22 7.2 22H10.8C12.6202 22 13.5303 22 14.2255 21.6458C14.2294 21.6438 14.2333 21.6417 14.2373 21.6397C14.2342 21.6386 14.2311 21.6376 14.228 21.6367L13.563 21.4356C13.3315 21.3656 13.1134 21.2384 12.9288 21.0501L10.9289 19.0101C10.3568 18.4266 10.3665 17.4606 10.9501 16.8887L12.9501 14.9287C13.3852 14.5023 14.0163 14.3925 14.5538 14.6052L15.9046 15.1398C15.9361 15.1522 15.9688 15.1561 16 15.1527V7.2C16 5.37983 16 4.46974 15.6458 3.77453C15.3342 3.163 14.837 2.66582 14.2255 2.35423C13.5303 2 12.6202 2 10.8 2H7.2C5.37983 2 4.46974 2 3.77453 2.35423C3.163 2.66582 2.66582 3.163 2.35423 3.77453Z" fill="#353566"/>
<path d="M7.17767 1.5H10.8223C11.7135 1.5 12.413 1.49999 12.9753 1.54594C13.5482 1.59274 14.0226 1.68971 14.4525 1.90873C15.1581 2.26825 15.7317 2.84193 16.0913 3.54754C16.3103 3.97738 16.4073 4.45183 16.4541 5.02469C16.5 5.58702 16.5 6.28646 16.5 7.17762V13.7994L16.1713 15.0064C16.1399 15.1214 16.0156 15.1836 15.9047 15.1398L15.5 14.9796V7.2C15.5 6.28166 15.4996 5.62298 15.4574 5.10612C15.4156 4.5951 15.3355 4.2669 15.2003 4.00153C14.9366 3.48408 14.5159 3.06338 13.9985 2.79973C13.7331 2.66452 13.4049 2.58437 12.8939 2.54262C12.377 2.50039 11.7183 2.5 10.8 2.5H7.2C6.28166 2.5 5.62298 2.50039 5.10612 2.54262C4.5951 2.58437 4.2669 2.66452 4.00153 2.79973C3.48408 3.06338 3.06338 3.48408 2.79973 4.00153C2.66452 4.2669 2.58437 4.5951 2.54262 5.10612C2.50039 5.62298 2.5 6.28166 2.5 7.2V16.8C2.5 17.7183 2.50039 18.377 2.54262 18.8939C2.58437 19.4049 2.66452 19.7331 2.79973 19.9985C3.06338 20.5159 3.48408 20.9366 4.00153 21.2003C4.2669 21.3355 4.5951 21.4156 5.10612 21.4574C5.62298 21.4996 6.28166 21.5 7.2 21.5H10.8C11.7183 21.5 12.377 21.4996 12.8939 21.4574C13.0988 21.4406 13.2743 21.4177 13.4281 21.3876C13.4725 21.4058 13.5175 21.4218 13.5631 21.4356L14.228 21.6367C14.2919 21.656 14.342 21.7059 14.3614 21.7698L14.4584 22.0882L14.4525 22.0913C14.0226 22.3103 13.5482 22.4073 12.9753 22.4541C12.413 22.5 11.7135 22.5 10.8223 22.5H7.17765C6.28648 22.5 5.58703 22.5 5.02469 22.4541C4.45183 22.4073 3.97738 22.3103 3.54754 22.0913C2.84193 21.7317 2.26825 21.1581 1.90873 20.4525C1.68971 20.0226 1.59274 19.5482 1.54594 18.9753C1.49999 18.413 1.5 17.7135 1.5 16.8223V7.17767C1.5 6.2865 1.49999 5.58703 1.54594 5.02469C1.59274 4.45183 1.68971 3.97738 1.90873 3.54754C2.26825 2.84193 2.84193 2.26825 3.54754 1.90873C3.97738 1.68971 4.45183 1.59274 5.02469 1.54594C5.58703 1.49999 6.2865 1.5 7.17767 1.5Z" fill="#353566"/>
<path d="M9 17.75C8.58579 17.75 8.25 18.0858 8.25 18.5C8.25 18.9142 8.58579 19.25 9 19.25C9.41421 19.25 9.7501 18.9142 9.7501 18.5C9.7501 18.0858 9.41421 17.75 9 17.75Z" fill="#353566"/>
<path d="M7 5C7 4.72386 7.22386 4.5 7.5 4.5H10.5C10.7761 4.5 11 4.72386 11 5C11 5.27614 10.7761 5.5 10.5 5.5H7.5C7.22386 5.5 7 5.27614 7 5Z" fill="#353566"/>
<path d="M14.35 16.3571C14.5472 16.1638 14.5504 15.8473 14.3571 15.65C14.1638 15.4528 13.8473 15.4496 13.65 15.6429L11.65 17.6029C11.5553 17.6957 11.5014 17.8224 11.5 17.955C11.4987 18.0876 11.5501 18.2153 11.643 18.31L13.6429 20.35C13.8362 20.5472 14.1528 20.5504 14.35 20.357C14.5472 20.1637 14.5503 19.8472 14.357 19.65L12.7071 17.9671L14.35 16.3571Z" fill="#353566"/>
<path d="M19.6427 15.6502C19.8359 15.4529 20.1525 15.4495 20.3498 15.6427L22.3498 17.6007C22.4446 17.6935 22.4986 17.8201 22.5 17.9527C22.5014 18.0854 22.45 18.2131 22.3572 18.3079L20.3572 20.3499C20.164 20.5471 19.8474 20.5504 19.6501 20.3572C19.4529 20.164 19.4496 19.8474 19.6428 19.6501L21.2929 17.9654L19.6502 16.3573C19.4529 16.1641 19.4495 15.8475 19.6427 15.6502Z" fill="#353566"/>
<path d="M18.4851 14.1214C18.552 13.8535 18.3892 13.582 18.1213 13.515C17.8534 13.4481 17.5819 13.611 17.5149 13.8789L15.5149 21.8789C15.448 22.1467 15.6108 22.4182 15.8787 22.4852C16.1466 22.5522 16.4181 22.3893 16.4851 22.1214L18.4851 14.1214Z" fill="#353566"/>
</svg>
