<svg width="24" height="24" viewBox="0 0 24 24" fill="none" xmlns="http://www.w3.org/2000/svg">
<path opacity="0.4" d="M15.5 7.5H2.5V12C2.5 15.5899 5.41015 18.5 9 18.5C9.94357 18.5 10.8402 18.2989 11.6493 17.9373C11.5524 17.6424 11.5 17.3273 11.5 17C11.5 15.3431 12.8431 14 14.5 14C14.7294 14 14.9499 14.0192 15.1668 14.0599C15.3829 13.4126 15.5 12.72 15.5 12V7.5Z" fill="#353566"/>
<path d="M5.75 1.5C6.02614 1.5 6.25 1.72386 6.25 2V5.5H5.25V2C5.25 1.72386 5.47386 1.5 5.75 1.5Z" fill="#353566"/>
<path d="M2 12V8H1C0.723858 8 0.5 7.77614 0.5 7.5C0.5 7.22386 0.723858 7 1 7L17 7C17.2761 7 17.5 7.22386 17.5 7.5C17.5 7.77614 17.2761 8 17 8H16V12C16 12.7643 15.8775 13.5 15.6511 14.1885C15.3252 14.076 15.0002 14.0168 14.6575 14.0031C14.8793 13.3767 15 12.7024 15 12V8H3V12C3 15.3137 5.68629 18 9 18C9.90482 18 10.7629 17.7997 11.5322 17.4411C11.5824 17.782 11.69 18.1043 11.8448 18.3978C11.1199 18.7206 10.3299 18.9238 9.5 18.9824V22C9.5 22.2761 9.27614 22.5 9 22.5C8.72386 22.5 8.5 22.2761 8.5 22V18.9824C4.86736 18.726 2 15.6979 2 12Z" fill="#353566"/>
<path d="M12.75 2C12.75 1.72386 12.5261 1.5 12.25 1.5C11.9739 1.5 11.75 1.72386 11.75 2V5.5H12.75V2Z" fill="#353566"/>
<path fill-rule="evenodd" clip-rule="evenodd" d="M14.5 15C13.3954 15 12.5 15.8954 12.5 17C12.5 18.1046 13.3954 19 14.5 19C15.0173 19 15.4887 18.8036 15.8438 18.4813L19.509 20.3139C19.5034 20.3752 19.5005 20.4372 19.5005 20.5C19.5005 21.6046 20.3959 22.5 21.5005 22.5C22.6051 22.5 23.5005 21.6046 23.5005 20.5C23.5005 19.3954 22.6051 18.5 21.5005 18.5C20.8164 18.5 20.2126 18.8434 19.8519 19.3673L16.3957 17.6392C16.4633 17.4385 16.5 17.2235 16.5 17C16.5 16.7765 16.4633 16.5615 16.3957 16.3608L19.8519 14.6327C20.2126 15.1566 20.8164 15.5 21.5005 15.5C22.6051 15.5 23.5005 14.6046 23.5005 13.5C23.5005 12.3954 22.6051 11.5 21.5005 11.5C20.3959 11.5 19.5005 12.3954 19.5005 13.5C19.5005 13.5628 19.5034 13.6248 19.509 13.6861L15.8438 15.5187C15.4888 15.1964 15.0173 15 14.5 15ZM13.5 17C13.5 16.4477 13.9477 16 14.5 16C15.0523 16 15.5 16.4477 15.5 17C15.5 17.5523 15.0523 18 14.5 18C13.9477 18 13.5 17.5523 13.5 17ZM21.5005 12.5C20.9482 12.5 20.5005 12.9477 20.5005 13.5C20.5005 14.0523 20.9482 14.5 21.5005 14.5C22.0528 14.5 22.5005 14.0523 22.5005 13.5C22.5005 12.9477 22.0528 12.5 21.5005 12.5ZM20.5005 20.5C20.5005 19.9477 20.9482 19.5 21.5005 19.5C22.0528 19.5 22.5005 19.9477 22.5005 20.5C22.5005 21.0523 22.0528 21.5 21.5005 21.5C20.9482 21.5 20.5005 21.0523 20.5005 20.5Z" fill="#353566"/>
</svg>
