<svg width="24" height="24" viewBox="0 0 24 24" fill="none" xmlns="http://www.w3.org/2000/svg">
<path opacity="0.4" d="M15.5 7.5H2.5V12C2.5 15.5899 5.41015 18.5 9 18.5C10.1201 18.5 11.1741 18.2167 12.0941 17.7177C11.6194 17.1341 11.3361 16.4653 11.6065 15.628C12.0485 14.2595 13.4301 14.1178 14.6778 13.9898C14.8585 13.9713 15.0364 13.9531 15.2082 13.9314C15.3979 13.3213 15.5 12.6726 15.5 12V7.5Z" fill="#353566"/>
<path d="M5.75 1.5C6.02614 1.5 6.25 1.72386 6.25 2V5.5H5.25V2C5.25 1.72386 5.47386 1.5 5.75 1.5Z" fill="#353566"/>
<path d="M2 12V8H1C0.723858 8 0.5 7.77614 0.5 7.5C0.5 7.22386 0.723858 7 1 7L17 7C17.2761 7 17.5 7.22386 17.5 7.5C17.5 7.77614 17.2761 8 17 8H16V12C16 12.1304 15.9964 12.2601 15.9894 12.3887C15.8076 12.7114 15.6518 13.0594 15.5006 13.3968C15.4195 13.5778 15.3399 13.7557 15.2583 13.925C15.0711 13.9495 14.8762 13.9695 14.6779 13.9898L14.6616 13.9915C14.8808 13.3683 15 12.6981 15 12V8H3V12C3 15.3137 5.68629 18 9 18C10.013 18 10.9675 17.7489 11.8044 17.3056C11.9711 17.5887 12.1936 17.8504 12.4385 18.0987C11.5596 18.5953 10.5625 18.9074 9.5 18.9824V22C9.5 22.2761 9.27614 22.5 9 22.5C8.72386 22.5 8.5 22.2761 8.5 22V18.9824C4.86736 18.726 2 15.6979 2 12Z" fill="#353566"/>
<path d="M12.75 2C12.75 1.72386 12.5261 1.5 12.25 1.5C11.9739 1.5 11.75 1.72386 11.75 2V5.5H12.75V2Z" fill="#353566"/>
<path fill-rule="evenodd" clip-rule="evenodd" d="M19.0133 12.6365C18.6043 11.7878 17.3957 11.7878 16.9866 12.6365L15.9213 14.8464L13.4801 15.165C12.5385 15.2879 12.1633 16.45 12.8553 17.1003L14.6335 18.7713L14.1858 21.1646C14.0121 22.0935 14.9916 22.8097 15.824 22.3625L18 21.1934L20.1759 22.3625C21.0083 22.8097 21.9878 22.0935 21.8141 21.1646L21.3664 18.7713L23.1446 17.1003C23.8366 16.45 23.4614 15.2879 22.5198 15.165L20.0786 14.8464L19.0133 12.6365ZM17.8874 13.0707C17.9328 12.9764 18.0671 12.9764 18.1125 13.0707L19.1778 15.2807C19.3244 15.5848 19.6145 15.7944 19.9492 15.838L22.3905 16.1566C22.495 16.1702 22.5367 16.2993 22.4599 16.3716L20.6816 18.0426C20.4331 18.2761 20.3208 18.62 20.3834 18.9552L20.8311 21.3485C20.8504 21.4517 20.7416 21.5312 20.6492 21.4815L18.4732 20.3125C18.1777 20.1537 17.8222 20.1537 17.5267 20.3125L15.3508 21.4815C15.2583 21.5312 15.1495 21.4517 15.1688 21.3485L15.6165 18.9552C15.6792 18.62 15.5668 18.2761 15.3183 18.0426L13.5401 16.3716C13.4632 16.2993 13.5049 16.1702 13.6095 16.1566L16.0507 15.838C16.3854 15.7944 16.6755 15.5848 16.8221 15.2807L17.8874 13.0707Z" fill="#353566"/>
</svg>
