<svg width="24" height="24" viewBox="0 0 24 24" fill="none" xmlns="http://www.w3.org/2000/svg">
<path opacity="0.4" d="M15.5 7.5H2.5V12C2.5 15.5899 5.41015 18.5 9 18.5C12.5899 18.5 15.5 15.5899 15.5 12V7.5Z" fill="#353566"/>
<path d="M6.25 2C6.25 1.72386 6.02614 1.5 5.75 1.5C5.47386 1.5 5.25 1.72386 5.25 2V5.5H6.25V2Z" fill="#353566"/>
<path fill-rule="evenodd" clip-rule="evenodd" d="M2 8V12C2 15.6979 4.86736 18.726 8.5 18.9824V22C8.5 22.2761 8.72386 22.5 9 22.5C9.27614 22.5 9.5 22.2761 9.5 22V18.9824C10.5282 18.9099 11.4951 18.6152 12.353 18.1462C12.4266 17.9279 12.5497 17.7288 12.7136 17.565L15.3688 14.9091C15.7741 14.0231 16 13.0379 16 12V8H17C17.2761 8 17.5 7.77614 17.5 7.5C17.5 7.22386 17.2761 7 17 7L1 7C0.723858 7 0.5 7.22386 0.5 7.5C0.5 7.77614 0.723858 8 1 8H2ZM3 8H15V12C15 15.3137 12.3137 18 9 18C5.68629 18 3 15.3137 3 12V8Z" fill="#353566"/>
<path d="M12.25 1.5C12.5261 1.5 12.75 1.72386 12.75 2V5.5H11.75V2C11.75 1.72386 11.9739 1.5 12.25 1.5Z" fill="#353566"/>
<path fill-rule="evenodd" clip-rule="evenodd" d="M19.8776 11.8591C20.5638 11.3818 21.4745 11.3816 22.1609 11.8586C22.3081 11.9609 22.4496 12.1025 22.6405 12.2934L22.7066 12.3594C22.8976 12.5502 23.0393 12.6917 23.1417 12.8389C23.6192 13.5252 23.6194 14.4362 23.1422 15.1227C23.0398 15.2699 22.8982 15.4115 22.7072 15.6023L16.7308 21.5799C16.6643 21.6464 16.5804 21.6928 16.4888 21.7138L13.1116 22.4872C12.9438 22.5256 12.7681 22.475 12.6464 22.3533C12.5247 22.2315 12.4742 22.0557 12.5127 21.888L13.287 18.5146C13.308 18.4231 13.3543 18.3393 13.4207 18.2729L19.3981 12.294C19.5889 12.1031 19.7304 11.9615 19.8776 11.8591ZM21.5902 12.6798C21.247 12.4413 20.7917 12.4414 20.4486 12.68C20.3846 12.7245 20.3107 12.7956 20.0723 13.0341L19.4171 13.6895L21.3115 15.5839L21.967 14.9283C22.2054 14.6898 22.2766 14.6159 22.3211 14.5519C22.5597 14.2086 22.5596 13.7532 22.3208 13.41C22.2763 13.346 22.2052 13.2721 21.9666 13.0337C21.7282 12.7954 21.6542 12.7242 21.5902 12.6798ZM20.6045 16.2911L18.7101 14.3967L14.2295 18.8784L13.6658 21.3344L16.1253 20.7711L20.6045 16.2911Z" fill="#353566"/>
</svg>
