<svg width="24" height="24" viewBox="0 0 24 24" fill="none" xmlns="http://www.w3.org/2000/svg">
<g clip-path="url(#clip0_9001_286207)">
<path opacity="0.4" d="M12.4651 9H5.8C4.11984 9 3.27976 9 2.63803 9.32698C2.07354 9.6146 1.6146 10.0735 1.32698 10.638C1 11.2798 1 12.1198 1 13.8V16.6C1 17.4401 1 17.8601 1.16349 18.181C1.3073 18.4632 1.53677 18.6927 1.81901 18.8365C2.13988 19 2.55992 19 3.4 19H5V15H17V19H18.6C19.4401 19 19.8601 19 20.181 18.8365C20.4632 18.6927 20.6927 18.4632 20.8365 18.181C21 17.8601 21 17.4401 21 16.6V13.8C21 12.6811 21 11.9348 20.9034 11.3715C20.3824 12.0033 19.7873 12.5 18.8718 12.5H17.6282C16.5564 12.5 15.9237 11.8193 15.335 11.0379C14.3623 10.919 13.4548 10.7116 12.92 9.78662L12.4651 9Z" fill="#353566"/>
<path d="M15.1106 0.991453C14.7492 0.676879 14.2836 0.5 13.7974 0.5H6.5C5.39543 0.5 4.5 1.39543 4.5 2.5V6C4.5 6.27614 4.72386 6.5 5 6.5C5.27614 6.5 5.5 6.27614 5.5 6V2.5C5.5 1.94772 5.94772 1.5 6.5 1.5H13.5737C14.014 1.19865 14.547 1.07147 15.1106 0.991453Z" fill="#353566"/>
<path fill-rule="evenodd" clip-rule="evenodd" d="M12.1894 8.5H5.7778C4.95655 8.5 4.30953 8.49999 3.78889 8.54253C3.25771 8.58593 2.81414 8.67609 2.41103 8.88148C1.75247 9.21703 1.21704 9.75247 0.881479 10.411C0.676088 10.8141 0.585933 11.2577 0.542535 11.7889C0.499996 12.3095 0.499998 12.9565 0.5 13.7777V16.6206C0.499995 17.0231 0.49999 17.3553 0.522098 17.6259C0.545061 17.907 0.594343 18.1653 0.717988 18.408C0.909735 18.7843 1.2157 19.0903 1.59202 19.282C1.83469 19.4057 2.09304 19.4549 2.37409 19.4779C2.64468 19.5 2.97686 19.5 3.37934 19.5H4.5V21.5C4.5 22.6046 5.39543 23.5 6.5 23.5H15.5C16.6046 23.5 17.5 22.6046 17.5 21.5V19.5H18.6207C19.0231 19.5 19.3553 19.5 19.6259 19.4779C19.907 19.4549 20.1653 19.4057 20.408 19.282C20.7843 19.0903 21.0903 18.7843 21.282 18.408C21.4057 18.1653 21.4549 17.907 21.4779 17.6259C21.5 17.3553 21.5 17.0232 21.5 16.6207V13.7778C21.5 12.9565 21.5 12.3095 21.4575 11.7889C21.4346 11.509 21.3987 11.2534 21.3399 11.0153C21.2819 11.0232 21.2236 11.0307 21.165 11.0379C20.943 11.3326 20.7147 11.613 20.4589 11.8479L20.4608 11.8703C20.4996 12.3455 20.5 12.9517 20.5 13.8V16.6C20.5 17.0283 20.4996 17.3194 20.4812 17.5445C20.4633 17.7637 20.4309 17.8758 20.391 17.954C20.2951 18.1422 20.1422 18.2951 19.954 18.391C19.8758 18.4309 19.7637 18.4633 19.5445 18.4812C19.3194 18.4996 19.0283 18.5 18.6 18.5H17.5V15C17.5 14.7239 17.2761 14.5 17 14.5H5C4.72386 14.5 4.5 14.7239 4.5 15V18.5H3.4C2.97171 18.5 2.68056 18.4996 2.45552 18.4812C2.23631 18.4633 2.12421 18.4309 2.04601 18.391C1.85785 18.2951 1.70487 18.1422 1.60899 17.954C1.56915 17.8758 1.53669 17.7637 1.51878 17.5445C1.50039 17.3194 1.5 17.0283 1.5 16.6V13.8C1.5 12.9517 1.50039 12.3455 1.53921 11.8703C1.57756 11.401 1.6509 11.1037 1.77249 10.865C2.01217 10.3946 2.39462 10.0122 2.86503 9.77248C3.10366 9.65089 3.40099 9.57756 3.87032 9.53921C4.3455 9.50039 4.95167 9.5 5.8 9.5H12.7542L12.2982 8.71132C12.2573 8.64067 12.2212 8.57023 12.1894 8.5ZM5.5 21.5V15.5H16.5V21.5C16.5 22.0523 16.0523 22.5 15.5 22.5H6.5C5.94772 22.5 5.5 22.0523 5.5 21.5Z" fill="#353566"/>
<path fill-rule="evenodd" clip-rule="evenodd" d="M18.25 4.25C17.2835 4.25 16.5 5.0335 16.5 6C16.5 6.9665 17.2835 7.75 18.25 7.75C19.2165 7.75 20 6.9665 20 6C20 5.0335 19.2165 4.25 18.25 4.25ZM17.5 6C17.5 5.58579 17.8358 5.25 18.25 5.25C18.6642 5.25 19 5.58579 19 6C19 6.41421 18.6642 6.75 18.25 6.75C17.8358 6.75 17.5 6.41421 17.5 6Z" fill="#353566"/>
<path fill-rule="evenodd" clip-rule="evenodd" d="M13.1845 8.21199C12.8047 7.55286 13.0297 6.70961 13.6886 6.32852C13.9408 6.18265 13.9408 5.81722 13.6886 5.67136C13.0297 5.29027 12.8047 4.44702 13.1845 3.78789L13.8042 2.71259C14.1844 2.05293 15.0272 1.82626 15.6866 2.20765C15.937 2.35248 16.2527 2.17233 16.2527 1.87913C16.2527 1.1183 16.8686 0.5 17.6302 0.5H18.8697C19.6314 0.5 20.2473 1.11831 20.2473 1.87915C20.2473 2.17238 20.563 2.35252 20.8134 2.20769C21.4728 1.82631 22.3156 2.05299 22.6958 2.71264L23.3155 3.78798C23.6954 4.44709 23.4703 5.29031 22.8114 5.6714C22.5592 5.81724 22.5592 6.18263 22.8114 6.32848C23.4703 6.70957 23.6954 7.55278 23.3155 8.2119L22.6958 9.28724C22.3156 9.94688 21.4728 10.1736 20.8134 9.79219C20.563 9.64738 20.2473 9.82749 20.2473 10.1208C20.2473 10.8816 19.6314 11.5 18.8697 11.5H17.6303C16.8686 11.5 16.2527 10.8817 16.2527 10.1208C16.2527 9.82755 15.937 9.64742 15.6866 9.79224C15.0272 10.1736 14.1844 9.94694 13.8042 9.28729L13.1845 8.21199ZM14.1893 7.19415C14.0087 7.29862 13.9461 7.53078 14.0509 7.71266L14.6707 8.78796C14.7752 8.96931 15.0059 9.03076 15.1859 8.9266C16.1057 8.39464 17.2527 9.06052 17.2527 10.1208C17.2527 10.3311 17.4226 10.5 17.6303 10.5H18.8697C19.0774 10.5 19.2473 10.3311 19.2473 10.1208C19.2473 9.06051 20.3943 8.39457 21.3141 8.92655C21.4941 9.0307 21.7248 8.96925 21.8293 8.78791L22.4491 7.71257C22.5539 7.53071 22.4913 7.29857 22.3107 7.19412C21.3928 6.6632 21.3928 5.33668 22.3107 4.80576C22.4913 4.7013 22.5539 4.46917 22.4491 4.28731L21.8293 3.21197C21.7248 3.03063 21.4941 2.96917 21.3141 3.07333C20.3943 3.60528 19.2473 2.93946 19.2473 1.87915C19.2473 1.66891 19.0774 1.5 18.8697 1.5L17.6302 1.5C17.4226 1.5 17.2527 1.6689 17.2527 1.87913C17.2527 2.93945 16.1056 3.60521 15.186 3.07329C15.0059 2.96912 14.7752 3.03058 14.6707 3.21192L14.0509 4.28722C13.9461 4.4691 14.0087 4.70126 14.1893 4.80572C15.1073 5.33666 15.1073 6.66322 14.1893 7.19415Z" fill="#353566"/>
</g>
<defs>
<clipPath id="clip0_9001_286207">
<rect width="24" height="24" fill="white"/>
</clipPath>
</defs>
</svg>
