<svg width="24" height="24" viewBox="0 0 24 24" fill="none" xmlns="http://www.w3.org/2000/svg">
<g clip-path="url(#clip0_9001_286227)">
<path opacity="0.4" d="M11.9198 9H5.8C4.11984 9 3.27976 9 2.63803 9.32698C2.07354 9.6146 1.6146 10.0735 1.32698 10.638C1 11.2798 1 12.1198 1 13.8V16.6C1 17.4401 1 17.8601 1.16349 18.181C1.3073 18.4632 1.53677 18.6927 1.81901 18.8365C2.13988 19 2.55992 19 3.4 19H5V15H17V19H18.6C19.4401 19 19.8601 19 20.181 18.8365C20.4632 18.6927 20.6927 18.4632 20.8365 18.181C21 17.8601 21 17.4401 21 16.6V13.8C21 12.1198 21 11.2798 20.673 10.638C20.3893 10.0812 19.9388 9.62703 19.3848 9.33874L17.438 11.286C17.2386 11.4854 16.987 11.6246 16.7121 11.6876L13.3349 12.461C12.8315 12.5763 12.3042 12.4245 11.9391 12.0592C11.574 11.694 11.4225 11.1666 11.538 10.6633L11.9198 9Z" fill="#353566"/>
<path d="M16.5721 2.70546L15.3339 1.21963C14.9539 0.763646 14.391 0.5 13.7974 0.5H6.5C5.39543 0.5 4.5 1.39543 4.5 2.5V6C4.5 6.27614 4.72386 6.5 5 6.5C5.27614 6.5 5.5 6.27614 5.5 6V2.5C5.5 1.94772 5.94772 1.5 6.5 1.5H13.7974C14.0942 1.5 14.3757 1.63182 14.5657 1.85982L15.8621 3.41558L16.5721 2.70546Z" fill="#353566"/>
<path fill-rule="evenodd" clip-rule="evenodd" d="M12.0346 8.5H5.7778C4.95655 8.5 4.30953 8.49999 3.78889 8.54253C3.25771 8.58593 2.81414 8.67609 2.41103 8.88148C1.75247 9.21703 1.21704 9.75247 0.881479 10.411C0.676088 10.8141 0.585933 11.2577 0.542535 11.7889C0.499996 12.3095 0.499998 12.9565 0.5 13.7777V16.6206C0.499995 17.0231 0.49999 17.3553 0.522098 17.6259C0.545061 17.907 0.594343 18.1653 0.717988 18.408C0.909735 18.7843 1.2157 19.0903 1.59202 19.282C1.83469 19.4057 2.09304 19.4549 2.37409 19.4779C2.64468 19.5 2.97686 19.5 3.37934 19.5H4.5V21.5C4.5 22.6046 5.39543 23.5 6.5 23.5H15.5C16.6046 23.5 17.5 22.6046 17.5 21.5V19.5H18.6207C19.0231 19.5 19.3553 19.5 19.6259 19.4779C19.907 19.4549 20.1653 19.4057 20.408 19.282C20.7843 19.0903 21.0903 18.7843 21.282 18.408C21.4057 18.1653 21.4549 17.907 21.4779 17.6259C21.5 17.3553 21.5 17.0232 21.5 16.6207V13.7778C21.5 12.9565 21.5 12.3095 21.4575 11.7889C21.4141 11.2577 21.3239 10.8141 21.1185 10.411C20.8113 9.808 20.3364 9.30822 19.7529 8.97059L19.0086 9.715C19.0528 9.73283 19.0947 9.75197 19.135 9.77248C19.6054 10.0122 19.9878 10.3946 20.2275 10.865C20.3491 11.1037 20.4224 11.401 20.4608 11.8703C20.4996 12.3455 20.5 12.9517 20.5 13.8V16.6C20.5 17.0283 20.4996 17.3194 20.4812 17.5445C20.4633 17.7637 20.4309 17.8758 20.391 17.954C20.2951 18.1422 20.1422 18.2951 19.954 18.391C19.8758 18.4309 19.7637 18.4633 19.5445 18.4812C19.3194 18.4996 19.0283 18.5 18.6 18.5H17.5V15C17.5 14.7239 17.2761 14.5 17 14.5H5C4.72386 14.5 4.5 14.7239 4.5 15V18.5H3.4C2.97171 18.5 2.68056 18.4996 2.45552 18.4812C2.23631 18.4633 2.12421 18.4309 2.04601 18.391C1.85785 18.2951 1.70487 18.1422 1.60899 17.954C1.56915 17.8758 1.53669 17.7637 1.51878 17.5445C1.50039 17.3194 1.5 17.0283 1.5 16.6V13.8C1.5 12.9517 1.50039 12.3455 1.53921 11.8703C1.57756 11.401 1.6509 11.1037 1.77249 10.865C2.01217 10.3946 2.39462 10.0122 2.86503 9.77248C3.10366 9.65089 3.40099 9.57756 3.87032 9.53921C4.3455 9.50039 4.95167 9.5 5.8 9.5H11.8051L12.0346 8.5ZM5.5 21.5V15.5H16.5V21.5C16.5 22.0523 16.0523 22.5 15.5 22.5H6.5C5.94772 22.5 5.5 22.0523 5.5 21.5Z" fill="#353566"/>
<path fill-rule="evenodd" clip-rule="evenodd" d="M19.8776 0.859271C20.5638 0.381962 21.4745 0.381774 22.1609 0.8588C22.3082 0.961125 22.4496 1.10265 22.6405 1.29354L22.7066 1.35958C22.8976 1.55038 23.0393 1.69186 23.1417 1.83907C23.6192 2.52541 23.6194 3.43635 23.1422 4.12287C23.0398 4.27013 22.8982 4.41164 22.7072 4.60253L16.7308 10.5801C16.6643 10.6466 16.5804 10.693 16.4888 10.7139L13.1116 11.4874C12.9438 11.5258 12.7681 11.4752 12.6464 11.3535C12.5247 11.2317 12.4742 11.0559 12.5127 10.8881L13.287 7.51478C13.308 7.42327 13.3543 7.33953 13.4207 7.27313L19.3981 1.29421C19.5889 1.10325 19.7304 0.961651 19.8776 0.859271ZM21.5902 1.67998C21.247 1.44147 20.7917 1.44156 20.4486 1.68022C20.3846 1.72469 20.3107 1.79583 20.0723 2.03426L19.4169 2.68981L21.3114 4.58425L21.967 3.92852C22.2054 3.69002 22.2766 3.61605 22.3211 3.55208C22.5597 3.20882 22.5596 2.75335 22.3208 2.41018C22.2763 2.34622 22.2052 2.27228 21.9666 2.03387C21.7282 1.79554 21.6542 1.72443 21.5902 1.67998ZM20.6043 5.29143L18.7099 3.397L14.2295 7.87854L13.6658 10.3346L16.1253 9.7713L20.6043 5.29143Z" fill="#353566"/>
</g>
<defs>
<clipPath id="clip0_9001_286227">
<rect width="24" height="24" fill="white"/>
</clipPath>
</defs>
</svg>
