<svg width="24" height="24" viewBox="0 0 24 24" fill="none" xmlns="http://www.w3.org/2000/svg">
<path opacity="0.4" d="M17.2 9H6.8C5.11984 9 4.27976 9 3.63803 9.32698C3.07354 9.6146 2.6146 10.0735 2.32698 10.638C2 11.2798 2 12.1198 2 13.8V14.6C2 15.4401 2 15.8601 2.16349 16.181C2.3073 16.4632 2.53677 16.6927 2.81901 16.8365C3.13988 17 3.55992 17 4.4 17H19.6C20.4401 17 20.8601 17 21.181 16.8365C21.4632 16.6927 21.6927 16.4632 21.8365 16.181C22 15.8601 22 15.4401 22 14.6V13.8C22 12.1198 22 11.2798 21.673 10.638C21.3854 10.0735 20.9265 9.6146 20.362 9.32698C19.7202 9 18.8802 9 17.2 9Z" fill="#353566"/>
<path d="M7.5 1.5C6.94772 1.5 6.5 1.94772 6.5 2.5V6C6.5 6.27614 6.27614 6.5 6 6.5C5.72386 6.5 5.5 6.27614 5.5 6V2.5C5.5 1.39543 6.39543 0.5 7.5 0.5H14.7974C15.391 0.5 15.9539 0.763646 16.3339 1.21963L18.0364 3.26271C18.336 3.62214 18.5 4.0752 18.5 4.54307V6C18.5 6.27614 18.2761 6.5 18 6.5C17.7239 6.5 17.5 6.27614 17.5 6V4.54307C17.5 4.30914 17.418 4.08261 17.2682 3.90289L15.5657 1.85982C15.3757 1.63182 15.0942 1.5 14.7974 1.5H7.5Z" fill="#353566"/>
<path d="M18 12.25C17.5858 12.25 17.25 12.5858 17.25 13C17.25 13.4142 17.5858 13.75 18 13.75C18.4142 13.75 18.7501 13.4142 18.7501 13C18.7501 12.5858 18.4142 12.25 18 12.25Z" fill="#353566"/>
<path fill-rule="evenodd" clip-rule="evenodd" d="M6.77779 8.5H17.2222C18.0434 8.5 18.6905 8.49999 19.2111 8.54253C19.7423 8.58593 20.1859 8.67609 20.589 8.88148C21.2475 9.21703 21.783 9.75247 22.1185 10.411C22.3239 10.8141 22.4141 11.2577 22.4575 11.7889C22.5 12.3095 22.5 12.9565 22.5 13.7778V14.6207C22.5 15.0231 22.5 15.3553 22.4779 15.6259C22.4549 15.907 22.4057 16.1653 22.282 16.408C22.0903 16.7843 21.7843 17.0903 21.408 17.282C21.1653 17.4057 20.907 17.4549 20.6259 17.4779C20.3553 17.5 20.0231 17.5 19.6207 17.5H4.37934C3.97686 17.5 3.64468 17.5 3.37409 17.4779C3.09304 17.4549 2.83469 17.4057 2.59202 17.282C2.2157 17.0903 1.90973 16.7843 1.71799 16.408C1.59434 16.1653 1.54506 15.907 1.5221 15.6259C1.49999 15.3553 1.49999 15.0231 1.5 14.6207V13.7778C1.5 12.9565 1.49999 12.3095 1.54253 11.7889C1.58593 11.2577 1.67609 10.8141 1.88148 10.411C2.21703 9.75247 2.75247 9.21703 3.41103 8.88148C3.81414 8.67609 4.25771 8.58593 4.78889 8.54253C5.30953 8.49999 5.95656 8.5 6.77779 8.5ZM4.87032 9.53921C4.40099 9.57756 4.10366 9.65089 3.86502 9.77248C3.39462 10.0122 3.01217 10.3946 2.77248 10.865C2.65089 11.1037 2.57756 11.401 2.53921 11.8703C2.50039 12.3455 2.5 12.9517 2.5 13.8V14.6C2.5 15.0283 2.50039 15.3194 2.51878 15.5445C2.53669 15.7637 2.56915 15.8758 2.60899 15.954C2.70487 16.1422 2.85785 16.2951 3.04601 16.391C3.12421 16.4309 3.23631 16.4633 3.45552 16.4812C3.68056 16.4996 3.97171 16.5 4.4 16.5H19.6C20.0283 16.5 20.3194 16.4996 20.5445 16.4812C20.7637 16.4633 20.8758 16.4309 20.954 16.391C21.1422 16.2951 21.2951 16.1422 21.391 15.954C21.4309 15.8758 21.4633 15.7637 21.4812 15.5445C21.4996 15.3194 21.5 15.0283 21.5 14.6V13.8C21.5 12.9517 21.4996 12.3455 21.4608 11.8703C21.4224 11.401 21.3491 11.1037 21.2275 10.865C20.9878 10.3946 20.6054 10.0122 20.135 9.77248C19.8963 9.65089 19.599 9.57756 19.1297 9.53921C18.6545 9.50039 18.0483 9.5 17.2 9.5H6.8C5.95167 9.5 5.3455 9.50039 4.87032 9.53921Z" fill="#353566"/>
<path d="M10 19.5C10.2761 19.5 10.5 19.7239 10.5 20V23C10.5 23.2761 10.2761 23.5 10 23.5C9.72386 23.5 9.5 23.2761 9.5 23V20C9.5 19.7239 9.72386 19.5 10 19.5Z" fill="#353566"/>
<path d="M6.5 20C6.5 19.7239 6.27614 19.5 6 19.5C5.72386 19.5 5.5 19.7239 5.5 20V23C5.5 23.2761 5.72386 23.5 6 23.5C6.27614 23.5 6.5 23.2761 6.5 23V20Z" fill="#353566"/>
<path d="M14 19.5C14.2761 19.5 14.5 19.7239 14.5 20V23C14.5 23.2761 14.2761 23.5 14 23.5C13.7239 23.5 13.5 23.2761 13.5 23V20C13.5 19.7239 13.7239 19.5 14 19.5Z" fill="#353566"/>
<path d="M18.5 20C18.5 19.7239 18.2761 19.5 18 19.5C17.7239 19.5 17.5 19.7239 17.5 20V23C17.5 23.2761 17.7239 23.5 18 23.5C18.2761 23.5 18.5 23.2761 18.5 23V20Z" fill="#353566"/>
</svg>
