<svg width="24" height="24" viewBox="0 0 24 24" fill="none" xmlns="http://www.w3.org/2000/svg">
<g opacity="0.4">
<path d="M3.26685 3.26685C3.22294 3.28555 3.18006 3.30557 3.13803 3.32698C2.57354 3.6146 2.1146 4.07354 1.82698 4.63803C1.5 5.27976 1.5 6.11984 1.5 7.8V13.2C1.5 14.8802 1.5 15.7202 1.82698 16.362C2.1146 16.9265 2.57354 17.3854 3.13803 17.673C3.77976 18 4.61984 18 6.3 18H17.7C17.8031 18 17.903 18 17.9999 17.9999L3.26685 3.26685Z" fill="#353566"/>
<path d="M20.3565 17.8565C20.5424 17.8112 20.7079 17.7515 20.862 17.673C21.4265 17.3854 21.8854 16.9265 22.173 16.362C22.5 15.7202 22.5 14.8802 22.5 13.2V7.8C22.5 6.11984 22.5 5.27976 22.173 4.63803C21.8854 4.07354 21.4265 3.6146 20.862 3.32698C20.2202 3 19.3802 3 17.7 3H6.3C6.00996 3 5.74496 3 5.50168 3.00168L20.3565 17.8565Z" fill="#353566"/>
</g>
<path fill-rule="evenodd" clip-rule="evenodd" d="M1.85355 1.14645C1.65829 0.951184 1.34171 0.951184 1.14645 1.14645C0.951185 1.34171 0.951185 1.65829 1.14645 1.85355L2.45353 3.16064C2.00387 3.48473 1.63543 3.91262 1.38148 4.41103C1.17609 4.81413 1.08593 5.25771 1.04253 5.78889C0.999994 6.30954 0.999997 6.95652 1 7.77779V13.2222C0.999997 14.0435 0.999994 14.6905 1.04253 15.2111C1.08593 15.7423 1.17609 16.1859 1.38148 16.589C1.71703 17.2475 2.25247 17.783 2.91103 18.1185C3.31413 18.3239 3.75771 18.4141 4.28889 18.4575C4.80951 18.5 5.45644 18.5 6.27764 18.5H17.7242C17.7472 18.5 17.7701 18.5 17.7929 18.5L22.1464 22.8536C22.3417 23.0488 22.6583 23.0488 22.8536 22.8536C23.0488 22.6583 23.0488 22.3417 22.8536 22.1464L1.85355 1.14645ZM16.7929 17.5L3.17371 3.88081C2.79084 4.12043 2.47878 4.46015 2.27248 4.86502C2.15089 5.10366 2.07756 5.40099 2.03921 5.87032C2.00039 6.34549 2 6.95167 2 7.8V13.2C2 14.0483 2.00039 14.6545 2.03921 15.1297C2.07756 15.599 2.15089 15.8963 2.27248 16.135C2.51217 16.6054 2.89462 16.9878 3.36502 17.2275C3.60366 17.3491 3.90099 17.4224 4.37032 17.4608C4.84549 17.4996 5.45167 17.5 6.3 17.5H16.7929Z" fill="#353566"/>
<path d="M19.9285 17.4285C20.2331 17.386 20.4514 17.321 20.635 17.2275C21.1054 16.9878 21.4878 16.6054 21.7275 16.135C21.8491 15.8963 21.9224 15.599 21.9608 15.1297C21.9996 14.6545 22 14.0483 22 13.2V7.8C22 6.95167 21.9996 6.3455 21.9608 5.87032C21.9224 5.40099 21.8491 5.10366 21.7275 4.86502C21.4878 4.39462 21.1054 4.01217 20.635 3.77248C20.3963 3.65089 20.099 3.57756 19.6297 3.53921C19.1545 3.50039 18.5483 3.5 17.7 3.5L6.00009 3.50009L5.00845 2.50845C5.37856 2.5 5.79849 2.5 6.27779 2.5H17.7222C18.5435 2.5 19.1905 2.49999 19.7111 2.54253C20.2423 2.58593 20.6859 2.67609 21.089 2.88148C21.7475 3.21703 22.283 3.75247 22.6185 4.41103C22.8239 4.81413 22.9141 5.25771 22.9575 5.78889C23 6.30954 23 6.95651 23 7.77778V13.2222C23 14.0435 23 14.6905 22.9575 15.2111C22.9141 15.7423 22.8239 16.1859 22.6185 16.589C22.283 17.2475 21.7475 17.783 21.089 18.1185C20.9821 18.173 20.8723 18.2193 20.7589 18.2589L19.9285 17.4285Z" fill="#353566"/>
<path d="M6 21C6 20.7239 6.22386 20.5 6.5 20.5H17.5C17.7761 20.5 18 20.7239 18 21C18 21.2761 17.7761 21.5 17.5 21.5H6.5C6.22386 21.5 6 21.2761 6 21Z" fill="#353566"/>
</svg>
