<svg width="24" height="24" viewBox="0 0 24 24" fill="none" xmlns="http://www.w3.org/2000/svg">
<path opacity="0.4" d="M9.99888 13.25C6.37406 13.25 2.44112 15.1212 1.34973 19.0645C1.23466 19.4803 1.2364 19.9131 1.26978 20.262C1.39518 21.573 2.43215 22.6118 3.7432 22.7375C3.87484 22.7501 4.02182 22.7501 4.21245 22.75L11.7908 22.75C12.0402 22.75 12.2733 22.626 12.4127 22.4192C12.5521 22.2124 12.5796 21.9498 12.486 21.7186C12.334 21.3433 12.25 20.9324 12.25 20.5V17.25C12.25 16.3257 12.6344 15.4928 13.2553 14.8997C13.4505 14.7133 13.5304 14.4364 13.4646 14.1746C13.3989 13.9129 13.1976 13.7066 12.9375 13.6346C12.0202 13.3805 11.0334 13.25 9.99888 13.25Z" fill="#353566"/>
<path d="M4.75 6.5C4.75 3.6005 7.1005 1.25 10 1.25C12.8995 1.25 15.25 3.6005 15.25 6.5C15.25 9.3995 12.8995 11.75 10 11.75C7.1005 11.75 4.75 9.3995 4.75 6.5Z" fill="#353566"/>
<path fill-rule="evenodd" clip-rule="evenodd" d="M18 11.25C16.4286 11.25 15 12.4006 15 14V15.2677C14.1519 15.389 13.5 16.1184 13.5 17V20.75C13.5 21.7165 14.2835 22.5 15.25 22.5H20.75C21.7165 22.5 22.5 21.7165 22.5 20.75V17C22.5 16.1184 21.8481 15.389 21 15.2677V14C21 12.4006 19.5714 11.25 18 11.25ZM16.5 14C16.5 13.3902 17.0861 12.75 18 12.75C18.9139 12.75 19.5 13.3902 19.5 14V15H16.5V14Z" fill="#353566"/>
</svg>
