<svg width="24" height="24" viewBox="0 0 24 24" fill="none" xmlns="http://www.w3.org/2000/svg">
<path opacity="0.4" d="M8.99888 13.25C5.37406 13.25 1.44112 15.1212 0.349731 19.0645C0.234659 19.4803 0.236397 19.9131 0.269775 20.262C0.395175 21.573 1.43215 22.6118 2.7432 22.7375C2.87484 22.7501 3.02181 22.7501 3.21245 22.75H14.7863C14.9768 22.7501 15.1238 22.7501 15.2553 22.7375C16.5666 22.6119 17.6036 21.5731 17.729 20.2619C17.7624 19.9122 17.7705 19.4741 17.642 19.0393C16.5583 15.3746 13.1531 13.25 8.99888 13.25Z" fill="#353566"/>
<path d="M3.75 6.5C3.75 3.6005 6.1005 1.25 9 1.25C11.8995 1.25 14.25 3.6005 14.25 6.5C14.25 9.3995 11.8995 11.75 9 11.75C6.1005 11.75 3.75 9.3995 3.75 6.5Z" fill="#353566"/>
<path d="M23 11.75C23.4142 11.75 23.75 11.4142 23.75 11C23.75 10.5858 23.4142 10.25 23 10.25H17C16.5858 10.25 16.25 10.5858 16.25 11C16.25 11.4142 16.5858 11.75 17 11.75H23Z" fill="#353566"/>
</svg>
