<svg width="24" height="24" viewBox="0 0 24 24" fill="none" xmlns="http://www.w3.org/2000/svg">
<path d="M4.75 6.49988C4.75 3.60038 7.1005 1.24988 10 1.24988C12.8995 1.24988 15.25 3.60038 15.25 6.49988C15.25 9.39937 12.8995 11.7499 10 11.7499C7.1005 11.7499 4.75 9.39937 4.75 6.49988Z" fill="#353566"/>
<path d="M1.25754 19.8938C1.82425 15.9269 5.7345 13.2499 10.0005 13.2499C12.2483 13.2499 14.3656 13.9824 15.9644 15.2412C16.1451 15.3834 16.2505 15.6006 16.2505 15.8305V16.5068C16.2505 16.8698 15.9905 17.1807 15.6332 17.245C14.8039 17.3941 14.1171 17.603 13.5359 18.0389C12.8723 18.5366 12.3924 19.2619 12.277 20.1019C12.226 20.4732 11.9088 20.7499 11.534 20.7499H2C1.78259 20.7499 1.57587 20.6555 1.43341 20.4913C1.29096 20.327 1.2268 20.109 1.25754 19.8938Z" fill="#353566"/>
<path d="M21.6009 15.2198L18.5004 16.1241V20.4908L18.5005 20.4998C18.5005 21.0642 18.2114 21.588 17.7146 21.9606C17.2232 22.3291 16.6009 22.5 16.0002 22.5C15.3995 22.5 14.7772 22.3291 14.2858 21.9606C13.789 21.588 13.4999 21.0642 13.4999 20.4998C13.4999 19.9354 13.789 19.4116 14.2858 19.039C14.7772 18.6704 15.3995 18.4996 16.0002 18.4996C16.5166 18.4996 17.049 18.6258 17.5004 18.8954V13.7089C17.5004 13.0422 17.9405 12.4555 18.5805 12.2688L21.0608 11.5453C21.7809 11.3353 22.5009 11.8754 22.5009 12.6254V14.0197C22.5009 14.5753 22.1342 15.0643 21.6009 15.2198Z" fill="#353566"/>
</svg>
