<svg width="24" height="24" viewBox="0 0 24 24" fill="none" xmlns="http://www.w3.org/2000/svg">
<path d="M7.35355 3.64645C7.15829 3.45118 6.84171 3.45118 6.64645 3.64645C6.45118 3.84171 6.45118 4.15829 6.64645 4.35355L11.6464 9.35355C11.8417 9.54882 12.1583 9.54882 12.3536 9.35355L17.3536 4.35355C17.5488 4.15829 17.5488 3.84171 17.3536 3.64645C17.1583 3.45118 16.8417 3.45118 16.6464 3.64645L12 8.29289L7.35355 3.64645Z" fill="#353566"/>
<path d="M7.35355 20.3536C7.15829 20.5488 6.84171 20.5488 6.64645 20.3536C6.45118 20.1583 6.45118 19.8417 6.64645 19.6464L11.6464 14.6464C11.8417 14.4512 12.1583 14.4512 12.3536 14.6464L17.3536 19.6464C17.5488 19.8417 17.5488 20.1583 17.3536 20.3536C17.1583 20.5488 16.8417 20.5488 16.6464 20.3536L12 15.7071L7.35355 20.3536Z" fill="#353566"/>
</svg>
