<svg width="24" height="24" viewBox="0 0 24 24" fill="none" xmlns="http://www.w3.org/2000/svg">
<path d="M21.5 21C21.5 21.2761 21.2761 21.5 21 21.5C20.7239 21.5 20.5 21.2761 20.5 21V3C20.5 2.72386 20.7239 2.5 21 2.5C21.2761 2.5 21.5 2.72386 21.5 3V21Z" fill="#353566"/>
<path d="M9.35355 6.35355L4.20711 11.5H16C16.2761 11.5 16.5 11.7239 16.5 12C16.5 12.2761 16.2761 12.5 16 12.5H4.20711L9.35355 17.6464C9.54882 17.8417 9.54882 18.1583 9.35355 18.3536C9.15829 18.5488 8.84171 18.5488 8.64645 18.3536L2.64645 12.3536C2.55268 12.2598 2.5 12.1326 2.5 12C2.5 11.8674 2.55268 11.7402 2.64645 11.6464L8.64645 5.64645C8.84171 5.45118 9.15829 5.45118 9.35355 5.64645C9.54882 5.84171 9.54882 6.15829 9.35355 6.35355Z" fill="#353566"/>
</svg>
