<svg width="24" height="24" viewBox="0 0 24 24" fill="none" xmlns="http://www.w3.org/2000/svg">
<path fill-rule="evenodd" clip-rule="evenodd" d="M15.544 2.86618C14.7565 2.07873 13.4101 2.63643 13.4101 3.75006V6.9394H8.18215C4.49174 6.9394 1.50006 9.93105 1.5 13.6215C1.49996 16.5553 3.12206 19.2488 5.71533 20.6209L7.2661 21.4414C7.46582 21.547 7.71159 21.5056 7.86566 21.3404C8.01973 21.1751 8.04382 20.927 7.92443 20.7352L7.53164 20.1041C6.85734 19.0207 6.49996 17.7702 6.5 16.4941C6.50004 15.0832 7.64383 13.9394 9.05475 13.9394H13.4101V17.1287C13.4101 18.2424 14.7565 18.8001 15.544 18.0126L22.0565 11.5001C22.6423 10.9143 22.6423 9.96453 22.0565 9.37874L15.544 2.86618ZM14.4101 3.75006C14.4101 3.52734 14.6794 3.4158 14.8369 3.57329L21.3494 10.0859C21.5447 10.2811 21.5447 10.5977 21.3494 10.793L14.8369 17.3055C14.6794 17.463 14.4101 17.3515 14.4101 17.1287V13.4394C14.4101 13.1633 14.1862 12.9394 13.9101 12.9394H9.05475C7.09156 12.9394 5.50006 14.5309 5.5 16.4941C5.49996 17.6218 5.74345 18.7322 6.20918 19.7508L6.183 19.737C3.91722 18.5382 2.49996 16.1848 2.5 13.6215C2.50005 10.4833 5.04402 7.9394 8.18215 7.9394H13.9101C14.1862 7.9394 14.4101 7.71555 14.4101 7.4394V3.75006Z" fill="#353566"/>
</svg>
