<svg width="24" height="24" viewBox="0 0 24 24" fill="none" xmlns="http://www.w3.org/2000/svg">
<path d="M16.5303 5.02987L17.75 3.81019L17.75 7.99953C17.75 8.41374 18.0858 8.74953 18.5 8.74953C18.9142 8.74953 19.25 8.41374 19.25 7.99953L19.25 3.81015L20.4697 5.02981C20.7626 5.3227 21.2374 5.3227 21.5303 5.0298C21.8232 4.73691 21.8232 4.26204 21.5303 3.96915L19.0303 1.46918C18.7374 1.17629 18.2626 1.17629 17.9697 1.46918L15.4697 3.96921C15.1768 4.26211 15.1768 4.73698 15.4697 5.02987C15.7626 5.32276 16.2374 5.32276 16.5303 5.02987Z" fill="#353566"/>
<path d="M15.25 13.9997C15.25 12.2047 13.795 10.7497 12 10.7497C10.2051 10.7497 8.75003 12.2047 8.75003 13.9997C8.75003 15.7946 10.2051 17.2497 12 17.2497C13.795 17.2497 15.25 15.7946 15.25 13.9997Z" fill="#353566"/>
<path fill-rule="evenodd" clip-rule="evenodd" d="M7.93495 3.72484C8.3547 3.11429 9.04813 2.74953 9.78905 2.74953L12.7768 2.74953C13.0065 2.74953 13.2235 2.85482 13.3658 3.03523C13.508 3.21565 13.5597 3.45129 13.506 3.67467C13.4041 4.09887 13.35 4.54238 13.35 4.99953C13.35 8.11994 15.8796 10.6495 19 10.6495C20.1396 10.6495 21.1983 10.3129 22.0848 9.73394C22.3138 9.58442 22.606 9.57135 22.8474 9.69985C23.0887 9.82834 23.2411 10.078 23.2449 10.3515C23.25 10.7208 23.25 11.1343 23.25 11.5952V16.4321C23.25 17.3845 23.25 18.145 23.1998 18.7592C23.1483 19.3892 23.0404 19.9311 22.7868 20.4288C22.3793 21.2285 21.7291 21.8787 20.9295 22.2861C20.4318 22.5397 19.8899 22.6477 19.2599 22.6992C18.6457 22.7493 17.8851 22.7493 16.9328 22.7493L7.06728 22.7493C6.11489 22.7493 5.35437 22.7493 4.74013 22.6992C4.11012 22.6477 3.56824 22.5397 3.07054 22.2861C2.27085 21.8787 1.62069 21.2285 1.21322 20.4288C0.959634 19.9311 0.851652 19.3892 0.800176 18.7592C0.74999 18.1449 0.749994 17.3844 0.75 16.4319V11.5667C0.749995 10.6142 0.749991 9.85372 0.800177 9.23947C0.851651 8.60946 0.959635 8.06757 1.21322 7.56988C1.62069 6.77019 2.27085 6.12002 3.07054 5.71256C3.56824 5.45897 4.11012 5.35099 4.74013 5.29951C5.31508 5.25254 6.01819 5.24953 6.88685 5.24935L7.93495 3.72484ZM12 9.24967C14.6234 9.24967 16.75 11.3763 16.75 13.9997C16.75 16.623 14.6234 18.7497 12 18.7497C9.37668 18.7497 7.25003 16.623 7.25003 13.9997C7.25003 11.3763 9.37668 9.24967 12 9.24967Z" fill="#353566"/>
</svg>
