<svg width="24" height="24" viewBox="0 0 24 24" fill="none" xmlns="http://www.w3.org/2000/svg">
<path d="M16.9326 1.25H7.06739C6.11495 1.24999 5.35439 1.24999 4.74013 1.30018C4.11012 1.35165 3.56824 1.45963 3.07054 1.71322C2.27085 2.12068 1.62068 2.77085 1.21322 3.57054C0.959634 4.06824 0.85165 4.61012 0.800176 5.24013C0.749989 5.85439 0.749994 6.61494 0.75 7.56737V12.4326C0.749998 12.7937 0.749996 13.1272 0.752728 13.4356C0.750922 13.4568 0.75 13.4783 0.75 13.5V14.5C0.75 16.8472 2.65279 18.75 5 18.75H9.25V20C9.25 20.6904 8.69036 21.25 8 21.25H7.5C7.08579 21.25 6.75 21.5858 6.75 22C6.75 22.4142 7.08579 22.75 7.5 22.75H13.4289C13.7657 22.75 14.0612 22.5255 14.1514 22.201C14.2417 21.8766 14.1046 21.5317 13.8162 21.3578C13.5469 21.1953 13.317 20.9745 13.1357 20.6609L12.514 19.5856C12.2578 19.1424 12.1986 18.679 12.2916 18.1675C12.2955 18.1505 12.2988 18.1332 12.3015 18.1157C12.3537 17.8557 12.4442 17.5831 12.5675 17.2944C12.6478 17.1063 12.6478 16.8936 12.5675 16.7054C12.192 15.826 12.1197 15.0962 12.514 14.4143L12.8256 13.8754C12.9597 13.6433 12.9598 13.3574 12.8259 13.1252C12.6919 12.893 12.4443 12.75 12.1763 12.75H2.25011L2.25 7.6C2.25 6.60753 2.25058 5.90829 2.29519 5.36228C2.33909 4.82503 2.42184 4.50252 2.54973 4.25153C2.81338 3.73408 3.23408 3.31338 3.75153 3.04973C4.00252 2.92184 4.32503 2.83909 4.86228 2.79519C5.40829 2.75058 6.10753 2.75 7.1 2.75H16.9C17.8925 2.75 18.5917 2.75058 19.1377 2.79519C19.675 2.83909 19.9975 2.92184 20.2485 3.04973C20.7659 3.31338 21.1866 3.73408 21.4503 4.25153C21.5782 4.50252 21.6609 4.82503 21.7048 5.36228C21.7494 5.90829 21.75 6.60753 21.75 7.6V11.7313C21.75 12.1455 22.0858 12.4813 22.5 12.4813C22.9142 12.4813 23.25 12.1455 23.25 11.7313V7.56737C23.25 6.61496 23.25 5.85438 23.1998 5.24013C23.1483 4.61012 23.0404 4.06824 22.7868 3.57054C22.3793 2.77085 21.7291 2.12068 20.9295 1.71322C20.4318 1.45963 19.8899 1.35165 19.2599 1.30018C18.6456 1.24999 17.8851 1.24999 16.9326 1.25Z" fill="#353566"/>
<path fill-rule="evenodd" clip-rule="evenodd" d="M13.8138 17.5449C13.2745 17.8569 13.09 18.5473 13.4012 19.0872L14.0209 20.1625C14.3321 20.7025 15.0219 20.8879 15.5615 20.5758C15.9792 20.3342 16.5027 20.6358 16.5027 21.1208C16.5027 21.744 17.0071 22.25 17.6303 22.25H18.8697C19.4929 22.25 19.9974 21.744 19.9974 21.1208C19.9974 20.6357 20.5209 20.3342 20.9386 20.5758C21.4782 20.8879 22.1679 20.7025 22.4792 20.1624L23.0989 19.0871C23.41 18.5473 23.2256 17.8568 22.6863 17.5449C22.2677 17.3028 22.2677 16.6971 22.6863 16.455C23.2256 16.1431 23.41 15.4526 23.0989 14.9128L22.4792 13.8375C22.1679 13.2974 21.4782 13.112 20.9386 13.4241C20.5209 13.6657 19.9974 13.3642 19.9974 12.8792C19.9974 12.256 19.4929 11.75 18.8698 11.75H17.6303C17.0071 11.75 16.5027 12.2559 16.5027 12.8791C16.5027 13.3641 15.9792 13.6657 15.5615 13.4241C15.0219 13.112 14.3321 13.2973 14.0209 13.8374L13.4012 14.9127C13.09 15.4525 13.2745 16.143 13.8138 16.455C14.2325 16.6971 14.2325 17.3028 13.8138 17.5449ZM19.75 17C19.75 17.8284 19.0784 18.5 18.25 18.5C17.4216 18.5 16.75 17.8284 16.75 17C16.75 16.1716 17.4216 15.5 18.25 15.5C19.0784 15.5 19.75 16.1716 19.75 17Z" fill="#353566"/>
</svg>
