<svg width="24" height="24" viewBox="0 0 24 24" fill="none" xmlns="http://www.w3.org/2000/svg">
<path fill-rule="evenodd" clip-rule="evenodd" d="M16.8135 1.32604C16.4951 1.24959 16.1656 1.24978 15.747 1.25003L6.7679 1.25005C5.95506 1.25005 5.29944 1.25004 4.76853 1.29342C4.2219 1.33808 3.74176 1.43244 3.29754 1.65878C2.59193 2.01831 2.01825 2.59198 1.65873 3.29759C1.43239 3.74181 1.33803 4.22195 1.29336 4.76859C1.24999 5.29949 1.24999 5.95511 1.25 6.76793V17.2322C1.24999 18.045 1.24999 18.7006 1.29336 19.2315C1.33803 19.7782 1.43239 20.2583 1.65873 20.7025C2.01825 21.4081 2.59193 21.9818 3.29754 22.3413C4.00162 22.7001 4.83696 22.7393 5.94353 22.748C5.96217 22.7494 5.981 22.7501 6 22.7501H15.8054C16.2196 22.7501 16.5554 22.4143 16.5554 22.0001C16.5554 21.5858 16.2196 21.2501 15.8054 21.2501H6.75V15.5001C6.75 14.8097 7.30964 14.2501 8 14.2501H14.8198C15.12 14.2501 15.3914 14.071 15.5094 13.7949C15.8572 12.9814 16.544 12.3107 17.4443 11.8815C17.6101 11.8025 17.7412 11.6653 17.8126 11.496C18.1406 10.7184 18.7521 10.2501 19.5001 10.2501C20.2506 10.2501 20.8642 10.7217 21.1894 11.5025C21.2596 11.6711 21.3889 11.8082 21.553 11.8883C21.589 11.9058 21.6249 11.9237 21.6606 11.9418C21.8931 12.0598 22.1702 12.0486 22.3924 11.9122C22.6146 11.7758 22.75 11.5337 22.75 11.273L22.75 8.25306C22.7503 7.83445 22.7505 7.50492 22.674 7.18651C22.6067 6.90591 22.4955 6.63766 22.3448 6.39161C22.1737 6.1124 21.9405 5.87952 21.6443 5.58368L18.4163 2.3557C18.1205 2.05953 17.8876 1.82639 17.6084 1.65529C17.3624 1.50452 17.0941 1.3934 16.8135 1.32604ZM14.5 6.75006C14.9142 6.75006 15.25 7.08585 15.25 7.50006C15.25 7.91427 14.9142 8.25006 14.5 8.25006H9.5C9.08579 8.25006 8.75 7.91427 8.75 7.50006C8.75 7.08585 9.08579 6.75006 9.5 6.75006L14.5 6.75006Z" fill="#353566"/>
<path d="M19.5 11.2501C19.9143 11.2501 20.25 11.5858 20.25 12.0001V12.5489C20.5143 12.5879 20.7685 12.6533 21.0266 12.7557C21.4998 12.9434 21.9411 13.2382 22.4528 13.6257C22.783 13.8757 22.848 14.3461 22.598 14.6763C22.3479 15.0066 21.8775 15.0716 21.5473 14.8215C21.059 14.4518 20.7503 14.2598 20.4735 14.15C20.2143 14.0472 19.9407 14 19.5 14C18.8566 14 18.4008 14.1521 18.1275 14.3501C17.8766 14.5318 17.75 14.7678 17.75 15.0817C17.75 15.461 17.916 15.6783 18.2414 15.8605C18.6142 16.0692 19.1186 16.1761 19.6233 16.2602C20.1186 16.3428 20.8642 16.4796 21.4914 16.8307C22.166 17.2083 22.75 17.8668 22.75 18.9183C22.75 19.733 22.3766 20.4128 21.7525 20.8648C21.3312 21.17 20.8154 21.3592 20.25 21.4453V22C20.25 22.4143 19.9143 22.75 19.5 22.75C19.0858 22.75 18.75 22.4143 18.75 22V21.4512C18.4857 21.4121 18.2316 21.3467 17.9735 21.2444C17.5003 21.0567 17.059 20.7619 16.5473 20.3744C16.2171 20.1243 16.1521 19.6539 16.4021 19.3237C16.6522 18.9935 17.1226 18.9285 17.4528 19.1785C17.9411 19.5483 18.2498 19.7403 18.5266 19.85C18.7858 19.9529 19.0594 20 19.5 20C20.1435 20 20.5993 19.8479 20.8726 19.65C21.1235 19.4683 21.25 19.2323 21.25 18.9183C21.25 18.5391 21.0841 18.3217 20.7587 18.1396C20.3859 17.9309 19.8815 17.824 19.3767 17.7398C18.8815 17.6573 18.1359 17.5205 17.5087 17.1694C16.8341 16.7918 16.25 16.1333 16.25 15.0817C16.25 14.2671 16.6235 13.5873 17.2476 13.1352C17.6689 12.8301 18.1846 12.6409 18.75 12.5548V12.0001C18.75 11.5858 19.0858 11.2501 19.5 11.2501Z" fill="#353566"/>
</svg>
