<svg width="24" height="24" viewBox="0 0 24 24" fill="none" xmlns="http://www.w3.org/2000/svg">
<path fill-rule="evenodd" clip-rule="evenodd" d="M15.8135 1.32604C15.4951 1.24959 15.1656 1.24978 14.747 1.25003L5.7679 1.25005C4.95506 1.25005 4.29944 1.25004 3.76853 1.29342C3.2219 1.33808 2.74176 1.43244 2.29754 1.65878C1.59193 2.01831 1.01825 2.59198 0.658727 3.29759C0.432386 3.74181 0.338026 4.22195 0.293364 4.76859C0.249988 5.29949 0.249993 5.95509 0.25 6.76792V17.2322C0.249993 18.045 0.249988 18.7006 0.293364 19.2315C0.338026 19.7782 0.432386 20.2583 0.658727 20.7025C1.01825 21.4081 1.59193 21.9818 2.29754 22.3413C3.00162 22.7001 3.83696 22.7393 4.94353 22.748C4.96217 22.7494 4.981 22.7501 5 22.7501H12.5C12.9142 22.7501 13.25 22.4143 13.25 22.0001C13.25 21.5858 12.9142 21.2501 12.5 21.2501H5.75V15.5001C5.75 14.8097 6.30964 14.2501 7 14.2501H14.3089C14.6778 14.2501 14.9919 13.9818 15.0496 13.6175C15.3523 11.7091 17.0065 10.2501 19 10.2501C19.6031 10.2501 20.173 10.383 20.6839 10.6205C20.9161 10.7284 21.1874 10.7104 21.4034 10.5727C21.6193 10.4349 21.75 10.1965 21.75 9.94037L21.75 8.25306C21.7503 7.83445 21.7505 7.50492 21.674 7.18651C21.6067 6.90591 21.4955 6.63766 21.3448 6.39161C21.1737 6.1124 20.9405 5.87952 20.6443 5.58368L17.4164 2.35573C17.1205 2.05956 16.8876 1.82639 16.6084 1.65529C16.3624 1.50452 16.0941 1.3934 15.8135 1.32604ZM13.5 6.75006C13.9142 6.75006 14.25 7.08585 14.25 7.50006C14.25 7.91427 13.9142 8.25006 13.5 8.25006L8.5 8.25006C8.08579 8.25006 7.75 7.91427 7.75 7.50006C7.75 7.08585 8.08579 6.75006 8.5 6.75006L13.5 6.75006Z" fill="#353566"/>
<path d="M19 18.5001C16.921 18.5001 15.0199 19.9169 14.5158 21.8754C14.4773 22.0251 14.5101 22.1842 14.6048 22.3064C14.6995 22.4286 14.8454 22.5001 15 22.5001H23C23.1546 22.5001 23.3005 22.4286 23.3952 22.3064C23.4899 22.1842 23.5228 22.0251 23.4842 21.8754C22.9801 19.9169 21.0789 18.5001 19 18.5001Z" fill="#353566"/>
<path d="M19 11.5001C17.4812 11.5001 16.25 12.7313 16.25 14.2501C16.25 15.7688 17.4812 17.0001 19 17.0001C20.5188 17.0001 21.75 15.7688 21.75 14.2501C21.75 12.7313 20.5188 11.5001 19 11.5001Z" fill="#353566"/>
</svg>
