<svg width="24" height="24" viewBox="0 0 24 24" fill="none" xmlns="http://www.w3.org/2000/svg">
<g clip-path="url(#clip0_9001_285321)">
<path d="M18 3.5C17.17 3.5 16.5 4.17 16.5 5C16.5 5.83 17.17 6.5 18 6.5C18.83 6.5 19.5 5.83 19.5 5C19.5 4.17 18.83 3.5 18 3.5Z" fill="#353566"/>
<path fill-rule="evenodd" clip-rule="evenodd" d="M23.3973 4.45386C22.3768 1.84732 20.2068 0.5 18 0.5C15.7932 0.5 13.6232 1.84733 12.6027 4.45387C12.4658 4.80356 12.4658 5.19644 12.6027 5.54614C13.6232 8.15268 15.7932 9.5 18 9.5C20.2068 9.5 22.3768 8.15268 23.3973 5.54613C23.5342 5.19644 23.5342 4.80356 23.3973 4.45386ZM15.5 5C15.5 3.61771 16.6177 2.5 18 2.5C19.3823 2.5 20.5 3.61771 20.5 5C20.5 6.38229 19.3823 7.5 18 7.5C16.6177 7.5 15.5 6.38229 15.5 5Z" fill="#353566"/>
<path d="M10.5 4.24997L8.39171 4.24992C7.26836 4.24939 6.49359 4.24903 5.81889 4.51983C5.22531 4.75808 4.70254 5.14419 4.30027 5.64145C3.84301 6.20668 3.61551 6.94729 3.28566 8.02112L1.19962 14.8009C2.13374 14.145 3.2719 13.76 4.49997 13.76H18.5C19.7281 13.76 20.8662 14.145 21.8004 14.8009L20.6391 11.0267C20.5204 10.641 20.1179 10.4183 19.7281 10.5228C19.1678 10.6729 18.5879 10.75 18 10.75C15.2557 10.75 12.6383 9.06561 11.4387 6.00183C11.313 5.68082 11.25 5.34062 11.25 4.99997C11.25 4.58576 10.9142 4.24997 10.5 4.24997Z" fill="#353566"/>
<path fill-rule="evenodd" clip-rule="evenodd" d="M22.75 19.505C22.7473 17.1601 20.8455 15.26 18.5 15.26H4.49997C2.15445 15.26 0.252703 17.1601 0.25 19.505C0.252703 21.8499 2.15445 23.75 4.49997 23.75H18.5C20.8455 23.75 22.7473 21.8499 22.75 19.505ZM14.5 18.51C13.9477 18.51 13.5 18.9577 13.5 19.51C13.5 20.0623 13.9477 20.51 14.5 20.51C15.0523 20.51 15.5001 20.0623 15.5001 19.51C15.5001 18.9577 15.0523 18.51 14.5 18.51ZM16.5 19.51C16.5 18.9577 16.9477 18.51 17.5 18.51C18.0523 18.51 18.5001 18.9577 18.5001 19.51C18.5001 20.0623 18.0524 20.51 17.5001 20.51C16.9478 20.51 16.5 20.0623 16.5 19.51Z" fill="#353566"/>
</g>
<defs>
<clipPath id="clip0_9001_285321">
<rect width="24" height="24" fill="white"/>
</clipPath>
</defs>
</svg>
