<svg width="24" height="24" viewBox="0 0 24 24" fill="none" xmlns="http://www.w3.org/2000/svg">
<path d="M7.36821 2.25H16.6318C17.3749 2.24999 17.978 2.24999 18.4673 2.28996C18.9722 2.33121 19.4215 2.41876 19.839 2.63148C20.4975 2.96703 21.033 3.50247 21.3685 4.16104C21.5812 4.57851 21.6688 5.02778 21.71 5.53273C21.75 6.02195 21.75 6.62507 21.75 7.36811V8.81347C21.75 9.22769 21.4142 9.56347 21 9.56347C20.5858 9.56347 20.25 9.22769 20.25 8.81347V7.4C20.25 6.61755 20.2494 6.07582 20.215 5.65488C20.1813 5.24269 20.119 5.0128 20.032 4.84202C19.8403 4.4657 19.5343 4.15973 19.158 3.96799C18.9872 3.88097 18.7573 3.81865 18.3451 3.78498C17.9242 3.75058 17.3824 3.75 16.6 3.75H7.4C6.61755 3.75 6.07582 3.75058 5.65488 3.78498C5.24269 3.81865 5.0128 3.88097 4.84202 3.96799C4.4657 4.15973 4.15973 4.4657 3.96799 4.84202C3.88097 5.0128 3.81865 5.24269 3.78498 5.65488C3.75058 6.07582 3.75 6.61755 3.75 7.4V13C3.75 13.4142 3.41421 13.75 3 13.75C2.58579 13.75 2.25 13.4142 2.25 13L2.25 7.36821C2.24999 6.62512 2.24999 6.02197 2.28996 5.53273C2.33121 5.02778 2.41876 4.57851 2.63148 4.16103C2.96703 3.50247 3.50247 2.96703 4.16103 2.63148C4.57851 2.41876 5.02778 2.33121 5.53273 2.28996C6.02196 2.24999 6.62513 2.24999 7.36821 2.25Z" fill="#353566"/>
<path d="M1 15.25C0.585786 15.25 0.25 15.5858 0.25 16V16.75C0.25 18.4069 1.59315 19.75 3.25 19.75H13.6596C13.9298 19.75 14.1792 19.6046 14.3123 19.3695C14.4454 19.1343 14.4417 18.8457 14.3026 18.614C13.8101 17.7935 13.4496 16.8887 13.3117 15.8967C13.2602 15.526 12.9432 15.25 12.5688 15.25H1Z" fill="#353566"/>
<path fill-rule="evenodd" clip-rule="evenodd" d="M19.0001 10.5C16.5144 10.5 14.5 12.517 14.5 15.002C14.5 17.7667 16.7001 19.9001 18.7 21.4C18.8778 21.5333 19.1222 21.5333 19.3 21.4C21.3 19.9 23.5 17.7667 23.5 15C23.5 12.5147 21.4854 10.5 19.0001 10.5ZM20.5 15.0001C20.5 15.8285 19.8285 16.5001 19 16.5001C18.1716 16.5001 17.5 15.8285 17.5 15.0001C17.5 14.1716 18.1716 13.5001 19 13.5001C19.8285 13.5001 20.5 14.1716 20.5 15.0001Z" fill="#353566"/>
</svg>
