<svg width="24" height="24" viewBox="0 0 24 24" fill="none" xmlns="http://www.w3.org/2000/svg">
<path d="M1.25 9.33456C1.25 4.8539 4.95951 1.25 9.5 1.25C13.9154 1.25 17.5438 4.6569 17.7415 8.96561C17.7509 9.17016 17.6763 9.36964 17.5349 9.51778C17.3936 9.66591 17.1978 9.74981 16.993 9.75001C13.3028 9.75347 10.2571 12.5146 9.80731 16.0834C9.79442 16.1999 9.75482 16.3084 9.69476 16.4026C9.66088 16.4558 9.62054 16.5043 9.5749 16.5471C9.44076 16.6729 9.26033 16.75 9.06189 16.75H6.25V17.5002C6.25 17.908 6.57539 18.2397 6.98067 18.25H9.25204C9.60076 18.25 9.8939 18.488 9.97787 18.8104C9.99368 18.8711 10.0021 18.9347 10.0021 19.0002C10.0021 19.4145 9.66631 19.7502 9.2521 19.7502H7.37812C7.68706 20.624 8.52043 21.25 9.5 21.25C9.79115 21.25 10.0677 21.1951 10.321 21.0957C10.7067 20.9445 11.1419 21.1345 11.2931 21.5201C11.4443 21.9057 11.2543 22.3409 10.8687 22.4922C10.4437 22.6588 9.98158 22.75 9.5 22.75C7.55865 22.75 5.96185 21.2748 5.76944 19.3842C5.15556 18.9824 4.75 18.2887 4.75 17.5002V16.3547C2.29431 14.2875 1.25 11.9807 1.25 9.33456Z" fill="#353566"/>
<path fill-rule="evenodd" clip-rule="evenodd" d="M22.75 17C22.75 13.8244 20.1756 11.25 17 11.25C13.8244 11.25 11.25 13.8244 11.25 17C11.25 20.1756 13.8244 22.75 17 22.75C20.1756 22.75 22.75 20.1756 22.75 17ZM16.125 15.75C16.125 15.2668 16.5168 14.875 17 14.875C17.4832 14.875 17.875 15.2668 17.875 15.75C17.875 15.9942 17.7758 16.2141 17.6138 16.3736C17.5217 16.4643 17.44 16.5152 17.3098 16.5963C17.2733 16.6191 17.233 16.6442 17.1875 16.6733C16.9891 16.8001 16.7329 16.9845 16.5481 17.3306C16.3855 17.635 16.5005 18.0137 16.8049 18.1763C17.1094 18.3389 17.4881 18.2239 17.6507 17.9194C17.6851 17.855 17.7268 17.8121 17.8608 17.7264C17.8805 17.7139 17.9036 17.6997 17.9296 17.6837C18.0688 17.5982 18.2895 17.4625 18.4908 17.2643C18.8816 16.8796 19.125 16.3427 19.125 15.75C19.125 14.5764 18.1736 13.625 17 13.625C15.8264 13.625 14.875 14.5764 14.875 15.75C14.875 16.0952 15.1548 16.375 15.5 16.375C15.8452 16.375 16.125 16.0952 16.125 15.75ZM17 18.75C16.5858 18.75 16.25 19.0858 16.25 19.5C16.25 19.9142 16.5858 20.25 17 20.25C17.4142 20.25 17.7501 19.9142 17.7501 19.5C17.7501 19.0858 17.4142 18.75 17 18.75Z" fill="#353566"/>
</svg>
