<svg width="24" height="24" viewBox="0 0 24 24" fill="none" xmlns="http://www.w3.org/2000/svg">
<path d="M1.25 9.33456C1.25 4.8539 4.95951 1.25 9.5 1.25C14.0405 1.25 17.75 4.8539 17.75 9.33456C17.75 9.57703 17.7412 9.81771 17.7232 10.0566C17.6938 10.4457 17.371 10.7472 16.9808 10.7501C16.2624 10.7553 15.786 11.0262 15.3896 11.4573C14.9592 11.9253 14.6339 12.5691 14.2677 13.3292C14.1578 13.5573 13.9403 13.7145 13.6894 13.7473C12.8432 13.8581 12.1221 13.9663 11.5386 14.2329C11.0026 14.478 10.5942 14.8522 10.3685 15.5511C10.3085 15.7368 10.2739 15.9071 10.2585 16.064C10.2482 16.1859 10.2087 16.2995 10.1471 16.3978C10.1138 16.451 10.074 16.4996 10.0289 16.5427C9.89428 16.6711 9.71195 16.75 9.51119 16.75H6.25V17.5002C6.25 17.908 6.57539 18.2397 6.98067 18.25H10.9705C11.1769 18.25 11.3638 18.3333 11.4994 18.4682C11.6361 18.6041 11.7208 18.7923 11.7208 19.0002C11.7208 19.4145 11.385 19.7502 10.9708 19.7502H7.37812C7.68706 20.624 8.52043 21.25 9.5 21.25C10.0179 21.25 10.493 21.076 10.873 20.7827C11.2009 20.5297 11.6719 20.5904 11.9249 20.9183C12.178 21.2462 12.1173 21.7172 11.7894 21.9703C11.1561 22.4589 10.361 22.75 9.5 22.75C7.55865 22.75 5.96185 21.2748 5.76944 19.3842C5.15556 18.9824 4.75 18.2887 4.75 17.5002V16.3547C2.29431 14.2875 1.25 11.9807 1.25 9.33456Z" fill="#353566"/>
<path d="M15.9866 12.6365C16.3957 11.7878 17.6043 11.7878 18.0133 12.6365L19.0786 14.8464L21.5198 15.165C22.4614 15.2879 22.8366 16.45 22.1446 17.1003L20.3664 18.7713L20.8141 21.1646C20.9878 22.0935 20.0083 22.8097 19.1759 22.3625L17 21.1934L14.824 22.3625C13.9916 22.8097 13.0121 22.0935 13.1858 21.1646L13.6335 18.7713L11.8553 17.1003C11.1633 16.45 11.5385 15.2879 12.4801 15.165L14.9213 14.8464L15.9866 12.6365Z" fill="#353566"/>
</svg>
