<svg width="24" height="24" viewBox="0 0 24 24" fill="none" xmlns="http://www.w3.org/2000/svg">
<path fill-rule="evenodd" clip-rule="evenodd" d="M8.367 1.25H15.633C16.7251 1.24999 17.5906 1.24999 18.2883 1.30699C19.0017 1.36527 19.6053 1.48688 20.1565 1.76772C21.0502 2.22312 21.7769 2.94977 22.2323 3.84355C22.5131 4.39472 22.6347 4.99835 22.693 5.71173C22.75 6.40935 22.75 7.27484 22.75 8.36698V15.633C22.75 16.7252 22.75 17.5906 22.693 18.2883C22.6347 19.0017 22.5131 19.6053 22.2323 20.1565C21.7769 21.0502 21.0502 21.7769 20.1565 22.2323C19.6053 22.5131 19.0017 22.6347 18.2883 22.693C17.5906 22.75 16.7252 22.75 15.633 22.75H8.36698C7.27484 22.75 6.40935 22.75 5.71173 22.693C4.99835 22.6347 4.39472 22.5131 3.84355 22.2323C2.94977 21.7769 2.22312 21.0502 1.76772 20.1565C1.48688 19.6053 1.36527 19.0017 1.30699 18.2883C1.24999 17.5906 1.24999 16.7252 1.25 15.633V8.36699C1.24999 7.27485 1.24999 6.40935 1.30699 5.71173C1.36527 4.99834 1.48688 4.39472 1.76772 3.84355C2.22312 2.94978 2.94978 2.22312 3.84355 1.76772C4.39472 1.48688 4.99835 1.36527 5.71173 1.30699C6.40935 1.24999 7.27486 1.24999 8.367 1.25ZM9 8C9 6.34315 10.3431 5 12 5C13.6569 5 15 6.34315 15 8V11.5C15 13.1569 13.6569 14.5 12 14.5C10.3431 14.5 9 13.1569 9 11.5V8ZM7 11.25C7.41421 11.25 7.75 11.5858 7.75 12C7.75 12.9812 8.24424 13.9121 9.05433 14.6158C9.8661 15.3209 10.9444 15.75 12 15.75C13.0556 15.75 14.1339 15.3209 14.9457 14.6158C15.7558 13.9121 16.25 12.9812 16.25 12C16.25 11.5858 16.5858 11.25 17 11.25C17.4142 11.25 17.75 11.5858 17.75 12C17.75 13.504 16.9942 14.8232 15.9293 15.7482C15.0511 16.5111 13.9282 17.0384 12.75 17.1987V18.5C12.75 18.9142 12.4142 19.25 12 19.25C11.5858 19.25 11.25 18.9142 11.25 18.5V17.1987C10.0718 17.0384 8.94894 16.5111 8.07067 15.7482C7.00576 14.8232 6.25 13.504 6.25 12C6.25 11.5858 6.58579 11.25 7 11.25Z" fill="#353566"/>
</svg>
