<svg width="24" height="24" viewBox="0 0 24 24" fill="none" xmlns="http://www.w3.org/2000/svg">
<path fill-rule="evenodd" clip-rule="evenodd" d="M7.16762 1.25H10.8324C11.715 1.24999 12.4231 1.24999 12.9957 1.29677C13.584 1.34484 14.095 1.44601 14.566 1.68597C15.3186 2.06947 15.9305 2.68139 16.314 3.43404C16.554 3.905 16.6552 4.41601 16.7032 5.00433C16.75 5.57689 16.75 6.28492 16.75 7.16748V11.5674C16.75 11.9427 16.4726 12.2602 16.1008 12.3106C13.702 12.6359 11.5077 14.268 10.4387 16.9981C10.1871 17.6408 10.1871 18.3592 10.4387 19.0019C10.8207 19.9775 11.3458 20.8108 11.9694 21.4936C12.1696 21.7127 12.2217 22.0292 12.1024 22.3009C11.983 22.5726 11.7147 22.7485 11.418 22.7494C11.2236 22.75 11.0176 22.75 10.8 22.75H7.16761C6.28499 22.75 5.57692 22.75 5.00433 22.7032C4.41601 22.6552 3.905 22.554 3.43404 22.314C2.68139 21.9305 2.06947 21.3186 1.68597 20.566C1.44601 20.095 1.34484 19.584 1.29677 18.9957C1.24999 18.4231 1.24999 17.715 1.25 16.8324V7.16763C1.24999 6.28501 1.24999 5.57692 1.29677 5.00433C1.34484 4.41601 1.44601 3.905 1.68597 3.43404C2.06947 2.68139 2.68139 2.06947 3.43404 1.68597C3.905 1.44601 4.41601 1.34484 5.00433 1.29677C5.57692 1.24999 6.28501 1.24999 7.16762 1.25ZM6.75 5C6.75 4.58579 7.08579 4.25 7.5 4.25H10.5C10.9142 4.25 11.25 4.58579 11.25 5C11.25 5.41421 10.9142 5.75 10.5 5.75H7.5C7.08579 5.75 6.75 5.41421 6.75 5ZM8 18.5C8 17.9477 8.44772 17.5 9 17.5C9.55228 17.5 10.0001 17.9477 10.0001 18.5C10.0001 19.0523 9.55228 19.5 9 19.5C8.44772 19.5 8 19.0523 8 18.5Z" fill="#353566"/>
<path d="M17 16.5C16.17 16.5 15.5 17.17 15.5 18C15.5 18.83 16.17 19.5 17 19.5C17.83 19.5 18.5 18.83 18.5 18C18.5 17.17 17.83 16.5 17 16.5Z" fill="#353566"/>
<path fill-rule="evenodd" clip-rule="evenodd" d="M17 13.5C19.2068 13.5 21.3768 14.8473 22.3973 17.4539C22.5342 17.8036 22.5342 18.1964 22.3973 18.5461C21.3768 21.1527 19.2068 22.5 17 22.5C14.7932 22.5 12.6232 21.1527 11.6027 18.5461C11.4658 18.1964 11.4658 17.8036 11.6027 17.4539C12.6232 14.8473 14.7932 13.5 17 13.5ZM17 15.5C15.6177 15.5 14.5 16.6177 14.5 18C14.5 19.3823 15.6177 20.5 17 20.5C18.3823 20.5 19.5 19.3823 19.5 18C19.5 16.6177 18.3823 15.5 17 15.5Z" fill="#353566"/>
</svg>
