<svg width="24" height="24" viewBox="0 0 24 24" fill="none" xmlns="http://www.w3.org/2000/svg">
<path fill-rule="evenodd" clip-rule="evenodd" d="M11.8324 1.25H8.16762C7.285 1.24999 6.57692 1.24999 6.00433 1.29677C5.41601 1.34484 4.905 1.44601 4.43404 1.68597C3.68139 2.06947 3.06947 2.68139 2.68597 3.43404C2.44601 3.905 2.34484 4.41601 2.29677 5.00433C2.24999 5.57691 2.24999 6.28499 2.25 7.16761V16.8324C2.24999 17.715 2.24999 18.4231 2.29677 18.9957C2.34484 19.584 2.44601 20.095 2.68597 20.566C3.06947 21.3186 3.68139 21.9305 4.43404 22.314C4.905 22.554 5.41601 22.6552 6.00433 22.7032C6.57692 22.75 7.28499 22.75 8.16761 22.75L11.9019 22.75C13.1459 22.7501 14.063 22.7502 14.7745 22.5921C15.0614 22.5284 15.2846 22.3029 15.3455 22.0154C15.4065 21.7279 15.2938 21.4313 15.0575 21.2567C15.0195 21.2287 14.9816 21.2003 14.9437 21.1716C14.1732 20.5882 14.0215 19.4906 14.605 18.72C14.6807 18.6201 14.7723 18.5233 14.8997 18.3905L14.901 18.3891C14.935 18.3536 14.9719 18.3152 15.0086 18.2761C15.2535 18.0159 15.2808 17.6191 15.0739 17.3278C14.5492 16.5892 14.2501 15.8963 14.2501 15.0817C14.2501 13.666 15.1159 12.5148 16.4443 11.8815C16.6101 11.8024 16.7412 11.6653 16.8126 11.496C16.9699 11.123 17.1965 10.8194 17.4647 10.6077C17.6449 10.4655 17.75 10.2486 17.75 10.019V7.16756C17.75 6.28499 17.75 5.57689 17.7032 5.00433C17.6552 4.41601 17.554 3.905 17.314 3.43404C16.9305 2.68139 16.3186 2.06947 15.566 1.68597C15.095 1.44601 14.584 1.34484 13.9957 1.29677C13.4231 1.24999 12.715 1.24999 11.8324 1.25ZM7.75 5C7.75 4.58579 8.08579 4.25 8.5 4.25H11.5C11.9142 4.25 12.25 4.58579 12.25 5C12.25 5.41421 11.9142 5.75 11.5 5.75H8.5C8.08579 5.75 7.75 5.41421 7.75 5ZM9 18.5C9 17.9477 9.44772 17.5 10 17.5C10.5523 17.5 11.0001 17.9477 11.0001 18.5C11.0001 19.0523 10.5523 19.5 10 19.5C9.44772 19.5 9 19.0523 9 18.5Z" fill="#353566"/>
<path d="M18.5 11.25C18.9143 11.25 19.25 11.5858 19.25 12V12.5489C19.5143 12.5879 19.7685 12.6533 20.0266 12.7556C20.4998 12.9433 20.9411 13.2381 21.4528 13.6256C21.783 13.8756 21.848 14.346 21.598 14.6763C21.3479 15.0065 20.8775 15.0715 20.5473 14.8214C20.059 14.4517 19.7503 14.2597 19.4735 14.15C19.2143 14.0471 18.9407 14 18.5 14C17.8566 14 17.4008 14.1521 17.1275 14.35C16.8766 14.5317 16.75 14.7677 16.75 15.0817C16.75 15.461 16.916 15.6783 17.2414 15.8604C17.6142 16.0691 18.1186 16.1761 18.6233 16.2602C19.1186 16.3427 19.8642 16.4795 20.4914 16.8306C21.166 17.2083 21.75 17.8667 21.75 18.9183C21.75 19.7329 21.3766 20.4128 20.7525 20.8648C20.3312 21.1699 19.8154 21.3592 19.25 21.4452V22C19.25 22.4142 18.9143 22.75 18.5 22.75C18.0858 22.75 17.75 22.4142 17.75 22V21.4511C17.4857 21.4121 17.2316 21.3467 16.9735 21.2443C16.5003 21.0566 16.059 20.7618 15.5473 20.3743C15.2171 20.1243 15.1521 19.6539 15.4021 19.3236C15.6522 18.9934 16.1226 18.9284 16.4528 19.1785C16.9411 19.5482 17.2498 19.7402 17.5266 19.85C17.7858 19.9528 18.0594 20 18.5 20C19.1435 20 19.5993 19.8479 19.8726 19.6499C20.1235 19.4682 20.25 19.2322 20.25 18.9183C20.25 18.539 20.0841 18.3217 19.7587 18.1395C19.3859 17.9308 18.8815 17.8239 18.3767 17.7398C17.8815 17.6572 17.1359 17.5204 16.5087 17.1693C15.8341 16.7917 15.25 16.1332 15.25 15.0817C15.25 14.267 15.6235 13.5872 16.2476 13.1352C16.6689 12.8301 17.1846 12.6408 17.75 12.5548V12C17.75 11.5858 18.0858 11.25 18.5 11.25Z" fill="#353566"/>
</svg>
