<svg width="24" height="24" viewBox="0 0 24 24" fill="none" xmlns="http://www.w3.org/2000/svg">
<path d="M5.75 1.25C6.16421 1.25 6.5 1.58579 6.5 2V5.75H5V2C5 1.58579 5.33579 1.25 5.75 1.25Z" fill="#353566"/>
<path d="M2 8.25H1C0.585787 8.25 0.25 7.91421 0.25 7.5C0.25 7.08578 0.585787 6.75 1 6.75L17 6.75C17.4142 6.75 17.75 7.08579 17.75 7.5C17.75 7.91421 17.4142 8.25 17 8.25H16V12C16 12.1005 15.9979 12.2006 15.9937 12.3001C15.9859 12.4846 15.877 12.6499 15.7105 12.7298C14.9124 13.1129 14.3567 13.9553 14.159 14.853C14.1537 14.8775 14.1464 14.9016 14.1374 14.925C14.0109 15.2538 13.7474 15.5185 13.4121 15.6428C12.7191 15.8987 12.1097 16.2045 11.6774 16.6191C11.2623 17.0172 10.9971 17.5265 10.9971 18.25C10.9971 18.2719 10.9973 18.2937 10.9978 18.3153C11.0031 18.5514 10.8426 18.759 10.6127 18.8132C10.3312 18.8796 10.0432 18.929 9.75 18.9603V22C9.75 22.4142 9.41421 22.75 9 22.75C8.58579 22.75 8.25 22.4142 8.25 22V18.9603C4.73668 18.5861 2 15.6126 2 12V8.25Z" fill="#353566"/>
<path d="M13 2C13 1.58579 12.6642 1.25 12.25 1.25C11.8358 1.25 11.5 1.58579 11.5 2V5.75H13V2Z" fill="#353566"/>
<path d="M15.8479 14.6281C16.1578 13.7906 17.3422 13.7906 17.6521 14.6281L17.9505 15.4345C18.2274 16.1827 18.8173 16.7726 19.5655 17.0495L20.3719 17.3479C21.2094 17.6578 21.2094 18.8422 20.3719 19.1521L19.5655 19.4505C18.8173 19.7274 18.2274 20.3173 17.9505 21.0655L17.6521 21.8719C17.3422 22.7094 16.1578 22.7094 15.8479 21.8719L15.5495 21.0655C15.2726 20.3173 14.6827 19.7274 13.9345 19.4505L13.1281 19.1521C12.2906 18.8422 12.2906 17.6578 13.1281 17.3479L13.9345 17.0495C14.6827 16.7726 15.2726 16.1827 15.5495 15.4345L15.8479 14.6281Z" fill="#353566"/>
<path d="M20.8731 12.0883C20.9167 11.9706 21.0833 11.9706 21.1269 12.0883L21.3211 12.6133C21.5038 13.107 21.893 13.4962 22.3867 13.6789L22.9117 13.8731C23.0294 13.9167 23.0294 14.0833 22.9117 14.1269L22.3867 14.3211C21.893 14.5038 21.5038 14.893 21.3211 15.3867L21.1269 15.9117C21.0833 16.0294 20.9167 16.0294 20.8731 15.9117L20.6789 15.3867C20.4962 14.893 20.107 14.5038 19.6133 14.3211L19.0883 14.1269C18.9706 14.0833 18.9706 13.9167 19.0883 13.8731L19.6133 13.6789C20.107 13.4962 20.4962 13.107 20.6789 12.6133L20.8731 12.0883Z" fill="#353566"/>
</svg>
