<svg width="24" height="24" viewBox="0 0 24 24" fill="none" xmlns="http://www.w3.org/2000/svg">
<g clip-path="url(#clip0_9001_286200)">
<path d="M5.75 2.5C5.75 2.08579 6.08579 1.75 6.5 1.75H11.2738C11.688 1.75 12.0238 1.41421 12.0238 1C12.0238 0.585786 11.688 0.25 11.2738 0.25H6.5C5.25736 0.25 4.25 1.25736 4.25 2.5V6C4.25 6.41421 4.58579 6.75 5 6.75C5.41421 6.75 5.75 6.41421 5.75 6V2.5Z" fill="#353566"/>
<path fill-rule="evenodd" clip-rule="evenodd" d="M4 8.25C1.92893 8.25 0.25 9.92893 0.25 12V17.5C0.25 18.7426 1.25736 19.75 2.5 19.75H4.25V21.5C4.25 22.7426 5.25736 23.75 6.5 23.75H15.5C16.7426 23.75 17.75 22.7426 17.75 21.5V19.75H19.5C20.7426 19.75 21.75 18.7426 21.75 17.5V12C21.75 11.6486 21.7014 11.3072 21.6102 10.9829C21.5403 10.7343 21.3473 10.5391 21.0994 10.4663C20.8516 10.3936 20.5837 10.4536 20.3905 10.625C20.3118 10.6948 20.232 10.7652 20.151 10.8363L20.1462 10.8405C19.4386 11.4722 18.6997 11.7507 18.0005 11.7502C17.301 11.7497 16.5613 11.4699 15.8528 10.8389L15.8483 10.8349C14.8356 9.94717 14.0118 9.16246 13.3743 8.48574C13.2326 8.33529 13.035 8.25 12.8284 8.25H4ZM16.25 15.75V21.5C16.25 21.9142 15.9142 22.25 15.5 22.25H6.5C6.08579 22.25 5.75 21.9142 5.75 21.5V15.75H16.25Z" fill="#353566"/>
<path d="M19.9021 0.551743C20.847 0.355591 22.0491 0.70492 22.8641 1.8092C23.7044 2.94774 23.7815 4.90917 22.6739 6.44631C21.902 7.51745 20.3335 8.95434 19.326 9.83494C19.3023 9.85566 19.2787 9.87657 19.2549 9.89756C19.006 10.1173 18.7484 10.3448 18.425 10.4404C18.1559 10.5199 17.8441 10.5199 17.5751 10.4404C17.2517 10.3448 16.994 10.1173 16.7452 9.89757C16.7214 9.87658 16.6977 9.85567 16.6741 9.83495C15.6666 8.95435 14.098 7.51746 13.3262 6.4463C12.2186 4.90917 12.2957 2.94776 13.136 1.8092C13.951 0.704925 15.153 0.355591 16.0979 0.551743L16.0999 0.552146C16.8341 0.70757 17.4857 1.05543 18 1.60069C18.5143 1.05543 19.166 0.70757 19.9002 0.552146L19.9021 0.551743Z" fill="#353566"/>
</g>
<defs>
<clipPath id="clip0_9001_286200">
<rect width="24" height="24" fill="white"/>
</clipPath>
</defs>
</svg>
