<svg width="24" height="24" viewBox="0 0 24 24" fill="none" xmlns="http://www.w3.org/2000/svg">
<path d="M8.5 1.25C8.91421 1.25 9.25 1.58579 9.25 2V4.5C9.25 4.91421 8.91421 5.25 8.5 5.25C8.08579 5.25 7.75 4.91421 7.75 4.5V2C7.75 1.58579 8.08579 1.25 8.5 1.25Z" fill="#353566"/>
<path d="M8.5 8.75C8.91421 8.75 9.25 9.08579 9.25 9.5C9.25 9.91421 8.91421 10.25 8.5 10.25C7.80964 10.25 7.25 10.8096 7.25 11.5C7.25 11.9142 6.91421 12.25 6.5 12.25C6.08579 12.25 5.75 11.9142 5.75 11.5C5.75 9.98122 6.98122 8.75 8.5 8.75Z" fill="#353566"/>
<path fill-rule="evenodd" clip-rule="evenodd" d="M8.5 6.25C10.6432 6.25 12.4864 7.53417 13.3022 9.37502L19.0268 9.37501C19.7041 9.37501 20.2505 9.375 20.6929 9.41115C21.1484 9.44837 21.5486 9.527 21.9187 9.71562C22.5067 10.0152 22.9848 10.4933 23.2844 11.0813C23.473 11.4515 23.5517 11.8516 23.5889 12.3071C23.625 12.7495 23.625 13.2959 23.625 13.9732V16.0268C23.625 16.7041 23.625 17.2505 23.5889 17.6929C23.5517 18.1484 23.473 18.5486 23.2844 18.9187C22.9848 19.5067 22.5067 19.9848 21.9187 20.2844C21.5486 20.473 21.1484 20.5517 20.6929 20.5889C20.4202 20.6112 20.108 20.6197 19.75 20.623V22C19.75 22.4142 19.4142 22.75 19 22.75C18.5858 22.75 18.25 22.4142 18.25 22V20.625H5.75V22C5.75 22.4142 5.41421 22.75 5 22.75C4.58579 22.75 4.25 22.4142 4.25 22V20.623C3.892 20.6197 3.57982 20.6112 3.30712 20.5889C2.85159 20.5517 2.45148 20.473 2.08129 20.2844C1.49329 19.9848 1.01522 19.5067 0.715619 18.9187C0.527002 18.5486 0.448369 18.1484 0.411151 17.6929C0.375003 17.2505 0.375008 16.7041 0.375015 16.0268L0.375007 12.9421C0.374926 12.5334 0.374871 12.255 0.413489 12.0112C0.625275 10.674 1.67399 9.62527 3.01116 9.41349C3.20303 9.3831 3.41634 9.37666 3.6977 9.37533C4.51342 7.53432 6.35672 6.25 8.5 6.25ZM8.5 7.75C10.5711 7.75 12.25 9.42893 12.25 11.5C12.25 13.5711 10.5711 15.25 8.5 15.25C6.42893 15.25 4.75 13.5711 4.75 11.5C4.75 9.42893 6.42893 7.75 8.5 7.75ZM19 14C18.4477 14 18 14.4477 18 15C18 15.5523 18.4477 16 19 16C19.5523 16 20.0001 15.5523 20.0001 15C20.0001 14.4477 19.5523 14 19 14ZM15 15C15 14.4477 15.4477 14 16 14C16.5523 14 17.0001 14.4477 17.0001 15C17.0001 15.5523 16.5524 16 16.0001 16C15.4478 16 15 15.5523 15 15Z" fill="#353566"/>
<path d="M15.1241 4.41598C15.3539 4.07134 15.2608 3.60568 14.9161 3.37592C14.5715 3.14616 14.1058 3.23929 13.876 3.58393L12.876 5.08393C12.6463 5.42858 12.7394 5.89423 13.0841 6.124C13.4287 6.35376 13.8944 6.26063 14.1241 5.91598L15.1241 4.41598Z" fill="#353566"/>
<path d="M2.08402 3.37592C1.73937 3.60568 1.64624 4.07134 1.876 4.41598L2.876 5.91598C3.10577 6.26063 3.57142 6.35376 3.91607 6.124C4.26071 5.89423 4.35384 5.42858 4.12408 5.08393L3.12408 3.58393C2.89432 3.23929 2.42866 3.14616 2.08402 3.37592Z" fill="#353566"/>
</svg>
