<svg width="24" height="24" viewBox="0 0 24 24" fill="none" xmlns="http://www.w3.org/2000/svg">
<path d="M8.5 7.5C7.94772 7.5 7.5 7.94772 7.5 8.5V10.5C7.5 11.0523 7.94772 11.5 8.5 11.5H15.5C16.0523 11.5 16.5 11.0523 16.5 10.5V8.5C16.5 7.94772 16.0523 7.5 15.5 7.5H8.5Z" fill="#353566"/>
<path d="M8.125 13.5C8.125 13.0168 8.51675 12.625 9 12.625C9.48325 12.625 9.8751 13.0168 9.8751 13.5C9.8751 13.9832 9.48335 14.375 9.0001 14.375C8.51685 14.375 8.125 13.9832 8.125 13.5Z" fill="#353566"/>
<path d="M12 12.625C11.5168 12.625 11.125 13.0168 11.125 13.5C11.125 13.9832 11.5168 14.375 12 14.375C12.4832 14.375 12.8751 13.9832 12.8751 13.5C12.8751 13.0168 12.4832 12.625 12 12.625Z" fill="#353566"/>
<path d="M14.125 13.5C14.125 13.0168 14.5168 12.625 15 12.625C15.4832 12.625 15.8751 13.0168 15.8751 13.5C15.8751 13.9832 15.4833 14.375 15.0001 14.375C14.5169 14.375 14.125 13.9832 14.125 13.5Z" fill="#353566"/>
<path d="M9 15.125C8.51675 15.125 8.125 15.5168 8.125 16C8.125 16.4832 8.51675 16.875 9 16.875C9.48325 16.875 9.8751 16.4832 9.8751 16C9.8751 15.5168 9.48325 15.125 9 15.125Z" fill="#353566"/>
<path d="M11.125 16C11.125 15.5168 11.5168 15.125 12 15.125C12.4832 15.125 12.8751 15.5168 12.8751 16C12.8751 16.4832 12.4833 16.875 12.0001 16.875C11.5169 16.875 11.125 16.4832 11.125 16Z" fill="#353566"/>
<path d="M15 15.125C14.5168 15.125 14.125 15.5168 14.125 16C14.125 16.4832 14.5168 16.875 15 16.875C15.4832 16.875 15.8751 16.4832 15.8751 16C15.8751 15.5168 15.4832 15.125 15 15.125Z" fill="#353566"/>
<path fill-rule="evenodd" clip-rule="evenodd" d="M17.6681 4.34463L16.9721 1.73467C16.7387 0.859168 15.9458 0.25 15.0397 0.25H8.96036C8.05426 0.25 7.26136 0.859168 7.02789 1.73468L6.33191 4.3446C5.64145 4.75412 5.07935 5.35197 4.71322 6.07054C4.45963 6.56824 4.35165 7.11012 4.30018 7.74013C4.24999 8.3544 4.24999 9.11494 4.25 10.0674V13.9326C4.24999 14.8851 4.24999 15.6456 4.30018 16.2599C4.35165 16.8899 4.45963 17.4318 4.71322 17.9295C5.07935 18.648 5.64145 19.2459 6.33191 19.6554L7.02789 22.2653C7.26136 23.1408 8.05426 23.75 8.96036 23.75H15.0397C15.9458 23.75 16.7387 23.1408 16.9721 22.2653L17.6681 19.6554C18.3586 19.2459 18.9207 18.648 19.2868 17.9295C19.5404 17.4318 19.6484 16.8899 19.6998 16.2599C19.75 15.6456 19.75 14.8851 19.75 13.9326V10.0674C19.75 9.11493 19.75 8.35439 19.6998 7.74013C19.6484 7.11012 19.5404 6.56824 19.2868 6.07054C18.9207 5.35198 18.3586 4.75414 17.6681 4.34463ZM7.25153 5.54973C7.50252 5.42184 7.82503 5.33909 8.36228 5.29519C8.90829 5.25058 9.60753 5.25 10.6 5.25H13.4C14.3925 5.25 15.0917 5.25058 15.6377 5.29519C16.175 5.33909 16.4975 5.42184 16.7485 5.54973C17.2659 5.81338 17.6866 6.23408 17.9503 6.75153C18.0782 7.00252 18.1609 7.32503 18.2048 7.86228C18.2494 8.40829 18.25 9.10753 18.25 10.1V13.9C18.25 14.8925 18.2494 15.5917 18.2048 16.1377C18.1609 16.675 18.0782 16.9975 17.9503 17.2485C17.6866 17.7659 17.2659 18.1866 16.7485 18.4503C16.4975 18.5782 16.175 18.6609 15.6377 18.7048C15.0917 18.7494 14.3925 18.75 13.4 18.75H10.6C9.60753 18.75 8.90829 18.7494 8.36228 18.7048C7.82503 18.6609 7.50252 18.5782 7.25153 18.4503C6.73408 18.1866 6.31338 17.7659 6.04973 17.2485C5.92184 16.9975 5.83909 16.675 5.79519 16.1377C5.75058 15.5917 5.75 14.8925 5.75 13.9V10.1C5.75 9.10753 5.75058 8.40829 5.79519 7.86228C5.83909 7.32503 5.92184 7.00252 6.04973 6.75153C6.31338 6.23408 6.73408 5.81338 7.25153 5.54973Z" fill="#353566"/>
</svg>
