<svg width="24" height="24" viewBox="0 0 24 24" fill="none" xmlns="http://www.w3.org/2000/svg">
<path d="M11 15.5C11 14.9477 11.4477 14.5 12 14.5C12.5523 14.5 13.0001 14.9477 13.0001 15.5C13.0001 16.0523 12.5523 16.5 12 16.5C11.4477 16.5 11 16.0523 11 15.5Z" fill="#353566"/>
<path fill-rule="evenodd" clip-rule="evenodd" d="M9.2679 1.25H14.7321C15.5449 1.24999 16.2006 1.24999 16.7315 1.29336C17.2781 1.33803 17.7582 1.43239 18.2025 1.65873C18.9081 2.01825 19.4817 2.59193 19.8413 3.29754C20.0676 3.74176 20.162 4.2219 20.2066 4.76853C20.25 5.29944 20.25 5.95505 20.25 6.76788V17.2321C20.25 18.045 20.25 18.7006 20.2066 19.2315C20.162 19.7781 20.0676 20.2582 19.8413 20.7025C19.4817 21.4081 18.9081 21.9817 18.2025 22.3413C17.7582 22.5676 17.2781 22.662 16.7315 22.7066C16.2006 22.75 15.545 22.75 14.7321 22.75H9.26788C8.45505 22.75 7.79944 22.75 7.26853 22.7066C6.7219 22.662 6.24176 22.5676 5.79754 22.3413C5.09193 21.9817 4.51825 21.4081 4.15873 20.7025C3.93239 20.2582 3.83803 19.7781 3.79336 19.2315C3.74999 18.7006 3.74999 18.0449 3.75 17.2321V6.76788C3.74999 5.95505 3.74999 5.29944 3.79336 4.76853C3.83803 4.2219 3.93239 3.74176 4.15873 3.29754C4.51825 2.59193 5.09193 2.01825 5.79754 1.65873C6.24176 1.43239 6.7219 1.33803 7.26853 1.29336C7.79944 1.24999 8.45506 1.24999 9.2679 1.25ZM10.25 6.5C10.25 5.5335 11.0335 4.75 12 4.75C12.9665 4.75 13.75 5.5335 13.75 6.5C13.75 7.4665 12.9665 8.25 12 8.25C11.0335 8.25 10.25 7.4665 10.25 6.5ZM12 11C9.51472 11 7.5 13.0147 7.5 15.5C7.5 17.9853 9.51472 20 12 20C14.4853 20 16.5 17.9853 16.5 15.5C16.5 13.0147 14.4853 11 12 11Z" fill="#353566"/>
</svg>
