<svg width="24" height="24" viewBox="0 0 24 24" fill="none" xmlns="http://www.w3.org/2000/svg">
<path d="M16.1948 12.9026C16.2666 13.0064 16.2321 13.1518 16.1185 13.2067L12.8815 14.7716L16.8965 21.6207C17.1059 21.9781 16.9861 22.4375 16.6287 22.647C16.2714 22.8565 15.8119 22.7366 15.6024 22.3793L11.9994 16.233L8.39647 22.3793C8.187 22.7366 7.7275 22.8565 7.37016 22.647C7.01282 22.4375 6.89295 21.9781 7.10243 21.6207L10.4198 15.9617L7.04634 17.5925C6.44322 17.8841 5.73541 17.7367 5.2963 17.2653L3.45267 18.3297C2.73523 18.7439 1.81783 18.4981 1.40363 17.7806L0.703643 16.5682C0.289444 15.8507 0.535261 14.9334 1.25269 14.5191L3.09481 13.4556C2.90046 12.8328 3.13165 12.1367 3.69619 11.7609L12.0796 6.18144C12.1871 6.1099 12.3333 6.1575 12.3852 6.27572C12.4064 6.32393 12.4277 6.37024 12.4488 6.41464C12.5902 6.71335 12.7806 7.04337 12.9628 7.35921L12.9688 7.36964L12.9898 7.40564L15.6078 11.9406L15.6288 11.9766L15.6492 12.012C15.827 12.3192 16.0118 12.6388 16.1948 12.9026Z" fill="#353566"/>
<path d="M17.7355 12.425C17.6229 12.3144 17.5237 12.1883 17.4288 12.0506C17.2769 11.8306 17.1132 11.5473 16.9158 11.2056L14.2649 6.61336C14.075 6.28373 13.917 6.00944 13.8058 5.77464C13.7103 5.57332 13.6366 5.37574 13.6029 5.16763C13.594 5.11282 13.5886 5.0568 13.5857 5.00022C13.5637 4.57815 13.6759 4.15997 13.9064 3.80568C14.055 3.5772 14.2544 3.4054 14.4867 3.24509C14.7103 3.09074 14.9984 2.9248 15.3475 2.72373L16.2428 2.20805C16.5912 2.00735 16.8788 1.8417 17.1241 1.72589C17.3789 1.6056 17.6272 1.5194 17.899 1.50535C18.3205 1.48357 18.7381 1.59569 19.092 1.82568C19.3202 1.97398 19.4919 2.17293 19.6522 2.40467C19.743 2.53588 19.8377 2.68933 19.9413 2.86431C20.011 2.98219 20.0847 3.10977 20.1638 3.24675L22.8147 7.83893C23.0046 8.16855 23.1626 8.44285 23.2738 8.67764C23.3948 8.93264 23.4808 9.18064 23.4948 9.45364C23.5168 9.87564 23.4048 10.2936 23.1748 10.6476H23.1728C23.0248 10.8756 22.8248 11.0476 22.5928 11.2086C22.3688 11.3626 22.0818 11.5286 21.7328 11.7296L20.8378 12.2456C20.4898 12.4466 20.2018 12.6126 19.9568 12.7286C19.7018 12.8486 19.4538 12.9356 19.1818 12.9496C18.7598 12.9716 18.3428 12.8596 17.9888 12.6296C17.9259 12.5888 17.8673 12.5441 17.812 12.4959C17.7858 12.473 17.7603 12.4494 17.7355 12.425Z" fill="#353566"/>
</svg>
