<svg width="24" height="24" viewBox="0 0 24 24" fill="none" xmlns="http://www.w3.org/2000/svg">
<path d="M5.7679 2.25H17.2321C18.0449 2.24999 18.7006 2.24999 19.2315 2.29336C19.7781 2.33803 20.2582 2.43239 20.7025 2.65873C21.3969 3.01253 21.9635 3.57373 22.324 4.26397C22.4664 4.53668 22.4278 4.86873 22.2267 5.10153C22.0255 5.33433 21.7026 5.42066 21.4121 5.3193C21.284 5.27462 21.1457 5.25 21 5.25H14.5C12.7051 5.25 11.25 6.70508 11.25 8.5V18C11.25 18.4142 10.9142 18.75 10.5 18.75H5.76788C4.95505 18.75 4.29944 18.75 3.76853 18.7066C3.2219 18.662 2.74176 18.5676 2.29754 18.3413C1.59193 17.9817 1.01825 17.4081 0.658727 16.7025C0.432386 16.2582 0.338026 15.7781 0.293364 15.2315C0.249988 14.7006 0.249993 14.045 0.25 13.2321V7.7679C0.249993 6.95507 0.249988 6.29944 0.293364 5.76853C0.338026 5.2219 0.432386 4.74176 0.658726 4.29754C1.01825 3.59193 1.59193 3.01825 2.29754 2.65873C2.74176 2.43239 3.2219 2.33803 3.76853 2.29336C4.29944 2.24999 4.95507 2.24999 5.7679 2.25Z" fill="#353566"/>
<path d="M6 20.25C5.58579 20.25 5.25 20.5858 5.25 21C5.25 21.4142 5.58579 21.75 6 21.75H10.5C10.9142 21.75 11.25 21.4142 11.25 21C11.25 20.5858 10.9142 20.25 10.5 20.25H6Z" fill="#353566"/>
<path fill-rule="evenodd" clip-rule="evenodd" d="M18 14.25C17.0335 14.25 16.25 15.0335 16.25 16C16.25 16.9665 17.0335 17.75 18 17.75C18.9665 17.75 19.75 16.9665 19.75 16C19.75 15.0335 18.9665 14.25 18 14.25ZM17.25 16C17.25 15.5858 17.5858 15.25 18 15.25C18.4142 15.25 18.7501 15.5858 18.7501 16C18.7501 16.4142 18.4143 16.75 18.0001 16.75C17.5859 16.75 17.25 16.4142 17.25 16Z" fill="#353566"/>
<path fill-rule="evenodd" clip-rule="evenodd" d="M15.7702 6.25H20.2298C20.6944 6.24999 21.0879 6.24998 21.4105 6.27633C21.7487 6.30397 22.0745 6.36426 22.385 6.52248C22.8554 6.76217 23.2378 7.14462 23.4775 7.61502C23.6357 7.92555 23.696 8.25133 23.7237 8.58953C23.75 8.91211 23.75 9.30557 23.75 9.77027V18.2297C23.75 18.6944 23.75 19.0879 23.7237 19.4105C23.696 19.7487 23.6357 20.0745 23.4775 20.385C23.2378 20.8554 22.8554 21.2378 22.385 21.4775C22.0745 21.6357 21.7487 21.696 21.4105 21.7237C21.0879 21.75 20.6945 21.75 20.2298 21.75H15.7702C15.3055 21.75 14.9121 21.75 14.5895 21.7237C14.2513 21.696 13.9255 21.6357 13.615 21.4775C13.1446 21.2378 12.7622 20.8554 12.5225 20.385C12.3643 20.0745 12.304 19.7487 12.2763 19.4105C12.25 19.0879 12.25 18.6945 12.25 18.2298V9.77024C12.25 9.30555 12.25 8.91211 12.2763 8.58953C12.304 8.25133 12.3643 7.92555 12.5225 7.61502C12.7622 7.14462 13.1446 6.76217 13.615 6.52248C13.9255 6.36426 14.2513 6.30397 14.5895 6.27633C14.9121 6.24998 15.3056 6.24999 15.7702 6.25ZM17 10C17 9.44772 17.4477 9 18 9C18.5523 9 19.0001 9.44772 19.0001 10C19.0001 10.5523 18.5524 11 18.0001 11C17.4478 11 17 10.5523 17 10ZM14.75 16C14.75 14.2051 16.2051 12.75 18 12.75C19.7949 12.75 21.25 14.2051 21.25 16C21.25 17.7949 19.7949 19.25 18 19.25C16.2051 19.25 14.75 17.7949 14.75 16Z" fill="#353566"/>
</svg>
