<svg width="24" height="24" viewBox="0 0 24 24" fill="none" xmlns="http://www.w3.org/2000/svg">
<g clip-path="url(#clip0_9001_302006)">
<path d="M1.75 11C1.75 5.89137 5.89137 1.75 11 1.75C16.1086 1.75 20.25 5.89137 20.25 11C20.25 11.0441 20.2497 11.0881 20.2491 11.132C20.2433 11.5462 20.5744 11.8866 20.9885 11.8924C21.4027 11.8982 21.7432 11.5671 21.7489 11.1529C21.7496 11.102 21.75 11.0511 21.75 11C21.75 5.06294 16.9371 0.25 11 0.25C5.06294 0.25 0.25 5.06294 0.25 11C0.25 16.9371 5.06294 21.75 11 21.75C11.6597 21.75 12.3062 21.6905 12.9341 21.5763C13.3417 21.5023 13.612 21.1118 13.5379 20.7043C13.4638 20.2968 13.0734 20.0264 12.6659 20.1005C12.126 20.1987 11.5693 20.25 11 20.25C5.89137 20.25 1.75 16.1086 1.75 11Z" fill="#353566"/>
<path fill-rule="evenodd" clip-rule="evenodd" d="M8.29167 7.33331C7.87745 7.33331 7.54167 7.6691 7.54167 8.08331C7.54167 8.49753 7.87745 8.83331 8.29167 8.83331H8.44684V13.1667H8.29169C7.87747 13.1667 7.54169 13.5025 7.54169 13.9167C7.54169 14.3309 7.87747 14.6667 8.29169 14.6667H9.12502V15.1667C9.12502 15.5119 9.40484 15.7917 9.75002 15.7917C10.0952 15.7917 10.375 15.5119 10.375 15.1667V14.6667H10.7917V15.1667C10.7917 15.5119 11.0715 15.7917 11.4167 15.7917C11.7619 15.7917 12.0417 15.5119 12.0417 15.1667V14.6667H12.25C13.4696 14.6667 14.4584 13.678 14.4584 12.4583C14.4584 11.716 14.092 11.0592 13.5303 10.6588C13.7229 10.3311 13.8333 9.94926 13.8333 9.54166C13.8333 8.46447 13.0621 7.56742 12.0417 7.37257V6.83337C12.0417 6.48819 11.7619 6.20837 11.4167 6.20837C11.0715 6.20837 10.7917 6.48819 10.7917 6.83337V7.33331H10.375V6.83333C10.375 6.48816 10.0952 6.20833 9.75002 6.20833C9.40484 6.20833 9.12502 6.48816 9.12502 6.83333V7.33331H8.29167ZM9.94684 13.1667H12.25C12.6412 13.1667 12.9584 12.8496 12.9584 12.4583C12.9584 12.0671 12.6412 11.75 12.25 11.75H9.94684V13.1667ZM9.94684 10.25H11.625C12.0162 10.25 12.3333 9.93286 12.3333 9.54166C12.3333 9.15045 12.0162 8.83331 11.625 8.83331H9.94684V10.25Z" fill="#353566"/>
<path fill-rule="evenodd" clip-rule="evenodd" d="M16.5241 15.67C16.5241 14.1627 17.8688 13.0867 19.3366 13.0867C20.8044 13.0867 22.1491 14.1627 22.1491 15.67V16.5633C23.0641 16.747 23.7533 17.5551 23.7533 18.5242V21.7533C23.7533 22.8579 22.8578 23.7533 21.7533 23.7533H16.9199C15.8154 23.7533 14.9199 22.8579 14.9199 21.7533V18.5242C14.9199 17.5551 15.6091 16.747 16.5241 16.5633V15.67ZM18.0241 16.5242H20.6491V15.67C20.6491 15.1523 20.1469 14.5867 19.3366 14.5867C18.5262 14.5867 18.0241 15.1523 18.0241 15.67V16.5242ZM16.9199 18.0242C16.6438 18.0242 16.4199 18.248 16.4199 18.5242V21.7533C16.4199 22.0295 16.6438 22.2533 16.9199 22.2533H21.7533C22.0294 22.2533 22.2533 22.0295 22.2533 21.7533V18.5242C22.2533 18.248 22.0294 18.0242 21.7533 18.0242H16.9199Z" fill="#353566"/>
</g>
<defs>
<clipPath id="clip0_9001_302006">
<rect width="24" height="24" fill="white"/>
</clipPath>
</defs>
</svg>
