<svg width="24" height="24" viewBox="0 0 24 24" fill="none" xmlns="http://www.w3.org/2000/svg">
<g clip-path="url(#clip0_9001_301426)">
<path d="M11 1.74988C5.89137 1.74988 1.75 5.89124 1.75 10.9999C1.75 16.1085 5.89137 20.2499 11 20.2499C11.2149 20.2499 11.428 20.2426 11.639 20.2282C12.0523 20.2 12.4101 20.5122 12.4383 20.9254C12.4664 21.3387 12.1543 21.6965 11.741 21.7247C11.4961 21.7414 11.249 21.7499 11 21.7499C5.06294 21.7499 0.25 16.9369 0.25 10.9999C0.25 5.06282 5.06294 0.249878 11 0.249878C16.9298 0.249878 21.7381 5.05097 21.75 10.978C21.7508 11.3922 21.4157 11.7287 21.0015 11.7295C20.5873 11.7303 20.2508 11.3952 20.25 10.981C20.2398 5.88106 16.1023 1.74988 11 1.74988Z" fill="#353566"/>
<path d="M11 6.08322C11.4142 6.08322 11.75 6.41901 11.75 6.83322V7.1845C11.941 7.21921 12.1282 7.27137 12.3182 7.34672C12.7289 7.50963 13.1077 7.76385 13.5361 8.08823C13.8663 8.33828 13.9313 8.80868 13.6813 9.13891C13.4312 9.46914 12.9608 9.53413 12.6306 9.28408C12.2256 8.97746 11.9794 8.82604 11.7652 8.74106C11.5684 8.66302 11.3573 8.62488 11 8.62488C10.4815 8.62488 10.1299 8.74768 9.9295 8.89283C9.75155 9.02171 9.66667 9.1814 9.66667 9.40129C9.66667 9.66133 9.77009 9.80567 10.0122 9.94119C10.3017 10.1032 10.7019 10.1898 11.1233 10.2601C11.5352 10.3287 12.1767 10.4452 12.7205 10.7497C13.3118 11.0806 13.8333 11.6662 13.8333 12.5985C13.8333 13.319 13.5016 13.9226 12.9503 14.3218C12.6072 14.5703 12.1962 14.7292 11.75 14.8101V15.1665C11.75 15.5808 11.4142 15.9165 11 15.9165C10.5858 15.9165 10.25 15.5808 10.25 15.1665V14.8152C10.059 14.7805 9.8718 14.7284 9.6818 14.653C9.27108 14.4901 8.8923 14.2359 8.46391 13.9115C8.13369 13.6614 8.06869 13.191 8.31874 12.8608C8.56879 12.5306 9.0392 12.4656 9.36942 12.7156C9.77437 13.0223 10.0206 13.1737 10.2349 13.2587C10.4316 13.3367 10.6427 13.3749 11 13.3749C11.5185 13.3749 11.8701 13.2521 12.0705 13.1069C12.2485 12.978 12.3333 12.8184 12.3333 12.5985C12.3333 12.3384 12.2299 12.1941 11.9878 12.0586C11.6984 11.8965 11.2981 11.8099 10.8767 11.7397C10.4648 11.671 9.82335 11.5545 9.27949 11.2501C8.68824 10.9191 8.16667 10.3336 8.16667 9.40129C8.16667 8.68071 8.49845 8.07719 9.04966 7.67798C9.39276 7.42949 9.80379 7.2706 10.25 7.18965V6.83322C10.25 6.41901 10.5858 6.08322 11 6.08322Z" fill="#353566"/>
<path fill-rule="evenodd" clip-rule="evenodd" d="M15.2115 16.2949C14.0379 16.2949 13.0865 17.2463 13.0865 18.4199C13.0865 19.5935 14.0379 20.5449 15.2115 20.5449C15.6881 20.5449 16.1279 20.3881 16.4824 20.1232L19.5037 21.6338C19.5067 22.8049 20.4569 23.7533 21.6287 23.7533C22.8023 23.7533 23.7537 22.8019 23.7537 21.6283C23.7537 20.4547 22.8023 19.5033 21.6287 19.5033C20.9941 19.5033 20.4245 19.7815 20.0351 20.2225L17.2927 18.8513C17.3215 18.712 17.3365 18.5677 17.3365 18.4199C17.3365 18.2721 17.3215 18.1278 17.2927 17.9885L20.0351 16.6173C20.4245 17.0584 20.9941 17.3365 21.6287 17.3365C22.8023 17.3365 23.7537 16.3852 23.7537 15.2115C23.7537 14.0379 22.8023 13.0865 21.6287 13.0865C20.4569 13.0865 19.5067 14.0349 19.5037 15.206L16.4824 16.7166C16.1279 16.4518 15.6881 16.2949 15.2115 16.2949ZM14.5865 18.4199C14.5865 18.0747 14.8664 17.7949 15.2115 17.7949C15.5567 17.7949 15.8365 18.0747 15.8365 18.4199C15.8365 18.7651 15.5567 19.0449 15.2115 19.0449C14.8664 19.0449 14.5865 18.7651 14.5865 18.4199ZM21.6287 14.5865C21.2835 14.5865 21.0037 14.8664 21.0037 15.2115C21.0037 15.5567 21.2835 15.8365 21.6287 15.8365C21.9738 15.8365 22.2537 15.5567 22.2537 15.2115C22.2537 14.8664 21.9738 14.5865 21.6287 14.5865ZM21.0037 21.6283C21.0037 21.2831 21.2835 21.0033 21.6287 21.0033C21.9738 21.0033 22.2537 21.2831 22.2537 21.6283C22.2537 21.9735 21.9738 22.2533 21.6287 22.2533C21.2835 22.2533 21.0037 21.9735 21.0037 21.6283Z" fill="#353566"/>
</g>
<defs>
<clipPath id="clip0_9001_301426">
<rect width="24" height="24" fill="white"/>
</clipPath>
</defs>
</svg>
