<svg width="24" height="24" viewBox="0 0 24 24" fill="none" xmlns="http://www.w3.org/2000/svg">
<g clip-path="url(#clip0_9001_302091)">
<path d="M1.75 11.0002C1.75 5.89161 5.89137 1.75024 11 1.75024C16.1086 1.75024 20.25 5.89161 20.25 11.0002C20.25 11.0991 20.2484 11.1977 20.2454 11.2958C20.2324 11.7098 20.5575 12.0559 20.9715 12.0689C21.3855 12.0819 21.7317 11.7568 21.7446 11.3428C21.7482 11.229 21.75 11.1148 21.75 11.0002C21.75 5.06318 16.9371 0.250244 11 0.250244C5.06294 0.250244 0.25 5.06318 0.25 11.0002C0.25 16.9373 5.06294 21.7502 11 21.7502C11.1146 21.7502 11.2288 21.7484 11.3425 21.7449C11.7565 21.7319 12.0816 21.3858 12.0687 20.9718C12.0557 20.5577 11.7095 20.2326 11.2955 20.2456C11.1974 20.2487 11.0989 20.2502 11 20.2502C5.89137 20.2502 1.75 16.1089 1.75 11.0002Z" fill="#353566"/>
<path fill-rule="evenodd" clip-rule="evenodd" d="M14.898 10.4269L11.9298 5.50759C11.7323 5.17338 11.389 4.95853 11.0003 4.95858C10.6118 4.95863 10.2686 5.17347 10.0711 5.50759L7.10053 10.4266C6.77375 10.9678 6.79043 11.6493 7.1433 12.1738L10.0793 16.5377C10.5246 17.2506 11.4602 17.1577 11.8949 16.5715L11.9035 16.56L14.8548 12.1736C15.2076 11.6493 15.2244 10.968 14.898 10.4269ZM11.0004 6.38682L8.24606 10.9478L10.999 12.5209L13.7523 10.9477L11.0004 6.38682ZM11.5572 13.6417L12.8622 12.896L10.9989 15.6653L9.13568 12.8958L10.4409 13.6417C10.7867 13.8393 11.2113 13.8393 11.5572 13.6417Z" fill="#353566"/>
<path d="M16.8782 18.4202C16.8782 18.0751 17.1581 17.7952 17.5032 17.7952H18.4199C18.5857 17.7952 18.7446 17.8611 18.8618 17.9783C18.9791 18.0955 19.0449 18.2545 19.0449 18.4202V20.7119C19.0449 21.0571 18.7651 21.3369 18.4199 21.3369C18.0747 21.3369 17.7949 21.0571 17.7949 20.7119V19.0452H17.5032C17.1581 19.0452 16.8782 18.7654 16.8782 18.4202Z" fill="#353566"/>
<path d="M18.4199 15.4827C17.9367 15.4827 17.5449 15.8744 17.5449 16.3577C17.5449 16.8409 17.9367 17.2327 18.4199 17.2327C18.9032 17.2327 19.295 16.8409 19.295 16.3577C19.295 15.8744 18.9032 15.4827 18.4199 15.4827Z" fill="#353566"/>
<path fill-rule="evenodd" clip-rule="evenodd" d="M18.4199 13.0869C15.4744 13.0869 13.0866 15.4747 13.0866 18.4202C13.0866 21.3658 15.4744 23.7536 18.4199 23.7536C21.3655 23.7536 23.7533 21.3658 23.7533 18.4202C23.7533 15.4747 21.3655 13.0869 18.4199 13.0869ZM14.5866 18.4202C14.5866 16.3032 16.3029 14.5869 18.4199 14.5869C20.537 14.5869 22.2533 16.3032 22.2533 18.4202C22.2533 20.5373 20.537 22.2536 18.4199 22.2536C16.3029 22.2536 14.5866 20.5373 14.5866 18.4202Z" fill="#353566"/>
</g>
<defs>
<clipPath id="clip0_9001_302091">
<rect width="24" height="24" fill="white"/>
</clipPath>
</defs>
</svg>
