<svg width="24" height="24" viewBox="0 0 24 24" fill="none" xmlns="http://www.w3.org/2000/svg">
<g clip-path="url(#clip0_9001_301831)">
<path d="M1.75 11C1.75 5.89137 5.89137 1.75 11 1.75C16.1086 1.75 20.25 5.89137 20.25 11C20.25 11.0263 20.2499 11.0526 20.2497 11.0788C20.2462 11.493 20.5792 11.8316 20.9934 11.835C21.4076 11.8385 21.7462 11.5055 21.7496 11.0913C21.7499 11.0609 21.75 11.0305 21.75 11C21.75 5.06294 16.9371 0.25 11 0.25C5.06294 0.25 0.25 5.06294 0.25 11C0.25 16.9371 5.06294 21.75 11 21.75C11.8531 21.75 12.684 21.6505 13.4812 21.4621C13.8843 21.3668 14.1339 20.9628 14.0386 20.5597C13.9433 20.1566 13.5393 19.907 13.1362 20.0023C12.4512 20.1642 11.7361 20.25 11 20.25C5.89137 20.25 1.75 16.1086 1.75 11Z" fill="#353566"/>
<path d="M12.0829 6.17188C11.2222 5.98012 10.3341 6.09071 9.53617 6.48189C8.74068 6.87187 8.08029 7.51754 7.62357 8.31942C7.49944 8.53736 7.39147 8.76318 7.30005 8.99677H6.25C5.83579 8.99677 5.5 9.33255 5.5 9.74677C5.5 10.161 5.83579 10.4968 6.25 10.4968H6.95231C6.9381 10.6564 6.9302 10.8188 6.9287 10.9839L6.92861 10.9941L6.92859 10.997L6.92859 10.9987L6.92859 11.0021C6.92875 11.1676 6.93624 11.3327 6.95094 11.4968H6.25C5.83579 11.4968 5.5 11.8326 5.5 12.2468C5.5 12.661 5.83579 12.9968 6.25 12.9968H7.30128C7.39252 13.2305 7.50014 13.457 7.62373 13.6739C8.08045 14.4758 8.74084 15.1215 9.53633 15.5115C10.3343 15.9026 11.2223 16.0132 12.083 15.8215C12.9419 15.6301 13.7153 15.1511 14.314 14.4667C14.5867 14.155 14.5551 13.6811 14.2433 13.4084C13.9316 13.1357 13.4577 13.1673 13.185 13.4791C12.7791 13.9431 12.2795 14.2409 11.7568 14.3574C11.236 14.4734 10.6953 14.4091 10.1966 14.1646C9.7149 13.9284 9.28366 13.529 8.96523 12.9968H11.2495C11.6637 12.9968 11.9995 12.661 11.9995 12.2468C11.9995 11.8326 11.6637 11.4968 11.2495 11.4968H8.45916C8.43915 11.3341 8.42882 11.1689 8.42859 11.0023C8.43001 10.828 8.4407 10.6596 8.46027 10.4968H11.2495C11.6637 10.4968 11.9995 10.161 11.9995 9.74677C11.9995 9.33255 11.6637 8.99677 11.2495 8.99677H8.96494C9.28338 8.46448 9.71468 8.06494 10.1965 7.82875C10.6952 7.58426 11.2358 7.51994 11.7567 7.63598C12.2793 7.75243 12.7789 8.05022 13.1849 8.51427C13.4576 8.82602 13.9314 8.85766 14.2432 8.58493C14.5549 8.3122 14.5865 7.83838 14.3138 7.52662C13.7151 6.84225 12.9418 6.36323 12.0829 6.17188Z" fill="#353566"/>
<path fill-rule="evenodd" clip-rule="evenodd" d="M20.9416 14.2957C20.9416 13.2119 19.5771 12.735 18.901 13.5801L15.2343 18.1629C14.6338 18.9135 15.1691 20.0241 16.1291 20.0241H17.7333V22.5443C17.7333 23.6281 19.0978 24.105 19.7739 23.2599L23.4405 18.6771C24.0411 17.9265 23.5058 16.8159 22.5457 16.8159H20.9416V14.2957ZM16.6063 18.6491L19.5666 14.9491V17.0453C19.5666 17.6784 20.0799 18.1909 20.7124 18.1909H22.0686L19.1083 21.8909V19.7947C19.1083 19.1616 18.5949 18.6491 17.9624 18.6491H16.6063Z" fill="#353566"/>
</g>
<defs>
<clipPath id="clip0_9001_301831">
<rect width="24" height="24" fill="white"/>
</clipPath>
</defs>
</svg>
