<svg width="24" height="24" viewBox="0 0 24 24" fill="none" xmlns="http://www.w3.org/2000/svg">
<g opacity="0.4">
<path d="M18.4675 1.47321C18.7585 1.17838 19.2333 1.17521 19.5282 1.46615C21.5187 3.43034 22.7495 6.07782 22.7495 8.99907C22.7495 11.6563 21.7308 14.0885 20.0473 15.9848C19.7723 16.2946 19.2983 16.3228 18.9885 16.0478C18.6788 15.7728 18.6506 15.2988 18.9256 14.989C20.3845 13.3456 21.2495 11.2615 21.2495 8.99907C21.2495 6.51346 20.2049 4.24127 18.4746 2.53385C18.1798 2.24291 18.1766 1.76805 18.4675 1.47321Z" fill="#353566"/>
<path d="M4.05649 3.01687C4.40108 3.24672 4.4941 3.71239 4.26425 4.05698C3.30093 5.50121 2.74951 7.19222 2.74951 8.99907C2.74951 11.4855 3.79481 13.7584 5.52617 15.466C5.82108 15.7569 5.82435 16.2317 5.53349 16.5267C5.24263 16.8216 4.76776 16.8248 4.47286 16.534C2.48115 14.5696 1.24951 11.9213 1.24951 8.99907C1.24951 6.87974 1.89789 4.90147 3.01638 3.22463C3.24623 2.88004 3.7119 2.78702 4.05649 3.01687Z" fill="#353566"/>
<path d="M15.4565 4.97755C15.7451 4.68037 16.2199 4.67336 16.5171 4.9619C17.5804 5.99429 18.2446 7.42044 18.2446 9C18.2446 10.4333 17.6974 11.7414 16.8007 12.7428C16.5244 13.0514 16.0502 13.0775 15.7417 12.8012C15.4331 12.5249 15.4069 12.0507 15.6833 11.7422C16.3485 10.9993 16.7446 10.0423 16.7446 9C16.7446 7.8525 16.2642 6.80706 15.4722 6.0381C15.175 5.74956 15.168 5.27473 15.4565 4.97755Z" fill="#353566"/>
<path d="M7.27808 6.28095C7.65303 6.45696 7.81431 6.90361 7.6383 7.27857C7.39143 7.80444 7.25439 8.3864 7.25439 9C7.25439 10.1475 7.73484 11.1929 8.52684 11.9619C8.82403 12.2504 8.83103 12.7253 8.54249 13.0224C8.25395 13.3196 7.77913 13.3266 7.48195 13.0381C6.41864 12.0057 5.75439 10.5796 5.75439 9C5.75439 8.15999 5.94259 7.36091 6.28046 6.64116C6.45647 6.26621 6.90312 6.10493 7.27808 6.28095Z" fill="#353566"/>
</g>
<path d="M2.53033 1.46967C2.23744 1.17678 1.76256 1.17678 1.46967 1.46967C1.17678 1.76256 1.17678 2.23744 1.46967 2.53033L11.25 12.3107V22C11.25 22.4142 11.5858 22.75 12 22.75C12.4142 22.75 12.75 22.4142 12.75 22V13.8107L21.4697 22.5303C21.7626 22.8232 22.2374 22.8232 22.5303 22.5303C22.8232 22.2374 22.8232 21.7626 22.5303 21.4697L12.5335 11.4728C12.5314 11.4707 12.5293 11.4686 12.5272 11.4666L2.53033 1.46967Z" fill="#353566"/>
<path d="M11.3467 6.84651C11.5544 6.78357 11.774 6.75 12 6.75C13.2427 6.75 14.25 7.75736 14.25 9C14.25 9.22605 14.2164 9.44562 14.1535 9.65328C14.077 9.90555 13.8738 10.0992 13.6181 10.1632C13.3624 10.2273 13.0918 10.1525 12.9054 9.96606L11.034 8.0946C10.8476 7.9082 10.7727 7.63764 10.8368 7.38195C10.9009 7.12625 11.0945 6.92297 11.3467 6.84651Z" fill="#353566"/>
</svg>
