<svg width="24" height="24" viewBox="0 0 24 24" fill="none" xmlns="http://www.w3.org/2000/svg">
<path opacity="0.4" d="M3 11H21L20.1605 17.1566C19.9264 18.873 19.8094 19.7313 19.3989 20.3772C19.0371 20.9464 18.5186 21.399 17.9058 21.6805C17.2103 22 16.3441 22 14.6118 22H9.38819C7.65589 22 6.78974 22 6.09422 21.6805C5.48135 21.399 4.96287 20.9464 4.60114 20.3772C4.19063 19.7313 4.0736 18.873 3.83954 17.1566L3 11Z" fill="#353566"/>
<path fill-rule="evenodd" clip-rule="evenodd" d="M9.90963 2.28677C10.068 2.06055 10.013 1.74878 9.78674 1.59043C9.56052 1.43207 9.24875 1.48709 9.0904 1.71331L5.7397 6.50004L3.93125 6.50002C3.53356 6.4998 3.23823 6.49964 2.9824 6.56819C2.29222 6.75313 1.75313 7.29222 1.5682 7.98241C1.49965 8.23823 1.49981 8.53356 1.50002 8.93125V9.06883C1.49981 9.46653 1.49965 9.76186 1.5682 10.0177C1.71026 10.5479 2.06132 10.9889 2.52933 11.2487L3.34697 17.2448C3.46162 18.0856 3.55154 18.745 3.66542 19.2737C3.78154 19.8127 3.92959 20.2527 4.17918 20.6455C4.59258 21.296 5.18513 21.8132 5.88555 22.1349C6.30842 22.3292 6.76434 22.4164 7.31415 22.4586C7.85335 22.5 8.51888 22.5 9.36748 22.5H14.6325C15.4811 22.5 16.1467 22.5 16.6859 22.4586C17.2357 22.4164 17.6916 22.3292 18.1144 22.1349C18.8149 21.8132 19.4074 21.296 19.8208 20.6455C20.0704 20.2527 20.2185 19.8127 20.3346 19.2737C20.4485 18.745 20.5384 18.0856 20.653 17.2447L21.4707 11.2487C21.9387 10.9889 22.2897 10.5479 22.4318 10.0177C22.5004 9.76186 22.5002 9.46653 22.5 9.06884V8.93124C22.5002 8.53356 22.5004 8.23823 22.4318 7.98241C22.2469 7.29222 21.7078 6.75313 21.0176 6.56819C20.7618 6.49964 20.4664 6.4998 20.0688 6.50002L18.2603 6.50004L14.9096 1.71331C14.7512 1.48709 14.4395 1.43207 14.2133 1.59043C13.987 1.74878 13.932 2.06055 14.0904 2.28677L17.0396 6.50004H6.96035L9.90963 2.28677ZM5.99304 7.50004C5.99741 7.5001 6.00178 7.5001 6.00615 7.50004H17.9939C17.9982 7.5001 18.0026 7.5001 18.007 7.50004H20C20.4971 7.50004 20.6476 7.50434 20.7588 7.53412C21.1039 7.62659 21.3734 7.89613 21.4659 8.24122C21.4957 8.35236 21.5 8.50287 21.5 9.00004C21.5 9.49722 21.4957 9.64772 21.4659 9.75886C21.3734 10.104 21.1039 10.3735 20.7588 10.466C20.6476 10.4957 20.4971 10.5 20 10.5H4.00004C3.50286 10.5 3.35236 10.4957 3.24122 10.466C2.89613 10.3735 2.62658 10.104 2.53412 9.75886C2.50434 9.64772 2.50004 9.49722 2.50004 9.00004C2.50004 8.50287 2.50434 8.35236 2.53412 8.24122C2.62658 7.89613 2.89613 7.62659 3.24122 7.53412C3.35236 7.50434 3.50286 7.50004 4.00004 7.50004H5.99304ZM20.0688 11.5001C20.113 11.5001 20.1559 11.5001 20.1977 11.5H20.4272L19.665 17.0891C19.5469 17.9549 19.4619 18.5764 19.357 19.0631C19.2535 19.5437 19.1378 19.8559 18.9768 20.1091C18.6668 20.597 18.2224 20.9849 17.6971 21.2262C17.4244 21.3514 17.0995 21.4239 16.6093 21.4616C16.1128 21.4997 15.4856 21.5 14.6118 21.5H9.3882C8.5144 21.5 7.88717 21.4997 7.39072 21.4616C6.9005 21.4239 6.5756 21.3514 6.30295 21.2262C5.77763 20.9849 5.33322 20.597 5.02317 20.1091C4.86224 19.8559 4.74652 19.5437 4.64299 19.0631C4.53814 18.5764 4.45305 17.9549 4.33499 17.0891L3.57285 11.5H3.80232C3.84408 11.5001 3.88703 11.5001 3.93124 11.5001H20.0688Z" fill="#353566"/>
</svg>
