<svg width="24" height="24" viewBox="0 0 24 24" fill="none" xmlns="http://www.w3.org/2000/svg">
<path opacity="0.4" d="M19 10.5033V7.6C19 5.63982 19 4.65972 18.6185 3.91103C18.283 3.25247 17.7475 2.71703 17.089 2.38148C16.3403 2 15.3602 2 13.4 2L13.4 9.39201C13.4 9.82257 12.892 10.0518 12.5692 9.76693L10.3308 7.79189C10.1418 7.62512 9.85818 7.62512 9.66916 7.79189L7.43081 9.76693C7.10796 10.0518 6.6 9.82257 6.6 9.39201L6.59998 2C4.63981 2 3.65972 2 2.91103 2.38148C2.25247 2.71703 1.71703 3.25247 1.38148 3.91103C1 4.65972 1 5.63982 1 7.6V14.4C1 16.3602 1 17.3403 1.38148 18.089C1.71703 18.7475 2.25247 19.283 2.91103 19.6185C3.65972 20 4.63982 20 6.6 20H12.4651L12.2982 19.7113C11.7632 18.7862 12.0379 17.899 12.4218 16.9999C12.0379 16.1009 11.7632 15.2137 12.2982 14.2886L12.92 13.2133C13.4548 12.2883 14.3623 12.0809 15.335 11.962C15.9238 11.1807 16.5564 10.5 17.6282 10.5H18.8718C18.9153 10.5 18.958 10.5011 19 10.5033Z" fill="#353566"/>
<path fill-rule="evenodd" clip-rule="evenodd" d="M13.9 1.5C14.6378 1.50121 15.2393 1.50848 15.7395 1.54935C16.3541 1.59956 16.8594 1.70334 17.316 1.93597C18.0686 2.31947 18.6805 2.93139 19.064 3.68404C19.2967 4.14062 19.4004 4.64594 19.4507 5.26049C19.5 5.86451 19.5 6.61646 19.5 7.57754V10.5868C19.3079 10.5308 19.0998 10.5 18.8718 10.5H18.5V7.6C18.5 6.61166 18.4996 5.90047 18.454 5.34192C18.4088 4.78921 18.3219 4.43014 18.173 4.13803C17.8854 3.57354 17.4265 3.1146 16.862 2.82698C16.5699 2.67814 16.2108 2.59118 15.6581 2.54602C15.1985 2.50848 14.6356 2.50156 13.9 2.50029V9.39201C13.9 10.2531 12.8841 10.7116 12.2384 10.1418L9.99998 8.16681L7.76162 10.1418C7.11592 10.7116 6.1 10.2531 6.1 9.39201L6.09998 2.50029C5.36439 2.50156 4.80149 2.50848 4.34192 2.54602C3.78921 2.59118 3.43014 2.67814 3.13803 2.82698C2.57354 3.1146 2.1146 3.57354 1.82698 4.13803C1.67814 4.43014 1.59118 4.78921 1.54602 5.34192C1.50039 5.90047 1.5 6.61166 1.5 7.6V14.4C1.5 15.3883 1.50039 16.0995 1.54602 16.6581C1.59118 17.2108 1.67814 17.5699 1.82698 17.862C2.1146 18.4265 2.57354 18.8854 3.13803 19.173C3.43014 19.3219 3.78921 19.4088 4.34192 19.454C4.90047 19.4996 5.61166 19.5 6.6 19.5H12.1894C12.2212 19.5702 12.2573 19.6407 12.2982 19.7113L12.7542 20.5H6.57754C5.61646 20.5 4.86451 20.5 4.26049 20.4507C3.64594 20.4004 3.14062 20.2967 2.68404 20.064C1.93139 19.6805 1.31947 19.0686 0.935974 18.316C0.703335 17.8594 0.599556 17.3541 0.549345 16.7395C0.499995 16.1355 0.499997 15.3835 0.5 14.4225V7.57756C0.499997 6.61647 0.499995 5.86451 0.549345 5.26049C0.599556 4.64594 0.703335 4.14062 0.935974 3.68404C1.31947 2.93139 1.93139 2.31947 2.68404 1.93597C3.14062 1.70334 3.64594 1.59956 4.26049 1.54935C4.76064 1.50848 5.36222 1.50146 6.09998 1.50025L13.9 1.5ZM7.1 9.39201L7.09998 2.5H12.9V9.39201L10.6616 7.41697C10.2836 7.08342 9.71638 7.08342 9.33835 7.41698L7.1 9.39201Z" fill="#353566"/>
<path d="M8.5 15.5C8.5 15.7761 8.27614 16 8 16H5.50003C5.22389 16 5.00003 15.7761 5.00003 15.5C5.00003 15.2239 5.22389 15 5.50003 15H8C8.27614 15 8.5 15.2239 8.5 15.5Z" fill="#353566"/>
<path fill-rule="evenodd" clip-rule="evenodd" d="M18.25 15.25C17.2835 15.25 16.5 16.0335 16.5 17C16.5 17.9665 17.2835 18.75 18.25 18.75C19.2165 18.75 20 17.9665 20 17C20 16.0335 19.2165 15.25 18.25 15.25ZM17.5 17C17.5 16.5858 17.8358 16.25 18.25 16.25C18.6642 16.25 19 16.5858 19 17C19 17.4142 18.6642 17.75 18.25 17.75C17.8358 17.75 17.5 17.4142 17.5 17Z" fill="#353566"/>
<path fill-rule="evenodd" clip-rule="evenodd" d="M13.1845 19.212C12.8047 18.5529 13.0297 17.7096 13.6886 17.3285C13.9408 17.1827 13.9408 16.8172 13.6886 16.6714C13.0297 16.2903 12.8047 15.447 13.1845 14.7879L13.8042 13.7126C14.1844 13.0529 15.0272 12.8263 15.6866 13.2076C15.937 13.3525 16.2527 13.1723 16.2527 12.8791C16.2527 12.1183 16.8686 11.5 17.6302 11.5H18.8697C19.6314 11.5 20.2473 12.1183 20.2473 12.8792C20.2473 13.1724 20.563 13.3525 20.8134 13.2077C21.4728 12.8263 22.3156 13.053 22.6958 13.7126L23.3155 14.788C23.6954 15.4471 23.4703 16.2903 22.8114 16.6714C22.5592 16.8172 22.5592 17.1826 22.8114 17.3285C23.4703 17.7096 23.6954 18.5528 23.3155 19.2119L22.6958 20.2872C22.3156 20.9469 21.4728 21.1736 20.8134 20.7922C20.563 20.6474 20.2473 20.8275 20.2473 21.1208C20.2473 21.8816 19.6314 22.5 18.8697 22.5H17.6303C16.8686 22.5 16.2527 21.8817 16.2527 21.1208C16.2527 20.8275 15.937 20.6474 15.6866 20.7922C15.0272 21.1736 14.1844 20.9469 13.8042 20.2873L13.1845 19.212ZM14.1893 18.1942C14.0087 18.2986 13.9461 18.5308 14.0509 18.7127L14.6707 19.788C14.7752 19.9693 15.0059 20.0308 15.1859 19.9266C16.1057 19.3946 17.2527 20.0605 17.2527 21.1208C17.2527 21.3311 17.4226 21.5 17.6303 21.5H18.8697C19.0774 21.5 19.2473 21.3311 19.2473 21.1208C19.2473 20.0605 20.3943 19.3946 21.3141 19.9265C21.4941 20.0307 21.7248 19.9693 21.8293 19.7879L22.4491 18.7126C22.5539 18.5307 22.4913 18.2986 22.3107 18.1941C21.3928 17.6632 21.3928 16.3367 22.3107 15.8058C22.4913 15.7013 22.5539 15.4692 22.4491 15.2873L21.8293 14.212C21.7248 14.0306 21.4941 13.9692 21.3141 14.0733C20.3943 14.6053 19.2473 13.9395 19.2473 12.8792C19.2473 12.6689 19.0774 12.5 18.8697 12.5H17.6302C17.4226 12.5 17.2527 12.6689 17.2527 12.8791C17.2527 13.9395 16.1056 14.6052 15.186 14.0733C15.0059 13.9691 14.7752 14.0306 14.6707 14.2119L14.0509 15.2872C13.9461 15.4691 14.0087 15.7013 14.1893 15.8057C15.1073 16.3367 15.1073 17.6632 14.1893 18.1942Z" fill="#353566"/>
</svg>
