<svg width="24" height="24" viewBox="0 0 24 24" fill="none" xmlns="http://www.w3.org/2000/svg">
<g opacity="0.4">
<path d="M7.5002 9.00011C7.00014 5.00112 9.99848 1.50188 11.9973 1.00049C13.9961 1.50188 16.9945 5.00112 16.4944 9.00011H7.5002Z" fill="#353566"/>
<path d="M7.21799 14.092C7 14.5198 7 15.0799 7 16.2V19.8C7 20.9201 7 21.4802 7.21799 21.908C7.40973 22.2843 7.71569 22.5903 8.09202 22.782C8.51984 23 9.0799 23 10.2 23H13.8C14.9201 23 15.4802 23 15.908 22.782C16.2843 22.5903 16.5903 22.2843 16.782 21.908C17 21.4802 17 20.9201 17 19.8V16.2C17 15.0799 17 14.5198 16.782 14.092C16.5903 13.7157 16.2843 13.4097 15.908 13.218C15.4802 13 14.9201 13 13.8 13H10.2C9.0799 13 8.51984 13 8.09202 13.218C7.71569 13.4097 7.40973 13.7157 7.21799 14.092Z" fill="#353566"/>
</g>
<path d="M13.0001 17.5C13.2763 17.5 13.5001 17.2761 13.5001 17C13.5001 16.7239 13.2763 16.5 13.0001 16.5H11.0001C10.724 16.5 10.5001 16.7239 10.5001 17C10.5001 17.2761 10.724 17.5 11.0001 17.5H13.0001Z" fill="#353566"/>
<path fill-rule="evenodd" clip-rule="evenodd" d="M11.9961 0.500001C11.9971 0.5 11.9981 0.5 11.999 0.5H12.0002C14.4938 0.5 16.926 1.27872 18.827 2.58625C20.7265 3.89273 22.1275 5.75192 22.4827 7.92316C22.6307 8.82759 21.8723 9.5 21.0702 9.5H19.6515L15.113 12.5257L15.1544 12.5289C15.5189 12.5587 15.839 12.6216 16.1351 12.7725C16.6055 13.0122 16.988 13.3946 17.2276 13.865C17.3785 14.1612 17.4414 14.4813 17.4712 14.8457C17.5001 15.1995 17.5001 15.6365 17.5001 16.1782V19.8214C17.5001 20.3631 17.5001 20.8005 17.4712 21.1543C17.4414 21.5187 17.3785 21.8388 17.2276 22.135C16.988 22.6054 16.6055 22.9878 16.1351 23.2275C15.839 23.3784 15.5189 23.4413 15.1544 23.4711C14.8006 23.5 14.3636 23.5 13.8219 23.5H10.1787C9.63698 23.5 9.19967 23.5 8.84581 23.4711C8.48139 23.4413 8.16129 23.3784 7.86515 23.2275C7.39474 22.9878 7.01229 22.6054 6.77261 22.135C6.62171 21.8388 6.55881 21.5187 6.52903 21.1543C6.50011 20.8004 6.50012 20.3633 6.50012 19.8214V16.1786C6.50012 15.6367 6.50011 15.1996 6.52903 14.8457C6.55881 14.4813 6.62171 14.1612 6.77261 13.865C7.01229 13.3946 7.39474 13.0122 7.86515 12.7725C8.16129 12.6216 8.48139 12.5587 8.84581 12.5289L8.88712 12.5257L4.34859 9.5H2.93018C2.12803 9.5 1.36967 8.82759 1.51764 7.92316C1.87287 5.75192 3.27388 3.89273 5.17336 2.58625C7.07333 1.27942 9.50394 0.500839 11.9961 0.500001ZM5.74006 3.41017C4.00563 4.60313 2.80534 6.24589 2.50452 8.08462C2.47415 8.27026 2.62775 8.5 2.93018 8.5H6.95476C6.85681 6.57319 7.4935 4.79495 8.39361 3.41452C8.819 2.76214 9.31428 2.18246 9.83459 1.71203C8.3306 2.00737 6.91925 2.59911 5.74006 3.41017ZM7.5127 9.5C7.50395 9.50023 7.49524 9.50023 7.48657 9.5H6.15136L10.6514 12.5H13.3488L17.8488 9.5H16.5081C16.4994 9.50023 16.4907 9.50023 16.4819 9.5H7.5127ZM17.0399 8.5H21.0702C21.3726 8.5 21.5262 8.27026 21.4958 8.08462C21.195 6.24589 19.9947 4.60313 18.2603 3.41017C17.0792 2.59779 15.6652 2.00546 14.1585 1.71059C14.6793 2.18128 15.1752 2.76148 15.601 3.41452C16.5011 4.79495 17.1378 6.57319 17.0399 8.5ZM11.9973 1.52012C12.8163 1.77998 13.9067 2.64689 14.7634 3.96072C15.5809 5.21451 16.1372 6.80479 16.0383 8.5H7.95629C7.85747 6.80479 8.41373 5.21451 9.23127 3.96072C10.088 2.64689 11.1783 1.77998 11.9973 1.52012ZM13.4902 13.5C13.4971 13.5001 13.504 13.5001 13.5108 13.5H13.8001C14.3684 13.5 14.7646 13.5004 15.073 13.5256C15.3756 13.5503 15.5494 13.5964 15.6811 13.6635C15.9634 13.8073 16.1928 14.0368 16.3366 14.319C16.4037 14.4507 16.4498 14.6245 16.4745 14.9271C16.4997 15.2355 16.5001 15.6317 16.5001 16.2V19.8C16.5001 20.3683 16.4997 20.7645 16.4745 21.0729C16.4498 21.3755 16.4037 21.5493 16.3366 21.681C16.1928 21.9632 15.9634 22.1927 15.6811 22.3365C15.5494 22.4036 15.3756 22.4497 15.073 22.4744C14.7646 22.4996 14.3684 22.5 13.8001 22.5H10.2001C9.63182 22.5 9.23566 22.4996 8.92724 22.4744C8.62466 22.4497 8.45081 22.4036 8.31914 22.3365C8.03689 22.1927 7.80742 21.9632 7.66361 21.681C7.59652 21.5493 7.55043 21.3755 7.52571 21.0729C7.50051 20.7645 7.50012 20.3683 7.50012 19.8V16.2C7.50012 15.6317 7.50051 15.2355 7.52571 14.9271C7.55043 14.6245 7.59652 14.4507 7.66361 14.319C7.80742 14.0368 8.03689 13.8073 8.31914 13.6635C8.45081 13.5964 8.62466 13.5503 8.92724 13.5256C9.23566 13.5004 9.63182 13.5 10.2001 13.5H10.4893C10.4962 13.5001 10.503 13.5001 10.5099 13.5H13.4902Z" fill="#353566"/>
</svg>
