<svg width="24" height="24" viewBox="0 0 24 24" fill="none" xmlns="http://www.w3.org/2000/svg">
<path opacity="0.4" d="M14.8828 3.17302L14.0572 2.42847C13.3763 1.81446 12.3281 1.86314 11.7071 2.53759L11.5989 2.65508C10.8726 3.44387 9.6274 3.44387 8.90111 2.65508L8.79293 2.53759C8.17192 1.86314 7.12365 1.81446 6.44282 2.42846L5.61722 3.17302C5.03586 3.69731 4.14495 3.67161 3.59478 3.11467C3.00942 2.52211 2 2.93661 2 3.76955V20.2407C2 21.0736 3.00945 21.4881 3.59479 20.8955C4.14495 20.3386 5.03589 20.3128 5.61726 20.8371L6.43248 21.5723C7.11624 22.189 8.17093 22.1326 8.78508 21.4466L8.89203 21.3271C9.6165 20.5179 10.8835 20.5179 11.608 21.3271L11.7149 21.4466C12.3291 22.1326 13.3838 22.189 14.0675 21.5723L14.385 21.286C13.2803 20.8435 12.5 19.7629 12.5 18.5V17.5C12.5 16.982 12.7938 16.595 13.0895 16.2056C13.1305 16.1515 13.1716 16.0974 13.212 16.0429C13.2073 16.0237 13.2025 16.0045 13.1978 15.9854C13.0199 15.266 12.8401 14.5386 13.4393 13.9394L15.4393 11.9394C16.2086 11.1701 17.5592 11.4915 17.9145 12.4989L18.2676 13.5H18.5V3.76955C18.5 2.93661 17.4906 2.52211 16.9052 3.11467C16.3551 3.67161 15.4641 3.69731 14.8828 3.17302Z" fill="#353566"/>
<path d="M6.10796 2.05716C6.99236 1.25957 8.35407 1.3228 9.16075 2.19891L9.26893 2.3164C9.79717 2.8901 10.7028 2.8901 11.2311 2.3164L11.3392 2.19891C12.1459 1.3228 13.5076 1.25957 14.392 2.05716L15.2176 2.80171C15.6005 3.14699 16.1872 3.13006 16.5495 2.76329C17.449 1.85277 19 2.48969 19 3.76955V13.5H18.2676L18 12.7414V3.76955C18 3.38354 17.5322 3.19145 17.2609 3.46606C16.5229 4.21316 15.3278 4.24764 14.5479 3.54433L13.7223 2.79978C13.2451 2.36936 12.5102 2.40348 12.0749 2.87627L11.9667 2.99376C11.0424 3.99765 9.45762 3.99765 8.53328 2.99376L8.4251 2.87627C7.98978 2.40348 7.25494 2.36936 6.77768 2.79978L5.95208 3.54433C5.17221 4.24764 3.9771 4.21316 3.23907 3.46606C2.9678 3.19145 2.5 3.38354 2.5 3.76955V20.2407C2.5 20.6267 2.96781 20.8188 3.23907 20.5442C3.97708 19.797 5.17223 19.7625 5.95212 20.4658L6.76734 21.201C7.24551 21.6323 7.98306 21.5928 8.41255 21.1131L8.5195 20.9936C9.44271 19.9624 11.0573 19.9624 11.9805 20.9936L12.0875 21.1131C12.5169 21.5928 13.2545 21.6323 13.7327 21.201L13.9078 21.0431C14.221 21.2397 14.5732 21.3799 14.95 21.4497L14.4024 21.9436C13.513 22.7457 12.1412 22.6724 11.3424 21.7801L11.2354 21.6606C10.7097 21.0734 9.79028 21.0734 9.26455 21.6606L9.1576 21.7801C8.3588 22.6724 6.98698 22.7457 6.09762 21.9436L5.2824 21.2085C4.89954 20.8632 4.31282 20.8801 3.95052 21.2469C3.05109 22.1575 1.5 21.5206 1.5 20.2407V3.76955C1.5 2.48969 3.05104 1.85277 3.95049 2.76329C4.3128 3.13006 4.89951 3.14699 5.28236 2.80171L6.10796 2.05716Z" fill="#353566"/>
<path d="M7.75 8.5C7.75 8.22386 7.97386 8 8.25 8H12.25C12.5261 8 12.75 8.22386 12.75 8.5C12.75 8.77614 12.5261 9 12.25 9H8.25C7.97386 9 7.75 8.77614 7.75 8.5Z" fill="#353566"/>
<path d="M5.75 12C5.75 11.7239 5.97386 11.5 6.25 11.5H14.25C14.5261 11.5 14.75 11.7239 14.75 12C14.75 12.2761 14.5261 12.5 14.25 12.5H6.25C5.97386 12.5 5.75 12.2761 5.75 12Z" fill="#353566"/>
<path d="M6.75 15.5C6.75 15.2239 6.97386 15 7.25 15H13.0271C13.0336 15.3213 13.1159 15.6542 13.1978 15.9853L13.2014 16H7.25C6.97386 16 6.75 15.7761 6.75 15.5Z" fill="#353566"/>
<path d="M22 18C22.2761 18 22.5 17.7761 22.5 17.5V16.5C22.5 15.3954 21.6046 14.5 20.5 14.5H15.707L16.8535 13.3536C17.0488 13.1583 17.0488 12.8417 16.8535 12.6464C16.6582 12.4512 16.3416 12.4512 16.1464 12.6464L14.1464 14.6464C14.0034 14.7894 13.9606 15.0045 14.038 15.1913C14.1154 15.3782 14.2977 15.5 14.4999 15.5H20.5C21.0523 15.5 21.5 15.9477 21.5 16.5V17.5C21.5 17.7761 21.7239 18 22 18Z" fill="#353566"/>
<path d="M13.5 18.5V17.5C13.5 17.2239 13.7239 17 14 17C14.2761 17 14.5 17.2239 14.5 17.5V18.5C14.5 19.0523 14.9477 19.5 15.5 19.5H21.5C21.7022 19.5 21.8846 19.6218 21.9619 19.8087C22.0393 19.9955 21.9965 20.2106 21.8535 20.3536L19.8535 22.3536C19.6582 22.5488 19.3416 22.5488 19.1464 22.3535C18.9511 22.1583 18.9511 21.8417 19.1464 21.6464L20.2929 20.5H15.5C14.3954 20.5 13.5 19.6046 13.5 18.5Z" fill="#353566"/>
</svg>
