<svg width="24" height="24" viewBox="0 0 24 24" fill="none" xmlns="http://www.w3.org/2000/svg">
<path opacity="0.4" d="M15.8072 2.42847L16.6328 3.17302C17.2141 3.69731 18.1051 3.67161 18.6552 3.11467C19.2406 2.52211 20.25 2.93661 20.25 3.76955V20.2407C20.25 21.0736 19.2406 21.4881 18.6552 20.8955C18.1051 20.3386 17.2141 20.3128 16.6327 20.8371L15.8175 21.5723C15.1338 22.189 14.0791 22.1326 13.4649 21.4466L13.358 21.3271C12.6335 20.5179 11.3665 20.5179 10.642 21.3271L10.5351 21.4466C9.92093 22.1326 8.86624 22.189 8.18248 21.5723L7.36726 20.8371C6.78589 20.3128 5.89495 20.3386 5.34479 20.8955C4.75945 21.4881 3.75 21.0736 3.75 20.2407V3.76955C3.75 2.93661 4.75942 2.52211 5.34478 3.11467C5.89495 3.67161 6.78586 3.69731 7.36722 3.17302L8.19282 2.42846C8.87365 1.81446 9.92192 1.86314 10.5429 2.53759L10.6511 2.65508C11.3774 3.44387 12.6226 3.44387 13.3489 2.65508L13.4571 2.53759C14.0781 1.86314 15.1263 1.81446 15.8072 2.42847Z" fill="#353566"/>
<path d="M15.5 12C15.5 12.2761 15.2761 12.5 15 12.5H12.5V15C12.5 15.2761 12.2761 15.5 12 15.5C11.7239 15.5 11.5 15.2761 11.5 15V12.5H9C8.72386 12.5 8.5 12.2761 8.5 12C8.5 11.7239 8.72386 11.5 9 11.5H11.5V9C11.5 8.72386 11.7239 8.5 12 8.5C12.2761 8.5 12.5 8.72386 12.5 9V11.5H15C15.2761 11.5 15.5 11.7239 15.5 12Z" fill="#353566"/>
<path fill-rule="evenodd" clip-rule="evenodd" d="M7.85796 2.05716C8.74236 1.25957 10.1041 1.3228 10.9108 2.19891L11.0189 2.3164C11.5472 2.8901 12.4528 2.8901 12.9811 2.3164L13.0892 2.19891C13.8959 1.3228 15.2576 1.25957 16.142 2.05716L16.9676 2.80171C17.3505 3.14699 17.9372 3.13006 18.2995 2.76329C19.199 1.85277 20.75 2.48969 20.75 3.76955V20.2407C20.75 21.5206 19.1989 22.1575 18.2995 21.2469C17.9372 20.8801 17.3505 20.8632 16.9676 21.2084L16.1524 21.9436C15.263 22.7457 13.8912 22.6724 13.0924 21.7801L12.9854 21.6606C12.4597 21.0734 11.5403 21.0734 11.0146 21.6606L10.9076 21.7801C10.1088 22.6724 8.73698 22.7457 7.84762 21.9436L7.0324 21.2084C6.64954 20.8632 6.06282 20.8801 5.70052 21.2469C4.80109 22.1575 3.25 21.5206 3.25 20.2407V3.76955C3.25 2.48969 4.80104 1.85277 5.70049 2.76329C6.0628 3.13006 6.64951 3.14699 7.03236 2.80171L7.85796 2.05716ZM10.1751 2.87627C9.73978 2.40348 9.00494 2.36936 8.52768 2.79978L7.70208 3.54433C6.92221 4.24764 5.7271 4.21316 4.98907 3.46606C4.7178 3.19145 4.25 3.38354 4.25 3.76955V20.2407C4.25 20.6267 4.71781 20.8188 4.98907 20.5442C5.72708 19.797 6.92223 19.7625 7.70212 20.4658L8.51734 21.201C8.99551 21.6323 9.73306 21.5928 10.1625 21.1131L10.2695 20.9936C11.1927 19.9624 12.8073 19.9624 13.7305 20.9936L13.8375 21.1131C14.2669 21.5928 15.0045 21.6323 15.4827 21.201L16.2979 20.4658C17.0778 19.7625 18.2729 19.797 19.0109 20.5442C19.2822 20.8188 19.75 20.6267 19.75 20.2407V3.76955C19.75 3.38354 19.2822 3.19145 19.0109 3.46606C18.2729 4.21316 17.0778 4.24764 16.2979 3.54433L15.4723 2.79978C14.9951 2.36936 14.2602 2.40348 13.8249 2.87627L13.7167 2.99376C12.7924 3.99765 11.2076 3.99765 10.2833 2.99376L10.1751 2.87627Z" fill="#353566"/>
</svg>
