<svg width="24" height="24" viewBox="0 0 24 24" fill="none" xmlns="http://www.w3.org/2000/svg">
<g clip-path="url(#clip0_9001_291462)">
<path opacity="0.4" fill-rule="evenodd" clip-rule="evenodd" d="M12.4629 19.9572C11.1765 18.1076 11.2264 15.7128 12.3316 14.2153C13.3756 12.8007 14.9694 12.296 16.3014 12.5725C16.907 12.6995 17.4905 12.929 18.0002 13.2827C18.4842 12.9469 19.0377 12.7125 19.6933 12.5738C19.7739 12.5569 19.8546 12.5429 19.9352 12.5318C20.1845 12.2704 20.3505 12.0721 20.4839 11.8546C20.676 11.5413 20.8176 11.1998 20.9034 10.8425C21.0002 10.4394 21.0002 10.0111 21.0002 9.15452L21.0002 4.20305C21.0002 3.082 21.0002 2.52146 20.7819 2.09343C20.59 1.71693 20.2837 1.41092 19.907 1.21931C19.4787 1.00147 18.9182 1.00201 17.7971 1.00307L12.8397 1.00779C11.9853 1.0086 11.558 1.00901 11.156 1.10575C10.7996 1.19152 10.4588 1.33277 10.1462 1.52431C9.79365 1.74036 9.49143 2.04231 8.88699 2.6462L3.5118 8.01654C2.12515 9.40194 1.43182 10.0946 1.1718 10.8937C0.943077 11.5965 0.942726 12.3537 1.17079 13.0567C1.43007 13.856 2.12276 14.5493 3.50812 15.936L6.05789 18.4882C7.44332 19.875 8.13604 20.5684 8.93508 20.8284C9.63794 21.0571 10.3952 21.0575 11.0982 20.8294C11.5404 20.686 11.9502 20.4098 12.4629 19.9572ZM15.7503 7.99997C14.7838 7.99997 14.0003 7.21647 14.0003 6.24997C14.0003 5.28348 14.7838 4.49997 15.7503 4.49997C16.7168 4.49997 17.5003 5.28348 17.5003 6.24998C17.5003 7.21647 16.7168 7.99997 15.7503 7.99997Z" fill="#353566"/>
<path d="M19.0711 1.52749C18.7624 1.50256 18.3659 1.50254 17.7971 1.50308L12.8397 1.5078C11.9615 1.50863 11.6037 1.51218 11.2725 1.59189C10.967 1.66541 10.6749 1.78647 10.407 1.95065C10.1165 2.12866 9.86114 2.37924 9.2399 2.99992L3.86471 8.37026C3.16554 9.06879 2.66272 9.57171 2.29985 9.99876C1.94077 10.4213 1.74822 10.7366 1.64677 11.0484C1.45072 11.6508 1.45042 12.2999 1.64591 12.9025C1.74707 13.2143 1.93933 13.5298 2.29801 13.9527C2.66049 14.3801 3.16284 14.8835 3.86136 15.5827L7.41922 19.1439C7.87454 19.5997 8.06364 19.7869 8.2389 19.916C9.29602 20.6944 10.7364 20.695 11.7943 19.9176C11.9049 19.8363 12.0211 19.7318 12.2062 19.5515C12.2994 19.7147 12.4021 19.8748 12.5146 20.0308C12.5972 20.1455 12.6874 20.2633 12.784 20.3833C12.6368 20.5224 12.5114 20.6316 12.3865 20.7234C10.976 21.76 9.05545 21.7591 7.64597 20.7212C7.40167 20.5413 7.15586 20.2953 6.74882 19.8878L3.13804 16.2735C2.45879 15.5936 1.92735 15.0617 1.53536 14.5995C1.13655 14.1293 0.852824 13.6985 0.694706 13.211C0.434055 12.4076 0.434457 11.5422 0.695854 10.7389C0.854425 10.2517 1.13855 9.82111 1.5378 9.35124C1.93021 8.88942 2.46215 8.35797 3.14204 7.6787L8.58024 2.2454C9.13966 1.68638 9.48105 1.34522 9.8845 1.098C10.2418 0.879088 10.6312 0.717667 11.0385 0.61964C11.4986 0.508936 11.9812 0.508527 12.7721 0.507858L17.8176 0.503064C18.36 0.502543 18.7974 0.502123 19.1516 0.530738C19.5164 0.560199 19.8367 0.622872 20.1332 0.773668C20.604 1.01318 20.9869 1.3957 21.2269 1.86632C21.378 2.16262 21.4409 2.48294 21.4707 2.84763C21.4997 3.20187 21.4997 3.63935 21.4997 4.18176L21.4997 9.22133C21.4998 10.0142 21.4999 10.4981 21.3891 10.9592C21.291 11.3676 21.1292 11.758 20.9096 12.116C20.8279 12.2494 20.7358 12.3759 20.6291 12.5057C20.3198 12.4871 20.0057 12.5082 19.6928 12.5738C19.4467 12.6259 19.215 12.6914 18.996 12.7707L19.0043 12.7624C19.6272 12.1402 19.8786 11.8844 20.0572 11.5933C20.2218 11.3247 20.3432 11.032 20.4167 10.7257C20.4965 10.3936 20.4997 10.0349 20.4997 9.15453L20.4997 4.20307C20.4997 3.63427 20.4993 3.23777 20.4741 2.9291C20.4493 2.62626 20.4032 2.4523 20.336 2.32057C20.192 2.03819 19.9623 1.80869 19.6798 1.66498C19.548 1.59794 19.374 1.55196 19.0711 1.52749Z" fill="#353566"/>
<path fill-rule="evenodd" clip-rule="evenodd" d="M13.4998 6.25004C13.4998 5.0074 14.5072 4.00004 15.7498 4.00004C16.9925 4.00004 17.9998 5.0074 17.9998 6.25004C17.9998 7.49268 16.9925 8.50004 15.7498 8.50004C14.5072 8.50004 13.4998 7.49268 13.4998 6.25004ZM15.7498 5.00004C15.0595 5.00004 14.4998 5.55968 14.4998 6.25004C14.4998 6.94039 15.0595 7.50004 15.7498 7.50004C16.4402 7.50004 16.9998 6.94039 16.9998 6.25004C16.9998 5.55968 16.4402 5.00004 15.7498 5.00004Z" fill="#353566"/>
<path d="M6.64623 12.6465C6.84149 12.4512 7.15807 12.4512 7.35333 12.6465L9.35333 14.6465C9.5486 14.8417 9.5486 15.1583 9.35333 15.3536C9.15807 15.5489 8.84149 15.5489 8.64623 15.3536L6.64623 13.3536C6.45096 13.1583 6.45096 12.8417 6.64623 12.6465Z" fill="#353566"/>
<path fill-rule="evenodd" clip-rule="evenodd" d="M22.8638 14.8092C22.0488 13.7049 20.8468 13.3556 19.9019 13.5517L19.8999 13.5521C19.1657 13.7076 18.5141 14.0554 17.9998 14.6007C17.4855 14.0554 16.8338 13.7076 16.0996 13.5521L16.0977 13.5517C15.1528 13.3556 13.9507 13.7049 13.1357 14.8092C12.2954 15.9478 12.2184 17.9092 13.3259 19.4463C14.0977 20.5175 15.6663 21.9544 16.6738 22.8349C16.6929 22.8516 16.7117 22.8682 16.7305 22.8846C17.0091 23.129 17.2571 23.3465 17.5748 23.4404C17.8439 23.5199 18.1557 23.5199 18.4247 23.4404C18.7424 23.3465 18.9904 23.129 19.269 22.8846C19.2878 22.8682 19.3067 22.8516 19.3257 22.8349C20.3332 21.9543 21.9018 20.5175 22.6736 19.4463C23.7813 17.9092 23.7041 15.9477 22.8638 14.8092ZM18.3959 15.6812C18.8485 15.0935 19.3681 14.6871 20.106 14.5307C20.6638 14.4153 21.4736 14.6095 22.0592 15.403C22.6199 16.1627 22.7378 17.6467 21.8623 18.8617C21.1683 19.8248 19.6888 21.1894 18.6676 22.082C18.298 22.4051 18.2219 22.4576 18.1413 22.4814C18.0572 22.5063 17.9423 22.5063 17.8583 22.4814C17.7777 22.4576 17.7015 22.4051 17.3319 22.082C16.3107 21.1894 14.8312 19.8248 14.1373 18.8617C13.2618 17.6467 13.3796 16.1627 13.9403 15.403C14.526 14.6095 15.3357 14.4153 15.8935 14.5307C16.6315 14.6871 17.1511 15.0935 17.6036 15.6812C17.6983 15.8041 17.8446 15.8761 17.9998 15.8761C18.1549 15.8761 18.3013 15.8041 18.3959 15.6812Z" fill="#353566"/>
</g>
<defs>
<clipPath id="clip0_9001_291462">
<rect width="24" height="24" fill="white"/>
</clipPath>
</defs>
</svg>
