<svg width="24" height="24" viewBox="0 0 24 24" fill="none" xmlns="http://www.w3.org/2000/svg">
<g clip-path="url(#clip0_9001_294116)">
<path fill-rule="evenodd" clip-rule="evenodd" d="M12.7511 15.1469V13.8309L16.3906 16.3761C17.3848 17.0713 18.75 16.36 18.75 15.1469V8.8511C18.75 7.63799 17.3848 6.92676 16.3906 7.62197L12.7511 10.1671V8.8511C12.7511 7.63799 11.3859 6.92676 10.3917 7.62197L6.25 10.5184V8.09998C6.25 7.68576 5.91421 7.34998 5.5 7.34998C5.08579 7.34998 4.75 7.68576 4.75 8.09998V15.8985C4.75 16.3127 5.08579 16.6485 5.5 16.6485C5.91421 16.6485 6.25 16.3127 6.25 15.8985V13.4797L10.3917 16.3761C11.3859 17.0713 12.7511 16.36 12.7511 15.1469ZM11.2511 12.0816C11.2482 12.0266 11.2482 11.9714 11.2511 11.9164V8.85137L6.75011 11.999L11.2511 15.1467V12.0816ZM17.25 8.85137L12.7511 11.9975V12.0005L17.25 15.1467V8.85137Z" fill="#353566"/>
<path fill-rule="evenodd" clip-rule="evenodd" d="M12 0.25C5.51065 0.25 0.25 5.51065 0.25 12C0.25 18.4893 5.51065 23.75 12 23.75C18.4893 23.75 23.75 18.4893 23.75 12C23.75 5.51065 18.4893 0.25 12 0.25ZM1.75 12C1.75 6.33908 6.33908 1.75 12 1.75C17.6609 1.75 22.25 6.33908 22.25 12C22.25 17.6609 17.6609 22.25 12 22.25C6.33908 22.25 1.75 17.6609 1.75 12Z" fill="#353566"/>
</g>
<defs>
<clipPath id="clip0_9001_294116">
<rect width="24" height="24" fill="white"/>
</clipPath>
</defs>
</svg>
