<svg width="24" height="24" viewBox="0 0 24 24" fill="none" xmlns="http://www.w3.org/2000/svg">
<path fill-rule="evenodd" clip-rule="evenodd" d="M13.9547 3.19202C12.9538 1.93599 11.0452 1.93599 10.0443 3.19202L3.7431 11.0997C2.56861 12.5736 3.61812 14.7519 5.50275 14.7519H18.4962C20.3808 14.7519 21.4304 12.5736 20.2559 11.0997L13.9547 3.19202ZM11.2174 4.12681C11.6178 3.6244 12.3812 3.6244 12.7816 4.12681L19.0828 12.0345C19.4743 12.5258 19.1244 13.2519 18.4962 13.2519H5.50275C4.87454 13.2519 4.52471 12.5258 4.9162 12.0345L11.2174 4.12681Z" fill="#353566"/>
<path d="M3.99994 19.748C3.58573 19.748 3.24994 19.4123 3.24994 18.998C3.24994 18.5838 3.58573 18.248 3.99994 18.248H19.9999C20.4142 18.248 20.7499 18.5838 20.7499 18.998C20.7499 19.4123 20.4142 19.748 19.9999 19.748L3.99994 19.748Z" fill="#353566"/>
</svg>
