<svg width="24" height="24" viewBox="0 0 24 24" fill="none" xmlns="http://www.w3.org/2000/svg">
<g clip-path="url(#clip0_9001_294581)">
<path d="M12 11C11.4477 11 11 11.4477 11 12C11 12.5523 11.4477 13 12 13C12.5523 13 13.0001 12.5523 13.0001 12C13.0001 11.4477 12.5523 11 12 11Z" fill="#353566"/>
<path fill-rule="evenodd" clip-rule="evenodd" d="M18 8.75C19.7949 8.75 21.25 10.2051 21.25 12C21.25 13.7949 19.7949 15.25 18 15.25C16.2051 15.25 14.75 13.7949 14.75 12C14.75 10.2051 16.2051 8.75 18 8.75ZM19.75 12C19.75 11.0335 18.9665 10.25 18 10.25C17.0335 10.25 16.25 11.0335 16.25 12C16.25 12.9665 17.0335 13.75 18 13.75C18.9665 13.75 19.75 12.9665 19.75 12Z" fill="#353566"/>
<path fill-rule="evenodd" clip-rule="evenodd" d="M9.25 12C9.25 10.2051 7.79493 8.75 6 8.75C4.20507 8.75 2.75 10.2051 2.75 12C2.75 13.7949 4.20507 15.25 6 15.25C7.79493 15.25 9.25 13.7949 9.25 12ZM6 10.25C6.9665 10.25 7.75 11.0335 7.75 12C7.75 12.9665 6.9665 13.75 6 13.75C5.0335 13.75 4.25 12.9665 4.25 12C4.25 11.0335 5.0335 10.25 6 10.25Z" fill="#353566"/>
<path fill-rule="evenodd" clip-rule="evenodd" d="M15.25 18C15.25 19.7949 13.7949 21.25 12 21.25C10.2051 21.25 8.75 19.7949 8.75 18C8.75 16.2051 10.2051 14.75 12 14.75C13.7949 14.75 15.25 16.2051 15.25 18ZM12 19.75C12.9665 19.75 13.75 18.9665 13.75 18C13.75 17.0335 12.9665 16.25 12 16.25C11.0335 16.25 10.25 17.0335 10.25 18C10.25 18.9665 11.0335 19.75 12 19.75Z" fill="#353566"/>
<path fill-rule="evenodd" clip-rule="evenodd" d="M12 9.25C13.7949 9.25 15.25 7.79493 15.25 6C15.25 4.20507 13.7949 2.75 12 2.75C10.2051 2.75 8.75 4.20507 8.75 6C8.75 7.79493 10.2051 9.25 12 9.25ZM13.75 6C13.75 6.9665 12.9665 7.75 12 7.75C11.0335 7.75 10.25 6.9665 10.25 6C10.25 5.0335 11.0335 4.25 12 4.25C12.9665 4.25 13.75 5.0335 13.75 6Z" fill="#353566"/>
<path fill-rule="evenodd" clip-rule="evenodd" d="M23.75 12C23.75 16.401 21.3304 20.2369 17.7488 22.25H23C23.4142 22.25 23.75 22.5858 23.75 23C23.75 23.4142 23.4142 23.75 23 23.75H12C5.51065 23.75 0.25 18.4893 0.25 12C0.25 5.51065 5.51065 0.25 12 0.25C18.4893 0.25 23.75 5.51065 23.75 12ZM12 1.75C6.33908 1.75 1.75 6.33908 1.75 12C1.75 17.6609 6.33908 22.25 12 22.25C17.6609 22.25 22.25 17.6609 22.25 12C22.25 6.33908 17.6609 1.75 12 1.75Z" fill="#353566"/>
</g>
<defs>
<clipPath id="clip0_9001_294581">
<rect width="24" height="24" fill="white"/>
</clipPath>
</defs>
</svg>
