<svg width="24" height="24" viewBox="0 0 24 24" fill="none" xmlns="http://www.w3.org/2000/svg">
<g clip-path="url(#clip0_9001_294541)">
<path fill-rule="evenodd" clip-rule="evenodd" d="M1.53033 0.46967C1.23744 0.176777 0.762563 0.176777 0.46967 0.46967C0.176777 0.762563 0.176777 1.23744 0.46967 1.53033L2.01163 3.07229C1.90138 3.23071 1.80159 3.39711 1.71322 3.57054C1.45963 4.06824 1.35165 4.61012 1.30018 5.24013C1.26092 5.72063 1.25237 6.29063 1.25051 6.97197C1.25017 6.98127 1.25 6.99061 1.25 7C1.25 7.00812 1.25013 7.0162 1.25039 7.02426C1.25 7.19803 1.25 7.37895 1.25 7.56739V16.4326C1.25 16.621 1.25 16.802 1.25039 16.9757C1.25013 16.9838 1.25 16.9919 1.25 17C1.25 17.0094 1.25017 17.0187 1.25051 17.028C1.25237 17.7094 1.26092 18.2794 1.30018 18.7599C1.35165 19.3899 1.45963 19.9318 1.71322 20.4295C2.12068 21.2291 2.77085 21.8793 3.57054 22.2868C4.06824 22.5404 4.61012 22.6483 5.24013 22.6998C5.85438 22.75 6.6149 22.75 7.5673 22.75H16.4326C17.385 22.75 18.1456 22.75 18.7599 22.6998C19.3899 22.6483 19.9318 22.5404 20.4295 22.2868C20.6029 22.1984 20.7693 22.0986 20.9277 21.9884L22.4697 23.5303C22.7626 23.8232 23.2374 23.8232 23.5303 23.5303C23.8232 23.2374 23.8232 22.7626 23.5303 22.4697L1.53033 0.46967ZM19.8405 20.9012L16.75 17.8107V21.2499C17.5606 21.2492 18.1582 21.244 18.6377 21.2048C19.175 21.1609 19.4975 21.0782 19.7485 20.9503C19.7795 20.9345 19.8102 20.9181 19.8405 20.9012ZM15.25 16.3107L8.75 9.81066V21.25H15.25V16.3107ZM6.68934 7.75L7.25 8.31066V11.25H2.75V7.75H6.68934ZM5.18934 6.25L3.09884 4.1595C3.08192 4.18982 3.06554 4.2205 3.04973 4.25153C2.92184 4.50252 2.83909 4.82503 2.79519 5.36228C2.77419 5.61935 2.76295 5.91039 2.75693 6.25H5.18934ZM2.75 12.75H7.25V16.25H2.75V12.75ZM2.75693 17.75H7.25V21.2499C6.4394 21.2492 5.84176 21.244 5.36228 21.2048C4.82503 21.1609 4.50252 21.0782 4.25153 20.9503C3.73408 20.6866 3.31338 20.2659 3.04973 19.7485C2.92184 19.4975 2.83909 19.175 2.79519 18.6377C2.77419 18.3806 2.76295 18.0896 2.75693 17.75Z" fill="#353566"/>
<path fill-rule="evenodd" clip-rule="evenodd" d="M22.6998 5.24013C22.7391 5.72062 22.7476 6.29062 22.7495 6.97196C22.7498 6.98126 22.75 6.99061 22.75 7C22.75 7.00812 22.7499 7.0162 22.7496 7.02426C22.75 7.19718 22.75 7.37718 22.75 7.56461V16.4085C22.75 16.6058 22.75 16.7945 22.7496 16.9749C22.7497 16.9794 22.7498 16.9838 22.7499 16.9882C22.75 16.9922 22.75 16.9961 22.75 17C22.75 17.0097 22.7498 17.0193 22.7495 17.0289C22.7485 17.3874 22.7456 17.713 22.7377 18.0083C22.7266 18.4224 22.3819 18.749 21.9678 18.7378C21.5537 18.7267 21.2271 18.382 21.2382 17.9679C21.2401 17.8973 21.2417 17.8247 21.2431 17.75H20.9998C20.5856 17.75 20.2498 17.4142 20.2498 17C20.2498 16.5858 20.5856 16.25 20.9998 16.25H21.25V12.75H16.0153L16 12.7502C15.5858 12.7502 15.25 12.4142 15.25 12V2.75H8.75V4.00015C8.75 4.41437 8.41421 4.75015 8 4.75015C7.58579 4.75015 7.25 4.41437 7.25 4.00015V2.75009C6.7822 2.75046 6.38268 2.75233 6.03205 2.76176C5.61799 2.7729 5.27329 2.44627 5.26215 2.0322C5.25101 1.61814 5.57765 1.27344 5.99171 1.2623C6.44909 1.25 6.97896 1.25 7.59143 1.25L16.4326 1.25C17.3851 1.24999 18.1456 1.24999 18.7599 1.30018C19.3899 1.35165 19.9318 1.45963 20.4295 1.71322C21.2291 2.12068 21.8793 2.77085 22.2868 3.57054C22.5404 4.06824 22.6483 4.61012 22.6998 5.24013ZM16.75 6.25V2.7501C17.5606 2.7508 18.1582 2.75602 18.6377 2.79519C19.175 2.83909 19.4975 2.92184 19.7485 3.04973C20.2659 3.31338 20.6866 3.73408 20.9503 4.25153C21.0782 4.50252 21.1609 4.82503 21.2048 5.36228C21.2258 5.61935 21.2371 5.91039 21.2431 6.25H16.75ZM16.75 7.75H21.25V11.25H16.75V7.75Z" fill="#353566"/>
</g>
<defs>
<clipPath id="clip0_9001_294541">
<rect width="24" height="24" fill="white"/>
</clipPath>
</defs>
</svg>
