<svg width="24" height="24" viewBox="0 0 24 24" fill="none" xmlns="http://www.w3.org/2000/svg">
<g clip-path="url(#clip0_9001_294346)">
<path d="M14.633 0.25H7.367C6.27486 0.249995 5.40935 0.24999 4.71173 0.306988C3.99834 0.365274 3.39472 0.486882 2.84355 0.76772C1.94977 1.22312 1.22312 1.94978 0.76772 2.84355C0.486882 3.39472 0.365274 3.99834 0.306988 4.71173C0.24999 5.40935 0.249995 6.27485 0.25 7.36699V14.99L0.250017 14.995L0.25 15V15.0274C0.249996 15.9361 0.249993 16.6562 0.2898 17.2397C0.330466 17.8357 0.415169 18.3436 0.611572 18.8177C1.09367 19.9816 2.01837 20.9063 3.18225 21.3884C3.65641 21.5848 4.16431 21.6695 4.76032 21.7102C5.34372 21.75 6.06384 21.75 6.97245 21.75H12.5539C12.9681 21.75 13.3039 21.4142 13.3039 21C13.3039 20.5858 12.9681 20.25 12.5539 20.25H7C6.05786 20.25 5.38881 20.2496 4.86243 20.2137C4.34279 20.1782 4.0172 20.1107 3.75628 20.0026C2.95994 19.6728 2.32725 19.0401 1.99739 18.2437C1.88931 17.9828 1.82178 17.6572 1.78632 17.1376C1.75449 16.671 1.75055 16.0923 1.75007 15.3106L5.61611 11.4445C6.10427 10.9564 6.89573 10.9564 7.38388 11.4445L13.5461 17.6068C13.839 17.8997 14.3139 17.8997 14.6068 17.6068C14.8997 17.314 14.8997 16.8391 14.6068 16.5462L8.44454 10.3839C7.3706 9.30994 5.6294 9.30994 4.55545 10.3839L1.75 13.1893V7.4C1.75 6.26752 1.75058 5.46326 1.80201 4.83388C1.85271 4.21325 1.94909 3.829 2.10423 3.52453C2.41582 2.913 2.913 2.41582 3.52453 2.10423C3.829 1.94909 4.21325 1.85271 4.83388 1.80201C5.46327 1.75058 6.26752 1.75 7.4 1.75H14.6C15.7325 1.75 16.5367 1.75058 17.1661 1.80201C17.7867 1.85271 18.171 1.94909 18.4755 2.10423C19.087 2.41582 19.5842 2.913 19.8958 3.52453C20.0509 3.829 20.1473 4.21325 20.198 4.83388C20.2494 5.46326 20.25 6.26752 20.25 7.4V10.3944C20.25 10.8086 20.5858 11.1444 21 11.1444C21.4142 11.1444 21.75 10.8086 21.75 10.3944V7.36698C21.75 6.27484 21.75 5.40935 21.693 4.71173C21.6347 3.99834 21.5131 3.39472 21.2323 2.84355C20.7769 1.94978 20.0502 1.22312 19.1565 0.76772C18.6053 0.486882 18.0017 0.365274 17.2883 0.306988C16.5906 0.24999 15.7251 0.249995 14.633 0.25Z" fill="#353566"/>
<path fill-rule="evenodd" clip-rule="evenodd" d="M14.5 4.75C16.0188 4.75 17.25 5.98122 17.25 7.5C17.25 9.01878 16.0188 10.25 14.5 10.25C12.9812 10.25 11.75 9.01878 11.75 7.5C11.75 5.98122 12.9812 4.75 14.5 4.75ZM15.75 7.5C15.75 6.80964 15.1904 6.25 14.5 6.25C13.8096 6.25 13.25 6.80964 13.25 7.5C13.25 8.19036 13.8096 8.75 14.5 8.75C15.1904 8.75 15.75 8.19036 15.75 7.5Z" fill="#353566"/>
<path d="M19 20.75C17.4589 20.75 16.0804 21.8117 15.7264 23.1869C15.6231 23.5881 15.2143 23.8296 14.8131 23.7263C14.412 23.6231 14.1705 23.2142 14.2737 22.8131C14.8079 20.7379 16.8135 19.25 19 19.25C21.1865 19.25 23.1923 20.7379 23.7264 22.8131C23.8296 23.2142 23.5881 23.6231 23.187 23.7263C22.7859 23.8296 22.377 23.5881 22.2737 23.1869C21.9198 21.8117 20.5412 20.75 19 20.75Z" fill="#353566"/>
<path fill-rule="evenodd" clip-rule="evenodd" d="M19 12.25C17.3431 12.25 16 13.5931 16 15.25C16 16.9069 17.3431 18.25 19 18.25C20.6569 18.25 22 16.9069 22 15.25C22 13.5931 20.6569 12.25 19 12.25ZM17.5 15.25C17.5 14.4216 18.1716 13.75 19 13.75C19.8284 13.75 20.5 14.4216 20.5 15.25C20.5 16.0784 19.8284 16.75 19 16.75C18.1716 16.75 17.5 16.0784 17.5 15.25Z" fill="#353566"/>
</g>
<defs>
<clipPath id="clip0_9001_294346">
<rect width="24" height="24" fill="white"/>
</clipPath>
</defs>
</svg>
