<svg width="24" height="24" viewBox="0 0 24 24" fill="none" xmlns="http://www.w3.org/2000/svg">
<g clip-path="url(#clip0_9001_294321)">
<path d="M14.633 0.25H7.367C6.27486 0.249995 5.40935 0.24999 4.71173 0.306988C3.99834 0.365274 3.39472 0.486882 2.84355 0.76772C1.94977 1.22312 1.22312 1.94978 0.76772 2.84355C0.486882 3.39472 0.365274 3.99834 0.306988 4.71173C0.24999 5.40935 0.249995 6.27485 0.25 7.36699V14.99L0.250017 14.995L0.25 15V15.0274C0.249996 15.9361 0.249993 16.6562 0.2898 17.2397C0.330466 17.8357 0.415169 18.3436 0.611572 18.8177C1.09367 19.9816 2.01837 20.9063 3.18225 21.3884C3.65641 21.5848 4.16431 21.6695 4.76032 21.7102C5.34372 21.75 6.06384 21.75 6.97245 21.75H10.7923C11.2065 21.75 11.5423 21.4142 11.5423 21C11.5423 20.5858 11.2065 20.25 10.7923 20.25H7C6.05786 20.25 5.38881 20.2496 4.86243 20.2137C4.34279 20.1782 4.0172 20.1107 3.75628 20.0026C2.95994 19.6728 2.32725 19.0401 1.99739 18.2437C1.88931 17.9828 1.82178 17.6572 1.78632 17.1376C1.75449 16.671 1.75055 16.0923 1.75007 15.3106L5.61611 11.4445C6.10427 10.9564 6.89573 10.9564 7.38388 11.4445L10.6789 14.7396C10.9718 15.0325 11.4467 15.0325 11.7396 14.7396C12.0325 14.4467 12.0325 13.9718 11.7396 13.6789L8.44454 10.3839C7.3706 9.30994 5.6294 9.30994 4.55545 10.3839L1.75 13.1893V7.4C1.75 6.26752 1.75058 5.46326 1.80201 4.83388C1.85271 4.21325 1.94909 3.829 2.10423 3.52453C2.41582 2.913 2.913 2.41582 3.52453 2.10423C3.829 1.94909 4.21325 1.85271 4.83388 1.80201C5.46327 1.75058 6.26752 1.75 7.4 1.75H14.6C15.7325 1.75 16.5367 1.75058 17.1661 1.80201C17.7867 1.85271 18.171 1.94909 18.4755 2.10423C19.087 2.41582 19.5842 2.913 19.8958 3.52453C20.0509 3.829 20.1473 4.21325 20.198 4.83388C20.2494 5.46326 20.25 6.26752 20.25 7.4V10.6369C20.25 11.0511 20.5858 11.3869 21 11.3869C21.4142 11.3869 21.75 11.0511 21.75 10.6369V7.36698C21.75 6.27484 21.75 5.40935 21.693 4.71173C21.6347 3.99834 21.5131 3.39472 21.2323 2.84355C20.7769 1.94978 20.0502 1.22312 19.1565 0.76772C18.6053 0.486882 18.0017 0.365274 17.2883 0.306988C16.5906 0.24999 15.7251 0.249995 14.633 0.25Z" fill="#353566"/>
<path fill-rule="evenodd" clip-rule="evenodd" d="M14.5 4.75C16.0188 4.75 17.25 5.98122 17.25 7.5C17.25 9.01878 16.0188 10.25 14.5 10.25C12.9812 10.25 11.75 9.01878 11.75 7.5C11.75 5.98122 12.9812 4.75 14.5 4.75ZM15.75 7.5C15.75 6.80964 15.1904 6.25 14.5 6.25C13.8096 6.25 13.25 6.80964 13.25 7.5C13.25 8.19036 13.8096 8.75 14.5 8.75C15.1904 8.75 15.75 8.19036 15.75 7.5Z" fill="#353566"/>
<path fill-rule="evenodd" clip-rule="evenodd" d="M18.25 16.125C17.2145 16.125 16.375 16.9645 16.375 18C16.375 19.0355 17.2145 19.875 18.25 19.875C19.2855 19.875 20.125 19.0355 20.125 18C20.125 16.9645 19.2855 16.125 18.25 16.125ZM17.625 18C17.625 17.6548 17.9048 17.375 18.25 17.375C18.5952 17.375 18.875 17.6548 18.875 18C18.875 18.3452 18.5952 18.625 18.25 18.625C17.9048 18.625 17.625 18.3452 17.625 18Z" fill="#353566"/>
<path fill-rule="evenodd" clip-rule="evenodd" d="M12.9679 20.3368C12.5193 19.5584 12.785 18.5624 13.5634 18.1121C13.6492 18.0625 13.6492 17.9374 13.5634 17.8878C12.785 17.4375 12.5193 16.4415 12.9679 15.6631L13.5876 14.5878C14.0367 13.8085 15.0325 13.5405 15.8118 13.9912C15.8949 14.0393 16.0026 13.9805 16.0026 13.8791C16.0026 12.9806 16.7301 12.25 17.6302 12.25H18.8697C19.7699 12.25 20.4973 12.9807 20.4973 13.8792C20.4973 13.9806 20.6051 14.0393 20.6882 13.9913C21.4674 13.5406 22.4632 13.8086 22.9123 14.5878L23.5321 15.6631C23.9807 16.4416 23.715 17.4376 22.9365 17.8878C22.8508 17.9374 22.8508 18.0625 22.9365 18.1121C23.715 18.5623 23.9807 19.5583 23.5321 20.3367L22.9123 21.4121C22.4632 22.1913 21.4674 22.4593 20.6882 22.0086C20.6052 21.9606 20.4973 22.0192 20.4973 22.1208C20.4973 23.0193 19.7699 23.75 18.8697 23.75H17.6303C16.7301 23.75 16.0026 23.0193 16.0026 22.1208C16.0026 22.0193 15.8948 21.9606 15.8118 22.0086C15.0325 22.4594 14.0367 22.1913 13.5876 21.4121L12.9679 20.3368ZM14.3144 19.4106C14.2534 19.4459 14.2315 19.5253 14.2675 19.5878L14.8872 20.6631C14.9228 20.7249 15.0005 20.745 15.0607 20.7102C16.1478 20.0814 17.5026 20.8688 17.5026 22.1208C17.5026 22.1934 17.5611 22.25 17.6303 22.25H18.8697C18.9389 22.25 18.9973 22.1934 18.9973 22.1208C18.9973 20.8688 20.3521 20.0814 21.4392 20.7101C21.4995 20.745 21.5771 20.7248 21.6127 20.6631L22.2325 19.5877C22.2685 19.5252 22.2466 19.4458 22.1855 19.4105C21.1012 18.7833 21.1012 17.2165 22.1855 16.5893C22.2466 16.5541 22.2685 16.4747 22.2325 16.4121L21.6127 15.3368C21.5771 15.275 21.4995 15.2549 21.4392 15.2897C20.3521 15.9185 18.9973 15.1312 18.9973 13.8792C18.9973 13.8066 18.9389 13.75 18.8697 13.75H17.6302C17.561 13.75 17.5026 13.8066 17.5026 13.8791C17.5026 15.1312 16.1478 15.9184 15.0608 15.2897C15.0005 15.2548 14.9228 15.275 14.8872 15.3368L14.2675 16.4121C14.2315 16.4746 14.2534 16.554 14.3144 16.5893C15.3988 17.2165 15.3988 18.7834 14.3144 19.4106Z" fill="#353566"/>
</g>
<defs>
<clipPath id="clip0_9001_294321">
<rect width="24" height="24" fill="white"/>
</clipPath>
</defs>
</svg>
