<svg width="24" height="24" viewBox="0 0 24 24" fill="none" xmlns="http://www.w3.org/2000/svg">
<path fill-rule="evenodd" clip-rule="evenodd" d="M15.5 5.75C17.0188 5.75 18.25 6.98122 18.25 8.5C18.25 10.0188 17.0188 11.25 15.5 11.25C13.9812 11.25 12.75 10.0188 12.75 8.5C12.75 6.98122 13.9812 5.75 15.5 5.75ZM16.75 8.5C16.75 7.80964 16.1904 7.25 15.5 7.25C14.8096 7.25 14.25 7.80964 14.25 8.5C14.25 9.19036 14.8096 9.75 15.5 9.75C16.1904 9.75 16.75 9.19036 16.75 8.5Z" fill="#353566"/>
<path fill-rule="evenodd" clip-rule="evenodd" d="M15.633 1.25H8.367C7.27486 1.24999 6.40935 1.24999 5.71173 1.30699C4.99834 1.36527 4.39472 1.48688 3.84355 1.76772C2.94977 2.22312 2.22312 2.94978 1.76772 3.84355C1.48688 4.39472 1.36527 4.99834 1.30699 5.71173C1.24999 6.40935 1.24999 7.27485 1.25 8.36699V15.99L1.25002 15.995L1.25 16V16.0274C1.25 16.9361 1.24999 17.6562 1.2898 18.2397C1.33047 18.8357 1.41517 19.3436 1.61157 19.8177C2.09367 20.9816 3.01837 21.9063 4.18225 22.3884C4.65641 22.5848 5.16431 22.6695 5.76032 22.7102C6.34374 22.75 7.0639 22.75 7.97256 22.75H15.633C16.7252 22.75 17.5906 22.75 18.2883 22.693C19.0017 22.6347 19.6053 22.5131 20.1565 22.2323C21.0502 21.7769 21.7769 21.0502 22.2323 20.1565C22.5131 19.6053 22.6347 19.0017 22.693 18.2883C22.75 17.5906 22.75 16.7252 22.75 15.633V8.36698C22.75 7.27484 22.75 6.40935 22.693 5.71173C22.6347 4.99834 22.5131 4.39472 22.2323 3.84355C21.7769 2.94978 21.0502 2.22312 20.1565 1.76772C19.6053 1.48688 19.0017 1.36527 18.2883 1.30699C17.5906 1.24999 16.7251 1.24999 15.633 1.25ZM2.78632 18.1376C2.75448 17.671 2.75055 17.0923 2.75007 16.3106L6.61611 12.4445C7.10427 11.9564 7.89573 11.9564 8.38388 12.4445L17.1807 21.2414C16.7344 21.2498 16.2157 21.25 15.6 21.25H8C7.05786 21.25 6.38881 21.2496 5.86243 21.2137C5.34279 21.1782 5.0172 21.1107 4.75628 21.0026C3.95994 20.6728 3.32725 20.0401 2.99739 19.2437C2.88931 18.9828 2.82178 18.6572 2.78632 18.1376ZM19.4755 20.8958C19.3645 20.9523 19.243 21.001 19.1032 21.0426L9.44454 11.3839C8.3706 10.3099 6.6294 10.3099 5.55545 11.3839L2.75 14.1893V8.4C2.75 7.26752 2.75058 6.46326 2.80201 5.83388C2.85271 5.21325 2.94909 4.829 3.10423 4.52453C3.41582 3.913 3.913 3.41582 4.52453 3.10423C4.829 2.94909 5.21325 2.85271 5.83388 2.80201C6.46327 2.75058 7.26752 2.75 8.4 2.75H15.6C16.7325 2.75 17.5367 2.75058 18.1661 2.80201C18.7867 2.85271 19.171 2.94909 19.4755 3.10423C20.087 3.41582 20.5842 3.913 20.8958 4.52453C21.0509 4.829 21.1473 5.21325 21.198 5.83388C21.2494 6.46326 21.25 7.26752 21.25 8.4V15.6C21.25 16.7325 21.2494 17.5367 21.198 18.1661C21.1473 18.7867 21.0509 19.171 20.8958 19.4755C20.5842 20.087 20.087 20.5842 19.4755 20.8958Z" fill="#353566"/>
</svg>
