<svg width="24" height="24" viewBox="0 0 24 24" fill="none" xmlns="http://www.w3.org/2000/svg">
<path fill-rule="evenodd" clip-rule="evenodd" d="M1.25 7.09692C1.25 5.18897 3.40357 4.0763 4.95971 5.18024L11.692 9.95613C13.0966 10.9526 13.0966 13.0377 11.692 14.0342L4.95971 18.8101C3.40356 19.914 1.25 18.8013 1.25 16.8934V7.09692ZM4.09181 6.40365C3.52895 6.00436 2.75 6.40682 2.75 7.09692V16.8934C2.75 17.5835 3.52895 17.986 4.09181 17.5867L10.8241 12.8108C11.3859 12.4122 11.3859 11.5781 10.8241 11.1795L4.09181 6.40365Z" fill="#353566"/>
<path d="M17 4.75C17.4142 4.75 17.75 5.08579 17.75 5.5V18.5C17.75 18.9142 17.4142 19.25 17 19.25C16.5858 19.25 16.25 18.9142 16.25 18.5L16.25 5.5C16.25 5.08579 16.5858 4.75 17 4.75Z" fill="#353566"/>
<path d="M22.75 5.5C22.75 5.08579 22.4142 4.75 22 4.75C21.5858 4.75 21.25 5.08579 21.25 5.5L21.25 18.5C21.25 18.9142 21.5858 19.25 22 19.25C22.4142 19.25 22.75 18.9142 22.75 18.5V5.5Z" fill="#353566"/>
</svg>
