<svg width="24" height="24" viewBox="0 0 24 24" fill="none" xmlns="http://www.w3.org/2000/svg">
<path d="M22 3.75C22.4142 3.75 22.75 3.41421 22.75 3C22.75 2.58579 22.4142 2.25 22 2.25H2C1.58579 2.25 1.25 2.58579 1.25 3C1.25 3.41421 1.58579 3.75 2 3.75H22Z" fill="#353566"/>
<path d="M12.75 15C12.75 15.4142 12.4142 15.75 12 15.75H2C1.58579 15.75 1.25 15.4142 1.25 15C1.25 14.5858 1.58579 14.25 2 14.25H12C12.4142 14.25 12.75 14.5858 12.75 15Z" fill="#353566"/>
<path d="M12.75 21C12.75 21.4142 12.4142 21.75 12 21.75L2 21.75C1.58579 21.75 1.25 21.4142 1.25 21C1.25 20.5858 1.58579 20.25 2 20.25L12 20.25C12.4142 20.25 12.75 20.5858 12.75 21Z" fill="#353566"/>
<path d="M22.75 9C22.75 9.41421 22.4142 9.75 22 9.75L2 9.75C1.58579 9.75 1.25 9.41421 1.25 9C1.25 8.58579 1.58579 8.25 2 8.25L22 8.25C22.4142 8.25 22.75 8.58579 22.75 9Z" fill="#353566"/>
<path fill-rule="evenodd" clip-rule="evenodd" d="M18.04 13.5995C16.8859 12.7359 15.25 13.5648 15.25 14.9999V21.0001C15.25 22.4353 16.8859 23.2641 18.04 22.4005L22.0493 19.4004C22.9836 18.7013 22.9836 17.2987 22.0493 16.5996L18.04 13.5995ZM16.75 14.9999C16.75 14.7923 16.9825 14.6816 17.1413 14.8005L21.1506 17.8006C21.2831 17.8998 21.2831 18.1002 21.1506 18.1994L17.1413 21.1995C16.9825 21.3184 16.75 21.2077 16.75 21.0001V14.9999Z" fill="#353566"/>
</svg>
