<svg width="24" height="24" viewBox="0 0 24 24" fill="none" xmlns="http://www.w3.org/2000/svg">
<path d="M9.96967 0.96967C9.67678 1.26256 9.67678 1.73744 9.96967 2.03033L11.2201 3.28074C6.19996 3.67806 2.25 7.87775 2.25 13C2.25 18.3848 6.61522 22.75 12 22.75C17.3848 22.75 21.75 18.3848 21.75 13C21.75 9.61883 20.0283 6.64009 17.4172 4.89229C17.073 4.66188 16.6072 4.75414 16.3767 5.09835C16.1463 5.44257 16.2386 5.90839 16.5828 6.13881C18.7957 7.62005 20.25 10.1403 20.25 13C20.25 17.5563 16.5563 21.25 12 21.25C7.44365 21.25 3.75 17.5563 3.75 13C3.75 8.73214 6.99073 5.22119 11.1456 4.7937L9.96967 5.96967C9.67678 6.26256 9.67678 6.73744 9.96967 7.03033C10.2626 7.32322 10.7374 7.32322 11.0303 7.03033L13.5303 4.53033C13.671 4.38968 13.75 4.19891 13.75 4C13.75 3.80109 13.671 3.61032 13.5303 3.46967L11.0303 0.96967C10.7374 0.676777 10.2626 0.676777 9.96967 0.96967Z" fill="#353566"/>
<path fill-rule="evenodd" clip-rule="evenodd" d="M15 9.25C13.6193 9.25 12.5 10.3693 12.5 11.75V14.25C12.5 15.6307 13.6193 16.75 15 16.75C16.3807 16.75 17.5 15.6307 17.5 14.25V11.75C17.5 10.3693 16.3807 9.25 15 9.25ZM14 11.75C14 11.1977 14.4477 10.75 15 10.75C15.5523 10.75 16 11.1977 16 11.75V14.25C16 14.8023 15.5523 15.25 15 15.25C14.4477 15.25 14 14.8023 14 14.25V11.75Z" fill="#353566"/>
<path d="M9.90461 11.9061L11.2803 10.5303C11.4948 10.3158 11.559 9.99324 11.4429 9.71299C11.3268 9.43273 11.0533 9.25 10.75 9.25H7.25C6.83579 9.25 6.5 9.58579 6.5 10C6.5 10.4142 6.83579 10.75 7.25 10.75H8.93934L7.71967 11.9697C7.5821 12.1072 7.50914 12.285 7.50081 12.4651C7.49973 12.4884 7.49973 12.5116 7.50081 12.5349C7.50469 12.6198 7.52269 12.701 7.55251 12.7762C7.58911 12.8688 7.64483 12.9555 7.71967 13.0303C7.79272 13.1034 7.8771 13.1582 7.96714 13.1948C8.05443 13.2304 8.14993 13.25 8.25001 13.25H9.0429C9.28507 13.25 9.51778 13.3418 9.69452 13.5061C9.87532 13.7346 9.9424 13.8897 9.97027 13.9808C9.99835 14.0727 10 14.1375 10 14.25C10 14.8023 9.55229 15.25 9.00001 15.25C8.52823 15.25 8.06109 14.9548 7.92544 14.6739C7.74533 14.3009 7.29694 14.1445 6.92393 14.3246C6.55093 14.5047 6.39455 14.9531 6.57466 15.3261C7.00998 16.2277 8.07559 16.75 9.00001 16.75C10.3807 16.75 11.5 15.6307 11.5 14.25L11.5 14.2432C11.5 14.1042 11.5001 13.8542 11.4048 13.5424C11.3089 13.2288 11.1311 12.8944 10.8317 12.5265C10.8155 12.5067 10.7984 12.4877 10.7803 12.4697C10.5296 12.219 10.2304 12.028 9.90461 11.9061Z" fill="#353566"/>
</svg>
