<svg width="24" height="24" viewBox="0 0 24 24" fill="none" xmlns="http://www.w3.org/2000/svg">
<path d="M14.0303 0.96967C14.3232 1.26256 14.3232 1.73744 14.0303 2.03033L12.7799 3.28074C17.8 3.67806 21.75 7.87775 21.75 13C21.75 18.3848 17.3848 22.75 12 22.75C6.61522 22.75 2.25 18.3848 2.25 13C2.25 9.61883 3.97173 6.64009 6.58281 4.89229C6.92702 4.66188 7.39285 4.75414 7.62326 5.09835C7.85367 5.44257 7.76141 5.90839 7.41719 6.13881C5.20433 7.62005 3.75 10.1403 3.75 13C3.75 17.5563 7.44365 21.25 12 21.25C16.5563 21.25 20.25 17.5563 20.25 13C20.25 8.73214 17.0093 5.22119 12.8544 4.7937L14.0303 5.96967C14.3232 6.26256 14.3232 6.73744 14.0303 7.03033C13.7374 7.32322 13.2626 7.32322 12.9697 7.03033L10.4697 4.53033C10.329 4.38968 10.25 4.19891 10.25 4C10.25 3.80109 10.329 3.61032 10.4697 3.46967L12.9697 0.96967C13.2626 0.676777 13.7374 0.676777 14.0303 0.96967Z" fill="#353566"/>
<path fill-rule="evenodd" clip-rule="evenodd" d="M15 9.25C13.6193 9.25 12.5 10.3693 12.5 11.75V14.25C12.5 15.6307 13.6193 16.75 15 16.75C16.3807 16.75 17.5 15.6307 17.5 14.25V11.75C17.5 10.3693 16.3807 9.25 15 9.25ZM14 11.75C14 11.1977 14.4477 10.75 15 10.75C15.5523 10.75 16 11.1977 16 11.75V14.25C16 14.8023 15.5523 15.25 15 15.25C14.4477 15.25 14 14.8023 14 14.25V11.75Z" fill="#353566"/>
<path fill-rule="evenodd" clip-rule="evenodd" d="M8.98473 11.75L9.87408 10.416C10.1038 10.0714 10.0107 9.60573 9.66607 9.37596C9.32142 9.1462 8.85577 9.23933 8.626 9.58398L7.31938 11.5439C6.78907 12.3394 6.50426 13.273 6.50009 14.2287C6.50003 14.2358 6.5 14.2429 6.5 14.25C6.5 15.6307 7.61929 16.75 9 16.75C10.3807 16.75 11.5 15.6307 11.5 14.25C11.5 12.8693 10.3807 11.75 9 11.75C8.99491 11.75 8.98982 11.75 8.98473 11.75ZM8.00002 14.2561C8.00003 14.2541 8.00004 14.252 8.00004 14.25C8.00004 14.2463 8.00005 14.2426 8.00006 14.2389C8.00603 13.6917 8.45143 13.25 9 13.25C9.55228 13.25 10 13.6977 10 14.25C10 14.8023 9.55228 15.25 9 15.25C8.44975 15.25 8.0033 14.8056 8.00002 14.2561Z" fill="#353566"/>
</svg>
