<svg width="24" height="24" viewBox="0 0 24 24" fill="none" xmlns="http://www.w3.org/2000/svg">
<g clip-path="url(#clip0_9001_271092)">
<path fill-rule="evenodd" clip-rule="evenodd" d="M12.6206 0.500122H9.37935C8.97687 0.500116 8.64468 0.500111 8.37409 0.52222C8.09304 0.545182 7.83469 0.594464 7.59202 0.71811C7.2157 0.909857 6.90973 1.21582 6.71799 1.59214C6.59434 1.83481 6.54506 2.09316 6.5221 2.37421C6.49999 2.6448 6.49999 2.97698 6.5 3.37945V3.50012H4.97812C4.2966 3.50012 3.75458 3.50012 3.31729 3.53584C2.86949 3.57243 2.48765 3.64896 2.13803 3.8271C1.57354 4.11472 1.1146 4.57366 0.826981 5.13815C0.648839 5.48777 0.572308 5.86961 0.535721 6.31741C0.499993 6.75471 0.499996 7.29672 0.5 7.97824V10.1819C0.499996 10.8355 0.499993 11.3565 0.534359 11.7772C0.569583 12.2083 0.643389 12.5778 0.816082 12.9167C0.871196 13.0249 0.932818 13.129 1.00045 13.2287C1.00015 13.2358 1 13.2429 1 13.2501V15.8224C0.999997 16.7136 0.999995 17.4131 1.04594 17.9754C1.09274 18.5483 1.18971 19.0227 1.40873 19.4526C1.76825 20.1582 2.34193 20.7318 3.04754 21.0914C3.47738 21.3104 3.95183 21.4073 4.52469 21.4542C5.08703 21.5001 5.78648 21.5001 6.67765 21.5001H10.3809C10.657 21.5001 10.8809 21.2762 10.8809 21.0001C10.8809 20.724 10.657 20.5001 10.3809 20.5001H6.7C5.78166 20.5001 5.12298 20.4997 4.60612 20.4575C4.0951 20.4157 3.7669 20.3356 3.50153 20.2004C2.98408 19.9367 2.56338 19.516 2.29973 18.9986C2.16452 18.7332 2.08437 18.405 2.04262 17.894C2.00039 17.3771 2 16.7184 2 15.8001V14.1398C2.02753 14.155 2.05535 14.1697 2.08343 14.184C2.42236 14.3567 2.79184 14.4305 3.22297 14.4658C3.64358 14.5001 4.16459 14.5001 4.81814 14.5001H9V14.7501C9 15.8547 9.89543 16.7501 11 16.7501C12.1046 16.7501 13 15.8547 13 14.7501V14.5001H15.1563C15.4325 14.5001 15.6563 14.2763 15.6563 14.0001C15.6563 13.724 15.4325 13.5001 15.1563 13.5001H13V13.2501C13 12.1456 12.1046 11.2501 11 11.2501C9.89543 11.2501 9 12.1456 9 13.2501V13.5001H4.84C4.15969 13.5001 3.67952 13.4997 3.3044 13.4691C2.93512 13.4389 2.71188 13.3819 2.53742 13.293C2.17991 13.1109 1.88925 12.8202 1.70709 12.4627C1.6182 12.2882 1.56121 12.065 1.53104 11.6957C1.50039 11.3206 1.5 10.8404 1.5 10.1601V8.00012C1.5 7.29181 1.50039 6.79064 1.5324 6.39884C1.56393 6.01288 1.62365 5.7773 1.71799 5.59214C1.90973 5.21582 2.2157 4.90986 2.59202 4.71811C2.77718 4.62377 3.01276 4.56406 3.39872 4.53252C3.79052 4.50051 4.29168 4.50012 5 4.50012H17C17.7083 4.50012 18.2095 4.50051 18.6013 4.53252C18.9872 4.56406 19.2228 4.62377 19.408 4.71811C19.7843 4.90986 20.0903 5.21582 20.282 5.59214C20.3764 5.7773 20.4361 6.01288 20.4676 6.39884C20.4996 6.79064 20.5 7.29181 20.5 8.00012V10.0002C20.5 10.2763 20.7239 10.5002 21 10.5002C21.2761 10.5002 21.5 10.2763 21.5 10.0002V7.97823C21.5 7.29677 21.5 6.75467 21.4643 6.31741C21.4277 5.86961 21.3512 5.48777 21.173 5.13815C20.8854 4.57366 20.4265 4.11472 19.862 3.8271C19.5123 3.64896 19.1305 3.57243 18.6827 3.53584C18.2454 3.50012 17.7034 3.50012 17.0219 3.50012H15.5V3.37946C15.5 2.97698 15.5 2.6448 15.4779 2.37421C15.4549 2.09316 15.4057 1.83481 15.282 1.59214C15.0903 1.21582 14.7843 0.909857 14.408 0.71811C14.1653 0.594464 13.907 0.545182 13.6259 0.52222C13.3553 0.500111 13.0231 0.500116 12.6206 0.500122ZM14.5 3.50012V3.40012C14.5 2.97183 14.4996 2.68069 14.4812 2.45564C14.4633 2.23643 14.4309 2.12433 14.391 2.04613C14.2951 1.85797 14.1422 1.70499 13.954 1.60912C13.8758 1.56927 13.7637 1.53681 13.5445 1.5189C13.3194 1.50051 13.0283 1.50012 12.6 1.50012H9.4C8.97171 1.50012 8.68056 1.50051 8.45552 1.5189C8.23631 1.53681 8.12421 1.56927 8.04601 1.60912C7.85785 1.70499 7.70487 1.85797 7.60899 2.04613C7.56915 2.12433 7.53669 2.23643 7.51878 2.45564C7.50039 2.68069 7.5 2.97183 7.5 3.40012V3.50012H14.5ZM11 15.7501C10.4477 15.7501 10 15.3024 10 14.7501V13.2501C10 12.6978 10.4477 12.2501 11 12.2501C11.5523 12.2501 12 12.6978 12 13.2501V13.9901L12 13.9951L12 14.0001V14.7501C12 15.3024 11.5523 15.7501 11 15.7501Z" fill="#353566"/>
<path fill-rule="evenodd" clip-rule="evenodd" d="M19.8776 12.8593C20.5638 12.382 21.4745 12.3818 22.1609 12.8589C22.3081 12.9612 22.4496 13.1027 22.6405 13.2936L22.7066 13.3596C22.8976 13.5504 23.0393 13.6919 23.1417 13.8391C23.6192 14.5255 23.6194 15.4364 23.1422 16.1229C23.0398 16.2702 22.8982 16.4117 22.7072 16.6026L16.7308 22.5801C16.6643 22.6466 16.5804 22.693 16.4888 22.714L13.1116 23.4875C12.9438 23.5259 12.7681 23.4753 12.6464 23.3535C12.5247 23.2318 12.4742 23.056 12.5127 22.8882L13.287 19.5148C13.308 19.4233 13.3543 19.3396 13.4207 19.2732L19.3981 13.2943C19.5889 13.1033 19.7304 12.9617 19.8776 12.8593ZM21.5902 13.68C21.247 13.4415 20.7917 13.4416 20.4486 13.6803C20.3846 13.7248 20.3107 13.7959 20.0723 14.0343L19.4169 14.6899L21.3113 16.5843L21.967 15.9286C22.2054 15.6901 22.2766 15.6161 22.3211 15.5521C22.5597 15.2089 22.5596 14.7534 22.3208 14.4102C22.2763 14.3463 22.2052 14.2723 21.9666 14.0339C21.7282 13.7956 21.6542 13.7245 21.5902 13.68ZM20.6043 17.2915L18.7099 15.3971L14.2295 19.8786L13.6658 22.3347L16.1253 21.7714L20.6043 17.2915Z" fill="#353566"/>
</g>
<defs>
<clipPath id="clip0_9001_271092">
<rect width="24" height="24" fill="white"/>
</clipPath>
</defs>
</svg>
