<svg width="24" height="24" viewBox="0 0 24 24" fill="none" xmlns="http://www.w3.org/2000/svg">
<g clip-path="url(#clip0_9001_271062)">
<path fill-rule="evenodd" clip-rule="evenodd" d="M12.6206 0.5H9.37935C8.97687 0.499994 8.64468 0.499989 8.37409 0.522098C8.09304 0.54506 7.83469 0.594342 7.59202 0.717988C7.2157 0.909735 6.90973 1.2157 6.71799 1.59202C6.59434 1.83469 6.54506 2.09304 6.5221 2.37409C6.49999 2.64468 6.49999 2.97685 6.5 3.37933V3.5H4.97812C4.2966 3.5 3.75458 3.49999 3.31729 3.53572C2.86949 3.57231 2.48765 3.64884 2.13803 3.82698C1.57354 4.1146 1.1146 4.57354 0.826981 5.13803C0.648839 5.48765 0.572308 5.86949 0.535721 6.31729C0.499993 6.75458 0.499996 7.2966 0.5 7.97812V10.1818C0.499996 10.8354 0.499993 11.3564 0.534359 11.777C0.569583 12.2082 0.643389 12.5776 0.816082 12.9166C0.871196 13.0247 0.932818 13.1289 1.00045 13.2286C1.00015 13.2357 1 13.2428 1 13.25V15.8223C0.999997 16.7135 0.999995 17.4129 1.04594 17.9753C1.09274 18.5481 1.18971 19.0226 1.40873 19.4524C1.76825 20.158 2.34193 20.7317 3.04754 21.0912C3.47738 21.3103 3.95183 21.4072 4.52469 21.454C5.08703 21.5 5.78648 21.5 6.67765 21.5H10.7923C11.0684 21.5 11.2923 21.2761 11.2923 21C11.2923 20.7238 11.0684 20.5 10.7923 20.5H6.7C5.78166 20.5 5.12298 20.4996 4.60612 20.4574C4.0951 20.4156 3.7669 20.3355 3.50153 20.2002C2.98408 19.9366 2.56338 19.5159 2.29973 18.9984C2.16452 18.7331 2.08437 18.4049 2.04262 17.8939C2.00039 17.377 2 16.7183 2 15.8V14.1397C2.02753 14.1549 2.05535 14.1696 2.08343 14.1839C2.42236 14.3566 2.79184 14.4304 3.22297 14.4656C3.64358 14.5 4.16459 14.5 4.81814 14.5H9V14.75C9 15.6276 9.5649 16.3719 10.3494 16.6417C10.6106 16.7315 10.895 16.5926 10.9848 16.3314C11.0746 16.0703 10.9357 15.7858 10.6746 15.696C10.2814 15.5608 10 15.1876 10 14.75V13.25C10 12.6977 10.4477 12.25 11 12.25C11.3899 12.25 11.7286 12.4731 11.8938 12.8008C12.0181 13.0474 12.3187 13.1465 12.5653 13.0222C12.8119 12.8979 12.9111 12.5973 12.7868 12.3507C12.4582 11.6989 11.782 11.25 11 11.25C9.89543 11.25 9 12.1454 9 13.25V13.5H4.84C4.15969 13.5 3.67952 13.4996 3.3044 13.469C2.93512 13.4388 2.71188 13.3818 2.53742 13.2929C2.17991 13.1108 1.88925 12.8201 1.70709 12.4626C1.6182 12.2881 1.56121 12.0649 1.53104 11.6956C1.50039 11.3205 1.5 10.8403 1.5 10.16V8C1.5 7.29169 1.50039 6.79052 1.5324 6.39872C1.56393 6.01276 1.62365 5.77718 1.71799 5.59202C1.90973 5.2157 2.2157 4.90973 2.59202 4.71799C2.77718 4.62365 3.01276 4.56393 3.39872 4.5324C3.79052 4.50039 4.29168 4.5 5 4.5H17C17.7083 4.5 18.2095 4.50039 18.6013 4.5324C18.9872 4.56393 19.2228 4.62365 19.408 4.71799C19.7843 4.90973 20.0903 5.2157 20.282 5.59202C20.3764 5.77717 20.4361 6.01276 20.4676 6.39872C20.4996 6.79052 20.5 7.29168 20.5 8V10.16C20.5 10.3294 20.5 10.4869 20.4995 10.6348C20.4985 10.9109 20.7216 11.1356 20.9977 11.1365C21.2739 11.1375 21.4985 10.9144 21.4995 10.6383C21.5 10.4884 21.5 10.329 21.5 10.16V7.97811C21.5 7.29665 21.5 6.75455 21.4643 6.31729C21.4277 5.86949 21.3512 5.48765 21.173 5.13803C20.8854 4.57354 20.4265 4.1146 19.862 3.82698C19.5123 3.64884 19.1305 3.57231 18.6827 3.53572C18.2454 3.49999 17.7034 3.5 17.0219 3.5H15.5V3.37934C15.5 2.97686 15.5 2.64468 15.4779 2.37409C15.4549 2.09304 15.4057 1.83469 15.282 1.59202C15.0903 1.2157 14.7843 0.909735 14.408 0.717988C14.1653 0.594342 13.907 0.54506 13.6259 0.522098C13.3553 0.499989 13.0231 0.499994 12.6206 0.5ZM14.5 3.5V3.4C14.5 2.97171 14.4996 2.68056 14.4812 2.45552C14.4633 2.23631 14.4309 2.12421 14.391 2.04601C14.2951 1.85785 14.1422 1.70487 13.954 1.60899C13.8758 1.56915 13.7637 1.53669 13.5445 1.51878C13.3194 1.50039 13.0283 1.5 12.6 1.5H9.4C8.97171 1.5 8.68056 1.50039 8.45552 1.51878C8.23631 1.53669 8.12421 1.56915 8.04601 1.60899C7.85785 1.70487 7.70487 1.85785 7.60899 2.04601C7.56915 2.12421 7.53669 2.23631 7.51878 2.45552C7.50039 2.68056 7.5 2.97171 7.5 3.4V3.5H14.5Z" fill="#353566"/>
<path fill-rule="evenodd" clip-rule="evenodd" d="M18.25 16.25C17.2835 16.25 16.5 17.0335 16.5 18C16.5 18.9665 17.2835 19.75 18.25 19.75C19.2165 19.75 20 18.9665 20 18C20 17.0335 19.2165 16.25 18.25 16.25ZM17.5 18C17.5 17.5858 17.8358 17.25 18.25 17.25C18.6642 17.25 19 17.5858 19 18C19 18.4142 18.6642 18.75 18.25 18.75C17.8358 18.75 17.5 18.4142 17.5 18Z" fill="#353566"/>
<path fill-rule="evenodd" clip-rule="evenodd" d="M13.1845 20.212C12.8047 19.5529 13.0297 18.7096 13.6886 18.3285C13.9408 18.1827 13.9408 17.8172 13.6886 17.6714C13.0297 17.2903 12.8047 16.447 13.1845 15.7879L13.8042 14.7126C14.1844 14.0529 15.0272 13.8263 15.6866 14.2076C15.937 14.3525 16.2527 14.1723 16.2527 13.8791C16.2527 13.1183 16.8686 12.5 17.6302 12.5H18.8697C19.6314 12.5 20.2473 13.1183 20.2473 13.8792C20.2473 14.1724 20.563 14.3525 20.8134 14.2077C21.4728 13.8263 22.3156 14.053 22.6958 14.7126L23.3155 15.788C23.6954 16.4471 23.4703 17.2903 22.8114 17.6714C22.5592 17.8172 22.5592 18.1826 22.8114 18.3285C23.4703 18.7096 23.6954 19.5528 23.3155 20.2119L22.6958 21.2872C22.3156 21.9469 21.4728 22.1736 20.8134 21.7922C20.563 21.6474 20.2473 21.8275 20.2473 22.1208C20.2473 22.8816 19.6314 23.5 18.8697 23.5H17.6303C16.8686 23.5 16.2527 22.8817 16.2527 22.1208C16.2527 21.8275 15.937 21.6474 15.6866 21.7922C15.0272 22.1736 14.1844 21.9469 13.8042 21.2873L13.1845 20.212ZM14.1893 19.1942C14.0087 19.2986 13.9461 19.5308 14.0509 19.7127L14.6707 20.788C14.7752 20.9693 15.0059 21.0308 15.1859 20.9266C16.1057 20.3946 17.2527 21.0605 17.2527 22.1208C17.2527 22.3311 17.4226 22.5 17.6303 22.5H18.8697C19.0774 22.5 19.2473 22.3311 19.2473 22.1208C19.2473 21.0605 20.3943 20.3946 21.3141 20.9265C21.4941 21.0307 21.7248 20.9693 21.8293 20.7879L22.4491 19.7126C22.5539 19.5307 22.4913 19.2986 22.3107 19.1941C21.3928 18.6632 21.3928 17.3367 22.3107 16.8058C22.4913 16.7013 22.5539 16.4692 22.4491 16.2873L21.8293 15.212C21.7248 15.0306 21.4941 14.9692 21.3141 15.0733C20.3943 15.6053 19.2473 14.9395 19.2473 13.8792C19.2473 13.6689 19.0774 13.5 18.8697 13.5H17.6302C17.4226 13.5 17.2527 13.6689 17.2527 13.8791C17.2527 14.9395 16.1056 15.6052 15.186 15.0733C15.0059 14.9691 14.7752 15.0306 14.6707 15.2119L14.0509 16.2872C13.9461 16.4691 14.0087 16.7013 14.1893 16.8057C15.1073 17.3367 15.1073 18.6632 14.1893 19.1942Z" fill="#353566"/>
</g>
<defs>
<clipPath id="clip0_9001_271062">
<rect width="24" height="24" fill="white"/>
</clipPath>
</defs>
</svg>
