<svg width="24" height="24" viewBox="0 0 24 24" fill="none" xmlns="http://www.w3.org/2000/svg">
<path d="M12 13.0002C11.7239 13.0002 11.5 12.7764 11.5 12.5002L11.5 6.70735L9.35355 8.8538C9.15829 9.04906 8.84171 9.04906 8.64645 8.8538C8.45118 8.65853 8.45118 8.34195 8.64645 8.14669L11.6464 5.14669C11.7402 5.05292 11.8674 5.00024 12 5.00024C12.1326 5.00024 12.2598 5.05292 12.3536 5.14669L15.3536 8.14669C15.5488 8.34195 15.5488 8.65854 15.3536 8.8538C15.1583 9.04906 14.8417 9.04906 14.6464 8.8538L12.5 6.70735L12.5 12.5002C12.5 12.7764 12.2761 13.0002 12 13.0002Z" fill="#353566"/>
<path fill-rule="evenodd" clip-rule="evenodd" d="M12.5 18.7502L16.3 21.6002C16.5209 21.7659 16.5657 22.0793 16.4 22.3002C16.2343 22.5212 15.9209 22.5659 15.7 22.4002L12 19.6252L8.30003 22.4002C8.07912 22.5659 7.76572 22.5212 7.60003 22.3002C7.43434 22.0793 7.47912 21.7659 7.70003 21.6002L11.5 18.7503L11.5 16.5002H8.57754C7.61649 16.5002 6.86449 16.5002 6.26049 16.4509C5.64594 16.4007 5.14062 16.2969 4.68404 16.0643C3.93139 15.6808 3.31947 15.0689 2.93597 14.3162C2.70334 13.8596 2.59956 13.3543 2.54935 12.7398C2.5 12.1358 2.5 11.3838 2.5 10.4228L2.5 2.50024H1.5C1.22386 2.50024 1 2.27639 1 2.00024C1 1.7241 1.22386 1.50024 1.5 1.50024L22.5 1.50024C22.7761 1.50024 23 1.7241 23 2.00024C23 2.27639 22.7761 2.50024 22.5 2.50024L21.5 2.50024V10.4227C21.5 11.3838 21.5 12.1357 21.4507 12.7398C21.4004 13.3543 21.2967 13.8596 21.064 14.3162C20.6805 15.0689 20.0686 15.6808 19.316 16.0643C18.8594 16.2969 18.3541 16.4007 17.7395 16.4509C17.1355 16.5002 16.3836 16.5002 15.4225 16.5002H12.5L12.5 18.7502ZM15.4 15.5002C16.3883 15.5002 17.0995 15.4999 17.6581 15.4542C18.2108 15.4091 18.5699 15.3221 18.862 15.1733C19.4265 14.8856 19.8854 14.4267 20.173 13.8622C20.3219 13.5701 20.4088 13.211 20.454 12.6583C20.4996 12.0998 20.5 11.3886 20.5 10.4002V2.50024L3.5 2.50024L3.5 10.4002C3.5 11.3886 3.50039 12.0998 3.54602 12.6583C3.59118 13.211 3.67814 13.5701 3.82698 13.8622C4.1146 14.4267 4.57354 14.8856 5.13803 15.1733C5.43014 15.3221 5.78921 15.4091 6.34192 15.4542C6.90047 15.4999 7.61166 15.5002 8.6 15.5002H15.4Z" fill="#353566"/>
</svg>
