<svg width="24" height="24" viewBox="0 0 24 24" fill="none" xmlns="http://www.w3.org/2000/svg">
<path fill-rule="evenodd" clip-rule="evenodd" d="M12 7.5C11.1708 7.5 10.5 8.17078 10.5 9C10.5 9.82922 11.1708 10.5 12 10.5C12.8292 10.5 13.5 9.82922 13.5 9C13.5 8.17078 12.8292 7.5 12 7.5ZM11.5 9C11.5 8.72307 11.7231 8.5 12 8.5C12.2769 8.5 12.5 8.72307 12.5 9C12.5 9.27693 12.2769 9.5 12 9.5C11.7231 9.5 11.5 9.27693 11.5 9Z" fill="#353566"/>
<path fill-rule="evenodd" clip-rule="evenodd" d="M12 5.25C13.8132 5.25 15.5832 6.37487 16.4119 8.52453C16.5294 8.82918 16.5294 9.17082 16.4119 9.47547C15.5832 11.6251 13.8132 12.75 12 12.75C10.1868 12.75 8.41677 11.6251 7.58808 9.47548C7.47064 9.17082 7.47064 8.82918 7.58808 8.52453C8.41677 6.37487 10.1868 5.25 12 5.25ZM12 6.25C10.6271 6.25 9.21101 7.09472 8.52115 8.88422C8.49295 8.95738 8.49295 9.04262 8.52115 9.11578C9.21101 10.9053 10.6271 11.75 12 11.75C13.3729 11.75 14.789 10.9053 15.4788 9.11578C15.5071 9.04262 15.5071 8.95738 15.4788 8.88422C14.789 7.09471 13.3729 6.25 12 6.25Z" fill="#353566"/>
<path fill-rule="evenodd" clip-rule="evenodd" d="M1.5 1.5C1.22386 1.5 1 1.72386 1 2C1 2.27614 1.22386 2.5 1.5 2.5H2.5V10.4224C2.5 11.3835 2.49999 12.1355 2.54935 12.7395C2.59956 13.3541 2.70334 13.8594 2.93597 14.316C3.31947 15.0686 3.93139 15.6805 4.68404 16.064C5.14062 16.2967 5.64594 16.4004 6.26049 16.4507C6.8645 16.5 7.61644 16.5 8.57751 16.5H11.5V18.75L7.70003 21.6C7.47912 21.7657 7.43434 22.0791 7.60003 22.3C7.76571 22.5209 8.07912 22.5657 8.30003 22.4L12 19.625L15.7 22.4C15.9209 22.5657 16.2343 22.5209 16.4 22.3C16.5657 22.0791 16.5209 21.7657 16.3 21.6L12.5 18.75V16.5H15.4225C16.3835 16.5 17.1355 16.5 17.7395 16.4507C18.3541 16.4004 18.8594 16.2967 19.316 16.064C20.0686 15.6805 20.6805 15.0686 21.064 14.316C21.2967 13.8594 21.4004 13.3541 21.4507 12.7395C21.5 12.1355 21.5 11.3835 21.5 10.4225V2.5H22.5C22.7761 2.5 23 2.27614 23 2C23 1.72386 22.7761 1.5 22.5 1.5H1.5ZM15.4 15.5H8.6C7.61166 15.5 6.90047 15.4996 6.34192 15.454C5.78921 15.4088 5.43014 15.3219 5.13803 15.173C4.57354 14.8854 4.1146 14.4265 3.82698 13.862C3.67814 13.5699 3.59118 13.2108 3.54602 12.6581C3.50039 12.0995 3.5 11.3883 3.5 10.4V2.5H20.5V10.4C20.5 11.3883 20.4996 12.0995 20.454 12.6581C20.4088 13.2108 20.3219 13.5699 20.173 13.862C19.8854 14.4265 19.4265 14.8854 18.862 15.173C18.5699 15.3219 18.2108 15.4088 17.6581 15.454C17.0995 15.4996 16.3883 15.5 15.4 15.5Z" fill="#353566"/>
</svg>
