<svg width="24" height="24" viewBox="0 0 24 24" fill="none" xmlns="http://www.w3.org/2000/svg">
<path d="M13.6277 11.0819C13.7282 10.6801 13.4838 10.2729 13.082 10.1724C12.6801 10.072 12.2729 10.3163 12.1725 10.7181L10.3725 17.9181C10.272 18.32 10.5163 18.7272 10.9182 18.8276C11.32 18.9281 11.7272 18.6838 11.8277 18.2819L13.6277 11.0819Z" fill="#353566"/>
<path d="M9.23638 12.1755C9.52607 12.4715 9.52091 12.9464 9.22485 13.2361L7.96083 14.4729L9.23618 15.7753C9.52598 16.0712 9.52101 16.5461 9.22506 16.8359C8.92912 17.1257 8.45427 17.1207 8.16446 16.8248L6.36417 14.9863C6.22496 14.8442 6.14794 14.6525 6.15007 14.4536C6.15219 14.2546 6.23328 14.0647 6.37549 13.9255L8.17578 12.1639C8.47184 11.8743 8.94669 11.8794 9.23638 12.1755Z" fill="#353566"/>
<path d="M15.8243 12.1637C15.5281 11.8741 15.0533 11.8795 14.7637 12.1757C14.4742 12.4719 14.4796 12.9468 14.7758 13.2363L16.0394 14.4716L14.7639 15.7756C14.4743 16.0717 14.4795 16.5465 14.7756 16.8362C15.0717 17.1258 15.5466 17.1206 15.8362 16.8245L17.6363 14.9841C17.7754 14.8419 17.8523 14.6502 17.8501 14.4513C17.8479 14.2523 17.7667 14.0624 17.6244 13.9234L15.8243 12.1637Z" fill="#353566"/>
<path fill-rule="evenodd" clip-rule="evenodd" d="M5.86819 2.25C5.12511 2.24999 4.52196 2.24999 4.03273 2.28996C3.52778 2.33121 3.07851 2.41876 2.66103 2.63148C2.00247 2.96703 1.46703 3.50247 1.13148 4.16103C0.918762 4.57851 0.831214 5.02778 0.789958 5.53273C0.749986 6.02196 0.749993 6.62512 0.75 7.3682V16.6318C0.749993 17.3749 0.749986 17.978 0.789958 18.4673C0.831214 18.9722 0.918762 19.4215 1.13148 19.839C1.46703 20.4975 2.00247 21.033 2.66103 21.3685C3.07851 21.5812 3.52778 21.6688 4.03273 21.71C4.52195 21.75 5.12515 21.75 5.86819 21.75H18.1319C18.8749 21.75 19.4781 21.75 19.9673 21.71C20.4722 21.6688 20.9215 21.5812 21.339 21.3685C21.9975 21.033 22.533 20.4975 22.8685 19.839C23.0812 19.4215 23.1688 18.9722 23.21 18.4673C23.25 17.9781 23.25 17.3748 23.25 16.6318V7.36811C23.25 6.62507 23.25 6.02195 23.21 5.53273C23.1688 5.02778 23.0812 4.57851 22.8685 4.16103C22.533 3.50247 21.9975 2.96703 21.339 2.63148C20.9215 2.41876 20.4722 2.33121 19.9673 2.28996C19.478 2.24999 18.8749 2.24999 18.1318 2.25H5.86819ZM2.25 16.6V8.75H21.75V16.6C21.75 17.3824 21.7494 17.9242 21.715 18.3451C21.6813 18.7573 21.619 18.9872 21.532 19.158C21.3403 19.5343 21.0343 19.8403 20.658 20.032C20.4872 20.119 20.2573 20.1813 19.8451 20.215C19.4242 20.2494 18.8824 20.25 18.1 20.25H5.9C5.11755 20.25 4.57582 20.2494 4.15488 20.215C3.74269 20.1813 3.5128 20.119 3.34202 20.032C2.9657 19.8403 2.65973 19.5343 2.46799 19.158C2.38097 18.9872 2.31865 18.7573 2.28498 18.3451C2.25058 17.9242 2.25 17.3824 2.25 16.6Z" fill="#353566"/>
</svg>
