<svg width="24" height="24" viewBox="0 0 24 24" fill="none" xmlns="http://www.w3.org/2000/svg">
<path d="M11.25 13.3107L11.25 18.5C11.25 18.9142 11.5858 19.25 12 19.25C12.4142 19.25 12.75 18.9142 12.75 18.5L12.75 13.3107L14.4697 15.0303C14.7626 15.3232 15.2374 15.3232 15.5303 15.0303C15.8232 14.7374 15.8232 14.2626 15.5303 13.9697L12.5303 10.9697C12.3897 10.829 12.1989 10.75 12 10.75C11.8011 10.75 11.6103 10.829 11.4697 10.9697L8.46967 13.9697C8.17678 14.2626 8.17678 14.7374 8.46967 15.0303C8.76256 15.3232 9.23744 15.3232 9.53033 15.0303L11.25 13.3107Z" fill="#353566"/>
<path fill-rule="evenodd" clip-rule="evenodd" d="M19.9673 2.28996C19.478 2.24999 18.8749 2.24999 18.1318 2.25H5.86813C5.12509 2.24999 4.52195 2.24999 4.03273 2.28996C3.52778 2.33121 3.07852 2.41876 2.66103 2.63148C2.00247 2.96704 1.46704 3.50247 1.13148 4.16103C0.918763 4.57851 0.831215 5.02778 0.789959 5.53273C0.749987 6.02197 0.749993 6.62513 0.75 7.36821V16.6319C0.749994 17.3749 0.749989 17.9781 0.789958 18.4673C0.831214 18.9722 0.918762 19.4215 1.13148 19.839C1.46703 20.4975 2.00247 21.033 2.66103 21.3685C3.07851 21.5812 3.52778 21.6688 4.03273 21.71C4.52194 21.75 5.12516 21.75 5.86819 21.75H18.132C18.8749 21.75 19.4781 21.75 19.9673 21.71C20.4722 21.6688 20.9215 21.5812 21.339 21.3685C21.9975 21.033 22.533 20.4975 22.8685 19.839C23.0812 19.4215 23.1688 18.9722 23.21 18.4673C23.25 17.9781 23.25 17.3748 23.25 16.6318V7.36805C23.25 6.62506 23.25 6.02192 23.21 5.53273C23.1688 5.02778 23.0812 4.57852 22.8685 4.16103C22.533 3.50247 21.9975 2.96704 21.339 2.63148C20.9215 2.41876 20.4722 2.33121 19.9673 2.28996ZM2.25 16.6L2.25 9.75L21.75 9.75V16.6C21.75 17.3824 21.7494 17.9242 21.715 18.3451C21.6813 18.7573 21.619 18.9872 21.532 19.158C21.3403 19.5343 21.0343 19.8403 20.658 20.032C20.4872 20.119 20.2573 20.1813 19.8451 20.215C19.4242 20.2494 18.8824 20.25 18.1 20.25H5.9C5.11755 20.25 4.57582 20.2494 4.15488 20.215C3.74269 20.1813 3.5128 20.119 3.34202 20.032C2.9657 19.8403 2.65973 19.5343 2.46799 19.158C2.38097 18.9872 2.31865 18.7573 2.28498 18.3451C2.25059 17.9242 2.25 17.3824 2.25 16.6ZM3.625 6C3.625 5.51675 4.01675 5.125 4.5 5.125C4.98325 5.125 5.3751 5.51675 5.3751 6C5.3751 6.48325 4.98335 6.875 4.5001 6.875C4.01685 6.875 3.625 6.48325 3.625 6ZM6.625 6C6.625 5.51675 7.01675 5.125 7.5 5.125C7.98325 5.125 8.3751 5.51675 8.3751 6C8.3751 6.48325 7.98335 6.875 7.5001 6.875C7.01685 6.875 6.625 6.48325 6.625 6ZM9.625 6C9.625 5.51675 10.0168 5.125 10.5 5.125C10.9832 5.125 11.3751 5.51675 11.3751 6C11.3751 6.48325 10.9832 6.875 10.5 6.875C10.0168 6.875 9.625 6.48325 9.625 6Z" fill="#353566"/>
</svg>
