<svg width="24" height="24" viewBox="0 0 24 24" fill="none" xmlns="http://www.w3.org/2000/svg">
<path fill-rule="evenodd" clip-rule="evenodd" d="M17.5809 5.27244C17.6907 5.53919 17.75 5.82908 17.75 6.12825V9.90421C17.75 10.0602 17.7339 10.2137 17.7029 10.3626C17.7863 10.39 17.8685 10.4225 17.9491 10.46L21.4491 12.0882C21.9647 12.3281 22.3595 12.7481 22.5728 13.2529L22.5771 13.263L22.5819 13.2747C22.691 13.5408 22.75 13.8299 22.75 14.1282V17.9042C22.75 18.7861 22.2348 19.5866 21.4322 19.952L17.9322 21.5453C17.6595 21.6694 17.3683 21.7364 17.0755 21.7462C17.0507 21.7487 17.0255 21.75 17 21.75C16.9745 21.75 16.9493 21.7487 16.9245 21.7462C16.6317 21.7364 16.3405 21.6694 16.0678 21.5453L12.5678 19.952C12.3574 19.8562 12.1668 19.7306 12 19.5814C11.8332 19.7306 11.6426 19.8562 11.4322 19.952L7.93222 21.5453C7.65954 21.6694 7.36826 21.7364 7.07552 21.7462C7.05068 21.7487 7.02549 21.75 7 21.75C6.97451 21.75 6.94932 21.7487 6.92448 21.7462C6.63174 21.7364 6.34046 21.6694 6.06778 21.5453L2.56778 19.952C1.76517 19.5866 1.25 18.7861 1.25 17.9042V14.1282C1.25 13.8277 1.30987 13.5364 1.42063 13.2686L1.42445 13.2595C1.6371 12.7517 2.03311 12.3291 2.55094 12.0882L6.05094 10.46C6.13148 10.4225 6.21368 10.39 6.2971 10.3626C6.26612 10.2137 6.25 10.0602 6.25 9.90421V6.12825C6.25 5.2531 6.75745 4.45735 7.55094 4.0882L11.0509 2.45995C11.6527 2.18002 12.3473 2.18001 12.9491 2.45995L16.4491 4.0882C16.9655 4.32846 17.3608 4.74942 17.5738 5.25537C17.5763 5.26105 17.5786 5.26674 17.5809 5.27244ZM11.6836 3.81998C11.8842 3.72667 12.1158 3.72667 12.3164 3.81998L15.5562 5.32722L12 6.9275L8.44381 5.3272L11.6836 3.81998ZM12.75 8.2349V11.9801L14.2973 11.2758L15.9402 10.5115C16.1324 10.3722 16.25 10.1475 16.25 9.90421V6.6599L12.75 8.2349ZM7.3313 11.8269L7.31635 11.82C7.11577 11.7267 6.88423 11.7267 6.68365 11.82L3.44387 13.3272L7.00003 14.9274L10.5562 13.3272L9.0756 12.6384L7.56778 11.952C7.48588 11.9147 7.40697 11.8729 7.3313 11.8269ZM14.9244 12.6384L13.4439 13.3272L17 14.9274L20.5562 13.3272L17.3164 11.82C17.1158 11.7267 16.8842 11.7267 16.6836 11.82L16.6687 11.8269C16.593 11.8729 16.5141 11.9147 16.4322 11.952L14.9244 12.6384ZM17.75 16.2348V19.9801L20.8107 18.5868C21.0783 18.465 21.25 18.1982 21.25 17.9042V14.6598L17.75 16.2348ZM11.25 14.6598L7.75 16.2348V19.9801L10.8107 18.5868C11.0783 18.465 11.25 18.1982 11.25 17.9042V14.6598Z" fill="#353566"/>
</svg>
