<svg width="24" height="24" viewBox="0 0 24 24" fill="none" xmlns="http://www.w3.org/2000/svg">
<path d="M5.84924 1.38266C6.40157 1.20319 6.99653 1.20318 7.54886 1.38263C7.90886 1.4996 8.20852 1.70435 8.49909 1.95102C8.6491 2.07837 8.80977 2.22859 8.98509 2.39909C9.08445 2.49571 9.13412 2.54402 9.1534 2.60144C9.17023 2.65155 9.17061 2.70693 9.15449 2.75727C9.13601 2.81496 9.08635 2.86462 8.98703 2.96394L6.46958 5.48139C6.17669 5.77428 6.17669 6.24916 6.46958 6.54205C6.76247 6.83494 7.23735 6.83494 7.53024 6.54205L10.0484 4.02392C10.1474 3.92492 10.1969 3.87542 10.254 3.85687C10.3042 3.84055 10.3583 3.84055 10.4085 3.85687C10.4655 3.87542 10.515 3.92492 10.6141 4.02392L11.0448 4.45463C11.1854 4.59528 11.2644 4.78605 11.2644 4.98496C11.2644 5.18387 11.1854 5.37464 11.0448 5.51529L5.51595 11.0441C5.3753 11.1848 5.18453 11.2638 4.98562 11.2638C4.78671 11.2638 4.59594 11.1848 4.45529 11.0441L2.88117 9.46998C2.50349 9.09232 2.18825 8.77708 1.95175 8.49851C1.70509 8.20795 1.50035 7.9083 1.38338 7.54832C1.20392 6.99601 1.20391 6.40107 1.38336 5.84875C1.50032 5.48877 1.70505 5.18912 1.95171 4.89855C2.1882 4.61995 2.50348 4.30468 2.88117 3.92697L3.92744 2.88065C4.30515 2.5029 4.62042 2.1876 4.89903 1.95107C5.18959 1.70439 5.48924 1.49963 5.84924 1.38266Z" fill="#353566"/>
<path d="M18.4841 12.9546C18.6248 12.814 18.8155 12.735 19.0144 12.735C19.2133 12.735 19.4041 12.814 19.5448 12.9546L19.976 13.3859C20.075 13.4849 20.1245 13.5344 20.143 13.5914C20.1594 13.6417 20.1594 13.6957 20.143 13.746C20.1245 13.803 20.075 13.8525 19.976 13.9515L17.4579 16.4697C17.165 16.7626 17.165 17.2374 17.4579 17.5303C17.7508 17.8232 18.2256 17.8232 18.5185 17.5303L21.036 15.0129C21.1353 14.9136 21.1849 14.8639 21.2426 14.8454C21.293 14.8293 21.3484 14.8297 21.3985 14.8465C21.4559 14.8658 21.5042 14.9155 21.6008 15.0148C21.7708 15.1897 21.9206 15.3499 22.0477 15.4996C22.2944 15.7902 22.4991 16.0898 22.6161 16.4498C22.7955 17.0021 22.7955 17.5971 22.6161 18.1494C22.4991 18.5094 22.2944 18.809 22.0477 19.0996C21.8112 19.3782 21.496 19.6934 21.1183 20.0711L20.0718 21.1177C19.6942 21.4953 19.379 21.8106 19.1004 22.0471C18.8098 22.2937 18.5102 22.4985 18.1502 22.6155C17.5979 22.7949 17.0029 22.7949 16.4506 22.6155C16.0906 22.4985 15.7909 22.2938 15.5004 22.0471C15.2218 21.8106 14.9065 21.4953 14.5288 21.1176L12.9553 19.5441C12.8146 19.4034 12.7356 19.2127 12.7356 19.0138C12.7356 18.8149 12.8146 18.6241 12.9553 18.4834L18.4841 12.9546Z" fill="#353566"/>
<path d="M19.6788 1.7119C19.0358 1.42808 18.3029 1.42806 17.6599 1.71187C17.4227 1.81657 17.2159 1.96832 17.0006 2.1576C16.7912 2.34164 16.5499 2.58288 16.251 2.88179L14.823 4.30985C14.7438 4.38905 14.7042 4.42865 14.6893 4.47432C14.6763 4.51449 14.6763 4.55776 14.6893 4.59793C14.7042 4.64359 14.7438 4.68319 14.823 4.76239L19.2375 9.17698C19.3167 9.25619 19.3563 9.29579 19.402 9.31063C19.4422 9.32368 19.4855 9.32368 19.5256 9.31063C19.5713 9.29579 19.6109 9.25619 19.6901 9.17698L21.1147 7.75235C21.4148 7.45231 21.6568 7.21027 21.8414 7.00034C22.0311 6.78455 22.1833 6.57748 22.288 6.34012C22.5718 5.6971 22.5718 4.96431 22.288 4.32128C22.1833 4.08391 22.0312 3.87685 21.8414 3.66104C21.6569 3.45112 21.4148 3.20907 21.1148 2.90902L21.0911 2.88535C20.7911 2.58526 20.549 2.34316 20.3391 2.15857C20.1233 1.96882 19.9162 1.81667 19.6788 1.7119Z" fill="#353566"/>
<path d="M3.49714 15.6356L13.3097 5.82306C13.3889 5.74386 13.4286 5.70425 13.4742 5.68941C13.5144 5.67636 13.5577 5.67636 13.5978 5.68941C13.6435 5.70425 13.6831 5.74385 13.7623 5.82303L18.1769 10.2376C18.2561 10.3168 18.2957 10.3564 18.3105 10.4021C18.3236 10.4423 18.3236 10.4856 18.3105 10.5257C18.2957 10.5714 18.2561 10.611 18.1769 10.6902L8.36832 20.4987C8.22677 20.6404 8.11971 20.7475 7.99676 20.8379C7.88812 20.9177 7.77169 20.9864 7.64923 21.0428C7.51066 21.1067 7.36508 21.1485 7.17266 21.2038L3.26715 22.3278C3.05813 22.388 2.8693 22.4423 2.71377 22.472C2.55703 22.502 2.34869 22.5259 2.13861 22.4471C1.8685 22.3457 1.65534 22.1326 1.55389 21.8625C1.47499 21.6524 1.4989 21.4441 1.5288 21.2873C1.55848 21.1318 1.6128 20.9429 1.67293 20.7339L2.79623 16.8276C2.85154 16.635 2.89337 16.4894 2.95723 16.3507C3.01366 16.2282 3.08234 16.1117 3.16222 16.003C3.25261 15.88 3.35806 15.7746 3.49714 15.6356Z" fill="#353566"/>
</svg>
