<svg width="24" height="24" viewBox="0 0 24 24" fill="none" xmlns="http://www.w3.org/2000/svg">
<path d="M7.25 1.7C7.25 1.45147 7.04853 1.25 6.8 1.25H6.7679C5.95507 1.24999 5.29944 1.24999 4.76853 1.29336C4.2219 1.33803 3.74176 1.43239 3.29754 1.65873C2.59193 2.01825 2.01825 2.59193 1.65873 3.29754C1.43239 3.74176 1.33803 4.2219 1.29336 4.76853C1.24999 5.29944 1.24999 5.95505 1.25 6.76788V6.8C1.25 7.04853 1.45147 7.25 1.7 7.25H6.45C6.73003 7.25 6.87004 7.25 6.977 7.1955C7.07108 7.14757 7.14757 7.07108 7.19551 6.977C7.25 6.87004 7.25 6.73003 7.25 6.45V1.7Z" fill="#353566"/>
<path d="M2.05 8.75C1.76997 8.75 1.62996 8.75 1.523 8.8045C1.42892 8.85243 1.35243 8.92892 1.3045 9.02301C1.25 9.12996 1.25 9.26997 1.25 9.55V14.45C1.25 14.73 1.25 14.87 1.3045 14.977C1.35243 15.0711 1.42892 15.1476 1.523 15.1955C1.62996 15.25 1.76997 15.25 2.05 15.25H6.45C6.73003 15.25 6.87004 15.25 6.977 15.1955C7.07108 15.1476 7.14757 15.0711 7.19551 14.977C7.25 14.87 7.25 14.73 7.25 14.45L7.25 9.55C7.25 9.26997 7.25 9.12996 7.19551 9.02301C7.14757 8.92892 7.07108 8.85243 6.977 8.8045C6.87004 8.75 6.73003 8.75 6.45 8.75H2.05Z" fill="#353566"/>
<path d="M1.7 16.75C1.45147 16.75 1.25 16.9515 1.25 17.2V17.2321C1.24999 18.0449 1.24999 18.7006 1.29336 19.2315C1.33803 19.7781 1.43239 20.2582 1.65873 20.7025C2.01825 21.4081 2.59193 21.9817 3.29754 22.3413C3.74176 22.5676 4.2219 22.662 4.76853 22.7066C5.29946 22.75 5.9551 22.75 6.76798 22.75H6.8C7.04853 22.75 7.25 22.5485 7.25 22.3V17.55C7.25 17.27 7.25 17.13 7.1955 17.023C7.14757 16.9289 7.07108 16.8524 6.977 16.8045C6.87004 16.75 6.73003 16.75 6.45 16.75H1.7Z" fill="#353566"/>
<path d="M8.75 21.95C8.75 22.23 8.75 22.37 8.8045 22.477C8.85243 22.5711 8.92893 22.6476 9.02301 22.6955C9.12996 22.75 9.26998 22.75 9.55 22.75H14.45C14.73 22.75 14.87 22.75 14.977 22.6955C15.0711 22.6476 15.1476 22.5711 15.1955 22.477C15.25 22.37 15.25 22.23 15.25 21.95V17.55C15.25 17.27 15.25 17.13 15.1955 17.023C15.1476 16.9289 15.0711 16.8524 14.977 16.8045C14.87 16.75 14.73 16.75 14.45 16.75H9.55C9.26998 16.75 9.12996 16.75 9.02301 16.8045C8.92893 16.8524 8.85243 16.9289 8.8045 17.023C8.75 17.13 8.75 17.27 8.75 17.55V21.95Z" fill="#353566"/>
<path d="M16.75 22.3C16.75 22.5485 16.9515 22.75 17.2 22.75H17.232C18.0449 22.75 18.7005 22.75 19.2315 22.7066C19.7781 22.662 20.2582 22.5676 20.7025 22.3413C21.4081 21.9817 21.9818 21.4081 22.3413 20.7025C22.5676 20.2582 22.662 19.7781 22.7066 19.2315C22.75 18.7006 22.75 18.045 22.75 17.2321V17.2C22.75 16.9515 22.5485 16.75 22.3 16.75H17.55C17.27 16.75 17.13 16.75 17.023 16.8045C16.9289 16.8524 16.8524 16.9289 16.8045 17.023C16.75 17.13 16.75 17.27 16.75 17.55V22.3Z" fill="#353566"/>
<path d="M21.95 15.25C22.23 15.25 22.37 15.25 22.477 15.1955C22.5711 15.1476 22.6476 15.0711 22.6955 14.977C22.75 14.87 22.75 14.73 22.75 14.45V9.55C22.75 9.26997 22.75 9.12996 22.6955 9.023C22.6476 8.92892 22.5711 8.85243 22.477 8.8045C22.37 8.75 22.23 8.75 21.95 8.75H17.55C17.27 8.75 17.13 8.75 17.023 8.8045C16.9289 8.85243 16.8524 8.92892 16.8045 9.023C16.75 9.12996 16.75 9.26997 16.75 9.55V14.45C16.75 14.73 16.75 14.87 16.8045 14.977C16.8524 15.0711 16.9289 15.1476 17.023 15.1955C17.13 15.25 17.27 15.25 17.55 15.25H21.95Z" fill="#353566"/>
<path d="M22.3 7.25C22.5485 7.25 22.75 7.04853 22.75 6.8V6.76788C22.75 5.95505 22.75 5.29944 22.7066 4.76853C22.662 4.2219 22.5676 3.74176 22.3413 3.29754C21.9818 2.59193 21.4081 2.01825 20.7025 1.65873C20.2582 1.43239 19.7781 1.33803 19.2315 1.29336C18.7006 1.24999 18.045 1.24999 17.2321 1.25H17.2C16.9515 1.25 16.75 1.45147 16.75 1.7V6.45C16.75 6.73003 16.75 6.87004 16.8045 6.97699C16.8524 7.07108 16.9289 7.14757 17.023 7.1955C17.13 7.25 17.27 7.25 17.55 7.25H22.3Z" fill="#353566"/>
<path d="M15.25 2.05C15.25 1.76997 15.25 1.62996 15.1955 1.523C15.1476 1.42892 15.0711 1.35243 14.977 1.3045C14.87 1.25 14.73 1.25 14.45 1.25H9.55C9.26998 1.25 9.12996 1.25 9.02301 1.3045C8.92893 1.35243 8.85244 1.42892 8.8045 1.523C8.75 1.62996 8.75 1.76997 8.75 2.05V6.45C8.75 6.73003 8.75 6.87004 8.8045 6.977C8.85244 7.07108 8.92893 7.14757 9.02301 7.1955C9.12996 7.25 9.26998 7.25 9.55 7.25H14.45C14.73 7.25 14.87 7.25 14.977 7.1955C15.0711 7.14757 15.1476 7.07108 15.1955 6.977C15.25 6.87004 15.25 6.73003 15.25 6.45V2.05Z" fill="#353566"/>
<path d="M14.45 8.75C14.73 8.75 14.87 8.75 14.977 8.8045C15.0711 8.85243 15.1476 8.92892 15.1955 9.02301C15.25 9.12996 15.25 9.26997 15.25 9.55V14.45C15.25 14.73 15.25 14.87 15.1955 14.977C15.1476 15.0711 15.0711 15.1476 14.977 15.1955C14.87 15.25 14.73 15.25 14.45 15.25H9.55C9.26998 15.25 9.12996 15.25 9.02301 15.1955C8.92893 15.1476 8.85243 15.0711 8.8045 14.977C8.75 14.87 8.75 14.73 8.75 14.45L8.75 9.55C8.75 9.26997 8.75 9.12996 8.8045 9.02301C8.85244 8.92892 8.92893 8.85243 9.02301 8.8045C9.12996 8.75 9.26998 8.75 9.55 8.75H14.45Z" fill="#353566"/>
</svg>
