<svg width="24" height="24" viewBox="0 0 24 24" fill="none" xmlns="http://www.w3.org/2000/svg">
<path d="M2.75 4.75C2.75 3.64543 3.64543 2.75 4.75 2.75L6.5 2.75C6.91421 2.75 7.25 2.41421 7.25 2C7.25 1.58579 6.91421 1.25 6.5 1.25H4.75C2.817 1.25 1.25 2.817 1.25 4.75V7.5C1.25 7.91421 1.58579 8.25 2 8.25C2.41421 8.25 2.75 7.91421 2.75 7.5L2.75 4.75Z" fill="#353566"/>
<path d="M19.25 1.25H17.5C17.0858 1.25 16.75 1.58579 16.75 2C16.75 2.41421 17.0858 2.75 17.5 2.75L19.25 2.75C20.3546 2.75 21.25 3.64543 21.25 4.75L21.25 6.5C21.25 6.91421 21.5858 7.25 22 7.25C22.4142 7.25 22.75 6.91421 22.75 6.5L22.75 4.75C22.75 2.817 21.183 1.25 19.25 1.25Z" fill="#353566"/>
<path d="M10 1.25C9.58579 1.25 9.25 1.58579 9.25 2C9.25 2.41421 9.58579 2.75 10 2.75H14C14.4142 2.75 14.75 2.41421 14.75 2C14.75 1.58579 14.4142 1.25 14 1.25H10Z" fill="#353566"/>
<path d="M22.75 10C22.75 9.58579 22.4142 9.25 22 9.25C21.5858 9.25 21.25 9.58579 21.25 10V14C21.25 14.4142 21.5858 14.75 22 14.75C22.4142 14.75 22.75 14.4142 22.75 14V10Z" fill="#353566"/>
<path d="M22.75 17.5C22.75 17.0858 22.4142 16.75 22 16.75C21.5858 16.75 21.25 17.0858 21.25 17.5V19.25C21.25 20.3546 20.3546 21.25 19.25 21.25H16.5C16.0858 21.25 15.75 21.5858 15.75 22C15.75 22.4142 16.0858 22.75 16.5 22.75H19.25C21.183 22.75 22.75 21.183 22.75 19.25V17.5Z" fill="#353566"/>
<path d="M5.56903 10.25H9.43097C10.0347 10.25 10.533 10.25 10.9389 10.2831C11.3604 10.3176 11.748 10.3915 12.112 10.577C12.6765 10.8646 13.1354 11.3235 13.423 11.888C13.6085 12.252 13.6824 12.6396 13.7169 13.0611C13.75 13.467 13.75 13.9653 13.75 14.569V18.431C13.75 19.0347 13.75 19.533 13.7169 19.9389C13.6824 20.3604 13.6085 20.748 13.423 21.112C13.1354 21.6765 12.6765 22.1354 12.112 22.423C11.748 22.6085 11.3604 22.6824 10.9389 22.7169C10.533 22.75 10.0347 22.75 9.43099 22.75H5.56901C4.96529 22.75 4.46702 22.75 4.06113 22.7169C3.63956 22.6824 3.25203 22.6085 2.88803 22.423C2.32354 22.1354 1.8646 21.6765 1.57698 21.112C1.39151 20.748 1.31759 20.3604 1.28315 19.9389C1.24998 19.533 1.24999 19.0347 1.25 18.431V14.569C1.24999 13.9653 1.24998 13.467 1.28315 13.0611C1.31759 12.6396 1.39151 12.252 1.57698 11.888C1.8646 11.3235 2.32354 10.8646 2.88803 10.577C3.25203 10.3915 3.63956 10.3176 4.06113 10.2831C4.46703 10.25 4.9653 10.25 5.56903 10.25Z" fill="#353566"/>
</svg>
