<svg width="24" height="24" viewBox="0 0 24 24" fill="none" xmlns="http://www.w3.org/2000/svg">
<path opacity="0.4" d="M16.0314 5.25H5.46858C4.79521 5.24999 4.24449 5.24998 3.79693 5.28655C3.33367 5.3244 2.91527 5.40514 2.52453 5.60423C1.913 5.91582 1.41582 6.413 1.10423 7.02453C0.905137 7.41527 0.824402 7.83367 0.786552 8.29693C0.749985 8.74449 0.749992 9.2952 0.75 9.96857V14.0314C0.749992 14.7048 0.749985 15.2555 0.786552 15.7031C0.824402 16.1663 0.905137 16.5847 1.10423 16.9755C1.41582 17.587 1.913 18.0842 2.52453 18.3958C2.91527 18.5949 3.33367 18.6756 3.79693 18.7134C4.24448 18.75 4.79518 18.75 5.46853 18.75H16.0314C16.7048 18.75 17.2555 18.75 17.7031 18.7134C18.1663 18.6756 18.5847 18.5949 18.9755 18.3958C19.587 18.0842 20.0842 17.587 20.3958 16.9755C20.5949 16.5847 20.6756 16.1663 20.7134 15.7031C20.75 15.2555 20.75 14.7048 20.75 14.0314V9.96856C20.75 9.29519 20.75 8.74449 20.7134 8.29693C20.6756 7.83367 20.5949 7.41527 20.3958 7.02453C20.0842 6.413 19.587 5.91582 18.9755 5.60423C18.5847 5.40514 18.1663 5.3244 17.7031 5.28655C17.2555 5.24998 16.7048 5.24999 16.0314 5.25Z" fill="#353566"/>
<path d="M5.57708 7.875C5.3167 7.87499 5.08478 7.87498 4.89231 7.8907C4.68691 7.90748 4.47202 7.94524 4.26227 8.05212C3.9565 8.20791 3.70791 8.4565 3.55212 8.76227C3.44524 8.97202 3.40748 9.18691 3.3907 9.39231C3.37498 9.58478 3.37499 9.81667 3.375 10.077V13.9229C3.37499 14.1833 3.37498 14.4152 3.3907 14.6077C3.40748 14.8131 3.44524 15.028 3.55212 15.2377C3.70791 15.5435 3.9565 15.7921 4.26227 15.9479C4.47202 16.0548 4.68691 16.0925 4.89231 16.1093C5.08479 16.125 5.31669 16.125 5.57709 16.125H15.9229C16.1833 16.125 16.4152 16.125 16.6077 16.1093C16.8131 16.0925 17.028 16.0548 17.2377 15.9479C17.5435 15.7921 17.7921 15.5435 17.9479 15.2377C18.0548 15.028 18.0925 14.8131 18.1093 14.6077C18.125 14.4152 18.125 14.1833 18.125 13.9229V10.0771C18.125 9.81668 18.125 9.58478 18.1093 9.39231C18.0925 9.18691 18.0548 8.97202 17.9479 8.76227C17.7921 8.4565 17.5435 8.20791 17.2377 8.05212C17.028 7.94524 16.8131 7.90748 16.6077 7.8907C16.4152 7.87498 16.1833 7.87499 15.923 7.875H5.57708Z" fill="#353566"/>
<path d="M22.5 9.25C22.9142 9.25 23.25 9.58579 23.25 10V14C23.25 14.4142 22.9142 14.75 22.5 14.75C22.0858 14.75 21.75 14.4142 21.75 14V10C21.75 9.58579 22.0858 9.25 22.5 9.25Z" fill="#353566"/>
</svg>
