<svg width="24" height="24" viewBox="0 0 24 24" fill="none" xmlns="http://www.w3.org/2000/svg">
<g opacity="0.4">
<path d="M12 1.25C10.1434 1.25 8.41989 1.82905 7.00295 2.81638C6.82081 2.9433 6.70426 3.14438 6.68466 3.36551C6.66506 3.58664 6.74443 3.80509 6.9014 3.96206L18.0379 15.0986C18.1949 15.2556 18.4134 15.3349 18.6345 15.3153C18.8556 15.2957 19.0567 15.1792 19.1836 14.997C20.171 13.5801 20.75 11.8566 20.75 10C20.75 5.16751 16.8325 1.25 12 1.25Z" fill="#353566"/>
<path d="M5.96206 4.9014C5.80509 4.74443 5.58664 4.66506 5.36551 4.68466C5.14438 4.70426 4.9433 4.82081 4.81638 5.00295C3.82905 6.41989 3.25 8.14345 3.25 10C3.25 14.8325 7.16751 18.75 12 18.75C13.8566 18.75 15.5801 18.171 16.997 17.1836C17.1792 17.0567 17.2957 16.8556 17.3153 16.6345C17.3349 16.4134 17.2556 16.1949 17.0986 16.0379L5.96206 4.9014Z" fill="#353566"/>
</g>
<path d="M2.53033 1.46967C2.23744 1.17678 1.76256 1.17678 1.46967 1.46967C1.17678 1.76256 1.17678 2.23744 1.46967 2.53033L7.47878 8.53944C7.33024 8.99959 7.25 9.49042 7.25 10C7.25 12.6234 9.37665 14.75 12 14.75C12.5096 14.75 13.0004 14.6698 13.4606 14.5212L16.4655 17.5261C15.1582 18.3034 13.6312 18.7498 12 18.7498C10.3371 18.7498 8.7825 18.2859 7.45862 17.4805L4.74996 20.1891C3.80502 21.1341 4.47427 22.7498 5.81062 22.7498H18.1893C19.3417 22.7498 19.998 21.5484 19.5509 20.6116L21.4697 22.5303C21.7626 22.8232 22.2374 22.8232 22.5303 22.5303C22.8232 22.2374 22.8232 21.7626 22.5303 21.4697L2.53033 1.46967Z" fill="#353566"/>
<path d="M15.7959 12.8559C16.3949 12.061 16.75 11.072 16.75 10C16.75 7.37665 14.6234 5.25 12 5.25C10.928 5.25 9.93898 5.6051 9.14409 6.20409L15.7959 12.8559Z" fill="#353566"/>
</svg>
