<svg width="24" height="24" viewBox="0 0 24 24" fill="none" xmlns="http://www.w3.org/2000/svg">
<path opacity="0.4" d="M9.78905 1.75C9.04813 1.75 8.3547 2.11476 7.93495 2.72531L6.88685 4.24982C6.01819 4.25 5.31508 4.25301 4.74013 4.29998C4.11012 4.35145 3.56824 4.45944 3.07054 4.71303C2.27085 5.12049 1.62068 5.77066 1.21322 6.57035C0.959634 7.06804 0.85165 7.60992 0.800176 8.23994C0.749989 8.8542 0.749994 9.61475 0.75 10.5672V15.4324C0.749994 16.3849 0.749989 17.1454 0.800176 17.7597C0.85165 18.3897 0.959634 18.9316 1.21322 19.4293C1.62068 20.229 2.27085 20.8791 3.07054 21.2866C3.56824 21.5402 4.11012 21.6482 4.74013 21.6996C5.35438 21.7498 6.1149 21.7498 7.0673 21.7498H16.9326C17.885 21.7498 18.6456 21.7498 19.2599 21.6996C19.8899 21.6482 20.4318 21.5402 20.9295 21.2866C21.7291 20.8791 22.3793 20.229 22.7868 19.4293C23.0404 18.9316 23.1483 18.3897 23.1998 17.7597C23.25 17.1454 23.25 16.3849 23.25 15.4325V10.5672C23.25 9.61477 23.25 8.85418 23.1998 8.23994C23.1483 7.60992 23.0404 7.06804 22.7868 6.57035C22.3793 5.77066 21.7291 5.12049 20.9295 4.71303C20.4318 4.45944 19.8899 4.35145 19.2599 4.29998C18.6849 4.25301 17.9818 4.25 17.1131 4.24982L16.065 2.72531C15.6453 2.11476 14.9519 1.75 14.211 1.75H9.78905Z" fill="#353566"/>
<path d="M17.0303 9.46967C17.3232 9.76256 17.3232 10.2374 17.0303 10.5303L11.0303 16.5303C10.7374 16.8232 10.2626 16.8232 9.96967 16.5303L6.96967 13.5303C6.67678 13.2374 6.67678 12.7626 6.96967 12.4697C7.26256 12.1768 7.73744 12.1768 8.03033 12.4697L10.5 14.9393L15.9697 9.46967C16.2626 9.17678 16.7374 9.17678 17.0303 9.46967Z" fill="#353566"/>
</svg>
