<svg width="24" height="24" viewBox="0 0 24 24" fill="none" xmlns="http://www.w3.org/2000/svg">
<path opacity="0.4" d="M16.9326 1.25H7.06739C6.11495 1.24999 5.35439 1.24999 4.74013 1.30018C4.11012 1.35165 3.56824 1.45963 3.07054 1.71322C2.27085 2.12068 1.62068 2.77085 1.21322 3.57054C0.959634 4.06824 0.85165 4.61012 0.800176 5.24013C0.749989 5.85439 0.749994 6.61494 0.75 7.56738V12.4326C0.749994 13.3851 0.749989 14.1456 0.800176 14.7599C0.85165 15.3899 0.959634 15.9318 1.21322 16.4295C1.62068 17.2291 2.27085 17.8793 3.07054 18.2868C3.56824 18.5404 4.11012 18.6483 4.74013 18.6998C5.35438 18.75 6.1149 18.75 7.0673 18.75H12.5C12.9142 18.75 13.25 18.4142 13.25 18V17.25C13.25 16.2004 13.7461 15.2674 14.5216 14.6712L14.7019 14.5326C14.8738 14.4005 14.9801 14.2005 14.9934 13.9842L15.0074 13.7572C15.1368 11.6605 17.0423 10.25 19 10.25C20.0891 10.25 21.1965 10.6994 21.9668 11.478C22.1807 11.6942 22.5039 11.7598 22.7852 11.6442C23.0664 11.5286 23.25 11.2546 23.25 10.9505V7.56737C23.25 6.61496 23.25 5.85438 23.1998 5.24013C23.1483 4.61012 23.0404 4.06824 22.7868 3.57054C22.3793 2.77085 21.7291 2.12068 20.9295 1.71322C20.4318 1.45963 19.8899 1.35165 19.2599 1.30018C18.6456 1.24999 17.8851 1.24999 16.9326 1.25Z" fill="#353566"/>
<path fill-rule="evenodd" clip-rule="evenodd" d="M19 11.25C17.4286 11.25 16 12.4006 16 14V15.2677C15.1519 15.389 14.5 16.1184 14.5 17V20.75C14.5 21.7165 15.2835 22.5 16.25 22.5H21.75C22.7165 22.5 23.5 21.7165 23.5 20.75V17C23.5 16.1184 22.8481 15.389 22 15.2677V14C22 12.4006 20.5714 11.25 19 11.25ZM17.5 14C17.5 13.3902 18.0861 12.75 19 12.75C19.9139 12.75 20.5 13.3902 20.5 14V15H17.5V14Z" fill="#353566"/>
<path d="M0.75 14.75V12.75H14.2769C14.49 12.75 14.6931 12.8407 14.8353 12.9994C14.9776 13.1581 15.0456 13.3698 15.0224 13.5817C15.0161 13.6394 15.0111 13.698 15.0074 13.7572L14.9934 13.9842C14.9801 14.2005 14.8738 14.4005 14.7019 14.5326L14.5216 14.6712C13.7461 15.2674 13.25 16.2004 13.25 17.25V20.5C13.25 20.9324 13.334 21.3433 13.486 21.7186C13.5795 21.9498 13.5521 22.2124 13.4127 22.4192C13.2733 22.626 13.0402 22.75 12.7908 22.75H7.5C7.08579 22.75 6.75 22.4142 6.75 22C6.75 21.5858 7.08579 21.25 7.5 21.25H8C8.69036 21.25 9.25 20.6904 9.25 20V18.75H4.99957C2.73617 18.75 0.886604 16.9807 0.75723 14.75H0.75Z" fill="#353566"/>
</svg>
