<svg width="24" height="24" viewBox="0 0 24 24" fill="none" xmlns="http://www.w3.org/2000/svg">
<path opacity="0.4" d="M16.9326 1.25H7.06739C6.11495 1.24999 5.35439 1.24999 4.74013 1.30018C4.11012 1.35165 3.56824 1.45963 3.07054 1.71322C2.27085 2.12068 1.62068 2.77085 1.21322 3.57054C0.959634 4.06824 0.85165 4.61012 0.800176 5.24013C0.749989 5.85439 0.749994 6.61494 0.75 7.56738V12.4326C0.749994 13.3851 0.749989 14.1456 0.800176 14.7599C0.85165 15.3899 0.959634 15.9318 1.21322 16.4295C1.62068 17.2291 2.27085 17.8793 3.07054 18.2868C3.56824 18.5404 4.11012 18.6483 4.74013 18.6998C5.35438 18.75 6.1149 18.75 7.0673 18.75H11.1012C11.3807 18.75 11.6371 18.5945 11.7663 18.3466C11.8955 18.0987 11.876 17.7995 11.7159 17.5704C11.2912 16.9627 11.1101 16.3511 11.3685 15.5511C11.5942 14.8522 12.0026 14.478 12.5386 14.2329C13.1221 13.9663 13.8432 13.8581 14.6894 13.7473C14.9403 13.7145 15.1578 13.5573 15.2677 13.3292C15.6357 12.5654 15.9624 11.9192 16.3954 11.451C16.7936 11.0205 17.2738 10.75 18.002 10.75C18.7302 10.75 19.2104 11.0205 19.6086 11.451C20.0416 11.9192 20.3682 12.5654 20.7363 13.3292C20.8462 13.5573 21.0636 13.7145 21.3146 13.7473C21.6801 13.7952 22.0264 13.8422 22.3582 13.9056C22.5772 13.9475 22.8035 13.8897 22.9757 13.748C23.1478 13.6062 23.248 13.3952 23.2489 13.1723C23.25 12.9323 23.25 12.6754 23.25 12.4015V7.56737C23.25 6.61496 23.25 5.85438 23.1998 5.24013C23.1483 4.61012 23.0404 4.06824 22.7868 3.57054C22.3793 2.77085 21.7291 2.12068 20.9295 1.71322C20.4318 1.45963 19.8899 1.35165 19.2599 1.30018C18.6456 1.24999 17.8851 1.24999 16.9326 1.25Z" fill="#353566"/>
<path d="M16.9866 12.6365C17.3957 11.7878 18.6043 11.7878 19.0133 12.6365L20.0786 14.8464L22.5198 15.165C23.4614 15.2879 23.8366 16.45 23.1446 17.1003L21.3664 18.7713L21.8141 21.1646C21.9878 22.0935 21.0083 22.8097 20.1759 22.3625L18 21.1934L15.824 22.3625C14.9916 22.8097 14.0121 22.0935 14.1858 21.1646L14.6335 18.7713L12.8553 17.1003C12.1633 16.45 12.5385 15.2879 13.4801 15.165L15.9213 14.8464L16.9866 12.6365Z" fill="#353566"/>
<path d="M0.75 14.75V12.75H12.3431C12.7005 12.75 13.0082 13.0021 13.0785 13.3525C13.1487 13.7029 12.962 14.0542 12.6323 14.192C12.0446 14.4376 11.6052 14.8182 11.3685 15.5511C11.1444 16.2449 11.2539 16.7842 11.5403 17.2927C11.8517 17.8455 12.3663 18.3525 12.9823 18.9314C13.1686 19.1065 13.2529 19.3644 13.2059 19.6157C13.0651 20.3693 13.02 21.1753 13.1399 21.873C13.1773 22.0909 13.1167 22.3143 12.9742 22.4833C12.8317 22.6524 12.6218 22.75 12.4007 22.75H7.5C7.08579 22.75 6.75 22.4142 6.75 22C6.75 21.5858 7.08579 21.25 7.5 21.25H8C8.69036 21.25 9.25 20.6904 9.25 20V18.75H4.99957C2.73617 18.75 0.886604 16.9807 0.75723 14.75H0.75Z" fill="#353566"/>
</svg>
