<svg width="24" height="24" viewBox="0 0 24 24" fill="none" xmlns="http://www.w3.org/2000/svg">
<path opacity="0.4" d="M16.9326 1.25H7.06739C6.11495 1.24999 5.35439 1.24999 4.74013 1.30018C4.11012 1.35165 3.56824 1.45963 3.07054 1.71322C2.27085 2.12068 1.62068 2.77085 1.21322 3.57054C0.959634 4.06824 0.85165 4.61012 0.800176 5.24013C0.749989 5.85439 0.749994 6.61494 0.75 7.56738V12.4326C0.749994 13.3851 0.749989 14.1456 0.800176 14.7599C0.85165 15.3899 0.959634 15.9318 1.21322 16.4295C1.62068 17.2291 2.27085 17.8793 3.07054 18.2868C3.56824 18.5404 4.11012 18.6483 4.74013 18.6998C5.35438 18.75 6.1149 18.75 7.0673 18.75H16.9326C17.885 18.75 18.6456 18.75 19.2599 18.6998C19.8899 18.6483 20.4318 18.5404 20.9295 18.2868C21.7291 17.8793 22.3793 17.2291 22.7868 16.4295C23.0404 15.9318 23.1483 15.3899 23.1998 14.7599C23.25 14.1456 23.25 13.3851 23.25 12.4327V7.56737C23.25 6.61496 23.25 5.85438 23.1998 5.24013C23.1483 4.61012 23.0404 4.06824 22.7868 3.57054C22.3793 2.77085 21.7291 2.12068 20.9295 1.71322C20.4318 1.45963 19.8899 1.35165 19.2599 1.30018C18.6456 1.24999 17.8851 1.24999 16.9326 1.25Z" fill="#353566"/>
<path d="M7.51048 9.01269C8.68852 7.91825 10.2651 7.25 11.9993 7.25C13.7342 7.25 15.3112 7.91869 16.4894 9.01379C16.7928 9.29579 17.2673 9.27845 17.5493 8.97506C17.8313 8.67166 17.814 8.19711 17.5106 7.9151C16.0659 6.57228 14.1278 5.75 11.9993 5.75C9.87158 5.75 7.93407 6.57172 6.48953 7.91375C6.18607 8.19568 6.16861 8.67023 6.45054 8.97369C6.73246 9.27716 7.20702 9.29461 7.51048 9.01269Z" fill="#353566"/>
<path d="M9.25 20V18.75H14.75V20C14.75 20.6904 15.3096 21.25 16 21.25H16.5C16.9142 21.25 17.25 21.5858 17.25 22C17.25 22.4142 16.9142 22.75 16.5 22.75H7.5C7.08579 22.75 6.75 22.4142 6.75 22C6.75 21.5858 7.08579 21.25 7.5 21.25H8C8.69036 21.25 9.25 20.6904 9.25 20Z" fill="#353566"/>
<path d="M12.0032 10.5833C11.2185 10.5833 10.5008 10.9138 9.96971 11.4648C9.68227 11.7631 9.20747 11.7718 8.90923 11.4844C8.61098 11.1969 8.60223 10.7221 8.88967 10.4239C9.68312 9.60063 10.7827 9.08325 12.0032 9.08325C13.2237 9.08325 14.3233 9.60063 15.1168 10.4239C15.4042 10.7221 15.3955 11.1969 15.0972 11.4844C14.799 11.7718 14.3242 11.7631 14.0367 11.4648C13.5057 10.9138 12.7879 10.5833 12.0032 10.5833Z" fill="#353566"/>
<path d="M12 12C11.4477 12 11 12.4477 11 13C11 13.5523 11.4477 14 12 14C12.5523 14 13.0001 13.5523 13.0001 13C13.0001 12.4477 12.5523 12 12 12Z" fill="#353566"/>
</svg>
