<svg width="24" height="24" viewBox="0 0 24 24" fill="none" xmlns="http://www.w3.org/2000/svg">
<path opacity="0.4" d="M16.5435 0.5H7.45645C7.2497 0.499995 7.07129 0.49999 6.92345 0.509508C6.76788 0.519522 6.61206 0.541532 6.45712 0.601688C6.06453 0.754105 5.75411 1.06453 5.60169 1.45712C5.54153 1.61206 5.51952 1.76788 5.50951 1.92345C5.49999 2.07129 5.49999 2.24969 5.5 2.45644V3.68941C5.5 3.9198 5.5 4.04544 5.50336 4.16832C5.55624 6.10453 6.23237 7.97201 7.43126 9.4933C7.50734 9.58983 7.58776 9.68634 7.73521 9.86328L7.74089 9.87009C7.76957 9.90451 7.77794 9.91462 7.78542 9.92411C7.91863 10.0931 7.99375 10.3006 7.99963 10.5158C7.99996 10.5278 8 10.541 8 10.5858L8 20.6207C7.99999 21.0231 7.99999 21.3553 8.0221 21.6259C8.04506 21.907 8.09434 22.1653 8.21799 22.408C8.40973 22.7843 8.7157 23.0903 9.09202 23.282C9.33469 23.4057 9.59304 23.4549 9.87409 23.4779C10.1447 23.5 10.4768 23.5 10.8793 23.5H13.1207C13.5231 23.5 13.8553 23.5 14.1259 23.4779C14.407 23.4549 14.6653 23.4057 14.908 23.282C15.2843 23.0903 15.5903 22.7843 15.782 22.408C15.9057 22.1653 15.9549 21.907 15.9779 21.6259C16 21.3553 16 21.0231 16 20.6207V10.5858C16 10.541 16 10.5278 16.0004 10.5158C16.0062 10.3006 16.0814 10.0931 16.2146 9.92411C16.2221 9.91462 16.2304 9.9045 16.2591 9.87009L16.2647 9.8634C16.4122 9.68638 16.4926 9.58985 16.5687 9.4933C17.7676 7.97201 18.4438 6.10453 18.4966 4.16832C18.5 4.04544 18.5 3.91979 18.5 3.68936V2.45644C18.5 2.24969 18.5 2.07128 18.4905 1.92345C18.4805 1.76788 18.4585 1.61206 18.3983 1.45712C18.2459 1.06453 17.9355 0.754106 17.5429 0.601688C17.3879 0.541532 17.2321 0.519522 17.0766 0.509508C16.9287 0.49999 16.7503 0.499995 16.5435 0.5Z" fill="#353566"/>
<path d="M5.63931 5.5H18.3607C18.4387 5.0621 18.4844 4.61706 18.4966 4.16832C18.5 4.04543 18.5 3.91978 18.5 3.68936V2.45644C18.5 2.24969 18.5 2.07129 18.4905 1.92345C18.4805 1.76788 18.4585 1.61206 18.3983 1.45712C18.2459 1.06453 17.9355 0.754106 17.5429 0.601688C17.3879 0.541533 17.2321 0.519523 17.0766 0.509508C16.9287 0.499991 16.7503 0.499995 16.5436 0.5H7.45645C7.24971 0.499995 7.07128 0.499991 6.92345 0.509508C6.76788 0.519523 6.61206 0.541533 6.45712 0.601688C6.06453 0.754106 5.75411 1.06453 5.60169 1.45712C5.54153 1.61206 5.51952 1.76788 5.50951 1.92345C5.49999 2.07128 5.5 2.24967 5.5 2.45641V3.68941C5.5 3.9198 5.5 4.04544 5.50336 4.16832C5.51561 4.61706 5.56135 5.0621 5.63931 5.5Z" fill="#353566"/>
<path d="M12.75 13C12.75 12.5858 12.4142 12.25 12 12.25C11.5858 12.25 11.25 12.5858 11.25 13V16C11.25 16.4142 11.5858 16.75 12 16.75C12.4142 16.75 12.75 16.4142 12.75 16V13Z" fill="#353566"/>
</svg>
