<svg width="24" height="24" viewBox="0 0 24 24" fill="none" xmlns="http://www.w3.org/2000/svg">
<path opacity="0.4" d="M15.8135 1.32604C15.4951 1.24959 15.1656 1.24978 14.747 1.25003L5.7679 1.25005C4.95506 1.25005 4.29944 1.25004 3.76853 1.29342C3.2219 1.33808 2.74175 1.43244 2.29754 1.65878C1.59193 2.01831 1.01825 2.59198 0.658726 3.29759C0.432386 3.74181 0.338026 4.22195 0.293364 4.76859C0.249987 5.29949 0.249993 5.9551 0.25 6.76794V17.2322C0.249993 18.045 0.249987 18.7006 0.293364 19.2315C0.338026 19.7782 0.432386 20.2583 0.658726 20.7025C1.01825 21.4081 1.59193 21.9818 2.29754 22.3413C2.74175 22.5677 3.2219 22.662 3.76853 22.7067C4.29944 22.7501 4.95505 22.7501 5.76788 22.7501H16.2146C16.8456 22.7501 17.3787 22.7501 17.8275 22.7311C18.0752 22.7206 18.3017 22.5884 18.4326 22.3779C18.5636 22.1674 18.5821 21.9058 18.482 21.679C18.4386 21.5805 18.3988 21.4795 18.3628 21.3762C18.2986 21.1915 18.1648 21.0392 17.9899 20.9518L16.2452 20.0794C16.0704 19.992 15.8683 19.9763 15.682 20.0357C15.2611 20.1698 14.8804 20.2501 14.5 20.2501C12.7051 20.2501 11.25 18.795 11.25 17.0001C11.25 15.2051 12.7051 13.7501 14.5 13.7501C14.8804 13.7501 15.2611 13.8303 15.682 13.9644C15.8683 14.0238 16.0704 14.0081 16.2452 13.9207L17.9899 13.0484C18.1648 12.9609 18.2986 12.8086 18.3628 12.6239C18.8092 11.3404 19.8342 10.4338 21.0936 10.2753C21.4687 10.2281 21.75 9.90918 21.75 9.53117L21.75 8.25306C21.7503 7.83445 21.7505 7.50492 21.674 7.18651C21.6067 6.90591 21.4955 6.63766 21.3448 6.39161C21.1737 6.1124 20.9405 5.87952 20.6443 5.58368L17.4164 2.35573C17.1205 2.05956 16.8876 1.82639 16.6084 1.65529C16.3624 1.50452 16.0941 1.3934 15.8135 1.32604Z" fill="#353566"/>
<path d="M13.5 6.75C13.9142 6.75 14.25 7.08579 14.25 7.5C14.25 7.91421 13.9142 8.25 13.5 8.25L8.5 8.25C8.08579 8.25 7.75 7.91421 7.75 7.5C7.75 7.08579 8.08579 6.75 8.5 6.75H13.5Z" fill="#353566"/>
<path d="M4.75 15.25C4.75 14.1454 5.64543 13.25 6.75 13.25H11.8542C12.166 13.25 12.4454 13.443 12.5557 13.7347C12.666 14.0264 12.5843 14.3559 12.3505 14.5623C11.6745 15.1589 11.25 16.0294 11.25 17C11.25 18.7949 12.7051 20.25 14.5 20.25C14.8804 20.25 15.2611 20.1698 15.682 20.0356C15.8683 19.9762 16.0704 19.9919 16.2452 20.0794L16.8354 20.3745C17.0895 20.5015 17.25 20.7612 17.25 21.0453V22C17.25 22.4142 16.9142 22.75 16.5 22.75H4.75V15.25Z" fill="#353566"/>
<path d="M20.0098 14.8335L16.4615 16.6076C16.4868 16.7345 16.5 16.8657 16.5 17C16.5 17.1343 16.4868 17.2655 16.4615 17.3924L20.0098 19.1665C20.376 18.7575 20.9081 18.5 21.5004 18.5C22.605 18.5 23.5004 19.3954 23.5004 20.5C23.5004 21.6046 22.605 22.5 21.5004 22.5C20.4259 22.5 19.5494 21.6528 19.5024 20.5899L15.6642 18.6708C15.652 18.6647 15.64 18.6583 15.6282 18.6516C15.3071 18.8714 14.9186 19 14.5 19C13.3954 19 12.5 18.1046 12.5 17C12.5 15.8954 13.3954 15 14.5 15C14.9186 15 15.3071 15.1286 15.6283 15.3484C15.64 15.3417 15.652 15.3353 15.6642 15.3292L19.5024 13.4101C19.5494 12.3473 20.426 11.5 21.5004 11.5C22.605 11.5 23.5004 12.3954 23.5004 13.5C23.5004 14.6046 22.605 15.5 21.5004 15.5C20.9081 15.5 20.376 15.2425 20.0098 14.8335Z" fill="#353566"/>
</svg>
