<svg width="24" height="24" viewBox="0 0 24 24" fill="none" xmlns="http://www.w3.org/2000/svg">
<path opacity="0.4" d="M17.0314 2.25H6.96858C6.29521 2.24999 5.74449 2.24998 5.29693 2.28655C4.83367 2.3244 4.41527 2.40514 4.02453 2.60423C3.413 2.91582 2.91582 3.413 2.60423 4.02453C2.40514 4.41527 2.3244 4.83367 2.28655 5.29693C2.24998 5.74449 2.24999 6.2952 2.25 6.96857V16C2.25 16.4142 2.58579 16.75 3 16.75H10C10.4142 16.75 10.75 16.4142 10.75 16C10.75 11.9959 13.9959 8.75 18 8.75C18.9628 8.75 19.88 8.93729 20.7186 9.27672C20.9498 9.37031 21.2124 9.34284 21.4192 9.20343C21.626 9.06403 21.75 8.83093 21.75 8.58152V6.96856C21.75 6.29519 21.75 5.74449 21.7134 5.29693C21.6756 4.83367 21.5949 4.41527 21.3958 4.02453C21.0842 3.413 20.587 2.91582 19.9755 2.60423C19.5847 2.40514 19.1663 2.3244 18.7031 2.28655C18.2555 2.24998 17.7048 2.24999 17.0314 2.25Z" fill="#353566"/>
<path fill-rule="evenodd" clip-rule="evenodd" d="M18 10.25C14.8244 10.25 12.25 12.8244 12.25 16C12.25 19.1756 14.8244 21.75 18 21.75C21.1756 21.75 23.75 19.1756 23.75 16C23.75 12.8244 21.1756 10.25 18 10.25ZM15.5581 15.0581C15.314 15.3022 15.314 15.6979 15.5581 15.942C15.8021 16.186 16.1979 16.186 16.4419 15.942L17.375 15.0089V18.5C17.375 18.8452 17.6548 19.125 18 19.125C18.3452 19.125 18.625 18.8452 18.625 18.5V15.0089L19.5581 15.9419C19.8021 16.186 20.1979 16.186 20.442 15.9419C20.686 15.6979 20.686 15.3021 20.442 15.058L18.442 13.0581C18.3248 12.9408 18.1658 12.875 18 12.875C17.8343 12.875 17.6753 12.9408 17.5581 13.0581L15.5581 15.0581Z" fill="#353566"/>
<path d="M0.25 16C0.25 15.5858 0.585786 15.25 1 15.25H10C10.4142 15.25 10.75 15.5858 10.75 16C10.75 16.9628 10.9373 17.88 11.2767 18.7186C11.3703 18.9498 11.3428 19.2124 11.2034 19.4192C11.064 19.626 10.8309 19.75 10.5815 19.75H3.25C1.59315 19.75 0.25 18.4069 0.25 16.75V16Z" fill="#353566"/>
</svg>
