<svg width="24" height="24" viewBox="0 0 24 24" fill="none" xmlns="http://www.w3.org/2000/svg">
<path opacity="0.4" d="M17.0314 2.25H6.96858C6.29521 2.24999 5.74449 2.24998 5.29693 2.28655C4.83367 2.3244 4.41527 2.40514 4.02453 2.60423C3.413 2.91582 2.91582 3.413 2.60423 4.02453C2.40514 4.41527 2.3244 4.83367 2.28655 5.29693C2.24998 5.74449 2.24999 6.2952 2.25 6.96857V16C2.25 16.4142 2.58579 16.75 3 16.75H12.5703C12.9307 16.75 13.2401 16.4937 13.3072 16.1396C13.3563 15.8806 13.4424 15.6586 13.5922 15.4556C13.8131 15.1561 13.8893 14.774 13.8006 14.413C13.6552 13.8214 13.8256 13.188 14.2632 12.749L16.2632 10.743C17.1502 9.85337 18.7381 10.2278 19.15 11.3991C19.3257 11.8989 19.7975 12.235 20.329 12.235H21C21.4142 12.235 21.75 11.8993 21.75 11.485V6.96856C21.75 6.29519 21.75 5.74449 21.7134 5.29693C21.6756 4.83367 21.5949 4.41527 21.3958 4.02453C21.0842 3.413 20.587 2.91582 19.9755 2.60423C19.5847 2.40514 19.1663 2.3244 18.7031 2.28655C18.2555 2.24998 17.7048 2.24999 17.0314 2.25Z" fill="#353566"/>
<path d="M23 17.25C23.4142 17.25 23.75 16.9142 23.75 16.5V15.5C23.75 14.2574 22.7426 13.25 21.5 13.25H17.3106L18.0303 12.5303C18.3232 12.2374 18.3232 11.7626 18.0303 11.4697C17.7374 11.1768 17.2625 11.1768 16.9696 11.4697L14.9696 13.4697C14.7551 13.6842 14.6909 14.0068 14.807 14.287C14.9231 14.5673 15.1966 14.75 15.4999 14.75H21.5C21.9142 14.75 22.25 15.0858 22.25 15.5V16.5C22.25 16.9142 22.5858 17.25 23 17.25Z" fill="#353566"/>
<path d="M1 15.25C0.585786 15.25 0.25 15.5858 0.25 16V16.75C0.25 18.4069 1.59315 19.75 3.25 19.75H12.7877C13.0367 19.75 13.2695 19.6264 13.4089 19.4201C13.5484 19.2139 13.5765 18.9518 13.4837 18.7207C13.3332 18.3455 13.2499 17.9349 13.2499 17.503C13.2499 17.4197 13.2494 17.3369 13.2489 17.2571L13.2488 17.2552C13.2459 16.8123 13.2461 16.4622 13.3072 16.1396C13.3488 15.9202 13.2904 15.6936 13.1479 15.5216C13.0054 15.3496 12.7937 15.25 12.5703 15.25H1Z" fill="#353566"/>
<path d="M14.25 16.5C14.25 16.0858 14.5858 15.75 15 15.75C15.4142 15.75 15.75 16.0858 15.75 16.5V17.5C15.75 17.9142 16.0858 18.25 16.5 18.25H22.5C22.8033 18.25 23.0768 18.4327 23.1929 18.713C23.309 18.9933 23.2448 19.3158 23.0303 19.5303L21.0303 21.5303C20.7374 21.8232 20.2625 21.8232 19.9696 21.5303C19.6767 21.2374 19.6767 20.7626 19.9696 20.4697L20.6893 19.75H16.5C15.2574 19.75 14.25 18.7426 14.25 17.5V16.5Z" fill="#353566"/>
</svg>
