<svg width="24" height="24" viewBox="0 0 24 24" fill="none" xmlns="http://www.w3.org/2000/svg">
<path opacity="0.4" d="M9.5 1.25C4.95951 1.25 1.25 4.8539 1.25 9.33456C1.25 11.9807 2.29431 14.2875 4.75 16.3547V17.5C4.75 18.7426 5.75736 19.75 7 19.75H12C12.0695 19.75 12.1384 19.7468 12.2066 19.7406C12.4466 19.7187 12.6614 19.5827 12.784 19.3753C12.9066 19.1678 12.9221 18.914 12.8255 18.6932C12.4674 17.8743 12.25 16.979 12.25 16.002C12.25 13.1298 14.3573 10.7451 17.1117 10.3181C17.4697 10.2626 17.7369 9.9591 17.7465 9.5969C17.7489 9.50968 17.75 9.42223 17.75 9.33456C17.75 4.8539 14.0405 1.25 9.5 1.25Z" fill="#353566"/>
<path fill-rule="evenodd" clip-rule="evenodd" d="M18.0001 11.5C15.5144 11.5 13.5 13.517 13.5 16.002C13.5 18.7667 15.7001 20.9001 17.7 22.4C17.8778 22.5333 18.1222 22.5333 18.3 22.4C20.3 20.9 22.5 18.7667 22.5 16C22.5 13.5147 20.4854 11.5 18.0001 11.5ZM19.5 16.0001C19.5 16.8285 18.8285 17.5001 18 17.5001C17.1716 17.5001 16.5 16.8285 16.5 16.0001C16.5 15.1716 17.1716 14.5001 18 14.5001C18.8285 14.5001 19.5 15.1716 19.5 16.0001Z" fill="#353566"/>
<path fill-rule="evenodd" clip-rule="evenodd" d="M4.75 16.3545C4.84185 16.4318 4.93567 16.5088 5.03148 16.5854C5.16446 16.6918 5.3297 16.7498 5.5 16.7498H12.2931C12.3731 17.4407 12.5609 18.0877 12.8256 18.693C12.8699 18.7942 12.8906 18.9024 12.8883 19.0098C13.1131 19.1788 13.2331 19.4678 13.1725 19.7615C12.8202 21.4673 11.3108 22.75 9.5 22.75C7.55848 22.75 5.96158 21.2745 5.76939 19.3837C5.15553 18.9819 4.75 18.2882 4.75 17.4998V16.3545ZM7.37795 19.7498H11.6223C11.3136 20.6239 10.4792 21.25 9.5 21.25C8.52026 21.25 7.68677 20.6238 7.37795 19.7498Z" fill="#353566"/>
</svg>
