<svg width="24" height="24" viewBox="0 0 24 24" fill="none" xmlns="http://www.w3.org/2000/svg">
<g clip-path="url(#clip0_9001_285047)">
<path opacity="0.4" d="M12 0.25C5.51065 0.25 0.25 5.51065 0.25 12C0.25 18.4893 5.51065 23.75 12 23.75C18.4893 23.75 23.75 18.4893 23.75 12C23.75 5.51065 18.4893 0.25 12 0.25Z" fill="#353566"/>
<path d="M12 5C10.3431 5 9 6.34315 9 8V11.5C9 13.1569 10.3431 14.5 12 14.5C13.6569 14.5 15 13.1569 15 11.5V8C15 6.34315 13.6569 5 12 5Z" fill="#353566"/>
<path d="M7.75 12C7.75 11.5858 7.41421 11.25 7 11.25C6.58579 11.25 6.25 11.5858 6.25 12C6.25 13.504 7.00576 14.8232 8.07067 15.7482C8.94894 16.5111 10.0718 17.0384 11.25 17.1987V18.5C11.25 18.9142 11.5858 19.25 12 19.25C12.4142 19.25 12.75 18.9142 12.75 18.5V17.1987C13.9282 17.0384 15.0511 16.5111 15.9293 15.7482C16.9942 14.8232 17.75 13.504 17.75 12C17.75 11.5858 17.4142 11.25 17 11.25C16.5858 11.25 16.25 11.5858 16.25 12C16.25 12.9812 15.7558 13.9121 14.9457 14.6158C14.1339 15.3209 13.0556 15.75 12 15.75C10.9444 15.75 9.8661 15.3209 9.05433 14.6158C8.24424 13.9121 7.75 12.9812 7.75 12Z" fill="#353566"/>
</g>
<defs>
<clipPath id="clip0_9001_285047">
<rect width="24" height="24" fill="white"/>
</clipPath>
</defs>
</svg>
