<svg width="24" height="24" viewBox="0 0 24 24" fill="none" xmlns="http://www.w3.org/2000/svg">
<path opacity="0.4" d="M10.8324 1.25H7.16762C6.285 1.24999 5.57692 1.24999 5.00433 1.29677C4.41601 1.34484 3.905 1.44601 3.43404 1.68597C2.68139 2.06947 2.06947 2.68139 1.68597 3.43404C1.44601 3.905 1.34484 4.41601 1.29677 5.00433C1.24999 5.57692 1.24999 6.28499 1.25 7.16762V16.8324C1.24999 17.715 1.24999 18.4231 1.29677 18.9957C1.34484 19.584 1.44601 20.095 1.68597 20.566C2.06947 21.3186 2.68139 21.9305 3.43404 22.314C3.905 22.554 4.41601 22.6552 5.00433 22.7032C5.57691 22.75 6.28499 22.75 7.16761 22.75L10.8703 22.75C11.9854 22.75 12.8322 22.7501 13.495 22.6449C13.8035 22.596 14.0495 22.3608 14.1122 22.0548C14.1749 21.7487 14.0413 21.4358 13.7768 21.2694C12.8587 20.6918 12.2499 19.6689 12.2499 18.503C12.2499 18.4196 12.2494 18.3367 12.2489 18.2567L12.2488 18.2552C12.2434 17.4219 12.2625 16.9025 12.5922 16.4556C12.8131 16.1561 12.8893 15.774 12.8006 15.413C12.6552 14.8214 12.8256 14.188 13.2632 13.749L15.2632 11.743C15.5158 11.4897 15.8194 11.34 16.1383 11.2802C16.493 11.2136 16.75 10.9039 16.75 10.543V7.1676C16.75 6.285 16.75 5.57691 16.7032 5.00433C16.6552 4.41601 16.554 3.905 16.314 3.43404C15.9305 2.68139 15.3186 2.06947 14.566 1.68597C14.095 1.44601 13.584 1.34484 12.9957 1.29677C12.4231 1.24999 11.715 1.24999 10.8324 1.25Z" fill="#353566"/>
<path d="M7.5 4.25C7.08579 4.25 6.75 4.58579 6.75 5C6.75 5.41421 7.08579 5.75 7.5 5.75H10.5C10.9142 5.75 11.25 5.41421 11.25 5C11.25 4.58579 10.9142 4.25 10.5 4.25H7.5Z" fill="#353566"/>
<path d="M9 17.5C8.44772 17.5 8 17.9477 8 18.5C8 19.0523 8.44772 19.5 9 19.5C9.55228 19.5 10.0001 19.0523 10.0001 18.5C10.0001 17.9477 9.55228 17.5 9 17.5Z" fill="#353566"/>
<path d="M22 18.25C22.4142 18.25 22.75 17.9142 22.75 17.5V16.5C22.75 15.2574 21.7426 14.25 20.5 14.25H16.3106L17.0303 13.5303C17.3232 13.2374 17.3232 12.7626 17.0303 12.4697C16.7374 12.1768 16.2625 12.1768 15.9696 12.4697L13.9696 14.4697C13.7551 14.6842 13.6909 15.0068 13.807 15.287C13.9231 15.5673 14.1966 15.75 14.4999 15.75H20.5C20.9142 15.75 21.25 16.0858 21.25 16.5V17.5C21.25 17.9142 21.5858 18.25 22 18.25Z" fill="#353566"/>
<path d="M13.25 17.5C13.25 17.0858 13.5858 16.75 14 16.75C14.4142 16.75 14.75 17.0858 14.75 17.5V18.5C14.75 18.9142 15.0858 19.25 15.5 19.25H21.5C21.8033 19.25 22.0768 19.4327 22.1929 19.713C22.309 19.9933 22.2448 20.3158 22.0303 20.5303L20.0303 22.5303C19.7374 22.8232 19.2625 22.8232 18.9696 22.5303C18.6767 22.2374 18.6767 21.7626 18.9696 21.4697L19.6893 20.75H15.5C14.2574 20.75 13.25 19.7426 13.25 18.5V17.5Z" fill="#353566"/>
</svg>
