<svg width="24" height="24" viewBox="0 0 24 24" fill="none" xmlns="http://www.w3.org/2000/svg">
<path opacity="0.4" d="M9.46858 1.25H14.5314C15.2048 1.24999 15.7555 1.24999 16.2031 1.28655C16.6663 1.3244 17.0847 1.40514 17.4755 1.60423C18.087 1.91582 18.5842 2.41301 18.8958 3.02453C19.0949 3.41527 19.1756 3.83367 19.2135 4.29693C19.25 4.74449 19.25 5.29518 19.25 5.96853V16.1534C19.1651 16.1933 19.0768 16.2331 18.9852 16.2726C17.66 16.8449 15.8512 17.2759 13.7624 17.4341L11.9141 15.5858C11.133 14.8047 9.86672 14.8047 9.08567 15.5858C8.6356 16.0359 8.44488 16.6471 8.5135 17.2337C7.15049 17.017 5.95955 16.6807 5.01458 16.2726C4.92303 16.2331 4.83486 16.1934 4.75 16.1535V5.96858C4.74999 5.29521 4.74998 4.74449 4.78655 4.29693C4.8244 3.83367 4.90514 3.41527 5.10423 3.02453C5.41582 2.41301 5.91301 1.91582 6.52453 1.60423C6.91527 1.40514 7.33367 1.3244 7.79693 1.28655C8.24449 1.24999 8.79523 1.24999 9.46858 1.25Z" fill="#353566"/>
<path d="M10.75 4.25C10.3358 4.25 10 4.58579 10 5C10 5.41421 10.3358 5.75 10.75 5.75H13.25C13.6642 5.75 14 5.41421 14 5C14 4.58579 13.6642 4.25 13.25 4.25H10.75Z" fill="#353566"/>
<path d="M19.25 11.9834V10.3789C20.4479 10.8059 21.4807 11.3481 22.2534 11.9921C23.1339 12.726 23.75 13.6596 23.75 14.7503C23.75 16.0402 22.8943 17.1054 21.7351 17.8992C20.5596 18.7042 18.9386 19.3307 17.0764 19.7333C16.6715 19.8209 16.2724 19.5636 16.1849 19.1588C16.0973 18.7539 16.3546 18.3547 16.7594 18.2672C18.5035 17.8902 19.9236 17.3217 20.8875 16.6616C21.8678 15.9904 22.25 15.3204 22.25 14.7503C22.25 14.2676 21.9804 13.7173 21.293 13.1444C20.7892 12.7244 20.1 12.3284 19.25 11.9834Z" fill="#353566"/>
<path d="M4.75 10.3789V11.9834C3.90002 12.3284 3.21079 12.7244 2.70697 13.1444C2.0196 13.7173 1.75 14.2676 1.75 14.7503C1.75 15.1545 1.93655 15.601 2.40023 16.0744C2.86722 16.5512 3.57978 17.0149 4.51915 17.4205C6.21948 18.1547 8.55065 18.6503 11.1761 18.7368L9.96967 17.5303C9.67678 17.2374 9.67678 16.7626 9.96967 16.4697C10.2626 16.1768 10.7374 16.1768 11.0303 16.4697L13.5303 18.9697C13.8232 19.2626 13.8232 19.7374 13.5303 20.0303L11.0303 22.5303C10.7374 22.8232 10.2626 22.8232 9.96967 22.5303C9.67678 22.2374 9.67678 21.7626 9.96967 21.4697L11.201 20.2383C8.39869 20.1539 5.84814 19.6283 3.9245 18.7976C2.87326 18.3436 1.97491 17.7838 1.32864 17.124C0.679063 16.4608 0.25 15.6577 0.25 14.7503C0.25 13.6596 0.866111 12.726 1.7466 11.9921C2.51931 11.3481 3.55207 10.8059 4.75 10.3789Z" fill="#353566"/>
</svg>
