<svg width="24" height="24" viewBox="0 0 24 24" fill="none" xmlns="http://www.w3.org/2000/svg">
<path opacity="0.4" d="M2.5 7C2.22386 7 2 7.22386 2 7.5V12C2 15.866 5.13401 19 9 19C9.68994 19 10.3574 18.9 10.9883 18.7135C11.136 18.6698 11.2554 18.5604 11.3118 18.4169C11.3682 18.2735 11.3553 18.1121 11.2768 17.9795C10.8085 17.1876 10.9375 16.1494 11.6387 15.498C12.7371 14.4776 14.0837 13.7174 15.5763 13.3175C15.7723 13.2651 15.9171 13.0994 15.9429 12.8981C15.9806 12.6039 16 12.3041 16 12V7.5C16 7.22386 15.7761 7 15.5 7H2.5Z" fill="#353566"/>
<path d="M5.75 1.25C6.16421 1.25 6.5 1.58579 6.5 2V5.75H5V2C5 1.58579 5.33579 1.25 5.75 1.25Z" fill="#353566"/>
<path d="M12.25 1.25C12.6642 1.25 13 1.58579 13 2V5.75H11.5V2C11.5 1.58579 11.8358 1.25 12.25 1.25Z" fill="#353566"/>
<path d="M9 18.9997C8.74663 18.9997 8.49641 18.9862 8.25 18.96V21.9997C8.25 22.4139 8.58579 22.7497 9 22.7497C9.41421 22.7497 9.75 22.4139 9.75 21.9997V18.96C9.5036 18.9862 9.25337 18.9997 9 18.9997Z" fill="#353566"/>
<path d="M17.75 7.5C17.75 7.91421 17.4142 8.25 17 8.25L1 8.25C0.585787 8.25 0.25 7.91421 0.25 7.5C0.25 7.08578 0.585787 6.75 1 6.75L17 6.75C17.4142 6.75 17.75 7.08579 17.75 7.5Z" fill="#353566"/>
<path d="M13.5105 17.5127C14.6885 16.4182 16.2651 15.75 17.9993 15.75C19.7342 15.75 21.3112 16.4187 22.4894 17.5138C22.7928 17.7958 23.2673 17.7785 23.5493 17.4751C23.8313 17.1717 23.814 16.6971 23.5106 16.4151C22.0659 15.0723 20.1278 14.25 17.9993 14.25C15.8716 14.25 13.9341 15.0717 12.4895 16.4138C12.1861 16.6957 12.1686 17.1702 12.4505 17.4737C12.7325 17.7772 13.207 17.7946 13.5105 17.5127Z" fill="#353566"/>
<path d="M18.0032 19.083C17.2185 19.083 16.5008 19.4135 15.9697 19.9646C15.6823 20.2628 15.2075 20.2716 14.9092 19.9841C14.611 19.6967 14.6022 19.2219 14.8897 18.9237C15.6831 18.1004 16.7827 17.583 18.0032 17.583C19.2237 17.583 20.3233 18.1004 21.1168 18.9237C21.4042 19.2219 21.3955 19.6967 21.0972 19.9841C20.799 20.2716 20.3242 20.2628 20.0367 19.9646C19.5057 19.4135 18.7879 19.083 18.0032 19.083Z" fill="#353566"/>
<path d="M18 20.5C17.4477 20.5 17 20.9477 17 21.5C17 22.0523 17.4477 22.5 18 22.5C18.5523 22.5 19.0001 22.0523 19.0001 21.5C19.0001 20.9477 18.5523 20.5 18 20.5Z" fill="#353566"/>
</svg>
