<svg width="24" height="24" viewBox="0 0 24 24" fill="none" xmlns="http://www.w3.org/2000/svg">
<path opacity="0.4" d="M2.5 7C2.22386 7 2 7.22386 2 7.5V12C2 15.866 5.13401 19 9 19C9.41173 19 9.81556 18.9644 10.2085 18.896C10.3393 18.8732 10.4558 18.7993 10.532 18.6905C10.6083 18.5817 10.6382 18.4471 10.615 18.3163C10.5395 17.8893 10.5 17.4494 10.5 17C10.5 13.6771 12.6613 10.8577 15.6561 9.87338C15.8613 9.80594 16 9.61437 16 9.39838V7.5C16 7.22386 15.7761 7 15.5 7H2.5Z" fill="#353566"/>
<path d="M12.25 1.25C12.6642 1.25 13 1.58579 13 2V5.75H11.5V2C11.5 1.58579 11.8358 1.25 12.25 1.25Z" fill="#353566"/>
<path d="M5.75 1.25C6.16421 1.25 6.5 1.58579 6.5 2V5.75H5V2C5 1.58579 5.33579 1.25 5.75 1.25Z" fill="#353566"/>
<path d="M9 18.9997C8.74663 18.9997 8.49641 18.9862 8.25 18.96V21.9997C8.25 22.4139 8.58579 22.7497 9 22.7497C9.41421 22.7497 9.75 22.4139 9.75 21.9997V18.96C9.5036 18.9862 9.25337 18.9997 9 18.9997Z" fill="#353566"/>
<path d="M17.75 7.5C17.75 7.91421 17.4142 8.25 17 8.25L1 8.25C0.585787 8.25 0.25 7.91421 0.25 7.5C0.25 7.08578 0.585787 6.75 1 6.75L17 6.75C17.4142 6.75 17.75 7.08579 17.75 7.5Z" fill="#353566"/>
<path fill-rule="evenodd" clip-rule="evenodd" d="M23.75 17C23.75 13.8244 21.1756 11.25 18 11.25C14.8244 11.25 12.25 13.8244 12.25 17C12.25 20.1756 14.8244 22.75 18 22.75C21.1756 22.75 23.75 20.1756 23.75 17ZM18 12.75C20.3472 12.75 22.25 14.6528 22.25 17C22.25 17.9027 21.9686 18.7397 21.4886 19.428L15.572 13.5114C16.2603 13.0314 17.0973 12.75 18 12.75ZM18 21.25C18.9027 21.25 19.7397 20.9686 20.428 20.4886L14.5114 14.572C14.0314 15.2603 13.75 16.0973 13.75 17C13.75 19.3472 15.6528 21.25 18 21.25Z" fill="#353566"/>
</svg>
