<svg width="24" height="24" viewBox="0 0 24 24" fill="none" xmlns="http://www.w3.org/2000/svg">
<path opacity="0.4" d="M18.6318 12.25H5.36821C4.62513 12.25 4.02197 12.25 3.53273 12.29C3.02778 12.3312 2.57851 12.4188 2.16103 12.6315C1.50247 12.967 0.967035 13.5025 0.631478 14.161C0.418761 14.5785 0.331214 15.0278 0.289958 15.5327C0.249986 16.022 0.249992 16.6251 0.25 17.3682V17.6318C0.249992 18.3749 0.249986 18.978 0.289958 19.4673C0.331214 19.9722 0.418761 20.4215 0.631478 20.839C0.967035 21.4975 1.50247 22.033 2.16103 22.3685C2.57851 22.5812 3.02778 22.6688 3.53273 22.71C4.02196 22.75 4.62511 22.75 5.36819 22.75H18.6318C19.3749 22.75 19.978 22.75 20.4673 22.71C20.9722 22.6688 21.4215 22.5812 21.839 22.3685C22.4975 22.033 23.033 21.4975 23.3685 20.839C23.5812 20.4215 23.6688 19.9722 23.71 19.4673C23.75 18.9781 23.75 18.3749 23.75 17.6319V17.3682C23.75 16.6252 23.75 16.0219 23.71 15.5327C23.6688 15.0278 23.5812 14.5785 23.3685 14.161C23.033 13.5025 22.4975 12.967 21.839 12.6315C21.4215 12.4188 20.9722 12.3312 20.4673 12.29C19.978 12.25 19.3749 12.25 18.6318 12.25Z" fill="#353566"/>
<path d="M11.4586 3.68516C12.8964 2.18561 14.8438 1.25 17.0007 1.25C19.1568 1.25 21.1036 2.18498 22.5412 3.68365C22.828 3.98257 22.8181 4.45734 22.5192 4.74409C22.2203 5.03083 21.7455 5.02097 21.4588 4.72205C20.2739 3.48686 18.7066 2.75 17.0007 2.75C15.2942 2.75 13.7264 3.48735 12.5414 4.7233C12.2547 5.02228 11.7799 5.03226 11.4809 4.74559C11.1819 4.45892 11.172 3.98415 11.4586 3.68516Z" fill="#353566"/>
<path d="M17 13.75C16.5858 13.75 16.25 13.4142 16.25 13V9.00009C15.9464 8.77204 15.75 8.40895 15.75 8C15.75 7.30964 16.3096 6.75 17 6.75C17.6904 6.75 18.25 7.30964 18.25 8C18.25 8.40895 18.0536 8.77204 17.75 9.00009V13C17.75 13.4142 17.4142 13.75 17 13.75Z" fill="#353566"/>
<path d="M17 3.65002C15.8026 3.65002 14.7274 4.16866 13.9545 4.9879C13.6702 5.28919 13.684 5.76386 13.9853 6.04812C14.2866 6.33237 14.7613 6.31857 15.0455 6.01729C15.5593 5.47279 16.2495 5.15002 17 5.15002C17.7505 5.15002 18.4408 5.47279 18.9545 6.01729C19.2387 6.31857 19.7134 6.33237 20.0147 6.04812C20.316 5.76386 20.3298 5.28919 20.0455 4.9879C19.2726 4.16866 18.1974 3.65002 17 3.65002Z" fill="#353566"/>
<path d="M5.5 16.5C4.94772 16.5 4.5 16.9477 4.5 17.5C4.5 18.0523 4.94772 18.5 5.5 18.5C6.05228 18.5 6.5001 18.0523 6.5001 17.5C6.5001 16.9477 6.05228 16.5 5.5 16.5Z" fill="#353566"/>
<path d="M7.5 17.5C7.5 16.9477 7.94772 16.5 8.5 16.5C9.05228 16.5 9.5001 16.9477 9.5001 17.5C9.5001 18.0523 9.05238 18.5 8.5001 18.5C7.94782 18.5 7.5 18.0523 7.5 17.5Z" fill="#353566"/>
<path d="M11.5 16.5C10.9477 16.5 10.5 16.9477 10.5 17.5C10.5 18.0523 10.9477 18.5 11.5 18.5C12.0523 18.5 12.5001 18.0523 12.5001 17.5C12.5001 16.9477 12.0523 16.5 11.5 16.5Z" fill="#353566"/>
</svg>
