<svg width="24" height="24" viewBox="0 0 24 24" fill="none" xmlns="http://www.w3.org/2000/svg">
<path opacity="0.4" d="M12.8324 1.25H6.16762C5.285 1.24999 4.57692 1.24999 4.00433 1.29677C3.41601 1.34484 2.905 1.44601 2.43404 1.68597C1.68139 2.06947 1.06947 2.68139 0.685974 3.43404C0.44601 3.905 0.344838 4.41601 0.29677 5.00433C0.249988 5.57692 0.249993 6.28499 0.25 7.16762V16.8324C0.249993 17.715 0.249988 18.4231 0.29677 18.9957C0.344838 19.584 0.44601 20.095 0.685974 20.566C1.06947 21.3186 1.68139 21.9305 2.43404 22.314C2.905 22.554 3.41601 22.6552 4.00433 22.7032C4.57691 22.75 5.28499 22.75 6.16761 22.75H12.8324C13.715 22.75 14.4231 22.75 14.9957 22.7032C15.584 22.6552 16.095 22.554 16.566 22.314C16.8463 22.1712 17.1071 21.9967 17.3439 21.795C17.5354 21.6318 17.6324 21.3834 17.602 21.1335C17.5717 20.8837 17.418 20.6658 17.1929 20.5532L16.2452 20.0794C16.0704 19.9919 15.8683 19.9762 15.682 20.0356C15.2611 20.1698 14.8804 20.25 14.5 20.25C12.7051 20.25 11.25 18.7949 11.25 17C11.25 15.2051 12.7051 13.75 14.5 13.75C14.8804 13.75 15.2611 13.8302 15.682 13.9644C15.8683 14.0238 16.0704 14.0081 16.2452 13.9206L17.9899 13.0483C18.1648 12.9609 18.2986 12.8085 18.3628 12.6239C18.4418 12.3968 18.5393 12.181 18.6533 11.9787C18.7167 11.8663 18.75 11.7395 18.75 11.6104V7.16761C18.75 6.28499 18.75 5.57691 18.7032 5.00433C18.6552 4.41601 18.554 3.905 18.314 3.43404C17.9305 2.68139 17.3186 2.06947 16.566 1.68597C16.095 1.44601 15.584 1.34484 14.9957 1.29677C14.4231 1.24999 13.715 1.24999 12.8324 1.25Z" fill="#353566"/>
<path d="M7.25 5C7.25 4.58579 7.58579 4.25 8 4.25H11C11.4142 4.25 11.75 4.58579 11.75 5C11.75 5.41421 11.4142 5.75 11 5.75H8C7.58579 5.75 7.25 5.41421 7.25 5Z" fill="#353566"/>
<path d="M8.5 18.5C8.5 17.9477 8.94772 17.5 9.5 17.5C10.0523 17.5 10.5001 17.9477 10.5001 18.5C10.5001 19.0523 10.0524 19.5 9.5001 19.5C8.94782 19.5 8.5 19.0523 8.5 18.5Z" fill="#353566"/>
<path d="M20.0098 14.8335L16.4615 16.6076C16.4868 16.7345 16.5 16.8657 16.5 17C16.5 17.1343 16.4868 17.2655 16.4615 17.3924L20.0098 19.1665C20.376 18.7575 20.9081 18.5 21.5004 18.5C22.605 18.5 23.5004 19.3954 23.5004 20.5C23.5004 21.6046 22.605 22.5 21.5004 22.5C20.4259 22.5 19.5494 21.6528 19.5024 20.5899L15.6642 18.6708C15.652 18.6647 15.64 18.6583 15.6282 18.6516C15.3071 18.8714 14.9186 19 14.5 19C13.3954 19 12.5 18.1046 12.5 17C12.5 15.8954 13.3954 15 14.5 15C14.9186 15 15.3071 15.1286 15.6283 15.3484C15.64 15.3417 15.652 15.3353 15.6642 15.3292L19.5024 13.4101C19.5494 12.3473 20.426 11.5 21.5004 11.5C22.605 11.5 23.5004 12.3954 23.5004 13.5C23.5004 14.6046 22.605 15.5 21.5004 15.5C20.9081 15.5 20.376 15.2425 20.0098 14.8335Z" fill="#353566"/>
</svg>
