<svg width="24" height="24" viewBox="0 0 24 24" fill="none" xmlns="http://www.w3.org/2000/svg">
<path opacity="0.4" d="M12.8324 1.25H6.16762C5.285 1.24999 4.57692 1.24999 4.00433 1.29677C3.41601 1.34484 2.905 1.44601 2.43404 1.68597C1.68139 2.06947 1.06947 2.68139 0.685974 3.43404C0.44601 3.905 0.344838 4.41601 0.29677 5.00433C0.249988 5.57692 0.249993 6.28499 0.25 7.16762V16.8324C0.249993 17.715 0.249988 18.4231 0.29677 18.9957C0.344838 19.584 0.44601 20.095 0.685974 20.566C1.06947 21.3186 1.68139 21.9305 2.43404 22.314C2.905 22.554 3.41601 22.6552 4.00433 22.7032C4.57691 22.75 5.28499 22.75 6.16761 22.75H12.8027C13.1775 22.75 13.5187 22.75 13.8276 22.7468C14.1323 22.7437 14.4049 22.5565 14.5171 22.2732C14.6294 21.9899 14.5591 21.6668 14.3393 21.4558C13.3991 20.5532 12.7276 19.807 12.307 19.2217C10.9341 17.3098 10.9265 14.7039 12.1235 13.076C13.1645 11.6602 14.8354 11.0137 16.349 11.3288C16.7978 11.4242 17.2321 11.5869 17.6828 11.7969C17.8836 11.8905 18.1159 11.8903 18.3167 11.7968C18.581 11.6737 18.75 11.4085 18.75 11.1169V7.16761C18.75 6.28499 18.75 5.57691 18.7032 5.00433C18.6552 4.41601 18.554 3.905 18.314 3.43404C17.9305 2.68139 17.3186 2.06947 16.566 1.68597C16.095 1.44601 15.584 1.34484 14.9957 1.29677C14.4231 1.24999 13.715 1.24999 12.8324 1.25Z" fill="#353566"/>
<path d="M7.25 5C7.25 4.58579 7.58579 4.25 8 4.25H11C11.4142 4.25 11.75 4.58579 11.75 5C11.75 5.41421 11.4142 5.75 11 5.75H8C7.58579 5.75 7.25 5.41421 7.25 5Z" fill="#353566"/>
<path d="M8.5 18.5C8.5 17.9477 8.94772 17.5 9.5 17.5C10.0523 17.5 10.5001 17.9477 10.5001 18.5C10.5001 19.0523 10.0524 19.5 9.5001 19.5C8.94782 19.5 8.5 19.0523 8.5 18.5Z" fill="#353566"/>
<path d="M19.9021 12.5517C20.847 12.3556 22.0491 12.7049 22.8641 13.8092C23.7044 14.9477 23.7815 16.9092 22.6739 18.4463C21.902 19.5175 20.3335 20.9543 19.326 21.8349C19.3023 21.8557 19.2787 21.8766 19.2549 21.8976C19.006 22.1173 18.7484 22.3448 18.425 22.4404C18.1559 22.5199 17.8441 22.5199 17.5751 22.4404C17.2517 22.3448 16.994 22.1173 16.7451 21.8976C16.7214 21.8766 16.6977 21.8557 16.6741 21.8349C15.6666 20.9544 14.098 19.5175 13.3262 18.4463C12.2186 16.9092 12.2957 14.9478 13.136 13.8092C13.951 12.7049 15.153 12.3556 16.0979 12.5517L16.0999 12.5521C16.8341 12.7076 17.4857 13.0554 18 13.6007C18.5143 13.0554 19.166 12.7076 19.9002 12.5521L19.9021 12.5517Z" fill="#353566"/>
</svg>
