<svg width="24" height="24" viewBox="0 0 24 24" fill="none" xmlns="http://www.w3.org/2000/svg">
<path opacity="0.4" d="M15.0219 5H8.97813C8.2966 5 7.75459 4.99999 7.31729 5.03572C6.86949 5.07231 6.48766 5.14884 6.13803 5.32698C5.57355 5.6146 5.11461 6.07354 4.82698 6.63803C4.64884 6.98765 4.57231 7.36949 4.53573 7.81729C4.5 8.25456 4.5 8.79654 4.5 9.47802L4.5 12.5142C4.49998 12.8633 4.49996 13.0829 4.52752 13.3013C4.55195 13.4951 4.59256 13.6865 4.64892 13.8734C4.71247 14.0843 4.80166 14.2849 4.94346 14.6039L5.2673 15.3325C5.37513 15.5751 5.41106 15.6582 5.43618 15.7415C5.46034 15.8217 5.47774 15.9037 5.48821 15.9867C5.49911 16.0731 5.5 16.1636 5.5 16.4291V19.4217C5.5 20.0334 5.5 20.5229 5.53232 20.9185C5.5655 21.3246 5.63522 21.6756 5.79974 21.9985C6.06339 22.5159 6.48409 22.9366 7.00153 23.2003C7.32442 23.3648 7.67538 23.4345 8.08149 23.4677C8.4771 23.5 8.96662 23.5 9.57828 23.5H14.4217C15.0333 23.5 15.5229 23.5 15.9185 23.4677C16.3246 23.4345 16.6756 23.3648 16.9985 23.2003C17.5159 22.9366 17.9366 22.5159 18.2003 21.9985C18.3648 21.6756 18.4345 21.3246 18.4677 20.9185C18.5 20.5229 18.5 20.0334 18.5 19.4217V16.4291C18.5 16.1636 18.5009 16.0731 18.5118 15.9867C18.5223 15.9037 18.5397 15.8217 18.5638 15.7415C18.5889 15.6582 18.6249 15.5751 18.7327 15.3325L19.0565 14.6039C19.1983 14.2849 19.2875 14.0843 19.3511 13.8734C19.4074 13.6865 19.4481 13.4951 19.4725 13.3013C19.5 13.0829 19.5 12.8633 19.5 12.5142L19.5 9.47811C19.5 8.79661 19.5 8.25457 19.4643 7.81729C19.4277 7.36949 19.3512 6.98765 19.173 6.63803C18.8854 6.07354 18.4265 5.6146 17.862 5.32698C17.5124 5.14884 17.1305 5.07231 16.6827 5.03572C16.2454 4.99999 15.7034 5 15.0219 5Z" fill="#353566"/>
<path d="M7.75 1V5H9.25V1C9.25 0.585787 8.91421 0.25 8.5 0.25C8.08579 0.25 7.75 0.585786 7.75 1Z" fill="#353566"/>
<path d="M14.75 3.75L14.75 5L16.25 5V3.75C16.25 3.33579 15.9142 3 15.5 3C15.0858 3 14.75 3.33579 14.75 3.75Z" fill="#353566"/>
<path d="M12.25 5L12.25 3.75C12.25 3.33579 12.5858 3 13 3C13.4142 3 13.75 3.33579 13.75 3.75L13.75 5L12.25 5Z" fill="#353566"/>
<path d="M9.5 15.75C9.08579 15.75 8.75 16.0858 8.75 16.5C8.75 16.9142 9.08579 17.25 9.5 17.25H14.5C14.9142 17.25 15.25 16.9142 15.25 16.5C15.25 16.0858 14.9142 15.75 14.5 15.75H9.5Z" fill="#353566"/>
<path d="M9.75 19.5C9.75 19.0858 10.0858 18.75 10.5 18.75H13.5C13.9142 18.75 14.25 19.0858 14.25 19.5C14.25 19.9142 13.9142 20.25 13.5 20.25H10.5C10.0858 20.25 9.75 19.9142 9.75 19.5Z" fill="#353566"/>
<path d="M9.5893 8.25H14.4107C14.6816 8.25 14.9002 8.25 15.0772 8.26445C15.2594 8.27934 15.4194 8.31079 15.5675 8.38624C15.8027 8.50608 15.9939 8.69731 16.1138 8.93251C16.1892 9.08058 16.2207 9.24063 16.2355 9.42284C16.25 9.59981 16.25 9.81835 16.25 10.0893V11.4107C16.25 11.6817 16.25 11.9002 16.2355 12.0772C16.2207 12.2594 16.1892 12.4194 16.1138 12.5675C15.9939 12.8027 15.8027 12.9939 15.5675 13.1138C15.4194 13.1892 15.2594 13.2207 15.0772 13.2355C14.9002 13.25 14.6817 13.25 14.4107 13.25H9.58927C9.31834 13.25 9.0998 13.25 8.92284 13.2355C8.74063 13.2207 8.58059 13.1892 8.43251 13.1138C8.19731 12.9939 8.00608 12.8027 7.88624 12.5675C7.8108 12.4194 7.77934 12.2594 7.76445 12.0772C7.75 11.9002 7.75 11.6816 7.75 11.4107V10.0893C7.75 9.81835 7.75 9.59981 7.76445 9.42284C7.77934 9.24063 7.8108 9.08058 7.88624 8.93251C8.00608 8.69731 8.19731 8.50608 8.43251 8.38624C8.58059 8.31079 8.74063 8.27934 8.92284 8.26445C9.09981 8.25 9.31835 8.25 9.5893 8.25Z" fill="#353566"/>
</svg>
