<svg width="24" height="24" viewBox="0 0 24 24" fill="none" xmlns="http://www.w3.org/2000/svg">
<path fill-rule="evenodd" clip-rule="evenodd" d="M6.75 8.3C6.75 6.06325 8.56325 4.25 10.8 4.25C13.0368 4.25 14.85 6.06325 14.85 8.3C14.85 9.14737 14.5898 9.93396 14.1449 10.5842L16.0303 12.4697C16.3232 12.7626 16.3232 13.2375 16.0303 13.5304C15.7374 13.8233 15.2626 13.8233 14.9697 13.5304L13.0842 11.6449C12.434 12.0898 11.6474 12.35 10.8 12.35C8.56325 12.35 6.75 10.5368 6.75 8.3ZM10.8 5.75C9.39167 5.75 8.25 6.89167 8.25 8.3C8.25 9.70833 9.39167 10.85 10.8 10.85C12.2083 10.85 13.35 9.70833 13.35 8.3C13.35 6.89167 12.2083 5.75 10.8 5.75Z" fill="#353566"/>
<path fill-rule="evenodd" clip-rule="evenodd" d="M1.5 1.25C1.08579 1.25 0.75 1.58579 0.75 2C0.75 2.41421 1.08579 2.75 1.5 2.75H2.25L2.25 10.4326C2.24999 11.3851 2.24999 12.1456 2.30018 12.7599C2.35165 13.3899 2.45963 13.9318 2.71322 14.4295C3.12068 15.2291 3.77085 15.8793 4.57054 16.2868C5.06824 16.5404 5.61012 16.6484 6.24013 16.6998C6.85439 16.75 7.61493 16.75 8.56737 16.75H11.25V18.378C10.3761 18.6869 9.75 19.5203 9.75 20.5C9.75 21.7426 10.7574 22.75 12 22.75C13.2426 22.75 14.25 21.7426 14.25 20.5C14.25 19.5203 13.6239 18.6869 12.75 18.378V16.75H15.4326C16.3851 16.75 17.1456 16.75 17.7599 16.6998C18.3899 16.6484 18.9318 16.5404 19.4295 16.2868C20.2291 15.8793 20.8793 15.2291 21.2868 14.4295C21.5404 13.9318 21.6484 13.3899 21.6998 12.7599C21.75 12.1456 21.75 11.3851 21.75 10.4327V2.75H22.5C22.9142 2.75 23.25 2.41421 23.25 2C23.25 1.58579 22.9142 1.25 22.5 1.25H1.5ZM12 19.75C11.5858 19.75 11.25 20.0858 11.25 20.5C11.25 20.9142 11.5858 21.25 12 21.25C12.4142 21.25 12.75 20.9142 12.75 20.5C12.75 20.0858 12.4142 19.75 12 19.75ZM15.4 15.25C16.3925 15.25 17.0917 15.2494 17.6377 15.2048C18.175 15.1609 18.4975 15.0782 18.7485 14.9503C19.2659 14.6866 19.6866 14.2659 19.9503 13.7485C20.0782 13.4975 20.1609 13.175 20.2048 12.6377C20.2494 12.0917 20.25 11.3925 20.25 10.4V2.75H3.75V10.4C3.75 11.3925 3.75058 12.0917 3.79519 12.6377C3.83909 13.175 3.92184 13.4975 4.04973 13.7485C4.31338 14.2659 4.73408 14.6866 5.25153 14.9503C5.50252 15.0782 5.82503 15.1609 6.36228 15.2048C6.90829 15.2494 7.60753 15.25 8.6 15.25H15.4Z" fill="#353566"/>
</svg>
