<svg width="24" height="24" viewBox="0 0 24 24" fill="none" xmlns="http://www.w3.org/2000/svg">
<path d="M2.69018 10.0995C3.57035 5.76342 7.4047 2.5 12.0001 2.5C16.4019 2.5 20.1056 5.49414 21.1834 9.5576C21.208 9.77054 21.3688 9.95151 21.5906 9.99189C21.6191 9.99707 21.6474 9.99973 21.6754 10C21.7196 10.0009 21.7647 9.99579 21.8097 9.98422C22.0289 9.9278 22.1766 9.7345 22.1848 9.51935L22.9912 5.08952C23.0407 4.81784 22.8605 4.55751 22.5888 4.50806C22.3172 4.4586 22.0568 4.63875 22.0074 4.91043L21.523 7.57123C19.8527 3.98563 16.2171 1.5 12.0001 1.5C6.91974 1.5 2.68307 5.10762 1.71016 9.90053C1.65523 10.1712 1.83008 10.4351 2.10071 10.49C2.37133 10.5449 2.63524 10.3701 2.69018 10.0995Z" fill="#353566"/>
<path d="M22.2901 14.0995C22.345 13.8288 22.1702 13.5649 21.8996 13.51C21.6289 13.4551 21.365 13.6299 21.3101 13.9005C20.4299 18.2366 16.5956 21.5 12.0001 21.5C7.59831 21.5 3.89458 18.5058 2.81687 14.4422C2.79219 14.2294 2.63146 14.0485 2.40972 14.0081C2.38128 14.0029 2.35295 14.0003 2.32498 14C2.28069 13.9991 2.23555 14.0042 2.19055 14.0158C1.97145 14.0722 1.82379 14.2653 1.81543 14.4804L1.00819 18.9104C0.958683 19.1821 1.13878 19.4424 1.41045 19.4919C1.68212 19.5414 1.94248 19.3613 1.99199 19.0897L2.47697 16.4282C4.14721 20.0141 7.7829 22.5 12.0001 22.5C17.0805 22.5 21.3172 18.8924 22.2901 14.0995Z" fill="#353566"/>
<path fill-rule="evenodd" clip-rule="evenodd" d="M14.5001 10.5C14.5001 10.2239 14.2763 10 14.0001 10C13.724 10 13.5001 10.2239 13.5001 10.5V11.5H11.4494C11.3551 11.0354 11.1278 10.5925 10.7674 10.2322C9.79116 9.25593 8.20858 9.25593 7.23232 10.2322C6.25606 11.2085 6.25606 12.791 7.23232 13.7673C8.20858 14.7436 9.79116 14.7436 10.7674 13.7673C11.1276 13.4071 11.3549 12.9644 11.4493 12.5H13.9843C13.9896 12.5002 13.9948 12.5002 14.0001 12.5002C14.0054 12.5002 14.0107 12.5002 14.0159 12.5H17.0001C17.2763 12.5 17.5001 12.2761 17.5001 12V10C17.5001 9.72386 17.2763 9.5 17.0001 9.5C16.724 9.5 16.5001 9.72386 16.5001 10V11.5H14.5001V10.5ZM10.0603 10.9393C9.47458 10.3536 8.52516 10.3536 7.93943 10.9393C7.35369 11.525 7.35369 12.4745 7.93943 13.0602C8.52516 13.6459 9.47458 13.6459 10.0603 13.0602C10.6461 12.4745 10.6461 11.525 10.0603 10.9393Z" fill="#353566"/>
</svg>
