<svg width="24" height="24" viewBox="0 0 24 24" fill="none" xmlns="http://www.w3.org/2000/svg">
<path fill-rule="evenodd" clip-rule="evenodd" d="M12 0.5C9.23858 0.5 7 2.73858 7 5.5V7.52792C6.92739 7.53212 6.85706 7.53696 6.78889 7.54253C6.25771 7.58593 5.81413 7.67609 5.41103 7.88148C4.75247 8.21703 4.21703 8.75247 3.88148 9.41103C3.67609 9.81413 3.58593 10.2577 3.54253 10.7889C3.49999 11.3095 3.5 11.9565 3.5 12.7778V23C3.5 23.194 3.61223 23.3705 3.78792 23.4528C3.96361 23.5351 4.17105 23.5083 4.32009 23.3841L6.87508 21.255C7.05579 21.1044 7.09282 21.0768 7.12836 21.058C7.16938 21.0363 7.21321 21.0204 7.25859 21.0108C7.29792 21.0025 7.34404 21 7.57928 21H15.2222C16.0435 21 16.6905 21 17.2111 20.9575C17.7423 20.9141 18.1859 20.8239 18.589 20.6185C19.2475 20.283 19.783 19.7475 20.1185 19.089C20.3239 18.6859 20.4141 18.2423 20.4575 17.7111C20.5 17.1905 20.5 16.5435 20.5 15.7222V12.7778C20.5 11.9565 20.5 11.3095 20.4575 10.7889C20.4141 10.2577 20.3239 9.81413 20.1185 9.41103C19.783 8.75247 19.2475 8.21703 18.589 7.88148C18.1859 7.67609 17.7423 7.58593 17.2111 7.54253C17.1429 7.53696 17.0726 7.53212 17 7.52792V5.5C17 2.73858 14.7614 0.5 12 0.5ZM16 7.50166V5.5C16 3.29086 14.2091 1.5 12 1.5C9.79086 1.5 8 3.29086 8 5.5V7.50166C8.24044 7.5 8.49907 7.5 8.77778 7.5H15.2222C15.5009 7.5 15.7596 7.5 16 7.50166ZM5.86502 8.77248C6.10366 8.65089 6.40099 8.57756 6.87032 8.53921C7.34549 8.50039 7.95167 8.5 8.8 8.5H15.2C16.0483 8.5 16.6545 8.50039 17.1297 8.53921C17.599 8.57756 17.8963 8.65089 18.135 8.77248C18.6054 9.01217 18.9878 9.39462 19.2275 9.86502C19.3491 10.1037 19.4224 10.401 19.4608 10.8703C19.4996 11.3455 19.5 11.9517 19.5 12.8V15.7C19.5 16.5483 19.4996 17.1545 19.4608 17.6297C19.4224 18.099 19.3491 18.3963 19.2275 18.635C18.9878 19.1054 18.6054 19.4878 18.135 19.7275C17.8963 19.8491 17.599 19.9224 17.1297 19.9608C16.6545 19.9996 16.0483 20 15.2 20L7.54288 20C7.36418 19.9998 7.20657 19.9997 7.05168 20.0325C6.91552 20.0613 6.78403 20.1089 6.66099 20.1739C6.52104 20.2479 6.40005 20.3489 6.26288 20.4634L4.5 21.9325V12.8C4.5 11.9517 4.50039 11.3455 4.53921 10.8703C4.57756 10.401 4.65089 10.1037 4.77248 9.86502C5.01217 9.39462 5.39462 9.01217 5.86502 8.77248Z" fill="#353566"/>
</svg>
