<svg width="24" height="24" viewBox="0 0 24 24" fill="none" xmlns="http://www.w3.org/2000/svg">
<path d="M11.5 8.5308V8.00001C11.5 7.72387 11.7239 7.50001 12 7.50001C12.2761 7.50001 12.5 7.72387 12.5 8.00001V8.52664C12.7363 8.55485 12.9586 8.60795 13.1844 8.69747C13.5499 8.84243 13.894 9.07141 14.3019 9.38021C14.522 9.54691 14.5653 9.86051 14.3986 10.0807C14.232 10.3008 13.9183 10.3441 13.6982 10.1774C13.306 9.88048 13.0502 9.72004 12.8157 9.62703C12.5929 9.53865 12.3604 9.5 12 9.5C11.471 9.5 11.0839 9.62484 10.8433 9.79906C10.6177 9.96243 10.5 10.1808 10.5 10.4654C10.5 10.8136 10.6606 11.0169 10.9443 11.1756C11.2595 11.3521 11.6791 11.4396 12.0822 11.5068C12.4791 11.5729 13.0595 11.6804 13.5443 11.9518C14.0606 12.2408 14.5 12.7382 14.5 13.5346C14.5 14.153 14.2177 14.6673 13.7433 15.0108C13.4009 15.2588 12.9734 15.4089 12.5 15.4692V16C12.5 16.2761 12.2761 16.5 12 16.5C11.7239 16.5 11.5 16.2761 11.5 16V15.4733C11.2637 15.4451 11.0414 15.392 10.8157 15.3025C10.4502 15.1575 10.106 14.9285 9.69819 14.6197C9.47804 14.453 9.43471 14.1394 9.60141 13.9193C9.76811 13.6991 10.0817 13.6558 10.3019 13.8225C10.694 14.1195 10.9499 14.2799 11.1844 14.373C11.4072 14.4613 11.6396 14.5 12 14.5C12.529 14.5 12.9162 14.3752 13.1568 14.2009C13.3823 14.0376 13.5 13.8192 13.5 13.5346C13.5 13.1864 13.3394 12.9831 13.0558 12.8244C12.7406 12.6479 12.321 12.5604 11.9178 12.4932C11.521 12.4271 10.9406 12.3196 10.4558 12.0482C9.93941 11.7592 9.50003 11.2618 9.50003 10.4654C9.50003 9.84703 9.78233 9.33275 10.2567 8.98916C10.5991 8.7412 11.0267 8.59116 11.5 8.5308Z" fill="#353566"/>
<path fill-rule="evenodd" clip-rule="evenodd" d="M13.8061 1.43532C12.6696 0.859687 11.327 0.859783 10.1906 1.43557L3.09602 5.03044C2.42371 5.37111 2 6.0608 2 6.81449V8.83929C2 9.32402 2.09935 10.2977 2.2146 11.2746C2.47619 13.4919 3.3325 15.5862 4.62489 17.3912C6.12751 19.4898 8.10183 21.2063 10.3889 22.4026L11.1377 22.7942C11.6768 23.0762 12.3199 23.0762 12.859 22.7941L13.6094 22.4015C15.8944 21.2059 17.8673 19.4913 19.3699 17.3953C20.6656 15.5878 21.5242 13.4899 21.7861 11.2685C21.9011 10.2937 22 9.32306 22 8.83929V6.81464C22 6.06084 21.5762 5.37108 20.9037 5.03046L13.8061 1.43532ZM10.6426 2.32759C11.4949 1.89575 12.5019 1.89568 13.3542 2.3274L20.4519 5.92255C20.7881 6.09286 21 6.43774 21 6.81464V8.83929C21 9.25213 20.91 10.159 20.793 11.1514C20.5524 13.1924 19.7619 15.132 18.5571 16.8127C17.1457 18.7817 15.2923 20.3923 13.1458 21.5154L12.3954 21.9081C12.1467 22.0382 11.8499 22.0382 11.6011 21.9081L10.8524 21.5165C8.70403 20.3927 6.84945 18.7803 5.43796 16.809C4.23636 15.1308 3.44805 13.1946 3.20771 11.1575C3.09037 10.1629 3 9.25303 3 8.83929V6.81449C3 6.43764 3.21185 6.0928 3.54801 5.92247L10.6426 2.32759Z" fill="#353566"/>
</svg>
