<svg width="24" height="24" viewBox="0 0 24 24" fill="none" xmlns="http://www.w3.org/2000/svg">
<path fill-rule="evenodd" clip-rule="evenodd" d="M12 13.5C10.8954 13.5 10 14.3954 10 15.5C10 16.6046 10.8954 17.5 12 17.5C13.1046 17.5 14 16.6046 14 15.5C14 14.3954 13.1046 13.5 12 13.5ZM11 15.5C11 14.9477 11.4477 14.5 12 14.5C12.5523 14.5 13 14.9477 13 15.5C13 16.0523 12.5523 16.5 12 16.5C11.4477 16.5 11 16.0523 11 15.5Z" fill="#353566"/>
<path fill-rule="evenodd" clip-rule="evenodd" d="M7 6.5C7 3.73858 9.23858 1.5 12 1.5C14.1778 1.5 16.0292 2.89206 16.7154 4.83338C16.8074 5.09373 16.6709 5.3794 16.4106 5.47142C16.1502 5.56344 15.8645 5.42698 15.7725 5.16662C15.2232 3.61236 13.7408 2.5 12 2.5C9.79086 2.5 8 4.29086 8 6.5V8.50166C8.24036 8.5 8.4989 8.5 8.77751 8.5H15.2222C16.0435 8.5 16.6905 8.49999 17.2111 8.54253C17.7423 8.58593 18.1859 8.67609 18.589 8.88148C19.2475 9.21703 19.783 9.75247 20.1185 10.411C20.3239 10.8141 20.4141 11.2577 20.4575 11.7889C20.5 12.3095 20.5 12.9565 20.5 13.7778V17.2222C20.5 18.0435 20.5 18.6905 20.4575 19.2111C20.4141 19.7423 20.3239 20.1859 20.1185 20.589C19.783 21.2475 19.2475 21.783 18.589 22.1185C18.1859 22.3239 17.7423 22.4141 17.2111 22.4575C16.6905 22.5 16.0435 22.5 15.2223 22.5H8.77778C7.95656 22.5 7.30952 22.5 6.78889 22.4575C6.25771 22.4141 5.81413 22.3239 5.41103 22.1185C4.75247 21.783 4.21703 21.2475 3.88148 20.589C3.67609 20.1859 3.58593 19.7423 3.54253 19.2111C3.49999 18.6905 3.5 18.0435 3.5 17.2222V13.7778C3.5 12.9565 3.49999 12.3095 3.54253 11.7889C3.58593 11.2577 3.67609 10.8141 3.88148 10.411C4.21703 9.75247 4.75247 9.21703 5.41103 8.88148C5.81413 8.67609 6.25771 8.58593 6.78889 8.54253C6.85706 8.53696 6.92739 8.53212 7 8.52792V6.5ZM6.87032 9.53921C6.40099 9.57756 6.10366 9.65089 5.86502 9.77248C5.39462 10.0122 5.01217 10.3946 4.77248 10.865C4.65089 11.1037 4.57756 11.401 4.53921 11.8703C4.50039 12.3455 4.5 12.9517 4.5 13.8V17.2C4.5 18.0483 4.50039 18.6545 4.53921 19.1297C4.57756 19.599 4.65089 19.8963 4.77248 20.135C5.01217 20.6054 5.39462 20.9878 5.86502 21.2275C6.10366 21.3491 6.40099 21.4224 6.87032 21.4608C7.34549 21.4996 7.95167 21.5 8.8 21.5H15.2C16.0483 21.5 16.6545 21.4996 17.1297 21.4608C17.599 21.4224 17.8963 21.3491 18.135 21.2275C18.6054 20.9878 18.9878 20.6054 19.2275 20.135C19.3491 19.8963 19.4224 19.599 19.4608 19.1297C19.4996 18.6545 19.5 18.0483 19.5 17.2V13.8C19.5 12.9517 19.4996 12.3455 19.4608 11.8703C19.4224 11.401 19.3491 11.1037 19.2275 10.865C18.9878 10.3946 18.6054 10.0122 18.135 9.77248C17.8963 9.65089 17.599 9.57756 17.1297 9.53921C16.6545 9.50039 16.0483 9.5 15.2 9.5H8.8C7.95167 9.5 7.34549 9.50039 6.87032 9.53921Z" fill="#353566"/>
</svg>
