<svg width="24" height="24" viewBox="0 0 24 24" fill="none" xmlns="http://www.w3.org/2000/svg">
<g clip-path="url(#clip0_9001_274726)">
<path opacity="0.4" d="M15.4326 0.25H6.56739C5.61495 0.249994 4.8544 0.249989 4.24013 0.300176C3.61012 0.35165 3.06824 0.459634 2.57054 0.713223C1.77085 1.12068 1.12068 1.77085 0.713223 2.57054C0.459634 3.06824 0.35165 3.61012 0.300176 4.24013C0.249989 4.85439 0.249994 5.61494 0.25 6.56738V12.4326C0.249994 13.3851 0.249989 14.1456 0.300176 14.7599C0.35165 15.3899 0.459634 15.9318 0.713223 16.4295C1.12068 17.2291 1.77085 17.8793 2.57054 18.2868C3.06824 18.5404 3.61012 18.6483 4.24013 18.6998C4.85438 18.75 5.6149 18.75 6.5673 18.75H7.20054C7.72267 18.75 7.82573 18.7578 7.90786 18.783C8.00306 18.8122 8.09149 18.8601 8.16798 18.9238C8.23398 18.9788 8.29685 19.0609 8.58224 19.4981L9.04993 20.2146C9.25804 20.5335 9.44144 20.8145 9.60993 21.0275C9.78375 21.2473 10.0065 21.4815 10.3234 21.6144C10.7562 21.7959 11.2438 21.7959 11.6766 21.6144C11.8538 21.5401 12.0001 21.435 12.124 21.3201C12.2716 21.1834 12.3581 20.993 12.364 20.7919C12.3699 20.5908 12.2947 20.3957 12.1553 20.2505C11.5939 19.6658 11.25 18.8739 11.25 18C11.25 16.2051 12.7051 14.75 14.5 14.75C14.8804 14.75 15.2611 14.8302 15.682 14.9644C15.8683 15.0238 16.0704 15.0081 16.2452 14.9206L17.9899 14.0483C18.1648 13.9609 18.2986 13.8085 18.3628 13.6239C18.8092 12.3403 19.8342 11.4337 21.0936 11.2753C21.4687 11.2281 21.75 10.9091 21.75 10.5311V6.56737C21.75 5.61496 21.75 4.85438 21.6998 4.24013C21.6483 3.61012 21.5404 3.06824 21.2868 2.57054C20.8793 1.77085 20.2291 1.12068 19.4295 0.713223C18.9318 0.459634 18.3899 0.35165 17.7599 0.300176C17.1456 0.249989 16.3851 0.249994 15.4326 0.25Z" fill="#353566"/>
<path d="M15.5 8.25L6.5 8.25C6.08579 8.25 5.75 7.91421 5.75 7.5C5.75 7.08579 6.08579 6.75 6.5 6.75H15.5C15.9142 6.75 16.25 7.08579 16.25 7.5C16.25 7.91421 15.9142 8.25 15.5 8.25Z" fill="#353566"/>
<path d="M11.5 12.25L6.5 12.25C6.08579 12.25 5.75 11.9142 5.75 11.5C5.75 11.0858 6.08579 10.75 6.5 10.75L11.5 10.75C11.9142 10.75 12.25 11.0858 12.25 11.5C12.25 11.9142 11.9142 12.25 11.5 12.25Z" fill="#353566"/>
<path d="M20.0098 15.8335L16.4615 17.6076C16.4868 17.7345 16.5 17.8657 16.5 18C16.5 18.1343 16.4868 18.2655 16.4615 18.3924L20.0098 20.1665C20.376 19.7575 20.9081 19.5 21.5004 19.5C22.605 19.5 23.5004 20.3954 23.5004 21.5C23.5004 22.6046 22.605 23.5 21.5004 23.5C20.4259 23.5 19.5494 22.6528 19.5024 21.5899L15.6642 19.6708C15.652 19.6647 15.64 19.6583 15.6282 19.6516C15.3071 19.8714 14.9186 20 14.5 20C13.3954 20 12.5 19.1046 12.5 18C12.5 16.8954 13.3954 16 14.5 16C14.9186 16 15.3071 16.1286 15.6283 16.3484C15.64 16.3417 15.652 16.3353 15.6642 16.3292L19.5024 14.4101C19.5494 13.3473 20.426 12.5 21.5004 12.5C22.605 12.5 23.5004 13.3954 23.5004 14.5C23.5004 15.6046 22.605 16.5 21.5004 16.5C20.9081 16.5 20.376 16.2425 20.0098 15.8335Z" fill="#353566"/>
</g>
<defs>
<clipPath id="clip0_9001_274726">
<rect width="24" height="24" fill="white"/>
</clipPath>
</defs>
</svg>
