<svg width="24" height="24" viewBox="0 0 24 24" fill="none" xmlns="http://www.w3.org/2000/svg">
<path opacity="0.4" d="M16.4326 1.25H7.56739C6.61495 1.24999 5.8544 1.24999 5.24013 1.30018C4.61012 1.35165 4.06824 1.45963 3.57054 1.71322C2.77085 2.12068 2.12068 2.77085 1.71322 3.57054C1.45963 4.06824 1.35165 4.61012 1.30018 5.24013C1.24999 5.85439 1.24999 6.61494 1.25 7.56738V13.4326C1.24999 14.3851 1.24999 15.1456 1.30018 15.7599C1.35165 16.3899 1.45963 16.9318 1.71322 17.4295C2.12068 18.2291 2.77085 18.8793 3.57054 19.2868C4.06824 19.5404 4.61012 19.6483 5.24013 19.6998C5.85438 19.75 6.6149 19.75 7.5673 19.75H8.20054C8.72267 19.75 8.82573 19.7578 8.90786 19.783C9.00306 19.8122 9.09149 19.8601 9.16798 19.9238C9.23398 19.9788 9.29685 20.0609 9.58224 20.4981L10.0499 21.2146C10.258 21.5335 10.4414 21.8145 10.6099 22.0275C10.7838 22.2473 11.0065 22.4815 11.3234 22.6144C11.7562 22.7959 12.2438 22.7959 12.6766 22.6144C12.9935 22.4815 13.2162 22.2473 13.3901 22.0275C13.5585 21.8145 13.7419 21.5336 13.95 21.2147L14.4178 20.4981C14.7032 20.0609 14.766 19.9788 14.832 19.9238C14.9085 19.8601 14.9969 19.8122 15.0921 19.783C15.1743 19.7578 15.2773 19.75 15.7995 19.75H16.4326C17.385 19.75 18.1456 19.75 18.7599 19.6998C19.3899 19.6483 19.9318 19.5404 20.4295 19.2868C21.2291 18.8793 21.8793 18.2291 22.2868 17.4295C22.5404 16.9318 22.6483 16.3899 22.6998 15.7599C22.75 15.1456 22.75 14.3851 22.75 13.4327V7.56737C22.75 6.61496 22.75 5.85438 22.6998 5.24013C22.6483 4.61012 22.5404 4.06824 22.2868 3.57054C21.8793 2.77085 21.2291 2.12068 20.4295 1.71322C19.9318 1.45963 19.3899 1.35165 18.7599 1.30018C18.1456 1.24999 17.3851 1.24999 16.4326 1.25Z" fill="#353566"/>
<path d="M13.7276 6.6819C13.8281 6.28005 13.5837 5.87285 13.1819 5.77239C12.78 5.67193 12.3728 5.91625 12.2724 6.31809L10.2724 14.3181C10.1719 14.7199 10.4162 15.1271 10.8181 15.2276C11.2199 15.3281 11.6271 15.0837 11.7276 14.6819L13.7276 6.6819Z" fill="#353566"/>
<path d="M9.53566 7.97505C9.82558 8.27089 9.82078 8.74574 9.52495 9.03566L8.06071 10.4706L9.53552 11.975C9.8255 12.2707 9.82079 12.7456 9.52501 13.0356C9.22923 13.3255 8.75438 13.3208 8.4644 13.025L6.46444 10.985C6.32517 10.843 6.24805 10.6514 6.25004 10.4525C6.25203 10.2536 6.33297 10.0636 6.47505 9.92434L8.47505 7.96434C8.77089 7.67442 9.24574 7.67922 9.53566 7.97505Z" fill="#353566"/>
<path d="M14.4641 7.97533C14.7538 7.67934 15.2287 7.6743 15.5247 7.96407L17.5247 9.92207C17.6668 10.0612 17.7479 10.2512 17.75 10.4501C17.752 10.6491 17.675 10.8407 17.5358 10.9828L15.5358 13.0248C15.246 13.3207 14.7711 13.3256 14.4752 13.0358C14.1793 12.746 14.1744 12.2711 14.4642 11.9752L15.9393 10.4691L14.4753 9.03593C14.1793 8.74616 14.1743 8.27131 14.4641 7.97533Z" fill="#353566"/>
</svg>
