<svg width="24" height="24" viewBox="0 0 24 24" fill="none" xmlns="http://www.w3.org/2000/svg">
<path opacity="0.4" d="M16.4326 1.25H7.56739C6.61495 1.24999 5.8544 1.24999 5.24013 1.30018C4.61012 1.35165 4.06824 1.45963 3.57054 1.71322C2.77085 2.12068 2.12068 2.77085 1.71322 3.57054C1.45963 4.06824 1.35165 4.61012 1.30018 5.24013C1.24999 5.85439 1.24999 6.61494 1.25 7.56738V13.4326C1.24999 14.3851 1.24999 15.1456 1.30018 15.7599C1.35165 16.3899 1.45963 16.9318 1.71322 17.4295C2.12068 18.2291 2.77085 18.8793 3.57054 19.2868C4.06824 19.5404 4.61012 19.6483 5.24013 19.6998C5.85438 19.75 6.6149 19.75 7.5673 19.75H8.20054C8.72267 19.75 8.82573 19.7578 8.90786 19.783C9.00306 19.8122 9.09149 19.8601 9.16798 19.9238C9.23398 19.9788 9.29685 20.0609 9.58224 20.4981L10.0499 21.2146C10.258 21.5335 10.4414 21.8145 10.6099 22.0275C10.7838 22.2473 11.0065 22.4815 11.3234 22.6144C11.7562 22.7959 12.2438 22.7959 12.6766 22.6144C12.9935 22.4815 13.2162 22.2473 13.3901 22.0275C13.5585 21.8145 13.7419 21.5336 13.95 21.2147L14.4178 20.4981C14.7032 20.0609 14.766 19.9788 14.832 19.9238C14.9085 19.8601 14.9969 19.8122 15.0921 19.783C15.1743 19.7578 15.2773 19.75 15.7995 19.75H16.4326C17.385 19.75 18.1456 19.75 18.7599 19.6998C19.3899 19.6483 19.9318 19.5404 20.4295 19.2868C21.2291 18.8793 21.8793 18.2291 22.2868 17.4295C22.5404 16.9318 22.6483 16.3899 22.6998 15.7599C22.75 15.1456 22.75 14.3851 22.75 13.4327V7.56737C22.75 6.61496 22.75 5.85438 22.6998 5.24013C22.6483 4.61012 22.5404 4.06824 22.2868 3.57054C21.8793 2.77085 21.2291 2.12068 20.4295 1.71322C19.9318 1.45963 19.3899 1.35165 18.7599 1.30018C18.1456 1.24999 17.3851 1.24999 16.4326 1.25Z" fill="#353566"/>
<path d="M10.4049 7.55647C10.2131 7.29494 9.87492 7.18631 9.56671 7.28721C9.25849 7.38811 9.05005 7.67568 9.05005 7.99999V13C9.05005 13.4142 9.38584 13.75 9.80005 13.75C10.2143 13.75 10.55 13.4142 10.55 13V10.291L11.3952 11.4435C11.5365 11.6362 11.7611 11.75 12 11.75C12.239 11.75 12.4636 11.6362 12.6049 11.4435L13.45 10.291V13C13.45 13.4142 13.7858 13.75 14.2 13.75C14.6143 13.75 14.95 13.4142 14.95 13V7.99999C14.95 7.67568 14.7416 7.38811 14.4334 7.28721C14.1252 7.18631 13.787 7.29494 13.5952 7.55647L12 9.73173L10.4049 7.55647Z" fill="#353566"/>
<path d="M4.5 9.19257C4.5 8.11971 5.36972 7.24998 6.44258 7.24998H7.5C7.91421 7.24998 8.25 7.58577 8.25 7.99998C8.25 8.4142 7.91421 8.74998 7.5 8.74998H6.44258C6.19815 8.74998 6 8.94814 6 9.19257C6 9.37354 6.11018 9.53628 6.27821 9.60349L7.27887 10.0038C8.01639 10.2988 8.5 11.0131 8.5 11.8074C8.5 12.8803 7.63028 13.75 6.55742 13.75H5.25C4.83579 13.75 4.5 13.4142 4.5 13C4.5 12.5858 4.83579 12.25 5.25 12.25H6.55742C6.80185 12.25 7 12.0518 7 11.8074C7 11.6264 6.88982 11.4637 6.72179 11.3965L5.72113 10.9962C4.98361 10.7012 4.5 9.9869 4.5 9.19257Z" fill="#353566"/>
<path d="M15.5 9.19257C15.5 8.11971 16.3697 7.24998 17.4426 7.24998H18.5C18.9142 7.24998 19.25 7.58577 19.25 7.99998C19.25 8.4142 18.9142 8.74998 18.5 8.74998H17.4426C17.1982 8.74998 17 8.94814 17 9.19257C17 9.37354 17.1102 9.53628 17.2782 9.60349L18.2789 10.0038C19.0164 10.2988 19.5 11.0131 19.5 11.8074C19.5 12.8803 18.6303 13.75 17.5574 13.75H16.25C15.8358 13.75 15.5 13.4142 15.5 13C15.5 12.5858 15.8358 12.25 16.25 12.25H17.5574C17.8018 12.25 18 12.0518 18 11.8074C18 11.6264 17.8898 11.4637 17.7218 11.3965L16.7211 10.9962C15.9836 10.7012 15.5 9.9869 15.5 9.19257Z" fill="#353566"/>
</svg>
