<svg width="24" height="24" viewBox="0 0 24 24" fill="none" xmlns="http://www.w3.org/2000/svg">
<g clip-path="url(#clip0_9001_279792)">
<path fill-rule="evenodd" clip-rule="evenodd" d="M10.5815 15.5H8.24097C8.44185 16.9338 8.7633 18.2686 9.18632 19.3854C9.5643 20.3833 10.0129 21.1791 10.5055 21.7171C10.9949 22.2516 11.4955 22.5 12 22.5C12.2761 22.5 12.5 22.7239 12.5 23C12.5 23.2762 12.2761 23.5 12 23.5C11.9378 23.5 11.8762 23.4978 11.8152 23.4934C11.7911 23.4964 11.7664 23.4977 11.7414 23.4971C5.50943 23.3595 0.5 18.2648 0.5 12C0.5 5.64873 5.64873 0.5 12 0.5C18.2648 0.5 23.3595 5.50943 23.4971 11.7414C23.5032 12.0175 23.2844 12.2462 23.0083 12.2523C22.7322 12.2584 22.5035 12.0396 22.4974 11.7635C22.4802 10.9852 22.3783 10.2277 22.2006 9.50005H16.8825C16.9019 9.70493 16.9189 9.91094 16.9335 10.1178C16.953 10.3933 16.7455 10.6323 16.47 10.6518C16.1945 10.6713 15.9555 10.4638 15.936 10.1883C15.9197 9.95756 15.9003 9.72799 15.8779 9.50005H8.12209C8.04178 10.3181 8 11.1582 8 12C8 12.8419 8.04178 13.682 8.12209 14.5H10.5815C10.8577 14.5 11.0815 14.7238 11.0815 15C11.0815 15.2761 10.8577 15.5 10.5815 15.5ZM1.79943 9.50005C1.60375 10.3013 1.5 11.1385 1.5 12C1.5 12.8615 1.60375 13.6987 1.79944 14.5H7.11748C7.03987 13.6776 7 12.838 7 12C7 11.162 7.03988 10.3224 7.11749 9.50005H1.79943ZM2.09746 15.5H7.23161C7.43988 17.0505 7.78483 18.5085 8.25116 19.7396C8.62267 20.7204 9.08012 21.581 9.62604 22.2305C6.11721 21.4196 3.28148 18.8499 2.09746 15.5ZM15.759 8.50005H8.24098C8.44186 7.06623 8.7633 5.73141 9.18632 4.61464C9.5643 3.61676 10.0129 2.82095 10.5055 2.28298C10.9949 1.74846 11.4955 1.50003 12 1.50003C12.8218 1.50003 13.6504 2.17871 14.3699 3.59958C15.0108 4.86535 15.4912 6.58828 15.759 8.50005ZM21.9026 8.50005H16.7684C16.4949 6.46382 15.9837 4.57322 15.262 3.14786C15.0037 2.63776 14.7076 2.16748 14.3729 1.76924C17.8823 2.57994 20.7185 5.14984 21.9026 8.50005ZM2.09745 8.50005C3.28146 5.15013 6.11717 2.58044 9.62607 1.76948C9.08013 2.41901 8.62268 3.27959 8.25116 4.26041C7.78483 5.49152 7.43988 6.94956 7.23162 8.50005H2.09745Z" fill="#353566"/>
<path d="M17.375 20.5C17.375 20.1548 17.6548 19.875 18 19.875C18.3452 19.875 18.6251 20.1548 18.6251 20.5C18.6251 20.8452 18.3453 21.125 18.0001 21.125C17.6549 21.125 17.375 20.8452 17.375 20.5Z" fill="#353566"/>
<path d="M17 16.75C17 16.1977 17.4477 15.75 18 15.75C18.5523 15.75 19 16.1977 19 16.75C19 17.0291 18.8863 17.2807 18.7015 17.4627C18.5988 17.5638 18.5041 17.6227 18.3708 17.7057C18.3353 17.7278 18.2967 17.7519 18.2548 17.7786C18.0629 17.9013 17.8281 18.0715 17.6583 18.3894C17.5282 18.633 17.6202 18.9359 17.8638 19.066C18.1074 19.1961 18.4103 19.1041 18.5404 18.8605C18.5899 18.768 18.653 18.7109 18.7935 18.6211C18.8152 18.6073 18.8399 18.592 18.8672 18.5752C19.0073 18.489 19.2131 18.3623 19.4031 18.1753C19.771 17.8131 20 17.3078 20 16.75C20 15.6454 19.1046 14.75 18 14.75C16.8954 14.75 16 15.6454 16 16.75C16 17.0261 16.2239 17.25 16.5 17.25C16.7761 17.25 17 17.0261 17 16.75Z" fill="#353566"/>
<path fill-rule="evenodd" clip-rule="evenodd" d="M23.5 18C23.5 14.9624 21.0376 12.5 18 12.5C14.9624 12.5 12.5 14.9624 12.5 18C12.5 21.0376 14.9624 23.5 18 23.5C21.0376 23.5 23.5 21.0376 23.5 18ZM18 13.5C20.4853 13.5 22.5 15.5147 22.5 18C22.5 20.4853 20.4853 22.5 18 22.5C15.5147 22.5 13.5 20.4853 13.5 18C13.5 15.5147 15.5147 13.5 18 13.5Z" fill="#353566"/>
</g>
<defs>
<clipPath id="clip0_9001_279792">
<rect width="24" height="24" fill="white"/>
</clipPath>
</defs>
</svg>
