<svg width="24" height="24" viewBox="0 0 24 24" fill="none" xmlns="http://www.w3.org/2000/svg">
<g clip-path="url(#clip0_9001_279727)">
<path fill-rule="evenodd" clip-rule="evenodd" d="M0.5 12.0001C0.5 5.6555 5.63784 0.510956 11.9798 0.500078L12 0.5L12.0201 0.500078C18.3621 0.510907 23.5 5.65548 23.5 12.0001C23.5 12.3683 23.4827 12.7327 23.4488 13.0923C23.4229 13.3673 23.179 13.5691 22.904 13.5432C22.6291 13.5173 22.4273 13.2734 22.4532 12.9985C22.4841 12.67 22.5 12.3369 22.5 12.0001C22.5 11.1386 22.3962 10.3013 22.2006 9.50011H16.8825C16.9176 9.87127 16.9449 10.2458 16.9643 10.6219C16.9786 10.8976 16.7666 11.1328 16.4908 11.147C16.215 11.1613 15.9799 10.9493 15.9657 10.6735C15.9452 10.2787 15.9159 9.88681 15.8779 9.50011H8.12209C8.04178 10.3181 8 11.1582 8 12C8 12.8419 8.04178 13.682 8.1221 14.5H10.1261C10.4022 14.5 10.6261 14.7239 10.6261 15C10.6261 15.2762 10.4022 15.5 10.1261 15.5H8.24099C8.44186 16.9338 8.76331 18.2686 9.18632 19.3854C9.5643 20.3833 10.0129 21.1791 10.5055 21.717C10.9949 22.2516 11.4955 22.5 12 22.5L12.0055 22.5L12.011 22.5C12.2482 22.5 12.483 22.4352 12.7199 22.3015C12.9604 22.1657 13.2654 22.2506 13.4011 22.4911C13.4343 22.5498 13.4543 22.6124 13.4621 22.6755C13.5059 22.7418 13.5346 22.8195 13.5426 22.9042C13.5685 23.1791 13.3666 23.423 13.0917 23.4489C12.7322 23.4828 12.3681 23.5001 12 23.5001C5.64873 23.5001 0.5 18.3513 0.5 12.0001ZM9.18632 4.61461C8.76329 5.7314 8.44184 7.06626 8.24097 8.50011H15.759C15.5285 6.85433 15.1395 5.34224 14.6225 4.14121C14.2531 3.2828 13.8293 2.60924 13.3738 2.15723C12.9275 1.71431 12.4739 1.50449 12.0148 1.50007L12 1.50006L11.9852 1.50007C11.4857 1.50488 10.9901 1.75366 10.5055 2.28296C10.0129 2.82093 9.5643 3.61673 9.18632 4.61461ZM2.09745 8.50011H7.23161C7.43987 6.94958 7.78482 5.49152 8.25116 4.26039C8.62266 3.27962 9.08008 2.41908 9.62597 1.76957C6.11712 2.58055 3.28145 5.15022 2.09745 8.50011ZM21.9025 8.50011H16.7684C16.5307 6.73093 16.1147 5.07862 15.5411 3.74587C15.2122 2.98173 14.824 2.30499 14.374 1.76956C17.8829 2.58052 20.7185 5.15021 21.9025 8.50011ZM7 12C7 12.838 7.03988 13.6776 7.11749 14.5H1.79943C1.60375 13.6988 1.5 12.8615 1.5 12.0001C1.5 11.1386 1.60375 10.3013 1.79943 9.50011H7.11748C7.03987 10.3225 7 11.162 7 12ZM2.09745 15.5H7.23163C7.43989 17.0505 7.78483 18.5085 8.25116 19.7396C8.62269 20.7205 9.08015 21.5811 9.6261 22.2306C6.11718 21.4196 3.28146 18.8499 2.09745 15.5Z" fill="#353566"/>
<path fill-rule="evenodd" clip-rule="evenodd" d="M14.5211 12.5944C13.3193 12.1502 12.1498 13.3198 12.594 14.5215L15.5517 22.5225C16.0569 23.8889 18.0169 23.8058 18.4046 22.4015L19.1937 19.5429C19.2406 19.3733 19.3731 19.2408 19.5427 19.194L22.401 18.405C23.8053 18.0173 23.8884 16.0573 22.5219 15.5521L14.5211 12.5944ZM13.532 14.1747C13.3839 13.7742 13.7737 13.3843 14.1743 13.5324L22.1752 16.4901C22.6307 16.6585 22.603 17.3118 22.1349 17.441L19.2766 18.23C18.7678 18.3705 18.3703 18.768 18.2298 19.2768L17.4406 22.1354C17.3114 22.6035 16.6581 22.6312 16.4897 22.1757L13.532 14.1747Z" fill="#353566"/>
</g>
<defs>
<clipPath id="clip0_9001_279727">
<rect width="24" height="24" fill="white"/>
</clipPath>
</defs>
</svg>
