<svg width="24" height="24" viewBox="0 0 24 24" fill="none" xmlns="http://www.w3.org/2000/svg">
<path d="M1.35712 8.84995C4.05502 6.09677 7.82062 4.5 12 4.5C16.1794 4.5 19.945 6.09677 22.6429 8.84995C22.8362 9.04718 23.1527 9.05039 23.35 8.85712C23.5472 8.66385 23.5504 8.34728 23.3571 8.15005C20.4647 5.19841 16.4388 3.5 12 3.5C7.56115 3.5 3.53525 5.19841 0.64288 8.15005C0.449608 8.34728 0.452818 8.66385 0.65005 8.85712C0.847282 9.05039 1.16385 9.04718 1.35712 8.84995Z" fill="#353566"/>
<path d="M4.84358 12.3614C6.72224 10.5844 9.23642 9.5 11.999 9.5C12.6669 9.5 13.3198 9.56335 13.9524 9.68435C14.2236 9.73623 14.4856 9.55841 14.5374 9.28719C14.5893 9.01596 14.4115 8.75403 14.1403 8.70216C13.4461 8.56938 12.7303 8.5 11.999 8.5C8.96852 8.5 6.21163 9.69096 4.15642 11.6349C3.9558 11.8246 3.94699 12.1411 4.13675 12.3417C4.3265 12.5423 4.64296 12.5511 4.84358 12.3614Z" fill="#353566"/>
<path d="M8.59174 15.865C9.49838 15.0161 10.6382 14.5 11.9999 14.5L12.0377 14.5001C12.3138 14.5021 12.5392 14.2798 12.5412 14.0037C12.5431 13.7275 12.3208 13.5021 12.0447 13.5002L11.9999 13.5C10.3619 13.5 8.98311 14.1286 7.90826 15.135C7.70668 15.3238 7.69628 15.6402 7.88502 15.8417C8.07376 16.0433 8.39017 16.0537 8.59174 15.865Z" fill="#353566"/>
<path d="M12 18.25C11.5858 18.25 11.25 18.5858 11.25 19C11.25 19.4142 11.5858 19.75 12 19.75C12.4142 19.75 12.7501 19.4142 12.7501 19C12.7501 18.5858 12.4142 18.25 12 18.25Z" fill="#353566"/>
<path d="M23 15C23.2761 15 23.5 14.7761 23.5 14.5V13.5C23.5 12.3954 22.6046 11.5 21.5 11.5H16.707L17.8535 10.3536C18.0488 10.1583 18.0488 9.84171 17.8535 9.64645C17.6582 9.45118 17.3416 9.45118 17.1464 9.64645L15.1464 11.6464C15.0034 11.7894 14.9606 12.0045 15.038 12.1913C15.1154 12.3782 15.2977 12.5 15.4999 12.5H21.5C22.0523 12.5 22.5 12.9477 22.5 13.5V14.5C22.5 14.7761 22.7239 15 23 15Z" fill="#353566"/>
<path d="M14.5 15.5V14.5C14.5 14.2239 14.7239 14 15 14C15.2761 14 15.5 14.2239 15.5 14.5V15.5C15.5 16.0523 15.9477 16.5 16.5 16.5H22.5C22.7022 16.5 22.8846 16.6218 22.9619 16.8087C23.0393 16.9955 22.9965 17.2106 22.8535 17.3536L20.8535 19.3536C20.6582 19.5488 20.3416 19.5488 20.1464 19.3535C19.9511 19.1583 19.9511 18.8417 20.1464 18.6464L21.2929 17.5H16.5C15.3954 17.5 14.5 16.6046 14.5 15.5Z" fill="#353566"/>
</svg>
