<svg width="24" height="24" viewBox="0 0 24 24" fill="none" xmlns="http://www.w3.org/2000/svg">
<path opacity="0.4" d="M6.89333 1.5C3.02715 1.5 0.5 4.79054 0.5 8.47438C0.5 12.1964 2.74864 15.2028 5.1044 17.3072C7.4609 19.4122 10.0191 20.7001 10.8419 20.9743C10.9445 21.0086 11.0555 21.0086 11.1581 20.9743C11.659 20.8074 12.7635 20.2811 14.0581 19.452C14.1021 19.4239 14.1413 19.3891 14.1745 19.3488C14.6198 18.8079 15.1627 18.3272 15.774 17.8873C15.8827 17.8091 15.9554 17.6907 15.976 17.5585C15.9967 17.4263 15.9634 17.2913 15.8838 17.1838L15.5821 16.7765C15.059 16.0703 14.75 15.1977 14.75 14.25C14.75 11.9028 16.6528 10 19 10C19.5999 10 20.1696 10.124 20.6858 10.3473C20.8271 10.4085 20.9888 10.4011 21.1239 10.3272C21.2591 10.2534 21.3527 10.1215 21.3777 9.9695C21.4574 9.48434 21.5 8.98572 21.5 8.47438C21.5 4.79054 18.9729 1.5 15.1067 1.5C13.1987 1.5 11.8582 2.3934 11 3.25953C10.1418 2.3934 8.80129 1.5 6.89333 1.5Z" fill="#353566"/>
<path d="M19 11.5C17.4812 11.5 16.25 12.7312 16.25 14.25C16.25 15.7688 17.4812 17 19 17C20.5188 17 21.75 15.7688 21.75 14.25C21.75 12.7312 20.5188 11.5 19 11.5Z" fill="#353566"/>
<path d="M19 18.5C16.921 18.5 15.0199 19.9168 14.5158 21.8754C14.4773 22.0251 14.5101 22.1842 14.6048 22.3063C14.6995 22.4285 14.8454 22.5 15 22.5H23C23.1546 22.5 23.3005 22.4285 23.3952 22.3063C23.4899 22.1842 23.5228 22.0251 23.4842 21.8754C22.9801 19.9168 21.0789 18.5 19 18.5Z" fill="#353566"/>
</svg>
