<svg width="24" height="24" viewBox="0 0 24 24" fill="none" xmlns="http://www.w3.org/2000/svg">
<path opacity="0.4" d="M6.89333 1.5C3.02715 1.5 0.5 4.79054 0.5 8.47438C0.5 12.0323 2.55521 14.9362 4.79091 17.0211C7.03026 19.1094 9.52356 20.446 10.5726 20.8734C10.7634 20.9511 10.9825 20.9038 11.1242 20.7542C11.2659 20.6045 11.3014 20.3833 11.2134 20.1969C10.756 19.2277 10.5 18.1445 10.5 17C10.5 12.8579 13.8579 9.5 18 9.5C18.9714 9.5 19.8986 9.68444 20.7492 10.0198C20.893 10.0764 21.0548 10.0635 21.1877 9.98463C21.3206 9.90581 21.4096 9.76999 21.4287 9.6167C21.4755 9.24342 21.5 8.86254 21.5 8.47438C21.5 4.79054 18.9729 1.5 15.1067 1.5C13.1987 1.5 11.8582 2.3934 11 3.25953C10.1418 2.3934 8.80129 1.5 6.89333 1.5Z" fill="#353566"/>
<path fill-rule="evenodd" clip-rule="evenodd" d="M12.25 17C12.25 13.8244 14.8244 11.25 18 11.25C21.1756 11.25 23.75 13.8244 23.75 17C23.75 20.1756 21.1756 22.75 18 22.75C14.8244 22.75 12.25 20.1756 12.25 17ZM19.9421 18.9419C19.698 19.186 19.3023 19.186 19.0582 18.9419L18 17.8838L16.9419 18.9419C16.6979 19.186 16.3021 19.186 16.0581 18.9419C15.814 18.6979 15.814 18.3021 16.0581 18.0581L17.1162 17L16.0581 15.9419C15.814 15.6979 15.814 15.3021 16.0581 15.0581C16.3022 14.814 16.6979 14.814 16.942 15.0581L18 16.1161L19.0581 15.0581C19.3021 14.814 19.6979 14.814 19.9419 15.0581C20.186 15.3021 20.186 15.6979 19.9419 15.9419L18.8839 17L19.942 18.0581C20.1861 18.3021 20.1861 18.6979 19.9421 18.9419Z" fill="#353566"/>
</svg>
