<svg width="24" height="24" viewBox="0 0 24 24" fill="none" xmlns="http://www.w3.org/2000/svg">
<path opacity="0.4" d="M7.89333 2.5C4.02715 2.5 1.5 5.79054 1.5 9.47438C1.5 13.1964 3.74864 16.2028 6.1044 18.3072C8.4609 20.4122 11.0191 21.7001 11.8419 21.9743L12 22.027L12.1581 21.9743C12.9809 21.7001 15.5391 20.4122 17.8956 18.3072C20.2514 16.2028 22.5 13.1964 22.5 9.47438C22.5 5.79054 19.9729 2.5 16.1067 2.5C14.1987 2.5 12.8582 3.3934 12 4.25953C11.1418 3.3934 9.80129 2.5 7.89333 2.5Z" fill="#353566"/>
<path d="M12.75 8.5C12.75 8.08579 12.4142 7.75 12 7.75C11.5858 7.75 11.25 8.08579 11.25 8.5V13.6893L9.53033 11.9697C9.23744 11.6768 8.76256 11.6768 8.46967 11.9697C8.17678 12.2626 8.17678 12.7374 8.46967 13.0303L11.4697 16.0303C11.6103 16.171 11.8011 16.25 12 16.25C12.1989 16.25 12.3897 16.171 12.5303 16.0303L15.5303 13.0303C15.8232 12.7374 15.8232 12.2626 15.5303 11.9697C15.2374 11.6768 14.7626 11.6768 14.4697 11.9697L12.75 13.6893V8.5Z" fill="#353566"/>
</svg>
