<svg width="24" height="24" viewBox="0 0 24 24" fill="none" xmlns="http://www.w3.org/2000/svg">
<path opacity="0.4" d="M14.5891 1.67103C15.9391 0.632671 17.8889 1.63077 17.836 3.33309L17.6821 8.28066C17.6793 8.37069 17.7226 8.45594 17.7969 8.50684L21.872 11.2976C23.2704 12.2553 22.9365 14.4059 21.3135 14.8945L16.5155 16.3387C16.4307 16.3643 16.3643 16.4307 16.3387 16.5155L14.8945 21.3135C14.406 22.9365 12.2553 23.2704 11.2976 21.872L8.50684 17.7969C8.45595 17.7226 8.37069 17.6793 8.28066 17.6821L3.3331 17.836C1.63077 17.8889 0.632671 15.9391 1.67103 14.5891L4.71575 10.6305C4.77012 10.5598 4.78515 10.4665 4.75573 10.3823L3.11382 5.68427C2.55635 4.08915 4.08916 2.55635 5.68427 3.11382L10.3823 4.75573C10.4665 4.78515 10.5598 4.77012 10.6305 4.71575L14.5891 1.67103Z" fill="#353566"/>
<path d="M10.4996 0.249756C10.9138 0.249688 11.2497 0.58542 11.2498 0.999633L11.25 2.49975C11.2501 2.91397 10.9143 3.24981 10.5001 3.24988C10.0859 3.24994 9.75007 2.91421 9.75 2.5L9.74976 0.999877C9.74969 0.585664 10.0854 0.249823 10.4996 0.249756Z" fill="#353566"/>
<path d="M17.9697 17.9695C18.2626 17.6767 18.7374 17.6767 19.0303 17.9695L22.5303 21.4695C22.8232 21.7624 22.8232 22.2373 22.5303 22.5302C22.2374 22.8231 21.7626 22.8231 21.4697 22.5302L17.9697 19.0302C17.6768 18.7373 17.6768 18.2624 17.9697 17.9695Z" fill="#353566"/>
<path d="M21.2628 5.78839C21.6558 5.6574 22.0805 5.86977 22.2115 6.26273C22.3425 6.65569 22.1301 7.08042 21.7372 7.21141L20.2372 7.71141C19.8442 7.8424 19.4195 7.63003 19.2885 7.23707C19.1575 6.84411 19.3699 6.41937 19.7628 6.28838L21.2628 5.78839Z" fill="#353566"/>
<path d="M6.26273 22.2114C5.86977 22.0804 5.6574 21.6557 5.78839 21.2627L6.28839 19.7627C6.41937 19.3697 6.84411 19.1574 7.23707 19.2884C7.63003 19.4194 7.8424 19.8441 7.71141 20.237L7.21141 21.737C7.08043 22.13 6.65569 22.3424 6.26273 22.2114Z" fill="#353566"/>
<path d="M2.49988 9.74988L0.99939 9.75012C0.585176 9.75019 0.249444 10.086 0.249512 10.5002C0.249579 10.9145 0.58542 11.2502 0.999634 11.2501L2.50012 11.2499C2.91434 11.2498 3.25007 10.914 3.25 10.4998C3.24993 10.0855 2.91409 9.74981 2.49988 9.74988Z" fill="#353566"/>
</svg>
