<svg width="24" height="24" viewBox="0 0 24 24" fill="none" xmlns="http://www.w3.org/2000/svg">
<path fill-rule="evenodd" clip-rule="evenodd" d="M8.367 1.25H15.633C16.7251 1.24999 17.5906 1.24999 18.2883 1.30699C19.0017 1.36527 19.6053 1.48688 20.1565 1.76772C21.0502 2.22312 21.7769 2.94978 22.2323 3.84355C22.5131 4.39472 22.6347 4.99835 22.693 5.71173C22.75 6.40935 22.75 7.27484 22.75 8.36698V15.633C22.75 16.7252 22.75 17.5906 22.693 18.2883C22.6347 19.0017 22.5131 19.6053 22.2323 20.1565C21.7769 21.0502 21.0502 21.7769 20.1565 22.2323C19.6053 22.5131 19.0017 22.6347 18.2883 22.693C17.5906 22.75 16.7252 22.75 15.633 22.75H8.36698C7.27484 22.75 6.40935 22.75 5.71173 22.693C4.99835 22.6347 4.39472 22.5131 3.84355 22.2323C2.94978 21.7769 2.22312 21.0502 1.76772 20.1565C1.48688 19.6053 1.36527 19.0017 1.30699 18.2883C1.24999 17.5906 1.24999 16.7252 1.25 15.633V8.36699C1.24999 7.27486 1.24999 6.40935 1.30699 5.71173C1.36527 4.99834 1.48688 4.39472 1.76772 3.84355C2.22312 2.94978 2.94978 2.22312 3.84355 1.76772C4.39472 1.48688 4.99835 1.36527 5.71173 1.30699C6.40935 1.24999 7.27486 1.24999 8.367 1.25ZM11.2661 7.05938C11.3351 7.10357 11.375 7.18084 11.375 7.26281V16.8368C11.375 16.9619 11.2309 17.0321 11.1324 16.9549L10.9712 16.8284C10.554 16.5012 10.0392 16.3234 9.50901 16.3234H9.21735C8.38968 16.3234 7.57995 16.5646 6.88713 17.0174C6.29079 17.4071 5.5 16.9793 5.5 16.2669V8.57431C5.5 8.15722 5.71044 7.76828 6.05957 7.54009L6.22515 7.43186C7.15559 6.82374 8.24305 6.49988 9.35459 6.49988C10.0399 6.49988 10.7018 6.69814 11.2661 7.05938ZM12.8676 16.9549C12.7691 17.0321 12.625 16.9619 12.625 16.8368V7.26281C12.625 7.18084 12.6649 7.10357 12.7339 7.05938C13.2982 6.69814 13.9601 6.49988 14.6454 6.49988C15.757 6.49988 16.8444 6.82374 17.7748 7.43186L17.9404 7.54009C18.2896 7.76828 18.5 8.15722 18.5 8.57431V16.2669C18.5 16.9793 17.7092 17.4071 17.1129 17.0174C16.4201 16.5646 15.6103 16.3234 14.7826 16.3234H14.491C13.9608 16.3234 13.446 16.5012 13.0288 16.8284L12.8676 16.9549Z" fill="#353566"/>
</svg>
