<svg width="24" height="24" viewBox="0 0 24 24" fill="none" xmlns="http://www.w3.org/2000/svg">
<path fill-rule="evenodd" clip-rule="evenodd" d="M18.0001 0.5C15.5144 0.5 13.5 2.51704 13.5 5.00203C13.5 7.76672 15.7001 9.90007 17.7 11.4C17.8778 11.5333 18.1222 11.5333 18.3 11.4C20.3 9.9 22.5 7.76667 22.5 5C22.5 2.51469 20.4854 0.5 18.0001 0.5ZM19.5 5.00009C19.5 5.82853 18.8285 6.50011 18 6.50011C17.1716 6.50011 16.5 5.82853 16.5 5.00009C16.5 4.17164 17.1716 3.50006 18 3.50006C18.8285 3.50006 19.5 4.17164 19.5 5.00009Z" fill="#353566"/>
<path d="M7.16763 2.25L11.806 2.25L11.82 2.25014C12.0588 2.25201 12.2825 2.36754 12.4223 2.56122C12.562 2.7549 12.6012 3.00358 12.5277 3.23084C12.3476 3.78798 12.25 4.38297 12.25 5.00203C12.25 8.43354 14.9504 10.9003 16.95 12.4C17.0606 12.4829 17.1781 12.5509 17.3001 12.6042C17.5734 12.7235 17.75 12.9933 17.75 13.2915V22.281C17.75 23.0922 17.0922 23.75 16.281 23.75C15.9115 23.75 15.5557 23.611 15.2839 23.3597L10.0763 18.5531C10.0671 18.5446 10.0582 18.5359 10.0494 18.527C9.85843 18.3322 9.72023 18.2204 9.61944 18.1592C9.57174 18.1302 9.53994 18.1173 9.52203 18.1116C9.5056 18.1063 9.49934 18.1066 9.49934 18.1066L9.49768 18.1067L9.49424 18.1071C9.49127 18.1076 9.48565 18.1087 9.47695 18.1115C9.45923 18.1171 9.42762 18.13 9.38011 18.1588C9.27972 18.2198 9.14184 18.3315 8.95121 18.5264C8.94227 18.5355 8.93309 18.5444 8.92369 18.5531L3.71622 23.3596C3.44443 23.611 3.08852 23.75 2.719 23.75C1.90779 23.75 1.25 23.0922 1.25 22.281V8.1937C1.25158 8.00534 1.25243 7.82537 1.25323 7.65181L1.25369 7.54641C1.25831 6.47751 1.26226 5.56364 1.52439 4.79668C1.82247 3.92451 2.41706 3.31033 3.38 2.71583C3.39745 2.70506 3.41533 2.695 3.4336 2.6857C3.90445 2.44587 4.41538 2.34477 5.00372 2.29674C5.57634 2.24999 6.28458 2.24999 7.16763 2.25Z" fill="#353566"/>
</svg>
