<svg width="24" height="24" viewBox="0 0 24 24" fill="none" xmlns="http://www.w3.org/2000/svg">
<path d="M21.6009 4.21996L18.5005 5.12425V9.49092L18.5005 9.49989C18.5005 10.0643 18.2114 10.5881 17.7146 10.9607C17.2232 11.3293 16.601 11.5001 16.0003 11.5001C15.3995 11.5001 14.7773 11.3293 14.2859 10.9607C13.7891 10.5881 13.5 10.0643 13.5 9.49989C13.5 8.93548 13.7891 8.41167 14.2859 8.03909C14.7773 7.67052 15.3995 7.49969 16.0003 7.49969C16.5167 7.49969 17.049 7.62595 17.5005 7.89555V2.70901C17.5005 2.04229 17.9405 1.45557 18.5806 1.26889L21.0609 0.545466C21.7809 0.335451 22.501 0.875489 22.501 1.62554V3.01987C22.501 3.57546 22.1343 4.06439 21.6009 4.21996Z" fill="#353566"/>
<path d="M7.16763 2.25006L11.806 2.25006C11.9916 2.25155 12.1691 2.25235 12.3403 2.25309L12.5038 2.25372C13.8595 2.25866 14.973 2.26272 15.9062 2.86301C16.1208 3.00103 16.2505 3.23866 16.2505 3.49379V5.50698C16.2505 5.86999 15.9905 6.18089 15.6332 6.24514C14.8039 6.39426 14.1171 6.60315 13.5359 7.03908C12.771 7.61276 12.25 8.48715 12.25 9.49988C12.25 11.3575 14.0346 12.7501 16.0003 12.7501C16.2824 12.7501 16.5665 12.7199 16.8457 12.6612C17.0669 12.6147 17.2972 12.6704 17.4727 12.8128C17.6481 12.9552 17.75 13.1692 17.75 13.3952V22.2811C17.75 23.0923 17.0922 23.7501 16.281 23.7501C15.9115 23.7501 15.5557 23.6111 15.2839 23.3598L10.0763 18.5532C10.0671 18.5447 10.0582 18.536 10.0494 18.5271C9.85843 18.3322 9.72023 18.2204 9.61944 18.1592C9.57174 18.1303 9.53994 18.1174 9.52203 18.1116C9.5056 18.1064 9.49934 18.1067 9.49934 18.1067L9.49768 18.1068L9.49424 18.1072L9.48846 18.1083C9.48548 18.109 9.48167 18.1101 9.47695 18.1116C9.45923 18.1172 9.42762 18.13 9.38011 18.1589C9.27972 18.2199 9.14184 18.3315 8.95121 18.5264C8.94227 18.5356 8.93309 18.5445 8.92369 18.5532L3.71622 23.3597C3.44443 23.611 3.08852 23.7501 2.719 23.7501C1.90779 23.7501 1.25 23.0923 1.25 22.2811V8.19376C1.25158 8.0054 1.25243 7.82543 1.25323 7.65187L1.25369 7.54647C1.25831 6.47757 1.26226 5.5637 1.52439 4.79674C1.82247 3.92457 2.41706 3.31039 3.38 2.71589C3.39745 2.70512 3.41533 2.69507 3.4336 2.68576C3.90445 2.44593 4.41538 2.34483 5.00372 2.2968C5.57634 2.25005 6.28458 2.25005 7.16763 2.25006Z" fill="#353566"/>
</svg>
