<svg width="24" height="24" viewBox="0 0 24 24" fill="none" xmlns="http://www.w3.org/2000/svg">
<path d="M7.50012 1.25C5.15291 1.25 3.25012 3.15279 3.25012 5.5V12.1886C3.25012 12.5326 3.48419 12.8325 3.81793 12.9161C4.15166 12.9997 4.49945 12.8455 4.6616 12.542C4.963 11.978 5.26636 11.5317 5.63116 11.225C5.97427 10.9366 6.39687 10.75 7.0021 10.75C7.73029 10.75 8.2105 11.0205 8.60869 11.451C9.0417 11.9192 9.36834 12.5654 9.7364 13.3292C9.84627 13.5573 10.0637 13.7145 10.3147 13.7473C11.1607 13.8581 11.8821 13.9661 12.4658 14.2327C13.002 14.4777 13.4102 14.8518 13.6353 15.5503C13.7915 16.0338 13.7817 16.4296 13.6828 16.7786C13.6701 16.8199 13.6608 16.8627 13.6554 16.9066C13.6466 16.9768 13.6478 17.0474 13.6586 17.1164C13.6719 17.2017 13.6996 17.2822 13.7391 17.3554C13.7568 17.3883 13.7771 17.4201 13.7998 17.4504C13.8669 17.5397 13.952 17.6116 14.0481 17.6625C14.1549 17.7192 14.2753 17.75 14.3995 17.75H19.2502V21.2499H12.7203C12.3061 21.2499 11.9703 21.5857 11.9703 21.9999C11.9703 22.4141 12.3061 22.7499 12.7203 22.7499H22.0002C22.4144 22.7499 22.7502 22.4141 22.7502 21.9999C22.7502 21.5857 22.4144 21.2499 22.0002 21.2499H20.7502V17.7363C21.8751 17.6119 22.7501 16.6581 22.7501 15.5V3.5C22.7501 2.25736 21.7428 1.25 20.5001 1.25H7.50012Z" fill="#353566"/>
<path d="M5.98672 12.6365C6.3958 11.7878 7.60438 11.7878 8.01345 12.6365L9.07876 14.8464L11.52 15.165C12.4616 15.2879 12.8368 16.45 12.1448 17.1003L10.3665 18.7713L10.8142 21.1646C10.988 22.0935 10.0084 22.8097 9.17601 22.3625L7.00009 21.1934L4.82417 22.3625C3.99175 22.8097 3.01222 22.0935 3.18597 21.1646L3.63366 18.7713L1.85541 17.1003C1.16343 16.45 1.53863 15.2879 2.48021 15.165L4.92142 14.8464L5.98672 12.6365Z" fill="#353566"/>
</svg>
