<svg width="24" height="24" viewBox="0 0 24 24" fill="none" xmlns="http://www.w3.org/2000/svg">
<path fill-rule="evenodd" clip-rule="evenodd" d="M4.70987 7.90746C5.05264 4.13698 8.21397 1.25 12 1.25C15.786 1.25 18.9474 4.13698 19.2901 7.90746L19.468 9.86397C19.6397 11.753 20.2808 13.5691 21.3329 15.1473L21.3662 15.1972C21.6165 15.5726 21.75 16.0137 21.75 16.4648C21.75 17.7269 20.7269 18.75 19.4648 18.75H4.53518C3.27311 18.75 2.25 17.7269 2.25 16.4648C2.25 16.0137 2.38354 15.5726 2.6338 15.1972L2.66706 15.1473C3.7192 13.5691 4.36027 11.753 4.532 9.86398L4.70987 7.90746ZM16.0303 9.28033C16.3232 8.98744 16.3232 8.51256 16.0303 8.21967C15.7374 7.92678 15.2626 7.92678 14.9697 8.21967L11 12.1893L9.03033 10.2197C8.73744 9.92678 8.26256 9.92678 7.96967 10.2197C7.67678 10.5126 7.67678 10.9874 7.96967 11.2803L10.4697 13.7803C10.7626 14.0732 11.2374 14.0732 11.5303 13.7803L16.0303 9.28033Z" fill="#353566"/>
<path d="M10.0506 20.1243C9.84317 19.7658 9.38437 19.6433 9.02583 19.8507C8.66728 20.0581 8.54476 20.5169 8.75217 20.8754C9.39943 21.9943 10.611 22.7499 12 22.7499C13.389 22.7499 14.6006 21.9943 15.2479 20.8754C15.4553 20.5169 15.3328 20.0581 14.9742 19.8507C14.6157 19.6433 14.1569 19.7658 13.9495 20.1243C13.5593 20.7988 12.8319 21.2499 12 21.2499C11.1681 21.2499 10.4407 20.7988 10.0506 20.1243Z" fill="#353566"/>
</svg>
