<svg width="24" height="24" viewBox="0 0 24 24" fill="none" xmlns="http://www.w3.org/2000/svg">
<path d="M9.60753 1.25317C10.5239 1.30872 11.25 2.06953 11.25 2.99992V19.9999C11.25 21.4955 10.0561 22.7123 8.56934 22.7491C7.6498 22.7328 6.84851 22.4849 6.19925 22.0032C5.6507 21.5963 5.24907 21.051 4.97408 20.42C2.83915 19.9439 1.25 18.0429 1.25 15.7633C1.25 15.0461 1.40365 14.4604 1.56034 14.0495C1.60392 13.9352 1.6479 13.834 1.68917 13.7467C1.64805 13.6457 1.60198 13.5278 1.55573 13.3998C1.42414 13.0355 1.25 12.4819 1.25 12.0055C1.25 10.4098 2.15575 9.01473 3.49098 8.33847C3.47803 8.19675 3.47222 8.05499 3.47222 7.91437C3.47222 6.36611 4.18542 5.3183 4.88817 4.67533C5.23527 4.35777 5.58056 4.13705 5.83995 3.99492C5.88716 3.96905 5.93178 3.94564 5.97336 3.9246C5.99254 3.87902 6.01412 3.82981 6.03821 3.77754C6.16354 3.50564 6.36164 3.14091 6.65423 2.77274C7.22402 2.05576 8.17249 1.30831 9.60753 1.25317Z" fill="#353566"/>
<path d="M14.3925 1.25317C13.4761 1.30872 12.75 2.06953 12.75 2.99992V19.9999C12.75 21.4955 13.9439 22.7123 15.4307 22.7491C16.3502 22.7328 17.1515 22.4849 17.8008 22.0032C18.3493 21.5963 18.7509 21.051 19.0259 20.42C21.1609 19.9439 22.75 18.0429 22.75 15.7633C22.75 15.0461 22.5963 14.4604 22.4397 14.0495C22.3961 13.9352 22.3521 13.834 22.3108 13.7467C22.352 13.6457 22.398 13.5278 22.4443 13.3998C22.5759 13.0355 22.75 12.4819 22.75 12.0055C22.75 10.4098 21.8442 9.01473 20.509 8.33847C20.522 8.19675 20.5278 8.05499 20.5278 7.91437C20.5278 6.36611 19.8146 5.3183 19.1118 4.67533C18.7647 4.35777 18.4194 4.13705 18.1601 3.99492C18.1128 3.96905 18.0682 3.94564 18.0266 3.9246C18.0075 3.87902 17.9859 3.82981 17.9618 3.77753C17.8365 3.50564 17.6384 3.14091 17.3458 2.77274C16.776 2.05576 15.8275 1.30831 14.3925 1.25317Z" fill="#353566"/>
</svg>
