<svg width="24" height="24" viewBox="0 0 24 24" fill="none" xmlns="http://www.w3.org/2000/svg">
<path fill-rule="evenodd" clip-rule="evenodd" d="M3.25 15.2321C3.24999 16.0449 3.24999 16.7006 3.29336 17.2315C3.33803 17.7781 3.43239 18.2582 3.65873 18.7025C4.01014 19.3922 4.56616 19.9558 5.25 20.3166V22C5.25 22.4142 5.58579 22.75 6 22.75H6.5C6.91421 22.75 7.25 22.4142 7.25 22V20.734C7.68313 20.75 8.18509 20.75 8.76788 20.75H15.2321C15.8149 20.75 16.3169 20.75 16.75 20.734V22C16.75 22.4142 17.0858 22.75 17.5 22.75H18C18.4142 22.75 18.75 22.4142 18.75 22V20.3166C19.4338 19.9558 19.9899 19.3922 20.3413 18.7025C20.5676 18.2582 20.662 17.7781 20.7066 17.2315C20.75 16.7006 20.75 16.045 20.75 15.2321V6.12692C20.75 6.03494 20.75 5.97175 20.7481 5.91205C20.7022 4.46582 19.8283 3.17505 18.5025 2.59528C18.4478 2.57135 18.3892 2.54789 18.3038 2.51376L18.064 2.41781C16.1353 1.64636 14.0772 1.25 12 1.25C9.92279 1.25 7.86467 1.64636 5.93603 2.41781L5.69631 2.5137C5.61088 2.54787 5.55219 2.57134 5.49746 2.59528C4.17172 3.17505 3.29783 4.46582 3.25189 5.91205C3.24999 5.97175 3.25 6.03494 3.25 6.12691L3.25 15.2321ZM19.25 12.25H12.75V7.75H19.25V12.25ZM11.25 7.75H4.75V12.25H11.25V7.75ZM7 16.5C7 15.9477 7.44772 15.5 8 15.5C8.55228 15.5 9.0001 15.9477 9.0001 16.5C9.0001 17.0523 8.55228 17.5 8 17.5C7.44772 17.5 7 17.0523 7 16.5ZM15 16.5C15 15.9477 15.4477 15.5 16 15.5C16.5523 15.5 17.0001 15.9477 17.0001 16.5C17.0001 17.0523 16.5523 17.5 16 17.5C15.4477 17.5 15 17.0523 15 16.5Z" fill="#353566"/>
<path d="M22 7.75C22.4142 7.75 22.75 8.08579 22.75 8.5V11.5C22.75 11.9142 22.4142 12.25 22 12.25C21.5858 12.25 21.25 11.9142 21.25 11.5V8.5C21.25 8.08579 21.5858 7.75 22 7.75Z" fill="#353566"/>
<path d="M2 7.75C2.41421 7.75 2.75 8.08579 2.75 8.5V11.5C2.75 11.9142 2.41421 12.25 2 12.25C1.58579 12.25 1.25 11.9142 1.25 11.5V8.5C1.25 8.08579 1.58579 7.75 2 7.75Z" fill="#353566"/>
</svg>
