<svg width="24" height="24" viewBox="0 0 24 24" fill="none" xmlns="http://www.w3.org/2000/svg">
<path d="M7.69993 8.71421C8.09438 8.32765 8.10077 7.69452 7.71421 7.30007C7.32765 6.90562 6.69452 6.89923 6.30007 7.28579L2.30007 11.2058C2.11063 11.3914 2.0027 11.6448 2.00005 11.91C1.9974 12.1752 2.10023 12.4307 2.28592 12.6201L6.28584 16.7001C6.67248 17.0944 7.30561 17.1007 7.69999 16.7141C8.09436 16.3274 8.10064 15.6943 7.714 15.2999L4.41428 11.9342L7.69993 8.71421Z" fill="#353566"/>
<path d="M17.6996 7.28543C17.3049 6.89907 16.6718 6.90579 16.2854 7.30044C15.8991 7.69508 15.9058 8.32821 16.3004 8.71457L19.5857 11.9309L16.2856 15.3003C15.8991 15.6948 15.9057 16.328 16.3003 16.7144C16.6948 17.1009 17.328 17.0943 17.7144 16.6997L21.7144 12.6157C21.9 12.4262 22.0027 12.1707 21.9999 11.9055C21.9972 11.6403 21.8891 11.387 21.6996 11.2014L17.6996 7.28543Z" fill="#353566"/>
</svg>
