<svg width="24" height="24" viewBox="0 0 24 24" fill="none" xmlns="http://www.w3.org/2000/svg">
<g clip-path="url(#clip0_7343_967)">
<path fill-rule="evenodd" clip-rule="evenodd" d="M23.5 12C23.5 18.3513 18.3513 23.5 12 23.5C5.64873 23.5 0.5 18.3513 0.5 12C0.5 5.64873 5.64873 0.5 12 0.5C18.3513 0.5 23.5 5.64873 23.5 12ZM13 2.552V6C13 6.55228 12.5523 7 12 7C11.4477 7 11 6.55228 11 6V2.552C6.55197 3.01732 3.01732 6.55197 2.552 11H6C6.55228 11 7 11.4477 7 12C7 12.5523 6.55228 13 6 13H2.552C3.01732 17.448 6.55197 20.9827 11 21.448V18C11 17.4477 11.4477 17 12 17C12.5523 17 13 17.4477 13 18V21.448C17.448 20.9827 20.9827 17.448 21.448 13H18C17.4477 13 17 12.5523 17 12C17 11.4477 17.4477 11 18 11H21.448C20.9827 6.55197 17.448 3.01732 13 2.552Z" fill="#353566"/>
</g>
<defs>
<clipPath id="clip0_7343_967">
<rect width="24" height="24" fill="white"/>
</clipPath>
</defs>
</svg>
