<svg width="24" height="24" viewBox="0 0 24 24" fill="none" xmlns="http://www.w3.org/2000/svg">
<path d="M22.75 8C22.75 6.48122 21.5188 5.25 20 5.25C18.4812 5.25 17.25 6.48122 17.25 8C17.25 9.51878 18.4812 10.75 20 10.75C21.5188 10.75 22.75 9.51878 22.75 8Z" fill="#353566"/>
<path d="M22.75 16C22.75 14.4812 21.5188 13.25 20 13.25C18.4812 13.25 17.25 14.4812 17.25 16C17.25 17.5188 18.4812 18.75 20 18.75C21.5188 18.75 22.75 17.5188 22.75 16Z" fill="#353566"/>
<path d="M14.75 8C14.75 6.48122 13.5188 5.25 12 5.25C10.4812 5.25 9.25 6.48122 9.25 8C9.25 9.51878 10.4812 10.75 12 10.75C13.5188 10.75 14.75 9.51878 14.75 8Z" fill="#353566"/>
<path d="M6.75 8C6.75 6.48122 5.51878 5.25 4 5.25C2.48122 5.25 1.25 6.48122 1.25 8C1.25 9.51878 2.48122 10.75 4 10.75C5.51878 10.75 6.75 9.51878 6.75 8Z" fill="#353566"/>
<path d="M14.75 16C14.75 14.4812 13.5188 13.25 12 13.25C10.4812 13.25 9.25 14.4812 9.25 16C9.25 17.5188 10.4812 18.75 12 18.75C13.5188 18.75 14.75 17.5188 14.75 16Z" fill="#353566"/>
<path d="M6.75 16C6.75 14.4812 5.51878 13.25 4 13.25C2.48122 13.25 1.25 14.4812 1.25 16C1.25 17.5188 2.48122 18.75 4 18.75C5.51878 18.75 6.75 17.5188 6.75 16Z" fill="#353566"/>
</svg>
