<svg width="24" height="24" viewBox="0 0 24 24" fill="none" xmlns="http://www.w3.org/2000/svg">
<path d="M12 22.5C6.20101 22.5 1.5 17.799 1.5 12V8.5C1.5 8.36193 1.61193 8.25 1.75 8.25H8C8.13807 8.25 8.25 8.36193 8.25 8.5L8.25 12C8.25 14.0711 9.92893 15.75 12 15.75C14.0711 15.75 15.75 14.0711 15.75 12V8.5C15.75 8.36193 15.8619 8.25 16 8.25H22.25C22.3881 8.25 22.5 8.36193 22.5 8.5V12C22.5 17.799 17.799 22.5 12 22.5Z" fill="#353566"/>
<path d="M22.25 6.75C22.3881 6.75 22.5 6.63807 22.5 6.5V3.25C22.5 2.2835 21.7165 1.5 20.75 1.5H17.5C16.5335 1.5 15.75 2.2835 15.75 3.25V6.5C15.75 6.63807 15.8619 6.75 16 6.75H22.25Z" fill="#353566"/>
<path d="M8 6.75C8.13807 6.75 8.25 6.63807 8.25 6.5L8.25 3.25C8.25 2.2835 7.4665 1.5 6.5 1.5H3.25C2.2835 1.5 1.5 2.2835 1.5 3.25V6.5C1.5 6.63807 1.61193 6.75 1.75 6.75H8Z" fill="#353566"/>
</svg>
