<svg width="24" height="24" viewBox="0 0 24 24" fill="none" xmlns="http://www.w3.org/2000/svg">
<path d="M7.5 13.5C7.5 12.9477 7.94772 12.5 8.5 12.5C9.05228 12.5 9.5001 12.9477 9.5001 13.5C9.5001 14.0523 9.05238 14.5 8.5001 14.5C7.94782 14.5 7.5 14.0523 7.5 13.5Z" fill="#353566"/>
<path d="M10.5 14.875C10.1548 14.875 9.875 15.1548 9.875 15.5C9.875 15.8452 10.1548 16.125 10.5 16.125C10.8452 16.125 11.1251 15.8452 11.1251 15.5C11.1251 15.1548 10.8452 14.875 10.5 14.875Z" fill="#353566"/>
<path fill-rule="evenodd" clip-rule="evenodd" d="M20.3931 1.5178C21.776 0.568996 23.4365 2.25936 22.4632 3.62516L18.4554 9.24956H20.1002C21.2982 9.24956 22.0128 10.5848 21.3483 11.5816L16.5985 18.7064C16.4512 18.9545 16.2913 19.1941 16.1197 19.4245C16.1073 19.4424 16.0944 19.4596 16.0808 19.4761C14.5758 21.4637 12.188 22.75 9.5 22.75C4.94365 22.75 1.25 19.0564 1.25 14.5C1.25 11.5481 2.8009 8.95894 5.12879 7.50205L11.4013 3.18964C12.3967 2.50525 13.7515 3.2182 13.7511 4.42621L13.7505 6.07512L20.3931 1.5178ZM4.75 14.5002C4.75 11.8769 6.87665 9.75024 9.5 9.75024C12.1234 9.75024 14.25 11.8769 14.25 14.5002C14.25 17.1236 12.1234 19.2502 9.5 19.2502C6.87665 19.2502 4.75 17.1236 4.75 14.5002Z" fill="#353566"/>
</svg>
