<svg width="24" height="24" viewBox="0 0 24 24" fill="none" xmlns="http://www.w3.org/2000/svg">
<path fill-rule="evenodd" clip-rule="evenodd" d="M9.74326 1.89911C11.1234 1.03429 12.8764 1.03428 14.2566 1.89909L19.7566 5.34543C20.9969 6.12257 21.75 7.48321 21.75 8.94683V15.0536C21.75 16.5172 20.9969 17.8779 19.7566 18.655L14.2565 22.1013C12.8764 22.966 11.1234 22.966 9.74331 22.1012L4.24338 18.655C3.00312 17.8779 2.25 16.5172 2.25 15.0536V8.94681C2.25 7.48321 3.00309 6.12258 4.24333 5.34543L9.74326 1.89911ZM8.5 12C8.5 10.067 10.067 8.50003 12 8.50003C13.933 8.50003 15.5 10.067 15.5 12C15.5 13.933 13.933 15.5 12 15.5C10.067 15.5 8.5 13.933 8.5 12Z" fill="#353566"/>
</svg>
