<svg width="24" height="24" viewBox="0 0 24 24" fill="none" xmlns="http://www.w3.org/2000/svg">
<path d="M5.58037 3.19736C5.73178 2.08191 6.68424 1.25 7.80992 1.25H16.1897C17.3153 1.25 18.2678 2.08188 18.4192 3.19732L18.5236 3.96645C18.544 4.11651 18.4273 4.25008 18.2759 4.25008H14.5118C14.5046 4.24997 14.4973 4.24997 14.4901 4.25008H9.52801C9.52074 4.24997 9.51348 4.24997 9.50624 4.25008H5.7237C5.57227 4.25008 5.4556 4.11651 5.47597 3.96645L5.58037 3.19736Z" fill="#353566"/>
<path d="M5.45222 5.75008C5.32714 5.75008 5.22131 5.84251 5.20449 5.96645L4.86514 8.46645C4.84477 8.61651 4.96143 8.75008 5.11287 8.75008H5.44684L5.88548 8.68774C7.33735 8.4814 8.4712 7.32833 8.65309 5.87319C8.66126 5.80782 8.61029 5.75008 8.54442 5.75008H5.45222Z" fill="#353566"/>
<path d="M4.84139 10.2501C4.71631 10.2501 4.61048 10.3425 4.59366 10.4665L3.27278 20.1974C3.08946 21.5479 4.13942 22.75 5.50234 22.75H7.80651C8.85423 22.75 9.7633 22.0268 9.99889 21.0059L11.7562 13.391C11.8158 13.1326 12.1837 13.1326 12.2434 13.391L14.0007 21.0059C14.2363 22.0268 15.1453 22.75 16.193 22.75H18.4976C19.8605 22.75 20.9105 21.5479 20.7271 20.1973L19.4061 10.4664C19.3892 10.3425 19.2834 10.2501 19.1583 10.2501H18.5182C18.4829 10.2501 18.4476 10.2476 18.4127 10.2426L17.9215 10.1728C15.7996 9.87125 14.1424 8.18598 13.8766 6.05924L13.8653 5.96907C13.8496 5.84396 13.7433 5.75008 13.6172 5.75008H10.4008C10.2748 5.75008 10.1684 5.84396 10.1528 5.96907L10.1415 6.05924C9.87567 8.18598 8.21851 9.87125 6.09653 10.1728L5.6054 10.2426C5.57044 10.2476 5.53518 10.2501 5.49987 10.2501H4.84139Z" fill="#353566"/>
<path d="M18.8868 8.75008C19.0382 8.75008 19.1549 8.61651 19.1345 8.46645L18.7951 5.96645C18.7783 5.84251 18.6725 5.75008 18.5474 5.75008H15.4737C15.4078 5.75008 15.3568 5.80782 15.365 5.87319C15.5469 7.32833 16.6807 8.4814 18.1326 8.68774L18.5712 8.75008H18.8868Z" fill="#353566"/>
</svg>
