<svg width="24" height="24" viewBox="0 0 24 24" fill="none" xmlns="http://www.w3.org/2000/svg">
<path fill-rule="evenodd" clip-rule="evenodd" d="M1.25 10.5C1.25 5.39137 5.39137 1.25 10.5 1.25C15.6086 1.25 19.75 5.39137 19.75 10.5C19.75 12.7843 18.922 14.8753 17.5497 16.489L22.5303 21.4697C22.8232 21.7626 22.8232 22.2374 22.5303 22.5303C22.2374 22.8232 21.7626 22.8232 21.4697 22.5303L16.489 17.5497C14.8753 18.922 12.7843 19.75 10.5 19.75C5.39137 19.75 1.25 15.6086 1.25 10.5ZM13.7406 6.38382C13.2305 5.87373 12.4032 5.87077 11.8912 6.38269L11.2675 7.0064C11.1699 7.10403 11.1699 7.26232 11.2675 7.35995L13.6423 9.73475C13.74 9.83238 13.8983 9.83238 13.9959 9.73475L14.6185 9.11217C15.1295 8.60117 15.1295 7.77268 14.6185 7.26168L13.7406 6.38382ZM10.2069 8.06706C10.3045 7.96943 10.4628 7.96943 10.5604 8.06706L12.9352 10.4419C13.0329 10.5395 13.0329 10.6978 12.9352 10.7954L9.45808 14.2726C9.30395 14.4267 9.10774 14.5319 8.89406 14.5749L6.84106 14.9881C6.34917 15.0871 5.91519 14.6531 6.0142 14.1612L6.42742 12.1082C6.46992 11.8971 6.57166 11.7023 6.7276 11.5463L10.2069 8.06706Z" fill="#353566"/>
</svg>
