<svg width="24" height="24" viewBox="0 0 24 24" fill="none" xmlns="http://www.w3.org/2000/svg">
<path fill-rule="evenodd" clip-rule="evenodd" d="M1.25 10.5C1.25 5.39137 5.39137 1.25 10.5 1.25C15.6086 1.25 19.75 5.39137 19.75 10.5C19.75 12.7843 18.922 14.8753 17.5497 16.489L22.5303 21.4697C22.8232 21.7626 22.8232 22.2374 22.5303 22.5303C22.2374 22.8232 21.7626 22.8232 21.4697 22.5303L16.489 17.5497C14.8753 18.922 12.7843 19.75 10.5 19.75C5.39137 19.75 1.25 15.6086 1.25 10.5ZM9.5 7C9.5 6.44772 9.94772 6 10.5 6C11.0523 6 11.5001 6.44772 11.5001 7C11.5001 7.55228 11.0523 8 10.5 8C9.94772 8 9.5 7.55228 9.5 7ZM8.75 10.5C8.75 10.0858 9.08579 9.75 9.5 9.75H10.5C10.9142 9.75 11.25 10.0858 11.25 10.5L11.25 14.5C11.25 14.9142 10.9142 15.25 10.5 15.25C10.0858 15.25 9.75001 14.9142 9.75001 14.5L9.75001 11.25H9.5C9.08579 11.25 8.75 10.9142 8.75 10.5Z" fill="#353566"/>
</svg>
