<svg width="24" height="24" viewBox="0 0 24 24" fill="none" xmlns="http://www.w3.org/2000/svg">
<path fill-rule="evenodd" clip-rule="evenodd" d="M1.25 10.5C1.25 5.39137 5.39137 1.25 10.5 1.25C15.6086 1.25 19.75 5.39137 19.75 10.5C19.75 12.7843 18.922 14.8753 17.5497 16.489L22.5303 21.4697C22.8232 21.7626 22.8232 22.2374 22.5303 22.5303C22.2374 22.8232 21.7626 22.8232 21.4697 22.5303L16.489 17.5497C14.8753 18.922 12.7843 19.75 10.5 19.75C5.39137 19.75 1.25 15.6086 1.25 10.5ZM13.8334 11.25C14.2476 11.25 14.5834 10.9142 14.5834 10.5V9.91667C14.5834 8.67403 13.576 7.66667 12.3334 7.66667L9.39398 7.66667L9.78032 7.28033C10.0732 6.98744 10.0732 6.51256 9.78032 6.21967C9.48743 5.92678 9.01255 5.92678 8.71966 6.21967L7.05299 7.88634C6.83849 8.10083 6.77433 8.42342 6.89041 8.70368C7.0065 8.98393 7.27998 9.16667 7.58332 9.16667H12.3334C12.7476 9.16667 13.0834 9.50245 13.0834 9.91667V10.5C13.0834 10.9142 13.4192 11.25 13.8334 11.25ZM7.16663 9.75C6.75241 9.75 6.41663 10.0858 6.41663 10.5V11.0833C6.41663 12.326 7.42399 13.3333 8.66663 13.3333H11.6059L11.2196 13.7197C10.9267 14.0126 10.9267 14.4874 11.2196 14.7803C11.5125 15.0732 11.9873 15.0732 12.2802 14.7803L13.9469 13.1137C14.1615 12.8992 14.2256 12.5766 14.1095 12.2963C13.9935 12.0161 13.72 11.8333 13.4166 11.8333H8.66663C8.25241 11.8333 7.91663 11.4975 7.91663 11.0833V10.5C7.91663 10.0858 7.58084 9.75 7.16663 9.75Z" fill="#353566"/>
</svg>
