<svg width="24" height="24" viewBox="0 0 24 24" fill="none" xmlns="http://www.w3.org/2000/svg">
<path fill-rule="evenodd" clip-rule="evenodd" d="M1.25 10.5C1.25 5.39137 5.39137 1.25 10.5 1.25C15.6086 1.25 19.75 5.39137 19.75 10.5C19.75 12.7843 18.922 14.8753 17.5497 16.489L22.5303 21.4697C22.8232 21.7626 22.8232 22.2374 22.5303 22.5303C22.2374 22.8232 21.7626 22.8232 21.4697 22.5303L16.489 17.5497C14.8753 18.922 12.7843 19.75 10.5 19.75C5.39137 19.75 1.25 15.6086 1.25 10.5ZM10.8518 7.63529C10.8859 6.58829 11.7454 5.75 12.8007 5.75C13.8777 5.75 14.7507 6.62304 14.7507 7.7C14.7507 8.77695 13.8777 9.65 12.8007 9.65C12.2448 9.65 11.7433 9.41739 11.388 9.0442L9.12329 10.1766C9.14086 10.2818 9.15 10.3899 9.15 10.5C9.15 10.6102 9.14086 10.7182 9.12331 10.8234L11.3881 11.9558C11.7433 11.5827 12.2448 11.3501 12.8007 11.3501C13.8777 11.3501 14.7507 12.2231 14.7507 13.3001C14.7507 14.3771 13.8777 15.2501 12.8007 15.2501C11.7454 15.2501 10.8858 14.4118 10.8518 13.3647L8.31808 12.0979C8.00151 12.3198 7.61597 12.45 7.2 12.45C6.12304 12.45 5.25 11.577 5.25 10.5C5.25 9.42309 6.12304 8.55005 7.2 8.55005C7.61593 8.55005 8.00145 8.68027 8.318 8.90217L10.8518 7.63529Z" fill="#353566"/>
</svg>
