<svg width="24" height="24" viewBox="0 0 24 24" fill="none" xmlns="http://www.w3.org/2000/svg">
<path fill-rule="evenodd" clip-rule="evenodd" d="M8.4996 8.5C8.4996 4.63401 11.6336 1.5 15.4996 1.5C16.4534 1.5 17.3639 1.69104 18.1938 2.03742C18.3477 2.10165 18.4594 2.23836 18.4918 2.40196C18.5241 2.56555 18.4727 2.73449 18.3548 2.8524L15.2375 5.96967C14.9446 6.26256 14.9446 6.73744 15.2375 7.03033L16.9698 8.76256C17.2627 9.05546 17.7375 9.05546 18.0304 8.76256L21.1475 5.6455C21.2654 5.52757 21.4344 5.47621 21.598 5.50853C21.7616 5.54086 21.8983 5.65262 21.9625 5.80653C22.3087 6.63629 22.4996 7.54648 22.4996 8.5C22.4996 12.366 19.3656 15.5 15.4996 15.5C14.8046 15.5 14.1324 15.3986 13.4976 15.2094L7.18345 21.5236C5.88361 22.8234 3.77617 22.8234 2.47634 21.5236C1.17651 20.2237 1.17651 18.1163 2.47634 16.8164L8.79034 10.5024C8.6011 9.8675 8.4996 9.19521 8.4996 8.5ZM5 18.25C4.58579 18.25 4.25 18.5858 4.25 19C4.25 19.4142 4.58589 19.75 5.0001 19.75C5.41431 19.75 5.7501 19.4142 5.7501 19C5.7501 18.5858 5.41421 18.25 5 18.25Z" fill="#353566"/>
</svg>
