<svg width="24" height="24" viewBox="0 0 24 24" fill="none" xmlns="http://www.w3.org/2000/svg">
<path d="M12.75 7C12.75 6.58579 12.4142 6.25 12 6.25C11.5858 6.25 11.25 6.58579 11.25 7V7.55475C10.6846 7.64081 10.1689 7.83007 9.74756 8.13519C9.12343 8.58721 8.74998 9.26705 8.74998 10.0817C8.74998 11.1332 9.33406 11.7917 10.0086 12.1693C10.6358 12.5204 11.3814 12.6572 11.8767 12.7398C12.3814 12.8239 12.8858 12.9308 13.2586 13.1395C13.5841 13.3217 13.75 13.539 13.75 13.9183C13.75 14.2322 13.6234 14.4682 13.3726 14.6499C13.0992 14.8479 12.6435 15 12 15C11.5594 15 11.2858 14.9528 11.0265 14.85C10.7497 14.7402 10.441 14.5482 9.95273 14.1785C9.62251 13.9284 9.15211 13.9934 8.90206 14.3236C8.65201 14.6539 8.717 15.1243 9.04723 15.3743C9.55895 15.7618 10.0002 16.0566 10.4734 16.2443C10.7315 16.3467 10.9857 16.4121 11.25 16.4511V17C11.25 17.4142 11.5858 17.75 12 17.75C12.4142 17.75 12.75 17.4142 12.75 17V16.4452C13.3154 16.3592 13.8311 16.1699 14.2524 15.8648C14.8765 15.4128 15.25 14.7329 15.25 13.9183C15.25 12.8667 14.6659 12.2083 13.9913 11.8306C13.3641 11.4795 12.6185 11.3427 12.1233 11.2602C11.6185 11.1761 11.1141 11.0691 10.7413 10.8604C10.4159 10.6783 10.25 10.461 10.25 10.0817C10.25 9.76774 10.3765 9.53173 10.6274 9.35005C10.9007 9.15208 11.3565 8.99998 12 8.99998C12.4406 8.99998 12.7142 9.04714 12.9735 9.14996C13.2502 9.25974 13.559 9.45172 14.0472 9.82144C14.3775 10.0715 14.8479 10.0065 15.0979 9.67627C15.348 9.34605 15.283 8.87564 14.9527 8.62559C14.441 8.23811 13.9997 7.94332 13.5265 7.75563C13.2684 7.65327 13.0143 7.58786 12.75 7.54886V7Z" fill="#353566"/>
<path fill-rule="evenodd" clip-rule="evenodd" d="M7.89333 2.25C3.85795 2.25 1.25 5.6858 1.25 9.47438C1.25 13.301 3.56046 16.37 5.93786 18.4936C8.31635 20.6183 10.9037 21.9251 11.7628 22.2115L12 22.2906L12.2372 22.2115C13.0963 21.9251 15.6837 20.6183 18.0621 18.4936C20.4395 16.37 22.75 13.301 22.75 9.47438C22.75 5.6858 20.1421 2.25 16.1067 2.25C14.2398 2.25 12.8942 3.06969 12 3.91063C11.1058 3.06969 9.76025 2.25 7.89333 2.25ZM2.75 9.47438C2.75 6.3142 4.87317 3.75 7.89333 3.75C9.60595 3.75 10.7397 4.66987 11.4269 5.48383L12 6.16259L12.5731 5.48383C13.2603 4.66987 14.3941 3.75 16.1067 3.75C19.1268 3.75 21.25 6.3142 21.25 9.47438C21.25 12.6733 19.3105 15.3672 17.0629 17.375C15.0361 19.1854 12.8742 20.3336 12 20.6978C11.1258 20.3336 8.96385 19.1854 6.93714 17.375C4.68954 15.3672 2.75 12.6733 2.75 9.47438Z" fill="#353566"/>
</svg>
