<svg width="24" height="24" viewBox="0 0 24 24" fill="none" xmlns="http://www.w3.org/2000/svg">
<path fill-rule="evenodd" clip-rule="evenodd" d="M1.46967 1.46967C1.76256 1.17678 2.23744 1.17678 2.53033 1.46967L22.5303 21.4697C22.8232 21.7626 22.8232 22.2374 22.5303 22.5303C22.2374 22.8232 21.7626 22.8232 21.4697 22.5303L17.7264 18.7871C15.4429 20.7402 13.0542 21.9392 12.2372 22.2115C12.0832 22.2628 11.9168 22.2628 11.7628 22.2115C10.9037 21.9251 8.31635 20.6183 5.93786 18.4936C3.56046 16.37 1.25 13.301 1.25 9.47437C1.25 7.49061 1.95431 5.61799 3.21124 4.2719L1.46967 2.53033C1.17678 2.23744 1.17678 1.76256 1.46967 1.46967ZM2.75 9.47437C2.75 7.85387 3.3186 6.37679 4.27285 5.33351L16.6623 17.723C14.7591 19.3317 12.8178 20.3572 12 20.6978C11.1258 20.3336 8.96386 19.1854 6.93714 17.375C4.68954 15.3672 2.75 12.6733 2.75 9.47437Z" fill="#353566"/>
<path d="M7.89333 3.75C7.64158 3.75 7.39795 3.76737 7.1628 3.80057C6.75265 3.85849 6.37322 3.57294 6.31531 3.1628C6.2574 2.75265 6.54294 2.37322 6.95308 2.31531C7.25869 2.27216 7.57242 2.25 7.89333 2.25C9.76025 2.25 11.1058 3.06969 12 3.91063C12.8942 3.06969 14.2398 2.25 16.1067 2.25C20.1421 2.25 22.75 5.6858 22.75 9.47437C22.75 12.0654 21.6881 14.3104 20.2747 16.1397C20.0214 16.4675 19.5504 16.5279 19.2226 16.2747C18.8948 16.0214 18.8344 15.5504 19.0877 15.2226C20.3658 13.5684 21.25 11.6376 21.25 9.47437C21.25 6.3142 19.1268 3.75 16.1067 3.75C14.3941 3.75 13.2603 4.66987 12.5731 5.48383C12.4306 5.65262 12.2209 5.75 12 5.75C11.7791 5.75 11.5694 5.65262 11.4269 5.48383C10.7397 4.66987 9.60595 3.75 7.89333 3.75Z" fill="#353566"/>
<path d="M15.21 5.5C14.7957 5.5 14.46 5.83579 14.46 6.25C14.46 6.66421 14.7957 7 15.21 7C16.819 7 17.996 8.3642 17.996 10.1346C17.996 10.5488 18.3317 10.8846 18.746 10.8846C19.1602 10.8846 19.496 10.5488 19.496 10.1346C19.496 7.7358 17.8342 5.5 15.21 5.5Z" fill="#353566"/>
</svg>
