<svg width="24" height="24" viewBox="0 0 24 24" fill="none" xmlns="http://www.w3.org/2000/svg">
<path d="M11.7276 7.81806C11.6515 7.51357 11.3938 7.28869 11.0818 7.25444C10.7699 7.22019 10.4695 7.38383 10.3292 7.66455L8.53647 11.25H7C6.58579 11.25 6.25 11.5857 6.25 12C6.25 12.4142 6.58579 12.75 7 12.75H9C9.28408 12.75 9.54378 12.5895 9.67082 12.3354L10.7641 10.1488L12.2724 16.1819C12.3485 16.4863 12.6062 16.7112 12.9182 16.7455C13.2301 16.7797 13.5305 16.6161 13.6708 16.3354L15.4635 12.75H17C17.4142 12.75 17.75 12.4142 17.75 12C17.75 11.5857 17.4142 11.25 17 11.25H15C14.7159 11.25 14.4562 11.4105 14.3292 11.6645L13.2359 13.8512L11.7276 7.81806Z" fill="#353566"/>
<path fill-rule="evenodd" clip-rule="evenodd" d="M7.89333 2.24994C3.85795 2.24994 1.25 5.68574 1.25 9.47431C1.25 13.301 3.56046 16.3699 5.93786 18.4936C8.31635 20.6182 10.9037 21.9251 11.7628 22.2115L12 22.2905L12.2372 22.2115C13.0963 21.9251 15.6837 20.6182 18.0621 18.4936C20.4395 16.3699 22.75 13.301 22.75 9.47431C22.75 5.68574 20.1421 2.24994 16.1067 2.24994C14.2398 2.24994 12.8942 3.06963 12 3.91057C11.1058 3.06963 9.76025 2.24994 7.89333 2.24994ZM2.75 9.47431C2.75 6.31414 4.87317 3.74994 7.89333 3.74994C9.60595 3.74994 10.7397 4.66981 11.4269 5.48377L12 6.16253L12.5731 5.48377C13.2603 4.66981 14.3941 3.74994 16.1067 3.74994C19.1268 3.74994 21.25 6.31413 21.25 9.47431C21.25 12.6733 19.3105 15.3672 17.0629 17.3749C15.0361 19.1853 12.8742 20.3335 12 20.6978C11.1258 20.3335 8.96385 19.1853 6.93714 17.3749C4.68954 15.3672 2.75 12.6733 2.75 9.47431Z" fill="#353566"/>
</svg>
