<svg width="24" height="24" viewBox="0 0 24 24" fill="none" xmlns="http://www.w3.org/2000/svg">
<path d="M1.75 8.47438C1.75 5.3142 3.87317 2.75 6.89333 2.75C8.60595 2.75 9.73972 3.66987 10.4269 4.48383C10.5694 4.65262 10.7791 4.75 11 4.75C11.2209 4.75 11.4306 4.65262 11.5731 4.48383C12.2603 3.66987 13.3941 2.75 15.1067 2.75C18.1268 2.75 20.25 5.3142 20.25 8.47438C20.25 8.80972 20.2288 9.13876 20.1884 9.46145C20.137 9.87246 20.4285 10.2473 20.8395 10.2988C21.2505 10.3502 21.6254 10.0587 21.6768 9.64774C21.7248 9.26436 21.75 8.8731 21.75 8.47438C21.75 4.6858 19.1421 1.25 15.1067 1.25C13.2398 1.25 11.8942 2.06969 11 2.91063C10.1058 2.06969 8.76025 1.25 6.89333 1.25C2.85795 1.25 0.25 4.6858 0.25 8.47438C0.25 12.1326 2.36223 15.0981 4.62041 17.2039C6.88406 19.3149 9.40386 20.6672 10.4783 21.1049C10.8619 21.2611 11.2995 21.0769 11.4558 20.6933C11.6121 20.3096 11.4278 19.872 11.0442 19.7157C10.1221 19.3401 7.76124 18.0819 5.64342 16.1069C3.52012 14.1268 1.75 11.531 1.75 8.47438Z" fill="#353566"/>
<path d="M17.125 19.25C17.125 18.7668 17.5168 18.375 18 18.375C18.4832 18.375 18.8751 18.7668 18.8751 19.25C18.8751 19.7332 18.4833 20.125 18.0001 20.125C17.5168 20.125 17.125 19.7332 17.125 19.25Z" fill="#353566"/>
<path d="M17.375 14.5V17C17.375 17.3452 17.6548 17.625 18 17.625C18.3452 17.625 18.625 17.3452 18.625 17V14.5C18.625 14.1548 18.3452 13.875 18 13.875C17.6548 13.875 17.375 14.1548 17.375 14.5Z" fill="#353566"/>
<path fill-rule="evenodd" clip-rule="evenodd" d="M18 11.25C14.8244 11.25 12.25 13.8244 12.25 17C12.25 20.1756 14.8244 22.75 18 22.75C21.1756 22.75 23.75 20.1756 23.75 17C23.75 13.8244 21.1756 11.25 18 11.25ZM13.75 17C13.75 14.6528 15.6528 12.75 18 12.75C20.3472 12.75 22.25 14.6528 22.25 17C22.25 19.3472 20.3472 21.25 18 21.25C15.6528 21.25 13.75 19.3472 13.75 17Z" fill="#353566"/>
</svg>
