<svg width="24" height="24" viewBox="0 0 24 24" fill="none" xmlns="http://www.w3.org/2000/svg">
<path d="M1.75 8.47438C1.75 5.3142 3.87317 2.75 6.89333 2.75C8.60595 2.75 9.73972 3.66987 10.4269 4.48383C10.5694 4.65262 10.7791 4.75 11 4.75C11.2209 4.75 11.4306 4.65262 11.5731 4.48383C12.2603 3.66987 13.3941 2.75 15.1067 2.75C18.1268 2.75 20.25 5.3142 20.25 8.47438C20.25 8.8478 20.2237 9.21342 20.1739 9.57121C20.1168 9.98147 20.4031 10.3604 20.8133 10.4175C21.2236 10.4746 21.6025 10.1883 21.6596 9.77806C21.7187 9.35316 21.75 8.91842 21.75 8.47438C21.75 4.6858 19.1421 1.25 15.1067 1.25C13.2398 1.25 11.8942 2.06969 11 2.91063C10.1058 2.06969 8.76025 1.25 6.89333 1.25C2.85795 1.25 0.25 4.6858 0.25 8.47438C0.25 12.301 2.56046 15.37 4.93786 17.4936C7.31635 19.6183 9.90368 20.9251 10.7628 21.2115C10.9168 21.2628 11.0832 21.2628 11.2372 21.2115C11.5247 21.1157 11.9684 20.9203 12.4983 20.646C12.8661 20.4556 13.0099 20.003 12.8195 19.6351C12.6291 19.2673 12.1765 19.1235 11.8087 19.3139C11.4729 19.4877 11.1984 19.6147 10.9997 19.6977C10.1252 19.3333 7.96359 18.1851 5.93714 16.375C3.68954 14.3672 1.75 11.6733 1.75 8.47438Z" fill="#353566"/>
<path fill-rule="evenodd" clip-rule="evenodd" d="M19.5052 11.4845C18.8717 11.1679 18.1261 11.1679 17.4927 11.4847L13.9242 13.2694C13.5112 13.476 13.2502 13.8981 13.25 14.3598C13.2493 15.8084 13.3464 17.1997 13.9377 18.5512C14.7529 20.4144 16.2607 21.8616 18.1165 22.6714C18.3604 22.7778 18.6376 22.7778 18.8814 22.6714C20.7377 21.8614 22.2459 20.4124 23.0612 18.5489C23.6518 17.1987 23.7493 15.8087 23.75 14.3615C23.7502 13.8989 23.4889 13.4758 23.0751 13.269L19.5052 11.4845ZM18.1637 12.8263C18.3748 12.7207 18.6233 12.7207 18.8345 12.8262L22.2499 14.5335C22.2494 15.7135 22.1684 16.847 21.6869 17.9477C21.0574 19.3867 19.9223 20.5433 18.4989 21.2002C17.076 20.5441 15.9412 19.3883 15.3119 17.95C14.83 16.8485 14.7494 15.7143 14.7499 14.5336L18.1637 12.8263Z" fill="#353566"/>
</svg>
