<svg width="24" height="24" viewBox="0 0 24 24" fill="none" xmlns="http://www.w3.org/2000/svg">
<path d="M13.9003 13.7995C14.1491 13.4684 14.6193 13.4016 14.9505 13.6504C15.2816 13.8992 15.3484 14.3694 15.0996 14.7006C14.3939 15.6398 13.268 16.2497 12 16.2497C10.7319 16.2497 9.60604 15.6398 8.90034 14.7006C8.65153 14.3694 8.71829 13.8992 9.04945 13.6504C9.38061 13.4016 9.85077 13.4684 10.0996 13.7995C10.5342 14.378 11.2235 14.7497 12 14.7497C12.7764 14.7497 13.4658 14.378 13.9003 13.7995Z" fill="#353566"/>
<path d="M12.9999 11.5C12.9999 10.9477 13.4476 10.5 13.9999 10.5C14.5522 10.5 15 10.9477 15 11.5C15 12.0523 14.5523 12.5 14 12.5C13.4477 12.5 12.9999 12.0523 12.9999 11.5Z" fill="#353566"/>
<path d="M9.99988 10.5C9.44759 10.5 8.99988 10.9477 8.99988 11.5C8.99988 12.0523 9.44759 12.5 9.99988 12.5C10.5522 12.5 11 12.0523 11 11.5C11 10.9477 10.5522 10.5 9.99988 10.5Z" fill="#353566"/>
<path fill-rule="evenodd" clip-rule="evenodd" d="M13.8017 2.88021C13.0745 1.37147 10.9258 1.37148 10.1985 2.88021L8.06774 7.30051C8.03109 7.37653 7.95857 7.42894 7.87488 7.43985L2.99207 8.077C1.31808 8.29544 0.651025 10.3616 1.88127 11.5177L5.43805 14.86C5.50017 14.9183 5.52826 15.0043 5.51259 15.0881L4.61714 19.8751C4.30824 21.5265 6.04969 22.7998 7.52961 22.0047L11.8818 19.6664C11.9557 19.6267 12.0446 19.6267 12.1184 19.6664L16.4706 22.0047C17.9505 22.7998 19.692 21.5265 19.3831 19.8751L18.4876 15.0881C18.472 15.0043 18.5001 14.9183 18.5622 14.86L22.119 11.5177C23.3492 10.3616 22.6822 8.29544 21.0082 8.077L16.1254 7.43985C16.0417 7.42894 15.9691 7.37653 15.9325 7.30051L13.8017 2.88021ZM11.5497 3.53155C11.7315 3.15436 12.2687 3.15436 12.4505 3.53154L14.5813 7.95185C14.8378 8.48399 15.3455 8.85081 15.9313 8.92725L20.8141 9.56439C21.2326 9.619 21.3993 10.1355 21.0918 10.4246L17.535 13.7668C17.1002 14.1754 16.9035 14.7774 17.0132 15.3639L17.9087 20.1509C17.9859 20.5638 17.5505 20.8821 17.1806 20.6833L12.8284 18.345C12.3112 18.0672 11.6891 18.0672 11.1719 18.345L6.81968 20.6833C6.4497 20.8821 6.01434 20.5638 6.09156 20.1509L6.98702 15.3639C7.09672 14.7774 6.90005 14.1754 6.46524 13.7668L2.90845 10.4246C2.60089 10.1355 2.76766 9.619 3.18615 9.56439L8.06897 8.92725C8.65475 8.85081 9.16243 8.484 9.41894 7.95185L11.5497 3.53155Z" fill="#353566"/>
</svg>
