<svg width="24" height="24" viewBox="0 0 24 24" fill="none" xmlns="http://www.w3.org/2000/svg">
<path d="M12.8017 2.38033C12.0745 0.871593 9.92578 0.871599 9.19851 2.38033L7.06774 6.80063C7.03109 6.87666 6.95857 6.92906 6.87489 6.93998L1.99207 7.57713C0.318077 7.79556 -0.348975 9.86174 0.881268 11.0178L4.43805 14.3601C4.50017 14.4185 4.52826 14.5044 4.51259 14.5882L3.61714 19.3753C3.30824 21.0266 5.04969 22.2999 6.52961 21.5048L10.806 19.2072C11.1709 19.0112 11.3078 18.5565 11.1118 18.1916C10.9157 17.8267 10.461 17.6898 10.0961 17.8859L5.81968 20.1834C5.4497 20.3822 5.01434 20.0639 5.09156 19.6511L5.98702 14.864C6.09672 14.2775 5.90005 13.6756 5.46524 13.267L1.90846 9.92468C1.60089 9.63567 1.76766 9.11913 2.18615 9.06452L7.06897 8.42737C7.65475 8.35093 8.16243 7.98412 8.41894 7.45197L10.5497 3.03167C10.7315 2.65448 11.2687 2.65448 11.4505 3.03167L13.5813 7.45197C13.8378 7.98412 14.3455 8.35093 14.9313 8.42737L19.8141 9.06452C20.2326 9.11913 20.3993 9.63567 20.0918 9.92468L18.4204 11.4953C18.1186 11.7789 18.1038 12.2536 18.3875 12.5554C18.6711 12.8573 19.1457 12.872 19.4476 12.5884L21.119 11.0178C22.3492 9.86174 21.6822 7.79556 20.0082 7.57713L15.1254 6.93998C15.0417 6.92906 14.9691 6.87665 14.9325 6.80063L12.8017 2.38033Z" fill="#353566"/>
<path d="M13.5104 17.5127C14.6884 16.4182 16.2649 15.75 17.9992 15.75C19.7341 15.75 21.3111 16.4187 22.4893 17.5138C22.7927 17.7958 23.2672 17.7785 23.5492 17.4751C23.8312 17.1717 23.8139 16.6971 23.5105 16.4151C22.0658 15.0723 20.1277 14.25 17.9992 14.25C15.8715 14.25 13.9339 15.0717 12.4894 16.4138C12.1859 16.6957 12.1685 17.1702 12.4504 17.4737C12.7323 17.7772 13.2069 17.7946 13.5104 17.5127Z" fill="#353566"/>
<path d="M18.0031 19.0833C17.2184 19.0833 16.5007 19.4138 15.9696 19.9648C15.6821 20.2631 15.2074 20.2718 14.9091 19.9844C14.6109 19.6969 14.6021 19.2221 14.8895 18.9239C15.683 18.1006 16.7826 17.5833 18.0031 17.5833C19.2236 17.5833 20.3232 18.1006 21.1166 18.9239C21.4041 19.2221 21.3953 19.6969 21.0971 19.9844C20.7988 20.2718 20.324 20.2631 20.0366 19.9648C19.5055 19.4138 18.7878 19.0833 18.0031 19.0833Z" fill="#353566"/>
<path d="M17.9999 20.5C17.4476 20.5 16.9999 20.9477 16.9999 21.5C16.9999 22.0523 17.4476 22.5 17.9999 22.5C18.5522 22.5 19 22.0523 19 21.5C19 20.9477 18.5522 20.5 17.9999 20.5Z" fill="#353566"/>
</svg>
