<svg width="24" height="24" viewBox="0 0 24 24" fill="none" xmlns="http://www.w3.org/2000/svg">
<path d="M12.802 2.38033C12.0747 0.871593 9.92602 0.871599 9.19875 2.38033L7.06798 6.80063C7.03134 6.87666 6.95881 6.92906 6.87513 6.93998L1.99231 7.57713C0.318321 7.79556 -0.348731 9.86174 0.881512 11.0178L4.43829 14.3601C4.50041 14.4185 4.52851 14.5044 4.51283 14.5882L3.61738 19.3753C3.30849 21.0266 5.04993 22.2999 6.52985 21.5048L10.5345 19.3533C10.8994 19.1572 11.0363 18.7025 10.8402 18.3376C10.6442 17.9727 10.1895 17.8358 9.82457 18.0319L5.81993 20.1834C5.44995 20.3822 5.01458 20.0639 5.09181 19.6511L5.98726 14.864C6.09697 14.2775 5.9003 13.6756 5.46548 13.267L1.9087 9.92468C1.60114 9.63567 1.7679 9.11913 2.1864 9.06452L7.06922 8.42737C7.65499 8.35093 8.16267 7.98412 8.41919 7.45197L10.55 3.03167C10.7318 2.65448 11.2689 2.65448 11.4508 3.03167L13.5815 7.45197C13.8381 7.98412 14.3457 8.35093 14.9315 8.42737L19.8143 9.06452C20.0807 9.09927 20.2539 9.3202 20.251 9.57345C20.2464 9.98764 20.5784 10.3272 20.9926 10.3318C21.4067 10.3365 21.7463 10.0045 21.7509 9.59033C21.7614 8.65803 21.1056 7.7203 20.0084 7.57713L15.1256 6.93998C15.0419 6.92906 14.9694 6.87665 14.9327 6.80063L12.802 2.38033Z" fill="#353566"/>
<path d="M19.942 15.9419C20.1861 15.6979 20.1861 15.3021 19.942 15.0581C19.6979 14.814 19.3022 14.814 19.0581 15.0581L18.0001 16.116L16.9421 15.058C16.698 14.8139 16.3023 14.8139 16.0582 15.058C15.8141 15.3021 15.8141 15.6978 16.0582 15.9419L17.1163 16.9999L16.0581 18.0581C15.814 18.3021 15.814 18.6979 16.0581 18.9419C16.3022 19.186 16.6979 19.186 16.942 18.9419L18.0001 17.8838L19.0582 18.9419C19.3023 19.186 19.698 19.186 19.9421 18.9419C20.1862 18.6978 20.1862 18.3021 19.9421 18.058L18.884 16.9999L19.942 15.9419Z" fill="#353566"/>
<path fill-rule="evenodd" clip-rule="evenodd" d="M18.0001 11.25C14.8245 11.25 12.2501 13.8244 12.2501 17C12.2501 20.1756 14.8245 22.75 18.0001 22.75C21.1758 22.75 23.7501 20.1756 23.7501 17C23.7501 13.8244 21.1758 11.25 18.0001 11.25ZM13.7501 17C13.7501 14.6528 15.6529 12.75 18.0001 12.75C20.3473 12.75 22.2501 14.6528 22.2501 17C22.2501 19.3472 20.3473 21.25 18.0001 21.25C15.6529 21.25 13.7501 19.3472 13.7501 17Z" fill="#353566"/>
</svg>
