<svg width="24" height="24" viewBox="0 0 24 24" fill="none" xmlns="http://www.w3.org/2000/svg">
<path fill-rule="evenodd" clip-rule="evenodd" d="M5.58337 1.16663C4.03007 1.16663 2.77087 2.42582 2.77087 3.97913C2.77087 5.53243 4.03007 6.79163 5.58337 6.79163C7.13667 6.79163 8.39587 5.53243 8.39587 3.97913C8.39587 2.42582 7.13667 1.16663 5.58337 1.16663ZM4.27087 3.97913C4.27087 3.25425 4.8585 2.66663 5.58337 2.66663C6.30825 2.66663 6.89587 3.25425 6.89587 3.97913C6.89587 4.704 6.30825 5.29163 5.58337 5.29163C4.8585 5.29163 4.27087 4.704 4.27087 3.97913Z" fill="#353566"/>
<path d="M16.5 2.24994C18.5711 2.24994 20.25 3.92887 20.25 5.99994V8.18928L21.2197 7.21961C21.5126 6.92672 21.9874 6.92672 22.2803 7.21961C22.5732 7.5125 22.5732 7.98738 22.2803 8.28027L20.0303 10.5303C19.7374 10.8232 19.2626 10.8232 18.9697 10.5303L16.7197 8.28027C16.4268 7.98738 16.4268 7.5125 16.7197 7.21961C17.0126 6.92672 17.4874 6.92672 17.7803 7.21961L18.75 8.18928V5.99994C18.75 4.7573 17.7426 3.74994 16.5 3.74994H13C12.5858 3.74994 12.25 3.41415 12.25 2.99994C12.25 2.58573 12.5858 2.24994 13 2.24994H16.5Z" fill="#353566"/>
<path d="M7.5 21.7499H11C11.4142 21.7499 11.75 21.4142 11.75 20.9999C11.75 20.5857 11.4142 20.2499 11 20.2499H7.5C6.25736 20.2499 5.25 19.2426 5.25 17.9999V15.8106L6.21967 16.7803C6.51256 17.0732 6.98744 17.0732 7.28033 16.7803C7.57322 16.4874 7.57322 16.0125 7.28033 15.7196L5.03033 13.4696C4.88968 13.329 4.69891 13.2499 4.5 13.2499C4.30109 13.2499 4.11032 13.329 3.96967 13.4696L1.71967 15.7196C1.42678 16.0125 1.42678 16.4874 1.71967 16.7803C2.01256 17.0732 2.48744 17.0732 2.78033 16.7803L3.75 15.8106V17.9999C3.75 20.071 5.42893 21.7499 7.5 21.7499Z" fill="#353566"/>
<path d="M5.58334 9.08331C4.19749 9.08331 2.95998 10.0388 2.64301 11.2703C2.53977 11.6714 2.13088 11.9129 1.72974 11.8096C1.3286 11.7064 1.08711 11.2975 1.19036 10.8964C1.68747 8.96494 3.55216 7.58331 5.58334 7.58331C7.61452 7.58331 9.47923 8.96493 9.97635 10.8964C10.0796 11.2975 9.8381 11.7064 9.43696 11.8096C9.03582 11.9129 8.62694 11.6714 8.52369 11.2703C8.20673 10.0388 6.9692 9.08331 5.58334 9.08331Z" fill="#353566"/>
<path d="M18.4167 20.0833C17.0308 20.0833 15.7933 21.0388 15.4763 22.2703C15.3731 22.6714 14.9642 22.9129 14.5631 22.8096C14.1619 22.7064 13.9204 22.2975 14.0237 21.8964C14.5208 19.9649 16.3855 18.5833 18.4167 18.5833C20.4478 18.5833 22.3125 19.9649 22.8097 21.8964C22.9129 22.2975 22.6714 22.7064 22.2703 22.8096C21.8691 22.9129 21.4602 22.6714 21.357 22.2703C21.04 21.0388 19.8025 20.0833 18.4167 20.0833Z" fill="#353566"/>
<path fill-rule="evenodd" clip-rule="evenodd" d="M18.4167 12.1666C16.8634 12.1666 15.6042 13.4258 15.6042 14.9791C15.6042 16.5324 16.8634 17.7916 18.4167 17.7916C19.97 17.7916 21.2292 16.5324 21.2292 14.9791C21.2292 13.4258 19.97 12.1666 18.4167 12.1666ZM17.1042 14.9791C17.1042 14.2543 17.6918 13.6666 18.4167 13.6666C19.1416 13.6666 19.7292 14.2543 19.7292 14.9791C19.7292 15.704 19.1416 16.2916 18.4167 16.2916C17.6918 16.2916 17.1042 15.704 17.1042 14.9791Z" fill="#353566"/>
</svg>
