<svg width="24" height="24" viewBox="0 0 24 24" fill="none" xmlns="http://www.w3.org/2000/svg">
<path fill-rule="evenodd" clip-rule="evenodd" d="M10 1.25C7.1005 1.25 4.75 3.6005 4.75 6.5C4.75 9.3995 7.1005 11.75 10 11.75C12.8995 11.75 15.25 9.3995 15.25 6.5C15.25 3.6005 12.8995 1.25 10 1.25ZM6.25 6.5C6.25 4.42893 7.92893 2.75 10 2.75C12.0711 2.75 13.75 4.42893 13.75 6.5C13.75 8.57107 12.0711 10.25 10 10.25C7.92893 10.25 6.25 8.57107 6.25 6.5Z" fill="#353566"/>
<path d="M9.36618 14.7717C9.77943 14.7435 10.0915 14.3856 10.0633 13.9723C10.035 13.5591 9.67714 13.247 9.26389 13.2752C5.86846 13.5073 2.36814 15.385 1.34973 19.0646C1.23466 19.4804 1.2364 19.9132 1.26978 20.2621C1.39518 21.5731 2.43215 22.6119 3.7432 22.7376C3.8748 22.7502 4.02173 22.7501 4.21228 22.7501L12.0927 22.7501C12.5069 22.7501 12.8427 22.4143 12.8427 22.0001C12.8427 21.5859 12.5069 21.2501 12.0927 21.2501H4.24812C4.00521 21.2501 3.93668 21.2492 3.88636 21.2444C3.29173 21.1874 2.82003 20.7159 2.76296 20.1193C2.73856 19.8643 2.7483 19.6348 2.79538 19.4647C3.58795 16.6011 6.3671 14.9767 9.36618 14.7717Z" fill="#353566"/>
<path fill-rule="evenodd" clip-rule="evenodd" d="M11.2499 16.125C11.2499 13.4326 13.4326 11.25 16.1249 11.25C18.8173 11.25 20.9999 13.4326 20.9999 16.125C20.9999 17.2006 20.6516 18.1948 20.0616 19.001L22.5302 21.4697C22.8231 21.7626 22.8231 22.2374 22.5302 22.5303C22.2373 22.8232 21.7624 22.8232 21.4695 22.5303L19.0009 20.0617C18.1947 20.6517 17.2005 21 16.1249 21C13.4326 21 11.2499 18.8174 11.2499 16.125ZM16.1249 12.75C14.261 12.75 12.7499 14.261 12.7499 16.125C12.7499 17.989 14.261 19.5 16.1249 19.5C17.9889 19.5 19.4999 17.989 19.4999 16.125C19.4999 14.261 17.9889 12.75 16.1249 12.75Z" fill="#353566"/>
</svg>
