<svg width="24" height="24" viewBox="0 0 24 24" fill="none" xmlns="http://www.w3.org/2000/svg">
<path fill-rule="evenodd" clip-rule="evenodd" d="M10 1.25C7.1005 1.25 4.75 3.6005 4.75 6.5C4.75 9.3995 7.1005 11.75 10 11.75C12.8995 11.75 15.25 9.3995 15.25 6.5C15.25 3.6005 12.8995 1.25 10 1.25ZM6.25 6.5C6.25 4.42893 7.92893 2.75 10 2.75C12.0711 2.75 13.75 4.42893 13.75 6.5C13.75 8.57107 12.0711 10.25 10 10.25C7.92893 10.25 6.25 8.57107 6.25 6.5Z" fill="#353566"/>
<path d="M9.60947 14.7581C10.0233 14.7407 10.3447 14.3911 10.3273 13.9773C10.3099 13.5634 9.96028 13.2421 9.54643 13.2595C6.06012 13.4061 2.3962 15.2835 1.34973 19.0644C1.23466 19.4802 1.2364 19.913 1.26978 20.262C1.39518 21.573 2.43215 22.6117 3.7432 22.7374C3.87482 22.75 4.02177 22.75 4.21236 22.7499L10.7546 22.7499C11.1689 22.7499 11.5046 22.4142 11.5046 21.9999C11.5046 21.5857 11.1689 21.2499 10.7546 21.2499H4.24812C4.00521 21.2499 3.93668 21.2491 3.88636 21.2443C3.29173 21.1872 2.82003 20.7158 2.76296 20.1192C2.73856 19.8641 2.7483 19.6346 2.79538 19.4646C3.60951 16.5231 6.52294 14.888 9.60947 14.7581Z" fill="#353566"/>
<path d="M17.625 14.5C17.625 14.1548 17.3452 13.875 17 13.875C16.6548 13.875 16.375 14.1548 16.375 14.5V17.0001C16.375 17.209 16.4794 17.4042 16.6533 17.5201L18.1533 18.52C18.4405 18.7115 18.8286 18.6339 19.02 18.3467C19.2115 18.0595 19.1339 17.6714 18.8467 17.48L17.625 16.6656V14.5Z" fill="#353566"/>
<path fill-rule="evenodd" clip-rule="evenodd" d="M11.25 17C11.25 13.8244 13.8244 11.25 17 11.25C20.1756 11.25 22.75 13.8244 22.75 17C22.75 20.1756 20.1756 22.75 17 22.75C13.8244 22.75 11.25 20.1756 11.25 17ZM17 12.75C14.6528 12.75 12.75 14.6528 12.75 17C12.75 19.3472 14.6528 21.25 17 21.25C19.3472 21.25 21.25 19.3472 21.25 17C21.25 14.6528 19.3472 12.75 17 12.75Z" fill="#353566"/>
</svg>
