<svg width="24" height="24" viewBox="0 0 24 24" fill="none" xmlns="http://www.w3.org/2000/svg">
<path fill-rule="evenodd" clip-rule="evenodd" d="M4.75 6.5C4.75 3.6005 7.1005 1.25 10 1.25C12.8995 1.25 15.25 3.6005 15.25 6.5C15.25 9.3995 12.8995 11.75 10 11.75C7.1005 11.75 4.75 9.3995 4.75 6.5ZM10 2.75C7.92893 2.75 6.25 4.42893 6.25 6.5C6.25 8.57107 7.92893 10.25 10 10.25C12.0711 10.25 13.75 8.57107 13.75 6.5C13.75 4.42893 12.0711 2.75 10 2.75Z" fill="#353566"/>
<path d="M10.327 13.9763C10.3453 14.3901 10.0247 14.7404 9.61088 14.7587C6.04693 14.9162 3.16059 17.1799 2.74256 20.1061C2.68398 20.5162 2.30408 20.8011 1.89403 20.7425C1.48398 20.684 1.19905 20.3041 1.25763 19.894C1.80421 16.068 5.46525 13.4404 9.54466 13.2601C9.95847 13.2419 10.3087 13.5625 10.327 13.9763Z" fill="#353566"/>
<path d="M16.25 19.5C16.25 19.0858 16.5858 18.75 17 18.75C17.4142 18.75 17.7501 19.0858 17.7501 19.5C17.7501 19.9142 17.4143 20.25 17.0001 20.25C16.5859 20.25 16.25 19.9142 16.25 19.5Z" fill="#353566"/>
<path d="M16.125 15.75C16.125 15.2668 16.5168 14.875 17 14.875C17.4832 14.875 17.875 15.2668 17.875 15.75C17.875 15.9942 17.7758 16.2141 17.6138 16.3736C17.5217 16.4643 17.44 16.5152 17.3098 16.5963C17.2733 16.6191 17.233 16.6442 17.1875 16.6733C16.9891 16.8001 16.7329 16.9845 16.5481 17.3306C16.3855 17.635 16.5005 18.0137 16.8049 18.1763C17.1094 18.3389 17.4881 18.2239 17.6507 17.9194C17.6851 17.855 17.7268 17.8121 17.8608 17.7264C17.8805 17.7138 17.9038 17.6996 17.9298 17.6836C18.069 17.598 18.2895 17.4625 18.4908 17.2643C18.8816 16.8796 19.125 16.3427 19.125 15.75C19.125 14.5764 18.1736 13.625 17 13.625C15.8264 13.625 14.875 14.5764 14.875 15.75C14.875 16.0952 15.1548 16.375 15.5 16.375C15.8452 16.375 16.125 16.0952 16.125 15.75Z" fill="#353566"/>
<path fill-rule="evenodd" clip-rule="evenodd" d="M22.75 17C22.75 13.8244 20.1756 11.25 17 11.25C13.8244 11.25 11.25 13.8244 11.25 17C11.25 20.1756 13.8244 22.75 17 22.75C20.1756 22.75 22.75 20.1756 22.75 17ZM17 12.75C19.3472 12.75 21.25 14.6528 21.25 17C21.25 19.3472 19.3472 21.25 17 21.25C14.6528 21.25 12.75 19.3472 12.75 17C12.75 14.6528 14.6528 12.75 17 12.75Z" fill="#353566"/>
</svg>
