<svg width="24" height="24" viewBox="0 0 24 24" fill="none" xmlns="http://www.w3.org/2000/svg">
<path fill-rule="evenodd" clip-rule="evenodd" d="M4.75 6.5C4.75 3.6005 7.1005 1.25 10 1.25C12.8995 1.25 15.25 3.6005 15.25 6.5C15.25 9.3995 12.8995 11.75 10 11.75C7.1005 11.75 4.75 9.3995 4.75 6.5ZM10 2.75C7.92893 2.75 6.25 4.42893 6.25 6.5C6.25 8.57107 7.92893 10.25 10 10.25C12.0711 10.25 13.75 8.57107 13.75 6.5C13.75 4.42893 12.0711 2.75 10 2.75Z" fill="#353566"/>
<path d="M10.3273 13.9773C10.3447 14.3911 10.0233 14.7407 9.60947 14.7581C6.52294 14.888 3.60951 16.5231 2.79538 19.4646C2.7483 19.6346 2.73856 19.8641 2.76296 20.1192C2.82003 20.7158 3.29173 21.1872 3.88636 21.2443C3.93668 21.2491 4.00521 21.2499 4.24812 21.2499H10.7546C11.1689 21.2499 11.5046 21.5857 11.5046 21.9999C11.5046 22.4142 11.1689 22.7499 10.7546 22.7499L4.21249 22.7499C4.02192 22.75 3.87481 22.75 3.7432 22.7374C2.43215 22.6117 1.39518 21.573 1.26978 20.262C1.2364 19.913 1.23466 19.4802 1.34973 19.0644C2.3962 15.2835 6.06012 13.4061 9.54643 13.2595C9.96028 13.2421 10.3099 13.5634 10.3273 13.9773Z" fill="#353566"/>
<path d="M16.2499 19.5C16.2499 19.0858 16.5857 18.75 16.9999 18.75C17.4142 18.75 17.75 19.0858 17.75 19.5C17.75 19.9142 17.4143 20.25 17 20.25C16.5858 20.25 16.2499 19.9142 16.2499 19.5Z" fill="#353566"/>
<path d="M16.1249 15.75C16.1249 15.2668 16.5167 14.875 16.9999 14.875C17.4832 14.875 17.8749 15.2668 17.8749 15.75C17.8749 15.9942 17.7757 16.2141 17.6138 16.3736C17.5216 16.4643 17.4399 16.5152 17.3098 16.5963C17.2732 16.6191 17.2329 16.6442 17.1874 16.6733C16.9891 16.8001 16.7329 16.9845 16.548 17.3306C16.3854 17.635 16.5004 18.0137 16.8049 18.1763C17.1094 18.3389 17.488 18.2239 17.6506 17.9194C17.685 17.855 17.7267 17.8121 17.8608 17.7264C17.8805 17.7138 17.9037 17.6996 17.9298 17.6836C18.0689 17.598 18.2894 17.4625 18.4907 17.2643C18.8815 16.8796 19.1249 16.3427 19.1249 15.75C19.1249 14.5764 18.1735 13.625 16.9999 13.625C15.8263 13.625 14.8749 14.5764 14.8749 15.75C14.8749 16.0952 15.1548 16.375 15.4999 16.375C15.8451 16.375 16.1249 16.0952 16.1249 15.75Z" fill="#353566"/>
<path fill-rule="evenodd" clip-rule="evenodd" d="M22.7499 17C22.7499 13.8244 20.1756 11.25 16.9999 11.25C13.8243 11.25 11.2499 13.8244 11.2499 17C11.2499 20.1756 13.8243 22.75 16.9999 22.75C20.1756 22.75 22.7499 20.1756 22.7499 17ZM16.9999 12.75C19.3471 12.75 21.2499 14.6528 21.2499 17C21.2499 19.3472 19.3471 21.25 16.9999 21.25C14.6527 21.25 12.7499 19.3472 12.7499 17C12.7499 14.6528 14.6527 12.75 16.9999 12.75Z" fill="#353566"/>
</svg>
