<svg width="24" height="24" viewBox="0 0 24 24" fill="none" xmlns="http://www.w3.org/2000/svg">
<path fill-rule="evenodd" clip-rule="evenodd" d="M2.53033 1.46967C2.23744 1.17678 1.76256 1.17678 1.46967 1.46967C1.17678 1.76256 1.17678 2.23744 1.46967 2.53033L12.1908 13.2515C12.127 13.2505 12.0631 13.25 11.9989 13.25C8.37406 13.25 4.44112 15.1212 3.34973 19.0645C3.23466 19.4803 3.2364 19.9131 3.26978 20.262C3.39518 21.573 4.43215 22.6118 5.7432 22.7375C5.87483 22.7501 6.02179 22.7501 6.21241 22.75H17.7863C17.9768 22.7501 18.1238 22.7501 18.2553 22.7375C19.1485 22.6519 19.9144 22.1427 20.3516 21.4123L21.4697 22.5303C21.7626 22.8232 22.2374 22.8232 22.5303 22.5303C22.8232 22.2374 22.8232 21.7626 22.5303 21.4697L20.5297 19.4691C20.5276 19.467 20.5255 19.4648 20.5234 19.4627L14.7713 13.7107C14.7656 13.7048 14.7598 13.6989 14.7539 13.6932L2.53033 1.46967ZM13.8615 14.9222C13.2741 14.8091 12.6512 14.75 11.9989 14.75C8.7795 14.75 5.64407 16.3983 4.79538 19.4646C4.7483 19.6347 4.73856 19.8642 4.76296 20.1192C4.82003 20.7158 5.29173 21.1873 5.88636 21.2443C5.93668 21.2491 6.00521 21.25 6.24812 21.25H17.7507C17.9935 21.25 18.062 21.2491 18.1123 21.2443C18.6552 21.1923 19.0956 20.7949 19.2116 20.2723L13.8615 14.9222Z" fill="#353566"/>
<path d="M12 2.75C10.645 2.75 9.45709 3.46817 8.79722 4.54822C8.58126 4.90168 8.11966 5.01316 7.76619 4.7972C7.41273 4.58125 7.30126 4.11964 7.51721 3.76618C8.43816 2.25881 10.1009 1.25 12 1.25C14.8995 1.25 17.25 3.60051 17.25 6.5C17.25 8.39907 16.2412 10.0619 14.7338 10.9828C14.3804 11.1988 13.9188 11.0873 13.7028 10.7338C13.4869 10.3804 13.5983 9.91875 13.9518 9.7028C15.0318 9.04293 15.75 7.85499 15.75 6.5C15.75 4.42893 14.0711 2.75 12 2.75Z" fill="#353566"/>
</svg>
