<svg width="24" height="24" viewBox="0 0 24 24" fill="none" xmlns="http://www.w3.org/2000/svg">
<path d="M7.53033 11.5303C7.23744 11.8232 6.76256 11.8232 6.46967 11.5303C6.17678 11.2374 6.17678 10.7626 6.46967 10.4697L11.4697 5.46967C11.7626 5.17678 12.2374 5.17678 12.5303 5.46967L17.5303 10.4697C17.8232 10.7626 17.8232 11.2374 17.5303 11.5303C17.2374 11.8232 16.7626 11.8232 16.4697 11.5303L12 7.06066L7.53033 11.5303Z" fill="#353566"/>
<path d="M7.53033 17.5303C7.23744 17.8232 6.76256 17.8232 6.46967 17.5303C6.17678 17.2374 6.17678 16.7626 6.46967 16.4697L11.4697 11.4697C11.7626 11.1768 12.2374 11.1768 12.5303 11.4697L17.5303 16.4697C17.8232 16.7626 17.8232 17.2374 17.5303 17.5303C17.2374 17.8232 16.7626 17.8232 16.4697 17.5303L12 13.0607L7.53033 17.5303Z" fill="#353566"/>
</svg>
