<svg width="24" height="24" viewBox="0 0 24 24" fill="none" xmlns="http://www.w3.org/2000/svg">
<path d="M1.5 19.25C1.08579 19.25 0.75 18.9142 0.75 18.5V5.5C0.75 5.08579 1.08579 4.75 1.5 4.75C1.91421 4.75 2.25 5.08579 2.25 5.5L2.25 18.5C2.25 18.9142 1.91421 19.25 1.5 19.25Z" fill="#353566"/>
<path d="M21.75 18.5C21.75 18.9142 22.0858 19.25 22.5 19.25C22.9142 19.25 23.25 18.9142 23.25 18.5V5.5C23.25 5.08579 22.9142 4.75 22.5 4.75C22.0858 4.75 21.75 5.08579 21.75 5.5L21.75 18.5Z" fill="#353566"/>
<path d="M8.53033 7.96967C8.82322 8.26256 8.82322 8.73744 8.53033 9.03033L6.31066 11.25H17.6893L15.4697 9.03033C15.1768 8.73744 15.1768 8.26256 15.4697 7.96967C15.7626 7.67678 16.2374 7.67678 16.5303 7.96967L20.0303 11.4697C20.3232 11.7626 20.3232 12.2374 20.0303 12.5303L16.5303 16.0303C16.2374 16.3232 15.7626 16.3232 15.4697 16.0303C15.1768 15.7374 15.1768 15.2626 15.4697 14.9697L17.6893 12.75H6.31066L8.53033 14.9697C8.82322 15.2626 8.82322 15.7374 8.53033 16.0303C8.23744 16.3232 7.76256 16.3232 7.46967 16.0303L3.96967 12.5303C3.67678 12.2374 3.67678 11.7626 3.96967 11.4697L7.46967 7.96967C7.76256 7.67678 8.23744 7.67678 8.53033 7.96967Z" fill="#353566"/>
</svg>
