<svg width="24" height="24" viewBox="0 0 24 24" fill="none" xmlns="http://www.w3.org/2000/svg">
<path d="M11.2502 2L11.2502 13.1893L7.53053 9.46967C7.23764 9.17678 6.76277 9.17678 6.46987 9.46967C6.17698 9.76256 6.17698 10.2374 6.46987 10.5303L11.4699 15.5303C11.6105 15.671 11.8013 15.75 12.0002 15.75C12.1991 15.75 12.3899 15.671 12.5305 15.5303L17.5305 10.5303C17.8234 10.2374 17.8234 9.76256 17.5305 9.46967C17.2376 9.17678 16.7628 9.17678 16.4699 9.46967L12.7502 13.1893L12.7502 2C12.7502 1.58579 12.4144 1.25 12.0002 1.25C11.586 1.25 11.2502 1.58579 11.2502 2Z" fill="#353566"/>
<path d="M22.7213 15.206C22.8351 14.8077 22.6045 14.3926 22.2062 14.2788C21.808 14.165 21.3928 14.3956 21.279 14.7939L20.6053 17.1521C20.1114 18.8806 19.9105 19.5345 19.5384 20.0081C19.1904 20.4509 18.7332 20.7957 18.2118 21.0087C17.6543 21.2364 16.9703 21.2499 15.1727 21.2499H8.82772C7.03012 21.2499 6.34611 21.2364 5.78856 21.0087C5.26715 20.7957 4.81003 20.4509 4.46202 20.0081C4.08989 19.5345 3.88895 18.8806 3.39511 17.1521L2.72134 14.7939C2.60754 14.3956 2.19243 14.165 1.79415 14.2788C1.39588 14.3926 1.16526 14.8077 1.27905 15.206L2.00002 17.7295C2.42932 19.2337 2.70511 20.2 3.28262 20.9349C3.79124 21.5821 4.45934 22.0861 5.2214 22.3973C6.08667 22.7507 7.09156 22.7504 8.65583 22.75H15.3446C16.9088 22.7504 17.9137 22.7507 18.779 22.3973C19.541 22.0861 20.2091 21.5821 20.7178 20.9349C21.2953 20.2 21.5711 19.2337 22.0004 17.7295L22.7213 15.206Z" fill="#353566"/>
</svg>
