<svg width="24" height="24" viewBox="0 0 24 24" fill="none" xmlns="http://www.w3.org/2000/svg">
<g opacity="0.4">
<path d="M9.02077 9.02077C9.0481 9.36277 9.10239 9.70302 9.18366 10.0381C9.27403 10.4107 9.18842 10.8116 8.9173 11.0827L2.29289 17.7071C2.10536 17.8946 2 18.149 2 18.4142V21.5C2 21.7761 2.22386 22 2.5 22H5.5C5.77614 22 6 21.7761 6 21.5V19.5C6 19.2239 6.22386 19 6.5 19H8.79289C8.9255 19 9.05268 18.9473 9.14645 18.8536L12.9173 15.0827C13.1884 14.8116 13.5893 14.726 13.9619 14.8163C14.297 14.8976 14.6372 14.9519 14.9792 14.9792L9.02077 9.02077Z" fill="#353566"/>
<path fill-rule="evenodd" clip-rule="evenodd" d="M17.2587 14.7587C18.2978 14.4677 19.2787 13.9135 20.0961 13.0961C22.6346 10.5575 22.6346 6.44249 20.0961 3.90393C17.5575 1.36536 13.4425 1.36536 10.9039 3.90393C10.0865 4.72135 9.53229 5.70222 9.24129 6.74129L17.2587 14.7587ZM17.5606 6.43937C18.1465 7.02519 18.1465 7.97481 17.5606 8.56063C16.9748 9.14646 16.0252 9.14646 15.4394 8.56063C14.8535 7.97481 14.8535 7.02519 15.4394 6.43937C16.0252 5.85354 16.9748 5.85354 17.5606 6.43937Z" fill="#353566"/>
</g>
<path fill-rule="evenodd" clip-rule="evenodd" d="M2.35355 1.64645C2.15829 1.45118 1.84171 1.45118 1.64645 1.64645C1.45118 1.84171 1.45118 2.15829 1.64645 2.35355L8.53977 9.24688C8.57237 9.55237 8.62503 9.8561 8.69775 10.1559C8.7535 10.3858 8.69329 10.5996 8.56375 10.7291L1.93934 17.3536C1.65804 17.6349 1.5 18.0164 1.5 18.4142V21.5C1.5 22.0523 1.94772 22.5 2.5 22.5H5.5C6.05228 22.5 6.5 22.0523 6.5 21.5V19.5H8.79289C9.05811 19.5 9.31246 19.3946 9.5 19.2071L13.2709 15.4362C13.4004 15.3067 13.6142 15.2465 13.8441 15.3023C14.1439 15.375 14.4476 15.4276 14.7531 15.4602L21.6464 22.3536C21.8417 22.5488 22.1583 22.5488 22.3536 22.3536C22.5488 22.1583 22.5488 21.8417 22.3536 21.6464L2.35355 1.64645ZM13.5776 14.2847L9.71531 10.4224C9.69436 10.7895 9.55322 11.1539 9.27086 11.4362L2.64645 18.0607C2.55268 18.1544 2.5 18.2816 2.5 18.4142V21.5H5.5V19.5C5.5 18.9477 5.94772 18.5 6.5 18.5H8.79289L12.5638 14.7291C12.8461 14.4468 13.2105 14.3056 13.5776 14.2847Z" fill="#353566"/>
<path d="M19.7425 12.7425C18.9161 13.5689 17.9086 14.1041 16.8476 14.3476L17.6599 15.1599C18.6799 14.83 19.6393 14.2599 20.4496 13.4496C23.1835 10.7158 23.1835 6.2842 20.4496 3.55037C17.7158 0.816543 13.2842 0.816543 10.5504 3.55037C9.74006 4.36068 9.17005 5.32012 8.84013 6.34013L9.65241 7.15241C9.89592 6.09135 10.4311 5.0839 11.2575 4.25748C13.6008 1.91417 17.3992 1.91417 19.7425 4.25748C22.0858 6.60078 22.0858 10.3992 19.7425 12.7425Z" fill="#353566"/>
<path fill-rule="evenodd" clip-rule="evenodd" d="M15.0858 6.08581C15.8669 5.30473 17.1331 5.30473 17.9142 6.08581C18.6953 6.8669 18.6953 8.1331 17.9142 8.91419C17.1331 9.69527 15.8669 9.69527 15.0858 8.91419C14.3047 8.1331 14.3047 6.8669 15.0858 6.08581ZM15.7929 6.79292C16.1835 6.40236 16.8165 6.40236 17.2071 6.79292C17.5976 7.18348 17.5976 7.81652 17.2071 8.20708C16.8165 8.59764 16.1835 8.59764 15.7929 8.20708C15.4024 7.81652 15.4024 7.18348 15.7929 6.79292Z" fill="#353566"/>
</svg>
