<svg width="24" height="24" viewBox="0 0 24 24" fill="none" xmlns="http://www.w3.org/2000/svg">
<path opacity="0.4" fill-rule="evenodd" clip-rule="evenodd" d="M12 1.5C6.20101 1.5 1.5 6.20101 1.5 12C1.5 17.799 6.20101 22.5 12 22.5C17.799 22.5 22.5 17.799 22.5 12C22.5 6.20101 17.799 1.5 12 1.5ZM10.9393 8.9393C11.525 8.35357 12.4745 8.35357 13.0602 8.9393C13.6459 9.52504 13.6459 10.4745 13.0602 11.0602C12.4745 11.6459 11.525 11.6459 10.9393 11.0602C10.3536 10.4745 10.3536 9.52504 10.9393 8.9393Z" fill="#353566"/>
<path d="M17.6997 4.39907C16.112 3.20648 14.1392 2.5 12 2.5C6.75329 2.5 2.5 6.75329 2.5 12C2.5 17.2467 6.75329 21.5 12 21.5C16.253 21.5 19.8545 18.7049 21.0652 14.8502C21.1479 14.5867 21.4286 14.4402 21.692 14.523C21.9555 14.6057 22.102 14.8864 22.0192 15.1498C20.6814 19.4093 16.7023 22.5 12 22.5C6.20101 22.5 1.5 17.799 1.5 12C1.5 6.20101 6.20101 1.5 12 1.5C14.3632 1.5 16.5454 2.28131 18.3003 3.5995C19.0259 4.14448 19.802 4.92335 20.4607 5.6841C20.8511 6.135 21.2105 6.59144 21.5 7.00218V2.5C21.5 2.22386 21.7238 2 22 2C22.2761 2 22.5 2.22386 22.5 2.5V8C22.5 8.27614 22.2761 8.5 22 8.5H21.5524C21.5459 8.50013 21.5394 8.50013 21.5328 8.5H16.5C16.2238 8.5 16 8.27614 16 8C16 7.72386 16.2238 7.5 16.5 7.5H20.627C20.3736 7.14673 20.0576 6.74632 19.7047 6.33867C19.0711 5.6069 18.3472 4.88541 17.6997 4.39907Z" fill="#353566"/>
<path fill-rule="evenodd" clip-rule="evenodd" d="M12.5 12.45C13.6411 12.2184 14.5 11.2095 14.5 10C14.5 8.61929 13.3807 7.5 12 7.5C10.6193 7.5 9.49997 8.61929 9.49997 10C9.49997 11.2095 10.3589 12.2184 11.5 12.45V16C11.5 16.2761 11.7238 16.5 12 16.5C12.2761 16.5 12.5 16.2761 12.5 16V12.45ZM12 8.5C11.1715 8.5 10.5 9.17157 10.5 10C10.5 10.8284 11.1715 11.5 12 11.5C12.8284 11.5 13.5 10.8284 13.5 10C13.5 9.17157 12.8284 8.5 12 8.5Z" fill="#353566"/>
</svg>
