<svg width="24" height="24" viewBox="0 0 24 24" fill="none" xmlns="http://www.w3.org/2000/svg">
<path opacity="0.4" fill-rule="evenodd" clip-rule="evenodd" d="M3.32201 5.47633L10.4166 1.88146C11.4109 1.37765 12.5858 1.37756 13.5801 1.88124L20.6778 5.47638C21.1821 5.73184 21.5 6.24917 21.5 6.81451V8.83917C21.5 9.28747 21.4055 10.2263 21.2896 11.2098C21.0383 13.341 20.2138 15.3598 18.9635 17.1039C17.5065 19.1364 15.5934 20.799 13.3776 21.9583L12.6272 22.351C12.2333 22.5571 11.7634 22.5571 11.3694 22.351L10.6207 21.9594C8.40293 20.7994 6.48848 19.1349 5.03142 17.0999C3.78443 15.3583 2.96212 13.3432 2.71116 11.2159C2.59486 10.2302 2.5 9.2884 2.5 8.83917V6.81437C2.5 6.2491 2.81778 5.73183 3.32201 5.47633ZM8.87261 12.88H10.6597C10.9064 12.88 11.1065 13.0769 11.1065 13.3198V15.9595C11.1065 16.3752 11.6384 16.5588 11.9022 16.2341L15.4763 11.8346C15.7103 11.5467 15.502 11.1202 15.1274 11.1202H13.3403C13.0936 11.1202 12.8935 10.9233 12.8935 10.6804V8.04076C12.8935 7.62501 12.3616 7.44141 12.0978 7.76611L8.52368 12.1656C8.28975 12.4536 8.49803 12.88 8.87261 12.88Z" fill="#353566"/>
<path fill-rule="evenodd" clip-rule="evenodd" d="M13.4435 7.54067C13.4435 6.58791 12.2491 6.20754 11.671 6.91922L8.09679 11.3187C7.56005 11.9794 8.05213 12.9299 8.87261 12.9299H10.5564V15.4594C10.5564 16.4122 11.7509 16.7925 12.329 16.0808L15.9032 11.6813C16.4399 11.0207 15.9479 10.0701 15.1274 10.0701H13.4435V7.54067ZM9.09873 11.8299L12.3435 7.83584V10.1804C12.3435 10.7352 12.798 11.1701 13.3403 11.1701H14.9013L11.6564 15.1642V12.8197C11.6564 12.2649 11.2019 11.8299 10.6597 11.8299H9.09873Z" fill="#353566"/>
<path fill-rule="evenodd" clip-rule="evenodd" d="M13.8061 1.43532C12.6696 0.859687 11.327 0.859783 10.1906 1.43557L3.09602 5.03044C2.42371 5.37111 2 6.0608 2 6.81449V8.83929C2 9.32402 2.09935 10.2977 2.2146 11.2746C2.47619 13.4919 3.3325 15.5862 4.62489 17.3912C6.12751 19.4898 8.10183 21.2063 10.3889 22.4026L11.1377 22.7942C11.6768 23.0762 12.3199 23.0762 12.859 22.7941L13.6094 22.4015C15.8944 21.2059 17.8673 19.4913 19.3699 17.3953C20.6656 15.5878 21.5242 13.4899 21.7861 11.2685C21.9011 10.2937 22 9.32306 22 8.83929V6.81464C22 6.06084 21.5762 5.37108 20.9037 5.03046L13.8061 1.43532ZM10.6426 2.32759C11.4949 1.89575 12.5019 1.89568 13.3542 2.3274L20.4519 5.92255C20.7881 6.09286 21 6.43774 21 6.81464V8.83929C21 9.25213 20.91 10.159 20.793 11.1514C20.5524 13.1924 19.7619 15.132 18.5571 16.8127C17.1457 18.7817 15.2923 20.3923 13.1458 21.5154L12.3954 21.9081C12.1467 22.0382 11.8499 22.0382 11.6011 21.9081L10.8524 21.5165C8.70403 20.3927 6.84945 18.7803 5.43796 16.809C4.23636 15.1308 3.44805 13.1946 3.20771 11.1575C3.09037 10.1629 3 9.25303 3 8.83929V6.81449C3 6.43764 3.21185 6.0928 3.54801 5.92247L10.6426 2.32759Z" fill="#353566"/>
</svg>
