<svg width="24" height="24" viewBox="0 0 24 24" fill="none" xmlns="http://www.w3.org/2000/svg">
<path opacity="0.4" d="M13.7927 1.64719C12.656 1.11842 11.344 1.11842 10.2073 1.64719L3.70733 4.67108C2.20852 5.36835 1.25 6.87144 1.25 8.5245V15.5458C1.25 17.2116 2.22311 18.7237 3.73915 19.4139L10.2392 22.3729C11.3578 22.8821 12.6422 22.8821 13.7609 22.3729L20.2609 19.4139C21.7769 18.7237 22.75 17.2116 22.75 15.5458V8.5245C22.75 6.87143 21.7915 5.36835 20.2927 4.67108L13.7927 1.64719Z" fill="#353566"/>
<path d="M6.30669 8.10851C5.9287 7.9391 5.48495 8.10818 5.31554 8.48616C5.14613 8.86415 5.31521 9.3079 5.6932 9.47731L11.2499 11.9678V16.9999C11.2499 17.4142 11.5857 17.7499 11.9999 17.7499C12.4142 17.7499 12.7499 17.4142 12.7499 16.9999V11.9678L18.3067 9.47731C18.6847 9.3079 18.8538 8.86415 18.6844 8.48616C18.515 8.10818 18.0712 7.9391 17.6932 8.10851L12 10.6602L6.30669 8.10851Z" fill="#353566"/>
</svg>
