<svg width="24" height="24" viewBox="0 0 24 24" fill="none" xmlns="http://www.w3.org/2000/svg">
<path opacity="0.4" d="M18.6799 1.38295C18.1276 1.20349 17.5327 1.20349 16.9804 1.38295C16.6204 1.4999 16.3208 1.70455 16.0303 1.95114C15.7518 2.18754 15.4368 2.50264 15.0593 2.8801L3.06727 14.8721C2.90989 15.0293 2.77076 15.1682 2.65612 15.3324C2.55525 15.477 2.47171 15.6328 2.40722 15.7968C2.3339 15.9833 2.2949 16.1778 2.2507 16.3981L1.35708 20.8379C1.32186 21.0128 1.28614 21.1901 1.26981 21.3408C1.25253 21.5003 1.24259 21.7349 1.34332 21.9788C1.47021 22.2859 1.71417 22.5298 2.0213 22.6567C2.26511 22.7575 2.49975 22.7475 2.65927 22.7302C2.80998 22.7139 2.98728 22.6782 3.1621 22.643L7.60193 21.7494C7.82231 21.7052 8.01677 21.6662 8.20321 21.5928C8.36722 21.5283 8.52309 21.4448 8.6676 21.3439C8.83188 21.2293 8.97202 21.0889 9.13085 20.9299L21.1193 8.94145C21.497 8.56377 21.8122 8.24852 22.0487 7.96993C22.2954 7.67936 22.5002 7.37971 22.6171 7.01972C22.7966 6.4674 22.7966 5.87245 22.6171 5.32013C22.5002 4.96014 22.2954 4.66049 22.0487 4.36992C21.8122 4.09132 21.497 3.77606 21.1192 3.39835L20.6017 2.88078C20.224 2.50308 19.9087 2.18783 19.6302 1.95133C19.3396 1.70466 19.0399 1.49992 18.6799 1.38295Z" fill="#353566"/>
<path d="M15.5457 19.0349C15.8148 18.899 16.1012 19.1855 15.9653 19.4546L15.5085 20.3592C15.4638 20.4477 15.4638 20.5523 15.5085 20.6408L15.9653 21.5454C16.1012 21.8145 15.8148 22.101 15.5457 21.9651L14.6411 21.5082C14.5525 21.4635 14.448 21.4635 14.3594 21.5082L13.4548 21.9651C13.1857 22.101 12.8993 21.8145 13.0352 21.5454L13.492 20.6408C13.5367 20.5523 13.5367 20.4477 13.492 20.3592L13.0351 19.4546C12.8993 19.1855 13.1857 18.899 13.4548 19.0349L14.3594 19.4918C14.448 19.5365 14.5525 19.5365 14.6411 19.4918L15.5457 19.0349Z" fill="#353566"/>
<path d="M12.9697 4.96967L15.0593 2.88008C15.4367 2.50267 15.7519 2.18746 16.0304 1.95108C16.3209 1.70449 16.6205 1.49984 16.9804 1.38288C17.5327 1.20343 18.1277 1.20343 18.68 1.38288C19.04 1.49986 19.3396 1.70459 19.6302 1.95127C19.9088 2.18777 20.224 2.50302 20.6017 2.88072L21.1193 3.39829C21.497 3.77599 21.8123 4.09126 22.0488 4.36986C22.2955 4.66043 22.5002 4.96007 22.6172 5.32007C22.7966 5.87239 22.7966 6.46734 22.6172 7.01966C22.5002 7.37965 22.2955 7.6793 22.0488 7.96987C21.8123 8.24846 21.497 8.56371 21.1193 8.94139L19.0304 11.0303L12.9697 4.96967Z" fill="#353566"/>
<path d="M20.9439 14.641C21.0485 14.1398 20.4527 13.7958 20.071 14.1371L18.7878 15.2841C18.6622 15.3964 18.4907 15.4424 18.3258 15.4079L16.641 15.0561C16.1398 14.9515 15.7958 15.5473 16.1371 15.929L17.2841 17.2122C17.3964 17.3378 17.4424 17.5093 17.4079 17.6742L17.0561 19.359C16.9515 19.8602 17.5473 20.2042 17.929 19.8629L19.2122 18.7159C19.3378 18.6036 19.5093 18.5576 19.6742 18.5921L21.359 18.9439C21.8602 19.0485 22.2042 18.4527 21.8629 18.071L20.7159 16.7878C20.6036 16.6622 20.5576 16.4907 20.5921 16.3258L20.9439 14.641Z" fill="#353566"/>
</svg>
