<svg width="24" height="24" viewBox="0 0 24 24" fill="none" xmlns="http://www.w3.org/2000/svg">
<g opacity="0.4">
<path d="M1.66929 6.27766C2.0331 5.85169 2.57885 5.62564 3.13731 5.66959C3.57372 5.70393 3.93019 5.96042 4.203 6.18881C4.48882 6.4281 4.82954 6.76884 5.2361 7.17542L8.4175 10.3568C8.59959 10.5389 8.76681 10.7061 8.89518 10.8573C9.03357 11.0203 9.17026 11.2134 9.25014 11.4592C9.36434 11.8107 9.36434 12.1893 9.25014 12.5408C9.17026 12.7866 9.03357 12.9797 8.89518 13.1427C8.76682 13.2939 8.5996 13.4611 8.41752 13.6431L5.23608 16.8246C4.82953 17.2311 4.48882 17.5719 4.203 17.8111C3.93019 18.0395 3.57372 18.296 3.13731 18.3304C2.57885 18.3743 2.0331 18.1483 1.66929 17.7223C1.38499 17.3894 1.31428 16.956 1.28288 16.6016C1.24997 16.2303 1.24999 15.7484 1.25 15.1734V8.82656C1.24999 8.25156 1.24997 7.76968 1.28288 7.39837C1.31428 7.04397 1.38499 6.61053 1.66929 6.27766Z" fill="#353566"/>
<path d="M22.3307 6.27766C21.9668 5.85169 21.4211 5.62564 20.8626 5.66959C20.4262 5.70393 20.0698 5.96042 19.7969 6.18881C19.5111 6.4281 19.1704 6.76883 18.7639 7.17541L15.5824 10.3568C15.4004 10.5389 15.2331 10.7061 15.1048 10.8573C14.9664 11.0203 14.8297 11.2134 14.7498 11.4592C14.6356 11.8107 14.6356 12.1893 14.7498 12.5408C14.8297 12.7866 14.9664 12.9797 15.1048 13.1427C15.2331 13.2939 15.4004 13.4611 15.5825 13.6432L18.7639 16.8246C19.1704 17.2311 19.5111 17.5719 19.7969 17.8111C20.0698 18.0395 20.4262 18.296 20.8626 18.3304C21.4211 18.3743 21.9668 18.1483 22.3307 17.7223C22.615 17.3894 22.6857 16.956 22.7171 16.6016C22.75 16.2303 22.75 15.7484 22.7499 15.1734V8.82656C22.75 8.25156 22.75 7.76968 22.7171 7.39837C22.6857 7.04397 22.615 6.61053 22.3307 6.27766Z" fill="#353566"/>
</g>
<path d="M12 2.25C12.4142 2.25 12.75 2.58579 12.75 3L12.75 21C12.75 21.4142 12.4142 21.75 12 21.75C11.5858 21.75 11.25 21.4142 11.25 21L11.25 3C11.25 2.58579 11.5858 2.25 12 2.25Z" fill="#353566"/>
</svg>
