<svg width="24" height="24" viewBox="0 0 24 24" fill="none" xmlns="http://www.w3.org/2000/svg">
<path fill-rule="evenodd" clip-rule="evenodd" d="M12.9611 4.9783L3.06727 14.8721C2.90991 15.0292 2.77075 15.1682 2.65612 15.3324C2.55525 15.477 2.47171 15.6328 2.40721 15.7968C2.3339 15.9833 2.2949 16.1778 2.2507 16.3981L1.35708 20.8379C1.32187 21.0127 1.28614 21.1901 1.26981 21.3408C1.25253 21.5003 1.24259 21.7349 1.34332 21.9788C1.47021 22.2859 1.71417 22.5298 2.0213 22.6567C2.26511 22.7575 2.49975 22.7475 2.65927 22.7302C2.80999 22.7139 2.98729 22.6782 3.16211 22.643L7.60192 21.7494C7.82231 21.7052 8.01678 21.6662 8.20321 21.5928C8.36722 21.5283 8.52309 21.4448 8.6676 21.3439C8.83188 21.2293 8.97202 21.0889 9.13085 20.9299L21.1193 8.94145C21.497 8.56377 21.8122 8.24852 22.0487 7.96993C22.2954 7.67936 22.5002 7.37971 22.6171 7.01972C22.7966 6.4674 22.7966 5.87245 22.6171 5.32013C22.5002 4.96013 22.2954 4.66049 22.0487 4.36992C21.8122 4.09132 21.497 3.77605 21.1192 3.39835L20.6017 2.88078C20.224 2.50308 19.9087 2.18783 19.6302 1.95133C19.3396 1.70465 19.0399 1.49992 18.6799 1.38295C18.1276 1.20349 17.5327 1.20349 16.9804 1.38295C16.6204 1.4999 16.3208 1.70455 16.0303 1.95114C15.7518 2.18754 15.4368 2.50263 15.0593 2.88009L12.9782 4.96116L12.9696 4.96966L12.9611 4.9783ZM17.4439 2.80953C17.6949 2.72796 17.9654 2.72796 18.2164 2.80953C18.3131 2.84094 18.4398 2.9084 18.6594 3.09484C18.8857 3.28696 19.1578 3.55823 19.5626 3.963L20.0371 4.43751C20.4418 4.84228 20.7131 5.11437 20.9052 5.34069C21.0917 5.5603 21.1591 5.68699 21.1905 5.78365C21.2721 6.03471 21.2721 6.30514 21.1905 6.5562C21.1591 6.65286 21.0917 6.77955 20.9052 6.99916C20.7131 7.22548 20.4418 7.49757 20.0371 7.90234L18.5 9.4394L14.5607 5.50006L16.0984 3.96234C16.5029 3.55779 16.7749 3.2867 17.0011 3.09469C17.2205 2.90839 17.3472 2.84095 17.4439 2.80953ZM13.5 6.56072L17.4393 10.5001L8.10241 19.837C7.89363 20.0458 7.85087 20.0848 7.80908 20.1139C7.76091 20.1475 7.70895 20.1754 7.65429 20.1969C7.60686 20.2155 7.55072 20.2296 7.26126 20.2878L2.81791 21.1821L3.71223 16.7388C3.7705 16.4493 3.78452 16.3932 3.80317 16.3458C3.82466 16.2911 3.85251 16.2391 3.88613 16.191C3.91538 16.1491 3.95351 16.1072 4.15955 15.9012L13.5 6.56072Z" fill="#353566"/>
<path d="M15.5459 19.0353C15.815 18.8994 16.1015 19.1859 15.9656 19.455L15.5087 20.3596C15.464 20.4482 15.464 20.5527 15.5087 20.6412L15.9656 21.5459C16.1015 21.815 15.815 22.1014 15.5459 21.9655L14.6413 21.5087C14.5527 21.4639 14.4482 21.4639 14.3596 21.5087L13.455 21.9655C13.1859 22.1014 12.8995 21.815 13.0354 21.5459L13.4922 20.6412C13.5369 20.5527 13.5369 20.4482 13.4922 20.3596L13.0354 19.455C12.8995 19.1859 13.1859 18.8994 13.455 19.0353L14.3596 19.4922C14.4482 19.5369 14.5527 19.5369 14.6413 19.4922L15.5459 19.0353Z" fill="#353566"/>
<path d="M20.9441 14.6414C21.0487 14.1403 20.4529 13.7963 20.0712 14.1375L18.788 15.2846C18.6624 15.3969 18.491 15.4428 18.326 15.4084L16.6412 15.0565C16.14 14.9519 15.796 15.5477 16.1373 15.9294L17.2844 17.2126C17.3966 17.3382 17.4426 17.5097 17.4082 17.6746L17.0563 19.3594C16.9517 19.8606 17.5475 20.2046 17.9292 19.8634L19.2124 18.7163C19.338 18.604 19.5095 18.558 19.6744 18.5925L21.3592 18.9443C21.8604 19.049 22.2044 18.4531 21.8632 18.0714L20.7161 16.7883C20.6038 16.6626 20.5578 16.4912 20.5923 16.3262L20.9441 14.6414Z" fill="#353566"/>
</svg>
