<svg width="24" height="24" viewBox="0 0 24 24" fill="none" xmlns="http://www.w3.org/2000/svg">
<path d="M21.75 12C21.75 12.4142 21.4142 12.75 21 12.75L3 12.75C2.58579 12.75 2.25 12.4142 2.25 12C2.25 11.5858 2.58579 11.25 3 11.25L21 11.25C21.4142 11.25 21.75 11.5858 21.75 12Z" fill="#353566"/>
<path fill-rule="evenodd" clip-rule="evenodd" d="M18.3304 20.8627C18.3744 21.4212 18.1483 21.9669 17.7223 22.3307C17.3895 22.615 16.956 22.6857 16.6016 22.7171C16.2303 22.75 15.7484 22.75 15.1734 22.75H8.8266C8.25161 22.75 7.76972 22.75 7.39841 22.7171C7.04401 22.6857 6.61057 22.615 6.2777 22.3307C5.85173 21.9669 5.62568 21.4212 5.66963 20.8627C5.70397 20.4263 5.96046 20.0698 6.18885 19.797C6.42814 19.5112 6.76889 19.1705 7.17548 18.7639L10.3568 15.5825C10.5389 15.4004 10.7061 15.2332 10.8573 15.1048C11.0203 14.9664 11.2134 14.8297 11.4592 14.7499C11.8107 14.6357 12.1893 14.6357 12.5408 14.7499C12.7866 14.8297 12.9797 14.9664 13.1427 15.1048C13.2939 15.2332 13.4611 15.4004 13.6432 15.5825L16.8245 18.7639C17.2311 19.1704 17.5719 19.5112 17.8112 19.797C18.0396 20.0698 18.2961 20.4263 18.3304 20.8627ZM16.8358 21.0037C16.825 20.9827 16.7853 20.9083 16.661 20.7599C16.4697 20.5314 16.1772 20.2378 15.7383 19.799L12.6011 16.6617C12.3943 16.4549 12.2707 16.3322 12.1719 16.2483C12.1117 16.1972 12.0822 16.1797 12.074 16.1754C12.0258 16.1605 11.9742 16.1605 11.926 16.1754C11.9178 16.1797 11.8884 16.1972 11.8281 16.2483C11.7293 16.3322 11.6057 16.4549 11.399 16.6617L8.26172 19.799C7.82285 20.2378 7.53032 20.5314 7.339 20.7599C7.21475 20.9083 7.175 20.9827 7.16426 21.0037C7.16519 21.0674 7.19047 21.1284 7.23488 21.1742C7.25731 21.1814 7.33801 21.2059 7.53081 21.223C7.82769 21.2493 8.2421 21.25 8.86276 21.25H15.1373C15.7579 21.25 16.1724 21.2493 16.4692 21.223C16.662 21.2059 16.7427 21.1814 16.7652 21.1742C16.8096 21.1284 16.8349 21.0674 16.8358 21.0037Z" fill="#353566"/>
<path fill-rule="evenodd" clip-rule="evenodd" d="M17.7223 1.66929C18.1483 2.0331 18.3744 2.57885 18.3304 3.13731C18.2961 3.57372 18.0396 3.9302 17.8112 4.203C17.5719 4.48882 17.2312 4.82954 16.8246 5.2361L13.6432 8.4175C13.4611 8.59958 13.2939 8.76681 13.1427 8.89518C12.9797 9.03357 12.7866 9.17026 12.5408 9.25014C12.1893 9.36434 11.8107 9.36434 11.4592 9.25014C11.2134 9.17026 11.0203 9.03357 10.8573 8.89518C10.7061 8.76681 10.5389 8.59957 10.3568 8.41748L7.17548 5.23612C6.76889 4.82955 6.42814 4.48882 6.18885 4.203C5.96046 3.9302 5.70397 3.57372 5.66963 3.13731C5.62568 2.57885 5.85173 2.0331 6.2777 1.66929C6.61057 1.38499 7.04401 1.31428 7.39841 1.28288C7.76972 1.24997 8.2516 1.24999 8.8266 1.25H15.1734C15.7484 1.24999 16.2303 1.24997 16.6016 1.28288C16.956 1.31428 17.3895 1.38499 17.7223 1.66929ZM16.661 3.2401C16.7853 3.09169 16.825 3.01732 16.8358 2.99634C16.8349 2.9326 16.8096 2.87156 16.7652 2.82583C16.7427 2.8186 16.662 2.79411 16.4692 2.77702C16.1724 2.75072 15.7579 2.75 15.1373 2.75H8.86276C8.2421 2.75 7.82769 2.75072 7.53081 2.77702C7.33801 2.79411 7.25731 2.8186 7.23488 2.82583C7.19047 2.87156 7.16519 2.9326 7.16426 2.99634C7.175 3.01732 7.21475 3.09169 7.339 3.2401C7.53032 3.46863 7.82285 3.76217 8.26172 4.20104L11.399 7.3383C11.6057 7.54506 11.7293 7.66782 11.8281 7.75167C11.8884 7.80284 11.9178 7.82026 11.926 7.82459C11.9742 7.83952 12.0258 7.83952 12.074 7.82459C12.0822 7.82026 12.1117 7.80284 12.1719 7.75167C12.2707 7.66782 12.3943 7.54506 12.6011 7.3383L15.7383 4.20104C16.1772 3.76217 16.4697 3.46863 16.661 3.2401Z" fill="#353566"/>
</svg>
