<svg width="24" height="24" viewBox="0 0 24 24" fill="none" xmlns="http://www.w3.org/2000/svg">
<path fill-rule="evenodd" clip-rule="evenodd" d="M8.20369 1.24994H11.7963C12.1856 1.24948 12.5283 1.24908 12.851 1.34709C13.1341 1.43304 13.3974 1.57396 13.6259 1.76177C13.8864 1.97593 14.0762 2.26133 14.2918 2.58547L14.9116 3.51526C15.198 3.94485 15.2608 4.02539 15.3266 4.07941C15.4027 4.14202 15.4905 4.18899 15.5848 4.21764C15.6655 4.24214 15.7663 4.24986 16.2704 4.25H19C19.4142 4.25 19.75 4.58579 19.75 5C19.75 5.41421 19.4142 5.75 19 5.75H17.0017L17 5.75L16.2037 5.75006C16.1508 5.75013 16.0987 5.75019 16.0475 5.75H3.95255C3.90132 5.75019 3.84929 5.75013 3.79641 5.75006L3 5.75L2.99829 5.75H1C0.585786 5.75 0.25 5.41421 0.25 5C0.25 4.58579 0.585786 4.25 1 4.25H3.72956C4.23372 4.24986 4.3345 4.24214 4.41516 4.21764C4.50951 4.18899 4.59727 4.14202 4.67344 4.07941C4.73917 4.02539 4.80205 3.94485 5.08844 3.51526L5.70822 2.58547C5.92377 2.26133 6.11355 1.97593 6.37412 1.76177C6.60263 1.57396 6.86593 1.43304 7.14896 1.34709C7.47168 1.24908 7.81443 1.24948 8.20369 1.24994ZM13.0884 3.48475L13.5986 4.25H6.40139L6.91156 3.48475C7.19795 3.05515 7.26083 2.97461 7.32656 2.92059C7.40273 2.85799 7.49049 2.81102 7.58484 2.78236C7.66625 2.75764 7.76814 2.75 8.28444 2.75H11.7156C12.2319 2.75 12.3338 2.75764 12.4152 2.78236C12.5095 2.81102 12.5973 2.85799 12.6734 2.92059C12.7392 2.97461 12.802 3.05515 13.0884 3.48475Z" fill="#353566"/>
<path d="M3.44017 7.93031C3.40169 7.51789 3.03616 7.21475 2.62373 7.25323C2.21131 7.29171 1.90817 7.65724 1.94665 8.06966L2.84948 17.7459C2.91879 18.4888 2.97486 19.0898 3.05894 19.5759C3.14573 20.0776 3.27101 20.5153 3.50938 20.9163C3.88973 21.5561 4.45187 22.0682 5.12422 22.3875C5.5456 22.5876 5.99304 22.6716 6.5007 22.7114C6.99246 22.75 7.59602 22.75 8.34218 22.75L11.7548 22.75C12.169 22.7499 12.5047 22.4141 12.5047 21.9999C12.5046 21.5857 12.1688 21.2499 11.7546 21.25L8.37265 21.25C7.58889 21.25 7.0442 21.2495 6.61796 21.216C6.20094 21.1833 5.95702 21.1224 5.76765 21.0325C5.36423 20.8409 5.02695 20.5336 4.79874 20.1498C4.69162 19.9696 4.60829 19.7324 4.53699 19.3202C4.46411 18.8989 4.41298 18.3566 4.34017 17.5762L3.44017 7.93031Z" fill="#353566"/>
<path d="M18.0527 8.06967C18.0912 7.65725 17.7881 7.29172 17.3757 7.25323C16.9632 7.21475 16.5977 7.51789 16.5592 7.93031L16.4623 8.96892C16.4238 9.38134 16.727 9.74687 17.1394 9.78535C17.5518 9.82384 17.9173 9.5207 17.9558 9.10828L18.0527 8.06967Z" fill="#353566"/>
<path d="M8.75005 10.5C8.75005 10.0858 8.41426 9.74999 8.00005 9.74999C7.58584 9.74999 7.25005 10.0858 7.25005 10.5V17.5001C7.25005 17.9143 7.58584 18.2501 8.00005 18.2501C8.41426 18.2501 8.75005 17.9143 8.75005 17.5001V10.5Z" fill="#353566"/>
<path d="M12.7501 10.5C12.7501 10.0858 12.4143 9.74999 12.0001 9.74999C11.5858 9.74999 11.2501 10.0858 11.2501 10.5V11.7083C11.2501 12.1226 11.5858 12.4583 12.0001 12.4583C12.4143 12.4583 12.7501 12.1226 12.7501 11.7083V10.5Z" fill="#353566"/>
<path d="M18.625 14.4999C18.625 14.1548 18.3452 13.8749 18 13.8749C17.6548 13.8749 17.375 14.1548 17.375 14.4999V17C17.375 17.209 17.4794 17.4041 17.6533 17.52L19.1533 18.52C19.4405 18.7114 19.8286 18.6338 20.02 18.3466C20.2115 18.0594 20.1339 17.6714 19.8467 17.4799L18.625 16.6655V14.4999Z" fill="#353566"/>
<path fill-rule="evenodd" clip-rule="evenodd" d="M12.25 17C12.25 13.8244 14.8244 11.25 18 11.25C21.1756 11.25 23.75 13.8244 23.75 17C23.75 20.1756 21.1756 22.75 18 22.75C14.8244 22.75 12.25 20.1756 12.25 17ZM18 12.75C15.6528 12.75 13.75 14.6528 13.75 17C13.75 19.3472 15.6528 21.25 18 21.25C20.3472 21.25 22.25 19.3472 22.25 17C22.25 14.6528 20.3472 12.75 18 12.75Z" fill="#353566"/>
</svg>
