<svg width="24" height="24" viewBox="0 0 24 24" fill="none" xmlns="http://www.w3.org/2000/svg">
<path fill-rule="evenodd" clip-rule="evenodd" d="M10.2037 1.24994C9.81443 1.24948 9.47168 1.24908 9.14896 1.34709C8.86593 1.43304 8.60263 1.57396 8.37412 1.76177C8.11355 1.97593 7.92377 2.26133 7.70822 2.58547L7.08844 3.51526C6.80205 3.94485 6.73917 4.02539 6.67344 4.07941C6.59727 4.14202 6.50951 4.18899 6.41516 4.21764C6.3345 4.24214 6.23372 4.24986 5.72956 4.25H3C2.58579 4.25 2.25 4.58579 2.25 5C2.25 5.41421 2.58579 5.75 3 5.75H4.99829L5 5.75L5.79631 5.75006C5.8492 5.75013 5.90131 5.75019 5.95255 5.75H18.0475C18.0987 5.75019 18.1507 5.75013 18.2036 5.75006L19 5.75L19.0017 5.75H21C21.4142 5.75 21.75 5.41421 21.75 5C21.75 4.58579 21.4142 4.25 21 4.25H18.2704C17.7663 4.24986 17.6655 4.24214 17.5848 4.21764C17.4905 4.18899 17.4027 4.14202 17.3266 4.07941C17.2608 4.02539 17.198 3.94485 16.9116 3.51526L16.2918 2.58547C16.0762 2.26133 15.8864 1.97593 15.6259 1.76177C15.3974 1.57396 15.1341 1.43304 14.851 1.34709C14.5283 1.24908 14.1856 1.24948 13.7963 1.24994H10.2037ZM15.5986 4.25L15.0884 3.48475C14.802 3.05515 14.7392 2.97461 14.6734 2.92059C14.5973 2.85799 14.5095 2.81102 14.4152 2.78236C14.3338 2.75764 14.2319 2.75 13.7156 2.75H10.2844C9.76814 2.75 9.66625 2.75764 9.58484 2.78236C9.49049 2.81102 9.40273 2.85799 9.32656 2.92059C9.26083 2.97461 9.19795 3.05515 8.91156 3.48475L8.40139 4.25H15.5986Z" fill="#353566"/>
<path d="M3.9469 8.06966C3.90842 7.65724 4.21156 7.29171 4.62398 7.25323C5.0364 7.21475 5.40193 7.51789 5.44041 7.93031L6.34041 17.5762C6.41322 18.3566 6.46436 18.8989 6.53723 19.3202C6.60853 19.7324 6.69186 19.9696 6.79899 20.1498C7.0272 20.5336 7.36448 20.8409 7.76789 21.0325C7.95726 21.1224 8.20119 21.1833 8.6182 21.216C9.04444 21.2495 9.58914 21.25 10.3729 21.25H13.6269C14.4107 21.25 14.9554 21.2495 15.3816 21.216C15.7986 21.1833 16.0426 21.1224 16.2319 21.0325C16.6353 20.8409 16.9726 20.5336 17.2008 20.1498C17.308 19.9696 17.3913 19.7324 17.4626 19.3202C17.5355 18.8989 17.5866 18.3566 17.6594 17.5763L18.5595 7.93031C18.598 7.51789 18.9635 7.21475 19.3759 7.25323C19.7883 7.29172 20.0915 7.65725 20.053 8.06967L19.1501 17.7459C19.0808 18.4888 19.0247 19.0899 18.9406 19.5759C18.8538 20.0776 18.7286 20.5153 18.4902 20.9163C18.1098 21.5561 17.5477 22.0682 16.8754 22.3875C16.454 22.5876 16.0065 22.6716 15.4989 22.7114C15.0071 22.75 14.4036 22.75 13.6574 22.75H10.3425C9.59635 22.75 8.9927 22.75 8.50095 22.7114C7.99328 22.6716 7.54584 22.5876 7.12447 22.3875C6.45211 22.0682 5.88998 21.5561 5.50963 20.9163C5.27126 20.5153 5.14598 20.0776 5.05918 19.5759C4.9751 19.0898 4.91904 18.4888 4.84972 17.7459L3.9469 8.06966Z" fill="#353566"/>
<path d="M12 9.75C12.4142 9.75 12.75 10.0858 12.75 10.5V15.6893L14.4697 13.9697C14.7626 13.6768 15.2374 13.6768 15.5303 13.9697C15.8232 14.2626 15.8232 14.7374 15.5303 15.0303L12.5303 18.0303C12.3897 18.171 12.1989 18.25 12 18.25C11.8011 18.25 11.6103 18.171 11.4697 18.0303L8.46967 15.0303C8.17678 14.7374 8.17678 14.2626 8.46967 13.9697C8.76256 13.6768 9.23744 13.6768 9.53033 13.9697L11.25 15.6893V10.5C11.25 10.0858 11.5858 9.75 12 9.75Z" fill="#353566"/>
</svg>
