<svg width="24" height="24" viewBox="0 0 24 24" fill="none" xmlns="http://www.w3.org/2000/svg">
<g opacity="0.4">
<path d="M20 6C21.1046 6 22 5.10457 22 4C22 2.89543 21.1046 2 20 2C18.8954 2 18 2.89543 18 4C18 5.10457 18.8954 6 20 6Z" fill="#353566"/>
<path d="M16 4C16 6.20914 17.7909 8 20 8C20.345 8 20.6798 7.95633 20.9991 7.87421C21 8.10025 21 8.34161 21 8.6V13.4C21 15.3602 21 16.3403 20.6185 17.089C20.283 17.7475 19.7475 18.283 19.089 18.6185C18.3403 19 17.3602 19 15.4 19H7.14532C6.823 19 6.66183 19 6.50812 19.0326C6.37177 19.0614 6.24011 19.1092 6.11693 19.1744C5.97808 19.248 5.85438 19.3513 5.60698 19.5579L3.31278 21.4737C2.89409 21.8234 2.68474 21.9982 2.5079 22.001C2.35417 22.0034 2.20788 21.935 2.1112 21.8154C2 21.6779 2 21.4052 2 20.8597V8.6C2 6.63982 2 5.65972 2.38148 4.91103C2.71703 4.25247 3.25247 3.71703 3.91103 3.38148C4.65972 3 5.63982 3 7.6 3H15.4C15.6584 3 15.8997 3 16.1258 3.00087C16.0437 3.32023 16 3.65502 16 4Z" fill="#353566"/>
</g>
<path fill-rule="evenodd" clip-rule="evenodd" d="M17.5 4C17.5 2.61929 18.6193 1.5 20 1.5C21.3807 1.5 22.5 2.61929 22.5 4C22.5 5.38071 21.3807 6.5 20 6.5C18.6193 6.5 17.5 5.38071 17.5 4ZM20 2.5C19.1716 2.5 18.5 3.17157 18.5 4C18.5 4.82843 19.1716 5.5 20 5.5C20.8284 5.5 21.5 4.82843 21.5 4C21.5 3.17157 20.8284 2.5 20 2.5Z" fill="#353566"/>
<path d="M20.4994 7.96913C20.5 8.16614 20.5 8.37595 20.5 8.6V13.4C20.5 14.3883 20.4996 15.0995 20.454 15.6581C20.4088 16.2108 20.3219 16.5699 20.173 16.862C19.8854 17.4265 19.4265 17.8854 18.862 18.173C18.5699 18.3219 18.2108 18.4088 17.6581 18.454C17.0995 18.4996 16.3883 18.5 15.4 18.5L7.10076 18.5C6.82155 18.4999 6.6105 18.4998 6.40452 18.5434C6.22271 18.5819 6.04716 18.6456 5.88293 18.7326C5.69687 18.8311 5.53494 18.9664 5.32071 19.1455L2.9923 21.0899C2.7753 21.2711 2.63876 21.3845 2.53506 21.4563L2.51438 21.4703L2.51187 21.4455C2.5005 21.3198 2.5 21.1424 2.5 20.8597V8.6C2.5 7.61166 2.50039 6.90047 2.54603 6.34192C2.59119 5.78921 2.67814 5.43014 2.82698 5.13803C3.1146 4.57354 3.57354 4.1146 4.13803 3.82698C4.43014 3.67814 4.78921 3.59118 5.34193 3.54602C5.90047 3.50039 6.61166 3.5 7.6 3.5H15.4C15.6241 3.5 15.8339 3.50002 16.0309 3.50058C16.0743 3.15167 16.1627 2.8167 16.2901 2.50166C16.0213 2.5 15.7328 2.5 15.4225 2.5H7.57756C6.61647 2.5 5.86451 2.49999 5.26049 2.54935C4.64594 2.59956 4.14062 2.70334 3.68404 2.93597C2.93139 3.31947 2.31947 3.93139 1.93598 4.68404C1.70334 5.14062 1.59956 5.64594 1.54935 6.26049C1.5 6.86447 1.5 7.61635 1.5 8.57733V20.882C1.49999 21.1356 1.49998 21.3593 1.51594 21.5356C1.53143 21.7067 1.56791 21.9387 1.72241 22.1298C1.91575 22.3689 2.20835 22.5058 2.5158 22.5009C2.76149 22.497 2.96298 22.3763 3.10423 22.2785C3.24981 22.1777 3.42147 22.0344 3.61607 21.8719L5.92747 19.9416C6.19078 19.7217 6.26908 19.6596 6.35094 19.6163C6.43306 19.5728 6.52083 19.541 6.61174 19.5217C6.70236 19.5025 6.80227 19.5 7.14533 19.5H15.4225C16.3835 19.5 17.1355 19.5 17.7395 19.4507C18.3541 19.4004 18.8594 19.2967 19.316 19.064C20.0686 18.6805 20.6805 18.0686 21.064 17.316C21.2967 16.8594 21.4004 16.3541 21.4507 15.7395C21.5 15.1355 21.5 14.3835 21.5 13.4225V8.57648C21.5 8.26655 21.5 7.97838 21.4983 7.70991C21.1833 7.83727 20.8483 7.92567 20.4994 7.96913Z" fill="#353566"/>
<path d="M11.5 10.25C11.0858 10.25 10.75 10.5858 10.75 11C10.75 11.4142 11.0858 11.75 11.5 11.75C11.9142 11.75 12.2501 11.4142 12.2501 11C12.2501 10.5858 11.9142 10.25 11.5 10.25Z" fill="#353566"/>
<path d="M6.75 11C6.75 10.5858 7.08579 10.25 7.5 10.25C7.91421 10.25 8.2501 10.5858 8.2501 11C8.2501 11.4142 7.91431 11.75 7.5001 11.75C7.08589 11.75 6.75 11.4142 6.75 11Z" fill="#353566"/>
<path d="M15.5 10.25C15.0858 10.25 14.75 10.5858 14.75 11C14.75 11.4142 15.0858 11.75 15.5 11.75C15.9142 11.75 16.2501 11.4142 16.2501 11C16.2501 10.5858 15.9142 10.25 15.5 10.25Z" fill="#353566"/>
</svg>
