<svg width="24" height="24" viewBox="0 0 24 24" fill="none" xmlns="http://www.w3.org/2000/svg">
<g clip-path="url(#clip0_9002_234)">
<path opacity="0.4" d="M1 19.8857V6.59999C1 4.63981 1 3.65972 1.38148 2.91103C1.71703 2.25247 2.25247 1.71703 2.91103 1.38148C3.65972 1 4.63982 1 6.6 1H15.4C17.3602 1 18.3403 1 19.089 1.38148C19.7475 1.71703 20.283 2.25247 20.6185 2.91103C21 3.65972 21 4.63982 21 6.6V12.043C20.4044 11.6948 19.7091 11.5 19 11.5C17.1411 11.5 15.3763 12.8386 15.2569 14.7726L15.2149 15.4536L14.674 15.8694C14.0196 16.3725 13.5815 17.1341 13.5102 18H6.32902C6.02165 18 5.86797 18 5.72079 18.0298C5.5902 18.0562 5.46371 18.0999 5.34466 18.1597C5.21049 18.2271 5.08958 18.322 4.84777 18.5116L2.29376 20.5151C1.8789 20.8405 1.67148 21.0033 1.49719 21.0023C1.3456 21.0014 1.20257 20.9319 1.10834 20.8131C1 20.6766 1 20.4129 1 19.8857Z" fill="#353566"/>
<path d="M6.57756 0.5H15.4224C16.3835 0.499997 17.1355 0.499995 17.7395 0.549345C18.3541 0.599556 18.8594 0.703335 19.316 0.935974C20.0686 1.31947 20.6805 1.93139 21.064 2.68404C21.2967 3.14062 21.4004 3.64594 21.4507 4.26049C21.5 4.86451 21.5 5.61646 21.5 6.57754V12.3913C21.2014 12.1455 20.8629 11.9447 20.5 11.7964V6.6C20.5 5.61166 20.4996 4.90047 20.454 4.34192C20.4088 3.78921 20.3219 3.43014 20.173 3.13803C19.8854 2.57354 19.4265 2.1146 18.862 1.82698C18.5699 1.67814 18.2108 1.59118 17.6581 1.54602C17.0995 1.50039 16.3883 1.5 15.4 1.5H6.6C5.61166 1.5 4.90047 1.50039 4.34193 1.54602C3.78921 1.59118 3.43014 1.67814 3.13803 1.82698C2.57355 2.1146 2.1146 2.57354 1.82698 3.13803C1.67815 3.43014 1.59119 3.78921 1.54603 4.34192C1.50039 4.90047 1.5 5.61165 1.5 6.59999V19.8857C1.5 20.1593 1.5005 20.3298 1.51149 20.4506L1.51384 20.4739L1.53357 20.4614C1.6354 20.3954 1.76989 20.2906 1.98516 20.1217L4.57251 18.0921C4.782 17.9276 4.94037 17.8033 5.12017 17.7129C5.2789 17.6332 5.44755 17.5749 5.62167 17.5397C5.81891 17.4998 6.02024 17.4999 6.28658 17.5L13.5943 17.5C13.5327 17.7397 13.5 17.991 13.5 18.25V18.5H6.32902C6.00194 18.5 5.9067 18.5023 5.81991 18.5198C5.73285 18.5375 5.64852 18.5666 5.56915 18.6065C5.49003 18.6462 5.41368 18.7032 5.15633 18.9051L2.58485 20.9223C2.39244 21.0732 2.22175 21.2071 2.07696 21.3008C1.93514 21.3926 1.7351 21.5036 1.49439 21.5023C1.1912 21.5006 0.905147 21.3614 0.716675 21.1239C0.567045 20.9353 0.530904 20.7095 0.515601 20.5412C0.499977 20.3694 0.499988 20.1525 0.500001 19.9079V6.57755C0.500001 5.61656 0.500001 4.86446 0.549348 4.26049C0.599559 3.64594 0.703338 3.14062 0.935977 2.68404C1.31947 1.93139 1.93139 1.31947 2.68404 0.935974C3.14062 0.703335 3.64594 0.599556 4.26049 0.549345C4.86451 0.499995 5.61647 0.499997 6.57756 0.5Z" fill="#353566"/>
<path d="M15.5 8L6.5 8C6.22386 8 6 7.77614 6 7.5C6 7.22386 6.22386 7 6.5 7H15.5C15.7761 7 16 7.22386 16 7.5C16 7.77614 15.7761 8 15.5 8Z" fill="#353566"/>
<path d="M11.5 12L6.5 12C6.22386 12 6 11.7761 6 11.5C6 11.2239 6.22386 11 6.5 11L11.5 11C11.7761 11 12 11.2239 12 11.5C12 11.7761 11.7761 12 11.5 12Z" fill="#353566"/>
<path fill-rule="evenodd" clip-rule="evenodd" d="M16.25 15C16.25 13.5656 17.5382 12.5 19 12.5C20.4618 12.5 21.75 13.5656 21.75 15V16.25C22.7165 16.25 23.5 17.0335 23.5 18V21.75C23.5 22.7165 22.7165 23.5 21.75 23.5H16.25C15.2835 23.5 14.5 22.7165 14.5 21.75V18C14.5 17.0335 15.2835 16.25 16.25 16.25V15ZM17.25 16.25H20.75V15C20.75 14.2253 20.0235 13.5 19 13.5C17.9765 13.5 17.25 14.2253 17.25 15V16.25ZM16.25 17.25C15.8358 17.25 15.5 17.5858 15.5 18V21.75C15.5 22.1642 15.8358 22.5 16.25 22.5H21.75C22.1642 22.5 22.5 22.1642 22.5 21.75V18C22.5 17.5858 22.1642 17.25 21.75 17.25H16.25Z" fill="#353566"/>
</g>
<defs>
<clipPath id="clip0_9002_234">
<rect width="24" height="24" fill="white"/>
</clipPath>
</defs>
</svg>
