<svg width="24" height="24" viewBox="0 0 24 24" fill="none" xmlns="http://www.w3.org/2000/svg">
<path opacity="0.4" fill-rule="evenodd" clip-rule="evenodd" d="M2 20.8857V7.59999C2 5.63981 2 4.65972 2.38148 3.91103C2.71703 3.25247 3.25247 2.71703 3.91103 2.38148C4.65972 2 5.63982 2 7.6 2H16.4C18.3602 2 19.3403 2 20.089 2.38148C20.7475 2.71703 21.283 3.25247 21.6185 3.91103C22 4.65972 22 5.63982 22 7.6V13.4C22 15.3602 22 16.3403 21.6185 17.089C21.283 17.7475 20.7475 18.283 20.089 18.6185C19.3403 19 18.3602 19 16.4 19H7.32902C7.02165 19 6.86797 19 6.72079 19.0298C6.5902 19.0562 6.46371 19.0999 6.34466 19.1597C6.21049 19.2271 6.08958 19.322 5.84777 19.5116L3.29376 21.5151C2.8789 21.8405 2.67148 22.0033 2.49719 22.0023C2.3456 22.0014 2.20257 21.9319 2.10834 21.8131C2 21.6766 2 21.4129 2 20.8857ZM12.4954 6.6311C12.2954 6.21623 11.7046 6.21623 11.5046 6.6311L10.5671 8.5759C10.5026 8.70968 10.375 8.8019 10.2277 8.82112L8.07944 9.10145C7.61912 9.16151 7.4357 9.72967 7.77399 10.0476L9.33886 11.5181C9.44818 11.6208 9.49762 11.7721 9.47004 11.9196L9.07607 14.0257C8.99113 14.4798 9.46999 14.8299 9.87694 14.6113L11.7918 13.5825C11.9218 13.5127 12.0782 13.5127 12.2082 13.5825L14.1231 14.6113C14.53 14.8299 15.0089 14.4798 14.9239 14.0257L14.53 11.9196C14.5024 11.7721 14.5518 11.6208 14.6611 11.5181L16.226 10.0476C16.5643 9.72967 16.3809 9.16151 15.9206 9.10145L13.7723 8.82112C13.625 8.8019 13.4974 8.70968 13.4329 8.5759L12.4954 6.6311Z" fill="#353566"/>
<path fill-rule="evenodd" clip-rule="evenodd" d="M12.9908 6.39229C12.5908 5.56251 11.4091 5.56252 11.0091 6.39229L10.0975 8.28346L8.00823 8.55608C7.08756 8.67622 6.7207 9.81257 7.39731 10.4484L8.9183 11.8776L8.5354 13.9246C8.36552 14.8328 9.32328 15.5331 10.1372 15.0958L12 14.095L13.8627 15.0958C14.6766 15.5331 15.6344 14.8328 15.4645 13.9246L15.0816 11.8776L16.6026 10.4484C17.2792 9.81257 16.9123 8.67622 15.9917 8.55608L13.9024 8.28346L12.9908 6.39229ZM11.0625 8.81473L12 6.87001L12.9374 8.81473C13.0825 9.11576 13.3697 9.32327 13.7011 9.36651L15.8493 9.64682L14.2845 11.1173C14.0385 11.3484 13.9272 11.6889 13.9893 12.0207L14.3832 14.1268L12.4685 13.098C12.1759 12.9409 11.824 12.9409 11.5314 13.098L9.61666 14.1268L10.0106 12.0207C10.0727 11.6889 9.96142 11.3484 9.71545 11.1173L8.15064 9.64682L10.2988 9.36651C10.6302 9.32327 10.9174 9.11576 11.0625 8.81473Z" fill="#353566"/>
<path fill-rule="evenodd" clip-rule="evenodd" d="M16.4224 1.5H7.57756C6.61647 1.5 5.86451 1.49999 5.26049 1.54935C4.64594 1.59956 4.14062 1.70334 3.68404 1.93597C2.93139 2.31947 2.31947 2.93139 1.93598 3.68404C1.70334 4.14062 1.59956 4.64594 1.54935 5.26049C1.5 5.86446 1.5 6.61634 1.5 7.57733V20.9078C1.49999 21.1524 1.49998 21.3694 1.5156 21.5412C1.5309 21.7095 1.56704 21.9353 1.71667 22.1239C1.90515 22.3614 2.1912 22.5006 2.49439 22.5023C2.7351 22.5036 2.93514 22.3926 3.07696 22.3008C3.22175 22.2071 3.39244 22.0732 3.58485 21.9223L6.15633 19.9051C6.41368 19.7032 6.49003 19.6462 6.56915 19.6065C6.64852 19.5666 6.73285 19.5375 6.8199 19.5198C6.9067 19.5023 7.00194 19.5 7.32902 19.5H16.4225C17.3835 19.5 18.1355 19.5 18.7395 19.4507C19.3541 19.4004 19.8594 19.2967 20.316 19.064C21.0686 18.6805 21.6805 18.0686 22.064 17.316C22.2967 16.8594 22.4004 16.3541 22.4507 15.7395C22.5 15.1355 22.5 14.3835 22.5 13.4225V7.57754C22.5 6.61646 22.5 5.86451 22.4507 5.26049C22.4004 4.64594 22.2967 4.14062 22.064 3.68404C21.6805 2.93139 21.0686 2.31947 20.316 1.93597C19.8594 1.70334 19.3541 1.59956 18.7395 1.54935C18.1355 1.49999 17.3835 1.5 16.4224 1.5ZM4.13803 2.82698C4.43014 2.67814 4.78921 2.59118 5.34193 2.54602C5.90047 2.50039 6.61166 2.5 7.6 2.5H16.4C17.3883 2.5 18.0995 2.50039 18.6581 2.54602C19.2108 2.59118 19.5699 2.67814 19.862 2.82698C20.4265 3.1146 20.8854 3.57354 21.173 4.13803C21.3219 4.43014 21.4088 4.78921 21.454 5.34192C21.4996 5.90047 21.5 6.61166 21.5 7.6V13.4C21.5 14.3883 21.4996 15.0995 21.454 15.6581C21.4088 16.2108 21.3219 16.5699 21.173 16.862C20.8854 17.4265 20.4265 17.8854 19.862 18.173C19.5699 18.3219 19.2108 18.4088 18.6581 18.454C18.0995 18.4996 17.3883 18.5 16.4 18.5L7.28658 18.5C7.02024 18.4999 6.8189 18.4998 6.62167 18.5397C6.44755 18.5749 6.2789 18.6332 6.12017 18.7129C5.94036 18.8033 5.782 18.9276 5.57251 19.0921L2.98516 21.1217C2.76989 21.2906 2.6354 21.3954 2.53357 21.4614L2.51384 21.4739L2.51149 21.4506C2.5005 21.3298 2.5 21.1593 2.5 20.8857V7.59999C2.5 6.61165 2.50039 5.90047 2.54603 5.34192C2.59118 4.78921 2.67814 4.43014 2.82698 4.13803C3.1146 3.57354 3.57354 3.1146 4.13803 2.82698Z" fill="#353566"/>
</svg>
