<svg width="24" height="24" viewBox="0 0 24 24" fill="none" xmlns="http://www.w3.org/2000/svg">
<path opacity="0.4" fill-rule="evenodd" clip-rule="evenodd" d="M2 20.8857V7.59999C2 5.63981 2 4.65972 2.38148 3.91103C2.71703 3.25247 3.25247 2.71703 3.91103 2.38148C4.65972 2 5.63982 2 7.6 2H16.4C18.3602 2 19.3403 2 20.089 2.38148C20.7475 2.71703 21.283 3.25247 21.6185 3.91103C22 4.65972 22 5.63982 22 7.6V13.4C22 15.3602 22 16.3403 21.6185 17.089C21.283 17.7475 20.7475 18.283 20.089 18.6185C19.3403 19 18.3602 19 16.4 19H7.32902C7.02165 19 6.86797 19 6.72079 19.0298C6.5902 19.0562 6.46371 19.0999 6.34466 19.1597C6.21049 19.2271 6.08958 19.322 5.84777 19.5116L3.29376 21.5151C2.8789 21.8405 2.67148 22.0033 2.49719 22.0023C2.3456 22.0014 2.20257 21.9319 2.10834 21.8131C2 21.6766 2 21.4129 2 20.8857ZM12.1832 8.30161C12.0344 7.89946 11.4656 7.89946 11.3168 8.30161L11.0184 9.10806C10.6909 9.99309 9.99309 10.6909 9.10806 11.0184L8.30161 11.3168C7.89946 11.4656 7.89946 12.0344 8.30161 12.1832L9.10806 12.4816C9.99309 12.8091 10.6909 13.5069 11.0184 14.3919L11.3168 15.1984C11.4656 15.6005 12.0344 15.6005 12.1832 15.1984L12.4816 14.3919C12.8091 13.5069 13.5069 12.8091 14.3919 12.4816L15.1984 12.1832C15.6005 12.0344 15.6005 11.4656 15.1984 11.3168L14.3919 11.0184C13.5069 10.6909 12.8091 9.99309 12.4816 9.10806L12.1832 8.30161Z" fill="#353566"/>
<path fill-rule="evenodd" clip-rule="evenodd" d="M10.8479 8.12809C11.1578 7.29064 12.3422 7.29063 12.6521 8.12809L12.9505 8.93454C13.2274 9.68272 13.8173 10.2726 14.5655 10.5495L15.3719 10.8479C16.2094 11.1578 16.2094 12.3422 15.3719 12.6521L14.5655 12.9505C13.8173 13.2274 13.2274 13.8173 12.9505 14.5655L12.6521 15.3719C12.3422 16.2094 11.1578 16.2094 10.8479 15.3719L10.5495 14.5655C10.2726 13.8173 9.68272 13.2274 8.93454 12.9505L8.12809 12.6521C7.29064 12.3422 7.29064 11.1578 8.12809 10.8479L8.93454 10.5495C9.68272 10.2726 10.2726 9.68272 10.5495 8.93454L10.8479 8.12809ZM11.75 8.57167L11.4873 9.28158C11.1092 10.3035 10.3035 11.1092 9.28158 11.4873L8.57167 11.75L9.28158 12.0127C10.3035 12.3908 11.1092 13.1965 11.4873 14.2184L11.75 14.9283L12.0127 14.2184C12.3908 13.1965 13.1965 12.3908 14.2184 12.0127L14.9283 11.75L14.2184 11.4873C13.1965 11.1092 12.3908 10.3035 12.0127 9.28158L11.75 8.57167Z" fill="#353566"/>
<path d="M16.1269 5.58833C16.0833 5.47056 15.9167 5.47056 15.8731 5.58833L15.6789 6.11328C15.4962 6.60697 15.107 6.99621 14.6133 7.17888L14.0883 7.37314C13.9706 7.41671 13.9706 7.58329 14.0883 7.62686L14.6133 7.82112C15.107 8.00379 15.4962 8.39303 15.6789 8.88672L15.8731 9.41167C15.9167 9.52944 16.0833 9.52944 16.1269 9.41167L16.3211 8.88672C16.5038 8.39303 16.893 8.00379 17.3867 7.82112L17.9117 7.62686C18.0294 7.58329 18.0294 7.41671 17.9117 7.37314L17.3867 7.17888C16.893 6.99621 16.5038 6.60697 16.3211 6.11328L16.1269 5.58833Z" fill="#353566"/>
<path fill-rule="evenodd" clip-rule="evenodd" d="M7.57756 1.5H16.4224C17.3835 1.5 18.1355 1.49999 18.7395 1.54935C19.3541 1.59956 19.8594 1.70334 20.316 1.93597C21.0686 2.31947 21.6805 2.93139 22.064 3.68404C22.2967 4.14062 22.4004 4.64594 22.4507 5.26049C22.5 5.86451 22.5 6.61646 22.5 7.57754V13.4225C22.5 14.3835 22.5 15.1355 22.4507 15.7395C22.4004 16.3541 22.2967 16.8594 22.064 17.316C21.6805 18.0686 21.0686 18.6805 20.316 19.064C19.8594 19.2967 19.3541 19.4004 18.7395 19.4507C18.1355 19.5 17.3835 19.5 16.4225 19.5H7.32902C7.00194 19.5 6.9067 19.5023 6.8199 19.5198C6.73285 19.5375 6.64852 19.5666 6.56915 19.6065C6.49003 19.6462 6.41368 19.7032 6.15633 19.9051L3.58485 21.9223C3.39244 22.0732 3.22175 22.2071 3.07696 22.3008C2.93514 22.3926 2.7351 22.5036 2.49439 22.5023C2.1912 22.5006 1.90515 22.3614 1.71667 22.1239C1.56704 21.9353 1.5309 21.7095 1.5156 21.5412C1.49998 21.3694 1.49999 21.1525 1.5 20.9079V7.57755C1.5 6.61656 1.5 5.86446 1.54935 5.26049C1.59956 4.64594 1.70334 4.14062 1.93598 3.68404C2.31947 2.93139 2.93139 2.31947 3.68404 1.93597C4.14062 1.70334 4.64594 1.59956 5.26049 1.54935C5.86451 1.49999 6.61647 1.5 7.57756 1.5ZM5.34193 2.54602C4.78921 2.59118 4.43014 2.67814 4.13803 2.82698C3.57354 3.1146 3.1146 3.57354 2.82698 4.13803C2.67814 4.43014 2.59118 4.78921 2.54603 5.34192C2.50039 5.90047 2.5 6.61165 2.5 7.59999V20.8857C2.5 21.1593 2.5005 21.3298 2.51149 21.4506L2.51384 21.4739L2.53357 21.4614C2.6354 21.3954 2.76989 21.2906 2.98516 21.1217L5.57251 19.0921C5.782 18.9276 5.94036 18.8033 6.12017 18.7129C6.2789 18.6332 6.44755 18.5749 6.62167 18.5397C6.8189 18.4998 7.02024 18.4999 7.28658 18.5L16.4 18.5C17.3883 18.5 18.0995 18.4996 18.6581 18.454C19.2108 18.4088 19.5699 18.3219 19.862 18.173C20.4265 17.8854 20.8854 17.4265 21.173 16.862C21.3219 16.5699 21.4088 16.2108 21.454 15.6581C21.4996 15.0995 21.5 14.3883 21.5 13.4V7.6C21.5 6.61166 21.4996 5.90047 21.454 5.34192C21.4088 4.78921 21.3219 4.43014 21.173 4.13803C20.8854 3.57354 20.4265 3.1146 19.862 2.82698C19.5699 2.67814 19.2108 2.59118 18.6581 2.54602C18.0995 2.50039 17.3883 2.5 16.4 2.5H7.6C6.61166 2.5 5.90047 2.50039 5.34193 2.54602Z" fill="#353566"/>
</svg>
