<svg width="24" height="24" viewBox="0 0 24 24" fill="none" xmlns="http://www.w3.org/2000/svg">
<g clip-path="url(#clip0_9001_294572)">
<path fill-rule="evenodd" clip-rule="evenodd" d="M8.96858 0.75H19.0314C19.7048 0.749992 20.2555 0.749985 20.7031 0.786552C21.1663 0.824402 21.5847 0.905138 21.9755 1.10423C22.587 1.41582 23.0842 1.913 23.3958 2.52453C23.5949 2.91527 23.6756 3.33367 23.7134 3.79693C23.75 4.24449 23.75 4.7952 23.75 5.46856V11.5314C23.75 12.2048 23.75 12.7555 23.7134 13.2031C23.6756 13.6663 23.5949 14.0847 23.3958 14.4755C23.0842 15.087 22.587 15.5842 21.9755 15.8958C21.5847 16.0949 21.1663 16.1756 20.7031 16.2134C20.2555 16.25 19.7048 16.25 19.0314 16.25H8.96853C8.29517 16.25 7.74448 16.25 7.29693 16.2134C6.83367 16.1756 6.41527 16.0949 6.02453 15.8958C5.413 15.5842 4.91582 15.087 4.60423 14.4755C4.40514 14.0847 4.3244 13.6663 4.28655 13.2031C4.24998 12.7555 4.24999 12.2048 4.25 11.5314V5.46858C4.24999 4.79521 4.24998 4.2445 4.28655 3.79693C4.3244 3.33367 4.40514 2.91527 4.60423 2.52453C4.91582 1.913 5.413 1.41582 6.02453 1.10423C6.41527 0.905138 6.83367 0.824402 7.29693 0.786552C7.74449 0.749985 8.29521 0.749992 8.96858 0.75ZM11.25 6.45378C11.25 5.45376 12.4193 4.9212 13.2289 5.47437L16.2239 7.5205C16.9254 7.99972 16.9254 9.0001 16.2239 9.47932L13.2289 11.5255C12.4192 12.0786 11.25 11.5461 11.25 10.546V6.45378Z" fill="#353566"/>
<path fill-rule="evenodd" clip-rule="evenodd" d="M0.25 10.9999C0.25 9.37497 1.44246 8.02859 3 7.78809V9.32233C2.27713 9.53747 1.75 10.2071 1.75 10.9999V12.2499H3.00194C3.00536 12.6316 3.0148 12.9876 3.04071 13.3047C3.05251 13.4492 3.06843 13.598 3.09122 13.7499H1.75V17.2499H6V17.2344C6.41304 17.3698 6.81879 17.4284 7.19515 17.4592C7.6946 17.5 8.29043 17.4999 8.93143 17.4999H19.0689C19.3026 17.4999 19.5308 17.4999 19.75 17.4979V19.9999C19.75 21.7948 18.2949 23.2499 16.5 23.2499H3.5C1.70507 23.2499 0.25 21.7948 0.25 19.9999V10.9999ZM14 18.7499H18.25V19.9999C18.25 20.9664 17.4665 21.7499 16.5 21.7499H14V18.7499ZM1.75 19.9999V18.7499H6V21.7499H3.5C2.5335 21.7499 1.75 20.9664 1.75 19.9999Z" fill="#353566"/>
</g>
<defs>
<clipPath id="clip0_9001_294572">
<rect width="24" height="24" fill="white"/>
</clipPath>
</defs>
</svg>
