<svg width="24" height="24" viewBox="0 0 24 24" fill="none" xmlns="http://www.w3.org/2000/svg">
<path d="M5 7.50024C5 6.39567 5.89543 5.50024 7 5.50024C8.10457 5.50024 9 6.39567 9 7.50024C9 8.60481 8.10457 9.50024 7 9.50024C5.89543 9.50024 5 8.60481 5 7.50024Z" fill="#353566"/>
<path fill-rule="evenodd" clip-rule="evenodd" d="M6.56739 1.25024H16.4326C17.3851 1.25024 18.1456 1.25023 18.7599 1.30042C19.3899 1.35189 19.9318 1.45988 20.4295 1.71347C21.2291 2.12093 21.8793 2.7711 22.2868 3.57079C22.5404 4.06848 22.6483 4.61036 22.6998 5.24038C22.75 5.85462 22.75 6.61514 22.75 7.56755V13.4631L22.7502 13.4808C22.7502 13.6122 22.7502 13.7396 22.75 13.8631V14.265C22.75 14.6792 22.4142 15.015 22 15.015C21.9183 15.015 21.8396 15.0019 21.7659 14.9778L21.58 14.9215C21.3403 14.849 21.1526 14.6617 21.0797 14.4221L21.0057 14.1793C20.8439 13.648 20.4174 13.2171 19.8441 13.0738C18.9848 12.8589 18.1139 13.372 17.8824 14.2221L17.7429 14.7343C17.6868 14.9401 17.5457 15.1124 17.3549 15.2079C17.1641 15.3033 16.9417 15.313 16.7433 15.2345L16.2497 15.0392C15.6686 14.8093 14.9847 14.9271 14.5126 15.3897L12.6126 17.2517C12.3048 17.5534 12.1294 17.965 12.1251 18.396C12.1237 18.5339 12.1399 18.67 12.1723 18.8016C12.1841 18.8446 12.1922 18.8891 12.1961 18.9348C12.2004 18.9834 12.1999 19.0321 12.1947 19.0802C12.1826 19.1949 12.1445 19.302 12.0865 19.3954C12.0727 19.4177 12.0576 19.4394 12.0413 19.4604C11.9822 19.5365 11.9098 19.5995 11.8288 19.6471C11.7532 19.6916 11.6691 19.7232 11.5796 19.7389C11.5368 19.7465 11.4931 19.7504 11.449 19.7504H6.56758C5.61517 19.7504 4.85459 19.7504 4.24034 19.7002C3.61033 19.6487 3.06845 19.5407 2.57075 19.2871C2.52077 19.2617 2.47116 19.2351 2.42237 19.2078C1.69053 18.7977 1.09522 18.1794 0.713223 17.4297C0.459634 16.932 0.35165 16.3901 0.300176 15.7601C0.249989 15.1459 0.249994 14.3853 0.25 13.4329V7.56763C0.249994 6.6152 0.249989 5.85464 0.300176 5.24038C0.35165 4.61036 0.459634 4.06848 0.713223 3.57079C1.12068 2.7711 1.77085 2.12093 2.57054 1.71347C3.06824 1.45988 3.61012 1.35189 4.24013 1.30042C4.85439 1.25023 5.61495 1.25024 6.56739 1.25024ZM21.25 7.60024V11.6699L17.2375 7.65734C16.5541 6.97393 15.446 6.97392 14.7626 7.65731L8.99932 13.4204L7.75668 12.1774C7.07325 11.4938 5.96501 11.4938 5.28155 12.1774L1.79722 15.6622L1.79519 15.638C1.75058 15.092 1.75 14.3927 1.75 13.4002V7.60025C1.75 6.60778 1.75058 5.90853 1.79519 5.36253C1.83909 4.82527 1.92184 4.50277 2.04973 4.25177C2.31338 3.73433 2.73408 3.31363 3.25153 3.04998C3.50252 2.92209 3.82503 2.83933 4.36228 2.79544C4.90829 2.75083 5.60753 2.75024 6.6 2.75024H16.4C17.3925 2.75024 18.0917 2.75083 18.6377 2.79544C19.175 2.83933 19.4975 2.92209 19.7485 3.04998C20.2659 3.31363 20.6866 3.73433 20.9503 4.25177C21.0782 4.50277 21.1609 4.82527 21.2048 5.36253C21.2494 5.90853 21.25 6.60778 21.25 7.60024Z" fill="#353566"/>
<path d="M16.1949 17.0391C16.4907 16.7492 16.4955 16.2743 16.2056 15.9785C15.9157 15.6826 15.4408 15.6778 15.145 15.9678L13.3117 17.7644C13.1696 17.9037 13.0886 18.0937 13.0866 18.2926C13.0847 18.4915 13.1618 18.6831 13.301 18.8251L15.1343 20.6951C15.4243 20.9909 15.8992 20.9956 16.195 20.7056C16.4907 20.4157 16.4954 19.9408 16.2055 19.645L14.8973 18.3107L16.1949 17.0391Z" fill="#353566"/>
<path d="M20.634 15.9787C20.9238 15.6828 21.3986 15.6777 21.6946 15.9675L23.5279 17.7623C23.6701 17.9015 23.7511 18.0914 23.7532 18.2904C23.7553 18.4893 23.6783 18.6809 23.5391 18.823L21.7057 20.6949C21.4159 20.9908 20.9411 20.9957 20.6451 20.7059C20.3492 20.4161 20.3443 19.9412 20.6341 19.6453L21.9425 18.3094L20.6452 17.0393C20.3493 16.7496 20.3442 16.2747 20.634 15.9787Z" fill="#353566"/>
<path d="M20.0642 14.852C20.1647 14.4502 19.9204 14.043 19.5185 13.9425C19.1167 13.842 18.7095 14.0864 18.609 14.4882L16.7757 21.8215C16.6752 22.2234 16.9195 22.6306 17.3214 22.731C17.7232 22.8315 18.1304 22.5872 18.2309 22.1853L20.0642 14.852Z" fill="#353566"/>
</svg>
