<svg width="24" height="24" viewBox="0 0 24 24" fill="none" xmlns="http://www.w3.org/2000/svg">
<path d="M18.232 2H9.76792C8.95509 1.99999 8.29946 1.99999 7.76856 2.04336C7.22192 2.08803 6.74178 2.18239 6.29756 2.40873C5.59195 2.76825 5.01828 3.34193 4.65875 4.04754C4.61435 4.13468 4.57473 4.22376 4.53943 4.31521C4.39024 4.70162 4.58256 5.13581 4.96897 5.285C5.35539 5.43418 5.78958 5.24187 5.93876 4.85545C5.95607 4.81063 5.97484 4.7686 5.99526 4.72852C6.21098 4.30516 6.55518 3.96095 6.97855 3.74524C7.17606 3.6446 7.43683 3.57547 7.89071 3.53838C8.35334 3.50058 8.94757 3.5 9.80003 3.5H18.1999C19.0523 3.5 19.6466 3.50058 20.1092 3.53838C20.5631 3.57547 20.8238 3.6446 21.0213 3.74524C21.4447 3.96095 21.7889 4.30516 22.0046 4.72852C22.1053 4.92604 22.1744 5.18681 22.2115 5.64068C22.2493 6.10331 22.2499 6.69755 22.2499 7.55V12.45C22.2499 13.3025 22.2493 13.8967 22.2115 14.3593C22.1744 14.8132 22.1053 15.074 22.0046 15.2715C21.7889 15.6948 21.4447 16.0391 21.0213 16.2548C20.9811 16.2753 20.9389 16.2941 20.8938 16.3115C20.5073 16.4605 20.3148 16.8946 20.4638 17.2811C20.6128 17.6676 21.0469 17.8601 21.4334 17.7111C21.5252 17.6757 21.6148 17.6359 21.7023 17.5913C22.4079 17.2317 22.9816 16.6581 23.3411 15.9525C23.5675 15.5082 23.6618 15.0281 23.7065 14.4815C23.7499 13.9506 23.7499 13.295 23.7499 12.4821V7.51788C23.7499 6.70505 23.7499 6.04944 23.7065 5.51853C23.6618 4.9719 23.5675 4.49175 23.3411 4.04754C22.9816 3.34193 22.4079 2.76825 21.7023 2.40873C21.2581 2.18239 20.778 2.08803 20.2313 2.04336C19.7004 1.99999 19.0448 1.99999 18.232 2Z" fill="#353566"/>
<path d="M4.25 11.5C4.25 10.5335 5.0335 9.75 6 9.75C6.9665 9.75 7.75 10.5335 7.75 11.5C7.75 12.4665 6.9665 13.25 6 13.25C5.0335 13.25 4.25 12.4665 4.25 11.5Z" fill="#353566"/>
<path fill-rule="evenodd" clip-rule="evenodd" d="M14.2319 6H5.7679C4.95506 5.99999 4.29944 5.99999 3.76853 6.04336C3.2219 6.08803 2.74175 6.18239 2.29754 6.40873C1.59193 6.76825 1.01825 7.34193 0.658726 8.04754C0.432386 8.49175 0.338026 8.9719 0.293364 9.51853C0.249987 10.0494 0.249993 10.7051 0.25 11.5179V16.4821C0.249993 17.2949 0.249987 17.9506 0.293364 18.4815C0.338026 19.0281 0.432386 19.5082 0.658726 19.9525C1.01825 20.6581 1.59193 21.2318 2.29754 21.5913C2.74175 21.8176 3.2219 21.912 3.76853 21.9566C4.29944 22 4.95505 22 5.76788 22H14.232C15.0448 22 15.7004 22 16.2313 21.9566C16.7779 21.912 17.2581 21.8176 17.7023 21.5913C18.4079 21.2318 18.9816 20.6581 19.3411 19.9525C19.5675 19.5082 19.6618 19.0281 19.7065 18.4815C19.7499 17.9506 19.7498 17.295 19.7498 16.4821V11.5179C19.7498 10.705 19.7499 10.0494 19.7065 9.51853C19.6618 8.9719 19.5675 8.49175 19.3411 8.04754C18.9816 7.34193 18.4079 6.76825 17.7023 6.40873C17.2581 6.18239 16.7779 6.08803 16.2313 6.04336C15.7004 5.99999 15.0448 5.99999 14.2319 6ZM2.97852 7.74524C3.17604 7.6446 3.43681 7.57547 3.89068 7.53838C4.35331 7.50058 4.94755 7.5 5.8 7.5H14.1998C15.0523 7.5 15.6465 7.50058 16.1092 7.53838C16.563 7.57547 16.8238 7.6446 17.0213 7.74524C17.4447 7.96095 17.7889 8.30516 18.0046 8.72852C18.1052 8.92604 18.1744 9.1868 18.2115 9.64068C18.2493 10.1033 18.2498 10.6975 18.2498 11.55V15.1517L14.8988 11.8007C14.313 11.2149 13.3633 11.2149 12.7775 11.8006L7.83758 16.7404L6.77249 15.675C6.18669 15.0891 5.23678 15.089 4.65095 15.675L1.80397 18.5224C1.79827 18.4709 1.79307 18.4167 1.78838 18.3593C1.75058 17.8967 1.75 17.3025 1.75 16.45V11.55C1.75 10.6975 1.75058 10.1033 1.78838 9.64068C1.82547 9.1868 1.8946 8.92604 1.99524 8.72852C2.21095 8.30516 2.55516 7.96095 2.97852 7.74524Z" fill="#353566"/>
</svg>
