<svg width="24" height="24" viewBox="0 0 24 24" fill="none" xmlns="http://www.w3.org/2000/svg">
<g clip-path="url(#clip0_9001_294327)">
<path d="M14.633 0.25H7.367C6.27486 0.249995 5.40935 0.24999 4.71173 0.306988C3.99834 0.365274 3.39472 0.486882 2.84355 0.76772C1.94977 1.22312 1.22312 1.94978 0.76772 2.84355C0.486882 3.39472 0.365274 3.99834 0.306988 4.71173C0.24999 5.40935 0.249995 6.27485 0.25 7.36699V14.633C0.249995 15.7251 0.24999 16.5906 0.306988 17.2883C0.365274 18.0017 0.486882 18.6053 0.76772 19.1565C1.22312 20.0502 1.94977 20.7769 2.84355 21.2323C3.39472 21.5131 3.99834 21.6347 4.71173 21.693C5.40935 21.75 6.27484 21.75 7.36698 21.75H13.8373C14.2515 21.75 14.5873 21.4142 14.5873 21C14.5873 20.8222 14.5254 20.6589 14.4221 20.5304C14.3923 20.4933 14.3588 20.4588 14.3218 20.4275C14.2981 20.4074 14.2732 20.3888 14.2471 20.3718C13.2205 19.6762 12.8784 18.1844 13.7491 17.0958L13.957 16.836C14.1957 16.5376 14.1718 16.1074 13.9016 15.8372L8.44823 10.3838C7.37428 9.30988 5.63308 9.30988 4.55914 10.3838L1.75 13.193V7.4C1.75 6.26752 1.75058 5.46326 1.80201 4.83388C1.85271 4.21325 1.94909 3.829 2.10423 3.52453C2.41582 2.913 2.913 2.41582 3.52453 2.10423C3.829 1.94909 4.21325 1.85271 4.83388 1.80201C5.46327 1.75058 6.26752 1.75 7.4 1.75H14.6C15.7325 1.75 16.5367 1.75058 17.1661 1.80201C17.7867 1.85271 18.171 1.94909 18.4755 2.10423C19.087 2.41582 19.5842 2.913 19.8958 3.52453C20.0509 3.829 20.1473 4.21325 20.198 4.83388C20.2494 5.46326 20.25 6.26752 20.25 7.4V10.907C20.25 11.3212 20.5858 11.657 21 11.657C21.4142 11.657 21.75 11.3212 21.75 10.907V7.36698C21.75 6.27484 21.75 5.40935 21.693 4.71173C21.6347 3.99834 21.5131 3.39472 21.2323 2.84355C20.7769 1.94978 20.0502 1.22312 19.1565 0.76772C18.6053 0.486882 18.0017 0.365274 17.2883 0.306988C16.5906 0.24999 15.7251 0.249995 14.633 0.25Z" fill="#353566"/>
<path d="M16.75 7.5C16.75 6.25736 15.7426 5.25 14.5 5.25C13.2574 5.25 12.25 6.25736 12.25 7.5C12.25 8.74264 13.2574 9.75 14.5 9.75C15.7426 9.75 16.75 8.74264 16.75 7.5Z" fill="#353566"/>
<path d="M18.72 12.8762C19.3101 12.1386 20.5009 12.555 20.5009 13.5007V16.5001H22.5009C23.3388 16.5001 23.8058 17.4693 23.2818 18.1243L19.2818 23.1237C18.6917 23.8613 17.5009 23.4449 17.5009 22.4992V19.4998H15.5009C14.663 19.4998 14.196 18.5306 14.72 17.8756L18.72 12.8762Z" fill="#353566"/>
</g>
<defs>
<clipPath id="clip0_9001_294327">
<rect width="24" height="24" fill="white"/>
</clipPath>
</defs>
</svg>
