<svg width="24" height="24" viewBox="0 0 24 24" fill="none" xmlns="http://www.w3.org/2000/svg">
<g clip-path="url(#clip0_9001_293982)">
<path fill-rule="evenodd" clip-rule="evenodd" d="M0.25 12C0.25 5.51065 5.51065 0.25 12 0.25C18.4893 0.25 23.75 5.51065 23.75 12C23.75 18.4893 18.4893 23.75 12 23.75C5.51065 23.75 0.25 18.4893 0.25 12ZM8 8.2C8 7.77996 8 7.56994 8.08175 7.40951C8.15365 7.26839 8.26839 7.15365 8.40951 7.08175C8.56994 7 8.77996 7 9.2 7H9.8C10.22 7 10.4301 7 10.5905 7.08175C10.7316 7.15365 10.8463 7.26839 10.9183 7.40951C11 7.56994 11 7.77996 11 8.2V15.8C11 16.22 11 16.4301 10.9183 16.5905C10.8463 16.7316 10.7316 16.8463 10.5905 16.9183C10.4301 17 10.22 17 9.8 17H9.2C8.77996 17 8.56994 17 8.40951 16.9183C8.26839 16.8463 8.15365 16.7316 8.08175 16.5905C8 16.4301 8 16.22 8 15.8V8.2ZM13 8.2C13 7.77996 13 7.56994 13.0817 7.40951C13.1537 7.26839 13.2684 7.15365 13.4095 7.08175C13.5699 7 13.78 7 14.2 7H14.8C15.22 7 15.4301 7 15.5905 7.08175C15.7316 7.15365 15.8463 7.26839 15.9183 7.40951C16 7.56994 16 7.77996 16 8.2V15.8C16 16.22 16 16.4301 15.9183 16.5905C15.8463 16.7316 15.7316 16.8463 15.5905 16.9183C15.4301 17 15.22 17 14.8 17H14.2C13.78 17 13.5699 17 13.4095 16.9183C13.2684 16.8463 13.1537 16.7316 13.0817 16.5905C13 16.4301 13 16.22 13 15.8V8.2Z" fill="#353566"/>
</g>
<defs>
<clipPath id="clip0_9001_293982">
<rect width="24" height="24" fill="white"/>
</clipPath>
</defs>
</svg>
