<svg width="24" height="24" viewBox="0 0 24 24" fill="none" xmlns="http://www.w3.org/2000/svg">
<path d="M14.2071 0.792893C14.5976 1.18342 14.5976 1.81658 14.2071 2.20711L13.3269 3.08727C18.2225 3.73633 22 7.92702 22 13C22 18.5228 17.5228 23 12 23C6.47715 23 2 18.5228 2 13C2 9.53192 3.76629 6.47677 6.44374 4.68454C6.90269 4.37733 7.5238 4.50034 7.83101 4.95929C8.13822 5.41824 8.01521 6.03934 7.55626 6.34656C5.40977 7.78337 4 10.2273 4 13C4 17.4183 7.58172 21 12 21C16.4183 21 20 17.4183 20 13C20 9.11829 17.2354 5.88228 13.5678 5.15356L14.2071 5.79289C14.5976 6.18342 14.5976 6.81658 14.2071 7.20711C13.8166 7.59763 13.1834 7.59763 12.7929 7.20711L10.2929 4.70711C10.1054 4.51957 10 4.26522 10 4C10 3.73478 10.1054 3.48043 10.2929 3.29289L12.7929 0.792893C13.1834 0.402369 13.8166 0.402369 14.2071 0.792893Z" fill="#353566"/>
<path d="M10.3354 9.32918C10.5895 9.45623 10.75 9.71593 10.75 10V16C10.75 16.4142 10.4142 16.75 9.99998 16.75C9.58577 16.75 9.24998 16.4142 9.24998 16V11.5L8.44998 12.1C8.11861 12.3485 7.64851 12.2814 7.39998 11.95C7.15145 11.6186 7.21861 11.1485 7.54998 10.9L9.54998 9.4C9.77725 9.22956 10.0813 9.20214 10.3354 9.32918Z" fill="#353566"/>
<path fill-rule="evenodd" clip-rule="evenodd" d="M11.75 11.75C11.75 10.3693 12.8693 9.25 14.25 9.25C15.6307 9.25 16.75 10.3693 16.75 11.75V14.25C16.75 15.6307 15.6307 16.75 14.25 16.75C12.8693 16.75 11.75 15.6307 11.75 14.25V11.75ZM14.25 10.75C13.6977 10.75 13.25 11.1977 13.25 11.75V14.25C13.25 14.8023 13.6977 15.25 14.25 15.25C14.8023 15.25 15.25 14.8023 15.25 14.25V11.75C15.25 11.1977 14.8023 10.75 14.25 10.75Z" fill="#353566"/>
</svg>
