<svg width="24" height="24" viewBox="0 0 24 24" fill="none" xmlns="http://www.w3.org/2000/svg">
<g clip-path="url(#clip0_9001_274427)">
<path opacity="0.4" d="M1 7.4V11.7658C1 13.8497 1 14.8917 1.37876 15.699C1.77545 16.5445 2.45549 17.2246 3.301 17.6212C4.10828 18 5.15026 18 7.23421 18C7.67611 18 7.89707 18 8.09831 18.0573C8.30986 18.1174 8.50559 18.2234 8.67162 18.3677C8.82957 18.5049 8.95034 18.6899 9.19188 19.06L9.66017 19.7774C10.107 20.4619 10.3303 20.8041 10.6133 20.9227C10.8607 21.0264 11.1393 21.0264 11.3867 20.9227C11.5719 20.8451 11.7316 20.6716 11.9452 20.369C11.6578 19.6349 11.5 18.8359 11.5 18C11.5 14.4101 14.4101 11.5 18 11.5C19.0821 11.5 20.1024 11.7644 20.9998 12.2321C21 12.0827 21 11.9274 21 11.7658V7.4C21 5.15979 21 4.03969 20.564 3.18404C20.1805 2.43139 19.5686 1.81947 18.816 1.43597C17.9603 1 16.8402 1 14.6 1H7.4C5.15979 1 4.03969 1 3.18404 1.43597C2.43139 1.81947 1.81947 2.43139 1.43597 3.18404C1 4.03969 1 5.15979 1 7.4Z" fill="#353566"/>
<path d="M7.37737 0.5C6.27642 0.499998 5.41948 0.499996 4.73209 0.556157C4.03416 0.613181 3.4671 0.730584 2.95704 0.990471C2.11031 1.4219 1.4219 2.11031 0.990471 2.95704C0.730584 3.4671 0.613181 4.03416 0.556157 4.73209C0.499996 5.41948 0.499998 6.27641 0.5 7.37736V11.7868C0.499998 12.811 0.499996 13.6082 0.548787 14.2491C0.598312 14.8996 0.700224 15.4299 0.926101 15.9114C1.37238 16.8626 2.13743 17.6276 3.08863 18.0739C3.57006 18.2998 4.10037 18.4017 4.7509 18.4512C5.39176 18.5 6.1889 18.5 7.21298 18.5H7.23421C7.70536 18.5 7.84317 18.5045 7.96148 18.5382C8.10252 18.5783 8.233 18.6489 8.3437 18.7451C8.43655 18.8258 8.51566 18.9387 8.77319 19.3333L9.25433 20.0704C9.46674 20.3958 9.64472 20.6685 9.80601 20.8724C9.97092 21.0809 10.1616 21.2755 10.42 21.3839C10.791 21.5394 11.209 21.5394 11.58 21.3839C11.8299 21.2791 12.0165 21.0936 12.1777 20.8929C12.0005 20.537 11.855 20.1625 11.7448 19.7732C11.6081 19.9805 11.5028 20.1343 11.4097 20.2521C11.2804 20.4155 11.2179 20.4513 11.1933 20.4616C11.0697 20.5135 10.9303 20.5135 10.8067 20.4616C10.7821 20.4513 10.7196 20.4155 10.5903 20.2521C10.4607 20.0882 10.3075 19.8544 10.0789 19.5041L9.57665 18.7346C9.36834 18.4151 9.21124 18.1741 8.99955 17.9902C8.77817 17.7979 8.5172 17.6566 8.23513 17.5763C7.9654 17.4996 7.67773 17.4998 7.2963 17.5L7.23421 17.5C6.18457 17.5 5.42532 17.4997 4.82681 17.4541C4.23354 17.4089 3.83922 17.3215 3.51338 17.1686C2.77356 16.8215 2.17852 16.2264 1.83141 15.4866C1.67853 15.1608 1.59107 14.7665 1.5459 14.1732C1.50034 13.5747 1.5 12.8154 1.5 11.7658V7.4C1.5 6.27164 1.50039 5.45545 1.55284 4.81352C1.60481 4.17744 1.70539 3.75662 1.88148 3.41103C2.21703 2.75247 2.75247 2.21703 3.41103 1.88148C3.75662 1.70539 4.17744 1.60481 4.81352 1.55284C5.45545 1.50039 6.27164 1.5 7.4 1.5H14.6C15.7284 1.5 16.5446 1.50039 17.1865 1.55284C17.8226 1.60481 18.2434 1.70539 18.589 1.88148C19.2475 2.21703 19.783 2.75247 20.1185 3.41103C20.2946 3.75662 20.3952 4.17744 20.4472 4.81352C20.4996 5.45545 20.5 6.27164 20.5 7.4L20.5 11.9982C20.8496 12.1439 21.1837 12.3194 21.4992 12.5213C21.5 12.2902 21.5 12.0458 21.5 11.7869V7.37736C21.5 6.27648 21.5 5.41944 21.4438 4.73209C21.3868 4.03416 21.2694 3.4671 21.0095 2.95704C20.5781 2.11031 19.8897 1.4219 19.043 0.990471C18.5329 0.730584 17.9658 0.613181 17.2679 0.556157C16.5805 0.499996 15.7236 0.499998 14.6226 0.5H7.37737Z" fill="#353566"/>
<path d="M10.25 9.5C10.25 9.08579 10.5858 8.75 11 8.75C11.4142 8.75 11.7501 9.08579 11.7501 9.5C11.7501 9.91421 11.4143 10.25 11.0001 10.25C10.5859 10.25 10.25 9.91421 10.25 9.5Z" fill="#353566"/>
<path d="M7 8.75C6.58579 8.75 6.25 9.08579 6.25 9.5C6.25 9.91421 6.58579 10.25 7 10.25C7.41421 10.25 7.7501 9.91421 7.7501 9.5C7.7501 9.08579 7.41421 8.75 7 8.75Z" fill="#353566"/>
<path d="M14.25 9.5C14.25 9.08579 14.5858 8.75 15 8.75C15.4142 8.75 15.7501 9.08579 15.7501 9.5C15.7501 9.91421 15.4143 10.25 15.0001 10.25C14.5859 10.25 14.25 9.91421 14.25 9.5Z" fill="#353566"/>
<path d="M20.5 18C20.5 18.2761 20.2761 18.5 20 18.5H18.5V20C18.5 20.2761 18.2761 20.5 18 20.5C17.7239 20.5 17.5 20.2761 17.5 20V18.5H16C15.7239 18.5 15.5 18.2761 15.5 18C15.5 17.7239 15.7239 17.5 16 17.5H17.5V16C17.5 15.7239 17.7239 15.5 18 15.5C18.2761 15.5 18.5 15.7239 18.5 16V17.5H20C20.2761 17.5 20.5 17.7239 20.5 18Z" fill="#353566"/>
<path fill-rule="evenodd" clip-rule="evenodd" d="M18 12.5C14.9624 12.5 12.5 14.9624 12.5 18C12.5 21.0376 14.9624 23.5 18 23.5C21.0376 23.5 23.5 21.0376 23.5 18C23.5 14.9624 21.0376 12.5 18 12.5ZM13.5 18C13.5 15.5147 15.5147 13.5 18 13.5C20.4853 13.5 22.5 15.5147 22.5 18C22.5 20.4853 20.4853 22.5 18 22.5C15.5147 22.5 13.5 20.4853 13.5 18Z" fill="#353566"/>
</g>
<defs>
<clipPath id="clip0_9001_274427">
<rect width="24" height="24" fill="white"/>
</clipPath>
</defs>
</svg>
