<svg width="24" height="24" viewBox="0 0 24 24" fill="none" xmlns="http://www.w3.org/2000/svg">
<g clip-path="url(#clip0_9001_274482)">
<path opacity="0.4" d="M1 7.4V11.7658C1 13.8497 1 14.8917 1.37876 15.699C1.77545 16.5445 2.45549 17.2246 3.301 17.6212C4.10828 18 5.15026 18 7.23421 18C7.67611 18 7.89707 18 8.09831 18.0573C8.30986 18.1174 8.50559 18.2234 8.67162 18.3677C8.82957 18.5049 8.95034 18.6899 9.19188 19.06L9.66017 19.7774C10.107 20.4619 10.3303 20.8041 10.6133 20.9227C10.8607 21.0264 11.1393 21.0264 11.3867 20.9227C11.6074 20.8302 11.7918 20.6017 12.0742 20.1809C11.873 19.4442 12.1118 18.7259 12.4218 17.9999C12.0379 17.1009 11.7632 16.2137 12.2982 15.2886L12.92 14.2133C13.4548 13.2883 14.3623 13.0809 15.335 12.962C15.9238 12.1807 16.5564 11.5 17.6282 11.5H18.8718C19.8432 11.5 20.4539 12.0592 20.9981 12.7456C21 12.4467 21 12.1214 21 11.7658V7.4C21 5.15979 21 4.03969 20.564 3.18404C20.1805 2.43139 19.5686 1.81947 18.816 1.43597C17.9603 1 16.8402 1 14.6 1H7.4C5.15979 1 4.03969 1 3.18404 1.43597C2.43139 1.81947 1.81947 2.43139 1.43597 3.18404C1 4.03969 1 5.15979 1 7.4Z" fill="#353566"/>
<path d="M7.37737 0.5H14.6226C15.7236 0.499998 16.5805 0.499996 17.2679 0.556157C17.9658 0.613181 18.5329 0.730584 19.043 0.990471C19.8897 1.4219 20.5781 2.11031 21.0095 2.95704C21.2694 3.4671 21.3868 4.03416 21.4438 4.73209C21.5 5.41945 21.5 6.27633 21.5 7.37721V11.7868C21.5 12.2349 21.5 12.6402 21.4959 13.0073C21.3868 12.9904 21.2763 12.9756 21.165 12.962C20.9549 12.6831 20.7391 12.4171 20.4999 12.1903L20.5 7.4C20.5 6.27164 20.4996 5.45545 20.4472 4.81352C20.3952 4.17744 20.2946 3.75662 20.1185 3.41103C19.783 2.75247 19.2475 2.21703 18.589 1.88148C18.2434 1.70539 17.8226 1.60481 17.1865 1.55284C16.5446 1.50039 15.7284 1.5 14.6 1.5H7.4C6.27164 1.5 5.45545 1.50039 4.81352 1.55284C4.17744 1.60481 3.75662 1.70539 3.41103 1.88148C2.75247 2.21703 2.21703 2.75247 1.88148 3.41103C1.70539 3.75662 1.60481 4.17744 1.55284 4.81352C1.50039 5.45545 1.5 6.27164 1.5 7.4V11.7658C1.5 12.8154 1.50034 13.5747 1.5459 14.1732C1.59107 14.7665 1.67853 15.1608 1.83141 15.4866C2.17852 16.2264 2.77356 16.8215 3.51338 17.1686C3.83922 17.3215 4.23354 17.4089 4.82681 17.4541C5.42532 17.4997 6.18457 17.5 7.23421 17.5L7.2963 17.5C7.67773 17.4998 7.9654 17.4996 8.23513 17.5763C8.5172 17.6566 8.77817 17.7979 8.99955 17.9902C9.21124 18.1741 9.36834 18.4151 9.57665 18.7346L10.0789 19.5041C10.3075 19.8544 10.4607 20.0882 10.5903 20.2521C10.7196 20.4155 10.7821 20.4513 10.8067 20.4616C10.9303 20.5135 11.0697 20.5135 11.1933 20.4616C11.2179 20.4513 11.2804 20.4155 11.4097 20.2521C11.5393 20.0882 11.6925 19.8544 11.9211 19.5041L12.0136 19.3624C11.9672 19.8068 12.034 20.2544 12.2982 20.7113L12.3057 20.7244C12.2675 20.7771 12.2303 20.8265 12.194 20.8724C12.0291 21.0809 11.8384 21.2755 11.58 21.3839C11.209 21.5394 10.791 21.5394 10.42 21.3839C10.1616 21.2755 9.97092 21.0809 9.80601 20.8724C9.64472 20.6685 9.46678 20.3959 9.25437 20.0704L8.77319 19.3333C8.51566 18.9387 8.43655 18.8258 8.3437 18.7451C8.233 18.6489 8.10252 18.5783 7.96148 18.5382C7.84317 18.5045 7.70536 18.5 7.23421 18.5H7.21317C6.18907 18.5 5.39176 18.5 4.7509 18.4512C4.10037 18.4017 3.57006 18.2998 3.08863 18.0739C2.13743 17.6276 1.37238 16.8626 0.926101 15.9114C0.700224 15.4299 0.598312 14.8996 0.548787 14.2491C0.499996 13.6082 0.499998 12.811 0.5 11.7868V7.37737C0.499998 6.27642 0.499996 5.41948 0.556157 4.73209C0.613181 4.03416 0.730584 3.4671 0.990471 2.95704C1.4219 2.11031 2.11031 1.4219 2.95704 0.990471C3.4671 0.730584 4.03416 0.613181 4.73209 0.556157C5.41948 0.499996 6.27642 0.499998 7.37737 0.5Z" fill="#353566"/>
<path d="M11 8.75C10.5858 8.75 10.25 9.08579 10.25 9.5C10.25 9.91421 10.5858 10.25 11 10.25C11.4142 10.25 11.7501 9.91421 11.7501 9.5C11.7501 9.08579 11.4142 8.75 11 8.75Z" fill="#353566"/>
<path d="M6.25 9.5C6.25 9.08579 6.58579 8.75 7 8.75C7.41421 8.75 7.7501 9.08579 7.7501 9.5C7.7501 9.91421 7.41431 10.25 7.0001 10.25C6.58589 10.25 6.25 9.91421 6.25 9.5Z" fill="#353566"/>
<path d="M15 8.75C14.5858 8.75 14.25 9.08579 14.25 9.5C14.25 9.91421 14.5858 10.25 15 10.25C15.4142 10.25 15.7501 9.91421 15.7501 9.5C15.7501 9.08579 15.4142 8.75 15 8.75Z" fill="#353566"/>
<path fill-rule="evenodd" clip-rule="evenodd" d="M18.25 16.25C17.2835 16.25 16.5 17.0335 16.5 18C16.5 18.9665 17.2835 19.75 18.25 19.75C19.2165 19.75 20 18.9665 20 18C20 17.0335 19.2165 16.25 18.25 16.25ZM17.5 18C17.5 17.5858 17.8358 17.25 18.25 17.25C18.6642 17.25 19 17.5858 19 18C19 18.4142 18.6642 18.75 18.25 18.75C17.8358 18.75 17.5 18.4142 17.5 18Z" fill="#353566"/>
<path fill-rule="evenodd" clip-rule="evenodd" d="M13.1845 20.212C12.8047 19.5529 13.0297 18.7096 13.6886 18.3285C13.9408 18.1827 13.9408 17.8172 13.6886 17.6714C13.0297 17.2903 12.8047 16.447 13.1845 15.7879L13.8042 14.7126C14.1844 14.0529 15.0272 13.8263 15.6866 14.2076C15.937 14.3525 16.2527 14.1723 16.2527 13.8791C16.2527 13.1183 16.8686 12.5 17.6302 12.5H18.8697C19.6314 12.5 20.2473 13.1183 20.2473 13.8792C20.2473 14.1724 20.563 14.3525 20.8134 14.2077C21.4728 13.8263 22.3156 14.053 22.6958 14.7126L23.3155 15.788C23.6954 16.4471 23.4703 17.2903 22.8114 17.6714C22.5592 17.8172 22.5592 18.1826 22.8114 18.3285C23.4703 18.7096 23.6954 19.5528 23.3155 20.2119L22.6958 21.2872C22.3156 21.9469 21.4728 22.1736 20.8134 21.7922C20.563 21.6474 20.2473 21.8275 20.2473 22.1208C20.2473 22.8816 19.6314 23.5 18.8697 23.5H17.6303C16.8686 23.5 16.2527 22.8817 16.2527 22.1208C16.2527 21.8275 15.937 21.6474 15.6866 21.7922C15.0272 22.1736 14.1844 21.9469 13.8042 21.2873L13.1845 20.212ZM14.1893 19.1942C14.0087 19.2986 13.9461 19.5308 14.0509 19.7127L14.6707 20.788C14.7752 20.9693 15.0059 21.0308 15.1859 20.9266C16.1057 20.3946 17.2527 21.0605 17.2527 22.1208C17.2527 22.3311 17.4226 22.5 17.6303 22.5H18.8697C19.0774 22.5 19.2473 22.3311 19.2473 22.1208C19.2473 21.0605 20.3943 20.3946 21.3141 20.9265C21.4941 21.0307 21.7248 20.9693 21.8293 20.7879L22.4491 19.7126C22.5539 19.5307 22.4913 19.2986 22.3107 19.1941C21.3928 18.6632 21.3928 17.3367 22.3107 16.8058C22.4913 16.7013 22.5539 16.4692 22.4491 16.2873L21.8293 15.212C21.7248 15.0306 21.4941 14.9692 21.3141 15.0733C20.3943 15.6053 19.2473 14.9395 19.2473 13.8792C19.2473 13.6689 19.0774 13.5 18.8697 13.5H17.6302C17.4226 13.5 17.2527 13.6689 17.2527 13.8791C17.2527 14.9395 16.1056 15.6052 15.186 15.0733C15.0059 14.9691 14.7752 15.0306 14.6707 15.2119L14.0509 16.2872C13.9461 16.4691 14.0087 16.7013 14.1893 16.8057C15.1073 17.3367 15.1073 18.6632 14.1893 19.1942Z" fill="#353566"/>
</g>
<defs>
<clipPath id="clip0_9001_274482">
<rect width="24" height="24" fill="white"/>
</clipPath>
</defs>
</svg>
