<svg width="24" height="24" viewBox="0 0 24 24" fill="none" xmlns="http://www.w3.org/2000/svg">
<path d="M7.5 1.25C5.15279 1.25 3.25 3.15279 3.25 5.5V9.58152C3.25 9.83093 3.37399 10.064 3.58081 10.2034C3.78763 10.3428 4.05022 10.3703 4.28141 10.2767C5.11995 9.93729 6.03718 9.75 7 9.75C11.0028 9.75 14.248 12.9939 14.25 16.9962L14.25 16.9999C14.25 17.0201 14.2508 17.0402 14.2524 17.06C14.2829 17.4462 14.606 17.75 15 17.75H19.2499V21.2499H13.2454C12.8311 21.2499 12.4954 21.5857 12.4954 21.9999C12.4954 22.4141 12.8311 22.7499 13.2454 22.7499H21.9999C22.4142 22.7499 22.7499 22.4141 22.7499 21.9999C22.7499 21.5857 22.4142 21.2499 21.9999 21.2499H20.7499V17.7363C21.875 17.6119 22.75 16.6582 22.75 15.5V3.5C22.75 2.25736 21.7426 1.25 20.5 1.25H7.5Z" fill="#353566"/>
<path fill-rule="evenodd" clip-rule="evenodd" d="M7 11.25C3.82436 11.25 1.25 13.8244 1.25 17C1.25 20.1756 3.82436 22.75 7 22.75C10.1756 22.75 12.75 20.1756 12.75 17C12.75 13.8244 10.1756 11.25 7 11.25ZM9.44194 14.5581C9.68602 14.8021 9.68602 15.1979 9.44194 15.4419L5.44194 19.4419C5.19786 19.686 4.80214 19.686 4.55806 19.4419C4.31398 19.1979 4.31398 18.8021 4.55806 18.5581L8.55806 14.5581C8.80214 14.314 9.19786 14.314 9.44194 14.5581ZM4.75 15.5C4.75 15.0858 5.08579 14.75 5.5 14.75C5.91421 14.75 6.2501 15.0858 6.2501 15.5C6.2501 15.9142 5.91431 16.25 5.5001 16.25C5.08589 16.25 4.75 15.9142 4.75 15.5ZM8.5 17.75C8.08579 17.75 7.75 18.0858 7.75 18.5C7.75 18.9142 8.08579 19.25 8.5 19.25C8.91421 19.25 9.2501 18.9142 9.2501 18.5C9.2501 18.0858 8.91421 17.75 8.5 17.75Z" fill="#353566"/>
</svg>
