<svg width="24" height="24" viewBox="0 0 24 24" fill="none" xmlns="http://www.w3.org/2000/svg">
<path d="M7.5 1.25C5.15279 1.25 3.25 3.15279 3.25 5.5V10.9753C3.25 11.281 3.43554 11.5561 3.71896 11.6706C4.00239 11.7852 4.32698 11.7162 4.53938 11.4964C5.00142 11.0182 5.49774 10.75 6.12827 10.75H7.37171C8.1642 10.75 8.76253 11.1786 9.33832 11.9429C9.46083 12.1055 9.64419 12.2114 9.84629 12.2361C10.7989 12.3526 11.4697 12.6566 11.8643 13.339L12.486 14.4144C12.8783 15.0928 12.8087 15.8187 12.4382 16.6922C12.4057 16.7642 12.3843 16.8423 12.3761 16.9242C12.3707 16.9779 12.371 17.032 12.3772 17.0856C12.3895 17.1936 12.4247 17.2946 12.4778 17.3836C12.5441 17.4951 12.6374 17.586 12.7471 17.6494C12.8589 17.714 12.9877 17.75 13.1223 17.75H19.25V21.2499H11.571C11.1568 21.2499 10.821 21.5857 10.821 21.9999C10.821 22.4141 11.1568 22.7499 11.571 22.7499H22C22.4142 22.7499 22.75 22.4141 22.75 21.9999C22.75 21.5857 22.4142 21.2499 22 21.2499H20.75V17.7363C21.875 17.6119 22.75 16.6581 22.75 15.5V3.5C22.75 2.25736 21.7426 1.25 20.5 1.25H7.5Z" fill="#353566"/>
<path fill-rule="evenodd" clip-rule="evenodd" d="M2.31382 17.5449C1.77449 17.8569 1.59005 18.5473 1.90116 19.0872L2.52088 20.1625C2.83213 20.7025 3.52189 20.8879 4.06147 20.5758C4.4792 20.3342 5.0027 20.6358 5.0027 21.1208C5.0027 21.744 5.50713 22.25 6.13031 22.25H7.36973C7.99293 22.25 8.49736 21.744 8.49736 21.1208C8.49736 20.6357 9.02087 20.3342 9.43859 20.5758C9.97817 20.8879 10.6679 20.7025 10.9792 20.1624L11.5989 19.0871C11.91 18.5473 11.7256 17.8568 11.1863 17.5449C10.7677 17.3028 10.7677 16.6971 11.1863 16.455C11.7256 16.1431 11.91 15.4526 11.5989 14.9128L10.9792 13.8375C10.6679 13.2974 9.97816 13.112 9.43858 13.4241C9.02085 13.6657 8.49736 13.3642 8.49736 12.8792C8.49736 12.256 7.99294 11.75 7.36977 11.75H6.13027C5.50711 11.75 5.0027 12.2559 5.0027 12.8791C5.0027 13.3641 4.47921 13.6657 4.06149 13.4241C3.52191 13.112 2.83214 13.2973 2.52088 13.8374L1.90116 14.9127C1.59005 15.4525 1.77449 16.143 2.31382 16.455C2.73246 16.6971 2.73246 17.3028 2.31382 17.5449ZM8.25 17C8.25 17.8284 7.57843 18.5 6.75 18.5C5.92157 18.5 5.25 17.8284 5.25 17C5.25 16.1716 5.92157 15.5 6.75 15.5C7.57843 15.5 8.25 16.1716 8.25 17Z" fill="#353566"/>
</svg>
