<svg width="24" height="24" viewBox="0 0 24 24" fill="none" xmlns="http://www.w3.org/2000/svg">
<path d="M15.25 3.25C15.25 1.73122 16.4812 0.5 18 0.5C19.5188 0.5 20.75 1.73122 20.75 3.25C20.75 4.76878 19.5188 6 18 6C16.4812 6 15.25 4.76878 15.25 3.25Z" fill="#353566"/>
<path d="M11.806 2.25L7.16763 2.25C6.28458 2.24999 5.57634 2.24999 5.00372 2.29674C4.41538 2.34477 3.90445 2.44587 3.4336 2.6857C3.41533 2.695 3.39745 2.70506 3.38 2.71583C2.41706 3.31033 1.82247 3.92451 1.52439 4.79668C1.26226 5.56364 1.25831 6.47751 1.25369 7.54641L1.25323 7.65181C1.25243 7.82537 1.25158 8.00534 1.25 8.1937V22.281C1.25 23.0922 1.90779 23.75 2.719 23.75C3.08852 23.75 3.44443 23.611 3.71622 23.3596L8.92369 18.5531C8.93309 18.5444 8.94227 18.5355 8.95121 18.5264C9.14184 18.3315 9.27972 18.2198 9.38011 18.1588C9.42762 18.13 9.45923 18.1171 9.47695 18.1115C9.48565 18.1087 9.49127 18.1076 9.49424 18.1071L9.49768 18.1067L9.49934 18.1066C9.49935 18.1066 9.5056 18.1063 9.52203 18.1116C9.53994 18.1173 9.57174 18.1302 9.61944 18.1592C9.72023 18.2204 9.85843 18.3322 10.0494 18.527C10.0582 18.5359 10.0671 18.5446 10.0763 18.5531L15.2839 23.3597C15.5557 23.611 15.9115 23.75 16.281 23.75C17.0922 23.75 17.75 23.0922 17.75 22.281V13.5C17.75 13.0858 17.4142 12.75 17 12.75H14C13.459 12.75 12.9484 12.4998 12.6169 12.0722C12.2855 11.6446 12.1704 11.0877 12.3053 10.5638C12.679 9.11162 13.6295 8.01876 14.9201 7.09022C15.083 6.97299 15.1921 6.79536 15.2231 6.59705C15.254 6.39875 15.2042 6.19631 15.0847 6.03503L14.783 5.62765C14.2907 4.96307 14 4.14232 14 3.25C14 3.18257 14.0017 3.1156 14.005 3.04912C14.0149 2.84701 13.9428 2.64945 13.805 2.5013C13.6671 2.35315 13.4753 2.26698 13.273 2.26237C12.9861 2.25583 12.6757 2.25448 12.3449 2.25305L12.3403 2.25303C12.1691 2.25229 11.9916 2.25149 11.806 2.25Z" fill="#353566"/>
<path d="M18 7.5C15.921 7.5 14.0199 8.91683 13.5158 10.8754C13.4773 11.0251 13.5101 11.1842 13.6048 11.3063C13.6995 11.4285 13.8454 11.5 14 11.5H22C22.1546 11.5 22.3005 11.4285 22.3952 11.3063C22.4899 11.1842 22.5228 11.0251 22.4842 10.8754C21.9801 8.91683 20.0789 7.5 18 7.5Z" fill="#353566"/>
</svg>
