<svg width="24" height="24" viewBox="0 0 24 24" fill="none" xmlns="http://www.w3.org/2000/svg">
<path d="M7.5 1.25C5.15279 1.25 3.25 3.15279 3.25 5.5V11.9068C3.25 12.2439 3.4748 12.5395 3.79956 12.6296C4.12431 12.7196 4.46927 12.582 4.64286 12.2931C4.99112 11.7136 5.54896 11.2676 6.23058 11.0688L8.7109 10.3454C10.2309 9.90203 11.751 11.0421 11.751 12.6255V14.0198C11.751 15.0178 11.1592 15.9086 10.2657 16.3048C10.197 16.3327 10.1334 16.3706 10.0766 16.4165C10.04 16.4461 10.0065 16.4788 9.9765 16.5142C9.84153 16.6731 9.77558 16.8851 9.80464 17.1C9.81471 17.1755 9.83599 17.2474 9.86675 17.314C9.98703 17.5751 10.2504 17.75 10.548 17.75H19.25V21.2499H8.17813C7.76392 21.2499 7.42813 21.5857 7.42813 21.9999C7.42813 22.4141 7.76392 22.7499 8.17813 22.7499H22C22.4142 22.7499 22.75 22.4141 22.75 21.9999C22.75 21.5857 22.4142 21.2499 22 21.2499H20.75V17.7363C21.875 17.6119 22.75 16.6581 22.75 15.5V3.5C22.75 2.25736 21.7426 1.25 20.5 1.25H7.5Z" fill="#353566"/>
<path d="M9.60093 15.22L6.50049 16.1243V20.4909L6.50051 20.4999C6.50051 21.0643 6.21143 21.5881 5.71465 21.9607C5.22322 22.3293 4.60099 22.5001 4.00026 22.5001C3.39952 22.5001 2.77729 22.3293 2.28586 21.9607C1.78909 21.5881 1.5 21.0643 1.5 20.4999C1.5 19.9355 1.78909 19.4117 2.28586 19.0391C2.77729 18.6705 3.39952 18.4997 4.00026 18.4997C4.5167 18.4997 5.04903 18.6259 5.50049 18.8956V13.709C5.50049 13.0423 5.94053 12.4556 6.58058 12.2689L9.0609 11.5455C9.78095 11.3355 10.501 11.8755 10.501 12.6255V14.0199C10.501 14.5755 10.1343 15.0644 9.60093 15.22Z" fill="#353566"/>
</svg>
