<svg width="24" height="24" viewBox="0 0 24 24" fill="none" xmlns="http://www.w3.org/2000/svg">
<path d="M7.5 1.25C5.15279 1.25 3.25 3.15279 3.25 5.5V9.58152C3.25 9.83093 3.37399 10.064 3.58081 10.2034C3.78763 10.3428 4.05022 10.3703 4.28141 10.2767C5.11995 9.93729 6.03718 9.75 7 9.75C11.0041 9.75 14.25 12.9959 14.25 17C14.25 17.4142 14.5858 17.75 15 17.75H19.25V21.2499H13.2454C12.8312 21.2499 12.4954 21.5857 12.4954 21.9999C12.4954 22.4141 12.8312 22.7499 13.2454 22.7499H22C22.4142 22.7499 22.75 22.4141 22.75 21.9999C22.75 21.5857 22.4142 21.2499 22 21.2499H20.75V17.7363C21.875 17.6119 22.75 16.6581 22.75 15.5V3.5C22.75 2.25736 21.7426 1.25 20.5 1.25H7.5Z" fill="#353566"/>
<path fill-rule="evenodd" clip-rule="evenodd" d="M7 11.25C3.82436 11.25 1.25 13.8244 1.25 17C1.25 20.1756 3.82436 22.75 7 22.75C10.1756 22.75 12.75 20.1756 12.75 17C12.75 13.8244 10.1756 11.25 7 11.25ZM9.44194 15.3081C9.68602 15.5521 9.68602 15.9479 9.44194 16.1919L6.94194 18.6919C6.82442 18.8095 6.66492 18.8753 6.49872 18.875C6.33252 18.8747 6.17329 18.8081 6.05625 18.6901L4.55625 17.1778C4.31318 16.9327 4.3148 16.537 4.55987 16.2939C4.80495 16.0508 5.20067 16.0525 5.44375 16.2975L6.50181 17.3643L8.55806 15.3081C8.80214 15.064 9.19786 15.064 9.44194 15.3081Z" fill="#353566"/>
</svg>
