<svg width="24" height="24" viewBox="0 0 24 24" fill="none" xmlns="http://www.w3.org/2000/svg">
<path d="M16.605 0.708308C17.168 0.426722 17.8307 0.426655 18.3938 0.708124L21.9637 2.49261C22.2928 2.6571 22.5006 2.99349 22.5004 3.36139C22.4998 4.77386 22.4093 6.13039 21.8326 7.44866C21.039 9.26259 19.5743 10.6601 17.7819 11.4423C17.6018 11.5209 17.397 11.5209 17.2169 11.4423C15.4252 10.6604 13.9607 9.26477 13.1671 7.451C12.5898 6.13147 12.4998 4.77375 12.5004 3.35996C12.5006 2.99282 12.7081 2.65726 13.0364 2.49303L16.605 0.708308Z" fill="#353566"/>
<path d="M7.16763 2.25L10.585 2.25C10.8045 2.25 11.0131 2.34619 11.1555 2.5132C11.298 2.68021 11.3602 2.90128 11.3256 3.11808C11.2718 3.45601 11.25 3.8349 11.25 4.25788C11.25 7.85008 13.4226 11.1666 16.7332 12.5948C16.8629 12.6499 16.9982 12.6904 17.1367 12.7161C17.4921 12.782 17.75 13.092 17.75 13.4535V22.281C17.75 23.0922 17.0922 23.75 16.281 23.75C15.9115 23.75 15.5557 23.611 15.2839 23.3597L10.0763 18.5531C10.0671 18.5446 10.0582 18.5359 10.0494 18.527C9.85843 18.3322 9.72023 18.2204 9.61944 18.1592C9.57174 18.1302 9.53994 18.1173 9.52203 18.1116C9.5056 18.1063 9.49934 18.1066 9.49934 18.1066L9.49768 18.1067L9.49424 18.1071C9.49127 18.1076 9.48565 18.1087 9.47695 18.1115C9.45923 18.1171 9.42762 18.13 9.38011 18.1588C9.27972 18.2198 9.14184 18.3315 8.95121 18.5264C8.94227 18.5355 8.93309 18.5444 8.92369 18.5531L3.71622 23.3596C3.44443 23.611 3.08852 23.75 2.719 23.75C1.90779 23.75 1.25 23.0922 1.25 22.281V8.1937C1.25158 8.00534 1.25243 7.82537 1.25323 7.65181L1.25369 7.54641C1.25831 6.47751 1.26226 5.56364 1.52439 4.79668C1.82247 3.92451 2.41706 3.31033 3.38 2.71583C3.39745 2.70506 3.41533 2.695 3.4336 2.6857C3.90445 2.44587 4.41538 2.34477 5.00372 2.29674C5.57634 2.24999 6.28458 2.24999 7.16763 2.25Z" fill="#353566"/>
</svg>
