<svg width="24" height="24" viewBox="0 0 24 24" fill="none" xmlns="http://www.w3.org/2000/svg">
<path d="M18.9021 0.551743C19.847 0.355591 21.0491 0.70492 21.8641 1.8092C22.7044 2.94774 22.7815 4.90917 21.6739 6.44631C20.902 7.51745 19.3335 8.95434 18.326 9.83494C18.3023 9.85566 18.2787 9.87657 18.2549 9.89756C18.006 10.1173 17.7484 10.3448 17.425 10.4404C17.1559 10.5199 16.8441 10.5199 16.5751 10.4404C16.2517 10.3448 15.994 10.1173 15.7452 9.89756C15.7214 9.87658 15.6977 9.85567 15.6741 9.83495C14.6666 8.95435 13.098 7.51746 12.3262 6.4463C11.2186 4.90917 11.2957 2.94776 12.136 1.8092C12.951 0.704925 14.153 0.355591 15.0979 0.551743L15.0999 0.552146C15.8341 0.70757 16.4857 1.05543 17 1.60069C17.5143 1.05543 18.166 0.70757 18.9002 0.552146L18.9021 0.551743Z" fill="#353566"/>
<path d="M7.16763 2.25L9.56805 2.25C9.78644 2.25 9.99399 2.34519 10.1365 2.51071C10.2789 2.67622 10.3422 2.89562 10.3097 3.11158C10.1032 4.48441 10.4329 6.00445 11.307 7.22168C11.9333 8.09318 13.1022 9.30434 14.8483 10.8349L14.8528 10.8389C15.5613 11.4699 16.301 11.7497 17.0005 11.7502C17.4145 11.7505 17.75 12.0862 17.75 12.5002V22.281C17.75 23.0922 17.0922 23.75 16.281 23.75C15.9115 23.75 15.5557 23.611 15.2839 23.3597L10.0763 18.5531C10.0671 18.5446 10.0582 18.5359 10.0494 18.527C9.85843 18.3322 9.72023 18.2204 9.61944 18.1592C9.57174 18.1302 9.53994 18.1173 9.52203 18.1116C9.5056 18.1063 9.49934 18.1066 9.49934 18.1066L9.49768 18.1067L9.49424 18.1071C9.49127 18.1076 9.48565 18.1087 9.47695 18.1115C9.45923 18.1171 9.42762 18.13 9.38011 18.1588C9.27972 18.2198 9.14184 18.3315 8.95121 18.5264C8.94227 18.5355 8.93309 18.5444 8.92369 18.5531L3.71622 23.3596C3.44443 23.611 3.08852 23.75 2.719 23.75C1.90779 23.75 1.25 23.0922 1.25 22.281V8.1937C1.25158 8.00534 1.25243 7.82537 1.25323 7.65181L1.25369 7.54641C1.25831 6.47751 1.26226 5.56364 1.52439 4.79668C1.82247 3.92451 2.41706 3.31033 3.38 2.71583C3.39745 2.70506 3.41533 2.695 3.4336 2.6857C3.90445 2.44587 4.41538 2.34477 5.00372 2.29674C5.57634 2.24999 6.28458 2.24999 7.16763 2.25Z" fill="#353566"/>
</svg>
