<svg width="24" height="24" viewBox="0 0 24 24" fill="none" xmlns="http://www.w3.org/2000/svg">
<path d="M19.75 21.25V17.725C20.872 17.599 21.75 16.655 21.75 15.5V3.5C21.75 2.259 20.741 1.25 19.5 1.25H6.5C4.157 1.25 2.25 3.157 2.25 5.501V11.266C2.25 11.528 2.386 11.77 2.609 11.906C2.832 12.042 3.11 12.053 3.342 11.934L3.444 11.884C3.61 11.805 3.742 11.667 3.813 11.498C3.972 11.124 4.453 10.252 5.501 10.252C6.555 10.252 7.033 11.128 7.19 11.504C7.261 11.673 7.389 11.81 7.554 11.89C8.049 12.131 8.54 12.438 9.057 12.829C9.43 13.111 9.67 13.522 9.734 13.985C9.798 14.448 9.678 14.908 9.396 15.281C9.31854 15.3837 9.22971 15.4766 9.14336 15.5668C9.13051 15.5803 9.1177 15.5936 9.105 15.607L8.99 15.728C8.747 15.988 8.72 16.383 8.927 16.674C9.084 16.894 9.225 17.118 9.345 17.347C9.38 17.413 9.424 17.471 9.475 17.523C9.47993 17.5279 9.48577 17.5323 9.49168 17.5367C9.49655 17.5403 9.50148 17.5439 9.506 17.548C9.561 17.598 9.621 17.638 9.687 17.67C9.708 17.68 9.729 17.69 9.751 17.698C9.833 17.728 9.919 17.75 10.01 17.75H18.25V21.25H9.129C8.715 21.25 8.379 21.586 8.379 22C8.379 22.414 8.715 22.75 9.129 22.75H21C21.414 22.75 21.75 22.414 21.75 22C21.75 21.586 21.414 21.25 21 21.25H19.75Z" fill="#353566"/>
<path d="M5.50004 11.25C5.91426 11.25 6.25004 11.5858 6.25004 12V12.5489C6.51435 12.5879 6.76846 12.6533 7.02655 12.7556C7.49979 12.9433 7.94107 13.2381 8.4528 13.6256C8.78303 13.8756 8.84802 14.346 8.59797 14.6763C8.34792 15.0065 7.87752 15.0715 7.54729 14.8214C7.05902 14.4517 6.7503 14.2597 6.47353 14.15C6.21429 14.0471 5.94067 14 5.50004 14C4.85655 14 4.4008 14.1521 4.12746 14.35C3.8766 14.5317 3.75004 14.7677 3.75004 15.0817C3.75004 15.461 3.91596 15.6783 4.24138 15.8604C4.6142 16.0691 5.11858 16.1761 5.62334 16.2602C6.11858 16.3427 6.8642 16.4795 7.49139 16.8306C8.16597 17.2083 8.75005 17.8667 8.75005 18.9183C8.75005 19.7329 8.3766 20.4128 7.75247 20.8648C7.33117 21.1699 6.81545 21.3592 6.25004 21.4452V22C6.25004 22.4142 5.91426 22.75 5.50004 22.75C5.08583 22.75 4.75004 22.4142 4.75004 22V21.4511C4.48573 21.4121 4.23161 21.3467 3.97351 21.2443C3.50028 21.0566 3.05901 20.7618 2.54729 20.3743C2.21706 20.1243 2.15207 19.6539 2.40212 19.3236C2.65217 18.9934 3.12257 18.9284 3.4528 19.1785C3.94107 19.5482 4.2498 19.7402 4.52657 19.85C4.78582 19.9528 5.05943 20 5.50004 20C6.14353 20 6.59928 19.8479 6.87262 19.6499C7.12349 19.4682 7.25005 19.2322 7.25005 18.9183C7.25005 18.539 7.08412 18.3217 6.7587 18.1395C6.38589 17.9308 5.88151 17.8239 5.37674 17.7398C4.88151 17.6572 4.13589 17.5204 3.5087 17.1693C2.83412 16.7917 2.25004 16.1332 2.25004 15.0817C2.25004 14.267 2.62349 13.5872 3.24762 13.1352C3.66891 12.8301 4.18463 12.6408 4.75004 12.5548V12C4.75004 11.5858 5.08583 11.25 5.50004 11.25Z" fill="#353566"/>
</svg>
