<svg width="24" height="24" viewBox="0 0 24 24" fill="none" xmlns="http://www.w3.org/2000/svg">
<path d="M20.1269 1.08833C20.0833 0.970558 19.9167 0.970558 19.8731 1.08833L19.6789 1.61328C19.4962 2.10697 19.107 2.49621 18.6133 2.67889L18.0883 2.87314C17.9706 2.91671 17.9706 3.08329 18.0883 3.12686L18.6133 3.32112C19.107 3.50379 19.4962 3.89303 19.6789 4.38672L19.8731 4.91167C19.9167 5.02944 20.0833 5.02944 20.1269 4.91167L20.3211 4.38672C20.5038 3.89303 20.893 3.50379 21.3867 3.32112L21.9117 3.12686C22.0294 3.08329 22.0294 2.91671 21.9117 2.87314L21.3867 2.67889C20.893 2.49621 20.5038 2.10697 20.3211 1.61328L20.1269 1.08833Z" fill="#353566"/>
<path d="M16.6521 3.62809C16.3422 2.79063 15.1578 2.79064 14.8479 3.62809L14.5495 4.43454C14.2726 5.18272 13.6827 5.77261 12.9345 6.04946L12.1281 6.34787C11.2906 6.65776 11.2906 7.84224 12.1281 8.15213L12.9345 8.45054C13.6827 8.72739 14.2726 9.31728 14.5495 10.0655L14.8479 10.8719C15.1578 11.7094 16.3422 11.7094 16.6521 10.8719L16.9505 10.0655C17.2274 9.31728 17.8173 8.72739 18.5655 8.45054L19.3719 8.15213C20.2094 7.84224 20.2094 6.65776 19.3719 6.34787L18.5655 6.04946C17.8173 5.77261 17.2274 5.18272 16.9505 4.43454L16.6521 3.62809Z" fill="#353566"/>
<path d="M17.75 22.282V13.221L17.751 13.219C17.751 12.962 17.619 12.724 17.403 12.586C17.185 12.449 16.913 12.431 16.682 12.54C15.55 13.07 14.108 12.474 13.675 11.308L13.377 10.501C13.229 10.094 12.908 9.772 12.496 9.621C10.899 9.029 10.248 8.344 10.248 7.249C10.248 6.154 10.9 5.467 12.499 4.877C12.9 4.729 13.218 4.414 13.372 4.014C13.385 3.98 13.396 3.944 13.404 3.907C13.449 3.702 13.515 3.499 13.599 3.306C13.699 3.076 13.677 2.81 13.54 2.599C13.403 2.388 13.17 2.26 12.919 2.257L7.2 2.25C5.262 2.25 4.289 2.25 3.38 2.716C1.27005 4.01897 1.264 5.30893 1.253 7.65282L1.25 22.282C1.25 23.092 1.909 23.751 2.719 23.751C3.091 23.751 3.445 23.612 3.716 23.361L8.951 18.527C9.356 18.112 9.494 18.108 9.499 18.108C9.505 18.108 9.641 18.112 10.076 18.554L15.283 23.36C15.555 23.612 15.91 23.751 16.281 23.751C17.091 23.751 17.75 23.092 17.75 22.282Z" fill="#353566"/>
</svg>
