<svg width="24" height="24" viewBox="0 0 24 24" fill="none" xmlns="http://www.w3.org/2000/svg">
<path opacity="0.4" fill-rule="evenodd" clip-rule="evenodd" d="M3.5 22H13.5C14.0156 22 14.4948 21.8439 14.8928 21.5764C14.0341 20.7771 13.0896 19.8284 12.5148 19.0307C11.1751 17.1714 11.2114 14.7326 12.3313 13.2152C13.2977 11.9058 14.7352 11.376 16 11.5237V4.4997C16 2.79582 14.3328 1.59116 12.7151 2.1261L2.71511 5.43285C1.69135 5.77138 1 6.72816 1 7.80644V19.5C1 20.8807 2.11929 22 3.5 22ZM11 21.9998V16.9998C11 16.4475 10.5523 15.9998 10 15.9998H7C6.44772 15.9998 6 16.4476 6 16.9998V21.9998H11Z" fill="#353566"/>
<path fill-rule="evenodd" clip-rule="evenodd" d="M12.8721 2.60096C14.1663 2.173 15.5 3.13673 15.5 4.49983V11.5008C15.773 11.4945 16.042 11.5187 16.3011 11.5725C16.3677 11.5865 16.434 11.6017 16.5 11.6182V4.49983C16.5 2.45518 14.4994 1.00959 12.5581 1.65152L2.55814 4.95826C1.32962 5.3645 0.5 6.51264 0.5 7.80658V19.5001C0.5 21.157 1.84315 22.5001 3.5 22.5001H13.5C14.1617 22.5001 14.7734 22.2859 15.2695 21.923C15.0282 21.7036 14.7737 21.4676 14.5174 21.2224C14.2193 21.3988 13.8715 21.5001 13.5 21.5001H11.5V17C11.5 16.1715 10.8284 15.5 10 15.5H7C6.17157 15.5 5.5 16.1715 5.5 17V21.5001H3.5C2.39543 21.5001 1.5 20.6047 1.5 19.5001V7.80658C1.5 6.94395 2.05308 6.17853 2.87209 5.9077L12.8721 2.60096ZM6.5 17C6.5 16.7238 6.72386 16.5 7 16.5H10C10.2761 16.5 10.5 16.7238 10.5 17V21.5H6.5V17Z" fill="#353566"/>
<path d="M11.5 9.99997C11.7761 9.99997 12 9.77611 12 9.49997C12 9.22383 11.7761 8.99997 11.5 8.99997H10.5C10.2239 8.99997 10 9.22383 10 9.49997C10 9.77611 10.2239 9.99997 10.5 9.99997H11.5Z" fill="#353566"/>
<path d="M12 12.5C12 12.7761 11.7761 13 11.5 13H10.5C10.2239 13 10 12.7761 10 12.5C10 12.2238 10.2239 12 10.5 12H11.5C11.7761 12 12 12.2238 12 12.5Z" fill="#353566"/>
<path d="M6.5 9.99997C6.77614 9.99997 7 9.77611 7 9.49997C7 9.22383 6.77614 8.99997 6.5 8.99997H5.5C5.22386 8.99997 5 9.22383 5 9.49997C5 9.77611 5.22386 9.99997 5.5 9.99997H6.5Z" fill="#353566"/>
<path d="M7 12.5C7 12.7761 6.77614 13 6.5 13H5.5C5.22386 13 5 12.7761 5 12.5C5 12.2238 5.22386 12 5.5 12H6.5C6.77614 12 7 12.2238 7 12.5Z" fill="#353566"/>
<path fill-rule="evenodd" clip-rule="evenodd" d="M22.8641 13.8092C22.0491 12.7049 20.847 12.3556 19.9021 12.5517L19.9002 12.5521C19.166 12.7076 18.5143 13.0554 18 13.6007C17.4857 13.0554 16.8341 12.7076 16.0999 12.5521L16.0979 12.5517C15.153 12.3556 13.951 12.7049 13.136 13.8092C12.2957 14.9478 12.2186 16.9092 13.3262 18.4463C14.098 19.5175 15.6666 20.9544 16.6741 21.8349C16.6931 21.8516 16.712 21.8682 16.7307 21.8846C17.0093 22.129 17.2574 22.3465 17.5751 22.4404C17.8441 22.5199 18.1559 22.5199 18.425 22.4404C18.7426 22.3465 18.9907 22.129 19.2692 21.8847C19.288 21.8682 19.3069 21.8516 19.326 21.8349C20.3335 20.9543 21.902 19.5175 22.6739 18.4463C23.7815 16.9092 23.7044 14.9477 22.8641 13.8092ZM20.1063 13.5307C20.6641 13.4153 21.4738 13.6095 22.0595 14.403C22.6202 15.1627 22.738 16.6467 21.8626 17.8617C21.1685 18.8248 19.6891 20.1894 18.6679 21.082C18.2983 21.4051 18.2221 21.4576 18.1415 21.4814C18.0575 21.5063 17.9426 21.5063 17.8585 21.4814C17.7779 21.4576 17.7018 21.4051 17.3322 21.082C16.3109 20.1894 14.8315 18.8248 14.1375 17.8617C13.262 16.6467 13.3799 15.1627 13.9406 14.403C14.5262 13.6095 15.336 13.4153 15.8938 13.5307C16.6317 13.6871 17.1513 14.0935 17.6039 14.6812C17.6985 14.8041 17.8449 14.8761 18 14.8761C18.1552 14.8761 18.3015 14.8041 18.3962 14.6812C18.8487 14.0935 19.3684 13.6871 20.1063 13.5307Z" fill="#353566"/>
</svg>
