<svg width="24" height="24" viewBox="0 0 24 24" fill="none" xmlns="http://www.w3.org/2000/svg">
<g opacity="0.4">
<path d="M8 5.49951C6.61929 5.49951 5.5 6.6188 5.5 7.99951C5.5 9.13493 6.25651 10.0924 7.29191 10.3977C7.45498 10.4458 7.63132 10.4077 7.76003 10.2966L10.3073 8.09808C10.4358 7.9871 10.4993 7.81843 10.4757 7.65021C10.3055 6.43469 9.26237 5.49951 8 5.49951Z" fill="#353566"/>
<path fill-rule="evenodd" clip-rule="evenodd" d="M18.6028 22.0002H11.4004C10.2958 22.0002 9.40039 21.1048 9.40039 20.0002V12.4131L14.3232 8.24844C14.7147 7.91719 15.2882 7.91719 15.6798 8.24844L20.6028 12.4133V20.0002C20.6028 21.1048 19.7073 22.0002 18.6028 22.0002ZM17 17.25V21.9996H13V17.25C13 16.8358 13.3358 16.5 13.75 16.5H16.25C16.6642 16.5 17 16.8358 17 17.25Z" fill="#353566"/>
</g>
<path d="M7.4994 3.50034C7.49951 3.77648 7.72345 4.00025 7.99959 4.00015C8.27574 4.00004 8.49951 3.7761 8.4994 3.49996L8.49883 1.99883C8.49873 1.72269 8.27479 1.49892 7.99864 1.49902C7.7225 1.49913 7.49873 1.72307 7.49883 1.99921L7.4994 3.50034Z" fill="#353566"/>
<path d="M12.8531 3.74657C13.0484 3.94183 13.0484 4.25841 12.8531 4.45367L11.8536 5.45319C11.6583 5.64845 11.3418 5.64845 11.1465 5.45319C10.9512 5.25792 10.9512 4.94134 11.1465 4.74608L12.146 3.74657C12.3413 3.55131 12.6578 3.55131 12.8531 3.74657Z" fill="#353566"/>
<path d="M8 6.49944C7.17157 6.49944 6.5 7.17102 6.5 7.99944C6.5 8.67952 6.95298 9.25509 7.57476 9.43845C7.83962 9.51656 7.99102 9.79459 7.91291 10.0595C7.83481 10.3243 7.55677 10.4757 7.29191 10.3976C6.25651 10.0923 5.5 9.13486 5.5 7.99944C5.5 6.61873 6.61929 5.49944 8 5.49944C9.26237 5.49944 10.3055 6.43462 10.4757 7.65014C10.514 7.92362 10.3234 8.17636 10.0499 8.21467C9.77645 8.25297 9.5237 8.06233 9.4854 7.78885C9.38335 7.0603 8.75675 6.49944 8 6.49944Z" fill="#353566"/>
<path fill-rule="evenodd" clip-rule="evenodd" d="M14.0002 7.86671C14.5782 7.37776 15.4248 7.37775 16.0027 7.86671L22.3259 13.2161C22.5367 13.3945 22.563 13.7099 22.3847 13.9208C22.2063 14.1316 21.8909 14.1579 21.68 13.9796L21.1028 13.4912V20.0002C21.1028 21.3809 19.9835 22.5002 18.6028 22.5002H11.4004C10.0197 22.5002 8.90039 21.3809 8.90039 20.0002V13.491L8.32295 13.9796C8.11213 14.1579 7.79664 14.1316 7.61829 13.9208C7.43994 13.7099 7.46625 13.3945 7.67707 13.2161L14.0002 7.86671ZM15.3569 8.63015L20.1028 12.6452V20.0002C20.1028 20.8286 19.4312 21.5002 18.6028 21.5002H17.5V17.25C17.5 16.5596 16.9404 16 16.25 16H13.75C13.0596 16 12.5 16.5596 12.5 17.25V21.5002H11.4004C10.572 21.5002 9.90039 20.8286 9.90039 20.0002V12.645L14.6461 8.63015C14.8513 8.45661 15.1517 8.45661 15.3569 8.63015ZM13.5 17.25C13.5 17.1119 13.6119 17 13.75 17H16.25C16.3881 17 16.5 17.1119 16.5 17.25V21.4996H13.5V17.25Z" fill="#353566"/>
<path d="M2 8.49886C1.72386 8.49886 1.5 8.27501 1.5 7.99886C1.5 7.72272 1.72386 7.49886 2 7.49886H3.5C3.77614 7.49886 4 7.72272 4 7.99886C4 8.27501 3.77614 8.49886 3.5 8.49886H2Z" fill="#353566"/>
<path d="M3.1464 4.45367C2.95114 4.25841 2.95114 3.94183 3.1464 3.74657C3.34166 3.55131 3.65824 3.55131 3.85351 3.74657L4.85351 4.74657C5.04877 4.94183 5.04877 5.25841 4.85351 5.45367C4.65824 5.64894 4.34166 5.64894 4.1464 5.45367L3.1464 4.45367Z" fill="#353566"/>
<path d="M3.1464 12.253C3.34166 12.4482 3.65824 12.4482 3.85351 12.253L4.85351 11.253C5.04877 11.0577 5.04877 10.7411 4.85351 10.5459C4.65824 10.3506 4.34166 10.3506 4.1464 10.5459L3.1464 11.5459C2.95114 11.7411 2.95114 12.0577 3.1464 12.253Z" fill="#353566"/>
</svg>
