<svg width="24" height="24" viewBox="0 0 24 24" fill="none" xmlns="http://www.w3.org/2000/svg">
<g clip-path="url(#clip0_9001_288106)">
<path fill-rule="evenodd" clip-rule="evenodd" d="M8.78678 0.590427C9.013 0.748784 9.06802 1.06055 8.90966 1.28677L5.96038 5.50004H16.0397L13.0904 1.28677C12.9321 1.06055 12.9871 0.748784 13.2133 0.590427C13.4395 0.43207 13.7513 0.487087 13.9097 0.713312L17.2604 5.50004L19.0688 5.50002C19.4665 5.4998 19.7619 5.49964 20.0177 5.56819C20.7079 5.75313 21.247 6.29222 21.4319 6.98241C21.5004 7.23823 21.5003 7.53356 21.5001 7.93124V8.06884C21.5003 8.46653 21.5004 8.76186 21.4319 9.01768C21.2898 9.54787 20.9388 9.9889 20.4708 10.2487L20.3539 11.1061C20.3166 11.3797 20.0645 11.5713 19.7909 11.534C19.5173 11.4967 19.3257 11.2446 19.363 10.971L19.4275 10.4979C19.3174 10.5002 19.1986 10.5001 19.0688 10.5001H2.93126C2.80153 10.5001 2.6827 10.5002 2.57257 10.4979L3.58269 17.9054C3.78539 19.3919 5.05497 20.5001 6.55518 20.5001H11.8721C12.1483 20.5001 12.3721 20.7239 12.3721 21.0001C12.3721 21.2762 12.1483 21.5001 11.8721 21.5001H6.55518C4.55489 21.5001 2.86212 20.0225 2.59186 18.0405L1.52934 10.2487C1.06133 9.98892 0.710263 9.54788 0.568197 9.01768C0.499648 8.76186 0.499808 8.46653 0.500024 8.06883V7.93125C0.499808 7.53356 0.499648 7.23823 0.568197 6.98241C0.753131 6.29222 1.29223 5.75313 1.98241 5.56819C2.23823 5.49964 2.53356 5.4998 2.93125 5.50002L4.73972 5.50004L8.09043 0.713312C8.24879 0.487087 8.56055 0.43207 8.78678 0.590427ZM3.00005 6.50004C2.50287 6.50004 2.35237 6.50434 2.24123 6.53412C1.89614 6.62658 1.62659 6.89613 1.53412 7.24122C1.50434 7.35236 1.50005 7.50287 1.50005 8.00004C1.50005 8.49722 1.50434 8.64772 1.53412 8.75886C1.62659 9.10395 1.89614 9.3735 2.24123 9.46597C2.35237 9.49575 2.50287 9.50004 3.00005 9.50004H19C19.4972 9.50004 19.6477 9.49575 19.7589 9.46597C20.104 9.3735 20.3735 9.10395 20.466 8.75886C20.4958 8.64772 20.5 8.49722 20.5 8.00004C20.5 7.50287 20.4958 7.35236 20.466 7.24122C20.3735 6.89613 20.104 6.62658 19.7589 6.53412C19.6477 6.50434 19.4972 6.50004 19 6.50004H3.00005Z" fill="#353566"/>
<path d="M7.00019 13.0011C7.27633 13.0011 7.50019 13.2249 7.50019 13.5011L7.50018 17.0012C7.50018 17.2773 7.27632 17.5012 7.00018 17.5012C6.72404 17.5012 6.50018 17.2773 6.50018 17.0012L6.50019 13.5011C6.50019 13.2249 6.72405 13.0011 7.00019 13.0011Z" fill="#353566"/>
<path d="M11.0003 13.0011C11.2764 13.0011 11.5003 13.2249 11.5003 13.5011L11.5003 14.8053C11.5003 15.0814 11.2764 15.3053 11.0003 15.3053C10.7241 15.3053 10.5003 15.0814 10.5003 14.8053L10.5003 13.5011C10.5003 13.2249 10.7242 13.0011 11.0003 13.0011Z" fill="#353566"/>
<path fill-rule="evenodd" clip-rule="evenodd" d="M19.0133 13.6365C18.6043 12.7878 17.3957 12.7878 16.9866 13.6365L15.9213 15.8464L13.4801 16.165C12.5385 16.2879 12.1633 17.45 12.8553 18.1003L14.6335 19.7713L14.1858 22.1646C14.0121 23.0935 14.9916 23.8097 15.824 23.3625L18 22.1934L20.1759 23.3625C21.0083 23.8097 21.9878 23.0935 21.8141 22.1646L21.3664 19.7713L23.1446 18.1003C23.8366 17.45 23.4614 16.2879 22.5198 16.165L20.0786 15.8464L19.0133 13.6365ZM17.8874 14.0707C17.9328 13.9764 18.0671 13.9764 18.1125 14.0707L19.1778 16.2807C19.3244 16.5848 19.6145 16.7944 19.9492 16.838L22.3905 17.1566C22.495 17.1702 22.5367 17.2993 22.4599 17.3716L20.6816 19.0426C20.4331 19.2761 20.3208 19.62 20.3834 19.9552L20.8311 22.3485C20.8504 22.4517 20.7416 22.5312 20.6492 22.4815L18.4732 21.3125C18.1777 21.1537 17.8222 21.1537 17.5267 21.3125L15.3508 22.4815C15.2583 22.5312 15.1495 22.4517 15.1688 22.3485L15.6165 19.9552C15.6792 19.62 15.5668 19.2761 15.3183 19.0426L13.5401 17.3716C13.4632 17.2993 13.5049 17.1702 13.6095 17.1566L16.0507 16.838C16.3854 16.7944 16.6755 16.5848 16.8221 16.2807L17.8874 14.0707Z" fill="#353566"/>
</g>
<defs>
<clipPath id="clip0_9001_288106">
<rect width="24" height="24" fill="white"/>
</clipPath>
</defs>
</svg>
