<svg width="24" height="24" viewBox="0 0 24 24" fill="none" xmlns="http://www.w3.org/2000/svg">
<path fill-rule="evenodd" clip-rule="evenodd" d="M2.04288 3.7977C2.13459 3.59045 2.35423 3.4708 2.57809 3.50615L12.0001 4.99384L21.4221 3.50615C21.646 3.4708 21.8657 3.59045 21.9574 3.7977L23.3968 7.05064C23.6932 7.72041 23.3528 8.50034 22.6602 8.73852L16.8288 10.7438C16.2296 10.9499 15.5655 10.7572 15.1697 10.2624L12.0001 6.30041L8.83055 10.2624C8.43471 10.7572 7.77066 10.9499 7.17146 10.7438L1.34006 8.73852C0.647448 8.50034 0.307079 7.72041 0.603455 7.05064L2.04288 3.7977ZM8.04968 9.63769L11.0721 5.85969L2.80181 4.55386L1.51792 7.45529C1.45865 7.58924 1.52672 7.74523 1.66525 7.79287L7.49665 9.79816C7.69638 9.86685 7.91773 9.80262 8.04968 9.63769ZM15.9506 9.63769L12.9282 5.85969L21.1984 4.55386L22.4823 7.45529C22.5416 7.58924 22.4735 7.74523 22.335 7.79287L16.5036 9.79816C16.3039 9.86685 16.0825 9.80262 15.9506 9.63769Z" fill="#353566"/>
<path d="M3.00003 11C3.27617 11 3.50003 11.2239 3.50003 11.5V15.9928C3.50003 16.662 3.94336 17.2503 4.58668 17.4347L11.5001 19.4165V10C11.5001 9.72386 11.7239 9.5 12.0001 9.5C12.2762 9.5 12.5001 9.72386 12.5001 10V19.4165L19.4134 17.4347C20.0567 17.2503 20.5 16.662 20.5 15.9928V11.5C20.5 11.2239 20.7239 11 21 11C21.2762 11 21.5 11.2239 21.5 11.5V15.9928C21.5 17.1082 20.7611 18.0886 19.6889 18.396L12.6889 20.4026C12.4725 20.4647 12.2497 20.4969 12.0267 20.4993C12.0179 20.4998 12.009 20.5 12.0001 20.5C11.9911 20.5 11.9822 20.4998 11.9734 20.4993C11.7504 20.4969 11.5276 20.4647 11.3111 20.4026L4.31111 18.396C3.23891 18.0886 2.50003 17.1082 2.50003 15.9928V11.5C2.50003 11.2239 2.72388 11 3.00003 11Z" fill="#353566"/>
</svg>
