<svg width="24" height="24" viewBox="0 0 24 24" fill="none" xmlns="http://www.w3.org/2000/svg">
<path d="M5.3956 13.9472C5.14144 13.8392 4.84787 13.9577 4.73989 14.2118C4.63191 14.466 4.75041 14.7596 5.00456 14.8675L6.80456 15.6323C7.05872 15.7403 7.35229 15.6218 7.46027 15.3676C7.56825 15.1135 7.44975 14.8199 7.1956 14.7119L5.3956 13.9472Z" fill="#353566"/>
<path fill-rule="evenodd" clip-rule="evenodd" d="M17.4964 7.54463C17.4964 7.37421 17.4789 7.20652 17.4453 7.04369L9.99914 10.381L9.99912 18.4493C10.1495 18.4182 10.2976 18.373 10.4415 18.3136C10.6968 18.2083 10.9891 18.3299 11.0944 18.5852C11.1997 18.8405 11.0781 19.1328 10.8228 19.2381C9.93597 19.6038 8.93515 19.5872 8.05872 19.1883L2.53488 16.6736C1.29551 16.1095 0.5 14.8732 0.5 13.5115V7.54463C0.5 6.19325 1.28359 4.96448 2.50887 4.39446L8.03271 1.82469C8.9619 1.39242 10.0345 1.39242 10.9637 1.82469L16.4876 4.39446C17.7128 4.96448 18.4964 6.19325 18.4964 7.54463V10.5617C18.4964 10.8378 18.2726 11.0617 17.9964 11.0617C17.7203 11.0617 17.4964 10.8378 17.4964 10.5617V7.54463ZM8.45452 2.73138C9.11626 2.42352 9.88017 2.42352 10.5419 2.73138L16.0658 5.30115C16.4685 5.4885 16.8042 5.77579 17.049 6.12546L14.0494 7.46988L6.23023 3.76615L8.45452 2.73138ZM1.55115 7.04368L8.99914 10.3818L8.99912 18.4496C8.81947 18.4127 8.64297 18.3555 8.47304 18.2781L2.9492 15.7635C2.06655 15.3617 1.5 14.4813 1.5 13.5115V7.54463C1.5 7.3742 1.5175 7.20651 1.55115 7.04368ZM9.49823 9.50968L1.94744 6.12545C2.19223 5.77578 2.52795 5.4885 2.93067 5.30115L5.05169 4.31442L12.8491 8.00784L9.49823 9.50968Z" fill="#353566"/>
<path fill-rule="evenodd" clip-rule="evenodd" d="M22.8641 13.8092C22.0491 12.7049 20.847 12.3556 19.9021 12.5517L19.9002 12.5521C19.166 12.7076 18.5143 13.0554 18 13.6007C17.4857 13.0554 16.8341 12.7076 16.0999 12.5521L16.0979 12.5517C15.153 12.3556 13.951 12.7049 13.136 13.8092C12.2957 14.9478 12.2186 16.9092 13.3262 18.4463C14.098 19.5175 15.6666 20.9544 16.6741 21.8349C16.6931 21.8516 16.712 21.8682 16.7307 21.8846C17.0093 22.129 17.2574 22.3465 17.5751 22.4404C17.8441 22.5199 18.1559 22.5199 18.425 22.4404C18.7426 22.3465 18.9907 22.129 19.2692 21.8846C19.288 21.8682 19.3069 21.8516 19.326 21.8349C20.3335 20.9543 21.902 19.5175 22.6739 18.4463C23.7815 16.9092 23.7044 14.9477 22.8641 13.8092ZM20.1063 13.5307C20.6641 13.4153 21.4738 13.6095 22.0595 14.403C22.6202 15.1627 22.738 16.6467 21.8626 17.8617C21.1685 18.8248 19.6891 20.1894 18.6679 21.082C18.2983 21.4051 18.2221 21.4576 18.1415 21.4814C18.0575 21.5063 17.9426 21.5063 17.8585 21.4814C17.7779 21.4576 17.7018 21.4051 17.3322 21.082C16.3109 20.1894 14.8315 18.8248 14.1375 17.8617C13.262 16.6467 13.3799 15.1627 13.9406 14.403C14.5262 13.6095 15.336 13.4153 15.8938 13.5307C16.6317 13.6871 17.1513 14.0935 17.6039 14.6812C17.6985 14.8041 17.8449 14.8761 18 14.8761C18.1552 14.8761 18.3015 14.8041 18.3962 14.6812C18.8487 14.0935 19.3684 13.6871 20.1063 13.5307Z" fill="#353566"/>
</svg>
