<svg width="24" height="24" viewBox="0 0 24 24" fill="none" xmlns="http://www.w3.org/2000/svg">
<path d="M4.73989 14.2118C4.84787 13.9577 5.14144 13.8392 5.3956 13.9472L7.1956 14.7119C7.44975 14.8199 7.56825 15.1135 7.46027 15.3676C7.35229 15.6218 7.05872 15.7403 6.80456 15.6323L5.00456 14.8675C4.75041 14.7596 4.63191 14.466 4.73989 14.2118Z" fill="#353566"/>
<path fill-rule="evenodd" clip-rule="evenodd" d="M17.4453 7.04369C17.4789 7.20652 17.4964 7.37421 17.4964 7.54463V9C17.4964 9.27614 17.7203 9.5 17.9964 9.5C18.2726 9.5 18.4964 9.27614 18.4964 9V7.54463C18.4964 6.19325 17.7128 4.96448 16.4876 4.39446L10.9637 1.82469C10.0345 1.39242 8.9619 1.39242 8.03271 1.82469L2.50887 4.39446C1.28359 4.96448 0.5 6.19325 0.5 7.54463V13.5115C0.5 14.8732 1.29551 16.1095 2.53488 16.6736L8.05872 19.1883C8.78312 19.518 9.59246 19.5866 10.3521 19.3939C10.6198 19.3261 10.7818 19.0541 10.7139 18.7864C10.646 18.5187 10.374 18.3567 10.1064 18.4246C10.0708 18.4336 10.035 18.4419 9.99912 18.4493L9.99914 10.381L17.4453 7.04369ZM10.5419 2.73138C9.88017 2.42352 9.11626 2.42352 8.45452 2.73138L6.23023 3.76615L14.0494 7.46988L17.049 6.12546C16.8042 5.77579 16.4685 5.4885 16.0658 5.30115L10.5419 2.73138ZM8.99914 10.3818L1.55115 7.04368C1.5175 7.20651 1.5 7.3742 1.5 7.54463V13.5115C1.5 14.4813 2.06655 15.3617 2.9492 15.7635L8.47304 18.2781C8.64297 18.3555 8.81947 18.4127 8.99912 18.4496L8.99914 10.3818ZM1.94744 6.12545L9.49823 9.50968L12.8491 8.00784L5.05169 4.31442L2.93067 5.30115C2.52795 5.4885 2.19223 5.77578 1.94744 6.12545Z" fill="#353566"/>
<path d="M20.3536 15.3536C20.5488 15.1583 20.5488 14.8417 20.3536 14.6464C20.1583 14.4512 19.8417 14.4512 19.6464 14.6464L15.6464 18.6464C15.4512 18.8417 15.4512 19.1583 15.6464 19.3536C15.8417 19.5488 16.1583 19.5488 16.3536 19.3536L20.3536 15.3536Z" fill="#353566"/>
<path d="M15.75 15.5C15.75 15.0858 16.0858 14.75 16.5 14.75C16.9142 14.75 17.2501 15.0858 17.2501 15.5C17.2501 15.9142 16.9143 16.25 16.5001 16.25C16.0859 16.25 15.75 15.9142 15.75 15.5Z" fill="#353566"/>
<path d="M19.5 17.75C19.0858 17.75 18.75 18.0858 18.75 18.5C18.75 18.9142 19.0858 19.25 19.5 19.25C19.9142 19.25 20.2501 18.9142 20.2501 18.5C20.2501 18.0858 19.9142 17.75 19.5 17.75Z" fill="#353566"/>
<path fill-rule="evenodd" clip-rule="evenodd" d="M12.5 17C12.5 13.9624 14.9624 11.5 18 11.5C21.0376 11.5 23.5 13.9624 23.5 17C23.5 20.0376 21.0376 22.5 18 22.5C14.9624 22.5 12.5 20.0376 12.5 17ZM18 12.5C15.5147 12.5 13.5 14.5147 13.5 17C13.5 19.4853 15.5147 21.5 18 21.5C20.4853 21.5 22.5 19.4853 22.5 17C22.5 14.5147 20.4853 12.5 18 12.5Z" fill="#353566"/>
</svg>
