<svg width="24" height="24" viewBox="0 0 24 24" fill="none" xmlns="http://www.w3.org/2000/svg">
<path fill-rule="evenodd" clip-rule="evenodd" d="M0.5 2C0.5 1.72386 0.723858 1.5 1 1.5H2.18189C3.18707 1.5 4.03608 2.24606 4.1653 3.24289L4.26344 4H20.004C20.892 4 21.5856 4.76711 21.4964 5.6506L20.8525 12.0318C20.8248 12.3065 20.5796 12.5068 20.3048 12.4791C20.0301 12.4514 19.8298 12.2061 19.8576 11.9314L20.5015 5.5502C20.5312 5.2557 20.3 5 20.004 5H4.39307L5.51992 13.6928C5.61684 14.4405 6.25359 15 7.00747 15H12.5429C12.819 15 13.0429 15.2239 13.0429 15.5C13.0429 15.7761 12.819 16 12.5429 16H5.25C4.55964 16 4 16.5596 4 17.25C4 17.9404 4.55964 18.5 5.25 18.5H12.0269C12.3031 18.5 12.5269 18.7239 12.5269 19C12.5269 19.2761 12.3031 19.5 12.0269 19.5H9.23244C9.40261 19.7942 9.5 20.1357 9.5 20.5C9.5 21.6046 8.60457 22.5 7.5 22.5C6.39543 22.5 5.5 21.6046 5.5 20.5C5.5 20.1357 5.59739 19.7942 5.76756 19.5H5.25C4.00736 19.5 3 18.4926 3 17.25C3 16.0863 3.88347 15.1289 5.01629 15.012C4.75963 14.6744 4.58612 14.268 4.52822 13.8214L3.1736 3.37145C3.10899 2.87303 2.68448 2.5 2.18189 2.5H1C0.723858 2.5 0.5 2.27614 0.5 2ZM7.5 19.5C6.94772 19.5 6.5 19.9477 6.5 20.5C6.5 21.0523 6.94772 21.5 7.5 21.5C8.05228 21.5 8.5 21.0523 8.5 20.5C8.5 19.953 8.06072 19.5085 7.51582 19.5001L7.51009 19.5H7.5Z" fill="#353566"/>
<path d="M23 18C23.2761 18 23.5 17.7761 23.5 17.5V16.5C23.5 15.3954 22.6046 14.5 21.5 14.5H16.707L17.8535 13.3536C18.0488 13.1583 18.0488 12.8417 17.8535 12.6464C17.6582 12.4512 17.3416 12.4512 17.1464 12.6464L15.1464 14.6464C15.0034 14.7894 14.9606 15.0045 15.038 15.1913C15.1154 15.3782 15.2977 15.5 15.4999 15.5H21.5C22.0523 15.5 22.5 15.9477 22.5 16.5V17.5C22.5 17.7761 22.7239 18 23 18Z" fill="#353566"/>
<path d="M14.5 18.5V17.5C14.5 17.2239 14.7239 17 15 17C15.2761 17 15.5 17.2239 15.5 17.5V18.5C15.5 19.0523 15.9477 19.5 16.5 19.5H22.5C22.7022 19.5 22.8846 19.6218 22.9619 19.8087C23.0393 19.9955 22.9965 20.2106 22.8535 20.3536L20.8535 22.3536C20.6582 22.5488 20.3416 22.5488 20.1464 22.3535C19.9511 22.1583 19.9511 21.8417 20.1464 21.6464L21.2929 20.5H16.5C15.3954 20.5 14.5 19.6046 14.5 18.5Z" fill="#353566"/>
</svg>
