<svg width="24" height="24" viewBox="0 0 24 24" fill="none" xmlns="http://www.w3.org/2000/svg">
<path fill-rule="evenodd" clip-rule="evenodd" d="M2.6 2.49994C3.02829 2.49994 3.31944 2.50033 3.54448 2.51872C3.76369 2.53663 3.87579 2.56909 3.95399 2.60893C4.14215 2.70481 4.29513 2.85779 4.39101 3.04595C4.43085 3.12415 4.46331 3.23625 4.48122 3.45546C4.49961 3.6805 4.5 3.97165 4.5 4.39994L4.5 14.5218C4.5 15.2033 4.49999 15.7454 4.53572 16.1826C4.57231 16.6305 4.64884 17.0123 4.82698 17.3619C5.1146 17.9264 5.57354 18.3853 6.13803 18.673C6.48765 18.8511 6.86949 18.9276 7.31729 18.9642C7.75454 18.9999 8.2965 18.9999 8.97794 18.9999H9.17712C8.76189 19.3664 8.5 19.9026 8.5 20.5C8.5 21.6045 9.39543 22.5 10.5 22.5C11.6046 22.5 12.5 21.6045 12.5 20.5C12.5 19.9026 12.2381 19.3664 11.8229 18.9999H17.1771C16.7619 19.3664 16.5 19.9026 16.5 20.5C16.5 21.6045 17.3954 22.5 18.5 22.5C19.6046 22.5 20.5 21.6045 20.5 20.5C20.5 19.9026 20.2381 19.3664 19.8229 18.9999H22C22.2761 18.9999 22.5 18.7761 22.5 18.4999C22.5 18.2238 22.2761 17.9999 22 17.9999H9C8.29168 17.9999 7.79052 17.9995 7.39872 17.9675C7.01276 17.936 6.77717 17.8763 6.59202 17.782C6.21569 17.5902 5.90973 17.2842 5.71799 16.9079C5.62364 16.7228 5.56393 16.4872 5.5324 16.1012C5.50039 15.7094 5.5 15.2083 5.5 14.4999L5.5 4.37929C5.50001 3.97681 5.50001 3.64462 5.4779 3.37403C5.45494 3.09298 5.40566 2.83463 5.28201 2.59196C5.09027 2.21563 4.78431 1.90967 4.40798 1.71793C4.16531 1.59428 3.90696 1.545 3.62591 1.52204C3.35533 1.49993 3.02316 1.49993 2.62071 1.49994L2 1.49994C1.72386 1.49994 1.5 1.7238 1.5 1.99994C1.5 2.27608 1.72386 2.49994 2 2.49994L2.6 2.49994ZM10.5 19.5C9.94772 19.5 9.5 19.9477 9.5 20.5C9.5 21.0523 9.94772 21.5 10.5 21.5C11.0523 21.5 11.5 21.0523 11.5 20.5C11.5 19.9477 11.0523 19.5 10.5 19.5ZM17.5 20.5C17.5 19.9477 17.9477 19.5 18.5 19.5C19.0523 19.5 19.5 19.9477 19.5 20.5C19.5 21.0523 19.0523 21.5 18.5 21.5C17.9477 21.5 17.5 21.0523 17.5 20.5Z" fill="#353566"/>
<path d="M14.5 7.20713L12.8536 8.85356C12.6583 9.04882 12.3417 9.04882 12.1465 8.85356C11.9512 8.6583 11.9512 8.34172 12.1465 8.14645L14.6465 5.64643C14.8417 5.45117 15.1583 5.45116 15.3536 5.64643L17.8536 8.14639C18.0488 8.34165 18.0488 8.65823 17.8536 8.8535C17.6583 9.04876 17.3417 9.04876 17.1465 8.8535L15.5 7.20705V12C15.5 12.2761 15.2761 12.5 15 12.5C14.7239 12.5 14.5 12.2761 14.5 12V7.20713Z" fill="#353566"/>
<path fill-rule="evenodd" clip-rule="evenodd" d="M13.7778 2.49997C12.9566 2.49997 12.3095 2.49996 11.7889 2.5425C11.2577 2.5859 10.8141 2.67606 10.411 2.88145C9.75247 3.217 9.21703 3.75244 8.88148 4.411C8.67609 4.8141 8.58593 5.25768 8.54253 5.78886C8.49999 6.30951 8.5 6.95648 8.5 7.77775L8.5 10.2222C8.5 11.0434 8.49999 11.6904 8.54253 12.2111C8.58593 12.7423 8.67609 13.1858 8.88148 13.5889C9.21703 14.2475 9.75247 14.7829 10.411 15.1185C10.8141 15.3239 11.2577 15.414 11.7889 15.4574C12.3095 15.5 12.9565 15.5 13.7778 15.5H16.2222C17.0435 15.5 17.6905 15.5 18.2111 15.4574C18.7423 15.414 19.1859 15.3239 19.589 15.1185C20.2475 14.7829 20.783 14.2475 21.1185 13.5889C21.3239 13.1858 21.4141 12.7423 21.4575 12.2111C21.5 11.6904 21.5 11.0435 21.5 10.2223V7.77775C21.5 6.95653 21.5 6.30949 21.4575 5.78886C21.4141 5.25768 21.3239 4.8141 21.1185 4.411C20.783 3.75244 20.2475 3.217 19.589 2.88145C19.1859 2.67606 18.7423 2.5859 18.2111 2.5425C17.6905 2.49997 17.0436 2.49997 16.2224 2.49997L13.7778 2.49997ZM10.865 3.77245C11.1037 3.65086 11.401 3.57753 11.8703 3.53918C12.3455 3.50036 12.9517 3.49997 13.8 3.49997L16.2 3.49997C17.0483 3.49997 17.6545 3.50036 18.1297 3.53918C18.599 3.57753 18.8963 3.65086 19.135 3.77245C19.6054 4.01214 19.9878 4.39459 20.2275 4.86499C20.3491 5.10363 20.4224 5.40096 20.4608 5.87029C20.4996 6.34546 20.5 6.95164 20.5 7.79997V10.2C20.5 11.0483 20.4996 11.6545 20.4608 12.1296C20.4224 12.599 20.3491 12.8963 20.2275 13.1349C19.9878 13.6054 19.6054 13.9878 19.135 14.2275C18.8963 14.3491 18.599 14.4224 18.1297 14.4608C17.6545 14.4996 17.0483 14.5 16.2 14.5H13.8C12.9517 14.5 12.3455 14.4996 11.8703 14.4608C11.401 14.4224 11.1037 14.3491 10.865 14.2275C10.3946 13.9878 10.0122 13.6054 9.77248 13.1349C9.65089 12.8963 9.57756 12.599 9.53921 12.1296C9.50039 11.6545 9.5 11.0483 9.5 10.2V7.79997C9.5 6.95164 9.50039 6.34546 9.53921 5.87029C9.57756 5.40096 9.65089 5.10363 9.77248 4.86499C10.0122 4.39459 10.3946 4.01214 10.865 3.77245Z" fill="#353566"/>
</svg>
