<svg width="24" height="24" viewBox="0 0 24 24" fill="none" xmlns="http://www.w3.org/2000/svg">
<path d="M10.5 10.5C10.7761 10.5 11 10.2761 11 10C11 9.72386 10.7761 9.5 10.5 9.5H6.5C6.22386 9.5 6 9.72386 6 10C6 10.2761 6.22386 10.5 6.5 10.5H10.5Z" fill="#353566"/>
<path d="M16.5 13C16.5 12.5858 16.8358 12.25 17.25 12.25C17.6642 12.25 18.0001 12.5858 18.0001 13C18.0001 13.4142 17.6643 13.75 17.2501 13.75C16.8359 13.75 16.5 13.4142 16.5 13Z" fill="#353566"/>
<path d="M13.75 12.25C13.3358 12.25 13 12.5858 13 13C13 13.4142 13.3358 13.75 13.75 13.75C14.1642 13.75 14.5001 13.4142 14.5001 13C14.5001 12.5858 14.1642 12.25 13.75 12.25Z" fill="#353566"/>
<path d="M9.5 13C9.5 12.5858 9.83579 12.25 10.25 12.25C10.6642 12.25 11.0001 12.5858 11.0001 13C11.0001 13.4142 10.6643 13.75 10.2501 13.75C9.83589 13.75 9.5 13.4142 9.5 13Z" fill="#353566"/>
<path d="M6.75 12.25C6.33579 12.25 6 12.5858 6 13C6 13.4142 6.33579 13.75 6.75 13.75C7.16421 13.75 7.5001 13.4142 7.5001 13C7.5001 12.5858 7.16421 12.25 6.75 12.25Z" fill="#353566"/>
<path d="M16.5 10C16.5 9.58579 16.8358 9.25 17.25 9.25C17.6642 9.25 18.0001 9.58579 18.0001 10C18.0001 10.4142 17.6643 10.75 17.2501 10.75C16.8359 10.75 16.5 10.4142 16.5 10Z" fill="#353566"/>
<path d="M13.75 9.25C13.3358 9.25 13 9.58579 13 10C13 10.4142 13.3358 10.75 13.75 10.75C14.1642 10.75 14.5001 10.4142 14.5001 10C14.5001 9.58579 14.1642 9.25 13.75 9.25Z" fill="#353566"/>
<path fill-rule="evenodd" clip-rule="evenodd" d="M20 2.5H17.5V5.5H18.5998C19.9474 5.5 21.1297 6.39861 21.4903 7.69707L23.1717 13.7498C23.3895 14.5342 23.5 15.3445 23.5 16.1586V20C23.5 21.3807 22.3807 22.5 21 22.5H3C1.61929 22.5 0.5 21.3807 0.5 20V16.1586C0.5 15.3445 0.610454 14.5342 0.828339 13.7498L2.50966 7.69707C2.87034 6.39861 4.05259 5.5 5.40021 5.5H16.5V2.5H14C13.7239 2.5 13.5 2.27614 13.5 2C13.5 1.72386 13.7239 1.5 14 1.5H20C20.2761 1.5 20.5 1.72386 20.5 2C20.5 2.27614 20.2761 2.5 20 2.5ZM5.40021 6.5C4.5018 6.5 3.71363 7.09907 3.47318 7.96471L1.79186 14.0175C1.59818 14.7147 1.5 15.435 1.5 16.1586V16.5H22.5V16.1586C22.5 15.435 22.4018 14.7147 22.2081 14.0175L20.5268 7.96471C20.2864 7.09907 19.4982 6.5 18.5998 6.5H5.40021ZM1.5 17.5H22.5V20C22.5 20.8284 21.8284 21.5 21 21.5H3C2.17157 21.5 1.5 20.8284 1.5 20V17.5Z" fill="#353566"/>
</svg>
