<svg width="24" height="24" viewBox="0 0 24 24" fill="none" xmlns="http://www.w3.org/2000/svg">
<path fill-rule="evenodd" clip-rule="evenodd" d="M12.0058 0.500033L12 0.5L11.9942 0.500033L7.88034 0.500016C7.07148 0.499793 6.54337 0.499647 6.06688 0.663997C5.64651 0.808994 5.26362 1.04563 4.94594 1.35678C4.58585 1.70946 4.3498 2.18189 3.98827 2.90545L1.79321 7.29559C1.71114 7.45961 1.64907 7.58367 1.60442 7.71636C1.56497 7.83363 1.53648 7.95431 1.51933 8.07684C1.49992 8.2155 1.49995 8.35422 1.50001 8.53762L1.50001 16.2222C1.50001 17.0435 1.5 17.6905 1.54254 18.2111C1.58594 18.7423 1.6761 19.1859 1.88149 19.589C2.21704 20.2476 2.75248 20.783 3.41104 21.1186C3.81415 21.3239 4.25772 21.4141 4.7889 21.4575C5.30955 21.5 5.95653 21.5 6.77779 21.5H14.0243C14.3004 21.5 14.5243 21.2762 14.5243 21C14.5243 20.7239 14.3004 20.5 14.0243 20.5H6.80001C5.95168 20.5 5.34551 20.4996 4.87033 20.4608C4.401 20.4225 4.10367 20.3491 3.86503 20.2275C3.39463 19.9879 3.01218 19.6054 2.77249 19.135C2.6509 18.8964 2.57757 18.599 2.53922 18.1297C2.5004 17.6545 2.50001 17.0484 2.50001 16.2L2.50006 8.5H21.5L21.5 11.3413C21.5 11.6174 21.7239 11.8413 22 11.8413C22.2762 11.8413 22.5 11.6174 22.5 11.3413L22.5 8.53763C22.5001 8.35422 22.5001 8.2155 22.4807 8.07684C22.4635 7.95431 22.4351 7.83363 22.3956 7.71637C22.351 7.58366 22.2889 7.45961 22.2068 7.29558L20.0118 2.90545C19.6502 2.18188 19.4142 1.70946 19.0541 1.35678C18.7364 1.04563 18.3535 0.808994 17.9331 0.663997C17.4567 0.499647 16.9285 0.499793 16.1197 0.500016L12.0058 0.500033ZM21.191 7.5H12.5V1.50003H16.0279C16.9615 1.50003 17.3091 1.50656 17.6071 1.60934C17.8873 1.70601 18.1426 1.86376 18.3544 2.0712C18.5796 2.29177 18.7408 2.59971 19.1584 3.43479L21.191 7.5ZM11.5 7.5V1.50003H7.97215C7.0385 1.50003 6.69095 1.50656 6.39295 1.60934C6.1127 1.70601 5.85745 1.86376 5.64566 2.0712C5.42045 2.29177 5.25919 2.59971 4.84165 3.43479L2.80904 7.5H11.5Z" fill="#353566"/>
<path d="M9.5 16C9.5 16.2761 9.27614 16.5 9 16.5H6C5.72386 16.5 5.5 16.2761 5.5 16C5.5 15.7239 5.72386 15.5 6 15.5H9C9.27614 15.5 9.5 15.7239 9.5 16Z" fill="#353566"/>
<path d="M19 13.7749V13C19 12.7239 19.2239 12.5 19.5 12.5C19.7761 12.5 20 12.7239 20 13V13.7708C20.3289 13.801 20.6294 13.8671 20.9344 13.988C21.3749 14.1627 21.794 14.4404 22.3019 14.8249C22.522 14.9916 22.5653 15.3052 22.3987 15.5254C22.232 15.7455 21.9183 15.7889 21.6982 15.6222C21.206 15.2495 20.8752 15.0404 20.5657 14.9176C20.2679 14.7995 19.9604 14.75 19.5 14.75C18.821 14.75 18.3089 14.91 17.9808 15.1476C17.6677 15.3743 17.5 15.6843 17.5 16.0817C17.5 16.573 17.7356 16.8639 18.1193 17.0786C18.5345 17.311 19.0791 17.4229 19.5822 17.5068C20.0791 17.5896 20.7845 17.7214 21.3693 18.0488C21.9856 18.3938 22.5 18.9788 22.5 19.9183C22.5 20.6495 22.1677 21.2554 21.6058 21.6623C21.1725 21.9761 20.6194 22.1616 20 22.2251V23C20 23.2761 19.7761 23.5 19.5 23.5C19.2239 23.5 19 23.2761 19 23V22.2292C18.6711 22.199 18.3706 22.1329 18.0657 22.0119C17.6252 21.8372 17.206 21.5596 16.6982 21.175C16.478 21.0083 16.4347 20.6947 16.6014 20.4746C16.7681 20.2544 17.0817 20.2111 17.3019 20.3778C17.7941 20.7505 18.1249 20.9596 18.4344 21.0824C18.7322 21.2005 19.0396 21.25 19.5 21.25C20.179 21.25 20.6912 21.09 21.0193 20.8524C21.3323 20.6257 21.5 20.3157 21.5 19.9183C21.5 19.427 21.2644 19.1361 20.8808 18.9214C20.4656 18.689 19.921 18.5771 19.4178 18.4932C18.921 18.4104 18.2156 18.2786 17.6308 17.9512C17.0144 17.6062 16.5 17.0212 16.5 16.0817C16.5 15.3505 16.8323 14.7446 17.3942 14.3377C17.8275 14.0239 18.3806 13.8384 19 13.7749Z" fill="#353566"/>
</svg>
