<svg width="24" height="24" viewBox="0 0 24 24" fill="none" xmlns="http://www.w3.org/2000/svg">
<path d="M10.5 8C10.5 7.72386 10.7239 7.5 11 7.5H16C16.2761 7.5 16.5 7.72386 16.5 8C16.5 8.27614 16.2761 8.5 16 8.5H11C10.7239 8.5 10.5 8.27614 10.5 8Z" fill="#353566"/>
<path d="M11 11.5C10.7239 11.5 10.5 11.7239 10.5 12C10.5 12.2761 10.7239 12.5 11 12.5H16C16.2761 12.5 16.5 12.2761 16.5 12C16.5 11.7239 16.2761 11.5 16 11.5H11Z" fill="#353566"/>
<path d="M10.5 16C10.5 15.7239 10.7239 15.5 11 15.5H16C16.2761 15.5 16.5 15.7239 16.5 16C16.5 16.2761 16.2761 16.5 16 16.5H11C10.7239 16.5 10.5 16.2761 10.5 16Z" fill="#353566"/>
<path d="M8 7.25C7.58579 7.25 7.25 7.58579 7.25 8C7.25 8.41421 7.58579 8.75 8 8.75C8.41421 8.75 8.7501 8.41421 8.7501 8C8.7501 7.58579 8.41421 7.25 8 7.25Z" fill="#353566"/>
<path d="M7.25 12C7.25 11.5858 7.58579 11.25 8 11.25C8.41421 11.25 8.7501 11.5858 8.7501 12C8.7501 12.4142 8.41431 12.75 8.0001 12.75C7.58589 12.75 7.25 12.4142 7.25 12Z" fill="#353566"/>
<path d="M8 15.25C7.58579 15.25 7.25 15.5858 7.25 16C7.25 16.4142 7.58579 16.75 8 16.75C8.41421 16.75 8.7501 16.4142 8.7501 16C8.7501 15.5858 8.41421 15.25 8 15.25Z" fill="#353566"/>
<path fill-rule="evenodd" clip-rule="evenodd" d="M7.85796 2.05716C8.74236 1.25957 10.1041 1.3228 10.9108 2.19891L11.0189 2.3164C11.5472 2.8901 12.4528 2.8901 12.9811 2.3164L13.0892 2.19891C13.8959 1.3228 15.2576 1.25957 16.142 2.05716L16.9676 2.80171C17.3505 3.14699 17.9372 3.13006 18.2995 2.76329C19.199 1.85277 20.75 2.48969 20.75 3.76955V20.2407C20.75 21.5206 19.1989 22.1575 18.2995 21.2469C17.9372 20.8801 17.3505 20.8632 16.9676 21.2084L16.1524 21.9436C15.263 22.7457 13.8912 22.6724 13.0924 21.7801L12.9854 21.6606C12.4597 21.0734 11.5403 21.0734 11.0146 21.6606L10.9076 21.7801C10.1088 22.6724 8.73698 22.7457 7.84762 21.9436L7.0324 21.2084C6.64954 20.8632 6.06282 20.8801 5.70052 21.2469C4.80109 22.1575 3.25 21.5206 3.25 20.2407V3.76955C3.25 2.48969 4.80104 1.85277 5.70049 2.76329C6.0628 3.13006 6.64951 3.14699 7.03236 2.80171L7.85796 2.05716ZM10.1751 2.87627C9.73978 2.40348 9.00494 2.36936 8.52768 2.79978L7.70208 3.54433C6.92221 4.24764 5.7271 4.21316 4.98907 3.46606C4.7178 3.19145 4.25 3.38354 4.25 3.76955V20.2407C4.25 20.6267 4.71781 20.8188 4.98907 20.5442C5.72708 19.797 6.92223 19.7625 7.70212 20.4658L8.51734 21.201C8.99551 21.6323 9.73306 21.5928 10.1625 21.1131L10.2695 20.9936C11.1927 19.9624 12.8073 19.9624 13.7305 20.9936L13.8375 21.1131C14.2669 21.5928 15.0045 21.6323 15.4827 21.201L16.2979 20.4658C17.0778 19.7625 18.2729 19.797 19.0109 20.5442C19.2822 20.8188 19.75 20.6267 19.75 20.2407V3.76955C19.75 3.38354 19.2822 3.19145 19.0109 3.46606C18.2729 4.21316 17.0778 4.24764 16.2979 3.54433L15.4723 2.79978C14.9951 2.36936 14.2602 2.40348 13.8249 2.87627L13.7167 2.99376C12.7924 3.99765 11.2076 3.99765 10.2833 2.99376L10.1751 2.87627Z" fill="#353566"/>
</svg>
