<svg width="24" height="24" viewBox="0 0 24 24" fill="none" xmlns="http://www.w3.org/2000/svg">
<path fill-rule="evenodd" clip-rule="evenodd" d="M10.064 7.75977C9.13163 7.75977 8.37478 8.16212 7.86132 8.7962C7.35568 9.42061 7.09998 10.2494 7.09998 11.1085C7.09998 12.7535 8.10423 14.0907 9.13183 15.0342C10.1697 15.9871 11.3153 16.6164 11.7764 16.847L12 16.9588L12.2236 16.847C12.6847 16.6164 13.8302 15.9871 14.8681 15.0342C15.8957 14.0907 16.9 12.7535 16.9 11.1085C16.9 10.2494 16.6443 9.42061 16.1386 8.7962C15.6252 8.16212 14.8683 7.75977 13.936 7.75977C13.119 7.75977 12.4468 8.15568 12 8.54262C11.5531 8.15568 10.881 7.75977 10.064 7.75977ZM8.09998 11.1085C8.09998 10.4388 8.30016 9.84328 8.63846 9.42552C8.96895 9.01741 9.4441 8.75977 10.064 8.75977C10.7366 8.75977 11.3216 9.22139 11.6179 9.57232L12 10.0248L12.382 9.57232C12.6783 9.22139 13.2634 8.75977 13.936 8.75977C14.5558 8.75977 15.031 9.01741 15.3615 9.42552C15.6998 9.84328 15.9 10.4388 15.9 11.1085C15.9 12.3348 15.1442 13.4231 14.1918 14.2975C13.3883 15.0353 12.5029 15.5662 12 15.8364C11.497 15.5662 10.6117 15.0353 9.80812 14.2975C8.85572 13.4231 8.09998 12.3348 8.09998 11.1085Z" fill="#353566"/>
<path fill-rule="evenodd" clip-rule="evenodd" d="M10.9108 2.19891C10.1041 1.3228 8.74236 1.25957 7.85796 2.05716L7.03236 2.80171C6.64951 3.14699 6.0628 3.13006 5.70049 2.76329C4.80104 1.85277 3.25 2.48969 3.25 3.76955V20.2407C3.25 21.5206 4.80109 22.1575 5.70052 21.2469C6.06282 20.8801 6.64954 20.8632 7.0324 21.2084L7.84762 21.9436C8.73698 22.7457 10.1088 22.6724 10.9076 21.7801L11.0146 21.6606C11.5403 21.0734 12.4597 21.0734 12.9854 21.6606L13.0924 21.7801C13.8912 22.6724 15.263 22.7457 16.1524 21.9436L16.9676 21.2084C17.3505 20.8632 17.9372 20.8801 18.2995 21.2469C19.1989 22.1575 20.75 21.5206 20.75 20.2407V3.76955C20.75 2.48969 19.199 1.85277 18.2995 2.76329C17.9372 3.13006 17.3505 3.14699 16.9676 2.80171L16.142 2.05716C15.2576 1.25957 13.8959 1.3228 13.0892 2.19891L12.9811 2.3164C12.4528 2.8901 11.5472 2.8901 11.0189 2.3164L10.9108 2.19891ZM8.52768 2.79978C9.00494 2.36936 9.73978 2.40348 10.1751 2.87627L10.2833 2.99376C11.2076 3.99765 12.7924 3.99765 13.7167 2.99376L13.8249 2.87627C14.2602 2.40348 14.9951 2.36936 15.4723 2.79978L16.2979 3.54433C17.0778 4.24764 18.2729 4.21316 19.0109 3.46606C19.2822 3.19145 19.75 3.38354 19.75 3.76955V20.2407C19.75 20.6267 19.2822 20.8188 19.0109 20.5442C18.2729 19.797 17.0778 19.7625 16.2979 20.4658L15.4827 21.201C15.0045 21.6323 14.2669 21.5928 13.8375 21.1131L13.7305 20.9936C12.8073 19.9624 11.1927 19.9624 10.2695 20.9936L10.1625 21.1131C9.73306 21.5928 8.99551 21.6323 8.51734 21.201L7.70212 20.4658C6.92223 19.7625 5.72708 19.797 4.98907 20.5442C4.71781 20.8188 4.25 20.6267 4.25 20.2407V3.76955C4.25 3.38354 4.7178 3.19145 4.98907 3.46606C5.7271 4.21316 6.92221 4.24764 7.70208 3.54433L8.52768 2.79978Z" fill="#353566"/>
</svg>
