<svg width="24" height="24" viewBox="0 0 24 24" fill="none" xmlns="http://www.w3.org/2000/svg">
<path d="M11.5 8.22833V7.60021C11.5 7.32407 11.7239 7.10021 12 7.10021C12.2761 7.10021 12.5 7.32407 12.5 7.60021V8.22418C12.773 8.25332 13.0268 8.31175 13.2843 8.41389C13.6798 8.57075 14.054 8.8192 14.5018 9.15829C14.7219 9.32499 14.7653 9.63859 14.5986 9.85874C14.4319 10.0789 14.1183 10.1222 13.8981 9.95553C13.4659 9.62827 13.1801 9.44836 12.9156 9.34345C12.6628 9.24317 12.4004 9.2002 12 9.2002C11.411 9.2002 10.9738 9.33909 10.6982 9.53867C10.4377 9.72739 10.3 9.98242 10.3 10.3121C10.3 10.7176 10.4906 10.9559 10.8142 11.137C11.1694 11.3359 11.639 11.4331 12.0822 11.507C12.519 11.5798 13.1494 11.697 13.6742 11.9908C14.2306 12.3022 14.7 12.8347 14.7 13.6883C14.7 14.3518 14.3977 14.9027 13.8882 15.2716C13.5093 15.546 13.0316 15.7103 12.5 15.772V16.4004C12.5 16.6765 12.2761 16.9004 12 16.9004C11.7239 16.9004 11.5 16.6765 11.5 16.4004V15.7762C11.2269 15.7471 10.9732 15.6886 10.7156 15.5865C10.3201 15.4296 9.94593 15.1811 9.49812 14.8421C9.27797 14.6754 9.23464 14.3618 9.40134 14.1416C9.56804 13.9215 9.88164 13.8781 10.1018 14.0448C10.534 14.3721 10.8198 14.552 11.0843 14.6569C11.3371 14.7572 11.5996 14.8002 12 14.8002C12.5889 14.8002 13.0261 14.6613 13.3017 14.4617C13.5623 14.273 13.7 14.018 13.7 13.6883C13.7 13.2828 13.5093 13.0445 13.1857 12.8634C12.8305 12.6645 12.3609 12.5673 11.9178 12.4934C11.4809 12.4206 10.8505 12.3034 10.3257 12.0096C9.76934 11.6982 9.29995 11.1657 9.29995 10.3121C9.29995 9.64862 9.60225 9.0977 10.1117 8.72876C10.4906 8.45434 10.9684 8.2901 11.5 8.22833Z" fill="#353566"/>
<path fill-rule="evenodd" clip-rule="evenodd" d="M10.9108 2.19989C10.1041 1.32378 8.74236 1.26055 7.85796 2.05814L7.03236 2.80269C6.64951 3.14796 6.0628 3.13104 5.70049 2.76427C4.80104 1.85375 3.25 2.49066 3.25 3.77053V20.2417C3.25 21.5216 4.80109 22.1585 5.70052 21.2479C6.06282 20.8811 6.64954 20.8641 7.0324 21.2094L7.84762 21.9446C8.73698 22.7467 10.1088 22.6734 10.9076 21.7811L11.0146 21.6616C11.5403 21.0744 12.4597 21.0743 12.9854 21.6616L13.0924 21.7811C13.8912 22.6734 15.263 22.7467 16.1524 21.9446L16.9676 21.2094C17.3505 20.8641 17.9372 20.8811 18.2995 21.2479C19.1989 22.1585 20.75 21.5216 20.75 20.2417V3.77053C20.75 2.49066 19.199 1.85375 18.2995 2.76427C17.9372 3.13104 17.3505 3.14796 16.9676 2.80269L16.142 2.05814C15.2576 1.26055 13.8959 1.32378 13.0892 2.19989L12.9811 2.31738C12.4528 2.89108 11.5472 2.89108 11.0189 2.31738L10.9108 2.19989ZM8.52768 2.80075C9.00494 2.37034 9.73978 2.40446 10.1751 2.87725L10.2833 2.99474C11.2076 3.99862 12.7924 3.99863 13.7167 2.99474L13.8249 2.87725C14.2602 2.40446 14.9951 2.37034 15.4723 2.80075L16.2979 3.54531C17.0778 4.24862 18.2729 4.21414 19.0109 3.46704C19.2822 3.19242 19.75 3.38452 19.75 3.77053V20.2417C19.75 20.6277 19.2822 20.8198 19.0109 20.5451C18.2729 19.798 17.0778 19.7635 16.2979 20.4668L15.4827 21.202C15.0045 21.6332 14.2669 21.5938 13.8375 21.1141L13.7305 20.9946C12.8073 19.9633 11.1927 19.9634 10.2695 20.9946L10.1625 21.1141C9.73306 21.5938 8.99551 21.6332 8.51734 21.202L7.70212 20.4668C6.92223 19.7635 5.72708 19.798 4.98907 20.5451C4.71781 20.8198 4.25 20.6277 4.25 20.2417V3.77053C4.25 3.38452 4.7178 3.19242 4.98907 3.46704C5.7271 4.21414 6.92221 4.24862 7.70208 3.54531L8.52768 2.80075Z" fill="#353566"/>
</svg>
