<svg width="24" height="24" viewBox="0 0 24 24" fill="none" xmlns="http://www.w3.org/2000/svg">
<path d="M9.16075 2.19891C8.35407 1.3228 6.99236 1.25957 6.10796 2.05716L5.28236 2.80171C4.89951 3.14699 4.3128 3.13006 3.95049 2.76329C3.05104 1.85277 1.5 2.48969 1.5 3.76955V20.2407C1.5 21.5206 3.05109 22.1575 3.95052 21.2469C4.31282 20.8801 4.89954 20.8632 5.2824 21.2084L6.09762 21.9436C6.98698 22.7457 8.3588 22.6724 9.1576 21.7801L9.26455 21.6606C9.79028 21.0734 10.7097 21.0734 11.2354 21.6606L11.3424 21.7801C11.6611 22.1361 12.0724 22.3624 12.5072 22.4538C12.7775 22.5107 13.0426 22.3377 13.0995 22.0675C13.1563 21.7972 12.9833 21.5321 12.7131 21.4753C12.4795 21.4261 12.2594 21.3052 12.0875 21.1131L11.9805 20.9936C11.0573 19.9624 9.44271 19.9624 8.5195 20.9936L8.41255 21.1131C7.98307 21.5928 7.24551 21.6323 6.76734 21.201L5.95212 20.4658C5.17223 19.7625 3.97708 19.797 3.23907 20.5442C2.96781 20.8188 2.5 20.6267 2.5 20.2407V3.76955C2.5 3.38354 2.9678 3.19145 3.23907 3.46606C3.9771 4.21316 5.17221 4.24764 5.95208 3.54433L6.77768 2.79978C7.25494 2.36936 7.98978 2.40348 8.4251 2.87627L8.53328 2.99376C9.45762 3.99765 11.0424 3.99765 11.9667 2.99376L12.0749 2.87627C12.5102 2.40348 13.2451 2.36936 13.7223 2.79978L14.5479 3.54433C15.3278 4.24764 16.5229 4.21316 17.2609 3.46606C17.5322 3.19145 18 3.38354 18 3.76955V10.7592C18 11.0354 18.2239 11.2592 18.5 11.2592C18.7761 11.2592 19 11.0354 19 10.7592V3.76955C19 2.48969 17.449 1.85277 16.5495 2.76329C16.1872 3.13006 15.6005 3.14699 15.2176 2.80171L14.392 2.05716C13.5076 1.25957 12.1459 1.3228 11.3392 2.19891L11.2311 2.3164C10.7028 2.8901 9.79717 2.8901 9.26893 2.3164L9.16075 2.19891Z" fill="#353566"/>
<path d="M8.25 8C7.97386 8 7.75 8.22386 7.75 8.5C7.75 8.77614 7.97386 9 8.25 9H12.25C12.5261 9 12.75 8.77614 12.75 8.5C12.75 8.22386 12.5261 8 12.25 8H8.25Z" fill="#353566"/>
<path d="M6.25 11.5C5.97386 11.5 5.75 11.7239 5.75 12C5.75 12.2761 5.97386 12.5 6.25 12.5H13.4537C13.7298 12.5 13.9537 12.2761 13.9537 12C13.9537 11.7239 13.7298 11.5 13.4537 11.5H6.25Z" fill="#353566"/>
<path d="M7.25 15C6.97386 15 6.75 15.2239 6.75 15.5C6.75 15.7761 6.97386 16 7.25 16H11.7664C12.0426 16 12.2664 15.7761 12.2664 15.5C12.2664 15.2239 12.0426 15 11.7664 15H7.25Z" fill="#353566"/>
<path d="M22 18C22.2761 18 22.5 17.7761 22.5 17.5V16.5C22.5 15.3954 21.6046 14.5 20.5 14.5H15.707L16.8535 13.3536C17.0488 13.1583 17.0488 12.8417 16.8535 12.6464C16.6582 12.4512 16.3416 12.4512 16.1464 12.6464L14.1464 14.6464C14.0034 14.7894 13.9606 15.0045 14.038 15.1913C14.1154 15.3782 14.2977 15.5 14.4999 15.5H20.5C21.0523 15.5 21.5 15.9477 21.5 16.5V17.5C21.5 17.7761 21.7239 18 22 18Z" fill="#353566"/>
<path d="M13.5 18.5V17.5C13.5 17.2239 13.7239 17 14 17C14.2761 17 14.5 17.2239 14.5 17.5V18.5C14.5 19.0523 14.9477 19.5 15.5 19.5H21.5C21.7022 19.5 21.8846 19.6218 21.9619 19.8087C22.0393 19.9955 21.9965 20.2106 21.8535 20.3536L19.8535 22.3536C19.6582 22.5488 19.3416 22.5488 19.1464 22.3535C18.9511 22.1583 18.9511 21.8417 19.1464 21.6464L20.2929 20.5H15.5C14.3954 20.5 13.5 19.6046 13.5 18.5Z" fill="#353566"/>
</svg>
