<svg width="24" height="24" viewBox="0 0 24 24" fill="none" xmlns="http://www.w3.org/2000/svg">
<path fill-rule="evenodd" clip-rule="evenodd" d="M5.80337 1.50003C5.09849 1.49971 4.61325 1.4995 4.19016 1.65684C3.70698 1.83652 3.29115 2.16119 2.99964 2.58637C2.74439 2.95866 2.62691 3.42946 2.45625 4.11337L1.75746 6.90865C1.58647 7.59264 1.5 8.29502 1.5 9.00006C1.5 10.1921 2.32758 11.3727 3.5 11.8162V21.5H2C1.72386 21.5 1.5 21.7239 1.5 22C1.5 22.2761 1.72386 22.5 2 22.5H3.98183C3.98786 22.5002 3.99392 22.5003 4 22.5003H20C20.0061 22.5003 20.0121 22.5002 20.0181 22.5H22C22.2761 22.5 22.5 22.2761 22.5 22C22.5 21.7239 22.2761 21.5 22 21.5H20.5V11.8162C21.6724 11.3727 22.5 10.1921 22.5 9.00006C22.5 8.29502 22.4135 7.59264 22.2425 6.90865L21.5437 4.11338C21.3731 3.42947 21.2556 2.95866 21.0004 2.58637C20.7089 2.16119 20.293 1.83652 19.8098 1.65684C19.3868 1.4995 18.9015 1.49971 18.1966 1.50003H5.80337ZM19.5 12.0001C18.509 12.0001 17.5566 11.5811 17 10.8912C16.4434 11.5811 15.491 12.0001 14.5 12.0001C13.509 12.0001 12.5566 11.5811 12 10.8912C11.4434 11.5811 10.491 12.0001 9.5 12.0001C8.50903 12.0001 7.55661 11.5811 7 10.8912C6.44339 11.5811 5.49097 12.0001 4.5 12.0001V21.5H9V17.0809C8.99999 16.8173 8.99998 16.5899 9.01528 16.4026C9.03144 16.2049 9.06709 16.0083 9.16349 15.8191C9.3073 15.5369 9.53677 15.3074 9.81901 15.1636C10.0082 15.0672 10.2048 15.0315 10.4025 15.0154C10.5898 15.0001 10.8172 15.0001 11.0807 15.0001H12.9193C13.1828 15.0001 13.4102 15.0001 13.5975 15.0154C13.7952 15.0315 13.9918 15.0672 14.181 15.1636C14.4632 15.3074 14.6927 15.5369 14.8365 15.8191C14.9329 16.0083 14.9686 16.2049 14.9847 16.4026C15 16.5899 15 16.8173 15 17.0808V21.5H19.5V12.0001ZM9.5 11.0001C8.28555 11.0001 7.5 10.2301 7.5 9.50006C7.5 9.22391 7.27614 9.00006 7 9.00006C6.72386 9.00006 6.5 9.22391 6.5 9.50006C6.5 10.2301 5.71445 11.0001 4.5 11.0001C3.412 11.0001 2.5 9.99078 2.5 9.00006C2.5 8.37678 2.57644 7.75585 2.72761 7.15118L3.40293 4.44988C3.60672 3.63474 3.68422 3.3563 3.8244 3.15184C3.99931 2.89674 4.24881 2.70194 4.53872 2.59412C4.77107 2.50772 5.05999 2.50006 5.90022 2.50006H18.0998C18.94 2.50006 19.2289 2.50772 19.4613 2.59412C19.7512 2.70194 20.0007 2.89674 20.1756 3.15184C20.3158 3.3563 20.3933 3.63474 20.5971 4.44988L21.2724 7.15118C21.4236 7.75585 21.5 8.37678 21.5 9.00006C21.5 9.99078 20.588 11.0001 19.5 11.0001C18.2855 11.0001 17.5 10.2301 17.5 9.50006C17.5 9.22391 17.2761 9.00006 17 9.00006C16.7239 9.00006 16.5 9.22391 16.5 9.50006C16.5 10.2301 15.7145 11.0001 14.5 11.0001C13.2855 11.0001 12.5 10.2301 12.5 9.50006C12.5 9.22391 12.2761 9.00006 12 9.00006C11.7239 9.00006 11.5 9.22391 11.5 9.50006C11.5 10.2301 10.7145 11.0001 9.5 11.0001ZM10 17.1001V21.5L14 21.5V17.1001C14 16.8118 13.9996 16.6257 13.988 16.484C13.9769 16.3482 13.9581 16.2978 13.9455 16.2731C13.8976 16.179 13.8211 16.1025 13.727 16.0546C13.7023 16.042 13.6519 16.0232 13.5161 16.0121C13.3744 16.0005 13.1883 16.0001 12.9 16.0001H11.1C10.8117 16.0001 10.6256 16.0005 10.4839 16.0121C10.3481 16.0232 10.2977 16.042 10.273 16.0546C10.1789 16.1025 10.1024 16.179 10.0545 16.2731C10.0419 16.2978 10.0231 16.3482 10.012 16.484C10.0004 16.6257 10 16.8118 10 17.1001Z" fill="#353566"/>
</svg>
