<svg width="24" height="24" viewBox="0 0 24 24" fill="none" xmlns="http://www.w3.org/2000/svg">
<path d="M6.57755 2.5C5.61647 2.5 4.86451 2.49999 4.26049 2.54935C3.64594 2.59956 3.14062 2.70334 2.68404 2.93597C1.93139 3.31947 1.31947 3.93139 0.935974 4.68404C0.703335 5.14062 0.599556 5.64594 0.549345 6.26049C0.499995 6.86451 0.499997 7.61646 0.5 8.57755V8.76121C0.5 9.01996 0.697416 9.23597 0.955125 9.25919C2.10138 9.36249 3 10.3266 3 11.5C3 12.6734 2.10138 13.6375 0.955124 13.7408C0.697416 13.764 0.5 13.98 0.5 14.2388V14.4224C0.499997 15.3835 0.499995 16.1355 0.549345 16.7395C0.599556 17.3541 0.703335 17.8594 0.935974 18.316C1.31947 19.0686 1.93139 19.6805 2.68404 20.064C3.14062 20.2967 3.64594 20.4004 4.26049 20.4507C4.86451 20.5 5.61646 20.5 6.57754 20.5H11.4851C11.7612 20.5 11.9851 20.2761 11.9851 20C11.9851 19.7239 11.7612 19.5 11.4851 19.5H9V16.5C9 16.2239 8.77614 16 8.5 16C8.22386 16 8 16.2239 8 16.5V19.5H6.6C5.61166 19.5 4.90047 19.4996 4.34192 19.454C3.78921 19.4088 3.43014 19.3219 3.13803 19.173C2.57354 18.8854 2.1146 18.4265 1.82698 17.862C1.67814 17.5699 1.59118 17.2108 1.54602 16.6581C1.50454 16.1503 1.50045 15.5165 1.50004 14.6629C2.93355 14.3242 4 13.0369 4 11.5C4 9.96313 2.93355 8.67582 1.50004 8.33707C1.50045 7.48353 1.50454 6.84966 1.54602 6.34192C1.59118 5.78921 1.67814 5.43014 1.82698 5.13803C2.1146 4.57354 2.57354 4.1146 3.13803 3.82698C3.43014 3.67814 3.78921 3.59118 4.34192 3.54602C4.90047 3.50039 5.61166 3.5 6.6 3.5H8V6.5C8 6.77614 8.22386 7 8.5 7C8.77614 7 9 6.77614 9 6.5V3.5H16.4C17.3883 3.5 18.0995 3.50039 18.6581 3.54602C19.2108 3.59118 19.5699 3.67814 19.862 3.82698C20.4265 4.1146 20.8854 4.57354 21.173 5.13803C21.3104 5.40765 21.3953 5.73487 21.4429 6.21915C21.4912 6.70914 21.4988 7.32602 21.4998 8.16851C21.5002 8.44465 21.7243 8.66823 22.0004 8.66789C22.2766 8.66755 22.5002 8.44342 22.4998 8.16728C22.4988 7.3334 22.4919 6.66762 22.4381 6.12116C22.3838 5.56898 22.279 5.10596 22.064 4.68404C21.6805 3.93139 21.0686 3.31947 20.316 2.93597C19.8594 2.70334 19.3541 2.59956 18.7395 2.54935C18.1355 2.49999 17.3835 2.5 16.4225 2.5H6.57755Z" fill="#353566"/>
<path d="M9 10C9 9.72386 8.77614 9.5 8.5 9.5C8.22386 9.5 8 9.72386 8 10V13C8 13.2761 8.22386 13.5 8.5 13.5C8.77614 13.5 9 13.2761 9 13V10Z" fill="#353566"/>
<path fill-rule="evenodd" clip-rule="evenodd" d="M15.8479 13.6281C16.1578 12.7906 17.3422 12.7906 17.6521 13.6281L17.9505 14.4345C18.2274 15.1827 18.8173 15.7726 19.5655 16.0495L20.3719 16.3479C21.2094 16.6578 21.2094 17.8422 20.3719 18.1521L19.5655 18.4505C18.8173 18.7274 18.2274 19.3173 17.9505 20.0655L17.6521 20.8719C17.3422 21.7094 16.1578 21.7094 15.8479 20.8719L15.5495 20.0655C15.2726 19.3173 14.6827 18.7274 13.9345 18.4505L13.1281 18.1521C12.2906 17.8422 12.2906 16.6578 13.1281 16.3479L13.9345 16.0495C14.6827 15.7726 15.2726 15.1827 15.5495 14.4345L15.8479 13.6281ZM16.75 14.0717L16.4873 14.7816C16.1092 15.8035 15.3035 16.6092 14.2816 16.9873L13.5717 17.25L14.2816 17.5127C15.3035 17.8908 16.1092 18.6965 16.4873 19.7184L16.75 20.4283L17.0127 19.7184C17.3908 18.6965 18.1965 17.8908 19.2184 17.5127L19.9283 17.25L19.2184 16.9873C18.1965 16.6092 17.3908 15.8035 17.0127 14.7816L16.75 14.0717Z" fill="#353566"/>
<path d="M21.1269 11.0883C21.0833 10.9706 20.9167 10.9706 20.8731 11.0883L20.6789 11.6133C20.4962 12.107 20.107 12.4962 19.6133 12.6789L19.0883 12.8731C18.9706 12.9167 18.9706 13.0833 19.0883 13.1269L19.6133 13.3211C20.107 13.5038 20.4962 13.893 20.6789 14.3867L20.8731 14.9117C20.9167 15.0294 21.0833 15.0294 21.1269 14.9117L21.3211 14.3867C21.5038 13.893 21.893 13.5038 22.3867 13.3211L22.9117 13.1269C23.0294 13.0833 23.0294 12.9167 22.9117 12.8731L22.3867 12.6789C21.893 12.4962 21.5038 12.107 21.3211 11.6133L21.1269 11.0883Z" fill="#353566"/>
</svg>
