<svg width="24" height="24" viewBox="0 0 24 24" fill="none" xmlns="http://www.w3.org/2000/svg">
<path d="M6.57755 2.5H16.4224C17.3835 2.5 18.1355 2.49999 18.7395 2.54935C19.3541 2.59956 19.8594 2.70334 20.316 2.93597C21.0686 3.31947 21.6805 3.93139 22.064 4.68404C22.4717 5.48422 22.4961 6.47732 22.4996 8.02624C22.5002 8.30239 22.2769 8.52675 22.0007 8.52738C21.7246 8.528 21.5002 8.30465 21.4996 8.02851C21.4959 6.40537 21.4501 5.68177 21.173 5.13803C20.8854 4.57354 20.4265 4.1146 19.862 3.82698C19.5699 3.67814 19.2108 3.59118 18.6581 3.54602C18.0995 3.50039 17.3883 3.5 16.4 3.5H9V6.5C9 6.77614 8.77614 7 8.5 7C8.22386 7 8 6.77614 8 6.5V3.5H6.6C5.61166 3.5 4.90047 3.50039 4.34192 3.54602C3.78921 3.59118 3.43014 3.67814 3.13803 3.82698C2.57354 4.1146 2.1146 4.57354 1.82698 5.13803C1.67814 5.43014 1.59118 5.78921 1.54602 6.34192C1.50454 6.84966 1.50045 7.48353 1.50004 8.33707C2.93355 8.67582 4 9.96313 4 11.5C4 13.0369 2.93355 14.3242 1.50004 14.6629C1.50045 15.5165 1.50454 16.1503 1.54602 16.6581C1.59118 17.2108 1.67814 17.5699 1.82698 17.862C2.1146 18.4265 2.57354 18.8854 3.13803 19.173C3.43014 19.3219 3.78921 19.4088 4.34192 19.454C4.90047 19.4996 5.61166 19.5 6.6 19.5H8V16.5C8 16.2239 8.22386 16 8.5 16C8.77614 16 9 16.2239 9 16.5V19.5H12.4364C12.7125 19.5 12.9364 19.7239 12.9364 20C12.9364 20.2761 12.7125 20.5 12.4364 20.5H6.57754C5.61646 20.5 4.86451 20.5 4.26049 20.4507C3.64594 20.4004 3.14062 20.2967 2.68404 20.064C1.93139 19.6805 1.31947 19.0686 0.935974 18.316C0.703335 17.8594 0.599556 17.3541 0.549345 16.7395C0.499995 16.1355 0.499997 15.3835 0.5 14.4225V14.2388C0.5 13.98 0.697416 13.764 0.955124 13.7408C2.10138 13.6375 3 12.6734 3 11.5C3 10.3266 2.10138 9.36249 0.955125 9.25919C0.697416 9.23597 0.5 9.01996 0.5 8.76121V8.57756C0.499997 7.61647 0.499995 6.86451 0.549345 6.26049C0.599556 5.64594 0.703335 5.14062 0.935974 4.68404C1.31947 3.93139 1.93139 3.31947 2.68404 2.93597C3.14062 2.70334 3.64594 2.59956 4.26049 2.54935C4.86451 2.49999 5.61647 2.5 6.57755 2.5Z" fill="#353566"/>
<path d="M8.5 9.5C8.77614 9.5 9 9.72386 9 10V13C9 13.2761 8.77614 13.5 8.5 13.5C8.22386 13.5 8 13.2761 8 13V10C8 9.72386 8.22386 9.5 8.5 9.5Z" fill="#353566"/>
<path fill-rule="evenodd" clip-rule="evenodd" d="M14.5 14C13.3954 14 12.5 14.8954 12.5 16C12.5 17.1046 13.3954 18 14.5 18C15.0173 18 15.4887 17.8036 15.8438 17.4813L19.509 19.3139C19.5034 19.3752 19.5005 19.4372 19.5005 19.5C19.5005 20.6046 20.3959 21.5 21.5005 21.5C22.6051 21.5 23.5005 20.6046 23.5005 19.5C23.5005 18.3954 22.6051 17.5 21.5005 17.5C20.8164 17.5 20.2126 17.8434 19.8519 18.3673L16.3957 16.6392C16.4633 16.4385 16.5 16.2235 16.5 16C16.5 15.7765 16.4633 15.5615 16.3957 15.3608L19.8519 13.6327C20.2126 14.1566 20.8164 14.5 21.5005 14.5C22.6051 14.5 23.5005 13.6046 23.5005 12.5C23.5005 11.3954 22.6051 10.5 21.5005 10.5C20.3959 10.5 19.5005 11.3954 19.5005 12.5C19.5005 12.5628 19.5034 12.6248 19.509 12.6861L15.8438 14.5187C15.4888 14.1964 15.0173 14 14.5 14ZM13.5 16C13.5 15.4477 13.9477 15 14.5 15C15.0523 15 15.5 15.4477 15.5 16C15.5 16.5523 15.0523 17 14.5 17C13.9477 17 13.5 16.5523 13.5 16ZM21.5005 11.5C20.9482 11.5 20.5005 11.9477 20.5005 12.5C20.5005 13.0523 20.9482 13.5 21.5005 13.5C22.0528 13.5 22.5005 13.0523 22.5005 12.5C22.5005 11.9477 22.0528 11.5 21.5005 11.5ZM20.5005 19.5C20.5005 18.9477 20.9482 18.5 21.5005 18.5C22.0528 18.5 22.5005 18.9477 22.5005 19.5C22.5005 20.0523 22.0528 20.5 21.5005 20.5C20.9482 20.5 20.5005 20.0523 20.5005 19.5Z" fill="#353566"/>
</svg>
