<svg width="24" height="24" viewBox="0 0 24 24" fill="none" xmlns="http://www.w3.org/2000/svg">
<path d="M15.67 13.5C15.67 13.2239 15.4462 13 15.17 13C14.8939 13 14.67 13.2239 14.67 13.5V14.5001H13.3405L14.1909 11.6428C14.2697 11.3781 14.119 11.0997 13.8543 11.0209C13.5897 10.9421 13.3113 11.0928 13.2325 11.3575L12.1908 14.8575C12.1458 15.0088 12.1749 15.1725 12.2692 15.299C12.3636 15.4256 12.5122 15.5001 12.67 15.5001H14.67V16.5C14.67 16.7762 14.8939 17 15.17 17C15.4462 17 15.67 16.7762 15.67 16.5V15.5001H16.0034C16.2795 15.5001 16.5034 15.2763 16.5034 15.0001C16.5034 14.724 16.2795 14.5001 16.0034 14.5001H15.67V13.5Z" fill="#353566"/>
<path d="M8.74798 12.2916C8.91247 12.1074 9.13043 12.0002 9.45835 12.0002C10.1029 12.0002 10.4167 12.4418 10.4167 12.8336C10.4167 13.061 10.3457 13.2484 10.2713 13.3824C10.2343 13.449 10.1979 13.4996 10.1727 13.5316C10.1602 13.5474 10.1507 13.5583 10.1458 13.5638L10.1428 13.5671L7.64071 16.1525C7.50111 16.2968 7.46132 16.5105 7.53966 16.6954C7.61799 16.8802 7.79927 17.0002 8.00001 17.0002H11.125C11.4012 17.0002 11.625 16.7764 11.625 16.5002C11.625 16.2241 11.4012 16.0002 11.125 16.0002H9.17968L10.8582 14.2658L10.8592 14.2647L10.8673 14.2563C10.8734 14.2499 10.8811 14.2416 10.89 14.2317C10.9079 14.2118 10.931 14.1848 10.9576 14.1512C11.0105 14.0842 11.0783 13.989 11.1454 13.8681C11.2793 13.6271 11.4167 13.2729 11.4167 12.8336C11.4167 11.892 10.6577 11.0002 9.45835 11.0002C8.8696 11.0002 8.37169 11.2116 8.00204 11.6256C7.76854 11.8871 7.50001 12.296 7.50001 12.9169C7.50001 13.1931 7.72387 13.4169 8.00001 13.4169C8.27615 13.4169 8.50001 13.1931 8.50001 12.9169C8.50001 12.6211 8.61607 12.4393 8.74798 12.2916Z" fill="#353566"/>
<path fill-rule="evenodd" clip-rule="evenodd" d="M7.5 6.00024C7.5 3.51496 9.51472 1.50024 12 1.50024C14.4853 1.50024 16.5 3.51496 16.5 6.00024L18.6206 6.00026C19.0231 6.00025 19.3553 6.00025 19.6259 6.02235C19.9069 6.04531 20.1653 6.09459 20.408 6.21824C20.7843 6.40998 21.0903 6.71595 21.282 7.09227C21.4057 7.33494 21.4549 7.59329 21.4779 7.87434C21.5 8.14493 21.5 8.47709 21.5 8.87955V16.4229C21.5 17.384 21.5 18.1359 21.4507 18.7399C21.4004 19.3545 21.2967 19.8598 21.064 20.3164C20.6805 21.069 20.0686 21.6809 19.316 22.0644C18.8594 22.2971 18.3541 22.4009 17.7395 22.4511C17.1355 22.5004 16.3835 22.5004 15.4225 22.5004H8.57754C7.61646 22.5004 6.86451 22.5004 6.26049 22.4511C5.64594 22.4009 5.14062 22.2971 4.68404 22.0644C3.93139 21.6809 3.31947 21.069 2.93597 20.3164C2.70334 19.8598 2.59956 19.3545 2.54935 18.7399C2.5 18.1359 2.5 17.384 2.5 16.4229V8.87973C2.49999 8.47725 2.49999 8.14507 2.5221 7.87447C2.54506 7.59343 2.59434 7.33508 2.71799 7.09241C2.90973 6.71609 3.21569 6.41013 3.59201 6.21838C3.83467 6.09473 4.09302 6.04545 4.37407 6.02249C4.64467 6.00037 4.97685 6.00038 5.37933 6.00038L7.5 6.00024ZM15.5 6.00029L8.5 6.00035C8.5 4.06736 10.067 2.50024 12 2.50024C13.933 2.50024 15.5 4.0673 15.5 6.00029ZM19.5445 7.01903C19.3194 7.00065 19.0283 7.00026 18.6 7.00027L5.39998 7.00038C4.9717 7.00038 4.68055 7.00077 4.45551 7.01916C4.2363 7.03708 4.1242 7.06954 4.046 7.10938C3.85784 7.20526 3.70487 7.35824 3.60899 7.5464C3.56915 7.6246 3.53669 7.7367 3.51878 7.95591C3.50039 8.18095 3.5 8.47209 3.5 8.90038V16.4004C3.5 17.3888 3.50039 18.0999 3.54602 18.6585C3.59118 19.2112 3.67814 19.5703 3.82698 19.8624C4.1146 20.4269 4.57354 20.8858 5.13803 21.1734C5.43014 21.3223 5.78921 21.4092 6.34192 21.4544C6.90047 21.5 7.61166 21.5004 8.6 21.5004H15.4C16.3883 21.5004 17.0995 21.5 17.6581 21.4544C18.2108 21.4092 18.5699 21.3223 18.862 21.1734C19.4265 20.8858 19.8854 20.4269 20.173 19.8624C20.3219 19.5703 20.4088 19.2112 20.454 18.6585C20.4996 18.0999 20.5 17.3887 20.5 16.4004V8.90027C20.5 8.47197 20.4996 8.18082 20.4812 7.95578C20.4633 7.73657 20.4309 7.62446 20.391 7.54626C20.2951 7.3581 20.1421 7.20512 19.954 7.10925C19.8758 7.0694 19.7637 7.03694 19.5445 7.01903Z" fill="#353566"/>
</svg>
