<svg width="24" height="24" viewBox="0 0 24 24" fill="none" xmlns="http://www.w3.org/2000/svg">
<g clip-path="url(#clip0_9001_289673)">
<path fill-rule="evenodd" clip-rule="evenodd" d="M5.5 4.99976C5.5 2.51447 7.51472 0.499756 10 0.499756C12.4853 0.499756 14.5 2.51447 14.5 4.99976H16.6207C17.0231 4.99975 17.3553 4.99974 17.6259 5.02185C17.907 5.04482 18.1653 5.0941 18.408 5.21774C18.7843 5.40949 19.0903 5.71545 19.282 6.09177C19.4057 6.33444 19.4549 6.59279 19.4779 6.87384C19.5 7.14443 19.5 7.47658 19.5 7.87904V10.4782C19.5 10.7544 19.2761 10.9782 19 10.9782C18.7239 10.9782 18.5 10.7544 18.5 10.4782V7.89976C18.5 7.47147 18.4996 7.18032 18.4812 6.95528C18.4633 6.73607 18.4309 6.62397 18.391 6.54577C18.2951 6.3576 18.1422 6.20462 17.954 6.10875C17.8758 6.0689 17.7637 6.03644 17.5445 6.01853C17.3194 6.00014 17.0283 5.99976 16.6 5.99976H15.0126L15 5.99991H3.4C2.97171 5.99991 2.68056 6.0003 2.45552 6.01869C2.23631 6.0366 2.12421 6.06906 2.04601 6.10891C1.85785 6.20478 1.70487 6.35776 1.60899 6.54592C1.56915 6.62412 1.53669 6.73622 1.51878 6.95543C1.50039 7.18048 1.5 7.47162 1.5 7.89991V15.3999C1.5 16.3883 1.50039 17.0994 1.54603 17.658C1.59118 18.2107 1.67814 18.5698 1.82698 18.8619C2.1146 19.4264 2.57354 19.8853 3.13803 20.1729C3.43014 20.3218 3.78921 20.4087 4.34192 20.4539C4.90047 20.4995 5.61166 20.4999 6.6 20.4999H10.3808C10.657 20.4999 10.8808 20.7238 10.8808 20.9999C10.8808 21.2761 10.657 21.4999 10.3808 21.4999H6.57754C5.61646 21.4999 4.86451 21.4999 4.26049 21.4506C3.64594 21.4004 3.14062 21.2966 2.68404 21.0639C1.93139 20.6805 1.31947 20.0685 0.935975 19.3159C0.703336 18.8593 0.599557 18.354 0.549346 17.7394C0.499996 17.1354 0.499998 16.3835 0.5 15.4224V7.87926C0.499994 7.47679 0.499989 7.14459 0.522098 6.874C0.54506 6.59295 0.594342 6.3346 0.717988 6.09193C0.909734 5.71561 1.2157 5.40965 1.59202 5.2179C1.83469 5.09425 2.09304 5.04497 2.37409 5.02201C2.64469 4.9999 2.97687 4.99991 3.37935 4.99991L5.5 4.99976ZM13.5 4.99991C13.5 3.06692 11.933 1.49976 10 1.49976C8.067 1.49976 6.5 3.06692 6.5 4.99991H13.5Z" fill="#353566"/>
<path d="M5.25 9.49976C5.25 9.08554 5.58579 8.74976 6 8.74976C6.41421 8.74976 6.7501 9.08554 6.7501 9.49976C6.7501 9.91397 6.41431 10.2498 6.0001 10.2498C5.58589 10.2498 5.25 9.91397 5.25 9.49976Z" fill="#353566"/>
<path d="M14 8.74976C13.5858 8.74976 13.25 9.08554 13.25 9.49976C13.25 9.91397 13.5858 10.2498 14 10.2498C14.4142 10.2498 14.7501 9.91397 14.7501 9.49976C14.7501 9.08554 14.4142 8.74976 14 8.74976Z" fill="#353566"/>
<path fill-rule="evenodd" clip-rule="evenodd" d="M19.8776 12.8591C20.5638 12.3818 21.4745 12.3816 22.1609 12.8586C22.3081 12.9609 22.4496 13.1025 22.6405 13.2934L22.7066 13.3594C22.8976 13.5502 23.0393 13.6917 23.1417 13.8389C23.6192 14.5252 23.6194 15.4362 23.1422 16.1227C23.0398 16.2699 22.8982 16.4115 22.7072 16.6023L16.7308 22.5799C16.6643 22.6464 16.5804 22.6928 16.4888 22.7138L13.1116 23.4872C12.9438 23.5256 12.7681 23.475 12.6464 23.3533C12.5247 23.2315 12.4742 23.0557 12.5127 22.888L13.287 19.5146C13.308 19.4231 13.3543 19.3393 13.4207 19.2729L19.3981 13.294C19.5889 13.1031 19.7304 12.9615 19.8776 12.8591ZM21.5902 13.6798C21.247 13.4413 20.7917 13.4414 20.4486 13.68C20.3846 13.7245 20.3107 13.7956 20.0723 14.0341L19.417 14.6896L21.3114 16.584L21.967 15.9283C22.2054 15.6898 22.2766 15.6159 22.3211 15.5519C22.5597 15.2086 22.5596 14.7532 22.3208 14.41C22.2763 14.346 22.2052 14.2721 21.9666 14.0337C21.7282 13.7954 21.6542 13.7242 21.5902 13.6798ZM20.6044 17.2912L18.7099 15.3968L14.2295 19.8784L13.6658 22.3344L16.1253 21.7711L20.6044 17.2912Z" fill="#353566"/>
</g>
<defs>
<clipPath id="clip0_9001_289673">
<rect width="24" height="24" fill="white"/>
</clipPath>
</defs>
</svg>
