<svg width="24" height="24" viewBox="0 0 24 24" fill="none" xmlns="http://www.w3.org/2000/svg">
<g clip-path="url(#clip0_9001_275619)">
<path opacity="0.4" d="M11 0.25C5.06294 0.25 0.25 5.06294 0.25 11C0.25 13.0416 0.819848 14.9523 1.80949 16.5793L1.02746 18.7298C0.519627 20.1264 1.8736 21.4804 3.27015 20.9725L5.42072 20.1905C7.04768 21.1802 8.9584 21.75 11 21.75C11.1754 21.75 11.3499 21.7458 11.5234 21.7375C11.8186 21.7233 12.0779 21.5372 12.1857 21.2621C12.2936 20.987 12.2299 20.6743 12.023 20.4633L11.7504 20.1851C11.4254 19.8537 11.2454 19.4067 11.2501 18.9425C11.2547 18.4784 11.4436 18.0351 11.7751 17.7102L13.7751 15.7502C14.2835 15.2519 15.0201 15.1252 15.6458 15.3727L16.1653 15.5783C16.3637 15.6569 16.5862 15.6471 16.777 15.5517C16.9678 15.4562 17.1089 15.2839 17.165 15.0781L17.3118 14.5389C17.5612 13.6234 18.499 13.0709 19.4244 13.3023C19.7401 13.3812 20.0122 13.5399 20.2269 13.7515C20.4208 13.9426 20.703 14.0136 20.9643 13.937C21.2255 13.8604 21.4247 13.6484 21.4848 13.3829C21.6585 12.6157 21.75 11.8181 21.75 11C21.75 5.06294 16.9371 0.25 11 0.25Z" fill="#353566"/>
<path d="M7 9.75024L15 9.75024C15.4142 9.75024 15.75 9.41446 15.75 9.00024C15.75 8.58603 15.4142 8.25024 15 8.25024H7C6.58579 8.25024 6.25 8.58603 6.25 9.00024C6.25 9.41446 6.58579 9.75024 7 9.75024Z" fill="#353566"/>
<path d="M7 13.7502L12 13.7502C12.4142 13.7502 12.75 13.4145 12.75 13.0002C12.75 12.586 12.4142 12.2502 12 12.2502L7 12.2502C6.58579 12.2502 6.25 12.586 6.25 13.0002C6.25 13.4145 6.58579 13.7502 7 13.7502Z" fill="#353566"/>
<path d="M15.5249 17.5359C15.8208 17.246 15.8256 16.7711 15.5357 16.4753C15.2457 16.1795 14.7709 16.1747 14.4751 16.4646L12.4751 18.4246C12.333 18.5638 12.252 18.7538 12.25 18.9527C12.248 19.1517 12.3252 19.3432 12.4644 19.4853L14.4644 21.5253C14.7544 21.8211 15.2292 21.8258 15.525 21.5358C15.8208 21.2458 15.8255 20.771 15.5355 20.4752L14.0607 18.9709L15.5249 17.5359Z" fill="#353566"/>
<path d="M20.4641 16.4756C20.7538 16.1796 21.2287 16.1745 21.5247 16.4643L23.5247 18.4223C23.6668 18.5615 23.7479 18.7514 23.75 18.9504C23.752 19.1493 23.675 19.3409 23.5358 19.483L21.5358 21.525C21.246 21.821 20.7711 21.8259 20.4752 21.5361C20.1793 21.2462 20.1744 20.7714 20.4642 20.4755L21.9393 18.9694L20.4753 17.5362C20.1793 17.2464 20.1743 16.7716 20.4641 16.4756Z" fill="#353566"/>
<path d="M19.7276 15.1821C19.8281 14.7802 19.5837 14.373 19.1819 14.2726C18.7801 14.1721 18.3728 14.4164 18.2724 14.8183L16.2724 22.8183C16.1719 23.2201 16.4162 23.6273 16.8181 23.7278C17.2199 23.8282 17.6271 23.5839 17.7276 23.1821L19.7276 15.1821Z" fill="#353566"/>
</g>
<defs>
<clipPath id="clip0_9001_275619">
<rect width="24" height="24" fill="white"/>
</clipPath>
</defs>
</svg>
