<svg width="24" height="24" viewBox="0 0 24 24" fill="none" xmlns="http://www.w3.org/2000/svg">
<path opacity="0.4" d="M12 1.25C6.06294 1.25 1.25 6.06294 1.25 12C1.25 14.0416 1.81985 15.9523 2.80949 17.5793L2.02746 19.7298C1.51963 21.1264 2.8736 22.4804 4.27015 21.9725L6.42072 21.1905C8.04768 22.1802 9.9584 22.75 12 22.75C17.9371 22.75 22.75 17.9371 22.75 12C22.75 6.06294 17.9371 1.25 12 1.25Z" fill="#353566"/>
<path fill-rule="evenodd" clip-rule="evenodd" d="M7.15116 14.0872C6.84005 13.5473 7.02449 12.8569 7.56382 12.5449C7.98246 12.3028 7.98246 11.6971 7.56382 11.455C7.02449 11.143 6.84005 10.4525 7.15116 9.91272L7.77088 8.83742C8.08214 8.29734 8.77191 8.11198 9.31149 8.42406C9.72921 8.66566 10.2527 8.36411 10.2527 7.87913C10.2527 7.25595 10.7571 6.75 11.3803 6.75H12.6198C13.2429 6.75 13.7474 7.25596 13.7474 7.87915C13.7474 8.36415 14.2709 8.66571 14.6886 8.4241C15.2282 8.11202 15.9179 8.2974 16.2292 8.83747L16.8489 9.91281C17.16 10.4526 16.9756 11.1431 16.4363 11.455C16.0177 11.6971 16.0177 12.3028 16.4363 12.5449C16.9756 12.8568 17.16 13.5473 16.8489 14.0871L16.2292 15.1624C15.9179 15.7025 15.2282 15.8879 14.6886 15.5758C14.2709 15.3342 13.7474 15.6357 13.7474 16.1208C13.7474 16.744 13.2429 17.25 12.6197 17.25H11.3803C10.7571 17.25 10.2527 16.744 10.2527 16.1208C10.2527 15.6358 9.7292 15.3342 9.31147 15.5758C8.77189 15.8879 8.08213 15.7025 7.77088 15.1625L7.15116 14.0872ZM12 13.5C12.8284 13.5 13.5 12.8284 13.5 12C13.5 11.1716 12.8284 10.5 12 10.5C11.1716 10.5 10.5 11.1716 10.5 12C10.5 12.8284 11.1716 13.5 12 13.5Z" fill="#353566"/>
</svg>
