<svg width="24" height="24" viewBox="0 0 24 24" fill="none" xmlns="http://www.w3.org/2000/svg">
<g clip-path="url(#clip0_9001_276089)">
<path opacity="0.4" d="M11 0.25C5.06294 0.25 0.25 5.06294 0.25 11C0.25 13.0416 0.819848 14.9523 1.80949 16.5793L1.02746 18.7298C0.519627 20.1264 1.8736 21.4804 3.27015 20.9725L5.42072 20.1905C7.04768 21.1802 8.9584 21.75 11 21.75L11.0639 21.7498C11.3223 21.7483 11.5616 21.6139 11.6975 21.3942C11.8333 21.1745 11.8465 20.9003 11.7324 20.6685C11.627 20.4544 11.5289 20.2321 11.4387 20.0019C11.1871 19.3592 11.1871 18.6408 11.4387 17.9981C12.6383 14.9344 15.2557 13.25 18 13.25C18.8657 13.25 19.7148 13.4171 20.5092 13.7391C20.7153 13.8227 20.9479 13.8104 21.1442 13.7056C21.3404 13.6009 21.48 13.4144 21.5252 13.1966C21.6727 12.4868 21.75 11.752 21.75 11C21.75 5.06294 16.9371 0.25 11 0.25Z" fill="#353566"/>
<path d="M6 11C6 10.4477 6.44772 10 7 10C7.55228 10 8.0001 10.4477 8.0001 11C8.0001 11.5523 7.55238 12 7.0001 12C6.44782 12 6 11.5523 6 11Z" fill="#353566"/>
<path d="M10 11C10 10.4477 10.4477 10 11 10C11.5523 10 12.0001 10.4477 12.0001 11C12.0001 11.5523 11.5524 12 11.0001 12C10.4478 12 10 11.5523 10 11Z" fill="#353566"/>
<path d="M15 10C14.4477 10 14 10.4477 14 11C14 11.5523 14.4477 12 15 12C15.5523 12 16.0001 11.5523 16.0001 11C16.0001 10.4477 15.5523 10 15 10Z" fill="#353566"/>
<path d="M18 17.5C17.17 17.5 16.5 18.17 16.5 19C16.5 19.83 17.17 20.5 18 20.5C18.83 20.5 19.5 19.83 19.5 19C19.5 18.17 18.83 17.5 18 17.5Z" fill="#353566"/>
<path fill-rule="evenodd" clip-rule="evenodd" d="M23.3973 18.4539C22.3768 15.8473 20.2068 14.5 18 14.5C15.7932 14.5 13.6232 15.8473 12.6027 18.4539C12.4658 18.8036 12.4658 19.1964 12.6027 19.5461C13.6232 22.1527 15.7932 23.5 18 23.5C20.2068 23.5 22.3768 22.1527 23.3973 19.5461C23.5342 19.1964 23.5342 18.8036 23.3973 18.4539ZM15.5 19C15.5 17.6177 16.6177 16.5 18 16.5C19.3823 16.5 20.5 17.6177 20.5 19C20.5 20.3823 19.3823 21.5 18 21.5C16.6177 21.5 15.5 20.3823 15.5 19Z" fill="#353566"/>
</g>
<defs>
<clipPath id="clip0_9001_276089">
<rect width="24" height="24" fill="white"/>
</clipPath>
</defs>
</svg>
