<svg width="24" height="24" viewBox="0 0 24 24" fill="none" xmlns="http://www.w3.org/2000/svg">
<path opacity="0.4" d="M12 1.25C6.06294 1.25 1.25 6.06294 1.25 12C1.25 14.0416 1.81985 15.9523 2.80949 17.5793L2.02746 19.7298C1.51963 21.1264 2.8736 22.4804 4.27015 21.9725L6.42072 21.1905C8.04768 22.1802 9.9584 22.75 12 22.75C17.9371 22.75 22.75 17.9371 22.75 12C22.75 6.06294 17.9371 1.25 12 1.25Z" fill="#353566"/>
<path d="M10.5 10.25C10.5 9.42157 11.1716 8.75 12 8.75C12.8284 8.75 13.5 9.42157 13.5 10.25C13.5 10.6686 13.3295 11.046 13.0523 11.319C12.9035 11.4654 12.7672 11.5424 12.5585 11.6602C12.5133 11.6858 12.4645 11.7133 12.4116 11.7438C12.12 11.912 11.7508 12.1538 11.4875 12.6467C11.2924 13.012 11.4304 13.4664 11.7957 13.6616C12.1611 13.8567 12.6155 13.7187 12.8106 13.3533C12.8762 13.2305 12.9539 13.1626 13.1609 13.0433C13.1897 13.0267 13.2223 13.0086 13.258 12.9887C13.4725 12.8695 13.8007 12.6871 14.1046 12.3879C14.6565 11.8446 15 11.0867 15 10.25C15 8.59315 13.6569 7.25 12 7.25C10.3431 7.25 9 8.59315 9 10.25C9 10.4359 9.02058 10.6053 9.04768 10.7487C9.1246 11.1557 9.5169 11.4233 9.92391 11.3464C10.3309 11.2695 10.5985 10.8772 10.5216 10.4702C10.5086 10.4012 10.5 10.3262 10.5 10.25Z" fill="#353566"/>
<path d="M12 14.5C11.4477 14.5 11 14.9477 11 15.5C11 16.0523 11.4477 16.5 12 16.5C12.5523 16.5 13.0001 16.0523 13.0001 15.5C13.0001 14.9477 12.5523 14.5 12 14.5Z" fill="#353566"/>
</svg>
