<svg width="24" height="24" viewBox="0 0 24 24" fill="none" xmlns="http://www.w3.org/2000/svg">
<g clip-path="url(#clip0_9001_276084)">
<path opacity="0.4" d="M11 0.25C5.06294 0.25 0.25 5.06294 0.25 11C0.25 13.0416 0.819848 14.9523 1.80949 16.5793L1.02746 18.7298C0.519627 20.1264 1.8736 21.4804 3.27015 20.9725L5.42072 20.1905C7.04768 21.1802 8.9584 21.75 11 21.75C11.054 21.75 11.1079 21.7496 11.1617 21.7488C11.5071 21.7437 11.8043 21.5034 11.8816 21.1667L12.3124 19.2899C12.3754 19.0154 12.5144 18.7641 12.7136 18.565L18.659 12.618C18.9017 12.3743 19.0951 12.1843 19.3066 12.0372C19.8163 11.6826 20.4081 11.5036 21.0015 11.5001C21.2028 11.4988 21.3951 11.4167 21.5353 11.2722C21.6755 11.1277 21.7516 10.9329 21.7467 10.7317C21.6041 4.9184 16.8473 0.25 11 0.25Z" fill="#353566"/>
<path d="M6 10.9999C6 10.4476 6.44772 9.99988 7 9.99988C7.55228 9.99988 8.0001 10.4476 8.0001 10.9999C8.0001 11.5522 7.55238 11.9999 7.0001 11.9999C6.44782 11.9999 6 11.5522 6 10.9999Z" fill="#353566"/>
<path d="M10 10.9999C10 10.4476 10.4477 9.99988 11 9.99988C11.5523 9.99988 12.0001 10.4476 12.0001 10.9999C12.0001 11.5522 11.5524 11.9999 11.0001 11.9999C10.4478 11.9999 10 11.5522 10 10.9999Z" fill="#353566"/>
<path d="M15 9.99988C14.4477 9.99988 14 10.4476 14 10.9999C14 11.5522 14.4477 11.9999 15 11.9999C15.5523 11.9999 16.0001 11.5522 16.0001 10.9999C16.0001 10.4476 15.5523 9.99988 15 9.99988Z" fill="#353566"/>
<path d="M22.0182 13.064C21.4176 12.6466 20.6208 12.6468 20.0203 13.0644C19.892 13.1537 19.7659 13.2799 19.5629 13.4829L18.9917 14.0542C18.7965 14.2495 18.7965 14.5661 18.9918 14.7613L21.2398 17.0093C21.4351 17.2046 21.7517 17.2046 21.9469 17.0093L22.5184 16.4377C22.7215 16.2346 22.8477 16.1085 22.9369 15.9801C23.3545 15.3794 23.3543 14.5823 22.9365 13.9818C22.8472 13.8535 22.721 13.7273 22.5178 13.5243L22.4758 13.4823C22.2728 13.2794 22.1466 13.1532 22.0182 13.064Z" fill="#353566"/>
<path d="M17.5777 15.4686C17.773 15.2733 18.0896 15.2733 18.2849 15.4686L20.5328 17.7165C20.7281 17.9118 20.7281 18.2284 20.5329 18.4236L16.554 22.4033C16.5207 22.4365 16.4788 22.4597 16.433 22.4702L13.0558 23.2436C12.9719 23.2629 12.884 23.2376 12.8232 23.1767C12.7623 23.1158 12.7371 23.0279 12.7563 22.944L13.5307 19.5706C13.5412 19.5249 13.5643 19.483 13.5975 19.4498L17.5777 15.4686Z" fill="#353566"/>
</g>
<defs>
<clipPath id="clip0_9001_276084">
<rect width="24" height="24" fill="white"/>
</clipPath>
</defs>
</svg>
