<svg width="24" height="24" viewBox="0 0 24 24" fill="none" xmlns="http://www.w3.org/2000/svg">
<g clip-path="url(#clip0_9001_275654)">
<path opacity="0.4" d="M11 0.25C5.06294 0.25 0.25 5.06294 0.25 11C0.25 13.0416 0.819848 14.9523 1.80949 16.5793L1.02746 18.7298C0.519627 20.1264 1.8736 21.4804 3.27015 20.9725L5.42072 20.1905C7.04768 21.1802 8.9584 21.75 11 21.75C11.6059 21.75 12.2007 21.6998 12.7803 21.6032C13.0184 21.5634 13.2229 21.4115 13.3296 21.195C13.4364 20.9785 13.4324 20.7238 13.3189 20.5108C12.6308 19.2192 12.25 17.762 12.25 16.2579C12.25 15.492 12.3223 14.8868 12.5105 14.4157C12.6869 13.974 12.9734 13.6285 13.4756 13.3761L17.0464 11.5907C17.9547 11.1362 19.0445 11.1366 19.9543 11.5911L20.6611 11.9443C20.8904 12.0588 21.1623 12.0484 21.3821 11.9165C21.6019 11.7847 21.7392 11.5497 21.7461 11.2935C21.7487 11.196 21.75 11.0981 21.75 11C21.75 5.06294 16.9371 0.25 11 0.25Z" fill="#353566"/>
<path d="M7 9.75L15 9.75C15.4142 9.75 15.75 9.41421 15.75 9C15.75 8.58579 15.4142 8.25 15 8.25H7C6.58579 8.25 6.25 8.58579 6.25 9C6.25 9.41421 6.58579 9.75 7 9.75Z" fill="#353566"/>
<path d="M7 13.75L12 13.75L12.0022 13.75C12.1841 13.4383 12.4267 13.1659 12.7476 12.9394C12.7167 12.5535 12.3938 12.25 12 12.25L7 12.25C6.58579 12.25 6.25 12.5858 6.25 13C6.25 13.4142 6.58579 13.75 7 13.75Z" fill="#353566"/>
<path d="M17.605 12.7083C18.168 12.4267 18.8307 12.4267 19.3938 12.7081L22.9637 14.4926C23.2928 14.6571 23.5006 14.9935 23.5004 15.3614C23.4998 16.7739 23.4093 18.1304 22.8326 19.4487C22.039 21.2626 20.5743 22.6601 18.7819 23.4423C18.6018 23.5209 18.397 23.5209 18.2169 23.4423C16.4252 22.6604 14.9607 21.2648 14.1671 19.451C13.5898 18.1315 13.4998 16.7737 13.5004 15.36C13.5006 14.9928 13.7081 14.6573 14.0364 14.493L17.605 12.7083Z" fill="#353566"/>
</g>
<defs>
<clipPath id="clip0_9001_275654">
<rect width="24" height="24" fill="white"/>
</clipPath>
</defs>
</svg>
