<svg width="24" height="24" viewBox="0 0 24 24" fill="none" xmlns="http://www.w3.org/2000/svg">
<path opacity="0.4" d="M12 1.25C6.06294 1.25 1.25 6.06294 1.25 12C1.25 14.0416 1.81985 15.9523 2.80949 17.5793L2.02746 19.7298C1.51963 21.1264 2.8736 22.4804 4.27015 21.9725L6.42072 21.1905C8.04768 22.1802 9.9584 22.75 12 22.75C17.9371 22.75 22.75 17.9371 22.75 12C22.75 6.06294 17.9371 1.25 12 1.25Z" fill="#353566"/>
<path fill-rule="evenodd" clip-rule="evenodd" d="M6.25 12C6.25 8.82436 8.82436 6.25 12 6.25C15.1756 6.25 17.75 8.82436 17.75 12C17.75 15.1756 15.1756 17.75 12 17.75C8.82436 17.75 6.25 15.1756 6.25 12ZM12.625 9.5C12.625 9.15482 12.3452 8.875 12 8.875C11.6548 8.875 11.375 9.15482 11.375 9.5V12.0001C11.375 12.209 11.4794 12.4042 11.6533 12.5201L13.1533 13.52C13.4405 13.7115 13.8286 13.6339 14.02 13.3467C14.2115 13.0595 14.1339 12.6714 13.8467 12.48L12.625 11.6656V9.5Z" fill="#353566"/>
</svg>
