<svg width="24" height="24" viewBox="0 0 24 24" fill="none" xmlns="http://www.w3.org/2000/svg">
<path opacity="0.4" d="M15.633 1.25H8.367C7.27486 1.24999 6.40936 1.24999 5.71173 1.30699C4.99835 1.36527 4.39472 1.48688 3.84355 1.76772C2.94978 2.22312 2.22312 2.94978 1.76772 3.84355C1.48688 4.39472 1.36527 4.99834 1.30699 5.71173C1.24999 6.40935 1.24999 7.27485 1.25 8.36699V15.633C1.24999 16.7251 1.24999 17.5906 1.30699 18.2883C1.36527 19.0017 1.48688 19.6053 1.76772 20.1565C2.22312 21.0502 2.94977 21.7769 3.84355 22.2323C4.39472 22.5131 4.99835 22.6347 5.71173 22.693C6.40935 22.75 7.27484 22.75 8.36698 22.75H15.633C16.7252 22.75 17.5906 22.75 18.2883 22.693C19.0017 22.6347 19.6053 22.5131 20.1565 22.2323C21.0502 21.7769 21.7769 21.0502 22.2323 20.1565C22.5131 19.6053 22.6347 19.0017 22.693 18.2883C22.75 17.5906 22.75 16.7252 22.75 15.633V8.36698C22.75 7.27484 22.75 6.40935 22.693 5.71173C22.6347 4.99835 22.5131 4.39472 22.2323 3.84355C21.7769 2.94977 21.0502 2.22312 20.1565 1.76772C19.6053 1.48688 19.0017 1.36527 18.2883 1.30699C17.5906 1.24999 16.7251 1.24999 15.633 1.25Z" fill="#353566"/>
<path fill-rule="evenodd" clip-rule="evenodd" d="M6.8335 10.8358C6.8335 7.98259 9.1464 5.66675 12.0002 5.66675C14.8538 5.66675 17.1668 7.97991 17.1668 10.8334C17.1668 14.0167 14.6335 16.4834 12.3002 18.2334C12.1224 18.3667 11.8779 18.3667 11.7002 18.2334C9.36693 16.4835 6.8335 14.0168 6.8335 10.8358ZM12.0002 12.5835C12.9667 12.5835 13.7502 11.8 13.7502 10.8335C13.7502 9.867 12.9667 9.08349 12.0002 9.08349C11.0337 9.08349 10.2502 9.867 10.2502 10.8335C10.2502 11.8 11.0337 12.5835 12.0002 12.5835Z" fill="#353566"/>
</svg>
