<svg width="24" height="24" viewBox="0 0 24 24" fill="none" xmlns="http://www.w3.org/2000/svg">
<path opacity="0.4" d="M9.99998 1.25C5.16751 1.25 1.25 5.16754 1.25 10C1.25 14.2034 3.91922 17.166 5.77085 19.2212L5.94247 19.4117C6.62465 20.1697 8.20215 21.632 8.99292 22.3568C9.56344 22.8798 10.4365 22.8798 11.007 22.3568C11.1677 22.2095 11.3583 22.0341 11.5658 21.8419C11.8226 21.6038 11.8805 21.2196 11.7052 20.9164L11.5139 20.5856C11.1197 19.9037 11.192 19.1739 11.5674 18.2944C11.6478 18.1063 11.6478 17.8936 11.5674 17.7054C11.192 16.826 11.1197 16.0962 11.5139 15.4143L12.1356 14.339C12.5302 13.6565 13.201 13.3526 14.1537 13.236C14.3557 13.2113 14.5391 13.1055 14.6616 12.9429C15.2374 12.1786 15.8357 11.75 16.6282 11.75H17.8716C17.8896 11.75 17.9074 11.7502 17.925 11.7506C18.3132 11.76 18.6443 11.4716 18.6883 11.0858C18.7286 10.7324 18.7499 10.3704 18.7499 10C18.7499 5.16756 14.8324 1.25 9.99998 1.25Z" fill="#353566"/>
<path d="M12.5 10C12.5 11.3807 11.3807 12.5 10 12.5C8.61929 12.5 7.5 11.3807 7.5 10C7.5 8.61929 8.61929 7.5 10 7.5C11.3807 7.5 12.5 8.61929 12.5 10Z" fill="#353566"/>
<path fill-rule="evenodd" clip-rule="evenodd" d="M12.8138 18.5449C12.2745 18.8569 12.09 19.5473 12.4012 20.0872L13.0209 21.1625C13.3321 21.7025 14.0219 21.8879 14.5615 21.5758C14.9792 21.3342 15.5027 21.6358 15.5027 22.1208C15.5027 22.744 16.0071 23.25 16.6303 23.25H17.8697C18.4929 23.25 18.9974 22.744 18.9974 22.1208C18.9974 21.6357 19.5209 21.3342 19.9386 21.5758C20.4782 21.8879 21.1679 21.7025 21.4792 21.1624L22.0989 20.0871C22.41 19.5473 22.2256 18.8568 21.6863 18.5449C21.2677 18.3028 21.2677 17.6971 21.6863 17.455C22.2256 17.1431 22.41 16.4526 22.0989 15.9128L21.4792 14.8375C21.1679 14.2974 20.4782 14.112 19.9386 14.4241C19.5209 14.6657 18.9974 14.3642 18.9974 13.8792C18.9974 13.256 18.4929 12.75 17.8698 12.75H16.6303C16.0071 12.75 15.5027 13.2559 15.5027 13.8791C15.5027 14.3641 14.9792 14.6657 14.5615 14.4241C14.0219 14.112 13.3321 14.2973 13.0209 14.8374L12.4012 15.9127C12.09 16.4525 12.2745 17.143 12.8138 17.455C13.2325 17.6971 13.2325 18.3028 12.8138 18.5449ZM18.75 18C18.75 18.8284 18.0784 19.5 17.25 19.5C16.4216 19.5 15.75 18.8284 15.75 18C15.75 17.1716 16.4216 16.5 17.25 16.5C18.0784 16.5 18.75 17.1716 18.75 18Z" fill="#353566"/>
</svg>
