<svg width="24" height="24" viewBox="0 0 24 24" fill="none" xmlns="http://www.w3.org/2000/svg">
<path opacity="0.4" d="M12 1.25C7.16751 1.25 3.25 5.16754 3.25 10C3.25 14.2073 5.92621 17.1754 7.78067 19.2322L7.94247 19.4117C8.62466 20.1697 10.2022 21.632 10.9929 22.3568C11.5634 22.8798 12.4365 22.8798 13.007 22.3568C13.7978 21.632 15.3752 20.1697 16.0574 19.4117L16.2124 19.2397C17.9881 17.2706 20.7499 14.2078 20.7499 10C20.7499 5.16755 16.8324 1.25 12 1.25Z" fill="#353566"/>
<path d="M12.75 6.5C12.75 6.08579 12.4142 5.75 12 5.75C11.5858 5.75 11.25 6.08579 11.25 6.5V11.6893L9.53033 9.96967C9.23744 9.67678 8.76256 9.67678 8.46967 9.96967C8.17678 10.2626 8.17678 10.7374 8.46967 11.0303L11.4697 14.0303C11.6103 14.171 11.8011 14.25 12 14.25C12.1989 14.25 12.3897 14.171 12.5303 14.0303L15.5303 11.0303C15.8232 10.7374 15.8232 10.2626 15.5303 9.96967C15.2374 9.67678 14.7626 9.67678 14.4697 9.96967L12.75 11.6893V6.5Z" fill="#353566"/>
</svg>
