<svg width="24" height="24" viewBox="0 0 24 24" fill="none" xmlns="http://www.w3.org/2000/svg">
<g clip-path="url(#clip0_9001_311363)">
<path opacity="0.4" d="M12 0.25C5.51065 0.25 0.25 5.51065 0.25 12C0.25 18.4893 5.51065 23.75 12 23.75C18.4893 23.75 23.75 18.4893 23.75 12C23.75 5.51065 18.4893 0.25 12 0.25Z" fill="#353566"/>
<path fill-rule="evenodd" clip-rule="evenodd" d="M8.25 7.58333C8.25 6.84695 8.84695 6.25 9.58333 6.25H13.25C15.183 6.25 16.75 7.817 16.75 9.75C16.75 11.683 15.183 13.25 13.25 13.25H9.75V17C9.75 17.4142 9.41421 17.75 9 17.75C8.58579 17.75 8.25 17.4142 8.25 17V7.58333ZM9.75 11.75H13.25C14.3546 11.75 15.25 10.8546 15.25 9.75C15.25 8.64543 14.3546 7.75 13.25 7.75H9.75V11.75Z" fill="#353566"/>
</g>
<defs>
<clipPath id="clip0_9001_311363">
<rect width="24" height="24" fill="white"/>
</clipPath>
</defs>
</svg>
