<svg width="24" height="24" viewBox="0 0 24 24" fill="none" xmlns="http://www.w3.org/2000/svg">
<path fill-rule="evenodd" clip-rule="evenodd" d="M21.5001 3.5C20.3956 3.5 19.5001 4.39543 19.5001 5.5C19.5001 6.60457 20.3956 7.5 21.5001 7.5C22.6047 7.5 23.5001 6.60457 23.5001 5.5C23.5001 4.39543 22.6047 3.5 21.5001 3.5ZM20.5001 5.5C20.5001 4.94772 20.9478 4.5 21.5001 4.5C22.0524 4.5 22.5001 4.94772 22.5001 5.5C22.5001 6.05228 22.0524 6.5 21.5001 6.5C20.9478 6.5 20.5001 6.05228 20.5001 5.5Z" fill="#353566"/>
<path fill-rule="evenodd" clip-rule="evenodd" d="M18.5001 8.5C16.8433 8.5 15.5001 9.84315 15.5001 11.5V15.5C15.5001 17.1569 16.8433 18.5 18.5001 18.5C20.157 18.5 21.5001 17.1569 21.5001 15.5V11.5C21.5001 9.84315 20.157 8.5 18.5001 8.5ZM16.5001 11.5C16.5001 10.3954 17.3956 9.5 18.5001 9.5C19.6047 9.5 20.5001 10.3954 20.5001 11.5V15.5C20.5001 16.6046 19.6047 17.5 18.5001 17.5C17.3956 17.5 16.5001 16.6046 16.5001 15.5V11.5Z" fill="#353566"/>
<path fill-rule="evenodd" clip-rule="evenodd" d="M8.00141 15.4112C8.00056 15.3992 8.00012 15.3872 8.00012 15.375V15.3137C8.00012 13.0594 8.89566 10.8974 10.4897 9.3033L11.1466 8.64645C11.3418 8.45119 11.6584 8.45119 11.8537 8.64645C12.0489 8.84171 12.0489 9.15829 11.8537 9.35356L11.1968 10.0104C10.3563 10.851 9.73584 11.8705 9.37263 12.9794C9.84142 12.6761 10.4002 12.5 11.0001 12.5C12.657 12.5 14.0001 13.8431 14.0001 15.5C14.0001 17.1569 12.657 18.5 11.0001 18.5C9.34327 18.5 8.00012 17.1569 8.00012 15.5C8.00012 15.4703 8.00055 15.4407 8.00141 15.4112ZM9.00012 15.5C9.00012 14.3954 9.89555 13.5 11.0001 13.5C12.1047 13.5 13.0001 14.3954 13.0001 15.5C13.0001 16.6046 12.1047 17.5 11.0001 17.5C9.89555 17.5 9.00012 16.6046 9.00012 15.5Z" fill="#353566"/>
<path d="M1.00011 8.5C0.723972 8.5 0.500115 8.72386 0.500115 9C0.500115 9.27614 0.723972 9.5 1.00011 9.5H4.87743L2.02847 12.6655C1.89638 12.8123 1.86303 13.023 1.94336 13.2034C2.0237 13.3838 2.20266 13.5 2.40011 13.5H3.56136C4.06731 13.5 4.55287 13.6978 4.91468 14.0505C5.22718 14.4386 5.36676 14.7328 5.43267 14.9484C5.49901 15.1655 5.50011 15.3298 5.50011 15.5C5.50011 16.6046 4.60468 17.5 3.50009 17.5C2.65367 17.5 1.75832 16.9918 1.45037 16.354C1.3303 16.1053 1.03137 16.0011 0.7827 16.1212C0.53403 16.2412 0.429783 16.5402 0.549858 16.7888C1.05759 17.8403 2.35191 18.5 3.50009 18.5C5.15695 18.5 6.50011 17.1569 6.50011 15.5V15.4946C6.50013 15.3075 6.50014 15.0198 6.38899 14.6561C6.27748 14.2913 6.06368 13.8779 5.67359 13.3986C5.66284 13.3854 5.65142 13.3728 5.63937 13.3607C5.08825 12.8096 4.34077 12.5 3.56136 12.5H3.5228L6.37176 9.33448C6.50385 9.18772 6.5372 8.97696 6.45686 8.79658C6.37653 8.61621 6.19757 8.5 6.00011 8.5H1.00011Z" fill="#353566"/>
</svg>
