<svg width="24" height="24" viewBox="0 0 24 24" fill="none" xmlns="http://www.w3.org/2000/svg">
<path d="M6.5 2.5C6.5 1.67157 7.17157 1 8 1H16C16.8284 1 17.5 1.67157 17.5 2.5C17.5 2.77614 17.2761 3 17 3C16.7239 3 16.5 2.77614 16.5 2.5C16.5 2.22386 16.2761 2 16 2H8C7.72386 2 7.5 2.22386 7.5 2.5C7.5 2.77614 7.27614 3 7 3C6.72386 3 6.5 2.77614 6.5 2.5Z" fill="#353566"/>
<path d="M6 4.5C5.17157 4.5 4.5 5.17157 4.5 6C4.5 6.27614 4.72386 6.5 5 6.5C5.27614 6.5 5.5 6.27614 5.5 6C5.5 5.72386 5.72386 5.5 6 5.5H18C18.2761 5.5 18.5 5.72386 18.5 6C18.5 6.27614 18.7239 6.5 19 6.5C19.2761 6.5 19.5 6.27614 19.5 6C19.5 5.17157 18.8284 4.5 18 4.5H6Z" fill="#353566"/>
<path fill-rule="evenodd" clip-rule="evenodd" d="M11.87 12.268C10.9138 11.6148 9.5 12.2298 9.5 13.4539V17.5461C9.5 18.7703 10.9138 19.3852 11.87 18.732L14.8649 16.6859C15.7117 16.1074 15.7117 14.8927 14.8649 14.3142L11.87 12.268ZM10.5 13.4539C10.5 13.1262 10.9357 12.8408 11.3059 13.0937L14.3008 15.1399C14.5664 15.3213 14.5664 15.6787 14.3008 15.8602L11.3059 17.9063C10.9357 18.1592 10.5 17.8739 10.5 17.5461V13.4539Z" fill="#353566"/>
<path fill-rule="evenodd" clip-rule="evenodd" d="M16.4224 8H7.57756C6.61647 8 5.86451 7.99999 5.26049 8.04935C4.64594 8.09956 4.14062 8.20334 3.68404 8.43597C2.93139 8.81947 2.31947 9.43139 1.93597 10.184C1.70334 10.6406 1.59956 11.1459 1.54935 11.7605C1.49999 12.3645 1.5 13.1165 1.5 14.0775V16.9224C1.5 17.8835 1.49999 18.6355 1.54935 19.2395C1.59956 19.8541 1.70334 20.3594 1.93597 20.816C2.31947 21.5686 2.93139 22.1805 3.68404 22.564C4.14062 22.7967 4.64594 22.9004 5.26049 22.9507C5.86451 23 6.61646 23 7.57754 23H16.4225C17.3835 23 18.1355 23 18.7395 22.9507C19.3541 22.9004 19.8594 22.7967 20.316 22.564C21.0686 22.1805 21.6805 21.5686 22.064 20.816C22.2967 20.3594 22.4004 19.8541 22.4507 19.2395C22.5 18.6355 22.5 17.8835 22.5 16.9225V14.0775C22.5 13.1165 22.5 12.3645 22.4507 11.7605C22.4004 11.1459 22.2967 10.6406 22.064 10.184C21.6805 9.43139 21.0686 8.81947 20.316 8.43597C19.8594 8.20334 19.3541 8.09956 18.7395 8.04935C18.1355 7.99999 17.3835 8 16.4224 8ZM4.13803 9.32698C4.43014 9.17814 4.78921 9.09118 5.34192 9.04602C5.90047 9.00039 6.61166 9 7.6 9H16.4C17.3883 9 18.0995 9.00039 18.6581 9.04602C19.2108 9.09118 19.5699 9.17814 19.862 9.32698C20.4265 9.6146 20.8854 10.0735 21.173 10.638C21.3219 10.9301 21.4088 11.2892 21.454 11.8419C21.4996 12.4005 21.5 13.1117 21.5 14.1V16.9C21.5 17.8883 21.4996 18.5995 21.454 19.1581C21.4088 19.7108 21.3219 20.0699 21.173 20.362C20.8854 20.9265 20.4265 21.3854 19.862 21.673C19.5699 21.8219 19.2108 21.9088 18.6581 21.954C18.0995 21.9996 17.3883 22 16.4 22H7.6C6.61166 22 5.90047 21.9996 5.34192 21.954C4.78921 21.9088 4.43014 21.8219 4.13803 21.673C3.57354 21.3854 3.1146 20.9265 2.82698 20.362C2.67814 20.0699 2.59118 19.7108 2.54602 19.1581C2.50039 18.5995 2.5 17.8883 2.5 16.9V14.1C2.5 13.1117 2.50039 12.4005 2.54602 11.8419C2.59118 11.2892 2.67814 10.9301 2.82698 10.638C3.1146 10.0735 3.57354 9.6146 4.13803 9.32698Z" fill="#353566"/>
</svg>
