<svg width="24" height="24" viewBox="0 0 24 24" fill="none" xmlns="http://www.w3.org/2000/svg">
<path d="M6.57755 1.50024H16.4224C17.3835 1.50024 18.1355 1.50024 18.7395 1.54959C19.3541 1.5998 19.8594 1.70358 20.316 1.93622C21.0686 2.31971 21.6805 2.93163 22.064 3.68428C22.2967 4.14086 22.4004 4.64618 22.4507 5.26073C22.5 5.86475 22.5 6.6167 22.5 7.57779V10.7524C22.5 11.0285 22.2761 11.2524 22 11.2524C21.7239 11.2524 21.5 11.0285 21.5 10.7524V7.60024C21.5 6.6119 21.4996 5.90072 21.454 5.34217C21.4088 4.78945 21.3219 4.43038 21.173 4.13827C20.8854 3.57379 20.4265 3.11485 19.862 2.82722C19.5699 2.67839 19.2108 2.59143 18.6581 2.54627C18.0995 2.50063 17.3883 2.50024 16.4 2.50024H6.6C5.61166 2.50024 4.90047 2.50063 4.34192 2.54627C3.78921 2.59143 3.43014 2.67839 3.13803 2.82722C2.57354 3.11484 2.1146 3.57379 1.82698 4.13827C1.67814 4.43038 1.59118 4.78946 1.54602 5.34217C1.50039 5.90072 1.5 6.6119 1.5 7.60024V13.4002C1.5 14.3886 1.50039 15.0998 1.54602 15.6583C1.56273 15.8628 1.58516 16.0408 1.61433 16.1987L5.45833 12.3541C6.04415 11.7682 6.99406 11.7682 7.57986 12.3542L8.99928 13.7739L14.9394 7.83409C15.5252 7.24833 16.4749 7.24834 17.0607 7.83411L18.7737 9.5471C18.9689 9.74236 18.9689 10.0589 18.7737 10.2542C18.5784 10.4495 18.2618 10.4495 18.0665 10.2542L16.3536 8.54122C16.1583 8.34596 15.8417 8.34596 15.6465 8.54121L9.35277 14.8346C9.259 14.9284 9.13181 14.9811 8.99919 14.9811C8.86658 14.9811 8.7394 14.9284 8.64563 14.8346L6.87267 13.0612C6.6774 12.8659 6.36076 12.8659 6.16549 13.0612L2.02771 17.1996C2.30974 17.6099 2.69075 17.9454 3.13803 18.1733C3.43014 18.3221 3.78921 18.4091 4.34192 18.4542C4.90047 18.4999 5.61166 18.5002 6.6 18.5002H11.048C11.3241 18.5002 11.548 18.7241 11.548 19.0002C11.548 19.2764 11.3241 19.5002 11.048 19.5002H6.57754C5.61646 19.5002 4.86451 19.5002 4.26049 19.4509C3.64594 19.4007 3.14062 19.2969 2.68404 19.0643C1.94507 18.6877 1.34177 18.091 0.957119 17.3571L0.953205 17.3496L0.935974 17.3162C0.703335 16.8596 0.599556 16.3543 0.549345 15.7398C0.499995 15.1357 0.499997 14.3838 0.5 13.4227V7.5778C0.499997 6.61671 0.499995 5.86476 0.549345 5.26074C0.599556 4.64618 0.703335 4.14086 0.935974 3.68428C1.31947 2.93163 1.93139 2.31971 2.68404 1.93622C3.14062 1.70358 3.64594 1.5998 4.26049 1.54959C4.86451 1.50024 5.61647 1.50024 6.57755 1.50024Z" fill="#353566"/>
<path fill-rule="evenodd" clip-rule="evenodd" d="M5 7.50024C5 6.39567 5.89543 5.50024 7 5.50024C8.10457 5.50024 9 6.39567 9 7.50024C9 8.60481 8.10457 9.50024 7 9.50024C5.89543 9.50024 5 8.60481 5 7.50024ZM7 6.50024C6.44772 6.50024 6 6.94796 6 7.50024C6 8.05253 6.44772 8.50024 7 8.50024C7.55228 8.50024 8 8.05253 8 7.50024C8 6.94796 7.55228 6.50024 7 6.50024Z" fill="#353566"/>
<path d="M17.7949 19.7119C17.7949 19.3667 18.0747 19.0869 18.4199 19.0869C18.7651 19.0869 19.045 19.3667 19.045 19.7119C19.045 20.0571 18.7652 20.3369 18.42 20.3369C18.0748 20.3369 17.7949 20.0571 17.7949 19.7119Z" fill="#353566"/>
<path d="M17.5449 16.2744C17.5449 15.7912 17.9367 15.3994 18.4199 15.3994C18.9032 15.3994 19.2949 15.7912 19.2949 16.2744C19.2949 16.5186 19.1955 16.7387 19.0337 16.898C18.9431 16.9872 18.8607 17.0386 18.7394 17.1141C18.7065 17.1346 18.6706 17.1569 18.6311 17.1822C18.453 17.296 18.2306 17.4568 18.07 17.7576C17.9399 18.0012 18.0319 18.3041 18.2755 18.4342C18.519 18.5643 18.822 18.4723 18.9521 18.2287C18.9924 18.1532 19.0431 18.1057 19.1697 18.0247C19.1889 18.0124 19.2111 17.9988 19.2357 17.9837C19.3639 17.9048 19.5574 17.7857 19.7353 17.6106C20.0802 17.2711 20.2949 16.7974 20.2949 16.2744C20.2949 15.2389 19.4555 14.3994 18.4199 14.3994C17.3844 14.3994 16.5449 15.2389 16.5449 16.2744C16.5449 16.5506 16.7688 16.7744 17.0449 16.7744C17.3211 16.7744 17.5449 16.5506 17.5449 16.2744Z" fill="#353566"/>
<path fill-rule="evenodd" clip-rule="evenodd" d="M23.5033 17.4202C23.5033 14.6128 21.2274 12.3369 18.4199 12.3369C15.6125 12.3369 13.3366 14.6128 13.3366 17.4202C13.3366 20.2277 15.6125 22.5036 18.4199 22.5036C21.2274 22.5036 23.5033 20.2277 23.5033 17.4202ZM18.4199 13.3369C20.6751 13.3369 22.5033 15.1651 22.5033 17.4202C22.5033 19.6754 20.6751 21.5036 18.4199 21.5036C16.1648 21.5036 14.3366 19.6754 14.3366 17.4202C14.3366 15.1651 16.1648 13.3369 18.4199 13.3369Z" fill="#353566"/>
</svg>
