<svg width="24" height="24" viewBox="0 0 24 24" fill="none" xmlns="http://www.w3.org/2000/svg">
<g clip-path="url(#clip0_9001_294320)">
<path d="M14.6226 0.5H7.37737C6.27642 0.499997 5.41948 0.499996 4.73209 0.556157C4.03416 0.61318 3.4671 0.730584 2.95704 0.990471C2.11031 1.4219 1.4219 2.11031 0.990471 2.95704C0.730584 3.4671 0.613181 4.03416 0.556157 4.73209C0.499996 5.41948 0.499997 6.27641 0.5 7.37737V14.99L0.500025 14.995L0.5 15V15.0188C0.5 15.9347 0.5 16.6478 0.53922 17.2227C0.579017 17.8059 0.660859 18.2835 0.842542 18.7221C1.29926 19.8247 2.1753 20.7007 3.27793 21.1575C3.71655 21.3391 4.19406 21.421 4.77734 21.4608C5.3522 21.5 6.06518 21.5 6.98113 21.5H10.7923C11.0684 21.5 11.2923 21.2761 11.2923 21C11.2923 20.7239 11.0684 20.5 10.7923 20.5H7C6.06128 20.5 5.38227 20.4997 4.84541 20.4631C4.31304 20.4268 3.95707 20.3564 3.66061 20.2336C2.80301 19.8784 2.12165 19.197 1.76642 18.3394C1.64362 18.0429 1.57322 17.687 1.5369 17.1546C1.50302 16.658 1.50025 16.0399 1.50002 15.2071L5.43934 11.2678C6.02512 10.682 6.97487 10.682 7.56066 11.2678L10.8557 14.5628C11.051 14.7581 11.3675 14.7581 11.5628 14.5628C11.7581 14.3676 11.7581 14.051 11.5628 13.8557L8.26777 10.5607C7.29145 9.58435 5.70854 9.58435 4.73223 10.5607L1.5 13.7929V7.4C1.5 6.27164 1.50039 5.45545 1.55284 4.81352C1.60481 4.17744 1.70539 3.75662 1.88148 3.41103C2.21703 2.75247 2.75247 2.21703 3.41103 1.88148C3.75662 1.70539 4.17744 1.60481 4.81352 1.55284C5.45545 1.50039 6.27164 1.5 7.4 1.5H14.6C15.7284 1.5 16.5446 1.50039 17.1865 1.55284C17.8226 1.60481 18.2434 1.70539 18.589 1.88148C19.2475 2.21703 19.783 2.75247 20.1185 3.41103C20.2946 3.75662 20.3952 4.17744 20.4472 4.81352C20.4996 5.45545 20.5 6.27164 20.5 7.4V10.6369C20.5 10.913 20.7239 11.1369 21 11.1369C21.2761 11.1369 21.5 10.913 21.5 10.6369V7.37736C21.5 6.27644 21.5 5.41946 21.4438 4.73209C21.3868 4.03416 21.2694 3.4671 21.0095 2.95704C20.5781 2.11031 19.8897 1.4219 19.043 0.990471C18.5329 0.730584 17.9658 0.61318 17.2679 0.556157C16.5805 0.499995 15.7236 0.499997 14.6226 0.5Z" fill="#353566"/>
<path fill-rule="evenodd" clip-rule="evenodd" d="M14.5 5C15.8807 5 17 6.11929 17 7.5C17 8.88071 15.8807 10 14.5 10C13.1193 10 12 8.88071 12 7.5C12 6.11929 13.1193 5 14.5 5ZM16 7.5C16 6.67157 15.3284 6 14.5 6C13.6716 6 13 6.67157 13 7.5C13 8.32843 13.6716 9 14.5 9C15.3284 9 16 8.32843 16 7.5Z" fill="#353566"/>
<path fill-rule="evenodd" clip-rule="evenodd" d="M18.25 16.25C17.2835 16.25 16.5 17.0335 16.5 18C16.5 18.9665 17.2835 19.75 18.25 19.75C19.2165 19.75 20 18.9665 20 18C20 17.0335 19.2165 16.25 18.25 16.25ZM17.5 18C17.5 17.5858 17.8358 17.25 18.25 17.25C18.6642 17.25 19 17.5858 19 18C19 18.4142 18.6642 18.75 18.25 18.75C17.8358 18.75 17.5 18.4142 17.5 18Z" fill="#353566"/>
<path fill-rule="evenodd" clip-rule="evenodd" d="M13.1845 20.212C12.8047 19.5529 13.0297 18.7096 13.6886 18.3285C13.9408 18.1827 13.9408 17.8172 13.6886 17.6714C13.0297 17.2903 12.8047 16.447 13.1845 15.7879L13.8042 14.7126C14.1844 14.0529 15.0272 13.8263 15.6866 14.2076C15.937 14.3525 16.2527 14.1723 16.2527 13.8791C16.2527 13.1183 16.8686 12.5 17.6302 12.5H18.8697C19.6314 12.5 20.2473 13.1183 20.2473 13.8792C20.2473 14.1724 20.563 14.3525 20.8134 14.2077C21.4728 13.8263 22.3156 14.053 22.6958 14.7126L23.3155 15.788C23.6954 16.4471 23.4703 17.2903 22.8114 17.6714C22.5592 17.8172 22.5592 18.1826 22.8114 18.3285C23.4703 18.7096 23.6954 19.5528 23.3155 20.2119L22.6958 21.2872C22.3156 21.9469 21.4728 22.1736 20.8134 21.7922C20.563 21.6474 20.2473 21.8275 20.2473 22.1208C20.2473 22.8816 19.6314 23.5 18.8697 23.5H17.6303C16.8686 23.5 16.2527 22.8817 16.2527 22.1208C16.2527 21.8275 15.937 21.6474 15.6866 21.7922C15.0272 22.1736 14.1844 21.9469 13.8042 21.2873L13.1845 20.212ZM14.1893 19.1942C14.0087 19.2986 13.9461 19.5308 14.0509 19.7127L14.6707 20.788C14.7752 20.9693 15.0059 21.0308 15.1859 20.9266C16.1057 20.3946 17.2527 21.0605 17.2527 22.1208C17.2527 22.3311 17.4226 22.5 17.6303 22.5H18.8697C19.0774 22.5 19.2473 22.3311 19.2473 22.1208C19.2473 21.0605 20.3943 20.3946 21.3141 20.9265C21.4941 21.0307 21.7248 20.9693 21.8293 20.7879L22.4491 19.7126C22.5539 19.5307 22.4913 19.2986 22.3107 19.1941C21.3928 18.6632 21.3928 17.3367 22.3107 16.8058C22.4913 16.7013 22.5539 16.4692 22.4491 16.2873L21.8293 15.212C21.7248 15.0306 21.4941 14.9692 21.3141 15.0733C20.3943 15.6053 19.2473 14.9395 19.2473 13.8792C19.2473 13.6689 19.0774 13.5 18.8697 13.5H17.6302C17.4226 13.5 17.2527 13.6689 17.2527 13.8791C17.2527 14.9395 16.1056 15.6052 15.186 15.0733C15.0059 14.9691 14.7752 15.0306 14.6707 15.2119L14.0509 16.2872C13.9461 16.4691 14.0087 16.7013 14.1893 16.8057C15.1073 17.3367 15.1073 18.6632 14.1893 19.1942Z" fill="#353566"/>
</g>
<defs>
<clipPath id="clip0_9001_294320">
<rect width="24" height="24" fill="white"/>
</clipPath>
</defs>
</svg>
