<svg width="24" height="24" viewBox="0 0 24 24" fill="none" xmlns="http://www.w3.org/2000/svg">
<g clip-path="url(#clip0_9001_294360)">
<path d="M7.37737 0.5H14.6226C15.7236 0.499997 16.5805 0.499995 17.2679 0.556157C17.9658 0.61318 18.5329 0.730584 19.043 0.990471C19.8897 1.4219 20.5781 2.11031 21.0095 2.95704C21.2694 3.4671 21.3868 4.03416 21.4438 4.73209C21.5 5.41945 21.5 6.27633 21.5 7.37721V10.0275C21.5 10.3036 21.2761 10.5275 21 10.5275C20.7239 10.5275 20.5 10.3036 20.5 10.0275V7.4C20.5 6.27164 20.4996 5.45545 20.4472 4.81352C20.3952 4.17744 20.2946 3.75662 20.1185 3.41103C19.783 2.75247 19.2475 2.21703 18.589 1.88148C18.2434 1.70539 17.8226 1.60481 17.1865 1.55284C16.5446 1.50039 15.7284 1.5 14.6 1.5H7.4C6.27164 1.5 5.45545 1.50039 4.81352 1.55284C4.17744 1.60481 3.75662 1.70539 3.41103 1.88148C2.75247 2.21703 2.21703 2.75247 1.88148 3.41103C1.70539 3.75662 1.60481 4.17744 1.55284 4.81352C1.50039 5.45545 1.5 6.27164 1.5 7.4V13.7929L4.73223 10.5607C5.70854 9.58435 7.29145 9.58435 8.26777 10.5607L11.9313 14.2243C12.1266 14.4195 12.1266 14.7361 11.9313 14.9314C11.7361 15.1266 11.4195 15.1266 11.2242 14.9314L7.56066 11.2678C6.97487 10.682 6.02512 10.682 5.43934 11.2678L1.50002 15.2071C1.50025 16.0399 1.50302 16.658 1.5369 17.1546C1.57322 17.687 1.64362 18.0429 1.76642 18.3394C2.12165 19.197 2.80301 19.8784 3.66061 20.2336C3.95707 20.3564 4.31304 20.4268 4.84541 20.4631C5.38227 20.4997 6.06128 20.5 7 20.5H11.1458C11.422 20.5 11.6458 20.7239 11.6458 21C11.6458 21.2761 11.422 21.5 11.1458 21.5H6.98123C6.06531 21.5 5.35218 21.5 4.77734 21.4608C4.19406 21.421 3.71655 21.3391 3.27793 21.1575C2.1753 20.7007 1.29926 19.8247 0.842542 18.7221C0.660859 18.2835 0.579017 17.8059 0.53922 17.2227C0.5 16.6478 0.5 15.9349 0.5 15.019V15L0.500025 14.995L0.5 14.99V7.37737C0.499997 6.27642 0.499996 5.41948 0.556157 4.73209C0.613181 4.03416 0.730584 3.4671 0.990471 2.95704C1.4219 2.11031 2.11031 1.4219 2.95704 0.990471C3.4671 0.730584 4.03416 0.61318 4.73209 0.556157C5.41948 0.499996 6.27642 0.499997 7.37737 0.5Z" fill="#353566"/>
<path fill-rule="evenodd" clip-rule="evenodd" d="M17 7.5C17 6.11929 15.8807 5 14.5 5C13.1193 5 12 6.11929 12 7.5C12 8.88071 13.1193 10 14.5 10C15.8807 10 17 8.88071 17 7.5ZM14.5 6C15.3284 6 16 6.67157 16 7.5C16 8.32843 15.3284 9 14.5 9C13.6716 9 13 8.32843 13 7.5C13 6.67157 13.6716 6 14.5 6Z" fill="#353566"/>
<path fill-rule="evenodd" clip-rule="evenodd" d="M14.5 16C13.3954 16 12.5 16.8954 12.5 18C12.5 19.1046 13.3954 20 14.5 20C15.0173 20 15.4887 19.8036 15.8438 19.4813L19.509 21.3139C19.5034 21.3752 19.5005 21.4372 19.5005 21.5C19.5005 22.6046 20.3959 23.5 21.5005 23.5C22.6051 23.5 23.5005 22.6046 23.5005 21.5C23.5005 20.3954 22.6051 19.5 21.5005 19.5C20.8164 19.5 20.2126 19.8434 19.8519 20.3673L16.3957 18.6392C16.4633 18.4385 16.5 18.2235 16.5 18C16.5 17.7765 16.4633 17.5615 16.3957 17.3608L19.8519 15.6327C20.2126 16.1566 20.8164 16.5 21.5005 16.5C22.6051 16.5 23.5005 15.6046 23.5005 14.5C23.5005 13.3954 22.6051 12.5 21.5005 12.5C20.3959 12.5 19.5005 13.3954 19.5005 14.5C19.5005 14.5628 19.5034 14.6248 19.509 14.6861L15.8438 16.5187C15.4888 16.1964 15.0173 16 14.5 16ZM13.5 18C13.5 17.4477 13.9477 17 14.5 17C15.0523 17 15.5 17.4477 15.5 18C15.5 18.5523 15.0523 19 14.5 19C13.9477 19 13.5 18.5523 13.5 18ZM21.5005 13.5C20.9482 13.5 20.5005 13.9477 20.5005 14.5C20.5005 15.0523 20.9482 15.5 21.5005 15.5C22.0528 15.5 22.5005 15.0523 22.5005 14.5C22.5005 13.9477 22.0528 13.5 21.5005 13.5ZM20.5005 21.5C20.5005 20.9477 20.9482 20.5 21.5005 20.5C22.0528 20.5 22.5005 20.9477 22.5005 21.5C22.5005 22.0523 22.0528 22.5 21.5005 22.5C20.9482 22.5 20.5005 22.0523 20.5005 21.5Z" fill="#353566"/>
</g>
<defs>
<clipPath id="clip0_9001_294360">
<rect width="24" height="24" fill="white"/>
</clipPath>
</defs>
</svg>
