<svg width="24" height="24" viewBox="0 0 24 24" fill="none" xmlns="http://www.w3.org/2000/svg">
<path d="M13.8536 1.85355C14.0488 1.65829 14.0488 1.34171 13.8536 1.14645C13.6583 0.951184 13.3417 0.951184 13.1464 1.14645L10.6464 3.64645C10.5527 3.74021 10.5 3.86739 10.5 4C10.5 4.13261 10.5527 4.25978 10.6464 4.35355L13.1464 6.85355C13.3417 7.04882 13.6583 7.04882 13.8536 6.85355C14.0488 6.65829 14.0488 6.34171 13.8536 6.14645L12.2096 4.50253C16.8072 4.61382 20.5 8.37566 20.5 13C20.5 17.6944 16.6944 21.5 12 21.5C7.30558 21.5 3.5 17.6944 3.5 13C3.5 10.0534 4.9989 7.45672 7.27813 5.93105C7.50761 5.77745 7.56911 5.4669 7.4155 5.23742C7.2619 5.00794 6.95135 4.94644 6.72187 5.10004C4.17716 6.80342 2.5 9.70575 2.5 13C2.5 18.2467 6.75329 22.5 12 22.5C17.2467 22.5 21.5 18.2467 21.5 13C21.5 7.82178 17.357 3.61121 12.2049 3.50217L13.8536 1.85355Z" fill="#353566"/>
<path fill-rule="evenodd" clip-rule="evenodd" d="M12.75 11.75C12.75 10.5074 13.7574 9.5 15 9.5C16.2426 9.5 17.25 10.5074 17.25 11.75V14.25C17.25 15.4926 16.2426 16.5 15 16.5C13.7574 16.5 12.75 15.4926 12.75 14.25V11.75ZM15 10.5C14.3096 10.5 13.75 11.0596 13.75 11.75V14.25C13.75 14.9404 14.3096 15.5 15 15.5C15.6904 15.5 16.25 14.9404 16.25 14.25V11.75C16.25 11.0596 15.6904 10.5 15 10.5Z" fill="#353566"/>
<path d="M10.75 9.5C10.9394 9.5 11.1125 9.607 11.1972 9.77639C11.2819 9.94573 11.2636 10.1484 11.1501 10.2998L11.1495 10.3007L11.1458 10.3056L11.1294 10.3281C11.1145 10.3486 11.092 10.38 11.0629 10.4215C11.0048 10.5045 10.9206 10.628 10.819 10.786C10.6156 11.1025 10.3438 11.5554 10.0722 12.0986C9.52386 13.1953 9 14.6133 9 16C9 16.2761 8.77614 16.5 8.5 16.5C8.22386 16.5 8 16.2761 8 16C8 14.3867 8.60113 12.8047 9.17778 11.6514C9.40229 11.2024 9.62667 10.8113 9.81782 10.5H7.25C6.97386 10.5 6.75 10.2761 6.75 10C6.75 9.72386 6.97386 9.5 7.25 9.5H10.75Z" fill="#353566"/>
</svg>
