<svg width="24" height="24" viewBox="0 0 24 24" fill="none" xmlns="http://www.w3.org/2000/svg">
<path d="M10.1464 1.14645C9.95118 1.34171 9.95118 1.65829 10.1464 1.85355L11.7951 3.50217C6.64298 3.61121 2.5 7.82178 2.5 13C2.5 18.2467 6.75329 22.5 12 22.5C17.2467 22.5 21.5 18.2467 21.5 13C21.5 11.4842 21.1446 10.05 20.5122 8.77748C20.3893 8.53019 20.0893 8.42935 19.842 8.55224C19.5947 8.67514 19.4938 8.97523 19.6167 9.22252C20.1819 10.3599 20.5 11.6421 20.5 13C20.5 17.6944 16.6944 21.5 12 21.5C7.30558 21.5 3.5 17.6944 3.5 13C3.5 8.37566 7.1928 4.61382 11.7904 4.50253L10.1464 6.14645C9.95118 6.34171 9.95118 6.65829 10.1464 6.85355C10.3417 7.04882 10.6583 7.04882 10.8536 6.85355L13.3536 4.35355C13.4473 4.25978 13.5 4.13261 13.5 4C13.5 3.86739 13.4473 3.74021 13.3536 3.64645L10.8536 1.14645C10.6583 0.951184 10.3417 0.951184 10.1464 1.14645Z" fill="#353566"/>
<path d="M13.6464 1.85355C13.4512 1.65829 13.4512 1.34171 13.6464 1.14645C13.8417 0.951184 14.1583 0.951184 14.3536 1.14645L16.8536 3.64645C16.9473 3.74021 17 3.86739 17 4C17 4.13261 16.9473 4.25978 16.8536 4.35355L14.3536 6.85355C14.1583 7.04882 13.8417 7.04882 13.6464 6.85355C13.4512 6.65829 13.4512 6.34171 13.6464 6.14645L15.7929 4L13.6464 1.85355Z" fill="#353566"/>
<path fill-rule="evenodd" clip-rule="evenodd" d="M12.75 12.25C12.75 11.0074 13.7574 10 15 10C16.2426 10 17.25 11.0074 17.25 12.25V14.75C17.25 15.9926 16.2426 17 15 17C13.7574 17 12.75 15.9926 12.75 14.75V12.25ZM15 11C14.3096 11 13.75 11.5596 13.75 12.25V14.75C13.75 15.4404 14.3096 16 15 16C15.6904 16 16.25 15.4404 16.25 14.75V12.25C16.25 11.5596 15.6904 11 15 11Z" fill="#353566"/>
<path fill-rule="evenodd" clip-rule="evenodd" d="M7.74999 10C7.50557 10 7.29698 10.1767 7.2568 10.4178L6.7568 13.4178C6.72403 13.6144 6.81114 13.8117 6.97851 13.9199C7.14578 14.028 7.36155 14.0265 7.52734 13.9161L7.54352 13.906C7.55957 13.8963 7.58584 13.8809 7.62147 13.8616C7.69291 13.8229 7.80084 13.7694 7.93834 13.7153C8.21505 13.6065 8.60015 13.5 9.04285 13.5C9.6988 13.5 10.25 14.0696 10.25 14.75C10.25 15.4404 9.69031 16 8.99995 16C8.45273 16 7.88585 15.667 7.70025 15.2826C7.58018 15.0339 7.28125 14.9297 7.03258 15.0497C6.78391 15.1698 6.67966 15.4687 6.79974 15.7174C7.18511 16.5155 8.15097 17 8.99995 17C10.2426 17 11.25 15.9926 11.25 14.75C11.25 13.5544 10.2875 12.5 9.04285 12.5C8.60452 12.5 8.21357 12.5765 7.89475 12.6728L8.17356 11H10.5C10.7761 11 11 10.7761 11 10.5C11 10.2239 10.7761 10 10.5 10H7.74999ZM7.52734 13.9161L7.52643 13.9166L7.52529 13.9174L7.52734 13.9161Z" fill="#353566"/>
</svg>
