<svg width="24" height="24" viewBox="0 0 24 24" fill="none" xmlns="http://www.w3.org/2000/svg">
<path d="M12.4224 1.5H6.57755C5.61647 1.5 4.86451 1.49999 4.26049 1.54935C3.64594 1.59956 3.14062 1.70334 2.68404 1.93597C1.93139 2.31947 1.31947 2.93139 0.935974 3.68404C0.703335 4.14062 0.599556 4.64594 0.549345 5.26049C0.499995 5.86451 0.499997 6.61646 0.5 7.57755V16.4224C0.499997 17.3835 0.499995 18.1355 0.549345 18.7395C0.599556 19.3541 0.703335 19.8594 0.935974 20.316C1.31947 21.0686 1.93139 21.6805 2.68404 22.064C3.14062 22.2967 3.64594 22.4004 4.26049 22.4507C4.86451 22.5 5.61646 22.5 6.57754 22.5H12.4013C12.6979 22.5 12.9738 22.5 13.23 22.4987C13.5061 22.4972 13.7288 22.2722 13.7273 21.9961C13.7259 21.7199 13.5009 21.4972 13.2247 21.4987C12.9713 21.5 12.6978 21.5 12.4 21.5H6.6C5.61166 21.5 4.90047 21.4996 4.34192 21.454C3.78921 21.4088 3.43014 21.3219 3.13803 21.173C2.57354 20.8854 2.1146 20.4265 1.82698 19.862C1.67814 19.5699 1.59118 19.2108 1.54602 18.6581C1.50039 18.0995 1.5 17.3883 1.5 16.4V7.6C1.5 6.61166 1.50039 5.90047 1.54602 5.34192C1.59118 4.78921 1.67814 4.43014 1.82698 4.13803C2.1146 3.57354 2.57354 3.1146 3.13803 2.82698C3.43014 2.67814 3.78921 2.59118 4.34192 2.54602C4.90047 2.50039 5.61166 2.5 6.6 2.5H12.4C13.3883 2.5 14.0995 2.50039 14.6581 2.54602C15.2108 2.59118 15.5699 2.67814 15.862 2.82698C16.4265 3.1146 16.8854 3.57354 17.173 4.13803C17.3219 4.43014 17.4088 4.78921 17.454 5.34192C17.4996 5.90047 17.5 6.61166 17.5 7.6V11.0652C17.5 11.3413 17.7239 11.5652 18 11.5652C18.2761 11.5652 18.5 11.3413 18.5 11.0652V7.57754C18.5 6.61646 18.5 5.86451 18.4507 5.26049C18.4004 4.64594 18.2967 4.14062 18.064 3.68404C17.6805 2.93139 17.0686 2.31947 16.316 1.93597C15.8594 1.70334 15.3541 1.59956 14.7395 1.54935C14.1355 1.49999 13.3835 1.5 12.4224 1.5Z" fill="#353566"/>
<path d="M5.5 7.5C5.22386 7.5 5 7.72386 5 8C5 8.27614 5.22386 8.5 5.5 8.5H9.5C9.77614 8.5 10 8.27614 10 8C10 7.72386 9.77614 7.5 9.5 7.5H5.5Z" fill="#353566"/>
<path d="M5.5 11.5C5.22386 11.5 5 11.7239 5 12C5 12.2761 5.22386 12.5 5.5 12.5H13.5C13.7761 12.5 14 12.2761 14 12C14 11.7239 13.7761 11.5 13.5 11.5H5.5Z" fill="#353566"/>
<path d="M5.5 15.5C5.22386 15.5 5 15.7239 5 16C5 16.2761 5.22386 16.5 5.5 16.5H10.8913C11.1675 16.5 11.3913 16.2761 11.3913 16C11.3913 15.7239 11.1675 15.5 10.8913 15.5H5.5Z" fill="#353566"/>
<path fill-rule="evenodd" clip-rule="evenodd" d="M15.8479 14.6281C16.1578 13.7906 17.3422 13.7906 17.6521 14.6281L17.9505 15.4345C18.2274 16.1827 18.8173 16.7726 19.5655 17.0495L20.3719 17.3479C21.2094 17.6578 21.2094 18.8422 20.3719 19.1521L19.5655 19.4505C18.8173 19.7274 18.2274 20.3173 17.9505 21.0655L17.6521 21.8719C17.3422 22.7094 16.1578 22.7094 15.8479 21.8719L15.5495 21.0655C15.2726 20.3173 14.6827 19.7274 13.9345 19.4505L13.1281 19.1521C12.2906 18.8422 12.2906 17.6578 13.1281 17.3479L13.9345 17.0495C14.6827 16.7726 15.2726 16.1827 15.5495 15.4345L15.8479 14.6281ZM16.75 15.0717L16.4873 15.7816C16.1092 16.8035 15.3035 17.6092 14.2816 17.9873L13.5717 18.25L14.2816 18.5127C15.3035 18.8908 16.1092 19.6965 16.4873 20.7184L16.75 21.4283L17.0127 20.7184C17.3908 19.6965 18.1965 18.8908 19.2184 18.5127L19.9283 18.25L19.2184 17.9873C18.1965 17.6092 17.3908 16.8035 17.0127 15.7816L16.75 15.0717Z" fill="#353566"/>
<path d="M21.1269 12.0883C21.0833 11.9706 20.9167 11.9706 20.8731 12.0883L20.6789 12.6133C20.4962 13.107 20.107 13.4962 19.6133 13.6789L19.0883 13.8731C18.9706 13.9167 18.9706 14.0833 19.0883 14.1269L19.6133 14.3211C20.107 14.5038 20.4962 14.893 20.6789 15.3867L20.8731 15.9117C20.9167 16.0294 21.0833 16.0294 21.1269 15.9117L21.3211 15.3867C21.5038 14.893 21.893 14.5038 22.3867 14.3211L22.9117 14.1269C23.0294 14.0833 23.0294 13.9167 22.9117 13.8731L22.3867 13.6789C21.893 13.4962 21.5038 13.107 21.3211 12.6133L21.1269 12.0883Z" fill="#353566"/>
</svg>
