<svg width="24" height="24" viewBox="0 0 24 24" fill="none" xmlns="http://www.w3.org/2000/svg">
<path d="M12.4224 1.5H6.57755C5.61647 1.5 4.86451 1.49999 4.26049 1.54935C3.64594 1.59956 3.14062 1.70334 2.68404 1.93597C1.93139 2.31947 1.31947 2.93139 0.935974 3.68404C0.703335 4.14062 0.599556 4.64594 0.549345 5.26049C0.499995 5.86451 0.499997 6.61646 0.5 7.57755V16.4224C0.499997 17.3835 0.499995 18.1355 0.549345 18.7395C0.599556 19.3541 0.703335 19.8594 0.935974 20.316C1.31947 21.0686 1.93139 21.6805 2.68404 22.064C3.14062 22.2967 3.64594 22.4004 4.26049 22.4507C4.86451 22.5 5.61646 22.5 6.57754 22.5H12.2808C12.557 22.5 12.7808 22.2761 12.7808 22C12.7808 21.7239 12.557 21.5 12.2808 21.5H6.6C5.61166 21.5 4.90047 21.4996 4.34192 21.454C3.78921 21.4088 3.43014 21.3219 3.13803 21.173C2.57354 20.8854 2.1146 20.4265 1.82698 19.862C1.67814 19.5699 1.59118 19.2108 1.54602 18.6581C1.50039 18.0995 1.5 17.3883 1.5 16.4V7.6C1.5 6.61166 1.50039 5.90047 1.54602 5.34192C1.59118 4.78921 1.67814 4.43014 1.82698 4.13803C2.1146 3.57354 2.57354 3.1146 3.13803 2.82698C3.43014 2.67814 3.78921 2.59118 4.34192 2.54602C4.90047 2.50039 5.61166 2.5 6.6 2.5H12.4C13.3883 2.5 14.0995 2.50039 14.6581 2.54602C15.2108 2.59118 15.5699 2.67814 15.862 2.82698C16.4265 3.1146 16.8854 3.57354 17.173 4.13803C17.3219 4.43014 17.4088 4.78921 17.454 5.34192C17.4996 5.90047 17.5 6.61166 17.5 7.6V10.2447C17.5 10.5208 17.7239 10.7447 18 10.7447C18.2761 10.7447 18.5 10.5208 18.5 10.2447V7.57754C18.5 6.61646 18.5 5.86451 18.4507 5.26049C18.4004 4.64594 18.2967 4.14062 18.064 3.68404C17.6805 2.93139 17.0686 2.31947 16.316 1.93597C15.8594 1.70334 15.3541 1.59956 14.7395 1.54935C14.1355 1.49999 13.3835 1.5 12.4224 1.5Z" fill="#353566"/>
<path d="M10 7.83984C9.72386 7.83984 9.5 8.0637 9.5 8.33984C9.5 8.61599 9.72386 8.83984 10 8.83984H13.5C13.7761 8.83984 14 8.61599 14 8.33984C14 8.0637 13.7761 7.83984 13.5 7.83984H10Z" fill="#353566"/>
<path d="M10 11.6699C9.72386 11.6699 9.5 11.8938 9.5 12.1699C9.5 12.4461 9.72386 12.6699 10 12.6699H13.5C13.7761 12.6699 14 12.4461 14 12.1699C14 11.8938 13.7761 11.6699 13.5 11.6699H10Z" fill="#353566"/>
<path d="M9.25 15.4999C8.97386 15.4999 8.75 15.7237 8.75 15.9999C8.75 16.276 8.97386 16.4999 9.25 16.4999H13.5C13.7761 16.4999 14 16.276 14 15.9999C14 15.7237 13.7761 15.4999 13.5 15.4999H9.25Z" fill="#353566"/>
<path d="M7.84599 7.37903C8.04534 7.57011 8.05204 7.88662 7.86096 8.08598L6.58294 9.41931C6.48977 9.51651 6.36134 9.57203 6.22671 9.5733C6.09207 9.57457 5.96261 9.52149 5.86762 9.42607L5.14564 8.70078C4.95082 8.50507 4.95155 8.18849 5.14726 7.99368C5.34296 7.79886 5.65954 7.79958 5.85436 7.99529L6.21522 8.35781L7.13904 7.394C7.33012 7.19465 7.64663 7.18795 7.84599 7.37903Z" fill="#353566"/>
<path d="M7.86096 11.9161C8.05204 11.7167 8.04534 11.4002 7.84599 11.2091C7.64663 11.018 7.33012 11.0247 7.13904 11.2241L6.21522 12.1879L5.85436 11.8254C5.65954 11.6297 5.34296 11.6289 5.14726 11.8238C4.95155 12.0186 4.95082 12.3352 5.14564 12.5309L5.86762 13.2561C5.96261 13.3516 6.09207 13.4047 6.22671 13.4034C6.36134 13.4021 6.48977 13.3466 6.58294 13.2494L7.86096 11.9161Z" fill="#353566"/>
<path d="M5.75 16C5.75 15.5858 6.08579 15.25 6.5 15.25C6.91421 15.25 7.2501 15.5858 7.2501 16C7.2501 16.4142 6.91431 16.75 6.5001 16.75C6.08589 16.75 5.75 16.4142 5.75 16Z" fill="#353566"/>
<path fill-rule="evenodd" clip-rule="evenodd" d="M22.601 15.22L19.5005 16.1243V20.4999C19.5005 21.0643 19.2114 21.5881 18.7146 21.9607C18.2232 22.3292 17.601 22.5001 17.0003 22.5001C16.3995 22.5001 15.7773 22.3292 15.2859 21.9607C14.7891 21.5881 14.5 21.0643 14.5 20.4999C14.5 19.9355 14.7891 19.4117 15.2859 19.0391C15.7773 18.6705 16.3995 18.4997 17.0003 18.4997C17.5167 18.4997 18.0491 18.6259 18.5005 18.8956V13.709C18.5005 13.0423 18.9405 12.4556 19.5806 12.2689L22.0609 11.5455C22.781 11.3355 23.501 11.8755 23.501 12.6255V14.0199C23.501 14.5755 23.1343 15.0644 22.601 15.22ZM22.3409 12.5055C22.421 12.4821 22.501 12.5422 22.501 12.6255V14.0199C22.501 14.131 22.4277 14.2288 22.321 14.26L19.5005 15.0826V13.709C19.5005 13.4867 19.6472 13.2911 19.8606 13.2289L22.3409 12.5055ZM18.1147 19.8391C18.3988 20.0522 18.5003 20.296 18.5005 20.4993C18.5005 20.7028 18.399 20.9474 18.1147 21.1607C17.8249 21.378 17.4233 21.5001 17.0003 21.5001C16.5772 21.5001 16.1756 21.378 15.8859 21.1607C15.6015 20.9474 15.5 20.7033 15.5 20.4999C15.5 20.2964 15.6015 20.0524 15.8859 19.8391C16.1756 19.6218 16.5772 19.4997 17.0003 19.4997C17.4233 19.4997 17.8249 19.6218 18.1147 19.8391Z" fill="#353566"/>
</svg>
