<svg width="24" height="24" viewBox="0 0 24 24" fill="none" xmlns="http://www.w3.org/2000/svg">
<path d="M12.4224 1.50012H6.57755C5.61647 1.50012 4.86451 1.50012 4.26049 1.54947C3.64594 1.59968 3.14062 1.70346 2.68404 1.9361C1.93139 2.31959 1.31947 2.93151 0.935974 3.68416C0.703335 4.14074 0.599556 4.64606 0.549345 5.26061C0.499995 5.86463 0.499997 6.61658 0.5 7.57767V16.4226C0.499997 17.3837 0.499995 18.1356 0.549345 18.7396C0.599556 19.3542 0.703335 19.8595 0.935974 20.3161C1.31947 21.0687 1.93139 21.6807 2.68404 22.0641C3.14062 22.2968 3.64594 22.4006 4.26049 22.4508C4.86451 22.5001 5.61646 22.5001 6.57754 22.5001H10C10.2761 22.5001 10.5 22.2763 10.5 22.0001C10.5 21.724 10.2761 21.5001 10 21.5001H6.6C5.61166 21.5001 4.90047 21.4997 4.34192 21.4541C3.78921 21.4089 3.43014 21.322 3.13803 21.1731C2.57354 20.8855 2.1146 20.4266 1.82698 19.8621C1.67814 19.57 1.59118 19.2109 1.54602 18.6582C1.50039 18.0996 1.5 17.3885 1.5 16.4001V7.60012C1.5 6.61178 1.50039 5.90059 1.54602 5.34205C1.59118 4.78933 1.67814 4.43026 1.82698 4.13815C2.1146 3.57366 2.57354 3.11472 3.13803 2.8271C3.43014 2.67826 3.78921 2.5913 4.34192 2.54615C4.90047 2.50051 5.61166 2.50012 6.6 2.50012H12.4C13.3883 2.50012 14.0995 2.50051 14.6581 2.54615C15.2108 2.5913 15.5699 2.67826 15.862 2.8271C16.4265 3.11472 16.8854 3.57366 17.173 4.13815C17.3219 4.43026 17.4088 4.78933 17.454 5.34204C17.4996 5.90059 17.5 6.61178 17.5 7.60012V10.1688C17.5 10.4449 17.7239 10.6688 18 10.6688C18.2761 10.6688 18.5 10.4449 18.5 10.1688V7.57766C18.5 6.61658 18.5 5.86463 18.4507 5.26061C18.4004 4.64606 18.2967 4.14074 18.064 3.68416C17.6805 2.93151 17.0686 2.31959 16.316 1.9361C15.8594 1.70346 15.3541 1.59968 14.7395 1.54947C14.1355 1.50012 13.3835 1.50012 12.4224 1.50012Z" fill="#353566"/>
<path d="M5.5 7.50012C5.22386 7.50012 5 7.72398 5 8.00012C5 8.27626 5.22386 8.50012 5.5 8.50012H9.5C9.77614 8.50012 10 8.27626 10 8.00012C10 7.72398 9.77614 7.50012 9.5 7.50012H5.5Z" fill="#353566"/>
<path d="M5.5 11.5001C5.22386 11.5001 5 11.724 5 12.0001C5 12.2763 5.22386 12.5001 5.5 12.5001H13.5C13.7761 12.5001 14 12.2763 14 12.0001C14 11.724 13.7761 11.5001 13.5 11.5001H5.5Z" fill="#353566"/>
<path d="M5.5 15.5001C5.22386 15.5001 5 15.724 5 16.0001C5 16.2763 5.22386 16.5001 5.5 16.5001H12.1571C12.4332 16.5001 12.6571 16.2763 12.6571 16.0001C12.6571 15.724 12.4332 15.5001 12.1571 15.5001H5.5Z" fill="#353566"/>
<path fill-rule="evenodd" clip-rule="evenodd" d="M19.8776 11.8593C20.5638 11.382 21.4745 11.3818 22.1609 11.8589C22.3081 11.9612 22.4496 12.1027 22.6405 12.2936L22.7066 12.3596C22.8976 12.5504 23.0393 12.6919 23.1417 12.8391C23.6192 13.5255 23.6194 14.4364 23.1422 15.1229C23.0398 15.2702 22.8982 15.4117 22.7072 15.6026L16.7308 21.5801C16.6643 21.6466 16.5804 21.693 16.4888 21.714L13.1116 22.4875C12.9438 22.5259 12.7681 22.4753 12.6464 22.3535C12.5247 22.2318 12.4742 22.056 12.5127 21.8882L13.287 18.5148C13.308 18.4233 13.3543 18.3396 13.4207 18.2732L19.3981 12.2943C19.5889 12.1033 19.7304 11.9617 19.8776 11.8593ZM21.5902 12.68C21.247 12.4415 20.7917 12.4416 20.4486 12.6803C20.3846 12.7248 20.3107 12.7959 20.0723 13.0343L19.4169 13.6899L21.3113 15.5843L21.967 14.9286C22.2054 14.6901 22.2766 14.6161 22.3211 14.5521C22.5597 14.2089 22.5596 13.7534 22.3208 13.4102C22.2763 13.3463 22.2052 13.2723 21.9666 13.0339C21.7282 12.7956 21.6542 12.7245 21.5902 12.68ZM20.6043 16.2915L18.7099 14.3971L14.2295 18.8786L13.6658 21.3347L16.1253 20.7714L20.6043 16.2915Z" fill="#353566"/>
</svg>
