<svg width="24" height="24" viewBox="0 0 24 24" fill="none" xmlns="http://www.w3.org/2000/svg">
<path d="M6.57755 1.5H12.4224C13.3835 1.5 14.1355 1.49999 14.7395 1.54935C15.3541 1.59956 15.8594 1.70334 16.316 1.93597C17.0686 2.31947 17.6805 2.93139 18.064 3.68404C18.2967 4.14062 18.4004 4.64594 18.4507 5.26049C18.5 5.86451 18.5 6.61646 18.5 7.57754V9C18.5 9.27614 18.2761 9.5 18 9.5C17.7239 9.5 17.5 9.27614 17.5 9V7.6C17.5 6.61166 17.4996 5.90047 17.454 5.34192C17.4088 4.78921 17.3219 4.43014 17.173 4.13803C16.8854 3.57354 16.4265 3.1146 15.862 2.82698C15.5699 2.67814 15.2108 2.59118 14.6581 2.54602C14.0995 2.50039 13.3883 2.5 12.4 2.5H6.6C5.61166 2.5 4.90047 2.50039 4.34192 2.54602C3.78921 2.59118 3.43014 2.67814 3.13803 2.82698C2.57354 3.1146 2.1146 3.57354 1.82698 4.13803C1.67814 4.43014 1.59118 4.78921 1.54602 5.34192C1.50039 5.90047 1.5 6.61166 1.5 7.6V16.4C1.5 17.3883 1.50039 18.0995 1.54602 18.6581C1.59118 19.2108 1.67814 19.5699 1.82698 19.862C2.1146 20.4265 2.57354 20.8854 3.13803 21.173C3.43014 21.3219 3.78921 21.4088 4.34192 21.454C4.90047 21.4996 5.61166 21.5 6.6 21.5H11.9524C12.2286 21.5 12.4524 21.7239 12.4524 22C12.4524 22.2761 12.2286 22.5 11.9524 22.5H6.57754C5.61646 22.5 4.86451 22.5 4.26049 22.4507C3.64594 22.4004 3.14062 22.2967 2.68404 22.064C1.93139 21.6805 1.31947 21.0686 0.935974 20.316C0.703335 19.8594 0.599556 19.3541 0.549345 18.7395C0.499995 18.1355 0.499997 17.3835 0.5 16.4225V7.57756C0.499997 6.61647 0.499995 5.86451 0.549345 5.26049C0.599556 4.64594 0.703335 4.14062 0.935974 3.68404C1.31947 2.93139 1.93139 2.31947 2.68404 1.93597C3.14062 1.70334 3.64594 1.59956 4.26049 1.54935C4.86451 1.49999 5.61647 1.5 6.57755 1.5Z" fill="#353566"/>
<path d="M8 8C8 7.72386 8.22386 7.5 8.5 7.5H13.5C13.7761 7.5 14 7.72386 14 8C14 8.27614 13.7761 8.5 13.5 8.5H8.5C8.22386 8.5 8 8.27614 8 8Z" fill="#353566"/>
<path d="M8 12C8 11.7239 8.22386 11.5 8.5 11.5H11.9523C12.2285 11.5 12.4523 11.7239 12.4523 12C12.4523 12.2761 12.2285 12.5 11.9523 12.5H8.5C8.22386 12.5 8 12.2761 8 12Z" fill="#353566"/>
<path d="M8 16C8 15.7239 8.22386 15.5 8.5 15.5H10.5358C10.812 15.5 11.0358 15.7239 11.0358 16C11.0358 16.2761 10.812 16.5 10.5358 16.5H8.5C8.22386 16.5 8 16.2761 8 16Z" fill="#353566"/>
<path d="M5.5 7.25C5.08579 7.25 4.75 7.58579 4.75 8C4.75 8.41421 5.08579 8.75 5.5 8.75C5.91421 8.75 6.2501 8.41421 6.2501 8C6.2501 7.58579 5.91421 7.25 5.5 7.25Z" fill="#353566"/>
<path d="M4.75 12C4.75 11.5858 5.08579 11.25 5.5 11.25C5.91421 11.25 6.2501 11.5858 6.2501 12C6.2501 12.4142 5.91431 12.75 5.5001 12.75C5.08589 12.75 4.75 12.4142 4.75 12Z" fill="#353566"/>
<path d="M5.5 15.25C5.08579 15.25 4.75 15.5858 4.75 16C4.75 16.4142 5.08579 16.75 5.5 16.75C5.91421 16.75 6.2501 16.4142 6.2501 16C6.2501 15.5858 5.91421 15.25 5.5 15.25Z" fill="#353566"/>
<path fill-rule="evenodd" clip-rule="evenodd" d="M18.25 15.25C17.2835 15.25 16.5 16.0335 16.5 17C16.5 17.9665 17.2835 18.75 18.25 18.75C19.2165 18.75 20 17.9665 20 17C20 16.0335 19.2165 15.25 18.25 15.25ZM17.5 17C17.5 16.5858 17.8358 16.25 18.25 16.25C18.6642 16.25 19 16.5858 19 17C19 17.4142 18.6642 17.75 18.25 17.75C17.8358 17.75 17.5 17.4142 17.5 17Z" fill="#353566"/>
<path fill-rule="evenodd" clip-rule="evenodd" d="M13.1845 19.212C12.8047 18.5529 13.0297 17.7096 13.6886 17.3285C13.9408 17.1827 13.9408 16.8172 13.6886 16.6714C13.0297 16.2903 12.8047 15.447 13.1845 14.7879L13.8042 13.7126C14.1844 13.0529 15.0272 12.8263 15.6866 13.2076C15.937 13.3525 16.2527 13.1723 16.2527 12.8791C16.2527 12.1183 16.8686 11.5 17.6302 11.5H18.8697C19.6314 11.5 20.2473 12.1183 20.2473 12.8792C20.2473 13.1724 20.563 13.3525 20.8134 13.2077C21.4728 12.8263 22.3156 13.053 22.6958 13.7126L23.3155 14.788C23.6954 15.4471 23.4703 16.2903 22.8114 16.6714C22.5592 16.8172 22.5592 17.1826 22.8114 17.3285C23.4703 17.7096 23.6954 18.5528 23.3155 19.2119L22.6958 20.2872C22.3156 20.9469 21.4728 21.1736 20.8134 20.7922C20.563 20.6474 20.2473 20.8275 20.2473 21.1208C20.2473 21.8816 19.6314 22.5 18.8697 22.5H17.6303C16.8686 22.5 16.2527 21.8817 16.2527 21.1208C16.2527 20.8275 15.937 20.6474 15.6866 20.7922C15.0272 21.1736 14.1844 20.9469 13.8042 20.2873L13.1845 19.212ZM14.1893 18.1942C14.0087 18.2986 13.9461 18.5308 14.0509 18.7127L14.6707 19.788C14.7752 19.9693 15.0059 20.0308 15.1859 19.9266C16.1057 19.3946 17.2527 20.0605 17.2527 21.1208C17.2527 21.3311 17.4226 21.5 17.6303 21.5H18.8697C19.0774 21.5 19.2473 21.3311 19.2473 21.1208C19.2473 20.0605 20.3943 19.3946 21.3141 19.9265C21.4941 20.0307 21.7248 19.9693 21.8293 19.7879L22.4491 18.7126C22.5539 18.5307 22.4913 18.2986 22.3107 18.1941C21.3928 17.6632 21.3928 16.3367 22.3107 15.8058C22.4913 15.7013 22.5539 15.4692 22.4491 15.2873L21.8293 14.212C21.7248 14.0306 21.4941 13.9692 21.3141 14.0733C20.3943 14.6053 19.2473 13.9395 19.2473 12.8792C19.2473 12.6689 19.0774 12.5 18.8697 12.5H17.6302C17.4226 12.5 17.2527 12.6689 17.2527 12.8791C17.2527 13.9395 16.1056 14.6052 15.186 14.0733C15.0059 13.9691 14.7752 14.0306 14.6707 14.2119L14.0509 15.2872C13.9461 15.4691 14.0087 15.7013 14.1893 15.8057C15.1073 16.3367 15.1073 17.6632 14.1893 18.1942Z" fill="#353566"/>
</svg>
