<svg width="24" height="24" viewBox="0 0 24 24" fill="none" xmlns="http://www.w3.org/2000/svg">
<path d="M6.57755 1.5H12.4224C13.3835 1.5 14.1355 1.49999 14.7395 1.54935C15.3541 1.59956 15.8594 1.70334 16.316 1.93597C17.0686 2.31947 17.6805 2.93139 18.064 3.68404C18.2967 4.14062 18.4004 4.64594 18.4507 5.26049C18.5 5.86451 18.5 6.61646 18.5 7.57754V9.07092C18.5 9.34706 18.2761 9.57092 18 9.57092C17.7239 9.57092 17.5 9.34706 17.5 9.07092V7.6C17.5 6.61166 17.4996 5.90047 17.454 5.34192C17.4088 4.78921 17.3219 4.43014 17.173 4.13803C16.8854 3.57354 16.4265 3.1146 15.862 2.82698C15.5699 2.67814 15.2108 2.59118 14.6581 2.54602C14.0995 2.50039 13.3883 2.5 12.4 2.5H6.6C5.61166 2.5 4.90047 2.50039 4.34192 2.54602C3.78921 2.59118 3.43014 2.67814 3.13803 2.82698C2.57354 3.1146 2.1146 3.57354 1.82698 4.13803C1.67814 4.43014 1.59118 4.78921 1.54602 5.34192C1.50039 5.90047 1.5 6.61166 1.5 7.6V16.4C1.5 17.3883 1.50039 18.0995 1.54602 18.6581C1.59118 19.2108 1.67814 19.5699 1.82698 19.862C2.1146 20.4265 2.57354 20.8854 3.13803 21.173C3.43014 21.3219 3.78921 21.4088 4.34192 21.454C4.90047 21.4996 5.61166 21.5 6.6 21.5H12.4C13.2762 21.5 13.9359 21.4998 14.4668 21.4675C14.7424 21.4508 14.9795 21.6606 14.9962 21.9362C15.013 22.2119 14.8031 22.4489 14.5275 22.4657C13.9628 22.5 13.273 22.5 12.4154 22.5H6.57754C5.61646 22.5 4.86451 22.5 4.26049 22.4507C3.64594 22.4004 3.14062 22.2967 2.68404 22.064C1.93139 21.6805 1.31947 21.0686 0.935974 20.316C0.703335 19.8594 0.599556 19.3541 0.549345 18.7395C0.499995 18.1355 0.499997 17.3835 0.5 16.4225V7.57756C0.499997 6.61647 0.499995 5.86451 0.549345 5.26049C0.599556 4.64594 0.703335 4.14062 0.935974 3.68404C1.31947 2.93139 1.93139 2.31947 2.68404 1.93597C3.14062 1.70334 3.64594 1.59956 4.26049 1.54935C4.86451 1.49999 5.61647 1.5 6.57755 1.5Z" fill="#353566"/>
<path d="M9.5 8.1001C9.5 7.82396 9.72386 7.6001 10 7.6001H13.5C13.7761 7.6001 14 7.82396 14 8.1001C14 8.37624 13.7761 8.6001 13.5 8.6001H10C9.72386 8.6001 9.5 8.37624 9.5 8.1001Z" fill="#353566"/>
<path d="M9.5 11.9302C9.5 11.654 9.72386 11.4302 10 11.4302H13.3051C13.5813 11.4302 13.8051 11.654 13.8051 11.9302C13.8051 12.2063 13.5813 12.4302 13.3051 12.4302H10C9.72386 12.4302 9.5 12.2063 9.5 11.9302Z" fill="#353566"/>
<path d="M9.5 15.7601C9.5 15.484 9.72386 15.2601 10 15.2601H12.0041C12.2802 15.2601 12.5041 15.484 12.5041 15.7601C12.5041 16.0363 12.2802 16.2601 12.0041 16.2601H10C9.72386 16.2601 9.5 16.0363 9.5 15.7601Z" fill="#353566"/>
<path d="M7.86096 7.84599C8.05204 7.64663 8.04534 7.33012 7.84599 7.13904C7.64663 6.94796 7.33012 6.95466 7.13904 7.15401L6.21522 8.11782L5.85436 7.7553C5.65954 7.55959 5.34296 7.55887 5.14726 7.75369C4.95155 7.9485 4.95082 8.26508 5.14564 8.46079L5.86762 9.18608C5.96261 9.2815 6.09207 9.33458 6.22671 9.33331C6.36134 9.33204 6.48977 9.27652 6.58294 9.17932L7.86096 7.84599Z" fill="#353566"/>
<path d="M7.84599 10.9691C8.04534 11.1602 8.05204 11.4767 7.86096 11.6761L6.58294 13.0094C6.48977 13.1066 6.36134 13.1621 6.22671 13.1634C6.09207 13.1647 5.96261 13.1116 5.86762 13.0162L5.14564 12.2909C4.95082 12.0952 4.95155 11.7786 5.14726 11.5838C5.34296 11.3889 5.65954 11.3897 5.85436 11.5854L6.21522 11.9479L7.13904 10.9841C7.33012 10.7847 7.64663 10.778 7.84599 10.9691Z" fill="#353566"/>
<path d="M7.86096 15.5059C8.05204 15.3065 8.04534 14.99 7.84599 14.799C7.64663 14.6079 7.33012 14.6146 7.13904 14.8139L6.21522 15.7777L5.85436 15.4152C5.65954 15.2195 5.34296 15.2188 5.14726 15.4136C4.95155 15.6084 4.95082 15.925 5.14564 16.1207L5.86762 16.846C5.96261 16.9414 6.09207 16.9945 6.22671 16.9932C6.36134 16.992 6.48977 16.9364 6.58294 16.8392L7.86096 15.5059Z" fill="#353566"/>
<path fill-rule="evenodd" clip-rule="evenodd" d="M19 14C17.8954 14 17 14.8954 17 16C17 17.1046 17.8954 18 19 18C20.1046 18 21 17.1046 21 16C21 14.8954 20.1046 14 19 14ZM18 16C18 15.4477 18.4477 15 19 15C19.5523 15 20 15.4477 20 16C20 16.5523 19.5523 17 19 17C18.4477 17 18 16.5523 18 16Z" fill="#353566"/>
<path fill-rule="evenodd" clip-rule="evenodd" d="M14.5 16.002C14.5 13.517 16.5144 11.5 19.0001 11.5C21.4854 11.5 23.5 13.5147 23.5 16C23.5 18.7667 21.3 20.9 19.3 22.4C19.1222 22.5333 18.8778 22.5333 18.7 22.4C16.7001 20.9001 14.5 18.7667 14.5 16.002ZM19.0001 12.5C17.0674 12.5 15.5 14.0687 15.5 16.002C15.5 18.1211 17.1234 19.9113 19 21.3709C20.8765 19.9113 22.5 18.121 22.5 16C22.5 14.067 20.9331 12.5 19.0001 12.5Z" fill="#353566"/>
</svg>
