<svg width="24" height="24" viewBox="0 0 24 24" fill="none" xmlns="http://www.w3.org/2000/svg">
<path d="M6.57755 1.5H12.4224C13.3835 1.5 14.1355 1.49999 14.7395 1.54935C15.3541 1.59956 15.8594 1.70334 16.316 1.93597C17.0686 2.31947 17.6805 2.93139 18.064 3.68404C18.2967 4.14062 18.4004 4.64594 18.4507 5.26049C18.5 5.86451 18.5 6.61646 18.5 7.57754V11.0652C18.5 11.3413 18.2761 11.5652 18 11.5652C17.7239 11.5652 17.5 11.3413 17.5 11.0652V7.6C17.5 6.61166 17.4996 5.90047 17.454 5.34192C17.4088 4.78921 17.3219 4.43014 17.173 4.13803C16.8854 3.57354 16.4265 3.1146 15.862 2.82698C15.5699 2.67814 15.2108 2.59118 14.6581 2.54602C14.0995 2.50039 13.3883 2.5 12.4 2.5H6.6C5.61166 2.5 4.90047 2.50039 4.34192 2.54602C3.78921 2.59118 3.43014 2.67814 3.13803 2.82698C2.57354 3.1146 2.1146 3.57354 1.82698 4.13803C1.67814 4.43014 1.59118 4.78921 1.54602 5.34192C1.50039 5.90047 1.5 6.61166 1.5 7.6V16.4C1.5 17.3883 1.50039 18.0995 1.54602 18.6581C1.59118 19.2108 1.67814 19.5699 1.82698 19.862C2.1146 20.4265 2.57354 20.8854 3.13803 21.173C3.43014 21.3219 3.78921 21.4088 4.34192 21.454C4.90047 21.4996 5.61166 21.5 6.6 21.5H12.4C12.6978 21.5 12.9713 21.5 13.2247 21.4987C13.5009 21.4972 13.7259 21.7199 13.7273 21.9961C13.7288 22.2722 13.5061 22.4972 13.23 22.4987C12.9738 22.5 12.6979 22.5 12.4013 22.5H6.57754C5.61646 22.5 4.86451 22.5 4.26049 22.4507C3.64594 22.4004 3.14062 22.2967 2.68404 22.064C1.93139 21.6805 1.31947 21.0686 0.935974 20.316C0.703335 19.8594 0.599556 19.3541 0.549345 18.7395C0.499995 18.1355 0.499997 17.3835 0.5 16.4225V7.57756C0.499997 6.61647 0.499995 5.86451 0.549345 5.26049C0.599556 4.64594 0.703335 4.14062 0.935974 3.68404C1.31947 2.93139 1.93139 2.31947 2.68404 1.93597C3.14062 1.70334 3.64594 1.59956 4.26049 1.54935C4.86451 1.49999 5.61647 1.5 6.57755 1.5Z" fill="#353566"/>
<path d="M9.5 8.1001C9.5 7.82396 9.72386 7.6001 10 7.6001H13.5C13.7761 7.6001 14 7.82396 14 8.1001C14 8.37624 13.7761 8.6001 13.5 8.6001H10C9.72386 8.6001 9.5 8.37624 9.5 8.1001Z" fill="#353566"/>
<path d="M9.5 11.9302C9.5 11.654 9.72386 11.4302 10 11.4302H13.5C13.7761 11.4302 14 11.654 14 11.9302C14 12.2063 13.7761 12.4302 13.5 12.4302H10C9.72386 12.4302 9.5 12.2063 9.5 11.9302Z" fill="#353566"/>
<path d="M9.5 15.7601C9.5 15.484 9.72386 15.2601 10 15.2601H11.1474C11.4236 15.2601 11.6474 15.484 11.6474 15.7601C11.6474 16.0363 11.4236 16.2601 11.1474 16.2601H10C9.72386 16.2601 9.5 16.0363 9.5 15.7601Z" fill="#353566"/>
<path d="M7.86096 7.84599C8.05204 7.64663 8.04534 7.33012 7.84599 7.13904C7.64663 6.94796 7.33012 6.95466 7.13904 7.15401L6.21522 8.11782L5.85436 7.7553C5.65954 7.55959 5.34296 7.55887 5.14726 7.75369C4.95155 7.9485 4.95082 8.26508 5.14564 8.46079L5.86762 9.18608C5.96261 9.2815 6.09207 9.33458 6.22671 9.33331C6.36134 9.33204 6.48977 9.27652 6.58294 9.17932L7.86096 7.84599Z" fill="#353566"/>
<path d="M7.84599 10.9691C8.04534 11.1602 8.05204 11.4767 7.86096 11.6761L6.58294 13.0094C6.48977 13.1066 6.36134 13.1621 6.22671 13.1634C6.09207 13.1647 5.96261 13.1116 5.86762 13.0162L5.14564 12.2909C4.95082 12.0952 4.95155 11.7786 5.14726 11.5838C5.34296 11.3889 5.65954 11.3897 5.85436 11.5854L6.21522 11.9479L7.13904 10.9841C7.33012 10.7847 7.64663 10.778 7.84599 10.9691Z" fill="#353566"/>
<path d="M7.86096 15.5059C8.05204 15.3065 8.04534 14.99 7.84599 14.799C7.64663 14.6079 7.33012 14.6146 7.13904 14.8139L6.21522 15.7777L5.85436 15.4152C5.65954 15.2195 5.34296 15.2188 5.14726 15.4136C4.95155 15.6084 4.95082 15.925 5.14564 16.1207L5.86762 16.846C5.96261 16.9414 6.09207 16.9945 6.22671 16.9932C6.36134 16.992 6.48977 16.9364 6.58294 16.8392L7.86096 15.5059Z" fill="#353566"/>
<path fill-rule="evenodd" clip-rule="evenodd" d="M15.8479 14.6281C16.1578 13.7906 17.3422 13.7906 17.6521 14.6281L17.9505 15.4345C18.2274 16.1827 18.8173 16.7726 19.5655 17.0495L20.3719 17.3479C21.2094 17.6578 21.2094 18.8422 20.3719 19.1521L19.5655 19.4505C18.8173 19.7274 18.2274 20.3173 17.9505 21.0655L17.6521 21.8719C17.3422 22.7094 16.1578 22.7094 15.8479 21.8719L15.5495 21.0655C15.2726 20.3173 14.6827 19.7274 13.9345 19.4505L13.1281 19.1521C12.2906 18.8422 12.2906 17.6578 13.1281 17.3479L13.9345 17.0495C14.6827 16.7726 15.2726 16.1827 15.5495 15.4345L15.8479 14.6281ZM16.75 15.0717L16.4873 15.7816C16.1092 16.8035 15.3035 17.6092 14.2816 17.9873L13.5717 18.25L14.2816 18.5127C15.3035 18.8908 16.1092 19.6965 16.4873 20.7184L16.75 21.4283L17.0127 20.7184C17.3908 19.6965 18.1965 18.8908 19.2184 18.5127L19.9283 18.25L19.2184 17.9873C18.1965 17.6092 17.3908 16.8035 17.0127 15.7816L16.75 15.0717Z" fill="#353566"/>
<path d="M21.1269 12.0883C21.0833 11.9706 20.9167 11.9706 20.8731 12.0883L20.6789 12.6133C20.4962 13.107 20.107 13.4962 19.6133 13.6789L19.0883 13.8731C18.9706 13.9167 18.9706 14.0833 19.0883 14.1269L19.6133 14.3211C20.107 14.5038 20.4962 14.893 20.6789 15.3867L20.8731 15.9117C20.9167 16.0294 21.0833 16.0294 21.1269 15.9117L21.3211 15.3867C21.5038 14.893 21.893 14.5038 22.3867 14.3211L22.9117 14.1269C23.0294 14.0833 23.0294 13.9167 22.9117 13.8731L22.3867 13.6789C21.893 13.4962 21.5038 13.107 21.3211 12.6133L21.1269 12.0883Z" fill="#353566"/>
</svg>
