<svg width="24" height="24" viewBox="0 0 24 24" fill="none" xmlns="http://www.w3.org/2000/svg">
<path d="M6.57755 1.5H12.4224C13.3835 1.5 14.1355 1.49999 14.7395 1.54935C15.3541 1.59956 15.8594 1.70334 16.316 1.93597C17.0686 2.31947 17.6805 2.93139 18.064 3.68404C18.2967 4.14062 18.4004 4.64594 18.4507 5.26049C18.5 5.86451 18.5 6.61646 18.5 7.57754V10.0475C18.5 10.3237 18.2761 10.5475 18 10.5475C17.7239 10.5475 17.5 10.3237 17.5 10.0475V7.6C17.5 6.61166 17.4996 5.90047 17.454 5.34192C17.4088 4.78921 17.3219 4.43014 17.173 4.13803C16.8854 3.57354 16.4265 3.1146 15.862 2.82698C15.5699 2.67814 15.2108 2.59118 14.6581 2.54602C14.0995 2.50039 13.3883 2.5 12.4 2.5H6.6C5.61166 2.5 4.90047 2.50039 4.34192 2.54602C3.78921 2.59118 3.43014 2.67814 3.13803 2.82698C2.57354 3.1146 2.1146 3.57354 1.82698 4.13803C1.67814 4.43014 1.59118 4.78921 1.54602 5.34192C1.50039 5.90047 1.5 6.61166 1.5 7.6V16.4C1.5 17.3883 1.50039 18.0995 1.54602 18.6581C1.59118 19.2108 1.67814 19.5699 1.82698 19.862C2.1146 20.4265 2.57354 20.8854 3.13803 21.173C3.43014 21.3219 3.78921 21.4088 4.34192 21.454C4.90047 21.4996 5.61166 21.5 6.6 21.5H12.4C12.869 21.5 13.2773 21.5 13.6395 21.4949C13.9156 21.4909 14.1426 21.7116 14.1465 21.9877C14.1504 22.2638 13.9298 22.4908 13.6537 22.4948C13.2836 22.5 12.8685 22.5 12.4025 22.5H6.57754C5.61646 22.5 4.86451 22.5 4.26049 22.4507C3.64594 22.4004 3.14062 22.2967 2.68404 22.064C1.93139 21.6805 1.31947 21.0686 0.935974 20.316C0.703335 19.8594 0.599556 19.3541 0.549345 18.7395C0.499995 18.1355 0.499997 17.3835 0.5 16.4225V7.57756C0.499997 6.61647 0.499995 5.86451 0.549345 5.26049C0.599556 4.64594 0.703335 4.14062 0.935974 3.68404C1.31947 2.93139 1.93139 2.31947 2.68404 1.93597C3.14062 1.70334 3.64594 1.59956 4.26049 1.54935C4.86451 1.49999 5.61647 1.5 6.57755 1.5Z" fill="#353566"/>
<path d="M9.5 8.33984C9.5 8.0637 9.72386 7.83984 10 7.83984H13.5C13.7761 7.83984 14 8.0637 14 8.33984C14 8.61599 13.7761 8.83984 13.5 8.83984H10C9.72386 8.83984 9.5 8.61599 9.5 8.33984Z" fill="#353566"/>
<path d="M9.5 12.1699C9.5 11.8938 9.72386 11.6699 10 11.6699H13.5C13.7761 11.6699 14 11.8938 14 12.1699C14 12.4461 13.7761 12.6699 13.5 12.6699H10C9.72386 12.6699 9.5 12.4461 9.5 12.1699Z" fill="#353566"/>
<path d="M8.75 15.9999C8.75 15.7237 8.97386 15.4999 9.25 15.4999H12.3985C12.6746 15.4999 12.8985 15.7237 12.8985 15.9999C12.8985 16.276 12.6746 16.4999 12.3985 16.4999H9.25C8.97386 16.4999 8.75 16.276 8.75 15.9999Z" fill="#353566"/>
<path d="M7.86096 8.08598C8.05204 7.88662 8.04534 7.57011 7.84599 7.37903C7.64663 7.18795 7.33012 7.19465 7.13904 7.394L6.21522 8.35781L5.85436 7.99529C5.65954 7.79958 5.34296 7.79886 5.14726 7.99368C4.95155 8.18849 4.95082 8.50507 5.14564 8.70078L5.86762 9.42607C5.96261 9.52149 6.09207 9.57457 6.22671 9.5733C6.36134 9.57203 6.48977 9.51651 6.58294 9.41931L7.86096 8.08598Z" fill="#353566"/>
<path d="M7.84599 11.2091C8.04534 11.4002 8.05204 11.7167 7.86096 11.9161L6.58294 13.2494C6.48977 13.3466 6.36134 13.4021 6.22671 13.4034C6.09207 13.4047 5.96261 13.3516 5.86762 13.2561L5.14564 12.5309C4.95082 12.3352 4.95155 12.0186 5.14726 11.8238C5.34296 11.6289 5.65954 11.6297 5.85436 11.8254L6.21522 12.1879L7.13904 11.2241C7.33012 11.0247 7.64663 11.018 7.84599 11.2091Z" fill="#353566"/>
<path d="M6.5 15.25C6.08579 15.25 5.75 15.5858 5.75 16C5.75 16.4142 6.08579 16.75 6.5 16.75C6.91421 16.75 7.2501 16.4142 7.2501 16C7.2501 15.5858 6.91421 15.25 6.5 15.25Z" fill="#353566"/>
<path d="M23 18C23.2761 18 23.5 17.7761 23.5 17.5V16.5C23.5 15.3954 22.6046 14.5 21.5 14.5H16.707L17.8535 13.3536C18.0488 13.1583 18.0488 12.8417 17.8535 12.6464C17.6582 12.4512 17.3416 12.4512 17.1464 12.6464L15.1464 14.6464C15.0034 14.7894 14.9606 15.0045 15.038 15.1913C15.1154 15.3782 15.2977 15.5 15.4999 15.5H21.5C22.0523 15.5 22.5 15.9477 22.5 16.5V17.5C22.5 17.7761 22.7239 18 23 18Z" fill="#353566"/>
<path d="M14.5 18.5V17.5C14.5 17.2239 14.7239 17 15 17C15.2761 17 15.5 17.2239 15.5 17.5V18.5C15.5 19.0523 15.9477 19.5 16.5 19.5H22.5C22.7022 19.5 22.8846 19.6218 22.9619 19.8087C23.0393 19.9955 22.9965 20.2106 22.8535 20.3536L20.8535 22.3536C20.6582 22.5488 20.3416 22.5488 20.1464 22.3535C19.9511 22.1583 19.9511 21.8417 20.1464 21.6464L21.2929 20.5H16.5C15.3954 20.5 14.5 19.6046 14.5 18.5Z" fill="#353566"/>
</svg>
