<svg width="24" height="24" viewBox="0 0 24 24" fill="none" xmlns="http://www.w3.org/2000/svg">
<path fill-rule="evenodd" clip-rule="evenodd" d="M20 1.5C18.6193 1.5 17.5 2.61929 17.5 4C17.5 5.38071 18.6193 6.5 20 6.5C21.3807 6.5 22.5 5.38071 22.5 4C22.5 2.61929 21.3807 1.5 20 1.5ZM18.5 4C18.5 3.17157 19.1716 2.5 20 2.5C20.8284 2.5 21.5 3.17157 21.5 4C21.5 4.82843 20.8284 5.5 20 5.5C19.1716 5.5 18.5 4.82843 18.5 4Z" fill="#353566"/>
<path d="M15.1 2.5H8.37737C7.27642 2.5 6.41948 2.5 5.73209 2.55616C5.03416 2.61318 4.4671 2.73058 3.95704 2.99047C3.11031 3.4219 2.4219 4.11031 1.99047 4.95704C1.73058 5.4671 1.61318 6.03416 1.55616 6.73209C1.5 7.41948 1.5 8.27641 1.5 9.37737V15.6226C1.5 16.7236 1.5 17.5805 1.55616 18.2679C1.61318 18.9658 1.73058 19.5329 1.99047 20.043C2.4219 20.8897 3.11031 21.5781 3.95704 22.0095C4.4671 22.2694 5.03416 22.3868 5.73209 22.4438C6.41946 22.5 7.27637 22.5 8.37729 22.5H14.6226C15.7236 22.5 16.5805 22.5 17.2679 22.4438C17.9658 22.3868 18.5329 22.2694 19.043 22.0095C19.8897 21.5781 20.5781 20.8897 21.0095 20.043C21.2694 19.5329 21.3868 18.9658 21.4438 18.2679C21.5 17.5805 21.5 16.7236 21.5 15.6227V8.89998C21.5 8.62384 21.2761 8.39998 21 8.39998C20.7239 8.39998 20.5 8.62384 20.5 8.89998V15.6C20.5 16.7284 20.4996 17.5446 20.4472 18.1865C20.3952 18.8226 20.2946 19.2434 20.1185 19.589C19.783 20.2475 19.2475 20.783 18.589 21.1185C18.2434 21.2946 17.8226 21.3952 17.1865 21.4472C16.5446 21.4996 15.7284 21.5 14.6 21.5H8.4C7.27164 21.5 6.45545 21.4996 5.81352 21.4472C5.17744 21.3952 4.75662 21.2946 4.41103 21.1185C3.75247 20.783 3.21703 20.2475 2.88148 19.589C2.70539 19.2434 2.60481 18.8226 2.55284 18.1865C2.50039 17.5446 2.5 16.7284 2.5 15.6V9.4C2.5 8.27164 2.50039 7.45545 2.55284 6.81352C2.60481 6.17744 2.70539 5.75662 2.88148 5.41103C3.21703 4.75247 3.75247 4.21703 4.41103 3.88148C4.75662 3.70539 5.17744 3.60481 5.81352 3.55284C6.45545 3.50039 7.27164 3.5 8.4 3.5H15.1C15.3762 3.5 15.6 3.27614 15.6 3C15.6 2.72386 15.3762 2.5 15.1 2.5Z" fill="#353566"/>
<path d="M7 15.5C6.72386 15.5 6.5 15.7239 6.5 16C6.5 16.2761 6.72386 16.5 7 16.5H16C16.2761 16.5 16.5 16.2761 16.5 16C16.5 15.7239 16.2761 15.5 16 15.5H7Z" fill="#353566"/>
<path d="M6.5 12C6.5 11.7239 6.72386 11.5 7 11.5H12C12.2761 11.5 12.5 11.7239 12.5 12C12.5 12.2761 12.2761 12.5 12 12.5H7C6.72386 12.5 6.5 12.2761 6.5 12Z" fill="#353566"/>
</svg>
