<svg width="24" height="24" viewBox="0 0 24 24" fill="none" xmlns="http://www.w3.org/2000/svg">
<g opacity="0.4">
<path d="M1.5 3C1.5 2.72386 1.72386 2.5 2 2.5H7C7.27614 2.5 7.5 2.72386 7.5 3V19C7.5 19.2761 7.27614 19.5 7 19.5H2C1.72386 19.5 1.5 19.2761 1.5 19V3Z" fill="#353566"/>
<path d="M11.5 3C11.5 2.72386 11.7239 2.5 12 2.5H17C17.2761 2.5 17.5 2.72386 17.5 3V8.13256C17.0551 8.04558 16.5954 8 16.125 8C14.3599 8 12.7446 8.64188 11.5 9.70495V3Z" fill="#353566"/>
</g>
<path d="M22 2.5C21.7239 2.5 21.5 2.72386 21.5 3V10.4478C21.8927 10.8987 22.2297 11.3996 22.5 11.9395V3C22.5 2.72386 22.2761 2.5 22 2.5Z" fill="#353566"/>
<path d="M11.5 9.70495V3C11.5 2.72386 11.7239 2.5 12 2.5C12.2761 2.5 12.5 2.72386 12.5 3V8.98978C12.1458 9.19952 11.8113 9.43906 11.5 9.70495Z" fill="#353566"/>
<path d="M16.5 8.0097V3C16.5 2.72386 16.7239 2.5 17 2.5C17.2761 2.5 17.5 2.72386 17.5 3V8.13256C17.1741 8.06884 16.8402 8.02734 16.5 8.0097Z" fill="#353566"/>
<path d="M6.5 19C6.5 19.2761 6.72386 19.5 7 19.5C7.27614 19.5 7.5 19.2761 7.5 19V18C7.5 17.7239 7.27614 17.5 7 17.5C6.72386 17.5 6.5 17.7239 6.5 18V19Z" fill="#353566"/>
<path d="M7 2.5C7.27614 2.5 7.5 2.72386 7.5 3L7.5 15C7.5 15.2761 7.27614 15.5 7 15.5C6.72386 15.5 6.5 15.2761 6.5 15L6.5 3C6.5 2.72386 6.72386 2.5 7 2.5Z" fill="#353566"/>
<path d="M1.5 3C1.5 2.72386 1.72386 2.5 2 2.5C2.27614 2.5 2.5 2.72386 2.5 3V19C2.5 19.2761 2.27614 19.5 2 19.5C1.72386 19.5 1.5 19.2761 1.5 19V3Z" fill="#353566"/>
<path fill-rule="evenodd" clip-rule="evenodd" d="M11.5 15.125C11.5 12.5707 13.5707 10.5 16.125 10.5C18.6793 10.5 20.75 12.5707 20.75 15.125C20.75 16.222 20.368 17.2299 19.7299 18.0228L22.3535 20.6465C22.5488 20.8417 22.5488 21.1583 22.3535 21.3536C22.1582 21.5488 21.8416 21.5488 21.6464 21.3535L19.0228 18.7299C18.2299 19.368 17.222 19.75 16.125 19.75C13.5707 19.75 11.5 17.6793 11.5 15.125ZM16.125 11.5C14.123 11.5 12.5 13.123 12.5 15.125C12.5 17.127 14.123 18.75 16.125 18.75C18.127 18.75 19.75 17.127 19.75 15.125C19.75 13.123 18.127 11.5 16.125 11.5Z" fill="#353566"/>
</svg>
