<svg width="24" height="24" viewBox="0 0 24 24" fill="none" xmlns="http://www.w3.org/2000/svg">
<path opacity="0.4" d="M15.5171 21C15.459 20.6143 15.5504 20.2065 15.8045 19.8709C16.0821 19.5043 16.7001 19 17.0001 19C16.2012 18.1814 15.5003 17.2805 15.5003 16.0817C15.5003 15.0179 15.9963 14.1157 16.808 13.5278C17.168 13.2671 17.5775 13.0779 18.0001 12.9435C18.0041 12.1551 18.7205 11.5001 19.5003 11.5001C19.9861 11.5001 20.4333 11.7474 20.7108 12.1212L21 10H3L4.08721 17.9729C4.32369 19.7071 5.80487 21 7.55512 21H15.5171Z" fill="#353566"/>
<path fill-rule="evenodd" clip-rule="evenodd" d="M9.78678 0.590427C10.013 0.748784 10.068 1.06055 9.90966 1.28677L6.96038 5.50004H17.0397L14.0904 1.28677C13.9321 1.06055 13.9871 0.748784 14.2133 0.590427C14.4395 0.43207 14.7513 0.487087 14.9097 0.713312L18.2604 5.50004L20.0688 5.50002C20.4665 5.4998 20.7619 5.49964 21.0177 5.56819C21.7079 5.75313 22.247 6.29222 22.4319 6.98241C22.5004 7.23823 22.5003 7.53356 22.5001 7.93124V8.06884C22.5003 8.46653 22.5004 8.76186 22.4319 9.01768C22.2898 9.54787 21.9388 9.9889 21.4708 10.2487L21.0985 12.9786C21.0659 12.9677 21.0331 12.9573 21.0001 12.9474C20.9877 12.4304 20.6886 11.9706 20.2617 11.7143L20.4275 10.4979C20.3174 10.5002 20.1986 10.5001 20.0688 10.5001H3.93126C3.80153 10.5001 3.6827 10.5002 3.57257 10.4979L4.58269 17.9054C4.78539 19.3919 6.05497 20.5001 7.55518 20.5001H15.5257C15.4621 20.8407 15.5185 21.1954 15.6859 21.5001H7.55518C5.5549 21.5001 3.86212 20.0225 3.59186 18.0405L2.52934 10.2487C2.06133 9.98892 1.71026 9.54788 1.5682 9.01768C1.49965 8.76186 1.49981 8.46653 1.50002 8.06883V7.93125C1.49981 7.53356 1.49965 7.23823 1.5682 6.98241C1.75313 6.29222 2.29223 5.75313 2.98241 5.56819C3.23823 5.49964 3.53356 5.4998 3.93125 5.50002L5.73972 5.50004L9.09043 0.713312C9.24879 0.487087 9.56055 0.43207 9.78678 0.590427ZM4.00005 6.50004C3.50287 6.50004 3.35237 6.50434 3.24123 6.53412C2.89614 6.62658 2.62659 6.89613 2.53412 7.24122C2.50434 7.35236 2.50005 7.50287 2.50005 8.00004C2.50005 8.49722 2.50434 8.64772 2.53412 8.75886C2.62659 9.10395 2.89614 9.3735 3.24123 9.46597C3.35237 9.49575 3.50287 9.50004 4.00005 9.50004H20C20.4972 9.50004 20.6477 9.49575 20.7589 9.46597C21.104 9.3735 21.3735 9.10395 21.466 8.75886C21.4958 8.64772 21.5 8.49722 21.5 8.00004C21.5 7.50287 21.4958 7.35236 21.466 7.24122C21.3735 6.89613 21.104 6.62658 20.7589 6.53412C20.6477 6.50434 20.4972 6.50004 20 6.50004H4.00005Z" fill="#353566"/>
<path d="M16.5004 13.7795C15.879 14.3536 15.5078 15.144 15.5004 16.0543L15.5004 13.5011C15.5004 13.2249 15.7243 13.0011 16.0004 13.0011C16.2766 13.0011 16.5004 13.2249 16.5004 13.5011L16.5004 13.7795Z" fill="#353566"/>
<path d="M15.5004 16.1078C15.5047 16.6104 15.6323 17.0606 15.8383 17.4743C15.6417 17.407 15.5004 17.2206 15.5004 17.0012L15.5004 16.1078Z" fill="#353566"/>
<path d="M8.50019 13.5011C8.50019 13.2249 8.27634 13.0011 8.00019 13.0011C7.72405 13.0011 7.50019 13.2249 7.50019 13.5011L7.50018 17.0012C7.50018 17.2773 7.72404 17.5012 8.00018 17.5012C8.27632 17.5012 8.50018 17.2773 8.50018 17.0012L8.50019 13.5011Z" fill="#353566"/>
<path d="M12.5003 13.5011C12.5003 13.2249 12.2764 13.0011 12.0003 13.0011C11.7242 13.0011 11.5003 13.2249 11.5003 13.5011L11.5003 17.0012C11.5003 17.2773 11.7241 17.5012 12.0003 17.5012C12.2764 17.5012 12.5003 17.2773 12.5003 17.0012L12.5003 13.5011Z" fill="#353566"/>
<path d="M19 13.7749V13C19 12.7239 19.2239 12.5 19.5 12.5C19.7761 12.5 20 12.7239 20 13V13.7708C20.3289 13.801 20.6294 13.8671 20.9344 13.988C21.3749 14.1627 21.794 14.4404 22.3019 14.8249C22.522 14.9916 22.5653 15.3052 22.3987 15.5254C22.232 15.7455 21.9183 15.7889 21.6982 15.6222C21.206 15.2495 20.8752 15.0404 20.5657 14.9176C20.2679 14.7995 19.9604 14.75 19.5 14.75C18.821 14.75 18.3089 14.91 17.9808 15.1476C17.6677 15.3743 17.5 15.6843 17.5 16.0817C17.5 16.573 17.7356 16.8639 18.1193 17.0786C18.5345 17.311 19.0791 17.4229 19.5822 17.5068C20.0791 17.5896 20.7845 17.7214 21.3693 18.0488C21.9856 18.3938 22.5 18.9788 22.5 19.9183C22.5 20.6495 22.1677 21.2554 21.6058 21.6623C21.1725 21.9761 20.6194 22.1616 20 22.2251V23C20 23.2761 19.7761 23.5 19.5 23.5C19.2239 23.5 19 23.2761 19 23V22.2292C18.6711 22.199 18.3706 22.1329 18.0657 22.0119C17.6252 21.8372 17.206 21.5596 16.6982 21.175C16.478 21.0083 16.4347 20.6947 16.6014 20.4746C16.7681 20.2544 17.0817 20.2111 17.3019 20.3778C17.7941 20.7505 18.1249 20.9596 18.4344 21.0824C18.7322 21.2005 19.0396 21.25 19.5 21.25C20.179 21.25 20.6912 21.09 21.0193 20.8524C21.3323 20.6257 21.5 20.3157 21.5 19.9183C21.5 19.427 21.2644 19.1361 20.8808 18.9214C20.4656 18.689 19.921 18.5771 19.4178 18.4932C18.921 18.4104 18.2156 18.2786 17.6308 17.9512C17.0144 17.6062 16.5 17.0212 16.5 16.0817C16.5 15.3505 16.8323 14.7446 17.3942 14.3377C17.8275 14.0239 18.3806 13.8384 19 13.7749Z" fill="#353566"/>
</svg>
