<svg width="24" height="24" viewBox="0 0 24 24" fill="none" xmlns="http://www.w3.org/2000/svg">
<path opacity="0.4" d="M19 13.5561V7.6C19 5.63982 19 4.65972 18.6185 3.91103C18.283 3.25247 17.7475 2.71703 17.089 2.38148C16.3403 2 15.3602 2 13.4 2L13.4 9.39201C13.4 9.82257 12.892 10.0518 12.5692 9.76693L10.3308 7.79189C10.1418 7.62512 9.85818 7.62512 9.66916 7.79189L7.43081 9.76693C7.10796 10.0518 6.6 9.82257 6.6 9.39201L6.59998 2C4.63981 2 3.65972 2 2.91103 2.38148C2.25247 2.71703 1.71703 3.25247 1.38148 3.91103C1 4.65972 1 5.63982 1 7.6V14.4C1 16.3602 1 17.3403 1.38148 18.089C1.71703 18.7475 2.25247 19.283 2.91103 19.6185C3.65972 20 4.63982 20 6.6 20H13.4C13.6117 20 13.812 20 14.0018 19.9995C13.8263 19.6337 13.7816 19.2036 13.7816 18.628C13.6662 18.6073 13.5471 18.5897 13.4267 18.572C12.8735 18.4904 12.2918 18.4047 11.9011 17.9842C11.3372 17.3772 11.3721 16.4281 11.9791 15.8643C13.557 14.3983 15.6751 13.5 17.9993 13.5C18.3376 13.5 18.6715 13.519 19 13.5561Z" fill="#353566"/>
<path fill-rule="evenodd" clip-rule="evenodd" d="M6.09998 1.5C5.36222 1.50121 4.76064 1.50848 4.26049 1.54935C3.64594 1.59956 3.14062 1.70334 2.68404 1.93597C1.93139 2.31947 1.31947 2.93139 0.935974 3.68404C0.703335 4.14062 0.599556 4.64594 0.549345 5.26049C0.499995 5.86451 0.499997 6.61646 0.5 7.57755V14.4224C0.499997 15.3835 0.499995 16.1355 0.549345 16.7395C0.599556 17.3541 0.703335 17.8594 0.935974 18.316C1.31947 19.0686 1.93139 19.6805 2.68404 20.064C3.14062 20.2967 3.64594 20.4004 4.26049 20.4507C4.86451 20.5 5.61646 20.5 6.57754 20.5H13.4225C13.7601 20.5 14.0729 20.5 14.3616 20.4979C14.0684 20.2057 13.9172 19.8931 13.8438 19.4998C13.7023 19.5 13.5545 19.5 13.4 19.5H6.6C5.61166 19.5 4.90047 19.4996 4.34192 19.454C3.78921 19.4088 3.43014 19.3219 3.13803 19.173C2.57354 18.8854 2.1146 18.4265 1.82698 17.862C1.67814 17.5699 1.59118 17.2108 1.54602 16.6581C1.50039 16.0995 1.5 15.3883 1.5 14.4V7.6C1.5 6.61166 1.50039 5.90047 1.54602 5.34192C1.59118 4.78921 1.67814 4.43014 1.82698 4.13803C2.1146 3.57354 2.57354 3.1146 3.13803 2.82698C3.43014 2.67814 3.78921 2.59118 4.34192 2.54602C4.80149 2.50848 5.36439 2.50156 6.09998 2.50029L6.1 9.39201C6.1 10.2531 7.11592 10.7116 7.76162 10.1418L9.99998 8.16681L12.2384 10.1418C12.8841 10.7116 13.9 10.2531 13.9 9.39201V2.50029C14.6356 2.50156 15.1985 2.50848 15.6581 2.54602C16.2108 2.59118 16.5699 2.67814 16.862 2.82698C17.4265 3.1146 17.8854 3.57354 18.173 4.13803C18.3219 4.43014 18.4088 4.78921 18.454 5.34192C18.4996 5.90047 18.5 6.61166 18.5 7.6V13.514C18.8387 13.5329 19.1724 13.5709 19.5 13.6269V7.57754C19.5 6.61646 19.5 5.86451 19.4507 5.26049C19.4004 4.64594 19.2967 4.14062 19.064 3.68404C18.6805 2.93139 18.0686 2.31947 17.316 1.93597C16.8594 1.70334 16.3541 1.59956 15.7395 1.54935C15.2393 1.50848 14.6378 1.50146 13.9 1.50025L6.09998 1.5ZM7.09998 2.5L7.1 9.39201L9.33835 7.41698C9.71638 7.08342 10.2836 7.08342 10.6616 7.41697L12.9 9.39201V2.5H7.09998Z" fill="#353566"/>
<path d="M8 16C8.27614 16 8.5 15.7761 8.5 15.5C8.5 15.2239 8.27614 15 8 15H5.50003C5.22389 15 5.00003 15.2239 5.00003 15.5C5.00003 15.7761 5.22389 16 5.50003 16H8Z" fill="#353566"/>
<path d="M13.3403 17.3295C14.5628 16.1938 16.1995 15.5 17.9993 15.5C19.7998 15.5 21.437 16.1943 22.6596 17.3307C22.8619 17.5187 23.1782 17.5071 23.3662 17.3049C23.5542 17.1026 23.5427 16.7862 23.3404 16.5982C21.9401 15.2967 20.0622 14.5 17.9993 14.5C15.9372 14.5 14.0598 15.2961 12.6597 16.5969C12.4574 16.7849 12.4457 17.1012 12.6337 17.3035C12.8216 17.5058 13.138 17.5175 13.3403 17.3295Z" fill="#353566"/>
<path d="M18.0032 18.8335C17.1459 18.8335 16.3645 19.1952 15.7897 19.7916C15.5981 19.9904 15.2815 19.9962 15.0827 19.8046C14.8839 19.613 14.878 19.2965 15.0697 19.0976C15.8194 18.3197 16.8553 17.8335 18.0032 17.8335C19.1511 17.8335 20.187 18.3197 20.9368 19.0976C21.1284 19.2965 21.1225 19.613 20.9237 19.8046C20.7249 19.9962 20.4084 19.9904 20.2167 19.7916C19.6419 19.1952 18.8605 18.8335 18.0032 18.8335Z" fill="#353566"/>
<path d="M18 20.625C17.5168 20.625 17.125 21.0168 17.125 21.5C17.125 21.9832 17.5168 22.375 18 22.375C18.4832 22.375 18.8751 21.9832 18.8751 21.5C18.8751 21.0168 18.4832 20.625 18 20.625Z" fill="#353566"/>
</svg>
