<svg width="24" height="24" viewBox="0 0 24 24" fill="none" xmlns="http://www.w3.org/2000/svg">
<path opacity="0.4" d="M19 10.8201V7.6C19 5.63982 19 4.65972 18.6185 3.91103C18.283 3.25247 17.7475 2.71703 17.089 2.38148C16.3403 2 15.3602 2 13.4 2L13.4 9.39201C13.4 9.82257 12.892 10.0518 12.5692 9.76693L10.3308 7.79189C10.1418 7.62512 9.85818 7.62512 9.66916 7.79189L7.43081 9.76693C7.10796 10.0518 6.6 9.82257 6.6 9.39201L6.59998 2C4.63981 2 3.65972 2 2.91103 2.38148C2.25247 2.71703 1.71703 3.25247 1.38148 3.91103C1 4.65972 1 5.63982 1 7.6V14.4C1 16.3602 1 17.3403 1.38148 18.089C1.71703 18.7475 2.25247 19.283 2.91103 19.6185C3.65972 20 4.63982 20 6.6 20H13.0476C12.0886 18.9912 11.5 17.6268 11.5 16.125C11.5 13.0184 14.0184 10.5 17.125 10.5C17.7824 10.5 18.4135 10.6128 19 10.8201Z" fill="#353566"/>
<path fill-rule="evenodd" clip-rule="evenodd" d="M13.9 1.5C14.6378 1.50121 15.2393 1.50848 15.7395 1.54935C16.3541 1.59956 16.8594 1.70334 17.316 1.93597C18.0686 2.31947 18.6805 2.93139 19.064 3.68404C19.2967 4.14062 19.4004 4.64594 19.4507 5.26049C19.5 5.86451 19.5 6.61646 19.5 7.57754V11.0245C19.1817 10.8761 18.8473 10.7565 18.5 10.6693V7.6C18.5 6.61166 18.4996 5.90047 18.454 5.34192C18.4088 4.78921 18.3219 4.43014 18.173 4.13803C17.8854 3.57354 17.4265 3.1146 16.862 2.82698C16.5699 2.67814 16.2108 2.59118 15.6581 2.54602C15.1985 2.50848 14.6356 2.50156 13.9 2.50029V9.39201C13.9 10.2531 12.8841 10.7116 12.2384 10.1418L9.99998 8.16681L7.76162 10.1418C7.11592 10.7116 6.1 10.2531 6.1 9.39201L6.09998 2.50029C5.36439 2.50156 4.80149 2.50848 4.34192 2.54602C3.78921 2.59118 3.43014 2.67814 3.13803 2.82698C2.57354 3.1146 2.1146 3.57354 1.82698 4.13803C1.67814 4.43014 1.59118 4.78921 1.54602 5.34192C1.50039 5.90047 1.5 6.61166 1.5 7.6V14.4C1.5 15.3883 1.50039 16.0995 1.54602 16.6581C1.59118 17.2108 1.67814 17.5699 1.82698 17.862C2.1146 18.4265 2.57354 18.8854 3.13803 19.173C3.43014 19.3219 3.78921 19.4088 4.34192 19.454C4.90047 19.4996 5.61166 19.5 6.6 19.5H12.6246C12.9038 19.8717 13.228 20.2078 13.5892 20.5L6.57754 20.5C5.61646 20.5 4.86451 20.5 4.26049 20.4507C3.64594 20.4004 3.14062 20.2967 2.68404 20.064C1.93139 19.6805 1.31947 19.0686 0.935974 18.316C0.703335 17.8594 0.599556 17.3541 0.549345 16.7395C0.499995 16.1355 0.499997 15.3835 0.5 14.4225V7.57756C0.499997 6.61647 0.499995 5.86451 0.549345 5.26049C0.599556 4.64594 0.703335 4.14062 0.935974 3.68404C1.31947 2.93139 1.93139 2.31947 2.68404 1.93597C3.14062 1.70334 3.64594 1.59956 4.26049 1.54935C4.76064 1.50848 5.36222 1.50146 6.09998 1.50025L13.9 1.5ZM7.1 9.39201L7.09998 2.5H12.9V9.39201L10.6616 7.41697C10.2836 7.08342 9.71638 7.08342 9.33835 7.41698L7.1 9.39201Z" fill="#353566"/>
<path d="M8.5 15.5C8.5 15.7761 8.27614 16 8 16H5.50003C5.22389 16 5.00003 15.7761 5.00003 15.5C5.00003 15.2239 5.22389 15 5.50003 15H8C8.27614 15 8.5 15.2239 8.5 15.5Z" fill="#353566"/>
<path fill-rule="evenodd" clip-rule="evenodd" d="M12.5 16.125C12.5 13.5707 14.5707 11.5 17.125 11.5C19.6793 11.5 21.75 13.5707 21.75 16.125C21.75 17.222 21.368 18.2299 20.7299 19.0228L23.3535 21.6465C23.5488 21.8417 23.5488 22.1583 23.3535 22.3536C23.1582 22.5488 22.8416 22.5488 22.6464 22.3535L20.0228 19.7299C19.2299 20.368 18.222 20.75 17.125 20.75C14.5707 20.75 12.5 18.6793 12.5 16.125ZM17.125 12.5C15.123 12.5 13.5 14.123 13.5 16.125C13.5 18.127 15.123 19.75 17.125 19.75C19.127 19.75 20.75 18.127 20.75 16.125C20.75 14.123 19.127 12.5 17.125 12.5Z" fill="#353566"/>
</svg>
