<svg width="24" height="24" viewBox="0 0 24 24" fill="none" xmlns="http://www.w3.org/2000/svg">
<path opacity="0.4" d="M8.24361 2.27755L2.71977 4.84732C1.67082 5.3353 1 6.38724 1 7.54414V13.511C1 14.6768 1.68103 15.7351 2.74204 16.2181L8.26588 18.7327C9.04879 19.0891 9.94765 19.0891 10.7306 18.7327L13.5 17.472V17.25C13.5 16.2815 13.9573 15.4204 14.674 14.8694L15.2149 14.4536L15.2569 13.7726C15.3544 12.1933 16.5492 11.0109 17.9964 10.6304V7.54414C17.9964 6.38724 17.3256 5.3353 16.2767 4.84732L10.7528 2.27755C9.95735 1.90748 9.03908 1.90748 8.24361 2.27755Z" fill="#353566"/>
<path d="M4.73981 14.2117C4.84779 13.9576 5.14136 13.8391 5.39552 13.947L7.19552 14.7118C7.44967 14.8198 7.56817 15.1133 7.46019 15.3675C7.35221 15.6217 7.05864 15.7402 6.80448 15.6322L5.00448 14.8674C4.75033 14.7594 4.63183 14.4659 4.73981 14.2117Z" fill="#353566"/>
<path fill-rule="evenodd" clip-rule="evenodd" d="M9.99911 10.381L9.99909 18.4493C10.1781 18.4123 10.354 18.3552 10.5234 18.2781L13.5185 16.9147C13.5063 17.0248 13.5 17.1366 13.5 17.25V18.0218L10.9377 19.1883C10.0232 19.6046 8.97324 19.6046 8.05872 19.1883L2.53488 16.6736C1.29551 16.1095 0.5 14.8733 0.5 13.5115V7.54463C0.5 6.19325 1.28359 4.96448 2.50887 4.39446L8.03271 1.82469C8.9619 1.39242 10.0345 1.39242 10.9637 1.82469L16.4876 4.39446C17.7128 4.96448 18.4964 6.19325 18.4964 7.54463V10.5326C18.1512 10.5774 17.8144 10.6675 17.4964 10.7978V7.54463C17.4964 7.37418 17.4789 7.20648 17.4453 7.04363L9.99911 10.381ZM8.45452 2.73138C9.11626 2.42353 9.88017 2.42352 10.5419 2.73138L16.0658 5.30115C16.4685 5.48849 16.8042 5.77575 17.049 6.12541L14.0494 7.4698L6.23032 3.76611L8.45452 2.73138ZM12.8491 8.00776L5.05179 4.31438L2.93067 5.30115C2.52796 5.4885 2.19225 5.77576 1.94746 6.12542L9.4982 9.50962L12.8491 8.00776ZM1.55116 7.04364C1.5175 7.20649 1.5 7.37419 1.5 7.54463V13.5115C1.5 14.4813 2.06655 15.3617 2.9492 15.7635L8.47304 18.2781C8.64296 18.3555 8.81946 18.4127 8.99909 18.4496L8.99911 10.3818L1.55116 7.04364Z" fill="#353566"/>
<path fill-rule="evenodd" clip-rule="evenodd" d="M16.25 14C16.25 12.5656 17.5382 11.5 19 11.5C20.4618 11.5 21.75 12.5656 21.75 14V15.25C22.7165 15.25 23.5 16.0335 23.5 17V20.75C23.5 21.7165 22.7165 22.5 21.75 22.5H16.25C15.2835 22.5 14.5 21.7165 14.5 20.75V17C14.5 16.0335 15.2835 15.25 16.25 15.25V14ZM17.25 15.25H20.75V14C20.75 13.2253 20.0235 12.5 19 12.5C17.9765 12.5 17.25 13.2253 17.25 14V15.25ZM16.25 16.25C15.8358 16.25 15.5 16.5858 15.5 17V20.75C15.5 21.1642 15.8358 21.5 16.25 21.5H21.75C22.1642 21.5 22.5 21.1642 22.5 20.75V17C22.5 16.5858 22.1642 16.25 21.75 16.25H16.25Z" fill="#353566"/>
</svg>
