<svg width="24" height="24" viewBox="0 0 24 24" fill="none" xmlns="http://www.w3.org/2000/svg">
<path opacity="0.4" d="M9.24361 2.27755L3.71977 4.84732C2.67082 5.3353 2 6.38724 2 7.54414V13.511C2 14.6768 2.68103 15.7351 3.74204 16.2181L9.26588 18.7327C10.0488 19.0891 10.9476 19.0891 11.7306 18.7327L16.0106 16.7843C15.7013 16.2801 15.5003 15.7236 15.5003 15.0817C15.5003 14.0179 15.9962 13.1157 16.808 12.5278C17.168 12.2671 17.5774 12.0779 18 11.9435C18.0031 11.3304 18.437 10.7981 18.9964 10.5915V7.54414C18.9964 6.38724 18.3256 5.3353 17.2767 4.84732L11.7528 2.27755C10.9573 1.90748 10.0391 1.90748 9.24361 2.27755Z" fill="#353566"/>
<path d="M6.39552 13.947C6.14136 13.8391 5.84779 13.9576 5.73981 14.2117C5.63183 14.4659 5.75033 14.7594 6.00448 14.8674L7.80448 15.6322C8.05864 15.7402 8.35221 15.6217 8.46019 15.3675C8.56817 15.1133 8.44967 14.8198 8.19552 14.7118L6.39552 13.947Z" fill="#353566"/>
<path fill-rule="evenodd" clip-rule="evenodd" d="M10.9991 18.4493L10.9991 10.381L18.4453 7.04363C18.4789 7.20648 18.4964 7.37418 18.4964 7.54463V10.892C18.7684 10.6505 19.1251 10.5011 19.4964 10.5001V7.54463C19.4964 6.19325 18.7128 4.96448 17.4876 4.39446L11.9637 1.82469C11.0345 1.39242 9.9619 1.39242 9.03271 1.82469L3.50887 4.39446C2.28359 4.96448 1.5 6.19325 1.5 7.54463V13.5115C1.5 14.8733 2.29551 16.1095 3.53488 16.6736L9.05872 19.1883C9.97324 19.6046 11.0232 19.6046 11.9377 19.1883L16.299 17.2029C16.0925 16.9319 15.9125 16.647 15.7758 16.3423L11.5234 18.2781C11.354 18.3552 11.1781 18.4123 10.9991 18.4493ZM11.5419 2.73138C10.8802 2.42352 10.1163 2.42353 9.45452 2.73138L7.23032 3.76611L15.0494 7.4698L18.049 6.12541C17.8042 5.77575 17.4685 5.48849 17.0658 5.30115L11.5419 2.73138ZM6.05179 4.31438L13.8491 8.00776L10.4982 9.50962L2.94746 6.12542C3.19225 5.77576 3.52796 5.4885 3.93067 5.30115L6.05179 4.31438ZM2.5 7.54463C2.5 7.37419 2.5175 7.20649 2.55116 7.04364L9.99911 10.3818L9.99909 18.4496C9.81946 18.4127 9.64296 18.3555 9.47304 18.2781L3.9492 15.7635C3.06655 15.3617 2.5 14.4813 2.5 13.5115V7.54463Z" fill="#353566"/>
<path d="M19 12.7749V12C19 11.7239 19.2239 11.5 19.5 11.5C19.7761 11.5 20 11.7239 20 12V12.7708C20.3289 12.801 20.6294 12.8671 20.9344 12.988C21.3749 13.1627 21.794 13.4404 22.3019 13.8249C22.522 13.9916 22.5653 14.3052 22.3987 14.5254C22.232 14.7455 21.9183 14.7889 21.6982 14.6222C21.206 14.2495 20.8752 14.0404 20.5657 13.9176C20.2679 13.7995 19.9604 13.75 19.5 13.75C18.821 13.75 18.3089 13.91 17.9808 14.1476C17.6677 14.3743 17.5 14.6843 17.5 15.0817C17.5 15.573 17.7356 15.8639 18.1193 16.0786C18.5345 16.311 19.0791 16.4229 19.5822 16.5068C20.0791 16.5896 20.7845 16.7214 21.3693 17.0488C21.9856 17.3938 22.5 17.9788 22.5 18.9183C22.5 19.6495 22.1677 20.2554 21.6058 20.6623C21.1725 20.9761 20.6194 21.1616 20 21.2251V22C20 22.2761 19.7761 22.5 19.5 22.5C19.2239 22.5 19 22.2761 19 22V21.2292C18.6711 21.199 18.3706 21.1329 18.0657 21.0119C17.6252 20.8372 17.206 20.5596 16.6982 20.175C16.478 20.0083 16.4347 19.6947 16.6014 19.4746C16.7681 19.2544 17.0817 19.2111 17.3019 19.3778C17.7941 19.7505 18.1249 19.9596 18.4344 20.0824C18.7322 20.2005 19.0396 20.25 19.5 20.25C20.179 20.25 20.6912 20.09 21.0193 19.8524C21.3323 19.6257 21.5 19.3157 21.5 18.9183C21.5 18.427 21.2644 18.1361 20.8808 17.9214C20.4656 17.689 19.921 17.5771 19.4178 17.4932C18.921 17.4104 18.2156 17.2786 17.6308 16.9512C17.0144 16.6062 16.5 16.0212 16.5 15.0817C16.5 14.3505 16.8323 13.7446 17.3942 13.3377C17.8275 13.0239 18.3806 12.8384 19 12.7749Z" fill="#353566"/>
</svg>
