<svg width="24" height="24" viewBox="0 0 24 24" fill="none" xmlns="http://www.w3.org/2000/svg">
<path opacity="0.4" d="M8.24361 2.27755L2.71977 4.84732C1.67082 5.3353 1 6.38724 1 7.54414V13.511C1 14.6768 1.68103 15.7351 2.74204 16.2181L8.26588 18.7327C9.04879 19.0891 9.94765 19.0891 10.7306 18.7327L12.4306 17.9588C12.5026 17.8137 12.5979 17.6806 12.7135 17.565L17.9964 12.2807V7.54414C17.9964 6.38724 17.3256 5.3353 16.2767 4.84732L10.7528 2.27755C9.95735 1.90748 9.03908 1.90748 8.24361 2.27755Z" fill="#353566"/>
<path d="M4.73981 14.2122C4.84779 13.958 5.14136 13.8395 5.39552 13.9475L7.19552 14.7123C7.44967 14.8203 7.56817 15.1138 7.46019 15.368C7.35221 15.6221 7.05864 15.7406 6.80448 15.6327L5.00448 14.8679C4.75033 14.7599 4.63183 14.4664 4.73981 14.2122Z" fill="#353566"/>
<path fill-rule="evenodd" clip-rule="evenodd" d="M9.99911 10.3814L9.99909 18.4498C10.1781 18.4128 10.354 18.3557 10.5234 18.2786L13.2344 17.0445L12.7136 17.5654C12.5144 17.7646 12.3754 18.0159 12.3124 18.2904L12.2425 18.5948L10.9377 19.1887C10.0232 19.6051 8.97324 19.6051 8.05872 19.1887L2.53488 16.6741C1.29551 16.1099 0.5 14.8737 0.5 13.512V7.54512C0.5 6.19374 1.28359 4.96497 2.50887 4.39495L8.03271 1.82518C8.9619 1.39291 10.0345 1.39291 10.9637 1.82518L16.4876 4.39495C17.7128 4.96497 18.4964 6.19374 18.4964 7.54512V11.7811L17.4964 12.7813V7.54512C17.4964 7.37467 17.4789 7.20696 17.4453 7.04411L9.99911 10.3814ZM8.45452 2.73187C9.11626 2.42401 9.88017 2.42401 10.5419 2.73187L16.0658 5.30164C16.4685 5.48898 16.8042 5.77624 17.049 6.12589L14.0494 7.47028L6.23032 3.76659L8.45452 2.73187ZM12.8491 8.00825L5.05179 4.31486L2.93067 5.30164C2.52796 5.48898 2.19225 5.77625 1.94746 6.12591L9.4982 9.51011L12.8491 8.00825ZM1.55116 7.04413C1.5175 7.20697 1.5 7.37468 1.5 7.54512V13.512C1.5 14.4818 2.06655 15.3622 2.9492 15.764L8.47304 18.2786C8.64296 18.356 8.81946 18.4131 8.99909 18.4501L8.99911 10.3823L1.55116 7.04413Z" fill="#353566"/>
<path fill-rule="evenodd" clip-rule="evenodd" d="M19.8776 11.8596C20.5638 11.3823 21.4745 11.3821 22.1609 11.8591C22.3081 11.9614 22.4496 12.1029 22.6405 12.2938L22.7066 12.3599C22.8976 12.5507 23.0393 12.6922 23.1417 12.8394C23.6192 13.5257 23.6194 14.4367 23.1422 15.1232C23.0398 15.2704 22.8982 15.4119 22.7072 15.6028L16.7308 21.5804C16.6643 21.6469 16.5804 21.6933 16.4888 21.7143L13.1116 22.4877C12.9438 22.5261 12.7681 22.4755 12.6464 22.3538C12.5247 22.232 12.4742 22.0562 12.5127 21.8885L13.287 18.5151C13.308 18.4236 13.3543 18.3398 13.4207 18.2734L19.3981 12.2945C19.5889 12.1036 19.7304 11.962 19.8776 11.8596ZM21.5902 12.6803C21.247 12.4418 20.7917 12.4419 20.4486 12.6805C20.3846 12.725 20.3107 12.7961 20.0723 13.0346L19.4168 13.6902L21.3113 15.5847L21.967 14.9288C22.2054 14.6903 22.2766 14.6164 22.3211 14.5524C22.5597 14.2091 22.5596 13.7537 22.3208 13.4105C22.2763 13.3465 22.2052 13.2726 21.9666 13.0342C21.7282 12.7958 21.6542 12.7247 21.5902 12.6803ZM20.6042 16.2918L18.7098 14.3974L14.2295 18.8788L13.6658 21.3349L16.1253 20.7716L20.6042 16.2918Z" fill="#353566"/>
</svg>
