<svg width="24" height="24" viewBox="0 0 24 24" fill="none" xmlns="http://www.w3.org/2000/svg">
<g opacity="0.4">
<path d="M9.10899 3.54601C9 3.75992 9 4.03995 9 4.6V6.4C9 6.96005 9 7.24008 9.10899 7.45399C9.20487 7.64215 9.35785 7.79513 9.54601 7.89101C9.75992 8 10.0399 8 10.6 8H12.15C12.7101 8 12.9901 8 13.204 7.89101C13.3922 7.79513 13.5451 7.64215 13.641 7.45399C13.75 7.24008 13.75 6.96005 13.75 6.4V4.6C13.75 4.03995 13.75 3.75992 13.641 3.54601C13.5451 3.35785 13.3922 3.20487 13.204 3.10899C12.9901 3 12.7101 3 12.15 3H10.6C10.0399 3 9.75992 3 9.54601 3.10899C9.35785 3.20487 9.20487 3.35785 9.10899 3.54601Z" fill="#353566"/>
<path d="M16.25 5.7C16.25 5.27996 16.25 5.06994 16.3317 4.90951C16.4037 4.76839 16.5184 4.65365 16.6595 4.58175C16.8199 4.5 17.03 4.5 17.45 4.5H19.8C20.22 4.5 20.4301 4.5 20.5905 4.58175C20.7316 4.65365 20.8463 4.76839 20.9183 4.90951C21 5.06994 21 5.27996 21 5.7V6.8C21 7.22004 21 7.43006 20.9183 7.59049C20.8463 7.73161 20.7316 7.84635 20.5905 7.91825C20.4301 8 20.22 8 19.8 8H17.45C17.03 8 16.8199 8 16.6595 7.91825C16.5184 7.84635 16.4037 7.73161 16.3317 7.59049C16.25 7.43006 16.25 7.22004 16.25 6.8V5.7Z" fill="#353566"/>
<path d="M9 12.1C9 11.5399 9 11.2599 9.10899 11.046C9.20487 10.8578 9.35785 10.7049 9.54601 10.609C9.75992 10.5 10.0399 10.5 10.6 10.5H19.4C19.9601 10.5 20.2401 10.5 20.454 10.609C20.6422 10.7049 20.7951 10.8578 20.891 11.046C21 11.2599 21 11.5399 21 12.1V13.4C21 13.9601 21 14.2401 20.891 14.454C20.7951 14.6422 20.6422 14.7951 20.454 14.891C20.2401 15 19.9601 15 19.4 15H10.6C10.0399 15 9.75992 15 9.54601 14.891C9.35785 14.7951 9.20487 14.6422 9.10899 14.454C9 14.2401 9 13.9601 9 13.4V12.1Z" fill="#353566"/>
<path d="M10.5 22C11.3284 22 12 21.3284 12 20.5C12 19.6716 11.3284 19 10.5 19C9.67157 19 9 19.6716 9 20.5C9 21.3284 9.67157 22 10.5 22Z" fill="#353566"/>
<path d="M20 20.5C20 21.3284 19.3284 22 18.5 22C17.6716 22 17 21.3284 17 20.5C17 19.6716 17.6716 19 18.5 19C19.3284 19 20 19.6716 20 20.5Z" fill="#353566"/>
</g>
<path fill-rule="evenodd" clip-rule="evenodd" d="M3.06028 2.51787C2.80233 2.50027 2.47278 2.5 2 2.5C1.72386 2.5 1.5 2.27614 1.5 2C1.5 1.72386 1.72386 1.5 2 1.5L2.01776 1.5C2.46864 1.5 2.83234 1.49999 3.12835 1.52019C3.43272 1.54096 3.70186 1.58474 3.95671 1.6903C4.56928 1.94404 5.05596 2.43072 5.3097 3.04329C5.41526 3.29814 5.45904 3.56728 5.47981 3.87165C5.50001 4.16766 5.5 4.53136 5.5 4.98224V14.5C5.5 15.2083 5.50039 15.7095 5.5324 16.1013C5.56393 16.4872 5.62365 16.7228 5.71799 16.908C5.90973 17.2843 6.21569 17.5903 6.59202 17.782C6.77717 17.8764 7.01276 17.9361 7.39872 17.9676C7.79052 17.9996 8.29168 18 9 18H22C22.2761 18 22.5 18.2239 22.5 18.5C22.5 18.7761 22.2761 19 22 19H19.8229C20.2381 19.3665 20.5 19.9027 20.5 20.5C20.5 21.6046 19.6046 22.5 18.5 22.5C17.3954 22.5 16.5 21.6046 16.5 20.5C16.5 19.9027 16.7619 19.3665 17.1771 19H11.8229C12.2381 19.3665 12.5 19.9027 12.5 20.5C12.5 21.6046 11.6046 22.5 10.5 22.5C9.39543 22.5 8.5 21.6046 8.5 20.5C8.5 19.9027 8.76188 19.3665 9.17709 19H8.97811C8.29659 19 7.75458 19 7.31729 18.9643C6.86949 18.9277 6.48765 18.8512 6.13803 18.673C5.57354 18.3854 5.1146 17.9265 4.82698 17.362C4.64884 17.0123 4.57231 16.6305 4.53572 16.1827C4.49999 15.7454 4.5 15.2034 4.5 14.5219V5C4.5 4.52722 4.49973 4.19767 4.48213 3.93972C4.46484 3.68627 4.4325 3.53867 4.38582 3.42598C4.23358 3.05843 3.94157 2.76642 3.57403 2.61418C3.46133 2.5675 3.31373 2.53516 3.06028 2.51787ZM10.5 19.5C9.94772 19.5 9.5 19.9477 9.5 20.5C9.5 21.0523 9.94772 21.5 10.5 21.5C11.0523 21.5 11.5 21.0523 11.5 20.5C11.5 19.9477 11.0523 19.5 10.5 19.5ZM18.5 19.5C17.9477 19.5 17.5 19.9477 17.5 20.5C17.5 21.0523 17.9477 21.5 18.5 21.5C19.0523 21.5 19.5 21.0523 19.5 20.5C19.5 19.9477 19.0523 19.5 18.5 19.5Z" fill="#353566"/>
<path fill-rule="evenodd" clip-rule="evenodd" d="M10.5807 2.5H12.1693C12.4328 2.49999 12.6602 2.49998 12.8475 2.51529C13.0452 2.53144 13.2418 2.56709 13.431 2.66349C13.7132 2.8073 13.9427 3.03677 14.0865 3.31901C14.1829 3.5082 14.2186 3.70481 14.2347 3.90249C14.25 4.08977 14.25 4.31715 14.25 4.58072V6.41928C14.25 6.68285 14.25 6.91023 14.2347 7.09751C14.2186 7.29519 14.1829 7.4918 14.0865 7.68099C13.9427 7.96323 13.7132 8.1927 13.431 8.33651C13.2418 8.43291 13.0452 8.46856 12.8475 8.48472C12.6602 8.50002 12.4328 8.50001 12.1693 8.5H10.5807C10.3172 8.50001 10.0898 8.50002 9.90249 8.48472C9.70481 8.46856 9.5082 8.43291 9.31901 8.33651C9.03677 8.1927 8.8073 7.96323 8.66349 7.68099C8.56709 7.4918 8.53144 7.29519 8.51528 7.09751C8.49998 6.91023 8.49999 6.68284 8.5 6.41926V4.58074C8.49999 4.31716 8.49998 4.08977 8.51528 3.90249C8.53144 3.70481 8.56709 3.5082 8.66349 3.31901C8.8073 3.03677 9.03677 2.8073 9.31901 2.66349C9.5082 2.56709 9.70481 2.53144 9.90249 2.51529C10.0898 2.49998 10.3172 2.49999 10.5807 2.5ZM9.98392 3.51196C9.84809 3.52306 9.79773 3.5419 9.773 3.5545C9.67892 3.60243 9.60243 3.67892 9.5545 3.77301C9.5419 3.79773 9.52306 3.84809 9.51196 3.98392C9.50039 4.12559 9.5 4.31172 9.5 4.6V6.4C9.5 6.68828 9.50039 6.87441 9.51196 7.01608C9.52306 7.15191 9.5419 7.20227 9.5545 7.22699C9.60243 7.32108 9.67892 7.39757 9.773 7.4455C9.79773 7.4581 9.84809 7.47694 9.98392 7.48804C10.1256 7.49961 10.3117 7.5 10.6 7.5H12.15C12.4383 7.5 12.6244 7.49961 12.7661 7.48804C12.9019 7.47694 12.9523 7.4581 12.977 7.4455C13.0711 7.39757 13.1476 7.32108 13.1955 7.22699C13.2081 7.20227 13.2269 7.15191 13.238 7.01608C13.2496 6.87441 13.25 6.68828 13.25 6.4V4.6C13.25 4.31172 13.2496 4.12559 13.238 3.98392C13.2269 3.84809 13.2081 3.79773 13.1955 3.77301C13.1476 3.67892 13.0711 3.60243 12.977 3.5545C12.9523 3.5419 12.9019 3.52306 12.7661 3.51196C12.6244 3.50039 12.4383 3.5 12.15 3.5H10.6C10.3117 3.5 10.1256 3.50039 9.98392 3.51196Z" fill="#353566"/>
<path fill-rule="evenodd" clip-rule="evenodd" d="M17.432 4H19.818C20.0126 3.99999 20.1877 3.99998 20.3333 4.01188C20.4893 4.02462 20.655 4.05347 20.8175 4.13624C21.0527 4.25608 21.2439 4.44731 21.3638 4.68251C21.4465 4.84496 21.4754 5.0107 21.4881 5.16669C21.5 5.31234 21.5 5.48741 21.5 5.68195V6.81805C21.5 7.01259 21.5 7.18766 21.4881 7.33331C21.4754 7.4893 21.4465 7.65504 21.3638 7.81749C21.2439 8.05269 21.0527 8.24392 20.8175 8.36376C20.655 8.44653 20.4893 8.47538 20.3333 8.48812C20.1877 8.50002 20.0126 8.50001 19.818 8.5H17.432C17.2374 8.50001 17.0623 8.50002 16.9167 8.48812C16.7607 8.47538 16.595 8.44653 16.4325 8.36376C16.1973 8.24392 16.0061 8.05269 15.8862 7.81749C15.8035 7.65504 15.7746 7.4893 15.7619 7.33331C15.75 7.18766 15.75 7.0126 15.75 6.81805V5.68195C15.75 5.48741 15.75 5.31234 15.7619 5.16669C15.7746 5.0107 15.8035 4.84496 15.8862 4.68251C16.0061 4.44731 16.1973 4.25608 16.4325 4.13624C16.595 4.05347 16.7607 4.02462 16.9167 4.01188C17.0623 3.99998 17.2374 3.99999 17.432 4ZM16.8879 5.0266L16.8865 5.02725C16.8395 5.05122 16.8012 5.08946 16.7772 5.1365L16.7767 5.13772L16.7757 5.14039C16.7747 5.1431 16.7731 5.14811 16.7712 5.15625C16.7671 5.17336 16.7624 5.20154 16.7586 5.24812C16.7504 5.3481 16.75 5.48173 16.75 5.7V6.8C16.75 7.01827 16.7504 7.1519 16.7586 7.25188C16.7624 7.29846 16.7671 7.32664 16.7712 7.34375C16.7731 7.35189 16.7747 7.3569 16.7757 7.35961C16.7766 7.36221 16.7772 7.3635 16.7772 7.3635C16.8012 7.41054 16.8395 7.44878 16.8865 7.47275C16.8865 7.47275 16.8878 7.47341 16.8904 7.47434C16.8931 7.4753 16.8981 7.47691 16.9062 7.47883C16.9234 7.48286 16.9515 7.48764 16.9981 7.49144C17.0981 7.49961 17.2317 7.5 17.45 7.5H19.8C20.0183 7.5 20.1519 7.49961 20.2519 7.49144C20.2985 7.48764 20.3266 7.48286 20.3438 7.47883C20.3519 7.47691 20.3569 7.4753 20.3596 7.47434C20.3622 7.47341 20.3635 7.47275 20.3635 7.47275C20.4105 7.44878 20.4488 7.41054 20.4728 7.3635C20.4728 7.3635 20.4734 7.36221 20.4743 7.35961C20.4753 7.3569 20.4769 7.35189 20.4788 7.34375C20.4829 7.32664 20.4876 7.29846 20.4914 7.25188C20.4996 7.1519 20.5 7.01827 20.5 6.8V5.7C20.5 5.48173 20.4996 5.3481 20.4914 5.24812C20.4876 5.20154 20.4829 5.17336 20.4788 5.15625C20.4769 5.14811 20.4753 5.1431 20.4743 5.14039L20.473 5.13708V5.13708C20.4491 5.09004 20.4105 5.05122 20.3635 5.02725C20.3635 5.02725 20.3622 5.02659 20.3596 5.02566C20.3569 5.0247 20.3519 5.02309 20.3438 5.02117C20.3266 5.01714 20.2985 5.01236 20.2519 5.00856C20.1519 5.00039 20.0183 5 19.8 5H17.45C17.2317 5 17.0981 5.00039 16.9981 5.00856C16.9515 5.01236 16.9234 5.01714 16.9062 5.02117C16.8981 5.02309 16.8931 5.0247 16.8904 5.02566L16.8879 5.0266Z" fill="#353566"/>
<path fill-rule="evenodd" clip-rule="evenodd" d="M10.5807 10H19.4193C19.6828 9.99999 19.9102 9.99998 20.0975 10.0153C20.2952 10.0314 20.4918 10.0671 20.681 10.1635C20.9632 10.3073 21.1927 10.5368 21.3365 10.819C21.4329 11.0082 21.4686 11.2048 21.4847 11.4025C21.5 11.5898 21.5 11.8171 21.5 12.0807V13.4193C21.5 13.6829 21.5 13.9102 21.4847 14.0975C21.4686 14.2952 21.4329 14.4918 21.3365 14.681C21.1927 14.9632 20.9632 15.1927 20.681 15.3365C20.4918 15.4329 20.2952 15.4686 20.0975 15.4847C19.9102 15.5 19.6829 15.5 19.4193 15.5H10.5807C10.3171 15.5 10.0898 15.5 9.90249 15.4847C9.70481 15.4686 9.5082 15.4329 9.31901 15.3365C9.03677 15.1927 8.8073 14.9632 8.66349 14.681C8.56709 14.4918 8.53144 14.2952 8.51528 14.0975C8.49998 13.9102 8.49999 13.6828 8.5 13.4193V12.0807C8.49999 11.8172 8.49998 11.5898 8.51528 11.4025C8.53144 11.2048 8.56709 11.0082 8.66349 10.819C8.8073 10.5368 9.03677 10.3073 9.31901 10.1635C9.5082 10.0671 9.70481 10.0314 9.90249 10.0153C10.0898 9.99998 10.3172 9.99999 10.5807 10ZM9.98392 11.012C9.84809 11.0231 9.79773 11.0419 9.773 11.0545C9.67892 11.1024 9.60243 11.1789 9.5545 11.273C9.5419 11.2977 9.52306 11.3481 9.51196 11.4839C9.50039 11.6256 9.5 11.8117 9.5 12.1V13.4C9.5 13.6883 9.50039 13.8744 9.51196 14.0161C9.52306 14.1519 9.5419 14.2023 9.5545 14.227C9.60243 14.3211 9.67892 14.3976 9.773 14.4455C9.79773 14.4581 9.84809 14.4769 9.98392 14.488C10.1256 14.4996 10.3117 14.5 10.6 14.5H19.4C19.6883 14.5 19.8744 14.4996 20.0161 14.488C20.1519 14.4769 20.2023 14.4581 20.227 14.4455C20.3211 14.3976 20.3976 14.3211 20.4455 14.227C20.4581 14.2023 20.4769 14.1519 20.488 14.0161C20.4996 13.8744 20.5 13.6883 20.5 13.4V12.1C20.5 11.8117 20.4996 11.6256 20.488 11.4839C20.4769 11.3481 20.4581 11.2977 20.4455 11.273C20.3976 11.1789 20.3211 11.1024 20.227 11.0545C20.2023 11.0419 20.1519 11.0231 20.0161 11.012C19.8744 11.0004 19.6883 11 19.4 11H10.6C10.3117 11 10.1256 11.0004 9.98392 11.012Z" fill="#353566"/>
</svg>
