<svg width="24" height="24" viewBox="0 0 24 24" fill="none" xmlns="http://www.w3.org/2000/svg">
<g opacity="0.4">
<path d="M7.5 19C8.32843 19 9 19.6716 9 20.5C9 21.3284 8.32843 22 7.5 22C6.67157 22 6 21.3284 6 20.5C6 19.6716 6.67157 19 7.5 19Z" fill="#353566"/>
<path d="M20.0039 4.5C20.5959 4.5 21.0585 5.0116 20.999 5.60059L20.4961 10.5771C19.8409 10.7916 19.5173 11.4321 19.2715 12.0938C19.1815 12.3346 18.7804 12.3883 18.5703 12.4658C18.1784 12.6098 17.8813 12.9049 17.6973 13.2627C17.4123 13.1037 17.095 13 16.749 13C15.4459 13 14.9937 14.0559 14.6104 15.0879C14.5558 15.2368 14.4794 15.3742 14.3887 15.5H7.00781C6.00264 15.5 5.15363 14.7537 5.02441 13.7568L3.82422 4.5H20.0039Z" fill="#353566"/>
</g>
<path fill-rule="evenodd" clip-rule="evenodd" d="M2.18164 1.5C3.18682 1.5 4.03582 2.24633 4.16504 3.24316L4.26367 4H20.0039C20.8918 4 21.5851 4.76698 21.4961 5.65039L21.0059 10.502H20.9922C20.547 10.5033 20.2167 10.6578 19.9609 10.9004L20.502 5.5498C20.5314 5.25549 20.2998 5 20.0039 5H4.39355L5.51953 13.6924C5.61645 14.44 6.25393 15 7.00781 15H14.6445C14.6426 15.0052 14.6406 15.0103 14.6386 15.0155C14.6352 15.0243 14.6317 15.0331 14.6282 15.0419C14.6221 15.0572 14.6161 15.0725 14.6104 15.0879C14.4665 15.4805 14.1853 15.8006 13.8232 16H5.25C4.55964 16 4 16.5596 4 17.25C4 17.9404 4.55964 18.5 5.25 18.5H11.5146C11.563 18.9222 11.7349 19.2431 11.9814 19.5H9.23047C9.40094 19.7944 9.5 20.1354 9.5 20.5C9.5 21.6046 8.60457 22.5 7.5 22.5C6.39543 22.5 5.5 21.6046 5.5 20.5C5.5 20.1354 5.59906 19.7944 5.76953 19.5H5.25C4.00736 19.5 3 18.4926 3 17.25C3 16.0855 3.88465 15.1276 5.01855 15.0117C4.76151 14.674 4.58627 14.2683 4.52832 13.8213L3.17383 3.37109C3.10908 2.87283 2.68412 2.5 2.18164 2.5H1C0.723858 2.5 0.5 2.27614 0.5 2C0.5 1.72386 0.723858 1.5 1 1.5H2.18164ZM7.5 19.5C6.94772 19.5 6.5 19.9477 6.5 20.5C6.5 21.0523 6.94772 21.5 7.5 21.5C8.05228 21.5 8.5 21.0523 8.5 20.5C8.5 19.9477 8.05228 19.5 7.5 19.5Z" fill="#353566"/>
<path fill-rule="evenodd" clip-rule="evenodd" d="M15.8479 14.6281C16.1578 13.7906 17.3422 13.7906 17.6521 14.6281L17.9505 15.4345C18.2274 16.1827 18.8173 16.7726 19.5655 17.0495L20.3719 17.3479C21.2094 17.6578 21.2094 18.8422 20.3719 19.1521L19.5655 19.4505C18.8173 19.7274 18.2274 20.3173 17.9505 21.0655L17.6521 21.8719C17.3422 22.7094 16.1578 22.7094 15.8479 21.8719L15.5495 21.0655C15.2726 20.3173 14.6827 19.7274 13.9345 19.4505L13.1281 19.1521C12.2906 18.8422 12.2906 17.6578 13.1281 17.3479L13.9345 17.0495C14.6827 16.7726 15.2726 16.1827 15.5495 15.4345L15.8479 14.6281ZM16.75 15.0717L16.4873 15.7816C16.1092 16.8035 15.3035 17.6092 14.2816 17.9873L13.5717 18.25L14.2816 18.5127C15.3035 18.8908 16.1092 19.6965 16.4873 20.7184L16.75 21.4283L17.0127 20.7184C17.3908 19.6965 18.1965 18.8908 19.2184 18.5127L19.9283 18.25L19.2184 17.9873C18.1965 17.6092 17.3908 16.8035 17.0127 15.7816L16.75 15.0717Z" fill="#353566"/>
<path d="M21.1269 12.0883C21.0833 11.9706 20.9167 11.9706 20.8731 12.0883L20.6789 12.6133C20.4962 13.107 20.107 13.4962 19.6133 13.6789L19.0883 13.8731C18.9706 13.9167 18.9706 14.0833 19.0883 14.1269L19.6133 14.3211C20.107 14.5038 20.4962 14.893 20.6789 15.3867L20.8731 15.9117C20.9167 16.0294 21.0833 16.0294 21.1269 15.9117L21.3211 15.3867C21.5038 14.893 21.893 14.5038 22.3867 14.3211L22.9117 14.1269C23.0294 14.0833 23.0294 13.9167 22.9117 13.8731L22.3867 13.6789C21.893 13.4962 21.5038 13.107 21.3211 12.6133L21.1269 12.0883Z" fill="#353566"/>
</svg>
