<svg width="24" height="24" viewBox="0 0 24 24" fill="none" xmlns="http://www.w3.org/2000/svg">
<g opacity="0.4">
<path d="M7.5 19C8.32843 19 9 19.6716 9 20.5C9 21.3284 8.32843 22 7.5 22C6.67157 22 6 21.3284 6 20.5C6 19.6716 6.67157 19 7.5 19Z" fill="#353566"/>
<path d="M20.0039 4.5C20.5959 4.5 21.0585 5.0116 20.999 5.60059L20.2637 12.875C19.8015 11.9057 19.2129 11 18.002 11C16.3472 11.0001 15.8525 12.6906 15.2578 13.9248C13.9304 14.0985 12.217 14.0455 11.6523 15.5H7.00781C6.00264 15.5 5.15363 14.7537 5.02441 13.7568L3.82422 4.5H20.0039Z" fill="#353566"/>
</g>
<path fill-rule="evenodd" clip-rule="evenodd" d="M4.16504 3.24316C4.03582 2.24633 3.18682 1.5 2.18164 1.5H1C0.723858 1.5 0.5 1.72386 0.5 2C0.5 2.27614 0.723858 2.5 1 2.5H2.18164C2.68412 2.5 3.10908 2.87283 3.17383 3.37109L4.52832 13.8213C4.58627 14.2683 4.76151 14.674 5.01855 15.0117C3.88465 15.1276 3 16.0855 3 17.25C3 18.4926 4.00736 19.5 5.25 19.5H5.76953C5.59906 19.7944 5.5 20.1354 5.5 20.5C5.5 21.6046 6.39543 22.5 7.5 22.5C8.60457 22.5 9.5 21.6046 9.5 20.5C9.5 20.1354 9.40094 19.7944 9.23047 19.5H13.4736C13.481 19.4657 13.4884 19.4316 13.4958 19.3976C13.516 19.3053 13.5359 19.2141 13.5527 19.124C13.4152 18.9948 13.2691 18.8644 13.1207 18.7319C13.0349 18.6553 12.9484 18.5781 12.8623 18.5H5.25C4.55964 18.5 4 17.9404 4 17.25C4 16.5596 4.55964 16 5.25 16H11.5215C11.5382 15.8798 11.5652 15.7557 11.6064 15.6279C11.6862 15.3809 11.797 15.1742 11.9316 15H7.00781C6.25393 15 5.61645 14.44 5.51953 13.6924L4.39355 5H20.0039C20.2998 5 20.5314 5.25549 20.502 5.5498L19.8398 12.1035C20.1044 12.5067 20.3141 12.9727 20.5151 13.4193C20.5601 13.5194 20.6047 13.6186 20.6494 13.7158C20.6825 13.5807 20.7103 13.4428 20.7246 13.3008L21.4961 5.65039C21.5851 4.76698 20.8918 4 20.0039 4H4.26367L4.16504 3.24316ZM6.5 20.5C6.5 19.9477 6.94772 19.5 7.5 19.5C8.05228 19.5 8.5 19.9477 8.5 20.5C8.5 21.0523 8.05228 21.5 7.5 21.5C6.94772 21.5 6.5 21.0523 6.5 20.5Z" fill="#353566"/>
<path fill-rule="evenodd" clip-rule="evenodd" d="M19.0133 12.6365C18.6043 11.7878 17.3957 11.7878 16.9866 12.6365L15.9213 14.8464L13.4801 15.165C12.5385 15.2879 12.1633 16.45 12.8553 17.1003L14.6335 18.7713L14.1858 21.1646C14.0121 22.0935 14.9916 22.8097 15.824 22.3625L18 21.1934L20.1759 22.3625C21.0083 22.8097 21.9878 22.0935 21.8141 21.1646L21.3664 18.7713L23.1446 17.1003C23.8366 16.45 23.4614 15.2879 22.5198 15.165L20.0786 14.8464L19.0133 12.6365ZM17.8874 13.0707C17.9328 12.9764 18.0671 12.9764 18.1125 13.0707L19.1778 15.2807C19.3244 15.5848 19.6145 15.7944 19.9492 15.838L22.3905 16.1566C22.495 16.1702 22.5367 16.2993 22.4599 16.3716L20.6816 18.0426C20.4331 18.2761 20.3208 18.62 20.3834 18.9552L20.8311 21.3485C20.8504 21.4517 20.7416 21.5312 20.6492 21.4815L18.4732 20.3125C18.1777 20.1537 17.8222 20.1537 17.5267 20.3125L15.3508 21.4815C15.2583 21.5312 15.1495 21.4517 15.1688 21.3485L15.6165 18.9552C15.6792 18.62 15.5668 18.2761 15.3183 18.0426L13.5401 16.3716C13.4632 16.2993 13.5049 16.1702 13.6095 16.1566L16.0507 15.838C16.3854 15.7944 16.6755 15.5848 16.8221 15.2807L17.8874 13.0707Z" fill="#353566"/>
</svg>
