<svg width="24" height="24" viewBox="0 0 24 24" fill="none" xmlns="http://www.w3.org/2000/svg">
<g opacity="0.4">
<path d="M8.40577 5.43943C8.19519 6.1282 8.34107 6.95551 8.63283 8.61015L9.04958 10.9737C9.34134 12.6283 9.48722 13.4556 9.92067 14.0308C10.3019 14.5368 10.8336 14.9091 11.4395 15.0943C12.1282 15.3049 12.9555 15.159 14.6102 14.8673L16.9737 14.4505C18.6283 14.1587 19.4557 14.0129 20.0309 13.5794C20.5368 13.1981 20.9091 12.6665 21.0943 12.0606C21.3049 11.3719 21.159 10.5445 20.8673 8.88991L20.4505 6.52637C20.1588 4.87174 20.0129 4.04442 19.5794 3.46921C19.1982 2.96325 18.6665 2.59097 18.0606 2.40574C17.3719 2.19517 16.5446 2.34105 14.8899 2.6328L12.5264 3.04956C10.8718 3.34131 10.0444 3.48719 9.46924 3.92064C8.96327 4.30191 8.591 4.83358 8.40577 5.43943Z" fill="#353566"/>
<path d="M6.25 17.4999C7.49264 17.4999 8.5 18.5073 8.5 19.7499C8.5 20.9926 7.49264 21.9999 6.25 21.9999C5.00736 21.9999 4 20.9926 4 19.7499C4 18.5073 5.00736 17.4999 6.25 17.4999Z" fill="#353566"/>
</g>
<path fill-rule="evenodd" clip-rule="evenodd" d="M1.69277 2.5C2.05825 2.5 2.30486 2.50033 2.49718 2.5148C2.68322 2.5288 2.78213 2.55415 2.8547 2.58645C3.02588 2.66267 3.17221 2.78545 3.277 2.9408C3.32141 3.00666 3.36355 3.09966 3.40965 3.28045C3.4573 3.46733 3.50044 3.71013 3.56391 4.07006L5.84897 17.029C4.52029 17.2231 3.50005 18.3674 3.50005 19.7499C3.50005 21.2687 4.73126 22.4999 6.25005 22.4999C7.72624 22.4999 8.93077 21.3368 8.99716 19.877L23.088 17.3924C23.3599 17.3445 23.5415 17.0851 23.4935 16.8132C23.4456 16.5412 23.1863 16.3596 22.9143 16.4076L8.86144 18.8855C8.56274 17.9827 7.8089 17.2871 6.87172 17.0705L4.5455 3.87815C4.48607 3.5411 4.43669 3.26105 4.37865 3.03338C4.318 2.79552 4.23991 2.58008 4.10603 2.38161C3.89646 2.07091 3.60381 1.82534 3.26143 1.67291C3.04273 1.57553 2.817 1.53604 2.57222 1.51762C2.33793 1.49999 2.05356 1.49999 1.71131 1.5L0.999999 1.5C0.723858 1.5 0.500001 1.72386 0.5 2C0.500001 2.27614 0.723858 2.5 1 2.5L1.69277 2.5ZM6.25005 21.4999C5.28355 21.4999 4.50005 20.7164 4.50005 19.7499C4.50005 18.7834 5.28355 17.9999 6.25005 17.9999C7.21655 17.9999 8.00005 18.7834 8.00005 19.7499C8.00005 20.7164 7.21655 21.4999 6.25005 21.4999Z" fill="#353566"/>
<path d="M13.9462 7.07126L12.6107 8.97855C12.4523 9.20475 12.1405 9.25973 11.9143 9.10134C11.6881 8.94295 11.6332 8.63118 11.7916 8.40497L13.8195 5.5088C13.9779 5.2826 14.2896 5.22763 14.5158 5.38602L17.4119 7.41388C17.6381 7.57227 17.6931 7.88404 17.5347 8.11025C17.3763 8.33645 17.0646 8.39143 16.8384 8.23304L14.931 6.89748L15.7633 11.6176C15.8112 11.8896 15.6296 12.1489 15.3577 12.1969C15.0857 12.2448 14.8264 12.0632 14.7785 11.7913L13.9462 7.07126Z" fill="#353566"/>
<path fill-rule="evenodd" clip-rule="evenodd" d="M14.825 2.1365L12.4177 2.56097C11.6089 2.70358 10.9718 2.81592 10.4664 2.94822C9.95083 3.0832 9.52965 3.24901 9.16834 3.52128C8.57804 3.9661 8.14372 4.58637 7.92762 5.2932C7.79535 5.72585 7.78359 6.17834 7.83309 6.70898C7.88161 7.22912 7.99396 7.86626 8.13657 8.67506L8.56104 11.0823C8.70365 11.8911 8.81599 12.5283 8.9483 13.0336C9.08327 13.5492 9.24909 13.9704 9.52135 14.3317C9.96617 14.922 10.5864 15.3563 11.2933 15.5724C11.7259 15.7047 12.1784 15.7164 12.7091 15.6669C13.2292 15.6184 13.8663 15.5061 14.6751 15.3635L17.0824 14.939C17.8912 14.7964 18.5284 14.684 19.0337 14.5517C19.5493 14.4168 19.9705 14.251 20.3318 13.9787C20.9221 13.5339 21.3564 12.9136 21.5725 12.2068C21.7048 11.7741 21.7165 11.3216 21.667 10.791C21.6185 10.2709 21.5062 9.63371 21.3635 8.82492L20.9391 6.41762C20.7965 5.60883 20.6841 4.97169 20.5518 4.46633C20.4168 3.95076 20.251 3.52958 19.9788 3.16826C19.5339 2.57797 18.9137 2.14365 18.2068 1.92755C17.7742 1.79528 17.3217 1.78352 16.7911 1.83302C16.271 1.88153 15.6337 1.9939 14.825 2.1365ZM9.77015 4.31992C9.98405 4.15874 10.2641 4.03488 10.7197 3.91562C11.1809 3.79487 11.7778 3.68923 12.6132 3.54192L14.9768 3.12516C15.8122 2.97785 16.4092 2.87297 16.8839 2.82869C17.3528 2.78496 17.6583 2.80555 17.9145 2.88385C18.4193 3.03821 18.8624 3.34844 19.1801 3.77008C19.3413 3.98397 19.4652 4.26405 19.5844 4.7196C19.7052 5.18081 19.8108 5.77771 19.9581 6.61315L20.3749 8.97669C20.5222 9.81213 20.6271 10.4092 20.6713 10.8839C20.7151 11.3527 20.6945 11.6583 20.6162 11.9144C20.4618 12.4193 20.1516 12.8623 19.73 13.18C19.5161 13.3412 19.236 13.4651 18.7804 13.5843C18.3192 13.7051 17.7223 13.8107 16.8869 13.958L14.5234 14.3748C13.6879 14.5221 13.0909 14.627 12.6162 14.6713C12.1473 14.715 11.8418 14.6944 11.5856 14.6161C11.0808 14.4618 10.6377 14.1515 10.32 13.7299C10.1588 13.516 10.035 13.2359 9.91569 12.7804C9.79495 12.3192 9.6893 11.7223 9.54199 10.8868L9.12524 8.52328C8.97793 7.68784 8.87305 7.0908 8.82877 6.61611C8.78503 6.14724 8.80562 5.8417 8.88393 5.58558C9.03828 5.0807 9.34851 4.63764 9.77015 4.31992Z" fill="#353566"/>
</svg>
