<svg width="24" height="24" viewBox="0 0 24 24" fill="none" xmlns="http://www.w3.org/2000/svg">
<path opacity="0.4" d="M1.5 15.2C1.5 13.3798 1.5 12.4697 1.85423 11.7745C2.16582 11.163 2.663 10.6658 3.27453 10.3542C3.96974 10 4.87983 10 6.7 10H17.3C19.1202 10 20.0303 10 20.7255 10.3542C21.337 10.6658 21.8342 11.163 22.1458 11.7745C22.5 12.4697 22.5 13.3798 22.5 15.2V16.8C22.5 18.6202 22.5 19.5303 22.1458 20.2255C21.8342 20.837 21.337 21.3342 20.7255 21.6458C20.0303 22 19.1202 22 17.3 22H6.7C4.87983 22 3.96974 22 3.27453 21.6458C2.663 21.3342 2.16582 20.837 1.85423 20.2255C1.5 19.5303 1.5 18.6202 1.5 16.8V15.2Z" fill="#353566"/>
<path d="M14.3536 18.3535C14.1583 18.5488 13.8417 18.5488 13.6464 18.3535L12 16.7071L10.3536 18.3536C10.1583 18.5488 9.84172 18.5488 9.64646 18.3536C9.4512 18.1583 9.4512 17.8417 9.64646 17.6464L11.2929 16L9.64647 14.3536C9.45121 14.1583 9.45121 13.8417 9.64647 13.6465C9.84173 13.4512 10.1583 13.4512 10.3536 13.6465L12 15.2929L13.6464 13.6465C13.8417 13.4512 14.1583 13.4512 14.3535 13.6465C14.5488 13.8417 14.5488 14.1583 14.3535 14.3536L12.7071 16L14.3536 17.6464C14.5488 17.8417 14.5488 18.1583 14.3536 18.3535Z" fill="#353566"/>
<path fill-rule="evenodd" clip-rule="evenodd" d="M9.5 4C9.5 2.61929 10.6193 1.5 12 1.5C13.3807 1.5 14.5 2.61929 14.5 4C14.5 4.51637 14.3434 4.99617 14.0752 5.39454L17.7247 9.50017C18.4279 9.50111 19.0005 9.50714 19.4753 9.54594C20.0482 9.59274 20.5226 9.68971 20.9525 9.90873C21.6581 10.2683 22.2317 10.8419 22.5913 11.5475C22.8103 11.9774 22.9073 12.4518 22.9541 13.0247C23 13.587 23 14.2865 23 15.1778V16.8222C23 17.7135 23 18.413 22.9541 18.9753C22.9073 19.5482 22.8103 20.0226 22.5913 20.4525C22.2317 21.1581 21.6581 21.7318 20.9525 22.0913C20.5226 22.3103 20.0482 22.4073 19.4753 22.4541C18.913 22.5 18.2135 22.5 17.3223 22.5H6.67765C5.78648 22.5 5.08703 22.5 4.52469 22.4541C3.95183 22.4073 3.47738 22.3103 3.04754 22.0913C2.34193 21.7318 1.76825 21.1581 1.40873 20.4525C1.18971 20.0226 1.09274 19.5482 1.04594 18.9753C0.999994 18.413 0.999997 17.7135 1 16.8223V15.1777C0.999997 14.2865 0.999994 13.587 1.04594 13.0247C1.09274 12.4518 1.18971 11.9774 1.40873 11.5475C1.76825 10.8419 2.34193 10.2683 3.04754 9.90873C3.47738 9.68971 3.95183 9.59274 4.52469 9.54594C4.99952 9.50714 5.57211 9.50111 6.27532 9.50017L9.92478 5.39454C9.65655 4.99617 9.5 4.51637 9.5 4ZM12 2.5C11.1716 2.5 10.5 3.17157 10.5 4C10.5 4.82843 11.1716 5.5 12 5.5C12.8284 5.5 13.5 4.82843 13.5 4C13.5 3.17157 12.8284 2.5 12 2.5ZM16.3866 9.5L13.3617 6.09698C12.9699 6.3519 12.5022 6.5 12 6.5C11.4978 6.5 11.0301 6.3519 10.6383 6.09698L7.61343 9.5H16.3866ZM3.50153 10.7997C3.7669 10.6645 4.0951 10.5844 4.60612 10.5426C5.12298 10.5004 5.78166 10.5 6.7 10.5H17.3C18.2183 10.5 18.877 10.5004 19.3939 10.5426C19.9049 10.5844 20.2331 10.6645 20.4985 10.7997C21.0159 11.0634 21.4366 11.4841 21.7003 12.0015C21.8355 12.2669 21.9156 12.5951 21.9574 13.1061C21.9996 13.623 22 14.2817 22 15.2V16.8C22 17.7183 21.9996 18.377 21.9574 18.8939C21.9156 19.4049 21.8355 19.7331 21.7003 19.9985C21.4366 20.5159 21.0159 20.9366 20.4985 21.2003C20.2331 21.3355 19.9049 21.4156 19.3939 21.4574C18.877 21.4996 18.2183 21.5 17.3 21.5H6.7C5.78166 21.5 5.12298 21.4996 4.60612 21.4574C4.0951 21.4156 3.7669 21.3355 3.50153 21.2003C2.98408 20.9366 2.56338 20.5159 2.29973 19.9985C2.16452 19.7331 2.08437 19.4049 2.04262 18.8939C2.00039 18.377 2 17.7183 2 16.8V15.2C2 14.2817 2.00039 13.623 2.04262 13.1061C2.08437 12.5951 2.16452 12.2669 2.29973 12.0015C2.56338 11.4841 2.98408 11.0634 3.50153 10.7997Z" fill="#353566"/>
</svg>
