<svg width="24" height="24" viewBox="0 0 24 24" fill="none" xmlns="http://www.w3.org/2000/svg">
<path opacity="0.4" d="M22 8C22 8.92811 21.383 9.85622 20.5 10.2727V11.8902C20.2308 11.6489 19.8772 11.5001 19.5003 11.5001C18.7205 11.5001 18.0041 12.1551 18.0001 12.9435C17.5775 13.0779 17.168 13.2671 16.808 13.5279C15.9963 14.1157 15.5003 15.0179 15.5003 16.0818C15.5003 17.2806 16.2012 18.1814 17.0001 19C16.7001 19 16.0821 19.5043 15.8045 19.871C15.5504 20.2065 15.459 20.6143 15.5171 21L14.5 21V15.7C14.5 15.28 14.5 15.07 14.4183 14.9095C14.3463 14.7684 14.2316 14.6537 14.0905 14.5818C13.9301 14.5 13.72 14.5 13.3 14.5H10.7C10.28 14.5 10.0699 14.5 9.90951 14.5818C9.76839 14.6537 9.65365 14.7684 9.58175 14.9095C9.5 15.07 9.5 15.28 9.5 15.7V21L7.9 21C6.35986 21 5.58978 21 5.00153 20.7003C4.48408 20.4366 4.06338 20.0159 3.79973 19.4985C3.5 18.9102 3.5 18.1402 3.5 16.6V10.2727C2.61705 9.85622 2 8.92811 2 8C2 7.33584 2.08145 6.67419 2.24254 6.02986L2.91786 3.32855C3.11165 2.55341 3.20854 2.16583 3.41202 1.86905C3.64523 1.52891 3.97789 1.26917 4.36444 1.12542C4.70171 1 5.10122 1 5.90022 1H18.0998C18.8988 1 19.2983 1 19.6356 1.12542C20.0221 1.26917 20.3548 1.52891 20.588 1.86905C20.7915 2.16583 20.8884 2.55341 21.0821 3.32855L21.7575 6.02986C21.9185 6.67419 22 7.33584 22 8Z" fill="#353566"/>
<path fill-rule="evenodd" clip-rule="evenodd" d="M5.80337 0.500027C5.09849 0.499715 4.61325 0.4995 4.19016 0.656835C3.70698 0.836522 3.29115 1.16119 2.99964 1.58637C2.74439 1.95866 2.62691 2.42946 2.45625 3.11337L1.75746 5.90865C1.58647 6.59264 1.5 7.29502 1.5 8.00006C1.5 9.01434 2.09912 10.0202 3 10.571L3 16.6221C3 17.3735 2.99999 17.968 3.03913 18.447C3.07912 18.9364 3.16246 19.3492 3.35423 19.7255C3.66582 20.337 4.163 20.8342 4.77453 21.1458C5.15089 21.3376 5.5636 21.4209 6.05309 21.4609C6.53201 21.5001 7.12643 21.5001 7.8777 21.5H9.49392L9.5 21.5001H14.5L14.5061 21.5H15.6859C15.5185 21.1954 15.4621 20.8407 15.5257 20.5H15V15.682C15 15.4875 15 15.3124 14.9881 15.1668C14.9754 15.0108 14.9465 14.845 14.8638 14.6826C14.7439 14.4474 14.5527 14.2562 14.3175 14.1363C14.155 14.0536 13.9893 14.0247 13.8333 14.012C13.6877 14.0001 13.5126 14.0001 13.3181 14.0001H10.682C10.4874 14.0001 10.3123 14.0001 10.1667 14.012C10.0107 14.0247 9.84496 14.0536 9.68251 14.1363C9.44731 14.2562 9.25608 14.4474 9.13624 14.6826C9.05347 14.845 9.02462 15.0108 9.01188 15.1668C8.99998 15.3124 8.99999 15.4875 9 15.6821L9 20.5H7.9C7.12168 20.5 6.56801 20.4997 6.13452 20.4642C5.70687 20.4293 5.44042 20.3628 5.22852 20.2548C4.80516 20.0391 4.46095 19.6949 4.24524 19.2715C4.13727 19.0596 4.07075 18.7932 4.03581 18.3655C4.00039 17.932 4 17.3784 4 16.6V10.9551C4.16237 10.9846 4.32938 11.0001 4.5 11.0001C5.49097 11.0001 6.44339 10.5811 7 9.89117C7.55661 10.5811 8.50903 11.0001 9.5 11.0001C10.491 11.0001 11.4434 10.5811 12 9.89117C12.5566 10.5811 13.509 11.0001 14.5 11.0001C15.491 11.0001 16.4434 10.5811 17 9.89117C17.5566 10.5811 18.509 11.0001 19.5 11.0001C19.6706 11.0001 19.8376 10.9846 20 10.9551V11.5892C20.5609 11.794 20.9839 12.3283 21 12.9443V10.571C21.9009 10.0202 22.5 9.01434 22.5 8.00006C22.5 7.29502 22.4135 6.59264 22.2425 5.90865L21.5437 3.11338C21.3731 2.42947 21.2556 1.95866 21.0004 1.58637C20.7089 1.16119 20.293 0.836522 19.8098 0.656835C19.3868 0.4995 18.9015 0.499715 18.1966 0.500027H5.80337ZM9.5 10.0001C8.28555 10.0001 7.5 9.23013 7.5 8.50006C7.5 8.22391 7.27614 8.00006 7 8.00006C6.72386 8.00006 6.5 8.22391 6.5 8.50006C6.5 9.23013 5.71445 10.0001 4.5 10.0001C3.412 10.0001 2.5 8.99078 2.5 8.00006C2.5 7.37678 2.57644 6.75585 2.72761 6.15118L3.40293 3.44988C3.60672 2.63474 3.68422 2.3563 3.8244 2.15184C3.99931 1.89674 4.24881 1.70194 4.53872 1.59412C4.77107 1.50772 5.05999 1.50006 5.90022 1.50006H18.0998C18.94 1.50006 19.2289 1.50772 19.4613 1.59412C19.7512 1.70194 20.0007 1.89674 20.1756 2.15184C20.3158 2.3563 20.3933 2.63474 20.5971 3.44988L21.2724 6.15118C21.4236 6.75585 21.5 7.37678 21.5 8.00006C21.5 8.99078 20.588 10.0001 19.5 10.0001C18.2855 10.0001 17.5 9.23013 17.5 8.50006C17.5 8.22391 17.2761 8.00006 17 8.00006C16.7239 8.00006 16.5 8.22391 16.5 8.50006C16.5 9.23013 15.7145 10.0001 14.5 10.0001C13.2855 10.0001 12.5 9.23013 12.5 8.50006C12.5 8.22391 12.2761 8.00006 12 8.00006C11.7239 8.00006 11.5 8.22391 11.5 8.50006C11.5 9.23013 10.7145 10.0001 9.5 10.0001ZM14 15.7001V20.5001H10V15.7001C10 15.4818 10.0004 15.3482 10.0086 15.2482C10.0124 15.2016 10.0171 15.1734 10.0212 15.1563C10.0231 15.1482 10.0247 15.1432 10.0257 15.1405L10.0269 15.1374C10.0508 15.0904 10.0895 15.0513 10.1365 15.0273C10.1367 15.0272 10.1378 15.0267 10.1404 15.0257C10.1431 15.0248 10.1481 15.0232 10.1562 15.0213C10.1734 15.0172 10.2015 15.0124 10.2481 15.0086C10.3481 15.0005 10.4817 15.0001 10.7 15.0001H13.3C13.5183 15.0001 13.6519 15.0005 13.7519 15.0086C13.7985 15.0124 13.8266 15.0172 13.8438 15.0213C13.8519 15.0232 13.8569 15.0248 13.8596 15.0257L13.8629 15.027C13.9099 15.051 13.9488 15.0895 13.9728 15.1366L13.9743 15.1405C13.9753 15.1432 13.9769 15.1482 13.9788 15.1563C13.9829 15.1734 13.9876 15.2016 13.9914 15.2482C13.9996 15.3482 14 15.4818 14 15.7001Z" fill="#353566"/>
<path d="M19 13.7749V13C19 12.7239 19.2239 12.5 19.5 12.5C19.7761 12.5 20 12.7239 20 13V13.7708C20.3289 13.801 20.6294 13.8671 20.9344 13.988C21.3749 14.1627 21.794 14.4404 22.3019 14.8249C22.522 14.9916 22.5653 15.3052 22.3987 15.5254C22.232 15.7455 21.9183 15.7889 21.6982 15.6222C21.206 15.2495 20.8752 15.0404 20.5657 14.9176C20.2679 14.7995 19.9604 14.75 19.5 14.75C18.821 14.75 18.3089 14.91 17.9808 15.1476C17.6677 15.3743 17.5 15.6843 17.5 16.0817C17.5 16.573 17.7356 16.8639 18.1193 17.0786C18.5345 17.311 19.0791 17.4229 19.5822 17.5068C20.0791 17.5896 20.7845 17.7214 21.3693 18.0488C21.9856 18.3938 22.5 18.9788 22.5 19.9183C22.5 20.6495 22.1677 21.2554 21.6058 21.6623C21.1725 21.9761 20.6194 22.1616 20 22.2251V23C20 23.2761 19.7761 23.5 19.5 23.5C19.2239 23.5 19 23.2761 19 23V22.2292C18.6711 22.199 18.3706 22.1329 18.0657 22.0119C17.6252 21.8372 17.206 21.5596 16.6982 21.175C16.478 21.0083 16.4347 20.6947 16.6014 20.4746C16.7681 20.2544 17.0817 20.2111 17.3019 20.3778C17.7941 20.7505 18.1249 20.9596 18.4344 21.0824C18.7322 21.2005 19.0396 21.25 19.5 21.25C20.179 21.25 20.6912 21.09 21.0193 20.8524C21.3323 20.6257 21.5 20.3157 21.5 19.9183C21.5 19.427 21.2644 19.1361 20.8808 18.9214C20.4656 18.689 19.921 18.5771 19.4178 18.4932C18.921 18.4104 18.2156 18.2786 17.6308 17.9512C17.0144 17.6062 16.5 17.0212 16.5 16.0817C16.5 15.3505 16.8323 14.7446 17.3942 14.3377C17.8275 14.0239 18.3806 13.8384 19 13.7749Z" fill="#353566"/>
</svg>
