<svg width="24" height="24" viewBox="0 0 24 24" fill="none" xmlns="http://www.w3.org/2000/svg">
<path opacity="0.4" fill-rule="evenodd" clip-rule="evenodd" d="M5.5 9.53052C4.63739 9.28739 4 8.4437 4 7.6C4 7.06884 4.06775 6.53984 4.20161 6.02582L4.81802 3.65879C4.90467 3.32606 4.948 3.15969 5.01239 3.01951C5.25186 2.49819 5.73164 2.12735 6.29648 2.02699C6.44837 2 6.62029 2 6.96412 2H17.0359C17.3797 2 17.5516 2 17.7035 2.02699C18.2684 2.12735 18.7481 2.49819 18.9876 3.01951C19.052 3.15969 19.0953 3.32605 19.182 3.65877L19.7984 6.02582C19.9323 6.53984 20 7.06884 20 7.6C20 8.4437 19.3626 9.28739 18.5 9.53053V14.4C18.5 15.6601 18.5 16.2901 18.2548 16.7714C18.039 17.1948 17.6948 17.539 17.2715 17.7547C16.7902 18 16.1601 18 14.9 18H9.1C7.83988 18 7.20982 18 6.72852 17.7547C6.30516 17.539 5.96095 17.1948 5.74524 16.7714C5.5 16.2901 5.5 15.6601 5.5 14.4V9.53052ZM11.2 13C10.78 13 10.5699 13 10.4095 13.0817C10.2684 13.1537 10.1537 13.2684 10.0817 13.4095C10 13.5699 10 13.78 10 14.2V17.9998H14V14.2C14 13.78 14 13.5699 13.9183 13.4095C13.8463 13.2684 13.7316 13.1537 13.5905 13.0817C13.4301 13 13.22 13 12.8 13H11.2Z" fill="#353566"/>
<path fill-rule="evenodd" clip-rule="evenodd" d="M6.91879 1.50001C6.61883 1.49992 6.40515 1.49986 6.20901 1.53472C5.48279 1.66375 4.86593 2.14055 4.55803 2.81081C4.47488 2.99184 4.42109 3.19863 4.34558 3.48894L3.71775 5.89983C3.57317 6.455 3.5 7.02634 3.5 7.60002C3.5 8.53749 4.11115 9.46469 5 9.87735L5 14.4216C5 15.0333 4.99999 15.5228 5.03232 15.9185C5.0655 16.3246 5.13521 16.6755 5.29973 16.9984C5.56338 17.5159 5.98408 17.9366 6.50153 18.2002C6.82441 18.3647 7.17538 18.4345 7.58149 18.4676C7.9771 18.5 8.46664 18.5 9.07832 18.5H9.98994L10 18.5H11.5V21.5H3C2.72386 21.5 2.5 21.7239 2.5 22C2.5 22.2761 2.72386 22.5 3 22.5H21C21.2761 22.5 21.5 22.2761 21.5 22C21.5 21.7239 21.2761 21.5 21 21.5H12.5V18.5H14L14.0101 18.5H14.9217C15.5334 18.5 16.0229 18.5 16.4185 18.4676C16.8246 18.4345 17.1756 18.3647 17.4985 18.2002C18.0159 17.9366 18.4366 17.5159 18.7003 16.9984C18.8648 16.6755 18.9345 16.3246 18.9677 15.9185C19 15.5229 19 15.0334 19 14.4218V9.87735C19.8889 9.46469 20.5 8.53749 20.5 7.60002C20.5 7.02634 20.4268 6.455 20.2823 5.89983L19.6544 3.48894C19.5789 3.19864 19.5251 2.99184 19.442 2.81081C19.1341 2.14055 18.5172 1.66375 17.791 1.53472C17.5949 1.49986 17.3812 1.49992 17.0812 1.50001H6.91879ZM18 10.1C17.23 10.1 16.4753 9.79094 16 9.26746C15.5247 9.79094 14.77 10.1 14 10.1C13.23 10.1 12.4753 9.79094 12 9.26746C11.5247 9.79094 10.77 10.1 10 10.1C9.22998 10.1 8.47526 9.79094 8 9.26746C7.52474 9.79094 6.77002 10.1 6 10.1L6 14.4C6 15.0383 6.00039 15.4869 6.02899 15.837C6.05712 16.1813 6.11002 16.386 6.19074 16.5444C6.35852 16.8737 6.62623 17.1414 6.95552 17.3092C7.11393 17.3899 7.31865 17.4428 7.66292 17.471C8.01303 17.4996 8.46169 17.5 9.1 17.5H9.5L9.5 14.1822C9.49999 13.9877 9.49998 13.8126 9.51188 13.6669C9.52462 13.5109 9.55347 13.3452 9.63624 13.1828C9.75608 12.9476 9.94731 12.7563 10.1825 12.6365C10.345 12.5537 10.5107 12.5249 10.6667 12.5121C10.8123 12.5002 10.9874 12.5002 11.1819 12.5002H12.818C13.0126 12.5002 13.1877 12.5002 13.3333 12.5121C13.4893 12.5249 13.655 12.5537 13.8175 12.6365C14.0527 12.7563 14.2439 12.9476 14.3638 13.1828C14.4465 13.3452 14.4754 13.5109 14.4881 13.6669C14.5 13.8126 14.5 13.9877 14.5 14.1822V17.5H14.9C15.5383 17.5 15.987 17.4996 16.3371 17.471C16.6814 17.4428 16.8861 17.3899 17.0445 17.3092C17.3738 17.1414 17.6415 16.8737 17.8093 16.5444C17.89 16.386 17.9429 16.1813 17.971 15.837C17.9996 15.4869 18 15.0383 18 14.4V10.1ZM10 9.10002C9.06169 9.10002 8.5 8.50918 8.5 8.00002C8.5 7.72387 8.27614 7.50002 8 7.50002C7.72386 7.50002 7.5 7.72387 7.5 8.00002C7.5 8.50918 6.93831 9.10002 6 9.10002C5.18814 9.10002 4.5 8.34074 4.5 7.60002C4.5 7.11137 4.56233 6.62472 4.68547 6.15184L5.30188 3.78481C5.39352 3.43292 5.42524 3.31859 5.46675 3.22824C5.6378 2.85587 5.9805 2.59098 6.38396 2.51929C6.48186 2.5019 6.60048 2.50002 6.96412 2.50002H17.0359C17.3995 2.50002 17.5181 2.5019 17.616 2.51929C18.0195 2.59098 18.3622 2.85587 18.5333 3.22824C18.5748 3.31859 18.6065 3.43292 18.6981 3.78481L19.3145 6.15184C19.4377 6.62472 19.5 7.11137 19.5 7.60002C19.5 8.34074 18.8119 9.10002 18 9.10002C17.0617 9.10002 16.5 8.50918 16.5 8.00002C16.5 7.72387 16.2761 7.50002 16 7.50002C15.7239 7.50002 15.5 7.72387 15.5 8.00002C15.5 8.50918 14.9383 9.10002 14 9.10002C13.0617 9.10002 12.5 8.50918 12.5 8.00002C12.5 7.72387 12.2761 7.50002 12 7.50002C11.7239 7.50002 11.5 7.72387 11.5 8.00002C11.5 8.50918 10.9383 9.10002 10 9.10002ZM13.5 14.2002V17.5H10.5V14.2002C10.5 13.982 10.5004 13.8483 10.5086 13.7484C10.5124 13.7018 10.5171 13.6736 10.5212 13.6565C10.5231 13.6484 10.5247 13.6433 10.5257 13.6406C10.5266 13.638 10.5271 13.6369 10.5273 13.6367C10.5512 13.5897 10.5895 13.5515 10.6365 13.5275C10.6367 13.5274 10.6378 13.5268 10.6404 13.5259C10.6431 13.5249 10.6481 13.5233 10.6563 13.5214C10.6734 13.5174 10.7015 13.5126 10.7481 13.5088C10.8481 13.5006 10.9817 13.5002 11.2 13.5002H12.8C13.0183 13.5002 13.1519 13.5006 13.2519 13.5088C13.2985 13.5126 13.3266 13.5174 13.3438 13.5214C13.3519 13.5233 13.3569 13.5249 13.3596 13.5259C13.3622 13.5268 13.3633 13.5274 13.3635 13.5275C13.4105 13.5515 13.4488 13.5897 13.4728 13.6367C13.4729 13.6369 13.4734 13.638 13.4743 13.6406C13.4753 13.6433 13.4769 13.6484 13.4788 13.6565C13.4829 13.6736 13.4876 13.7018 13.4914 13.7484C13.4996 13.8483 13.5 13.982 13.5 14.2002Z" fill="#353566"/>
</svg>
