<svg width="24" height="24" viewBox="0 0 24 24" fill="none" xmlns="http://www.w3.org/2000/svg">
<path opacity="0.4" fill-rule="evenodd" clip-rule="evenodd" d="M15.892 17.5781L14.9773 18.4919C13.5906 19.8774 12.8973 20.5701 12.098 20.8294C11.3949 21.0575 10.6377 21.0571 9.93484 20.8284C9.13579 20.5684 8.44308 19.875 7.05765 18.4882L4.50788 15.936C3.12251 14.5493 2.42983 13.856 2.17055 13.0567C1.94248 12.3537 1.94283 11.5965 2.17156 10.8937C2.43158 10.0946 3.1249 9.40194 4.51156 8.01654L9.88675 2.6462C10.4912 2.04231 10.7934 1.74036 11.146 1.52431C11.4586 1.33277 11.7993 1.19152 12.1558 1.10575C12.5578 1.00901 12.985 1.0086 13.8394 1.00779L18.7969 1.00307C19.918 1.00201 20.4785 1.00147 20.9067 1.21931C21.2834 1.41092 21.5897 1.71693 21.7817 2.09343C21.9999 2.52146 21.9999 3.08199 21.9999 4.20304L22 9.15452C22 10.0111 22 10.4394 21.9032 10.8425C21.8173 11.1998 21.6757 11.5413 21.4836 11.8546C21.3492 12.0739 21.1814 12.2737 20.9287 12.5385C20.731 11.9426 20.1502 11.5 19.5003 11.5C18.7205 11.5 18.0041 12.155 18.0001 12.9435C17.5775 13.0779 17.168 13.2671 16.808 13.5278C15.9963 14.1157 15.5003 15.0179 15.5003 16.0817C15.5003 16.6373 15.6509 17.129 15.892 17.5781ZM16.7501 7.99997C15.7836 7.99997 15.0001 7.21647 15.0001 6.24997C15.0001 5.28348 15.7836 4.49997 16.7501 4.49997C17.7166 4.49997 18.5001 5.28348 18.5001 6.24998C18.5001 7.21647 17.7166 7.99997 16.7501 7.99997Z" fill="#353566"/>
<path d="M20.0714 1.52749C19.7627 1.50256 19.3662 1.50254 18.7974 1.50308L13.8399 1.5078C12.9617 1.50863 12.604 1.51218 12.2728 1.59189C11.9672 1.66541 11.6752 1.78647 11.4072 1.95065C11.1167 2.12866 10.8614 2.37924 10.2401 2.99992L4.86495 8.37026C4.16579 9.06879 3.66296 9.57171 3.30009 9.99876C2.94101 10.4213 2.74846 10.7366 2.64701 11.0484C2.45096 11.6508 2.45066 12.2999 2.64615 12.9025C2.74731 13.2143 2.93957 13.5298 3.29826 13.9527C3.66073 14.3801 4.16309 14.8835 4.8616 15.5827L8.41947 19.1439C8.87478 19.5997 9.06388 19.7869 9.23915 19.916C10.2963 20.6944 11.7367 20.695 12.7945 19.9176C12.9699 19.7887 13.1592 19.6017 13.6149 19.1463C13.6203 19.141 13.6257 19.1358 13.6312 19.1307L13.6418 19.1195L13.6466 19.1147L15.6743 17.0888C15.7909 17.4188 15.9599 17.7253 16.162 18.0151L14.3534 19.8221C14.3481 19.8274 14.3427 19.8326 14.3371 19.8376C14.3321 19.8431 14.327 19.8485 14.3217 19.8537L14.2846 19.8908C13.8772 20.2979 13.6312 20.5438 13.3867 20.7234C11.9763 21.76 10.0557 21.7591 8.64621 20.7212C8.40192 20.5413 8.1561 20.2953 7.74907 19.8878L4.13828 16.2735C3.45903 15.5936 2.92759 15.0617 2.53561 14.5995C2.13679 14.1293 1.85307 13.6985 1.69495 13.211C1.4343 12.4076 1.4347 11.5422 1.6961 10.7389C1.85467 10.2517 2.13879 9.82111 2.53805 9.35124C2.93046 8.88942 3.4624 8.35797 4.14228 7.6787L9.58048 2.2454C10.1399 1.68638 10.4813 1.34521 10.8847 1.098C11.242 0.879088 11.6314 0.717667 12.0388 0.61964C12.4988 0.508936 12.9815 0.508527 13.7723 0.507858L18.8178 0.503064C19.3602 0.502543 19.7976 0.502123 20.1519 0.530738C20.5166 0.560199 20.837 0.622872 21.1334 0.773668C21.6043 1.01318 21.9872 1.3957 22.2271 1.86632C22.3782 2.16262 22.4412 2.48294 22.471 2.84763C22.4999 3.20187 22.4999 3.63935 22.4999 4.18176L22.5 9.22133C22.5001 10.0142 22.5001 10.4981 22.3893 10.9592C22.2912 11.3676 22.1294 11.758 21.9099 12.116C21.73 12.4093 21.5005 12.6698 21.1739 13.0046C21.1165 12.9841 21.0586 12.9649 21.0001 12.9473C20.9923 12.6224 20.8713 12.3201 20.6765 12.0767C20.8514 11.8872 20.9643 11.745 21.0574 11.5933C21.2221 11.3247 21.3434 11.032 21.417 10.7257C21.4968 10.3936 21.5 10.0349 21.5 9.15453L21.4999 4.20307C21.4999 3.63427 21.4995 3.23777 21.4743 2.9291C21.4496 2.62626 21.4034 2.4523 21.3363 2.32057C21.1923 2.03819 20.9625 1.80869 20.68 1.66498C20.5482 1.59794 20.3742 1.55196 20.0714 1.52749Z" fill="#353566"/>
<path fill-rule="evenodd" clip-rule="evenodd" d="M14.5001 6.25004C14.5001 5.0074 15.5074 4.00004 16.7501 4.00004C17.9927 4.00004 19.0001 5.0074 19.0001 6.25004C19.0001 7.49268 17.9927 8.50004 16.7501 8.50004C15.5074 8.50004 14.5001 7.49268 14.5001 6.25004ZM16.7501 5.00004C16.0597 5.00004 15.5001 5.55968 15.5001 6.25004C15.5001 6.94039 16.0597 7.50004 16.7501 7.50004C17.4404 7.50004 18.0001 6.94039 18.0001 6.25004C18.0001 5.55968 17.4404 5.00004 16.7501 5.00004Z" fill="#353566"/>
<path d="M7.64647 12.6465C7.84173 12.4512 8.15832 12.4512 8.35358 12.6465L10.3536 14.6465C10.5488 14.8417 10.5488 15.1583 10.3536 15.3536C10.1583 15.5489 9.84173 15.5489 9.64647 15.3536L7.64647 13.3536C7.45121 13.1583 7.45121 12.8417 7.64647 12.6465Z" fill="#353566"/>
<path d="M19 13.7749V13C19 12.7239 19.2239 12.5 19.5 12.5C19.7761 12.5 20 12.7239 20 13V13.7708C20.3289 13.801 20.6294 13.8671 20.9344 13.988C21.3749 14.1627 21.794 14.4404 22.3019 14.8249C22.522 14.9916 22.5653 15.3052 22.3987 15.5254C22.232 15.7455 21.9183 15.7889 21.6982 15.6222C21.206 15.2495 20.8752 15.0404 20.5657 14.9176C20.2679 14.7995 19.9604 14.75 19.5 14.75C18.821 14.75 18.3089 14.91 17.9808 15.1476C17.6677 15.3743 17.5 15.6843 17.5 16.0817C17.5 16.573 17.7356 16.8639 18.1193 17.0786C18.5345 17.311 19.0791 17.4229 19.5822 17.5068C20.0791 17.5896 20.7845 17.7214 21.3693 18.0488C21.9856 18.3938 22.5 18.9788 22.5 19.9183C22.5 20.6495 22.1677 21.2554 21.6058 21.6623C21.1725 21.9761 20.6194 22.1616 20 22.2251V23C20 23.2761 19.7761 23.5 19.5 23.5C19.2239 23.5 19 23.2761 19 23V22.2292C18.6711 22.199 18.3706 22.1329 18.0657 22.0119C17.6252 21.8372 17.206 21.5596 16.6982 21.175C16.478 21.0083 16.4347 20.6947 16.6014 20.4746C16.7681 20.2544 17.0817 20.2111 17.3019 20.3778C17.7941 20.7505 18.1249 20.9596 18.4344 21.0824C18.7322 21.2005 19.0396 21.25 19.5 21.25C20.179 21.25 20.6912 21.09 21.0193 20.8524C21.3323 20.6257 21.5 20.3157 21.5 19.9183C21.5 19.427 21.2644 19.1361 20.8808 18.9214C20.4656 18.689 19.921 18.5771 19.4178 18.4932C18.921 18.4104 18.2156 18.2786 17.6308 17.9512C17.0144 17.6062 16.5 17.0212 16.5 16.0817C16.5 15.3505 16.8323 14.7446 17.3942 14.3377C17.8275 14.0239 18.3806 13.8384 19 13.7749Z" fill="#353566"/>
</svg>
