<svg width="24" height="24" viewBox="0 0 24 24" fill="none" xmlns="http://www.w3.org/2000/svg">
<g clip-path="url(#clip0_9001_291487)">
<path opacity="0.4" fill-rule="evenodd" clip-rule="evenodd" d="M12.9612 19.4954C12.5634 19.4164 12.1826 19.2872 11.9011 18.9841C11.3372 18.3772 11.3721 17.4281 11.9791 16.8643C13.551 15.4038 15.659 14.5068 17.9728 14.5L19.358 13.1161C19.964 12.5107 20.267 12.208 20.4836 11.8546C20.6757 11.5413 20.8173 11.1998 20.9032 10.8425C21 10.4394 21 10.0111 21 9.15452L20.9999 4.20305C20.9999 3.082 20.9999 2.52146 20.7817 2.09343C20.5897 1.71693 20.2834 1.41092 19.9067 1.21931C19.4785 1.00147 18.918 1.00201 17.7969 1.00307L12.8394 1.00779C11.985 1.0086 11.5578 1.00901 11.1558 1.10575C10.7993 1.19152 10.4586 1.33277 10.146 1.52431C9.79341 1.74036 9.49119 2.04231 8.88675 2.6462L3.51156 8.01654C2.1249 9.40194 1.43158 10.0946 1.17156 10.8937C0.942833 11.5965 0.942482 12.3537 1.17055 13.0567C1.42983 13.856 2.12251 14.5493 3.50788 15.936L6.05765 18.4882C7.44308 19.875 8.13579 20.5684 8.93484 20.8284C9.63769 21.0571 10.3949 21.0575 11.098 20.8294C11.6743 20.6425 12.1955 20.2302 12.9612 19.4954ZM15.7501 7.99997C14.7836 7.99997 14.0001 7.21647 14.0001 6.24997C14.0001 5.28348 14.7836 4.49997 15.7501 4.49997C16.7166 4.49997 17.5001 5.28348 17.5001 6.24998C17.5001 7.21647 16.7166 7.99997 15.7501 7.99997Z" fill="#353566"/>
<path d="M19.0714 1.52749C18.7627 1.50256 18.3662 1.50254 17.7974 1.50308L12.8399 1.5078C11.9617 1.50863 11.604 1.51218 11.2728 1.59189C10.9672 1.66541 10.6752 1.78647 10.4072 1.95065C10.1167 2.12866 9.86138 2.37924 9.24014 2.99992L3.86495 8.37026C3.16579 9.06879 2.66296 9.57171 2.30009 9.99876C1.94101 10.4213 1.74846 10.7366 1.64701 11.0484C1.45096 11.6508 1.45066 12.2999 1.64615 12.9025C1.74731 13.2143 1.93957 13.5298 2.29826 13.9527C2.66073 14.3801 3.16309 14.8835 3.8616 15.5827L7.41947 19.1439C7.87478 19.5997 8.06388 19.7869 8.23915 19.916C9.29626 20.6944 10.7367 20.695 11.7945 19.9176C11.9428 19.8086 12.1011 19.658 12.422 19.3387C12.7334 19.4698 13.0855 19.5217 13.4267 19.5719L13.4282 19.5722C13.4793 19.5797 13.5303 19.5872 13.5808 19.5949L13.3534 19.8221C13.3481 19.8274 13.3427 19.8326 13.3371 19.8376C13.3321 19.8431 13.327 19.8485 13.3217 19.8537L13.2846 19.8908C12.8772 20.2979 12.6312 20.5438 12.3867 20.7234C10.9763 21.76 9.0557 21.7591 7.64621 20.7212C7.40192 20.5413 7.1561 20.2953 6.74907 19.8878L3.13828 16.2735C2.45903 15.5936 1.92759 15.0617 1.53561 14.5995C1.13679 14.1293 0.853068 13.6985 0.69495 13.211C0.434299 12.4076 0.434701 11.5422 0.696098 10.7389C0.854669 10.2517 1.13879 9.82111 1.53805 9.35124C1.93046 8.88942 2.4624 8.35797 3.14228 7.6787L8.58048 2.2454C9.13989 1.68638 9.4813 1.34521 9.88475 1.098C10.242 0.879088 10.6314 0.717667 11.0388 0.61964C11.4988 0.508936 11.9815 0.508527 12.7723 0.507858L17.8178 0.503064C18.3602 0.502543 18.7976 0.502123 19.1519 0.530738C19.5166 0.560199 19.837 0.622872 20.1334 0.773668C20.6043 1.01318 20.9872 1.3957 21.2271 1.86632C21.3782 2.16262 21.4412 2.48294 21.471 2.84763C21.4999 3.20187 21.4999 3.63935 21.4999 4.18176L21.5 9.22133C21.5001 10.0142 21.5001 10.4981 21.3893 10.9592C21.2912 11.3676 21.1294 11.758 20.9099 12.116C20.6619 12.5203 20.3196 12.8623 19.7587 13.4226L18.6562 14.524C18.4393 14.5081 18.2203 14.5 17.9993 14.5C17.7411 14.5 17.4853 14.5111 17.2326 14.5328L19.0046 12.7624C19.6274 12.1402 19.8789 11.8844 20.0574 11.5933C20.2221 11.3247 20.3434 11.032 20.417 10.7257C20.4968 10.3936 20.5 10.0349 20.5 9.15453L20.4999 4.20307C20.4999 3.63427 20.4995 3.23777 20.4743 2.9291C20.4496 2.62626 20.4034 2.4523 20.3363 2.32057C20.1923 2.03819 19.9625 1.80869 19.68 1.66498C19.5482 1.59794 19.3742 1.55196 19.0714 1.52749Z" fill="#353566"/>
<path fill-rule="evenodd" clip-rule="evenodd" d="M13.5001 6.25004C13.5001 5.0074 14.5074 4.00004 15.7501 4.00004C16.9927 4.00004 18.0001 5.0074 18.0001 6.25004C18.0001 7.49268 16.9927 8.50004 15.7501 8.50004C14.5074 8.50004 13.5001 7.49268 13.5001 6.25004ZM15.7501 5.00004C15.0597 5.00004 14.5001 5.55968 14.5001 6.25004C14.5001 6.94039 15.0597 7.50004 15.7501 7.50004C16.4404 7.50004 17.0001 6.94039 17.0001 6.25004C17.0001 5.55968 16.4404 5.00004 15.7501 5.00004Z" fill="#353566"/>
<path d="M6.64647 12.6465C6.84173 12.4512 7.15832 12.4512 7.35358 12.6465L9.35358 14.6465C9.54884 14.8417 9.54884 15.1583 9.35358 15.3536C9.15831 15.5489 8.84173 15.5489 8.64647 15.3536L6.64647 13.3536C6.45121 13.1583 6.45121 12.8417 6.64647 12.6465Z" fill="#353566"/>
<path d="M13.3403 18.3295C14.5628 17.1938 16.1995 16.5 17.9993 16.5C19.7998 16.5 21.437 17.1943 22.6596 18.3307C22.8619 18.5187 23.1782 18.5071 23.3662 18.3049C23.5542 18.1026 23.5427 17.7862 23.3404 17.5982C21.9401 16.2967 20.0622 15.5 17.9993 15.5C15.9372 15.5 14.0598 16.2961 12.6597 17.5969C12.4574 17.7849 12.4457 18.1012 12.6337 18.3035C12.8216 18.5058 13.138 18.5175 13.3403 18.3295Z" fill="#353566"/>
<path d="M18.0032 19.833C17.1459 19.833 16.3645 20.1947 15.7897 20.7911C15.5981 20.9899 15.2815 20.9958 15.0827 20.8041C14.8839 20.6125 14.878 20.296 15.0697 20.0971C15.8194 19.3192 16.8553 18.833 18.0032 18.833C19.1511 18.833 20.187 19.3192 20.9368 20.0971C21.1284 20.296 21.1225 20.6125 20.9237 20.8041C20.7249 20.9958 20.4084 20.9899 20.2167 20.7911C19.6419 20.1947 18.8605 19.833 18.0032 19.833Z" fill="#353566"/>
<path d="M18 21.625C17.5168 21.625 17.125 22.0168 17.125 22.5C17.125 22.9832 17.5168 23.375 18 23.375C18.4832 23.375 18.8751 22.9832 18.8751 22.5C18.8751 22.0168 18.4832 21.625 18 21.625Z" fill="#353566"/>
</g>
<defs>
<clipPath id="clip0_9001_291487">
<rect width="24" height="24" fill="white"/>
</clipPath>
</defs>
</svg>
