<svg width="24" height="24" viewBox="0 0 24 24" fill="none" xmlns="http://www.w3.org/2000/svg">
<g clip-path="url(#clip0_9001_291392)">
<path opacity="0.4" fill-rule="evenodd" clip-rule="evenodd" d="M11.9478 20.3757C11.6588 19.6398 11.5 18.8384 11.5 18C11.5 14.4101 14.4101 11.5 18 11.5C18.8528 11.5 19.6673 11.6642 20.4135 11.9628C20.438 11.927 20.4613 11.8911 20.4836 11.8546C20.6757 11.5413 20.8173 11.1998 20.9032 10.8425C21 10.4394 21 10.0111 21 9.15452L20.9999 4.20305C20.9999 3.082 20.9999 2.52146 20.7817 2.09343C20.5897 1.71693 20.2834 1.41092 19.9067 1.21931C19.4785 1.00147 18.918 1.00201 17.7969 1.00307L12.8394 1.00779C11.985 1.0086 11.5578 1.00901 11.1558 1.10575C10.7993 1.19152 10.4586 1.33277 10.146 1.52431C9.79341 1.74036 9.49119 2.04231 8.88675 2.6462L3.51156 8.01654C2.1249 9.40194 1.43158 10.0946 1.17156 10.8937C0.942833 11.5965 0.942482 12.3537 1.17055 13.0567C1.42983 13.856 2.12251 14.5493 3.50788 15.936L6.05765 18.4882C7.44308 19.875 8.13579 20.5684 8.93484 20.8284C9.63769 21.0571 10.3949 21.0575 11.098 20.8294C11.3827 20.7371 11.6539 20.5897 11.9478 20.3757ZM15.7501 7.99997C14.7836 7.99997 14.0001 7.21647 14.0001 6.24997C14.0001 5.28348 14.7836 4.49997 15.7501 4.49997C16.7166 4.49997 17.5001 5.28348 17.5001 6.24998C17.5001 7.21647 16.7166 7.99997 15.7501 7.99997Z" fill="#353566"/>
<path d="M17.7974 1.50308C18.3662 1.50254 18.7627 1.50256 19.0714 1.52749C19.3742 1.55196 19.5482 1.59794 19.68 1.66498C19.9625 1.80869 20.1923 2.03819 20.3363 2.32057C20.4034 2.4523 20.4496 2.62626 20.4743 2.9291C20.4995 3.23777 20.4999 3.63427 20.4999 4.20307L20.5 9.15453C20.5 10.0349 20.4968 10.3936 20.417 10.7257C20.3434 11.032 20.2221 11.3247 20.0574 11.5933C20.0172 11.6588 19.9734 11.7225 19.9224 11.789C20.2524 11.891 20.5711 12.0186 20.8763 12.1694C20.8877 12.1517 20.8989 12.1339 20.9099 12.116C21.1294 11.758 21.2912 11.3676 21.3893 10.9592C21.5001 10.4981 21.5001 10.0142 21.5 9.22133L21.4999 4.18176C21.4999 3.63935 21.4999 3.20187 21.471 2.84763C21.4412 2.48294 21.3782 2.16262 21.2271 1.86632C20.9872 1.3957 20.6043 1.01318 20.1334 0.773668C19.837 0.622872 19.5166 0.560199 19.1519 0.530738C18.7976 0.502123 18.3602 0.502543 17.8178 0.503064L12.7723 0.507858C11.9815 0.508527 11.4988 0.508936 11.0388 0.61964C10.6314 0.717667 10.242 0.879088 9.88475 1.098C9.4813 1.34521 9.13992 1.68635 8.58051 2.24538L3.14228 7.6787C2.4624 8.35797 1.93046 8.88942 1.53805 9.35124C1.13879 9.82111 0.854669 10.2517 0.696098 10.7389C0.434701 11.5422 0.434299 12.4076 0.69495 13.211C0.853068 13.6985 1.13679 14.1293 1.53561 14.5995C1.92759 15.0617 2.45903 15.5936 3.13828 16.2735L6.74907 19.8878C7.1561 20.2953 7.40191 20.5413 7.64621 20.7212C8.9841 21.7064 10.7825 21.7572 12.168 20.8733C12.0177 20.5689 11.8905 20.2509 11.7888 19.9218C10.7315 20.695 9.29435 20.693 8.23915 19.916C8.06388 19.7869 7.87478 19.5997 7.41947 19.1439L3.8616 15.5827C3.16309 14.8835 2.66073 14.3801 2.29826 13.9527C1.93957 13.5298 1.74731 13.2143 1.64615 12.9025C1.45066 12.2999 1.45096 11.6508 1.64701 11.0484C1.74846 10.7366 1.94101 10.4213 2.30009 9.99876C2.66296 9.57171 3.16579 9.06879 3.86495 8.37026L9.24014 2.99992C9.86138 2.37924 10.1167 2.12866 10.4072 1.95065C10.6752 1.78647 10.9672 1.66541 11.2728 1.59189C11.604 1.51218 11.9617 1.50863 12.8399 1.5078L17.7974 1.50308Z" fill="#353566"/>
<path fill-rule="evenodd" clip-rule="evenodd" d="M15.7501 4.00004C14.5074 4.00004 13.5001 5.0074 13.5001 6.25004C13.5001 7.49268 14.5074 8.50004 15.7501 8.50004C16.9927 8.50004 18.0001 7.49268 18.0001 6.25004C18.0001 5.0074 16.9927 4.00004 15.7501 4.00004ZM14.5001 6.25004C14.5001 5.55968 15.0597 5.00004 15.7501 5.00004C16.4404 5.00004 17.0001 5.55968 17.0001 6.25004C17.0001 6.94039 16.4404 7.50004 15.7501 7.50004C15.0597 7.50004 14.5001 6.94039 14.5001 6.25004Z" fill="#353566"/>
<path d="M7.35358 12.6465C7.15832 12.4512 6.84173 12.4512 6.64647 12.6465C6.45121 12.8417 6.45121 13.1583 6.64647 13.3536L8.64647 15.3536C8.84173 15.5489 9.15831 15.5489 9.35358 15.3536C9.54884 15.1583 9.54884 14.8417 9.35358 14.6465L7.35358 12.6465Z" fill="#353566"/>
<path d="M20 18.5C20.2761 18.5 20.5 18.2761 20.5 18C20.5 17.7239 20.2761 17.5 20 17.5H16C15.7239 17.5 15.5 17.7239 15.5 18C15.5 18.2761 15.7239 18.5 16 18.5H20Z" fill="#353566"/>
<path fill-rule="evenodd" clip-rule="evenodd" d="M12.5 18C12.5 14.9624 14.9624 12.5 18 12.5C21.0376 12.5 23.5 14.9624 23.5 18C23.5 21.0376 21.0376 23.5 18 23.5C14.9624 23.5 12.5 21.0376 12.5 18ZM18 13.5C15.5147 13.5 13.5 15.5147 13.5 18C13.5 20.4853 15.5147 22.5 18 22.5C20.4853 22.5 22.5 20.4853 22.5 18C22.5 15.5147 20.4853 13.5 18 13.5Z" fill="#353566"/>
</g>
<defs>
<clipPath id="clip0_9001_291392">
<rect width="24" height="24" fill="white"/>
</clipPath>
</defs>
</svg>
