<svg width="24" height="24" viewBox="0 0 24 24" fill="none" xmlns="http://www.w3.org/2000/svg">
<path opacity="0.4" d="M1.38148 4.91103C1 5.65972 1 6.63982 1 8.6V8.76121C2.40163 8.88752 3.5 10.0655 3.5 11.5C3.5 12.9345 2.40163 14.1125 1 14.2388V14.4C1 16.3602 1 17.3403 1.38148 18.089C1.71703 18.7475 2.25247 19.283 2.91103 19.6185C3.65972 20 4.63982 20 6.6 20H15.2275C14.9258 19.8965 14.6056 19.7334 14.3888 19.5245C13.8841 19.0381 13.7816 18.5 13.7816 17.628C13.6662 17.6073 13.5471 17.5897 13.4267 17.572C12.8735 17.4904 12.2918 17.4047 11.9011 16.9842C11.3372 16.3772 11.3721 15.4281 11.9791 14.8643C13.557 13.3983 15.6751 12.5 17.9993 12.5C18.6033 12.5 19.1933 12.5606 19.7635 12.6761C19.5945 12.3196 19.5 11.9208 19.5 11.5C19.5 10.0655 20.5984 8.88752 22 8.76121V8.6C22 6.63982 22 5.65972 21.6185 4.91103C21.283 4.25247 20.7475 3.71703 20.089 3.38148C19.3403 3 18.3602 3 16.4 3H6.6C4.63982 3 3.65972 3 2.91103 3.38148C2.25247 3.71703 1.71703 4.25247 1.38148 4.91103Z" fill="#353566"/>
<path d="M6.57755 2.5C5.61647 2.5 4.86451 2.49999 4.26049 2.54935C3.64594 2.59956 3.14062 2.70334 2.68404 2.93597C1.93139 3.31947 1.31947 3.93139 0.935974 4.68404C0.703335 5.14062 0.599556 5.64594 0.549345 6.26049C0.499995 6.86451 0.499997 7.61646 0.5 8.57755V8.76121C0.5 9.01996 0.697416 9.23597 0.955125 9.25919C2.10138 9.36249 3 10.3266 3 11.5C3 12.6734 2.10138 13.6375 0.955124 13.7408C0.697416 13.764 0.5 13.98 0.5 14.2388V14.4224C0.499997 15.3835 0.499995 16.1355 0.549345 16.7395C0.599556 17.3541 0.703335 17.8594 0.935974 18.316C1.31947 19.0686 1.93139 19.6805 2.68404 20.064C3.14062 20.2967 3.64594 20.4004 4.26049 20.4507C4.86451 20.5 5.61646 20.5 6.57754 20.5H15.8877C15.863 20.3679 15.8507 20.2419 15.8507 20.1268C15.5 20.1268 14.7779 19.8995 14.3888 19.5245L14.3638 19.5H9V16.5C9 16.2239 8.77614 16 8.5 16C8.22386 16 8 16.2239 8 16.5V19.5H6.6C5.61166 19.5 4.90047 19.4996 4.34192 19.454C3.78921 19.4088 3.43014 19.3219 3.13803 19.173C2.57354 18.8854 2.1146 18.4265 1.82698 17.862C1.67814 17.5699 1.59118 17.2108 1.54602 16.6581C1.50454 16.1503 1.50045 15.5165 1.50004 14.6629C2.93355 14.3242 4 13.0369 4 11.5C4 9.96313 2.93355 8.67582 1.50004 8.33707C1.50045 7.48353 1.50454 6.84966 1.54602 6.34192C1.59118 5.78921 1.67814 5.43014 1.82698 5.13803C2.1146 4.57354 2.57354 4.1146 3.13803 3.82698C3.43014 3.67814 3.78921 3.59118 4.34192 3.54602C4.90047 3.50039 5.61166 3.5 6.6 3.5H8V6.5C8 6.77614 8.22386 7 8.5 7C8.77614 7 9 6.77614 9 6.5V3.5H16.4C17.3883 3.5 18.0995 3.50039 18.6581 3.54602C19.2108 3.59118 19.5699 3.67814 19.862 3.82698C20.4265 4.1146 20.8854 4.57354 21.173 5.13803C21.3219 5.43014 21.4088 5.78921 21.454 6.34192C21.4955 6.84966 21.4996 7.48353 21.5 8.33707C20.0665 8.67582 19 9.96313 19 11.5C19 11.8781 19.0646 12.2412 19.1833 12.5787C19.6141 12.6364 20.0352 12.7251 20.4443 12.8425C20.1652 12.4677 20 12.0031 20 11.5C20 10.3266 20.8986 9.36249 22.0449 9.25919C22.3026 9.23597 22.5 9.01996 22.5 8.76121V8.57754C22.5 7.61646 22.5 6.86451 22.4507 6.26049C22.4004 5.64594 22.2967 5.14062 22.064 4.68404C21.6805 3.93139 21.0686 3.31947 20.316 2.93597C19.8594 2.70334 19.3541 2.59956 18.7395 2.54935C18.1355 2.49999 17.3835 2.5 16.4225 2.5H6.57755Z" fill="#353566"/>
<path d="M9 10C9 9.72386 8.77614 9.5 8.5 9.5C8.22386 9.5 8 9.72386 8 10V13C8 13.2761 8.22386 13.5 8.5 13.5C8.77614 13.5 9 13.2761 9 13V10Z" fill="#353566"/>
<path d="M13.3403 16.3295C14.5628 15.1938 16.1995 14.5 17.9993 14.5C19.7998 14.5 21.437 15.1943 22.6596 16.3307C22.8619 16.5187 23.1782 16.5071 23.3662 16.3049C23.5542 16.1026 23.5427 15.7862 23.3404 15.5982C21.9401 14.2967 20.0622 13.5 17.9993 13.5C15.9372 13.5 14.0598 14.2961 12.6597 15.5969C12.4574 15.7849 12.4457 16.1012 12.6337 16.3035C12.8216 16.5058 13.138 16.5175 13.3403 16.3295Z" fill="#353566"/>
<path d="M18.0032 17.833C17.1459 17.833 16.3645 18.1947 15.7897 18.7911C15.5981 18.9899 15.2815 18.9958 15.0827 18.8041C14.8839 18.6125 14.878 18.296 15.0697 18.0971C15.8194 17.3192 16.8553 16.833 18.0032 16.833C19.1511 16.833 20.187 17.3192 20.9368 18.0971C21.1284 18.296 21.1225 18.6125 20.9237 18.8041C20.7249 18.9958 20.4084 18.9899 20.2167 18.7911C19.6419 18.1947 18.8605 17.833 18.0032 17.833Z" fill="#353566"/>
<path d="M18 19.625C17.5168 19.625 17.125 20.0168 17.125 20.5C17.125 20.9832 17.5168 21.375 18 21.375C18.4832 21.375 18.8751 20.9832 18.8751 20.5C18.8751 20.0168 18.4832 19.625 18 19.625Z" fill="#353566"/>
</svg>
