<svg width="24" height="24" viewBox="0 0 24 24" fill="none" xmlns="http://www.w3.org/2000/svg">
<path opacity="0.4" d="M1.38148 4.91103C1 5.65972 1 6.63982 1 8.6V8.76121C2.40163 8.88752 3.5 10.0655 3.5 11.5C3.5 12.9345 2.40163 14.1125 1 14.2388V14.4C1 16.3602 1 17.3403 1.38148 18.089C1.71703 18.7475 2.25247 19.283 2.91103 19.6185C3.65972 20 4.63982 20 6.6 20H14.2871C13.6159 19.3453 12.9563 18.6435 12.5148 18.0308C11.1751 16.1716 11.2114 13.7328 12.3313 12.2153C13.3753 10.8007 14.9692 10.2961 16.3011 10.5726C16.9068 10.6995 17.4902 10.929 18 11.2828C18.4751 10.9531 19.0172 10.7212 19.6571 10.5815C20.0085 9.58951 20.9131 8.85916 22 8.76121V8.6C22 6.63982 22 5.65972 21.6185 4.91103C21.283 4.25247 20.7475 3.71703 20.089 3.38148C19.3403 3 18.3602 3 16.4 3H6.6C4.63982 3 3.65972 3 2.91103 3.38148C2.25247 3.71703 1.71703 4.25247 1.38148 4.91103Z" fill="#353566"/>
<path d="M6.57755 2.5C5.61647 2.5 4.86451 2.49999 4.26049 2.54935C3.64594 2.59956 3.14062 2.70334 2.68404 2.93597C1.93139 3.31947 1.31947 3.93139 0.935974 4.68404C0.703335 5.14062 0.599556 5.64594 0.549345 6.26049C0.499995 6.86451 0.499997 7.61646 0.5 8.57755V8.76121C0.5 9.01996 0.697416 9.23597 0.955125 9.25919C2.10138 9.36249 3 10.3266 3 11.5C3 12.6734 2.10138 13.6375 0.955124 13.7408C0.697416 13.764 0.5 13.98 0.5 14.2388V14.4224C0.499997 15.3835 0.499995 16.1355 0.549345 16.7395C0.599556 17.3541 0.703335 17.8594 0.935974 18.316C1.31947 19.0686 1.93139 19.6805 2.68404 20.064C3.14062 20.2967 3.64594 20.4004 4.26049 20.4507C4.86451 20.5 5.61646 20.5 6.57754 20.5H14.8108C14.4713 20.1822 14.1208 19.8428 13.7869 19.5H9V16.5C9 16.2239 8.77614 16 8.5 16C8.22386 16 8 16.2239 8 16.5V19.5H6.6C5.61166 19.5 4.90047 19.4996 4.34192 19.454C3.78921 19.4088 3.43014 19.3219 3.13803 19.173C2.57354 18.8854 2.1146 18.4265 1.82698 17.862C1.67814 17.5699 1.59118 17.2108 1.54602 16.6581C1.50454 16.1503 1.50045 15.5165 1.50004 14.6629C2.93355 14.3242 4 13.0369 4 11.5C4 9.96313 2.93355 8.67582 1.50004 8.33707C1.50045 7.48353 1.50454 6.84966 1.54602 6.34192C1.59118 5.78921 1.67814 5.43014 1.82698 5.13803C2.1146 4.57354 2.57354 4.1146 3.13803 3.82698C3.43014 3.67814 3.78921 3.59118 4.34192 3.54602C4.90047 3.50039 5.61166 3.5 6.6 3.5H8V6.5C8 6.77614 8.22386 7 8.5 7C8.77614 7 9 6.77614 9 6.5V3.5H16.4C17.3883 3.5 18.0995 3.50039 18.6581 3.54602C19.2108 3.59118 19.5699 3.67814 19.862 3.82698C20.4265 4.1146 20.8854 4.57354 21.173 5.13803C21.3219 5.43014 21.4088 5.78921 21.454 6.34192C21.4955 6.84966 21.4996 7.48353 21.5 8.33707C20.3112 8.61797 19.3749 9.55113 19.0898 10.738C19.281 10.6732 19.4817 10.6185 19.693 10.5738C19.8727 10.5361 20.0527 10.5131 20.232 10.5039C20.5707 9.8189 21.248 9.33101 22.0449 9.25919C22.3026 9.23597 22.5 9.01996 22.5 8.76121V8.57754C22.5 7.61646 22.5 6.86451 22.4507 6.26049C22.4004 5.64594 22.2967 5.14062 22.064 4.68404C21.6805 3.93139 21.0686 3.31947 20.316 2.93597C19.8594 2.70334 19.3541 2.59956 18.7395 2.54935C18.1355 2.49999 17.3835 2.5 16.4225 2.5H6.57755Z" fill="#353566"/>
<path d="M9 10C9 9.72386 8.77614 9.5 8.5 9.5C8.22386 9.5 8 9.72386 8 10V13C8 13.2761 8.22386 13.5 8.5 13.5C8.77614 13.5 9 13.2761 9 13V10Z" fill="#353566"/>
<path fill-rule="evenodd" clip-rule="evenodd" d="M22.8641 12.8092C22.0491 11.7049 20.847 11.3556 19.9021 11.5517L19.9002 11.5521C19.166 11.7076 18.5143 12.0554 18 12.6007C17.4857 12.0554 16.8341 11.7076 16.0999 11.5521L16.0979 11.5517C15.153 11.3556 13.951 11.7049 13.136 12.8092C12.2957 13.9478 12.2186 15.9092 13.3262 17.4463C14.098 18.5175 15.6666 19.9544 16.6741 20.8349C16.6931 20.8516 16.712 20.8682 16.7307 20.8846C17.0093 21.129 17.2574 21.3465 17.5751 21.4404C17.8441 21.5199 18.1559 21.5199 18.425 21.4404C18.7426 21.3465 18.9907 21.129 19.2692 20.8846C19.288 20.8682 19.3069 20.8516 19.326 20.8349C20.3335 19.9543 21.902 18.5175 22.6739 17.4463C23.7815 15.9092 23.7044 13.9477 22.8641 12.8092ZM20.1063 12.5307C20.6641 12.4153 21.4738 12.6095 22.0595 13.403C22.6202 14.1627 22.738 15.6467 21.8626 16.8617C21.1685 17.8248 19.6891 19.1894 18.6679 20.082C18.2983 20.4051 18.2221 20.4576 18.1415 20.4814C18.0575 20.5063 17.9426 20.5063 17.8585 20.4814C17.7779 20.4576 17.7018 20.4051 17.3322 20.082C16.3109 19.1894 14.8315 17.8248 14.1375 16.8617C13.262 15.6467 13.3799 14.1627 13.9406 13.403C14.5262 12.6095 15.336 12.4153 15.8938 12.5307C16.6317 12.6871 17.1513 13.0935 17.6039 13.6812C17.6985 13.8041 17.8449 13.8761 18 13.8761C18.1552 13.8761 18.3015 13.8041 18.3962 13.6812C18.8487 13.0935 19.3684 12.6871 20.1063 12.5307Z" fill="#353566"/>
</svg>
