<svg width="24" height="24" viewBox="0 0 24 24" fill="none" xmlns="http://www.w3.org/2000/svg">
<path opacity="0.4" d="M12.6727 21.0002C12.0123 20.6537 11.5 20.158 11.5 19.249C11.5 17.9466 12.5542 17.4938 13.586 17.111C14.063 16.935 14.436 16.563 14.61 16.088C14.9934 15.0559 15.4458 14 16.749 14C17.095 14 17.412 14.104 17.697 14.263C17.881 13.905 18.178 13.61 18.57 13.466C18.6166 13.4488 18.6726 13.4327 18.7326 13.4156C18.8191 13.3908 18.9137 13.3637 19 13.3273V7.9C19 7.05992 19 6.63987 18.8365 6.319C18.6927 6.03676 18.4632 5.80729 18.181 5.66348C17.8601 5.49999 17.4401 5.49999 16.6 5.5L3.39998 5.50011C2.55991 5.50012 2.13987 5.50013 1.81901 5.66362C1.53677 5.80743 1.3073 6.0369 1.16349 6.31914C1 6.64001 1 7.06004 1 7.90012V15.4001C1 17.3603 1 18.3404 1.38148 19.0891C1.71703 19.7477 2.25247 20.2831 2.91103 20.6187C3.65972 21.0002 4.63982 21.0002 6.6 21.0002H12.6727Z" fill="#353566"/>
<path fill-rule="evenodd" clip-rule="evenodd" d="M10 0.5C7.51472 0.5 5.5 2.51472 5.5 5L3.37932 5.00012C2.97684 5.00012 2.64466 5.00012 2.37407 5.02223C2.09302 5.04519 1.83467 5.09448 1.59201 5.21812C1.21569 5.40987 0.90973 5.71583 0.717985 6.09215C0.594341 6.33482 0.54506 6.59317 0.522097 6.87422C0.499989 7.14481 0.499994 7.47699 0.5 7.87947V15.4226C0.499998 16.3837 0.499996 17.1356 0.549346 17.7397C0.599557 18.3542 0.703336 18.8595 0.935975 19.3161C1.31947 20.0688 1.93139 20.6807 2.68404 21.0642C3.14062 21.2968 3.64594 21.4006 4.26049 21.4508C4.86451 21.5002 5.61646 21.5002 6.57754 21.5002H13.4225C13.5628 21.5002 13.6987 21.5002 13.8304 21.5C13.7531 21.4571 13.6722 21.4199 13.588 21.389C12.9887 21.1672 12.3824 20.9216 11.9787 20.5002H6.6C5.61166 20.5002 4.90047 20.4998 4.34192 20.4541C3.78921 20.409 3.43014 20.322 3.13803 20.1732C2.57354 19.8856 2.1146 19.4266 1.82698 18.8621C1.67814 18.57 1.59118 18.2109 1.54602 17.6582C1.50039 17.0997 1.5 16.3885 1.5 15.4002V7.90012C1.5 7.47184 1.50039 7.18069 1.51878 6.95565C1.53669 6.73644 1.56915 6.62434 1.60899 6.54614C1.70487 6.35798 1.85784 6.205 2.046 6.10913C2.1242 6.06928 2.2363 6.03682 2.45551 6.01891C2.68055 6.00052 2.97169 6.00013 3.39997 6.00012L16.6 6.00001C17.0283 6 17.3194 6.00039 17.5445 6.01878C17.7637 6.03668 17.8758 6.06915 17.954 6.10899C18.1421 6.20486 18.2951 6.35784 18.391 6.54601C18.4309 6.62421 18.4633 6.73631 18.4812 6.95552C18.4996 7.18057 18.5 7.47171 18.5 7.90001V13.4937C18.523 13.4839 18.5463 13.4747 18.57 13.466C18.6166 13.4488 18.6726 13.4327 18.7326 13.4156C18.9427 13.3554 19.201 13.2815 19.271 13.094C19.3394 12.9097 19.414 12.7271 19.5 12.5549V7.87935C19.5 7.47689 19.5 7.14467 19.4779 6.87409C19.4549 6.59304 19.4057 6.33468 19.282 6.09201C19.0903 5.71569 18.7843 5.40973 18.408 5.21798C18.1653 5.09434 17.9069 5.04506 17.6259 5.0221C17.3553 4.99999 17.0231 5 16.6206 5.00001L14.5 5.00003C14.5 2.51474 12.4853 0.5 10 0.5ZM13.5 5.00003L6.5 5.0001C6.5 3.0671 8.067 1.5 10 1.5C11.933 1.5 13.5 3.06704 13.5 5.00003Z" fill="#353566"/>
<path d="M5.25 9.5C5.25 9.08579 5.58579 8.75 6 8.75C6.41421 8.75 6.7501 9.08579 6.7501 9.5C6.7501 9.91421 6.41431 10.25 6.0001 10.25C5.58589 10.25 5.25 9.91421 5.25 9.5Z" fill="#353566"/>
<path d="M14 8.75C13.5858 8.75 13.25 9.08579 13.25 9.5C13.25 9.91421 13.5858 10.25 14 10.25C14.4142 10.25 14.7501 9.91421 14.7501 9.5C14.7501 9.08579 14.4142 8.75 14 8.75Z" fill="#353566"/>
<path fill-rule="evenodd" clip-rule="evenodd" d="M15.8479 15.6281C16.1578 14.7906 17.3422 14.7906 17.6521 15.6281L17.9505 16.4345C18.2274 17.1827 18.8173 17.7726 19.5655 18.0495L20.3719 18.3479C21.2094 18.6578 21.2094 19.8422 20.3719 20.1521L19.5655 20.4505C18.8173 20.7274 18.2274 21.3173 17.9505 22.0655L17.6521 22.8719C17.3422 23.7094 16.1578 23.7094 15.8479 22.8719L15.5495 22.0655C15.2726 21.3173 14.6827 20.7274 13.9345 20.4505L13.1281 20.1521C12.2906 19.8422 12.2906 18.6578 13.1281 18.3479L13.9345 18.0495C14.6827 17.7726 15.2726 17.1827 15.5495 16.4345L15.8479 15.6281ZM16.75 16.0717L16.4873 16.7816C16.1092 17.8035 15.3035 18.6092 14.2816 18.9873L13.5717 19.25L14.2816 19.5127C15.3035 19.8908 16.1092 20.6965 16.4873 21.7184L16.75 22.4283L17.0127 21.7184C17.3908 20.6965 18.1965 19.8908 19.2184 19.5127L19.9283 19.25L19.2184 18.9873C18.1965 18.6092 17.3908 17.8035 17.0127 16.7816L16.75 16.0717Z" fill="#353566"/>
<path d="M21.1269 13.0883C21.0833 12.9706 20.9167 12.9706 20.8731 13.0883L20.6789 13.6133C20.4962 14.107 20.107 14.4962 19.6133 14.6789L19.0883 14.8731C18.9706 14.9167 18.9706 15.0833 19.0883 15.1269L19.6133 15.3211C20.107 15.5038 20.4962 15.893 20.6789 16.3867L20.8731 16.9117C20.9167 17.0294 21.0833 17.0294 21.1269 16.9117L21.3211 16.3867C21.5038 15.893 21.893 15.5038 22.3867 15.3211L22.9117 15.1269C23.0294 15.0833 23.0294 14.9167 22.9117 14.8731L22.3867 14.6789C21.893 14.4962 21.5038 14.107 21.3211 13.6133L21.1269 13.0883Z" fill="#353566"/>
</svg>
