<svg width="24" height="24" viewBox="0 0 24 24" fill="none" xmlns="http://www.w3.org/2000/svg">
<path opacity="0.4" d="M7.28138 4.9998L8.55298 3.15021C8.83282 2.74317 9.2951 2.5 9.78905 2.5H14.211C14.7049 2.5 15.1672 2.74318 15.447 3.15021L16.7186 4.9998H16.9C18.8602 4.9998 19.8403 4.9998 20.589 5.38128C21.2475 5.71684 21.783 6.25227 22.1185 6.91084C22.5 7.65953 22.5 8.63962 22.5 10.5998V15.3998C22.5 17.36 22.5 18.3401 22.1185 19.0888C21.783 19.7473 21.2475 20.2828 20.589 20.6183C19.8403 20.9998 18.8602 20.9998 16.9 20.9998H7.1C5.13982 20.9998 4.15972 20.9998 3.41103 20.6183C2.75247 20.2828 2.21703 19.7473 1.88148 19.0888C1.5 18.3401 1.5 17.36 1.5 15.3998V10.5998C1.5 8.63962 1.5 7.65953 1.88148 6.91084C2.21703 6.25227 2.75247 5.71684 3.41103 5.38128C4.15972 4.9998 5.13982 4.9998 7.1 4.9998H7.28138Z" fill="#353566"/>
<path d="M16 8.5C15.7239 8.5 15.5 8.72386 15.5 9V10.1708C14.6753 9.15213 13.4145 8.50026 12.0008 8.50026C10.1547 8.50026 8.5694 9.61181 7.87546 11.2001C7.7649 11.4531 7.88041 11.7479 8.13345 11.8584C8.38649 11.969 8.68125 11.8535 8.79181 11.6004C9.33236 10.3633 10.5664 9.50026 12.0008 9.50026C13.1452 9.50026 14.1621 10.0496 14.8009 10.9H13.6C13.3239 10.9 13.1 11.1238 13.1 11.4C13.1 11.6761 13.3239 11.9 13.6 11.9H15.6473C15.6612 11.9005 15.6751 11.9005 15.6891 11.9H16C16.2761 11.9 16.5 11.6761 16.5 11.4V9C16.5 8.72386 16.2761 8.5 16 8.5Z" fill="#353566"/>
<path d="M8.5 17C8.5 17.2761 8.27614 17.5 8 17.5C7.72386 17.5 7.5 17.2761 7.5 17V14.6C7.5 14.4674 7.55268 14.3403 7.64645 14.2465C7.74021 14.1527 7.86739 14.1 8 14.1H8.31089C8.32486 14.0995 8.3388 14.0995 8.35268 14.1H10.4C10.6761 14.1 10.9 14.3239 10.9 14.6C10.9 14.8762 10.6761 15.1 10.4 15.1H9.19906C9.83795 15.9504 10.8548 16.4997 11.9992 16.4997C13.4336 16.4997 14.6676 15.6367 15.2082 14.3996C15.3187 14.1465 15.6135 14.031 15.8666 14.1416C16.1196 14.2521 16.2351 14.5469 16.1245 14.7999C15.4306 16.3882 13.8453 17.4997 11.9992 17.4997C10.5855 17.4997 9.32467 16.8479 8.5 15.8292V17Z" fill="#353566"/>
<path fill-rule="evenodd" clip-rule="evenodd" d="M8.14096 2.86694C8.51407 2.32423 9.13045 2 9.78905 2H14.211C14.8695 2 15.4859 2.32423 15.859 2.86694L16.9816 4.4998C17.9145 4.49982 18.6479 4.50082 19.2395 4.54915C19.8541 4.59936 20.3594 4.70314 20.816 4.93578C21.5686 5.31927 22.1805 5.93119 22.564 6.68384C22.7967 7.14042 22.9004 7.64574 22.9507 8.2603C23 8.86431 23 9.61626 23 10.5773V15.4223C23 16.3833 23 17.1353 22.9507 17.7393C22.9004 18.3539 22.7967 18.8592 22.564 19.3158C22.1805 20.0684 21.5686 20.6803 20.816 21.0638C20.3594 21.2965 19.8541 21.4002 19.2395 21.4505C18.6355 21.4998 17.8835 21.4998 16.9225 21.4998H7.07754C6.11646 21.4998 5.36451 21.4998 4.76049 21.4505C4.14594 21.4002 3.64062 21.2965 3.18404 21.0638C2.43139 20.6803 1.81947 20.0684 1.43597 19.3158C1.20334 18.8592 1.09956 18.3539 1.04935 17.7393C0.999995 17.1353 0.999997 16.3833 1 15.4223V10.5774C0.999997 9.61627 0.999995 8.86432 1.04935 8.2603C1.09956 7.64574 1.20334 7.14042 1.43597 6.68384C1.81947 5.93119 2.43139 5.31927 3.18404 4.93578C3.64062 4.70314 4.14594 4.59936 4.76049 4.54915C5.35206 4.50082 6.08552 4.49982 7.01837 4.4998L8.14096 2.86694ZM9.78905 3C9.45975 3 9.15156 3.16212 8.965 3.43347L7.69341 5.28307C7.60013 5.41875 7.44603 5.4998 7.28138 5.4998H7.1C6.11166 5.4998 5.40047 5.50019 4.84192 5.54583C4.28921 5.59099 3.93014 5.67795 3.63803 5.82679C3.07354 6.11441 2.6146 6.57335 2.32698 7.13783C2.17814 7.42994 2.09118 7.78902 2.04602 8.34173C2.00039 8.90028 2 9.61146 2 10.5998V15.3998C2 16.3881 2.00039 17.0993 2.04602 17.6579C2.09118 18.2106 2.17814 18.5697 2.32698 18.8618C2.6146 19.4263 3.07354 19.8852 3.63803 20.1728C3.93014 20.3217 4.28921 20.4086 4.84192 20.4538C5.40047 20.4994 6.11166 20.4998 7.1 20.4998H16.9C17.8883 20.4998 18.5995 20.4994 19.1581 20.4538C19.7108 20.4086 20.0699 20.3217 20.362 20.1728C20.9265 19.8852 21.3854 19.4263 21.673 18.8618C21.8219 18.5697 21.9088 18.2106 21.954 17.6579C21.9996 17.0993 22 16.3881 22 15.3998V10.5998C22 9.61146 21.9996 8.90028 21.954 8.34173C21.9088 7.78902 21.8219 7.42994 21.673 7.13783C21.3854 6.57335 20.9265 6.11441 20.362 5.82679C20.0699 5.67795 19.7108 5.59099 19.1581 5.54583C18.5995 5.50019 17.8883 5.4998 16.9 5.4998H16.7186C16.554 5.4998 16.3999 5.41875 16.3066 5.28307L15.035 3.43347C14.8484 3.16212 14.5403 3 14.211 3H9.78905Z" fill="#353566"/>
</svg>
