<svg width="24" height="24" viewBox="0 0 24 24" fill="none" xmlns="http://www.w3.org/2000/svg">
<path opacity="0.4" d="M6.78138 4.4998L8.05298 2.65021C8.33282 2.24317 8.7951 2 9.28905 2H13.711C14.2049 2 14.6672 2.24318 14.947 2.65021L16.2186 4.4998H16.4C18.3602 4.4998 19.3403 4.4998 20.089 4.88128C20.7475 5.21684 21.283 5.75227 21.6185 6.41084C22 7.15953 22 8.13962 22 10.0998V11.8543C21.2872 11.5276 20.4865 11.4074 19.693 11.5738C19.0374 11.7126 18.4839 11.9469 17.9999 12.2828C17.4902 11.929 16.9067 11.6995 16.3011 11.5726C16.0026 11.5106 15.6911 11.4879 15.3755 11.5058C14.9335 9.77763 13.3659 8.5 11.5 8.5C9.29086 8.5 7.5 10.2909 7.5 12.5C7.5 14.7091 9.29086 16.5 11.5 16.5C11.5114 16.5 11.5227 16.5 11.5341 16.4999C11.6339 17.3717 11.9536 18.2521 12.5147 19.0308C12.8453 19.4896 13.2981 19.9983 13.7866 20.4998H6.6C4.63982 20.4998 3.65972 20.4998 2.91103 20.1183C2.25247 19.7828 1.71703 19.2473 1.38148 18.5888C1 17.8401 1 16.86 1 14.8998V10.0998C1 8.13962 1 7.15953 1.38148 6.41084C1.71703 5.75227 2.25247 5.21684 2.91103 4.88128C3.65972 4.4998 4.63982 4.4998 6.6 4.4998H6.78138Z" fill="#353566"/>
<path d="M9.28905 1.5C8.63045 1.5 8.01407 1.82423 7.64096 2.36694L6.51837 3.9998C5.58552 3.99982 4.85206 4.00082 4.26049 4.04915C3.64594 4.09936 3.14062 4.20314 2.68404 4.43578C1.93139 4.81927 1.31947 5.43119 0.935974 6.18384C0.703335 6.64042 0.599556 7.14574 0.549345 7.7603C0.499995 8.36432 0.499997 9.11626 0.5 10.0774V14.9222C0.499997 15.8833 0.499995 16.6353 0.549345 17.2393C0.599556 17.8539 0.703335 18.3592 0.935974 18.8158C1.31947 19.5684 1.93139 20.1803 2.68404 20.5638C3.14062 20.7965 3.64594 20.9002 4.26049 20.9505C4.86451 20.9998 5.61646 20.9998 6.57754 20.9998H14.2869C13.9514 20.6726 13.6188 20.3336 13.3149 19.9998H6.6C5.61166 19.9998 4.90047 19.9994 4.34192 19.9538C3.78921 19.9086 3.43014 19.8217 3.13803 19.6728C2.57354 19.3852 2.1146 18.9263 1.82698 18.3618C1.67814 18.0697 1.59118 17.7106 1.54602 17.1579C1.50039 16.5993 1.5 15.8881 1.5 14.8998V10.0998C1.5 9.11146 1.50039 8.40028 1.54602 7.84173C1.59118 7.28902 1.67814 6.92994 1.82698 6.63783C2.1146 6.07335 2.57354 5.61441 3.13803 5.32679C3.43014 5.17795 3.78921 5.09099 4.34192 5.04583C4.90047 5.00019 5.61166 4.9998 6.6 4.9998H6.78138C6.94603 4.9998 7.10013 4.91875 7.19341 4.78307L8.465 2.93347C8.65156 2.66212 8.95975 2.5 9.28905 2.5H13.711C14.0403 2.5 14.3484 2.66212 14.535 2.93347L15.8066 4.78307C15.8999 4.91875 16.054 4.9998 16.2186 4.9998H16.4C17.3883 4.9998 18.0995 5.00019 18.6581 5.04583C19.2108 5.09099 19.5699 5.17795 19.862 5.32679C20.4265 5.61441 20.8854 6.07335 21.173 6.63783C21.3219 6.92994 21.4088 7.28902 21.454 7.84173C21.4996 8.40028 21.5 9.11146 21.5 10.0998V11.664C21.8512 11.7713 22.1878 11.9281 22.5 12.1261V10.0773C22.5 9.11626 22.5 8.36431 22.4507 7.7603C22.4004 7.14574 22.2967 6.64042 22.064 6.18384C21.6805 5.43119 21.0686 4.81927 20.316 4.43578C19.8594 4.20314 19.3541 4.09936 18.7395 4.04915C18.1479 4.00082 17.4145 3.99982 16.4816 3.9998L15.359 2.36694C14.9859 1.82423 14.3695 1.5 13.711 1.5H9.28905Z" fill="#353566"/>
<path d="M11.5 8C13.6462 8 15.4415 9.50244 15.8914 11.5129C15.5592 11.4845 15.2164 11.5023 14.8746 11.5682C14.4667 10.0875 13.1103 9 11.5 9C9.567 9 8 10.567 8 12.5C8 14.433 9.567 16 11.5 16C11.5062 16.3306 11.5448 16.6655 11.6153 16.9986C11.577 16.9995 11.5386 17 11.5 17C9.01472 17 7 14.9853 7 12.5C7 10.0147 9.01472 8 11.5 8Z" fill="#353566"/>
<path fill-rule="evenodd" clip-rule="evenodd" d="M22.8641 13.8092C22.0491 12.7049 20.847 12.3556 19.9021 12.5517L19.9002 12.5521C19.166 12.7076 18.5143 13.0554 18 13.6007C17.4857 13.0554 16.8341 12.7076 16.0999 12.5521L16.0979 12.5517C15.153 12.3556 13.951 12.7049 13.136 13.8092C12.2957 14.9478 12.2186 16.9092 13.3262 18.4463C14.098 19.5175 15.6666 20.9544 16.6741 21.8349C16.6931 21.8516 16.712 21.8682 16.7307 21.8846C17.0093 22.129 17.2574 22.3465 17.5751 22.4404C17.8441 22.5199 18.1559 22.5199 18.425 22.4404C18.7426 22.3465 18.9907 22.129 19.2692 21.8847C19.288 21.8682 19.3069 21.8516 19.326 21.8349C20.3335 20.9543 21.902 19.5175 22.6739 18.4463C23.7815 16.9092 23.7044 14.9477 22.8641 13.8092ZM20.1063 13.5307C20.6641 13.4153 21.4738 13.6095 22.0595 14.403C22.6202 15.1627 22.738 16.6467 21.8626 17.8617C21.1685 18.8248 19.6891 20.1894 18.6679 21.082C18.2983 21.4051 18.2221 21.4576 18.1415 21.4814C18.0575 21.5063 17.9426 21.5063 17.8585 21.4814C17.7779 21.4576 17.7018 21.4051 17.3322 21.082C16.3109 20.1894 14.8315 18.8248 14.1375 17.8617C13.262 16.6467 13.3799 15.1627 13.9406 14.403C14.5262 13.6095 15.336 13.4153 15.8938 13.5307C16.6317 13.6871 17.1513 14.0935 17.6039 14.6812C17.6985 14.8041 17.8449 14.8761 18 14.8761C18.1552 14.8761 18.3015 14.8041 18.3962 14.6812C18.8487 14.0935 19.3684 13.6871 20.1063 13.5307Z" fill="#353566"/>
</svg>
