<svg width="24" height="24" viewBox="0 0 24 24" fill="none" xmlns="http://www.w3.org/2000/svg">
<path opacity="0.4" fill-rule="evenodd" clip-rule="evenodd" d="M14.9632 2.70228C14.8567 3.1171 14.8 3.55193 14.8 4C14.8 6.87188 17.1281 9.2 20 9.2C20.8943 9.2 21.7359 8.97424 22.4708 8.57661C22.5 9.11265 22.5 9.76798 22.5 10.5998V15.3998C22.5 17.36 22.5 18.3401 22.1185 19.0888C21.783 19.7473 21.2475 20.2828 20.589 20.6183C19.8403 20.9998 18.8602 20.9998 16.9 20.9998H7.1C5.13982 20.9998 4.15972 20.9998 3.41103 20.6183C2.75247 20.2828 2.21703 19.7473 1.88148 19.0888C1.5 18.3401 1.5 17.36 1.5 15.3998V10.5998C1.5 8.63962 1.5 7.65953 1.88148 6.91084C2.21703 6.25227 2.75247 5.71684 3.41103 5.38128C4.15972 4.9998 5.13982 4.9998 7.1 4.9998H7.28138L8.55298 3.15021C8.83282 2.74317 9.2951 2.5 9.78905 2.5H14.211C14.4791 2.5 14.7379 2.57166 14.9632 2.70228ZM8 13C8 15.2091 9.79086 17 12 17C14.2091 17 16 15.2091 16 13C16 10.7909 14.2091 9 12 9C9.79086 9 8 10.7909 8 13Z" fill="#353566"/>
<path d="M21.9811 8.80929C21.9998 9.28782 22 9.8678 22 10.5998V15.3998C22 16.3881 21.9996 17.0993 21.954 17.6579C21.9088 18.2106 21.8219 18.5697 21.673 18.8618C21.3854 19.4263 20.9265 19.8852 20.362 20.1728C20.0699 20.3217 19.7108 20.4086 19.1581 20.4538C18.5995 20.4994 17.8883 20.4998 16.9 20.4998H7.1C6.11166 20.4998 5.40047 20.4994 4.84192 20.4538C4.28921 20.4086 3.93014 20.3217 3.63803 20.1728C3.07354 19.8852 2.6146 19.4263 2.32698 18.8618C2.17814 18.5697 2.09118 18.2106 2.04602 17.6579C2.00039 17.0993 2 16.3881 2 15.3998V10.5998C2 9.61146 2.00039 8.90028 2.04602 8.34173C2.09118 7.78902 2.17814 7.42994 2.32698 7.13783C2.6146 6.57335 3.07354 6.11441 3.63803 5.82679C3.93014 5.67795 4.28921 5.59099 4.84192 5.54583C5.40047 5.50019 6.11166 5.4998 7.1 5.4998H7.28138C7.44603 5.4998 7.60013 5.41875 7.69341 5.28307L8.965 3.43347C9.15156 3.16212 9.45975 3 9.78905 3H14.211C14.4498 3 14.6775 3.08528 14.8558 3.23566C14.9077 2.88287 14.9951 2.54161 15.1142 2.2156C14.8382 2.07586 14.5295 2 14.211 2H9.78905C9.13045 2 8.51407 2.32423 8.14096 2.86694L7.01837 4.4998C6.08552 4.49982 5.35206 4.50082 4.76049 4.54915C4.14594 4.59936 3.64062 4.70314 3.18404 4.93578C2.43139 5.31927 1.81947 5.93119 1.43597 6.68384C1.20334 7.14042 1.09956 7.64574 1.04935 8.2603C0.999995 8.86432 0.999997 9.61626 1 10.5773V15.4222C0.999997 16.3833 0.999995 17.1353 1.04935 17.7393C1.09956 18.3539 1.20334 18.8592 1.43597 19.3158C1.81947 20.0684 2.43139 20.6803 3.18404 21.0638C3.64062 21.2965 4.14594 21.4002 4.76049 21.4505C5.36451 21.4998 6.11646 21.4998 7.07754 21.4998H16.9225C17.8835 21.4998 18.6355 21.4998 19.2395 21.4505C19.8541 21.4002 20.3594 21.2965 20.816 21.0638C21.5686 20.6803 22.1805 20.0684 22.564 19.3158C22.7967 18.8592 22.9004 18.3539 22.9507 17.7393C23 17.1353 23 16.3833 23 15.4223V10.5773C23 9.62731 23 8.88164 22.9523 8.2812C22.6502 8.48993 22.3249 8.66751 21.9811 8.80929Z" fill="#353566"/>
<path fill-rule="evenodd" clip-rule="evenodd" d="M16.5 13C16.5 10.5147 14.4853 8.5 12 8.5C9.51472 8.5 7.5 10.5147 7.5 13C7.5 15.4853 9.51472 17.5 12 17.5C14.4853 17.5 16.5 15.4853 16.5 13ZM12 9.5C13.933 9.5 15.5 11.067 15.5 13C15.5 14.933 13.933 16.5 12 16.5C10.067 16.5 8.5 14.933 8.5 13C8.5 11.067 10.067 9.5 12 9.5Z" fill="#353566"/>
<path d="M22.5 5C22.5 5.27614 22.2761 5.5 22 5.5H20V7.5C20 7.77614 19.7761 8 19.5 8C19.2239 8 19 7.77614 19 7.5V5.5H17C16.7239 5.5 16.5 5.27614 16.5 5C16.5 4.72386 16.7239 4.5 17 4.5H19V2.5C19 2.22386 19.2239 2 19.5 2C19.7761 2 20 2.22386 20 2.5V4.5H22C22.2761 4.5 22.5 4.72386 22.5 5Z" fill="#353566"/>
</svg>
