<svg width="24" height="24" viewBox="0 0 24 24" fill="none" xmlns="http://www.w3.org/2000/svg">
<g opacity="0.4">
<path d="M1.5 7.6C1.5 5.63982 1.5 4.65972 1.88148 3.91103C2.21703 3.25247 2.75247 2.71703 3.41103 2.38148C4.15972 2 5.13982 2 7.1 2H16.9C18.8602 2 19.8403 2 20.589 2.38148C21.2475 2.71703 21.783 3.25247 22.1185 3.91103C22.5 4.65972 22.5 5.63982 22.5 7.6V12.2696C22.0938 12.0983 21.6371 12.0197 21.165 11.962C20.5763 11.1807 19.9436 10.5 18.8718 10.5H17.6282C16.5564 10.5 15.9238 11.1807 15.335 11.962C14.3623 12.0809 13.4548 12.2883 12.92 13.2133L12.7542 13.5H1.5V7.6Z" fill="#353566"/>
<path d="M12.0749 18H10V20C10 21.1046 9.10457 22 8 22H15.0524C14.1887 21.8717 13.4026 21.6213 12.92 20.7866L12.2982 19.7113C11.962 19.13 11.9455 18.5637 12.0749 18Z" fill="#353566"/>
</g>
<path d="M7.07755 1.5C6.11647 1.5 5.36451 1.5 4.76049 1.54935C4.14594 1.59956 3.64062 1.70334 3.18404 1.93597C2.43139 2.31947 1.81947 2.93139 1.43597 3.68404C1.20334 4.14062 1.09956 4.64594 1.04935 5.26049C0.999995 5.86451 0.999997 6.61646 1 7.57754V12.4224C1 12.7935 1 13.1342 1.00284 13.4464C1.00096 13.464 1 13.4819 1 13.5C1 13.5217 1.00139 13.5431 1.00407 13.5641C1.00935 14.0104 1.02149 14.3985 1.04935 14.7395C1.09956 15.3541 1.20334 15.8594 1.43597 16.316C1.81947 17.0686 2.43139 17.6805 3.18404 18.064C3.64062 18.2967 4.14594 18.4004 4.76049 18.4507C5.36451 18.5 6.11646 18.5 7.07754 18.5H9.5V20C9.5 20.8284 8.82843 21.5 8 21.5H7.5C7.22386 21.5 7 21.7239 7 22C7 22.2761 7.22386 22.5 7.5 22.5H15.7053C15.5778 22.3535 15.4555 22.1978 15.335 22.0379C14.6892 21.959 14.0722 21.841 13.5739 21.5H10.0002C10.314 21.0822 10.5 20.5628 10.5 20V18.5H12.003C12.0196 18.1653 12.1051 17.8328 12.2236 17.5H7.1C6.11166 17.5 5.40047 17.4996 4.84192 17.454C4.28921 17.4088 3.93014 17.3219 3.63803 17.173C3.07354 16.8854 2.6146 16.4265 2.32698 15.862C2.17814 15.5699 2.09118 15.2108 2.04602 14.6581C2.02982 14.4598 2.01933 14.2423 2.01252 14H12.465L12.92 13.2133C12.9638 13.1375 13.0101 13.0665 13.0588 13H2.0005C2.00002 12.812 2 12.6124 2 12.4V7.6C2 6.61166 2.00039 5.90047 2.04602 5.34192C2.09118 4.78921 2.17814 4.43014 2.32698 4.13803C2.6146 3.57354 3.07354 3.1146 3.63803 2.82698C3.93014 2.67814 4.28921 2.59118 4.84192 2.54602C5.40047 2.50039 6.11166 2.5 7.1 2.5H16.9C17.8883 2.5 18.5995 2.50039 19.1581 2.54602C19.7108 2.59118 20.0699 2.67814 20.362 2.82698C20.9265 3.1146 21.3854 3.57354 21.673 4.13803C21.8219 4.43014 21.9088 4.78921 21.954 5.34192C21.9996 5.90047 22 6.61166 22 7.6V12.1063C22.3652 12.1971 22.7053 12.3323 23 12.5529L23 7.57754C23 6.61646 23 5.86451 22.9507 5.26049C22.9004 4.64594 22.7967 4.14062 22.564 3.68404C22.1805 2.93139 21.5686 2.31947 20.816 1.93597C20.3594 1.70334 19.8541 1.59956 19.2395 1.54935C18.6355 1.5 17.8835 1.5 16.9225 1.5H7.07755Z" fill="#353566"/>
<path fill-rule="evenodd" clip-rule="evenodd" d="M18.25 15.25C17.2835 15.25 16.5 16.0335 16.5 17C16.5 17.9665 17.2835 18.75 18.25 18.75C19.2165 18.75 20 17.9665 20 17C20 16.0335 19.2165 15.25 18.25 15.25ZM17.5 17C17.5 16.5858 17.8358 16.25 18.25 16.25C18.6642 16.25 19 16.5858 19 17C19 17.4142 18.6642 17.75 18.25 17.75C17.8358 17.75 17.5 17.4142 17.5 17Z" fill="#353566"/>
<path fill-rule="evenodd" clip-rule="evenodd" d="M13.1845 19.212C12.8047 18.5529 13.0297 17.7096 13.6886 17.3285C13.9408 17.1827 13.9408 16.8172 13.6886 16.6714C13.0297 16.2903 12.8047 15.447 13.1845 14.7879L13.8042 13.7126C14.1844 13.0529 15.0272 12.8263 15.6866 13.2076C15.937 13.3525 16.2527 13.1723 16.2527 12.8791C16.2527 12.1183 16.8686 11.5 17.6302 11.5H18.8697C19.6314 11.5 20.2473 12.1183 20.2473 12.8792C20.2473 13.1724 20.563 13.3525 20.8134 13.2077C21.4728 12.8263 22.3156 13.053 22.6958 13.7126L23.3155 14.788C23.6954 15.4471 23.4703 16.2903 22.8114 16.6714C22.5592 16.8172 22.5592 17.1826 22.8114 17.3285C23.4703 17.7096 23.6954 18.5528 23.3155 19.2119L22.6958 20.2872C22.3156 20.9469 21.4728 21.1736 20.8134 20.7922C20.563 20.6474 20.2473 20.8275 20.2473 21.1208C20.2473 21.8816 19.6314 22.5 18.8697 22.5H17.6303C16.8686 22.5 16.2527 21.8817 16.2527 21.1208C16.2527 20.8275 15.937 20.6474 15.6866 20.7922C15.0272 21.1736 14.1844 20.9469 13.8042 20.2873L13.1845 19.212ZM14.1893 18.1942C14.0087 18.2986 13.9461 18.5308 14.0509 18.7127L14.6707 19.788C14.7752 19.9693 15.0059 20.0308 15.1859 19.9266C16.1057 19.3946 17.2527 20.0605 17.2527 21.1208C17.2527 21.3311 17.4226 21.5 17.6303 21.5H18.8697C19.0774 21.5 19.2473 21.3311 19.2473 21.1208C19.2473 20.0605 20.3943 19.3946 21.3141 19.9265C21.4941 20.0307 21.7248 19.9693 21.8293 19.7879L22.4491 18.7126C22.5539 18.5307 22.4913 18.2986 22.3107 18.1941C21.3928 17.6632 21.3928 16.3367 22.3107 15.8058C22.4913 15.7013 22.5539 15.4692 22.4491 15.2873L21.8293 14.212C21.7248 14.0306 21.4941 13.9692 21.3141 14.0733C20.3943 14.6053 19.2473 13.9395 19.2473 12.8792C19.2473 12.6689 19.0774 12.5 18.8697 12.5H17.6302C17.4226 12.5 17.2527 12.6689 17.2527 12.8791C17.2527 13.9395 16.1056 14.6052 15.186 14.0733C15.0059 13.9691 14.7752 14.0306 14.6707 14.2119L14.0509 15.2872C13.9461 15.4691 14.0087 15.7013 14.1893 15.8057C15.1073 16.3367 15.1073 17.6632 14.1893 18.1942Z" fill="#353566"/>
</svg>
