<svg width="24" height="24" viewBox="0 0 24 24" fill="none" xmlns="http://www.w3.org/2000/svg">
<g opacity="0.4">
<path d="M1.5 7.6C1.5 5.63982 1.5 4.65972 1.88148 3.91103C2.21703 3.25247 2.75247 2.71703 3.41103 2.38148C4.15972 2 5.13982 2 7.1 2H16.9C18.8602 2 19.8403 2 20.589 2.38148C21.2475 2.71703 21.783 3.25247 22.1185 3.91103C22.5 4.65972 22.5 5.63982 22.5 7.6V13.5H19.2676L18.9145 12.4989C18.5592 11.4915 17.2086 11.17 16.4393 11.9393L14.8786 13.5H1.5V7.6Z" fill="#353566"/>
<path d="M13.5 18H10V20C10 21.1046 9.10457 22 8 22H16C14.9525 22 14.0931 21.1947 14.0071 20.1695C13.6868 19.6922 13.5 19.1179 13.5 18.5V18Z" fill="#353566"/>
</g>
<path fill-rule="evenodd" clip-rule="evenodd" d="M7.07755 1.5C6.11647 1.5 5.36451 1.5 4.76049 1.54935C4.14594 1.59956 3.64062 1.70334 3.18404 1.93597C2.43139 2.31947 1.81947 2.93139 1.43597 3.68404C1.20334 4.14062 1.09956 4.64594 1.04935 5.26049C0.999995 5.86451 0.999997 6.61646 1 7.57754V12.4224C1 12.7935 1 13.1342 1.00284 13.4464C1.00096 13.464 1 13.4819 1 13.5C1 13.5217 1.00139 13.5431 1.00407 13.5641C1.00935 14.0104 1.02149 14.3985 1.04935 14.7395C1.09956 15.3541 1.20334 15.8594 1.43597 16.316C1.81947 17.0686 2.43139 17.6805 3.18404 18.064C3.64062 18.2967 4.14594 18.4004 4.76049 18.4507C5.36451 18.5 6.11646 18.5 7.07754 18.5H9.5V20C9.5 20.8284 8.82843 21.5 8 21.5H7.5C7.22386 21.5 7 21.7239 7 22C7 22.2761 7.22386 22.5 7.5 22.5H16.5C16.7761 22.5 17 22.2761 17 22C17 21.7239 16.7761 21.5 16.5 21.5H16C15.5883 21.5 15.2154 21.3342 14.9444 21.0657C14.0784 20.5395 13.5 19.5873 13.5 18.5V17.5H7.1C6.11166 17.5 5.40047 17.4996 4.84192 17.454C4.28921 17.4088 3.93014 17.3219 3.63803 17.173C3.07354 16.8854 2.6146 16.4265 2.32698 15.862C2.17814 15.5699 2.09118 15.2108 2.04602 14.6581C2.02982 14.4598 2.01933 14.2423 2.01252 14H14.3816C14.4 13.9796 14.4192 13.9594 14.4393 13.9393L15.3786 13H2.0005C2.00002 12.812 2 12.6124 2 12.4V7.6C2 6.61166 2.00039 5.90047 2.04602 5.34192C2.09118 4.78921 2.17814 4.43014 2.32698 4.13803C2.6146 3.57354 3.07354 3.1146 3.63803 2.82698C3.93014 2.67814 4.28921 2.59118 4.84192 2.54602C5.40047 2.50039 6.11166 2.5 7.1 2.5H16.9C17.8883 2.5 18.5995 2.50039 19.1581 2.54602C19.7108 2.59118 20.0699 2.67814 20.362 2.82698C20.9265 3.1146 21.3854 3.57354 21.673 4.13803C21.8219 4.43014 21.9088 4.78921 21.954 5.34192C21.9996 5.90047 22 6.61166 22 7.6V12.4C22 12.6124 22 12.812 21.9995 13H19.0912L19.2676 13.5H21.5C22.0425 13.5 22.5513 13.644 22.9904 13.8958C22.9928 13.7889 22.9946 13.6784 22.9959 13.5641C22.9986 13.5431 23 13.5217 23 13.5C23 13.4819 22.999 13.464 22.9972 13.4464C23 13.1341 23 12.7943 23 12.4232V7.57754C23 6.61646 23 5.86451 22.9507 5.26049C22.9004 4.64594 22.7967 4.14062 22.564 3.68404C22.1805 2.93139 21.5686 2.31947 20.816 1.93597C20.3594 1.70334 19.8541 1.59956 19.2395 1.54935C18.6355 1.5 17.8835 1.5 16.9225 1.5H7.07755ZM13.5 18.5V20C13.5 20.5628 13.686 21.0822 13.9998 21.5H10.0002C10.314 21.0822 10.5 20.5628 10.5 20V18.5H13.5Z" fill="#353566"/>
<path d="M23 18C23.2761 18 23.5 17.7761 23.5 17.5V16.5C23.5 15.3954 22.6046 14.5 21.5 14.5H16.707L17.8535 13.3536C18.0488 13.1583 18.0488 12.8417 17.8535 12.6464C17.6582 12.4512 17.3416 12.4512 17.1464 12.6464L15.1464 14.6464C15.0034 14.7894 14.9606 15.0045 15.038 15.1913C15.1154 15.3782 15.2977 15.5 15.4999 15.5H21.5C22.0523 15.5 22.5 15.9477 22.5 16.5V17.5C22.5 17.7761 22.7239 18 23 18Z" fill="#353566"/>
<path d="M14.5 18.5V17.5C14.5 17.2239 14.7239 17 15 17C15.2761 17 15.5 17.2239 15.5 17.5V18.5C15.5 19.0523 15.9477 19.5 16.5 19.5H22.5C22.7022 19.5 22.8846 19.6218 22.9619 19.8087C23.0393 19.9955 22.9965 20.2106 22.8535 20.3536L20.8535 22.3536C20.6582 22.5488 20.3416 22.5488 20.1464 22.3535C19.9511 22.1583 19.9511 21.8417 20.1464 21.6464L21.2929 20.5H16.5C15.3954 20.5 14.5 19.6046 14.5 18.5Z" fill="#353566"/>
</svg>
