<svg width="24" height="24" viewBox="0 0 24 24" fill="none" xmlns="http://www.w3.org/2000/svg">
<g opacity="0.4">
<path d="M1.88148 3.91103C1.5 4.65972 1.5 5.63982 1.5 7.6V13.5H12.0001V12.6C12.0001 10.6398 12.0001 9.65972 12.3816 8.91103C12.7171 8.25247 13.2526 7.71703 13.9111 7.38148C14.6598 7 15.6399 7 17.6001 7H19.4001C20.8901 7 21.8138 7 22.5 7.16753C22.4979 5.4914 22.471 4.60252 22.1187 3.91103C21.7831 3.25247 21.2477 2.71703 20.5891 2.38148C19.8404 2 18.8603 2 16.9001 2H7.10004C5.13985 2 4.15975 2 3.41105 2.38148C2.75248 2.71703 2.21704 3.25247 1.88148 3.91103Z" fill="#353566"/>
<path d="M10.0001 18H12.0001V18.4C12.0001 20.2835 12.0001 21.2621 12.3385 22H8.00005C9.10463 22 10.0001 21.1046 10.0001 20V18Z" fill="#353566"/>
<path d="M14.218 10.092C14 10.5198 14 11.0799 14 12.2V18.8C14 19.9201 14 20.4802 14.218 20.908C14.4097 21.2843 14.7157 21.5903 15.092 21.782C15.5198 22 16.0799 22 17.2 22H19.8C20.9201 22 21.4802 22 21.908 21.782C22.2843 21.5903 22.5903 21.2843 22.782 20.908C23 20.4802 23 19.9201 23 18.8V12.2C23 11.0799 23 10.5198 22.782 10.092C22.5903 9.71569 22.2843 9.40973 21.908 9.21799C21.4802 9 20.9201 9 19.8 9H17.2C16.0799 9 15.5198 9 15.092 9.21799C14.7157 9.40973 14.4097 9.71569 14.218 10.092Z" fill="#353566"/>
</g>
<path d="M7.07757 1.5C6.11648 1.5 5.36452 1.5 4.7605 1.54935C4.14595 1.59956 3.64063 1.70334 3.18405 1.93597C2.43139 2.31947 1.81947 2.93139 1.43598 3.68404C1.20334 4.14062 1.09956 4.64594 1.04935 5.26049C0.999995 5.86451 0.999997 6.61646 1 7.57755V12.4224C1 12.7935 1 13.1342 1.00284 13.4464C1.00096 13.464 1 13.4819 1 13.5C1 13.5217 1.00139 13.5431 1.00407 13.5641C1.00935 14.0104 1.02149 14.3985 1.04935 14.7395C1.09956 15.3541 1.20334 15.8594 1.43598 16.316C1.81947 17.0686 2.43139 17.6805 3.18405 18.064C3.64063 18.2967 4.14595 18.4004 4.7605 18.4507C5.36453 18.5 6.11647 18.5 7.07756 18.5H9.50003V20C9.50003 20.8284 8.82845 21.5 8.00002 21.5H7.50002C7.22388 21.5 7.00002 21.7239 7.00002 22C7.00002 22.2761 7.22388 22.5 7.50002 22.5H12.5114C12.4548 22.4114 12.4023 22.3198 12.3543 22.2255C12.2449 22.0109 12.1694 21.7759 12.1171 21.5H10.0002C10.3141 21.0822 10.5 20.5628 10.5 20V18.5H12V17.5H7.10002C6.11168 17.5 5.40049 17.4996 4.84194 17.454C4.28922 17.4088 3.93015 17.3219 3.63804 17.173C3.07355 16.8854 2.61461 16.4265 2.32699 15.862C2.17815 15.5699 2.09119 15.2108 2.04603 14.6581C2.02983 14.4598 2.01933 14.2423 2.01253 14H12V13H2.0005C2.00002 12.812 2 12.6124 2 12.4V7.6C2 6.61166 2.00039 5.90047 2.04603 5.34192C2.09119 4.78921 2.17815 4.43014 2.32699 4.13803C2.61461 3.57354 3.07355 3.1146 3.63804 2.82698C3.93015 2.67814 4.28922 2.59118 4.84194 2.54602C5.40049 2.50039 6.11167 2.5 7.10002 2.5H16.9001C17.8884 2.5 18.5996 2.50039 19.1581 2.54602C19.7109 2.59118 20.0699 2.67814 20.362 2.82698C20.9265 3.1146 21.3855 3.57354 21.6731 4.13803C21.8219 4.43014 21.9089 4.78921 21.954 5.34192C21.9907 5.791 21.9982 6.33874 21.9997 7.04987C22.3982 7.08585 22.7193 7.14781 23 7.25447C22.9994 6.44563 22.9944 5.79511 22.9507 5.26049C22.9005 4.64594 22.7967 4.14062 22.5641 3.68404C22.1806 2.93139 21.5687 2.31947 20.816 1.93597C20.3594 1.70334 19.8541 1.59956 19.2396 1.54935C18.6355 1.5 17.8836 1.5 16.9225 1.5H7.07757Z" fill="#353566"/>
<path d="M18.5 18.25C18.0858 18.25 17.75 18.5858 17.75 19C17.75 19.4142 18.0858 19.75 18.5 19.75C18.9142 19.75 19.2501 19.4142 19.2501 19C19.2501 18.5858 18.9142 18.25 18.5 18.25Z" fill="#353566"/>
<path fill-rule="evenodd" clip-rule="evenodd" d="M17.1786 8.5H19.8214C20.3633 8.5 20.8004 8.49999 21.1543 8.52891C21.5187 8.55868 21.8388 8.62159 22.135 8.77248C22.6054 9.01217 22.9878 9.39462 23.2275 9.86502C23.3784 10.1612 23.4413 10.4813 23.4711 10.8457C23.5 11.1996 23.5 11.6366 23.5 12.1784V18.8214C23.5 19.3632 23.5 19.8004 23.4711 20.1543C23.4413 20.5187 23.3784 20.8388 23.2275 21.135C22.9878 21.6054 22.6054 21.9878 22.135 22.2275C21.8388 22.3784 21.5187 22.4413 21.1543 22.4711C20.8004 22.5 20.3634 22.5 19.8216 22.5H17.1786C16.6368 22.5 16.1996 22.5 15.8457 22.4711C15.4813 22.4413 15.1612 22.3784 14.865 22.2275C14.3946 21.9878 14.0122 21.6054 13.7725 21.135C13.6216 20.8388 13.5587 20.5187 13.5289 20.1543C13.5 19.8004 13.5 19.3633 13.5 18.8214V12.1786C13.5 11.6367 13.5 11.1996 13.5289 10.8457C13.5587 10.4813 13.6216 10.1612 13.7725 9.86502C14.0122 9.39462 14.3946 9.01217 14.865 8.77248C15.1612 8.62159 15.4813 8.55868 15.8457 8.52891C16.1996 8.49999 16.6367 8.5 17.1786 8.5ZM15.9271 9.52559C15.6245 9.55031 15.4507 9.5964 15.319 9.66349C15.0368 9.8073 14.8073 10.0368 14.6635 10.319C14.5964 10.4507 14.5503 10.6245 14.5256 10.9271C14.5004 11.2355 14.5 11.6317 14.5 12.2V18.8C14.5 19.3683 14.5004 19.7645 14.5256 20.0729C14.5503 20.3755 14.5964 20.5493 14.6635 20.681C14.8073 20.9632 15.0368 21.1927 15.319 21.3365C15.4507 21.4036 15.6245 21.4497 15.9271 21.4744C16.2355 21.4996 16.6317 21.5 17.2 21.5H19.8C20.3683 21.5 20.7645 21.4996 21.0729 21.4744C21.3755 21.4497 21.5493 21.4036 21.681 21.3365C21.9632 21.1927 22.1927 20.9632 22.3365 20.681C22.4036 20.5493 22.4497 20.3755 22.4744 20.0729C22.4996 19.7645 22.5 19.3683 22.5 18.8V12.2C22.5 11.6317 22.4996 11.2355 22.4744 10.9271C22.4497 10.6245 22.4036 10.4507 22.3365 10.319C22.1927 10.0368 21.9632 9.8073 21.681 9.66349C21.5493 9.5964 21.3755 9.55031 21.0729 9.52559C20.7645 9.50039 20.3683 9.5 19.8 9.5H17.2C16.6317 9.5 16.2355 9.50039 15.9271 9.52559Z" fill="#353566"/>
</svg>
