<svg width="24" height="24" viewBox="0 0 24 24" fill="none" xmlns="http://www.w3.org/2000/svg">
<g opacity="0.4">
<path d="M1.5 7.6C1.5 5.63982 1.5 4.65972 1.88148 3.91103C2.21703 3.25247 2.75247 2.71703 3.41103 2.38148C4.15972 2 5.13982 2 7.1 2H16.9C18.8602 2 19.8403 2 20.589 2.38148C21.2475 2.71703 21.783 3.25247 22.1185 3.91103C22.5 4.65972 22.5 5.63982 22.5 7.6V12.3096C21.3321 11.1888 19.7465 10.5 18 10.5C15.6988 10.5 13.6769 11.6958 12.5218 13.5H1.5V7.6Z" fill="#353566"/>
<path d="M11.5764 18H10V20C10 21.1046 9.10457 22 8 22H13.8464C12.6552 21.0094 11.8237 19.6011 11.5764 18Z" fill="#353566"/>
</g>
<path d="M7.07755 1.5H16.9224C17.8835 1.5 18.6355 1.5 19.2395 1.54935C19.8541 1.59956 20.3594 1.70334 20.816 1.93597C21.5686 2.31947 22.1805 2.93139 22.564 3.68404C22.7967 4.14062 22.9004 4.64594 22.9507 5.26049C23 5.86451 23 6.61646 23 7.57754V12.4225C23 12.5682 23 12.7099 22.9998 12.8462C22.7022 12.4884 22.3669 12.163 22 11.8762V7.6C22 6.61166 21.9996 5.90047 21.954 5.34192C21.9088 4.78921 21.8219 4.43014 21.673 4.13803C21.3854 3.57354 20.9265 3.1146 20.362 2.82698C20.0699 2.67814 19.7108 2.59118 19.1581 2.54602C18.5995 2.50039 17.8883 2.5 16.9 2.5H7.1C6.11166 2.5 5.40047 2.50039 4.84192 2.54602C4.28921 2.59118 3.93014 2.67814 3.63803 2.82698C3.07354 3.1146 2.6146 3.57354 2.32698 4.13803C2.17814 4.43014 2.09118 4.78921 2.04602 5.34192C2.00039 5.90047 2 6.61166 2 7.6V12.4C2 12.6124 2.00002 12.812 2.0005 13H12.8762C12.6324 13.3118 12.4165 13.6463 12.2322 14H2.01252C2.01933 14.2423 2.02982 14.4598 2.04602 14.6581C2.09118 15.2108 2.17814 15.5699 2.32698 15.862C2.6146 16.4265 3.07354 16.8854 3.63803 17.173C3.93014 17.3219 4.28921 17.4088 4.84192 17.454C5.40047 17.4996 6.11166 17.5 7.1 17.5H11.5189C11.5449 17.8414 11.5973 18.1754 11.6739 18.5H10.5V20C10.5 20.5628 10.314 21.0822 10.0002 21.5H13.3096C13.6749 21.8807 14.0861 22.217 14.5343 22.5H7.5C7.22386 22.5 7 22.2761 7 22C7 21.7239 7.22386 21.5 7.5 21.5H8C8.82843 21.5 9.5 20.8284 9.5 20V18.5H7.07754C6.11646 18.5 5.36451 18.5 4.76049 18.4507C4.14594 18.4004 3.64062 18.2967 3.18404 18.064C2.43139 17.6805 1.81947 17.0686 1.43597 16.316C1.20334 15.8594 1.09956 15.3541 1.04935 14.7395C1.02149 14.3985 1.00935 14.0104 1.00407 13.5641C1.00139 13.5431 1 13.5217 1 13.5C1 13.4819 1.00096 13.464 1.00284 13.4464C1 13.1342 1 12.7943 1 12.4233V7.57756C0.999997 6.61647 0.999995 5.86451 1.04935 5.26049C1.09956 4.64594 1.20334 4.14062 1.43597 3.68404C1.81947 2.93139 2.43139 2.31947 3.18404 1.93597C3.64062 1.70334 4.14594 1.59956 4.76049 1.54935C5.36451 1.5 6.11647 1.5 7.07755 1.5Z" fill="#353566"/>
<path d="M20.5 17C20.5 17.2761 20.2761 17.5 20 17.5H18.5V19C18.5 19.2761 18.2761 19.5 18 19.5C17.7239 19.5 17.5 19.2761 17.5 19V17.5H16C15.7239 17.5 15.5 17.2761 15.5 17C15.5 16.7239 15.7239 16.5 16 16.5H17.5V15C17.5 14.7239 17.7239 14.5 18 14.5C18.2761 14.5 18.5 14.7239 18.5 15V16.5H20C20.2761 16.5 20.5 16.7239 20.5 17Z" fill="#353566"/>
<path fill-rule="evenodd" clip-rule="evenodd" d="M18 11.5C14.9624 11.5 12.5 13.9624 12.5 17C12.5 20.0376 14.9624 22.5 18 22.5C21.0376 22.5 23.5 20.0376 23.5 17C23.5 13.9624 21.0376 11.5 18 11.5ZM13.5 17C13.5 14.5147 15.5147 12.5 18 12.5C20.4853 12.5 22.5 14.5147 22.5 17C22.5 19.4853 20.4853 21.5 18 21.5C15.5147 21.5 13.5 19.4853 13.5 17Z" fill="#353566"/>
</svg>
