<svg width="24" height="24" viewBox="0 0 24 24" fill="none" xmlns="http://www.w3.org/2000/svg">
<path opacity="0.4" d="M1 6.8C1 5.11984 1 4.27976 1.32698 3.63803C1.6146 3.07354 2.07354 2.6146 2.63803 2.32698C3.27976 2 4.11984 2 5.8 2H14.6745C15.1637 2 15.4083 2 15.6385 2.05526C15.8425 2.10425 16.0376 2.18506 16.2166 2.29472C16.4184 2.4184 16.5914 2.59135 16.9373 2.93726L20.0627 6.06274C20.4086 6.40865 20.5816 6.5816 20.7053 6.78343C20.8149 6.96237 20.8957 7.15746 20.9447 7.36154C21 7.59171 21 7.8363 21 8.32548V13.9554C20.914 13.9459 20.8293 13.9359 20.746 13.925C20.6644 13.7557 20.5847 13.5778 20.5036 13.3968C19.9938 12.2587 19.43 11 18.0021 11C16.5743 11 16.0105 12.2587 15.5006 13.3968C15.4759 13.4521 15.4512 13.507 15.4267 13.5615C15.2914 13.5215 15.1482 13.5 15 13.5H7C6.17157 13.5 5.5 14.1716 5.5 15V21.9999C4.01747 21.9988 3.24038 21.9799 2.63803 21.673C2.07354 21.3854 1.6146 20.9265 1.32698 20.362C1 19.7202 1 18.8802 1 17.2V6.8Z" fill="#353566"/>
<path d="M15.5217 2.54147C15.3625 2.50323 15.1875 2.50002 14.6745 2.50002H5.8C4.95167 2.50002 4.34549 2.50041 3.87032 2.53923C3.40099 2.57758 3.10366 2.65092 2.86502 2.77251C2.39462 3.01219 2.01217 3.39464 1.77248 3.86505C1.65089 4.10368 1.57756 4.40101 1.53921 4.87034C1.50039 5.34552 1.5 5.95169 1.5 6.80002V17.2C1.5 18.0483 1.50039 18.6545 1.53921 19.1297C1.57756 19.599 1.65089 19.8964 1.77248 20.135C2.01217 20.6054 2.39462 20.9879 2.86502 21.2275C3.10366 21.3491 3.40099 21.4225 3.87032 21.4608C4.18067 21.4862 4.54691 21.4951 5 21.4983V15C5 13.8955 5.89543 13 7 13H15C15.2214 13 15.4343 13.036 15.6334 13.1024C15.5884 13.2008 15.5443 13.2993 15.5006 13.3968C15.4195 13.5778 15.3399 13.7557 15.2583 13.925C15.0711 13.9495 14.8762 13.9695 14.6779 13.9898L14.5787 14H7C6.44772 14 6 14.4477 6 15V21.5H13.2023C13.2233 21.8542 13.3071 22.1929 13.4936 22.5H5.5L5.4915 22.5C4.8041 22.4994 4.24749 22.495 3.78889 22.4575C3.25771 22.4141 2.81413 22.3239 2.41103 22.1185C1.75247 21.783 1.21703 21.2476 0.881478 20.589C0.676087 20.1859 0.585932 19.7423 0.542533 19.2111C0.499994 18.6905 0.499997 18.0435 0.5 17.2222V6.77782C0.499997 5.95655 0.499994 5.30956 0.542533 4.78891C0.585932 4.25773 0.676087 3.81416 0.881478 3.41105C1.21703 2.75249 1.75247 2.21706 2.41103 1.8815C2.81413 1.67611 3.25771 1.58595 3.78889 1.54255C4.30954 1.50002 4.95652 1.50002 5.77779 1.50002L14.7315 1.50001C15.1659 1.49988 15.4665 1.4998 15.7552 1.5691C16.0103 1.63034 16.2541 1.73135 16.4778 1.86842C16.7309 2.02352 16.9435 2.23619 17.2505 2.54342L20.4566 5.74949C20.7638 6.05655 20.9765 6.26909 21.1316 6.5222C21.2687 6.74588 21.3697 6.98974 21.4309 7.24484C21.5002 7.53348 21.5001 7.83415 21.5 8.26852L21.5 14.0077L21.3267 13.9898C21.1282 13.9695 20.9332 13.9495 20.746 13.925C20.6644 13.7557 20.5847 13.5778 20.5037 13.3969L20.5 13.3887V8.3255C20.5 7.81252 20.4968 7.63753 20.4586 7.47828C20.4218 7.32523 20.3612 7.17891 20.279 7.0447C20.1934 6.90506 20.0719 6.77905 19.7092 6.41632L16.5837 3.29083C16.221 2.9281 16.095 2.80663 15.9553 2.72106C15.8211 2.63882 15.6748 2.57821 15.5217 2.54147Z" fill="#353566"/>
<path d="M13.5 7.00002C13.7761 7.00002 14 7.22388 14 7.50002C14 7.77616 13.7761 8.00002 13.5 8.00002L8.5 8.00002C8.22386 8.00002 8 7.77616 8 7.50002C8 7.22388 8.22386 7.00002 8.5 7.00002L13.5 7.00002Z" fill="#353566"/>
<path fill-rule="evenodd" clip-rule="evenodd" d="M19.0133 12.6365C18.6043 11.7878 17.3957 11.7878 16.9866 12.6365L15.9213 14.8464L13.4801 15.165C12.5385 15.2879 12.1633 16.45 12.8553 17.1003L14.6335 18.7713L14.1858 21.1646C14.0121 22.0935 14.9916 22.8097 15.824 22.3625L18 21.1934L20.1759 22.3625C21.0083 22.8097 21.9878 22.0935 21.8141 21.1646L21.3664 18.7713L23.1446 17.1003C23.8366 16.45 23.4614 15.2879 22.5198 15.165L20.0786 14.8464L19.0133 12.6365ZM17.8874 13.0707C17.9328 12.9764 18.0671 12.9764 18.1125 13.0707L19.1778 15.2807C19.3244 15.5848 19.6145 15.7944 19.9492 15.838L22.3905 16.1566C22.495 16.1702 22.5367 16.2993 22.4599 16.3716L20.6816 18.0426C20.4331 18.2761 20.3208 18.62 20.3834 18.9552L20.8311 21.3485C20.8504 21.4517 20.7416 21.5312 20.6492 21.4815L18.4732 20.3125C18.1777 20.1537 17.8222 20.1537 17.5267 20.3125L15.3508 21.4815C15.2583 21.5312 15.1495 21.4517 15.1688 21.3485L15.6165 18.9552C15.6792 18.62 15.5668 18.2761 15.3183 18.0426L13.5401 16.3716C13.4632 16.2993 13.5049 16.1702 13.6095 16.1566L16.0507 15.838C16.3854 15.7944 16.6755 15.5848 16.8221 15.2807L17.8874 13.0707Z" fill="#353566"/>
</svg>
