<svg width="24" height="24" viewBox="0 0 24 24" fill="none" xmlns="http://www.w3.org/2000/svg">
<g clip-path="url(#clip0_9001_285268)">
<path opacity="0.4" d="M11.5014 5C11.5005 5.04156 11.5 5.08323 11.5 5.125C11.5 8.2316 14.0184 10.75 17.125 10.75C18.0023 10.75 18.7981 10.4989 19.6029 10.2093L21.7059 17.0442C21.7567 17.2091 21.782 17.2916 21.8047 17.3744C21.9191 17.7923 21.9838 18.2223 21.9973 18.6554C22 18.7412 22 18.8274 22 19C22 21.2091 20.2091 23 18 23H5C2.79086 23 1 21.2091 1 19C1 18.8274 1 18.7412 1.00268 18.6554C1.0162 18.2223 1.08086 17.7923 1.19529 17.3744C1.21797 17.2916 1.24334 17.2091 1.29408 17.0442L3.78366 8.95312C4.22031 7.53398 4.43864 6.82442 4.86392 6.29871C5.23937 5.8346 5.7273 5.47423 6.2813 5.25187C6.90883 5 7.65122 5 9.13602 5H11.5014Z" fill="#353566"/>
<path fill-rule="evenodd" clip-rule="evenodd" d="M12.5 5.125C12.5 2.57068 14.5707 0.5 17.125 0.5C19.6793 0.5 21.75 2.57068 21.75 5.125C21.75 6.22204 21.368 7.22987 20.7299 8.02277L23.3535 10.6465C23.5488 10.8417 23.5488 11.1583 23.3535 11.3536C23.1582 11.5488 22.8416 11.5488 22.6464 11.3535L20.0228 8.72987C19.2299 9.36805 18.222 9.75 17.125 9.75C14.5707 9.75 12.5 7.67932 12.5 5.125ZM17.125 1.5C15.123 1.5 13.5 3.12297 13.5 5.125C13.5 7.12703 15.123 8.75 17.125 8.75C19.127 8.75 20.75 7.12703 20.75 5.125C20.75 3.12297 19.127 1.5 17.125 1.5Z" fill="#353566"/>
<path d="M16.75 19C16.75 18.5858 17.0858 18.25 17.5 18.25C17.9142 18.25 18.2501 18.5858 18.2501 19C18.2501 19.4142 17.9143 19.75 17.5001 19.75C17.0859 19.75 16.75 19.4142 16.75 19Z" fill="#353566"/>
<path d="M14.5 18.25C14.0858 18.25 13.75 18.5858 13.75 19C13.75 19.4142 14.0858 19.75 14.5 19.75C14.9142 19.75 15.2501 19.4142 15.2501 19C15.2501 18.5858 14.9142 18.25 14.5 18.25Z" fill="#353566"/>
<path fill-rule="evenodd" clip-rule="evenodd" d="M11.5343 4.50003C11.5116 4.70523 11.5 4.91375 11.5 5.125C11.5 5.25102 11.5041 5.37607 11.5123 5.50003H9.13602C7.60744 5.50003 6.98366 5.50876 6.46755 5.71592C5.99268 5.90651 5.57447 6.2154 5.25265 6.61321C4.90288 7.04558 4.71108 7.63921 4.26154 9.10019L2.33014 15.3773C3.077 14.8259 4.00044 14.5 5 14.5H18C18.9996 14.5 19.923 14.8259 20.6699 15.3773L19.1302 10.3735C19.4033 10.2831 19.6753 10.1835 19.9499 10.0829L19.9584 10.0798L20.1429 10.2642L22.1865 16.906C22.2346 17.0624 22.2622 17.1521 22.287 17.2424C22.4118 17.6983 22.4823 18.1673 22.4971 18.6398C22.5 18.7334 22.5 18.827 22.5 18.9909V19C22.5 21.4853 20.4853 23.5 18 23.5H5C2.51472 23.5 0.5 21.4853 0.5 19V18.9909C0.5 18.827 0.5 18.7334 0.502923 18.6398C0.517676 18.1673 0.588206 17.6983 0.713047 17.2424C0.73779 17.152 0.765288 17.0627 0.813477 16.906L3.34112 8.69117C3.74353 7.38253 3.9885 6.58589 4.47519 5.98427C4.90428 5.45386 5.46191 5.04201 6.09506 4.78788C6.81321 4.49963 7.64666 4.49978 9.01577 4.50001L11.5343 4.50003ZM5 15.5C3.067 15.5 1.5 17.067 1.5 19C1.5 20.933 3.067 22.5 5 22.5H18C19.933 22.5 21.5 20.933 21.5 19C21.5 17.067 19.933 15.5 18 15.5H5Z" fill="#353566"/>
</g>
<defs>
<clipPath id="clip0_9001_285268">
<rect width="24" height="24" fill="white"/>
</clipPath>
</defs>
</svg>
