<svg width="24" height="24" viewBox="0 0 24 24" fill="none" xmlns="http://www.w3.org/2000/svg">
<g clip-path="url(#clip0_9001_285283)">
<path opacity="0.4" d="M11.5164 5H9.13602C7.65122 5 6.90883 5 6.2813 5.25187C5.7273 5.47423 5.23937 5.8346 4.86392 6.29871C4.43864 6.82442 4.22031 7.53398 3.78366 8.95312L1.29409 17.0442C1.24335 17.2091 1.21797 17.2916 1.19529 17.3744C1.08086 17.7923 1.0162 18.2223 1.00268 18.6554C1 18.7412 1 18.8274 1 19C1 21.2091 2.79086 23 5 23H18C20.2091 23 22 21.2091 22 19C22 18.8274 22 18.7412 21.9973 18.6554C21.9838 18.2223 21.9191 17.7923 21.8047 17.3744C21.782 17.2916 21.7567 17.2091 21.7059 17.0442L20.1165 11.8786C19.5677 11.723 19.0279 11.4128 18.5144 11.1178C18.3402 11.0177 18.169 10.9194 18.0015 10.8294C17.838 10.9171 17.6735 11.0104 17.5078 11.1043C16.3647 11.7524 15.1701 12.4296 13.9397 11.508C12.899 10.6527 13.1787 9.36737 13.4331 8.19813C13.4756 8.00263 13.5175 7.81037 13.5523 7.62391C13.4174 7.49712 13.2741 7.36958 13.1285 7.23993C12.4097 6.60001 11.6328 5.90845 11.5164 5Z" fill="#353566"/>
<path fill-rule="evenodd" clip-rule="evenodd" d="M19.0133 1.13647C18.6043 0.287841 17.3957 0.287845 16.9866 1.13647L15.9213 3.34645L13.4801 3.665C12.5385 3.78786 12.1633 4.95004 12.8553 5.6003L14.6335 7.27131L14.1858 9.66463C14.0121 10.5935 14.9916 11.3097 15.824 10.8625L18 9.69341L20.1759 10.8625C21.0083 11.3097 21.9878 10.5935 21.8141 9.66463L21.3664 7.27131L23.1446 5.6003C23.8366 4.95004 23.4614 3.78786 22.5198 3.665L20.0786 3.34645L19.0133 1.13647ZM17.8874 1.5707C17.9328 1.47643 18.0671 1.47644 18.1125 1.5707L19.1778 3.78069C19.3244 4.08476 19.6145 4.29436 19.9492 4.33804L22.3905 4.65659C22.495 4.67024 22.5367 4.79933 22.4599 4.87156L20.6816 6.54258C20.4331 6.77605 20.3208 7.12003 20.3834 7.45516L20.8311 9.8485C20.8504 9.95167 20.7416 10.0312 20.6492 9.98155L18.4732 8.81249C18.1777 8.65371 17.8222 8.65371 17.5267 8.81249L15.3508 9.98155C15.2583 10.0312 15.1495 9.95167 15.1688 9.8485L15.6165 7.45516C15.6792 7.12003 15.5668 6.77605 15.3183 6.54258L13.5401 4.87156C13.4632 4.79933 13.5049 4.67024 13.6095 4.65659L16.0507 4.33804C16.3854 4.29436 16.6755 4.08476 16.8221 3.78069L17.8874 1.5707Z" fill="#353566"/>
<path d="M17.5 18.25C17.0858 18.25 16.75 18.5858 16.75 19C16.75 19.4142 17.0858 19.75 17.5 19.75C17.9142 19.75 18.2501 19.4142 18.2501 19C18.2501 18.5858 17.9142 18.25 17.5 18.25Z" fill="#353566"/>
<path d="M13.75 19C13.75 18.5858 14.0858 18.25 14.5 18.25C14.9142 18.25 15.2501 18.5858 15.2501 19C15.2501 19.4142 14.9143 19.75 14.5001 19.75C14.0859 19.75 13.75 19.4142 13.75 19Z" fill="#353566"/>
<path fill-rule="evenodd" clip-rule="evenodd" d="M11.5201 4.50003C11.4694 4.86386 11.525 5.19445 11.6512 5.50003H9.13602C7.60744 5.50003 6.98366 5.50876 6.46755 5.71592C5.99268 5.90651 5.57447 6.2154 5.25265 6.61321C4.90288 7.04558 4.71108 7.63921 4.26154 9.10019L2.33014 15.3773C3.077 14.8259 4.00044 14.5 5 14.5H18C18.9996 14.5 19.923 14.8259 20.6699 15.3773L19.5252 11.657C19.9013 11.8278 20.2848 11.9535 20.6698 11.9767L22.1865 16.906C22.2346 17.0624 22.2622 17.1521 22.287 17.2424C22.4118 17.6983 22.4823 18.1673 22.4971 18.6398C22.5 18.7334 22.5 18.827 22.5 18.9909V19C22.5 21.4853 20.4853 23.5 18 23.5H5C2.51472 23.5 0.5 21.4853 0.5 19V18.9909C0.5 18.827 0.5 18.7334 0.502923 18.6398C0.517676 18.1673 0.588206 17.6983 0.713047 17.2424C0.73779 17.152 0.765288 17.0627 0.813477 16.906L3.34112 8.69117C3.74353 7.38253 3.9885 6.58589 4.47519 5.98427C4.90428 5.45386 5.46191 5.04201 6.09506 4.78788C6.81321 4.49963 7.64666 4.49978 9.01577 4.50001L11.5201 4.50003ZM1.5 19C1.5 17.067 3.067 15.5 5 15.5H18C19.933 15.5 21.5 17.067 21.5 19C21.5 20.933 19.933 22.5 18 22.5H5C3.067 22.5 1.5 20.933 1.5 19Z" fill="#353566"/>
</g>
<defs>
<clipPath id="clip0_9001_285283">
<rect width="24" height="24" fill="white"/>
</clipPath>
</defs>
</svg>
