<svg width="24" height="24" viewBox="0 0 24 24" fill="none" xmlns="http://www.w3.org/2000/svg">
<g opacity="0.4">
<path d="M7.37794 2.5C6.62656 2.5 6.03206 2.49999 5.55309 2.53913C5.0636 2.57912 4.65089 2.66246 4.27453 2.85423C3.663 3.16582 3.16582 3.663 2.85423 4.27453C2.66246 4.65089 2.57912 5.0636 2.53913 5.55309C2.49999 6.03206 2.5 6.62655 2.5 7.37794V14C2.5 14.2761 2.72386 14.5 3 14.5H14.0863C13.9784 13.9451 13.9749 13.4037 14.4393 12.9393L16.4393 10.9393C17.2086 10.17 18.5592 10.4915 18.9145 11.4989L19.2676 12.5H21.5V7.37793C21.5 6.62662 21.5 6.03203 21.4609 5.55309C21.4209 5.0636 21.3375 4.65089 21.1458 4.27453C20.8342 3.663 20.337 3.16582 19.7255 2.85423C19.3491 2.66246 18.9364 2.57912 18.4469 2.53913C17.9679 2.49999 17.3734 2.5 16.6221 2.5H7.37794Z" fill="#353566"/>
<path d="M13.5949 16C13.5358 16.1545 13.5 16.3193 13.5 16.5V17.5C13.5 18.0464 13.6461 18.5587 13.9013 19H3.25C2.00736 19 1 17.9926 1 16.75V16H13.5949Z" fill="#353566"/>
</g>
<path d="M7.37794 2.5H16.6221C17.3734 2.5 17.9679 2.49999 18.4469 2.53913C18.9364 2.57912 19.3491 2.66246 19.7255 2.85423C20.337 3.16582 20.8342 3.663 21.1458 4.27453C21.3375 4.65089 21.4209 5.0636 21.4609 5.55309C21.5 6.03202 21.5 6.62645 21.5 7.37775V12.5H20.5V7.4C20.5 6.62168 20.4996 6.06801 20.4642 5.63452C20.4293 5.20687 20.3627 4.94042 20.2548 4.72852C20.039 4.30516 19.6948 3.96095 19.2715 3.74524C19.0596 3.63727 18.7931 3.57075 18.3655 3.53581C17.932 3.50039 17.3783 3.5 16.6 3.5H7.4C6.62168 3.5 6.06801 3.50039 5.63452 3.53581C5.20687 3.57075 4.94042 3.63727 4.72852 3.74524C4.30516 3.96095 3.96095 4.30516 3.74524 4.72852C3.63727 4.94042 3.57075 5.20687 3.53581 5.63452C3.50039 6.06801 3.5 6.62168 3.5 7.4V14C3.5 14.2761 3.27614 14.5 3 14.5C2.72386 14.5 2.5 14.2761 2.5 14L2.5 7.37794C2.5 6.62656 2.49999 6.03206 2.53913 5.55309C2.57912 5.0636 2.66246 4.65089 2.85423 4.27453C3.16582 3.663 3.663 3.16582 4.27453 2.85423C4.65089 2.66246 5.0636 2.57912 5.55309 2.53913C6.03206 2.49999 6.62656 2.5 7.37794 2.5Z" fill="#353566"/>
<path d="M13.8721 15.5H1C0.867392 15.5 0.740215 15.5527 0.646447 15.6464C0.552678 15.7402 0.5 15.8674 0.5 16V16.75C0.5 18.2688 1.73122 19.5 3.25 19.5H14.2639C14.0056 19.2115 13.8024 18.8726 13.6707 18.5H3.25C2.2835 18.5 1.5 17.7165 1.5 16.75V16.5H13.5C13.5 16.1118 13.665 15.7972 13.8721 15.5Z" fill="#353566"/>
<path d="M23.5 15.5C23.5 14.3954 22.6046 13.5 21.5 13.5H16.707L17.8535 12.3536C18.0488 12.1583 18.0488 11.8417 17.8535 11.6464C17.6582 11.4512 17.3416 11.4512 17.1464 11.6464L15.1464 13.6464C15.0034 13.7894 14.9606 14.0045 15.038 14.1913C15.1154 14.3782 15.2977 14.5 15.4999 14.5H21.5C22.0523 14.5 22.5 14.9477 22.5 15.5V16.5C22.5 16.7761 22.7239 17 23 17C23.2761 17 23.5 16.7761 23.5 16.5V15.5Z" fill="#353566"/>
<path d="M14.5 17.5V16.5C14.5 16.2239 14.7239 16 15 16C15.2761 16 15.5 16.2239 15.5 16.5V17.5C15.5 18.0523 15.9477 18.5 16.5 18.5H22.5C22.7022 18.5 22.8846 18.6218 22.9619 18.8087C23.0393 18.9955 22.9965 19.2106 22.8535 19.3536L20.8535 21.3536C20.6582 21.5488 20.3416 21.5488 20.1464 21.3535C19.9511 21.1583 19.9511 20.8417 20.1464 20.6464L21.2929 19.5H16.5C15.3954 19.5 14.5 18.6046 14.5 17.5Z" fill="#353566"/>
</svg>
