<svg width="24" height="24" viewBox="0 0 24 24" fill="none" xmlns="http://www.w3.org/2000/svg">
<g opacity="0.4">
<path d="M7.37794 2.5C6.62656 2.5 6.03206 2.49999 5.55309 2.53913C5.0636 2.57912 4.65089 2.66246 4.27453 2.85423C3.663 3.16582 3.16582 3.663 2.85423 4.27453C2.66246 4.65089 2.57912 5.0636 2.53913 5.55309C2.49999 6.03206 2.5 6.62655 2.5 7.37794V14C2.5 14.2761 2.72386 14.5 3 14.5H12.003C11.9831 14.1007 12.0612 13.6984 12.2982 13.2886L12.92 12.2133C13.4548 11.2883 14.3623 11.0809 15.335 10.962C15.9238 10.1807 16.5564 9.5 17.6282 9.5H18.8718C19.9436 9.5 20.5763 10.1807 21.165 10.962C21.2777 10.9758 21.3895 10.9908 21.5 11.0079V7.37793C21.5 6.62662 21.5 6.03203 21.4609 5.55309C21.4209 5.0636 21.3375 4.65089 21.1458 4.27453C20.8342 3.663 20.337 3.16582 19.7255 2.85423C19.3491 2.66246 18.9364 2.57912 18.4469 2.53913C17.9679 2.49999 17.3734 2.5 16.6221 2.5H7.37794Z" fill="#353566"/>
<path d="M12.4218 16C12.0378 16.899 11.7632 17.7862 12.2982 18.7113L12.4651 19H3.25C2.00736 19 1 17.9926 1 16.75V16H12.4218Z" fill="#353566"/>
</g>
<path d="M7.37794 2.5H16.6221C17.3734 2.5 17.9679 2.49999 18.4469 2.53913C18.9364 2.57912 19.3491 2.66246 19.7255 2.85423C20.337 3.16582 20.8342 3.663 21.1458 4.27453C21.3375 4.65089 21.4209 5.0636 21.4609 5.55309C21.5 6.03202 21.5 6.62645 21.5 7.37775V11.0079C21.3895 10.9908 21.2777 10.9758 21.165 10.962C20.9549 10.6832 20.7392 10.4172 20.5 10.1904V7.4C20.5 6.62168 20.4996 6.06801 20.4642 5.63452C20.4293 5.20687 20.3627 4.94042 20.2548 4.72852C20.039 4.30516 19.6948 3.96095 19.2715 3.74524C19.0596 3.63727 18.7931 3.57075 18.3655 3.53581C17.932 3.50039 17.3783 3.5 16.6 3.5H7.4C6.62168 3.5 6.06801 3.50039 5.63452 3.53581C5.20687 3.57075 4.94042 3.63727 4.72852 3.74524C4.30516 3.96095 3.96095 4.30516 3.74524 4.72852C3.63727 4.94042 3.57075 5.20687 3.53581 5.63452C3.50039 6.06801 3.5 6.62168 3.5 7.4V14C3.5 14.2761 3.27614 14.5 3 14.5C2.72386 14.5 2.5 14.2761 2.5 14L2.5 7.37794C2.5 6.62656 2.49999 6.03206 2.53913 5.55309C2.57912 5.0636 2.66246 4.65089 2.85423 4.27453C3.16582 3.663 3.663 3.16582 4.27453 2.85423C4.65089 2.66246 5.0636 2.57912 5.55309 2.53913C6.03206 2.49999 6.62656 2.5 7.37794 2.5Z" fill="#353566"/>
<path d="M12.2237 15.5H1C0.867392 15.5 0.740215 15.5527 0.646447 15.6464C0.552678 15.7402 0.5 15.8674 0.5 16V16.75C0.5 18.2688 1.73122 19.5 3.25 19.5H12.7542L12.2982 18.7113C12.2573 18.6407 12.2212 18.5702 12.1894 18.5H3.25C2.2835 18.5 1.5 17.7165 1.5 16.75V16.5H12.2236C12.2829 16.3335 12.3505 16.1669 12.4218 15.9999C12.3505 15.833 12.283 15.6665 12.2237 15.5Z" fill="#353566"/>
<path fill-rule="evenodd" clip-rule="evenodd" d="M18.25 14.25C17.2835 14.25 16.5 15.0335 16.5 16C16.5 16.9665 17.2835 17.75 18.25 17.75C19.2165 17.75 20 16.9665 20 16C20 15.0335 19.2165 14.25 18.25 14.25ZM17.5 16C17.5 15.5858 17.8358 15.25 18.25 15.25C18.6642 15.25 19 15.5858 19 16C19 16.4142 18.6642 16.75 18.25 16.75C17.8358 16.75 17.5 16.4142 17.5 16Z" fill="#353566"/>
<path fill-rule="evenodd" clip-rule="evenodd" d="M13.1845 18.212C12.8047 17.5529 13.0297 16.7096 13.6886 16.3285C13.9408 16.1827 13.9408 15.8172 13.6886 15.6714C13.0297 15.2903 12.8047 14.447 13.1845 13.7879L13.8042 12.7126C14.1844 12.0529 15.0272 11.8263 15.6866 12.2076C15.937 12.3525 16.2527 12.1723 16.2527 11.8791C16.2527 11.1183 16.8686 10.5 17.6302 10.5L18.8697 10.5C19.6314 10.5 20.2473 11.1183 20.2473 11.8792C20.2473 12.1724 20.563 12.3525 20.8134 12.2077C21.4728 11.8263 22.3156 12.053 22.6958 12.7126L23.3155 13.788C23.6954 14.4471 23.4703 15.2903 22.8114 15.6714C22.5592 15.8172 22.5592 16.1826 22.8114 16.3285C23.4703 16.7096 23.6954 17.5528 23.3155 18.2119L22.6958 19.2872C22.3156 19.9469 21.4728 20.1736 20.8134 19.7922C20.563 19.6474 20.2473 19.8275 20.2473 20.1208C20.2473 20.8816 19.6314 21.5 18.8697 21.5H17.6303C16.8686 21.5 16.2527 20.8817 16.2527 20.1208C16.2527 19.8275 15.937 19.6474 15.6866 19.7922C15.0272 20.1736 14.1844 19.9469 13.8042 19.2873L13.1845 18.212ZM14.1893 17.1942C14.0087 17.2986 13.9461 17.5308 14.0509 17.7127L14.6707 18.788C14.7752 18.9693 15.0059 19.0308 15.1859 18.9266C16.1057 18.3946 17.2527 19.0605 17.2527 20.1208C17.2527 20.3311 17.4226 20.5 17.6303 20.5H18.8697C19.0774 20.5 19.2473 20.3311 19.2473 20.1208C19.2473 19.0605 20.3943 18.3946 21.3141 18.9265C21.4941 19.0307 21.7248 18.9693 21.8293 18.7879L22.4491 17.7126C22.5539 17.5307 22.4913 17.2986 22.3107 17.1941C21.3928 16.6632 21.3928 15.3367 22.3107 14.8058C22.4913 14.7013 22.5539 14.4692 22.4491 14.2873L21.8293 13.212C21.7248 13.0306 21.4941 12.9692 21.3141 13.0733C20.3943 13.6053 19.2473 12.9395 19.2473 11.8792C19.2473 11.6689 19.0774 11.5 18.8697 11.5H17.6302C17.4226 11.5 17.2527 11.6689 17.2527 11.8791C17.2527 12.9395 16.1056 13.6052 15.186 13.0733C15.0059 12.9691 14.7752 13.0306 14.6707 13.2119L14.0509 14.2872C13.9461 14.4691 14.0087 14.7013 14.1893 14.8057C15.1073 15.3367 15.1073 16.6632 14.1893 17.1942Z" fill="#353566"/>
</svg>
