<svg width="24" height="24" viewBox="0 0 24 24" fill="none" xmlns="http://www.w3.org/2000/svg">
<path opacity="0.4" d="M2 9.33456C2 5.28379 5.35786 2 9.5 2C13.6421 2 17 5.28379 17 9.33456C17 9.73108 16.9747 10.1195 16.9221 10.5005C13.7072 10.5382 11.0536 12.9098 10.5764 16H5.5C3 14 2 11.827 2 9.33456Z" fill="#353566"/>
<path d="M2.5 9.33456C2.5 5.57039 5.62343 2.5 9.5 2.5C13.3766 2.5 16.5 5.57039 16.5 9.33456C16.5 9.74026 16.472 10.1371 16.4131 10.5261C16.6065 10.5088 16.8022 10.5 17 10.5C17.1427 10.5 17.2844 10.5046 17.4248 10.5137C17.4754 10.1283 17.5 9.73539 17.5 9.33456C17.5 4.9972 13.9077 1.5 9.5 1.5C5.09229 1.5 1.5 4.9972 1.5 9.33456C1.5 11.9306 2.53049 14.1936 5 16.2377V17.5C5 18.2435 5.40574 18.8923 6.0079 19.237C6.12975 21.0595 7.64665 22.5 9.5 22.5C10.5491 22.5 11.4904 22.0384 12.1319 21.3073C11.9044 21.0503 11.6969 20.7752 11.5118 20.4844C11.0565 21.1005 10.3249 21.5 9.5 21.5C8.29052 21.5 7.28164 20.6411 7.05001 19.5H10.9982C10.8643 19.1789 10.7554 18.8448 10.6739 18.5H7C6.44772 18.5 6 18.0523 6 17.5V16.5H10.5189C10.5449 16.1586 10.5973 15.8246 10.6739 15.5H5.67716C3.38281 13.616 2.5 11.6143 2.5 9.33456Z" fill="#353566"/>
<path d="M17.5 14.5C17.5 14.2239 17.2761 14 17 14C16.7239 14 16.5 14.2239 16.5 14.5V17.0001C16.5 17.1672 16.5836 17.3234 16.7227 17.4161L18.2227 18.416C18.4524 18.5692 18.7629 18.5071 18.916 18.2773C19.0692 18.0476 19.0071 17.7371 18.7773 17.584L17.5 16.7325V14.5Z" fill="#353566"/>
<path fill-rule="evenodd" clip-rule="evenodd" d="M11.5 17C11.5 13.9624 13.9624 11.5 17 11.5C20.0376 11.5 22.5 13.9624 22.5 17C22.5 20.0376 20.0376 22.5 17 22.5C13.9624 22.5 11.5 20.0376 11.5 17ZM17 12.5C14.5147 12.5 12.5 14.5147 12.5 17C12.5 19.4853 14.5147 21.5 17 21.5C19.4853 21.5 21.5 19.4853 21.5 17C21.5 14.5147 19.4853 12.5 17 12.5Z" fill="#353566"/>
</svg>
