<svg width="24" height="24" viewBox="0 0 24 24" fill="none" xmlns="http://www.w3.org/2000/svg">
<path opacity="0.4" d="M3 9.33456C3 5.28379 6.35786 2 10.5 2C14.6421 2 18 5.28379 18 9.33456C18 9.77596 17.9686 10.2073 17.9031 10.6295C17.3895 10.8583 17.003 11.365 17.0001 11.9435C16.5775 12.0779 16.168 12.2671 15.808 12.5278C14.9963 13.1157 14.5003 14.0179 14.5003 15.0817C14.5003 15.3732 14.5417 15.647 14.6159 15.9063C14.5776 15.9375 14.539 15.9688 14.5 16H6.5C4 14 3 11.827 3 9.33456Z" fill="#353566"/>
<path fill-rule="evenodd" clip-rule="evenodd" d="M10.5 2.5C6.62343 2.5 3.5 5.57039 3.5 9.33456C3.5 11.6143 4.38281 13.616 6.67716 15.5H14.3228C14.3868 15.4475 14.4497 15.3948 14.5115 15.3421C14.5571 15.8688 14.7389 16.3369 15 16.7669V17.5C15 18.2435 14.5943 18.8923 13.9921 19.237C13.8703 21.0595 12.3534 22.5 10.5 22.5C8.64665 22.5 7.12975 21.0595 7.0079 19.237C6.40574 18.8923 6 18.2435 6 17.5V16.2377C3.53049 14.1936 2.5 11.9306 2.5 9.33456C2.5 4.9972 6.09229 1.5 10.5 1.5C14.9077 1.5 18.5 4.9972 18.5 9.33456C18.5 9.73136 18.4759 10.1204 18.4263 10.502C17.9843 10.5254 17.5696 10.7564 17.3025 11.0983C17.4375 10.5281 17.5 9.94116 17.5 9.33456C17.5 5.57039 14.3766 2.5 10.5 2.5ZM7 16.5V17.5C7 18.0523 7.44772 18.5 8 18.5H13C13.5523 18.5 14 18.0523 14 17.5V16.5H7ZM10.5 21.5C9.29052 21.5 8.28164 20.6411 8.05001 19.5H12.95C12.7184 20.6411 11.7095 21.5 10.5 21.5Z" fill="#353566"/>
<path d="M18 12.7749V12C18 11.7239 18.2239 11.5 18.5 11.5C18.7761 11.5 19 11.7239 19 12V12.7708C19.3289 12.801 19.6294 12.8671 19.9344 12.988C20.3749 13.1627 20.794 13.4404 21.3019 13.8249C21.522 13.9916 21.5653 14.3052 21.3987 14.5254C21.232 14.7455 20.9183 14.7889 20.6982 14.6222C20.206 14.2495 19.8752 14.0404 19.5657 13.9176C19.2679 13.7995 18.9604 13.75 18.5 13.75C17.821 13.75 17.3089 13.91 16.9808 14.1476C16.6677 14.3743 16.5 14.6843 16.5 15.0817C16.5 15.573 16.7356 15.8639 17.1193 16.0786C17.5345 16.311 18.0791 16.4229 18.5822 16.5068C19.0791 16.5896 19.7845 16.7214 20.3693 17.0488C20.9856 17.3938 21.5 17.9788 21.5 18.9183C21.5 19.6495 21.1677 20.2554 20.6058 20.6623C20.1725 20.9761 19.6194 21.1616 19 21.2251V22C19 22.2761 18.7761 22.5 18.5 22.5C18.2239 22.5 18 22.2761 18 22V21.2292C17.6711 21.199 17.3706 21.1329 17.0657 21.0119C16.6252 20.8372 16.206 20.5596 15.6982 20.175C15.478 20.0083 15.4347 19.6947 15.6014 19.4746C15.7681 19.2544 16.0817 19.2111 16.3019 19.3778C16.794 19.7505 17.1249 19.9596 17.4344 20.0824C17.7322 20.2005 18.0396 20.25 18.5 20.25C19.179 20.25 19.6912 20.09 20.0193 19.8524C20.3323 19.6257 20.5 19.3157 20.5 18.9183C20.5 18.427 20.2644 18.1361 19.8808 17.9214C19.4656 17.689 18.921 17.5771 18.4178 17.4932C17.921 17.4104 17.2156 17.2786 16.6308 16.9512C16.0144 16.6062 15.5 16.0212 15.5 15.0817C15.5 14.3505 15.8323 13.7446 16.3942 13.3377C16.8275 13.0239 17.3806 12.8384 18 12.7749Z" fill="#353566"/>
</svg>
