<svg width="24" height="24" viewBox="0 0 24 24" fill="none" xmlns="http://www.w3.org/2000/svg">
<path opacity="0.4" d="M2 9.33456C2 5.28379 5.35786 2 9.5 2C13.6421 2 17 5.28379 17 9.33456C17 10.6495 16.7217 11.8755 16.0916 13.0341C15.9808 13.012 15.8666 13 15.749 13C14.4458 13 13.9934 14.0559 13.61 15.088C13.4667 15.4792 13.1885 15.8005 12.8283 16H5.5C3 14 2 11.827 2 9.33456Z" fill="#353566"/>
<path d="M2.5 9.33456C2.5 5.57039 5.62343 2.5 9.5 2.5C13.3766 2.5 16.5 5.57039 16.5 9.33456C16.5 10.6411 16.21 11.8564 15.5306 13.0105C15.6006 13.0036 15.6734 13 15.749 13C16.0449 13 16.3197 13.0761 16.5713 13.1976C17.2107 11.9921 17.5 10.7101 17.5 9.33456C17.5 4.9972 13.9077 1.5 9.5 1.5C5.09229 1.5 1.5 4.9972 1.5 9.33456C1.5 11.9306 2.53049 14.1936 5 16.2377V17.5C5 18.2435 5.40574 18.8923 6.0079 19.237C6.12975 21.0595 7.64665 22.5 9.5 22.5C10.9227 22.5 12.1472 21.6511 12.6945 20.4322C12.6596 20.4167 12.6241 20.4023 12.588 20.389C12.3098 20.286 12.03 20.1779 11.7697 20.0495C11.3731 20.9059 10.5059 21.5 9.5 21.5C8.29052 21.5 7.28164 20.6411 7.05001 19.5H10.9786C10.7328 19.2433 10.5621 18.9214 10.5139 18.5H7C6.44772 18.5 6 18.0523 6 17.5V16.5H11.6717C11.9586 16.3494 12.2733 16.227 12.586 16.111C12.9625 15.9721 13.2742 15.711 13.4744 15.3736C13.4246 15.4158 13.3741 15.4579 13.3228 15.5H5.67716C3.38281 13.616 2.5 11.6143 2.5 9.33456Z" fill="#353566"/>
<path fill-rule="evenodd" clip-rule="evenodd" d="M14.8479 14.6281C15.1578 13.7906 16.3422 13.7906 16.6521 14.6281L16.9505 15.4345C17.2274 16.1827 17.8173 16.7726 18.5655 17.0495L19.3719 17.3479C20.2094 17.6578 20.2094 18.8422 19.3719 19.1521L18.5655 19.4505C17.8173 19.7274 17.2274 20.3173 16.9505 21.0655L16.6521 21.8719C16.3422 22.7094 15.1578 22.7094 14.8479 21.8719L14.5495 21.0655C14.2726 20.3173 13.6827 19.7274 12.9345 19.4505L12.1281 19.1521C11.2906 18.8422 11.2906 17.6578 12.1281 17.3479L12.9345 17.0495C13.6827 16.7726 14.2726 16.1827 14.5495 15.4345L14.8479 14.6281ZM15.75 15.0717L15.4873 15.7816C15.1092 16.8035 14.3035 17.6092 13.2816 17.9873L12.5717 18.25L13.2816 18.5127C14.3035 18.8908 15.1092 19.6965 15.4873 20.7184L15.75 21.4283L16.0127 20.7184C16.3908 19.6965 17.1965 18.8908 18.2184 18.5127L18.9283 18.25L18.2184 17.9873C17.1965 17.6092 16.3908 16.8035 16.0127 15.7816L15.75 15.0717Z" fill="#353566"/>
<path d="M20.1269 12.0883C20.0833 11.9706 19.9167 11.9706 19.8731 12.0883L19.6789 12.6133C19.4962 13.107 19.107 13.4962 18.6133 13.6789L18.0883 13.8731C17.9706 13.9167 17.9706 14.0833 18.0883 14.1269L18.6133 14.3211C19.107 14.5038 19.4962 14.893 19.6789 15.3867L19.8731 15.9117C19.9167 16.0294 20.0833 16.0294 20.1269 15.9117L20.3211 15.3867C20.5038 14.893 20.893 14.5038 21.3867 14.3211L21.9117 14.1269C22.0294 14.0833 22.0294 13.9167 21.9117 13.8731L21.3867 13.6789C20.893 13.4962 20.5038 13.107 20.3211 12.6133L20.1269 12.0883Z" fill="#353566"/>
</svg>
