<svg width="24" height="24" viewBox="0 0 24 24" fill="none" xmlns="http://www.w3.org/2000/svg">
<path opacity="0.4" d="M9 2C6.79086 2 5 3.79086 5 6V12C5 14.2091 6.79086 16 9 16C9.58462 16 10.14 15.8746 10.6406 15.6492C10.9623 14.1268 11.8169 12.8011 13 11.8762V6C13 3.79086 11.2091 2 9 2Z" fill="#353566"/>
<path d="M9 1.5C6.51472 1.5 4.5 3.51472 4.5 6V12C4.5 14.4853 6.51472 16.5 9 16.5C9.54297 16.5 10.0635 16.4038 10.5454 16.2276C10.5958 15.802 10.6873 15.389 10.8159 14.9927C10.2865 15.3146 9.66488 15.5 9 15.5C7.067 15.5 5.5 13.933 5.5 12V6C5.5 4.067 7.067 2.5 9 2.5C10.933 2.5 12.5 4.067 12.5 6V12C12.5 12.1092 12.495 12.2172 12.4852 12.3238C12.7954 12.0243 13.1353 11.7553 13.5 11.5218V6C13.5 3.51472 11.4853 1.5 9 1.5Z" fill="#353566"/>
<path d="M9.00504 18.5C9.56576 18.4996 10.1099 18.4282 10.6289 18.2943C10.6957 18.6248 10.7875 18.9463 10.9024 19.2566C10.4502 19.3749 9.98129 19.4519 9.5 19.4836V21.5H12.3096C12.6204 21.8239 12.9645 22.1157 13.3364 22.3699C13.2476 22.4507 13.1295 22.5 13 22.5H5C4.72386 22.5 4.5 22.2761 4.5 22C4.5 21.7239 4.72386 21.5 5 21.5H8.5V19.4836C4.59098 19.2263 1.5 15.9741 1.5 12C1.5 11.7239 1.72386 11.5 2 11.5C2.27614 11.5 2.5 11.7239 2.5 12C2.5 15.5882 5.40743 18.4973 8.99496 18.5L9 18.5L9.00504 18.5Z" fill="#353566"/>
<path d="M19.5 17C19.5 17.2761 19.2761 17.5 19 17.5H17.5V19C17.5 19.2761 17.2761 19.5 17 19.5C16.7239 19.5 16.5 19.2761 16.5 19V17.5H15C14.7239 17.5 14.5 17.2761 14.5 17C14.5 16.7239 14.7239 16.5 15 16.5H16.5V15C16.5 14.7239 16.7239 14.5 17 14.5C17.2761 14.5 17.5 14.7239 17.5 15V16.5H19C19.2761 16.5 19.5 16.7239 19.5 17Z" fill="#353566"/>
<path fill-rule="evenodd" clip-rule="evenodd" d="M17 11.5C13.9624 11.5 11.5 13.9624 11.5 17C11.5 20.0376 13.9624 22.5 17 22.5C20.0376 22.5 22.5 20.0376 22.5 17C22.5 13.9624 20.0376 11.5 17 11.5ZM12.5 17C12.5 14.5147 14.5147 12.5 17 12.5C19.4853 12.5 21.5 14.5147 21.5 17C21.5 19.4853 19.4853 21.5 17 21.5C14.5147 21.5 12.5 19.4853 12.5 17Z" fill="#353566"/>
</svg>
