<svg width="24" height="24" viewBox="0 0 24 24" fill="none" xmlns="http://www.w3.org/2000/svg">
<path opacity="0.4" d="M2.35423 3.77453C2 4.46974 2 5.37983 2 7.2V16.8C2 18.6202 2 19.5303 2.35423 20.2255C2.66582 20.837 3.163 21.3342 3.77453 21.6458C4.46974 22 5.37983 22 7.2 22H10.8C12.6202 22 13.5303 22 14.2255 21.6458C14.4516 21.5305 14.6622 21.3899 14.8534 21.2275C13.5636 19.8534 12.4999 18.1114 12.4999 16.002C12.4999 13.6705 13.951 11.6759 16 10.8752V7.2C16 5.37983 16 4.46974 15.6458 3.77453C15.3342 3.163 14.837 2.66582 14.2255 2.35423C13.5303 2 12.6202 2 10.8 2H7.2C5.37983 2 4.46974 2 3.77453 2.35423C3.163 2.66582 2.66582 3.163 2.35423 3.77453Z" fill="#353566"/>
<path d="M7.17767 1.5C6.2865 1.5 5.58703 1.49999 5.02469 1.54594C4.45183 1.59274 3.97738 1.68971 3.54754 1.90873C2.84193 2.26825 2.26825 2.84193 1.90873 3.54754C1.68971 3.97738 1.59274 4.45183 1.54594 5.02469C1.49999 5.58703 1.5 6.28649 1.5 7.17766V16.8223C1.5 17.7135 1.49999 18.413 1.54594 18.9753C1.59274 19.5482 1.68971 20.0226 1.90873 20.4525C2.26825 21.1581 2.84193 21.7317 3.54754 22.0913C3.97738 22.3103 4.45183 22.4073 5.02469 22.4541C5.58703 22.5 6.28648 22.5 7.17765 22.5H10.8223C11.7135 22.5 12.413 22.5 12.9753 22.4541C13.5482 22.4073 14.0226 22.3103 14.4525 22.0913C14.7238 21.953 14.9756 21.7831 15.2033 21.5862C14.9687 21.3543 14.7389 21.1109 14.5185 20.8559C14.3597 20.9893 14.1854 21.105 13.9985 21.2003C13.7331 21.3355 13.4049 21.4156 12.8939 21.4574C12.377 21.4996 11.7183 21.5 10.8 21.5H7.2C6.28166 21.5 5.62298 21.4996 5.10612 21.4574C4.5951 21.4156 4.2669 21.3355 4.00153 21.2003C3.48408 20.9366 3.06338 20.5159 2.79973 19.9985C2.66452 19.7331 2.58437 19.4049 2.54262 18.8939C2.50039 18.377 2.5 17.7183 2.5 16.8V7.2C2.5 6.28166 2.50039 5.62298 2.54262 5.10612C2.58437 4.5951 2.66452 4.2669 2.79973 4.00153C3.06338 3.48408 3.48408 3.06338 4.00153 2.79973C4.2669 2.66452 4.5951 2.58437 5.10612 2.54262C5.62298 2.50039 6.28166 2.5 7.2 2.5H10.8C11.7183 2.5 12.377 2.50039 12.8939 2.54262C13.4049 2.58437 13.7331 2.66452 13.9985 2.79973C14.5159 3.06338 14.9366 3.48408 15.2003 4.00153C15.3355 4.2669 15.4156 4.5951 15.4574 5.10612C15.4996 5.62298 15.5 6.28166 15.5 7.2V11.1001C15.8168 10.9381 16.1513 10.8059 16.5 10.7072V7.17765C16.5 6.2865 16.5 5.58702 16.4541 5.02469C16.4073 4.45183 16.3103 3.97738 16.0913 3.54754C15.7317 2.84193 15.1581 2.26825 14.4525 1.90873C14.0226 1.68971 13.5482 1.59274 12.9753 1.54594C12.413 1.49999 11.7135 1.5 10.8223 1.5H7.17767Z" fill="#353566"/>
<path d="M8.25 18.5C8.25 18.0858 8.58579 17.75 9 17.75C9.41421 17.75 9.7501 18.0858 9.7501 18.5C9.7501 18.9142 9.41431 19.25 9.0001 19.25C8.58589 19.25 8.25 18.9142 8.25 18.5Z" fill="#353566"/>
<path d="M7.5 4.5C7.22386 4.5 7 4.72386 7 5C7 5.27614 7.22386 5.5 7.5 5.5H10.5C10.7761 5.5 11 5.27614 11 5C11 4.72386 10.7761 4.5 10.5 4.5H7.5Z" fill="#353566"/>
<path fill-rule="evenodd" clip-rule="evenodd" d="M18 14C16.8954 14 16 14.8954 16 16C16 17.1046 16.8954 18 18 18C19.1046 18 20 17.1046 20 16C20 14.8954 19.1046 14 18 14ZM17 16C17 15.4477 17.4477 15 18 15C18.5523 15 19 15.4477 19 16C19 16.5523 18.5523 17 18 17C17.4477 17 17 16.5523 17 16Z" fill="#353566"/>
<path fill-rule="evenodd" clip-rule="evenodd" d="M13.5 16.002C13.5 13.517 15.5144 11.5 18.0001 11.5C20.4854 11.5 22.5 13.5147 22.5 16C22.5 18.7667 20.3 20.9 18.3 22.4C18.1222 22.5333 17.8778 22.5333 17.7 22.4C15.7001 20.9001 13.5 18.7667 13.5 16.002ZM18.0001 12.5C16.0674 12.5 14.5 14.0687 14.5 16.002C14.5 18.1211 16.1234 19.9113 18 21.3709C19.8765 19.9113 21.5 18.121 21.5 16C21.5 14.067 19.9331 12.5 18.0001 12.5Z" fill="#353566"/>
</svg>
