<svg width="24" height="24" viewBox="0 0 24 24" fill="none" xmlns="http://www.w3.org/2000/svg">
<path opacity="0.4" d="M15.5 7.5H2.5V12C2.5 15.5899 5.41015 18.5 9 18.5C10.7788 18.5 12.3908 17.7854 13.5645 16.6277C13.7141 15.9171 14.1152 15.299 14.674 14.8694L14.9252 14.6763C15.0576 14.3836 15.169 14.0793 15.2574 13.7654C15.2775 13.4502 15.3414 13.151 15.4422 12.8708C15.4803 12.5859 15.5 12.2953 15.5 12V7.5Z" fill="#353566"/>
<path d="M6.25 2C6.25 1.72386 6.02614 1.5 5.75 1.5C5.47386 1.5 5.25 1.72386 5.25 2V5.5H6.25V2Z" fill="#353566"/>
<path fill-rule="evenodd" clip-rule="evenodd" d="M2 8V12C2 15.6979 4.86736 18.726 8.5 18.9824V22C8.5 22.2761 8.72386 22.5 9 22.5C9.27614 22.5 9.5 22.2761 9.5 22V18.9824C11.0181 18.8753 12.4026 18.284 13.5 17.3621V17.25C13.5 16.2815 13.9573 15.4204 14.674 14.8694L15.2149 14.4536L15.2569 13.7726C15.3016 13.0494 15.5763 12.4094 16 11.8916V8H17C17.2761 8 17.5 7.77614 17.5 7.5C17.5 7.22386 17.2761 7 17 7L1 7C0.723858 7 0.5 7.22386 0.5 7.5C0.5 7.77614 0.723858 8 1 8H2ZM3 8H15V12C15 15.3137 12.3137 18 9 18C5.68629 18 3 15.3137 3 12V8Z" fill="#353566"/>
<path d="M12.25 1.5C12.5261 1.5 12.75 1.72386 12.75 2V5.5H11.75V2C11.75 1.72386 11.9739 1.5 12.25 1.5Z" fill="#353566"/>
<path fill-rule="evenodd" clip-rule="evenodd" d="M16.25 14C16.25 12.5656 17.5382 11.5 19 11.5C20.4618 11.5 21.75 12.5656 21.75 14V15.25C22.7165 15.25 23.5 16.0335 23.5 17V20.75C23.5 21.7165 22.7165 22.5 21.75 22.5H16.25C15.2835 22.5 14.5 21.7165 14.5 20.75V17C14.5 16.0335 15.2835 15.25 16.25 15.25V14ZM17.25 15.25H20.75V14C20.75 13.2253 20.0235 12.5 19 12.5C17.9765 12.5 17.25 13.2253 17.25 14V15.25ZM16.25 16.25C15.8358 16.25 15.5 16.5858 15.5 17V20.75C15.5 21.1642 15.8358 21.5 16.25 21.5H21.75C22.1642 21.5 22.5 21.1642 22.5 20.75V17C22.5 16.5858 22.1642 16.25 21.75 16.25H16.25Z" fill="#353566"/>
</svg>
