<svg width="24" height="24" viewBox="0 0 24 24" fill="none" xmlns="http://www.w3.org/2000/svg">
<g clip-path="url(#clip0_9001_286167)">
<path opacity="0.4" d="M13.8629 9H5.8C4.11984 9 3.27976 9 2.63803 9.32698C2.07354 9.6146 1.6146 10.0735 1.32698 10.638C1 11.2798 1 12.1198 1 13.8V16.6C1 17.4401 1 17.8601 1.16349 18.181C1.3073 18.4632 1.53677 18.6927 1.81901 18.8365C2.13988 19 2.55992 19 3.4 19H5V15H17V19H18.6C19.4401 19 19.8601 19 20.181 18.8365C20.4632 18.6927 20.6927 18.4632 20.8365 18.181C21 17.8601 21 17.4401 21 16.6V13.8C21 12.1198 21 11.2798 20.673 10.638C20.5698 10.4355 20.4445 10.2465 20.3002 10.0742C19.5655 10.3557 18.7875 10.5 18 10.5C16.5111 10.5 15.0566 9.98441 13.8629 9Z" fill="#353566"/>
<path fill-rule="evenodd" clip-rule="evenodd" d="M13.319 8.5H5.7778C4.95655 8.5 4.30953 8.49999 3.78889 8.54253C3.25771 8.58593 2.81414 8.67609 2.41103 8.88148C1.75247 9.21703 1.21704 9.75247 0.881479 10.411C0.676088 10.8141 0.585933 11.2577 0.542535 11.7889C0.499996 12.3095 0.499998 12.9565 0.5 13.7777V16.6206C0.499995 17.0231 0.49999 17.3553 0.522098 17.6259C0.545061 17.907 0.594343 18.1653 0.717988 18.408C0.909735 18.7843 1.2157 19.0903 1.59202 19.282C1.83469 19.4057 2.09304 19.4549 2.37409 19.4779C2.64468 19.5 2.97686 19.5 3.37934 19.5H4.5V21.5C4.5 22.6046 5.39543 23.5 6.5 23.5H15.5C16.6046 23.5 17.5 22.6046 17.5 21.5V19.5H18.6207C19.0231 19.5 19.3553 19.5 19.6259 19.4779C19.907 19.4549 20.1653 19.4057 20.408 19.282C20.7843 19.0903 21.0903 18.7843 21.282 18.408C21.4057 18.1653 21.4549 17.907 21.4779 17.6259C21.5 17.3553 21.5 17.0232 21.5 16.6207V13.7778C21.5 12.9565 21.5 12.3095 21.4575 11.7889C21.4141 11.2577 21.3239 10.8141 21.1185 10.411C21.0209 10.2194 20.9063 10.0382 20.7767 9.86934C20.4547 10.0233 20.1225 10.1496 19.7831 10.2477C19.9608 10.4285 20.111 10.6364 20.2275 10.865C20.3491 11.1037 20.4224 11.401 20.4608 11.8703C20.4996 12.3455 20.5 12.9517 20.5 13.8V16.6C20.5 17.0283 20.4996 17.3194 20.4812 17.5445C20.4633 17.7637 20.4309 17.8758 20.391 17.954C20.2951 18.1422 20.1422 18.2951 19.954 18.391C19.8758 18.4309 19.7637 18.4633 19.5445 18.4812C19.3194 18.4996 19.0283 18.5 18.6 18.5H17.5V15C17.5 14.7239 17.2761 14.5 17 14.5H5C4.72386 14.5 4.5 14.7239 4.5 15V18.5H3.4C2.97171 18.5 2.68056 18.4996 2.45552 18.4812C2.23631 18.4633 2.12421 18.4309 2.04601 18.391C1.85785 18.2951 1.70487 18.1422 1.60899 17.954C1.56915 17.8758 1.53669 17.7637 1.51878 17.5445C1.50039 17.3194 1.5 17.0283 1.5 16.6V13.8C1.5 12.9517 1.50039 12.3455 1.53921 11.8703C1.57756 11.401 1.6509 11.1037 1.77249 10.865C2.01217 10.3946 2.39462 10.0122 2.86503 9.77248C3.10366 9.65089 3.40099 9.57756 3.87032 9.53921C4.3455 9.50039 4.95167 9.5 5.8 9.5H14.5541C14.1135 9.22235 13.6988 8.88838 13.319 8.5ZM5.5 21.5V15.5H16.5V21.5C16.5 22.0523 16.0523 22.5 15.5 22.5H6.5C5.94772 22.5 5.5 22.0523 5.5 21.5Z" fill="#353566"/>
<path d="M14.4073 0.595239C14.2123 0.53279 14.0068 0.5 13.7974 0.5H6.5C5.39543 0.5 4.5 1.39543 4.5 2.5V6C4.5 6.27614 4.72386 6.5 5 6.5C5.27614 6.5 5.5 6.27614 5.5 6V2.5C5.5 1.94772 5.94772 1.5 6.5 1.5H13.319C13.6563 1.15504 14.0212 0.853012 14.4073 0.595239Z" fill="#353566"/>
<path fill-rule="evenodd" clip-rule="evenodd" d="M18 3C16.8942 3 16 3.89425 16 5C16 6.10575 16.8942 7 18 7C19.1058 7 20 6.10575 20 5C20 3.89425 19.1058 3 18 3ZM17 5C17 4.44653 17.4465 4 18 4C18.5535 4 19 4.44653 19 5C19 5.55347 18.5535 6 18 6C17.4465 6 17 5.55347 17 5Z" fill="#353566"/>
<path fill-rule="evenodd" clip-rule="evenodd" d="M18 0.5C20.2068 0.5 22.3768 1.84732 23.3973 4.45386C23.5342 4.80356 23.5342 5.19644 23.3973 5.54613C22.3768 8.15268 20.2068 9.5 18 9.5C15.7932 9.5 13.6232 8.15268 12.6027 5.54614C12.4658 5.19644 12.4658 4.80356 12.6027 4.45387C13.6232 1.84733 15.7932 0.5 18 0.5ZM18 1.5C16.2242 1.5 14.4115 2.57678 13.5339 4.81844C13.4887 4.93375 13.4887 5.06626 13.5339 5.18156C14.4115 7.42322 16.2242 8.5 18 8.5C19.7758 8.5 21.5885 7.42322 22.4661 5.18156C22.5113 5.06625 22.5113 4.93375 22.4661 4.81844C21.5885 2.57678 19.7758 1.5 18 1.5Z" fill="#353566"/>
</g>
<defs>
<clipPath id="clip0_9001_286167">
<rect width="24" height="24" fill="white"/>
</clipPath>
</defs>
</svg>
