<svg width="24" height="24" viewBox="0 0 24 24" fill="none" xmlns="http://www.w3.org/2000/svg">
<g clip-path="url(#clip0_9001_286177)">
<path opacity="0.4" d="M16.5038 9.00008C16.4057 9 16.3045 9 16.2 9H5.8C4.11984 9 3.27976 9 2.63803 9.32698C2.07354 9.6146 1.6146 10.0735 1.32698 10.638C1 11.2798 1 12.1198 1 13.8V16.6C1 17.4401 1 17.8601 1.16349 18.181C1.3073 18.4632 1.53677 18.6927 1.81901 18.8365C2.13988 19 2.55992 19 3.4 19H5V15H17V19H18.6C19.4401 19 19.8601 19 20.181 18.8365C20.4632 18.6927 20.6927 18.4632 20.8365 18.181C21 17.8601 21 17.4401 21 16.6V13.8C21 12.3037 21 11.4737 20.7691 10.8567L20.0593 11.744C18.8806 13.2177 16.5038 12.3847 16.5038 10.4962V9.00008Z" fill="#353566"/>
<path fill-rule="evenodd" clip-rule="evenodd" d="M20.5009 1.50068C20.5009 0.555023 19.3101 0.138642 18.72 0.876205L14.72 5.87564C14.196 6.53064 14.663 7.49984 15.5009 7.49984H17.5009V10.4992C17.5009 11.4449 18.6917 11.8613 19.2818 11.1237L23.2818 6.12427C23.8058 5.46926 23.3388 4.50006 22.5009 4.50006H20.5009V1.50068ZM19.5009 1.50068V4.50032C19.5009 5.05271 19.9489 5.50006 20.5009 5.50006H22.5005L18.501 10.499L18.5009 7.49958C18.5009 6.94719 18.0529 6.49984 17.5009 6.49984H15.5013L19.5009 1.50068Z" fill="#353566"/>
<path d="M15.3339 1.21957L16.2706 2.34363L15.6331 3.14066L14.5657 1.85975C14.3757 1.63176 14.0942 1.49994 13.7974 1.49994H6.5C5.94772 1.49994 5.5 1.94765 5.5 2.49994V5.99994C5.5 6.27608 5.27614 6.49994 5 6.49994C4.72386 6.49994 4.5 6.27608 4.5 5.99994V2.49994C4.5 1.39537 5.39543 0.499939 6.5 0.499939H13.7974C14.391 0.499939 14.9539 0.763585 15.3339 1.21957Z" fill="#353566"/>
<path fill-rule="evenodd" clip-rule="evenodd" d="M15.3731 8.49994L16.5038 8.65531V9.50003L5.8 9.49994C4.95167 9.49994 4.3455 9.50033 3.87032 9.53915C3.40099 9.5775 3.10366 9.65083 2.86503 9.77242C2.39462 10.0121 2.01217 10.3946 1.77249 10.865C1.6509 11.1036 1.57756 11.4009 1.53921 11.8703C1.50039 12.3454 1.5 12.9516 1.5 13.7999V16.5999C1.5 17.0282 1.50039 17.3194 1.51878 17.5444C1.53669 17.7636 1.56915 17.8757 1.60899 17.9539C1.70487 18.1421 1.85785 18.2951 2.04601 18.3909C2.12421 18.4308 2.23631 18.4633 2.45552 18.4812C2.68056 18.4995 2.97171 18.4999 3.4 18.4999H4.5V14.9999C4.5 14.7238 4.72386 14.4999 5 14.4999H17C17.2761 14.4999 17.5 14.7238 17.5 14.9999V18.4999H18.6C19.0283 18.4999 19.3194 18.4995 19.5445 18.4812C19.7637 18.4633 19.8758 18.4308 19.954 18.3909C20.1422 18.2951 20.2951 18.1421 20.391 17.9539C20.4309 17.8757 20.4633 17.7636 20.4812 17.5444C20.4996 17.3194 20.5 17.0282 20.5 16.5999V13.7999C20.5 12.9516 20.4996 12.3454 20.4608 11.8703C20.4437 11.6605 20.4195 11.4852 20.3872 11.334L21.1213 10.4163C21.3247 10.818 21.4143 11.26 21.4575 11.7888C21.5 12.3095 21.5 12.9565 21.5 13.7777V16.6206C21.5 17.0231 21.5 17.3553 21.4779 17.6259C21.4549 17.9069 21.4057 18.1653 21.282 18.4079C21.0903 18.7842 20.7843 19.0902 20.408 19.282C20.1653 19.4056 19.907 19.4549 19.6259 19.4778C19.3553 19.5 19.0231 19.4999 18.6207 19.4999H17.5V21.4999C17.5 22.6045 16.6046 23.4999 15.5 23.4999H6.5C5.39543 23.4999 4.5 22.6045 4.5 21.4999V19.4999H3.37934C2.97686 19.4999 2.64468 19.5 2.37409 19.4778C2.09304 19.4549 1.83469 19.4056 1.59202 19.282C1.2157 19.0902 0.909735 18.7842 0.717988 18.4079C0.594343 18.1653 0.545061 17.9069 0.522098 17.6259C0.49999 17.3553 0.499995 17.0231 0.5 16.6206V13.7777C0.499998 12.9565 0.499996 12.3095 0.542535 11.7888C0.585933 11.2577 0.676088 10.8141 0.881479 10.411C1.21704 9.75241 1.75247 9.21697 2.41103 8.88142C2.81414 8.67603 3.25771 8.58587 3.78889 8.54247C4.30953 8.49993 4.95648 8.49994 5.77772 8.49994H15.3731ZM5.5 21.4999C5.5 22.0522 5.94772 22.4999 6.5 22.4999H15.5C16.0523 22.4999 16.5 22.0522 16.5 21.4999V15.4999H5.5V21.4999Z" fill="#353566"/>
</g>
<defs>
<clipPath id="clip0_9001_286177">
<rect width="24" height="24" fill="white"/>
</clipPath>
</defs>
</svg>
