<svg width="24" height="24" viewBox="0 0 24 24" fill="none" xmlns="http://www.w3.org/2000/svg">
<path opacity="0.4" d="M1.35423 3.77453C1 4.46974 1 5.37983 1 7.2V16.8C1 18.6202 1 19.5303 1.35423 20.2255C1.66582 20.837 2.163 21.3342 2.77453 21.6458C3.46974 22 4.37983 22 6.2 22H12.8C13.0499 22 13.2826 22 13.4999 21.9991C13.5 21.8745 13.5156 21.7493 13.5473 21.6261C13.8677 20.3813 14.6311 19.3256 15.6545 18.5892L16.889 17.701C16.889 17.701 16.4452 17.2019 15.9838 16.5789C15.5223 15.9558 15.25 15.0869 15.25 14.25C15.25 12.5252 16.4144 11.0724 18 10.6348V7.2C18 5.37983 18 4.46974 17.6458 3.77453C17.3342 3.163 16.837 2.66582 16.2255 2.35423C15.5303 2 14.6202 2 12.8 2H6.2C4.37983 2 3.46974 2 2.77453 2.35423C2.163 2.66582 1.66582 3.163 1.35423 3.77453Z" fill="#353566"/>
<path d="M6.17767 1.5C5.28649 1.5 4.58703 1.49999 4.02469 1.54594C3.45183 1.59274 2.97738 1.68971 2.54754 1.90873C1.84193 2.26825 1.26825 2.84193 0.908726 3.54754C0.689711 3.97738 0.592744 4.45183 0.545939 5.02469C0.499995 5.58703 0.499997 6.28649 0.5 7.17766V16.8223C0.499997 17.7135 0.499995 18.413 0.545939 18.9753C0.592744 19.5482 0.689711 20.0226 0.908726 20.4525C1.26825 21.1581 1.84193 21.7317 2.54754 22.0913C2.97738 22.3103 3.45183 22.4073 4.02469 22.4541C4.58703 22.5 5.28648 22.5 6.17765 22.5H12.8235C13.0947 22.5 13.3481 22.5 13.5853 22.4987C13.4876 22.2213 13.4723 21.9178 13.5474 21.6261C13.5584 21.5834 13.5699 21.5409 13.5819 21.4987C13.3438 21.5 13.0844 21.5 12.8 21.5H6.2C5.28166 21.5 4.62298 21.4996 4.10612 21.4574C3.5951 21.4156 3.2669 21.3355 3.00153 21.2003C2.48408 20.9366 2.06338 20.5159 1.79973 19.9985C1.66452 19.7331 1.58437 19.4049 1.54262 18.8939C1.50039 18.377 1.5 17.7183 1.5 16.8V7.2C1.5 6.28166 1.50039 5.62298 1.54262 5.10612C1.58437 4.5951 1.66452 4.2669 1.79973 4.00153C2.06338 3.48408 2.48408 3.06338 3.00153 2.79973C3.2669 2.66452 3.5951 2.58437 4.10612 2.54262C4.62298 2.50039 5.28166 2.5 6.2 2.5H12.8C13.7183 2.5 14.377 2.50039 14.8939 2.54262C15.4049 2.58437 15.7331 2.66452 15.9985 2.79973C16.5159 3.06338 16.9366 3.48408 17.2003 4.00153C17.3355 4.2669 17.4156 4.5951 17.4574 5.10612C17.4996 5.62298 17.5 6.28166 17.5 7.2V10.812C17.8133 10.6751 18.149 10.5798 18.5 10.533V7.17765C18.5 6.28648 18.5 5.58703 18.4541 5.02469C18.4073 4.45183 18.3103 3.97738 18.0913 3.54754C17.7317 2.84193 17.1581 2.26825 16.4525 1.90873C16.0226 1.68971 15.5482 1.59274 14.9753 1.54594C14.413 1.49999 13.7135 1.5 12.8223 1.5H6.17767Z" fill="#353566"/>
<path d="M8.75 18.5C8.75 18.0858 9.08579 17.75 9.5 17.75C9.91421 17.75 10.2501 18.0858 10.2501 18.5C10.2501 18.9142 9.91431 19.25 9.5001 19.25C9.08589 19.25 8.75 18.9142 8.75 18.5Z" fill="#353566"/>
<path d="M8 4.5C7.72386 4.5 7.5 4.72386 7.5 5C7.5 5.27614 7.72386 5.5 8 5.5H11C11.2761 5.5 11.5 5.27614 11.5 5C11.5 4.72386 11.2761 4.5 11 4.5H8Z" fill="#353566"/>
<path d="M19 19.5C17.3513 19.5 15.8682 20.6327 15.4842 22.1246C15.4154 22.3921 15.1428 22.553 14.8754 22.4842C14.6079 22.4154 14.4469 22.1428 14.5158 21.8754C15.0199 19.9168 16.921 18.5 19 18.5C21.0789 18.5 22.9801 19.9168 23.4842 21.8754C23.553 22.1428 23.3921 22.4154 23.1246 22.4842C22.8572 22.553 22.5846 22.3921 22.5158 22.1246C22.1318 20.6327 20.6487 19.5 19 19.5Z" fill="#353566"/>
<path fill-rule="evenodd" clip-rule="evenodd" d="M19 11.5C17.4812 11.5 16.25 12.7312 16.25 14.25C16.25 15.7688 17.4812 17 19 17C20.5188 17 21.75 15.7688 21.75 14.25C21.75 12.7312 20.5188 11.5 19 11.5ZM17.25 14.25C17.25 13.2835 18.0335 12.5 19 12.5C19.9665 12.5 20.75 13.2835 20.75 14.25C20.75 15.2165 19.9665 16 19 16C18.0335 16 17.25 15.2165 17.25 14.25Z" fill="#353566"/>
</svg>
