<svg width="24" height="24" viewBox="0 0 24 24" fill="none" xmlns="http://www.w3.org/2000/svg">
<g clip-path="url(#clip0_9001_294059)">
<path opacity="0.4" fill-rule="evenodd" clip-rule="evenodd" d="M12 23C18.0751 23 23 18.0751 23 12C23 5.92487 18.0751 1 12 1C5.92487 1 1 5.92487 1 12C1 18.0751 5.92487 23 12 23ZM9.32012 11.3847C8.89329 11.6832 8.89329 12.3152 9.32012 12.6137L13.8216 15.7616C14.3186 16.1092 15.0011 15.7536 15.0011 15.1471V8.85126C15.0011 8.24476 14.3186 7.88918 13.8216 8.23675L9.32012 11.3847Z" fill="#353566"/>
<path fill-rule="evenodd" clip-rule="evenodd" d="M13.535 7.82702C14.3634 7.24769 15.5011 7.84037 15.5011 8.85127V15.1471C15.5011 16.158 14.3634 16.7507 13.535 16.1714L9.03358 13.0234C9.02221 13.0155 9.01101 13.0074 9 12.9992V15.8986C9 16.1747 8.77614 16.3986 8.5 16.3986C8.22386 16.3986 8 16.1747 8 15.8986V8.1001C8 7.82396 8.22386 7.6001 8.5 7.6001C8.77614 7.6001 9 7.82396 9 8.1001V10.9992C9.01101 10.991 9.02221 10.9829 9.03358 10.9749L13.535 7.82702ZM14.5011 8.85127C14.5011 8.64919 14.2737 8.5307 14.1081 8.64652L9.60667 11.7944C9.46444 11.8939 9.46444 12.1045 9.60667 12.2039L14.1081 15.3519C14.2737 15.4677 14.5011 15.3492 14.5011 15.1471V8.85127Z" fill="#353566"/>
<path fill-rule="evenodd" clip-rule="evenodd" d="M0.5 12C0.5 5.64873 5.64873 0.5 12 0.5C18.3513 0.5 23.5 5.64873 23.5 12C23.5 18.3513 18.3513 23.5 12 23.5C5.64873 23.5 0.5 18.3513 0.5 12ZM12 1.5C6.20101 1.5 1.5 6.20101 1.5 12C1.5 17.799 6.20101 22.5 12 22.5C17.799 22.5 22.5 17.799 22.5 12C22.5 6.20101 17.799 1.5 12 1.5Z" fill="#353566"/>
</g>
<defs>
<clipPath id="clip0_9001_294059">
<rect width="24" height="24" fill="white"/>
</clipPath>
</defs>
</svg>
