<svg width="24" height="24" viewBox="0 0 24 24" fill="none" xmlns="http://www.w3.org/2000/svg">
<g clip-path="url(#clip0_9001_294584)">
<path opacity="0.4" fill-rule="evenodd" clip-rule="evenodd" d="M23 12C23 18.0751 18.0751 23 12 23C5.92487 23 1 18.0751 1 12C1 5.92487 5.92487 1 12 1C18.0751 1 23 5.92487 23 12ZM18 14.5C16.6193 14.5 15.5 13.3807 15.5 12C15.5 10.6193 16.6193 9.5 18 9.5C19.3807 9.5 20.5 10.6193 20.5 12C20.5 13.3807 19.3807 14.5 18 14.5ZM3.5 12C3.5 13.3807 4.61929 14.5 6 14.5C7.38071 14.5 8.5 13.3807 8.5 12C8.5 10.6193 7.38071 9.5 6 9.5C4.61929 9.5 3.5 10.6193 3.5 12ZM9.5 18C9.5 16.6193 10.6193 15.5 12 15.5C13.3807 15.5 14.5 16.6193 14.5 18C14.5 19.3807 13.3807 20.5 12 20.5C10.6193 20.5 9.5 19.3807 9.5 18ZM12 3.5C10.6193 3.5 9.5 4.61929 9.5 6C9.5 7.38071 10.6193 8.5 12 8.5C13.3807 8.5 14.5 7.38071 14.5 6C14.5 4.61929 13.3807 3.5 12 3.5Z" fill="#353566"/>
<path d="M12 11C11.4477 11 11 11.4477 11 12C11 12.5523 11.4477 13 12 13C12.5523 13 13.0001 12.5523 13.0001 12C13.0001 11.4477 12.5523 11 12 11Z" fill="#353566"/>
<path fill-rule="evenodd" clip-rule="evenodd" d="M18 9C19.6569 9 21 10.3431 21 12C21 13.6569 19.6569 15 18 15C16.3431 15 15 13.6569 15 12C15 10.3431 16.3431 9 18 9ZM20 12C20 10.8954 19.1046 10 18 10C16.8954 10 16 10.8954 16 12C16 13.1046 16.8954 14 18 14C19.1046 14 20 13.1046 20 12Z" fill="#353566"/>
<path fill-rule="evenodd" clip-rule="evenodd" d="M9 12C9 10.3431 7.65685 9 6 9C4.34315 9 3 10.3431 3 12C3 13.6569 4.34315 15 6 15C7.65685 15 9 13.6569 9 12ZM6 10C7.10457 10 8 10.8954 8 12C8 13.1046 7.10457 14 6 14C4.89543 14 4 13.1046 4 12C4 10.8954 4.89543 10 6 10Z" fill="#353566"/>
<path fill-rule="evenodd" clip-rule="evenodd" d="M15 18C15 19.6569 13.6569 21 12 21C10.3431 21 9 19.6569 9 18C9 16.3431 10.3431 15 12 15C13.6569 15 15 16.3431 15 18ZM12 20C13.1046 20 14 19.1046 14 18C14 16.8954 13.1046 16 12 16C10.8954 16 10 16.8954 10 18C10 19.1046 10.8954 20 12 20Z" fill="#353566"/>
<path fill-rule="evenodd" clip-rule="evenodd" d="M12 9C13.6569 9 15 7.65685 15 6C15 4.34315 13.6569 3 12 3C10.3431 3 9 4.34315 9 6C9 7.65685 10.3431 9 12 9ZM14 6C14 7.10457 13.1046 8 12 8C10.8954 8 10 7.10457 10 6C10 4.89543 10.8954 4 12 4C13.1046 4 14 4.89543 14 6Z" fill="#353566"/>
<path fill-rule="evenodd" clip-rule="evenodd" d="M23.5 12C23.5 16.6779 20.7069 20.7035 16.6974 22.5H23C23.2761 22.5 23.5 22.7239 23.5 23C23.5 23.2761 23.2761 23.5 23 23.5H12C5.64873 23.5 0.5 18.3513 0.5 12C0.5 5.64873 5.64873 0.5 12 0.5C18.3513 0.5 23.5 5.64873 23.5 12ZM12 1.5C6.20101 1.5 1.5 6.20101 1.5 12C1.5 17.799 6.20101 22.5 12 22.5C17.799 22.5 22.5 17.799 22.5 12C22.5 6.20101 17.799 1.5 12 1.5Z" fill="#353566"/>
</g>
<defs>
<clipPath id="clip0_9001_294584">
<rect width="24" height="24" fill="white"/>
</clipPath>
</defs>
</svg>
