<svg width="24" height="24" viewBox="0 0 24 24" fill="none" xmlns="http://www.w3.org/2000/svg">
<path opacity="0.4" fill-rule="evenodd" clip-rule="evenodd" d="M1.38148 3.91103C1 4.65972 1 5.63982 1 7.6V13.4C1 15.3602 1 16.3403 1.38148 17.089C1.63953 17.5954 2.0158 18.0291 2.47538 18.355C2.02574 18.0361 1.65587 17.614 1.39844 17.1216L5.81191 12.7074C6.20246 12.3168 6.83573 12.3168 7.22626 12.7074L8.99923 14.4808L15.2929 8.18741C15.6834 7.7969 16.3166 7.79691 16.7071 8.18742L22 13.4803L22 7.6C22 5.63982 22 4.65972 21.6185 3.91103C21.283 3.25247 20.7475 2.71703 20.089 2.38148C19.3403 2 18.3602 2 16.4 2H6.6C4.63982 2 3.65972 2 2.91103 2.38148C2.25247 2.71703 1.71703 3.25247 1.38148 3.91103ZM8.5 7.5C8.5 8.32843 7.82843 9 7 9C6.17157 9 5.5 8.32843 5.5 7.5C5.5 6.67157 6.17157 6 7 6C7.82843 6 8.5 6.67157 8.5 7.5Z" fill="#353566"/>
<path fill-rule="evenodd" clip-rule="evenodd" d="M5 7.50024C5 6.39567 5.89543 5.50024 7 5.50024C8.10457 5.50024 9 6.39567 9 7.50024C9 8.60481 8.10457 9.50024 7 9.50024C5.89543 9.50024 5 8.60481 5 7.50024ZM7 6.50024C6.44772 6.50024 6 6.94796 6 7.50024C6 8.05253 6.44772 8.50024 7 8.50024C7.55228 8.50024 8 8.05253 8 7.50024C8 6.94796 7.55228 6.50024 7 6.50024Z" fill="#353566"/>
<path fill-rule="evenodd" clip-rule="evenodd" d="M6.57755 1.50024C5.61647 1.50024 4.86451 1.50024 4.26049 1.54959C3.64594 1.5998 3.14062 1.70358 2.68404 1.93622C1.93139 2.31971 1.31947 2.93163 0.935974 3.68428C0.703335 4.14086 0.599556 4.64618 0.549345 5.26074C0.499995 5.86475 0.499997 6.6167 0.5 7.57779V13.4227C0.499997 14.3838 0.499995 15.1357 0.549345 15.7398C0.599556 16.3543 0.703335 16.8596 0.935974 17.3162C1.27153 17.9748 1.78198 18.5256 2.40856 18.9099C2.49807 18.9648 2.58996 19.0163 2.68404 19.0643C3.14062 19.2969 3.64613 19.4008 4.26068 19.451C4.86465 19.5004 5.61653 19.5004 6.5775 19.5004H12.563C12.5373 19.4393 12.5123 19.3777 12.4879 19.3154C12.3855 19.0537 12.3313 18.7774 12.3255 18.5002H6.6C5.61166 18.5002 4.90047 18.4999 4.34192 18.4542C3.78921 18.4091 3.43014 18.3221 3.13803 18.1733C3.0366 18.1216 2.93857 18.0644 2.84434 18.002C2.52305 17.7893 2.24583 17.5168 2.02778 17.1995L6.16549 13.0612C6.36076 12.8659 6.6774 12.8659 6.87267 13.0612L8.64563 14.8346C8.7394 14.9284 8.86658 14.9811 8.99919 14.9811C9.13181 14.9811 9.259 14.9284 9.35277 14.8346L15.6465 8.54121C15.8417 8.34596 16.1583 8.34596 16.3536 8.54122L21.4999 13.6876C21.4999 13.7995 21.4998 13.9075 21.4995 14.012C21.8475 14.2074 22.1807 14.4383 22.4942 14.7037C22.5 14.3384 22.5002 13.9329 22.5002 13.4808L22.5 13.467V7.57779C22.5 6.6167 22.5 5.86475 22.4507 5.26074C22.4004 4.64618 22.2967 4.14086 22.064 3.68428C21.6805 2.93163 21.0686 2.31971 20.316 1.93622C19.8594 1.70358 19.3541 1.5998 18.7395 1.54959C18.1355 1.50024 17.3835 1.50024 16.4225 1.50024H6.57755ZM21.5 12.2735V7.60024C21.5 6.6119 21.4996 5.90072 21.454 5.34217C21.4088 4.78945 21.3219 4.43038 21.173 4.13827C20.8854 3.57379 20.4265 3.11484 19.862 2.82722C19.5699 2.67839 19.2108 2.59143 18.6581 2.54627C18.0995 2.50063 17.3883 2.50024 16.4 2.50024H6.6C5.61166 2.50024 4.90047 2.50063 4.34192 2.54627C3.78921 2.59143 3.43014 2.67839 3.13803 2.82722C2.57354 3.11484 2.1146 3.57379 1.82698 4.13827C1.67814 4.43038 1.59118 4.78946 1.54602 5.34217C1.50039 5.90072 1.5 6.6119 1.5 7.60024V13.4002C1.5 14.3886 1.50039 15.0998 1.54602 15.6583C1.56273 15.8628 1.58516 16.0408 1.61433 16.1987L5.45833 12.3541C6.04415 11.7682 6.99406 11.7682 7.57986 12.3542L8.99928 13.7739L14.9394 7.83409C15.5252 7.24833 16.4749 7.24834 17.0607 7.83411L21.5 12.2735Z" fill="#353566"/>
<path fill-rule="evenodd" clip-rule="evenodd" d="M18.4199 16.4619C17.3833 16.4619 16.5449 17.3003 16.5449 18.3369C16.5449 19.3735 17.3833 20.2119 18.4199 20.2119C19.4565 20.2119 20.2949 19.3735 20.2949 18.3369C20.2949 17.3003 19.4565 16.4619 18.4199 16.4619ZM17.5449 18.3369C17.5449 17.8526 17.9356 17.4619 18.4199 17.4619C18.9043 17.4619 19.2949 17.8526 19.2949 18.3369C19.2949 18.8212 18.9043 19.2119 18.4199 19.2119C17.9356 19.2119 17.5449 18.8212 17.5449 18.3369Z" fill="#353566"/>
<path fill-rule="evenodd" clip-rule="evenodd" d="M18.4199 14.1702C20.4608 14.1702 22.4649 15.4165 23.4063 17.821C23.5356 18.1513 23.5356 18.5223 23.4063 18.8526C22.4649 21.2572 20.4608 22.5035 18.4199 22.5035C16.3791 22.5035 14.375 21.2572 13.4336 18.8526C13.3043 18.5223 13.3043 18.1513 13.4336 17.821C14.375 15.4165 16.3791 14.1702 18.4199 14.1702ZM18.4199 15.1702C16.81 15.1702 15.1633 16.1459 14.3648 18.1856C14.3272 18.2815 14.3272 18.3921 14.3648 18.4881C15.1633 20.5277 16.81 21.5035 18.4199 21.5035C20.0298 21.5035 21.6765 20.5277 22.4751 18.4881C22.5127 18.3921 22.5127 18.2815 22.4751 18.1856C21.6765 16.1459 20.0298 15.1702 18.4199 15.1702Z" fill="#353566"/>
</svg>
