<svg width="24" height="24" viewBox="0 0 24 24" fill="none" xmlns="http://www.w3.org/2000/svg">
<path opacity="0.4" d="M12 3.5C17.2467 3.5 21.5 7.75329 21.5 13C21.5 18.2467 17.2467 22.5 12 22.5C6.75329 22.5 2.5 18.2467 2.5 13C2.5 7.75329 6.75329 3.5 12 3.5Z" fill="#353566"/>
<path d="M10.1464 1.85355C9.95118 1.65829 9.95118 1.34171 10.1464 1.14645C10.3417 0.951184 10.6583 0.951184 10.8536 1.14645L13.3536 3.64645C13.4473 3.74021 13.5 3.86739 13.5 4C13.5 4.13261 13.4473 4.25978 13.3536 4.35355L10.8536 6.85355C10.6583 7.04882 10.3417 7.04882 10.1464 6.85355C9.95118 6.65829 9.95118 6.34171 10.1464 6.14645L11.7904 4.50253C7.1928 4.61382 3.5 8.37566 3.5 13C3.5 17.6944 7.30558 21.5 12 21.5C16.6944 21.5 20.5 17.6944 20.5 13C20.5 11.6421 20.1819 10.3599 19.6167 9.22252C19.4938 8.97523 19.5947 8.67514 19.842 8.55224C20.0893 8.42935 20.3893 8.53019 20.5122 8.77748C21.1446 10.05 21.5 11.4842 21.5 13C21.5 18.2467 17.2467 22.5 12 22.5C6.75329 22.5 2.5 18.2467 2.5 13C2.5 7.82178 6.64298 3.61121 11.7951 3.50217L10.1464 1.85355Z" fill="#353566"/>
<path d="M13.6464 1.14645C13.4512 1.34171 13.4512 1.65829 13.6464 1.85355L15.7929 4L13.6464 6.14645C13.4512 6.34171 13.4512 6.65829 13.6464 6.85355C13.8417 7.04882 14.1583 7.04882 14.3536 6.85355L16.8536 4.35355C16.9473 4.25978 17 4.13261 17 4C17 3.86739 16.9473 3.74021 16.8536 3.64645L14.3536 1.14645C14.1583 0.951184 13.8417 0.951184 13.6464 1.14645Z" fill="#353566"/>
<path fill-rule="evenodd" clip-rule="evenodd" d="M10.75 10C10.5056 10 10.297 10.1767 10.2568 10.4178L9.7568 13.4178C9.72403 13.6144 9.81114 13.8117 9.97851 13.9199C10.1458 14.028 10.3615 14.0265 10.5273 13.9161L10.5435 13.906C10.5596 13.8963 10.5858 13.8809 10.6215 13.8616C10.6929 13.8229 10.8008 13.7694 10.9383 13.7153C11.215 13.6065 11.6002 13.5 12.0428 13.5C12.6988 13.5 13.25 14.0696 13.25 14.75C13.25 15.4404 12.6903 16 12 16C11.4527 16 10.8858 15.667 10.7002 15.2826C10.5802 15.0339 10.2813 14.9297 10.0326 15.0497C9.78391 15.1698 9.67966 15.4687 9.79974 15.7174C10.1851 16.5155 11.151 17 12 17C13.2426 17 14.25 15.9926 14.25 14.75C14.25 13.5544 13.2875 12.5 12.0428 12.5C11.6045 12.5 11.2136 12.5765 10.8948 12.6728L11.1736 11H13.5C13.7761 11 14 10.7761 14 10.5C14 10.2239 13.7761 10 13.5 10H10.75ZM10.5273 13.9161L10.5264 13.9166L10.5253 13.9174L10.5273 13.9161Z" fill="#353566"/>
</svg>
