<svg width="24" height="24" viewBox="0 0 24 24" fill="none" xmlns="http://www.w3.org/2000/svg">
<path d="M0.5 8.47438C0.5 4.79054 3.02715 1.5 6.89333 1.5C8.80129 1.5 10.1418 2.3934 11 3.25953C11.8582 2.3934 13.1987 1.5 15.1067 1.5C18.9729 1.5 21.5 4.79054 21.5 8.47438C21.5 8.86254 21.4755 9.24342 21.4287 9.6167C21.4096 9.76999 21.3206 9.90581 21.1877 9.98463C21.0548 10.0635 20.893 10.0764 20.7492 10.0198C19.8986 9.68444 18.9714 9.5 18 9.5C13.8579 9.5 10.5 12.8579 10.5 17C10.5 18.1445 10.756 19.2277 11.2134 20.1969C11.3014 20.3833 11.2659 20.6045 11.1242 20.7542C10.9825 20.9038 10.7634 20.9511 10.5726 20.8734C9.52356 20.446 7.03026 19.1094 4.79091 17.0211C2.55521 14.9362 0.5 12.0323 0.5 8.47438Z" fill="#353566"/>
<path fill-rule="evenodd" clip-rule="evenodd" d="M23.75 17C23.75 13.8244 21.1756 11.25 18 11.25C14.8244 11.25 12.25 13.8244 12.25 17C12.25 20.1756 14.8244 22.75 18 22.75C21.1756 22.75 23.75 20.1756 23.75 17ZM17.125 15.75C17.125 15.2668 17.5168 14.875 18 14.875C18.4832 14.875 18.875 15.2668 18.875 15.75C18.875 15.9942 18.7758 16.2141 18.6138 16.3736C18.5217 16.4643 18.44 16.5152 18.3098 16.5963C18.2733 16.6191 18.233 16.6442 18.1875 16.6733C17.9891 16.8001 17.7329 16.9845 17.5481 17.3306C17.3855 17.635 17.5005 18.0137 17.8049 18.1763C18.1094 18.3389 18.4881 18.2239 18.6507 17.9194C18.6851 17.855 18.7268 17.8121 18.8608 17.7264C18.8805 17.7139 18.9036 17.6997 18.9296 17.6837C19.0688 17.5982 19.2895 17.4625 19.4908 17.2643C19.8816 16.8796 20.125 16.3427 20.125 15.75C20.125 14.5764 19.1736 13.625 18 13.625C16.8264 13.625 15.875 14.5764 15.875 15.75C15.875 16.0952 16.1548 16.375 16.5 16.375C16.8452 16.375 17.125 16.0952 17.125 15.75ZM18 18.75C17.5858 18.75 17.25 19.0858 17.25 19.5C17.25 19.9142 17.5858 20.25 18 20.25C18.4142 20.25 18.7501 19.9142 18.7501 19.5C18.7501 19.0858 18.4142 18.75 18 18.75Z" fill="#353566"/>
</svg>
