<svg width="24" height="24" viewBox="0 0 24 24" fill="none" xmlns="http://www.w3.org/2000/svg">
<path fill-rule="evenodd" clip-rule="evenodd" d="M8.367 0.25H15.633C16.7251 0.249995 17.5907 0.249991 18.2883 0.306988C19.0017 0.365275 19.6053 0.486883 20.1565 0.76772C21.0502 1.22312 21.7769 1.94978 22.2323 2.84355C22.5131 3.39472 22.6347 3.99834 22.693 4.71173C22.75 5.40935 22.75 6.27484 22.75 7.36698V13.633C22.75 14.7252 22.75 15.5906 22.693 16.2883C22.6347 17.0017 22.5131 17.6053 22.2323 18.1565C21.7769 19.0502 21.0502 19.7769 20.1565 20.2323C19.6053 20.5131 19.0017 20.6347 18.2883 20.693C17.5906 20.75 16.7252 20.75 15.633 20.75L14.9061 20.75L13.9501 22.2146C13.742 22.5334 13.5585 22.8145 13.3901 23.0275C13.2162 23.2473 12.9935 23.4815 12.6766 23.6144C12.2438 23.7959 11.7562 23.7959 11.3234 23.6144C11.0065 23.4815 10.7838 23.2473 10.6099 23.0275C10.4414 22.8145 10.2581 22.5335 10.05 22.2146L9.09392 20.75L8.36698 20.75C7.27484 20.75 6.40935 20.75 5.71173 20.693C4.99835 20.6347 4.39472 20.5131 3.84355 20.2323C2.94978 19.7769 2.22312 19.0502 1.76772 18.1565C1.48688 17.6053 1.36527 17.0017 1.30699 16.2883C1.24999 15.5907 1.24999 14.7252 1.25 13.633V7.367C1.24999 6.27486 1.24999 5.40935 1.30699 4.71173C1.36527 3.99835 1.48688 3.39472 1.76772 2.84355C2.22312 1.94978 2.94978 1.22312 3.84355 0.76772C4.39472 0.486883 4.99834 0.365275 5.71173 0.306988C6.40935 0.249991 7.27487 0.249995 8.367 0.25ZM7.34997 6.65249C7.92097 5.94736 8.76182 5.5 9.8 5.5C10.4376 5.5 10.9892 5.75139 11.4158 6.04156C11.6377 6.19253 11.8338 6.35928 12 6.51916C12.1662 6.35928 12.3623 6.19253 12.5842 6.04156C13.0108 5.75139 13.5624 5.5 14.2 5.5C15.2382 5.5 16.079 5.94736 16.65 6.65249C17.2132 7.34796 17.5 8.2739 17.5 9.23719C17.5 11.078 16.3757 12.5806 15.2131 13.648C14.0402 14.7248 12.7447 15.4367 12.2236 15.6972C12.0828 15.7676 11.9172 15.7676 11.7764 15.6972C11.2553 15.4367 9.95977 14.7248 8.78685 13.648C7.62426 12.5806 6.5 11.078 6.5 9.23719C6.5 8.2739 6.78678 7.34796 7.34997 6.65249Z" fill="#353566"/>
</svg>
