<svg width="24" height="24" viewBox="0 0 24 24" fill="none" xmlns="http://www.w3.org/2000/svg">
<path fill-rule="evenodd" clip-rule="evenodd" d="M18.4689 14.1968C20.2127 13.1569 21.9243 11.5782 22.5431 9.26899C23.2539 6.6163 22.0766 3.67559 19.201 2.90508C17.9762 2.5769 16.9372 2.79929 16.155 3.16605C15.6609 2.45729 14.8723 1.74521 13.6475 1.41704C10.7719 0.64652 8.28201 2.60461 7.57122 5.25729C7.34697 6.09421 7.29536 6.92139 7.36761 7.7192C6.73182 7.60916 6.01217 7.6166 5.22349 7.82793C2.00712 8.68975 0.67899 11.9815 1.4797 14.9697C2.28828 17.9874 4.75463 19.9071 7.047 21.0637C9.34067 22.221 11.6304 22.7016 12.3766 22.7464L12.6261 22.7614L12.8348 22.6237C13.4586 22.2118 15.2012 20.6507 16.609 18.5016C17.4141 17.2725 18.1436 15.7984 18.4689 14.1968ZM13.2593 2.86593C11.3643 2.35817 9.56826 3.59982 9.02011 5.64552C8.81791 6.40017 8.7927 7.15691 8.89835 7.90087C9.4565 7.17047 10.3054 6.46622 11.5702 6.12732C12.0335 6.00318 12.4881 5.94229 12.9293 5.93794C15.5507 5.91205 17.698 7.88257 18.3834 10.4404C18.5491 11.0589 18.6315 11.6722 18.6456 12.275C19.7901 11.4093 20.7155 10.2942 21.0942 8.88076C21.6423 6.83505 20.7077 4.86172 18.8127 4.35396C17.7239 4.06222 16.8699 4.41297 16.3097 4.80267L15.5805 5.30998L15.2026 4.50603C14.9124 3.88845 14.3481 3.15768 13.2593 2.86593Z" fill="#353566"/>
</svg>
