<svg width="24" height="24" viewBox="0 0 24 24" fill="none" xmlns="http://www.w3.org/2000/svg">
<path d="M0.5 8.47438C0.5 4.79054 3.02715 1.5 6.89333 1.5C8.80129 1.5 10.1418 2.3934 11 3.25953C11.8582 2.3934 13.1987 1.5 15.1067 1.5C18.9729 1.5 21.5 4.79054 21.5 8.47438C21.5 8.86254 21.4755 9.24342 21.4287 9.6167C21.4096 9.76999 21.3206 9.90581 21.1877 9.98463C21.0548 10.0635 20.893 10.0764 20.7492 10.0198C19.8986 9.68444 18.9714 9.5 18 9.5C13.8579 9.5 10.5 12.8579 10.5 17C10.5 18.1445 10.756 19.2277 11.2134 20.1969C11.3014 20.3833 11.2659 20.6045 11.1242 20.7542C10.9825 20.9038 10.7634 20.9511 10.5726 20.8734C9.52356 20.446 7.03026 19.1094 4.79091 17.0211C2.55521 14.9362 0.5 12.0323 0.5 8.47438Z" fill="#353566"/>
<path fill-rule="evenodd" clip-rule="evenodd" d="M18 11.25C14.8244 11.25 12.25 13.8244 12.25 17C12.25 20.1756 14.8244 22.75 18 22.75C21.1756 22.75 23.75 20.1756 23.75 17C23.75 13.8244 21.1756 11.25 18 11.25ZM17.375 14.505V17.005C17.375 17.3502 17.6548 17.63 18 17.63C18.3452 17.63 18.625 17.3502 18.625 17.005V14.505C18.625 14.1598 18.3452 13.88 18 13.88C17.6548 13.88 17.375 14.1598 17.375 14.505ZM18 18.38C17.5168 18.38 17.125 18.7718 17.125 19.255C17.125 19.7382 17.5168 20.13 18 20.13C18.4832 20.13 18.8751 19.7382 18.8751 19.255C18.8751 18.7718 18.4832 18.38 18 18.38Z" fill="#353566"/>
</svg>
