<svg width="24" height="24" viewBox="0 0 24 24" fill="none" xmlns="http://www.w3.org/2000/svg">
<path d="M0.5 8.4745C0.5 4.79066 3.02715 1.50012 6.89333 1.50012C8.80129 1.50012 10.1418 2.39352 11 3.25965C11.8582 2.39352 13.1987 1.50012 15.1067 1.50012C18.9729 1.50012 21.5 4.79066 21.5 8.4745C21.5 8.97076 21.4599 9.45505 21.3846 9.92669C21.3593 10.0851 21.2596 10.2218 21.1163 10.2942C20.9731 10.3665 20.8039 10.3658 20.6613 10.2921C19.6681 9.77884 18.3757 9.9115 17.55 10.9438L13.5539 15.9398C12.7569 16.9363 12.8738 18.2263 13.5739 19.0888C13.6653 19.2015 13.7033 19.3483 13.678 19.4912C13.6527 19.6341 13.5665 19.7589 13.4419 19.8333C12.4245 20.4402 11.5808 20.8336 11.1581 20.9745C11.0555 21.0087 10.9445 21.0087 10.8419 20.9745C10.0191 20.7002 7.4609 19.4123 5.1044 17.3073C2.74864 15.203 0.5 12.1965 0.5 8.4745Z" fill="#353566"/>
<path d="M18.72 11.8763C19.3101 11.1388 20.5009 11.5551 20.5009 12.5008V15.5002H22.5009C23.3388 15.5002 23.8058 16.4694 23.2818 17.1244L19.2818 22.1238C18.6917 22.8614 17.5009 22.445 17.5009 21.4993V18.5H15.5009C14.663 18.5 14.196 17.5308 14.72 16.8758L18.72 11.8763Z" fill="#353566"/>
</svg>
