<svg width="24" height="24" viewBox="0 0 24 24" fill="none" xmlns="http://www.w3.org/2000/svg">
<path d="M9.19875 2.38057C9.92602 0.871843 12.0747 0.871837 12.802 2.38057L14.9327 6.80088C14.9694 6.8769 15.0419 6.9293 15.1256 6.94022L20.0084 7.57737C21.6824 7.79581 22.3495 9.86198 21.1192 11.018L19.9781 12.0903C19.8033 12.2546 19.5603 12.3254 19.3245 12.2806C18.4329 12.1112 17.5523 12.6567 17.3119 13.5392L17.1651 14.0784C17.109 14.2842 16.9679 14.4565 16.7771 14.552C16.5863 14.6475 16.3639 14.6572 16.1655 14.5786L15.6459 14.373C15.0203 14.1255 14.2836 14.2522 13.7753 14.7505L11.7753 16.7105C11.4437 17.0354 11.2549 17.4787 11.2502 17.9428C11.2489 18.0746 11.2625 18.2049 11.29 18.3315C11.3629 18.6677 11.1979 19.0103 10.8896 19.1629L10.882 19.1668L6.52985 21.5051C5.04993 22.3002 3.30849 21.0268 3.61738 19.3755L4.51283 14.5885C4.52851 14.5047 4.50041 14.4187 4.43829 14.3603L0.881512 11.018C-0.348731 9.86198 0.318321 7.79581 1.99231 7.57737L6.87513 6.94022C6.95881 6.9293 7.03134 6.8769 7.06798 6.80088L9.19875 2.38057Z" fill="#353566"/>
<path d="M15.5251 16.5359C15.8209 16.246 15.8257 15.7711 15.5358 15.4753C15.2459 15.1795 14.771 15.1747 14.4752 15.4646L12.4752 17.4246C12.3331 17.5638 12.2522 17.7538 12.2502 17.9527C12.2482 18.1517 12.3253 18.3432 12.4646 18.4853L14.4645 20.5253C14.7545 20.8211 15.2294 20.8258 15.5251 20.5358C15.8209 20.2458 15.8256 19.771 15.5356 19.4752L14.0608 17.9709L15.5251 16.5359Z" fill="#353566"/>
<path d="M20.4642 15.4756C20.754 15.1796 21.2288 15.1745 21.5248 15.4643L23.5248 17.4223C23.667 17.5615 23.748 17.7514 23.7501 17.9504C23.7522 18.1493 23.6751 18.3409 23.5359 18.483L21.5359 20.525C21.2461 20.821 20.7713 20.8259 20.4753 20.5361C20.1794 20.2462 20.1745 19.7714 20.4643 19.4755L21.9394 17.9694L20.4754 16.5362C20.1795 16.2464 20.1744 15.7716 20.4642 15.4756Z" fill="#353566"/>
<path d="M19.7277 14.1821C19.8282 13.7802 19.5839 13.373 19.182 13.2726C18.7802 13.1721 18.373 13.4164 18.2725 13.8183L16.2725 21.8183C16.172 22.2201 16.4164 22.6273 16.8182 22.7278C17.2201 22.8282 17.6273 22.5839 17.7277 22.1821L19.7277 14.1821Z" fill="#353566"/>
</svg>
