<svg width="24" height="24" viewBox="0 0 24 24" fill="none" xmlns="http://www.w3.org/2000/svg">
<path d="M9.19851 2.38033C9.92578 0.871599 12.0745 0.871593 12.8017 2.38033L14.9325 6.80063C14.9691 6.87665 15.0417 6.92906 15.1254 6.93998L20.0082 7.57713C21.1054 7.7203 21.7612 8.65807 21.7507 9.59039C21.7479 9.83831 21.6228 10.0688 21.4164 10.2062C21.21 10.3436 20.9491 10.3702 20.7193 10.2771C19.8805 9.93746 18.963 9.75006 17.9999 9.75006C13.9958 9.75006 10.7499 12.996 10.7499 17.0001C10.7499 17.5273 10.8061 18.0407 10.9125 18.5347C10.9828 18.8613 10.8286 19.1951 10.5342 19.3533L6.52961 21.5048C5.04969 22.2999 3.30824 21.0266 3.61714 19.3753L4.51259 14.5882C4.52826 14.5044 4.50017 14.4185 4.43805 14.3601L0.881267 11.0178C-0.348975 9.86174 0.318077 7.79556 1.99207 7.57713L6.87489 6.93998C6.95857 6.92906 7.03109 6.87666 7.06774 6.80063L9.19851 2.38033Z" fill="#353566"/>
<path fill-rule="evenodd" clip-rule="evenodd" d="M23.7499 17C23.7499 13.8244 21.1755 11.25 17.9999 11.25C14.8242 11.25 12.2499 13.8244 12.2499 17C12.2499 20.1756 14.8242 22.75 17.9999 22.75C21.1755 22.75 23.7499 20.1756 23.7499 17ZM17.9999 12.75C20.3471 12.75 22.2499 14.6528 22.2499 17C22.2499 17.9027 21.9684 18.7397 21.4885 19.428L15.5719 13.5114C16.2602 13.0314 17.0972 12.75 17.9999 12.75ZM17.9999 21.25C18.9026 21.25 19.7396 20.9686 20.4279 20.4886L14.5112 14.572C14.0313 15.2603 13.7499 16.0973 13.7499 17C13.7499 19.3472 15.6527 21.25 17.9999 21.25Z" fill="#353566"/>
</svg>
