<svg width="24" height="24" viewBox="0 0 24 24" fill="none" xmlns="http://www.w3.org/2000/svg">
<path fill-rule="evenodd" clip-rule="evenodd" d="M12 8.75C11.0335 8.75 10.25 9.5335 10.25 10.5C10.25 11.4665 11.0335 12.25 12 12.25C12.9665 12.25 13.75 11.4665 13.75 10.5C13.75 9.5335 12.9665 8.75 12 8.75ZM11.25 10.5C11.25 10.0858 11.5858 9.75 12 9.75C12.4142 9.75 12.75 10.0858 12.75 10.5C12.75 10.9142 12.4142 11.25 12 11.25C11.5858 11.25 11.25 10.9142 11.25 10.5Z" fill="#353566"/>
<path fill-rule="evenodd" clip-rule="evenodd" d="M6.93453 12.712C6.55465 12.0529 6.77973 11.2096 7.43863 10.8285C7.69082 10.6827 7.69082 10.3172 7.43863 10.1714C6.77973 9.79027 6.55465 8.94702 6.93453 8.28789L7.55425 7.21259C7.93442 6.55293 8.77723 6.32626 9.43663 6.70765C9.68703 6.85248 10.0027 6.67233 10.0027 6.37913C10.0027 5.6183 10.6186 5 11.3802 5H12.6197C13.3814 5 13.9973 5.61831 13.9973 6.37915C13.9973 6.67238 14.313 6.85252 14.5634 6.70769C15.2228 6.3263 16.0656 6.55299 16.4458 7.21264L17.0655 8.28798C17.4454 8.94709 17.2203 9.79031 16.5614 10.1714C16.3092 10.3172 16.3092 10.6826 16.5614 10.8285C17.2203 11.2096 17.4454 12.0528 17.0655 12.7119L16.4458 13.7872C16.0656 14.4469 15.2228 14.6736 14.5634 14.2922C14.313 14.1474 13.9973 14.3275 13.9973 14.6208C13.9973 15.3816 13.3814 16 12.6197 16H11.3803C10.6186 16 10.0027 15.3817 10.0027 14.6208C10.0027 14.3275 9.687 14.1474 9.43661 14.2922C8.7772 14.6736 7.93442 14.4469 7.55425 13.7873L6.93453 12.712ZM7.9393 11.6942C7.75868 11.7986 7.69612 12.0308 7.80094 12.2127L8.42066 13.288C8.52517 13.4693 8.75586 13.5308 8.93594 13.4266C9.85569 12.8946 11.0027 13.5605 11.0027 14.6208C11.0027 14.8311 11.1726 15 11.3803 15H12.6197C12.8274 15 12.9973 14.8311 12.9973 14.6208C12.9973 13.5605 14.1443 12.8946 15.0641 13.4265C15.2441 13.5307 15.4748 13.4693 15.5793 13.2879L16.1991 12.2126C16.3039 12.0307 16.2413 11.7986 16.0607 11.6941C15.1428 11.1632 15.1428 9.83668 16.0607 9.30576C16.2413 9.2013 16.3039 8.96917 16.1991 8.78731L15.5793 7.71197C15.4748 7.53063 15.2441 7.46917 15.0641 7.57333C14.1443 8.10528 12.9973 7.43946 12.9973 6.37915C12.9973 6.16891 12.8274 6 12.6197 6L11.3802 6C11.1726 6 11.0027 6.1689 11.0027 6.37913C11.0027 7.43945 9.85565 8.10521 8.93596 7.57329C8.75586 7.46912 8.52517 7.53058 8.42066 7.71192L7.80094 8.78722C7.69612 8.9691 7.75868 9.20126 7.9393 9.30572C8.85727 9.83666 8.85727 11.1632 7.9393 11.6942Z" fill="#353566"/>
<path fill-rule="evenodd" clip-rule="evenodd" d="M7.57756 1.5H16.4224C17.3835 1.5 18.1355 1.49999 18.7395 1.54935C19.3541 1.59956 19.8594 1.70334 20.316 1.93597C21.0686 2.31947 21.6805 2.93139 22.064 3.68404C22.2967 4.14062 22.4004 4.64594 22.4507 5.26049C22.5 5.86451 22.5 6.61646 22.5 7.57754V13.4225C22.5 14.3835 22.5 15.1355 22.4507 15.7395C22.4004 16.3541 22.2967 16.8594 22.064 17.316C21.6805 18.0686 21.0686 18.6805 20.316 19.064C19.8594 19.2967 19.3541 19.4004 18.7395 19.4507C18.1355 19.5 17.3835 19.5 16.4225 19.5H7.32902C7.00194 19.5 6.9067 19.5023 6.8199 19.5198C6.73285 19.5375 6.64852 19.5666 6.56915 19.6065C6.49003 19.6462 6.41368 19.7032 6.15633 19.9051L3.58485 21.9223C3.39244 22.0732 3.22175 22.2071 3.07696 22.3008C2.93514 22.3926 2.7351 22.5036 2.49439 22.5023C2.1912 22.5006 1.90515 22.3614 1.71667 22.1239C1.56704 21.9353 1.5309 21.7095 1.5156 21.5412C1.49998 21.3694 1.49999 21.1525 1.5 20.9079V7.57755C1.5 6.61656 1.5 5.86446 1.54935 5.26049C1.59956 4.64594 1.70334 4.14062 1.93598 3.68404C2.31947 2.93139 2.93139 2.31947 3.68404 1.93597C4.14062 1.70334 4.64594 1.59956 5.26049 1.54935C5.86451 1.49999 6.61647 1.5 7.57756 1.5ZM5.34193 2.54602C4.78921 2.59118 4.43014 2.67814 4.13803 2.82698C3.57354 3.1146 3.1146 3.57354 2.82698 4.13803C2.67814 4.43014 2.59118 4.78921 2.54603 5.34192C2.50039 5.90047 2.5 6.61165 2.5 7.59999V20.8857C2.5 21.1593 2.5005 21.3298 2.51149 21.4506L2.51384 21.4739L2.53357 21.4614C2.6354 21.3954 2.76989 21.2906 2.98516 21.1217L5.57251 19.0921C5.782 18.9276 5.94036 18.8033 6.12017 18.7129C6.2789 18.6332 6.44755 18.5749 6.62167 18.5397C6.8189 18.4998 7.02024 18.4999 7.28658 18.5L16.4 18.5C17.3883 18.5 18.0995 18.4996 18.6581 18.454C19.2108 18.4088 19.5699 18.3219 19.862 18.173C20.4265 17.8854 20.8854 17.4265 21.173 16.862C21.3219 16.5699 21.4088 16.2108 21.454 15.6581C21.4996 15.0995 21.5 14.3883 21.5 13.4V7.6C21.5 6.61166 21.4996 5.90047 21.454 5.34192C21.4088 4.78921 21.3219 4.43014 21.173 4.13803C20.8854 3.57354 20.4265 3.1146 19.862 2.82698C19.5699 2.67814 19.2108 2.59118 18.6581 2.54602C18.0995 2.50039 17.3883 2.5 16.4 2.5H7.6C6.61166 2.5 5.90047 2.50039 5.34193 2.54602Z" fill="#353566"/>
</svg>
