<svg width="24" height="24" viewBox="0 0 24 24" fill="none" xmlns="http://www.w3.org/2000/svg">
<g clip-path="url(#clip0_9002_190)">
<path d="M15.4224 0.5H6.57756C5.61647 0.499997 4.86451 0.499995 4.26049 0.549345C3.64594 0.599556 3.14062 0.703335 2.68404 0.935974C1.93139 1.31947 1.31947 1.93139 0.935976 2.68404C0.703337 3.14062 0.599559 3.64594 0.549348 4.26049C0.500001 4.86446 0.500001 5.61634 0.500001 6.57733V19.9078C0.499987 20.1524 0.499976 20.3694 0.5156 20.5412C0.530904 20.7095 0.567044 20.9353 0.716675 21.1239C0.905144 21.3614 1.1912 21.5006 1.49439 21.5023C1.7351 21.5036 1.93513 21.3926 2.07696 21.3008C2.22177 21.2071 2.39249 21.0732 2.58495 20.9222L5.15639 18.905C5.41367 18.7032 5.49004 18.6462 5.56916 18.6065C5.64852 18.5666 5.73284 18.5375 5.81991 18.5198C5.9067 18.5023 6.00194 18.5 6.32902 18.5H12.0642C12.3403 18.5 12.5642 18.2761 12.5642 18C12.5642 17.7239 12.3403 17.5 12.0642 17.5L6.28658 17.5C6.02024 17.4999 5.8189 17.4998 5.62167 17.5397C5.44755 17.5749 5.2789 17.6332 5.12017 17.7129C4.94038 17.8033 4.78198 17.9276 4.57253 18.0921L1.98516 20.1217C1.76989 20.2906 1.6354 20.3954 1.53357 20.4614L1.51384 20.4739L1.51149 20.4506C1.5005 20.3298 1.5 20.1593 1.5 19.8857V6.59999C1.5 5.61165 1.50039 4.90047 1.54603 4.34192C1.59118 3.78921 1.67814 3.43014 1.82698 3.13803C2.1146 2.57354 2.57354 2.1146 3.13803 1.82698C3.43014 1.67814 3.78921 1.59118 4.34193 1.54602C4.90047 1.50039 5.61166 1.5 6.6 1.5H15.4C16.3883 1.5 17.0995 1.50039 17.6581 1.54602C18.2108 1.59118 18.5699 1.67814 18.862 1.82698C19.4265 2.1146 19.8854 2.57354 20.173 3.13803C20.3219 3.43014 20.4088 3.78921 20.454 4.34192C20.4996 4.90047 20.5 5.61166 20.5 6.6V10.2899C20.5 10.566 20.7239 10.7899 21 10.7899C21.2761 10.7899 21.5 10.566 21.5 10.2899V6.57754C21.5 5.61646 21.5 4.86451 21.4507 4.26049C21.4004 3.64594 21.2967 3.14062 21.064 2.68404C20.6805 1.93139 20.0686 1.31947 19.316 0.935974C18.8594 0.703335 18.3541 0.599556 17.7395 0.549345C17.1355 0.499995 16.3835 0.499997 15.4224 0.5Z" fill="#353566"/>
<path d="M15.5 8L6.5 8C6.22386 8 6 7.77614 6 7.5C6 7.22386 6.22386 7 6.5 7H15.5C15.7761 7 16 7.22386 16 7.5C16 7.77614 15.7761 8 15.5 8Z" fill="#353566"/>
<path d="M11.5 12L6.5 12C6.22386 12 6 11.7761 6 11.5C6 11.2239 6.22386 11 6.5 11L11.5 11C11.7761 11 12 11.2239 12 11.5C12 11.7761 11.7761 12 11.5 12Z" fill="#353566"/>
<path fill-rule="evenodd" clip-rule="evenodd" d="M19 15C17.8954 15 17 15.8954 17 17C17 18.1046 17.8954 19 19 19C20.1046 19 21 18.1046 21 17C21 15.8954 20.1046 15 19 15ZM18 17C18 16.4477 18.4477 16 19 16C19.5523 16 20 16.4477 20 17C20 17.5523 19.5523 18 19 18C18.4477 18 18 17.5523 18 17Z" fill="#353566"/>
<path fill-rule="evenodd" clip-rule="evenodd" d="M14.5 17.002C14.5 14.517 16.5144 12.5 19.0001 12.5C21.4854 12.5 23.5 14.5147 23.5 17C23.5 19.7667 21.3 21.9 19.3 23.4C19.1222 23.5333 18.8778 23.5333 18.7 23.4C16.7001 21.9001 14.5 19.7667 14.5 17.002ZM19.0001 13.5C17.0674 13.5 15.5 15.0687 15.5 17.002C15.5 19.1211 17.1234 20.9113 19 22.3709C20.8765 20.9113 22.5 19.121 22.5 17C22.5 15.067 20.9331 13.5 19.0001 13.5Z" fill="#353566"/>
</g>
<defs>
<clipPath id="clip0_9002_190">
<rect width="24" height="24" fill="white"/>
</clipPath>
</defs>
</svg>
