<svg width="24" height="24" viewBox="0 0 24 24" fill="none" xmlns="http://www.w3.org/2000/svg">
<path opacity="0.4" d="M23.0005 15V18.8C23.0005 19.9201 23.0005 20.4802 22.7825 20.908C22.5908 21.2843 22.2848 21.5903 21.9085 21.782C21.4806 22 20.9206 22 19.8005 22H9.00049C10.1051 22 11.0005 21.1046 11.0005 20V12C11.0005 9.23858 8.76191 7 6.00049 7H15.0005C17.8008 7 19.2009 7 20.2704 7.54497C21.2113 8.02433 21.9762 8.78924 22.4555 9.73005C23.0005 10.7996 23.0005 12.1997 23.0005 15Z" fill="#353566"/>
<path d="M16 1.5C15.7239 1.5 15.5 1.72386 15.5 2V13C15.5 13.2761 15.7239 13.5 16 13.5C16.2761 13.5 16.5 13.2761 16.5 13V2.5H20C20.2761 2.5 20.5 2.27614 20.5 2C20.5 1.72386 20.2761 1.5 20 1.5H16Z" fill="#353566"/>
<path d="M4.5 17.5C4.22386 17.5 4 17.7239 4 18C4 18.2761 4.22386 18.5 4.5 18.5H7.5C7.77614 18.5 8 18.2761 8 18C8 17.7239 7.77614 17.5 7.5 17.5H4.5Z" fill="#353566"/>
<path fill-rule="evenodd" clip-rule="evenodd" d="M14 7C14 6.72386 13.7761 6.5 13.5 6.5H6C2.96243 6.5 0.5 8.96243 0.5 12V20C0.5 21.3807 1.61929 22.5 3 22.5H19.8214C20.3632 22.5 20.8004 22.5 21.1543 22.4711C21.5187 22.4413 21.8388 22.3784 22.135 22.2275C22.6054 21.9878 22.9878 21.6054 23.2275 21.135C23.3784 20.8388 23.4413 20.5187 23.4711 20.1543C23.5 19.8004 23.5 19.3633 23.5 18.8214V14.9771C23.5 13.5964 23.5 12.5294 23.4302 11.6753C23.3596 10.8106 23.2149 10.1201 22.9005 9.50305C22.3732 8.46816 21.5318 7.62677 20.4969 7.09946C19.9342 6.81275 19.3109 6.6674 18.5504 6.59036C18.2757 6.56253 18.0304 6.76269 18.0025 7.03743C17.9747 7.31216 18.1749 7.55744 18.4496 7.58527C19.1415 7.65535 19.6306 7.78036 20.043 7.99047C20.8897 8.4219 21.5781 9.11031 22.0095 9.95704C22.2401 10.4096 22.3679 10.9539 22.4335 11.7567C22.4996 12.5654 22.5 13.5916 22.5 15V18.8C22.5 19.3683 22.4996 19.7645 22.4744 20.0729C22.4497 20.3755 22.4036 20.5493 22.3365 20.681C22.1927 20.9632 21.9632 21.1927 21.681 21.3365C21.5493 21.4036 21.3755 21.4497 21.0729 21.4744C20.7645 21.4996 20.3683 21.5 19.8 21.5H11.0002C11.314 21.0822 11.5 20.5628 11.5 20V12C11.5 10.1398 10.5766 8.49537 9.16308 7.5H13.5C13.7761 7.5 14 7.27614 14 7ZM1.5 20C1.5 20.8284 2.17157 21.5 3 21.5H9C9.82843 21.5 10.5 20.8284 10.5 20V12C10.5 9.51472 8.48528 7.5 6 7.5C3.51472 7.5 1.5 9.51472 1.5 12V20Z" fill="#353566"/>
</svg>
