<svg width="24" height="24" viewBox="0 0 24 24" fill="none" xmlns="http://www.w3.org/2000/svg">
<path opacity="0.4" d="M20.5242 8.54403L5.77595 1.27277C3.59159 0.195831 1.263 2.50218 2.22183 4.79294L4.49815 9.91016C4.78979 10.6069 4.78156 11.4002 4.47547 12.0948L2.33474 17.1892C1.32078 19.4901 3.64075 21.8198 5.84932 20.7185L12.5124 17.3957C12.5042 17.266 12.5 17.1347 12.5 17.002C12.5 13.9653 14.9616 11.5 18.0001 11.5C19.2875 11.5 20.4716 11.9423 21.4087 12.6833C22.4247 11.4074 22.1323 9.33685 20.5242 8.54403Z" fill="#353566"/>
<path d="M1.76052 4.9862C0.642398 2.31486 3.35381 -0.47862 5.99697 0.824525L20.7452 8.09578C22.667 9.04328 23.0038 11.5036 21.7871 13.0115C21.5452 12.7817 21.2825 12.5738 21.0019 12.3907C21.8509 11.3497 21.6121 9.63811 20.303 8.9927L5.55477 1.72144C3.83069 0.871426 1.88676 2.68682 2.68094 4.59521L4.95941 9.71727C5.06074 9.95936 5.13131 10.2112 5.17145 10.4668H10.9999C11.2761 10.4668 11.4999 10.6907 11.4999 10.9668C11.4999 11.2429 11.2761 11.4668 10.9999 11.4668H5.17393C5.13115 11.7491 5.05137 12.0269 4.93475 12.2925L2.79228 17.391C1.9465 19.3103 3.88158 21.1412 5.62611 20.2712L12.5023 16.8422C12.5008 16.8953 12.5 16.9486 12.5 17.002C12.5 17.3184 12.5239 17.6266 12.569 17.9264L6.07238 21.1661C3.40112 22.4982 0.697726 19.6733 1.87532 16.9918L4.01778 11.8934C4.26816 11.3252 4.27521 10.6767 4.03887 10.1083L1.76491 4.99637L1.76052 4.9862Z" fill="#353566"/>
<path fill-rule="evenodd" clip-rule="evenodd" d="M18 15C16.8954 15 15.9999 15.8954 15.9999 17C15.9999 18.1046 16.8954 19 18 19C19.1045 19 20 18.1046 20 17C20 15.8954 19.1045 15 18 15ZM16.9999 17C16.9999 16.4477 17.4477 16 18 16C18.5523 16 19 16.4477 19 17C19 17.5523 18.5523 18 18 18C17.4477 18 16.9999 17.5523 16.9999 17Z" fill="#353566"/>
<path fill-rule="evenodd" clip-rule="evenodd" d="M13.4999 17.002C13.4999 14.517 15.5144 12.5 18 12.5C20.4853 12.5 22.4999 14.5147 22.4999 17C22.4999 19.7667 20.2999 21.9 18.2999 23.4C18.1222 23.5333 17.8777 23.5333 17.6999 23.4C15.7 21.9001 13.4999 19.7667 13.4999 17.002ZM18 13.5C16.0673 13.5 14.4999 15.0687 14.4999 17.002C14.4999 19.1211 16.1234 20.9113 17.9999 22.3709C19.8764 20.9113 21.4999 19.121 21.4999 17C21.4999 15.067 19.933 13.5 18 13.5Z" fill="#353566"/>
</svg>
