<svg width="24" height="24" viewBox="0 0 24 24" fill="none" xmlns="http://www.w3.org/2000/svg">
<path opacity="0.4" d="M4.8723 1.20642L20.8255 9.11065C22.385 9.88329 22.385 12.1167 20.8255 12.8893L19.1815 13.7039C18.7308 12.8016 18.1416 12 17.0021 12C15.5743 12 15.0105 13.2587 14.5006 14.3968C14.4195 14.5778 14.3399 14.7557 14.2583 14.925C14.071 14.9495 13.8761 14.9695 13.6778 14.9898C12.4301 15.1178 11.0485 15.2595 10.6065 16.628C10.4483 17.1181 10.4797 17.5504 10.6281 17.9418L4.87231 20.7936C4.10716 21.1727 3.18658 21.0201 2.58329 20.4142C2.06328 19.8919 1.8722 19.1242 2.08633 18.4176L4.33402 11L2.08634 3.58237C1.87222 2.87575 2.06329 2.10812 2.5833 1.58584C3.18658 0.979917 4.10716 0.827324 4.8723 1.20642Z" fill="#353566"/>
<path d="M5.09428 0.758418C4.13619 0.283718 2.98365 0.475112 2.22898 1.23308C1.57882 1.88609 1.34046 2.84503 1.60783 3.72739L3.81158 11L1.60782 18.2726C1.34045 19.155 1.57881 20.1139 2.22897 20.767C2.98364 21.5249 4.13619 21.7163 5.0943 21.2416L10.8546 18.3876C10.6703 18.0976 10.5429 17.7853 10.5099 17.4424L4.65034 20.3456C4.07814 20.6291 3.38953 20.5153 2.93762 20.0614C2.54776 19.6698 2.40398 19.0935 2.56485 18.5626L4.28886 12.8732L11.8634 11.2444C12.1266 11.1878 12.1266 10.8122 11.8634 10.7556L4.28885 9.12679L2.56486 3.43739C2.40399 2.90651 2.54778 2.3302 2.93763 1.93864C3.38953 1.48476 4.07814 1.37097 4.65033 1.65447L20.6035 9.55869C21.7923 10.1477 21.7923 11.8523 20.6036 12.4413L18.9426 13.2643C19.1113 13.5461 19.2572 13.8519 19.3953 14.156L21.0475 13.3374C22.9777 12.381 22.9776 9.61895 21.0475 8.66264L5.09428 0.758418Z" fill="#353566"/>
<path fill-rule="evenodd" clip-rule="evenodd" d="M18.0133 13.6365C17.6043 12.7878 16.3957 12.7878 15.9866 13.6365L14.9213 15.8464L12.4801 16.165C11.5385 16.2879 11.1633 17.45 11.8553 18.1003L13.6335 19.7713L13.1858 22.1646C13.0121 23.0935 13.9916 23.8097 14.824 23.3625L17 22.1934L19.1759 23.3625C20.0083 23.8097 20.9878 23.0935 20.8141 22.1646L20.3664 19.7713L22.1446 18.1003C22.8366 17.45 22.4614 16.2879 21.5198 16.165L19.0786 15.8464L18.0133 13.6365ZM16.8874 14.0707C16.9328 13.9764 17.0671 13.9764 17.1125 14.0707L18.1778 16.2807C18.3244 16.5848 18.6145 16.7944 18.9492 16.838L21.3905 17.1566C21.495 17.1702 21.5367 17.2993 21.4599 17.3716L19.6816 19.0426C19.4331 19.2761 19.3208 19.62 19.3834 19.9552L19.8311 22.3485C19.8504 22.4517 19.7416 22.5312 19.6492 22.4815L17.4732 21.3125C17.1777 21.1537 16.8222 21.1537 16.5267 21.3125L14.3508 22.4815C14.2583 22.5312 14.1495 22.4517 14.1688 22.3485L14.6165 19.9552C14.6792 19.62 14.5668 19.2761 14.3183 19.0426L12.5401 17.3716C12.4632 17.2993 12.5049 17.1702 12.6095 17.1566L15.0507 16.838C15.3854 16.7944 15.6755 16.5848 15.8221 16.2807L16.8874 14.0707Z" fill="#353566"/>
</svg>
