<svg width="24" height="24" viewBox="0 0 24 24" fill="none" xmlns="http://www.w3.org/2000/svg">
<path opacity="0.4" d="M19.3507 2.11332L3.2886 7.56339C2.51824 7.82478 2 8.54789 2 9.36139C2 10.0626 2.38647 10.7067 3.00518 11.0367L9.5 14.5006L12.9639 20.9954C13.2939 21.6141 13.938 22.0006 14.6392 22.0006C15.4527 22.0006 16.1758 21.4824 16.4372 20.712L21.8873 4.64989C22.42 3.07981 20.9208 1.58057 19.3507 2.11332Z" fill="#353566"/>
<path fill-rule="evenodd" clip-rule="evenodd" d="M22.3608 4.81048C23.0267 2.84787 21.1526 0.973822 19.19 1.63976L3.12794 7.08983C2.15471 7.42005 1.5 8.33359 1.5 9.36131C1.5 10.2472 1.98825 11.0609 2.76989 11.4778L9.13043 14.8701L12.5227 21.2306C12.9396 22.0123 13.7534 22.5006 14.6392 22.5006C15.667 22.5006 16.5805 21.8458 16.9107 20.8726L22.3608 4.81048ZM19.5114 2.58673C20.6889 2.18717 21.8134 3.3116 21.4138 4.48916L15.9638 20.5513C15.7712 21.1188 15.2385 21.5006 14.6392 21.5006C14.1227 21.5006 13.6482 21.2158 13.4051 20.7601L10.8472 15.964L15.3662 8.97997C15.5126 8.75373 15.2467 8.48787 15.0205 8.63427L8.03648 13.1533L3.24048 10.5954C2.7847 10.3524 2.5 9.87786 2.5 9.36131C2.5 8.76204 2.88177 8.22935 3.44926 8.0368L19.5114 2.58673Z" fill="#353566"/>
</svg>
