<svg width="24" height="24" viewBox="0 0 24 24" fill="none" xmlns="http://www.w3.org/2000/svg">
<path opacity="0.4" d="M20.5242 8.54403L5.77595 1.27277C3.59159 0.195831 1.263 2.50218 2.22183 4.79294L4.49815 9.91016C4.78979 10.6069 4.78156 11.4002 4.47547 12.0948L2.33474 17.1892C1.32078 19.4901 3.64075 21.8198 5.84932 20.7185L10.7678 18.2657C11.1464 17.6747 11.8715 17.376 12.586 17.111C13.063 16.935 13.436 16.563 13.61 16.088C13.9934 15.0559 14.4458 14 15.749 14C16.095 14 16.412 14.104 16.697 14.263C16.881 13.905 17.178 13.61 17.57 13.466C17.6166 13.4488 17.6726 13.4327 17.7326 13.4156C17.9427 13.3554 18.201 13.2815 18.271 13.094C18.5721 12.2833 18.9908 11.505 19.992 11.502H19.999C20.7781 11.502 21.2075 11.9706 21.5005 12.5609C22.4051 11.2786 22.0818 9.31197 20.5242 8.54403Z" fill="#353566"/>
<path d="M1.76052 4.9862C0.642398 2.31486 3.35381 -0.47862 5.99697 0.824525L20.7452 8.09578C22.7 9.05953 23.0149 11.5885 21.7231 13.0882C21.5897 12.7258 21.4314 12.3709 21.2079 12.089C21.7981 11.045 21.4922 9.57897 20.303 8.9927L5.55477 1.72144C3.83069 0.871426 1.88676 2.68682 2.68094 4.59521L4.95941 9.71727C5.06074 9.95936 5.13131 10.2112 5.17145 10.4668H11C11.2761 10.4668 11.5 10.6907 11.5 10.9668C11.5 11.2429 11.2761 11.4668 11 11.4668H5.17393C5.13115 11.7491 5.05137 12.0269 4.93475 12.2925L2.79228 17.391C1.9465 19.3103 3.88158 21.1412 5.62611 20.2712L13.4877 16.3508C13.2882 16.6993 12.9709 16.969 12.586 17.111C11.638 17.4627 10.6711 17.8735 10.5203 18.9481L6.07238 21.1661C3.40112 22.4982 0.697726 19.6733 1.87532 16.9918L4.01778 11.8934C4.26816 11.3252 4.27521 10.6767 4.03887 10.1083L1.76491 4.99637L1.76052 4.9862Z" fill="#353566"/>
<path fill-rule="evenodd" clip-rule="evenodd" d="M14.8479 15.6281C15.1578 14.7906 16.3422 14.7906 16.6521 15.6281L16.9505 16.4345C17.2274 17.1827 17.8173 17.7726 18.5655 18.0495L19.3719 18.3479C20.2094 18.6578 20.2094 19.8422 19.3719 20.1521L18.5655 20.4505C17.8173 20.7274 17.2274 21.3173 16.9505 22.0655L16.6521 22.8719C16.3422 23.7094 15.1578 23.7094 14.8479 22.8719L14.5495 22.0655C14.2726 21.3173 13.6827 20.7274 12.9345 20.4505L12.1281 20.1521C11.2906 19.8422 11.2906 18.6578 12.1281 18.3479L12.9345 18.0495C13.6827 17.7726 14.2726 17.1827 14.5495 16.4345L14.8479 15.6281ZM15.75 16.0717L15.4873 16.7816C15.1092 17.8035 14.3035 18.6092 13.2816 18.9873L12.5717 19.25L13.2816 19.5127C14.3035 19.8908 15.1092 20.6965 15.4873 21.7184L15.75 22.4283L16.0127 21.7184C16.3908 20.6965 17.1965 19.8908 18.2184 19.5127L18.9283 19.25L18.2184 18.9873C17.1965 18.6092 16.3908 17.8035 16.0127 16.7816L15.75 16.0717Z" fill="#353566"/>
<path d="M20.1269 13.0883C20.0833 12.9706 19.9167 12.9706 19.8731 13.0883L19.6789 13.6133C19.4962 14.107 19.107 14.4962 18.6133 14.6789L18.0883 14.8731C17.9706 14.9167 17.9706 15.0833 18.0883 15.1269L18.6133 15.3211C19.107 15.5038 19.4962 15.893 19.6789 16.3867L19.8731 16.9117C19.9167 17.0294 20.0833 17.0294 20.1269 16.9117L20.3211 16.3867C20.5038 15.893 20.893 15.5038 21.3867 15.3211L21.9117 15.1269C22.0294 15.0833 22.0294 14.9167 21.9117 14.8731L21.3867 14.6789C20.893 14.4962 20.5038 14.107 20.3211 13.6133L20.1269 13.0883Z" fill="#353566"/>
</svg>
