<svg width="24" height="24" viewBox="0 0 24 24" fill="none" xmlns="http://www.w3.org/2000/svg">
<path opacity="0.4" d="M20.5242 8.54403L5.77595 1.27277C3.59159 0.195831 1.263 2.50218 2.22183 4.79294L4.49815 9.91016C4.78979 10.6069 4.78156 11.4002 4.47547 12.0948L2.33474 17.1892C1.32078 19.4901 3.64075 21.8198 5.84932 20.7185L10.5117 18.3934C10.5039 18.2633 10.5 18.1321 10.5 18C10.5 14.4101 13.4102 11.5 17 11.5C18.5689 11.5 20.0079 12.0558 21.131 12.9813C22.464 11.7571 22.2648 9.40216 20.5242 8.54403Z" fill="#353566"/>
<path d="M1.76052 4.9862C0.642398 2.31486 3.35381 -0.47862 5.99697 0.824525L20.7452 8.09578C22.8027 9.11015 23.0435 11.8584 21.5063 13.3156C21.2632 13.0817 21.002 12.8666 20.7249 12.6725C21.887 11.6909 21.7388 9.70057 20.303 8.9927L5.55477 1.72144C3.83069 0.871426 1.88676 2.68682 2.68094 4.59521L4.95941 9.71727C5.06074 9.95936 5.13131 10.2112 5.17145 10.4668H11C11.2761 10.4668 11.5 10.6907 11.5 10.9668C11.5 11.2429 11.2761 11.4668 11 11.4668H5.17393C5.13115 11.7491 5.05137 12.0269 4.93475 12.2925L2.79228 17.391C1.9465 19.3103 3.88158 21.1412 5.62611 20.2712L10.5019 17.8398C10.5006 17.893 10.5 17.9464 10.5 18C10.5 18.3142 10.5223 18.6232 10.5654 18.9256L6.07238 21.1661C3.40112 22.4982 0.697726 19.6733 1.87532 16.9918L4.01778 11.8934C4.26816 11.3252 4.27521 10.6767 4.03887 10.1083L1.76491 4.99637L1.76052 4.9862Z" fill="#353566"/>
<path d="M19 18.5C19.2761 18.5 19.5 18.2761 19.5 18C19.5 17.7239 19.2761 17.5 19 17.5H15C14.7239 17.5 14.5 17.7239 14.5 18C14.5 18.2761 14.7239 18.5 15 18.5H19Z" fill="#353566"/>
<path fill-rule="evenodd" clip-rule="evenodd" d="M11.5 18C11.5 14.9624 13.9624 12.5 17 12.5C20.0376 12.5 22.5 14.9624 22.5 18C22.5 21.0376 20.0376 23.5 17 23.5C13.9624 23.5 11.5 21.0376 11.5 18ZM17 13.5C14.5147 13.5 12.5 15.5147 12.5 18C12.5 20.4853 14.5147 22.5 17 22.5C19.4853 22.5 21.5 20.4853 21.5 18C21.5 15.5147 19.4853 13.5 17 13.5Z" fill="#353566"/>
</svg>
