<svg width="24" height="24" viewBox="0 0 24 24" fill="none" xmlns="http://www.w3.org/2000/svg">
<path opacity="0.4" d="M9.58152 2.25H7.16763C6.28459 2.24999 5.57634 2.24999 5.00372 2.29674C4.41538 2.34477 3.90445 2.44587 3.4336 2.6857C3.41533 2.695 3.39745 2.70506 3.38 2.71583C2.41706 3.31033 1.82247 3.92451 1.52439 4.79668C1.26226 5.56364 1.25831 6.47751 1.25369 7.54641L1.25323 7.65181C1.25243 7.82537 1.25158 8.00534 1.25 8.1937V22.281C1.25 23.0922 1.90779 23.75 2.719 23.75C3.08852 23.75 3.44443 23.611 3.71622 23.3596L8.92369 18.5531C8.93309 18.5444 8.94227 18.5355 8.95121 18.5264C9.14184 18.3315 9.27972 18.2198 9.38011 18.1588C9.42762 18.13 9.45923 18.1171 9.47695 18.1115C9.48565 18.1087 9.49127 18.1076 9.49424 18.1071L9.49768 18.1067L9.49934 18.1066C9.49935 18.1066 9.5056 18.1063 9.52203 18.1116C9.53994 18.1173 9.57174 18.1302 9.61944 18.1592C9.72023 18.2204 9.85843 18.3322 10.0494 18.527C10.0582 18.5359 10.0671 18.5446 10.0763 18.5531L15.2839 23.3597C15.5557 23.611 15.9115 23.75 16.281 23.75C17.0922 23.75 17.75 23.0922 17.75 22.281V14C17.75 13.5858 17.4142 13.25 17 13.25C12.9959 13.25 9.75 10.0041 9.75 6C9.75 5.03718 9.93729 4.11995 10.2767 3.28141C10.3703 3.05022 10.3428 2.78763 10.2034 2.58081C10.064 2.37399 9.83093 2.25 9.58152 2.25Z" fill="#353566"/>
<path fill-rule="evenodd" clip-rule="evenodd" d="M11.25 6C11.25 2.82436 13.8244 0.25 17 0.25C20.1756 0.25 22.75 2.82436 22.75 6C22.75 9.17564 20.1756 11.75 17 11.75C13.8244 11.75 11.25 9.17564 11.25 6ZM14.5581 5.94196C14.314 5.69789 14.314 5.30216 14.5581 5.05808L16.5581 3.05806C16.6753 2.94085 16.8343 2.875 17 2.875C17.1658 2.875 17.3248 2.94085 17.442 3.05806L19.442 5.05805C19.686 5.30213 19.686 5.69785 19.442 5.94193C19.1979 6.18601 18.8021 6.18601 18.5581 5.94193L17.625 5.00886L17.625 8.50002C17.625 8.8452 17.3452 9.12502 17 9.12502C16.6548 9.12502 16.375 8.8452 16.375 8.50002L16.375 5.0089L15.4419 5.94196C15.1979 6.18604 14.8021 6.18604 14.5581 5.94196Z" fill="#353566"/>
</svg>
