<svg width="24" height="24" viewBox="0 0 24 24" fill="none" xmlns="http://www.w3.org/2000/svg">
<path opacity="0.4" d="M18.3304 4.25H5.66957C5.13542 4.24999 4.68956 4.24998 4.32533 4.27974C3.94545 4.31078 3.58879 4.37789 3.25153 4.54973C2.73408 4.81338 2.31339 5.23408 2.04973 5.75153C1.87789 6.08879 1.81078 6.44545 1.77974 6.82533C1.74998 7.18956 1.74999 7.6354 1.75 8.16955V19C1.75 19.4142 2.08579 19.75 2.5 19.75H21.5C21.9142 19.75 22.25 19.4142 22.25 19V8.16955C22.25 7.6354 22.25 7.18956 22.2203 6.82533C22.1892 6.44545 22.1221 6.08879 21.9503 5.75153C21.6866 5.23408 21.2659 4.81338 20.7485 4.54973C20.4112 4.37789 20.0546 4.31078 19.6747 4.27974C19.3104 4.24998 18.8646 4.24999 18.3304 4.25Z" fill="#353566"/>
<path d="M16.6761 15.25H20.3239C20.5132 15.25 20.6976 15.25 20.8537 15.2627C21.0251 15.2767 21.2274 15.3098 21.431 15.4135C21.7132 15.5573 21.9427 15.7868 22.0865 16.069C22.1902 16.2726 22.2233 16.4749 22.2373 16.6463C22.25 16.8025 22.25 16.9868 22.25 17.1761L22.25 18.25H23C23.4142 18.25 23.75 18.5858 23.75 19C23.75 19.4142 23.4142 19.75 23 19.75H21.5024C21.5016 19.75 21.5008 19.75 21.5 19.75H15.5C15.4992 19.75 15.4984 19.75 15.4976 19.75H1C0.585786 19.75 0.25 19.4142 0.25 19C0.25 18.5858 0.585786 18.25 1 18.25H14.75L14.75 17.1761C14.75 16.9868 14.75 16.8025 14.7627 16.6463C14.7767 16.4749 14.8098 16.2726 14.9135 16.069C15.0573 15.7868 15.2868 15.5573 15.569 15.4135C15.7726 15.3098 15.9749 15.2767 16.1463 15.2627C16.3024 15.25 16.4868 15.25 16.6761 15.25Z" fill="#353566"/>
</svg>
