<svg width="24" height="24" viewBox="0 0 24 24" fill="none" xmlns="http://www.w3.org/2000/svg">
<g clip-path="url(#clip0_9001_274499)">
<path d="M7.36676 0.25H14.6328C15.7249 0.249995 16.5904 0.24999 17.288 0.306988C18.0014 0.365274 18.605 0.486882 19.1562 0.76772C20.05 1.22312 20.7766 1.94978 21.232 2.84355C21.5129 3.39472 21.6345 3.99834 21.6928 4.71173C21.7498 5.40935 21.7498 6.27484 21.7498 7.36698V11.0355C21.7498 11.4497 21.414 11.7855 20.9998 11.7855C20.5855 11.7855 20.2498 11.4497 20.2498 11.0355V7.4C20.2498 6.26752 20.2492 5.46326 20.1978 4.83388C20.147 4.21325 20.0507 3.829 19.8955 3.52453C19.5839 2.913 19.0868 2.41582 18.4752 2.10423C18.1708 1.94909 17.7865 1.85271 17.1659 1.80201C16.5365 1.75058 15.7322 1.75 14.5998 1.75H7.39976C6.26728 1.75 5.46302 1.75058 4.83364 1.80201C4.21301 1.85271 3.82876 1.94909 3.52429 2.10423C2.91276 2.41582 2.41557 2.913 2.10399 3.52453C1.94885 3.829 1.85247 4.21325 1.80176 4.83388C1.75034 5.46326 1.74976 6.26752 1.74976 7.4V11.7658C1.74976 12.8193 1.75026 13.5674 1.79494 14.1542C1.83901 14.7332 1.92287 15.0935 2.0575 15.3804C2.37981 16.0674 2.93234 16.6199 3.61932 16.9423C3.90627 17.0769 4.26659 17.1607 4.84554 17.2048C5.43237 17.2495 6.18049 17.25 7.23396 17.25L7.31002 17.2499C7.67632 17.2495 7.99857 17.2492 8.30329 17.3359C8.62062 17.4262 8.91422 17.5851 9.16327 17.8015C9.40243 18.0093 9.57827 18.2793 9.77816 18.5863L10.288 19.3674C10.5193 19.7218 10.6653 19.9442 10.7862 20.097C10.8607 20.1912 10.9008 20.2256 10.9124 20.2348C10.9663 20.2548 11.0254 20.2557 11.0797 20.2374C11.4721 20.1049 11.8977 20.3157 12.0301 20.7081C12.1626 21.1006 11.9518 21.5261 11.5594 21.6586C11.157 21.7944 10.7174 21.7797 10.3231 21.6144C10.0062 21.4815 9.78351 21.2473 9.60968 21.0275C9.44119 20.8145 9.2578 20.5335 9.04969 20.2146L8.5636 19.4699C8.29807 19.0631 8.2398 18.9862 8.17949 18.9338C8.09647 18.8617 7.9986 18.8087 7.89283 18.7786C7.81598 18.7568 7.71973 18.75 7.23396 18.75H7.20334C6.18732 18.75 5.38213 18.75 4.73168 18.7005C4.06683 18.6499 3.50253 18.5444 2.9822 18.3002C1.97815 17.8292 1.1706 17.0216 0.699529 16.0176C0.455403 15.4972 0.349879 14.9329 0.299265 14.2681C0.249748 13.6176 0.249751 12.8125 0.249756 11.7965V7.367C0.24975 6.27486 0.249746 5.40935 0.306744 4.71173C0.36503 3.99835 0.486638 3.39472 0.767475 2.84355C1.22287 1.94978 1.94953 1.22312 2.8433 0.76772C3.39448 0.486882 3.9981 0.365274 4.71149 0.306988C5.40911 0.24999 6.27462 0.249995 7.36676 0.25Z" fill="#353566"/>
<path d="M9.99976 9.5C9.99976 8.94771 10.4475 8.5 10.9998 8.5C11.552 8.5 11.9999 8.94771 11.9999 9.5C11.9999 10.0523 11.5521 10.5 10.9999 10.5C10.4476 10.5 9.99976 10.0523 9.99976 9.5Z" fill="#353566"/>
<path d="M6.99976 8.5C6.44747 8.5 5.99976 8.94771 5.99976 9.5C5.99976 10.0523 6.44747 10.5 6.99976 10.5C7.55204 10.5 7.99986 10.0523 7.99986 9.5C7.99986 8.94771 7.55204 8.5 6.99976 8.5Z" fill="#353566"/>
<path d="M13.9998 9.5C13.9998 8.94771 14.4475 8.5 14.9998 8.5C15.552 8.5 15.9999 8.94771 15.9999 9.5C15.9999 10.0523 15.5521 10.5 14.9999 10.5C14.4476 10.5 13.9998 10.0523 13.9998 9.5Z" fill="#353566"/>
<path fill-rule="evenodd" clip-rule="evenodd" d="M22.8765 19.5938C24.0421 17.9761 23.9752 15.8953 23.065 14.6621C22.3348 13.6726 21.0848 13.0497 19.8482 13.3089C19.1564 13.4553 18.5151 13.7626 17.9998 14.2484C17.4845 13.7626 16.8432 13.4553 16.1514 13.3089C14.9137 13.052 13.666 13.671 12.9346 14.6621C12.0244 15.8953 11.9575 17.9761 13.1231 19.5938C13.9144 20.6919 15.5052 22.1469 16.5093 23.0245C16.531 23.0435 16.5528 23.0626 16.5748 23.082C16.8417 23.3168 17.131 23.5712 17.504 23.6815C17.8193 23.7747 18.1803 23.7747 18.4956 23.6815C18.8686 23.5712 19.1579 23.3167 19.4249 23.0819C19.4469 23.0626 19.4686 23.0434 19.4903 23.0245C20.4943 22.1469 22.0852 20.6919 22.8765 19.5938ZM18.594 15.835C19.0105 15.2942 19.4776 14.9209 20.1573 14.7767C20.6184 14.6815 21.3299 14.8371 21.8581 15.5528C22.3489 16.2178 22.477 17.5824 21.6595 18.7169C20.985 19.653 19.5278 20.9995 18.5031 21.8951C18.4783 21.9168 18.4516 21.9407 18.4238 21.9657C18.3091 22.0684 18.1749 22.1887 18.0724 22.2423C18.0288 22.2581 17.9708 22.2582 17.9272 22.2423C17.8248 22.1888 17.6906 22.0686 17.576 21.9658C17.5481 21.9408 17.5213 21.9168 17.4965 21.8951C16.4718 20.9995 15.0146 19.653 14.3401 18.7169C13.5227 17.5824 13.6507 16.2178 14.1415 15.5528C14.6697 14.8371 15.3812 14.6815 15.8423 14.7767C16.522 14.9209 16.9891 15.2942 17.4056 15.835C17.5476 16.0194 17.7671 16.1274 17.9998 16.1274C18.2325 16.1274 18.452 16.0194 18.594 15.835Z" fill="#353566"/>
</g>
<defs>
<clipPath id="clip0_9001_274499">
<rect width="24" height="24" fill="white"/>
</clipPath>
</defs>
</svg>
