<svg width="24" height="24" viewBox="0 0 24 24" fill="none" xmlns="http://www.w3.org/2000/svg">
<g opacity="0.4">
<path d="M22 21C22.5523 21 23 20.5523 23 20C23 19.4477 22.5523 19 22 19H12C11.4477 19 11 19.4477 11 20C11 20.5523 11.4477 21 12 21H22Z" fill="#353566"/>
<path d="M12 5C12.5523 5 13 4.55228 13 4C13 3.44772 12.5523 3 12 3H2C1.44772 3 1 3.44772 1 4C1 4.55228 1.44772 5 2 5H12Z" fill="#353566"/>
</g>
<path d="M23 12C23 12.5523 22.5523 13 22 13H2C1.44772 13 1 12.5523 1 12C1 11.4477 1.44772 11 2 11H22C22.5523 11 23 11.4477 23 12Z" fill="#353566"/>
</svg>
