<svg width="24" height="24" viewBox="0 0 24 24" fill="none" xmlns="http://www.w3.org/2000/svg">
<path d="M0.25 4.12132C0.25 2.53553 1.53553 1.25 3.12132 1.25H18.8787C20.3201 1.25 21.5123 2.31141 21.7185 3.69546C21.7567 3.95162 21.66 4.20935 21.4628 4.3772C21.2655 4.54504 20.9956 4.59924 20.7489 4.52056C20.1984 4.34503 19.611 4.25 19.0001 4.25C15.8234 4.25 13.25 6.82739 13.25 10.002C13.25 11.2485 13.6042 12.365 14.1559 13.3599C14.2176 13.4712 14.25 13.5963 14.25 13.7236V22C14.25 22.2883 14.0847 22.5511 13.8249 22.676C13.565 22.8009 13.2566 22.7658 13.0315 22.5857L8.40679 18.8859C7.99166 18.5538 7.75 18.051 7.75 17.5194V13.1213C7.75 12.9224 7.67098 12.7316 7.53033 12.591L1.09099 6.15165C0.552513 5.61317 0.25 4.88284 0.25 4.12132Z" fill="#353566"/>
<path fill-rule="evenodd" clip-rule="evenodd" d="M19.0001 5.5C16.5144 5.5 14.5 7.51704 14.5 10.002C14.5 12.7667 16.7001 14.9001 18.7 16.4C18.8778 16.5333 19.1222 16.5333 19.3 16.4C21.3 14.9 23.5 12.7667 23.5 10C23.5 7.51469 21.4854 5.5 19.0001 5.5ZM20.5 10.0001C20.5 10.8285 19.8285 11.5001 19 11.5001C18.1716 11.5001 17.5 10.8285 17.5 10.0001C17.5 9.17164 18.1716 8.50006 19 8.50006C19.8285 8.50006 20.5 9.17164 20.5 10.0001Z" fill="#353566"/>
</svg>
