<svg width="24" height="24" viewBox="0 0 24 24" fill="none" xmlns="http://www.w3.org/2000/svg">
<path d="M1.25 4.12132C1.25 2.53553 2.53553 1.25 4.12132 1.25H19.8787C21.4645 1.25 22.75 2.53553 22.75 4.12132C22.75 4.54923 22.6545 4.96732 22.4753 5.34698C22.3522 5.60764 22.0907 5.77473 21.8025 5.77682C21.5142 5.77891 21.2503 5.61564 21.1235 5.35679C20.7841 4.66403 20.206 4.25006 19.5001 4.25006C18.7521 4.25006 18.1406 4.71838 17.8126 5.49599C17.7412 5.66526 17.6101 5.80243 17.4443 5.88149C16.1159 6.5148 15.2501 7.66599 15.2501 9.08174C15.2501 9.85314 15.5183 10.5144 15.9902 11.2076C16.193 11.5054 16.1554 11.9053 15.9006 12.16L15.4697 12.591C15.329 12.7316 15.25 12.9224 15.25 13.1213V22C15.25 22.2883 15.0847 22.5511 14.8249 22.676C14.565 22.8009 14.2566 22.7658 14.0315 22.5857L9.40679 18.8859C8.99166 18.5538 8.75 18.051 8.75 17.5194V13.1213C8.75 12.9224 8.67098 12.7316 8.53033 12.591L2.09099 6.15165C1.55251 5.61317 1.25 4.88284 1.25 4.12132Z" fill="#353566"/>
<path d="M20.25 6C20.25 5.58579 19.9143 5.25 19.5 5.25C19.0858 5.25 18.75 5.58579 18.75 6V6.55475C18.1846 6.64081 17.6689 6.83007 17.2476 7.13519C16.6235 7.58721 16.25 8.26705 16.25 9.08168C16.25 10.1332 16.8341 10.7917 17.5087 11.1693C18.1359 11.5204 18.8815 11.6572 19.3767 11.7398C19.8815 11.8239 20.3859 11.9308 20.7587 12.1395C21.0841 12.3217 21.25 12.539 21.25 12.9183C21.25 13.2322 21.1235 13.4682 20.8726 13.6499C20.5993 13.8479 20.1435 14 19.5 14C19.0594 14 18.7858 13.9528 18.5266 13.85C18.2498 13.7402 17.9411 13.5482 17.4528 13.1785C17.1226 12.9284 16.6522 12.9934 16.4021 13.3236C16.1521 13.6539 16.2171 14.1243 16.5473 14.3743C17.059 14.7618 17.5003 15.0566 17.9735 15.2443C18.2316 15.3467 18.4857 15.4121 18.75 15.4511V16C18.75 16.4142 19.0858 16.75 19.5 16.75C19.9143 16.75 20.25 16.4142 20.25 16V15.4452C20.8154 15.3592 21.3312 15.1699 21.7525 14.8648C22.3766 14.4128 22.75 13.7329 22.75 12.9183C22.75 11.8667 22.166 11.2083 21.4914 10.8306C20.8642 10.4795 20.1186 10.3427 19.6233 10.2602C19.1186 10.1761 18.6142 10.0691 18.2414 9.86045C17.916 9.67828 17.75 9.46096 17.75 9.08168C17.75 8.76774 17.8766 8.53173 18.1275 8.35005C18.4008 8.15208 18.8566 7.99998 19.5 7.99998C19.9407 7.99998 20.2143 8.04714 20.4735 8.14996C20.7503 8.25974 21.059 8.45172 21.5473 8.82144C21.8775 9.07149 22.3479 9.0065 22.598 8.67627C22.848 8.34605 22.783 7.87564 22.4528 7.62559C21.9411 7.23811 21.4998 6.94332 21.0266 6.75563C20.7685 6.65327 20.5143 6.58786 20.25 6.54886V6Z" fill="#353566"/>
</svg>
