<svg width="24" height="24" viewBox="0 0 24 24" fill="none" xmlns="http://www.w3.org/2000/svg">
<path d="M13.2929 8.70711C12.9024 8.31658 12.9024 7.68342 13.2929 7.29289L17.2929 3.29289C17.4804 3.10536 17.7348 3 18 3C18.2652 3 18.5196 3.10536 18.7071 3.29289L22.7071 7.29289C23.0976 7.68342 23.0976 8.31658 22.7071 8.70711C22.3166 9.09763 21.6834 9.09763 21.2929 8.70711L19 6.41421L19 14C19 14.5523 18.5523 15 18 15C17.4477 15 17 14.5523 17 14L17 6.41421L14.7071 8.70711C14.3166 9.09763 13.6834 9.09763 13.2929 8.70711Z" fill="#353566"/>
<path d="M5 5C5.55228 5 6 5.44772 6 6C6 6.55228 5.55228 7 5 7H2C1.44772 7 1 6.55228 1 6C1 5.44772 1.44772 5 2 5H5Z" fill="#353566"/>
<path d="M13 13C13 13.5523 12.5523 14 12 14H2C1.44771 14 1 13.5523 1 13C1 12.4477 1.44771 12 2 12H12C12.5523 12 13 12.4477 13 13Z" fill="#353566"/>
<path d="M20 20C20 19.4477 19.5523 19 19 19H2C1.44772 19 1 19.4477 1 20C1 20.5523 1.44772 21 2 21H19C19.5523 21 20 20.5523 20 20Z" fill="#353566"/>
</svg>
