<svg width="24" height="24" viewBox="0 0 24 24" fill="none" xmlns="http://www.w3.org/2000/svg">
<path d="M5.99697 0.824525C3.35381 -0.47862 0.642398 2.31486 1.76052 4.9862L4.03886 10.1083C4.27521 10.6767 4.26817 11.3252 4.01778 11.8934L1.87532 16.9918C0.697726 19.6733 3.40112 22.4982 6.07238 21.1661L11.2401 18.5891C11.4872 18.4659 11.5877 18.1656 11.4644 17.9185C11.3412 17.6714 11.041 17.571 10.7939 17.6942L5.62611 20.2712C3.88158 21.1412 1.9465 19.3103 2.79228 17.391L4.93475 12.2925C5.05136 12.0269 5.13113 11.7491 5.17392 11.4669H10.9999C11.2761 11.4669 11.4999 11.243 11.4999 10.9669C11.4999 10.6907 11.2761 10.4669 10.9999 10.4669H5.17146C5.13132 10.2112 5.06075 9.95939 4.95941 9.71727L2.68094 4.59521C1.88676 2.68681 3.83069 0.871427 5.55477 1.72144L20.303 8.9927C21.4259 9.54632 21.7746 10.8925 21.2849 11.9399C21.1679 12.1901 21.2759 12.4877 21.5261 12.6046C21.7762 12.7216 22.0738 12.6136 22.1908 12.3634C22.8789 10.8917 22.4215 8.92222 20.7452 8.09578L5.99697 0.824525Z" fill="#353566"/>
<path fill-rule="evenodd" clip-rule="evenodd" d="M19.5008 13.5007C19.5008 12.555 18.31 12.1386 17.7199 12.8762L13.7199 17.8756C13.1959 18.5306 13.6629 19.4998 14.5008 19.4998H16.5008V22.4992C16.5008 23.4449 17.6916 23.8613 18.2817 23.1237L22.2817 18.1243C22.8057 17.4693 22.3387 16.5001 21.5007 16.5001H19.5008V13.5007ZM18.5008 13.5007V16.5003C18.5008 17.0527 18.9488 17.5001 19.5008 17.5001H21.5004L17.5009 22.499L17.5008 19.4996C17.5008 18.9472 17.0528 18.4998 16.5008 18.4998H14.5012L18.5008 13.5007Z" fill="#353566"/>
</svg>
