<svg width="24" height="24" viewBox="0 0 24 24" fill="none" xmlns="http://www.w3.org/2000/svg">
<path opacity="0.4" d="M4.8 1.25C2.8395 1.25 1.25 2.83907 1.25 4.79954V17.5993C1.25 18.5587 2.35523 19.0959 3.10974 18.5041L5.73672 16.4437C5.81595 16.3816 5.91377 16.3478 6.01451 16.3478H15.2C17.1605 16.3478 18.75 14.7587 18.75 12.7983V4.79955C18.75 2.83907 17.1605 1.25 15.2 1.25H4.8Z" fill="#353566"/>
<path d="M11.76 5.59998C10.9533 5.59998 10.3062 6.13728 10 6.49998C9.69378 6.13728 9.04667 5.59998 8.24 5.59998C6.82889 5.59998 6 6.79998 6 8.18973C6 10.8 9.2 12.6 10 13C10.8 12.6 14 10.8 14 8.18973C14 6.79998 13.1711 5.59998 11.76 5.59998Z" fill="#353566"/>
<path d="M21.4646 6.97451C21.1394 6.71791 20.6678 6.77349 20.4112 7.09865C20.1546 7.42381 20.2102 7.89542 20.5354 8.15202C20.972 8.49657 21.25 9.02793 21.25 9.62462V20.8537L19.3936 19.3977C19.0634 19.1387 18.656 18.998 18.2364 18.998H9.62499C8.95092 18.998 8.35922 18.6429 8.02781 18.1061C7.81022 17.7536 7.3481 17.6443 6.99565 17.8619C6.64319 18.0795 6.53386 18.5416 6.75145 18.894C7.34468 19.8549 8.40943 20.498 9.62499 20.498H18.2364C18.3203 20.498 18.4019 20.5261 18.4679 20.5779L20.9307 22.5096C21.6688 23.0885 22.75 22.5629 22.75 21.6244V9.62462C22.75 8.54929 22.2461 7.59123 21.4646 6.97451Z" fill="#353566"/>
</svg>
