<svg width="24" height="24" viewBox="0 0 24 24" fill="none" xmlns="http://www.w3.org/2000/svg">
<path opacity="0.4" d="M16.4326 1.25H7.56739C6.61495 1.24999 5.8544 1.24999 5.24014 1.30018C4.61012 1.35165 4.06824 1.45963 3.57054 1.71322C2.77086 2.12068 2.12069 2.77085 1.71323 3.57054C1.45964 4.06824 1.35165 4.61012 1.30018 5.24013C1.25 5.85435 1.25 6.61484 1.25 7.56719L1.25 20.9152C1.24997 21.1532 1.24995 21.3804 1.26663 21.5639C1.28281 21.7418 1.32348 22.0306 1.52085 22.2793C1.75643 22.5762 2.114 22.7502 2.49299 22.7523C2.81048 22.7541 3.06282 22.6078 3.21281 22.5107C3.36741 22.4106 3.54616 22.2704 3.73337 22.1235L6.31064 20.1018L6.31212 20.1006C6.57594 19.8937 6.62991 19.8557 6.6814 19.8298C6.74093 19.7999 6.80417 19.7781 6.86947 19.7649C6.92607 19.7534 6.99209 19.75 7.32902 19.75H16.4326C17.385 19.75 18.1456 19.75 18.7599 19.6998C19.3899 19.6483 19.9318 19.5404 20.4295 19.2868C21.2292 18.8793 21.8793 18.2291 22.2868 17.4295C22.5404 16.9318 22.6484 16.3899 22.6998 15.7599C22.75 15.1456 22.75 14.3851 22.75 13.4327V7.56737C22.75 6.61496 22.75 5.85438 22.6998 5.24013C22.6484 4.61012 22.5404 4.06824 22.2868 3.57054C21.8793 2.77085 21.2292 2.12068 20.4295 1.71322C19.9318 1.45963 19.3899 1.35165 18.7599 1.30018C18.1456 1.24999 17.3851 1.24999 16.4326 1.25Z" fill="#353566"/>
<path d="M10.5 8.75C10.5 7.92157 11.1716 7.25 12 7.25C12.8284 7.25 13.5 7.92157 13.5 8.75C13.5 9.16862 13.3295 9.54604 13.0523 9.81898C12.9035 9.96541 12.7672 10.0424 12.5585 10.1602C12.5133 10.1858 12.4645 10.2133 12.4116 10.2438C12.12 10.412 11.7508 10.6538 11.4875 11.1467C11.2924 11.512 11.4304 11.9664 11.7957 12.1616C12.1611 12.3567 12.6155 12.2187 12.8106 11.8533C12.8762 11.7305 12.9539 11.6626 13.1609 11.5433C13.1897 11.5267 13.2223 11.5086 13.258 11.4887C13.4725 11.3695 13.8007 11.1871 14.1046 10.8879C14.6565 10.3446 15 9.58673 15 8.75C15 7.09315 13.6569 5.75 12 5.75C10.3431 5.75 9 7.09315 9 8.75C9 8.93586 9.02058 9.10532 9.04768 9.24871C9.1246 9.65572 9.5169 9.92331 9.92391 9.8464C10.3309 9.76948 10.5985 9.37718 10.5216 8.97017C10.5086 8.90123 10.5 8.82624 10.5 8.75Z" fill="#353566"/>
<path d="M12 13C11.4477 13 11 13.4477 11 14C11 14.5523 11.4477 15 12 15C12.5523 15 13.0001 14.5523 13.0001 14C13.0001 13.4477 12.5523 13 12 13Z" fill="#353566"/>
</svg>
