<svg width="24" height="24" viewBox="0 0 24 24" fill="none" xmlns="http://www.w3.org/2000/svg">
<g clip-path="url(#clip0_9001_301943)">
<path opacity="0.4" d="M11 0.25C5.06294 0.25 0.25 5.06294 0.25 11C0.25 16.9371 5.06294 21.75 11 21.75C11.1146 21.75 11.2288 21.7482 11.3425 21.7446C11.581 21.7372 11.8017 21.6167 11.9369 21.4201C12.0722 21.2235 12.1058 20.9743 12.0275 20.7489C11.7831 20.0454 11.65 19.2891 11.65 18.5C11.65 14.7168 14.7168 11.65 18.5 11.65C19.2891 11.65 20.0454 11.7831 20.7489 12.0275C20.9743 12.1058 21.2235 12.0722 21.4201 11.9369C21.6167 11.8017 21.7372 11.581 21.7446 11.3425C21.7482 11.2288 21.75 11.1146 21.75 11C21.75 5.06294 16.9371 0.25 11 0.25Z" fill="#353566"/>
<path fill-rule="evenodd" clip-rule="evenodd" d="M9.7501 6.0835C10.1643 6.0835 10.5001 6.41928 10.5001 6.8335V7.33348H10.6668V6.83353C10.6668 6.41932 11.0026 6.08353 11.4168 6.08353C11.831 6.08353 12.1668 6.41932 12.1668 6.83353V7.4004C13.1245 7.64192 13.8334 8.50908 13.8334 9.54182C13.8334 9.94943 13.723 10.3312 13.5304 10.659C13.9952 10.9902 14.3262 11.4971 14.4266 12.0827C13.0198 12.9775 11.9272 14.3221 11.3513 15.914C10.9677 15.8808 10.6668 15.559 10.6668 15.1668V14.6669H10.5001V15.1668C10.5001 15.5811 10.1643 15.9168 9.7501 15.9168C9.33589 15.9168 9.0001 15.5811 9.0001 15.1668V14.6669H8.29177C7.87755 14.6669 7.54177 14.3311 7.54177 13.9169C7.54177 13.5026 7.87755 13.1669 8.29177 13.1669H8.44692L8.44692 8.83348H8.29175C7.87753 8.83348 7.54175 8.49769 7.54175 8.08348C7.54175 7.66926 7.87753 7.33348 8.29175 7.33348H9.0001L9.0001 6.8335C9.0001 6.41928 9.33589 6.0835 9.7501 6.0835ZM9.94692 8.83348L9.94692 10.2502H11.6251C12.0163 10.2502 12.3334 9.93303 12.3334 9.54182C12.3334 9.15061 12.0163 8.83348 11.6251 8.83348H11.4223L11.4168 8.8335L11.4112 8.83348H9.94692ZM9.94692 11.7502H12.2501C12.6413 11.7502 12.9584 12.0673 12.9584 12.4585C12.9584 12.8497 12.6413 13.1669 12.2501 13.1669H9.94692V11.7502Z" fill="#353566"/>
<path fill-rule="evenodd" clip-rule="evenodd" d="M18.4199 13.0867C15.4744 13.0867 13.0866 15.4745 13.0866 18.42C13.0866 21.3655 15.4744 23.7533 18.4199 23.7533C21.3655 23.7533 23.7533 21.3655 23.7533 18.42C23.7533 15.4745 21.3655 13.0867 18.4199 13.0867ZM18.4199 15.4825C17.9367 15.4825 17.5449 15.8743 17.5449 16.3575C17.5449 16.8408 17.9367 17.2325 18.4199 17.2325C18.9032 17.2325 19.295 16.8408 19.295 16.3575C19.295 15.8743 18.9032 15.4825 18.4199 15.4825ZM17.5033 17.795C17.1581 17.795 16.8783 18.0748 16.8783 18.42C16.8783 18.7652 17.1581 19.045 17.5033 19.045H17.7949V20.7117C17.7949 21.0568 18.0748 21.3367 18.4199 21.3367C18.7651 21.3367 19.0449 21.0568 19.0449 20.7117V18.42C19.0449 18.2542 18.9791 18.0953 18.8619 17.9781C18.7447 17.8609 18.5857 17.795 18.4199 17.795H17.5033Z" fill="#353566"/>
</g>
<defs>
<clipPath id="clip0_9001_301943">
<rect width="24" height="24" fill="white"/>
</clipPath>
</defs>
</svg>
