<svg width="24" height="24" viewBox="0 0 24 24" fill="none" xmlns="http://www.w3.org/2000/svg">
<g clip-path="url(#clip0_9001_301988)">
<path opacity="0.4" d="M11 0.25C5.06294 0.25 0.25 5.06294 0.25 11C0.25 16.9371 5.06294 21.75 11 21.75C11.4648 21.75 11.9232 21.7205 12.3731 21.663C12.6247 21.6309 12.8431 21.4738 12.9534 21.2454C13.0638 21.017 13.0513 20.7483 12.9201 20.5312C12.4155 19.6962 12.125 18.7176 12.125 17.6688C12.125 14.607 14.607 12.125 17.6688 12.125C18.7176 12.125 19.6962 12.4155 20.5312 12.9201C20.7483 13.0513 21.017 13.0638 21.2454 12.9534C21.4738 12.8431 21.6309 12.6247 21.6631 12.3731C21.7205 11.9232 21.75 11.4648 21.75 11C21.75 5.06294 16.9371 0.25 11 0.25Z" fill="#353566"/>
<path fill-rule="evenodd" clip-rule="evenodd" d="M10.5001 6.83374C10.5001 6.41953 10.1643 6.08374 9.7501 6.08374C9.33589 6.08374 9.0001 6.41953 9.0001 6.83374L9.0001 7.33372H8.29175C7.87753 7.33372 7.54175 7.66951 7.54175 8.08372C7.54175 8.49793 7.87753 8.83372 8.29175 8.83372H8.44692L8.44692 13.1671H8.29177C7.87755 13.1671 7.54177 13.5029 7.54177 13.9171C7.54177 14.3313 7.87755 14.6671 8.29177 14.6671H9.0001V15.1671C9.0001 15.5813 9.33589 15.9171 9.7501 15.9171C10.1643 15.9171 10.5001 15.5813 10.5001 15.1671V14.6671H10.6668V15.1671C10.6668 15.5813 11.0026 15.9171 11.4168 15.9171C11.4912 15.9171 11.5632 15.9062 11.6311 15.886C12.0833 14.3522 13.1042 13.0621 14.4496 12.2597C14.3906 11.5998 14.0414 11.0234 13.5304 10.6592C13.723 10.3315 13.8334 9.94967 13.8334 9.54206C13.8334 8.50933 13.1245 7.64216 12.1668 7.40065V6.83378C12.1668 6.41956 11.831 6.08378 11.4168 6.08378C11.0026 6.08378 10.6668 6.41956 10.6668 6.83378V7.33372H10.5001V6.83374ZM9.94692 10.2504L9.94692 8.83372H11.4112L11.4168 8.83374L11.4223 8.83372H11.6251C12.0163 8.83372 12.3334 9.15086 12.3334 9.54206C12.3334 9.93327 12.0163 10.2504 11.6251 10.2504H9.94692ZM9.94692 11.7504V13.1671H12.2501C12.6413 13.1671 12.9584 12.85 12.9584 12.4588C12.9584 12.0675 12.6413 11.7504 12.2501 11.7504H9.94692Z" fill="#353566"/>
<path fill-rule="evenodd" clip-rule="evenodd" d="M13.0866 17.6182C13.0866 15.1156 15.1153 13.0869 17.6179 13.0869C20.1204 13.0869 22.1491 15.1156 22.1491 17.6182C22.1491 18.5987 21.8377 19.5064 21.3083 20.2479L23.5335 22.4732C23.8264 22.7661 23.8264 23.2409 23.5335 23.5338C23.2406 23.8267 22.7658 23.8267 22.4729 23.5338L20.2477 21.3086C19.5062 21.838 18.5984 22.1494 17.6179 22.1494C15.1153 22.1494 13.0866 20.1207 13.0866 17.6182ZM17.6179 14.5869C15.9437 14.5869 14.5866 15.9441 14.5866 17.6182C14.5866 19.2923 15.9437 20.6494 17.6179 20.6494C19.292 20.6494 20.6491 19.2923 20.6491 17.6182C20.6491 15.9441 19.292 14.5869 17.6179 14.5869Z" fill="#353566"/>
</g>
<defs>
<clipPath id="clip0_9001_301988">
<rect width="24" height="24" fill="white"/>
</clipPath>
</defs>
</svg>
