<svg width="24" height="24" viewBox="0 0 24 24" fill="none" xmlns="http://www.w3.org/2000/svg">
<g clip-path="url(#clip0_9001_302033)">
<path opacity="0.4" d="M11 0.25C5.06294 0.25 0.25 5.06294 0.25 11C0.25 16.9371 5.06294 21.75 11 21.75C11.3941 21.75 11.7835 21.7288 12.1671 21.6873C12.4849 21.653 12.746 21.421 12.8175 21.1094L13.1333 19.7338C13.1916 19.4799 13.3202 19.2475 13.5044 19.0632L19.1526 13.4136C19.3835 13.1817 19.5649 13.0036 19.7627 12.8661C20.1576 12.5914 20.6047 12.4293 21.0619 12.3792C21.4245 12.3395 21.706 12.0446 21.7288 11.6805C21.7429 11.4554 21.75 11.2285 21.75 11C21.75 5.06294 16.9371 0.25 11 0.25Z" fill="#353566"/>
<path fill-rule="evenodd" clip-rule="evenodd" d="M9.7501 6.08374C10.1643 6.08374 10.5001 6.41953 10.5001 6.83374V7.33372H10.6668V6.83378C10.6668 6.41956 11.0026 6.08378 11.4168 6.08378C11.831 6.08378 12.1668 6.41956 12.1668 6.83378V7.40065C13.1245 7.64216 13.8334 8.50933 13.8334 9.54206C13.8334 9.94967 13.723 10.3315 13.5304 10.6592C14.0921 11.0596 14.4584 11.7164 14.4584 12.4588C14.4584 13.6784 13.4697 14.6671 12.2501 14.6671H12.1668V15.1671C12.1668 15.5813 11.831 15.9171 11.4168 15.9171C11.0026 15.9171 10.6668 15.5813 10.6668 15.1671V14.6671H10.5001V15.1671C10.5001 15.5813 10.1643 15.9171 9.7501 15.9171C9.33589 15.9171 9.0001 15.5813 9.0001 15.1671V14.6671H8.29177C7.87755 14.6671 7.54177 14.3313 7.54177 13.9171C7.54177 13.5029 7.87755 13.1671 8.29177 13.1671H8.44692L8.44692 8.83372H8.29175C7.87753 8.83372 7.54175 8.49793 7.54175 8.08372C7.54175 7.66951 7.87753 7.33372 8.29175 7.33372H9.0001L9.0001 6.83374C9.0001 6.41953 9.33589 6.08374 9.7501 6.08374ZM9.94692 8.83372L9.94692 10.2504H11.6251C12.0163 10.2504 12.3334 9.93327 12.3334 9.54206C12.3334 9.15086 12.0163 8.83372 11.6251 8.83372H11.4223L11.4168 8.83374L11.4112 8.83372H9.94692ZM9.94692 11.7504H12.2501C12.6413 11.7504 12.9584 12.0675 12.9584 12.4588C12.9584 12.85 12.6413 13.1671 12.2501 13.1671H9.94692V11.7504Z" fill="#353566"/>
<path d="M22.1152 13.8785C21.5574 13.4909 20.8175 13.491 20.2599 13.8789C20.1408 13.9617 20.0239 14.0787 19.8391 14.2636L19.3732 14.7296C19.1779 14.9249 19.178 15.2414 19.3732 15.4367L21.4044 17.4679C21.5997 17.6632 21.9163 17.6631 22.1116 17.4678L22.5777 17.0016C22.7627 16.8167 22.8796 16.6998 22.9625 16.5805C23.3502 16.0227 23.3501 15.2826 22.9621 14.725C22.8792 14.6058 22.7622 14.4889 22.5772 14.304L22.5362 14.263C22.3513 14.0782 22.2344 13.9613 22.1152 13.8785Z" fill="#353566"/>
<path d="M17.9591 16.144C18.1544 15.9487 18.471 15.9487 18.6663 16.144L20.6974 18.1751C20.8927 18.3704 20.8927 18.6869 20.6975 18.8822L17.1091 22.4713C17.0759 22.5045 17.0339 22.5277 16.9881 22.5382L13.8924 23.2472C13.8085 23.2664 13.7206 23.2411 13.6597 23.1802C13.5989 23.1194 13.5736 23.0315 13.5929 22.9476L14.3027 19.8553C14.3132 19.8096 14.3364 19.7677 14.3695 19.7345L17.9591 16.144Z" fill="#353566"/>
</g>
<defs>
<clipPath id="clip0_9001_302033">
<rect width="24" height="24" fill="white"/>
</clipPath>
</defs>
</svg>
