<svg width="24" height="24" viewBox="0 0 24 24" fill="none" xmlns="http://www.w3.org/2000/svg">
<g clip-path="url(#clip0_9001_302133)">
<path opacity="0.4" d="M11 0.25C5.06294 0.25 0.25 5.06294 0.25 11C0.25 16.9371 5.06294 21.75 11 21.75C11.1146 21.75 11.2288 21.7482 11.3425 21.7446C11.581 21.7372 11.8017 21.6167 11.9369 21.4201C12.0722 21.2235 12.1058 20.9743 12.0275 20.7489C11.7831 20.0454 11.65 19.2891 11.65 18.5C11.65 14.7168 14.7168 11.65 18.5 11.65C19.2891 11.65 20.0454 11.7831 20.7489 12.0275C20.9743 12.1058 21.2235 12.0722 21.4201 11.9369C21.6167 11.8017 21.7372 11.581 21.7446 11.3425C21.7482 11.2288 21.75 11.1146 21.75 11C21.75 5.06294 16.9371 0.25 11 0.25Z" fill="#353566"/>
<path d="M10.5313 5.31027C10.7404 4.95229 11.2577 4.95223 11.4668 5.31016L14.4961 10.4949C14.6474 10.7539 14.5593 11.0867 14.2996 11.237L11.2704 12.9892C11.1025 13.0863 10.8956 13.0863 10.7278 12.9892L7.70013 11.237C7.44049 11.0867 7.35242 10.7541 7.50369 10.495L10.5313 5.31027Z" fill="#353566"/>
<path d="M7.77335 12.2181C7.67395 12.1606 7.56511 12.277 7.62917 12.3723L10.5495 16.7188C10.669 16.8967 10.8676 16.9755 11.0572 16.9553C11.4599 15.0049 12.6099 13.3277 14.1946 12.2363L11.2024 13.9672C11.0766 14.04 10.9214 14.0399 10.7955 13.9671L7.77335 12.2181Z" fill="#353566"/>
<path fill-rule="evenodd" clip-rule="evenodd" d="M23.7534 18.42C23.7534 15.4745 21.3656 13.0867 18.4201 13.0867C15.4746 13.0867 13.0868 15.4745 13.0868 18.42C13.0868 21.3655 15.4746 23.7533 18.4201 23.7533C21.3656 23.7533 23.7534 21.3655 23.7534 18.42ZM18.4201 14.5867C20.5372 14.5867 22.2534 16.3029 22.2534 18.42C22.2534 19.2074 22.016 19.9393 21.6089 20.5482L16.2919 15.2312C16.9008 14.8241 17.6327 14.5867 18.4201 14.5867ZM18.4201 22.2533C19.2075 22.2533 19.9394 22.0159 20.5482 21.6088L15.2313 16.2919C14.8241 16.9007 14.5868 17.6326 14.5868 18.42C14.5868 20.5371 16.303 22.2533 18.4201 22.2533Z" fill="#353566"/>
</g>
<defs>
<clipPath id="clip0_9001_302133">
<rect width="24" height="24" fill="white"/>
</clipPath>
</defs>
</svg>
