<svg width="24" height="24" viewBox="0 0 24 24" fill="none" xmlns="http://www.w3.org/2000/svg">
<g clip-path="url(#clip0_9001_301703)">
<g opacity="0.4">
<path d="M12 0.25C11.3753 0.25 10.7614 0.298822 10.1622 0.392992C9.75302 0.457298 9.47344 0.841143 9.53774 1.25033C9.60205 1.65953 9.98589 1.93911 10.3951 1.8748C10.9176 1.7927 11.4535 1.75 12 1.75C17.6609 1.75 22.25 6.33908 22.25 12C22.25 17.6609 17.6609 22.25 12 22.25C11.4535 22.25 10.9176 22.2073 10.3951 22.1252C9.9859 22.0609 9.60205 22.3405 9.53774 22.7497C9.47344 23.1589 9.75302 23.5427 10.1622 23.607C10.7614 23.7012 11.3753 23.75 12 23.75C18.4893 23.75 23.75 18.4893 23.75 12C23.75 5.51065 18.4893 0.25 12 0.25Z" fill="#353566"/>
<path d="M5.97532 3.70653C6.31023 3.46279 6.38414 2.9937 6.1404 2.65879C5.89666 2.32388 5.42757 2.24997 5.09267 2.49371C4.09647 3.21873 3.21872 4.09647 2.49371 5.09267C2.24997 5.42758 2.32388 5.89666 2.65879 6.1404C2.9937 6.38414 3.46278 6.31024 3.70652 5.97533C4.33939 5.10574 5.10574 4.33939 5.97532 3.70653Z" fill="#353566"/>
<path d="M1.8748 10.3951C1.93911 9.9859 1.65953 9.60205 1.25033 9.53774C0.841143 9.47344 0.457297 9.75302 0.392991 10.1622C0.298822 10.7614 0.25 11.3753 0.25 12C0.25 12.6247 0.298822 13.2386 0.392992 13.8378C0.457298 14.247 0.841143 14.5266 1.25033 14.4623C1.65953 14.398 1.93911 14.0141 1.8748 13.6049C1.7927 13.0824 1.75 12.5465 1.75 12C1.75 11.4535 1.7927 10.9176 1.8748 10.3951Z" fill="#353566"/>
<path d="M3.70653 18.0247C3.46279 17.6898 2.9937 17.6159 2.65879 17.8596C2.32388 18.1033 2.24997 18.5724 2.49371 18.9073C3.21873 19.9035 4.09647 20.7813 5.09267 21.5063C5.42758 21.75 5.89666 21.6761 6.1404 21.3412C6.38414 21.0063 6.31024 20.5372 5.97533 20.2935C5.10574 19.6606 4.33939 18.8943 3.70653 18.0247Z" fill="#353566"/>
</g>
<path d="M12 6.25C12.4143 6.25 12.75 6.58579 12.75 7V7.54886C13.0143 7.58786 13.2685 7.65327 13.5266 7.75563C13.9998 7.94332 14.4411 8.23811 14.9528 8.62559C15.283 8.87564 15.348 9.34605 15.098 9.67627C14.8479 10.0065 14.3775 10.0715 14.0473 9.82144C13.559 9.45172 13.2503 9.25974 12.9735 9.14996C12.7143 9.04714 12.4407 8.99998 12 8.99998C11.3566 8.99998 10.9008 9.15208 10.6275 9.35004C10.3766 9.53173 10.25 9.76774 10.25 10.0817C10.25 10.461 10.416 10.6783 10.7414 10.8604C11.1142 11.0691 11.6186 11.1761 12.1233 11.2602C12.6186 11.3427 13.3642 11.4795 13.9914 11.8306C14.666 12.2083 15.25 12.8667 15.25 13.9183C15.25 14.7329 14.8766 15.4128 14.2525 15.8648C13.8312 16.1699 13.3154 16.3592 12.75 16.4452V17C12.75 17.4142 12.4143 17.75 12 17.75C11.5858 17.75 11.25 17.4142 11.25 17V16.4511C10.9857 16.4121 10.7316 16.3467 10.4735 16.2443C10.0003 16.0566 9.55901 15.7618 9.04729 15.3743C8.71706 15.1243 8.65207 14.6539 8.90212 14.3236C9.15217 13.9934 9.62257 13.9284 9.9528 14.1785C10.4411 14.5482 10.7498 14.7402 11.0266 14.85C11.2858 14.9528 11.5594 15 12 15C12.6435 15 13.0993 14.8479 13.3726 14.6499C13.6235 14.4682 13.75 14.2322 13.75 13.9183C13.75 13.539 13.5841 13.3217 13.2587 13.1395C12.8859 12.9308 12.3815 12.8239 11.8767 12.7398C11.3815 12.6572 10.6359 12.5204 10.0087 12.1693C9.33412 11.7917 8.75004 11.1332 8.75004 10.0817C8.75004 9.26705 9.12349 8.58721 9.74762 8.13519C10.1689 7.83007 10.6846 7.64081 11.25 7.55475V7C11.25 6.58579 11.5858 6.25 12 6.25Z" fill="#353566"/>
</g>
<defs>
<clipPath id="clip0_9001_301703">
<rect width="24" height="24" fill="white"/>
</clipPath>
</defs>
</svg>
