<svg width="24" height="24" viewBox="0 0 24 24" fill="none" xmlns="http://www.w3.org/2000/svg">
<g clip-path="url(#clip0_9001_301408)">
<path opacity="0.4" d="M11 0.25C5.06294 0.25 0.25 5.06294 0.25 11C0.25 16.9371 5.06294 21.75 11 21.75C11.9129 21.75 12.8003 21.636 13.6482 21.4212C13.8932 21.3591 14.0905 21.1777 14.1729 20.9387C14.3688 20.3709 14.7488 19.8792 15.2316 19.5171C15.7768 19.1082 16.4224 18.911 17.2082 18.7697C17.5655 18.7055 17.8255 18.3946 17.8255 18.0316V15.3735C17.8255 14.229 18.5808 13.2218 19.6796 12.9014L21.1828 12.4629C21.4834 12.3752 21.6979 12.1101 21.7208 11.7978C21.7402 11.5343 21.75 11.2682 21.75 11C21.75 5.06294 16.9371 0.25 11 0.25Z" fill="#353566"/>
<path d="M11.7499 6.83325C11.7499 6.41904 11.4141 6.08325 10.9999 6.08325C10.5857 6.08325 10.2499 6.41904 10.2499 6.83325V7.18968C9.80367 7.27062 9.39264 7.42952 9.04954 7.678C8.49832 8.07721 8.16655 8.68073 8.16655 9.40132C8.16655 10.3336 8.68812 10.9191 9.27937 11.2501C9.82323 11.5545 10.4647 11.671 10.8766 11.7397C11.298 11.8099 11.6982 11.8965 11.9877 12.0586C12.2298 12.1941 12.3332 12.3384 12.3332 12.5985C12.3332 12.8184 12.2483 12.9781 12.0704 13.1069C11.87 13.2521 11.5184 13.3749 10.9999 13.3749C10.6426 13.3749 10.4315 13.3368 10.2347 13.2587C10.0205 13.1737 9.77424 13.0223 9.3693 12.7157C9.03908 12.4656 8.56867 12.5306 8.31862 12.8608C8.06857 13.1911 8.13357 13.6615 8.46379 13.9115C8.89218 14.2359 9.27095 14.4901 9.68168 14.653C9.87168 14.7284 10.0589 14.7806 10.2499 14.8153V15.1666C10.2499 15.5808 10.5857 15.9166 10.9999 15.9166C11.4141 15.9166 11.7499 15.5808 11.7499 15.1666V14.8101C12.1961 14.7292 12.6071 14.5703 12.9502 14.3218C13.5014 13.9226 13.8332 13.3191 13.8332 12.5985C13.8332 11.6662 13.3116 11.0807 12.7204 10.7497C12.1765 10.4453 11.5351 10.3288 11.1232 10.2601C10.7017 10.1899 10.3015 10.1033 10.0121 9.94122C9.76997 9.8057 9.66655 9.66136 9.66655 9.40132C9.66655 9.18143 9.75143 9.02174 9.92938 8.89286C10.1298 8.74771 10.4814 8.6249 10.9999 8.6249C11.3572 8.6249 11.5683 8.66305 11.765 8.74108C11.9793 8.82607 12.2255 8.97749 12.6305 9.28411C12.9607 9.53416 13.4311 9.46916 13.6811 9.13894C13.9312 8.80871 13.8662 8.33831 13.536 8.08826C13.1076 7.76387 12.7288 7.50965 12.3181 7.34675C12.1281 7.27139 11.9409 7.21924 11.7499 7.18453V6.83325Z" fill="#353566"/>
<path d="M22.6373 16.7883L19.7952 17.6172V21.62L19.7953 21.6282C19.7953 22.1456 19.5303 22.6257 19.0749 22.9673C18.6244 23.3051 18.054 23.4617 17.5034 23.4617C16.9527 23.4617 16.3823 23.3051 15.9318 22.9673C15.4765 22.6257 15.2115 22.1456 15.2115 21.6282C15.2115 21.1108 15.4765 20.6307 15.9318 20.2891C16.3823 19.9513 16.9527 19.7947 17.5034 19.7947C17.9768 19.7947 18.4647 19.9104 18.8786 20.1576V15.4032C18.8786 14.7921 19.2819 14.2542 19.8687 14.0831L22.1423 13.42C22.8023 13.2275 23.4624 13.7225 23.4624 14.4101V15.6882C23.4624 16.1975 23.1262 16.6457 22.6373 16.7883Z" fill="#353566"/>
</g>
<defs>
<clipPath id="clip0_9001_301408">
<rect width="24" height="24" fill="white"/>
</clipPath>
</defs>
</svg>
