<svg width="24" height="24" viewBox="0 0 24 24" fill="none" xmlns="http://www.w3.org/2000/svg">
<g opacity="0.4">
<path d="M10 11C12.4853 11 14.5 8.98528 14.5 6.5C14.5 4.01472 12.4853 2 10 2C7.51472 2 5.5 4.01472 5.5 6.5C5.5 8.98528 7.51472 11 10 11Z" fill="#353566"/>
<path d="M9.99887 14C11.5055 14 12.8862 14.2948 14.0693 14.8456L12.9444 16.252C11.9638 17.4779 12.7235 19.2733 14.208 19.4773L15.5038 19.6554V21.4962C15.5038 21.6738 15.5248 21.8421 15.5639 22H4.2481C4.02257 22 3.9098 22 3.81476 21.9909C2.86193 21.8995 2.10759 21.1444 2.01635 20.1906C1.98747 19.8886 1.99147 19.5575 2.07254 19.2646C3.04258 15.7598 6.57677 14 9.99887 14Z" fill="#353566"/>
</g>
<path fill-rule="evenodd" clip-rule="evenodd" d="M4.99976 6.5C4.99976 3.73858 7.23833 1.5 9.99976 1.5C12.7612 1.5 14.9998 3.73858 14.9998 6.5C14.9998 9.26142 12.7612 11.5 9.99976 11.5C7.23833 11.5 4.99976 9.26142 4.99976 6.5ZM9.99976 2.5C7.79062 2.5 5.99976 4.29086 5.99976 6.5C5.99976 8.70914 7.79062 10.5 9.99976 10.5C12.2089 10.5 13.9998 8.70914 13.9998 6.5C13.9998 4.29086 12.2089 2.5 9.99976 2.5Z" fill="#353566"/>
<path d="M14.3895 14.4449C13.1105 13.8278 11.6162 13.5 9.99864 13.5C6.44138 13.5 2.64136 15.3341 1.59042 19.1312C1.48668 19.506 1.48651 19.9049 1.51839 20.2382C1.6324 21.4301 2.57516 22.3744 3.76681 22.4886C3.8861 22.5 4.02129 22.5 4.21974 22.5L15.7644 22.5C15.6008 22.2162 15.5042 21.8794 15.5035 21.5H4.24787C4.01075 21.5 3.92748 21.4994 3.86225 21.4932C3.14822 21.4247 2.5823 20.8587 2.51385 20.143C2.48795 19.8723 2.49578 19.609 2.55419 19.3979C3.44333 16.1854 6.71168 14.5 9.99864 14.5C11.3928 14.5 12.6602 14.7619 13.7474 15.2477L14.3895 14.4449Z" fill="#353566"/>
<path fill-rule="evenodd" clip-rule="evenodd" d="M19.5008 12.5007C19.5008 11.555 18.31 11.1386 17.7199 11.8762L13.7199 16.8756C13.1959 17.5306 13.6629 18.4998 14.5008 18.4998H16.5008V21.4992C16.5008 22.4449 17.6916 22.8613 18.2817 22.1237L22.2817 17.1243C22.8057 16.4693 22.3387 15.5001 21.5007 15.5001H19.5008V12.5007ZM18.5008 12.5007V15.5003C18.5008 16.0527 18.9488 16.5001 19.5008 16.5001H21.5004L17.5009 21.499L17.5008 18.4996C17.5008 17.9472 17.0528 17.4998 16.5008 17.4998H14.5012L18.5008 12.5007Z" fill="#353566"/>
</svg>
