<svg width="24" height="24" viewBox="0 0 24 24" fill="none" xmlns="http://www.w3.org/2000/svg">
<g opacity="0.4">
<path d="M10 11C12.4853 11 14.5 8.98528 14.5 6.5C14.5 4.01472 12.4853 2 10 2C7.51472 2 5.5 4.01472 5.5 6.5C5.5 8.98528 7.51472 11 10 11Z" fill="#353566"/>
<path d="M9.99887 14C12.7158 14 15.0232 14.9586 16.5005 16.6489V17.3432C16.3764 17.3655 16.2518 17.3866 16.1272 17.4077C15.267 17.5536 14.4048 17.6998 13.6859 18.239C12.9731 18.7736 12.5 19.5784 12.5 20.4998C12.5 21.0704 12.673 21.5751 12.962 22H4.2481C4.02257 22 3.9098 22 3.81476 21.9909C2.86193 21.8995 2.10759 21.1444 2.01635 20.1906C1.98747 19.8886 1.99147 19.5575 2.07254 19.2646C3.04258 15.7598 6.57677 14 9.99887 14Z" fill="#353566"/>
</g>
<path fill-rule="evenodd" clip-rule="evenodd" d="M5 6.5C5 3.73858 7.23858 1.5 10 1.5C12.7614 1.5 15 3.73858 15 6.5C15 9.26142 12.7614 11.5 10 11.5C7.23858 11.5 5 9.26142 5 6.5ZM10 2.5C7.79086 2.5 6 4.29086 6 6.5C6 8.70914 7.79086 10.5 10 10.5C12.2091 10.5 14 8.70914 14 6.5C14 4.29086 12.2091 2.5 10 2.5Z" fill="#353566"/>
<path d="M16.5005 15.919C14.918 14.361 12.6204 13.5 9.99888 13.5C6.44163 13.5 2.64161 15.3341 1.59067 19.1312C1.48693 19.506 1.48675 19.9049 1.51863 20.2382C1.63265 21.4301 2.57541 22.3744 3.76705 22.4886C3.88634 22.5 4.02153 22.5 4.21999 22.5L13.3917 22.5C13.0914 22.2184 12.849 21.8828 12.6932 21.5H4.24811C4.011 21.5 3.92772 21.4994 3.86249 21.4932C3.14846 21.4247 2.58255 20.8587 2.51409 20.143C2.4882 19.8723 2.49603 19.609 2.55444 19.3979C3.44357 16.1854 6.71192 14.5 9.99888 14.5C12.7961 14.5 15.0832 15.5545 16.4284 17.356L16.5005 17.3432V15.919Z" fill="#353566"/>
<path fill-rule="evenodd" clip-rule="evenodd" d="M21.601 15.22L18.5006 16.1243V20.4999C18.5006 21.0643 18.2115 21.5881 17.7147 21.9607C17.2233 22.3292 16.6011 22.5001 16.0003 22.5001C15.3996 22.5001 14.7774 22.3292 14.2859 21.9607C13.7891 21.5881 13.5001 21.0643 13.5001 20.4999C13.5001 19.9355 13.7891 19.4117 14.2859 19.0391C14.7774 18.6705 15.3996 18.4997 16.0003 18.4997C16.5168 18.4997 17.0491 18.6259 17.5006 18.8956V13.709C17.5006 13.0423 17.9406 12.4556 18.5807 12.2689L21.061 11.5455C21.781 11.3355 22.5011 11.8755 22.5011 12.6255V14.0199C22.5011 14.5755 22.1344 15.0644 21.601 15.22ZM21.341 12.5055C21.421 12.4821 21.5011 12.5422 21.5011 12.6255V14.0199C21.5011 14.131 21.4277 14.2288 21.321 14.26L18.5006 15.0826V13.709C18.5006 13.4867 18.6473 13.2911 18.8607 13.2289L21.341 12.5055ZM17.1147 19.8391C17.3988 20.0522 17.5004 20.296 17.5006 20.4993C17.5006 20.7028 17.3991 20.9474 17.1147 21.1607C16.825 21.378 16.4234 21.5001 16.0003 21.5001C15.5772 21.5001 15.1756 21.378 14.8859 21.1607C14.6016 20.9474 14.5001 20.7033 14.5001 20.4999C14.5001 20.2964 14.6016 20.0524 14.8859 19.8391C15.1756 19.6218 15.5772 19.4997 16.0003 19.4997C16.4234 19.4997 16.825 19.6218 17.1147 19.8391Z" fill="#353566"/>
</svg>
