<svg width="24" height="24" viewBox="0 0 24 24" fill="none" xmlns="http://www.w3.org/2000/svg">
<path fill-rule="evenodd" clip-rule="evenodd" d="M10.24 9.1001C9.37821 9.1001 8.67736 9.47246 8.20226 10.0592C7.73498 10.6362 7.5 11.4003 7.5 12.1898C7.5 13.7043 8.42426 14.9313 9.36185 15.7921C10.3098 16.6624 11.3553 17.2368 11.7764 17.4473L12 17.5591L12.2236 17.4473C12.6447 17.2368 13.6902 16.6624 14.6381 15.7921C15.5757 14.9313 16.5 13.7043 16.5 12.1898C16.5 11.4003 16.265 10.6362 15.7977 10.0592C15.3226 9.47246 14.6218 9.1001 13.76 9.1001C13.0212 9.1001 12.4118 9.44896 12 9.79744C11.5882 9.44896 10.9788 9.1001 10.24 9.1001ZM8.5 12.1898C8.5 11.5897 8.67947 11.0589 8.97941 10.6885C9.27153 10.3277 9.69068 10.1001 10.24 10.1001C10.8319 10.1001 11.3523 10.508 11.618 10.8227L12 11.2752L12.382 10.8227C12.6477 10.508 13.1681 10.1001 13.76 10.1001C14.3093 10.1001 14.7285 10.3277 15.0206 10.6885C15.3205 11.0589 15.5 11.5897 15.5 12.1898C15.5 13.2856 14.8243 14.2637 13.9619 15.0555C13.2463 15.7125 12.4585 16.1884 12 16.4363C11.5415 16.1884 10.7537 15.7125 10.0381 15.0555C9.17574 14.2637 8.5 13.2856 8.5 12.1898Z" fill="#353566"/>
<path fill-rule="evenodd" clip-rule="evenodd" d="M12 3.5C7.85786 3.5 4.5 6.85786 4.5 11C4.5 11.1766 4.50611 11.3518 4.51814 11.5255C2.25944 11.7659 0.5 13.6775 0.5 16C0.5 18.4853 2.51472 20.5 5 20.5H18C21.0376 20.5 23.5 18.0376 23.5 15C23.5 12.4399 21.7513 10.2892 19.3833 9.67556C18.7576 6.16494 15.6904 3.5 12 3.5ZM5.5 11C5.5 7.41015 8.41015 4.5 12 4.5C15.3026 4.5 18.0306 6.9635 18.4454 10.1529C18.4732 10.3671 18.6355 10.5392 18.8476 10.5796C20.9277 10.9758 22.5 12.8048 22.5 15C22.5 17.4853 20.4853 19.5 18 19.5H5C3.067 19.5 1.5 17.933 1.5 16C1.5 14.067 3.067 12.5 5 12.5C5.02074 12.5 5.0415 12.5002 5.06227 12.5005C5.20874 12.5031 5.34896 12.4413 5.44588 12.3314C5.54281 12.2216 5.58669 12.0748 5.56593 11.9298C5.52251 11.6264 5.5 11.316 5.5 11Z" fill="#353566"/>
</svg>
