<svg width="24" height="24" viewBox="0 0 24 24" fill="none" xmlns="http://www.w3.org/2000/svg">
<path fill-rule="evenodd" clip-rule="evenodd" d="M13.3123 9.40052C13.3123 8.53437 12.2265 8.18858 11.7009 8.83557L8.45163 12.8351C7.96368 13.4357 8.41103 14.2999 9.15692 14.2999H10.6877V16.5994C10.6877 17.4655 11.7735 17.8113 12.2991 17.1643L15.5484 13.1648C16.0363 12.5641 15.589 11.7 14.8431 11.7H13.3123V9.40052ZM9.36248 13.2999L12.3123 9.66885V11.8002C12.3123 12.3046 12.7255 12.7 13.2185 12.7H14.6375L11.6877 16.331V14.1996C11.6877 13.6953 11.2745 13.2999 10.7815 13.2999H9.36248Z" fill="#353566"/>
<path fill-rule="evenodd" clip-rule="evenodd" d="M12 3.5C7.85786 3.5 4.5 6.85786 4.5 11C4.5 11.1766 4.50611 11.3518 4.51814 11.5255C2.25944 11.7659 0.5 13.6775 0.5 16C0.5 18.4853 2.51472 20.5 5 20.5H18C21.0376 20.5 23.5 18.0376 23.5 15C23.5 12.4399 21.7513 10.2892 19.3833 9.67556C18.7576 6.16494 15.6904 3.5 12 3.5ZM5.5 11C5.5 7.41015 8.41015 4.5 12 4.5C15.3026 4.5 18.0306 6.9635 18.4454 10.1529C18.4732 10.3671 18.6355 10.5392 18.8476 10.5796C20.9277 10.9758 22.5 12.8048 22.5 15C22.5 17.4853 20.4853 19.5 18 19.5H5C3.067 19.5 1.5 17.933 1.5 16C1.5 14.067 3.067 12.5 5 12.5C5.02074 12.5 5.0415 12.5002 5.06227 12.5005C5.20874 12.5031 5.34896 12.4413 5.44588 12.3314C5.54281 12.2216 5.58669 12.0748 5.56593 11.9298C5.52251 11.6264 5.5 11.316 5.5 11Z" fill="#353566"/>
</svg>
