<svg width="24" height="24" viewBox="0 0 24 24" fill="none" xmlns="http://www.w3.org/2000/svg">
<path fill-rule="evenodd" clip-rule="evenodd" d="M14.3333 13.1249C14.3333 12.8488 14.1094 12.6249 13.8333 12.6249C13.5571 12.6249 13.3333 12.8488 13.3333 13.1249V14H11.529C11.437 13.5785 11.2271 13.1777 10.8995 12.85C9.98827 11.9388 8.51119 11.9388 7.60001 12.85C6.68883 13.7612 6.68883 15.2383 7.60001 16.1495C8.51119 17.0606 9.98827 17.0606 10.8995 16.1495C11.227 15.8219 11.4368 15.4212 11.5289 15H13.8189C13.8236 15.0001 13.8284 15.0002 13.8333 15.0002C13.8381 15.0002 13.8429 15.0001 13.8476 15H16.5833C16.8594 15 17.0833 14.7761 17.0833 14.5V12.6666C17.0833 12.3905 16.8594 12.1666 16.5833 12.1666C16.3071 12.1666 16.0833 12.3905 16.0833 12.6666V14H14.3333V13.1249ZM10.1923 13.5571C9.67169 13.0365 8.82777 13.0365 8.30712 13.5571C7.78646 14.0778 7.78646 14.9217 8.30712 15.4423C8.82777 15.963 9.67169 15.963 10.1923 15.4423C10.713 14.9217 10.713 14.0778 10.1923 13.5571Z" fill="#353566"/>
<path fill-rule="evenodd" clip-rule="evenodd" d="M12.8068 1.49989C13.1243 1.49974 13.3642 1.49963 13.5956 1.55517C13.7996 1.60416 13.9947 1.68497 14.1737 1.79463C14.3765 1.91894 14.5461 2.08866 14.7705 2.31327L19.6866 7.22942C19.9113 7.45382 20.081 7.62337 20.2053 7.82623C20.3149 8.00518 20.3957 8.20027 20.4447 8.40434C20.5003 8.63568 20.5002 8.87558 20.5 9.19307L20.5 17.2221C20.5 18.0434 20.5 18.6904 20.4575 19.211C20.4141 19.7422 20.3239 20.1858 20.1185 20.5889C19.783 21.2474 19.2475 21.7829 18.589 22.1184C18.1859 22.3238 17.7423 22.414 17.2111 22.4574C16.6905 22.4999 16.0435 22.4999 15.2222 22.4999H8.77778C7.95651 22.4999 7.30954 22.4999 6.78889 22.4574C6.25771 22.414 5.81413 22.3238 5.41103 22.1184C4.75247 21.7829 4.21703 21.2474 3.88148 20.5889C3.67609 20.1858 3.58593 19.7422 3.54253 19.211C3.49999 18.6904 3.5 18.0434 3.5 17.2221V6.7777C3.5 5.95644 3.49999 5.30945 3.54253 4.7888C3.58593 4.25762 3.67609 3.81404 3.88148 3.41094C4.21703 2.75238 4.75247 2.21694 5.41103 1.88139C5.81413 1.676 6.25771 1.58584 6.78889 1.54244C7.30954 1.4999 7.95652 1.49991 8.77779 1.49991L12.8068 1.49989ZM12.7559 2.49991C12.853 2.49991 12.933 2.50011 13 2.50078V6.49994C13 7.88065 14.1193 8.99994 15.5 8.99994H19.4991C19.4998 9.06691 19.5 9.14691 19.5 9.24402V17.1999C19.5 18.0482 19.4996 18.6544 19.4608 19.1296C19.4224 19.5989 19.3491 19.8963 19.2275 20.1349C18.9878 20.6053 18.6054 20.9877 18.135 21.2274C17.8963 21.349 17.599 21.4224 17.1297 21.4607C16.6545 21.4995 16.0483 21.4999 15.2 21.4999H8.8C7.95167 21.4999 7.34549 21.4995 6.87032 21.4607C6.40099 21.4224 6.10366 21.349 5.86502 21.2274C5.39462 20.9877 5.01217 20.6053 4.77248 20.1349C4.65089 19.8963 4.57756 19.5989 4.53921 19.1296C4.50039 18.6544 4.5 18.0482 4.5 17.1999V6.79991C4.5 5.95158 4.50039 5.3454 4.53921 4.87023C4.57756 4.4009 4.65089 4.10357 4.77248 3.86493C5.01217 3.39453 5.39462 3.01208 5.86502 2.77239C6.10366 2.6508 6.40099 2.57747 6.87032 2.53912C7.34549 2.5003 7.95167 2.49991 8.8 2.49991H12.7559ZM18.9435 7.90052L19.0426 7.99994H15.5C14.6716 7.99994 14 7.32837 14 6.49994V2.95731L14.0994 3.05641L18.9435 7.90052Z" fill="#353566"/>
</svg>
