<svg width="24" height="24" viewBox="0 0 24 24" fill="none" xmlns="http://www.w3.org/2000/svg">
<path fill-rule="evenodd" clip-rule="evenodd" d="M10.4245 2.50002C10.6941 2.50002 10.8703 2.50091 11 2.5073V6.5C11 7.88071 12.1193 9 13.5 9H17.4926C17.4976 9.09946 17.4995 9.22691 17.4999 9.40249C17.5005 9.67863 17.7248 9.90203 18.0009 9.90147C18.2771 9.9009 18.5005 9.67659 18.4999 9.40045C18.4991 9.03312 18.4951 8.76226 18.4309 8.49483C18.3697 8.23974 18.2687 7.99588 18.1316 7.7722C17.9765 7.51909 17.7638 7.30655 17.4566 6.99949L13.0005 2.54343C12.6935 2.23619 12.4809 2.02353 12.2278 1.86842C12.0041 1.73135 11.7603 1.63034 11.5052 1.5691C11.2165 1.4998 10.9159 1.49988 10.4815 1.50001L6.77779 1.50002C5.95652 1.50002 5.30954 1.50002 4.78889 1.54255C4.25771 1.58595 3.81414 1.67611 3.41103 1.8815C2.75247 2.21706 2.21703 2.75249 1.88148 3.41105C1.67609 3.81416 1.58593 4.25773 1.54253 4.78891C1.49999 5.30957 1.5 5.95654 1.5 6.7778V17.2222C1.5 18.0435 1.49999 18.6905 1.54253 19.2111C1.58593 19.7423 1.67609 20.1859 1.88148 20.589C2.21703 21.2476 2.75247 21.783 3.41103 22.1185C3.81413 22.3239 4.25771 22.4141 4.78889 22.4575C5.30954 22.5 5.95651 22.5 6.77778 22.5H14.5032C14.6992 22.5 14.859 22.5 14.9921 22.4979C15.2682 22.4936 15.4885 22.2663 15.4842 21.9902C15.4799 21.7141 15.2526 21.4937 14.9764 21.4981C14.8522 21.5 14.7003 21.5 14.5 21.5H6.8C5.95167 21.5 5.34549 21.4996 4.87032 21.4608C4.40099 21.4225 4.10366 21.3491 3.86502 21.2275C3.39462 20.9879 3.01217 20.6054 2.77248 20.135C2.65089 19.8964 2.57756 19.599 2.53921 19.1297C2.50039 18.6545 2.5 18.0483 2.5 17.2V6.80002C2.5 5.95169 2.50039 5.34552 2.53921 4.87034C2.57756 4.40101 2.65089 4.10368 2.77248 3.86505C3.01217 3.39464 3.39462 3.01219 3.86502 2.77251C4.10366 2.65092 4.40099 2.57758 4.87032 2.53923C5.34549 2.50041 5.95167 2.50002 6.8 2.50002H10.4245ZM16.7092 7.66632C16.852 7.80916 16.9575 7.91529 17.038 8H13.5C12.6716 8 12 7.32843 12 6.5V2.96199C12.0847 3.04255 12.1909 3.14798 12.3337 3.29083L16.7092 7.66632Z" fill="#353566"/>
<path d="M19 12.7749V12C19 11.7239 19.2239 11.5 19.5 11.5C19.7761 11.5 20 11.7239 20 12V12.7708C20.3289 12.801 20.6294 12.8671 20.9344 12.988C21.3749 13.1627 21.794 13.4404 22.3019 13.8249C22.522 13.9916 22.5653 14.3052 22.3987 14.5254C22.232 14.7455 21.9183 14.7889 21.6982 14.6222C21.206 14.2495 20.8752 14.0404 20.5657 13.9176C20.2679 13.7995 19.9604 13.75 19.5 13.75C18.821 13.75 18.3089 13.91 17.9808 14.1476C17.6677 14.3743 17.5 14.6843 17.5 15.0817C17.5 15.573 17.7356 15.8639 18.1193 16.0786C18.5345 16.311 19.0791 16.4229 19.5822 16.5068C20.0791 16.5896 20.7845 16.7214 21.3693 17.0488C21.9856 17.3938 22.5 17.9788 22.5 18.9183C22.5 19.6495 22.1677 20.2554 21.6058 20.6623C21.1725 20.9761 20.6194 21.1616 20 21.2251V22C20 22.2761 19.7761 22.5 19.5 22.5C19.2239 22.5 19 22.2761 19 22V21.2292C18.6711 21.199 18.3706 21.1329 18.0657 21.0119C17.6252 20.8372 17.206 20.5596 16.6982 20.175C16.478 20.0083 16.4347 19.6947 16.6014 19.4746C16.7681 19.2544 17.0817 19.2111 17.3019 19.3778C17.7941 19.7505 18.1249 19.9596 18.4344 20.0824C18.7322 20.2005 19.0396 20.25 19.5 20.25C20.179 20.25 20.6912 20.09 21.0193 19.8524C21.3323 19.6257 21.5 19.3157 21.5 18.9183C21.5 18.427 21.2644 18.1361 20.8808 17.9214C20.4656 17.689 19.921 17.5771 19.4178 17.4932C18.921 17.4104 18.2156 17.2786 17.6308 16.9512C17.0144 16.6062 16.5 16.0212 16.5 15.0817C16.5 14.3505 16.8323 13.7446 17.3942 13.3377C17.8275 13.0239 18.3806 12.8384 19 12.7749Z" fill="#353566"/>
</svg>
