<svg width="24" height="24" viewBox="0 0 24 24" fill="none" xmlns="http://www.w3.org/2000/svg">
<path d="M11.5 9.08983V8.41693C11.5 8.14078 11.7239 7.91693 12 7.91693C12.2761 7.91693 12.5 8.14078 12.5 8.41693V9.08566C12.7901 9.11516 13.0582 9.17596 13.3302 9.28388C13.7395 9.44619 14.1274 9.70356 14.5936 10.0565C14.8137 10.2232 14.8571 10.5368 14.6904 10.757C14.5237 10.9771 14.2101 11.0205 13.9899 10.8538C13.5394 10.5126 13.2398 10.3238 12.9616 10.2134C12.695 10.1077 12.4188 10.0627 12.0001 10.0627C11.3836 10.0627 10.9235 10.2081 10.6319 10.4193C10.3553 10.6196 10.2084 10.8914 10.2084 11.2418C10.2084 11.6735 10.4128 11.9279 10.7547 12.1193C11.1283 12.3284 11.6208 12.4301 12.0823 12.507C12.5374 12.5829 13.1908 12.7046 13.7339 13.0086C14.3086 13.3303 14.7917 13.8788 14.7917 14.7587C14.7917 15.4428 14.4803 16.0106 13.9548 16.3911C13.5592 16.6776 13.0584 16.8483 12.5 16.9107V17.5835C12.5 17.8596 12.2761 18.0835 12 18.0835C11.7239 18.0835 11.5 17.8596 11.5 17.5835V16.9148C11.21 16.8853 10.9419 16.8245 10.6699 16.7166C10.2606 16.5543 9.87271 16.2969 9.40657 15.9439C9.18642 15.7772 9.14309 15.4636 9.30979 15.2435C9.47649 15.0233 9.79009 14.98 10.0102 15.1467C10.4608 15.4878 10.7603 15.6767 11.0386 15.787C11.3033 15.892 11.5775 15.9371 11.9913 15.9377C11.9942 15.9377 11.9971 15.9377 12 15.9377C12.0029 15.9377 12.0057 15.9377 12.0086 15.9377C12.6208 15.9364 13.078 15.7914 13.3683 15.5812C13.6449 15.3809 13.7917 15.1091 13.7917 14.7587C13.7917 14.327 13.5874 14.0726 13.2454 13.8812C12.8719 13.6721 12.3794 13.5704 11.9179 13.4934C11.4627 13.4176 10.8094 13.2959 10.2663 12.9919C9.69154 12.6702 9.2084 12.1217 9.2084 11.2418C9.2084 10.5576 9.51987 9.98993 10.0453 9.60937C10.4409 9.3229 10.9417 9.15218 11.5 9.08983Z" fill="#353566"/>
<path fill-rule="evenodd" clip-rule="evenodd" d="M9.34557 3.05554C9.11422 2.99999 8.87433 3.00011 8.55683 3.00026L6.37794 3.00028C5.62656 3.00027 5.03206 3.00027 4.55309 3.0394C4.0636 3.0794 3.65089 3.16274 3.27453 3.3545C2.663 3.66609 2.16582 4.16328 1.85423 4.77481C1.66246 5.15117 1.57912 5.56388 1.53913 6.05336C1.49999 6.53234 1.5 7.12683 1.5 7.87821V16.1223C1.5 16.8737 1.49999 17.4682 1.53913 17.9472C1.57912 18.4367 1.66246 18.8494 1.85423 19.2257C2.16582 19.8373 2.663 20.3345 3.27453 20.646C3.65089 20.8378 4.0636 20.9212 4.55309 20.9611C5.03203 21.0003 5.62648 21.0003 6.37779 21.0003H17.6221C18.3734 21.0003 18.968 21.0003 19.4469 20.9611C19.9364 20.9212 20.3491 20.8378 20.7255 20.646C21.337 20.3345 21.8342 19.8373 22.1458 19.2257C22.3375 18.8494 22.4209 18.4367 22.4609 17.9472C22.5 17.4682 22.5 16.8738 22.5 16.1225V9.87821C22.5 9.12689 22.5 8.53231 22.4609 8.05336C22.4209 7.56388 22.3375 7.15117 22.1458 6.77481C21.8342 6.16328 21.337 5.66609 20.7255 5.3545C20.3491 5.16274 19.9364 5.0794 19.4469 5.0394C18.9679 5.00027 18.3734 5.00027 17.6221 5.00028H12.4941C12.1034 5.00028 11.9896 4.99706 11.8879 4.97265C11.7858 4.94815 11.6883 4.90774 11.5988 4.85292C11.5096 4.79827 11.4269 4.72003 11.1506 4.44378L10.5205 3.81364C10.2961 3.58902 10.1265 3.41931 9.92368 3.295C9.74473 3.18534 9.54964 3.10453 9.34557 3.05554ZM8.50589 4.00028C8.89657 4.00028 9.01042 4.00349 9.11212 4.02791C9.21416 4.0524 9.31171 4.09281 9.40118 4.14764C9.49036 4.20229 9.57313 4.28052 9.84939 4.55677L10.4795 5.18692C10.7039 5.41153 10.8735 5.58124 11.0763 5.70556C11.2553 5.81521 11.4504 5.89602 11.6544 5.94502C11.8858 6.00056 12.1257 6.00044 12.4432 6.00029L17.6 6.00028C18.3783 6.00028 18.932 6.00066 19.3655 6.03608C19.7931 6.07102 20.0596 6.13755 20.2715 6.24551C20.6948 6.46123 21.039 6.80543 21.2548 7.2288C21.3627 7.44069 21.4293 7.70715 21.4642 8.1348C21.4996 8.56828 21.5 9.12195 21.5 9.90028V16.1003C21.5 16.8786 21.4996 17.4323 21.4642 17.8658C21.4293 18.2934 21.3627 18.5599 21.2548 18.7718C21.039 19.1951 20.6948 19.5393 20.2715 19.755C20.0596 19.863 19.7931 19.9295 19.3655 19.9645C18.932 19.9999 18.3783 20.0003 17.6 20.0003H6.4C5.62168 20.0003 5.06801 19.9999 4.63452 19.9645C4.20687 19.9295 3.94042 19.863 3.72852 19.755C3.30516 19.5393 2.96095 19.1951 2.74524 18.7718C2.63727 18.5599 2.57075 18.2934 2.53581 17.8658C2.50039 17.4323 2.5 16.8786 2.5 16.1003V7.90028C2.5 7.12195 2.50039 6.56828 2.53581 6.1348C2.57075 5.70715 2.63727 5.44069 2.74524 5.2288C2.96095 4.80543 3.30516 4.46123 3.72852 4.24551C3.94042 4.13755 4.20687 4.07102 4.63452 4.03608C5.06801 4.00066 5.62168 4.00028 6.4 4.00028H8.50589Z" fill="#353566"/>
</svg>
