<svg width="24" height="24" viewBox="0 0 24 24" fill="none" xmlns="http://www.w3.org/2000/svg">
<path d="M20 2C20 1.72386 19.7761 1.5 19.5 1.5C19.2239 1.5 19 1.72386 19 2V4H17C16.7239 4 16.5 4.22386 16.5 4.5C16.5 4.77614 16.7239 5 17 5H19V7C19 7.27614 19.2239 7.5 19.5 7.5C19.7761 7.5 20 7.27614 20 7V5H22C22.2761 5 22.5 4.77614 22.5 4.5C22.5 4.22386 22.2761 4 22 4H20V2Z" fill="#353566"/>
<path fill-rule="evenodd" clip-rule="evenodd" d="M10.5941 6.82071C11.4826 6.39456 12.5165 6.39456 13.405 6.8207L21.7621 10.8289C22.7459 11.3007 22.7459 12.7015 21.762 13.1732L13.4048 17.1807C12.5164 17.6067 11.4827 17.6067 10.5943 17.1807L2.2372 13.1732C1.25337 12.7014 1.25332 11.3007 2.23711 10.8289L10.5941 6.82071ZM12.9726 7.72236C12.3574 7.42734 11.6417 7.42734 11.0265 7.72237L2.66956 11.7305C2.44253 11.8394 2.44255 12.1627 2.66958 12.2715L11.0267 16.279C11.6417 16.5739 12.3574 16.5739 12.9724 16.279L21.3296 12.2715C21.5567 12.1627 21.5567 11.8394 21.3297 11.7305L12.9726 7.72236Z" fill="#353566"/>
<path d="M3.73116 15.6666C3.85058 15.9156 3.74554 16.2142 3.49656 16.3336L2.66929 16.7304C2.44226 16.8393 2.44227 17.1625 2.66931 17.2714L11.0264 21.2789C11.6415 21.5738 12.3571 21.5738 12.9721 21.2789L21.3294 17.2714C21.5564 17.1625 21.5564 16.8393 21.3294 16.7304L20.5024 16.3338C20.2535 16.2144 20.1484 15.9157 20.2678 15.6667C20.3873 15.4178 20.6859 15.3127 20.9349 15.4321L21.7618 15.8287C22.7456 16.3006 22.7456 17.7013 21.7617 18.1731L13.4045 22.1806C12.5161 22.6066 11.4824 22.6066 10.594 22.1805L2.23692 18.1731C1.2531 17.7013 1.25305 16.3006 2.23684 15.8287L3.0641 15.432C3.31309 15.3126 3.61174 15.4176 3.73116 15.6666Z" fill="#353566"/>
</svg>
