<svg width="24" height="24" viewBox="0 0 24 24" fill="none" xmlns="http://www.w3.org/2000/svg">
<path opacity="0.4" d="M23.25 8.75H0.75V16.6318C0.749992 17.3749 0.749986 17.978 0.789958 18.4673C0.831214 18.9722 0.918761 19.4215 1.13148 19.839C1.46703 20.4975 2.00247 21.033 2.66103 21.3685C3.07851 21.5812 3.52778 21.6688 4.03273 21.71C4.52196 21.75 5.12511 21.75 5.86819 21.75H18.1318C18.8749 21.75 19.478 21.75 19.9673 21.71C20.4722 21.6688 20.9215 21.5812 21.339 21.3685C21.9975 21.033 22.533 20.4975 22.8685 19.839C23.0812 19.4215 23.1688 18.9722 23.21 18.4673C23.25 17.9781 23.25 17.3749 23.25 16.6319V8.75Z" fill="#353566"/>
<path d="M12 18.75C11.5858 18.75 11.25 18.4142 11.25 18L11.25 12.8107L9.53033 14.5303C9.23744 14.8232 8.76256 14.8232 8.46967 14.5303C8.17678 14.2374 8.17678 13.7626 8.46967 13.4697L11.4697 10.4697C11.6103 10.329 11.8011 10.25 12 10.25C12.1989 10.25 12.3897 10.329 12.5303 10.4697L15.5303 13.4697C15.8232 13.7626 15.8232 14.2374 15.5303 14.5303C15.2374 14.8232 14.7626 14.8232 14.4697 14.5303L12.75 12.8107L12.75 18C12.75 18.4142 12.4142 18.75 12 18.75Z" fill="#353566"/>
<path d="M5.86821 2.25C5.12512 2.24999 4.52197 2.24999 4.03273 2.28996C3.52778 2.33121 3.07851 2.41876 2.66103 2.63148C2.00247 2.96704 1.46704 3.50247 1.13148 4.16103C0.918763 4.57851 0.831215 5.02778 0.789959 5.53273C0.749987 6.02197 0.749993 6.62512 0.75 7.36821L0.75 8.75H23.25V7.36819C23.25 6.62515 23.25 6.02195 23.21 5.53273C23.1688 5.02778 23.0812 4.57851 22.8685 4.16103C22.533 3.50247 21.9975 2.96703 21.339 2.63148C20.9215 2.41876 20.4722 2.33122 19.9673 2.28996C19.478 2.24999 18.8749 2.24999 18.1318 2.25L5.86821 2.25Z" fill="#353566"/>
</svg>
