<svg width="24" height="24" viewBox="0 0 24 24" fill="none" xmlns="http://www.w3.org/2000/svg">
<path opacity="0.4" d="M23.25 9.75H0.75V16.6318C0.749992 17.3749 0.749986 17.978 0.789958 18.4673C0.831214 18.9722 0.918761 19.4215 1.13148 19.839C1.46703 20.4975 2.00247 21.033 2.66103 21.3685C3.07851 21.5812 3.52778 21.6688 4.03273 21.71C4.52196 21.75 5.12511 21.75 5.86819 21.75H18.1318C18.8749 21.75 19.478 21.75 19.9673 21.71C20.4722 21.6688 20.9215 21.5812 21.339 21.3685C21.9975 21.033 22.533 20.4975 22.8685 19.839C23.0812 19.4215 23.1688 18.9722 23.21 18.4673C23.25 17.9781 23.25 17.3749 23.25 16.6319V9.75Z" fill="#353566"/>
<path d="M12 19.25C11.5858 19.25 11.25 18.9142 11.25 18.5L11.25 13.3107L9.53033 15.0303C9.23744 15.3232 8.76257 15.3232 8.46967 15.0303C8.17678 14.7374 8.17678 14.2626 8.46967 13.9697L11.4697 10.9697C11.6103 10.829 11.8011 10.75 12 10.75C12.1989 10.75 12.3897 10.829 12.5303 10.9697L15.5303 13.9697C15.8232 14.2626 15.8232 14.7374 15.5303 15.0303C15.2374 15.3232 14.7626 15.3232 14.4697 15.0303L12.75 13.3107L12.75 18.5C12.75 18.9142 12.4142 19.25 12 19.25Z" fill="#353566"/>
<path fill-rule="evenodd" clip-rule="evenodd" d="M5.86821 2.25L18.1318 2.25C18.8749 2.24999 19.478 2.24999 19.9673 2.28996C20.4722 2.33122 20.9215 2.41876 21.339 2.63148C21.9975 2.96704 22.533 3.50247 22.8685 4.16103C23.0812 4.57851 23.1688 5.02778 23.21 5.53273C23.25 6.02194 23.25 6.62505 23.25 7.36807V9.75H0.75L0.75 7.36821C0.749993 6.62513 0.749987 6.02196 0.789959 5.53273C0.831215 5.02778 0.918763 4.57851 1.13148 4.16103C1.46704 3.50247 2.00247 2.96704 2.66103 2.63148C3.07851 2.41876 3.52779 2.33122 4.03273 2.28996C4.52196 2.24999 5.12511 2.24999 5.86821 2.25ZM4.5 5.125C4.01675 5.125 3.625 5.51675 3.625 6C3.625 6.48325 4.01675 6.875 4.5 6.875C4.98325 6.875 5.3751 6.48325 5.3751 6C5.3751 5.51675 4.98325 5.125 4.5 5.125ZM6.625 6C6.625 5.51675 7.01675 5.125 7.5 5.125C7.98325 5.125 8.3751 5.51675 8.3751 6C8.3751 6.48325 7.98335 6.875 7.5001 6.875C7.01685 6.875 6.625 6.48325 6.625 6ZM10.5 5.125C10.0168 5.125 9.625 5.51675 9.625 6C9.625 6.48325 10.0168 6.875 10.5 6.875C10.9832 6.875 11.3751 6.48325 11.3751 6C11.3751 5.51675 10.9832 5.125 10.5 5.125Z" fill="#353566"/>
</svg>
