<svg width="24" height="24" viewBox="0 0 24 24" fill="none" xmlns="http://www.w3.org/2000/svg">
<path opacity="0.4" d="M4.5 11.25C4.08579 11.25 3.75 11.5858 3.75 12V16.4326C3.74999 17.3851 3.74999 18.1456 3.80018 18.7599C3.85165 19.3899 3.95963 19.9318 4.21322 20.4295C4.62068 21.2291 5.27085 21.8793 6.07054 22.2868C6.56824 22.5404 7.11012 22.6484 7.74013 22.6998C8.35439 22.75 9.11493 22.75 10.0674 22.75H13.9326C14.8851 22.75 15.6456 22.75 16.2599 22.6998C16.8899 22.6484 17.4318 22.5404 17.9295 22.2868C18.7291 21.8793 19.3793 21.2291 19.7868 20.4295C20.0404 19.9318 20.1484 19.3899 20.1998 18.7599C20.25 18.1456 20.25 17.3851 20.25 16.4326V12C20.25 11.5858 19.9142 11.25 19.5 11.25H4.5Z" fill="#353566"/>
<path d="M18.75 8.5C18.75 8.91422 19.0858 9.25 19.5 9.25C19.9142 9.25 20.25 8.91422 20.25 8.5V7.56739C20.25 6.61497 20.25 5.85438 20.1998 5.24013C20.1483 4.61012 20.0404 4.06824 19.7868 3.57054C19.3793 2.77085 18.7291 2.12069 17.9295 1.71322C17.4318 1.45963 16.8899 1.35165 16.2599 1.30018C15.6456 1.24999 14.8851 1.24999 13.9326 1.25L10.0674 1.25C9.11495 1.24999 8.3544 1.24999 7.74013 1.30018C7.11012 1.35165 6.56824 1.45963 6.07054 1.71322C5.27085 2.12068 4.62068 2.77085 4.21322 3.57054C3.95963 4.06824 3.85165 4.61012 3.80017 5.24013C3.74999 5.85441 3.74999 6.61499 3.75 7.56747L3.75 8.5C3.75 8.91422 4.08579 9.25 4.5 9.25C4.91421 9.25 5.25 8.91422 5.25 8.5V7.6C5.25 6.60753 5.25058 5.90829 5.29519 5.36228C5.33909 4.82503 5.42184 4.50252 5.54973 4.25153C5.81338 3.73408 6.23408 3.31338 6.75153 3.04973C7.00252 2.92184 7.32503 2.83909 7.86228 2.79519C8.40829 2.75058 9.10753 2.75 10.1 2.75L13.9 2.75C14.8925 2.75 15.5917 2.75058 16.1377 2.79519C16.675 2.83909 16.9975 2.92184 17.2485 3.04973C17.7659 3.31338 18.1866 3.73408 18.4503 4.25153C18.5782 4.50252 18.6609 4.82503 18.7048 5.36228C18.7494 5.90829 18.75 6.60753 18.75 7.6V8.5Z" fill="#353566"/>
<path d="M22 12.75C22.4142 12.75 22.75 12.4142 22.75 12C22.75 11.5858 22.4142 11.25 22 11.25L2 11.25C1.58579 11.25 1.25 11.5858 1.25 12C1.25 12.4142 1.58578 12.75 2 12.75L22 12.75Z" fill="#353566"/>
</svg>
