<svg width="24" height="24" viewBox="0 0 24 24" fill="none" xmlns="http://www.w3.org/2000/svg">
<path opacity="0.4" d="M13.919 1.21229C12.7116 0.600688 11.285 0.60079 10.0776 1.21257L2.98302 4.80744C2.22667 5.19068 1.75 5.96659 1.75 6.81449V8.83929C1.75 9.34177 1.85159 10.3314 1.96632 11.3039C2.23322 13.5662 3.10653 15.7 4.42162 17.5367C5.94702 19.6671 7.95128 21.4097 10.2731 22.6241L11.0218 23.0157C11.6335 23.3357 12.3632 23.3357 12.9749 23.0156L13.7253 22.623C16.0449 21.4093 18.0478 19.6687 19.573 17.541C20.8916 15.7017 21.7672 13.5642 22.0344 11.2977C22.1488 10.3274 22.25 9.34079 22.25 8.83929V6.81464C22.25 5.96662 21.7732 5.19063 21.0167 4.80744L13.919 1.21229Z" fill="#353566"/>
<path d="M11.25 15.5C11.25 15.9142 11.5858 16.25 12 16.25C12.4142 16.25 12.75 15.9142 12.75 15.5L12.75 10.3107L14.4697 12.0303C14.7626 12.3232 15.2374 12.3232 15.5303 12.0303C15.8232 11.7374 15.8232 11.2626 15.5303 10.9697L12.5303 7.96967C12.3897 7.82902 12.1989 7.75 12 7.75C11.8011 7.75 11.6103 7.82902 11.4697 7.96967L8.46967 10.9697C8.17678 11.2626 8.17678 11.7374 8.46967 12.0303C8.76256 12.3232 9.23744 12.3232 9.53033 12.0303L11.25 10.3107L11.25 15.5Z" fill="#353566"/>
</svg>
