<svg width="24" height="24" viewBox="0 0 24 24" fill="none" xmlns="http://www.w3.org/2000/svg">
<path opacity="0.4" d="M13.919 1.21229C12.7116 0.600688 11.285 0.60079 10.0776 1.21257L2.98302 4.80744C2.22667 5.19068 1.75 5.96659 1.75 6.81449V8.83929C1.75 9.34177 1.85159 10.3314 1.96632 11.3039C2.23322 13.5662 3.10653 15.7 4.42162 17.5367C5.94702 19.6671 7.95128 21.4097 10.2731 22.6241L11.0218 23.0157C11.6335 23.3357 12.3632 23.3357 12.9749 23.0156L13.7253 22.623C16.0449 21.4093 18.0478 19.6687 19.573 17.541C20.8916 15.7017 21.7672 13.5642 22.0344 11.2977C22.1488 10.3274 22.25 9.34079 22.25 8.83929V6.81464C22.25 5.96662 21.7732 5.19063 21.0167 4.80744L13.919 1.21229Z" fill="#353566"/>
<path fill-rule="evenodd" clip-rule="evenodd" d="M12 7.25C14.6234 7.25 16.75 9.37665 16.75 12C16.75 14.6234 14.6234 16.75 12 16.75C9.37665 16.75 7.25 14.6234 7.25 12C7.25 9.37665 9.37665 7.25 12 7.25ZM15.25 12C15.25 10.2051 13.7949 8.75 12 8.75C11.3742 8.75 10.7898 8.92686 10.2939 9.23332L14.7667 13.7061C15.0731 13.2102 15.25 12.6258 15.25 12ZM13.706 14.7668C13.2101 15.0732 12.6257 15.25 12 15.25C10.2051 15.25 8.75 13.7949 8.75 12C8.75 11.3743 8.92682 10.7899 9.23323 10.294L13.706 14.7668Z" fill="#353566"/>
</svg>
