<svg width="24" height="24" viewBox="0 0 24 24" fill="none" xmlns="http://www.w3.org/2000/svg">
<path opacity="0.4" d="M13.919 1.21229C12.7116 0.600688 11.285 0.60079 10.0776 1.21257L2.98302 4.80744C2.22667 5.19068 1.75 5.96659 1.75 6.81449V8.83929C1.75 9.34177 1.85159 10.3314 1.96632 11.3039C2.23322 13.5662 3.10653 15.7 4.42162 17.5367C5.94702 19.6671 7.95128 21.4097 10.2731 22.6241L11.0218 23.0157C11.6335 23.3357 12.3632 23.3357 12.9749 23.0156L13.7253 22.623C16.0449 21.4093 18.0478 19.6687 19.573 17.541C20.8916 15.7017 21.7672 13.5642 22.0344 11.2977C22.1488 10.3274 22.25 9.34079 22.25 8.83929V6.81464C22.25 5.96662 21.7732 5.19063 21.0167 4.80744L13.919 1.21229Z" fill="#353566"/>
<path d="M16 8.50382V10.0029C16 10.4886 15.674 10.9224 15.208 11.0583L12.2 11.7808V14.801C12.2 15.2757 11.957 15.7305 11.532 16.0493C11.13 16.3501 10.615 16.5 10.1 16.5C9.585 16.5 9.07 16.3501 8.669 16.0493C8.244 15.7305 8 15.2757 8 14.8C8 14.3243 8.244 13.8706 8.669 13.5528C9.374 13.0251 10.411 12.9891 11.2 13.3859V9.3713C11.2 8.79765 11.585 8.28496 12.136 8.12405L14.75 7.53641C15.024 7.45346 15.345 7.51342 15.6 7.70431C15.854 7.89419 16 8.18602 16 8.50382Z" fill="#353566"/>
</svg>
