<svg width="24" height="24" viewBox="0 0 24 24" fill="none" xmlns="http://www.w3.org/2000/svg">
<path opacity="0.4" d="M14.1382 3.25H9.86177C9.11256 3.24999 8.5066 3.24999 8.01303 3.28877C7.50357 3.3288 7.05462 3.41335 6.63216 3.61463C5.9582 3.93575 5.39543 4.45071 5.01591 5.09359C4.77801 5.49657 4.65404 5.93627 4.56906 6.44019C4.48673 6.92839 4.43309 7.53196 4.36676 8.27824L3.75295 15.1836C3.73431 15.3932 3.80462 15.601 3.94669 15.7563C4.08877 15.9116 4.28954 16 4.5 16H19.5C19.7105 16 19.9112 15.9116 20.0533 15.7563C20.1954 15.601 20.2657 15.3932 20.2471 15.1836L19.6332 8.27822C19.5669 7.53195 19.5133 6.92838 19.4309 6.44019C19.346 5.93627 19.222 5.49657 18.9841 5.09359C18.6046 4.45071 18.0418 3.93575 17.3678 3.61463C16.9454 3.41335 16.4964 3.3288 15.987 3.28877C15.4934 3.24999 14.8874 3.24999 14.1382 3.25Z" fill="#353566"/>
<path d="M22.124 1.58393C22.3538 1.92858 22.2606 2.39423 21.916 2.624L20.416 3.624C20.0713 3.85376 19.6057 3.76063 19.3759 3.41598C19.1462 3.07134 19.2393 2.60568 19.5839 2.37592L21.0839 1.37592C21.4286 1.14616 21.8942 1.23929 22.124 1.58393Z" fill="#353566"/>
<path d="M9.9295 7.56795C9.967 7.15544 9.66299 6.79063 9.25048 6.75313C8.83797 6.71563 8.47316 7.01963 8.43566 7.43215L8.02657 11.9321C7.98906 12.3447 8.29307 12.7095 8.70558 12.747C9.1181 12.7845 9.4829 12.4805 9.52041 12.0679L9.9295 7.56795Z" fill="#353566"/>
<path d="M1.25 19.25C1.25 18.1454 2.14543 17.25 3.25 17.25H20.75C21.8546 17.25 22.75 18.1454 22.75 19.25V20.75C22.75 21.8546 21.8546 22.75 20.75 22.75H3.25C2.14543 22.75 1.25 21.8546 1.25 20.75V19.25Z" fill="#353566"/>
<path d="M2.08402 2.624C1.73937 2.39423 1.64624 1.92858 1.876 1.58393C2.10577 1.23929 2.57142 1.14616 2.91607 1.37592L4.41607 2.37592C4.76071 2.60568 4.85384 3.07134 4.62408 3.41598C4.39432 3.76063 3.92866 3.85376 3.58402 3.624L2.08402 2.624Z" fill="#353566"/>
<path d="M23.75 7C23.75 6.58579 23.4142 6.25 23 6.25H21.5C21.0858 6.25 20.75 6.58579 20.75 7C20.75 7.41421 21.0858 7.75 21.5 7.75H23C23.4142 7.75 23.75 7.41421 23.75 7Z" fill="#353566"/>
<path d="M1 6.25C0.585786 6.25 0.25 6.58579 0.25 7C0.25 7.41421 0.585786 7.75 1 7.75H2.5C2.91421 7.75 3.25 7.41421 3.25 7C3.25 6.58579 2.91421 6.25 2.5 6.25H1Z" fill="#353566"/>
</svg>
