<svg width="24" height="24" viewBox="0 0 24 24" fill="none" xmlns="http://www.w3.org/2000/svg">
<path opacity="0.4" d="M14.1382 2.25H9.86177C9.11256 2.24999 8.5066 2.24999 8.01303 2.28877C7.50357 2.3288 7.05462 2.41335 6.63216 2.61463C5.9582 2.93575 5.39543 3.45071 5.01591 4.09359C4.77801 4.49657 4.65404 4.93627 4.56906 5.44019C4.48673 5.92839 4.43309 6.53196 4.36676 7.27824L3.75295 14.1836C3.73431 14.3932 3.80462 14.601 3.94669 14.7563C4.08877 14.9116 4.28954 15 4.5 15H19.5C19.7105 15 19.9112 14.9116 20.0533 14.7563C20.1954 14.601 20.2657 14.3932 20.2471 14.1836L19.6332 7.27822C19.5669 6.53195 19.5133 5.92838 19.4309 5.44019C19.346 4.93627 19.222 4.49657 18.9841 4.09359C18.6046 3.45071 18.0418 2.93575 17.3678 2.61463C16.9454 2.41335 16.4964 2.3288 15.987 2.28877C15.4934 2.24999 14.8874 2.24999 14.1382 2.25Z" fill="#353566"/>
<path d="M9.9295 6.56795C9.967 6.15544 9.66299 5.79063 9.25048 5.75313C8.83797 5.71563 8.47316 6.01963 8.43566 6.43215L8.02657 10.9321C7.98906 11.3447 8.29307 11.7095 8.70558 11.747C9.1181 11.7845 9.4829 11.4805 9.52041 11.0679L9.9295 6.56795Z" fill="#353566"/>
<path d="M1.25 18.25C1.25 17.1454 2.14543 16.25 3.25 16.25H20.75C21.8546 16.25 22.75 17.1454 22.75 18.25V19.75C22.75 20.8546 21.8546 21.75 20.75 21.75H3.25C2.14543 21.75 1.25 20.8546 1.25 19.75V18.25Z" fill="#353566"/>
</svg>
