<svg width="24" height="24" viewBox="0 0 24 24" fill="none" xmlns="http://www.w3.org/2000/svg">
<path d="M10.5 7C10.5 6.17157 11.1716 5.5 12 5.5C12.2761 5.5 12.5 5.27614 12.5 5C12.5 4.72386 12.2761 4.5 12 4.5C10.6193 4.5 9.5 5.61929 9.5 7C9.5 7.27614 9.72386 7.5 10 7.5C10.2761 7.5 10.5 7.27614 10.5 7Z" fill="#353566"/>
<path fill-rule="evenodd" clip-rule="evenodd" d="M17.5 7C17.5 9.86902 15.3033 12.225 12.5 12.4776V22C12.5 22.2761 12.2761 22.5 12 22.5C11.7239 22.5 11.5 22.2761 11.5 22V12.4776C8.69675 12.225 6.5 9.86902 6.5 7C6.5 3.96243 8.96243 1.5 12 1.5C15.0376 1.5 17.5 3.96243 17.5 7ZM12 2.5C9.51472 2.5 7.5 4.51472 7.5 7C7.5 9.48528 9.51472 11.5 12 11.5C14.4853 11.5 16.5 9.48528 16.5 7C16.5 4.51472 14.4853 2.5 12 2.5Z" fill="#353566"/>
</svg>
