<svg width="24" height="24" viewBox="0 0 24 24" fill="none" xmlns="http://www.w3.org/2000/svg">
<path fill-rule="evenodd" clip-rule="evenodd" d="M21.601 4.21996L18.5005 5.12425V9.49988C18.5005 10.0643 18.2114 10.5881 17.7146 10.9607C17.2232 11.3292 16.601 11.5001 16.0003 11.5001C15.3995 11.5001 14.7773 11.3292 14.2859 10.9607C13.7891 10.5881 13.5 10.0643 13.5 9.49988C13.5 8.93547 13.7891 8.41166 14.2859 8.03908C14.7773 7.67051 15.3995 7.49969 16.0003 7.49969C16.5167 7.49969 17.0491 7.62594 17.5005 7.89556V2.70901C17.5005 2.04229 17.9405 1.45557 18.5806 1.26889L21.0609 0.545466C21.781 0.335451 22.501 0.875489 22.501 1.62554V3.01987C22.501 3.57546 22.1343 4.06439 21.601 4.21996ZM21.3409 1.50547C21.421 1.48212 21.501 1.54216 21.501 1.62554V3.01987C21.501 3.13102 21.4277 3.22884 21.321 3.25996L18.5005 4.08259V2.70901C18.5005 2.48674 18.6472 2.29113 18.8606 2.22889L21.3409 1.50547ZM17.1147 8.83908C17.3988 9.05217 17.5003 9.29598 17.5005 9.49934C17.5005 9.70279 17.399 9.94739 17.1147 10.1607C16.8249 10.378 16.4233 10.5001 16.0003 10.5001C15.5772 10.5001 15.1756 10.378 14.8859 10.1607C14.6015 9.94739 14.5 9.70333 14.5 9.49988C14.5 9.29642 14.6015 9.05236 14.8859 8.83908C15.1756 8.62179 15.5772 8.49969 16.0003 8.49969C16.4233 8.49969 16.8249 8.62179 17.1147 8.83908Z" fill="#353566"/>
<path d="M2.70721 5.20099C2.87698 4.70427 3.21023 4.29281 4.01838 3.79084C4.28059 3.66101 4.60547 3.58347 5.10544 3.54265C5.62237 3.50045 6.28125 3.50006 7.2 3.50006H11.798C11.9854 3.50156 12.1646 3.50234 12.3348 3.50308C13.559 3.50838 14.2732 3.51807 14.8313 3.71876C15.0912 3.8122 15.3776 3.67729 15.471 3.41744C15.5644 3.15759 15.4295 2.87119 15.1697 2.77775C14.4303 2.51187 13.5387 2.50813 12.4203 2.50343L12.3392 2.50309C12.1681 2.50234 11.9901 2.50156 11.804 2.50006H7.17767C6.28608 2.50006 5.58644 2.50006 5.02406 2.54597C4.45117 2.59274 3.9768 2.68964 3.54707 2.90853C3.53489 2.91473 3.52297 2.92143 3.51134 2.92861C2.5767 3.50564 2.03363 4.07976 1.76095 4.87759C1.51236 5.60497 1.50845 6.48144 1.50357 7.57576L1.50323 7.65301C1.50243 7.82652 1.50159 8.00695 1.5 8.19586V22.2811C1.5 22.9542 2.04586 23.5001 2.719 23.5001C3.02559 23.5001 3.32098 23.3846 3.54648 23.1761L8.75413 18.3695C8.76039 18.3637 8.76651 18.3577 8.77248 18.3516C9.18693 17.9278 9.38995 17.8566 9.49944 17.8567C9.60933 17.8567 9.81274 17.9285 10.2279 18.3521C10.2338 18.358 10.2398 18.3638 10.2459 18.3695L15.4535 23.1761C15.679 23.3847 15.9743 23.5001 16.281 23.5001C16.9541 23.5001 17.5 22.9542 17.5 22.2811V13.9048C17.5 13.6286 17.2761 13.4048 17 13.4048C16.7239 13.4048 16.5 13.6286 16.5 13.9048V22.2811C16.5 22.4019 16.4019 22.5001 16.281 22.5001C16.2257 22.5001 16.1726 22.4791 16.1321 22.4416L10.9331 17.643C10.5079 17.2107 10.0498 16.8569 9.49981 16.8567C8.94949 16.8565 8.49162 17.2102 8.06664 17.6432L2.86752 22.442C2.82705 22.4794 2.77432 22.5001 2.719 22.5001C2.59814 22.5001 2.5 22.4019 2.5 22.2811V8.20216C2.50159 8.012 2.50242 7.83019 2.50321 7.6577C2.50869 6.46294 2.51792 5.75486 2.70721 5.20099Z" fill="#353566"/>
</svg>
