<svg width="24" height="24" viewBox="0 0 24 24" fill="none" xmlns="http://www.w3.org/2000/svg">
<path d="M22 6C22.2761 6 22.5 5.77614 22.5 5.5V4.5C22.5 3.39543 21.6046 2.5 20.5 2.5H15.707L16.8535 1.35355C17.0488 1.15829 17.0488 0.841709 16.8535 0.646447C16.6582 0.451184 16.3416 0.451184 16.1464 0.646447L14.1464 2.64645C14.0034 2.78945 13.9606 3.0045 14.038 3.19134C14.1154 3.37818 14.2977 3.5 14.4999 3.5H20.5C21.0523 3.5 21.5 3.94772 21.5 4.5V5.5C21.5 5.77614 21.7239 6 22 6Z" fill="#353566"/>
<path d="M4.01838 3.79078C4.28059 3.66095 4.60547 3.58341 5.10544 3.54259C5.62237 3.50039 6.28125 3.5 7.2 3.5H11.4999C11.776 3.5 11.9999 3.27614 11.9999 3C11.9999 2.72386 11.776 2.5 11.4999 2.5H7.17767C6.28608 2.5 5.58644 2.49999 5.02406 2.54591C4.45117 2.59268 3.9768 2.68958 3.54707 2.90847C3.53489 2.91467 3.52297 2.92137 3.51134 2.92855C2.5767 3.50558 2.03363 4.0797 1.76095 4.87753C1.51236 5.60491 1.50845 6.48138 1.50357 7.5757L1.50323 7.65295C1.50243 7.82646 1.5016 8.00689 1.50002 8.1958L1.5 22.281C1.5 22.9541 2.04586 23.5 2.719 23.5C3.02559 23.5 3.32078 23.3847 3.54628 23.1763L8.75413 18.3694C8.76039 18.3636 8.76651 18.3577 8.77248 18.3516C9.18693 17.9278 9.38995 17.8566 9.49944 17.8566C9.60933 17.8567 9.81274 17.9284 10.2279 18.352C10.2338 18.358 10.2398 18.3638 10.2459 18.3694L15.4535 23.1761C15.679 23.3847 15.9743 23.5 16.281 23.5C16.9541 23.5 17.5 22.9541 17.5 22.281V11.6751C17.5 11.3989 17.2761 11.1751 17 11.1751C16.7239 11.1751 16.5 11.3989 16.5 11.6751V22.281C16.5 22.4019 16.4019 22.5 16.281 22.5C16.2257 22.5 16.173 22.4793 16.1325 22.4419L10.9331 17.6429C10.5079 17.2106 10.0498 16.8568 9.49981 16.8566C8.94949 16.8564 8.49162 17.2101 8.06664 17.6431L2.86787 22.4416C2.8274 22.479 2.77432 22.5 2.719 22.5C2.59814 22.5 2.5 22.4019 2.5 22.281V8.2021C2.50159 8.01194 2.50242 7.83051 2.50321 7.65802C2.50868 6.46326 2.51792 5.7548 2.70721 5.20093C2.87698 4.70421 3.21023 4.29275 4.01838 3.79078Z" fill="#353566"/>
<path d="M13.5 6.5V5.5C13.5 5.22386 13.7239 5 14 5C14.2761 5 14.5 5.22386 14.5 5.5V6.5C14.5 7.05228 14.9477 7.5 15.5 7.5H21.5C21.7022 7.5 21.8846 7.62182 21.9619 7.80866C22.0393 7.9955 21.9965 8.21056 21.8535 8.35356L19.8535 10.3536C19.6582 10.5488 19.3416 10.5488 19.1464 10.3535C18.9511 10.1583 18.9511 9.8417 19.1464 9.64644L20.2929 8.5H15.5C14.3954 8.5 13.5 7.60457 13.5 6.5Z" fill="#353566"/>
</svg>
