<svg width="24" height="24" viewBox="0 0 24 24" fill="none" xmlns="http://www.w3.org/2000/svg">
<path d="M4.5 5.5C4.5 3.84315 5.84315 2.5 7.5 2.5H20.5C21.0523 2.5 21.5 2.94772 21.5 3.5V15.5C21.5 16.0523 21.0523 16.5 20.5 16.5H15C14.7239 16.5 14.5 16.7239 14.5 17C14.5 17.2761 14.7239 17.5 15 17.5H19.5V21.5H13.2454C12.9692 21.5 12.7454 21.7239 12.7454 22C12.7454 22.2761 12.9692 22.5 13.2454 22.5H22C22.2761 22.5 22.5 22.2761 22.5 22C22.5 21.7239 22.2761 21.5 22 21.5H20.5V17.5C21.6046 17.5 22.5 16.6046 22.5 15.5V3.5C22.5 2.39543 21.6046 1.5 20.5 1.5H7.5C5.29086 1.5 3.5 3.29086 3.5 5.5V9.58152C3.5 9.85766 3.72386 10.0815 4 10.0815C4.27614 10.0815 4.5 9.85766 4.5 9.58152V5.5Z" fill="#353566"/>
<path d="M8.8535 15.8536C9.04876 15.6583 9.04876 15.3417 8.8535 15.1464C8.65824 14.9512 8.34165 14.9512 8.14639 15.1464L7.00001 16.2928L5.85355 15.1464C5.65829 14.9511 5.3417 14.9511 5.14644 15.1464C4.95118 15.3417 4.95119 15.6582 5.14645 15.8535L6.29291 16.9999L5.14639 18.1464C4.95113 18.3417 4.95113 18.6583 5.14639 18.8536C5.34165 19.0488 5.65824 19.0488 5.8535 18.8536L7.00002 17.707L8.1465 18.8535C8.34177 19.0488 8.65835 19.0488 8.85361 18.8535C9.04887 18.6582 9.04887 18.3416 8.8536 18.1464L7.70713 16.9999L8.8535 15.8536Z" fill="#353566"/>
<path fill-rule="evenodd" clip-rule="evenodd" d="M7 11.5C3.96243 11.5 1.5 13.9624 1.5 17C1.5 20.0376 3.96243 22.5 7 22.5C10.0376 22.5 12.5 20.0376 12.5 17C12.5 13.9624 10.0376 11.5 7 11.5ZM2.5 17C2.5 14.5147 4.51472 12.5 7 12.5C9.48528 12.5 11.5 14.5147 11.5 17C11.5 19.4853 9.48528 21.5 7 21.5C4.51472 21.5 2.5 19.4853 2.5 17Z" fill="#353566"/>
</svg>
