<svg width="24" height="24" viewBox="0 0 24 24" fill="none" xmlns="http://www.w3.org/2000/svg">
<path fill-rule="evenodd" clip-rule="evenodd" d="M6.30005 11.8036C6.30005 11.1354 7.10791 10.8008 7.58038 11.2732L12.7268 16.4197C13.1993 16.8922 12.8647 17.7 12.1965 17.7H7.05005C6.63584 17.7 6.30005 17.3642 6.30005 16.95V11.8036ZM7.30005 12.4071V16.7H11.5929L7.30005 12.4071Z" fill="#353566"/>
<path fill-rule="evenodd" clip-rule="evenodd" d="M1.5 3.75464C1.5 1.75011 3.92357 0.746218 5.34099 2.16364L21.8361 18.6588C23.2535 20.0762 22.2497 22.4998 20.2451 22.4998H4.25C2.73122 22.4998 1.5 21.2685 1.5 19.7498V3.75464ZM4.63388 2.87075C3.84643 2.08329 2.5 2.641 2.5 3.75464V19.7498C2.5 20.7163 3.2835 21.4998 4.25 21.4998H20.2451C21.3588 21.4998 21.9165 20.1533 21.129 19.3659L19.235 17.4719L18.3536 18.3533C18.1583 18.5486 17.8417 18.5486 17.6464 18.3533C17.4512 18.158 17.4512 17.8415 17.6464 17.6462L18.5279 16.7648L16.235 14.4719L15.3536 15.3533C15.1583 15.5486 14.8417 15.5486 14.6464 15.3533C14.4512 15.158 14.4512 14.8415 14.6464 14.6462L15.5279 13.7648L13.235 11.4719L12.3536 12.3533C12.1583 12.5486 11.8417 12.5486 11.6464 12.3533C11.4512 12.158 11.4512 11.8415 11.6464 11.6462L12.5279 10.7648L10.235 8.47186L9.35355 9.35331C9.15829 9.54857 8.84171 9.54857 8.64645 9.35331C8.45118 9.15805 8.45118 8.84146 8.64645 8.6462L9.52789 7.76476L7.235 5.47186L6.35355 6.35331C6.15829 6.54857 5.84171 6.54857 5.64645 6.35331C5.45118 6.15805 5.45118 5.84146 5.64645 5.6462L6.52789 4.76476L4.63388 2.87075Z" fill="#353566"/>
</svg>
