<svg width="24" height="24" viewBox="0 0 24 24" fill="none" xmlns="http://www.w3.org/2000/svg">
<path fill-rule="evenodd" clip-rule="evenodd" d="M16.8324 1.75H6.16762C5.285 1.74999 4.57692 1.74999 4.00433 1.79677C3.41601 1.84484 2.905 1.94601 2.43404 2.18597C1.68139 2.56947 1.06947 3.18139 0.685975 3.93404C0.44601 4.405 0.344838 4.91601 0.29677 5.50433C0.284825 5.65053 0.27593 5.80557 0.269307 5.97009C0.268787 5.97914 0.26843 5.98819 0.268237 5.99725C0.249991 6.47101 0.249995 7.02272 0.25 7.66761V13.8324C0.249994 14.715 0.249988 15.4231 0.29677 15.9957C0.344838 16.584 0.44601 17.095 0.685975 17.566C1.06947 18.3186 1.68139 18.9305 2.43404 19.314C2.905 19.554 3.41601 19.6552 4.00433 19.7032C4.57691 19.75 5.28499 19.75 6.16761 19.75H11.7132C12.1274 19.75 12.4632 19.4142 12.4632 19C12.4632 18.5858 12.1274 18.25 11.7132 18.25H6.2C5.27754 18.25 4.6308 18.2494 4.12648 18.2082C3.63092 18.1677 3.33928 18.0918 3.11502 17.9775C2.64462 17.7378 2.26217 17.3554 2.02248 16.885C1.90822 16.6607 1.83228 16.3691 1.79179 15.8735C1.75058 15.3692 1.75 14.7225 1.75 13.8L1.75002 7.51437L9.21254 13.2002C9.80141 13.6498 10.2627 14.0019 10.7919 14.1429C11.2559 14.2666 11.7441 14.2666 12.2081 14.1429C12.7373 14.0019 13.1986 13.6498 13.7875 13.2002L21.25 7.51436L21.25 12.6723C21.25 13.0865 21.5858 13.4223 22 13.4223C22.4142 13.4223 22.75 13.0865 22.75 12.6723V7.66761C22.75 7.02227 22.75 6.47025 22.7317 5.99627C22.7315 5.98787 22.7312 5.97947 22.7307 5.97107C22.7241 5.80619 22.7152 5.65083 22.7032 5.50433C22.6552 4.91601 22.554 4.405 22.314 3.93404C21.9305 3.18139 21.3186 2.56947 20.566 2.18597C20.095 1.94601 19.584 1.84484 18.9957 1.79677C18.4231 1.74999 17.715 1.74999 16.8324 1.75ZM21.2108 5.65847L21.2082 5.62648C21.1677 5.13092 21.0918 4.83928 20.9775 4.61502C20.7378 4.14462 20.3554 3.76217 19.885 3.52248C19.6607 3.40822 19.3691 3.33228 18.8735 3.29179C18.3692 3.25058 17.7225 3.25 16.8 3.25H6.2C5.27754 3.25 4.6308 3.25058 4.12648 3.29179C3.63092 3.33228 3.33928 3.40822 3.11502 3.52248C2.64462 3.76217 2.26217 4.14462 2.02248 4.61502C1.90822 4.83928 1.83228 5.13092 1.79179 5.62648L1.78924 5.65848L10.0152 11.9259C10.7638 12.4963 10.9741 12.6392 11.1781 12.6935C11.389 12.7497 11.611 12.7497 11.8219 12.6935C12.0259 12.6392 12.2362 12.4963 12.9848 11.9259L21.2108 5.65847Z" fill="#353566"/>
<path fill-rule="evenodd" clip-rule="evenodd" d="M18.8301 16.2883C17.7936 16.2883 16.9551 17.1268 16.9551 18.1633C16.9551 19.1998 17.7936 20.0383 18.8301 20.0383C19.8666 20.0383 20.7051 19.1998 20.7051 18.1633C20.7051 17.1268 19.8666 16.2883 18.8301 16.2883ZM18.2051 18.1633C18.2051 17.8172 18.4839 17.5383 18.8301 17.5383C19.1762 17.5383 19.4551 17.8172 19.4551 18.1633C19.4551 18.5095 19.1762 18.7883 18.8301 18.7883C18.4839 18.7883 18.2051 18.5095 18.2051 18.1633Z" fill="#353566"/>
<path fill-rule="evenodd" clip-rule="evenodd" d="M18.8301 14.08C20.8127 14.08 22.7402 15.2929 23.6382 17.5867C23.7829 17.9562 23.7829 18.3704 23.6382 18.7399C22.7402 21.0337 20.8127 22.2466 18.8301 22.2466C16.8474 22.2466 14.92 21.0337 14.0219 18.7399C13.8772 18.3704 13.8772 17.9562 14.0219 17.5867C14.92 15.2929 16.8474 14.08 18.8301 14.08ZM18.8301 15.58C17.4938 15.58 16.1024 16.3871 15.4187 18.1335C15.4116 18.1515 15.4116 18.1751 15.4187 18.1931C16.1024 19.9395 17.4938 20.7466 18.8301 20.7466C20.1663 20.7466 21.5577 19.9395 22.2415 18.1931C22.2485 18.1751 22.2485 18.1515 22.2415 18.1335C21.5577 16.3871 20.1663 15.58 18.8301 15.58Z" fill="#353566"/>
</svg>
