<svg width="24" height="24" viewBox="0 0 24 24" fill="none" xmlns="http://www.w3.org/2000/svg">
<g clip-path="url(#clip0_9001_277400)">
<path d="M4.25 2.5C4.25 1.25736 5.25736 0.25 6.5 0.25H17.5C18.7426 0.25 19.75 1.25736 19.75 2.5V10C19.75 10.4142 19.4142 10.75 19 10.75C18.5858 10.75 18.25 10.4142 18.25 10V2.5C18.25 2.08579 17.9142 1.75 17.5 1.75H6.5C6.08579 1.75 5.75 2.08579 5.75 2.5V10C5.75 10.4142 5.41421 10.75 5 10.75C4.58579 10.75 4.25 10.4142 4.25 10V2.5Z" fill="#353566"/>
<path fill-rule="evenodd" clip-rule="evenodd" d="M1.13502 10.8448C1.3727 10.7124 1.66344 10.7191 1.89477 10.8623L10.2893 16.0589C11.0999 16.5607 11.3579 16.7089 11.6152 16.7669C11.8685 16.824 12.1315 16.824 12.3848 16.7669C12.6421 16.7089 12.9001 16.5607 13.7107 16.0589L22.1052 10.8623C22.3366 10.7191 22.6273 10.7124 22.865 10.8448C23.1027 10.9772 23.25 11.2279 23.25 11.5V18.2321C23.25 19.045 23.25 19.7006 23.2066 20.2315C23.162 20.7781 23.0676 21.2582 22.8413 21.7025C22.4817 22.4081 21.9081 22.9818 21.2025 23.3413C20.7582 23.5676 20.2781 23.662 19.7315 23.7066C19.2006 23.75 18.545 23.75 17.7321 23.75H6.26788C5.45505 23.75 4.79944 23.75 4.26853 23.7066C3.7219 23.662 3.24175 23.5676 2.79754 23.3413C2.09193 22.9818 1.51825 22.4081 1.15873 21.7025C0.932386 21.2582 0.838026 20.7781 0.793364 20.2315C0.749988 19.7006 0.749993 19.045 0.75 18.2321V11.5C0.75 11.2279 0.897339 10.9772 1.13502 10.8448ZM2.25 12.8464V18.2C2.25 19.0525 2.25058 19.6467 2.28838 20.1093C2.32547 20.5632 2.3946 20.824 2.49524 21.0215C2.71095 21.4448 3.05516 21.789 3.47852 22.0048C3.67604 22.1054 3.93681 22.1745 4.39068 22.2116C4.85331 22.2494 5.44755 22.25 6.3 22.25H17.7C18.5525 22.25 19.1467 22.2494 19.6093 22.2116C20.0632 22.1745 20.324 22.1054 20.5215 22.0048C20.9448 21.789 21.289 21.4448 21.5048 21.0215C21.6054 20.824 21.6745 20.5632 21.7116 20.1093C21.7494 19.6467 21.75 19.0525 21.75 18.2V12.8464L14.3984 17.3974C13.7337 17.8094 13.2493 18.1097 12.7147 18.2302C12.2441 18.3363 11.7559 18.3363 11.2853 18.2302C10.7507 18.1097 10.2663 17.8094 9.60159 17.3974L2.25 12.8464Z" fill="#353566"/>
<path fill-rule="evenodd" clip-rule="evenodd" d="M9.2 6.05005C8.12304 6.05005 7.25 6.92309 7.25 8.00005C7.25 9.077 8.12304 9.95005 9.2 9.95005C9.61597 9.95005 10.0015 9.8198 10.3181 9.59787L12.8518 10.8647C12.8858 11.9118 13.7454 12.7501 14.8007 12.7501C15.8777 12.7501 16.7507 11.8771 16.7507 10.8001C16.7507 9.72314 15.8777 8.8501 14.8007 8.8501C14.2448 8.8501 13.7433 9.08268 13.3881 9.45583L11.1233 8.32343C11.1409 8.21825 11.15 8.11021 11.15 8.00005C11.15 7.88985 11.1409 7.78179 11.1233 7.67658L13.388 6.5442C13.7433 6.91739 14.2448 7.15 14.8007 7.15C15.8777 7.15 16.7507 6.27695 16.7507 5.2C16.7507 4.12304 15.8777 3.25 14.8007 3.25C13.7454 3.25 12.8859 4.08829 12.8518 5.13529L10.318 6.40217C10.0014 6.18027 9.61593 6.05005 9.2 6.05005ZM8.75 8.00005C8.75 7.75152 8.95147 7.55005 9.2 7.55005C9.44853 7.55005 9.65 7.75152 9.65 8.00005C9.65 8.24858 9.44853 8.45005 9.2 8.45005C8.95147 8.45005 8.75 8.24858 8.75 8.00005ZM14.8007 4.75C14.5522 4.75 14.3507 4.95147 14.3507 5.2C14.3507 5.44853 14.5522 5.65 14.8007 5.65C15.0492 5.65 15.2507 5.44853 15.2507 5.2C15.2507 4.95147 15.0492 4.75 14.8007 4.75ZM14.3507 10.8001C14.3507 10.5516 14.5522 10.3501 14.8007 10.3501C15.0492 10.3501 15.2507 10.5516 15.2507 10.8001C15.2507 11.0486 15.0492 11.2501 14.8007 11.2501C14.5522 11.2501 14.3507 11.0486 14.3507 10.8001Z" fill="#353566"/>
</g>
<defs>
<clipPath id="clip0_9001_277400">
<rect width="24" height="24" fill="white"/>
</clipPath>
</defs>
</svg>
