<svg width="24" height="24" viewBox="0 0 24 24" fill="none" xmlns="http://www.w3.org/2000/svg">
<path fill-rule="evenodd" clip-rule="evenodd" d="M16.8324 1.74988H6.16762C5.285 1.74987 4.57692 1.74987 4.00433 1.79665C3.41601 1.84472 2.905 1.94589 2.43404 2.18585C1.68139 2.56935 1.06947 3.18127 0.685975 3.93392C0.44601 4.40487 0.344838 4.91589 0.29677 5.50421C0.284825 5.65041 0.27593 5.80545 0.269307 5.96996C0.268787 5.97901 0.26843 5.98807 0.268237 5.99712C0.249991 6.47089 0.249995 7.0226 0.25 7.66749V13.8323C0.249994 14.7149 0.249988 15.423 0.29677 15.9955C0.344838 16.5839 0.44601 17.0949 0.685975 17.5658C1.06947 18.3185 1.68139 18.9304 2.43404 19.3139C2.905 19.5539 3.41601 19.655 4.00433 19.7031C4.57691 19.7499 5.28499 19.7499 6.16761 19.7499H14.5333C14.9475 19.7499 15.2833 19.4141 15.2833 18.9999C15.2833 18.5857 14.9475 18.2499 14.5333 18.2499H6.2C5.27754 18.2499 4.6308 18.2493 4.12648 18.2081C3.63092 18.1676 3.33928 18.0917 3.11502 17.9774C2.64462 17.7377 2.26217 17.3553 2.02248 16.8849C1.90822 16.6606 1.83228 16.369 1.79179 15.8734C1.75058 15.3691 1.75 14.7223 1.75 13.7999L1.75002 7.51424L9.21254 13.2001C9.80141 13.6496 10.2627 14.0018 10.7919 14.1428C11.2559 14.2665 11.7441 14.2665 12.2081 14.1428C12.7373 14.0018 13.1986 13.6496 13.7875 13.2001L21.25 7.51424L21.25 10.8248C21.25 11.239 21.5858 11.5748 22 11.5748C22.4142 11.5748 22.75 11.239 22.75 10.8248V7.66748C22.75 7.02215 22.75 6.47013 22.7317 5.99615C22.7315 5.98775 22.7312 5.97935 22.7307 5.97095C22.7241 5.80607 22.7152 5.6507 22.7032 5.50421C22.6552 4.91589 22.554 4.40487 22.314 3.93392C21.9305 3.18127 21.3186 2.56935 20.566 2.18585C20.095 1.94589 19.584 1.84472 18.9957 1.79665C18.4231 1.74987 17.715 1.74987 16.8324 1.74988ZM21.2108 5.65835L21.2082 5.62636C21.1677 5.1308 21.0918 4.83916 20.9775 4.6149C20.7378 4.1445 20.3554 3.76205 19.885 3.52236C19.6607 3.4081 19.3691 3.33216 18.8735 3.29167C18.3692 3.25046 17.7225 3.24988 16.8 3.24988H6.2C5.27754 3.24988 4.6308 3.25046 4.12648 3.29167C3.63092 3.33216 3.33928 3.4081 3.11502 3.52236C2.64462 3.76205 2.26217 4.1445 2.02248 4.6149C1.90822 4.83916 1.83228 5.1308 1.79179 5.62636L1.78924 5.65836L10.0152 11.9257C10.7638 12.4961 10.9741 12.639 11.1781 12.6934C11.389 12.7496 11.611 12.7496 11.8219 12.6934C12.0259 12.639 12.2362 12.4961 12.9848 11.9257L21.2108 5.65835Z" fill="#353566"/>
<path d="M19.6635 19.7466C18.4329 19.7466 17.3364 20.5958 17.0565 21.6835C16.9532 22.0847 16.5443 22.3262 16.1432 22.2229C15.7421 22.1197 15.5006 21.7108 15.6038 21.3096C16.0639 19.522 17.7876 18.2466 19.6635 18.2466C21.5393 18.2466 23.263 19.522 23.7231 21.3096C23.8264 21.7108 23.5849 22.1197 23.1837 22.2229C22.7826 22.3262 22.3737 22.0847 22.2705 21.6835C21.9905 20.5958 20.894 19.7466 19.6635 19.7466Z" fill="#353566"/>
<path fill-rule="evenodd" clip-rule="evenodd" d="M19.6635 12.4132C18.2137 12.4132 17.0385 13.5885 17.0385 15.0382C17.0385 16.488 18.2137 17.6632 19.6635 17.6632C21.1132 17.6632 22.2885 16.488 22.2885 15.0382C22.2885 13.5885 21.1132 12.4132 19.6635 12.4132ZM18.5385 15.0382C18.5385 14.4169 19.0421 13.9132 19.6635 13.9132C20.2848 13.9132 20.7885 14.4169 20.7885 15.0382C20.7885 15.6595 20.2848 16.1632 19.6635 16.1632C19.0421 16.1632 18.5385 15.6595 18.5385 15.0382Z" fill="#353566"/>
</svg>
