<svg width="24" height="24" viewBox="0 0 24 24" fill="none" xmlns="http://www.w3.org/2000/svg">
<path fill-rule="evenodd" clip-rule="evenodd" d="M14.8729 8.32477C12.9758 7.94534 11.0204 7.94495 9.12304 8.32442C8.07794 8.53344 7.06316 8.91374 6.13763 9.43818C4.98219 10.0929 4.25 11.3271 4.25 12.6631V13.4843L4.24981 13.5277C4.24891 13.6702 4.24749 13.8944 4.31253 14.0931C4.45709 14.5345 4.83292 14.8604 5.29032 14.9411C5.49614 14.9775 5.71789 14.9444 5.85885 14.9233L5.90183 14.917L9.13731 14.455C9.20201 14.4458 9.28641 14.4338 9.36146 14.4171C9.45116 14.3972 9.58033 14.3604 9.71328 14.2751C9.88573 14.1644 10.0227 14.0065 10.1079 13.8201C10.1736 13.6764 10.1918 13.5434 10.1988 13.4518C10.2046 13.3751 10.2046 13.2898 10.2046 13.2245L10.2046 12.2596C11.5398 11.9306 12.5465 11.9303 13.7955 12.2515L13.7955 13.2245C13.7954 13.2898 13.7954 13.3751 13.8012 13.4518C13.8083 13.5434 13.8265 13.6764 13.8921 13.8201C13.9773 14.0065 14.1143 14.1644 14.2867 14.2751C14.4197 14.3604 14.5488 14.3972 14.6385 14.4171C14.7136 14.4338 14.798 14.4458 14.8627 14.455L18.0988 14.9171L18.1416 14.9234C18.2822 14.9444 18.5033 14.9774 18.7086 14.9413C19.1668 14.8609 19.5434 14.5343 19.6878 14.092C19.7525 13.8939 19.7511 13.6703 19.7502 13.5282L19.75 13.4849L19.75 12.6689C19.75 11.3289 19.014 10.0911 17.8551 9.4358C16.9308 8.91315 15.9161 8.5334 14.8729 8.32477ZM9.41722 9.79529C11.1202 9.4547 12.8756 9.45501 14.5788 9.79564C15.4641 9.97271 16.3291 10.2961 17.1167 10.7415C17.8125 11.135 18.25 11.8782 18.25 12.6689L18.25 13.4235L15.2955 13.0016V11.685C15.2955 11.356 15.081 11.0654 14.7666 10.9683C12.789 10.3582 11.3233 10.362 9.24561 10.9647C8.92509 11.0577 8.70456 11.3513 8.70456 11.685V13.0016L5.75 13.4235V12.6631C5.75 11.8753 6.18468 11.1356 6.87712 10.7432C7.66571 10.2964 8.53038 9.97266 9.41722 9.79529Z" fill="#353566"/>
<path fill-rule="evenodd" clip-rule="evenodd" d="M15.633 1.25H8.367C7.27486 1.24999 6.40935 1.24999 5.71173 1.30699C4.99834 1.36527 4.39472 1.48688 3.84355 1.76772C2.94978 2.22312 2.22312 2.94978 1.76772 3.84355C1.48688 4.39472 1.36527 4.99834 1.30699 5.71173C1.24999 6.40935 1.24999 7.27485 1.25 8.36699V15.633C1.24999 16.7251 1.24999 17.5906 1.30699 18.2883C1.36527 19.0017 1.48688 19.6053 1.76772 20.1565C2.22312 21.0502 2.94978 21.7769 3.84355 22.2323C4.39472 22.5131 4.99834 22.6347 5.71173 22.693C6.40935 22.75 7.27484 22.75 8.36698 22.75H15.633C16.7252 22.75 17.5906 22.75 18.2883 22.693C19.0017 22.6347 19.6053 22.5131 20.1565 22.2323C21.0502 21.7769 21.7769 21.0502 22.2323 20.1565C22.5131 19.6053 22.6347 19.0017 22.693 18.2883C22.75 17.5906 22.75 16.7252 22.75 15.633V8.36698C22.75 7.27484 22.75 6.40935 22.693 5.71173C22.6347 4.99834 22.5131 4.39472 22.2323 3.84355C21.7769 2.94978 21.0502 2.22312 20.1565 1.76772C19.6053 1.48688 19.0017 1.36527 18.2883 1.30699C17.5906 1.24999 16.7251 1.24999 15.633 1.25ZM4.52453 3.10423C4.829 2.94909 5.21325 2.85271 5.83388 2.80201C6.46327 2.75058 7.26752 2.75 8.4 2.75H15.6C16.7325 2.75 17.5367 2.75058 18.1661 2.80201C18.7867 2.85271 19.171 2.94909 19.4755 3.10423C20.087 3.41582 20.5842 3.913 20.8958 4.52453C21.0509 4.829 21.1473 5.21325 21.198 5.83388C21.2494 6.46327 21.25 7.26752 21.25 8.4V15.6C21.25 16.7325 21.2494 17.5367 21.198 18.1661C21.1473 18.7867 21.0509 19.171 20.8958 19.4755C20.5842 20.087 20.087 20.5842 19.4755 20.8958C19.171 21.0509 18.7867 21.1473 18.1661 21.198C17.5367 21.2494 16.7325 21.25 15.6 21.25H8.4C7.26752 21.25 6.46327 21.2494 5.83388 21.198C5.21325 21.1473 4.829 21.0509 4.52453 20.8958C3.913 20.5842 3.41582 20.087 3.10423 19.4755C2.94909 19.171 2.85271 18.7867 2.80201 18.1661C2.75058 17.5367 2.75 16.7325 2.75 15.6V8.4C2.75 7.26752 2.75058 6.46327 2.80201 5.83388C2.85271 5.21325 2.94909 4.829 3.10423 4.52453C3.41582 3.913 3.913 3.41582 4.52453 3.10423Z" fill="#353566"/>
</svg>
