<svg width="24" height="24" viewBox="0 0 24 24" fill="none" xmlns="http://www.w3.org/2000/svg">
<path d="M5.20528 0.534416C4.1507 0.011915 2.88218 0.22271 2.05182 1.0567C1.33659 1.77507 1.07459 2.82967 1.36858 3.7999L3.55035 11L1.36857 18.2001C1.07457 19.1704 1.33657 20.225 2.05181 20.9434C2.88218 21.7773 4.15071 21.9882 5.20529 21.4656L9.93526 19.1221C10.3064 18.9382 10.4582 18.4883 10.2743 18.1171C10.0904 17.7459 9.64048 17.5941 9.26932 17.778L4.53935 20.1216C4.06364 20.3573 3.49101 20.2629 3.11479 19.885C2.79 19.5588 2.66986 19.0782 2.80411 18.6351L4.5683 12.8131L11.8634 11.2444C12.1266 11.1878 12.1266 10.8122 11.8634 10.7556L4.56829 9.18688L2.80412 3.3649C2.66988 2.92188 2.79002 2.44124 3.1148 2.11504C3.49101 1.73718 4.06363 1.64279 4.53934 1.87849L20.4926 9.78271C21.078 10.0728 21.3277 10.6814 21.2217 11.2566C21.1467 11.6639 21.4161 12.055 21.8234 12.1301C22.2308 12.2051 22.6218 11.9357 22.6969 11.5284C22.9115 10.3639 22.4053 9.05641 21.1585 8.43864L5.20528 0.534416Z" fill="#353566"/>
<path fill-rule="evenodd" clip-rule="evenodd" d="M14.6134 15.5413C15.0038 14.4862 16.4962 14.4862 16.8866 15.5413L17.185 16.3478C17.4365 17.0275 17.9725 17.5635 18.6522 17.815L19.4587 18.1134C20.5138 18.5038 20.5138 19.9962 19.4587 20.3866L18.6522 20.685C17.9725 20.9365 17.4365 21.4725 17.185 22.1522L16.8866 22.9587C16.4962 24.0138 15.0038 24.0138 14.6134 22.9587L14.315 22.1522C14.0635 21.4725 13.5275 20.9365 12.8478 20.685L12.0413 20.3866C10.9862 19.9962 10.9862 18.5038 12.0413 18.1134L12.8478 17.815C13.5275 17.5635 14.0635 17.0275 14.315 16.3478L14.6134 15.5413ZM15.75 16.7921L15.7218 16.8683C15.3183 17.9587 14.4587 18.8183 13.3683 19.2218L13.2921 19.25L13.3683 19.2782C14.4587 19.6817 15.3183 20.5413 15.7218 21.6317L15.75 21.7079L15.7782 21.6317C16.1817 20.5413 17.0413 19.6817 18.1317 19.2782L18.2079 19.25L18.1317 19.2218C17.0413 18.8183 16.1817 17.9587 15.7782 16.8683L15.75 16.7921Z" fill="#353566"/>
<path d="M20.1269 13.0883C20.0833 12.9706 19.9167 12.9706 19.8731 13.0883L19.6789 13.6133C19.4962 14.107 19.107 14.4962 18.6133 14.6789L18.0883 14.8731C17.9706 14.9167 17.9706 15.0833 18.0883 15.1269L18.6133 15.3211C19.107 15.5038 19.4962 15.893 19.6789 16.3867L19.8731 16.9117C19.9167 17.0294 20.0833 17.0294 20.1269 16.9117L20.3211 16.3867C20.5038 15.893 20.893 15.5038 21.3867 15.3211L21.9117 15.1269C22.0294 15.0833 22.0294 14.9167 21.9117 14.8731L21.3867 14.6789C20.893 14.4962 20.5038 14.107 20.3211 13.6133L20.1269 13.0883Z" fill="#353566"/>
</svg>
