<svg width="24" height="24" viewBox="0 0 24 24" fill="none" xmlns="http://www.w3.org/2000/svg">
<path opacity="0.4" d="M12 1.75C6.61522 1.75 2.25 6.11522 2.25 11.5C2.25 16.2752 5.68209 20.2472 10.2139 21.0866C10.4717 21.1344 10.7358 21.044 10.9103 20.8483C11.0848 20.6526 11.1444 20.3799 11.0675 20.1292C10.8613 19.4569 10.75 18.7421 10.75 18C10.75 13.9959 13.9959 10.75 18 10.75C18.9461 10.75 19.8482 10.9309 20.6749 11.2592C20.9186 11.356 21.1953 11.3185 21.4044 11.1602C21.6135 11.0019 21.7247 10.7458 21.6977 10.4849C21.1896 5.5768 17.0422 1.75 12 1.75Z" fill="#353566"/>
<path d="M5.67818 1.9469C5.41291 1.82088 5.11578 1.75 4.8 1.75C3.66782 1.75 2.75 2.66782 2.75 3.8C2.75 4.11578 2.82088 4.41291 2.9469 4.67818C3.12463 5.05232 2.96541 5.49971 2.59127 5.67745C2.21713 5.85518 1.76974 5.69596 1.59201 5.32182C1.37247 4.85968 1.25 4.3431 1.25 3.8C1.25 1.83939 2.83939 0.25 4.8 0.25C5.3431 0.25 5.85969 0.372471 6.32182 0.592007C6.69596 0.769743 6.85518 1.21713 6.67745 1.59127C6.49971 1.96541 6.05232 2.12463 5.67818 1.9469Z" fill="#353566"/>
<path d="M19.2 1.75C18.8842 1.75 18.5871 1.82088 18.3218 1.9469C17.9477 2.12463 17.5003 1.96541 17.3225 1.59127C17.1448 1.21713 17.304 0.769743 17.6782 0.592007C18.1403 0.372471 18.6569 0.25 19.2 0.25C21.1606 0.25 22.75 1.83939 22.75 3.8C22.75 4.3431 22.6275 4.85968 22.408 5.32182C22.2302 5.69596 21.7829 5.85518 21.4087 5.67745C21.0346 5.49971 20.8754 5.05232 21.0531 4.67818C21.1791 4.41291 21.25 4.11578 21.25 3.8C21.25 2.66782 20.3322 1.75 19.2 1.75Z" fill="#353566"/>
<path d="M6.28026 17.7197C6.57315 18.0126 6.57315 18.4874 6.28026 18.7803L3.53026 21.5303C3.23737 21.8232 2.76249 21.8232 2.4696 21.5303C2.17671 21.2374 2.17671 20.7626 2.4696 20.4697L5.2196 17.7197C5.51249 17.4268 5.98737 17.4268 6.28026 17.7197Z" fill="#353566"/>
<path d="M11.9999 5.75C12.4141 5.75 12.7499 6.08579 12.7499 6.5V11.5C12.7499 11.9142 12.4141 12.25 11.9999 12.25C11.5857 12.25 11.2499 11.9142 11.2499 11.5V6.5C11.2499 6.08579 11.5857 5.75 11.9999 5.75Z" fill="#353566"/>
<path fill-rule="evenodd" clip-rule="evenodd" d="M17.9999 12.25C14.8243 12.25 12.2499 14.8244 12.2499 18C12.2499 21.1756 14.8243 23.75 17.9999 23.75C21.1756 23.75 23.7499 21.1756 23.7499 18C23.7499 14.8244 21.1756 12.25 17.9999 12.25ZM15.558 17.0581C15.3139 17.3022 15.3139 17.6979 15.558 17.942C15.8021 18.186 16.1978 18.186 16.4419 17.942L17.3749 17.0089V20.5C17.3749 20.8452 17.6548 21.125 17.9999 21.125C18.3451 21.125 18.6249 20.8452 18.6249 20.5V17.0089L19.558 17.9419C19.8021 18.186 20.1978 18.186 20.4419 17.9419C20.686 17.6979 20.686 17.3021 20.4419 17.058L18.4419 15.0581C18.3247 14.9408 18.1657 14.875 18 14.875C17.8342 14.875 17.6752 14.9408 17.558 15.0581L15.558 17.0581Z" fill="#353566"/>
</svg>
