<svg width="24" height="24" viewBox="0 0 24 24" fill="none" xmlns="http://www.w3.org/2000/svg">
<path opacity="0.4" d="M12 1.75C6.61522 1.75 2.25 6.11522 2.25 11.5C2.25 16.8848 6.61522 21.25 12 21.25C12.1815 21.25 12.3618 21.245 12.541 21.2352C12.9387 21.2134 13.25 20.8846 13.25 20.4863V18.25C13.25 17.2004 13.7461 16.2674 14.5216 15.6712L14.7019 15.5326C14.8738 15.4005 14.9801 15.2005 14.9934 14.9842L15.0074 14.7572C15.1368 12.6605 17.0423 11.25 19 11.25C19.569 11.25 20.1474 11.3729 20.6822 11.6056C20.9219 11.7099 21.1985 11.6819 21.4124 11.5317C21.6263 11.3816 21.7466 11.1309 21.73 10.8701C21.4049 5.77851 17.1732 1.75 12 1.75Z" fill="#353566"/>
<path d="M5.67818 1.9469C5.41291 1.82088 5.11578 1.75 4.8 1.75C3.66782 1.75 2.75 2.66782 2.75 3.8C2.75 4.11578 2.82088 4.41291 2.9469 4.67818C3.12463 5.05232 2.96541 5.49971 2.59127 5.67745C2.21713 5.85518 1.76974 5.69596 1.59201 5.32182C1.37247 4.85968 1.25 4.3431 1.25 3.8C1.25 1.83939 2.83939 0.25 4.8 0.25C5.3431 0.25 5.85969 0.372471 6.32182 0.592007C6.69596 0.769743 6.85518 1.21713 6.67745 1.59127C6.49971 1.96541 6.05232 2.12463 5.67818 1.9469Z" fill="#353566"/>
<path d="M19.2 1.75C18.8842 1.75 18.5871 1.82088 18.3218 1.9469C17.9477 2.12463 17.5003 1.96541 17.3225 1.59127C17.1448 1.21713 17.304 0.769743 17.6782 0.592007C18.1403 0.372471 18.6569 0.25 19.2 0.25C21.1606 0.25 22.75 1.83939 22.75 3.8C22.75 4.3431 22.6275 4.85968 22.408 5.32182C22.2302 5.69596 21.7829 5.85518 21.4087 5.67745C21.0346 5.49971 20.8754 5.05232 21.0531 4.67818C21.1791 4.41291 21.25 4.11578 21.25 3.8C21.25 2.66782 20.3322 1.75 19.2 1.75Z" fill="#353566"/>
<path d="M6.28032 17.7197C6.57322 18.0126 6.57322 18.4874 6.28032 18.7803L3.53032 21.5303C3.23743 21.8232 2.76256 21.8232 2.46966 21.5303C2.17677 21.2374 2.17677 20.7626 2.46966 20.4697L5.21966 17.7197C5.51256 17.4268 5.98743 17.4268 6.28032 17.7197Z" fill="#353566"/>
<path d="M12 5.75C12.4142 5.75 12.75 6.08579 12.75 6.5V11.5C12.75 11.9142 12.4142 12.25 12 12.25C11.5858 12.25 11.25 11.9142 11.25 11.5V6.5C11.25 6.08579 11.5858 5.75 12 5.75Z" fill="#353566"/>
<path fill-rule="evenodd" clip-rule="evenodd" d="M19 12.25C17.4286 12.25 16 13.4006 16 15V16.2677C15.1519 16.389 14.5 17.1184 14.5 18V21.75C14.5 22.7165 15.2835 23.5 16.25 23.5H21.75C22.7165 23.5 23.5 22.7165 23.5 21.75V18C23.5 17.1184 22.8481 16.389 22 16.2677V15C22 13.4006 20.5714 12.25 19 12.25ZM17.5 15C17.5 14.3902 18.0861 13.75 19 13.75C19.9139 13.75 20.5 14.3902 20.5 15V16H17.5V15Z" fill="#353566"/>
</svg>
