<svg width="24" height="24" viewBox="0 0 24 24" fill="none" xmlns="http://www.w3.org/2000/svg">
<path opacity="0.4" d="M16.4326 2.25H7.56739C6.61495 2.24999 5.85439 2.24999 5.24013 2.30018C4.61012 2.35165 4.06824 2.45963 3.57054 2.71322C2.77085 3.12068 2.12068 3.77085 1.71322 4.57054C1.45963 5.06824 1.35165 5.61012 1.30018 6.24013C1.24999 6.85439 1.24999 7.61494 1.25 8.56738V17.4326C1.24999 18.3851 1.24999 19.1456 1.30018 19.7599C1.35165 20.3899 1.45963 20.9318 1.71322 21.4295C2.12068 22.2291 2.77085 22.8793 3.57054 23.2868C4.06824 23.5404 4.61012 23.6483 5.24013 23.6998C5.85438 23.75 6.6149 23.75 7.5673 23.75H16.4326C17.385 23.75 18.1456 23.75 18.7599 23.6998C19.3899 23.6483 19.9318 23.5404 20.4295 23.2868C21.2291 22.8793 21.8793 22.2291 22.2868 21.4295C22.5404 20.9318 22.6483 20.3899 22.6998 19.7599C22.75 19.1456 22.75 18.3851 22.75 17.4327V8.56737C22.75 7.61496 22.75 6.85438 22.6998 6.24013C22.6483 5.61012 22.5404 5.06824 22.2868 4.57054C21.8793 3.77085 21.2291 3.12068 20.4295 2.71322C19.9318 2.45963 19.3899 2.35165 18.7599 2.30018C18.1456 2.24999 17.3851 2.24999 16.4326 2.25Z" fill="#353566"/>
<path d="M8 0.25C8.41422 0.25 8.75 0.585786 8.75 1V2.25H15.25V1C15.25 0.585786 15.5858 0.25 16 0.25C16.4142 0.25 16.75 0.585786 16.75 1V2.25007C17.556 2.25064 18.2154 2.25569 18.7598 2.30018C19.3899 2.35165 19.9317 2.45963 20.4294 2.71322C21.2291 3.12069 21.8793 3.77085 22.2868 4.57054C22.5403 5.06824 22.6483 5.61012 22.6998 6.24013C22.7459 6.80469 22.7497 7.49283 22.75 8.33994C22.75 8.39597 22.75 8.42398 22.7391 8.44538C22.7295 8.4642 22.7142 8.47951 22.6954 8.4891C22.674 8.5 22.646 8.5 22.59 8.5H1.40998C1.35397 8.5 1.32597 8.5 1.30457 8.4891C1.28576 8.47951 1.27045 8.4642 1.26087 8.44538C1.24997 8.42398 1.24998 8.39597 1.25 8.33995C1.2503 7.49284 1.25403 6.8047 1.30015 6.24013C1.35163 5.61012 1.45961 5.06824 1.7132 4.57054C2.12066 3.77085 2.77083 3.12069 3.57052 2.71322C4.06822 2.45963 4.6101 2.35165 5.24011 2.30018C5.78456 2.25569 6.44394 2.25064 7.25 2.25007V1C7.25 0.585786 7.58579 0.25 8 0.25Z" fill="#353566"/>
<path d="M10.3355 12.3292C10.5895 12.4562 10.75 12.7159 10.75 13V19C10.75 19.4142 10.4143 19.75 10 19.75C9.58583 19.75 9.25004 19.4142 9.25004 19V14.5L8.45005 15.1C8.11867 15.3485 7.64857 15.2814 7.40005 14.95C7.15152 14.6186 7.21867 14.1485 7.55005 13.9L9.55005 12.4C9.77731 12.2296 10.0814 12.2021 10.3355 12.3292Z" fill="#353566"/>
<path d="M13.2595 14.0495C13.4261 13.8629 13.6456 13.75 14 13.75C14.6891 13.75 14.9989 14.2107 15 14.598L14.9999 14.6174C14.9965 14.8284 14.8859 15.0458 14.5406 15.3412C14.3701 15.4872 14.169 15.6293 13.9386 15.7855C13.8947 15.8152 13.8493 15.8458 13.8027 15.8772C13.617 16.0021 13.4143 16.1386 13.2293 16.277C13.0601 16.4037 12.8891 16.5502 12.7197 16.7197C12.1515 17.2878 11.8433 17.8099 11.6786 18.2215C11.5968 18.4261 11.552 18.5996 11.5277 18.733C11.5156 18.7996 11.5087 18.8559 11.5048 18.9008C11.5028 18.9233 11.5016 18.9429 11.5009 18.9594L11.5002 18.982L11.5 18.9916L11.5 18.9959L11.5 18.998L11.5 19C11.5 19.0005 11.5 19 12.25 19H11.5C11.5 19.4142 11.8358 19.75 12.25 19.75H16C16.4142 19.75 16.75 19.4142 16.75 19C16.75 18.5858 16.4142 18.25 16 18.25H13.3737C13.4775 18.1081 13.6103 17.9504 13.7803 17.7803C13.8987 17.662 14.0155 17.5622 14.1281 17.4779C14.2799 17.3643 14.4419 17.2552 14.6234 17.133C14.6741 17.0988 14.7264 17.0637 14.7803 17.0271C15.0158 16.8674 15.2768 16.6855 15.5159 16.4809C15.9889 16.0762 16.4888 15.4863 16.4998 14.6349L16.5 14.6049V14.6C16.5 13.3877 15.5225 12.25 14 12.25C13.2544 12.25 12.6149 12.5192 12.1405 13.0505C11.8451 13.3814 11.5 13.9062 11.5 14.7C11.5 15.1142 11.8358 15.45 12.25 15.45C12.6642 15.45 13 15.1142 13 14.7C13 14.3938 13.1164 14.2097 13.2595 14.0495Z" fill="#353566"/>
</svg>
