<svg width="24" height="24" viewBox="0 0 24 24" fill="none" xmlns="http://www.w3.org/2000/svg">
<g clip-path="url(#clip0_9001_305311)">
<path opacity="0.4" d="M12 0.25C5.51065 0.25 0.25 5.51065 0.25 12C0.25 18.4893 5.51065 23.75 12 23.75C18.4893 23.75 23.75 18.4893 23.75 12C23.75 5.51065 18.4893 0.25 12 0.25Z" fill="#353566"/>
<path d="M12.2069 11.2791C11.8852 11.1869 11.5414 11.3188 11.3641 11.6026L8.8641 15.6026C8.64457 15.9538 8.75135 16.4165 9.1026 16.6361C9.45385 16.8556 9.91657 16.7488 10.1361 16.3976L11.2501 14.6152V18.0001C11.2501 18.4143 11.5859 18.7501 12.0001 18.7501C12.4143 18.7501 12.7501 18.4143 12.7501 18.0001V12.0001C12.7501 11.6655 12.5285 11.3714 12.2069 11.2791Z" fill="#353566"/>
</g>
<defs>
<clipPath id="clip0_9001_305311">
<rect width="24" height="24" fill="white"/>
</clipPath>
</defs>
</svg>
