<svg width="24" height="24" viewBox="0 0 24 24" fill="none" xmlns="http://www.w3.org/2000/svg">
<g clip-path="url(#clip0_9001_305261)">
<path opacity="0.4" d="M12 0.25C5.51065 0.25 0.25 5.51065 0.25 12C0.25 18.4893 5.51065 23.75 12 23.75C18.4893 23.75 23.75 18.4893 23.75 12C23.75 5.51065 18.4893 0.25 12 0.25Z" fill="#353566"/>
<path d="M12.0001 5.25C11.5859 5.25 11.2501 5.58579 11.2501 6V9.3849L10.1361 7.6025C9.91657 7.25125 9.45385 7.14447 9.1026 7.364C8.75135 7.58353 8.64457 8.04625 8.8641 8.3975L11.3641 12.3975C11.5414 12.6812 11.8852 12.8132 12.2069 12.7209C12.5285 12.6287 12.7501 12.3346 12.7501 12V6C12.7501 5.58579 12.4143 5.25 12.0001 5.25Z" fill="#353566"/>
</g>
<defs>
<clipPath id="clip0_9001_305261">
<rect width="24" height="24" fill="white"/>
</clipPath>
</defs>
</svg>
