<svg width="24" height="24" viewBox="0 0 24 24" fill="none" xmlns="http://www.w3.org/2000/svg">
<path opacity="0.4" d="M3.99998 1.25C3.60991 1.25 3.28496 1.549 3.25257 1.93772L3.2416 2.06923C3.08917 3.8965 2.99953 4.97113 3.19849 5.9719C3.4562 7.26813 4.06331 8.46926 4.95421 9.44545C5.64204 10.1991 6.56048 10.7642 8.12218 11.7251L8.56895 12L8.23456 12.2058L8.12217 12.2749C6.56047 13.2358 5.64203 13.8009 4.9542 14.5546C4.0633 15.5307 3.45618 16.7319 3.19848 18.0281C2.99952 19.0289 3.08917 20.1035 3.2416 21.9308L3.25256 22.0623C3.28496 22.451 3.60991 22.75 3.99997 22.75L13.0602 22.75C13.4055 22.75 13.7062 22.5142 13.7885 22.1789C13.8709 21.8435 13.7136 21.4953 13.4076 21.3353C11.5293 20.3535 10.25 18.388 10.25 16.125C10.25 14.8985 10.625 13.7618 11.2666 12.8205C11.3821 12.6512 11.4232 12.4419 11.3803 12.2414C11.3674 12.1809 11.3472 12.1227 11.3204 12.0681L11.8778 11.7251C13.4395 10.7642 14.3579 10.1991 15.0458 9.44545C15.9366 8.46926 16.5438 7.26813 16.8015 5.9719C17.0004 4.97112 16.9108 3.8965 16.7584 2.06922L16.7474 1.93772C16.715 1.549 16.39 1.25 16 1.25H3.99998Z" fill="#353566"/>
<path d="M1.25 2C1.25 1.58579 1.58579 1.25 2 1.25H18C18.4142 1.25 18.75 1.58579 18.75 2C18.75 2.41421 18.4142 2.75 18 2.75H2C1.58579 2.75 1.25 2.41421 1.25 2Z" fill="#353566"/>
<path d="M1.25 22C1.25 21.5858 1.58579 21.25 2 21.25H13.0602C13.4744 21.25 13.8102 21.5858 13.8102 22C13.8102 22.4142 13.4744 22.75 13.0602 22.75H2C1.58579 22.75 1.25 22.4142 1.25 22Z" fill="#353566"/>
<path fill-rule="evenodd" clip-rule="evenodd" d="M11.25 16.125C11.25 13.4326 13.4326 11.25 16.125 11.25C18.8174 11.25 21 13.4326 21 16.125C21 17.2006 20.6517 18.1948 20.0617 19.001L22.5303 21.4697C22.8232 21.7626 22.8232 22.2374 22.5303 22.5303C22.2374 22.8232 21.7625 22.8232 21.4696 22.5303L19.001 20.0617C18.1948 20.6517 17.2006 21 16.125 21C13.4326 21 11.25 18.8174 11.25 16.125ZM16.125 12.75C14.261 12.75 12.75 14.261 12.75 16.125C12.75 17.989 14.261 19.5 16.125 19.5C17.989 19.5 19.5 17.989 19.5 16.125C19.5 14.261 17.989 12.75 16.125 12.75Z" fill="#353566"/>
</svg>
