<svg width="24" height="24" viewBox="0 0 24 24" fill="none" xmlns="http://www.w3.org/2000/svg">
<path opacity="0.4" d="M3.99998 1.25C3.60991 1.25 3.28496 1.549 3.25257 1.93772L3.2416 2.06923C3.08917 3.8965 2.99953 4.97113 3.19849 5.9719C3.4562 7.26813 4.06331 8.46926 4.95421 9.44545C5.64204 10.1991 6.56048 10.7642 8.12218 11.7251L8.56895 12L8.12217 12.2749C6.56047 13.2358 5.64203 13.8009 4.9542 14.5546C4.0633 15.5307 3.45618 16.7319 3.19848 18.0281C2.99952 19.0289 3.08917 20.1035 3.2416 21.9308L3.25256 22.0623C3.28496 22.451 3.60991 22.75 3.99997 22.75L11.7907 22.75C12.0401 22.75 12.2732 22.626 12.4126 22.4192C12.552 22.2124 12.5795 21.9498 12.4859 21.7186C12.334 21.3433 12.25 20.9324 12.25 20.5V17.25C12.25 16.2004 12.7461 15.2674 13.5216 14.6712L13.6396 14.5805C13.8308 14.4335 13.9397 14.2035 13.9321 13.9625C13.9246 13.7214 13.8016 13.4987 13.6015 13.3639C13.1181 13.0382 12.5229 12.6719 11.7787 12.214L11.431 12L11.8778 11.7251C13.4395 10.7642 14.3579 10.1991 15.0458 9.44545C15.9366 8.46926 16.5438 7.26813 16.8015 5.9719C17.0004 4.97112 16.9108 3.8965 16.7584 2.06922L16.7474 1.93772C16.715 1.549 16.39 1.25 16 1.25H3.99998Z" fill="#353566"/>
<path d="M2 1.25C1.58579 1.25 1.25 1.58579 1.25 2C1.25 2.41421 1.58579 2.75 2 2.75H18C18.4142 2.75 18.75 2.41421 18.75 2C18.75 1.58579 18.4142 1.25 18 1.25H2Z" fill="#353566"/>
<path d="M2 21.25C1.58579 21.25 1.25 21.5858 1.25 22C1.25 22.4142 1.58579 22.75 2 22.75H11.7908C12.205 22.75 12.5408 22.4142 12.5408 22C12.5408 21.5858 12.205 21.25 11.7908 21.25H2Z" fill="#353566"/>
<path fill-rule="evenodd" clip-rule="evenodd" d="M18 11.25C16.4286 11.25 15 12.4006 15 14V15.2677C14.1519 15.389 13.5 16.1184 13.5 17V20.75C13.5 21.7165 14.2835 22.5 15.25 22.5H20.75C21.7165 22.5 22.5 21.7165 22.5 20.75V17C22.5 16.1184 21.8481 15.389 21 15.2677V14C21 12.4006 19.5714 11.25 18 11.25ZM16.5 14C16.5 13.3902 17.0861 12.75 18 12.75C18.9139 12.75 19.5 13.3902 19.5 14V15H16.5V14Z" fill="#353566"/>
</svg>
