<svg width="24" height="24" viewBox="0 0 24 24" fill="none" xmlns="http://www.w3.org/2000/svg">
<g clip-path="url(#clip0_9001_305076)">
<path opacity="0.4" d="M10 3.25C4.61522 3.25 0.25 7.61522 0.25 13C0.25 18.3848 4.61522 22.75 10 22.75C10.3791 22.75 10.7535 22.7283 11.1219 22.6861C11.3719 22.6574 11.5909 22.5052 11.705 22.2809C11.8191 22.0565 11.813 21.7899 11.6888 21.571C11.0914 20.5176 10.75 19.2998 10.75 18C10.75 13.9959 13.9959 10.75 18 10.75C18.1504 10.75 18.2997 10.7546 18.4476 10.7636C18.6984 10.7788 18.9402 10.6675 19.0917 10.4669C19.2431 10.2664 19.284 10.0033 19.2007 9.76628C17.8672 5.97194 14.2524 3.25 10 3.25Z" fill="#353566"/>
<path d="M6.25 1C6.25 0.585786 6.58579 0.25 7 0.25H13C13.4142 0.25 13.75 0.585786 13.75 1C13.75 1.41421 13.4142 1.75 13 1.75H10.75V4C10.75 4.41421 10.4142 4.75 10 4.75C9.58579 4.75 9.25 4.41421 9.25 4V1.75H7C6.58579 1.75 6.25 1.41421 6.25 1Z" fill="#353566"/>
<path d="M15.7197 5.71967C15.4268 6.01256 15.4268 6.48744 15.7197 6.78033C16.0126 7.07322 16.4874 7.07322 16.7803 6.78033L18.5303 5.03033C18.8232 4.73744 18.8232 4.26256 18.5303 3.96967C18.2374 3.67678 17.7626 3.67678 17.4697 3.96967L15.7197 5.71967Z" fill="#353566"/>
<path d="M10 7.75C10.4142 7.75 10.75 8.08579 10.75 8.5V13C10.75 13.4142 10.4142 13.75 10 13.75C9.58579 13.75 9.25 13.4142 9.25 13V8.5C9.25 8.08579 9.58579 7.75 10 7.75Z" fill="#353566"/>
<path fill-rule="evenodd" clip-rule="evenodd" d="M18 12.25C14.8244 12.25 12.25 14.8244 12.25 18C12.25 21.1756 14.8244 23.75 18 23.75C21.1756 23.75 23.75 21.1756 23.75 18C23.75 14.8244 21.1756 12.25 18 12.25ZM19.0582 19.9419C19.3023 20.186 19.698 20.186 19.9421 19.9419C20.1861 19.6979 20.1861 19.3021 19.942 19.0581L18.8839 18L19.9419 16.9419C20.186 16.6979 20.186 16.3021 19.9419 16.0581C19.6979 15.814 19.3021 15.814 19.0581 16.0581L18 17.1161L16.942 16.0581C16.6979 15.814 16.3022 15.814 16.0581 16.0581C15.814 16.3021 15.814 16.6979 16.0581 16.9419L17.1162 18L16.0581 19.0581C15.814 19.3021 15.814 19.6979 16.0581 19.9419C16.3021 20.186 16.6979 20.186 16.9419 19.9419L18 18.8838L19.0582 19.9419Z" fill="#353566"/>
</g>
<defs>
<clipPath id="clip0_9001_305076">
<rect width="24" height="24" fill="white"/>
</clipPath>
</defs>
</svg>
