<svg width="24" height="24" viewBox="0 0 24 24" fill="none" xmlns="http://www.w3.org/2000/svg">
<g clip-path="url(#clip0_9001_303430)">
<g opacity="0.4">
<path d="M15.2366 1.43611C15.4457 0.924942 16.0296 0.680061 16.5407 0.889157C16.5762 0.903655 16.6115 0.918318 16.6468 0.933144C17.1559 1.14715 17.3952 1.73337 17.1812 2.24251C16.9672 2.75165 16.381 2.9909 15.8718 2.77689C15.8425 2.76455 15.813 2.75234 15.7835 2.74028C15.2724 2.53118 15.0275 1.94729 15.2366 1.43611Z" fill="#353566"/>
<path d="M19.0305 3.481C19.4191 3.08862 20.0523 3.0856 20.4447 3.47426C20.4719 3.50121 20.499 3.52829 20.5259 3.5555C20.9146 3.94788 20.9116 4.58104 20.5192 4.9697C20.1268 5.35836 19.4936 5.35535 19.105 4.96297C19.0825 4.94027 19.0599 4.91768 19.0372 4.89519C18.6448 4.50653 18.6418 3.87337 19.0305 3.481Z" fill="#353566"/>
<path d="M21.7577 6.819C22.2668 6.60499 22.853 6.84424 23.067 7.35337C23.0819 7.38865 23.0965 7.424 23.111 7.45945C23.3201 7.97062 23.0752 8.55451 22.5641 8.76361C22.0529 8.97271 21.469 8.72783 21.2599 8.21665C21.2478 8.18715 21.2356 8.15772 21.2233 8.12836C21.0093 7.61923 21.2485 7.033 21.7577 6.819Z" fill="#353566"/>
<path d="M22.9953 10.9471C23.5476 10.9445 23.9974 11.3901 24 11.9424L24.0001 12.0001L24 12.0577C23.9974 12.61 23.5476 13.0556 22.9953 13.053C22.443 13.0504 21.9974 12.6006 22 12.0483L22.0001 12.0001L22 11.9518C21.9974 11.3995 22.443 10.9497 22.9953 10.9471Z" fill="#353566"/>
<path d="M22.5641 15.2365C23.0752 15.4456 23.3201 16.0295 23.111 16.5407C23.1023 16.5621 23.0934 16.5835 23.0845 16.6049C23.0787 16.6189 23.0729 16.6328 23.067 16.6468C22.853 17.1559 22.2668 17.3951 21.7577 17.1811C21.2485 16.9671 21.0093 16.3809 21.2233 15.8718C21.2293 15.8574 21.2354 15.843 21.2413 15.8286C21.2476 15.8136 21.2537 15.7985 21.2599 15.7835C21.469 15.2723 22.0529 15.0274 22.5641 15.2365Z" fill="#353566"/>
<path d="M20.5192 19.0304C20.9116 19.4191 20.9146 20.0523 20.5259 20.4446C20.499 20.4718 20.4719 20.4989 20.4447 20.5259C20.0523 20.9145 19.4191 20.9115 19.0305 20.5191C18.6418 20.1268 18.6448 19.4936 19.0372 19.1049C19.0455 19.0967 19.0538 19.0885 19.062 19.0803C19.0764 19.066 19.0907 19.0516 19.105 19.0372C19.4936 18.6448 20.1268 18.6418 20.5192 19.0304Z" fill="#353566"/>
<path d="M17.1812 21.7576C17.3952 22.2668 17.1559 22.853 16.6468 23.067C16.6115 23.0818 16.5762 23.0965 16.5407 23.111C16.0296 23.3201 15.4457 23.0752 15.2366 22.564C15.0275 22.0528 15.2724 21.469 15.7835 21.2599C15.813 21.2478 15.8425 21.2356 15.8718 21.2232C16.381 21.0092 16.9672 21.2485 17.1812 21.7576Z" fill="#353566"/>
</g>
<path d="M12 1.75006C6.33908 1.75006 1.75 6.33914 1.75 12.0001C1.75 17.661 6.33908 22.2501 12 22.2501C12.4142 22.2501 12.75 22.5858 12.75 23.0001C12.75 23.4143 12.4142 23.7501 12 23.7501C5.51065 23.7501 0.25 18.4894 0.25 12.0001C0.25 5.51072 5.51065 0.250061 12 0.250061C12.4142 0.250061 12.75 0.585847 12.75 1.00006C12.75 1.41427 12.4142 1.75006 12 1.75006Z" fill="#353566"/>
<path d="M6.71942 7.49854L6.57367 7.26131C6.45294 7.0642 6.48301 6.80995 6.64646 6.64651C6.8099 6.48307 7.06415 6.45302 7.26125 6.57376L7.49847 6.71952C7.64966 6.81257 7.8662 6.94611 8.12785 7.10816C8.65106 7.43221 9.35511 7.87059 10.0778 8.32751C10.7999 8.78408 11.5431 9.26067 12.1437 9.66073C12.4437 9.86058 12.711 10.0433 12.9236 10.1959C13.1255 10.3409 13.3078 10.4797 13.4141 10.586C14.1951 11.367 14.1951 12.6333 13.4141 13.4144C12.633 14.1954 11.3667 14.1954 10.5857 13.4144C10.4793 13.3081 10.3406 13.1258 10.1956 12.9239C10.043 12.7113 9.86029 12.4439 9.66045 12.1439C9.26042 11.5433 8.78385 10.8001 8.32731 10.078C7.87042 9.35525 7.43207 8.65117 7.10804 8.12795C6.94599 7.86628 6.81247 7.64973 6.71942 7.49854Z" fill="#353566"/>
</g>
<defs>
<clipPath id="clip0_9001_303430">
<rect width="24" height="24" fill="white"/>
</clipPath>
</defs>
</svg>
