<svg width="24" height="24" viewBox="0 0 24 24" fill="none" xmlns="http://www.w3.org/2000/svg">
<path fill-rule="evenodd" clip-rule="evenodd" d="M17.0314 3.25H6.96858C6.29521 3.24999 5.74449 3.24998 5.29693 3.28655C4.83367 3.3244 4.41527 3.40514 4.02453 3.60423C3.413 3.91582 2.91582 4.413 2.60423 5.02453C2.40514 5.41527 2.3244 5.83367 2.28655 6.29693C2.24998 6.7445 2.24999 7.2952 2.25 7.96858L2.25 11.8787C1.96084 12.1172 1.72183 12.4138 1.54973 12.7515C1.37789 13.0888 1.31078 13.4454 1.27974 13.8253C1.24998 14.1896 1.24999 14.6354 1.25 15.1696V21C1.25 21.4142 1.58579 21.75 2 21.75C2.41421 21.75 2.75 21.4142 2.75 21V18.75H21.25V21C21.25 21.4142 21.5858 21.75 22 21.75C22.4142 21.75 22.75 21.4142 22.75 21V15.1695C22.75 14.6354 22.75 14.1896 22.7203 13.8253C22.6892 13.4454 22.6221 13.0888 22.4503 12.7515C22.2782 12.4138 22.0392 12.1172 21.75 11.8787V7.96856C21.75 7.29519 21.75 6.74449 21.7134 6.29693C21.6756 5.83367 21.5949 5.41527 21.3958 5.02453C21.0842 4.413 20.587 3.91582 19.9755 3.60423C19.5847 3.40514 19.1663 3.3244 18.7031 3.28655C18.2555 3.24998 17.7048 3.24999 17.0314 3.25ZM20.25 11.2864V8C20.25 7.28756 20.2494 6.79833 20.2184 6.41908C20.1882 6.04858 20.1327 5.84956 20.0593 5.70552C19.8915 5.37623 19.6238 5.10852 19.2945 4.94074C19.1504 4.86735 18.9514 4.81184 18.5809 4.78157C18.2017 4.75058 17.7124 4.75 17 4.75H7C6.28756 4.75 5.79833 4.75058 5.41908 4.78157C5.04858 4.81184 4.84956 4.86735 4.70552 4.94074C4.37623 5.10852 4.10852 5.37623 3.94074 5.70552C3.86735 5.84956 3.81184 6.04858 3.78157 6.41908C3.75058 6.79833 3.75 7.28756 3.75 8V11.2864C3.77501 11.284 3.80012 11.2818 3.82533 11.2797C4.0897 11.2581 4.39707 11.2522 4.75 11.2506L4.75 9.37109C4.74999 8.97573 4.74998 8.63466 4.77293 8.35373C4.79715 8.05722 4.85064 7.76231 4.99524 7.47852C5.21095 7.05516 5.55516 6.71095 5.97852 6.49524C6.26231 6.35064 6.55722 6.29715 6.85373 6.27293C7.13466 6.24998 7.47573 6.24999 7.87109 6.25H9.62891C10.0243 6.24999 10.3653 6.24998 10.6463 6.27293C10.9428 6.29715 11.2377 6.35064 11.5215 6.49524C11.6955 6.58391 11.8562 6.69429 12 6.82295C12.1439 6.69429 12.3045 6.58391 12.4785 6.49524C12.7623 6.35064 13.0572 6.29715 13.3537 6.27293C13.6347 6.24998 13.9757 6.24999 14.3711 6.25H16.1289C16.5243 6.24999 16.8653 6.24998 17.1463 6.27293C17.4428 6.29715 17.7377 6.35064 18.0215 6.49524C18.4448 6.71095 18.7891 7.05516 19.0048 7.47852C19.1494 7.76231 19.2028 8.05722 19.2271 8.35373C19.25 8.63466 19.25 8.97574 19.25 9.3711L19.25 11.2506C19.6029 11.2522 19.9103 11.2581 20.1747 11.2797C20.1999 11.2818 20.225 11.284 20.25 11.2864ZM12.75 9.37255C12.75 9.38163 12.75 9.39078 12.75 9.4V11.25H17.75V9.4C17.75 8.96759 17.7494 8.68838 17.7321 8.47588C17.7154 8.27213 17.6872 8.19659 17.6683 8.15951C17.5964 8.01839 17.4816 7.90365 17.3405 7.83175C17.3034 7.81285 17.2279 7.78459 17.0241 7.76795C16.8116 7.75059 16.5324 7.75 16.1 7.75H14.4C13.9676 7.75 13.6884 7.75059 13.4759 7.76795C13.2721 7.78459 13.1966 7.81285 13.1595 7.83175C13.0184 7.90365 12.9037 8.01839 12.8317 8.15951C12.8129 8.19659 12.7846 8.27213 12.7679 8.47588C12.751 8.68385 12.75 8.95571 12.75 9.37255ZM11.25 9.37254C11.25 8.95571 11.249 8.68385 11.2321 8.47588C11.2154 8.27213 11.1872 8.19659 11.1683 8.15951C11.0964 8.01839 10.9816 7.90365 10.8405 7.83175C10.8034 7.81285 10.7279 7.78459 10.5241 7.76795C10.3116 7.75059 10.0324 7.75 9.6 7.75H7.9C7.46759 7.75 7.18838 7.75059 6.97588 7.76795C6.77213 7.78459 6.69659 7.81285 6.65951 7.83175C6.51839 7.90365 6.40365 8.01839 6.33175 8.15951C6.31285 8.19659 6.28459 8.27213 6.26795 8.47588C6.25059 8.68838 6.25 8.96759 6.25 9.4V11.25L11.25 11.25L11.25 9.4C11.25 9.39078 11.25 9.38163 11.25 9.37254ZM5.49879 12.75H5.2C4.62757 12.75 4.24336 12.7506 3.94748 12.7748C3.66036 12.7982 3.52307 12.8401 3.43251 12.8862C3.19731 13.0061 3.00608 13.1973 2.88624 13.4325C2.8401 13.5231 2.79822 13.6604 2.77476 13.9475C2.75058 14.2434 2.75 14.6276 2.75 15.2V17.25H21.25V15.2C21.25 14.6276 21.2494 14.2434 21.2252 13.9475C21.2018 13.6604 21.1599 13.5231 21.1138 13.4325C20.9939 13.1973 20.8027 13.0061 20.5675 12.8862C20.4769 12.8401 20.3396 12.7982 20.0525 12.7748C19.7566 12.7506 19.3724 12.75 18.8 12.75L5.5 12.75C5.4996 12.75 5.4992 12.75 5.49879 12.75Z" fill="#353566"/>
</svg>
