<svg width="24" height="24" viewBox="0 0 24 24" fill="none" xmlns="http://www.w3.org/2000/svg">
<path fill-rule="evenodd" clip-rule="evenodd" d="M8.7 9.05005C7.62304 9.05005 6.75 9.92309 6.75 11C6.75 12.077 7.62304 12.95 8.7 12.95C9.11597 12.95 9.50151 12.8198 9.81808 12.5979L12.3518 13.8647C12.3858 14.9118 13.2454 15.7501 14.3007 15.7501C15.3777 15.7501 16.2507 14.8771 16.2507 13.8001C16.2507 12.7231 15.3777 11.8501 14.3007 11.8501C13.7448 11.8501 13.2433 12.0827 12.8881 12.4558L10.6233 11.3234C10.6409 11.2182 10.65 11.1102 10.65 11C10.65 10.8899 10.6409 10.7818 10.6233 10.6766L12.888 9.5442C13.2433 9.91739 13.7448 10.15 14.3007 10.15C15.3777 10.15 16.2507 9.27695 16.2507 8.2C16.2507 7.12304 15.3777 6.25 14.3007 6.25C13.2454 6.25 12.3859 7.08829 12.3518 8.13529L9.818 9.40217C9.50145 9.18027 9.11593 9.05005 8.7 9.05005ZM8.25 11C8.25 10.7515 8.45147 10.55 8.7 10.55C8.94853 10.55 9.15 10.7515 9.15 11C9.15 11.2486 8.94853 11.45 8.7 11.45C8.45147 11.45 8.25 11.2486 8.25 11ZM14.3007 7.75C14.0522 7.75 13.8507 7.95147 13.8507 8.2C13.8507 8.44853 14.0522 8.65 14.3007 8.65C14.5492 8.65 14.7507 8.44853 14.7507 8.2C14.7507 7.95147 14.5492 7.75 14.3007 7.75ZM13.8507 13.8001C13.8507 13.5516 14.0522 13.3501 14.3007 13.3501C14.5492 13.3501 14.7507 13.5516 14.7507 13.8001C14.7507 14.0486 14.5492 14.2501 14.3007 14.2501C14.0522 14.2501 13.8507 14.0486 13.8507 13.8001Z" fill="#353566"/>
<path fill-rule="evenodd" clip-rule="evenodd" d="M4.70987 7.90746C5.05264 4.13698 8.21397 1.25 12 1.25C15.786 1.25 18.9474 4.13698 19.2901 7.90746L19.468 9.86397C19.6397 11.753 20.2808 13.5691 21.3329 15.1473L21.3662 15.1972C21.6165 15.5726 21.75 16.0137 21.75 16.4648C21.75 17.7269 20.7269 18.75 19.4648 18.75H4.53518C3.27311 18.75 2.25 17.7269 2.25 16.4648C2.25 16.0137 2.38354 15.5726 2.6338 15.1972L2.66706 15.1473C3.7192 13.5691 4.36027 11.753 4.532 9.86397L4.70987 7.90746ZM12 2.75C8.98978 2.75 6.47624 5.0454 6.20371 8.04326L6.02584 9.99978C5.83148 12.1377 5.10593 14.1932 3.91513 15.9794L3.88187 16.0293C3.79588 16.1583 3.75 16.3098 3.75 16.4648C3.75 16.8985 4.10154 17.25 4.53518 17.25H19.4648C19.8985 17.25 20.25 16.8985 20.25 16.4648C20.25 16.3098 20.2041 16.1583 20.1181 16.0293L20.0849 15.9794C18.8941 14.1932 18.1685 12.1377 17.9742 9.99977L17.7963 8.04326C17.5238 5.0454 15.0102 2.75 12 2.75Z" fill="#353566"/>
<path d="M9.02583 19.8507C9.38437 19.6433 9.84317 19.7658 10.0506 20.1243C10.4407 20.7988 11.1681 21.2499 12 21.2499C12.8319 21.2499 13.5593 20.7988 13.9495 20.1243C14.1569 19.7658 14.6157 19.6433 14.9742 19.8507C15.3328 20.0581 15.4553 20.5169 15.2479 20.8754C14.6006 21.9943 13.389 22.7499 12 22.7499C10.611 22.7499 9.39943 21.9943 8.75217 20.8754C8.54476 20.5169 8.66728 20.0581 9.02583 19.8507Z" fill="#353566"/>
</svg>
