<svg width="24" height="24" viewBox="0 0 24 24" fill="none" xmlns="http://www.w3.org/2000/svg">
<path d="M15.0303 14.0302C14.7374 14.3231 14.2626 14.3231 13.9697 14.0302L12.0001 12.0606L10.0303 14.0303C9.73743 14.3232 9.26255 14.3232 8.96966 14.0303C8.67677 13.7374 8.67677 13.2626 8.96966 12.9697L10.9394 10.9999L8.9697 9.03025C8.67681 8.73735 8.67681 8.26248 8.9697 7.96959C9.26259 7.67669 9.73747 7.67669 10.0304 7.96959L12.0001 9.93928L13.9696 7.9697C14.2625 7.67681 14.7374 7.67681 15.0303 7.9697C15.3232 8.26259 15.3232 8.73747 15.0303 9.03036L13.0607 10.9999L15.0303 12.9696C15.3232 13.2625 15.3232 13.7373 15.0303 14.0302Z" fill="#353566"/>
<path fill-rule="evenodd" clip-rule="evenodd" d="M12 1.25C8.21397 1.25 5.05264 4.13698 4.70987 7.90746L4.532 9.86397C4.36027 11.753 3.7192 13.5691 2.66706 15.1473L2.6338 15.1972C2.38354 15.5726 2.25 16.0137 2.25 16.4648C2.25 17.7269 3.27311 18.75 4.53518 18.75H19.4648C20.7269 18.75 21.75 17.7269 21.75 16.4648C21.75 16.0137 21.6165 15.5726 21.3662 15.1972L21.3329 15.1473C20.2808 13.5691 19.6397 11.753 19.468 9.86397L19.2901 7.90746C18.9474 4.13698 15.786 1.25 12 1.25ZM6.20371 8.04326C6.47624 5.0454 8.98978 2.75 12 2.75C15.0102 2.75 17.5238 5.0454 17.7963 8.04326L17.9742 9.99977C18.1685 12.1377 18.8941 14.1932 20.0849 15.9794L20.1181 16.0293C20.2041 16.1583 20.25 16.3098 20.25 16.4648C20.25 16.8985 19.8985 17.25 19.4648 17.25H4.53518C4.10154 17.25 3.75 16.8985 3.75 16.4648C3.75 16.3098 3.79588 16.1583 3.88187 16.0293L3.91513 15.9794C5.10593 14.1932 5.83148 12.1377 6.02584 9.99978L6.20371 8.04326Z" fill="#353566"/>
<path d="M10.0506 20.1243C9.84317 19.7658 9.38437 19.6433 9.02583 19.8507C8.66728 20.0581 8.54476 20.5169 8.75217 20.8754C9.39943 21.9943 10.611 22.7499 12 22.7499C13.389 22.7499 14.6006 21.9943 15.2479 20.8754C15.4553 20.5169 15.3328 20.0581 14.9742 19.8507C14.6157 19.6433 14.1569 19.7658 13.9495 20.1243C13.5593 20.7988 12.8319 21.2499 12 21.2499C11.1681 21.2499 10.4407 20.7988 10.0506 20.1243Z" fill="#353566"/>
</svg>
