<svg width="24" height="24" viewBox="0 0 24 24" fill="none" xmlns="http://www.w3.org/2000/svg">
<path d="M11 11C10.4477 11 10 11.4477 10 12C10 12.5523 10.4477 13 11 13C11.5523 13 12.0001 12.5523 12.0001 12C12.0001 11.4477 11.5523 11 11 11Z" fill="#353566"/>
<path fill-rule="evenodd" clip-rule="evenodd" d="M11.6459 1.32311C13.2232 0.930327 14.75 2.12354 14.75 3.74903V20.2507C14.75 21.8761 13.2233 23.0693 11.646 22.6766L5.3356 21.1055C4.11013 20.8003 3.25 19.6998 3.25 18.4369V5.56306C3.25 4.30023 4.11007 3.19971 5.33548 2.89455L11.6459 1.32311ZM13.25 3.74903C13.25 3.09884 12.6393 2.62155 12.0084 2.77866L5.69795 4.3501C5.14094 4.48881 4.75 4.98904 4.75 5.56306V18.4369C4.75 19.011 5.14097 19.5112 5.698 19.6499L12.0084 21.221C12.6393 21.3781 13.25 20.9008 13.25 20.2507V3.74903Z" fill="#353566"/>
<path d="M16.25 4C16.25 3.58579 16.5858 3.25 17 3.25H18.75C19.8546 3.25 20.75 4.14543 20.75 5.25V18.75C20.75 19.8546 19.8546 20.75 18.75 20.75H17C16.5858 20.75 16.25 20.4142 16.25 20C16.25 19.5858 16.5858 19.25 17 19.25H18.75C19.0261 19.25 19.25 19.0261 19.25 18.75V5.25C19.25 4.97386 19.0261 4.75 18.75 4.75H17C16.5858 4.75 16.25 4.41421 16.25 4Z" fill="#353566"/>
</svg>
