<svg width="24" height="24" viewBox="0 0 24 24" fill="none" xmlns="http://www.w3.org/2000/svg">
<path d="M6.5311 13.2197C6.82399 13.5126 6.82399 13.9874 6.5311 14.2803C6.09319 14.7182 5.79479 15.1511 5.63524 15.604C5.47903 16.0475 5.44003 16.5546 5.58898 17.175C5.68568 17.5778 5.43758 17.9827 5.03481 18.0794C4.63204 18.1761 4.22714 17.928 4.13043 17.5252C3.91922 16.6456 3.96097 15.8424 4.22044 15.1057C4.47657 14.3785 4.92878 13.7613 5.47044 13.2197C5.76333 12.9268 6.2382 12.9268 6.5311 13.2197Z" fill="#353566"/>
<path fill-rule="evenodd" clip-rule="evenodd" d="M20.9185 3.08148C18.4765 0.639504 14.5173 0.639508 12.0753 3.08148L3.08148 12.0753C0.639506 14.5173 0.639507 18.4765 3.08148 20.9185C5.52346 23.3605 9.48269 23.3605 11.9247 20.9185L20.9185 11.9247C23.3605 9.48268 23.3605 5.52346 20.9185 3.08148ZM13.136 4.14214C14.9922 2.28595 18.0017 2.28595 19.8579 4.14214C21.714 5.99833 21.714 9.00781 19.8579 10.864L15.8913 14.8306L9.1694 8.10874L13.136 4.14214ZM8.10874 9.1694L4.14214 13.136C2.28595 14.9922 2.28595 18.0017 4.14214 19.8579C5.99833 21.714 9.00781 21.714 10.864 19.8579L14.8306 15.8913L8.10874 9.1694Z" fill="#353566"/>
</svg>
