<svg width="24" height="24" viewBox="0 0 24 24" fill="none" xmlns="http://www.w3.org/2000/svg">
<path d="M9.75 13.5C9.75 13.9142 10.0858 14.25 10.5 14.25C10.9142 14.25 11.25 13.9142 11.25 13.5V6.5C11.25 6.08579 10.9142 5.75 10.5 5.75C10.0858 5.75 9.75 6.08579 9.75 6.5V13.5Z" fill="#353566"/>
<path d="M7 14.25C6.58579 14.25 6.25 13.9142 6.25 13.5V11C6.25 10.5858 6.58579 10.25 7 10.25C7.41421 10.25 7.75 10.5858 7.75 11V13.5C7.75 13.9142 7.41421 14.25 7 14.25Z" fill="#353566"/>
<path d="M14 14.25C14.4142 14.25 14.75 13.9142 14.75 13.5V8.5C14.75 8.08579 14.4142 7.75 14 7.75C13.5858 7.75 13.25 8.08579 13.25 8.5V13.5C13.25 13.9142 13.5858 14.25 14 14.25Z" fill="#353566"/>
<path fill-rule="evenodd" clip-rule="evenodd" d="M10.5 19.75C12.7843 19.75 14.8753 18.922 16.489 17.5497L21.4697 22.5303C21.7626 22.8232 22.2374 22.8232 22.5303 22.5303C22.8232 22.2374 22.8232 21.7626 22.5303 21.4697L17.5497 16.489C18.922 14.8753 19.75 12.7843 19.75 10.5C19.75 5.39137 15.6086 1.25 10.5 1.25C5.39137 1.25 1.25 5.39137 1.25 10.5C1.25 15.6086 5.39137 19.75 10.5 19.75ZM10.5 2.75C6.21979 2.75 2.75 6.21979 2.75 10.5C2.75 14.7802 6.21979 18.25 10.5 18.25C12.589 18.25 14.485 17.4235 15.8788 16.0796C15.905 16.0408 15.9353 16.004 15.9697 15.9697C16.004 15.9353 16.0408 15.905 16.0796 15.8788C17.4235 14.485 18.25 12.589 18.25 10.5C18.25 6.21979 14.7802 2.75 10.5 2.75Z" fill="#353566"/>
</svg>
