<svg width="24" height="24" viewBox="0 0 24 24" fill="none" xmlns="http://www.w3.org/2000/svg">
<path d="M20.7745 1.7631C19.1985 1.68483 15.9544 1.88285 13.4891 4.45883C13.0934 4.87224 12.766 5.3098 12.4958 5.76167C12.2832 6.11717 12.399 6.57769 12.7545 6.79029C13.11 7.00288 13.5705 6.88704 13.7831 6.53154C13.9979 6.1725 14.2576 5.82521 14.5727 5.49596C16.59 3.38815 19.2876 3.1911 20.7001 3.26125C20.9617 3.27424 21.1164 3.443 21.1443 3.60933C21.3603 4.89874 21.4368 7.41027 19.4331 9.50391C18.2439 10.7464 16.5373 11.3172 14.8757 11.567C14.466 11.6286 14.1839 12.0105 14.2455 12.4202C14.307 12.8298 14.689 13.1119 15.0986 13.0503C16.9013 12.7794 18.9946 12.1315 20.5168 10.541C22.9956 7.95089 22.874 4.85599 22.6237 3.36155C22.4696 2.44159 21.679 1.80802 20.7745 1.7631Z" fill="#353566"/>
<path fill-rule="evenodd" clip-rule="evenodd" d="M11.2444 21.4999V15.2418C10.3069 15.2193 9.13594 15.1391 7.93721 14.8714C6.39384 14.5266 4.74347 13.8577 3.48338 12.541C1.00452 9.95089 1.12613 6.856 1.37644 5.36155C1.53052 4.44159 2.32109 3.80802 3.22562 3.7631C4.80162 3.68483 8.04576 3.88285 10.5111 6.45883C12.8006 8.85115 12.7681 12.0318 12.7479 14.008C12.7461 14.1817 12.7444 14.3462 12.7444 14.4999V21.4999C12.7444 21.9141 12.4086 22.2499 11.9944 22.2499C11.5802 22.2499 11.2444 21.9141 11.2444 21.4999ZM3.30002 5.26125C4.71249 5.1911 7.41013 5.38815 9.42738 7.49596C11.1876 9.33515 11.2557 11.7557 11.2478 13.7413C10.3712 13.719 9.32193 13.6437 8.26421 13.4075C6.88303 13.0989 5.54825 12.5291 4.56706 11.5039C2.56337 9.41027 2.63987 6.89874 2.85583 5.60933C2.88369 5.443 3.0384 5.27424 3.30002 5.26125Z" fill="#353566"/>
</svg>
