<svg width="24" height="24" viewBox="0 0 24 24" fill="none" xmlns="http://www.w3.org/2000/svg">
<path fill-rule="evenodd" clip-rule="evenodd" d="M9.99998 1.25012C5.16751 1.25012 1.25 5.16766 1.25 10.0001C1.25 14.2035 3.91922 17.1661 5.77085 19.2213L5.94247 19.4119C6.62466 20.1698 8.20215 21.6321 8.99292 22.357C9.31361 22.6509 9.7316 22.7802 10.1366 22.7429C10.3912 22.7194 10.6164 22.5679 10.7339 22.3408C10.8515 22.1137 10.8452 21.8423 10.7173 21.6209C10.1022 20.5561 9.74994 19.3204 9.74994 18.0001C9.74994 13.9961 12.9959 10.7501 16.9999 10.7501C17.3074 10.7501 17.6101 10.7692 17.9069 10.8062C18.1195 10.8327 18.3332 10.7671 18.4942 10.6259C18.6552 10.4847 18.7482 10.2814 18.7497 10.0672L18.7499 10.0001C18.7499 5.16768 14.8324 1.25012 9.99998 1.25012ZM12.4999 10.0001C12.4999 11.3808 11.3807 12.5001 9.99994 12.5001C8.61923 12.5001 7.49994 11.3808 7.49994 10.0001C7.49994 8.61941 8.61923 7.50012 9.99994 7.50012C11.3807 7.50012 12.4999 8.61941 12.4999 10.0001Z" fill="#353566"/>
<path fill-rule="evenodd" clip-rule="evenodd" d="M11.2499 18.0001C11.2499 14.8245 13.8243 12.2501 16.9999 12.2501C20.1756 12.2501 22.7499 14.8245 22.7499 18.0001C22.7499 21.1758 20.1756 23.7501 16.9999 23.7501C13.8243 23.7501 11.2499 21.1758 11.2499 18.0001ZM16.3749 18.0051V15.5051C16.3749 15.1599 16.6548 14.8801 16.9999 14.8801C17.3451 14.8801 17.6249 15.1599 17.6249 15.5051V18.0051C17.6249 18.3503 17.3451 18.6301 16.9999 18.6301C16.6548 18.6301 16.3749 18.3503 16.3749 18.0051ZM16.1249 20.2551C16.1249 19.7719 16.5167 19.3801 16.9999 19.3801C17.4832 19.3801 17.875 19.7719 17.875 20.2551C17.875 20.7384 17.4832 21.1301 16.9999 21.1301C16.5167 21.1301 16.1249 20.7384 16.1249 20.2551Z" fill="#353566"/>
</svg>
