<svg width="24" height="24" viewBox="0 0 24 24" fill="none" xmlns="http://www.w3.org/2000/svg">
<path fill-rule="evenodd" clip-rule="evenodd" d="M3.25 10C3.25 5.16754 7.16751 1.25 12 1.25C16.8324 1.25 20.7499 5.16755 20.7499 10C20.7499 14.2078 17.9881 17.2706 16.2124 19.2397L16.0574 19.4117C15.3752 20.1697 13.7978 21.632 13.007 22.3568C12.4365 22.8798 11.5634 22.8798 10.9929 22.3568C10.2022 21.632 8.62466 20.1697 7.94247 19.4117L7.78067 19.2322C5.92621 17.1754 3.25 14.2073 3.25 10ZM12.4504 6.48282C12.2686 6.10566 11.7314 6.10566 11.5496 6.48282L10.6974 8.25081C10.6388 8.37244 10.5227 8.45628 10.3888 8.47375L8.43585 8.72859C8.01738 8.78319 7.85063 9.2997 8.15817 9.58869L9.58078 10.9255C9.68016 11.0189 9.72511 11.1565 9.70004 11.2905L9.34188 13.2052C9.26466 13.618 9.7 13.9363 10.0699 13.7376L11.8107 12.8023C11.9289 12.7388 12.0711 12.7388 12.1893 12.8023L13.9301 13.7376C14.3 13.9363 14.7353 13.618 14.6581 13.2052L14.3 11.2905C14.2749 11.1565 14.3198 11.0189 14.4192 10.9255L15.8418 9.58869C16.1494 9.2997 15.9826 8.78319 15.5641 8.72859L13.6112 8.47375C13.4773 8.45628 13.3612 8.37244 13.3026 8.25081L12.4504 6.48282Z" fill="#353566"/>
</svg>
