<svg width="24" height="24" viewBox="0 0 24 24" fill="none" xmlns="http://www.w3.org/2000/svg">
<path fill-rule="evenodd" clip-rule="evenodd" d="M9.99998 1.25C5.16751 1.25 1.25 5.16754 1.25 10C1.25 14.2034 3.91922 17.166 5.77085 19.2212L5.94247 19.4117C6.62466 20.1697 8.20215 21.632 8.99292 22.3568C9.56344 22.8798 10.4365 22.8798 11.007 22.3568C11.278 22.1084 11.6341 21.78 12.0126 21.4256C12.164 21.2838 12.2499 21.0856 12.2499 20.8782V18.25C12.2499 17.2004 12.7461 16.2674 13.5216 15.6712L13.7019 15.5326C13.8737 15.4005 13.98 15.2005 13.9934 14.9842L14.0074 14.7572C14.1365 12.6649 16.0341 11.2559 17.9881 11.25C18.3849 11.2488 18.7122 10.9387 18.7346 10.5424C18.7447 10.3636 18.7499 10.1828 18.7499 10C18.7499 5.16756 14.8324 1.25 9.99998 1.25ZM12.4999 10C12.4999 11.3807 11.3807 12.5 9.99994 12.5C8.61923 12.5 7.49994 11.3807 7.49994 10C7.49994 8.61929 8.61923 7.5 9.99994 7.5C11.3807 7.5 12.4999 8.61929 12.4999 10Z" fill="#353566"/>
<path fill-rule="evenodd" clip-rule="evenodd" d="M14.9999 15C14.9999 13.4006 16.4286 12.25 17.9999 12.25C19.5713 12.25 20.9999 13.4006 20.9999 15V16.2677C21.848 16.389 22.4999 17.1184 22.4999 18V21.75C22.4999 22.7165 21.7164 23.5 20.7499 23.5H15.2499C14.2834 23.5 13.4999 22.7165 13.4999 21.75V18C13.4999 17.1184 14.1519 16.389 14.9999 16.2677V15ZM17.9999 13.75C17.086 13.75 16.4999 14.3902 16.4999 15V16H19.4999V15C19.4999 14.3902 18.9139 13.75 17.9999 13.75Z" fill="#353566"/>
</svg>
