<svg width="24" height="24" viewBox="0 0 24 24" fill="none" xmlns="http://www.w3.org/2000/svg">
<g clip-path="url(#clip0_9001_311547)">
<path fill-rule="evenodd" clip-rule="evenodd" d="M0.25 12C0.25 5.51065 5.51065 0.25 12 0.25C18.4893 0.25 23.75 5.51065 23.75 12C23.75 18.4893 18.4893 23.75 12 23.75C5.51065 23.75 0.25 18.4893 0.25 12ZM6.83333 10.8357C6.83333 7.98251 9.14624 5.66667 12.0001 5.66667C14.8536 5.66667 17.1667 7.97983 17.1667 10.8333C17.1667 14.0167 14.6333 16.4833 12.3 18.2333C12.1222 18.3667 11.8778 18.3667 11.7 18.2333C9.36676 16.4834 6.83333 14.0167 6.83333 10.8357Z" fill="#353566"/>
</g>
<defs>
<clipPath id="clip0_9001_311547">
<rect width="24" height="24" fill="white"/>
</clipPath>
</defs>
</svg>
