<svg width="24" height="24" viewBox="0 0 24 24" fill="none" xmlns="http://www.w3.org/2000/svg">
<path fill-rule="evenodd" clip-rule="evenodd" d="M9.99998 1.25012C5.16751 1.25012 1.25 5.16766 1.25 10.0001C1.25 14.2035 3.91922 17.1661 5.77085 19.2213L5.94247 19.4119C6.62466 20.1698 8.20215 21.6321 8.99292 22.357C9.31361 22.6509 9.7316 22.7802 10.1366 22.7429C10.3912 22.7194 10.6164 22.5679 10.7339 22.3408C10.8515 22.1137 10.8452 21.8423 10.7173 21.6209C10.1022 20.5561 9.74994 19.3204 9.74994 18.0001C9.74994 13.9961 12.9959 10.7501 16.9999 10.7501C17.3074 10.7501 17.6101 10.7692 17.9069 10.8062C18.1195 10.8327 18.3332 10.7671 18.4942 10.6259C18.6552 10.4847 18.7482 10.2814 18.7497 10.0672L18.7499 10.0001C18.7499 5.16768 14.8324 1.25012 9.99998 1.25012ZM12.5 10.0001C12.5 11.3808 11.3807 12.5001 10 12.5001C8.61929 12.5001 7.5 11.3808 7.5 10.0001C7.5 8.61941 8.61929 7.50012 10 7.50012C11.3807 7.50012 12.5 8.61941 12.5 10.0001Z" fill="#353566"/>
<path fill-rule="evenodd" clip-rule="evenodd" d="M11.25 18.0001C11.25 14.8245 13.8244 12.2501 17 12.2501C20.1756 12.2501 22.75 14.8245 22.75 18.0001C22.75 21.1758 20.1756 23.7501 17 23.7501C13.8244 23.7501 11.25 21.1758 11.25 18.0001ZM16.375 15.5001V18.9913L15.4419 18.0582C15.1979 17.8141 14.8021 17.8141 14.5581 18.0582C14.314 18.3023 14.314 18.698 14.5581 18.9421L16.558 20.9421C16.8021 21.1862 17.1979 21.1862 17.4419 20.9421L19.442 18.9421C19.686 18.698 19.686 18.3023 19.442 18.0582C19.1979 17.8141 18.8021 17.8141 18.5581 18.0582L17.625 18.9912V15.5001C17.625 15.1549 17.3452 14.8751 17 14.8751C16.6548 14.8751 16.375 15.1549 16.375 15.5001Z" fill="#353566"/>
</svg>
