<svg width="24" height="24" viewBox="0 0 24 24" fill="none" xmlns="http://www.w3.org/2000/svg">
<path d="M12.2498 2C12.2498 1.58579 12.5856 1.25 12.9998 1.25C13.414 1.25 13.7498 1.58579 13.7498 2V3.25L19.9998 3.25C20.9663 3.25 21.7498 4.0335 21.7498 5V13C21.7498 13.9665 20.9663 14.75 19.9998 14.75H13.7498V22C13.7498 22.4142 13.414 22.75 12.9998 22.75C12.5856 22.75 12.2498 22.4142 12.2498 22V14.75H7.38742C6.95098 14.75 6.5303 14.5869 6.20789 14.2928L1.82389 10.2928C1.06326 9.59875 1.06326 8.40125 1.82389 7.70724L6.20789 3.70724C6.5303 3.41308 6.95098 3.25 7.38742 3.25L12.2498 3.25V2Z" fill="#353566"/>
</svg>
