<svg width="24" height="24" viewBox="0 0 24 24" fill="none" xmlns="http://www.w3.org/2000/svg">
<g opacity="0.4">
<path d="M12 12V22L17.5 17.5L12 12Z" fill="#353566"/>
<path d="M13.25 10.75L17.5 6.5L12 2V9.5L13.25 10.75Z" fill="#353566"/>
</g>
<path fill-rule="evenodd" clip-rule="evenodd" d="M2.35355 1.64645C2.15829 1.45118 1.84171 1.45118 1.64645 1.64645C1.45118 1.84171 1.45118 2.15829 1.64645 2.35355L5.64512 6.35223L5.64645 6.35356L11.2929 12L5.64645 17.6465C5.45118 17.8417 5.45118 18.1583 5.64645 18.3536C5.84171 18.5488 6.15829 18.5488 6.35355 18.3536L11.5 13.2071V22C11.5 22.1932 11.6113 22.3691 11.7859 22.4518C11.9605 22.5346 12.1671 22.5093 12.3166 22.387L17.4664 18.1735L21.6464 22.3536C21.8417 22.5488 22.1583 22.5488 22.3536 22.3536C22.5488 22.1583 22.5488 21.8417 22.3536 21.6464L2.35355 1.64645ZM16.7558 17.4629L12.5 13.2071V20.9449L16.7558 17.4629Z" fill="#353566"/>
<path d="M17.8536 6.85356L13.6036 11.1036L12.8964 10.3965L16.7558 6.53712L12.5 3.05513V10L11.5 9.00001V2.00001C11.5 1.80681 11.6113 1.6309 11.7859 1.54817C11.9605 1.46544 12.1671 1.49069 12.3166 1.61303L17.8166 6.11303C17.926 6.20248 17.9923 6.33401 17.9994 6.4751C18.0064 6.61619 17.9534 6.75367 17.8536 6.85356Z" fill="#353566"/>
</svg>
