<svg width="24" height="24" viewBox="0 0 24 24" fill="none" xmlns="http://www.w3.org/2000/svg">
<g clip-path="url(#clip0_9001_279801)">
<path opacity="0.4" d="M22.9394 13.1618C22.9795 12.78 23 12.3924 23 12C23 5.92487 18.0751 1 12 1C5.92487 1 1 5.92487 1 12C1 18.0751 5.92487 23 12 23C13.3764 23 14.6938 22.7472 15.9083 22.2855C14.5939 20.9025 13.5 19.1412 13.5 17.002C13.5 13.9653 15.9616 11.5 19.0001 11.5C20.5446 11.5 21.9404 12.1366 22.9394 13.1618Z" fill="#353566"/>
<path fill-rule="evenodd" clip-rule="evenodd" d="M0.5 12C0.5 5.64873 5.64873 0.5 12 0.5C18.3513 0.5 23.5 5.64873 23.5 12C23.5 12.5679 23.4588 13.1262 23.3793 13.6721C23.1156 13.3256 22.8117 13.0113 22.4746 12.7362C22.4914 12.493 22.5 12.2475 22.5 12C22.5 11.1385 22.3962 10.3012 22.2006 9.5H16.8825C16.9563 10.2816 16.996 11.0788 16.9997 11.8753C16.6458 12.0136 16.3098 12.1876 15.9959 12.3927C15.9986 12.2607 16 12.1298 16 12C16 11.1581 15.9582 10.318 15.8779 9.5H8.1221C8.04178 10.318 8 11.1581 8 12C8 12.8419 8.04178 13.682 8.1221 14.5H14.1006C13.9385 14.8168 13.8063 15.1514 13.7076 15.5H8.24099C8.44187 16.9338 8.76331 18.2686 9.18633 19.3854C9.56432 20.3833 10.0129 21.1791 10.5055 21.717C10.9949 22.2516 11.4955 22.5 12 22.5C12.4802 22.5 12.9777 22.2283 13.4788 21.6255C13.7912 21.2498 14.0852 20.7676 14.3546 20.202C14.5407 20.5419 14.7506 20.8671 14.9776 21.1776C14.7553 21.5794 14.514 21.9435 14.2539 22.2575C14.6953 22.161 15.1263 22.0366 15.5451 21.8865C15.785 22.1621 16.0357 22.4242 16.2914 22.6726C14.9654 23.2063 13.517 23.5 12 23.5C5.64873 23.5 0.5 18.3513 0.5 12ZM1.5 12C1.5 11.1385 1.60375 10.3012 1.79945 9.5H7.11749C7.03988 10.3224 7 11.162 7 12C7 12.838 7.03988 13.6776 7.11749 14.5H1.79945C1.60375 13.6988 1.5 12.8615 1.5 12ZM7.23163 8.5H2.09747C3.28149 5.15011 6.11718 2.58044 9.62607 1.76948C9.08014 2.41901 8.62269 3.27958 8.25117 4.26039C7.78484 5.49149 7.43989 6.94951 7.23163 8.5ZM10.5055 2.28296C10.9949 1.74843 11.4955 1.5 12 1.5C12.5045 1.5 13.0051 1.74843 13.4945 2.28296C13.9871 2.82093 14.4357 3.61673 14.8137 4.61461C15.2367 5.73138 15.5581 7.06619 15.759 8.5H8.24099C8.44187 7.06619 8.76331 5.73138 9.18633 4.61461C9.56432 3.61673 10.0129 2.82093 10.5055 2.28296ZM15.7488 4.26039C16.2152 5.49149 16.5601 6.94951 16.7684 8.5H21.9025C20.7185 5.15011 17.8828 2.58044 14.3739 1.76948C14.9199 2.41901 15.3773 3.27958 15.7488 4.26039ZM8.25117 19.7396C8.62269 20.7204 9.08014 21.581 9.62607 22.2305C6.11718 21.4196 3.28149 18.8499 2.09747 15.5H7.23163C7.43989 17.0505 7.78484 18.5085 8.25117 19.7396Z" fill="#353566"/>
<path fill-rule="evenodd" clip-rule="evenodd" d="M19 15C17.8954 15 17 15.8954 17 17C17 18.1046 17.8954 19 19 19C20.1046 19 21 18.1046 21 17C21 15.8954 20.1046 15 19 15ZM18 17C18 16.4477 18.4477 16 19 16C19.5523 16 20 16.4477 20 17C20 17.5523 19.5523 18 19 18C18.4477 18 18 17.5523 18 17Z" fill="#353566"/>
<path fill-rule="evenodd" clip-rule="evenodd" d="M14.5 17.002C14.5 14.517 16.5144 12.5 19.0001 12.5C21.4854 12.5 23.5 14.5147 23.5 17C23.5 19.7667 21.3 21.9 19.3 23.4C19.1222 23.5333 18.8778 23.5333 18.7 23.4C16.7001 21.9001 14.5 19.7667 14.5 17.002ZM19.0001 13.5C17.0674 13.5 15.5 15.0687 15.5 17.002C15.5 19.1211 17.1234 20.9113 19 22.3709C20.8765 20.9113 22.5 19.121 22.5 17C22.5 15.067 20.9331 13.5 19.0001 13.5Z" fill="#353566"/>
</g>
<defs>
<clipPath id="clip0_9001_279801">
<rect width="24" height="24" fill="white"/>
</clipPath>
</defs>
</svg>
