<svg width="24" height="24" viewBox="0 0 24 24" fill="none" xmlns="http://www.w3.org/2000/svg">
<g clip-path="url(#clip0_9001_279726)">
<path opacity="0.4" d="M23 12C23 18.0751 18.0751 23 12 23C5.92487 23 1 18.0751 1 12C1 5.92487 5.92487 1 12 1C18.0751 1 23 5.92487 23 12Z" fill="#353566"/>
<path fill-rule="evenodd" clip-rule="evenodd" d="M12 0.5C5.64873 0.5 0.5 5.64873 0.5 12C0.5 18.3513 5.64873 23.5 12 23.5C18.3513 23.5 23.5 18.3513 23.5 12C23.5 5.64873 18.3513 0.5 12 0.5ZM1.79945 9.5C1.60375 10.3012 1.5 11.1385 1.5 12C1.5 12.8615 1.60375 13.6988 1.79945 14.5H7.11749C7.03988 13.6776 7 12.838 7 12C7 11.162 7.03988 10.3224 7.11749 9.5H1.79945ZM2.09747 8.5H7.23163C7.43989 6.94951 7.78484 5.49149 8.25117 4.26039C8.62269 3.27958 9.08014 2.41901 9.62607 1.76948C6.11718 2.58044 3.28149 5.15011 2.09747 8.5ZM12 1.5C11.4955 1.5 10.9949 1.74843 10.5055 2.28296C10.0129 2.82093 9.56432 3.61673 9.18633 4.61461C8.76331 5.73138 8.44187 7.06619 8.24099 8.5H15.759C15.5581 7.06619 15.2367 5.73138 14.8137 4.61461C14.4357 3.61673 13.9871 2.82093 13.4945 2.28296C13.0051 1.74843 12.5045 1.5 12 1.5ZM16.7684 8.5C16.5601 6.94951 16.2152 5.49149 15.7488 4.26039C15.3773 3.27958 14.9199 2.41901 14.3739 1.76948C17.8828 2.58044 20.7185 5.15011 21.9025 8.5H16.7684ZM15.8779 9.5H8.1221C8.04178 10.318 8 11.1581 8 12C8 12.8419 8.04178 13.682 8.1221 14.5H15.8492C15.9483 13.6478 16 12.8009 16 12C16 11.1581 15.9582 10.318 15.8779 9.5ZM16.8556 14.5C16.9508 13.647 17 12.8016 17 12C17 11.162 16.9601 10.3224 16.8825 9.5H22.2006C22.3962 10.3012 22.5 11.1385 22.5 12C22.5 12.8615 22.3962 13.6988 22.2006 14.5H16.8556ZM15.7113 15.5H8.24099C8.44187 16.9338 8.76331 18.2686 9.18633 19.3854C9.56432 20.3833 10.0129 21.1791 10.5055 21.717C10.9949 22.2516 11.4955 22.5 12 22.5C12.4802 22.5 12.9777 22.2283 13.4788 21.6255C13.9784 21.0248 14.4308 20.1518 14.8111 19.1005C15.2041 18.014 15.5088 16.7688 15.7113 15.5ZM14.2539 22.2575C14.8532 21.5342 15.3518 20.5454 15.7514 19.4407C16.1835 18.2462 16.512 16.8815 16.7234 15.5H21.9025C20.705 18.888 17.818 21.478 14.2539 22.2575ZM9.62607 22.2305C9.08014 21.581 8.62269 20.7204 8.25117 19.7396C7.78484 18.5085 7.43989 17.0505 7.23163 15.5H2.09747C3.28149 18.8499 6.11718 21.4196 9.62607 22.2305Z" fill="#353566"/>
</g>
<defs>
<clipPath id="clip0_9001_279726">
<rect width="24" height="24" fill="white"/>
</clipPath>
</defs>
</svg>
