<svg width="24" height="24" viewBox="0 0 24 24" fill="none" xmlns="http://www.w3.org/2000/svg">
<g clip-path="url(#clip0_9001_279861)">
<path opacity="0.4" d="M22.492 15.3139C22.822 14.2681 23 13.1549 23 12C23 5.92487 18.0751 1 12 1C5.92487 1 1 5.92487 1 12C1 18.0751 5.92487 23 12 23C12.5809 23 13.1513 22.955 13.7079 22.8682C12.8571 22.123 12.1493 21.1312 11.6715 19.9107C11.4428 19.3266 11.4428 18.6734 11.6715 18.0893C12.8355 15.1163 15.3638 13.5 18 13.5C19.6399 13.5 21.2381 14.1255 22.492 15.3139Z" fill="#353566"/>
<path fill-rule="evenodd" clip-rule="evenodd" d="M0.5 12C0.5 5.64873 5.64873 0.5 12 0.5C18.3513 0.5 23.5 5.64873 23.5 12C23.5 13.3012 23.2839 14.552 22.8856 15.7183C22.4519 15.2355 21.967 14.8284 21.4459 14.5H22.2006C22.3962 13.6988 22.5 12.8615 22.5 12C22.5 11.1385 22.3962 10.3012 22.2006 9.5H16.8825C16.9601 10.3224 17 11.162 17 12C17 12.5145 16.9797 13.047 16.9401 13.588C16.5926 13.6461 16.2502 13.7327 15.9159 13.8474C15.9714 13.2173 16 12.5959 16 12C16 11.1581 15.9582 10.318 15.8779 9.5H8.1221C8.04178 10.318 8 11.1581 8 12C8 12.8419 8.04178 13.682 8.1221 14.5H14.5541C14.1135 14.7777 13.6988 15.1116 13.319 15.5H8.24099C8.44187 16.9338 8.76331 18.2686 9.18633 19.3854C9.56432 20.3833 10.0129 21.1791 10.5055 21.717C10.9949 22.2516 11.4955 22.5 12 22.5C12.319 22.5 12.6456 22.3801 12.9759 22.1229C13.3555 22.5713 13.7779 22.959 14.2319 23.2836C13.5099 23.4256 12.7636 23.5 12 23.5C5.64873 23.5 0.5 18.3513 0.5 12ZM1.5 12C1.5 11.1385 1.60375 10.3012 1.79945 9.5H7.11749C7.03988 10.3224 7 11.162 7 12C7 12.838 7.03988 13.6776 7.11749 14.5H1.79945C1.60375 13.6988 1.5 12.8615 1.5 12ZM7.23163 8.5H2.09747C3.28149 5.15011 6.11718 2.58044 9.62607 1.76948C9.08014 2.41901 8.62269 3.27958 8.25117 4.26039C7.78484 5.49149 7.43989 6.94951 7.23163 8.5ZM10.5055 2.28296C10.9949 1.74843 11.4955 1.5 12 1.5C12.5045 1.5 13.0051 1.74843 13.4945 2.28296C13.9871 2.82093 14.4357 3.61673 14.8137 4.61461C15.2367 5.73138 15.5581 7.06619 15.759 8.5H8.24099C8.44187 7.06619 8.76331 5.73138 9.18633 4.61461C9.56432 3.61673 10.0129 2.82093 10.5055 2.28296ZM15.7488 4.26039C16.2152 5.49149 16.5601 6.94951 16.7684 8.5H21.9025C20.7185 5.15011 17.8828 2.58044 14.3739 1.76948C14.9199 2.41901 15.3773 3.27958 15.7488 4.26039ZM8.25117 19.7396C8.62269 20.7204 9.08014 21.581 9.62607 22.2305C6.11718 21.4196 3.28149 18.8499 2.09747 15.5H7.23163C7.43989 17.0505 7.78484 18.5085 8.25117 19.7396Z" fill="#353566"/>
<path fill-rule="evenodd" clip-rule="evenodd" d="M18 17C16.8942 17 16 17.8942 16 19C16 20.1058 16.8942 21 18 21C19.1058 21 20 20.1058 20 19C20 17.8942 19.1058 17 18 17ZM17 19C17 18.4465 17.4465 18 18 18C18.5535 18 19 18.4465 19 19C19 19.5535 18.5535 20 18 20C17.4465 20 17 19.5535 17 19Z" fill="#353566"/>
<path fill-rule="evenodd" clip-rule="evenodd" d="M18 14.5C20.2068 14.5 22.3768 15.8473 23.3973 18.4539C23.5342 18.8036 23.5342 19.1964 23.3973 19.5461C22.3768 22.1527 20.2068 23.5 18 23.5C15.7932 23.5 13.6232 22.1527 12.6027 19.5461C12.4658 19.1964 12.4658 18.8036 12.6027 18.4539C13.6232 15.8473 15.7932 14.5 18 14.5ZM18 15.5C16.2242 15.5 14.4115 16.5768 13.5339 18.8184C13.4887 18.9337 13.4887 19.0663 13.5339 19.1816C14.4115 21.4232 16.2242 22.5 18 22.5C19.7758 22.5 21.5885 21.4232 22.4661 19.1816C22.5113 19.0663 22.5113 18.9337 22.4661 18.8184C21.5885 16.5768 19.7758 15.5 18 15.5Z" fill="#353566"/>
</g>
<defs>
<clipPath id="clip0_9001_279861">
<rect width="24" height="24" fill="white"/>
</clipPath>
</defs>
</svg>
