<svg width="24" height="24" viewBox="0 0 24 24" fill="none" xmlns="http://www.w3.org/2000/svg">
<g clip-path="url(#clip0_9001_279721)">
<path opacity="0.4" d="M23 12C23 18.0751 18.0751 23 12 23C5.92487 23 1 18.0751 1 12C1 5.92487 5.92487 1 12 1C18.0751 1 23 5.92487 23 12Z" fill="#353566"/>
<path d="M2.90432 6.75036C4.33907 4.27012 6.75803 2.43208 9.62644 1.76935C9.49012 1.93133 9.36063 2.10483 9.23802 2.28742C8.53326 3.33687 7.9894 4.77611 7.61474 6.38672C7.55218 6.65568 7.7195 6.92443 7.98846 6.987C8.25742 7.04956 8.52618 6.88224 8.58874 6.61328C8.94842 5.06701 9.45618 3.75625 10.0682 2.84492C10.6854 1.92578 11.3442 1.5 11.9999 1.5C12.6556 1.5 13.3144 1.92578 13.9317 2.84493C14.5437 3.75626 15.0514 5.06702 15.4111 6.61328C15.4737 6.88225 15.7424 7.04956 16.0114 6.987C16.2804 6.92443 16.4477 6.65568 16.3851 6.38672C16.0105 4.7761 15.4666 3.33686 14.7618 2.28742C14.6392 2.10483 14.5097 1.93133 14.3734 1.76935C17.2418 2.43209 19.6608 4.27012 21.0955 6.75036C21.2338 6.98939 21.5396 7.07107 21.7787 6.9328C22.0177 6.79453 22.0994 6.48867 21.9611 6.24964C19.9735 2.81358 16.2572 0.5 11.9999 0.5C7.74266 0.5 4.02637 2.81358 2.03872 6.24964C1.90044 6.48867 1.98213 6.79453 2.22116 6.9328C2.46019 7.07107 2.76605 6.98939 2.90432 6.75036Z" fill="#353566"/>
<path d="M16.3002 17.6209C16.367 17.353 16.2039 17.0816 15.936 17.0148C15.668 16.9481 15.3967 17.1111 15.3299 17.3791C14.961 18.8595 14.4564 20.1763 13.8539 21.1104C13.2396 22.0628 12.6047 22.5 11.9999 22.5C11.3442 22.5 10.6854 22.0742 10.0682 21.1551C9.45618 20.2437 8.94842 18.933 8.58874 17.3867C8.52618 17.1178 8.25742 16.9504 7.98846 17.013C7.7195 17.0756 7.55218 17.3443 7.61474 17.6133C7.9894 19.2239 8.53326 20.6631 9.23802 21.7126C9.36063 21.8952 9.49013 22.0687 9.62644 22.2306C6.75803 21.5679 4.33907 19.7299 2.90432 17.2496C2.76605 17.0106 2.46019 16.9289 2.22116 17.0672C1.98213 17.2055 1.90044 17.5113 2.03872 17.7504C4.02637 21.1864 7.74266 23.5 11.9999 23.5C16.2572 23.5 19.9735 21.1864 21.9611 17.7504C22.0994 17.5113 22.0177 17.2055 21.7787 17.0672C21.5396 16.9289 21.2338 17.0106 21.0955 17.2496C19.6408 19.7644 17.1742 21.619 14.2533 22.2577C14.4096 22.0691 14.5566 21.8658 14.6942 21.6525C15.3789 20.5909 15.9173 19.1577 16.3002 17.6209Z" fill="#353566"/>
<path d="M17.4716 9.8336C17.3797 9.5732 17.0941 9.43661 16.8337 9.52852C16.5733 9.62043 16.4367 9.90602 16.5286 10.1664L18.0286 14.4164C18.0992 14.6163 18.2881 14.75 18.5001 14.75C18.7121 14.75 18.9011 14.6163 18.9716 14.4164L20.0001 11.5023L21.0286 14.4164C21.0992 14.6163 21.2881 14.75 21.5001 14.75C21.7121 14.75 21.9011 14.6163 21.9716 14.4164L23.4716 10.1664C23.5635 9.90602 23.4269 9.62043 23.1665 9.52852C22.9061 9.43661 22.6205 9.5732 22.5286 9.8336L21.5001 12.7477L20.4716 9.8336C20.4011 9.6337 20.2121 9.50001 20.0001 9.50001C19.7881 9.50001 19.5992 9.6337 19.5286 9.8336L18.5001 12.7477L17.4716 9.8336Z" fill="#353566"/>
<path d="M8.83373 9.52852C9.09413 9.43661 9.37973 9.5732 9.47163 9.8336L10.5001 12.7477L11.5286 9.8336C11.5992 9.6337 11.7881 9.50001 12.0001 9.50001C12.2121 9.50001 12.4011 9.6337 12.4716 9.8336L13.5001 12.7477L14.5286 9.8336C14.6205 9.5732 14.9061 9.43661 15.1665 9.52852C15.4269 9.62043 15.5635 9.90602 15.4716 10.1664L13.9716 14.4164C13.9011 14.6163 13.7121 14.75 13.5001 14.75C13.2881 14.75 13.0992 14.6163 13.0286 14.4164L12.0001 11.5023L10.9716 14.4164C10.9011 14.6163 10.7121 14.75 10.5001 14.75C10.2881 14.75 10.0992 14.6163 10.0286 14.4164L8.52864 10.1664C8.43674 9.90602 8.57333 9.62043 8.83373 9.52852Z" fill="#353566"/>
<path d="M1.47163 9.8336C1.37973 9.5732 1.09413 9.43661 0.833726 9.52852C0.573327 9.62043 0.436735 9.90602 0.528641 10.1664L2.02864 14.4164C2.0992 14.6163 2.28814 14.75 2.50014 14.75C2.71213 14.75 2.90108 14.6163 2.97163 14.4164L4.00014 11.5023L5.02864 14.4164C5.0992 14.6163 5.28815 14.75 5.50014 14.75C5.71213 14.75 5.90108 14.6163 5.97163 14.4164L7.47163 10.1664C7.56354 9.90602 7.42695 9.62043 7.16655 9.52852C6.90615 9.43661 6.62055 9.5732 6.52864 9.8336L5.50014 12.7477L4.47163 9.8336C4.40108 9.6337 4.21213 9.50001 4.00014 9.50001C3.78815 9.50001 3.5992 9.6337 3.52864 9.8336L2.50014 12.7477L1.47163 9.8336Z" fill="#353566"/>
</g>
<defs>
<clipPath id="clip0_9001_279721">
<rect width="24" height="24" fill="white"/>
</clipPath>
</defs>
</svg>
