<svg width="24" height="24" viewBox="0 0 24 24" fill="none" xmlns="http://www.w3.org/2000/svg">
<path opacity="0.4" d="M21.2099 1.54618C21.3868 1.62799 21.5 1.80512 21.5 2.00001V11.5218C20.4897 10.875 19.2886 10.5 18 10.5C14.4101 10.5 11.5 13.4101 11.5 17C11.5 19.3158 12.711 21.3487 14.5343 22.5H1C0.723858 22.5 0.5 22.2761 0.5 22V19C0.5 18.8533 0.564411 18.714 0.676176 18.619L20.6762 1.61904C20.8247 1.49282 21.033 1.46438 21.2099 1.54618Z" fill="#353566"/>
<path d="M21 1.5C21.2761 1.5 21.5 1.72386 21.5 2V11.5218C21.1842 11.3197 20.8499 11.1441 20.5 10.9982V2C20.5 1.72386 20.7239 1.5 21 1.5Z" fill="#353566"/>
<path d="M15.5 10.9982C15.8211 10.8643 16.1552 10.7554 16.5 10.6739V6.25C16.5 5.97386 16.2761 5.75 16 5.75C15.7239 5.75 15.5 5.97386 15.5 6.25V10.9982Z" fill="#353566"/>
<path d="M11.5 10.5V22C11.5 22.2761 11.2761 22.5 11 22.5C10.7239 22.5 10.5 22.2761 10.5 22V10.5C10.5 10.2239 10.7239 10 11 10C11.2761 10 11.5 10.2239 11.5 10.5Z" fill="#353566"/>
<path d="M6 14.25C6.27614 14.25 6.5 14.4739 6.5 14.75V22C6.5 22.2761 6.27614 22.5 6 22.5C5.72386 22.5 5.5 22.2761 5.5 22V14.75C5.5 14.4739 5.72386 14.25 6 14.25Z" fill="#353566"/>
<path d="M1.5 19C1.5 18.7239 1.27614 18.5 1 18.5C0.723858 18.5 0.5 18.7239 0.5 19V22C0.5 22.2761 0.723858 22.5 1 22.5C1.27614 22.5 1.5 22.2761 1.5 22V19Z" fill="#353566"/>
<path d="M17.25 14.75C17.25 15.1642 17.5858 15.5 18 15.5C18.0032 15.5 18.0065 15.5 18.0097 15.4999C18.0438 15.4995 18.0774 15.4968 18.1103 15.492C18.4722 15.4387 18.7501 15.1268 18.7501 14.75C18.7501 14.3358 18.4143 14 18.0001 14C17.5859 14 17.25 14.3358 17.25 14.75Z" fill="#353566"/>
<path d="M16.5 17C16.5 16.7239 16.7239 16.5 17 16.5H18C18.1326 16.5 18.2598 16.5527 18.3536 16.6464C18.4473 16.7402 18.5 16.8674 18.5 17V19.5C18.5 19.7761 18.2761 20 18 20C17.7239 20 17.5 19.7761 17.5 19.5V17.5H17C16.7239 17.5 16.5 17.2761 16.5 17Z" fill="#353566"/>
<path fill-rule="evenodd" clip-rule="evenodd" d="M18 11.5C14.9624 11.5 12.5 13.9624 12.5 17C12.5 20.0376 14.9624 22.5 18 22.5C21.0376 22.5 23.5 20.0376 23.5 17C23.5 13.9624 21.0376 11.5 18 11.5ZM13.5 17C13.5 14.5147 15.5147 12.5 18 12.5C20.4853 12.5 22.5 14.5147 22.5 17C22.5 19.4853 20.4853 21.5 18 21.5C15.5147 21.5 13.5 19.4853 13.5 17Z" fill="#353566"/>
</svg>
