<svg width="24" height="24" viewBox="0 0 24 24" fill="none" xmlns="http://www.w3.org/2000/svg">
<path opacity="0.4" d="M22.5 2.00001C22.5 1.80512 22.3868 1.62799 22.2099 1.54618C22.033 1.46438 21.8247 1.49282 21.6762 1.61904L1.67618 18.619C1.56441 18.714 1.5 18.8533 1.5 19V22C1.5 22.2761 1.72386 22.5 2 22.5H22C22.2761 22.5 22.5 22.2761 22.5 22V2.00001Z" fill="#353566"/>
<path d="M22 1.5C22.2761 1.5 22.5 1.72386 22.5 2V22C22.5 22.2761 22.2761 22.5 22 22.5C21.7239 22.5 21.5 22.2761 21.5 22V2C21.5 1.72386 21.7239 1.5 22 1.5Z" fill="#353566"/>
<path d="M17 5.75C17.2761 5.75 17.5 5.97386 17.5 6.25V22C17.5 22.2761 17.2761 22.5 17 22.5C16.7239 22.5 16.5 22.2761 16.5 22V6.25C16.5 5.97386 16.7239 5.75 17 5.75Z" fill="#353566"/>
<path d="M12.5 10.5C12.5 10.2239 12.2761 10 12 10C11.7239 10 11.5 10.2239 11.5 10.5V22C11.5 22.2761 11.7239 22.5 12 22.5C12.2761 22.5 12.5 22.2761 12.5 22V10.5Z" fill="#353566"/>
<path d="M7 14.25C7.27614 14.25 7.5 14.4739 7.5 14.75V22C7.5 22.2761 7.27614 22.5 7 22.5C6.72386 22.5 6.5 22.2761 6.5 22V14.75C6.5 14.4739 6.72386 14.25 7 14.25Z" fill="#353566"/>
<path d="M2.5 19C2.5 18.7239 2.27614 18.5 2 18.5C1.72386 18.5 1.5 18.7239 1.5 19V22C1.5 22.2761 1.72386 22.5 2 22.5C2.27614 22.5 2.5 22.2761 2.5 22V19Z" fill="#353566"/>
</svg>
