<svg width="24" height="24" viewBox="0 0 24 24" fill="none" xmlns="http://www.w3.org/2000/svg">
<path opacity="0.4" d="M0.64288 8.15005C3.53525 5.19841 7.56115 3.5 12 3.5C16.4388 3.5 20.4647 5.19841 23.3571 8.15005C23.549 8.34587 23.5474 8.65969 23.3536 8.85355L22.9913 9.21581C21.989 8.15904 20.5715 7.5 19.0001 7.5C15.9616 7.5 13.5 9.96527 13.5 13.002C13.5 14.5329 14.0602 15.8703 14.8606 17.014L12.3412 19.3655C12.1491 19.5448 11.8509 19.5448 11.6588 19.3655L4.16064 12.3653C4.15587 12.3609 4.15117 12.3564 4.14654 12.3518L0.646541 8.85365C0.452589 8.6598 0.450955 8.34591 0.64288 8.15005Z" fill="#353566"/>
<path d="M12 4.5C7.82062 4.5 4.05502 6.09677 1.35712 8.84995C1.16385 9.04718 0.847282 9.05039 0.65005 8.85712C0.452818 8.66385 0.449608 8.34728 0.64288 8.15005C3.53525 5.19841 7.56115 3.5 12 3.5C16.4388 3.5 20.4647 5.19841 23.3571 8.15005C23.5504 8.34728 23.5472 8.66385 23.35 8.85712C23.1527 9.05039 22.8362 9.04718 22.6429 8.84995C19.945 6.09677 16.1794 4.5 12 4.5Z" fill="#353566"/>
<path d="M11.999 9.5C9.23642 9.5 6.72224 10.5844 4.84358 12.3614C4.64296 12.5511 4.3265 12.5423 4.13675 12.3417C3.94699 12.1411 3.9558 11.8246 4.15642 11.6349C6.21163 9.69096 8.96852 8.5 11.999 8.5C13.1293 8.5 14.2215 8.66567 15.2535 8.97429C14.9821 9.2271 14.7362 9.50702 14.5203 9.80972C13.7125 9.60731 12.868 9.5 11.999 9.5Z" fill="#353566"/>
<path d="M13.771 14.8227C13.6619 14.4611 13.5826 14.0859 13.5389 13.6973C13.0553 13.5688 12.5418 13.5 11.9999 13.5C10.3619 13.5 8.98311 14.1286 7.90826 15.135C7.70668 15.3238 7.69628 15.6402 7.88502 15.8417C8.07376 16.0433 8.39017 16.0537 8.59174 15.865C9.49838 15.0161 10.6382 14.5 11.9999 14.5C12.6396 14.5 13.2304 14.6139 13.771 14.8227Z" fill="#353566"/>
<path d="M12 18.25C11.5858 18.25 11.25 18.5858 11.25 19C11.25 19.4142 11.5858 19.75 12 19.75C12.4142 19.75 12.7501 19.4142 12.7501 19C12.7501 18.5858 12.4142 18.25 12 18.25Z" fill="#353566"/>
<path fill-rule="evenodd" clip-rule="evenodd" d="M19 11C17.8954 11 17 11.8954 17 13C17 14.1046 17.8954 15 19 15C20.1046 15 21 14.1046 21 13C21 11.8954 20.1046 11 19 11ZM18 13C18 12.4477 18.4477 12 19 12C19.5523 12 20 12.4477 20 13C20 13.5523 19.5523 14 19 14C18.4477 14 18 13.5523 18 13Z" fill="#353566"/>
<path fill-rule="evenodd" clip-rule="evenodd" d="M14.5 13.002C14.5 10.517 16.5144 8.5 19.0001 8.5C21.4854 8.5 23.5 10.5147 23.5 13C23.5 15.7667 21.3 17.9 19.3 19.4C19.1222 19.5333 18.8778 19.5333 18.7 19.4C16.7001 17.9001 14.5 15.7667 14.5 13.002ZM19.0001 9.5C17.0674 9.5 15.5 11.0687 15.5 13.002C15.5 15.1211 17.1234 16.9113 19 18.3709C20.8765 16.9113 22.5 15.121 22.5 13C22.5 11.067 20.9331 9.5 19.0001 9.5Z" fill="#353566"/>
</svg>
