<svg width="24" height="24" viewBox="0 0 24 24" fill="none" xmlns="http://www.w3.org/2000/svg">
<path opacity="0.4" d="M0.64288 8.15005C3.53525 5.19841 7.56115 3.5 12 3.5C16.4388 3.5 20.4647 5.19841 23.3571 8.15005C23.549 8.34587 23.5474 8.65969 23.3536 8.85355L21.496 10.7111V9.50388C21.496 7.6154 19.1192 6.78236 17.9404 8.25603L13.9444 13.252C12.9638 14.4779 13.7235 16.2733 15.208 16.4773L15.4065 16.5046L12.3412 19.3655C12.1491 19.5448 11.8509 19.5448 11.6588 19.3655L4.16064 12.3653C4.15587 12.3609 4.15117 12.3564 4.14654 12.3518L0.646541 8.85365C0.452589 8.6598 0.450955 8.34591 0.64288 8.15005Z" fill="#353566"/>
<path d="M1.35712 8.84995C4.05502 6.09677 7.82062 4.5 12 4.5C16.1794 4.5 19.945 6.09677 22.6429 8.84995C22.8362 9.04718 23.1527 9.05039 23.35 8.85712C23.5472 8.66385 23.5504 8.34728 23.3571 8.15005C20.4647 5.19841 16.4388 3.5 12 3.5C7.56115 3.5 3.53525 5.19841 0.64288 8.15005C0.449608 8.34728 0.452818 8.66385 0.65005 8.85712C0.847282 9.05039 1.16385 9.04718 1.35712 8.84995Z" fill="#353566"/>
<path d="M4.84358 12.3614C6.72224 10.5844 9.23642 9.5 11.999 9.5C13.5022 9.5 14.9318 9.82106 16.2255 10.4L16.8689 9.59567C15.3899 8.89289 13.7396 8.5 11.999 8.5C8.96852 8.5 6.21163 9.69096 4.15642 11.6349C3.9558 11.8246 3.94699 12.1411 4.13675 12.3417C4.3265 12.5423 4.64296 12.5511 4.84358 12.3614Z" fill="#353566"/>
<path d="M13.6579 13.7303C13.5196 14.0572 13.4782 14.4021 13.5188 14.7334C13.048 14.5816 12.5415 14.5 11.9999 14.5C10.6382 14.5 9.49838 15.0161 8.59174 15.865C8.39017 16.0537 8.07376 16.0433 7.88502 15.8417C7.69628 15.6402 7.70668 15.3238 7.90826 15.135C8.98311 14.1286 10.3619 13.5 11.9999 13.5C12.5865 13.5 13.1398 13.5806 13.6579 13.7303Z" fill="#353566"/>
<path d="M11.25 19C11.25 18.5858 11.5858 18.25 12 18.25C12.4142 18.25 12.7501 18.5858 12.7501 19C12.7501 19.4142 12.4143 19.75 12.0001 19.75C11.5859 19.75 11.25 19.4142 11.25 19Z" fill="#353566"/>
<path fill-rule="evenodd" clip-rule="evenodd" d="M20.5009 9.50068C20.5009 8.55502 19.3101 8.13864 18.72 8.8762L14.72 13.8756C14.196 14.5306 14.663 15.4998 15.5009 15.4998H17.5009V18.4992C17.5009 19.4449 18.6917 19.8613 19.2818 19.1237L23.2818 14.1243C23.8058 13.4693 23.3388 12.5001 22.5009 12.5001H20.5009V9.50068ZM19.5009 9.50068V12.5003C19.5009 13.0527 19.9489 13.5001 20.5009 13.5001H22.5005L18.501 18.499L18.5009 15.4996C18.5009 14.9472 18.0529 14.4998 17.5009 14.4998H15.5013L19.5009 9.50068Z" fill="#353566"/>
</svg>
