<svg width="24" height="24" viewBox="0 0 24 24" fill="none" xmlns="http://www.w3.org/2000/svg">
<g clip-path="url(#clip0_9002_172)">
<path fill-rule="evenodd" clip-rule="evenodd" d="M6.56739 0.249756H15.4326C16.3851 0.24975 17.1456 0.249745 17.7599 0.299932C18.3899 0.351406 18.9318 0.45939 19.4295 0.712979C20.2292 1.12044 20.8793 1.77061 21.2868 2.5703C21.5404 3.06799 21.6484 3.60988 21.6998 4.23989C21.75 4.85413 21.75 5.61465 21.75 6.56706V10.7498C21.75 11.1625 21.4166 11.4976 21.0039 11.4998C20.4098 11.5029 19.817 11.6819 19.3066 12.0369C19.0951 12.184 18.9017 12.3741 18.659 12.6178L12.7483 18.53C12.6076 18.6707 12.4168 18.7498 12.2179 18.7498H6.32902C5.99209 18.7498 5.92607 18.7532 5.86947 18.7646C5.80417 18.7778 5.74093 18.7997 5.6814 18.8296C5.62991 18.8555 5.57594 18.8934 5.31212 19.1004L5.31064 19.1015L2.73337 21.1233C2.54616 21.2701 2.36741 21.4104 2.21281 21.5105C2.06282 21.6076 1.81048 21.7538 1.49299 21.752C1.114 21.7499 0.756431 21.5759 0.520845 21.2791C0.323484 21.0304 0.282815 20.7415 0.26663 20.5636C0.249947 20.3802 0.249974 20.153 0.250002 19.915L0.250005 6.56714C0.25 5.6148 0.249997 4.8541 0.30018 4.23989C0.351654 3.60988 0.459638 3.06799 0.713227 2.5703C1.12069 1.77061 1.77086 1.12044 2.57054 0.712979C3.06824 0.45939 3.61012 0.351406 4.24014 0.299932C4.8544 0.249745 5.61496 0.24975 6.56739 0.249756ZM15.5 8.24982H6.5C6.08579 8.24982 5.75 7.91403 5.75 7.49982C5.75 7.0856 6.08579 6.74982 6.5 6.74982H15.5C15.9142 6.74982 16.25 7.0856 16.25 7.49982C16.25 7.91403 15.9142 8.24982 15.5 8.24982ZM11.5 12.2498L6.5 12.2498C6.08579 12.2498 5.75 11.914 5.75 11.4998C5.75 11.0856 6.08579 10.7498 6.5 10.7498L11.5 10.7498C11.9142 10.7498 12.25 11.0856 12.25 11.4998C12.25 11.914 11.9142 12.2498 11.5 12.2498Z" fill="#353566"/>
<path d="M22.0182 13.0639C21.4176 12.6465 20.6208 12.6467 20.0203 13.0643C19.892 13.1536 19.7659 13.2797 19.5629 13.4828L18.9917 14.0541C18.7965 14.2494 18.7965 14.5659 18.9918 14.7612L21.2398 17.0092C21.4351 17.2045 21.7517 17.2044 21.9469 17.0092L22.5184 16.4376C22.7215 16.2345 22.8477 16.1083 22.9369 15.98C23.3545 15.3793 23.3543 14.5822 22.9365 13.9817C22.8472 13.8534 22.721 13.7272 22.5178 13.5242L22.4758 13.4822C22.2728 13.2793 22.1465 13.1531 22.0182 13.0639Z" fill="#353566"/>
<path d="M18.2849 15.4685C18.0896 15.2732 17.773 15.2732 17.5777 15.4685L13.5975 19.4497C13.5643 19.4829 13.5412 19.5248 13.5307 19.5705L12.7563 22.9439C12.7371 23.0278 12.7623 23.1157 12.8232 23.1766C12.884 23.2374 12.9719 23.2627 13.0558 23.2435L16.433 22.4701C16.4788 22.4596 16.5207 22.4364 16.554 22.4031L20.5329 18.4235C20.7281 18.2282 20.7281 17.9117 20.5328 17.7164L18.2849 15.4685Z" fill="#353566"/>
</g>
<defs>
<clipPath id="clip0_9002_172">
<rect width="24" height="24" fill="white"/>
</clipPath>
</defs>
</svg>
