<svg width="24" height="24" viewBox="0 0 24 24" fill="none" xmlns="http://www.w3.org/2000/svg">
<path d="M12 7.25C13.7949 7.25 15.25 8.70507 15.25 10.5C15.25 11.1258 15.0731 11.7102 14.7667 12.2061L10.2939 7.73332C10.7898 7.42686 11.3742 7.25 12 7.25Z" fill="#353566"/>
<path d="M12 13.75C12.6257 13.75 13.2101 13.5732 13.706 13.2668L9.23323 8.79401C8.92682 9.28988 8.75 9.87429 8.75 10.5C8.75 12.2949 10.2051 13.75 12 13.75Z" fill="#353566"/>
<path fill-rule="evenodd" clip-rule="evenodd" d="M7.56739 1.25H16.4326C17.3851 1.24999 18.1456 1.24999 18.7599 1.30018C19.3899 1.35165 19.9318 1.45963 20.4295 1.71322C21.2292 2.12068 21.8793 2.77085 22.2868 3.57054C22.5404 4.06824 22.6484 4.61012 22.6998 5.24013C22.75 5.85438 22.75 6.61496 22.75 7.56737V13.4327C22.75 14.3851 22.75 15.1456 22.6998 15.7599C22.6484 16.3899 22.5404 16.9318 22.2868 17.4295C21.8793 18.2291 21.2292 18.8793 20.4295 19.2868C19.9318 19.5404 19.3899 19.6483 18.7599 19.6998C18.1456 19.75 17.385 19.75 16.4326 19.75H7.32902C6.99209 19.75 6.92607 19.7534 6.86947 19.7649C6.80417 19.7781 6.74093 19.7999 6.6814 19.8298C6.62991 19.8557 6.57594 19.8937 6.31212 20.1006L6.31064 20.1018L3.73337 22.1235C3.54616 22.2704 3.36741 22.4106 3.21281 22.5107C3.06282 22.6078 2.81048 22.7541 2.49299 22.7523C2.114 22.7502 1.75643 22.5762 1.52085 22.2793C1.32348 22.0306 1.28281 21.7418 1.26663 21.5639C1.24995 21.3804 1.24997 21.1532 1.25 20.9152L1.25 7.56719C1.25 6.61484 1.25 5.85435 1.30018 5.24013C1.35165 4.61012 1.45964 4.06824 1.71323 3.57054C2.12069 2.77085 2.77086 2.12068 3.57054 1.71322C4.06824 1.45963 4.61012 1.35165 5.24014 1.30018C5.8544 1.24999 6.61496 1.24999 7.56739 1.25ZM16.75 10.5C16.75 7.87665 14.6234 5.75 12 5.75C9.37665 5.75 7.25 7.87665 7.25 10.5C7.25 13.1234 9.37665 15.25 12 15.25C14.6234 15.25 16.75 13.1234 16.75 10.5Z" fill="#353566"/>
</svg>
