<svg width="24" height="24" viewBox="0 0 24 24" fill="none" xmlns="http://www.w3.org/2000/svg">
<g clip-path="url(#clip0_9001_311224)">
<g opacity="0.4">
<path d="M4.22182 4.22183C2.23122 6.21244 1 8.96243 1 12C1 18.0751 5.92487 23 12 23C15.0376 23 17.7876 21.7688 19.7782 19.7782L14.382 14.382C14.3077 14.4563 14.2276 14.5247 14.1423 14.5866C13.9496 14.7263 13.7221 14.82 13.2672 15.0073L7.77559 17.2685C7.21827 17.498 6.9396 17.6127 6.76456 17.5557C6.61266 17.5062 6.49356 17.3871 6.44407 17.2352C6.38703 17.0602 6.50177 16.7815 6.73126 16.2242L8.99246 10.7325C9.17979 10.2776 9.27345 10.0501 9.41317 9.85748C9.47504 9.77218 9.54346 9.69203 9.61773 9.61773L4.22182 4.22183Z" fill="#353566"/>
<path d="M15.2292 12.7292L17.2692 7.77493C17.4987 7.21758 17.6134 6.93891 17.5564 6.76386C17.5069 6.61196 17.3878 6.49286 17.2359 6.44337C17.0608 6.38633 16.7822 6.50108 16.2248 6.73058L11.2706 8.7706L5.57234 3.07234C7.38039 1.76831 9.60047 1 12 1C18.0751 1 23 5.92487 23 12C23 14.3995 22.2317 16.6196 20.9277 18.4277L15.2292 12.7292Z" fill="#353566"/>
</g>
<path fill-rule="evenodd" clip-rule="evenodd" d="M19.7705 20.4776C17.724 22.3545 14.9958 23.5 12 23.5C5.64873 23.5 0.5 18.3513 0.5 12C0.5 9.00424 1.64549 6.27603 3.52236 4.22947L1.64645 2.35355C1.45118 2.15829 1.45118 1.84171 1.64645 1.64645C1.84171 1.45118 2.15829 1.45118 2.35355 1.64645L22.3536 21.6464C22.5488 21.8417 22.5488 22.1583 22.3536 22.3536C22.1583 22.5488 21.8417 22.5488 21.6464 22.3536L19.7705 20.4776ZM4.2302 4.9373C2.53395 6.80228 1.5 9.28039 1.5 12C1.5 17.799 6.20101 22.5 12 22.5C14.7196 22.5 17.1977 21.4661 19.0627 19.7698L14.3459 15.053C14.1244 15.1955 13.8654 15.302 13.5105 15.448L7.94486 17.7397C7.68424 17.847 7.45806 17.9402 7.27546 17.9971C7.10341 18.0507 6.85717 18.1119 6.60963 18.0313C6.30583 17.9323 6.06764 17.6941 5.96865 17.3903C5.88799 17.1428 5.94922 16.8965 6.00284 16.7245C6.05974 16.5419 6.15289 16.3157 6.26021 16.0551L8.55191 10.4894C8.69792 10.1345 8.80444 9.87554 8.94696 9.65407L4.2302 4.9373ZM9.68248 10.3896C9.62677 10.5078 9.55834 10.6716 9.45478 10.9231L7.19357 16.4147C7.07506 16.7025 6.9996 16.8871 6.95755 17.022C6.95427 17.0325 6.95138 17.0422 6.94883 17.0511C6.95773 17.0485 6.96742 17.0456 6.97793 17.0424C7.11285 17.0003 7.29738 16.9249 7.5852 16.8063L13.0768 14.5451C13.3283 14.4416 13.4921 14.3732 13.6103 14.3174L9.68248 10.3896Z" fill="#353566"/>
<path d="M10.8875 8.38778L11.6536 9.15381L16.4152 7.19311C16.703 7.07459 16.8875 6.99911 17.0225 6.95706C17.033 6.95379 17.0427 6.9509 17.0516 6.94835C17.049 6.95724 17.0461 6.96693 17.0429 6.97745C17.0008 7.11237 16.9253 7.29691 16.8068 7.58474L14.8461 12.3464L15.6121 13.1124L17.7402 7.94443C17.8475 7.68388 17.9407 7.45755 17.9976 7.27499C18.0512 7.10294 18.1124 6.85669 18.0318 6.60914C17.9328 6.30535 17.6946 6.06715 17.3908 5.96816C17.1432 5.8875 16.897 5.94873 16.7249 6.00236C16.5423 6.05927 16.3161 6.15242 16.0555 6.25975L10.8875 8.38778Z" fill="#353566"/>
<path d="M22.5 12C22.5 14.2613 21.7852 16.3556 20.5691 18.0694L21.2855 18.7858C22.6779 16.8837 23.5 14.5379 23.5 12C23.5 5.64873 18.3513 0.5 12 0.5C9.46214 0.5 7.1163 1.32208 5.21422 2.71446L5.93061 3.43085C7.64435 2.21483 9.7387 1.5 12 1.5C17.799 1.5 22.5 6.20101 22.5 12Z" fill="#353566"/>
</g>
<defs>
<clipPath id="clip0_9001_311224">
<rect width="24" height="24" fill="white"/>
</clipPath>
</defs>
</svg>
