<svg width="24" height="24" viewBox="0 0 24 24" fill="none" xmlns="http://www.w3.org/2000/svg">
<path opacity="0.4" d="M19.9999 10C19.9999 14 17.2999 16.91 15.4999 18.91C14.8474 19.635 13.3012 21.0698 12.5002 21.8039C12.2165 22.0641 11.7835 22.0641 11.4997 21.804C10.6987 21.0698 9.15249 19.6351 8.49994 18.91C6.61047 16.8106 4 14 4 10C4 5.58175 7.58172 2 12 2C16.4182 2 19.9999 5.58176 19.9999 10Z" fill="#353566"/>
<path d="M15.8535 8.10355C16.0488 7.90829 16.0488 7.59171 15.8535 7.39645C15.6582 7.20118 15.3416 7.20118 15.1464 7.39645L10.9999 11.5429L8.85349 9.39645C8.65823 9.20118 8.34165 9.20118 8.14639 9.39645C7.95112 9.59171 7.95112 9.90829 8.14639 10.1036L10.6464 12.6036C10.8416 12.7988 11.1582 12.7988 11.3535 12.6036L15.8535 8.10355Z" fill="#353566"/>
<path fill-rule="evenodd" clip-rule="evenodd" d="M12 1.5C7.30558 1.5 3.5 5.30561 3.5 10C3.5 14.1095 6.1173 17.0133 7.97871 19.0784L8.12829 19.2445C8.8006 19.9915 10.3677 21.4446 11.1618 22.1725C11.6368 22.6079 12.3632 22.6079 12.8381 22.1725C13.6322 21.4446 15.1993 19.9915 15.8716 19.2445L16.0147 19.0856C17.797 17.1085 20.4999 14.1099 20.4999 10C20.4999 5.30562 16.6944 1.5 12 1.5ZM4.5 10C4.5 5.85789 7.85787 2.5 12 2.5C16.1421 2.5 19.4999 5.8579 19.4999 10C19.4999 13.7203 17.0296 16.4639 15.2129 18.4815L15.1283 18.5755C14.4955 19.2786 12.9701 20.695 12.1624 21.4354C12.0698 21.5203 11.9302 21.5203 11.8375 21.4354C11.0298 20.695 9.50437 19.2786 8.87159 18.5755L8.78201 18.476C6.88396 16.368 4.5 13.7203 4.5 10Z" fill="#353566"/>
</svg>
