<svg width="24" height="24" viewBox="0 0 24 24" fill="none" xmlns="http://www.w3.org/2000/svg">
<path fill-rule="evenodd" clip-rule="evenodd" d="M5 6.5C5 3.73858 7.23858 1.5 10 1.5C12.7614 1.5 15 3.73858 15 6.5C15 9.26142 12.7614 11.5 10 11.5C7.23858 11.5 5 9.26142 5 6.5ZM10 2.5C7.79086 2.5 6 4.29086 6 6.5C6 8.70914 7.79086 10.5 10 10.5C12.2091 10.5 14 8.70914 14 6.5C14 4.29086 12.2091 2.5 10 2.5Z" fill="#353566"/>
<path d="M9.99888 14.5C6.71192 14.5 3.44357 16.1854 2.55444 19.3979C2.49603 19.609 2.4882 19.8723 2.51409 20.143C2.58255 20.8587 3.14846 21.4247 3.86249 21.4932C3.92772 21.4994 4.011 21.5 4.24811 21.5H10.0702C10.3463 21.5 10.5702 21.7239 10.5702 22C10.5702 22.2761 10.3463 22.5 10.0702 22.5L4.21999 22.5C4.02153 22.5 3.88634 22.5 3.76705 22.4886C2.57541 22.3744 1.63265 21.4301 1.51863 20.2382C1.48675 19.9049 1.48693 19.506 1.59067 19.1312C2.64161 15.3341 6.44163 13.5 9.99888 13.5L10.0732 13.5002C10.3493 13.5019 10.5718 13.7272 10.5701 14.0033C10.5684 14.2794 10.3431 14.5019 10.067 14.5002L9.99888 14.5Z" fill="#353566"/>
<path d="M16.2499 14.75C16.2499 15.1642 16.5857 15.5 16.9999 15.5C17.0031 15.5 17.0064 15.5 17.0096 15.4999C17.0254 15.4997 17.0411 15.499 17.0567 15.4979C17.4445 15.4689 17.75 15.1451 17.75 14.75C17.75 14.3358 17.4143 14 17 14C16.5858 14 16.2499 14.3358 16.2499 14.75Z" fill="#353566"/>
<path d="M15.4999 17C15.4999 16.7239 15.7238 16.5 15.9999 16.5H16.9999C17.1325 16.5 17.2597 16.5527 17.3535 16.6464C17.4473 16.7402 17.4999 16.8674 17.4999 17V19.5C17.4999 19.7761 17.2761 20 16.9999 20C16.7238 20 16.4999 19.7761 16.4999 19.5V17.5H15.9999C15.7238 17.5 15.4999 17.2761 15.4999 17Z" fill="#353566"/>
<path fill-rule="evenodd" clip-rule="evenodd" d="M16.9999 11.5C13.9624 11.5 11.4999 13.9624 11.4999 17C11.4999 20.0376 13.9624 22.5 16.9999 22.5C20.0375 22.5 22.4999 20.0376 22.4999 17C22.4999 13.9624 20.0375 11.5 16.9999 11.5ZM12.4999 17C12.4999 14.5147 14.5147 12.5 16.9999 12.5C19.4852 12.5 21.4999 14.5147 21.4999 17C21.4999 19.4853 19.4852 21.5 16.9999 21.5C14.5147 21.5 12.4999 19.4853 12.4999 17Z" fill="#353566"/>
</svg>
