<svg width="24" height="24" viewBox="0 0 24 24" fill="none" xmlns="http://www.w3.org/2000/svg">
<path fill-rule="evenodd" clip-rule="evenodd" d="M5.00002 6.5C5.00002 3.73858 7.23859 1.5 10 1.5C12.7614 1.5 15 3.73858 15 6.5C15 9.26142 12.7614 11.5 10 11.5C7.23859 11.5 5.00002 9.26142 5.00002 6.5ZM10 2.5C7.79088 2.5 6.00002 4.29086 6.00002 6.5C6.00002 8.70914 7.79088 10.5 10 10.5C12.2092 10.5 14 8.70914 14 6.5C14 4.29086 12.2092 2.5 10 2.5Z" fill="#353566"/>
<path d="M9.99888 14.5C6.71192 14.5 3.44357 16.1854 2.55444 19.3979C2.49603 19.609 2.4882 19.8723 2.51409 20.143C2.58255 20.8587 3.14846 21.4247 3.86249 21.4932C3.92772 21.4994 4.011 21.5 4.24811 21.5H11.0296C11.3057 21.5 11.5296 21.7239 11.5296 22C11.5296 22.2761 11.3057 22.5 11.0296 22.5L4.21999 22.5C4.02153 22.5 3.88634 22.5 3.76705 22.4886C2.57541 22.3744 1.63265 21.4301 1.51863 20.2382C1.48675 19.9049 1.48693 19.506 1.59067 19.1312C2.64161 15.3341 6.44163 13.5 9.99888 13.5C12.0028 13.5 13.8166 14.0002 15.2714 14.9381C15.5035 15.0877 15.5703 15.3972 15.4207 15.6293C15.271 15.8614 14.9616 15.9282 14.7295 15.7786C13.4581 14.9589 11.8383 14.5 9.99888 14.5Z" fill="#353566"/>
<path fill-rule="evenodd" clip-rule="evenodd" d="M21.6009 15.22L18.5005 16.1243V20.4999C18.5005 21.0643 18.2114 21.5881 17.7146 21.9607C17.2232 22.3292 16.6009 22.5001 16.0002 22.5001C15.3995 22.5001 14.7772 22.3292 14.2858 21.9607C13.789 21.5881 13.5 21.0643 13.5 20.4999C13.5 19.9355 13.789 19.4117 14.2858 19.0391C14.7772 18.6705 15.3995 18.4997 16.0002 18.4997C16.5167 18.4997 17.049 18.6259 17.5005 18.8956V13.709C17.5005 13.0423 17.9405 12.4556 18.5806 12.2689L21.0609 11.5455C21.7809 11.3355 22.501 11.8755 22.501 12.6255V14.0199C22.501 14.5755 22.1343 15.0644 21.6009 15.22ZM21.3409 12.5055C21.4209 12.4821 21.501 12.5422 21.501 12.6255V14.0199C21.501 14.131 21.4276 14.2288 21.3209 14.26L18.5005 15.0826V13.709C18.5005 13.4867 18.6472 13.2911 18.8606 13.2289L21.3409 12.5055ZM17.1146 19.8391C17.3987 20.0522 17.5003 20.296 17.5005 20.4993C17.5005 20.7028 17.399 20.9474 17.1146 21.1607C16.8249 21.378 16.4233 21.5001 16.0002 21.5001C15.5771 21.5001 15.1755 21.378 14.8858 21.1607C14.6014 20.9474 14.5 20.7033 14.5 20.4999C14.5 20.2964 14.6014 20.0524 14.8858 19.8391C15.1755 19.6218 15.5771 19.4997 16.0002 19.4997C16.4233 19.4997 16.8249 19.6218 17.1146 19.8391Z" fill="#353566"/>
</svg>
