<svg width="24" height="24" viewBox="0 0 24 24" fill="none" xmlns="http://www.w3.org/2000/svg">
<path fill-rule="evenodd" clip-rule="evenodd" d="M5.00012 6.5C5.00012 3.73858 7.2387 1.5 10.0001 1.5C12.7615 1.5 15.0001 3.73858 15.0001 6.5C15.0001 9.26142 12.7615 11.5 10.0001 11.5C7.2387 11.5 5.00012 9.26142 5.00012 6.5ZM10.0001 2.5C7.79098 2.5 6.00012 4.29086 6.00012 6.5C6.00012 8.70914 7.79098 10.5 10.0001 10.5C12.2093 10.5 14.0001 8.70914 14.0001 6.5C14.0001 4.29086 12.2093 2.5 10.0001 2.5Z" fill="#353566"/>
<path d="M10.0773 13.9872C10.0895 14.2631 9.87569 14.4966 9.59982 14.5088C5.94996 14.6701 2.93449 16.9945 2.49504 20.0707C2.45599 20.344 2.20272 20.534 1.92935 20.4949C1.65599 20.4559 1.46604 20.2026 1.50509 19.9292C2.03024 16.2532 5.56218 13.6863 9.55567 13.5098C9.83154 13.4976 10.0651 13.7113 10.0773 13.9872Z" fill="#353566"/>
<path fill-rule="evenodd" clip-rule="evenodd" d="M22.5001 17C22.5001 13.9624 20.0377 11.5 17.0001 11.5C13.9626 11.5 11.5001 13.9624 11.5001 17C11.5001 20.0376 13.9626 22.5 17.0001 22.5C20.0377 22.5 22.5001 20.0376 22.5001 17ZM17.0001 12.5C19.4854 12.5 21.5001 14.5147 21.5001 17C21.5001 18.0625 21.1319 19.039 20.5161 19.8088L14.1913 13.484C14.9611 12.8682 15.9376 12.5 17.0001 12.5ZM17.0001 21.5C18.0626 21.5 19.0391 21.1318 19.809 20.5159L13.4842 14.1912C12.8684 14.961 12.5001 15.9375 12.5001 17C12.5001 19.4853 14.5148 21.5 17.0001 21.5Z" fill="#353566"/>
</svg>
