<svg width="24" height="24" viewBox="0 0 24 24" fill="none" xmlns="http://www.w3.org/2000/svg">
<g clip-path="url(#clip0_9002_6144)">
<path fill-rule="evenodd" clip-rule="evenodd" d="M1.35355 0.646447C1.15829 0.451184 0.841709 0.451184 0.646447 0.646447C0.451184 0.841709 0.451184 1.15829 0.646447 1.35355L4.35549 5.0626C3.97115 5.70177 3.75 6.45058 3.75 7.25004C3.75 9.59726 5.65279 11.5001 8 11.5001C8.79946 11.5001 9.54827 11.2789 10.1875 10.8946L22.6464 23.3536C22.8417 23.5488 23.1583 23.5488 23.3536 23.3536C23.5488 23.1583 23.5488 22.8417 23.3536 22.6464L10.6089 9.90181C10.6052 9.898 10.6015 9.89426 10.5977 9.89059L5.35946 4.65235C5.35579 4.64856 5.35204 4.64482 5.34823 4.64112L1.35355 0.646447ZM5.09128 5.79839C4.87284 6.2351 4.75 6.72786 4.75 7.25004C4.75 9.04499 6.20508 10.5001 8 10.5001C8.52219 10.5001 9.01495 10.3772 9.45167 10.1588L5.09128 5.79839Z" fill="#353566"/>
<path d="M8 4C7.86139 4 7.72503 4.00865 7.5914 4.02539C7.3174 4.0597 7.06745 3.8654 7.03314 3.5914C6.99882 3.3174 7.19312 3.06745 7.46713 3.03314C7.64188 3.01125 7.81975 3 8 3C10.3472 3 12.25 4.90281 12.25 7.25004C12.25 7.43028 12.2388 7.60813 12.2169 7.78287C12.1826 8.05687 11.9326 8.25118 11.6586 8.21687C11.3846 8.18256 11.1903 7.93262 11.2246 7.65862C11.2414 7.52499 11.25 7.38864 11.25 7.25004C11.25 5.45509 9.79492 4 8 4Z" fill="#353566"/>
<path d="M17.5247 13.9791C17.5488 13.704 17.7914 13.5006 18.0665 13.5247C21.2117 13.8009 23.4999 16.3589 23.4999 19C23.4999 19.2761 23.2761 19.5 22.9999 19.5C22.7238 19.5 22.4999 19.2761 22.4999 19C22.4999 16.9192 20.6506 14.7555 17.979 14.5209C17.7039 14.4967 17.5005 14.2541 17.5247 13.9791Z" fill="#353566"/>
<path d="M1.5 20.5C1.5 17.8223 4.1807 15 8.00041 15C11.82 15 14.5 17.8223 14.5 20.5C14.5 20.7761 14.7239 21 15 21C15.2761 21 15.5 20.7761 15.5 20.5C15.5 17.1777 12.2753 14 8.00041 14C3.72555 14 0.5 17.1777 0.5 20.5C0.5 20.7761 0.723858 21 1 21C1.27614 21 1.5 20.7761 1.5 20.5Z" fill="#353566"/>
<path fill-rule="evenodd" clip-rule="evenodd" d="M14.25 8.25C14.25 6.45508 15.705 5 17.5 5C19.2949 5 20.7499 6.45508 20.7499 8.25C20.7499 10.0449 19.2949 11.5 17.5 11.5C15.705 11.5 14.25 10.0449 14.25 8.25ZM17.5 6C16.2573 6 15.25 7.00735 15.25 8.25C15.25 9.49265 16.2573 10.5 17.5 10.5C18.7426 10.5 19.7499 9.49265 19.7499 8.25C19.7499 7.00735 18.7426 6 17.5 6Z" fill="#353566"/>
</g>
<defs>
<clipPath id="clip0_9002_6144">
<rect width="24" height="24" fill="white"/>
</clipPath>
</defs>
</svg>
