<svg width="24" height="24" viewBox="0 0 24 24" fill="none" xmlns="http://www.w3.org/2000/svg">
<path d="M1.5 8.47438C1.5 5.20946 3.70396 2.5 6.89333 2.5C8.7073 2.5 9.90462 3.47766 10.618 4.32255C10.713 4.43508 10.8527 4.5 11 4.5C11.1473 4.5 11.287 4.43508 11.382 4.32255C12.0954 3.47766 13.2927 2.5 15.1067 2.5C18.296 2.5 20.5 5.20946 20.5 8.47438C20.5 8.82029 20.4781 9.15969 20.4365 9.4925C20.4022 9.7665 20.5965 10.0164 20.8705 10.0507C21.1445 10.085 21.3944 9.8907 21.4287 9.61669C21.4755 9.24342 21.5 8.86254 21.5 8.47438C21.5 4.79054 18.9729 1.5 15.1067 1.5C13.1987 1.5 11.8582 2.3934 11 3.25953C10.1418 2.3934 8.80129 1.5 6.89333 1.5C3.02715 1.5 0.5 4.79054 0.5 8.47438C0.5 12.0323 2.55521 14.9362 4.79091 17.0211C7.03026 19.1094 9.52355 20.446 10.5726 20.8734C10.8283 20.9775 11.1201 20.8547 11.2243 20.5989C11.3284 20.3432 11.2056 20.0514 10.9498 19.9472C10.0024 19.5613 7.61505 18.2874 5.47292 16.2897C3.32714 14.2887 1.5 11.6313 1.5 8.47438Z" fill="#353566"/>
<path d="M20.3536 15.3964C20.5488 15.5917 20.5488 15.9083 20.3536 16.1036L17.8536 18.6036C17.7595 18.6976 17.6319 18.7503 17.499 18.75C17.366 18.7497 17.2386 18.6965 17.145 18.6021L15.645 17.0898C15.4505 16.8937 15.4518 16.5771 15.6479 16.3827C15.844 16.1882 16.1605 16.1895 16.355 16.3856L17.5015 17.5414L19.6464 15.3964C19.8417 15.2012 20.1583 15.2012 20.3536 15.3964Z" fill="#353566"/>
<path fill-rule="evenodd" clip-rule="evenodd" d="M12.5 17C12.5 13.9624 14.9624 11.5 18 11.5C21.0376 11.5 23.5 13.9624 23.5 17C23.5 20.0376 21.0376 22.5 18 22.5C14.9624 22.5 12.5 20.0376 12.5 17ZM18 12.5C15.5147 12.5 13.5 14.5147 13.5 17C13.5 19.4853 15.5147 21.5 18 21.5C20.4853 21.5 22.5 19.4853 22.5 17C22.5 14.5147 20.4853 12.5 18 12.5Z" fill="#353566"/>
</svg>
