<svg width="24" height="24" viewBox="0 0 24 24" fill="none" xmlns="http://www.w3.org/2000/svg">
<path d="M9.42366 2.48889C10.06 1.16875 11.9401 1.16874 12.5765 2.48888L14.7073 6.90919C14.7805 7.06123 14.9256 7.16604 15.093 7.18788L19.9758 7.82503C20.9345 7.95013 21.5099 8.76841 21.5007 9.58755C21.4976 9.86367 21.2712 10.085 20.9951 10.0819C20.7189 10.0788 20.4976 9.8524 20.5007 9.57627C20.5049 9.20985 20.2512 8.86944 19.8464 8.81662L14.9636 8.17947C14.4615 8.11395 14.0263 7.79954 13.8064 7.34342L11.6757 2.92311C11.4029 2.35734 10.5972 2.35734 10.3245 2.92311L8.1937 7.34342C7.97383 7.79954 7.53867 8.11395 7.03658 8.17947L2.15376 8.81662C1.52602 8.89853 1.27587 9.67335 1.73721 10.1069L5.29399 13.4492C5.66669 13.7994 5.83527 14.3154 5.74123 14.8181L4.84578 19.6051C4.72994 20.2243 5.38299 20.7018 5.93796 20.4037L9.94263 18.2521C10.1859 18.1214 10.489 18.2127 10.6197 18.4559C10.7504 18.6992 10.6592 19.0023 10.4159 19.133L6.41124 21.2846C5.11631 21.9803 3.59255 20.8661 3.86283 19.4212L4.75828 14.6342C4.78963 14.4666 4.73343 14.2946 4.6092 14.1779L1.05242 10.8356C-0.0240422 9.82406 0.559628 8.01616 2.02437 7.82503L6.90719 7.18788C7.07455 7.16604 7.2196 7.06123 7.29289 6.90919L9.42366 2.48889Z" fill="#353566"/>
<path d="M20.3534 15.3536C20.5487 15.1583 20.5487 14.8417 20.3534 14.6464C20.1582 14.4512 19.8416 14.4512 19.6463 14.6464L15.6463 18.6464C15.4511 18.8417 15.4511 19.1583 15.6463 19.3536C15.8416 19.5488 16.1582 19.5488 16.3534 19.3536L20.3534 15.3536Z" fill="#353566"/>
<path d="M15.7499 15.5C15.7499 15.0858 16.0857 14.75 16.4999 14.75C16.9141 14.75 17.25 15.0858 17.25 15.5C17.25 15.9142 16.9142 16.25 16.5 16.25C16.0858 16.25 15.7499 15.9142 15.7499 15.5Z" fill="#353566"/>
<path d="M19.4999 17.75C19.0857 17.75 18.7499 18.0858 18.7499 18.5C18.7499 18.9142 19.0857 19.25 19.4999 19.25C19.9141 19.25 20.25 18.9142 20.25 18.5C20.25 18.0858 19.9141 17.75 19.4999 17.75Z" fill="#353566"/>
<path fill-rule="evenodd" clip-rule="evenodd" d="M12.4999 17C12.4999 13.9624 14.9623 11.5 17.9999 11.5C21.0374 11.5 23.4999 13.9624 23.4999 17C23.4999 20.0376 21.0374 22.5 17.9999 22.5C14.9623 22.5 12.4999 20.0376 12.4999 17ZM17.9999 12.5C15.5146 12.5 13.4999 14.5147 13.4999 17C13.4999 19.4853 15.5146 21.5 17.9999 21.5C20.4852 21.5 22.4999 19.4853 22.4999 17C22.4999 14.5147 20.4852 12.5 17.9999 12.5Z" fill="#353566"/>
</svg>
