<svg width="24" height="24" viewBox="0 0 24 24" fill="none" xmlns="http://www.w3.org/2000/svg">
<path d="M12.5767 2.48864C11.9404 1.1685 10.0603 1.1685 9.42391 2.48864L7.29314 6.90895C7.21985 7.06099 7.0748 7.16579 6.90743 7.18763L2.02461 7.82478C0.559873 8.01591 -0.023798 9.82382 1.05266 10.8354L4.60945 14.1777C4.73368 14.2944 4.78987 14.4664 4.75853 14.634L3.86307 19.421C3.59279 20.8659 5.11656 21.9801 6.41148 21.2843L10.7637 18.9461C10.9114 18.8667 11.0892 18.8667 11.237 18.9461L12.0673 19.3922C12.3105 19.5229 12.6137 19.4316 12.7444 19.1883C12.8751 18.9451 12.7838 18.6419 12.5406 18.5113L11.7102 18.0651C11.2669 17.827 10.7337 17.827 10.2904 18.0651L5.9382 20.4034C5.38323 20.7016 4.73019 20.2241 4.84603 19.6048L5.74148 14.8178C5.83551 14.3151 5.66694 13.7991 5.29424 13.4489L1.73746 10.1066C1.27611 9.6731 1.52626 8.89829 2.15401 8.81637L7.03682 8.17922C7.53892 8.11371 7.97407 7.7993 8.19394 7.34317L10.3247 2.92287C10.5974 2.35709 11.4032 2.35709 11.6759 2.92287L13.8067 7.34317C14.0266 7.7993 14.4617 8.11371 14.9638 8.17922L19.8466 8.81637C20.1807 8.85996 20.4068 9.09442 20.4781 9.38167C20.5447 9.64967 20.8159 9.81299 21.0839 9.74645C21.3519 9.6799 21.5152 9.4087 21.4487 9.14069C21.2878 8.49289 20.7565 7.92663 19.976 7.82478L15.0932 7.18763C14.9258 7.16579 14.7808 7.06099 14.7075 6.90895L12.5767 2.48864Z" fill="#353566"/>
<path fill-rule="evenodd" clip-rule="evenodd" d="M22.6011 15.2197L19.5006 16.124V20.4996C19.5006 21.064 19.2115 21.5878 18.7148 21.9604C18.2233 22.329 17.6011 22.4998 17.0004 22.4998C16.3996 22.4998 15.7774 22.329 15.286 21.9604C14.7892 21.5878 14.5001 21.064 14.5001 20.4996C14.5001 19.9352 14.7892 19.4114 15.286 19.0388C15.7774 18.6703 16.3996 18.4994 17.0004 18.4994C17.5168 18.4994 18.0492 18.6257 18.5006 18.8953V13.7088C18.5006 13.042 18.9407 12.4553 19.5807 12.2686L22.061 11.5452C22.7811 11.3352 23.5011 11.8752 23.5011 12.6253V14.0196C23.5011 14.5752 23.1344 15.0641 22.6011 15.2197ZM22.341 12.5052C22.4211 12.4819 22.5011 12.5419 22.5011 12.6253V14.0196C22.5011 14.1308 22.4278 14.2286 22.3211 14.2597L19.5006 15.0823V13.7088C19.5006 13.4865 19.6473 13.2909 19.8607 13.2286L22.341 12.5052ZM18.1148 19.8388C18.3989 20.0519 18.5004 20.2957 18.5006 20.4991C18.5006 20.7025 18.3991 20.9471 18.1148 21.1604C17.825 21.3777 17.4235 21.4998 17.0004 21.4998C16.5773 21.4998 16.1757 21.3777 15.886 21.1604C15.6016 20.9471 15.5001 20.7031 15.5001 20.4996C15.5001 20.2962 15.6016 20.0521 15.886 19.8388C16.1757 19.6215 16.5773 19.4994 17.0004 19.4994C17.4235 19.4994 17.825 19.6215 18.1148 19.8388Z" fill="#353566"/>
</svg>
