<svg width="24" height="24" viewBox="0 0 24 24" fill="none" xmlns="http://www.w3.org/2000/svg">
<path d="M4.20011 1.60003C3.9792 1.76571 3.93443 2.07912 4.10011 2.30003L5.60011 4.30003C5.7658 4.52094 6.0792 4.56572 6.30011 4.40003C6.52103 4.23434 6.5658 3.92094 6.40011 3.70003L4.90011 1.70003C4.73443 1.47912 4.42103 1.43434 4.20011 1.60003Z" fill="#353566"/>
<path d="M19.9001 2.30003C20.0658 2.07912 20.021 1.76571 19.8001 1.60003C19.5792 1.43434 19.2658 1.47912 19.1001 1.70003L17.6001 3.70003C17.4344 3.92094 17.4792 4.23434 17.7001 4.40003C17.921 4.56572 18.2344 4.52094 18.4001 4.30003L19.9001 2.30003Z" fill="#353566"/>
<path fill-rule="evenodd" clip-rule="evenodd" d="M13.4638 2.918C12.873 1.69221 11.1273 1.69221 10.5364 2.918L8.61882 6.89599C8.5602 7.0176 8.44417 7.10143 8.3103 7.1189L3.91608 7.69229C2.55603 7.86976 2.01408 9.54845 3.0136 10.4877L6.21448 13.4955C6.31385 13.5889 6.35879 13.7265 6.33372 13.8605L5.52787 18.1685C5.27691 19.5102 6.69176 20.5447 7.89414 19.8987L11.8108 17.7944C11.929 17.7309 12.0712 17.7309 12.1894 17.7944L16.1061 19.8987C17.3085 20.5447 18.7233 19.5102 18.4723 18.1685L17.6665 13.8605C17.6414 13.7265 17.6864 13.5889 17.7857 13.4955L20.9866 10.4877C21.9861 9.54845 21.4442 7.86976 20.0841 7.69229L15.6899 7.1189C15.556 7.10143 15.44 7.0176 15.3814 6.89599L13.4638 2.918ZM11.4372 3.35222C11.6644 2.8808 12.3358 2.8808 12.563 3.35222L14.4806 7.33021C14.6858 7.75591 15.0919 8.04935 15.5605 8.11049L19.9547 8.68389C20.4778 8.75214 20.6862 9.39773 20.3018 9.75896L17.101 12.7668C16.7531 13.0937 16.5958 13.5752 16.6835 14.0444L17.4894 18.3524C17.5859 18.8684 17.0418 19.2662 16.5794 19.0178L12.6627 16.9135C12.2489 16.6912 11.7513 16.6912 11.3375 16.9135L7.42085 19.0178C6.95844 19.2662 6.41431 18.8684 6.51082 18.3524L7.31667 14.0444C7.40443 13.5752 7.2471 13.0937 6.89927 12.7668L3.69839 9.75896C3.31399 9.39774 3.52242 8.75214 4.04547 8.68389L8.43969 8.11049C8.9083 8.04934 9.31442 7.75591 9.51962 7.33021L11.4372 3.35222Z" fill="#353566"/>
<path d="M23.4473 16.2236C23.5708 15.9766 23.4707 15.6763 23.2237 15.5528L21.2237 14.5528C20.9767 14.4293 20.6764 14.5294 20.5529 14.7764C20.4294 15.0234 20.5295 15.3237 20.7765 15.4472L22.7765 16.4472C23.0235 16.5707 23.3238 16.4706 23.4473 16.2236Z" fill="#353566"/>
<path d="M0.776503 15.5528C0.529513 15.6763 0.429401 15.9766 0.552896 16.2236C0.676391 16.4706 0.976727 16.5707 1.22372 16.4472L3.22372 15.4472C3.47071 15.3237 3.57082 15.0234 3.44732 14.7764C3.32383 14.5294 3.02349 14.4293 2.7765 14.5528L0.776503 15.5528Z" fill="#353566"/>
<path d="M11.5001 21C11.5001 20.7239 11.724 20.5 12.0001 20.5C12.2763 20.5 12.5001 20.7239 12.5001 21V23C12.5001 23.2761 12.2763 23.5 12.0001 23.5C11.724 23.5 11.5001 23.2761 11.5001 23V21Z" fill="#353566"/>
</svg>
