<svg width="24" height="24" viewBox="0 0 24 24" fill="none" xmlns="http://www.w3.org/2000/svg">
<path d="M12.5765 2.48888C11.9401 1.16874 10.06 1.16875 9.42366 2.48889L7.29289 6.90919C7.2196 7.06123 7.07455 7.16604 6.90719 7.18788L2.02437 7.82503C0.559628 8.01616 -0.0240422 9.82406 1.05242 10.8356L4.6092 14.1779C4.73343 14.2946 4.78963 14.4666 4.75828 14.6342L3.86283 19.4212C3.59255 20.8661 5.11631 21.9803 6.41124 21.2846L10.5393 19.0667C10.7826 18.936 10.8738 18.6329 10.7432 18.3896C10.6125 18.1463 10.3093 18.0551 10.0661 18.1858L5.93796 20.4037C5.38299 20.7018 4.72994 20.2243 4.84578 19.6051L5.74123 14.8181C5.83527 14.3154 5.66669 13.7994 5.29399 13.4492L1.73721 10.1069C1.27587 9.67335 1.52602 8.89853 2.15376 8.81662L7.03658 8.17947C7.53867 8.11395 7.97383 7.79954 8.1937 7.34342L10.3245 2.92311C10.5972 2.35734 11.4029 2.35734 11.6757 2.92311L13.8064 7.34342C14.0263 7.79954 14.4615 8.11395 14.9636 8.17947L19.8464 8.81662C20.1293 8.85354 20.3306 9.02494 20.4313 9.2476C20.5451 9.4992 20.8413 9.61089 21.0929 9.49708C21.3445 9.38327 21.4562 9.08704 21.3424 8.83544C21.11 8.3216 20.6276 7.91008 19.9758 7.82503L15.093 7.18788C14.9256 7.16604 14.7805 7.06123 14.7073 6.90919L12.5765 2.48888Z" fill="#353566"/>
<path fill-rule="evenodd" clip-rule="evenodd" d="M14.4999 15C13.3953 15 12.4999 15.8954 12.4999 17C12.4999 18.1046 13.3953 19 14.4999 19C15.0172 19 15.4886 18.8036 15.8437 18.4813L19.5089 20.3139C19.5033 20.3752 19.5004 20.4372 19.5004 20.5C19.5004 21.6046 20.3958 22.5 21.5004 22.5C22.6049 22.5 23.5004 21.6046 23.5004 20.5C23.5004 19.3954 22.6049 18.5 21.5004 18.5C20.8163 18.5 20.2124 18.8434 19.8518 19.3673L16.3956 17.6392C16.4632 17.4385 16.4999 17.2235 16.4999 17C16.4999 16.7765 16.4632 16.5615 16.3956 16.3608L19.8518 14.6327C20.2124 15.1566 20.8163 15.5 21.5004 15.5C22.6049 15.5 23.5004 14.6046 23.5004 13.5C23.5004 12.3954 22.6049 11.5 21.5004 11.5C20.3958 11.5 19.5004 12.3954 19.5004 13.5C19.5004 13.5628 19.5033 13.6248 19.5089 13.6861L15.8437 15.5187C15.4886 15.1964 15.0172 15 14.4999 15ZM13.4999 17C13.4999 16.4477 13.9476 16 14.4999 16C15.0522 16 15.4999 16.4477 15.4999 17C15.4999 17.5523 15.0522 18 14.4999 18C13.9476 18 13.4999 17.5523 13.4999 17ZM21.5004 12.5C20.9481 12.5 20.5004 12.9477 20.5004 13.5C20.5004 14.0523 20.9481 14.5 21.5004 14.5C22.0526 14.5 22.5004 14.0523 22.5004 13.5C22.5004 12.9477 22.0526 12.5 21.5004 12.5ZM20.5004 20.5C20.5004 19.9477 20.9481 19.5 21.5004 19.5C22.0526 19.5 22.5004 19.9477 22.5004 20.5C22.5004 21.0523 22.0526 21.5 21.5004 21.5C20.9481 21.5 20.5004 21.0523 20.5004 20.5Z" fill="#353566"/>
</svg>
