<svg width="24" height="24" viewBox="0 0 24 24" fill="none" xmlns="http://www.w3.org/2000/svg">
<path d="M5.7679 2.25H17.2321C18.0449 2.24999 18.7006 2.24999 19.2315 2.29336C19.7781 2.33803 20.2582 2.43239 20.7025 2.65873C21.4081 3.01825 21.9817 3.59193 22.3413 4.29754C22.5676 4.74176 22.662 5.2219 22.7066 5.76853C22.7451 6.23981 22.7495 6.80935 22.7499 7.4999C22.75 7.63797 22.6381 7.75 22.5 7.75H0.499999C0.361928 7.75 0.249963 7.63797 0.250059 7.4999C0.250539 6.80935 0.25486 6.23981 0.293364 5.76853C0.338026 5.2219 0.432386 4.74176 0.658727 4.29754C1.01825 3.59193 1.59193 3.01825 2.29754 2.65873C2.74176 2.43239 3.2219 2.33803 3.76853 2.29336C4.29944 2.24999 4.95507 2.24999 5.7679 2.25Z" fill="#353566"/>
<path fill-rule="evenodd" clip-rule="evenodd" d="M0.500001 9.25C0.36193 9.25 0.25 9.36193 0.25 9.5V14.2321C0.249993 15.0449 0.249988 15.7006 0.293364 16.2315C0.338026 16.7781 0.432386 17.2582 0.658727 17.7025C1.01825 18.4081 1.59193 18.9818 2.29754 19.3413C2.74176 19.5676 3.2219 19.662 3.76853 19.7066C4.29944 19.75 4.95505 19.75 5.76788 19.75H13.048C13.2727 19.75 13.4856 19.6492 13.628 19.4754C13.7705 19.3016 13.8275 19.0731 13.7834 18.8528C13.696 18.4161 13.65 17.9638 13.65 17.5C13.65 13.7168 16.7169 10.65 20.5 10.65C20.9638 10.65 21.4161 10.696 21.8528 10.7834C22.0731 10.8275 22.3016 10.7705 22.4754 10.628C22.6492 10.4856 22.75 10.2727 22.75 10.048V9.5C22.75 9.36193 22.6381 9.25 22.5 9.25H0.500001ZM9 13.75C9.41421 13.75 9.75 14.0858 9.75 14.5C9.75 14.9142 9.41421 15.25 9 15.25H4.5C4.08579 15.25 3.75 14.9142 3.75 14.5C3.75 14.0858 4.08579 13.75 4.5 13.75H9Z" fill="#353566"/>
<path d="M20.75 14C20.75 13.5858 20.4142 13.25 20 13.25C19.5858 13.25 19.25 13.5858 19.25 14V19.1893L17.5303 17.4697C17.2374 17.1768 16.7626 17.1768 16.4697 17.4697C16.1768 17.7626 16.1768 18.2374 16.4697 18.5303L19.4697 21.5303C19.6103 21.671 19.8011 21.75 20 21.75C20.1989 21.75 20.3897 21.671 20.5303 21.5303L23.5303 18.5303C23.8232 18.2374 23.8232 17.7626 23.5303 17.4697C23.2374 17.1768 22.7626 17.1768 22.4697 17.4697L20.75 19.1893V14Z" fill="#353566"/>
</svg>
