<svg width="24" height="24" viewBox="0 0 24 24" fill="none" xmlns="http://www.w3.org/2000/svg">
<path d="M17.2321 2.25H5.7679C4.95507 2.24999 4.29944 2.24999 3.76853 2.29336C3.2219 2.33803 2.74176 2.43239 2.29754 2.65873C1.59193 3.01825 1.01825 3.59193 0.658727 4.29754C0.432386 4.74176 0.338026 5.2219 0.293364 5.76853C0.25486 6.2398 0.250539 6.80935 0.250059 7.4999C0.249963 7.63797 0.361928 7.75 0.499999 7.75H22.5C22.6381 7.75 22.75 7.63797 22.7499 7.4999C22.7495 6.80935 22.7451 6.23981 22.7066 5.76853C22.662 5.2219 22.5676 4.74176 22.3413 4.29754C21.9817 3.59193 21.4081 3.01825 20.7025 2.65873C20.2582 2.43239 19.7781 2.33803 19.2315 2.29336C18.7006 2.24999 18.0449 2.24999 17.2321 2.25Z" fill="#353566"/>
<path fill-rule="evenodd" clip-rule="evenodd" d="M22.75 9.5C22.75 9.36193 22.6381 9.25 22.5 9.25H0.500001C0.36193 9.25 0.25 9.36193 0.25 9.5V14.2321C0.249993 15.045 0.249988 15.7006 0.293364 16.2315C0.338026 16.7781 0.432386 17.2582 0.658727 17.7025C1.01825 18.4081 1.59193 18.9818 2.29754 19.3413C2.74176 19.5676 3.2219 19.662 3.76853 19.7066C4.29944 19.75 4.95505 19.75 5.76788 19.75H12.5C12.9142 19.75 13.25 19.4142 13.25 19V17.25C13.25 16.2004 13.7461 15.2674 14.5216 14.6712L14.7019 14.5326C14.8738 14.4005 14.9801 14.2005 14.9934 13.9842L15.0074 13.7572C15.1368 11.6605 17.0423 10.25 19 10.25C19.9006 10.25 20.8182 10.5577 21.5468 11.1102C21.7737 11.2823 22.0785 11.3111 22.3336 11.1844C22.5887 11.0577 22.75 10.7975 22.75 10.5127V9.5ZM9 13.75C9.41421 13.75 9.75 14.0858 9.75 14.5C9.75 14.9142 9.41421 15.25 9 15.25H4.5C4.08579 15.25 3.75 14.9142 3.75 14.5C3.75 14.0858 4.08579 13.75 4.5 13.75H9Z" fill="#353566"/>
<path fill-rule="evenodd" clip-rule="evenodd" d="M16 14C16 12.4006 17.4286 11.25 19 11.25C20.5714 11.25 22 12.4006 22 14V15.2677C22.8481 15.389 23.5 16.1184 23.5 17V20.75C23.5 21.7165 22.7165 22.5 21.75 22.5H16.25C15.2835 22.5 14.5 21.7165 14.5 20.75V17C14.5 16.1184 15.1519 15.389 16 15.2677V14ZM19 12.75C18.0861 12.75 17.5 13.3902 17.5 14V15H20.5V14C20.5 13.3902 19.9139 12.75 19 12.75Z" fill="#353566"/>
</svg>
