<svg width="24" height="24" viewBox="0 0 24 24" fill="none" xmlns="http://www.w3.org/2000/svg">
<path d="M17.2321 2.25H5.7679C4.95507 2.24999 4.29944 2.24999 3.76853 2.29336C3.2219 2.33803 2.74176 2.43239 2.29754 2.65873C1.59193 3.01825 1.01825 3.59193 0.658727 4.29754C0.432386 4.74176 0.338026 5.2219 0.293364 5.76853C0.25486 6.2398 0.250539 6.80935 0.250059 7.4999C0.249963 7.63797 0.361928 7.75 0.499999 7.75H22.5C22.6381 7.75 22.75 7.63797 22.7499 7.4999C22.7495 6.80935 22.7451 6.23981 22.7066 5.76853C22.662 5.2219 22.5676 4.74176 22.3413 4.29754C21.9817 3.59193 21.4081 3.01825 20.7025 2.65873C20.2582 2.43239 19.7781 2.33803 19.2315 2.29336C18.7006 2.24999 18.0449 2.24999 17.2321 2.25Z" fill="#353566"/>
<path fill-rule="evenodd" clip-rule="evenodd" d="M22.75 9.5C22.75 9.36193 22.6381 9.25 22.5 9.25H0.500001C0.36193 9.25 0.25 9.36193 0.25 9.5V14.2321C0.249993 15.045 0.249988 15.7006 0.293364 16.2315C0.338026 16.7781 0.432386 17.2582 0.658727 17.7025C1.01825 18.4081 1.59193 18.9818 2.29754 19.3413C2.74176 19.5676 3.2219 19.662 3.76853 19.7066C4.29944 19.75 4.95505 19.75 5.76788 19.75H10.252C10.4839 19.75 10.7027 19.6428 10.8448 19.4595C10.9868 19.2763 11.0362 19.0376 10.9784 18.8131C10.8294 18.2344 10.75 17.627 10.75 17C10.75 12.9959 13.9959 9.75 18 9.75C19.3218 9.75 20.5588 10.103 21.6245 10.7195C21.8565 10.8537 22.1425 10.8539 22.3747 10.7199C22.6069 10.586 22.75 10.3383 22.75 10.0703V9.5ZM9 13.75C9.41421 13.75 9.75 14.0858 9.75 14.5C9.75 14.9142 9.41421 15.25 9 15.25H4.5C4.08579 15.25 3.75 14.9142 3.75 14.5C3.75 14.0858 4.08579 13.75 4.5 13.75H9Z" fill="#353566"/>
<path fill-rule="evenodd" clip-rule="evenodd" d="M12.25 17C12.25 13.8244 14.8244 11.25 18 11.25C21.1756 11.25 23.75 13.8244 23.75 17C23.75 20.1756 21.1756 22.75 18 22.75C14.8244 22.75 12.25 20.1756 12.25 17ZM20.4419 15.4419C20.686 15.1979 20.686 14.8021 20.4419 14.5581C20.1979 14.314 19.8021 14.314 19.5581 14.5581L15.5581 18.5581C15.314 18.8021 15.314 19.1979 15.5581 19.4419C15.8021 19.686 16.1979 19.686 16.4419 19.4419L20.4419 15.4419ZM16.5 14.75C16.0858 14.75 15.75 15.0858 15.75 15.5C15.75 15.9142 16.0859 16.25 16.5001 16.25C16.9143 16.25 17.2501 15.9142 17.2501 15.5C17.2501 15.0858 16.9142 14.75 16.5 14.75ZM18.75 18.5C18.75 18.0858 19.0858 17.75 19.5 17.75C19.9142 17.75 20.2501 18.0858 20.2501 18.5C20.2501 18.9142 19.9142 19.25 19.5 19.25C19.0858 19.25 18.75 18.9142 18.75 18.5Z" fill="#353566"/>
</svg>
