<svg width="24" height="24" viewBox="0 0 24 24" fill="none" xmlns="http://www.w3.org/2000/svg">
<path fill-rule="evenodd" clip-rule="evenodd" d="M1.25 10C1.25 13.4496 3.24613 16.4314 6.14339 17.8562C7.5689 20.755 10.5515 22.75 14 22.75C18.8325 22.75 22.75 18.8325 22.75 14C22.75 10.5515 20.755 7.5689 17.8562 6.14339C16.4314 3.24613 13.4496 1.25 10 1.25C5.16751 1.25 1.25 5.16751 1.25 10ZM10 2.75C5.99594 2.75 2.75 5.99594 2.75 10C2.75 12.2552 3.77975 14.2709 5.39615 15.6011C5.31564 15.1657 5.26737 14.7189 5.2539 14.2635C5.25131 14.176 5.25 14.0881 5.25 14C5.25 9.16751 9.16751 5.25 14 5.25C14.0683 5.25 14.1365 5.25078 14.2044 5.25235C14.6803 5.26326 15.1469 5.31216 15.6011 5.39615C14.2709 3.77975 12.2552 2.75 10 2.75ZM15.5063 9.33896C14.6732 9.15336 13.8138 9.26045 13.0417 9.63892C12.2722 10.0162 11.6339 10.6405 11.1928 11.415C11.0856 11.6032 10.9909 11.7987 10.9089 12H9.90002C9.48581 12 9.15002 12.3358 9.15002 12.75C9.15002 13.1642 9.48581 13.5 9.90002 13.5H10.5447C10.5293 13.6658 10.5215 13.8327 10.5215 14C10.5215 14.1673 10.5293 14.3342 10.5447 14.5H9.90002C9.48581 14.5 9.15002 14.8358 9.15002 15.25C9.15002 15.6642 9.48581 16 9.90002 16H10.9089C10.9909 16.2013 11.0856 16.3968 11.1928 16.585C11.6339 17.3595 12.2722 17.9838 13.0417 18.3611C13.8138 18.7396 14.6732 18.8467 15.5063 18.6611C16.3376 18.4759 17.0855 18.0124 17.6641 17.351C17.9368 17.0392 17.9052 16.5654 17.5934 16.2927C17.2816 16.0199 16.8078 16.0516 16.5351 16.3633C16.1492 16.8044 15.6751 17.0867 15.1801 17.197C14.6869 17.3068 14.1748 17.246 13.702 17.0142C13.2744 16.8046 12.8879 16.4588 12.5917 16H14.6996C15.1138 16 15.4496 15.6642 15.4496 15.25C15.4496 14.8358 15.1138 14.5 14.6996 14.5H12.0536C12.0324 14.3357 12.0215 14.1685 12.0215 14C12.0215 13.8315 12.0324 13.6644 12.0536 13.5H14.6996C15.1138 13.5 15.4496 13.1642 15.4496 12.75C15.4496 12.3358 15.1138 12 14.6996 12H12.5917C12.8879 11.5412 13.2744 11.1954 13.702 10.9858C14.1748 10.754 14.6869 10.6932 15.1801 10.8031C15.6751 10.9134 16.1492 11.1956 16.5351 11.6367C16.8078 11.9484 17.2816 11.9801 17.5934 11.7074C17.9052 11.4346 17.9368 10.9608 17.6641 10.649C17.0854 9.98764 16.3376 9.52416 15.5063 9.33896Z" fill="#353566"/>
</svg>
