<svg width="24" height="24" viewBox="0 0 24 24" fill="none" xmlns="http://www.w3.org/2000/svg">
<path fill-rule="evenodd" clip-rule="evenodd" d="M17.4326 2.25H7.56739C6.61496 2.24999 5.85439 2.24999 5.24013 2.30018C4.61012 2.35165 4.06824 2.45963 3.57054 2.71322C2.77085 3.12068 2.12068 3.77085 1.71322 4.57054C1.45963 5.06824 1.35165 5.61012 1.30018 6.24013C1.24999 6.85439 1.24999 7.61495 1.25 8.56739V13.4326C1.24999 14.3851 1.24999 15.1456 1.30018 15.7599C1.35165 16.3899 1.45963 16.9318 1.71322 17.4295C2.12068 18.2291 2.77085 18.8793 3.57054 19.2868C4.06824 19.5404 4.61012 19.6483 5.24013 19.6998C5.85438 19.75 6.61496 19.75 7.56737 19.75H14.5101C14.7207 19.75 14.9217 19.6614 15.0637 19.506C15.2058 19.3505 15.276 19.1425 15.2571 18.9327C15.2194 18.5136 15.3311 18.0817 15.605 17.72C15.6807 17.6201 15.7723 17.5233 15.8997 17.3905L15.9006 17.3895C15.9348 17.3538 15.9717 17.3153 16.0086 17.2761C16.2535 17.0159 16.2808 16.6191 16.0739 16.3278C15.5492 15.5892 15.2501 14.8963 15.2501 14.0817C15.2501 12.666 16.1159 11.5148 17.4443 10.8815C17.6101 10.8024 17.7412 10.6653 17.8126 10.496C18.1406 9.71838 18.7521 9.25006 19.5001 9.25006C20.2506 9.25006 20.8642 9.72162 21.1894 10.5025C21.2596 10.671 21.3889 10.8082 21.553 10.8882C21.9082 11.0615 22.2478 11.2618 22.5798 11.4864C22.8097 11.6418 23.1066 11.6577 23.3517 11.5276C23.5968 11.3974 23.75 11.1426 23.75 10.8651V8.5673C23.75 7.6149 23.75 6.85438 23.6998 6.24013C23.6483 5.61012 23.5404 5.06824 23.2868 4.57054C22.8793 3.77085 22.2291 3.12069 21.4295 2.71322C20.9318 2.45963 20.3899 2.35165 19.7599 2.30018C19.1456 2.24999 18.385 2.24999 17.4326 2.25ZM9 11C9 9.067 10.567 7.5 12.5 7.5C14.4082 7.5 15.9597 9.02706 15.9992 10.9258C15.1351 11.6595 14.5659 12.6706 14.5055 13.8688C13.9375 14.2666 13.246 14.5 12.5 14.5C10.567 14.5 9 12.933 9 11ZM5 11C5 10.4477 5.44772 10 6 10C6.55228 10 7.0001 10.4477 7.0001 11C7.0001 11.5523 6.55228 12 6 12C5.44772 12 5 11.5523 5 11Z" fill="#353566"/>
<path d="M19.5 10.25C19.9143 10.25 20.25 10.5858 20.25 11V11.5489C20.5143 11.5879 20.7685 11.6533 21.0266 11.7556C21.4998 11.9433 21.9411 12.2381 22.4528 12.6256C22.783 12.8756 22.848 13.346 22.598 13.6763C22.3479 14.0065 21.8775 14.0715 21.5473 13.8214C21.059 13.4517 20.7503 13.2597 20.4735 13.15C20.2143 13.0471 19.9407 13 19.5 13C18.8566 13 18.4008 13.1521 18.1275 13.35C17.8766 13.5317 17.75 13.7677 17.75 14.0817C17.75 14.461 17.916 14.6783 18.2414 14.8604C18.6142 15.0691 19.1186 15.1761 19.6233 15.2602C20.1186 15.3427 20.8642 15.4795 21.4914 15.8306C22.166 16.2083 22.75 16.8667 22.75 17.9183C22.75 18.7329 22.3766 19.4128 21.7525 19.8648C21.3312 20.1699 20.8154 20.3592 20.25 20.4452V21C20.25 21.4142 19.9143 21.75 19.5 21.75C19.0858 21.75 18.75 21.4142 18.75 21V20.4511C18.4857 20.4121 18.2316 20.3467 17.9735 20.2443C17.5003 20.0566 17.059 19.7618 16.5473 19.3743C16.2171 19.1243 16.1521 18.6539 16.4021 18.3236C16.6522 17.9934 17.1226 17.9284 17.4528 18.1785C17.9411 18.5482 18.2498 18.7402 18.5266 18.85C18.7858 18.9528 19.0594 19 19.5 19C20.1435 19 20.5993 18.8479 20.8726 18.6499C21.1235 18.4682 21.25 18.2322 21.25 17.9183C21.25 17.539 21.0841 17.3217 20.7587 17.1395C20.3859 16.9308 19.8815 16.8239 19.3767 16.7398C18.8815 16.6572 18.1359 16.5204 17.5087 16.1693C16.8341 15.7917 16.25 15.1332 16.25 14.0817C16.25 13.267 16.6235 12.5872 17.2476 12.1352C17.6689 11.8301 18.1846 11.6408 18.75 11.5548V11C18.75 10.5858 19.0858 10.25 19.5 10.25Z" fill="#353566"/>
</svg>
