<svg width="24" height="24" viewBox="0 0 24 24" fill="none" xmlns="http://www.w3.org/2000/svg">
<path fill-rule="evenodd" clip-rule="evenodd" d="M16.4326 2.25H6.56739C5.61495 2.24999 4.85439 2.24999 4.24013 2.30018C3.61012 2.35165 3.06824 2.45963 2.57054 2.71322C1.77085 3.12068 1.12068 3.77085 0.713223 4.57054C0.459634 5.06824 0.35165 5.61012 0.300176 6.24013C0.249989 6.85439 0.249994 7.61495 0.25 8.56738V13.4326C0.249994 14.3851 0.249989 15.1456 0.300176 15.7599C0.35165 16.3899 0.459634 16.9318 0.713223 17.4295C1.12068 18.2291 1.77085 18.8793 2.57054 19.2868C3.06824 19.5404 3.61012 19.6483 4.24013 19.6998C4.85438 19.75 5.61496 19.75 6.56737 19.75H12.5C12.9142 19.75 13.25 19.4142 13.25 19V16.25C13.25 15.2004 13.7461 14.2674 14.5216 13.6712L14.7019 13.5326C14.8738 13.4005 14.9801 13.2005 14.9934 12.9842L15.0074 12.7572C15.1368 10.6605 17.0423 9.25 19 9.25C19.9006 9.25 20.8182 9.55769 21.5468 10.1102C21.7737 10.2823 22.0785 10.3111 22.3336 10.1844C22.5887 10.0577 22.75 9.79747 22.75 9.51267V8.5673C22.75 7.6149 22.75 6.85438 22.6998 6.24013C22.6483 5.61012 22.5404 5.06824 22.2868 4.57054C21.8793 3.77085 21.2291 3.12069 20.4295 2.71322C19.9318 2.45963 19.3899 2.35165 18.7599 2.30018C18.1456 2.24999 17.385 2.24999 16.4326 2.25ZM8 11C8 9.067 9.567 7.5 11.5 7.5C13.2937 7.5 14.7722 8.84928 14.976 10.5882C14.5704 11.1893 14.3086 11.904 14.2588 12.711L14.2448 12.938L14.0645 13.0766C13.6954 13.3604 13.3773 13.7069 13.1262 14.1001C12.6403 14.3555 12.087 14.5 11.5 14.5C9.567 14.5 8 12.933 8 11ZM4 11C4 10.4477 4.44772 10 5 10C5.55229 10 6.0001 10.4477 6.0001 11C6.0001 11.5523 5.55229 12 5 12C4.44772 12 4 11.5523 4 11Z" fill="#353566"/>
<path fill-rule="evenodd" clip-rule="evenodd" d="M16 13C16 11.4006 17.4286 10.25 19 10.25C20.5714 10.25 22 11.4006 22 13V14.2677C22.8481 14.389 23.5 15.1184 23.5 16V19.75C23.5 20.7165 22.7165 21.5 21.75 21.5H16.25C15.2835 21.5 14.5 20.7165 14.5 19.75V16C14.5 15.1184 15.1519 14.389 16 14.2677V13ZM19 11.75C18.0861 11.75 17.5 12.3902 17.5 13V14H20.5V13C20.5 12.3902 19.9139 11.75 19 11.75Z" fill="#353566"/>
</svg>
