<svg width="24" height="24" viewBox="0 0 24 24" fill="none" xmlns="http://www.w3.org/2000/svg">
<path d="M0.5 8.47438C0.5 4.79054 3.02715 1.5 6.89333 1.5C8.80129 1.5 10.1418 2.3934 11 3.25953C11.8582 2.3934 13.1987 1.5 15.1067 1.5C18.9729 1.5 21.5 4.79054 21.5 8.47438C21.5 8.86254 21.4755 9.24342 21.4287 9.6167C21.4096 9.76999 21.3206 9.90581 21.1877 9.98463C21.0548 10.0635 20.893 10.0764 20.7492 10.0198C19.8986 9.68444 18.9714 9.5 18 9.5C13.8579 9.5 10.5 12.8579 10.5 17C10.5 18.1445 10.756 19.2277 11.2134 20.1969C11.3014 20.3833 11.2659 20.6045 11.1242 20.7542C10.9825 20.9038 10.7634 20.9511 10.5726 20.8734C9.52356 20.446 7.03026 19.1094 4.79091 17.0211C2.55521 14.9362 0.5 12.0323 0.5 8.47438Z" fill="#353566"/>
<path fill-rule="evenodd" clip-rule="evenodd" d="M18 11.25C14.8244 11.25 12.25 13.8244 12.25 17C12.25 20.1756 14.8244 22.75 18 22.75C21.1756 22.75 23.75 20.1756 23.75 17C23.75 13.8244 21.1756 11.25 18 11.25ZM18 13.875C17.5168 13.875 17.125 14.2668 17.125 14.75C17.125 15.2332 17.5168 15.625 18 15.625C18.4832 15.625 18.8751 15.2332 18.8751 14.75C18.8751 14.2668 18.4832 13.875 18 13.875ZM17 16.375C16.6548 16.375 16.375 16.6548 16.375 17C16.375 17.3452 16.6548 17.625 17 17.625H17.375V19.5C17.375 19.8452 17.6548 20.125 18 20.125C18.3452 20.125 18.625 19.8452 18.625 19.5V17C18.625 16.8342 18.5592 16.6753 18.4419 16.5581C18.3247 16.4408 18.1658 16.375 18 16.375H17Z" fill="#353566"/>
</svg>
