<svg width="24" height="24" viewBox="0 0 24 24" fill="none" xmlns="http://www.w3.org/2000/svg">
<path d="M0.5 8.47438C0.5 4.79054 3.02715 1.5 6.89333 1.5C8.80129 1.5 10.1418 2.3934 11 3.25953C11.8582 2.3934 13.1987 1.5 15.1067 1.5C18.9729 1.5 21.5 4.79054 21.5 8.47438C21.5 9.75543 21.2328 10.954 20.7864 12.0595C20.6877 12.3037 20.4165 12.4296 20.1663 12.3472C19.4709 12.1181 18.7413 12 18 12C15.1477 12 12.4411 13.7522 11.2059 16.907C10.9314 17.6083 10.9314 18.3917 11.2059 19.093C11.3525 19.4674 11.5197 19.8217 11.7052 20.1554C11.7745 20.28 11.7872 20.4284 11.7402 20.563C11.6932 20.6977 11.5909 20.8059 11.4591 20.8604C11.347 20.9067 11.2456 20.9452 11.1581 20.9743C11.0555 21.0086 10.9445 21.0086 10.8419 20.9743C10.0191 20.7001 7.4609 19.4122 5.1044 17.3072C2.74864 15.2028 0.5 12.1964 0.5 8.47438Z" fill="#353566"/>
<path d="M18 16.5C17.17 16.5 16.5 17.17 16.5 18C16.5 18.83 17.17 19.5 18 19.5C18.83 19.5 19.5 18.83 19.5 18C19.5 17.17 18.83 16.5 18 16.5Z" fill="#353566"/>
<path fill-rule="evenodd" clip-rule="evenodd" d="M23.3973 17.4539C22.3768 14.8473 20.2068 13.5 18 13.5C15.7932 13.5 13.6232 14.8473 12.6027 17.4539C12.4658 17.8036 12.4658 18.1964 12.6027 18.5461C13.6232 21.1527 15.7932 22.5 18 22.5C20.2068 22.5 22.3768 21.1527 23.3973 18.5461C23.5342 18.1964 23.5342 17.8036 23.3973 17.4539ZM15.5 18C15.5 16.6177 16.6177 15.5 18 15.5C19.3823 15.5 20.5 16.6177 20.5 18C20.5 19.3823 19.3823 20.5 18 20.5C16.6177 20.5 15.5 19.3823 15.5 18Z" fill="#353566"/>
</svg>
