<svg width="24" height="24" viewBox="0 0 24 24" fill="none" xmlns="http://www.w3.org/2000/svg">
<path fill-rule="evenodd" clip-rule="evenodd" d="M9.19875 2.38033C9.92602 0.871599 12.0747 0.871593 12.802 2.38033L14.9327 6.80063C14.9694 6.87665 15.0419 6.92906 15.1256 6.93998L20.0084 7.57713C21.6824 7.79556 22.3495 9.86174 21.1192 11.0178L21.1091 11.0272C20.8623 11.2592 20.4905 11.2969 20.2021 11.1192C19.3078 10.5681 18.2547 10.2501 17.1251 10.2501C13.8805 10.2501 11.2501 12.8804 11.2501 16.1251C11.2501 16.8325 11.3749 17.5092 11.6029 18.1354C11.682 18.3526 11.6565 18.5942 11.5337 18.7901C11.411 18.9861 11.2047 19.1145 10.9747 19.1381C10.9427 19.1414 10.9113 19.1508 10.882 19.1665L6.52985 21.5048C5.04993 22.2999 3.30849 21.0266 3.61738 19.3753L4.51283 14.5882C4.52851 14.5044 4.50041 14.4185 4.43829 14.3601L0.881512 11.0178C-0.348731 9.86174 0.318321 7.79556 1.99231 7.57713L6.87513 6.93998C6.95881 6.92906 7.03134 6.87666 7.06798 6.80063L9.19875 2.38033ZM19.1879 9.82749L20.4923 10.4183C20.0836 10.1767 19.6468 9.97771 19.1879 9.82749Z" fill="#353566"/>
<path fill-rule="evenodd" clip-rule="evenodd" d="M12.2501 16.125C12.2501 13.4326 14.4327 11.25 17.1251 11.25C19.8175 11.25 22.0001 13.4326 22.0001 16.125C22.0001 17.2006 21.6518 18.1948 21.0618 19.001L23.5304 21.4697C23.8233 21.7626 23.8233 22.2374 23.5304 22.5303C23.2375 22.8232 22.7626 22.8232 22.4697 22.5303L20.0011 20.0617C19.1949 20.6517 18.2007 21 17.1251 21C14.4327 21 12.2501 18.8174 12.2501 16.125ZM17.1251 12.75C15.2612 12.75 13.7501 14.261 13.7501 16.125C13.7501 17.989 15.2612 19.5 17.1251 19.5C18.9891 19.5 20.5001 17.989 20.5001 16.125C20.5001 14.261 18.9891 12.75 17.1251 12.75Z" fill="#353566"/>
</svg>
