<svg width="24" height="24" viewBox="0 0 24 24" fill="none" xmlns="http://www.w3.org/2000/svg">
<path fill-rule="evenodd" clip-rule="evenodd" d="M10.6099 1.58249L18.9455 3.05229C19.746 3.19343 20.3916 3.30727 20.9069 3.44218C21.4375 3.58109 21.894 3.75739 22.2921 4.05743C22.9246 4.53402 23.3899 5.1986 23.6215 5.95592C23.7672 6.43269 23.7768 6.92192 23.7259 7.46801C23.6764 7.99832 23.5625 8.64394 23.4214 9.44429L22.6462 13.8409C22.505 14.6414 22.3912 15.2871 22.2563 15.8024C22.1174 16.333 21.9411 16.7894 21.641 17.1876C21.3135 17.6222 20.8972 17.978 20.423 18.2331C20.2093 18.3481 19.9838 18.4427 19.7494 18.5148C19.7477 18.9743 19.7409 19.3677 19.7134 19.7031C19.6756 20.1663 19.5949 20.5847 19.3958 20.9755C19.0842 21.587 18.587 22.0842 17.9755 22.3958C17.5847 22.5949 17.1663 22.6756 16.7031 22.7134C16.2555 22.75 15.7048 22.75 15.0314 22.75H4.96856C4.29519 22.75 3.74449 22.75 3.29693 22.7134C2.83367 22.6756 2.41527 22.5949 2.02453 22.3958C1.413 22.0842 0.915818 21.587 0.60423 20.9755C0.405137 20.5847 0.324402 20.1663 0.286552 19.7031C0.249985 19.2555 0.249992 18.7048 0.25 18.0314V11.9686C0.249992 11.2952 0.249985 10.7445 0.286552 10.2969C0.324402 9.83367 0.405137 9.41527 0.60423 9.02453C0.915818 8.413 1.413 7.91582 2.02453 7.60423C2.41527 7.40514 2.83367 7.3244 3.29693 7.28655C3.7445 7.24998 4.29521 7.24999 4.96858 7.25H15.0314C15.7048 7.24999 16.2555 7.24998 16.7031 7.28655C17.1663 7.3244 17.5847 7.40514 17.9755 7.60423C18.587 7.91582 19.0842 8.413 19.3958 9.02453C19.5949 9.41527 19.6756 9.83367 19.7134 10.2969C19.75 10.7445 19.75 11.2952 19.75 11.9686V16.8914C20.0189 16.74 20.2553 16.534 20.4431 16.2849C20.5765 16.1078 20.6899 15.863 20.8052 15.4225C20.9227 14.9734 21.0265 14.3883 21.1745 13.5488L21.9386 9.21567C22.0866 8.37617 22.1892 7.79086 22.2323 7.32869C22.2746 6.87527 22.2518 6.60647 22.187 6.39447C22.0481 5.94008 21.7689 5.54133 21.3894 5.25538C21.2124 5.12197 20.9676 5.00861 20.527 4.89327C20.078 4.77572 19.4929 4.67195 18.6534 4.52393L10.381 3.06528C9.5415 2.91725 8.95619 2.81464 8.49403 2.77153C8.04061 2.72923 7.7718 2.75203 7.55981 2.81685C7.10542 2.95577 6.70667 3.23497 6.42071 3.61445C6.2234 3.8763 6.08387 4.26272 5.90908 5.14567C5.82865 5.552 5.43405 5.81618 5.02772 5.73575C4.62139 5.65531 4.3572 5.26071 4.43764 4.85438C4.61243 3.9714 4.79879 3.27436 5.22276 2.71173C5.69935 2.07927 6.36393 1.61392 7.12125 1.38239C7.59802 1.23662 8.08725 1.22707 8.63334 1.27801C9.16372 1.32749 9.80937 1.44134 10.6099 1.58249ZM10.4504 11.4828C10.2686 11.1057 9.73143 11.1057 9.54963 11.4828L8.69738 13.2508C8.63875 13.3724 8.52272 13.4563 8.38884 13.4737L6.43585 13.7286C6.01739 13.7832 5.85063 14.2997 6.15817 14.5887L7.58078 15.9255C7.68016 16.0189 7.72511 16.1565 7.70004 16.2905L7.34188 18.2052C7.26467 18.618 7.7 18.9363 8.06995 18.7376L9.8107 17.8023C9.92891 17.7388 10.0711 17.7388 10.1893 17.8023L11.9301 18.7376C12.3 18.9363 12.7353 18.618 12.6581 18.2052L12.3 16.2905C12.2749 16.1565 12.3198 16.0189 12.4192 15.9255L13.8418 14.5887C14.1494 14.2997 13.9826 13.7832 13.5641 13.7286L11.6112 13.4737C11.4773 13.4563 11.3612 13.3724 11.3026 13.2508L10.4504 11.4828Z" fill="#353566"/>
</svg>
