<svg width="24" height="24" viewBox="0 0 24 24" fill="none" xmlns="http://www.w3.org/2000/svg">
<g clip-path="url(#clip0_9001_276103)">
<path fill-rule="evenodd" clip-rule="evenodd" d="M11 0.25C5.06294 0.25 0.25 5.06294 0.25 11C0.25 13.0416 0.819848 14.9523 1.80949 16.5793L1.02746 18.7298C0.519627 20.1264 1.8736 21.4804 3.27015 20.9725L5.42072 20.1905C7.04768 21.1802 8.9584 21.75 11 21.75C11.5669 21.75 12.124 21.7061 12.668 21.6213C12.9862 21.5717 13.2372 21.3244 13.2917 21.007C13.4288 20.2079 13.8974 19.5178 14.5359 19.039C15.1171 18.6031 15.8039 18.3942 16.6332 18.2451C16.9905 18.1808 17.2505 17.8699 17.2505 17.5069V14.7089C17.2505 13.4866 18.0572 12.411 19.2306 12.0688L21.2075 11.4922C21.5334 11.3971 21.7549 11.0949 21.7473 10.7555C21.6171 4.93115 16.8553 0.25 11 0.25ZM7 10.0001C6.44772 10.0001 6 10.4478 6 11.0001C6 11.5523 6.44772 12.0001 7 12.0001C7.55228 12.0001 8.0001 11.5523 8.0001 11.0001C8.0001 10.4478 7.55228 10.0001 7 10.0001ZM11 10.0001C10.4477 10.0001 10 10.4478 10 11.0001C10 11.5523 10.4477 12.0001 11 12.0001C11.5523 12.0001 12.0001 11.5523 12.0001 11.0001C12.0001 10.4478 11.5523 10.0001 11 10.0001ZM15 10.0001C14.4477 10.0001 14 10.4478 14 11.0001C14 11.5523 14.4478 12.0001 15.0001 12.0001C15.5524 12.0001 16.0001 11.5523 16.0001 11.0001C16.0001 10.4478 15.5523 10.0001 15 10.0001Z" fill="#353566"/>
<path d="M19.5005 17.1243L22.6009 16.22C23.1343 16.0644 23.501 15.5755 23.501 15.0199V13.6255C23.501 12.8755 22.7809 12.3355 22.0609 12.5455L19.5806 13.2689C18.9405 13.4556 18.5005 14.0423 18.5005 14.709V19.8956C18.049 19.6259 17.5167 19.4997 17.0003 19.4997C16.3995 19.4997 15.7773 19.6705 15.2859 20.0391C14.7891 20.4117 14.5 20.9355 14.5 21.4999C14.5 22.0643 14.7891 22.5881 15.2859 22.9607C15.7773 23.3293 16.3995 23.5001 17.0003 23.5001C17.601 23.5001 18.2232 23.3293 18.7146 22.9607C19.2114 22.5881 19.5005 22.0643 19.5005 21.4999L19.5005 21.4909V17.1243Z" fill="#353566"/>
</g>
<defs>
<clipPath id="clip0_9001_276103">
<rect width="24" height="24" fill="white"/>
</clipPath>
</defs>
</svg>
