<svg width="24" height="24" viewBox="0 0 24 24" fill="none" xmlns="http://www.w3.org/2000/svg">
<g clip-path="url(#clip0_9001_275703)">
<path fill-rule="evenodd" clip-rule="evenodd" d="M21.417 13.67C21.639 12.802 21.752 11.903 21.752 11C21.752 5.072 16.93 0.25 11.002 0.25C5.074 0.25 0.252 5.072 0.25 10.998C0.25 12.973 0.789 14.9 1.809 16.577L1.027 18.728C0.793 19.374 0.949 20.077 1.435 20.563C1.921 21.05 2.624 21.206 3.27 20.971L5.421 20.189C7.099 21.21 9.025 21.749 11 21.749C11.624 21.749 12.25 21.694 12.86 21.588C13.078 21.55 13.268 21.418 13.379 21.228C13.491 21.037 13.513 20.807 13.439 20.599C13.314 20.247 13.25 19.877 13.25 19.502V19.252C13.245 18.543 13.241 17.932 13.594 17.454C13.816 17.154 13.891 16.774 13.802 16.412C13.656 15.818 13.833 15.181 14.265 14.748L16.265 12.742C16.679 12.327 17.282 12.158 17.878 12.295C18.48 12.432 18.956 12.844 19.151 13.398C19.327 13.898 19.801 14.234 20.33 14.234H20.69C21.033 14.234 21.332 14.002 21.417 13.67ZM7 9.75H15C15.4142 9.75 15.75 9.41421 15.75 9C15.75 8.58579 15.4142 8.25 15 8.25H7C6.58579 8.25 6.25 8.58579 6.25 9C6.25 9.41421 6.58579 9.75 7 9.75ZM7 13.75H12C12.4142 13.75 12.75 13.4142 12.75 13C12.75 12.5858 12.4142 12.25 12 12.25H7C6.58579 12.25 6.25 12.5858 6.25 13C6.25 13.4142 6.58579 13.75 7 13.75Z" fill="#353566"/>
<path d="M23.75 18.5C23.75 18.9142 23.4142 19.25 23 19.25C22.5858 19.25 22.25 18.9142 22.25 18.5V17.5C22.25 17.0858 21.9142 16.75 21.5 16.75H15.4999C15.1966 16.75 14.9231 16.5673 14.807 16.287C14.6909 16.0068 14.7551 15.6842 14.9696 15.4697L16.9696 13.4697C17.2625 13.1768 17.7374 13.1768 18.0303 13.4697C18.3232 13.7626 18.3232 14.2374 18.0303 14.5303L17.3106 15.25H21.5C22.7426 15.25 23.75 16.2574 23.75 17.5V18.5Z" fill="#353566"/>
<path d="M14.25 18.5C14.25 18.0858 14.5858 17.75 15 17.75C15.4142 17.75 15.75 18.0858 15.75 18.5V19.5C15.75 19.9142 16.0858 20.25 16.5 20.25H22.5C22.8033 20.25 23.0768 20.4327 23.1929 20.713C23.309 20.9933 23.2448 21.3158 23.0303 21.5303L21.0303 23.5303C20.7374 23.8232 20.2625 23.8232 19.9696 23.5303C19.6767 23.2374 19.6767 22.7626 19.9696 22.4697L20.6893 21.75H16.5C15.2574 21.75 14.25 20.7426 14.25 19.5V18.5Z" fill="#353566"/>
</g>
<defs>
<clipPath id="clip0_9001_275703">
<rect width="24" height="24" fill="white"/>
</clipPath>
</defs>
</svg>
