<svg width="24" height="24" viewBox="0 0 24 24" fill="none" xmlns="http://www.w3.org/2000/svg">
<g clip-path="url(#clip0_9001_276058)">
<path fill-rule="evenodd" clip-rule="evenodd" d="M0.25 11C0.25 5.06294 5.06294 0.25 11 0.25C16.9371 0.25 21.75 5.06294 21.75 11C21.75 11.2642 21.7405 11.5263 21.7217 11.786C21.7021 12.0566 21.5379 12.2955 21.2924 12.4108C21.0468 12.5261 20.7581 12.4998 20.5374 12.342C19.5757 11.6544 18.3987 11.25 17.125 11.25C13.8803 11.25 11.25 13.8803 11.25 17.125C11.25 18.3987 11.6544 19.5757 12.342 20.5374C12.4998 20.7581 12.5261 21.0468 12.4108 21.2924C12.2955 21.5379 12.0566 21.7021 11.786 21.7217C11.5263 21.7405 11.2642 21.75 11 21.75C8.9584 21.75 7.04768 21.1802 5.42072 20.1905L3.27015 20.9725C1.8736 21.4804 0.519627 20.1264 1.02746 18.7298L1.80949 16.5793C0.819848 14.9523 0.25 13.0416 0.25 11ZM7 10C6.44772 10 6 10.4477 6 11C6 11.5523 6.44772 12 7 12C7.55228 12 8.0001 11.5523 8.0001 11C8.0001 10.4477 7.55228 10 7 10ZM11 10C10.4477 10 10 10.4477 10 11C10 11.5523 10.4477 12 11 12C11.5523 12 12.0001 11.5523 12.0001 11C12.0001 10.4477 11.5523 10 11 10ZM15 10C14.4477 10 14 10.4477 14 11C14 11.0911 14.0122 11.1794 14.035 11.2632C14.6176 10.9555 15.2516 10.732 15.9208 10.6092C15.7687 10.2511 15.4136 10 15 10Z" fill="#353566"/>
<path fill-rule="evenodd" clip-rule="evenodd" d="M17.125 12.25C14.4326 12.25 12.25 14.4326 12.25 17.125C12.25 19.8174 14.4326 22 17.125 22C18.2006 22 19.1948 21.6517 20.001 21.0617L22.4696 23.5303C22.7625 23.8232 23.2374 23.8232 23.5303 23.5303C23.8232 23.2374 23.8232 22.7626 23.5303 22.4697L21.0617 20.001C21.6517 19.1948 22 18.2006 22 17.125C22 14.4326 19.8174 12.25 17.125 12.25ZM13.75 17.125C13.75 15.261 15.261 13.75 17.125 13.75C18.989 13.75 20.5 15.261 20.5 17.125C20.5 18.989 18.989 20.5 17.125 20.5C15.261 20.5 13.75 18.989 13.75 17.125Z" fill="#353566"/>
</g>
<defs>
<clipPath id="clip0_9001_276058">
<rect width="24" height="24" fill="white"/>
</clipPath>
</defs>
</svg>
