<svg width="24" height="24" viewBox="0 0 24 24" fill="none" xmlns="http://www.w3.org/2000/svg">
<path fill-rule="evenodd" clip-rule="evenodd" d="M1.25 10C1.25 5.16751 5.16751 1.25 10 1.25C14.8325 1.25 18.75 5.16751 18.75 10C18.75 14.8325 14.8325 18.75 10 18.75C8.36425 18.75 6.83136 18.3005 5.52052 17.5179L3.86738 18.119C2.63044 18.5688 1.4312 17.3696 1.881 16.1326L2.48214 14.4795C1.69955 13.1686 1.25 11.6357 1.25 10ZM10 13.75C9.58579 13.75 9.25 13.4142 9.25 13V10.75H7C6.58579 10.75 6.25 10.4142 6.25 10C6.25 9.58579 6.58579 9.25 7 9.25H9.25V7C9.25 6.58579 9.58579 6.25 10 6.25C10.4142 6.25 10.75 6.58579 10.75 7V9.25H13C13.4142 9.25 13.75 9.58579 13.75 10C13.75 10.4142 13.4142 10.75 13 10.75H10.75V13C10.75 13.4142 10.4142 13.75 10 13.75Z" fill="#353566"/>
<path d="M21.0674 10.1779C20.8095 9.85382 20.3377 9.80014 20.0136 10.0581C19.6895 10.316 19.6358 10.7878 19.8937 11.1119C20.743 12.1793 21.25 13.5294 21.25 15.0001C21.25 16.2122 20.9057 17.3415 20.31 18.2984C20.1352 18.5791 20.0872 18.9344 20.2071 19.2643L20.7459 20.746L19.2642 20.2072C18.9343 20.0872 18.579 20.1353 18.2983 20.31C17.3414 20.9058 16.2121 21.2501 15 21.2501C13.5293 21.2501 12.1791 20.743 11.1117 19.8937C10.7876 19.6358 10.3158 19.6894 10.0579 20.0135C9.79996 20.3377 9.85363 20.8095 10.1777 21.0674C11.501 22.1204 13.178 22.7501 15 22.7501C16.4328 22.7501 17.7766 22.3606 18.9292 21.6815L20.334 22.1923C21.4912 22.6131 22.613 21.4912 22.1922 20.3341L21.6814 18.9293C22.3605 17.7767 22.75 16.4328 22.75 15.0001C22.75 13.1782 22.1204 11.5012 21.0674 10.1779Z" fill="#353566"/>
</svg>
