<svg width="24" height="24" viewBox="0 0 24 24" fill="none" xmlns="http://www.w3.org/2000/svg">
<path fill-rule="evenodd" clip-rule="evenodd" d="M1.25 12C1.25 6.06294 6.06294 1.25 12 1.25C17.9371 1.25 22.75 6.06294 22.75 12C22.75 17.9371 17.9371 22.75 12 22.75C9.9584 22.75 8.04768 22.1802 6.42072 21.1905L4.27015 21.9725C2.8736 22.4804 1.51963 21.1264 2.02746 19.7298L2.80949 17.5793C1.81985 15.9523 1.25 14.0416 1.25 12ZM11 8.5C11 7.94772 11.4477 7.5 12 7.5C12.5523 7.5 13.0001 7.94772 13.0001 8.5C13.0001 9.05228 12.5523 9.5 12 9.5C11.4477 9.5 11 9.05228 11 8.5ZM10.25 12C10.25 11.5858 10.5858 11.25 11 11.25H12C12.4142 11.25 12.75 11.5858 12.75 12L12.75 16C12.75 16.4142 12.4142 16.75 12 16.75C11.5858 16.75 11.25 16.4142 11.25 16L11.25 12.75H11C10.5858 12.75 10.25 12.4142 10.25 12Z" fill="#353566"/>
</svg>
