<svg width="24" height="24" viewBox="0 0 24 24" fill="none" xmlns="http://www.w3.org/2000/svg">
<path fill-rule="evenodd" clip-rule="evenodd" d="M15.6163 16.0166C15.9791 15.7119 16.2032 15.2961 16.2435 14.8466C16.2475 14.815 16.2496 14.7828 16.2496 14.7501V14.7358C16.2499 14.7239 16.25 14.7119 16.25 14.6999C16.25 14.6879 16.2499 14.6759 16.2496 14.664V11.2269C16.2502 11.2093 16.2502 11.1916 16.2496 11.1739V9.70059C16.2496 8.72925 15.3132 8.03912 14.3896 8.30851L10.3632 9.51282C9.70338 9.70663 9.25 10.3121 9.25 11.0001V12.6377C9.24988 12.6455 9.24988 12.6533 9.25 12.661V14.2065C8.60746 14.0585 7.89848 14.2008 7.38372 14.6332C6.98173 14.9708 6.75 15.4447 6.75 15.9499C6.75 16.4551 6.98173 16.929 7.38372 17.2666C8.1508 17.911 9.3492 17.911 10.1163 17.2666C10.4767 16.9639 10.7003 16.5516 10.7426 16.1055C10.7475 16.071 10.75 16.0358 10.75 16V13.2278L14.7496 12.1733V12.9564C14.1072 12.8086 13.3984 12.9509 12.8837 13.3832C12.4817 13.7208 12.25 14.1947 12.25 14.6999C12.25 15.2051 12.4817 15.679 12.8837 16.0166C13.6508 16.661 14.8492 16.661 15.6163 16.0166ZM14.6515 14.5317C14.4423 14.356 14.0577 14.356 13.8485 14.5317C13.7623 14.6041 13.75 14.6676 13.75 14.6999C13.75 14.7322 13.7623 14.7957 13.8485 14.8681C14.0577 15.0438 14.4423 15.0438 14.6515 14.8681C14.7294 14.8026 14.747 14.7444 14.7496 14.71V14.6898C14.747 14.6554 14.7294 14.5972 14.6515 14.5317ZM14.7496 10.6221L10.75 11.6765V11.0001C10.75 10.9778 10.7647 10.9582 10.7861 10.952L14.7496 9.76648V10.6221ZM9.15149 15.7817C9.23766 15.8541 9.25 15.9176 9.25 15.9499C9.25 15.9822 9.23766 16.0457 9.15149 16.1181C8.94226 16.2938 8.55774 16.2938 8.34851 16.1181C8.26234 16.0457 8.25 15.9822 8.25 15.9499C8.25 15.9176 8.26234 15.8541 8.34851 15.7817C8.55774 15.606 8.94226 15.606 9.15149 15.7817Z" fill="#353566"/>
<path fill-rule="evenodd" clip-rule="evenodd" d="M4.25 11C4.25 6.71979 7.71979 3.25 12 3.25C15.7587 3.25 18.8916 5.92521 19.6 9.47575C21.9971 10.169 23.75 12.3791 23.75 15C23.75 18.1756 21.1756 20.75 18 20.75H5C2.37665 20.75 0.25 18.6234 0.25 16C0.25 13.6298 1.98608 11.665 4.25602 11.3079C4.25202 11.2057 4.25 11.1031 4.25 11ZM12 4.75C8.54822 4.75 5.75 7.54822 5.75 11C5.75 11.3041 5.77166 11.6026 5.81341 11.8944C5.84454 12.1119 5.77872 12.3321 5.63334 12.4969C5.48795 12.6616 5.27762 12.7543 5.05792 12.7505C5.03857 12.7502 5.01926 12.75 5 12.75C3.20507 12.75 1.75 14.2051 1.75 16C1.75 17.7949 3.20507 19.25 5 19.25H18C20.3472 19.25 22.25 17.3472 22.25 15C22.25 12.9271 20.7652 11.1994 18.8009 10.8252C18.4826 10.7646 18.2392 10.5064 18.1974 10.1852C17.7987 7.11868 15.1754 4.75 12 4.75Z" fill="#353566"/>
</svg>
