<svg width="24" height="24" viewBox="0 0 24 24" fill="none" xmlns="http://www.w3.org/2000/svg">
<path fill-rule="evenodd" clip-rule="evenodd" d="M17.25 13.0001V9.25006H13.5C11.9812 9.25006 10.75 8.01884 10.75 6.50006V2.75008H6.8C5.94755 2.75008 5.35331 2.75066 4.89068 2.78846C4.43681 2.82554 4.17604 2.89467 3.97852 2.99531C3.55516 3.21103 3.21095 3.55523 2.99524 3.9786C2.8946 4.17611 2.82547 4.43688 2.78838 4.89076C2.75058 5.35339 2.75 5.94762 2.75 6.80008V17.2001C2.75 18.0525 2.75058 18.6468 2.78838 19.1094C2.82547 19.5633 2.8946 19.824 2.99524 20.0216C3.21095 20.4449 3.55516 20.7891 3.97852 21.0048C4.26316 21.1499 4.65693 21.2211 5.51779 21.2415C5.93188 21.2513 6.25961 21.595 6.24979 22.0091C6.23997 22.4232 5.89631 22.7509 5.48222 22.7411C4.6126 22.7205 3.91224 22.6546 3.29754 22.3414C2.59193 21.9818 2.01825 21.4081 1.65873 20.7025C1.43239 20.2583 1.33803 19.7782 1.29336 19.2315C1.24999 18.7006 1.24999 18.045 1.25 17.2322V6.76797C1.24999 5.95514 1.24999 5.29951 1.29336 4.76861C1.33803 4.22197 1.43239 3.74183 1.65873 3.29761C2.01825 2.592 2.59193 2.01833 3.29754 1.6588C3.74176 1.43246 4.2219 1.3381 4.76853 1.29344C5.29944 1.25006 5.95506 1.25007 6.7679 1.25008L10.8184 1.25004C11.1235 1.24975 11.3926 1.2495 11.6539 1.31224C11.8835 1.36736 12.103 1.45827 12.3043 1.58164C12.5335 1.72206 12.7235 1.91249 12.9391 2.12847L17.8716 7.06095C18.0876 7.27654 18.278 7.46662 18.4184 7.69577C18.5418 7.89709 18.6327 8.11656 18.6878 8.34615C18.7506 8.60748 18.7503 8.87654 18.75 9.18171L18.75 13.0001C18.75 13.4143 18.4142 13.7501 18 13.7501C17.5858 13.7501 17.25 13.4143 17.25 13.0001ZM12.25 6.50006V3.56074L16.4393 7.75006H13.5C12.8096 7.75006 12.25 7.19042 12.25 6.50006ZM12.4529 2.70301L12.25 2.90595V2.88594L12.4529 2.70301Z" fill="#353566"/>
<path d="M7.8075 15.2752C8.13618 15.1879 8.48246 15.3327 8.65118 15.628L10 17.9884L11.3488 15.628C11.5175 15.3327 11.8638 15.1879 12.1925 15.2752C12.5212 15.3625 12.75 15.66 12.75 16.0001V22.0001C12.75 22.4143 12.4142 22.7501 12 22.7501C11.5858 22.7501 11.25 22.4143 11.25 22.0001V18.8242L10.6512 19.8722C10.5177 20.1059 10.2691 20.2501 10 20.2501C9.73086 20.2501 9.48235 20.1059 9.34882 19.8722L8.75 18.8242V22.0001C8.75 22.4143 8.41421 22.7501 8 22.7501C7.58579 22.7501 7.25 22.4143 7.25 22.0001V16.0001C7.25 15.66 7.47882 15.3625 7.8075 15.2752Z" fill="#353566"/>
<path fill-rule="evenodd" clip-rule="evenodd" d="M13.75 16.0001C13.75 15.5858 14.0858 15.2501 14.5 15.2501H15.75C17.1307 15.2501 18.25 16.3693 18.25 17.7501C18.25 19.1308 17.1307 20.2501 15.75 20.2501H15.25V22.0001C15.25 22.4143 14.9142 22.7501 14.5 22.7501C14.0858 22.7501 13.75 22.4143 13.75 22.0001V16.0001ZM15.25 18.7501H15.75C16.3023 18.7501 16.75 18.3023 16.75 17.7501C16.75 17.1978 16.3023 16.7501 15.75 16.7501H15.25V18.7501Z" fill="#353566"/>
<path d="M22 22.7501C22.4142 22.7501 22.75 22.4143 22.75 22.0001V16.0001C22.75 15.5858 22.4142 15.2501 22 15.2501C21.5858 15.2501 21.25 15.5858 21.25 16.0001V18.7501H20.25V16.0001C20.25 15.5858 19.9142 15.2501 19.5 15.2501C19.0858 15.2501 18.75 15.5858 18.75 16.0001V19.5001C18.75 19.9143 19.0858 20.2501 19.5 20.2501H21.25V22.0001C21.25 22.4143 21.5858 22.7501 22 22.7501Z" fill="#353566"/>
</svg>
