<svg width="24" height="24" viewBox="0 0 24 24" fill="none" xmlns="http://www.w3.org/2000/svg">
<path d="M22.395 5.773C22.081 5.157 21.59 4.666 20.976 4.354C20.281 3.999 19.518 3.999 18 3.999H14.236C14.087 3.999 13.933 3.999 13.819 3.956C13.788 3.933 13.684 3.811 13.591 3.703L13.049 3.072C12.852 2.842 12.722 2.689 12.533 2.559C12.366 2.444 12.182 2.36 11.991 2.31C11.77 2.25 11.58 2.25 11.265 2.25H10.001C8.482 2.25 7.721 2.25 7.026 2.604C6.411 2.917 5.92 3.408 5.605 4.024C5.251 4.719 5.251 5.481 5.251 6.999V12.999C5.251 14.518 5.251 15.28 5.605 15.975C5.919 16.591 6.41 17.082 7.025 17.395C7.72 17.749 8.482 17.749 10 17.749H18C19.519 17.749 20.281 17.749 20.976 17.395C21.591 17.082 22.082 16.591 22.396 15.975C22.75 15.28 22.75 14.518 22.75 12.999V8.749C22.75 7.231 22.749 6.469 22.395 5.773ZM21.249 12.999C21.249 14.237 21.249 14.919 21.059 15.293C20.89 15.625 20.625 15.889 20.294 16.058C19.919 16.249 19.237 16.249 17.999 16.249H9.999C8.761 16.249 8.079 16.249 7.705 16.058C7.378 15.892 7.107 15.62 6.94 15.294C6.749 14.919 6.749 14.237 6.749 12.999V6.999C6.749 5.761 6.749 5.079 6.939 4.705C7.106 4.378 7.377 4.106 7.705 3.94C8.079 3.749 8.761 3.749 9.999 3.749H11.263C11.41 3.749 11.563 3.749 11.68 3.793C11.711 3.816 11.815 3.938 11.908 4.046L12.45 4.677C12.647 4.907 12.777 5.06 12.965 5.189C13.132 5.304 13.317 5.389 13.511 5.44C13.731 5.498 13.921 5.498 14.235 5.498H17.999C19.237 5.498 19.919 5.498 20.294 5.689C20.625 5.857 20.889 6.122 21.058 6.453C21.249 6.828 21.249 7.509 21.249 8.747V12.997V12.999ZM17.948 19.398C18.28 19.646 18.347 20.116 18.099 20.448C17.803 20.844 17.414 21.171 16.974 21.395C16.28 21.749 15.517 21.749 13.999 21.749H5.999C4.481 21.749 3.719 21.749 3.024 21.395C2.409 21.082 1.918 20.591 1.604 19.975C1.25 19.28 1.25 18.517 1.25 16.999V10.999C1.25 9.481 1.25 8.719 1.604 8.024C1.829 7.584 2.155 7.195 2.55 6.899C2.882 6.65 3.352 6.718 3.6 7.048C3.849 7.379 3.782 7.849 3.451 8.098C3.239 8.258 3.062 8.468 2.941 8.704C2.751 9.078 2.751 9.76 2.751 10.998V16.998C2.751 18.236 2.751 18.918 2.942 19.293C3.109 19.62 3.38 19.891 3.707 20.057C4.082 20.248 4.763 20.248 6.001 20.248H14.001C15.239 20.248 15.921 20.248 16.296 20.057C16.533 19.937 16.742 19.761 16.9 19.549C17.148 19.217 17.617 19.15 17.95 19.398H17.948Z" fill="#353566"/>
</svg>
