<svg width="24" height="24" viewBox="0 0 24 24" fill="none" xmlns="http://www.w3.org/2000/svg">
<path fill-rule="evenodd" clip-rule="evenodd" d="M18.1318 2.25C18.8749 2.24999 19.478 2.24999 19.9673 2.28996C20.4722 2.33121 20.9215 2.41876 21.339 2.63148C21.9975 2.96703 22.533 3.50247 22.8685 4.16103C23.0812 4.57851 23.1688 5.02778 23.21 5.53273C23.25 6.02196 23.25 6.62511 23.25 7.36817V16.6318C23.25 17.3749 23.25 17.978 23.21 18.4673C23.1688 18.9722 23.0812 19.4215 22.8685 19.839C22.533 20.4975 21.9975 21.033 21.339 21.3685C20.9215 21.5812 20.4722 21.6688 19.9673 21.71C19.4781 21.75 18.8748 21.75 18.1318 21.75H5.86811C5.12507 21.75 4.52195 21.75 4.03273 21.71C3.52778 21.6688 3.07851 21.5812 2.66103 21.3685C2.00247 21.033 1.46703 20.4975 1.13148 19.839C0.918761 19.4215 0.831213 18.9722 0.789957 18.4673C0.749987 17.9781 0.749993 17.3748 0.75 16.6318V7.36811C0.749993 6.62507 0.749987 6.02195 0.789957 5.53273C0.831213 5.02778 0.918761 4.57851 1.13148 4.16103C1.46703 3.50247 2.00247 2.96703 2.66103 2.63148C3.07851 2.41876 3.52778 2.33121 4.03273 2.28996C4.52196 2.24999 5.12512 2.24999 5.86819 2.25H18.1318ZM21.75 16.6V9.75H2.25V16.6C2.25 17.3824 2.25058 17.9242 2.28498 18.3451C2.31865 18.7573 2.38097 18.9872 2.46799 19.158C2.65973 19.5343 2.96569 19.8403 3.34202 20.032C3.5128 20.119 3.74269 20.1813 4.15488 20.215C4.57582 20.2494 5.11755 20.25 5.9 20.25H18.1C18.8824 20.25 19.4242 20.2494 19.8451 20.215C20.2573 20.1813 20.4872 20.119 20.658 20.032C21.0343 19.8403 21.3403 19.5343 21.532 19.158C21.619 18.9872 21.6813 18.7573 21.715 18.3451C21.7494 17.9242 21.75 17.3824 21.75 16.6ZM20.375 6C20.375 5.51675 19.9832 5.125 19.5 5.125C19.0167 5.125 18.6249 5.51675 18.6249 6C18.6249 6.48325 19.0166 6.875 19.4999 6.875C19.9831 6.875 20.375 6.48325 20.375 6ZM17.375 6C17.375 5.51675 16.9832 5.125 16.5 5.125C16.0167 5.125 15.6249 5.51675 15.6249 6C15.6249 6.48325 16.0166 6.875 16.4999 6.875C16.9831 6.875 17.375 6.48325 17.375 6ZM14.375 6C14.375 5.51675 13.9832 5.125 13.5 5.125C13.0167 5.125 12.6249 5.51675 12.6249 6C12.6249 6.48325 13.0167 6.875 13.5 6.875C13.9832 6.875 14.375 6.48325 14.375 6Z" fill="#353566"/>
</svg>
