<svg width="24" height="24" viewBox="0 0 24 24" fill="none" xmlns="http://www.w3.org/2000/svg">
<g clip-path="url(#clip0_9001_303897)">
<path d="M3.8 1.5C4.15367 1.5 4.48737 1.57948 4.78545 1.72108C5.03488 1.83957 5.33314 1.73343 5.45163 1.484C5.57012 1.23457 5.46397 0.936313 5.21455 0.817822C4.78522 0.613873 4.30521 0.5 3.8 0.5C1.97746 0.5 0.5 1.97746 0.5 3.8C0.5 4.30521 0.613872 4.78522 0.817821 5.21455C0.936312 5.46397 1.23457 5.57012 1.484 5.45163C1.73343 5.33314 1.83957 5.03488 1.72108 4.78545C1.57948 4.48737 1.5 4.15367 1.5 3.8C1.5 2.52975 2.52974 1.5 3.8 1.5Z" fill="#353566"/>
<path d="M17.2145 1.72108C17.5126 1.57948 17.8463 1.5 18.2 1.5C19.4702 1.5 20.5 2.52975 20.5 3.8C20.5 4.15367 20.4205 4.48737 20.2789 4.78545C20.1604 5.03488 20.2666 5.33314 20.516 5.45163C20.7654 5.57012 21.0637 5.46397 21.1822 5.21455C21.3861 4.78522 21.5 4.30521 21.5 3.8C21.5 1.97746 20.0225 0.5 18.2 0.5C17.6948 0.5 17.2148 0.613873 16.7854 0.817822C16.536 0.936313 16.4299 1.23457 16.5484 1.484C16.6668 1.73343 16.9651 1.83957 17.2145 1.72108Z" fill="#353566"/>
<path d="M11 3C6.30557 3 2.49999 6.80558 2.49999 11.5C2.49999 16.0012 5.99899 19.6855 10.425 19.9809C10.7006 19.9993 10.909 20.2375 10.8906 20.5131C10.8723 20.7886 10.634 20.997 10.3585 20.9787C8.29288 20.8408 6.40805 20.0429 4.91305 18.794L2.35355 21.3536C2.15829 21.5488 1.8417 21.5488 1.64644 21.3536C1.45118 21.1583 1.45118 20.8417 1.64644 20.6464L4.17972 18.1132C2.52102 16.4029 1.49999 14.0707 1.49999 11.5C1.49999 6.25329 5.75329 2 11 2C15.792 2 19.7545 5.54752 20.4061 10.1597C20.4448 10.4332 20.2544 10.6861 19.981 10.7248C19.7076 10.7634 19.4546 10.5731 19.416 10.2996C18.8331 6.1738 15.2868 3 11 3Z" fill="#353566"/>
<path d="M11.5 6.5C11.5 6.22386 11.2761 6 11 6C10.7239 6 10.5 6.22386 10.5 6.5V11.5C10.5 11.7761 10.7239 12 11 12C11.2761 12 11.5 11.7761 11.5 11.5V6.5Z" fill="#353566"/>
<path d="M18.5 15.5C18.5 15.2239 18.2761 15 18 15C17.7239 15 17.5 15.2239 17.5 15.5V18.0001C17.5 18.1672 17.5835 18.3234 17.7227 18.4161L19.2227 19.416C19.4524 19.5692 19.7629 19.5071 19.916 19.2773C20.0692 19.0476 20.0071 18.7371 19.7773 18.584L18.5 17.7325V15.5Z" fill="#353566"/>
<path fill-rule="evenodd" clip-rule="evenodd" d="M12.5 18C12.5 14.9624 14.9624 12.5 18 12.5C21.0376 12.5 23.5 14.9624 23.5 18C23.5 21.0376 21.0376 23.5 18 23.5C14.9624 23.5 12.5 21.0376 12.5 18ZM18 13.5C15.5147 13.5 13.5 15.5147 13.5 18C13.5 20.4853 15.5147 22.5 18 22.5C20.4853 22.5 22.5 20.4853 22.5 18C22.5 15.5147 20.4853 13.5 18 13.5Z" fill="#353566"/>
</g>
<defs>
<clipPath id="clip0_9001_303897">
<rect width="24" height="24" fill="white"/>
</clipPath>
</defs>
</svg>
