<svg width="24" height="24" viewBox="0 0 24 24" fill="none" xmlns="http://www.w3.org/2000/svg">
<path fill-rule="evenodd" clip-rule="evenodd" d="M3.44367 5.92315C3.26761 5.03759 3.32599 4.08838 3.45669 2.5H2C1.72386 2.5 1.5 2.27614 1.5 2C1.5 1.72386 1.72386 1.5 2 1.5H18C18.2761 1.5 18.5 1.72386 18.5 2C18.5 2.27614 18.2761 2.5 18 2.5H16.5432C16.6739 4.08838 16.7323 5.03759 16.5562 5.92315C16.3074 7.17468 15.7212 8.3344 14.8611 9.27692C14.1973 10.0043 13.3071 10.552 11.7143 11.5321L10.954 12L11.6364 12.4199L11.6373 12.4205C12.0851 12.6961 12.4768 12.9371 12.8198 13.154C13.0532 13.3016 13.1228 13.6105 12.9752 13.8439C12.8276 14.0773 12.5187 14.1468 12.2853 13.9992C11.9485 13.7862 11.563 13.549 11.1136 13.2724L10 12.5871L8.88971 13.2703C7.19511 14.3132 6.43494 14.7864 5.87753 15.3972C5.14023 16.2051 4.63779 17.1991 4.42452 18.2719C4.27627 19.0175 4.3233 19.8323 4.46027 21.5L9 21.5L9.00197 21.5H9.99803L10 21.5L12.2278 21.5C12.504 21.5 12.7278 21.7239 12.7278 22C12.7278 22.2761 12.504 22.5 12.2278 22.5H2C1.72386 22.5 1.5 22.2761 1.5 22C1.5 21.7239 1.72386 21.5 2 21.5H3.45674C3.32604 19.9116 3.26766 18.9624 3.44372 18.0769C3.69253 16.8253 4.27871 15.6656 5.13889 14.7231C5.80269 13.9957 6.69281 13.448 8.28569 12.4679L9.04596 12L8.28564 11.5321C6.69276 10.552 5.80264 10.0043 5.13884 9.27692C4.27867 8.3344 3.69249 7.17468 3.44367 5.92315ZM15.5397 2.5H4.46023C4.32325 4.16771 4.27622 4.98247 4.42447 5.72816C4.63775 6.8009 5.14019 7.79494 5.87748 8.60282C6.43489 9.21359 7.19506 9.68682 8.88966 10.7297L9.99995 11.4129L11.1102 10.7297C12.8049 9.68682 13.565 9.21359 14.1224 8.60282C14.8597 7.79494 15.3622 6.8009 15.5754 5.72816C15.7237 4.98247 15.6767 4.16771 15.5397 2.5Z" fill="#353566"/>
<path fill-rule="evenodd" clip-rule="evenodd" d="M14.8479 14.6281C15.1578 13.7906 16.3422 13.7906 16.6521 14.6281L16.9505 15.4345C17.2274 16.1827 17.8173 16.7726 18.5655 17.0495L19.3719 17.3479C20.2094 17.6578 20.2094 18.8422 19.3719 19.1521L18.5655 19.4505C17.8173 19.7274 17.2274 20.3173 16.9505 21.0655L16.6521 21.8719C16.3422 22.7094 15.1578 22.7094 14.8479 21.8719L14.5495 21.0655C14.2726 20.3173 13.6827 19.7274 12.9345 19.4505L12.1281 19.1521C11.2906 18.8422 11.2906 17.6578 12.1281 17.3479L12.9345 17.0495C13.6827 16.7726 14.2726 16.1827 14.5495 15.4345L14.8479 14.6281ZM15.75 15.0717L15.4873 15.7816C15.1092 16.8035 14.3035 17.6092 13.2816 17.9873L12.5717 18.25L13.2816 18.5127C14.3035 18.8908 15.1092 19.6965 15.4873 20.7184L15.75 21.4283L16.0127 20.7184C16.3908 19.6965 17.1965 18.8908 18.2184 18.5127L18.9283 18.25L18.2184 17.9873C17.1965 17.6092 16.3908 16.8035 16.0127 15.7816L15.75 15.0717Z" fill="#353566"/>
<path d="M20.1269 12.0883C20.0833 11.9706 19.9167 11.9706 19.8731 12.0883L19.6789 12.6133C19.4962 13.107 19.107 13.4962 18.6133 13.6789L18.0883 13.8731C17.9706 13.9167 17.9706 14.0833 18.0883 14.1269L18.6133 14.3211C19.107 14.5038 19.4962 14.893 19.6789 15.3867L19.8731 15.9117C19.9167 16.0294 20.0833 16.0294 20.1269 15.9117L20.3211 15.3867C20.5038 14.893 20.893 14.5038 21.3867 14.3211L21.9117 14.1269C22.0294 14.0833 22.0294 13.9167 21.9117 13.8731L21.3867 13.6789C20.893 13.4962 20.5038 13.107 20.3211 12.6133L20.1269 12.0883Z" fill="#353566"/>
</svg>
