<svg width="24" height="24" viewBox="0 0 24 24" fill="none" xmlns="http://www.w3.org/2000/svg">
<path fill-rule="evenodd" clip-rule="evenodd" d="M3.45669 2.5C3.32599 4.08838 3.26761 5.03759 3.44367 5.92315C3.69249 7.17468 4.27867 8.3344 5.13884 9.27692C5.80264 10.0043 6.69276 10.552 8.28564 11.5321L9.04596 12L8.28569 12.4679C6.69281 13.448 5.80269 13.9957 5.13889 14.7231C4.27871 15.6656 3.69253 16.8253 3.44372 18.0769C3.26766 18.9624 3.32604 19.9116 3.45674 21.5H2C1.72386 21.5 1.5 21.7239 1.5 22C1.5 22.2761 1.72386 22.5 2 22.5H12.8232C13.0993 22.5 13.3232 22.2761 13.3232 22C13.3232 21.7239 13.0993 21.5 12.8232 21.5L10 21.5L9.99803 21.5H9.00197L9 21.5L4.46027 21.5C4.3233 19.8323 4.27627 19.0175 4.42452 18.2719C4.63779 17.1991 5.14023 16.2051 5.87753 15.3972C6.43494 14.7864 7.19511 14.3132 8.88971 13.2703L10 12.5871L10.4208 12.846C10.656 12.9908 10.9639 12.9174 11.1087 12.6823C11.2515 12.4501 11.1819 12.147 10.9539 12.0001L11.7143 11.5321C13.3071 10.552 14.1973 10.0043 14.8611 9.27692C15.7212 8.3344 16.3074 7.17468 16.5562 5.92315C16.7323 5.03759 16.6739 4.08838 16.5432 2.5H18C18.2761 2.5 18.5 2.27614 18.5 2C18.5 1.72386 18.2761 1.5 18 1.5H2C1.72386 1.5 1.5 1.72386 1.5 2C1.5 2.27614 1.72386 2.5 2 2.5H3.45669ZM15.5397 2.5C15.6767 4.16771 15.7237 4.98247 15.5754 5.72816C15.3622 6.8009 14.8597 7.79494 14.1224 8.60282C13.565 9.21359 12.8049 9.68682 11.1102 10.7297L9.99995 11.4129L8.88966 10.7297C7.19506 9.68682 6.43489 9.21359 5.87748 8.60282C5.14019 7.79494 4.63775 6.8009 4.42447 5.72816C4.27622 4.98247 4.32325 4.16771 4.46023 2.5H15.5397Z" fill="#353566"/>
<path fill-rule="evenodd" clip-rule="evenodd" d="M21.8641 13.8092C21.0491 12.7049 19.847 12.3556 18.9021 12.5517L18.9002 12.5521C18.166 12.7076 17.5143 13.0554 17 13.6007C16.4857 13.0554 15.8341 12.7076 15.0999 12.5521L15.0979 12.5517C14.153 12.3556 12.951 12.7049 12.136 13.8092C11.2957 14.9478 11.2186 16.9092 12.3262 18.4463C13.098 19.5175 14.6666 20.9544 15.6741 21.8349C15.6931 21.8516 15.712 21.8682 15.7307 21.8846C16.0094 22.129 16.2574 22.3465 16.5751 22.4404C16.8441 22.5199 17.1559 22.5199 17.425 22.4404C17.7426 22.3465 17.9907 22.129 18.2692 21.8847C18.288 21.8682 18.3069 21.8516 18.326 21.8349C19.3335 20.9543 20.902 19.5175 21.6739 18.4463C22.7815 16.9092 22.7044 14.9477 21.8641 13.8092ZM19.1063 13.5307C19.6641 13.4153 20.4738 13.6095 21.0595 14.403C21.6202 15.1627 21.738 16.6467 20.8626 17.8617C20.1685 18.8248 18.6891 20.1894 17.6679 21.082C17.2983 21.4051 17.2221 21.4576 17.1415 21.4814C17.0575 21.5063 16.9426 21.5063 16.8585 21.4814C16.7779 21.4576 16.7018 21.4051 16.3322 21.082C15.3109 20.1894 13.8315 18.8248 13.1375 17.8617C12.262 16.6467 12.3799 15.1627 12.9406 14.403C13.5262 13.6095 14.336 13.4153 14.8938 13.5307C15.6317 13.6871 16.1513 14.0935 16.6039 14.6812C16.6985 14.8041 16.8449 14.8761 17 14.8761C17.1552 14.8761 17.3015 14.8041 17.3962 14.6812C17.8487 14.0935 18.3684 13.6871 19.1063 13.5307Z" fill="#353566"/>
</svg>
