<svg width="24" height="24" viewBox="0 0 24 24" fill="none" xmlns="http://www.w3.org/2000/svg">
<path fill-rule="evenodd" clip-rule="evenodd" d="M3.44367 5.92364C3.26761 5.03808 3.32599 4.08886 3.45669 2.50049H2C1.72386 2.50049 1.5 2.27663 1.5 2.00049C1.5 1.72435 1.72386 1.50049 2 1.50049H18C18.2761 1.50049 18.5 1.72435 18.5 2.00049C18.5 2.27663 18.2761 2.50049 18 2.50049H16.5432C16.6739 4.08886 16.7323 5.03808 16.5562 5.92364C16.3074 7.17517 15.7212 8.33489 14.8611 9.27741C14.1973 10.0048 13.3071 10.5525 11.7143 11.5326L10.954 12.0005L11.6432 12.4246C12.3872 12.8825 12.9768 13.2453 13.4546 13.5668C13.6837 13.721 13.7444 14.0317 13.5903 14.2608C13.4361 14.4899 13.1254 14.5506 12.8963 14.3964C12.438 14.088 11.8666 13.7363 11.1136 13.2729L10 12.5876L8.88971 13.2708C7.19511 14.3137 6.43494 14.7869 5.87753 15.3977C5.14023 16.2055 4.63779 17.1996 4.42452 18.2723C4.27627 19.018 4.3233 19.8328 4.46027 21.5005L9 21.5005C9.27614 21.5005 9.5 21.7243 9.5 22.0005C9.5 22.2766 9.27614 22.5005 9 22.5005L2 22.5005C1.72386 22.5005 1.5 22.2766 1.5 22.0005C1.5 21.7244 1.72386 21.5005 2 21.5005L3.45674 21.5005C3.32604 19.9121 3.26766 18.9629 3.44372 18.0773C3.69253 16.8258 4.27871 15.6661 5.13889 14.7236C5.80269 13.9962 6.69281 13.4485 8.28569 12.4684L9.04596 12.0005L8.28564 11.5326C6.69276 10.5525 5.80264 10.0048 5.13884 9.27741C4.27867 8.33489 3.69249 7.17517 3.44367 5.92364ZM15.5397 2.50049H4.46023C4.32325 4.1682 4.27622 4.98295 4.42447 5.72865C4.63775 6.80139 5.14019 7.79543 5.87748 8.6033C6.43489 9.21408 7.19506 9.68731 8.88966 10.7301L9.99995 11.4134L11.1102 10.7301C12.8049 9.68731 13.565 9.21408 14.1224 8.6033C14.8597 7.79543 15.3622 6.80139 15.5754 5.72865C15.7237 4.98295 15.6767 4.1682 15.5397 2.50049Z" fill="#353566"/>
<path fill-rule="evenodd" clip-rule="evenodd" d="M18.8776 11.8596C19.5638 11.3823 20.4745 11.3821 21.1609 11.8591C21.3081 11.9614 21.4496 12.1029 21.6405 12.2938L21.7066 12.3599C21.8976 12.5507 22.0393 12.6922 22.1417 12.8394C22.6192 13.5257 22.6194 14.4367 22.1422 15.1232C22.0398 15.2704 21.8982 15.4119 21.7072 15.6028L15.7308 21.5804C15.6643 21.6469 15.5804 21.6933 15.4888 21.7143L12.1116 22.4877C11.9438 22.5261 11.7681 22.4755 11.6464 22.3538C11.5247 22.232 11.4742 22.0562 11.5127 21.8885L12.287 18.5151C12.308 18.4236 12.3543 18.3398 12.4207 18.2734L18.3981 12.2945C18.5889 12.1036 18.7304 11.962 18.8776 11.8596ZM20.5902 12.6803C20.247 12.4418 19.7917 12.4419 19.4486 12.6805C19.3846 12.725 19.3107 12.7961 19.0723 13.0346L18.4168 13.6902L20.3113 15.5847L20.967 14.9288C21.2054 14.6903 21.2766 14.6164 21.3211 14.5524C21.5597 14.2091 21.5596 13.7537 21.3208 13.4105C21.2763 13.3465 21.2052 13.2726 20.9666 13.0342C20.7282 12.7958 20.6542 12.7247 20.5902 12.6803ZM19.6042 16.2918L17.7098 14.3974L13.2295 18.8788L12.6658 21.3349L15.1253 20.7716L19.6042 16.2918Z" fill="#353566"/>
</svg>
