<svg width="24" height="24" viewBox="0 0 24 24" fill="none" xmlns="http://www.w3.org/2000/svg">
<g clip-path="url(#clip0_9001_274728)">
<path d="M14.6226 0.5H7.37737C6.27642 0.499998 5.41948 0.499996 4.73209 0.556157C4.03416 0.61318 3.4671 0.730584 2.95704 0.990471C2.11031 1.4219 1.4219 2.11031 0.990471 2.95704C0.730584 3.4671 0.61318 4.03416 0.556157 4.73209C0.499996 5.41948 0.499998 6.27642 0.5 7.37737V11.7868C0.499998 12.811 0.499996 13.6082 0.548787 14.2491C0.598312 14.8996 0.700224 15.4299 0.926101 15.9114C1.37238 16.8626 2.13743 17.6276 3.08863 18.0739C3.57006 18.2998 4.10037 18.4017 4.7509 18.4512C5.39176 18.5 6.189 18.5 7.21309 18.5H7.23421C7.70536 18.5 7.84317 18.5045 7.96148 18.5382C8.10252 18.5783 8.233 18.6489 8.3437 18.7451C8.43655 18.8258 8.51566 18.9387 8.77319 19.3333L9.25447 20.0706C9.46683 20.3959 9.64475 20.6685 9.80601 20.8724C9.97092 21.0809 10.1616 21.2755 10.42 21.3839C10.791 21.5394 11.209 21.5394 11.58 21.3839C11.8384 21.2755 12.0291 21.0809 12.194 20.8724C12.3553 20.6685 12.5332 20.3958 12.7456 20.0704L13.2084 19.3615C13.4852 18.9375 13.5704 18.8165 13.672 18.7318C13.774 18.6468 13.8919 18.5829 14.0188 18.544C14.1452 18.5052 14.2931 18.5 14.7995 18.5H15.4032C15.6794 18.5 15.9032 18.2761 15.9032 18C15.9032 17.7239 15.6794 17.5 15.4032 17.5L14.7327 17.5C14.3229 17.4997 14.0137 17.4995 13.7254 17.588C13.4716 17.6659 13.2358 17.7936 13.0318 17.9636C12.8001 18.1566 12.6312 18.4157 12.4075 18.759L11.9211 19.5041C11.6925 19.8544 11.5393 20.0882 11.4097 20.2521C11.2804 20.4155 11.2179 20.4513 11.1933 20.4616C11.0697 20.5135 10.9303 20.5135 10.8067 20.4616C10.7821 20.4513 10.7196 20.4155 10.5903 20.2521C10.4607 20.0882 10.3075 19.8544 10.0789 19.5041L9.57667 18.7347C9.36835 18.4151 9.21125 18.1742 8.99955 17.9902C8.77817 17.7979 8.5172 17.6566 8.23513 17.5763C7.9654 17.4996 7.67773 17.4998 7.2963 17.5L7.23421 17.5C6.18457 17.5 5.42532 17.4997 4.82681 17.4541C4.23354 17.4089 3.83922 17.3215 3.51338 17.1686C2.77356 16.8215 2.17852 16.2264 1.83141 15.4866C1.67853 15.1608 1.59107 14.7665 1.5459 14.1732C1.50034 13.5747 1.5 12.8154 1.5 11.7658V7.4C1.5 6.27164 1.50039 5.45545 1.55284 4.81352C1.60481 4.17744 1.70539 3.75662 1.88148 3.41103C2.21703 2.75247 2.75247 2.21703 3.41103 1.88148C3.75662 1.70539 4.17744 1.60481 4.81352 1.55284C5.45545 1.50039 6.27164 1.5 7.4 1.5H14.6C15.7284 1.5 16.5446 1.50039 17.1865 1.55284C17.8226 1.60481 18.2434 1.70539 18.589 1.88148C19.2475 2.21703 19.783 2.75247 20.1185 3.41103C20.2946 3.75662 20.3952 4.17744 20.4472 4.81352C20.4996 5.45545 20.5 6.27164 20.5 7.4V10.0415C20.5 10.3177 20.7239 10.5415 21 10.5415C21.2761 10.5415 21.5 10.3177 21.5 10.0415V7.37726C21.5 6.27639 21.5 5.41944 21.4438 4.73209C21.3868 4.03416 21.2694 3.4671 21.0095 2.95704C20.5781 2.11031 19.8897 1.4219 19.043 0.990471C18.5329 0.730584 17.9658 0.61318 17.2679 0.556157C16.5805 0.499996 15.7236 0.499998 14.6226 0.5Z" fill="#353566"/>
<path d="M20 13V13.7749C19.3806 13.8384 18.8275 14.0239 18.3942 14.3377C17.8323 14.7446 17.5 15.3505 17.5 16.0817C17.5 17.0212 18.0144 17.6062 18.6308 17.9512C19.2156 18.2786 19.921 18.4104 20.4178 18.4932C20.921 18.5771 21.4656 18.689 21.8808 18.9214C22.2644 19.1361 22.5 19.427 22.5 19.9183C22.5 20.3157 22.3323 20.6257 22.0193 20.8524C21.6912 21.09 21.179 21.25 20.5 21.25C20.0396 21.25 19.7322 21.2005 19.4344 21.0824C19.1249 20.9596 18.7941 20.7505 18.3019 20.3778C18.0817 20.2111 17.7681 20.2544 17.6014 20.4746C17.4347 20.6947 17.478 21.0083 17.6982 21.175C18.206 21.5596 18.6252 21.8372 19.0657 22.0119C19.3706 22.1329 19.6711 22.199 20 22.2292V23C20 23.2761 20.2239 23.5 20.5 23.5C20.7761 23.5 21 23.2761 21 23V22.2251C21.6194 22.1616 22.1725 21.9761 22.6058 21.6623C23.1677 21.2554 23.5 20.6495 23.5 19.9183C23.5 18.9788 22.9856 18.3938 22.3693 18.0488C21.7845 17.7214 21.0791 17.5896 20.5822 17.5068C20.0791 17.4229 19.5345 17.311 19.1193 17.0786C18.7356 16.8639 18.5 16.573 18.5 16.0817C18.5 15.6843 18.6677 15.3743 18.9808 15.1476C19.3089 14.91 19.821 14.75 20.5 14.75C20.9604 14.75 21.2679 14.7995 21.5657 14.9176C21.8752 15.0404 22.206 15.2495 22.6982 15.6222C22.9183 15.7889 23.232 15.7455 23.3987 15.5254C23.5653 15.3052 23.522 14.9916 23.3019 14.8249C22.794 14.4404 22.3749 14.1627 21.9344 13.988C21.6294 13.8671 21.3289 13.801 21 13.7708V13C21 12.7239 20.7761 12.5 20.5 12.5C20.2239 12.5 20 12.7239 20 13Z" fill="#353566"/>
<path d="M15.5 8L6.5 8C6.22386 8 6 7.77614 6 7.5C6 7.22386 6.22386 7 6.5 7H15.5C15.7761 7 16 7.22386 16 7.5C16 7.77614 15.7761 8 15.5 8Z" fill="#353566"/>
<path d="M11.5 12L6.5 12C6.22386 12 6 11.7761 6 11.5C6 11.2239 6.22386 11 6.5 11L11.5 11C11.7761 11 12 11.2239 12 11.5C12 11.7761 11.7761 12 11.5 12Z" fill="#353566"/>
</g>
<defs>
<clipPath id="clip0_9001_274728">
<rect width="24" height="24" fill="white"/>
</clipPath>
</defs>
</svg>
