<svg width="24" height="24" viewBox="0 0 24 24" fill="none" xmlns="http://www.w3.org/2000/svg">
<path fill-rule="evenodd" clip-rule="evenodd" d="M12 9.125C10.9635 9.125 10.125 9.96348 10.125 11C10.125 12.0365 10.9635 12.875 12 12.875C13.0365 12.875 13.875 12.0365 13.875 11C13.875 9.96348 13.0365 9.125 12 9.125ZM11.375 11C11.375 10.6538 11.6538 10.375 12 10.375C12.3462 10.375 12.625 10.6538 12.625 11C12.625 11.3462 12.3462 11.625 12 11.625C11.6538 11.625 11.375 11.3462 11.375 11Z" fill="#353566"/>
<path fill-rule="evenodd" clip-rule="evenodd" d="M12 6.91675C13.9826 6.91675 15.9101 8.1297 16.8081 10.4234C16.9528 10.793 16.9528 11.2072 16.8081 11.5767C15.9101 13.8705 13.9826 15.0834 12 15.0834C10.0173 15.0834 8.08988 13.8705 7.19183 11.5767C7.04714 11.2072 7.04714 10.793 7.19183 10.4234C8.08988 8.1297 10.0173 6.91675 12 6.91675ZM12 8.41675C10.6638 8.41675 9.27235 9.22388 8.58859 10.9703C8.58156 10.9883 8.58156 11.0119 8.58859 11.0299C9.27235 12.7763 10.6638 13.5834 12 13.5834C13.3362 13.5834 14.7276 12.7763 15.4114 11.0299C15.4184 11.0119 15.4184 10.9883 15.4114 10.9703C14.7276 9.22388 13.3362 8.41675 12 8.41675Z" fill="#353566"/>
<path fill-rule="evenodd" clip-rule="evenodd" d="M12 1.25C8.21397 1.25 5.05264 4.13698 4.70987 7.90746L4.532 9.86397C4.36027 11.753 3.7192 13.5691 2.66706 15.1473L2.6338 15.1972C2.38354 15.5726 2.25 16.0137 2.25 16.4648C2.25 17.7269 3.27311 18.75 4.53518 18.75H19.4648C20.7269 18.75 21.75 17.7269 21.75 16.4648C21.75 16.0137 21.6165 15.5726 21.3662 15.1972L21.3329 15.1473C20.2808 13.5691 19.6397 11.753 19.468 9.86397L19.2901 7.90746C18.9474 4.13698 15.786 1.25 12 1.25ZM6.20371 8.04326C6.47624 5.0454 8.98978 2.75 12 2.75C15.0102 2.75 17.5238 5.0454 17.7963 8.04326L17.9742 9.99977C18.1685 12.1377 18.8941 14.1932 20.0849 15.9794L20.1181 16.0293C20.2041 16.1583 20.25 16.3098 20.25 16.4648C20.25 16.8985 19.8985 17.25 19.4648 17.25H4.53518C4.10154 17.25 3.75 16.8985 3.75 16.4648C3.75 16.3098 3.79588 16.1583 3.88187 16.0293L3.91513 15.9794C5.10593 14.1932 5.83148 12.1377 6.02584 9.99978L6.20371 8.04326Z" fill="#353566"/>
<path d="M10.0506 20.1243C9.84317 19.7658 9.38437 19.6433 9.02583 19.8507C8.66728 20.0581 8.54476 20.5169 8.75217 20.8754C9.39943 21.9943 10.611 22.7499 12 22.7499C13.389 22.7499 14.6006 21.9943 15.2479 20.8754C15.4553 20.5169 15.3328 20.0581 14.9742 19.8507C14.6157 19.6433 14.1569 19.7658 13.9495 20.1243C13.5593 20.7988 12.8319 21.2499 12 21.2499C11.1681 21.2499 10.4407 20.7988 10.0506 20.1243Z" fill="#353566"/>
</svg>
