<svg width="24" height="24" viewBox="0 0 24 24" fill="none" xmlns="http://www.w3.org/2000/svg">
<g clip-path="url(#clip0_9006_378)">
<path d="M10.5305 8.46949C10.8233 8.76238 10.8233 9.23725 10.5305 9.53015L8.06078 11.9998L10.5305 14.4695C10.8233 14.7624 10.8233 15.2373 10.5305 15.5301C10.2376 15.823 9.76269 15.823 9.46979 15.5301L6.46979 12.5301C6.1769 12.2373 6.1769 11.7624 6.46979 11.4695L9.46979 8.46949C9.76269 8.17659 10.2376 8.17659 10.5305 8.46949Z" fill="#353566"/>
<path d="M14.5305 8.46949C14.2376 8.17659 13.7627 8.17659 13.4698 8.46949C13.1769 8.76238 13.1769 9.23725 13.4698 9.53015L15.9395 11.9998L13.4698 14.4695C13.1769 14.7624 13.1769 15.2373 13.4698 15.5301C13.7627 15.823 14.2376 15.823 14.5305 15.5301L17.5305 12.5301C17.8233 12.2373 17.8233 11.7624 17.5305 11.4695L14.5305 8.46949Z" fill="#353566"/>
<path fill-rule="evenodd" clip-rule="evenodd" d="M0.25 12C0.25 5.51065 5.51065 0.25 12 0.25C18.4893 0.25 23.75 5.51065 23.75 12C23.75 18.4893 18.4893 23.75 12 23.75C5.51065 23.75 0.25 18.4893 0.25 12ZM12 1.75C6.33908 1.75 1.75 6.33908 1.75 12C1.75 17.6609 6.33908 22.25 12 22.25C17.6609 22.25 22.25 17.6609 22.25 12C22.25 6.33908 17.6609 1.75 12 1.75Z" fill="#353566"/>
</g>
<defs>
<clipPath id="clip0_9006_378">
<rect width="24" height="24" fill="white"/>
</clipPath>
</defs>
</svg>
