<svg width="24" height="24" viewBox="0 0 24 24" fill="none" xmlns="http://www.w3.org/2000/svg">
<g clip-path="url(#clip0_9006_708)">
<path fill-rule="evenodd" clip-rule="evenodd" d="M23.25 12C23.25 18.2132 18.2132 23.25 12 23.25C5.7868 23.25 0.75 18.2132 0.75 12C0.75 5.7868 5.7868 0.75 12 0.75C18.2132 0.75 23.25 5.7868 23.25 12ZM12.75 2.27842V6C12.75 6.41421 12.4142 6.75 12 6.75C11.5858 6.75 11.25 6.41421 11.25 6V2.27842C6.4632 2.64256 2.64256 6.4632 2.27842 11.25H6C6.41421 11.25 6.75 11.5858 6.75 12C6.75 12.4142 6.41421 12.75 6 12.75H2.27842C2.64256 17.5368 6.4632 21.3574 11.25 21.7216V18C11.25 17.5858 11.5858 17.25 12 17.25C12.4142 17.25 12.75 17.5858 12.75 18V21.7216C17.5368 21.3574 21.3574 17.5368 21.7216 12.75H18C17.5858 12.75 17.25 12.4142 17.25 12C17.25 11.5858 17.5858 11.25 18 11.25H21.7216C21.3574 6.4632 17.5368 2.64256 12.75 2.27842Z" fill="#353566"/>
</g>
<defs>
<clipPath id="clip0_9006_708">
<rect width="24" height="24" fill="white"/>
</clipPath>
</defs>
</svg>
