<svg width="24" height="24" viewBox="0 0 24 24" fill="none" xmlns="http://www.w3.org/2000/svg">
<path fill-rule="evenodd" clip-rule="evenodd" d="M12.0001 8.25C9.92899 8.25 8.25006 9.92893 8.25006 12C8.25006 14.0711 9.92899 15.75 12.0001 15.75C14.0711 15.75 15.7501 14.0711 15.7501 12C15.7501 9.92893 14.0711 8.25 12.0001 8.25ZM9.75006 12C9.75006 10.7574 10.7574 9.75 12.0001 9.75C13.2427 9.75 14.2501 10.7574 14.2501 12C14.2501 13.2426 13.2427 14.25 12.0001 14.25C10.7574 14.25 9.75006 13.2426 9.75006 12Z" fill="#353566"/>
<path fill-rule="evenodd" clip-rule="evenodd" d="M12 1.25C9.76235 1.25 8.1223 2.97407 7.9298 4.9498C6.12278 4.1298 3.81081 4.68835 2.69235 6.6256C1.57366 8.56322 2.24644 10.8453 3.86078 12C2.24644 13.1547 1.57366 15.4368 2.69235 17.3744C3.81083 19.3117 6.12281 19.8702 7.92984 19.0502C8.12247 21.0258 9.76245 22.7497 12 22.7497C14.2376 22.7497 15.8776 21.0257 16.0702 19.05C17.8773 19.8703 20.1895 19.3118 21.308 17.3744C22.4267 15.4368 21.7539 13.1547 20.1396 12C21.7539 10.8453 22.4267 8.56322 21.308 6.6256C20.1895 4.68826 17.8773 4.12974 16.0702 4.94993C15.8778 2.97417 14.2377 1.25 12 1.25ZM9.73784 6.58056C8.7895 4.86658 10.0285 2.75 12 2.75C13.9739 2.75 15.2135 4.8717 14.2587 6.58687C14.0595 6.94473 14.1842 7.39625 14.5388 7.60111C14.8935 7.80597 15.3469 7.68841 15.5574 7.33703C16.5657 5.65349 19.0222 5.66645 20.009 7.3756C20.996 9.08508 19.7783 11.2194 17.8154 11.2501C17.4058 11.2565 17.0771 11.5904 17.0771 12C17.0771 12.4096 17.4058 12.7435 17.8154 12.7499C19.7783 12.7806 20.996 14.9149 20.009 16.6244C19.0229 18.3324 16.5689 18.3465 15.5594 16.6663C15.3486 16.3155 14.8957 16.1984 14.5414 16.403C14.1871 16.6077 14.0621 17.0586 14.2606 17.4163C15.2118 19.1308 13.9726 21.2497 12 21.2497C10.0297 21.2497 8.79095 19.1356 9.73615 17.4222C9.93345 17.0645 9.80827 16.6147 9.45456 16.4105C9.10086 16.2062 8.64871 16.3225 8.4375 16.6721C7.42594 18.3465 4.97637 18.3304 3.99138 16.6244C3.00441 14.9149 4.22211 12.7806 6.18493 12.7499C6.59453 12.7435 6.92323 12.4096 6.92323 12C6.92323 11.5904 6.59453 11.2565 6.18493 11.2501C4.22211 11.2194 3.00441 9.08508 3.99138 7.3756C4.97692 5.6686 7.42863 5.65351 8.43919 7.33072C8.65018 7.68089 9.10273 7.79758 9.45674 7.59309C9.81074 7.3886 9.93576 6.93827 9.73784 6.58056Z" fill="#353566"/>
</svg>
