<svg width="24" height="24" viewBox="0 0 24 24" fill="none" xmlns="http://www.w3.org/2000/svg">
<path d="M15.4697 8.96967C15.7626 8.67678 16.2374 8.67678 16.5303 8.96967C16.8232 9.26256 16.8232 9.73744 16.5303 10.0303L14.5607 12L16.5303 13.9697C16.8232 14.2626 16.8232 14.7374 16.5303 15.0303C16.2374 15.3232 15.7626 15.3232 15.4697 15.0303L12.9697 12.5303C12.6768 12.2374 12.6768 11.7626 12.9697 11.4697L15.4697 8.96967Z" fill="#353566"/>
<path fill-rule="evenodd" clip-rule="evenodd" d="M5.46858 3.25H18.5314C19.2048 3.24999 19.7555 3.24998 20.2031 3.28655C20.6663 3.3244 21.0847 3.40514 21.4755 3.60423C22.087 3.91582 22.5842 4.413 22.8958 5.02453C23.0949 5.41527 23.1756 5.83367 23.2134 6.29693C23.25 6.74451 23.25 7.29525 23.25 7.96866V16.0313C23.25 16.7048 23.25 17.2555 23.2134 17.7031C23.1756 18.1663 23.0949 18.5847 22.8958 18.9755C22.5842 19.587 22.087 20.0842 21.4755 20.3958C21.0847 20.5949 20.6663 20.6756 20.2031 20.7134C19.7555 20.75 19.2048 20.75 18.5314 20.75H5.46856C4.79519 20.75 4.24449 20.75 3.79693 20.7134C3.33367 20.6756 2.91527 20.5949 2.52453 20.3958C1.913 20.0842 1.41582 19.587 1.10423 18.9755C0.905137 18.5847 0.824402 18.1663 0.786552 17.7031C0.749985 17.2555 0.749992 16.7048 0.75 16.0314V7.96858C0.749992 7.29521 0.749985 6.74449 0.786552 6.29693C0.824402 5.83367 0.905137 5.41527 1.10423 5.02453C1.41582 4.413 1.913 3.91582 2.52453 3.60423C2.91527 3.40514 3.33367 3.3244 3.79693 3.28655C4.24449 3.24998 4.79521 3.24999 5.46858 3.25ZM5.5 4.75H8.25L8.25 19.25H5.5C4.78756 19.25 4.29833 19.2494 3.91908 19.2184C3.54858 19.1882 3.34956 19.1327 3.20552 19.0593C2.87623 18.8915 2.60852 18.6238 2.44074 18.2945C2.36735 18.1504 2.31184 17.9514 2.28157 17.5809C2.25058 17.2017 2.25 16.7124 2.25 16V8C2.25 7.28756 2.25058 6.79833 2.28157 6.41908C2.31184 6.04858 2.36735 5.84956 2.44074 5.70552C2.60852 5.37623 2.87623 5.10852 3.20552 4.94074C3.34956 4.86735 3.54858 4.81184 3.91908 4.78157C4.29833 4.75058 4.78756 4.75 5.5 4.75ZM9.75 4.75L9.75 19.25H18.5C19.2124 19.25 19.7017 19.2494 20.0809 19.2184C20.4514 19.1882 20.6504 19.1327 20.7945 19.0593C21.1238 18.8915 21.3915 18.6238 21.5593 18.2945C21.6327 18.1504 21.6882 17.9514 21.7184 17.5809C21.7494 17.2017 21.75 16.7124 21.75 16V8C21.75 7.28756 21.7494 6.79833 21.7184 6.41908C21.6882 6.04858 21.6327 5.84956 21.5593 5.70552C21.3915 5.37623 21.1238 5.10852 20.7945 4.94074C20.6504 4.86735 20.4514 4.81184 20.0809 4.78157C19.7017 4.75058 19.2124 4.75 18.5 4.75H9.75Z" fill="#353566"/>
</svg>
