<svg width="24" height="24" viewBox="0 0 24 24" fill="none" xmlns="http://www.w3.org/2000/svg">
<path d="M10.25 2C10.25 1.58579 10.5858 1.25 11 1.25C16.9371 1.25 21.75 6.06294 21.75 12C21.75 17.9371 16.9371 22.75 11 22.75C10.5858 22.75 10.25 22.4142 10.25 22C10.25 21.5858 10.5858 21.25 11 21.25C16.1086 21.25 20.25 17.1086 20.25 12C20.25 6.89137 16.1086 2.75 11 2.75C10.5858 2.75 10.25 2.41421 10.25 2Z" fill="#353566"/>
<path d="M8.46967 6.46967C8.76256 6.17678 9.23744 6.17678 9.53033 6.46967L14.5303 11.4697C14.8232 11.7626 14.8232 12.2374 14.5303 12.5303L9.53033 17.5303C9.23744 17.8232 8.76256 17.8232 8.46967 17.5303C8.17678 17.2374 8.17678 16.7626 8.46967 16.4697L12.1893 12.75H3C2.58579 12.75 2.25 12.4142 2.25 12C2.25 11.5858 2.58579 11.25 3 11.25H12.1893L8.46967 7.53033C8.17678 7.23744 8.17678 6.76256 8.46967 6.46967Z" fill="#353566"/>
</svg>
