<svg width="24" height="24" viewBox="0 0 24 24" fill="none" xmlns="http://www.w3.org/2000/svg">
<path fill-rule="evenodd" clip-rule="evenodd" d="M16.2576 2.24897C16.4759 2.24857 16.7034 2.24815 16.9084 2.29736C17.5483 2.45096 18.048 2.95057 18.2016 3.59048C18.2509 3.79551 18.2504 4.02301 18.2501 4.24133L18.25 4.24902C20.7353 4.24911 22.7499 6.26379 22.7499 8.74902C22.7499 11.2343 20.7352 13.249 18.25 13.249C18.2502 13.9602 18.2482 14.4504 18.1464 14.8745C17.8172 16.2457 16.7467 17.3162 15.3756 17.6455C14.9424 17.7495 14.4404 17.7494 13.7045 17.7492L7.79605 17.7496C7.05999 17.7498 6.55797 17.75 6.12475 17.646C4.7535 17.3169 3.68282 16.2463 3.35361 14.8751C3.2496 14.4418 3.24975 13.9398 3.24997 13.2038L3.24999 4.2997L3.24992 4.242C3.24953 4.0237 3.24912 3.79622 3.29834 3.59121C3.45195 2.95135 3.95152 2.45175 4.59137 2.2981C4.79638 2.24887 5.02386 2.24926 5.24216 2.24964L5.29986 2.24971L16.1999 2.24905L16.2576 2.24897ZM16.4974 3.75185C16.4322 3.74918 16.3455 3.74904 16.2 3.74905L5.29995 3.74971C5.1544 3.74971 5.06774 3.74987 5.00259 3.75255C4.96149 3.75424 4.94372 3.75654 4.93936 3.75718L4.94161 3.75663L4.93825 3.75736C4.93825 3.75736 4.93861 3.7573 4.93936 3.75718C4.84979 3.77957 4.77983 3.84953 4.75744 3.93911C4.7568 3.94347 4.7545 3.96124 4.75281 4.00234C4.75013 4.06749 4.74999 4.15415 4.74999 4.2997V13.0995C4.74999 13.9796 4.75521 14.2877 4.81216 14.5249C5.00969 15.3476 5.65209 15.99 6.47485 16.1875C6.71205 16.2444 7.02009 16.2496 7.90018 16.2495L13.6002 16.2492C14.4802 16.2492 14.7882 16.2439 15.0254 16.187C15.848 15.9894 16.4903 15.3471 16.6878 14.5244C16.7448 14.2872 16.75 13.9792 16.75 13.0992V4.29905C16.75 4.15348 16.7498 4.06681 16.7472 4.00165C16.7455 3.96055 16.7432 3.94278 16.7425 3.93842C16.7201 3.84883 16.6502 3.77886 16.5606 3.75648L16.5617 3.75666C16.5617 3.75666 16.5605 3.75644 16.5583 3.75593L16.5606 3.75648C16.5562 3.75584 16.5385 3.75354 16.4974 3.75185ZM21.2499 8.74902C21.2499 10.4058 19.9068 11.749 18.25 11.749V5.74902C19.9068 5.74907 21.2499 7.0922 21.2499 8.74902Z" fill="#353566"/>
<path d="M2 20.249C1.58579 20.249 1.25 20.5848 1.25 20.999C1.25 21.4132 1.58579 21.749 2 21.749H22C22.4142 21.749 22.75 21.4132 22.75 20.999C22.75 20.5848 22.4142 20.249 22 20.249H2Z" fill="#353566"/>
</svg>
