<svg width="24" height="24" viewBox="0 0 24 24" fill="none" xmlns="http://www.w3.org/2000/svg">
<path fill-rule="evenodd" clip-rule="evenodd" d="M11.5034 5.98743C10.8699 5.67078 10.1243 5.67086 9.49093 5.98764L6.75364 7.35664C6.37182 7.5476 6.13057 7.93779 6.13037 8.3647C6.12982 9.54822 6.21068 10.6851 6.69372 11.7891C7.36367 13.3203 8.60622 14.5133 10.1345 15.1733C10.366 15.2732 10.6284 15.2732 10.8598 15.1733C12.3886 14.5131 13.6314 13.3187 14.3014 11.7872C14.7839 10.6843 14.8651 9.54852 14.8657 8.36617C14.8659 7.93851 14.6243 7.54749 14.2418 7.35627L11.5034 5.98743ZM10.1619 7.32921C10.373 7.22362 10.6216 7.22359 10.8327 7.32914L13.3656 8.59524C13.3651 9.49082 13.292 10.3519 12.9271 11.186C12.4447 12.2888 11.5808 13.1779 10.4971 13.6926C9.41383 13.1786 8.55015 12.29 8.06794 11.1879C7.70276 10.3532 7.62985 9.49153 7.63027 8.59535L10.1619 7.32921Z" fill="#353566"/>
<path fill-rule="evenodd" clip-rule="evenodd" d="M10.5 19.75C12.7843 19.75 14.8753 18.922 16.489 17.5497L21.4697 22.5303C21.7626 22.8232 22.2374 22.8232 22.5303 22.5303C22.8232 22.2374 22.8232 21.7626 22.5303 21.4697L17.5497 16.489C18.922 14.8753 19.75 12.7843 19.75 10.5C19.75 5.39137 15.6086 1.25 10.5 1.25C5.39137 1.25 1.25 5.39137 1.25 10.5C1.25 15.6086 5.39137 19.75 10.5 19.75ZM10.5 2.75C6.21979 2.75 2.75 6.21979 2.75 10.5C2.75 14.7802 6.21979 18.25 10.5 18.25C12.589 18.25 14.485 17.4235 15.8788 16.0796C15.905 16.0408 15.9353 16.004 15.9697 15.9697C16.004 15.9353 16.0408 15.905 16.0796 15.8788C17.4235 14.485 18.25 12.589 18.25 10.5C18.25 6.21979 14.7802 2.75 10.5 2.75Z" fill="#353566"/>
</svg>
