<svg width="24" height="24" viewBox="0 0 24 24" fill="none" xmlns="http://www.w3.org/2000/svg">
<g opacity="0.4">
<path d="M1 4.8C1 3.81991 1 3.32986 1.19074 2.95552C1.35852 2.62623 1.62623 2.35852 1.95552 2.19074C2.32986 2 2.81991 2 3.8 2H4.2C5.18009 2 5.67014 2 6.04448 2.19074C6.37377 2.35852 6.64148 2.62623 6.80926 2.95552C7 3.32986 7 3.81991 7 4.8C7 3.81991 7 3.32986 7.19074 2.95552C7.35852 2.62623 7.62623 2.35852 7.95552 2.19074C8.32986 2 8.81991 2 9.8 2H10.2C11.1801 2 11.6701 2 12.0445 2.19074C12.3738 2.35852 12.6415 2.62623 12.8093 2.95552C13 3.32986 13 3.81991 13 4.8V19.2C13 20.1801 13 20.6701 12.8093 21.0445C12.6415 21.3738 12.3738 21.6415 12.0445 21.8093C11.6701 22 11.1801 22 10.2 22H9.8C8.81991 22 8.32986 22 7.95552 21.8093C7.62623 21.6415 7.35852 21.3738 7.19074 21.0445C7 20.6701 7 20.1801 7 19.2C7 20.1801 7 20.6701 6.80926 21.0445C6.64148 21.3738 6.37377 21.6415 6.04448 21.8093C5.67014 22 5.18009 22 4.2 22H3.8C2.81991 22 2.32986 22 1.95552 21.8093C1.62623 21.6415 1.35852 21.3738 1.19074 21.0445C1 20.6701 1 20.1801 1 19.2V4.8Z" fill="#353566"/>
<path d="M13.1687 3.95377C13.074 4.36327 13.1923 4.83882 13.429 5.78991L16.883 19.6725C17.1196 20.6236 17.2379 21.0991 17.5134 21.4162C17.7557 21.695 18.08 21.8899 18.44 21.9729C18.8492 22.0673 19.3247 21.9485 20.2755 21.7109L20.6641 21.6138C21.615 21.3763 22.0904 21.2575 22.4075 20.9816C22.6865 20.739 22.8816 20.4143 22.9648 20.0541C23.0595 19.6446 22.9412 19.169 22.7046 18.218L19.2505 4.33537C19.0139 3.38428 18.8956 2.90873 18.6201 2.59169C18.3779 2.31282 18.0535 2.11792 17.6935 2.03493C17.2843 1.94057 16.8089 2.05936 15.858 2.29694L15.4694 2.39403C14.5186 2.6316 14.0431 2.75039 13.726 3.02623C13.447 3.26886 13.252 3.59355 13.1687 3.95377Z" fill="#353566"/>
</g>
<path fill-rule="evenodd" clip-rule="evenodd" d="M3.77892 1.49982L4.22108 1.49982C4.69322 1.49981 5.07785 1.49981 5.39011 1.52532C5.71285 1.55169 6.00207 1.60778 6.27148 1.74505C6.55469 1.88936 6.80248 2.09116 7.00007 2.33569C7.19765 2.09124 7.44538 1.8895 7.72852 1.74524C7.99793 1.60797 8.28715 1.55187 8.60989 1.5255C8.92215 1.49999 9.30678 1.49999 9.77892 1.5L10.2211 1.5C10.6932 1.49999 11.0778 1.49999 11.3901 1.5255C11.7128 1.55187 12.0021 1.60797 12.2715 1.74524C12.6948 1.96095 13.0391 2.30516 13.2548 2.72852C13.2611 2.74098 13.2673 2.75348 13.2733 2.76602C13.3133 2.72546 13.355 2.68633 13.3982 2.64874C13.6264 2.45023 13.8935 2.32568 14.2002 2.22186C14.497 2.12141 14.8702 2.02818 15.3282 1.91374L15.7577 1.80643C16.2158 1.69198 16.5889 1.59874 16.898 1.5478C17.2175 1.49516 17.5116 1.47948 17.8062 1.54739C18.269 1.6541 18.686 1.90468 18.9975 2.26323C19.1958 2.49139 19.32 2.75846 19.4235 3.06526C19.5237 3.36211 19.6165 3.73535 19.7305 4.19354L23.1947 18.117C23.3087 18.5752 23.4016 18.9484 23.4522 19.2576C23.5046 19.5772 23.52 19.8715 23.4518 20.1662C23.3448 20.6293 23.0939 21.0468 22.7353 21.3587C22.5071 21.5572 22.24 21.6818 21.9333 21.7856C21.6365 21.8861 21.2633 21.9793 20.8053 22.0937L20.3758 22.201C19.9177 22.3155 19.5446 22.4087 19.2354 22.4597C18.916 22.5123 18.6218 22.528 18.3273 22.4601C17.8645 22.3534 17.4474 22.1028 17.1359 21.7442C16.9377 21.5161 16.8135 21.249 16.71 20.9422C16.6098 20.6454 16.517 20.2721 16.403 19.814L13.5 8.14621L13.5 19.2211C13.5 19.6932 13.5 20.0779 13.4745 20.3901C13.4481 20.7128 13.392 21.0021 13.2548 21.2715C13.0391 21.6948 12.6948 22.0391 12.2715 22.2548C12.0021 22.392 11.7128 22.4481 11.3901 22.4745C11.0779 22.5 10.6933 22.5 10.2211 22.5L9.77891 22.5C9.30677 22.5 8.92215 22.5 8.60989 22.4745C8.28715 22.4481 7.99793 22.392 7.72852 22.2548C7.44531 22.1105 7.19753 21.9087 6.99993 21.6641C6.80236 21.9086 6.55462 22.1103 6.27148 22.2546C6.00207 22.3919 5.71285 22.4479 5.39011 22.4743C5.07785 22.4998 4.69323 22.4998 4.22109 22.4998L3.77891 22.4998C3.30679 22.4998 2.92214 22.4998 2.60989 22.4743C2.28715 22.4479 1.99793 22.3919 1.72852 22.2546C1.30516 22.0389 0.960951 21.6947 0.745236 21.2713C0.607966 21.0019 0.551872 20.7127 0.525503 20.3899C0.49999 20.0777 0.499995 19.693 0.5 19.2209L0.5 4.77874C0.499994 4.30659 0.49999 3.92197 0.525503 3.6097C0.551872 3.28697 0.607966 2.99775 0.745236 2.72834C0.960951 2.30497 1.30516 1.96077 1.72852 1.74505C1.99793 1.60778 2.28715 1.55169 2.60989 1.52532C2.92215 1.49981 3.30678 1.49981 3.77892 1.49982ZM12.5 7.5L12.5 16.5L7.5 16.5L7.5 7.5L12.5 7.5ZM12.5 17.5L7.5 17.5L7.5 19.2C7.5 19.6983 7.50039 20.0419 7.52218 20.3087C7.5435 20.5696 7.58277 20.7126 7.63624 20.8175C7.75608 21.0527 7.94731 21.2439 8.18251 21.3638C8.28745 21.4172 8.43042 21.4565 8.69132 21.4778C8.95805 21.4996 9.3017 21.5 9.8 21.5L10.2 21.5C10.6983 21.5 11.0419 21.4996 11.3087 21.4778C11.5696 21.4565 11.7126 21.4172 11.8175 21.3638C12.0527 21.2439 12.2439 21.0527 12.3638 20.8175C12.4172 20.7126 12.4565 20.5696 12.4778 20.3087C12.4996 20.0419 12.5 19.6983 12.5 19.2L12.5 17.5ZM1.5 17.5L1.5 19.1998C1.5 19.6981 1.50039 20.0418 1.52218 20.3085C1.5435 20.5694 1.58277 20.7124 1.63624 20.8173C1.75608 21.0525 1.94731 21.2437 2.18251 21.3636C2.28745 21.417 2.43042 21.4563 2.69132 21.4776C2.95805 21.4994 3.3017 21.4998 3.8 21.4998L4.2 21.4998C4.6983 21.4998 5.04195 21.4994 5.30868 21.4776C5.56958 21.4563 5.71255 21.417 5.81749 21.3636C6.05269 21.2437 6.24392 21.0525 6.36376 20.8173C6.41723 20.7124 6.4565 20.5694 6.47782 20.3085C6.49942 20.0441 6.49999 19.7041 6.5 19.2127L6.5 17.5L1.5 17.5ZM6.5 16.5L1.5 16.5L1.5 7.5L6.5 7.5L6.5 16.5ZM12.5 4.8L12.5 6.5L7.5 6.5L7.5 4.8C7.5 4.3017 7.50039 3.95805 7.52218 3.69132C7.5435 3.43042 7.58277 3.28745 7.63624 3.18251C7.75608 2.94731 7.94731 2.75608 8.18251 2.63624C8.28745 2.58277 8.43042 2.5435 8.69132 2.52218C8.95805 2.50039 9.3017 2.5 9.8 2.5L10.2 2.5C10.6983 2.5 11.0419 2.50039 11.3087 2.52218C11.5696 2.5435 11.7125 2.58277 11.8175 2.63624C12.0527 2.75608 12.2439 2.94731 12.3638 3.18251C12.4172 3.28745 12.4565 3.43042 12.4778 3.69132C12.4996 3.95805 12.5 4.3017 12.5 4.8ZM6.5 6.5L1.5 6.5L1.5 4.79982C1.5 4.30152 1.50039 3.95787 1.52218 3.69114C1.5435 3.43024 1.58277 3.28727 1.63624 3.18233C1.75608 2.94713 1.94731 2.7559 2.18251 2.63606C2.28745 2.58259 2.43042 2.54331 2.69132 2.522C2.95805 2.50021 3.3017 2.49982 3.8 2.49982L4.2 2.49982C4.6983 2.49982 5.04195 2.50021 5.30868 2.522C5.56958 2.54331 5.71255 2.58259 5.81749 2.63606C6.05269 2.7559 6.24392 2.94713 6.36376 3.18233C6.41723 3.28727 6.4565 3.43024 6.47782 3.69114C6.49938 3.95502 6.49999 4.29419 6.5 4.7839L6.5 6.5ZM14.0538 3.40334C14.1427 3.32601 14.2719 3.25324 14.5199 3.16932C14.7734 3.08351 15.1067 2.99983 15.5901 2.87904L15.9787 2.78196C16.4621 2.66117 16.7956 2.57824 17.0597 2.53473C17.3179 2.49218 17.4661 2.49563 17.5808 2.52208C17.838 2.58137 18.0697 2.72058 18.2427 2.91977C18.3199 3.00865 18.3925 3.13787 18.4762 3.38588C18.5618 3.63944 18.6451 3.97283 18.7654 4.45638L19.17 6.08259L14.3186 7.29473L13.914 5.66852C13.7937 5.18497 13.7111 4.85139 13.6679 4.58727C13.6256 4.32892 13.6291 4.18066 13.6557 4.06586C13.7152 3.80857 13.8545 3.57665 14.0538 3.40334ZM14.5601 8.26514L19.4115 7.053L21.5731 15.7413L16.7217 16.9534L14.5601 8.26514ZM16.9632 17.9238L17.3681 19.5511C17.4884 20.0346 17.5717 20.368 17.6573 20.6216C17.7409 20.8696 17.8136 20.9988 17.8908 21.0877C18.0638 21.2869 18.2955 21.4261 18.5526 21.4854C18.6674 21.5118 18.8155 21.5153 19.0738 21.4727C19.3378 21.4292 19.6713 21.3463 20.1548 21.2255L20.5434 21.1284C21.0268 21.0076 21.3601 20.924 21.6136 20.8382C21.8616 20.7542 21.9908 20.6815 22.0797 20.6041C22.279 20.4308 22.4183 20.1989 22.4778 19.9416C22.5043 19.8268 22.5079 19.6785 22.4656 19.4202C22.4223 19.1561 22.3398 18.8225 22.2194 18.339L21.8146 16.7117L16.9632 17.9238Z" fill="#353566"/>
</svg>
