<svg width="24" height="24" viewBox="0 0 24 24" fill="none" xmlns="http://www.w3.org/2000/svg">
<path opacity="0.4" d="M4 14.0218V5.5C4 3.567 5.567 2 7.5 2H20.5C21.3284 2 22 2.67157 22 3.5V15.5C22 16.3284 21.3284 17 20.5 17H13.4996C13.5093 16.586 13.3484 16.1699 13.0212 15.8658C11.4431 14.3989 9.32439 13.5 6.99935 13.5C5.94696 13.5 4.93684 13.6842 4 14.0218Z" fill="#353566"/>
<path d="M4.5 5.5C4.5 3.84315 5.84315 2.5 7.5 2.5H20.5C21.0523 2.5 21.5 2.94772 21.5 3.5V15.5C21.5 16.0523 21.0523 16.5 20.5 16.5H13.4266C13.5319 16.8244 13.5243 17.1785 13.4016 17.5H19.5V21.5H9.11289C9.05291 21.8212 8.91991 22.1778 8.71293 22.5H22C22.2761 22.5 22.5 22.2761 22.5 22C22.5 21.7239 22.2761 21.5 22 21.5H20.5V17.5C21.6046 17.5 22.5 16.6046 22.5 15.5V3.5C22.5 2.39543 21.6046 1.5 20.5 1.5H7.5C5.29086 1.5 3.5 3.29086 3.5 5.5V14.2195C3.8238 14.0799 4.1576 13.959 4.5 13.8583V5.5Z" fill="#353566"/>
<path d="M4.85075 21.1268C4.85075 21.4241 4.93268 21.7941 5.09769 22.1528C4.53759 21.8561 4.08271 21.3872 3.8036 20.8166C4.17287 21.0141 4.60382 21.1268 4.85075 21.1268Z" fill="#353566"/>
<path d="M2.34032 17.3295C3.56278 16.1938 5.19947 15.5 6.99934 15.5C8.79981 15.5 10.437 16.1943 11.6596 17.3307C11.8619 17.5187 12.1782 17.5071 12.3662 17.3049C12.5542 17.1026 12.5427 16.7862 12.3404 16.5982C10.9401 15.2967 9.06222 14.5 6.99934 14.5C4.93716 14.5 3.05981 15.2961 1.65969 16.5969C1.45738 16.7849 1.44574 17.1012 1.63369 17.3035C1.82164 17.5058 2.13801 17.5175 2.34032 17.3295Z" fill="#353566"/>
<path d="M7.00322 18.8334C6.1459 18.8334 5.3645 19.1951 4.7897 19.7915C4.59807 19.9903 4.28154 19.9961 4.08271 19.8045C3.88388 19.6129 3.87805 19.2963 4.06967 19.0975C4.8194 18.3196 5.85534 17.8334 7.00322 17.8334C8.15109 17.8334 9.18704 18.3196 9.93676 19.0975C10.1284 19.2963 10.1225 19.6129 9.92372 19.8045C9.72489 19.9961 9.40836 19.9903 9.21673 19.7915C8.64193 19.1951 7.86053 18.8334 7.00322 18.8334Z" fill="#353566"/>
<path d="M7 20.625C6.51675 20.625 6.125 21.0168 6.125 21.5C6.125 21.9832 6.51675 22.375 7 22.375C7.48325 22.375 7.8751 21.9832 7.8751 21.5C7.8751 21.0168 7.48325 20.625 7 20.625Z" fill="#353566"/>
</svg>
