<svg width="24" height="24" viewBox="0 0 24 24" fill="none" xmlns="http://www.w3.org/2000/svg">
<g opacity="0.4">
<path d="M15.0758 3.28482C14.8394 3.18545 14.5752 3.12075 14.2596 3.07862C14.5053 3.13188 14.7473 3.21328 14.9934 3.32603L15.0758 3.28482Z" fill="#353566"/>
<path d="M13.2476 3.01046C12.8384 3 12.3627 3 11.8 3H7.2C5.37983 3 4.46974 3 3.77453 3.35423C3.163 3.66582 2.66582 4.163 2.35423 4.77453C2 5.46974 2 6.37983 2 8.2V22.2811C2 22.6781 2.32187 23 2.71892 23C2.89964 23 3.07374 22.9319 3.20654 22.8093L8.41475 18.0018C8.79747 17.6485 8.98884 17.4718 9.20623 17.405C9.39766 17.3462 9.60234 17.3462 9.79377 17.405C10.0112 17.4718 10.2025 17.6485 10.5852 18.0018L15.7935 22.8093C15.9263 22.9319 16.1004 23 16.2811 23C16.6781 23 17 22.6781 17 22.2811V9.67726L14.9934 8.67397C14.5 8.9 14.0232 9 13.5 9C11.8431 9 10.5 7.65685 10.5 6C10.5 4.42814 11.7089 3.13863 13.2476 3.01046Z" fill="#353566"/>
</g>
<path fill-rule="evenodd" clip-rule="evenodd" d="M18.5005 2.5C18.5005 1.39543 19.3959 0.5 20.5005 0.5C21.6051 0.5 22.5005 1.39543 22.5005 2.5C22.5005 3.60457 21.6051 4.5 20.5005 4.5C19.8165 4.5 19.2126 4.15659 18.852 3.63278L15.3957 5.36092C15.4633 5.5616 15.5 5.77652 15.5 6C15.5 6.22348 15.4633 6.4384 15.3957 6.63908L18.852 8.36722C19.2126 7.8434 19.8165 7.5 20.5005 7.5C21.6051 7.5 22.5005 8.39543 22.5005 9.5C22.5005 10.6046 21.6051 11.5 20.5005 11.5C19.3959 11.5 18.5005 10.6046 18.5005 9.5C18.5005 9.43721 18.5034 9.37509 18.509 9.31378L14.8439 7.4812C14.4888 7.80356 14.0174 8 13.5 8C12.3954 8 11.5 7.10457 11.5 6C11.5 4.89543 12.3954 4 13.5 4C14.0174 4 14.4888 4.19644 14.8439 4.51879L18.509 2.68622C18.5034 2.62491 18.5005 2.56279 18.5005 2.5ZM20.5005 1.5C19.9482 1.5 19.5005 1.94771 19.5005 2.5C19.5005 3.05228 19.9482 3.5 20.5005 3.5C21.0528 3.5 21.5005 3.05228 21.5005 2.5C21.5005 1.94771 21.0528 1.5 20.5005 1.5ZM12.5 6C12.5 5.44771 12.9477 5 13.5 5C14.0523 5 14.5 5.44771 14.5 6C14.5 6.55228 14.0523 7 13.5 7C12.9477 7 12.5 6.55228 12.5 6ZM19.5005 9.5C19.5005 8.94771 19.9482 8.5 20.5005 8.5C21.0528 8.5 21.5005 8.94771 21.5005 9.5C21.5005 10.0523 21.0528 10.5 20.5005 10.5C19.9482 10.5 19.5005 10.0523 19.5005 9.5Z" fill="#353566"/>
<path d="M15.4525 2.90873C15.5134 2.93977 15.5734 2.97242 15.6323 3.00661L14.9934 3.32603C14.5 3.1 14.0232 3 13.5 3C12.8866 3 12.3163 3.18408 11.8411 3.5L7.2 3.5C6.28166 3.5 5.62298 3.50039 5.10612 3.54262C4.5951 3.58437 4.2669 3.66452 4.00153 3.79973C3.48408 4.06338 3.06338 4.48408 2.79973 5.00153C2.66452 5.2669 2.58437 5.5951 2.54262 6.10612C2.50039 6.62298 2.5 7.28166 2.5 8.2V22.2811C2.5 22.402 2.59801 22.5 2.71892 22.5C2.77395 22.5 2.82696 22.4793 2.8674 22.4419L8.08908 17.6219C8.26893 17.4559 8.4248 17.312 8.5633 17.203C8.71006 17.0875 8.86794 16.9859 9.05935 16.9271C9.34649 16.8388 9.65351 16.8388 9.94065 16.9271C10.1321 16.9859 10.2899 17.0875 10.4367 17.203C10.5752 17.312 10.7311 17.4559 10.9109 17.6219L16.1326 22.4419C16.173 22.4793 16.2261 22.5 16.2811 22.5C16.402 22.5 16.5 22.402 16.5 22.2811V9.42726L17.4654 9.90995C17.4767 9.94248 17.4882 9.97489 17.5 10.0072V22.2811C17.5 22.9543 16.9543 23.5 16.2811 23.5C15.9747 23.5 15.6795 23.3846 15.4543 23.1767L10.2461 18.3692C10.0489 18.1872 9.92208 18.0706 9.81832 17.9889C9.71938 17.9111 9.67287 17.891 9.64688 17.883C9.55117 17.8536 9.44883 17.8536 9.35312 17.883C9.32713 17.891 9.28062 17.9111 9.18168 17.9889C9.07792 18.0706 8.95106 18.1872 8.75389 18.3692L3.54568 23.1767C3.32052 23.3846 3.02534 23.5 2.71892 23.5C2.04573 23.5 1.5 22.9543 1.5 22.2811V8.17767C1.5 7.28649 1.49999 6.58703 1.54594 6.02469C1.59274 5.45183 1.68971 4.97738 1.90873 4.54754C2.26825 3.84193 2.84193 3.26825 3.54754 2.90873C3.97738 2.68971 4.45183 2.59274 5.02469 2.54594C5.58703 2.49999 6.28649 2.5 7.17766 2.5H11.8223C12.7135 2.5 13.413 2.49999 13.9753 2.54594C14.5482 2.59274 15.0226 2.68971 15.4525 2.90873Z" fill="#353566"/>
</svg>
