<svg width="24" height="24" viewBox="0 0 24 24" fill="none" xmlns="http://www.w3.org/2000/svg">
<path opacity="0.4" d="M3 5.5V19.5C3 18.1193 4.11929 17 5.5 17H19.5C20.3284 17 21 16.3284 21 15.5V3.5C21 2.67157 20.3284 2 19.5 2H6.5C4.567 2 3 3.567 3 5.5Z" fill="#353566"/>
<path fill-rule="evenodd" clip-rule="evenodd" d="M6.5 1.5C4.29086 1.5 2.5 3.29086 2.5 5.5V19.5C2.5 21.1569 3.84315 22.5 5.5 22.5H21C21.2761 22.5 21.5 22.2761 21.5 22C21.5 21.7239 21.2761 21.5 21 21.5H19.5V17.5C20.6046 17.5 21.5 16.6046 21.5 15.5V3.5C21.5 2.39543 20.6046 1.5 19.5 1.5H6.5ZM6.5 2.5C4.84315 2.5 3.5 3.84315 3.5 5.5V17.2639C4.03076 16.7889 4.73165 16.5 5.5 16.5H7.5V2.5H6.5ZM8.5 2.5V16.5H19.5C20.0523 16.5 20.5 16.0523 20.5 15.5V3.5C20.5 2.94772 20.0523 2.5 19.5 2.5H8.5ZM5.5 17.5C4.39543 17.5 3.5 18.3954 3.5 19.5C3.5 20.6046 4.39543 21.5 5.5 21.5H18.5V17.5H5.5Z" fill="#353566"/>
</svg>
