<svg width="24" height="24" viewBox="0 0 24 24" fill="none" xmlns="http://www.w3.org/2000/svg">
<g opacity="0.4">
<path d="M12 2.5C6.75329 2.5 2.5 6.75329 2.5 12C2.5 14.8276 3.73598 17.3672 5.69552 19.1067C5.83798 19.2332 6.03994 19.2677 6.21633 19.1957C6.35664 19.1385 6.50147 19.0762 6.65075 19.0086C8.74468 18.0608 11.3089 16.2564 13.7826 13.7827C16.2563 11.309 18.0607 8.74479 19.0085 6.65086C19.0761 6.50152 19.1384 6.35663 19.1957 6.21628C19.2677 6.03989 19.2331 5.83793 19.1067 5.69546C17.3671 3.73596 14.8276 2.5 12 2.5Z" fill="#353566"/>
<path d="M20.9837 8.90351C20.9192 8.71644 20.7505 8.58498 20.5534 8.56821C20.3562 8.55144 20.1677 8.65252 20.0726 8.82602C18.9785 10.8212 17.2988 13.0437 15.1712 15.1712C13.0437 17.2988 10.8212 18.9785 8.82602 20.0726C8.65252 20.1677 8.55144 20.3562 8.56821 20.5534C8.58498 20.7505 8.71644 20.9192 8.90352 20.9837C9.8747 21.3184 10.9166 21.4999 11.9999 21.4999C17.2466 21.4999 21.4999 17.2466 21.4999 11.9999C21.4999 10.9166 21.3184 9.8747 20.9837 8.90351Z" fill="#353566"/>
</g>
<path fill-rule="evenodd" clip-rule="evenodd" d="M14.8853 2.94634C16.2716 2.20595 17.5835 1.72053 18.7189 1.55925C19.8978 1.3918 20.9816 1.56412 21.7086 2.29113C22.332 2.91457 22.5475 3.80329 22.491 4.78073C22.4345 5.75875 22.1049 6.88591 21.5629 8.08342C21.4105 8.41998 21.2405 8.76408 21.0535 9.11421C21.3435 10.0249 21.4999 10.9947 21.4999 12.0001C21.4999 17.2468 17.2466 21.5001 11.9999 21.5001C10.9945 21.5001 10.0247 21.3438 9.11397 21.0537C8.76384 21.2407 8.41973 21.4107 8.08317 21.5631C6.88567 22.1052 5.7585 22.4348 4.78048 22.4913C3.80305 22.5477 2.91432 22.3322 2.29089 21.7088C1.56387 20.9818 1.39155 19.898 1.55901 18.7191C1.72028 17.5837 2.20571 16.2718 2.94609 14.8855C2.65631 13.9756 2.49988 13.0061 2.49988 12.0001C2.49988 6.75342 6.75317 2.50012 11.9999 2.50012C13.0058 2.50012 13.9753 2.65655 14.8853 2.94634ZM16.1268 3.44105C17.1465 2.96131 18.0727 2.66108 18.8595 2.54931C19.8941 2.40235 20.5938 2.59063 21.0015 2.99824C21.3514 3.34816 21.5396 3.91028 21.4927 4.72307C21.4458 5.53526 21.1649 6.53769 20.6518 7.67103C19.6274 9.93419 17.7231 12.6192 15.171 15.1713C12.619 17.7233 9.93394 19.6276 7.67079 20.6521C6.53744 21.1651 5.53502 21.446 4.72282 21.4929C3.91004 21.5399 3.34792 21.3516 2.998 21.0017C2.59038 20.5941 2.40211 19.8944 2.54907 18.8598C2.66083 18.0729 2.96106 17.1467 3.4408 16.127C4.01692 17.3197 4.83485 18.3735 5.83061 19.2246C6.04052 19.404 6.35614 19.3793 6.53555 19.1694C6.71497 18.9595 6.69025 18.6439 6.48033 18.4644C4.65541 16.9047 3.49988 14.5876 3.49988 12.0001C3.49988 7.3057 7.30546 3.50012 11.9999 3.50012C14.5874 3.50012 16.9044 4.65565 18.4642 6.48057C18.6436 6.69049 18.9592 6.71521 19.1691 6.5358C19.3791 6.35638 19.4038 6.04077 19.2244 5.83085C18.3733 4.83509 17.3195 4.01717 16.1268 3.44105ZM10.3478 20.3398C10.882 20.445 11.4343 20.5001 11.9999 20.5001C16.6943 20.5001 20.4999 16.6945 20.4999 12.0001C20.4999 11.4345 20.4447 10.8822 20.3395 10.3481C19.2201 12.1482 17.7026 14.0539 15.8781 15.8784C14.0537 17.7028 12.148 19.2203 10.3478 20.3398Z" fill="#353566"/>
</svg>
