<svg width="24" height="24" viewBox="0 0 24 24" fill="none" xmlns="http://www.w3.org/2000/svg">
<path opacity="0.4" fill-rule="evenodd" clip-rule="evenodd" d="M20.564 4.18404C21 5.03969 21 6.15979 21 8.4V13.5C17.8759 13.5 15.2665 15.7041 14.6421 18.6421L7.91421 11.9142C7.13316 11.1332 5.86683 11.1332 5.08579 11.9142L1.0001 15.9999L1 8.4C1 6.15979 1 5.03969 1.43597 4.18404C1.81947 3.43139 2.43139 2.81947 3.18404 2.43597C4.03968 2 5.15979 2 7.4 2H14.6C16.8402 2 17.9603 2 18.816 2.43597C19.5686 2.81947 20.1805 3.43139 20.564 4.18404ZM12.5 8.5C12.5 9.60457 13.3954 10.5 14.5 10.5C15.6046 10.5 16.5 9.60457 16.5 8.5C16.5 7.39543 15.6046 6.5 14.5 6.5C13.3954 6.5 12.5 7.39543 12.5 8.5Z" fill="#353566"/>
<path d="M14.6226 1.5C15.7236 1.5 16.5805 1.5 17.2679 1.55616C17.9658 1.61318 18.5329 1.73058 19.043 1.99047C19.8897 2.4219 20.5781 3.11031 21.0095 3.95704C21.2694 4.4671 21.3868 5.03416 21.4438 5.73209C21.5 6.41946 21.5 7.27636 21.5 8.37727V13.5189C21.335 13.5064 21.1682 13.5 21 13.5C20.8318 13.5 20.665 13.5064 20.5 13.5189V8.4C20.5 7.27164 20.4996 6.45545 20.4472 5.81352C20.3952 5.17744 20.2946 4.75662 20.1185 4.41103C19.783 3.75247 19.2475 3.21703 18.589 2.88148C18.2434 2.70539 17.8226 2.60481 17.1865 2.55284C16.5446 2.50039 15.7284 2.5 14.6 2.5H7.4C6.27164 2.5 5.45545 2.50039 4.81352 2.55284C4.17743 2.60481 3.75662 2.70539 3.41103 2.88148C2.75247 3.21703 2.21703 3.75247 1.88148 4.41103C1.70539 4.75662 1.60481 5.17744 1.55284 5.81352C1.50039 6.45545 1.5 7.27164 1.5 8.4V14.7929L4.73223 11.5607C5.70854 10.5844 7.29146 10.5844 8.26777 11.5607L14.788 18.0809C14.6719 18.4571 14.589 18.848 14.5428 19.25L7.56066 12.2678C6.97487 11.682 6.02512 11.682 5.43934 12.2678L1.50002 16.2071C1.50024 17.0399 1.50302 17.658 1.5369 18.1546C1.57322 18.687 1.64362 19.0429 1.76642 19.3394C2.12165 20.197 2.80301 20.8783 3.66061 21.2336C3.95707 21.3564 4.31304 21.4268 4.84541 21.4631C5.38227 21.4997 6.06128 21.5 7 21.5L14.6739 21.5C14.7554 21.8447 14.8642 22.1788 14.9981 22.4999L6.98123 22.5C6.0653 22.5 5.35218 22.5 4.77734 22.4608C4.19406 22.421 3.71655 22.3391 3.27793 22.1575C2.1753 21.7007 1.29926 20.8247 0.842543 19.7221C0.66086 19.2835 0.579018 18.8059 0.539221 18.2227C0.5 17.6478 0.5 16.9349 0.5 16.0191V16L0.500025 15.9951L0.5 15.99V8.37736C0.5 7.27653 0.5 6.41943 0.556158 5.73209C0.61318 5.03416 0.730583 4.4671 0.990471 3.95704C1.4219 3.11031 2.11031 2.4219 2.95704 1.99047C3.4671 1.73058 4.03416 1.61318 4.73209 1.55616C5.41948 1.5 6.27641 1.5 7.37737 1.5H14.6226Z" fill="#353566"/>
<path fill-rule="evenodd" clip-rule="evenodd" d="M14.5 6C15.8807 6 17 7.11929 17 8.5C17 9.88071 15.8807 11 14.5 11C13.1193 11 12 9.88071 12 8.5C12 7.11929 13.1193 6 14.5 6ZM16 8.5C16 7.67157 15.3284 7 14.5 7C13.6716 7 13 7.67157 13 8.5C13 9.32843 13.6716 10 14.5 10C15.3284 10 16 9.32843 16 8.5Z" fill="#353566"/>
<path d="M23.5 19C23.5 19.2761 23.2761 19.5 23 19.5H20.5V22C20.5 22.2761 20.2761 22.5 20 22.5C19.7239 22.5 19.5 22.2761 19.5 22V19.5H17C16.7239 19.5 16.5 19.2761 16.5 19C16.5 18.7239 16.7239 18.5 17 18.5H19.5V16C19.5 15.7239 19.7239 15.5 20 15.5C20.2761 15.5 20.5 15.7239 20.5 16V18.5H23C23.2761 18.5 23.5 18.7239 23.5 19Z" fill="#353566"/>
</svg>
