<svg width="24" height="24" viewBox="0 0 24 24" fill="none" xmlns="http://www.w3.org/2000/svg">
<path opacity="0.4" fill-rule="evenodd" clip-rule="evenodd" d="M1.38148 3.91103C1 4.65972 1 5.63982 1 7.6V13.4C1 15.3602 1 16.3403 1.38148 17.089C1.63953 17.5954 2.0158 18.0291 2.47538 18.355C2.02574 18.0361 1.65587 17.614 1.39844 17.1216L5.81191 12.7074C6.20246 12.3168 6.83573 12.3168 7.22626 12.7074L8.99923 14.4808L15.2929 8.18741C15.6834 7.7969 16.3166 7.79691 16.7071 8.18742L20.0377 11.518C20.7494 11.7004 21.4116 12.0065 22 12.412V7.6C22 5.63982 22 4.65972 21.6185 3.91103C21.283 3.25247 20.7475 2.71703 20.089 2.38148C19.3403 2 18.3602 2 16.4 2H6.6C4.63982 2 3.65972 2 2.91103 2.38148C2.25247 2.71703 1.71703 3.25247 1.38148 3.91103ZM8.5 7.5C8.5 8.32843 7.82843 9 7 9C6.17157 9 5.5 8.32843 5.5 7.5C5.5 6.67157 6.17157 6 7 6C7.82843 6 8.5 6.67157 8.5 7.5Z" fill="#353566"/>
<path d="M6.57755 1.49976H16.4225C17.3835 1.49975 18.1355 1.49975 18.7395 1.5491C19.3541 1.59931 19.8594 1.70309 20.316 1.93573C21.0686 2.31922 21.6805 2.93115 22.064 3.68379C22.2967 4.14037 22.4004 4.64569 22.4507 5.26025C22.5 5.86427 22.5 6.61621 22.5 7.5773V12.7953C22.1914 12.5326 21.8565 12.2997 21.5 12.1012V7.59976C21.5 6.61141 21.4996 5.90023 21.454 5.34168C21.4088 4.78897 21.3219 4.4299 21.173 4.13778C20.8854 3.5733 20.4265 3.11436 19.862 2.82674C19.5699 2.6779 19.2108 2.59094 18.6581 2.54578C18.0995 2.50014 17.3883 2.49976 16.4 2.49976H6.6C5.61166 2.49976 4.90047 2.50014 4.34192 2.54578C3.78921 2.59094 3.43014 2.6779 3.13803 2.82674C2.57354 3.11436 2.1146 3.5733 1.82698 4.13778C1.67814 4.4299 1.59118 4.78897 1.54602 5.34168C1.50039 5.90023 1.5 6.61141 1.5 7.59976V13.3998C1.5 14.3881 1.50039 15.0993 1.54602 15.6578C1.56273 15.8623 1.58516 16.0403 1.61433 16.1982L5.45833 12.3536C6.04415 11.7677 6.99406 11.7677 7.57986 12.3537L8.99928 13.7734L14.9394 7.8336C15.5252 7.24784 16.4749 7.24785 17.0607 7.83363L21.1457 11.9186C20.5367 11.6294 19.8728 11.437 19.1739 11.3611L16.3536 8.54073C16.1583 8.34547 15.8417 8.34547 15.6465 8.54073L9.35277 14.8341C9.259 14.9279 9.13181 14.9806 8.99919 14.9806C8.86658 14.9806 8.7394 14.9279 8.64563 14.8341L6.87267 13.0607C6.6774 12.8654 6.36076 12.8654 6.16549 13.0607L2.02771 17.1991C2.30974 17.6094 2.69075 17.9449 3.13803 18.1728C3.43014 18.3216 3.78921 18.4086 4.34192 18.4537C4.90047 18.4994 5.61166 18.4998 6.6 18.4998H12.4056C12.4615 18.8434 12.5459 19.1776 12.6561 19.4998H6.57754C5.61646 19.4998 4.86451 19.4998 4.26049 19.4504C3.64594 19.4002 3.14062 19.2964 2.68404 19.0638C1.94508 18.6873 1.34177 18.0905 0.95712 17.3566L0.953204 17.3491L0.935974 17.3157C0.703335 16.8591 0.599556 16.3538 0.549345 15.7393C0.499995 15.1352 0.499997 14.3833 0.5 13.4222V7.57731C0.499997 6.61622 0.499995 5.86427 0.549345 5.26025C0.599556 4.64569 0.703335 4.14037 0.935974 3.68379C1.31947 2.93115 1.93139 2.31922 2.68404 1.93573C3.14062 1.70309 3.64594 1.59931 4.26049 1.5491C4.86451 1.49975 5.61647 1.49975 6.57755 1.49976Z" fill="#353566"/>
<path fill-rule="evenodd" clip-rule="evenodd" d="M7 5.49976C5.89543 5.49976 5 6.39519 5 7.49976C5 8.60433 5.89543 9.49976 7 9.49976C8.10457 9.49976 9 8.60433 9 7.49976C9 6.39519 8.10457 5.49976 7 5.49976ZM6 7.49976C6 6.94747 6.44772 6.49976 7 6.49976C7.55228 6.49976 8 6.94747 8 7.49976C8 8.05204 7.55228 8.49976 7 8.49976C6.44772 8.49976 6 8.05204 6 7.49976Z" fill="#353566"/>
<path d="M20.6002 15.2262C20.7954 15.4215 20.7954 15.738 20.6002 15.9333L16.9335 19.6C16.7382 19.7952 16.4217 19.7952 16.2264 19.6C16.0311 19.4047 16.0311 19.0881 16.2264 18.8929L19.8931 15.2262C20.0883 15.0309 20.4049 15.0309 20.6002 15.2262Z" fill="#353566"/>
<path d="M17.0383 15.288C16.6241 15.288 16.2883 15.6238 16.2883 16.038C16.2883 16.4522 16.6242 16.788 17.0384 16.788C17.4526 16.788 17.7884 16.4522 17.7884 16.038C17.7884 15.6238 17.4525 15.288 17.0383 15.288Z" fill="#353566"/>
<path d="M19.7883 18.038C19.3741 18.038 19.0383 18.3738 19.0383 18.788C19.0383 19.2022 19.3741 19.538 19.7883 19.538C20.2025 19.538 20.5384 19.2022 20.5384 18.788C20.5384 18.3738 20.2025 18.038 19.7883 18.038Z" fill="#353566"/>
<path fill-rule="evenodd" clip-rule="evenodd" d="M13.33 17.4131C13.33 14.6056 15.6058 12.3298 18.4133 12.3298C21.2207 12.3298 23.4966 14.6056 23.4966 17.4131C23.4966 20.2205 21.2207 22.4964 18.4133 22.4964C15.6058 22.4964 13.33 20.2205 13.33 17.4131ZM18.4133 13.3298C16.1581 13.3298 14.33 15.1579 14.33 17.4131C14.33 19.6683 16.1581 21.4964 18.4133 21.4964C20.6685 21.4964 22.4966 19.6683 22.4966 17.4131C22.4966 15.1579 20.6685 13.3298 18.4133 13.3298Z" fill="#353566"/>
</svg>
