<svg width="24" height="24" viewBox="0 0 24 24" fill="none" xmlns="http://www.w3.org/2000/svg">
<path opacity="0.4" fill-rule="evenodd" clip-rule="evenodd" d="M1.88148 3.91103C1.5 4.65972 1.5 5.63982 1.5 7.6V13.4C1.5 15.3602 1.5 16.3403 1.88148 17.089C2.13953 17.5954 2.5158 18.0291 2.97538 18.355C2.52574 18.0361 2.15587 17.614 1.89844 17.1216L6.31191 12.7074C6.70246 12.3168 7.33573 12.3168 7.72626 12.7074L9.49923 14.4808L15.7929 8.18741C16.1834 7.7969 16.8166 7.79691 17.2071 8.18742L20.7944 11.7747C21.0463 11.5048 21.3785 11.3283 21.8424 11.3269H21.8491C22.1022 11.3269 22.3165 11.379 22.5 11.4699V7.6C22.5 5.63982 22.5 4.65972 22.1185 3.91103C21.783 3.25247 21.2475 2.71703 20.589 2.38148C19.8403 2 18.8602 2 16.9 2H7.1C5.13982 2 4.15972 2 3.41103 2.38148C2.75247 2.71703 2.21703 3.25247 1.88148 3.91103ZM9 7.5C9 8.32843 8.32843 9 7.5 9C6.67157 9 6 8.32843 6 7.5C6 6.67157 6.67157 6 7.5 6C8.32843 6 9 6.67157 9 7.5Z" fill="#353566"/>
<path d="M7.07761 1.49976C6.11651 1.49975 5.36455 1.49975 4.76052 1.5491C4.14596 1.59931 3.64064 1.70309 3.18406 1.93573C2.4314 2.31922 1.81947 2.93115 1.43598 3.68379C1.20334 4.14037 1.09956 4.64569 1.04935 5.26025C0.999995 5.86427 0.999997 6.61621 1 7.5773V13.4222C0.999997 14.3833 0.999995 15.1352 1.04935 15.7393C1.09956 16.3538 1.20334 16.8591 1.43598 17.3157C1.77154 17.9743 2.28199 18.5251 2.90858 18.9094C2.99809 18.9643 3.08997 19.0158 3.18406 19.0638C3.64064 19.2964 4.14615 19.4003 4.76071 19.4505C5.36469 19.4999 6.11657 19.4999 7.07755 19.4999H13.0093C12.8924 19.2744 12.8251 19.0075 12.8251 18.6863C12.8251 18.622 12.8278 18.5598 12.8331 18.4998H7.10005C6.1117 18.4998 5.40051 18.4994 4.84196 18.4537C4.28924 18.4086 3.93017 18.3216 3.63805 18.1728C3.53662 18.1211 3.4386 18.0639 3.34436 18.0015C3.02307 17.7889 2.74584 17.5163 2.52779 17.199L6.66554 13.0607C6.86081 12.8654 7.17745 12.8654 7.37272 13.0607L9.1457 14.8341C9.23947 14.9279 9.36665 14.9806 9.49927 14.9806C9.63188 14.9806 9.75907 14.9279 9.85285 14.8341L16.1466 8.54073C16.3419 8.34547 16.6584 8.34547 16.8537 8.54073L20.4996 12.1866C20.672 11.8807 20.8918 11.6214 21.197 11.4698L17.5608 7.83363C16.975 7.24785 16.0253 7.24784 15.4395 7.8336L9.49935 13.7734L8.07992 12.3537C7.49412 11.7677 6.5442 11.7677 5.95837 12.3536L2.11434 16.1982C2.08517 16.0403 2.06274 15.8623 2.04603 15.6578C2.0004 15.0993 2.00001 14.3881 2.00001 13.3998V7.59976C2.00001 6.61141 2.0004 5.90023 2.04603 5.34168C2.09119 4.78897 2.17815 4.4299 2.32699 4.13778C2.61461 3.5733 3.07356 3.11436 3.63805 2.82674C3.93017 2.6779 4.28924 2.59094 4.84196 2.54578C5.40051 2.50014 6.1117 2.49976 7.10005 2.49976H16.9001C17.8885 2.49976 18.5997 2.50014 19.1582 2.54578C19.7109 2.59094 20.07 2.6779 20.3621 2.82674C20.9266 3.11436 21.3856 3.5733 21.6732 4.13778C21.822 4.4299 21.909 4.78897 21.9542 5.34168C21.9998 5.90023 22.0002 6.61141 22.0002 7.59976V11.3331C22.4473 11.3723 22.7626 11.5863 23.0002 11.8874V7.5773C23.0002 6.61621 23.0002 5.86427 22.9508 5.26025C22.9006 4.64569 22.7969 4.14037 22.5642 3.68379C22.1807 2.93115 21.5688 2.31922 20.8161 1.93573C20.3595 1.70309 19.8542 1.59931 19.2397 1.5491C18.6356 1.49975 17.8837 1.49975 16.9226 1.49976H7.07761Z" fill="#353566"/>
<path fill-rule="evenodd" clip-rule="evenodd" d="M5.50004 7.49976C5.50004 6.39519 6.39548 5.49976 7.50006 5.49976C8.60463 5.49976 9.50007 6.39519 9.50007 7.49976C9.50007 8.60433 8.60463 9.49976 7.50006 9.49976C6.39548 9.49976 5.50004 8.60433 5.50004 7.49976ZM7.50006 6.49976C6.94777 6.49976 6.50005 6.94747 6.50005 7.49976C6.50005 8.05204 6.94777 8.49976 7.50006 8.49976C8.05235 8.49976 8.50006 8.05204 8.50006 7.49976C8.50006 6.94747 8.05235 6.49976 7.50006 6.49976Z" fill="#353566"/>
<path fill-rule="evenodd" clip-rule="evenodd" d="M16.908 15.2311C17.2055 14.4272 18.3426 14.4272 18.6401 15.2311L18.9136 15.9704C19.1632 16.6448 19.6949 17.1765 20.3693 17.4261L21.1086 17.6996C21.9125 17.9971 21.9125 19.1342 21.1086 19.4317L20.3693 19.7052C19.6949 19.9548 19.1632 20.4865 18.9136 21.161L18.6401 21.9002C18.3426 22.7042 17.2055 22.7042 16.908 21.9002L16.6345 21.161C16.3849 20.4865 15.8532 19.9548 15.1787 19.7052L14.4395 19.4317C13.6356 19.1342 13.6356 17.9971 14.4395 17.6996L15.1787 17.4261C15.8532 17.1765 16.3849 16.6448 16.6345 15.9704L16.908 15.2311ZM17.774 15.7723L17.5723 16.3174C17.2215 17.2656 16.4739 18.0131 15.5258 18.364L14.9806 18.5657L15.5258 18.7674C16.4739 19.1182 17.2215 19.8658 17.5723 20.8139L17.774 21.3591L17.9758 20.8139C18.3266 19.8658 19.0742 19.1182 20.0223 18.7674L20.5675 18.5657L20.0223 18.364C19.0742 18.0131 18.3266 17.2656 17.9758 16.3174L17.774 15.7723Z" fill="#353566"/>
<path d="M21.7862 12.9174C21.7462 12.8094 21.5935 12.8094 21.5536 12.9174L21.3755 13.3986C21.2081 13.8511 20.8513 14.2079 20.3987 14.3754L19.9175 14.5535C19.8096 14.5934 19.8096 14.7461 19.9175 14.7861L20.3987 14.9641C20.8513 15.1316 21.2081 15.4884 21.3755 15.9409L21.5536 16.4221C21.5935 16.5301 21.7462 16.5301 21.7862 16.4221L21.9642 15.9409C22.1317 15.4884 22.4885 15.1316 22.941 14.9641L23.4222 14.7861C23.5302 14.7461 23.5302 14.5934 23.4222 14.5535L22.941 14.3754C22.4885 14.2079 22.1317 13.8511 21.9642 13.3986L21.7862 12.9174Z" fill="#353566"/>
</svg>
