<svg width="24" height="24" viewBox="0 0 24 24" fill="none" xmlns="http://www.w3.org/2000/svg">
<path opacity="0.4" fill-rule="evenodd" clip-rule="evenodd" d="M1.88148 3.91103C1.5 4.65972 1.5 5.63982 1.5 7.6V13.4C1.5 15.3602 1.5 16.3403 1.88148 17.089C2.13953 17.5954 2.5158 18.0291 2.97538 18.355C2.52574 18.0361 2.15587 17.614 1.89844 17.1216L6.31191 12.7074C6.70246 12.3168 7.33573 12.3168 7.72626 12.7074L9.49923 14.4808L15.7929 8.18741C16.1834 7.7969 16.8166 7.79691 17.2071 8.18742L22.5 13.4803L22.5 7.6C22.5 5.63982 22.5 4.65972 22.1185 3.91103C21.783 3.25247 21.2475 2.71703 20.589 2.38148C19.8403 2 18.8602 2 16.9 2H7.1C5.13982 2 4.15972 2 3.41103 2.38148C2.75247 2.71703 2.21703 3.25247 1.88148 3.91103ZM9 7.5C9 8.32843 8.32843 9 7.5 9C6.67157 9 6 8.32843 6 7.5C6 6.67157 6.67157 6 7.5 6C8.32843 6 9 6.67157 9 7.5Z" fill="#353566"/>
<path fill-rule="evenodd" clip-rule="evenodd" d="M5.5 7.49976C5.5 6.39519 6.39543 5.49976 7.5 5.49976C8.60457 5.49976 9.5 6.39519 9.5 7.49976C9.5 8.60433 8.60457 9.49976 7.5 9.49976C6.39543 9.49976 5.5 8.60433 5.5 7.49976ZM7.5 6.49976C6.94772 6.49976 6.5 6.94747 6.5 7.49976C6.5 8.05204 6.94772 8.49976 7.5 8.49976C8.05228 8.49976 8.5 8.05204 8.5 7.49976C8.5 6.94747 8.05228 6.49976 7.5 6.49976Z" fill="#353566"/>
<path fill-rule="evenodd" clip-rule="evenodd" d="M7.07755 1.49976C6.11647 1.49975 5.36451 1.49975 4.76049 1.5491C4.14594 1.59931 3.64062 1.70309 3.18404 1.93573C2.43139 2.31922 1.81947 2.93115 1.43597 3.68379C1.20334 4.14037 1.09956 4.64569 1.04935 5.26025C0.999995 5.86427 0.999997 6.61621 1 7.5773V13.4222C0.999997 14.3833 0.999995 15.1352 1.04935 15.7393C1.09956 16.3538 1.20334 16.8591 1.43597 17.3157L1.45321 17.3491L1.45712 17.3566C1.84177 18.0905 2.44507 18.6873 3.18404 19.0638C3.64062 19.2964 4.14594 19.4002 4.76049 19.4504C5.36451 19.4998 6.11646 19.4998 7.07754 19.4998H15.8256C15.8643 19.4228 15.9104 19.3483 15.9643 19.2772C16.1767 18.9966 16.5987 18.6314 16.9038 18.4998H7.1C6.11166 18.4998 5.40047 18.4994 4.84192 18.4537C4.28921 18.4086 3.93014 18.3216 3.63803 18.1728C3.19075 17.9449 2.80974 17.6094 2.52771 17.1991L6.66549 13.0607C6.86076 12.8654 7.1774 12.8654 7.37267 13.0607L9.14563 14.8341C9.2394 14.9279 9.36658 14.9806 9.49919 14.9806C9.63181 14.9806 9.759 14.9279 9.85277 14.8341L16.1465 8.54073C16.3417 8.34547 16.6583 8.34547 16.8536 8.54073L19.6487 11.3359C20.2856 11.4175 20.8175 11.9401 20.8916 12.5788L21.0679 12.7551C21.6684 12.9702 22.2057 13.3438 22.7105 13.7261C22.8233 13.8115 22.9198 13.9104 22.9995 14.0189C22.9999 13.8513 23 13.6765 23 13.494C23.0003 13.4849 23.0003 13.4757 23 13.4665V7.5773C23 6.61621 23 5.86427 22.9507 5.26025C22.9004 4.64569 22.7967 4.14037 22.564 3.68379C22.1805 2.93115 21.5686 2.31922 20.816 1.93573C20.3594 1.70309 19.8541 1.59931 19.2395 1.5491C18.6355 1.49975 17.8835 1.49975 16.9225 1.49976H7.07755ZM22 12.273V7.59976C22 6.61141 21.9996 5.90023 21.954 5.34168C21.9088 4.78897 21.8219 4.4299 21.673 4.13778C21.3854 3.5733 20.9265 3.11436 20.362 2.82674C20.0699 2.6779 19.7108 2.59094 19.1581 2.54578C18.5995 2.50014 17.8883 2.49976 16.9 2.49976H7.1C6.11166 2.49976 5.40047 2.50014 4.84192 2.54578C4.28921 2.59094 3.93014 2.6779 3.63803 2.82674C3.07354 3.11436 2.6146 3.5733 2.32698 4.13778C2.17814 4.4299 2.09118 4.78897 2.04602 5.34168C2.00039 5.90023 2 6.61141 2 7.59976V13.3998C2 14.3881 2.00039 15.0993 2.04602 15.6578C2.06273 15.8623 2.08516 16.0403 2.11433 16.1982L5.95833 12.3536C6.54415 11.7677 7.49406 11.7677 8.07986 12.3537L9.49928 13.7734L15.4394 7.8336C16.0252 7.24784 16.9749 7.24785 17.5607 7.83363L22 12.273Z" fill="#353566"/>
<path d="M19.8916 12.8298V13.4986C20.1817 13.5281 20.4498 13.5889 20.7218 13.6968C21.1311 13.8591 21.519 14.1165 21.9852 14.4694C22.2053 14.6361 22.2487 14.9497 22.082 15.1699C21.9153 15.39 21.6017 15.4334 21.3815 15.2667C20.931 14.9255 20.6314 14.7367 20.3532 14.6263C20.0866 14.5206 19.8104 14.4757 19.3917 14.4757C18.7752 14.4757 18.3151 14.621 18.0235 14.8322C17.7469 15.0325 17.6 15.3043 17.6 15.6547C17.6 16.0864 17.8044 16.3408 18.1463 16.5322C18.5199 16.7413 19.0124 16.843 19.4739 16.92C19.929 16.9958 20.5824 17.1175 21.1255 17.4215C21.7002 17.7432 22.1833 18.2917 22.1833 19.1716C22.1833 19.8558 21.8719 20.4235 21.3464 20.804C20.9508 21.0905 20.45 21.2612 19.8916 21.3236V21.9964C19.8916 22.2725 19.6677 22.4964 19.3916 22.4964C19.1155 22.4964 18.8916 22.2725 18.8916 21.9964V21.3277C18.6016 21.2982 18.3335 21.2374 18.0615 21.1295C17.6522 20.9672 17.2643 20.7098 16.7982 20.3568C16.578 20.1901 16.5347 19.8765 16.7014 19.6564C16.8681 19.4362 17.1817 19.3929 17.4018 19.5596C17.8524 19.9007 18.1519 20.0896 18.4302 20.1999C18.6949 20.3049 18.9691 20.35 19.3829 20.3506L19.3916 20.3506L19.4002 20.3506C20.0124 20.3493 20.4696 20.2043 20.7599 19.9941C21.0365 19.7938 21.1833 19.522 21.1833 19.1716C21.1833 18.7399 20.979 18.4855 20.637 18.2941C20.2635 18.085 19.771 17.9833 19.3095 17.9063C18.8543 17.8305 18.201 17.7088 17.6579 17.4048C17.0831 17.0831 16.6 16.5346 16.6 15.6547C16.6 14.9705 16.9115 14.4028 17.4369 14.0223C17.8325 13.7358 18.3333 13.5651 18.8916 13.5027V12.8298C18.8916 12.5537 19.1155 12.3298 19.3916 12.3298C19.6677 12.3298 19.8916 12.5537 19.8916 12.8298Z" fill="#353566"/>
</svg>
