<svg width="24" height="24" viewBox="0 0 24 24" fill="none" xmlns="http://www.w3.org/2000/svg">
<path opacity="0.4" fill-rule="evenodd" clip-rule="evenodd" d="M2 8.2V12.9256C2 15.3274 2 16.5283 2.44665 17.4546C2.88875 18.3714 3.62861 19.1112 4.54542 19.5533C5.47168 20 6.67258 20 9.0744 20C9.22529 20 9.30073 20 9.36933 20.02C9.43754 20.0399 9.50072 20.0741 9.55466 20.1204C9.60892 20.1669 9.65016 20.23 9.73263 20.3564L10.6602 21.7774C11.107 22.4619 11.3303 22.8041 11.6133 22.9227C11.8607 23.0264 12.1393 23.0264 12.3867 22.9227C12.6697 22.8041 12.893 22.4619 13.3398 21.7774L14.2674 20.3564C14.3498 20.23 14.3911 20.1669 14.4453 20.1204C14.4993 20.0741 14.5625 20.0399 14.6307 20.02C14.6993 20 14.7747 20 14.9256 20C17.3274 20 18.5283 20 19.4546 19.5533C20.3714 19.1112 21.1112 18.3714 21.5533 17.4546C22 16.5283 22 15.3274 22 12.9256V8.2C22 5.67976 22 4.41965 21.5095 3.45704C21.0781 2.61031 20.3897 1.9219 19.543 1.49047C18.5804 1 17.3202 1 14.8 1H9.2C6.67976 1 5.41965 1 4.45704 1.49047C3.61031 1.9219 2.9219 2.61031 2.49047 3.45704C2 4.41965 2 5.67976 2 8.2ZM16.2011 8.4232L12.5839 9.47821V14.5726L12.5839 14.5831C12.5839 15.2416 12.2467 15.8527 11.6671 16.2874C11.0938 16.7174 10.3678 16.9167 9.66697 16.9167C8.96611 16.9167 8.24017 16.7174 7.66684 16.2874C7.08727 15.8527 6.75 15.2416 6.75 14.5831C6.75 13.9246 7.08727 13.3135 7.66684 12.8788C8.24017 12.4488 8.96611 12.2495 9.66697 12.2495C10.2695 12.2495 10.8905 12.3968 11.4172 12.7114V6.66043C11.4172 5.88258 11.9306 5.19808 12.6773 4.98028L15.571 4.13629C16.4111 3.89127 17.2512 4.52131 17.2512 5.39638V7.02309C17.2512 7.67129 16.8234 8.2417 16.2011 8.4232Z" fill="#353566"/>
<path fill-rule="evenodd" clip-rule="evenodd" d="M16.2011 8.42324L12.5839 9.47826V14.5832C12.5839 15.2416 12.2467 15.8527 11.6671 16.2874C11.0938 16.7174 10.3678 16.9167 9.66697 16.9167C8.96611 16.9167 8.24017 16.7174 7.66684 16.2874C7.08727 15.8527 6.75 15.2416 6.75 14.5831C6.75 13.9247 7.08727 13.3136 7.66684 12.8789C8.24017 12.4489 8.96611 12.2496 9.66697 12.2496C10.2695 12.2496 10.8906 12.3969 11.4173 12.7114V6.66048C11.4173 5.88263 11.9306 5.19813 12.6774 4.98033L15.5711 4.13634C16.4111 3.89132 17.2512 4.52136 17.2512 5.39643V7.02314C17.2512 7.67133 16.8234 8.24175 16.2011 8.42324ZM15.8977 5.25634C15.9911 5.2291 16.0845 5.29914 16.0845 5.39643V7.02314C16.0845 7.15282 15.9989 7.26693 15.8744 7.30324L12.5839 8.26298V6.66048C12.5839 6.40115 12.7551 6.17294 13.004 6.10033L15.8977 5.25634ZM10.9671 13.8122C11.2986 14.0608 11.4171 14.3453 11.4173 14.5825C11.4173 14.8199 11.2989 15.1053 10.9671 15.3541C10.6291 15.6076 10.1606 15.75 9.66697 15.75C9.17336 15.75 8.70485 15.6076 8.36684 15.3541C8.03507 15.1053 7.91667 14.8205 7.91667 14.5831C7.91667 14.3458 8.03507 14.061 8.36684 13.8122C8.70485 13.5587 9.17337 13.4163 9.66697 13.4163C10.1606 13.4163 10.6291 13.5587 10.9671 13.8122Z" fill="#353566"/>
<path fill-rule="evenodd" clip-rule="evenodd" d="M15.6226 0.5H8.37737C7.27642 0.499997 6.41948 0.499995 5.73209 0.556157C5.03416 0.61318 4.4671 0.730584 3.95704 0.990471C3.11031 1.4219 2.4219 2.11031 1.99047 2.95704C1.73058 3.4671 1.61318 4.03416 1.55616 4.73209C1.5 5.41948 1.5 6.27641 1.5 7.37737V13.6226C1.5 14.7236 1.5 15.5805 1.55616 16.2679C1.61318 16.9658 1.73058 17.5329 1.99047 18.043C2.4219 18.8897 3.11031 19.5781 3.95704 20.0095C4.4671 20.2694 5.03416 20.3868 5.73209 20.4438C6.41947 20.5 7.27639 20.5 8.37734 20.5H9.06685C9.15145 20.5 9.19444 20.5002 9.22559 20.5019L9.22814 20.5021L9.22966 20.5042C9.24817 20.5293 9.27182 20.5652 9.31807 20.636L10.2543 22.0704C10.4667 22.3958 10.6447 22.6685 10.806 22.8724C10.9709 23.0809 11.1616 23.2755 11.42 23.3839C11.791 23.5394 12.209 23.5394 12.58 23.3839C12.8384 23.2755 13.0291 23.0809 13.194 22.8724C13.3553 22.6685 13.5332 22.3959 13.7456 22.0705L14.6819 20.636C14.7282 20.5652 14.7518 20.5293 14.7703 20.5042L14.7719 20.5021L14.7744 20.5019C14.8056 20.5002 14.8486 20.5 14.9332 20.5H15.6226C16.7236 20.5 17.5805 20.5 18.2679 20.4438C18.9658 20.3868 19.5329 20.2694 20.043 20.0095C20.8897 19.5781 21.5781 18.8897 22.0095 18.043C22.2694 17.5329 22.3868 16.9658 22.4438 16.2679C22.5 15.5805 22.5 14.7236 22.5 13.6227V7.37736C22.5 6.27642 22.5 5.41947 22.4438 4.73209C22.3868 4.03416 22.2694 3.4671 22.0095 2.95704C21.5781 2.11031 20.8897 1.4219 20.043 0.990471C19.5329 0.730584 18.9658 0.61318 18.2679 0.556157C17.5805 0.499995 16.7236 0.499997 15.6226 0.5ZM4.41103 1.88148C4.75662 1.70539 5.17744 1.60481 5.81352 1.55284C6.45545 1.50039 7.27164 1.5 8.4 1.5H15.6C16.7284 1.5 17.5446 1.50039 18.1865 1.55284C18.8226 1.60481 19.2434 1.70539 19.589 1.88148C20.2475 2.21703 20.783 2.75247 21.1185 3.41103C21.2946 3.75662 21.3952 4.17744 21.4472 4.81352C21.4996 5.45545 21.5 6.27164 21.5 7.4V13.6C21.5 14.7284 21.4996 15.5446 21.4472 16.1865C21.3952 16.8226 21.2946 17.2434 21.1185 17.589C20.783 18.2475 20.2475 18.783 19.589 19.1185C19.2434 19.2946 18.8226 19.3952 18.1865 19.4472C17.5446 19.4996 16.7284 19.5 15.6 19.5H14.9332L14.8999 19.4999C14.7777 19.4995 14.624 19.499 14.4774 19.544C14.3504 19.583 14.2325 19.6468 14.1305 19.7318C14.0127 19.83 13.9291 19.959 13.8626 20.0616L13.8445 20.0894L12.9211 21.5041C12.6925 21.8544 12.5393 22.0882 12.4097 22.2521C12.2804 22.4155 12.2179 22.4513 12.1933 22.4616C12.0697 22.5135 11.9303 22.5135 11.8067 22.4616C11.7821 22.4513 11.7196 22.4155 11.5903 22.2521C11.4607 22.0882 11.3075 21.8544 11.0789 21.5041L10.1555 20.0894L10.1374 20.0615C10.0709 19.959 9.98734 19.83 9.86947 19.7318C9.76748 19.6468 9.64958 19.583 9.52265 19.544C9.37597 19.499 9.22227 19.4995 9.1001 19.4999L9.06685 19.5H8.4C7.27164 19.5 6.45545 19.4996 5.81352 19.4472C5.17744 19.3952 4.75662 19.2946 4.41103 19.1185C3.75247 18.783 3.21703 18.2475 2.88148 17.589C2.70539 17.2434 2.60481 16.8226 2.55284 16.1865C2.50039 15.5446 2.5 14.7284 2.5 13.6V7.4C2.5 6.27164 2.50039 5.45545 2.55284 4.81352C2.60481 4.17744 2.70539 3.75662 2.88148 3.41103C3.21703 2.75247 3.75247 2.21703 4.41103 1.88148Z" fill="#353566"/>
</svg>
