<svg width="24" height="24" viewBox="0 0 24 24" fill="none" xmlns="http://www.w3.org/2000/svg">
<g clip-path="url(#clip0_9001_272985)">
<path d="M14.6226 0.500244H7.37737C6.27642 0.500242 5.41948 0.50024 4.73209 0.556402C4.03416 0.613425 3.4671 0.730828 2.95704 0.990715C2.11031 1.42215 1.4219 2.11056 0.990471 2.95729C0.730584 3.46734 0.61318 4.03441 0.556157 4.73234C0.499996 5.41972 0.499997 6.27666 0.5 7.37761V14.6229C0.499997 15.7238 0.499995 16.5808 0.556157 17.2682C0.61318 17.9661 0.730584 18.5331 0.990471 19.0432C1.4219 19.8899 2.11031 20.5783 2.95704 21.0098C3.4671 21.2697 4.03416 21.3871 4.73209 21.4441C5.41946 21.5002 6.27637 21.5002 7.37729 21.5002H12.9346C13.2107 21.5002 13.4346 21.2764 13.4346 21.0002C13.4346 20.7241 13.2107 20.5002 12.9346 20.5002H7.4C6.27165 20.5002 5.45545 20.4999 4.81352 20.4474C4.17744 20.3954 3.75662 20.2949 3.41103 20.1188C2.75247 19.7832 2.21703 19.2478 1.88148 18.5892C1.70539 18.2436 1.60481 17.8228 1.55284 17.1867C1.50039 16.5448 1.5 15.7286 1.5 14.6002V7.40024C1.5 6.27189 1.50039 5.45569 1.55284 4.81377C1.60481 4.17768 1.70539 3.75687 1.88148 3.41128C2.21703 2.75271 2.75247 2.21728 3.41103 1.88172C3.75662 1.70563 4.17744 1.60505 4.81352 1.55308C5.45545 1.50063 6.27164 1.50024 7.4 1.50024H14.6C15.7284 1.50024 16.5446 1.50063 17.1865 1.55308C17.8226 1.60505 18.2434 1.70563 18.589 1.88172C19.2475 2.21728 19.783 2.75271 20.1185 3.41128C20.2946 3.75687 20.3952 4.17768 20.4472 4.81377C20.4996 5.45569 20.5 6.27189 20.5 7.40024L20.5 13.7326C20.4999 14.0087 20.7237 14.2327 20.9998 14.2328C21.276 14.2329 21.4999 14.0091 21.5 13.7329L21.5 7.3776C21.5 6.27668 21.5 5.41971 21.4438 4.73234C21.3868 4.03441 21.2694 3.46734 21.0095 2.95729C20.5781 2.11056 19.8897 1.42215 19.043 0.990715C18.5329 0.730828 17.9658 0.613425 17.2679 0.556402C16.5805 0.50024 15.7236 0.500242 14.6226 0.500244Z" fill="#353566"/>
<path d="M16.3536 8.64669C16.1583 8.45143 15.8417 8.45143 15.6464 8.64669L12.5 11.7931L9.85355 9.14669C9.65829 8.95143 9.34171 8.95143 9.14645 9.14669L5.64645 12.6467C5.45118 12.842 5.45118 13.1585 5.64645 13.3538C5.84171 13.5491 6.15829 13.5491 6.35355 13.3538L9.5 10.2074L12.1464 12.8538C12.3417 13.0491 12.6583 13.0491 12.8536 12.8538L16.3536 9.3538C16.5488 9.15854 16.5488 8.84195 16.3536 8.64669Z" fill="#353566"/>
<path d="M23.5033 18.8784V18.0868C23.5033 16.9822 22.6079 16.0868 21.5033 16.0868H17.3353L18.3151 15.107C18.5104 14.9117 18.5104 14.5951 18.3151 14.3999C18.1199 14.2046 17.8033 14.2046 17.608 14.3999L15.7747 16.2332C15.6317 16.3762 15.5889 16.5913 15.6663 16.7781C15.7437 16.9649 15.926 17.0868 16.1282 17.0868H21.5033C22.0556 17.0868 22.5033 17.5345 22.5033 18.0868V18.8784C22.5033 19.1546 22.7272 19.3784 23.0033 19.3784C23.2794 19.3784 23.5033 19.1546 23.5033 18.8784Z" fill="#353566"/>
<path d="M15.1699 19.6701V18.8784C15.1699 18.6023 15.3938 18.3784 15.6699 18.3784C15.9461 18.3784 16.1699 18.6023 16.1699 18.8784V19.6701C16.1699 20.2224 16.6176 20.6701 17.1699 20.6701H22.5449C22.7472 20.6701 22.9295 20.7919 23.0069 20.9787C23.0843 21.1656 23.0415 21.3806 22.8985 21.5236L21.0651 23.357C20.8698 23.5522 20.5532 23.5522 20.358 23.357C20.1627 23.1617 20.1627 22.8451 20.358 22.6499L21.3378 21.6701H17.1699C16.0654 21.6701 15.1699 20.7747 15.1699 19.6701Z" fill="#353566"/>
</g>
<defs>
<clipPath id="clip0_9001_272985">
<rect width="24" height="24" fill="white"/>
</clipPath>
</defs>
</svg>
