<svg width="24" height="24" viewBox="0 0 24 24" fill="none" xmlns="http://www.w3.org/2000/svg">
<path fill-rule="evenodd" clip-rule="evenodd" d="M18.8214 22.5H17.1786C16.6367 22.5 16.1996 22.5 15.8457 22.4711C15.4813 22.4413 15.1612 22.3784 14.865 22.2275C14.3946 21.9878 14.0122 21.6054 13.7725 21.135C13.6216 20.8388 13.5587 20.5187 13.5289 20.1543C13.5 19.8004 13.5 19.3633 13.5 18.8215V18.5H8.5C6.84315 18.5 5.5 17.1569 5.5 15.5V10.5H5.1786C4.6367 10.5 4.19963 10.5 3.84569 10.4711C3.48126 10.4413 3.16117 10.3784 2.86502 10.2275C2.39462 9.98783 2.01217 9.60538 1.77248 9.13498C1.62159 8.83883 1.55868 8.51874 1.52891 8.15431C1.49999 7.80037 1.5 7.3633 1.5 6.8214V5.1786C1.5 4.6367 1.49999 4.19963 1.52891 3.84569C1.55868 3.48126 1.62159 3.16117 1.77248 2.86502C2.01217 2.39462 2.39462 2.01217 2.86502 1.77248C3.16117 1.62159 3.48126 1.55868 3.84569 1.52891C4.19958 1.49999 4.6366 1.5 5.17839 1.5H6.82142C7.36322 1.5 7.80042 1.49999 8.15431 1.52891C8.51874 1.55868 8.83883 1.62159 9.13498 1.77248C9.60538 2.01217 9.98783 2.39462 10.2275 2.86502C10.3784 3.16117 10.4413 3.48126 10.4711 3.84569C10.5 4.19961 10.5 4.63667 10.5 5.17853V6.82142C10.5 7.36328 10.5 7.80039 10.4711 8.15431C10.4413 8.51874 10.3784 8.83883 10.2275 9.13498C9.98783 9.60538 9.60538 9.98783 9.13498 10.2275C8.83883 10.3784 8.51874 10.4413 8.15431 10.4711C7.80037 10.5 7.3633 10.5 6.8214 10.5H6.5V15.5C6.5 16.6046 7.39543 17.5 8.5 17.5H13.5V17.1786C13.5 16.6367 13.5 16.1996 13.5289 15.8457C13.5587 15.4813 13.6216 15.1612 13.7725 14.865C14.0122 14.3946 14.3946 14.0122 14.865 13.7725C15.1612 13.6216 15.4813 13.5587 15.8457 13.5289C16.1996 13.5 16.6367 13.5 17.1786 13.5H18.8214C19.3633 13.5 19.8004 13.5 20.1543 13.5289C20.5187 13.5587 20.8388 13.6216 21.135 13.7725C21.6054 14.0122 21.9878 14.3946 22.2275 14.865C22.3784 15.1612 22.4413 15.4813 22.4711 15.8457C22.5 16.1996 22.5 16.6367 22.5 17.1786V18.8214C22.5 19.3633 22.5 19.8004 22.4711 20.1543C22.4413 20.5187 22.3784 20.8388 22.2275 21.135C21.9878 21.6054 21.6054 21.9878 21.135 22.2275C20.8388 22.3784 20.5187 22.4413 20.1543 22.4711C19.8004 22.5 19.3633 22.5 18.8214 22.5ZM14.5 17.999V17.2C14.5 16.6317 14.5004 16.2355 14.5256 15.9271C14.5503 15.6245 14.5964 15.4507 14.6635 15.319C14.8073 15.0368 15.0368 14.8073 15.319 14.6635C15.4507 14.5964 15.6245 14.5503 15.9271 14.5256C16.2355 14.5004 16.6317 14.5 17.2 14.5H18.8C19.3683 14.5 19.7645 14.5004 20.0729 14.5256C20.3755 14.5503 20.5493 14.5964 20.681 14.6635C20.9632 14.8073 21.1927 15.0368 21.3365 15.319C21.4036 15.4507 21.4497 15.6245 21.4744 15.9271C21.4996 16.2355 21.5 16.6317 21.5 17.2V18.8C21.5 19.3683 21.4996 19.7645 21.4744 20.0729C21.4497 20.3755 21.4036 20.5493 21.3365 20.681C21.1927 20.9632 20.9632 21.1927 20.681 21.3365C20.5493 21.4036 20.3755 21.4497 20.0729 21.4744C19.7645 21.4996 19.3683 21.5 18.8 21.5H17.2C16.6317 21.5 16.2355 21.4996 15.9271 21.4744C15.6245 21.4497 15.4507 21.4036 15.319 21.3365C15.0368 21.1927 14.8073 20.9632 14.6635 20.681C14.5964 20.5493 14.5503 20.3755 14.5256 20.0729C14.5004 19.7645 14.5 19.3683 14.5 18.8V18.001C14.5 18.0007 14.5 18.0013 14.5 18.001C14.5 18.0007 14.5 17.9993 14.5 17.999ZM5.2 9.5C4.6317 9.5 4.23554 9.49961 3.92712 9.47441C3.62454 9.44969 3.45069 9.4036 3.31901 9.33651C3.03677 9.1927 2.8073 8.96323 2.66349 8.68099C2.5964 8.54931 2.55031 8.37546 2.52559 8.07288C2.50039 7.76446 2.5 7.3683 2.5 6.8V5.2C2.5 4.6317 2.50039 4.23554 2.52559 3.92712C2.55031 3.62453 2.5964 3.45069 2.66349 3.31901C2.8073 3.03677 3.03677 2.8073 3.31901 2.66349C3.45069 2.5964 3.62454 2.55031 3.92712 2.52559C4.23554 2.50039 4.6317 2.5 5.2 2.5H6.8C7.3683 2.5 7.76446 2.50039 8.07288 2.52559C8.37546 2.55031 8.54931 2.5964 8.68099 2.66349C8.96323 2.8073 9.1927 3.03677 9.33651 3.31901C9.4036 3.45069 9.44969 3.62453 9.47441 3.92712C9.49961 4.23554 9.5 4.6317 9.5 5.2V6.8C9.5 7.3683 9.49961 7.76446 9.47441 8.07288C9.44969 8.37546 9.4036 8.54931 9.33651 8.68099C9.1927 8.96323 8.96323 9.1927 8.68099 9.33651C8.54931 9.4036 8.37546 9.44969 8.07288 9.47441C7.76446 9.49961 7.3683 9.5 6.8 9.5H5.2Z" fill="#353566"/>
</svg>
