<svg width="24" height="24" viewBox="0 0 24 24" fill="none" xmlns="http://www.w3.org/2000/svg">
<path opacity="0.4" d="M16.9326 3.25H7.06739C6.11495 3.24999 5.35439 3.24999 4.74013 3.30018C4.11012 3.35165 3.56824 3.45963 3.07054 3.71322C2.27085 4.12068 1.62068 4.77085 1.21322 5.57054C0.959634 6.06824 0.85165 6.61012 0.800176 7.24013C0.749989 7.85439 0.749994 8.61494 0.75 9.56738V14.4326C0.749994 15.3851 0.749989 16.1456 0.800176 16.7599C0.85165 17.3899 0.959634 17.9318 1.21322 18.4295C1.62068 19.2291 2.27085 19.8793 3.07054 20.2868C3.56824 20.5404 4.11012 20.6483 4.74013 20.6998C5.35438 20.75 6.1149 20.75 7.0673 20.75H16.9326C17.885 20.75 18.6456 20.75 19.2599 20.6998C19.8899 20.6483 20.4318 20.5404 20.9295 20.2868C21.7291 19.8793 22.3793 19.2291 22.7868 18.4295C23.0404 17.9318 23.1483 17.3899 23.1998 16.7599C23.25 16.1456 23.25 15.3851 23.25 14.4327V9.56737C23.25 8.61496 23.25 7.85438 23.1998 7.24013C23.1483 6.61012 23.0404 6.06824 22.7868 5.57054C22.3793 4.77085 21.7291 4.12068 20.9295 3.71322C20.4318 3.45963 19.8899 3.35165 19.2599 3.30018C18.6456 3.24999 17.8851 3.24999 16.9326 3.25Z" fill="#353566"/>
<path d="M6 8.25C6.41421 8.25 6.75 8.58579 6.75 9V11.25H9.75V9C9.75 8.58579 10.0858 8.25 10.5 8.25C10.9142 8.25 11.25 8.58579 11.25 9V15C11.25 15.4142 10.9142 15.75 10.5 15.75C10.0858 15.75 9.75 15.4142 9.75 15V12.75H6.75V15C6.75 15.4142 6.41421 15.75 6 15.75C5.58579 15.75 5.25 15.4142 5.25 15V9C5.25 8.58579 5.58579 8.25 6 8.25Z" fill="#353566"/>
<path fill-rule="evenodd" clip-rule="evenodd" d="M18.1673 14.1066C18.2212 13.9136 18.25 13.7102 18.25 13.5V10.5C18.25 9.25736 17.2426 8.25 16 8.25H14.5C13.2574 8.25 12.25 9.25736 12.25 10.5V13.5C12.25 14.7426 13.2574 15.75 14.5 15.75H16C16.4781 15.75 16.9214 15.6009 17.2859 15.3466L17.4697 15.5303C17.7626 15.8232 18.2374 15.8232 18.5303 15.5303C18.8232 15.2374 18.8232 14.7626 18.5303 14.4697L18.1673 14.1066ZM14.5 9.75C14.0858 9.75 13.75 10.0858 13.75 10.5V13.5C13.75 13.9142 14.0858 14.25 14.5 14.25H16C16.0585 14.25 16.1154 14.2433 16.17 14.2307L15.4697 13.5303C15.1768 13.2374 15.1768 12.7626 15.4697 12.4697C15.7626 12.1768 16.2374 12.1768 16.5303 12.4697L16.75 12.6893V10.5C16.75 10.0858 16.4142 9.75 16 9.75H14.5Z" fill="#353566"/>
</svg>
