<svg width="24" height="24" viewBox="0 0 24 24" fill="none" xmlns="http://www.w3.org/2000/svg">
<path opacity="0.4" d="M17.2321 7.75H6.7679C5.95506 7.74999 5.29944 7.74999 4.76853 7.79336C4.2219 7.83803 3.74175 7.93239 3.29754 8.15873C2.59193 8.51825 2.01825 9.09193 1.65873 9.79754C1.43239 10.2418 1.33803 10.7219 1.29336 11.2685C1.24999 11.7994 1.24999 12.455 1.25 13.2679V17.7321C1.24999 18.5449 1.24999 19.2006 1.29336 19.7315C1.33803 20.2781 1.43239 20.7582 1.65873 21.2025C2.01825 21.9081 2.59193 22.4817 3.29754 22.8413C3.74175 23.0676 4.22189 23.162 4.76853 23.2066C5.29943 23.25 5.95504 23.25 6.76786 23.25H17.2321C18.045 23.25 18.7006 23.25 19.2315 23.2066C19.7781 23.162 20.2582 23.0676 20.7025 22.8413C21.4081 22.4817 21.9818 21.9081 22.3413 21.2025C22.5676 20.7582 22.662 20.2781 22.7066 19.7315C22.75 19.2006 22.75 18.545 22.75 17.7321V13.2679C22.75 12.455 22.75 11.7994 22.7066 11.2685C22.662 10.7219 22.5676 10.2418 22.3413 9.79754C21.9818 9.09193 21.4081 8.51825 20.7025 8.15873C20.2582 7.93239 19.7781 7.83803 19.2315 7.79336C18.7006 7.74999 18.0449 7.74999 17.2321 7.75Z" fill="#353566"/>
<path d="M6.25 2.5C6.25 1.5335 7.0335 0.75 8 0.75H16C16.9665 0.75 17.75 1.5335 17.75 2.5V3.25H6.25V2.5Z" fill="#353566"/>
<path d="M6 4.25C5.0335 4.25 4.25 5.0335 4.25 6V6.75H19.75V6C19.75 5.0335 18.9665 4.25 18 4.25H6Z" fill="#353566"/>
<path d="M16.001 13.503V12.003C16.001 11.685 15.855 11.394 15.601 11.204C15.346 11.013 15.025 10.955 14.751 11.036L12.136 11.623C11.585 11.784 11.2 12.298 11.2 12.872V16.889C10.409 16.49 9.37102 16.527 8.66802 17.056C8.24302 17.375 7.99902 17.83 7.99902 18.305C7.99902 18.78 8.24302 19.235 8.66802 19.554C9.07002 19.856 9.58602 20.006 10.1 20.006C10.614 20.006 11.13 19.855 11.531 19.554C11.956 19.235 12.2 18.78 12.2 18.305C12.2 18.2922 12.1978 18.2797 12.1955 18.2672C12.1935 18.2562 12.1915 18.2452 12.191 18.234C12.1919 18.2272 12.1938 18.2207 12.1958 18.2143C12.1984 18.2055 12.201 18.1968 12.201 18.187V15.282L15.209 14.559C15.675 14.423 16.001 13.989 16.001 13.503Z" fill="#353566"/>
</svg>
