<svg width="24" height="24" viewBox="0 0 24 24" fill="none" xmlns="http://www.w3.org/2000/svg">
<path opacity="0.4" d="M16.4326 1.25H6.56739C5.61495 1.24999 4.85439 1.24999 4.24013 1.30018C3.61012 1.35165 3.06824 1.45963 2.57054 1.71322C1.77085 2.12068 1.12068 2.77085 0.713223 3.57054C0.459634 4.06824 0.35165 4.61012 0.300176 5.24013C0.249989 5.8544 0.249994 6.61494 0.25 7.56738V13.4326C0.249994 14.3851 0.249989 15.1456 0.300176 15.7599C0.35165 16.3899 0.459634 16.9318 0.713223 17.4295C1.12068 18.2291 1.77085 18.8793 2.57054 19.2868C3.06824 19.5404 3.61012 19.6483 4.24013 19.6998C4.85438 19.75 5.6149 19.75 6.5673 19.75H13.275C13.6892 19.75 14.025 19.4142 14.025 19V17.7375C14.025 16.7525 14.4905 15.877 15.2184 15.3174L15.3897 15.1857C15.5615 15.0536 15.6678 14.8536 15.6812 14.6373L15.6945 14.4217C15.8159 12.4538 17.6056 11.125 19.45 11.125C20.1953 11.125 20.955 11.3491 21.5955 11.7593C21.8263 11.9072 22.1194 11.9173 22.3599 11.7857C22.6004 11.6542 22.75 11.4019 22.75 11.1278V7.56737C22.75 6.61496 22.75 5.85438 22.6998 5.24013C22.6483 4.61012 22.5404 4.06824 22.2868 3.57054C21.8793 2.77085 21.2291 2.12068 20.4295 1.71322C19.9318 1.45963 19.3899 1.35165 18.7599 1.30018C18.1456 1.24999 17.3851 1.24999 16.4326 1.25Z" fill="#353566"/>
<path d="M5.00003 7.5C5.00003 6.39543 5.89546 5.5 7.00003 5.5C8.1046 5.5 9.00003 6.39543 9.00003 7.5C9.00003 8.60457 8.1046 9.5 7.00003 9.5C5.89546 9.5 5.00003 8.60457 5.00003 7.5Z" fill="#353566"/>
<path d="M17.2375 7.65709L19.4556 9.87525C19.659 10.0787 19.7282 10.3805 19.6336 10.6522C19.539 10.9239 19.2973 11.1175 19.0115 11.1506C17.3195 11.3464 15.8061 12.613 15.6945 14.4218L15.6812 14.6374C15.6679 14.8537 15.5616 15.0537 15.3897 15.1858L15.2184 15.3175C14.4906 15.8771 14.025 16.7527 14.025 17.7376V19.0001C14.025 19.4143 13.6892 19.7501 13.275 19.7501H6.56758C5.61514 19.7501 4.8546 19.7501 4.24034 19.6999C3.61033 19.6485 3.06845 19.5405 2.57075 19.2869C1.78425 18.8861 1.14239 18.2506 0.733794 17.469C0.581941 17.1785 0.636324 16.8231 0.868085 16.5913L5.28155 12.1771C5.96501 11.4935 7.07325 11.4936 7.75668 12.1772L8.99932 13.4201L14.7626 7.65707C15.446 6.97368 16.5541 6.97369 17.2375 7.65709Z" fill="#353566"/>
<path fill-rule="evenodd" clip-rule="evenodd" d="M19.3366 12.0867C17.8688 12.0867 16.5241 13.1627 16.5241 14.67V15.8191C15.7483 15.9985 15.17 16.6938 15.17 17.5242V20.7533C15.17 21.7198 15.9535 22.5033 16.92 22.5033H21.7533C22.7198 22.5033 23.5033 21.7198 23.5033 20.7533V17.5242C23.5033 16.6938 22.925 15.9985 22.1491 15.8191V14.67C22.1491 13.1627 20.8044 12.0867 19.3366 12.0867ZM18.0241 14.67C18.0241 14.1523 18.5262 13.5867 19.3366 13.5867C20.147 13.5867 20.6491 14.1523 20.6491 14.67V15.5242H18.0241V14.67Z" fill="#353566"/>
</svg>
