<svg width="24" height="24" viewBox="0 0 24 24" fill="none" xmlns="http://www.w3.org/2000/svg">
<g clip-path="url(#clip0_9001_294343)">
<path opacity="0.4" d="M21.75 7.4V11.539C21.75 11.754 21.658 11.959 21.496 12.101C21.334 12.243 21.116 12.309 20.907 12.283C20.477 12.229 20.053 12.244 19.64 12.331C19.231 12.418 18.81 12.566 18.317 12.796C18.116 12.89 17.884 12.89 17.683 12.796C17.186 12.565 16.762 12.416 16.348 12.328C14.802 12.002 13.141 12.69 12.123 14.075C10.884 15.761 10.961 18.346 12.307 20.221C12.379 20.321 12.458 20.426 12.543 20.533C12.722 20.759 12.755 21.066 12.63 21.325C12.505 21.584 12.242 21.748 11.955 21.748H7.39902C5.04202 21.748 3.85902 21.748 2.84302 21.231C1.94302 20.772 1.22502 20.054 0.767023 19.155C0.249023 18.139 0.249023 16.956 0.249023 14.598V7.398C0.249023 5.041 0.249023 3.857 0.767023 2.841C1.22602 1.944 1.94402 1.227 2.84302 0.768C3.85902 0.25 5.04202 0.25 7.40002 0.25H14.6C16.957 0.25 18.141 0.25 19.157 0.768C20.057 1.227 20.775 1.945 21.233 2.844C21.751 3.86 21.751 5.043 21.751 7.401L21.75 7.4Z" fill="#353566"/>
<path d="M16.7501 7.5C16.7501 6.25736 15.7428 5.25 14.5001 5.25C13.2575 5.25 12.2501 6.25736 12.2501 7.5C12.2501 8.74264 13.2575 9.75 14.5001 9.75C15.7428 9.75 16.7501 8.74264 16.7501 7.5Z" fill="#353566"/>
<path d="M4.55926 10.3838C5.6332 9.30988 7.37441 9.30988 8.44835 10.3838L11.7056 13.6411C11.9415 13.8769 11.9932 14.2402 11.8326 14.5326C10.9349 16.1663 11.0617 18.4873 12.3071 20.2217C12.3782 20.3206 12.457 20.4249 12.5437 20.5344C12.7222 20.76 12.756 21.0677 12.6308 21.3266C12.5055 21.5855 12.2433 21.7499 11.9556 21.7499H7.37078C6.27879 21.7499 5.41309 21.75 4.71554 21.693C4.00215 21.6347 3.39853 21.5131 2.84735 21.2322C1.95358 20.7768 1.22692 20.0502 0.771525 19.1564C0.50779 18.6388 0.38471 18.0756 0.322324 17.4189C0.260759 16.7709 0.254672 15.9812 0.253906 15.0004C0.253752 14.8013 0.332781 14.6103 0.473577 14.4695L4.55926 10.3838Z" fill="#353566"/>
<path d="M19.9022 13.5517C20.8471 13.3556 22.0492 13.7049 22.8642 14.8092C23.7045 15.9477 23.7816 17.9092 22.674 19.4463C21.9021 20.5175 20.3336 21.9543 19.3261 22.8349C19.3025 22.8557 19.2788 22.8766 19.255 22.8976C19.0061 23.1173 18.7485 23.3448 18.4251 23.4404C18.156 23.5199 17.8443 23.5199 17.5752 23.4404C17.2518 23.3448 16.9942 23.1173 16.7453 22.8976C16.7215 22.8766 16.6978 22.8557 16.6742 22.8349C15.6667 21.9544 14.0981 20.5175 13.3263 19.4463C12.2187 17.9092 12.2958 15.9478 13.1361 14.8092C13.9511 13.7049 15.1531 13.3556 16.0981 13.5517L16.1 13.5521C16.8342 13.7076 17.4858 14.0554 18.0001 14.6007C18.5145 14.0554 19.1661 13.7076 19.9003 13.5521L19.9022 13.5517Z" fill="#353566"/>
</g>
<defs>
<clipPath id="clip0_9001_294343">
<rect width="24" height="24" fill="white"/>
</clipPath>
</defs>
</svg>
