<svg width="24" height="24" viewBox="0 0 24 24" fill="none" xmlns="http://www.w3.org/2000/svg">
<path opacity="0.4" d="M16.4326 1.25H6.56739C5.61495 1.24999 4.85439 1.24999 4.24013 1.30018C3.61012 1.35165 3.06824 1.45963 2.57054 1.71322C1.77085 2.12068 1.12068 2.77085 0.713223 3.57054C0.459634 4.06824 0.35165 4.61012 0.300176 5.24013C0.249989 5.8544 0.249994 6.61494 0.25 7.56738V13.4326C0.249994 14.3851 0.249989 15.1456 0.300176 15.7599C0.35165 16.3899 0.459634 16.9318 0.713223 17.4295C1.12068 18.2291 1.77085 18.8793 2.57054 19.2868C3.06824 19.5404 3.61012 19.6483 4.24013 19.6998C4.85438 19.75 5.6149 19.75 6.5673 19.75H11.4207C11.6412 19.75 11.8506 19.6529 11.9931 19.4846C12.1356 19.3163 12.1968 19.0937 12.1604 18.8762C12.084 18.4197 12.1313 17.947 12.3017 17.5119C13.4359 14.615 15.9091 13.025 18.5 13.025C19.6 13.025 20.6722 13.3106 21.6291 13.8551C21.8612 13.9872 22.1461 13.9859 22.377 13.8516C22.6079 13.7173 22.75 13.4704 22.75 13.2032V7.56737C22.75 6.61496 22.75 5.85438 22.6998 5.24013C22.6483 4.61012 22.5404 4.06824 22.2868 3.57054C21.8793 2.77085 21.2291 2.12068 20.4295 1.71322C19.9318 1.45963 19.3899 1.35165 18.7599 1.30018C18.1456 1.24999 17.3851 1.24999 16.4326 1.25Z" fill="#353566"/>
<path d="M5 7.50024C5 6.39567 5.89543 5.50024 7 5.50024C8.10457 5.50024 9 6.39567 9 7.50024C9 8.60481 8.10457 9.50024 7 9.50024C5.89543 9.50024 5 8.60481 5 7.50024Z" fill="#353566"/>
<path d="M14.7626 7.65731C15.446 6.97392 16.5541 6.97393 17.2375 7.65734L21.9632 12.3831C22.2198 12.6397 22.2559 13.0431 22.049 13.3412C21.8421 13.6392 21.4515 13.7464 21.1214 13.5957C20.2999 13.2206 19.4096 13.0254 18.5 13.0254C15.9091 13.0254 13.4359 14.6153 12.3017 17.5123C12.1314 17.9474 12.084 18.42 12.1604 18.8766C12.1968 19.0941 12.1356 19.3166 11.9931 19.4849C11.8506 19.6533 11.6413 19.7504 11.4207 19.7504H6.56758C5.61514 19.7504 4.8546 19.7504 4.24034 19.7002C3.61033 19.6487 3.06845 19.5407 2.57075 19.2871C1.78425 18.8864 1.14239 18.2509 0.733794 17.4693C0.581941 17.1788 0.636324 16.8233 0.868085 16.5915L5.28155 12.1774C5.96501 11.4938 7.07325 11.4938 7.75668 12.1774L8.99932 13.4204L14.7626 7.65731Z" fill="#353566"/>
<path d="M18.4199 17.0035C17.6821 17.0035 17.0866 17.599 17.0866 18.3368C17.0866 19.0747 17.6821 19.6702 18.4199 19.6702C19.1578 19.6702 19.7533 19.0747 19.7533 18.3368C19.7533 17.599 19.1578 17.0035 18.4199 17.0035Z" fill="#353566"/>
<path fill-rule="evenodd" clip-rule="evenodd" d="M23.4063 17.821C22.4649 15.4165 20.4608 14.1702 18.4199 14.1702C16.3791 14.1702 14.375 15.4165 13.4336 17.821C13.3043 18.1513 13.3043 18.5223 13.4336 18.8526C14.375 21.2572 16.3791 22.5035 18.4199 22.5035C20.4608 22.5035 22.4649 21.2572 23.4063 18.8526C23.5356 18.5223 23.5356 18.1513 23.4063 17.821ZM16.0866 18.3368C16.0866 17.0467 17.1298 16.0035 18.4199 16.0035C19.7101 16.0035 20.7533 17.0467 20.7533 18.3368C20.7533 19.6269 19.7101 20.6702 18.4199 20.6702C17.1298 20.6702 16.0866 19.6269 16.0866 18.3368Z" fill="#353566"/>
</svg>
