<svg width="24" height="24" viewBox="0 0 24 24" fill="none" xmlns="http://www.w3.org/2000/svg">
<g clip-path="url(#clip0_9001_294378)">
<path opacity="0.4" d="M12 0.25C5.51065 0.25 0.25 5.51065 0.25 12C0.25 18.4893 5.51065 23.75 12 23.75C18.4893 23.75 23.75 18.4893 23.75 12C23.75 5.51065 18.4893 0.25 12 0.25Z" fill="#353566"/>
<path d="M12.5839 10.978L16.2011 9.923C16.8234 9.7415 17.2512 9.17109 17.2512 8.52289V6.89618C17.2512 6.02112 16.4111 5.39107 15.571 5.63609L12.6773 6.48009C11.9306 6.69789 11.4172 7.38239 11.4172 8.16023V14.2112C10.8905 13.8966 10.2695 13.7494 9.66697 13.7494C8.96611 13.7494 8.24017 13.9486 7.66684 14.3786C7.08727 14.8133 6.75 15.4244 6.75 16.0829C6.75 16.7414 7.08727 17.3525 7.66684 17.7872C8.24017 18.2172 8.96611 18.4165 9.66697 18.4165C10.3678 18.4165 11.0938 18.2172 11.6671 17.7872C12.2467 17.3525 12.5839 16.7414 12.5839 16.0829C12.5839 16.0794 12.5839 16.0759 12.5839 16.0724V10.978Z" fill="#353566"/>
</g>
<defs>
<clipPath id="clip0_9001_294378">
<rect width="24" height="24" fill="white"/>
</clipPath>
</defs>
</svg>
