<svg width="24" height="24" viewBox="0 0 24 24" fill="none" xmlns="http://www.w3.org/2000/svg">
<g opacity="0.4">
<path d="M19.19 1.32637C20.47 0.95304 21.75 1.91304 21.75 3.24637V15.4997C21.75 15.9139 21.4142 16.2497 21 16.2497C20.5858 16.2497 20.25 15.9139 20.25 15.4997V7.99963L13.468 9.97771C13.2051 10.0544 12.9213 9.98168 12.7277 9.78804L8.86114 5.9215C8.59865 5.65901 8.56767 5.244 8.78828 4.94545C9.13692 4.47363 9.63678 4.11273 10.23 3.93971L19.19 1.32637Z" fill="#353566"/>
<path d="M9.53033 8.46937C9.31583 8.25487 8.99324 8.1907 8.71299 8.30679C8.43273 8.42287 8.25 8.69635 8.25 8.9997V19.4997C8.25 19.9139 8.58579 20.2497 9 20.2497C9.41421 20.2497 9.75 19.9139 9.75 19.4997V11.0621L10.3712 10.8809C10.6256 10.8067 10.822 10.6038 10.8878 10.3471C10.9535 10.0904 10.879 9.81799 10.6916 9.6306L9.53033 8.46937Z" fill="#353566"/>
</g>
<path d="M2.53033 1.46943C2.23744 1.17653 1.76256 1.17653 1.46967 1.46943C1.17678 1.76232 1.17678 2.23719 1.46967 2.53009L14.2557 15.3161C14.1949 16.2505 14.5976 17.1763 15.3985 17.8437C16.05 18.3867 16.8628 18.6774 17.6774 18.7378L21.4697 22.5301C21.7626 22.823 22.2374 22.823 22.5303 22.5301C22.8232 22.2372 22.8232 21.7623 22.5303 21.4694L2.53033 1.46943Z" fill="#353566"/>
<path d="M16.9245 12.3851C18.1584 12.0673 19.58 12.3047 20.6014 13.1558C21.8254 14.1758 22.0964 15.7804 21.2941 17.0577C21.1727 17.251 20.9699 17.3785 20.743 17.4041C20.5162 17.4296 20.2901 17.3505 20.1287 17.1891L16.5813 13.6417C16.3909 13.4513 16.3171 13.1735 16.3881 12.9137C16.459 12.654 16.6638 12.4522 16.9245 12.3851Z" fill="#353566"/>
<path d="M3.39854 17.1557C4.84825 15.9476 7.15175 15.9476 8.60146 17.1557C9.34544 17.7757 9.75 18.6211 9.75 19.4997C9.75 20.3782 9.34544 21.2236 8.60146 21.8436C7.15175 23.0517 4.84825 23.0517 3.39854 21.8436C2.65456 21.2236 2.25 20.3782 2.25 19.4997C2.25 18.6211 2.65456 17.7757 3.39854 17.1557Z" fill="#353566"/>
</svg>
