<svg width="24" height="24" viewBox="0 0 24 24" fill="none" xmlns="http://www.w3.org/2000/svg">
<path opacity="0.4" d="M11 4C11 3.44772 11.4477 3 12 3C17.5228 3 22 7.47715 22 13C22 18.5228 17.5228 23 12 23C6.47715 23 2 18.5228 2 13C2 9.53192 3.76629 6.47677 6.44374 4.68454C6.90269 4.37733 7.5238 4.50034 7.83101 4.95929C8.13822 5.41824 8.01521 6.03934 7.55626 6.34656C5.40977 7.78338 4 10.2273 4 13C4 17.4183 7.58172 21 12 21C16.4183 21 20 17.4183 20 13C20 8.58172 16.4183 5 12 5C11.4477 5 11 4.55228 11 4Z" fill="#353566"/>
<path d="M14.2071 2.20711C14.5976 1.81658 14.5976 1.18342 14.2071 0.792893C13.8166 0.402369 13.1834 0.402369 12.7929 0.792893L10.2929 3.29289C10.1054 3.48043 10 3.73478 10 4C10 4.26522 10.1054 4.51957 10.2929 4.70711L12.7929 7.20711C13.1834 7.59763 13.8166 7.59763 14.2071 7.20711C14.5976 6.81658 14.5976 6.18342 14.2071 5.79289L12.4142 4L14.2071 2.20711Z" fill="#353566"/>
<path fill-rule="evenodd" clip-rule="evenodd" d="M15 9.25C13.6193 9.25 12.5 10.3693 12.5 11.75V14.25C12.5 15.6307 13.6193 16.75 15 16.75C16.3807 16.75 17.5 15.6307 17.5 14.25V11.75C17.5 10.3693 16.3807 9.25 15 9.25ZM14 11.75C14 11.1977 14.4477 10.75 15 10.75C15.5523 10.75 16 11.1977 16 11.75V14.25C16 14.8023 15.5523 15.25 15 15.25C14.4477 15.25 14 14.8023 14 14.25V11.75Z" fill="#353566"/>
<path d="M10.25 11.6499C10.6642 11.6499 11 11.9857 11 12.3999V13.4502H11.25C11.6642 13.4502 12 13.786 12 14.2002C12 14.6144 11.6642 14.9502 11.25 14.9502H11V15.9999C11 16.4141 10.6642 16.7499 10.25 16.7499C9.83579 16.7499 9.5 16.4141 9.5 15.9999V14.9502H7.25001C7.01322 14.9502 6.79033 14.8384 6.64878 14.6486C6.50722 14.4587 6.46362 14.2132 6.53117 13.9863L7.78117 9.78626C7.89932 9.38925 8.31694 9.1632 8.71395 9.28136C9.11095 9.39951 9.337 9.81713 9.21885 10.2141L8.25573 13.4502H9.5V12.3999C9.5 11.9857 9.83579 11.6499 10.25 11.6499Z" fill="#353566"/>
</svg>
