<svg width="24" height="24" viewBox="0 0 24 24" fill="none" xmlns="http://www.w3.org/2000/svg">
<path opacity="0.4" d="M9.24264 1.25C8.24808 1.25 7.29425 1.64509 6.59099 2.34835L2.34835 6.59099C1.64509 7.29425 1.25 8.24808 1.25 9.24264V14.7574C1.25 15.7519 1.64509 16.7057 2.34835 17.409L6.59099 21.6517C7.29425 22.3549 8.24808 22.75 9.24264 22.75H14.7574C15.7519 22.75 16.7057 22.3549 17.409 21.6517L21.6517 17.409C22.3549 16.7057 22.75 15.7519 22.75 14.7574V9.24264C22.75 8.24808 22.3549 7.29425 21.6517 6.59099L17.409 2.34835C16.7057 1.64509 15.7519 1.25 14.7574 1.25H9.24264Z" fill="#353566"/>
<path d="M11.25 7L11.25 13C11.25 13.4142 11.5858 13.75 12 13.75C12.4142 13.75 12.75 13.4142 12.75 13L12.75 7C12.75 6.58579 12.4142 6.25 12 6.25C11.5858 6.25 11.25 6.58579 11.25 7Z" fill="#353566"/>
<path d="M12 15.5C11.4477 15.5 11 15.9477 11 16.5C11 17.0523 11.4477 17.5 12 17.5C12.5523 17.5 13.0001 17.0523 13.0001 16.5C13.0001 15.9477 12.5523 15.5 12 15.5Z" fill="#353566"/>
</svg>
