<svg width="24" height="24" viewBox="0 0 24 24" fill="none" xmlns="http://www.w3.org/2000/svg">
<g clip-path="url(#clip0_9001_276066)">
<path d="M11 1.5C5.75329 1.5 1.5 5.75329 1.5 11C1.5 12.8413 2.02337 14.5589 2.92925 16.0139C3.09031 16.2725 3.13301 16.5973 3.02425 16.8964L2.2022 19.157C2.05711 19.556 2.44396 19.9429 2.84297 19.7978L5.10359 18.9758C5.40269 18.867 5.72745 18.9097 5.98614 19.0708C7.44107 19.9766 9.15865 20.5 11 20.5C12.3822 20.5 13.6942 20.2051 14.8776 19.6753C15.1296 19.5625 15.4254 19.6753 15.5383 19.9274C15.6511 20.1794 15.5382 20.4752 15.2862 20.588C13.9768 21.1743 12.5258 21.5 11 21.5C8.96646 21.5 7.06652 20.9214 5.45759 19.9197C5.45022 19.9151 5.44563 19.9156 5.44492 19.9157L3.18471 20.7376C1.98768 21.1729 0.827123 20.0123 1.26241 18.8153L2.08431 16.5551C2.08442 16.5544 2.08493 16.5498 2.08034 16.5424C1.07859 14.9335 0.5 13.0335 0.5 11C0.5 5.20101 5.20101 0.5 11 0.5C16.4572 0.5 20.9415 4.66277 21.4517 9.98649C21.478 10.2614 21.2765 10.5056 21.0017 10.5319C20.7268 10.5583 20.4826 10.3568 20.4562 10.0819C19.9947 5.26621 15.9369 1.5 11 1.5Z" fill="#353566"/>
<path d="M10.25 11C10.25 10.5858 10.5858 10.25 11 10.25C11.4142 10.25 11.7501 10.5858 11.7501 11C11.7501 11.4142 11.4143 11.75 11.0001 11.75C10.5859 11.75 10.25 11.4142 10.25 11Z" fill="#353566"/>
<path d="M7 10.25C6.58579 10.25 6.25 10.5858 6.25 11C6.25 11.4142 6.58579 11.75 7 11.75C7.41421 11.75 7.7501 11.4142 7.7501 11C7.7501 10.5858 7.41421 10.25 7 10.25Z" fill="#353566"/>
<path d="M14.25 11C14.25 10.5858 14.5858 10.25 15 10.25C15.4142 10.25 15.7501 10.5858 15.7501 11C15.7501 11.4142 15.4143 11.75 15.0001 11.75C14.5859 11.75 14.25 11.4142 14.25 11Z" fill="#353566"/>
<path d="M20 13.7749V13C20 12.7239 20.2239 12.5 20.5 12.5C20.7761 12.5 21 12.7239 21 13V13.7708C21.3289 13.801 21.6294 13.8671 21.9344 13.988C22.3749 14.1627 22.794 14.4404 23.3019 14.8249C23.522 14.9916 23.5653 15.3052 23.3987 15.5254C23.232 15.7455 22.9183 15.7889 22.6982 15.6222C22.206 15.2495 21.8752 15.0404 21.5657 14.9176C21.2679 14.7995 20.9604 14.75 20.5 14.75C19.821 14.75 19.3089 14.91 18.9808 15.1476C18.6677 15.3743 18.5 15.6843 18.5 16.0817C18.5 16.573 18.7356 16.8639 19.1193 17.0786C19.5345 17.311 20.0791 17.4229 20.5822 17.5068C21.0791 17.5896 21.7845 17.7214 22.3693 18.0488C22.9856 18.3938 23.5 18.9788 23.5 19.9183C23.5 20.6495 23.1677 21.2554 22.6058 21.6623C22.1725 21.9761 21.6194 22.1616 21 22.2251V23C21 23.2761 20.7761 23.5 20.5 23.5C20.2239 23.5 20 23.2761 20 23V22.2292C19.6711 22.199 19.3706 22.1329 19.0657 22.0119C18.6252 21.8372 18.206 21.5596 17.6982 21.175C17.478 21.0083 17.4347 20.6947 17.6014 20.4746C17.7681 20.2544 18.0817 20.2111 18.3019 20.3778C18.7941 20.7505 19.1249 20.9596 19.4344 21.0824C19.7322 21.2005 20.0396 21.25 20.5 21.25C21.179 21.25 21.6912 21.09 22.0193 20.8524C22.3323 20.6257 22.5 20.3157 22.5 19.9183C22.5 19.427 22.2644 19.1361 21.8808 18.9214C21.4656 18.689 20.921 18.5771 20.4178 18.4932C19.921 18.4104 19.2156 18.2786 18.6308 17.9512C18.0144 17.6062 17.5 17.0212 17.5 16.0817C17.5 15.3505 17.8323 14.7446 18.3942 14.3377C18.8275 14.0239 19.3806 13.8384 20 13.7749Z" fill="#353566"/>
</g>
<defs>
<clipPath id="clip0_9001_276066">
<rect width="24" height="24" fill="white"/>
</clipPath>
</defs>
</svg>
