<svg width="24" height="24" viewBox="0 0 24 24" fill="none" xmlns="http://www.w3.org/2000/svg">
<path fill-rule="evenodd" clip-rule="evenodd" d="M2.35355 1.64645C2.15829 1.45118 1.84171 1.45118 1.64645 1.64645C1.45118 1.84171 1.45118 2.15829 1.64645 2.35355L4.2302 4.93731C2.53439 6.8019 1.5 9.28057 1.5 12C1.5 14.0335 2.07859 15.9335 3.08034 17.5424C3.08493 17.5498 3.08442 17.5544 3.08431 17.5551L2.26241 19.8153C1.82712 21.0123 2.98768 22.1729 4.18471 21.7376L6.44483 20.9157C6.44553 20.9156 6.45021 20.9151 6.45759 20.9197C8.06652 21.9214 9.96646 22.5 12 22.5C14.7194 22.5 17.1981 21.4656 19.0627 19.7698L21.6464 22.3536C21.8417 22.5488 22.1583 22.5488 22.3536 22.3536C22.5488 22.1583 22.5488 21.8417 22.3536 21.6464L19.4248 18.7177L2.35355 1.64645ZM4.93818 5.64529C3.42205 7.32892 2.5 9.55637 2.5 12C2.5 13.8413 3.02337 15.5589 3.92925 17.0139C4.09031 17.2725 4.13301 17.5973 4.02425 17.8964L3.2022 20.157C3.05711 20.556 3.44396 20.9429 3.84297 20.7978L6.10359 19.9758C6.40269 19.867 6.72745 19.9097 6.98614 20.0708C8.44107 20.9766 10.1587 21.5 12 21.5C14.4436 21.5 16.6711 20.578 18.3547 19.0618L4.93818 5.64529Z" fill="#353566"/>
<path d="M7.45581 3.65516C8.80515 2.91874 10.3529 2.5 12 2.5C17.2467 2.5 21.5 6.75329 21.5 12C21.5 13.6471 21.0813 15.1948 20.3448 16.5442C20.2125 16.7866 20.3018 17.0903 20.5442 17.2226C20.7866 17.3549 21.0903 17.2656 21.2226 17.0233C22.0372 15.5307 22.5 13.8186 22.5 12C22.5 6.20101 17.799 1.5 12 1.5C10.1814 1.5 8.46934 1.96277 6.97674 2.77738C6.73435 2.90967 6.64509 3.21341 6.77738 3.45581C6.90967 3.6982 7.21341 3.78745 7.45581 3.65516Z" fill="#353566"/>
</svg>
