<svg width="24" height="24" viewBox="0 0 24 24" fill="none" xmlns="http://www.w3.org/2000/svg">
<path d="M12.8536 11.8535C12.6583 12.0487 12.3417 12.0487 12.1464 11.8535L10 9.70708L7.85357 11.8536C7.65831 12.0488 7.34172 12.0488 7.14646 11.8536C6.9512 11.6583 6.9512 11.3417 7.14646 11.1464L9.29294 8.99997L7.14648 6.85351C6.95122 6.65825 6.95122 6.34166 7.14648 6.1464C7.34174 5.95114 7.65832 5.95114 7.85358 6.1464L10 8.29286L12.1464 6.14648C12.3417 5.95122 12.6583 5.95122 12.8535 6.14648C13.0488 6.34174 13.0488 6.65832 12.8535 6.85358L10.7072 8.99997L12.8536 11.1464C13.0488 11.3416 13.0488 11.6582 12.8536 11.8535Z" fill="#353566"/>
<path fill-rule="evenodd" clip-rule="evenodd" d="M4.8 1.5C2.97754 1.5 1.5 2.97718 1.5 4.79954V17.5993C1.5 18.3501 2.36495 18.7706 2.95545 18.3074L5.58243 16.247C5.70569 16.1504 5.85783 16.0978 6.01451 16.0978H15.2C17.0225 16.0978 18.5 14.6206 18.5 12.7983V4.79955C18.5 2.97718 17.0225 1.5 15.2 1.5H4.8ZM2.5 4.79954C2.5 3.52962 3.52967 2.5 4.8 2.5H15.2C16.4703 2.5 17.5 3.52962 17.5 4.79955V12.7983C17.5 14.0682 16.4703 15.0978 15.2 15.0978H6.01451C5.63408 15.0978 5.26463 15.2254 4.96529 15.4602L2.5 17.3937V4.79954Z" fill="#353566"/>
<path d="M21.3098 7.17075C21.093 6.99968 20.7786 7.03674 20.6075 7.25351C20.4364 7.47029 20.4735 7.78469 20.6903 7.95576C21.1844 8.34567 21.5 8.94815 21.5 9.62461V21.3675L19.2393 19.5944C18.9532 19.3699 18.6001 19.248 18.2364 19.248H9.62501C8.8607 19.248 8.19016 18.8449 7.81511 18.2374C7.67005 18.0024 7.36197 17.9295 7.127 18.0746C6.89203 18.2196 6.81914 18.5277 6.9642 18.7627C7.51379 19.6529 8.49971 20.248 9.62501 20.248H18.2364C18.3763 20.248 18.5121 20.2949 18.6222 20.3812L21.085 22.3128C21.6591 22.7631 22.5 22.3543 22.5 21.6244V9.62461C22.5 8.62906 22.0338 7.74211 21.3098 7.17075Z" fill="#353566"/>
</svg>
