<svg width="24" height="24" viewBox="0 0 24 24" fill="none" xmlns="http://www.w3.org/2000/svg">
<g clip-path="url(#clip0_9002_311)">
<path fill-rule="evenodd" clip-rule="evenodd" d="M15.4326 0.25H6.56739C5.61495 0.249994 4.8544 0.249989 4.24014 0.300176C3.61012 0.35165 3.06824 0.459634 2.57054 0.713223C1.77086 1.12068 1.12069 1.77085 0.713227 2.57054C0.459638 3.06824 0.351654 3.61012 0.30018 4.24013C0.249996 4.85436 0.25 5.61486 0.250005 6.56722L0.250002 19.9152C0.249974 20.1532 0.249947 20.3804 0.26663 20.5639C0.282815 20.7418 0.323484 21.0306 0.520845 21.2793C0.756431 21.5762 1.114 21.7502 1.49299 21.7523C1.81048 21.7541 2.06282 21.6078 2.21281 21.5107C2.36741 21.4106 2.54616 21.2704 2.73337 21.1235L5.31069 19.1017C5.57573 18.8938 5.62983 18.8558 5.6814 18.8298C5.74093 18.7999 5.80417 18.7781 5.86947 18.7649C5.92607 18.7534 5.99209 18.75 6.32902 18.75H10.8115C11.2257 18.75 11.5615 18.4142 11.5615 18C11.5615 17.5858 11.2257 17.25 10.8115 17.25L6.27692 17.25C6.02082 17.2498 5.7949 17.2496 5.57211 17.2947C5.37623 17.3343 5.1865 17.3998 5.00792 17.4895C4.80484 17.5916 4.62717 17.7312 4.42583 17.8894L4.38483 17.9216L1.75006 19.9883L1.75 6.59999C1.75 5.60753 1.75059 4.90829 1.7952 4.36228C1.83909 3.82503 1.92185 3.50252 2.04974 3.25153C2.31339 2.73408 2.73409 2.31338 3.25153 2.04973C3.50253 1.92184 3.82503 1.83909 4.36229 1.79519C4.90829 1.75058 5.60754 1.75 6.6 1.75H15.4C16.3925 1.75 17.0917 1.75058 17.6377 1.79519C18.175 1.83909 18.4975 1.92184 18.7485 2.04973C19.2659 2.31338 19.6866 2.73408 19.9503 3.25153C20.0782 3.50252 20.1609 3.82503 20.2048 4.36228C20.2494 4.90829 20.25 5.60753 20.25 6.6V10.6369C20.25 11.0511 20.5858 11.3869 21 11.3869C21.4142 11.3869 21.75 11.0511 21.75 10.6369V6.56737C21.75 5.61496 21.75 4.85438 21.6998 4.24013C21.6484 3.61012 21.5404 3.06824 21.2868 2.57054C20.8793 1.77085 20.2292 1.12068 19.4295 0.713223C18.9318 0.459634 18.3899 0.35165 17.7599 0.300176C17.1456 0.249989 16.3851 0.249994 15.4326 0.25ZM4.38483 17.9216C4.39076 17.9169 4.39676 17.9124 4.40283 17.9079L4.84779 18.5116L4.38483 17.9216Z" fill="#353566"/>
<path d="M11 8.5C10.4477 8.5 10 8.94771 10 9.5C10 10.0523 10.4477 10.5 11 10.5C11.5523 10.5 12.0001 10.0523 12.0001 9.5C12.0001 8.94771 11.5523 8.5 11 8.5Z" fill="#353566"/>
<path d="M6 9.5C6 8.94771 6.44772 8.5 7 8.5C7.55228 8.5 8.0001 8.94771 8.0001 9.5C8.0001 10.0523 7.55238 10.5 7.0001 10.5C6.44782 10.5 6 10.0523 6 9.5Z" fill="#353566"/>
<path d="M15 8.5C14.4477 8.5 14 8.94771 14 9.5C14 10.0523 14.4477 10.5 15 10.5C15.5523 10.5 16.0001 10.0523 16.0001 9.5C16.0001 8.94771 15.5523 8.5 15 8.5Z" fill="#353566"/>
<path fill-rule="evenodd" clip-rule="evenodd" d="M18.25 16.125C17.2145 16.125 16.375 16.9645 16.375 18C16.375 19.0355 17.2145 19.875 18.25 19.875C19.2855 19.875 20.125 19.0355 20.125 18C20.125 16.9645 19.2855 16.125 18.25 16.125ZM17.625 18C17.625 17.6548 17.9048 17.375 18.25 17.375C18.5952 17.375 18.875 17.6548 18.875 18C18.875 18.3452 18.5952 18.625 18.25 18.625C17.9048 18.625 17.625 18.3452 17.625 18Z" fill="#353566"/>
<path fill-rule="evenodd" clip-rule="evenodd" d="M12.9679 20.3368C12.5193 19.5584 12.785 18.5624 13.5634 18.1121C13.6492 18.0625 13.6492 17.9374 13.5634 17.8878C12.785 17.4375 12.5193 16.4415 12.9679 15.6631L13.5876 14.5878C14.0367 13.8085 15.0325 13.5405 15.8118 13.9912C15.8949 14.0393 16.0026 13.9805 16.0026 13.8791C16.0026 12.9806 16.7301 12.25 17.6302 12.25H18.8697C19.7699 12.25 20.4973 12.9807 20.4973 13.8792C20.4973 13.9806 20.6051 14.0393 20.6882 13.9913C21.4674 13.5406 22.4632 13.8086 22.9123 14.5878L23.5321 15.6631C23.9807 16.4416 23.715 17.4376 22.9365 17.8878C22.8508 17.9374 22.8508 18.0625 22.9365 18.1121C23.715 18.5623 23.9807 19.5583 23.5321 20.3367L22.9123 21.4121C22.4632 22.1913 21.4674 22.4593 20.6882 22.0086C20.6052 21.9606 20.4973 22.0192 20.4973 22.1208C20.4973 23.0193 19.7699 23.75 18.8697 23.75H17.6303C16.7301 23.75 16.0026 23.0193 16.0026 22.1208C16.0026 22.0193 15.8948 21.9606 15.8118 22.0086C15.0325 22.4594 14.0367 22.1913 13.5876 21.4121L12.9679 20.3368ZM14.3144 19.4106C14.2534 19.4459 14.2315 19.5253 14.2675 19.5878L14.8872 20.6631C14.9228 20.7249 15.0005 20.745 15.0607 20.7102C16.1478 20.0814 17.5026 20.8688 17.5026 22.1208C17.5026 22.1934 17.5611 22.25 17.6303 22.25H18.8697C18.9389 22.25 18.9973 22.1934 18.9973 22.1208C18.9973 20.8688 20.3521 20.0814 21.4392 20.7101C21.4995 20.745 21.5771 20.7248 21.6127 20.6631L22.2325 19.5877C22.2685 19.5252 22.2466 19.4458 22.1855 19.4105C21.1012 18.7833 21.1012 17.2165 22.1855 16.5893C22.2466 16.5541 22.2685 16.4747 22.2325 16.4121L21.6127 15.3368C21.5771 15.275 21.4995 15.2549 21.4392 15.2897C20.3521 15.9185 18.9973 15.1312 18.9973 13.8792C18.9973 13.8066 18.9389 13.75 18.8697 13.75H17.6302C17.561 13.75 17.5026 13.8066 17.5026 13.8791C17.5026 15.1312 16.1478 15.9184 15.0608 15.2897C15.0005 15.2548 14.9228 15.275 14.8872 15.3368L14.2675 16.4121C14.2315 16.4746 14.2534 16.554 14.3144 16.5893C15.3988 17.2165 15.3988 18.7834 14.3144 19.4106Z" fill="#353566"/>
</g>
<defs>
<clipPath id="clip0_9002_311">
<rect width="24" height="24" fill="white"/>
</clipPath>
</defs>
</svg>
