<svg width="24" height="24" viewBox="0 0 24 24" fill="none" xmlns="http://www.w3.org/2000/svg">
<g clip-path="url(#clip0_9002_316)">
<path d="M6.56739 0.25H15.4326C16.3851 0.249994 17.1456 0.249989 17.7599 0.300176C18.3899 0.35165 18.9318 0.459634 19.4295 0.713223C20.2292 1.12068 20.8793 1.77085 21.2868 2.57054C21.5404 3.06824 21.6484 3.61012 21.6998 4.24013C21.75 4.85438 21.75 5.6149 21.75 6.5673V10.7162C21.75 11.1305 21.4142 11.4662 21 11.4662C20.5858 11.4662 20.25 11.1305 20.25 10.7162V6.6C20.25 5.60753 20.2494 4.90829 20.2048 4.36228C20.1609 3.82503 20.0782 3.50252 19.9503 3.25153C19.6866 2.73408 19.2659 2.31338 18.7485 2.04973C18.4975 1.92184 18.175 1.83909 17.6377 1.79519C17.0917 1.75058 16.3925 1.75 15.4 1.75H6.6C5.60754 1.75 4.90829 1.75058 4.36229 1.79519C3.82503 1.83909 3.50253 1.92184 3.25153 2.04973C2.73409 2.31338 2.31339 2.73408 2.04974 3.25153C1.92185 3.50252 1.83909 3.82503 1.7952 4.36228C1.75059 4.90829 1.75 5.60753 1.75 6.59999L1.75006 19.9883L4.38483 17.9216L4.84779 18.5116L4.40283 17.9079C4.39676 17.9124 4.39076 17.9169 4.38483 17.9216L4.42583 17.8894C4.62717 17.7312 4.80484 17.5916 5.00792 17.4895C5.1865 17.3998 5.37623 17.3343 5.57211 17.2947C5.7949 17.2496 6.02082 17.2498 6.27692 17.25L11.1502 17.25C11.5644 17.25 11.9002 17.5858 11.9002 18C11.9002 18.4142 11.5644 18.75 11.1502 18.75H6.32902C5.99209 18.75 5.92607 18.7534 5.86947 18.7649C5.80417 18.7781 5.74093 18.7999 5.6814 18.8298C5.62983 18.8558 5.57573 18.8938 5.31069 19.1017L2.73337 21.1235C2.54616 21.2704 2.36741 21.4106 2.21281 21.5107C2.06282 21.6078 1.81048 21.7541 1.49299 21.7523C1.114 21.7502 0.756431 21.5762 0.520845 21.2793C0.323484 21.0306 0.282815 20.7418 0.26663 20.5639C0.249947 20.3804 0.249974 20.1532 0.250002 19.9152L0.250005 6.56738C0.25 5.61502 0.249996 4.85436 0.30018 4.24013C0.351654 3.61012 0.459638 3.06824 0.713227 2.57054C1.12069 1.77085 1.77086 1.12068 2.57054 0.713223C3.06824 0.459634 3.61012 0.35165 4.24014 0.300176C4.8544 0.249989 5.61495 0.249994 6.56739 0.25Z" fill="#353566"/>
<path d="M10 9.5C10 8.94771 10.4477 8.5 11 8.5C11.5523 8.5 12.0001 8.94771 12.0001 9.5C12.0001 10.0523 11.5524 10.5 11.0001 10.5C10.4478 10.5 10 10.0523 10 9.5Z" fill="#353566"/>
<path d="M7 8.5C6.44772 8.5 6 8.94771 6 9.5C6 10.0523 6.44772 10.5 7 10.5C7.55228 10.5 8.0001 10.0523 8.0001 9.5C8.0001 8.94771 7.55228 8.5 7 8.5Z" fill="#353566"/>
<path d="M14 9.5C14 8.94771 14.4477 8.5 15 8.5C15.5523 8.5 16.0001 8.94771 16.0001 9.5C16.0001 10.0523 15.5524 10.5 15.0001 10.5C14.4478 10.5 14 10.0523 14 9.5Z" fill="#353566"/>
<path fill-rule="evenodd" clip-rule="evenodd" d="M19.5052 12.4845C18.8717 12.1679 18.1261 12.1679 17.4927 12.4847L13.9242 14.2694C13.5112 14.476 13.2502 14.8981 13.25 15.3598C13.2493 16.8084 13.3464 18.1997 13.9377 19.5512C14.7529 21.4144 16.2607 22.8616 18.1165 23.6714C18.3604 23.7778 18.6376 23.7778 18.8814 23.6714C20.7377 22.8614 22.2459 21.4124 23.0612 19.5489C23.6518 18.1987 23.7493 16.8087 23.75 15.3615C23.7502 14.8989 23.4889 14.4758 23.0751 14.269L19.5052 12.4845ZM18.1637 13.8263C18.3748 13.7207 18.6233 13.7207 18.8345 13.8262L22.2499 15.5335C22.2494 16.7135 22.1684 17.847 21.6869 18.9477C21.0574 20.3867 19.9223 21.5433 18.4989 22.2002C17.076 21.5441 15.9412 20.3883 15.3119 18.95C14.83 17.8485 14.7494 16.7143 14.7499 15.5336L18.1637 13.8263Z" fill="#353566"/>
</g>
<defs>
<clipPath id="clip0_9002_316">
<rect width="24" height="24" fill="white"/>
</clipPath>
</defs>
</svg>
