<svg width="24" height="24" viewBox="0 0 24 24" fill="none" xmlns="http://www.w3.org/2000/svg">
<path opacity="0.4" d="M18.8787 2H3.12132C1.94975 2 1 2.94975 1 4.12132C1 4.68393 1.2235 5.2235 1.62132 5.62132L8.06066 12.0607C8.34196 12.342 8.5 12.7235 8.5 13.1213V17.5194C8.5 17.8232 8.63809 18.1105 8.87531 18.3002L13.5 22V14.4263C12.2769 13.3945 11.5 11.8505 11.5 10.125C11.5 7.0184 14.0184 4.5 17.125 4.5C18.3589 4.5 19.5 4.8973 20.4274 5.57096C20.7947 5.17858 21 4.66053 21 4.12132C21 2.94975 20.0503 2 18.8787 2Z" fill="#353566"/>
<path d="M3.12132 1.5C1.67361 1.5 0.5 2.6736 0.5 4.12132C0.5 4.81654 0.776174 5.48328 1.26777 5.97487L7.70711 12.4142C7.89464 12.6017 8 12.8561 8 13.1213V17.5194C8 17.9751 8.20713 18.406 8.56296 18.6907L13.1877 22.3904C13.3377 22.5105 13.5434 22.5339 13.7166 22.4507C13.8898 22.3674 14 22.1922 14 22V14.8028C13.634 14.5578 13.2984 14.271 13 13.9493V20.9597L9.18765 17.9098C9.06905 17.8149 9 17.6713 9 17.5194V13.1213C9 12.5909 8.78929 12.0822 8.41421 11.7071L1.97487 5.26777C1.67082 4.96371 1.5 4.55132 1.5 4.12132C1.5 3.22589 2.22589 2.5 3.12132 2.5H18.8787C19.7741 2.5 20.5 3.22589 20.5 4.12132C20.5 4.55132 20.3292 4.96371 20.0251 5.26777L20.0023 5.29059C20.2926 5.46377 20.5661 5.66235 20.8195 5.88329C21.2564 5.40209 21.5 4.77426 21.5 4.12132C21.5 2.6736 20.3264 1.5 18.8787 1.5H3.12132Z" fill="#353566"/>
<path fill-rule="evenodd" clip-rule="evenodd" d="M12.5 10.125C12.5 7.57068 14.5707 5.5 17.125 5.5C19.6793 5.5 21.75 7.57068 21.75 10.125C21.75 11.222 21.368 12.2299 20.7299 13.0228L23.3535 15.6465C23.5488 15.8417 23.5488 16.1583 23.3535 16.3536C23.1582 16.5488 22.8416 16.5488 22.6464 16.3535L20.0228 13.7299C19.2299 14.368 18.222 14.75 17.125 14.75C14.5707 14.75 12.5 12.6793 12.5 10.125ZM17.125 6.5C15.123 6.5 13.5 8.12297 13.5 10.125C13.5 12.127 15.123 13.75 17.125 13.75C19.127 13.75 20.75 12.127 20.75 10.125C20.75 8.12297 19.127 6.5 17.125 6.5Z" fill="#353566"/>
</svg>
