<svg width="24" height="24" viewBox="0 0 24 24" fill="none" xmlns="http://www.w3.org/2000/svg">
<g clip-path="url(#clip0_9001_274419)">
<path d="M7.367 0.25H14.633C15.7251 0.249995 16.5906 0.24999 17.2883 0.306988C18.0017 0.365274 18.6053 0.486882 19.1565 0.76772C20.0502 1.22312 20.7769 1.94978 21.2323 2.84355C21.5131 3.39472 21.6347 3.99834 21.693 4.71173C21.75 5.40935 21.75 6.27484 21.75 7.36698V10.7162C21.75 11.1305 21.4142 11.4662 21 11.4662C20.5858 11.4662 20.25 11.1305 20.25 10.7162V7.4C20.25 6.26752 20.2494 5.46326 20.198 4.83388C20.1473 4.21325 20.0509 3.829 19.8958 3.52453C19.5842 2.913 19.087 2.41582 18.4755 2.10423C18.171 1.94909 17.7867 1.85271 17.1661 1.80201C16.5367 1.75058 15.7325 1.75 14.6 1.75H7.4C6.26752 1.75 5.46326 1.75058 4.83388 1.80201C4.21325 1.85271 3.829 1.94909 3.52453 2.10423C2.913 2.41582 2.41582 2.913 2.10423 3.52453C1.94909 3.829 1.85271 4.21325 1.80201 4.83388C1.75058 5.46326 1.75 6.26752 1.75 7.4V11.7658C1.75 12.8193 1.75051 13.5674 1.79518 14.1542C1.83926 14.7332 1.92311 15.0935 2.05774 15.3804C2.38005 16.0674 2.93259 16.6199 3.61956 16.9423C3.90651 17.0769 4.26684 17.1607 4.84579 17.2048C5.43261 17.2495 6.18074 17.25 7.23421 17.25L7.31026 17.2499C7.67656 17.2495 7.99882 17.2492 8.30354 17.3359C8.62087 17.4262 8.91446 17.5851 9.16352 17.8015C9.40267 18.0093 9.57852 18.2793 9.7784 18.5863L10.2882 19.3674C10.5195 19.7218 10.6656 19.9442 10.7864 20.097C10.861 20.1912 10.901 20.2256 10.9127 20.2348C10.9689 20.2557 11.0309 20.2558 11.0872 20.2348C11.0918 20.2312 11.1 20.2244 11.112 20.2128C11.1494 20.1766 11.2047 20.1129 11.288 19.9986C11.5319 19.6638 12.001 19.5902 12.3358 19.8341C12.6706 20.078 12.7442 20.5471 12.5003 20.8819C12.3028 21.1529 12.0514 21.4573 11.6766 21.6144C11.2438 21.7959 10.7562 21.7959 10.3234 21.6144C10.0065 21.4815 9.78375 21.2473 9.60993 21.0275C9.44144 20.8145 9.25804 20.5335 9.04993 20.2146L8.56384 19.4699C8.29832 19.0631 8.24004 18.9862 8.17973 18.9338C8.09671 18.8617 7.99885 18.8087 7.89307 18.7786C7.81623 18.7568 7.71998 18.75 7.23421 18.75H7.20358C6.18757 18.75 5.38237 18.75 4.73192 18.7005C4.06708 18.6499 3.50277 18.5444 2.98244 18.3002C1.9784 17.8292 1.17084 17.0216 0.699774 16.0176C0.455647 15.4972 0.350123 14.9329 0.299509 14.2681C0.249992 13.6176 0.249995 12.8125 0.25 11.7965V7.367C0.249995 6.27486 0.24999 5.40935 0.306988 4.71173C0.365274 3.99835 0.486882 3.39472 0.76772 2.84355C1.22312 1.94978 1.94978 1.22312 2.84355 0.76772C3.39472 0.486882 3.99835 0.365274 4.71173 0.306988C5.40935 0.24999 6.27486 0.249995 7.367 0.25Z" fill="#353566"/>
<path d="M10 9.5C10 8.94771 10.4477 8.5 11 8.5C11.5523 8.5 12.0001 8.94771 12.0001 9.5C12.0001 10.0523 11.5524 10.5 11.0001 10.5C10.4478 10.5 10 10.0523 10 9.5Z" fill="#353566"/>
<path d="M7 8.5C6.44772 8.5 6 8.94771 6 9.5C6 10.0523 6.44772 10.5 7 10.5C7.55228 10.5 8.0001 10.0523 8.0001 9.5C8.0001 8.94771 7.55228 8.5 7 8.5Z" fill="#353566"/>
<path d="M14 9.5C14 8.94771 14.4477 8.5 15 8.5C15.5523 8.5 16.0001 8.94771 16.0001 9.5C16.0001 10.0523 15.5524 10.5 15.0001 10.5C14.4478 10.5 14 10.0523 14 9.5Z" fill="#353566"/>
<path fill-rule="evenodd" clip-rule="evenodd" d="M19.5052 12.4845C18.8717 12.1679 18.1261 12.1679 17.4927 12.4847L13.9242 14.2694C13.5112 14.476 13.2502 14.8981 13.25 15.3598C13.2493 16.8084 13.3464 18.1997 13.9377 19.5512C14.7529 21.4144 16.2607 22.8616 18.1165 23.6714C18.3604 23.7778 18.6376 23.7778 18.8814 23.6714C20.7377 22.8614 22.2459 21.4124 23.0612 19.5489C23.6518 18.1987 23.7493 16.8087 23.75 15.3615C23.7502 14.8989 23.4889 14.4758 23.0751 14.269L19.5052 12.4845ZM18.1637 13.8263C18.3748 13.7207 18.6233 13.7207 18.8345 13.8262L22.2499 15.5335C22.2494 16.7135 22.1684 17.847 21.6869 18.9477C21.0574 20.3867 19.9223 21.5433 18.4989 22.2002C17.076 21.5441 15.9412 20.3883 15.3119 18.95C14.83 17.8485 14.7494 16.7143 14.7499 15.5336L18.1637 13.8263Z" fill="#353566"/>
</g>
<defs>
<clipPath id="clip0_9001_274419">
<rect width="24" height="24" fill="white"/>
</clipPath>
</defs>
</svg>
