<svg width="24" height="24" viewBox="0 0 24 24" fill="none" xmlns="http://www.w3.org/2000/svg">
<g clip-path="url(#clip0_9001_271080)">
<path opacity="0.4" d="M0.75 14.4132V15.8323C0.749993 16.7149 0.749988 17.423 0.79677 17.9956C0.844838 18.5839 0.94601 19.0949 1.18597 19.5659C1.56947 20.3185 2.18139 20.9304 2.93404 21.3139C3.405 21.5539 3.91601 21.6551 4.50433 21.7031C5.07691 21.7499 5.78497 21.7499 6.66757 21.7499H11.0595C11.3187 21.7499 11.5594 21.6162 11.6963 21.3962C11.8332 21.1762 11.8469 20.9011 11.7324 20.6686C11.627 20.4545 11.5289 20.2322 11.4387 20.0019C11.1871 19.3593 11.1871 18.6409 11.4387 17.9982C11.6153 17.5472 11.8225 17.1267 12.0557 16.7375C11.7409 16.9051 11.3815 17 11 17C9.75736 17 8.75 15.9927 8.75 14.75L2.25 14.75C1.7132 14.75 1.20463 14.6292 0.75 14.4132Z" fill="#353566"/>
<path fill-rule="evenodd" clip-rule="evenodd" d="M12.6289 0.250001H9.37109C8.97576 0.249989 8.63464 0.249978 8.35373 0.27293C8.05722 0.297156 7.76231 0.350643 7.47852 0.495238C7.05516 0.710953 6.71095 1.05516 6.49524 1.47852C6.35064 1.76231 6.29716 2.05722 6.27293 2.35373C6.25235 2.60556 6.25023 2.90573 6.25002 3.25H4.96858C4.29521 3.24999 3.7445 3.24999 3.29693 3.28655C2.83367 3.3244 2.41527 3.40514 2.02453 3.60423C1.41301 3.91582 0.91582 4.413 0.604232 5.02453C0.405139 5.41527 0.324403 5.83367 0.286553 6.29693C0.249987 6.74449 0.249993 7.29521 0.25 7.96856V10.2424C0.250013 10.7318 0.250574 11.1537 0.267477 11.5156C0.397366 12.4946 1.23547 13.25 2.25 13.25L8.75 13.25C8.75 12.0074 9.75736 11 11 11C12.2426 11 13.25 12.0074 13.25 13.25L17.9768 13.25L18 13.25L18.0232 13.25L19.7498 13.25C20.765 13.25 21.6035 12.4936 21.7326 11.5137C21.7464 11.2182 21.7492 10.8827 21.7498 10.5032V9L21.75 8.98453V7.96856C21.75 7.2952 21.75 6.74449 21.7134 6.29693C21.6756 5.83367 21.5949 5.41527 21.3958 5.02453C21.0842 4.41301 20.587 3.91582 19.9755 3.60423C19.5847 3.40514 19.1663 3.3244 18.7031 3.28655C18.2555 3.24999 17.7048 3.24999 17.0314 3.25H15.75C15.7498 2.90573 15.7476 2.60556 15.7271 2.35373C15.7028 2.05722 15.6494 1.76231 15.5048 1.47852C15.2891 1.05516 14.9448 0.710953 14.5215 0.495238C14.2377 0.350643 13.9428 0.297156 13.6463 0.27293C13.3654 0.249978 13.0242 0.249989 12.6289 0.250001ZM14.2499 3.25C14.2496 2.90117 14.2473 2.66274 14.2321 2.47588C14.2154 2.27213 14.1872 2.19659 14.1683 2.15951C14.0964 2.01839 13.9816 1.90365 13.8405 1.83175C13.8034 1.81285 13.7279 1.7846 13.5241 1.76795C13.3116 1.75059 13.0324 1.75 12.6 1.75H9.4C8.96759 1.75 8.68838 1.75059 8.47588 1.76795C8.27213 1.7846 8.19659 1.81285 8.15951 1.83175C8.01839 1.90365 7.90365 2.01839 7.83175 2.15951C7.81285 2.19659 7.7846 2.27213 7.76795 2.47588C7.75268 2.66274 7.75039 2.90117 7.75006 3.25H14.2499Z" fill="#353566"/>
<path d="M11.75 13.9845V13.25C11.75 12.8358 11.4142 12.5 11 12.5C10.5858 12.5 10.25 12.8358 10.25 13.25V14.75C10.25 15.1642 10.5858 15.5 11 15.5C11.4142 15.5 11.75 15.1642 11.75 14.75V14.0155L11.7498 14L11.75 13.9845Z" fill="#353566"/>
<path d="M18 17.5C17.17 17.5 16.5 18.17 16.5 19C16.5 19.83 17.17 20.5 18 20.5C18.83 20.5 19.5 19.83 19.5 19C19.5 18.17 18.83 17.5 18 17.5Z" fill="#353566"/>
<path fill-rule="evenodd" clip-rule="evenodd" d="M23.3973 18.4539C22.3768 15.8473 20.2068 14.5 18 14.5C15.7932 14.5 13.6232 15.8473 12.6027 18.4539C12.4658 18.8036 12.4658 19.1964 12.6027 19.5461C13.6232 22.1527 15.7932 23.5 18 23.5C20.2068 23.5 22.3768 22.1527 23.3973 19.5461C23.5342 19.1964 23.5342 18.8036 23.3973 18.4539ZM15.5 19C15.5 17.6177 16.6177 16.5 18 16.5C19.3823 16.5 20.5 17.6177 20.5 19C20.5 20.3823 19.3823 21.5 18 21.5C16.6177 21.5 15.5 20.3823 15.5 19Z" fill="#353566"/>
</g>
<defs>
<clipPath id="clip0_9001_271080">
<rect width="24" height="24" fill="white"/>
</clipPath>
</defs>
</svg>
