<svg width="24" height="24" viewBox="0 0 24 24" fill="none" xmlns="http://www.w3.org/2000/svg">
<g clip-path="url(#clip0_9001_271055)">
<path opacity="0.4" d="M0.75 14.4132V15.8323C0.749993 16.7149 0.749988 17.423 0.79677 17.9956C0.844838 18.5839 0.94601 19.0949 1.18597 19.5659C1.56947 20.3185 2.18139 20.9304 2.93404 21.3139C3.405 21.5539 3.91601 21.6551 4.50433 21.7031C5.07692 21.7499 5.78499 21.7499 6.66762 21.7499H13.6595C13.9297 21.7499 14.1791 21.6045 14.3122 21.3694C14.4453 21.1342 14.4416 20.8456 14.3025 20.6139C13.6673 19.5556 13.25 18.3549 13.25 17.0021C13.25 16.202 13.4131 15.4412 13.7075 14.75L13.25 14.75C13.25 15.9927 12.2426 17 11 17C9.75736 17 8.75 15.9927 8.75 14.75L2.25 14.75C1.7132 14.75 1.20463 14.6292 0.75 14.4132Z" fill="#353566"/>
<path fill-rule="evenodd" clip-rule="evenodd" d="M12.6289 0.250001H9.37109C8.97576 0.249989 8.63464 0.249978 8.35373 0.27293C8.05722 0.297156 7.76231 0.350643 7.47852 0.495238C7.05516 0.710953 6.71095 1.05516 6.49524 1.47852C6.35064 1.76231 6.29716 2.05722 6.27293 2.35373C6.25235 2.60556 6.25023 2.90573 6.25002 3.25H4.96858C4.29521 3.24999 3.7445 3.24999 3.29693 3.28655C2.83367 3.3244 2.41527 3.40514 2.02453 3.60423C1.41301 3.91582 0.91582 4.413 0.604231 5.02453C0.405138 5.41527 0.324403 5.83367 0.286553 6.29693C0.249986 6.74449 0.249992 7.29521 0.25 7.96857V10.1913C0.25 10.2084 0.25 10.2254 0.25 10.2424C0.250013 10.7318 0.250573 11.1537 0.267477 11.5156C0.397365 12.4946 1.23547 13.25 2.25 13.25L8.75 13.25C8.75 12.0074 9.75736 11 11 11C12.2426 11 13.25 12.0074 13.25 13.25L14.6418 13.25C15.6967 12.0248 17.258 11.25 19.0001 11.25C19.6182 11.25 20.2121 11.3472 20.7682 11.5267C20.9955 11.6001 21.2442 11.5608 21.4378 11.4209C21.6314 11.281 21.7468 11.0573 21.7485 10.8184C21.7493 10.7126 21.7497 10.6019 21.7498 10.4863V9C21.7498 8.99483 21.7499 8.98967 21.75 8.98453V7.96856C21.75 7.2952 21.75 6.74449 21.7134 6.29693C21.6756 5.83367 21.5949 5.41527 21.3958 5.02453C21.0842 4.41301 20.587 3.91582 19.9755 3.60423C19.5847 3.40514 19.1663 3.3244 18.7031 3.28655C18.2555 3.24999 17.7048 3.24999 17.0314 3.25H15.75C15.7498 2.90573 15.7476 2.60556 15.7271 2.35373C15.7028 2.05722 15.6494 1.76231 15.5048 1.47852C15.2891 1.05516 14.9448 0.710953 14.5215 0.495238C14.2377 0.350643 13.9428 0.297156 13.6463 0.27293C13.3654 0.249978 13.0242 0.249989 12.6289 0.250001ZM14.2499 3.25C14.2496 2.90117 14.2473 2.66274 14.2321 2.47588C14.2154 2.27213 14.1872 2.19659 14.1683 2.15951C14.0964 2.01839 13.9816 1.90365 13.8405 1.83175C13.8034 1.81285 13.7279 1.7846 13.5241 1.76795C13.3116 1.75059 13.0324 1.75 12.6 1.75H9.4C8.96759 1.75 8.68838 1.75059 8.47588 1.76795C8.27213 1.7846 8.19659 1.81285 8.15951 1.83175C8.01839 1.90365 7.90365 2.01839 7.83175 2.15951C7.81285 2.19659 7.7846 2.27213 7.76795 2.47588C7.75268 2.66274 7.75039 2.90117 7.75006 3.25H14.2499Z" fill="#353566"/>
<path d="M11.75 13.25V14.75C11.75 15.1642 11.4142 15.5 11 15.5C10.5858 15.5 10.25 15.1642 10.25 14.75V13.25C10.25 12.8358 10.5858 12.5 11 12.5C11.4142 12.5 11.75 12.8358 11.75 13.25Z" fill="#353566"/>
<path fill-rule="evenodd" clip-rule="evenodd" d="M14.5 17.002C14.5 14.517 16.5144 12.5 19.0001 12.5C21.4854 12.5 23.5 14.5147 23.5 17C23.5 19.7667 21.3 21.9 19.3 23.4C19.1222 23.5333 18.8778 23.5333 18.7 23.4C16.7001 21.9001 14.5 19.7667 14.5 17.002ZM19 18.5001C19.8285 18.5001 20.5 17.8285 20.5 17.0001C20.5 16.1716 19.8285 15.5001 19 15.5001C18.1716 15.5001 17.5 16.1716 17.5 17.0001C17.5 17.8285 18.1716 18.5001 19 18.5001Z" fill="#353566"/>
</g>
<defs>
<clipPath id="clip0_9001_271055">
<rect width="24" height="24" fill="white"/>
</clipPath>
</defs>
</svg>
