<svg width="24" height="24" viewBox="0 0 24 24" fill="none" xmlns="http://www.w3.org/2000/svg">
<g opacity="0.4">
<path d="M12.0002 3C7.64721 3 4.01403 6.09132 3.18022 10.1989C3.07036 10.7402 2.54253 11.0899 2.00128 10.98C1.46003 10.8701 1.11033 10.3423 1.2202 9.80107C2.23948 4.77972 6.67731 1 12.0002 1C15.9037 1 19.3309 3.03271 21.2833 6.09669L21.5155 4.82091C21.6144 4.27756 22.1351 3.91726 22.6784 4.01617C23.2218 4.11508 23.5821 4.63574 23.4832 5.17909L22.6823 9.57854C22.6497 9.99268 22.3592 10.3591 21.9344 10.4684C21.8431 10.4919 21.7515 10.502 21.6617 10.5C21.6087 10.4989 21.555 10.4936 21.5011 10.4838C21.0716 10.4057 20.7565 10.064 20.6921 9.65592C19.6609 5.82141 16.1588 3 12.0002 3Z" fill="#353566"/>
<path d="M21.9991 13.02C22.5403 13.1299 22.89 13.6577 22.7801 14.1989C21.7609 19.2203 17.323 23 12.0002 23C8.09637 23 4.66887 20.967 2.71662 17.9026L2.48397 19.1793C2.38497 19.7226 1.86424 20.0828 1.3209 19.9838C0.777566 19.8848 0.417366 19.3641 0.516374 18.8207L1.31805 14.4213C1.3507 14.0072 1.6412 13.6409 2.06596 13.5316C2.15731 13.5081 2.24896 13.4979 2.33883 13.5C2.39189 13.5011 2.44555 13.5064 2.49944 13.5162C2.92883 13.5944 3.24385 13.9361 3.30822 14.3441C4.33948 18.1786 7.84158 21 12.0002 21C16.3531 21 19.9863 17.9087 20.8201 13.8011C20.93 13.2598 21.4578 12.9101 21.9991 13.02Z" fill="#353566"/>
</g>
<path d="M15.5303 8.46967C15.8232 8.76256 15.8232 9.23744 15.5303 9.53033L9.53033 15.5303C9.23744 15.8232 8.76256 15.8232 8.46967 15.5303C8.17678 15.2374 8.17678 14.7626 8.46967 14.4697L14.4697 8.46967C14.7626 8.17678 15.2374 8.17678 15.5303 8.46967Z" fill="#353566"/>
<path d="M8.5 9.5C8.5 8.94772 8.94772 8.5 9.5 8.5C10.0523 8.5 10.5001 8.94772 10.5001 9.5C10.5001 10.0523 10.0524 10.5 9.5001 10.5C8.94782 10.5 8.5 10.0523 8.5 9.5Z" fill="#353566"/>
<path d="M14.5 13.5C13.9477 13.5 13.5 13.9477 13.5 14.5C13.5 15.0523 13.9477 15.5 14.5 15.5C15.0523 15.5 15.5001 15.0523 15.5001 14.5C15.5001 13.9477 15.0523 13.5 14.5 13.5Z" fill="#353566"/>
</svg>
