<svg width="24" height="24" viewBox="0 0 24 24" fill="none" xmlns="http://www.w3.org/2000/svg">
<path opacity="0.4" d="M3 1.25C2.58579 1.25 2.25 1.58579 2.25 2V10.4326C2.24999 11.3851 2.24999 12.1456 2.30018 12.7599C2.35165 13.3899 2.45963 13.9318 2.71322 14.4295C3.12068 15.2291 3.77085 15.8793 4.57054 16.2868C5.06824 16.5404 5.61012 16.6484 6.24013 16.6998C6.85439 16.75 7.61493 16.75 8.56737 16.75H15.4326C16.3851 16.75 17.1456 16.75 17.7599 16.6998C18.3899 16.6484 18.9318 16.5404 19.4295 16.2868C20.2291 15.8793 20.8793 15.2291 21.2868 14.4295C21.5404 13.9318 21.6484 13.3899 21.6998 12.7599C21.75 12.1456 21.75 11.3851 21.75 10.4327V2C21.75 1.58579 21.4142 1.25 21 1.25H3Z" fill="#353566"/>
<path d="M1.5 1.25C1.08579 1.25 0.75 1.58579 0.75 2C0.75 2.41421 1.08579 2.75 1.5 2.75H22.5C22.9142 2.75 23.25 2.41421 23.25 2C23.25 1.58579 22.9142 1.25 22.5 1.25H1.5Z" fill="#353566"/>
<path d="M12.75 16C12.75 15.5858 12.4142 15.25 12 15.25C11.5858 15.25 11.25 15.5858 11.25 16V18.625L7.55001 21.4C7.21864 21.6485 7.15149 22.1186 7.40001 22.45C7.64854 22.7814 8.11864 22.8485 8.45001 22.6L12 19.9375L15.55 22.6C15.8814 22.8485 16.3515 22.7814 16.6 22.45C16.8485 22.1186 16.7814 21.6485 16.45 21.4L12.75 18.625V16Z" fill="#353566"/>
<path d="M16.001 7.00399V5.50399C16.001 5.18599 15.855 4.89399 15.601 4.70399C15.346 4.51299 15.023 4.45399 14.751 4.53599L12.137 5.12399C11.585 5.28399 11.2 5.79699 11.2 6.37199V10.39C10.411 9.99199 9.37299 10.028 8.66799 10.557C8.24299 10.876 7.99899 11.331 7.99899 11.806C7.99899 12.281 8.24299 12.736 8.66799 13.055C9.06899 13.357 9.58399 13.507 10.099 13.507C10.614 13.507 11.13 13.356 11.531 13.055C11.956 12.736 12.2 12.281 12.2 11.806C12.2 11.7932 12.1977 11.7807 12.1955 11.7682C12.1935 11.7572 12.1915 11.7462 12.191 11.735C12.1918 11.7282 12.1938 11.7217 12.1957 11.7153C12.1984 11.7065 12.201 11.6978 12.201 11.688V8.78299L15.209 8.05999C15.675 7.92399 16.001 7.48999 16.001 7.00399Z" fill="#353566"/>
</svg>
