<svg width="24" height="24" viewBox="0 0 24 24" fill="none" xmlns="http://www.w3.org/2000/svg">
<path fill-rule="evenodd" clip-rule="evenodd" d="M5.7679 2.25012H17.2321C18.0449 2.25012 18.7006 2.25011 19.2315 2.29349C19.7781 2.33815 20.2582 2.43251 20.7025 2.65885C21.4081 3.01837 21.9817 3.59205 22.3413 4.29766C22.5676 4.74188 22.662 5.22202 22.7066 5.76866C22.75 6.29956 22.75 6.95517 22.75 7.768V10.9653C22.75 11.3795 22.4142 11.7153 22 11.7153C21.5858 11.7153 21.25 11.3795 21.25 10.9653V9.25012H1.75V14.2001C1.75 15.0526 1.75058 15.6468 1.78838 16.1094C1.82547 16.5633 1.8946 16.8241 1.99524 17.0216C2.21095 17.445 2.55516 17.7892 2.97852 18.0049C3.17604 18.1055 3.43681 18.1747 3.89068 18.2117C4.35331 18.2495 4.94754 18.2501 5.8 18.2501H13.4162C13.8304 18.2501 14.1662 18.5859 14.1662 19.0001C14.1662 19.4143 13.8304 19.7501 13.4162 19.7501H5.76787C4.95504 19.7501 4.29944 19.7501 3.76853 19.7068C3.2219 19.6621 2.74175 19.5677 2.29754 19.3414C1.59193 18.9819 1.01825 18.4082 0.658726 17.7026C0.432386 17.2584 0.338026 16.7782 0.293364 16.2316C0.249988 15.7007 0.249993 15.0451 0.25 14.2322V7.76802C0.249993 6.95519 0.249988 6.29956 0.293364 5.76866C0.338026 5.22202 0.432386 4.74188 0.658726 4.29766C1.01825 3.59205 1.59193 3.01837 2.29754 2.65885C2.74176 2.43251 3.2219 2.33815 3.76853 2.29349C4.29944 2.25011 4.95507 2.25012 5.7679 2.25012ZM1.75 7.75012H21.25C21.25 6.92434 21.2487 6.34433 21.2116 5.8908C21.1745 5.43693 21.1054 5.17616 21.0048 4.97864C20.789 4.55528 20.4448 4.21107 20.0215 3.99536C19.824 3.89472 19.5632 3.82559 19.1093 3.7885C18.6467 3.75071 18.0525 3.75012 17.2 3.75012H5.8C4.94755 3.75012 4.35331 3.75071 3.89068 3.7885C3.43681 3.82559 3.17604 3.89472 2.97852 3.99536C2.55516 4.21107 2.21095 4.55528 1.99524 4.97864C1.8946 5.17616 1.82547 5.43693 1.78838 5.8908C1.75133 6.34433 1.75004 6.92434 1.75 7.75012Z" fill="#353566"/>
<path d="M4.25 14.5001C4.25 14.0859 4.58579 13.7501 5 13.7501H9.5C9.91421 13.7501 10.25 14.0859 10.25 14.5001C10.25 14.9143 9.91421 15.2501 9.5 15.2501H5C4.58579 15.2501 4.25 14.9143 4.25 14.5001Z" fill="#353566"/>
<path d="M23.5303 21.5303C23.2374 21.8232 22.7626 21.8232 22.4697 21.5303L20.5 19.5607L18.5303 21.5303C18.2374 21.8232 17.7626 21.8232 17.4697 21.5303C17.1768 21.2374 17.1768 20.7626 17.4697 20.4697L19.4393 18.5L17.4697 16.5304C17.1768 16.2375 17.1768 15.7626 17.4697 15.4697C17.7626 15.1768 18.2375 15.1768 18.5304 15.4697L20.5 17.4393L22.4696 15.4697C22.7625 15.1768 23.2374 15.1768 23.5303 15.4697C23.8232 15.7626 23.8232 16.2375 23.5303 16.5304L21.5607 18.5L23.5303 20.4697C23.8232 20.7626 23.8232 21.2374 23.5303 21.5303Z" fill="#353566"/>
</svg>
