<svg width="24" height="24" viewBox="0 0 24 24" fill="none" xmlns="http://www.w3.org/2000/svg">
<path fill-rule="evenodd" clip-rule="evenodd" d="M17.2321 2.25H5.7679C4.95507 2.24999 4.29944 2.24999 3.76853 2.29336C3.2219 2.33803 2.74176 2.43239 2.29754 2.65873C1.59193 3.01825 1.01825 3.59193 0.658726 4.29754C0.432386 4.74176 0.338026 5.2219 0.293364 5.76853C0.249988 6.29944 0.249993 6.95504 0.25 7.76787V14.2321C0.249993 15.0449 0.249988 15.7006 0.293364 16.2315C0.338026 16.7781 0.432386 17.2582 0.658726 17.7025C1.01825 18.4081 1.59193 18.9818 2.29754 19.3413C2.74175 19.5676 3.2219 19.662 3.76853 19.7066C4.29944 19.75 4.95504 19.75 5.76787 19.75H10.252C10.6662 19.75 11.002 19.4142 11.002 19C11.002 18.5858 10.6662 18.25 10.252 18.25H5.8C4.94754 18.25 4.35331 18.2494 3.89068 18.2116C3.43681 18.1745 3.17604 18.1054 2.97852 18.0048C2.55516 17.7891 2.21095 17.4448 1.99524 17.0215C1.8946 16.824 1.82547 16.5632 1.78838 16.1093C1.75058 15.6467 1.75 15.0525 1.75 14.2V9.25H21.25V10.0703C21.25 10.4845 21.5858 10.8203 22 10.8203C22.4142 10.8203 22.75 10.4845 22.75 10.0703V7.76788C22.75 6.95505 22.75 6.29944 22.7066 5.76853C22.662 5.2219 22.5676 4.74176 22.3413 4.29754C21.9817 3.59193 21.4081 3.01825 20.7025 2.65873C20.2582 2.43239 19.7781 2.33803 19.2315 2.29336C18.7006 2.24999 18.0449 2.24999 17.2321 2.25ZM21.25 7.75H1.75C1.75004 6.92422 1.75133 6.34421 1.78838 5.89068C1.82547 5.43681 1.8946 5.17604 1.99524 4.97852C2.21095 4.55516 2.55516 4.21095 2.97852 3.99524C3.17604 3.8946 3.43681 3.82547 3.89068 3.78838C4.35331 3.75058 4.94755 3.75 5.8 3.75H17.2C18.0525 3.75 18.6467 3.75058 19.1093 3.78838C19.5632 3.82547 19.824 3.8946 20.0215 3.99524C20.4448 4.21095 20.789 4.55516 21.0048 4.97852C21.1054 5.17604 21.1745 5.43681 21.2116 5.89068C21.2487 6.34421 21.25 6.92422 21.25 7.75Z" fill="#353566"/>
<path d="M5 13.75C4.58579 13.75 4.25 14.0858 4.25 14.5C4.25 14.9142 4.58579 15.25 5 15.25H9.5C9.91421 15.25 10.25 14.9142 10.25 14.5C10.25 14.0858 9.91421 13.75 9.5 13.75H5Z" fill="#353566"/>
<path d="M18.625 16.0089L19.558 16.9419C19.8021 17.186 20.1978 17.186 20.4419 16.9419C20.686 16.6978 20.686 16.3021 20.4419 16.058L18.4419 14.058C18.3247 13.9408 18.1658 13.875 18 13.875C17.8342 13.875 17.6753 13.9408 17.5581 14.058L15.558 16.0581C15.314 16.3021 15.314 16.6979 15.558 16.9419C15.8021 17.186 16.1978 17.186 16.4419 16.9419L17.375 16.0089V19.5C17.375 19.8452 17.6548 20.125 18 20.125C18.3452 20.125 18.625 19.8452 18.625 19.5V16.0089Z" fill="#353566"/>
<path fill-rule="evenodd" clip-rule="evenodd" d="M18 11.25C14.8244 11.25 12.25 13.8244 12.25 17C12.25 20.1756 14.8244 22.75 18 22.75C21.1756 22.75 23.75 20.1756 23.75 17C23.75 13.8244 21.1756 11.25 18 11.25ZM13.75 17C13.75 14.6528 15.6528 12.75 18 12.75C20.3472 12.75 22.25 14.6528 22.25 17C22.25 19.3472 20.3472 21.25 18 21.25C15.6528 21.25 13.75 19.3472 13.75 17Z" fill="#353566"/>
</svg>
