<svg width="24" height="24" viewBox="0 0 24 24" fill="none" xmlns="http://www.w3.org/2000/svg">
<path fill-rule="evenodd" clip-rule="evenodd" d="M6.14339 17.8562C3.24613 16.4314 1.25 13.4496 1.25 10C1.25 5.16751 5.16751 1.25 10 1.25C13.4496 1.25 16.4314 3.24613 17.8562 6.14339C20.755 7.5689 22.75 10.5515 22.75 14C22.75 18.8325 18.8325 22.75 14 22.75C10.5515 22.75 7.5689 20.755 6.14339 17.8562ZM2.75 10C2.75 5.99594 5.99594 2.75 10 2.75C12.2552 2.75 14.2709 3.77975 15.6011 5.39615C15.1469 5.31216 14.6803 5.26326 14.2044 5.25235C14.1365 5.25078 14.0683 5.25 14 5.25C9.16751 5.25 5.25 9.16751 5.25 14C5.25 14.0881 5.25131 14.176 5.2539 14.2635C5.26737 14.7189 5.31564 15.1657 5.39615 15.6011C3.77975 14.2709 2.75 12.2552 2.75 10ZM6.75268 14.1991C6.85813 18.1111 10.0625 21.25 14 21.25C18.0041 21.25 21.25 18.0041 21.25 14C21.25 10.0777 18.1353 6.88289 14.2444 6.75403C14.1632 6.75135 14.0818 6.75 14 6.75C10.2462 6.75 7.1587 9.60287 6.78743 13.2587C6.76268 13.5025 6.75 13.7497 6.75 14C6.75 14.0666 6.7509 14.1329 6.75268 14.1991Z" fill="#353566"/>
</svg>
