<svg width="24" height="24" viewBox="0 0 24 24" fill="none" xmlns="http://www.w3.org/2000/svg">
<g clip-path="url(#clip0_9001_297199)">
<path d="M9.96967 5.96967C9.67678 6.26256 9.67678 6.73744 9.96967 7.03033C10.2626 7.32322 10.7374 7.32322 11.0303 7.03033L13.5303 4.53033C13.671 4.38968 13.75 4.19891 13.75 4C13.75 3.80109 13.671 3.61032 13.5303 3.46967L11.0303 0.96967C10.7374 0.676777 10.2626 0.676777 9.96967 0.96967C9.67678 1.26256 9.67678 1.73744 9.96967 2.03033L11.1893 3.25H7.06739C6.11494 3.24999 5.3544 3.24999 4.74013 3.30018C4.11012 3.35165 3.56824 3.45963 3.07054 3.71322C2.27085 4.12069 1.62068 4.77085 1.21322 5.57054C0.959634 6.06824 0.85165 6.61012 0.800176 7.24013C0.749989 7.8544 0.749994 8.61495 0.75 9.56739V14.4326C0.749994 15.3851 0.749989 16.1456 0.800176 16.7599C0.85165 17.3899 0.959634 17.9318 1.21322 18.4295C1.62068 19.2291 2.27085 19.8793 3.07054 20.2868C3.56824 20.5404 4.11012 20.6483 4.74013 20.6998C5.35438 20.75 6.1149 20.75 7.0673 20.75H8.18182C8.59603 20.75 8.93182 20.4142 8.93182 20C8.93182 19.5858 8.59603 19.25 8.18182 19.25H7.1C6.10753 19.25 5.40829 19.2494 4.86228 19.2048C4.32503 19.1609 4.00252 19.0782 3.75153 18.9503C3.23408 18.6866 2.81338 18.2659 2.54973 17.7485C2.42184 17.4975 2.33909 17.175 2.29519 16.6377C2.25058 16.0917 2.25 15.3925 2.25 14.4V9.6C2.25 8.60753 2.25058 7.90829 2.29519 7.36228C2.33909 6.82503 2.42184 6.50252 2.54973 6.25153C2.81338 5.73408 3.23408 5.31339 3.75153 5.04973C4.00252 4.92184 4.32503 4.83909 4.86228 4.7952C5.40829 4.75058 6.10753 4.75 7.1 4.75H11.1893L9.96967 5.96967Z" fill="#353566"/>
<path d="M16.9 4.75C17.8925 4.75 18.5917 4.75058 19.1377 4.7952C19.675 4.83909 19.9975 4.92184 20.2485 5.04973C20.7659 5.31339 21.1866 5.73408 21.4503 6.25153C21.5782 6.50252 21.6609 6.82503 21.7048 7.36228C21.7494 7.90829 21.75 8.60753 21.75 9.6V14.4C21.75 15.3925 21.7494 16.0917 21.7048 16.6377C21.6609 17.175 21.5782 17.4975 21.4503 17.7485C21.1866 18.2659 20.7659 18.6866 20.2485 18.9503C19.9975 19.0782 19.675 19.1609 19.1377 19.2048C18.5917 19.2494 17.8925 19.25 16.9 19.25H12.8107L14.0303 18.0303C14.3232 17.7374 14.3232 17.2626 14.0303 16.9697C13.7374 16.6768 13.2626 16.6768 12.9697 16.9697L10.4697 19.4697C10.329 19.6103 10.25 19.8011 10.25 20C10.25 20.1989 10.329 20.3897 10.4697 20.5303L12.9697 23.0303C13.2626 23.3232 13.7374 23.3232 14.0303 23.0303C14.3232 22.7374 14.3232 22.2626 14.0303 21.9697L12.8107 20.75H16.9326C17.885 20.75 18.6456 20.75 19.2599 20.6998C19.8899 20.6483 20.4318 20.5404 20.9295 20.2868C21.7291 19.8793 22.3793 19.2291 22.7868 18.4295C23.0404 17.9318 23.1483 17.3899 23.1998 16.7599C23.25 16.1456 23.25 15.3851 23.25 14.4327V9.56737C23.25 8.61497 23.25 7.85438 23.1998 7.24013C23.1483 6.61012 23.0404 6.06824 22.7868 5.57054C22.3793 4.77085 21.7291 4.12069 20.9295 3.71322C20.4318 3.45963 19.8899 3.35165 19.2599 3.30018C18.6456 3.24999 17.8851 3.24999 16.9326 3.25H15.8182C15.404 3.25 15.0682 3.58579 15.0682 4C15.0682 4.41421 15.404 4.75 15.8182 4.75H16.9Z" fill="#353566"/>
<path fill-rule="evenodd" clip-rule="evenodd" d="M12 8.25C9.92893 8.25 8.25 9.92893 8.25 12C8.25 14.0711 9.92893 15.75 12 15.75C14.0711 15.75 15.75 14.0711 15.75 12C15.75 9.92893 14.0711 8.25 12 8.25ZM9.75 12C9.75 10.7574 10.7574 9.75 12 9.75C13.2426 9.75 14.25 10.7574 14.25 12C14.25 13.2426 13.2426 14.25 12 14.25C10.7574 14.25 9.75 13.2426 9.75 12Z" fill="#353566"/>
</g>
<defs>
<clipPath id="clip0_9001_297199">
<rect width="24" height="24" fill="white"/>
</clipPath>
</defs>
</svg>
