<svg width="24" height="24" viewBox="0 0 24 24" fill="none" xmlns="http://www.w3.org/2000/svg">
<g clip-path="url(#clip0_9001_297654)">
<path fill-rule="evenodd" clip-rule="evenodd" d="M3.75001 9.98324L3.75 9.98706V14C3.75 14.4142 3.41421 14.75 3 14.75C2.58579 14.75 2.25 14.4142 2.25 14V9C2.25 8.90627 2.25303 8.81324 2.25901 8.72101C2.27888 8.01258 2.34172 7.45626 2.5391 6.94881C2.79442 6.29241 3.20887 5.70975 3.74518 5.25323C4.35407 4.73492 5.15776 4.45613 6.3699 4.03566L15.5686 0.841215C16.1671 0.63336 16.6638 0.460855 17.0726 0.358916C17.4922 0.254264 17.9137 0.197641 18.3376 0.300153C18.9624 0.451243 19.505 0.837194 19.8527 1.37785C20.0886 1.74467 20.1734 2.16139 20.2122 2.59218C20.25 3.01181 20.25 3.53763 20.25 4.17121V4.81597C22.2395 5.17021 23.75 6.90871 23.75 9V17.5C23.75 19.8472 21.8472 21.75 19.5 21.75H13.1978C12.7836 21.75 12.4478 21.4142 12.4478 21C12.4478 20.5858 12.7836 20.25 13.1978 20.25H19.5C21.0188 20.25 22.25 19.0188 22.25 17.5V9C22.25 7.48122 21.0188 6.25 19.5 6.25H6.5C5.06018 6.25 3.8788 7.35653 3.75985 8.76559C3.7514 9.08583 3.75001 9.48092 3.75001 9.98324ZM17.4355 1.81435C17.1002 1.89796 16.6676 2.04743 16.0275 2.26972L8.88539 4.75H18.75V4.20627C18.75 3.52866 18.7493 3.071 18.7183 2.7268C18.6876 2.38604 18.6333 2.25482 18.5911 2.18921C18.452 1.97295 18.235 1.81857 17.9851 1.75813C17.9092 1.73979 17.7675 1.73157 17.4355 1.81435Z" fill="#353566"/>
<path d="M19 12.25C18.4477 12.25 18 12.6977 18 13.25C18 13.8023 18.4477 14.25 19 14.25C19.5523 14.25 20.0001 13.8023 20.0001 13.25C20.0001 12.6977 19.5523 12.25 19 12.25Z" fill="#353566"/>
<path d="M3.52495 17.5357C3.82078 17.2457 3.82558 16.7709 3.53566 16.4751C3.24574 16.1792 2.77089 16.1744 2.47505 16.4643L0.475054 18.4243C0.33297 18.5636 0.252028 18.7536 0.250038 18.9525C0.248047 19.1514 0.325172 19.343 0.46444 19.485L2.4644 21.525C2.75438 21.8208 3.22923 21.8255 3.52501 21.5356C3.82079 21.2456 3.8255 20.7707 3.53552 20.475L2.06071 18.9706L3.52495 17.5357Z" fill="#353566"/>
<path d="M8.46407 16.4753C8.75384 16.1793 9.22869 16.1743 9.52467 16.4641L11.5247 18.4221C11.6668 18.5612 11.7479 18.7512 11.75 18.9501C11.752 19.1491 11.675 19.3407 11.5358 19.4828L9.53581 21.5248C9.24598 21.8207 8.77113 21.8256 8.47521 21.5358C8.17929 21.246 8.17435 20.7711 8.46419 20.4752L9.93928 18.9691L8.47533 17.5359C8.17934 17.2462 8.1743 16.7713 8.46407 16.4753Z" fill="#353566"/>
<path d="M7.7276 15.1821C7.82806 14.7802 7.58374 14.373 7.1819 14.2726C6.78005 14.1721 6.37285 14.4164 6.27239 14.8183L4.27239 22.8183C4.17193 23.2201 4.41625 23.6273 4.81809 23.7278C5.21994 23.8282 5.62714 23.5839 5.7276 23.1821L7.7276 15.1821Z" fill="#353566"/>
</g>
<defs>
<clipPath id="clip0_9001_297654">
<rect width="24" height="24" fill="white"/>
</clipPath>
</defs>
</svg>
