<svg width="24" height="24" viewBox="0 0 24 24" fill="none" xmlns="http://www.w3.org/2000/svg">
<path d="M16.4355 2.81459C16.1002 2.89821 15.6676 3.04767 15.0275 3.26996L7.88613 5.74999H13.5C13.9142 5.74999 14.25 6.08578 14.25 6.49999C14.25 6.9142 13.9142 7.24999 13.5 7.24999H5.50001C4.06017 7.24999 2.87878 8.35654 2.75986 9.76563C2.7514 10.0859 2.75001 10.4811 2.75001 10.9835V16.4C2.75001 17.0225 2.75007 17.5328 2.76177 17.9678C2.7729 18.3818 2.44627 18.7265 2.0322 18.7377C1.61814 18.7488 1.27345 18.4222 1.26231 18.0081C1.25001 17.5508 1.25001 17.021 1.25001 16.4086V9.99999C1.25001 9.90628 1.25304 9.81327 1.25902 9.72107C1.27889 9.01273 1.34174 8.45645 1.5391 7.94905C1.79442 7.29265 2.20887 6.71 2.74518 6.25347C3.35407 5.73516 4.15775 5.45638 5.36988 5.03591L5.51169 4.9867L5.51325 4.98613L5.51505 4.98553L5.51684 4.9849L14.5686 1.84146C15.1671 1.6336 15.6638 1.4611 16.0726 1.35916C16.4922 1.25451 16.9137 1.19789 17.3376 1.3004C17.6267 1.37031 17.8983 1.49054 18.141 1.65309C18.4852 1.88356 18.5774 2.3494 18.3469 2.69358C18.1164 3.03775 17.6506 3.12992 17.3064 2.89944C17.2093 2.83441 17.1007 2.78634 16.9851 2.75837C16.9092 2.74004 16.7675 2.73181 16.4355 2.81459Z" fill="#353566"/>
<path d="M18 13.2498C17.4477 13.2498 17 13.6975 17 14.2498C17 14.802 17.4477 15.2498 18 15.2498C18.5523 15.2498 19.0001 14.802 19.0001 14.2498C19.0001 13.6975 18.5523 13.2498 18 13.2498Z" fill="#353566"/>
<path fill-rule="evenodd" clip-rule="evenodd" d="M21.4697 1.46967L2.49745 20.4419L2.4948 20.4445L2.49216 20.4472L0.469669 22.4697C0.176777 22.7626 0.176777 23.2374 0.469669 23.5303C0.762564 23.8232 1.23744 23.8232 1.53033 23.5303L3.0723 21.9884C3.23072 22.0986 3.39712 22.1984 3.57055 22.2868C4.06825 22.5404 4.61013 22.6483 5.24014 22.6998C5.85439 22.75 6.61491 22.75 7.56731 22.75H18.5C20.8472 22.75 22.75 20.8472 22.75 18.5V9.99999C22.75 7.90869 21.2395 6.17019 19.25 5.81596V5.81065L22.5303 2.53033C22.8232 2.23744 22.8232 1.76256 22.5303 1.46967C22.2374 1.17678 21.7626 1.17678 21.4697 1.46967ZM4.15951 20.9011L17.8107 7.24999H18.4881L18.5 7.25008L18.5105 7.25001C20.0244 7.25565 21.25 8.48469 21.25 9.99999V18.5C21.25 20.0188 20.0188 21.25 18.5 21.25H7.60001C6.60754 21.25 5.9083 21.2494 5.36229 21.2048C4.82504 21.1609 4.50253 21.0781 4.25154 20.9503C4.22051 20.9344 4.18983 20.9181 4.15951 20.9011Z" fill="#353566"/>
</svg>
