<svg width="24" height="24" viewBox="0 0 24 24" fill="none" xmlns="http://www.w3.org/2000/svg">
<g clip-path="url(#clip0_9001_297574)">
<path fill-rule="evenodd" clip-rule="evenodd" d="M3.75 9.82993C3.75031 9.40006 3.75221 9.05337 3.75976 8.76664C3.87821 7.35708 5.05982 6.25 6.5 6.25H19.5C21.0188 6.25 22.25 7.48122 22.25 9V17.5C22.25 19.0188 21.0188 20.25 19.5 20.25H10.996C10.5818 20.25 10.246 20.5858 10.246 21C10.246 21.4142 10.5818 21.75 10.996 21.75H19.5C21.8472 21.75 23.75 19.8472 23.75 17.5V9C23.75 6.90869 22.2395 5.17017 20.2499 4.81596V4.17121C20.25 3.53763 20.25 3.01181 20.2122 2.59218C20.1733 2.16139 20.0886 1.74467 19.8527 1.37785C19.505 0.837194 18.9624 0.451243 18.3376 0.300153C17.9137 0.197641 17.4922 0.254264 17.0725 0.358916C16.6637 0.460855 16.167 0.63336 15.5685 0.841215L6.36984 4.03566C5.1577 4.45613 4.35401 4.73492 3.74512 5.25323C3.20881 5.70975 2.79436 6.29241 2.53904 6.94881C2.3415 7.45665 2.27872 8.01345 2.2589 8.72268C2.253 8.81436 2.25 8.90683 2.25 9V9.49568C2.24983 9.60309 2.24987 9.71369 2.24991 9.8277L2.24995 9.98324L2.25 9.99211V13.0069C2.25 13.4211 2.58579 13.7569 3 13.7569C3.41421 13.7569 3.75 13.4211 3.75 13.0069V9.82993ZM16.0274 2.26972C16.6675 2.04743 17.1001 1.89796 17.4354 1.81435C17.7674 1.73157 17.9092 1.73979 17.985 1.75813C18.2349 1.81857 18.452 1.97295 18.591 2.18921C18.6332 2.25482 18.6875 2.38604 18.7182 2.7268C18.7492 3.071 18.7499 3.52866 18.7499 4.20627V4.75H8.88533L16.0274 2.26972Z" fill="#353566"/>
<path d="M18 13.25C18 12.6977 18.4477 12.25 19 12.25C19.5523 12.25 20.0001 12.6977 20.0001 13.25C20.0001 13.8023 19.5524 14.25 19.0001 14.25C18.4478 14.25 18 13.8023 18 13.25Z" fill="#353566"/>
<path fill-rule="evenodd" clip-rule="evenodd" d="M3.61341 15.5413C4.00383 14.4862 5.49617 14.4862 5.88659 15.5413L6.185 16.3478C6.43653 17.0275 6.97247 17.5635 7.65222 17.815L8.45867 18.1134C9.51378 18.5038 9.51378 19.9962 8.45867 20.3866L7.65222 20.685C6.97247 20.9365 6.43653 21.4725 6.18501 22.1522L5.88659 22.9587C5.49617 24.0138 4.00383 24.0138 3.61341 22.9587L3.315 22.1522C3.06347 21.4725 2.52753 20.9365 1.84778 20.685L1.04133 20.3866C-0.0137757 19.9962 -0.0137799 18.5038 1.04133 18.1134L1.84778 17.815C2.52753 17.5635 3.06347 17.0275 3.315 16.3478L3.61341 15.5413ZM4.75 16.7921L4.72177 16.8683C4.31832 17.9587 3.45866 18.8183 2.36834 19.2218L2.29205 19.25L2.36834 19.2782C3.45866 19.6817 4.31832 20.5413 4.72177 21.6317L4.75 21.7079L4.77823 21.6317C5.18168 20.5413 6.04134 19.6817 7.13167 19.2782L7.20795 19.25L7.13167 19.2218C6.04134 18.8183 5.18168 17.9587 4.77823 16.8683L4.75 16.7921Z" fill="#353566"/>
<path d="M9.12686 13.0883C9.08329 12.9706 8.91671 12.9706 8.87314 13.0883L8.67889 13.6133C8.49621 14.107 8.10697 14.4962 7.61328 14.6789L7.08833 14.8731C6.97056 14.9167 6.97056 15.0833 7.08833 15.1269L7.61328 15.3211C8.10697 15.5038 8.49621 15.893 8.67889 16.3867L8.87314 16.9117C8.91671 17.0294 9.08329 17.0294 9.12686 16.9117L9.32112 16.3867C9.50379 15.893 9.89303 15.5038 10.3867 15.3211L10.9117 15.1269C11.0294 15.0833 11.0294 14.9167 10.9117 14.8731L10.3867 14.6789C9.89303 14.4962 9.50379 14.107 9.32112 13.6133L9.12686 13.0883Z" fill="#353566"/>
</g>
<defs>
<clipPath id="clip0_9001_297574">
<rect width="24" height="24" fill="white"/>
</clipPath>
</defs>
</svg>
