<svg width="24" height="24" viewBox="0 0 24 24" fill="none" xmlns="http://www.w3.org/2000/svg">
<g clip-path="url(#clip0_9001_297629)">
<path fill-rule="evenodd" clip-rule="evenodd" d="M3.75977 8.76653C3.75221 9.05332 3.75031 9.40013 3.75 9.83017V11.5369C3.75 11.9511 3.41421 12.2869 3 12.2869C2.58579 12.2869 2.25 11.9511 2.25 11.5369V9.99235L2.24995 9.98348L2.24991 9.82794C2.24987 9.71393 2.24983 9.60334 2.25 9.49592V9C2.25 8.90677 2.253 8.81423 2.25892 8.72249C2.27874 8.01347 2.34154 7.45679 2.53904 6.94905C2.79436 6.29265 3.20881 5.71 3.74512 5.25347C4.35401 4.73516 5.1577 4.45637 6.36984 4.0359L15.5685 0.841459C16.167 0.633604 16.6637 0.461099 17.0725 0.35916C17.4922 0.254508 17.9137 0.197885 18.3376 0.300397C18.9624 0.451487 19.505 0.837438 19.8527 1.37809C20.0886 1.74492 20.1733 2.16163 20.2122 2.59242C20.25 3.01205 20.25 3.53787 20.2499 4.17145V4.81596C22.2395 5.17017 23.75 6.90869 23.75 9V17.5C23.75 19.8472 21.8472 21.75 19.5 21.75H12.0452C11.631 21.75 11.2952 21.4142 11.2952 21C11.2952 20.5858 11.631 20.25 12.0452 20.25H19.5C21.0188 20.25 22.25 19.0188 22.25 17.5V9C22.25 7.48452 21.0241 6.25535 19.5099 6.25002L19.4999 6.25008L19.4887 6.25H6.5C5.05986 6.25 3.87827 7.35702 3.75977 8.76653ZM17.4354 1.81459C17.1001 1.89821 16.6675 2.04767 16.0274 2.26996L8.88604 4.75H18.7499V4.20651C18.7499 3.52891 18.7492 3.07124 18.7182 2.72704C18.6875 2.38629 18.6332 2.25507 18.591 2.18945C18.452 1.97319 18.2349 1.81881 17.985 1.75837C17.9092 1.74004 17.7674 1.73181 17.4354 1.81459Z" fill="#353566"/>
<path d="M19 12.25C18.4477 12.25 18 12.6977 18 13.25C18 13.8023 18.4477 14.25 19 14.25C19.5523 14.25 20.0001 13.8023 20.0001 13.25C20.0001 12.6977 19.5523 12.25 19 12.25Z" fill="#353566"/>
<path fill-rule="evenodd" clip-rule="evenodd" d="M10.8767 19.5938C12.0424 17.9761 11.9754 15.8953 11.0653 14.6621C10.335 13.6726 9.08502 13.0497 7.84842 13.3089C7.15668 13.4553 6.51539 13.7626 6.00004 14.2484C5.4847 13.7626 4.8434 13.4553 4.15166 13.3089C2.91399 13.052 1.66624 13.671 0.934827 14.6621C0.0246231 15.8953 -0.042234 17.9761 1.12336 19.5938C1.91464 20.6919 3.50549 22.1469 4.50954 23.0245C4.53124 23.0435 4.55304 23.0626 4.575 23.082C4.84196 23.3168 5.13124 23.5712 5.50423 23.6815C5.81956 23.7747 6.18053 23.7747 6.49586 23.6815C6.86888 23.5712 7.15819 23.3167 7.42517 23.0819C7.44709 23.0626 7.46887 23.0434 7.49053 23.0245C8.49458 22.1469 10.0854 20.6919 10.8767 19.5938ZM6.59427 15.835C7.01071 15.2942 7.47786 14.9209 8.15751 14.7767C8.61864 14.6815 9.33016 14.8371 9.85836 15.5528C10.3491 16.2178 10.4772 17.5824 9.65974 18.7169C8.98519 19.653 7.528 20.9995 6.50338 21.8951C6.47857 21.9168 6.45187 21.9407 6.42402 21.9657C6.30936 22.0684 6.17516 22.1887 6.07266 22.2423C6.02909 22.2581 5.97109 22.2582 5.92741 22.2423C5.82501 22.1888 5.69084 22.0686 5.57623 21.9658C5.54831 21.9408 5.52155 21.9168 5.49669 21.8951C4.47206 20.9995 3.01485 19.653 2.34035 18.7169C1.52293 17.5824 1.65095 16.2178 2.14172 15.5528C2.66993 14.8371 3.38144 14.6815 3.84257 14.7767C4.52222 14.9209 4.98937 15.2942 5.40581 15.835C5.5478 16.0194 5.76733 16.1274 6.00004 16.1274C6.23276 16.1274 6.45229 16.0194 6.59427 15.835Z" fill="#353566"/>
</g>
<defs>
<clipPath id="clip0_9001_297629">
<rect width="24" height="24" fill="white"/>
</clipPath>
</defs>
</svg>
