<svg width="24" height="24" viewBox="0 0 24 24" fill="none" xmlns="http://www.w3.org/2000/svg">
<path d="M7.16762 1.25H8C8.41421 1.25 8.75 1.58579 8.75 2C8.75 2.41421 8.41421 2.75 8 2.75H7.2C6.27754 2.75 5.6308 2.75058 5.12648 2.79179C4.63092 2.83228 4.33928 2.90822 4.11502 3.02248C3.64462 3.26217 3.26217 3.64462 3.02248 4.11502C2.90822 4.33928 2.83228 4.63092 2.79179 5.12648C2.75058 5.6308 2.75 6.27754 2.75 7.2V8C2.75 8.41421 2.41421 8.75 2 8.75C1.58579 8.75 1.25 8.41421 1.25 8V7.16762C1.24999 6.285 1.24999 5.57692 1.29677 5.00433C1.34484 4.41601 1.44601 3.905 1.68597 3.43404C2.06947 2.68139 2.68139 2.06947 3.43404 1.68597C3.905 1.44601 4.41601 1.34484 5.00433 1.29677C5.57692 1.24999 6.285 1.24999 7.16762 1.25Z" fill="#353566"/>
<path d="M18.8735 2.79179C18.3692 2.75058 17.7225 2.75 16.8 2.75H16C15.5858 2.75 15.25 2.41421 15.25 2C15.25 1.58579 15.5858 1.25 16 1.25H16.8324C17.715 1.24999 18.4231 1.24999 18.9957 1.29677C19.584 1.34484 20.095 1.44601 20.566 1.68597C21.3186 2.06947 21.9305 2.68139 22.314 3.43404C22.554 3.905 22.6552 4.41601 22.7032 5.00433C22.75 5.57691 22.75 6.28499 22.75 7.16761V8C22.75 8.41421 22.4142 8.75 22 8.75C21.5858 8.75 21.25 8.41421 21.25 8V7.2C21.25 6.27754 21.2494 5.6308 21.2082 5.12648C21.1677 4.63092 21.0918 4.33928 20.9775 4.11502C20.7378 3.64462 20.3554 3.26217 19.885 3.02248C19.6607 2.90822 19.3691 2.83228 18.8735 2.79179Z" fill="#353566"/>
<path d="M2 15.25C2.41421 15.25 2.75 15.5858 2.75 16V16.8C2.75 17.7225 2.75058 18.3692 2.79179 18.8735C2.83228 19.3691 2.90822 19.6607 3.02248 19.885C3.26217 20.3554 3.64462 20.7378 4.11502 20.9775C4.33928 21.0918 4.63092 21.1677 5.12648 21.2082C5.6308 21.2494 6.27754 21.25 7.2 21.25H8C8.41421 21.25 8.75 21.5858 8.75 22C8.75 22.4142 8.41421 22.75 8 22.75H7.16761C6.28499 22.75 5.57691 22.75 5.00433 22.7032C4.41601 22.6552 3.905 22.554 3.43404 22.314C2.68139 21.9305 2.06947 21.3186 1.68597 20.566C1.44601 20.095 1.34484 19.584 1.29677 18.9957C1.24999 18.4231 1.24999 17.715 1.25 16.8324V16C1.25 15.5858 1.58579 15.25 2 15.25Z" fill="#353566"/>
<path d="M22 15.25C22.4142 15.25 22.75 15.5858 22.75 16V16.8324C22.75 17.715 22.75 18.4231 22.7032 18.9957C22.6552 19.584 22.554 20.095 22.314 20.566C21.9305 21.3186 21.3186 21.9305 20.566 22.314C20.095 22.554 19.584 22.6552 18.9957 22.7032C18.4231 22.75 17.715 22.75 16.8324 22.75H16C15.5858 22.75 15.25 22.4142 15.25 22C15.25 21.5858 15.5858 21.25 16 21.25H16.8C17.7225 21.25 18.3692 21.2494 18.8735 21.2082C19.3691 21.1677 19.6607 21.0918 19.885 20.9775C20.3554 20.7378 20.7378 20.3554 20.9775 19.885C21.0918 19.6607 21.1677 19.3691 21.2082 18.8735C21.2494 18.3692 21.25 17.7225 21.25 16.8V16C21.25 15.5858 21.5858 15.25 22 15.25Z" fill="#353566"/>
<path fill-rule="evenodd" clip-rule="evenodd" d="M8.77024 7.25H11.9798C12.4444 7.24999 12.8379 7.24998 13.1605 7.27633C13.4987 7.30397 13.8245 7.36426 14.135 7.52248C14.6054 7.76217 14.9878 8.14462 15.2275 8.61502C15.3857 8.92555 15.446 9.25133 15.4737 9.58953C15.4737 9.59037 15.4738 9.5912 15.4739 9.59204L16.71 8.58395C17.5265 7.91807 18.75 8.49905 18.75 9.55266V14.4595C18.75 15.5076 17.5377 16.0903 16.7192 15.4357L15.4714 14.4376C15.4427 14.7661 15.3815 15.0828 15.2275 15.385C14.9878 15.8554 14.6054 16.2378 14.135 16.4775C13.8245 16.6357 13.4987 16.696 13.1605 16.7237C12.8379 16.75 12.4445 16.75 11.9798 16.75H8.77022C8.30554 16.75 7.9121 16.75 7.58953 16.7237C7.25133 16.696 6.92555 16.6357 6.61502 16.4775C6.14462 16.2378 5.76217 15.8554 5.52248 15.385C5.36426 15.0745 5.30397 14.7487 5.27633 14.4105C5.24998 14.0879 5.24999 13.6944 5.25 13.2298V10.7702C5.24999 10.3056 5.24998 9.91211 5.27633 9.58953C5.30397 9.25133 5.36426 8.92555 5.52248 8.61502C5.76217 8.14462 6.14462 7.76217 6.61502 7.52248C6.92555 7.36426 7.25133 7.30397 7.58953 7.27633C7.91211 7.24998 8.30555 7.24999 8.77024 7.25ZM14 12.9014C14 12.901 14 12.9006 14 12.9002V11.1502C14 11.1498 14 11.1494 14 11.149V10.8C14 10.2976 13.9994 9.96587 13.9787 9.71168C13.9586 9.46624 13.9235 9.35983 13.891 9.29601C13.7951 9.10785 13.6422 8.95487 13.454 8.85899C13.3902 8.82648 13.2838 8.79141 13.0383 8.77135C12.7841 8.75058 12.4524 8.75 11.95 8.75H8.8C8.29758 8.75 7.96587 8.75058 7.71168 8.77135C7.46624 8.79141 7.35983 8.82648 7.29601 8.85899C7.10785 8.95487 6.95487 9.10785 6.85899 9.29601C6.82648 9.35983 6.79141 9.46624 6.77135 9.71168C6.75058 9.96587 6.75 10.2976 6.75 10.8V13.2C6.75 13.7024 6.75058 14.0341 6.77135 14.2883C6.79141 14.5338 6.82648 14.6402 6.85899 14.704C6.95487 14.8922 7.10785 15.0451 7.29601 15.141C7.35983 15.1735 7.46624 15.2086 7.71168 15.2286C7.96587 15.2494 8.29758 15.25 8.8 15.25H11.95C12.4524 15.25 12.7841 15.2494 13.0383 15.2286C13.2838 15.2086 13.3902 15.1735 13.454 15.141C13.6422 15.0451 13.7951 14.8922 13.891 14.704C13.9235 14.6402 13.9586 14.5338 13.9787 14.2883C13.9994 14.0341 14 13.7024 14 13.2V12.9014ZM15.5 12.5397L17.25 13.9394V10.0791L15.5 11.5063V12.5397Z" fill="#353566"/>
</svg>
