<svg width="24" height="24" viewBox="0 0 24 24" fill="none" xmlns="http://www.w3.org/2000/svg">
<path d="M9.6831 1.25006H13.3169C13.6999 1.24962 14.0372 1.24923 14.3555 1.34443C14.6348 1.42793 14.8952 1.56489 15.1222 1.74769C15.381 1.95611 15.5717 2.23425 15.7883 2.55011L16.6131 3.74994C17.4818 3.75012 18.1849 3.75312 18.7599 3.8001C19.3899 3.85157 19.9318 3.95956 20.4295 4.21315C21.2291 4.62061 21.8793 5.27078 22.2868 6.07047C22.5335 6.55467 22.6423 7.08036 22.6954 7.68818C22.7478 8.28726 22.7499 9.02382 22.75 9.941C22.7501 10.3552 22.4143 10.6911 22.0001 10.6911C21.5859 10.6912 21.2501 10.3554 21.25 9.94123C21.2499 9.00354 21.2466 8.33912 21.2011 7.81889C21.1564 7.30739 21.0746 6.99544 20.9503 6.75145C20.6866 6.23401 20.2659 5.81331 19.7485 5.54966C19.4975 5.42177 19.175 5.33901 18.6377 5.29512C18.0917 5.25051 17.3925 5.24992 16.4 5.24992H16.2186C15.9716 5.24992 15.7405 5.12834 15.6006 4.92482L14.5972 3.46535C14.3095 3.04691 14.2467 2.96857 14.1814 2.91598C14.1057 2.85504 14.0189 2.80939 13.9258 2.78156C13.8455 2.75753 13.7453 2.75012 13.2375 2.75012H9.76247C9.25469 2.75012 9.15453 2.75753 9.07418 2.78156C8.9811 2.80939 8.89431 2.85504 8.81864 2.91598C8.75333 2.96857 8.69048 3.04691 8.4028 3.46535L7.39942 4.92482C7.2595 5.12834 7.02836 5.24992 6.78138 5.24992H6.6C5.60753 5.24992 4.90829 5.25051 4.36228 5.29512C3.82503 5.33901 3.50252 5.42177 3.25153 5.54966C2.73408 5.81331 2.31338 6.23401 2.04973 6.75145C1.92184 7.00245 1.83909 7.32495 1.79519 7.86221C1.75058 8.40821 1.75 9.10746 1.75 10.0999V14.8999C1.75 15.8924 1.75058 16.5916 1.79519 17.1376C1.83909 17.6749 1.92184 17.9974 2.04973 18.2484C2.31338 18.7658 2.73408 19.1865 3.25153 19.4502C3.50252 19.5781 3.82503 19.6608 4.36228 19.7047C4.90829 19.7493 5.60753 19.7499 6.6 19.7499H12.3364C12.7506 19.7499 13.0864 20.0857 13.0864 20.4999C13.0864 20.9141 12.7506 21.2499 12.3364 21.2499H6.56737C5.61496 21.2499 4.85438 21.2499 4.24013 21.1998C3.61012 21.1483 3.06824 21.0403 2.57054 20.7867C1.77085 20.3792 1.12068 19.7291 0.713223 18.9294C0.459634 18.4317 0.35165 17.8898 0.300176 17.2598C0.249989 16.6455 0.249994 15.885 0.25 14.9326V10.0673C0.249994 9.11488 0.249989 8.35432 0.300176 7.74006C0.35165 7.11004 0.459634 6.56816 0.713223 6.07047C1.12068 5.27078 1.77085 4.62061 2.57054 4.21315C3.06824 3.95956 3.61012 3.85157 4.24013 3.8001C4.81508 3.75312 5.51819 3.75012 6.38685 3.74994L7.21165 2.55012C7.42827 2.23426 7.61903 1.95611 7.87784 1.74769C8.10485 1.56489 8.36521 1.42793 8.64446 1.34443C8.96283 1.24923 9.3001 1.24962 9.6831 1.25006Z" fill="#353566"/>
<path d="M6.75 12.5001C6.75 9.87677 8.87665 7.75012 11.5 7.75012C13.3755 7.75012 14.9956 8.83713 15.7675 10.4121C15.9497 10.7841 15.796 11.2333 15.424 11.4156C15.0521 11.5979 14.6028 11.4441 14.4205 11.0722C13.8909 9.99156 12.7813 9.25012 11.5 9.25012C9.70507 9.25012 8.25 10.7052 8.25 12.5001C8.25 14.295 9.70507 15.7501 11.5 15.7501C12.2461 15.7501 12.9325 15.4968 13.4818 15.0698C13.8088 14.8156 14.28 14.8747 14.5342 15.2017C14.7884 15.5287 14.7294 15.9999 14.4023 16.2541C13.6004 16.8774 12.5928 17.2501 11.5 17.2501C8.87665 17.2501 6.75 15.1235 6.75 12.5001Z" fill="#353566"/>
<path d="M19 19.75C17.4589 19.75 16.0804 20.8117 15.7264 22.1869C15.6231 22.5881 15.2143 22.8296 14.8131 22.7263C14.412 22.6231 14.1705 22.2142 14.2737 21.8131C14.8079 19.7379 16.8135 18.25 19 18.25C21.1865 18.25 23.1923 19.7379 23.7264 21.8131C23.8296 22.2142 23.5881 22.6231 23.187 22.7263C22.7859 22.8296 22.377 22.5881 22.2737 22.1869C21.9198 20.8117 20.5412 19.75 19 19.75Z" fill="#353566"/>
<path fill-rule="evenodd" clip-rule="evenodd" d="M19 11.25C17.3431 11.25 16 12.5931 16 14.25C16 15.9069 17.3431 17.25 19 17.25C20.6569 17.25 22 15.9069 22 14.25C22 12.5931 20.6569 11.25 19 11.25ZM17.5 14.25C17.5 13.4216 18.1716 12.75 19 12.75C19.8284 12.75 20.5 13.4216 20.5 14.25C20.5 15.0784 19.8284 15.75 19 15.75C18.1716 15.75 17.5 15.0784 17.5 14.25Z" fill="#353566"/>
</svg>
