<svg width="24" height="24" viewBox="0 0 24 24" fill="none" xmlns="http://www.w3.org/2000/svg">
<path d="M14.6745 2.75005C15.1994 2.75005 15.3396 2.75487 15.4634 2.78459C15.5909 2.81521 15.7129 2.86572 15.8247 2.93426C15.9332 3.00077 16.0358 3.0965 16.4069 3.46764L19.5324 6.59313C19.9036 6.96427 19.9993 7.06682 20.0658 7.17536C20.1343 7.2872 20.1848 7.40913 20.2155 7.53668C20.2452 7.66046 20.25 7.80066 20.25 8.32554V11.9817C20.25 12.3959 20.5858 12.7317 21 12.7317C21.4142 12.7317 21.75 12.3959 21.75 11.9817L21.75 8.25306C21.7503 7.83445 21.7505 7.50492 21.674 7.18651C21.6067 6.90591 21.4955 6.63766 21.3448 6.39161C21.1737 6.1124 20.9405 5.87952 20.6443 5.58368L17.4164 2.35573C17.1205 2.05956 16.8876 1.82639 16.6084 1.65529C16.3624 1.50452 16.0941 1.3934 15.8135 1.32604C15.4951 1.24959 15.1656 1.24978 14.747 1.25003L5.7679 1.25005C4.95506 1.25005 4.29944 1.25004 3.76853 1.29342C3.2219 1.33808 2.74176 1.43244 2.29754 1.65878C1.59193 2.01831 1.01825 2.59198 0.658726 3.29759C0.432386 3.74181 0.338026 4.22195 0.293364 4.76859C0.249988 5.29949 0.249993 5.9551 0.25 6.76793V17.2322C0.249993 18.045 0.249988 18.7006 0.293364 19.2315C0.338026 19.7782 0.432386 20.2583 0.658726 20.7025C1.01825 21.4081 1.59193 21.9818 2.29754 22.3413C2.74176 22.5677 3.2219 22.662 3.76853 22.7067C4.23754 22.745 4.80387 22.7495 5.48994 22.75L5.5 22.7501L5.509 22.75L13.6529 22.7501C14.0671 22.7501 14.4029 22.4143 14.4029 22.0001C14.4029 21.5858 14.0671 21.2501 13.6529 21.2501H6.25V15.0001C6.25 14.5858 6.58579 14.2501 7 14.2501H12.894C13.3083 14.2501 13.644 13.9143 13.644 13.5001C13.644 13.0858 13.3083 12.7501 12.894 12.7501H7C5.75736 12.7501 4.75 13.7574 4.75 15.0001V21.2458C4.41469 21.2412 4.13442 21.2316 3.89068 21.2117C3.43681 21.1746 3.17604 21.1055 2.97852 21.0048C2.55516 20.7891 2.21095 20.4449 1.99524 20.0215C1.8946 19.824 1.82547 19.5633 1.78838 19.1094C1.75058 18.6467 1.75 18.0525 1.75 17.2001V6.80006C1.75 5.9476 1.75058 5.35337 1.78838 4.89073C1.82547 4.43686 1.8946 4.17609 1.99524 3.97858C2.21095 3.55521 2.55516 3.21101 2.97852 2.99529C3.17604 2.89465 3.43681 2.82552 3.89068 2.78844C4.35331 2.75064 4.94755 2.75005 5.8 2.75005H14.6745Z" fill="#353566"/>
<path d="M13.5 6.75006C13.9142 6.75006 14.25 7.08585 14.25 7.50006C14.25 7.91427 13.9142 8.25006 13.5 8.25006L8.5 8.25006C8.08579 8.25006 7.75 7.91427 7.75 7.50006C7.75 7.08585 8.08579 6.75006 8.5 6.75006L13.5 6.75006Z" fill="#353566"/>
<path d="M23 18.2501C23.4142 18.2501 23.75 17.9143 23.75 17.5001V16.5001C23.75 15.2574 22.7426 14.2501 21.5 14.2501H17.3106L18.0303 13.5304C18.3232 13.2375 18.3232 12.7626 18.0303 12.4697C17.7374 12.1768 17.2625 12.1768 16.9696 12.4697L14.9696 14.4697C14.7551 14.6842 14.6909 15.0068 14.807 15.2871C14.9231 15.5673 15.1966 15.7501 15.4999 15.7501H21.5C21.9142 15.7501 22.25 16.0858 22.25 16.5001V17.5001C22.25 17.9143 22.5858 18.2501 23 18.2501Z" fill="#353566"/>
<path d="M14.25 17.5001C14.25 17.0858 14.5858 16.7501 15 16.7501C15.4142 16.7501 15.75 17.0858 15.75 17.5001V18.5001C15.75 18.9143 16.0858 19.2501 16.5 19.2501H22.5C22.8033 19.2501 23.0768 19.4328 23.1929 19.7131C23.309 19.9933 23.2448 20.3159 23.0303 20.5304L21.0303 22.5304C20.7374 22.8233 20.2625 22.8233 19.9696 22.5304C19.6767 22.2375 19.6767 21.7626 19.9696 21.4697L20.6893 20.7501H16.5C15.2574 20.7501 14.25 19.7427 14.25 18.5001V17.5001Z" fill="#353566"/>
</svg>
