<svg width="24" height="24" viewBox="0 0 24 24" fill="none" xmlns="http://www.w3.org/2000/svg">
<g clip-path="url(#clip0_9001_285310)">
<path fill-rule="evenodd" clip-rule="evenodd" d="M22.8767 6.59378C24.0424 4.97609 23.9754 2.89531 23.0653 1.66206C22.335 0.672604 21.085 0.0496547 19.8484 0.308881C19.1567 0.455313 18.5154 0.762599 18 1.24839C17.4847 0.7626 16.8434 0.455308 16.1517 0.308875C14.914 0.0519597 13.6662 0.671045 12.9348 1.66206C12.0246 2.89534 11.9578 4.9761 13.1234 6.59377C13.9146 7.69193 15.5055 9.1469 16.5095 10.0245C16.5312 10.0435 16.553 10.0626 16.575 10.082C16.842 10.3168 17.1312 10.5712 17.5042 10.6815C17.8196 10.7747 18.1805 10.7747 18.4959 10.6815C18.8689 10.5712 19.1582 10.3167 19.4252 10.0819C19.4471 10.0626 19.4689 10.0434 19.4905 10.0245C20.4946 9.14688 22.0854 7.69193 22.8767 6.59378ZM18.5943 2.83501C19.0107 2.29422 19.4779 1.92087 20.1575 1.77669C20.6186 1.68155 21.3302 1.83711 21.8584 2.5528C22.3491 3.21778 22.4772 4.58243 21.6597 5.71685C20.9852 6.65296 19.528 7.99951 18.5034 8.89509C18.4786 8.91678 18.4519 8.94071 18.424 8.96567C18.3094 9.06843 18.1752 9.18869 18.0727 9.24226C18.0291 9.25811 17.9711 9.25816 17.9274 9.24226C17.825 9.18883 17.6908 9.06857 17.5762 8.96584C17.5483 8.94081 17.5216 8.91682 17.4967 8.8951C16.4721 7.99951 15.0149 6.65297 14.3404 5.71687C13.5229 4.58242 13.6509 3.21777 14.1417 2.5528C14.6699 1.83711 15.3814 1.68155 15.8426 1.77669C16.5222 1.92087 16.9894 2.29422 17.4058 2.83501C17.5478 3.01939 17.7673 3.12742 18 3.12742C18.2328 3.12742 18.4523 3.01939 18.5943 2.83501Z" fill="#353566"/>
<path d="M17.5 18C16.9477 18 16.5 18.4477 16.5 19C16.5 19.5523 16.9477 20 17.5 20C18.0523 20 18.5001 19.5523 18.5001 19C18.5001 18.4477 18.0523 18 17.5 18Z" fill="#353566"/>
<path d="M13.5 19C13.5 18.4477 13.9477 18 14.5 18C15.0523 18 15.5001 18.4477 15.5001 19C15.5001 19.5523 15.0524 20 14.5001 20C13.9478 20 13.5 19.5523 13.5 19Z" fill="#353566"/>
<path fill-rule="evenodd" clip-rule="evenodd" d="M7.96863 4.28173C8.76656 4.24512 9.70485 4.24599 10.6016 4.25577C11.0158 4.26029 11.3479 4.59973 11.3434 5.01392C11.3389 5.4281 10.9995 5.76021 10.5853 5.75569C9.69209 5.74594 8.78991 5.74563 8.03739 5.78016C7.66092 5.79743 7.33335 5.82296 7.06946 5.8582C6.80484 5.89354 6.65382 5.93264 6.58779 5.95848C5.88708 6.29397 5.57308 6.57452 5.35046 6.91949C5.09326 7.31806 4.92087 7.85038 4.61443 8.83314C4.5783 8.94902 4.54038 9.07063 4.50071 9.19684L4.50003 9.19902L2.77576 14.8019C3.43932 14.4496 4.19635 14.25 5 14.25H18C18.8051 14.25 19.5634 14.4503 20.2279 14.8038L19.3798 12.048C19.258 11.6521 19.4801 11.2324 19.876 11.1106C20.2719 10.9887 20.6916 11.2109 20.8134 11.6068L22.4241 16.8404C22.6685 17.6026 22.7636 18.2277 22.7525 19.0315C22.7522 19.0523 22.751 19.0729 22.7491 19.0932C22.6994 21.6736 20.5922 23.75 18 23.75H5C2.37665 23.75 0.25 21.6234 0.25 19L0.250102 18.9685C0.246476 18.1962 0.339221 17.5859 0.579134 16.8399L3.06903 8.74924C3.1084 8.624 3.14599 8.50348 3.18243 8.38662L3.2077 8.30554C3.48043 7.4303 3.70903 6.69668 4.09011 6.10616C4.51569 5.44668 5.09519 5.00752 5.96029 4.59589C5.96922 4.59164 5.97823 4.58757 5.98732 4.58367C6.24238 4.47447 6.56228 4.41261 6.87091 4.3714C7.19469 4.32816 7.56986 4.30003 7.96863 4.28173ZM1.75049 19.0128C1.7506 19.0225 1.75052 19.0322 1.75026 19.0418C1.77264 20.8175 3.21902 22.25 5 22.25H18C19.7949 22.25 21.25 20.7949 21.25 19C21.25 17.2051 19.7949 15.75 18 15.75H5C3.21492 15.75 1.76597 17.1892 1.75013 18.9705L1.75049 19.0128Z" fill="#353566"/>
</g>
<defs>
<clipPath id="clip0_9001_285310">
<rect width="24" height="24" fill="white"/>
</clipPath>
</defs>
</svg>
