<svg width="24" height="24" viewBox="0 0 24 24" fill="none" xmlns="http://www.w3.org/2000/svg">
<g clip-path="url(#clip0_9001_285295)">
<path fill-rule="evenodd" clip-rule="evenodd" d="M18.25 4.125C17.2145 4.125 16.375 4.96447 16.375 6C16.375 7.03553 17.2145 7.875 18.25 7.875C19.2855 7.875 20.125 7.03553 20.125 6C20.125 4.96447 19.2855 4.125 18.25 4.125ZM17.625 6C17.625 5.65482 17.9048 5.375 18.25 5.375C18.5952 5.375 18.875 5.65482 18.875 6C18.875 6.34518 18.5952 6.625 18.25 6.625C17.9048 6.625 17.625 6.34518 17.625 6Z" fill="#353566"/>
<path fill-rule="evenodd" clip-rule="evenodd" d="M12.9679 8.33682C12.5193 7.55837 12.785 6.56236 13.5634 6.11211C13.6492 6.06251 13.6492 5.93737 13.5634 5.88777C12.785 5.43752 12.5193 4.4415 12.9679 3.66305L13.5876 2.58776C14.0367 1.80851 15.0325 1.54055 15.8118 1.99124C15.8949 2.03929 16.0026 1.98055 16.0026 1.87913C16.0026 0.980649 16.7301 0.25 17.6302 0.25H18.8697C19.7699 0.25 20.4973 0.980657 20.4973 1.87915C20.4973 1.98062 20.6051 2.03933 20.6882 1.99128C21.4674 1.54059 22.4632 1.80858 22.9123 2.58781L23.5321 3.66314C23.9807 4.44157 23.715 5.43756 22.9365 5.88781C22.8508 5.93739 22.8508 6.06249 22.9365 6.11207C23.715 6.56231 23.9807 7.5583 23.5321 8.33673L22.9123 9.41207C22.4632 10.1913 21.4674 10.4593 20.6882 10.0086C20.6052 9.96058 20.4973 10.0192 20.4973 10.1208C20.4973 11.0193 19.7699 11.75 18.8697 11.75H17.6303C16.7301 11.75 16.0026 11.0193 16.0026 10.1208C16.0026 10.0193 15.8948 9.96062 15.8118 10.0087C15.0325 10.4594 14.0367 10.1913 13.5876 9.41212L12.9679 8.33682ZM14.3144 7.41056C14.2534 7.44587 14.2315 7.52526 14.2675 7.58783L14.8872 8.66313C14.9228 8.7249 15.0005 8.74504 15.0607 8.71019C16.1478 8.08144 17.5026 8.86876 17.5026 10.1208C17.5026 10.1934 17.5611 10.25 17.6303 10.25H18.8697C18.9389 10.25 18.9973 10.1934 18.9973 10.1208C18.9973 8.86877 20.3521 8.08137 21.4392 8.71014C21.4995 8.74499 21.5771 8.72485 21.6127 8.66307L22.2325 7.58774C22.2685 7.52519 22.2466 7.44583 22.1855 7.41053C21.1012 6.78334 21.1012 5.21653 22.1855 4.58935C22.2466 4.55405 22.2685 4.47469 22.2325 4.41214L21.6127 3.3368C21.5771 3.27504 21.4995 3.25489 21.4392 3.28974C20.3521 3.91847 18.9973 3.13123 18.9973 1.87915C18.9973 1.80656 18.9389 1.75 18.8697 1.75H17.6302C17.561 1.75 17.5026 1.80655 17.5026 1.87913C17.5026 3.13123 16.1478 3.9184 15.0608 3.2897C15.0005 3.25484 14.9228 3.275 14.8872 3.33675L14.2675 4.41205C14.2315 4.47462 14.2534 4.554 14.3144 4.58931C15.3988 5.21652 15.3988 6.78336 14.3144 7.41056Z" fill="#353566"/>
<path d="M16.5 19C16.5 18.4477 16.9477 18 17.5 18C18.0523 18 18.5001 18.4477 18.5001 19C18.5001 19.5523 18.0524 20 17.5001 20C16.9478 20 16.5 19.5523 16.5 19Z" fill="#353566"/>
<path d="M14.5 18C13.9477 18 13.5 18.4477 13.5 19C13.5 19.5523 13.9477 20 14.5 20C15.0523 20 15.5001 19.5523 15.5001 19C15.5001 18.4477 15.0523 18 14.5 18Z" fill="#353566"/>
<path fill-rule="evenodd" clip-rule="evenodd" d="M10.5443 4.25516C9.65581 4.24587 8.72999 4.24588 7.94314 4.28292C7.54992 4.30143 7.18002 4.32966 6.86052 4.37279C6.55583 4.41393 6.23997 4.47549 5.98732 4.58367C5.97823 4.58757 5.96922 4.59164 5.96029 4.59589C5.09519 5.00752 4.51569 5.44668 4.09011 6.10616C3.70903 6.69668 3.48043 7.4303 3.2077 8.30554L3.18243 8.38662C3.14599 8.50348 3.1084 8.624 3.06903 8.74924L0.579134 16.8399C0.339221 17.5859 0.246476 18.1962 0.250102 18.9685L0.25 19C0.25 21.6234 2.37665 23.75 5 23.75H18C20.5922 23.75 22.6994 21.6736 22.7491 19.0932C22.751 19.0729 22.7522 19.0523 22.7525 19.0315C22.7636 18.2277 22.6685 17.6026 22.4241 16.8404L21.3516 13.3555C21.2298 12.9596 20.8101 12.7375 20.4142 12.8593C20.0183 12.9811 19.7961 13.4008 19.918 13.7967L20.2279 14.8038C19.5635 14.4503 18.8051 14.25 18 14.25H5C4.19635 14.25 3.43932 14.4496 2.77576 14.8019L4.50003 9.19902L4.50071 9.19684C4.54038 9.07063 4.5783 8.94902 4.61443 8.83314C4.92087 7.85038 5.09326 7.31806 5.35046 6.91949C5.57308 6.57452 5.88708 6.29397 6.58778 5.95849C6.65284 5.93303 6.80124 5.8944 7.0612 5.85931C7.32073 5.82427 7.64294 5.79871 8.01367 5.78126C8.75473 5.74638 9.64423 5.74583 10.5287 5.75508C10.9429 5.75941 11.2821 5.42715 11.2865 5.01296C11.2908 4.59877 10.9585 4.25949 10.5443 4.25516ZM1.75026 19.0418C1.75052 19.0322 1.7506 19.0225 1.75049 19.0128L1.75013 18.9705C1.76597 17.1892 3.21492 15.75 5 15.75H18C19.7949 15.75 21.25 17.2051 21.25 19C21.25 20.7949 19.7949 22.25 18 22.25H5C3.21902 22.25 1.77264 20.8175 1.75026 19.0418Z" fill="#353566"/>
</g>
<defs>
<clipPath id="clip0_9001_285295">
<rect width="24" height="24" fill="white"/>
</clipPath>
</defs>
</svg>
