<svg width="24" height="24" viewBox="0 0 24 24" fill="none" xmlns="http://www.w3.org/2000/svg">
<g clip-path="url(#clip0_9001_285240)">
<path d="M18.625 3.49994C18.625 3.15476 18.3452 2.87494 18 2.87494C17.6548 2.87494 17.375 3.15476 17.375 3.49994V5.99999C17.375 6.20897 17.4794 6.40412 17.6533 6.52003L19.1533 7.51998C19.4405 7.71144 19.8286 7.63382 20.02 7.34661C20.2115 7.0594 20.1339 6.67136 19.8467 6.4799L18.625 5.66549V3.49994Z" fill="#353566"/>
<path fill-rule="evenodd" clip-rule="evenodd" d="M12.25 6C12.25 2.82436 14.8244 0.25 18 0.25C21.1756 0.25 23.75 2.82436 23.75 6C23.75 9.17564 21.1756 11.75 18 11.75C14.8244 11.75 12.25 9.17564 12.25 6ZM18 1.75C15.6528 1.75 13.75 3.65279 13.75 6C13.75 8.34721 15.6528 10.25 18 10.25C20.3472 10.25 22.25 8.34721 22.25 6C22.25 3.65279 20.3472 1.75 18 1.75Z" fill="#353566"/>
<path d="M16.5 19C16.5 18.4477 16.9477 18 17.5 18C18.0523 18 18.5001 18.4477 18.5001 19C18.5001 19.5523 18.0524 20 17.5001 20C16.9478 20 16.5 19.5523 16.5 19Z" fill="#353566"/>
<path d="M14.5 18C13.9477 18 13.5 18.4477 13.5 19C13.5 19.5523 13.9477 20 14.5 20C15.0523 20 15.5001 19.5523 15.5001 19C15.5001 18.4477 15.0523 18 14.5 18Z" fill="#353566"/>
<path fill-rule="evenodd" clip-rule="evenodd" d="M10.066 4.25124C9.25244 4.24662 8.43044 4.25367 7.73464 4.29381C7.38687 4.31387 7.05986 4.34277 6.77521 4.38484C6.50266 4.42513 6.2198 4.48413 5.98732 4.58367C5.97823 4.58757 5.96922 4.59164 5.96029 4.59589C5.09519 5.00752 4.51569 5.44668 4.09011 6.10616C3.70903 6.69668 3.48043 7.4303 3.2077 8.30554L3.18243 8.38662C3.14599 8.50347 3.1084 8.624 3.06903 8.74924L0.579134 16.8399C0.339221 17.5859 0.246476 18.1962 0.250102 18.9685L0.25 19C0.25 21.6234 2.37665 23.75 5 23.75H18C20.5922 23.75 22.6994 21.6736 22.7491 19.0932C22.751 19.0729 22.7522 19.0523 22.7525 19.0315C22.7636 18.2277 22.6685 17.6026 22.4241 16.8404L21.346 13.3373C21.2242 12.9414 20.8045 12.7193 20.4086 12.8411C20.0127 12.9629 19.7905 13.3826 19.9124 13.7785L20.2279 14.8038C19.5635 14.4503 18.8051 14.25 18 14.25H5C4.19635 14.25 3.43932 14.4496 2.77576 14.8019L4.50003 9.19902L4.50071 9.19684C4.54038 9.07063 4.5783 8.94902 4.61443 8.83314C4.92087 7.85037 5.09326 7.31805 5.35046 6.91949C5.57307 6.57453 5.88707 6.29399 6.58772 5.95851C6.64487 5.93619 6.77227 5.90158 6.99454 5.86872C7.21871 5.83559 7.49739 5.80999 7.82103 5.79132C8.46806 5.75399 9.25174 5.74664 10.0575 5.75121C10.4717 5.75356 10.8094 5.41968 10.8117 5.00548C10.8141 4.59127 10.4802 4.25358 10.066 4.25124ZM1.75026 19.0418C1.75052 19.0322 1.7506 19.0225 1.75049 19.0128L1.75013 18.9705C1.76597 17.1892 3.21492 15.75 5 15.75H18C19.7949 15.75 21.25 17.2051 21.25 19C21.25 20.7949 19.7949 22.25 18 22.25H5C3.21902 22.25 1.77263 20.8175 1.75026 19.0418Z" fill="#353566"/>
</g>
<defs>
<clipPath id="clip0_9001_285240">
<rect width="24" height="24" fill="white"/>
</clipPath>
</defs>
</svg>
