<svg width="24" height="24" viewBox="0 0 24 24" fill="none" xmlns="http://www.w3.org/2000/svg">
<path d="M7.36821 2.25H16.6318C17.3749 2.24999 17.978 2.24999 18.4673 2.28996C18.9722 2.33121 19.4215 2.41876 19.839 2.63148C20.4975 2.96703 21.033 3.50247 21.3685 4.16104C21.5812 4.57851 21.6688 5.02778 21.71 5.53273C21.75 6.02195 21.75 6.62507 21.75 7.36811V8C21.75 8.41421 21.4142 8.75 21 8.75C20.5858 8.75 20.25 8.41421 20.25 8V7.4C20.25 6.61755 20.2494 6.07582 20.215 5.65488C20.1813 5.24269 20.119 5.0128 20.032 4.84202C19.8403 4.4657 19.5343 4.15973 19.158 3.96799C18.9872 3.88097 18.7573 3.81865 18.3451 3.78498C17.9242 3.75058 17.3824 3.75 16.6 3.75H7.4C6.61755 3.75 6.07582 3.75058 5.65488 3.78498C5.24269 3.81865 5.0128 3.88097 4.84202 3.96799C4.46569 4.15973 4.15973 4.4657 3.96799 4.84202C3.88097 5.0128 3.81865 5.24269 3.78498 5.65488C3.75058 6.07582 3.75 6.61755 3.75 7.4V13C3.75 13.4142 3.41421 13.75 3 13.75C2.58579 13.75 2.25 13.4142 2.25 13L2.25 7.36821C2.24999 6.62512 2.24999 6.02197 2.28996 5.53273C2.33121 5.02778 2.41876 4.57851 2.63148 4.16103C2.96703 3.50247 3.50247 2.96703 4.16103 2.63148C4.57851 2.41876 5.02778 2.33121 5.53273 2.28996C6.02196 2.24999 6.62513 2.24999 7.36821 2.25Z" fill="#353566"/>
<path d="M0.25 16C0.25 15.5858 0.585786 15.25 1 15.25H10.2293C10.6436 15.25 10.9793 15.5858 10.9793 16C10.9793 16.4142 10.6436 16.75 10.2293 16.75H1.75C1.75 17.5784 2.42157 18.25 3.25 18.25H10.4914C10.9056 18.25 11.2414 18.5858 11.2414 19C11.2414 19.4142 10.9056 19.75 10.4914 19.75H3.25C1.59315 19.75 0.25 18.4069 0.25 16.75V16Z" fill="#353566"/>
<path fill-rule="evenodd" clip-rule="evenodd" d="M15.6134 13.5413C16.0038 12.4862 17.4962 12.4862 17.8866 13.5413L18.185 14.3478C18.4365 15.0275 18.9725 15.5635 19.6522 15.815L20.4587 16.1134C21.5138 16.5038 21.5138 17.9962 20.4587 18.3866L19.6522 18.685C18.9725 18.9365 18.4365 19.4725 18.185 20.1522L17.8866 20.9587C17.4962 22.0138 16.0038 22.0138 15.6134 20.9587L15.315 20.1522C15.0635 19.4725 14.5275 18.9365 13.8478 18.685L13.0413 18.3866C11.9862 17.9962 11.9862 16.5038 13.0413 16.1134L13.8478 15.815C14.5275 15.5635 15.0635 15.0275 15.315 14.3478L15.6134 13.5413ZM16.75 14.7921L16.7218 14.8683C16.3183 15.9587 15.4587 16.8183 14.3683 17.2218L14.2921 17.25L14.3683 17.2782C15.4587 17.6817 16.3183 18.5413 16.7218 19.6317L16.75 19.7079L16.7782 19.6317C17.1817 18.5413 18.0413 17.6817 19.1317 17.2782L19.2079 17.25L19.1317 17.2218C18.0413 16.8183 17.1817 15.9587 16.7782 14.8683L16.75 14.7921Z" fill="#353566"/>
<path d="M21.3211 11.6133L21.1269 11.0883C21.0833 10.9706 20.9167 10.9706 20.8731 11.0883L20.6789 11.6133C20.4962 12.107 20.107 12.4962 19.6133 12.6789L19.0883 12.8731C18.9706 12.9167 18.9706 13.0833 19.0883 13.1269L19.6133 13.3211C20.107 13.5038 20.4962 13.893 20.6789 14.3867L20.8731 14.9117C20.9167 15.0294 21.0833 15.0294 21.1269 14.9117L21.3211 14.3867C21.5038 13.893 21.893 13.5038 22.3867 13.3211L22.9117 13.1269C23.0294 13.0833 23.0294 12.9167 22.9117 12.8731L22.3867 12.6789C21.893 12.4962 21.5038 12.107 21.3211 11.6133Z" fill="#353566"/>
</svg>
