<svg width="24" height="24" viewBox="0 0 24 24" fill="none" xmlns="http://www.w3.org/2000/svg">
<path d="M7.36821 2.25H16.6318C17.3749 2.24999 17.978 2.24999 18.4673 2.28996C18.9722 2.33121 19.4215 2.41876 19.839 2.63148C20.4975 2.96703 21.033 3.50247 21.3685 4.16104C21.5812 4.57851 21.6688 5.02778 21.71 5.53273C21.75 6.02195 21.75 6.62507 21.75 7.36811V8.58152C21.75 8.99573 21.4142 9.33152 21 9.33152C20.5858 9.33152 20.25 8.99573 20.25 8.58152V7.4C20.25 6.61755 20.2494 6.07582 20.215 5.65488C20.1813 5.24269 20.119 5.0128 20.032 4.84202C19.8403 4.4657 19.5343 4.15973 19.158 3.96799C18.9872 3.88097 18.7573 3.81865 18.3451 3.78498C17.9242 3.75058 17.3824 3.75 16.6 3.75H7.4C6.61755 3.75 6.07582 3.75058 5.65488 3.78498C5.24269 3.81865 5.0128 3.88097 4.84202 3.96799C4.46569 4.15973 4.15973 4.4657 3.96799 4.84202C3.88097 5.0128 3.81865 5.24269 3.78498 5.65488C3.75058 6.07582 3.75 6.61755 3.75 7.4V13C3.75 13.4142 3.41421 13.75 3 13.75C2.58579 13.75 2.25 13.4142 2.25 13L2.25 7.36821C2.24999 6.62512 2.24999 6.02197 2.28996 5.53273C2.33121 5.02778 2.41876 4.57851 2.63148 4.16103C2.96703 3.50247 3.50247 2.96703 4.16103 2.63148C4.57851 2.41876 5.02778 2.33121 5.53273 2.28996C6.02196 2.24999 6.62513 2.24999 7.36821 2.25Z" fill="#353566"/>
<path d="M0.25 16C0.25 15.5858 0.585786 15.25 1 15.25H10C10.4142 15.25 10.75 15.5858 10.75 16C10.75 16.4142 10.4142 16.75 10 16.75H1.75C1.75 17.5784 2.42157 18.25 3.25 18.25H10.5815C10.9957 18.25 11.3315 18.5858 11.3315 19C11.3315 19.4142 10.9957 19.75 10.5815 19.75H3.25C1.59315 19.75 0.25 18.4069 0.25 16.75V16Z" fill="#353566"/>
<path d="M20.4419 14.4419C20.686 14.1979 20.686 13.8021 20.4419 13.5581C20.1979 13.314 19.8021 13.314 19.5581 13.5581L15.5581 17.5581C15.314 17.8021 15.314 18.1979 15.5581 18.4419C15.8021 18.686 16.1979 18.686 16.4419 18.4419L20.4419 14.4419Z" fill="#353566"/>
<path d="M15.75 14.5C15.75 14.0858 16.0858 13.75 16.5 13.75C16.9142 13.75 17.2501 14.0858 17.2501 14.5C17.2501 14.9142 16.9143 15.25 16.5001 15.25C16.0859 15.25 15.75 14.9142 15.75 14.5Z" fill="#353566"/>
<path d="M19.5 16.75C19.0858 16.75 18.75 17.0858 18.75 17.5C18.75 17.9142 19.0858 18.25 19.5 18.25C19.9142 18.25 20.2501 17.9142 20.2501 17.5C20.2501 17.0858 19.9142 16.75 19.5 16.75Z" fill="#353566"/>
<path fill-rule="evenodd" clip-rule="evenodd" d="M12.25 16C12.25 12.8244 14.8244 10.25 18 10.25C21.1756 10.25 23.75 12.8244 23.75 16C23.75 19.1756 21.1756 21.75 18 21.75C14.8244 21.75 12.25 19.1756 12.25 16ZM18 11.75C15.6528 11.75 13.75 13.6528 13.75 16C13.75 18.3472 15.6528 20.25 18 20.25C20.3472 20.25 22.25 18.3472 22.25 16C22.25 13.6528 20.3472 11.75 18 11.75Z" fill="#353566"/>
</svg>
