<svg width="24" height="24" viewBox="0 0 24 24" fill="none" xmlns="http://www.w3.org/2000/svg">
<path d="M7.36821 2.25H16.6318C17.3749 2.24999 17.978 2.24999 18.4673 2.28996C18.9722 2.33121 19.4215 2.41876 19.839 2.63148C20.4975 2.96703 21.033 3.50247 21.3685 4.16104C21.5812 4.57851 21.6688 5.02778 21.71 5.53273C21.75 6.02195 21.75 6.62507 21.75 7.36811V10.9816C21.75 11.3958 21.4142 11.7316 21 11.7316C20.5858 11.7316 20.25 11.3958 20.25 10.9816V7.4C20.25 6.61755 20.2494 6.07582 20.215 5.65488C20.1813 5.24269 20.119 5.0128 20.032 4.84202C19.8403 4.4657 19.5343 4.15973 19.158 3.96799C18.9872 3.88097 18.7573 3.81865 18.3451 3.78498C17.9242 3.75058 17.3824 3.75 16.6 3.75H7.4C6.61755 3.75 6.07582 3.75058 5.65488 3.78498C5.24269 3.81865 5.0128 3.88097 4.84202 3.96799C4.46569 4.15973 4.15973 4.4657 3.96799 4.84202C3.88097 5.0128 3.81865 5.24269 3.78498 5.65488C3.75058 6.07582 3.75 6.61755 3.75 7.4V13C3.75 13.4142 3.41421 13.75 3 13.75C2.58579 13.75 2.25 13.4142 2.25 13L2.25 7.36821C2.24999 6.62512 2.24999 6.02197 2.28996 5.53273C2.33121 5.02778 2.41876 4.57851 2.63148 4.16103C2.96703 3.50247 3.50247 2.96703 4.16103 2.63148C4.57851 2.41876 5.02778 2.33121 5.53273 2.28996C6.02196 2.24999 6.62513 2.24999 7.36821 2.25Z" fill="#353566"/>
<path d="M0.25 16C0.25 15.5858 0.585786 15.25 1 15.25H12.0412C12.4554 15.25 12.7912 15.5858 12.7912 16C12.7912 16.4142 12.4554 16.75 12.0412 16.75H1.75C1.75 17.5784 2.42157 18.25 3.25 18.25H12.2531C12.6673 18.25 13.0031 18.5858 13.0031 19C13.0031 19.4142 12.6673 19.75 12.2531 19.75H3.25C1.59315 19.75 0.25 18.4069 0.25 16.75V16Z" fill="#353566"/>
<path d="M23 17.25C23.4142 17.25 23.75 16.9142 23.75 16.5V15.5C23.75 14.2574 22.7426 13.25 21.5 13.25H17.3106L18.0303 12.5303C18.3232 12.2374 18.3232 11.7626 18.0303 11.4697C17.7374 11.1768 17.2625 11.1768 16.9696 11.4697L14.9696 13.4697C14.7551 13.6842 14.6909 14.0068 14.807 14.287C14.9231 14.5673 15.1966 14.75 15.4999 14.75H21.5C21.9142 14.75 22.25 15.0858 22.25 15.5V16.5C22.25 16.9142 22.5858 17.25 23 17.25Z" fill="#353566"/>
<path d="M14.25 16.5C14.25 16.0858 14.5858 15.75 15 15.75C15.4142 15.75 15.75 16.0858 15.75 16.5V17.5C15.75 17.9142 16.0858 18.25 16.5 18.25H22.5C22.8033 18.25 23.0768 18.4327 23.1929 18.713C23.309 18.9933 23.2448 19.3158 23.0303 19.5303L21.0303 21.5303C20.7374 21.8232 20.2625 21.8232 19.9696 21.5303C19.6767 21.2374 19.6767 20.7626 19.9696 20.4697L20.6893 19.75H16.5C15.2574 19.75 14.25 18.7426 14.25 17.5V16.5Z" fill="#353566"/>
</svg>
