<svg width="24" height="24" viewBox="0 0 24 24" fill="none" xmlns="http://www.w3.org/2000/svg">
<path d="M2.21967 2.28033C1.92678 1.98744 1.92678 1.51256 2.21967 1.21967C2.51256 0.926777 2.98744 0.926777 3.28033 1.21967L4.53033 2.46967C4.82322 2.76256 4.82322 3.23744 4.53033 3.53033C4.23744 3.82322 3.76256 3.82322 3.46967 3.53033L2.21967 2.28033Z" fill="#353566"/>
<path d="M21.7803 1.21967C22.0732 1.51256 22.0732 1.98744 21.7803 2.28033L20.5303 3.53033C20.2374 3.82322 19.7626 3.82322 19.4697 3.53033C19.1768 3.23744 19.1768 2.76256 19.4697 2.46967L20.7197 1.21967C21.0126 0.926777 21.4874 0.926777 21.7803 1.21967Z" fill="#353566"/>
<path fill-rule="evenodd" clip-rule="evenodd" d="M7.25 17.5C7.25 18.2884 7.65554 18.9822 8.26942 19.384C8.46171 21.2747 10.0586 22.75 12 22.75C13.9414 22.75 15.5383 21.2747 15.7306 19.384C16.3445 18.9822 16.75 18.2884 16.75 17.5V16.3547C19.2057 14.2875 20.25 11.9807 20.25 9.33456C20.25 4.8539 16.5405 1.25 12 1.25C7.45951 1.25 3.75 4.8539 3.75 9.33456C3.75 11.9807 4.79431 14.2875 7.25 16.3547V17.5ZM12 2.75C8.25622 2.75 5.25 5.71369 5.25 9.33456C5.25 11.509 6.07571 13.4254 8.26712 15.25H15.7329C17.9243 13.4254 18.75 11.509 18.75 9.33456C18.75 5.71369 15.7438 2.75 12 2.75ZM8.75 16.75V17.5C8.75 17.9142 9.08579 18.25 9.5 18.25H14.5C14.9142 18.25 15.25 17.9142 15.25 17.5V16.75H8.75ZM12 21.25C11.0203 21.25 10.1869 20.6239 9.87803 19.75H14.122C13.8131 20.6239 12.9797 21.25 12 21.25Z" fill="#353566"/>
<path d="M23.75 7C23.75 6.58579 23.4142 6.25 23 6.25H21.5C21.0858 6.25 20.75 6.58579 20.75 7C20.75 7.41421 21.0858 7.75 21.5 7.75H23C23.4142 7.75 23.75 7.41421 23.75 7Z" fill="#353566"/>
<path d="M1 6.25C0.585786 6.25 0.25 6.58579 0.25 7C0.25 7.41421 0.585786 7.75 1 7.75H2.5C2.91421 7.75 3.25 7.41421 3.25 7C3.25 6.58579 2.91421 6.25 2.5 6.25H1Z" fill="#353566"/>
</svg>
