<svg width="24" height="24" viewBox="0 0 24 24" fill="none" xmlns="http://www.w3.org/2000/svg">
<path d="M9.5 2.75C5.75622 2.75 2.75 5.71369 2.75 9.33456C2.75 11.509 3.57571 13.4254 5.76712 15.25H9.53581C9.95002 15.25 10.2858 15.5858 10.2858 16C10.2858 16.4142 9.95002 16.75 9.53581 16.75H6.25V17.5C6.25 17.9142 6.58579 18.25 7 18.25H9.5291C9.94332 18.25 10.2791 18.5858 10.2791 19C10.2791 19.4142 9.94332 19.75 9.5291 19.75H7.37803C7.68691 20.6239 8.52034 21.25 9.5 21.25C9.83752 21.25 10.1557 21.1762 10.4411 21.0445C10.8173 20.871 11.2628 21.0352 11.4364 21.4113C11.6099 21.7874 11.4456 22.233 11.0695 22.4065C10.5911 22.6273 10.0589 22.75 9.5 22.75C7.55856 22.75 5.96171 21.2747 5.76942 19.384C5.15554 18.9822 4.75 18.2884 4.75 17.5V16.3547C2.29431 14.2875 1.25 11.9807 1.25 9.33456C1.25 4.8539 4.95951 1.25 9.5 1.25C13.9154 1.25 17.5437 4.6569 17.7415 8.96561C17.7605 9.37938 17.4405 9.73022 17.0267 9.74921C16.613 9.76821 16.2621 9.44817 16.2431 9.03439C16.0833 5.55214 13.1396 2.75 9.5 2.75Z" fill="#353566"/>
<path fill-rule="evenodd" clip-rule="evenodd" d="M17.25 15.125C16.2145 15.125 15.375 15.9645 15.375 17C15.375 18.0355 16.2145 18.875 17.25 18.875C18.2855 18.875 19.125 18.0355 19.125 17C19.125 15.9645 18.2855 15.125 17.25 15.125ZM16.625 17C16.625 16.6548 16.9048 16.375 17.25 16.375C17.5952 16.375 17.875 16.6548 17.875 17C17.875 17.3452 17.5952 17.625 17.25 17.625C16.9048 17.625 16.625 17.3452 16.625 17Z" fill="#353566"/>
<path fill-rule="evenodd" clip-rule="evenodd" d="M11.9679 19.3368C11.5193 18.5584 11.785 17.5624 12.5634 17.1121C12.6492 17.0625 12.6492 16.9374 12.5634 16.8878C11.785 16.4375 11.5193 15.4415 11.9679 14.6631L12.5876 13.5878C13.0367 12.8085 14.0325 12.5405 14.8118 12.9912C14.8949 13.0393 15.0026 12.9805 15.0026 12.8791C15.0026 11.9806 15.7301 11.25 16.6302 11.25H17.8697C18.7699 11.25 19.4973 11.9807 19.4973 12.8792C19.4973 12.9806 19.6051 13.0393 19.6882 12.9913C20.4674 12.5406 21.4632 12.8086 21.9123 13.5878L22.5321 14.6631C22.9807 15.4416 22.715 16.4376 21.9365 16.8878C21.8508 16.9374 21.8508 17.0625 21.9365 17.1121C22.715 17.5623 22.9807 18.5583 22.5321 19.3367L21.9123 20.4121C21.4632 21.1913 20.4674 21.4593 19.6882 21.0086C19.6052 20.9606 19.4973 21.0192 19.4973 21.1208C19.4973 22.0193 18.7699 22.75 17.8697 22.75H16.6303C15.7301 22.75 15.0026 22.0193 15.0026 21.1208C15.0026 21.0193 14.8948 20.9606 14.8118 21.0086C14.0325 21.4594 13.0367 21.1913 12.5876 20.4121L11.9679 19.3368ZM13.3144 18.4106C13.2534 18.4459 13.2315 18.5253 13.2675 18.5878L13.8872 19.6631C13.9228 19.7249 14.0005 19.745 14.0607 19.7102C15.1478 19.0814 16.5026 19.8688 16.5026 21.1208C16.5026 21.1934 16.5611 21.25 16.6303 21.25H17.8697C17.9389 21.25 17.9973 21.1934 17.9973 21.1208C17.9973 19.8688 19.3521 19.0814 20.4392 19.7101C20.4995 19.745 20.5771 19.7248 20.6127 19.6631L21.2325 18.5877C21.2685 18.5252 21.2466 18.4458 21.1855 18.4105C20.1012 17.7833 20.1012 16.2165 21.1855 15.5893C21.2466 15.5541 21.2685 15.4747 21.2325 15.4121L20.6127 14.3368C20.5771 14.275 20.4995 14.2549 20.4392 14.2897C19.3521 14.9185 17.9973 14.1312 17.9973 12.8792C17.9973 12.8066 17.9389 12.75 17.8697 12.75H16.6302C16.561 12.75 16.5027 12.8066 16.5027 12.8791C16.5026 14.1312 15.1478 14.9184 14.0608 14.2897C14.0005 14.2548 13.9228 14.275 13.8872 14.3368L13.2675 15.4121C13.2315 15.4746 13.2534 15.554 13.3144 15.5893C14.3988 16.2165 14.3988 17.7834 13.3144 18.4106Z" fill="#353566"/>
</svg>
