<svg width="24" height="24" viewBox="0 0 24 24" fill="none" xmlns="http://www.w3.org/2000/svg">
<path d="M2.75 9.33456C2.75 5.71369 5.75622 2.75 9.5 2.75C13.1396 2.75 16.0833 5.55214 16.2431 9.0344C16.2621 9.44818 16.6129 9.76821 17.0267 9.74921C17.4405 9.73022 17.7605 9.37939 17.7415 8.96561C17.5438 4.6569 13.9154 1.25 9.5 1.25C4.95951 1.25 1.25 4.8539 1.25 9.33456C1.25 11.9807 2.29431 14.2875 4.75 16.3547V17.5C4.75 18.2884 5.15554 18.9822 5.76942 19.384C5.96171 21.2747 7.55856 22.75 9.5 22.75C9.98159 22.75 10.4437 22.6588 10.8687 22.4922C11.2543 22.3409 11.4443 21.9057 11.2931 21.5201C11.1419 21.1345 10.7067 20.9445 10.321 21.0957C10.0677 21.1951 9.79115 21.25 9.5 21.25C8.52034 21.25 7.68691 20.6239 7.37803 19.75H9.25204C9.66625 19.75 10.002 19.4142 10.002 19C10.002 18.5858 9.66625 18.25 9.25204 18.25H7C6.58579 18.25 6.25 17.9142 6.25 17.5V16.75H9.06189C9.47611 16.75 9.81189 16.4142 9.81189 16C9.81189 15.5858 9.47611 15.25 9.06189 15.25H5.76712C3.57571 13.4254 2.75 11.509 2.75 9.33456Z" fill="#353566"/>
<path fill-rule="evenodd" clip-rule="evenodd" d="M22.75 17C22.75 13.8244 20.1756 11.25 17 11.25C13.8244 11.25 11.25 13.8244 11.25 17C11.25 20.1756 13.8244 22.75 17 22.75C20.1756 22.75 22.75 20.1756 22.75 17ZM17 12.75C19.3472 12.75 21.25 14.6528 21.25 17C21.25 17.9027 20.9686 18.7397 20.4886 19.428L14.572 13.5114C15.2603 13.0314 16.0973 12.75 17 12.75ZM17 21.25C17.9027 21.25 18.7397 20.9686 19.428 20.4886L13.5114 14.572C13.0314 15.2603 12.75 16.0973 12.75 17C12.75 19.3472 14.6528 21.25 17 21.25Z" fill="#353566"/>
</svg>
