<svg width="24" height="24" viewBox="0 0 24 24" fill="none" xmlns="http://www.w3.org/2000/svg">
<path fill-rule="evenodd" clip-rule="evenodd" d="M9 1.25C6.37665 1.25 4.25 3.37665 4.25 6V12C4.25 14.6234 6.37665 16.75 9 16.75C11.6234 16.75 13.75 14.6234 13.75 12V10L13.7499 9.99L13.75 9.98V6C13.75 3.37665 11.6234 1.25 9 1.25ZM12.25 9.98L12.2501 9.99L12.25 10V12C12.25 13.7949 10.7949 15.25 9 15.25C7.20507 15.25 5.75 13.7949 5.75 12V6C5.75 4.20507 7.20507 2.75 9 2.75C10.7949 2.75 12.25 4.20507 12.25 6V9.98Z" fill="#353566"/>
<path d="M2.75 12C2.75 11.5858 2.41421 11.25 2 11.25C1.58579 11.25 1.25 11.5858 1.25 12C1.25 16.0272 4.3217 19.337 8.25 19.7142V21.25H5C4.58579 21.25 4.25 21.5858 4.25 22C4.25 22.4142 4.58579 22.75 5 22.75H9C9.41421 22.75 9.75 22.4142 9.75 22V19.7113C10.1275 19.6435 10.3977 19.2976 10.3637 18.9081C10.3277 18.4954 9.96398 18.1901 9.55133 18.2261C9.37181 18.2418 9.18994 18.2499 9.00605 18.25L9 18.25L8.99396 18.25C5.54496 18.2468 2.75 15.4498 2.75 12Z" fill="#353566"/>
<path fill-rule="evenodd" clip-rule="evenodd" d="M18.7348 11.6539C19.5068 11.1169 20.5313 11.1167 21.3036 11.6533C21.47 11.769 21.6273 11.9264 21.81 12.1092L21.8906 12.1898C22.0736 12.3725 22.2312 12.5297 22.3469 12.6961C22.8841 13.4682 22.8843 14.4931 22.3474 15.2654C22.2317 15.4318 22.0742 15.5891 21.8913 15.7718L15.9076 21.7567C15.8079 21.8564 15.6821 21.926 15.5446 21.9575L12.1674 22.7309C11.9157 22.7885 11.6521 22.7127 11.4696 22.53C11.287 22.3474 11.2113 22.0837 11.269 21.832L12.0433 18.4587C12.0748 18.3214 12.1444 18.1958 12.2439 18.0962L18.2286 12.11C18.4112 11.9271 18.5684 11.7696 18.7348 11.6539ZM20.4476 12.8851C20.1902 12.7062 19.8487 12.7063 19.5913 12.8853C19.5503 12.9138 19.4951 12.9647 19.2491 13.2108L18.7706 13.6895L20.3115 15.2304L20.7902 14.7516C21.0363 14.5054 21.0872 14.4503 21.1158 14.4092C21.2948 14.1518 21.2947 13.8101 21.1156 13.5528C21.0871 13.5117 21.0361 13.4566 20.7899 13.2105C20.5438 12.9645 20.4886 12.9136 20.4476 12.8851ZM19.251 16.2911L17.7101 14.7502L13.4571 19.0043L12.9986 21.0017L14.9994 20.5435L19.251 16.2911Z" fill="#353566"/>
</svg>
