<svg width="24" height="24" viewBox="0 0 24 24" fill="none" xmlns="http://www.w3.org/2000/svg">
<path d="M9 1.25C6.37665 1.25 4.25 3.37665 4.25 6V12C4.25 14.6234 6.37665 16.75 9 16.75C9.02456 16.75 9.049 16.7498 9.07333 16.7494C9.4875 16.7432 9.81815 16.4023 9.81187 15.9881C9.80558 15.574 9.46474 15.2433 9.05057 15.2496C9.03367 15.2499 9.01682 15.25 9 15.25C7.20507 15.25 5.75 13.7949 5.75 12V6C5.75 4.20507 7.20507 2.75 9 2.75C10.7949 2.75 12.25 4.20507 12.25 6V9.98L12.2501 9.99L12.25 10V10.0703C12.25 10.4845 12.5858 10.8203 13 10.8203C13.4142 10.8203 13.75 10.4845 13.75 10.0703V10L13.7499 9.99L13.75 9.98V6C13.75 3.37665 11.6234 1.25 9 1.25Z" fill="#353566"/>
<path d="M2.75 12C2.75 11.5858 2.41421 11.25 2 11.25C1.58579 11.25 1.25 11.5858 1.25 12C1.25 16.0272 4.3217 19.337 8.25 19.7142V21.25H5C4.58579 21.25 4.25 21.5858 4.25 22C4.25 22.4142 4.58579 22.75 5 22.75H10.7546C11.1688 22.75 11.5046 22.4142 11.5046 22C11.5046 21.5858 11.1688 21.25 10.7546 21.25H9.75V19.5555C9.91059 19.4121 10.0086 19.2011 10.0004 18.9692C9.98586 18.5553 9.63846 18.2315 9.2245 18.2461C9.152 18.2486 9.07918 18.25 9.00604 18.25L9 18.25L8.99396 18.25C5.54496 18.2468 2.75 15.4498 2.75 12Z" fill="#353566"/>
<path d="M19 17.625C19.3452 17.625 19.625 17.3452 19.625 17C19.625 16.6548 19.3452 16.375 19 16.375H15C14.6548 16.375 14.375 16.6548 14.375 17C14.375 17.3452 14.6548 17.625 15 17.625H19Z" fill="#353566"/>
<path fill-rule="evenodd" clip-rule="evenodd" d="M11.25 17C11.25 13.8244 13.8244 11.25 17 11.25C20.1756 11.25 22.75 13.8244 22.75 17C22.75 20.1756 20.1756 22.75 17 22.75C13.8244 22.75 11.25 20.1756 11.25 17ZM17 12.75C14.6528 12.75 12.75 14.6528 12.75 17C12.75 19.3472 14.6528 21.25 17 21.25C19.3472 21.25 21.25 19.3472 21.25 17C21.25 14.6528 19.3472 12.75 17 12.75Z" fill="#353566"/>
</svg>
