<svg width="24" height="24" viewBox="0 0 24 24" fill="none" xmlns="http://www.w3.org/2000/svg">
<path d="M10.8324 1.25H7.16762C6.285 1.24999 5.57692 1.24999 5.00433 1.29677C4.41601 1.34484 3.905 1.44601 3.43404 1.68597C2.68139 2.06947 2.06947 2.68139 1.68597 3.43404C1.44601 3.905 1.34484 4.41601 1.29677 5.00433C1.24999 5.57692 1.24999 6.28499 1.25 7.16761V16.8324C1.24999 17.715 1.24999 18.4231 1.29677 18.9957C1.34484 19.584 1.44601 20.095 1.68597 20.566C2.06947 21.3186 2.68139 21.9305 3.43404 22.314C3.905 22.554 4.41601 22.6552 5.00433 22.7032C5.57691 22.75 6.28499 22.75 7.16761 22.75H12.1127C12.4241 22.75 12.6706 22.75 12.8715 22.7435C13.2855 22.7302 13.6103 22.3837 13.597 21.9697C13.5836 21.5557 13.2372 21.2309 12.8232 21.2443C12.6494 21.2499 12.4273 21.25 12.1 21.25H7.2C6.27754 21.25 5.6308 21.2494 5.12648 21.2082C4.63092 21.1677 4.33928 21.0918 4.11502 20.9775C3.64462 20.7378 3.26217 20.3554 3.02248 19.885C2.90822 19.6607 2.83228 19.3691 2.79179 18.8735C2.75058 18.3692 2.75 17.7225 2.75 16.8V7.2C2.75 6.27754 2.75058 5.6308 2.79179 5.12648C2.83228 4.63092 2.90822 4.33928 3.02248 4.11502C3.26217 3.64462 3.64462 3.26217 4.11502 3.02248C4.33928 2.90822 4.63092 2.83228 5.12648 2.79179C5.6308 2.75058 6.27754 2.75 7.2 2.75H10.8C11.7225 2.75 12.3692 2.75058 12.8735 2.79179C13.3691 2.83228 13.6607 2.90822 13.885 3.02248C14.3554 3.26217 14.7378 3.64462 14.9775 4.11502C15.0918 4.33928 15.1677 4.63092 15.2082 5.12648C15.2494 5.6308 15.25 6.27754 15.25 7.2V12.0478C15.25 12.462 15.5858 12.7978 16 12.7978C16.4142 12.7978 16.75 12.462 16.75 12.0478V7.1676C16.75 6.28503 16.75 5.57689 16.7032 5.00433C16.6552 4.41601 16.554 3.905 16.314 3.43404C15.9305 2.68139 15.3186 2.06947 14.566 1.68597C14.095 1.44601 13.584 1.34484 12.9957 1.29677C12.4231 1.24999 11.715 1.24999 10.8324 1.25Z" fill="#353566"/>
<path d="M9 17.5C8.44772 17.5 8 17.9477 8 18.5C8 19.0523 8.44772 19.5 9 19.5C9.55228 19.5 10.0001 19.0523 10.0001 18.5C10.0001 17.9477 9.55228 17.5 9 17.5Z" fill="#353566"/>
<path d="M6.75 5C6.75 4.58579 7.08579 4.25 7.5 4.25H10.5C10.9142 4.25 11.25 4.58579 11.25 5C11.25 5.41421 10.9142 5.75 10.5 5.75H7.5C7.08579 5.75 6.75 5.41421 6.75 5Z" fill="#353566"/>
<path d="M12.5105 17.5127C13.6885 16.4182 15.2651 15.75 16.9993 15.75C18.7342 15.75 20.3112 16.4187 21.4894 17.5138C21.7928 17.7958 22.2673 17.7785 22.5493 17.4751C22.8313 17.1717 22.814 16.6971 22.5106 16.4151C21.0659 15.0723 19.1278 14.25 16.9993 14.25C14.8716 14.25 12.9341 15.0717 11.4895 16.4138C11.1861 16.6957 11.1686 17.1702 11.4505 17.4737C11.7325 17.7772 12.207 17.7946 12.5105 17.5127Z" fill="#353566"/>
<path d="M17.0032 19.0835C16.2185 19.0835 15.5008 19.414 14.9697 19.9651C14.6823 20.2633 14.2075 20.2721 13.9092 19.9846C13.611 19.6972 13.6022 19.2224 13.8897 18.9241C14.6831 18.1009 15.7827 17.5835 17.0032 17.5835C18.2237 17.5835 19.3233 18.1009 20.1168 18.9241C20.4042 19.2224 20.3955 19.6972 20.0972 19.9846C19.799 20.2721 19.3242 20.2633 19.0367 19.9651C18.5057 19.414 17.7879 19.0835 17.0032 19.0835Z" fill="#353566"/>
<path d="M17 20.5C16.4477 20.5 16 20.9477 16 21.5C16 22.0523 16.4477 22.5 17 22.5C17.5523 22.5 18.0001 22.0523 18.0001 21.5C18.0001 20.9477 17.5523 20.5 17 20.5Z" fill="#353566"/>
</svg>
