<svg width="24" height="24" viewBox="0 0 24 24" fill="none" xmlns="http://www.w3.org/2000/svg">
<path d="M12 17.5C11.4477 17.5 11 17.9477 11 18.5C11 19.0523 11.4477 19.5 12 19.5C12.5523 19.5 13.0001 19.0523 13.0001 18.5C13.0001 17.9477 12.5523 17.5 12 17.5Z" fill="#353566"/>
<path fill-rule="evenodd" clip-rule="evenodd" d="M13.2321 1.25H10.7679C9.95506 1.24999 9.29943 1.24999 8.76853 1.29336C8.22189 1.33803 7.74175 1.43239 7.29753 1.65873C6.59192 2.01825 6.01825 2.59193 5.65872 3.29754C5.43238 3.74175 5.33802 4.2219 5.29336 4.76853C5.24998 5.29944 5.24999 5.95504 5.25 6.76787V17.2321C5.24999 18.0449 5.24998 18.7006 5.29336 19.2315C5.33802 19.7781 5.43238 20.2582 5.65872 20.7025C6.01825 21.4081 6.59192 21.9817 7.29753 22.3413C7.74175 22.5676 8.22189 22.662 8.76853 22.7066C9.29943 22.75 9.95504 22.75 10.7679 22.75L14.2042 22.75C14.9402 22.7502 15.4422 22.7504 15.8754 22.6464C17.2466 22.3172 18.3172 21.2466 18.6464 19.8754C18.7504 19.4422 18.7502 18.9402 18.75 18.2042L18.75 18.1C18.75 18.0832 18.7494 18.0665 18.7484 18.05C18.7494 18.0335 18.75 18.0168 18.75 18V6.76788C18.75 5.95505 18.75 5.29944 18.7066 4.76853C18.662 4.2219 18.5676 3.74175 18.3413 3.29754C17.9817 2.59193 17.4081 2.01825 16.7025 1.65873C16.2582 1.43239 15.7781 1.33803 15.2315 1.29336C14.7006 1.24999 14.0449 1.24999 13.2321 1.25ZM17.25 18C17.25 18.0168 17.2505 18.0335 17.2516 18.05C17.2505 18.0665 17.25 18.0832 17.25 18.1C17.25 18.98 17.2448 19.2881 17.1878 19.5253C16.9903 20.348 16.348 20.9903 15.5252 21.1878C15.2881 21.2448 14.98 21.25 14.1 21.25H10.8C9.94754 21.25 9.35331 21.2494 8.89068 21.2116C8.4368 21.1745 8.17603 21.1054 7.97852 21.0048C7.55515 20.789 7.21095 20.4448 6.99523 20.0215C6.89459 19.824 6.82546 19.5632 6.78838 19.1093C6.75058 18.6467 6.75 18.0525 6.75 17.2V6.8C6.75 5.94755 6.75058 5.35331 6.78838 4.89068C6.82546 4.43681 6.89459 4.17604 6.99523 3.97852C7.21095 3.55516 7.55515 3.21095 7.97852 2.99524C8.17603 2.8946 8.4368 2.82547 8.89068 2.78838C9.35331 2.75058 9.94754 2.75 10.8 2.75H13.2C14.0524 2.75 14.6467 2.75058 15.1093 2.78838C15.5632 2.82547 15.824 2.8946 16.0215 2.99524C16.4448 3.21095 16.789 3.55516 17.0048 3.97852C17.1054 4.17604 17.1745 4.43681 17.2116 4.89068C17.2494 5.35331 17.25 5.94755 17.25 6.8V18Z" fill="#353566"/>
<path d="M22.2965 6.09286C22.1284 5.83279 21.8177 5.7028 21.5144 5.76565C21.2112 5.8285 20.9778 6.07127 20.9269 6.37674L20.2602 10.3767C20.1921 10.7853 20.4681 11.1717 20.8767 11.2398C21.2853 11.3079 21.6717 11.0319 21.7398 10.6233L21.9635 9.2813C22.1515 10.1247 22.25 11.0532 22.25 12C22.25 13.982 21.8186 15.8836 21.0368 17.0929C20.8119 17.4407 20.9116 17.905 21.2595 18.1299C21.6073 18.3548 22.0716 18.2551 22.2965 17.9072C23.2925 16.3665 23.75 14.143 23.75 12C23.75 9.85704 23.2925 7.63358 22.2965 6.09286Z" fill="#353566"/>
<path d="M2.48555 18.2344C2.1823 18.2972 1.87161 18.1672 1.70349 17.9071C0.707466 16.3664 0.25 14.143 0.25 12C0.25 9.85696 0.707466 7.6335 1.70349 6.09279C1.92836 5.74493 2.39265 5.64524 2.74051 5.87011C3.08836 6.09499 3.18806 6.55928 2.96318 6.90714C2.18142 8.11642 1.75 10.018 1.75 12C1.75 12.9468 1.84846 13.8753 2.03653 14.7187L2.2602 13.3767C2.3283 12.9681 2.71472 12.6921 3.1233 12.7602C3.53188 12.8283 3.80789 13.2147 3.7398 13.6233L3.07313 17.6233C3.02222 17.9287 2.78879 18.1715 2.48555 18.2344Z" fill="#353566"/>
</svg>
