<svg width="24" height="24" viewBox="0 0 24 24" fill="none" xmlns="http://www.w3.org/2000/svg">
<path fill-rule="evenodd" clip-rule="evenodd" d="M9 10.5C9 9.25736 10.0074 8.25 11.25 8.25H15.75C16.9926 8.25 18 9.25736 18 10.5V14.5C18 15.7426 16.9926 16.75 15.75 16.75H11.25C10.0074 16.75 9 15.7426 9 14.5V10.5ZM14.25 15.25H15.75C16.1642 15.25 16.5 14.9142 16.5 14.5V13.25H14.25V15.25ZM16.5 11.75V10.5C16.5 10.0858 16.1642 9.75 15.75 9.75H14.25V11.75H16.5ZM12.75 9.75V15.25H11.25C10.8358 15.25 10.5 14.9142 10.5 14.5V10.5C10.5 10.0858 10.8358 9.75 11.25 9.75H12.75Z" fill="#353566"/>
<path fill-rule="evenodd" clip-rule="evenodd" d="M9.25 1.25C7.59315 1.25 6.25 2.59315 6.25 4.25V16.75C6.25 18.4069 7.59315 19.75 9.25 19.75H17.75C19.4069 19.75 20.75 18.4069 20.75 16.75V7.10044C20.75 6.5445 20.5647 6.00442 20.2234 5.56559L17.6175 2.21515C17.1438 1.60618 16.4156 1.25 15.6441 1.25H9.25ZM7.75 4.25C7.75 3.42157 8.42157 2.75 9.25 2.75H15.6441C15.9527 2.75 16.244 2.89247 16.4335 3.13606L19.0394 6.4865C19.1759 6.66203 19.25 6.87806 19.25 7.10044V16.75C19.25 17.5784 18.5784 18.25 17.75 18.25H9.25C8.42157 18.25 7.75 17.5784 7.75 16.75V4.25Z" fill="#353566"/>
<path d="M3.25 6.5C3.25 6.08579 3.58579 5.75 4 5.75C4.41421 5.75 4.75 6.08579 4.75 6.5V18.5C4.75 20.0188 5.98122 21.25 7.5 21.25H17C17.4142 21.25 17.75 21.5858 17.75 22C17.75 22.4142 17.4142 22.75 17 22.75H7.5C5.15279 22.75 3.25 20.8472 3.25 18.5V6.5Z" fill="#353566"/>
</svg>
