<svg width="24" height="24" viewBox="0 0 24 24" fill="none" xmlns="http://www.w3.org/2000/svg">
<path d="M12.8324 1.25H6.16762C5.285 1.24999 4.57692 1.24999 4.00433 1.29677C3.41601 1.34484 2.905 1.44601 2.43404 1.68597C1.68139 2.06947 1.06947 2.68139 0.685975 3.43404C0.44601 3.905 0.344838 4.41601 0.29677 5.00433C0.249988 5.57692 0.249994 6.28499 0.25 7.16761V16.8324C0.249994 17.715 0.249988 18.4231 0.29677 18.9957C0.344838 19.584 0.44601 20.095 0.685975 20.566C1.06947 21.3186 1.68139 21.9305 2.43404 22.314C2.905 22.554 3.41601 22.6552 4.00433 22.7032C4.57691 22.75 5.28499 22.75 6.16761 22.75H11.8297C12.2439 22.75 12.5797 22.4142 12.5797 22C12.5797 21.5858 12.2439 21.25 11.8297 21.25H6.2C5.27754 21.25 4.6308 21.2494 4.12648 21.2082C3.63092 21.1677 3.33928 21.0918 3.11502 20.9775C2.64462 20.7378 2.26217 20.3554 2.02248 19.885C1.90822 19.6607 1.83228 19.3691 1.79179 18.8735C1.75058 18.3692 1.75 17.7225 1.75 16.8V7.2C1.75 6.27754 1.75058 5.6308 1.79179 5.12648C1.83228 4.63092 1.90822 4.33928 2.02248 4.11502C2.26217 3.64462 2.64462 3.26217 3.11502 3.02248C3.33928 2.90822 3.63092 2.83228 4.12648 2.79179C4.6308 2.75058 5.27754 2.75 6.2 2.75H12.8C13.7225 2.75 14.3692 2.75058 14.8735 2.79179C15.3691 2.83228 15.6607 2.90822 15.885 3.02248C16.3554 3.26217 16.7378 3.64462 16.9775 4.11502C17.0918 4.33928 17.1677 4.63092 17.2082 5.12648C17.2494 5.6308 17.25 6.27754 17.25 7.2V9.5C17.25 9.91422 17.5858 10.25 18 10.25C18.4142 10.25 18.75 9.91422 18.75 9.5V7.16761C18.75 6.28499 18.75 5.57691 18.7032 5.00433C18.6552 4.41601 18.554 3.905 18.314 3.43404C17.9305 2.68139 17.3186 2.06947 16.566 1.68597C16.095 1.44601 15.584 1.34484 14.9957 1.29677C14.4231 1.24999 13.715 1.24999 12.8324 1.25Z" fill="#353566"/>
<path d="M9.5 17.5C8.94771 17.5 8.5 17.9477 8.5 18.5C8.5 19.0523 8.94771 19.5 9.5 19.5C10.0523 19.5 10.5001 19.0523 10.5001 18.5C10.5001 17.9477 10.0523 17.5 9.5 17.5Z" fill="#353566"/>
<path d="M7.25 5C7.25 4.58579 7.58579 4.25 8 4.25H11C11.4142 4.25 11.75 4.58579 11.75 5C11.75 5.41421 11.4142 5.75 11 5.75H8C7.58579 5.75 7.25 5.41421 7.25 5Z" fill="#353566"/>
<path fill-rule="evenodd" clip-rule="evenodd" d="M19.2386 12.5279C18.7386 11.4907 17.2614 11.4907 16.7614 12.5279L15.7549 14.6161L13.4478 14.9171C12.297 15.0673 11.8384 16.4877 12.6841 17.2825L14.3627 18.8598L13.9402 21.1187C13.7278 22.2539 14.925 23.1293 15.9424 22.5827L18 21.4772L20.0576 22.5827C21.075 23.1293 22.2722 22.2539 22.0599 21.1187L21.6373 18.8598L23.3159 17.2825C24.1617 16.4877 23.7031 15.0673 22.5522 14.9171L20.2451 14.6161L19.2386 12.5279ZM17.0473 15.3892L18 13.4129L18.9527 15.3892C19.1359 15.7693 19.4985 16.0313 19.9169 16.0859L22.0962 16.3703L20.5104 17.8604C20.1999 18.1522 20.0594 18.5822 20.1378 19.0011L20.5374 21.1377L18.5916 20.0923C18.2222 19.8938 17.7778 19.8938 17.4084 20.0923L15.4626 21.1377L15.8623 19.0011C15.9406 18.5822 15.8002 18.1522 15.4896 17.8604L13.9039 16.3703L16.0831 16.0859C16.5015 16.0313 16.8641 15.7693 17.0473 15.3892Z" fill="#353566"/>
</svg>
