<svg width="24" height="24" viewBox="0 0 24 24" fill="none" xmlns="http://www.w3.org/2000/svg">
<path fill-rule="evenodd" clip-rule="evenodd" d="M16.1257 1.98718L15.2161 2.5111C14.8732 2.70861 14.5773 2.87898 14.3452 3.03922C14.1002 3.20834 13.8711 3.40206 13.6973 3.66925C13.4381 4.06782 13.3118 4.53828 13.3365 5.0131L13.3384 5.0435L3.55819 11.5526C2.95849 11.9517 2.68121 12.6608 2.80756 13.333L1.12822 14.3025C0.291219 14.7858 0.00443241 15.856 0.487664 16.693L1.18765 17.9055C1.67089 18.7425 2.74118 19.0293 3.5782 18.5461L5.25993 17.5751C5.77424 18.0125 6.51549 18.1269 7.15566 17.8174L10.1932 16.3489L7.10296 21.6205C6.89349 21.9778 7.01336 22.4373 7.3707 22.6468C7.72804 22.8563 8.18754 22.7364 8.39701 22.3791L12 16.2328L15.603 22.3791C15.8124 22.7364 16.2719 22.8563 16.6293 22.6468C16.9866 22.4373 17.1065 21.9778 16.897 21.6205L13.0088 14.9878L17.6938 12.7229C17.7447 12.7646 17.7985 12.8043 17.8556 12.8414C18.2539 13.1001 18.7238 13.2262 19.1982 13.2016C19.5161 13.185 19.7982 13.0841 20.067 12.9571C20.3217 12.8367 20.617 12.6664 20.9593 12.4691L21.8688 11.9447C22.2115 11.7472 22.5071 11.5767 22.7392 11.4164C22.984 11.2473 23.2129 11.0535 23.3866 10.7864C23.6456 10.3878 23.7718 9.91749 23.747 9.44279C23.7304 9.12459 23.6292 8.8423 23.5019 8.57328C23.3813 8.31846 23.2107 8.02304 23.013 7.68059L20.3864 3.13117C20.1889 2.78909 20.0186 2.49397 19.8583 2.26234C19.6892 2.01785 19.4956 1.78935 19.2288 1.61593C18.8306 1.35719 18.3608 1.23105 17.8866 1.25556C17.5688 1.27199 17.2868 1.37278 17.0179 1.49969C16.7633 1.61992 16.4679 1.79005 16.1257 1.98718ZM15.2809 5.87173L18.086 10.7302C18.2453 11.005 18.3588 11.1961 18.4595 11.3416C18.5757 11.5096 18.6379 11.5609 18.6728 11.5835C18.8056 11.6698 18.9622 11.7118 19.1203 11.7036C19.1619 11.7014 19.2414 11.6882 19.4261 11.6009C19.6188 11.5098 19.8608 11.371 20.2352 11.1551L21.0945 10.6597C21.4693 10.4436 21.7111 10.3035 21.8866 10.1823C22.0549 10.066 22.1062 10.0038 22.1289 9.96888C22.2153 9.83604 22.2573 9.67925 22.2491 9.52102C22.2469 9.47945 22.2336 9.39987 22.1461 9.21498C22.0548 9.02216 21.9157 8.77992 21.6993 8.40524L19.1018 3.90619C18.8858 3.53205 18.7458 3.29078 18.6247 3.11559C18.5085 2.94763 18.4463 2.89636 18.4114 2.87369C18.2787 2.78744 18.1221 2.74539 17.964 2.75356C17.9225 2.75571 17.843 2.76894 17.6583 2.85612C17.4657 2.94706 17.2237 3.08578 16.8493 3.3014L15.9898 3.79647C15.6148 4.01249 15.3729 4.15249 15.1972 4.27372C15.0288 4.38996 14.9775 4.45221 14.9548 4.48711C14.8683 4.61996 14.8262 4.77678 14.8345 4.93506C14.8367 4.97663 14.8499 5.05624 14.9375 5.24121C15.0133 5.40142 15.1222 5.59573 15.2809 5.87173ZM13.8965 6.47388L16.7937 11.492L6.5028 16.4669C6.38488 16.5239 6.24296 16.4802 6.17748 16.3668L4.31127 13.1345C4.24532 13.0202 4.27946 12.8744 4.38926 12.8013L13.8965 6.47388ZM1.78671 15.9431C1.71768 15.8235 1.75865 15.6706 1.87822 15.6016L3.46548 14.6852L4.41337 16.3318L2.8282 17.247C2.70863 17.3161 2.55573 17.2751 2.4867 17.1555L1.78671 15.9431Z" fill="#353566"/>
</svg>
