<svg width="24" height="24" viewBox="0 0 24 24" fill="none" xmlns="http://www.w3.org/2000/svg">
<path d="M7.9271 9.64077C8.99587 8.64785 10.426 8.04169 11.9994 8.04169C13.5733 8.04169 15.0038 8.64826 16.0727 9.64177C16.3761 9.92378 16.8506 9.90643 17.1326 9.60304C17.4146 9.29965 17.3973 8.82509 17.0939 8.54309C15.7585 7.30184 13.9669 6.54169 11.9994 6.54169C10.0325 6.54169 8.24142 7.30133 6.90615 8.54184C6.60269 8.82376 6.58523 9.29832 6.86716 9.60178C7.14909 9.90524 7.62364 9.9227 7.9271 9.64077Z" fill="#353566"/>
<path d="M12.003 11.0972C11.3019 11.0972 10.6598 11.3924 10.1839 11.8862C9.8965 12.1845 9.42171 12.1932 9.12346 11.9058C8.82522 11.6183 8.81646 11.1435 9.1039 10.8453C9.84217 10.0793 10.866 9.59723 12.003 9.59723C13.14 9.59723 14.1638 10.0793 14.9021 10.8453C15.1895 11.1435 15.1808 11.6183 14.8825 11.9058C14.5843 12.1932 14.1095 12.1845 13.822 11.8862C13.3462 11.3924 12.7041 11.0972 12.003 11.0972Z" fill="#353566"/>
<path d="M12 12.25C11.4477 12.25 11 12.6977 11 13.25C11 13.8023 11.4477 14.25 12 14.25C12.5523 14.25 13.0001 13.8023 13.0001 13.25C13.0001 12.6977 12.5523 12.25 12 12.25Z" fill="#353566"/>
<path fill-rule="evenodd" clip-rule="evenodd" d="M6.2679 2.25H17.7321C18.5449 2.24999 19.2006 2.24999 19.7315 2.29336C20.2781 2.33803 20.7582 2.43239 21.2025 2.65873C21.9081 3.01825 22.4817 3.59193 22.8413 4.29754C23.0676 4.74176 23.162 5.2219 23.2066 5.76853C23.25 6.29944 23.25 6.95505 23.25 7.76788V13.2321C23.25 14.045 23.25 14.7006 23.2066 15.2315C23.162 15.7781 23.0676 16.2582 22.8413 16.7025C22.4817 17.4081 21.9081 17.9817 21.2025 18.3413C20.7582 18.5676 20.2781 18.662 19.7315 18.7066C19.2006 18.75 18.545 18.75 17.7321 18.75H6.26788C5.45505 18.75 4.79944 18.75 4.26853 18.7066C3.7219 18.662 3.24175 18.5676 2.79754 18.3413C2.09193 17.9817 1.51825 17.4081 1.15873 16.7025C0.932386 16.2582 0.838026 15.7781 0.793364 15.2315C0.749988 14.7006 0.749993 14.045 0.75 13.2321V7.7679C0.749993 6.95507 0.749988 6.29944 0.793364 5.76853C0.838026 5.2219 0.932386 4.74175 1.15873 4.29754C1.51825 3.59193 2.09193 3.01825 2.79754 2.65873C3.24176 2.43239 3.7219 2.33803 4.26853 2.29336C4.79944 2.24999 5.45507 2.24999 6.2679 2.25ZM4.39068 3.78838C3.93681 3.82547 3.67604 3.8946 3.47852 3.99524C3.05516 4.21095 2.71095 4.55516 2.49524 4.97852C2.3946 5.17604 2.32547 5.43681 2.28838 5.89068C2.25058 6.35331 2.25 6.94755 2.25 7.8V13.2C2.25 14.0525 2.25058 14.6467 2.28838 15.1093C2.32547 15.5632 2.3946 15.824 2.49524 16.0215C2.71095 16.4448 3.05516 16.789 3.47852 17.0048C3.67604 17.1054 3.93681 17.1745 4.39068 17.2116C4.85331 17.2494 5.44755 17.25 6.3 17.25H17.7C18.5525 17.25 19.1467 17.2494 19.6093 17.2116C20.0632 17.1745 20.324 17.1054 20.5215 17.0048C20.9448 16.789 21.289 16.4448 21.5048 16.0215C21.6054 15.824 21.6745 15.5632 21.7116 15.1093C21.7494 14.6467 21.75 14.0525 21.75 13.2V7.8C21.75 6.94755 21.7494 6.35331 21.7116 5.89068C21.6745 5.43681 21.6054 5.17604 21.5048 4.97852C21.289 4.55516 20.9448 4.21095 20.5215 3.99524C20.324 3.8946 20.0632 3.82547 19.6093 3.78838C19.1467 3.75058 18.5525 3.75 17.7 3.75H6.3C5.44755 3.75 4.85331 3.75058 4.39068 3.78838Z" fill="#353566"/>
<path d="M5.75 21C5.75 20.5858 6.08579 20.25 6.5 20.25H17.5C17.9142 20.25 18.25 20.5858 18.25 21C18.25 21.4142 17.9142 21.75 17.5 21.75H6.5C6.08579 21.75 5.75 21.4142 5.75 21Z" fill="#353566"/>
</svg>
