<svg width="24" height="24" viewBox="0 0 24 24" fill="none" xmlns="http://www.w3.org/2000/svg">
<path d="M16.5209 1.85712C16.5999 1.59251 16.8784 1.44204 17.143 1.52102C19.7788 2.30779 21.9289 4.30227 22.492 7.41102C22.5244 7.58997 22.4571 7.7724 22.3162 7.88742C22.1754 8.00244 21.9832 8.03191 21.8143 7.96437L19.3143 6.96437C19.0579 6.86181 18.9332 6.57083 19.0358 6.31444C19.1383 6.05804 19.4293 5.93334 19.6857 6.03589L21.2792 6.67327C20.5772 4.50246 18.9032 3.09001 16.857 2.47924C16.5924 2.40026 16.4419 2.12173 16.5209 1.85712Z" fill="#353566"/>
<path d="M7.47912 22.1431C7.40014 22.4077 7.12161 22.5582 6.857 22.4792C4.22118 21.6925 2.07108 19.698 1.50802 16.5892C1.47561 16.4103 1.54291 16.2279 1.68378 16.1128C1.82464 15.9978 2.01685 15.9684 2.18571 16.0359L4.68571 17.0359C4.9421 17.1384 5.06681 17.4294 4.96425 17.6858C4.86169 17.9422 4.57071 18.0669 4.31432 17.9644L2.72086 17.327C3.42284 19.4978 5.09684 20.9102 7.14302 21.521C7.40763 21.6 7.55811 21.8785 7.47912 22.1431Z" fill="#353566"/>
<path fill-rule="evenodd" clip-rule="evenodd" d="M1.5 9C1.5 12.6727 4.13939 15.7281 7.625 16.3741C8.27046 19.86 11.3266 22.5 14.9994 22.5C19.1415 22.5 22.4994 19.1421 22.4994 15C22.4994 11.3275 19.8598 8.2715 16.3743 7.62574C15.7285 4.13977 12.6729 1.5 9 1.5C4.85786 1.5 1.5 4.85786 1.5 9ZM9 2.5C5.41015 2.5 2.5 5.41015 2.5 9C2.5 12.0757 4.63663 14.6531 7.50642 15.3277C7.50482 15.2903 7.50349 15.2529 7.50243 15.2154C7.50041 15.1438 7.49939 15.072 7.49939 15C7.49939 10.8579 10.8573 7.5 14.9994 7.5C15.0682 7.5 15.1367 7.50093 15.2051 7.50277C15.2461 7.50387 15.287 7.5053 15.3278 7.50706C14.6534 4.63695 12.0759 2.5 9 2.5ZM14.9994 21.5C11.4834 21.5 8.6195 18.7084 8.50307 15.2208C8.50062 15.1475 8.49939 15.0739 8.49939 15C8.49939 11.4101 11.4095 8.5 14.9994 8.5C15.0895 8.5 15.1792 8.50183 15.2684 8.50546C18.7335 8.64654 21.4994 11.5003 21.4994 15C21.4994 18.5898 18.5892 21.5 14.9994 21.5Z" fill="#353566"/>
</svg>
