<svg width="24" height="24" viewBox="0 0 24 24" fill="none" xmlns="http://www.w3.org/2000/svg">
<path d="M13.1267 15.6049C13.3229 15.4105 13.3243 15.0939 13.1299 14.8978C12.9355 14.7017 12.6189 14.7003 12.4228 14.8947L9.64779 17.6449C9.45165 17.8393 9.45024 18.1559 9.64462 18.352C9.83901 18.5482 10.1556 18.5496 10.3517 18.3552L13.1267 15.6049Z" fill="#353566"/>
<path d="M16.1034 11.8965C16.2987 12.0917 16.2987 12.4083 16.1034 12.6036L15.1034 13.6036C14.9082 13.7988 14.5916 13.7988 14.3963 13.6036C14.2011 13.4083 14.2011 13.0917 14.3963 12.8965L15.3963 11.8965C15.5916 11.7012 15.9082 11.7012 16.1034 11.8965Z" fill="#353566"/>
<path fill-rule="evenodd" clip-rule="evenodd" d="M3.78482 9.67773L9.67814 3.78441C10.2589 3.20368 10.7163 2.7462 11.1146 2.40812C11.5209 2.06321 11.8983 1.8133 12.3285 1.6735C13.0315 1.4451 13.7887 1.4451 14.4917 1.6735C14.9219 1.8133 15.2993 2.06321 15.7056 2.40812C16.1039 2.7462 16.5613 3.20368 17.1421 3.7844L20.2243 6.8666C20.805 7.44732 21.2625 7.9048 21.6005 8.30303C21.9454 8.70932 22.1954 9.08673 22.3352 9.517C22.5636 10.2199 22.5636 10.9772 22.3352 11.6801C22.1954 12.1104 21.9454 12.4878 21.6005 12.8941C21.2625 13.2923 20.805 13.7498 20.2243 14.3305L14.3309 20.2239C13.8056 20.7491 13.3812 21.1736 13.0102 21.5H20C20.2761 21.5 20.5 21.7239 20.5 22C20.5 22.2762 20.2761 22.5 20 22.5L10.8043 22.5C10.6675 22.5081 10.5304 22.5081 10.3937 22.5H2C1.72386 22.5 1.5 22.2762 1.5 22C1.5 21.7239 1.72386 21.5 2 21.5H8.1877C7.81672 21.1736 7.39228 20.7491 6.867 20.2238L3.78482 17.1417C3.2041 16.5609 2.7466 16.1035 2.40853 15.7052C2.06362 15.2989 1.81371 14.9215 1.67391 14.4913C1.4455 13.7883 1.4455 13.0311 1.67391 12.3281C1.81371 11.8979 2.06362 11.5205 2.40853 11.1142C2.7466 10.7159 3.2041 10.2584 3.78482 9.67773ZM11.3715 21.3837C11.1762 21.4472 10.975 21.4859 10.7725 21.5H10.4255C10.223 21.4859 10.0218 21.4472 9.82642 21.3837C9.5717 21.3009 9.3096 21.1425 8.95062 20.8378C8.58717 20.5292 8.15826 20.1009 7.5584 19.501L4.88219 16.8248L16.8252 4.88179L19.5014 7.558C20.1013 8.15786 20.5296 8.58676 20.8382 8.95021C21.143 9.3092 21.3013 9.5713 21.3841 9.82601C21.5472 10.3281 21.5472 10.869 21.3841 11.3711C21.3013 11.6258 21.143 11.8879 20.8382 12.2469C20.5296 12.6103 20.1013 13.0393 19.5014 13.6391L13.6395 19.501C13.0397 20.1009 12.6108 20.5292 12.2473 20.8378C11.8883 21.1425 11.6262 21.3009 11.3715 21.3837ZM16.1179 4.17491L4.17532 16.1175C3.74498 15.6853 3.41914 15.3505 3.17087 15.058C2.86611 14.6991 2.70772 14.437 2.62496 14.1822C2.46182 13.6801 2.46182 13.1393 2.62496 12.6372C2.70772 12.3824 2.86611 12.1203 3.17087 11.7614C3.47941 11.3979 3.90777 10.969 4.50763 10.3691L10.3695 4.50722C10.9694 3.90736 11.3983 3.47901 11.7618 3.17046C12.1207 2.86571 12.3828 2.70732 12.6376 2.62456C13.1397 2.46141 13.6805 2.46141 14.1826 2.62456C14.4374 2.70732 14.6995 2.86571 15.0584 3.17046C15.3509 3.41873 15.6857 3.74457 16.1179 4.17491Z" fill="#353566"/>
</svg>
