<svg width="24" height="24" viewBox="0 0 24 24" fill="none" xmlns="http://www.w3.org/2000/svg">
<path d="M6.57755 2.5H16.4224C17.3835 2.5 18.1355 2.49999 18.7395 2.54935C19.3541 2.59956 19.8594 2.70334 20.316 2.93597C21.0686 3.31947 21.6805 3.93139 22.064 4.68404C22.2967 5.14062 22.4004 5.64594 22.4507 6.26049C22.5 6.86451 22.5 7.61646 22.5 8.57754V11.6659C22.5 11.942 22.2761 12.1659 22 12.1659C21.7239 12.1659 21.5 11.942 21.5 11.6659V8.6C21.5 7.61166 21.4996 6.90047 21.454 6.34192C21.4088 5.78921 21.3219 5.43014 21.173 5.13803C20.8854 4.57354 20.4265 4.1146 19.862 3.82698C19.5699 3.67814 19.2108 3.59118 18.6581 3.54602C18.0995 3.50039 17.3883 3.5 16.4 3.5H6.6C5.61166 3.5 4.90047 3.50039 4.34192 3.54602C3.78921 3.59118 3.43014 3.67814 3.13803 3.82698C2.57354 4.1146 2.1146 4.57354 1.82698 5.13803C1.67814 5.43014 1.59118 5.78921 1.54602 6.34192C1.50039 6.90047 1.5 7.61166 1.5 8.6V13.4C1.5 14.3883 1.50039 15.0995 1.54602 15.6581C1.59118 16.2108 1.67814 16.5699 1.82698 16.862C2.1146 17.4265 2.57354 17.8854 3.13803 18.173C3.43014 18.3219 3.78921 18.4088 4.34192 18.454C4.90047 18.4996 5.61166 18.5 6.6 18.5H12.4C12.6761 18.5 12.9 18.7239 12.9 19C12.9 19.2761 12.6761 19.5 12.4 19.5H6.57754C5.61646 19.5 4.86451 19.5 4.26049 19.4507C3.64594 19.4004 3.14062 19.2967 2.68404 19.064C1.93139 18.6805 1.31947 18.0686 0.935974 17.316C0.703335 16.8594 0.599556 16.3541 0.549345 15.7395C0.499995 15.1355 0.499997 14.3835 0.5 13.4225V8.57756C0.499997 7.61647 0.499995 6.86451 0.549345 6.26049C0.599556 5.64594 0.703335 5.14062 0.935974 4.68404C1.31947 3.93139 1.93139 3.31947 2.68404 2.93597C3.14062 2.70334 3.64594 2.59956 4.26049 2.54935C4.86451 2.49999 5.61647 2.5 6.57755 2.5Z" fill="#353566"/>
<path fill-rule="evenodd" clip-rule="evenodd" d="M11.5046 14.5L11.5092 14.5C13.4504 14.5 15 12.8463 15 11C15 9.067 13.433 7.5 11.5 7.5C9.567 7.5 8 9.067 8 11C8 12.933 9.567 14.5 11.5 14.5L11.5046 14.5ZM11.5 8.5C10.1193 8.5 9 9.61929 9 11C9 12.3807 10.1193 13.5 11.5 13.5L11.5046 13.5L11.5092 13.5C12.8781 13.5 14 12.3142 14 11C14 9.61929 12.8807 8.5 11.5 8.5Z" fill="#353566"/>
<path d="M4.25 11C4.25 10.5858 4.58579 10.25 5 10.25C5.41421 10.25 5.7501 10.5858 5.7501 11C5.7501 11.4142 5.41431 11.75 5.0001 11.75C4.58589 11.75 4.25 11.4142 4.25 11Z" fill="#353566"/>
<path d="M23.3536 16.8536C23.5488 16.6583 23.5488 16.3417 23.3536 16.1464C23.1583 15.9512 22.8417 15.9512 22.6464 16.1464L18.5 20.2929L16.3536 18.1464C16.1583 17.9512 15.8417 17.9512 15.6464 18.1464C15.4512 18.3417 15.4512 18.6583 15.6464 18.8536L18.1464 21.3536C18.3417 21.5488 18.6583 21.5488 18.8536 21.3536L23.3536 16.8536Z" fill="#353566"/>
</svg>
