<svg width="24" height="24" viewBox="0 0 24 24" fill="none" xmlns="http://www.w3.org/2000/svg">
<path fill-rule="evenodd" clip-rule="evenodd" d="M15.5 12C15.5 9.76267 14.0313 7.75 12 7.75C9.96865 7.75 8.5 9.76267 8.5 12C8.5 14.2373 9.96865 16.25 12 16.25C14.0313 16.25 15.5 14.2373 15.5 12ZM12 8.75C13.2824 8.75 14.5 10.0952 14.5 12C14.5 13.9048 13.2824 15.25 12 15.25C10.7176 15.25 9.5 13.9048 9.5 12C9.5 10.0952 10.7176 8.75 12 8.75Z" fill="#353566"/>
<path fill-rule="evenodd" clip-rule="evenodd" d="M17.7637 3.5C15.6065 3.5 13.825 4.00941 12.0923 4.50488L12.0131 4.52754C10.2485 5.03199 8.5214 5.51656 6.39081 5.51656C5.28493 5.51656 4.26036 5.29661 3.16627 4.98508C2.67035 4.84387 2.14597 4.90749 1.73228 5.15091C1.3095 5.39969 1 5.84281 1 6.4108V17.6449C1 18.2065 1.15941 18.6839 1.46088 19.072C1.75643 19.4525 2.16284 19.7145 2.60692 19.8989C3.56493 20.3024 4.36109 20.5 6.2363 20.5C8.39351 20.5 10.175 19.9906 11.9077 19.4951L11.9869 19.4725C13.7515 18.968 15.4786 18.4834 17.6092 18.4834C18.7151 18.4834 19.7396 18.7034 20.8337 19.0149C21.3297 19.1561 21.854 19.0925 22.2677 18.8491C22.6905 18.6003 23 18.1572 23 17.5892L23 6.35513C23 5.7935 22.8406 5.31609 22.5391 4.92797C22.2436 4.54748 21.8372 4.28556 21.3932 4.10114C20.4351 3.69766 19.639 3.5 17.7637 3.5ZM6.39081 6.51656C8.67668 6.51656 10.5255 5.99285 12.288 5.48902L12.3264 5.47804C14.0816 4.97624 15.7474 4.5 17.7637 4.5C19.5359 4.5 20.195 4.6815 21.0061 5.02319L21.0086 5.02424C21.3484 5.16522 21.5914 5.33802 21.7494 5.54139C21.9017 5.73752 22 5.99375 22 6.35513V17.5892C22 17.7603 21.9166 17.8954 21.7606 17.9872C21.5955 18.0844 21.3552 18.1236 21.1076 18.0531C19.9775 17.7314 18.8502 17.4834 17.6092 17.4834C15.3233 17.4834 13.4745 18.0072 11.712 18.511L11.6736 18.522C9.9184 19.0238 8.25256 19.5 6.2363 19.5C4.46407 19.5 3.805 19.3185 2.99392 18.9768L2.99141 18.9758C2.6516 18.8348 2.4086 18.662 2.25063 18.4586C2.09829 18.2625 2 18.0063 2 17.6449L2 6.4108C2 6.23973 2.08342 6.10458 2.23943 6.01277C2.40453 5.91562 2.64482 5.87635 2.89242 5.94685C4.0225 6.26863 5.14982 6.51656 6.39081 6.51656Z" fill="#353566"/>
</svg>
