<svg width="24" height="24" viewBox="0 0 24 24" fill="none" xmlns="http://www.w3.org/2000/svg">
<g clip-path="url(#clip0_9001_269022)">
<path opacity="0.4" d="M19.7486 8.99973H2.25082C1.00954 8.99973 0.527134 7.38615 1.56473 6.70485L9.62753 1.41072C10.4605 0.863746 11.5388 0.863746 12.3719 1.41072L20.4347 6.70484C21.4723 7.38615 20.9899 8.99973 19.7486 8.99973Z" fill="#353566"/>
<path d="M11.0001 4.5C11.2762 4.5 11.5001 4.72386 11.5001 5V6.5C11.5001 6.77614 11.2762 7 11.0001 7C10.7239 7 10.5001 6.77614 10.5001 6.5V5C10.5001 4.72386 10.7239 4.5 11.0001 4.5Z" fill="#353566"/>
<path fill-rule="evenodd" clip-rule="evenodd" d="M12.6465 0.992761C11.6469 0.336397 10.3529 0.336397 9.35328 0.992762L1.29048 6.28689C-0.16216 7.24072 0.513208 9.49973 2.251 9.49973H19.7488C21.4865 9.49973 22.1619 7.24071 20.7093 6.28689L12.6465 0.992761ZM9.90214 1.82867C10.5686 1.39109 11.4312 1.39109 12.0976 1.82867L20.1604 7.1228C20.783 7.53158 20.4935 8.49973 19.7488 8.49973H2.251C1.50623 8.49973 1.21679 7.53158 1.83935 7.1228L9.90214 1.82867Z" fill="#353566"/>
<path d="M4.75006 12C4.75006 11.7239 4.5262 11.5 4.25006 11.5C3.97392 11.5 3.75006 11.7239 3.75006 12V15C3.75006 15.2761 3.97392 15.5 4.25006 15.5C4.5262 15.5 4.75006 15.2761 4.75006 15V12Z" fill="#353566"/>
<path d="M8.75006 11.5C9.0262 11.5 9.25006 11.7239 9.25006 12V15C9.25006 15.2761 9.0262 15.5 8.75006 15.5C8.47392 15.5 8.25006 15.2761 8.25006 15V12C8.25006 11.7239 8.47392 11.5 8.75006 11.5Z" fill="#353566"/>
<path d="M13.7501 12C13.7501 11.7239 13.5262 11.5 13.2501 11.5C12.9739 11.5 12.7501 11.7239 12.7501 12V14.4905C12.922 14.0765 13.1919 13.7986 13.5871 13.5999L13.5882 13.5994L13.7501 13.5184V12Z" fill="#353566"/>
<path d="M2.50006 17.5H12.5895C12.6384 17.8383 12.7069 18.1722 12.7942 18.5H2.50006C2.22392 18.5 2.00006 18.2761 2.00006 18C2.00006 17.7239 2.22392 17.5 2.50006 17.5Z" fill="#353566"/>
<path d="M1.00006 20.5H13.5974C13.7883 20.847 14.0022 21.1812 14.2373 21.5H1.00006C0.723919 21.5 0.500061 21.2761 0.500061 21C0.500061 20.7239 0.723919 20.5 1.00006 20.5Z" fill="#353566"/>
<path fill-rule="evenodd" clip-rule="evenodd" d="M19.3935 12.7081C18.8304 12.4267 18.1676 12.4267 17.6046 12.7083L14.0361 14.493C13.7077 14.6573 13.5002 14.9928 13.5001 15.36C13.4994 16.7737 13.5894 18.1315 14.1668 19.451C14.9569 21.2568 16.4181 22.6575 18.2166 23.4423C18.3967 23.5209 18.6014 23.5209 18.7815 23.4423C20.5804 22.6573 22.042 21.2548 22.8322 19.4487C23.4089 18.1304 23.4994 16.7739 23.5001 15.3614C23.5002 14.9935 23.2924 14.6571 22.9633 14.4926L19.3935 12.7081ZM18.0519 13.6027C18.3334 13.4619 18.6648 13.4619 18.9463 13.6026L22.5001 15.379C22.4995 16.6465 22.4342 17.8633 21.916 19.0479C21.2466 20.5782 20.0269 21.8009 18.499 22.4744C16.9715 21.8018 15.7521 20.5797 15.0829 19.0502C14.5643 17.8648 14.4995 16.6474 14.5001 15.3791L18.0519 13.6027Z" fill="#353566"/>
</g>
<defs>
<clipPath id="clip0_9001_269022">
<rect width="24" height="24" fill="white"/>
</clipPath>
</defs>
</svg>
