<svg width="24" height="24" viewBox="0 0 24 24" fill="none" xmlns="http://www.w3.org/2000/svg">
<g clip-path="url(#clip0_9001_269127)">
<path opacity="0.4" d="M19.7486 8.99973H2.25082C1.00954 8.99973 0.527134 7.38615 1.56473 6.70485L9.62753 1.41072C10.4605 0.863746 11.5388 0.863746 12.3719 1.41072L20.4347 6.70484C21.4723 7.38615 20.9899 8.99973 19.7486 8.99973Z" fill="#353566"/>
<path d="M11.5002 5C11.5002 4.72386 11.2764 4.5 11.0002 4.5C10.7241 4.5 10.5002 4.72386 10.5002 5V6.5C10.5002 6.77614 10.7241 7 11.0002 7C11.2764 7 11.5002 6.77614 11.5002 6.5V5Z" fill="#353566"/>
<path fill-rule="evenodd" clip-rule="evenodd" d="M9.35352 0.992762C10.3531 0.336397 11.6471 0.336397 12.6467 0.992761L20.7095 6.28689C22.1622 7.24071 21.4868 9.49973 19.749 9.49973H2.25125C0.513452 9.49973 -0.161916 7.24072 1.29073 6.28689L9.35352 0.992762ZM12.0979 1.82867C11.4314 1.39109 10.5688 1.39109 9.90239 1.82867L1.83959 7.1228C1.21704 7.53158 1.50647 8.49973 2.25125 8.49973H19.749C20.4938 8.49973 20.7832 7.53158 20.1607 7.1228L12.0979 1.82867Z" fill="#353566"/>
<path d="M4.25024 11.5C4.52639 11.5 4.75024 11.7239 4.75024 12V15C4.75024 15.2761 4.52639 15.5 4.25024 15.5C3.9741 15.5 3.75024 15.2761 3.75024 15V12C3.75024 11.7239 3.9741 11.5 4.25024 11.5Z" fill="#353566"/>
<path d="M9.25024 12C9.25024 11.7239 9.02639 11.5 8.75024 11.5C8.4741 11.5 8.25024 11.7239 8.25024 12V15C8.25024 15.2761 8.4741 15.5 8.75024 15.5C9.02639 15.5 9.25024 15.2761 9.25024 15V12Z" fill="#353566"/>
<path d="M13.2502 11.5C13.5264 11.5 13.7502 11.7239 13.7502 12V15C13.7502 15.2761 13.5264 15.5 13.2502 15.5C12.9741 15.5 12.7502 15.2761 12.7502 15V12C12.7502 11.7239 12.9741 11.5 13.2502 11.5Z" fill="#353566"/>
<path d="M15.9276 17.5H2.50024C2.2241 17.5 2.00024 17.7239 2.00024 18C2.00024 18.2761 2.2241 18.5 2.50024 18.5H16.7159C16.5446 18.2978 16.2677 17.9617 15.9841 17.5789C15.9649 17.553 15.9461 17.5267 15.9276 17.5Z" fill="#353566"/>
<path d="M14.6614 20.5H1.00024C0.724102 20.5 0.500244 20.7239 0.500244 21C0.500244 21.2761 0.724102 21.5 1.00024 21.5H13.9818C14.1703 21.1412 14.3989 20.8064 14.6614 20.5Z" fill="#353566"/>
<path d="M19.0002 20.5C17.3515 20.5 15.8685 21.6327 15.4845 23.1246C15.4156 23.3921 15.143 23.553 14.8756 23.4842C14.6082 23.4154 14.4472 23.1428 14.516 22.8754C15.0201 20.9168 16.9213 19.5 19.0002 19.5C21.0792 19.5 22.9804 20.9168 23.4845 22.8754C23.5533 23.1428 23.3923 23.4154 23.1249 23.4842C22.8574 23.553 22.5849 23.3921 22.516 23.1246C22.132 21.6327 20.649 20.5 19.0002 20.5Z" fill="#353566"/>
<path fill-rule="evenodd" clip-rule="evenodd" d="M19.0002 12.5C17.4815 12.5 16.2502 13.7312 16.2502 15.25C16.2502 16.7688 17.4815 18 19.0002 18C20.519 18 21.7502 16.7688 21.7502 15.25C21.7502 13.7312 20.519 12.5 19.0002 12.5ZM17.2502 15.25C17.2502 14.2835 18.0337 13.5 19.0002 13.5C19.9667 13.5 20.7502 14.2835 20.7502 15.25C20.7502 16.2165 19.9667 17 19.0002 17C18.0337 17 17.2502 16.2165 17.2502 15.25Z" fill="#353566"/>
</g>
<defs>
<clipPath id="clip0_9001_269127">
<rect width="24" height="24" fill="white"/>
</clipPath>
</defs>
</svg>
