<svg width="24" height="24" viewBox="0 0 24 24" fill="none" xmlns="http://www.w3.org/2000/svg">
<path opacity="0.4" fill-rule="evenodd" clip-rule="evenodd" d="M3.5 22H13.5C14.0875 22 14.6276 21.7973 15.0544 21.4582C13.4533 19.8288 12.5 17.6033 12.5 15.2577C12.5 13.7308 12.7859 13.0025 13.5871 12.5997L13.5881 12.5992L16 11.3933V4.4997C16 2.79582 14.3328 1.59116 12.7151 2.1261L2.71511 5.43285C1.69135 5.77138 1 6.72816 1 7.80644V19.5C1 20.8807 2.11929 22 3.5 22ZM11 21.9998V16.9998C11 16.4475 10.5523 15.9998 10 15.9998H7C6.44772 15.9998 6 16.4476 6 16.9998V21.9998H11Z" fill="#353566"/>
<path fill-rule="evenodd" clip-rule="evenodd" d="M12.8721 2.60096C14.1663 2.173 15.5 3.13673 15.5 4.49983V11.6434L16.5 11.1434V4.49983C16.5 2.45518 14.4994 1.00959 12.5581 1.65152L2.55814 4.95826C1.32962 5.3645 0.5 6.51264 0.5 7.80658V19.5001C0.5 21.157 1.84315 22.5001 3.5 22.5001H13.5C14.2292 22.5001 14.8976 22.24 15.4175 21.8074C15.1688 21.5816 14.9336 21.3421 14.7128 21.0905C14.3764 21.3475 13.956 21.5001 13.5 21.5001H11.5V17C11.5 16.1715 10.8284 15.5 10 15.5H7C6.17157 15.5 5.5 16.1715 5.5 17V21.5001H3.5C2.39543 21.5001 1.5 20.6047 1.5 19.5001V7.80658C1.5 6.94395 2.05308 6.17853 2.87209 5.9077L12.8721 2.60096ZM6.5 17C6.5 16.7238 6.72386 16.5 7 16.5H10C10.2761 16.5 10.5 16.7238 10.5 17V21.5H6.5V17Z" fill="#353566"/>
<path d="M11.5 9.99997C11.7761 9.99997 12 9.77611 12 9.49997C12 9.22383 11.7761 8.99997 11.5 8.99997H10.5C10.2239 8.99997 10 9.22383 10 9.49997C10 9.77611 10.2239 9.99997 10.5 9.99997H11.5Z" fill="#353566"/>
<path d="M12 12.5C12 12.7761 11.7761 13 11.5 13H10.5C10.2239 13 10 12.7761 10 12.5C10 12.2238 10.2239 12 10.5 12H11.5C11.7761 12 12 12.2238 12 12.5Z" fill="#353566"/>
<path d="M6.5 9.99997C6.77614 9.99997 7 9.77611 7 9.49997C7 9.22383 6.77614 8.99997 6.5 8.99997H5.5C5.22386 8.99997 5 9.22383 5 9.49997C5 9.77611 5.22386 9.99997 5.5 9.99997H6.5Z" fill="#353566"/>
<path d="M7 12.5C7 12.7761 6.77614 13 6.5 13H5.5C5.22386 13 5 12.7761 5 12.5C5 12.2238 5.22386 12 5.5 12H6.5C6.77614 12 7 12.2238 7 12.5Z" fill="#353566"/>
<path fill-rule="evenodd" clip-rule="evenodd" d="M19.3934 11.7081C18.8303 11.4267 18.1676 11.4267 17.6045 11.7083L14.036 13.493C13.7076 13.6573 13.5002 13.9928 13.5 14.36C13.4993 15.7737 13.5894 17.1315 14.1667 18.451C14.9568 20.2568 16.4181 21.6575 18.2165 22.4423C18.3966 22.5209 18.6013 22.5209 18.7815 22.4423C20.5804 21.6573 22.042 20.2548 22.8321 18.4487C23.4088 17.1304 23.4993 15.7739 23.5 14.3614C23.5002 13.9935 23.2924 13.6571 22.9633 13.4926L19.3934 11.7081ZM18.0518 12.6027C18.3334 12.4619 18.6647 12.4619 18.9463 12.6026L22.5 14.379C22.4994 15.6465 22.4342 16.8633 21.916 18.0479C21.2465 19.5782 20.0268 20.8009 18.499 21.4744C16.9715 20.8018 15.7521 19.5797 15.0828 18.0502C14.5642 16.8648 14.4994 15.6473 14.5 14.3791L18.0518 12.6027Z" fill="#353566"/>
</svg>
