<svg width="24" height="24" viewBox="0 0 24 24" fill="none" xmlns="http://www.w3.org/2000/svg">
<path opacity="0.4" d="M5.8 22H6.5V17C6.5 16.4477 6.94772 16 7.5 16H10.5C11.0523 16 11.5 16.4477 11.5 17V22H12.2C12.606 22 12.9629 22 13.2798 21.9954C13.0883 21.2825 13.2662 20.4653 13.4331 19.6981C13.4756 19.5026 13.5175 19.3104 13.5523 19.1239C13.4174 18.9971 13.2741 18.8696 13.1285 18.7399C12.196 17.9098 11.1658 16.9927 11.6065 15.628C12.0485 14.2595 13.4301 14.1178 14.6778 13.9898C14.8761 13.9695 15.071 13.9495 15.2583 13.925C15.3399 13.7557 15.4195 13.5778 15.5006 13.3968C15.8697 12.5729 16.2671 11.6858 17 11.2588V6.8C17 5.11984 17 4.27976 16.673 3.63803C16.3854 3.07354 15.9265 2.6146 15.362 2.32698C14.7202 2 13.8802 2 12.2 2H5.8C4.11984 2 3.27976 2 2.63803 2.32698C2.07354 2.6146 1.6146 3.07354 1.32698 3.63803C1 4.27976 1 5.11984 1 6.8V17.2C1 18.8802 1 19.7202 1.32698 20.362C1.6146 20.9265 2.07354 21.3854 2.63803 21.673C3.27976 22 4.11984 22 5.8 22Z" fill="#353566"/>
<path fill-rule="evenodd" clip-rule="evenodd" d="M5.77779 1.5C4.95653 1.5 4.30954 1.49999 3.78889 1.54253C3.25771 1.58593 2.81413 1.67609 2.41103 1.88148C1.75247 2.21703 1.21703 2.75247 0.881478 3.41103C0.676087 3.81413 0.585932 4.25771 0.542534 4.78889C0.499995 5.30954 0.499997 5.95651 0.5 6.77778V17.2222C0.499997 18.0435 0.499995 18.6905 0.542534 19.2111C0.585932 19.7423 0.676087 20.1859 0.881478 20.589C1.21703 21.2475 1.75247 21.783 2.41103 22.1185C2.81413 22.3239 3.25771 22.4141 3.78889 22.4575C4.30954 22.5 4.95652 22.5 5.77778 22.5H12.2222C12.6999 22.5 13.1193 22.5 13.4885 22.4916C13.305 22.1856 13.2225 21.8486 13.2021 21.4964C12.9098 21.4999 12.5791 21.5 12.2 21.5H12V17.5974C11.6354 17.1116 11.4146 16.5653 11.5341 15.9134C11.265 15.6572 10.9009 15.5 10.5 15.5H7.5C6.67157 15.5 6 16.1716 6 17V21.5H5.8C4.95167 21.5 4.34549 21.4996 3.87032 21.4608C3.40099 21.4224 3.10366 21.3491 2.86502 21.2275C2.39462 20.9878 2.01217 20.6054 1.77248 20.135C1.65089 19.8963 1.57756 19.599 1.53921 19.1297C1.50039 18.6545 1.5 18.0483 1.5 17.2V6.8C1.5 5.95167 1.50039 5.34549 1.53921 4.87032C1.57756 4.40099 1.65089 4.10366 1.77248 3.86502C2.01217 3.39462 2.39462 3.01217 2.86502 2.77248C3.10366 2.65089 3.40099 2.57756 3.87032 2.53921C4.34549 2.50039 4.95167 2.5 5.8 2.5H12.2C13.0483 2.5 13.6545 2.50039 14.1297 2.53921C14.599 2.57756 14.8963 2.65089 15.135 2.77248C15.6054 3.01217 15.9878 3.39462 16.2275 3.86502C16.3491 4.10366 16.4224 4.40099 16.4608 4.87032C16.4996 5.34549 16.5 5.95167 16.5 6.8V11.6662C16.7685 11.3767 17.0918 11.1567 17.5 11.0577V6.77778C17.5 5.95651 17.5 5.30954 17.4575 4.78889C17.4141 4.25771 17.3239 3.81413 17.1185 3.41103C16.783 2.75247 16.2475 2.21703 15.589 1.88148C15.1859 1.67609 14.7423 1.58593 14.2111 1.54253C13.6905 1.49999 13.0435 1.5 12.2222 1.5H5.77779ZM7 21.5H11V17C11 16.7239 10.7761 16.5 10.5 16.5H7.5C7.22386 16.5 7 16.7239 7 17V21.5Z" fill="#353566"/>
<path d="M12 10C12.2761 10 12.5 9.77614 12.5 9.5C12.5 9.22386 12.2761 9 12 9H11C10.7239 9 10.5 9.22386 10.5 9.5C10.5 9.77614 10.7239 10 11 10H12Z" fill="#353566"/>
<path d="M12.5 6.5C12.5 6.77614 12.2761 7 12 7H11C10.7239 7 10.5 6.77614 10.5 6.5C10.5 6.22386 10.7239 6 11 6H12C12.2761 6 12.5 6.22386 12.5 6.5Z" fill="#353566"/>
<path d="M12 13C12.2761 13 12.5 12.7761 12.5 12.5C12.5 12.2239 12.2761 12 12 12H11C10.7239 12 10.5 12.2239 10.5 12.5C10.5 12.7761 10.7239 13 11 13H12Z" fill="#353566"/>
<path d="M7.5 9.5C7.5 9.77614 7.27614 10 7 10H6C5.72386 10 5.5 9.77614 5.5 9.5C5.5 9.22386 5.72386 9 6 9H7C7.27614 9 7.5 9.22386 7.5 9.5Z" fill="#353566"/>
<path d="M7 7C7.27614 7 7.5 6.77614 7.5 6.5C7.5 6.22386 7.27614 6 7 6H6C5.72386 6 5.5 6.22386 5.5 6.5C5.5 6.77614 5.72386 7 6 7H7Z" fill="#353566"/>
<path d="M7.5 12.5C7.5 12.7761 7.27614 13 7 13H6C5.72386 13 5.5 12.7761 5.5 12.5C5.5 12.2239 5.72386 12 6 12H7C7.27614 12 7.5 12.2239 7.5 12.5Z" fill="#353566"/>
<path fill-rule="evenodd" clip-rule="evenodd" d="M19.0133 12.6365C18.6043 11.7878 17.3957 11.7878 16.9866 12.6365L15.9213 14.8464L13.4801 15.165C12.5385 15.2879 12.1633 16.45 12.8553 17.1003L14.6335 18.7713L14.1858 21.1646C14.0121 22.0935 14.9916 22.8097 15.824 22.3625L18 21.1934L20.1759 22.3625C21.0083 22.8097 21.9878 22.0935 21.8141 21.1646L21.3664 18.7713L23.1446 17.1003C23.8366 16.45 23.4614 15.2879 22.5198 15.165L20.0786 14.8464L19.0133 12.6365ZM17.8874 13.0707C17.9328 12.9764 18.0671 12.9764 18.1125 13.0707L19.1778 15.2807C19.3244 15.5848 19.6145 15.7944 19.9492 15.838L22.3905 16.1566C22.495 16.1702 22.5367 16.2993 22.4599 16.3716L20.6816 18.0426C20.4331 18.2761 20.3208 18.62 20.3834 18.9552L20.8311 21.3485C20.8504 21.4517 20.7416 21.5312 20.6492 21.4815L18.4732 20.3125C18.1777 20.1537 17.8222 20.1537 17.5267 20.3125L15.3508 21.4815C15.2583 21.5312 15.1495 21.4517 15.1688 21.3485L15.6165 18.9552C15.6792 18.62 15.5668 18.2761 15.3183 18.0426L13.5401 16.3716C13.4632 16.2993 13.5049 16.1702 13.6095 16.1566L16.0507 15.838C16.3854 15.7944 16.6755 15.5848 16.8221 15.2807L17.8874 13.0707Z" fill="#353566"/>
</svg>
