<svg width="24" height="24" viewBox="0 0 24 24" fill="none" xmlns="http://www.w3.org/2000/svg">
<path opacity="0.4" fill-rule="evenodd" clip-rule="evenodd" d="M3.5 22H13.5C13.6308 22 13.7593 21.9899 13.8846 21.9706C13.6397 21.536 13.5 21.0342 13.5 20.4998V17.2498C13.5 16.2813 13.9573 15.4202 14.674 14.8693L15.2149 14.4534L15.2569 13.7724C15.3016 13.0492 15.5763 12.4093 16 11.8914V4.4997C16 2.79582 14.3328 1.59116 12.7151 2.1261L2.71511 5.43285C1.69135 5.77138 1 6.72816 1 7.80644V19.5C1 20.8807 2.11929 22 3.5 22ZM11 21.9998V16.9998C11 16.4475 10.5523 15.9998 10 15.9998H7C6.44772 15.9998 6 16.4476 6 16.9998V21.9998H11Z" fill="#353566"/>
<path fill-rule="evenodd" clip-rule="evenodd" d="M15.5 4.49983C15.5 3.13673 14.1663 2.173 12.8721 2.60096L2.87209 5.9077C2.05308 6.17853 1.5 6.94395 1.5 7.80658V19.5001C1.5 20.6047 2.39543 21.5001 3.5 21.5001H5.5V17C5.5 16.1715 6.17157 15.5 7 15.5H10C10.8284 15.5 11.5 16.1715 11.5 17V21.5001H13.5C13.5567 21.5001 13.6128 21.4978 13.6683 21.4931C13.7879 21.8343 13.9675 22.1472 14.1943 22.4194C13.9714 22.4722 13.739 22.5001 13.5 22.5001H3.5C1.84315 22.5001 0.5 21.157 0.5 19.5001V7.80658C0.5 6.51264 1.32962 5.3645 2.55814 4.95826L12.5581 1.65152C14.4994 1.00959 16.5 2.45518 16.5 4.49983V11.3912C16.067 11.7476 15.718 12.1986 15.5 12.7217V4.49983ZM7 16.5C6.72386 16.5 6.5 16.7238 6.5 17V21.5H10.5V17C10.5 16.7238 10.2761 16.5 10 16.5H7Z" fill="#353566"/>
<path d="M12 9.49997C12 9.77611 11.7761 9.99997 11.5 9.99997H10.5C10.2239 9.99997 10 9.77611 10 9.49997C10 9.22383 10.2239 8.99997 10.5 8.99997H11.5C11.7761 8.99997 12 9.22383 12 9.49997Z" fill="#353566"/>
<path d="M11.5 13C11.7761 13 12 12.7761 12 12.5C12 12.2238 11.7761 12 11.5 12H10.5C10.2239 12 10 12.2238 10 12.5C10 12.7761 10.2239 13 10.5 13H11.5Z" fill="#353566"/>
<path d="M7 9.49997C7 9.77611 6.77614 9.99997 6.5 9.99997H5.5C5.22386 9.99997 5 9.77611 5 9.49997C5 9.22383 5.22386 8.99997 5.5 8.99997H6.5C6.77614 8.99997 7 9.22383 7 9.49997Z" fill="#353566"/>
<path d="M6.5 13C6.77614 13 7 12.7761 7 12.5C7 12.2238 6.77614 12 6.5 12H5.5C5.22386 12 5 12.2238 5 12.5C5 12.7761 5.22386 13 5.5 13H6.5Z" fill="#353566"/>
<path fill-rule="evenodd" clip-rule="evenodd" d="M16.25 14C16.25 12.5656 17.5382 11.5 19 11.5C20.4618 11.5 21.75 12.5656 21.75 14V15.25C22.7165 15.25 23.5 16.0335 23.5 17V20.75C23.5 21.7165 22.7165 22.5 21.75 22.5H16.25C15.2835 22.5 14.5 21.7165 14.5 20.75V17C14.5 16.0335 15.2835 15.25 16.25 15.25V14ZM17.25 15.25H20.75V14C20.75 13.2253 20.0235 12.5 19 12.5C17.9765 12.5 17.25 13.2253 17.25 14V15.25ZM16.25 16.25C15.8358 16.25 15.5 16.5858 15.5 17V20.75C15.5 21.1642 15.8358 21.5 16.25 21.5H21.75C22.1642 21.5 22.5 21.1642 22.5 20.75V17C22.5 16.5858 22.1642 16.25 21.75 16.25H16.25Z" fill="#353566"/>
</svg>
