<svg width="24" height="24" viewBox="0 0 24 24" fill="none" xmlns="http://www.w3.org/2000/svg">
<path opacity="0.4" d="M5.8 22H6.5V17C6.5 16.4477 6.94772 16 7.5 16H10.5C11.0523 16 11.5 16.4477 11.5 17V22H12.2C13.672 22 14.4992 22 15.1131 21.7801C14.2001 20.9423 13.1392 19.8975 12.5148 19.0308C11.1751 17.1716 11.2114 14.7328 12.3313 13.2153C13.3753 11.8007 14.9692 11.2961 16.3011 11.5726C16.5385 11.6223 16.7725 11.6879 17 11.7704V6.8C17 5.11984 17 4.27976 16.673 3.63803C16.3854 3.07354 15.9265 2.6146 15.362 2.32698C14.7202 2 13.8802 2 12.2 2H5.8C4.11984 2 3.27976 2 2.63803 2.32698C2.07354 2.6146 1.6146 3.07354 1.32698 3.63803C1 4.27976 1 5.11984 1 6.8V17.2C1 18.8802 1 19.7202 1.32698 20.362C1.6146 20.9265 2.07354 21.3854 2.63803 21.673C3.27976 22 4.11984 22 5.8 22Z" fill="#353566"/>
<path fill-rule="evenodd" clip-rule="evenodd" d="M5.77779 1.5C4.95653 1.5 4.30954 1.49999 3.78889 1.54253C3.25771 1.58593 2.81413 1.67609 2.41103 1.88148C1.75247 2.21703 1.21703 2.75247 0.881478 3.41103C0.676087 3.81413 0.585932 4.25771 0.542534 4.78889C0.499995 5.30954 0.499997 5.95651 0.5 6.77778V17.2222C0.499997 18.0435 0.499995 18.6905 0.542534 19.2111C0.585932 19.7423 0.676087 20.1859 0.881478 20.589C1.21703 21.2475 1.75247 21.783 2.41103 22.1185C2.81413 22.3239 3.25771 22.4141 3.78889 22.4575C4.30954 22.5 4.95652 22.5 5.77778 22.5H12.2222C13.0435 22.5 13.6905 22.5 14.2111 22.4575C14.7132 22.4164 15.1371 22.3336 15.5224 22.1512C15.2604 21.9165 14.9761 21.6566 14.6862 21.3828C14.5305 21.4173 14.3488 21.4429 14.1297 21.4608C13.6545 21.4996 13.0483 21.5 12.2 21.5H12V18.1519C11.6588 17.4179 11.497 16.6366 11.4999 15.8819C11.2346 15.6444 10.8841 15.5 10.5 15.5H7.5C6.67157 15.5 6 16.1716 6 17V21.5H5.8C4.95167 21.5 4.34549 21.4996 3.87032 21.4608C3.40099 21.4224 3.10366 21.3491 2.86502 21.2275C2.39462 20.9878 2.01217 20.6054 1.77248 20.135C1.65089 19.8963 1.57756 19.599 1.53921 19.1297C1.50039 18.6545 1.5 18.0483 1.5 17.2V6.8C1.5 5.95167 1.50039 5.34549 1.53921 4.87032C1.57756 4.40099 1.65089 4.10366 1.77248 3.86502C2.01217 3.39462 2.39462 3.01217 2.86502 2.77248C3.10366 2.65089 3.40099 2.57756 3.87032 2.53921C4.34549 2.50039 4.95167 2.5 5.8 2.5H12.2C13.0483 2.5 13.6545 2.50039 14.1297 2.53921C14.599 2.57756 14.8963 2.65089 15.135 2.77248C15.6054 3.01217 15.9878 3.39462 16.2275 3.86502C16.3491 4.10366 16.4224 4.40099 16.4608 4.87032C16.4996 5.34549 16.5 5.95167 16.5 6.8V11.6182C16.8459 11.7045 17.1825 11.8257 17.5 11.9858V6.77778C17.5 5.95651 17.5 5.30954 17.4575 4.78889C17.4141 4.25771 17.3239 3.81413 17.1185 3.41103C16.783 2.75247 16.2475 2.21703 15.589 1.88148C15.1859 1.67609 14.7423 1.58593 14.2111 1.54253C13.6905 1.49999 13.0435 1.5 12.2222 1.5H5.77779ZM7 21.5H11V17C11 16.7239 10.7761 16.5 10.5 16.5H7.5C7.22386 16.5 7 16.7239 7 17V21.5Z" fill="#353566"/>
<path d="M12 10C12.2761 10 12.5 9.77614 12.5 9.5C12.5 9.22386 12.2761 9 12 9H11C10.7239 9 10.5 9.22386 10.5 9.5C10.5 9.77614 10.7239 10 11 10H12Z" fill="#353566"/>
<path d="M12.5 6.5C12.5 6.77614 12.2761 7 12 7H11C10.7239 7 10.5 6.77614 10.5 6.5C10.5 6.22386 10.7239 6 11 6H12C12.2761 6 12.5 6.22386 12.5 6.5Z" fill="#353566"/>
<path d="M12 13C12.2761 13 12.5 12.7761 12.5 12.5C12.5 12.2239 12.2761 12 12 12H11C10.7239 12 10.5 12.2239 10.5 12.5C10.5 12.7761 10.7239 13 11 13H12Z" fill="#353566"/>
<path d="M7.5 9.5C7.5 9.77614 7.27614 10 7 10H6C5.72386 10 5.5 9.77614 5.5 9.5C5.5 9.22386 5.72386 9 6 9H7C7.27614 9 7.5 9.22386 7.5 9.5Z" fill="#353566"/>
<path d="M7 7C7.27614 7 7.5 6.77614 7.5 6.5C7.5 6.22386 7.27614 6 7 6H6C5.72386 6 5.5 6.22386 5.5 6.5C5.5 6.77614 5.72386 7 6 7H7Z" fill="#353566"/>
<path d="M7.5 12.5C7.5 12.7761 7.27614 13 7 13H6C5.72386 13 5.5 12.7761 5.5 12.5C5.5 12.2239 5.72386 12 6 12H7C7.27614 12 7.5 12.2239 7.5 12.5Z" fill="#353566"/>
<path fill-rule="evenodd" clip-rule="evenodd" d="M22.8641 13.8092C22.0491 12.7049 20.847 12.3556 19.9021 12.5517L19.9002 12.5521C19.166 12.7076 18.5143 13.0554 18 13.6007C17.4857 13.0554 16.8341 12.7076 16.0999 12.5521L16.0979 12.5517C15.153 12.3556 13.951 12.7049 13.136 13.8092C12.2957 14.9478 12.2186 16.9092 13.3262 18.4463C14.098 19.5175 15.6666 20.9544 16.6741 21.8349C16.6931 21.8516 16.712 21.8682 16.7307 21.8846C17.0093 22.129 17.2574 22.3465 17.5751 22.4404C17.8441 22.5199 18.1559 22.5199 18.425 22.4404C18.7426 22.3465 18.9907 22.129 19.2692 21.8847C19.288 21.8682 19.3069 21.8516 19.326 21.8349C20.3335 20.9543 21.902 19.5175 22.6739 18.4463C23.7815 16.9092 23.7044 14.9477 22.8641 13.8092ZM20.1063 13.5307C20.6641 13.4153 21.4738 13.6095 22.0595 14.403C22.6202 15.1627 22.738 16.6467 21.8626 17.8617C21.1685 18.8248 19.6891 20.1894 18.6679 21.082C18.2983 21.4051 18.2221 21.4576 18.1415 21.4814C18.0575 21.5063 17.9426 21.5063 17.8585 21.4814C17.7779 21.4576 17.7018 21.4051 17.3322 21.082C16.3109 20.1894 14.8315 18.8248 14.1375 17.8617C13.262 16.6467 13.3799 15.1627 13.9406 14.403C14.5262 13.6095 15.336 13.4153 15.8938 13.5307C16.6317 13.6871 17.1513 14.0935 17.6039 14.6812C17.6985 14.8041 17.8449 14.8761 18 14.8761C18.1552 14.8761 18.3015 14.8041 18.3962 14.6812C18.8487 14.0935 19.3684 13.6871 20.1063 13.5307Z" fill="#353566"/>
</svg>
