<svg width="24" height="24" viewBox="0 0 24 24" fill="none" xmlns="http://www.w3.org/2000/svg">
<path opacity="0.4" d="M14.5 2H9.5C8.11929 2 7 3.11929 7 4.5V5.5C7 5.77614 6.77614 6 6.5 6H4.5C3.11929 6 2 7.11929 2 8.5V22H17V4.5C17 3.11929 15.8807 2 14.5 2Z" fill="#353566"/>
<path d="M13.5 9.5C13.5 9.77614 13.2761 10 13 10H11C10.7239 10 10.5 9.77614 10.5 9.5C10.5 9.22386 10.7239 9 11 9H13C13.2761 9 13.5 9.22386 13.5 9.5Z" fill="#353566"/>
<path d="M13 16C13.2761 16 13.5 15.7761 13.5 15.5C13.5 15.2239 13.2761 15 13 15H11C10.7239 15 10.5 15.2239 10.5 15.5C10.5 15.7761 10.7239 16 11 16H13Z" fill="#353566"/>
<path d="M13.5 6.5C13.5 6.77614 13.2761 7 13 7H11C10.7239 7 10.5 6.77614 10.5 6.5C10.5 6.22386 10.7239 6 11 6H13C13.2761 6 13.5 6.22386 13.5 6.5Z" fill="#353566"/>
<path d="M13 13C13.2761 13 13.5 12.7761 13.5 12.5C13.5 12.2239 13.2761 12 13 12H11C10.7239 12 10.5 12.2239 10.5 12.5C10.5 12.7761 10.7239 13 11 13H13Z" fill="#353566"/>
<path d="M13.5 18.5C13.5 18.7761 13.2761 19 13 19H11C10.7239 19 10.5 18.7761 10.5 18.5C10.5 18.2239 10.7239 18 11 18H13C13.2761 18 13.5 18.2239 13.5 18.5Z" fill="#353566"/>
<path d="M5 14.5C5 14.7761 5.22386 15 5.5 15C5.77614 15 6 14.7761 6 14.5V13.5C6 13.2239 5.77614 13 5.5 13C5.22386 13 5 13.2239 5 13.5V14.5Z" fill="#353566"/>
<path d="M5.5 11C5.22386 11 5 10.7761 5 10.5V9.5C5 9.22386 5.22386 9 5.5 9C5.77614 9 6 9.22386 6 9.5V10.5C6 10.7761 5.77614 11 5.5 11Z" fill="#353566"/>
<path d="M5 18.5C5 18.7761 5.22386 19 5.5 19C5.77614 19 6 18.7761 6 18.5V17.5C6 17.2239 5.77614 17 5.5 17C5.22386 17 5 17.2239 5 17.5V18.5Z" fill="#353566"/>
<path fill-rule="evenodd" clip-rule="evenodd" d="M6.5 4.5C6.5 2.84315 7.84315 1.5 9.5 1.5H14.5C16.1569 1.5 17.5 2.84315 17.5 4.5V7.5H19.5C21.1569 7.5 22.5 8.84315 22.5 10.5V21.5H23C23.2761 21.5 23.5 21.7239 23.5 22C23.5 22.2761 23.2761 22.5 23 22.5H1C0.723858 22.5 0.5 22.2761 0.5 22C0.5 21.7239 0.723858 21.5 1 21.5H1.5V8.5C1.5 6.84315 2.84315 5.5 4.5 5.5H6.5V4.5ZM2.5 21.5H16.5V4.5C16.5 3.39543 15.6046 2.5 14.5 2.5H9.5C8.39543 2.5 7.5 3.39543 7.5 4.5V5.5C7.5 6.05228 7.05228 6.5 6.5 6.5H4.5C3.39543 6.5 2.5 7.39543 2.5 8.5V21.5ZM19.5 8.5H17.5V21.5H21.5V10.5C21.5 9.39543 20.6046 8.5 19.5 8.5Z" fill="#353566"/>
</svg>
