<svg width="24" height="24" viewBox="0 0 24 24" fill="none" xmlns="http://www.w3.org/2000/svg">
<path opacity="0.4" d="M7.25 2.50098V4.24974C7.25 5.07817 7.92157 5.74974 8.75 5.74974H15.25C16.0784 5.74974 16.75 5.07817 16.75 4.24974V2.50198C17.7127 2.50834 18.36 2.54735 18.935 2.78674C19.847 3.16374 20.587 3.90474 20.964 4.81674C21.25 5.50474 21.25 6.25574 21.25 7.75174V17.6997C21.25 19.4977 21.25 20.3997 20.841 21.2017C20.48 21.9107 19.913 22.4777 19.202 22.8407C18.4 23.2497 17.498 23.2497 15.7 23.2497H8.3C6.502 23.2497 5.6 23.2497 4.798 22.8407C4.088 22.4797 3.521 21.9127 3.159 21.2017C2.75 20.3997 2.75 19.4977 2.75 17.6997V7.74974C2.75 6.25374 2.75 5.50374 3.036 4.81474C3.418 3.88974 4.14 3.16774 5.065 2.78574C5.64016 2.5463 6.28751 2.50732 7.25 2.50098Z" fill="#353566"/>
<path d="M8.75 0.75C7.92157 0.75 7.25 1.42157 7.25 2.25V4.25C7.25 5.07843 7.92157 5.75 8.75 5.75H15.25C16.0784 5.75 16.75 5.07843 16.75 4.25V2.25C16.75 1.42157 16.0784 0.75 15.25 0.75H8.75Z" fill="#353566"/>
<path d="M10.519 8.45856C10.818 8.74518 10.8281 9.21995 10.5414 9.51898L9.26342 10.8523C9.12367 10.9981 8.93102 11.0814 8.72907 11.0833C8.52711 11.0852 8.33292 11.0056 8.19044 10.8625L7.46846 10.1372C7.17624 9.8436 7.17732 9.36873 7.47088 9.07651C7.76444 8.78428 8.23932 8.78537 8.53154 9.07893L8.71184 9.26006L9.45856 8.48102C9.74518 8.18199 10.2199 8.17193 10.519 8.45856Z" fill="#353566"/>
<path d="M12.5 8.8501C12.0858 8.8501 11.75 9.18588 11.75 9.6001C11.75 10.0143 12.0858 10.3501 12.5 10.3501H16C16.4142 10.3501 16.75 10.0143 16.75 9.6001C16.75 9.18588 16.4142 8.8501 16 8.8501H12.5Z" fill="#353566"/>
<path d="M10.519 12.2886C10.818 12.5753 10.8281 13.05 10.5414 13.3491L9.26342 14.6824C9.12367 14.8282 8.93102 14.9115 8.72907 14.9134C8.52711 14.9153 8.33292 14.8357 8.19044 14.6925L7.46846 13.9672C7.17624 13.6737 7.17732 13.1988 7.47088 12.9066C7.76444 12.6144 8.23932 12.6154 8.53154 12.909L8.71184 13.0901L9.45856 12.3111C9.74518 12.0121 10.2199 12.002 10.519 12.2886Z" fill="#353566"/>
<path d="M12.5 12.6802C12.0858 12.6802 11.75 13.016 11.75 13.4302C11.75 13.8444 12.0858 14.1802 12.5 14.1802H16C16.4142 14.1802 16.75 13.8444 16.75 13.4302C16.75 13.016 16.4142 12.6802 16 12.6802H12.5Z" fill="#353566"/>
<path d="M10.519 16.1187C10.818 16.4053 10.8281 16.8801 10.5414 17.1791L9.26342 18.5125C9.12367 18.6583 8.93102 18.7415 8.72907 18.7435C8.52711 18.7454 8.33292 18.6657 8.19044 18.5226L7.46846 17.7973C7.17624 17.5038 7.17732 17.0289 7.47088 16.7367C7.76444 16.4444 8.23932 16.4455 8.53154 16.7391L8.71184 16.9202L9.45856 16.1412C9.74518 15.8421 10.2199 15.8321 10.519 16.1187Z" fill="#353566"/>
<path d="M12.5 16.5098C12.0858 16.5098 11.75 16.8456 11.75 17.2598C11.75 17.674 12.0858 18.0098 12.5 18.0098H16C16.4142 18.0098 16.75 17.674 16.75 17.2598C16.75 16.8456 16.4142 16.5098 16 16.5098H12.5Z" fill="#353566"/>
</svg>
