<svg width="24" height="24" viewBox="0 0 24 24" fill="none" xmlns="http://www.w3.org/2000/svg">
<path opacity="0.4" d="M13.4326 1.25H7.56739C6.61495 1.24999 5.85439 1.24999 5.24013 1.30018C4.61012 1.35165 4.06824 1.45963 3.57054 1.71322C2.77085 2.12068 2.12068 2.77085 1.71322 3.57054C1.45963 4.06824 1.35165 4.61012 1.30018 5.24013C1.24999 5.85439 1.24999 6.61494 1.25 7.56738V16.4326C1.24999 17.3851 1.24999 18.1456 1.30018 18.7599C1.35165 19.3899 1.45963 19.9318 1.71322 20.4295C2.12068 21.2291 2.77085 21.8793 3.57054 22.2868C4.06824 22.5404 4.61012 22.6483 5.24013 22.6998C5.85438 22.75 6.6149 22.75 7.5673 22.75H13.4347C14.4053 22.75 15.1772 22.75 15.7987 22.6966C16.1113 22.6697 16.3741 22.4511 16.4575 22.1486C16.5408 21.8462 16.4271 21.5238 16.1724 21.3405C16.0959 21.2855 16.0197 21.2292 15.9437 21.1716C15.1732 20.5882 15.0215 19.4906 15.605 18.72C15.6807 18.6201 15.7723 18.5233 15.8997 18.3905L15.901 18.3891C15.935 18.3536 15.9719 18.3152 16.0086 18.2761C16.2535 18.0159 16.2808 17.6191 16.0739 17.3278C15.5492 16.5892 15.2501 15.8963 15.2501 15.0817C15.2501 13.666 16.1159 12.5148 17.4443 11.8815C17.6101 11.8024 17.7412 11.6653 17.8126 11.496C18.0908 10.8364 18.5754 10.4035 19.1513 10.2848C19.4999 10.213 19.75 9.90615 19.75 9.55025V7.56737C19.75 6.61496 19.75 5.85438 19.6998 5.24013C19.6483 4.61012 19.5404 4.06824 19.2868 3.57054C18.8793 2.77085 18.2291 2.12068 17.4295 1.71322C16.9318 1.45963 16.3899 1.35165 15.7599 1.30018C15.1456 1.24999 14.3851 1.24999 13.4326 1.25Z" fill="#353566"/>
<path d="M6.5 7.25C6.08579 7.25 5.75 7.58579 5.75 8C5.75 8.41421 6.08579 8.75 6.5 8.75H10.5C10.9142 8.75 11.25 8.41421 11.25 8C11.25 7.58579 10.9142 7.25 10.5 7.25H6.5Z" fill="#353566"/>
<path d="M5.75 12C5.75 11.5858 6.08579 11.25 6.5 11.25H14.5C14.9142 11.25 15.25 11.5858 15.25 12C15.25 12.4142 14.9142 12.75 14.5 12.75H6.5C6.08579 12.75 5.75 12.4142 5.75 12Z" fill="#353566"/>
<path d="M5.75 16C5.75 15.5858 6.08579 15.25 6.5 15.25H14.5L14.5036 15.25C14.525 15.7621 14.6436 16.2293 14.834 16.6717C14.7334 16.7218 14.62 16.75 14.5 16.75H6.5C6.08579 16.75 5.75 16.4142 5.75 16Z" fill="#353566"/>
<path d="M20.25 12C20.25 11.5858 19.9143 11.25 19.5 11.25C19.0858 11.25 18.75 11.5858 18.75 12V12.5548C18.1846 12.6408 17.6689 12.8301 17.2476 13.1352C16.6235 13.5872 16.25 14.267 16.25 15.0817C16.25 16.1332 16.8341 16.7917 17.5087 17.1693C18.1359 17.5204 18.8815 17.6572 19.3767 17.7398C19.8815 17.8239 20.3859 17.9308 20.7587 18.1395C21.0841 18.3217 21.25 18.539 21.25 18.9183C21.25 19.2322 21.1235 19.4682 20.8726 19.6499C20.5993 19.8479 20.1435 20 19.5 20C19.0594 20 18.7858 19.9528 18.5266 19.85C18.2498 19.7402 17.9411 19.5482 17.4528 19.1785C17.1226 18.9284 16.6522 18.9934 16.4021 19.3236C16.1521 19.6539 16.2171 20.1243 16.5473 20.3743C17.059 20.7618 17.5003 21.0566 17.9735 21.2443C18.2316 21.3467 18.4857 21.4121 18.75 21.4511V22C18.75 22.4142 19.0858 22.75 19.5 22.75C19.9143 22.75 20.25 22.4142 20.25 22V21.4452C20.8154 21.3592 21.3312 21.1699 21.7525 20.8648C22.3766 20.4128 22.75 19.7329 22.75 18.9183C22.75 17.8667 22.166 17.2083 21.4914 16.8306C20.8642 16.4795 20.1186 16.3427 19.6233 16.2602C19.1186 16.1761 18.6142 16.0691 18.2414 15.8604C17.916 15.6783 17.75 15.461 17.75 15.0817C17.75 14.7677 17.8766 14.5317 18.1275 14.35C18.4008 14.1521 18.8566 14 19.5 14C19.9407 14 20.2143 14.0471 20.4735 14.15C20.7503 14.2597 21.059 14.4517 21.5473 14.8214C21.8775 15.0715 22.3479 15.0065 22.598 14.6763C22.848 14.346 22.783 13.8756 22.4528 13.6256C21.9411 13.2381 21.4998 12.9433 21.0266 12.7556C20.7685 12.6533 20.5143 12.5879 20.25 12.5489V12Z" fill="#353566"/>
</svg>
