<svg width="24" height="24" viewBox="0 0 24 24" fill="none" xmlns="http://www.w3.org/2000/svg">
<path opacity="0.4" d="M12.4326 1.25H6.56739C5.61495 1.24999 4.85439 1.24999 4.24013 1.30018C3.61012 1.35165 3.06824 1.45963 2.57054 1.71322C1.77085 2.12068 1.12068 2.77085 0.713223 3.57054C0.459634 4.06824 0.35165 4.61012 0.300176 5.24013C0.249989 5.85439 0.249994 6.61494 0.25 7.56738V16.4326C0.249994 17.3851 0.249989 18.1456 0.300176 18.7599C0.35165 19.3899 0.459634 19.9318 0.713223 20.4295C1.12068 21.2291 1.77085 21.8793 2.57054 22.2868C3.06824 22.5404 3.61012 22.6483 4.24013 22.6998C4.85438 22.75 5.6149 22.75 6.5673 22.75H12.4C12.546 22.75 12.6872 22.75 12.8232 22.7498C13.0781 22.7495 13.3154 22.6198 13.4533 22.4054C13.5911 22.191 13.6106 21.9212 13.505 21.6892C13.3425 21.332 13.25 20.9346 13.25 20.4998C13.25 19.4871 13.771 18.6127 14.5359 18.039C15.1171 17.6031 15.8039 17.3942 16.6332 17.2451C16.9905 17.1808 17.2505 16.8699 17.2505 16.5069V13.7089C17.2505 12.7916 17.7049 11.9563 18.4288 11.4519C18.63 11.3117 18.75 11.0819 18.75 10.8366V7.56737C18.75 6.61496 18.75 5.85438 18.6998 5.24013C18.6483 4.61012 18.5404 4.06824 18.2868 3.57054C17.8793 2.77085 17.2291 2.12068 16.4295 1.71322C15.9318 1.45963 15.3899 1.35165 14.7599 1.30018C14.1456 1.24999 13.3851 1.24999 12.4326 1.25Z" fill="#353566"/>
<path d="M8.04144 8.25873C8.32807 7.9597 8.31801 7.48493 8.01898 7.1983C7.71995 6.91168 7.24518 6.92174 6.95856 7.22077L6.21184 7.9998L6.03154 7.81868C5.73932 7.52511 5.26444 7.52403 4.97088 7.81625C4.67732 8.10848 4.67624 8.58335 4.96846 8.87691L5.69044 9.6022C5.83292 9.74533 6.02711 9.82495 6.22907 9.82305C6.43102 9.82114 6.62367 9.73786 6.76342 9.59206L8.04144 8.25873Z" fill="#353566"/>
<path d="M10 7.58972C9.58579 7.58972 9.25 7.92551 9.25 8.33972C9.25 8.75394 9.58579 9.08972 10 9.08972H13.5C13.9142 9.08972 14.25 8.75394 14.25 8.33972C14.25 7.92551 13.9142 7.58972 13.5 7.58972H10Z" fill="#353566"/>
<path d="M10 11.4198C9.58579 11.4198 9.25 11.7556 9.25 12.1698C9.25 12.584 9.58579 12.9198 10 12.9198H13.5C13.9142 12.9198 14.25 12.584 14.25 12.1698C14.25 11.7556 13.9142 11.4198 13.5 11.4198H10Z" fill="#353566"/>
<path d="M8.5 15.9998C8.5 15.5855 8.83579 15.2498 9.25 15.2498H13.5C13.9142 15.2498 14.25 15.5855 14.25 15.9998C14.25 16.414 13.9142 16.7498 13.5 16.7498H9.25C8.83579 16.7498 8.5 16.414 8.5 15.9998Z" fill="#353566"/>
<path d="M8.01898 11.0284C8.31801 11.315 8.32807 11.7898 8.04144 12.0888L6.76342 13.4221C6.62367 13.5679 6.43102 13.6512 6.22907 13.6531C6.02711 13.655 5.83292 13.5754 5.69044 13.4323L4.96846 12.707C4.67624 12.4134 4.67732 11.9386 4.97088 11.6463C5.26444 11.3541 5.73932 11.3552 6.03154 11.6488L6.21184 11.8299L6.95856 11.0508C7.24518 10.7518 7.71995 10.7418 8.01898 11.0284Z" fill="#353566"/>
<path d="M6.5 14.9998C5.94772 14.9998 5.5 15.4475 5.5 15.9998C5.5 16.552 5.94772 16.9998 6.5 16.9998C7.05228 16.9998 7.5001 16.552 7.5001 15.9998C7.5001 15.4475 7.05228 14.9998 6.5 14.9998Z" fill="#353566"/>
<path d="M22.6009 15.2197L19.5005 16.124V20.4907L19.5005 20.4996C19.5005 21.0641 19.2114 21.5879 18.7147 21.9604C18.2232 22.329 17.601 22.4998 17.0003 22.4998C16.3995 22.4998 15.7773 22.329 15.2859 21.9604C14.7891 21.5879 14.5 21.0641 14.5 20.4996C14.5 19.9352 14.7891 19.4114 15.2859 19.0388C15.7773 18.6703 16.3995 18.4995 17.0003 18.4995C17.5167 18.4995 18.049 18.6257 18.5005 18.8953V13.7088C18.5005 13.042 18.9405 12.4553 19.5806 12.2686L22.0609 11.5452C22.7809 11.3352 23.501 11.8752 23.501 12.6253V14.0196C23.501 14.5752 23.1343 15.0641 22.6009 15.2197Z" fill="#353566"/>
</svg>
