<svg width="24" height="24" viewBox="0 0 24 24" fill="none" xmlns="http://www.w3.org/2000/svg">
<path opacity="0.4" d="M12.4326 1.25H6.56739C5.61495 1.24999 4.85439 1.24999 4.24013 1.30018C3.61012 1.35165 3.06824 1.45963 2.57054 1.71322C1.77085 2.12068 1.12068 2.77085 0.713223 3.57054C0.459634 4.06824 0.35165 4.61012 0.300176 5.24013C0.249989 5.85439 0.249994 6.61494 0.25 7.56738V16.4326C0.249994 17.3851 0.249989 18.1456 0.300176 18.7599C0.35165 19.3899 0.459634 19.9318 0.713223 20.4295C1.12068 21.2291 1.77085 21.8793 2.57054 22.2868C3.06824 22.5404 3.61012 22.6483 4.24013 22.6998C4.85438 22.75 5.6149 22.75 6.5673 22.75H11.7546C12.0431 22.75 12.3059 22.5846 12.4308 22.3246C12.5556 22.0645 12.5202 21.756 12.3398 21.5309C11.3447 20.2896 10.75 18.7153 10.75 17C10.75 12.9959 13.9959 9.75 18 9.75C18.4142 9.75 18.75 9.41421 18.75 9V7.56737C18.75 6.61496 18.75 5.85438 18.6998 5.24013C18.6483 4.61012 18.5404 4.06824 18.2868 3.57054C17.8793 2.77085 17.2291 2.12068 16.4295 1.71322C15.9318 1.45963 15.3899 1.35165 14.7599 1.30018C14.1456 1.24999 13.3851 1.24999 12.4326 1.25Z" fill="#353566"/>
<path d="M8.04144 8.01898C8.32807 7.71995 8.31801 7.24518 8.01898 6.95856C7.71995 6.67193 7.24518 6.68199 6.95856 6.98102L6.21184 7.76006L6.03154 7.57893C5.73932 7.28537 5.26444 7.28428 4.97088 7.57651C4.67732 7.86873 4.67624 8.3436 4.96846 8.63716L5.69044 9.36245C5.83292 9.50559 6.02711 9.58521 6.22907 9.5833C6.43102 9.58139 6.62367 9.49812 6.76342 9.35231L8.04144 8.01898Z" fill="#353566"/>
<path d="M10 7.34998C9.58579 7.34998 9.25 7.68576 9.25 8.09998C9.25 8.51419 9.58579 8.84998 10 8.84998H13.5C13.9142 8.84998 14.25 8.51419 14.25 8.09998C14.25 7.68576 13.9142 7.34998 13.5 7.34998H10Z" fill="#353566"/>
<path d="M10 11.1801C9.58579 11.1801 9.25 11.5158 9.25 11.9301C9.25 12.3443 9.58579 12.6801 10 12.6801H11.2655C11.6189 12.1303 12.0377 11.6266 12.5111 11.1801H10Z" fill="#353566"/>
<path d="M10 15.01H10.2495C10.1256 15.4939 10.0459 15.9954 10.0148 16.51H10C9.58579 16.51 9.25 16.1742 9.25 15.76C9.25 15.3458 9.58579 15.01 10 15.01Z" fill="#353566"/>
<path d="M8.01898 10.7886C8.31801 11.0753 8.32807 11.55 8.04144 11.8491L6.76342 13.1824C6.62367 13.3282 6.43102 13.4115 6.22907 13.4134C6.02711 13.4153 5.83292 13.3357 5.69044 13.1925L4.96846 12.4672C4.67624 12.1737 4.67732 11.6988 4.97088 11.4066C5.26444 11.1144 5.73932 11.1154 6.03154 11.409L6.21184 11.5901L6.95856 10.8111C7.24518 10.5121 7.71995 10.502 8.01898 10.7886Z" fill="#353566"/>
<path d="M8.04144 15.679C8.32807 15.38 8.31801 14.9052 8.01898 14.6186C7.71995 14.332 7.24518 14.342 6.95856 14.6411L6.21184 15.4201L6.03154 15.239C5.73932 14.9454 5.26444 14.9443 4.97088 15.2365C4.67732 15.5288 4.67624 16.0036 4.96846 16.2972L5.69044 17.0225C5.83292 17.1656 6.02711 17.2452 6.22907 17.2433C6.43102 17.2414 6.62367 17.1582 6.76342 17.0123L8.04144 15.679Z" fill="#353566"/>
<path fill-rule="evenodd" clip-rule="evenodd" d="M18 11.25C14.8244 11.25 12.25 13.8244 12.25 17C12.25 20.1756 14.8244 22.75 18 22.75C21.1756 22.75 23.75 20.1756 23.75 17C23.75 13.8244 21.1756 11.25 18 11.25ZM15.5581 16.0581C15.314 16.3022 15.314 16.6979 15.5581 16.942C15.8021 17.186 16.1979 17.186 16.4419 16.942L17.375 16.0089V19.5C17.375 19.8452 17.6548 20.125 18 20.125C18.3452 20.125 18.625 19.8452 18.625 19.5V16.0089L19.5581 16.9419C19.8021 17.186 20.1979 17.186 20.442 16.9419C20.686 16.6979 20.686 16.3021 20.442 16.058L18.442 14.0581C18.3248 13.9408 18.1658 13.875 18 13.875C17.8343 13.875 17.6753 13.9408 17.5581 14.0581L15.5581 16.0581Z" fill="#353566"/>
</svg>
