<svg width="24" height="24" viewBox="0 0 24 24" fill="none" xmlns="http://www.w3.org/2000/svg">
<path opacity="0.4" d="M12.4326 1.25H6.56739C5.61495 1.24999 4.85439 1.24999 4.24013 1.30018C3.61012 1.35165 3.06824 1.45963 2.57054 1.71322C1.77085 2.12068 1.12068 2.77085 0.713223 3.57054C0.459634 4.06824 0.35165 4.61012 0.300176 5.24013C0.249989 5.85439 0.249994 6.61494 0.25 7.56738V16.4326C0.249994 17.3851 0.249989 18.1456 0.300176 18.7599C0.35165 19.3899 0.459634 19.9318 0.713223 20.4295C1.12068 21.2291 1.77085 21.8793 2.57054 22.2868C3.06824 22.5404 3.61012 22.6483 4.24013 22.6998C4.85438 22.75 5.6149 22.75 6.5673 22.75H11.7546C12.0431 22.75 12.3059 22.5846 12.4308 22.3246C12.5556 22.0645 12.5202 21.756 12.3398 21.5309C11.3447 20.2896 10.75 18.7153 10.75 17C10.75 12.9959 13.9959 9.75 18 9.75C18.4142 9.75 18.75 9.41421 18.75 9V7.56737C18.75 6.61496 18.75 5.85438 18.6998 5.24013C18.6483 4.61012 18.5404 4.06824 18.2868 3.57054C17.8793 2.77085 17.2291 2.12068 16.4295 1.71322C15.9318 1.45963 15.3899 1.35165 14.7599 1.30018C14.1456 1.24999 13.3851 1.24999 12.4326 1.25Z" fill="#353566"/>
<path d="M5.5 7C4.94772 7 4.5 7.44772 4.5 8C4.5 8.55228 4.94772 9 5.5 9C6.05228 9 6.5001 8.55228 6.5001 8C6.5001 7.44772 6.05228 7 5.5 7Z" fill="#353566"/>
<path d="M8.5 7.25C8.08579 7.25 7.75 7.58579 7.75 8C7.75 8.41421 8.08579 8.75 8.5 8.75H13.5C13.9142 8.75 14.25 8.41421 14.25 8C14.25 7.58579 13.9142 7.25 13.5 7.25H8.5Z" fill="#353566"/>
<path d="M8.5 11.25C8.08579 11.25 7.75 11.5858 7.75 12C7.75 12.4142 8.08579 12.75 8.5 12.75H11.221C11.5655 12.2017 11.9747 11.6981 12.4378 11.25H8.5Z" fill="#353566"/>
<path d="M8.5 15.25H10.192C10.0838 15.7349 10.0196 16.2363 10.0038 16.75H8.5C8.08579 16.75 7.75 16.4142 7.75 16C7.75 15.5858 8.08579 15.25 8.5 15.25Z" fill="#353566"/>
<path d="M4.5 12C4.5 11.4477 4.94772 11 5.5 11C6.05228 11 6.5001 11.4477 6.5001 12C6.5001 12.5523 6.05238 13 5.5001 13C4.94782 13 4.5 12.5523 4.5 12Z" fill="#353566"/>
<path d="M5.5 15C4.94772 15 4.5 15.4477 4.5 16C4.5 16.5523 4.94772 17 5.5 17C6.05228 17 6.5001 16.5523 6.5001 16C6.5001 15.4477 6.05228 15 5.5 15Z" fill="#353566"/>
<path fill-rule="evenodd" clip-rule="evenodd" d="M23.75 17C23.75 13.8244 21.1756 11.25 18 11.25C14.8244 11.25 12.25 13.8244 12.25 17C12.25 20.1756 14.8244 22.75 18 22.75C21.1756 22.75 23.75 20.1756 23.75 17ZM17.125 15.75C17.125 15.2668 17.5168 14.875 18 14.875C18.4832 14.875 18.875 15.2668 18.875 15.75C18.875 15.9942 18.7758 16.2141 18.6138 16.3736C18.5217 16.4643 18.44 16.5152 18.3098 16.5963C18.2733 16.6191 18.233 16.6442 18.1875 16.6733C17.9891 16.8001 17.7329 16.9845 17.5481 17.3306C17.3855 17.635 17.5005 18.0137 17.8049 18.1763C18.1094 18.3389 18.4881 18.2239 18.6507 17.9194C18.6851 17.855 18.7268 17.8121 18.8608 17.7264C18.8805 17.7139 18.9037 17.6996 18.9297 17.6836C19.0689 17.5981 19.2895 17.4625 19.4908 17.2643C19.8816 16.8796 20.125 16.3427 20.125 15.75C20.125 14.5764 19.1736 13.625 18 13.625C16.8264 13.625 15.875 14.5764 15.875 15.75C15.875 16.0952 16.1548 16.375 16.5 16.375C16.8452 16.375 17.125 16.0952 17.125 15.75ZM18 18.75C17.5858 18.75 17.25 19.0858 17.25 19.5C17.25 19.9142 17.5858 20.25 18 20.25C18.4142 20.25 18.7501 19.9142 18.7501 19.5C18.7501 19.0858 18.4142 18.75 18 18.75Z" fill="#353566"/>
</svg>
