<svg width="24" height="24" viewBox="0 0 24 24" fill="none" xmlns="http://www.w3.org/2000/svg">
<g clip-path="url(#clip0_9001_299985)">
<path opacity="0.4" d="M12 0.5C7.85786 0.5 4.5 3.85786 4.5 8C4.5 8.17659 4.50611 8.35183 4.51814 8.5255C2.25944 8.76594 0.5 10.6775 0.5 13C0.5 15.4853 2.51472 17.5 5 17.5H18C21.0376 17.5 23.5 15.0376 23.5 12C23.5 9.43989 21.7513 7.28919 19.3833 6.67556C18.7576 3.16494 15.6904 0.5 12 0.5Z" fill="#353566"/>
<path d="M5.5 8C5.5 4.41015 8.41015 1.5 12 1.5C15.3026 1.5 18.0306 3.9635 18.4454 7.15293C18.4732 7.36712 18.6355 7.5392 18.8476 7.57962C20.9277 7.97582 22.5 9.80483 22.5 12C22.5 14.4853 20.4853 16.5 18 16.5H15.5C15.2239 16.5 15 16.7239 15 17C15 17.2761 15.2239 17.5 15.5 17.5H18C21.0376 17.5 23.5 15.0376 23.5 12C23.5 9.43989 21.7513 7.28919 19.3833 6.67556C18.7576 3.16494 15.6904 0.5 12 0.5C7.85786 0.5 4.5 3.85786 4.5 8C4.5 8.17659 4.50611 8.35183 4.51814 8.5255C2.25944 8.76594 0.5 10.6775 0.5 13C0.5 15.4853 2.51472 17.5 5 17.5H8.5C8.77614 17.5 9 17.2761 9 17C9 16.7239 8.77614 16.5 8.5 16.5H5C3.067 16.5 1.5 14.933 1.5 13C1.5 11.067 3.067 9.5 5 9.5C5.02074 9.5 5.0415 9.50018 5.06227 9.50055C5.20874 9.5031 5.34896 9.44129 5.44588 9.33145C5.54281 9.22161 5.58669 9.07479 5.56593 8.92978C5.52251 8.62637 5.5 8.31596 5.5 8Z" fill="#353566"/>
<path d="M8.39645 13.6036C8.59171 13.7988 8.90829 13.7988 9.10355 13.6036L11.5 11.2071V23C11.5 23.2761 11.7239 23.5 12 23.5C12.2761 23.5 12.5 23.2761 12.5 23V11.2071L14.8964 13.6036C15.0917 13.7988 15.4083 13.7988 15.6036 13.6036C15.7988 13.4083 15.7988 13.0917 15.6036 12.8964L12.3536 9.64645C12.1583 9.45118 11.8417 9.45118 11.6464 9.64645L8.39645 12.8964C8.20118 13.0917 8.20118 13.4083 8.39645 13.6036Z" fill="#353566"/>
</g>
<defs>
<clipPath id="clip0_9001_299985">
<rect width="24" height="24" fill="white"/>
</clipPath>
</defs>
</svg>
