<svg width="24" height="24" viewBox="0 0 24 24" fill="none" xmlns="http://www.w3.org/2000/svg">
<path opacity="0.4" fill-rule="evenodd" clip-rule="evenodd" d="M5 20C2.79086 20 1 18.2091 1 16C1 13.7909 2.79086 12 5 12C5.02371 12 5.04737 12.0002 5.07098 12.0006C5.0242 11.6738 5 11.3397 5 11C5 7.13401 8.13401 4 12 4C15.5571 4 18.4944 6.65314 18.9412 10.0884C21.2527 10.5287 23 12.5603 23 15C23 17.7614 20.7614 20 18 20H5ZM14.417 11.333C15.1073 11.333 15.667 10.7734 15.667 10.083C15.667 9.39265 15.1073 8.83301 14.417 8.83301C13.7266 8.83301 13.167 9.39265 13.167 10.083C13.167 10.7734 13.7266 11.333 14.417 11.333ZM14.417 17.166C15.1073 17.166 15.667 16.6064 15.667 15.916C15.667 15.2257 15.1073 14.666 14.417 14.666C13.7266 14.666 13.167 15.2257 13.167 15.916C13.167 16.6064 13.7266 17.166 14.417 17.166ZM9.83325 13C9.83325 13.6904 9.27361 14.25 8.58325 14.25C7.8929 14.25 7.33325 13.6904 7.33325 13C7.33325 12.3096 7.8929 11.75 8.58325 11.75C9.27361 11.75 9.83325 12.3096 9.83325 13Z" fill="#353566"/>
<path fill-rule="evenodd" clip-rule="evenodd" d="M8.58337 11.25C7.61687 11.25 6.83337 12.0335 6.83337 13C6.83337 13.9665 7.61687 14.75 8.58337 14.75C9.01539 14.75 9.41084 14.5935 9.7161 14.334L12.6703 15.8111C12.6682 15.846 12.6671 15.8813 12.6671 15.9167C12.6671 16.8832 13.4506 17.6667 14.4171 17.6667C15.3836 17.6667 16.1671 16.8832 16.1671 15.9167C16.1671 14.9502 15.3836 14.1667 14.4171 14.1667C13.8447 14.1667 13.3365 14.4416 13.0172 14.8665L10.2639 13.4899C10.3091 13.3344 10.3334 13.17 10.3334 13C10.3334 12.83 10.3091 12.6656 10.2639 12.5101L13.0172 11.1335C13.3365 11.5584 13.8447 11.8332 14.4171 11.8332C15.3836 11.8332 16.1671 11.0497 16.1671 10.0833C16.1671 9.11675 15.3836 8.33325 14.4171 8.33325C13.4506 8.33325 12.6671 9.11675 12.6671 10.0833C12.6671 10.1187 12.6682 10.154 12.6703 10.1889L9.7161 11.666C9.41084 11.4065 9.01539 11.25 8.58337 11.25ZM7.83337 13C7.83337 12.5858 8.16916 12.25 8.58337 12.25C8.99759 12.25 9.33337 12.5858 9.33337 13C9.33337 13.4142 8.99759 13.75 8.58337 13.75C8.16916 13.75 7.83337 13.4142 7.83337 13ZM14.4171 9.33325C14.0029 9.33325 13.6671 9.66904 13.6671 10.0833C13.6671 10.4975 14.0029 10.8332 14.4171 10.8332C14.8313 10.8332 15.1671 10.4975 15.1671 10.0833C15.1671 9.66904 14.8313 9.33325 14.4171 9.33325ZM13.6671 15.9167C13.6671 15.5025 14.0029 15.1667 14.4171 15.1667C14.8313 15.1667 15.1671 15.5025 15.1671 15.9167C15.1671 16.331 14.8313 16.6667 14.4171 16.6667C14.0029 16.6667 13.6671 16.331 13.6671 15.9167Z" fill="#353566"/>
<path fill-rule="evenodd" clip-rule="evenodd" d="M12 3.5C7.85786 3.5 4.5 6.85786 4.5 11C4.5 11.1766 4.50611 11.3518 4.51814 11.5255C2.25944 11.7659 0.5 13.6775 0.5 16C0.5 18.4853 2.51472 20.5 5 20.5H18C21.0376 20.5 23.5 18.0376 23.5 15C23.5 12.4399 21.7513 10.2892 19.3833 9.67556C18.7576 6.16494 15.6904 3.5 12 3.5ZM5.5 11C5.5 7.41015 8.41015 4.5 12 4.5C15.3026 4.5 18.0306 6.9635 18.4454 10.1529C18.4732 10.3671 18.6355 10.5392 18.8476 10.5796C20.9277 10.9758 22.5 12.8048 22.5 15C22.5 17.4853 20.4853 19.5 18 19.5H5C3.067 19.5 1.5 17.933 1.5 16C1.5 14.067 3.067 12.5 5 12.5C5.02074 12.5 5.0415 12.5002 5.06227 12.5005C5.20874 12.5031 5.34896 12.4413 5.44588 12.3314C5.54281 12.2216 5.58669 12.0748 5.56593 11.9298C5.52251 11.6264 5.5 11.316 5.5 11Z" fill="#353566"/>
</svg>
