<svg width="24" height="24" viewBox="0 0 24 24" fill="none" xmlns="http://www.w3.org/2000/svg">
<path opacity="0.4" fill-rule="evenodd" clip-rule="evenodd" d="M13.5 6.5V2.08547C13.4632 2.07434 13.426 2.06426 13.3885 2.05526C13.1583 2 12.9137 2 12.4245 2H8.8C7.11984 2 6.27976 2 5.63803 2.32698C5.07354 2.6146 4.6146 3.07354 4.32698 3.63803C4 4.27976 4 5.11984 4 6.8V17.2C4 18.8802 4 19.7202 4.32698 20.362C4.6146 20.9265 5.07354 21.3854 5.63803 21.673C6.27976 22 7.11984 22 8.8 22H15.2C16.8802 22 17.7202 22 18.362 21.673C18.9265 21.3854 19.3854 20.9265 19.673 20.362C20 19.7202 20 18.8802 20 17.2V9.57548C20 9.0863 20 8.84171 19.9447 8.61154C19.9357 8.57404 19.9257 8.53685 19.9145 8.5H15.5C14.3954 8.5 13.5 7.60457 13.5 6.5ZM8.87261 15.3799H10.6597C10.9064 15.3799 11.1065 15.5768 11.1065 15.8197V18.4594C11.1065 18.8751 11.6384 19.0587 11.9022 18.734L15.4763 14.3345C15.7103 14.0466 15.502 13.6201 15.1274 13.6201H13.3403C13.0936 13.6201 12.8935 13.4232 12.8935 13.1803V10.5406C12.8935 10.1249 12.3616 9.94129 12.0978 10.266L8.52368 14.6655C8.28975 14.9534 8.49803 15.3799 8.87261 15.3799Z" fill="#353566"/>
<path fill-rule="evenodd" clip-rule="evenodd" d="M13.4435 10.5407C13.4435 9.58791 12.2491 9.20754 11.671 9.91922L8.09679 14.3187C7.56005 14.9794 8.05213 15.9299 8.87261 15.9299H10.5564V18.4594C10.5564 19.4122 11.7509 19.7925 12.329 19.0808L15.9032 14.6813C16.4399 14.0207 15.9479 13.0701 15.1274 13.0701H13.4435V10.5407ZM9.09873 14.8299L12.3435 10.8358V13.1804C12.3435 13.7352 12.798 14.1701 13.3403 14.1701H14.9013L11.6564 18.1642V15.8197C11.6564 15.2649 11.2019 14.8299 10.6597 14.8299H9.09873Z" fill="#353566"/>
<path fill-rule="evenodd" clip-rule="evenodd" d="M12.8068 1.50002C13.1243 1.49986 13.3642 1.49975 13.5956 1.55529C13.7996 1.60429 13.9947 1.68509 14.1737 1.79475C14.3765 1.91906 14.5461 2.08878 14.7705 2.31339L19.6866 7.22954C19.9113 7.45394 20.081 7.62349 20.2053 7.82635C20.3149 8.0053 20.3957 8.20039 20.4447 8.40446C20.5003 8.63581 20.5002 8.8757 20.5 9.1932L20.5 17.2222C20.5 18.0435 20.5 18.6905 20.4575 19.2111C20.4141 19.7423 20.3239 20.1859 20.1185 20.589C19.783 21.2476 19.2475 21.783 18.589 22.1186C18.1859 22.3239 17.7423 22.4141 17.2111 22.4575C16.6905 22.5 16.0435 22.5 15.2222 22.5H8.77778C7.95651 22.5 7.30954 22.5 6.78889 22.4575C6.25771 22.4141 5.81413 22.3239 5.41103 22.1186C4.75247 21.783 4.21703 21.2476 3.88148 20.589C3.67609 20.1859 3.58593 19.7423 3.54253 19.2111C3.49999 18.6905 3.5 18.0435 3.5 17.2222V6.77783C3.5 5.95656 3.49999 5.30957 3.54253 4.78892C3.58593 4.25774 3.67609 3.81417 3.88148 3.41106C4.21703 2.7525 4.75247 2.21707 5.41103 1.88151C5.81413 1.67612 6.25771 1.58596 6.78889 1.54256C7.30954 1.50003 7.95652 1.50003 8.77779 1.50003L12.8068 1.50002ZM12.7559 2.50003C12.853 2.50003 12.933 2.50023 13 2.5009V6.5C13 7.88071 14.1193 9 15.5 9H19.4991C19.4998 9.06698 19.5 9.147 19.5 9.24414V17.2C19.5 18.0484 19.4996 18.6545 19.4608 19.1297C19.4224 19.599 19.3491 19.8964 19.2275 20.135C18.9878 20.6054 18.6054 20.9879 18.135 21.2275C17.8963 21.3491 17.599 21.4225 17.1297 21.4608C16.6545 21.4996 16.0483 21.5 15.2 21.5H8.8C7.95167 21.5 7.34549 21.4996 6.87032 21.4608C6.40099 21.4225 6.10366 21.3491 5.86502 21.2275C5.39462 20.9879 5.01217 20.6054 4.77248 20.135C4.65089 19.8964 4.57756 19.599 4.53921 19.1297C4.50039 18.6545 4.5 18.0484 4.5 17.2V6.80003C4.5 5.9517 4.50039 5.34553 4.53921 4.87035C4.57756 4.40102 4.65089 4.10369 4.77248 3.86506C5.01217 3.39465 5.39462 3.0122 5.86502 2.77252C6.10366 2.65093 6.40099 2.57759 6.87032 2.53924C7.34549 2.50042 7.95167 2.50003 8.8 2.50003H12.7559ZM18.9435 7.90064L19.0426 8H15.5C14.6716 8 14 7.32843 14 6.5V2.95743L14.0994 3.05653L18.9435 7.90064Z" fill="#353566"/>
</svg>
