<svg width="24" height="24" viewBox="0 0 24 24" fill="none" xmlns="http://www.w3.org/2000/svg">
<path opacity="0.4" d="M10.5 6.5V2.08547C10.4632 2.07434 10.426 2.06426 10.3885 2.05526C10.1583 2 9.9137 2 9.42452 2H5.8C4.11984 2 3.27976 2 2.63803 2.32698C2.07354 2.6146 1.6146 3.07354 1.32698 3.63803C1 4.27976 1 5.11984 1 6.8V17.2C1 18.8802 1 19.7202 1.32698 20.362C1.6146 20.9265 2.07354 21.3854 2.63803 21.673C3.27976 22 4.11984 22 5.8 22H12.2C12.8565 22 13.3848 22 13.8231 21.9805C12.4028 20.7881 11.5 18.9995 11.5 17C11.5 13.7502 13.8849 11.0575 17 10.5764V9.57548C17 9.0863 17 8.84171 16.9447 8.61154C16.9357 8.57404 16.9257 8.53685 16.9145 8.5H12.5C11.3954 8.5 10.5 7.60457 10.5 6.5Z" fill="#353566"/>
<path fill-rule="evenodd" clip-rule="evenodd" d="M10 2.5009C9.93303 2.50023 9.85301 2.50003 9.75589 2.50003H5.8C4.95167 2.50003 4.34549 2.50042 3.87032 2.53924C3.40099 2.57759 3.10366 2.65093 2.86502 2.77252C2.39462 3.0122 2.01217 3.39465 1.77248 3.86506C1.65089 4.10369 1.57756 4.40102 1.53921 4.87035C1.50039 5.34553 1.5 5.9517 1.5 6.80003V17.2C1.5 18.0484 1.50039 18.6545 1.53921 19.1297C1.57756 19.599 1.65089 19.8964 1.77248 20.135C2.01217 20.6054 2.39462 20.9879 2.86502 21.2275C3.10366 21.3491 3.40099 21.4225 3.87032 21.4608C4.34549 21.4996 4.95167 21.5 5.8 21.5H12.2C12.6242 21.5 12.9878 21.4999 13.3048 21.495C13.644 21.8493 14.023 22.1652 14.4345 22.4357C14.3618 22.4441 14.2873 22.4513 14.2111 22.4575C13.6905 22.5 13.0435 22.5 12.2222 22.5H5.77778C4.95651 22.5 4.30954 22.5 3.78889 22.4575C3.25771 22.4141 2.81413 22.3239 2.41103 22.1186C1.75247 21.783 1.21703 21.2476 0.881478 20.589C0.676087 20.1859 0.585932 19.7423 0.542534 19.2111C0.499995 18.6905 0.499997 18.0435 0.5 17.2223V6.77783C0.499997 5.95656 0.499995 5.30957 0.542534 4.78892C0.585932 4.25774 0.676087 3.81417 0.881478 3.41106C1.21703 2.7525 1.75247 2.21707 2.41103 1.88151C2.81413 1.67612 3.25771 1.58596 3.78889 1.54256C4.30954 1.50003 4.95652 1.50003 5.77779 1.50003L9.80683 1.50002C10.1243 1.49986 10.3642 1.49975 10.5956 1.55529C10.7996 1.60429 10.9947 1.68509 11.1737 1.79475C11.3765 1.91906 11.5461 2.08878 11.7705 2.31339L16.6866 7.22954C16.9113 7.45394 17.081 7.62349 17.2053 7.82635C17.3149 8.0053 17.3957 8.20039 17.4447 8.40446C17.5003 8.63581 17.5002 8.8757 17.5 9.1932L17.5 10.5189C17.1586 10.5449 16.8246 10.5973 16.5 10.6739V9.24414C16.5 9.14702 16.4998 9.067 16.4991 9.00003H12.5C11.1193 9.00003 10 7.88074 10 6.50003V2.5009ZM16.0426 8.00003L15.9435 7.90064L11.0994 3.05653L11 2.95743V6.50003C11 7.32846 11.6716 8.00003 12.5 8.00003H16.0426Z" fill="#353566"/>
<path d="M20.3536 15.3964C20.5488 15.5917 20.5488 15.9083 20.3536 16.1036L17.8536 18.6036C17.7595 18.6976 17.6319 18.7503 17.499 18.75C17.366 18.7497 17.2386 18.6965 17.145 18.6021L15.645 17.0898C15.4505 16.8937 15.4518 16.5771 15.6479 16.3827C15.844 16.1882 16.1605 16.1895 16.355 16.3856L17.5015 17.5414L19.6464 15.3964C19.8417 15.2012 20.1583 15.2012 20.3536 15.3964Z" fill="#353566"/>
<path fill-rule="evenodd" clip-rule="evenodd" d="M12.5 17C12.5 13.9624 14.9624 11.5 18 11.5C21.0376 11.5 23.5 13.9624 23.5 17C23.5 20.0376 21.0376 22.5 18 22.5C14.9624 22.5 12.5 20.0376 12.5 17ZM18 12.5C15.5147 12.5 13.5 14.5147 13.5 17C13.5 19.4853 15.5147 21.5 18 21.5C20.4853 21.5 22.5 19.4853 22.5 17C22.5 14.5147 20.4853 12.5 18 12.5Z" fill="#353566"/>
</svg>
