<svg width="24" height="24" viewBox="0 0 24 24" fill="none" xmlns="http://www.w3.org/2000/svg">
<path opacity="0.4" fill-rule="evenodd" clip-rule="evenodd" d="M13.5 6.5V2.08547C13.4632 2.07434 13.426 2.06426 13.3885 2.05526C13.1583 2 12.9137 2 12.4245 2H8.8C7.11984 2 6.27976 2 5.63803 2.32698C5.07354 2.6146 4.6146 3.07354 4.32698 3.63803C4 4.27976 4 5.11984 4 6.8V17.2C4 18.8802 4 19.7202 4.32698 20.362C4.6146 20.9265 5.07354 21.3854 5.63803 21.673C6.27976 22 7.11984 22 8.8 22H15.2C16.8802 22 17.7202 22 18.362 21.673C18.9265 21.3854 19.3854 20.9265 19.673 20.362C20 19.7202 20 18.8802 20 17.2V9.57548C20 9.0863 20 8.84171 19.9447 8.61154C19.9357 8.57404 19.9257 8.53685 19.9145 8.5H15.5C14.3954 8.5 13.5 7.60457 13.5 6.5ZM11.3 17.1C13.1225 17.1 14.6 15.6225 14.6 13.8C14.6 11.9775 13.1225 10.5 11.3 10.5C9.47746 10.5 8 11.9775 8 13.8C8 15.6225 9.47746 17.1 11.3 17.1Z" fill="#353566"/>
<path fill-rule="evenodd" clip-rule="evenodd" d="M7.5 13.8C7.5 11.7013 9.20132 10 11.3 10C13.3987 10 15.1 11.7013 15.1 13.8C15.1 14.6691 14.8082 15.47 14.3173 16.1102L16.3535 18.1465C16.5488 18.3418 16.5488 18.6583 16.3535 18.8536C16.1583 19.0489 15.8417 19.0489 15.6464 18.8536L13.6102 16.8174C12.97 17.3083 12.1691 17.6 11.3 17.6C9.20132 17.6 7.5 15.8987 7.5 13.8ZM11.3 11C9.7536 11 8.5 12.2536 8.5 13.8C8.5 15.3464 9.7536 16.6 11.3 16.6C12.8464 16.6 14.1 15.3464 14.1 13.8C14.1 12.2536 12.8464 11 11.3 11Z" fill="#353566"/>
<path fill-rule="evenodd" clip-rule="evenodd" d="M13.5956 1.55529C13.3642 1.49975 13.1243 1.49986 12.8068 1.50002L8.77779 1.50003C7.95652 1.50003 7.30954 1.50003 6.78889 1.54256C6.25771 1.58596 5.81413 1.67612 5.41103 1.88151C4.75247 2.21707 4.21703 2.7525 3.88148 3.41106C3.67609 3.81417 3.58593 4.25774 3.54253 4.78892C3.49999 5.30957 3.5 5.95655 3.5 6.77781V17.2222C3.5 18.0435 3.49999 18.6905 3.54253 19.2111C3.58593 19.7423 3.67609 20.1859 3.88148 20.589C4.21703 21.2476 4.75247 21.783 5.41103 22.1186C5.81413 22.3239 6.25771 22.4141 6.78889 22.4575C7.30954 22.5 7.95651 22.5 8.77778 22.5H15.2222C16.0435 22.5 16.6905 22.5 17.2111 22.4575C17.7423 22.4141 18.1859 22.3239 18.589 22.1186C19.2475 21.783 19.783 21.2476 20.1185 20.589C20.3239 20.1859 20.4141 19.7423 20.4575 19.2111C20.5 18.6905 20.5 18.0435 20.5 17.2222L20.5 9.1932C20.5002 8.8757 20.5003 8.63581 20.4447 8.40446C20.3957 8.20039 20.3149 8.0053 20.2053 7.82635C20.081 7.62349 19.9113 7.45394 19.6866 7.22954L14.7705 2.31339C14.5461 2.08878 14.3765 1.91906 14.1737 1.79475C13.9947 1.68509 13.7996 1.60429 13.5956 1.55529ZM13 2.5009C12.933 2.50023 12.853 2.50003 12.7559 2.50003H8.8C7.95167 2.50003 7.34549 2.50042 6.87032 2.53924C6.40099 2.57759 6.10366 2.65093 5.86502 2.77252C5.39462 3.0122 5.01217 3.39465 4.77248 3.86506C4.65089 4.10369 4.57756 4.40102 4.53921 4.87035C4.50039 5.34553 4.5 5.9517 4.5 6.80003V17.2C4.5 18.0484 4.50039 18.6545 4.53921 19.1297C4.57756 19.599 4.65089 19.8964 4.77248 20.135C5.01217 20.6054 5.39462 20.9879 5.86502 21.2275C6.10366 21.3491 6.40099 21.4225 6.87032 21.4608C7.34549 21.4996 7.95167 21.5 8.8 21.5H15.2C16.0483 21.5 16.6545 21.4996 17.1297 21.4608C17.599 21.4225 17.8963 21.3491 18.135 21.2275C18.6054 20.9879 18.9878 20.6054 19.2275 20.135C19.3491 19.8964 19.4224 19.599 19.4608 19.1297C19.4996 18.6545 19.5 18.0484 19.5 17.2V9.24414C19.5 9.147 19.4998 9.06698 19.4991 9H15.5C14.1193 9 13 7.88071 13 6.5V2.5009ZM19.0426 8L18.9435 7.90064L14.0994 3.05653L14 2.95743V6.5C14 7.32843 14.6716 8 15.5 8H19.0426Z" fill="#353566"/>
</svg>
