<svg width="24" height="24" viewBox="0 0 24 24" fill="none" xmlns="http://www.w3.org/2000/svg">
<path fill-rule="evenodd" clip-rule="evenodd" d="M11.87 11.7679C10.9138 11.1146 9.5 11.7296 9.5 12.9537V17.046C9.5 18.2701 10.9138 18.8851 11.87 18.2318L14.8649 16.1857C15.7117 15.6072 15.7117 14.3925 14.8649 13.814L11.87 11.7679ZM10.5 12.9537C10.5 12.626 10.9357 12.3406 11.3059 12.5936L14.3008 14.6397C14.5664 14.8211 14.5664 15.1785 14.3008 15.36L11.3059 17.4061C10.9357 17.659 10.5 17.3737 10.5 17.046V12.9537Z" fill="#353566"/>
<path fill-rule="evenodd" clip-rule="evenodd" d="M16.9224 2.5C17.8835 2.5 18.6355 2.49999 19.2395 2.54935C19.8541 2.59956 20.3594 2.70334 20.816 2.93597C21.5686 3.31947 22.1805 3.93139 22.564 4.68404C22.7967 5.14062 22.9004 5.64594 22.9507 6.26049C23 6.86451 23 7.61646 23 8.57754V15.4225C23 16.3835 23 17.1355 22.9507 17.7395C22.9004 18.3541 22.7967 18.8594 22.564 19.316C22.1805 20.0686 21.5686 20.6805 20.816 21.064C20.3594 21.2967 19.8541 21.4004 19.2395 21.4507C18.6355 21.5 17.8835 21.5 16.9225 21.5H7.07754C6.11646 21.5 5.36451 21.5 4.76049 21.4507C4.14594 21.4004 3.64062 21.2967 3.18404 21.064C2.43139 20.6805 1.81947 20.0686 1.43597 19.316C1.20334 18.8594 1.09956 18.3541 1.04935 17.7395C0.999995 17.1355 0.999997 16.3835 1 15.4225V8.57756C0.999997 7.61647 0.999995 6.86451 1.04935 6.26049C1.09956 5.64594 1.20334 5.14062 1.43597 4.68404C1.81947 3.93139 2.43139 3.31947 3.18404 2.93597C3.64062 2.70334 4.14594 2.59956 4.76049 2.54935C5.36451 2.49999 6.11646 2.5 7.07755 2.5H16.9224ZM9.61044 3.5H16.0563L14.3897 8.5H7.94377L9.61044 3.5ZM17.1104 3.50002L15.4438 8.5H22C21.9999 7.5634 21.9981 6.88145 21.954 6.34192C21.9088 5.78921 21.8219 5.43014 21.673 5.13803C21.3854 4.57354 20.9265 4.1146 20.362 3.82698C20.0699 3.67814 19.7108 3.59118 19.1581 3.54602C18.64 3.50369 17.9906 3.50029 17.1104 3.50002ZM14.7665 9.5C14.7556 9.50036 14.7447 9.50036 14.7337 9.5H7.26649C7.25559 9.50036 7.24465 9.50036 7.23368 9.5H2V15.4C2 16.3883 2.00039 17.0995 2.04602 17.6581C2.09118 18.2108 2.17814 18.5699 2.32698 18.862C2.6146 19.4265 3.07354 19.8854 3.63803 20.173C3.93014 20.3219 4.28921 20.4088 4.84192 20.454C5.40047 20.4996 6.11166 20.5 7.1 20.5H16.9C17.8883 20.5 18.5995 20.4996 19.1581 20.454C19.7108 20.4088 20.0699 20.3219 20.362 20.173C20.9265 19.8854 21.3854 19.4265 21.673 18.862C21.8219 18.5699 21.9088 18.2108 21.954 17.6581C21.9996 17.0995 22 16.3883 22 15.4V9.5H14.7665ZM8.55635 3.5H7.1C6.11166 3.5 5.40047 3.50039 4.84192 3.54602C4.28921 3.59118 3.93014 3.67814 3.63803 3.82698C3.07354 4.1146 2.6146 4.57354 2.32698 5.13803C2.17814 5.43014 2.09118 5.78921 2.04602 6.34192C2.00194 6.88145 2.00008 7.5634 2 8.5H6.88968L8.55635 3.5Z" fill="#353566"/>
</svg>
