<svg width="24" height="24" viewBox="0 0 24 24" fill="none" xmlns="http://www.w3.org/2000/svg">
<path fill-rule="evenodd" clip-rule="evenodd" d="M5 7.5C5 6.39543 5.89543 5.5 7 5.5C8.10457 5.5 9 6.39543 9 7.5C9 8.60457 8.10457 9.5 7 9.5C5.89543 9.5 5 8.60457 5 7.5ZM7 6.5C6.44772 6.5 6 6.94772 6 7.5C6 8.05228 6.44772 8.5 7 8.5C7.55228 8.5 8 8.05228 8 7.5C8 6.94772 7.55228 6.5 7 6.5Z" fill="#353566"/>
<path fill-rule="evenodd" clip-rule="evenodd" d="M6.57755 1.5H16.4224C17.3835 1.5 18.1355 1.49999 18.7395 1.54935C19.3541 1.59956 19.8594 1.70334 20.316 1.93597C21.0686 2.31947 21.6805 2.93139 22.064 3.68404C22.2967 4.14062 22.4004 4.64594 22.4507 5.26049C22.5 5.86451 22.5 6.61646 22.5 7.57754V13.3924C22.5 13.6686 22.2761 13.8924 22 13.8924C21.9119 13.8924 21.8291 13.8696 21.7572 13.8296C21.6653 13.8104 21.5777 13.7652 21.5064 13.6938L16.3536 8.54098C16.1583 8.34572 15.8417 8.34572 15.6465 8.54097L9.35277 14.8344C9.259 14.9282 9.13181 14.9808 8.99919 14.9808C8.86658 14.9808 8.7394 14.9281 8.64563 14.8343L6.87267 13.0609C6.6774 12.8656 6.36076 12.8656 6.16549 13.0609L2.02771 17.1994C2.30974 17.6097 2.69075 17.9451 3.13803 18.173C3.43014 18.3219 3.78921 18.4088 4.34192 18.454C4.90047 18.4996 5.61166 18.5 6.6 18.5H11.3481C11.6242 18.5 11.8481 18.7239 11.8481 19C11.8481 19.2761 11.6242 19.5 11.3481 19.5H6.57754C5.61646 19.5 4.86451 19.5 4.26049 19.4507C3.64594 19.4004 3.14062 19.2967 2.68404 19.064C1.94507 18.6875 1.34177 18.0908 0.957119 17.3569L0.953205 17.3494L0.935974 17.316C0.703335 16.8594 0.599556 16.3541 0.549345 15.7395C0.499995 15.1355 0.499997 14.3835 0.5 13.4225V7.57756C0.499997 6.61647 0.499995 5.86451 0.549345 5.26049C0.599556 4.64594 0.703335 4.14062 0.935974 3.68404C1.31947 2.93139 1.93139 2.31947 2.68404 1.93597C3.14062 1.70334 3.64594 1.59956 4.26049 1.54935C4.86451 1.49999 5.61647 1.5 6.57755 1.5ZM1.61433 16.1985L5.45833 12.3539C6.04415 11.768 6.99406 11.768 7.57986 12.3539L8.99928 13.7737L14.9394 7.83385C15.5252 7.24808 16.4749 7.24809 17.0607 7.83387L21.5 12.2732V7.6C21.5 6.61166 21.4996 5.90047 21.454 5.34192C21.4088 4.78921 21.3219 4.43014 21.173 4.13803C20.8854 3.57354 20.4265 3.1146 19.862 2.82698C19.5699 2.67814 19.2108 2.59118 18.6581 2.54602C18.0995 2.50039 17.3883 2.5 16.4 2.5H6.6C5.61166 2.5 4.90047 2.50039 4.34192 2.54602C3.78921 2.59118 3.43014 2.67814 3.13803 2.82698C2.57354 3.1146 2.1146 3.57354 1.82698 4.13803C1.67814 4.43014 1.59118 4.78921 1.54602 5.34192C1.50039 5.90047 1.5 6.61166 1.5 7.6V13.4C1.5 14.3883 1.50039 15.0995 1.54602 15.6581C1.56273 15.8626 1.58516 16.0406 1.61433 16.1985Z" fill="#353566"/>
<path d="M14.1769 17.7526C15.2901 16.7184 16.7804 16.0867 18.4193 16.0867C20.0588 16.0867 21.5496 16.7188 22.6629 17.7536C22.8651 17.9416 23.1815 17.9301 23.3695 17.7278C23.5575 17.5256 23.5459 17.2092 23.3437 17.0212C22.0527 15.8212 20.3212 15.0867 18.4193 15.0867C16.5181 15.0867 14.7871 15.8207 13.4963 17.02C13.294 17.2079 13.2823 17.5243 13.4703 17.7266C13.6583 17.9289 13.9746 17.9406 14.1769 17.7526Z" fill="#353566"/>
<path d="M18.4229 19.1423C17.6491 19.1423 16.9435 19.4687 16.4239 20.0078C16.2322 20.2067 15.9157 20.2125 15.7169 20.0209C15.518 19.8292 15.5122 19.5127 15.7038 19.3139C16.3984 18.5932 17.3586 18.1423 18.4229 18.1423C19.4872 18.1423 20.4475 18.5932 21.142 19.3139C21.3336 19.5127 21.3278 19.8292 21.129 20.0209C20.9301 20.2125 20.6136 20.2067 20.422 20.0078C19.9024 19.4687 19.1967 19.1423 18.4229 19.1423Z" fill="#353566"/>
<path d="M18.4199 20.6699C17.9367 20.6699 17.5449 21.0617 17.5449 21.5449C17.5449 22.0282 17.9367 22.4199 18.4199 22.4199C18.9032 22.4199 19.295 22.0282 19.295 21.5449C19.295 21.0617 18.9032 20.6699 18.4199 20.6699Z" fill="#353566"/>
</svg>
