<svg width="24" height="24" viewBox="0 0 24 24" fill="none" xmlns="http://www.w3.org/2000/svg">
<path fill-rule="evenodd" clip-rule="evenodd" d="M7 5.50024C5.89543 5.50024 5 6.39567 5 7.50024C5 8.60481 5.89543 9.50024 7 9.50024C8.10457 9.50024 9 8.60481 9 7.50024C9 6.39567 8.10457 5.50024 7 5.50024ZM6 7.50024C6 6.94796 6.44772 6.50024 7 6.50024C7.55228 6.50024 8 6.94796 8 7.50024C8 8.05253 7.55228 8.50024 7 8.50024C6.44772 8.50024 6 8.05253 6 7.50024Z" fill="#353566"/>
<path fill-rule="evenodd" clip-rule="evenodd" d="M16.4224 1.50024H6.57755C5.61647 1.50024 4.86451 1.50024 4.26049 1.54959C3.64594 1.5998 3.14062 1.70358 2.68404 1.93622C1.93139 2.31971 1.31947 2.93163 0.935974 3.68428C0.703335 4.14086 0.599556 4.64618 0.549345 5.26074C0.499995 5.86476 0.499997 6.6167 0.5 7.57779V13.4227C0.499997 14.3838 0.499995 15.1357 0.549345 15.7398C0.599556 16.3543 0.703335 16.8596 0.935974 17.3162L0.953205 17.3496L0.957119 17.3571C1.34177 18.091 1.94507 18.6877 2.68404 19.0643C3.14062 19.2969 3.64594 19.4007 4.26049 19.4509C4.86451 19.5002 5.61646 19.5002 6.57754 19.5002H12.8006C13.0767 19.5002 13.3006 19.2764 13.3006 19.0002C13.3006 18.7241 13.0767 18.5002 12.8006 18.5002H6.6C5.61166 18.5002 4.90047 18.4999 4.34192 18.4542C3.78921 18.4091 3.43014 18.3221 3.13803 18.1733C2.69075 17.9454 2.30974 17.6099 2.02771 17.1996L6.16549 13.0612C6.36076 12.8659 6.6774 12.8659 6.87267 13.0612L8.64563 14.8346C8.7394 14.9284 8.86658 14.9811 8.99919 14.9811C9.13181 14.9811 9.259 14.9284 9.35277 14.8346L15.6465 8.54121C15.8417 8.34596 16.1583 8.34596 16.3536 8.54122L20.8987 13.0863C21.0939 13.2816 21.4105 13.2816 21.6058 13.0863C21.6122 13.0798 21.6185 13.0732 21.6245 13.0665C21.7162 13.1706 21.8504 13.2363 22 13.2363C22.2761 13.2363 22.5 13.0124 22.5 12.7363V7.57779C22.5 6.6167 22.5 5.86475 22.4507 5.26073C22.4004 4.64618 22.2967 4.14086 22.064 3.68428C21.6805 2.93163 21.0686 2.31971 20.316 1.93622C19.8594 1.70358 19.3541 1.5998 18.7395 1.54959C18.1355 1.50024 17.3835 1.50024 16.4224 1.50024ZM5.45833 12.3541L1.61433 16.1987C1.58516 16.0408 1.56273 15.8628 1.54602 15.6583C1.50039 15.0998 1.5 14.3886 1.5 13.4002V7.60024C1.5 6.6119 1.50039 5.90072 1.54602 5.34217C1.59118 4.78946 1.67814 4.43038 1.82698 4.13827C2.1146 3.57379 2.57354 3.11484 3.13803 2.82722C3.43014 2.67839 3.78921 2.59143 4.34192 2.54627C4.90047 2.50063 5.61166 2.50024 6.6 2.50024H16.4C17.3883 2.50024 18.0995 2.50063 18.6581 2.54627C19.2108 2.59143 19.5699 2.67839 19.862 2.82722C20.4265 3.11485 20.8854 3.57379 21.173 4.13827C21.3219 4.43038 21.4088 4.78945 21.454 5.34217C21.4996 5.90072 21.5 6.6119 21.5 7.60024V12.2735L17.0607 7.83411C16.4749 7.24834 15.5252 7.24833 14.9394 7.83409L8.99928 13.7739L7.57986 12.3542C6.99406 11.7682 6.04415 11.7682 5.45833 12.3541Z" fill="#353566"/>
<path d="M23.5033 17.8784V17.0868C23.5033 15.9822 22.6079 15.0868 21.5033 15.0868H17.3353L18.3151 14.107C18.5104 13.9117 18.5104 13.5951 18.3151 13.3999C18.1199 13.2046 17.8033 13.2046 17.608 13.3999L15.7747 15.2332C15.6317 15.3762 15.5889 15.5913 15.6663 15.7781C15.7437 15.9649 15.926 16.0868 16.1282 16.0868H21.5033C22.0556 16.0868 22.5033 16.5345 22.5033 17.0868V17.8784C22.5033 18.1546 22.7272 18.3784 23.0033 18.3784C23.2794 18.3784 23.5033 18.1546 23.5033 17.8784Z" fill="#353566"/>
<path d="M15.1699 18.6701V17.8784C15.1699 17.6023 15.3938 17.3784 15.6699 17.3784C15.9461 17.3784 16.1699 17.6023 16.1699 17.8784V18.6701C16.1699 19.2224 16.6176 19.6701 17.1699 19.6701H22.5449C22.7472 19.6701 22.9295 19.7919 23.0069 19.9787C23.0843 20.1656 23.0415 20.3806 22.8985 20.5236L21.0651 22.357C20.8698 22.5522 20.5532 22.5522 20.358 22.357C20.1627 22.1617 20.1627 21.8451 20.358 21.6499L21.3378 20.6701H17.1699C16.0654 20.6701 15.1699 19.7747 15.1699 18.6701Z" fill="#353566"/>
</svg>
