<svg width="24" height="24" viewBox="0 0 24 24" fill="none" xmlns="http://www.w3.org/2000/svg">
<g clip-path="url(#clip0_9001_294345)">
<path d="M14.6226 0.5H7.37737C6.27642 0.499997 5.41948 0.499996 4.73209 0.556157C4.03416 0.61318 3.4671 0.730584 2.95704 0.990471C2.11031 1.4219 1.4219 2.11031 0.990471 2.95704C0.730584 3.4671 0.613181 4.03416 0.556157 4.73209C0.499996 5.41948 0.499997 6.27641 0.5 7.37737V14.99L0.500025 14.995L0.5 15V15.0188C0.5 15.9347 0.5 16.6478 0.53922 17.2227C0.579017 17.8059 0.660859 18.2835 0.842542 18.7221C1.29926 19.8247 2.1753 20.7007 3.27793 21.1575C3.71655 21.3391 4.19406 21.421 4.77734 21.4608C5.3522 21.5 6.06518 21.5 6.98113 21.5H12.5539C12.83 21.5 13.0539 21.2761 13.0539 21C13.0539 20.7239 12.83 20.5 12.5539 20.5H7C6.06128 20.5 5.38227 20.4997 4.84541 20.4631C4.31304 20.4268 3.95707 20.3564 3.66061 20.2336C2.80301 19.8784 2.12165 19.197 1.76642 18.3394C1.64362 18.0429 1.57322 17.687 1.5369 17.1546C1.50302 16.658 1.50025 16.0399 1.50002 15.2071L5.43934 11.2678C6.02512 10.682 6.97487 10.682 7.56066 11.2678L13.7229 17.4301C13.9182 17.6253 14.2348 17.6253 14.43 17.4301C14.6253 17.2348 14.6253 16.9182 14.43 16.723L8.26777 10.5607C7.29145 9.58435 5.70854 9.58435 4.73223 10.5607L1.5 13.7929V7.4C1.5 6.27164 1.50039 5.45545 1.55284 4.81352C1.60481 4.17744 1.70539 3.75662 1.88148 3.41103C2.21703 2.75247 2.75247 2.21703 3.41103 1.88148C3.75662 1.70539 4.17744 1.60481 4.81352 1.55284C5.45545 1.50039 6.27164 1.5 7.4 1.5H14.6C15.7284 1.5 16.5446 1.50039 17.1865 1.55284C17.8226 1.60481 18.2434 1.70539 18.589 1.88148C19.2475 2.21703 19.783 2.75247 20.1185 3.41103C20.2946 3.75662 20.3952 4.17744 20.4472 4.81352C20.4996 5.45545 20.5 6.27164 20.5 7.4V10.3944C20.5 10.6705 20.7239 10.8944 21 10.8944C21.2761 10.8944 21.5 10.6705 21.5 10.3944V7.37736C21.5 6.27644 21.5 5.41946 21.4438 4.73209C21.3868 4.03416 21.2694 3.4671 21.0095 2.95704C20.5781 2.11031 19.8897 1.4219 19.043 0.990471C18.5329 0.730584 17.9658 0.61318 17.2679 0.556157C16.5805 0.499995 15.7236 0.499997 14.6226 0.5Z" fill="#353566"/>
<path fill-rule="evenodd" clip-rule="evenodd" d="M14.5 5C15.8807 5 17 6.11929 17 7.5C17 8.88071 15.8807 10 14.5 10C13.1193 10 12 8.88071 12 7.5C12 6.11929 13.1193 5 14.5 5ZM16 7.5C16 6.67157 15.3284 6 14.5 6C13.6716 6 13 6.67157 13 7.5C13 8.32843 13.6716 9 14.5 9C15.3284 9 16 8.32843 16 7.5Z" fill="#353566"/>
<path d="M19 20.5C17.3513 20.5 15.8682 21.6327 15.4842 23.1246C15.4154 23.3921 15.1428 23.553 14.8754 23.4842C14.6079 23.4154 14.4469 23.1428 14.5158 22.8754C15.0199 20.9168 16.921 19.5 19 19.5C21.0789 19.5 22.9801 20.9168 23.4842 22.8754C23.553 23.1428 23.3921 23.4154 23.1246 23.4842C22.8572 23.553 22.5846 23.3921 22.5158 23.1246C22.1318 21.6327 20.6487 20.5 19 20.5Z" fill="#353566"/>
<path fill-rule="evenodd" clip-rule="evenodd" d="M19 12.5C17.4812 12.5 16.25 13.7312 16.25 15.25C16.25 16.7688 17.4812 18 19 18C20.5188 18 21.75 16.7688 21.75 15.25C21.75 13.7312 20.5188 12.5 19 12.5ZM17.25 15.25C17.25 14.2835 18.0335 13.5 19 13.5C19.9665 13.5 20.75 14.2835 20.75 15.25C20.75 16.2165 19.9665 17 19 17C18.0335 17 17.25 16.2165 17.25 15.25Z" fill="#353566"/>
</g>
<defs>
<clipPath id="clip0_9001_294345">
<rect width="24" height="24" fill="white"/>
</clipPath>
</defs>
</svg>
