<svg width="24" height="24" viewBox="0 0 24 24" fill="none" xmlns="http://www.w3.org/2000/svg">
<g clip-path="url(#clip0_9001_294365)">
<path d="M7.37737 0.5H14.6226C15.7236 0.499997 16.5805 0.499995 17.2679 0.556157C17.9658 0.61318 18.5329 0.730584 19.043 0.990471C19.8897 1.4219 20.5781 2.11031 21.0095 2.95704C21.2694 3.4671 21.3868 4.03416 21.4438 4.73209C21.5 5.41946 21.5 6.27635 21.5 7.37726V12.7631C21.5 13.0393 21.2761 13.2631 21 13.2631C20.7239 13.2631 20.5 13.0393 20.5 12.7631V7.4C20.5 6.27164 20.4996 5.45545 20.4472 4.81352C20.3952 4.17744 20.2946 3.75662 20.1185 3.41103C19.783 2.75247 19.2475 2.21703 18.589 1.88148C18.2434 1.70539 17.8226 1.60481 17.1865 1.55284C16.5446 1.50039 15.7284 1.5 14.6 1.5H7.4C6.27164 1.5 5.45545 1.50039 4.81352 1.55284C4.17744 1.60481 3.75662 1.70539 3.41103 1.88148C2.75247 2.21703 2.21703 2.75247 1.88148 3.41103C1.70539 3.75662 1.60481 4.17744 1.55284 4.81352C1.50039 5.45545 1.5 6.27164 1.5 7.4V13.7929L4.73223 10.5607C5.70854 9.58435 7.29145 9.58435 8.26777 10.5607L12.7271 15.02C12.9223 15.2153 12.9223 15.5318 12.7271 15.7271C12.5318 15.9224 12.2152 15.9224 12.02 15.7271L7.56066 11.2678C6.97487 10.682 6.02512 10.682 5.43934 11.2678L1.50002 15.2071C1.50025 16.0399 1.50302 16.658 1.5369 17.1546C1.57322 17.687 1.64362 18.0429 1.76642 18.3394C2.12165 19.197 2.80301 19.8784 3.66061 20.2336C3.95707 20.3564 4.31304 20.4268 4.84541 20.4631C5.38227 20.4997 6.06128 20.5 7 20.5H10.8003C11.0765 20.5 11.3003 20.7239 11.3003 21C11.3003 21.2761 11.0765 21.5 10.8003 21.5H6.98123C6.06528 21.5 5.35219 21.5 4.77734 21.4608C4.19406 21.421 3.71655 21.3391 3.27793 21.1575C2.1753 20.7007 1.29926 19.8247 0.842542 18.7221C0.660859 18.2835 0.579017 17.8059 0.53922 17.2227C0.5 16.6478 0.5 15.9349 0.5 15.019V15L0.500025 14.995L0.5 14.99V7.37737C0.499997 6.27642 0.499996 5.41948 0.556157 4.73209C0.613181 4.03416 0.730584 3.4671 0.990471 2.95704C1.4219 2.11031 2.11031 1.4219 2.95704 0.990471C3.4671 0.730584 4.03416 0.61318 4.73209 0.556157C5.41948 0.499996 6.27642 0.499997 7.37737 0.5Z" fill="#353566"/>
<path fill-rule="evenodd" clip-rule="evenodd" d="M17 7.5C17 6.11929 15.8807 5 14.5 5C13.1193 5 12 6.11929 12 7.5C12 8.88071 13.1193 10 14.5 10C15.8807 10 17 8.88071 17 7.5ZM14.5 6C15.3284 6 16 6.67157 16 7.5C16 8.32843 15.3284 9 14.5 9C13.6716 9 13 8.32843 13 7.5C13 6.67157 13.6716 6 14.5 6Z" fill="#353566"/>
<path d="M15.35 17.3571C15.5472 17.1638 15.5504 16.8473 15.3571 16.65C15.1638 16.4528 14.8473 16.4496 14.65 16.6429L12.65 18.6029C12.5553 18.6957 12.5014 18.8224 12.5 18.955C12.4987 19.0876 12.5501 19.2153 12.643 19.31L14.6429 21.35C14.8362 21.5472 15.1528 21.5504 15.35 21.357C15.5472 21.1637 15.5503 20.8472 15.357 20.65L13.7071 18.9671L15.35 17.3571Z" fill="#353566"/>
<path d="M20.6427 16.6502C20.8359 16.4529 21.1525 16.4495 21.3498 16.6427L23.3498 18.6007C23.4446 18.6935 23.4986 18.8201 23.5 18.9527C23.5014 19.0854 23.45 19.2131 23.3572 19.3079L21.3572 21.3499C21.164 21.5471 20.8474 21.5504 20.6501 21.3572C20.4529 21.164 20.4496 20.8474 20.6428 20.6501L22.2929 18.9654L20.6502 17.3573C20.4529 17.1641 20.4495 16.8475 20.6427 16.6502Z" fill="#353566"/>
<path d="M19.4851 15.1214C19.552 14.8535 19.3892 14.582 19.1213 14.515C18.8534 14.4481 18.5819 14.611 18.5149 14.8789L16.5149 22.8789C16.448 23.1467 16.6108 23.4182 16.8787 23.4852C17.1466 23.5522 17.4181 23.3893 17.4851 23.1214L19.4851 15.1214Z" fill="#353566"/>
</g>
<defs>
<clipPath id="clip0_9001_294365">
<rect width="24" height="24" fill="white"/>
</clipPath>
</defs>
</svg>
