<svg width="24" height="24" viewBox="0 0 24 24" fill="none" xmlns="http://www.w3.org/2000/svg">
<path d="M21.5 3.24695C21.5 2.08028 20.38 1.24028 19.26 1.56695L10.3 4.18028C9.76067 4.33757 9.30636 4.66554 8.98935 5.09453C8.82523 5.31661 8.87222 5.62969 9.0943 5.7938C9.31639 5.95792 9.62946 5.91092 9.79358 5.68884C9.98407 5.43107 10.2563 5.23467 10.58 5.14028L19.5399 2.52695C20.02 2.38695 20.5 2.74695 20.5 3.24695V6.6252L13.118 8.77826C12.8529 8.85558 12.7007 9.13316 12.778 9.39826C12.8554 9.66336 13.1329 9.81558 13.398 9.73826L20.5 7.66687V13.3983C20.4807 13.3815 20.4612 13.3648 20.4414 13.3483C19.4889 12.5546 18.1524 12.3274 16.9869 12.6276C16.7195 12.6965 16.5585 12.9691 16.6274 13.2365C16.6962 13.5039 16.9689 13.6649 17.2363 13.596C18.1286 13.3662 19.1247 13.5528 19.8012 14.1165C20.5697 14.757 20.6878 15.6734 20.2356 16.3933C20.0887 16.6271 20.1592 16.9357 20.393 17.0826C20.6269 17.2295 20.9355 17.159 21.0824 16.9252C21.3697 16.4678 21.5073 15.964 21.5 15.4637V7.01177C21.5001 7.00423 21.5001 6.99667 21.5 6.98909V3.24695Z" fill="#353566"/>
<path fill-rule="evenodd" clip-rule="evenodd" d="M8.49995 9.2073L1.64645 2.3538C1.45118 2.15854 1.45118 1.84195 1.64645 1.64669C1.84171 1.45143 2.15829 1.45143 2.35355 1.64669L9.35074 8.64388C9.35259 8.6457 9.35443 8.64753 9.35625 8.64939L10.5078 9.80089C10.5128 9.80569 10.5177 9.81061 10.5225 9.81563L15.3959 14.689C15.4001 14.6931 15.4043 14.6973 15.4083 14.7015L18.3508 17.6439C18.3526 17.6457 18.3544 17.6476 18.3563 17.6494L22.3536 21.6467C22.5488 21.842 22.5488 22.1585 22.3536 22.3538C22.1583 22.5491 21.8417 22.5491 21.6464 22.3538L17.7874 18.4947C16.988 18.4533 16.1896 18.1779 15.5585 17.6521C14.7834 17.0061 14.419 16.1096 14.5148 15.2222L10.017 10.7244L9.49995 10.8752V19.484L9.5 19.5001C9.5 20.299 9.13266 21.0759 8.44141 21.652C7.08441 22.7828 4.91558 22.7828 3.55859 21.652C2.86734 21.0759 2.5 20.299 2.5 19.5001C2.5 18.7011 2.86734 17.9242 3.55859 17.3482C4.91559 16.2174 7.08442 16.2174 8.44141 17.3482C8.46119 17.3647 8.4807 17.3813 8.49995 17.3981V10.5113C8.49978 10.5037 8.49978 10.4962 8.49995 10.4886V9.2073ZM4.19877 18.1164C5.18492 17.2946 6.81508 17.2946 7.80123 18.1164C8.28155 18.5167 8.5 19.0194 8.5 19.5001C8.5 19.9807 8.28155 20.4835 7.80123 20.8837C6.81508 21.7055 5.18492 21.7055 4.19877 20.8837C3.71845 20.4835 3.5 19.9807 3.5 19.5001C3.5 19.0194 3.71845 18.5167 4.19877 18.1164Z" fill="#353566"/>
</svg>
