<svg width="24" height="24" viewBox="0 0 24 24" fill="none" xmlns="http://www.w3.org/2000/svg">
<path d="M10.1464 1.85355C9.95118 1.65829 9.95118 1.34171 10.1464 1.14645C10.3417 0.951184 10.6583 0.951184 10.8536 1.14645L13.3536 3.64645C13.4473 3.74021 13.5 3.86739 13.5 4C13.5 4.13261 13.4473 4.25978 13.3536 4.35355L10.8536 6.85355C10.6583 7.04882 10.3417 7.04882 10.1464 6.85355C9.95118 6.65829 9.95118 6.34171 10.1464 6.14645L11.7904 4.50253C7.1928 4.61382 3.5 8.37566 3.5 13C3.5 17.6944 7.30558 21.5 12 21.5C16.6944 21.5 20.5 17.6944 20.5 13C20.5 10.0534 19.0011 7.45672 16.7219 5.93105C16.4924 5.77745 16.4309 5.4669 16.5845 5.23742C16.7381 5.00794 17.0487 4.94644 17.2781 5.10004C19.8228 6.80342 21.5 9.70575 21.5 13C21.5 18.2467 17.2467 22.5 12 22.5C6.75329 22.5 2.5 18.2467 2.5 13C2.5 7.82178 6.64298 3.61121 11.7951 3.50217L10.1464 1.85355Z" fill="#353566"/>
<path fill-rule="evenodd" clip-rule="evenodd" d="M12.75 11.75C12.75 10.5074 13.7574 9.5 15 9.5C16.2426 9.5 17.25 10.5074 17.25 11.75V14.25C17.25 15.4926 16.2426 16.5 15 16.5C13.7574 16.5 12.75 15.4926 12.75 14.25V11.75ZM15 10.5C14.3096 10.5 13.75 11.0596 13.75 11.75V14.25C13.75 14.9404 14.3096 15.5 15 15.5C15.6904 15.5 16.25 14.9404 16.25 14.25V11.75C16.25 11.0596 15.6904 10.5 15 10.5Z" fill="#353566"/>
<path fill-rule="evenodd" clip-rule="evenodd" d="M7.74999 9.5C7.50557 9.5 7.29698 9.67671 7.2568 9.9178L6.7568 12.9178C6.72403 13.1144 6.81114 13.3117 6.97851 13.4199C7.14578 13.528 7.36155 13.5265 7.52734 13.4161L7.54352 13.406C7.55957 13.3963 7.58584 13.3809 7.62147 13.3616C7.69291 13.3229 7.80084 13.2694 7.93834 13.2153C8.21505 13.1065 8.60015 13 9.04285 13C9.6988 13 10.25 13.5696 10.25 14.25C10.25 14.9404 9.69031 15.5 8.99995 15.5C8.45273 15.5 7.88585 15.167 7.70025 14.7826C7.58018 14.5339 7.28125 14.4297 7.03258 14.5497C6.78391 14.6698 6.67966 14.9687 6.79974 15.2174C7.18511 16.0155 8.15097 16.5 8.99995 16.5C10.2426 16.5 11.25 15.4926 11.25 14.25C11.25 13.0544 10.2875 12 9.04285 12C8.60452 12 8.21357 12.0765 7.89475 12.1728L8.17356 10.5H10.5C10.7761 10.5 11 10.2761 11 10C11 9.72386 10.7761 9.5 10.5 9.5H7.74999ZM7.52734 13.4161L7.52643 13.4166L7.52529 13.4174L7.52734 13.4161Z" fill="#353566"/>
</svg>
