<svg width="24" height="24" viewBox="0 0 24 24" fill="none" xmlns="http://www.w3.org/2000/svg">
<path fill-rule="evenodd" clip-rule="evenodd" d="M16.5 4.49983C16.5 3.13673 15.1663 2.173 13.8721 2.60096L3.87209 5.9077C3.05308 6.17853 2.5 6.94395 2.5 7.80658V19.5001C2.5 20.6047 3.39543 21.5001 4.5 21.5001H6.5V17C6.5 16.1715 7.17157 15.5 8 15.5H11C11.8284 15.5 12.5 16.1715 12.5 17V21.5001H14.5C14.6219 21.5001 14.7408 21.4893 14.856 21.4686C15.1278 21.4199 15.3876 21.6007 15.4364 21.8725C15.4851 22.1443 15.3043 22.4042 15.0325 22.4529C14.8593 22.484 14.6813 22.5001 14.5 22.5001H4.5C2.84315 22.5001 1.5 21.157 1.5 19.5001V7.80658C1.5 6.51264 2.32962 5.3645 3.55814 4.95826L13.5581 1.65152C15.4994 1.00959 17.5 2.45518 17.5 4.49983V10.3411C17.5 10.6172 17.2761 10.8411 17 10.8411C16.7239 10.8411 16.5 10.6172 16.5 10.3411V4.49983ZM11.5 21.5001V17C11.5 16.7238 11.2761 16.5 11 16.5H8C7.72386 16.5 7.5 16.7238 7.5 17V21.5001H11.5Z" fill="#353566"/>
<path d="M11 13C11 12.7238 11.2239 12.5 11.5 12.5H12.5C12.7761 12.5 13 12.7238 13 13C13 13.2761 12.7761 13.5 12.5 13.5H11.5C11.2239 13.5 11 13.2761 11 13Z" fill="#353566"/>
<path d="M13 10C13 10.2761 12.7761 10.5 12.5 10.5H11.5C11.2239 10.5 11 10.2761 11 10C11 9.72386 11.2239 9.5 11.5 9.5H12.5C12.7761 9.5 13 9.72386 13 10Z" fill="#353566"/>
<path d="M7.5 10.5C7.77614 10.5 8 10.2761 8 10C8 9.72386 7.77614 9.5 7.5 9.5H6.5C6.22386 9.5 6 9.72386 6 10C6 10.2761 6.22386 10.5 6.5 10.5H7.5Z" fill="#353566"/>
<path d="M8 13C8 13.2761 7.77614 13.5 7.5 13.5H6.5C6.22386 13.5 6 13.2761 6 13C6 12.7239 6.22386 12.5 6.5 12.5H7.5C7.77614 12.5 8 12.7239 8 13Z" fill="#353566"/>
<path d="M19 12.7749V12C19 11.7239 19.2239 11.5 19.5 11.5C19.7761 11.5 20 11.7239 20 12V12.7708C20.3289 12.801 20.6294 12.8671 20.9344 12.988C21.3749 13.1627 21.794 13.4404 22.3019 13.8249C22.522 13.9916 22.5653 14.3052 22.3987 14.5254C22.232 14.7455 21.9183 14.7889 21.6982 14.6222C21.206 14.2495 20.8752 14.0404 20.5657 13.9176C20.2679 13.7995 19.9604 13.75 19.5 13.75C18.821 13.75 18.3089 13.91 17.9808 14.1476C17.6677 14.3743 17.5 14.6843 17.5 15.0817C17.5 15.573 17.7356 15.8639 18.1193 16.0786C18.5345 16.311 19.0791 16.4229 19.5822 16.5068C20.0791 16.5896 20.7845 16.7214 21.3693 17.0488C21.9856 17.3938 22.5 17.9788 22.5 18.9183C22.5 19.6495 22.1677 20.2554 21.6058 20.6623C21.1725 20.9761 20.6194 21.1616 20 21.2251V22C20 22.2761 19.7761 22.5 19.5 22.5C19.2239 22.5 19 22.2761 19 22V21.2292C18.6711 21.199 18.3706 21.1329 18.0657 21.0119C17.6252 20.8372 17.206 20.5596 16.6982 20.175C16.478 20.0083 16.4347 19.6947 16.6014 19.4746C16.7681 19.2544 17.0817 19.2111 17.3019 19.3778C17.7941 19.7505 18.1249 19.9596 18.4344 20.0824C18.7322 20.2005 19.0396 20.25 19.5 20.25C20.179 20.25 20.6912 20.09 21.0193 19.8524C21.3323 19.6257 21.5 19.3157 21.5 18.9183C21.5 18.427 21.2644 18.1361 20.8808 17.9214C20.4656 17.689 19.921 17.5771 19.4178 17.4932C18.921 17.4104 18.2156 17.2786 17.6308 16.9512C17.0144 16.6062 16.5 16.0212 16.5 15.0817C16.5 14.3505 16.8323 13.7446 17.3942 13.3377C17.8275 13.0239 18.3806 12.8384 19 12.7749Z" fill="#353566"/>
</svg>
