<svg width="24" height="24" viewBox="0 0 24 24" fill="none" xmlns="http://www.w3.org/2000/svg">
<path opacity="0.4" d="M19.8787 2H4.12132C2.94975 2 2 2.94975 2 4.12132C2 4.68393 2.2235 5.2235 2.62132 5.62132L9.06066 12.0607C9.34196 12.342 9.5 12.7235 9.5 13.1213V17.5194C9.5 17.8232 9.63809 18.1105 9.87531 18.3002L14.5 22V13.1213C14.5 12.7235 14.658 12.342 14.9393 12.0607L16.0904 10.9096C15.7363 10.3725 15.5003 9.77728 15.5003 9.08174C15.5003 8.01792 15.9963 7.11571 16.808 6.52782C17.168 6.2671 17.5775 6.07788 18.0001 5.94352C18.0041 5.15507 18.7205 4.50006 19.5003 4.50006C20.292 4.50006 20.9811 5.1568 21.0001 5.94731C21.0135 5.95136 21.0269 5.95549 21.0403 5.95969L21.3787 5.62132C21.7765 5.2235 22 4.68393 22 4.12132C22 2.94975 21.0503 2 19.8787 2Z" fill="#353566"/>
<path d="M1.5 4.12132C1.5 2.6736 2.67361 1.5 4.12132 1.5H19.8787C21.3264 1.5 22.5 2.6736 22.5 4.12132C22.5 4.81654 22.2238 5.48328 21.7322 5.97487L21.5473 6.15977C21.3703 6.07612 21.1882 6.00399 21.0001 5.94731C20.9956 5.75914 20.9531 5.57856 20.8803 5.4126L21.0251 5.26777C21.3292 4.96371 21.5 4.55132 21.5 4.12132C21.5 3.22589 20.7741 2.5 19.8787 2.5H4.12132C3.22589 2.5 2.5 3.22589 2.5 4.12132C2.5 4.55132 2.67082 4.96371 2.97487 5.26777L9.41421 11.7071C9.78929 12.0822 10 12.5909 10 13.1213V17.5194C10 17.6713 10.069 17.8149 10.1877 17.9098L14 20.9597V13.1213C14 12.5909 14.2107 12.0822 14.5858 11.7071L15.8318 10.4611C15.9812 10.7642 16.1728 11.0478 16.389 11.3181L15.2929 12.4142C15.1054 12.6017 15 12.8561 15 13.1213V22C15 22.1922 14.8898 22.3674 14.7166 22.4507C14.5434 22.5339 14.3377 22.5105 14.1877 22.3904L9.56296 18.6907C9.20713 18.406 9 17.9751 9 17.5194V13.1213C9 12.8561 8.89464 12.6017 8.70711 12.4142L2.26777 5.97487C1.77617 5.48328 1.5 4.81654 1.5 4.12132Z" fill="#353566"/>
<path d="M19 6.77493V6.00002C19 5.72388 19.2239 5.50002 19.5 5.50002C19.7761 5.50002 20 5.72388 20 6.00002V6.77081C20.3289 6.80102 20.6294 6.8671 20.9344 6.98804C21.3749 7.16274 21.794 7.44039 22.3019 7.82492C22.522 7.99162 22.5653 8.30522 22.3987 8.52537C22.232 8.74552 21.9183 8.78885 21.6982 8.62215C21.206 8.24947 20.8752 8.04035 20.5657 7.91759C20.2679 7.79947 19.9604 7.75 19.5 7.75C18.821 7.75 18.3089 7.90999 17.9808 8.14759C17.6677 8.37433 17.5 8.68431 17.5 9.0817C17.5 9.57302 17.7356 9.86387 18.1193 10.0786C18.5345 10.311 19.0791 10.4229 19.5822 10.5068C20.0791 10.5896 20.7845 10.7214 21.3693 11.0488C21.9856 11.3938 22.5 11.9788 22.5 12.9183C22.5 13.6495 22.1677 14.2554 21.6058 14.6623C21.1725 14.9761 20.6194 15.1616 20 15.2251V16C20 16.2761 19.7761 16.5 19.5 16.5C19.2239 16.5 19 16.2761 19 16V15.2292C18.6711 15.199 18.3706 15.1329 18.0657 15.0119C17.6252 14.8372 17.206 14.5596 16.6982 14.175C16.478 14.0083 16.4347 13.6947 16.6014 13.4746C16.7681 13.2544 17.0817 13.2111 17.3019 13.3778C17.7941 13.7505 18.1249 13.9596 18.4344 14.0824C18.7322 14.2005 19.0396 14.25 19.5 14.25C20.179 14.25 20.6912 14.09 21.0193 13.8524C21.3323 13.6257 21.5 13.3157 21.5 12.9183C21.5 12.427 21.2644 12.1361 20.8808 11.9214C20.4656 11.689 19.921 11.5771 19.4178 11.4932C18.921 11.4104 18.2156 11.2786 17.6308 10.9512C17.0144 10.6062 16.5 10.0212 16.5 9.0817C16.5 8.35051 16.8323 7.74465 17.3942 7.33768C17.8275 7.02387 18.3806 6.83844 19 6.77493Z" fill="#353566"/>
</svg>
