<svg width="24" height="24" viewBox="0 0 24 24" fill="none" xmlns="http://www.w3.org/2000/svg">
<path opacity="0.4" d="M18.8787 2H3.12132C1.94975 2 1 2.94975 1 4.12132C1 4.68393 1.2235 5.2235 1.62132 5.62132L8.06066 12.0607C8.34196 12.342 8.5 12.7235 8.5 13.1213V17.5194C8.5 17.8232 8.63809 18.1105 8.87531 18.3002L13.5 22V13.1213C13.5 12.7562 13.6331 12.4047 13.8726 12.1319C13.6371 11.4693 13.5 10.7594 13.5 10.002C13.5 6.96527 15.9616 4.5 19.0001 4.5C19.6598 4.5 20.2923 4.61615 20.8784 4.8291C20.9582 4.6039 21 4.36477 21 4.12132C21 2.94975 20.0503 2 18.8787 2Z" fill="#353566"/>
<path d="M3.12132 1.5C1.67361 1.5 0.5 2.6736 0.5 4.12132C0.5 4.81654 0.776174 5.48328 1.26777 5.97487L7.70711 12.4142C7.89464 12.6017 8 12.8561 8 13.1213V17.5194C8 17.9751 8.20713 18.406 8.56296 18.6907L13.1877 22.3904C13.3377 22.5105 13.5434 22.5339 13.7166 22.4507C13.8898 22.3674 14 22.1922 14 22V13.1213C14 12.9704 14.0341 12.823 14.0981 12.6894C13.938 12.3368 13.8047 11.9697 13.7049 11.588L13.5858 11.7071C13.2107 12.0822 13 12.5909 13 13.1213V20.9597L9.18765 17.9098C9.06905 17.8149 9 17.6713 9 17.5194V13.1213C9 12.5909 8.78929 12.0822 8.41421 11.7071L1.97487 5.26777C1.67082 4.96371 1.5 4.55132 1.5 4.12132C1.5 3.22589 2.22589 2.5 3.12132 2.5H18.8787C19.7741 2.5 20.5 3.22589 20.5 4.12132C20.5 4.31377 20.4658 4.50268 20.4007 4.67994C20.7268 4.76557 21.0411 4.88038 21.3406 5.02143C21.4451 4.73573 21.5 4.43135 21.5 4.12132C21.5 2.6736 20.3264 1.5 18.8787 1.5H3.12132Z" fill="#353566"/>
<path fill-rule="evenodd" clip-rule="evenodd" d="M19 8C17.8954 8 17 8.89544 17 10C17 11.1046 17.8954 12 19 12C20.1046 12 21 11.1046 21 10C21 8.89544 20.1046 8 19 8ZM18 10C18 9.44773 18.4477 9 19 9C19.5523 9 20 9.44773 20 10C20 10.5523 19.5523 11 19 11C18.4477 11 18 10.5523 18 10Z" fill="#353566"/>
<path fill-rule="evenodd" clip-rule="evenodd" d="M14.5 10.002C14.5 7.51704 16.5144 5.5 19.0001 5.5C21.4854 5.5 23.5 7.51469 23.5 10C23.5 12.7667 21.3 14.9 19.3 16.4C19.1222 16.5333 18.8778 16.5333 18.7 16.4C16.7001 14.9001 14.5 12.7667 14.5 10.002ZM19.0001 6.5C17.0674 6.5 15.5 8.06868 15.5 10.002C15.5 12.1211 17.1234 13.9113 19 15.3709C20.8765 13.9113 22.5 12.121 22.5 10C22.5 8.06696 20.9331 6.5 19.0001 6.5Z" fill="#353566"/>
</svg>
