<svg width="24" height="24" viewBox="0 0 24 24" fill="none" xmlns="http://www.w3.org/2000/svg">
<path opacity="0.4" d="M18.8787 2H3.12132C1.94975 2 1 2.94975 1 4.12132C1 4.68393 1.2235 5.2235 1.62132 5.62132L8.06066 12.0607C8.34196 12.342 8.5 12.7235 8.5 13.1213V17.5194C8.5 17.8232 8.63809 18.1105 8.87531 18.3002L13.5 22V15.4471C13.2782 15.2811 13.082 15.0668 12.92 14.7866L12.2982 13.7113C11.7632 12.7862 12.0379 11.899 12.4218 10.9999C12.0379 10.1009 11.7632 9.21368 12.2982 8.28856L12.92 7.21326C13.4548 6.28831 14.3623 6.08092 15.335 5.96197C15.9238 5.18066 16.5564 4.5 17.6282 4.5H18.8718C19.6313 4.5 20.1704 4.84185 20.6295 5.31912C20.8692 4.96879 21 4.5518 21 4.12132C21 2.94975 20.0503 2 18.8787 2Z" fill="#353566"/>
<path d="M3.12132 1.5C1.67361 1.5 0.5 2.6736 0.5 4.12132C0.5 4.81654 0.776174 5.48328 1.26777 5.97487L7.70711 12.4142C7.89464 12.6017 8 12.8561 8 13.1213V17.5194C8 17.9751 8.20713 18.406 8.56296 18.6907L13.1877 22.3904C13.3377 22.5105 13.5434 22.5339 13.7166 22.4507C13.8898 22.3674 14 22.1922 14 22V15.7303C13.6096 15.5657 13.2659 15.3154 13 14.9156V20.9597L9.18765 17.9098C9.06905 17.8149 9 17.6713 9 17.5194V13.1213C9 12.5909 8.78929 12.0822 8.41421 11.7071L1.97487 5.26777C1.67082 4.96371 1.5 4.55132 1.5 4.12132C1.5 3.22589 2.22589 2.5 3.12132 2.5H18.8787C19.7741 2.5 20.5 3.22589 20.5 4.12132C20.5 4.42708 20.4136 4.72393 20.2544 4.97927C20.5161 5.18113 20.7472 5.43274 20.9666 5.70618C21.3107 5.25289 21.5 4.69686 21.5 4.12132C21.5 2.6736 20.3264 1.5 18.8787 1.5H3.12132Z" fill="#353566"/>
<path fill-rule="evenodd" clip-rule="evenodd" d="M18.25 9.25C17.2835 9.25 16.5 10.0335 16.5 11C16.5 11.9665 17.2835 12.75 18.25 12.75C19.2165 12.75 20 11.9665 20 11C20 10.0335 19.2165 9.25 18.25 9.25ZM17.5 11C17.5 10.5858 17.8358 10.25 18.25 10.25C18.6642 10.25 19 10.5858 19 11C19 11.4142 18.6642 11.75 18.25 11.75C17.8358 11.75 17.5 11.4142 17.5 11Z" fill="#353566"/>
<path fill-rule="evenodd" clip-rule="evenodd" d="M13.1845 13.212C12.8047 12.5529 13.0297 11.7096 13.6886 11.3285C13.9408 11.1827 13.9408 10.8172 13.6886 10.6714C13.0297 10.2903 12.8047 9.44702 13.1845 8.78789L13.8042 7.71259C14.1844 7.05293 15.0272 6.82626 15.6866 7.20765C15.937 7.35248 16.2527 7.17233 16.2527 6.87913C16.2527 6.1183 16.8686 5.5 17.6302 5.5H18.8697C19.6314 5.5 20.2473 6.11831 20.2473 6.87915C20.2473 7.17238 20.563 7.35252 20.8134 7.20769C21.4728 6.8263 22.3156 7.05299 22.6958 7.71264L23.3155 8.78798C23.6954 9.44709 23.4703 10.2903 22.8114 10.6714C22.5592 10.8172 22.5592 11.1826 22.8114 11.3285C23.4703 11.7096 23.6954 12.5528 23.3155 13.2119L22.6958 14.2872C22.3156 14.9469 21.4728 15.1736 20.8134 14.7922C20.563 14.6474 20.2473 14.8275 20.2473 15.1208C20.2473 15.8816 19.6314 16.5 18.8697 16.5H17.6303C16.8686 16.5 16.2527 15.8817 16.2527 15.1208C16.2527 14.8275 15.937 14.6474 15.6866 14.7922C15.0272 15.1736 14.1844 14.9469 13.8042 14.2873L13.1845 13.212ZM14.1893 12.1942C14.0087 12.2986 13.9461 12.5308 14.0509 12.7127L14.6707 13.788C14.7752 13.9693 15.0059 14.0308 15.1859 13.9266C16.1057 13.3946 17.2527 14.0605 17.2527 15.1208C17.2527 15.3311 17.4226 15.5 17.6303 15.5H18.8697C19.0774 15.5 19.2473 15.3311 19.2473 15.1208C19.2473 14.0605 20.3943 13.3946 21.3141 13.9265C21.4941 14.0307 21.7248 13.9693 21.8293 13.7879L22.4491 12.7126C22.5539 12.5307 22.4913 12.2986 22.3107 12.1941C21.3928 11.6632 21.3928 10.3367 22.3107 9.80576C22.4913 9.7013 22.5539 9.46917 22.4491 9.28731L21.8293 8.21197C21.7248 8.03063 21.4941 7.96917 21.3141 8.07333C20.3943 8.60528 19.2473 7.93946 19.2473 6.87915C19.2473 6.66891 19.0774 6.5 18.8697 6.5L17.6302 6.5C17.4226 6.5 17.2527 6.6689 17.2527 6.87913C17.2527 7.93945 16.1056 8.60521 15.186 8.07329C15.0059 7.96912 14.7752 8.03058 14.6707 8.21192L14.0509 9.28722C13.9461 9.4691 14.0087 9.70126 14.1893 9.80572C15.1073 10.3367 15.1073 11.6632 14.1893 12.1942Z" fill="#353566"/>
</svg>
