<svg width="24" height="24" viewBox="0 0 24 24" fill="none" xmlns="http://www.w3.org/2000/svg">
<path opacity="0.4" d="M18.8787 2H3.12132C1.94975 2 1 2.94975 1 4.12132C1 4.68393 1.2235 5.2235 1.62132 5.62132L8.06066 12.0607C8.34196 12.342 8.5 12.7235 8.5 13.1213V17.5194C8.5 17.8232 8.63809 18.1105 8.87531 18.3002L13.5 22V11.25C13.5 10.2815 13.9573 9.42039 14.674 8.86943L15.2149 8.45359L15.2569 7.7726C15.3763 5.83864 17.1411 4.5 19 4.5C19.6432 4.5 20.2751 4.66025 20.8315 4.94997C20.9416 4.69033 21 4.40883 21 4.12132C21 2.94975 20.0503 2 18.8787 2Z" fill="#353566"/>
<path d="M3.12132 1.5C1.67361 1.5 0.5 2.6736 0.5 4.12132C0.5 4.81654 0.776174 5.48328 1.26777 5.97487L7.70711 12.4142C7.89464 12.6017 8 12.8561 8 13.1213V17.5194C8 17.9751 8.20713 18.406 8.56296 18.6907L13.1877 22.3904C13.3377 22.5105 13.5434 22.5339 13.7166 22.4507C13.8898 22.3674 14 22.1922 14 22V16.1589C13.6841 15.6837 13.5 15.1134 13.5 14.5V11.7984C13.1787 12.1627 13 12.6328 13 13.1213V20.9597L9.18765 17.9098C9.06905 17.8149 9 17.6713 9 17.5194V13.1213C9 12.5909 8.78929 12.0822 8.41421 11.7071L1.97487 5.26777C1.67082 4.96371 1.5 4.55132 1.5 4.12132C1.5 3.22589 2.22589 2.5 3.12132 2.5H18.8787C19.7741 2.5 20.5 3.22589 20.5 4.12132C20.5 4.3384 20.4565 4.55099 20.3742 4.74742C20.6903 4.86433 20.9897 5.02048 21.2627 5.21119C21.4176 4.87233 21.5 4.50107 21.5 4.12132C21.5 2.6736 20.3264 1.5 18.8787 1.5H3.12132Z" fill="#353566"/>
<path fill-rule="evenodd" clip-rule="evenodd" d="M16.25 8C16.25 6.56555 17.5382 5.5 19 5.5C20.4618 5.5 21.75 6.56555 21.75 8V9.25C22.7165 9.25 23.5 10.0335 23.5 11V14.75C23.5 15.7165 22.7165 16.5 21.75 16.5H16.25C15.2835 16.5 14.5 15.7165 14.5 14.75V11C14.5 10.0335 15.2835 9.25 16.25 9.25V8ZM17.25 9.25H20.75V8C20.75 7.22531 20.0235 6.5 19 6.5C17.9765 6.5 17.25 7.22531 17.25 8V9.25ZM16.25 10.25C15.8358 10.25 15.5 10.5858 15.5 11V14.75C15.5 15.1642 15.8358 15.5 16.25 15.5H21.75C22.1642 15.5 22.5 15.1642 22.5 14.75V11C22.5 10.5858 22.1642 10.25 21.75 10.25H16.25Z" fill="#353566"/>
</svg>
