<svg width="24" height="24" viewBox="0 0 24 24" fill="none" xmlns="http://www.w3.org/2000/svg">
<path opacity="0.4" d="M1 3.5C1.27614 3.5 1.5 3.72386 1.5 4V11.5H11.5V4C11.5 3.72386 11.7239 3.5 12 3.5C12.2761 3.5 12.5 3.72386 12.5 4V20C12.5 20.2761 12.2761 20.5 12 20.5C11.7239 20.5 11.5 20.2761 11.5 20V12.5H1.5V20C1.5 20.2761 1.27614 20.5 1 20.5C0.723858 20.5 0.5 20.2761 0.5 20V4C0.5 3.72386 0.723858 3.5 1 3.5Z" fill="#353566"/>
<path d="M17.0034 8.9178C17.0436 8.67671 17.2522 8.5 17.4966 8.5H22.5383C22.8144 8.5 23.0383 8.72386 23.0383 9C23.0383 9.27614 22.8144 9.5 22.5383 9.5H17.9202L17.2349 13.6119C17.2638 13.6 17.2933 13.5882 17.3234 13.5764C17.9473 13.331 18.8322 13.0833 19.8668 13.0833C21.9035 13.0833 23.4965 14.8144 23.4965 16.7917C23.4965 18.8397 21.8363 20.5 19.7882 20.5C18.3575 20.5 16.753 19.6749 16.1297 18.3841C16.0096 18.1354 16.1139 17.8365 16.3625 17.7164C16.6112 17.5963 16.9101 17.7006 17.0302 17.9493C17.4537 18.8263 18.6592 19.5 19.7882 19.5C21.284 19.5 22.4965 18.2874 22.4965 16.7917C22.4965 15.3296 21.3147 14.0833 19.8668 14.0833C18.9896 14.0833 18.231 14.294 17.6894 14.507C17.4195 14.6131 17.2063 14.7188 17.0627 14.7965C16.9909 14.8353 16.9369 14.867 16.902 14.8881C16.8846 14.8987 16.8721 14.9066 16.8645 14.9114L16.8573 14.916C16.6915 15.0264 16.4757 15.028 16.3085 14.9199C16.1411 14.8117 16.054 14.6144 16.0868 14.4178L17.0034 8.9178Z" fill="#353566"/>
</svg>
