<svg width="24" height="24" viewBox="0 0 24 24" fill="none" xmlns="http://www.w3.org/2000/svg">
<path opacity="0.4" d="M2 3.5C2.27614 3.5 2.5 3.72386 2.5 4V11.5H12.5V4C12.5 3.72386 12.7239 3.5 13 3.5C13.2761 3.5 13.5 3.72386 13.5 4V20C13.5 20.2761 13.2761 20.5 13 20.5C12.7239 20.5 12.5 20.2761 12.5 20V12.5H2.5V20C2.5 20.2761 2.27614 20.5 2 20.5C1.72386 20.5 1.5 20.2761 1.5 20V4C1.5 3.72386 1.72386 3.5 2 3.5Z" fill="#353566"/>
<path d="M22.2013 8.54234C22.3828 8.62218 22.5 8.80173 22.5 9.00001V20C22.5 20.2762 22.2761 20.5 22 20.5C21.7239 20.5 21.5 20.2762 21.5 20V10.1366L18.3379 13.0353C18.1343 13.2218 17.818 13.2081 17.6314 13.0045C17.4448 12.801 17.4586 12.4847 17.6621 12.2981L21.6621 8.63143C21.8083 8.49745 22.0198 8.46249 22.2013 8.54234Z" fill="#353566"/>
</svg>
