<svg width="24" height="24" viewBox="0 0 24 24" fill="none" xmlns="http://www.w3.org/2000/svg">
<g clip-path="url(#clip0_9002_4742)">
<path opacity="0.4" d="M23 12C23 18.0751 18.0751 23 12 23C5.92487 23 1 18.0751 1 12C1 5.92487 5.92487 1 12 1C18.0751 1 23 5.92487 23 12Z" fill="#353566"/>
<path d="M10.346 7.37903C10.5453 7.57011 10.552 7.88662 10.361 8.08598L9.08294 9.41931C8.98977 9.51651 8.86134 9.57203 8.72671 9.5733C8.59207 9.57457 8.46261 9.52149 8.36762 9.42607L7.64564 8.70078C7.45082 8.50507 7.45155 8.18849 7.64726 7.99368C7.84296 7.79886 8.15954 7.79958 8.35436 7.99529L8.71522 8.35781L9.63904 7.394C9.83012 7.19465 10.1466 7.18795 10.346 7.37903Z" fill="#353566"/>
<path d="M12.5 7.83997C12.2239 7.83997 12 8.06382 12 8.33997C12 8.61611 12.2239 8.83997 12.5 8.83997H16C16.2761 8.83997 16.5 8.61611 16.5 8.33997C16.5 8.06382 16.2761 7.83997 16 7.83997H12.5Z" fill="#353566"/>
<path d="M10.346 11.209C10.5453 11.4001 10.552 11.7166 10.361 11.9159L9.08294 13.2493C8.98977 13.3465 8.86134 13.402 8.72671 13.4033C8.59207 13.4045 8.46261 13.3514 8.36762 13.256L7.64564 12.5307C7.45082 12.335 7.45155 12.0184 7.64726 11.8236C7.84296 11.6288 8.15954 11.6295 8.35436 11.8252L8.71522 12.1878L9.63904 11.224C9.83012 11.0246 10.1466 11.0179 10.346 11.209Z" fill="#353566"/>
<path d="M12.5 11.6699C12.2239 11.6699 12 11.8938 12 12.1699C12 12.4461 12.2239 12.6699 12.5 12.6699H16C16.2761 12.6699 16.5 12.4461 16.5 12.1699C16.5 11.8938 16.2761 11.6699 16 11.6699H12.5Z" fill="#353566"/>
<path d="M8.25 16C8.25 15.5858 8.58579 15.25 9 15.25C9.41421 15.25 9.7501 15.5858 9.7501 16C9.7501 16.4142 9.41431 16.75 9.0001 16.75C8.58589 16.75 8.25 16.4142 8.25 16Z" fill="#353566"/>
<path d="M11.75 15.5C11.4739 15.5 11.25 15.7239 11.25 16C11.25 16.2761 11.4739 16.5 11.75 16.5H16C16.2761 16.5 16.5 16.2761 16.5 16C16.5 15.7239 16.2761 15.5 16 15.5H11.75Z" fill="#353566"/>
<path fill-rule="evenodd" clip-rule="evenodd" d="M0.5 12C0.5 5.64873 5.64873 0.5 12 0.5C18.3513 0.5 23.5 5.64873 23.5 12C23.5 18.3513 18.3513 23.5 12 23.5C5.64873 23.5 0.5 18.3513 0.5 12ZM12 1.5C6.20101 1.5 1.5 6.20101 1.5 12C1.5 17.799 6.20101 22.5 12 22.5C17.799 22.5 22.5 17.799 22.5 12C22.5 6.20101 17.799 1.5 12 1.5Z" fill="#353566"/>
</g>
<defs>
<clipPath id="clip0_9002_4742">
<rect width="24" height="24" fill="white"/>
</clipPath>
</defs>
</svg>
