<svg width="24" height="24" viewBox="0 0 24 24" fill="none" xmlns="http://www.w3.org/2000/svg">
<path opacity="0.4" d="M1.68767 2.60958C1.9033 2.43708 2.21795 2.47204 2.39045 2.68767L8.00002 9.69963L13.6096 2.68767C13.7821 2.47204 14.0967 2.43708 14.3124 2.60958C14.528 2.78209 14.563 3.09673 14.3905 3.31237L8.64033 10.5L14.3905 17.6877C14.563 17.9033 14.528 18.2179 14.3124 18.3905C14.0967 18.563 13.7821 18.528 13.6096 18.3124L8.00002 11.3004L2.39045 18.3124C2.21795 18.528 1.9033 18.563 1.68767 18.3905C1.47204 18.2179 1.43708 17.9033 1.60958 17.6877L7.35971 10.5L1.60958 3.31237C1.43708 3.09673 1.47204 2.78209 1.68767 2.60958Z" fill="#353566"/>
<path d="M19.8667 14.5714C19.4227 14.5714 19.1074 14.7281 18.8641 15.0201C18.6797 15.2414 18.5 15.537 18.5 16.0143C18.5 16.2904 18.2761 16.5143 18 16.5143C17.7239 16.5143 17.5 16.2904 17.5 16.0143C17.5 15.2344 17.8126 14.7199 18.0959 14.3799C18.5363 13.8514 19.1373 13.5714 19.8667 13.5714C21.3561 13.5714 22.2333 14.7439 22.2333 15.9V15.903L22.2331 15.9348C22.2234 16.7418 21.7835 17.3249 21.3014 17.7669C21.0604 17.9878 20.7943 18.187 20.5439 18.3689C20.4886 18.4091 20.4343 18.4482 20.381 18.4867C20.1862 18.6272 20.0053 18.7577 19.8367 18.8929C19.7052 18.9984 19.5693 19.1228 19.4322 19.2697C18.997 19.736 18.766 20.1384 18.643 20.4286H22C22.2761 20.4286 22.5 20.6524 22.5 20.9286C22.5 21.2047 22.2761 21.4286 22 21.4286H18C17.7239 21.4286 17.5 21.2047 17.5 20.9286H18C17.5 20.9286 17.5 20.9286 17.5 20.9286L17.5 20.9273L17.5 20.926L17.5 20.923L17.5001 20.9162L17.5007 20.8988C17.5012 20.8855 17.5021 20.8689 17.5037 20.849C17.5069 20.8094 17.5129 20.757 17.5237 20.6931C17.5454 20.5652 17.5867 20.3917 17.6649 20.1822C17.8219 19.7619 18.1241 19.2057 18.7011 18.5874C18.871 18.4054 19.0421 18.2483 19.2112 18.1127C19.4017 17.9599 19.6097 17.8099 19.8072 17.6675C19.8577 17.6311 19.9076 17.5951 19.9562 17.5598C20.2029 17.3806 20.4296 17.2095 20.6256 17.0298C21.017 16.6709 21.2278 16.3313 21.2332 15.9241L21.2333 15.8986C21.2326 15.2266 20.7369 14.5714 19.8667 14.5714Z" fill="#353566"/>
</svg>
