<svg width="24" height="24" viewBox="0 0 24 24" fill="none" xmlns="http://www.w3.org/2000/svg">
<g opacity="0.4">
<path d="M7 2.5C6.72386 2.5 6.5 2.72386 6.5 3C6.5 3.27614 6.72386 3.5 7 3.5H11.5V8C11.5 8.27614 11.7239 8.5 12 8.5C12.2761 8.5 12.5 8.27614 12.5 8V3.5H20C20.2761 3.5 20.5 3.72386 20.5 4V6C20.5 6.27614 20.7239 6.5 21 6.5C21.2761 6.5 21.5 6.27614 21.5 6V4C21.5 3.17157 20.8284 2.5 20 2.5H7Z" fill="#353566"/>
<path d="M3.64645 3.64645C3.84171 3.45118 3.84171 3.1346 3.64645 2.93934C3.45118 2.74408 3.1346 2.74408 2.93934 2.93934C2.66844 3.21024 2.5 3.58592 2.5 4V6C2.5 6.27614 2.72386 6.5 3 6.5C3.27614 6.5 3.5 6.27614 3.5 6V4C3.5 3.86179 3.55542 3.73748 3.64645 3.64645Z" fill="#353566"/>
<path d="M12.5 12C12.5 11.7239 12.2761 11.5 12 11.5C11.7239 11.5 11.5 11.7239 11.5 12V20.5H8C7.72386 20.5 7.5 20.7239 7.5 21C7.5 21.2761 7.72386 21.5 8 21.5H16C16.2761 21.5 16.5 21.2761 16.5 21C16.5 20.7239 16.2761 20.5 16 20.5H12.5V12Z" fill="#353566"/>
</g>
<path d="M1.64645 1.64645C1.84171 1.45118 2.15829 1.45118 2.35355 1.64645L22.3536 21.6464C22.5488 21.8417 22.5488 22.1583 22.3536 22.3536C22.1583 22.5488 21.8417 22.5488 21.6464 22.3536L1.64645 2.35355C1.45118 2.15829 1.45118 1.84171 1.64645 1.64645Z" fill="#353566"/>
</svg>
