<svg width="24" height="24" viewBox="0 0 24 24" fill="none" xmlns="http://www.w3.org/2000/svg">
<g clip-path="url(#clip0_9001_310269)">
<g opacity="0.4">
<path d="M5.26685 5.26685C5.22294 5.28555 5.18006 5.30557 5.13803 5.32698C4.57354 5.6146 4.1146 6.07354 3.82698 6.63803C3.5 7.27976 3.5 8.11984 3.5 9.8V22.3818C3.5 22.7232 3.77679 23 4.11822 23C4.27765 23 4.43093 22.9384 4.54602 22.8281L8.8928 18.6613C9.28192 18.2883 9.47648 18.1018 9.69904 18.0316C9.89492 17.9698 10.1051 17.9698 10.301 18.0316C10.5235 18.1018 10.7181 18.2883 11.1072 18.6613L15.454 22.8281C15.5691 22.9384 15.7223 23 15.8818 23C16.2232 23 16.5 22.7232 16.5 22.3818V16.5L5.26685 5.26685Z" fill="#353566"/>
<path d="M16.5 14V9.8C16.5 8.11984 16.5 7.27976 16.173 6.63803C15.8854 6.07354 15.4265 5.6146 14.862 5.32698C14.2202 5 13.3802 5 11.7 5H8.3C8.00996 5 7.74496 5 7.50168 5.00168L16.5 14Z" fill="#353566"/>
</g>
<path d="M12.2778 0.5C11.4565 0.499997 10.8095 0.499994 10.2889 0.542533C9.7577 0.585932 9.31412 0.676087 8.91102 0.881478C8.52315 1.07911 8.178 1.34607 7.89124 1.66666C7.70714 1.87249 7.72476 2.18858 7.93058 2.37268C8.1364 2.55677 8.4525 2.53916 8.63659 2.33334C8.84143 2.10432 9.08797 1.91364 9.36501 1.77248C9.60364 1.65089 9.90097 1.57756 10.3703 1.53921C10.8455 1.50039 11.4517 1.5 12.3 1.5H15.7C16.5483 1.5 17.1545 1.50039 17.6297 1.53921C18.099 1.57756 18.3963 1.65089 18.635 1.77248C19.1054 2.01217 19.4878 2.39462 19.7275 2.86502C19.8491 3.10366 19.9224 3.40099 19.9608 3.87032C19.9996 4.34549 20 4.95167 20 5.8V17.5L20.9944 18.4944C20.9981 18.4574 21 18.4198 21 18.3818V5.77778C21 4.95658 21 4.30951 20.9575 3.78889C20.9141 3.25771 20.8239 2.81413 20.6185 2.41103C20.283 1.75247 19.7475 1.21703 19.089 0.881478C18.6859 0.676087 18.2423 0.585932 17.7111 0.542533C17.1904 0.499994 16.5435 0.499997 15.7222 0.5H12.2778Z" fill="#353566"/>
<path d="M17 14.5L16 13.5V9.8C16 8.95167 15.9996 8.34549 15.9608 7.87032C15.9224 7.40099 15.8491 7.10366 15.7275 6.86502C15.4878 6.39462 15.1054 6.01217 14.635 5.77248C14.3963 5.65089 14.099 5.57756 13.6297 5.53921C13.1545 5.50039 12.5483 5.5 11.7 5.5L8.00009 5.50009L7.00845 4.50845C7.37855 4.5 7.79849 4.5 8.27778 4.5H11.7222C12.5435 4.5 13.1905 4.49999 13.7111 4.54253C14.2423 4.58593 14.6859 4.67609 15.089 4.88148C15.7475 5.21703 16.283 5.75247 16.6185 6.41103C16.8239 6.81413 16.9141 7.25771 16.9575 7.78889C17 8.30953 17 8.95649 17 9.77773V14.5Z" fill="#353566"/>
<path fill-rule="evenodd" clip-rule="evenodd" d="M17 17.7071V22.3818C17 22.9994 16.4994 23.5 15.8818 23.5C15.5934 23.5 15.3162 23.3886 15.108 23.189L10.7612 19.0223C10.5608 18.8302 10.4316 18.7068 10.3256 18.6204C10.2243 18.5378 10.1767 18.5167 10.1505 18.5084C10.0525 18.4775 9.94746 18.4775 9.84952 18.5084C9.82332 18.5167 9.77568 18.5378 9.6744 18.6204C9.56845 18.7068 9.43919 18.8302 9.2388 19.0223L4.89202 23.189C4.68384 23.3886 4.4066 23.5 4.11822 23.5C3.50064 23.5 3 22.9994 3 22.3818V9.77779C3 8.95653 2.99999 8.30954 3.04253 7.78889C3.08593 7.25771 3.17609 6.81413 3.38148 6.41103C3.63543 5.91262 4.00387 5.48473 4.45353 5.16064L0.646447 1.35355C0.451184 1.15829 0.451184 0.841709 0.646447 0.646447C0.841709 0.451185 1.15829 0.451185 1.35355 0.646447L23.3536 22.6464C23.5488 22.8417 23.5488 23.1583 23.3536 23.3536C23.1583 23.5488 22.8417 23.5488 22.6464 23.3536L17 17.7071ZM16 16.7071L5.17371 5.88081C4.79084 6.12043 4.47878 6.46015 4.27248 6.86502C4.15089 7.10366 4.07756 7.40099 4.03921 7.87032C4.00039 8.34549 4 8.95167 4 9.8V22.3818C4 22.4471 4.05293 22.5 4.11822 22.5C4.14871 22.5 4.17801 22.4882 4.20002 22.4671L8.56036 18.2874C8.74334 18.112 8.90158 17.9603 9.04236 17.8455C9.19128 17.724 9.3522 17.6168 9.54856 17.5548C9.84238 17.4621 10.1576 17.4621 10.4514 17.5548C10.6478 17.6168 10.8087 17.724 10.9576 17.8455C11.0984 17.9603 11.2566 18.1119 11.4395 18.2873L15.8 22.4671C15.822 22.4882 15.8513 22.5 15.8818 22.5C15.9471 22.5 16 22.4471 16 22.3818V16.7071Z" fill="#353566"/>
</g>
<defs>
<clipPath id="clip0_9001_310269">
<rect width="24" height="24" fill="white"/>
</clipPath>
</defs>
</svg>
