<svg width="24" height="24" viewBox="0 0 24 24" fill="none" xmlns="http://www.w3.org/2000/svg">
<path opacity="0.4" d="M4 11.3934V5.5C4 3.567 5.567 2 7.5 2H20.5C21.3284 2 22 2.67157 22 3.5V15.5C22 16.3284 21.3284 17 20.5 17H12.3237C12.4396 16.4327 12.5 15.8506 12.5 15.2619C12.5 13.7313 12.2139 13.0012 11.4094 12.5971L11.4084 12.5966L7.84248 10.8147C7.00287 10.3952 5.99598 10.3951 5.15825 10.8143L4 11.3934Z" fill="#353566"/>
<path d="M4.5 5.5C4.5 3.84315 5.84315 2.5 7.5 2.5H20.5C21.0523 2.5 21.5 2.94772 21.5 3.5V15.5C21.5 16.0523 21.0523 16.5 20.5 16.5H12.4108C12.362 16.8381 12.2935 17.172 12.2063 17.5H19.5V21.5H9.91143C9.5476 21.8664 9.15091 22.2017 8.72494 22.5H22C22.2761 22.5 22.5 22.2761 22.5 22C22.5 21.7239 22.2761 21.5 22 21.5H20.5V17.5C21.6046 17.5 22.5 16.6046 22.5 15.5V3.5C22.5 2.39543 21.6046 1.5 20.5 1.5H7.5C5.29086 1.5 3.5 3.29086 3.5 5.5V11.6434L4.5 11.1434V5.5Z" fill="#353566"/>
<path fill-rule="evenodd" clip-rule="evenodd" d="M7.39339 11.7081C6.83031 11.4267 6.16757 11.4267 5.60454 11.7083L2.03601 13.493C1.70765 13.6573 1.50017 13.9928 1.5 14.36C1.49934 15.7737 1.58936 17.1315 2.1667 18.451C2.9568 20.2568 4.41805 21.6575 6.2165 22.4423C6.39662 22.5209 6.60134 22.5209 6.78146 22.4423C8.58038 21.6573 10.042 20.2548 10.8321 18.4487C11.4088 17.1304 11.4993 15.7739 11.5 14.3614C11.5002 13.9935 11.2924 13.6571 10.9633 13.4926L7.39339 11.7081ZM6.05185 12.6027C6.33336 12.4619 6.66473 12.4619 6.94627 12.6026L10.5 14.379C10.4994 15.6465 10.4342 16.8633 9.91596 18.0479C9.2465 19.5782 8.02684 20.8009 6.49897 21.4744C4.97148 20.8018 3.75208 19.5797 3.08285 18.0502C2.56422 16.8648 2.4994 15.6473 2.49999 14.3791L6.05185 12.6027Z" fill="#353566"/>
</svg>
