<svg width="24" height="24" viewBox="0 0 24 24" fill="none" xmlns="http://www.w3.org/2000/svg">
<path opacity="0.4" d="M11.5997 3H7.2C5.37983 3 4.46974 3 3.77453 3.35423C3.163 3.66582 2.66582 4.163 2.35423 4.77453C2 5.46974 2 6.37983 2 8.2V22.2811C2 22.6781 2.32187 23 2.71892 23C2.89964 23 3.07374 22.9319 3.20654 22.8093L8.41475 18.0018C8.79747 17.6485 8.98884 17.4718 9.20623 17.405C9.39766 17.3462 9.60234 17.3462 9.79377 17.405C10.0112 17.4718 10.2025 17.6485 10.5852 18.0018L15.7935 22.8093C15.9263 22.9319 16.1004 23 16.2811 23C16.6781 23 17 22.6781 17 22.2811V12.426C16.9428 12.4087 16.8866 12.3883 16.8314 12.365C13.6131 10.9762 11.5 7.75022 11.5 4.25787C11.5 3.75876 11.5305 3.34498 11.5997 3Z" fill="#353566"/>
<path fill-rule="evenodd" clip-rule="evenodd" d="M18.3934 0.708124C17.8303 0.426655 17.1676 0.426722 16.6045 0.708308L13.036 2.49303C12.7076 2.65726 12.5002 2.99282 12.5 3.35996C12.4993 4.77375 12.5894 6.13147 13.1667 7.451C13.9568 9.25683 15.4181 10.6575 17.2165 11.4423C17.3966 11.5209 17.6013 11.5209 17.7815 11.4423C19.5804 10.6573 21.042 9.25482 21.8321 7.44866C22.4088 6.13039 22.4993 4.77386 22.5 3.36139C22.5002 2.99349 22.2924 2.6571 21.9633 2.49261L18.3934 0.708124ZM17.0518 1.60269C17.3334 1.4619 17.6647 1.46186 17.9463 1.6026L21.5 3.379C21.4994 4.64649 21.4342 5.86329 20.916 7.04787C20.2465 8.57817 19.0268 9.80095 17.499 10.4744C15.9715 9.80178 14.7521 8.57975 14.0828 7.05016C13.5642 5.86482 13.4994 4.64735 13.5 3.37907L17.0518 1.60269Z" fill="#353566"/>
<path d="M11.7461 2.5C11.6353 2.77046 11.5657 3.0986 11.5299 3.5H7.2C6.28166 3.5 5.62298 3.50039 5.10612 3.54262C4.5951 3.58437 4.2669 3.66452 4.00153 3.79973C3.48408 4.06338 3.06338 4.48408 2.79973 5.00153C2.66452 5.2669 2.58437 5.5951 2.54262 6.10612C2.50039 6.62298 2.5 7.28166 2.5 8.2V22.2811C2.5 22.402 2.59801 22.5 2.71892 22.5C2.77395 22.5 2.82696 22.4793 2.8674 22.4419L8.08908 17.6219C8.26893 17.4559 8.4248 17.312 8.5633 17.203C8.71006 17.0875 8.86794 16.9859 9.05935 16.9271C9.34649 16.8388 9.65351 16.8388 9.94065 16.9271C10.1321 16.9859 10.2899 17.0875 10.4367 17.203C10.5752 17.312 10.7311 17.4559 10.9109 17.6219L16.1326 22.4419C16.173 22.4793 16.2261 22.5 16.2811 22.5C16.402 22.5 16.5 22.402 16.5 22.2811V12.2136C16.6091 12.2662 16.7196 12.3167 16.8314 12.365C17.0425 12.4545 17.2706 12.4995 17.5 12.4991V22.2811C17.5 22.9543 16.9543 23.5 16.2811 23.5C15.9747 23.5 15.6795 23.3846 15.4543 23.1767L10.2461 18.3692C10.0489 18.1872 9.92208 18.0706 9.81832 17.9889C9.71938 17.9111 9.67287 17.891 9.64688 17.883C9.55117 17.8536 9.44883 17.8536 9.35312 17.883C9.32713 17.891 9.28062 17.9111 9.18168 17.9889C9.07792 18.0706 8.95106 18.1872 8.75389 18.3692L3.54568 23.1767C3.32052 23.3846 3.02534 23.5 2.71892 23.5C2.04573 23.5 1.5 22.9543 1.5 22.2811V8.17767C1.5 7.28649 1.49999 6.58703 1.54594 6.02469C1.59274 5.45183 1.68971 4.97738 1.90873 4.54754C2.26825 3.84193 2.84193 3.26825 3.54754 2.90873C3.97738 2.68971 4.45183 2.59274 5.02469 2.54594C5.58703 2.49999 6.28648 2.5 7.17765 2.5H11.7461Z" fill="#353566"/>
</svg>
