<svg width="24" height="24" viewBox="0 0 24 24" fill="none" xmlns="http://www.w3.org/2000/svg">
<path opacity="0.4" d="M14.2539 3.07787C14.2513 3.13492 14.25 3.19231 14.25 3.25C14.25 4.08691 14.5224 4.95584 14.9839 5.57885C15.4453 6.20186 15.8891 6.70098 15.8891 6.70098L14.6546 7.58923C13.6312 8.32556 12.8677 9.38135 12.5474 10.6261C12.4318 11.0752 12.5304 11.5525 12.8145 11.919C13.0986 12.2855 13.5363 12.5 14 12.5H17V22.2811C17 22.6781 16.6781 23 16.2811 23C16.1004 23 15.9263 22.9319 15.7935 22.8093L10.5852 18.0018C10.2025 17.6485 10.0112 17.4718 9.79377 17.405C9.60234 17.3462 9.39766 17.3462 9.20623 17.405C8.98884 17.4718 8.79748 17.6485 8.41476 18.0018L3.20654 22.8093C3.07374 22.9319 2.89964 23 2.71892 23C2.32187 23 2 22.6781 2 22.2811V8.2C2 6.37983 2 5.46974 2.35423 4.77453C2.66582 4.163 3.163 3.66582 3.77453 3.35423C4.46974 3 5.37983 3 7.2 3H11.8C12.8985 3 13.6655 3 14.2539 3.07787Z" fill="#353566"/>
<path fill-rule="evenodd" clip-rule="evenodd" d="M18 0.5C16.4812 0.5 15.25 1.73122 15.25 3.25C15.25 4.76878 16.4812 6 18 6C19.5188 6 20.75 4.76878 20.75 3.25C20.75 1.73122 19.5188 0.5 18 0.5ZM16.25 3.25C16.25 2.2835 17.0335 1.5 18 1.5C18.9665 1.5 19.75 2.2835 19.75 3.25C19.75 4.2165 18.9665 5 18 5C17.0335 5 16.25 4.2165 16.25 3.25Z" fill="#353566"/>
<path d="M14.3095 2.58086C14.2704 2.79799 14.25 3.02161 14.25 3.25C14.25 3.36107 14.2548 3.47271 14.2642 3.58426C14.1521 3.56747 14.0294 3.55369 13.8939 3.54262C13.377 3.50039 12.7183 3.5 11.8 3.5H7.2C6.28166 3.5 5.62298 3.50039 5.10612 3.54262C4.5951 3.58437 4.2669 3.66452 4.00153 3.79973C3.48408 4.06338 3.06338 4.48408 2.79973 5.00153C2.66452 5.2669 2.58437 5.5951 2.54262 6.10612C2.50039 6.62298 2.5 7.28166 2.5 8.2V22.2811C2.5 22.402 2.59801 22.5 2.71892 22.5C2.77395 22.5 2.82696 22.4793 2.8674 22.4419L8.08908 17.6219C8.26893 17.4559 8.4248 17.312 8.5633 17.203C8.71006 17.0875 8.86794 16.9859 9.05935 16.9271C9.34649 16.8388 9.65351 16.8388 9.94065 16.9271C10.1321 16.9859 10.2899 17.0875 10.4367 17.203C10.5752 17.312 10.7311 17.4559 10.9109 17.6219L16.1326 22.4419C16.173 22.4793 16.2261 22.5 16.2811 22.5C16.402 22.5 16.5 22.402 16.5 22.2811V12.5H17.5V22.2811C17.5 22.9543 16.9543 23.5 16.2811 23.5C15.9747 23.5 15.6795 23.3846 15.4543 23.1767L10.2461 18.3692C10.0489 18.1872 9.92208 18.0706 9.81832 17.9889C9.71938 17.9111 9.67287 17.891 9.64688 17.883C9.55117 17.8536 9.44883 17.8536 9.35312 17.883C9.32713 17.891 9.28062 17.9111 9.18168 17.9889C9.07792 18.0706 8.95106 18.1872 8.75389 18.3692L3.54568 23.1767C3.32052 23.3846 3.02534 23.5 2.71892 23.5C2.04573 23.5 1.5 22.9543 1.5 22.2811V8.17767C1.5 7.28649 1.49999 6.58703 1.54594 6.02469C1.59274 5.45183 1.68971 4.97738 1.90873 4.54754C2.26825 3.84193 2.84193 3.26825 3.54754 2.90873C3.97738 2.68971 4.45183 2.59274 5.02469 2.54594C5.58703 2.49999 6.28649 2.5 7.17766 2.5H11.8223C12.7135 2.5 13.413 2.49999 13.9753 2.54594C14.0906 2.55536 14.2018 2.5668 14.3095 2.58086Z" fill="#353566"/>
<path d="M18 8.5C16.3513 8.5 14.8682 9.63272 14.4842 11.1246C14.4154 11.3921 14.1428 11.553 13.8754 11.4842C13.6079 11.4154 13.4469 11.1428 13.5158 10.8754C14.0199 8.91683 15.921 7.5 18 7.5C20.0789 7.5 21.9801 8.91683 22.4842 10.8754C22.553 11.1428 22.3921 11.4154 22.1246 11.4842C21.8572 11.553 21.5846 11.3921 21.5158 11.1246C21.1318 9.63272 19.6487 8.5 18 8.5Z" fill="#353566"/>
</svg>
