<svg width="24" height="24" viewBox="0 0 24 24" fill="none" xmlns="http://www.w3.org/2000/svg">
<path opacity="0.4" d="M10.5805 3H7.2C5.37983 3 4.46974 3 3.77453 3.35423C3.163 3.66582 2.66582 4.163 2.35423 4.77453C2 5.46974 2 6.37983 2 8.2V22.2811C2 22.6781 2.32187 23 2.71892 23C2.89964 23 3.07374 22.9319 3.20654 22.8093L8.41475 18.0018C8.79747 17.6485 8.98884 17.4718 9.20623 17.405C9.39766 17.3462 9.60234 17.3462 9.79377 17.405C10.0112 17.4718 10.2025 17.6485 10.5852 18.0018L15.7935 22.8093C15.9263 22.9319 16.1004 23 16.2811 23C16.6781 23 17 22.6781 17 22.2811V11.5C16.7593 11.5 16.5186 11.4664 16.2916 11.3993C15.7484 11.2388 15.3326 10.8691 15.0851 10.649C15.0604 10.627 15.0372 10.6065 15.0159 10.5878C14.0221 9.71923 12.3645 8.21005 11.5148 7.03085C10.6252 5.79629 10.3424 4.3062 10.5805 3Z" fill="#353566"/>
<path fill-rule="evenodd" clip-rule="evenodd" d="M21.8641 1.8092C21.0491 0.70492 19.847 0.355591 18.9021 0.551743L18.9002 0.552146C18.166 0.70757 17.5143 1.05543 17 1.60069C16.4857 1.05543 15.8341 0.707567 15.0999 0.552142L15.0979 0.551743C14.153 0.355591 12.951 0.704925 12.136 1.8092C11.2957 2.94776 11.2186 4.90917 12.3262 6.4463C13.098 7.51746 14.6666 8.95435 15.6741 9.83495C15.6931 9.8516 15.712 9.86817 15.7307 9.88461C16.0093 10.129 16.2574 10.3465 16.5751 10.4404C16.8441 10.5199 17.1559 10.5199 17.425 10.4404C17.7426 10.3465 17.9907 10.129 18.2692 9.88465C18.288 9.86819 18.3069 9.85161 18.326 9.83494C19.3335 8.95434 20.902 7.51745 21.6739 6.44631C22.7815 4.90917 22.7044 2.94774 21.8641 1.8092ZM19.1063 1.53068C19.6641 1.41528 20.4738 1.6095 21.0595 2.40302C21.6202 3.16272 21.738 4.64672 20.8626 5.86169C20.1685 6.82481 18.6891 8.18942 17.6679 9.08201C17.2983 9.40506 17.2221 9.45759 17.1415 9.48141C17.0575 9.50626 16.9426 9.50626 16.8585 9.48141C16.7779 9.4576 16.7018 9.40507 16.3322 9.08202C15.3109 8.18943 13.8315 6.82481 13.1375 5.86171C12.262 4.64672 12.3799 3.16271 12.9406 2.40303C13.5262 1.60951 14.336 1.41528 14.8938 1.53068C15.6317 1.68709 16.1513 2.09352 16.6039 2.68116C16.6985 2.80408 16.8449 2.8761 17 2.8761C17.1552 2.8761 17.3015 2.80408 17.3962 2.68116C17.8487 2.09352 18.3684 1.68709 19.1063 1.53068Z" fill="#353566"/>
<path d="M10.6999 2.5C10.6046 2.82 10.5427 3.15579 10.5156 3.5H7.2C6.28166 3.5 5.62298 3.50039 5.10612 3.54262C4.5951 3.58437 4.2669 3.66452 4.00153 3.79973C3.48408 4.06338 3.06338 4.48408 2.79973 5.00153C2.66452 5.2669 2.58437 5.5951 2.54262 6.10612C2.50039 6.62298 2.5 7.28166 2.5 8.2V22.2811C2.5 22.402 2.59801 22.5 2.71892 22.5C2.77395 22.5 2.82696 22.4793 2.8674 22.4419L8.08908 17.6219C8.26893 17.4559 8.4248 17.312 8.5633 17.203C8.71006 17.0875 8.86794 16.9859 9.05935 16.9271C9.34649 16.8388 9.65351 16.8388 9.94065 16.9271C10.1321 16.9859 10.2899 17.0875 10.4367 17.203C10.5752 17.312 10.7311 17.4559 10.9109 17.6219L16.1326 22.4419C16.173 22.4793 16.2261 22.5 16.2811 22.5C16.402 22.5 16.5 22.402 16.5 22.2811V11.4508C16.8271 11.5164 17.1729 11.5164 17.5 11.4508V22.2811C17.5 22.9543 16.9543 23.5 16.2811 23.5C15.9747 23.5 15.6795 23.3846 15.4543 23.1767L10.2461 18.3692C10.0489 18.1872 9.92208 18.0706 9.81832 17.9889C9.71938 17.9111 9.67287 17.891 9.64688 17.883C9.55117 17.8536 9.44883 17.8536 9.35312 17.883C9.32713 17.891 9.28062 17.9111 9.18168 17.9889C9.07792 18.0706 8.95106 18.1872 8.75389 18.3692L3.54568 23.1767C3.32052 23.3846 3.02534 23.5 2.71892 23.5C2.04573 23.5 1.5 22.9543 1.5 22.2811V8.17767C1.5 7.28649 1.49999 6.58703 1.54594 6.02469C1.59274 5.45183 1.68971 4.97738 1.90873 4.54754C2.26825 3.84193 2.84193 3.26825 3.54754 2.90873C3.97738 2.68971 4.45183 2.59274 5.02469 2.54594C5.58703 2.49999 6.28649 2.5 7.17766 2.5H10.6999Z" fill="#353566"/>
</svg>
