<svg width="24" height="24" viewBox="0 0 24 24" fill="none" xmlns="http://www.w3.org/2000/svg">
<path opacity="0.4" d="M4 11.2322V5.5C4 3.567 5.567 2 7.5 2H20.5C21.3284 2 22 2.67157 22 3.5V15.5C22 16.3284 21.3284 17 20.5 17H13.5C13.5 13.4101 10.5899 10.5 7 10.5C5.91787 10.5 4.89751 10.7644 4 11.2322Z" fill="#353566"/>
<path d="M4.5 5.5C4.5 3.84315 5.84315 2.5 7.5 2.5H20.5C21.0523 2.5 21.5 2.94772 21.5 3.5V15.5C21.5 16.0523 21.0523 16.5 20.5 16.5H13.4811C13.4936 16.665 13.5 16.8318 13.5 17C13.5 17.1682 13.4936 17.335 13.4811 17.5H19.5V21.5H11.6904C11.3251 21.8807 10.9139 22.217 10.4657 22.5H22C22.2761 22.5 22.5 22.2761 22.5 22C22.5 21.7239 22.2761 21.5 22 21.5H20.5V17.5C21.6046 17.5 22.5 16.6046 22.5 15.5V3.5C22.5 2.39543 21.6046 1.5 20.5 1.5H7.5C5.29086 1.5 3.5 3.29086 3.5 5.5V11.5218C3.81575 11.3197 4.15013 11.1441 4.5 10.9982V5.5Z" fill="#353566"/>
<path d="M7.5 15.7071L8.64641 16.8535C8.84167 17.0488 9.15826 17.0488 9.35352 16.8535C9.54878 16.6583 9.54878 16.3417 9.35352 16.1464L7.35353 14.1464C7.25976 14.0527 7.13258 14 6.99997 14C6.86737 14 6.74019 14.0527 6.64642 14.1464L4.6464 16.1464C4.45114 16.3417 4.45114 16.6583 4.6464 16.8536C4.84166 17.0488 5.15824 17.0488 5.35351 16.8536L6.5 15.7071L6.5 19.5C6.5 19.7761 6.72386 20 7 20C7.27614 20 7.5 19.7761 7.5 19.5L7.5 15.7071Z" fill="#353566"/>
<path fill-rule="evenodd" clip-rule="evenodd" d="M7 11.5C3.96243 11.5 1.5 13.9624 1.5 17C1.5 20.0376 3.96243 22.5 7 22.5C10.0376 22.5 12.5 20.0376 12.5 17C12.5 13.9624 10.0376 11.5 7 11.5ZM2.5 17C2.5 14.5147 4.51472 12.5 7 12.5C9.48528 12.5 11.5 14.5147 11.5 17C11.5 19.4853 9.48528 21.5 7 21.5C4.51472 21.5 2.5 19.4853 2.5 17Z" fill="#353566"/>
</svg>
