<svg width="24" height="24" viewBox="0 0 24 24" fill="none" xmlns="http://www.w3.org/2000/svg">
<path opacity="0.4" fill-rule="evenodd" clip-rule="evenodd" d="M13.2927 5.68823C12.6752 4.77059 11.3248 4.77059 10.7073 5.68823L10.4019 6.14196L9.86521 6.03703C9.44087 5.95408 9.03651 6.04946 8.71401 6.26126C6.57437 5.99191 4.43955 5.55481 3.16954 5.27244C2.48325 5.11986 1.78298 5.4521 1.57487 6.12364C1.30259 7.00226 1 8.34991 1 10.0002C1 11.6504 1.30259 12.998 1.57487 13.8767C1.78298 14.5482 2.48325 14.8804 3.16954 14.7279C4.43962 14.4455 6.57461 14.0083 8.71438 13.739C8.71438 13.739 9.00442 13.9722 9.5 13.9916V18.9999L12 16.8181L14.5 18.909V13.9916C15.0001 13.9916 15.2856 13.739 15.2856 13.739C17.4254 14.0083 19.5604 14.4455 20.8305 14.7279C21.5168 14.8804 22.217 14.5482 22.4251 13.8767C22.6974 12.998 23 11.6504 23 10.0002C23 8.34991 22.6974 7.00226 22.4251 6.12364C22.217 5.4521 21.5168 5.11986 20.8305 5.27244C19.5604 5.55481 17.4256 5.99191 15.286 6.26126C14.9635 6.04946 14.5591 5.95408 14.1348 6.03703L13.5981 6.14196L13.2927 5.68823ZM12 11.75C12.9665 11.75 13.75 10.9665 13.75 10C13.75 9.0335 12.9665 8.25 12 8.25C11.0335 8.25 10.25 9.0335 10.25 10C10.25 10.9665 11.0335 11.75 12 11.75Z" fill="#353566"/>
<path fill-rule="evenodd" clip-rule="evenodd" d="M12 7.74994C10.7574 7.74994 9.75 8.7573 9.75 9.99994C9.75 11.2426 10.7574 12.2499 12 12.2499C13.2426 12.2499 14.25 11.2426 14.25 9.99994C14.25 8.7573 13.2426 7.74994 12 7.74994ZM10.75 9.99994C10.75 9.30958 11.3096 8.74994 12 8.74994C12.6904 8.74994 13.25 9.30958 13.25 9.99994C13.25 10.6903 12.6904 11.2499 12 11.2499C11.3096 11.2499 10.75 10.6903 10.75 9.99994Z" fill="#353566"/>
<path fill-rule="evenodd" clip-rule="evenodd" d="M10.2925 5.40902C11.1082 4.19691 12.8918 4.19691 13.7075 5.40902L13.8277 5.58754L14.0389 5.54626C14.5282 5.45061 14.9974 5.53447 15.3921 5.74345C17.4454 5.47643 19.4836 5.05946 20.7219 4.78414C21.6172 4.58508 22.6046 5.01341 22.9027 5.97541C23.1865 6.891 23.5 8.28919 23.5 9.99992C23.5 11.7107 23.1865 13.1088 22.9027 14.0244C22.6046 14.9864 21.6172 15.4148 20.7219 15.2157C19.4836 14.9404 17.4454 14.5234 15.3921 14.2564C15.2682 14.322 15.1369 14.3753 15 14.4146V18.909C15 19.1032 14.8876 19.2798 14.7117 19.362C14.5358 19.4442 14.3282 19.4171 14.1792 19.2926L12.0069 17.4757L9.82877 19.3767C9.68104 19.5056 9.4716 19.5363 9.2931 19.4551C9.1146 19.374 9 19.196 9 18.9999V14.4146C8.86306 14.3753 8.73179 14.322 8.60786 14.2564C6.55461 14.5234 4.51641 14.9404 3.27805 15.2157C2.38276 15.4148 1.3954 14.9864 1.09728 14.0244C0.813538 13.1088 0.5 11.7107 0.5 9.99992C0.5 8.28919 0.813538 6.891 1.09728 5.97541C1.3954 5.01341 2.38276 4.58508 3.27806 4.78414C4.51642 5.05946 6.55464 5.47643 8.60791 5.74345C9.00261 5.53447 9.47182 5.45061 9.96114 5.54626L10.1723 5.58754L10.2925 5.40902ZM16.4537 7.96108C16.5474 7.48151 16.4687 7.02125 16.2688 6.63152C18.1114 6.36181 19.8511 6.00216 20.939 5.7603C21.4163 5.65419 21.8294 5.89034 21.9475 6.27142C22.2084 7.11306 22.5 8.41017 22.5 9.99992C22.5 11.5897 22.2084 12.8868 21.9475 13.7284C21.8294 14.1095 21.4163 14.3457 20.939 14.2395C19.8511 13.9977 18.1114 13.638 16.2688 13.3683C16.4687 12.9786 16.5474 12.5184 16.4537 12.0388L16.4124 11.8276L16.5909 11.7075C17.803 10.8918 17.803 9.1081 16.5909 8.29241L16.4124 8.17227L16.4537 7.96108ZM13.8277 14.4123L14 14.446V17.839L12.3208 16.4346C12.1321 16.2768 11.8566 16.2796 11.6712 16.4414L10 17.8999V14.446L10.1723 14.4123L10.2925 14.5909C11.1082 15.803 12.8918 15.803 13.7075 14.5909L13.8277 14.4123ZM7.54632 12.0388C7.45257 12.5184 7.53126 12.9786 7.73116 13.3683C5.88857 13.638 4.14887 13.9977 3.06102 14.2395C2.58374 14.3457 2.17056 14.1095 2.05246 13.7284C1.79164 12.8868 1.5 11.5897 1.5 9.99992C1.5 8.41017 1.79164 7.11306 2.05246 6.27142C2.17056 5.89034 2.58374 5.65419 3.06102 5.7603C4.14887 6.00216 5.88858 6.36181 7.73118 6.63152C7.53126 7.02125 7.45257 7.48151 7.54632 7.96107L7.58761 8.17227L7.40908 8.29241C6.19697 9.1081 6.19697 10.8918 7.40908 11.7075L7.58761 11.8276L7.54632 12.0388ZM12.8779 5.96733C12.4585 5.34414 11.5415 5.34414 11.1221 5.96733L10.8168 6.42105C10.7045 6.58783 10.5033 6.67118 10.306 6.63261L9.76928 6.52768C9.03208 6.38357 8.38363 7.03202 8.52774 7.76922L8.63267 8.30596C8.67124 8.50325 8.58789 8.70446 8.42111 8.8167L7.96739 9.12204C7.3442 9.54142 7.3442 10.4585 7.96739 10.8778L8.42111 11.1832C8.58789 11.2954 8.67124 11.4966 8.63267 11.6939L8.52774 12.2307C8.38363 12.9679 9.03208 13.6163 9.76928 13.4722L10.306 13.3673C10.5033 13.3287 10.7045 13.412 10.8168 13.5788L11.1221 14.0326C11.5415 14.6557 12.4585 14.6557 12.8779 14.0326L13.1832 13.5788C13.2955 13.412 13.4967 13.3287 13.694 13.3673L14.2307 13.4722C14.9679 13.6163 15.6164 12.9679 15.4723 12.2307L15.3673 11.6939C15.3288 11.4966 15.4121 11.2954 15.5789 11.1832L16.0326 10.8778C16.6558 10.4585 16.6558 9.54142 16.0326 9.12204L15.5789 8.8167C15.4121 8.70446 15.3288 8.50325 15.3673 8.30596L15.4723 7.76922C15.6164 7.03202 14.9679 6.38357 14.2307 6.52768L13.694 6.63261C13.4967 6.67118 13.2955 6.58783 13.1832 6.42105L12.8779 5.96733Z" fill="#353566"/>
</svg>
