<svg width="24" height="24" viewBox="0 0 24 24" fill="none" xmlns="http://www.w3.org/2000/svg">
<path opacity="0.4" d="M12 2.5C12.2761 2.5 12.5 2.72386 12.5 3V8.5H18C18.2761 8.5 18.5 8.72386 18.5 9C18.5 9.27614 18.2761 9.5 18 9.5H12.5V15C12.5 15.2761 12.2761 15.5 12 15.5C11.7239 15.5 11.5 15.2761 11.5 15V9.5H6C5.72386 9.5 5.5 9.27614 5.5 9C5.5 8.72386 5.72386 8.5 6 8.5H11.5V3C11.5 2.72386 11.7239 2.5 12 2.5Z" fill="#353566"/>
<path d="M5.5 21C5.5 20.7239 5.72386 20.5 6 20.5H18C18.2761 20.5 18.5 20.7239 18.5 21C18.5 21.2761 18.2761 21.5 18 21.5H6C5.72386 21.5 5.5 21.2761 5.5 21Z" fill="#353566"/>
</svg>
