<svg width="24" height="24" viewBox="0 0 24 24" fill="none" xmlns="http://www.w3.org/2000/svg">
<path opacity="0.4" d="M12 1.25C6.06294 1.25 1.25 6.06294 1.25 12C1.25 14.0416 1.81985 15.9523 2.80949 17.5793L2.02746 19.7298C1.51963 21.1264 2.8736 22.4804 4.27015 21.9725L6.42072 21.1905C8.04768 22.1802 9.9584 22.75 12 22.75C17.9371 22.75 22.75 17.9371 22.75 12C22.75 6.06294 17.9371 1.25 12 1.25Z" fill="#353566"/>
<path fill-rule="evenodd" clip-rule="evenodd" d="M9 9C9 7.40061 10.4286 6.25 12 6.25C13.5714 6.25 15 7.40061 15 9V10.2677C15.8481 10.389 16.5 11.1184 16.5 12V15.75C16.5 16.7165 15.7165 17.5 14.75 17.5H9.25C8.2835 17.5 7.5 16.7165 7.5 15.75V12C7.5 11.1184 8.15193 10.389 9 10.2677L9 9ZM12 7.75C11.0861 7.75 10.5 8.39025 10.5 9V10H13.5V9C13.5 8.39025 12.9139 7.75 12 7.75Z" fill="#353566"/>
</svg>
