<svg width="24" height="24" viewBox="0 0 24 24" fill="none" xmlns="http://www.w3.org/2000/svg">
<g opacity="0.4">
<path d="M12 1.25C10.1385 1.25 8.38538 1.72378 6.85698 2.55794C6.64953 2.67116 6.50758 2.87553 6.47392 3.10946C6.44026 3.34338 6.51883 3.57949 6.68594 3.7466L20.2534 17.3141C20.4205 17.4812 20.6566 17.5597 20.8905 17.5261C21.1245 17.4924 21.3288 17.3505 21.4421 17.143C22.2762 15.6146 22.75 13.8615 22.75 12C22.75 6.06294 17.9371 1.25 12 1.25Z" fill="#353566"/>
<path d="M5.45926 4.3986C5.31861 4.25795 5.12784 4.17893 4.92893 4.17893C4.73002 4.17893 4.53925 4.25795 4.3986 4.3986C2.45406 6.34315 1.25 9.03168 1.25 12C1.25 14.0416 1.81985 15.9523 2.80949 17.5793L2.02746 19.7298C1.51963 21.1264 2.8736 22.4804 4.27015 21.9725L6.42072 21.1905C8.04768 22.1802 9.9584 22.75 12 22.75C14.9683 22.75 17.6569 21.5459 19.6014 19.6014C19.8943 19.3085 19.8943 18.8336 19.6014 18.5407L5.45926 4.3986Z" fill="#353566"/>
</g>
<path d="M1.46967 1.46967C1.76256 1.17678 2.23744 1.17678 2.53033 1.46967L22.5303 21.4697C22.8232 21.7626 22.8232 22.2374 22.5303 22.5303C22.2374 22.8232 21.7626 22.8232 21.4697 22.5303L1.46967 2.53033C1.17678 2.23744 1.17678 1.76256 1.46967 1.46967Z" fill="#353566"/>
</svg>
