<svg width="24" height="24" viewBox="0 0 24 24" fill="none" xmlns="http://www.w3.org/2000/svg">
<path fill-rule="evenodd" clip-rule="evenodd" d="M4.25 11C4.25 6.71979 7.71979 3.25 12 3.25C15.7587 3.25 18.8916 5.92521 19.6 9.47575C21.9971 10.169 23.75 12.3791 23.75 15C23.75 18.1756 21.1756 20.75 18 20.75H5C2.37665 20.75 0.25 18.6234 0.25 16C0.25 13.6298 1.98608 11.665 4.25602 11.3079C4.25202 11.2057 4.25 11.1031 4.25 11ZM12 10.25C11.1716 10.25 10.5 10.9216 10.5 11.75C10.5 11.8262 10.5086 11.9012 10.5216 11.9702C10.5985 12.3772 10.3309 12.7695 9.92391 12.8464C9.5169 12.9233 9.1246 12.6557 9.04768 12.2487C9.02058 12.1053 9 11.9359 9 11.75C9 10.0931 10.3431 8.75 12 8.75C13.6569 8.75 15 10.0931 15 11.75C15 12.5867 14.6565 13.3446 14.1046 13.8879C13.8007 14.1871 13.4725 14.3695 13.258 14.4887C13.2223 14.5086 13.1897 14.5267 13.1609 14.5433C12.9539 14.6626 12.8762 14.7305 12.8106 14.8533C12.6155 15.2187 12.1611 15.3567 11.7957 15.1616C11.4304 14.9664 11.2924 14.512 11.4875 14.1467C11.7508 13.6538 12.12 13.412 12.4116 13.2438C12.4645 13.2133 12.5133 13.1858 12.5585 13.1602C12.7672 13.0424 12.9035 12.9654 13.0523 12.819C13.3295 12.546 13.5 12.1686 13.5 11.75C13.5 10.9216 12.8284 10.25 12 10.25ZM11 17C11 16.4477 11.4477 16 12 16C12.5523 16 13.0001 16.4477 13.0001 17C13.0001 17.5523 12.5523 18 12 18C11.4477 18 11 17.5523 11 17Z" fill="#353566"/>
</svg>
