<svg width="24" height="24" viewBox="0 0 24 24" fill="none" xmlns="http://www.w3.org/2000/svg">
<path d="M14.75 1.64994C14.75 1.50992 14.75 1.43992 14.7228 1.38644C14.6988 1.3394 14.6605 1.30115 14.6135 1.27718C14.56 1.24994 14.49 1.24994 14.35 1.24994L11.569 1.24997C10.9653 1.24996 10.467 1.24995 10.0611 1.28311C9.63956 1.31756 9.25203 1.39148 8.88803 1.57695C8.32354 1.86457 7.8646 2.32351 7.57698 2.888C7.39151 3.252 7.31759 3.63953 7.28315 4.0611C7.24998 4.467 7.24999 4.96527 7.25 5.569V14.4309C7.24999 15.0347 7.24998 15.5329 7.28315 15.9388C7.31759 16.3604 7.39151 16.7479 7.57698 17.1119C7.8646 17.6764 8.32354 18.1354 8.88803 18.423C9.25203 18.6085 9.63956 18.6824 10.0611 18.7168C10.467 18.75 10.9653 18.75 11.569 18.75H17.4309C18.0347 18.75 18.5329 18.75 18.9388 18.7168C19.3604 18.6824 19.7479 18.6085 20.1119 18.423C20.6764 18.1354 21.1354 17.6764 21.423 17.1119C21.6084 16.7479 21.6824 16.3604 21.7168 15.9388C21.75 15.5329 21.75 15.0347 21.75 14.431L21.75 8.64996C21.75 8.50994 21.75 8.43994 21.7227 8.38646C21.6988 8.33942 21.6605 8.30117 21.6135 8.2772C21.56 8.24995 21.49 8.24995 21.35 8.24995H17C15.7574 8.24995 14.75 7.2426 14.75 5.99995V1.64994Z" fill="#353566"/>
<path d="M21.2321 6.74995C21.3947 6.74995 21.5033 6.58431 21.4184 6.44567C21.278 6.21651 21.0875 6.02644 20.8715 5.81085L17.1891 2.12838C16.9735 1.91239 16.7834 1.72196 16.5543 1.58153C16.4156 1.49658 16.25 1.6052 16.25 1.76779V5.99995C16.25 6.41417 16.5858 6.74995 17 6.74995H21.2321Z" fill="#353566"/>
<path d="M5.70552 6.94071C6.07458 6.75266 6.22133 6.30103 6.03328 5.93196C5.84523 5.56289 5.3936 5.41615 5.02453 5.6042C4.41301 5.91579 3.91582 6.41297 3.60423 7.0245C3.40514 7.41524 3.3244 7.83364 3.28655 8.2969C3.24999 8.74446 3.24999 9.29517 3.25 9.96853V18.0314C3.24999 18.7048 3.24999 19.2555 3.28655 19.703C3.3244 20.1663 3.40514 20.5847 3.60423 20.9754C3.91582 21.587 4.41301 22.0842 5.02453 22.3957C5.41527 22.5948 5.83367 22.6756 6.29693 22.7134C6.74449 22.75 7.2952 22.75 7.96856 22.75H13.0314C13.7048 22.75 14.2555 22.75 14.703 22.7134C15.1663 22.6756 15.5847 22.5948 15.9754 22.3957C16.5869 22.0842 17.0841 21.587 17.3957 20.9754C17.5838 20.6064 17.437 20.1547 17.068 19.9667C16.6989 19.7786 16.2473 19.9254 16.0592 20.2945C15.8914 20.6237 15.6237 20.8915 15.2944 21.0592C15.1504 21.1326 14.9514 21.1881 14.5809 21.2184C14.2016 21.2494 13.7124 21.25 13 21.25H8C7.28756 21.25 6.79834 21.2494 6.41908 21.2184C6.04858 21.1881 5.84956 21.1326 5.70552 21.0592C5.37623 20.8915 5.10852 20.6237 4.94074 20.2945C4.86735 20.1504 4.81184 19.9514 4.78157 19.5809C4.75058 19.2016 4.75 18.7124 4.75 18V9.99997C4.75 9.28753 4.75058 8.7983 4.78157 8.41905C4.81184 8.04855 4.86735 7.84952 4.94074 7.70549C5.10852 7.3762 5.37623 7.10849 5.70552 6.94071Z" fill="#353566"/>
</svg>
