<svg width="24" height="24" viewBox="0 0 24 24" fill="none" xmlns="http://www.w3.org/2000/svg">
<path d="M10.75 1.5C10.75 1.36193 10.6381 1.25 10.5 1.25H6.36821C5.62513 1.24999 5.02197 1.24999 4.53273 1.28996C4.02778 1.33121 3.57851 1.41876 3.16103 1.63148C2.50247 1.96703 1.96704 2.50247 1.63148 3.16103C1.41876 3.57851 1.33121 4.02778 1.28996 4.53273C1.24999 5.02196 1.24999 5.62512 1.25 6.36819V17.6318C1.24999 18.3749 1.24999 18.978 1.28996 19.4673C1.33121 19.9722 1.41876 20.4215 1.63148 20.839C1.96704 21.4975 2.50247 22.033 3.16104 22.3685C3.82759 22.7082 4.61574 22.7406 5.63883 22.7483C5.87654 22.75 6.10101 22.639 6.24387 22.449C6.38673 22.2591 6.43107 22.0126 6.36338 21.7847C6.28978 21.537 6.25 21.2738 6.25 21V17C6.25 15.4812 7.48122 14.25 9 14.25H10C10.7029 14.25 11.3426 14.5127 11.8292 14.9465C12.1081 15.1952 12.5277 15.2006 12.8129 14.9591C13.3359 14.5163 14.0109 14.25 14.75 14.25H15.25C15.8689 14.25 16.4419 14.4366 16.9187 14.7565C17.203 14.9472 17.5803 14.9212 17.8358 14.6934C17.9734 14.5707 18.13 14.4697 18.3003 14.3953C18.5734 14.2759 18.75 14.0061 18.75 13.708V9.50001C18.75 9.36194 18.6381 9.25001 18.5 9.25001H13.5C11.9812 9.25001 10.75 8.01879 10.75 6.50001V1.5Z" fill="#353566"/>
<path d="M18.4921 7.74984V7.74984C18.3822 7.57045 18.2341 7.42291 18.0958 7.28502L18.0617 7.25104L12.7489 1.93829L12.715 1.90423C12.5771 1.76587 12.4295 1.61781 12.2502 1.50788V1.50788L12.25 6.50001C12.25 7.19036 12.8096 7.75001 13.5 7.75001L18.4921 7.74984Z" fill="#353566"/>
<path d="M9 15.25C8.0335 15.25 7.25 16.0335 7.25 17V21C7.25 21.9665 8.0335 22.75 9 22.75H10C10.9665 22.75 11.75 21.9665 11.75 21V20.75C11.75 20.3358 11.4142 20 11 20C10.5858 20 10.25 20.3358 10.25 20.75V21C10.25 21.1381 10.1381 21.25 10 21.25H9C8.86193 21.25 8.75 21.1381 8.75 21V17C8.75 16.8619 8.86193 16.75 9 16.75H10C10.1381 16.75 10.25 16.8619 10.25 17V17.25C10.25 17.6642 10.5858 18 11 18C11.4142 18 11.75 17.6642 11.75 17.25V17C11.75 16.0335 10.9665 15.25 10 15.25H9Z" fill="#353566"/>
<path fill-rule="evenodd" clip-rule="evenodd" d="M18.25 16C18.25 15.5858 18.5858 15.25 19 15.25H20.5C21.7426 15.25 22.75 16.2574 22.75 17.5V20.5C22.75 21.7427 21.7426 22.75 20.5 22.75H19C18.8011 22.75 18.6103 22.671 18.4697 22.5303C18.329 22.3897 18.25 22.1989 18.25 22V16ZM20 16.75C19.8619 16.75 19.75 16.8619 19.75 17V21C19.75 21.1381 19.8619 21.25 20 21.25H20.5C20.9142 21.25 21.25 20.9142 21.25 20.5V17.5C21.25 17.0858 20.9142 16.75 20.5 16.75H20Z" fill="#353566"/>
<path fill-rule="evenodd" clip-rule="evenodd" d="M14.75 15.25C13.6454 15.25 12.75 16.1454 12.75 17.25V22C12.75 22.4142 13.0858 22.75 13.5 22.75C13.9142 22.75 14.25 22.4142 14.25 22V20.5C14.25 20.3619 14.3619 20.25 14.5 20.25H15.5C15.6381 20.25 15.75 20.3619 15.75 20.5V22C15.75 22.4142 16.0858 22.75 16.5 22.75C16.9142 22.75 17.25 22.4142 17.25 22V17.25C17.25 16.1454 16.3546 15.25 15.25 15.25H14.75ZM15.75 18.5C15.75 18.6381 15.6381 18.75 15.5 18.75H14.5C14.3619 18.75 14.25 18.6381 14.25 18.5V17.25C14.25 16.9739 14.4739 16.75 14.75 16.75H15.25C15.5261 16.75 15.75 16.9739 15.75 17.25V18.5Z" fill="#353566"/>
</svg>
