<svg width="24" height="24" viewBox="0 0 24 24" fill="none" xmlns="http://www.w3.org/2000/svg">
<path d="M8.48389 13.7339C8.90692 13.3109 9.59254 13.3109 10.0156 13.7339C10.4386 14.1569 10.4386 14.8425 10.0156 15.2656C9.59254 15.6886 8.90692 15.6886 8.48389 15.2656C8.06087 14.8425 8.06087 14.1569 8.48389 13.7339Z" fill="#353566"/>
<path fill-rule="evenodd" clip-rule="evenodd" d="M12.7228 1.38656C12.75 1.44004 12.75 1.51005 12.75 1.65006V6.49995C12.75 8.01873 13.9812 9.24995 15.5 9.24995H20.35C20.49 9.24995 20.56 9.24995 20.6135 9.2772C20.6605 9.30117 20.6988 9.33941 20.7228 9.38645C20.75 9.43993 20.75 9.50993 20.75 9.64995V17.632C20.75 18.375 20.75 18.9781 20.71 19.4673C20.6688 19.9723 20.5812 20.4216 20.3685 20.839C20.033 21.4976 19.4975 22.033 18.839 22.3686C18.4215 22.5813 17.9722 22.6688 17.4673 22.7101C16.9781 22.7501 16.3748 22.7501 15.6318 22.7501H8.36811C7.62507 22.7501 7.02195 22.7501 6.53273 22.7101C6.02778 22.6688 5.57851 22.5813 5.16104 22.3686C4.50247 22.033 3.96704 21.4976 3.63148 20.839C3.41876 20.4216 3.33121 19.9723 3.28996 19.4673C3.24999 18.9781 3.24999 18.3749 3.25 17.6319V6.36824C3.24999 5.62517 3.24999 5.02202 3.28996 4.53279C3.33121 4.02784 3.41876 3.57857 3.63148 3.1611C3.96704 2.50253 4.50247 1.9671 5.16103 1.63154C5.57851 1.41882 6.02778 1.33128 6.53273 1.29002C7.02196 1.25005 7.62512 1.25005 8.36819 1.25006H12.35C12.49 1.25006 12.56 1.25006 12.6135 1.27731C12.6605 1.30128 12.6988 1.33952 12.7228 1.38656ZM7.42323 12.6732C8.43204 11.6644 10.0674 11.6644 11.0762 12.6732C11.3877 12.9847 11.603 13.3559 11.7221 13.75H13.0833V13.1249C13.0833 12.7107 13.419 12.3749 13.8333 12.3749C14.2475 12.3749 14.5833 12.7107 14.5833 13.1249V13.75H15.8333V12.6666C15.8333 12.2524 16.169 11.9166 16.5833 11.9166C16.9975 11.9166 17.3333 12.2524 17.3333 12.6666V14.5C17.3333 14.9142 16.9975 15.25 16.5833 15.25H13.8509L13.8333 15.2502L13.8156 15.25H11.722C11.6028 15.6438 11.3876 16.0149 11.0762 16.3262C10.0674 17.335 8.43204 17.335 7.42323 16.3262C6.41442 15.3174 6.41442 13.682 7.42323 12.6732Z" fill="#353566"/>
<path d="M20.0958 7.28508C20.2341 7.42297 20.3822 7.57051 20.4921 7.7499L15.5 7.74995C14.8096 7.74995 14.25 7.1903 14.25 6.49995L14.2502 1.50794C14.4296 1.61787 14.5771 1.76594 14.715 1.9043L14.749 1.93836L20.0617 7.2511L20.0958 7.28508Z" fill="#353566"/>
</svg>
