<svg width="24" height="24" viewBox="0 0 24 24" fill="none" xmlns="http://www.w3.org/2000/svg">
<g clip-path="url(#clip0_9001_275588)">
<path fill-rule="evenodd" clip-rule="evenodd" d="M11 0.25C5.06294 0.25 0.25 5.06294 0.25 11C0.25 13.0416 0.819848 14.9523 1.80949 16.5793L1.02746 18.7298C0.519627 20.1264 1.8736 21.4804 3.27015 20.9725L5.42072 20.1905C6.9265 21.1064 8.67553 21.6629 10.5469 21.7406C10.8014 21.7512 11.0439 21.6318 11.1908 21.4236C11.3377 21.2154 11.3688 20.9469 11.2735 20.7107C10.9361 19.8743 10.75 18.9598 10.75 18C10.75 13.9959 13.9959 10.75 18 10.75C18.9598 10.75 19.8743 10.9361 20.7107 11.2735C20.9469 11.3688 21.2154 11.3377 21.4236 11.1908C21.6318 11.0439 21.7512 10.8014 21.7406 10.5469C21.5028 4.81968 16.7853 0.25 11 0.25ZM7 9.75H15C15.4142 9.75 15.75 9.41421 15.75 9C15.75 8.58579 15.4142 8.25 15 8.25H7C6.58579 8.25 6.25 8.58579 6.25 9C6.25 9.41421 6.58579 9.75 7 9.75ZM7 13.75H11.221C11.5435 13.2367 11.9227 12.7625 12.3499 12.3364C12.2454 12.2812 12.1264 12.25 12 12.25H7C6.58579 12.25 6.25 12.5858 6.25 13C6.25 13.4142 6.58579 13.75 7 13.75Z" fill="#353566"/>
<path fill-rule="evenodd" clip-rule="evenodd" d="M12.25 18C12.25 14.8244 14.8244 12.25 18 12.25C21.1756 12.25 23.75 14.8244 23.75 18C23.75 21.1756 21.1756 23.75 18 23.75C14.8244 23.75 12.25 21.1756 12.25 18ZM15.5581 17.942C15.314 17.6979 15.314 17.3022 15.5581 17.0581L17.5581 15.0581C17.6753 14.9408 17.8343 14.875 18 14.875C18.1658 14.875 18.3248 14.9408 18.442 15.0581L20.442 17.058C20.686 17.3021 20.686 17.6979 20.442 17.9419C20.1979 18.186 19.8021 18.186 19.5581 17.9419L18.625 17.0089V20.5C18.625 20.8452 18.3452 21.125 18 21.125C17.6548 21.125 17.375 20.8452 17.375 20.5V17.0089L16.4419 17.942C16.1979 18.186 15.8021 18.186 15.5581 17.942Z" fill="#353566"/>
</g>
<defs>
<clipPath id="clip0_9001_275588">
<rect width="24" height="24" fill="white"/>
</clipPath>
</defs>
</svg>
