<svg width="24" height="24" viewBox="0 0 24 24" fill="none" xmlns="http://www.w3.org/2000/svg">
<g clip-path="url(#clip0_9001_275728)">
<path fill-rule="evenodd" clip-rule="evenodd" d="M11 0.25C5.06294 0.25 0.25 5.06294 0.25 11C0.25 13.0416 0.819848 14.9523 1.80949 16.5793L1.02746 18.7298C0.519627 20.1264 1.8736 21.4804 3.27015 20.9725L5.42072 20.1905C7.04768 21.1802 8.9584 21.75 11 21.75C12.8173 21.75 14.5313 21.2985 16.0338 20.5009C16.1894 20.4182 16.311 20.2835 16.3772 20.1202C16.4335 19.9813 16.509 19.8467 16.605 19.72C16.6807 19.6201 16.7723 19.5233 16.8997 19.3905L16.9011 19.3889C16.9352 19.3534 16.9719 19.3151 17.0086 19.2761C17.2535 19.0159 17.2808 18.6191 17.0739 18.3278C16.5492 17.5892 16.2501 16.8963 16.2501 16.0817C16.2501 14.666 17.1159 13.5148 18.4443 12.8815C18.6101 12.8024 18.7412 12.6653 18.8126 12.496C19.1406 11.7184 19.7521 11.2501 20.5001 11.2501C20.6208 11.2501 20.7347 11.2618 20.8419 11.2834C21.0681 11.3289 21.3026 11.2679 21.4779 11.1178C21.6531 10.9677 21.7495 10.7453 21.7392 10.5148C21.4852 4.80263 16.7745 0.25 11 0.25ZM6.25 9C6.25 9.41421 6.58579 9.75 7 9.75H15C15.4142 9.75 15.75 9.41421 15.75 9C15.75 8.58579 15.4142 8.25 15 8.25H7C6.58579 8.25 6.25 8.58579 6.25 9ZM7 13.75H12C12.4142 13.75 12.75 13.4142 12.75 13C12.75 12.5858 12.4142 12.25 12 12.25H7C6.58579 12.25 6.25 12.5858 6.25 13C6.25 13.4142 6.58579 13.75 7 13.75Z" fill="#353566"/>
<path d="M20.5 12.25C20.9143 12.25 21.25 12.5858 21.25 13V13.5489C21.5143 13.5879 21.7685 13.6533 22.0266 13.7556C22.4998 13.9433 22.9411 14.2381 23.4528 14.6256C23.783 14.8756 23.848 15.346 23.598 15.6763C23.3479 16.0065 22.8775 16.0715 22.5473 15.8214C22.059 15.4517 21.7503 15.2597 21.4735 15.15C21.2143 15.0471 20.9407 15 20.5 15C19.8566 15 19.4008 15.1521 19.1275 15.35C18.8766 15.5317 18.75 15.7677 18.75 16.0817C18.75 16.461 18.916 16.6783 19.2414 16.8604C19.6142 17.0691 20.1186 17.1761 20.6233 17.2602C21.1186 17.3427 21.8642 17.4795 22.4914 17.8306C23.166 18.2083 23.75 18.8667 23.75 19.9183C23.75 20.7329 23.3766 21.4128 22.7525 21.8648C22.3312 22.1699 21.8154 22.3592 21.25 22.4452V23C21.25 23.4142 20.9143 23.75 20.5 23.75C20.0858 23.75 19.75 23.4142 19.75 23V22.4511C19.4857 22.4121 19.2316 22.3467 18.9735 22.2443C18.5003 22.0566 18.059 21.7618 17.5473 21.3743C17.2171 21.1243 17.1521 20.6539 17.4021 20.3236C17.6522 19.9934 18.1226 19.9284 18.4528 20.1785C18.9411 20.5482 19.2498 20.7402 19.5266 20.85C19.7858 20.9528 20.0594 21 20.5 21C21.1435 21 21.5993 20.8479 21.8726 20.6499C22.1235 20.4682 22.25 20.2322 22.25 19.9183C22.25 19.539 22.0841 19.3217 21.7587 19.1395C21.3859 18.9308 20.8815 18.8239 20.3767 18.7398C19.8815 18.6572 19.1359 18.5204 18.5087 18.1693C17.8341 17.7917 17.25 17.1332 17.25 16.0817C17.25 15.267 17.6235 14.5872 18.2476 14.1352C18.6689 13.8301 19.1846 13.6408 19.75 13.5548V13C19.75 12.5858 20.0858 12.25 20.5 12.25Z" fill="#353566"/>
</g>
<defs>
<clipPath id="clip0_9001_275728">
<rect width="24" height="24" fill="white"/>
</clipPath>
</defs>
</svg>
