<svg width="24" height="24" viewBox="0 0 24 24" fill="none" xmlns="http://www.w3.org/2000/svg">
<path fill-rule="evenodd" clip-rule="evenodd" d="M1.25 12C1.25 6.06294 6.06294 1.25 12 1.25C17.9371 1.25 22.75 6.06294 22.75 12C22.75 17.9371 17.9371 22.75 12 22.75C9.9584 22.75 8.04768 22.1802 6.42072 21.1905L4.27015 21.9725C2.8736 22.4804 1.51963 21.1264 2.02746 19.7298L2.80949 17.5793C1.81985 15.9523 1.25 14.0416 1.25 12ZM16 12.75C16.4142 12.75 16.75 12.4142 16.75 12V11C16.75 9.75736 15.7426 8.75 14.5 8.75H10.3106L11.0303 8.03033C11.3232 7.73744 11.3232 7.26256 11.0303 6.96967C10.7374 6.67678 10.2625 6.67678 9.96961 6.96967L7.96961 8.96967C7.75511 9.18417 7.69094 9.50676 7.80703 9.78701C7.92311 10.0673 8.19659 10.25 8.49994 10.25H14.5C14.9142 10.25 15.25 10.5858 15.25 11V12C15.25 12.4142 15.5858 12.75 16 12.75ZM8 11.25C7.58579 11.25 7.25 11.5858 7.25 12V13C7.25 14.2426 8.25736 15.25 9.5 15.25H13.6893L12.9696 15.9697C12.6767 16.2626 12.6767 16.7374 12.9696 17.0303C13.2625 17.3232 13.7374 17.3232 14.0303 17.0303L16.0303 15.0303C16.2448 14.8158 16.309 14.4933 16.1929 14.213C16.0768 13.9327 15.8033 13.75 15.5 13.75H9.5C9.08579 13.75 8.75 13.4142 8.75 13V12C8.75 11.5858 8.41421 11.25 8 11.25Z" fill="#353566"/>
</svg>
