<svg width="24" height="24" viewBox="0 0 24 24" fill="none" xmlns="http://www.w3.org/2000/svg">
<g clip-path="url(#clip0_9001_275988)">
<path fill-rule="evenodd" clip-rule="evenodd" d="M11 0.25C5.06294 0.25 0.25 5.06294 0.25 11C0.25 13.0416 0.819848 14.9523 1.80949 16.5793L1.02746 18.7298C0.519627 20.1264 1.8736 21.4804 3.27015 20.9725L5.42072 20.1905C7.04768 21.1802 8.9584 21.75 11 21.75C11.9196 21.75 12.8133 21.6344 13.6669 21.4164C13.8915 21.3591 14.0771 21.201 14.1694 20.9883C14.2617 20.7755 14.2504 20.5321 14.1388 20.3288C13.5969 19.3418 13.25 18.2357 13.25 17.002C13.25 13.8274 15.8234 11.25 19.0001 11.25C19.6181 11.25 20.2119 11.3472 20.7679 11.5267C20.9985 11.6011 21.2508 11.5595 21.4453 11.4152C21.6398 11.2708 21.7526 11.0414 21.7482 10.7992C21.6409 4.95461 16.87 0.25 11 0.25ZM7 10C6.44772 10 6 10.4477 6 11C6 11.5523 6.44772 12 7 12C7.55228 12 8.0001 11.5523 8.0001 11C8.0001 10.4477 7.55228 10 7 10ZM11 10C10.4477 10 10 10.4477 10 11C10 11.5523 10.4477 12 11 12C11.5523 12 12.0001 11.5523 12.0001 11C12.0001 10.4477 11.5523 10 11 10ZM15 10C14.4477 10 14 10.4477 14 11C14 11.5045 14.3736 11.9218 14.8592 11.9902C15.2014 11.707 15.573 11.4581 15.9689 11.2489C15.9893 11.1694 16.0001 11.0859 16.0001 11C16.0001 10.4477 15.5523 10 15 10Z" fill="#353566"/>
<path fill-rule="evenodd" clip-rule="evenodd" d="M14.5 17.002C14.5 14.517 16.5144 12.5 19.0001 12.5C21.4854 12.5 23.5 14.5147 23.5 17C23.5 19.7667 21.3 21.9 19.3 23.4C19.1222 23.5333 18.8778 23.5333 18.7 23.4C16.7001 21.9001 14.5 19.7667 14.5 17.002ZM19 18.5001C19.8285 18.5001 20.5 17.8285 20.5 17.0001C20.5 16.1716 19.8285 15.5001 19 15.5001C18.1716 15.5001 17.5 16.1716 17.5 17.0001C17.5 17.8285 18.1716 18.5001 19 18.5001Z" fill="#353566"/>
</g>
<defs>
<clipPath id="clip0_9001_275988">
<rect width="24" height="24" fill="white"/>
</clipPath>
</defs>
</svg>
