<svg width="24" height="24" viewBox="0 0 24 24" fill="none" xmlns="http://www.w3.org/2000/svg">
<path fill-rule="evenodd" clip-rule="evenodd" d="M1.25 12C1.25 6.06294 6.06294 1.25 12 1.25C17.9371 1.25 22.75 6.06294 22.75 12C22.75 17.9371 17.9371 22.75 12 22.75C9.9584 22.75 8.04768 22.1802 6.42072 21.1905L4.27015 21.9725C2.8736 22.4804 1.51963 21.1264 2.02746 19.7298L2.80949 17.5793C1.81985 15.9523 1.25 14.0416 1.25 12ZM15.1269 7.08833C15.0833 6.97056 14.9167 6.97056 14.8731 7.08833L14.6789 7.61328C14.4962 8.10697 14.107 8.49621 13.6133 8.67889L13.0883 8.87314C12.9706 8.91671 12.9706 9.08329 13.0883 9.12686L13.6133 9.32112C14.107 9.50379 14.4962 9.89303 14.6789 10.3867L14.8731 10.9117C14.9167 11.0294 15.0833 11.0294 15.1269 10.9117L15.3211 10.3867C15.5038 9.89303 15.893 9.50379 16.3867 9.32112L16.9117 9.12686C17.0294 9.08329 17.0294 8.91671 16.9117 8.87314L16.3867 8.67889C15.893 8.49621 15.5038 8.10697 15.3211 7.61328L15.1269 7.08833ZM9.84787 9.62809C10.1578 8.79064 11.3422 8.79063 11.6521 9.62809L11.9505 10.4345C12.2274 11.1827 12.8173 11.7726 13.5655 12.0495L14.3719 12.3479C15.2094 12.6578 15.2094 13.8422 14.3719 14.1521L13.5655 14.4505C12.8173 14.7274 12.2274 15.3173 11.9505 16.0655L11.6521 16.8719C11.3422 17.7094 10.1578 17.7094 9.84787 16.8719L9.54946 16.0655C9.27261 15.3173 8.68272 14.7274 7.93454 14.4505L7.12809 14.1521C6.29064 13.8422 6.29063 12.6578 7.12809 12.3479L7.93454 12.0495C8.68272 11.7726 9.27261 11.1827 9.54946 10.4345L9.84787 9.62809Z" fill="#353566"/>
</svg>
