<svg width="24" height="24" viewBox="0 0 24 24" fill="none" xmlns="http://www.w3.org/2000/svg">
<g clip-path="url(#clip0_9001_279853)">
<path fill-rule="evenodd" clip-rule="evenodd" d="M13.856 22.293C13.836 22.249 13.827 22.203 13.798 22.163C13.559 21.825 13.091 21.745 12.753 21.984C12.491 22.17 12.248 22.247 12.018 22.248C12.012 22.248 12.006 22.249 12 22.249C11.587 22.249 11.149 22.048 10.69 21.547C10.226 21.041 9.792 20.277 9.42 19.296C9.033 18.273 8.733 17.057 8.533 15.749H11.08C11.494 15.749 11.83 15.413 11.83 14.999C11.83 14.585 11.494 14.249 11.08 14.249H8.354C8.288 13.511 8.25 12.757 8.25 11.999C8.25 11.241 8.288 10.488 8.354 9.74902H15.64C15.663 10.009 15.692 10.267 15.708 10.53C15.732 10.944 16.087 11.259 16.5 11.236C16.914 11.212 17.229 10.858 17.206 10.444C17.192 10.21 17.165 9.98102 17.146 9.74902H22.002C22.145 10.39 22.231 11.052 22.248 11.732C22.259 12.146 22.603 12.473 23.017 12.463C23.431 12.452 23.758 12.108 23.748 11.694C23.586 5.34602 18.389 0.249023 12.002 0.249023C5.511 0.250023 0.25 5.51102 0.25 12C0.25 18.489 5.511 23.75 12 23.75C12.003 23.75 12.005 23.75 12.008 23.75C12.008 23.75 12.01 23.75 12.011 23.75C12.022 23.75 12.033 23.747 12.044 23.747C12.548 23.745 13.046 23.714 13.534 23.651C13.945 23.597 14.234 23.221 14.181 22.81C14.152 22.589 14.027 22.41 13.856 22.293ZM10.69 2.45202C11.149 1.95102 11.587 1.75002 12 1.75002C12.672 1.75002 13.437 2.31002 14.147 3.71302C14.739 4.88202 15.185 6.47602 15.457 8.25102H8.534C8.734 6.94302 9.033 5.72702 9.421 4.70402C9.793 3.72302 10.227 2.95902 10.691 2.45302L10.69 2.45202ZM21.53 8.25002H16.973C16.69 6.28102 16.197 4.44002 15.486 3.03502C15.339 2.74402 15.177 2.46202 15.001 2.19602C17.993 3.11002 20.392 5.36202 21.53 8.25002ZM9.008 2.19602C8.627 2.77202 8.295 3.43802 8.017 4.17102C7.565 5.36302 7.232 6.76402 7.019 8.24902H2.468C3.606 5.35902 6.013 3.10902 9.008 2.19602ZM2.006 9.75002H6.847C6.785 10.493 6.75 11.247 6.75 12C6.75 12.753 6.784 13.507 6.847 14.25H2.006C1.843 13.525 1.75 12.774 1.75 12C1.75 11.226 1.843 10.475 2.006 9.75002ZM2.468 15.75H7.019C7.232 17.235 7.566 18.636 8.017 19.828C8.295 20.561 8.627 21.228 9.008 21.803C6.012 20.89 3.606 18.64 2.468 15.749V15.75ZM23.075 14.269L19.505 12.484C18.872 12.167 18.126 12.167 17.492 12.484L13.924 14.269C13.511 14.476 13.25 14.898 13.25 15.359C13.25 16.808 13.346 18.199 13.938 19.55C14.753 21.413 16.261 22.86 18.117 23.67C18.361 23.776 18.638 23.776 18.882 23.67C20.738 22.86 22.247 21.411 23.062 19.548C23.653 18.198 23.75 16.808 23.751 15.361C23.751 14.898 23.489 14.475 23.075 14.269ZM21.687 18.948C21.057 20.387 19.922 21.544 18.499 22.201C17.076 21.545 15.941 20.389 15.312 18.951C14.83 17.849 14.75 16.715 14.75 15.535L18.164 13.828C18.375 13.722 18.624 13.722 18.835 13.828L22.25 15.535C22.25 16.715 22.169 17.848 21.687 18.948Z" fill="#353566"/>
</g>
<defs>
<clipPath id="clip0_9001_279853">
<rect width="24" height="24" fill="white"/>
</clipPath>
</defs>
</svg>
