<svg width="24" height="24" viewBox="0 0 24 24" fill="none" xmlns="http://www.w3.org/2000/svg">
<g clip-path="url(#clip0_9001_279783)">
<path fill-rule="evenodd" clip-rule="evenodd" d="M8.53025 15.75H10.7923C11.2065 15.75 11.5423 15.4142 11.5423 15C11.5423 14.5857 11.2065 14.25 10.7923 14.25H8.34978C8.28412 13.5121 8.25 12.7571 8.25 12C8.25 11.2429 8.28412 10.4878 8.34978 9.75005H15.6502C15.6646 9.91232 15.6776 10.0754 15.6889 10.239C15.7176 10.6522 16.0758 10.964 16.489 10.9353C16.9022 10.9066 17.214 10.5484 17.1853 10.1352C17.1764 10.0065 17.1665 9.87807 17.1558 9.75005H22.0023C22.1529 10.4223 22.2374 11.1196 22.2487 11.8346C22.2552 12.2488 22.5963 12.5792 23.0104 12.5727C23.4246 12.5661 23.755 12.2251 23.7485 11.8109C23.6474 5.40862 18.4262 0.25 12 0.25C5.51065 0.25 0.25 5.51065 0.25 12C0.25 18.4724 5.48316 23.7225 11.9492 23.7499L11.9658 23.7498L12 23.75C12.4142 23.75 12.75 23.4142 12.75 23C12.75 22.5858 12.4142 22.25 12 22.25C11.587 22.25 11.1486 22.0492 10.6899 21.5482C10.2264 21.042 9.79177 20.278 9.42011 19.2968C9.0324 18.2733 8.7303 17.059 8.53025 15.75ZM1.75 12C1.75 11.227 1.83556 10.4741 1.99772 9.75005H6.84421C6.78187 10.493 6.75 11.2474 6.75 12C6.75 12.7525 6.78187 13.507 6.84422 14.25H1.99772C1.83556 13.5259 1.75 12.773 1.75 12ZM7.01392 15.75H2.45764C3.59408 18.6395 6.00506 20.8881 8.99829 21.8035C8.61955 21.2295 8.29368 20.5576 8.01737 19.8282C7.56538 18.6349 7.22687 17.2363 7.01392 15.75ZM8.53024 8.25005H15.4698C15.1979 6.47125 14.7402 4.88428 14.1468 3.71248C13.4389 2.31423 12.6761 1.75328 12.0059 1.75L11.9939 1.75C11.5827 1.75196 11.1463 1.95321 10.6899 2.45177C10.2264 2.95794 9.79177 3.72196 9.42011 4.70316C9.0324 5.72672 8.7303 6.94097 8.53024 8.25005ZM15.0007 2.19623C15.1764 2.46197 15.3378 2.74396 15.4851 3.03489C16.1972 4.44142 16.7035 6.27789 16.9861 8.25005H21.5424C20.4058 5.36022 17.9944 3.11141 15.0007 2.19623ZM8.99826 2.19654C8.61954 2.77051 8.29367 3.44237 8.01737 4.17182C7.56538 5.36507 7.22687 6.76366 7.01392 8.25005H2.45764C3.59407 5.36051 6.00503 3.11191 8.99826 2.19654Z" fill="#353566"/>
<path fill-rule="evenodd" clip-rule="evenodd" d="M18.25 16.125C17.2145 16.125 16.375 16.9645 16.375 18C16.375 19.0355 17.2145 19.875 18.25 19.875C19.2855 19.875 20.125 19.0355 20.125 18C20.125 16.9645 19.2855 16.125 18.25 16.125ZM17.625 18C17.625 17.6548 17.9048 17.375 18.25 17.375C18.5952 17.375 18.875 17.6548 18.875 18C18.875 18.3452 18.5952 18.625 18.25 18.625C17.9048 18.625 17.625 18.3452 17.625 18Z" fill="#353566"/>
<path fill-rule="evenodd" clip-rule="evenodd" d="M12.9679 20.3368C12.5193 19.5584 12.785 18.5624 13.5634 18.1121C13.6492 18.0625 13.6492 17.9374 13.5634 17.8878C12.785 17.4375 12.5193 16.4415 12.9679 15.6631L13.5876 14.5878C14.0367 13.8085 15.0325 13.5405 15.8118 13.9912C15.8949 14.0393 16.0026 13.9805 16.0026 13.8791C16.0026 12.9806 16.7301 12.25 17.6302 12.25H18.8697C19.7699 12.25 20.4973 12.9807 20.4973 13.8792C20.4973 13.9806 20.6051 14.0393 20.6882 13.9913C21.4674 13.5406 22.4632 13.8086 22.9123 14.5878L23.5321 15.6631C23.9807 16.4416 23.715 17.4376 22.9365 17.8878C22.8508 17.9374 22.8508 18.0625 22.9365 18.1121C23.715 18.5623 23.9807 19.5583 23.5321 20.3367L22.9123 21.4121C22.4632 22.1913 21.4674 22.4593 20.6882 22.0086C20.6052 21.9606 20.4973 22.0192 20.4973 22.1208C20.4973 23.0193 19.7699 23.75 18.8697 23.75H17.6303C16.7301 23.75 16.0026 23.0193 16.0026 22.1208C16.0026 22.0193 15.8948 21.9606 15.8118 22.0086C15.0325 22.4594 14.0367 22.1913 13.5876 21.4121L12.9679 20.3368ZM14.3144 19.4106C14.2534 19.4459 14.2315 19.5253 14.2675 19.5878L14.8872 20.6631C14.9228 20.7249 15.0005 20.745 15.0607 20.7102C16.1478 20.0814 17.5026 20.8688 17.5026 22.1208C17.5026 22.1934 17.5611 22.25 17.6303 22.25H18.8697C18.9389 22.25 18.9973 22.1934 18.9973 22.1208C18.9973 20.8688 20.3521 20.0814 21.4392 20.7101C21.4995 20.745 21.5771 20.7248 21.6127 20.6631L22.2325 19.5877C22.2685 19.5252 22.2466 19.4458 22.1855 19.4105C21.1012 18.7833 21.1012 17.2165 22.1855 16.5893C22.2466 16.5541 22.2685 16.4747 22.2325 16.4121L21.6127 15.3368C21.5771 15.275 21.4995 15.2549 21.4392 15.2897C20.3521 15.9185 18.9973 15.1312 18.9973 13.8792C18.9973 13.8066 18.9389 13.75 18.8697 13.75H17.6302C17.561 13.75 17.5026 13.8066 17.5026 13.8791C17.5026 15.1312 16.1478 15.9184 15.0608 15.2897C15.0005 15.2548 14.9228 15.275 14.8872 15.3368L14.2675 16.4121C14.2315 16.4746 14.2534 16.554 14.3144 16.5893C15.3988 17.2165 15.3988 18.7834 14.3144 19.4106Z" fill="#353566"/>
</g>
<defs>
<clipPath id="clip0_9001_279783">
<rect width="24" height="24" fill="white"/>
</clipPath>
</defs>
</svg>
