<svg width="24" height="24" viewBox="0 0 24 24" fill="none" xmlns="http://www.w3.org/2000/svg">
<g clip-path="url(#clip0_9001_279803)">
<path d="M13.388 14.249H8.354C8.288 13.511 8.25 12.757 8.25 11.999C8.25 11.241 8.288 10.488 8.354 9.749H15.638C15.665 10.055 15.699 10.358 15.715 10.669C15.737 11.083 16.09 11.4 16.503 11.379C16.917 11.357 17.234 11.004 17.213 10.591C17.198 10.307 17.166 10.03 17.142 9.75H22.001C22.147 10.4 22.231 11.073 22.247 11.763C22.256 12.177 22.6 12.505 23.014 12.496C23.428 12.487 23.756 12.143 23.747 11.729C23.603 5.364 18.399 0.25 12 0.25C5.511 0.249 0.25 5.51 0.25 11.999C0.25 18.488 5.511 23.749 12 23.749C12.003 23.749 12.007 23.749 12.01 23.749H12.012C12.098 23.749 12.185 23.749 12.271 23.746C12.51 23.741 12.711 23.617 12.845 23.439C12.845 23.438 12.846 23.437 12.847 23.436C12.9 23.364 12.94 23.286 12.965 23.197C12.971 23.177 12.972 23.155 12.976 23.134C12.986 23.082 13.005 23.034 13.004 22.979C13.004 22.958 12.993 22.94 12.991 22.919C12.99 22.907 12.995 22.895 12.993 22.883C12.989 22.851 12.971 22.826 12.963 22.795C12.949 22.746 12.937 22.697 12.914 22.653C12.885 22.595 12.847 22.547 12.805 22.499C12.788 22.48 12.773 22.459 12.754 22.442C12.692 22.384 12.622 22.341 12.544 22.307C12.537 22.304 12.532 22.3 12.525 22.298C12.408 22.251 12.284 22.222 12.15 22.24C12.105 22.246 12.059 22.249 12.013 22.249C12.009 22.249 12.004 22.249 12 22.249C11.587 22.249 11.149 22.048 10.69 21.547C10.226 21.041 9.792 20.277 9.42 19.296C9.033 18.273 8.733 17.057 8.533 15.749H13.387C13.801 15.749 14.137 15.413 14.137 14.999C14.137 14.585 13.802 14.249 13.388 14.249ZM10.69 2.451C11.149 1.95 11.587 1.749 12 1.749C12.672 1.749 13.437 2.309 14.147 3.711C14.739 4.88 15.185 6.475 15.457 8.249H8.534C8.734 6.941 9.033 5.725 9.421 4.702C9.793 3.721 10.227 2.957 10.691 2.451H10.69ZM21.53 8.249H16.973C16.69 6.28 16.197 4.439 15.486 3.034C15.339 2.743 15.177 2.461 15.001 2.195C17.993 3.109 20.392 5.361 21.53 8.249ZM9.008 2.195C8.627 2.771 8.295 3.437 8.017 4.17C7.565 5.362 7.232 6.763 7.019 8.248H2.468C3.606 5.358 6.013 3.107 9.009 2.194L9.008 2.195ZM2.006 9.749H6.847C6.785 10.492 6.75 11.246 6.75 11.999C6.75 12.752 6.784 13.506 6.847 14.249H2.006C1.843 13.524 1.75 12.773 1.75 11.999C1.75 11.225 1.843 10.474 2.006 9.749ZM8.017 19.827C8.295 20.56 8.627 21.227 9.008 21.802C6.012 20.889 3.606 18.639 2.467 15.748H7.018C7.231 17.233 7.565 18.634 8.016 19.826L8.017 19.827ZM22 16.024V14.999C22 13.482 20.654 12.249 19 12.249C17.346 12.249 16 13.482 16 14.999V16.024C15.016 16.149 14.25 16.981 14.25 17.999V21.749C14.25 22.852 15.147 23.749 16.25 23.749H21.75C22.853 23.749 23.75 22.852 23.75 21.749V17.999C23.75 16.982 22.984 16.149 22 16.024ZM17.5 14.999C17.5 14.31 18.173 13.749 19 13.749C19.827 13.749 20.5 14.31 20.5 14.999V15.999H17.5V14.999ZM22.25 21.749C22.25 22.025 22.026 22.249 21.75 22.249H16.25C15.974 22.249 15.75 22.025 15.75 21.749V17.999C15.75 17.723 15.974 17.499 16.25 17.499H21.75C22.026 17.499 22.25 17.723 22.25 17.999V21.749Z" fill="#353566"/>
</g>
<defs>
<clipPath id="clip0_9001_279803">
<rect width="24" height="24" fill="white"/>
</clipPath>
</defs>
</svg>
