<svg width="24" height="24" viewBox="0 0 24 24" fill="none" xmlns="http://www.w3.org/2000/svg">
<g clip-path="url(#clip0_9001_279883)">
<path d="M17.2 13.466C17.233 12.968 17.25 12.477 17.25 12C17.25 11.244 17.207 10.493 17.145 9.75H21.995C22.158 10.475 22.251 11.226 22.251 12C22.251 12.813 22.156 13.603 21.978 14.36C21.883 14.763 22.133 15.167 22.536 15.262C22.939 15.357 23.343 15.107 23.438 14.704C23.643 13.835 23.751 12.929 23.751 12C23.75 5.511 18.489 0.25 12 0.25C5.511 0.25 0.25 5.511 0.25 12C0.25 18.489 5.511 23.75 12 23.75C12.003 23.75 12.006 23.75 12.009 23.75C12.009 23.75 12.009 23.75 12.011 23.75C12.013 23.75 12.015 23.75 12.017 23.75C12.275 23.75 12.531 23.741 12.785 23.725C13.198 23.698 13.511 23.34 13.484 22.927C13.47 22.713 13.365 22.529 13.212 22.402C13.014 22.171 12.691 22.07 12.388 22.181C12.262 22.227 12.138 22.249 12.013 22.25C12.008 22.25 12.004 22.25 12 22.25C11.587 22.25 11.149 22.049 10.69 21.548C10.226 21.042 9.792 20.278 9.42 19.297C9.033 18.274 8.733 17.058 8.533 15.75H12.754C13.168 15.75 13.504 15.414 13.504 15C13.504 14.586 13.168 14.25 12.754 14.25H8.353C8.287 13.512 8.249 12.758 8.249 12C8.249 11.242 8.287 10.488 8.353 9.75H15.639C15.705 10.491 15.749 11.243 15.749 12C15.749 12.442 15.733 12.9 15.702 13.366C15.674 13.779 15.987 14.137 16.4 14.165C16.813 14.193 17.171 13.88 17.198 13.467L17.2 13.466ZM21.532 8.25H16.972C16.689 6.281 16.196 4.44 15.485 3.035C15.338 2.745 15.177 2.464 15.001 2.199C17.993 3.114 20.395 5.363 21.532 8.25ZM9.008 2.196C8.627 2.772 8.295 3.438 8.017 4.171C7.565 5.363 7.232 6.764 7.019 8.249H2.468C3.606 5.359 6.013 3.108 9.009 2.195L9.008 2.196ZM8.017 19.828C8.295 20.561 8.627 21.228 9.008 21.803C6.012 20.89 3.606 18.64 2.467 15.749H7.018C7.231 17.234 7.565 18.635 8.016 19.827L8.017 19.828ZM6.847 14.25H2.006C1.843 13.525 1.75 12.774 1.75 12C1.75 11.226 1.843 10.475 2.006 9.75H6.847C6.785 10.493 6.75 11.247 6.75 12C6.75 12.753 6.784 13.507 6.847 14.25ZM9.42 4.703C9.792 3.722 10.226 2.958 10.69 2.452C11.149 1.951 11.587 1.75 12 1.75C12.672 1.75 13.437 2.31 14.147 3.712C14.739 4.881 15.185 6.476 15.457 8.25H8.534C8.734 6.942 9.032 5.726 9.42 4.703ZM15.525 17.535L14.061 18.97L15.536 20.474C15.826 20.769 15.821 21.245 15.525 21.535C15.379 21.678 15.19 21.749 15 21.749C14.806 21.749 14.611 21.674 14.464 21.524L12.464 19.484C12.325 19.342 12.248 19.151 12.25 18.952C12.252 18.753 12.333 18.563 12.475 18.424L14.475 16.464C14.771 16.174 15.246 16.179 15.536 16.475C15.826 16.771 15.821 17.245 15.525 17.535ZM23.525 18.422C23.667 18.561 23.748 18.751 23.75 18.95C23.752 19.149 23.675 19.341 23.536 19.483L21.536 21.525C21.39 21.675 21.195 21.75 21 21.75C20.811 21.75 20.621 21.679 20.475 21.536C20.179 21.246 20.174 20.771 20.464 20.475L21.939 18.969L20.475 17.536C20.179 17.246 20.174 16.771 20.464 16.475C20.755 16.179 21.23 16.175 21.525 16.464L23.525 18.422ZM19.727 15.182L17.727 23.182C17.642 23.522 17.336 23.75 17 23.75C16.94 23.75 16.879 23.743 16.817 23.728C16.415 23.627 16.171 23.22 16.272 22.818L18.272 14.818C18.372 14.417 18.776 14.172 19.182 14.273C19.584 14.374 19.828 14.78 19.727 15.182Z" fill="#353566"/>
</g>
<defs>
<clipPath id="clip0_9001_279883">
<rect width="24" height="24" fill="white"/>
</clipPath>
</defs>
</svg>
