<svg width="24" height="24" viewBox="0 0 24 24" fill="none" xmlns="http://www.w3.org/2000/svg">
<path d="M2.53033 1.46967C2.23744 1.17678 1.76256 1.17678 1.46967 1.46967C1.17678 1.76256 1.17678 2.23744 1.46967 2.53033L3.95243 5.01309C2.26912 6.90936 1.25 9.34087 1.25 11.9991C1.25 14.9213 2.48164 17.5696 4.47334 19.534C4.76825 19.8248 5.24311 19.8216 5.53398 19.5267C5.82484 19.2317 5.82156 18.7569 5.52666 18.466C3.7953 16.7584 2.75 14.4855 2.75 11.9991C2.75 9.76804 3.59158 7.70895 5.01521 6.07587L7.19774 8.2584C6.30189 9.25952 5.75488 10.5666 5.75488 12C5.75488 13.5796 6.41913 15.0057 7.48244 16.0381C7.77962 16.3266 8.25444 16.3196 8.54298 16.0224C8.83152 15.7253 8.82451 15.2504 8.52733 14.9619C7.73533 14.1929 7.25488 13.1475 7.25488 12C7.25488 10.9877 7.62876 10.0549 8.26056 9.32122L9.96942 11.0301C9.8289 11.3238 9.75 11.6529 9.75 12C9.75 13.2426 10.7574 14.25 12 14.25C12.3471 14.25 12.6762 14.1711 12.9699 14.0306L21.4697 22.5303C21.7626 22.8232 22.2374 22.8232 22.5303 22.5303C22.8232 22.2374 22.8232 21.7626 22.5303 21.4697L2.53033 1.46967Z" fill="#353566"/>
<path d="M19.5287 4.46615C19.2338 4.17521 18.759 4.17838 18.468 4.47321C18.1771 4.76805 18.1803 5.24291 18.4751 5.53385C20.2054 7.24127 21.25 9.51346 21.25 11.9991C21.25 13.5733 20.8315 15.0587 20.0875 16.3696C19.8831 16.7299 20.0094 17.1876 20.3696 17.3921C20.7299 17.5965 21.1876 17.4702 21.3921 17.11C22.2584 15.5836 22.75 13.8443 22.75 11.9991C22.75 9.07782 21.5192 6.43034 19.5287 4.46615Z" fill="#353566"/>
<path d="M16.5176 7.9619C16.2204 7.67336 15.7456 7.68037 15.457 7.97755C15.1685 8.27473 15.1755 8.74956 15.4727 9.0381C16.2647 9.80706 16.7451 10.8525 16.7451 12C16.7451 12.384 16.6915 12.755 16.5912 13.1073C16.4778 13.5057 16.7089 13.9206 17.1073 14.0339C17.5057 14.1473 17.9206 13.9163 18.0339 13.5179C18.1717 13.0337 18.2451 12.5245 18.2451 12C18.2451 10.4204 17.5809 8.99429 16.5176 7.9619Z" fill="#353566"/>
</svg>
