<svg width="24" height="24" viewBox="0 0 24 24" fill="none" xmlns="http://www.w3.org/2000/svg">
<path d="M21 1.25C21.4142 1.25 21.75 1.58579 21.75 2V9.58152C21.75 9.99573 21.4142 10.3315 21 10.3315C20.5858 10.3315 20.25 9.99573 20.25 9.58152V2C20.25 1.58579 20.5858 1.25 21 1.25Z" fill="#353566"/>
<path d="M16 5.5C16.4142 5.5 16.75 5.83579 16.75 6.25V9.25204C16.75 9.66625 16.4142 10.002 16 10.002C15.5858 10.002 15.25 9.66625 15.25 9.25204V6.25C15.25 5.83579 15.5858 5.5 16 5.5Z" fill="#353566"/>
<path d="M6 14C6.41421 14 6.75 14.3358 6.75 14.75V22C6.75 22.4142 6.41421 22.75 6 22.75C5.58579 22.75 5.25 22.4142 5.25 22V14.75C5.25 14.3358 5.58579 14 6 14Z" fill="#353566"/>
<path d="M1 18.25C1.41421 18.25 1.75 18.5858 1.75 19V22C1.75 22.4142 1.41421 22.75 1 22.75C0.585786 22.75 0.25 22.4142 0.25 22V19C0.25 18.5858 0.585786 18.25 1 18.25Z" fill="#353566"/>
<path d="M11 9.75C11.4142 9.75 11.75 10.0858 11.75 10.5V22C11.75 22.4142 11.4142 22.75 11 22.75C10.5858 22.75 10.25 22.4142 10.25 22V10.5C10.25 10.0858 10.5858 9.75 11 9.75Z" fill="#353566"/>
<path d="M20.2368 16.4869C20.4809 16.2429 20.4809 15.8471 20.2368 15.6031C19.9928 15.359 19.597 15.359 19.353 15.6031L18.42 16.5361L17.4869 15.603C17.2428 15.3589 16.8471 15.3589 16.603 15.603C16.3589 15.8471 16.3589 16.2428 16.603 16.4869L17.5361 17.4199L16.603 18.3531C16.3589 18.5971 16.3589 18.9929 16.603 19.2369C16.847 19.481 17.2428 19.481 17.4868 19.2369L18.42 18.3038L19.3531 19.2369C19.5971 19.481 19.9929 19.481 20.2369 19.2369C20.481 18.9928 20.481 18.5971 20.2369 18.353L19.3038 17.4199L20.2368 16.4869Z" fill="#353566"/>
<path fill-rule="evenodd" clip-rule="evenodd" d="M18.4199 12.0867C15.4744 12.0867 13.0866 14.4745 13.0866 17.42C13.0866 20.3655 15.4744 22.7533 18.4199 22.7533C21.3655 22.7533 23.7533 20.3655 23.7533 17.42C23.7533 14.4745 21.3655 12.0867 18.4199 12.0867ZM14.5866 17.42C14.5866 15.3029 16.3029 13.5867 18.4199 13.5867C20.537 13.5867 22.2533 15.3029 22.2533 17.42C22.2533 19.5371 20.537 21.2533 18.4199 21.2533C16.3029 21.2533 14.5866 19.5371 14.5866 17.42Z" fill="#353566"/>
</svg>
