<svg width="24" height="24" viewBox="0 0 24 24" fill="none" xmlns="http://www.w3.org/2000/svg">
<path d="M21 1.25024C21.4142 1.25024 21.75 1.58603 21.75 2.00024V9.58176C21.75 9.99598 21.4142 10.3318 21 10.3318C20.5858 10.3318 20.25 9.99598 20.25 9.58176V2.00024C20.25 1.58603 20.5858 1.25024 21 1.25024Z" fill="#353566"/>
<path d="M16 5.50024C16.4142 5.50024 16.75 5.83603 16.75 6.25024V9.25228C16.75 9.66649 16.4142 10.0023 16 10.0023C15.5858 10.0023 15.25 9.66649 15.25 9.25228V6.25024C15.25 5.83603 15.5858 5.50024 16 5.50024Z" fill="#353566"/>
<path d="M6 14.0002C6.41421 14.0002 6.75 14.336 6.75 14.7502V22.0002C6.75 22.4145 6.41421 22.7502 6 22.7502C5.58579 22.7502 5.25 22.4145 5.25 22.0002V14.7502C5.25 14.336 5.58579 14.0002 6 14.0002Z" fill="#353566"/>
<path d="M1 18.2502C1.41421 18.2502 1.75 18.586 1.75 19.0002V22.0002C1.75 22.4145 1.41421 22.7502 1 22.7502C0.585786 22.7502 0.25 22.4145 0.25 22.0002V19.0002C0.25 18.586 0.585786 18.2502 1 18.2502Z" fill="#353566"/>
<path d="M11 9.75024C11.4142 9.75024 11.75 10.086 11.75 10.5002V22.0002C11.75 22.4145 11.4142 22.7502 11 22.7502C10.5858 22.7502 10.25 22.4145 10.25 22.0002V10.5002C10.25 10.086 10.5858 9.75024 11 9.75024Z" fill="#353566"/>
<path d="M17.5449 19.4827C17.5449 18.9994 17.9367 18.6077 18.4199 18.6077C18.9032 18.6077 19.295 18.9994 19.295 19.4827C19.295 19.9659 18.9033 20.3577 18.42 20.3577C17.9368 20.3577 17.5449 19.9659 17.5449 19.4827Z" fill="#353566"/>
<path d="M17.7949 15.1284V17.4201C17.7949 17.7653 18.0747 18.0451 18.4199 18.0451C18.7651 18.0451 19.0449 17.7653 19.0449 17.4201V15.1284C19.0449 14.7832 18.7651 14.5034 18.4199 14.5034C18.0747 14.5034 17.7949 14.7832 17.7949 15.1284Z" fill="#353566"/>
<path fill-rule="evenodd" clip-rule="evenodd" d="M18.4199 12.0869C15.4744 12.0869 13.0865 14.4747 13.0865 17.4202C13.0865 20.3658 15.4744 22.7536 18.4199 22.7536C21.3654 22.7536 23.7532 20.3658 23.7532 17.4202C23.7532 14.4747 21.3654 12.0869 18.4199 12.0869ZM14.5865 17.4202C14.5865 15.3032 16.3028 13.5869 18.4199 13.5869C20.537 13.5869 22.2532 15.3032 22.2532 17.4202C22.2532 19.5373 20.537 21.2536 18.4199 21.2536C16.3028 21.2536 14.5865 19.5373 14.5865 17.4202Z" fill="#353566"/>
</svg>
