<svg width="24" height="24" viewBox="0 0 24 24" fill="none" xmlns="http://www.w3.org/2000/svg">
<path d="M22 1.25C22.4142 1.25 22.75 1.58579 22.75 2V22C22.75 22.4142 22.4142 22.75 22 22.75C21.5858 22.75 21.25 22.4142 21.25 22V2C21.25 1.58579 21.5858 1.25 22 1.25Z" fill="#353566"/>
<path d="M17 5.5C17.4142 5.5 17.75 5.83579 17.75 6.25V22C17.75 22.4142 17.4142 22.75 17 22.75C16.5858 22.75 16.25 22.4142 16.25 22V6.25C16.25 5.83579 16.5858 5.5 17 5.5Z" fill="#353566"/>
<path d="M12.75 10.5C12.75 10.0858 12.4142 9.75 12 9.75C11.5858 9.75 11.25 10.0858 11.25 10.5V22C11.25 22.4142 11.5858 22.75 12 22.75C12.4142 22.75 12.75 22.4142 12.75 22V10.5Z" fill="#353566"/>
<path d="M7 14C7.41421 14 7.75 14.3358 7.75 14.75V22C7.75 22.4142 7.41421 22.75 7 22.75C6.58579 22.75 6.25 22.4142 6.25 22V14.75C6.25 14.3358 6.58579 14 7 14Z" fill="#353566"/>
<path d="M2.75 19C2.75 18.5858 2.41421 18.25 2 18.25C1.58579 18.25 1.25 18.5858 1.25 19V22C1.25 22.4142 1.58579 22.75 2 22.75C2.41421 22.75 2.75 22.4142 2.75 22V19Z" fill="#353566"/>
<path d="M1.375 2C1.375 1.65482 1.65483 1.375 2 1.375H5.5C5.75279 1.375 5.98069 1.52728 6.07743 1.76082C6.17417 1.99437 6.12069 2.2632 5.94194 2.44194L4.42233 3.96155C4.8044 4.06866 5.15638 4.27251 5.44192 4.55806C5.45698 4.57311 5.47125 4.58893 5.4847 4.60544C5.77587 4.96315 5.94491 5.28356 6.03518 5.57889C6.12504 5.87285 6.125 6.10764 6.12498 6.244L6.12498 6.25C6.12498 7.56168 5.06166 8.625 3.74998 8.625C2.86328 8.625 1.84755 8.12159 1.4372 7.27177C1.28711 6.96093 1.41742 6.58727 1.72826 6.43718C2.03909 6.28709 2.41275 6.4174 2.56284 6.72823C2.72347 7.06089 3.24048 7.375 3.74998 7.375C4.3713 7.375 4.87498 6.87132 4.87498 6.25C4.87498 6.13541 4.8736 6.05492 4.83978 5.94429C4.80627 5.83466 4.7297 5.66358 4.5367 5.42118C4.33603 5.23125 4.06993 5.125 3.79287 5.125H2.99998C2.74719 5.125 2.51929 4.97272 2.42256 4.73918C2.32582 4.50563 2.37929 4.2368 2.55804 4.05806L3.99111 2.625H2C1.65483 2.625 1.375 2.34518 1.375 2Z" fill="#353566"/>
<path d="M9.25 1.375C7.93832 1.375 6.875 2.43832 6.875 3.75V6.25C6.875 7.56168 7.93832 8.625 9.25 8.625C10.5617 8.625 11.625 7.56168 11.625 6.25V5C11.625 4.65482 11.3452 4.375 11 4.375H9.5C9.15482 4.375 8.875 4.65482 8.875 5C8.875 5.34518 9.15482 5.625 9.5 5.625H10.375V6.25C10.375 6.87132 9.87132 7.375 9.25 7.375C8.62868 7.375 8.125 6.87132 8.125 6.25V3.75C8.125 3.12868 8.62868 2.625 9.25 2.625C9.7587 2.625 10.1901 2.96314 10.3285 3.42828C10.427 3.75912 10.775 3.9475 11.1058 3.84903C11.4366 3.75057 11.625 3.40256 11.5266 3.07172C11.2347 2.09112 10.3268 1.375 9.25 1.375Z" fill="#353566"/>
<path d="M16.625 3.5C16.625 3.84518 16.3452 4.125 16 4.125H15.125V5C15.125 5.34518 14.8452 5.625 14.5 5.625C14.1548 5.625 13.875 5.34518 13.875 5V4.125H13C12.6548 4.125 12.375 3.84518 12.375 3.5C12.375 3.15482 12.6548 2.875 13 2.875H13.875V2C13.875 1.65482 14.1548 1.375 14.5 1.375C14.8452 1.375 15.125 1.65482 15.125 2V2.875H16C16.3452 2.875 16.625 3.15482 16.625 3.5Z" fill="#353566"/>
</svg>
