<svg width="24" height="24" viewBox="0 0 24 24" fill="none" xmlns="http://www.w3.org/2000/svg">
<path d="M1.53568 9.02492C4.18496 6.32136 7.88549 4.75 12 4.75C16.1145 4.75 19.815 6.32136 22.4643 9.02492C22.7542 9.32077 23.2291 9.32559 23.5249 9.03568C23.8208 8.74577 23.8256 8.27092 23.5357 7.97507C20.5947 4.97382 16.5037 3.25 12 3.25C7.49628 3.25 3.40531 4.97382 0.46432 7.97507C0.174412 8.27092 0.179227 8.74577 0.475075 9.03568C0.770924 9.32559 1.24577 9.32077 1.53568 9.02492Z" fill="#353566"/>
<path d="M5.01537 12.543C6.8499 10.8078 9.3034 9.75 11.999 9.75C12.6511 9.75 13.2882 9.81185 13.9055 9.9299C14.3123 10.0077 14.7052 9.74099 14.783 9.33415C14.8608 8.92732 14.5941 8.53443 14.1872 8.45661C13.4777 8.32089 12.7461 8.25 11.999 8.25C8.90154 8.25 6.08397 9.46759 3.98463 11.4532C3.6837 11.7379 3.67049 12.2126 3.95512 12.5135C4.23975 12.8144 4.71444 12.8276 5.01537 12.543Z" fill="#353566"/>
<path d="M8.76261 16.0475C9.6272 15.2379 10.7073 14.75 11.9999 14.75L12.0359 14.7501C12.4501 14.753 12.7883 14.4196 12.7912 14.0054C12.7941 13.5912 12.4606 13.2531 12.0464 13.2502L11.9999 13.25C10.2928 13.25 8.85429 13.9067 7.73739 14.9525C7.43503 15.2356 7.41942 15.7102 7.70253 16.0126C7.98563 16.315 8.46025 16.3306 8.76261 16.0475Z" fill="#353566"/>
<path d="M12 18C11.4477 18 11 18.4477 11 19C11 19.5523 11.4477 20 12 20C12.5523 20 13.0001 19.5523 13.0001 19C13.0001 18.4477 12.5523 18 12 18Z" fill="#353566"/>
<path d="M23 15.25C23.4142 15.25 23.75 14.9142 23.75 14.5V13.5C23.75 12.2574 22.7426 11.25 21.5 11.25H17.3106L18.0303 10.5303C18.3232 10.2374 18.3232 9.76256 18.0303 9.46967C17.7374 9.17678 17.2625 9.17678 16.9696 9.46967L14.9696 11.4697C14.7551 11.6842 14.6909 12.0068 14.807 12.287C14.9231 12.5673 15.1966 12.75 15.4999 12.75H21.5C21.9142 12.75 22.25 13.0858 22.25 13.5V14.5C22.25 14.9142 22.5858 15.25 23 15.25Z" fill="#353566"/>
<path d="M14.25 14.5C14.25 14.0858 14.5858 13.75 15 13.75C15.4142 13.75 15.75 14.0858 15.75 14.5V15.5C15.75 15.9142 16.0858 16.25 16.5 16.25H22.5C22.8033 16.25 23.0768 16.4327 23.1929 16.713C23.309 16.9933 23.2448 17.3158 23.0303 17.5303L21.0303 19.5303C20.7374 19.8232 20.2625 19.8232 19.9696 19.5303C19.6767 19.2374 19.6767 18.7626 19.9696 18.4697L20.6893 17.75H16.5C15.2574 17.75 14.25 16.7426 14.25 15.5V14.5Z" fill="#353566"/>
</svg>
