<svg width="24" height="24" viewBox="0 0 24 24" fill="none" xmlns="http://www.w3.org/2000/svg">
<path fill-rule="evenodd" clip-rule="evenodd" d="M10.394 6.90781C10.7596 5.91973 12.1571 5.91972 12.5228 6.90781L12.7714 7.57985C12.9684 8.11209 13.388 8.53173 13.9203 8.72868L14.5923 8.97736C15.5804 9.34298 15.5804 10.7405 14.5923 11.1061L13.9203 11.3548C13.388 11.5518 12.9684 11.9714 12.7714 12.5036L12.5228 13.1757C12.1571 14.1638 10.7596 14.1638 10.394 13.1757L10.1453 12.5036C9.94836 11.9714 9.52872 11.5518 8.99648 11.3548L8.32444 11.1061C7.33635 10.7405 7.33635 9.34298 8.32444 8.97736L8.99648 8.72868C9.52872 8.53173 9.94836 8.11209 10.1453 7.57985L10.394 6.90781ZM11.4584 8.32829C11.1137 9.08798 10.5046 9.69711 9.74491 10.0417C10.5046 10.3864 11.1137 10.9955 11.4584 11.7552C11.803 10.9955 12.4121 10.3864 13.1718 10.0417C12.4121 9.69711 11.803 9.08798 11.4584 8.32829Z" fill="#353566"/>
<path d="M15.1058 4.9071C15.0694 4.80896 14.9306 4.80896 14.8943 4.9071L14.7324 5.34456C14.5802 5.75597 14.2558 6.08033 13.8444 6.23257L13.407 6.39444C13.3088 6.43076 13.3088 6.56957 13.407 6.60588L13.8444 6.76776C14.2558 6.91999 14.5802 7.24436 14.7324 7.65576L14.8943 8.09322C14.9306 8.19136 15.0694 8.19136 15.1058 8.09322L15.2676 7.65576C15.4199 7.24436 15.7442 6.91999 16.1556 6.76776L16.5931 6.60588C16.6912 6.56957 16.6912 6.43076 16.5931 6.39444L16.1556 6.23257C15.7442 6.08033 15.4199 5.75597 15.2676 5.34456L15.1058 4.9071Z" fill="#353566"/>
<path fill-rule="evenodd" clip-rule="evenodd" d="M1.5 1.25024C1.08579 1.25024 0.75 1.58603 0.75 2.00024C0.75 2.41446 1.08579 2.75024 1.5 2.75024H2.25L2.25 10.4329C2.24999 11.3853 2.24999 12.1458 2.30018 12.7601C2.35165 13.3901 2.45963 13.932 2.71322 14.4297C3.12068 15.2294 3.77085 15.8796 4.57054 16.287C5.06824 16.5406 5.61012 16.6486 6.24013 16.7001C6.85439 16.7503 7.61493 16.7503 8.56737 16.7502H11.25V18.6253L7.55004 21.4002C7.21867 21.6488 7.15152 22.1189 7.40004 22.4502C7.64857 22.7816 8.11867 22.8488 8.45004 22.6002L12 19.9377L15.55 22.6002C15.8814 22.8488 16.3515 22.7816 16.6 22.4502C16.8486 22.1189 16.7814 21.6488 16.45 21.4002L12.75 18.6252V16.7502H15.4326C16.3851 16.7503 17.1456 16.7503 17.7599 16.7001C18.3899 16.6486 18.9318 16.5406 19.4295 16.287C20.2291 15.8796 20.8793 15.2294 21.2868 14.4297C21.5404 13.932 21.6484 13.3901 21.6998 12.7601C21.75 12.1459 21.75 11.3853 21.75 10.4329V2.75024H22.5C22.9142 2.75024 23.25 2.41446 23.25 2.00024C23.25 1.58603 22.9142 1.25024 22.5 1.25024H1.5ZM15.4 15.2502H8.6C7.60753 15.2502 6.90829 15.2497 6.36228 15.2051C5.82503 15.1612 5.50252 15.0784 5.25153 14.9505C4.73408 14.6869 4.31338 14.2662 4.04973 13.7487C3.92184 13.4977 3.83909 13.1752 3.79519 12.638C3.75058 12.092 3.75 11.3927 3.75 10.4002V2.75024H20.25V10.4002C20.25 11.3927 20.2494 12.092 20.2048 12.638C20.1609 13.1752 20.0782 13.4977 19.9503 13.7487C19.6866 14.2662 19.2659 14.6869 18.7485 14.9505C18.4975 15.0784 18.175 15.1612 17.6377 15.2051C17.0917 15.2497 16.3925 15.2502 15.4 15.2502Z" fill="#353566"/>
</svg>
