<svg width="24" height="24" viewBox="0 0 24 24" fill="none" xmlns="http://www.w3.org/2000/svg">
<path fill-rule="evenodd" clip-rule="evenodd" d="M10.24 4.8501C9.30009 4.8501 8.52882 5.25863 8.00797 5.90182C7.49886 6.53053 7.25 7.35293 7.25 8.18985C7.25 9.80901 8.23638 11.0982 9.19278 11.9763C10.1647 12.8686 11.233 13.4551 11.6646 13.6709L12 13.8386L12.3354 13.6709C12.767 13.4551 13.8353 12.8686 14.8072 11.9763C15.7636 11.0982 16.75 9.80901 16.75 8.18985C16.75 7.35293 16.5011 6.53053 15.992 5.90182C15.4712 5.25863 14.6999 4.8501 13.76 4.8501C13.0388 4.8501 12.4366 5.14869 12 5.47772C11.5634 5.14869 10.9612 4.8501 10.24 4.8501ZM8.75 8.18985C8.75 7.63701 8.91559 7.16454 9.17369 6.84581C9.42007 6.54156 9.7688 6.3501 10.24 6.3501C10.7246 6.3501 11.1816 6.6933 11.4269 6.98393L12 7.66269L12.5731 6.98393C12.8184 6.6933 13.2754 6.3501 13.76 6.3501C14.2312 6.3501 14.5799 6.54156 14.8263 6.84581C15.0844 7.16454 15.25 7.63701 15.25 8.18985C15.25 9.18094 14.6364 10.0968 13.7928 10.8713C13.1551 11.4568 12.456 11.8959 12 12.151C11.544 11.8959 10.8449 11.4568 10.2072 10.8713C9.36362 10.0968 8.75 9.18094 8.75 8.18985Z" fill="#353566"/>
<path fill-rule="evenodd" clip-rule="evenodd" d="M0.75 2C0.75 1.58579 1.08579 1.25 1.5 1.25H22.5C22.9142 1.25 23.25 1.58579 23.25 2C23.25 2.41421 22.9142 2.75 22.5 2.75H21.75V10.4326C21.75 11.385 21.75 12.1456 21.6998 12.7599C21.6484 13.3899 21.5404 13.9318 21.2868 14.4295C20.8793 15.2291 20.2291 15.8793 19.4295 16.2868C18.9318 16.5404 18.3899 16.6484 17.7599 16.6998C17.1456 16.75 16.3851 16.75 15.4326 16.75H12.75V18.625L16.45 21.4C16.7814 21.6485 16.8486 22.1186 16.6 22.45C16.3515 22.7814 15.8814 22.8485 15.55 22.6L12 19.9375L8.45004 22.6C8.11867 22.8485 7.64857 22.7814 7.40004 22.45C7.15152 22.1186 7.21867 21.6485 7.55004 21.4L11.25 18.625V16.75H8.56737C7.61493 16.75 6.85439 16.75 6.24013 16.6998C5.61012 16.6484 5.06824 16.5404 4.57054 16.2868C3.77085 15.8793 3.12068 15.2291 2.71322 14.4295C2.45963 13.9318 2.35165 13.3899 2.30018 12.7599C2.24999 12.1456 2.24999 11.3851 2.25 10.4326L2.25 2.75H1.5C1.08579 2.75 0.75 2.41421 0.75 2ZM15.4 15.25C16.3925 15.25 17.0917 15.2494 17.6377 15.2048C18.175 15.1609 18.4975 15.0782 18.7485 14.9503C19.2659 14.6866 19.6866 14.2659 19.9503 13.7485C20.0782 13.4975 20.1609 13.175 20.2048 12.6377C20.2494 12.0917 20.25 11.3925 20.25 10.4V2.75H3.75V10.4C3.75 11.3925 3.75058 12.0917 3.79519 12.6377C3.83909 13.175 3.92184 13.4975 4.04973 13.7485C4.31338 14.2659 4.73408 14.6866 5.25153 14.9503C5.50252 15.0782 5.82503 15.1609 6.36228 15.2048C6.90829 15.2494 7.60753 15.25 8.6 15.25H15.4Z" fill="#353566"/>
</svg>
