<svg width="24" height="24" viewBox="0 0 24 24" fill="none" xmlns="http://www.w3.org/2000/svg">
<path d="M9.77478 8.03606C10.0708 7.74637 10.076 7.27152 9.78631 6.97547C9.49661 6.67941 9.02177 6.67424 8.72571 6.96394L7.22546 8.43192C7.08326 8.57107 7.00217 8.76103 7.00004 8.95998C6.99792 9.15893 7.07494 9.35057 7.21414 9.49273L8.71439 11.0247C9.0042 11.3207 9.47904 11.3257 9.77499 11.0359C10.0709 10.746 10.0759 10.2712 9.7861 9.97526L8.81081 8.97931L9.77478 8.03606Z" fill="#353566"/>
<path d="M14.2137 6.97573C14.5032 6.67953 14.9781 6.67413 15.2743 6.96368L16.7744 8.43008C16.9166 8.56915 16.9978 8.75906 17 8.958C17.0023 9.15694 16.9254 9.34861 16.7862 9.49084L15.2862 11.0244C14.9965 11.3206 14.5217 11.3258 14.2256 11.0362C13.9295 10.7465 13.9242 10.2717 14.2138 9.97556L15.1893 8.97828L14.2257 8.03632C13.9295 7.74677 13.9241 7.27193 14.2137 6.97573Z" fill="#353566"/>
<path d="M13.4777 6.18184C13.5781 5.77999 13.3338 5.37279 12.932 5.27233C12.5301 5.17186 12.1229 5.41619 12.0224 5.81803L10.5224 11.818C10.422 12.2199 10.6663 12.6271 11.0682 12.7275C11.47 12.828 11.8772 12.5837 11.9777 12.1818L13.4777 6.18184Z" fill="#353566"/>
<path fill-rule="evenodd" clip-rule="evenodd" d="M0.75 2C0.75 1.58579 1.08579 1.25 1.5 1.25H22.5C22.9142 1.25 23.25 1.58579 23.25 2C23.25 2.41421 22.9142 2.75 22.5 2.75H21.75V10.4326C21.75 11.385 21.75 12.1456 21.6998 12.7599C21.6484 13.3899 21.5404 13.9318 21.2868 14.4295C20.8793 15.2291 20.2291 15.8793 19.4295 16.2868C18.9318 16.5404 18.3899 16.6484 17.7599 16.6998C17.1456 16.75 16.3851 16.75 15.4326 16.75H12.75V18.625L16.45 21.4C16.7814 21.6485 16.8485 22.1186 16.6 22.45C16.3515 22.7814 15.8814 22.8485 15.55 22.6L12 19.9375L8.44998 22.6C8.11861 22.8485 7.64851 22.7814 7.39998 22.45C7.15145 22.1186 7.21861 21.6485 7.54998 21.4L11.25 18.625V16.75H8.56737C7.61493 16.75 6.85439 16.75 6.24013 16.6998C5.61012 16.6484 5.06824 16.5404 4.57054 16.2868C3.77085 15.8793 3.12068 15.2291 2.71322 14.4295C2.45963 13.9318 2.35165 13.3899 2.30018 12.7599C2.24999 12.1456 2.24999 11.3851 2.25 10.4326L2.25 2.75H1.5C1.08579 2.75 0.75 2.41421 0.75 2ZM15.4 15.25C16.3925 15.25 17.0917 15.2494 17.6377 15.2048C18.175 15.1609 18.4975 15.0782 18.7485 14.9503C19.2659 14.6866 19.6866 14.2659 19.9503 13.7485C20.0782 13.4975 20.1609 13.175 20.2048 12.6377C20.2494 12.0917 20.25 11.3925 20.25 10.4V2.75H3.75V10.4C3.75 11.3925 3.75058 12.0917 3.79519 12.6377C3.83909 13.175 3.92184 13.4975 4.04973 13.7485C4.31338 14.2659 4.73408 14.6866 5.25153 14.9503C5.50252 15.0782 5.82503 15.1609 6.36228 15.2048C6.90829 15.2494 7.60753 15.25 8.6 15.25H15.4Z" fill="#353566"/>
</svg>
