<svg width="24" height="24" viewBox="0 0 24 24" fill="none" xmlns="http://www.w3.org/2000/svg">
<path d="M12 13.25C11.5858 13.25 11.25 12.9142 11.25 12.5L11.25 7.31066L9.53033 9.03033C9.23744 9.32322 8.76256 9.32322 8.46967 9.03033C8.17678 8.73744 8.17678 8.26256 8.46967 7.96967L11.4697 4.96967C11.6103 4.82902 11.8011 4.75 12 4.75C12.1989 4.75 12.3897 4.82902 12.5303 4.96967L15.5303 7.96967C15.8232 8.26256 15.8232 8.73744 15.5303 9.03033C15.2374 9.32322 14.7626 9.32322 14.4697 9.03033L12.75 7.31066L12.75 12.5C12.75 12.9142 12.4142 13.25 12 13.25Z" fill="#353566"/>
<path fill-rule="evenodd" clip-rule="evenodd" d="M11.25 18.378C10.3761 18.6869 9.75 19.5203 9.75 20.5C9.75 21.7426 10.7574 22.75 12 22.75C13.2426 22.75 14.25 21.7426 14.25 20.5C14.25 19.5203 13.6239 18.6869 12.75 18.378L12.75 16.75H15.4326C16.3851 16.75 17.1456 16.75 17.7599 16.6998C18.3899 16.6484 18.9318 16.5404 19.4295 16.2868C20.2291 15.8793 20.8793 15.2291 21.2868 14.4295C21.5404 13.9318 21.6484 13.3899 21.6998 12.7599C21.75 12.1456 21.75 11.3851 21.75 10.4327V2.75L22.5 2.75C22.9142 2.75 23.25 2.41421 23.25 2C23.25 1.58579 22.9142 1.25 22.5 1.25L1.5 1.25C1.08579 1.25 0.75 1.58579 0.75 2C0.75 2.41421 1.08579 2.75 1.5 2.75H2.25L2.25 10.4326C2.24999 11.385 2.24999 12.1456 2.30018 12.7599C2.35165 13.3899 2.45963 13.9318 2.71322 14.4295C3.12068 15.2291 3.77085 15.8793 4.57054 16.2868C5.06824 16.5404 5.61012 16.6484 6.24013 16.6998C6.85439 16.75 7.61493 16.75 8.56737 16.75H11.25L11.25 18.378ZM12 19.75C11.5858 19.75 11.25 20.0858 11.25 20.5C11.25 20.9142 11.5858 21.25 12 21.25C12.4142 21.25 12.75 20.9142 12.75 20.5C12.75 20.0858 12.4142 19.75 12 19.75ZM3.75 2.75L3.75 10.4C3.75 11.3925 3.75058 12.0917 3.79519 12.6377C3.83909 13.175 3.92184 13.4975 4.04973 13.7485C4.31338 14.2659 4.73408 14.6866 5.25153 14.9503C5.50252 15.0782 5.82503 15.1609 6.36228 15.2048C6.90829 15.2494 7.60753 15.25 8.6 15.25H15.4C16.3925 15.25 17.0917 15.2494 17.6377 15.2048C18.175 15.1609 18.4975 15.0782 18.7485 14.9503C19.2659 14.6866 19.6866 14.2659 19.9503 13.7485C20.0782 13.4975 20.1609 13.175 20.2048 12.6377C20.2494 12.0917 20.25 11.3925 20.25 10.4V2.75L3.75 2.75Z" fill="#353566"/>
</svg>
