<svg width="24" height="24" viewBox="0 0 24 24" fill="none" xmlns="http://www.w3.org/2000/svg">
<path d="M7 2C6.44772 2 6 2.44772 6 3C6 3.55228 6.44772 4 7 4H17C17.5523 4 18 3.55228 18 3C18 2.44772 17.5523 2 17 2H7Z" fill="#353566"/>
<path d="M1 9C1 8.44772 1.44772 8 2 8H22C22.5523 8 23 8.44772 23 9C23 9.55228 22.5523 10 22 10H2C1.44772 10 1 9.55228 1 9Z" fill="#353566"/>
<path d="M7 14C6.44772 14 6 14.4477 6 15C6 15.5523 6.44772 16 7 16H17C17.5523 16 18 15.5523 18 15C18 14.4477 17.5523 14 17 14H7Z" fill="#353566"/>
<path d="M2 20C1.44772 20 1 20.4477 1 21C1 21.5523 1.44772 22 2 22H22C22.5523 22 23 21.5523 23 21C23 20.4477 22.5523 20 22 20H2Z" fill="#353566"/>
</svg>
