<svg width="24" height="24" viewBox="0 0 24 24" fill="none" xmlns="http://www.w3.org/2000/svg">
<path d="M19.7276 8.18196C19.8281 7.78011 19.5837 7.37291 19.1819 7.27245C18.78 7.17199 18.3728 7.41631 18.2724 7.81815L16.2724 15.8182C16.1719 16.22 16.4162 16.6272 16.8181 16.7277C17.2199 16.8281 17.6271 16.5838 17.7276 16.182L19.7276 8.18196Z" fill="#353566"/>
<path d="M15.5249 10.5357C15.8208 10.2457 15.8256 9.77089 15.5357 9.47505C15.2457 9.17922 14.7709 9.17442 14.4751 9.46434L12.4751 11.4243C12.333 11.5636 12.252 11.7536 12.25 11.9525C12.248 12.1514 12.3252 12.343 12.4644 12.485L14.4644 14.525C14.7544 14.8208 15.2292 14.8255 15.525 14.5356C15.8208 14.2456 15.8255 13.7707 15.5355 13.475L14.0607 11.9706L15.5249 10.5357Z" fill="#353566"/>
<path d="M20.4641 9.47533C20.7538 9.17934 21.2287 9.1743 21.5247 9.46407L23.5247 11.4221C23.6668 11.5612 23.7479 11.7512 23.75 11.9501C23.752 12.1491 23.675 12.3407 23.5358 12.4828L21.5358 14.5248C21.246 14.8207 20.7711 14.8256 20.4752 14.5358C20.1793 14.246 20.1744 13.7711 20.4642 13.4752L21.9393 11.9691L20.4753 10.5359C20.1793 10.2462 20.1743 9.77131 20.4641 9.47533Z" fill="#353566"/>
<path d="M21.75 4.122C21.75 4.889 21.451 5.61 20.909 6.152L20.726 6.335C20.491 6.571 20.129 6.624 19.836 6.463C19.708 6.393 19.569 6.339 19.423 6.303C18.509 6.074 17.559 6.628 17.311 7.539L17.164 8.079C17.108 8.285 16.967 8.457 16.776 8.553C16.587 8.649 16.363 8.658 16.165 8.579L15.645 8.373C15.001 8.119 14.267 8.268 13.774 8.75L11.774 10.71C11.441 11.037 11.254 11.475 11.249 11.943C11.245 12.41 11.422 12.852 11.749 13.186L13.749 15.226C13.812 15.29 13.879 15.349 13.949 15.401C14.137 15.543 14.249 15.765 14.249 16.001V22.001C14.249 22.289 14.084 22.552 13.824 22.677C13.721 22.727 13.61 22.751 13.499 22.751C13.332 22.751 13.166 22.695 13.03 22.586L8.405 18.886C7.988 18.552 7.748 18.054 7.748 17.52V13.122C7.748 12.922 7.67 12.733 7.528 12.591L1.091 6.152C0.549 5.609 0.25 4.888 0.25 4.122C0.25 2.538 1.538 1.25 3.121 1.25H18.878C20.461 1.25 21.75 2.538 21.75 4.122Z" fill="#353566"/>
</svg>
