<svg width="24" height="24" viewBox="0 0 24 24" fill="none" xmlns="http://www.w3.org/2000/svg">
<path d="M1 2.99988C1.55228 2.99988 2 3.44759 2 3.99988V10.9999H11V3.99988C11 3.44759 11.4477 2.99988 12 2.99988C12.5523 2.99988 13 3.44759 13 3.99988V19.9999C13 20.5522 12.5523 20.9999 12 20.9999C11.4477 20.9999 11 20.5522 11 19.9999V12.9999H2V19.9999C2 20.5522 1.55228 20.9999 1 20.9999C0.447715 20.9999 0 20.5522 0 19.9999V3.99988C0 3.44759 0.447715 2.99988 1 2.99988Z" fill="#353566"/>
<path fill-rule="evenodd" clip-rule="evenodd" d="M19.1898 12.6255L21.0983 9.52406C21.3878 9.0537 21.2411 8.43775 20.7708 8.1483C20.3004 7.85885 19.6845 8.00551 19.395 8.47586L16.6892 12.8728C15.9701 14.0413 15.5866 15.3849 15.5801 16.7564C15.58 16.7681 15.58 16.7799 15.58 16.7916C15.58 19.1158 17.4641 20.9999 19.7883 20.9999C22.1125 20.9999 23.9966 19.1158 23.9966 16.7916C23.9966 14.4674 22.1125 12.5833 19.7883 12.5833C19.5851 12.5833 19.3853 12.5977 19.1898 12.6255ZM17.58 16.8009C17.585 18.0162 18.5718 18.9999 19.7883 18.9999C21.0079 18.9999 21.9966 18.0112 21.9966 16.7916C21.9966 15.572 21.0079 14.5833 19.7883 14.5833C18.5759 14.5833 17.5917 15.5603 17.5801 16.7699C17.58 16.7771 17.58 16.7844 17.58 16.7916C17.58 16.7947 17.58 16.7978 17.58 16.8009Z" fill="#353566"/>
</svg>
