<svg width="24" height="24" viewBox="0 0 24 24" fill="none" xmlns="http://www.w3.org/2000/svg">
<path d="M7 1.00012C7.55228 1.00012 8 1.44784 8 2.00012V4.50012C8 5.05241 7.55228 5.50012 7 5.50012C6.44772 5.50012 6 5.05241 6 4.50012V2.00012C6 1.44784 6.44772 1.00012 7 1.00012Z" fill="#353566"/>
<path d="M9.7928 5.79302C9.40228 6.18354 9.40228 6.8167 9.7928 7.20723C10.1833 7.59775 10.8165 7.59775 11.207 7.20723L14.257 4.15724C15.7995 2.61477 18.3003 2.61477 19.8428 4.15724C21.3853 5.69971 21.3853 8.20056 19.8428 9.74303L16.7928 12.793C16.4023 13.1835 16.4023 13.8167 16.7928 14.2072C17.1833 14.5978 17.8165 14.5978 18.207 14.2072L21.257 11.1572C23.5805 8.83372 23.5805 5.06655 21.257 2.74303C18.9335 0.419507 15.1663 0.419507 12.8428 2.74303L9.7928 5.79302Z" fill="#353566"/>
<path d="M14.207 18.2072C14.5975 17.8167 14.5975 17.1835 14.207 16.793C13.8165 16.4025 13.1833 16.4025 12.7928 16.793L9.74282 19.843C8.20034 21.3855 5.6995 21.3855 4.15703 19.843C2.61456 18.3005 2.61456 15.7997 4.15703 14.2572L7.20702 11.2072C7.59754 10.8167 7.59754 10.1835 7.20702 9.79302C6.81649 9.40249 6.18333 9.40249 5.7928 9.79302L2.74282 12.843C0.419295 15.1665 0.419294 18.9337 2.74282 21.2572C5.06634 23.5807 8.83351 23.5807 11.157 21.2572L14.207 18.2072Z" fill="#353566"/>
<path d="M2 6.00012C1.44772 6.00012 1 6.44784 1 7.00012C1 7.55241 1.44772 8.00012 2 8.00012H4.5C5.05228 8.00012 5.5 7.55241 5.5 7.00012C5.5 6.44784 5.05228 6.00012 4.5 6.00012H2Z" fill="#353566"/>
<path d="M17 23.0001C16.4477 23.0001 16 22.5524 16 22.0001V19.5001C16 18.9478 16.4477 18.5001 17 18.5001C17.5523 18.5001 18 18.9478 18 19.5001V22.0001C18 22.5524 17.5523 23.0001 17 23.0001Z" fill="#353566"/>
<path d="M19.5 18.0001H22C22.5523 18.0001 23 17.5524 23 17.0001C23 16.4478 22.5523 16.0001 22 16.0001H19.5C18.9477 16.0001 18.5 16.4478 18.5 17.0001C18.5 17.5524 18.9477 18.0001 19.5 18.0001Z" fill="#353566"/>
</svg>
