<svg width="24" height="24" viewBox="0 0 24 24" fill="none" xmlns="http://www.w3.org/2000/svg">
<path d="M12.7481 5.46232C12.7603 4.05759 11.6575 2.98813 10.4096 3.00011C9.14999 3.01219 8.01458 4.12092 8.00021 5.53944V16.8022C7.97964 19.1801 9.82998 21.0206 11.9904 20.9998C14.1434 20.9792 15.9771 19.105 16 16.6933V7C16 6.44772 16.4477 6 17 6C17.5523 6 18 6.44772 18 7V16.7065C17.9707 20.0963 15.3648 22.9675 12.0096 22.9997C8.66202 23.0319 5.97297 20.213 6.0002 16.7894V5.52614C6.02138 3.07756 7.9782 1.02334 10.3904 1.0002C12.814 0.976941 14.7669 3.01284 14.7481 5.47506V16.238C14.735 17.7553 13.4681 18.9826 12.0096 18.9966C10.4469 19.0116 9.38997 17.6913 9.39999 16.2574V7.00405C9.39999 6.45176 9.84771 6.00405 10.4 6.00405C10.9523 6.00405 11.4 6.45176 11.4 7.00405V16.2699C11.3957 16.7687 11.7184 16.9993 11.9904 16.9967C12.3674 16.9931 12.7425 16.6398 12.7481 16.2241L12.7481 5.46232Z" fill="#353566"/>
</svg>
