<svg width="24" height="24" viewBox="0 0 24 24" fill="none" xmlns="http://www.w3.org/2000/svg">
<path d="M2.70711 1.29289C2.31658 0.902369 1.68342 0.902369 1.29289 1.29289C0.902369 1.68342 0.902369 2.31658 1.29289 2.70711L2.0679 3.48212C2.02365 3.64738 2 3.82103 2 4V6C2 6.55228 2.44772 7 3 7C3.55228 7 4 6.55228 4 6V5.41421L11 12.4142V20H8C7.44772 20 7 20.4477 7 21C7 21.5523 7.44772 22 8 22H16C16.5523 22 17 21.5523 17 21C17 20.4477 16.5523 20 16 20H13V14.4142L21.2929 22.7071C21.6834 23.0976 22.3166 23.0976 22.7071 22.7071C23.0976 22.3166 23.0976 21.6834 22.7071 21.2929L2.70711 1.29289Z" fill="#353566"/>
<path d="M6 3C6 2.44772 6.44772 2 7 2H20C21.1046 2 22 2.89543 22 4V6C22 6.55228 21.5523 7 21 7C20.4477 7 20 6.55228 20 6V4H13V8C13 8.55229 12.5523 9 12 9C11.4477 9 11 8.55229 11 8V4H7C6.44772 4 6 3.55228 6 3Z" fill="#353566"/>
</svg>
