<svg width="24" height="24" viewBox="0 0 24 24" fill="none" xmlns="http://www.w3.org/2000/svg">
<path d="M4.5 2.5C4.5 1.39543 5.39543 0.5 6.5 0.5H17.5C18.6046 0.5 19.5 1.39543 19.5 2.5V10C19.5 10.2761 19.2761 10.5 19 10.5C18.7239 10.5 18.5 10.2761 18.5 10V2.5C18.5 1.94772 18.0523 1.5 17.5 1.5H6.5C5.94772 1.5 5.5 1.94772 5.5 2.5V10C5.5 10.2761 5.27614 10.5 5 10.5C4.72386 10.5 4.5 10.2761 4.5 10V2.5Z" fill="#353566"/>
<path fill-rule="evenodd" clip-rule="evenodd" d="M1.25668 11.0632C1.41513 10.9749 1.60896 10.9794 1.76318 11.0749L10.1578 16.2715C10.9528 16.7637 11.2523 16.9414 11.5602 17.0108C11.8498 17.0761 12.1502 17.0761 12.4398 17.0108C12.7477 16.9414 13.0472 16.7637 13.8422 16.2715L22.2368 11.0749C22.391 10.9794 22.5849 10.9749 22.7433 11.0632C22.9018 11.1515 23 11.3186 23 11.5V18.2222C23 19.0435 23 19.6905 22.9575 20.2111C22.9141 20.7423 22.8239 21.1859 22.6185 21.589C22.283 22.2475 21.7475 22.783 21.089 23.1185C20.6859 23.3239 20.2423 23.4141 19.7111 23.4575C19.1905 23.5 18.5436 23.5 17.7225 23.5H6.27778C5.45665 23.5 4.80948 23.5 4.28889 23.4575C3.75771 23.4141 3.31413 23.3239 2.91103 23.1185C2.25247 22.783 1.71703 22.2475 1.38148 21.589C1.17609 21.1859 1.08593 20.7423 1.04253 20.2111C0.999994 19.6905 0.999997 19.0435 1 18.2222V11.5C1 11.3186 1.09823 11.1515 1.25668 11.0632ZM2 12.3976V18.2C2 19.0483 2.00039 19.6545 2.03921 20.1297C2.07756 20.599 2.15089 20.8963 2.27248 21.135C2.51217 21.6054 2.89462 21.9878 3.36502 22.2275C3.60366 22.3491 3.90099 22.4224 4.37032 22.4608C4.84549 22.4996 5.45167 22.5 6.3 22.5H17.7C18.5483 22.5 19.1545 22.4996 19.6297 22.4608C20.099 22.4224 20.3963 22.3491 20.635 22.2275C21.1054 21.9878 21.4878 21.6054 21.7275 21.135C21.8491 20.8963 21.9224 20.599 21.9608 20.1297C21.9996 19.6545 22 19.0483 22 18.2V12.3976L14.2904 17.1702C13.6018 17.5968 13.1521 17.8753 12.6597 17.9863C12.2254 18.0842 11.7746 18.0842 11.3403 17.9863C10.8479 17.8753 10.3983 17.5968 9.70964 17.1702L2 12.3976Z" fill="#353566"/>
<path fill-rule="evenodd" clip-rule="evenodd" d="M9.2 6.30005C8.26112 6.30005 7.5 7.06116 7.5 8.00005C7.5 8.93893 8.26112 9.70005 9.2 9.70005C9.61493 9.70005 9.99514 9.55139 10.2903 9.30443L13.103 10.7108C13.1015 10.7404 13.1007 10.7701 13.1007 10.8001C13.1007 11.739 13.8618 12.5001 14.8007 12.5001C15.7396 12.5001 16.5007 11.739 16.5007 10.8001C16.5007 9.86121 15.7396 9.1001 14.8007 9.1001C14.2506 9.1001 13.7615 9.3614 13.4508 9.76665L10.8371 8.45981C10.8781 8.31357 10.9 8.15937 10.9 8.00005C10.9 7.8407 10.8781 7.68646 10.8371 7.54021L13.4507 6.23338C13.7614 6.63867 14.2506 6.9 14.8007 6.9C15.7396 6.9 16.5007 6.13888 16.5007 5.2C16.5007 4.26112 15.7396 3.5 14.8007 3.5C13.8618 3.5 13.1007 4.26112 13.1007 5.2C13.1007 5.22992 13.1015 5.25966 13.103 5.2892L10.2902 6.6956C9.99508 6.44868 9.6149 6.30005 9.2 6.30005ZM8.5 8.00005C8.5 7.61345 8.8134 7.30005 9.2 7.30005C9.5866 7.30005 9.9 7.61345 9.9 8.00005C9.9 8.38665 9.5866 8.70005 9.2 8.70005C8.8134 8.70005 8.5 8.38665 8.5 8.00005ZM14.8007 4.5C14.4141 4.5 14.1007 4.8134 14.1007 5.2C14.1007 5.5866 14.4141 5.9 14.8007 5.9C15.1873 5.9 15.5007 5.5866 15.5007 5.2C15.5007 4.8134 15.1873 4.5 14.8007 4.5ZM14.1007 10.8001C14.1007 10.4135 14.4141 10.1001 14.8007 10.1001C15.1873 10.1001 15.5007 10.4135 15.5007 10.8001C15.5007 11.1867 15.1873 11.5001 14.8007 11.5001C14.4141 11.5001 14.1007 11.1867 14.1007 10.8001Z" fill="#353566"/>
</svg>
