<svg width="24" height="24" viewBox="0 0 24 24" fill="none" xmlns="http://www.w3.org/2000/svg">
<g clip-path="url(#clip0_9001_277169)">
<path fill-rule="evenodd" clip-rule="evenodd" d="M15.1411 6.79993C15.6272 6.79992 16.0224 6.79992 16.343 6.82611C16.674 6.85316 16.9694 6.91062 17.2442 7.05061C17.677 7.27112 18.0288 7.62298 18.2493 8.05575C18.3893 8.3305 18.4468 8.6259 18.4738 8.95697C18.5 9.27756 18.5 9.67265 18.5 10.1587V13.8411C18.5 14.3271 18.5 14.7223 18.4738 15.0429C18.4468 15.374 18.3893 15.6693 18.2493 15.9441C18.0288 16.3769 17.677 16.7287 17.2442 16.9492C16.9694 17.0892 16.674 17.1467 16.343 17.1737C16.0224 17.1999 15.6272 17.1999 15.1412 17.1999H8.85884C8.37275 17.1999 7.97765 17.1999 7.65705 17.1737C7.32597 17.1467 7.03058 17.0892 6.75582 16.9492C6.32305 16.7287 5.97119 16.3769 5.75069 15.9441C5.61069 15.6693 5.55323 15.374 5.52618 15.0429C5.49999 14.7223 5.49999 14.3272 5.5 13.8411V10.1588C5.5 9.81425 5.49999 9.51543 5.50932 9.25644C5.50942 9.24823 5.50973 9.24002 5.51024 9.23181C5.514 9.13461 5.51915 9.0431 5.52618 8.95697C5.55323 8.6259 5.61069 8.3305 5.75069 8.05575C5.97119 7.62298 6.32305 7.27112 6.75582 7.05061C7.03058 6.91062 7.32597 6.85316 7.65705 6.82611C7.97765 6.79992 8.37276 6.79992 8.85885 6.79993H15.1411ZM6.5 10.2715V13.8199C6.5 14.3322 6.50039 14.6864 6.52286 14.9614C6.54486 15.2307 6.5855 15.3798 6.64169 15.4901C6.76633 15.7347 6.9652 15.9336 7.20981 16.0582C7.3201 16.1144 7.46925 16.1551 7.73848 16.1771C8.01355 16.1995 8.3677 16.1999 8.88 16.1999H15.12C15.6323 16.1999 15.9865 16.1995 16.2615 16.1771C16.5308 16.1551 16.6799 16.1144 16.7902 16.0582C17.0348 15.9336 17.2337 15.7347 17.3583 15.4901C17.4145 15.3798 17.4551 15.2307 17.4771 14.9614C17.4996 14.6864 17.5 14.3322 17.5 13.8199V10.2714L13.2803 13.5173L13.219 13.5645C12.932 13.786 12.6805 13.9802 12.3889 14.0585C12.1341 14.1269 11.8658 14.1269 11.611 14.0585C11.3194 13.9802 11.0678 13.786 10.7809 13.5645L10.7195 13.5173L6.5 10.2715ZM17.4763 9.028L12.6706 12.7247C12.2852 13.0211 12.2023 13.0731 12.1296 13.0927C12.0447 13.1154 11.9552 13.1154 11.8703 13.0927C11.7975 13.0731 11.7147 13.0211 11.3293 12.7247L6.52372 9.0281C6.54591 8.76535 6.58622 8.61861 6.64169 8.50974C6.76633 8.26513 6.9652 8.06625 7.20981 7.94162C7.3201 7.88542 7.46925 7.84479 7.73848 7.82279C8.01355 7.80032 8.3677 7.79993 8.88 7.79993H15.12C15.6323 7.79993 15.9865 7.80032 16.2615 7.82279C16.5308 7.84479 16.6799 7.88542 16.7902 7.94162C17.0348 8.06625 17.2337 8.26513 17.3583 8.50974C17.4138 8.6186 17.4541 8.76531 17.4763 9.028Z" fill="#353566"/>
<path fill-rule="evenodd" clip-rule="evenodd" d="M0.5 11.9999C0.5 5.6486 5.64873 0.499878 12 0.499878C18.3513 0.499878 23.5 5.6486 23.5 11.9999C23.5 18.3512 18.3513 23.4999 12 23.4999C5.64873 23.4999 0.5 18.3512 0.5 11.9999ZM12 1.49988C6.20101 1.49988 1.5 6.20089 1.5 11.9999C1.5 17.7989 6.20101 22.4999 12 22.4999C17.799 22.4999 22.5 17.7989 22.5 11.9999C22.5 6.20089 17.799 1.49988 12 1.49988Z" fill="#353566"/>
</g>
<defs>
<clipPath id="clip0_9001_277169">
<rect width="24" height="24" fill="white"/>
</clipPath>
</defs>
</svg>
