<svg width="24" height="24" viewBox="0 0 24 24" fill="none" xmlns="http://www.w3.org/2000/svg">
<g clip-path="url(#clip0_9001_277599)">
<path fill-rule="evenodd" clip-rule="evenodd" d="M8.95782 6.05619C8.87765 5.94791 8.79203 5.83228 8.68408 5.74522L8.68508 5.74622C8.34707 5.47164 7.88006 5.42254 7.49305 5.61995C7.31963 5.71425 7.12589 5.89049 6.94643 6.05373C6.85889 6.13336 6.77475 6.20989 6.69803 6.27232C5.664 7.1712 5.25398 8.61421 5.647 9.92595C6.46402 12.8851 8.62708 15.3162 11.1162 17.0218L11.1182 17.0228C13.0192 18.2994 15.9143 19.4188 17.6933 17.3675C17.6933 17.3675 17.6967 17.3636 17.7021 17.3574C17.7776 17.2707 18.3169 16.6513 18.3804 16.5287C18.5764 16.1419 18.5294 15.676 18.2554 15.3373C18.1907 15.2264 16.929 14.2882 16.0288 13.6188C15.5785 13.284 15.2186 13.0164 15.1443 12.9533C14.9153 12.7489 14.5712 12.6216 14.2602 12.7489C14.0282 12.8413 13.6366 13.2541 13.3174 13.5905C13.1591 13.7573 13.0187 13.9054 12.9242 13.9864C11.6622 13.307 10.6971 12.337 10.0221 11.0693C10.0938 10.9746 10.2355 10.8226 10.3969 10.6494C10.7222 10.3004 11.1276 9.86539 11.2012 9.64036V9.64436C11.3112 9.35376 11.1862 9.01405 10.9951 8.79759L8.99109 6.10096C8.98008 6.08624 8.969 6.07129 8.95782 6.05619ZM7.94906 6.51082C7.98406 6.49478 8.02406 6.49979 8.05306 6.52284L8.05006 6.52084C8.08027 6.55317 9.0643 7.87799 9.68452 8.71301C9.96779 9.09438 10.1752 9.37359 10.1811 9.38081L9.04709 10.6535C8.91209 10.8048 8.88109 11.0222 8.96909 11.2046C9.79911 12.9302 11.0812 14.2159 12.8032 15.0467C12.9952 15.1398 13.2242 15.1008 13.3742 14.9494L14.5562 13.762C14.5675 13.7715 14.9025 14.0231 15.342 14.3533C16.1944 14.9936 17.4401 15.9292 17.4803 15.9676C17.5013 15.9966 17.5063 16.0347 17.4903 16.0688C17.4592 16.1111 17.4339 16.1401 17.3868 16.1938C17.3749 16.2074 17.3615 16.2227 17.3463 16.2401L17.0043 16.632C16.3873 17.3685 15.3963 17.6852 14.4682 17.4447L14.3442 17.4116C13.3952 17.1521 12.4942 16.7402 11.6772 16.19C10.1551 15.1719 8.84909 13.8632 7.83306 12.339C6.88203 10.8268 5.696 8.513 7.32704 7.05094C7.34587 7.03397 7.50211 6.89704 7.62628 6.78822C7.7 6.72362 7.76241 6.66893 7.77806 6.65512C7.80108 6.63527 7.82031 6.6185 7.83711 6.60385C7.88309 6.56376 7.91098 6.53944 7.94906 6.51082Z" fill="#353566"/>
<path fill-rule="evenodd" clip-rule="evenodd" d="M12 0.5C5.64873 0.5 0.5 5.64873 0.5 12C0.5 18.3513 5.64873 23.5 12 23.5C18.3513 23.5 23.5 18.3513 23.5 12C23.5 5.64873 18.3513 0.5 12 0.5ZM1.5 12C1.5 6.20101 6.20101 1.5 12 1.5C17.799 1.5 22.5 6.20101 22.5 12C22.5 17.799 17.799 22.5 12 22.5C6.20101 22.5 1.5 17.799 1.5 12Z" fill="#353566"/>
</g>
<defs>
<clipPath id="clip0_9001_277599">
<rect width="24" height="24" fill="white"/>
</clipPath>
</defs>
</svg>
