<svg width="24" height="24" viewBox="0 0 24 24" fill="none" xmlns="http://www.w3.org/2000/svg">
<path d="M14.5003 2C12.7261 2 11.0971 2.61539 9.813 3.64475C9.59754 3.81747 9.28286 3.78282 9.11014 3.56736C8.93742 3.3519 8.97207 3.03722 9.18753 2.8645C10.6426 1.69805 12.4906 1 14.5003 1C19.1947 1 23.0003 4.80558 23.0003 9.5C23.0003 11.5097 22.3022 13.3576 21.1358 14.8127C20.963 15.0282 20.6484 15.0628 20.4329 14.8901C20.2174 14.7174 20.1828 14.4027 20.3555 14.1873C21.3849 12.9032 22.0003 11.2741 22.0003 9.5C22.0003 5.35786 18.6424 2 14.5003 2Z" fill="#353566"/>
<path fill-rule="evenodd" clip-rule="evenodd" d="M4.13619 2.16827C4.66473 1.89932 5.30212 1.96701 5.76238 2.34098C5.90914 2.46023 6.03487 2.62934 6.18126 2.82625L9.54836 7.34591C9.61294 7.43257 9.67684 7.51832 9.72601 7.59592C9.7807 7.68222 9.83693 7.78801 9.86602 7.91896C9.90693 8.10315 9.8949 8.29516 9.83131 8.4728C9.7861 8.5991 9.71709 8.69704 9.65206 8.77584C9.5936 8.84667 9.51951 8.92375 9.44464 9.00165L7.63412 10.8858C8.31266 12.2003 9.00054 13.196 9.84882 14.0442C10.6969 14.8923 11.7232 15.6111 13.1003 16.3516L14.8343 14.4887C14.9121 14.405 14.9888 14.3226 15.0596 14.2575C15.1382 14.1853 15.2371 14.1077 15.3675 14.0553C15.5502 13.982 15.7503 13.9642 15.943 14.0042C16.0807 14.0327 16.1917 14.0917 16.2817 14.1489C16.363 14.2006 16.4529 14.2681 16.5443 14.3367L21.1819 17.8186C21.3784 17.9659 21.5472 18.0924 21.6661 18.2399C22.0365 18.6998 22.1027 19.3342 21.8351 19.8606C21.7493 20.0295 21.6102 20.1881 21.4483 20.3727L20.8392 21.0688C20.7916 21.1232 20.7642 21.1544 20.7381 21.1834C19.367 22.7062 17.2631 23.3405 15.2788 22.8293C15.2411 22.8196 15.1912 22.806 15.1034 22.7821L15.0543 22.7687C13.3501 22.3028 11.7318 21.5662 10.2612 20.5871L10.2143 20.5558C7.53451 18.7664 5.23404 16.4659 3.44463 13.7862L3.41332 13.7392C2.43423 12.2686 1.69767 10.6503 1.23178 8.94618L1.21824 8.89657C1.19437 8.80904 1.18081 8.7593 1.1711 8.72163C0.659961 6.73733 1.29429 4.6334 2.81706 3.26231C2.84598 3.23627 2.87715 3.20899 2.93132 3.16159L3.62473 2.55474C3.80921 2.39297 3.96765 2.25404 4.13619 2.16827ZM5.13178 3.11709C4.97836 2.99243 4.76589 2.96987 4.58971 3.05952C4.5483 3.08059 4.49167 3.12496 4.24221 3.34327L3.5933 3.91112C3.53475 3.96237 3.5092 3.98474 3.48618 4.00546C2.24028 5.12726 1.72128 6.84866 2.13949 8.47217C2.14719 8.50206 2.1587 8.54433 2.18472 8.63972L2.19638 8.68247C2.63404 10.2834 3.32596 11.8036 4.24571 13.185L4.27626 13.2308C5.99264 15.8012 8.19921 18.0078 10.7696 19.7242L10.8154 19.7547C12.1969 20.6745 13.7171 21.3664 15.318 21.8041L15.3607 21.8157C15.4561 21.8417 15.4984 21.8533 15.5283 21.861C17.1518 22.2792 18.8732 21.7602 19.995 20.5143C20.0157 20.4912 20.0381 20.4657 20.0893 20.4071L20.6597 19.7553C20.8782 19.5056 20.9226 19.449 20.9437 19.4075C21.0329 19.232 21.0108 19.0205 20.8873 18.8673C20.8581 18.831 20.803 18.7847 20.5377 18.5855L15.9558 15.1454C15.8479 15.0643 15.7896 15.021 15.7453 14.9928L15.7406 14.9899L15.7365 14.9936C15.6979 15.0291 15.6481 15.0821 15.5561 15.1809L13.5714 17.3133C13.4183 17.4777 13.1743 17.5199 12.9749 17.4163C11.3729 16.5841 10.1541 15.7637 9.14172 14.7513C8.12815 13.7378 7.34244 12.5528 6.58001 11.0175C6.48614 10.8284 6.52107 10.6008 6.66731 10.4486L8.7137 8.31905C8.80233 8.22682 8.8494 8.17736 8.88081 8.13931L8.88398 8.13542L8.88132 8.13117C8.85491 8.08949 8.81438 8.03454 8.73796 7.93196L5.41193 3.4675C5.21389 3.20166 5.16784 3.14639 5.13178 3.11709Z" fill="#353566"/>
<path d="M15.0002 5.5C15.0002 5.22386 14.7764 5 14.5002 5C14.2241 5 14.0002 5.22386 14.0002 5.5V9.50009C14.0002 9.67572 14.0924 9.83848 14.243 9.92884L16.743 11.4288C16.9798 11.5708 17.2869 11.494 17.429 11.2572C17.5711 11.0204 17.4943 10.7133 17.2575 10.5712L15.0002 9.21698V5.5Z" fill="#353566"/>
</svg>
