<svg width="24" height="24" viewBox="0 0 24 24" fill="none" xmlns="http://www.w3.org/2000/svg">
<path d="M5.99697 0.824525C3.35381 -0.47862 0.642398 2.31486 1.76052 4.9862L4.03886 10.1083C4.27521 10.6767 4.26817 11.3252 4.01778 11.8934L1.87532 16.9918C0.697726 19.6733 3.40112 22.4982 6.07238 21.1661L9.42471 19.4944C9.67183 19.3712 9.77226 19.0709 9.64903 18.8238C9.5258 18.5767 9.22557 18.4763 8.97845 18.5995L5.62611 20.2712C3.88158 21.1412 1.9465 19.3103 2.79228 17.391L4.93475 12.2925C5.05136 12.0269 5.13113 11.7491 5.17392 11.4669H10.9999C11.2761 11.4669 11.4999 11.243 11.4999 10.9669C11.4999 10.6907 11.2761 10.4669 10.9999 10.4669H5.17146C5.13132 10.2112 5.06075 9.95939 4.95941 9.71727L2.68094 4.59521C1.88676 2.68681 3.83069 0.871427 5.55477 1.72144L20.303 8.9927C21.8999 9.78001 21.9041 12.1538 20.2841 12.9616L20.0454 13.0807C19.7983 13.2039 19.6979 13.5041 19.8211 13.7512C19.9443 13.9984 20.2446 14.0988 20.4917 13.9756L20.7304 13.8565C23.0751 12.6873 23.0994 9.25645 20.7452 8.09578L5.99697 0.824525Z" fill="#353566"/>
<path d="M12.3402 18.3295C13.5627 17.1938 15.1994 16.5 16.9993 16.5C18.7997 16.5 20.4369 17.1943 21.6595 18.3307C21.8618 18.5187 22.1781 18.5071 22.3661 18.3049C22.5541 18.1026 22.5426 17.7862 22.3403 17.5982C20.94 16.2967 19.0621 15.5 16.9993 15.5C14.9371 15.5 13.0597 16.2961 11.6596 17.5969C11.4573 17.7849 11.4456 18.1012 11.6336 18.3035C11.8216 18.5058 12.1379 18.5175 12.3402 18.3295Z" fill="#353566"/>
<path d="M17.0031 19.8335C16.1458 19.8335 15.3644 20.1952 14.7896 20.7916C14.598 20.9904 14.2815 20.9962 14.0826 20.8046C13.8838 20.613 13.878 20.2965 14.0696 20.0976C14.8193 19.3197 15.8553 18.8335 17.0031 18.8335C18.151 18.8335 19.1869 19.3197 19.9367 20.0976C20.1283 20.2965 20.1225 20.613 19.9236 20.8046C19.7248 20.9962 19.4083 20.9904 19.2166 20.7916C18.6418 20.1952 17.8604 19.8335 17.0031 19.8335Z" fill="#353566"/>
<path d="M16.9999 21.625C16.5167 21.625 16.1249 22.0168 16.1249 22.5C16.1249 22.9832 16.5167 23.375 16.9999 23.375C17.4832 23.375 17.875 22.9832 17.875 22.5C17.875 22.0168 17.4832 21.625 16.9999 21.625Z" fill="#353566"/>
</svg>
