<svg width="24" height="24" viewBox="0 0 24 24" fill="none" xmlns="http://www.w3.org/2000/svg">
<path d="M1.76052 4.9862C0.642398 2.31486 3.35381 -0.47862 5.99697 0.824525L20.7452 8.09578C22.8868 9.15161 23.0528 12.0725 21.3236 13.4754C21.1092 13.6494 20.7943 13.6166 20.6203 13.4022C20.4463 13.1877 20.4791 12.8728 20.6936 12.6988C21.8959 11.7234 21.7456 9.70391 20.303 8.9927L5.55477 1.72144C3.83069 0.871427 1.88676 2.68681 2.68094 4.59521L4.95941 9.71727C5.06075 9.95939 5.13132 10.2112 5.17146 10.4669H10.9999C11.2761 10.4669 11.4999 10.6907 11.4999 10.9669C11.4999 11.243 11.2761 11.4669 10.9999 11.4669H5.17392C5.13113 11.7491 5.05136 12.0269 4.93475 12.2925L2.79228 17.391C1.9465 19.3103 3.88158 21.1412 5.62611 20.2712L8.77945 18.6987C9.02657 18.5755 9.3268 18.6759 9.45003 18.923C9.57326 19.1702 9.47283 19.4704 9.22571 19.5936L6.07238 21.1661C3.40112 22.4982 0.697726 19.6733 1.87532 16.9918L4.01778 11.8934C4.26817 11.3252 4.27521 10.6767 4.03886 10.1083L1.76052 4.9862Z" fill="#353566"/>
<path fill-rule="evenodd" clip-rule="evenodd" d="M16.9999 17C15.8942 17 14.9999 17.8942 14.9999 19C14.9999 20.1058 15.8942 21 16.9999 21C18.1057 21 18.9999 20.1058 18.9999 19C18.9999 17.8942 18.1057 17 16.9999 17ZM15.9999 19C15.9999 18.4465 16.4465 18 16.9999 18C17.5534 18 17.9999 18.4465 17.9999 19C17.9999 19.5535 17.5534 20 16.9999 20C16.4465 20 15.9999 19.5535 15.9999 19Z" fill="#353566"/>
<path fill-rule="evenodd" clip-rule="evenodd" d="M16.9999 14.5C19.2067 14.5 21.3767 15.8473 22.3973 18.4539C22.5342 18.8036 22.5342 19.1964 22.3973 19.5461C21.3767 22.1527 19.2067 23.5 16.9999 23.5C14.7931 23.5 12.6231 22.1527 11.6026 19.5461C11.4657 19.1964 11.4657 18.8036 11.6026 18.4539C12.6231 15.8473 14.7931 14.5 16.9999 14.5ZM16.9999 15.5C15.2241 15.5 13.4115 16.5768 12.5338 18.8184C12.4887 18.9337 12.4887 19.0663 12.5338 19.1816C13.4115 21.4232 15.2241 22.5 16.9999 22.5C18.7758 22.5 20.5884 21.4232 21.4661 19.1816C21.5112 19.0663 21.5112 18.9337 21.4661 18.8184C20.5884 16.5768 18.7758 15.5 16.9999 15.5Z" fill="#353566"/>
</svg>
