<svg width="24" height="24" viewBox="0 0 24 24" fill="none" xmlns="http://www.w3.org/2000/svg">
<path fill-rule="evenodd" clip-rule="evenodd" d="M19.19 1.63927C21.1526 0.973334 23.0267 2.84738 22.3608 4.80999L16.9107 20.8721C16.5805 21.8453 15.667 22.5001 14.6392 22.5001C13.7534 22.5001 12.9396 22.0118 12.5227 21.2302L9.13043 14.8696L2.76989 11.4773C1.98825 11.0604 1.5 10.2467 1.5 9.36082C1.5 8.3331 2.15472 7.41957 3.12794 7.08934L19.19 1.63927ZM21.4138 4.48867C21.8134 3.31111 20.6889 2.18668 19.5114 2.58624L3.44926 8.03631C2.88177 8.22887 2.5 8.76155 2.5 9.36082C2.5 9.87737 2.7847 10.3519 3.24048 10.595L8.03649 13.1528L15.0205 8.63378C15.2467 8.48739 15.5126 8.75324 15.3662 8.97948L10.8472 15.9635L13.4051 20.7596C13.6482 21.2154 14.1227 21.5001 14.6392 21.5001C15.2385 21.5001 15.7712 21.1183 15.9638 20.5508L21.4138 4.48867Z" fill="#353566"/>
<path d="M3.14645 15.1464C3.34171 14.9512 3.65829 14.9512 3.85355 15.1464C4.04882 15.3417 4.04882 15.6583 3.85355 15.8536L2.35355 17.3536C2.15829 17.5488 1.84171 17.5488 1.64645 17.3536C1.45118 17.1583 1.45118 16.8417 1.64645 16.6464L3.14645 15.1464Z" fill="#353566"/>
<path d="M8.85355 20.1464C8.65829 19.9512 8.34171 19.9512 8.14645 20.1464L6.64645 21.6464C6.45118 21.8417 6.45118 22.1583 6.64645 22.3536C6.84171 22.5488 7.15829 22.5488 7.35355 22.3536L8.85355 20.8536C9.04882 20.6583 9.04882 20.3417 8.85355 20.1464Z" fill="#353566"/>
<path d="M5.64645 17.6464C5.84171 17.4512 6.15829 17.4512 6.35355 17.6464C6.54882 17.8417 6.54882 18.1583 6.35355 18.3536L2.35355 22.3536C2.15829 22.5488 1.84171 22.5488 1.64645 22.3536C1.45119 22.1583 1.45119 21.8417 1.64645 21.6464L5.64645 17.6464Z" fill="#353566"/>
</svg>
