<svg width="24" height="24" viewBox="0 0 24 24" fill="none" xmlns="http://www.w3.org/2000/svg">
<g clip-path="url(#clip0_9001_311545)">
<path fill-rule="evenodd" clip-rule="evenodd" d="M12.0001 5.66663C9.14628 5.66663 6.83337 7.98247 6.83337 10.8357C6.83337 14.0167 9.36681 16.4834 11.7 18.2333C11.8778 18.3666 12.1223 18.3666 12.3 18.2333C14.6334 16.4833 17.1667 14.0166 17.1667 10.8333C17.1667 7.97979 14.8536 5.66663 12.0001 5.66663ZM7.83337 10.8357C7.83337 8.53411 9.69921 6.66663 12.0001 6.66663C14.3013 6.66663 16.1667 8.53205 16.1667 10.8333C16.1667 13.3692 14.2131 15.4931 12 17.2048C9.78695 15.493 7.83337 13.3693 7.83337 10.8357Z" fill="#353566"/>
<path fill-rule="evenodd" clip-rule="evenodd" d="M12 0.5C5.64873 0.5 0.5 5.64873 0.5 12C0.5 18.3513 5.64873 23.5 12 23.5C18.3513 23.5 23.5 18.3513 23.5 12C23.5 5.64873 18.3513 0.5 12 0.5ZM1.5 12C1.5 6.20101 6.20101 1.5 12 1.5C17.799 1.5 22.5 6.20101 22.5 12C22.5 17.799 17.799 22.5 12 22.5C6.20101 22.5 1.5 17.799 1.5 12Z" fill="#353566"/>
</g>
<defs>
<clipPath id="clip0_9001_311545">
<rect width="24" height="24" fill="white"/>
</clipPath>
</defs>
</svg>
