<svg width="24" height="24" viewBox="0 0 24 24" fill="none" xmlns="http://www.w3.org/2000/svg">
<path d="M9.99998 2.5C5.85787 2.5 2.5 5.85789 2.5 10C2.5 13.6968 4.85523 16.3371 6.74941 18.4398L6.87159 18.5755C7.50437 19.2786 9.02981 20.695 9.83754 21.4354C9.93016 21.5203 10.0698 21.5203 10.1624 21.4354C10.2546 21.3508 10.3568 21.2569 10.4664 21.1559C10.6694 20.9687 10.9857 20.9815 11.1729 21.1845C11.3601 21.3875 11.3473 21.7038 11.1443 21.891C11.0339 21.9928 10.931 22.0874 10.8381 22.1725C10.3632 22.6079 9.63678 22.6079 9.16184 22.1725C8.36768 21.4446 6.8006 19.9915 6.12829 19.2445L6.00642 19.1092L5.97199 19.0709C4.11262 17.007 1.5 14.1069 1.5 10C1.5 5.30561 5.30558 1.5 9.99998 1.5C14.6944 1.5 18.4999 5.30563 18.4999 10C18.4999 10.2251 18.4918 10.4469 18.4762 10.6655C18.4566 10.941 18.2173 11.1483 17.9419 11.1286C17.6664 11.109 17.4591 10.8697 17.4788 10.5943C17.4927 10.3991 17.4999 10.2011 17.4999 10C17.4999 5.8579 14.1421 2.5 9.99998 2.5Z" fill="#353566"/>
<path fill-rule="evenodd" clip-rule="evenodd" d="M7 10C7 8.34315 8.34315 7 10 7C11.6569 7 13 8.34315 13 10C13 11.6569 11.6569 13 10 13C8.34315 13 7 11.6569 7 10ZM10 8C8.89543 8 8 8.89543 8 10C8 11.1046 8.89543 12 10 12C11.1046 12 12 11.1046 12 10C12 8.89543 11.1046 8 10 8Z" fill="#353566"/>
<path fill-rule="evenodd" clip-rule="evenodd" d="M18.0133 13.6365C17.6043 12.7878 16.3957 12.7878 15.9866 13.6365L14.9213 15.8464L12.4801 16.165C11.5385 16.2879 11.1633 17.45 11.8553 18.1003L13.6335 19.7713L13.1858 22.1646C13.0121 23.0935 13.9916 23.8097 14.824 23.3625L17 22.1934L19.1759 23.3625C20.0083 23.8097 20.9878 23.0935 20.8141 22.1646L20.3664 19.7713L22.1446 18.1003C22.8366 17.45 22.4614 16.2879 21.5198 16.165L19.0786 15.8464L18.0133 13.6365ZM16.8874 14.0707C16.9328 13.9764 17.0671 13.9764 17.1125 14.0707L18.1778 16.2807C18.3244 16.5848 18.6145 16.7944 18.9492 16.838L21.3905 17.1566C21.495 17.1702 21.5367 17.2993 21.4599 17.3716L19.6816 19.0426C19.4331 19.2761 19.3208 19.62 19.3834 19.9552L19.8311 22.3485C19.8504 22.4517 19.7416 22.5312 19.6492 22.4815L17.4732 21.3125C17.1777 21.1537 16.8222 21.1537 16.5267 21.3125L14.3508 22.4815C14.2583 22.5312 14.1495 22.4517 14.1688 22.3485L14.6165 19.9552C14.6792 19.62 14.5668 19.2761 14.3183 19.0426L12.5401 17.3716C12.4632 17.2993 12.5049 17.1702 12.6095 17.1566L15.0507 16.838C15.3854 16.7944 15.6755 16.5848 15.8221 16.2807L16.8874 14.0707Z" fill="#353566"/>
</svg>
