<svg width="24" height="24" viewBox="0 0 24 24" fill="none" xmlns="http://www.w3.org/2000/svg">
<g clip-path="url(#clip0_9001_311215)">
<path d="M8.33989 0.500022H15.6601C16.7801 0.499707 17.4945 0.499506 18.1024 0.756423C18.6376 0.982612 19.1023 1.34814 19.4483 1.81495C19.8412 2.34517 20.0094 3.03948 20.2731 4.128L21.7942 10.4007C21.8593 10.6691 21.6945 10.9394 21.4262 11.0045C21.1578 11.0696 20.8875 10.9048 20.8224 10.6364L19.3296 4.48089C19.0271 3.23363 18.9016 2.75677 18.6449 2.41036C18.4054 2.08719 18.0836 1.83413 17.7131 1.67754C17.3159 1.50969 16.8229 1.50004 15.5395 1.50004H12.4999V5.00004C12.4999 5.27619 12.2761 5.50004 11.9999 5.50004C11.7238 5.50004 11.4999 5.27619 11.4999 5.00004V1.50004H8.46052C7.17709 1.50004 6.68405 1.50969 6.2869 1.67754C5.91638 1.83414 5.59461 2.0872 5.35511 2.41038C5.09846 2.7567 4.97289 3.23342 4.67062 4.47994L4.67037 4.48096L4.66953 4.48437L2.07431 15.1867C1.82681 16.2073 1.64938 16.941 1.56208 17.5194C1.47534 18.094 1.48782 18.4579 1.57971 18.7501C1.76258 19.3316 2.15161 19.8262 2.67361 20.141C2.93589 20.2991 3.28661 20.397 3.8655 20.4481C4.4482 20.4996 5.203 20.5 6.2532 20.5H11.4999V17C11.4999 16.7239 11.7238 16.5 11.9999 16.5C12.2761 16.5 12.4999 16.7239 12.4999 17V21C12.4999 21.2762 12.2761 21.5 11.9999 21.5H6.22831C5.20832 21.5 4.40939 21.5 3.77752 21.4442C3.1367 21.3876 2.60959 21.2701 2.15724 20.9973C1.42643 20.5567 0.881799 19.8642 0.625771 19.0501C0.467296 18.5462 0.477263 18.0062 0.573276 17.3701C0.66795 16.7429 0.856234 15.9665 1.09662 14.9752L3.69805 4.24731L3.69829 4.2463L3.69854 4.24527L3.69935 4.24183L3.72694 4.12803C3.99058 3.03953 4.15874 2.34521 4.55168 1.81498C4.89763 1.34816 5.3624 0.982624 5.8976 0.75643C6.5055 0.499506 7.21989 0.499707 8.33989 0.500022Z" fill="#353566"/>
<path d="M11.9999 8.50004C12.2761 8.50004 12.4999 8.7239 12.4999 9.00004V13C12.4999 13.2762 12.2761 13.5 11.9999 13.5C11.7238 13.5 11.4999 13.2762 11.4999 13V9.00004C11.4999 8.7239 11.7238 8.50004 11.9999 8.50004Z" fill="#353566"/>
<path fill-rule="evenodd" clip-rule="evenodd" d="M16.25 15C16.25 13.5656 17.5382 12.5 19 12.5C20.4618 12.5 21.75 13.5656 21.75 15V16.25C22.7165 16.25 23.5 17.0335 23.5 18V21.75C23.5 22.7165 22.7165 23.5 21.75 23.5H16.25C15.2835 23.5 14.5 22.7165 14.5 21.75V18C14.5 17.0335 15.2835 16.25 16.25 16.25V15ZM17.25 16.25H20.75V15C20.75 14.2253 20.0235 13.5 19 13.5C17.9765 13.5 17.25 14.2253 17.25 15V16.25ZM16.25 17.25C15.8358 17.25 15.5 17.5858 15.5 18V21.75C15.5 22.1642 15.8358 22.5 16.25 22.5H21.75C22.1642 22.5 22.5 22.1642 22.5 21.75V18C22.5 17.5858 22.1642 17.25 21.75 17.25H16.25Z" fill="#353566"/>
</g>
<defs>
<clipPath id="clip0_9001_311215">
<rect width="24" height="24" fill="white"/>
</clipPath>
</defs>
</svg>
