<svg width="24" height="24" viewBox="0 0 24 24" fill="none" xmlns="http://www.w3.org/2000/svg">
<g clip-path="url(#clip0_9001_274480)">
<path fill-rule="evenodd" clip-rule="evenodd" d="M15.4326 0.25H6.56739C5.61496 0.249994 4.85439 0.249989 4.24013 0.300176C3.61012 0.35165 3.06824 0.459634 2.57054 0.713223C1.77085 1.12068 1.12068 1.77085 0.713223 2.57054C0.459634 3.06824 0.35165 3.61012 0.300176 4.24013C0.249989 4.85439 0.249994 5.61494 0.25 6.56738V12.4326C0.249994 13.3851 0.249989 14.1456 0.300176 14.7599C0.35165 15.3899 0.459634 15.9318 0.713223 16.4295C1.12068 17.2291 1.77085 17.8793 2.57054 18.2868C3.06824 18.5404 3.61012 18.6483 4.24013 18.6998C4.85438 18.75 5.61496 18.75 6.56737 18.75H7.20054C7.72267 18.75 7.82573 18.7578 7.90786 18.783C8.00306 18.8122 8.09149 18.8601 8.16798 18.9238C8.23398 18.9788 8.29685 19.0609 8.58224 19.4981L9.04993 20.2146C9.25804 20.5335 9.44144 20.8145 9.60993 21.0275C9.78375 21.2473 10.0065 21.4815 10.3234 21.6144C10.7562 21.7959 11.2438 21.7959 11.6766 21.6144C11.9324 21.5072 12.1241 21.3354 12.277 21.1629C12.47 20.9452 12.5197 20.6355 12.4045 20.3683C12.141 19.7575 12.2279 19.0899 12.5675 18.2944C12.6478 18.1063 12.6478 17.8936 12.5675 17.7054C12.192 16.826 12.1197 16.0962 12.514 15.4143L13.1357 14.339C13.5303 13.6565 14.201 13.3526 15.1537 13.236C15.3558 13.2113 15.5392 13.1055 15.6617 12.9429C16.2375 12.1786 16.8358 11.75 17.6283 11.75H18.8717C19.5022 11.75 19.9986 12.0182 20.4606 12.4964C20.673 12.7163 20.9976 12.7852 21.281 12.6706C21.5645 12.5561 21.75 12.281 21.75 11.9753V6.5673C21.75 5.6149 21.75 4.85438 21.6998 4.24013C21.6483 3.61012 21.5404 3.06824 21.2868 2.57054C20.8793 1.77085 20.2291 1.12068 19.4295 0.713223C18.9318 0.459634 18.3899 0.35165 17.7599 0.300176C17.1456 0.249989 16.385 0.249994 15.4326 0.25ZM6 9.5C6 8.94771 6.44772 8.5 7 8.5C7.55228 8.5 8.0001 8.94771 8.0001 9.5C8.0001 10.0523 7.55238 10.5 7.0001 10.5C6.44782 10.5 6 10.0523 6 9.5ZM10 9.5C10 8.94771 10.4477 8.5 11 8.5C11.5523 8.5 12.0001 8.94771 12.0001 9.5C12.0001 10.0523 11.5524 10.5 11.0001 10.5C10.4478 10.5 10 10.0523 10 9.5ZM14 9.5C14 8.94771 14.4477 8.5 15 8.5C15.5523 8.5 16.0001 8.94771 16.0001 9.5C16.0001 10.0523 15.5523 10.5 15 10.5C14.4477 10.5 14 10.0523 14 9.5Z" fill="#353566"/>
<path fill-rule="evenodd" clip-rule="evenodd" d="M13.4012 20.0872C13.09 19.5473 13.2745 18.8569 13.8138 18.5449C14.2325 18.3028 14.2325 17.6971 13.8138 17.455C13.2745 17.143 13.09 16.4525 13.4012 15.9127L14.0209 14.8374C14.3321 14.2973 15.0219 14.112 15.5615 14.4241C15.9792 14.6657 16.5027 14.3641 16.5027 13.8791C16.5027 13.2559 17.0071 12.75 17.6303 12.75H18.8698C19.4929 12.75 19.9974 13.256 19.9974 13.8792C19.9974 14.3642 20.5209 14.6657 20.9386 14.4241C21.4782 14.112 22.1679 14.2974 22.4792 14.8375L23.0989 15.9128C23.41 16.4526 23.2256 17.1431 22.6863 17.455C22.2677 17.6971 22.2677 18.3028 22.6863 18.5449C23.2256 18.8568 23.41 19.5473 23.0989 20.0871L22.4792 21.1624C22.1679 21.7025 21.4782 21.8879 20.9386 21.5758C20.5209 21.3342 19.9974 21.6357 19.9974 22.1208C19.9974 22.744 19.4929 23.25 18.8697 23.25H17.6303C17.0071 23.25 16.5027 22.744 16.5027 22.1208C16.5027 21.6358 15.9792 21.3342 15.5615 21.5758C15.0219 21.8879 14.3321 21.7025 14.0209 21.1625L13.4012 20.0872ZM18.25 19.5C19.0784 19.5 19.75 18.8284 19.75 18C19.75 17.1716 19.0784 16.5 18.25 16.5C17.4216 16.5 16.75 17.1716 16.75 18C16.75 18.8284 17.4216 19.5 18.25 19.5Z" fill="#353566"/>
</g>
<defs>
<clipPath id="clip0_9001_274480">
<rect width="24" height="24" fill="white"/>
</clipPath>
</defs>
</svg>
