<svg width="24" height="24" viewBox="0 0 24 24" fill="none" xmlns="http://www.w3.org/2000/svg">
<g clip-path="url(#clip0_9001_274445)">
<path fill-rule="evenodd" clip-rule="evenodd" d="M15.4326 0.25H6.56739C5.61495 0.249994 4.85439 0.249989 4.24013 0.300176C3.61012 0.35165 3.06824 0.459634 2.57054 0.713223C1.77085 1.12068 1.12068 1.77085 0.713223 2.57054C0.459634 3.06824 0.35165 3.61012 0.300176 4.24013C0.249989 4.85439 0.249994 5.61495 0.25 6.56738V12.4326C0.249994 13.3851 0.249989 14.1456 0.300176 14.7599C0.35165 15.3899 0.459634 15.9318 0.713223 16.4295C1.12068 17.2291 1.77085 17.8793 2.57054 18.2868C3.06824 18.5404 3.61012 18.6483 4.24013 18.6998C4.85438 18.75 5.61496 18.75 6.56737 18.75H7.20054C7.72267 18.75 7.82573 18.7578 7.90786 18.783C8.00306 18.8122 8.09149 18.8601 8.16798 18.9238C8.23398 18.9788 8.29685 19.0609 8.58224 19.4981L9.04552 20.2078C9.23673 20.5008 9.40565 20.7596 9.55896 20.9617C9.71362 21.1655 9.90259 21.3814 10.1552 21.53C10.4302 21.6919 10.7776 21.6619 11.0209 21.4553C11.2642 21.2488 11.3501 20.9109 11.235 20.6132C10.922 19.8034 10.75 18.9227 10.75 18C10.75 13.9959 13.9959 10.75 18 10.75C18.9628 10.75 19.88 10.9373 20.7186 11.2767C20.9498 11.3703 21.2124 11.3428 21.4192 11.2034C21.626 11.064 21.75 10.8309 21.75 10.5815V6.5673C21.75 5.6149 21.75 4.85438 21.6998 4.24013C21.6483 3.61012 21.5404 3.06824 21.2868 2.57054C20.8793 1.77085 20.2291 1.12068 19.4295 0.713223C18.9318 0.459634 18.3899 0.35165 17.7599 0.300176C17.1456 0.249989 16.385 0.249994 15.4326 0.25ZM6 9.5C6 8.94772 6.44772 8.5 7 8.5C7.55229 8.5 8.0001 8.94772 8.0001 9.5C8.0001 10.0523 7.55239 10.5 7.0001 10.5C6.44782 10.5 6 10.0523 6 9.5ZM10 9.5C10 8.94772 10.4477 8.5 11 8.5C11.5523 8.5 12.0001 8.94772 12.0001 9.5C12.0001 10.0523 11.5524 10.5 11.0001 10.5C10.4478 10.5 10 10.0523 10 9.5ZM14 9.5C14 8.94772 14.4477 8.5 15 8.5C15.5523 8.5 16.0001 8.94772 16.0001 9.5C16.0001 10.0523 15.5523 10.5 15 10.5C14.4477 10.5 14 10.0523 14 9.5Z" fill="#353566"/>
<path fill-rule="evenodd" clip-rule="evenodd" d="M18 12.25C21.1756 12.25 23.75 14.8244 23.75 18C23.75 21.1756 21.1756 23.75 18 23.75C14.8244 23.75 12.25 21.1756 12.25 18C12.25 14.8244 14.8244 12.25 18 12.25ZM18 15.875C17.5168 15.875 17.125 16.2668 17.125 16.75C17.125 17.0952 16.8452 17.375 16.5 17.375C16.1548 17.375 15.875 17.0952 15.875 16.75C15.875 15.5764 16.8264 14.625 18 14.625C19.1736 14.625 20.125 15.5764 20.125 16.75C20.125 17.3427 19.8816 17.8796 19.4908 18.2643C19.2895 18.4625 19.0688 18.5982 18.9296 18.6837C18.9036 18.6997 18.8805 18.7139 18.8608 18.7264C18.7268 18.8121 18.6851 18.855 18.6507 18.9194C18.4881 19.2239 18.1094 19.3389 17.8049 19.1763C17.5005 19.0137 17.3855 18.635 17.5481 18.3306C17.7329 17.9845 17.9891 17.8001 18.1875 17.6733C18.233 17.6442 18.2733 17.6191 18.3099 17.5963C18.44 17.5152 18.5217 17.4643 18.6138 17.3736C18.7758 17.2141 18.875 16.9942 18.875 16.75C18.875 16.2668 18.4832 15.875 18 15.875ZM17.25 20.5C17.25 20.0858 17.5858 19.75 18 19.75C18.4142 19.75 18.7501 20.0858 18.7501 20.5C18.7501 20.9142 18.4142 21.25 18 21.25C17.5858 21.25 17.25 20.9142 17.25 20.5Z" fill="#353566"/>
</g>
<defs>
<clipPath id="clip0_9001_274445">
<rect width="24" height="24" fill="white"/>
</clipPath>
</defs>
</svg>
