<svg width="24" height="24" viewBox="0 0 24 24" fill="none" xmlns="http://www.w3.org/2000/svg">
<g clip-path="url(#clip0_9001_274715)">
<path fill-rule="evenodd" clip-rule="evenodd" d="M15.4326 0.25H6.56739C5.61495 0.249994 4.85439 0.249989 4.24013 0.300176C3.61012 0.35165 3.06824 0.459634 2.57054 0.713223C1.77085 1.12068 1.12068 1.77085 0.713223 2.57054C0.459634 3.06824 0.35165 3.61012 0.300176 4.24013C0.249989 4.85439 0.249994 5.61495 0.25 6.56738V12.4326C0.249994 13.3851 0.249989 14.1456 0.300176 14.7599C0.35165 15.3899 0.459634 15.9318 0.713223 16.4295C1.12068 17.2291 1.77085 17.8793 2.57054 18.2868C3.06824 18.5404 3.61012 18.6483 4.24013 18.6998C4.85438 18.75 5.61496 18.75 6.56737 18.75H7.20054C7.72267 18.75 7.82573 18.7578 7.90786 18.783C8.00306 18.8122 8.09149 18.8601 8.16798 18.9238C8.23398 18.9788 8.29685 19.0609 8.58224 19.4981L9.04993 20.2146C9.25804 20.5335 9.44144 20.8145 9.60993 21.0275C9.78375 21.2473 10.0065 21.4815 10.3234 21.6144C10.7562 21.7959 11.2438 21.7959 11.6766 21.6144C12.1207 21.4282 12.4098 21.0214 12.6487 20.6704C12.7761 20.483 12.8121 20.2481 12.7465 20.0313C12.6809 19.8144 12.5208 19.6388 12.3109 19.5536C12.0796 19.4597 11.8859 19.3352 11.7179 19.1543C11.0601 18.4462 11.1008 17.339 11.8089 16.6811C13.4312 15.1739 15.6094 14.25 17.9993 14.25C18.9626 14.25 19.8905 14.4 20.7611 14.6772C20.9859 14.7488 21.2312 14.7104 21.4234 14.5737C21.6157 14.4369 21.7323 14.2177 21.7384 13.9819C21.75 13.5307 21.75 13.0093 21.75 12.4082V6.5673C21.75 5.6149 21.75 4.85438 21.6998 4.24013C21.6483 3.61012 21.5404 3.06824 21.2868 2.57054C20.8793 1.77085 20.2291 1.12068 19.4295 0.713223C18.9318 0.459634 18.3899 0.35165 17.7599 0.300176C17.1456 0.249989 16.385 0.249994 15.4326 0.25ZM15.5 8.25H6.5C6.08579 8.25 5.75 7.91421 5.75 7.5C5.75 7.08579 6.08579 6.75 6.5 6.75H15.5C15.9142 6.75 16.25 7.08579 16.25 7.5C16.25 7.91421 15.9142 8.25 15.5 8.25ZM11.5 12.25L6.5 12.25C6.08579 12.25 5.75 11.9142 5.75 11.5C5.75 11.0858 6.08579 10.75 6.5 10.75L11.5 10.75C11.9142 10.75 12.25 11.0858 12.25 11.5C12.25 11.9142 11.9142 12.25 11.5 12.25Z" fill="#353566"/>
<path d="M17.9993 16.75C16.2651 16.75 14.6885 17.4182 13.5105 18.5127C13.207 18.7946 12.7325 18.7772 12.4505 18.4737C12.1686 18.1702 12.1861 17.6957 12.4895 17.4138C13.9341 16.0717 15.8716 15.25 17.9993 15.25C20.1278 15.25 22.0659 16.0723 23.5106 17.4151C23.814 17.6971 23.8313 18.1717 23.5493 18.4751C23.2673 18.7785 22.7928 18.7958 22.4894 18.5138C21.3112 17.4187 19.7342 16.75 17.9993 16.75Z" fill="#353566"/>
<path d="M18.0032 20.0833C17.2185 20.0833 16.5008 20.4138 15.9697 20.9648C15.6823 21.2631 15.2075 21.2718 14.9092 20.9844C14.611 20.6969 14.6022 20.2221 14.8897 19.9239C15.6831 19.1006 16.7827 18.5833 18.0032 18.5833C19.2237 18.5833 20.3233 19.1006 21.1168 19.9239C21.4042 20.2221 21.3955 20.6969 21.0972 20.9844C20.799 21.2718 20.3242 21.2631 20.0367 20.9648C19.5057 20.4138 18.7879 20.0833 18.0032 20.0833Z" fill="#353566"/>
<path d="M17 22.5C17 21.9477 17.4477 21.5 18 21.5C18.5523 21.5 19.0001 21.9477 19.0001 22.5C19.0001 23.0523 18.5523 23.5 18 23.5C17.4477 23.5 17 23.0523 17 22.5Z" fill="#353566"/>
</g>
<defs>
<clipPath id="clip0_9001_274715">
<rect width="24" height="24" fill="white"/>
</clipPath>
</defs>
</svg>
