<svg width="24" height="24" viewBox="0 0 24 24" fill="none" xmlns="http://www.w3.org/2000/svg">
<path d="M11.5674 1.25H16.4326C17.385 1.24999 18.1456 1.24999 18.7598 1.30018C19.3899 1.35165 19.9317 1.45963 20.4294 1.71322C21.2291 2.12068 21.8793 2.77085 22.2868 3.57054C22.5403 4.06824 22.6483 4.61012 22.6998 5.24013C22.75 5.85438 22.75 6.61497 22.75 7.56737L22.75 10.9289C22.7503 12.0324 22.7505 12.7573 22.562 13.37C22.4597 13.7025 22.3182 14.0174 22.1428 14.3092C21.9294 14.6642 21.4687 14.7791 21.1136 14.5657C20.7586 14.3523 20.6438 13.8915 20.8571 13.5365C20.9705 13.3479 21.0621 13.1442 21.1283 12.9288C21.2416 12.5607 21.25 12.0828 21.25 10.7897V7.6C21.25 6.60753 21.2494 5.90829 21.2048 5.36228C21.1609 4.82503 21.0781 4.50252 20.9502 4.25153C20.6866 3.73408 20.2659 3.31338 19.7484 3.04973C19.4975 2.92184 19.1749 2.83909 18.6377 2.79519C18.0917 2.75058 17.3924 2.75 16.4 2.75H11.6C10.6075 2.75 9.90826 2.75058 9.36226 2.79519C8.825 2.83909 8.5025 2.92184 8.2515 3.04973C8.19428 3.07889 8.13826 3.10996 8.0835 3.14286C7.72846 3.35621 7.26768 3.24135 7.05433 2.8863C6.84099 2.53126 6.95585 2.07049 7.31089 1.85714C7.39553 1.80628 7.48211 1.75827 7.57052 1.71322C8.06821 1.45963 8.6101 1.35165 9.24011 1.30018C9.85437 1.24999 10.6149 1.24999 11.5674 1.25Z" fill="#353566"/>
<path fill-rule="evenodd" clip-rule="evenodd" d="M13.2321 5.25H6.7679C5.95507 5.24999 5.29944 5.24999 4.76853 5.29336C4.2219 5.33803 3.74176 5.43239 3.29754 5.65873C2.59193 6.01825 2.01825 6.59193 1.65873 7.29754C1.43239 7.74175 1.33803 8.2219 1.29336 8.76853C1.24999 9.29943 1.24999 9.95505 1.25 10.7679V14.9716C1.24999 15.7289 1.24999 16.3399 1.28779 16.8356C1.32669 17.3458 1.4088 17.7952 1.6062 18.2152C1.97788 19.006 2.61404 19.6421 3.40482 20.0138C3.82506 20.2113 4.27545 20.2934 4.78682 20.3322C5.28402 20.37 5.89713 20.37 6.6576 20.37H6.68743C7.18374 20.37 7.28259 20.377 7.3602 20.3993C7.47297 20.4319 7.57654 20.4904 7.66257 20.5702C7.72183 20.6252 7.77846 20.7057 8.03355 21.1292L8.04925 21.1552C8.2412 21.4739 8.40892 21.7523 8.56231 21.9647C8.71841 22.1808 8.92005 22.4173 9.21166 22.5644C9.70745 22.8146 10.2926 22.8146 10.7883 22.5644C11.08 22.4173 11.2816 22.1808 11.4377 21.9647C11.5911 21.7523 11.7588 21.4738 11.9508 21.1552L11.9672 21.1279C12.2217 20.7055 12.2782 20.6251 12.3374 20.5702C12.4235 20.4904 12.527 20.4319 12.6398 20.3993C12.7174 20.377 12.8163 20.37 13.3126 20.37H13.3424C14.1029 20.37 14.716 20.37 15.2132 20.3322C15.7245 20.2934 16.1749 20.2113 16.5952 20.0138C17.386 19.6421 18.0221 19.006 18.3938 18.2152C18.5912 17.7952 18.6733 17.3458 18.7122 16.8356C18.75 16.3399 18.75 15.7289 18.75 14.9715V10.7679C18.75 9.95505 18.75 9.29944 18.7066 8.76853C18.662 8.2219 18.5676 7.74175 18.3413 7.29754C17.9818 6.59193 17.4081 6.01825 16.7025 5.65873C16.2582 5.43239 15.7781 5.33803 15.2315 5.29336C14.7006 5.24999 14.0449 5.24999 13.2321 5.25ZM10 9.75C9.17157 9.75 8.5 10.4216 8.5 11.25C8.5 11.3262 8.50856 11.4012 8.52159 11.4702C8.59851 11.8772 8.33092 12.2695 7.92391 12.3464C7.5169 12.4233 7.1246 12.1557 7.04768 11.7487C7.02058 11.6053 7 11.4359 7 11.25C7 9.59315 8.34315 8.25 10 8.25C11.6569 8.25 13 9.59315 13 11.25C13 12.0867 12.6565 12.8446 12.1046 13.3879C11.8007 13.6871 11.4725 13.8695 11.258 13.9887C11.2223 14.0086 11.1897 14.0267 11.1609 14.0433C10.9539 14.1626 10.8762 14.2305 10.8106 14.3533C10.6155 14.7187 10.1611 14.8567 9.79574 14.6616C9.43037 14.4664 9.29237 14.012 9.48751 13.6467C9.75076 13.1538 10.12 12.912 10.4116 12.7438C10.4645 12.7133 10.5133 12.6858 10.5585 12.6602C10.7672 12.5424 10.9035 12.4654 11.0523 12.319C11.3295 12.046 11.5 11.6686 11.5 11.25C11.5 10.4216 10.8284 9.75 10 9.75ZM9 16.5C9 15.9477 9.44772 15.5 10 15.5C10.5523 15.5 11.0001 15.9477 11.0001 16.5C11.0001 17.0523 10.5523 17.5 10 17.5C9.44772 17.5 9 17.0523 9 16.5Z" fill="#353566"/>
</svg>
