<svg width="24" height="24" viewBox="0 0 24 24" fill="none" xmlns="http://www.w3.org/2000/svg">
<g clip-path="url(#clip0_9001_274720)">
<path fill-rule="evenodd" clip-rule="evenodd" d="M15.4326 0.250244H6.56739C5.61495 0.250238 4.85439 0.250233 4.24013 0.30042C3.61012 0.351894 3.06824 0.459878 2.57054 0.713467C1.77085 1.12093 1.12068 1.7711 0.713223 2.57079C0.459634 3.06848 0.35165 3.61036 0.300176 4.24038C0.249989 4.85464 0.249994 5.61519 0.25 6.56763V12.4329C0.249994 13.3853 0.249989 14.1459 0.300176 14.7601C0.35165 15.3901 0.459634 15.932 0.713223 16.4297C1.12068 17.2294 1.77085 17.8796 2.57054 18.287C3.06824 18.5406 3.61012 18.6486 4.24013 18.7001C4.85438 18.7503 5.61496 18.7502 6.56737 18.7502H7.20054C7.72267 18.7502 7.82573 18.758 7.90786 18.7832C8.00306 18.8125 8.09149 18.8603 8.16798 18.9241C8.23398 18.9791 8.29685 19.0611 8.58224 19.4984L9.04993 20.2149C9.25804 20.5337 9.44144 20.8147 9.60993 21.0277C9.78375 21.2475 10.0065 21.4818 10.3234 21.6147C10.7562 21.7961 11.2439 21.7961 11.6767 21.6146C11.6955 21.6067 11.7141 21.5984 11.7327 21.5897C11.952 21.4859 12.1077 21.2825 12.1504 21.0436C12.1931 20.8047 12.1175 20.5599 11.9476 20.3866L11.7504 20.1854C11.4254 19.8539 11.2454 19.4069 11.2501 18.9428C11.2547 18.4786 11.4436 18.0353 11.7751 17.7104L13.7751 15.7504C14.2835 15.2522 15.0201 15.1254 15.6458 15.373L16.1653 15.5786C16.3637 15.6571 16.5862 15.6474 16.777 15.5519C16.9678 15.4564 17.1089 15.2842 17.165 15.0783L17.3118 14.5392C17.5612 13.6237 18.499 13.0711 19.4244 13.3025C19.8295 13.4038 20.1646 13.6372 20.3974 13.9465C20.5905 14.2032 20.9256 14.3083 21.2308 14.2081C21.5359 14.1078 21.7433 13.8244 21.7466 13.5032C21.75 13.1717 21.75 12.8055 21.75 12.4029V6.56755C21.75 5.61514 21.75 4.85462 21.6998 4.24038C21.6483 3.61036 21.5404 3.06848 21.2868 2.57079C20.8793 1.7711 20.2291 1.12093 19.4295 0.713467C18.9318 0.459878 18.3899 0.351894 17.7599 0.30042C17.1456 0.250233 16.385 0.250238 15.4326 0.250244ZM15.5 8.25018L6.5 8.25018C6.08579 8.25018 5.75 7.91439 5.75 7.50018C5.75 7.08596 6.08579 6.75018 6.5 6.75018H15.5C15.9142 6.75018 16.25 7.08596 16.25 7.50018C16.25 7.91439 15.9142 8.25018 15.5 8.25018ZM11.5 12.2502L6.5 12.2502C6.08579 12.2502 5.75 11.9144 5.75 11.5002C5.75 11.086 6.08579 10.7502 6.5 10.7502L11.5 10.7502C11.9142 10.7502 12.25 11.086 12.25 11.5002C12.25 11.9144 11.9142 12.2502 11.5 12.2502Z" fill="#353566"/>
<path d="M15.5357 16.4753C15.8256 16.7711 15.8208 17.246 15.5249 17.5359L14.0607 18.9709L15.5355 20.4752C15.8255 20.771 15.8208 21.2458 15.525 21.5358C15.2292 21.8258 14.7544 21.8211 14.4644 21.5253L12.4644 19.4853C12.3252 19.3432 12.248 19.1517 12.25 18.9527C12.252 18.7538 12.333 18.5638 12.4751 18.4246L14.4751 16.4646C14.7709 16.1747 15.2457 16.1795 15.5357 16.4753Z" fill="#353566"/>
<path d="M20.4641 16.4756C20.7538 16.1796 21.2287 16.1745 21.5247 16.4643L23.5247 18.4223C23.6668 18.5615 23.7479 18.7514 23.75 18.9504C23.752 19.1493 23.675 19.3409 23.5358 19.483L21.5358 21.525C21.246 21.821 20.7711 21.8259 20.4752 21.5361C20.1793 21.2462 20.1744 20.7714 20.4642 20.4755L21.9393 18.9694L20.4753 17.5362C20.1793 17.2464 20.1743 16.7716 20.4641 16.4756Z" fill="#353566"/>
<path d="M19.1819 14.2726C19.5837 14.373 19.8281 14.7802 19.7276 15.1821L17.7276 23.1821C17.6271 23.5839 17.2199 23.8282 16.8181 23.7278C16.4162 23.6273 16.1719 23.2201 16.2724 22.8183L18.2724 14.8183C18.3728 14.4164 18.7801 14.1721 19.1819 14.2726Z" fill="#353566"/>
</g>
<defs>
<clipPath id="clip0_9001_274720">
<rect width="24" height="24" fill="white"/>
</clipPath>
</defs>
</svg>
