<svg width="24" height="24" viewBox="0 0 24 24" fill="none" xmlns="http://www.w3.org/2000/svg">
<path d="M12 9.25C11.5858 9.25 11.25 9.58579 11.25 10C11.25 10.4142 11.5858 10.75 12 10.75C12.4142 10.75 12.7501 10.4142 12.7501 10C12.7501 9.58579 12.4142 9.25 12 9.25Z" fill="#353566"/>
<path fill-rule="evenodd" clip-rule="evenodd" d="M7 10C7 7.23858 9.23858 5 12 5C14.7614 5 17 7.23858 17 10C17 12.7614 14.7614 15 12 15C9.23858 15 7 12.7614 7 10ZM12 6C9.79086 6 8 7.79086 8 10C8 12.2091 9.79086 14 12 14C14.2091 14 16 12.2091 16 10C16 7.79086 14.2091 6 12 6Z" fill="#353566"/>
<path fill-rule="evenodd" clip-rule="evenodd" d="M14.4224 1.5H9.57755C8.61647 1.5 7.86451 1.49999 7.26049 1.54935C6.64594 1.59956 6.14062 1.70334 5.68404 1.93597C4.93139 2.31947 4.31947 2.93139 3.93597 3.68404C3.70334 4.14062 3.59956 4.64594 3.54935 5.26049C3.49999 5.86451 3.5 6.61646 3.5 7.57755V12.4224C3.5 13.3835 3.49999 14.1355 3.54935 14.7395C3.59956 15.3541 3.70334 15.8594 3.93597 16.316C4.31947 17.0686 4.93139 17.6805 5.68404 18.064C6.13606 18.2943 6.63587 18.3984 7.24214 18.4491L5.63367 19.8789C4.60278 20.7952 5.25094 22.5 6.63021 22.5H17.3698C18.7491 22.5 19.3972 20.7952 18.3664 19.8789L16.7579 18.4491C17.3641 18.3984 17.8639 18.2943 18.316 18.064C19.0686 17.6805 19.6805 17.0686 20.064 16.316C20.2967 15.8594 20.4004 15.3541 20.4507 14.7395C20.5 14.1355 20.5 13.3835 20.5 12.4225V7.57754C20.5 6.61646 20.5 5.86451 20.4507 5.26049C20.4004 4.64594 20.2967 4.14062 20.064 3.68404C19.6805 2.93139 19.0686 2.31947 18.316 1.93597C17.8594 1.70334 17.3541 1.59956 16.7395 1.54935C16.1355 1.49999 15.3835 1.5 14.4224 1.5ZM15.3079 18.4982C15.0344 18.5 14.7403 18.5 14.4235 18.5H9.5755C9.25909 18.5 8.96535 18.5 8.69211 18.4982L6.29803 20.6263C5.9544 20.9317 6.17045 21.5 6.63021 21.5H17.3698C17.8296 21.5 18.0456 20.9317 17.702 20.6263L15.3079 18.4982ZM6.13803 2.82698C6.43014 2.67814 6.78921 2.59118 7.34192 2.54602C7.90047 2.50039 8.61166 2.5 9.6 2.5H14.4C15.3883 2.5 16.0995 2.50039 16.6581 2.54602C17.2108 2.59118 17.5699 2.67814 17.862 2.82698C18.4265 3.1146 18.8854 3.57354 19.173 4.13803C19.3219 4.43014 19.4088 4.78921 19.454 5.34192C19.4996 5.90047 19.5 6.61166 19.5 7.6V12.4C19.5 13.3883 19.4996 14.0995 19.454 14.6581C19.4088 15.2108 19.3219 15.5699 19.173 15.862C18.8854 16.4265 18.4265 16.8854 17.862 17.173C17.5699 17.3219 17.2108 17.4088 16.6581 17.454C16.0995 17.4996 15.3883 17.5 14.4 17.5H9.6C8.61166 17.5 7.90047 17.4996 7.34192 17.454C6.78921 17.4088 6.43014 17.3219 6.13803 17.173C5.57354 16.8854 5.1146 16.4265 4.82698 15.862C4.67814 15.5699 4.59118 15.2108 4.54602 14.6581C4.50039 14.0995 4.5 13.3883 4.5 12.4V7.6C4.5 6.61166 4.50039 5.90047 4.54602 5.34192C4.59118 4.78921 4.67814 4.43014 4.82698 4.13803C5.1146 3.57354 5.57354 3.1146 6.13803 2.82698Z" fill="#353566"/>
</svg>
