<svg width="24" height="24" viewBox="0 0 24 24" fill="none" xmlns="http://www.w3.org/2000/svg">
<path d="M19 2C19 1.72386 18.7761 1.5 18.5 1.5C18.2239 1.5 18 1.72386 18 2V6.79289L16.3536 5.1465C16.1583 4.95124 15.8418 4.95124 15.6465 5.1465C15.4512 5.34177 15.4512 5.65835 15.6465 5.85361L18.1465 8.35357C18.3417 8.54884 18.6583 8.54884 18.8536 8.35357L21.3536 5.85355C21.5489 5.65828 21.5489 5.3417 21.3536 5.14644C21.1583 4.95118 20.8417 4.95118 20.6465 5.14644L19 6.79293V2Z" fill="#353566"/>
<path d="M10.1977 3.00002L12.7768 3.00005C13.0529 3.00005 13.2768 3.22391 13.2768 3.50005C13.2768 3.77619 13.0529 4.00005 12.7768 4.00005H10.2625C9.76998 4.00005 9.62621 4.00499 9.50256 4.04196C9.37845 4.07907 9.26274 4.13995 9.16184 4.22119C9.06133 4.30214 8.97581 4.41781 8.69679 4.82365L7.69341 6.28312C7.60013 6.4188 7.44603 6.49985 7.28138 6.49985H7.1C6.11166 6.49985 5.40047 6.50024 4.84192 6.54588C4.28921 6.59104 3.93014 6.678 3.63803 6.82683C3.07354 7.11446 2.6146 7.5734 2.32698 8.13788C2.17814 8.42999 2.09118 8.78907 2.04602 9.34178C2.00039 9.90033 2 10.6115 2 11.5999V16.3999C2 17.3882 2.00039 18.0994 2.04602 18.6579C2.09118 19.2106 2.17814 19.5697 2.32698 19.8618C2.6146 20.4263 3.07354 20.8853 3.63803 21.1729C3.93014 21.3217 4.28921 21.4087 4.84192 21.4538C5.40047 21.4995 6.11166 21.4999 7.1 21.4999H19.0002C20.6569 21.4999 22 20.1568 22 18.5L22 18.495L22 18.49V11.5999C22 11.1348 22 10.7293 21.995 10.3694C21.9911 10.0932 22.2119 9.86629 22.488 9.86246C22.7641 9.85862 22.991 10.0793 22.9949 10.3555C23 10.7231 23 11.1352 23 11.5973V18.49L23 18.495L23 18.5C23 20.7091 21.2092 22.4999 19.0002 22.4999H7.07754C6.11646 22.4999 5.36451 22.4999 4.76049 22.4505C4.14594 22.4003 3.64062 22.2965 3.18404 22.0639C2.43139 21.6804 1.81947 21.0685 1.43597 20.3158C1.20334 19.8592 1.09956 19.3539 1.04935 18.7394C0.999995 18.1353 0.999997 17.3834 1 16.4223V11.5774C0.999997 10.6163 0.999995 9.86437 1.04935 9.26035C1.09956 8.64579 1.20334 8.14047 1.43597 7.68389C1.81947 6.93124 2.43139 6.31932 3.18404 5.93583C3.64062 5.70319 4.14594 5.59941 4.76049 5.5492C5.35206 5.50087 6.08552 5.49987 7.01837 5.49985L7.90944 4.20371C8.13517 3.87496 8.30555 3.62682 8.53464 3.44234C8.73643 3.27984 8.96786 3.1581 9.21608 3.08388C9.4979 2.99961 9.79889 2.99979 10.1977 3.00002Z" fill="#353566"/>
<path fill-rule="evenodd" clip-rule="evenodd" d="M7.5 14C7.5 11.5148 9.51472 9.50005 12 9.50005C14.4853 9.50005 16.5 11.5148 16.5 14L16.4999 14.0111L16.4999 14.0139C16.481 16.4853 14.4766 18.5 12 18.5C9.51472 18.5 7.5 16.4853 7.5 14ZM15.5 13.9991C15.4995 12.0665 13.9327 10.5 12 10.5C10.067 10.5 8.5 12.0671 8.5 14C8.5 15.933 10.067 17.5 12 17.5C13.9208 17.5 15.4852 15.9348 15.4999 14.0062L15.5 13.9991Z" fill="#353566"/>
</svg>
