<svg width="24" height="24" viewBox="0 0 24 24" fill="none" xmlns="http://www.w3.org/2000/svg">
<path d="M16.4224 1.5H6.57755C5.61647 1.5 4.86451 1.49999 4.26049 1.54935C3.64594 1.59956 3.14062 1.70334 2.68404 1.93597C1.93139 2.31947 1.31947 2.93139 0.935974 3.68404C0.703335 4.14062 0.599556 4.64594 0.549345 5.26049C0.499995 5.86451 0.499997 6.61646 0.5 7.57755V12.4224C0.5 12.7935 0.5 13.1342 0.502844 13.4464C0.500964 13.464 0.5 13.4819 0.5 13.5C0.5 13.5217 0.501385 13.5431 0.504072 13.5641C0.509354 14.0104 0.521486 14.3985 0.549345 14.7395C0.599556 15.3541 0.703335 15.8594 0.935974 16.316C1.31947 17.0686 1.93139 17.6805 2.68404 18.064C3.14062 18.2967 3.64594 18.4004 4.26049 18.4507C4.86451 18.5 5.61646 18.5 6.57754 18.5H9V20C9 20.8284 8.32843 21.5 7.5 21.5H7C6.72386 21.5 6.5 21.7239 6.5 22C6.5 22.2761 6.72386 22.5 7 22.5H13.5159C13.792 22.5 14.0159 22.2761 14.0159 22C14.0159 21.7239 13.792 21.5 13.5159 21.5H9.50018C9.81403 21.0822 10 20.5628 10 20V18.5H11.3756C11.6518 18.5 11.8756 18.2761 11.8756 18C11.8756 17.7239 11.6518 17.5 11.3756 17.5H6.6C5.61166 17.5 4.90047 17.4996 4.34192 17.454C3.78921 17.4088 3.43014 17.3219 3.13803 17.173C2.57354 16.8854 2.1146 16.4265 1.82698 15.862C1.67814 15.5699 1.59118 15.2108 1.54602 14.6581C1.52982 14.4598 1.51933 14.2423 1.51252 14H11.1762C11.4523 14 11.6762 13.7761 11.6762 13.5C11.6762 13.2239 11.4523 13 11.1762 13H1.5005C1.50002 12.812 1.5 12.6124 1.5 12.4V7.6C1.5 6.61166 1.50039 5.90047 1.54602 5.34192C1.59118 4.78921 1.67814 4.43014 1.82698 4.13803C2.1146 3.57354 2.57354 3.1146 3.13803 2.82698C3.43014 2.67814 3.78921 2.59118 4.34192 2.54602C4.90047 2.50039 5.61166 2.5 6.6 2.5H16.4C17.3883 2.5 18.0995 2.50039 18.6581 2.54602C19.2108 2.59118 19.5699 2.67814 19.862 2.82698C20.4265 3.1146 20.8854 3.57354 21.173 4.13803C21.3219 4.43014 21.4088 4.78921 21.454 5.34192C21.4996 5.90047 21.5 6.61166 21.5 7.6V10.216C21.5 10.4921 21.7239 10.716 22 10.716C22.2761 10.716 22.5 10.4921 22.5 10.216V7.57754C22.5 6.61646 22.5 5.86451 22.4507 5.26049C22.4004 4.64594 22.2967 4.14062 22.064 3.68404C21.6805 2.93139 21.0686 2.31947 20.316 1.93597C19.8594 1.70334 19.3541 1.59956 18.7395 1.54935C18.1355 1.49999 17.3835 1.5 16.4224 1.5Z" fill="#353566"/>
<path fill-rule="evenodd" clip-rule="evenodd" d="M19.3934 11.7081C18.8303 11.4267 18.1676 11.4267 17.6045 11.7083L14.036 13.493C13.7076 13.6573 13.5002 13.9928 13.5 14.36C13.4993 15.7737 13.5894 17.1315 14.1667 18.451C14.9568 20.2568 16.4181 21.6575 18.2165 22.4423C18.3966 22.5209 18.6013 22.5209 18.7815 22.4423C20.5804 21.6573 22.042 20.2548 22.8321 18.4487C23.4088 17.1304 23.4993 15.7739 23.5 14.3614C23.5002 13.9935 23.2924 13.6571 22.9633 13.4926L19.3934 11.7081ZM18.0518 12.6027C18.3334 12.4619 18.6647 12.4619 18.9463 12.6026L22.5 14.379C22.4994 15.6465 22.4342 16.8633 21.916 18.0479C21.2465 19.5782 20.0268 20.8009 18.499 21.4744C16.9715 20.8018 15.7521 19.5797 15.0828 18.0502C14.5642 16.8648 14.4994 15.6473 14.5 14.3791L18.0518 12.6027Z" fill="#353566"/>
</svg>
