<svg width="24" height="24" viewBox="0 0 24 24" fill="none" xmlns="http://www.w3.org/2000/svg">
<path d="M16.9224 1.5H7.07755C6.11647 1.5 5.36451 1.49999 4.76049 1.54935C4.14594 1.59956 3.64062 1.70334 3.18404 1.93597C2.43139 2.31947 1.81947 2.93139 1.43597 3.68404C1.20334 4.14062 1.09956 4.64594 1.04935 5.26049C0.999995 5.86451 0.999997 6.61646 1 7.57755V12.4224C1 12.7935 1 13.1342 1.00284 13.4464C1.00096 13.464 1 13.4819 1 13.5C1 13.5217 1.00139 13.5431 1.00407 13.5641C1.00935 14.0104 1.02149 14.3985 1.04935 14.7395C1.09956 15.3541 1.20334 15.8594 1.43597 16.316C1.81947 17.0686 2.43139 17.6805 3.18404 18.064C3.64062 18.2967 4.14594 18.4004 4.76049 18.4507C5.36451 18.5 6.11646 18.5 7.07754 18.5H9.5V20C9.5 20.8284 8.82843 21.5 8 21.5H7.5C7.22386 21.5 7 21.7239 7 22C7 22.2761 7.22386 22.5 7.5 22.5H14.4865C14.7626 22.5 14.9865 22.2761 14.9865 22C14.9865 21.7239 14.7626 21.5 14.4865 21.5H10.0002C10.314 21.0822 10.5 20.5628 10.5 20V18.5H13.6739C13.7615 18.5754 13.8754 18.6209 14 18.6209C14.1971 18.6209 14.3676 18.5069 14.449 18.3411C14.5324 18.2518 14.5835 18.1319 14.5835 18C14.5835 17.7239 14.3596 17.5 14.0835 17.5H7.1C6.11166 17.5 5.40047 17.4996 4.84192 17.454C4.28921 17.4088 3.93014 17.3219 3.63803 17.173C3.07354 16.8854 2.6146 16.4265 2.32698 15.862C2.17814 15.5699 2.09118 15.2108 2.04602 14.6581C2.02982 14.4598 2.01933 14.2423 2.01252 14H13.7827C14.0588 14 14.2827 13.7761 14.2827 13.5C14.2827 13.2239 14.0588 13 13.7827 13H2.0005C2.00002 12.812 2 12.6124 2 12.4V7.6C2 6.61166 2.00039 5.90047 2.04602 5.34192C2.09118 4.78921 2.17814 4.43014 2.32698 4.13803C2.6146 3.57354 3.07354 3.1146 3.63803 2.82698C3.93014 2.67814 4.28921 2.59118 4.84192 2.54602C5.40047 2.50039 6.11166 2.5 7.1 2.5H16.9C17.8883 2.5 18.5995 2.50039 19.1581 2.54602C19.7108 2.59118 20.0699 2.67814 20.362 2.82698C20.9265 3.1146 21.3854 3.57354 21.673 4.13803C21.8219 4.43014 21.9088 4.78921 21.954 5.34192C21.9996 5.90047 22 6.61166 22 7.6V11.2597C22 11.5358 22.2239 11.7597 22.5 11.7597C22.7761 11.7597 23 11.5358 23 11.2597V7.57754C23 6.61646 23 5.86451 22.9507 5.26049C22.9004 4.64594 22.7967 4.14062 22.564 3.68404C22.1805 2.93139 21.5686 2.31947 20.816 1.93597C20.3594 1.70334 19.8541 1.59956 19.2395 1.54935C18.6355 1.49999 17.8835 1.5 16.9224 1.5Z" fill="#353566"/>
<path d="M18.5 12.7749V12C18.5 11.7239 18.7239 11.5 19 11.5C19.2761 11.5 19.5 11.7239 19.5 12V12.7708C19.8289 12.801 20.1294 12.8671 20.4344 12.988C20.8749 13.1627 21.294 13.4404 21.8019 13.8249C22.022 13.9916 22.0653 14.3052 21.8987 14.5254C21.732 14.7455 21.4183 14.7889 21.1982 14.6222C20.706 14.2495 20.3752 14.0404 20.0657 13.9176C19.7679 13.7995 19.4604 13.75 19 13.75C18.321 13.75 17.8089 13.91 17.4808 14.1476C17.1677 14.3743 17 14.6843 17 15.0817C17 15.573 17.2356 15.8639 17.6193 16.0786C18.0345 16.311 18.5791 16.4229 19.0822 16.5068C19.5791 16.5896 20.2845 16.7214 20.8693 17.0488C21.4856 17.3938 22 17.9788 22 18.9183C22 19.6495 21.6677 20.2554 21.1058 20.6623C20.6725 20.9761 20.1194 21.1616 19.5 21.2251V22C19.5 22.2761 19.2761 22.5 19 22.5C18.7239 22.5 18.5 22.2761 18.5 22V21.2292C18.1711 21.199 17.8706 21.1329 17.5657 21.0119C17.1252 20.8372 16.706 20.5596 16.1982 20.175C15.978 20.0083 15.9347 19.6947 16.1014 19.4746C16.2681 19.2544 16.5817 19.2111 16.8019 19.3778C17.2941 19.7505 17.6249 19.9596 17.9344 20.0824C18.2322 20.2005 18.5396 20.25 19 20.25C19.679 20.25 20.1912 20.09 20.5193 19.8524C20.8323 19.6257 21 19.3157 21 18.9183C21 18.427 20.7644 18.1361 20.3808 17.9214C19.9656 17.689 19.421 17.5771 18.9178 17.4932C18.421 17.4104 17.7156 17.2786 17.1308 16.9512C16.5144 16.6062 16 16.0212 16 15.0817C16 14.3505 16.3323 13.7446 16.8942 13.3377C17.3275 13.0239 17.8806 12.8384 18.5 12.7749Z" fill="#353566"/>
</svg>
