<svg width="24" height="24" viewBox="0 0 24 24" fill="none" xmlns="http://www.w3.org/2000/svg">
<path d="M12 12.3333C10.5066 12.3333 9.16458 13.3597 8.81759 14.7079C8.74876 14.9753 8.47617 15.1363 8.20874 15.0675C7.94132 14.9986 7.78032 14.726 7.84915 14.4586C8.31624 12.6438 10.0764 11.3333 12 11.3333C13.9237 11.3333 15.6838 12.6438 16.1509 14.4586C16.2198 14.726 16.0588 14.9986 15.7913 15.0675C15.5239 15.1363 15.2513 14.9753 15.1825 14.7079C14.8355 13.3597 13.4934 12.3333 12 12.3333Z" fill="#353566"/>
<path fill-rule="evenodd" clip-rule="evenodd" d="M12 4.9165C10.5848 4.9165 9.4375 6.06377 9.4375 7.479C9.4375 8.89423 10.5848 10.0415 12 10.0415C13.4152 10.0415 14.5625 8.89423 14.5625 7.479C14.5625 6.06377 13.4152 4.9165 12 4.9165ZM10.4375 7.479C10.4375 6.61606 11.1371 5.9165 12 5.9165C12.8629 5.9165 13.5625 6.61606 13.5625 7.479C13.5625 8.34195 12.8629 9.0415 12 9.0415C11.1371 9.0415 10.4375 8.34195 10.4375 7.479Z" fill="#353566"/>
<path fill-rule="evenodd" clip-rule="evenodd" d="M16.9224 1.49976H7.07755C6.11647 1.49975 5.36451 1.49975 4.76049 1.5491C4.14594 1.59931 3.64062 1.70309 3.18404 1.93573C2.43139 2.31922 1.81947 2.93115 1.43597 3.68379C1.20334 4.14037 1.09956 4.64569 1.04935 5.26025C0.999995 5.86427 0.999997 6.61621 1 7.5773V12.4222C0.999997 13.3833 0.999995 14.1352 1.04935 14.7393C1.09956 15.3538 1.20334 15.8591 1.43597 16.3157C1.81947 17.0684 2.43139 17.6803 3.18404 18.0638C3.64062 18.2964 4.14594 18.4002 4.76049 18.4504C5.36451 18.4998 6.11646 18.4998 7.07754 18.4998H9.5V19.9998C9.5 20.8282 8.82843 21.4998 8 21.4998H7.5C7.22386 21.4998 7 21.7236 7 21.9998C7 22.2759 7.22386 22.4998 7.5 22.4998H16.5C16.7761 22.4998 17 22.2759 17 21.9998C17 21.7236 16.7761 21.4998 16.5 21.4998H16C15.1716 21.4998 14.5 20.8282 14.5 19.9998V18.4998H16.9225C17.8835 18.4998 18.6355 18.4998 19.2395 18.4504C19.8541 18.4002 20.3594 18.2964 20.816 18.0638C21.5686 17.6803 22.1805 17.0684 22.564 16.3157C22.7967 15.8591 22.9004 15.3538 22.9507 14.7393C23 14.1352 23 13.3833 23 12.4222V7.5773C23 6.61621 23 5.86427 22.9507 5.26025C22.9004 4.64569 22.7967 4.14037 22.564 3.68379C22.1805 2.93115 21.5686 2.31922 20.816 1.93573C20.3594 1.70309 19.8541 1.59931 19.2395 1.5491C18.6355 1.49975 17.8835 1.49975 16.9224 1.49976ZM13.5 19.9998V18.4998H10.5V19.9998C10.5 20.5626 10.314 21.0819 10.0002 21.4998H13.9998C13.686 21.0819 13.5 20.5626 13.5 19.9998ZM16.9 17.4998C17.8883 17.4998 18.5995 17.4994 19.1581 17.4537C19.7108 17.4086 20.0699 17.3216 20.362 17.1728C20.9265 16.8852 21.3854 16.4262 21.673 15.8617C21.8219 15.5696 21.9088 15.2105 21.954 14.6578C21.9996 14.0993 22 13.3881 22 12.3998V7.59976C22 6.61141 21.9996 5.90023 21.954 5.34168C21.9088 4.78897 21.8219 4.4299 21.673 4.13778C21.3854 3.5733 20.9265 3.11436 20.362 2.82674C20.0699 2.6779 19.7108 2.59094 19.1581 2.54578C18.5995 2.50014 17.8883 2.49976 16.9 2.49976H7.1C6.11166 2.49976 5.40047 2.50014 4.84192 2.54578C4.28921 2.59094 3.93014 2.6779 3.63803 2.82674C3.07354 3.11436 2.6146 3.5733 2.32698 4.13778C2.17814 4.4299 2.09118 4.78897 2.04602 5.34168C2.00039 5.90023 2 6.61141 2 7.59976V12.3998C2 13.3881 2.00039 14.0993 2.04602 14.6578C2.09118 15.2105 2.17814 15.5696 2.32698 15.8617C2.6146 16.4262 3.07354 16.8852 3.63803 17.1728C3.93014 17.3216 4.28921 17.4086 4.84192 17.4537C5.40047 17.4994 6.11166 17.4998 7.1 17.4998H16.9Z" fill="#353566"/>
</svg>
