<svg width="24" height="24" viewBox="0 0 24 24" fill="none" xmlns="http://www.w3.org/2000/svg">
<path d="M11.5 6.40439V5.8331C11.5 5.55696 11.7239 5.3331 12 5.3331C12.2761 5.3331 12.5 5.55696 12.5 5.8331V6.40023C12.7516 6.42885 12.987 6.48419 13.226 6.57899C13.604 6.72891 13.9607 6.96599 14.3852 7.28742C14.6053 7.45412 14.6486 7.76772 14.4819 7.98787C14.3152 8.20802 14.0016 8.25135 13.7815 8.08465C13.3726 7.77507 13.1043 7.60652 12.8573 7.50855C12.622 7.41521 12.3771 7.37476 12 7.37476C11.446 7.37476 11.038 7.50545 10.7829 7.69024C10.5427 7.86417 10.4167 8.09783 10.4167 8.40117C10.4167 8.77326 10.5898 8.99113 10.89 9.15922C11.2219 9.34499 11.6623 9.43659 12.0822 9.50656C12.4957 9.57547 13.0969 9.687 13.5984 9.96771C14.1314 10.2661 14.5833 10.7781 14.5833 11.5983C14.5833 12.2355 14.2927 12.765 13.8037 13.1192C13.4461 13.3782 12.9976 13.5341 12.5 13.5951V14.1665C12.5 14.4426 12.2761 14.6665 12 14.6665C11.7239 14.6665 11.5 14.4426 11.5 14.1665V13.5993C11.2484 13.5707 11.013 13.5153 10.774 13.4205C10.396 13.2706 10.0393 13.0335 9.61482 12.7121C9.39467 12.5454 9.35134 12.2317 9.51804 12.0116C9.68474 11.7914 9.99834 11.7481 10.2185 11.9148C10.6273 12.2244 10.8957 12.393 11.1427 12.491C11.378 12.5843 11.6229 12.6248 12 12.6248C12.554 12.6248 12.962 12.4941 13.2171 12.3093C13.4573 12.1353 13.5833 11.9017 13.5833 11.5983C13.5833 11.2263 13.4102 11.0084 13.1099 10.8403C12.7781 10.6545 12.3376 10.5629 11.9178 10.493C11.5043 10.424 10.9031 10.3125 10.4016 10.0318C9.86854 9.73341 9.41665 9.22143 9.41665 8.40117C9.41665 7.76403 9.70728 7.23449 10.1963 6.88033C10.5539 6.62133 11.0024 6.46536 11.5 6.40439Z" fill="#353566"/>
<path fill-rule="evenodd" clip-rule="evenodd" d="M7.07755 1.49976H16.9224C17.8835 1.49975 18.6355 1.49975 19.2395 1.5491C19.8541 1.59931 20.3594 1.70309 20.816 1.93573C21.5686 2.31922 22.1805 2.93115 22.564 3.68379C22.7967 4.14037 22.9004 4.64569 22.9507 5.26025C23 5.86427 23 6.61621 23 7.5773V12.4222C23 13.3833 23 14.1352 22.9507 14.7393C22.9004 15.3538 22.7967 15.8591 22.564 16.3157C22.1805 17.0684 21.5686 17.6803 20.816 18.0638C20.3594 18.2964 19.8541 18.4002 19.2395 18.4504C18.6355 18.4998 17.8835 18.4998 16.9225 18.4998H14.5V19.9998C14.5 20.8282 15.1716 21.4998 16 21.4998H16.5C16.7761 21.4998 17 21.7236 17 21.9998C17 22.2759 16.7761 22.4998 16.5 22.4998H7.5C7.22386 22.4998 7 22.2759 7 21.9998C7 21.7236 7.22386 21.4998 7.5 21.4998H8C8.82843 21.4998 9.5 20.8282 9.5 19.9998V18.4998H7.07754C6.11646 18.4998 5.36451 18.4998 4.76049 18.4504C4.14594 18.4002 3.64062 18.2964 3.18404 18.0638C2.43139 17.6803 1.81947 17.0684 1.43597 16.3157C1.20334 15.8591 1.09956 15.3538 1.04935 14.7393C0.999995 14.1352 0.999997 13.3833 1 12.4222V7.57731C0.999997 6.61622 0.999995 5.86427 1.04935 5.26025C1.09956 4.64569 1.20334 4.14037 1.43597 3.68379C1.81947 2.93115 2.43139 2.31922 3.18404 1.93573C3.64062 1.70309 4.14594 1.59931 4.76049 1.5491C5.36451 1.49975 6.11647 1.49975 7.07755 1.49976ZM10.5 19.9998V18.4998H13.5V19.9998C13.5 20.5626 13.686 21.0819 13.9998 21.4998H10.0002C10.314 21.0819 10.5 20.5626 10.5 19.9998ZM16.9 17.4998H7.1C6.11166 17.4998 5.40047 17.4994 4.84192 17.4537C4.28921 17.4086 3.93014 17.3216 3.63803 17.1728C3.07354 16.8852 2.6146 16.4262 2.32698 15.8617C2.17814 15.5696 2.09118 15.2105 2.04602 14.6578C2.00039 14.0993 2 13.3881 2 12.3998V7.59976C2 6.61141 2.00039 5.90023 2.04602 5.34168C2.09118 4.78897 2.17814 4.4299 2.32698 4.13778C2.6146 3.5733 3.07354 3.11436 3.63803 2.82674C3.93014 2.6779 4.28921 2.59094 4.84192 2.54578C5.40047 2.50014 6.11166 2.49976 7.1 2.49976H16.9C17.8883 2.49976 18.5995 2.50014 19.1581 2.54578C19.7108 2.59094 20.0699 2.6779 20.362 2.82674C20.9265 3.11436 21.3854 3.5733 21.673 4.13778C21.8219 4.4299 21.9088 4.78897 21.954 5.34168C21.9996 5.90023 22 6.61141 22 7.59976V12.3998C22 13.3881 21.9996 14.0993 21.954 14.6578C21.9088 15.2105 21.8219 15.5696 21.673 15.8617C21.3854 16.4262 20.9265 16.8852 20.362 17.1728C20.0699 17.3216 19.7108 17.4086 19.1581 17.4537C18.5995 17.4994 17.8883 17.4998 16.9 17.4998Z" fill="#353566"/>
</svg>
