<svg width="24" height="24" viewBox="0 0 24 24" fill="none" xmlns="http://www.w3.org/2000/svg">
<path d="M15.5217 2.54147C15.3625 2.50323 15.1875 2.50002 14.6745 2.50002H5.8C4.95167 2.50002 4.34549 2.50041 3.87032 2.53923C3.40099 2.57758 3.10366 2.65092 2.86502 2.77251C2.39462 3.01219 2.01217 3.39464 1.77248 3.86505C1.65089 4.10368 1.57756 4.40101 1.53921 4.87034C1.50039 5.34552 1.5 5.95169 1.5 6.80002V17.2C1.5 18.0483 1.50039 18.6545 1.53921 19.1297C1.57756 19.599 1.65089 19.8964 1.77248 20.135C2.01217 20.6054 2.39462 20.9879 2.86502 21.2275C3.10366 21.3491 3.40099 21.4225 3.87032 21.4608C4.18067 21.4862 4.54691 21.4951 5 21.4983V15C5 13.8955 5.89543 13 7 13H11.1762C11.4523 13 11.6762 13.2239 11.6762 13.5C11.6762 13.7762 11.4523 14 11.1762 14H7C6.44772 14 6 14.4477 6 15V21.5H13.5159C13.792 21.5 14.0159 21.7239 14.0159 22C14.0159 22.2762 13.792 22.5 13.5159 22.5L5.50776 22.5L5.5 22.5L5.4915 22.5C4.8041 22.4994 4.24749 22.495 3.78889 22.4575C3.25771 22.4141 2.81413 22.3239 2.41103 22.1185C1.75247 21.783 1.21703 21.2476 0.881478 20.589C0.676087 20.1859 0.585932 19.7423 0.542533 19.2111C0.499994 18.6905 0.499997 18.0435 0.5 17.2222V6.77782C0.499997 5.95655 0.499994 5.30957 0.542533 4.78891C0.585932 4.25773 0.676087 3.81416 0.881477 3.41105C1.21703 2.75249 1.75247 2.21706 2.41103 1.8815C2.81414 1.67611 3.25771 1.58595 3.78889 1.54255C4.30954 1.50002 4.95652 1.50002 5.77779 1.50002L14.7315 1.50001C15.1659 1.49988 15.4665 1.4998 15.7552 1.5691C16.0103 1.63034 16.2541 1.73135 16.4778 1.86842C16.7309 2.02353 16.9435 2.2362 17.2505 2.54344L20.4566 5.74949C20.7638 6.05655 20.9765 6.26909 21.1316 6.5222C21.2687 6.74588 21.3697 6.98974 21.4309 7.24483C21.5002 7.53348 21.5001 7.83415 21.5 8.26852L21.5 9.71626C21.5 9.9924 21.2761 10.2163 21 10.2163C20.7239 10.2163 20.5 9.9924 20.5 9.71626V8.3255C20.5 7.81252 20.4968 7.63753 20.4586 7.47828C20.4218 7.32523 20.3612 7.17891 20.279 7.0447C20.1934 6.90506 20.0719 6.77905 19.7092 6.41632L16.5837 3.29083C16.221 2.9281 16.095 2.80663 15.9553 2.72106C15.8211 2.63882 15.6748 2.57821 15.5217 2.54147Z" fill="#353566"/>
<path d="M14 7.5C14 7.22386 13.7761 7 13.5 7L8.5 7C8.22386 7 8 7.22386 8 7.5C8 7.77614 8.22386 8 8.5 8L13.5 8C13.7761 8 14 7.77614 14 7.5Z" fill="#353566"/>
<path fill-rule="evenodd" clip-rule="evenodd" d="M19.3934 11.7081C18.8303 11.4267 18.1676 11.4267 17.6045 11.7083L14.036 13.493C13.7076 13.6573 13.5002 13.9928 13.5 14.36C13.4993 15.7737 13.5894 17.1315 14.1667 18.451C14.9568 20.2568 16.4181 21.6575 18.2165 22.4423C18.3966 22.5209 18.6013 22.5209 18.7815 22.4423C20.5804 21.6573 22.042 20.2548 22.8321 18.4487C23.4088 17.1304 23.4993 15.7739 23.5 14.3614C23.5002 13.9935 23.2924 13.6571 22.9633 13.4926L19.3934 11.7081ZM18.0518 12.6027C18.3334 12.4619 18.6647 12.4619 18.9463 12.6026L22.5 14.379C22.4994 15.6465 22.4342 16.8633 21.916 18.0479C21.2465 19.5782 20.0268 20.8009 18.499 21.4744C16.9715 20.8018 15.7521 19.5797 15.0828 18.0502C14.5642 16.8648 14.4994 15.6473 14.5 14.3791L18.0518 12.6027Z" fill="#353566"/>
</svg>
