<svg width="24" height="24" viewBox="0 0 24 24" fill="none" xmlns="http://www.w3.org/2000/svg">
<g clip-path="url(#clip0_9001_285229)">
<path fill-rule="evenodd" clip-rule="evenodd" d="M19.8776 0.859087C20.5638 0.381779 21.4745 0.381591 22.1609 0.858616C22.3082 0.960942 22.4496 1.10246 22.6405 1.29336L22.7066 1.35939C22.8976 1.55018 23.0393 1.69168 23.1417 1.83889C23.6192 2.52523 23.6194 3.43617 23.1422 4.12269C23.0398 4.26995 22.8982 4.41146 22.7072 4.60235L16.7308 10.5799C16.6643 10.6464 16.5804 10.6928 16.4888 10.7138L13.1116 11.4872C12.9438 11.5256 12.7681 11.475 12.6464 11.3533C12.5247 11.2315 12.4742 11.0557 12.5127 10.888L13.287 7.5146C13.308 7.42309 13.3544 7.33934 13.4207 7.27295L19.3981 1.29402C19.5889 1.10305 19.7304 0.961472 19.8776 0.859087ZM21.5902 1.6798C21.247 1.44128 20.7917 1.44138 20.4486 1.68003C20.3846 1.72451 20.3107 1.79565 20.0723 2.03408L19.4169 2.68962L21.3114 4.58407L21.967 3.92834C22.2054 3.68984 22.2766 3.61587 22.3211 3.55189C22.5597 3.20863 22.5596 2.75316 22.3208 2.40999C22.2763 2.34604 22.2052 2.2721 21.9666 2.03369C21.7282 1.79535 21.6542 1.72425 21.5902 1.6798ZM20.6043 5.29125L18.7099 3.39682L14.2295 7.87836L13.6658 10.3344L16.1253 9.77112L20.6043 5.29125Z" fill="#353566"/>
<path d="M16.75 18.9998C16.75 18.5856 17.0858 18.2498 17.5 18.2498C17.9142 18.2498 18.2501 18.5856 18.2501 18.9998C18.2501 19.414 17.9143 19.7498 17.5001 19.7498C17.0859 19.7498 16.75 19.414 16.75 18.9998Z" fill="#353566"/>
<path d="M14.5 18.2498C14.0858 18.2498 13.75 18.5856 13.75 18.9998C13.75 19.414 14.0858 19.7498 14.5 19.7498C14.9142 19.7498 15.2501 19.414 15.2501 18.9998C15.2501 18.5856 14.9142 18.2498 14.5 18.2498Z" fill="#353566"/>
<path fill-rule="evenodd" clip-rule="evenodd" d="M11.6306 4.51967L11.6244 4.51958C10.6131 4.50431 9.45786 4.48687 8.46018 4.514C7.96037 4.52759 7.49151 4.55255 7.09489 4.59592C6.71271 4.63772 6.34747 4.70123 6.08573 4.8133C6.07967 4.8159 6.07366 4.81861 6.06771 4.82144C5.22802 5.22099 4.69222 5.634 4.30017 6.24153C3.93792 6.80287 3.71848 7.50687 3.43953 8.40172L3.4211 8.46085C3.38467 8.57767 3.347 8.69846 3.30754 8.82401L0.817612 16.9148C0.585456 17.6362 0.496481 18.2209 0.500107 18.9685L0.5 18.9998C0.5 21.485 2.51472 23.4998 5 23.4998H18C20.4592 23.4998 22.4577 21.5271 22.4993 19.0778C22.5012 19.0614 22.5023 19.0447 22.5025 19.0279C22.5132 18.2509 22.4222 17.6525 22.1855 16.915L20.3206 10.8551C20.2394 10.5911 19.9596 10.443 19.6956 10.5242C19.4317 10.6055 19.2836 10.8853 19.3648 11.1492L20.6647 15.3732C19.9188 14.8242 18.9973 14.4998 18 14.4998H5C4.00448 14.4998 3.08447 14.823 2.3392 15.3703L4.26153 9.12387L4.26199 9.12241C4.30138 8.99709 4.33905 8.87628 4.37504 8.76084L4.37576 8.75853C4.67848 7.78771 4.86061 7.21733 5.14041 6.78375C5.39714 6.3859 5.75598 6.07848 6.48713 5.72932C6.6048 5.68105 6.83932 5.62983 7.2036 5.59C7.56164 5.55084 8.00006 5.52688 8.48736 5.51363C9.46187 5.48713 10.5976 5.50419 11.6156 5.51956L11.6168 5.51958C11.7895 5.52219 11.9588 5.52474 12.1229 5.52701C12.399 5.53083 12.626 5.31009 12.6298 5.03398C12.6336 4.75786 12.4129 4.53093 12.1368 4.52711C11.9732 4.52485 11.8037 4.52229 11.6306 4.51967ZM1.50022 19.0391C1.5005 19.0313 1.5006 19.0234 1.50051 19.0154L1.50013 18.9698C1.51621 17.0506 3.077 15.4998 5 15.4998H18C19.933 15.4998 21.5 17.0668 21.5 18.9998C21.5 20.9328 19.933 22.4998 18 22.4998H5C3.08015 22.4998 1.52133 20.954 1.50022 19.0391Z" fill="#353566"/>
</g>
<defs>
<clipPath id="clip0_9001_285229">
<rect width="24" height="24" fill="white"/>
</clipPath>
</defs>
</svg>
