<svg width="24" height="24" viewBox="0 0 24 24" fill="none" xmlns="http://www.w3.org/2000/svg">
<g clip-path="url(#clip0_9001_285029)">
<path d="M14.2587 3.5C15.0664 2.29348 16.4415 1.5 18.0011 1.5C20.4864 1.5 22.5011 3.51472 22.5011 6C22.5011 8.48528 20.4864 10.5 18.0011 10.5C15.9869 10.5 14.2806 9.17633 13.707 7.35018C13.6243 7.08672 13.3436 6.94023 13.0802 7.02298C12.8167 7.10572 12.6702 7.38637 12.753 7.64982C13.4537 9.88078 15.5376 11.5 18.0011 11.5C21.0387 11.5 23.5011 9.03757 23.5011 6C23.5011 2.96243 21.0387 0.5 18.0011 0.5C16.1396 0.5 14.4949 1.42469 13.5 2.83863V1C13.5 0.723858 13.2762 0.5 13 0.5C12.7239 0.5 12.5 0.723858 12.5 1V4C12.5 4.13261 12.5527 4.25979 12.6465 4.35355C12.7402 4.44732 12.8674 4.5 13 4.5H13.4057C13.4132 4.50017 13.4206 4.50017 13.4281 4.5H16C16.2761 4.5 16.5 4.27614 16.5 4C16.5 3.72386 16.2761 3.5 16 3.5H14.2587Z" fill="#353566"/>
<path d="M17.5 18.25C17.0858 18.25 16.75 18.5858 16.75 19C16.75 19.4142 17.0858 19.75 17.5 19.75C17.9142 19.75 18.2501 19.4142 18.2501 19C18.2501 18.5858 17.9142 18.25 17.5 18.25Z" fill="#353566"/>
<path d="M13.75 19C13.75 18.5858 14.0858 18.25 14.5 18.25C14.9142 18.25 15.2501 18.5858 15.2501 19C15.2501 19.4142 14.9143 19.75 14.5001 19.75C14.0859 19.75 13.75 19.4142 13.75 19Z" fill="#353566"/>
<path fill-rule="evenodd" clip-rule="evenodd" d="M7.79635 4.54072C8.50511 4.50168 9.34496 4.49617 10.1757 4.50193C10.4519 4.50385 10.6742 4.72926 10.6722 5.00539C10.6703 5.28153 10.4449 5.50383 10.1688 5.50191C9.34268 5.49618 8.52805 5.50194 7.85135 5.53921C7.5129 5.55785 7.21623 5.58401 6.97392 5.61908C6.73064 5.65428 6.57285 5.69439 6.48709 5.72952C5.75596 6.07868 5.39714 6.38609 5.14041 6.78393C4.86061 7.21751 4.67848 7.7879 4.37576 8.75872L4.37504 8.76103C4.33905 8.87647 4.30138 8.99727 4.26199 9.1226L4.26153 9.12405L2.3392 15.3705C3.08447 14.8232 4.00448 14.4999 5 14.4999H18C18.9973 14.4999 19.9188 14.8243 20.6647 15.3734L20.1514 13.7053C20.0702 13.4414 20.2183 13.1616 20.4822 13.0804C20.7462 12.9992 21.026 13.1473 21.1072 13.4112L22.1855 16.9152C22.4222 17.6527 22.5132 18.2511 22.5025 19.028C22.5023 19.0449 22.5012 19.0615 22.4993 19.0779C22.4577 21.5272 20.4592 23.4999 18 23.4999H5C2.51472 23.4999 0.5 21.4852 0.5 18.9999L0.500107 18.9686C0.496482 18.2211 0.585457 17.6364 0.817612 16.915L3.30754 8.8242C3.347 8.69865 3.38467 8.57786 3.4211 8.46104L3.43953 8.40191C3.71848 7.50706 3.93792 6.80305 4.30017 6.24171C4.69222 5.63419 5.22802 5.22118 6.06771 4.82163C6.07366 4.8188 6.07967 4.81609 6.08573 4.81349C6.29226 4.72506 6.5566 4.66905 6.83069 4.62939C7.11327 4.58849 7.44207 4.56024 7.79635 4.54072ZM1.50051 19.0156C1.5006 19.0236 1.5005 19.0315 1.50022 19.0393C1.52133 20.9542 3.08015 22.4999 5 22.4999H18C19.933 22.4999 21.5 20.9329 21.5 18.9999C21.5 17.0669 19.933 15.4999 18 15.4999H5C3.077 15.4999 1.51621 17.0508 1.50013 18.97L1.50051 19.0156Z" fill="#353566"/>
<path d="M18 2.99994C18.2761 2.99994 18.5 3.2238 18.5 3.49994V5.73239L19.7773 6.58391C20.0071 6.73708 20.0692 7.04751 19.916 7.27728C19.7629 7.50705 19.4524 7.56914 19.2227 7.41597L17.7227 6.41603C17.5836 6.32329 17.5 6.16717 17.5 5.99999V3.49994C17.5 3.2238 17.7239 2.99994 18 2.99994Z" fill="#353566"/>
</g>
<defs>
<clipPath id="clip0_9001_285029">
<rect width="24" height="24" fill="white"/>
</clipPath>
</defs>
</svg>
