<svg width="24" height="24" viewBox="0 0 24 24" fill="none" xmlns="http://www.w3.org/2000/svg">
<path d="M7.37794 2.5H16.6221C17.3734 2.5 17.9679 2.49999 18.4469 2.53913C18.9364 2.57912 19.3491 2.66246 19.7255 2.85423C20.337 3.16582 20.8342 3.663 21.1458 4.27453C21.3375 4.65089 21.4209 5.0636 21.4609 5.55309C21.5 6.03204 21.5 6.6265 21.5 7.37784V10.9816C21.5 11.2577 21.2761 11.4816 21 11.4816C20.7239 11.4816 20.5 11.2577 20.5 10.9816V7.4C20.5 6.62168 20.4996 6.06801 20.4642 5.63452C20.4293 5.20687 20.3627 4.94042 20.2548 4.72852C20.0391 4.30516 19.6948 3.96095 19.2715 3.74524C19.0596 3.63727 18.7931 3.57075 18.3655 3.53581C17.932 3.50039 17.3783 3.5 16.6 3.5H7.4C6.62168 3.5 6.06801 3.50039 5.63452 3.53581C5.20687 3.57075 4.94042 3.63727 4.72852 3.74524C4.30516 3.96095 3.96095 4.30516 3.74524 4.72852C3.63727 4.94042 3.57075 5.20687 3.53581 5.63452C3.50039 6.06801 3.5 6.62168 3.5 7.4V13C3.5 13.2761 3.27614 13.5 3 13.5C2.72386 13.5 2.5 13.2761 2.5 13V7.37794C2.5 6.62656 2.49999 6.03206 2.53913 5.55309C2.57912 5.0636 2.66246 4.65089 2.85423 4.27453C3.16582 3.663 3.663 3.16582 4.27453 2.85423C4.65089 2.66246 5.0636 2.57912 5.55309 2.53913C6.03206 2.49999 6.62656 2.5 7.37794 2.5Z" fill="#353566"/>
<path d="M0.5 16C0.5 15.7239 0.723858 15.5 1 15.5H12.0412C12.3173 15.5 12.5412 15.7239 12.5412 16C12.5412 16.2761 12.3173 16.5 12.0412 16.5H1.5V16.75C1.5 17.7165 2.2835 18.5 3.25 18.5H12.2531C12.5293 18.5 12.7531 18.7239 12.7531 19C12.7531 19.2761 12.5293 19.5 12.2531 19.5H3.25C1.73122 19.5 0.5 18.2688 0.5 16.75V16Z" fill="#353566"/>
<path d="M23.5 15.5C23.5 14.3954 22.6046 13.5 21.5 13.5H16.707L17.8535 12.3536C18.0488 12.1583 18.0488 11.8417 17.8535 11.6464C17.6582 11.4512 17.3416 11.4512 17.1464 11.6464L15.1464 13.6464C15.0034 13.7894 14.9606 14.0045 15.038 14.1913C15.1154 14.3782 15.2977 14.5 15.4999 14.5H21.5C22.0523 14.5 22.5 14.9477 22.5 15.5V16.5C22.5 16.7761 22.7239 17 23 17C23.2761 17 23.5 16.7761 23.5 16.5V15.5Z" fill="#353566"/>
<path d="M14.5 17.5V16.5C14.5 16.2239 14.7239 16 15 16C15.2761 16 15.5 16.2239 15.5 16.5V17.5C15.5 18.0523 15.9477 18.5 16.5 18.5H22.5C22.7022 18.5 22.8846 18.6218 22.9619 18.8087C23.0393 18.9955 22.9965 19.2106 22.8535 19.3536L20.8535 21.3536C20.6582 21.5488 20.3416 21.5488 20.1464 21.3535C19.9511 21.1583 19.9511 20.8417 20.1464 20.6464L21.2929 19.5H16.5C15.3954 19.5 14.5 18.6046 14.5 17.5Z" fill="#353566"/>
</svg>
