<svg width="24" height="24" viewBox="0 0 24 24" fill="none" xmlns="http://www.w3.org/2000/svg">
<path d="M9.5 2.5C5.62343 2.5 2.5 5.57039 2.5 9.33456C2.5 11.6143 3.38281 13.616 5.67716 15.5H9.50577C9.78191 15.5 10.0058 15.7239 10.0058 16C10.0058 16.2761 9.78191 16.5 9.50577 16.5H6V17.5C6 18.0523 6.44772 18.5 7 18.5H9.12678C9.40292 18.5 9.62678 18.7239 9.62678 19C9.62678 19.2761 9.40292 19.5 9.12678 19.5H7.05001C7.28164 20.6411 8.29052 21.5 9.5 21.5C9.82176 21.5 10.1282 21.4395 10.4094 21.3296C10.6666 21.2291 10.9565 21.3562 11.057 21.6134C11.1575 21.8706 11.0305 22.1606 10.7733 22.261C10.378 22.4155 9.94827 22.5 9.5 22.5C7.64665 22.5 6.12975 21.0595 6.0079 19.237C5.40574 18.8923 5 18.2435 5 17.5V16.2377C2.53049 14.1936 1.5 11.9306 1.5 9.33456C1.5 4.9972 5.09229 1.5 9.5 1.5C13.9077 1.5 17.5 4.9972 17.5 9.33456C17.5 9.93735 17.4445 10.5265 17.3257 11.1027C17.2699 11.3731 17.0055 11.5471 16.735 11.4914C16.4646 11.4356 16.2905 11.1712 16.3463 10.9007C16.4502 10.3967 16.5 9.87564 16.5 9.33456C16.5 5.57039 13.3766 2.5 9.5 2.5Z" fill="#353566"/>
<path fill-rule="evenodd" clip-rule="evenodd" d="M17 16C15.8942 16 15 16.8942 15 18C15 19.1058 15.8942 20 17 20C18.1058 20 19 19.1058 19 18C19 16.8942 18.1058 16 17 16ZM16 18C16 17.4465 16.4465 17 17 17C17.5535 17 18 17.4465 18 18C18 18.5535 17.5535 19 17 19C16.4465 19 16 18.5535 16 18Z" fill="#353566"/>
<path fill-rule="evenodd" clip-rule="evenodd" d="M17 13.5C19.2068 13.5 21.3768 14.8473 22.3973 17.4539C22.5342 17.8036 22.5342 18.1964 22.3973 18.5461C21.3768 21.1527 19.2068 22.5 17 22.5C14.7932 22.5 12.6232 21.1527 11.6027 18.5461C11.4658 18.1964 11.4658 17.8036 11.6027 17.4539C12.6232 14.8473 14.7932 13.5 17 13.5ZM17 14.5C15.2242 14.5 13.4115 15.5768 12.5339 17.8184C12.4887 17.9337 12.4887 18.0663 12.5339 18.1816C13.4115 20.4232 15.2242 21.5 17 21.5C18.7758 21.5 20.5885 20.4232 21.4661 18.1816C21.5113 18.0663 21.5113 17.9337 21.4661 17.8184C20.5885 15.5768 18.7758 14.5 17 14.5Z" fill="#353566"/>
</svg>
