<svg width="24" height="24" viewBox="0 0 24 24" fill="none" xmlns="http://www.w3.org/2000/svg">
<path d="M2.5 9.33456C2.5 5.57039 5.62343 2.5 9.5 2.5C13.2689 2.5 16.3267 5.40294 16.4929 9.02293C16.5055 9.29878 16.7394 9.51214 17.0153 9.49948C17.2911 9.48681 17.5045 9.25293 17.4918 8.97708C17.3003 4.80611 13.7861 1.5 9.5 1.5C5.09229 1.5 1.5 4.9972 1.5 9.33456C1.5 11.9306 2.53049 14.1936 5 16.2377V17.5C5 18.2435 5.40574 18.8923 6.0079 19.237C6.12975 21.0595 7.64665 22.5 9.5 22.5C9.94985 22.5 10.381 22.4149 10.7774 22.2594C11.0345 22.1586 11.1612 21.8685 11.0603 21.6114C10.9595 21.3543 10.6694 21.2276 10.4123 21.3285C10.1303 21.439 9.82289 21.5 9.5 21.5C8.29052 21.5 7.28164 20.6411 7.05001 19.5H9.25204C9.52818 19.5 9.75204 19.2761 9.75204 19C9.75204 18.7239 9.52818 18.5 9.25204 18.5H7C6.44772 18.5 6 18.0523 6 17.5V16.5H9.06189C9.33804 16.5 9.56189 16.2761 9.56189 16C9.56189 15.7239 9.33804 15.5 9.06189 15.5H5.67716C3.38281 13.616 2.5 11.6143 2.5 9.33456Z" fill="#353566"/>
<path d="M19.3536 15.3964C19.5488 15.5917 19.5488 15.9083 19.3536 16.1036L16.8536 18.6036C16.7595 18.6976 16.6319 18.7503 16.499 18.75C16.366 18.7497 16.2386 18.6965 16.145 18.6021L14.645 17.0898C14.4505 16.8937 14.4518 16.5771 14.6479 16.3827C14.844 16.1882 15.1605 16.1895 15.355 16.3856L16.5015 17.5414L18.6464 15.3964C18.8417 15.2012 19.1583 15.2012 19.3536 15.3964Z" fill="#353566"/>
<path fill-rule="evenodd" clip-rule="evenodd" d="M11.5 17C11.5 13.9624 13.9624 11.5 17 11.5C20.0376 11.5 22.5 13.9624 22.5 17C22.5 20.0376 20.0376 22.5 17 22.5C13.9624 22.5 11.5 20.0376 11.5 17ZM17 12.5C14.5147 12.5 12.5 14.5147 12.5 17C12.5 19.4853 14.5147 21.5 17 21.5C19.4853 21.5 21.5 19.4853 21.5 17C21.5 14.5147 19.4853 12.5 17 12.5Z" fill="#353566"/>
</svg>
