<svg width="24" height="24" viewBox="0 0 24 24" fill="none" xmlns="http://www.w3.org/2000/svg">
<path fill-rule="evenodd" clip-rule="evenodd" d="M5.5 6C5.5 3.51472 7.51472 1.5 10 1.5C12.4853 1.5 14.5 3.51472 14.5 6V9.98L14.4999 9.99L14.5 10V12C14.5 14.4853 12.4853 16.5 10 16.5C7.51472 16.5 5.5 14.4853 5.5 12V6ZM13.5001 9.99L13.5 9.98V6C13.5 4.067 11.933 2.5 10 2.5C8.067 2.5 6.5 4.067 6.5 6V12C6.5 13.933 8.067 15.5 10 15.5C11.933 15.5 13.5 13.933 13.5 12V10L13.5001 9.99Z" fill="#353566"/>
<path d="M3.5 12C3.5 11.7239 3.27614 11.5 3 11.5C2.72386 11.5 2.5 11.7239 2.5 12C2.5 15.9741 5.59098 19.2263 9.5 19.4836V21.5H6C5.72386 21.5 5.5 21.7239 5.5 22C5.5 22.2761 5.72386 22.5 6 22.5H13.9865C14.2626 22.5 14.4865 22.2761 14.4865 22C14.4865 21.7239 14.2626 21.5 13.9865 21.5H10.5V19.4836C11.7064 19.4041 12.8358 19.0392 13.8203 18.4554C14.0578 18.3146 14.1361 18.0078 13.9953 17.7703C13.8545 17.5328 13.5477 17.4544 13.3102 17.5953C12.3424 18.1692 11.213 18.4991 10.005 18.5L10 18.5L9.99496 18.5C6.40743 18.4973 3.5 15.5882 3.5 12Z" fill="#353566"/>
<path d="M18 12V12.7749C17.3806 12.8384 16.8275 13.0239 16.3942 13.3377C15.8323 13.7446 15.5 14.3505 15.5 15.0817C15.5 16.0212 16.0144 16.6062 16.6308 16.9512C17.2156 17.2786 17.921 17.4104 18.4178 17.4932C18.921 17.5771 19.4656 17.689 19.8808 17.9214C20.2644 18.1361 20.5 18.427 20.5 18.9183C20.5 19.3157 20.3323 19.6257 20.0193 19.8524C19.6912 20.09 19.179 20.25 18.5 20.25C18.0396 20.25 17.7322 20.2005 17.4344 20.0824C17.1249 19.9596 16.794 19.7505 16.3019 19.3778C16.0817 19.2111 15.7681 19.2544 15.6014 19.4746C15.4347 19.6947 15.478 20.0083 15.6982 20.175C16.206 20.5596 16.6252 20.8372 17.0657 21.0119C17.3706 21.1329 17.6711 21.199 18 21.2292V22C18 22.2761 18.2239 22.5 18.5 22.5C18.7761 22.5 19 22.2761 19 22V21.2251C19.6194 21.1616 20.1725 20.9761 20.6058 20.6623C21.1677 20.2554 21.5 19.6495 21.5 18.9183C21.5 17.9788 20.9856 17.3938 20.3693 17.0488C19.7845 16.7214 19.0791 16.5896 18.5822 16.5068C18.0791 16.4229 17.5345 16.311 17.1193 16.0786C16.7356 15.8639 16.5 15.573 16.5 15.0817C16.5 14.6843 16.6677 14.3743 16.9808 14.1476C17.3089 13.91 17.821 13.75 18.5 13.75C18.9604 13.75 19.2679 13.7995 19.5657 13.9176C19.8752 14.0404 20.206 14.2495 20.6982 14.6222C20.9183 14.7889 21.232 14.7455 21.3987 14.5254C21.5653 14.3052 21.522 13.9916 21.3019 13.8249C20.794 13.4404 20.3749 13.1627 19.9344 12.988C19.6294 12.8671 19.3289 12.801 19 12.7708V12C19 11.7239 18.7761 11.5 18.5 11.5C18.2239 11.5 18 11.7239 18 12Z" fill="#353566"/>
</svg>
