<svg width="24" height="24" viewBox="0 0 24 24" fill="none" xmlns="http://www.w3.org/2000/svg">
<path d="M22.1431 7.47962C22.4077 7.40063 22.5582 7.1221 22.4792 6.85749C21.6783 4.17438 19.1492 2.06274 16.0892 1.50851C15.8961 1.47353 15.7004 1.55477 15.5888 1.71622C15.4772 1.87766 15.4704 2.08946 15.5714 2.25775L17.0714 4.75775C17.2134 4.99454 17.5206 5.07133 17.7574 4.92925C17.9942 4.78718 18.0709 4.48005 17.9289 4.24326L17.0567 2.78966C19.2511 3.5381 20.9399 5.1967 21.521 7.14352C21.6 7.40812 21.8785 7.5586 22.1431 7.47962Z" fill="#353566"/>
<path d="M16.6002 15.8498C16.186 15.8498 15.8502 16.1855 15.8502 16.5998C15.8502 17.014 16.186 17.3498 16.6002 17.3498C17.0144 17.3498 17.3503 17.014 17.3503 16.5998C17.3503 16.1855 17.0144 15.8498 16.6002 15.8498Z" fill="#353566"/>
<path fill-rule="evenodd" clip-rule="evenodd" d="M10.2752 1.67389C9.57225 1.44549 8.81503 1.44549 8.11208 1.67389C7.68181 1.8137 7.30441 2.0636 6.89812 2.40852C6.49988 2.7466 6.04239 3.20409 5.46166 3.78483L3.78476 5.46173C3.20402 6.04246 2.74654 6.49994 2.40846 6.89818C2.06355 7.30446 1.81364 7.68187 1.67384 8.11214C1.44543 8.81509 1.44543 9.57231 1.67384 10.2753C1.81364 10.7055 2.06355 11.0829 2.40846 11.4892C2.74653 11.8875 3.20401 12.3449 3.78473 12.9256L11.0843 20.2252C11.6649 20.8058 12.1224 21.2633 12.5206 21.6014C12.9269 21.9463 13.3043 22.1962 13.7346 22.336C14.4375 22.5644 15.1948 22.5644 15.8977 22.336C16.328 22.1962 16.7054 21.9463 17.1117 21.6014C17.5099 21.2633 17.9674 20.8058 18.5481 20.2251L20.2251 18.5481C20.8058 17.9674 21.2633 17.51 21.6013 17.1117C21.9462 16.7054 22.1961 16.328 22.3359 15.8978C22.5644 15.1948 22.5644 14.4376 22.3359 13.7346C22.1961 13.3044 21.9462 12.927 21.6013 12.5207C21.2632 12.1224 20.8058 11.665 20.225 11.0842L12.9256 3.78481C12.3449 3.20409 11.8874 2.74659 11.4892 2.40852C11.0829 2.0636 10.7055 1.8137 10.2752 1.67389ZM8.4211 2.62495C8.92321 2.4618 9.46408 2.4618 9.96618 2.62495C10.2209 2.70771 10.483 2.8661 10.842 3.17085C11.2054 3.4794 11.6343 3.90776 12.2342 4.50762L19.5022 11.7756C20.1021 12.3755 20.5304 12.8044 20.839 13.1679C21.1437 13.5268 21.3021 13.7889 21.3849 14.0437C21.548 14.5458 21.548 15.0866 21.3849 15.5887C21.3021 15.8435 21.1437 16.1056 20.839 16.4645C20.5304 16.828 20.1021 17.2569 19.5022 17.8568L17.8567 19.5023C17.2568 20.1021 16.8279 20.5305 16.4645 20.839C16.1055 21.1438 15.8434 21.3022 15.5887 21.385C15.0866 21.5481 14.5457 21.5481 14.0436 21.385C13.7889 21.3022 13.5268 21.1438 13.1678 20.839C12.8043 20.5305 12.3754 20.1021 11.7756 19.5023L4.50756 12.2343C3.9077 11.6344 3.47934 11.2055 3.1708 10.842C2.86604 10.4831 2.70765 10.221 2.62489 9.96624C2.46175 9.46413 2.46175 8.92327 2.62489 8.42116C2.70765 8.16644 2.86604 7.90434 3.1708 7.54536C3.47934 7.18191 3.9077 6.753 4.50756 6.15314L6.15308 4.50762C6.75294 3.90776 7.18185 3.4794 7.5453 3.17085C7.90428 2.8661 8.16638 2.70771 8.4211 2.62495Z" fill="#353566"/>
<path d="M1.52102 17.1433C1.44204 16.8787 1.59251 16.6002 1.85712 16.5212C2.12173 16.4422 2.40026 16.5927 2.47924 16.8573C3.06035 18.8041 4.74912 20.4627 6.94354 21.2111L6.07138 19.7575C5.92931 19.5207 6.00609 19.2136 6.24288 19.0715C6.47967 18.9295 6.7868 19.0062 6.92888 19.243L8.42888 21.743C8.52985 21.9113 8.52303 22.1231 8.41145 22.2846C8.29986 22.446 8.10414 22.5273 7.91102 22.4923C4.85107 21.938 2.32191 19.8264 1.52102 17.1433Z" fill="#353566"/>
</svg>
