<svg width="24" height="24" viewBox="0 0 24 24" fill="none" xmlns="http://www.w3.org/2000/svg">
<path d="M10.8223 1.5H7.17767C6.28649 1.5 5.58703 1.49999 5.02469 1.54594C4.45183 1.59274 3.97738 1.68971 3.54754 1.90873C2.84193 2.26825 2.26825 2.84193 1.90873 3.54754C1.68971 3.97738 1.59274 4.45183 1.54594 5.02469C1.49999 5.58703 1.5 6.28649 1.5 7.17767V16.8223C1.5 17.7135 1.49999 18.413 1.54594 18.9753C1.59274 19.5482 1.68971 20.0226 1.90873 20.4525C2.26825 21.1581 2.84193 21.7317 3.54754 22.0913C3.97738 22.3103 4.45183 22.4073 5.02469 22.4541C5.58703 22.5 6.28648 22.5 7.17765 22.5H12.1087C12.4235 22.5 12.6666 22.5 12.8635 22.4937C13.1395 22.4848 13.356 22.2538 13.3471 21.9778C13.3382 21.7018 13.1072 21.4853 12.8312 21.4942C12.6525 21.4999 12.4256 21.5 12.1 21.5H7.2C6.28166 21.5 5.62298 21.4996 5.10612 21.4574C4.5951 21.4156 4.2669 21.3355 4.00153 21.2003C3.48408 20.9366 3.06338 20.5159 2.79973 19.9985C2.66452 19.7331 2.58437 19.4049 2.54262 18.8939C2.50039 18.377 2.5 17.7183 2.5 16.8V7.2C2.5 6.28166 2.50039 5.62298 2.54262 5.10612C2.58437 4.5951 2.66452 4.2669 2.79973 4.00153C3.06338 3.48408 3.48408 3.06338 4.00153 2.79973C4.2669 2.66452 4.5951 2.58437 5.10612 2.54262C5.62298 2.50039 6.28166 2.5 7.2 2.5H10.8C11.7183 2.5 12.377 2.50039 12.8939 2.54262C13.4049 2.58437 13.7331 2.66452 13.9985 2.79973C14.5159 3.06338 14.9366 3.48408 15.2003 4.00153C15.3355 4.2669 15.4156 4.5951 15.4574 5.10612C15.4996 5.62298 15.5 6.28166 15.5 7.2V12.0478C15.5 12.3239 15.7239 12.5478 16 12.5478C16.2761 12.5478 16.5 12.3239 16.5 12.0478V7.17765C16.5 6.2865 16.5 5.58702 16.4541 5.02469C16.4073 4.45183 16.3103 3.97738 16.0913 3.54754C15.7317 2.84193 15.1581 2.26825 14.4525 1.90873C14.0226 1.68971 13.5482 1.59274 12.9753 1.54594C12.413 1.49999 11.7135 1.5 10.8223 1.5Z" fill="#353566"/>
<path d="M9 17.75C8.58579 17.75 8.25 18.0858 8.25 18.5C8.25 18.9142 8.58579 19.25 9 19.25C9.41421 19.25 9.7501 18.9142 9.7501 18.5C9.7501 18.0858 9.41421 17.75 9 17.75Z" fill="#353566"/>
<path d="M7 5C7 4.72386 7.22386 4.5 7.5 4.5H10.5C10.7761 4.5 11 4.72386 11 5C11 5.27614 10.7761 5.5 10.5 5.5H7.5C7.22386 5.5 7 5.27614 7 5Z" fill="#353566"/>
<path d="M12.3403 17.3295C13.5628 16.1938 15.1995 15.5 16.9993 15.5C18.7998 15.5 20.437 16.1943 21.6596 17.3307C21.8619 17.5187 22.1782 17.5071 22.3662 17.3049C22.5542 17.1026 22.5427 16.7862 22.3404 16.5982C20.9401 15.2967 19.0622 14.5 16.9993 14.5C14.9372 14.5 13.0598 15.2961 11.6597 16.5969C11.4574 16.7849 11.4457 17.1012 11.6337 17.3035C11.8216 17.5058 12.138 17.5175 12.3403 17.3295Z" fill="#353566"/>
<path d="M17.0032 18.8335C16.1459 18.8335 15.3645 19.1952 14.7897 19.7916C14.5981 19.9904 14.2815 19.9962 14.0827 19.8046C13.8839 19.613 13.878 19.2965 14.0697 19.0976C14.8194 18.3197 15.8553 17.8335 17.0032 17.8335C18.1511 17.8335 19.187 18.3197 19.9368 19.0976C20.1284 19.2965 20.1225 19.613 19.9237 19.8046C19.7249 19.9962 19.4084 19.9904 19.2167 19.7916C18.6419 19.1952 17.8605 18.8335 17.0032 18.8335Z" fill="#353566"/>
<path d="M17 20.625C16.5168 20.625 16.125 21.0168 16.125 21.5C16.125 21.9832 16.5168 22.375 17 22.375C17.4832 22.375 17.8751 21.9832 17.8751 21.5C17.8751 21.0168 17.4832 20.625 17 20.625Z" fill="#353566"/>
</svg>
