<svg width="24" height="24" viewBox="0 0 24 24" fill="none" xmlns="http://www.w3.org/2000/svg">
<g clip-path="url(#clip0_9001_286108)">
<path fill-rule="evenodd" clip-rule="evenodd" d="M12 1.5C6.20101 1.5 1.5 6.20101 1.5 12C1.5 16.9844 4.97362 21.1588 9.63268 22.2322C10.5861 22.4518 11.5 21.6453 11.5 20.5V17.9753C8.97334 17.7245 7 15.5927 7 13V10H6C5.72386 10 5.5 9.77614 5.5 9.5C5.5 9.22386 5.72386 9 6 9L9 9V6C9 5.72386 9.22386 5.5 9.5 5.5C9.77614 5.5 10 5.72386 10 6V9H14V6C14 5.72386 14.2239 5.5 14.5 5.5C14.7761 5.5 15 5.72386 15 6V9L18 9C18.2761 9 18.5 9.22386 18.5 9.5C18.5 9.77614 18.2761 10 18 10H17V13C17 15.5927 15.0267 17.7245 12.5 17.9753V20.5C12.5 22.1161 11.1457 23.6069 9.40818 23.2066C4.30528 22.031 0.5 17.4605 0.5 12C0.5 5.64873 5.64873 0.5 12 0.5C18.3513 0.5 23.5 5.64873 23.5 12C23.5 16.4697 20.9499 20.3429 17.2276 22.2458C16.9817 22.3715 16.6805 22.274 16.5548 22.0282C16.4291 21.7823 16.5265 21.4811 16.7724 21.3554C20.1734 19.6168 22.5 16.0797 22.5 12C22.5 6.20101 17.799 1.5 12 1.5ZM8 10V13C8 15.2091 9.79086 17 12 17C14.2091 17 16 15.2091 16 13V10H8Z" fill="#353566"/>
</g>
<defs>
<clipPath id="clip0_9001_286108">
<rect width="24" height="24" fill="white"/>
</clipPath>
</defs>
</svg>
