<svg width="24" height="24" viewBox="0 0 24 24" fill="none" xmlns="http://www.w3.org/2000/svg">
<path d="M5.75 1.5C6.02614 1.5 6.25 1.72386 6.25 2V5.5H5.25V2C5.25 1.72386 5.47386 1.5 5.75 1.5Z" fill="#353566"/>
<path d="M2 8V12C2 15.6979 4.86736 18.726 8.5 18.9824V22C8.5 22.2761 8.72386 22.5 9 22.5C9.27614 22.5 9.5 22.2761 9.5 22V18.9824C10.4791 18.9132 11.4035 18.6425 12.2311 18.2112C12.476 18.0836 12.571 17.7816 12.4434 17.5367C12.3158 17.2918 12.0138 17.1968 11.7689 17.3244C10.9411 17.7559 9.99977 18 9 18C5.68629 18 3 15.3137 3 12V8L15 8V10.2719C15 10.548 15.2239 10.7719 15.5 10.7719C15.7761 10.7719 16 10.548 16 10.2719V8H17C17.2761 8 17.5 7.77614 17.5 7.5C17.5 7.22386 17.2761 7 17 7L1 7C0.723858 7 0.5 7.22386 0.5 7.5C0.5 7.77614 0.723858 8 1 8H2Z" fill="#353566"/>
<path d="M12.75 2C12.75 1.72386 12.5261 1.5 12.25 1.5C11.9739 1.5 11.75 1.72386 11.75 2V5.5H12.75V2Z" fill="#353566"/>
<path fill-rule="evenodd" clip-rule="evenodd" d="M16.25 14C16.25 12.5656 17.5382 11.5 19 11.5C20.4618 11.5 21.75 12.5656 21.75 14V15.25C22.7165 15.25 23.5 16.0335 23.5 17V20.75C23.5 21.7165 22.7165 22.5 21.75 22.5H16.25C15.2835 22.5 14.5 21.7165 14.5 20.75V17C14.5 16.0335 15.2835 15.25 16.25 15.25V14ZM17.25 15.25H20.75V14C20.75 13.2253 20.0235 12.5 19 12.5C17.9765 12.5 17.25 13.2253 17.25 14V15.25ZM16.25 16.25C15.8358 16.25 15.5 16.5858 15.5 17V20.75C15.5 21.1642 15.8358 21.5 16.25 21.5H21.75C22.1642 21.5 22.5 21.1642 22.5 20.75V17C22.5 16.5858 22.1642 16.25 21.75 16.25H16.25Z" fill="#353566"/>
</svg>
