<svg width="24" height="24" viewBox="0 0 24 24" fill="none" xmlns="http://www.w3.org/2000/svg">
<path d="M5.75 1.5C6.02614 1.5 6.25 1.72386 6.25 2V5.5H5.25V2C5.25 1.72386 5.47386 1.5 5.75 1.5Z" fill="#353566"/>
<path d="M2 8V12C2 15.6979 4.86736 18.726 8.5 18.9824V22C8.5 22.2761 8.72386 22.5 9 22.5C9.27614 22.5 9.5 22.2761 9.5 22V18.9824C9.70243 18.9681 9.90258 18.9452 10.1001 18.914C10.3728 18.8709 10.559 18.6149 10.5159 18.3421C10.4729 18.0693 10.2168 17.8831 9.94406 17.9262C9.63681 17.9748 9.32153 18 9 18C5.68629 18 3 15.3137 3 12V8L15 8V11.404C15 11.6802 15.2239 11.904 15.5 11.904C15.7761 11.904 16 11.6802 16 11.404V8H17C17.2761 8 17.5 7.77614 17.5 7.5C17.5 7.22386 17.2761 7 17 7L1 7C0.723858 7 0.5 7.22386 0.5 7.5C0.5 7.77614 0.723858 8 1 8H2Z" fill="#353566"/>
<path d="M12.75 2C12.75 1.72386 12.5261 1.5 12.25 1.5C11.9739 1.5 11.75 1.72386 11.75 2V5.5H12.75V2Z" fill="#353566"/>
<path fill-rule="evenodd" clip-rule="evenodd" d="M18 16C16.8942 16 16 16.8942 16 18C16 19.1058 16.8942 20 18 20C19.1058 20 20 19.1058 20 18C20 16.8942 19.1058 16 18 16ZM17 18C17 17.4465 17.4465 17 18 17C18.5535 17 19 17.4465 19 18C19 18.5535 18.5535 19 18 19C17.4465 19 17 18.5535 17 18Z" fill="#353566"/>
<path fill-rule="evenodd" clip-rule="evenodd" d="M18 13.5C20.2068 13.5 22.3768 14.8473 23.3973 17.4539C23.5342 17.8036 23.5342 18.1964 23.3973 18.5461C22.3768 21.1527 20.2068 22.5 18 22.5C15.7932 22.5 13.6232 21.1527 12.6027 18.5461C12.4658 18.1964 12.4658 17.8036 12.6027 17.4539C13.6232 14.8473 15.7932 13.5 18 13.5ZM18 14.5C16.2242 14.5 14.4115 15.5768 13.5339 17.8184C13.4887 17.9337 13.4887 18.0663 13.5339 18.1816C14.4115 20.4232 16.2242 21.5 18 21.5C19.7758 21.5 21.5885 20.4232 22.4661 18.1816C22.5113 18.0663 22.5113 17.9337 22.4661 17.8184C21.5885 15.5768 19.7758 14.5 18 14.5Z" fill="#353566"/>
</svg>
