<svg width="24" height="24" viewBox="0 0 24 24" fill="none" xmlns="http://www.w3.org/2000/svg">
<g clip-path="url(#clip0_9001_286218)">
<path d="M5.5 2.5C5.5 1.94772 5.94772 1.5 6.5 1.5H11.9406C12.2167 1.5 12.4406 1.27614 12.4406 1C12.4406 0.723858 12.2167 0.5 11.9406 0.5H6.5C5.39543 0.5 4.5 1.39543 4.5 2.5V6C4.5 6.27614 4.72386 6.5 5 6.5C5.27614 6.5 5.5 6.27614 5.5 6V2.5Z" fill="#353566"/>
<path fill-rule="evenodd" clip-rule="evenodd" d="M11.7509 8.5H5.77781C4.95655 8.5 4.30954 8.49999 3.78889 8.54253C3.25771 8.58593 2.81414 8.67609 2.41103 8.88148C1.75247 9.21703 1.21703 9.75247 0.881478 10.411C0.676087 10.8141 0.585933 11.2577 0.542534 11.7889C0.499995 12.3095 0.499997 12.9565 0.5 13.7778V16.6207C0.499994 17.0231 0.499989 17.3553 0.522098 17.6259C0.54506 17.907 0.594342 18.1653 0.717988 18.408C0.909734 18.7843 1.2157 19.0903 1.59202 19.282C1.83469 19.4057 2.09304 19.4549 2.37409 19.4779C2.64467 19.5 2.97683 19.5 3.37928 19.5H4.5V21.5C4.5 22.6046 5.39543 23.5 6.5 23.5H15.5C16.6046 23.5 17.5 22.6046 17.5 21.5V19.5H18.6207C19.0231 19.5 19.3553 19.5 19.6259 19.4779C19.907 19.4549 20.1653 19.4057 20.408 19.282C20.7843 19.0903 21.0903 18.7843 21.282 18.408C21.4057 18.1653 21.4549 17.907 21.4779 17.6259C21.5 17.3553 21.5 17.0232 21.5 16.6207V13.7953C21.5 13.3086 21.5 12.8851 21.4917 12.5163C21.4856 12.2402 21.2567 12.0214 20.9807 12.0276C20.7046 12.0338 20.4858 12.2626 20.492 12.5386C20.5 12.8951 20.5 13.3078 20.5 13.8V16.6C20.5 17.0283 20.4996 17.3194 20.4812 17.5445C20.4633 17.7637 20.4309 17.8758 20.391 17.954C20.2951 18.1422 20.1422 18.2951 19.954 18.391C19.8758 18.4309 19.7637 18.4633 19.5445 18.4812C19.3194 18.4996 19.0283 18.5 18.6 18.5H17.5V15C17.5 14.7239 17.2761 14.5 17 14.5H5C4.72386 14.5 4.5 14.7239 4.5 15V18.5H3.4C2.97171 18.5 2.68056 18.4996 2.45552 18.4812C2.23631 18.4633 2.12421 18.4309 2.04601 18.391C1.85785 18.2951 1.70487 18.1422 1.60899 17.954C1.56915 17.8758 1.53669 17.7637 1.51878 17.5445C1.50039 17.3194 1.5 17.0283 1.5 16.6V13.8C1.5 12.9517 1.50039 12.3455 1.53921 11.8703C1.57756 11.401 1.65089 11.1037 1.77248 10.865C2.01217 10.3946 2.39462 10.0122 2.86502 9.77248C3.10366 9.65089 3.40099 9.57756 3.87032 9.53921C4.3455 9.50039 4.95167 9.5 5.8 9.5H11.7509C12.027 9.5 12.2509 9.27614 12.2509 9C12.2509 8.72386 12.027 8.5 11.7509 8.5ZM5.5 21.5C5.5 22.0523 5.94772 22.5 6.5 22.5H15.5C16.0523 22.5 16.5 22.0523 16.5 21.5V15.5H5.5V21.5Z" fill="#353566"/>
<path fill-rule="evenodd" clip-rule="evenodd" d="M12.5 5.125C12.5 2.57068 14.5707 0.5 17.125 0.5C19.6793 0.5 21.75 2.57068 21.75 5.125C21.75 6.22204 21.368 7.22987 20.7299 8.02277L23.3535 10.6465C23.5488 10.8417 23.5488 11.1583 23.3535 11.3536C23.1582 11.5488 22.8416 11.5488 22.6464 11.3535L20.0228 8.72987C19.2299 9.36805 18.222 9.75 17.125 9.75C14.5707 9.75 12.5 7.67932 12.5 5.125ZM17.125 1.5C15.123 1.5 13.5 3.12297 13.5 5.125C13.5 7.12703 15.123 8.75 17.125 8.75C19.127 8.75 20.75 7.12703 20.75 5.125C20.75 3.12297 19.127 1.5 17.125 1.5Z" fill="#353566"/>
</g>
<defs>
<clipPath id="clip0_9001_286218">
<rect width="24" height="24" fill="white"/>
</clipPath>
</defs>
</svg>
