<svg width="24" height="24" viewBox="0 0 24 24" fill="none" xmlns="http://www.w3.org/2000/svg">
<g clip-path="url(#clip0_9001_286253)">
<path d="M6.5 1.5C5.94772 1.5 5.5 1.94772 5.5 2.5V6C5.5 6.27614 5.27614 6.5 5 6.5C4.72386 6.5 4.5 6.27614 4.5 6V2.5C4.5 1.39543 5.39543 0.5 6.5 0.5H13.7974C14.3799 0.5 14.9327 0.75384 15.3123 1.19417C15.4926 1.40333 15.4692 1.71905 15.26 1.89934C15.0509 2.07963 14.7351 2.05623 14.5549 1.84707C14.3651 1.62692 14.0886 1.5 13.7974 1.5H6.5Z" fill="#353566"/>
<path fill-rule="evenodd" clip-rule="evenodd" d="M5.77781 8.5H11.1458C11.422 8.5 11.6458 8.72386 11.6458 9C11.6458 9.27614 11.422 9.5 11.1458 9.5H5.8C4.95167 9.5 4.3455 9.50039 3.87032 9.53921C3.40099 9.57756 3.10366 9.65089 2.86502 9.77248C2.39462 10.0122 2.01217 10.3946 1.77248 10.865C1.65089 11.1037 1.57756 11.401 1.53921 11.8703C1.50039 12.3455 1.5 12.9517 1.5 13.8V16.6C1.5 17.0283 1.50039 17.3194 1.51878 17.5445C1.53669 17.7637 1.56915 17.8758 1.60899 17.954C1.70487 18.1422 1.85785 18.2951 2.04601 18.391C2.12421 18.4309 2.23631 18.4633 2.45552 18.4812C2.68056 18.4996 2.97171 18.5 3.4 18.5H4.5V15C4.5 14.7239 4.72386 14.5 5 14.5H17C17.2761 14.5 17.5 14.7239 17.5 15V18.5H18.6C19.0283 18.5 19.3194 18.4996 19.5445 18.4812C19.7637 18.4633 19.8758 18.4309 19.954 18.391C20.1422 18.2951 20.2951 18.1422 20.391 17.954C20.4309 17.8758 20.4633 17.7637 20.4812 17.5445C20.4996 17.3194 20.5 17.0283 20.5 16.6V13.9725C20.5 13.6963 20.7239 13.4725 21 13.4725C21.2761 13.4725 21.5 13.6963 21.5 13.9725V16.6207C21.5 17.0231 21.5 17.3553 21.4779 17.6259C21.4549 17.907 21.4057 18.1653 21.282 18.408C21.0903 18.7843 20.7843 19.0903 20.408 19.282C20.1653 19.4057 19.907 19.4549 19.6259 19.4779C19.3553 19.5 19.0232 19.5 18.6207 19.5H17.5V21.5C17.5 22.6046 16.6046 23.5 15.5 23.5H6.5C5.39543 23.5 4.5 22.6046 4.5 21.5V19.5H3.37934C2.97688 19.5 2.64467 19.5 2.37409 19.4779C2.09304 19.4549 1.83469 19.4057 1.59202 19.282C1.2157 19.0903 0.909734 18.7843 0.717988 18.408C0.594342 18.1653 0.54506 17.907 0.522098 17.6259C0.499989 17.3553 0.499994 17.0231 0.5 16.6207V13.7778C0.499997 12.9565 0.499995 12.3095 0.542534 11.7889C0.585933 11.2577 0.676087 10.8141 0.881478 10.411C1.21703 9.75247 1.75247 9.21703 2.41103 8.88148C2.81414 8.67609 3.25771 8.58593 3.78889 8.54253C4.30953 8.49999 4.95657 8.5 5.77781 8.5ZM5.5 15.5H16.5V21.5C16.5 22.0523 16.0523 22.5 15.5 22.5H6.5C5.94772 22.5 5.5 22.0523 5.5 21.5V15.5Z" fill="#353566"/>
<path fill-rule="evenodd" clip-rule="evenodd" d="M14.5 4C13.3954 4 12.5 4.89543 12.5 6C12.5 7.10457 13.3954 8 14.5 8C15.0174 8 15.4888 7.80356 15.8439 7.4812L19.509 9.31378C19.5034 9.37509 19.5005 9.43721 19.5005 9.5C19.5005 10.6046 20.3959 11.5 21.5005 11.5C22.6051 11.5 23.5005 10.6046 23.5005 9.5C23.5005 8.39543 22.6051 7.5 21.5005 7.5C20.8165 7.5 20.2126 7.8434 19.852 8.36722L16.3957 6.63908C16.4633 6.4384 16.5 6.22348 16.5 6C16.5 5.77652 16.4633 5.5616 16.3957 5.36092L19.852 3.63278C20.2126 4.15659 20.8165 4.5 21.5005 4.5C22.6051 4.5 23.5005 3.60457 23.5005 2.5C23.5005 1.39543 22.6051 0.5 21.5005 0.5C20.3959 0.5 19.5005 1.39543 19.5005 2.5C19.5005 2.56279 19.5034 2.62491 19.509 2.68622L15.8439 4.51879C15.4888 4.19644 15.0174 4 14.5 4ZM13.5 6C13.5 5.44771 13.9477 5 14.5 5C15.0523 5 15.5 5.44771 15.5 6C15.5 6.55228 15.0523 7 14.5 7C13.9477 7 13.5 6.55228 13.5 6ZM21.5005 1.5C20.9482 1.5 20.5005 1.94771 20.5005 2.5C20.5005 3.05228 20.9482 3.5 21.5005 3.5C22.0528 3.5 22.5005 3.05228 22.5005 2.5C22.5005 1.94771 22.0528 1.5 21.5005 1.5ZM20.5005 9.5C20.5005 8.94771 20.9482 8.5 21.5005 8.5C22.0528 8.5 22.5005 8.94771 22.5005 9.5C22.5005 10.0523 22.0528 10.5 21.5005 10.5C20.9482 10.5 20.5005 10.0523 20.5005 9.5Z" fill="#353566"/>
</g>
<defs>
<clipPath id="clip0_9001_286253">
<rect width="24" height="24" fill="white"/>
</clipPath>
</defs>
</svg>
