<svg width="24" height="24" viewBox="0 0 24 24" fill="none" xmlns="http://www.w3.org/2000/svg">
<path d="M13.75 5.25C13.75 4.83579 14.0858 4.5 14.5 4.5C14.9142 4.5 15.2501 4.83579 15.2501 5.25C15.2501 5.66421 14.9143 6 14.5001 6C14.0859 6 13.75 5.66421 13.75 5.25Z" fill="#353566"/>
<path d="M17.5 4.5C17.0858 4.5 16.75 4.83579 16.75 5.25C16.75 5.66421 17.0858 6 17.5 6C17.9142 6 18.2501 5.66421 18.2501 5.25C18.2501 4.83579 17.9142 4.5 17.5 4.5Z" fill="#353566"/>
<path fill-rule="evenodd" clip-rule="evenodd" d="M18.8214 1.5H5.1786C4.63671 1.5 4.19963 1.49999 3.84569 1.52891C3.48126 1.55868 3.16117 1.62159 2.86502 1.77248C2.39462 2.01217 2.01217 2.39462 1.77248 2.86502C1.62159 3.16117 1.55868 3.48126 1.52891 3.84569C1.49999 4.19963 1.5 4.6367 1.5 5.17859V5.3214C1.5 5.8633 1.49999 6.30037 1.52891 6.65431C1.55868 7.01874 1.62159 7.33883 1.77248 7.63498C2.01217 8.10538 2.39462 8.48783 2.86502 8.72752C3.16117 8.87841 3.48126 8.94132 3.84569 8.97109C4.19963 9.00001 4.63671 9.00001 5.17861 9H18.8214C19.3633 9.00001 19.8004 9.00001 20.1543 8.97109C20.5187 8.94132 20.8388 8.87841 21.135 8.72752C21.6054 8.48783 21.9878 8.10538 22.2275 7.63498C22.3784 7.33883 22.4413 7.01874 22.4711 6.65431C22.5 6.30038 22.5 5.8633 22.5 5.32142V5.17859C22.5 4.6367 22.5 4.19963 22.4711 3.84569C22.4413 3.48126 22.3784 3.16117 22.2275 2.86502C21.9878 2.39462 21.6054 2.01217 21.135 1.77248C20.8388 1.62159 20.5187 1.55868 20.1543 1.52891C19.8004 1.49999 19.3633 1.5 18.8214 1.5ZM3.31901 2.66349C3.45069 2.5964 3.62454 2.55031 3.92712 2.52559C4.23554 2.50039 4.6317 2.5 5.2 2.5H18.8C19.3683 2.5 19.7645 2.50039 20.0729 2.52559C20.3755 2.55031 20.5493 2.5964 20.681 2.66349C20.9632 2.8073 21.1927 3.03677 21.3365 3.31901C21.4036 3.45069 21.4497 3.62454 21.4744 3.92712C21.4996 4.23554 21.5 4.6317 21.5 5.2V5.3C21.5 5.8683 21.4996 6.26446 21.4744 6.57288C21.4497 6.87546 21.4036 7.04931 21.3365 7.18099C21.1927 7.46323 20.9632 7.6927 20.681 7.83651C20.5493 7.9036 20.3755 7.94969 20.0729 7.97441C19.7645 7.99961 19.3683 8 18.8 8H5.2C4.6317 8 4.23554 7.99961 3.92712 7.97441C3.62454 7.94969 3.45069 7.9036 3.31901 7.83651C3.03677 7.6927 2.8073 7.46323 2.66349 7.18099C2.5964 7.04931 2.55031 6.87546 2.52559 6.57288C2.50039 6.26446 2.5 5.8683 2.5 5.3V5.2C2.5 4.6317 2.50039 4.23554 2.52559 3.92712C2.55031 3.62454 2.5964 3.45069 2.66349 3.31901C2.8073 3.03677 3.03677 2.8073 3.31901 2.66349Z" fill="#353566"/>
<path d="M13.75 14.75C13.75 14.3358 14.0858 14 14.5 14C14.9142 14 15.2501 14.3358 15.2501 14.75C15.2501 15.1642 14.9143 15.5 14.5001 15.5C14.0859 15.5 13.75 15.1642 13.75 14.75Z" fill="#353566"/>
<path d="M17.5 14C17.0858 14 16.75 14.3358 16.75 14.75C16.75 15.1642 17.0858 15.5 17.5 15.5C17.9142 15.5 18.2501 15.1642 18.2501 14.75C18.2501 14.3358 17.9142 14 17.5 14Z" fill="#353566"/>
<path fill-rule="evenodd" clip-rule="evenodd" d="M18.8214 11H5.1786C4.6367 11 4.19963 11 3.84569 11.0289C3.48126 11.0587 3.16117 11.1216 2.86502 11.2725C2.39462 11.5122 2.01217 11.8946 1.77248 12.365C1.62159 12.6612 1.55868 12.9813 1.52891 13.3457C1.49999 13.6996 1.5 14.1367 1.5 14.6786V14.8214C1.5 15.3633 1.49999 15.8004 1.52891 16.1543C1.55868 16.5187 1.62159 16.8388 1.77248 17.135C2.01217 17.6054 2.39462 17.9878 2.86502 18.2275C3.16117 18.3784 3.48126 18.4413 3.84569 18.4711C4.19963 18.5 4.63671 18.5 5.17861 18.5H11.5V21.5H3C2.72386 21.5 2.5 21.7239 2.5 22C2.5 22.2761 2.72386 22.5 3 22.5H21C21.2761 22.5 21.5 22.2761 21.5 22C21.5 21.7239 21.2761 21.5 21 21.5H12.5V18.5H18.8214C19.3633 18.5 19.8004 18.5 20.1543 18.4711C20.5187 18.4413 20.8388 18.3784 21.135 18.2275C21.6054 17.9878 21.9878 17.6054 22.2275 17.135C22.3784 16.8388 22.4413 16.5187 22.4711 16.1543C22.5 15.8004 22.5 15.3633 22.5 14.8214V14.6786C22.5 14.1367 22.5 13.6996 22.4711 13.3457C22.4413 12.9813 22.3784 12.6612 22.2275 12.365C21.9878 11.8946 21.6054 11.5122 21.135 11.2725C20.8388 11.1216 20.5187 11.0587 20.1543 11.0289C19.8004 11 19.3633 11 18.8214 11ZM18.8 17.5H5.2C4.6317 17.5 4.23554 17.4996 3.92712 17.4744C3.62454 17.4497 3.45069 17.4036 3.31901 17.3365C3.03677 17.1927 2.8073 16.9632 2.66349 16.681C2.5964 16.5493 2.55031 16.3755 2.52559 16.0729C2.50039 15.7645 2.5 15.3683 2.5 14.8V14.7C2.5 14.1317 2.50039 13.7355 2.52559 13.4271C2.55031 13.1245 2.5964 12.9507 2.66349 12.819C2.8073 12.5368 3.03677 12.3073 3.31901 12.1635C3.45069 12.0964 3.62454 12.0503 3.92712 12.0256C4.23554 12.0004 4.6317 12 5.2 12H18.8C19.3683 12 19.7645 12.0004 20.0729 12.0256C20.3755 12.0503 20.5493 12.0964 20.681 12.1635C20.9632 12.3073 21.1927 12.5368 21.3365 12.819C21.4036 12.9507 21.4497 13.1245 21.4744 13.4271C21.4996 13.7355 21.5 14.1317 21.5 14.7V14.8C21.5 15.3683 21.4996 15.7645 21.4744 16.0729C21.4497 16.3755 21.4036 16.5493 21.3365 16.681C21.1927 16.9632 20.9632 17.1927 20.681 17.3365C20.5493 17.4036 20.3755 17.4497 20.0729 17.4744C19.7645 17.4996 19.3683 17.5 18.8 17.5Z" fill="#353566"/>
</svg>
