<svg width="24" height="24" viewBox="0 0 24 24" fill="none" xmlns="http://www.w3.org/2000/svg">
<path d="M12.8223 1.5H6.17767C5.28649 1.5 4.58703 1.49999 4.02469 1.54594C3.45183 1.59274 2.97738 1.68971 2.54754 1.90873C1.84193 2.26825 1.26825 2.84193 0.908726 3.54754C0.689711 3.97738 0.592744 4.45183 0.545939 5.02469C0.499994 5.58703 0.499997 6.28649 0.5 7.17767V16.8223C0.499997 17.7135 0.499994 18.413 0.545939 18.9753C0.592744 19.5482 0.689711 20.0226 0.908726 20.4525C1.26825 21.1581 1.84193 21.7317 2.54754 22.0913C2.97738 22.3103 3.45183 22.4073 4.02469 22.4541C4.58703 22.5 5.28648 22.5 6.17765 22.5H12.2808C12.557 22.5 12.7808 22.2761 12.7808 22C12.7808 21.7239 12.557 21.5 12.2808 21.5H6.2C5.28166 21.5 4.62298 21.4996 4.10612 21.4574C3.5951 21.4156 3.2669 21.3355 3.00153 21.2003C2.48408 20.9366 2.06338 20.5159 1.79973 19.9985C1.66452 19.7331 1.58437 19.4049 1.54262 18.8939C1.50039 18.377 1.5 17.7183 1.5 16.8V7.2C1.5 6.28166 1.50039 5.62298 1.54262 5.10612C1.58437 4.5951 1.66452 4.2669 1.79973 4.00153C2.06338 3.48408 2.48408 3.06338 3.00153 2.79973C3.2669 2.66452 3.5951 2.58437 4.10612 2.54262C4.62298 2.50039 5.28166 2.5 6.2 2.5H12.8C13.7183 2.5 14.377 2.50039 14.8939 2.54262C15.4049 2.58437 15.7331 2.66452 15.9985 2.79973C16.5159 3.06338 16.9366 3.48408 17.2003 4.00153C17.3355 4.2669 17.4156 4.5951 17.4574 5.10612C17.4996 5.62298 17.5 6.28166 17.5 7.2V10.2447C17.5 10.5208 17.7239 10.7447 18 10.7447C18.2761 10.7447 18.5 10.5208 18.5 10.2447V7.17765C18.5 6.28648 18.5 5.58703 18.4541 5.02469C18.4073 4.45183 18.3103 3.97738 18.0913 3.54754C17.7317 2.84193 17.1581 2.26825 16.4525 1.90873C16.0226 1.68971 15.5482 1.59274 14.9753 1.54594C14.413 1.49999 13.7135 1.5 12.8223 1.5Z" fill="#353566"/>
<path d="M9.5 17.75C9.08579 17.75 8.75 18.0858 8.75 18.5C8.75 18.9142 9.08579 19.25 9.5 19.25C9.91421 19.25 10.2501 18.9142 10.2501 18.5C10.2501 18.0858 9.91421 17.75 9.5 17.75Z" fill="#353566"/>
<path d="M7.5 5C7.5 4.72386 7.72386 4.5 8 4.5H11C11.2761 4.5 11.5 4.72386 11.5 5C11.5 5.27614 11.2761 5.5 11 5.5H8C7.72386 5.5 7.5 5.27614 7.5 5Z" fill="#353566"/>
<path fill-rule="evenodd" clip-rule="evenodd" d="M22.601 15.2197L19.5005 16.124V20.4996C19.5005 21.064 19.2114 21.5878 18.7146 21.9604C18.2232 22.329 17.601 22.4998 17.0003 22.4998C16.3995 22.4998 15.7773 22.329 15.2859 21.9604C14.7891 21.5878 14.5 21.064 14.5 20.4996C14.5 19.9352 14.7891 19.4114 15.2859 19.0388C15.7773 18.6703 16.3995 18.4994 17.0003 18.4994C17.5167 18.4994 18.0491 18.6257 18.5005 18.8953V13.7088C18.5005 13.042 18.9405 12.4553 19.5806 12.2686L22.0609 11.5452C22.781 11.3352 23.501 11.8752 23.501 12.6253V14.0196C23.501 14.5752 23.1343 15.0641 22.601 15.2197ZM22.3409 12.5052C22.421 12.4819 22.501 12.5419 22.501 12.6253V14.0196C22.501 14.1308 22.4277 14.2286 22.321 14.2597L19.5005 15.0823V13.7088C19.5005 13.4865 19.6472 13.2909 19.8606 13.2286L22.3409 12.5052ZM18.1147 19.8388C18.3988 20.0519 18.5003 20.2957 18.5005 20.4991C18.5005 20.7025 18.399 20.9471 18.1147 21.1604C17.8249 21.3777 17.4233 21.4998 17.0003 21.4998C16.5772 21.4998 16.1756 21.3777 15.8859 21.1604C15.6015 20.9471 15.5 20.7031 15.5 20.4996C15.5 20.2962 15.6015 20.0521 15.8859 19.8388C16.1756 19.6215 16.5772 19.4994 17.0003 19.4994C17.4233 19.4994 17.8249 19.6215 18.1147 19.8388Z" fill="#353566"/>
</svg>
