<svg width="24" height="24" viewBox="0 0 24 24" fill="none" xmlns="http://www.w3.org/2000/svg">
<path d="M12.8223 1.5H6.17767C5.28649 1.5 4.58703 1.49999 4.02469 1.54594C3.45183 1.59274 2.97738 1.68971 2.54754 1.90873C1.84193 2.26825 1.26825 2.84193 0.908726 3.54754C0.689711 3.97738 0.592744 4.45183 0.545939 5.02469C0.499994 5.58703 0.499997 6.28649 0.5 7.17767V16.8223C0.499997 17.7135 0.499994 18.413 0.545939 18.9753C0.592744 19.5482 0.689711 20.0226 0.908726 20.4525C1.26825 21.1581 1.84193 21.7317 2.54754 22.0913C2.97738 22.3103 3.45183 22.4073 4.02469 22.4541C4.58703 22.5 5.28648 22.5 6.17765 22.5L14.1536 22.5C14.7063 22.5 15.0447 22.5001 15.3366 22.4538C15.8097 22.3789 16.2532 22.2165 16.6496 21.9835C16.8877 21.8435 16.9672 21.5371 16.8273 21.2991C16.6874 21.061 16.3809 20.9814 16.1429 21.1214C15.8525 21.292 15.5276 21.4111 15.1802 21.4661C14.9762 21.4984 14.723 21.5 14.1 21.5H6.2C5.28166 21.5 4.62298 21.4996 4.10612 21.4574C3.5951 21.4156 3.2669 21.3355 3.00153 21.2003C2.48408 20.9366 2.06338 20.5159 1.79973 19.9985C1.66452 19.7331 1.58437 19.4049 1.54262 18.8939C1.50039 18.377 1.5 17.7183 1.5 16.8V7.2C1.5 6.28166 1.50039 5.62298 1.54262 5.10612C1.58437 4.5951 1.66452 4.2669 1.79973 4.00153C2.06338 3.48408 2.48408 3.06338 3.00153 2.79973C3.2669 2.66452 3.5951 2.58437 4.10612 2.54262C4.62298 2.50039 5.28166 2.5 6.2 2.5H12.8C13.7183 2.5 14.377 2.50039 14.8939 2.54262C15.4049 2.58437 15.7331 2.66452 15.9985 2.79973C16.5159 3.06338 16.9366 3.48408 17.2003 4.00153C17.3355 4.2669 17.4156 4.5951 17.4574 5.10612C17.4996 5.62298 17.5 6.28166 17.5 7.2V10.6718C17.5 10.9479 17.7239 11.1718 18 11.1718C18.2761 11.1718 18.5 10.9479 18.5 10.6718V7.17765C18.5 6.28648 18.5 5.58703 18.4541 5.02469C18.4073 4.45183 18.3103 3.97738 18.0913 3.54754C17.7317 2.84193 17.1581 2.26825 16.4525 1.90873C16.0226 1.68971 15.5482 1.59274 14.9753 1.54594C14.413 1.49999 13.7135 1.5 12.8223 1.5Z" fill="#353566"/>
<path d="M9.5 17.75C9.08579 17.75 8.75 18.0858 8.75 18.5C8.75 18.9142 9.08579 19.25 9.5 19.25C9.91421 19.25 10.2501 18.9142 10.2501 18.5C10.2501 18.0858 9.91421 17.75 9.5 17.75Z" fill="#353566"/>
<path d="M7.5 5C7.5 4.72386 7.72386 4.5 8 4.5H11C11.2761 4.5 11.5 4.72386 11.5 5C11.5 5.27614 11.2761 5.5 11 5.5H8C7.72386 5.5 7.5 5.27614 7.5 5Z" fill="#353566"/>
<path fill-rule="evenodd" clip-rule="evenodd" d="M14.5 15C13.3954 15 12.5 15.8954 12.5 17C12.5 18.1046 13.3954 19 14.5 19C15.0173 19 15.4887 18.8036 15.8438 18.4813L19.509 20.3139C19.5034 20.3752 19.5005 20.4372 19.5005 20.5C19.5005 21.6046 20.3959 22.5 21.5005 22.5C22.6051 22.5 23.5005 21.6046 23.5005 20.5C23.5005 19.3954 22.6051 18.5 21.5005 18.5C20.8164 18.5 20.2126 18.8434 19.8519 19.3673L16.3957 17.6392C16.4633 17.4385 16.5 17.2235 16.5 17C16.5 16.7765 16.4633 16.5615 16.3957 16.3608L19.8519 14.6327C20.2126 15.1566 20.8164 15.5 21.5005 15.5C22.6051 15.5 23.5005 14.6046 23.5005 13.5C23.5005 12.3954 22.6051 11.5 21.5005 11.5C20.3959 11.5 19.5005 12.3954 19.5005 13.5C19.5005 13.5628 19.5034 13.6248 19.509 13.6861L15.8438 15.5187C15.4888 15.1964 15.0173 15 14.5 15ZM13.5 17C13.5 16.4477 13.9477 16 14.5 16C15.0523 16 15.5 16.4477 15.5 17C15.5 17.5523 15.0523 18 14.5 18C13.9477 18 13.5 17.5523 13.5 17ZM21.5005 12.5C20.9482 12.5 20.5005 12.9477 20.5005 13.5C20.5005 14.0523 20.9482 14.5 21.5005 14.5C22.0528 14.5 22.5005 14.0523 22.5005 13.5C22.5005 12.9477 22.0528 12.5 21.5005 12.5ZM20.5005 20.5C20.5005 19.9477 20.9482 19.5 21.5005 19.5C22.0528 19.5 22.5005 19.9477 22.5005 20.5C22.5005 21.0523 22.0528 21.5 21.5005 21.5C20.9482 21.5 20.5005 21.0523 20.5005 20.5Z" fill="#353566"/>
</svg>
