<svg width="24" height="24" viewBox="0 0 24 24" fill="none" xmlns="http://www.w3.org/2000/svg">
<path fill-rule="evenodd" clip-rule="evenodd" d="M13.3751 7.03572C13.3751 6.57104 13.0536 6.25887 12.7202 6.14973C12.3883 6.0411 11.9607 6.10153 11.6729 6.43746L8.37344 10.2886C8.10964 10.5965 8.09331 10.9963 8.25256 11.3055C8.40957 11.6104 8.73093 11.8218 9.11322 11.8218H10.6253V13.9643C10.6253 14.4289 10.9467 14.741 11.2801 14.8502C11.6119 14.9589 12.0395 14.8985 12.3273 14.5628L15.6264 10.7148C15.8903 10.407 15.9068 10.0071 15.7475 9.69783C15.5906 9.39291 15.2692 9.18136 14.8868 9.18136H13.3751V7.03572ZM9.45078 10.7218L12.2751 7.42526V9.53888C12.2751 9.98404 12.65 10.2814 13.0313 10.2814H14.5491L11.7253 13.5749V11.4643C11.7253 11.0192 11.3504 10.7218 10.9691 10.7218H9.45078Z" fill="#353566"/>
<path fill-rule="evenodd" clip-rule="evenodd" d="M6.27779 2.5H17.7222C18.5435 2.5 19.1905 2.49999 19.7111 2.54253C20.2423 2.58593 20.6859 2.67609 21.089 2.88148C21.7475 3.21703 22.283 3.75247 22.6185 4.41103C22.8239 4.81413 22.9141 5.25771 22.9575 5.78889C23 6.30954 23 6.95651 23 7.77778V13.2222C23 14.0435 23 14.6905 22.9575 15.2111C22.9141 15.7423 22.8239 16.1859 22.6185 16.589C22.283 17.2475 21.7475 17.783 21.089 18.1185C20.6859 18.3239 20.2423 18.4141 19.7111 18.4575C19.1905 18.5 18.5435 18.5 17.7223 18.5H6.27778C5.45656 18.5 4.80952 18.5 4.28889 18.4575C3.75771 18.4141 3.31413 18.3239 2.91103 18.1185C2.25247 17.783 1.71703 17.2475 1.38148 16.589C1.17609 16.1859 1.08593 15.7423 1.04253 15.2111C0.999994 14.6905 0.999997 14.0435 1 13.2222V7.77779C0.999997 6.95653 0.999994 6.30954 1.04253 5.78889C1.08593 5.25771 1.17609 4.81413 1.38148 4.41103C1.71703 3.75247 2.25247 3.21703 2.91103 2.88148C3.31413 2.67609 3.75771 2.58593 4.28889 2.54253C4.80954 2.49999 5.45653 2.5 6.27779 2.5ZM4.37032 3.53921C3.90099 3.57756 3.60366 3.65089 3.36502 3.77248C2.89462 4.01217 2.51217 4.39462 2.27248 4.86502C2.15089 5.10366 2.07756 5.40099 2.03921 5.87032C2.00039 6.34549 2 6.95167 2 7.8V13.2C2 14.0483 2.00039 14.6545 2.03921 15.1297C2.07756 15.599 2.15089 15.8963 2.27248 16.135C2.51217 16.6054 2.89462 16.9878 3.36502 17.2275C3.60366 17.3491 3.90099 17.4224 4.37032 17.4608C4.84549 17.4996 5.45167 17.5 6.3 17.5H17.7C18.5483 17.5 19.1545 17.4996 19.6297 17.4608C20.099 17.4224 20.3963 17.3491 20.635 17.2275C21.1054 16.9878 21.4878 16.6054 21.7275 16.135C21.8491 15.8963 21.9224 15.599 21.9608 15.1297C21.9996 14.6545 22 14.0483 22 13.2V7.8C22 6.95167 21.9996 6.34549 21.9608 5.87032C21.9224 5.40099 21.8491 5.10366 21.7275 4.86502C21.4878 4.39462 21.1054 4.01217 20.635 3.77248C20.3963 3.65089 20.099 3.57756 19.6297 3.53921C19.1545 3.50039 18.5483 3.5 17.7 3.5H6.3C5.45167 3.5 4.84549 3.50039 4.37032 3.53921Z" fill="#353566"/>
<path d="M6 21C6 20.7239 6.22386 20.5 6.5 20.5H17.5C17.7761 20.5 18 20.7239 18 21C18 21.2761 17.7761 21.5 17.5 21.5H6.5C6.22386 21.5 6 21.2761 6 21Z" fill="#353566"/>
</svg>
