<svg width="24" height="24" viewBox="0 0 24 24" fill="none" xmlns="http://www.w3.org/2000/svg">
<path fill-rule="evenodd" clip-rule="evenodd" d="M8.367 1.25H15.633C16.7251 1.24999 17.5906 1.24999 18.2883 1.30699C19.0017 1.36527 19.6053 1.48688 20.1565 1.76772C21.0502 2.22312 21.7769 2.94978 22.2323 3.84355C22.5131 4.39472 22.6347 4.99834 22.693 5.71173C22.75 6.40935 22.75 7.27484 22.75 8.36698V15.633C22.75 16.7252 22.75 17.5906 22.693 18.2883C22.6347 19.0017 22.5131 19.6053 22.2323 20.1565C21.7769 21.0502 21.0502 21.7769 20.1565 22.2323C19.6053 22.5131 19.0017 22.6347 18.2883 22.693C17.5906 22.75 16.7252 22.75 15.633 22.75H8.36698C7.27484 22.75 6.40935 22.75 5.71173 22.693C4.99834 22.6347 4.39472 22.5131 3.84355 22.2323C2.94978 21.7769 2.22312 21.0502 1.76772 20.1565C1.48688 19.6053 1.36527 19.0017 1.30699 18.2883C1.24999 17.5906 1.24999 16.7251 1.25 15.633V8.367C1.24999 7.27486 1.24999 6.40935 1.30699 5.71173C1.36527 4.99834 1.48688 4.39472 1.76772 3.84355C2.22312 2.94978 2.94978 2.22312 3.84355 1.76772C4.39472 1.48688 4.99834 1.36527 5.71173 1.30699C6.40935 1.24999 7.27486 1.24999 8.367 1.25ZM5.83388 2.80201C5.21325 2.85271 4.829 2.94909 4.52453 3.10423C3.913 3.41582 3.41582 3.913 3.10423 4.52453C2.94909 4.829 2.85271 5.21325 2.80201 5.83388C2.75058 6.46327 2.75 7.26752 2.75 8.4V15.6C2.75 15.807 2.75002 16.003 2.75037 16.189L7.11612 11.8232C7.60427 11.3351 8.39573 11.3351 8.88388 11.8232L11 13.9393L15.1893 9.75H13C12.5858 9.75 12.25 9.41421 12.25 9C12.25 8.58579 12.5858 8.25 13 8.25H17C17.4142 8.25 17.75 8.58579 17.75 9V13C17.75 13.4142 17.4142 13.75 17 13.75C16.5858 13.75 16.25 13.4142 16.25 13V10.8107L11.8839 15.1768C11.3957 15.6649 10.6043 15.6649 10.1161 15.1768L8 13.0607L2.80939 18.2513C2.86181 18.8223 2.95631 19.1852 3.10423 19.4755C3.41582 20.087 3.913 20.5842 4.52453 20.8958C4.829 21.0509 5.21325 21.1473 5.83388 21.198C6.46326 21.2494 7.26752 21.25 8.4 21.25H15.6C16.7325 21.25 17.5367 21.2494 18.1661 21.198C18.7867 21.1473 19.171 21.0509 19.4755 20.8958C20.087 20.5842 20.5842 20.087 20.8958 19.4755C21.0509 19.171 21.1473 18.7867 21.198 18.1661C21.2494 17.5367 21.25 16.7325 21.25 15.6V8.4C21.25 7.26752 21.2494 6.46327 21.198 5.83388C21.1473 5.21325 21.0509 4.829 20.8958 4.52453C20.5842 3.913 20.087 3.41582 19.4755 3.10423C19.171 2.94909 18.7867 2.85271 18.1661 2.80201C17.5367 2.75058 16.7325 2.75 15.6 2.75H8.4C7.26752 2.75 6.46326 2.75058 5.83388 2.80201Z" fill="#353566"/>
</svg>
