<svg width="24" height="24" viewBox="0 0 24 24" fill="none" xmlns="http://www.w3.org/2000/svg">
<g clip-path="url(#clip0_9001_272981)">
<path d="M14.633 0.250244H7.367C6.27486 0.250239 5.40935 0.250234 4.71173 0.307232C3.99834 0.365518 3.39472 0.487127 2.84354 0.767964C1.94978 1.22336 1.22312 1.95002 0.76772 2.84379C0.486882 3.39496 0.365274 3.99859 0.306988 4.71198C0.24999 5.4096 0.249995 6.27509 0.25 7.36723V14.6332C0.249995 15.7254 0.24999 16.5909 0.306988 17.2885C0.365274 18.0019 0.486882 18.6055 0.76772 19.1567C1.22312 20.0505 1.94978 20.7771 2.84355 21.2325C3.39472 21.5134 3.99835 21.635 4.71173 21.6933C5.40935 21.7503 6.27485 21.7502 7.36698 21.7502H11.7751C12.1893 21.7502 12.5251 21.4145 12.5251 21.0002C12.5251 20.586 12.1893 20.2502 11.7751 20.2502H7.4C6.26752 20.2502 5.46326 20.2497 4.83388 20.1982C4.21325 20.1475 3.829 20.0512 3.52453 19.896C2.913 19.5844 2.41582 19.0872 2.10423 18.4757C1.94909 18.1712 1.85271 17.787 1.80201 17.1664C1.75058 16.537 1.75 15.7327 1.75 14.6002V7.40024C1.75 6.26776 1.75058 5.46351 1.80201 4.83413C1.85271 4.2135 1.94909 3.82925 2.10423 3.52478C2.41582 2.91325 2.913 2.41606 3.52453 2.10447C3.829 1.94934 4.21325 1.85296 4.83388 1.80225C5.46326 1.75083 6.26752 1.75024 7.4 1.75024H14.6C15.7325 1.75024 16.5367 1.75083 17.1661 1.80225C17.7867 1.85296 18.171 1.94934 18.4755 2.10447C19.087 2.41606 19.5842 2.91325 19.8958 3.52478C20.0509 3.82925 20.1473 4.2135 20.198 4.83413C20.2494 5.46351 20.25 6.26776 20.25 7.40024V11.7754C20.25 12.1896 20.5858 12.5254 21 12.5254C21.4142 12.5254 21.75 12.1896 21.75 11.7754V7.36722C21.75 6.27509 21.75 5.4096 21.693 4.71198C21.6347 3.99859 21.5131 3.39496 21.2323 2.84379C20.7769 1.95002 20.0502 1.22336 19.1565 0.767964C18.6053 0.487127 18.0017 0.365518 17.2883 0.307232C16.5906 0.250234 15.7251 0.250239 14.633 0.250244Z" fill="#353566"/>
<path d="M16.5303 9.53057C16.8232 9.23768 16.8232 8.76281 16.5303 8.46991C16.2374 8.17702 15.7626 8.17702 15.4697 8.46991L12.5 11.4396L10.0303 8.96991C9.73744 8.67702 9.26256 8.67702 8.96967 8.96991L5.46967 12.4699C5.17678 12.7628 5.17678 13.2377 5.46967 13.5306C5.76256 13.8235 6.23744 13.8235 6.53033 13.5306L9.5 10.5609L11.9697 13.0306C12.2626 13.3235 12.7374 13.3235 13.0303 13.0306L16.5303 9.53057Z" fill="#353566"/>
<path fill-rule="evenodd" clip-rule="evenodd" d="M13.0866 17.6182C13.0866 15.1156 15.1153 13.0869 17.6179 13.0869C20.1204 13.0869 22.1491 15.1156 22.1491 17.6182C22.1491 18.5987 21.8377 19.5064 21.3083 20.2479L23.5335 22.4732C23.8264 22.7661 23.8264 23.2409 23.5335 23.5338C23.2406 23.8267 22.7658 23.8267 22.4729 23.5338L20.2477 21.3086C19.5062 21.838 18.5984 22.1494 17.6179 22.1494C15.1153 22.1494 13.0866 20.1207 13.0866 17.6182ZM17.6179 14.5869C15.9437 14.5869 14.5866 15.9441 14.5866 17.6182C14.5866 19.2923 15.9437 20.6494 17.6179 20.6494C19.292 20.6494 20.6491 19.2923 20.6491 17.6182C20.6491 15.9441 19.292 14.5869 17.6179 14.5869Z" fill="#353566"/>
</g>
<defs>
<clipPath id="clip0_9001_272981">
<rect width="24" height="24" fill="white"/>
</clipPath>
</defs>
</svg>
