<svg width="24" height="24" viewBox="0 0 24 24" fill="none" xmlns="http://www.w3.org/2000/svg">
<g clip-path="url(#clip0_9001_273016)">
<path d="M7.367 0.250244H14.633C15.7251 0.250239 16.5906 0.250234 17.2883 0.307232C18.0017 0.365518 18.6053 0.487127 19.1565 0.767964C20.0502 1.22336 20.7769 1.95002 21.2323 2.84379C21.5131 3.39496 21.6347 3.99859 21.693 4.71198C21.75 5.4096 21.75 6.27509 21.75 7.36722V13.2577C21.75 13.6719 21.4142 14.0077 21 14.0077C20.5858 14.0077 20.25 13.6719 20.25 13.2577V7.40024C20.25 6.26776 20.2494 5.46351 20.198 4.83413C20.1473 4.2135 20.0509 3.82925 19.8958 3.52478C19.5842 2.91325 19.087 2.41606 18.4755 2.10447C18.171 1.94934 17.7867 1.85296 17.1661 1.80225C16.5367 1.75083 15.7325 1.75024 14.6 1.75024H7.4C6.26752 1.75024 5.46326 1.75083 4.83388 1.80225C4.21325 1.85296 3.829 1.94934 3.52453 2.10447C2.913 2.41606 2.41582 2.91325 2.10423 3.52478C1.94909 3.82925 1.85271 4.2135 1.80201 4.83413C1.75058 5.46351 1.75 6.26776 1.75 7.40024V14.6002C1.75 15.7327 1.75058 16.537 1.80201 17.1664C1.85271 17.787 1.94909 18.1712 2.10423 18.4757C2.41582 19.0872 2.913 19.5844 3.52453 19.896C3.829 20.0512 4.21325 20.1475 4.83388 20.1982C5.46326 20.2497 6.26752 20.2502 7.4 20.2502H11.3834C11.7976 20.2502 12.1334 20.586 12.1334 21.0002C12.1334 21.4145 11.7976 21.7502 11.3834 21.7502H7.36698C6.27485 21.7502 5.40935 21.7503 4.71173 21.6933C3.99835 21.635 3.39472 21.5134 2.84355 21.2325C1.94978 20.7771 1.22312 20.0505 0.76772 19.1567C0.486882 18.6055 0.365274 18.0019 0.306988 17.2885C0.24999 16.5909 0.249995 15.7254 0.25 14.6333V7.36724C0.249995 6.2751 0.24999 5.4096 0.306988 4.71198C0.365274 3.99859 0.486882 3.39496 0.76772 2.84379C1.22312 1.95002 1.94978 1.22336 2.84354 0.767964C3.39472 0.487127 3.99834 0.365518 4.71173 0.307232C5.40935 0.250234 6.27486 0.250239 7.367 0.250244Z" fill="#353566"/>
<path d="M16.5303 8.46991C16.8232 8.76281 16.8232 9.23768 16.5303 9.53057L13.0303 13.0306C12.7374 13.3235 12.2626 13.3235 11.9697 13.0306L9.5 10.5609L6.53033 13.5306C6.23744 13.8235 5.76256 13.8235 5.46967 13.5306C5.17678 13.2377 5.17678 12.7628 5.46967 12.4699L8.96967 8.96991C9.26256 8.67702 9.73744 8.67702 10.0303 8.96991L12.5 11.4396L15.4697 8.46991C15.7626 8.17702 16.2374 8.17702 16.5303 8.46991Z" fill="#353566"/>
<path d="M16.1949 18.0391C16.4907 17.7492 16.4955 17.2743 16.2056 16.9785C15.9157 16.6826 15.4408 16.6778 15.145 16.9678L13.3117 18.7644C13.1696 18.9037 13.0886 19.0937 13.0866 19.2926C13.0847 19.4915 13.1618 19.6831 13.301 19.8251L15.1343 21.6951C15.4243 21.9909 15.8992 21.9956 16.195 21.7056C16.4907 21.4157 16.4954 20.9408 16.2055 20.645L14.8973 19.3107L16.1949 18.0391Z" fill="#353566"/>
<path d="M20.634 16.9787C20.9238 16.6828 21.3986 16.6777 21.6946 16.9675L23.5279 18.7623C23.6701 18.9015 23.7511 19.0914 23.7532 19.2904C23.7553 19.4893 23.6783 19.6809 23.5391 19.823L21.7057 21.6949C21.4159 21.9908 20.9411 21.9957 20.6451 21.7059C20.3492 21.4161 20.3443 20.9412 20.6341 20.6453L21.9425 19.3094L20.6452 18.0393C20.3493 17.7496 20.3442 17.2747 20.634 16.9787Z" fill="#353566"/>
<path d="M20.0642 15.852C20.1647 15.4502 19.9204 15.043 19.5185 14.9425C19.1167 14.842 18.7095 15.0864 18.609 15.4882L16.7757 22.8215C16.6752 23.2234 16.9195 23.6306 17.3214 23.731C17.7232 23.8315 18.1304 23.5872 18.2309 23.1853L20.0642 15.852Z" fill="#353566"/>
</g>
<defs>
<clipPath id="clip0_9001_273016">
<rect width="24" height="24" fill="white"/>
</clipPath>
</defs>
</svg>
