<svg width="24" height="24" viewBox="0 0 24 24" fill="none" xmlns="http://www.w3.org/2000/svg">
<path d="M8.367 0.25H15.633C16.7251 0.249995 17.5906 0.24999 18.2883 0.306988C19.0017 0.365274 19.6053 0.486882 20.1565 0.76772C21.0502 1.22312 21.7769 1.94978 22.2323 2.84355C22.5131 3.39472 22.6347 3.99835 22.693 4.71173C22.75 5.40935 22.75 6.27484 22.75 7.36698V11.7446C22.75 12.1589 22.4142 12.4946 22 12.4946C21.5858 12.4946 21.25 12.1589 21.25 11.7446V7.4C21.25 6.26752 21.2494 5.46326 21.198 4.83388C21.1473 4.21325 21.0509 3.829 20.8958 3.52453C20.5842 2.913 20.087 2.41582 19.4755 2.10423C19.171 1.94909 18.7867 1.85271 18.1661 1.80201C17.5367 1.75058 16.7325 1.75 15.6 1.75H8.4C7.26752 1.75 6.46326 1.75058 5.83388 1.80201C5.21325 1.85271 4.829 1.94909 4.52453 2.10423C3.913 2.41582 3.41582 2.913 3.10423 3.52453C2.94909 3.829 2.85271 4.21325 2.80201 4.83388C2.75058 5.46326 2.75 6.26752 2.75 7.4V14.6C2.75 15.7325 2.75058 16.5367 2.80201 17.1661C2.85271 17.7867 2.94909 18.171 3.10423 18.4755C3.41582 19.087 3.913 19.5842 4.52453 19.8958C4.829 20.0509 5.21325 20.1473 5.83388 20.198C6.46326 20.2494 7.26752 20.25 8.4 20.25L14.7674 20.25C15.1816 20.2498 15.5175 20.5854 15.5177 20.9997C15.5178 21.4139 15.1822 21.7498 14.768 21.75L8.36698 21.75C7.27485 21.75 6.40935 21.75 5.71173 21.693C4.99835 21.6347 4.39472 21.5131 3.84355 21.2323C2.94978 20.7769 2.22312 20.0502 1.76772 19.1565C1.48688 18.6053 1.36527 18.0017 1.30699 17.2883C1.24999 16.5906 1.24999 15.7252 1.25 14.633V7.367C1.24999 6.27486 1.24999 5.40935 1.30699 4.71173C1.36527 3.99835 1.48688 3.39472 1.76772 2.84355C2.22312 1.94978 2.94978 1.22312 3.84355 0.76772C4.39472 0.486882 4.99835 0.365274 5.71173 0.306988C6.40935 0.24999 7.27486 0.249995 8.367 0.25Z" fill="#353566"/>
<path d="M12 6.25C12.4142 6.25 12.75 6.58579 12.75 7V15C12.75 15.4142 12.4142 15.75 12 15.75C11.5858 15.75 11.25 15.4142 11.25 15V7C11.25 6.58579 11.5858 6.25 12 6.25Z" fill="#353566"/>
<path d="M15.5 8.25C15.9142 8.25 16.25 8.58579 16.25 9V14.2339C16.25 14.6481 15.9142 14.9839 15.5 14.9839C15.0858 14.9839 14.75 14.6481 14.75 14.2339V9C14.75 8.58579 15.0858 8.25 15.5 8.25Z" fill="#353566"/>
<path d="M8.5 11.25C8.91421 11.25 9.25 11.5858 9.25 12V15C9.25 15.4142 8.91421 15.75 8.5 15.75C8.08579 15.75 7.75 15.4142 7.75 15V12C7.75 11.5858 8.08579 11.25 8.5 11.25Z" fill="#353566"/>
<path d="M20.6418 13.7668C20.6418 13.3526 20.306 13.0168 19.8918 13.0168C19.4776 13.0168 19.1418 13.3526 19.1418 13.7668V14.222C18.6362 14.3057 18.1728 14.4799 17.7904 14.7568C17.2028 15.1824 16.8501 15.8241 16.8501 16.5917C16.8501 17.5836 17.403 18.2056 18.0359 18.5599C18.6214 18.8877 19.3149 19.0144 19.7685 19.09C20.2316 19.1671 20.6839 19.2639 21.0151 19.4493C21.2988 19.6081 21.4335 19.7889 21.4335 20.1086C21.4335 20.3755 21.3278 20.5734 21.1133 20.7287C20.8765 20.9002 20.4728 21.0377 19.8918 21.0377C19.4929 21.0377 19.2505 20.995 19.0225 20.9046C18.777 20.8072 18.4995 20.6355 18.0529 20.2973C17.7227 20.0472 17.2523 20.1122 17.0022 20.4425C16.7522 20.7727 16.8172 21.2431 17.1474 21.4931C17.6174 21.8491 18.0275 22.1236 18.4694 22.2989C18.6936 22.3878 18.9144 22.4468 19.1418 22.4839V22.9335C19.1418 23.3477 19.4776 23.6835 19.8918 23.6835C20.306 23.6835 20.6418 23.3477 20.6418 22.9335V22.4783C21.1474 22.3946 21.6108 22.2204 21.9932 21.9435C22.5809 21.5179 22.9335 20.8762 22.9335 20.1086C22.9335 19.1167 22.3806 18.4947 21.7477 18.1404C21.1622 17.8126 20.4687 17.686 20.0151 17.6104C19.552 17.5332 19.0997 17.4364 18.7686 17.2511C18.4848 17.0922 18.3501 16.9114 18.3501 16.5917C18.3501 16.3248 18.4559 16.127 18.6703 15.9717C18.9072 15.8001 19.3108 15.6627 19.8918 15.6627C20.2908 15.6627 20.5331 15.7053 20.7611 15.7957C21.0066 15.8931 21.2841 16.0648 21.7307 16.403C22.061 16.653 22.5314 16.5881 22.7814 16.2578C23.0315 15.9276 22.9665 15.4572 22.6362 15.2071C22.1662 14.8512 21.7561 14.5767 21.3142 14.4014C21.09 14.3125 20.8692 14.2535 20.6418 14.2164V13.7668Z" fill="#353566"/>
</svg>
