<svg width="24" height="24" viewBox="0 0 24 24" fill="none" xmlns="http://www.w3.org/2000/svg">
<g clip-path="url(#clip0_9001_273066)">
<path d="M14.633 0.25H7.367C6.27486 0.249995 5.40935 0.24999 4.71173 0.306988C3.99835 0.365274 3.39472 0.486882 2.84355 0.76772C1.94978 1.22312 1.22312 1.94978 0.76772 2.84355C0.486882 3.39472 0.365274 3.99835 0.306988 4.71173C0.24999 5.40935 0.249995 6.27485 0.25 7.36699V14.633C0.249995 15.7251 0.24999 16.5906 0.306988 17.2883C0.365274 18.0017 0.486882 18.6053 0.76772 19.1565C1.22312 20.0502 1.94978 20.7769 2.84355 21.2323C3.39472 21.5131 3.99835 21.6347 4.71173 21.693C5.40935 21.75 6.27485 21.75 7.36698 21.75H11.3208C11.735 21.75 12.0708 21.4142 12.0708 21C12.0708 20.5858 11.735 20.25 11.3208 20.25H7.4C6.26752 20.25 5.46326 20.2494 4.83388 20.198C4.21325 20.1473 3.829 20.0509 3.52453 19.8958C2.913 19.5842 2.41582 19.087 2.10423 18.4755C1.94909 18.171 1.85271 17.7867 1.80201 17.1661C1.75058 16.5367 1.75 15.7325 1.75 14.6V7.4C1.75 6.26752 1.75058 5.46326 1.80201 4.83388C1.85271 4.21325 1.94909 3.829 2.10423 3.52453C2.41582 2.913 2.913 2.41582 3.52453 2.10423C3.829 1.94909 4.21325 1.85271 4.83388 1.80201C5.46326 1.75058 6.26752 1.75 7.4 1.75H14.6C15.7325 1.75 16.5367 1.75058 17.1661 1.80201C17.7867 1.85271 18.171 1.94909 18.4755 2.10423C19.087 2.41582 19.5842 2.913 19.8958 3.52453C20.0509 3.829 20.1473 4.21325 20.198 4.83388C20.2494 5.46326 20.25 6.26752 20.25 7.4V11.3208C20.25 11.735 20.5858 12.0708 21 12.0708C21.4142 12.0708 21.75 11.735 21.75 11.3208V7.36698C21.75 6.27484 21.75 5.40935 21.693 4.71173C21.6347 3.99835 21.5131 3.39472 21.2323 2.84355C20.7769 1.94978 20.0502 1.22312 19.1565 0.76772C18.6053 0.486882 18.0017 0.365274 17.2883 0.306988C16.5906 0.24999 15.7251 0.249995 14.633 0.25Z" fill="#353566"/>
<path d="M11.75 7C11.75 6.58579 11.4142 6.25 11 6.25C10.5858 6.25 10.25 6.58579 10.25 7V15C10.25 15.4142 10.5858 15.75 11 15.75C11.4142 15.75 11.75 15.4142 11.75 15V7Z" fill="#353566"/>
<path d="M15.25 9C15.25 8.58579 14.9142 8.25 14.5 8.25C14.0858 8.25 13.75 8.58579 13.75 9V12.0366C13.75 12.4508 14.0858 12.7866 14.5 12.7866C14.9142 12.7866 15.25 12.4508 15.25 12.0366V9Z" fill="#353566"/>
<path d="M8.25 12C8.25 11.5858 7.91421 11.25 7.5 11.25C7.08579 11.25 6.75 11.5858 6.75 12V15C6.75 15.4142 7.08579 15.75 7.5 15.75C7.91421 15.75 8.25 15.4142 8.25 15V12Z" fill="#353566"/>
<path d="M20.2532 19.0449C20.5984 19.0449 20.8782 18.7651 20.8782 18.4199C20.8782 18.0747 20.5984 17.7949 20.2532 17.7949H16.5865C16.2413 17.7949 15.9615 18.0747 15.9615 18.4199C15.9615 18.7651 16.2413 19.0449 16.5865 19.0449H20.2532Z" fill="#353566"/>
<path fill-rule="evenodd" clip-rule="evenodd" d="M13.0865 18.42C13.0865 15.4745 15.4744 13.0867 18.4199 13.0867C21.3654 13.0867 23.7532 15.4745 23.7532 18.42C23.7532 21.3655 21.3654 23.7533 18.4199 23.7533C15.4744 23.7533 13.0865 21.3655 13.0865 18.42ZM18.4199 14.5867C16.3028 14.5867 14.5865 16.3029 14.5865 18.42C14.5865 20.5371 16.3028 22.2533 18.4199 22.2533C20.537 22.2533 22.2532 20.5371 22.2532 18.42C22.2532 16.3029 20.537 14.5867 18.4199 14.5867Z" fill="#353566"/>
</g>
<defs>
<clipPath id="clip0_9001_273066">
<rect width="24" height="24" fill="white"/>
</clipPath>
</defs>
</svg>
