<svg width="24" height="24" viewBox="0 0 24 24" fill="none" xmlns="http://www.w3.org/2000/svg">
<path fill-rule="evenodd" clip-rule="evenodd" d="M13.9 1.5C14.6378 1.50121 15.2393 1.50848 15.7395 1.54935C16.3541 1.59956 16.8594 1.70334 17.316 1.93597C18.0686 2.31947 18.6805 2.93139 19.064 3.68404C19.2967 4.14062 19.4004 4.64594 19.4507 5.26049C19.5 5.86451 19.5 6.61646 19.5 7.57754V9.06189C19.5 9.33804 19.2761 9.56189 19 9.56189C18.7239 9.56189 18.5 9.33804 18.5 9.06189V7.6C18.5 6.61166 18.4996 5.90047 18.454 5.34192C18.4088 4.78921 18.3219 4.43014 18.173 4.13803C17.8854 3.57354 17.4265 3.1146 16.862 2.82698C16.5699 2.67814 16.2108 2.59118 15.6581 2.54602C15.1985 2.50848 14.6356 2.50156 13.9 2.50029V9.39201C13.9 10.2531 12.8841 10.7116 12.2384 10.1418L9.99998 8.16681L7.76162 10.1418C7.11592 10.7116 6.1 10.2531 6.1 9.39201L6.09998 2.50029C5.36439 2.50156 4.80149 2.50848 4.34192 2.54602C3.78921 2.59118 3.43014 2.67814 3.13803 2.82698C2.57354 3.1146 2.1146 3.57354 1.82698 4.13803C1.67814 4.43014 1.59118 4.78921 1.54602 5.34192C1.50039 5.90047 1.5 6.61166 1.5 7.6V14.4C1.5 15.3883 1.50039 16.0995 1.54602 16.6581C1.59118 17.2108 1.67814 17.5699 1.82698 17.862C2.1146 18.4265 2.57354 18.8854 3.13803 19.173C3.43014 19.3219 3.78921 19.4088 4.34192 19.454C4.90047 19.4996 5.61166 19.5 6.6 19.5H10.5815C10.8577 19.5 11.0815 19.7239 11.0815 20C11.0815 20.2761 10.8577 20.5 10.5815 20.5H6.57754C5.61646 20.5 4.86451 20.5 4.26049 20.4507C3.64594 20.4004 3.14062 20.2967 2.68404 20.064C1.93139 19.6805 1.31947 19.0686 0.935974 18.316C0.703335 17.8594 0.599556 17.3541 0.549345 16.7395C0.499995 16.1355 0.499997 15.3835 0.5 14.4225V7.57756C0.499997 6.61647 0.499995 5.86451 0.549345 5.26049C0.599556 4.64594 0.703335 4.14062 0.935974 3.68404C1.31947 2.93139 1.93139 2.31947 2.68404 1.93597C3.14062 1.70334 3.64594 1.59956 4.26049 1.54935C4.76064 1.50848 5.36222 1.50146 6.09998 1.50025L13.9 1.5ZM7.1 9.39201L7.09998 2.5H12.9V9.39201L10.6616 7.41697C10.2836 7.08342 9.71638 7.08342 9.33835 7.41698L7.1 9.39201Z" fill="#353566"/>
<path d="M8.5 15.5C8.5 15.7761 8.27614 16 8 16H5.50003C5.22389 16 5.00003 15.7761 5.00003 15.5C5.00003 15.2239 5.22389 15 5.50003 15H8C8.27614 15 8.5 15.2239 8.5 15.5Z" fill="#353566"/>
<path d="M16.3536 19.3536L20.3536 15.3536C20.5488 15.1583 20.5488 14.8417 20.3536 14.6464C20.1583 14.4512 19.8417 14.4512 19.6464 14.6464L15.6464 18.6464C15.4512 18.8417 15.4512 19.1583 15.6464 19.3536C15.8417 19.5488 16.1583 19.5488 16.3536 19.3536Z" fill="#353566"/>
<path d="M15.75 15.5C15.75 15.0858 16.0858 14.75 16.5 14.75C16.9142 14.75 17.2501 15.0858 17.2501 15.5C17.2501 15.9142 16.9143 16.25 16.5001 16.25C16.0859 16.25 15.75 15.9142 15.75 15.5Z" fill="#353566"/>
<path d="M19.5 17.75C19.0858 17.75 18.75 18.0858 18.75 18.5C18.75 18.9142 19.0858 19.25 19.5 19.25C19.9142 19.25 20.2501 18.9142 20.2501 18.5C20.2501 18.0858 19.9142 17.75 19.5 17.75Z" fill="#353566"/>
<path fill-rule="evenodd" clip-rule="evenodd" d="M12.5 17C12.5 13.9624 14.9624 11.5 18 11.5C21.0376 11.5 23.5 13.9624 23.5 17C23.5 20.0376 21.0376 22.5 18 22.5C14.9624 22.5 12.5 20.0376 12.5 17ZM18 12.5C15.5147 12.5 13.5 14.5147 13.5 17C13.5 19.4853 15.5147 21.5 18 21.5C20.4853 21.5 22.5 19.4853 22.5 17C22.5 14.5147 20.4853 12.5 18 12.5Z" fill="#353566"/>
</svg>
