<svg width="24" height="24" viewBox="0 0 24 24" fill="none" xmlns="http://www.w3.org/2000/svg">
<path d="M6 11.25C5.58579 11.25 5.25 11.5858 5.25 12C5.25 12.4142 5.58579 12.75 6 12.75C6.41421 12.75 6.7501 12.4142 6.7501 12C6.7501 11.5858 6.41421 11.25 6 11.25Z" fill="#353566"/>
<path d="M11.25 12C11.25 11.5858 11.5858 11.25 12 11.25C12.4142 11.25 12.7501 11.5858 12.7501 12C12.7501 12.4142 12.4143 12.75 12.0001 12.75C11.5859 12.75 11.25 12.4142 11.25 12Z" fill="#353566"/>
<path d="M18 11.25C17.5858 11.25 17.25 11.5858 17.25 12C17.25 12.4142 17.5858 12.75 18 12.75C18.4142 12.75 18.7501 12.4142 18.7501 12C18.7501 11.5858 18.4142 11.25 18 11.25Z" fill="#353566"/>
<path fill-rule="evenodd" clip-rule="evenodd" d="M6 6.5C2.96243 6.5 0.5 8.96243 0.5 12C0.5 15.0376 2.96243 17.5 6 17.5H18C21.0376 17.5 23.5 15.0376 23.5 12C23.5 8.96243 21.0376 6.5 18 6.5H6ZM1.5 12C1.5 9.51472 3.51472 7.5 6 7.5H18C20.4853 7.5 22.5 9.51472 22.5 12C22.5 14.4853 20.4853 16.5 18 16.5H6C3.51472 16.5 1.5 14.4853 1.5 12Z" fill="#353566"/>
</svg>
