<svg width="24" height="24" viewBox="0 0 24 24" fill="none" xmlns="http://www.w3.org/2000/svg">
<path fill-rule="evenodd" clip-rule="evenodd" d="M0.5 2C0.5 1.72386 0.723858 1.5 1 1.5L2.44796 1.5C3.41854 1.5 4.24903 2.19686 4.41758 3.1527L6.87172 17.0705C7.8089 17.2871 8.56274 17.9827 8.86144 18.8855L22.9143 16.4076C23.1863 16.3596 23.4456 16.5412 23.4935 16.8132C23.5415 17.0851 23.3599 17.3445 23.088 17.3924L8.99716 19.877C8.93077 21.3368 7.72624 22.4999 6.25005 22.4999C4.73126 22.4999 3.50005 21.2687 3.50005 19.7499C3.50005 18.3674 4.52029 17.2231 5.84897 17.029L3.43277 3.32635C3.3485 2.84843 2.93325 2.5 2.44796 2.5H1C0.723858 2.5 0.5 2.27614 0.5 2ZM4.50005 19.7499C4.50005 20.7164 5.28355 21.4999 6.25005 21.4999C7.21655 21.4999 8.00005 20.7164 8.00005 19.7499C8.00005 18.7834 7.21655 17.9999 6.25005 17.9999C5.28355 17.9999 4.50005 18.7834 4.50005 19.7499Z" fill="#353566"/>
</svg>
