<svg width="24" height="24" viewBox="0 0 24 24" fill="none" xmlns="http://www.w3.org/2000/svg">
<g clip-path="url(#clip0_9001_291273)">
<path fill-rule="evenodd" clip-rule="evenodd" d="M11.0058 0.500033L15.1197 0.500016C15.9285 0.499793 16.4567 0.499647 16.9331 0.663997C17.3535 0.808994 17.7364 1.04563 18.0541 1.35678C18.4142 1.70946 18.6502 2.18188 19.0118 2.90545L21.2068 7.29558C21.2889 7.45961 21.351 7.58366 21.3956 7.71637C21.4351 7.83363 21.4635 7.95431 21.4807 8.07684C21.5001 8.2155 21.5001 8.35422 21.5 8.53763L21.5 10.5816C21.5 10.8577 21.2762 11.0816 21 11.0816C20.7239 11.0816 20.5 10.8577 20.5 10.5816L20.5 8.5H1.50006L1.50001 16.2C1.50001 17.0484 1.5004 17.6545 1.53922 18.1297C1.57757 18.599 1.6509 18.8964 1.77249 19.135C2.01218 19.6054 2.39463 19.9879 2.86503 20.2275C3.10367 20.3491 3.401 20.4225 3.87033 20.4608C4.34551 20.4996 4.95168 20.5 5.80001 20.5H10.5815C10.8577 20.5 11.0815 20.7239 11.0815 21C11.0815 21.2762 10.8577 21.5 10.5815 21.5H5.77779C4.95653 21.5 4.30955 21.5 3.7889 21.4575C3.25772 21.4141 2.81415 21.3239 2.41104 21.1186C1.75248 20.783 1.21704 20.2476 0.881488 19.589C0.676097 19.1859 0.585942 18.7423 0.542544 18.2111C0.500004 17.6905 0.500007 17.0435 0.50001 16.2222L0.500005 8.53762C0.499954 8.35422 0.499915 8.2155 0.519327 8.07684C0.536481 7.95431 0.564969 7.83363 0.604424 7.71636C0.64907 7.58367 0.711143 7.45961 0.79321 7.29559L2.98826 2.90545C3.3498 2.18189 3.58585 1.70946 3.94594 1.35678C4.26362 1.04563 4.64651 0.808994 5.06688 0.663997C5.54337 0.499647 6.07148 0.499793 6.88034 0.500016L10.9942 0.500033L11 0.5L11.0058 0.500033ZM11.5 7.5H20.191L18.1584 3.43479C17.7408 2.59971 17.5796 2.29177 17.3544 2.0712C17.1426 1.86376 16.8873 1.70601 16.6071 1.60934C16.3091 1.50656 15.9615 1.50003 15.0279 1.50003H11.5V7.5ZM10.5 1.50003V7.5H1.80904L3.84165 3.43479C4.25919 2.59971 4.42045 2.29177 4.64566 2.0712C4.85745 1.86376 5.1127 1.70601 5.39295 1.60934C5.69095 1.50656 6.0385 1.50003 6.97215 1.50003H10.5Z" fill="#353566"/>
<path d="M8 16.5C8.27614 16.5 8.5 16.2761 8.5 16C8.5 15.7239 8.27614 15.5 8 15.5H5C4.72386 15.5 4.5 15.7239 4.5 16C4.5 16.2761 4.72386 16.5 5 16.5H8Z" fill="#353566"/>
<path d="M16.3536 20.3536L20.3536 16.3536C20.5488 16.1583 20.5488 15.8417 20.3536 15.6464C20.1583 15.4512 19.8417 15.4512 19.6464 15.6464L15.6464 19.6464C15.4512 19.8417 15.4512 20.1583 15.6464 20.3536C15.8417 20.5488 16.1583 20.5488 16.3536 20.3536Z" fill="#353566"/>
<path d="M15.75 16.5C15.75 16.0858 16.0858 15.75 16.5 15.75C16.9142 15.75 17.2501 16.0858 17.2501 16.5C17.2501 16.9142 16.9143 17.25 16.5001 17.25C16.0859 17.25 15.75 16.9142 15.75 16.5Z" fill="#353566"/>
<path d="M19.5 18.75C19.0858 18.75 18.75 19.0858 18.75 19.5C18.75 19.9142 19.0858 20.25 19.5 20.25C19.9142 20.25 20.2501 19.9142 20.2501 19.5C20.2501 19.0858 19.9142 18.75 19.5 18.75Z" fill="#353566"/>
<path fill-rule="evenodd" clip-rule="evenodd" d="M12.5 18C12.5 14.9624 14.9624 12.5 18 12.5C21.0376 12.5 23.5 14.9624 23.5 18C23.5 21.0376 21.0376 23.5 18 23.5C14.9624 23.5 12.5 21.0376 12.5 18ZM18 13.5C15.5147 13.5 13.5 15.5147 13.5 18C13.5 20.4853 15.5147 22.5 18 22.5C20.4853 22.5 22.5 20.4853 22.5 18C22.5 15.5147 20.4853 13.5 18 13.5Z" fill="#353566"/>
</g>
<defs>
<clipPath id="clip0_9001_291273">
<rect width="24" height="24" fill="white"/>
</clipPath>
</defs>
</svg>
