<svg width="24" height="24" viewBox="0 0 24 24" fill="none" xmlns="http://www.w3.org/2000/svg">
<g clip-path="url(#clip0_9001_291283)">
<path fill-rule="evenodd" clip-rule="evenodd" d="M11.0058 0.500033L11 0.5L10.9942 0.500033L6.88034 0.500016C6.07148 0.499793 5.54337 0.499647 5.06688 0.663997C4.64651 0.808994 4.26362 1.04563 3.94594 1.35678C3.58585 1.70946 3.3498 2.18188 2.98828 2.90543L0.793209 7.29559C0.711147 7.4596 0.649068 7.58367 0.604423 7.71636C0.564968 7.83363 0.536481 7.95431 0.519327 8.07684C0.499916 8.2155 0.499954 8.35422 0.500005 8.53762L0.500009 16.2222C0.500007 17.0434 0.500005 17.6905 0.542543 18.2111C0.585943 18.7423 0.676097 19.1859 0.881486 19.589C1.21704 20.2476 1.75248 20.783 2.41104 21.1186C2.81415 21.3239 3.25772 21.4141 3.7889 21.4575C4.30955 21.5 4.95653 21.5 5.77779 21.5H10.5815C10.8577 21.5 11.0815 21.2762 11.0815 21C11.0815 20.7239 10.8577 20.5 10.5815 20.5H5.80001C4.95168 20.5 4.3455 20.4996 3.87033 20.4608C3.401 20.4225 3.10367 20.3491 2.86503 20.2275C2.39463 19.9879 2.01218 19.6054 1.77249 19.135C1.6509 18.8964 1.57757 18.599 1.53922 18.1297C1.5004 17.6545 1.50001 17.0484 1.50001 16.2L1.50006 8.5H20.5L20.5 10.5816C20.5 10.8577 20.7239 11.0816 21 11.0816C21.2762 11.0816 21.5 10.8577 21.5 10.5816L21.5 8.53763C21.5001 8.35422 21.5001 8.2155 21.4807 8.07684C21.4635 7.95431 21.4351 7.83363 21.3956 7.71637C21.351 7.58366 21.2889 7.45961 21.2068 7.29558L19.0118 2.90545C18.6502 2.18188 18.4142 1.70946 18.0541 1.35678C17.7364 1.04563 17.3535 0.808994 16.9331 0.663997C16.4567 0.499647 15.9285 0.499793 15.1197 0.500016L11.0058 0.500033ZM15.0279 1.50003H11.5V7.5H20.191L18.1584 3.43479C17.7408 2.59971 17.5796 2.29177 17.3544 2.0712C17.1426 1.86376 16.8873 1.70601 16.6071 1.60934C16.3091 1.50656 15.9615 1.50003 15.0279 1.50003ZM10.5 1.50003V7.5H1.80904L3.84165 3.43479C4.25919 2.59971 4.42046 2.29177 4.64566 2.0712C4.85745 1.86376 5.1127 1.70601 5.39295 1.60934C5.69095 1.50656 6.03851 1.50003 6.97215 1.50003H10.5Z" fill="#353566"/>
<path d="M8.5 16C8.5 16.2761 8.27614 16.5 8 16.5H5C4.72386 16.5 4.5 16.2761 4.5 16C4.5 15.7239 4.72386 15.5 5 15.5H8C8.27614 15.5 8.5 15.7239 8.5 16Z" fill="#353566"/>
<path fill-rule="evenodd" clip-rule="evenodd" d="M23.5 18C23.5 14.9624 21.0376 12.5 18 12.5C14.9624 12.5 12.5 14.9624 12.5 18C12.5 21.0376 14.9624 23.5 18 23.5C21.0376 23.5 23.5 21.0376 23.5 18ZM18 13.5C20.4853 13.5 22.5 15.5147 22.5 18C22.5 19.0625 22.1318 20.039 21.5159 20.8088L15.1912 14.484C15.961 13.8682 16.9375 13.5 18 13.5ZM18 22.5C19.0625 22.5 20.039 22.1318 20.8088 21.5159L14.484 15.1912C13.8682 15.961 13.5 16.9375 13.5 18C13.5 20.4853 15.5147 22.5 18 22.5Z" fill="#353566"/>
</g>
<defs>
<clipPath id="clip0_9001_291283">
<rect width="24" height="24" fill="white"/>
</clipPath>
</defs>
</svg>
