<svg width="24" height="24" viewBox="0 0 24 24" fill="none" xmlns="http://www.w3.org/2000/svg">
<path d="M9.16075 2.19891C8.35407 1.3228 6.99236 1.25957 6.10796 2.05716L5.28236 2.80171C4.89951 3.14699 4.3128 3.13006 3.95049 2.76329C3.05104 1.85277 1.5 2.48969 1.5 3.76955V20.2407C1.5 21.5206 3.05109 22.1575 3.95052 21.2469C4.31282 20.8801 4.89954 20.8632 5.2824 21.2084L6.09762 21.9436C6.98698 22.7457 8.3588 22.6724 9.1576 21.7801L9.26455 21.6606C9.66504 21.2133 10.2954 21.1056 10.8065 21.3422C11.0571 21.4581 11.3543 21.349 11.4703 21.0984C11.5863 20.8478 11.4771 20.5506 11.2265 20.4346C10.3325 20.0209 9.22488 20.2057 8.5195 20.9936L8.41255 21.1131C7.98307 21.5928 7.24551 21.6323 6.76734 21.201L5.95212 20.4658C5.17223 19.7625 3.97708 19.797 3.23907 20.5442C2.96781 20.8188 2.5 20.6267 2.5 20.2407V3.76955C2.5 3.38354 2.9678 3.19145 3.23907 3.46606C3.9771 4.21316 5.17221 4.24764 5.95208 3.54433L6.77768 2.79978C7.25494 2.36936 7.98978 2.40348 8.4251 2.87627L8.53328 2.99376C9.45762 3.99765 11.0424 3.99765 11.9667 2.99376L12.0749 2.87627C12.5102 2.40348 13.2451 2.36936 13.7223 2.79978L14.5479 3.54433C15.3278 4.24764 16.5229 4.21316 17.2609 3.46606C17.5322 3.19145 18 3.38354 18 3.76955V9.02415C18 9.30029 18.2239 9.52415 18.5 9.52415C18.7761 9.52415 19 9.30029 19 9.02415V3.76955C19 2.48969 17.449 1.85277 16.5495 2.76329C16.1872 3.13006 15.6005 3.14699 15.2176 2.80171L14.392 2.05716C13.5076 1.25957 12.1459 1.3228 11.3392 2.19891L11.2311 2.3164C10.7028 2.8901 9.79717 2.8901 9.26893 2.3164L9.16075 2.19891Z" fill="#353566"/>
<path d="M8.25 8C7.97386 8 7.75 8.22386 7.75 8.5C7.75 8.77614 7.97386 9 8.25 9H12.25C12.5261 9 12.75 8.77614 12.75 8.5C12.75 8.22386 12.5261 8 12.25 8H8.25Z" fill="#353566"/>
<path d="M6.25 11.5C5.97386 11.5 5.75 11.7239 5.75 12C5.75 12.2761 5.97386 12.5 6.25 12.5H13.3874C13.6636 12.5 13.8874 12.2761 13.8874 12C13.8874 11.7239 13.6636 11.5 13.3874 11.5H6.25Z" fill="#353566"/>
<path d="M7.25 15C6.97386 15 6.75 15.2239 6.75 15.5C6.75 15.7761 6.97386 16 7.25 16H11.5775C11.8537 16 12.0775 15.7761 12.0775 15.5C12.0775 15.2239 11.8537 15 11.5775 15H7.25Z" fill="#353566"/>
<path fill-rule="evenodd" clip-rule="evenodd" d="M15.25 14C15.25 12.5656 16.5382 11.5 18 11.5C19.4618 11.5 20.75 12.5656 20.75 14V15.25C21.7165 15.25 22.5 16.0335 22.5 17V20.75C22.5 21.7165 21.7165 22.5 20.75 22.5H15.25C14.2835 22.5 13.5 21.7165 13.5 20.75V17C13.5 16.0335 14.2835 15.25 15.25 15.25V14ZM16.25 15.25H19.75V14C19.75 13.2253 19.0235 12.5 18 12.5C16.9765 12.5 16.25 13.2253 16.25 14V15.25ZM15.25 16.25C14.8358 16.25 14.5 16.5858 14.5 17V20.75C14.5 21.1642 14.8358 21.5 15.25 21.5H20.75C21.1642 21.5 21.5 21.1642 21.5 20.75V17C21.5 16.5858 21.1642 16.25 20.75 16.25H15.25Z" fill="#353566"/>
</svg>
