<svg width="24" height="24" viewBox="0 0 24 24" fill="none" xmlns="http://www.w3.org/2000/svg">
<g clip-path="url(#clip0_9001_289443)">
<path fill-rule="evenodd" clip-rule="evenodd" d="M4.80337 0.500027H17.1966C17.9015 0.499715 18.3868 0.4995 18.8098 0.656835C19.293 0.836522 19.7089 1.16119 20.0004 1.58637C20.2556 1.95866 20.3731 2.42947 20.5437 3.11338L21.2425 5.90865C21.4135 6.59264 21.5 7.29502 21.5 8.00006C21.5 9.01892 20.8955 10.0293 19.9878 10.5784C19.9375 10.8014 19.7382 10.968 19.5 10.968C19.4074 10.968 19.3207 10.9428 19.2464 10.899C19.0082 10.9646 18.7583 11.0001 18.5 11.0001C17.509 11.0001 16.5566 10.5811 16 9.89117C15.4434 10.5811 14.491 11.0001 13.5 11.0001C12.509 11.0001 11.5566 10.5811 11 9.89117C10.4434 10.5811 9.49097 11.0001 8.5 11.0001C7.50903 11.0001 6.55661 10.5811 6 9.89117C5.44339 10.5811 4.49097 11.0001 3.5 11.0001C3.32938 11.0001 3.16237 10.9846 3 10.9551V16.6C3 17.3783 3.00039 17.932 3.03581 18.3655C3.07075 18.7931 3.13727 19.0596 3.24524 19.2715C3.46095 19.6948 3.80516 20.039 4.22852 20.2548C4.44042 20.3627 4.70687 20.4292 5.13452 20.4642C5.56801 20.4996 6.12168 20.5 6.9 20.5H8V16.0808C7.99999 15.8172 7.99998 15.5898 8.01528 15.4025C8.03144 15.2048 8.06709 15.0082 8.16349 14.819C8.3073 14.5368 8.53677 14.3073 8.81901 14.1635C9.0082 14.0671 9.20481 14.0315 9.40249 14.0153C9.58977 14 9.81715 14 10.0807 14H11.6713C11.9475 14 12.1713 14.2239 12.1713 14.5C12.1713 14.7762 11.9475 15 11.6713 15H10.1C9.81172 15 9.62559 15.0004 9.48392 15.012C9.34809 15.0231 9.29773 15.0419 9.273 15.0545C9.17892 15.1025 9.10243 15.179 9.0545 15.273C9.0419 15.2978 9.02306 15.3481 9.01196 15.4839C9.00039 15.6256 9 15.8118 9 16.1V20.5H11.1458C11.4219 20.5 11.6458 20.7239 11.6458 21C11.6458 21.2761 11.4219 21.5 11.1458 21.5H8.50608L8.5 21.5L8.49392 21.5H6.87793C6.12655 21.5 5.53206 21.5 5.05309 21.4609C4.5636 21.4209 4.15089 21.3375 3.77453 21.1458C3.163 20.8342 2.66582 20.337 2.35423 19.7255C2.16246 19.3491 2.07912 18.9364 2.03913 18.4469C1.99999 17.9679 2 17.3734 2 16.622L2 10.571C1.09912 10.0202 0.5 9.01434 0.5 8.00006C0.5 7.29502 0.586467 6.59264 0.757464 5.90865L1.45625 3.11337C1.62691 2.42946 1.74439 1.95866 1.99964 1.58637C2.29115 1.16119 2.70698 0.836522 3.19016 0.656835C3.61325 0.4995 4.09849 0.499715 4.80337 0.500027ZM6.5 8.50006C6.5 9.23013 7.28555 10.0001 8.5 10.0001C9.71445 10.0001 10.5 9.23013 10.5 8.50006C10.5 8.22391 10.7239 8.00006 11 8.00006C11.2761 8.00006 11.5 8.22391 11.5 8.50006C11.5 9.23013 12.2855 10.0001 13.5 10.0001C14.7145 10.0001 15.5 9.23013 15.5 8.50006C15.5 8.22391 15.7239 8.00006 16 8.00006C16.2761 8.00006 16.5 8.22391 16.5 8.50006C16.5 9.23013 17.2855 10.0001 18.5 10.0001C19.588 10.0001 20.5 8.99078 20.5 8.00006C20.5 7.37678 20.4236 6.75585 20.2724 6.15118L19.5971 3.44988C19.3933 2.63474 19.3158 2.3563 19.1756 2.15184C19.0007 1.89674 18.7512 1.70194 18.4613 1.59412C18.2289 1.50772 17.94 1.50006 17.0998 1.50006H4.90022C4.05999 1.50006 3.77107 1.50772 3.53872 1.59412C3.24881 1.70194 2.99931 1.89674 2.8244 2.15184C2.68422 2.3563 2.60672 2.63474 2.40293 3.44988L1.72761 6.15118C1.57644 6.75585 1.5 7.37678 1.5 8.00006C1.5 8.99078 2.412 10.0001 3.5 10.0001C4.71445 10.0001 5.5 9.23013 5.5 8.50006C5.5 8.22391 5.72386 8.00006 6 8.00006C6.27614 8.00006 6.5 8.22391 6.5 8.50006Z" fill="#353566"/>
<path fill-rule="evenodd" clip-rule="evenodd" d="M14.5 16C13.3954 16 12.5 16.8954 12.5 18C12.5 19.1046 13.3954 20 14.5 20C15.0174 20 15.4888 19.8036 15.8439 19.4812L19.509 21.3138C19.5034 21.3751 19.5005 21.4372 19.5005 21.5C19.5005 22.6046 20.3959 23.5 21.5005 23.5C22.6051 23.5 23.5005 22.6046 23.5005 21.5C23.5005 20.3954 22.6051 19.5 21.5005 19.5C20.8165 19.5 20.2126 19.8434 19.852 20.3672L16.3957 18.6391C16.4633 18.4384 16.5 18.2235 16.5 18C16.5 17.7765 16.4633 17.5616 16.3957 17.3609L19.852 15.6328C20.2126 16.1566 20.8165 16.5 21.5005 16.5C22.6051 16.5 23.5005 15.6046 23.5005 14.5C23.5005 13.3954 22.6051 12.5 21.5005 12.5C20.3959 12.5 19.5005 13.3954 19.5005 14.5C19.5005 14.5628 19.5034 14.6249 19.509 14.6862L15.8439 16.5188C15.4888 16.1964 15.0174 16 14.5 16ZM13.5 18C13.5 17.4477 13.9477 17 14.5 17C15.0523 17 15.5 17.4477 15.5 18C15.5 18.5523 15.0523 19 14.5 19C13.9477 19 13.5 18.5523 13.5 18ZM21.5005 13.5C20.9482 13.5 20.5005 13.9477 20.5005 14.5C20.5005 15.0523 20.9482 15.5 21.5005 15.5C22.0528 15.5 22.5005 15.0523 22.5005 14.5C22.5005 13.9477 22.0528 13.5 21.5005 13.5ZM20.5005 21.5C20.5005 20.9477 20.9482 20.5 21.5005 20.5C22.0528 20.5 22.5005 20.9477 22.5005 21.5C22.5005 22.0523 22.0528 22.5 21.5005 22.5C20.9482 22.5 20.5005 22.0523 20.5005 21.5Z" fill="#353566"/>
</g>
<defs>
<clipPath id="clip0_9001_289443">
<rect width="24" height="24" fill="white"/>
</clipPath>
</defs>
</svg>
