<svg width="24" height="24" viewBox="0 0 24 24" fill="none" xmlns="http://www.w3.org/2000/svg">
<g clip-path="url(#clip0_9001_289488)">
<path fill-rule="evenodd" clip-rule="evenodd" d="M4.80337 0.500027C4.09849 0.499715 3.61325 0.4995 3.19016 0.656835C2.70698 0.836522 2.29115 1.16119 1.99964 1.58637C1.74439 1.95866 1.62691 2.42946 1.45625 3.11337L0.757464 5.90865C0.586467 6.59264 0.5 7.29502 0.5 8.00006C0.5 9.01434 1.09912 10.0202 2 10.571L2 16.622C2 17.3734 1.99999 17.9679 2.03913 18.4469C2.07912 18.9364 2.16246 19.3491 2.35423 19.7255C2.66582 20.337 3.163 20.8342 3.77453 21.1458C4.15089 21.3375 4.5636 21.4209 5.05309 21.4609C5.53206 21.5 6.12655 21.5 6.87793 21.5H8.49392L8.5 21.5L8.50608 21.5H10.7923C11.0684 21.5 11.2923 21.2761 11.2923 21C11.2923 20.7239 11.0684 20.5 10.7923 20.5H9V16.1C9 15.8118 9.00039 15.6256 9.01196 15.4839C9.02306 15.3481 9.0419 15.2978 9.0545 15.273C9.10243 15.179 9.17892 15.1025 9.273 15.0545C9.29773 15.0419 9.34809 15.0231 9.48392 15.012C9.62559 15.0004 9.81172 15 10.1 15H11.0417C11.3178 15 11.5417 14.7762 11.5417 14.5C11.5417 14.2239 11.3178 14 11.0417 14H10.0807C9.81715 14 9.58977 14 9.40249 14.0153C9.20481 14.0315 9.0082 14.0671 8.81901 14.1635C8.53677 14.3073 8.3073 14.5368 8.16349 14.819C8.06709 15.0082 8.03144 15.2048 8.01528 15.4025C7.99998 15.5898 7.99999 15.8172 8 16.0808V20.5H6.9C6.12168 20.5 5.56801 20.4996 5.13452 20.4642C4.70687 20.4292 4.44042 20.3627 4.22852 20.2548C3.80516 20.039 3.46095 19.6948 3.24524 19.2715C3.13727 19.0596 3.07075 18.7931 3.03581 18.3655C3.00039 17.932 3 17.3783 3 16.6V10.9551C3.16237 10.9846 3.32938 11.0001 3.5 11.0001C4.49097 11.0001 5.44339 10.5811 6 9.89117C6.55661 10.5811 7.50903 11.0001 8.5 11.0001C9.49097 11.0001 10.4434 10.5811 11 9.89117C11.5566 10.5811 12.509 11.0001 13.5 11.0001C14.491 11.0001 15.4434 10.5811 16 9.89117C16.5566 10.5811 17.509 11.0001 18.5 11.0001C20.1734 11.0001 21.5 9.50933 21.5 8.00006C21.5 7.29502 21.4135 6.59264 21.2425 5.90865L20.5437 3.11338C20.3731 2.42947 20.2556 1.95866 20.0004 1.58637C19.7089 1.16119 19.293 0.836522 18.8098 0.656835C18.3868 0.4995 17.9015 0.499715 17.1966 0.500027H4.80337ZM8.5 10.0001C7.28555 10.0001 6.5 9.23013 6.5 8.50006C6.5 8.22391 6.27614 8.00006 6 8.00006C5.72386 8.00006 5.5 8.22391 5.5 8.50006C5.5 9.23013 4.71445 10.0001 3.5 10.0001C2.412 10.0001 1.5 8.99078 1.5 8.00006C1.5 7.37678 1.57644 6.75585 1.72761 6.15118L2.40293 3.44988C2.60672 2.63474 2.68422 2.3563 2.8244 2.15184C2.99931 1.89674 3.24881 1.70194 3.53872 1.59412C3.77107 1.50772 4.05999 1.50006 4.90022 1.50006H17.0998C17.94 1.50006 18.2289 1.50772 18.4613 1.59412C18.7512 1.70194 19.0007 1.89674 19.1756 2.15184C19.3158 2.3563 19.3933 2.63474 19.5971 3.44988L20.2724 6.15118C20.4236 6.75585 20.5 7.37678 20.5 8.00006C20.5 8.99078 19.588 10.0001 18.5 10.0001C17.2855 10.0001 16.5 9.23013 16.5 8.50006C16.5 8.22391 16.2761 8.00006 16 8.00006C15.7239 8.00006 15.5 8.22391 15.5 8.50006C15.5 9.23013 14.7145 10.0001 13.5 10.0001C12.2855 10.0001 11.5 9.23013 11.5 8.50006C11.5 8.22391 11.2761 8.00006 11 8.00006C10.7239 8.00006 10.5 8.22391 10.5 8.50006C10.5 9.23013 9.71445 10.0001 8.5 10.0001Z" fill="#353566"/>
<path fill-rule="evenodd" clip-rule="evenodd" d="M18.25 16.25C17.2835 16.25 16.5 17.0335 16.5 18C16.5 18.9665 17.2835 19.75 18.25 19.75C19.2165 19.75 20 18.9665 20 18C20 17.0335 19.2165 16.25 18.25 16.25ZM17.5 18C17.5 17.5858 17.8358 17.25 18.25 17.25C18.6642 17.25 19 17.5858 19 18C19 18.4142 18.6642 18.75 18.25 18.75C17.8358 18.75 17.5 18.4142 17.5 18Z" fill="#353566"/>
<path fill-rule="evenodd" clip-rule="evenodd" d="M13.1845 20.212C12.8047 19.5529 13.0297 18.7096 13.6886 18.3285C13.9408 18.1827 13.9408 17.8172 13.6886 17.6714C13.0297 17.2903 12.8047 16.447 13.1845 15.7879L13.8042 14.7126C14.1844 14.0529 15.0272 13.8263 15.6866 14.2076C15.937 14.3525 16.2527 14.1723 16.2527 13.8791C16.2527 13.1183 16.8686 12.5 17.6302 12.5H18.8697C19.6314 12.5 20.2473 13.1183 20.2473 13.8792C20.2473 14.1724 20.563 14.3525 20.8134 14.2077C21.4728 13.8263 22.3156 14.053 22.6958 14.7126L23.3155 15.788C23.6954 16.4471 23.4703 17.2903 22.8114 17.6714C22.5592 17.8172 22.5592 18.1826 22.8114 18.3285C23.4703 18.7096 23.6954 19.5528 23.3155 20.2119L22.6958 21.2872C22.3156 21.9469 21.4728 22.1736 20.8134 21.7922C20.563 21.6474 20.2473 21.8275 20.2473 22.1208C20.2473 22.8816 19.6314 23.5 18.8697 23.5H17.6303C16.8686 23.5 16.2527 22.8817 16.2527 22.1208C16.2527 21.8275 15.937 21.6474 15.6866 21.7922C15.0272 22.1736 14.1844 21.9469 13.8042 21.2873L13.1845 20.212ZM14.1893 19.1942C14.0087 19.2986 13.9461 19.5308 14.0509 19.7127L14.6707 20.788C14.7752 20.9693 15.0059 21.0308 15.1859 20.9266C16.1057 20.3946 17.2527 21.0605 17.2527 22.1208C17.2527 22.3311 17.4226 22.5 17.6303 22.5H18.8697C19.0774 22.5 19.2473 22.3311 19.2473 22.1208C19.2473 21.0605 20.3943 20.3946 21.3141 20.9265C21.4941 21.0307 21.7248 20.9693 21.8293 20.7879L22.4491 19.7126C22.5539 19.5307 22.4913 19.2986 22.3107 19.1941C21.3928 18.6632 21.3928 17.3367 22.3107 16.8058C22.4913 16.7013 22.5539 16.4692 22.4491 16.2873L21.8293 15.212C21.7248 15.0306 21.4941 14.9692 21.3141 15.0733C20.3943 15.6053 19.2473 14.9395 19.2473 13.8792C19.2473 13.6689 19.0774 13.5 18.8697 13.5H17.6302C17.4226 13.5 17.2527 13.6689 17.2527 13.8791C17.2527 14.9395 16.1056 15.6052 15.186 15.0733C15.0059 14.9691 14.7752 15.0306 14.6707 15.2119L14.0509 16.2872C13.9461 16.4691 14.0087 16.7013 14.1893 16.8057C15.1073 17.3367 15.1073 18.6632 14.1893 19.1942Z" fill="#353566"/>
</g>
<defs>
<clipPath id="clip0_9001_289488">
<rect width="24" height="24" fill="white"/>
</clipPath>
</defs>
</svg>
