<svg width="24" height="24" viewBox="0 0 24 24" fill="none" xmlns="http://www.w3.org/2000/svg">
<g clip-path="url(#clip0_9001_301960)">
<path d="M1.5 11C1.5 5.75329 5.75329 1.5 11 1.5C16.2467 1.5 20.5 5.75329 20.5 11C20.5 11.1015 20.4984 11.2026 20.4953 11.3034C20.4866 11.5794 20.7033 11.8101 20.9793 11.8188C21.2553 11.8274 21.4861 11.6107 21.4948 11.3347C21.4982 11.2235 21.5 11.112 21.5 11C21.5 5.20101 16.799 0.5 11 0.5C5.20101 0.5 0.5 5.20101 0.5 11C0.5 16.799 5.20101 21.5 11 21.5C11.112 21.5 11.2235 21.4982 11.3347 21.4948C11.6107 21.4861 11.8274 21.2553 11.8188 20.9793C11.8101 20.7033 11.5794 20.4866 11.3034 20.4953C11.2026 20.4984 11.1015 20.5 11 20.5C5.75329 20.5 1.5 16.2467 1.5 11Z" fill="#353566"/>
<path fill-rule="evenodd" clip-rule="evenodd" d="M8.29167 7.58331C8.01552 7.58331 7.79167 7.80717 7.79167 8.08331C7.79167 8.35946 8.01552 8.58331 8.29167 8.58331H8.69684V13.4167H8.29169C8.01554 13.4167 7.79169 13.6405 7.79169 13.9167C7.79169 14.1928 8.01554 14.4167 8.29169 14.4167H9.25002V15.1667C9.25002 15.4428 9.47388 15.6667 9.75002 15.6667C10.0262 15.6667 10.25 15.4428 10.25 15.1667V14.4167H10.9167V15.1667C10.9167 15.4428 11.1405 15.6667 11.4167 15.6667C11.6928 15.6667 11.9167 15.4428 11.9167 15.1667V14.4167H12.25C13.3316 14.4167 14.2084 13.5399 14.2084 12.4583C14.2084 11.7129 13.7918 11.0647 13.1788 10.7338C13.4325 10.4036 13.5833 9.99026 13.5833 9.54166C13.5833 8.55922 12.8599 7.74575 11.9167 7.60489V6.83337C11.9167 6.55723 11.6928 6.33337 11.4167 6.33337C11.1405 6.33337 10.9167 6.55723 10.9167 6.83337V7.58331H10.25V6.83333C10.25 6.55719 10.0262 6.33333 9.75002 6.33333C9.47388 6.33333 9.25002 6.55719 9.25002 6.83333V7.58331H8.29167ZM12.25 13.4167C12.7793 13.4167 13.2084 12.9876 13.2084 12.4583C13.2084 11.9291 12.7793 11.5 12.25 11.5H9.69684V13.4167H12.25ZM11.4167 8.58333L11.4122 8.58331H9.75454L9.75002 8.58333L9.7455 8.58331H9.69684V10.5H11.625C12.1543 10.5 12.5833 10.0709 12.5833 9.54166C12.5833 9.01238 12.1543 8.58331 11.625 8.58331H11.4212L11.4167 8.58333Z" fill="#353566"/>
<path d="M18.9199 16.1282C18.9199 15.852 18.6961 15.6282 18.4199 15.6282C18.1438 15.6282 17.9199 15.852 17.9199 16.1282V18.4199C17.9199 18.5871 18.0035 18.7432 18.1426 18.8359L19.5176 19.7525C19.7474 19.9057 20.0578 19.8436 20.211 19.6138C20.3641 19.3841 20.302 19.0736 20.0723 18.9205L18.9199 18.1523V16.1282Z" fill="#353566"/>
<path fill-rule="evenodd" clip-rule="evenodd" d="M13.3365 18.42C13.3365 15.6126 15.6124 13.3367 18.4199 13.3367C21.2273 13.3367 23.5032 15.6126 23.5032 18.42C23.5032 21.2275 21.2273 23.5033 18.4199 23.5033C15.6124 23.5033 13.3365 21.2275 13.3365 18.42ZM18.4199 14.3367C16.1647 14.3367 14.3365 16.1648 14.3365 18.42C14.3365 20.6752 16.1647 22.5033 18.4199 22.5033C20.675 22.5033 22.5032 20.6752 22.5032 18.42C22.5032 16.1648 20.675 14.3367 18.4199 14.3367Z" fill="#353566"/>
</g>
<defs>
<clipPath id="clip0_9001_301960">
<rect width="24" height="24" fill="white"/>
</clipPath>
</defs>
</svg>
