<svg width="24" height="24" viewBox="0 0 24 24" fill="none" xmlns="http://www.w3.org/2000/svg">
<g clip-path="url(#clip0_9001_302155)">
<path d="M1.5 11.0002C1.5 5.75354 5.75329 1.50024 11 1.50024C16.2467 1.50024 20.5 5.75354 20.5 11.0002C20.5 11.0272 20.4999 11.0542 20.4997 11.0811C20.4974 11.3573 20.7193 11.583 20.9955 11.5853C21.2716 11.5876 21.4973 11.3656 21.4996 11.0895C21.4999 11.0598 21.5 11.03 21.5 11.0002C21.5 5.20125 16.799 0.500244 11 0.500244C5.20101 0.500244 0.5 5.20125 0.5 11.0002C0.5 16.7992 5.20101 21.5002 11 21.5002C11.8336 21.5002 12.6452 21.403 13.4237 21.219C13.6924 21.1555 13.8588 20.8862 13.7953 20.6174C13.7318 20.3487 13.4624 20.1823 13.1937 20.2458C12.49 20.4121 11.7556 20.5002 11 20.5002C5.75329 20.5002 1.5 16.247 1.5 11.0002Z" fill="#353566"/>
<path fill-rule="evenodd" clip-rule="evenodd" d="M14.791 10.4915L11.8225 5.57165C11.6455 5.27174 11.3411 5.08353 11.0004 5.08358C10.6598 5.08362 10.3555 5.27184 10.1785 5.57169L7.20757 10.4913C6.90592 10.9908 6.92132 11.6199 7.24704 12.104L10.1843 16.4698C10.5757 17.0985 11.4037 17.0241 11.7946 16.4971L11.8014 16.4879L14.7512 12.1038C15.0768 11.6198 15.0923 10.991 14.791 10.4915ZM11.0005 6.14494L8.07289 10.9928L10.9991 12.6649L13.9254 10.9927L11.0005 6.14494ZM11.4952 13.5331L13.2644 12.5222L10.9989 15.8892L8.7336 12.5221L10.5029 13.5331C10.8104 13.7088 11.1878 13.7088 11.4952 13.5331Z" fill="#353566"/>
<path fill-rule="evenodd" clip-rule="evenodd" d="M20.7541 14.2959C20.7541 13.3896 19.6129 12.9906 19.0474 13.6974L15.3808 18.2802C14.8785 18.9079 15.3261 19.8368 16.1291 19.8368H17.9208V22.5445C17.9208 23.4508 19.062 23.8498 19.6275 23.143L23.2941 18.5602C23.7963 17.9325 23.3487 17.0036 22.5457 17.0036H20.7541V14.2959ZM16.2161 18.8368L19.7541 14.4148V17.0455C19.7541 17.5749 20.1834 18.0036 20.7124 18.0036H22.4587L18.9208 22.4256V19.7949C18.9208 19.2655 18.4914 18.8368 17.9624 18.8368H16.2161Z" fill="#353566"/>
</g>
<defs>
<clipPath id="clip0_9001_302155">
<rect width="24" height="24" fill="white"/>
</clipPath>
</defs>
</svg>
