<svg width="24" height="24" viewBox="0 0 24 24" fill="none" xmlns="http://www.w3.org/2000/svg">
<g clip-path="url(#clip0_9001_301460)">
<path d="M11 1.50006C5.75329 1.50006 1.5 5.75336 1.5 11.0001C1.5 16.2468 5.75329 20.5001 11 20.5001C11.4599 20.5001 11.9118 20.4674 12.3537 20.4044C12.6271 20.3654 12.8803 20.5554 12.9193 20.8288C12.9583 21.1022 12.7682 21.3554 12.4949 21.3944C12.0063 21.4641 11.5072 21.5001 11 21.5001C5.20101 21.5001 0.5 16.7991 0.5 11.0001C0.5 5.20107 5.20101 0.500061 11 0.500061C16.799 0.500061 21.5 5.20107 21.5 11.0001C21.5 11.4727 21.4687 11.9382 21.4081 12.3948C21.3718 12.6685 21.1204 12.861 20.8467 12.8246C20.5729 12.7883 20.3805 12.5369 20.4168 12.2631C20.4717 11.8501 20.5 11.4285 20.5 11.0001C20.5 5.75336 16.2467 1.50006 11 1.50006Z" fill="#353566"/>
<path d="M10.5 6.83341V7.40469C10.0024 7.46567 9.55393 7.62163 9.1963 7.88064C8.7073 8.23479 8.41667 8.76434 8.41667 9.40148C8.41667 10.2217 8.86855 10.7337 9.40161 11.0321C9.90306 11.3128 10.5043 11.4243 10.9178 11.4933C11.3376 11.5632 11.7781 11.6548 12.1099 11.8406C12.4102 12.0087 12.5833 12.2266 12.5833 12.5986C12.5833 12.902 12.4573 13.1356 12.2171 13.3096C11.962 13.4944 11.554 13.6251 11 13.6251C10.6229 13.6251 10.378 13.5846 10.1427 13.4913C9.89567 13.3933 9.62735 13.2247 9.2185 12.9151C8.99835 12.7484 8.68475 12.7918 8.51805 13.0119C8.35135 13.2321 8.39468 13.5457 8.61483 13.7124C9.03931 14.0338 9.396 14.2709 9.77398 14.4208C10.013 14.5156 10.2484 14.571 10.5 14.5996V15.1667C10.5 15.4429 10.7239 15.6667 11 15.6667C11.2761 15.6667 11.5 15.4429 11.5 15.1667V14.5954C11.9976 14.5345 12.4461 14.3785 12.8037 14.1195C13.2927 13.7653 13.5833 13.2358 13.5833 12.5986C13.5833 11.7784 13.1315 11.2664 12.5984 10.968C12.0969 10.6873 11.4957 10.5758 11.0822 10.5069C10.6624 10.4369 10.2219 10.3453 9.89006 10.1595C9.58978 9.99143 9.41667 9.77356 9.41667 9.40148C9.41667 9.09814 9.5427 8.86448 9.78286 8.69054C10.038 8.50576 10.446 8.37506 11 8.37506C11.3771 8.37506 11.622 8.41551 11.8573 8.50885C12.1043 8.60682 12.3727 8.77538 12.7815 9.08496C13.0017 9.25166 13.3153 9.20833 13.482 8.98818C13.6487 8.76803 13.6053 8.45442 13.3852 8.28773C12.9607 7.9663 12.604 7.72921 12.226 7.5793C11.987 7.4845 11.7516 7.42915 11.5 7.40053V6.83341C11.5 6.55727 11.2761 6.33341 11 6.33341C10.7239 6.33341 10.5 6.55727 10.5 6.83341Z" fill="#353566"/>
<path fill-rule="evenodd" clip-rule="evenodd" d="M22.8786 15.4951C22.1315 14.4829 21.0296 14.1627 20.1634 14.3425L20.1617 14.3428C19.4886 14.4853 18.8913 14.8042 18.4199 15.304C17.9484 14.8042 17.3511 14.4853 16.6781 14.3428L16.6763 14.3425C15.8101 14.1627 14.7082 14.4829 13.9611 15.4951C13.1909 16.5388 13.1202 18.3368 14.1355 19.7458C14.843 20.7277 16.2809 22.0449 17.2044 22.8521C17.2219 22.8674 17.2392 22.8825 17.2564 22.8976C17.5118 23.1216 17.7391 23.321 18.0303 23.4071C18.277 23.48 18.5627 23.48 18.8094 23.4071C19.1006 23.321 19.3279 23.1216 19.5833 22.8976C19.6005 22.8826 19.6178 22.8674 19.6353 22.8521C20.5589 22.0449 21.9967 20.7277 22.7042 19.7458C23.7196 18.3368 23.6489 16.5388 22.8786 15.4951ZM20.3506 15.2398C20.8619 15.134 21.6042 15.3121 22.141 16.0395C22.655 16.7359 22.763 18.0962 21.9605 19.2099C21.3243 20.0928 19.9682 21.3437 19.0321 22.1619C18.6933 22.458 18.6234 22.5062 18.5496 22.528C18.4725 22.5508 18.3672 22.5508 18.2901 22.528C18.2163 22.5062 18.1464 22.458 17.8076 22.1619C16.8715 21.3437 15.5154 20.0928 14.8792 19.2099C14.0767 18.0962 14.1847 16.7359 14.6987 16.0395C15.2355 15.3121 15.9778 15.134 16.4891 15.2398C17.1656 15.3832 17.6419 15.7558 18.0567 16.2944C18.1435 16.4071 18.2776 16.4731 18.4199 16.4731C18.5621 16.4731 18.6962 16.4071 18.783 16.2944C19.1978 15.7558 19.6742 15.3832 20.3506 15.2398Z" fill="#353566"/>
</g>
<defs>
<clipPath id="clip0_9001_301460">
<rect width="24" height="24" fill="white"/>
</clipPath>
</defs>
</svg>
