<svg width="24" height="24" viewBox="0 0 24 24" fill="none" xmlns="http://www.w3.org/2000/svg">
<g clip-path="url(#clip0_9001_301430)">
<path d="M11 1.50006C5.75329 1.50006 1.5 5.75336 1.5 11.0001C1.5 16.2468 5.75329 20.5001 11 20.5001C11.1015 20.5001 11.2026 20.4985 11.3034 20.4953C11.5794 20.4867 11.8101 20.7034 11.8188 20.9794C11.8274 21.2554 11.6107 21.4862 11.3347 21.4948C11.2235 21.4983 11.112 21.5001 11 21.5001C5.20101 21.5001 0.5 16.7991 0.5 11.0001C0.5 5.20107 5.20101 0.500061 11 0.500061C16.799 0.500061 21.5 5.20107 21.5 11.0001C21.5 11.112 21.4982 11.2236 21.4948 11.3348C21.4861 11.6108 21.2553 11.8275 20.9793 11.8188C20.7033 11.8102 20.4866 11.5794 20.4953 11.3034C20.4984 11.2027 20.5 11.1016 20.5 11.0001C20.5 5.75336 16.2467 1.50006 11 1.50006Z" fill="#353566"/>
<path d="M10.5 6.83341V7.40469C10.0024 7.46567 9.55393 7.62163 9.1963 7.88064C8.7073 8.23479 8.41667 8.76434 8.41667 9.40148C8.41667 10.2217 8.86855 10.7337 9.40161 11.0321C9.90306 11.3128 10.5043 11.4243 10.9178 11.4933C11.3376 11.5632 11.7781 11.6548 12.1099 11.8406C12.4102 12.0087 12.5833 12.2266 12.5833 12.5986C12.5833 12.902 12.4573 13.1356 12.2171 13.3096C11.962 13.4944 11.554 13.6251 11 13.6251C10.6229 13.6251 10.378 13.5846 10.1427 13.4913C9.89567 13.3933 9.62735 13.2247 9.2185 12.9151C8.99835 12.7484 8.68475 12.7918 8.51805 13.0119C8.35135 13.2321 8.39468 13.5457 8.61483 13.7124C9.03931 14.0338 9.396 14.2709 9.77398 14.4208C10.013 14.5156 10.2484 14.571 10.5 14.5996V15.1667C10.5 15.4429 10.7239 15.6667 11 15.6667C11.2761 15.6667 11.5 15.4429 11.5 15.1667V14.5954C11.9976 14.5345 12.4461 14.3785 12.8037 14.1195C13.2927 13.7653 13.5833 13.2358 13.5833 12.5986C13.5833 11.7784 13.1315 11.2664 12.5984 10.968C12.0969 10.6873 11.4957 10.5758 11.0822 10.5069C10.6624 10.4369 10.2219 10.3453 9.89006 10.1595C9.58978 9.99143 9.41667 9.77356 9.41667 9.40148C9.41667 9.09814 9.5427 8.86448 9.78286 8.69054C10.038 8.50576 10.446 8.37506 11 8.37506C11.3771 8.37506 11.622 8.41551 11.8573 8.50885C12.1043 8.60682 12.3727 8.77538 12.7815 9.08496C13.0017 9.25166 13.3153 9.20833 13.482 8.98818C13.6487 8.76803 13.6053 8.45442 13.3852 8.28773C12.9607 7.9663 12.604 7.72921 12.226 7.5793C11.987 7.4845 11.7516 7.42915 11.5 7.40053V6.83341C11.5 6.55727 11.2761 6.33341 11 6.33341C10.7239 6.33341 10.5 6.55727 10.5 6.83341Z" fill="#353566"/>
<path d="M17.6699 20.4825C17.6699 20.0683 18.0057 19.7325 18.4199 19.7325C18.8341 19.7325 19.17 20.0683 19.17 20.4825C19.17 20.8968 18.8342 21.2325 18.42 21.2325C18.0058 21.2325 17.6699 20.8968 17.6699 20.4825Z" fill="#353566"/>
<path d="M17.9199 16.1284V18.42C17.9199 18.6962 18.1438 18.92 18.4199 18.92C18.6961 18.92 18.9199 18.6962 18.9199 18.42V16.1284C18.9199 15.8522 18.6961 15.6284 18.4199 15.6284C18.1438 15.6284 17.9199 15.8522 17.9199 16.1284Z" fill="#353566"/>
<path fill-rule="evenodd" clip-rule="evenodd" d="M18.4199 13.3367C15.6125 13.3367 13.3366 15.6126 13.3366 18.4201C13.3366 21.2275 15.6125 23.5034 18.4199 23.5034C21.2274 23.5034 23.5033 21.2275 23.5033 18.4201C23.5033 15.6126 21.2274 13.3367 18.4199 13.3367ZM14.3366 18.4201C14.3366 16.1649 16.1648 14.3367 18.4199 14.3367C20.6751 14.3367 22.5033 16.1649 22.5033 18.4201C22.5033 20.6752 20.6751 22.5034 18.4199 22.5034C16.1648 22.5034 14.3366 20.6752 14.3366 18.4201Z" fill="#353566"/>
</g>
<defs>
<clipPath id="clip0_9001_301430">
<rect width="24" height="24" fill="white"/>
</clipPath>
</defs>
</svg>
