<svg width="24" height="24" viewBox="0 0 24 24" fill="none" xmlns="http://www.w3.org/2000/svg">
<path d="M19.4967 0.503418C19.7728 0.503418 19.9967 0.727276 19.9967 1.00342V6.46306L21.6432 4.81661C21.8384 4.62135 22.155 4.62135 22.3503 4.81661C22.5455 5.01187 22.5455 5.32846 22.3503 5.52372L19.8503 8.02372C19.655 8.21898 19.3384 8.21898 19.1432 8.02372L16.6432 5.52372C16.4479 5.32846 16.4479 5.01187 16.6432 4.81661C16.8384 4.62135 17.155 4.62135 17.3503 4.81661L18.9967 6.46306V1.00342C18.9967 0.727276 19.2206 0.503418 19.4967 0.503418Z" fill="#353566"/>
<path d="M1.5 13.0002C1.5 7.20125 6.20101 2.50024 12 2.50024C12.6684 2.50024 13.3226 2.56276 13.9571 2.6824C14.2284 2.73357 14.4069 2.99503 14.3558 3.26639C14.3046 3.53775 14.0431 3.71625 13.7718 3.66508C13.1981 3.55691 12.6059 3.50024 12 3.50024C6.75329 3.50024 2.5 7.75354 2.5 13.0002C2.5 18.247 6.75329 22.5002 12 22.5002C17.2467 22.5002 21.5 18.247 21.5 13.0002C21.5 12.3943 21.4433 11.8021 21.3352 11.2285C21.284 10.9571 21.4625 10.6957 21.7339 10.6445C22.0052 10.5933 22.2667 10.7718 22.3178 11.0432C22.4375 11.6776 22.5 12.3319 22.5 13.0002C22.5 18.7992 17.799 23.5002 12 23.5002C6.20101 23.5002 1.5 18.7992 1.5 13.0002Z" fill="#353566"/>
<path fill-rule="evenodd" clip-rule="evenodd" d="M12.8225 7.57165L15.791 12.4915C16.0923 12.991 16.0768 13.6198 15.7512 14.1038L12.8014 18.4879L12.7946 18.4971C12.4037 19.0241 11.5757 19.0985 11.1843 18.4698L8.24704 14.104C7.92132 13.6199 7.90592 12.9908 8.20757 12.4913L11.1785 7.57169C11.3555 7.27184 11.6598 7.08362 12.0004 7.08358C12.3411 7.08353 12.6455 7.27174 12.8225 7.57165ZM9.07289 12.9928L12.0005 8.14494L14.9254 12.9927L11.9991 14.6649L9.07289 12.9928ZM14.2644 14.5222L12.4952 15.5331C12.1878 15.7088 11.8104 15.7088 11.5029 15.5331L9.7336 14.5221L11.9989 17.8892L14.2644 14.5222Z" fill="#353566"/>
</svg>
