<svg width="24" height="24" viewBox="0 0 24 24" fill="none" xmlns="http://www.w3.org/2000/svg">
<path d="M22.3503 7.35697C22.1551 7.55223 21.8385 7.55223 21.6432 7.35697L19.4968 5.21054L17.3503 7.35705C17.155 7.55231 16.8384 7.55231 16.6432 7.35705C16.4479 7.16179 16.4479 6.8452 16.6432 6.64994L18.7897 4.50343L16.6432 2.35697C16.4479 2.16171 16.4479 1.84513 16.6432 1.64986C16.8385 1.4546 17.1551 1.4546 17.3503 1.64986L19.4968 3.79633L21.6432 1.64994C21.8384 1.45468 22.155 1.45468 22.3503 1.64994C22.5455 1.8452 22.5455 2.16178 22.3503 2.35705L20.2039 4.50343L22.3503 6.64986C22.5456 6.84513 22.5456 7.16171 22.3503 7.35697Z" fill="#353566"/>
<path d="M0.5 13.0001C0.5 7.20109 5.20101 2.50008 11 2.50008C11.6684 2.50008 12.3226 2.56259 12.9571 2.68223C13.2284 2.7334 13.4069 2.99487 13.3558 3.26623C13.3046 3.53758 13.0431 3.71608 12.7718 3.66491C12.1981 3.55674 11.6059 3.50008 11 3.50008C5.75329 3.50008 1.5 7.75337 1.5 13.0001C1.5 18.2468 5.75329 22.5001 11 22.5001C16.2467 22.5001 20.5 18.2468 20.5 13.0001C20.5 12.3942 20.4433 11.802 20.3352 11.2283C20.284 10.957 20.4625 10.6955 20.7339 10.6443C21.0052 10.5931 21.2667 10.7716 21.3178 11.043C21.4375 11.6774 21.5 12.3317 21.5 13.0001C21.5 18.7991 16.799 23.5001 11 23.5001C5.20101 23.5001 0.5 18.7991 0.5 13.0001Z" fill="#353566"/>
<path fill-rule="evenodd" clip-rule="evenodd" d="M11.8225 7.57149L14.791 12.4913C15.0923 12.9908 15.0768 13.6196 14.7512 14.1036L11.8014 18.4877L11.7946 18.4969C11.4037 19.0239 10.5757 19.0983 10.1843 18.4696L7.24704 14.1038C6.92132 13.6197 6.90592 12.9906 7.20757 12.4911L10.1785 7.57153C10.3555 7.27168 10.6598 7.08345 11.0004 7.08341C11.3411 7.08336 11.6455 7.27158 11.8225 7.57149ZM8.07289 12.9926L11.0005 8.14477L13.9254 12.9925L10.9991 14.6647L8.07289 12.9926ZM13.2644 14.522L11.4952 15.533C11.1878 15.7086 10.8104 15.7086 10.5029 15.533L8.7336 14.5219L10.9989 17.889L13.2644 14.522Z" fill="#353566"/>
</svg>
