<svg width="24" height="24" viewBox="0 0 24 24" fill="none" xmlns="http://www.w3.org/2000/svg">
<g clip-path="url(#clip0_9001_301850)">
<path d="M1.5 11C1.5 5.75329 5.7533 1.5 11 1.5C16.2467 1.5 20.5 5.75329 20.5 11C20.5 11.1015 20.4984 11.2026 20.4953 11.3034C20.4866 11.5794 20.7033 11.8101 20.9793 11.8188C21.2553 11.8274 21.4861 11.6107 21.4948 11.3347C21.4982 11.2235 21.5 11.112 21.5 11C21.5 5.20101 16.799 0.5 11 0.5C5.20101 0.5 0.5 5.20101 0.5 11C0.5 16.799 5.20101 21.5 11 21.5C11.112 21.5 11.2235 21.4982 11.3347 21.4948C11.6107 21.4861 11.8274 21.2553 11.8188 20.9793C11.8101 20.7033 11.5794 20.4866 11.3034 20.4953C11.2026 20.4984 11.1015 20.5 11 20.5C5.7533 20.5 1.5 16.2467 1.5 11Z" fill="#353566"/>
<path d="M12.0285 6.41601C11.2245 6.23687 10.3943 6.33975 9.64622 6.70649C8.89978 7.07242 8.27502 7.6809 7.8408 8.44326C7.6949 8.69943 7.5723 8.96731 7.47381 9.24683H6.25C5.97386 9.24683 5.75 9.47068 5.75 9.74683C5.75 10.023 5.97386 10.2468 6.25 10.2468H7.2323C7.19894 10.4866 7.18094 10.7335 7.17867 10.9874L7.17859 10.997L7.17859 11.0015C7.17881 11.2519 7.19657 11.5012 7.23141 11.7469H6.25C5.97386 11.7469 5.75 11.9708 5.75 12.2469C5.75 12.5231 5.97386 12.7469 6.25 12.7469H7.47511C7.57345 13.0261 7.69568 13.2952 7.84096 13.5503C8.27518 14.3127 8.89994 14.9212 9.64638 15.2871C10.3095 15.6122 11.0377 15.7302 11.7558 15.6274C12.0292 15.5883 12.219 15.335 12.1799 15.0616C12.1408 14.7883 11.8875 14.5984 11.6141 14.6375C11.0994 14.7112 10.5736 14.6279 10.0866 14.3892C9.53632 14.1194 9.05411 13.6597 8.7099 13.0554C8.65299 12.9555 8.60038 12.8525 8.55221 12.7469H11.2495C11.5257 12.7469 11.7495 12.5231 11.7495 12.2469C11.7495 11.9708 11.5257 11.7469 11.2495 11.7469H8.24377C8.20099 11.5034 8.17887 11.2537 8.17859 11.0016C8.18067 10.7383 8.20289 10.487 8.24416 10.2468H11.2495C11.5257 10.2468 11.7495 10.023 11.7495 9.74683C11.7495 9.47068 11.5257 9.24683 11.2495 9.24683H8.5514C8.59976 9.14137 8.65259 9.03852 8.70974 8.93818C9.05395 8.33384 9.53616 7.87415 10.0864 7.60439C10.635 7.33545 11.2336 7.26342 11.811 7.39208C12.3897 7.52101 12.9349 7.84901 13.373 8.34978C13.5548 8.55761 13.8707 8.5787 14.0785 8.39689C14.2864 8.21507 14.3075 7.89919 14.1257 7.69135C13.5591 7.0437 12.8314 6.59488 12.0285 6.41601Z" fill="#353566"/>
<path fill-rule="evenodd" clip-rule="evenodd" d="M23.5033 18.42C23.5033 15.6126 21.2274 13.3367 18.42 13.3367C15.6125 13.3367 13.3366 15.6126 13.3366 18.42C13.3366 21.2275 15.6125 23.5033 18.42 23.5033C21.2274 23.5033 23.5033 21.2275 23.5033 18.42ZM18.42 14.3367C20.6751 14.3367 22.5033 16.1648 22.5033 18.42C22.5033 19.3674 22.1807 20.2394 21.6393 20.9322L15.9078 15.2007C16.6006 14.6593 17.4726 14.3367 18.42 14.3367ZM18.42 22.5033C19.3673 22.5033 20.2394 22.1807 20.9322 21.6393L15.2007 15.9078C14.6593 16.6006 14.3366 17.4726 14.3366 18.42C14.3366 20.6752 16.1648 22.5033 18.42 22.5033Z" fill="#353566"/>
</g>
<defs>
<clipPath id="clip0_9001_301850">
<rect width="24" height="24" fill="white"/>
</clipPath>
</defs>
</svg>
