<svg width="24" height="24" viewBox="0 0 24 24" fill="none" xmlns="http://www.w3.org/2000/svg">
<g clip-path="url(#clip0_9001_301890)">
<path d="M1.5 11C1.5 5.75329 5.75329 1.5 11 1.5C16.2467 1.5 20.5 5.75329 20.5 11C20.5 11.6935 20.4258 12.3691 20.285 13.0196C20.2266 13.2894 20.398 13.5556 20.6679 13.614C20.9378 13.6724 21.204 13.501 21.2624 13.2311C21.4181 12.5116 21.5 11.7651 21.5 11C21.5 5.20101 16.799 0.5 11 0.5C5.20101 0.5 0.5 5.20101 0.5 11C0.5 16.799 5.20101 21.5 11 21.5C11.133 21.5 11.2654 21.4975 11.3973 21.4926C11.6732 21.4823 11.8886 21.2503 11.8783 20.9744C11.868 20.6984 11.636 20.483 11.3601 20.4933C11.2406 20.4978 11.1206 20.5 11 20.5C5.75329 20.5 1.5 16.2467 1.5 11Z" fill="#353566"/>
<path d="M12.0285 6.41601C11.2244 6.23687 10.3942 6.33975 9.64616 6.70649C8.89972 7.07242 8.27496 7.6809 7.84074 8.44326C7.69484 8.69943 7.57224 8.96731 7.47375 9.24683H6.24994C5.9738 9.24683 5.74994 9.47068 5.74994 9.74683C5.74994 10.023 5.9738 10.2468 6.24994 10.2468H7.23224C7.19888 10.4866 7.18088 10.7335 7.17861 10.9874L7.17853 10.997L7.17853 11.0015C7.17875 11.2519 7.19651 11.5012 7.23135 11.7469H6.24994C5.9738 11.7469 5.74994 11.9708 5.74994 12.2469C5.74994 12.5231 5.9738 12.7469 6.24994 12.7469H7.47505C7.57339 13.0261 7.69562 13.2952 7.8409 13.5503C8.27512 14.3127 8.89987 14.9212 9.64632 15.2871C10.3944 15.6538 11.2246 15.7567 12.0286 15.5776C12.8315 15.3987 13.5592 14.9499 14.1258 14.3022C14.3076 14.0944 14.2865 13.7785 14.0786 13.5967C13.8708 13.4149 13.5549 13.436 13.3731 13.6438C12.935 14.1446 12.3898 14.4726 11.8111 14.6015C11.2337 14.7302 10.6351 14.6581 10.0865 14.3892C9.53626 14.1194 9.05405 13.6597 8.70984 13.0554C8.65293 12.9555 8.60032 12.8525 8.55215 12.7469H11.2495C11.5256 12.7469 11.7495 12.5231 11.7495 12.2469C11.7495 11.9708 11.5256 11.7469 11.2495 11.7469H8.24371C8.20092 11.5034 8.17881 11.2537 8.17853 11.0016C8.18061 10.7383 8.20283 10.487 8.2441 10.2468H11.2495C11.5256 10.2468 11.7495 10.023 11.7495 9.74683C11.7495 9.47068 11.5256 9.24683 11.2495 9.24683H8.55134C8.5997 9.14137 8.65253 9.03852 8.70968 8.93818C9.05389 8.33384 9.5361 7.87415 10.0863 7.60439C10.6349 7.33545 11.2335 7.26342 11.811 7.39208C12.3897 7.52101 12.9349 7.84901 13.373 8.34978C13.5548 8.55761 13.8707 8.5787 14.0785 8.39689C14.2863 8.21507 14.3074 7.89919 14.1256 7.69135C13.559 7.0437 12.8313 6.59488 12.0285 6.41601Z" fill="#353566"/>
<path d="M16.0199 17.8604C16.2171 17.6671 16.2203 17.3506 16.027 17.1533C15.8338 16.9561 15.5172 16.9529 15.32 17.1462L13.4866 18.9429C13.3919 19.0357 13.338 19.1623 13.3366 19.295C13.3353 19.4276 13.3867 19.5553 13.4796 19.65L15.3129 21.52C15.5062 21.7172 15.8228 21.7203 16.0199 21.527C16.2171 21.3337 16.2203 21.0171 16.0269 20.8199L14.5437 19.307L16.0199 17.8604Z" fill="#353566"/>
<path d="M20.8126 17.1535C21.0058 16.9562 21.3224 16.9528 21.5197 17.146L23.353 18.9408C23.4478 19.0336 23.5018 19.1603 23.5032 19.2929C23.5046 19.4255 23.4533 19.5532 23.3605 19.648L21.5271 21.5198C21.3339 21.7171 21.0173 21.7204 20.8201 21.5272C20.6228 21.3339 20.6195 21.0174 20.8127 20.8201L22.2961 19.3056L20.8201 17.8606C20.6228 17.6674 20.6195 17.3508 20.8126 17.1535Z" fill="#353566"/>
<path d="M19.8217 15.7912C19.8887 15.5233 19.7258 15.2519 19.4579 15.1849C19.19 15.1179 18.9185 15.2808 18.8516 15.5487L17.0182 22.882C16.9512 23.1499 17.1141 23.4214 17.382 23.4884C17.6499 23.5554 17.9214 23.3925 17.9884 23.1246L19.8217 15.7912Z" fill="#353566"/>
</g>
<defs>
<clipPath id="clip0_9001_301890">
<rect width="24" height="24" fill="white"/>
</clipPath>
</defs>
</svg>
