<svg width="24" height="24" viewBox="0 0 24 24" fill="none" xmlns="http://www.w3.org/2000/svg">
<path d="M0.25 4.12132C0.25 2.53553 1.53553 1.25 3.12132 1.25H18.8787C20.0375 1.25 21.0345 1.93649 21.488 2.92177C21.6612 3.29804 21.4965 3.74346 21.1203 3.91665C20.744 4.08984 20.2986 3.92521 20.1254 3.54894C19.9077 3.0759 19.4305 2.75 18.8787 2.75H3.12132C2.36396 2.75 1.75 3.36396 1.75 4.12132C1.75 4.48502 1.89448 4.83382 2.15165 5.09099L8.59099 11.5303C9.01295 11.9523 9.25 12.5246 9.25 13.1213V17.5194C9.25 17.5953 9.28452 17.6671 9.34383 17.7146L12.75 20.4395V14.6817C12.75 14.2675 13.0858 13.9317 13.5 13.9317C13.9142 13.9317 14.25 14.2675 14.25 14.6817V22C14.25 22.2883 14.0847 22.5511 13.8249 22.676C13.565 22.8009 13.2566 22.7658 13.0315 22.5857L8.40679 18.8859C7.99166 18.5538 7.75 18.051 7.75 17.5194V13.1213C7.75 12.9224 7.67098 12.7316 7.53033 12.591L1.09099 6.15165C0.552513 5.61317 0.25 4.88284 0.25 4.12132Z" fill="#353566"/>
<path fill-rule="evenodd" clip-rule="evenodd" d="M19 7.875C17.8264 7.875 16.875 8.82641 16.875 10C16.875 11.1736 17.8264 12.125 19 12.125C20.1736 12.125 21.125 11.1736 21.125 10C21.125 8.82641 20.1736 7.875 19 7.875ZM18.125 10C18.125 9.51676 18.5168 9.125 19 9.125C19.4833 9.125 19.875 9.51676 19.875 10C19.875 10.4833 19.4833 10.875 19 10.875C18.5168 10.875 18.125 10.4833 18.125 10Z" fill="#353566"/>
<path fill-rule="evenodd" clip-rule="evenodd" d="M14.25 10.002C14.25 7.37912 16.3762 5.25 19.0001 5.25C21.6235 5.25 23.75 7.37663 23.75 10C23.75 12.9 21.45 15.1 19.45 16.6C19.1833 16.8 18.8167 16.8 18.55 16.6C16.5501 15.1001 14.25 12.9001 14.25 10.002ZM19.0001 6.75C17.2056 6.75 15.75 8.20659 15.75 10.002C15.75 11.9406 17.2014 13.6247 19 15.0529C20.7985 13.6248 22.25 11.9405 22.25 10C22.25 8.20502 20.795 6.75 19.0001 6.75Z" fill="#353566"/>
</svg>
