<svg width="24" height="24" viewBox="0 0 24 24" fill="none" xmlns="http://www.w3.org/2000/svg">
<path d="M0.25 4.12132C0.25 2.53553 1.53553 1.25 3.12132 1.25H18.8787C20.1979 1.25 21.3075 2.13901 21.6448 3.3492C21.756 3.74821 21.5227 4.16182 21.1237 4.27302C20.7247 4.38422 20.3111 4.15091 20.1999 3.7519C20.0386 3.17339 19.5071 2.75 18.8787 2.75H3.12132C2.36396 2.75 1.75 3.36396 1.75 4.12132C1.75 4.48502 1.89448 4.83382 2.15165 5.09099L8.59099 11.5303C9.01295 11.9523 9.25 12.5246 9.25 13.1213V17.5194C9.25 17.5953 9.28452 17.6671 9.34383 17.7146L12.75 20.4395V17.6153C12.75 17.2011 13.0858 16.8653 13.5 16.8653C13.9142 16.8653 14.25 17.2011 14.25 17.6153V22C14.25 22.2883 14.0847 22.5511 13.8249 22.676C13.565 22.8009 13.2566 22.7658 13.0315 22.5857L8.40679 18.8859C7.99166 18.5538 7.75 18.051 7.75 17.5194V13.1213C7.75 12.9224 7.67098 12.7316 7.53033 12.591L1.09099 6.15165C0.552513 5.61317 0.25 4.88284 0.25 4.12132Z" fill="#353566"/>
<path d="M18.625 8.5C18.625 8.15482 18.3452 7.875 18 7.875C17.6548 7.875 17.375 8.15482 17.375 8.5V11.0001C17.375 11.209 17.4794 11.4042 17.6533 11.5201L19.1533 12.52C19.4405 12.7115 19.8286 12.6339 20.02 12.3467C20.2115 12.0595 20.1339 11.6714 19.8467 11.48L18.625 10.6656V8.5Z" fill="#353566"/>
<path fill-rule="evenodd" clip-rule="evenodd" d="M12.25 11C12.25 7.82436 14.8244 5.25 18 5.25C21.1756 5.25 23.75 7.82436 23.75 11C23.75 14.1756 21.1756 16.75 18 16.75C14.8244 16.75 12.25 14.1756 12.25 11ZM18 6.75C15.6528 6.75 13.75 8.65279 13.75 11C13.75 13.3472 15.6528 15.25 18 15.25C20.3472 15.25 22.25 13.3472 22.25 11C22.25 8.65279 20.3472 6.75 18 6.75Z" fill="#353566"/>
</svg>
