<svg width="24" height="24" viewBox="0 0 24 24" fill="none" xmlns="http://www.w3.org/2000/svg">
<path fill-rule="evenodd" clip-rule="evenodd" d="M12.6791 1.68167C12.5556 1.41825 12.2909 1.25 12 1.25C11.7091 1.25 11.4444 1.41825 11.3209 1.68167L3.8209 17.6817C3.64509 18.0567 3.80662 18.5033 4.18167 18.6791C4.55672 18.8549 5.00328 18.6934 5.17909 18.3183L7.41424 13.55H16.5857L18.8209 18.3183C18.9967 18.6934 19.4433 18.8549 19.8183 18.6791C20.1934 18.5033 20.3549 18.0567 20.1791 17.6817L12.6791 1.68167ZM12 3.76706L15.8826 12.05H8.11737L12 3.76706Z" fill="#353566"/>
<path d="M2 22.75C1.58579 22.75 1.25 22.4142 1.25 22C1.25 21.5858 1.58579 21.25 2 21.25H22C22.4142 21.25 22.75 21.5858 22.75 22C22.75 22.4142 22.4142 22.75 22 22.75H2Z" fill="#353566"/>
</svg>
