<svg width="24" height="24" viewBox="0 0 24 24" fill="none" xmlns="http://www.w3.org/2000/svg">
<path d="M1.75 4C1.75 3.58579 1.41421 3.25 1 3.25C0.585786 3.25 0.25 3.58579 0.25 4V20C0.25 20.4142 0.585786 20.75 1 20.75C1.41421 20.75 1.75 20.4142 1.75 20V12.75H11.25V20C11.25 20.4142 11.5858 20.75 12 20.75C12.4142 20.75 12.75 20.4142 12.75 20V4C12.75 3.58579 12.4142 3.25 12 3.25C11.5858 3.25 11.25 3.58579 11.25 4V11.25H1.75V4Z" fill="#353566"/>
<path d="M17.9262 10.4885C18.3267 10.0078 18.8474 9.75 19.5745 9.75C21.0028 9.75 21.8179 10.828 21.8189 11.9312L21.8187 11.9725C21.8098 12.6466 21.4598 13.2041 20.8271 13.7842C20.5103 14.0746 20.1447 14.3504 19.7487 14.6381C19.6703 14.695 19.5902 14.7528 19.509 14.8113C19.1922 15.0398 18.86 15.2794 18.5555 15.5235C18.2863 15.7394 18.0136 15.9898 17.7428 16.2799C16.8217 17.2669 16.3406 18.1533 16.0913 18.821C15.967 19.1538 15.9016 19.4289 15.8673 19.631C15.8502 19.732 15.8409 19.8145 15.8358 19.8767C15.8333 19.9077 15.8318 19.9337 15.831 19.9543L15.8302 19.9813L15.8301 19.9917L15.83 19.9961L15.83 19.9981L15.83 20C15.83 20.0005 15.83 20 16.58 20H15.83C15.83 20.4142 16.1658 20.75 16.58 20.75H22.9967C23.4109 20.75 23.7467 20.4142 23.7467 20C23.7467 19.5858 23.4109 19.25 22.9967 19.25H17.5336C17.7251 18.7743 18.1005 18.0951 18.8394 17.3034C19.0611 17.0659 19.2808 16.8646 19.4939 16.6938C19.7655 16.476 20.057 16.2657 20.3697 16.0401C20.4549 15.9786 20.5419 15.9159 20.6303 15.8517C21.0317 15.5601 21.4566 15.242 21.8408 14.8898C22.6095 14.185 23.3032 13.2624 23.3186 11.9886L23.3189 11.9379V11.9333C23.3189 10.104 21.9315 8.25 19.5745 8.25C18.4193 8.25 17.4701 8.69269 16.7738 9.5282C16.3245 10.0674 15.83 10.8814 15.83 12.1167C15.83 12.5309 16.1658 12.8667 16.58 12.8667C16.9942 12.8667 17.33 12.5309 17.33 12.1167C17.33 11.3353 17.6252 10.8496 17.9262 10.4885Z" fill="#353566"/>
</svg>
