<svg width="24" height="24" viewBox="0 0 24 24" fill="none" xmlns="http://www.w3.org/2000/svg">
<path d="M2.53033 1.46967C2.23744 1.17678 1.76256 1.17678 1.46967 1.46967C1.17678 1.76256 1.17678 2.23744 1.46967 2.53033L2.35141 3.41207C2.28581 3.59589 2.25 3.7939 2.25 4V6C2.25 6.41421 2.58579 6.75 3 6.75C3.41421 6.75 3.75 6.41421 3.75 6V4.81066L11.25 12.3107V20.25H8C7.58579 20.25 7.25 20.5858 7.25 21C7.25 21.4142 7.58579 21.75 8 21.75H16C16.4142 21.75 16.75 21.4142 16.75 21C16.75 20.5858 16.4142 20.25 16 20.25H12.75V13.8107L21.4697 22.5303C21.7626 22.8232 22.2374 22.8232 22.5303 22.5303C22.8232 22.2374 22.8232 21.7626 22.5303 21.4697L3.82335 2.76269L2.53033 1.46967Z" fill="#353566"/>
<path d="M6.25 3C6.25 2.58579 6.58579 2.25 7 2.25H20C20.9665 2.25 21.75 3.0335 21.75 4V6C21.75 6.41421 21.4142 6.75 21 6.75C20.5858 6.75 20.25 6.41421 20.25 6V4C20.25 3.86193 20.1381 3.75 20 3.75H12.75V8C12.75 8.41421 12.4142 8.75 12 8.75C11.5858 8.75 11.25 8.41421 11.25 8V3.75H7C6.58579 3.75 6.25 3.41421 6.25 3Z" fill="#353566"/>
</svg>
