<svg width="24" height="24" viewBox="0 0 24 24" fill="none" xmlns="http://www.w3.org/2000/svg">
<path opacity="0.4" d="M2 1.5C1.72386 1.5 1.5 1.72386 1.5 2V18.5C1.5 20.7091 3.29086 22.5 5.5 22.5H22C22.2761 22.5 22.5 22.2761 22.5 22V2C22.5 1.72386 22.2761 1.5 22 1.5H2Z" fill="#353566"/>
<path d="M2 1.5C2.27614 1.5 2.5 1.72386 2.5 2V18.5C2.5 20.1569 3.84315 21.5 5.5 21.5H22C22.2761 21.5 22.5 21.7239 22.5 22C22.5 22.2761 22.2761 22.5 22 22.5H5.5C3.29086 22.5 1.5 20.7091 1.5 18.5V2C1.5 1.72386 1.72386 1.5 2 1.5Z" fill="#353566"/>
<path d="M6.5 18V16.5C6.5 16.2239 6.72386 16 7 16C7.27614 16 7.5 16.2239 7.5 16.5V18C7.5 18.2761 7.27614 18.5 7 18.5C6.72386 18.5 6.5 18.2761 6.5 18Z" fill="#353566"/>
<path d="M10.5 14.65V18C10.5 18.2761 10.7239 18.5 11 18.5C11.2761 18.5 11.5 18.2761 11.5 18L11.5 14.65C11.5 14.3739 11.2761 14.15 11 14.15C10.7239 14.15 10.5 14.3739 10.5 14.65Z" fill="#353566"/>
<path d="M15 18.5C14.7239 18.5 14.5 18.2761 14.5 18V12.8C14.5 12.5239 14.7239 12.3 15 12.3C15.2761 12.3 15.5 12.5239 15.5 12.8V18C15.5 18.2761 15.2761 18.5 15 18.5Z" fill="#353566"/>
<path d="M18.5 18C18.5 18.2761 18.7239 18.5 19 18.5C19.2761 18.5 19.5 18.2761 19.5 18L19.5 11C19.5 10.7239 19.2761 10.5 19 10.5C18.7239 10.5 18.5 10.7239 18.5 11L18.5 18Z" fill="#353566"/>
<path d="M19.4998 5.20712V7.75C19.4998 8.02614 19.7237 8.25 19.9998 8.25C20.276 8.25 20.4998 8.02614 20.4998 7.75V4C20.4998 3.72386 20.276 3.5 19.9998 3.5H16.2501C15.9739 3.5 15.7501 3.72386 15.7501 4C15.7501 4.27614 15.9739 4.5 16.2501 4.5H18.7927L14 9.29289L11.3536 6.64645C11.1583 6.45118 10.8417 6.45118 10.6464 6.64645L5.64645 11.6464C5.45118 11.8417 5.45118 12.1583 5.64645 12.3536C5.84171 12.5488 6.15829 12.5488 6.35355 12.3536L11 7.70711L13.6464 10.3536C13.7402 10.4473 13.8674 10.5 14 10.5C14.1326 10.5 14.2598 10.4473 14.3536 10.3535L19.4998 5.20712Z" fill="#353566"/>
</svg>
