<svg width="24" height="24" viewBox="0 0 24 24" fill="none" xmlns="http://www.w3.org/2000/svg">
<g clip-path="url(#clip0_9001_272919)">
<path opacity="0.4" d="M12.852 21C12.5132 20.2357 12.325 19.3898 12.325 18.5C12.325 15.0896 15.0896 12.325 18.5 12.325C19.3898 12.325 20.2357 12.5132 21 12.852V7.4C21 5.15979 21 4.03969 20.564 3.18404C20.1805 2.43139 19.5686 1.81947 18.816 1.43597C17.9603 1 16.8402 1 14.6 1H7.4C5.15979 1 4.03969 1 3.18404 1.43597C2.43139 1.81947 1.81947 2.43139 1.43597 3.18404C1 4.03969 1 5.15979 1 7.4V14.6C1 16.8402 1 17.9603 1.43597 18.816C1.81947 19.5686 2.43139 20.1805 3.18404 20.564C4.03969 21 5.15979 21 7.4 21H12.852Z" fill="#353566"/>
<path d="M7.37737 0.500244H14.6226C15.7236 0.500242 16.5805 0.50024 17.2679 0.556402C17.9658 0.613425 18.5329 0.730828 19.043 0.990715C19.8897 1.42215 20.5781 2.11056 21.0095 2.95729C21.2694 3.46734 21.3868 4.03441 21.4438 4.73234C21.5 5.41969 21.5 6.27657 21.5 7.37746V13.1017C21.1828 12.925 20.8484 12.7755 20.5 12.6563V7.40024C20.5 6.27189 20.4996 5.45569 20.4472 4.81377C20.3952 4.17768 20.2946 3.75687 20.1185 3.41128C19.783 2.75271 19.2475 2.21728 18.589 1.88172C18.2434 1.70563 17.8226 1.60505 17.1865 1.55308C16.5446 1.50063 15.7284 1.50024 14.6 1.50024H7.4C6.27164 1.50024 5.45545 1.50063 4.81352 1.55308C4.17744 1.60505 3.75662 1.70563 3.41103 1.88172C2.75247 2.21728 2.21703 2.75271 1.88148 3.41128C1.70539 3.75687 1.60481 4.17768 1.55284 4.81377C1.50039 5.45569 1.5 6.27189 1.5 7.40024V14.6002C1.5 15.7286 1.50039 16.5448 1.55284 17.1867C1.60481 17.8228 1.70539 18.2436 1.88148 18.5892C2.21703 19.2478 2.75247 19.7832 3.41103 20.1188C3.75662 20.2949 4.17744 20.3954 4.81352 20.4474C5.45545 20.4999 6.27164 20.5002 7.4 20.5002H12.6561C12.7753 20.8487 12.9248 21.1831 13.1014 21.5002H7.37747C6.27653 21.5002 5.41947 21.5002 4.73209 21.4441C4.03416 21.3871 3.4671 21.2697 2.95704 21.0098C2.11031 20.5783 1.4219 19.8899 0.990471 19.0432C0.730584 18.5331 0.61318 17.9661 0.556157 17.2682C0.499995 16.5808 0.499997 15.7238 0.5 14.6229V7.37762C0.499997 6.27666 0.499996 5.41972 0.556157 4.73234C0.61318 4.03441 0.730584 3.46734 0.990471 2.95729C1.4219 2.11056 2.11031 1.42215 2.95704 0.990715C3.4671 0.730828 4.03416 0.613425 4.73209 0.556402C5.41948 0.50024 6.27642 0.500242 7.37737 0.500244Z" fill="#353566"/>
<path d="M16.3536 8.64669C16.1583 8.45143 15.8417 8.45143 15.6464 8.64669L12.5 11.7931L9.85355 9.14669C9.65829 8.95143 9.34171 8.95143 9.14645 9.14669L5.64645 12.6467C5.45118 12.842 5.45118 13.1585 5.64645 13.3538C5.84171 13.5491 6.15829 13.5491 6.35355 13.3538L9.5 10.2074L12.1464 12.8538C12.3417 13.0491 12.6583 13.0491 12.8536 12.8538L16.3536 9.3538C16.5488 9.15854 16.5488 8.84195 16.3536 8.64669Z" fill="#353566"/>
<path d="M20.6068 16.9405C20.802 16.7452 20.802 16.4286 20.6068 16.2334C20.4115 16.0381 20.0949 16.0381 19.8997 16.2334L16.233 19.9C16.0377 20.0953 16.0377 20.4119 16.233 20.6071C16.4283 20.8024 16.7448 20.8024 16.9401 20.6071L20.6068 16.9405Z" fill="#353566"/>
<path d="M16.2949 17.0452C16.2949 16.631 16.6307 16.2952 17.0449 16.2952C17.4591 16.2952 17.795 16.631 17.795 17.0452C17.795 17.4594 17.4592 17.7952 17.045 17.7952C16.6308 17.7952 16.2949 17.4594 16.2949 17.0452Z" fill="#353566"/>
<path d="M19.7949 19.0452C19.3807 19.0452 19.0449 19.381 19.0449 19.7952C19.0449 20.2094 19.3807 20.5452 19.7949 20.5452C20.2091 20.5452 20.545 20.2094 20.545 19.7952C20.545 19.381 20.2091 19.0452 19.7949 19.0452Z" fill="#353566"/>
<path fill-rule="evenodd" clip-rule="evenodd" d="M13.3365 18.4202C13.3365 15.6128 15.6124 13.3369 18.4199 13.3369C21.2273 13.3369 23.5032 15.6128 23.5032 18.4202C23.5032 21.2277 21.2273 23.5036 18.4199 23.5036C15.6124 23.5036 13.3365 21.2277 13.3365 18.4202ZM18.4199 14.3369C16.1647 14.3369 14.3365 16.1651 14.3365 18.4202C14.3365 20.6754 16.1647 22.5036 18.4199 22.5036C20.675 22.5036 22.5032 20.6754 22.5032 18.4202C22.5032 16.1651 20.675 14.3369 18.4199 14.3369Z" fill="#353566"/>
</g>
<defs>
<clipPath id="clip0_9001_272919">
<rect width="24" height="24" fill="white"/>
</clipPath>
</defs>
</svg>
