<svg width="24" height="24" viewBox="0 0 24 24" fill="none" xmlns="http://www.w3.org/2000/svg">
<g clip-path="url(#clip0_9001_273004)">
<path opacity="0.4" d="M15.2246 20.9996C15.5256 20.6255 15.8785 20.2928 16.2718 20.0098L17.4446 19.1659C17.4446 19.1659 17.023 18.6918 16.5847 18.0999C16.1463 17.5081 15.8875 16.6826 15.8875 15.8875C15.8875 13.92 17.4825 12.325 19.45 12.325C20.0055 12.325 20.5314 12.4522 21 12.679V7.4C21 5.15979 21 4.03969 20.564 3.18404C20.1805 2.43139 19.5686 1.81947 18.816 1.43597C17.9603 1 16.8402 1 14.6 1H7.4C5.15979 1 4.03969 1 3.18404 1.43597C2.43139 1.81947 1.81947 2.43139 1.43597 3.18404C1 4.03969 1 5.15979 1 7.4V14.6C1 16.8402 1 17.9603 1.43597 18.816C1.81947 19.5686 2.43139 20.1805 3.18404 20.564C4.03969 21 5.15979 21 7.4 21H14.6C14.8186 21 15.0266 21 15.2246 20.9996Z" fill="#353566"/>
<path d="M7.37737 0.5H14.6226C15.7236 0.499997 16.5805 0.499995 17.2679 0.556157C17.9658 0.61318 18.5329 0.730584 19.043 0.990471C19.8897 1.4219 20.5781 2.11031 21.0095 2.95704C21.2694 3.4671 21.3868 4.03416 21.4438 4.73209C21.5 5.41946 21.5 6.27635 21.5 7.37726V12.9736C21.1979 12.7606 20.8612 12.5935 20.5 12.4823V7.4C20.5 6.27164 20.4996 5.45545 20.4472 4.81352C20.3952 4.17744 20.2946 3.75662 20.1185 3.41103C19.783 2.75247 19.2475 2.21703 18.589 1.88148C18.2434 1.70539 17.8226 1.60481 17.1865 1.55284C16.5446 1.50039 15.7284 1.5 14.6 1.5H7.4C6.27164 1.5 5.45545 1.50039 4.81352 1.55284C4.17744 1.60481 3.75662 1.70539 3.41103 1.88148C2.75247 2.21703 2.21703 2.75247 1.88148 3.41103C1.70539 3.75662 1.60481 4.17744 1.55284 4.81352C1.50039 5.45545 1.5 6.27164 1.5 7.4V14.6C1.5 15.7284 1.50039 16.5446 1.55284 17.1865C1.60481 17.8226 1.70539 18.2434 1.88148 18.589C2.21703 19.2475 2.75247 19.783 3.41103 20.1185C3.75662 20.2946 4.17744 20.3952 4.81352 20.4472C5.45545 20.4996 6.27164 20.5 7.4 20.5H14.6C14.9987 20.5 15.3583 20.5 15.6851 20.4976C15.3727 20.797 15.0979 21.1332 14.869 21.5L7.37747 21.5C6.27651 21.5 5.41948 21.5 4.73209 21.4438C4.03416 21.3868 3.4671 21.2694 2.95704 21.0095C2.11031 20.5781 1.4219 19.8897 0.990471 19.043C0.730584 18.5329 0.61318 17.9658 0.556157 17.2679C0.499995 16.5805 0.499997 15.7236 0.5 14.6226V7.37737C0.499997 6.27642 0.499996 5.41948 0.556157 4.73209C0.61318 4.03416 0.730584 3.4671 0.990471 2.95704C1.4219 2.11031 2.11031 1.4219 2.95704 0.990471C3.4671 0.730584 4.03416 0.61318 4.73209 0.556157C5.41948 0.499996 6.27642 0.499997 7.37737 0.5Z" fill="#353566"/>
<path d="M16.3536 8.64645C16.1583 8.45118 15.8417 8.45118 15.6464 8.64645L12.5 11.7929L9.85355 9.14645C9.65829 8.95118 9.34171 8.95118 9.14645 9.14645L5.64645 12.6464C5.45118 12.8417 5.45118 13.1583 5.64645 13.3536C5.84171 13.5488 6.15829 13.5488 6.35355 13.3536L9.5 10.2071L12.1464 12.8536C12.3417 13.0488 12.6583 13.0488 12.8536 12.8536L16.3536 9.35355C16.5488 9.15829 16.5488 8.84171 16.3536 8.64645Z" fill="#353566"/>
<path d="M19.3366 20.7534C17.8432 20.7534 16.5011 21.7799 16.1541 23.128C16.0853 23.3955 15.8127 23.5565 15.5453 23.4876C15.2779 23.4188 15.1169 23.1462 15.1857 22.8788C15.6528 21.064 17.4129 19.7534 19.3366 19.7534C21.2602 19.7534 23.0204 21.064 23.4875 22.8788C23.5563 23.1462 23.3953 23.4188 23.1279 23.4876C22.8605 23.5565 22.5879 23.3955 22.519 23.128C22.172 21.7799 20.83 20.7534 19.3366 20.7534Z" fill="#353566"/>
<path fill-rule="evenodd" clip-rule="evenodd" d="M19.3365 13.3367C17.9213 13.3367 16.774 14.4839 16.774 15.8992C16.774 17.3144 17.9213 18.4617 19.3365 18.4617C20.7518 18.4617 21.899 17.3144 21.899 15.8992C21.899 14.4839 20.7518 13.3367 19.3365 13.3367ZM17.774 15.8992C17.774 15.0362 18.4736 14.3367 19.3365 14.3367C20.1995 14.3367 20.899 15.0362 20.899 15.8992C20.899 16.7621 20.1995 17.4617 19.3365 17.4617C18.4736 17.4617 17.774 16.7621 17.774 15.8992Z" fill="#353566"/>
</g>
<defs>
<clipPath id="clip0_9001_273004">
<rect width="24" height="24" fill="white"/>
</clipPath>
</defs>
</svg>
