<svg width="24" height="24" viewBox="0 0 24 24" fill="none" xmlns="http://www.w3.org/2000/svg">
<g clip-path="url(#clip0_9001_273159)">
<path opacity="0.4" d="M21 7.4V14.6C21 14.6541 21 14.7075 21 14.7603C20.2112 14.4068 19.3617 14.225 18.5 14.225C15.9956 14.225 13.5937 15.7605 12.4879 18.5848C12.2707 19.1397 12.2707 19.7603 12.4879 20.3152C12.5809 20.5526 12.683 20.7809 12.7936 21H7.4C5.15979 21 4.03969 21 3.18404 20.564C2.43139 20.1805 1.81947 19.5686 1.43597 18.816C1 17.9603 1 16.8402 1 14.6V7.4C1 5.15979 1 4.03969 1.43597 3.18404C1.81947 2.43139 2.43139 1.81947 3.18404 1.43597C4.03969 1 5.15979 1 7.4 1H14.6C16.8402 1 17.9603 1 18.816 1.43597C19.5686 1.81947 20.1805 2.43139 20.564 3.18404C21 4.03969 21 5.15979 21 7.4Z" fill="#353566"/>
<path d="M7.37737 0.500244H14.6226C15.7236 0.500242 16.5805 0.50024 17.2679 0.556402C17.9658 0.613426 18.5329 0.730829 19.043 0.990715C19.8897 1.42215 20.5781 2.11056 21.0095 2.95729C21.2694 3.46735 21.3868 4.03441 21.4438 4.73234C21.5 5.41971 21.5 6.27661 21.5 7.37753L21.4999 15.0123C21.1781 14.8316 20.8436 14.6814 20.5 14.5622V7.40024C20.5 6.27189 20.4996 5.45569 20.4472 4.81377C20.3952 4.17768 20.2946 3.75687 20.1185 3.41128C19.783 2.75271 19.2475 2.21728 18.589 1.88172C18.2434 1.70563 17.8226 1.60505 17.1865 1.55308C16.5446 1.50063 15.7284 1.50025 14.6 1.50025L7.4 1.50025C6.27165 1.50025 5.45545 1.50063 4.81353 1.55308C4.17744 1.60505 3.75662 1.70564 3.41103 1.88172C2.75247 2.21728 2.21703 2.75271 1.88148 3.41128C1.70539 3.75687 1.60481 4.17768 1.55284 4.81377C1.50039 5.45569 1.5 6.27189 1.5 7.40024L1.5 14.6002C1.5 15.7286 1.50039 16.5448 1.55284 17.1867C1.60481 17.8228 1.70539 18.2436 1.88148 18.5892C2.21704 19.2478 2.75247 19.7832 3.41103 20.1188C3.75662 20.2949 4.17744 20.3954 4.81352 20.4474C5.45545 20.4999 6.27165 20.5002 7.4 20.5002H12.5629C12.7119 20.855 12.8818 21.1885 13.07 21.5002H7.37747C6.27657 21.5002 5.41946 21.5002 4.73209 21.4441C4.03416 21.3871 3.4671 21.2697 2.95704 21.0098C2.11031 20.5783 1.4219 19.8899 0.990471 19.0432C0.730585 18.5331 0.61318 17.9661 0.556158 17.2682C0.5 16.5808 0.5 15.724 0.5 14.6231V7.37762C0.5 6.27676 0.5 5.41968 0.556159 4.73234C0.613181 4.03441 0.730584 3.46735 0.990472 2.95729C1.4219 2.11056 2.11031 1.42215 2.95704 0.990716C3.4671 0.730829 4.03416 0.613426 4.73209 0.556403C5.41942 0.500244 6.27655 0.500244 7.37737 0.500244Z" fill="#353566"/>
<path d="M14 15.0002C14 15.2764 14.2239 15.5002 14.5 15.5002C14.7761 15.5002 15 15.2764 15 15.0002L15 9.00025C15 8.7241 14.7761 8.50025 14.5 8.50025C14.2239 8.50025 14 8.7241 14 9.00025L14 15.0002Z" fill="#353566"/>
<path d="M11 15.5002C10.7239 15.5002 10.5 15.2764 10.5 15.0002L10.5 7.00025C10.5 6.7241 10.7239 6.50025 11 6.50025C11.2761 6.50025 11.5 6.7241 11.5 7.00025L11.5 15.0002C11.5 15.2764 11.2761 15.5002 11 15.5002Z" fill="#353566"/>
<path d="M7.5 15.5002C7.22386 15.5002 7 15.2764 7 15.0002V12.0002C7 11.7241 7.22386 11.5002 7.5 11.5002C7.77614 11.5002 8 11.7241 8 12.0002V15.0002C8 15.2764 7.77614 15.5002 7.5 15.5002Z" fill="#353566"/>
<path fill-rule="evenodd" clip-rule="evenodd" d="M18.4199 17.4619C17.3833 17.4619 16.5449 18.3003 16.5449 19.3369C16.5449 20.3735 17.3833 21.2119 18.4199 21.2119C19.4565 21.2119 20.2949 20.3735 20.2949 19.3369C20.2949 18.3003 19.4565 17.4619 18.4199 17.4619ZM17.5449 19.3369C17.5449 18.8526 17.9356 18.4619 18.4199 18.4619C18.9043 18.4619 19.2949 18.8526 19.2949 19.3369C19.2949 19.8212 18.9043 20.2119 18.4199 20.2119C17.9356 20.2119 17.5449 19.8212 17.5449 19.3369Z" fill="#353566"/>
<path fill-rule="evenodd" clip-rule="evenodd" d="M18.4199 15.1702C20.4608 15.1702 22.4649 16.4165 23.4063 18.821C23.5356 19.1513 23.5356 19.5223 23.4063 19.8526C22.4649 22.2572 20.4608 23.5035 18.4199 23.5035C16.3791 23.5035 14.375 22.2572 13.4336 19.8526C13.3043 19.5223 13.3043 19.1513 13.4336 18.821C14.375 16.4165 16.3791 15.1702 18.4199 15.1702ZM18.4199 16.1702C16.81 16.1702 15.1633 17.1459 14.3648 19.1856C14.3272 19.2815 14.3272 19.3921 14.3648 19.4881C15.1633 21.5277 16.81 22.5035 18.4199 22.5035C20.0298 22.5035 21.6765 21.5277 22.4751 19.4881C22.5127 19.3921 22.5127 19.2815 22.4751 19.1856C21.6765 17.1459 20.0298 16.1702 18.4199 16.1702Z" fill="#353566"/>
</g>
<defs>
<clipPath id="clip0_9001_273159">
<rect width="24" height="24" fill="white"/>
</clipPath>
</defs>
</svg>
