<svg width="24" height="24" viewBox="0 0 24 24" fill="none" xmlns="http://www.w3.org/2000/svg">
<path fill-rule="evenodd" clip-rule="evenodd" d="M8.49396 1.25C7.1167 1.25 6.00021 2.36649 6.00021 3.74375C6.00021 3.98676 6.03573 4.22845 6.10564 4.46118L6.64439 6.25468C6.69812 6.43355 6.71833 6.50143 6.73528 6.56871C6.75118 6.63182 6.76517 6.69539 6.77725 6.75934C6.79013 6.82752 6.8003 6.89761 6.82667 7.0825L6.85868 7.307C7.01108 8.37568 7.06355 8.78202 7.02199 9.16551C6.98307 9.52475 6.88451 9.87498 6.73036 10.2018C6.56581 10.5507 6.30913 10.87 5.62175 11.7024L5.43289 11.9311C5.10701 12.3256 4.83003 12.661 4.63755 12.9424C4.44921 13.2177 4.24894 13.5678 4.24402 13.9791C4.2376 14.5158 4.47785 15.0258 4.89579 15.3626C5.21605 15.6207 5.61347 15.6892 5.9457 15.7193C6.28522 15.75 6.72019 15.75 7.23194 15.75H11.2493V22C11.2493 22.4142 11.5851 22.75 11.9993 22.75C12.4135 22.75 12.7493 22.4142 12.7493 22V15.75H16.7647C17.2759 15.75 17.7104 15.75 18.0496 15.7193C18.3816 15.6892 18.7787 15.6208 19.0988 15.3629C19.5167 15.0264 19.7571 14.5168 19.751 13.9803C19.7464 13.5692 19.5467 13.2193 19.3587 12.9439C19.1667 12.6626 18.8903 12.3273 18.5652 11.9329L18.376 11.7033C17.6899 10.8708 17.4337 10.5514 17.2695 10.2026C17.1157 9.87583 17.0175 9.52573 16.9788 9.16668C16.9375 8.78339 16.9902 8.37735 17.143 7.30943L17.176 7.07897C17.2022 6.89559 17.2123 6.82607 17.2251 6.75844C17.2371 6.69501 17.251 6.63196 17.2667 6.56936C17.2835 6.50261 17.3035 6.43527 17.3567 6.25781L17.8953 4.46019C17.9649 4.22793 18.0002 3.98677 18.0002 3.74431C18.0002 2.36674 16.8835 1.25 15.5059 1.25H8.49396ZM16.7291 14.25C17.2856 14.25 17.6511 14.2493 17.9142 14.2254C18.0818 14.2102 18.1524 14.1889 18.1721 14.1823C18.2185 14.1389 18.2465 14.0794 18.2506 14.016C18.2431 13.9966 18.2146 13.9285 18.1198 13.7896C17.9708 13.5714 17.739 13.2888 17.385 12.8594L17.155 12.5803C16.5538 11.8511 16.1664 11.3812 15.9123 10.8413C15.6875 10.3638 15.5439 9.85207 15.4874 9.32731C15.4235 8.73403 15.5099 8.13122 15.644 7.19567L15.6935 6.84996C15.7166 6.68852 15.7315 6.58433 15.7512 6.47982C15.7687 6.38712 15.789 6.29496 15.812 6.20347C15.838 6.10034 15.8682 5.99958 15.915 5.8434L16.4584 4.02968C16.4861 3.9371 16.5002 3.84096 16.5002 3.74431C16.5002 3.19517 16.055 2.75 15.5059 2.75H8.49396C7.94513 2.75 7.50021 3.19492 7.50021 3.74375C7.50021 3.84059 7.51437 3.9369 7.54222 4.02965L8.08584 5.83934C8.13314 5.99677 8.16365 6.09835 8.18984 6.20231C8.21307 6.29454 8.23353 6.38745 8.25119 6.48091C8.27109 6.58627 8.28606 6.69128 8.30926 6.85405L8.35776 7.19405C8.49145 8.13026 8.57758 8.73351 8.51326 9.3271C8.45637 9.85214 8.31232 10.364 8.08704 10.8417C7.83234 11.3817 7.44423 11.8515 6.84191 12.5805L6.61215 12.8588C6.2574 13.2883 6.02496 13.5709 5.87561 13.7893C5.7805 13.9283 5.75193 13.9964 5.7444 14.0159C5.74843 14.0793 5.77647 14.1388 5.82279 14.1823C5.84256 14.1888 5.91329 14.2102 6.08105 14.2254C6.3445 14.2493 6.71044 14.25 7.26755 14.25H16.7291Z" fill="#353566"/>
</svg>
