<svg width="24" height="24" viewBox="0 0 24 24" fill="none" xmlns="http://www.w3.org/2000/svg">
<path opacity="0.4" d="M21 5.5C20.7239 5.5 20.5 5.72386 20.5 6V7.9C20.5 8.88834 20.4996 9.59953 20.454 10.1581C20.4088 10.7108 20.3219 11.0699 20.173 11.362C19.8854 11.9265 19.4265 12.3854 18.862 12.673C18.5699 12.8219 18.2108 12.9088 17.6581 12.954C17.0995 12.9996 16.3883 13 15.4 13H3.5C3.22386 13 3 13.2239 3 13.5C3 13.7761 3.22386 14 3.5 14H15.4225C16.3835 14 17.1355 14 17.7395 13.9507C18.3541 13.9004 18.8594 13.7967 19.316 13.564C20.0686 13.1805 20.6805 12.5686 21.064 11.816C21.2967 11.3594 21.4004 10.8541 21.4507 10.2395C21.5 9.63549 21.5 8.88354 21.5 7.92244V6C21.5 5.72386 21.2761 5.5 21 5.5Z" fill="#353566"/>
<path d="M7.85355 18.3536C8.04882 18.1583 8.04882 17.8417 7.85355 17.6464L3.70711 13.5L7.85355 9.35355C8.04882 9.15829 8.04882 8.84171 7.85355 8.64645C7.65829 8.45118 7.34171 8.45118 7.14645 8.64645L2.64645 13.1464C2.45118 13.3417 2.45118 13.6583 2.64645 13.8536L7.14645 18.3536C7.34171 18.5488 7.65829 18.5488 7.85355 18.3536Z" fill="#353566"/>
</svg>
