<svg width="24" height="24" viewBox="0 0 24 24" fill="none" xmlns="http://www.w3.org/2000/svg">
<path opacity="0.4" d="M11.5 9.20711L6.35355 14.3536C6.15829 14.5488 5.84171 14.5488 5.64645 14.3536C5.45118 14.1583 5.45118 13.8417 5.64645 13.6464L11.6464 7.64645C11.7402 7.55268 11.8674 7.5 12 7.5C12.1326 7.5 12.2598 7.55268 12.3536 7.64645L18.3536 13.6464C18.5488 13.8417 18.5488 14.1583 18.3536 14.3536C18.1583 14.5488 17.8417 14.5488 17.6464 14.3536L12.5 9.20711V21C12.5 21.2761 12.2761 21.5 12 21.5C11.7239 21.5 11.5 21.2761 11.5 21V9.20711Z" fill="#353566"/>
<path d="M21.5 3C21.5 3.27614 21.2761 3.5 21 3.5H3C2.72386 3.5 2.5 3.27614 2.5 3C2.5 2.72386 2.72386 2.5 3 2.5H21C21.2761 2.5 21.5 2.72386 21.5 3Z" fill="#353566"/>
</svg>
