<svg width="24" height="24" viewBox="0 0 24 24" fill="none" xmlns="http://www.w3.org/2000/svg">
<path opacity="0.4" d="M13.0391 16.5814L18.5974 11.2379C19.4413 10.4267 18.867 9.00073 17.6965 9.00073L6.30262 9.00073C5.13205 9.00073 4.5578 10.4267 5.40167 11.2379L10.96 16.5814C11.5406 17.1396 12.4585 17.1396 13.0391 16.5814Z" fill="#353566"/>
<path fill-rule="evenodd" clip-rule="evenodd" d="M10.6135 16.9418C11.3877 17.6861 12.6115 17.6861 13.3856 16.9418L18.944 11.5984C20.1124 10.4751 19.3173 8.50073 17.6965 8.50073L6.30265 8.50073C4.68186 8.50073 3.88675 10.4751 5.05518 11.5984L10.6135 16.9418ZM12.6926 16.2209C12.3055 16.593 11.6936 16.593 11.3065 16.2209L5.74822 10.8775C5.22891 10.3782 5.58229 9.50073 6.30265 9.50073L17.6965 9.50073C18.4168 9.50073 18.7702 10.3782 18.2509 10.8775L12.6926 16.2209Z" fill="#353566"/>
</svg>
