<svg width="24" height="24" viewBox="0 0 24 24" fill="none" xmlns="http://www.w3.org/2000/svg">
<g clip-path="url(#clip0_9001_271089)">
<path fill-rule="evenodd" clip-rule="evenodd" d="M19.974 3.604C20.589 3.917 21.08 4.408 21.394 5.024L21.397 5.022C21.751 5.718 21.751 6.48 21.751 7.998V8.95801C21.7502 8.97191 21.7498 8.98591 21.7498 9V10.7687C21.7482 11.0394 21.7441 11.2811 21.7343 11.5004C21.6173 12.4373 20.8522 13.1728 19.9019 13.2443C19.8517 13.2481 19.801 13.25 19.7498 13.25H19.091C18.8695 12.7721 18.4258 12.4188 17.876 12.295C17.279 12.159 16.678 12.326 16.264 12.742L14.483 14.529L14.481 14.53L14.265 14.748C13.833 15.181 13.656 15.819 13.802 16.413C13.891 16.775 13.815 17.155 13.594 17.455C13.241 17.933 13.245 18.546 13.251 19.255V19.503C13.251 19.924 13.33 20.334 13.485 20.72C13.578 20.952 13.55 21.213 13.411 21.42C13.271 21.626 13.038 21.75 12.789 21.75H6.701C4.763 21.75 3.79 21.75 2.934 21.313C2.177 20.927 1.572 20.322 1.186 19.565C0.75 18.709 0.75 17.737 0.75 15.799V14.4132C1.20463 14.6291 1.7132 14.75 2.25 14.75L8.75 14.75C8.75 15.9926 9.75736 17 11 17C11.8789 17 12.6402 16.496 13.0105 15.7613C13.0377 15.4671 13.1166 15.1789 13.2443 14.9108C13.4476 14.5047 13.5481 14.404 13.7259 14.2257L14.6987 13.25L13.25 13.25C13.25 12.0074 12.2426 11 11 11C9.75736 11 8.75 12.0074 8.75 13.25L2.25 13.25C1.23485 13.25 0.396348 12.4937 0.267241 11.5138C0.25 11.139 0.25 10.6986 0.25 10.159V7.999C0.25 6.481 0.25 5.719 0.604 5.024C0.918 4.409 1.409 3.917 2.024 3.604C2.72 3.25 3.482 3.25 5 3.25H6.251C6.252 2.424 6.265 1.931 6.496 1.479C6.712 1.054 7.052 0.713 7.478 0.496C7.96 0.25 8.471 0.25 9.4 0.25H12.6C13.528 0.25 14.039 0.25 14.521 0.495C14.947 0.712 15.287 1.053 15.504 1.479C15.734 1.931 15.748 2.423 15.748 3.25H16.999C18.517 3.25 19.279 3.25 19.974 3.604ZM8.158 1.831C8.016 1.904 7.902 2.017 7.83 2.159C7.754 2.307 7.748 2.689 7.748 3.25H14.247C14.247 2.689 14.241 2.307 14.166 2.16C14.093 2.017 13.98 1.904 13.838 1.831C13.678 1.749 13.248 1.749 12.598 1.749H9.398C8.748 1.749 8.318 1.749 8.158 1.831Z" fill="#353566"/>
<path d="M11.75 13.9845V13.25C11.75 12.8358 11.4142 12.5 11 12.5C10.5858 12.5 10.25 12.8358 10.25 13.25V14.75C10.25 15.1642 10.5858 15.5 11 15.5C11.4142 15.5 11.75 15.1642 11.75 14.75V14.0155L11.7498 14L11.75 13.9845Z" fill="#353566"/>
<path d="M23 19.25C23.4142 19.25 23.75 18.9142 23.75 18.5V17.5C23.75 16.2574 22.7426 15.25 21.5 15.25H17.3106L18.0303 14.5303C18.3232 14.2374 18.3232 13.7626 18.0303 13.4697C17.7374 13.1768 17.2625 13.1768 16.9696 13.4697L14.9696 15.4697C14.7551 15.6842 14.6909 16.0068 14.807 16.287C14.9231 16.5673 15.1966 16.75 15.4999 16.75H21.5C21.9142 16.75 22.25 17.0858 22.25 17.5V18.5C22.25 18.9142 22.5858 19.25 23 19.25Z" fill="#353566"/>
<path d="M14.25 18.5C14.25 18.0858 14.5858 17.75 15 17.75C15.4142 17.75 15.75 18.0858 15.75 18.5V19.5C15.75 19.9142 16.0858 20.25 16.5 20.25H22.5C22.8033 20.25 23.0768 20.4327 23.1929 20.713C23.309 20.9933 23.2448 21.3158 23.0303 21.5303L21.0303 23.5303C20.7374 23.8232 20.2625 23.8232 19.9696 23.5303C19.6767 23.2374 19.6767 22.7626 19.9696 22.4697L20.6893 21.75H16.5C15.2574 21.75 14.25 20.7426 14.25 19.5V18.5Z" fill="#353566"/>
</g>
<defs>
<clipPath id="clip0_9001_271089">
<rect width="24" height="24" fill="white"/>
</clipPath>
</defs>
</svg>
