<svg width="24" height="24" viewBox="0 0 24 24" fill="none" xmlns="http://www.w3.org/2000/svg">
<g clip-path="url(#clip0_9001_271074)">
<path fill-rule="evenodd" clip-rule="evenodd" d="M9.37085 0.250001H12.6287C13.024 0.249988 13.3651 0.249977 13.646 0.272929C13.9425 0.297155 14.2375 0.350642 14.5212 0.495238C14.9446 0.710953 15.2888 1.05516 15.5045 1.47852C15.6491 1.76231 15.7026 2.05722 15.7268 2.35373C15.7474 2.60556 15.7495 2.90573 15.7497 3.25H17.0312C17.7046 3.24999 18.2553 3.24999 18.7028 3.28655C19.1661 3.3244 19.5845 3.40514 19.9752 3.60423C20.5868 3.91582 21.0839 4.413 21.3955 5.02453C21.5946 5.41527 21.6754 5.83367 21.7132 6.29693C21.7498 6.74449 21.7498 7.29519 21.7498 7.96856V10.1906C21.7498 10.7025 21.7498 11.1414 21.7323 11.5158C21.7012 11.7498 21.6297 11.971 21.525 12.1721C21.5343 12.1804 21.5436 12.1887 21.5528 12.197C21.4819 12.2855 21.3906 12.3582 21.2842 12.4077C21.0393 12.5217 20.7521 12.4952 20.5322 12.3383C19.5714 11.653 18.3963 11.25 17.1249 11.25C14.8834 11.25 12.9339 12.505 11.9429 14.3543C11.5009 15.1789 11.2499 16.1216 11.2499 17.125C11.2499 18.409 11.661 19.5948 12.3588 20.5609C12.5238 20.7892 12.5468 21.0907 12.4186 21.3415C12.2904 21.5923 12.0325 21.7501 11.7508 21.7501H6.66736C5.78474 21.7501 5.07667 21.7501 4.50409 21.7033C3.91576 21.6552 3.40475 21.5541 2.9338 21.3141C2.18115 20.9306 1.56922 20.3187 1.18573 19.566C0.945766 19.0951 0.844595 18.5841 0.796527 17.9957C0.749744 17.4232 0.74975 16.7151 0.749757 15.8325L0.749757 14.4131C1.20443 14.6291 1.71307 14.75 2.24994 14.75L8.74994 14.75C8.74994 15.8217 9.49914 16.7183 10.5023 16.9448C10.5162 16.4276 10.5893 15.9251 10.7151 15.444C10.4421 15.3319 10.2499 15.0634 10.2499 14.75V13.25C10.2499 12.8358 10.5857 12.5 10.9999 12.5C11.4142 12.5 11.7499 12.8358 11.7499 13.25V13.2512C12.0775 12.7975 12.4611 12.3869 12.8905 12.0296C12.4898 11.41 11.7927 11 10.9999 11C9.7573 11 8.74994 12.0074 8.74994 13.25L2.24994 13.25C1.23466 13.25 0.396082 12.4935 0.267133 11.5134C0.253586 11.2221 0.250596 10.8919 0.249939 10.519V9C0.249939 8.9944 0.249878 8.98882 0.249756 8.98325V7.96856C0.249748 7.2952 0.249742 6.74449 0.286308 6.29693C0.324159 5.83367 0.404894 5.41527 0.603986 5.02453C0.915575 4.413 1.41276 3.91582 2.02429 3.60423C2.41503 3.40514 2.83343 3.3244 3.29669 3.28655C3.74425 3.24999 4.29496 3.24999 4.96834 3.25H6.24978C6.24999 2.90573 6.25211 2.60556 6.27269 2.35373C6.29691 2.05722 6.3504 1.76231 6.49499 1.47852C6.71071 1.05516 7.05491 0.710953 7.47828 0.495238C7.76206 0.350642 8.05698 0.297155 8.35349 0.272929C8.63441 0.249977 8.9755 0.249988 9.37085 0.250001ZM14.2318 2.47588C14.2471 2.66274 14.2494 2.90117 14.2497 3.25H7.74981C7.75014 2.90117 7.75244 2.66274 7.7677 2.47588C7.78435 2.27213 7.81261 2.19659 7.8315 2.15951C7.90341 2.01839 8.01814 1.90365 8.15927 1.83175C8.19635 1.81285 8.27189 1.78459 8.47563 1.76795C8.68814 1.75059 8.96734 1.75 9.39976 1.75H12.5998C13.0322 1.75 13.3114 1.75059 13.5239 1.76795C13.7276 1.78459 13.8032 1.81285 13.8403 1.83175C13.9814 1.90365 14.0961 2.01839 14.168 2.15951C14.1869 2.19659 14.2152 2.27213 14.2318 2.47588Z" fill="#353566"/>
<path fill-rule="evenodd" clip-rule="evenodd" d="M17.1249 12.25C14.4326 12.25 12.2499 14.4326 12.2499 17.125C12.2499 19.8174 14.4326 22 17.1249 22C18.2005 22 19.1947 21.6517 20.0009 21.0617L22.4695 23.5303C22.7624 23.8232 23.2373 23.8232 23.5302 23.5303C23.8231 23.2374 23.8231 22.7626 23.5302 22.4697L21.0616 20.001C21.6516 19.1948 21.9999 18.2006 21.9999 17.125C21.9999 14.4326 19.8173 12.25 17.1249 12.25ZM13.7499 17.125C13.7499 15.261 15.261 13.75 17.1249 13.75C18.9889 13.75 20.4999 15.261 20.4999 17.125C20.4999 18.989 18.9889 20.5 17.1249 20.5C15.261 20.5 13.7499 18.989 13.7499 17.125Z" fill="#353566"/>
</g>
<defs>
<clipPath id="clip0_9001_271074">
<rect width="24" height="24" fill="white"/>
</clipPath>
</defs>
</svg>
