<svg width="24" height="24" viewBox="0 0 24 24" fill="none" xmlns="http://www.w3.org/2000/svg">
<path fill-rule="evenodd" clip-rule="evenodd" d="M1.5 1.25C1.08579 1.25 0.75 1.58579 0.75 2C0.75 2.41421 1.08579 2.75 1.5 2.75H2.25L2.25 10.4326C2.24999 11.3851 2.24999 12.1456 2.30018 12.7599C2.35165 13.3899 2.45963 13.9318 2.71322 14.4295C3.12068 15.2291 3.77085 15.8793 4.57054 16.2868C5.06824 16.5404 5.61012 16.6484 6.24013 16.6998C6.85439 16.75 7.61493 16.75 8.56737 16.75H11.25V18.378C10.3761 18.6869 9.75 19.5203 9.75 20.5C9.75 21.7426 10.7574 22.75 12 22.75C13.2426 22.75 14.25 21.7426 14.25 20.5C14.25 19.5203 13.6239 18.6869 12.75 18.378V16.75H15.4326C16.3851 16.75 17.1456 16.75 17.7599 16.6998C18.3899 16.6484 18.9318 16.5404 19.4295 16.2868C20.2291 15.8793 20.8793 15.2291 21.2868 14.4295C21.5404 13.9318 21.6484 13.3899 21.6998 12.7599C21.75 12.1456 21.75 11.385 21.75 10.4326V2.75H22.5C22.9142 2.75 23.25 2.41421 23.25 2C23.25 1.58579 22.9142 1.25 22.5 1.25H1.5ZM11.25 20.5C11.25 20.0858 11.5858 19.75 12 19.75C12.4142 19.75 12.75 20.0858 12.75 20.5C12.75 20.9142 12.4142 21.25 12 21.25C11.5858 21.25 11.25 20.9142 11.25 20.5ZM12 13.2501C11.5858 13.2501 11.25 12.9143 11.25 12.5001L11.25 7.31075L9.53035 9.03042C9.23746 9.32331 8.76258 9.32331 8.46969 9.03042C8.1768 8.73753 8.1768 8.26265 8.46969 7.96976L11.4697 4.96976C11.6103 4.82911 11.8011 4.75009 12 4.75009C12.1989 4.75009 12.3897 4.82911 12.5303 4.96976L15.5303 7.96976C15.8232 8.26265 15.8232 8.73753 15.5303 9.03042C15.2375 9.32331 14.7626 9.32331 14.4697 9.03042L12.75 7.31075L12.75 12.5001C12.75 12.9143 12.4142 13.2501 12 13.2501Z" fill="#353566"/>
</svg>
