<svg width="24" height="24" viewBox="0 0 24 24" fill="none" xmlns="http://www.w3.org/2000/svg">
<path fill-rule="evenodd" clip-rule="evenodd" d="M1.5 1.25C1.08579 1.25 0.75 1.58579 0.75 2C0.75 2.41421 1.08579 2.75 1.5 2.75H2.25L2.25 10.4326C2.24999 11.3851 2.24999 12.1456 2.30018 12.7599C2.35165 13.3899 2.45963 13.9318 2.71322 14.4295C3.12068 15.2291 3.77085 15.8793 4.57054 16.2868C5.06824 16.5404 5.61012 16.6484 6.24013 16.6998C6.85439 16.75 7.61493 16.75 8.56737 16.75H11.25V18.378C10.3761 18.6869 9.75 19.5203 9.75 20.5C9.75 21.7426 10.7574 22.75 12 22.75C13.2426 22.75 14.25 21.7426 14.25 20.5C14.25 19.5203 13.6239 18.6869 12.75 18.378V16.75H15.4326C16.3851 16.75 17.1456 16.75 17.7599 16.6998C18.3899 16.6484 18.9318 16.5404 19.4295 16.2868C20.2291 15.8793 20.8793 15.2291 21.2868 14.4295C21.5404 13.9318 21.6484 13.3899 21.6998 12.7599C21.75 12.1456 21.75 11.385 21.75 10.4326V2.75H22.5C22.9142 2.75 23.25 2.41421 23.25 2C23.25 1.58579 22.9142 1.25 22.5 1.25H1.5ZM11.25 20.5C11.25 20.0858 11.5858 19.75 12 19.75C12.4142 19.75 12.75 20.0858 12.75 20.5C12.75 20.9142 12.4142 21.25 12 21.25C11.5858 21.25 11.25 20.9142 11.25 20.5ZM12 13.25C11.5858 13.25 11.25 12.9142 11.25 12.5V5.5C11.25 5.08579 11.5858 4.75 12 4.75C12.4142 4.75 12.75 5.08579 12.75 5.5V12.5C12.75 12.9142 12.4142 13.25 12 13.25ZM8.5 13.25C8.08579 13.25 7.75 12.9142 7.75 12.5V10C7.75 9.58579 8.08579 9.25 8.5 9.25C8.91421 9.25 9.25 9.58579 9.25 10V12.5C9.25 12.9142 8.91421 13.25 8.5 13.25ZM16.25 12.5C16.25 12.9142 15.9142 13.25 15.5 13.25C15.0858 13.25 14.75 12.9142 14.75 12.5V7.5C14.75 7.08579 15.0858 6.75 15.5 6.75C15.9142 6.75 16.25 7.08579 16.25 7.5V12.5Z" fill="#353566"/>
</svg>
