<svg width="24" height="24" viewBox="0 0 24 24" fill="none" xmlns="http://www.w3.org/2000/svg">
<path fill-rule="evenodd" clip-rule="evenodd" d="M3.5 2.25C3.30109 2.25 3.11032 2.32902 2.96967 2.46967C2.82902 2.61032 2.75 2.80109 2.75 3V6.25H2C1.58579 6.25 1.25 6.58579 1.25 7C1.25 7.41421 1.58579 7.75 2 7.75H2.75V12.25H2C1.58579 12.25 1.25 12.5858 1.25 13C1.25 13.4142 1.58579 13.75 2 13.75H2.75V20.25H2C1.58579 20.25 1.25 20.5858 1.25 21C1.25 21.4142 1.58579 21.75 2 21.75H10C10.4142 21.75 10.75 21.4142 10.75 21C10.75 20.5858 10.4142 20.25 10 20.25H9.25V13.5C9.25 11.9812 10.4812 10.75 12 10.75C13.5188 10.75 14.75 11.9812 14.75 13.5V20.25H14C13.5858 20.25 13.25 20.5858 13.25 21C13.25 21.4142 13.5858 21.75 14 21.75H22C22.4142 21.75 22.75 21.4142 22.75 21C22.75 20.5858 22.4142 20.25 22 20.25H21.25V13.75H22C22.4142 13.75 22.75 13.4142 22.75 13C22.75 12.5858 22.4142 12.25 22 12.25H21.25V7.75H22C22.4142 7.75 22.75 7.41421 22.75 7C22.75 6.58579 22.4142 6.25 22 6.25H21.25V3C21.25 2.58579 20.9142 2.25 20.5 2.25H3.5ZM19.75 6.25V3.75H4.25V6.25H19.75ZM4.25 7.75V12.25H7.9368C8.47058 10.5128 10.0878 9.25 12 9.25C13.9122 9.25 15.5294 10.5128 16.0632 12.25H19.75V7.75H4.25ZM4.25 20.25V13.75H7.75V20.25H4.25ZM16.25 13.75V20.25H19.75V13.75H16.25Z" fill="#353566"/>
</svg>
