<svg width="24" height="24" viewBox="0 0 24 24" fill="none" xmlns="http://www.w3.org/2000/svg">
<g clip-path="url(#clip0_9001_269124)">
<path d="M11.7498 5C11.7498 4.58579 11.414 4.25 10.9998 4.25C10.5855 4.25 10.2498 4.58579 10.2498 5V6.5C10.2498 6.91421 10.5855 7.25 10.9998 7.25C11.414 7.25 11.7498 6.91421 11.7498 6.5V5Z" fill="#353566"/>
<path fill-rule="evenodd" clip-rule="evenodd" d="M9.21578 0.783784C10.2987 0.0727232 11.7005 0.0727227 12.7834 0.783784L20.8462 6.07791C22.5064 7.168 21.7345 9.74973 19.7485 9.74973H2.25073C0.264677 9.74973 -0.507174 7.168 1.15299 6.07791L9.21578 0.783784ZM11.9601 2.03765C11.377 1.65477 10.6222 1.65477 10.0391 2.03765L1.97629 7.33178C1.56125 7.6043 1.75421 8.24973 2.25073 8.24973H19.7485C20.245 8.24973 20.438 7.6043 20.0229 7.33178L11.9601 2.03765Z" fill="#353566"/>
<path d="M4.24976 11.25C4.66397 11.25 4.99976 11.5858 4.99976 12V15C4.99976 15.4142 4.66397 15.75 4.24976 15.75C3.83554 15.75 3.49976 15.4142 3.49976 15V12C3.49976 11.5858 3.83554 11.25 4.24976 11.25Z" fill="#353566"/>
<path d="M8.74976 11.25C9.16397 11.25 9.49976 11.5858 9.49976 12V15C9.49976 15.4142 9.16397 15.75 8.74976 15.75C8.33554 15.75 7.99976 15.4142 7.99976 15V12C7.99976 11.5858 8.33554 11.25 8.74976 11.25Z" fill="#353566"/>
<path d="M13.2498 11.25C13.664 11.25 13.9998 11.5858 13.9998 12V15C13.9998 15.4142 13.664 15.75 13.2498 15.75C12.8355 15.75 12.4998 15.4142 12.4998 15V12C12.4998 11.5858 12.8355 11.25 13.2498 11.25Z" fill="#353566"/>
<path d="M1.74976 18C1.74976 17.5858 2.08554 17.25 2.49976 17.25H14.5268C14.941 17.25 15.2768 17.5858 15.2768 18C15.2768 18.4142 14.941 18.75 14.5268 18.75H2.49976C2.08554 18.75 1.74976 18.4142 1.74976 18Z" fill="#353566"/>
<path d="M0.249756 21C0.249756 20.5858 0.585542 20.25 0.999756 20.25H12.5537C12.9679 20.25 13.3037 20.5858 13.3037 21C13.3037 21.4142 12.9679 21.75 12.5537 21.75H0.999756C0.585542 21.75 0.249756 21.4142 0.249756 21Z" fill="#353566"/>
<path d="M18.9998 20.75C17.4586 20.75 16.0801 21.8117 15.7261 23.1869C15.6229 23.5881 15.214 23.8296 14.8129 23.7263C14.4117 23.6231 14.1702 23.2142 14.2735 22.8131C14.8076 20.7379 16.8133 19.25 18.9998 19.25C21.1863 19.25 23.192 20.7379 23.7261 22.8131C23.8294 23.2142 23.5879 23.6231 23.1868 23.7263C22.7856 23.8296 22.3767 23.5881 22.2735 23.1869C21.9195 21.8117 20.541 20.75 18.9998 20.75Z" fill="#353566"/>
<path fill-rule="evenodd" clip-rule="evenodd" d="M18.9998 12.25C17.3429 12.25 15.9998 13.5931 15.9998 15.25C15.9998 16.9069 17.3429 18.25 18.9998 18.25C20.6566 18.25 21.9998 16.9069 21.9998 15.25C21.9998 13.5931 20.6566 12.25 18.9998 12.25ZM17.4998 15.25C17.4998 14.4216 18.1713 13.75 18.9998 13.75C19.8282 13.75 20.4998 14.4216 20.4998 15.25C20.4998 16.0784 19.8282 16.75 18.9998 16.75C18.1713 16.75 17.4998 16.0784 17.4998 15.25Z" fill="#353566"/>
</g>
<defs>
<clipPath id="clip0_9001_269124">
<rect width="24" height="24" fill="white"/>
</clipPath>
</defs>
</svg>
