<svg width="24" height="24" viewBox="0 0 24 24" fill="none" xmlns="http://www.w3.org/2000/svg">
<path fill-rule="evenodd" clip-rule="evenodd" d="M12.9506 2.83851C14.083 2.46405 15.25 3.30731 15.25 4.50002V9.67411C15.25 10.0883 15.5858 10.4241 16 10.4241C16.4142 10.4241 16.75 10.0883 16.75 9.67411V4.50002C16.75 2.28498 14.5827 0.718926 12.4796 1.41435L2.47965 4.72109C1.14876 5.16118 0.25 6.405 0.25 7.80677V19.5003C0.25 21.2952 1.70508 22.7503 3.5 22.7503H13.5C13.9039 22.7503 14.2922 22.6763 14.651 22.5404C15.0383 22.3937 15.2334 21.9607 15.0867 21.5734C14.94 21.186 14.507 20.9909 14.1197 21.1376C13.928 21.2102 13.7196 21.2503 13.5 21.2503H11.75V17.0002C11.75 16.0337 10.9665 15.2502 10 15.2502H7C6.0335 15.2502 5.25 16.0337 5.25 17.0002V21.2503H3.5C2.5335 21.2503 1.75 20.4668 1.75 19.5003V7.80677C1.75 7.05197 2.23395 6.38222 2.95058 6.14525L12.9506 2.83851ZM10.25 17.0002V21.2503H6.75V17.0002C6.75 16.8621 6.86193 16.7502 7 16.7502H10C10.1381 16.7502 10.25 16.8621 10.25 17.0002Z" fill="#353566"/>
<path d="M10.5 12.2502C10.0858 12.2502 9.75 12.5859 9.75 13.0002C9.75 13.4144 10.0858 13.7502 10.5 13.7502H11.5C11.9142 13.7502 12.25 13.4144 12.25 13.0002C12.25 12.5859 11.9142 12.2502 11.5 12.2502H10.5Z" fill="#353566"/>
<path d="M11.5 10.75C11.9142 10.75 12.25 10.4142 12.25 10C12.25 9.58579 11.9142 9.25 11.5 9.25H10.5C10.0858 9.25 9.75 9.58579 9.75 10C9.75 10.4142 10.0858 10.75 10.5 10.75H11.5Z" fill="#353566"/>
<path d="M7.25 10C7.25 10.4142 6.91421 10.75 6.5 10.75H5.5C5.08579 10.75 4.75 10.4142 4.75 10C4.75 9.58579 5.08579 9.25 5.5 9.25H6.5C6.91421 9.25 7.25 9.58579 7.25 10Z" fill="#353566"/>
<path d="M6.5 13.75C6.91421 13.75 7.25 13.4142 7.25 13C7.25 12.5858 6.91421 12.25 6.5 12.25H5.5C5.08579 12.25 4.75 12.5858 4.75 13C4.75 13.4142 5.08579 13.75 5.5 13.75H6.5Z" fill="#353566"/>
<path fill-rule="evenodd" clip-rule="evenodd" d="M19 13.875C17.8264 13.875 16.875 14.8264 16.875 16C16.875 17.1736 17.8264 18.125 19 18.125C20.1736 18.125 21.125 17.1736 21.125 16C21.125 14.8264 20.1736 13.875 19 13.875ZM18.125 16C18.125 15.5168 18.5168 15.125 19 15.125C19.4833 15.125 19.875 15.5168 19.875 16C19.875 16.4833 19.4833 16.875 19 16.875C18.5168 16.875 18.125 16.4833 18.125 16Z" fill="#353566"/>
<path fill-rule="evenodd" clip-rule="evenodd" d="M14.25 16.002C14.25 13.3791 16.3762 11.25 19.0001 11.25C21.6235 11.25 23.75 13.3766 23.75 16C23.75 18.9 21.45 21.1 19.45 22.6C19.1833 22.8 18.8167 22.8 18.55 22.6C16.5501 21.1001 14.25 18.9001 14.25 16.002ZM19.0001 12.75C17.2056 12.75 15.75 14.2066 15.75 16.002C15.75 17.9406 17.2014 19.6247 19 21.0529C20.7985 19.6248 22.25 17.9405 22.25 16C22.25 14.205 20.795 12.75 19.0001 12.75Z" fill="#353566"/>
</svg>
