<svg width="24" height="24" viewBox="0 0 24 24" fill="none" xmlns="http://www.w3.org/2000/svg">
<path d="M5.7679 1.25H12.2321C13.0449 1.24999 13.7006 1.24999 14.2315 1.29336C14.7781 1.33803 15.2582 1.43239 15.7025 1.65873C16.4081 2.01825 16.9818 2.59193 17.3413 3.29754C17.5676 3.74176 17.662 4.2219 17.7066 4.76853C17.75 5.29944 17.75 5.95505 17.75 6.76788V12.1457C17.75 12.5599 17.4142 12.8957 17 12.8957C16.5858 12.8957 16.25 12.5599 16.25 12.1457V6.8C16.25 5.94755 16.2494 5.35331 16.2116 4.89068C16.1745 4.43681 16.1054 4.17604 16.0048 3.97852C15.7891 3.55516 15.4448 3.21095 15.0215 2.99524C14.824 2.8946 14.5632 2.82547 14.1093 2.78838C13.6467 2.75058 13.0525 2.75 12.2 2.75H5.8C4.94755 2.75 4.35331 2.75058 3.89068 2.78838C3.43681 2.82547 3.17604 2.8946 2.97852 2.99524C2.55516 3.21095 2.21095 3.55516 1.99524 3.97852C1.8946 4.17604 1.82547 4.43681 1.78838 4.89068C1.75058 5.35331 1.75 5.94755 1.75 6.8V17.2C1.75 18.0525 1.75058 18.6467 1.78838 19.1093C1.82547 19.5632 1.8946 19.824 1.99524 20.0215C2.21095 20.4448 2.55516 20.789 2.97852 21.0048C3.17604 21.1054 3.43681 21.1745 3.89068 21.2116C4.34421 21.2487 4.92422 21.25 5.75 21.25V17C5.75 16.0335 6.5335 15.25 7.5 15.25H10.1115C10.5257 15.25 10.8615 15.5858 10.8615 16C10.8615 16.4142 10.5257 16.75 10.1115 16.75H7.5C7.36193 16.75 7.25 16.8619 7.25 17V21.25H10.75V20.3542C10.75 19.9399 11.0858 19.6042 11.5 19.6042C11.9142 19.6042 12.25 19.9399 12.25 20.3542V21.25H12.5C13.2092 21.25 13.7035 21.2496 14.0904 21.2232C14.4706 21.1973 14.692 21.1487 14.861 21.0787C15.0704 20.992 15.2634 20.8751 15.4348 20.7332C15.7539 20.469 16.2267 20.5135 16.4908 20.8326C16.755 21.1516 16.7104 21.6244 16.3914 21.8886C16.1057 22.1251 15.784 22.32 15.4351 22.4645C15.0528 22.6229 14.6491 22.6886 14.1925 22.7197C13.7485 22.75 13.203 22.75 12.5266 22.75H5.76788C4.95505 22.75 4.29944 22.75 3.76853 22.7066C3.2219 22.662 2.74176 22.5676 2.29754 22.3413C1.59193 21.9817 1.01825 21.4081 0.658726 20.7025C0.432386 20.2582 0.338026 19.7781 0.293364 19.2315C0.249988 18.7006 0.249993 18.045 0.25 17.2321V6.7679C0.249993 5.95507 0.249988 5.29944 0.293364 4.76853C0.338026 4.2219 0.432386 3.74176 0.658726 3.29754C1.01825 2.59193 1.59193 2.01825 2.29754 1.65873C2.74176 1.43239 3.2219 1.33803 3.76853 1.29336C4.29944 1.24999 4.95507 1.24999 5.7679 1.25Z" fill="#353566"/>
<path d="M10.25 13C10.25 12.5858 10.5858 12.25 11 12.25H12C12.4142 12.25 12.75 12.5858 12.75 13C12.75 13.4142 12.4142 13.75 12 13.75H11C10.5858 13.75 10.25 13.4142 10.25 13Z" fill="#353566"/>
<path d="M12.75 10C12.75 10.4142 12.4142 10.75 12 10.75H11C10.5858 10.75 10.25 10.4142 10.25 10C10.25 9.58579 10.5858 9.25 11 9.25H12C12.4142 9.25 12.75 9.58579 12.75 10Z" fill="#353566"/>
<path d="M12 7.75C12.4142 7.75 12.75 7.41421 12.75 7C12.75 6.58579 12.4142 6.25 12 6.25H11C10.5858 6.25 10.25 6.58579 10.25 7C10.25 7.41421 10.5858 7.75 11 7.75H12Z" fill="#353566"/>
<path d="M7.75 10C7.75 10.4142 7.41421 10.75 7 10.75H6C5.58579 10.75 5.25 10.4142 5.25 10C5.25 9.58579 5.58579 9.25 6 9.25H7C7.41421 9.25 7.75 9.58579 7.75 10Z" fill="#353566"/>
<path d="M7 7.75C7.41421 7.75 7.75 7.41421 7.75 7C7.75 6.58579 7.41421 6.25 7 6.25H6C5.58579 6.25 5.25 6.58579 5.25 7C5.25 7.41421 5.58579 7.75 6 7.75H7Z" fill="#353566"/>
<path d="M7.75 13C7.75 13.4142 7.41421 13.75 7 13.75H6C5.58579 13.75 5.25 13.4142 5.25 13C5.25 12.5858 5.58579 12.25 6 12.25H7C7.41421 12.25 7.75 12.5858 7.75 13Z" fill="#353566"/>
<path fill-rule="evenodd" clip-rule="evenodd" d="M14.5 14.75C13.2574 14.75 12.25 15.7574 12.25 17C12.25 18.2426 13.2574 19.25 14.5 19.25C15.0196 19.25 15.498 19.0739 15.8789 18.7781L19.2508 20.4641C19.2506 20.476 19.2505 20.488 19.2505 20.5C19.2505 21.7426 20.2578 22.75 21.5005 22.75C22.7431 22.75 23.7505 21.7426 23.7505 20.5C23.7505 19.2574 22.7431 18.25 21.5005 18.25C20.8098 18.25 20.1917 18.5612 19.779 19.0511L16.6924 17.5078C16.7301 17.3446 16.75 17.1746 16.75 17C16.75 16.8254 16.7301 16.6554 16.6924 16.4922L19.779 14.9489C20.1917 15.4388 20.8098 15.75 21.5005 15.75C22.7431 15.75 23.7505 14.7426 23.7505 13.5C23.7505 12.2574 22.7431 11.25 21.5005 11.25C20.2578 11.25 19.2505 12.2574 19.2505 13.5L19.2508 13.5359L15.8789 15.2219C15.498 14.9261 15.0196 14.75 14.5 14.75ZM13.75 17C13.75 16.5858 14.0858 16.25 14.5 16.25C14.9142 16.25 15.25 16.5858 15.25 17C15.25 17.4142 14.9142 17.75 14.5 17.75C14.0858 17.75 13.75 17.4142 13.75 17ZM21.5005 12.75C21.0863 12.75 20.7505 13.0858 20.7505 13.5C20.7505 13.9142 21.0863 14.25 21.5005 14.25C21.9147 14.25 22.2505 13.9142 22.2505 13.5C22.2505 13.0858 21.9147 12.75 21.5005 12.75ZM20.7505 20.5C20.7505 20.0858 21.0863 19.75 21.5005 19.75C21.9147 19.75 22.2505 20.0858 22.2505 20.5C22.2505 20.9142 21.9147 21.25 21.5005 21.25C21.0863 21.25 20.7505 20.9142 20.7505 20.5Z" fill="#353566"/>
</svg>
