<svg width="24" height="24" viewBox="0 0 24 24" fill="none" xmlns="http://www.w3.org/2000/svg">
<path d="M12.2321 1.25H5.7679C4.95507 1.24999 4.29944 1.24999 3.76853 1.29336C3.2219 1.33803 2.74176 1.43239 2.29754 1.65873C1.59193 2.01825 1.01825 2.59193 0.658726 3.29754C0.432386 3.74176 0.338026 4.2219 0.293364 4.76853C0.249988 5.29944 0.249993 5.95504 0.25 6.76787V17.2321C0.249993 18.0449 0.249988 18.7006 0.293364 19.2315C0.338026 19.7781 0.432386 20.2582 0.658726 20.7025C1.01825 21.4081 1.59193 21.9817 2.29754 22.3413C2.74176 22.5676 3.2219 22.662 3.76853 22.7066C4.29944 22.75 4.95505 22.75 5.76788 22.75H11.9524C12.3666 22.75 12.7024 22.4142 12.7024 22C12.7024 21.6915 12.5162 21.4265 12.25 21.3113V21.2951C12.25 20.8809 11.9142 20.5451 11.5 20.5451C11.1009 20.5451 10.7746 20.8568 10.7513 21.25H7.25V17C7.25 16.8619 7.36193 16.75 7.5 16.75H10.5L10.5094 16.7502C10.9234 16.7648 11.2708 16.4411 11.2854 16.0271C11.3 15.6131 10.9763 15.2657 10.5624 15.2511C10.5418 15.2504 10.521 15.25 10.5 15.25H7.5C6.5335 15.25 5.75 16.0335 5.75 17V21.25C4.92422 21.25 4.34421 21.2487 3.89068 21.2116C3.43681 21.1745 3.17604 21.1054 2.97852 21.0048C2.55516 20.789 2.21095 20.4448 1.99524 20.0215C1.8946 19.824 1.82547 19.5632 1.78838 19.1093C1.75058 18.6467 1.75 18.0525 1.75 17.2V6.8C1.75 5.94755 1.75058 5.35331 1.78838 4.89068C1.82547 4.43681 1.8946 4.17604 1.99524 3.97852C2.21095 3.55516 2.55516 3.21095 2.97852 2.99524C3.17604 2.8946 3.43681 2.82547 3.89068 2.78838C4.35331 2.75058 4.94755 2.75 5.8 2.75H12.2C13.0525 2.75 13.6467 2.75058 14.1093 2.78838C14.5632 2.82547 14.824 2.8946 15.0215 2.99524C15.4448 3.21095 15.7891 3.55516 16.0048 3.97852C16.1054 4.17604 16.1745 4.43681 16.2116 4.89068C16.2494 5.35331 16.25 5.94755 16.25 6.8V9.05098C16.25 9.4652 16.5858 9.80098 17 9.80098C17.4142 9.80098 17.75 9.4652 17.75 9.05098V6.76788C17.75 5.95505 17.75 5.29944 17.7066 4.76853C17.662 4.2219 17.5676 3.74176 17.3413 3.29754C16.9818 2.59193 16.4081 2.01825 15.7025 1.65873C15.2582 1.43239 14.7781 1.33803 14.2315 1.29336C13.7006 1.24999 13.0449 1.24999 12.2321 1.25Z" fill="#353566"/>
<path d="M11 12.25C10.5858 12.25 10.25 12.5858 10.25 13C10.25 13.4142 10.5858 13.75 11 13.75H11.3299C11.7441 13.75 12.0799 13.4142 12.0799 13C12.0799 12.5858 11.7441 12.25 11.3299 12.25H11Z" fill="#353566"/>
<path d="M12 10.75C12.4142 10.75 12.75 10.4142 12.75 10C12.75 9.58579 12.4142 9.25 12 9.25H11C10.5858 9.25 10.25 9.58579 10.25 10C10.25 10.4142 10.5858 10.75 11 10.75H12Z" fill="#353566"/>
<path d="M12.75 7C12.75 7.41421 12.4142 7.75 12 7.75H11C10.5858 7.75 10.25 7.41421 10.25 7C10.25 6.58579 10.5858 6.25 11 6.25H12C12.4142 6.25 12.75 6.58579 12.75 7Z" fill="#353566"/>
<path d="M7 10.75C7.41421 10.75 7.75 10.4142 7.75 10C7.75 9.58579 7.41421 9.25 7 9.25H6C5.58579 9.25 5.25 9.58579 5.25 10C5.25 10.4142 5.58579 10.75 6 10.75H7Z" fill="#353566"/>
<path d="M7.75 7C7.75 7.41421 7.41421 7.75 7 7.75H6C5.58579 7.75 5.25 7.41421 5.25 7C5.25 6.58579 5.58579 6.25 6 6.25H7C7.41421 6.25 7.75 6.58579 7.75 7Z" fill="#353566"/>
<path d="M7 13.75C7.41421 13.75 7.75 13.4142 7.75 13C7.75 12.5858 7.41421 12.25 7 12.25H6C5.58579 12.25 5.25 12.5858 5.25 13C5.25 13.4142 5.58579 13.75 6 13.75H7Z" fill="#353566"/>
<path fill-rule="evenodd" clip-rule="evenodd" d="M18.25 15.125C17.2145 15.125 16.375 15.9645 16.375 17C16.375 18.0355 17.2145 18.875 18.25 18.875C19.2855 18.875 20.125 18.0355 20.125 17C20.125 15.9645 19.2855 15.125 18.25 15.125ZM17.625 17C17.625 16.6548 17.9048 16.375 18.25 16.375C18.5952 16.375 18.875 16.6548 18.875 17C18.875 17.3452 18.5952 17.625 18.25 17.625C17.9048 17.625 17.625 17.3452 17.625 17Z" fill="#353566"/>
<path fill-rule="evenodd" clip-rule="evenodd" d="M12.9679 19.3368C12.5193 18.5584 12.785 17.5624 13.5634 17.1121C13.6492 17.0625 13.6492 16.9374 13.5634 16.8878C12.785 16.4375 12.5193 15.4415 12.9679 14.6631L13.5876 13.5878C14.0367 12.8085 15.0325 12.5405 15.8118 12.9912C15.8949 13.0393 16.0026 12.9805 16.0026 12.8791C16.0026 11.9806 16.7301 11.25 17.6302 11.25H18.8697C19.7699 11.25 20.4973 11.9807 20.4973 12.8792C20.4973 12.9806 20.6051 13.0393 20.6882 12.9913C21.4674 12.5406 22.4632 12.8086 22.9123 13.5878L23.5321 14.6631C23.9807 15.4416 23.715 16.4376 22.9365 16.8878C22.8508 16.9374 22.8508 17.0625 22.9365 17.1121C23.715 17.5623 23.9807 18.5583 23.5321 19.3367L22.9123 20.4121C22.4632 21.1913 21.4674 21.4593 20.6882 21.0086C20.6052 20.9606 20.4973 21.0192 20.4973 21.1208C20.4973 22.0193 19.7699 22.75 18.8697 22.75H17.6303C16.7301 22.75 16.0026 22.0193 16.0026 21.1208C16.0026 21.0193 15.8948 20.9606 15.8118 21.0086C15.0325 21.4594 14.0367 21.1913 13.5876 20.4121L12.9679 19.3368ZM14.3144 18.4106C14.2534 18.4459 14.2315 18.5253 14.2675 18.5878L14.8872 19.6631C14.9228 19.7249 15.0005 19.745 15.0607 19.7102C16.1478 19.0814 17.5026 19.8688 17.5026 21.1208C17.5026 21.1934 17.5611 21.25 17.6303 21.25H18.8697C18.9389 21.25 18.9973 21.1934 18.9973 21.1208C18.9973 19.8688 20.3521 19.0814 21.4392 19.7101C21.4995 19.745 21.5771 19.7248 21.6127 19.6631L22.2325 18.5877C22.2685 18.5252 22.2466 18.4458 22.1855 18.4105C21.1012 17.7833 21.1012 16.2165 22.1855 15.5893C22.2466 15.5541 22.2685 15.4747 22.2325 15.4121L21.6127 14.3368C21.5771 14.275 21.4995 14.2549 21.4392 14.2897C20.3521 14.9185 18.9973 14.1312 18.9973 12.8792C18.9973 12.8066 18.9389 12.75 18.8697 12.75H17.6302C17.561 12.75 17.5026 12.8066 17.5026 12.8791C17.5026 14.1312 16.1478 14.9184 15.0608 14.2897C15.0005 14.2548 14.9228 14.275 14.8872 14.3368L14.2675 15.4121C14.2315 15.4746 14.2534 15.554 14.3144 15.5893C15.3988 16.2165 15.3988 17.7834 14.3144 18.4106Z" fill="#353566"/>
</svg>
