<svg width="24" height="24" viewBox="0 0 24 24" fill="none" xmlns="http://www.w3.org/2000/svg">
<path fill-rule="evenodd" clip-rule="evenodd" d="M5.7679 1.25H12.2321C13.0449 1.24999 13.7006 1.24999 14.2315 1.29336C14.7781 1.33803 15.2582 1.43239 15.7025 1.65873C16.4081 2.01825 16.9818 2.59193 17.3413 3.29754C17.5676 3.74176 17.662 4.2219 17.7066 4.76853C17.75 5.29944 17.75 5.95505 17.75 6.76788V10.0559C17.75 10.4702 17.4142 10.8059 17 10.8059C16.5858 10.8059 16.25 10.4702 16.25 10.0559V6.8C16.25 5.94755 16.2494 5.35331 16.2116 4.89068C16.1745 4.43681 16.1054 4.17604 16.0048 3.97852C15.7891 3.55516 15.4448 3.21095 15.0215 2.99524C14.824 2.8946 14.5632 2.82547 14.1093 2.78838C13.6467 2.75058 13.0525 2.75 12.2 2.75H5.8C4.94755 2.75 4.35331 2.75058 3.89068 2.78838C3.43681 2.82547 3.17604 2.8946 2.97852 2.99524C2.55516 3.21095 2.21095 3.55516 1.99524 3.97852C1.8946 4.17604 1.82547 4.43681 1.78838 4.89068C1.75058 5.35331 1.75 5.94755 1.75 6.8V17.2C1.75 18.0525 1.75058 18.6467 1.78838 19.1093C1.82547 19.5632 1.8946 19.824 1.99524 20.0215C2.21095 20.4448 2.55516 20.789 2.97852 21.0048C3.17604 21.1054 3.43681 21.1745 3.89068 21.2116C4.34421 21.2487 4.92422 21.25 5.75 21.25V17C5.75 16.0335 6.5335 15.25 7.5 15.25H10.5C11.4665 15.25 12.25 16.0335 12.25 17V21.25H12.5C13.8515 21.25 14.3914 21.24 14.7781 21.1098C15.1707 20.9775 15.5961 21.1886 15.7283 21.5811C15.8605 21.9737 15.6495 22.3991 15.2569 22.5313C14.6056 22.7507 13.797 22.7504 12.6477 22.75L5.76788 22.75C4.95505 22.75 4.29944 22.75 3.76853 22.7066C3.2219 22.662 2.74176 22.5676 2.29754 22.3413C1.59193 21.9817 1.01825 21.4081 0.658726 20.7025C0.432386 20.2582 0.338026 19.7781 0.293364 19.2315C0.249988 18.7006 0.249993 18.045 0.25 17.2321V6.7679C0.249993 5.95507 0.249988 5.29944 0.293364 4.76853C0.338026 4.2219 0.432386 3.74176 0.658726 3.29754C1.01825 2.59193 1.59193 2.01825 2.29754 1.65873C2.74176 1.43239 3.2219 1.33803 3.76853 1.29336C4.29944 1.24999 4.95507 1.24999 5.7679 1.25ZM7.25 21.25H10.75V17C10.75 16.8619 10.6381 16.75 10.5 16.75H7.5C7.36193 16.75 7.25 16.8619 7.25 17V21.25Z" fill="#353566"/>
<path d="M10.25 13C10.25 12.5858 10.5858 12.25 11 12.25H12C12.4142 12.25 12.75 12.5858 12.75 13C12.75 13.4142 12.4142 13.75 12 13.75H11C10.5858 13.75 10.25 13.4142 10.25 13Z" fill="#353566"/>
<path d="M12.75 10C12.75 10.4142 12.4142 10.75 12 10.75H11C10.5858 10.75 10.25 10.4142 10.25 10C10.25 9.58579 10.5858 9.25 11 9.25H12C12.4142 9.25 12.75 9.58579 12.75 10Z" fill="#353566"/>
<path d="M12 7.75C12.4142 7.75 12.75 7.41421 12.75 7C12.75 6.58579 12.4142 6.25 12 6.25H11C10.5858 6.25 10.25 6.58579 10.25 7C10.25 7.41421 10.5858 7.75 11 7.75H12Z" fill="#353566"/>
<path d="M7.75 10C7.75 10.4142 7.41421 10.75 7 10.75H6C5.58579 10.75 5.25 10.4142 5.25 10C5.25 9.58579 5.58579 9.25 6 9.25H7C7.41421 9.25 7.75 9.58579 7.75 10Z" fill="#353566"/>
<path d="M7 7.75C7.41421 7.75 7.75 7.41421 7.75 7C7.75 6.58579 7.41421 6.25 7 6.25H6C5.58579 6.25 5.25 6.58579 5.25 7C5.25 7.41421 5.58579 7.75 6 7.75H7Z" fill="#353566"/>
<path d="M7.75 13C7.75 13.4142 7.41421 13.75 7 13.75H6C5.58579 13.75 5.25 13.4142 5.25 13C5.25 12.5858 5.58579 12.25 6 12.25H7C7.41421 12.25 7.75 12.5858 7.75 13Z" fill="#353566"/>
<path fill-rule="evenodd" clip-rule="evenodd" d="M20.7509 12.5007C20.7509 11.3184 19.2624 10.7981 18.5248 11.72L14.5248 16.7194C13.8696 17.5383 14.4536 18.7498 15.501 18.7498H17.2509V21.4992C17.2509 22.6815 18.7395 23.2017 19.477 22.2799L23.477 17.2804C24.1322 16.4615 23.5482 15.25 22.5009 15.25H20.7509V12.5007ZM16.0215 17.2498L19.2509 13.2135V15.5003C19.2509 16.1909 19.8109 16.75 20.5009 16.75H21.9803L18.7509 20.7864V18.4996C18.7509 17.809 18.1909 17.2498 17.5009 17.2498H16.0215Z" fill="#353566"/>
</svg>
