<svg width="24" height="24" viewBox="0 0 24 24" fill="none" xmlns="http://www.w3.org/2000/svg">
<path d="M10.5468 0.787134C11.3857 0.0774663 12.6144 0.0774656 13.4532 0.787133L22.4844 8.42752C22.8006 8.69505 22.8401 9.16828 22.5726 9.48451C22.3051 9.80074 21.8318 9.84022 21.5156 9.57269L20.5 8.71348V10.0104C20.5 10.4246 20.1642 10.7604 19.75 10.7604C19.3358 10.7604 19 10.4246 19 10.0104V7.44448L12.4844 1.9323C12.2048 1.69574 11.7952 1.69574 11.5156 1.9323L5 7.44451V16.5998C5 17.3823 5.00058 17.924 5.03498 18.345C5.06865 18.7572 5.13097 18.987 5.21799 19.1578C5.40973 19.5342 5.7157 19.8401 6.09202 20.0319C6.2628 20.1189 6.49269 20.1812 6.90488 20.2149C7.25002 20.2431 7.67636 20.2485 8.25 20.2496V14.0001C8.25 13.0336 9.0335 12.2501 10 12.2501H14C14.6087 12.2501 15.1444 12.5615 15.4568 13.0302C15.6865 13.3749 15.5933 13.8405 15.2487 14.0702C14.904 14.3 14.4384 14.2068 14.2086 13.8621C14.1626 13.793 14.0861 13.7501 14 13.7501H10C9.86193 13.7501 9.75 13.862 9.75 14.0001V20.2498H14.0242C14.4384 20.2498 14.7742 20.5856 14.7742 20.9998C14.7742 21.4141 14.4384 21.7498 14.0242 21.7498H9.01812L9 21.7501L8.98188 21.7498H8.61819C7.87515 21.7499 7.27195 21.7499 6.78273 21.7099C6.27778 21.6686 5.82851 21.5811 5.41103 21.3684C4.75247 21.0328 4.21703 20.4974 3.88148 19.8388C3.66876 19.4213 3.58121 18.9721 3.53996 18.4671C3.49999 17.9779 3.49999 17.3747 3.5 16.6316L3.5 8.71351L2.48442 9.57269C2.16819 9.84022 1.69496 9.80074 1.42743 9.48451C1.1599 9.16828 1.19938 8.69505 1.51561 8.42752L10.5468 0.787134Z" fill="#353566"/>
<path d="M20.25 13.0001C20.25 12.5858 19.9143 12.2501 19.5 12.2501C19.0858 12.2501 18.75 12.5858 18.75 13.0001V13.5548C18.1846 13.6409 17.6689 13.8301 17.2476 14.1352C16.6235 14.5873 16.25 15.2671 16.25 16.0817C16.25 17.1333 16.8341 17.7918 17.5087 18.1694C18.1359 18.5205 18.8815 18.6573 19.3767 18.7398C19.8815 18.824 20.3859 18.9309 20.7587 19.1396C21.0841 19.3217 21.25 19.5391 21.25 19.9183C21.25 20.2323 21.1235 20.4683 20.8726 20.65C20.5993 20.8479 20.1435 21 19.5 21C19.0594 21 18.7858 20.9529 18.5266 20.85C18.2498 20.7403 17.9411 20.5483 17.4528 20.1785C17.1226 19.9285 16.6522 19.9935 16.4021 20.3237C16.1521 20.6539 16.2171 21.1243 16.5473 21.3744C17.059 21.7619 17.5003 22.0567 17.9735 22.2444C18.2316 22.3467 18.4857 22.4121 18.75 22.4512V23C18.75 23.4143 19.0858 23.75 19.5 23.75C19.9143 23.75 20.25 23.4143 20.25 23V22.4453C20.8154 22.3592 21.3312 22.17 21.7525 21.8648C22.3766 21.4128 22.75 20.733 22.75 19.9183C22.75 18.8668 22.166 18.2083 21.4914 17.8307C20.8642 17.4796 20.1186 17.3428 19.6233 17.2602C19.1186 17.1761 18.6142 17.0692 18.2414 16.8605C17.916 16.6783 17.75 16.461 17.75 16.0817C17.75 15.7678 17.8766 15.5318 18.1275 15.3501C18.4008 15.1521 18.8566 15 19.5 15C19.9407 15 20.2143 15.0472 20.4735 15.15C20.7503 15.2598 21.059 15.4518 21.5473 15.8215C21.8775 16.0716 22.3479 16.0066 22.598 15.6763C22.848 15.3461 22.783 14.8757 22.4528 14.6257C21.9411 14.2382 21.4998 13.9434 21.0266 13.7557C20.7685 13.6533 20.5143 13.5879 20.25 13.5489V13.0001Z" fill="#353566"/>
</svg>
