<svg width="24" height="24" viewBox="0 0 24 24" fill="none" xmlns="http://www.w3.org/2000/svg">
<path d="M17.5 4C17.5 2.61929 18.6193 1.5 20 1.5C21.3807 1.5 22.5 2.61929 22.5 4C22.5 5.38071 21.3807 6.5 20 6.5C18.6193 6.5 17.5 5.38071 17.5 4Z" fill="#353566"/>
<path fill-rule="evenodd" clip-rule="evenodd" d="M7.56739 2.25L15.1 2.25C15.3251 2.25 15.5383 2.35108 15.6807 2.52534C15.8232 2.6996 15.8798 2.92863 15.835 3.1492C15.7794 3.42348 15.75 3.70793 15.75 4C15.75 6.34721 17.6528 8.25 20 8.25C20.2921 8.25 20.5765 8.22065 20.8508 8.16497C21.0714 8.1202 21.3004 8.17685 21.4747 8.31929C21.6489 8.46174 21.75 8.67491 21.75 8.89998V13.4327C21.75 14.3851 21.75 15.1456 21.6998 15.7599C21.6483 16.3899 21.5404 16.9318 21.2868 17.4295C20.8793 18.2291 20.2291 18.8793 19.4295 19.2868C18.9318 19.5404 18.3899 19.6483 17.7599 19.6998C17.1456 19.75 16.385 19.75 15.4326 19.75H15.2995C14.7773 19.75 14.6743 19.7578 14.5921 19.783C14.4969 19.8122 14.4085 19.8601 14.332 19.9238C14.266 19.9788 14.2032 20.0609 13.9178 20.4981L13.9169 20.4994L13.45 21.2147C13.2419 21.5336 13.0585 21.8145 12.8901 22.0275C12.7162 22.2473 12.4935 22.4815 12.1766 22.6144C11.7438 22.7959 11.2562 22.7959 10.8234 22.6144C10.5065 22.4815 10.2838 22.2473 10.1099 22.0275C9.94144 21.8145 9.75804 21.5335 9.54993 21.2146L9.08224 20.4981C8.79685 20.0609 8.73398 19.9788 8.66798 19.9238C8.59149 19.8601 8.50306 19.8122 8.40786 19.783C8.32573 19.7578 8.22267 19.75 7.70054 19.75H7.5673C6.6149 19.75 5.85438 19.75 5.24013 19.6998C4.61012 19.6483 4.06824 19.5404 3.57054 19.2868C2.77085 18.8793 2.12068 18.2291 1.71322 17.4295C1.45963 16.9318 1.35165 16.3899 1.30018 15.7599C1.24999 15.1456 1.24999 14.3851 1.25 13.4326V8.56738C1.24999 7.61495 1.24999 6.85439 1.30018 6.24013C1.35165 5.61012 1.45963 5.06824 1.71322 4.57054C2.12068 3.77085 2.77085 3.12068 3.57054 2.71322C4.06824 2.45963 4.61012 2.35165 5.24013 2.30018C5.8544 2.24999 6.61494 2.24999 7.56739 2.25ZM16 9.75L7 9.75C6.58579 9.75 6.25 9.41421 6.25 9C6.25 8.58579 6.58579 8.25 7 8.25H16C16.4142 8.25 16.75 8.58579 16.75 9C16.75 9.41421 16.4142 9.75 16 9.75ZM12 13.75H7C6.58579 13.75 6.25 13.4142 6.25 13C6.25 12.5858 6.58579 12.25 7 12.25H12C12.4142 12.25 12.75 12.5858 12.75 13C12.75 13.4142 12.4142 13.75 12 13.75Z" fill="#353566"/>
</svg>
