<svg width="24" height="24" viewBox="0 0 24 24" fill="none" xmlns="http://www.w3.org/2000/svg">
<g clip-path="url(#clip0_9001_274525)">
<path fill-rule="evenodd" clip-rule="evenodd" d="M12.9501 20.2146L13.4169 19.4994L13.4178 19.4981C13.7032 19.0609 13.766 18.9788 13.832 18.9238C13.9085 18.8601 13.9969 18.8122 14.0921 18.783C14.1743 18.7578 14.2773 18.75 14.7995 18.75H15.1265C15.4072 18.75 15.6644 18.5933 15.7931 18.3438C15.9217 18.0944 15.9004 17.794 15.7377 17.5652C15.273 16.9121 15 16.1147 15 15.25C15 13.0409 16.7909 11.25 19 11.25C19.6031 11.25 20.173 11.3829 20.6839 11.6204C20.9161 11.7284 21.1874 11.7104 21.4034 11.5726C21.6193 11.4349 21.75 11.1964 21.75 10.9403V6.56737C21.75 5.61496 21.75 4.85438 21.6998 4.24013C21.6483 3.61012 21.5404 3.06824 21.2868 2.57054C20.8793 1.77085 20.2291 1.12068 19.4295 0.713223C18.9318 0.459634 18.3899 0.35165 17.7599 0.300176C17.1456 0.249989 16.3851 0.249994 15.4326 0.25H6.56739C5.61495 0.249994 4.85439 0.249989 4.24013 0.300176C3.61012 0.35165 3.06824 0.459634 2.57054 0.713223C1.77085 1.12068 1.12068 1.77085 0.713223 2.57054C0.459634 3.06824 0.35165 3.61012 0.300176 4.24013C0.249989 4.85439 0.249994 5.61493 0.25 6.56737V12.4326C0.249994 13.385 0.249989 14.1456 0.300176 14.7599C0.35165 15.3899 0.459634 15.9318 0.713223 16.4295C1.12068 17.2291 1.77085 17.8793 2.57054 18.2868C3.06824 18.5404 3.61012 18.6483 4.24013 18.6998C4.85438 18.75 5.6149 18.75 6.5673 18.75H7.20054C7.72267 18.75 7.82573 18.7578 7.90786 18.783C8.00306 18.8122 8.09149 18.8601 8.16798 18.9238C8.23398 18.9788 8.29685 19.0609 8.58224 19.4981L9.04993 20.2146C9.25804 20.5335 9.44144 20.8145 9.60993 21.0275C9.78375 21.2473 10.0065 21.4815 10.3234 21.6144C10.7562 21.7959 11.2438 21.7959 11.6766 21.6144C11.9935 21.4815 12.2162 21.2473 12.3901 21.0275C12.5585 20.8145 12.742 20.5334 12.9501 20.2146ZM13.4169 19.4994L12.79 19.0883L13.3897 19.5381C13.3992 19.5255 13.4083 19.5126 13.4169 19.4994ZM6 9.5C6 8.94771 6.44772 8.5 7 8.5C7.55228 8.5 8.0001 8.94771 8.0001 9.5C8.0001 10.0523 7.55238 10.5 7.0001 10.5C6.44782 10.5 6 10.0523 6 9.5ZM10 9.5C10 8.94771 10.4477 8.5 11 8.5C11.5523 8.5 12.0001 8.94771 12.0001 9.5C12.0001 10.0523 11.5524 10.5 11.0001 10.5C10.4478 10.5 10 10.0523 10 9.5ZM14 9.5C14 8.94771 14.4477 8.5 15 8.5C15.5523 8.5 16.0001 8.94771 16.0001 9.5C16.0001 10.0523 15.5523 10.5 15 10.5C14.4477 10.5 14 10.0523 14 9.5Z" fill="#353566"/>
<path d="M19 19.5C16.921 19.5 15.0199 20.9168 14.5158 22.8754C14.4773 23.0251 14.5101 23.1842 14.6048 23.3063C14.6995 23.4285 14.8454 23.5 15 23.5H23C23.1546 23.5 23.3005 23.4285 23.3952 23.3063C23.4899 23.1842 23.5228 23.0251 23.4842 22.8754C22.9801 20.9168 21.0789 19.5 19 19.5Z" fill="#353566"/>
<path d="M19 12.5C17.4812 12.5 16.25 13.7312 16.25 15.25C16.25 16.7688 17.4812 18 19 18C20.5188 18 21.75 16.7688 21.75 15.25C21.75 13.7312 20.5188 12.5 19 12.5Z" fill="#353566"/>
</g>
<defs>
<clipPath id="clip0_9001_274525">
<rect width="24" height="24" fill="white"/>
</clipPath>
</defs>
</svg>
