<svg width="24" height="24" viewBox="0 0 24 24" fill="none" xmlns="http://www.w3.org/2000/svg">
<g clip-path="url(#clip0_9001_269036)">
<g opacity="0.4">
<path d="M12.7834 0.783784C11.7005 0.0727227 10.2987 0.0727232 9.21578 0.783785L1.15299 6.07791C-0.507174 7.168 0.264677 9.74973 2.25073 9.74973H19.7485C21.7345 9.74973 22.5064 7.168 20.8462 6.07791L12.7834 0.783784Z" fill="#353566"/>
<path d="M1.74976 18C1.74976 17.5858 2.08554 17.25 2.49976 17.25H9.99976C10.414 17.25 10.7498 17.5858 10.7498 18C10.7498 18.4142 10.414 18.75 9.99976 18.75H2.49976C2.08554 18.75 1.74976 18.4142 1.74976 18Z" fill="#353566"/>
<path d="M0.249756 21C0.249756 20.5858 0.585542 20.25 0.999756 20.25H10.5813C10.9955 20.25 11.3313 20.5858 11.3313 21C11.3313 21.4142 10.9955 21.75 10.5813 21.75H0.999756C0.585542 21.75 0.249756 21.4142 0.249756 21Z" fill="#353566"/>
</g>
<path d="M11 4.25C11.4142 4.25 11.75 4.58579 11.75 5V6.5C11.75 6.91421 11.4142 7.25 11 7.25C10.5858 7.25 10.25 6.91421 10.25 6.5V5C10.25 4.58579 10.5858 4.25 11 4.25Z" fill="#353566"/>
<path d="M4.25 11.25C4.66421 11.25 5 11.5858 5 12V15C5 15.4142 4.66421 15.75 4.25 15.75C3.83579 15.75 3.5 15.4142 3.5 15V12C3.5 11.5858 3.83579 11.25 4.25 11.25Z" fill="#353566"/>
<path d="M8.75 11.25C9.16421 11.25 9.5 11.5858 9.5 12V15C9.5 15.4142 9.16421 15.75 8.75 15.75C8.33579 15.75 8 15.4142 8 15V12C8 11.5858 8.33579 11.25 8.75 11.25Z" fill="#353566"/>
<path fill-rule="evenodd" clip-rule="evenodd" d="M23.75 18C23.75 14.8244 21.1756 12.25 18 12.25C14.8244 12.25 12.25 14.8244 12.25 18C12.25 21.1756 14.8244 23.75 18 23.75C21.1756 23.75 23.75 21.1756 23.75 18ZM18 13.75C20.3472 13.75 22.25 15.6528 22.25 18C22.25 18.9027 21.9686 19.7397 21.4886 20.428L15.572 14.5114C16.2603 14.0314 17.0973 13.75 18 13.75ZM18 22.25C18.9027 22.25 19.7397 21.9686 20.428 21.4886L14.5114 15.572C14.0314 16.2603 13.75 17.0973 13.75 18C13.75 20.3472 15.6528 22.25 18 22.25Z" fill="#353566"/>
</g>
<defs>
<clipPath id="clip0_9001_269036">
<rect width="24" height="24" fill="white"/>
</clipPath>
</defs>
</svg>
