<svg width="24" height="24" viewBox="0 0 24 24" fill="none" xmlns="http://www.w3.org/2000/svg">
<g clip-path="url(#clip0_9001_269066)">
<g opacity="0.4">
<path d="M12.7837 0.783784C11.7007 0.0727227 10.299 0.0727232 9.21603 0.783785L1.15323 6.07791C-0.50693 7.168 0.264921 9.74973 2.25097 9.74973H19.7487C21.7348 9.74973 22.5066 7.168 20.8465 6.07791L12.7837 0.783784Z" fill="#353566"/>
<path d="M1.75 18C1.75 17.5858 2.08579 17.25 2.5 17.25H10.0887C10.5029 17.25 10.8387 17.5858 10.8387 18C10.8387 18.4142 10.5029 18.75 10.0887 18.75H2.5C2.08579 18.75 1.75 18.4142 1.75 18Z" fill="#353566"/>
<path d="M0.25 21C0.25 20.5858 0.585786 20.25 1 20.25H11.8721C12.2863 20.25 12.6221 20.5858 12.6221 21C12.6221 21.4142 12.2863 21.75 11.8721 21.75H1C0.585786 21.75 0.25 21.4142 0.25 21Z" fill="#353566"/>
</g>
<path d="M11 4.25C11.4142 4.25 11.75 4.58579 11.75 5V6.5C11.75 6.91421 11.4142 7.25 11 7.25C10.5858 7.25 10.25 6.91421 10.25 6.5V5C10.25 4.58579 10.5858 4.25 11 4.25Z" fill="#353566"/>
<path d="M4.25 11.25C4.66421 11.25 5 11.5858 5 12V15C5 15.4142 4.66421 15.75 4.25 15.75C3.83579 15.75 3.5 15.4142 3.5 15V12C3.5 11.5858 3.83579 11.25 4.25 11.25Z" fill="#353566"/>
<path d="M8.75 11.25C9.16421 11.25 9.5 11.5858 9.5 12V15C9.5 15.4142 9.16421 15.75 8.75 15.75C8.33579 15.75 8 15.4142 8 15V12C8 11.5858 8.33579 11.25 8.75 11.25Z" fill="#353566"/>
<path d="M13.25 11.25C13.6642 11.25 14 11.5858 14 12V13.72C14 14.1342 13.6642 14.47 13.25 14.47C12.8358 14.47 12.5 14.1342 12.5 13.72V12C12.5 11.5858 12.8358 11.25 13.25 11.25Z" fill="#353566"/>
<path d="M16.9866 13.6365C17.3957 12.7878 18.6043 12.7878 19.0133 13.6365L20.0786 15.8464L22.5198 16.165C23.4614 16.2879 23.8366 17.45 23.1446 18.1003L21.3664 19.7713L21.8141 22.1646C21.9878 23.0935 21.0083 23.8097 20.1759 23.3625L18 22.1934L15.824 23.3625C14.9916 23.8097 14.0121 23.0935 14.1858 22.1646L14.6335 19.7713L12.8553 18.1003C12.1633 17.45 12.5385 16.2879 13.4801 16.165L15.9213 15.8464L16.9866 13.6365Z" fill="#353566"/>
</g>
<defs>
<clipPath id="clip0_9001_269066">
<rect width="24" height="24" fill="white"/>
</clipPath>
</defs>
</svg>
