<svg width="24" height="24" viewBox="0 0 24 24" fill="none" xmlns="http://www.w3.org/2000/svg">
<path opacity="0.4" d="M20.25 4.49978C20.25 2.28474 18.0827 0.718682 15.9796 1.4141L5.97965 4.72085C4.64876 5.16094 3.75 6.40476 3.75 7.80652V19.5001C3.75 21.295 5.20508 22.7501 7 22.7501H17C18.7949 22.7501 20.25 21.295 20.25 19.5001V4.49978Z" fill="#353566"/>
<path d="M10.75 9.5C10.75 9.91421 10.4142 10.25 10 10.25H9C8.58579 10.25 8.25 9.91421 8.25 9.5C8.25 9.08579 8.58579 8.75 9 8.75H10C10.4142 8.75 10.75 9.08579 10.75 9.5Z" fill="#353566"/>
<path d="M15 10.25C15.4142 10.25 15.75 9.91421 15.75 9.5C15.75 9.08579 15.4142 8.75 15 8.75H14C13.5858 8.75 13.25 9.08579 13.25 9.5C13.25 9.91421 13.5858 10.25 14 10.25H15Z" fill="#353566"/>
<path d="M15 13.25C15.4142 13.25 15.75 12.9142 15.75 12.5C15.75 12.0858 15.4142 11.75 15 11.75H14C13.5858 11.75 13.25 12.0858 13.25 12.5C13.25 12.9142 13.5858 13.25 14 13.25H15Z" fill="#353566"/>
<path d="M10 13.25C10.4142 13.25 10.75 12.9142 10.75 12.5C10.75 12.0858 10.4142 11.75 10 11.75H9C8.58579 11.75 8.25 12.0858 8.25 12.5C8.25 12.9142 8.58579 13.25 9 13.25H10Z" fill="#353566"/>
<path d="M10.2501 15.75C9.55971 15.75 9.00006 16.3096 9.00006 17V22.75H15.0001V17C15.0001 16.3096 14.4404 15.75 13.7501 15.75H10.2501Z" fill="#353566"/>
</svg>
