<svg width="24" height="24" viewBox="0 0 24 24" fill="none" xmlns="http://www.w3.org/2000/svg">
<path opacity="0.4" d="M12.6318 1.25H5.36821C4.62513 1.24999 4.02197 1.24999 3.53273 1.28996C3.02778 1.33121 2.57851 1.41876 2.16103 1.63148C1.50247 1.96703 0.967035 2.50247 0.631478 3.16103C0.418761 3.57851 0.331214 4.02778 0.289958 4.53273C0.249986 5.02197 0.249992 5.62512 0.25 6.3682V17.6318C0.249992 18.3749 0.249986 18.978 0.289958 19.4673C0.331214 19.9722 0.418762 20.4215 0.631478 20.839C0.967034 21.4975 1.50247 22.033 2.16103 22.3685C2.57851 22.5812 3.02778 22.6688 3.53273 22.71C4.02195 22.75 4.62507 22.75 5.36811 22.75H12.6031C12.933 22.75 13.233 22.75 13.5037 22.7469C13.8244 22.7433 14.1074 22.5361 14.2077 22.2315C14.3079 21.9268 14.2034 21.5921 13.9475 21.3987C13.879 21.3469 13.813 21.2891 13.7503 21.2251L11.7504 19.1851C11.4254 18.8537 11.2454 18.4067 11.2501 17.9425C11.2547 17.4784 11.4436 17.0351 11.7751 16.7102L13.7751 14.7502C14.2835 14.2519 15.0201 14.1252 15.6458 14.3727L16.1653 14.5783C16.3637 14.6569 16.5862 14.6471 16.777 14.5517C16.9678 14.4562 17.1089 14.2839 17.165 14.0781L17.3118 13.5389C17.3718 13.3185 17.471 13.1205 17.5996 12.9493C17.6972 12.8194 17.75 12.6613 17.75 12.4989V6.36819C17.75 5.62515 17.75 5.02195 17.71 4.53273C17.6688 4.02778 17.5812 3.57851 17.3685 3.16103C17.033 2.50247 16.4975 1.96703 15.839 1.63148C15.4215 1.41876 14.9722 1.33121 14.4673 1.28996C13.978 1.24999 13.3749 1.24999 12.6318 1.25Z" fill="#353566"/>
<path d="M12 7.25C12.4142 7.25 12.75 6.91421 12.75 6.5C12.75 6.08579 12.4142 5.75 12 5.75H11C10.5858 5.75 10.25 6.08579 10.25 6.5C10.25 6.91421 10.5858 7.25 11 7.25H12Z" fill="#353566"/>
<path d="M12.75 9.5C12.75 9.91421 12.4142 10.25 12 10.25H11C10.5858 10.25 10.25 9.91421 10.25 9.5C10.25 9.08579 10.5858 8.75 11 8.75H12C12.4142 8.75 12.75 9.08579 12.75 9.5Z" fill="#353566"/>
<path d="M11 11.75C10.5858 11.75 10.25 12.0858 10.25 12.5C10.25 12.9142 10.5858 13.25 11 13.25H12C12.4142 13.25 12.75 12.9142 12.75 12.5C12.75 12.0858 12.4142 11.75 12 11.75H11Z" fill="#353566"/>
<path d="M7.25 15.75C6.55964 15.75 6 16.3096 6 17V22C6 22.4142 6.33579 22.75 6.75 22.75H11.25C11.6642 22.75 12 22.4142 12 22V19.7461C12 19.5498 11.923 19.3612 11.7856 19.221L11.7504 19.1851C11.4254 18.8537 11.2454 18.4067 11.2501 17.9425C11.2536 17.5906 11.363 17.2506 11.5603 16.9651C11.6888 16.7792 11.7266 16.5452 11.6632 16.3283C11.5998 16.1114 11.4419 15.9346 11.2335 15.8472C11.0838 15.7843 10.9199 15.75 10.75 15.75H7.25Z" fill="#353566"/>
<path d="M7.75 9.5C7.75 9.91421 7.41421 10.25 7 10.25H6C5.58579 10.25 5.25 9.91421 5.25 9.5C5.25 9.08579 5.58579 8.75 6 8.75H7C7.41421 8.75 7.75 9.08579 7.75 9.5Z" fill="#353566"/>
<path d="M7 7.25C7.41421 7.25 7.75 6.91421 7.75 6.5C7.75 6.08579 7.41421 5.75 7 5.75H6C5.58579 5.75 5.25 6.08579 5.25 6.5C5.25 6.91421 5.58579 7.25 6 7.25H7Z" fill="#353566"/>
<path d="M7.75 12.5C7.75 12.9142 7.41421 13.25 7 13.25H6C5.58579 13.25 5.25 12.9142 5.25 12.5C5.25 12.0858 5.58579 11.75 6 11.75H7C7.41421 11.75 7.75 12.0858 7.75 12.5Z" fill="#353566"/>
<path d="M15.5249 16.5357C15.8208 16.2457 15.8256 15.7709 15.5357 15.4751C15.2457 15.1792 14.7709 15.1744 14.4751 15.4643L12.4751 17.4243C12.333 17.5636 12.252 17.7536 12.25 17.9525C12.248 18.1514 12.3252 18.343 12.4644 18.485L14.4644 20.525C14.7544 20.8208 15.2292 20.8255 15.525 20.5356C15.8208 20.2456 15.8255 19.7707 15.5355 19.475L14.0607 17.9706L15.5249 16.5357Z" fill="#353566"/>
<path d="M20.4641 15.4753C20.7538 15.1793 21.2287 15.1743 21.5247 15.4641L23.5247 17.4221C23.6668 17.5612 23.7479 17.7512 23.75 17.9501C23.752 18.1491 23.675 18.3407 23.5358 18.4828L21.5358 20.5248C21.246 20.8207 20.7711 20.8256 20.4752 20.5358C20.1793 20.246 20.1744 19.7711 20.4642 19.4752L21.9393 17.9691L20.4753 16.5359C20.1793 16.2462 20.1743 15.7713 20.4641 15.4753Z" fill="#353566"/>
<path d="M19.7276 14.1818C19.8281 13.78 19.5837 13.3728 19.1819 13.2723C18.7801 13.1719 18.3728 13.4162 18.2724 13.818L16.2724 21.818C16.1719 22.2199 16.4162 22.6271 16.8181 22.7275C17.2199 22.828 17.6271 22.5837 17.7276 22.1818L19.7276 14.1818Z" fill="#353566"/>
</svg>
