<svg width="24" height="24" viewBox="0 0 24 24" fill="none" xmlns="http://www.w3.org/2000/svg">
<path opacity="0.4" d="M16.75 4.50002C16.75 2.28498 14.5827 0.718926 12.4796 1.41435L2.47965 4.72109C1.14876 5.16118 0.25 6.405 0.25 7.80677V19.5003C0.25 21.2952 1.70508 22.7503 3.5 22.7503H12.8225C13.0776 22.7503 13.3152 22.6207 13.4532 22.4062C13.5912 22.1917 13.6108 21.9218 13.5051 21.6896C13.3425 21.3324 13.25 20.9349 13.25 20.5C13.25 19.4873 13.771 18.6129 14.5359 18.0392C15.0035 17.6884 15.5416 17.4836 16.1681 17.3395C16.5087 17.2612 16.75 16.9581 16.75 16.6086V4.50002Z" fill="#353566"/>
<path d="M6.5 10.25C6.91421 10.25 7.25 9.91421 7.25 9.5C7.25 9.08579 6.91421 8.75 6.5 8.75H5.5C5.08579 8.75 4.75 9.08579 4.75 9.5C4.75 9.91421 5.08579 10.25 5.5 10.25H6.5Z" fill="#353566"/>
<path d="M12.25 9.5C12.25 9.91421 11.9142 10.25 11.5 10.25H10.5C10.0858 10.25 9.75 9.91421 9.75 9.5C9.75 9.08579 10.0858 8.75 10.5 8.75H11.5C11.9142 8.75 12.25 9.08579 12.25 9.5Z" fill="#353566"/>
<path d="M10.5 11.75C10.0858 11.75 9.75 12.0858 9.75 12.5C9.75 12.9142 10.0858 13.25 10.5 13.25H11.5C11.9142 13.25 12.25 12.9142 12.25 12.5C12.25 12.0858 11.9142 11.75 11.5 11.75H10.5Z" fill="#353566"/>
<path d="M6.75 15.75C6.05964 15.75 5.5 16.3096 5.5 17V22C5.5 22.4142 5.83579 22.75 6.25 22.75H10.75C11.1642 22.75 11.5 22.4142 11.5 22V17C11.5 16.3096 10.9404 15.75 10.25 15.75H6.75Z" fill="#353566"/>
<path d="M7.25 12.5C7.25 12.9142 6.91421 13.25 6.5 13.25H5.5C5.08579 13.25 4.75 12.9142 4.75 12.5C4.75 12.0858 5.08579 11.75 5.5 11.75H6.5C6.91421 11.75 7.25 12.0858 7.25 12.5Z" fill="#353566"/>
<path d="M22.6009 15.22L19.5005 16.1243V20.4909L19.5005 20.4999C19.5005 21.0643 19.2114 21.5881 18.7147 21.9607C18.2232 22.3293 17.601 22.5001 17.0003 22.5001C16.3995 22.5001 15.7773 22.3293 15.2859 21.9607C14.7891 21.5881 14.5 21.0643 14.5 20.4999C14.5 19.9355 14.7891 19.4117 15.2859 19.0391C15.7773 18.6705 16.3995 18.4997 17.0003 18.4997C17.5167 18.4997 18.049 18.6259 18.5005 18.8956V13.709C18.5005 13.0423 18.9405 12.4556 19.5806 12.2689L22.0609 11.5455C22.7809 11.3355 23.501 11.8755 23.501 12.6255V14.0199C23.501 14.5755 23.1343 15.0644 22.6009 15.22Z" fill="#353566"/>
</svg>
