<svg width="24" height="24" viewBox="0 0 24 24" fill="none" xmlns="http://www.w3.org/2000/svg">
<path opacity="0.4" d="M12.9264 1.36292C12.3185 1.20797 11.6815 1.20797 11.0737 1.36292C10.3829 1.53901 9.76874 1.98167 8.87845 2.62331L4.12813 6.0436C3.24381 6.68003 2.67428 7.08991 2.25556 7.62639C1.88552 8.10049 1.60888 8.64056 1.44035 9.21788C1.24964 9.87116 1.24979 10.5728 1.25002 11.6624L1.25003 16.4326C1.25003 17.385 1.25002 18.1456 1.30021 18.7598C1.35168 19.3898 1.45966 19.9317 1.71325 20.4294C2.12072 21.2291 2.77088 21.8793 3.57057 22.2867C4.06827 22.5403 4.61015 22.6483 5.24016 22.6998C5.85441 22.75 6.61493 22.75 7.56734 22.75H16.4327C17.3851 22.75 18.1457 22.75 18.7599 22.6998C19.3899 22.6483 19.9318 22.5403 20.4295 22.2867C21.2292 21.8793 21.8793 21.2291 22.2868 20.4294C22.5404 19.9317 22.6484 19.3898 22.6999 18.7598C22.75 18.1456 22.75 17.3851 22.75 16.4327L22.75 11.6624C22.7503 10.5728 22.7504 9.87116 22.5597 9.21788C22.3912 8.64056 22.1145 8.10049 21.7445 7.62639C21.3258 7.08991 20.7563 6.68003 19.8719 6.0436L15.1216 2.62331C14.2313 1.98167 13.6171 1.53901 12.9264 1.36292Z" fill="#353566"/>
<path d="M11.25 10L11.25 14C11.25 14.4142 11.5858 14.75 12 14.75C12.4142 14.75 12.75 14.4142 12.75 14V10C12.75 9.58579 12.4142 9.25 12 9.25C11.5858 9.25 11.25 9.58579 11.25 10Z" fill="#353566"/>
<path d="M12 16.5C11.4477 16.5 11 16.9477 11 17.5C11 18.0523 11.4477 18.5 12 18.5C12.5523 18.5 13.0001 18.0523 13.0001 17.5C13.0001 16.9477 12.5523 16.5 12 16.5Z" fill="#353566"/>
</svg>
