<svg width="24" height="24" viewBox="0 0 24 24" fill="none" xmlns="http://www.w3.org/2000/svg">
<g clip-path="url(#clip0_9001_268636)">
<path opacity="0.4" d="M12.4532 0.787134C11.6144 0.0774654 10.3856 0.0774664 9.5468 0.787133L0.515611 8.42752C0.199382 8.69505 0.159903 9.16828 0.427433 9.48451C0.694962 9.80074 1.16819 9.84022 1.48442 9.57269L2.50002 8.71349V18.2498C2.50002 20.1828 4.06702 21.7498 6.00002 21.7498H11.8872C12.1552 21.7498 12.4029 21.6068 12.5368 21.3747C12.6708 21.1425 12.6706 20.8565 12.5365 20.6245L12.514 20.5856C12.1198 19.9037 12.192 19.1739 12.5675 18.2944C12.6478 18.1063 12.6478 17.8936 12.5675 17.7054C12.192 16.826 12.1198 16.0962 12.514 15.4143L13.1357 14.339C13.5303 13.6565 14.2011 13.3526 15.1537 13.236C15.3558 13.2113 15.5392 13.1055 15.6617 12.9429C16.2375 12.1786 16.8358 11.75 17.6283 11.75H18.75C19.1642 11.75 19.5 11.4142 19.5 11V8.71349L20.5156 9.57269C20.8318 9.84022 21.3051 9.80074 21.5726 9.48451C21.8401 9.16828 21.8006 8.69505 21.4844 8.42752L12.4532 0.787134Z" fill="#353566"/>
<path d="M9.5468 0.787134C10.3857 0.0774663 11.6144 0.0774656 12.4532 0.787133L21.4844 8.42752C21.8006 8.69505 21.8401 9.16828 21.5726 9.48451C21.3051 9.80074 20.8318 9.84022 20.5156 9.57269L11.4844 1.9323C11.2048 1.69574 10.7952 1.69574 10.5156 1.9323L1.48442 9.57269C1.16819 9.84022 0.694962 9.80074 0.427433 9.48451C0.159903 9.16828 0.199382 8.69505 0.515611 8.42752L9.5468 0.787134Z" fill="#353566"/>
<path d="M7.75 14.5001C7.75 13.8097 8.30964 13.2501 9 13.2501H12.4653C12.7334 13.2501 12.981 13.3931 13.115 13.6253C13.2489 13.8574 13.2488 14.1434 13.1146 14.3755L12.514 15.4143C12.1197 16.0963 12.192 16.826 12.5675 17.7055C12.6478 17.8936 12.6478 18.1064 12.5675 18.2945C12.192 19.174 12.1197 19.9037 12.514 20.5857L12.5365 20.6247C12.6707 20.8567 12.6708 21.1427 12.5369 21.3749C12.4029 21.607 12.1553 21.7501 11.8873 21.7501H7.75V14.5001Z" fill="#353566"/>
<path fill-rule="evenodd" clip-rule="evenodd" d="M13.8138 18.545C13.2745 18.8569 13.09 19.5474 13.4012 20.0872L14.0209 21.1625C14.3321 21.7026 15.0219 21.888 15.5615 21.5759C15.9792 21.3343 16.5027 21.6358 16.5027 22.1209C16.5027 22.7441 17.0071 23.2501 17.6303 23.2501H18.8697C19.4929 23.2501 19.9974 22.7441 19.9974 22.1208C19.9974 21.6358 20.5209 21.3342 20.9386 21.5758C21.4782 21.8879 22.1679 21.7025 22.4792 21.1625L23.0989 20.0871C23.41 19.5473 23.2256 18.8569 22.6863 18.545C22.2677 18.3028 22.2677 17.6972 22.6863 17.455C23.2256 17.1431 23.41 16.4527 23.0989 15.9129L22.4792 14.8375C22.1679 14.2975 21.4782 14.1121 20.9386 14.4242C20.5209 14.6658 19.9974 14.3642 19.9974 13.8792C19.9974 13.256 19.4929 12.7501 18.8698 12.7501H17.6303C17.0071 12.7501 16.5027 13.256 16.5027 13.8792C16.5027 14.3642 15.9792 14.6657 15.5615 14.4241C15.0219 14.112 14.3321 14.2974 14.0209 14.8375L13.4012 15.9128C13.09 16.4526 13.2745 17.1431 13.8138 17.455C14.2325 17.6971 14.2325 18.3029 13.8138 18.545ZM19.75 18.0001C19.75 18.8285 19.0784 19.5001 18.25 19.5001C17.4216 19.5001 16.75 18.8285 16.75 18.0001C16.75 17.1716 17.4216 16.5001 18.25 16.5001C19.0784 16.5001 19.75 17.1716 19.75 18.0001Z" fill="#353566"/>
</g>
<defs>
<clipPath id="clip0_9001_268636">
<rect width="24" height="24" fill="white"/>
</clipPath>
</defs>
</svg>
