<svg width="24" height="24" viewBox="0 0 24 24" fill="none" xmlns="http://www.w3.org/2000/svg">
<path d="M9.69768 1.50002H13.3023C13.7011 1.49979 14.0021 1.49961 14.2839 1.58388C14.5321 1.6581 14.7636 1.77984 14.9654 1.94234C15.1945 2.12682 15.3648 2.37495 15.5906 2.7037L16.4816 3.99985C17.4145 3.99987 18.1479 4.00087 18.7395 4.0492C19.3541 4.09941 19.8594 4.20319 20.316 4.43583C21.0686 4.81932 21.6805 5.43124 22.064 6.18389C22.2955 6.63819 22.3994 7.1407 22.4499 7.75102C22.4999 8.35551 22.5 9.10804 22.5 10.0703C22.5 10.3464 22.2761 10.5703 22 10.5703C21.7239 10.5703 21.5 10.3465 21.5 10.0703C21.5 9.09206 21.4991 8.38735 21.4533 7.83348C21.4079 7.28545 21.3211 6.9285 21.173 6.63788C20.8854 6.0734 20.4265 5.61446 19.862 5.32683C19.5699 5.178 19.2108 5.09104 18.6581 5.04588C18.0995 5.00024 17.3883 4.99985 16.4 4.99985H16.2186C16.054 4.99985 15.8999 4.9188 15.8066 4.78312L14.8032 3.32364C14.5242 2.91781 14.4387 2.80214 14.3382 2.72119C14.2373 2.63995 14.1215 2.57907 13.9974 2.54196C13.8738 2.50499 13.73 2.50005 13.2375 2.50005H9.76247C9.26998 2.50005 9.12621 2.50499 9.00256 2.54196C8.87845 2.57907 8.76274 2.63995 8.66184 2.72119C8.56133 2.80214 8.47581 2.91781 8.19679 3.32364L7.19341 4.78312C7.10013 4.9188 6.94603 4.99985 6.78138 4.99985H6.6C5.61166 4.99985 4.90047 5.00024 4.34192 5.04588C3.78921 5.09104 3.43014 5.178 3.13803 5.32683C2.57354 5.61446 2.1146 6.0734 1.82698 6.63788C1.67814 6.92999 1.59118 7.28907 1.54602 7.84178C1.50039 8.40033 1.5 9.11151 1.5 10.0999V14.8999C1.5 15.8882 1.50039 16.5994 1.54602 17.1579C1.59118 17.7106 1.67814 18.0697 1.82698 18.3618C2.1146 18.9263 2.57354 19.3853 3.13803 19.6729C3.43014 19.8217 3.78921 19.9087 4.34192 19.9538C4.90047 19.9995 5.61166 19.9999 6.6 19.9999H10.8041C11.0803 19.9999 11.3041 20.2237 11.3041 20.4999C11.3041 20.776 11.0803 20.9999 10.8041 20.9999H6.57754C5.61646 20.9999 4.86451 20.9999 4.26049 20.9505C3.64594 20.9003 3.14062 20.7965 2.68404 20.5639C1.93139 20.1804 1.31947 19.5685 0.935974 18.8158C0.703335 18.3592 0.599556 17.8539 0.549345 17.2394C0.499995 16.6353 0.499997 15.8834 0.5 14.9223V10.0774C0.499997 9.11632 0.499995 8.36437 0.549345 7.76035C0.599556 7.14579 0.703335 6.64047 0.935974 6.18389C1.31947 5.43124 1.93139 4.81932 2.68404 4.43583C3.14062 4.20319 3.64594 4.09941 4.26049 4.0492C4.85206 4.00087 5.58552 3.99987 6.51837 3.99985L7.40944 2.70371C7.63517 2.37496 7.80555 2.12682 8.03464 1.94234C8.23643 1.77984 8.46786 1.6581 8.71608 1.58388C8.9979 1.49961 9.29889 1.49979 9.69768 1.50002Z" fill="#353566"/>
<path d="M7 12.5C7 10.0148 9.01472 8.00005 11.5 8.00005C12.8252 8.00005 14.0172 8.57353 14.84 9.4843C15.0251 9.68921 15.0091 10.0054 14.8042 10.1905C14.5993 10.3756 14.2831 10.3596 14.098 10.1547C13.4567 9.44491 12.5307 9.00005 11.5 9.00005C9.567 9.00005 8 10.5671 8 12.5C8 13.9805 8.91934 15.2474 10.2201 15.7588C10.4771 15.8598 10.6035 16.15 10.5025 16.407C10.4015 16.664 10.1112 16.7905 9.85422 16.6894C8.18383 16.0328 7 14.4053 7 12.5Z" fill="#353566"/>
<path d="M18.5 14.5C18.5 14.2239 18.2761 14 18 14C17.7239 14 17.5 14.2239 17.5 14.5V17.0001C17.5 17.1672 17.5836 17.3234 17.7227 17.4161L19.2227 18.416C19.4524 18.5692 19.7629 18.5071 19.916 18.2773C20.0692 18.0476 20.0071 17.7371 19.7773 17.584L18.5 16.7325V14.5Z" fill="#353566"/>
<path fill-rule="evenodd" clip-rule="evenodd" d="M12.5 17C12.5 13.9624 14.9624 11.5 18 11.5C21.0376 11.5 23.5 13.9624 23.5 17C23.5 20.0376 21.0376 22.5 18 22.5C14.9624 22.5 12.5 20.0376 12.5 17ZM18 12.5C15.5147 12.5 13.5 14.5147 13.5 17C13.5 19.4853 15.5147 21.5 18 21.5C20.4853 21.5 22.5 19.4853 22.5 17C22.5 14.5147 20.4853 12.5 18 12.5Z" fill="#353566"/>
</svg>
