<svg width="24" height="24" viewBox="0 0 24 24" fill="none" xmlns="http://www.w3.org/2000/svg">
<path d="M9.69768 1.50002C9.29889 1.49979 8.9979 1.49961 8.71608 1.58388C8.46786 1.6581 8.23643 1.77984 8.03464 1.94234C7.80555 2.12682 7.63517 2.37496 7.40944 2.70371L6.51837 3.99985C5.58552 3.99987 4.85206 4.00087 4.26049 4.0492C3.64594 4.09941 3.14062 4.20319 2.68404 4.43583C1.93139 4.81932 1.31947 5.43124 0.935974 6.18389C0.703335 6.64047 0.599556 7.14579 0.549345 7.76035C0.499995 8.36437 0.499997 9.11631 0.5 10.0774V14.9223C0.499997 15.8834 0.499995 16.6353 0.549345 17.2394C0.599556 17.8539 0.703335 18.3592 0.935974 18.8158C1.31947 19.5685 1.93139 20.1804 2.68404 20.5639C3.14062 20.7965 3.64594 20.9003 4.26049 20.9505C4.86451 20.9999 5.61646 20.9999 6.57754 20.9999H10.8041C11.0803 20.9999 11.3041 20.776 11.3041 20.4999C11.3041 20.2237 11.0803 19.9999 10.8041 19.9999H6.6C5.61166 19.9999 4.90047 19.9995 4.34192 19.9538C3.78921 19.9087 3.43014 19.8217 3.13803 19.6729C2.57354 19.3853 2.1146 18.9263 1.82698 18.3618C1.67814 18.0697 1.59118 17.7106 1.54602 17.1579C1.50039 16.5994 1.5 15.8882 1.5 14.8999V10.0999C1.5 9.11151 1.50039 8.40033 1.54602 7.84178C1.59118 7.28907 1.67814 6.92999 1.82698 6.63788C2.1146 6.0734 2.57354 5.61446 3.13803 5.32683C3.43014 5.178 3.78921 5.09104 4.34192 5.04588C4.90047 5.00024 5.61166 4.99985 6.6 4.99985H6.78138C6.94603 4.99985 7.10013 4.9188 7.19341 4.78312L8.19679 3.32364C8.47581 2.91781 8.56133 2.80214 8.66184 2.72119C8.76274 2.63995 8.87845 2.57907 9.00256 2.54196C9.12621 2.50499 9.26998 2.50005 9.76247 2.50005H13.2375C13.73 2.50005 13.8738 2.50499 13.9974 2.54196C14.1215 2.57907 14.2373 2.63995 14.3382 2.72119C14.4387 2.80214 14.5242 2.91781 14.8032 3.32364L15.8066 4.78312C15.8999 4.9188 16.054 4.99985 16.2186 4.99985H16.4C17.3883 4.99985 18.0995 5.00024 18.6581 5.04588C19.2108 5.09104 19.5699 5.178 19.862 5.32683C20.4265 5.61446 20.8854 6.0734 21.173 6.63788C21.3211 6.9285 21.4079 7.28545 21.4533 7.83348C21.4991 8.38735 21.5 9.09206 21.5 10.0703C21.5 10.3465 21.7239 10.5703 22 10.5703C22.2761 10.5703 22.5 10.3464 22.5 10.0703C22.5 9.10804 22.4999 8.35551 22.4499 7.75102C22.3994 7.1407 22.2955 6.63819 22.064 6.18389C21.6805 5.43124 21.0686 4.81932 20.316 4.43583C19.8594 4.20319 19.3541 4.09941 18.7395 4.0492C18.1479 4.00087 17.4145 3.99987 16.4816 3.99985L15.5906 2.7037C15.3648 2.37495 15.1945 2.12682 14.9654 1.94234C14.7636 1.77984 14.5321 1.6581 14.2839 1.58388C14.0021 1.49961 13.7011 1.49979 13.3023 1.50002H9.69768Z" fill="#353566"/>
<path d="M11.5 8.00005C9.01472 8.00005 7 10.0148 7 12.5C7 14.4053 8.18383 16.0328 9.85422 16.6894C10.1112 16.7905 10.4015 16.664 10.5025 16.407C10.6035 16.15 10.4771 15.8598 10.2201 15.7588C8.91934 15.2474 8 13.9805 8 12.5C8 10.5671 9.567 9.00005 11.5 9.00005C12.5307 9.00005 13.4567 9.44491 14.098 10.1547C14.2831 10.3596 14.5993 10.3756 14.8042 10.1905C15.0091 10.0054 15.0251 9.68921 14.84 9.4843C14.0172 8.57353 12.8252 8.00005 11.5 8.00005Z" fill="#353566"/>
<path d="M19.8535 15.8536C20.0488 15.6583 20.0488 15.3417 19.8535 15.1464C19.6582 14.9512 19.3417 14.9512 19.1464 15.1464L18 16.2928L16.8535 15.1464C16.6583 14.9511 16.3417 14.9511 16.1464 15.1464C15.9512 15.3417 15.9512 15.6582 16.1465 15.8535L17.2929 16.9999L16.1464 18.1464C15.9511 18.3417 15.9511 18.6583 16.1464 18.8536C16.3417 19.0488 16.6582 19.0488 16.8535 18.8536L18 17.707L19.1465 18.8535C19.3418 19.0488 19.6584 19.0488 19.8536 18.8535C20.0489 18.6582 20.0489 18.3416 19.8536 18.1464L18.7071 16.9999L19.8535 15.8536Z" fill="#353566"/>
<path fill-rule="evenodd" clip-rule="evenodd" d="M18 11.5C14.9624 11.5 12.5 13.9624 12.5 17C12.5 20.0376 14.9624 22.5 18 22.5C21.0376 22.5 23.5 20.0376 23.5 17C23.5 13.9624 21.0376 11.5 18 11.5ZM13.5 17C13.5 14.5147 15.5147 12.5 18 12.5C20.4853 12.5 22.5 14.5147 22.5 17C22.5 19.4853 20.4853 21.5 18 21.5C15.5147 21.5 13.5 19.4853 13.5 17Z" fill="#353566"/>
</svg>
