<svg width="24" height="24" viewBox="0 0 24 24" fill="none" xmlns="http://www.w3.org/2000/svg">
<path d="M15.5217 2.54147C15.3625 2.50323 15.1875 2.50002 14.6745 2.50002H5.8C4.95167 2.50002 4.34549 2.50041 3.87032 2.53923C3.40099 2.57758 3.10366 2.65092 2.86502 2.77251C2.39462 3.01219 2.01217 3.39464 1.77248 3.86505C1.65089 4.10368 1.57756 4.40101 1.53921 4.87034C1.50039 5.34552 1.5 5.95169 1.5 6.80002V17.2C1.5 18.0483 1.50039 18.6545 1.53921 19.1297C1.57756 19.599 1.65089 19.8964 1.77248 20.135C2.01217 20.6054 2.39462 20.9879 2.86502 21.2275C3.10366 21.3491 3.40099 21.4225 3.87032 21.4608C4.18067 21.4862 4.54691 21.4951 5 21.4983V15C5 13.8955 5.89543 13 7 13H13.3407C13.6169 13 13.8407 13.2239 13.8407 13.5C13.8407 13.7762 13.6169 14 13.3407 14H7C6.44772 14 6 14.4477 6 15V21.5H12.7595C13.0356 21.5 13.2595 21.7239 13.2595 22C13.2595 22.2762 13.0356 22.5 12.7595 22.5L5.50776 22.5L5.5 22.5L5.4915 22.5C4.8041 22.4994 4.24749 22.495 3.78889 22.4575C3.25771 22.4141 2.81413 22.3239 2.41103 22.1185C1.75247 21.783 1.21703 21.2476 0.881478 20.589C0.676087 20.1859 0.585932 19.7423 0.542533 19.2111C0.499994 18.6905 0.499997 18.0435 0.5 17.2222V6.77782C0.499997 5.95655 0.499994 5.30957 0.542533 4.78891C0.585932 4.25773 0.676087 3.81416 0.881477 3.41105C1.21703 2.75249 1.75247 2.21706 2.41103 1.8815C2.81414 1.67611 3.25771 1.58595 3.78889 1.54255C4.30954 1.50002 4.95652 1.50002 5.77779 1.50002L14.7315 1.50001C15.1659 1.49988 15.4665 1.4998 15.7552 1.5691C16.0103 1.63034 16.2541 1.73135 16.4778 1.86842C16.7309 2.02353 16.9435 2.2362 17.2505 2.54344L20.4566 5.74949C20.7638 6.05655 20.9765 6.26909 21.1316 6.5222C21.2687 6.74588 21.3697 6.98974 21.4309 7.24483C21.5002 7.53348 21.5001 7.83415 21.5 8.26852L21.5 11.7632C21.5 12.0393 21.2761 12.2632 21 12.2632C20.7239 12.2632 20.5 12.0393 20.5 11.7632V8.3255C20.5 7.81252 20.4968 7.63753 20.4586 7.47828C20.4218 7.32523 20.3612 7.17891 20.279 7.0447C20.1934 6.90506 20.0719 6.77905 19.7092 6.41632L16.5837 3.29083C16.221 2.9281 16.095 2.80663 15.9553 2.72106C15.8211 2.63882 15.6748 2.57821 15.5217 2.54147Z" fill="#353566"/>
<path d="M14 7.5C14 7.22386 13.7761 7 13.5 7L8.5 7C8.22386 7 8 7.22386 8 7.5C8 7.77614 8.22386 8 8.5 8L13.5 8C13.7761 8 14 7.77614 14 7.5Z" fill="#353566"/>
<path d="M15.35 16.3571C15.5472 16.1638 15.5504 15.8473 15.3571 15.65C15.1638 15.4528 14.8473 15.4496 14.65 15.6429L12.65 17.6029C12.5553 17.6957 12.5014 17.8224 12.5 17.955C12.4987 18.0876 12.5501 18.2153 12.643 18.31L14.6429 20.35C14.8362 20.5472 15.1528 20.5504 15.35 20.357C15.5472 20.1637 15.5503 19.8472 15.357 19.65L13.7071 17.9671L15.35 16.3571Z" fill="#353566"/>
<path d="M20.6427 15.6502C20.8359 15.4529 21.1525 15.4495 21.3498 15.6427L23.3498 17.6007C23.4446 17.6935 23.4986 17.8201 23.5 17.9527C23.5014 18.0854 23.45 18.2131 23.3572 18.3079L21.3572 20.3499C21.164 20.5471 20.8474 20.5504 20.6501 20.3572C20.4529 20.164 20.4496 19.8474 20.6428 19.6501L22.2929 17.9654L20.6502 16.3573C20.4529 16.1641 20.4495 15.8475 20.6427 15.6502Z" fill="#353566"/>
<path d="M19.4851 14.1213C19.552 13.8534 19.3892 13.5819 19.1213 13.5149C18.8534 13.448 18.5819 13.6108 18.5149 13.8787L16.5149 21.8787C16.448 22.1466 16.6108 22.4181 16.8787 22.4851C17.1466 22.552 17.4181 22.3892 17.4851 22.1213L19.4851 14.1213Z" fill="#353566"/>
</svg>
