<svg width="24" height="24" viewBox="0 0 24 24" fill="none" xmlns="http://www.w3.org/2000/svg">
<g clip-path="url(#clip0_9001_285219)">
<path d="M20 6.5C20.2761 6.5 20.5 6.27614 20.5 6C20.5 5.72386 20.2761 5.5 20 5.5H16C15.7239 5.5 15.5 5.72386 15.5 6C15.5 6.27614 15.7239 6.5 16 6.5H20Z" fill="#353566"/>
<path fill-rule="evenodd" clip-rule="evenodd" d="M12.5 6C12.5 2.96243 14.9624 0.5 18 0.5C21.0376 0.5 23.5 2.96243 23.5 6C23.5 9.03757 21.0376 11.5 18 11.5C14.9624 11.5 12.5 9.03757 12.5 6ZM18 1.5C15.5147 1.5 13.5 3.51472 13.5 6C13.5 8.48528 15.5147 10.5 18 10.5C20.4853 10.5 22.5 8.48528 22.5 6C22.5 3.51472 20.4853 1.5 18 1.5Z" fill="#353566"/>
<path d="M16.75 19C16.75 18.5858 17.0858 18.25 17.5 18.25C17.9142 18.25 18.2501 18.5858 18.2501 19C18.2501 19.4142 17.9143 19.75 17.5001 19.75C17.0859 19.75 16.75 19.4142 16.75 19Z" fill="#353566"/>
<path d="M14.5 18.25C14.0858 18.25 13.75 18.5858 13.75 19C13.75 19.4142 14.0858 19.75 14.5 19.75C14.9142 19.75 15.2501 19.4142 15.2501 19C15.2501 18.5858 14.9142 18.25 14.5 18.25Z" fill="#353566"/>
<path fill-rule="evenodd" clip-rule="evenodd" d="M10.0646 4.50123C9.25233 4.49663 8.43671 4.50372 7.74904 4.54339C7.40529 4.56322 7.08633 4.59157 6.81176 4.63216C6.54526 4.67155 6.28803 4.72687 6.08573 4.81349C6.07967 4.81609 6.07366 4.8188 6.06771 4.82163C5.22802 5.22118 4.69222 5.63419 4.30017 6.24171C3.93793 6.80305 3.71848 7.50705 3.43954 8.4019L3.4211 8.46104C3.38467 8.57786 3.347 8.69865 3.30754 8.8242L0.817612 16.915C0.585457 17.6364 0.496482 18.2211 0.500107 18.9686L0.5 18.9999C0.5 21.4852 2.51472 23.4999 5 23.4999H18C20.4592 23.4999 22.4577 21.5272 22.4993 19.0779C22.5012 19.0615 22.5023 19.0449 22.5025 19.028C22.5132 18.2511 22.4222 17.6527 22.1855 16.9152L21.1071 13.4109C21.0259 13.1469 20.7461 12.9988 20.4821 13.08C20.2182 13.1613 20.0701 13.4411 20.1513 13.705L20.6648 15.3734C19.9188 14.8244 18.9973 14.4999 18 14.4999H5C4.00448 14.4999 3.08447 14.8232 2.3392 15.3705L4.26153 9.12405L4.26199 9.1226C4.3015 8.99687 4.33929 8.8757 4.37539 8.75993L4.37573 8.75883C4.67845 7.78801 4.86061 7.21751 5.14041 6.78393C5.39714 6.38609 5.75596 6.07868 6.48709 5.72953C6.57056 5.69533 6.72312 5.65612 6.95799 5.62141C7.19223 5.58678 7.47897 5.56063 7.80663 5.54173C8.46179 5.50394 9.25186 5.49664 10.0589 5.50122C10.335 5.50278 10.5602 5.2802 10.5617 5.00406C10.5633 4.72792 10.3407 4.5028 10.0646 4.50123ZM1.50022 19.0393C1.5005 19.0315 1.5006 19.0236 1.50051 19.0156L1.50013 18.97C1.51621 17.0508 3.077 15.4999 5 15.4999H18C19.933 15.4999 21.5 17.0669 21.5 18.9999C21.5 20.9329 19.933 22.4999 18 22.4999H5C3.08015 22.4999 1.52133 20.9542 1.50022 19.0393Z" fill="#353566"/>
</g>
<defs>
<clipPath id="clip0_9001_285219">
<rect width="24" height="24" fill="white"/>
</clipPath>
</defs>
</svg>
