<svg width="24" height="24" viewBox="0 0 24 24" fill="none" xmlns="http://www.w3.org/2000/svg">
<path d="M19.5 1V1.7708C19.8289 1.80101 20.1295 1.86708 20.4344 1.98802C20.8749 2.16273 21.294 2.44038 21.8019 2.8249C22.022 2.9916 22.0653 3.3052 21.8987 3.52535C21.732 3.7455 21.4183 3.78884 21.1982 3.62214C20.706 3.24945 20.3752 3.04033 20.0657 2.91757C19.7679 2.79945 19.4604 2.74998 19 2.74998C18.321 2.74998 17.8089 2.90998 17.4808 3.14757C17.1677 3.37431 17 3.68429 17 4.08168C17 4.573 17.2356 4.86385 17.6193 5.07859C18.0345 5.31102 18.5791 5.42292 19.0822 5.50679C19.5791 5.58959 20.2845 5.72143 20.8693 6.04878C21.4856 6.39382 22 6.97879 22 7.91828C22 8.64947 21.6677 9.25534 21.1058 9.6623C20.6725 9.97612 20.1194 10.1616 19.5 10.2251V11C19.5 11.2761 19.2761 11.5 19 11.5C18.7239 11.5 18.5 11.2761 18.5 11V10.2292C18.1711 10.1989 17.8706 10.1329 17.5657 10.0119C17.1252 9.8372 16.706 9.55954 16.1982 9.17501C15.978 9.00831 15.9347 8.69471 16.1014 8.47456C16.2681 8.25441 16.5817 8.21108 16.8019 8.37778C17.294 8.75047 17.6249 8.9596 17.9344 9.08237C18.2322 9.20051 18.5396 9.24998 19 9.24998C19.679 9.24998 20.1912 9.08999 20.5193 8.8524C20.8323 8.62565 21 8.31567 21 7.91828C21 7.42696 20.7644 7.13611 20.3808 6.92137C19.9656 6.68895 19.421 6.57704 18.9178 6.49318C18.421 6.41038 17.7156 6.27854 17.1308 5.95118C16.5144 5.60614 16 5.02118 16 4.08168C16 3.3505 16.3323 2.74463 16.8942 2.33766C17.3275 2.02386 17.8806 1.83842 18.5 1.77491V1C18.5 0.723858 18.7239 0.5 19 0.5C19.2761 0.5 19.5 0.723858 19.5 1Z" fill="#353566"/>
<path d="M14.25 18.9999C14.25 18.5857 14.5858 18.2499 15 18.2499C15.4142 18.2499 15.7501 18.5857 15.7501 18.9999C15.7501 19.4142 15.4143 19.7499 15.0001 19.7499C14.5859 19.7499 14.25 19.4142 14.25 18.9999Z" fill="#353566"/>
<path d="M18 18.2499C17.5858 18.2499 17.25 18.5857 17.25 18.9999C17.25 19.4142 17.5858 19.7499 18 19.7499C18.4142 19.7499 18.7501 19.4142 18.7501 18.9999C18.7501 18.5857 18.4142 18.2499 18 18.2499Z" fill="#353566"/>
<path fill-rule="evenodd" clip-rule="evenodd" d="M12.1306 4.5198L12.1244 4.5197C11.1131 4.50444 9.95786 4.48699 8.96018 4.51412C8.46037 4.52771 7.99151 4.55267 7.59489 4.59605C7.21271 4.63784 6.84747 4.70135 6.58573 4.81342C6.57967 4.81602 6.57366 4.81873 6.56771 4.82157C5.72802 5.22111 5.19222 5.63412 4.80017 6.24165C4.43793 6.80299 4.21847 7.50699 3.93953 8.40184L3.9211 8.46097C3.88467 8.57779 3.847 8.69858 3.80754 8.82413L1.31761 16.9149C1.08546 17.6363 0.996481 18.221 1.00011 18.9686L1 18.9999C1 21.4852 3.01472 23.4999 5.5 23.4999H18.5C20.9592 23.4999 22.9577 21.5272 22.9993 19.0779C23.0012 19.0615 23.0023 19.0448 23.0025 19.028C23.0132 18.251 22.9222 17.6526 22.6855 16.9151L21.5015 13.0676C21.4203 12.8037 21.1405 12.6556 20.8765 12.7368C20.6126 12.818 20.4645 13.0978 20.5457 13.3618L21.1647 15.3733C20.4188 14.8243 19.4973 14.4999 18.5 14.4999H5.5C4.50448 14.4999 3.58447 14.8231 2.8392 15.3704L4.76153 9.12399L4.76199 9.12253C4.8014 8.99715 4.83908 8.87629 4.8751 8.7608L4.87576 8.75865C5.17848 7.78783 5.36061 7.21745 5.64041 6.78387C5.89714 6.38602 6.25598 6.0786 6.98713 5.72944C7.1048 5.68117 7.33932 5.62996 7.7036 5.59012C8.06164 5.55096 8.50006 5.527 8.98736 5.51375C9.96187 5.48726 11.0975 5.50431 12.1155 5.51968L12.1186 5.51972C12.6581 5.52787 13.1657 5.53554 13.5922 5.53557C13.8684 5.5356 14.0923 5.31176 14.0923 5.03562C14.0923 4.75947 13.8685 4.5356 13.5923 4.53557C13.1741 4.53554 12.6737 4.528 12.1306 4.5198ZM2.00022 19.0393C2.0005 19.0314 2.0006 19.0235 2.00051 19.0155L2.00013 18.9699C2.01621 17.0507 3.577 15.4999 5.5 15.4999H18.5C20.433 15.4999 22 17.0669 22 18.9999C22 20.9329 20.433 22.4999 18.5 22.4999H5.5C3.58015 22.4999 2.02133 20.9541 2.00022 19.0393Z" fill="#353566"/>
</svg>
