<svg width="24" height="24" viewBox="0 0 24 24" fill="none" xmlns="http://www.w3.org/2000/svg">
<path d="M7.37794 2.5H16.6221C17.3734 2.5 17.9679 2.49999 18.4469 2.53913C18.9364 2.57912 19.3491 2.66246 19.7255 2.85423C20.337 3.16582 20.8342 3.663 21.1458 4.27453C21.3375 4.65089 21.4209 5.0636 21.4609 5.55309C21.5 6.03204 21.5 6.6265 21.5 7.37784V8C21.5 8.27614 21.2761 8.5 21 8.5C20.7239 8.5 20.5 8.27614 20.5 8V7.4C20.5 6.62168 20.4996 6.06801 20.4642 5.63452C20.4293 5.20687 20.3627 4.94042 20.2548 4.72852C20.0391 4.30516 19.6948 3.96095 19.2715 3.74524C19.0596 3.63727 18.7931 3.57075 18.3655 3.53581C17.932 3.50039 17.3783 3.5 16.6 3.5H7.4C6.62168 3.5 6.06801 3.50039 5.63452 3.53581C5.20687 3.57075 4.94042 3.63727 4.72852 3.74524C4.30516 3.96095 3.96095 4.30516 3.74524 4.72852C3.63727 4.94042 3.57075 5.20687 3.53581 5.63452C3.50039 6.06801 3.5 6.62168 3.5 7.4V13C3.5 13.2761 3.27614 13.5 3 13.5C2.72386 13.5 2.5 13.2761 2.5 13V7.37794C2.5 6.62656 2.49999 6.03206 2.53913 5.55309C2.57912 5.0636 2.66246 4.65089 2.85423 4.27453C3.16582 3.663 3.663 3.16582 4.27453 2.85423C4.65089 2.66246 5.0636 2.57912 5.55309 2.53913C6.03206 2.49999 6.62656 2.5 7.37794 2.5Z" fill="#353566"/>
<path d="M0.5 16C0.5 15.7239 0.723858 15.5 1 15.5H10.2293C10.5055 15.5 10.7293 15.7239 10.7293 16C10.7293 16.2761 10.5055 16.5 10.2293 16.5H1.5V16.75C1.5 17.7165 2.2835 18.5 3.25 18.5H10.4914C10.7676 18.5 10.9914 18.7239 10.9914 19C10.9914 19.2761 10.7676 19.5 10.4914 19.5H3.25C1.73122 19.5 0.5 18.2688 0.5 16.75V16Z" fill="#353566"/>
<path fill-rule="evenodd" clip-rule="evenodd" d="M15.8479 13.6281C16.1578 12.7906 17.3422 12.7906 17.6521 13.6281L17.9505 14.4345C18.2274 15.1827 18.8173 15.7726 19.5655 16.0495L20.3719 16.3479C21.2094 16.6578 21.2094 17.8422 20.3719 18.1521L19.5655 18.4505C18.8173 18.7274 18.2274 19.3173 17.9505 20.0655L17.6521 20.8719C17.3422 21.7094 16.1578 21.7094 15.8479 20.8719L15.5495 20.0655C15.2726 19.3173 14.6827 18.7274 13.9345 18.4505L13.1281 18.1521C12.2906 17.8422 12.2906 16.6578 13.1281 16.3479L13.9345 16.0495C14.6827 15.7726 15.2726 15.1827 15.5495 14.4345L15.8479 13.6281ZM16.75 14.0717L16.4873 14.7816C16.1092 15.8035 15.3035 16.6092 14.2816 16.9873L13.5717 17.25L14.2816 17.5127C15.3035 17.8908 16.1092 18.6965 16.4873 19.7184L16.75 20.4283L17.0127 19.7184C17.3908 18.6965 18.1965 17.8908 19.2184 17.5127L19.9283 17.25L19.2184 16.9873C18.1965 16.6092 17.3908 15.8035 17.0127 14.7816L16.75 14.0717Z" fill="#353566"/>
<path d="M21.3211 11.6133L21.1269 11.0883C21.0833 10.9706 20.9167 10.9706 20.8731 11.0883L20.6789 11.6133C20.4962 12.107 20.107 12.4962 19.6133 12.6789L19.0883 12.8731C18.9706 12.9167 18.9706 13.0833 19.0883 13.1269L19.6133 13.3211C20.107 13.5038 20.4962 13.893 20.6789 14.3867L20.8731 14.9117C20.9167 15.0294 21.0833 15.0294 21.1269 14.9117L21.3211 14.3867C21.5038 13.893 21.893 13.5038 22.3867 13.3211L22.9117 13.1269C23.0294 13.0833 23.0294 12.9167 22.9117 12.8731L22.3867 12.6789C21.893 12.4962 21.5038 12.107 21.3211 11.6133Z" fill="#353566"/>
</svg>
