<svg width="24" height="24" viewBox="0 0 24 24" fill="none" xmlns="http://www.w3.org/2000/svg">
<path d="M9.5 2.5C5.62343 2.5 2.5 5.57039 2.5 9.33456C2.5 11.6143 3.38281 13.616 5.67716 15.5H11.1759C11.452 15.5 11.6759 15.7239 11.6759 16C11.6759 16.2761 11.452 16.5 11.1759 16.5H6V17.5C6 18.0523 6.44772 18.5 7 18.5H11C11.2761 18.5 11.5 18.7239 11.5 19C11.5 19.2761 11.2761 19.5 11 19.5H7.05001C7.28164 20.6411 8.29052 21.5 9.5 21.5C9.9972 21.5 10.4591 21.3554 10.8477 21.1061C11.0801 20.957 11.3894 21.0245 11.5385 21.2569C11.6877 21.4894 11.6201 21.7986 11.3877 21.9478C10.8428 22.2973 10.1943 22.5 9.5 22.5C7.64665 22.5 6.12975 21.0595 6.0079 19.237C5.40574 18.8923 5 18.2435 5 17.5V16.2377C2.53049 14.1936 1.5 11.9306 1.5 9.33456C1.5 4.9972 5.09229 1.5 9.5 1.5C13.8213 1.5 17.3584 4.86094 17.4959 9.08033C17.5049 9.35632 17.2884 9.58735 17.0124 9.59635C16.7364 9.60534 16.5054 9.3889 16.4964 9.1129C16.3771 5.45101 13.3001 2.5 9.5 2.5Z" fill="#353566"/>
<path fill-rule="evenodd" clip-rule="evenodd" d="M15.25 14C15.25 12.5656 16.5382 11.5 18 11.5C19.4618 11.5 20.75 12.5656 20.75 14V15.25C21.7165 15.25 22.5 16.0335 22.5 17V20.75C22.5 21.7165 21.7165 22.5 20.75 22.5H15.25C14.2835 22.5 13.5 21.7165 13.5 20.75V17C13.5 16.0335 14.2835 15.25 15.25 15.25V14ZM16.25 15.25H19.75V14C19.75 13.2253 19.0235 12.5 18 12.5C16.9765 12.5 16.25 13.2253 16.25 14V15.25ZM15.25 16.25C14.8358 16.25 14.5 16.5858 14.5 17V20.75C14.5 21.1642 14.8358 21.5 15.25 21.5H20.75C21.1642 21.5 21.5 21.1642 21.5 20.75V17C21.5 16.5858 21.1642 16.25 20.75 16.25H15.25Z" fill="#353566"/>
</svg>
