<svg width="24" height="24" viewBox="0 0 24 24" fill="none" xmlns="http://www.w3.org/2000/svg">
<path d="M3.5 9.33456C3.5 5.57039 6.62343 2.5 10.5 2.5C14.2826 2.5 17.3489 5.42406 17.4946 9.06252C17.5056 9.33844 17.7382 9.55317 18.0142 9.54212C18.2901 9.53107 18.5048 9.29844 18.4938 9.02251C18.3259 4.8302 14.8016 1.5 10.5 1.5C6.09229 1.5 2.5 4.9972 2.5 9.33456C2.5 11.9306 3.53049 14.1936 6 16.2377V17.5C6 18.2435 6.40574 18.8923 7.0079 19.237C7.12975 21.0595 8.64665 22.5 10.5 22.5C11.7987 22.5 12.9316 21.7924 13.5351 20.7441C13.6729 20.5047 13.5905 20.1991 13.3512 20.0613C13.1119 19.9235 12.8062 20.0058 12.6684 20.2451C12.2361 20.9962 11.4266 21.5 10.5 21.5C9.29052 21.5 8.28164 20.6411 8.05001 19.5H13.1128C13.389 19.5 13.6128 19.2761 13.6128 19C13.6128 18.7239 13.389 18.5 13.1128 18.5H8C7.44772 18.5 7 18.0523 7 17.5V16.5H13.0853C13.3614 16.5 13.5853 16.2761 13.5853 16C13.5853 15.7239 13.3614 15.5 13.0853 15.5H6.67716C4.38281 13.616 3.5 11.6143 3.5 9.33456Z" fill="#353566"/>
<path d="M18 12.7749V12C18 11.7239 18.2239 11.5 18.5 11.5C18.7761 11.5 19 11.7239 19 12V12.7708C19.3289 12.801 19.6294 12.8671 19.9344 12.988C20.3749 13.1627 20.794 13.4404 21.3019 13.8249C21.522 13.9916 21.5653 14.3052 21.3987 14.5254C21.232 14.7455 20.9183 14.7889 20.6982 14.6222C20.206 14.2495 19.8752 14.0404 19.5657 13.9176C19.2679 13.7995 18.9604 13.75 18.5 13.75C17.821 13.75 17.3089 13.91 16.9808 14.1476C16.6677 14.3743 16.5 14.6843 16.5 15.0817C16.5 15.573 16.7356 15.8639 17.1193 16.0786C17.5345 16.311 18.0791 16.4229 18.5822 16.5068C19.0791 16.5896 19.7845 16.7214 20.3693 17.0488C20.9856 17.3938 21.5 17.9788 21.5 18.9183C21.5 19.6495 21.1677 20.2554 20.6058 20.6623C20.1725 20.9761 19.6194 21.1616 19 21.2251V22C19 22.2761 18.7761 22.5 18.5 22.5C18.2239 22.5 18 22.2761 18 22V21.2292C17.6711 21.199 17.3706 21.1329 17.0657 21.0119C16.6252 20.8372 16.206 20.5596 15.6982 20.175C15.478 20.0083 15.4347 19.6947 15.6014 19.4746C15.7681 19.2544 16.0817 19.2111 16.3019 19.3778C16.794 19.7505 17.1249 19.9596 17.4344 20.0824C17.7322 20.2005 18.0396 20.25 18.5 20.25C19.179 20.25 19.6912 20.09 20.0193 19.8524C20.3323 19.6257 20.5 19.3157 20.5 18.9183C20.5 18.427 20.2644 18.1361 19.8808 17.9214C19.4656 17.689 18.921 17.5771 18.4178 17.4932C17.921 17.4104 17.2156 17.2786 16.6308 16.9512C16.0144 16.6062 15.5 16.0212 15.5 15.0817C15.5 14.3505 15.8323 13.7446 16.3942 13.3377C16.8275 13.0239 17.3806 12.8384 18 12.7749Z" fill="#353566"/>
</svg>
