<svg width="24" height="24" viewBox="0 0 24 24" fill="none" xmlns="http://www.w3.org/2000/svg">
<path d="M9.5 2.5C5.62343 2.5 2.5 5.57039 2.5 9.33456C2.5 11.6143 3.38281 13.616 5.67716 15.5H9.50116C9.7773 15.5 10.0012 15.7239 10.0012 16C10.0012 16.2761 9.7773 16.5 9.50116 16.5H6V17.5C6 18.0523 6.44772 18.5 7 18.5H10.1546C10.4308 18.5 10.6546 18.7239 10.6546 19C10.6546 19.2761 10.4308 19.5 10.1546 19.5H7.05001C7.28164 20.6411 8.29052 21.5 9.5 21.5C10.2208 21.5 10.8698 21.1956 11.3267 20.7069C11.5152 20.5051 11.8316 20.4945 12.0334 20.6831C12.2351 20.8717 12.2457 21.1881 12.0572 21.3898C11.4191 22.0723 10.5091 22.5 9.5 22.5C7.64665 22.5 6.12975 21.0595 6.0079 19.237C5.40574 18.8923 5 18.2435 5 17.5V16.2377C2.53049 14.1936 1.5 11.9306 1.5 9.33456C1.5 4.9972 5.09229 1.5 9.5 1.5C13.9077 1.5 17.5 4.9972 17.5 9.33456C17.5 9.41297 17.4991 9.49114 17.4972 9.56907C17.4904 9.84513 17.2612 10.0635 16.9852 10.0568C16.7091 10.0501 16.4907 9.82082 16.4975 9.54476C16.4992 9.47502 16.5 9.40496 16.5 9.33456C16.5 5.57039 13.3766 2.5 9.5 2.5Z" fill="#353566"/>
<path fill-rule="evenodd" clip-rule="evenodd" d="M11.5 16.125C11.5 13.5707 13.5707 11.5 16.125 11.5C18.6793 11.5 20.75 13.5707 20.75 16.125C20.75 17.222 20.368 18.2299 19.7299 19.0228L22.3535 21.6465C22.5488 21.8417 22.5488 22.1583 22.3535 22.3536C22.1582 22.5488 21.8416 22.5488 21.6464 22.3535L19.0228 19.7299C18.2299 20.368 17.222 20.75 16.125 20.75C13.5707 20.75 11.5 18.6793 11.5 16.125ZM16.125 12.5C14.123 12.5 12.5 14.123 12.5 16.125C12.5 18.127 14.123 19.75 16.125 19.75C18.127 19.75 19.75 18.127 19.75 16.125C19.75 14.123 18.127 12.5 16.125 12.5Z" fill="#353566"/>
</svg>
