<svg width="24" height="24" viewBox="0 0 24 24" fill="none" xmlns="http://www.w3.org/2000/svg">
<path d="M4.5 6C4.5 3.51472 6.51472 1.5 9 1.5C11.4853 1.5 13.5 3.51472 13.5 6V9.98L13.4999 9.99L13.5 10V10.7164C13.5 10.9925 13.2761 11.2164 13 11.2164C12.7239 11.2164 12.5 10.9925 12.5 10.7164V10L12.5001 9.99L12.5 9.98V6C12.5 4.067 10.933 2.5 9 2.5C7.067 2.5 5.5 4.067 5.5 6V12C5.5 13.933 7.067 15.5 9 15.5C9.30871 15.5 9.60737 15.4601 9.89145 15.3856C10.1585 15.3155 10.4319 15.4752 10.502 15.7422C10.5721 16.0093 10.4124 16.2827 10.1453 16.3528C9.77912 16.4489 9.39515 16.5 9 16.5C6.51472 16.5 4.5 14.4853 4.5 12V6Z" fill="#353566"/>
<path d="M2 11.5C2.27614 11.5 2.5 11.7239 2.5 12C2.5 15.5882 5.40743 18.4973 8.99496 18.5L9 18.5L9.00504 18.5C9.52734 18.4996 10.0346 18.4377 10.5202 18.3214C10.7888 18.2571 11.0586 18.4226 11.1229 18.6912C11.1873 18.9597 11.0217 19.2296 10.7532 19.2939C10.347 19.3912 9.92827 19.4554 9.5 19.4836V21.5H12.5159C12.792 21.5 13.0159 21.7239 13.0159 22C13.0159 22.2761 12.792 22.5 12.5159 22.5H5C4.72386 22.5 4.5 22.2761 4.5 22C4.5 21.7239 4.72386 21.5 5 21.5H8.5V19.4836C4.59098 19.2263 1.5 15.9741 1.5 12C1.5 11.7239 1.72386 11.5 2 11.5Z" fill="#353566"/>
<path fill-rule="evenodd" clip-rule="evenodd" d="M18.3934 11.7081C17.8303 11.4267 17.1676 11.4267 16.6045 11.7083L13.036 13.493C12.7076 13.6573 12.5002 13.9928 12.5 14.36C12.4993 15.7737 12.5894 17.1315 13.1667 18.451C13.9568 20.2568 15.4181 21.6575 17.2165 22.4423C17.3966 22.5209 17.6013 22.5209 17.7815 22.4423C19.5804 21.6573 21.042 20.2548 21.8321 18.4487C22.4088 17.1304 22.4993 15.7739 22.5 14.3614C22.5002 13.9935 22.2924 13.6571 21.9633 13.4926L18.3934 11.7081ZM17.0518 12.6027C17.3334 12.4619 17.6647 12.4619 17.9463 12.6026L21.5 14.379C21.4994 15.6465 21.4342 16.8633 20.916 18.0479C20.2465 19.5782 19.0268 20.8009 17.499 21.4744C15.9715 20.8018 14.7521 19.5797 14.0828 18.0502C13.5642 16.8648 13.4994 15.6473 13.5 14.3791L17.0518 12.6027Z" fill="#353566"/>
</svg>
