<svg width="24" height="24" viewBox="0 0 24 24" fill="none" xmlns="http://www.w3.org/2000/svg">
<path d="M4.5 6C4.5 3.51472 6.51472 1.5 9 1.5C11.4853 1.5 13.5 3.51472 13.5 6V9.98L13.4999 9.99L13.5 10V10.0703C13.5 10.3464 13.2761 10.5703 13 10.5703C12.7239 10.5703 12.5 10.3464 12.5 10.0703V10L12.5001 9.99L12.5 9.98V6C12.5 4.067 10.933 2.5 9 2.5C7.067 2.5 5.5 4.067 5.5 6V12C5.5 13.933 7.067 15.5 9 15.5C9.01811 15.5 9.03623 15.4999 9.05437 15.4996C9.33048 15.4954 9.55771 15.7158 9.5619 15.9919C9.56609 16.2681 9.34565 16.4953 9.06954 16.4995C9.04645 16.4998 9.02327 16.5 9 16.5C6.51472 16.5 4.5 14.4853 4.5 12V6Z" fill="#353566"/>
<path d="M2 11.5C2.27614 11.5 2.5 11.7239 2.5 12C2.5 15.5882 5.40743 18.4973 8.99496 18.5L9 18.5L9.00503 18.5C9.08145 18.5 9.15754 18.4986 9.2333 18.4959C9.50928 18.4862 9.74088 18.702 9.7506 18.978C9.75735 19.1696 9.65536 19.3398 9.5 19.4293V21.5H10.7546C11.0308 21.5 11.2546 21.7239 11.2546 22C11.2546 22.2761 11.0308 22.5 10.7546 22.5H5C4.72386 22.5 4.5 22.2761 4.5 22C4.5 21.7239 4.72386 21.5 5 21.5H8.5V19.4836C4.59098 19.2263 1.5 15.9741 1.5 12C1.5 11.7239 1.72386 11.5 2 11.5Z" fill="#353566"/>
<path d="M16.25 14.75C16.25 15.1642 16.5858 15.5 17 15.5C17.0032 15.5 17.0065 15.5 17.0097 15.4999C17.0255 15.4997 17.0412 15.499 17.0568 15.4979C17.4445 15.4689 17.7501 15.1451 17.7501 14.75C17.7501 14.3358 17.4143 14 17.0001 14C16.5859 14 16.25 14.3358 16.25 14.75Z" fill="#353566"/>
<path d="M15.5 17C15.5 16.7239 15.7239 16.5 16 16.5H17C17.1326 16.5 17.2598 16.5527 17.3536 16.6464C17.4473 16.7402 17.5 16.8674 17.5 17V19.5C17.5 19.7761 17.2761 20 17 20C16.7239 20 16.5 19.7761 16.5 19.5V17.5H16C15.7239 17.5 15.5 17.2761 15.5 17Z" fill="#353566"/>
<path fill-rule="evenodd" clip-rule="evenodd" d="M17 11.5C13.9624 11.5 11.5 13.9624 11.5 17C11.5 20.0376 13.9624 22.5 17 22.5C20.0376 22.5 22.5 20.0376 22.5 17C22.5 13.9624 20.0376 11.5 17 11.5ZM12.5 17C12.5 14.5147 14.5147 12.5 17 12.5C19.4853 12.5 21.5 14.5147 21.5 17C21.5 19.4853 19.4853 21.5 17 21.5C14.5147 21.5 12.5 19.4853 12.5 17Z" fill="#353566"/>
</svg>
