<svg width="24" height="24" viewBox="0 0 24 24" fill="none" xmlns="http://www.w3.org/2000/svg">
<path d="M10.8223 1.5H7.17767C6.28649 1.5 5.58703 1.49999 5.02469 1.54594C4.45183 1.59274 3.97738 1.68971 3.54754 1.90873C2.84193 2.26825 2.26825 2.84193 1.90873 3.54754C1.68971 3.97738 1.59274 4.45183 1.54594 5.02469C1.49999 5.58703 1.5 6.28649 1.5 7.17767V16.8223C1.5 17.7135 1.49999 18.413 1.54594 18.9753C1.59274 19.5482 1.68971 20.0226 1.90873 20.4525C2.26825 21.1581 2.84193 21.7317 3.54754 22.0913C3.97738 22.3103 4.45183 22.4073 5.02469 22.4541C5.58703 22.5 6.28648 22.5 7.17765 22.5H10.7546C11.0308 22.5 11.2546 22.2761 11.2546 22C11.2546 21.7239 11.0308 21.5 10.7546 21.5H7.2C6.28166 21.5 5.62298 21.4996 5.10612 21.4574C4.5951 21.4156 4.2669 21.3355 4.00153 21.2003C3.48408 20.9366 3.06338 20.5159 2.79973 19.9985C2.66452 19.7331 2.58437 19.4049 2.54262 18.8939C2.50039 18.377 2.5 17.7183 2.5 16.8V7.2C2.5 6.28166 2.50039 5.62298 2.54262 5.10612C2.58437 4.5951 2.66452 4.2669 2.79973 4.00153C3.06338 3.48408 3.48408 3.06338 4.00153 2.79973C4.2669 2.66452 4.5951 2.58437 5.10612 2.54262C5.62298 2.50039 6.28166 2.5 7.2 2.5H10.8C11.7183 2.5 12.377 2.50039 12.8939 2.54262C13.4049 2.58437 13.7331 2.66452 13.9985 2.79973C14.5159 3.06338 14.9366 3.48408 15.2003 4.00153C15.3355 4.2669 15.4156 4.5951 15.4574 5.10612C15.4996 5.62298 15.5 6.28166 15.5 7.2V9.06189C15.5 9.33804 15.7239 9.56189 16 9.56189C16.2761 9.56189 16.5 9.33804 16.5 9.06189V7.17765C16.5 6.2865 16.5 5.58702 16.4541 5.02469C16.4073 4.45183 16.3103 3.97738 16.0913 3.54754C15.7317 2.84193 15.1581 2.26825 14.4525 1.90873C14.0226 1.68971 13.5482 1.59274 12.9753 1.54594C12.413 1.49999 11.7135 1.5 10.8223 1.5Z" fill="#353566"/>
<path d="M9 17.75C8.58579 17.75 8.25 18.0858 8.25 18.5C8.25 18.9142 8.58579 19.25 9 19.25C9.41421 19.25 9.7501 18.9142 9.7501 18.5C9.7501 18.0858 9.41421 17.75 9 17.75Z" fill="#353566"/>
<path d="M7 5C7 4.72386 7.22386 4.5 7.5 4.5H10.5C10.7761 4.5 11 4.72386 11 5C11 5.27614 10.7761 5.5 10.5 5.5H7.5C7.22386 5.5 7 5.27614 7 5Z" fill="#353566"/>
<path d="M19.5 17C19.5 17.2761 19.2761 17.5 19 17.5H17.5V19C17.5 19.2761 17.2761 19.5 17 19.5C16.7239 19.5 16.5 19.2761 16.5 19V17.5H15C14.7239 17.5 14.5 17.2761 14.5 17C14.5 16.7239 14.7239 16.5 15 16.5H16.5V15C16.5 14.7239 16.7239 14.5 17 14.5C17.2761 14.5 17.5 14.7239 17.5 15V16.5H19C19.2761 16.5 19.5 16.7239 19.5 17Z" fill="#353566"/>
<path fill-rule="evenodd" clip-rule="evenodd" d="M17 11.5C13.9624 11.5 11.5 13.9624 11.5 17C11.5 20.0376 13.9624 22.5 17 22.5C20.0376 22.5 22.5 20.0376 22.5 17C22.5 13.9624 20.0376 11.5 17 11.5ZM12.5 17C12.5 14.5147 14.5147 12.5 17 12.5C19.4853 12.5 21.5 14.5147 21.5 17C21.5 19.4853 19.4853 21.5 17 21.5C14.5147 21.5 12.5 19.4853 12.5 17Z" fill="#353566"/>
</svg>
