<svg width="24" height="24" viewBox="0 0 24 24" fill="none" xmlns="http://www.w3.org/2000/svg">
<path d="M9.25 2C9.25 1.72386 9.02614 1.5 8.75 1.5C8.47386 1.5 8.25 1.72386 8.25 2V5.5H9.25V2Z" fill="#353566"/>
<path d="M9.63806 13.1311H11.1565C11.2497 13.1311 11.3253 13.2016 11.3253 13.2886V15.334C11.3253 15.6317 11.7269 15.7633 11.9262 15.5308L14.6254 12.3825C14.8022 12.1763 14.6449 11.8707 14.3619 11.8707H12.8438C12.7506 11.8707 12.675 11.8002 12.675 11.7132V9.6652C12.675 9.36744 12.2733 9.23594 12.074 9.46849L9.37452 12.6194C9.19783 12.8257 9.35515 13.1311 9.63806 13.1311Z" fill="#353566"/>
<path fill-rule="evenodd" clip-rule="evenodd" d="M5 8V12C5 15.6979 7.86736 18.726 11.5 18.9824V22C11.5 22.2761 11.7239 22.5 12 22.5C12.2761 22.5 12.5 22.2761 12.5 22V18.9824C16.1326 18.726 19 15.6979 19 12V8H20C20.2761 8 20.5 7.77614 20.5 7.5C20.5 7.22386 20.2761 7 20 7L4 7C3.72386 7 3.5 7.22386 3.5 7.5C3.5 7.77614 3.72386 8 4 8H5ZM6 8H18V12C18 15.3137 15.3137 18 12 18C8.68629 18 6 15.3137 6 12V8Z" fill="#353566"/>
<path d="M15.25 1.5C15.5261 1.5 15.75 1.72386 15.75 2V5.5H14.75V2C14.75 1.72386 14.9739 1.5 15.25 1.5Z" fill="#353566"/>
</svg>
