<svg width="24" height="24" viewBox="0 0 24 24" fill="none" xmlns="http://www.w3.org/2000/svg">
<path d="M5.75 1.5C6.02614 1.5 6.25 1.72386 6.25 2V5.5H5.25V2C5.25 1.72386 5.47386 1.5 5.75 1.5Z" fill="#353566"/>
<path d="M2 8V12C2 15.6979 4.86736 18.726 8.5 18.9824V22C8.5 22.2761 8.72386 22.5 9 22.5C9.27614 22.5 9.5 22.2761 9.5 22V18.9824C10.5569 18.9077 11.5499 18.5982 12.4261 18.1055C12.6668 17.9702 12.7523 17.6654 12.6169 17.4247C12.4816 17.184 12.1767 17.0985 11.936 17.2339C11.0686 17.7216 10.0676 18 9 18C5.68629 18 3 15.3137 3 12V8L15 8V9.93693C15 10.2131 15.2239 10.4369 15.5 10.4369C15.7761 10.4369 16 10.2131 16 9.93693V8H17C17.2761 8 17.5 7.77614 17.5 7.5C17.5 7.22386 17.2761 7 17 7L1 7C0.723858 7 0.5 7.22386 0.5 7.5C0.5 7.77614 0.723858 8 1 8H2Z" fill="#353566"/>
<path d="M12.75 2C12.75 1.72386 12.5261 1.5 12.25 1.5C11.9739 1.5 11.75 1.72386 11.75 2V5.5H12.75V2Z" fill="#353566"/>
<path fill-rule="evenodd" clip-rule="evenodd" d="M19 14C17.8954 14 17 14.8954 17 16C17 17.1046 17.8954 18 19 18C20.1046 18 21 17.1046 21 16C21 14.8954 20.1046 14 19 14ZM18 16C18 15.4477 18.4477 15 19 15C19.5523 15 20 15.4477 20 16C20 16.5523 19.5523 17 19 17C18.4477 17 18 16.5523 18 16Z" fill="#353566"/>
<path fill-rule="evenodd" clip-rule="evenodd" d="M14.5 16.002C14.5 13.517 16.5144 11.5 19.0001 11.5C21.4854 11.5 23.5 13.5147 23.5 16C23.5 18.7667 21.3 20.9 19.3 22.4C19.1222 22.5333 18.8778 22.5333 18.7 22.4C16.7001 20.9001 14.5 18.7667 14.5 16.002ZM19.0001 12.5C17.0674 12.5 15.5 14.0687 15.5 16.002C15.5 18.1211 17.1234 19.9113 19 21.3709C20.8765 19.9113 22.5 18.121 22.5 16C22.5 14.067 20.9331 12.5 19.0001 12.5Z" fill="#353566"/>
</svg>
