<svg width="24" height="24" viewBox="0 0 24 24" fill="none" xmlns="http://www.w3.org/2000/svg">
<path d="M5.75 1.5C6.02614 1.5 6.25 1.72386 6.25 2V5.5H5.25V2C5.25 1.72386 5.47386 1.5 5.75 1.5Z" fill="#353566"/>
<path d="M2 8V12C2 15.6979 4.86736 18.726 8.5 18.9824V22C8.5 22.2761 8.72386 22.5 9 22.5C9.27614 22.5 9.5 22.2761 9.5 22V18.9824C9.69466 18.9686 9.88721 18.9469 10.0773 18.9175C10.3502 18.8754 10.5373 18.6199 10.4951 18.347C10.4529 18.0741 10.1975 17.8871 9.92457 17.9293C9.62348 17.9758 9.31473 18 9 18C5.68629 18 3 15.3137 3 12V8L15 8V11.7537C15 12.0298 15.2239 12.2537 15.5 12.2537C15.7761 12.2537 16 12.0298 16 11.7537V8H17C17.2761 8 17.5 7.77614 17.5 7.5C17.5 7.22386 17.2761 7 17 7L1 7C0.723858 7 0.5 7.22386 0.5 7.5C0.5 7.77614 0.723858 8 1 8H2Z" fill="#353566"/>
<path d="M12.75 2C12.75 1.72386 12.5261 1.5 12.25 1.5C11.9739 1.5 11.75 1.72386 11.75 2V5.5H12.75V2Z" fill="#353566"/>
<path fill-rule="evenodd" clip-rule="evenodd" d="M15.8479 14.6281C16.1578 13.7906 17.3422 13.7906 17.6521 14.6281L17.9505 15.4345C18.2274 16.1827 18.8173 16.7726 19.5655 17.0495L20.3719 17.3479C21.2094 17.6578 21.2094 18.8422 20.3719 19.1521L19.5655 19.4505C18.8173 19.7274 18.2274 20.3173 17.9505 21.0655L17.6521 21.8719C17.3422 22.7094 16.1578 22.7094 15.8479 21.8719L15.5495 21.0655C15.2726 20.3173 14.6827 19.7274 13.9345 19.4505L13.1281 19.1521C12.2906 18.8422 12.2906 17.6578 13.1281 17.3479L13.9345 17.0495C14.6827 16.7726 15.2726 16.1827 15.5495 15.4345L15.8479 14.6281ZM16.75 15.0717L16.4873 15.7816C16.1092 16.8035 15.3035 17.6092 14.2816 17.9873L13.5717 18.25L14.2816 18.5127C15.3035 18.8908 16.1092 19.6965 16.4873 20.7184L16.75 21.4283L17.0127 20.7184C17.3908 19.6965 18.1965 18.8908 19.2184 18.5127L19.9283 18.25L19.2184 17.9873C18.1965 17.6092 17.3908 16.8035 17.0127 15.7816L16.75 15.0717Z" fill="#353566"/>
<path d="M21.1269 12.0883C21.0833 11.9706 20.9167 11.9706 20.8731 12.0883L20.6789 12.6133C20.4962 13.107 20.107 13.4962 19.6133 13.6789L19.0883 13.8731C18.9706 13.9167 18.9706 14.0833 19.0883 14.1269L19.6133 14.3211C20.107 14.5038 20.4962 14.893 20.6789 15.3867L20.8731 15.9117C20.9167 16.0294 21.0833 16.0294 21.1269 15.9117L21.3211 15.3867C21.5038 14.893 21.893 14.5038 22.3867 14.3211L22.9117 14.1269C23.0294 14.0833 23.0294 13.9167 22.9117 13.8731L22.3867 13.6789C21.893 13.4962 21.5038 13.107 21.3211 12.6133L21.1269 12.0883Z" fill="#353566"/>
</svg>
