<svg width="24" height="24" viewBox="0 0 24 24" fill="none" xmlns="http://www.w3.org/2000/svg">
<path d="M15.7222 1.5H8.26269C7.30129 1.49999 6.57531 1.49998 6.00536 1.57155C5.73137 1.60595 5.53714 1.85596 5.57155 2.12995C5.60595 2.40394 5.85596 2.59816 6.12995 2.56376C6.63017 2.50094 7.29251 2.5 8.3 2.5H15.7C16.5483 2.5 17.1545 2.50039 17.6297 2.53921C18.099 2.57756 18.3963 2.65089 18.635 2.77248C19.1054 3.01217 19.4878 3.39462 19.7275 3.86502C19.8491 4.10366 19.9224 4.40099 19.9608 4.87032C19.9996 5.3455 20 5.95167 20 6.8V16.5C20 16.7761 20.2239 17 20.5 17C20.7761 17 21 16.7761 21 16.5V6.77778C21 5.95652 21 5.30954 20.9575 4.78889C20.9141 4.25771 20.8239 3.81414 20.6185 3.41103C20.283 2.75247 19.7475 2.21704 19.089 1.88148C18.6859 1.67609 18.2423 1.58593 17.7111 1.54253C17.1905 1.5 16.5435 1.5 15.7222 1.5Z" fill="#353566"/>
<path d="M12 17.75C11.5858 17.75 11.25 18.0858 11.25 18.5C11.25 18.9142 11.5858 19.25 12 19.25C12.4142 19.25 12.7501 18.9142 12.7501 18.5C12.7501 18.0858 12.4142 17.75 12 17.75Z" fill="#353566"/>
<path fill-rule="evenodd" clip-rule="evenodd" d="M3.19128 3.89839L1.64645 2.35355C1.45118 2.15829 1.45118 1.84171 1.64645 1.64645C1.84171 1.45118 2.15829 1.45118 2.35355 1.64645L4.11219 3.40508C4.11772 3.41037 4.12313 3.41577 4.12839 3.42129L20.5797 19.8726C20.5853 19.8779 20.5907 19.8834 20.5961 19.889L22.3536 21.6464C22.5488 21.8417 22.5488 22.1583 22.3536 22.3536C22.1583 22.5488 21.8417 22.5488 21.6464 22.3536L20.3394 21.0465C19.8577 21.7146 19.1463 22.2042 18.3171 22.4033C17.9135 22.5002 17.4402 22.5001 16.6788 22.5L8.27778 22.5C7.45651 22.5 6.80954 22.5 6.28889 22.4575C5.75771 22.4141 5.31413 22.3239 4.91103 22.1185C4.25247 21.783 3.71703 21.2475 3.38148 20.589C3.17609 20.1859 3.08593 19.7423 3.04253 19.2111C2.99999 18.6905 3 18.0435 3 17.2222L3 6.78194C3 6.01205 3 5.39613 3.03454 4.89519C3.05999 4.52618 3.10515 4.19858 3.19128 3.89839ZM4.04953 4.75664C4.04297 4.82204 4.0372 4.89103 4.03217 4.96399C4.00027 5.42655 4 6.00821 4 6.8V17.2C4 18.0483 4.00039 18.6545 4.03921 19.1297C4.07756 19.599 4.15089 19.8963 4.27248 20.135C4.51217 20.6054 4.89462 20.9878 5.36502 21.2275C5.60366 21.3491 5.90099 21.4224 6.37032 21.4608C6.84549 21.4996 7.45167 21.5 8.3 21.5H16.6C17.4656 21.5 17.8104 21.4965 18.0836 21.4309C18.7305 21.2756 19.2772 20.8727 19.6192 20.3264L4.04953 4.75664Z" fill="#353566"/>
<path d="M10 5C10 4.72386 10.2239 4.5 10.5 4.5H13.5C13.7761 4.5 14 4.72386 14 5C14 5.27614 13.7761 5.5 13.5 5.5H10.5C10.2239 5.5 10 5.27614 10 5Z" fill="#353566"/>
</svg>
