<svg width="24" height="24" viewBox="0 0 24 24" fill="none" xmlns="http://www.w3.org/2000/svg">
<path fill-rule="evenodd" clip-rule="evenodd" d="M9.24998 10.458C8.39854 10.458 7.70831 11.1482 7.70831 11.9997C7.70831 12.8511 8.39854 13.5413 9.24998 13.5413C10.1014 13.5413 10.7916 12.8511 10.7916 11.9997C10.7916 11.1482 10.1014 10.458 9.24998 10.458ZM8.70831 11.9997C8.70831 11.7005 8.95083 11.458 9.24998 11.458C9.54913 11.458 9.79165 11.7005 9.79165 11.9997C9.79165 12.2988 9.54913 12.5413 9.24998 12.5413C8.95083 12.5413 8.70831 12.2988 8.70831 11.9997Z" fill="#353566"/>
<path fill-rule="evenodd" clip-rule="evenodd" d="M4.95659 13.8848C4.61711 13.2957 4.81822 12.5421 5.40716 12.2015C5.56184 12.112 5.56184 11.8876 5.40716 11.7981C4.81822 11.4575 4.61711 10.7038 4.95659 10.1148L5.47303 9.21872C5.81281 8.62914 6.56616 8.42648 7.1556 8.76741C7.3085 8.85584 7.50225 8.74618 7.50225 8.56578C7.50225 7.88587 8.05269 7.33317 8.73356 7.33317H9.76648C10.4474 7.33317 10.9978 7.88588 10.9978 8.5658C10.9978 8.74623 11.1916 8.85587 11.3445 8.76744C11.9339 8.42652 12.6872 8.62919 13.027 9.21876L13.5435 10.1149C13.8829 10.7039 13.6818 11.4575 13.0929 11.7981C12.9383 11.8876 12.9383 12.112 13.0929 12.2014C13.6818 12.5421 13.8829 13.2957 13.5435 13.8847L13.027 14.7808C12.6872 15.3704 11.9339 15.5731 11.3445 15.2321C11.1916 15.1437 10.9978 15.2533 10.9978 15.4338C10.9978 16.1137 10.4474 16.6665 9.76644 16.6665H8.73359C8.0527 16.6665 7.50225 16.1138 7.50225 15.4338C7.50225 15.2534 7.30846 15.1438 7.15559 15.2322C6.56613 15.5731 5.81281 15.3704 5.47303 14.7809L4.95659 13.8848ZM5.90783 13.0671C5.79717 13.1311 5.75857 13.2736 5.823 13.3854L6.33944 14.2815C6.40356 14.3928 6.54479 14.4302 6.65492 14.3665C7.47715 13.891 8.50225 14.4864 8.50225 15.4338C8.50225 15.5632 8.60667 15.6665 8.73359 15.6665H9.76644C9.89336 15.6665 9.9978 15.5632 9.9978 15.4338C9.9978 14.4863 11.0229 13.8909 11.8451 14.3665C11.9553 14.4302 12.0965 14.3927 12.1606 14.2815L12.6771 13.3854C12.7415 13.2736 12.7029 13.1311 12.5922 13.0671C11.7718 12.5926 11.7718 11.407 12.5922 10.9325C12.7029 10.8685 12.7415 10.726 12.6771 10.6142L12.1606 9.71809C12.0965 9.60683 11.9553 9.56939 11.8451 9.63308C11.0229 10.1086 9.9978 9.51331 9.9978 8.5658C9.9978 8.43648 9.89339 8.33317 9.76648 8.33317H8.73356C8.60665 8.33317 8.50225 8.43647 8.50225 8.56578C8.50225 9.51331 7.47711 10.1086 6.65493 9.63305C6.54479 9.56934 6.40355 9.60679 6.33944 9.71805L5.823 10.6141C5.75857 10.7259 5.79717 10.8685 5.90783 10.9325C6.72828 11.407 6.72828 12.5926 5.90783 13.0671Z" fill="#353566"/>
<path fill-rule="evenodd" clip-rule="evenodd" d="M12.3223 3.99951H6.17767C5.28649 3.99951 4.58703 3.99951 4.02469 4.04545C3.45183 4.09226 2.97738 4.18922 2.54754 4.40824C1.84193 4.76776 1.26825 5.34144 0.908726 6.04705C0.689711 6.47689 0.592744 6.95134 0.545939 7.5242C0.499995 8.08654 0.499997 8.786 0.5 9.67717V14.3218C0.499997 15.213 0.499994 15.9125 0.545939 16.4748C0.592744 17.0477 0.689711 17.5221 0.908726 17.952C1.26825 18.6576 1.84193 19.2313 2.54754 19.5908C2.97738 19.8098 3.45183 19.9068 4.02469 19.9536C4.58703 19.9995 5.28648 19.9995 6.17765 19.9995H12.3223C13.2135 19.9995 13.913 19.9995 14.4753 19.9536C15.0482 19.9068 15.5226 19.8098 15.9525 19.5908C16.6581 19.2313 17.2317 18.6576 17.5913 17.952C17.8103 17.5221 17.9073 17.0477 17.9541 16.4748C17.9946 15.9789 17.9994 15.3764 17.9999 14.6298L21.1583 17.501C22.0576 18.3186 23.5 17.6805 23.5 16.4651V7.5341C23.5 6.3187 22.0576 5.68062 21.1583 6.49819L17.9999 9.3694C17.9994 8.62272 17.9946 8.02014 17.9541 7.5242C17.9073 6.95134 17.8103 6.47689 17.5913 6.04705C17.2317 5.34144 16.6581 4.76776 15.9525 4.40824C15.5226 4.18922 15.0482 4.09226 14.4753 4.04545C13.913 3.99951 13.2135 3.99951 12.3223 3.99951ZM18 10.7208V13.2784L21.8309 16.7611C22.0879 16.9947 22.5 16.8124 22.5 16.4651V7.5341C22.5 7.18685 22.0879 7.00454 21.8309 7.23813L18 10.7208ZM17 9.69951C17 8.78118 16.9996 8.1225 16.9574 7.60563C16.9156 7.09461 16.8355 6.76641 16.7003 6.50104C16.4366 5.98359 16.0159 5.5629 15.4985 5.29924C15.2331 5.16403 14.9049 5.08388 14.3939 5.04213C13.877 4.9999 13.2183 4.99951 12.3 4.99951H6.2C5.28166 4.99951 4.62298 4.9999 4.10612 5.04213C3.5951 5.08388 3.2669 5.16403 3.00153 5.29924C2.48408 5.5629 2.06338 5.98359 1.79973 6.50104C1.66452 6.76641 1.58437 7.09461 1.54262 7.60563C1.50039 8.1225 1.5 8.78118 1.5 9.69951V14.2995C1.5 15.2178 1.50039 15.8765 1.54262 16.3934C1.58437 16.9044 1.66452 17.2326 1.79973 17.498C2.06338 18.0154 2.48408 18.4361 3.00153 18.6998C3.2669 18.835 3.5951 18.9151 4.10612 18.9569C4.62298 18.9991 5.28166 18.9995 6.2 18.9995H12.3C13.2183 18.9995 13.877 18.9991 14.3939 18.9569C14.9049 18.9151 15.2331 18.835 15.4985 18.6998C16.0159 18.4361 16.4366 18.0154 16.7003 17.498C16.8355 17.2326 16.9156 16.9044 16.9574 16.3934C16.9996 15.8765 17 15.2178 17 14.2995V9.69951Z" fill="#353566"/>
</svg>
