<svg width="24" height="24" viewBox="0 0 24 24" fill="none" xmlns="http://www.w3.org/2000/svg">
<path fill-rule="evenodd" clip-rule="evenodd" d="M6.875 9.49967C6.875 8.24932 7.99531 7.33301 9.25 7.33301C10.5047 7.33301 11.625 8.24932 11.625 9.49967V10.4822C12.4527 10.6211 13.0833 11.3409 13.0833 12.208V14.9163C13.0833 15.8828 12.2998 16.6663 11.3333 16.6663H7.16667C6.20017 16.6663 5.41667 15.8828 5.41667 14.9163V12.208C5.41667 11.3409 6.04734 10.6211 6.875 10.4822V9.49967ZM7.875 10.458H10.625V9.49967C10.625 8.90908 10.0664 8.33301 9.25 8.33301C8.43362 8.33301 7.875 8.90908 7.875 9.49967V10.458ZM11.3333 11.458C11.7476 11.458 12.0833 11.7938 12.0833 12.208V14.9163C12.0833 15.3306 11.7476 15.6663 11.3333 15.6663H7.16667C6.75246 15.6663 6.41667 15.3306 6.41667 14.9163V12.208C6.41667 11.7938 6.75246 11.458 7.16667 11.458H11.3333Z" fill="#353566"/>
<path fill-rule="evenodd" clip-rule="evenodd" d="M12.3223 3.99951H6.17767C5.28649 3.99951 4.58703 3.99951 4.02469 4.04545C3.45183 4.09226 2.97738 4.18922 2.54754 4.40824C1.84193 4.76776 1.26825 5.34144 0.908726 6.04705C0.689711 6.47689 0.592744 6.95134 0.545939 7.5242C0.499995 8.08654 0.499997 8.786 0.5 9.67717V14.3218C0.499997 15.213 0.499994 15.9125 0.545939 16.4748C0.592744 17.0477 0.689711 17.5221 0.908726 17.952C1.26825 18.6576 1.84193 19.2313 2.54754 19.5908C2.97738 19.8098 3.45183 19.9068 4.02469 19.9536C4.58703 19.9995 5.28648 19.9995 6.17765 19.9995H12.3223C13.2135 19.9995 13.913 19.9995 14.4753 19.9536C15.0482 19.9068 15.5226 19.8098 15.9525 19.5908C16.6581 19.2313 17.2317 18.6576 17.5913 17.952C17.8103 17.5221 17.9073 17.0477 17.9541 16.4748C17.9946 15.9789 17.9994 15.3764 17.9999 14.6298L21.1583 17.501C22.0576 18.3186 23.5 17.6805 23.5 16.4651V7.5341C23.5 6.3187 22.0576 5.68062 21.1583 6.49819L17.9999 9.3694C17.9994 8.62272 17.9946 8.02014 17.9541 7.5242C17.9073 6.95134 17.8103 6.47689 17.5913 6.04705C17.2317 5.34144 16.6581 4.76776 15.9525 4.40824C15.5226 4.18922 15.0482 4.09226 14.4753 4.04545C13.913 3.99951 13.2135 3.99951 12.3223 3.99951ZM18 10.7208V13.2784L21.8309 16.7611C22.0879 16.9947 22.5 16.8124 22.5 16.4651V7.5341C22.5 7.18685 22.0879 7.00454 21.8309 7.23813L18 10.7208ZM17 9.69951C17 8.78118 16.9996 8.1225 16.9574 7.60563C16.9156 7.09461 16.8355 6.76641 16.7003 6.50104C16.4366 5.98359 16.0159 5.5629 15.4985 5.29924C15.2331 5.16403 14.9049 5.08388 14.3939 5.04213C13.877 4.9999 13.2183 4.99951 12.3 4.99951H6.2C5.28166 4.99951 4.62298 4.9999 4.10612 5.04213C3.5951 5.08388 3.2669 5.16403 3.00153 5.29924C2.48408 5.5629 2.06338 5.98359 1.79973 6.50104C1.66452 6.76641 1.58437 7.09461 1.54262 7.60563C1.50039 8.1225 1.5 8.78118 1.5 9.69951V14.2995C1.5 15.2178 1.50039 15.8765 1.54262 16.3934C1.58437 16.9044 1.66452 17.2326 1.79973 17.498C2.06338 18.0154 2.48408 18.4361 3.00153 18.6998C3.2669 18.835 3.5951 18.9151 4.10612 18.9569C4.62298 18.9991 5.28166 18.9995 6.2 18.9995H12.3C13.2183 18.9995 13.877 18.9991 14.3939 18.9569C14.9049 18.9151 15.2331 18.835 15.4985 18.6998C16.0159 18.4361 16.4366 18.0154 16.7003 17.498C16.8355 17.2326 16.9156 16.9044 16.9574 16.3934C16.9996 15.8765 17 15.2178 17 14.2995V9.69951Z" fill="#353566"/>
</svg>
