<svg width="24" height="24" viewBox="0 0 24 24" fill="none" xmlns="http://www.w3.org/2000/svg">
<path fill-rule="evenodd" clip-rule="evenodd" d="M16.0807 3H17.4193C17.6828 2.99999 17.9102 2.99999 18.0975 3.01529C18.2952 3.03144 18.4918 3.06709 18.681 3.16349C18.9632 3.3073 19.1927 3.53677 19.3365 3.81902C19.4329 4.00821 19.4686 4.20481 19.4847 4.40249C19.5 4.58978 19.5 4.81716 19.5 5.08074V5.25052C19.9659 5.25214 20.3641 5.25885 20.7031 5.28655C21.1663 5.3244 21.5847 5.40514 21.9755 5.60423C22.587 5.91582 23.0842 6.41301 23.3958 7.02453C23.5949 7.41527 23.6756 7.83367 23.7134 8.29693C23.75 8.74449 23.75 9.29519 23.75 9.96856V16.5314C23.75 17.2048 23.75 17.7555 23.7134 18.2031C23.6756 18.6663 23.5949 19.0847 23.3958 19.4755C23.0842 20.087 22.587 20.5842 21.9755 20.8958C21.5847 21.0949 21.1663 21.1756 20.7031 21.2134C20.2555 21.25 19.7047 21.25 19.0314 21.25H4.96838C4.2951 21.25 3.74445 21.25 3.29693 21.2134C2.83367 21.1756 2.41527 21.0949 2.02453 20.8958C1.41301 20.5842 0.915819 20.087 0.60423 19.4755C0.405138 19.0847 0.324402 18.6663 0.286553 18.2031C0.249986 17.7555 0.249992 17.2048 0.25 16.5314V9.96857C0.249992 9.29521 0.249986 8.74449 0.286553 8.29693C0.324402 7.83367 0.405138 7.41527 0.60423 7.02453C0.915819 6.41301 1.41301 5.91582 2.02453 5.60423C2.41527 5.40514 2.83367 5.3244 3.29693 5.28655C3.63595 5.25885 4.03414 5.25214 4.5 5.25052V5.08069C4.49999 4.81714 4.49999 4.58976 4.51529 4.40249C4.53144 4.20481 4.5671 4.00821 4.66349 3.81902C4.8073 3.53677 5.03677 3.3073 5.31902 3.16349C5.50821 3.06709 5.70482 3.03144 5.90249 3.01529C6.08977 2.99999 6.31716 2.99999 6.58072 3H7.9193C8.18286 2.99999 8.41024 2.99999 8.59752 3.01529C8.79519 3.03144 8.9918 3.06709 9.18099 3.16349C9.46323 3.3073 9.6927 3.53677 9.83651 3.81902C9.93291 4.00821 9.96857 4.20481 9.98472 4.40249C10 4.58978 10 4.81716 10 5.08074L10 5.25H14V5.0807C14 4.81714 14 4.58976 14.0153 4.40249C14.0314 4.20481 14.0671 4.00821 14.1635 3.81902C14.3073 3.53677 14.5368 3.3073 14.819 3.16349C15.0082 3.06709 15.2048 3.03144 15.4025 3.01529C15.5898 2.99999 15.8172 2.99999 16.0807 3ZM9.11322 14.0219H10.9691C11.083 14.0219 11.1753 14.108 11.1753 14.2143V16.7143C11.1753 17.0782 11.6662 17.2389 11.9098 16.9548L15.2088 13.1069C15.4249 12.8548 15.2327 12.4814 14.8868 12.4814H13.0313C12.9174 12.4814 12.8251 12.3952 12.8251 12.2889V9.78574C12.8251 9.42181 12.334 9.26109 12.0905 9.54532L8.79111 13.3965C8.57515 13.6486 8.76743 14.0219 9.11322 14.0219Z" fill="#353566"/>
</svg>
