<svg width="24" height="24" viewBox="0 0 24 24" fill="none" xmlns="http://www.w3.org/2000/svg">
<path fill-rule="evenodd" clip-rule="evenodd" d="M9.39153 3.75C9.82251 3.75 10.2231 3.97202 10.4515 4.3375L11.6468 6.25H6.76788C5.95505 6.24999 5.29944 6.24999 4.76853 6.29336C4.2219 6.33803 3.74176 6.43239 3.29754 6.65873C2.59193 7.01825 2.01825 7.59193 1.65873 8.29754C1.43239 8.74175 1.33803 9.2219 1.29336 9.76853C1.24999 10.2994 1.24999 10.9551 1.25 11.7679V16.2321C1.24999 17.045 1.24999 17.7006 1.29336 18.2315C1.33803 18.7781 1.43239 19.2582 1.65873 19.7025C2.01825 20.4081 2.59193 20.9818 3.29754 21.3413C3.74176 21.5676 4.2219 21.662 4.76853 21.7066C5.29944 21.75 5.95505 21.75 6.76788 21.75H12.2321C13.045 21.75 13.7006 21.75 14.2315 21.7066C14.7781 21.662 15.2582 21.5676 15.7025 21.3413C16.4081 20.9818 16.9817 20.4081 17.3413 19.7025C17.5676 19.2582 17.662 18.7781 17.7066 18.2315C17.7363 17.8681 17.7457 17.4464 17.7486 16.9558L20.3661 19.5732C21.1536 20.3607 22.5 19.803 22.5 18.6894V9.31067C22.5 8.19704 21.1536 7.63933 20.3661 8.42679L17.7486 11.0443C17.7457 10.5537 17.7363 10.1319 17.7066 9.76853C17.662 9.2219 17.5676 8.74175 17.3413 8.29754C16.9817 7.59193 16.4081 7.01825 15.7025 6.65873C15.2582 6.43239 14.7781 6.33803 14.2315 6.29336C13.9882 6.27349 13.7188 6.26272 13.42 6.25689L11.7235 3.5425C11.221 2.73845 10.3397 2.25 9.39153 2.25H3.00002C2.58581 2.25 2.25002 2.58579 2.25002 3C2.25002 3.41421 2.58581 3.75 3.00002 3.75H9.39153ZM6 11.75C5.58579 11.75 5.25 11.4142 5.25 11C5.25 10.5858 5.58579 10.25 6 10.25H9C9.41421 10.25 9.75 10.5858 9.75 11C9.75 11.4142 9.41421 11.75 9 11.75H6Z" fill="#353566"/>
</svg>
