<svg width="24" height="24" viewBox="0 0 24 24" fill="none" xmlns="http://www.w3.org/2000/svg">
<path fill-rule="evenodd" clip-rule="evenodd" d="M12.0001 4.9165C9.69853 4.9165 7.83334 6.78413 7.83334 9.08503C7.83334 11.6416 9.86677 13.6082 11.7 14.9832C11.8778 15.1165 12.1222 15.1165 12.3 14.9832C14.1333 13.6082 16.1667 11.6415 16.1667 9.08317C16.1667 6.78196 14.3013 4.9165 12.0001 4.9165ZM13.3751 9.08325C13.3751 9.84265 12.7594 10.4583 12 10.4583C11.2406 10.4583 10.625 9.84265 10.625 9.08325C10.625 8.32385 11.2406 7.70823 12 7.70823C12.7594 7.70823 13.3751 8.32385 13.3751 9.08325Z" fill="#353566"/>
<path fill-rule="evenodd" clip-rule="evenodd" d="M16.9326 1.24976H7.06739C6.11494 1.24975 5.3544 1.24974 4.74013 1.29993C4.11012 1.35141 3.56824 1.45939 3.07054 1.71298C2.27085 2.12044 1.62068 2.77061 1.21322 3.5703C0.959634 4.06799 0.85165 4.60988 0.800176 5.23989C0.749989 5.85415 0.749994 6.61469 0.75 7.56713V12.4324C0.749994 13.3848 0.749989 14.1454 0.800176 14.7596C0.85165 15.3896 0.959634 15.9315 1.21322 16.4292C1.62068 17.2289 2.27085 17.8791 3.07054 18.2865C3.56824 18.5401 4.11012 18.6481 4.74013 18.6996C5.35438 18.7498 6.1149 18.7498 7.0673 18.7498H9.25V19.9998C9.25 20.6901 8.69036 21.2498 8 21.2498H7.5C7.08579 21.2498 6.75 21.5855 6.75 21.9998C6.75 22.414 7.08579 22.7498 7.5 22.7498H16.5C16.9142 22.7498 17.25 22.414 17.25 21.9998C17.25 21.5855 16.9142 21.2498 16.5 21.2498H16C15.3096 21.2498 14.75 20.6901 14.75 19.9998V18.7498H16.9326C17.885 18.7498 18.6456 18.7498 19.2599 18.6996C19.8899 18.6481 20.4318 18.5401 20.9295 18.2865C21.7291 17.8791 22.3793 17.2289 22.7868 16.4292C23.0404 15.9315 23.1483 15.3896 23.1998 14.7596C23.25 14.1454 23.25 13.3849 23.25 12.4325V7.56712C23.25 6.61472 23.25 5.85413 23.1998 5.23989C23.1483 4.60988 23.0404 4.06799 22.7868 3.5703C22.3793 2.77061 21.7291 2.12044 20.9295 1.71298C20.4318 1.45939 19.8899 1.35141 19.2599 1.29993C18.6456 1.24974 17.8851 1.24975 16.9326 1.24976ZM7.1 17.2498C6.10753 17.2498 5.40829 17.2492 4.86228 17.2046C4.32503 17.1607 4.00252 17.0779 3.75153 16.95C3.23408 16.6864 2.81338 16.2657 2.54973 15.7482C2.42184 15.4972 2.33909 15.1747 2.29519 14.6375C2.25058 14.0915 2.25 13.3922 2.25 12.3998V7.59976C2.25 6.60729 2.25058 5.90804 2.29519 5.36204C2.33909 4.82479 2.42184 4.50228 2.54973 4.25128C2.81338 3.73384 3.23408 3.31314 3.75153 3.04949C4.00252 2.9216 4.32503 2.83885 4.86228 2.79495C5.40829 2.75034 6.10753 2.74976 7.1 2.74976H16.9C17.8925 2.74976 18.5917 2.75034 19.1377 2.79495C19.675 2.83885 19.9975 2.9216 20.2485 3.04949C20.7659 3.31314 21.1866 3.73384 21.4503 4.25128C21.5782 4.50228 21.6609 4.82479 21.7048 5.36204C21.7494 5.90804 21.75 6.60729 21.75 7.59976V12.3998C21.75 13.3922 21.7494 14.0915 21.7048 14.6375C21.6609 15.1747 21.5782 15.4972 21.4503 15.7482C21.1866 16.2657 20.7659 16.6864 20.2485 16.95C19.9975 17.0779 19.675 17.1607 19.1377 17.2046C18.5917 17.2492 17.8925 17.2498 16.9 17.2498H7.1Z" fill="#353566"/>
</svg>
