<svg width="24" height="24" viewBox="0 0 24 24" fill="none" xmlns="http://www.w3.org/2000/svg">
<g clip-path="url(#clip0_9001_281226)">
<path d="M10.5 1.75C10.0858 1.75 9.75 2.08579 9.75 2.5V5.5C9.75 5.91421 9.41422 6.25 9 6.25C8.58579 6.25 8.25 5.91421 8.25 5.5V2.5C8.25 1.25736 9.25736 0.25 10.5 0.25H17.7974C18.4652 0.25 19.0984 0.546602 19.5259 1.05959L21.2285 3.10266C21.5655 3.50702 21.75 4.01672 21.75 4.54307V5.5C21.75 5.91421 21.4142 6.25 21 6.25C20.5858 6.25 20.25 5.91421 20.25 5.5V4.54307C20.25 4.36762 20.1885 4.19772 20.0762 4.06294L18.3736 2.01986C18.2311 1.84887 18.02 1.75 17.7974 1.75H10.5Z" fill="#353566"/>
<path fill-rule="evenodd" clip-rule="evenodd" d="M3.37109 5.25H4.62891C5.02427 5.24999 5.36534 5.24998 5.64627 5.27293C5.94278 5.29715 6.2377 5.35064 6.52148 5.49524C6.94485 5.71095 7.28905 6.05516 7.50477 6.47852C7.63249 6.72919 7.68912 6.98854 7.7173 7.25H19.0314C19.7048 7.24999 20.2555 7.24998 20.7031 7.28655C21.1663 7.3244 21.5847 7.40514 21.9755 7.60423C22.587 7.91582 23.0842 8.413 23.3958 9.02453C23.5949 9.41527 23.6756 9.83367 23.7134 10.2969C23.75 10.7445 23.75 11.2952 23.75 11.9686V18.0314C23.75 18.7048 23.75 19.2555 23.7134 19.7031C23.6756 20.1663 23.5949 20.5847 23.3958 20.9755C23.0842 21.587 22.587 22.0842 21.9755 22.3958C21.5847 22.5949 21.1663 22.6756 20.7031 22.7134C20.2555 22.75 19.7048 22.75 19.0314 22.75H7.37083C7.15777 23.0689 6.86581 23.3293 6.52148 23.5048C6.2377 23.6494 5.94278 23.7028 5.64627 23.7271C5.36537 23.75 5.02424 23.75 4.62893 23.75H3.37098C2.97567 23.75 2.63463 23.75 2.35373 23.7271C2.05722 23.7028 1.76231 23.6494 1.47852 23.5048C1.05516 23.2891 0.710953 22.9448 0.495237 22.5215C0.350642 22.2377 0.297155 21.9428 0.272929 21.6463C0.249977 21.3654 0.249988 21.0243 0.250001 20.6289V8.37106C0.249988 7.97572 0.249977 7.63465 0.272929 7.35373C0.297155 7.05722 0.350642 6.76231 0.495237 6.47852C0.710953 6.05516 1.05516 5.71095 1.47852 5.49524C1.76231 5.35064 2.05722 5.29715 2.35373 5.27293C2.63466 5.24998 2.97573 5.24999 3.37109 5.25ZM6.25 8.36696V20.633C6.24996 21.0467 6.24897 21.3171 6.23206 21.5241C6.21541 21.7279 6.18715 21.8034 6.16826 21.8405C6.09635 21.9816 5.98162 22.0964 5.84049 22.1683C5.80341 22.1872 5.72787 22.2154 5.52413 22.2321C5.31162 22.2494 5.03242 22.25 4.6 22.25H3.4C2.96759 22.25 2.68838 22.2494 2.47588 22.2321C2.27213 22.2154 2.19659 22.1872 2.15951 22.1683C2.01839 22.0964 1.90365 21.9816 1.83175 21.8405C1.81285 21.8034 1.78459 21.7279 1.76795 21.5241C1.75059 21.3116 1.75 21.0324 1.75 20.6V8.4C1.75 7.96759 1.75059 7.68838 1.76795 7.47588C1.78459 7.27213 1.81285 7.19659 1.83175 7.15951C1.90365 7.01839 2.01839 6.90365 2.15951 6.83175C2.19659 6.81285 2.27213 6.78459 2.47588 6.76795C2.68838 6.75058 2.96759 6.75 3.4 6.75H4.6C5.03242 6.75 5.31162 6.75058 5.52413 6.76795C5.72787 6.78459 5.80341 6.81285 5.84049 6.83175C5.98162 6.90365 6.09635 7.01839 6.16826 7.15951C6.18715 7.19659 6.21541 7.27213 6.23206 7.47588C6.24897 7.68292 6.24996 7.95328 6.25 8.36696ZM18.5 12.75C18.9142 12.75 19.25 12.4142 19.25 12C19.25 11.5858 18.9142 11.25 18.5 11.25H11.5C11.0858 11.25 10.75 11.5858 10.75 12C10.75 12.4142 11.0858 12.75 11.5 12.75H18.5ZM12 14.5C11.4477 14.5 11 14.9477 11 15.5C11 16.0523 11.4477 16.5 12 16.5C12.5523 16.5 13.0001 16.0523 13.0001 15.5C13.0001 14.9477 12.5523 14.5 12 14.5ZM15 14.5C14.4477 14.5 14 14.9477 14 15.5C14 16.0523 14.4478 16.5 15.0001 16.5C15.5524 16.5 16.0001 16.0523 16.0001 15.5C16.0001 14.9477 15.5523 14.5 15 14.5ZM17 15.5C17 14.9477 17.4477 14.5 18 14.5C18.5523 14.5 19.0001 14.9477 19.0001 15.5C19.0001 16.0523 18.5524 16.5 18.0001 16.5C17.4478 16.5 17 16.0523 17 15.5ZM18 17.5C17.4477 17.5 17 17.9477 17 18.5C17 19.0523 17.4478 19.5 18.0001 19.5C18.5524 19.5 19.0001 19.0523 19.0001 18.5C19.0001 17.9477 18.5523 17.5 18 17.5ZM15 17.5C14.4477 17.5 14 17.9477 14 18.5C14 19.0523 14.4477 19.5 15 19.5C15.5523 19.5 16.0001 19.0523 16.0001 18.5C16.0001 17.9477 15.5523 17.5 15 17.5ZM12 17.5C11.4477 17.5 11 17.9477 11 18.5C11 19.0523 11.4478 19.5 12.0001 19.5C12.5524 19.5 13.0001 19.0523 13.0001 18.5C13.0001 17.9477 12.5523 17.5 12 17.5Z" fill="#353566"/>
</g>
<defs>
<clipPath id="clip0_9001_281226">
<rect width="24" height="24" fill="white"/>
</clipPath>
</defs>
</svg>
