<svg width="24" height="24" viewBox="0 0 24 24" fill="none" xmlns="http://www.w3.org/2000/svg">
<path fill-rule="evenodd" clip-rule="evenodd" d="M15.8135 1.32604C15.4951 1.24959 15.1656 1.24978 14.747 1.25003L5.7679 1.25005C4.95506 1.25005 4.29944 1.25004 3.76853 1.29342C3.2219 1.33808 2.74176 1.43244 2.29754 1.65878C1.59193 2.01831 1.01825 2.59198 0.658727 3.29759C0.432386 3.74181 0.338026 4.22195 0.293364 4.76859C0.249988 5.29949 0.249993 5.95512 0.25 6.76794V17.2322C0.249993 18.045 0.249988 18.7006 0.293364 19.2315C0.338026 19.7782 0.432386 20.2583 0.658727 20.7025C1.01825 21.4081 1.59193 21.9818 2.29754 22.3413C3.00162 22.7001 3.83696 22.7393 4.94353 22.748C4.96217 22.7494 4.981 22.7501 5 22.7501H11.7546C12.1688 22.7501 12.5046 22.4143 12.5046 22.0001C12.5046 21.5858 12.1688 21.2501 11.7546 21.2501H5.75V15.5001C5.75 14.8097 6.30964 14.2501 7 14.2501H10.8042C11.0911 14.2501 11.3528 14.0865 11.4784 13.8286C12.6559 11.4123 15.1345 9.75005 18 9.75005C18.9628 9.75005 19.88 9.93734 20.7186 10.2768C20.9498 10.3704 21.2124 10.3429 21.4192 10.2035C21.626 10.0641 21.75 9.83099 21.75 9.58157L21.75 8.25306C21.7503 7.83445 21.7505 7.50492 21.674 7.18651C21.6067 6.90591 21.4955 6.63766 21.3448 6.39161C21.1737 6.1124 20.9405 5.87952 20.6443 5.58368L17.4163 2.3557C17.1205 2.05953 16.8876 1.82639 16.6084 1.65529C16.3624 1.50452 16.0941 1.3934 15.8135 1.32604ZM13.5 6.75006C13.9142 6.75006 14.25 7.08585 14.25 7.50006C14.25 7.91427 13.9142 8.25006 13.5 8.25006L8.5 8.25006C8.08579 8.25006 7.75 7.91427 7.75 7.50006C7.75 7.08585 8.08579 6.75006 8.5 6.75006L13.5 6.75006Z" fill="#353566"/>
<path fill-rule="evenodd" clip-rule="evenodd" d="M12.25 17.0001C12.25 13.8244 14.8244 11.2501 18 11.2501C21.1756 11.2501 23.75 13.8244 23.75 17.0001C23.75 20.1757 21.1756 22.7501 18 22.7501C14.8244 22.7501 12.25 20.1757 12.25 17.0001ZM20 17.6251C20.3452 17.6251 20.625 17.3452 20.625 17.0001C20.625 16.6549 20.3452 16.3751 20 16.3751H16C15.6548 16.3751 15.375 16.6549 15.375 17.0001C15.375 17.3452 15.6548 17.6251 16 17.6251H20Z" fill="#353566"/>
</svg>
