<svg width="24" height="24" viewBox="0 0 24 24" fill="none" xmlns="http://www.w3.org/2000/svg">
<path fill-rule="evenodd" clip-rule="evenodd" d="M15.8135 1.32604C15.4951 1.24959 15.1656 1.24978 14.747 1.25003L5.7679 1.25005C4.95506 1.25005 4.29944 1.25004 3.76853 1.29342C3.2219 1.33808 2.74176 1.43244 2.29754 1.65878C1.59193 2.01831 1.01825 2.59198 0.658727 3.29759C0.432386 3.74181 0.338026 4.22195 0.293364 4.76859C0.249988 5.29949 0.249993 5.95512 0.25 6.76794V17.2322C0.249993 18.045 0.249988 18.7006 0.293364 19.2315C0.338026 19.7782 0.432386 20.2583 0.658727 20.7025C1.01825 21.4081 1.59193 21.9818 2.29754 22.3413C3.00162 22.7001 3.83696 22.7393 4.94353 22.748C4.96217 22.7494 4.981 22.7501 5 22.7501H13.4992C13.9134 22.7501 14.2492 22.4143 14.2492 22.0001C14.2492 21.5858 13.9134 21.2501 13.4992 21.2501H5.75V15.5001C5.75 14.8097 6.30964 14.2501 7 14.2501L14.9836 14.2501L14.9885 14.25C15.2122 14.2486 15.4358 14.2897 15.6458 14.3728L16.1653 14.5784C16.3637 14.6569 16.5862 14.6472 16.777 14.5517C16.9678 14.4562 17.1089 14.284 17.165 14.0781L17.3118 13.539C17.5612 12.6235 18.499 12.071 19.4244 12.3023C19.8309 12.4039 20.1668 12.6386 20.3997 12.9495C20.5933 13.2079 20.9306 13.3134 21.237 13.2114C21.5433 13.1094 21.75 12.8227 21.75 12.4998L21.75 8.25306C21.7503 7.83445 21.7505 7.50492 21.674 7.18651C21.6067 6.90591 21.4955 6.63766 21.3448 6.39161C21.1737 6.1124 20.9405 5.87952 20.6443 5.58368L17.4163 2.3557C17.1205 2.05953 16.8876 1.82639 16.6084 1.65529C16.3624 1.50452 16.0941 1.3934 15.8135 1.32604ZM13.5 6.75006C13.9142 6.75006 14.25 7.08585 14.25 7.50006C14.25 7.91427 13.9142 8.25006 13.5 8.25006L8.5 8.25006C8.08579 8.25006 7.75 7.91427 7.75 7.50006C7.75 7.08585 8.08579 6.75006 8.5 6.75006L13.5 6.75006Z" fill="#353566"/>
<path d="M15.5357 15.4751C15.8256 15.771 15.8208 16.2458 15.5249 16.5357L14.0607 17.9707L15.5355 19.475C15.8255 19.7708 15.8208 20.2456 15.525 20.5356C15.2292 20.8256 14.7544 20.8209 14.4644 20.5251L12.4644 18.4851C12.3252 18.3431 12.248 18.1515 12.25 17.9526C12.252 17.7536 12.333 17.5636 12.4751 17.4244L14.4751 15.4644C14.7709 15.1745 15.2457 15.1793 15.5357 15.4751Z" fill="#353566"/>
<path d="M20.4641 15.4754C20.7538 15.1794 21.2287 15.1744 21.5247 15.4641L23.5247 17.4221C23.6668 17.5613 23.7479 17.7513 23.75 17.9502C23.752 18.1491 23.675 18.3407 23.5358 18.4829L21.5358 20.5249C21.246 20.8208 20.7711 20.8257 20.4752 20.5359C20.1793 20.246 20.1744 19.7712 20.4642 19.4753L21.9393 17.9692L20.4753 16.536C20.1793 16.2462 20.1743 15.7714 20.4641 15.4754Z" fill="#353566"/>
<path d="M19.1819 13.2724C19.5837 13.3729 19.8281 13.7801 19.7276 14.182L17.7276 22.182C17.6271 22.5838 17.2199 22.8281 16.8181 22.7277C16.4162 22.6272 16.1719 22.22 16.2724 21.8182L18.2724 13.8182C18.3728 13.4163 18.7801 13.172 19.1819 13.2724Z" fill="#353566"/>
</svg>
