<svg width="24" height="24" viewBox="0 0 24 24" fill="none" xmlns="http://www.w3.org/2000/svg">
<g clip-path="url(#clip0_9001_285276)">
<path fill-rule="evenodd" clip-rule="evenodd" d="M12.25 6C12.25 2.82436 14.8244 0.25 18 0.25C21.1756 0.25 23.75 2.82436 23.75 6C23.75 9.17564 21.1756 11.75 18 11.75C14.8244 11.75 12.25 9.17564 12.25 6ZM17.125 3.75C17.125 3.26675 17.5167 2.875 18 2.875C18.4832 2.875 18.8751 3.26675 18.8751 3.75C18.8751 4.23325 18.4832 4.625 18 4.625C17.5167 4.625 17.125 4.23325 17.125 3.75ZM16.375 6C16.375 5.65482 16.6548 5.375 17 5.375H18C18.1658 5.375 18.3247 5.44085 18.4419 5.55806C18.5592 5.67527 18.625 5.83424 18.625 6V8.5C18.625 8.84518 18.3452 9.125 18 9.125C17.6548 9.125 17.375 8.84518 17.375 8.5V6.625H17C16.6548 6.625 16.375 6.34518 16.375 6Z" fill="#353566"/>
<path d="M10.0619 4.24997L8.39171 4.24992C7.26836 4.24939 6.49359 4.24903 5.81889 4.51983C5.22531 4.75808 4.70254 5.14419 4.30027 5.64145C3.84301 6.20668 3.61551 6.94729 3.28566 8.02112L1.19962 14.8009C2.13374 14.145 3.2719 13.76 4.49997 13.76H18.5C19.7281 13.76 20.8662 14.145 21.8004 14.8009L21.3497 13.3361C21.2897 13.1414 21.1532 12.9794 20.9715 12.8875C20.7898 12.7955 20.5784 12.7814 20.3861 12.8484C19.6398 13.1084 18.8372 13.25 18 13.25C13.9959 13.25 10.75 10.004 10.75 5.99997C10.75 5.69241 10.7691 5.38966 10.8061 5.09278C10.8327 4.87935 10.7664 4.66476 10.6241 4.50354C10.4817 4.34231 10.277 4.24997 10.0619 4.24997Z" fill="#353566"/>
<path fill-rule="evenodd" clip-rule="evenodd" d="M22.75 19.505C22.7473 17.1601 20.8455 15.26 18.5 15.26H4.49997C2.15445 15.26 0.252703 17.1601 0.25 19.505C0.252703 21.8499 2.15445 23.75 4.49997 23.75H18.5C20.8455 23.75 22.7473 21.8499 22.75 19.505ZM14.5 18.51C13.9477 18.51 13.5 18.9577 13.5 19.51C13.5 20.0623 13.9477 20.51 14.5 20.51C15.0523 20.51 15.5001 20.0623 15.5001 19.51C15.5001 18.9577 15.0523 18.51 14.5 18.51ZM16.5 19.51C16.5 18.9577 16.9477 18.51 17.5 18.51C18.0523 18.51 18.5001 18.9577 18.5001 19.51C18.5001 20.0623 18.0524 20.51 17.5001 20.51C16.9478 20.51 16.5 20.0623 16.5 19.51Z" fill="#353566"/>
</g>
<defs>
<clipPath id="clip0_9001_285276">
<rect width="24" height="24" fill="white"/>
</clipPath>
</defs>
</svg>
