<svg width="24" height="24" viewBox="0 0 24 24" fill="none" xmlns="http://www.w3.org/2000/svg">
<path d="M1.25 9.33456C1.25 4.8539 4.95951 1.25 9.5 1.25C14.0405 1.25 17.75 4.8539 17.75 9.33456C17.75 10.5508 17.5294 11.7149 17.03 12.8284C16.9163 13.0818 16.672 13.2516 16.3949 13.2698C14.2439 13.4111 12.2936 14.3018 10.8089 15.6811C10.6224 15.8544 10.4832 16.0573 10.3903 16.2751C10.3642 16.3413 10.3289 16.4029 10.2861 16.4583C10.256 16.4973 10.2222 16.5331 10.1853 16.5653C10.0535 16.6803 9.88107 16.75 9.69236 16.75H6.25V17.5002C6.25 17.908 6.57539 18.2397 6.98067 18.25H10.5589C10.7151 18.25 10.8602 18.2978 10.9803 18.3795C11.1789 18.5144 11.3093 18.7421 11.3093 19.0002C11.3093 19.4145 10.9735 19.7502 10.5593 19.7502H7.37812C7.68706 20.624 8.52043 21.25 9.5 21.25C10.357 21.25 11.1032 20.7712 11.4838 20.0629C11.6798 19.698 12.1345 19.5612 12.4994 19.7572C12.8643 19.9533 13.0012 20.408 12.8051 20.7729C12.1736 21.9482 10.931 22.75 9.5 22.75C7.55865 22.75 5.96185 21.2748 5.76944 19.3842C5.15556 18.9824 4.75 18.2887 4.75 17.5002V16.3547C2.29431 14.2875 1.25 11.9807 1.25 9.33456Z" fill="#353566"/>
<path d="M12.5105 17.5127C13.6885 16.4182 15.2651 15.75 16.9993 15.75C18.7342 15.75 20.3112 16.4187 21.4894 17.5138C21.7928 17.7958 22.2673 17.7785 22.5493 17.4751C22.8313 17.1717 22.814 16.6971 22.5106 16.4151C21.0659 15.0723 19.1278 14.25 16.9993 14.25C14.8716 14.25 12.9341 15.0717 11.4895 16.4138C11.1861 16.6957 11.1686 17.1702 11.4505 17.4737C11.7325 17.7772 12.207 17.7946 12.5105 17.5127Z" fill="#353566"/>
<path d="M17.0032 19.083C16.2185 19.083 15.5008 19.4135 14.9697 19.9646C14.6823 20.2628 14.2075 20.2716 13.9092 19.9841C13.611 19.6967 13.6022 19.2219 13.8897 18.9237C14.6831 18.1004 15.7827 17.583 17.0032 17.583C18.2237 17.583 19.3233 18.1004 20.1168 18.9237C20.4042 19.2219 20.3955 19.6967 20.0972 19.9841C19.799 20.2716 19.3242 20.2628 19.0367 19.9646C18.5057 19.4135 17.7879 19.083 17.0032 19.083Z" fill="#353566"/>
<path d="M17 20.5C16.4477 20.5 16 20.9477 16 21.5C16 22.0523 16.4477 22.5 17 22.5C17.5523 22.5 18.0001 22.0523 18.0001 21.5C18.0001 20.9477 17.5523 20.5 17 20.5Z" fill="#353566"/>
</svg>
