<svg width="24" height="24" viewBox="0 0 24 24" fill="none" xmlns="http://www.w3.org/2000/svg">
<path d="M1.25 9.33456C1.25 4.8539 4.95951 1.25 9.5 1.25C13.9154 1.25 17.5438 4.6569 17.7415 8.96561C17.7509 9.17016 17.6763 9.36964 17.5349 9.51778C17.3936 9.66591 17.1978 9.74981 16.993 9.75001C13.3028 9.75347 10.2571 12.5146 9.80731 16.0834C9.79442 16.1999 9.75482 16.3084 9.69476 16.4026C9.66088 16.4558 9.62054 16.5043 9.5749 16.5471C9.44076 16.6729 9.26033 16.75 9.06189 16.75H6.25V17.5002C6.25 17.908 6.57539 18.2397 6.98067 18.25H9.25204C9.60076 18.25 9.8939 18.488 9.97787 18.8104C9.99368 18.8711 10.0021 18.9347 10.0021 19.0002C10.0021 19.4145 9.66631 19.7502 9.2521 19.7502H7.37812C7.68706 20.624 8.52043 21.25 9.5 21.25C9.79115 21.25 10.0677 21.1951 10.321 21.0957C10.7067 20.9445 11.1419 21.1345 11.2931 21.5201C11.4443 21.9057 11.2543 22.3409 10.8687 22.4922C10.4437 22.6588 9.98158 22.75 9.5 22.75C7.55865 22.75 5.96185 21.2748 5.76944 19.3842C5.15556 18.9824 4.75 18.2887 4.75 17.5002V16.3547C2.29431 14.2875 1.25 11.9807 1.25 9.33456Z" fill="#353566"/>
<path fill-rule="evenodd" clip-rule="evenodd" d="M17 11.25C13.8244 11.25 11.25 13.8244 11.25 17C11.25 20.1756 13.8244 22.75 17 22.75C20.1756 22.75 22.75 20.1756 22.75 17C22.75 13.8244 20.1756 11.25 17 11.25ZM14.5581 16.0581C14.314 16.3022 14.314 16.6979 14.5581 16.942C14.8021 17.186 15.1979 17.186 15.4419 16.942L16.375 16.0089V19.5C16.375 19.8452 16.6548 20.125 17 20.125C17.3452 20.125 17.625 19.8452 17.625 19.5V16.0089L18.5581 16.9419C18.8021 17.186 19.1979 17.186 19.442 16.9419C19.686 16.6979 19.686 16.3021 19.442 16.058L17.442 14.0581C17.3248 13.9408 17.1658 13.875 17 13.875C16.8343 13.875 16.6753 13.9408 16.5581 14.0581L14.5581 16.0581Z" fill="#353566"/>
</svg>
