<svg width="24" height="24" viewBox="0 0 24 24" fill="none" xmlns="http://www.w3.org/2000/svg">
<path d="M1.25 9.33456C1.25 4.8539 4.95951 1.25 9.5 1.25C13.9154 1.25 17.5438 4.6569 17.7415 8.96561C17.7509 9.17016 17.6763 9.36964 17.5349 9.51778C17.3936 9.66591 17.1978 9.74981 16.993 9.75001C13.3028 9.75347 10.2571 12.5146 9.80731 16.0834C9.79442 16.1999 9.75482 16.3084 9.69476 16.4026C9.66088 16.4558 9.62054 16.5043 9.5749 16.5471C9.44076 16.6729 9.26033 16.75 9.06189 16.75H6.25V17.5002C6.25 17.908 6.57539 18.2397 6.98067 18.25H9.25204C9.60076 18.25 9.8939 18.488 9.97787 18.8104C9.99368 18.8711 10.0021 18.9347 10.0021 19.0002C10.0021 19.4145 9.66631 19.7502 9.2521 19.7502H7.37812C7.68706 20.624 8.52043 21.25 9.5 21.25C9.79115 21.25 10.0677 21.1951 10.321 21.0957C10.7067 20.9445 11.1419 21.1345 11.2931 21.5201C11.4443 21.9057 11.2543 22.3409 10.8687 22.4922C10.4437 22.6588 9.98158 22.75 9.5 22.75C7.55865 22.75 5.96185 21.2748 5.76944 19.3842C5.15556 18.9824 4.75 18.2887 4.75 17.5002V16.3547C2.29431 14.2875 1.25 11.9807 1.25 9.33456Z" fill="#353566"/>
<path fill-rule="evenodd" clip-rule="evenodd" d="M17 11.25C13.8244 11.25 11.25 13.8244 11.25 17C11.25 20.1756 13.8244 22.75 17 22.75C20.1756 22.75 22.75 20.1756 22.75 17C22.75 13.8244 20.1756 11.25 17 11.25ZM19.4419 14.5581C19.686 14.8021 19.686 15.1979 19.4419 15.4419L15.4419 19.4419C15.1979 19.686 14.8021 19.686 14.5581 19.4419C14.314 19.1979 14.314 18.8021 14.5581 18.5581L18.5581 14.5581C18.8021 14.314 19.1979 14.314 19.4419 14.5581ZM14.75 15.5C14.75 15.0858 15.0858 14.75 15.5 14.75C15.9142 14.75 16.2501 15.0858 16.2501 15.5C16.2501 15.9142 15.9143 16.25 15.5001 16.25C15.0859 16.25 14.75 15.9142 14.75 15.5ZM18.5 17.75C18.0858 17.75 17.75 18.0858 17.75 18.5C17.75 18.9142 18.0858 19.25 18.5 19.25C18.9142 19.25 19.2501 18.9142 19.2501 18.5C19.2501 18.0858 18.9142 17.75 18.5 17.75Z" fill="#353566"/>
</svg>
