<svg width="24" height="24" viewBox="0 0 24 24" fill="none" xmlns="http://www.w3.org/2000/svg">
<path d="M1.25 9.33456C1.25 4.8539 4.95951 1.25 9.5 1.25C14.0405 1.25 17.75 4.8539 17.75 9.33456C17.75 11.9807 16.7057 14.2875 14.25 16.3547V17.1667C14.25 17.5809 13.9142 17.9167 13.5 17.9167C13.0858 17.9167 12.75 17.5809 12.75 17.1667V16.75H6.25V17.5002C6.25 17.908 6.57539 18.2397 6.98067 18.25H11.8216C12.2358 18.25 12.5716 18.5858 12.5716 19C12.5716 19.1093 12.5483 19.2131 12.5062 19.3067C12.3891 19.5681 12.1266 19.7502 11.8215 19.7502H7.37812C7.68706 20.624 8.52043 21.25 9.5 21.25C10.0995 21.25 10.6429 21.0165 11.0468 20.634C11.3475 20.3492 11.8222 20.3621 12.107 20.6629C12.3919 20.9636 12.3789 21.4383 12.0782 21.7231C11.4068 22.3589 10.4983 22.75 9.5 22.75C7.55865 22.75 5.96185 21.2748 5.76944 19.3842C5.15556 18.9824 4.75 18.2887 4.75 17.5002V16.3547C2.29431 14.2875 1.25 11.9807 1.25 9.33456Z" fill="#353566"/>
<path d="M21.6009 15.2202L18.5005 16.1245V20.4912L18.5005 20.5001C18.5005 21.0645 18.2114 21.5883 17.7146 21.9609C17.2232 22.3295 16.601 22.5003 16.0003 22.5003C15.3995 22.5003 14.7773 22.3295 14.2859 21.9609C13.7891 21.5883 13.5 21.0645 13.5 20.5001C13.5 19.9357 13.7891 19.4119 14.2859 19.0393C14.7773 18.6708 15.3995 18.4999 16.0003 18.4999C16.5167 18.4999 17.049 18.6262 17.5005 18.8958V13.7093C17.5005 13.0425 17.9405 12.4558 18.5806 12.2691L21.0609 11.5457C21.7809 11.3357 22.501 11.8757 22.501 12.6258V14.0201C22.501 14.5757 22.1343 15.0646 21.6009 15.2202Z" fill="#353566"/>
</svg>
