<svg width="24" height="24" viewBox="0 0 24 24" fill="none" xmlns="http://www.w3.org/2000/svg">
<path fill-rule="evenodd" clip-rule="evenodd" d="M8.75 2C8.75 1.58579 8.41421 1.25 8 1.25C7.58579 1.25 7.25 1.58579 7.25 2V3.29937L7.24013 3.30018C6.61012 3.35165 6.06824 3.45963 5.57054 3.71322C4.77085 4.12068 4.12068 4.77085 3.71322 5.57054C3.45963 6.06824 3.35165 6.61012 3.30018 7.24013L3.29937 7.25H2C1.58579 7.25 1.25 7.58579 1.25 8C1.25 8.41421 1.58579 8.75 2 8.75H3.25141C3.25 9.00555 3.25 9.27759 3.25 9.56739V11.25H2C1.58579 11.25 1.25 11.5858 1.25 12C1.25 12.4142 1.58579 12.75 2 12.75H3.25V14.4326C3.25 14.7224 3.25 14.9944 3.25141 15.25H2C1.58579 15.25 1.25 15.5858 1.25 16C1.25 16.4142 1.58579 16.75 2 16.75H3.29937L3.30018 16.7599C3.35165 17.3899 3.45963 17.9318 3.71322 18.4295C4.12068 19.2291 4.77085 19.8793 5.57054 20.2868C6.06824 20.5404 6.61012 20.6484 7.24013 20.6998L7.25 20.7006V22C7.25 22.4142 7.58579 22.75 8 22.75C8.41421 22.75 8.75 22.4142 8.75 22V20.7486C9.00518 20.75 9.2768 20.75 9.56613 20.75H11.25V22C11.25 22.4142 11.5858 22.75 12 22.75C12.4142 22.75 12.75 22.4142 12.75 22V20.75H14.4339C14.7232 20.75 14.9948 20.75 15.25 20.7486V22C15.25 22.4142 15.5858 22.75 16 22.75C16.4142 22.75 16.75 22.4142 16.75 22V20.7006L16.7599 20.6998C17.3899 20.6484 17.9318 20.5404 18.4295 20.2868C19.2291 19.8793 19.8793 19.2291 20.2868 18.4295C20.5404 17.9318 20.6483 17.3899 20.6998 16.7599L20.7006 16.75H22C22.4142 16.75 22.75 16.4142 22.75 16C22.75 15.5858 22.4142 15.25 22 15.25H20.7486C20.75 14.9948 20.75 14.7232 20.75 14.4339V12.75H22C22.4142 12.75 22.75 12.4142 22.75 12C22.75 11.5858 22.4142 11.25 22 11.25H20.75V9.56613C20.75 9.2768 20.75 9.00518 20.7486 8.75H22C22.4142 8.75 22.75 8.41421 22.75 8C22.75 7.58579 22.4142 7.25 22 7.25H20.7006L20.6998 7.24013C20.6483 6.61012 20.5404 6.06824 20.2868 5.57054C19.8793 4.77085 19.2291 4.12068 18.4295 3.71322C17.9318 3.45963 17.3899 3.35165 16.7599 3.30018L16.75 3.29937V2C16.75 1.58579 16.4142 1.25 16 1.25C15.5858 1.25 15.25 1.58579 15.25 2V3.25141C14.9944 3.25 14.7224 3.25 14.4326 3.25H12.75V2C12.75 1.58579 12.4142 1.25 12 1.25C11.5858 1.25 11.25 1.58579 11.25 2V3.25H9.56739C9.27759 3.25 9.00555 3.25 8.75 3.25141V2ZM9.15692 12.7999H10.7815C11.0058 12.7999 11.1877 12.9789 11.1877 13.1997V15.5994C11.1877 15.9774 11.6712 16.1443 11.9111 15.8491L15.1603 11.8496C15.373 11.5878 15.1836 11.2001 14.8431 11.2001H13.2185C12.9942 11.2001 12.8123 11.0211 12.8123 10.8003V8.40058C12.8123 8.02263 12.3288 7.85572 12.089 8.1509L8.83971 12.1504C8.62704 12.4122 8.81639 12.7999 9.15692 12.7999Z" fill="#353566"/>
</svg>
