<svg width="24" height="24" viewBox="0 0 24 24" fill="none" xmlns="http://www.w3.org/2000/svg">
<path fill-rule="evenodd" clip-rule="evenodd" d="M10.8324 1.25H7.16762C6.285 1.24999 5.57692 1.24999 5.00433 1.29677C4.41601 1.34484 3.905 1.44601 3.43404 1.68597C2.68139 2.06947 2.06947 2.68139 1.68597 3.43404C1.44601 3.905 1.34484 4.41601 1.29677 5.00433C1.24999 5.57691 1.24999 6.28499 1.25 7.16761V16.8324C1.24999 17.715 1.24999 18.4231 1.29677 18.9957C1.34484 19.584 1.44601 20.095 1.68597 20.566C2.06947 21.3186 2.68139 21.9305 3.43404 22.314C3.905 22.554 4.41601 22.6552 5.00433 22.7032C5.57692 22.75 6.28499 22.75 7.16761 22.75H10.8324C11.715 22.75 12.4231 22.75 12.9957 22.7032C13.584 22.6552 14.095 22.554 14.566 22.314C14.6837 22.254 14.798 22.1885 14.9085 22.1176C15.1236 21.9797 15.2538 21.7418 15.2538 21.4862V20.5274C15.2538 20.1526 14.9771 19.8354 14.6059 19.7843L14.1739 19.725C12.504 19.4955 11.6431 17.4786 12.7491 16.0958L16.5857 11.2993C16.6921 11.1663 16.75 11.0011 16.75 10.8308V7.16756C16.75 6.28499 16.75 5.57689 16.7032 5.00433C16.6552 4.41601 16.554 3.905 16.314 3.43404C15.9305 2.68139 15.3186 2.06947 14.566 1.68597C14.095 1.44601 13.584 1.34484 12.9957 1.29677C12.4231 1.24999 11.715 1.24999 10.8324 1.25ZM6.75 5C6.75 4.58579 7.08579 4.25 7.5 4.25H10.5C10.9142 4.25 11.25 4.58579 11.25 5C11.25 5.41421 10.9142 5.75 10.5 5.75H7.5C7.08579 5.75 6.75 5.41421 6.75 5ZM8 18.5C8 17.9477 8.44772 17.5 9 17.5C9.55228 17.5 10.0001 17.9477 10.0001 18.5C10.0001 19.0523 9.55228 19.5 9 19.5C8.44772 19.5 8 19.0523 8 18.5Z" fill="#353566"/>
<path d="M19.5009 12.5007C19.5009 11.555 18.3101 11.1386 17.72 11.8762L13.72 16.8756C13.196 17.5306 13.663 18.4998 14.5009 18.4998H16.5009V21.4992C16.5009 22.4449 17.6917 22.8613 18.2818 22.1237L22.2818 17.1243C22.8058 16.4693 22.3388 15.5001 21.5009 15.5001H19.5009V12.5007Z" fill="#353566"/>
</svg>
