<svg width="24" height="24" viewBox="0 0 24 24" fill="none" xmlns="http://www.w3.org/2000/svg">
<path fill-rule="evenodd" clip-rule="evenodd" d="M14.0314 1.25H9.96858C9.29522 1.24999 8.74448 1.24999 8.29693 1.28655C7.83367 1.3244 7.41527 1.40514 7.02453 1.60423C6.413 1.91582 5.91581 2.41301 5.60422 3.02453C5.40513 3.41527 5.3244 3.83367 5.28655 4.29693C5.24998 4.7445 5.24999 5.2952 5.25 5.96858V18.0314C5.24999 18.7048 5.24998 19.2555 5.28655 19.7031C5.3244 20.1663 5.40513 20.5847 5.60422 20.9755C5.91581 21.587 6.413 22.0842 7.02453 22.3958C7.41527 22.5949 7.83367 22.6756 8.29693 22.7134C8.74449 22.75 9.29519 22.75 9.96856 22.75H14.0314C14.7048 22.75 15.2555 22.75 15.7031 22.7134C16.1663 22.6756 16.5847 22.5949 16.9755 22.3958C17.587 22.0842 18.0842 21.587 18.3958 20.9755C18.5949 20.5847 18.6756 20.1663 18.7134 19.7031C18.75 19.2555 18.75 18.7048 18.75 18.0314V5.96856C18.75 5.29519 18.75 4.74449 18.7134 4.29693C18.6756 3.83367 18.5949 3.41527 18.3958 3.02453C18.0842 2.41301 17.587 1.91582 16.9755 1.60423C16.5847 1.40514 16.1663 1.3244 15.7031 1.28655C15.2555 1.24999 14.7048 1.24999 14.0314 1.25ZM12 17.5C11.4477 17.5 11 17.9477 11 18.5C11 19.0523 11.4478 19.5 12.0001 19.5C12.5524 19.5 13.0001 19.0523 13.0001 18.5C13.0001 17.9477 12.5523 17.5 12 17.5Z" fill="#353566"/>
<path d="M21.5144 5.76565C21.8177 5.7028 22.1284 5.83279 22.2965 6.09286C23.2925 7.63358 23.75 9.85704 23.75 12C23.75 14.143 23.2925 16.3665 22.2965 17.9072C22.0716 18.2551 21.6073 18.3548 21.2595 18.1299C20.9116 17.905 20.8119 17.4407 21.0368 17.0929C21.8186 15.8836 22.25 13.982 22.25 12C22.25 11.0532 22.1515 10.1247 21.9635 9.2813L21.7398 10.6233C21.6717 11.0319 21.2853 11.3079 20.8767 11.2398C20.4681 11.1717 20.1921 10.7853 20.2602 10.3767L20.9269 6.37674C20.9778 6.07127 21.2112 5.8285 21.5144 5.76565Z" fill="#353566"/>
<path d="M2.48555 18.2344C2.1823 18.2972 1.87161 18.1672 1.70349 17.9071C0.707466 16.3664 0.25 14.143 0.25 12C0.25 9.85696 0.707466 7.6335 1.70349 6.09279C1.92836 5.74493 2.39265 5.64524 2.74051 5.87011C3.08836 6.09499 3.18806 6.55928 2.96318 6.90714C2.18142 8.11642 1.75 10.018 1.75 12C1.75 12.9468 1.84846 13.8753 2.03653 14.7187L2.2602 13.3767C2.3283 12.9681 2.71472 12.6921 3.1233 12.7602C3.53188 12.8283 3.80789 13.2147 3.7398 13.6233L3.07313 17.6233C3.02222 17.9287 2.78879 18.1715 2.48555 18.2344Z" fill="#353566"/>
</svg>
