<svg width="24" height="24" viewBox="0 0 24 24" fill="none" xmlns="http://www.w3.org/2000/svg">
<path d="M6.5 1.99902C6.5 1.58481 6.16421 1.24902 5.75 1.24902C5.33579 1.24902 5 1.58481 5 1.99902V5.74902H6.5V1.99902Z" fill="#353566"/>
<path d="M1 8.24902H2V11.999C2 15.6116 4.73668 18.5851 8.25 18.9593V21.999C8.25 22.4132 8.58579 22.749 9 22.749C9.41421 22.749 9.75 22.4132 9.75 21.999V18.9593C13.2633 18.5851 16 15.6116 16 11.999V8.24902H17C17.4142 8.24902 17.75 7.91324 17.75 7.49902C17.75 7.08481 17.4142 6.74902 17 6.74902L1 6.74902C0.585787 6.74902 0.25 7.08481 0.25 7.49902C0.25 7.91324 0.585787 8.24902 1 8.24902Z" fill="#353566"/>
<path d="M12.25 1.24902C12.6642 1.24902 13 1.58481 13 1.99902V5.74902H11.5V1.99902C11.5 1.58481 11.8358 1.24902 12.25 1.24902Z" fill="#353566"/>
<path d="M22.6009 15.2192L19.5005 16.1235V20.4902L19.5005 20.4992C19.5005 21.0636 19.2114 21.5874 18.7146 21.9599C18.2232 22.3285 17.601 22.4993 17.0003 22.4993C16.3995 22.4993 15.7773 22.3285 15.2859 21.9599C14.7891 21.5874 14.5 21.0636 14.5 20.4992C14.5 19.9347 14.7891 19.4109 15.2859 19.0384C15.7773 18.6698 16.3995 18.499 17.0003 18.499C17.5167 18.499 18.049 18.6252 18.5005 18.8948V13.7083C18.5005 13.0416 18.9405 12.4548 19.5806 12.2682L22.0609 11.5447C22.7809 11.3347 23.501 11.8748 23.501 12.6248V14.0191C23.501 14.5747 23.1343 15.0637 22.6009 15.2192Z" fill="#353566"/>
</svg>
