<svg width="24" height="24" viewBox="0 0 24 24" fill="none" xmlns="http://www.w3.org/2000/svg">
<g clip-path="url(#clip0_9001_286165)">
<path d="M5.75 2.5C5.75 2.08579 6.08579 1.75 6.5 1.75H12.4162C12.8304 1.75 13.1662 1.41421 13.1662 1C13.1662 0.585786 12.8304 0.25 12.4162 0.25H6.5C5.25736 0.25 4.25 1.25736 4.25 2.5V6C4.25 6.41421 4.58579 6.75 5 6.75C5.41421 6.75 5.75 6.41421 5.75 6V2.5Z" fill="#353566"/>
<path fill-rule="evenodd" clip-rule="evenodd" d="M4 8.25C1.92893 8.25 0.25 9.92893 0.25 12V17.5C0.25 18.7426 1.25736 19.75 2.5 19.75H4.25V21.5C4.25 22.7426 5.25736 23.75 6.5 23.75H15.5C16.7426 23.75 17.75 22.7426 17.75 21.5V19.75H19.5C20.7426 19.75 21.75 18.7426 21.75 17.5V12C21.75 11.5387 21.6664 11.0952 21.5127 10.685C21.4416 10.4951 21.2967 10.3421 21.1109 10.2609C20.9251 10.1796 20.7144 10.1771 20.5267 10.2538C19.7272 10.5805 18.8721 10.75 18 10.75C16.1199 10.75 14.3103 9.96156 12.9699 8.49417C12.8279 8.33862 12.6269 8.25 12.4162 8.25H4ZM16.25 15.75V21.5C16.25 21.9142 15.9142 22.25 15.5 22.25H6.5C6.08579 22.25 5.75 21.9142 5.75 21.5V15.75H16.25Z" fill="#353566"/>
<path d="M18 3.5C17.17 3.5 16.5 4.17 16.5 5C16.5 5.83 17.17 6.5 18 6.5C18.83 6.5 19.5 5.83 19.5 5C19.5 4.17 18.83 3.5 18 3.5Z" fill="#353566"/>
<path fill-rule="evenodd" clip-rule="evenodd" d="M23.3973 4.45386C22.3768 1.84732 20.2068 0.5 18 0.5C15.7932 0.5 13.6232 1.84733 12.6027 4.45387C12.4658 4.80356 12.4658 5.19644 12.6027 5.54614C13.6232 8.15268 15.7932 9.5 18 9.5C20.2068 9.5 22.3768 8.15268 23.3973 5.54613C23.5342 5.19644 23.5342 4.80356 23.3973 4.45386ZM15.5 5C15.5 3.61771 16.6177 2.5 18 2.5C19.3823 2.5 20.5 3.61771 20.5 5C20.5 6.38229 19.3823 7.5 18 7.5C16.6177 7.5 15.5 6.38229 15.5 5Z" fill="#353566"/>
</g>
<defs>
<clipPath id="clip0_9001_286165">
<rect width="24" height="24" fill="white"/>
</clipPath>
</defs>
</svg>
