<svg width="24" height="24" viewBox="0 0 24 24" fill="none" xmlns="http://www.w3.org/2000/svg">
<g clip-path="url(#clip0_9001_286220)">
<path d="M6.5 1.75C6.08579 1.75 5.75 2.08579 5.75 2.5V6C5.75 6.41421 5.41421 6.75 5 6.75C4.58579 6.75 4.25 6.41421 4.25 6V2.5C4.25 1.25736 5.25736 0.25 6.5 0.25H11.9406C12.3548 0.25 12.6906 0.585786 12.6906 1C12.6906 1.41421 12.3548 1.75 11.9406 1.75H6.5Z" fill="#353566"/>
<path fill-rule="evenodd" clip-rule="evenodd" d="M0.25 12C0.25 9.92893 1.92893 8.25 4 8.25H11.7509C11.9917 8.25 12.2178 8.36563 12.3588 8.56085C13.4272 10.0399 15.164 11 17.125 11C17.9047 11 18.6599 10.8215 19.4449 10.5341C19.7191 10.4337 20.0266 10.5015 20.2331 10.708L21.5303 12.0053C21.671 12.1459 21.75 12.3367 21.75 12.5356V17.5C21.75 18.7426 20.7426 19.75 19.5 19.75H17.75V21.5C17.75 22.7426 16.7426 23.75 15.5 23.75H6.5C5.25736 23.75 4.25 22.7426 4.25 21.5V19.75H2.5C1.25736 19.75 0.25 18.7426 0.25 17.5V12ZM16.25 15.75H5.75V21.5C5.75 21.9142 6.08579 22.25 6.5 22.25H15.5C15.9142 22.25 16.25 21.9142 16.25 21.5V15.75Z" fill="#353566"/>
<path fill-rule="evenodd" clip-rule="evenodd" d="M12.25 5.125C12.25 2.43261 14.4326 0.25 17.125 0.25C19.8174 0.25 22 2.43261 22 5.125C22 6.20058 21.6517 7.1948 21.0617 8.00102L23.5303 10.4697C23.8232 10.7626 23.8232 11.2374 23.5303 11.5303C23.2374 11.8232 22.7625 11.8232 22.4696 11.5303L20.001 9.06168C19.1948 9.65168 18.2006 10 17.125 10C14.4326 10 12.25 7.81739 12.25 5.125ZM17.125 1.75C15.261 1.75 13.75 3.26104 13.75 5.125C13.75 6.98896 15.261 8.5 17.125 8.5C18.989 8.5 20.5 6.98896 20.5 5.125C20.5 3.26104 18.989 1.75 17.125 1.75Z" fill="#353566"/>
</g>
<defs>
<clipPath id="clip0_9001_286220">
<rect width="24" height="24" fill="white"/>
</clipPath>
</defs>
</svg>
