<svg width="24" height="24" viewBox="0 0 24 24" fill="none" xmlns="http://www.w3.org/2000/svg">
<path fill-rule="evenodd" clip-rule="evenodd" d="M6.75 8.5H17.25L17.25 2C17.25 1.58579 17.5858 1.25 18 1.25C18.4142 1.25 18.75 1.58579 18.75 2L18.75 8.5H19.0219C19.7034 8.5 20.2454 8.49999 20.6827 8.53572C21.1305 8.57231 21.5123 8.64884 21.862 8.82698C22.4265 9.1146 22.8854 9.57354 23.173 10.138C23.3512 10.4877 23.4277 10.8695 23.4643 11.3173C23.5 11.7545 23.5 12.2967 23.5 12.9781V16.0221C23.5 16.7035 23.5 17.2455 23.4643 17.6827C23.4277 18.1305 23.3512 18.5123 23.173 18.862C22.8854 19.4265 22.4265 19.8854 21.862 20.173C21.5123 20.3512 21.1305 20.4277 20.6827 20.4643C20.414 20.4862 20.1058 20.4947 19.75 20.498V22C19.75 22.4142 19.4142 22.75 19 22.75C18.5858 22.75 18.25 22.4142 18.25 22V20.5H5.75V22C5.75 22.4142 5.41421 22.75 5 22.75C4.58579 22.75 4.25 22.4142 4.25 22V20.498C3.89418 20.4947 3.58597 20.4862 3.31729 20.4643C2.86949 20.4277 2.48765 20.3512 2.13803 20.173C1.57354 19.8854 1.1146 19.4265 0.826981 18.862C0.648839 18.5123 0.572308 18.1305 0.535721 17.6827C0.499993 17.2454 0.499996 16.7034 0.5 16.0219V12.9781C0.499996 12.2966 0.499993 11.7546 0.535721 11.3173C0.572308 10.8695 0.648839 10.4877 0.826981 10.138C1.1146 9.57354 1.57354 9.1146 2.13803 8.82698C2.48765 8.64884 2.86949 8.57231 3.31729 8.53572C3.75458 8.49999 4.29661 8.5 4.97812 8.5H5.25L5.25 2C5.25 1.58579 5.58579 1.25 6 1.25C6.41421 1.25 6.75 1.58579 6.75 2L6.75 8.5ZM11.5 14.5C11.5 13.9477 11.9477 13.5 12.5 13.5C13.0523 13.5 13.5001 13.9477 13.5001 14.5C13.5001 15.0523 13.0524 15.5 12.5001 15.5C11.9478 15.5 11.5 15.0523 11.5 14.5ZM14.5 14.5C14.5 13.9477 14.9477 13.5 15.5 13.5C16.0523 13.5 16.5001 13.9477 16.5001 14.5C16.5001 15.0523 16.0524 15.5 15.5001 15.5C14.9478 15.5 14.5 15.0523 14.5 14.5ZM17.5 14.5C17.5 13.9477 17.9477 13.5 18.5 13.5C19.0523 13.5 19.5001 13.9477 19.5001 14.5C19.5001 15.0523 19.0523 15.5 18.5 15.5C17.9477 15.5 17.5 15.0523 17.5 14.5Z" fill="#353566"/>
</svg>
