<svg width="24" height="24" viewBox="0 0 24 24" fill="none" xmlns="http://www.w3.org/2000/svg">
<path d="M12.75 2C12.75 1.58579 12.4142 1.25 12 1.25C11.5858 1.25 11.25 1.58579 11.25 2V10.1893L9.03033 7.96967C8.73744 7.67678 8.26256 7.67678 7.96967 7.96967C7.67678 8.26256 7.67678 8.73744 7.96967 9.03033L11.4697 12.5303C11.7626 12.8232 12.2374 12.8232 12.5303 12.5303L16.0303 9.03033C16.3232 8.73744 16.3232 8.26256 16.0303 7.96967C15.7374 7.67678 15.2626 7.67678 14.9697 7.96967L12.75 10.1893V2Z" fill="#353566"/>
<path fill-rule="evenodd" clip-rule="evenodd" d="M6.36821 10.25H6.76382C6.97702 10.25 7.18014 10.3407 7.32241 10.4995C7.35022 10.5306 7.37908 10.5611 7.40901 10.591L10.409 13.591C10.831 14.0129 11.4033 14.25 12 14.25C12.5967 14.25 13.169 14.0129 13.591 13.591L16.591 10.591C16.6209 10.5611 16.6498 10.5306 16.6776 10.4995C16.8199 10.3407 17.023 10.25 17.2362 10.25H17.6318C18.3749 10.25 18.978 10.25 19.4673 10.29C19.9722 10.3312 20.4215 10.4188 20.839 10.6315C21.4975 10.967 22.033 11.5025 22.3685 12.161C22.5812 12.5785 22.6688 13.0278 22.71 13.5327C22.75 14.0219 22.75 14.6252 22.75 15.3682V17.6319C22.75 18.3749 22.75 18.9781 22.71 19.4673C22.6688 19.9722 22.5812 20.4215 22.3685 20.839C22.033 21.4975 21.4975 22.033 20.839 22.3685C20.4215 22.5812 19.9722 22.6688 19.4673 22.71C18.9781 22.75 18.3748 22.75 17.6318 22.75H6.36811C5.62507 22.75 5.02195 22.75 4.53273 22.71C4.02778 22.6688 3.57851 22.5812 3.16103 22.3685C2.50247 22.033 1.96704 21.4975 1.63148 20.839C1.41876 20.4215 1.33121 19.9722 1.28996 19.4673C1.24999 18.978 1.24999 18.3749 1.25 17.6318V15.3682C1.24999 14.6251 1.24999 14.022 1.28996 13.5327C1.33121 13.0278 1.41876 12.5785 1.63148 12.161C1.96704 11.5025 2.50247 10.967 3.16103 10.6315C3.57851 10.4188 4.02778 10.3312 4.53273 10.29C5.02196 10.25 5.62514 10.25 6.36821 10.25ZM13.5 16.5C13.5 15.9477 13.9477 15.5 14.5 15.5C15.0523 15.5 15.5001 15.9477 15.5001 16.5C15.5001 17.0523 15.0523 17.5 14.5 17.5C13.9477 17.5 13.5 17.0523 13.5 16.5ZM17 16.5C17 15.9477 17.4477 15.5 18 15.5C18.5523 15.5 19.0001 15.9477 19.0001 16.5C19.0001 17.0523 18.5523 17.5 18 17.5C17.4477 17.5 17 17.0523 17 16.5Z" fill="#353566"/>
</svg>
