<svg width="24" height="24" viewBox="0 0 24 24" fill="none" xmlns="http://www.w3.org/2000/svg">
<path fill-rule="evenodd" clip-rule="evenodd" d="M7.46967 1.46967C7.76256 1.17678 8.23744 1.17678 8.53033 1.46967L12 4.93934L15.4697 1.46967C15.7626 1.17678 16.2374 1.17678 16.5303 1.46967C16.8232 1.76256 16.8232 2.23744 16.5303 2.53033L13.8107 5.25H16.4326C17.3851 5.24999 18.1456 5.24999 18.7599 5.30018C19.3899 5.35165 19.9318 5.45963 20.4295 5.71322C21.2291 6.12068 21.8793 6.77085 22.2868 7.57054C22.5404 8.06824 22.6483 8.61012 22.6998 9.24013C22.75 9.85438 22.75 10.615 22.75 11.5674V16.4327C22.75 17.3851 22.75 18.1456 22.6998 18.7599C22.6483 19.3899 22.5404 19.9318 22.2868 20.4295C21.8793 21.2291 21.2291 21.8793 20.4295 22.2868C19.9318 22.5404 19.3899 22.6483 18.7599 22.6998C18.1456 22.75 17.385 22.75 16.4326 22.75H7.5673C6.6149 22.75 5.85438 22.75 5.24013 22.6998C4.61012 22.6483 4.06824 22.5404 3.57054 22.2868C2.77085 21.8793 2.12068 21.2291 1.71322 20.4295C1.45963 19.9318 1.35165 19.3899 1.30018 18.7599C1.24999 18.1456 1.24999 17.3851 1.25 16.4326V11.5674C1.24999 10.6149 1.24999 9.85439 1.30018 9.24013C1.35165 8.61012 1.45963 8.06824 1.71322 7.57054C2.12068 6.77085 2.77085 6.12068 3.57054 5.71322C4.06824 5.45963 4.61012 5.35165 5.24013 5.30018C5.8544 5.24999 6.61494 5.24999 7.56739 5.25H10.1893L7.46967 2.53033C7.17678 2.23744 7.17678 1.76256 7.46967 1.46967ZM4.5 11.4C4.5 10.5599 4.5 10.1399 4.66349 9.81901C4.8073 9.53677 5.03677 9.3073 5.31901 9.16349C5.63988 9 6.05992 9 6.9 9H13.1C13.9401 9 14.3601 9 14.681 9.16349C14.9632 9.3073 15.1927 9.53677 15.3365 9.81901C15.5 10.1399 15.5 10.5599 15.5 11.4V16.6C15.5 17.4401 15.5 17.8601 15.3365 18.181C15.1927 18.4632 14.9632 18.6927 14.681 18.8365C14.3601 19 13.9401 19 13.1 19H6.9C6.05992 19 5.63988 19 5.31901 18.8365C5.03677 18.6927 4.8073 18.4632 4.66349 18.181C4.5 17.8601 4.5 17.4401 4.5 16.6V11.4ZM17.75 15C17.75 14.5858 18.0858 14.25 18.5 14.25H20C20.4142 14.25 20.75 14.5858 20.75 15C20.75 15.4142 20.4142 15.75 20 15.75H18.5C18.0858 15.75 17.75 15.4142 17.75 15ZM17.75 18C17.75 17.5858 18.0858 17.25 18.5 17.25H20C20.4142 17.25 20.75 17.5858 20.75 18C20.75 18.4142 20.4142 18.75 20 18.75H18.5C18.0858 18.75 17.75 18.4142 17.75 18ZM18.25 10.5C18.25 9.94771 18.6977 9.5 19.25 9.5C19.8023 9.5 20.2501 9.94771 20.2501 10.5C20.2501 11.0523 19.8023 11.5 19.25 11.5C18.6977 11.5 18.25 11.0523 18.25 10.5Z" fill="#353566"/>
</svg>
