<svg width="24" height="24" viewBox="0 0 24 24" fill="none" xmlns="http://www.w3.org/2000/svg">
<path fill-rule="evenodd" clip-rule="evenodd" d="M12.2321 3.75H5.7679C4.95507 3.74999 4.29944 3.74999 3.76853 3.79336C3.2219 3.83803 2.74176 3.93239 2.29754 4.15873C1.59193 4.51825 1.01825 5.09193 0.658726 5.79754C0.432386 6.24176 0.338026 6.7219 0.293364 7.26853C0.249987 7.79944 0.249993 8.45506 0.25 9.26789V14.7321C0.249993 15.545 0.249987 16.2006 0.293364 16.7315C0.338026 17.2781 0.432386 17.7582 0.658726 18.2025C1.01825 18.9081 1.59193 19.4817 2.29754 19.8413C2.74176 20.0676 3.2219 20.162 3.76853 20.2066C4.29944 20.25 4.95505 20.25 5.76788 20.25H12.2321C13.045 20.25 13.7006 20.25 14.2315 20.2066C14.7781 20.162 15.2582 20.0676 15.7025 19.8413C16.4081 19.4817 16.9818 18.9081 17.3413 18.2025C17.5676 17.7582 17.662 17.2781 17.7066 16.7315C17.75 16.2006 17.75 15.545 17.75 14.7321V9.26788C17.75 8.45505 17.75 7.79944 17.7066 7.26853C17.662 6.7219 17.5676 6.24176 17.3413 5.79754C16.9818 5.09193 16.4081 4.51825 15.7025 4.15873C15.2582 3.93239 14.7781 3.83803 14.2315 3.79336C13.7006 3.74999 13.0449 3.74999 12.2321 3.75ZM4 10C4 9.58579 4.33579 9.25 4.75 9.25H8.25C8.66421 9.25 9 9.58579 9 10C9 10.4142 8.66421 10.75 8.25 10.75H6.56066L9.21967 13.409C9.51256 13.7019 9.98744 13.7019 10.2803 13.409L13.7197 9.96967C14.0126 9.67678 14.4874 9.67678 14.7803 9.96967C15.0732 10.2626 15.0732 10.7374 14.7803 11.0303L11.341 14.4697C10.4623 15.3484 9.03769 15.3483 8.15901 14.4697L5.5 11.8107V13.5C5.5 13.9142 5.16421 14.25 4.75 14.25C4.33579 14.25 4 13.9142 4 13.5V10Z" fill="#353566"/>
<path d="M19.0595 15.4296C18.8618 15.2409 18.75 14.9795 18.75 14.7062V9.29324C18.75 9.01996 18.8618 8.75858 19.0595 8.56988L21.3869 6.34829C22.1824 5.589 23.5 6.15282 23.5 7.25249V16.747C23.5 17.8467 22.1824 18.4105 21.3869 17.6512L19.0595 15.4296Z" fill="#353566"/>
</svg>
