<svg width="24" height="24" viewBox="0 0 24 24" fill="none" xmlns="http://www.w3.org/2000/svg">
<g clip-path="url(#clip0_9001_277347)">
<path opacity="0.4" d="M1.89477 10.8623C1.66344 10.7191 1.3727 10.7124 1.13502 10.8448C0.897339 10.9772 0.75 11.2279 0.75 11.5V18.2321C0.749993 19.0449 0.749987 19.7006 0.793364 20.2315C0.838026 20.7781 0.932386 21.2582 1.15873 21.7025C1.51825 22.4081 2.09193 22.9817 2.79754 23.3413C3.24175 23.5676 3.7219 23.662 4.26853 23.7066C4.79944 23.75 5.45505 23.75 6.26788 23.75H17.7321C18.545 23.75 19.2006 23.75 19.7315 23.7066C20.2781 23.662 20.7582 23.5676 21.2025 23.3413C21.9081 22.9817 22.4817 22.4081 22.8413 21.7025C23.0676 21.2582 23.162 20.7781 23.2066 20.2315C23.25 19.7006 23.25 19.045 23.25 18.2321V11.5C23.25 11.2279 23.1027 10.9772 22.865 10.8448C22.6273 10.7124 22.3366 10.7191 22.1052 10.8623L13.7107 16.0589C12.9001 16.5607 12.6421 16.7089 12.3848 16.7669C12.1315 16.824 11.8685 16.824 11.6152 16.7669C11.3579 16.7089 11.0999 16.5607 10.2893 16.0589L1.89477 10.8623Z" fill="#353566"/>
<path d="M6.5 0.250244C5.25736 0.250244 4.25 1.2576 4.25 2.50024V10.0002C4.25 10.4145 4.58579 10.7502 5 10.7502C5.41421 10.7502 5.75 10.4145 5.75 10.0002V2.50024C5.75 2.08603 6.08579 1.75024 6.5 1.75024H17.5C17.9142 1.75024 18.25 2.08603 18.25 2.50024V10.0002C18.25 10.4145 18.5858 10.7502 19 10.7502C19.4142 10.7502 19.75 10.4145 19.75 10.0002V2.50024C19.75 1.2576 18.7426 0.250244 17.5 0.250244H6.5Z" fill="#353566"/>
<path fill-rule="evenodd" clip-rule="evenodd" d="M12 3.3335C9.8826 3.3335 8.16666 5.05172 8.16666 7.16852C8.16666 9.51689 10.0334 11.3169 11.7 12.5668C11.8778 12.7002 12.1222 12.7002 12.3 12.5668C13.9667 11.3168 15.8333 9.51683 15.8333 7.16683C15.8333 5.04972 14.1172 3.3335 12 3.3335ZM13.25 7.1669C13.25 7.85727 12.6904 8.41692 12 8.41692C11.3096 8.41692 10.75 7.85727 10.75 7.1669C10.75 6.47653 11.3096 5.91688 12 5.91688C12.6904 5.91688 13.25 6.47653 13.25 7.1669Z" fill="#353566"/>
</g>
<defs>
<clipPath id="clip0_9001_277347">
<rect width="24" height="24" fill="white"/>
</clipPath>
</defs>
</svg>
