<svg width="24" height="24" viewBox="0 0 24 24" fill="none" xmlns="http://www.w3.org/2000/svg">
<g clip-path="url(#clip0_9001_277392)">
<path opacity="0.4" d="M1.89477 10.8623C1.66344 10.7191 1.3727 10.7124 1.13502 10.8448C0.897339 10.9772 0.75 11.2279 0.75 11.5V18.2321C0.749993 19.0449 0.749987 19.7006 0.793364 20.2315C0.838026 20.7781 0.932386 21.2582 1.15873 21.7025C1.51825 22.4081 2.09193 22.9817 2.79754 23.3413C3.24175 23.5676 3.7219 23.662 4.26853 23.7066C4.79944 23.75 5.45505 23.75 6.26788 23.75H17.7321C18.545 23.75 19.2006 23.75 19.7315 23.7066C20.2781 23.662 20.7582 23.5676 21.2025 23.3413C21.9081 22.9817 22.4817 22.4081 22.8413 21.7025C23.0676 21.2582 23.162 20.7781 23.2066 20.2315C23.25 19.7006 23.25 19.045 23.25 18.2321V11.5C23.25 11.2279 23.1027 10.9772 22.865 10.8448C22.6273 10.7124 22.3366 10.7191 22.1052 10.8623L13.7107 16.0589C12.9001 16.5607 12.6421 16.7089 12.3848 16.7669C12.1315 16.824 11.8685 16.824 11.6152 16.7669C11.3579 16.7089 11.0999 16.5607 10.2893 16.0589L1.89477 10.8623Z" fill="#353566"/>
<path d="M4.25 2.5C4.25 1.25736 5.25736 0.25 6.5 0.25H17.5C18.7426 0.25 19.75 1.25736 19.75 2.5V10C19.75 10.4142 19.4142 10.75 19 10.75C18.5858 10.75 18.25 10.4142 18.25 10V2.5C18.25 2.08579 17.9142 1.75 17.5 1.75H6.5C6.08579 1.75 5.75 2.08579 5.75 2.5V10C5.75 10.4142 5.41421 10.75 5 10.75C4.58579 10.75 4.25 10.4142 4.25 10V2.5Z" fill="#353566"/>
<path d="M12 9.1001C10.2939 9.1001 8.73112 10.262 8.31583 11.8755C8.27731 12.0252 8.31018 12.1843 8.40489 12.3064C8.49959 12.4286 8.64548 12.5001 8.80005 12.5001H15.2001C15.3546 12.5001 15.5005 12.4286 15.5952 12.3064C15.6899 12.1843 15.7228 12.0252 15.6843 11.8755C15.269 10.262 13.7062 9.1001 12 9.1001Z" fill="#353566"/>
<path d="M9.70007 5.8C9.70007 4.52975 10.7298 3.5 12.0001 3.5C13.2703 3.5 14.3001 4.52975 14.3001 5.8C14.3001 7.07026 13.2703 8.1 12.0001 8.1C10.7298 8.1 9.70007 7.07026 9.70007 5.8Z" fill="#353566"/>
</g>
<defs>
<clipPath id="clip0_9001_277392">
<rect width="24" height="24" fill="white"/>
</clipPath>
</defs>
</svg>
