<svg width="24" height="24" viewBox="0 0 24 24" fill="none" xmlns="http://www.w3.org/2000/svg">
<path opacity="0.4" d="M15.633 0.25H8.367C7.27486 0.249995 6.40935 0.24999 5.71173 0.306988C4.99834 0.365274 4.39472 0.486882 3.84355 0.76772C2.94978 1.22312 2.22312 1.94978 1.76772 2.84355C1.48688 3.39472 1.36527 3.99835 1.30699 4.71173C1.24999 5.40935 1.24999 6.27486 1.25 7.367V13.633C1.24999 14.7252 1.24999 15.5906 1.30699 16.2883C1.36527 17.0017 1.48688 17.6053 1.76772 18.1565C2.22312 19.0502 2.94978 19.7769 3.84355 20.2323C4.39472 20.5131 4.99835 20.6347 5.71173 20.693C6.40935 20.75 7.27484 20.75 8.36698 20.75L9.09392 20.75L10.05 22.2146C10.2581 22.5335 10.4414 22.8145 10.6099 23.0275C10.7838 23.2473 11.0065 23.4815 11.3234 23.6144C11.7562 23.7959 12.2438 23.7959 12.6766 23.6144C12.9935 23.4815 13.2162 23.2473 13.3901 23.0275C13.5585 22.8145 13.742 22.5334 13.9501 22.2146L14.9061 20.75L15.633 20.75C16.7252 20.75 17.5906 20.75 18.2883 20.693C19.0017 20.6347 19.6053 20.5131 20.1565 20.2323C21.0502 19.7769 21.7769 19.0502 22.2323 18.1565C22.5131 17.6053 22.6347 17.0017 22.693 16.2883C22.75 15.5906 22.75 14.7252 22.75 13.633V7.36698C22.75 6.27484 22.75 5.40935 22.693 4.71173C22.6347 3.99834 22.5131 3.39472 22.2323 2.84355C21.7769 1.94978 21.0502 1.22312 20.1565 0.76772C19.6053 0.486882 19.0017 0.365274 18.2883 0.306988C17.5906 0.24999 16.7251 0.249995 15.633 0.25Z" fill="#353566"/>
<path d="M14.9826 12.2145L18.2048 12.6746C18.401 12.7027 18.4991 12.7167 18.5789 12.7027C18.7642 12.6701 18.9165 12.5381 18.9749 12.3592C19 12.2822 19 12.1831 19 11.9849L19 11.1689C19 10.1036 18.4133 9.11308 17.4859 8.58868C16.63 8.10466 15.6901 7.75308 14.7258 7.56024C12.9257 7.20021 11.0703 7.19986 9.27013 7.55989C8.30416 7.75308 7.36443 8.10509 6.50737 8.59074C5.58343 9.11427 5 10.1012 5 11.1632V11.9843C5 12.1831 5 12.2825 5.02528 12.3597C5.08373 12.5382 5.23569 12.67 5.42063 12.7026C5.50064 12.7167 5.59902 12.7027 5.7958 12.6746L9.01743 12.2145C9.17242 12.1924 9.24992 12.1813 9.30821 12.1439C9.35959 12.1109 9.40039 12.0639 9.42576 12.0084C9.45455 11.9454 9.45455 11.8671 9.45455 11.7105V10.185C11.4003 9.62064 12.7162 9.62064 14.5455 10.185V11.7105C14.5455 11.8671 14.5455 11.9454 14.5742 12.0084C14.5996 12.0639 14.6404 12.1109 14.6918 12.1439C14.7501 12.1813 14.8276 12.1924 14.9826 12.2145Z" fill="#353566"/>
</svg>
