<svg width="24" height="24" viewBox="0 0 24 24" fill="none" xmlns="http://www.w3.org/2000/svg">
<path opacity="0.4" d="M6.10749 0.599913C3.23492 -0.816334 0.332098 2.22071 1.52987 5.08234L1.53645 5.09759L3.80912 10.2066C4.01792 10.7109 4.0115 11.2871 3.78894 11.7921L1.64556 16.8928C0.386271 19.7645 3.28138 22.8369 6.18391 21.3895L9.41087 19.7803C9.69902 19.6366 9.86329 19.325 9.81905 19.006C9.77349 18.6775 9.74989 18.3416 9.74989 17.9998C9.74989 13.9958 12.9958 10.7498 16.9999 10.7498C18.6768 10.7498 20.2189 11.3183 21.4469 12.2734C21.6459 12.4282 21.9093 12.4726 22.1481 12.3917C22.3868 12.3108 22.569 12.1154 22.6329 11.8715C23.0179 10.4018 22.4504 8.65736 20.8558 7.87117L6.10749 0.599913Z" fill="#353566"/>
<path d="M10.9999 11.7168H3.82046C4.01031 11.2338 4.00765 10.6937 3.81323 10.2168H10.9999C11.4141 10.2168 11.7499 10.5526 11.7499 10.9668C11.7499 11.381 11.4141 11.7168 10.9999 11.7168Z" fill="#353566"/>
<path fill-rule="evenodd" clip-rule="evenodd" d="M16.9999 12.25C13.8243 12.25 11.2499 14.8244 11.2499 18C11.2499 21.1756 13.8243 23.75 16.9999 23.75C20.1756 23.75 22.7499 21.1756 22.7499 18C22.7499 14.8244 20.1756 12.25 16.9999 12.25ZM19.4419 16.3081C19.686 16.5521 19.686 16.9479 19.4419 17.1919L16.9419 19.6919C16.8244 19.8095 16.6649 19.8753 16.4987 19.875C16.3325 19.8747 16.1732 19.8081 16.0562 19.6901L14.5562 18.1778C14.3131 17.9327 14.3147 17.537 14.5598 17.2939C14.8049 17.0508 15.2006 17.0525 15.4437 17.2975L16.5018 18.3643L18.558 16.3081C18.8021 16.064 19.1978 16.064 19.4419 16.3081Z" fill="#353566"/>
</svg>
