<svg width="24" height="24" viewBox="0 0 24 24" fill="none" xmlns="http://www.w3.org/2000/svg">
<path opacity="0.4" d="M6.10749 0.599913C3.23492 -0.816334 0.332098 2.22071 1.52987 5.08234L1.53645 5.09759L3.80912 10.2066C4.01792 10.7109 4.0115 11.2871 3.78894 11.7921L1.64556 16.8928C0.386271 19.7645 3.28138 22.8369 6.18391 21.3895L11.9375 18.5203C12.1349 18.4218 12.279 18.2414 12.3314 18.027C12.3827 17.8169 12.4634 17.6298 12.5921 17.4554C12.813 17.1559 12.8892 16.7738 12.8005 16.4128C12.6551 15.8212 12.8255 15.1878 13.2631 14.7488L15.2631 12.7428C16.1501 11.8532 17.738 12.2276 18.1498 13.399C18.3256 13.8987 18.7974 14.2349 19.3289 14.2349H20.3545C20.4706 14.2349 20.5852 14.2079 20.6891 14.156L20.8419 14.0799C23.3678 12.8202 23.3992 9.12517 20.8558 7.87117L6.10749 0.599913Z" fill="#353566"/>
<path d="M3.8207 11.7168H11.0001C11.4144 11.7168 11.7501 11.381 11.7501 10.9668C11.7501 10.5526 11.4144 10.2168 11.0001 10.2168H3.81348C4.00789 10.6937 4.01056 11.2338 3.8207 11.7168Z" fill="#353566"/>
<path d="M22.0002 19.25C22.4145 19.25 22.7502 18.9142 22.7502 18.5V17.5C22.7502 16.2574 21.7429 15.25 20.5002 15.25H16.3108L17.0305 14.5303C17.3234 14.2374 17.3234 13.7626 17.0305 13.4697C16.7376 13.1768 16.2627 13.1768 15.9699 13.4697L13.9699 15.4697C13.7554 15.6842 13.6912 16.0068 13.8073 16.287C13.9234 16.5673 14.1968 16.75 14.5002 16.75H20.5002C20.9145 16.75 21.2502 17.0858 21.2502 17.5V18.5C21.2502 18.9142 21.586 19.25 22.0002 19.25Z" fill="#353566"/>
<path d="M13.2502 18.5C13.2502 18.0858 13.586 17.75 14.0002 17.75C14.4145 17.75 14.7502 18.0858 14.7502 18.5V19.5C14.7502 19.9142 15.086 20.25 15.5002 20.25H21.5002C21.8036 20.25 22.0771 20.4327 22.1932 20.713C22.3092 20.9933 22.2451 21.3158 22.0306 21.5303L20.0305 23.5303C19.7376 23.8232 19.2627 23.8232 18.9698 23.5303C18.677 23.2374 18.677 22.7626 18.9699 22.4697L19.6895 21.75H15.5002C14.2576 21.75 13.2502 20.7426 13.2502 19.5V18.5Z" fill="#353566"/>
</svg>
