<svg width="24" height="24" viewBox="0 0 24 24" fill="none" xmlns="http://www.w3.org/2000/svg">
<path opacity="0.4" d="M6.10749 0.599913C3.23492 -0.816334 0.332098 2.22071 1.52987 5.08234L1.53645 5.09759L3.80912 10.2066C4.01792 10.7109 4.0115 11.2871 3.78894 11.7921L1.64556 16.8928C0.386271 19.7645 3.28138 22.8369 6.18391 21.3895L9.83609 19.5682C10.0835 19.4448 10.243 19.1953 10.2511 18.919C10.2603 18.6054 10.3229 18.2936 10.4386 17.998C11.6381 14.9342 14.2556 13.2498 16.9999 13.2498C18.1137 13.2498 19.2005 13.5264 20.1791 14.0545C20.3965 14.1718 20.6577 14.1746 20.8775 14.0619C23.3676 12.7854 23.3877 9.11949 20.8558 7.87117L6.10749 0.599913Z" fill="#353566"/>
<path d="M10.9999 11.7168H3.82046C4.01031 11.2338 4.00765 10.6937 3.81323 10.2168H10.9999C11.4141 10.2168 11.7499 10.5526 11.7499 10.9668C11.7499 11.381 11.4141 11.7168 10.9999 11.7168Z" fill="#353566"/>
<path d="M16.9999 17.5C16.1699 17.5 15.4999 18.17 15.4999 19C15.4999 19.83 16.1699 20.5 16.9999 20.5C17.8299 20.5 18.4999 19.83 18.4999 19C18.4999 18.17 17.8299 17.5 16.9999 17.5Z" fill="#353566"/>
<path fill-rule="evenodd" clip-rule="evenodd" d="M22.3973 18.4539C21.3767 15.8473 19.2067 14.5 16.9999 14.5C14.7931 14.5 12.6231 15.8473 11.6026 18.4539C11.4657 18.8036 11.4657 19.1964 11.6026 19.5461C12.6231 22.1527 14.7931 23.5 16.9999 23.5C19.2067 23.5 21.3767 22.1527 22.3973 19.5461C22.5342 19.1964 22.5342 18.8036 22.3973 18.4539ZM14.4999 19C14.4999 17.6177 15.6177 16.5 16.9999 16.5C18.3822 16.5 19.4999 17.6177 19.4999 19C19.4999 20.3823 18.3822 21.5 16.9999 21.5C15.6177 21.5 14.4999 20.3823 14.4999 19Z" fill="#353566"/>
</svg>
