<svg width="24" height="24" viewBox="0 0 24 24" fill="none" xmlns="http://www.w3.org/2000/svg">
<path opacity="0.4" d="M6.10749 0.599913C3.23492 -0.816334 0.332098 2.22071 1.52987 5.08234L1.53645 5.09759L3.80912 10.2066C4.01792 10.7109 4.0115 11.2871 3.78894 11.7921L1.64556 16.8928C0.386271 19.7645 3.28138 22.8369 6.18391 21.3895L15.8351 16.5767C16.0896 16.4498 16.2504 16.1898 16.2504 15.9055V14.7088C16.2504 13.4865 17.0571 12.4109 18.2305 12.0686L20.7108 11.3452C21.0942 11.2334 21.4734 11.2223 21.8274 11.2913C22.0658 11.3378 22.312 11.2659 22.4879 11.0984C22.6639 10.9309 22.7478 10.6886 22.7132 10.4482C22.563 9.40539 21.9455 8.40842 20.8558 7.87117L6.10749 0.599913Z" fill="#353566"/>
<path d="M10.9999 11.7173H3.82046C4.01031 11.2343 4.00765 10.6942 3.81323 10.2173H10.9999C11.4141 10.2173 11.7499 10.5531 11.7499 10.9673C11.7499 11.3815 11.4141 11.7173 10.9999 11.7173Z" fill="#353566"/>
<path d="M21.6009 16.2202L18.5004 17.1245V21.4912L18.5005 21.5001C18.5005 22.0645 18.2114 22.5883 17.7146 22.9609C17.2232 23.3295 16.6009 23.5003 16.0002 23.5003C15.3995 23.5003 14.7772 23.3295 14.2858 22.9609C13.789 22.5883 13.4999 22.0645 13.4999 21.5001C13.4999 20.9357 13.789 20.4119 14.2858 20.0393C14.7772 19.6708 15.3995 19.4999 16.0002 19.4999C16.5166 19.4999 17.049 19.6262 17.5004 19.8958V14.7093C17.5004 14.0425 17.9405 13.4558 18.5805 13.2691L21.0608 12.5457C21.7809 12.3357 22.5009 12.8757 22.5009 13.6258V15.0201C22.5009 15.5757 22.1342 16.0646 21.6009 16.2202Z" fill="#353566"/>
</svg>
