<svg width="24" height="24" viewBox="0 0 24 24" fill="none" xmlns="http://www.w3.org/2000/svg">
<path fill-rule="evenodd" clip-rule="evenodd" d="M9.99998 1.25C5.16751 1.25 1.25 5.16754 1.25 10C1.25 14.2034 3.91922 17.166 5.77085 19.2212L5.94247 19.4117C6.62466 20.1697 8.20215 21.632 8.99292 22.3568C9.56344 22.8798 10.4365 22.8798 11.007 22.3568C11.2932 22.0945 11.6744 21.7429 12.0767 21.3656C12.1925 21.2569 12.2709 21.1142 12.3005 20.9581C12.4478 20.18 12.9104 19.508 13.5358 19.039C13.9003 18.7657 14.3074 18.5811 14.7649 18.4449C14.9027 18.4038 15.0259 18.324 15.1197 18.2149C15.4418 17.84 15.7733 17.4377 16.0984 17.0081C16.1971 16.8778 16.2504 16.7189 16.2504 16.5554V14.7089C16.2504 13.5226 17.0104 12.4744 18.1278 12.1009C18.393 12.0123 18.5869 11.7835 18.6308 11.5073C18.708 11.0218 18.7499 10.5193 18.7499 10C18.7499 5.16756 14.8324 1.25 9.99998 1.25ZM12.4999 10.0001C12.4999 11.3808 11.3807 12.5001 9.99994 12.5001C8.61923 12.5001 7.49994 11.3808 7.49994 10.0001C7.49994 8.61935 8.61923 7.50006 9.99994 7.50006C11.3807 7.50006 12.4999 8.61935 12.4999 10.0001Z" fill="#353566"/>
<path d="M18.5004 17.1243L21.6009 16.22C22.1342 16.0644 22.5009 15.5755 22.5009 15.0199V13.6255C22.5009 12.8755 21.7809 12.3355 21.0608 12.5455L18.5805 13.2689C17.9405 13.4556 17.5004 14.0423 17.5004 14.709V19.8956C17.049 19.6259 16.5166 19.4997 16.0002 19.4997C15.3995 19.4997 14.7772 19.6705 14.2858 20.0391C13.789 20.4117 13.4999 20.9355 13.4999 21.4999C13.4999 22.0643 13.789 22.5881 14.2858 22.9607C14.7772 23.3293 15.3995 23.5001 16.0002 23.5001C16.6009 23.5001 17.2232 23.3293 17.7146 22.9607C18.2114 22.5881 18.5005 22.0643 18.5005 21.4999L18.5004 21.4909V17.1243Z" fill="#353566"/>
</svg>
