<svg width="24" height="24" viewBox="0 0 24 24" fill="none" xmlns="http://www.w3.org/2000/svg">
<path fill-rule="evenodd" clip-rule="evenodd" d="M9.99998 1.25C5.16751 1.25 1.25 5.16754 1.25 10C1.25 14.2034 3.91922 17.166 5.77085 19.2212L5.94247 19.4117C6.62466 20.1697 8.20215 21.632 8.99292 22.3568C9.56344 22.8798 10.4365 22.8798 11.007 22.3568C11.1677 22.2095 11.3583 22.0341 11.5658 21.8419C11.8226 21.6038 11.8805 21.2196 11.7052 20.9164L11.5139 20.5856C11.1197 19.9037 11.192 19.1739 11.5674 18.2944C11.6478 18.1063 11.6478 17.8936 11.5674 17.7054C11.192 16.826 11.1197 16.0962 11.5139 15.4143L12.1356 14.339C12.5302 13.6565 13.201 13.3526 14.1537 13.236C14.3557 13.2113 14.5391 13.1055 14.6616 12.9429C15.2374 12.1786 15.8357 11.75 16.6282 11.75H17.8716C17.8896 11.75 17.9074 11.7502 17.925 11.7506C18.3132 11.76 18.6443 11.4716 18.6883 11.0858C18.7286 10.7324 18.7499 10.3704 18.7499 10C18.7499 5.16756 14.8324 1.25 9.99998 1.25ZM12.4999 10C12.4999 11.3807 11.3807 12.5 9.99994 12.5C8.61923 12.5 7.49994 11.3807 7.49994 10C7.49994 8.61929 8.61923 7.5 9.99994 7.5C11.3807 7.5 12.4999 8.61929 12.4999 10Z" fill="#353566"/>
<path fill-rule="evenodd" clip-rule="evenodd" d="M12.8138 18.5449C13.2324 18.3028 13.2324 17.6971 12.8138 17.455C12.2744 17.143 12.09 16.4525 12.4011 15.9127L13.0208 14.8374C13.3321 14.2973 14.0219 14.112 14.5614 14.4241C14.9792 14.6657 15.5026 14.3641 15.5026 13.8791C15.5026 13.2559 16.0071 12.75 16.6302 12.75H17.8697C18.4929 12.75 18.9973 13.256 18.9973 13.8792C18.9973 14.3642 19.5208 14.6657 19.9385 14.4241C20.4781 14.112 21.1679 14.2974 21.4791 14.8375L22.0989 15.9128C22.41 16.4526 22.2255 17.1431 21.6862 17.455C21.2676 17.6971 21.2676 18.3028 21.6862 18.5449C22.2255 18.8568 22.41 19.5473 22.0989 20.0871L21.4791 21.1624C21.1679 21.7025 20.4781 21.8879 19.9385 21.5758C19.5208 21.3342 18.9973 21.6357 18.9973 22.1208C18.9973 22.744 18.4929 23.25 17.8697 23.25H16.6303C16.0071 23.25 15.5026 22.744 15.5026 22.1208C15.5026 21.6358 14.9791 21.3342 14.5614 21.5758C14.0218 21.8879 13.3321 21.7025 13.0208 21.1625L12.4011 20.0872C12.09 19.5473 12.2744 18.8569 12.8138 18.5449ZM18.7499 18C18.7499 17.1716 18.0784 16.5 17.2499 16.5C16.4215 16.5 15.7499 17.1716 15.7499 18C15.7499 18.8284 16.4215 19.5 17.2499 19.5C18.0784 19.5 18.7499 18.8284 18.7499 18Z" fill="#353566"/>
</svg>
