<svg width="24" height="24" viewBox="0 0 24 24" fill="none" xmlns="http://www.w3.org/2000/svg">
<g clip-path="url(#clip0_9001_311362)">
<path d="M13.25 11.75H9.75V7.75H13.25C14.3546 7.75 15.25 8.64543 15.25 9.75C15.25 10.8546 14.3546 11.75 13.25 11.75Z" fill="#353566"/>
<path fill-rule="evenodd" clip-rule="evenodd" d="M0.25 12C0.25 5.51065 5.51065 0.25 12 0.25C18.4893 0.25 23.75 5.51065 23.75 12C23.75 18.4893 18.4893 23.75 12 23.75C5.51065 23.75 0.25 18.4893 0.25 12ZM9.58333 6.25C8.84695 6.25 8.25 6.84695 8.25 7.58333V17C8.25 17.4142 8.58579 17.75 9 17.75C9.41421 17.75 9.75 17.4142 9.75 17V13.25H13.25C15.183 13.25 16.75 11.683 16.75 9.75C16.75 7.817 15.183 6.25 13.25 6.25H9.58333Z" fill="#353566"/>
</g>
<defs>
<clipPath id="clip0_9001_311362">
<rect width="24" height="24" fill="white"/>
</clipPath>
</defs>
</svg>
