<svg width="24" height="24" viewBox="0 0 24 24" fill="none" xmlns="http://www.w3.org/2000/svg">
<path opacity="0.4" d="M7.25 2.50098V4.24974C7.25 5.07817 7.92157 5.74974 8.75 5.74974H15.25C16.0784 5.74974 16.75 5.07817 16.75 4.24974V2.50198C17.7127 2.50834 18.36 2.54735 18.935 2.78674C19.847 3.16374 20.587 3.90474 20.964 4.81674C21.25 5.50474 21.25 6.25574 21.25 7.75174V17.6997C21.25 19.4977 21.25 20.3997 20.841 21.2017C20.48 21.9107 19.913 22.4777 19.202 22.8407C18.4 23.2497 17.498 23.2497 15.7 23.2497H8.3C6.502 23.2497 5.6 23.2497 4.798 22.8407C4.088 22.4797 3.521 21.9127 3.159 21.2017C2.75 20.3997 2.75 19.4977 2.75 17.6997V7.74974C2.75 6.25374 2.75 5.50374 3.036 4.81474C3.418 3.88974 4.14 3.16774 5.065 2.78574C5.64016 2.5463 6.28751 2.50732 7.25 2.50098Z" fill="#353566"/>
<path d="M7.25 2.25C7.25 1.42157 7.92157 0.75 8.75 0.75H15.25C16.0784 0.75 16.75 1.42157 16.75 2.25V4.25C16.75 5.07843 16.0784 5.75 15.25 5.75H8.75C7.92157 5.75 7.25 5.07843 7.25 4.25V2.25Z" fill="#353566"/>
<path fill-rule="evenodd" clip-rule="evenodd" d="M12.0001 8C9.51443 8 7.5 10.017 7.5 12.502C7.5 15.2667 9.7001 17.4001 11.7 18.9C11.8778 19.0333 12.1222 19.0333 12.3 18.9C14.3 17.4 16.5 15.2667 16.5 12.5C16.5 10.0147 14.4854 8 12.0001 8ZM13.5 12.5001C13.5 13.3285 12.8285 14.0001 12 14.0001C11.1716 14.0001 10.5 13.3285 10.5 12.5001C10.5 11.6716 11.1716 11.0001 12 11.0001C12.8285 11.0001 13.5 11.6716 13.5 12.5001Z" fill="#353566"/>
</svg>
