<svg width="24" height="24" viewBox="0 0 24 24" fill="none" xmlns="http://www.w3.org/2000/svg">
<path opacity="0.4" d="M12.4326 1.25H6.56739C5.61495 1.24999 4.85439 1.24999 4.24013 1.30018C3.61012 1.35165 3.06824 1.45963 2.57054 1.71322C1.77085 2.12068 1.12068 2.77085 0.713223 3.57054C0.459634 4.06824 0.35165 4.61012 0.300176 5.24013C0.249989 5.85439 0.249994 6.61494 0.25 7.56738V16.4326C0.249994 17.3851 0.249989 18.1456 0.300176 18.7599C0.35165 19.3899 0.459634 19.9318 0.713223 20.4295C1.12068 21.2291 1.77085 21.8793 2.57054 22.2868C3.06824 22.5404 3.61012 22.6483 4.24013 22.6998C4.85438 22.75 5.6149 22.75 6.5673 22.75L12.7914 22.7499C13.0407 22.7496 13.2736 22.6255 13.4128 22.4188C13.5521 22.212 13.5794 21.9496 13.4859 21.7185C13.334 21.3432 13.25 20.9323 13.25 20.5V17.25C13.25 16.2004 13.7461 15.2674 14.5216 14.6712L14.7019 14.5326C14.8738 14.4005 14.9801 14.2005 14.9934 13.9842L15.0074 13.7572C15.1178 11.9679 16.5095 10.6837 18.1539 10.3389C18.5013 10.266 18.75 9.95972 18.75 9.60483V7.56737C18.75 6.61496 18.75 5.85438 18.6998 5.24013C18.6483 4.61012 18.5404 4.06824 18.2868 3.57054C17.8793 2.77085 17.2291 2.12068 16.4295 1.71322C15.9318 1.45963 15.3899 1.35165 14.7599 1.30018C14.1456 1.24999 13.3851 1.24999 12.4326 1.25Z" fill="#353566"/>
<path d="M8.04144 8.01898C8.32807 7.71995 8.31801 7.24518 8.01898 6.95856C7.71995 6.67193 7.24518 6.68199 6.95856 6.98102L6.21184 7.76006L6.03154 7.57893C5.73932 7.28537 5.26444 7.28428 4.97088 7.57651C4.67732 7.86873 4.67624 8.3436 4.96846 8.63716L5.69044 9.36245C5.83292 9.50559 6.02711 9.58521 6.22907 9.5833C6.43102 9.58139 6.62367 9.49812 6.76342 9.35231L8.04144 8.01898Z" fill="#353566"/>
<path d="M10 7.34998C9.58579 7.34998 9.25 7.68576 9.25 8.09998C9.25 8.51419 9.58579 8.84998 10 8.84998H13.5C13.9142 8.84998 14.25 8.51419 14.25 8.09998C14.25 7.68576 13.9142 7.34998 13.5 7.34998H10Z" fill="#353566"/>
<path d="M10 11.1801C9.58579 11.1801 9.25 11.5158 9.25 11.9301C9.25 12.3443 9.58579 12.6801 10 12.6801H13.5C13.9142 12.6801 14.25 12.3443 14.25 11.9301C14.25 11.5158 13.9142 11.1801 13.5 11.1801H10Z" fill="#353566"/>
<path d="M9.25 15.76C9.25 15.3458 9.58579 15.01 10 15.01H13.1854C12.8844 15.4545 12.6706 15.9626 12.5683 16.51H10C9.58579 16.51 9.25 16.1742 9.25 15.76Z" fill="#353566"/>
<path d="M8.01898 10.7886C8.31801 11.0753 8.32807 11.55 8.04144 11.8491L6.76342 13.1824C6.62367 13.3282 6.43102 13.4115 6.22907 13.4134C6.02711 13.4153 5.83292 13.3357 5.69044 13.1925L4.96846 12.4672C4.67624 12.1737 4.67732 11.6988 4.97088 11.4066C5.26444 11.1144 5.73932 11.1154 6.03154 11.409L6.21184 11.5901L6.95856 10.8111C7.24518 10.5121 7.71995 10.502 8.01898 10.7886Z" fill="#353566"/>
<path d="M8.04144 15.679C8.32807 15.38 8.31801 14.9052 8.01898 14.6186C7.71995 14.332 7.24518 14.342 6.95856 14.6411L6.21184 15.4201L6.03154 15.239C5.73932 14.9454 5.26444 14.9443 4.97088 15.2365C4.67732 15.5288 4.67624 16.0036 4.96846 16.2972L5.69044 17.0225C5.83292 17.1656 6.02711 17.2452 6.22907 17.2433C6.43102 17.2414 6.62367 17.1582 6.76342 17.0123L8.04144 15.679Z" fill="#353566"/>
<path fill-rule="evenodd" clip-rule="evenodd" d="M19 11.25C17.4286 11.25 16 12.4006 16 14V15.2677C15.1519 15.389 14.5 16.1184 14.5 17V20.75C14.5 21.7165 15.2835 22.5 16.25 22.5H21.75C22.7165 22.5 23.5 21.7165 23.5 20.75V17C23.5 16.1184 22.8481 15.389 22 15.2677V14C22 12.4006 20.5714 11.25 19 11.25ZM17.5 14C17.5 13.3902 18.0861 12.75 19 12.75C19.9139 12.75 20.5 13.3902 20.5 14V15H17.5V14Z" fill="#353566"/>
</svg>
