<svg width="24" height="24" viewBox="0 0 24 24" fill="none" xmlns="http://www.w3.org/2000/svg">
<path opacity="0.4" d="M16.7321 0.75H9.2679C8.45506 0.749993 7.79944 0.749987 7.26853 0.793364C6.7219 0.838026 6.24175 0.932386 5.79754 1.15873C5.09193 1.51825 4.51825 2.09193 4.15873 2.79754C3.93238 3.24175 3.83803 3.7219 3.79336 4.26853C3.74999 4.79944 3.74999 5.45506 3.75 6.2679V17.7321C3.74999 18.5449 3.74999 19.2006 3.79336 19.7315C3.83803 20.2781 3.93238 20.7582 4.15873 21.2025C4.51825 21.9081 5.09193 22.4818 5.79754 22.8413C6.24175 23.0676 6.7219 23.162 7.26853 23.2066C7.79944 23.25 8.45505 23.25 9.26788 23.25H16.7321C17.545 23.25 18.2006 23.25 18.7315 23.2066C19.2781 23.162 19.7582 23.0676 20.2025 22.8413C20.9081 22.4818 21.4817 21.9081 21.8413 21.2025C22.0676 20.7582 22.162 20.2781 22.2066 19.7315C22.25 19.2006 22.25 18.545 22.25 17.7321V6.26788C22.25 5.45505 22.25 4.79944 22.2066 4.26853C22.162 3.7219 22.0676 3.24175 21.8413 2.79754C21.4817 2.09193 20.9081 1.51825 20.2025 1.15873C19.7582 0.932386 19.2781 0.838026 18.7315 0.793364C18.2006 0.749987 17.5449 0.749993 16.7321 0.75Z" fill="#353566"/>
<path d="M1.75 17.5001C1.75 17.0858 2.08579 16.7501 2.5 16.7501H3.75L3.75 12.7501L2.5 12.7501C2.08579 12.7501 1.75 12.4143 1.75 12.0001C1.75 11.5858 2.08579 11.2501 2.5 11.2501L3.75 11.2501L3.75 7.25006H2.5C2.08579 7.25006 1.75 6.91427 1.75 6.50006C1.75 6.08585 2.08579 5.75006 2.5 5.75006H3.75047C3.75213 5.17049 3.75961 4.68178 3.79337 4.26859C3.83803 3.72196 3.93239 3.24182 4.15873 2.7976C4.51825 2.09199 5.09193 1.51831 5.79754 1.15879C6.24176 0.932446 6.7219 0.838087 7.26854 0.793425C7.79944 0.750048 8.45506 0.750054 9.2679 0.750061L10.5 0.750061L10.5 23.2501H9.26788C8.45505 23.2501 7.79944 23.2501 7.26854 23.2067C6.7219 23.162 6.24176 23.0677 5.79754 22.8413C5.09193 22.4818 4.51825 21.9081 4.15873 21.2025C3.93239 20.7583 3.83803 20.2782 3.79337 19.7315C3.75961 19.3183 3.75213 18.8296 3.75047 18.2501H2.5C2.08579 18.2501 1.75 17.9143 1.75 17.5001Z" fill="#353566"/>
</svg>
