<svg width="24" height="24" viewBox="0 0 24 24" fill="none" xmlns="http://www.w3.org/2000/svg">
<path opacity="0.4" d="M21 5.25C20.5858 5.25 20.25 5.58579 20.25 6V7.9C20.25 8.89247 20.2494 9.59171 20.2048 10.1377C20.1609 10.675 20.0782 10.9975 19.9503 11.2485C19.6866 11.7659 19.2659 12.1866 18.7485 12.4503C18.4975 12.5782 18.175 12.6609 17.6377 12.7048C17.0917 12.7494 16.3925 12.75 15.4 12.75H3.5C3.08579 12.75 2.75 13.0858 2.75 13.5C2.75 13.9142 3.08579 14.25 3.5 14.25H15.4326C16.3851 14.25 17.1456 14.25 17.7599 14.1998C18.3899 14.1484 18.9318 14.0404 19.4295 13.7868C20.2291 13.3793 20.8793 12.7291 21.2868 11.9295C21.5404 11.4318 21.6483 10.8899 21.6998 10.2599C21.75 9.6456 21.75 8.88506 21.75 7.93261V6C21.75 5.58579 21.4142 5.25 21 5.25Z" fill="#353566"/>
<path d="M8.03033 18.5303C8.32322 18.2374 8.32322 17.7626 8.03033 17.4697L4.06066 13.5L8.03033 9.53033C8.32322 9.23744 8.32322 8.76256 8.03033 8.46967C7.73744 8.17678 7.26256 8.17678 6.96967 8.46967L2.46967 12.9697C2.17678 13.2626 2.17678 13.7374 2.46967 14.0303L6.96967 18.5303C7.26256 18.8232 7.73744 18.8232 8.03033 18.5303Z" fill="#353566"/>
</svg>
