<svg width="24" height="24" viewBox="0 0 24 24" fill="none" xmlns="http://www.w3.org/2000/svg">
<path opacity="0.4" d="M5.41421 11L9.70711 6.70711C10.0976 6.31658 10.0976 5.68342 9.70711 5.29289C9.31658 4.90237 8.68342 4.90237 8.29289 5.29289L2.29289 11.2929C2.10536 11.4804 2 11.7348 2 12C2 12.2652 2.10536 12.5196 2.29289 12.7071L8.29289 18.7071C8.68342 19.0976 9.31658 19.0976 9.70711 18.7071C10.0976 18.3166 10.0976 17.6834 9.70711 17.2929L5.41421 13H16C16.5523 13 17 12.5523 17 12C17 11.4477 16.5523 11 16 11H5.41421Z" fill="#353566"/>
<path d="M21 22C21.5523 22 22 21.5523 22 21V3C22 2.44772 21.5523 2 21 2C20.4477 2 20 2.44772 20 3V21C20 21.5523 20.4477 22 21 22Z" fill="#353566"/>
</svg>
