<svg width="24" height="24" viewBox="0 0 24 24" fill="none" xmlns="http://www.w3.org/2000/svg">
<path opacity="0.4" d="M19.4293 7.21328C18.9316 6.9597 18.3897 6.85174 17.7596 6.8003C17.1453 6.75014 16.3848 6.75019 15.4323 6.75025L8.56704 6.75063C7.61464 6.75068 6.85413 6.75072 6.2399 6.80093C5.60991 6.85244 5.06806 6.96045 4.57039 7.21404C3.77075 7.62152 3.12062 8.27168 2.71319 9.07135C2.45962 9.56903 2.35164 10.1109 2.30017 10.7409C2.24999 11.3551 2.24999 12.1156 2.25 13.068V17.4326C2.24999 18.385 2.24999 19.1455 2.30018 19.7598C2.35165 20.3898 2.45963 20.9317 2.71322 21.4294C3.12068 22.2291 3.77085 22.8793 4.57054 23.2867C5.06824 23.5403 5.61012 23.6483 6.24013 23.6998C6.85438 23.7499 7.6149 23.7499 8.5673 23.7499H15.4326C16.385 23.7499 17.1456 23.7499 17.7599 23.6998C18.3899 23.6483 18.9318 23.5403 19.4295 23.2867C20.2291 22.8793 20.8793 22.2291 21.2868 21.4294C21.5404 20.9317 21.6483 20.3898 21.6998 19.7598C21.75 19.1456 21.75 18.385 21.75 17.4326V13.0676C21.75 12.1152 21.75 11.3545 21.6998 10.7403C21.6483 10.1102 21.5404 9.56832 21.2867 9.07061C20.8793 8.2709 20.229 7.62072 19.4293 7.21328Z" fill="#353566"/>
<path d="M11.25 14.1893L11.25 1C11.25 0.585787 11.5858 0.25 12 0.25C12.4142 0.25 12.75 0.585787 12.75 1L12.75 14.1893L14.9697 11.9697C15.2626 11.6768 15.7374 11.6768 16.0303 11.9697C16.3232 12.2626 16.3232 12.7374 16.0303 13.0303L12.5303 16.5303C12.3897 16.671 12.1989 16.75 12 16.75C11.8011 16.75 11.6103 16.671 11.4697 16.5303L7.96967 13.0303C7.67678 12.7374 7.67678 12.2626 7.96967 11.9697C8.26256 11.6768 8.73744 11.6768 9.03033 11.9697L11.25 14.1893Z" fill="#353566"/>
</svg>
