<svg width="24" height="24" viewBox="0 0 24 24" fill="none" xmlns="http://www.w3.org/2000/svg">
<g clip-path="url(#clip0_9002_1723)">
<path d="M7.93897 7.40303C9.0183 6.34309 10.4794 5.75 12 5.75C13.309 5.75 14.5735 6.18944 15.5886 6.98757C15.9142 7.2436 15.9706 7.71511 15.7146 8.04072C15.4585 8.36633 14.987 8.42274 14.6614 8.16672C13.9115 7.57703 12.9737 7.25 12 7.25C10.8685 7.25 9.78599 7.69154 8.98997 8.47326C8.1944 9.25453 7.75 10.3112 7.75 11.4101V14.75C7.75 15.1642 7.41421 15.5 7 15.5C6.58579 15.5 6.25 15.1642 6.25 14.75V11.4101C6.25 9.90455 6.85917 8.46342 7.93897 7.40303Z" fill="#353566"/>
<path d="M16.6505 9.45727C17.0511 9.35193 17.4613 9.59128 17.5666 9.99188C17.6874 10.4512 17.75 10.9275 17.75 11.4101V15.75C17.75 16.1642 17.4142 16.5 17 16.5C16.5858 16.5 16.25 16.1642 16.25 15.75V11.4101C16.25 11.0574 16.2042 10.7093 16.1159 10.3733C16.0106 9.97274 16.2499 9.5626 16.6505 9.45727Z" fill="#353566"/>
<path d="M12 8.75C11.2867 8.75 10.5931 9.01398 10.074 9.49844C9.55323 9.98454 9.25 10.6553 9.25 11.3667V14.5C9.25 14.9142 9.58579 15.25 10 15.25C10.4142 15.25 10.75 14.9142 10.75 14.5V11.3667C10.75 11.0879 10.8682 10.8091 11.0975 10.595C11.3286 10.3794 11.6524 10.25 12 10.25C12.3476 10.25 12.6714 10.3794 12.9025 10.595C13.1318 10.8091 13.25 11.0879 13.25 11.3667V15.1333C13.25 15.4121 13.1318 15.6909 12.9025 15.905C12.6714 16.1206 12.3476 16.25 12 16.25C11.5858 16.25 11.25 16.5858 11.25 17C11.25 17.4142 11.5858 17.75 12 17.75C12.7133 17.75 13.4069 17.486 13.926 17.0016C14.4468 16.5155 14.75 15.8447 14.75 15.1333V11.3667C14.75 10.6553 14.4468 9.98454 13.926 9.49844C13.4069 9.01398 12.7133 8.75 12 8.75Z" fill="#353566"/>
<path fill-rule="evenodd" clip-rule="evenodd" d="M0.25 12C0.25 5.51065 5.51065 0.25 12 0.25C18.4893 0.25 23.75 5.51065 23.75 12C23.75 18.4893 18.4893 23.75 12 23.75C5.51065 23.75 0.25 18.4893 0.25 12ZM12 1.75C6.33908 1.75 1.75 6.33908 1.75 12C1.75 17.6609 6.33908 22.25 12 22.25C17.6609 22.25 22.25 17.6609 22.25 12C22.25 6.33908 17.6609 1.75 12 1.75Z" fill="#353566"/>
</g>
<defs>
<clipPath id="clip0_9002_1723">
<rect width="24" height="24" fill="white"/>
</clipPath>
</defs>
</svg>
