<svg width="24" height="24" viewBox="0 0 24 24" fill="none" xmlns="http://www.w3.org/2000/svg">
<path d="M11.9999 2.75C7.52574 2.75 3.79197 5.92737 2.93499 10.1492C2.85259 10.5551 2.45671 10.8174 2.05078 10.735C1.64484 10.6526 1.38257 10.2567 1.46497 9.8508C2.46106 4.94367 6.79831 1.25 11.9999 1.25C16.0505 1.25 19.5767 3.48981 21.4094 6.79788L21.7611 4.86568C21.8353 4.45816 22.2258 4.18794 22.6333 4.26212C23.0408 4.3363 23.3111 4.72679 23.2369 5.13431L22.4336 9.54711C22.4138 9.86253 22.1945 10.1433 21.8718 10.2263C21.8045 10.2437 21.7369 10.2513 21.6705 10.2501C21.6293 10.2495 21.5875 10.2455 21.5456 10.2379C21.2192 10.1785 20.9809 9.91622 20.937 9.60483C19.8818 5.65682 16.2794 2.75 11.9999 2.75Z" fill="#353566"/>
<path d="M21.9491 13.265C22.355 13.3474 22.6173 13.7433 22.5349 14.1492C21.5388 19.0563 17.2016 22.75 11.9999 22.75C7.94903 22.75 4.42259 20.5098 2.59 17.2013L2.23774 19.1345C2.16348 19.542 1.77294 19.8121 1.36543 19.7379C0.95793 19.6636 0.68778 19.2731 0.762036 18.8656L1.56634 14.4517C1.58659 14.1368 1.8058 13.8566 2.12804 13.7737C2.19555 13.7563 2.26328 13.7487 2.32973 13.75C2.37087 13.7505 2.41252 13.7545 2.45434 13.7622C2.78027 13.8216 3.01834 14.0833 3.06259 14.3942C4.11743 18.3427 7.7201 21.25 11.9999 21.25C16.4741 21.25 20.2079 18.0726 21.0649 13.8508C21.1473 13.4449 21.5432 13.1826 21.9491 13.265Z" fill="#353566"/>
<path fill-rule="evenodd" clip-rule="evenodd" d="M8.99988 9C8.99988 7.40061 10.4285 6.25 11.9999 6.25C13.5712 6.25 14.9999 7.40061 14.9999 9V10.0155C15.9865 10.1385 16.7499 10.9801 16.7499 12V15.75C16.7499 16.8546 15.8544 17.75 14.7499 17.75H9.24988C8.14531 17.75 7.24988 16.8546 7.24988 15.75V12C7.24988 10.9801 8.0133 10.1385 8.99988 10.0155V9ZM10.4999 10H13.4999V9C13.4999 8.39025 12.9138 7.75 11.9999 7.75C11.086 7.75 10.4999 8.39025 10.4999 9V10ZM14.7499 11.5C15.026 11.5 15.2499 11.7239 15.2499 12V15.75C15.2499 16.0261 15.026 16.25 14.7499 16.25H9.24988C8.97374 16.25 8.74988 16.0261 8.74988 15.75V12C8.74988 11.7239 8.97374 11.5 9.24988 11.5H14.7499Z" fill="#353566"/>
</svg>
