<svg width="24" height="24" viewBox="0 0 24 24" fill="none" xmlns="http://www.w3.org/2000/svg">
<path d="M15 12.75C15.4142 12.75 15.75 12.4142 15.75 12C15.75 11.5858 15.4142 11.25 15 11.25H9C8.58579 11.25 8.25 11.5858 8.25 12C8.25 12.4142 8.58579 12.75 9 12.75H15Z" fill="#353566"/>
<path fill-rule="evenodd" clip-rule="evenodd" d="M13.919 1.21229C12.7116 0.600688 11.285 0.60079 10.0776 1.21257L2.98302 4.80744C2.22667 5.19068 1.75 5.96659 1.75 6.81449V8.83929C1.75 9.34177 1.85159 10.3314 1.96632 11.3039C2.23322 13.5662 3.10653 15.7 4.42162 17.5367C5.94702 19.6671 7.95128 21.4097 10.2731 22.6241L11.0218 23.0157C11.6335 23.3357 12.3632 23.3357 12.9749 23.0156L13.7253 22.623C16.0449 21.4093 18.0478 19.6687 19.573 17.541C20.8916 15.7017 21.7672 13.5642 22.0344 11.2977C22.1488 10.3274 22.25 9.34079 22.25 8.83929V6.81464C22.25 5.96662 21.7732 5.19063 21.0167 4.80744L13.919 1.21229ZM10.7556 2.5506C11.5369 2.15474 12.4599 2.15468 13.2412 2.55042L20.3389 6.14557C20.5911 6.2733 20.75 6.53196 20.75 6.81464V8.83929C20.75 9.23439 20.6622 10.1254 20.5447 11.1221C20.3094 13.118 19.536 15.0181 18.3539 16.6671C16.9652 18.6042 15.1418 20.1889 13.0299 21.2939L12.2795 21.6866C12.1033 21.7787 11.8932 21.7787 11.717 21.6866L10.9683 21.295C8.85458 20.1894 7.02993 18.603 5.64123 16.6634C4.46232 15.0169 3.69102 13.1203 3.45599 11.1282C3.33813 10.1292 3.25 9.23528 3.25 8.83929V6.81449C3.25 6.53186 3.40889 6.27322 3.66101 6.14547L10.7556 2.5506Z" fill="#353566"/>
</svg>
