<svg width="24" height="24" viewBox="0 0 24 24" fill="none" xmlns="http://www.w3.org/2000/svg">
<path d="M9.85303 2.25H14.1471C14.8949 2.24999 15.4998 2.24999 15.9925 2.28867C16.5012 2.32859 16.9494 2.41292 17.3714 2.61366C18.0446 2.93393 18.6071 3.4476 18.987 4.08906C19.2251 4.49112 19.3497 4.9299 19.4355 5.43284C19.5186 5.92 19.5734 6.5223 19.641 7.26695L20.247 13.9321C20.2845 14.3446 19.9805 14.7094 19.5679 14.7469C19.1554 14.7844 18.7906 14.4804 18.7531 14.0679L18.15 7.43333C18.0789 6.6511 18.0289 6.10748 17.9569 5.68513C17.8863 5.27189 17.8033 5.03408 17.6964 4.85344C17.4684 4.46856 17.1309 4.16036 16.727 3.9682C16.5374 3.87801 16.293 3.81687 15.8751 3.78407C15.448 3.75054 14.9021 3.75 14.1166 3.75H9.88348C9.09802 3.75 8.55211 3.75054 8.12497 3.78407C7.70705 3.81687 7.4627 3.87801 7.27311 3.9682C6.86918 4.16036 6.53169 4.46856 6.30374 4.85344C6.19676 5.03408 6.11375 5.27189 6.04325 5.68513C5.97118 6.10748 5.92122 6.6511 5.85011 7.43333L5.24697 14.0679C5.20947 14.4804 4.84466 14.7844 4.43215 14.7469C4.01963 14.7094 3.71563 14.3446 3.75313 13.9321L4.35903 7.2672C4.42673 6.52244 4.48148 5.92006 4.56461 5.43284C4.65043 4.9299 4.775 4.49112 5.01311 4.08906C5.39302 3.4476 5.9555 2.93393 6.62872 2.61366C7.05069 2.41292 7.49895 2.32859 8.00758 2.28867C8.50033 2.24999 9.1052 2.24999 9.85303 2.25Z" fill="#353566"/>
<path fill-rule="evenodd" clip-rule="evenodd" d="M1.25 18.25C1.25 17.1454 2.14543 16.25 3.25 16.25H20.75C21.8546 16.25 22.75 17.1454 22.75 18.25V19.75C22.75 20.8546 21.8546 21.75 20.75 21.75H3.25C2.14543 21.75 1.25 20.8546 1.25 19.75V18.25ZM3.25 17.75C2.97386 17.75 2.75 17.9739 2.75 18.25V19.75C2.75 20.0261 2.97386 20.25 3.25 20.25H20.75C21.0261 20.25 21.25 20.0261 21.25 19.75V18.25C21.25 17.9739 21.0261 17.75 20.75 17.75H3.25Z" fill="#353566"/>
<path d="M9.9295 6.56795C9.967 6.15544 9.66299 5.79063 9.25048 5.75313C8.83797 5.71563 8.47316 6.01963 8.43566 6.43215L8.02657 10.9321C7.98906 11.3447 8.29307 11.7095 8.70558 11.747C9.1181 11.7845 9.4829 11.4805 9.52041 11.0679L9.9295 6.56795Z" fill="#353566"/>
</svg>
