<svg width="24" height="24" viewBox="0 0 24 24" fill="none" xmlns="http://www.w3.org/2000/svg">
<path d="M12.5 5.52664C12.7363 5.55485 12.9586 5.60795 13.1844 5.69747C13.5499 5.84243 13.894 6.07141 14.3019 6.38021C14.522 6.54691 14.5653 6.86052 14.3986 7.08067C14.232 7.30082 13.9183 7.34415 13.6982 7.17745C13.306 6.88048 13.0502 6.72004 12.8157 6.62703C12.5929 6.53865 12.3604 6.5 12 6.5C11.471 6.5 11.0839 6.62484 10.8433 6.79906C10.6177 6.96243 10.5 7.18083 10.5 7.46536C10.5 7.8136 10.6606 8.01687 10.9443 8.17563C11.2595 8.35208 11.6791 8.43961 12.0822 8.5068C12.4791 8.57294 13.0595 8.6804 13.5443 8.95178C14.0606 9.24084 14.5 9.73823 14.5 10.5346C14.5 11.153 14.2177 11.6673 13.7433 12.0108C13.4009 12.2588 12.9734 12.4089 12.5 12.4692V13C12.5 13.2761 12.2761 13.5 12 13.5C11.7239 13.5 11.5 13.2761 11.5 13V12.4733C11.2637 12.4451 11.0414 12.392 10.8157 12.3025C10.4502 12.1575 10.106 11.9285 9.69819 11.6197C9.47804 11.453 9.43471 11.1394 9.60141 10.9193C9.76811 10.6991 10.0817 10.6558 10.3019 10.8225C10.694 11.1195 10.9499 11.2799 11.1844 11.373C11.4072 11.4613 11.6396 11.5 12 11.5C12.529 11.5 12.9162 11.3752 13.1568 11.2009C13.3823 11.0376 13.5 10.8192 13.5 10.5346C13.5 10.1864 13.3394 9.98313 13.0558 9.82437C12.7406 9.64792 12.321 9.56039 11.9178 9.4932C11.521 9.42706 10.9406 9.3196 10.4558 9.04822C9.93941 8.75916 9.50003 8.26177 9.50003 7.46536C9.50003 6.84703 9.78233 6.33275 10.2567 5.98916C10.5991 5.7412 11.0267 5.59116 11.5 5.5308V5.00001C11.5 4.72387 11.7239 4.50001 12 4.50001C12.2761 4.50001 12.5 4.72387 12.5 5.00001V5.52664Z" fill="#353566"/>
<path fill-rule="evenodd" clip-rule="evenodd" d="M1 2C1 1.72386 1.22386 1.5 1.5 1.5H22.5C22.7761 1.5 23 1.72386 23 2C23 2.27614 22.7761 2.5 22.5 2.5H21.5V10.4225C21.5 11.3835 21.5 12.1355 21.4507 12.7395C21.4004 13.3541 21.2967 13.8594 21.064 14.316C20.6805 15.0686 20.0686 15.6805 19.316 16.064C18.8594 16.2967 18.3541 16.4004 17.7395 16.4507C17.1355 16.5 16.3836 16.5 15.4225 16.5H12.5V18.75L16.3 21.6C16.5209 21.7657 16.5657 22.0791 16.4 22.3C16.2343 22.5209 15.9209 22.5657 15.7 22.4L12 19.625L8.30003 22.4C8.07912 22.5657 7.76571 22.5209 7.60003 22.3C7.43434 22.0791 7.47912 21.7657 7.70003 21.6L11.5 18.75V16.5H8.57754C7.61647 16.5 6.8645 16.5 6.26049 16.4507C5.64594 16.4004 5.14062 16.2967 4.68404 16.064C3.93139 15.6805 3.31947 15.0686 2.93597 14.316C2.70334 13.8594 2.59956 13.3541 2.54935 12.7395C2.49999 12.1355 2.5 11.3835 2.5 10.4224V2.5H1.5C1.22386 2.5 1 2.27614 1 2ZM15.4 15.5C16.3883 15.5 17.0995 15.4996 17.6581 15.454C18.2108 15.4088 18.5699 15.3219 18.862 15.173C19.4265 14.8854 19.8854 14.4265 20.173 13.862C20.3219 13.5699 20.4088 13.2108 20.454 12.6581C20.4996 12.0995 20.5 11.3883 20.5 10.4V2.5H3.5V10.4C3.5 11.3883 3.50039 12.0995 3.54602 12.6581C3.59118 13.2108 3.67814 13.5699 3.82698 13.862C4.1146 14.4265 4.57354 14.8854 5.13803 15.173C5.43014 15.3219 5.78921 15.4088 6.34192 15.454C6.90047 15.4996 7.61166 15.5 8.6 15.5H15.4Z" fill="#353566"/>
</svg>
