<svg width="24" height="24" viewBox="0 0 24 24" fill="none" xmlns="http://www.w3.org/2000/svg">
<path d="M9.59993 7.85738C9.79731 7.66425 9.80075 7.34768 9.60762 7.15031C9.41449 6.95294 9.09793 6.9495 8.90055 7.14263L7.40031 8.61061C7.3055 8.70338 7.25144 8.83001 7.25003 8.96265C7.24861 9.09528 7.29996 9.22304 7.39276 9.31781L8.89301 10.8498C9.08621 11.0471 9.40278 11.0504 9.60007 10.8572C9.79737 10.664 9.80069 10.3475 9.60748 10.1502L8.4572 8.97553L9.59993 7.85738Z" fill="#353566"/>
<path d="M14.3925 7.15048C14.5855 6.95302 14.902 6.94942 15.0995 7.14245L16.5996 8.60885C16.6944 8.70157 16.7486 8.82817 16.7501 8.9608C16.7515 9.09342 16.7003 9.2212 16.6075 9.31602L15.1074 10.8496C14.9143 11.047 14.5978 11.0505 14.4004 10.8574C14.203 10.6643 14.1995 10.3478 14.3926 10.1504L15.5429 8.97432L14.4005 7.85755C14.203 7.66451 14.1994 7.34795 14.3925 7.15048Z" fill="#353566"/>
<path d="M13.2351 6.12139C13.3021 5.85349 13.1392 5.58202 12.8713 5.51505C12.6034 5.44807 12.332 5.61095 12.265 5.87885L10.765 11.8789C10.698 12.1467 10.8609 12.4182 11.1288 12.4852C11.3967 12.5522 11.6682 12.3893 11.7351 12.1214L13.2351 6.12139Z" fill="#353566"/>
<path fill-rule="evenodd" clip-rule="evenodd" d="M1 2C1 1.72386 1.22386 1.5 1.5 1.5H22.5C22.7761 1.5 23 1.72386 23 2C23 2.27614 22.7761 2.5 22.5 2.5H21.5V10.4225C21.5 11.3835 21.5 12.1355 21.4507 12.7395C21.4004 13.3541 21.2967 13.8594 21.064 14.316C20.6805 15.0686 20.0686 15.6805 19.316 16.064C18.8594 16.2967 18.3541 16.4004 17.7395 16.4507C17.1355 16.5 16.3836 16.5 15.4225 16.5H12.5V18.563C13.3626 18.785 14 19.5681 14 20.5C14 21.6046 13.1046 22.5 12 22.5C10.8954 22.5 10 21.6046 10 20.5C10 19.5681 10.6374 18.785 11.5 18.563V16.5H8.57754C7.61647 16.5 6.8645 16.5 6.26049 16.4507C5.64594 16.4004 5.14062 16.2967 4.68404 16.064C3.93139 15.6805 3.31947 15.0686 2.93597 14.316C2.70334 13.8594 2.59956 13.3541 2.54935 12.7395C2.49999 12.1355 2.5 11.3835 2.5 10.4224V2.5H1.5C1.22386 2.5 1 2.27614 1 2ZM11 20.5C11 19.9477 11.4477 19.5 12 19.5C12.5523 19.5 13 19.9477 13 20.5C13 21.0523 12.5523 21.5 12 21.5C11.4477 21.5 11 21.0523 11 20.5ZM15.4 15.5H8.6C7.61166 15.5 6.90047 15.4996 6.34192 15.454C5.78921 15.4088 5.43014 15.3219 5.13803 15.173C4.57354 14.8854 4.1146 14.4265 3.82698 13.862C3.67814 13.5699 3.59118 13.2108 3.54602 12.6581C3.50039 12.0995 3.5 11.3883 3.5 10.4V2.5H20.5V10.4C20.5 11.3883 20.4996 12.0995 20.454 12.6581C20.4088 13.2108 20.3219 13.5699 20.173 13.862C19.8854 14.4265 19.4265 14.8854 18.862 15.173C18.5699 15.3219 18.2108 15.4088 17.6581 15.454C17.0995 15.4996 16.3883 15.5 15.4 15.5Z" fill="#353566"/>
</svg>
