<svg width="24" height="24" viewBox="0 0 24 24" fill="none" xmlns="http://www.w3.org/2000/svg">
<path d="M11.125 12.5C11.125 12.0168 11.5168 11.625 12 11.625C12.4832 11.625 12.8751 12.0168 12.8751 12.5C12.8751 12.9832 12.4833 13.375 12.0001 13.375C11.5169 13.375 11.125 12.9832 11.125 12.5Z" fill="#353566"/>
<path d="M10.25 7.25C10.25 6.2835 11.0335 5.5 12 5.5C12.9665 5.5 13.75 6.2835 13.75 7.25C13.75 7.7383 13.5507 8.17913 13.2277 8.49713C13.0537 8.66843 12.8864 8.76263 12.6742 8.88218C12.6304 8.90687 12.5846 8.93265 12.5365 8.96041C12.259 9.12043 11.9383 9.33322 11.708 9.76445C11.5779 10.008 11.6699 10.3109 11.9135 10.441C12.1571 10.5711 12.46 10.4791 12.5901 10.2356C12.6887 10.051 12.8149 9.95419 13.036 9.82668C13.0682 9.80811 13.1033 9.78854 13.1409 9.76763C13.3566 9.64738 13.6518 9.48285 13.9292 9.20973C14.4353 8.7115 14.75 8.01704 14.75 7.25C14.75 5.73122 13.5188 4.5 12 4.5C10.4812 4.5 9.25 5.73122 9.25 7.25C9.25 7.41759 9.26858 7.57131 9.29333 7.70229C9.34461 7.97363 9.60614 8.15202 9.87748 8.10074C10.1488 8.04947 10.3272 7.78794 10.2759 7.51659C10.2606 7.43524 10.25 7.34451 10.25 7.25Z" fill="#353566"/>
<path fill-rule="evenodd" clip-rule="evenodd" d="M1.5 1.5C1.22386 1.5 1 1.72386 1 2C1 2.27614 1.22386 2.5 1.5 2.5H2.5V10.4224C2.5 11.3835 2.49999 12.1355 2.54935 12.7395C2.59956 13.3541 2.70334 13.8594 2.93597 14.316C3.31947 15.0686 3.93139 15.6805 4.68404 16.064C5.14062 16.2967 5.64594 16.4004 6.26049 16.4507C6.8645 16.5 7.61644 16.5 8.57751 16.5H11.5V18.563C10.6374 18.785 10 19.5681 10 20.5C10 21.6046 10.8954 22.5 12 22.5C13.1046 22.5 14 21.6046 14 20.5C14 19.5681 13.3626 18.785 12.5 18.563V16.5H15.4225C16.3835 16.5 17.1355 16.5 17.7395 16.4507C18.3541 16.4004 18.8594 16.2967 19.316 16.064C20.0686 15.6805 20.6805 15.0686 21.064 14.316C21.2967 13.8594 21.4004 13.3541 21.4507 12.7395C21.5 12.1355 21.5 11.3835 21.5 10.4225V2.5H22.5C22.7761 2.5 23 2.27614 23 2C23 1.72386 22.7761 1.5 22.5 1.5H1.5ZM12 19.5C11.4477 19.5 11 19.9477 11 20.5C11 21.0523 11.4477 21.5 12 21.5C12.5523 21.5 13 21.0523 13 20.5C13 19.9477 12.5523 19.5 12 19.5ZM15.4 15.5C16.3883 15.5 17.0995 15.4996 17.6581 15.454C18.2108 15.4088 18.5699 15.3219 18.862 15.173C19.4265 14.8854 19.8854 14.4265 20.173 13.862C20.3219 13.5699 20.4088 13.2108 20.454 12.6581C20.4996 12.0995 20.5 11.3883 20.5 10.4V2.5H3.5V10.4C3.5 11.3883 3.50039 12.0995 3.54602 12.6581C3.59118 13.2108 3.67814 13.5699 3.82698 13.862C4.1146 14.4265 4.57354 14.8854 5.13803 15.173C5.43014 15.3219 5.78921 15.4088 6.34192 15.454C6.90047 15.4996 7.61166 15.5 8.6 15.5H15.4Z" fill="#353566"/>
</svg>
