<svg width="24" height="24" viewBox="0 0 24 24" fill="none" xmlns="http://www.w3.org/2000/svg">
<g clip-path="url(#clip0_9001_303874)">
<path d="M4.67818 1.9469C4.41291 1.82088 4.11578 1.75 3.8 1.75C2.66782 1.75 1.75 2.66782 1.75 3.8C1.75 4.11578 1.82088 4.41291 1.9469 4.67818C2.12463 5.05232 1.96541 5.49971 1.59127 5.67745C1.21713 5.85518 0.769742 5.69596 0.592007 5.32182C0.37247 4.85968 0.25 4.3431 0.25 3.8C0.25 1.83939 1.83939 0.25 3.8 0.25C4.3431 0.25 4.85969 0.372471 5.32182 0.592007C5.69596 0.769743 5.85518 1.21713 5.67745 1.59127C5.49971 1.96541 5.05232 2.12463 4.67818 1.9469Z" fill="#353566"/>
<path d="M18.2 1.75C17.8842 1.75 17.5871 1.82088 17.3218 1.9469C16.9477 2.12463 16.5003 1.96541 16.3225 1.59127C16.1448 1.21713 16.304 0.769743 16.6782 0.592007C17.1403 0.372471 17.6569 0.25 18.2 0.25C20.1606 0.25 21.75 1.83939 21.75 3.8C21.75 4.3431 21.6275 4.85968 21.408 5.32182C21.2302 5.69596 20.7829 5.85518 20.4087 5.67745C20.0346 5.49971 19.8754 5.05232 20.0531 4.67818C20.1791 4.41291 20.25 4.11578 20.25 3.8C20.25 2.66782 19.3322 1.75 18.2 1.75Z" fill="#353566"/>
<path fill-rule="evenodd" clip-rule="evenodd" d="M10.9999 1.75C5.61515 1.75 1.24993 6.11522 1.24993 11.5C1.24993 14.0499 2.22865 16.371 3.83098 18.1083L1.4696 20.4697C1.17671 20.7626 1.17671 21.2374 1.4696 21.5303C1.76249 21.8232 2.23737 21.8232 2.53026 21.5303L4.93004 19.1306C6.43496 20.3292 8.30252 21.092 10.3418 21.2281C10.5902 21.2447 10.8307 21.1369 10.9836 20.9404C11.1365 20.7439 11.1819 20.4843 11.1048 20.2475C10.8747 19.5409 10.7499 18.7857 10.7499 18C10.7499 13.9959 13.9959 10.75 17.9999 10.75C18.5979 10.75 19.1781 10.8222 19.7324 10.9581C19.9742 11.0174 20.2296 10.9528 20.4141 10.7859C20.5987 10.6189 20.6884 10.3712 20.6536 10.1248C19.9848 5.39095 15.9182 1.75 10.9999 1.75ZM11.7499 6.5C11.7499 6.08579 11.4141 5.75 10.9999 5.75C10.5857 5.75 10.2499 6.08579 10.2499 6.5V11.5C10.2499 11.9142 10.5857 12.25 10.9999 12.25C11.4141 12.25 11.7499 11.9142 11.7499 11.5V6.5Z" fill="#353566"/>
<path fill-rule="evenodd" clip-rule="evenodd" d="M12.2499 18C12.2499 14.8244 14.8243 12.25 17.9999 12.25C21.1756 12.25 23.7499 14.8244 23.7499 18C23.7499 21.1756 21.1756 23.75 17.9999 23.75C14.8243 23.75 12.2499 21.1756 12.2499 18ZM17.3749 15.5V18.9912L16.4419 18.0581C16.1978 17.814 15.8021 17.814 15.558 18.0581C15.3139 18.3022 15.3139 18.6979 15.558 18.942L17.558 20.942C17.8021 21.186 18.1978 21.186 18.4419 20.942L20.4419 18.9419C20.686 18.6979 20.686 18.3021 20.4419 18.0581C20.1978 17.814 19.8021 17.814 19.558 18.0581L18.6249 18.9911V15.5C18.6249 15.1548 18.3451 14.875 17.9999 14.875C17.6548 14.875 17.3749 15.1548 17.3749 15.5Z" fill="#353566"/>
</g>
<defs>
<clipPath id="clip0_9001_303874">
<rect width="24" height="24" fill="white"/>
</clipPath>
</defs>
</svg>
