<svg width="24" height="24" viewBox="0 0 24 24" fill="none" xmlns="http://www.w3.org/2000/svg">
<g clip-path="url(#clip0_9001_303889)">
<path d="M3.8 1.75C4.11578 1.75 4.41291 1.82088 4.67818 1.9469C5.05232 2.12463 5.49971 1.96541 5.67745 1.59127C5.85518 1.21713 5.69596 0.769743 5.32182 0.592007C4.85969 0.372471 4.3431 0.25 3.8 0.25C1.83939 0.25 0.25 1.83939 0.25 3.8C0.25 4.3431 0.372471 4.85968 0.592007 5.32182C0.769743 5.69596 1.21713 5.85518 1.59127 5.67745C1.96541 5.49971 2.12463 5.05232 1.9469 4.67818C1.82088 4.41291 1.75 4.11578 1.75 3.8C1.75 2.66782 2.66782 1.75 3.8 1.75Z" fill="#353566"/>
<path d="M18.2 1.75C17.8842 1.75 17.5871 1.82088 17.3218 1.9469C16.9477 2.12463 16.5003 1.96541 16.3225 1.59127C16.1448 1.21713 16.304 0.769743 16.6782 0.592007C17.1403 0.372471 17.6569 0.25 18.2 0.25C20.1606 0.25 21.75 1.83939 21.75 3.8C21.75 4.3431 21.6275 4.85968 21.408 5.32182C21.2302 5.69596 20.7829 5.85518 20.4087 5.67745C20.0346 5.49971 19.8754 5.05232 20.0531 4.67818C20.1791 4.41291 20.25 4.11578 20.25 3.8C20.25 2.66782 19.3322 1.75 18.2 1.75Z" fill="#353566"/>
<path fill-rule="evenodd" clip-rule="evenodd" d="M1.24993 11.5C1.24993 6.11522 5.61515 1.75 10.9999 1.75C15.9182 1.75 19.9848 5.39095 20.6536 10.1248C20.6884 10.3712 20.5987 10.6189 20.4141 10.7859C20.2296 10.9528 19.9742 11.0174 19.7324 10.9581C19.1781 10.8222 18.5979 10.75 17.9999 10.75C13.9959 10.75 10.7499 13.9959 10.7499 18C10.7499 18.7857 10.8747 19.5409 11.1048 20.2475C11.1819 20.4843 11.1365 20.7439 10.9836 20.9404C10.8307 21.1369 10.5902 21.2447 10.3418 21.2281C8.30252 21.092 6.43497 20.3292 4.93004 19.1306L2.53026 21.5303C2.23737 21.8232 1.7625 21.8232 1.4696 21.5303C1.17671 21.2374 1.17671 20.7626 1.4696 20.4697L3.83098 18.1083C2.22865 16.371 1.24993 14.0499 1.24993 11.5ZM11.7499 6.5C11.7499 6.08579 11.4141 5.75 10.9999 5.75C10.5857 5.75 10.2499 6.08579 10.2499 6.5V11.5C10.2499 11.9142 10.5857 12.25 10.9999 12.25C11.4141 12.25 11.7499 11.9142 11.7499 11.5V6.5Z" fill="#353566"/>
<path fill-rule="evenodd" clip-rule="evenodd" d="M17.9999 12.25C21.1756 12.25 23.7499 14.8244 23.7499 18C23.7499 21.1756 21.1756 23.75 17.9999 23.75C14.8243 23.75 12.2499 21.1756 12.2499 18C12.2499 14.8244 14.8243 12.25 17.9999 12.25ZM22.2499 18C22.2499 15.6528 20.3471 13.75 17.9999 13.75C17.0972 13.75 16.2602 14.0314 15.572 14.5114L21.4886 20.428C21.9685 19.7397 22.2499 18.9027 22.2499 18ZM20.4279 21.4886C19.7396 21.9686 18.9026 22.25 17.9999 22.25C15.6527 22.25 13.7499 20.3472 13.7499 18C13.7499 17.0973 14.0314 16.2603 14.5113 15.572L20.4279 21.4886Z" fill="#353566"/>
</g>
<defs>
<clipPath id="clip0_9001_303889">
<rect width="24" height="24" fill="white"/>
</clipPath>
</defs>
</svg>
