<svg width="24" height="24" viewBox="0 0 24 24" fill="none" xmlns="http://www.w3.org/2000/svg">
<path d="M5.67818 1.9469C5.41291 1.82088 5.11578 1.75 4.8 1.75C3.66782 1.75 2.75 2.66782 2.75 3.8C2.75 4.11578 2.82088 4.41291 2.9469 4.67818C3.12463 5.05232 2.96541 5.49971 2.59127 5.67745C2.21713 5.85518 1.76974 5.69596 1.59201 5.32182C1.37247 4.85968 1.25 4.3431 1.25 3.8C1.25 1.83939 2.83939 0.25 4.8 0.25C5.3431 0.25 5.85969 0.372471 6.32182 0.592007C6.69596 0.769743 6.85518 1.21713 6.67745 1.59127C6.49971 1.96541 6.05232 2.12463 5.67818 1.9469Z" fill="#353566"/>
<path d="M19.2 1.75C18.8842 1.75 18.5871 1.82088 18.3218 1.9469C17.9477 2.12463 17.5003 1.96541 17.3225 1.59127C17.1448 1.21713 17.304 0.769743 17.6782 0.592007C18.1403 0.372471 18.6569 0.25 19.2 0.25C21.1606 0.25 22.75 1.83939 22.75 3.8C22.75 4.3431 22.6275 4.85968 22.408 5.32182C22.2302 5.69596 21.7829 5.85518 21.4087 5.67745C21.0346 5.49971 20.8754 5.05232 21.0531 4.67818C21.1791 4.41291 21.25 4.11578 21.25 3.8C21.25 2.66782 20.3322 1.75 19.2 1.75Z" fill="#353566"/>
<path fill-rule="evenodd" clip-rule="evenodd" d="M11.9999 1.75C6.61515 1.75 2.24993 6.11522 2.24993 11.5C2.24993 14.0498 3.22868 16.3709 4.83098 18.1083L2.4696 20.4697C2.17671 20.7626 2.17671 21.2374 2.4696 21.5303C2.76249 21.8232 3.23737 21.8232 3.53026 21.5303L5.93001 19.1306C7.59552 20.4572 9.70514 21.25 11.9999 21.25C12.9726 21.25 13.9133 21.1073 14.8015 20.8413C15.0501 20.7668 15.2426 20.5691 15.3103 20.3186C15.367 20.109 15.4642 19.9058 15.6049 19.72C15.6806 19.6201 15.7722 19.5233 15.8996 19.3905C15.934 19.3545 15.9713 19.3157 16.0086 19.2761C16.2534 19.0159 16.2807 18.6191 16.0738 18.3278C15.5492 17.5892 15.2501 16.8963 15.2501 16.0817C15.2501 14.666 16.1158 13.5148 17.4442 12.8815C17.61 12.8024 17.7411 12.6653 17.8125 12.496C18.1405 11.7184 18.7521 11.2501 19.5 11.2501C19.9006 11.2501 20.2427 11.3796 20.526 11.6002C20.7579 11.7807 21.0737 11.8091 21.3341 11.6731C21.5945 11.537 21.7514 11.2614 21.7356 10.9681C21.4591 5.83031 17.2063 1.75 11.9999 1.75ZM12.7499 6.5C12.7499 6.08579 12.4141 5.75 11.9999 5.75C11.5857 5.75 11.2499 6.08579 11.2499 6.5V11.5C11.2499 11.9142 11.5857 12.25 11.9999 12.25C12.4141 12.25 12.7499 11.9142 12.7499 11.5V6.5Z" fill="#353566"/>
<path d="M19.5 12.25C19.9142 12.25 20.25 12.5858 20.25 13V13.5489C20.5143 13.5879 20.7684 13.6533 21.0265 13.7556C21.4997 13.9433 21.941 14.2381 22.4527 14.6256C22.783 14.8756 22.848 15.346 22.5979 15.6763C22.3479 16.0065 21.8775 16.0715 21.5472 15.8214C21.059 15.4517 20.7502 15.2597 20.4735 15.15C20.2142 15.0471 19.9406 15 19.5 15C18.8565 15 18.4007 15.1521 18.1274 15.35C17.8765 15.5317 17.75 15.7677 17.75 16.0817C17.75 16.461 17.9159 16.6783 18.2413 16.8604C18.6141 17.0691 19.1185 17.1761 19.6233 17.2602C20.1185 17.3427 20.8641 17.4795 21.4913 17.8306C22.1659 18.2083 22.75 18.8667 22.75 19.9183C22.75 20.7329 22.3765 21.4128 21.7524 21.8648C21.3311 22.1699 20.8154 22.3592 20.25 22.4452V23C20.25 23.4142 19.9142 23.75 19.5 23.75C19.0858 23.75 18.75 23.4142 18.75 23V22.4511C18.4857 22.4121 18.2315 22.3467 17.9734 22.2443C17.5002 22.0566 17.0589 21.7618 16.5472 21.3743C16.217 21.1243 16.152 20.6539 16.402 20.3236C16.6521 19.9934 17.1225 19.9284 17.4527 20.1785C17.941 20.5482 18.2497 20.7402 18.5265 20.85C18.7857 20.9528 19.0594 21 19.5 21C20.1435 21 20.5992 20.8479 20.8726 20.6499C21.1234 20.4682 21.25 20.2322 21.25 19.9183C21.25 19.539 21.0841 19.3217 20.7586 19.1395C20.3858 18.9308 19.8814 18.8239 19.3767 18.7398C18.8814 18.6572 18.1358 18.5204 17.5086 18.1693C16.8341 17.7917 16.25 17.1332 16.25 16.0817C16.25 15.267 16.6234 14.5872 17.2476 14.1352C17.6688 13.8301 18.1846 13.6408 18.75 13.5548V13C18.75 12.5858 19.0858 12.25 19.5 12.25Z" fill="#353566"/>
</svg>
