<svg width="24" height="24" viewBox="0 0 24 24" fill="none" xmlns="http://www.w3.org/2000/svg">
<g clip-path="url(#clip0_9001_303929)">
<path d="M4.67818 1.9469C4.41291 1.82088 4.11578 1.75 3.8 1.75C2.66782 1.75 1.75 2.66782 1.75 3.8C1.75 4.11578 1.82088 4.41291 1.9469 4.67818C2.12463 5.05232 1.96541 5.49971 1.59127 5.67745C1.21713 5.85518 0.769742 5.69596 0.592007 5.32182C0.37247 4.85968 0.25 4.3431 0.25 3.8C0.25 1.83939 1.83939 0.25 3.8 0.25C4.3431 0.25 4.85969 0.372471 5.32182 0.592007C5.69596 0.769743 5.85518 1.21713 5.67745 1.59127C5.49971 1.96541 5.05232 2.12463 4.67818 1.9469Z" fill="#353566"/>
<path d="M18.2 1.75C17.8842 1.75 17.5871 1.82088 17.3218 1.9469C16.9477 2.12463 16.5003 1.96541 16.3225 1.59127C16.1448 1.21713 16.304 0.769743 16.6782 0.592007C17.1403 0.372471 17.6569 0.25 18.2 0.25C20.1606 0.25 21.75 1.83939 21.75 3.8C21.75 4.3431 21.6275 4.85968 21.408 5.32182C21.2302 5.69596 20.7829 5.85518 20.4087 5.67745C20.0346 5.49971 19.8754 5.05232 20.0531 4.67818C20.1791 4.41291 20.25 4.11578 20.25 3.8C20.25 2.66782 19.3322 1.75 18.2 1.75Z" fill="#353566"/>
<path fill-rule="evenodd" clip-rule="evenodd" d="M10.9999 1.75C5.61515 1.75 1.24993 6.11522 1.24993 11.5C1.24993 14.0498 2.22868 16.3709 3.83098 18.1083L1.4696 20.4697C1.17671 20.7626 1.17671 21.2374 1.4696 21.5303C1.76249 21.8232 2.23737 21.8232 2.53026 21.5303L4.93001 19.1306C6.59552 20.4572 8.70514 21.25 10.9999 21.25C11.7727 21.25 12.5254 21.1599 13.2478 20.9894C13.4913 20.932 13.6901 20.7569 13.7778 20.5226C13.8656 20.2883 13.8307 20.0257 13.6849 19.8224C13.1267 19.0441 13.0651 17.951 13.7491 17.0958L17.7451 12.0999C18.3079 11.3963 19.0945 11.1626 19.8318 11.2794C20.0623 11.316 20.2966 11.2432 20.4657 11.0825C20.6349 10.9218 20.7196 10.6915 20.695 10.4595C20.1751 5.56359 16.0334 1.75 10.9999 1.75ZM11.7499 6.5C11.7499 6.08579 11.4141 5.75 10.9999 5.75C10.5857 5.75 10.2499 6.08579 10.2499 6.5V11.5C10.2499 11.9142 10.5857 12.25 10.9999 12.25C11.4141 12.25 11.7499 11.9142 11.7499 11.5V6.5Z" fill="#353566"/>
<path d="M20.5008 13.5007C20.5008 12.555 19.31 12.1386 18.7199 12.8762L14.72 17.8756C14.1959 18.5306 14.6629 19.4998 15.5009 19.4998H17.5008V22.4992C17.5008 23.4449 18.6916 23.8613 19.2818 23.1237L23.2817 18.1243C23.8058 17.4693 23.3388 16.5001 22.5008 16.5001H20.5008V13.5007Z" fill="#353566"/>
</g>
<defs>
<clipPath id="clip0_9001_303929">
<rect width="24" height="24" fill="white"/>
</clipPath>
</defs>
</svg>
