<svg width="24" height="24" viewBox="0 0 24 24" fill="none" xmlns="http://www.w3.org/2000/svg">
<path d="M8.75 1C8.75 0.585786 8.41421 0.25 8 0.25C7.58579 0.25 7.25 0.585786 7.25 1V2.25007C6.44395 2.25064 5.78458 2.25569 5.24013 2.30018C4.61012 2.35165 4.06824 2.45963 3.57054 2.71322C2.77085 3.12068 2.12069 3.77085 1.71322 4.57054C1.45963 5.06824 1.35165 5.61012 1.30018 6.24013C1.27356 6.56592 1.26106 6.93286 1.25519 7.34774C1.25322 7.48727 1.25223 7.55704 1.2792 7.61129C1.30278 7.65873 1.34151 7.69801 1.38862 7.72227C1.44248 7.75 1.51286 7.75 1.65363 7.75H22.3464C22.4871 7.75 22.5575 7.75 22.6114 7.72227C22.6585 7.69801 22.6972 7.65873 22.7208 7.61129C22.7478 7.55704 22.7468 7.48727 22.7448 7.34774C22.7389 6.93286 22.7264 6.56592 22.6998 6.24013C22.6483 5.61012 22.5404 5.06824 22.2868 4.57054C21.8793 3.77085 21.2291 3.12068 20.4295 2.71322C19.9318 2.45963 19.3899 2.35165 18.7599 2.30018C18.2154 2.25569 17.556 2.25064 16.75 2.25007V1C16.75 0.585786 16.4142 0.25 16 0.25C15.5858 0.25 15.25 0.585786 15.25 1V2.25H8.75V1Z" fill="#353566"/>
<path fill-rule="evenodd" clip-rule="evenodd" d="M1.3865 9.27725C1.43998 9.25 1.50999 9.25 1.65 9.25H22.35C22.49 9.25 22.56 9.25 22.6135 9.27725C22.6605 9.30122 22.6988 9.33946 22.7228 9.3865C22.75 9.43998 22.75 9.50999 22.75 9.65V17.4327C22.75 18.3851 22.75 19.1456 22.6998 19.7599C22.6483 20.3899 22.5404 20.9318 22.2868 21.4295C21.8793 22.2291 21.2291 22.8793 20.4295 23.2868C19.9318 23.5404 19.3899 23.6483 18.7599 23.6998C18.1456 23.75 17.385 23.75 16.4326 23.75H7.5673C6.6149 23.75 5.85438 23.75 5.24013 23.6998C4.61012 23.6483 4.06824 23.5404 3.57054 23.2868C2.77085 22.8793 2.12069 22.2291 1.71322 21.4295C1.45963 20.9318 1.35165 20.3899 1.30018 19.7599C1.24999 19.1456 1.24999 18.3851 1.25 17.4326V9.65C1.25 9.50999 1.25 9.43998 1.27725 9.3865C1.30122 9.33946 1.33946 9.30122 1.3865 9.27725ZM10.3355 12.3292C10.5895 12.4562 10.75 12.7159 10.75 13V19C10.75 19.4142 10.4143 19.75 10 19.75C9.58583 19.75 9.25004 19.4142 9.25004 19V14.5L8.45004 15.1C8.11867 15.3485 7.64857 15.2814 7.40004 14.95C7.15152 14.6186 7.21867 14.1485 7.55004 13.9L9.55004 12.4C9.77731 12.2296 10.0814 12.2021 10.3355 12.3292ZM14 13.75C13.6456 13.75 13.4261 13.8629 13.2595 14.0495C13.1164 14.2097 13 14.3938 13 14.7C13 15.1142 12.6642 15.45 12.25 15.45C11.8358 15.45 11.5 15.1142 11.5 14.7C11.5 13.9062 11.8451 13.3814 12.1405 13.0505C12.6149 12.5192 13.2544 12.25 14 12.25C15.5225 12.25 16.5 13.3877 16.5 14.6V14.6049L16.4998 14.6349C16.4888 15.4863 15.9889 16.0762 15.5159 16.4809C15.2768 16.6855 15.0158 16.8674 14.7803 17.0271C14.7264 17.0637 14.6741 17.0988 14.6234 17.133C14.442 17.2551 14.2799 17.3643 14.1281 17.4779C14.0155 17.5622 13.8987 17.662 13.7803 17.7803C13.6103 17.9504 13.4775 18.1081 13.3737 18.25H16C16.4142 18.25 16.75 18.5858 16.75 19C16.75 19.4142 16.4142 19.75 16 19.75H12.25C11.8358 19.75 11.5 19.4142 11.5 19L11.5 18.998L11.5 18.9959L11.5 18.9916L11.5002 18.982L11.5009 18.9594C11.5016 18.9429 11.5028 18.9233 11.5048 18.9008C11.5087 18.8559 11.5156 18.7996 11.5277 18.733C11.552 18.5996 11.5968 18.4261 11.6786 18.2215C11.8433 17.8099 12.1515 17.2878 12.7197 16.7197C12.8891 16.5502 13.0601 16.4037 13.2293 16.277C13.4143 16.1386 13.617 16.0021 13.8027 15.8772C13.8493 15.8458 13.8947 15.8152 13.9386 15.7855C14.169 15.6293 14.3701 15.4872 14.5406 15.3412C14.8859 15.0458 14.9965 14.8284 14.9999 14.6174L15 14.598C14.9989 14.2107 14.6891 13.75 14 13.75Z" fill="#353566"/>
</svg>
