<svg width="24" height="24" viewBox="0 0 24 24" fill="none" xmlns="http://www.w3.org/2000/svg">
<path d="M8 0.25C8.41421 0.25 8.75 0.585786 8.75 1V2.25H15.25V1C15.25 0.585786 15.5858 0.25 16 0.25C16.4142 0.25 16.75 0.585786 16.75 1V2.25007C17.556 2.25064 18.2154 2.25569 18.7599 2.30018C19.3899 2.35165 19.9318 2.45963 20.4295 2.71322C21.2291 3.12068 21.8793 3.77085 22.2868 4.57054C22.5404 5.06824 22.6483 5.61012 22.6998 6.24013C22.7264 6.56592 22.7389 6.93286 22.7448 7.34774C22.7468 7.48727 22.7478 7.55704 22.7208 7.61129C22.6972 7.65873 22.6585 7.69801 22.6114 7.72227C22.5575 7.75 22.4871 7.75 22.3464 7.75H1.65363C1.51286 7.75 1.44248 7.75 1.38862 7.72227C1.34151 7.69801 1.30278 7.65873 1.2792 7.61129C1.25223 7.55704 1.25322 7.48727 1.25519 7.34774C1.26106 6.93286 1.27356 6.56592 1.30018 6.24013C1.35165 5.61012 1.45963 5.06824 1.71322 4.57054C2.12068 3.77085 2.77085 3.12068 3.57054 2.71322C4.06824 2.45963 4.61012 2.35165 5.24013 2.30018C5.78458 2.25569 6.44395 2.25064 7.25 2.25007V1C7.25 0.585786 7.58579 0.25 8 0.25Z" fill="#353566"/>
<path d="M1.65 9.25C1.50999 9.25 1.43998 9.25 1.3865 9.27725C1.33946 9.30122 1.30122 9.33946 1.27725 9.3865C1.25 9.43998 1.25 9.50999 1.25 9.65V17.4326C1.24999 18.3851 1.24999 19.1456 1.30018 19.7599C1.35165 20.3899 1.45963 20.9318 1.71322 21.4295C2.12068 22.2291 2.77085 22.8793 3.57054 23.2868C4.06824 23.5404 4.61012 23.6483 5.24013 23.6998C5.85438 23.75 6.6149 23.75 7.5673 23.75H16.4326C17.385 23.75 18.1456 23.75 18.7599 23.6998C19.3899 23.6483 19.9318 23.5404 20.4295 23.2868C21.2291 22.8793 21.8793 22.2291 22.2868 21.4295C22.5404 20.9318 22.6483 20.3899 22.6998 19.7599C22.75 19.1456 22.75 18.3851 22.75 17.4327V9.65C22.75 9.50999 22.75 9.43998 22.7228 9.3865C22.6988 9.33946 22.6605 9.30122 22.6135 9.27725C22.56 9.25 22.49 9.25 22.35 9.25H1.65Z" fill="#353566"/>
</svg>
