<svg width="24" height="24" viewBox="0 0 24 24" fill="none" xmlns="http://www.w3.org/2000/svg">
<g clip-path="url(#clip0_9001_305265)">
<path fill-rule="evenodd" clip-rule="evenodd" d="M0.25 12C0.25 5.51065 5.51065 0.25 12 0.25C18.4893 0.25 23.75 5.51065 23.75 12C23.75 18.4893 18.4893 23.75 12 23.75C5.51065 23.75 0.25 18.4893 0.25 12ZM11.25 6C11.25 5.58579 11.5858 5.25 12 5.25C12.4143 5.25 12.75 5.58579 12.75 6V12C12.75 12.2586 12.6168 12.4989 12.3975 12.636L8.39754 15.136C8.04629 15.3555 7.58357 15.2488 7.36404 14.8975C7.14451 14.5462 7.25129 14.0835 7.60254 13.864L11.25 11.5843V6Z" fill="#353566"/>
</g>
<defs>
<clipPath id="clip0_9001_305265">
<rect width="24" height="24" fill="white"/>
</clipPath>
</defs>
</svg>
