<svg width="24" height="24" viewBox="0 0 24 24" fill="none" xmlns="http://www.w3.org/2000/svg">
<path d="M3.19848 5.9719C3.02558 5.1022 3.07063 4.17673 3.18544 2.75H2C1.58579 2.75 1.25 2.41421 1.25 2C1.25 1.58579 1.58579 1.25 2 1.25H18C18.4142 1.25 18.75 1.58579 18.75 2C18.75 2.41421 18.4142 2.75 18 2.75H16.8145C16.9293 4.17673 16.9744 5.1022 16.8015 5.9719C16.5438 7.26813 15.9366 8.46926 15.0457 9.44545C14.3579 10.1991 13.4395 10.7642 11.8778 11.7251L11.3204 12.0681C11.3472 12.1227 11.3674 12.1809 11.3804 12.2414C11.4232 12.4419 11.3821 12.6512 11.2666 12.8205C10.625 13.7618 10.25 14.8985 10.25 16.125C10.25 18.3827 11.5233 20.3443 13.3945 21.3285C13.433 21.3476 13.4696 21.37 13.504 21.3953C13.564 21.4393 13.6163 21.4914 13.6599 21.5495C13.7384 21.6539 13.7904 21.7795 13.8056 21.9162C13.8112 21.9661 13.8118 22.0169 13.8072 22.0679C13.7898 22.2611 13.6992 22.4332 13.5634 22.5562C13.4303 22.6766 13.2538 22.75 13.0602 22.75H2C1.58579 22.75 1.25 22.4142 1.25 22C1.25 21.5858 1.58579 21.25 2 21.25H3.18547C3.07067 19.8233 3.02561 18.8978 3.19851 18.0281C3.45622 16.7319 4.06333 15.5307 4.95423 14.5546C5.64206 13.8009 6.56049 13.2358 8.12219 12.2749L8.56896 12L8.12217 11.7251C6.56047 10.7642 5.64203 10.1991 4.9542 9.44545C4.0633 8.46926 3.45619 7.26813 3.19848 5.9719Z" fill="#353566"/>
<path fill-rule="evenodd" clip-rule="evenodd" d="M11.25 16.125C11.25 13.4326 13.4326 11.25 16.125 11.25C18.8174 11.25 21 13.4326 21 16.125C21 17.2006 20.6517 18.1948 20.0617 19.001L22.5303 21.4697C22.8232 21.7626 22.8232 22.2374 22.5303 22.5303C22.2374 22.8232 21.7625 22.8232 21.4696 22.5303L19.001 20.0617C18.1948 20.6517 17.2006 21 16.125 21C13.4326 21 11.25 18.8174 11.25 16.125ZM16.125 12.75C14.261 12.75 12.75 14.261 12.75 16.125C12.75 17.989 14.261 19.5 16.125 19.5C17.989 19.5 19.5 17.989 19.5 16.125C19.5 14.261 17.989 12.75 16.125 12.75Z" fill="#353566"/>
</svg>
