<svg width="24" height="24" viewBox="0 0 24 24" fill="none" xmlns="http://www.w3.org/2000/svg">
<g clip-path="url(#clip0_9001_305060)">
<path fill-rule="evenodd" clip-rule="evenodd" d="M10.75 3.27841V1.75H13C13.4142 1.75 13.75 1.41421 13.75 1C13.75 0.585786 13.4142 0.25 13 0.25H7C6.58579 0.25 6.25 0.585786 6.25 1C6.25 1.41421 6.58579 1.75 7 1.75H9.25V3.27842C4.21566 3.66139 0.25 7.86758 0.25 13C0.25 18.3848 4.61522 22.75 10 22.75C10.3791 22.75 10.7535 22.7283 11.1219 22.6861C11.3719 22.6574 11.5909 22.5052 11.705 22.2809C11.8191 22.0565 11.813 21.7899 11.6888 21.571C11.0914 20.5176 10.75 19.2998 10.75 18C10.75 13.9959 13.9959 10.75 18 10.75C18.1504 10.75 18.2997 10.7546 18.4476 10.7636C18.6984 10.7788 18.9402 10.6675 19.0917 10.4669C19.2431 10.2664 19.284 10.0033 19.2007 9.76628C18.7564 8.50206 18.0589 7.3569 17.1689 6.3918L18.5303 5.03033C18.8232 4.73744 18.8232 4.26256 18.5303 3.96967C18.2374 3.67678 17.7626 3.67678 17.4697 3.96967L16.0699 5.36946C14.5877 4.1888 12.7537 3.43082 10.75 3.27841ZM10.75 8.5C10.75 8.08579 10.4142 7.75 10 7.75C9.58579 7.75 9.25 8.08579 9.25 8.5V13C9.25 13.4142 9.58579 13.75 10 13.75C10.4142 13.75 10.75 13.4142 10.75 13V8.5Z" fill="#353566"/>
<path fill-rule="evenodd" clip-rule="evenodd" d="M12.25 18C12.25 14.8244 14.8244 12.25 18 12.25C21.1756 12.25 23.75 14.8244 23.75 18C23.75 21.1756 21.1756 23.75 18 23.75C14.8244 23.75 12.25 21.1756 12.25 18ZM15.5581 17.942C15.314 17.6979 15.314 17.3022 15.5581 17.0581L17.5581 15.0581C17.6753 14.9408 17.8343 14.875 18 14.875C18.1658 14.875 18.3248 14.9408 18.442 15.0581L20.442 17.058C20.686 17.3021 20.686 17.6979 20.442 17.9419C20.1979 18.186 19.8021 18.186 19.5581 17.9419L18.625 17.0089V20.5C18.625 20.8452 18.3452 21.125 18 21.125C17.6548 21.125 17.375 20.8452 17.375 20.5V17.0089L16.4419 17.942C16.1979 18.186 15.8021 18.186 15.5581 17.942Z" fill="#353566"/>
</g>
<defs>
<clipPath id="clip0_9001_305060">
<rect width="24" height="24" fill="white"/>
</clipPath>
</defs>
</svg>
