<svg width="24" height="24" viewBox="0 0 24 24" fill="none" xmlns="http://www.w3.org/2000/svg">
<g clip-path="url(#clip0_9001_305110)">
<path fill-rule="evenodd" clip-rule="evenodd" d="M10.75 3.27841V1.75H13C13.4142 1.75 13.75 1.41421 13.75 1C13.75 0.585786 13.4142 0.25 13 0.25H7C6.58579 0.25 6.25 0.585786 6.25 1C6.25 1.41421 6.58579 1.75 7 1.75H9.25V3.27842C4.21566 3.66139 0.25 7.86758 0.25 13C0.25 18.3848 4.61522 22.75 10 22.75C10.8253 22.75 11.6278 22.6473 12.3947 22.4536C12.6551 22.3878 12.8604 22.1878 12.9331 21.9293C13.0057 21.6708 12.9346 21.3931 12.7466 21.2013L11.7504 20.1851C11.4254 19.8537 11.2454 19.4067 11.2501 18.9425C11.2547 18.4784 11.4436 18.0351 11.7751 17.7102L13.7751 15.7502C14.2835 15.2519 15.0201 15.1252 15.6458 15.3727L16.1653 15.5783C16.3637 15.6569 16.5862 15.6471 16.777 15.5517C16.9678 15.4562 17.1089 15.2839 17.165 15.0781L17.3118 14.5389C17.5217 13.7682 18.2209 13.2531 18.9899 13.2494C19.1953 13.2485 19.3913 13.1633 19.5322 13.0138C19.6731 12.8643 19.7464 12.6635 19.7352 12.4584C19.6071 10.1222 18.6569 8.00519 17.1689 6.39171L18.5303 5.03033C18.8232 4.73744 18.8232 4.26256 18.5303 3.96967C18.2374 3.67678 17.7626 3.67678 17.4697 3.96967L16.0699 5.3694C14.5876 4.18864 12.7535 3.43081 10.75 3.27841ZM10.75 8.5C10.75 8.08579 10.4142 7.75 10 7.75C9.58579 7.75 9.25 8.08579 9.25 8.5V13C9.25 13.4142 9.58579 13.75 10 13.75C10.4142 13.75 10.75 13.4142 10.75 13V8.5Z" fill="#353566"/>
<path d="M15.5357 16.4751C15.8256 16.7709 15.8208 17.2457 15.5249 17.5357L14.0607 18.9706L15.5355 20.475C15.8255 20.7707 15.8208 21.2456 15.525 21.5356C15.2292 21.8255 14.7544 21.8208 14.4644 21.525L12.4644 19.485C12.3252 19.343 12.248 19.1514 12.25 18.9525C12.252 18.7536 12.333 18.5636 12.4751 18.4243L14.4751 16.4643C14.7709 16.1744 15.2457 16.1792 15.5357 16.4751Z" fill="#353566"/>
<path d="M20.4641 16.4753C20.7538 16.1793 21.2287 16.1743 21.5247 16.4641L23.5247 18.4221C23.6668 18.5612 23.7479 18.7512 23.75 18.9501C23.752 19.1491 23.675 19.3407 23.5358 19.4828L21.5358 21.5248C21.246 21.8207 20.7711 21.8256 20.4752 21.5358C20.1793 21.246 20.1744 20.7711 20.4642 20.4752L21.9393 18.9691L20.4753 17.5359C20.1793 17.2462 20.1743 16.7713 20.4641 16.4753Z" fill="#353566"/>
<path d="M19.1819 14.2726C19.5837 14.373 19.8281 14.7802 19.7276 15.1821L17.7276 23.1821C17.6271 23.5839 17.2199 23.8282 16.8181 23.7278C16.4162 23.6273 16.1719 23.2201 16.2724 22.8183L18.2724 14.8183C18.3728 14.4164 18.7801 14.1721 19.1819 14.2726Z" fill="#353566"/>
</g>
<defs>
<clipPath id="clip0_9001_305110">
<rect width="24" height="24" fill="white"/>
</clipPath>
</defs>
</svg>
