<svg width="24" height="24" viewBox="0 0 24 24" fill="none" xmlns="http://www.w3.org/2000/svg">
<path fill-rule="evenodd" clip-rule="evenodd" d="M11.75 3.27841V1.75H14C14.4142 1.75 14.75 1.41421 14.75 1C14.75 0.585786 14.4142 0.25 14 0.25H8C7.58579 0.25 7.25 0.585786 7.25 1C7.25 1.41421 7.58579 1.75 8 1.75H10.25V3.27842C5.21566 3.66139 1.25 7.86758 1.25 13C1.25 18.3848 5.61522 22.75 11 22.75C12.3643 22.75 13.665 22.4693 14.846 21.9619C15.1721 21.8218 15.3554 21.4722 15.285 21.1242C15.1887 20.6476 15.2896 20.1366 15.605 19.72C15.6807 19.6201 15.7723 19.5233 15.8997 19.3905L15.901 19.3891C15.9351 19.3536 15.9719 19.3152 16.0086 19.2761C16.2535 19.0159 16.2808 18.6191 16.0739 18.3278C15.5492 17.5892 15.2501 16.8963 15.2501 16.0817C15.2501 14.666 16.1159 13.5148 17.4443 12.8815C17.6101 12.8024 17.7412 12.6653 17.8126 12.496C18.1406 11.7184 18.7521 11.2501 19.5001 11.2501C19.536 11.2501 19.5712 11.2511 19.6058 11.2531C19.8487 11.2673 20.0834 11.1627 20.2353 10.9727C20.3873 10.7826 20.4375 10.5306 20.3702 10.2968C19.9454 8.82178 19.1817 7.49015 18.1689 6.39179L19.5303 5.03033C19.8232 4.73744 19.8232 4.26256 19.5303 3.96967C19.2374 3.67678 18.7626 3.67678 18.4697 3.96967L17.0699 5.36945C15.5877 4.18873 13.7537 3.43081 11.75 3.27841ZM11.75 8.5C11.75 8.08579 11.4142 7.75 11 7.75C10.5858 7.75 10.25 8.08579 10.25 8.5V13C10.25 13.4142 10.5858 13.75 11 13.75C11.4142 13.75 11.75 13.4142 11.75 13V8.5Z" fill="#353566"/>
<path d="M19.5 12.25C19.9143 12.25 20.25 12.5858 20.25 13V13.5489C20.5143 13.5879 20.7685 13.6533 21.0266 13.7556C21.4998 13.9433 21.9411 14.2381 22.4528 14.6256C22.783 14.8756 22.848 15.346 22.598 15.6763C22.3479 16.0065 21.8775 16.0715 21.5473 15.8214C21.059 15.4517 20.7503 15.2597 20.4735 15.15C20.2143 15.0471 19.9407 15 19.5 15C18.8566 15 18.4008 15.1521 18.1275 15.35C17.8766 15.5317 17.75 15.7677 17.75 16.0817C17.75 16.461 17.916 16.6783 18.2414 16.8604C18.6142 17.0691 19.1186 17.1761 19.6233 17.2602C20.1186 17.3427 20.8642 17.4795 21.4914 17.8306C22.166 18.2083 22.75 18.8667 22.75 19.9183C22.75 20.7329 22.3766 21.4128 21.7525 21.8648C21.3312 22.1699 20.8154 22.3592 20.25 22.4452V23C20.25 23.4142 19.9143 23.75 19.5 23.75C19.0858 23.75 18.75 23.4142 18.75 23V22.4511C18.4857 22.4121 18.2316 22.3467 17.9735 22.2443C17.5003 22.0566 17.059 21.7618 16.5473 21.3743C16.2171 21.1243 16.1521 20.6539 16.4021 20.3236C16.6522 19.9934 17.1226 19.9284 17.4528 20.1785C17.9411 20.5482 18.2498 20.7402 18.5266 20.85C18.7858 20.9528 19.0594 21 19.5 21C20.1435 21 20.5993 20.8479 20.8726 20.6499C21.1235 20.4682 21.25 20.2322 21.25 19.9183C21.25 19.539 21.0841 19.3217 20.7587 19.1395C20.3859 18.9308 19.8815 18.8239 19.3767 18.7398C18.8815 18.6572 18.1359 18.5204 17.5087 18.1693C16.8341 17.7917 16.25 17.1332 16.25 16.0817C16.25 15.267 16.6235 14.5872 17.2476 14.1352C17.6689 13.8301 18.1846 13.6408 18.75 13.5548V13C18.75 12.5858 19.0858 12.25 19.5 12.25Z" fill="#353566"/>
</svg>
