<svg width="24" height="24" viewBox="0 0 24 24" fill="none" xmlns="http://www.w3.org/2000/svg">
<path d="M9.04995 12.75H8.94995C8.53574 12.75 8.19995 12.4142 8.19995 12C8.19995 11.5858 8.53574 11.25 8.94995 11.25H9.04995C9.46416 11.25 9.79995 11.5858 9.79995 12C9.79995 12.4142 9.46416 12.75 9.04995 12.75Z" fill="#353566"/>
<path d="M8 15C8 14.5858 8.33579 14.25 8.75 14.25H9.25C9.66421 14.25 10 14.5858 10 15C10 15.4142 9.66421 15.75 9.25 15.75H8.75C8.33579 15.75 8 15.4142 8 15Z" fill="#353566"/>
<path d="M14 12.25C14 11.6977 14.4477 11.25 15 11.25C15.5523 11.25 16 11.6977 16 12.25V14.75C16 15.3023 15.5523 15.75 15 15.75C14.4477 15.75 14 15.3023 14 14.75V12.25Z" fill="#353566"/>
<path fill-rule="evenodd" clip-rule="evenodd" d="M12.75 2.25V3.77842C14.7534 3.93082 16.5876 4.68867 18.0699 5.86941L19.4697 4.46967C19.7626 4.17678 20.2374 4.17678 20.5303 4.46967C20.8232 4.76256 20.8232 5.23744 20.5303 5.53033L19.169 6.8917C20.7712 8.62906 21.75 10.9502 21.75 13.5C21.75 18.8848 17.3848 23.25 12 23.25C6.61522 23.25 2.25 18.8848 2.25 13.5C2.25 8.36758 6.21566 4.16139 11.25 3.77842V2.25H9C8.58579 2.25 8.25 1.91421 8.25 1.5C8.25 1.08579 8.58579 0.75 9 0.75H15C15.4142 0.75 15.75 1.08579 15.75 1.5C15.75 1.91421 15.4142 2.25 15 2.25H12.75ZM8.94995 9.75C7.70731 9.75 6.69995 10.7574 6.69995 12C6.69995 12.5241 6.87912 13.0063 7.17954 13.3887C6.76032 13.7974 6.5 14.3683 6.5 15C6.5 16.2426 7.50736 17.25 8.75 17.25H9.25C10.4926 17.25 11.5 16.2426 11.5 15C11.5 14.3683 11.2397 13.7974 10.8204 13.3887C11.1208 13.0062 11.3 12.524 11.3 12C11.3 10.7574 10.2926 9.75 9.04995 9.75H8.94995ZM15 9.75C13.6193 9.75 12.5 10.8693 12.5 12.25V14.75C12.5 16.1307 13.6193 17.25 15 17.25C16.3807 17.25 17.5 16.1307 17.5 14.75V12.25C17.5 10.8693 16.3807 9.75 15 9.75Z" fill="#353566"/>
</svg>
