<svg width="24" height="24" viewBox="0 0 24 24" fill="none" xmlns="http://www.w3.org/2000/svg">
<path opacity="0.4" d="M8.5 3C8.5 2.44772 8.05228 2 7.5 2H6.5C4.84315 2 3.5 3.34315 3.5 5V9.08452C3.5 9.61142 3.22355 10.0997 2.77174 10.3708L1.4855 11.1425C1.1843 11.3232 1 11.6487 1 12C1 12.3513 1.1843 12.6768 1.4855 12.8575L2.77174 13.6292C3.22355 13.9003 3.5 14.3886 3.5 14.9155V19C3.5 20.6569 4.84315 22 6.5 22H7.5C8.05228 22 8.5 21.5523 8.5 21C8.5 20.4477 8.05228 20 7.5 20H6.5C5.94772 20 5.5 19.5523 5.5 19V14.9155C5.5 13.7398 4.91007 12.6465 3.93651 12C4.91007 11.3535 5.5 10.2602 5.5 9.08452V5C5.5 4.44772 5.94772 4 6.5 4H7.5C8.05228 4 8.5 3.55228 8.5 3Z" fill="#353566"/>
<path d="M15.5 3C15.5 2.44772 15.9477 2 16.5 2H17.5C19.1569 2 20.5 3.34315 20.5 5V9.08452C20.5 9.61142 20.7764 10.0997 21.2283 10.3708L22.5145 11.1425C22.8157 11.3232 23 11.6487 23 12C23 12.3513 22.8157 12.6768 22.5145 12.8575L21.2283 13.6292C20.7764 13.9003 20.5 14.3886 20.5 14.9155V19C20.5 20.6569 19.1569 22 17.5 22H16.5C15.9477 22 15.5 21.5523 15.5 21C15.5 20.4477 15.9477 20 16.5 20H17.5C18.0523 20 18.5 19.5523 18.5 19V14.9155C18.5 13.7398 19.0899 12.6465 20.0635 12C19.0899 11.3535 18.5 10.2602 18.5 9.08452V5C18.5 4.44772 18.0523 4 17.5 4H16.5C15.9477 4 15.5 3.55228 15.5 3Z" fill="#353566"/>
</svg>
