<svg width="24" height="24" viewBox="0 0 24 24" fill="none" xmlns="http://www.w3.org/2000/svg">
<g opacity="0.4">
<path d="M12.6952 1.36232C12.2433 1.21549 11.7565 1.21549 11.3046 1.36232C11.0017 1.46074 10.7553 1.63146 10.5286 1.82399C10.3137 2.0064 10.0725 2.24758 9.79297 2.52714L8.77619 3.54393C8.49661 3.82348 8.25543 4.06465 8.07301 4.27953C7.88048 4.50632 7.70977 4.75268 7.61134 5.05559C7.46451 5.50749 7.46451 5.99427 7.61134 6.44617C7.70977 6.74908 7.88048 6.99543 8.07301 7.22223C8.25543 7.4371 8.49661 7.67827 8.77618 7.95782L9.79297 8.97461C10.0725 9.25418 10.3137 9.49535 10.5286 9.67776C10.7553 9.8703 11.0017 10.041 11.3046 10.1394C11.7565 10.2863 12.2433 10.2863 12.6952 10.1394C12.9981 10.041 13.2445 9.8703 13.4712 9.67776C13.6861 9.49536 13.9273 9.2542 14.2068 8.97466L15.2236 7.9578C15.5032 7.67826 15.7444 7.4371 15.9268 7.22223C16.1193 6.99543 16.29 6.74908 16.3885 6.44617C16.5353 5.99427 16.5353 5.50749 16.3885 5.05559C16.29 4.75268 16.1193 4.50632 15.9268 4.27953C15.7444 4.06465 15.5032 3.82349 15.2236 3.54394L14.2068 2.52716C13.9273 2.24759 13.6861 2.00641 13.4712 1.82399C13.2445 1.63146 12.9981 1.46074 12.6952 1.36232Z" fill="#353566"/>
<path d="M12.6952 13.8623C12.2433 13.7155 11.7565 13.7155 11.3046 13.8623C11.0017 13.9607 10.7553 14.1315 10.5286 14.324C10.3137 14.5064 10.0725 14.7476 9.79297 15.0271L8.77619 16.0439C8.49661 16.3235 8.25543 16.5647 8.07301 16.7795C7.88048 17.0063 7.70977 17.2527 7.61134 17.5556C7.46451 18.0075 7.46451 18.4943 7.61134 18.9462C7.70977 19.2491 7.88048 19.4954 8.07301 19.7222C8.25543 19.9371 8.49661 20.1783 8.77617 20.4578L9.79297 21.4746C10.0725 21.7542 10.3137 21.9953 10.5286 22.1778C10.7553 22.3703 11.0017 22.541 11.3046 22.6394C11.7565 22.7863 12.2433 22.7863 12.6952 22.6394C12.9981 22.541 13.2445 22.3703 13.4712 22.1778C13.6861 21.9953 13.9273 21.7542 14.2068 21.4746L15.2236 20.4578C15.5032 20.1783 15.7444 19.9371 15.9268 19.7222C16.1193 19.4954 16.29 19.2491 16.3885 18.9462C16.5353 18.4943 16.5353 18.0075 16.3885 17.5556C16.29 17.2527 16.1193 17.0063 15.9268 16.7795C15.7444 16.5647 15.5032 16.3235 15.2236 16.0439L14.2068 15.0272C13.9273 14.7476 13.6861 14.5064 13.4712 14.324C13.2445 14.1315 12.9981 13.9607 12.6952 13.8623Z" fill="#353566"/>
</g>
<path d="M1.36134 11.3058C1.21451 11.7577 1.21451 12.2445 1.36134 12.6964C1.45977 12.9993 1.63048 13.2457 1.82301 13.4725C2.00543 13.6873 2.24661 13.9285 2.52617 14.2081L3.54295 15.2248C3.82251 15.5044 4.06367 15.7456 4.27855 15.928C4.50535 16.1205 4.7517 16.2913 5.05461 16.3897C5.50651 16.5365 5.99329 16.5365 6.44519 16.3897C6.7481 16.2913 6.99446 16.1205 7.22125 15.928C7.43613 15.7456 7.67729 15.5044 7.95684 15.2248L8.97363 14.208C9.25319 13.9285 9.49438 13.6873 9.67679 13.4725C9.86932 13.2457 10.04 12.9993 10.1385 12.6964C10.2853 12.2445 10.2853 11.7577 10.1385 11.3058C10.04 11.0029 9.86932 10.7566 9.67679 10.5298C9.49437 10.3149 9.25319 10.0737 8.97363 9.79419L7.95682 8.77738C7.67728 8.49782 7.43612 8.25665 7.22125 8.07423C6.99446 7.8817 6.7481 7.71099 6.44519 7.61256C5.99329 7.46573 5.50651 7.46573 5.05461 7.61256C4.7517 7.71099 4.50534 7.8817 4.27855 8.07423C4.06368 8.25665 3.82252 8.49783 3.54297 8.77739L2.52618 9.79418C2.24661 10.0737 2.00543 10.3149 1.82301 10.5298C1.63048 10.7566 1.45977 11.0029 1.36134 11.3058Z" fill="#353566"/>
<path d="M13.8613 11.3058C13.7145 11.7577 13.7145 12.2445 13.8613 12.6964C13.9598 12.9993 14.1305 13.2457 14.323 13.4725C14.5054 13.6873 14.7466 13.9285 15.0262 14.208L16.043 15.2248C16.3225 15.5044 16.5637 15.7456 16.7786 15.928C17.0053 16.1205 17.2517 16.2913 17.5546 16.3897C18.0065 16.5365 18.4933 16.5365 18.9452 16.3897C19.2481 16.2913 19.4945 16.1205 19.7212 15.928C19.9361 15.7456 20.1773 15.5044 20.4568 15.2248L21.4736 14.208C21.7532 13.9285 21.9944 13.6873 22.1768 13.4725C22.3693 13.2457 22.54 12.9993 22.6385 12.6964C22.7853 12.2445 22.7853 11.7577 22.6385 11.3058C22.54 11.0029 22.3693 10.7566 22.1768 10.5298C21.9944 10.3149 21.7532 10.0737 21.4736 9.79419L20.4568 8.77738C20.1773 8.49782 19.9361 8.25665 19.7212 8.07423C19.4945 7.8817 19.2481 7.71099 18.9452 7.61256C18.4933 7.46573 18.0065 7.46573 17.5546 7.61256C17.2517 7.71099 17.0053 7.8817 16.7786 8.07423C16.5637 8.25665 16.3225 8.49783 16.043 8.77739L15.0262 9.79418C14.7466 10.0737 14.5054 10.3149 14.323 10.5298C14.1305 10.7566 13.9598 11.0029 13.8613 11.3058Z" fill="#353566"/>
</svg>
