<svg width="24" height="24" viewBox="0 0 24 24" fill="none" xmlns="http://www.w3.org/2000/svg">
<path opacity="0.4" d="M4.69366 7.25C4.44037 7.25 4.31373 7.25 4.21721 7.29264C4.08852 7.34948 3.98973 7.45791 3.94509 7.59133C3.9116 7.69139 3.92337 7.81749 3.9469 8.06968L4.88355 18.1084C4.94691 18.7876 4.9985 19.3405 5.07599 19.7885C5.1562 20.2522 5.27279 20.6618 5.49676 21.0385C5.85176 21.6357 6.37642 22.1137 7.00395 22.4117C7.39987 22.5997 7.81851 22.6777 8.28764 22.7145C8.7409 22.75 9.29627 22.75 9.97837 22.75H14.0214C14.7035 22.75 15.2589 22.75 15.7122 22.7145C16.1813 22.6777 16.6 22.5997 16.9959 22.4117C17.6234 22.1137 18.1481 21.6357 18.5031 21.0386C18.727 20.6618 18.8436 20.2522 18.9238 19.7886C19.0013 19.3406 19.0529 18.7876 19.1163 18.1084L20.053 8.06968C20.0765 7.81749 20.0883 7.69139 20.0548 7.59133C20.0102 7.45792 19.9114 7.34948 19.7827 7.29264C19.6862 7.25 19.5595 7.25 19.3062 7.25H4.69366Z" fill="#353566"/>
<path d="M9.14896 1.34721C9.47168 1.24921 9.81443 1.24961 10.2037 1.25006H13.7963C14.1856 1.24961 14.5283 1.24921 14.851 1.34721C15.1341 1.43317 15.3974 1.57408 15.6259 1.7619C15.8864 1.97606 16.0762 2.26146 16.2918 2.5856L16.9116 3.51538C17.198 3.94497 17.2608 4.02551 17.3266 4.07953C17.4027 4.14214 17.4905 4.18911 17.5848 4.21776C17.6662 4.24248 17.7681 4.25012 18.2844 4.25012H21C21.4142 4.25012 21.75 4.58591 21.75 5.00012C21.75 5.41434 21.4142 5.75012 21 5.75012L18.2034 5.75019C18.1507 5.75025 18.0989 5.75031 18.0479 5.75012H5.95206C5.90106 5.75031 5.84895 5.75025 5.79631 5.75019L3 5.75012C2.58579 5.75012 2.25 5.41434 2.25 5.00012C2.25 4.58591 2.58579 4.25012 3 4.25012H5.71556C6.23186 4.25012 6.33375 4.24248 6.41516 4.21776C6.50951 4.18911 6.59727 4.14214 6.67344 4.07953C6.73917 4.02551 6.80205 3.94497 7.08844 3.51538L7.70823 2.58559C7.92377 2.26146 8.11356 1.97605 8.37412 1.7619C8.60263 1.57408 8.86593 1.43317 9.14896 1.34721Z" fill="#353566"/>
<path d="M15.6667 10.0834C15.2525 10.0834 14.9167 10.4192 14.9167 10.8334V11.1835C14.1391 10.499 13.1184 10.0833 12.0001 10.0833C9.94104 10.0833 8.21284 11.4916 7.72258 13.3964C7.61934 13.7975 7.86083 14.2064 8.26197 14.3097C8.66311 14.4129 9.07199 14.1714 9.17524 13.7703C9.49906 12.5122 10.642 11.5833 12.0001 11.5833C12.7233 11.5833 13.3857 11.8467 13.8959 12.2833H13.4667C13.0525 12.2833 12.7167 12.6191 12.7167 13.0333C12.7167 13.4475 13.0525 13.7833 13.4667 13.7833H15.3443C15.3561 13.7836 15.3679 13.7836 15.3797 13.7833H15.6667C16.081 13.7833 16.4167 13.4475 16.4167 13.0333V10.8334C16.4167 10.4192 16.081 10.0834 15.6667 10.0834Z" fill="#353566"/>
<path d="M9.08337 18.1667C9.08337 18.5809 8.74759 18.9167 8.33337 18.9167C7.91916 18.9167 7.58337 18.5809 7.58337 18.1667V15.9667C7.58337 15.7678 7.66239 15.5771 7.80304 15.4364C7.9437 15.2957 8.13446 15.2167 8.33337 15.2167H8.62012C8.63214 15.2164 8.64413 15.2164 8.6561 15.2167H10.5334C10.9476 15.2167 11.2834 15.5525 11.2834 15.9667C11.2834 16.3809 10.9476 16.7167 10.5334 16.7167H10.1042C10.6144 17.1534 11.2768 17.4167 12.0001 17.4167C13.3581 17.4167 14.5011 16.4879 14.8249 15.2297C14.9281 14.8286 15.337 14.5871 15.7382 14.6903C16.1393 14.7936 16.3808 15.2024 16.2776 15.6036C15.7873 17.5084 14.0591 18.9167 12.0001 18.9167C10.8817 18.9167 9.86103 18.5011 9.08337 17.8166V18.1667Z" fill="#353566"/>
</svg>
