<svg width="24" height="24" viewBox="0 0 24 24" fill="none" xmlns="http://www.w3.org/2000/svg">
<path opacity="0.4" d="M12.3537 2.14803C16.1636 6 19.5001 10 19.5001 14.5C19.5001 18.4064 16.5001 22 12.0001 22L12 2C12.128 1.99998 12.2561 2.04933 12.3537 2.14803Z" fill="#353566"/>
<path fill-rule="evenodd" clip-rule="evenodd" d="M12 1.5C11.7432 1.5 11.4864 1.59879 11.2909 1.79636C9.38019 3.72774 7.56293 5.72117 6.2232 7.81117C4.88183 9.90372 4 12.1224 4 14.5C4 18.6558 7.19766 22.4992 11.9986 22.5H12C16.8017 22.5 20 18.6563 20 14.5C20 12.1223 19.1179 9.90368 17.7764 7.81116C16.4366 5.72118 14.6193 3.72776 12.7091 1.79643C12.5137 1.5988 12.2568 1.5 12 1.5ZM11.5 3.01087C9.79409 4.7635 8.23227 6.53 7.06508 8.35083C5.78596 10.3463 5 12.3776 5 14.5C5 18.0093 7.58073 21.2304 11.5 21.4839V3.01087ZM12.5 21.4839V3.01102C14.2055 4.76361 15.7673 6.53006 16.9346 8.35085C18.2138 10.3463 19 12.3777 19 14.5C19 18.0094 16.4193 21.2304 12.5 21.4839Z" fill="#353566"/>
</svg>
