<svg width="24" height="24" viewBox="0 0 24 24" fill="none" xmlns="http://www.w3.org/2000/svg">
<g opacity="0.4">
<path d="M5.92675 1.62042C6.42886 1.45726 6.96974 1.45726 7.47186 1.6204C7.78797 1.72311 8.0588 1.90497 8.33754 2.14161C8.60827 2.37144 8.91734 2.68051 9.30052 3.0637L10.8682 4.63141C10.962 4.72518 11.0147 4.85235 11.0147 4.98496C11.0147 5.11757 10.962 5.24475 10.8682 5.33851L5.33942 10.8673C5.24565 10.9611 5.11847 11.0138 4.98586 11.0138C4.85326 11.0138 4.72608 10.9611 4.63231 10.8673L3.06464 9.29965C2.68146 8.91648 2.3724 8.60743 2.14258 8.33671C1.90595 8.05798 1.7241 7.78716 1.62139 7.47106C1.45824 6.96896 1.45823 6.42811 1.62137 5.926C1.72407 5.6099 1.90592 5.33908 2.14254 5.06034C2.37235 4.78962 2.68139 4.48056 3.06455 4.0974L4.09812 3.06377C4.48129 2.68057 4.79035 2.37149 5.06107 2.14165C5.33981 1.90501 5.61064 1.72314 5.92675 1.62042Z" fill="#353566"/>
<path d="M19.0147 12.985C19.1473 12.985 19.2745 13.0376 19.3682 13.1314L20.9354 14.6986C21.3185 15.0817 21.6275 15.3907 21.8573 15.6614C22.094 15.9401 22.2758 16.211 22.3785 16.5271C22.5417 17.0292 22.5417 17.57 22.3786 18.0721C22.2759 18.3882 22.094 18.659 21.8574 18.9378C21.6276 19.2085 21.3185 19.5176 20.9354 19.9008L19.9019 20.9343C19.5187 21.3175 19.2096 21.6266 18.9389 21.8565C18.6601 22.0931 18.3893 22.275 18.0732 22.3777C17.5711 22.5409 17.0302 22.5409 16.5281 22.3777C16.212 22.275 15.9411 22.0932 15.6624 21.8565C15.3917 21.6267 15.0826 21.3176 14.6994 20.9344L13.1323 19.3673C13.0385 19.2736 12.9859 19.1464 12.9859 19.0138C12.9859 18.8812 13.0385 18.754 13.1323 18.6602L18.6611 13.1314C18.7549 13.0376 18.8821 12.985 19.0147 12.985Z" fill="#353566"/>
<path d="M18.5001 9.66016L14.3402 5.5L3.87493 15.9656C3.71335 16.1272 3.63254 16.208 3.56508 16.2998C3.50518 16.3813 3.45367 16.4687 3.41135 16.5606C3.36369 16.664 3.33179 16.775 3.26798 16.9969L2.15935 20.8522C2.02895 21.3057 1.96374 21.5324 2.02194 21.6873C2.07266 21.8224 2.17924 21.929 2.3143 21.9796C2.46924 22.0378 2.69598 21.9726 3.14945 21.8421L7.00384 20.7328C7.22561 20.669 7.33653 20.637 7.43996 20.5894C7.5318 20.5471 7.61913 20.4956 7.70061 20.4357C7.79237 20.3682 7.87397 20.2866 8.03715 20.1234L18.5001 9.66016Z" fill="#353566"/>
</g>
<path d="M7.16163 2.57146C6.86036 2.47357 6.53583 2.47358 6.23456 2.57147C6.09401 2.61714 5.93849 2.70749 5.70705 2.90397C5.47114 3.10425 5.19074 3.38412 4.78889 3.78599L3.7856 4.78934C3.38377 5.19119 3.10393 5.47159 2.90367 5.7075C2.70721 5.93894 2.61687 6.09445 2.57121 6.235C2.47333 6.53626 2.47333 6.86078 2.57122 7.16204C2.61689 7.30259 2.70723 7.4581 2.9037 7.68953C3.10396 7.92543 3.38381 8.20583 3.78565 8.60767L5.3382 10.1602C5.53346 10.3555 5.53346 10.6721 5.3382 10.8673C5.14293 11.0626 4.82635 11.0626 4.63109 10.8673L3.0634 9.29964C2.68028 8.91652 2.37116 8.6074 2.14136 8.33671C1.90473 8.05798 1.72288 7.78716 1.62017 7.47106C1.45702 6.96896 1.45701 6.42811 1.62015 5.926C1.72285 5.6099 1.9047 5.33908 2.14132 5.06034C2.37113 4.78962 2.68017 4.48056 3.06333 4.09739L4.0969 3.06377C4.48007 2.68057 4.78913 2.37149 5.05985 2.14165C5.33859 1.90501 5.60942 1.72314 5.92553 1.62042C6.42764 1.45726 6.96852 1.45726 7.47064 1.6204C7.78675 1.72311 8.05758 1.90497 8.33632 2.14161C8.60705 2.37144 8.91611 2.68051 9.2993 3.0637L10.867 4.63141C11.0623 4.82667 11.0623 5.14325 10.867 5.33851C10.6717 5.53378 10.3552 5.53378 10.1599 5.33851L9.26391 4.44253L7.35327 6.36436C7.15858 6.56019 6.842 6.56112 6.64617 6.36643C6.45034 6.17173 6.44941 5.85515 6.6441 5.65932L8.5568 3.73542C8.18174 3.36046 7.91504 3.09572 7.68915 2.90395C7.4577 2.70747 7.30218 2.61713 7.16163 2.57146Z" fill="#353566"/>
<path d="M18.6599 13.1314C18.8552 12.9361 19.1717 12.9361 19.367 13.1314L20.9341 14.6986C21.3173 15.0817 21.6263 15.3907 21.8561 15.6614C22.0928 15.9401 22.2746 16.211 22.3773 16.5271C22.5405 17.0292 22.5405 17.57 22.3773 18.0721C22.2746 18.3882 22.0928 18.659 21.8562 18.9378C21.6264 19.2085 21.3173 19.5176 20.9341 19.9008L19.9006 20.9343C19.5175 21.3175 19.2084 21.6266 18.9376 21.8565C18.6589 22.0931 18.3881 22.275 18.072 22.3777C17.5698 22.5409 17.029 22.5409 16.5269 22.3777C16.2107 22.275 15.9399 22.0932 15.6612 21.8565C15.3904 21.6267 15.0814 21.3176 14.6982 20.9344L13.1311 19.3673C12.9358 19.1721 12.9358 18.8555 13.1311 18.6602C13.3264 18.465 13.6429 18.465 13.8382 18.6602L15.3902 20.2122C15.792 20.614 16.0724 20.8939 16.3083 21.0942C16.5398 21.2907 16.6953 21.381 16.8359 21.4267C17.1371 21.5246 17.4617 21.5245 17.7629 21.4267C17.9035 21.381 18.059 21.2906 18.2904 21.0941C18.5264 20.8939 18.8067 20.614 19.2086 20.2121L20.2119 19.2088C20.6137 18.8069 20.8936 18.5265 21.0938 18.2906C21.2903 18.0592 21.3806 17.9037 21.4263 17.7631C21.5242 17.4619 21.5242 17.1373 21.4263 16.8361C21.3806 16.6955 21.2903 16.54 21.0938 16.3086C20.9022 16.0829 20.6378 15.8165 20.2634 15.442L18.3395 17.3547C18.1437 17.5494 17.8271 17.5485 17.6324 17.3526C17.4377 17.1568 17.4386 16.8402 17.6344 16.6455L19.5563 14.7349L18.6599 13.8385C18.4646 13.6433 18.4646 13.3267 18.6599 13.1314Z" fill="#353566"/>
<path fill-rule="evenodd" clip-rule="evenodd" d="M17.6587 1.71224C18.3017 1.42843 19.0345 1.42844 19.6776 1.71227C19.9149 1.81704 20.122 1.96919 20.3378 2.15894C20.5478 2.34354 20.7899 2.58565 21.09 2.88577L21.1136 2.90941C21.4136 3.20945 21.6556 3.45149 21.8402 3.66141C22.0299 3.87721 22.182 4.08428 22.2868 4.32165C22.5706 4.96468 22.5706 5.69746 22.2868 6.34049C22.182 6.57785 22.0299 6.78491 21.8401 7.00071C21.6556 7.21063 21.4135 7.45267 21.1135 7.75271L8.3671 20.4991C8.22554 20.6407 8.11847 20.7479 7.99552 20.8382C7.88688 20.9181 7.77044 20.9868 7.64799 21.0432C7.50939 21.107 7.36382 21.1489 7.17135 21.2042L3.26588 22.3282C3.05687 22.3883 2.86805 22.4427 2.71253 22.4724C2.55578 22.5023 2.34745 22.5263 2.13737 22.4474C1.86725 22.346 1.65409 22.1329 1.55264 21.8628C1.47375 21.6528 1.49765 21.4444 1.52756 21.2877C1.55724 21.1321 1.61156 20.9433 1.67169 20.7342L2.79498 16.8279C2.85029 16.6354 2.89212 16.4897 2.95599 16.3511C3.01241 16.2286 3.08109 16.1121 3.16097 16.0034C3.25137 15.8804 3.35682 15.775 3.49592 15.636L16.2497 2.88221C16.5487 2.58327 16.7899 2.34202 16.9993 2.15797C17.2147 1.96869 17.4214 1.81694 17.6587 1.71224ZM19.2738 2.62712C18.8879 2.45682 18.4483 2.45681 18.0624 2.6271C17.9575 2.67342 17.8386 2.75167 17.6595 2.90911C17.4771 3.06936 17.2585 3.28762 16.945 3.60115L15.1265 5.41967L18.5794 8.87259L20.3945 7.05747C20.7091 6.74284 20.9283 6.52336 21.0891 6.34042C21.2472 6.16059 21.3257 6.04152 21.3719 5.9367C21.5422 5.55089 21.5422 5.11122 21.3719 4.7254C21.3257 4.62059 21.2473 4.50152 21.0892 4.32168C20.9283 4.13873 20.7092 3.91925 20.3946 3.6046C20.0799 3.28994 19.8604 3.07079 19.6775 2.90993C19.4977 2.7518 19.3786 2.67338 19.2738 2.62712ZM17.8723 9.5797L14.4194 6.12678L4.2247 16.3214C4.05487 16.4913 4.00668 16.5413 3.96677 16.5956C3.92683 16.6499 3.89249 16.7082 3.86427 16.7694C3.83614 16.8305 3.81513 16.8988 3.74728 17.1348L2.63866 20.99C2.57072 21.2263 2.52985 21.3703 2.50984 21.4751L2.50651 21.4935L2.52489 21.4902C2.62974 21.4701 2.77369 21.4292 3.00995 21.3612L6.86436 20.252C7.10019 20.1841 7.16845 20.1631 7.22951 20.135C7.29073 20.1067 7.34895 20.0724 7.40327 20.0325C7.45744 19.9927 7.50886 19.9431 7.68238 19.7696L17.8723 9.5797Z" fill="#353566"/>
</svg>
