<svg width="24" height="24" viewBox="0 0 24 24" fill="none" xmlns="http://www.w3.org/2000/svg">
<path opacity="0.4" d="M11.0692 1.59802C10.0731 1.13464 8.92331 1.13465 7.92726 1.59802L2.40342 4.16779C1.08997 4.77882 0.25 6.09601 0.25 7.54463V13.5115C0.25 14.9712 1.10276 16.2964 2.4313 16.9012L7.95514 19.4158C8.73167 19.7693 9.59924 19.8428 10.4136 19.6363C10.8128 19.5351 11.0557 19.1309 10.9577 18.7309C10.8221 18.177 10.75 17.5974 10.75 16.9999C10.75 12.9969 13.9942 9.75167 17.9968 9.74994C18.4108 9.74976 18.7464 9.41403 18.7464 8.99994V7.54463C18.7464 6.09601 17.9065 4.77882 16.593 4.16779L11.0692 1.59802Z" fill="#353566"/>
<path d="M16.593 4.1673C17.6375 4.65321 18.3825 5.58568 18.6439 6.67569L10.124 10.4632L10.124 19.6971C9.71043 19.7675 9.2877 19.7677 8.87404 19.6974L8.87405 10.4639L0.352783 6.67445C0.614396 5.58497 1.3593 4.65302 2.40338 4.1673L4.14541 3.35689L13.2641 7.69913L14.7678 7.03068L5.61607 2.67272L7.92723 1.59753C8.92327 1.13416 10.0731 1.13416 11.0691 1.59753L16.593 4.1673Z" fill="#353566"/>
<path d="M4.62472 14.163C4.7597 13.8453 5.12666 13.6972 5.44436 13.8322L7.24436 14.5969C7.56205 14.7319 7.71017 15.0988 7.57519 15.4165C7.44022 15.7342 7.07326 15.8824 6.75556 15.7474L4.95556 14.9826C4.63787 14.8476 4.48975 14.4807 4.62472 14.163Z" fill="#353566"/>
<path fill-rule="evenodd" clip-rule="evenodd" d="M17.9999 11.25C14.8243 11.25 12.2499 13.8244 12.2499 17C12.2499 20.1756 14.8243 22.75 17.9999 22.75C21.1756 22.75 23.7499 20.1756 23.7499 17C23.7499 13.8244 21.1756 11.25 17.9999 11.25ZM20.4419 15.3081C20.686 15.5521 20.686 15.9479 20.4419 16.1919L17.9419 18.6919C17.8244 18.8095 17.6649 18.8753 17.4987 18.875C17.3325 18.8747 17.1732 18.8081 17.0562 18.6901L15.5562 17.1778C15.3131 16.9327 15.3147 16.537 15.5598 16.2939C15.8049 16.0508 16.2006 16.0525 16.4437 16.2975L17.5018 17.3643L19.558 15.3081C19.8021 15.064 20.1978 15.064 20.4419 15.3081Z" fill="#353566"/>
</svg>
