<svg width="24" height="24" viewBox="0 0 24 24" fill="none" xmlns="http://www.w3.org/2000/svg">
<path opacity="0.4" d="M11.0692 1.59802C10.0731 1.13464 8.92331 1.13465 7.92726 1.59802L2.40342 4.16779C1.08997 4.77882 0.25 6.09601 0.25 7.54463V13.5115C0.25 14.9712 1.10276 16.2964 2.4313 16.9012L7.95514 19.4158C8.93546 19.8621 10.061 19.8621 11.0413 19.4158L13.0426 18.5047C13.3739 18.3539 13.5491 17.987 13.458 17.6345C13.3247 17.1187 13.25 16.575 13.25 16.002C13.25 13.1298 15.3571 10.7452 18.1114 10.3181C18.4768 10.2615 18.7464 9.94682 18.7464 9.57698V7.54463C18.7464 6.09601 17.9065 4.77882 16.593 4.16779L11.0692 1.59802Z" fill="#353566"/>
<path d="M16.593 4.1673C17.6375 4.65321 18.3825 5.58568 18.6439 6.67569L10.124 10.4632L10.124 19.6971C9.71043 19.7675 9.2877 19.7677 8.87404 19.6974L8.87405 10.4639L0.352783 6.67445C0.614396 5.58497 1.3593 4.65302 2.40338 4.1673L4.14541 3.35689L13.2641 7.69913L14.7678 7.03068L5.61607 2.67272L7.92723 1.59753C8.92327 1.13416 10.0731 1.13416 11.0691 1.59753L16.593 4.1673Z" fill="#353566"/>
<path d="M4.62472 14.163C4.7597 13.8453 5.12666 13.6972 5.44436 13.8322L7.24436 14.5969C7.56205 14.7319 7.71017 15.0988 7.57519 15.4165C7.44022 15.7342 7.07326 15.8824 6.75556 15.7474L4.95556 14.9826C4.63787 14.8476 4.48975 14.4807 4.62472 14.163Z" fill="#353566"/>
<path fill-rule="evenodd" clip-rule="evenodd" d="M19 11.5C16.5144 11.5 14.4999 13.517 14.4999 16.002C14.4999 18.7667 16.7 20.9001 18.6999 22.4C18.8777 22.5333 19.1222 22.5333 19.2999 22.4C21.2999 20.9 23.4999 18.7667 23.4999 16C23.4999 13.5147 21.4853 11.5 19 11.5ZM20.5 16.0001C20.5 16.8285 19.8284 17.5001 19 17.5001C18.1715 17.5001 17.4999 16.8285 17.4999 16.0001C17.4999 15.1716 18.1715 14.5001 19 14.5001C19.8284 14.5001 20.5 15.1716 20.5 16.0001Z" fill="#353566"/>
</svg>
