<svg width="24" height="24" viewBox="0 0 24 24" fill="none" xmlns="http://www.w3.org/2000/svg">
<path opacity="0.4" d="M11.0692 1.59802C10.0731 1.13464 8.92331 1.13465 7.92726 1.59802L2.40342 4.16779C1.08997 4.77882 0.25 6.09601 0.25 7.54463V13.5115C0.25 14.9712 1.10276 16.2964 2.4313 16.9012L7.95514 19.4158C8.93546 19.8621 10.061 19.8621 11.0413 19.4158L11.2956 19.3C11.6616 19.1334 11.8311 18.7077 11.6797 18.3351C11.4028 17.6538 11.25 16.9082 11.25 16.1249C11.25 12.8803 13.8803 10.2499 17.125 10.2499C17.3876 10.2499 17.6459 10.2671 17.8987 10.3004C18.1128 10.3285 18.3287 10.263 18.491 10.1206C18.6534 9.97816 18.7464 9.77269 18.7464 9.55674V7.54463C18.7464 6.09601 17.9065 4.77882 16.593 4.16779L11.0692 1.59802Z" fill="#353566"/>
<path d="M18.6439 6.67569C18.3825 5.58568 17.6375 4.65321 16.593 4.1673L11.0691 1.59753C10.0731 1.13416 8.92327 1.13416 7.92723 1.59753L5.61607 2.67272L14.7678 7.03068L13.2641 7.69913L4.14541 3.35689L2.40338 4.1673C1.3593 4.65302 0.614396 5.58497 0.352783 6.67445L8.87405 10.4639L8.87404 19.6974C9.2877 19.7677 9.71043 19.7675 10.124 19.6971L10.124 10.4632L18.6439 6.67569Z" fill="#353566"/>
<path d="M5.44436 13.8322C5.12666 13.6972 4.7597 13.8453 4.62472 14.163C4.48975 14.4807 4.63787 14.8476 4.95556 14.9826L6.75556 15.7474C7.07326 15.8824 7.44022 15.7342 7.57519 15.4165C7.71017 15.0988 7.56205 14.7319 7.24436 14.5969L5.44436 13.8322Z" fill="#353566"/>
<path fill-rule="evenodd" clip-rule="evenodd" d="M12.2499 16.125C12.2499 13.4326 14.4326 11.25 17.1249 11.25C19.8173 11.25 21.9999 13.4326 21.9999 16.125C21.9999 17.2006 21.6516 18.1948 21.0616 19.001L23.5302 21.4697C23.8231 21.7626 23.8231 22.2374 23.5302 22.5303C23.2373 22.8232 22.7624 22.8232 22.4695 22.5303L20.0009 20.0617C19.1947 20.6517 18.2005 21 17.1249 21C14.4326 21 12.2499 18.8174 12.2499 16.125ZM17.1249 12.75C15.261 12.75 13.7499 14.261 13.7499 16.125C13.7499 17.989 15.261 19.5 17.1249 19.5C18.9889 19.5 20.4999 17.989 20.4999 16.125C20.4999 14.261 18.9889 12.75 17.1249 12.75Z" fill="#353566"/>
</svg>
