<svg width="24" height="24" viewBox="0 0 24 24" fill="none" xmlns="http://www.w3.org/2000/svg">
<path opacity="0.4" d="M1.25 2C1.25 1.58579 1.58579 1.25 2 1.25H3.18189C4.31272 1.25 5.26785 2.08931 5.41322 3.21075L6.76785 13.6607C6.84861 14.2837 7.37924 14.75 8.00747 14.75H18.717C19.6221 14.75 20.3778 14.0598 20.4598 13.1584L21.2531 4.4321C21.2906 4.01959 21.6554 3.71558 22.0679 3.75308C22.4804 3.79058 22.7844 4.15539 22.7469 4.5679L21.9536 13.2942C21.8014 14.9682 20.3979 16.25 18.717 16.25H8.00747C6.62536 16.25 5.45797 15.2242 5.28029 13.8535L3.92567 3.40358C3.87721 3.02977 3.55884 2.75 3.18189 2.75H2C1.58579 2.75 1.25 2.41421 1.25 2Z" fill="#353566"/>
<path d="M10.4697 9.96964C10.1768 10.2625 10.1768 10.7374 10.4697 11.0303C10.7626 11.3232 11.2374 11.3232 11.5303 11.0303L13.5 9.06063L15.4697 11.0303C15.7626 11.3232 16.2374 11.3232 16.5303 11.0303C16.8232 10.7374 16.8232 10.2625 16.5303 9.96965L14.5607 7.99997L16.5303 6.03033C16.8232 5.73744 16.8232 5.26256 16.5303 4.96967C16.2374 4.67678 15.7625 4.67678 15.4696 4.96967L13.5 6.93931L11.5304 4.96968C11.2375 4.67679 10.7626 4.67679 10.4697 4.96968C10.1768 5.26257 10.1768 5.73745 10.4697 6.03034L12.4393 7.99997L10.4697 9.96964Z" fill="#353566"/>
<path d="M6.25 14.7489C4.86901 14.7489 3.74902 15.8689 3.74902 17.2498C3.74902 18.6308 4.86901 19.7508 6.25 19.7508H6.64498C6.55148 19.9822 6.5 20.235 6.5 20.4998C6.5 21.6044 7.39543 22.4998 8.5 22.4998C9.60457 22.4998 10.5 21.6044 10.5 20.4998C10.5 20.235 10.4485 19.9822 10.355 19.7508H16.645C16.5515 19.9822 16.5 20.235 16.5 20.4998C16.5 21.6044 17.3954 22.4998 18.5 22.4998C19.6046 22.4998 20.5 21.6044 20.5 20.4998C20.5 20.235 20.4485 19.9822 20.355 19.7508H21C21.1989 19.7508 21.3896 19.6717 21.5303 19.5311L21.5312 19.5301C21.8059 19.2555 21.8233 18.8208 21.583 18.5262L21.5312 18.4696L21.5303 18.4686C21.3896 18.3279 21.1989 18.2489 21 18.2489H6.25C5.69799 18.2489 5.25098 17.8019 5.25098 17.2498C5.25098 16.6978 5.69799 16.2508 6.25 16.2508H6.625C6.92835 16.2508 7.20227 16.0682 7.31836 15.7879C7.41993 15.5427 7.38301 15.2648 7.22852 15.0555L7.15527 14.9705L7.15332 14.9686C7.01267 14.8279 6.82196 14.7489 6.62305 14.7489H6.25Z" fill="#353566"/>
</svg>
