<svg width="24" height="24" viewBox="0 0 24 24" fill="none" xmlns="http://www.w3.org/2000/svg">
<path opacity="0.4" d="M1 1.25C0.585786 1.25 0.25 1.58579 0.25 2C0.25 2.41421 0.585786 2.75 1 2.75H2.18189C2.55884 2.75 2.87721 3.02977 2.92567 3.40358L4.28029 13.8535C4.45797 15.2242 5.62536 16.25 7.00747 16.25H14.4161C14.6497 16.25 14.8701 16.1411 15.012 15.9555C15.1539 15.7698 15.2011 15.5286 15.1398 15.3032C15.0488 14.9686 15 14.6158 15 14.25C15 12.0409 16.7909 10.25 19 10.25C19.4673 10.25 19.9143 10.3298 20.3292 10.4759C20.5462 10.5523 20.7862 10.525 20.9804 10.4016C21.1746 10.2783 21.3015 10.0727 21.3246 9.84382L21.7452 5.6757C21.8492 4.64496 21.04 3.75 20.004 3.75H4.48313L4.41322 3.21075C4.26785 2.08931 3.31272 1.25 2.18189 1.25H1Z" fill="#353566"/>
<path d="M16.25 14.25C16.25 12.7312 17.4812 11.5 19 11.5C20.5188 11.5 21.75 12.7312 21.75 14.25C21.75 15.7688 20.5188 17 19 17C17.4812 17 16.25 15.7688 16.25 14.25Z" fill="#353566"/>
<path d="M14.5158 21.8754C15.0199 19.9168 16.921 18.5 19 18.5C21.0789 18.5 22.9801 19.9168 23.4842 21.8754C23.5228 22.0251 23.4899 22.1842 23.3952 22.3063C23.3005 22.4285 23.1546 22.5 23 22.5H15C14.8454 22.5 14.6995 22.4285 14.6048 22.3063C14.5101 22.1842 14.4773 22.0251 14.5158 21.8754Z" fill="#353566"/>
<path d="M2.74902 17.2499C2.74902 15.8689 3.86901 14.7489 5.25 14.7489L5.39746 14.7635C5.54145 14.7924 5.6749 14.8633 5.78027 14.9686L5.78125 14.9696L5.83301 15.0262C6.05731 15.3012 6.05731 15.6985 5.83301 15.9735L5.78125 16.0302L5.78027 16.0311C5.63962 16.1718 5.44891 16.2509 5.25 16.2509C4.69799 16.2509 4.25098 16.6979 4.25098 17.2499C4.25098 17.8019 4.69799 18.2489 5.25 18.2489H13.8164C14.0762 18.2489 14.3174 18.3834 14.4541 18.6044C14.5736 18.7978 14.598 19.0334 14.5244 19.245L14.4873 19.3339L14.4863 19.3358C14.3593 19.5899 14.0995 19.7509 13.8154 19.7509H9.35502C9.44852 19.9822 9.5 20.235 9.5 20.4999C9.5 21.6044 8.60457 22.4999 7.5 22.4999C6.39543 22.4999 5.5 21.6044 5.5 20.4999C5.5 20.235 5.55148 19.9822 5.64498 19.7509H5.25C3.86901 19.7509 2.74902 18.6309 2.74902 17.2499Z" fill="#353566"/>
</svg>
