<svg width="24" height="24" viewBox="0 0 24 24" fill="none" xmlns="http://www.w3.org/2000/svg">
<path opacity="0.4" d="M3 1.25C2.58579 1.25 2.25 1.58579 2.25 2C2.25 2.41421 2.58579 2.75 3 2.75H4.68189C5.05884 2.75 5.37721 3.02977 5.42567 3.40358L6.78029 13.8535C6.95797 15.2242 8.12536 16.25 9.50747 16.25H19.7396C21.4081 16.25 22.8056 14.9864 22.9732 13.3263L23.7452 5.6757C23.8492 4.64496 23.04 3.75 22.004 3.75H6.98313L6.91322 3.21075C6.76785 2.08931 5.81272 1.25 4.68189 1.25H3Z" fill="#353566"/>
<path d="M5.46576 13.1641C5.33872 12.91 5.07894 12.749 4.79487 12.749H2.99994C2.85079 12.749 2.70623 12.7935 2.58393 12.875L2.46967 12.9688L2.46869 12.9697C2.1758 13.2626 2.1758 13.7374 2.46869 14.0303L2.46967 14.0312C2.61032 14.1719 2.80103 14.251 2.99994 14.251H4.79584C5.05566 14.251 5.29685 14.1164 5.43354 13.8955C5.55309 13.7021 5.57742 13.4665 5.50385 13.2549L5.46674 13.166L5.46576 13.1641Z" fill="#353566"/>
<path d="M5.0683 9.99902C5.0683 9.58481 4.73252 9.24902 4.3183 9.24902H1.99994C1.85079 9.24902 1.70623 9.29347 1.58393 9.375L1.46967 9.46875L1.46869 9.46973C1.1758 9.76262 1.1758 10.2374 1.46869 10.5303L1.46967 10.5312L1.58393 10.625C1.70623 10.7065 1.85079 10.751 1.99994 10.751H4.3183C4.73252 10.751 5.0683 10.4152 5.0683 10.001V9.99902Z" fill="#353566"/>
<path d="M3.91791 5.75293L3.84076 5.74902H0.999943C0.850789 5.74902 0.706227 5.79347 0.583928 5.875L0.46967 5.96875L0.468693 5.96973C0.1758 6.26262 0.1758 6.73738 0.468693 7.03027L0.46967 7.03125L0.583928 7.125C0.706227 7.20653 0.850789 7.25098 0.999943 7.25098H3.84076C4.22893 7.25098 4.54824 6.95609 4.58686 6.57812L4.59076 6.50098V6.49902C4.59076 6.11086 4.29588 5.79155 3.91791 5.75293Z" fill="#353566"/>
<path d="M5.24994 17.25C5.24994 15.8693 6.36923 14.75 7.74994 14.75C8.16415 14.75 8.49994 15.0858 8.49994 15.5C8.49994 15.9142 8.16415 16.25 7.74994 16.25C7.19765 16.25 6.74994 16.6977 6.74994 17.25C6.74994 17.8023 7.19765 18.25 7.74994 18.25H21.9999C22.4142 18.25 22.7499 18.5858 22.7499 19C22.7499 19.4142 22.4142 19.75 21.9999 19.75H21.3546C21.4483 19.9816 21.4999 20.2347 21.4999 20.4998C21.4999 21.6044 20.6045 22.4998 19.4999 22.4998C18.3954 22.4998 17.4999 21.6044 17.4999 20.4998C17.4999 20.2347 17.5515 19.9816 17.6452 19.75H11.3546C11.4483 19.9816 11.4999 20.2347 11.4999 20.4998C11.4999 21.6044 10.6045 22.4998 9.49994 22.4998C8.39537 22.4998 7.49994 21.6044 7.49994 20.4998C7.49994 20.2339 7.55186 19.98 7.6461 19.7479C6.31354 19.6934 5.24994 18.5959 5.24994 17.25Z" fill="#353566"/>
</svg>
