<svg width="24" height="24" viewBox="0 0 24 24" fill="none" xmlns="http://www.w3.org/2000/svg">
<path opacity="0.4" d="M9.34467 2.02957C8.44514 1.05263 6.92672 0.982127 5.94053 1.87151L5.11493 2.61606C4.83133 2.87182 4.39673 2.85928 4.12834 2.5876C3.07185 1.51811 1.25 2.26622 1.25 3.76955V20.2407C1.25 21.7441 3.07191 22.4922 4.12838 21.4226C4.39675 21.1509 4.83137 21.1383 5.11497 21.3941L5.93019 22.1293C6.92235 23.0241 8.45273 22.9423 9.34387 21.9468L9.45082 21.8274C9.61911 21.6394 9.83431 21.5268 10.0611 21.4867C10.2974 21.445 10.4995 21.2926 10.6047 21.0769C10.7099 20.8612 10.7055 20.6082 10.5929 20.3963C10.055 19.384 9.75 18.2287 9.75 17C9.75 12.996 12.9959 9.75004 17 9.75004C17.4656 9.75004 17.9202 9.79383 18.3602 9.8773C18.5797 9.91893 18.8063 9.86056 18.9784 9.71808C19.1504 9.57559 19.25 9.36383 19.25 9.14044V3.76955C19.25 2.26623 17.4282 1.5181 16.3717 2.5876C16.1033 2.85928 15.6687 2.87182 15.3851 2.61606L14.5595 1.87151C13.5733 0.982127 12.0549 1.05263 11.1553 2.02958L11.0472 2.14707C10.6179 2.61322 9.88206 2.61322 9.45285 2.14706L9.34467 2.02957Z" fill="#353566"/>
<path d="M7.5 8.5C7.5 8.08579 7.83579 7.75 8.25 7.75H12.25C12.6642 7.75 13 8.08579 13 8.5C13 8.91421 12.6642 9.25 12.25 9.25H8.25C7.83579 9.25 7.5 8.91421 7.5 8.5Z" fill="#353566"/>
<path d="M5.5 12C5.5 11.5858 5.83579 11.25 6.25 11.25H11.4378C10.9747 11.6981 10.5655 12.2017 10.221 12.75H6.25C5.83579 12.75 5.5 12.4142 5.5 12Z" fill="#353566"/>
<path d="M9.03469 16.25C9.08265 15.7342 9.17957 15.2327 9.32075 14.75H7.25C6.83579 14.75 6.5 15.0858 6.5 15.5C6.5 15.9142 6.83579 16.25 7.25 16.25H9.03469Z" fill="#353566"/>
<path fill-rule="evenodd" clip-rule="evenodd" d="M17 11.25C13.8244 11.25 11.25 13.8244 11.25 17C11.25 20.1756 13.8244 22.75 17 22.75C20.1756 22.75 22.75 20.1756 22.75 17C22.75 13.8244 20.1756 11.25 17 11.25ZM19.4419 14.5581C19.686 14.8021 19.686 15.1979 19.4419 15.4419L15.4419 19.4419C15.1979 19.686 14.8021 19.686 14.5581 19.4419C14.314 19.1979 14.314 18.8021 14.5581 18.5581L18.5581 14.5581C18.8021 14.314 19.1979 14.314 19.4419 14.5581ZM14.75 15.5C14.75 15.0858 15.0858 14.75 15.5 14.75C15.9142 14.75 16.2501 15.0858 16.2501 15.5C16.2501 15.9142 15.9143 16.25 15.5001 16.25C15.0859 16.25 14.75 15.9142 14.75 15.5ZM18.5 17.75C18.0858 17.75 17.75 18.0858 17.75 18.5C17.75 18.9142 18.0858 19.25 18.5 19.25C18.9142 19.25 19.2501 18.9142 19.2501 18.5C19.2501 18.0858 18.9142 17.75 18.5 17.75Z" fill="#353566"/>
</svg>
