<svg width="24" height="24" viewBox="0 0 24 24" fill="none" xmlns="http://www.w3.org/2000/svg">
<g clip-path="url(#clip0_9001_289521)">
<path opacity="0.4" d="M6.75 8.5C6.75 8.08579 6.41421 7.75 6 7.75C5.58579 7.75 5.25 8.08579 5.25 8.5C5.25 9.04283 4.63132 9.75 3.5 9.75C3.26257 9.75 3.03312 9.69489 2.81994 9.59434C2.58761 9.48476 2.31536 9.5017 2.09842 9.63924C1.88147 9.77679 1.75 10.0158 1.75 10.2727V16.6317C1.74999 17.3748 1.74999 17.978 1.78996 18.4672C1.83121 18.9722 1.91876 19.4214 2.13148 19.8389C2.46704 20.4975 3.00247 21.0329 3.66103 21.3685C4.07851 21.5812 4.52778 21.6687 5.03273 21.71C5.52196 21.75 6.12511 21.75 6.86819 21.75H12.7877C13.0367 21.75 13.2694 21.6264 13.4089 21.4201C13.5484 21.2138 13.5764 20.9518 13.4837 20.7207C13.3332 20.3455 13.2499 19.9349 13.2499 19.503C13.2499 19.4195 13.2494 19.3365 13.2489 19.2565L13.2488 19.2552C13.2434 18.4219 13.2625 17.9025 13.5922 17.4556C13.8131 17.1561 13.8893 16.774 13.8006 16.413C13.6552 15.8214 13.8256 15.188 14.2632 14.749L16.2632 12.743C17.0119 11.9921 18.285 12.1328 18.9041 12.943C19.0994 13.1985 19.4358 13.3011 19.7404 13.198C20.045 13.0949 20.25 12.8091 20.25 12.4876V10.2727C20.25 10.0158 20.1185 9.77679 19.9016 9.63924C19.6846 9.5017 19.4124 9.48476 19.1801 9.59434C18.9669 9.69489 18.7374 9.75 18.5 9.75C17.3687 9.75 16.75 9.04283 16.75 8.5C16.75 8.08579 16.4142 7.75 16 7.75C15.5858 7.75 15.25 8.08579 15.25 8.5C15.25 9.04283 14.6313 9.75 13.5 9.75C12.3687 9.75 11.75 9.04283 11.75 8.5C11.75 8.08579 11.4142 7.75 11 7.75C10.5858 7.75 10.25 8.08579 10.25 8.5C10.25 9.04283 9.63132 9.75 8.5 9.75C7.36868 9.75 6.75 9.04283 6.75 8.5Z" fill="#353566"/>
<path d="M4.77745 0.25007C4.09967 0.249467 3.56985 0.248997 3.10303 0.422599C2.57152 0.620254 2.11411 0.977388 1.79345 1.44509C1.5118 1.85587 1.38376 2.36999 1.21996 3.02767L0.514929 5.8481C0.338974 6.55192 0.25 7.27466 0.25 8.00014C0.25 9.63905 1.68022 11.2501 3.5 11.2501C4.43942 11.2501 5.37545 10.8902 6 10.2663C6.62455 10.8902 7.56058 11.2501 8.5 11.2501C9.43942 11.2501 10.3754 10.8902 11 10.2663C11.6246 10.8902 12.5606 11.2501 13.5 11.2501C14.4394 11.2501 15.3754 10.8902 16 10.2663C16.6246 10.8902 17.5606 11.2501 18.5 11.2501C20.3198 11.2501 21.75 9.63905 21.75 8.00014C21.75 7.27466 21.661 6.55192 21.4851 5.8481L20.78 3.02766C20.6162 2.36998 20.4882 1.85587 20.2066 1.44509C19.8859 0.977388 19.4285 0.620254 18.897 0.4226C18.4301 0.248997 17.9003 0.249467 17.2226 0.25007H4.77745Z" fill="#353566"/>
<path d="M9.67608 13.7501H12.3239C12.5132 13.7501 12.6976 13.7501 12.8537 13.7628C13.0251 13.7768 13.2274 13.8099 13.431 13.9136C13.6079 14.0038 13.7641 14.1275 13.8914 14.2769C14.0951 14.5158 14.1285 14.8564 13.9749 15.1303C13.7578 15.5176 13.6934 15.9771 13.8006 16.4131C13.8893 16.7741 13.8132 17.1562 13.5922 17.4557C13.2625 17.9027 13.2434 18.4221 13.2488 19.2554L13.2489 19.2566C13.2494 19.3364 13.2499 19.4199 13.2499 19.5031C13.2499 19.9351 13.3332 20.3456 13.4837 20.7208C13.5765 20.9519 13.5484 21.214 13.409 21.4203C13.2695 21.6265 13.0367 21.7501 12.7877 21.7501H8.5L8.49759 21.7501H7.75L7.75 15.6762C7.74998 15.4869 7.74996 15.3026 7.76271 15.1465C7.77672 14.975 7.80977 14.7727 7.91349 14.5691C8.0573 14.2869 8.28677 14.0574 8.56902 13.9136C8.77259 13.8099 8.97489 13.7768 9.14633 13.7628C9.30245 13.7501 9.48679 13.7501 9.67608 13.7501Z" fill="#353566"/>
<path d="M23 19.2501C23.4142 19.2501 23.75 18.9143 23.75 18.5001V17.5001C23.75 16.2575 22.7426 15.2501 21.5 15.2501H17.3106L18.0303 14.5305C18.3232 14.2376 18.3232 13.7627 18.0303 13.4698C17.7374 13.1769 17.2625 13.1769 16.9696 13.4698L14.9696 15.4698C14.7551 15.6843 14.6909 16.0069 14.807 16.2871C14.9231 16.5674 15.1966 16.7501 15.4999 16.7501H21.5C21.9142 16.7501 22.25 17.0859 22.25 17.5001V18.5001C22.25 18.9143 22.5858 19.2501 23 19.2501Z" fill="#353566"/>
<path d="M14.25 18.5001C14.25 18.0859 14.5858 17.7501 15 17.7501C15.4142 17.7501 15.75 18.0859 15.75 18.5001V19.5001C15.75 19.9143 16.0858 20.2501 16.5 20.2501H22.5C22.8033 20.2501 23.0768 20.4329 23.1929 20.7131C23.309 20.9934 23.2448 21.316 23.0303 21.5305L21.0303 23.5305C20.7374 23.8233 20.2625 23.8233 19.9696 23.5304C19.6767 23.2375 19.6767 22.7627 19.9696 22.4698L20.6893 21.7501H16.5C15.2574 21.7501 14.25 20.7428 14.25 19.5001V18.5001Z" fill="#353566"/>
</g>
<defs>
<clipPath id="clip0_9001_289521">
<rect width="24" height="24" fill="white"/>
</clipPath>
</defs>
</svg>
