<svg width="24" height="24" viewBox="0 0 24 24" fill="none" xmlns="http://www.w3.org/2000/svg">
<path opacity="0.4" d="M7.75 9.5C7.75 9.08579 7.41421 8.75 7 8.75C6.58579 8.75 6.25 9.08579 6.25 9.5C6.25 10.0428 5.63132 10.75 4.5 10.75C4.26257 10.75 4.03312 10.6949 3.81994 10.5943C3.58761 10.4848 3.31536 10.5017 3.09842 10.6392C2.88147 10.7768 2.75 11.0158 2.75 11.2727V17.6317C2.74999 18.3748 2.74999 18.978 2.78996 19.4672C2.83121 19.9722 2.91876 20.4214 3.13148 20.8389C3.46704 21.4975 4.00247 22.0329 4.66103 22.3685C5.07851 22.5812 5.52778 22.6687 6.03273 22.71C6.52196 22.75 7.12511 22.75 7.86819 22.75H16.1318C16.8749 22.75 17.478 22.75 17.9673 22.71C18.4722 22.6687 18.9215 22.5812 19.339 22.3685C19.9975 22.0329 20.533 21.4975 20.8685 20.8389C21.0812 20.4214 21.1688 19.9722 21.21 19.4672C21.25 18.978 21.25 18.3749 21.25 17.6319V11.2727C21.25 11.0158 21.1185 10.7768 20.9016 10.6392C20.6846 10.5017 20.4124 10.4848 20.1801 10.5943C19.9669 10.6949 19.7374 10.75 19.5 10.75C18.3687 10.75 17.75 10.0428 17.75 9.5C17.75 9.08579 17.4142 8.75 17 8.75C16.5858 8.75 16.25 9.08579 16.25 9.5C16.25 10.0428 15.6313 10.75 14.5 10.75C13.3687 10.75 12.75 10.0428 12.75 9.5C12.75 9.08579 12.4142 8.75 12 8.75C11.5858 8.75 11.25 9.08579 11.25 9.5C11.25 10.0428 10.6313 10.75 9.5 10.75C8.36868 10.75 7.75 10.0428 7.75 9.5Z" fill="#353566"/>
<path d="M5.77745 1.25007H18.2226C18.9003 1.24947 19.4301 1.249 19.897 1.4226C20.4285 1.62025 20.8859 1.97739 21.2066 2.44509C21.4882 2.85587 21.6162 3.36998 21.78 4.02766L22.4851 6.8481C22.661 7.55192 22.75 8.27466 22.75 9.00014C22.75 10.6391 21.3198 12.2501 19.5 12.2501C18.5606 12.2501 17.6246 11.8902 17 11.2663C16.3754 11.8902 15.4394 12.2501 14.5 12.2501C13.5606 12.2501 12.6246 11.8902 12 11.2663C11.3754 11.8902 10.4394 12.2501 9.5 12.2501C8.56058 12.2501 7.62455 11.8902 7 11.2663C6.37545 11.8902 5.43942 12.2501 4.5 12.2501C2.68022 12.2501 1.25 10.6391 1.25 9.00014C1.25 8.27466 1.33897 7.55192 1.51493 6.8481L2.21996 4.02767C2.38376 3.36999 2.5118 2.85587 2.79345 2.44509C3.11411 1.97739 3.57152 1.62025 4.10303 1.4226C4.56985 1.249 5.09967 1.24947 5.77745 1.25007Z" fill="#353566"/>
<path d="M13.4582 13.7501C13.7423 13.7501 14.002 13.9106 14.1291 14.1647C14.2561 14.4187 14.2287 14.7226 14.0584 14.9499L14.0563 14.9528L14.0442 14.9694C14.0328 14.985 14.0152 15.0096 13.9921 15.0425C13.9459 15.1085 13.8782 15.2077 13.7962 15.3354C13.6316 15.5913 13.4114 15.9583 13.1916 16.398C12.744 17.2931 12.3332 18.4201 12.3332 19.5001C12.3332 19.9143 11.9975 20.2501 11.5832 20.2501C11.169 20.2501 10.8332 19.9143 10.8332 19.5001C10.8332 18.0802 11.36 16.7072 11.8499 15.7272C11.9345 15.558 12.0191 15.3985 12.1012 15.2501H10.5416C10.1274 15.2501 9.79158 14.9143 9.79158 14.5001C9.79158 14.0859 10.1274 13.7501 10.5416 13.7501H13.4582Z" fill="#353566"/>
</svg>
