<svg width="24" height="24" viewBox="0 0 24 24" fill="none" xmlns="http://www.w3.org/2000/svg">
<g clip-path="url(#clip0_9001_291461)">
<path opacity="0.4" d="M20.247 0.550848C19.9094 0.379113 19.5524 0.312267 19.1723 0.281556C18.8077 0.25211 18.3615 0.252543 17.8269 0.253062L12.7492 0.257879C11.9809 0.258441 11.47 0.258814 10.9805 0.376585C10.5477 0.480739 10.134 0.652249 9.75437 0.884842C9.32517 1.14784 8.96381 1.50903 8.42038 2.05221L2.95865 7.50903C2.28488 8.18218 1.74684 8.71972 1.34778 9.18937C0.93848 9.67106 0.631464 10.1304 0.458613 10.6616C0.18088 11.515 0.180453 12.4345 0.457394 13.2882C0.629751 13.8195 0.93634 14.2792 1.34519 14.7612C1.74381 15.2312 2.28132 15.7692 2.95444 16.443L5.55032 19.0414C6.22351 19.7152 6.76106 20.2533 7.23073 20.6524C7.71243 21.0617 8.17181 21.3687 8.70298 21.5416C9.55645 21.8194 10.4759 21.8198 11.3297 21.5428C11.5725 21.464 11.8012 21.357 12.0252 21.2237C12.2039 21.1173 12.3305 20.9414 12.3745 20.7381C12.4186 20.5348 12.3762 20.3223 12.2576 20.1514C10.9337 18.2451 10.9419 15.6834 12.1237 14.0761C13.1647 12.6603 14.8357 12.0137 16.3493 12.3288C16.7981 12.4243 17.2324 12.587 17.683 12.797C17.8841 12.8906 18.1162 12.8905 18.3172 12.7967C18.7641 12.588 19.1957 12.4264 19.6419 12.3308C19.9673 12.2637 20.2984 12.2402 20.6284 12.2584C20.934 12.2753 21.2192 12.1048 21.349 11.8276C21.4704 11.5683 21.5656 11.2969 21.6327 11.0177C21.7505 10.527 21.7504 10.0148 21.7502 9.2445L21.7502 4.17272C21.7502 3.63806 21.7502 3.1918 21.7204 2.82727C21.6893 2.44711 21.6221 2.09021 21.4501 1.75276C21.1861 1.23508 20.765 0.814316 20.247 0.550848Z" fill="#353566"/>
<path d="M15.75 8C14.7835 8 14 7.2165 14 6.25C14 5.2835 14.7835 4.5 15.75 4.5C16.7165 4.5 17.5 5.2835 17.5 6.25C17.5 7.2165 16.7165 8 15.75 8Z" fill="#353566"/>
<path d="M9.53033 15.5303C9.23744 15.8232 8.76256 15.8232 8.46967 15.5303L6.46967 13.5303C6.17678 13.2374 6.17678 12.7626 6.46967 12.4697C6.76256 12.1768 7.23744 12.1768 7.53033 12.4697L9.53033 14.4697C9.82322 14.7626 9.82322 15.2374 9.53033 15.5303Z" fill="#353566"/>
<path d="M19.9021 13.5517C20.847 13.3556 22.0491 13.7049 22.8641 14.8092C23.7044 15.9477 23.7815 17.9092 22.6739 19.4463C21.902 20.5175 20.3335 21.9543 19.326 22.8349C19.3023 22.8557 19.2786 22.8766 19.2549 22.8976C19.006 23.1173 18.7484 23.3448 18.425 23.4404C18.1559 23.5199 17.8441 23.5199 17.5751 23.4404C17.2517 23.3448 16.994 23.1173 16.7451 22.8976C16.7214 22.8766 16.6977 22.8557 16.6741 22.8349C15.6666 21.9544 14.098 20.5175 13.3262 19.4463C12.2186 17.9092 12.2957 15.9478 13.136 14.8092C13.951 13.7049 15.153 13.3556 16.0979 13.5517L16.0999 13.5521C16.8341 13.7076 17.4857 14.0554 18 14.6007C18.5143 14.0554 19.166 13.7076 19.9002 13.5521L19.9021 13.5517Z" fill="#353566"/>
</g>
<defs>
<clipPath id="clip0_9001_291461">
<rect width="24" height="24" fill="white"/>
</clipPath>
</defs>
</svg>
