<svg width="24" height="24" viewBox="0 0 24 24" fill="none" xmlns="http://www.w3.org/2000/svg">
<path opacity="0.4" d="M16.4326 2.25H6.56739C5.61495 2.24999 4.85439 2.24999 4.24013 2.30018C3.61012 2.35165 3.06824 2.45963 2.57054 2.71322C1.77085 3.12068 1.12068 3.77085 0.713223 4.57054C0.459634 5.06824 0.35165 5.61012 0.300176 6.24013C0.249989 6.8544 0.249994 7.61494 0.25 8.56738V8.76121C0.25 9.14934 0.546124 9.47335 0.932687 9.50818C1.95126 9.59997 2.75 10.4571 2.75 11.5C2.75 12.5429 1.95126 13.4 0.932687 13.4918C0.546124 13.5267 0.25 13.8507 0.25 14.2388V14.4326C0.249994 15.3851 0.249989 16.1456 0.300176 16.7599C0.35165 17.3899 0.459634 17.9318 0.713223 18.4295C1.12068 19.2291 1.77085 19.8793 2.57054 20.2868C3.06824 20.5404 3.61012 20.6483 4.24013 20.6998C4.85438 20.75 5.6149 20.75 6.5673 20.75H11.0703C11.3383 20.75 11.586 20.6069 11.7199 20.3747C11.8539 20.1425 11.8537 19.8565 11.7195 19.6245C11.103 18.5588 10.75 17.3218 10.75 16C10.75 11.9959 13.9959 8.75 18 8.75C19.1621 8.75 20.2583 9.02285 21.23 9.5073C21.3914 9.58775 21.5763 9.60737 21.751 9.56257C21.8533 9.53633 21.9589 9.51796 22.0673 9.50818C22.4539 9.47335 22.75 9.14934 22.75 8.76121V8.56737C22.75 7.61496 22.75 6.85438 22.6998 6.24013C22.6483 5.61012 22.5404 5.06824 22.2868 4.57054C21.8793 3.77085 21.2291 3.12068 20.4295 2.71322C19.9318 2.45963 19.3899 2.35165 18.7599 2.30018C18.1456 2.24999 17.3851 2.24999 16.4326 2.25Z" fill="#353566"/>
<path d="M9.25 6V2.25H7.75V6C7.75 6.41421 8.08579 6.75 8.5 6.75C8.91421 6.75 9.25 6.41421 9.25 6Z" fill="#353566"/>
<path d="M9.25 10C9.25 9.58579 8.91421 9.25 8.5 9.25C8.08579 9.25 7.75 9.58579 7.75 10V13C7.75 13.4142 8.08579 13.75 8.5 13.75C8.91421 13.75 9.25 13.4142 9.25 13V10Z" fill="#353566"/>
<path d="M9.25 17C9.25 16.5858 8.91421 16.25 8.5 16.25C8.08579 16.25 7.75 16.5858 7.75 17V20.75H9.25V17Z" fill="#353566"/>
<path fill-rule="evenodd" clip-rule="evenodd" d="M23.75 16C23.75 12.8244 21.1756 10.25 18 10.25C14.8244 10.25 12.25 12.8244 12.25 16C12.25 19.1756 14.8244 21.75 18 21.75C21.1756 21.75 23.75 19.1756 23.75 16ZM18 11.75C20.3472 11.75 22.25 13.6528 22.25 16C22.25 16.9027 21.9686 17.7397 21.4886 18.428L15.572 12.5114C16.2603 12.0314 17.0973 11.75 18 11.75ZM18 20.25C18.9027 20.25 19.7397 19.9686 20.428 19.4886L14.5114 13.572C14.0314 14.2603 13.75 15.0973 13.75 16C13.75 18.3472 15.6528 20.25 18 20.25Z" fill="#353566"/>
</svg>
