<svg width="24" height="24" viewBox="0 0 24 24" fill="none" xmlns="http://www.w3.org/2000/svg">
<g clip-path="url(#clip0_9001_289641)">
<path opacity="0.4" d="M18.5215 4.99522C18.2377 4.85063 17.9428 4.79714 17.6463 4.77292C17.3653 4.74997 17.0243 4.74998 16.6289 4.75L3.37106 4.75012C2.97571 4.75011 2.63464 4.7501 2.35371 4.77305C2.0572 4.79728 1.76229 4.85077 1.47851 4.99537C1.05515 5.21108 0.710947 5.55529 0.495235 5.97865C0.350641 6.26244 0.297154 6.55735 0.272929 6.85385C0.249977 7.13477 0.249988 7.47583 0.250001 7.87118V15.4328C0.249995 16.3852 0.249991 17.1458 0.300177 17.76C0.351651 18.39 0.459635 18.9319 0.713224 19.4296C1.12069 20.2293 1.77085 20.8795 2.57054 21.2869C3.06824 21.5405 3.61012 21.6485 4.24013 21.7C4.85438 21.7502 5.6149 21.7502 6.56731 21.7501H11.4991C11.8011 21.7501 12.0736 21.569 12.1905 21.2906C12.3075 21.0122 12.246 20.6907 12.0346 20.4751L11.7504 20.1851C11.4254 19.8537 11.2454 19.4067 11.2501 18.9425C11.2547 18.4784 11.4436 18.0351 11.7751 17.7102L13.7751 15.7502C14.2835 15.2519 15.0201 15.1252 15.6458 15.3727L16.1653 15.5783C16.3637 15.6569 16.5862 15.6472 16.777 15.5517C16.9678 15.4562 17.1089 15.2839 17.165 15.0781L17.3118 14.5389C17.5226 13.765 18.2267 13.2488 18.9994 13.2494C19.1984 13.2496 19.3894 13.1706 19.5301 13.03C19.6709 12.8893 19.75 12.6984 19.75 12.4994V7.87108C19.75 7.47576 19.75 7.13463 19.7271 6.85372C19.7028 6.55721 19.6494 6.2623 19.5048 5.97851C19.289 5.55514 18.9448 5.21094 18.5215 4.99522Z" fill="#353566"/>
<path d="M10 0.250244C7.37665 0.250244 5.25 2.37689 5.25 5.00024V5.50024C5.25 5.91446 5.58579 6.25024 6 6.25024C6.41421 6.25024 6.75 5.91446 6.75 5.50024V5.00024C6.75 3.20532 8.20507 1.75024 10 1.75024C11.7949 1.75024 13.25 3.20532 13.25 5.00024V5.50024C13.25 5.91446 13.5858 6.25024 14 6.25024C14.4142 6.25024 14.75 5.91446 14.75 5.50024V5.00024C14.75 2.37689 12.6234 0.250244 10 0.250244Z" fill="#353566"/>
<path d="M6 8.50024C5.44772 8.50024 5 8.94796 5 9.50024C5 10.0525 5.44772 10.5002 6 10.5002C6.55228 10.5002 7.0001 10.0525 7.0001 9.50024C7.0001 8.94796 6.55228 8.50024 6 8.50024Z" fill="#353566"/>
<path d="M13 9.50024C13 8.94796 13.4477 8.50024 14 8.50024C14.5523 8.50024 15.0001 8.94796 15.0001 9.50024C15.0001 10.0525 14.5524 10.5002 14.0001 10.5002C13.4478 10.5002 13 10.0525 13 9.50024Z" fill="#353566"/>
<path d="M15.5249 17.5359C15.8208 17.246 15.8256 16.7711 15.5357 16.4753C15.2457 16.1795 14.7709 16.1747 14.4751 16.4646L12.4751 18.4246C12.333 18.5638 12.252 18.7538 12.25 18.9527C12.248 19.1517 12.3252 19.3432 12.4644 19.4853L14.4644 21.5253C14.7544 21.8211 15.2292 21.8258 15.525 21.5358C15.8208 21.2458 15.8255 20.771 15.5355 20.4752L14.0607 18.9709L15.5249 17.5359Z" fill="#353566"/>
<path d="M20.4641 16.4756C20.7538 16.1796 21.2287 16.1745 21.5247 16.4643L23.5247 18.4223C23.6668 18.5615 23.7479 18.7514 23.75 18.9504C23.752 19.1493 23.675 19.3409 23.5358 19.483L21.5358 21.525C21.246 21.821 20.7711 21.8259 20.4752 21.5361C20.1793 21.2462 20.1744 20.7714 20.4642 20.4755L21.9393 18.9694L20.4753 17.5362C20.1793 17.2464 20.1743 16.7716 20.4641 16.4756Z" fill="#353566"/>
<path d="M19.7276 15.1821C19.8281 14.7802 19.5837 14.373 19.1819 14.2726C18.7801 14.1721 18.3728 14.4164 18.2724 14.8183L16.2724 22.8183C16.1719 23.2201 16.4162 23.6273 16.8181 23.7278C17.2199 23.8282 17.6271 23.5839 17.7276 23.1821L19.7276 15.1821Z" fill="#353566"/>
</g>
<defs>
<clipPath id="clip0_9001_289641">
<rect width="24" height="24" fill="white"/>
</clipPath>
</defs>
</svg>
