<svg width="24" height="24" viewBox="0 0 24 24" fill="none" xmlns="http://www.w3.org/2000/svg">
<g opacity="0.4">
<path d="M12 3.25C10.7168 3.25 9.50429 3.56247 8.43666 4.11613C8.22437 4.22622 8.07731 4.43094 8.04075 4.66726C8.00419 4.90358 8.08251 5.14317 8.2516 5.31226L21.4699 18.5305C21.6235 18.6842 21.8363 18.7637 22.0531 18.7483C22.2699 18.733 22.4693 18.6244 22.5999 18.4507C23.3219 17.4896 23.75 16.2937 23.75 15C23.75 12.3791 21.9971 10.169 19.6 9.47575C18.8916 5.92521 15.7587 3.25 12 3.25Z" fill="#353566"/>
<path d="M7.10575 6.04509C6.95583 5.89517 6.74946 5.81571 6.53771 5.82637C6.32596 5.83703 6.12861 5.93681 5.99451 6.10103C4.90439 7.43592 4.25 9.14255 4.25 11C4.25 11.1031 4.25202 11.2057 4.25602 11.3079C1.98608 11.665 0.25 13.6298 0.25 16C0.25 18.6234 2.37665 20.75 5 20.75H18C18.6862 20.75 19.3459 20.6295 19.958 20.4078C20.1992 20.3205 20.379 20.1159 20.4347 19.8656C20.4904 19.6152 20.4143 19.3537 20.233 19.1723L7.10575 6.04509Z" fill="#353566"/>
</g>
<path d="M1.46967 1.46967C1.76256 1.17678 2.23744 1.17678 2.53033 1.46967L22.5303 21.4697C22.8232 21.7626 22.8232 22.2374 22.5303 22.5303C22.2374 22.8232 21.7626 22.8232 21.4697 22.5303L1.46967 2.53033C1.17678 2.23744 1.17678 1.76256 1.46967 1.46967Z" fill="#353566"/>
</svg>
