<svg width="24" height="24" viewBox="0 0 24 24" fill="none" xmlns="http://www.w3.org/2000/svg">
<path opacity="0.4" d="M12 3.25C7.71979 3.25 4.25 6.71979 4.25 11C4.25 11.1031 4.25202 11.2057 4.25602 11.3079C1.98608 11.665 0.25 13.6298 0.25 16C0.25 18.6234 2.37665 20.75 5 20.75H18C21.1756 20.75 23.75 18.1756 23.75 15C23.75 12.3791 21.9971 10.169 19.6 9.47575C18.8916 5.92521 15.7587 3.25 12 3.25Z" fill="#353566"/>
<path d="M15.5303 9.46967C15.8232 9.76256 15.8232 10.2374 15.5303 10.5303L9.53033 16.5303C9.23744 16.8232 8.76256 16.8232 8.46967 16.5303C8.17678 16.2374 8.17678 15.7626 8.46967 15.4697L14.4697 9.46967C14.7626 9.17678 15.2374 9.17678 15.5303 9.46967Z" fill="#353566"/>
<path d="M8.5 10.5C8.5 9.94772 8.94772 9.5 9.5 9.5C10.0523 9.5 10.5001 9.94772 10.5001 10.5C10.5001 11.0523 10.0524 11.5 9.5001 11.5C8.94782 11.5 8.5 11.0523 8.5 10.5Z" fill="#353566"/>
<path d="M14.5 14.5C13.9477 14.5 13.5 14.9477 13.5 15.5C13.5 16.0523 13.9477 16.5 14.5 16.5C15.0523 16.5 15.5001 16.0523 15.5001 15.5C15.5001 14.9477 15.0523 14.5 14.5 14.5Z" fill="#353566"/>
</svg>
