<svg width="24" height="24" viewBox="0 0 24 24" fill="none" xmlns="http://www.w3.org/2000/svg">
<path opacity="0.4" d="M15.75 1.25H10.3682C9.62513 1.24999 9.02197 1.24999 8.53273 1.28996C8.02778 1.33121 7.57851 1.41876 7.16103 1.63148C6.50247 1.96703 5.96703 2.50247 5.63148 3.16103C5.41876 3.57851 5.33121 4.02778 5.28996 4.53273C5.24999 5.02197 5.24999 5.62512 5.25 6.3682V17.6318C5.24999 18.3749 5.24999 18.978 5.28996 19.4673C5.33121 19.9722 5.41876 20.4215 5.63148 20.839C5.96703 21.4975 6.50247 22.033 7.16103 22.3685C7.57851 22.5812 8.02778 22.6688 8.53273 22.71C9.02195 22.75 9.62507 22.75 10.3681 22.75H17.6318C18.3748 22.75 18.9781 22.75 19.4673 22.71C19.9722 22.6688 20.4215 22.5812 20.839 22.3685C21.4975 22.033 22.033 21.4975 22.3685 20.839C22.5812 20.4215 22.6688 19.9722 22.71 19.4673C22.75 18.9781 22.75 18.3749 22.75 17.6319V8.25C22.75 8.05109 22.671 7.86032 22.5303 7.71967L16.2803 1.46967C16.1397 1.32902 15.9489 1.25 15.75 1.25Z" fill="#353566"/>
<path d="M22.5303 7.71962C22.671 7.86027 22.75 8.05103 22.75 8.24995L17.75 8.24994C16.6454 8.24994 15.75 7.35452 15.75 6.24996V1.25C15.9489 1.25 16.1397 1.32902 16.2803 1.46967L22.5303 7.71962Z" fill="#353566"/>
<path d="M11.7276 9.81812C11.6515 9.51363 11.3938 9.28875 11.0818 9.2545C10.7699 9.22025 10.4695 9.38389 10.3292 9.66461L8.53647 13.25H2C1.58579 13.25 1.25 13.5858 1.25 14C1.25 14.4142 1.58579 14.75 2 14.75H9C9.28408 14.75 9.54378 14.5895 9.67082 14.3354L10.7641 12.1488L12.2724 18.1819C12.3485 18.4864 12.6062 18.7113 12.9182 18.7455C13.2301 18.7798 13.5305 18.6162 13.6708 18.3354L15.4635 14.75H18C18.4142 14.75 18.75 14.4142 18.75 14C18.75 13.5858 18.4142 13.25 18 13.25H15C14.7159 13.25 14.4562 13.4105 14.3292 13.6646L13.2359 15.8512L11.7276 9.81812Z" fill="#353566"/>
</svg>
