<svg width="24" height="24" viewBox="0 0 24 24" fill="none" xmlns="http://www.w3.org/2000/svg">
<path opacity="0.4" d="M13.75 1.25H8.36821C7.62513 1.24999 7.02197 1.24999 6.53273 1.28996C6.02778 1.33121 5.57851 1.41876 5.16103 1.63148C4.50247 1.96703 3.96703 2.50247 3.63148 3.16103C3.41876 3.57851 3.33121 4.02778 3.28996 4.53273C3.24999 5.02197 3.24999 5.62512 3.25 6.3682V17.6318C3.24999 18.3749 3.24999 18.978 3.28996 19.4673C3.33121 19.9722 3.41876 20.4215 3.63148 20.839C3.96703 21.4975 4.50247 22.033 5.16103 22.3685C5.57851 22.5812 6.02778 22.6688 6.53273 22.71C7.02195 22.75 7.62507 22.75 8.36811 22.75H15.6318C16.3748 22.75 16.9781 22.75 17.4673 22.71C17.9722 22.6688 18.4215 22.5812 18.839 22.3685C19.4975 22.033 20.033 21.4975 20.3685 20.839C20.5812 20.4215 20.6688 19.9722 20.71 19.4673C20.75 18.9781 20.75 18.3749 20.75 17.6319V8.25C20.75 8.05109 20.671 7.86032 20.5303 7.71967L14.2803 1.46967C14.1397 1.32902 13.9489 1.25 13.75 1.25Z" fill="#353566"/>
<path d="M20.5303 7.71962C20.671 7.86027 20.75 8.05103 20.75 8.24995L15.75 8.24994C14.6454 8.24994 13.75 7.35452 13.75 6.24996V1.25C13.9489 1.25 14.1397 1.32902 14.2803 1.46967L20.5303 7.71962Z" fill="#353566"/>
<path d="M16.0303 12.7803C16.3232 12.4874 16.3232 12.0126 16.0303 11.7197C15.7374 11.4268 15.2626 11.4268 14.9697 11.7197L11 15.6893L9.03033 13.7197C8.73744 13.4268 8.26256 13.4268 7.96967 13.7197C7.67678 14.0126 7.67678 14.4874 7.96967 14.7803L10.4697 17.2803C10.7626 17.5732 11.2374 17.5732 11.5303 17.2803L16.0303 12.7803Z" fill="#353566"/>
</svg>
