<svg width="24" height="24" viewBox="0 0 24 24" fill="none" xmlns="http://www.w3.org/2000/svg">
<path opacity="0.4" d="M11.75 1.25H6.36821C5.62513 1.24999 5.02197 1.24999 4.53273 1.28996C4.02778 1.33121 3.57851 1.41876 3.16103 1.63148C2.50247 1.96703 1.96703 2.50247 1.63148 3.16103C1.41876 3.57851 1.33121 4.02778 1.28996 4.53273C1.24999 5.02197 1.24999 5.62512 1.25 6.3682V17.6318C1.24999 18.3749 1.24999 18.978 1.28996 19.4673C1.33121 19.9722 1.41876 20.4215 1.63148 20.839C1.96703 21.4975 2.50247 22.033 3.16103 22.3685C3.56149 22.5726 3.99072 22.6613 4.47009 22.7047C4.94076 22.7472 5.51395 22.7497 6.21312 22.75C6.45663 22.7501 6.68502 22.6319 6.82566 22.4331C6.96629 22.2343 7.00166 21.9796 6.92051 21.75C6.8103 21.4382 6.75 21.102 6.75 20.75V20.5C6.75 19.5335 7.5335 18.75 8.5 18.75C8.91421 18.75 9.25 18.4142 9.25 18V16C9.25 15.0335 10.0335 14.25 11 14.25C11.4678 14.25 11.8914 14.4326 12.206 14.7319C12.4624 14.9759 12.8545 15.0074 13.1466 14.8075C13.6605 14.4557 14.2815 14.25 14.9528 14.25H16C16.3201 14.25 16.618 14.3353 16.8747 14.4838C17.1069 14.6182 17.3931 14.6183 17.6254 14.4843C17.7941 14.3868 17.9711 14.3212 18.15 14.2847C18.4992 14.2134 18.75 13.9062 18.75 13.5498V8.25C18.75 8.05109 18.671 7.86032 18.5303 7.71967L12.2803 1.46967C12.1397 1.32902 11.9489 1.25 11.75 1.25Z" fill="#353566"/>
<path d="M18.5303 7.71962C18.671 7.86027 18.75 8.05103 18.75 8.24995L13.75 8.24994C12.6454 8.24994 11.75 7.35452 11.75 6.24996V1.25C11.9489 1.25 12.1397 1.32902 12.2803 1.46967L18.5303 7.71962Z" fill="#353566"/>
<path d="M19.1478 15.6221C18.9391 15.2643 18.4799 15.1435 18.1221 15.3522C17.7643 15.5609 17.6435 16.0201 17.8522 16.3779L19.3817 19L17.8522 21.6221C17.6435 21.9799 17.7643 22.4391 18.1221 22.6478C18.4799 22.8565 18.9391 22.7357 19.1478 22.3779L20.25 20.4885L21.3522 22.3779C21.5609 22.7357 22.0201 22.8565 22.3779 22.6478C22.7357 22.4391 22.8565 21.9799 22.6478 21.6221L21.1183 19L22.6478 16.3779C22.8565 16.0201 22.7357 15.5609 22.3779 15.3522C22.0201 15.1435 21.5609 15.2643 21.3522 15.6221L20.25 17.5115L19.1478 15.6221Z" fill="#353566"/>
<path d="M11 15.25C10.5858 15.25 10.25 15.5858 10.25 16V20.75C10.25 21.0261 10.0261 21.25 9.75 21.25C9.47386 21.25 9.25 21.0261 9.25 20.75V20.5C9.25 20.0858 8.91421 19.75 8.5 19.75C8.08579 19.75 7.75 20.0858 7.75 20.5V20.75C7.75 21.8546 8.64543 22.75 9.75 22.75C10.8546 22.75 11.75 21.8546 11.75 20.75V16C11.75 15.5858 11.4142 15.25 11 15.25Z" fill="#353566"/>
<path d="M14.25 17.4528C14.25 17.0647 14.5647 16.75 14.9528 16.75H16C16.4142 16.75 16.75 16.4142 16.75 16C16.75 15.5858 16.4142 15.25 16 15.25H14.9528C13.7362 15.25 12.75 16.2362 12.75 17.4528C12.75 18.401 13.3567 19.2428 14.2562 19.5427L15.2694 19.8804C15.5564 19.976 15.75 20.2446 15.75 20.5472C15.75 20.9353 15.4353 21.25 15.0472 21.25H14C13.5858 21.25 13.25 21.5858 13.25 22C13.25 22.4142 13.5858 22.75 14 22.75H15.0472C16.2638 22.75 17.25 21.7638 17.25 20.5472C17.25 19.599 16.6433 18.7572 15.7438 18.4573L14.7306 18.1196C14.4436 18.024 14.25 17.7554 14.25 17.4528Z" fill="#353566"/>
</svg>
