<svg width="24" height="24" viewBox="0 0 24 24" fill="none" xmlns="http://www.w3.org/2000/svg">
<path opacity="0.4" d="M13.75 1.25H8.36821C7.62513 1.24999 7.02197 1.24999 6.53273 1.28996C6.02778 1.33121 5.57851 1.41876 5.16103 1.63148C4.50247 1.96703 3.96703 2.50247 3.63148 3.16103C3.41876 3.57851 3.33121 4.02778 3.28996 4.53273C3.24999 5.02197 3.24999 5.62512 3.25 6.3682V17.6318C3.24999 18.3749 3.24999 18.978 3.28996 19.4673C3.33121 19.9722 3.41876 20.4215 3.63148 20.839C3.96703 21.4975 4.50247 22.033 5.16103 22.3685C5.57851 22.5812 6.02778 22.6688 6.53273 22.71C7.02195 22.75 7.62507 22.75 8.36811 22.75H15.6318C16.3748 22.75 16.9781 22.75 17.4673 22.71C17.9722 22.6688 18.4215 22.5812 18.839 22.3685C19.4975 22.033 20.033 21.4975 20.3685 20.839C20.5812 20.4215 20.6688 19.9722 20.71 19.4673C20.75 18.9781 20.75 18.3749 20.75 17.6319V8.25C20.75 8.05109 20.671 7.86032 20.5303 7.71967L14.2803 1.46967C14.1397 1.32902 13.9489 1.25 13.75 1.25Z" fill="#353566"/>
<path d="M20.75 8.25007C20.75 8.05116 20.671 7.86039 20.5303 7.71974L14.2803 1.46979C14.1397 1.32914 13.9489 1.25012 13.75 1.25012V6.25008C13.75 7.35464 14.6454 8.25007 15.75 8.25007L20.75 8.25007Z" fill="#353566"/>
<path d="M15.0303 17.5303C14.7374 17.8232 14.2626 17.8232 13.9697 17.5303L12 15.5607L10.0303 17.5303C9.73744 17.8232 9.26256 17.8232 8.96967 17.5303C8.67678 17.2374 8.67678 16.7626 8.96967 16.4697L10.9393 14.5L8.96971 12.5304C8.67682 12.2375 8.67682 11.7626 8.96971 11.4697C9.2626 11.1768 9.73748 11.1768 10.0304 11.4697L12 13.4393L13.9696 11.4697C14.2625 11.1768 14.7374 11.1768 15.0303 11.4697C15.3232 11.7626 15.3232 12.2375 15.0303 12.5304L13.0607 14.5L15.0303 16.4697C15.3232 16.7626 15.3232 17.2374 15.0303 17.5303Z" fill="#353566"/>
</svg>
