<svg width="24" height="24" viewBox="0 0 24 24" fill="none" xmlns="http://www.w3.org/2000/svg">
<path opacity="0.4" d="M13.75 1.25H8.36821C7.62513 1.24999 7.02197 1.24999 6.53273 1.28996C6.02778 1.33121 5.57851 1.41876 5.16103 1.63148C4.50247 1.96703 3.96703 2.50247 3.63148 3.16103C3.41876 3.57851 3.33121 4.02778 3.28996 4.53273C3.24999 5.02197 3.24999 5.62512 3.25 6.3682V17.6318C3.24999 18.3749 3.24999 18.978 3.28996 19.4673C3.33121 19.9722 3.41876 20.4215 3.63148 20.839C3.96703 21.4975 4.50247 22.033 5.16103 22.3685C5.57851 22.5812 6.02778 22.6688 6.53273 22.71C7.02195 22.75 7.62507 22.75 8.36811 22.75H15.6318C16.3748 22.75 16.9781 22.75 17.4673 22.71C17.9722 22.6688 18.4215 22.5812 18.839 22.3685C19.4975 22.033 20.033 21.4975 20.3685 20.839C20.5812 20.4215 20.6688 19.9722 20.71 19.4673C20.75 18.9781 20.75 18.3749 20.75 17.6319V8.25C20.75 8.05109 20.671 7.86032 20.5303 7.71967L14.2803 1.46967C14.1397 1.32902 13.9489 1.25 13.75 1.25Z" fill="#353566"/>
<path d="M20.5305 7.71962C20.6711 7.86027 20.7501 8.05103 20.7501 8.24995L15.7501 8.24994C14.6456 8.24994 13.7501 7.35452 13.7501 6.24996V1.25C13.949 1.25 14.1398 1.32902 14.2805 1.46967L20.5305 7.71962Z" fill="#353566"/>
<path d="M12.4955 10.6311C12.2955 10.2162 11.7047 10.2162 11.5047 10.6311L10.5672 12.5759C10.5027 12.7097 10.3751 12.8019 10.2278 12.8211L8.07953 13.1014C7.61922 13.1615 7.43579 13.7297 7.77409 14.0476L9.33896 15.5181C9.44828 15.6208 9.49772 15.7721 9.47014 15.9196L9.07617 18.0257C8.99123 18.4798 9.47009 18.8299 9.87704 18.6113L11.7919 17.5825C11.9219 17.5127 12.0783 17.5127 12.2083 17.5825L14.1232 18.6113C14.5301 18.8299 15.009 18.4798 14.924 18.0257L14.5301 15.9196C14.5025 15.7721 14.5519 15.6208 14.6612 15.5181L16.2261 14.0476C16.5644 13.7297 16.381 13.1615 15.9207 13.1014L13.7724 12.8211C13.6251 12.8019 13.4975 12.7097 13.433 12.5759L12.4955 10.6311Z" fill="#353566"/>
</svg>
