<svg width="24" height="24" viewBox="0 0 24 24" fill="none" xmlns="http://www.w3.org/2000/svg">
<path opacity="0.4" d="M9.40393 2.81224C9.1426 2.7495 8.87354 2.74975 8.56837 2.75004L5.96858 2.75008C5.2952 2.75007 4.7445 2.75006 4.29693 2.78663C3.83367 2.82448 3.41527 2.90521 3.02453 3.10431C2.413 3.41589 1.91582 3.91308 1.60423 4.52461C1.40514 4.91535 1.3244 5.33375 1.28655 5.79701C1.24998 6.24457 1.24999 6.79527 1.25 7.46865V16.5315C1.24999 17.2049 1.24998 17.7556 1.28655 18.2031C1.3244 18.6664 1.40514 19.0848 1.60423 19.4755C1.91582 20.0871 2.413 20.5843 3.02453 20.8958C3.41527 21.0949 3.83367 21.1757 4.29693 21.2135C4.74449 21.2501 5.29519 21.2501 5.96856 21.2501H18.0314C18.7048 21.2501 19.2555 21.2501 19.7031 21.2135C20.1663 21.1757 20.5847 21.0949 20.9755 20.8958C21.587 20.5843 22.0842 20.0871 22.3958 19.4755C22.5949 19.0848 22.6756 18.6664 22.7134 18.2031C22.75 17.7556 22.75 17.2049 22.75 16.5315V9.46864C22.75 8.79527 22.75 8.24457 22.7134 7.79701C22.6756 7.33375 22.5949 6.91535 22.3958 6.52461C22.0842 5.91308 21.587 5.41589 20.9755 5.10431C20.5847 4.90521 20.1663 4.82448 19.7031 4.78663C19.2555 4.75006 18.7048 4.75007 18.0314 4.75008L12.4941 4.75008C12.0915 4.75008 12.0125 4.74526 11.9462 4.72935C11.8697 4.71098 11.7966 4.68068 11.7294 4.63956C11.6714 4.60396 11.612 4.55146 11.3274 4.2668L10.6891 3.62848C10.4735 3.41249 10.2835 3.22206 10.0543 3.08164C9.85299 2.95827 9.63351 2.86736 9.40393 2.81224Z" fill="#353566"/>
<path d="M10.5 11.25C10.5 10.4216 11.1716 9.75 12 9.75C12.8284 9.75 13.5 10.4216 13.5 11.25C13.5 11.6686 13.3295 12.046 13.0523 12.319C12.9035 12.4654 12.7672 12.5424 12.5585 12.6602C12.5133 12.6858 12.4645 12.7133 12.4116 12.7438C12.12 12.912 11.7508 13.1538 11.4875 13.6467C11.2924 14.012 11.4304 14.4664 11.7957 14.6616C12.1611 14.8567 12.6155 14.7187 12.8106 14.3533C12.8762 14.2305 12.9539 14.1626 13.1609 14.0433C13.1897 14.0267 13.2223 14.0086 13.258 13.9887C13.4725 13.8695 13.8007 13.6871 14.1046 13.3879C14.6565 12.8446 15 12.0867 15 11.25C15 9.59315 13.6569 8.25 12 8.25C10.3431 8.25 9 9.59315 9 11.25C9 11.4359 9.02058 11.6053 9.04768 11.7487C9.1246 12.1557 9.5169 12.4233 9.92391 12.3464C10.3309 12.2695 10.5985 11.8772 10.5216 11.4702C10.5086 11.4012 10.5 11.3262 10.5 11.25Z" fill="#353566"/>
<path d="M12 15.5C11.4477 15.5 11 15.9477 11 16.5C11 17.0523 11.4477 17.5 12 17.5C12.5523 17.5 13.0001 17.0523 13.0001 16.5C13.0001 15.9477 12.5523 15.5 12 15.5Z" fill="#353566"/>
</svg>
