<svg width="24" height="24" viewBox="0 0 24 24" fill="none" xmlns="http://www.w3.org/2000/svg">
<path opacity="0.4" d="M22.75 8.35V13.4C22.75 14.778 22.75 15.47 22.423 16.112C22.133 16.68 21.679 17.133 21.112 17.423C20.47 17.75 19.779 17.75 18.4 17.75H9.6C8.222 17.75 7.53 17.75 6.888 17.423C6.32 17.133 5.866 16.68 5.577 16.112C5.25 15.47 5.25 14.735 5.25 13.4V6.6C5.25 5.222 5.25 4.529 5.578 3.888C5.866 3.322 6.319 2.868 6.888 2.578C7.53 2.25 8.222 2.25 9.6 2.25H11.264C11.579 2.25 11.769 2.25 11.99 2.31C12.182 2.36 12.365 2.444 12.532 2.559C12.721 2.689 12.851 2.842 13.048 3.072L13.59 3.703C13.683 3.811 13.787 3.933 13.818 3.956C13.933 3.999 14.087 3.999 14.235 3.999H18.399C19.777 3.999 20.469 3.999 21.111 4.327C21.679 4.617 22.132 5.07 22.422 5.638C22.749 6.279 22.749 6.971 22.749 8.349L22.75 8.35Z" fill="#353566"/>
<path d="M13.25 13.5C13.25 13.9142 13.5858 14.25 14 14.25C14.4142 14.25 14.75 13.9142 14.75 13.5V11.25H17C17.4142 11.25 17.75 10.9142 17.75 10.5C17.75 10.0858 17.4142 9.75 17 9.75H14.75V7.5C14.75 7.08579 14.4142 6.75 14 6.75C13.5858 6.75 13.25 7.08579 13.25 7.5V9.75H11C10.5858 9.75 10.25 10.0858 10.25 10.5C10.25 10.9142 10.5858 11.25 11 11.25H13.25V13.5Z" fill="#353566"/>
<path d="M3.6 7.05004C3.84853 7.38141 3.78137 7.85151 3.45 8.10004C3.23729 8.25958 3.06264 8.46633 2.94074 8.70556C2.86735 8.8496 2.81184 9.04863 2.78157 9.41913C2.75058 9.79838 2.75 10.2876 2.75 11V17C2.75 17.7125 2.75058 18.2017 2.78157 18.581C2.81184 18.9515 2.86735 19.1505 2.94074 19.2945C3.10852 19.6238 3.37623 19.8915 3.70552 20.0593C3.84956 20.1327 4.04858 20.1882 4.41908 20.2185C4.79833 20.2495 5.28756 20.25 6 20.25H14C14.7124 20.25 15.2017 20.2495 15.5809 20.2185C15.9514 20.1882 16.1504 20.1327 16.2945 20.0593C16.5337 19.9374 16.7405 19.7628 16.9 19.55C17.1485 19.2187 17.6186 19.1515 17.95 19.4001C18.2814 19.6486 18.3485 20.1187 18.1 20.4501C17.8037 20.8451 17.4198 21.1694 16.9755 21.3958C16.5847 21.5949 16.1663 21.6756 15.7031 21.7135C15.2555 21.7501 14.7048 21.7501 14.0315 21.75H5.96856C5.29521 21.7501 4.74448 21.7501 4.29693 21.7135C3.83367 21.6756 3.41527 21.5949 3.02453 21.3958C2.413 21.0842 1.91582 20.587 1.60423 19.9755C1.40514 19.5848 1.3244 19.1664 1.28655 18.7031C1.24999 18.2556 1.24999 17.7049 1.25 17.0315V10.9686C1.24999 10.2953 1.24999 9.74454 1.28655 9.29698C1.3244 8.83372 1.40514 8.41532 1.60423 8.02458C1.83062 7.58025 2.155 7.1963 2.55 6.90005C2.88137 6.65152 3.35147 6.71867 3.6 7.05004Z" fill="#353566"/>
</svg>
