<svg width="24" height="24" viewBox="0 0 24 24" fill="none" xmlns="http://www.w3.org/2000/svg">
<path opacity="0.4" d="M9.40393 2.81224C9.1426 2.7495 8.87354 2.74975 8.56837 2.75004L5.96858 2.75008C5.2952 2.75007 4.7445 2.75006 4.29693 2.78663C3.83367 2.82448 3.41527 2.90521 3.02453 3.10431C2.413 3.41589 1.91582 3.91308 1.60423 4.52461C1.40514 4.91535 1.3244 5.33375 1.28655 5.79701C1.24998 6.24457 1.24999 6.79527 1.25 7.46865V16.5315C1.24999 17.2049 1.24998 17.7556 1.28655 18.2031C1.3244 18.6664 1.40514 19.0848 1.60423 19.4755C1.91582 20.0871 2.413 20.5843 3.02453 20.8958C3.41527 21.0949 3.83367 21.1757 4.29693 21.2135C4.74449 21.2501 5.29519 21.2501 5.96856 21.2501H18.0314C18.7048 21.2501 19.2555 21.2501 19.7031 21.2135C20.1663 21.1757 20.5847 21.0949 20.9755 20.8958C21.587 20.5843 22.0842 20.0871 22.3958 19.4755C22.5949 19.0848 22.6756 18.6664 22.7134 18.2031C22.75 17.7556 22.75 17.2049 22.75 16.5315V9.46864C22.75 8.79527 22.75 8.24457 22.7134 7.79701C22.6756 7.33375 22.5949 6.91535 22.3958 6.52461C22.0842 5.91308 21.587 5.41589 20.9755 5.10431C20.5847 4.90521 20.1663 4.82448 19.7031 4.78663C19.2555 4.75006 18.7048 4.75007 18.0314 4.75008L12.4941 4.75008C12.0915 4.75008 12.0125 4.74526 11.9462 4.72935C11.8697 4.71098 11.7966 4.68068 11.7294 4.63956C11.6714 4.60396 11.612 4.55146 11.3274 4.2668L10.6891 3.62848C10.4735 3.41249 10.2835 3.22206 10.0543 3.08164C9.85299 2.95827 9.63351 2.86736 9.40393 2.81224Z" fill="#353566"/>
<path d="M14.6339 7.99747C14.6739 7.88952 14.8265 7.88952 14.8665 7.99747L15.0446 8.47868C15.212 8.93122 15.5688 9.28803 16.0214 9.45548L16.5026 9.63355C16.6105 9.67349 16.6105 9.82618 16.5026 9.86613L16.0214 10.0442C15.5688 10.2116 15.212 10.5685 15.0446 11.021L14.8665 11.5022C14.8265 11.6102 14.6739 11.6102 14.6339 11.5022L14.4558 11.021C14.2884 10.5685 13.9316 10.2116 13.479 10.0442L12.9978 9.86613C12.8899 9.82618 12.8899 9.67349 12.9978 9.63355L13.479 9.45548C13.9316 9.28803 14.2884 8.93122 14.4558 8.47868L14.6339 7.99747Z" fill="#353566"/>
<path d="M11.6813 10.3255C11.3972 9.55784 10.3114 9.55784 10.0274 10.3255L9.75383 11.0648C9.50005 11.7506 8.95932 12.2913 8.27349 12.5451L7.53425 12.8186C6.76658 13.1027 6.76658 14.1885 7.53425 14.4725L8.27349 14.7461C8.95932 14.9999 9.50005 15.5406 9.75383 16.2264L10.0274 16.9657C10.3114 17.7333 11.3972 17.7333 11.6813 16.9657L11.9548 16.2264C12.2086 15.5406 12.7493 14.9999 13.4352 14.7461L14.1744 14.4725C14.9421 14.1885 14.9421 13.1027 14.1744 12.8186L13.4352 12.5451C12.7493 12.2913 12.2086 11.7506 11.9548 11.0648L11.6813 10.3255Z" fill="#353566"/>
</svg>
