<svg width="24" height="24" viewBox="0 0 24 24" fill="none" xmlns="http://www.w3.org/2000/svg">
<path d="M16.1464 17.6464C15.9512 17.8417 15.9512 18.1583 16.1464 18.3536C16.3417 18.5488 16.6583 18.5488 16.8536 18.3536L21.3536 13.8536C21.5488 13.6583 21.5488 13.3417 21.3536 13.1464L16.8536 8.64645C16.6583 8.45118 16.3417 8.45118 16.1464 8.64645C15.9512 8.84171 15.9512 9.15829 16.1464 9.35355L19.7929 13H8.6C7.61166 13 6.90047 12.9996 6.34192 12.954C5.78921 12.9088 5.43014 12.8219 5.13803 12.673C4.57354 12.3854 4.1146 11.9265 3.82698 11.362C3.67814 11.0699 3.59118 10.7108 3.54602 10.1581C3.50039 9.59953 3.5 8.88834 3.5 7.9V6C3.5 5.72386 3.27614 5.5 3 5.5C2.72386 5.5 2.5 5.72386 2.5 6V7.92245C2.5 8.88354 2.49999 9.63549 2.54935 10.2395C2.59956 10.8541 2.70333 11.3594 2.93597 11.816C3.31947 12.5686 3.93139 13.1805 4.68404 13.564C5.14062 13.7967 5.64594 13.9004 6.26049 13.9507C6.8645 14 7.61644 14 8.5775 14H19.7929L16.1464 17.6464Z" fill="#353566"/>
</svg>
