<svg width="24" height="24" viewBox="0 0 24 24" fill="none" xmlns="http://www.w3.org/2000/svg">
<path d="M7.85355 5.35355C8.04882 5.15829 8.04882 4.84171 7.85355 4.64645C7.65829 4.45118 7.34171 4.45118 7.14645 4.64645L2.64645 9.14645C2.45118 9.34171 2.45118 9.65829 2.64645 9.85355L7.14645 14.3536C7.34171 14.5488 7.65829 14.5488 7.85355 14.3536C8.04882 14.1583 8.04882 13.8417 7.85355 13.6464L4.20711 10H16.25C18.5972 10 20.5 11.9028 20.5 14.25C20.5 16.5972 18.5972 18.5 16.25 18.5H9C8.72386 18.5 8.5 18.7239 8.5 19C8.5 19.2761 8.72386 19.5 9 19.5H16.25C19.1495 19.5 21.5 17.1495 21.5 14.25C21.5 11.3505 19.1495 9 16.25 9H4.20711L7.85355 5.35355Z" fill="#353566"/>
</svg>
