<svg width="24" height="24" viewBox="0 0 24 24" fill="none" xmlns="http://www.w3.org/2000/svg">
<path d="M15.8536 5.85355C16.0488 5.65829 16.0488 5.34171 15.8536 5.14645L12.3536 1.64645C12.2598 1.55268 12.1326 1.5 12 1.5C11.8674 1.5 11.7402 1.55268 11.6465 1.64645L8.14648 5.14645C7.95121 5.34171 7.95121 5.65829 8.14648 5.85355C8.34174 6.04882 8.65832 6.04882 8.85358 5.85355L11.5 3.20711V15.5C11.5 15.7761 11.7239 16 12 16C12.2762 16 12.5 15.7761 12.5 15.5V3.20711L15.1465 5.85355C15.3417 6.04882 15.6583 6.04882 15.8536 5.85355Z" fill="#353566"/>
<path d="M6.88305 8.50001L7.00002 8.50002V9.50002C5.56173 9.50002 4.97009 9.5071 4.50919 9.66837C3.64745 9.96991 2.96991 10.6474 2.66837 11.5092C2.5071 11.9701 2.50002 12.5617 2.50002 14V16.4C2.50002 17.3884 2.50041 18.0996 2.54605 18.6581C2.59121 19.2108 2.67817 19.5699 2.827 19.862C3.11462 20.4265 3.57357 20.8854 4.13805 21.173C4.43016 21.3219 4.78923 21.4088 5.34195 21.454C5.9005 21.4996 6.61168 21.5 7.60002 21.5H16.4C17.3884 21.5 18.0996 21.4996 18.6581 21.454C19.2108 21.4088 19.5699 21.3219 19.862 21.173C20.4265 20.8854 20.8854 20.4265 21.173 19.862C21.3219 19.5699 21.4088 19.2108 21.454 18.6581C21.4996 18.0996 21.5 17.3884 21.5 16.4V14C21.5 12.5617 21.493 11.9701 21.3317 11.5092C21.0301 10.6474 20.3526 9.96991 19.4909 9.66837C19.03 9.5071 18.4383 9.50002 17 9.50002C16.7239 9.50002 16.5 9.27617 16.5 9.00002C16.5 8.72388 16.7239 8.50002 17 8.50002L17.117 8.50001C18.4014 8.49981 19.1787 8.49969 19.8211 8.72449C20.9701 9.12654 21.8735 10.0299 22.2756 11.1789C22.5004 11.8213 22.5002 12.5987 22.5 13.8831L22.5 16.4225C22.5 17.3836 22.5 18.1355 22.4507 18.7395C22.4005 19.3541 22.2967 19.8594 22.064 20.316C21.6806 21.0686 21.0686 21.6806 20.316 22.064C19.8594 22.2967 19.3541 22.4005 18.7395 22.4507C18.1355 22.5 17.3836 22.5 16.4226 22.5H7.57757C6.61653 22.5 5.86451 22.5 5.26051 22.4507C4.64596 22.4005 4.14064 22.2967 3.68406 22.064C2.93141 21.6806 2.31949 21.0686 1.936 20.316C1.70336 19.8594 1.59958 19.3541 1.54937 18.7395C1.50002 18.1355 1.50002 17.3836 1.50002 16.4225L1.50001 13.8831C1.49981 12.5987 1.49969 11.8213 1.72449 11.1789C2.12654 10.0299 3.02992 9.12654 4.17891 8.72449C4.82134 8.49969 5.59866 8.49981 6.88305 8.50001Z" fill="#353566"/>
</svg>
