<svg width="24" height="24" viewBox="0 0 24 24" fill="none" xmlns="http://www.w3.org/2000/svg">
<g opacity="0.4">
<path d="M12 7.25C11.0335 7.25 10.25 8.0335 10.25 9V15C10.25 15.4142 10.5858 15.75 11 15.75H22C22.4142 15.75 22.75 15.4142 22.75 15V11.5C22.75 9.15279 20.8472 7.25 18.5 7.25H12Z" fill="#353566"/>
<path d="M6.5 7.375C5.05025 7.375 3.875 8.55025 3.875 10C3.875 11.4497 5.05025 12.625 6.5 12.625C7.94975 12.625 9.125 11.4497 9.125 10C9.125 8.55025 7.94975 7.375 6.5 7.375Z" fill="#353566"/>
</g>
<path d="M2.75 6C2.75 5.58579 2.41421 5.25 2 5.25C1.58579 5.25 1.25 5.58579 1.25 6V18C1.25 18.4142 1.58579 18.75 2 18.75C2.41421 18.75 2.75 18.4142 2.75 18V15.75H21.25V18C21.25 18.4142 21.5858 18.75 22 18.75C22.4142 18.75 22.75 18.4142 22.75 18V14.25H2.75V6Z" fill="#353566"/>
</svg>
