<svg width="24" height="24" viewBox="0 0 24 24" fill="none" xmlns="http://www.w3.org/2000/svg">
<path opacity="0.4" d="M22.4477 3.39829C22.6379 3.5398 22.75 3.76293 22.75 4.00001V20C22.75 20.2371 22.6379 20.4602 22.4477 20.6017C22.2575 20.7432 22.0116 20.7865 21.7845 20.7184L2.75 15.0082V15.5C2.75 15.9142 2.41421 16.25 2 16.25C1.58579 16.25 1.25 15.9142 1.25 15.5V8.5C1.25 8.08579 1.58579 7.75 2 7.75C2.41421 7.75 2.75 8.08579 2.75 8.5V8.99212L21.7845 3.28164C22.0116 3.21351 22.2575 3.25677 22.4477 3.39829Z" fill="#353566"/>
<path d="M22.75 3.00024C22.75 2.58603 22.4142 2.25024 22 2.25024C21.5858 2.25024 21.25 2.58603 21.25 3.00024V3.44125L16 5.01629L16 18.9823L21.25 20.5573V21.0002C21.25 21.4145 21.5858 21.7502 22 21.7502C22.4142 21.7502 22.75 21.4145 22.75 21.0002V3.00024Z" fill="#353566"/>
<path d="M5.25 15.7581V17.9999C5.25 20.071 6.92893 21.7499 9 21.7499C11.0684 21.7499 12.7456 20.0753 12.75 18.008L11.25 17.558V17.9999C11.25 19.2426 10.2426 20.2499 9 20.2499C7.75736 20.2499 6.75 19.2425 6.75 17.9999V16.208L5.25 15.7581Z" fill="#353566"/>
</svg>
