<svg width="24" height="24" viewBox="0 0 24 24" fill="none" xmlns="http://www.w3.org/2000/svg">
<path opacity="0.4" d="M10.5 1.25C5.39137 1.25 1.25 5.39137 1.25 10.5C1.25 15.6086 5.39137 19.75 10.5 19.75C15.6086 19.75 19.75 15.6086 19.75 10.5C19.75 5.39137 15.6086 1.25 10.5 1.25Z" fill="#353566"/>
<path d="M10.9504 6.98306C10.7686 6.60591 10.2314 6.60591 10.0496 6.98306L9.19738 8.75106C9.13875 8.87268 9.02272 8.95652 8.88884 8.97399L6.93585 9.22883C6.51738 9.28344 6.35063 9.79994 6.65817 10.0889L8.08078 11.4258C8.18016 11.5191 8.22511 11.6567 8.20004 11.7908L7.84188 13.7054C7.76466 14.1183 8.2 14.4366 8.56995 14.2378L10.3107 13.3026C10.4289 13.239 10.5711 13.239 10.6893 13.3026L12.4301 14.2378C12.8 14.4366 13.2353 14.1183 13.1581 13.7054L12.8 11.7908C12.7749 11.6567 12.8198 11.5191 12.9192 11.4258L14.3418 10.0889C14.6494 9.79994 14.4826 9.28344 14.0641 9.22883L12.1112 8.97399C11.9773 8.95652 11.8612 8.87268 11.8026 8.75106L10.9504 6.98306Z" fill="#353566"/>
<path d="M17.5497 16.4893C17.2253 16.8707 16.8705 17.2255 16.489 17.5499L21.4697 22.5306C21.7626 22.8235 22.2374 22.8235 22.5303 22.5306C22.8232 22.2377 22.8232 21.7628 22.5303 21.4699L17.5497 16.4893Z" fill="#353566"/>
</svg>
