<svg width="24" height="24" viewBox="0 0 24 24" fill="none" xmlns="http://www.w3.org/2000/svg">
<path opacity="0.4" d="M10.5 1.25C5.39137 1.25 1.25 5.39137 1.25 10.5C1.25 15.6086 5.39137 19.75 10.5 19.75C15.6086 19.75 19.75 15.6086 19.75 10.5C19.75 5.39137 15.6086 1.25 10.5 1.25Z" fill="#353566"/>
<path fill-rule="evenodd" clip-rule="evenodd" d="M6.80286 10.9541C6.35342 11.2141 6.19971 11.7894 6.45897 12.2393L6.9754 13.1354C7.23478 13.5854 7.80958 13.7399 8.25923 13.4799C8.60734 13.2785 9.04359 13.5298 9.04359 13.934C9.04359 14.4534 9.46395 14.875 9.98327 14.875H11.0161C11.5354 14.875 11.9558 14.4533 11.9558 13.934C11.9558 13.5298 12.3921 13.2785 12.7402 13.4798C13.1898 13.7399 13.7646 13.5854 14.024 13.1353L14.5404 12.2392C14.7997 11.7894 14.646 11.214 14.1966 10.9541C13.8477 10.7523 13.8477 10.2476 14.1966 10.0458C14.646 9.78588 14.7997 9.21051 14.5404 8.76067L14.024 7.86456C13.7646 7.4145 13.1898 7.26002 12.7402 7.52009C12.3921 7.72142 11.9558 7.47013 11.9558 7.06596C11.9558 6.54663 11.5355 6.125 11.0162 6.125H9.98323C9.46393 6.125 9.04359 6.54662 9.04359 7.06594C9.04359 7.47009 8.60735 7.72138 8.25925 7.52005C7.8096 7.25998 7.23479 7.41445 6.9754 7.86452L6.45897 8.7606C6.19971 9.21045 6.35342 9.78584 6.80286 10.0458C7.15172 10.2476 7.15172 10.7523 6.80286 10.9541ZM11.7497 10.5C11.7497 11.1904 11.19 11.75 10.4997 11.75C9.80932 11.75 9.24968 11.1904 9.24968 10.5C9.24968 9.80965 9.80932 9.25 10.4997 9.25C11.19 9.25 11.7497 9.80965 11.7497 10.5Z" fill="#353566"/>
<path d="M17.5494 16.489C17.225 16.8705 16.8702 17.2253 16.4887 17.5497L21.4694 22.5303C21.7623 22.8232 22.2371 22.8232 22.53 22.5303C22.8229 22.2374 22.8229 21.7626 22.53 21.4697L17.5494 16.489Z" fill="#353566"/>
</svg>
