<svg width="24" height="24" viewBox="0 0 24 24" fill="none" xmlns="http://www.w3.org/2000/svg">
<path opacity="0.4" d="M1.25 14.5H22.75V13.5075C22.75 11.1603 20.8472 9.25747 18.5 9.25747H16.8833C16.7576 9.25747 16.6338 9.22585 16.5235 9.16551L11.3598 6.34196C11.086 6.1922 10.748 6.22773 10.5112 6.43117L7.85451 8.714C7.44642 9.06466 6.92618 9.25747 6.38813 9.25747H6.35616C5.50312 9.25747 4.72344 8.77506 4.3427 8.0117L3.84196 7.00772C3.61029 6.54323 3.13568 6.24988 2.61663 6.25036C1.86166 6.25105 1.25 6.86327 1.25 7.61824V14.5Z" fill="#353566"/>
<path d="M16.5235 9.16556C16.6115 9.21364 16.7079 9.24349 16.8071 9.25363L14.7804 11.2804C14.4875 11.5733 14.0126 11.5733 13.7197 11.2804C13.4268 10.9875 13.4268 10.5126 13.7197 10.2197L15.3924 8.54703L16.5235 9.16556Z" fill="#353566"/>
<path d="M11.4697 8.96971L13.1297 7.30975L14.5011 8.05966L12.5304 10.0304C12.2375 10.3233 11.7626 10.3233 11.4697 10.0304C11.1768 9.73748 11.1768 9.26261 11.4697 8.96971Z" fill="#353566"/>
<path d="M22.75 16.0002V14.5002H1.25V16.0002C1.25 16.9667 2.0335 17.7502 3 17.7502H21C21.9665 17.7502 22.75 16.9667 22.75 16.0002Z" fill="#353566"/>
</svg>
