<svg width="24" height="24" viewBox="0 0 24 24" fill="none" xmlns="http://www.w3.org/2000/svg">
<path d="M4.67818 1.9469C4.41291 1.82088 4.11578 1.75 3.8 1.75C2.66782 1.75 1.75 2.66782 1.75 3.8C1.75 4.11578 1.82088 4.41291 1.9469 4.67818C2.12463 5.05232 1.96541 5.49971 1.59127 5.67745C1.21713 5.85518 0.769742 5.69596 0.592007 5.32182C0.37247 4.85968 0.25 4.3431 0.25 3.8C0.25 1.83939 1.83939 0.25 3.8 0.25C4.3431 0.25 4.85969 0.372471 5.32182 0.592007C5.69596 0.769743 5.85518 1.21713 5.67745 1.59127C5.49971 1.96541 5.05232 2.12463 4.67818 1.9469Z" fill="#353566"/>
<path d="M18.2 1.75C17.8842 1.75 17.5871 1.82088 17.3218 1.9469C16.9477 2.12463 16.5003 1.96541 16.3225 1.59127C16.1448 1.21713 16.304 0.769743 16.6782 0.592007C17.1403 0.372471 17.6569 0.25 18.2 0.25C20.1606 0.25 21.75 1.83939 21.75 3.8C21.75 4.3431 21.6275 4.85968 21.408 5.32182C21.2302 5.69596 20.7829 5.85518 20.4087 5.67745C20.0346 5.49971 19.8754 5.05232 20.0531 4.67818C20.1791 4.41291 20.25 4.11578 20.25 3.8C20.25 2.66782 19.3322 1.75 18.2 1.75Z" fill="#353566"/>
<path fill-rule="evenodd" clip-rule="evenodd" d="M10.9999 1.75C5.61515 1.75 1.24993 6.11522 1.24993 11.5C1.24993 14.0498 2.22866 16.371 3.83097 18.1083L1.4696 20.4697C1.17671 20.7626 1.17671 21.2374 1.4696 21.5303C1.76249 21.8232 2.23737 21.8232 2.53026 21.5303L4.93002 19.1306C6.5366 20.4102 8.55645 21.1932 10.7572 21.247C11.0204 21.2535 11.2677 21.1214 11.4088 20.8991C11.5499 20.6767 11.564 20.3967 11.4461 20.1613C11.3244 19.9184 11.247 19.6233 11.247 19.25C11.247 18.5993 11.481 18.1538 11.8504 17.7995C12.2456 17.4206 12.8159 17.1294 13.4979 16.8777L13.499 16.8772C13.9026 16.7275 14.2188 16.4096 14.3707 16.0147C14.3842 15.9796 14.395 15.9435 14.4031 15.9068C14.6842 14.6302 15.6648 13.5982 17.0378 13.7757L17.2464 13.8027C17.4465 13.8285 17.6486 13.7727 17.807 13.6477C18.0641 13.4449 18.2978 13.2997 18.5533 13.2049C18.6284 13.1771 18.6985 13.1374 18.761 13.0874L18.9472 12.9384C19.0534 12.8534 19.1346 12.7411 19.1819 12.6135C19.3859 12.0632 19.7891 11.6252 20.2748 11.4065C20.5651 11.2758 20.7412 10.976 20.7141 10.6587C20.2871 5.66744 16.1014 1.75 10.9999 1.75ZM11.7499 6.5C11.7499 6.08579 11.4141 5.75 10.9999 5.75C10.5857 5.75 10.2499 6.08579 10.2499 6.5V11.5C10.2499 11.9142 10.5857 12.25 10.9999 12.25C11.4141 12.25 11.7499 11.9142 11.7499 11.5V6.5Z" fill="#353566"/>
<path d="M15.8478 15.6281C16.1577 14.7906 17.3422 14.7906 17.6521 15.6281L17.9505 16.4345C18.2273 17.1827 18.8172 17.7726 19.5654 18.0495L20.3718 18.3479C21.2093 18.6578 21.2093 19.8422 20.3718 20.1521L19.5654 20.4505C18.8172 20.7274 18.2273 21.3173 17.9505 22.0655L17.6521 22.8719C17.3422 23.7094 16.1577 23.7094 15.8478 22.8719L15.5494 22.0655C15.2725 21.3173 14.6826 20.7274 13.9345 20.4505L13.128 20.1521C12.2906 19.8422 12.2906 18.6578 13.128 18.3479L13.9345 18.0495C14.6826 17.7726 15.2725 17.1827 15.5494 16.4345L15.8478 15.6281Z" fill="#353566"/>
<path d="M21.1268 13.0883C21.0832 12.9706 20.9166 12.9706 20.8731 13.0883L20.6788 13.6133C20.4961 14.107 20.1069 14.4962 19.6132 14.6789L19.0883 14.8731C18.9705 14.9167 18.9705 15.0833 19.0883 15.1269L19.6132 15.3211C20.1069 15.5038 20.4961 15.893 20.6788 16.3867L20.8731 16.9117C20.9166 17.0294 21.0832 17.0294 21.1268 16.9117L21.321 16.3867C21.5037 15.893 21.893 15.5038 22.3867 15.3211L22.9116 15.1269C23.0294 15.0833 23.0294 14.9167 22.9116 14.8731L22.3867 14.6789C21.893 14.4962 21.5037 14.107 21.321 13.6133L21.1268 13.0883Z" fill="#353566"/>
</svg>
