<svg width="24" height="24" viewBox="0 0 24 24" fill="none" xmlns="http://www.w3.org/2000/svg">
<g clip-path="url(#clip0_9001_303649)">
<path d="M7 0.25C7.41421 0.25 7.75 0.585786 7.75 1V2.05C7.75 2.16046 7.83954 2.25 7.95 2.25H14.05C14.1605 2.25 14.25 2.16046 14.25 2.05V1C14.25 0.585786 14.5858 0.25 15 0.25C15.4142 0.25 15.75 0.585786 15.75 1V2.05021C15.75 2.16061 15.8395 2.25011 15.9499 2.25033C16.666 2.25177 17.2611 2.25943 17.7599 2.30018C18.3899 2.35165 18.9318 2.45963 19.4295 2.71322C20.2291 3.12068 20.8793 3.77085 21.2868 4.57054C21.5404 5.06824 21.6483 5.61012 21.6998 6.24013C21.7307 6.61759 21.7425 7.05031 21.7471 7.54885C21.7481 7.65973 21.6584 7.75 21.5475 7.75H0.452518C0.341629 7.75 0.25185 7.65973 0.252869 7.54885C0.257449 7.05031 0.269336 6.6176 0.300176 6.24013C0.35165 5.61012 0.459634 5.06824 0.713223 4.57054C1.12068 3.77085 1.77085 3.12068 2.57054 2.71322C3.06824 2.45963 3.61012 2.35165 4.24013 2.30018C4.73887 2.25943 5.33404 2.25177 6.05005 2.25033C6.16045 2.25011 6.25 2.16061 6.25 2.05021V1C6.25 0.585786 6.58579 0.25 7 0.25Z" fill="#353566"/>
<path fill-rule="evenodd" clip-rule="evenodd" d="M0.45 9.25C0.339543 9.25 0.25 9.33954 0.25 9.45V17.4326C0.249994 18.385 0.249989 19.1456 0.300176 19.7599C0.35165 20.3899 0.459634 20.9318 0.713223 21.4295C1.12068 22.2291 1.77085 22.8793 2.57054 23.2868C3.06824 23.5404 3.61012 23.6483 4.24013 23.6998C4.85438 23.75 5.6149 23.75 6.5673 23.75H11.7546C12.0431 23.75 12.3059 23.5846 12.4308 23.3246C12.5556 23.0645 12.5202 22.756 12.3398 22.5309C11.3447 21.2896 10.75 19.7153 10.75 18C10.75 13.9959 13.9959 10.75 18 10.75C18.9628 10.75 19.88 10.9373 20.7186 11.2767C20.9498 11.3703 21.2124 11.3428 21.4192 11.2034C21.626 11.064 21.75 10.8309 21.75 10.5815V9.45C21.75 9.33954 21.6605 9.25 21.55 9.25H0.45ZM5.5 13.5C5.5 12.9477 5.94772 12.5 6.5 12.5C7.05229 12.5 7.5001 12.9477 7.5001 13.5C7.5001 14.0523 7.05229 14.5 6.5 14.5C5.94772 14.5 5.5 14.0523 5.5 13.5ZM10 13.5C10 12.9477 10.4477 12.5 11 12.5C11.5523 12.5 12.0001 12.9477 12.0001 13.5C12.0001 14.0523 11.5524 14.5 11.0001 14.5C10.4478 14.5 10 14.0523 10 13.5ZM5.5 17.5C5.5 16.9477 5.94772 16.5 6.5 16.5C7.05229 16.5 7.5001 16.9477 7.5001 17.5C7.5001 18.0523 7.05229 18.5 6.5 18.5C5.94772 18.5 5.5 18.0523 5.5 17.5Z" fill="#353566"/>
<path fill-rule="evenodd" clip-rule="evenodd" d="M18 12.25C21.1756 12.25 23.75 14.8244 23.75 18C23.75 21.1756 21.1756 23.75 18 23.75C14.8244 23.75 12.25 21.1756 12.25 18C12.25 14.8244 14.8244 12.25 18 12.25ZM18 15.875C17.5168 15.875 17.125 16.2668 17.125 16.75C17.125 17.0952 16.8452 17.375 16.5 17.375C16.1548 17.375 15.875 17.0952 15.875 16.75C15.875 15.5764 16.8264 14.625 18 14.625C19.1736 14.625 20.125 15.5764 20.125 16.75C20.125 17.3427 19.8816 17.8796 19.4908 18.2643C19.2895 18.4625 19.0688 18.5982 18.9296 18.6837C18.9036 18.6997 18.8805 18.7139 18.8608 18.7264C18.7268 18.8121 18.6851 18.855 18.6507 18.9194C18.4881 19.2239 18.1094 19.3389 17.8049 19.1763C17.5005 19.0137 17.3855 18.635 17.5481 18.3306C17.7329 17.9845 17.9891 17.8001 18.1875 17.6733C18.233 17.6442 18.2733 17.6191 18.3099 17.5963C18.44 17.5152 18.5217 17.4643 18.6138 17.3736C18.7758 17.2141 18.875 16.9942 18.875 16.75C18.875 16.2668 18.4832 15.875 18 15.875ZM17.25 20.5C17.25 20.0858 17.5858 19.75 18 19.75C18.4142 19.75 18.7501 20.0858 18.7501 20.5C18.7501 20.9142 18.4142 21.25 18 21.25C17.5858 21.25 17.25 20.9142 17.25 20.5Z" fill="#353566"/>
</g>
<defs>
<clipPath id="clip0_9001_303649">
<rect width="24" height="24" fill="white"/>
</clipPath>
</defs>
</svg>
