<svg width="24" height="24" viewBox="0 0 24 24" fill="none" xmlns="http://www.w3.org/2000/svg">
<path fill-rule="evenodd" clip-rule="evenodd" d="M3.18547 2.75C3.07066 4.17673 3.02561 5.1022 3.19852 5.9719C3.45622 7.26813 4.06333 8.46926 4.95423 9.44545C5.64206 10.1991 6.5605 10.7642 8.1222 11.7251L8.56897 12L8.12219 12.2749C6.56049 13.2358 5.64206 13.8009 4.95423 14.5546C4.06333 15.5307 3.45622 16.7319 3.19851 18.0281C3.02561 18.8978 3.07067 19.8233 3.18547 21.25H2C1.58579 21.25 1.25 21.5858 1.25 22C1.25 22.4142 1.58579 22.75 2 22.75L10.7546 22.75C10.9429 22.75 11.115 22.6806 11.2467 22.566C11.3946 22.4373 11.4916 22.2515 11.5034 22.043C11.5042 22.0288 11.5046 22.0144 11.5046 22L11.4582 21.7396L11.4637 21.755L11.5044 21.9831C11.5027 21.9034 11.4885 21.8267 11.4637 21.755L10.1758 14.5456C10.4073 13.9018 10.7274 13.3004 11.1215 12.7558C11.2437 12.5867 11.2901 12.3744 11.2494 12.1698C11.246 12.1527 11.242 12.1358 11.2374 12.1191L11.8778 11.7251C13.4395 10.7642 14.3579 10.1991 15.0458 9.44545C15.9367 8.46926 16.5438 7.26813 16.8015 5.9719C16.9744 5.1022 16.9293 4.17673 16.8145 2.75H18C18.4142 2.75 18.75 2.41421 18.75 2C18.75 1.58579 18.4142 1.25 18 1.25H2C1.58579 1.25 1.25 1.58579 1.25 2C1.25 2.41421 1.58579 2.75 2 2.75H3.18547ZM10.1752 14.5471L9.94076 13.2327L10.1758 14.5456L10.1752 14.5471ZM10.1752 14.5471C9.89996 15.3129 9.75 16.1386 9.75 17C9.75 18.7132 10.3433 20.2858 11.3363 21.5265C11.3879 21.5898 11.4293 21.6616 11.4582 21.7396L10.1752 14.5471Z" fill="#353566"/>
<path fill-rule="evenodd" clip-rule="evenodd" d="M17 11.25C13.8244 11.25 11.25 13.8244 11.25 17C11.25 20.1756 13.8244 22.75 17 22.75C20.1756 22.75 22.75 20.1756 22.75 17C22.75 13.8244 20.1756 11.25 17 11.25ZM19.4419 15.3081C19.686 15.5521 19.686 15.9479 19.4419 16.1919L16.9419 18.6919C16.8244 18.8095 16.6649 18.8753 16.4987 18.875C16.3325 18.8747 16.1733 18.8081 16.0563 18.6901L14.5563 17.1778C14.3132 16.9327 14.3148 16.537 14.5599 16.2939C14.8049 16.0508 15.2007 16.0525 15.4437 16.2975L16.5018 17.3643L18.5581 15.3081C18.8021 15.064 19.1979 15.064 19.4419 15.3081Z" fill="#353566"/>
</svg>
