<svg width="24" height="24" viewBox="0 0 24 24" fill="none" xmlns="http://www.w3.org/2000/svg">
<path d="M18.75 2C18.75 2.41421 18.4142 2.75 18 2.75H16.8146C16.8809 3.57466 16.924 4.23184 16.9151 4.8076C16.9124 4.97892 16.9052 5.14304 16.8926 5.30221C16.8743 5.53356 16.8447 5.75447 16.8015 5.9719C16.5438 7.26813 15.9367 8.46926 15.0458 9.44545C14.3579 10.1991 13.4395 10.7642 11.8778 11.7251L11.4311 11.9999L11.8778 12.2748C13.4395 13.2357 14.358 13.8007 15.0458 14.5544C15.4909 15.0422 15.8652 15.5861 16.1605 16.17C16.2674 16.3814 16.2681 16.6308 16.1626 16.8428C16.057 17.0548 15.8575 17.2044 15.6244 17.2465C14.799 17.3955 14.115 17.6045 13.5359 18.0389C12.771 18.6126 12.25 19.487 12.25 20.4997C12.25 20.9302 12.3407 21.3241 12.5003 21.6786C12.5413 21.765 12.5663 21.8606 12.5715 21.9614C12.5721 21.9742 12.5724 21.9871 12.5724 22C12.5724 22.0039 12.5724 22.0077 12.5723 22.0116C12.5661 22.4205 12.2328 22.75 11.8224 22.75H2C1.58579 22.75 1.25 22.4142 1.25 22C1.25 21.5858 1.58579 21.25 2 21.25H3.18548C3.07067 19.8232 3.02561 18.8977 3.19851 18.028C3.45622 16.7317 4.06333 15.5306 4.95423 14.5544C5.64206 13.8007 6.5605 13.2357 8.1222 12.2748L8.56885 11.9999L8.1222 11.7251C6.5605 10.7642 5.64206 10.1991 4.95423 9.44545C4.06333 8.46926 3.45622 7.26813 3.19852 5.9719C3.07288 5.33995 3.06232 4.67855 3.10998 3.81679C3.11972 3.64083 3.13187 3.45652 3.14598 3.2624C3.15786 3.09885 3.17112 2.92834 3.18547 2.75H2C1.58579 2.75 1.25 2.41421 1.25 2C1.25 1.58579 1.58579 1.25 2 1.25H18C18.4142 1.25 18.75 1.58579 18.75 2Z" fill="#353566"/>
<path d="M21.6009 15.2197L18.5005 16.124V20.4907L18.5005 20.4996C18.5005 21.0641 18.2114 21.5879 17.7146 21.9604C17.2232 22.329 16.601 22.4998 16.0003 22.4998C15.3995 22.4998 14.7773 22.329 14.2859 21.9604C13.7891 21.5879 13.5 21.0641 13.5 20.4996C13.5 19.9352 13.7891 19.4114 14.2859 19.0388C14.7773 18.6703 15.3995 18.4995 16.0003 18.4995C16.5167 18.4995 17.049 18.6257 17.5005 18.8953V13.7088C17.5005 13.042 17.9405 12.4553 18.5806 12.2686L21.0609 11.5452C21.7809 11.3352 22.501 11.8752 22.501 12.6253V14.0196C22.501 14.5752 22.1343 15.0641 21.6009 15.2197Z" fill="#353566"/>
</svg>
