<svg width="24" height="24" viewBox="0 0 24 24" fill="none" xmlns="http://www.w3.org/2000/svg">
<g clip-path="url(#clip0_9001_305160)">
<path fill-rule="evenodd" clip-rule="evenodd" d="M10.75 3.27841V1.75H13C13.4142 1.75 13.75 1.41421 13.75 1C13.75 0.585786 13.4142 0.25 13 0.25H7C6.58579 0.25 6.25 0.585786 6.25 1C6.25 1.41421 6.58579 1.75 7 1.75H9.25V3.27842C4.21566 3.66139 0.25 7.86758 0.25 13C0.25 18.3848 4.61522 22.75 10 22.75C11.146 22.75 12.2473 22.552 13.2707 22.1877C13.4793 22.1134 13.6445 21.9506 13.7219 21.7431C13.7993 21.5355 13.7809 21.3044 13.6718 21.1116C13.4035 20.6377 13.2499 20.0895 13.2499 19.503C13.2499 19.4198 13.2494 19.3371 13.2489 19.2573L13.2488 19.2552C13.2434 18.4219 13.2625 17.9025 13.5922 17.4556C13.8131 17.1561 13.8893 16.774 13.8006 16.413C13.6552 15.8214 13.8256 15.188 14.2632 14.749L16.2632 12.743C16.8727 12.1317 17.8307 12.1038 18.5152 12.5746C18.7575 12.7412 19.0748 12.7509 19.3268 12.5993C19.5788 12.4476 19.7189 12.1627 19.6852 11.8706C19.4425 9.76777 18.531 7.86876 17.1689 6.39173L18.5303 5.03033C18.8232 4.73744 18.8232 4.26256 18.5303 3.96967C18.2374 3.67678 17.7626 3.67678 17.4697 3.96967L16.0699 5.3694C14.5876 4.18864 12.7535 3.4308 10.75 3.27841ZM10.75 8.5C10.75 8.08579 10.4142 7.75 10 7.75C9.58579 7.75 9.25 8.08579 9.25 8.5V13C9.25 13.4142 9.58579 13.75 10 13.75C10.4142 13.75 10.75 13.4142 10.75 13V8.5Z" fill="#353566"/>
<path d="M23 19.25C23.4142 19.25 23.75 18.9142 23.75 18.5V17.5C23.75 16.2574 22.7426 15.25 21.5 15.25H17.3106L18.0303 14.5303C18.3232 14.2374 18.3232 13.7626 18.0303 13.4697C17.7374 13.1768 17.2625 13.1768 16.9696 13.4697L14.9696 15.4697C14.7551 15.6842 14.6909 16.0068 14.807 16.287C14.9231 16.5673 15.1966 16.75 15.4999 16.75H21.5C21.9142 16.75 22.25 17.0858 22.25 17.5V18.5C22.25 18.9142 22.5858 19.25 23 19.25Z" fill="#353566"/>
<path d="M15 17.75C14.5858 17.75 14.25 18.0858 14.25 18.5V19.5C14.25 20.7426 15.2574 21.75 16.5 21.75H20.6893L19.9696 22.4697C19.6767 22.7626 19.6767 23.2374 19.9696 23.5303C20.2625 23.8232 20.7374 23.8232 21.0303 23.5303L23.0303 21.5303C23.2448 21.3158 23.309 20.9933 23.1929 20.713C23.0768 20.4327 22.8033 20.25 22.5 20.25H16.5C16.0858 20.25 15.75 19.9142 15.75 19.5V18.5C15.75 18.0858 15.4142 17.75 15 17.75Z" fill="#353566"/>
</g>
<defs>
<clipPath id="clip0_9001_305160">
<rect width="24" height="24" fill="white"/>
</clipPath>
</defs>
</svg>
