<svg width="24" height="24" viewBox="0 0 24 24" fill="none" xmlns="http://www.w3.org/2000/svg">
<g clip-path="url(#clip0_9001_303429)">
<path d="M1.75 12.0001C1.75 6.33914 6.33908 1.75006 12 1.75006C12.4142 1.75006 12.75 1.41427 12.75 1.00006C12.75 0.585847 12.4142 0.250061 12 0.250061C5.51065 0.250061 0.25 5.51072 0.25 12.0001C0.25 18.4894 5.51065 23.7501 12 23.7501C12.4142 23.7501 12.75 23.4143 12.75 23.0001C12.75 22.5858 12.4142 22.2501 12 22.2501C6.33908 22.2501 1.75 17.661 1.75 12.0001Z" fill="#353566"/>
<path d="M16.5406 0.889157C16.0294 0.680061 15.4455 0.924942 15.2364 1.43611C15.0274 1.94729 15.2722 2.53118 15.7834 2.74028C15.8129 2.75234 15.8423 2.76455 15.8717 2.77689C16.3808 2.9909 16.9671 2.75165 17.1811 2.24251C17.3951 1.73337 17.1558 1.14715 16.6467 0.933144C16.6114 0.918318 16.5761 0.903655 16.5406 0.889157Z" fill="#353566"/>
<path d="M20.4446 3.47426C20.0522 3.0856 19.419 3.08862 19.0304 3.481C18.6417 3.87337 18.6447 4.50653 19.0371 4.89519C19.0598 4.91768 19.0824 4.94027 19.1049 4.96297C19.4935 5.35535 20.1267 5.35836 20.5191 4.9697C20.9114 4.58104 20.9145 3.94788 20.5258 3.5555C20.4988 3.52829 20.4718 3.50121 20.4446 3.47426Z" fill="#353566"/>
<path d="M23.0669 7.35337C22.8529 6.84424 22.2667 6.60499 21.7575 6.819C21.2484 7.033 21.0092 7.61923 21.2232 8.12836C21.2355 8.15772 21.2477 8.18715 21.2598 8.21665C21.4689 8.72783 22.0528 8.97271 22.5639 8.76361C23.0751 8.55451 23.32 7.97062 23.1109 7.45945C23.0964 7.424 23.0817 7.38865 23.0669 7.35337Z" fill="#353566"/>
<path d="M23.9999 11.9424C23.9973 11.3901 23.5474 10.9445 22.9952 10.9471C22.4429 10.9497 21.9973 11.3995 21.9999 11.9518L22 12.0001L21.9999 12.0483C21.9973 12.6006 22.4429 13.0504 22.9952 13.053C23.5474 13.0556 23.9973 12.61 23.9999 12.0577L24 12.0001L23.9999 11.9424Z" fill="#353566"/>
<path d="M23.1109 16.5407C23.32 16.0295 23.0751 15.4456 22.5639 15.2365C22.0528 15.0274 21.4689 15.2723 21.2598 15.7835L21.2412 15.8286L21.2232 15.8718C21.0092 16.3809 21.2484 16.9671 21.7575 17.1811C22.2667 17.3951 22.8529 17.1559 23.0669 16.6468L23.0844 16.6049L23.1109 16.5407Z" fill="#353566"/>
<path d="M20.5258 20.4446C20.9145 20.0523 20.9114 19.4191 20.5191 19.0304C20.1267 18.6418 19.4935 18.6448 19.1049 19.0372L19.0619 19.0803L19.0371 19.1049C18.6447 19.4936 18.6417 20.1268 19.0304 20.5191C19.419 20.9115 20.0522 20.9145 20.4446 20.5259C20.4718 20.4989 20.4988 20.4718 20.5258 20.4446Z" fill="#353566"/>
<path d="M16.6467 23.067C17.1558 22.853 17.3951 22.2668 17.1811 21.7576C16.9671 21.2485 16.3808 21.0092 15.8717 21.2232C15.8423 21.2356 15.8129 21.2478 15.7834 21.2599C15.2722 21.469 15.0274 22.0528 15.2364 22.564C15.4455 23.0752 16.0294 23.3201 16.5406 23.111C16.5761 23.0965 16.6114 23.0818 16.6467 23.067Z" fill="#353566"/>
<path d="M6.71942 7.49854L6.57367 7.26131C6.45294 7.0642 6.48301 6.80995 6.64646 6.64651C6.8099 6.48307 7.06415 6.45302 7.26125 6.57376L7.49847 6.71952C7.64966 6.81257 7.8662 6.94611 8.12785 7.10816C8.65106 7.43221 9.35511 7.87059 10.0778 8.32751C10.7999 8.78408 11.5431 9.26067 12.1437 9.66073C12.4437 9.86058 12.711 10.0433 12.9236 10.1959C13.1255 10.3409 13.3078 10.4797 13.4141 10.586C14.1951 11.367 14.1951 12.6333 13.4141 13.4144C12.633 14.1954 11.3667 14.1954 10.5857 13.4144C10.4793 13.3081 10.3406 13.1258 10.1956 12.9239C10.043 12.7113 9.86029 12.4439 9.66045 12.1439C9.26042 11.5433 8.78385 10.8001 8.32731 10.078C7.87042 9.35525 7.43207 8.65117 7.10804 8.12795C6.94599 7.86628 6.81247 7.64973 6.71942 7.49854Z" fill="#353566"/>
</g>
<defs>
<clipPath id="clip0_9001_303429">
<rect width="24" height="24" fill="white"/>
</clipPath>
</defs>
</svg>
