<svg width="24" height="24" viewBox="0 0 24 24" fill="none" xmlns="http://www.w3.org/2000/svg">
<g clip-path="url(#clip0_9001_288169)">
<path opacity="0.4" d="M2 9.25C1.78342 9.25 1.57741 9.34363 1.43498 9.5068C1.29255 9.66996 1.22762 9.88674 1.25688 10.1013L2.19478 16.9792C2.29168 17.6899 2.37017 18.2655 2.4704 18.7308C2.57397 19.2116 2.71127 19.6298 2.9537 20.0113C3.34127 20.6212 3.89679 21.1061 4.55343 21.4077C4.96418 21.5964 5.39708 21.6759 5.88751 21.7136C6.36206 21.75 6.94296 21.75 7.66023 21.75H13.1265C13.3994 21.75 13.6508 21.6018 13.7829 21.3629C14.27 20.4819 15.0094 19.7454 15.9201 19.0902C16.083 18.973 16.1921 18.7954 16.2231 18.5971C16.254 18.3987 16.2042 18.1963 16.0847 18.035L15.783 17.6277C15.2907 16.9631 15 16.1423 15 15.25C15 13.0409 16.7909 11.25 19 11.25C19.2659 11.25 19.5251 11.2758 19.7753 11.3249C19.9779 11.3647 20.188 11.3191 20.3559 11.199C20.5239 11.0789 20.6349 10.8949 20.6628 10.6903L20.7431 10.1013C20.7724 9.88674 20.7075 9.66996 20.565 9.5068C20.4226 9.34363 20.2166 9.25 20 9.25H2Z" fill="#353566"/>
<path d="M9.11443 1.43016C9.35196 1.09082 9.26944 0.623176 8.9301 0.38564C8.59076 0.148105 8.12312 0.230631 7.88558 0.569968L4.60951 5.25006L2.57379 5.25006C2.3163 5.25004 2.07982 5.25002 1.88213 5.26618C1.669 5.28359 1.43583 5.32345 1.20552 5.4408C0.876236 5.60858 0.608521 5.87629 0.440742 6.20558C0.323395 6.43588 0.283532 6.66906 0.266119 6.88219C0.249968 7.07986 0.249984 7.31632 0.250001 7.57379V8.42628C0.249984 8.68375 0.249968 8.92026 0.266119 9.11793C0.283532 9.33107 0.323395 9.56424 0.440742 9.79455C0.60852 10.1238 0.876236 10.3915 1.20552 10.5593C1.43583 10.6767 1.669 10.7165 1.88213 10.7339C2.07981 10.7501 2.31629 10.7501 2.57377 10.7501H19.4262C19.6837 10.7501 19.9202 10.7501 20.1179 10.7339C20.331 10.7165 20.5642 10.6767 20.7945 10.5593C21.1238 10.3915 21.3915 10.1238 21.5593 9.79455C21.6766 9.56424 21.7165 9.33107 21.7339 9.11793C21.75 8.92025 21.75 8.68377 21.75 8.42629V7.57383C21.75 7.31635 21.75 7.07987 21.7339 6.88219C21.7165 6.66906 21.6766 6.43588 21.5593 6.20558C21.3915 5.87629 21.1238 5.60858 20.7945 5.4408C20.5642 5.32345 20.331 5.28359 20.1179 5.26618C19.9202 5.25002 19.6837 5.25004 19.4262 5.25006L17.3905 5.25006L14.1144 0.569968C13.8769 0.230631 13.4092 0.148105 13.0699 0.38564C12.7306 0.623176 12.648 1.09082 12.8856 1.43016L15.5595 5.25006H6.4405L9.11443 1.43016Z" fill="#353566"/>
<path d="M19 12.5C17.4812 12.5 16.25 13.7312 16.25 15.25C16.25 16.7688 17.4812 18 19 18C20.5188 18 21.75 16.7688 21.75 15.25C21.75 13.7312 20.5188 12.5 19 12.5Z" fill="#353566"/>
<path d="M19 19.5C16.921 19.5 15.0199 20.9168 14.5158 22.8754C14.4773 23.0251 14.5101 23.1842 14.6048 23.3063C14.6995 23.4285 14.8454 23.5 15 23.5H23C23.1546 23.5 23.3005 23.4285 23.3952 23.3063C23.4899 23.1842 23.5228 23.0251 23.4842 22.8754C22.9801 20.9168 21.0789 19.5 19 19.5Z" fill="#353566"/>
<path d="M7.75013 13.9998C7.75013 13.5855 7.41435 13.2498 7.00013 13.2498C6.58592 13.2498 6.25013 13.5855 6.25013 13.9998L6.25012 17.4998C6.25012 17.914 6.58591 18.2498 7.00012 18.2498C7.41433 18.2498 7.75012 17.914 7.75012 17.4998L7.75013 13.9998Z" fill="#353566"/>
<path d="M11.0002 13.2498C11.4144 13.2498 11.7502 13.5855 11.7502 13.9998L11.7502 17.4998C11.7502 17.914 11.4144 18.2498 11.0002 18.2498C10.586 18.2498 10.2502 17.914 10.2502 17.4998L10.2502 13.9998C10.2502 13.5855 10.586 13.2498 11.0002 13.2498Z" fill="#353566"/>
</g>
<defs>
<clipPath id="clip0_9001_288169">
<rect width="24" height="24" fill="white"/>
</clipPath>
</defs>
</svg>
