<svg width="24" height="24" viewBox="0 0 24 24" fill="none" xmlns="http://www.w3.org/2000/svg">
<path opacity="0.4" d="M3 10.25C2.78342 10.25 2.57741 10.3436 2.43498 10.5068C2.29255 10.67 2.22762 10.8867 2.25688 11.1013L3.19478 17.9792C3.29168 18.6899 3.37017 19.2655 3.4704 19.7308C3.57397 20.2116 3.71127 20.6298 3.9537 21.0113C4.34127 21.6212 4.89679 22.1061 5.55343 22.4077C5.96418 22.5964 6.39708 22.6759 6.88751 22.7136C7.36206 22.75 7.94296 22.75 8.66023 22.75H15.3398C16.057 22.75 16.638 22.75 17.1125 22.7136C17.6029 22.6759 18.0358 22.5964 18.4466 22.4077C19.1032 22.1061 19.6587 21.6212 20.0463 21.0113C20.2887 20.6298 20.426 20.2116 20.5296 19.7308C20.6298 19.2655 20.7083 18.6899 20.8052 17.9791L21.7431 11.1013C21.7724 10.8867 21.7075 10.67 21.565 10.5068C21.4226 10.3436 21.2166 10.25 21 10.25H3Z" fill="#353566"/>
<path fill-rule="evenodd" clip-rule="evenodd" d="M9.9301 1.38564C10.2694 1.62318 10.352 2.09082 10.1144 2.43016L7.4405 6.25006H16.5595L13.8856 2.43016C13.648 2.09082 13.7306 1.62318 14.0699 1.38564C14.4092 1.1481 14.8769 1.23063 15.1144 1.56997L18.3905 6.25006L20.4262 6.25006C20.6837 6.25004 20.9202 6.25002 21.1179 6.26618C21.331 6.28359 21.5642 6.32345 21.7945 6.4408C22.1238 6.60858 22.3915 6.87629 22.5593 7.20558C22.6766 7.43588 22.7165 7.66906 22.7339 7.88219C22.75 8.07987 22.75 8.31635 22.75 8.57383V9.42629C22.75 9.68377 22.75 9.92025 22.7339 10.1179C22.7165 10.3311 22.6766 10.5642 22.5593 10.7945C22.3915 11.1238 22.1238 11.3915 21.7945 11.5593C21.5642 11.6767 21.331 11.7165 21.1179 11.7339C20.9202 11.7501 20.6837 11.7501 20.4262 11.7501H3.57377C3.31629 11.7501 3.07981 11.7501 2.88213 11.7339C2.669 11.7165 2.43583 11.6767 2.20552 11.5593C1.87623 11.3915 1.60852 11.1238 1.44074 10.7945C1.32339 10.5642 1.28353 10.3311 1.26612 10.1179C1.24997 9.92025 1.24998 9.68377 1.25 9.42628V8.57384C1.24998 8.31636 1.24997 8.07987 1.26612 7.88219C1.28353 7.66906 1.32339 7.43588 1.44074 7.20558C1.60852 6.87629 1.87624 6.60858 2.20552 6.4408C2.43583 6.32345 2.669 6.28359 2.88213 6.26618C3.07982 6.25002 3.3163 6.25004 3.57379 6.25006L5.60951 6.25006L8.88558 1.56997C9.12311 1.23063 9.59076 1.1481 9.9301 1.38564Z" fill="#353566"/>
</svg>
