<svg width="24" height="24" viewBox="0 0 24 24" fill="none" xmlns="http://www.w3.org/2000/svg">
<path opacity="0.4" d="M14.2321 1.25H5.7679C4.95506 1.24999 4.29944 1.24999 3.76853 1.29336C3.2219 1.33803 2.74175 1.43239 2.29754 1.65873C1.59193 2.01825 1.01825 2.59193 0.658726 3.29754C0.432386 3.74175 0.338026 4.2219 0.293364 4.76853C0.249987 5.29944 0.249993 5.95505 0.25 6.76788V15.2321C0.249993 16.0449 0.249987 16.7006 0.293364 17.2315C0.338026 17.7781 0.432386 18.2582 0.658726 18.7025C1.01825 19.4081 1.59193 19.9817 2.29754 20.3413C2.74175 20.5676 3.2219 20.662 3.76853 20.7066C4.29944 20.75 4.95505 20.75 5.76788 20.75H13.0088C13.2407 20.75 13.4595 20.6427 13.6016 20.4594C13.7437 20.2761 13.7929 20.0374 13.7351 19.8128C13.6999 19.6763 13.6712 19.5293 13.6458 19.3692C13.5959 19.0539 13.352 18.8048 13.0378 18.7483C12.43 18.639 12.0254 18.4853 11.7179 18.1543C11.0601 17.4462 11.1008 16.339 11.8089 15.6811C13.4312 14.1739 15.6094 13.25 17.9993 13.25C18.3118 13.25 18.6204 13.2658 18.9245 13.2965C19.1355 13.3179 19.3456 13.2489 19.5029 13.1067C19.6602 12.9645 19.75 12.7624 19.75 12.5503V6.76788C19.75 5.95505 19.75 5.29944 19.7066 4.76853C19.662 4.2219 19.5676 3.74175 19.3413 3.29754C18.9817 2.59193 18.4081 2.01825 17.7025 1.65873C17.2582 1.43239 16.7781 1.33803 16.2315 1.29336C15.7006 1.24999 15.0449 1.24999 14.2321 1.25Z" fill="#353566"/>
<path d="M6.12497 1.25H13.875V9.94329C13.875 10.5904 13.1104 10.9338 12.6267 10.5038L9.99997 8.16898L7.37325 10.5038C6.88957 10.9338 6.12497 10.5904 6.12497 9.94329V1.25Z" fill="#353566"/>
<path d="M7.99997 16.25C8.41419 16.25 8.74997 15.9142 8.74997 15.5C8.74997 15.0858 8.41419 14.75 7.99997 14.75H5.5C5.08579 14.75 4.75 15.0858 4.75 15.5C4.75 15.9142 5.08579 16.25 5.5 16.25H7.99997Z" fill="#353566"/>
<path d="M13.5105 17.5127C14.6885 16.4182 16.265 15.75 17.9993 15.75C19.7342 15.75 21.3112 16.4187 22.4894 17.5138C22.7928 17.7958 23.2673 17.7785 23.5493 17.4751C23.8313 17.1717 23.814 16.6971 23.5106 16.4151C22.0659 15.0723 20.1278 14.25 17.9993 14.25C15.8716 14.25 13.934 15.0717 12.4895 16.4138C12.186 16.6957 12.1686 17.1702 12.4505 17.4737C12.7324 17.7772 13.207 17.7946 13.5105 17.5127Z" fill="#353566"/>
<path d="M18.0032 19.0835C17.2185 19.0835 16.5008 19.414 15.9697 19.9651C15.6822 20.2633 15.2074 20.2721 14.9092 19.9846C14.611 19.6972 14.6022 19.2224 14.8896 18.9241C15.6831 18.1009 16.7827 17.5835 18.0032 17.5835C19.2237 17.5835 20.3233 18.1009 21.1167 18.9241C21.4042 19.2224 21.3954 19.6972 21.0972 19.9846C20.7989 20.2721 20.3241 20.2633 20.0367 19.9651C19.5056 19.414 18.7879 19.0835 18.0032 19.0835Z" fill="#353566"/>
<path d="M18 20.5C17.4477 20.5 17 20.9477 17 21.5C17 22.0523 17.4477 22.5 18 22.5C18.5523 22.5 19.0001 22.0523 19.0001 21.5C19.0001 20.9477 18.5523 20.5 18 20.5Z" fill="#353566"/>
</svg>
