<svg width="24" height="24" viewBox="0 0 24 24" fill="none" xmlns="http://www.w3.org/2000/svg">
<path opacity="0.4" d="M14.2321 1.25H5.7679C4.95506 1.24999 4.29944 1.24999 3.76853 1.29336C3.2219 1.33803 2.74175 1.43239 2.29754 1.65873C1.59193 2.01825 1.01825 2.59193 0.658726 3.29754C0.432386 3.74175 0.338026 4.2219 0.293364 4.76853C0.249987 5.29944 0.249993 5.95505 0.25 6.76788V15.2321C0.249993 16.0449 0.249987 16.7006 0.293364 17.2315C0.338026 17.7781 0.432386 18.2582 0.658726 18.7025C1.01825 19.4081 1.59193 19.9817 2.29754 20.3413C2.74175 20.5676 3.2219 20.662 3.76853 20.7066C4.29944 20.75 4.95505 20.75 5.76788 20.75H13.6596C13.9298 20.75 14.1792 20.6046 14.3123 20.3695C14.4454 20.1343 14.4417 19.8457 14.3026 19.614C13.6673 18.5557 13.25 17.3549 13.25 16.002C13.25 12.8274 15.8233 10.25 19 10.25C19.4142 10.25 19.75 9.91421 19.75 9.5V6.76788C19.75 5.95505 19.75 5.29944 19.7066 4.76853C19.662 4.2219 19.5676 3.74175 19.3413 3.29754C18.9817 2.59193 18.4081 2.01825 17.7025 1.65873C17.2582 1.43239 16.7781 1.33803 16.2315 1.29336C15.7006 1.24999 15.0449 1.24999 14.2321 1.25Z" fill="#353566"/>
<path d="M6.12497 1.25H13.875V9.94329C13.875 10.5904 13.1104 10.9338 12.6267 10.5038L9.99997 8.16898L7.37325 10.5038C6.88957 10.9338 6.12497 10.5904 6.12497 9.94329V1.25Z" fill="#353566"/>
<path d="M7.99997 16.25C8.41419 16.25 8.74997 15.9142 8.74997 15.5C8.74997 15.0858 8.41419 14.75 7.99997 14.75H5.5C5.08579 14.75 4.75 15.0858 4.75 15.5C4.75 15.9142 5.08579 16.25 5.5 16.25H7.99997Z" fill="#353566"/>
<path fill-rule="evenodd" clip-rule="evenodd" d="M19.0001 11.5C16.5144 11.5 14.5 13.517 14.5 16.002C14.5 18.7667 16.7001 20.9001 18.7 22.4C18.8778 22.5333 19.1222 22.5333 19.3 22.4C21.3 20.9 23.5 18.7667 23.5 16C23.5 13.5147 21.4854 11.5 19.0001 11.5ZM20.5001 16.0001C20.5001 16.8285 19.8285 17.5001 19 17.5001C18.1716 17.5001 17.5 16.8285 17.5 16.0001C17.5 15.1716 18.1716 14.5001 19 14.5001C19.8285 14.5001 20.5001 15.1716 20.5001 16.0001Z" fill="#353566"/>
</svg>
