<svg width="24" height="24" viewBox="0 0 24 24" fill="none" xmlns="http://www.w3.org/2000/svg">
<g opacity="0.4">
<path d="M2 1.25C1.58579 1.25 1.25 1.58579 1.25 2C1.25 2.41421 1.58579 2.75 2 2.75H3.18189C3.55884 2.75 3.87721 3.02977 3.92567 3.40358L5.28029 13.8535C5.29148 13.9398 5.30662 14.0249 5.32555 14.1085C5.38585 14.375 5.58629 14.5876 5.84875 14.6635C6.11122 14.7393 6.39419 14.6665 6.58738 14.4733L16.0304 5.03033C16.2449 4.81583 16.309 4.49324 16.1929 4.21299C16.0768 3.93273 15.8034 3.75 15.5 3.75H5.48313L5.41322 3.21075C5.26785 2.08931 4.31272 1.25 3.18189 1.25H2Z" fill="#353566"/>
<path d="M19.5 3.75C19.3011 3.75 19.1103 3.82902 18.9697 3.96967L7.96969 14.9697C7.75519 15.1842 7.69103 15.5068 7.80711 15.787C7.9232 16.0673 8.19668 16.25 8.50002 16.25H18.7396C20.4081 16.25 21.8056 14.9864 21.9732 13.3263L22.7452 5.6757C22.8492 4.64496 22.04 3.75 21.004 3.75H19.5Z" fill="#353566"/>
</g>
<path d="M21.4697 1.46967C21.7626 1.17678 22.2374 1.17678 22.5303 1.46967C22.8232 1.76256 22.8232 2.23744 22.5303 2.53033L6.8108 18.2499H21C21.4142 18.2499 21.75 18.5857 21.75 18.9999C21.75 19.4141 21.4142 19.7499 21 19.7499H20.3546C20.4484 19.9815 20.5 20.2346 20.5 20.4999C20.5 21.6044 19.6046 22.4999 18.5 22.4999C17.3954 22.4999 16.5 21.6044 16.5 20.4999C16.5 20.2346 16.5516 19.9815 16.6454 19.7499H10.3546C10.4484 19.9815 10.5 20.2346 10.5 20.4999C10.5 21.6044 9.60457 22.4999 8.5 22.4999C7.39543 22.4999 6.5 21.6044 6.5 20.4999C6.5 20.2346 6.55163 19.9815 6.64538 19.7499H6.24997C5.96843 19.7499 5.69711 19.7031 5.44383 19.6168L2.53033 22.5303C2.23744 22.8232 1.76256 22.8232 1.46967 22.5303C1.17678 22.2374 1.17678 21.7626 1.46967 21.4697L4.74468 18.1947C4.7535 18.1854 4.76253 18.1763 4.77175 18.1676L21.4697 1.46967Z" fill="#353566"/>
</svg>
