<svg width="24" height="24" viewBox="0 0 24 24" fill="none" xmlns="http://www.w3.org/2000/svg">
<path opacity="0.4" d="M17.3324 9.25H6.66762C5.785 9.24999 5.07692 9.24999 4.50433 9.29677C3.91601 9.34484 3.405 9.44601 2.93404 9.68597C2.18139 10.0695 1.56947 10.6814 1.18597 11.434C0.94601 11.905 0.844838 12.416 0.79677 13.0043C0.749988 13.5769 0.749993 14.285 0.75 15.1676V16.8324C0.749993 17.715 0.749988 18.4231 0.79677 18.9957C0.844838 19.584 0.94601 20.095 1.18597 20.566C1.56947 21.3186 2.18139 21.9305 2.93404 22.314C3.405 22.554 3.91601 22.6552 4.50433 22.7032C5.07691 22.75 5.78498 22.75 6.66759 22.75H17.3324C18.215 22.75 18.9231 22.75 19.4957 22.7032C20.084 22.6552 20.595 22.554 21.066 22.314C21.8186 21.9305 22.4305 21.3186 22.814 20.566C23.054 20.095 23.1552 19.584 23.2032 18.9957C23.25 18.4231 23.25 17.715 23.25 16.8323V15.1677C23.25 14.285 23.25 13.5769 23.2032 13.0043C23.1552 12.416 23.054 11.905 22.814 11.434C22.4305 10.6814 21.8186 10.0695 21.066 9.68597C20.595 9.44601 20.084 9.34484 19.4957 9.29677C18.9231 9.24999 18.215 9.24999 17.3324 9.25Z" fill="#353566"/>
<path d="M9.25 4C9.25 2.48122 10.4812 1.25 12 1.25C13.5188 1.25 14.75 2.48122 14.75 4C14.75 4.49801 14.6176 4.9651 14.3861 5.368L18.0606 9.50174C18.3358 9.81132 18.3079 10.2854 17.9983 10.5606C17.6887 10.8358 17.2146 10.8079 16.9395 10.4983L13.312 6.41743C12.9221 6.62951 12.4751 6.75 12 6.75C11.5249 6.75 11.0779 6.62952 10.688 6.41744L7.06056 10.4983C6.78538 10.8079 6.31132 10.8358 6.00174 10.5606C5.69215 10.2854 5.66426 9.81132 5.93945 9.50174L9.61387 5.36801C9.38238 4.96511 9.25 4.49801 9.25 4Z" fill="#353566"/>
<path d="M7 18.25C6.58579 18.25 6.25 17.9142 6.25 17.5C6.25 17.0858 6.58579 16.75 7 16.75H17C17.4142 16.75 17.75 17.0858 17.75 17.5C17.75 17.9142 17.4142 18.25 17 18.25H7Z" fill="#353566"/>
<path d="M9 13.7499L15 13.7499C15.4142 13.7499 15.75 14.0857 15.75 14.4999C15.75 14.9142 15.4142 15.2499 15 15.2499L9 15.2499C8.58579 15.2499 8.25 14.9142 8.25 14.4999C8.25 14.0857 8.58579 13.7499 9 13.7499Z" fill="#353566"/>
</svg>
