<svg width="24" height="24" viewBox="0 0 24 24" fill="none" xmlns="http://www.w3.org/2000/svg">
<g clip-path="url(#clip0_9001_291226)">
<path opacity="0.4" fill-rule="evenodd" clip-rule="evenodd" d="M6.85263 0.250043C6.07173 0.249602 5.5027 0.249282 4.98538 0.427716C4.52997 0.584795 4.11518 0.84115 3.77102 1.17823C3.38008 1.56113 3.12588 2.07024 2.77705 2.7689L0.566651 7.18976C0.487651 7.34754 0.417917 7.48682 0.36749 7.6367C0.323104 7.76862 0.291055 7.90439 0.271756 8.04224C0.249831 8.19884 0.249916 8.3546 0.250013 8.53106L0.250025 16.2322C0.250018 17.045 0.250012 17.7006 0.293389 18.2316C0.338051 18.7782 0.43241 19.2583 0.658751 19.7026C1.01828 20.4082 1.59195 20.9818 2.29756 21.3414C2.74178 21.5677 3.22192 21.6621 3.76856 21.7067C4.29946 21.7501 4.95507 21.7501 5.7679 21.7501H11.8873C12.1553 21.7501 12.403 21.6071 12.5369 21.3749C12.6708 21.1427 12.6707 20.8567 12.5366 20.6247L12.514 20.5857C12.1197 19.9038 12.192 19.174 12.5675 18.2945C12.6478 18.1064 12.6478 17.8936 12.5675 17.7055C12.192 16.8261 12.1197 16.0963 12.514 15.4144L13.1357 14.3391C13.5303 13.6566 14.2011 13.3527 15.1537 13.2361C15.3558 13.2114 15.5392 13.1056 15.6617 12.943C16.2375 12.1787 16.8358 11.7501 17.6283 11.7501H18.8717C19.5023 11.7501 19.9986 12.0183 20.4606 12.4965C20.673 12.7164 20.9976 12.7853 21.2811 12.6707C21.5645 12.5562 21.75 12.2811 21.75 11.9754L21.75 8.53107C21.7501 8.3546 21.7502 8.19885 21.7283 8.04224C21.709 7.90438 21.6769 7.76863 21.6326 7.6367C21.5821 7.4868 21.5124 7.34752 21.4334 7.18971L21.4175 7.15793L19.223 2.7689C18.8742 2.07024 18.62 1.56113 18.229 1.17823C17.8849 0.84115 17.4701 0.584795 17.0147 0.427716C16.4974 0.249282 15.9283 0.249602 15.1474 0.250043H6.85263ZM20.7467 7.49337L21.4175 7.15793C21.4191 7.16111 21.4206 7.1643 21.4222 7.1675C21.424 7.17133 21.4258 7.17518 21.4276 7.17904L20.7467 7.49337Z" fill="#353566"/>
<path d="M10.25 0.550084C10.25 0.384401 10.1157 0.250087 9.95 0.250087L6.85261 0.250043C6.07171 0.249603 5.50267 0.249282 4.98535 0.427714C4.52995 0.584792 4.11516 0.841144 3.771 1.17822C3.38005 1.56112 3.12586 2.07022 2.77702 2.76887L0.32918 7.6646C0.212935 7.89709 0.225358 8.17319 0.362013 8.3943C0.498668 8.61541 0.740068 8.75 1 8.75H21C21.2599 8.75 21.5013 8.61541 21.638 8.3943C21.7746 8.17319 21.7871 7.89709 21.6708 7.6646L19.223 2.76885C18.8741 2.07021 18.6199 1.56112 18.229 1.17822C17.8848 0.841144 17.4701 0.584792 17.0146 0.427714C16.4973 0.249282 15.9283 0.249603 15.1474 0.250043L12.05 0.250087C11.8843 0.250087 11.75 0.384401 11.75 0.550084V6.94993C11.75 7.11561 11.6157 7.24993 11.45 7.24993H10.55C10.3843 7.24993 10.25 7.11561 10.25 6.94993V0.550084Z" fill="#353566"/>
<path d="M8.75 16C8.75 16.4142 8.41421 16.75 8 16.75H5C4.58579 16.75 4.25 16.4142 4.25 16C4.25 15.5858 4.58579 15.25 5 15.25H8C8.41421 15.25 8.75 15.5858 8.75 16Z" fill="#353566"/>
<path fill-rule="evenodd" clip-rule="evenodd" d="M13.8138 18.5449C13.2745 18.8569 13.09 19.5473 13.4012 20.0872L14.0209 21.1625C14.3321 21.7025 15.0219 21.8879 15.5615 21.5758C15.9792 21.3342 16.5027 21.6358 16.5027 22.1208C16.5027 22.744 17.0071 23.25 17.6303 23.25H18.8697C19.4929 23.25 19.9974 22.744 19.9974 22.1208C19.9974 21.6357 20.5209 21.3342 20.9386 21.5758C21.4782 21.8879 22.1679 21.7025 22.4792 21.1624L23.0989 20.0871C23.41 19.5473 23.2256 18.8568 22.6863 18.5449C22.2677 18.3028 22.2677 17.6971 22.6863 17.455C23.2256 17.1431 23.41 16.4526 23.0989 15.9128L22.4792 14.8375C22.1679 14.2974 21.4782 14.112 20.9386 14.4241C20.5209 14.6657 19.9974 14.3642 19.9974 13.8792C19.9974 13.256 19.4929 12.75 18.8698 12.75H17.6303C17.0071 12.75 16.5027 13.2559 16.5027 13.8791C16.5027 14.3641 15.9792 14.6657 15.5615 14.4241C15.0219 14.112 14.3321 14.2973 14.0209 14.8374L13.4012 15.9127C13.09 16.4525 13.2745 17.143 13.8138 17.455C14.2325 17.6971 14.2325 18.3028 13.8138 18.5449ZM19.75 18C19.75 18.8284 19.0784 19.5 18.25 19.5C17.4216 19.5 16.75 18.8284 16.75 18C16.75 17.1716 17.4216 16.5 18.25 16.5C19.0784 16.5 19.75 17.1716 19.75 18Z" fill="#353566"/>
</g>
<defs>
<clipPath id="clip0_9001_291226">
<rect width="24" height="24" fill="white"/>
</clipPath>
</defs>
</svg>
