<svg width="24" height="24" viewBox="0 0 24 24" fill="none" xmlns="http://www.w3.org/2000/svg">
<g clip-path="url(#clip0_9001_291296)">
<path opacity="0.4" fill-rule="evenodd" clip-rule="evenodd" d="M6.85263 0.250043C6.07173 0.249602 5.5027 0.249282 4.98538 0.427716C4.52997 0.584795 4.11518 0.84115 3.77102 1.17823C3.38008 1.56113 3.12588 2.07024 2.77705 2.7689L0.566651 7.18976C0.487651 7.34754 0.417917 7.48682 0.36749 7.6367C0.323104 7.76862 0.291055 7.90439 0.271756 8.04224C0.249831 8.19884 0.249916 8.3546 0.250013 8.53106L0.250025 16.2322C0.250018 17.045 0.250012 17.7006 0.293389 18.2316C0.338051 18.7782 0.43241 19.2583 0.658751 19.7026C1.01828 20.4082 1.59195 20.9818 2.29756 21.3414C2.74178 21.5677 3.22192 21.6621 3.76856 21.7067C4.29946 21.7501 4.95507 21.7501 5.7679 21.7501H12.3867C12.7644 21.7501 13.0831 21.4693 13.1307 21.0947C13.1513 20.9328 13.1767 20.7726 13.206 20.6158C13.2529 20.3645 13.1686 20.1066 12.9824 19.9315C12.3663 19.3525 11.8517 18.8456 11.5403 18.2927C11.254 17.7843 11.1445 17.245 11.3685 16.5512C11.5942 15.8523 12.0026 15.478 12.5387 15.233C13.1221 14.9663 13.8432 14.8582 14.6894 14.7474C14.9404 14.7146 15.1578 14.5573 15.2677 14.3293C15.6357 13.5655 15.9624 12.9193 16.3954 12.4511C16.7936 12.0206 17.2738 11.7501 18.002 11.7501C18.6061 11.7501 19.0281 11.936 19.3707 12.2233C19.7349 12.5286 20.0379 12.9731 20.3388 13.5352C20.5011 13.8385 20.8489 13.9924 21.1825 13.9087C21.5161 13.8251 21.75 13.5252 21.75 13.1813L21.75 8.53107C21.7501 8.3546 21.7502 8.19885 21.7283 8.04224C21.709 7.90438 21.6769 7.76863 21.6326 7.6367C21.5821 7.4868 21.5124 7.34752 21.4334 7.18971L21.4175 7.15793L19.223 2.7689C18.8742 2.07024 18.62 1.56113 18.229 1.17823C17.8849 0.84115 17.4701 0.584795 17.0147 0.427716C16.4974 0.249282 15.9283 0.249602 15.1474 0.250043H6.85263ZM20.7467 7.49337L21.4175 7.15793C21.4191 7.16111 21.4206 7.1643 21.4222 7.1675C21.424 7.17133 21.4258 7.17518 21.4276 7.17904L20.7467 7.49337Z" fill="#353566"/>
<path d="M10.25 0.550084C10.25 0.384401 10.1157 0.250087 9.95 0.250087L6.85261 0.250043C6.07171 0.249603 5.50267 0.249282 4.98535 0.427714C4.52995 0.584792 4.11516 0.841144 3.771 1.17822C3.38005 1.56112 3.12586 2.07022 2.77702 2.76887L0.32918 7.6646C0.212935 7.89709 0.225358 8.17319 0.362013 8.3943C0.498668 8.61541 0.740068 8.75 1 8.75H21C21.2599 8.75 21.5013 8.61541 21.638 8.3943C21.7746 8.17319 21.7871 7.89709 21.6708 7.6646L19.223 2.76885C18.8741 2.07021 18.6199 1.56112 18.229 1.17822C17.8848 0.841144 17.4701 0.584792 17.0146 0.427714C16.4973 0.249282 15.9283 0.249603 15.1474 0.250043L12.05 0.250087C11.8843 0.250087 11.75 0.384401 11.75 0.550084V6.94993C11.75 7.11561 11.6157 7.24993 11.45 7.24993H10.55C10.3843 7.24993 10.25 7.11561 10.25 6.94993V0.550084Z" fill="#353566"/>
<path d="M8.75 16C8.75 16.4142 8.41421 16.75 8 16.75H5C4.58579 16.75 4.25 16.4142 4.25 16C4.25 15.5858 4.58579 15.25 5 15.25H8C8.41421 15.25 8.75 15.5858 8.75 16Z" fill="#353566"/>
<path d="M16.9866 13.6365C17.3957 12.7878 18.6043 12.7878 19.0133 13.6365L20.0786 15.8464L22.5198 16.165C23.4614 16.2879 23.8366 17.45 23.1446 18.1003L21.3664 19.7713L21.8141 22.1646C21.9878 23.0935 21.0083 23.8097 20.1759 23.3625L18 22.1934L15.824 23.3625C14.9916 23.8097 14.0121 23.0935 14.1858 22.1646L14.6335 19.7713L12.8553 18.1003C12.1633 17.45 12.5385 16.2879 13.4801 16.165L15.9213 15.8464L16.9866 13.6365Z" fill="#353566"/>
</g>
<defs>
<clipPath id="clip0_9001_291296">
<rect width="24" height="24" fill="white"/>
</clipPath>
</defs>
</svg>
