<svg width="24" height="24" viewBox="0 0 24 24" fill="none" xmlns="http://www.w3.org/2000/svg">
<path opacity="0.4" d="M7.04508 1.25C5.81408 1.25 4.68872 1.94551 4.1382 3.04656L1.48754 8.34787C1.33133 8.6603 1.25 9.0048 1.25 9.3541V19C1.25 21.0711 2.92893 22.75 5 22.75H19C21.0711 22.75 22.75 21.0711 22.75 19V9.3541C22.75 9.0048 22.6687 8.6603 22.5125 8.34787L19.8618 3.04656C19.3113 1.94551 18.1859 1.25 16.9549 1.25H7.04508Z" fill="#353566"/>
<path d="M12.75 7.94993C12.75 8.11561 12.6157 8.24993 12.45 8.24993H11.55C11.3843 8.24993 11.25 8.11561 11.25 7.94993V1.55008C11.25 1.3844 11.1157 1.25009 10.95 1.25009L7.85261 1.25004C7.07171 1.2496 6.50267 1.24928 5.98535 1.42771C5.52995 1.58479 5.11516 1.84114 4.771 2.17822C4.38005 2.56112 4.12586 3.07022 3.77702 3.76887L1.32918 8.6646C1.21293 8.89709 1.22536 9.17319 1.36201 9.3943C1.49867 9.61541 1.74007 9.75 2 9.75H22C22.2599 9.75 22.5013 9.61541 22.638 9.3943C22.7746 9.17319 22.7871 8.89709 22.6708 8.6646L20.223 3.76885C19.8741 3.07021 19.6199 2.56112 19.229 2.17822C18.8848 1.84114 18.4701 1.58479 18.0146 1.42771C17.4973 1.24928 16.9283 1.2496 16.1474 1.25004L13.05 1.25009C12.8843 1.25009 12.75 1.3844 12.75 1.55008V7.94993Z" fill="#353566"/>
<path d="M11.25 12.3172V12C11.25 11.5858 11.5858 11.25 12 11.25C12.4142 11.25 12.75 11.5858 12.75 12V12.3123C12.9266 12.3459 13.1003 12.3952 13.2765 12.4651C13.6747 12.623 14.041 12.8691 14.4527 13.1809C14.783 13.431 14.848 13.9014 14.5979 14.2316C14.3479 14.5618 13.8775 14.6268 13.5472 14.3768C13.159 14.0828 12.9252 13.9394 12.7235 13.8594C12.5392 13.7863 12.3406 13.75 12 13.75C11.5065 13.75 11.1757 13.8669 10.9899 14.0015C10.8265 14.1199 10.75 14.2643 10.75 14.4654C10.75 14.7016 10.8409 14.8313 11.0663 14.9575C11.3391 15.1102 11.7185 15.1927 12.1233 15.2602C12.5185 15.3261 13.1391 15.4385 13.6663 15.7336C14.2409 16.0553 14.75 16.6262 14.75 17.5346C14.75 18.2364 14.4265 18.8247 13.8899 19.2133C13.5626 19.4503 13.1725 19.6031 12.75 19.6828V20C12.75 20.4142 12.4142 20.75 12 20.75C11.5858 20.75 11.25 20.4142 11.25 20V19.6877C11.0734 19.6541 10.8997 19.6048 10.7235 19.5349C10.3252 19.3769 9.95895 19.1308 9.54723 18.8191C9.217 18.569 9.15201 18.0986 9.40206 17.7684C9.65211 17.4382 10.1225 17.3732 10.4527 17.6232C10.841 17.9172 11.0747 18.0605 11.2765 18.1406C11.4608 18.2137 11.6594 18.25 12 18.25C12.4935 18.25 12.8242 18.1331 13.0101 17.9985C13.1734 17.8801 13.25 17.7357 13.25 17.5346C13.25 17.2984 13.1591 17.1687 12.9336 17.0425C12.6608 16.8898 12.2814 16.8073 11.8767 16.7398C11.4814 16.6739 10.8608 16.5615 10.3336 16.2664C9.75906 15.9447 9.24998 15.3738 9.24998 14.4654C9.24998 13.7636 9.57343 13.1753 10.1101 12.7867C10.4373 12.5497 10.8274 12.3969 11.25 12.3172Z" fill="#353566"/>
</svg>
