<svg width="24" height="24" viewBox="0 0 24 24" fill="none" xmlns="http://www.w3.org/2000/svg">
<path opacity="0.4" d="M11.0947 2.02957C10.1951 1.05263 8.67672 0.982127 7.69053 1.87151L6.86493 2.61606C6.58133 2.87182 6.14673 2.85928 5.87834 2.5876C4.82185 1.51811 3 2.26622 3 3.76955V20.2407C3 21.7441 4.82191 22.4922 5.87838 21.4226C6.14675 21.1509 6.58137 21.1383 6.86497 21.3941L7.68019 22.1293C8.67235 23.0241 10.2027 22.9423 11.0939 21.9468L11.2008 21.8274C11.6272 21.3511 12.3728 21.3511 12.7992 21.8274L12.9061 21.9468C13.7973 22.9423 15.3276 23.0241 16.3198 22.1293L17.135 21.3941C17.4186 21.1383 17.8532 21.1509 18.1216 21.4226C19.1781 22.4922 21 21.7441 21 20.2407V3.76955C21 2.26623 19.1782 1.5181 18.1217 2.5876C17.8533 2.85928 17.4187 2.87182 17.1351 2.61606L16.3095 1.87151C15.3233 0.982127 13.8049 1.05263 12.9053 2.02957L12.7972 2.14707C12.3679 2.61322 11.6321 2.61322 11.2028 2.14706L11.0947 2.02957Z" fill="#353566"/>
<path d="M13.9697 15.0303C14.2626 15.3232 14.7374 15.3232 15.0303 15.0303C15.3232 14.7374 15.3232 14.2625 15.0303 13.9696L13.0607 12L15.0303 10.0304C15.3232 9.73755 15.3232 9.26268 15.0303 8.96978C14.7374 8.67689 14.2625 8.67689 13.9696 8.96978L12.0001 10.9394L10.0304 8.96967C9.73748 8.67678 9.2626 8.67678 8.96971 8.96967C8.67682 9.26256 8.67682 9.73744 8.96971 10.0303L10.9394 12L8.96967 13.9698C8.67678 14.2626 8.67678 14.7375 8.96967 15.0304C9.26256 15.3233 9.73744 15.3233 10.0303 15.0304L12.0001 13.0607L13.9697 15.0303Z" fill="#353566"/>
</svg>
