<svg width="24" height="24" viewBox="0 0 24 24" fill="none" xmlns="http://www.w3.org/2000/svg">
<path opacity="0.4" d="M11.0947 2.02957C10.1951 1.05263 8.67672 0.982127 7.69053 1.87151L6.86493 2.61606C6.58133 2.87182 6.14673 2.85928 5.87834 2.5876C4.82185 1.51811 3 2.26622 3 3.76955V20.2407C3 21.7441 4.82191 22.4922 5.87838 21.4226C6.14675 21.1509 6.58137 21.1383 6.86497 21.3941L7.68019 22.1293C8.67235 23.0241 10.2027 22.9423 11.0939 21.9468L11.2008 21.8274C11.6272 21.3511 12.3728 21.3511 12.7992 21.8274L12.9061 21.9468C13.7973 22.9423 15.3276 23.0241 16.3198 22.1293L17.135 21.3941C17.4186 21.1383 17.8532 21.1509 18.1216 21.4226C19.1781 22.4922 21 21.7441 21 20.2407V3.76955C21 2.26623 19.1782 1.5181 18.1217 2.5876C17.8533 2.85928 17.4187 2.87182 17.1351 2.61606L16.3095 1.87151C15.3233 0.982127 13.8049 1.05263 12.9053 2.02957L12.7972 2.14707C12.3679 2.61322 11.6321 2.61322 11.2028 2.14706L11.0947 2.02957Z" fill="#353566"/>
<path d="M12.0001 9.24977C12.3369 8.8508 13.0488 8.25977 13.9361 8.25977C15.4883 8.25977 16.4001 9.57977 16.4001 11.1085C16.4001 13.9798 12.8801 15.9598 12.0001 16.3998C11.1201 15.9598 7.6001 13.9798 7.6001 11.1085C7.6001 9.57977 8.51188 8.25977 10.0641 8.25977C10.9514 8.25977 11.6633 8.8508 12.0001 9.24977Z" fill="#353566"/>
</svg>
