<svg width="24" height="24" viewBox="0 0 24 24" fill="none" xmlns="http://www.w3.org/2000/svg">
<path opacity="0.4" d="M11.0947 2.02957C10.1951 1.05263 8.67672 0.982127 7.69053 1.87151L6.86493 2.61606C6.58133 2.87182 6.14673 2.85928 5.87834 2.5876C4.82185 1.51811 3 2.26622 3 3.76955V20.2407C3 21.7441 4.82191 22.4922 5.87838 21.4226C6.14675 21.1509 6.58137 21.1383 6.86497 21.3941L7.68019 22.1293C8.67235 23.0241 10.2027 22.9423 11.0939 21.9468L11.2008 21.8274C11.6272 21.3511 12.3728 21.3511 12.7992 21.8274L12.9061 21.9468C13.7973 22.9423 15.3276 23.0241 16.3198 22.1293L17.135 21.3941C17.4186 21.1383 17.8532 21.1509 18.1216 21.4226C19.1781 22.4922 21 21.7441 21 20.2407V3.76955C21 2.26623 19.1782 1.5181 18.1217 2.5876C17.8533 2.85928 17.4187 2.87182 17.1351 2.61606L16.3095 1.87151C15.3233 0.982127 13.8049 1.05263 12.9053 2.02957L12.7972 2.14707C12.3679 2.61322 11.6321 2.61322 11.2028 2.14706L11.0947 2.02957Z" fill="#353566"/>
<path d="M8 7C7.44772 7 7 7.44772 7 8C7 8.55228 7.44772 9 8 9C8.55228 9 9.0001 8.55228 9.0001 8C9.0001 7.44772 8.55228 7 8 7Z" fill="#353566"/>
<path d="M11 7.25C10.5858 7.25 10.25 7.58579 10.25 8C10.25 8.41421 10.5858 8.75 11 8.75H16C16.4142 8.75 16.75 8.41421 16.75 8C16.75 7.58579 16.4142 7.25 16 7.25H11Z" fill="#353566"/>
<path d="M11 11.25C10.5858 11.25 10.25 11.5858 10.25 12C10.25 12.4142 10.5858 12.75 11 12.75H16C16.4142 12.75 16.75 12.4142 16.75 12C16.75 11.5858 16.4142 11.25 16 11.25H11Z" fill="#353566"/>
<path d="M10.25 16C10.25 15.5858 10.5858 15.25 11 15.25H16C16.4142 15.25 16.75 15.5858 16.75 16C16.75 16.4142 16.4142 16.75 16 16.75H11C10.5858 16.75 10.25 16.4142 10.25 16Z" fill="#353566"/>
<path d="M7 12C7 11.4477 7.44772 11 8 11C8.55228 11 9.0001 11.4477 9.0001 12C9.0001 12.5523 8.55238 13 8.0001 13C7.44782 13 7 12.5523 7 12Z" fill="#353566"/>
<path d="M8 15C7.44772 15 7 15.4477 7 16C7 16.5523 7.44772 17 8 17C8.55228 17 9.0001 16.5523 9.0001 16C9.0001 15.4477 8.55228 15 8 15Z" fill="#353566"/>
</svg>
