<svg width="24" height="24" viewBox="0 0 24 24" fill="none" xmlns="http://www.w3.org/2000/svg">
<g clip-path="url(#clip0_9001_289471)">
<path opacity="0.4" d="M6.75 8.5C6.75 8.08579 6.41421 7.75 6 7.75C5.58579 7.75 5.25 8.08579 5.25 8.5C5.25 9.04283 4.63132 9.75 3.5 9.75C3.26257 9.75 3.03312 9.69489 2.81994 9.59434C2.58761 9.48476 2.31536 9.5017 2.09842 9.63924C1.88147 9.77679 1.75 10.0158 1.75 10.2727V16.6317C1.74999 17.3748 1.74999 17.978 1.78996 18.4672C1.83121 18.9722 1.91876 19.4214 2.13148 19.8389C2.46704 20.4975 3.00247 21.0329 3.66103 21.3685C4.07851 21.5812 4.52778 21.6687 5.03273 21.71C5.52196 21.75 6.12511 21.75 6.86819 21.75H12.3867C12.7643 21.75 13.0831 21.4692 13.1307 21.0946C13.1513 20.9326 13.1767 20.7725 13.2059 20.6157C13.2529 20.3644 13.1686 20.1065 12.9823 19.9315C12.3663 19.3525 11.8517 18.8455 11.5403 18.2927C11.2539 17.7842 11.1444 17.2449 11.3685 16.5511C11.5942 15.8522 12.0026 15.478 12.5386 15.2329C13.1221 14.9663 13.8432 14.8581 14.6894 14.7473C14.9403 14.7145 15.1578 14.5573 15.2677 14.3292C15.6357 13.5654 15.9624 12.9192 16.3954 12.451C16.7936 12.0205 17.2738 11.75 18.002 11.75C18.4723 11.75 18.8248 11.8628 19.1111 12.0364C19.3427 12.1769 19.632 12.1815 19.868 12.0487C20.104 11.9158 20.25 11.666 20.25 11.3951V10.2727C20.25 10.0158 20.1185 9.77679 19.9016 9.63924C19.6846 9.5017 19.4124 9.48476 19.1801 9.59434C18.9669 9.69489 18.7374 9.75 18.5 9.75C17.3687 9.75 16.75 9.04283 16.75 8.5C16.75 8.08579 16.4142 7.75 16 7.75C15.5858 7.75 15.25 8.08579 15.25 8.5C15.25 9.04283 14.6313 9.75 13.5 9.75C12.3687 9.75 11.75 9.04283 11.75 8.5C11.75 8.08579 11.4142 7.75 11 7.75C10.5858 7.75 10.25 8.08579 10.25 8.5C10.25 9.04283 9.63132 9.75 8.5 9.75C7.36868 9.75 6.75 9.04283 6.75 8.5Z" fill="#353566"/>
<path d="M4.77745 0.25007H17.2226C17.9003 0.249467 18.4301 0.248997 18.897 0.4226C19.4285 0.620254 19.8859 0.977388 20.2066 1.44509C20.4882 1.85587 20.6162 2.36998 20.78 3.02766L21.4851 5.8481C21.661 6.55192 21.75 7.27466 21.75 8.00014C21.75 9.63905 20.3198 11.2501 18.5 11.2501C17.5606 11.2501 16.6246 10.8902 16 10.2663C15.3754 10.8902 14.4394 11.2501 13.5 11.2501C12.5606 11.2501 11.6246 10.8902 11 10.2663C10.3754 10.8902 9.43942 11.2501 8.5 11.2501C7.56058 11.2501 6.62455 10.8902 6 10.2663C5.37545 10.8902 4.43942 11.2501 3.5 11.2501C1.68022 11.2501 0.25 9.63905 0.25 8.00014C0.25 7.27466 0.338974 6.55192 0.514929 5.8481L1.21996 3.02767C1.38376 2.36999 1.5118 1.85587 1.79345 1.44509C2.11411 0.977388 2.57152 0.620254 3.10303 0.422599C3.56985 0.248997 4.09967 0.249467 4.77745 0.25007Z" fill="#353566"/>
<path d="M9.67608 13.7501C9.48679 13.7501 9.30245 13.7501 9.14633 13.7628C8.97489 13.7768 8.77259 13.8099 8.56902 13.9136C8.28677 14.0574 8.0573 14.2869 7.91349 14.5691C7.80977 14.7727 7.77672 14.975 7.76271 15.1465C7.74996 15.3026 7.74998 15.4869 7.75 15.6762L7.75 21.7501H8.49759L8.5 21.7501H12.3867C12.7643 21.7501 13.0831 21.4693 13.1307 21.0947C13.1513 20.9328 13.1767 20.7726 13.206 20.6158C13.2529 20.3646 13.1686 20.1066 12.9823 19.9316C12.3663 19.3526 11.8517 18.8456 11.5403 18.2928C11.254 17.7844 11.1444 17.245 11.3685 16.5513C11.6052 15.8183 12.0446 15.4377 12.6323 15.1921C12.962 15.0543 13.1487 14.7031 13.0785 14.3527C13.0083 14.0024 12.7006 13.7502 12.3433 13.7501L9.67608 13.7501Z" fill="#353566"/>
<path d="M16.9866 13.6366C17.3957 12.788 18.6043 12.788 19.0133 13.6366L20.0786 15.8466L22.5198 16.1651C23.4614 16.288 23.8366 17.4502 23.1446 18.1004L21.3664 19.7714L21.8141 22.1647C21.9878 23.0936 21.0083 23.8098 20.1759 23.3626L18 22.1935L15.824 23.3626C14.9916 23.8098 14.0121 23.0936 14.1858 22.1647L14.6335 19.7714L12.8553 18.1004C12.1633 17.4502 12.5385 16.288 13.4801 16.1651L15.9213 15.8466L16.9866 13.6366Z" fill="#353566"/>
</g>
<defs>
<clipPath id="clip0_9001_289471">
<rect width="24" height="24" fill="white"/>
</clipPath>
</defs>
</svg>
