<svg width="24" height="24" viewBox="0 0 24 24" fill="none" xmlns="http://www.w3.org/2000/svg">
<path opacity="0.4" d="M21.2468 1.55085C20.9092 1.37911 20.5522 1.31227 20.172 1.28156C19.8075 1.25211 19.3613 1.25254 18.8266 1.25306L13.749 1.25788C12.9806 1.25844 12.4697 1.25881 11.9803 1.37659C11.5475 1.48074 11.1337 1.65225 10.7541 1.88484C10.3249 2.14784 9.96357 2.50902 9.42014 3.0522L3.9584 8.50903C3.28463 9.18219 2.7466 9.71972 2.34753 10.1894C1.93824 10.6711 1.63122 11.1304 1.45837 11.6616C1.18064 12.515 1.18021 13.4345 1.45715 14.2882C1.62951 14.8195 1.9361 15.2792 2.34495 15.7612C2.74357 16.2312 3.28109 16.7693 3.95423 17.443L6.55007 20.0414C7.22326 20.7152 7.76082 21.2533 8.23048 21.6524C8.71218 22.0617 9.17157 22.3687 9.70274 22.5416C10.5562 22.8194 11.4757 22.8198 12.3294 22.5428C12.8608 22.3705 13.3204 22.0638 13.8025 21.655C14.2725 21.2563 14.8105 20.7188 15.4843 20.0456L20.9517 14.5831C21.4968 14.0388 21.8592 13.6769 22.123 13.2467C22.3563 12.8663 22.5282 12.4515 22.6324 12.0177C22.7503 11.527 22.7502 11.0148 22.75 10.2445L22.7499 5.17272C22.75 4.63806 22.75 4.1918 22.7202 3.82727C22.6891 3.44711 22.6219 3.09021 22.4498 2.75276C22.1859 2.23508 21.7647 1.81432 21.2468 1.55085Z" fill="#353566"/>
<path fill-rule="evenodd" clip-rule="evenodd" d="M19.2498 7.24951C19.2498 5.8688 18.1305 4.74951 16.7498 4.74951C15.3691 4.74951 14.2498 5.8688 14.2498 7.24951C14.2498 8.63022 15.3691 9.74951 16.7498 9.74951C18.1305 9.74951 19.2498 8.63022 19.2498 7.24951ZM16.7498 6.24951C17.3021 6.24951 17.7498 6.69723 17.7498 7.24951C17.7498 7.8018 17.3021 8.24951 16.7498 8.24951C16.1975 8.24951 15.7498 7.8018 15.7498 7.24951C15.7498 6.69723 16.1975 6.24951 16.7498 6.24951Z" fill="#353566"/>
<path d="M12.3533 11.6318C12.3559 11.6345 12.3585 11.6371 12.3611 11.6397C12.3638 11.6424 12.3665 11.6451 12.3692 11.6477C12.6045 11.8842 12.7175 12.0486 12.7952 12.2285C12.8813 12.4277 12.9453 12.6943 13.0119 13.1768C13.0686 13.5871 13.4472 13.8737 13.8575 13.8171C14.2678 13.7604 14.5545 13.3818 14.4978 12.9715C14.4271 12.4599 14.3421 12.0268 14.1722 11.6336C14.0971 11.4596 14.0091 11.302 13.9081 11.1534L14.1288 10.9326C14.4217 10.6397 14.4217 10.1648 14.1288 9.87195C13.8359 9.57905 13.3611 9.57905 13.0682 9.87195L12.844 10.0962C12.4888 9.85368 12.1049 9.68579 11.7058 9.62196C11.0516 9.51732 10.4069 9.70457 9.91065 10.2008C9.26827 10.8432 9.22455 11.6068 9.40341 12.2406C9.56751 12.822 9.92684 13.3404 10.1597 13.6664C10.3982 14.0003 10.6081 14.327 10.6931 14.6279C10.7632 14.8765 10.7358 15.0325 10.5688 15.1995C10.4266 15.3417 10.2703 15.3897 10.0711 15.3579C9.84457 15.3216 9.528 15.1704 9.17905 14.8215C8.9382 14.5806 8.82346 14.4145 8.74486 14.2325C8.65877 14.0333 8.59485 13.7667 8.52819 13.2842C8.4715 12.8739 8.09291 12.5872 7.6826 12.6439C7.27228 12.7006 6.98561 13.0792 7.04231 13.4895C7.11299 14.0011 7.19796 14.4341 7.36785 14.8274C7.44307 15.0015 7.53105 15.1592 7.63222 15.3079L7.41138 15.5288C7.11848 15.8216 7.11848 16.2965 7.41138 16.5894C7.70427 16.8823 8.17914 16.8823 8.47204 16.5894L8.6964 16.365C9.05152 16.6074 9.4353 16.7752 9.83426 16.839C10.4885 16.9437 11.1332 16.7564 11.6294 16.2602C12.2718 15.6178 12.3155 14.8542 12.1367 14.2204C11.9726 13.639 11.6132 13.1206 11.3803 12.7946C11.1418 12.4607 10.9319 12.134 10.847 11.8331C10.7768 11.5845 10.8043 11.4285 10.9713 11.2615C11.1135 11.1193 11.2698 11.0713 11.4689 11.1031C11.6938 11.1391 12.0074 11.2883 12.3533 11.6318Z" fill="#353566"/>
</svg>
