<svg width="24" height="24" viewBox="0 0 24 24" fill="none" xmlns="http://www.w3.org/2000/svg">
<path opacity="0.4" d="M16.4326 2.25H6.56739C5.61495 2.24999 4.85439 2.24999 4.24013 2.30018C3.61012 2.35165 3.06824 2.45963 2.57054 2.71322C1.77085 3.12068 1.12068 3.77085 0.713223 4.57054C0.459634 5.06824 0.35165 5.61012 0.300176 6.24013C0.249989 6.8544 0.249994 7.61494 0.25 8.56738V8.76121C0.25 9.14934 0.546124 9.47335 0.932687 9.50818C1.95126 9.59997 2.75 10.4571 2.75 11.5C2.75 12.5429 1.95126 13.4 0.932687 13.4918C0.546124 13.5267 0.25 13.8507 0.25 14.2388V14.4326C0.249994 15.3851 0.249989 16.1456 0.300176 16.7599C0.35165 17.3899 0.459634 17.9318 0.713223 18.4295C1.12068 19.2291 1.77085 19.8793 2.57054 20.2868C3.06824 20.5404 3.61012 20.6483 4.24013 20.6998C4.85438 20.75 5.6149 20.75 6.5673 20.75H13.3643C13.6457 20.75 13.9035 20.5924 14.0318 20.342C14.1601 20.0915 14.1374 19.7903 13.973 19.5618C12.8764 18.0384 12.25 16.1868 12.25 14.2579C12.25 13.492 12.3223 12.8868 12.5105 12.4157C12.6869 11.974 12.9734 11.6285 13.4756 11.3761L17.0464 9.59073C17.9547 9.13623 19.0445 9.13655 19.9543 9.59107L20.4538 9.84066C20.688 9.9577 20.9663 9.94412 21.188 9.80482C21.4473 9.64191 21.7461 9.53713 22.0673 9.50818C22.4539 9.47335 22.75 9.14934 22.75 8.76121V8.56737C22.75 7.61496 22.75 6.85438 22.6998 6.24013C22.6483 5.61012 22.5404 5.06824 22.2868 4.57054C21.8793 3.77085 21.2291 3.12068 20.4295 2.71322C19.9318 2.45963 19.3899 2.35165 18.7599 2.30018C18.1456 2.24999 17.3851 2.24999 16.4326 2.25Z" fill="#353566"/>
<path d="M9.25 6V2.25H7.75V6C7.75 6.41421 8.08579 6.75 8.5 6.75C8.91421 6.75 9.25 6.41421 9.25 6Z" fill="#353566"/>
<path d="M9.25 10C9.25 9.58579 8.91421 9.25 8.5 9.25C8.08579 9.25 7.75 9.58579 7.75 10V13C7.75 13.4142 8.08579 13.75 8.5 13.75C8.91421 13.75 9.25 13.4142 9.25 13V10Z" fill="#353566"/>
<path d="M9.25 17C9.25 16.5858 8.91421 16.25 8.5 16.25C8.08579 16.25 7.75 16.5858 7.75 17V20.75H9.25V17Z" fill="#353566"/>
<path d="M17.605 10.7083C18.168 10.4267 18.8307 10.4267 19.3938 10.7081L22.9637 12.4926C23.2928 12.6571 23.5006 12.9935 23.5004 13.3614C23.4998 14.7739 23.4093 16.1304 22.8326 17.4487C22.039 19.2626 20.5743 20.6601 18.7819 21.4423C18.6018 21.5209 18.397 21.5209 18.2169 21.4423C16.4252 20.6604 14.9607 19.2648 14.1671 17.451C13.5898 16.1315 13.4998 14.7737 13.5004 13.36C13.5006 12.9928 13.7081 12.6573 14.0364 12.493L17.605 10.7083Z" fill="#353566"/>
</svg>
