<svg width="24" height="24" viewBox="0 0 24 24" fill="none" xmlns="http://www.w3.org/2000/svg">
<path opacity="0.4" d="M16.4326 2.25H6.56739C5.61495 2.24999 4.85439 2.24999 4.24013 2.30018C3.61012 2.35165 3.06824 2.45963 2.57054 2.71322C1.77085 3.12068 1.12068 3.77085 0.713223 4.57054C0.459634 5.06824 0.35165 5.61012 0.300176 6.24013C0.249989 6.8544 0.249994 7.61494 0.25 8.56738V8.76121C0.25 9.14934 0.546124 9.47335 0.932687 9.50818C1.95126 9.59997 2.75 10.4571 2.75 11.5C2.75 12.5429 1.95126 13.4 0.932687 13.4918C0.546124 13.5267 0.25 13.8507 0.25 14.2388V14.4326C0.249994 15.3851 0.249989 16.1456 0.300176 16.7599C0.35165 17.3899 0.459634 17.9318 0.713223 18.4295C1.12068 19.2291 1.77085 19.8793 2.57054 20.2868C3.06824 20.5404 3.61012 20.6483 4.24013 20.6998C4.85438 20.75 5.6149 20.75 6.5673 20.75H12.4654C12.7334 20.75 12.9811 20.607 13.115 20.3748C13.249 20.1426 13.2489 19.8567 13.1147 19.6246L12.514 18.5856C12.1197 17.9037 12.192 17.1739 12.5675 16.2944C12.6478 16.1063 12.6478 15.8936 12.5675 15.7054C12.192 14.826 12.1197 14.0962 12.514 13.4143L13.1357 12.339C13.5303 11.6565 14.201 11.3526 15.1537 11.236C15.3558 11.2113 15.5392 11.1055 15.6617 10.9429C16.2375 10.1786 16.8358 9.75 17.6283 9.75H18.8717C19.3038 9.75 19.6606 9.87483 19.9822 10.0898C20.2688 10.2813 20.6491 10.2529 20.9039 10.0207C21.218 9.73473 21.6217 9.54834 22.0673 9.50818C22.4539 9.47335 22.75 9.14934 22.75 8.76121V8.56737C22.75 7.61496 22.75 6.85438 22.6998 6.24013C22.6483 5.61012 22.5404 5.06824 22.2868 4.57054C21.8793 3.77085 21.2291 3.12068 20.4295 2.71322C19.9318 2.45963 19.3899 2.35165 18.7599 2.30018C18.1456 2.24999 17.3851 2.24999 16.4326 2.25Z" fill="#353566"/>
<path d="M9.25 6V2.25H7.75V6C7.75 6.41421 8.08579 6.75 8.5 6.75C8.91421 6.75 9.25 6.41421 9.25 6Z" fill="#353566"/>
<path d="M9.25 10C9.25 9.58579 8.91421 9.25 8.5 9.25C8.08579 9.25 7.75 9.58579 7.75 10V13C7.75 13.4142 8.08579 13.75 8.5 13.75C8.91421 13.75 9.25 13.4142 9.25 13V10Z" fill="#353566"/>
<path d="M9.25 17C9.25 16.5858 8.91421 16.25 8.5 16.25C8.08579 16.25 7.75 16.5858 7.75 17V20.75H9.25V17Z" fill="#353566"/>
<path fill-rule="evenodd" clip-rule="evenodd" d="M13.8138 16.5449C13.2745 16.8569 13.09 17.5473 13.4012 18.0872L14.0209 19.1625C14.3321 19.7025 15.0219 19.8879 15.5615 19.5758C15.9792 19.3342 16.5027 19.6358 16.5027 20.1208C16.5027 20.744 17.0071 21.25 17.6303 21.25H18.8697C19.4929 21.25 19.9974 20.744 19.9974 20.1208C19.9974 19.6357 20.5209 19.3342 20.9386 19.5758C21.4782 19.8879 22.1679 19.7025 22.4792 19.1624L23.0989 18.0871C23.41 17.5473 23.2256 16.8568 22.6863 16.5449C22.2677 16.3028 22.2677 15.6971 22.6863 15.455C23.2256 15.1431 23.41 14.4526 23.0989 13.9128L22.4792 12.8375C22.1679 12.2974 21.4782 12.112 20.9386 12.4241C20.5209 12.6657 19.9974 12.3642 19.9974 11.8792C19.9974 11.256 19.4929 10.75 18.8698 10.75H17.6303C17.0071 10.75 16.5027 11.2559 16.5027 11.8791C16.5027 12.3641 15.9792 12.6657 15.5615 12.4241C15.0219 12.112 14.3321 12.2973 14.0209 12.8374L13.4012 13.9127C13.09 14.4525 13.2745 15.143 13.8138 15.455C14.2325 15.6971 14.2325 16.3028 13.8138 16.5449ZM19.75 16C19.75 16.8284 19.0784 17.5 18.25 17.5C17.4216 17.5 16.75 16.8284 16.75 16C16.75 15.1716 17.4216 14.5 18.25 14.5C19.0784 14.5 19.75 15.1716 19.75 16Z" fill="#353566"/>
</svg>
