<svg width="24" height="24" viewBox="0 0 24 24" fill="none" xmlns="http://www.w3.org/2000/svg">
<path opacity="0.4" d="M19.5 5.75L4.49998 5.75013C3.25735 5.75014 2.25 6.7575 2.25 8.00013V18.5002C2.25 20.8474 4.15279 22.7502 6.5 22.7502H17.5C19.8472 22.7502 21.75 20.8474 21.75 18.5001V8C21.75 6.75735 20.7426 5.74999 19.5 5.75Z" fill="#353566"/>
<path d="M12 1.25C9.37665 1.25 7.25 3.37665 7.25 6V6.5C7.25 6.91421 7.58579 7.25 8 7.25C8.41421 7.25 8.75 6.91421 8.75 6.5V6C8.75 4.20507 10.2051 2.75 12 2.75C13.7949 2.75 15.25 4.20507 15.25 6V6.5C15.25 6.91421 15.5858 7.25 16 7.25C16.4142 7.25 16.75 6.91421 16.75 6.5V6C16.75 3.37665 14.6234 1.25 12 1.25Z" fill="#353566"/>
<path d="M15.92 13.4998C15.92 13.0855 15.5843 12.7498 15.17 12.7498C14.7558 12.7498 14.42 13.0855 14.42 13.4998V14.25H13.6758L14.4306 11.7139C14.5487 11.3169 14.3227 10.8993 13.9257 10.7811C13.5287 10.663 13.111 10.889 12.9929 11.286L11.9512 14.786C11.8837 15.013 11.9273 15.2585 12.0688 15.4483C12.2104 15.6381 12.4333 15.75 12.6701 15.75H14.42V16.4998C14.42 16.914 14.7558 17.2498 15.17 17.2498C15.5843 17.2498 15.92 16.914 15.92 16.4998V15.75H16.0034C16.4176 15.75 16.7534 15.4142 16.7534 15C16.7534 14.5857 16.4176 14.25 16.0034 14.25H15.92V13.4998Z" fill="#353566"/>
<path d="M8.93448 12.4578C9.04767 12.3311 9.19564 12.25 9.45835 12.25C9.96424 12.25 10.1667 12.579 10.1667 12.8333C10.1667 13.0077 10.1123 13.1535 10.0527 13.2608C10.0233 13.3138 9.99476 13.3532 9.97646 13.3764C9.96838 13.3867 9.9627 13.3932 9.96039 13.3958L7.46107 15.9784C7.25167 16.1948 7.19198 16.5154 7.30949 16.7927C7.42699 17.0699 7.69891 17.25 8.00002 17.25H11.125C11.5392 17.25 11.875 16.9142 11.875 16.5C11.875 16.0858 11.5392 15.75 11.125 15.75H9.76952L11.0374 14.4399L11.0383 14.439L11.0486 14.4282C11.0563 14.4201 11.0655 14.4102 11.0761 14.3984C11.0972 14.3749 11.1237 14.344 11.1538 14.3059C11.2136 14.2301 11.2893 14.1237 11.364 13.9892C11.5127 13.7215 11.6667 13.3256 11.6667 12.8333C11.6667 11.7543 10.7964 10.75 9.45835 10.75C8.8044 10.75 8.23651 10.9874 7.81556 11.4588C7.55666 11.7488 7.25002 12.2145 7.25002 12.9167C7.25002 13.3309 7.58581 13.6667 8.00002 13.6667C8.41423 13.6667 8.75002 13.3309 8.75002 12.9167C8.75002 12.7973 8.77401 12.7141 8.8023 12.6516C8.83221 12.5855 8.87549 12.5239 8.93448 12.4578Z" fill="#353566"/>
</svg>
