<svg width="24" height="24" viewBox="0 0 24 24" fill="none" xmlns="http://www.w3.org/2000/svg">
<path opacity="0.4" d="M18.5215 4.99522C18.2377 4.85063 17.9428 4.79714 17.6463 4.77292C17.3653 4.74997 17.0243 4.74998 16.6289 4.75L3.37106 4.75012C2.97571 4.75011 2.63464 4.7501 2.35371 4.77305C2.0572 4.79728 1.76229 4.85077 1.47851 4.99537C1.05515 5.21108 0.710947 5.55529 0.495235 5.97865C0.350641 6.26244 0.297154 6.55735 0.272929 6.85385C0.249977 7.13477 0.249988 7.47583 0.250001 7.87118V15.4328C0.249995 16.3852 0.249991 17.1458 0.300177 17.76C0.351651 18.39 0.459635 18.9319 0.713224 19.4296C1.12069 20.2293 1.77085 20.8795 2.57054 21.2869C3.06824 21.5405 3.61012 21.6485 4.24013 21.7C4.85438 21.7502 5.6149 21.7502 6.56731 21.7501H11.1066C11.3977 21.7501 11.6625 21.5817 11.7858 21.3181C11.9092 21.0544 11.8689 20.7432 11.6824 20.5197C11.4177 20.2024 11.2471 19.8048 11.2471 19.25C11.2471 18.5993 11.481 18.1538 11.8505 17.7995C12.2456 17.4206 12.8159 17.1294 13.4979 16.8777L13.4991 16.8772C13.9026 16.7275 14.2189 16.4096 14.3708 16.0147C14.3843 15.9796 14.3951 15.9435 14.4032 15.9068C14.6843 14.6302 15.6649 13.5982 17.0378 13.7757L17.2465 13.8027C17.4466 13.8285 17.6487 13.7727 17.8071 13.6477C18.0642 13.4449 18.2979 13.2997 18.5534 13.2049C18.6284 13.1771 18.6985 13.1374 18.7611 13.0874L18.9472 12.9384C19.0535 12.8534 19.1346 12.7411 19.1819 12.6135C19.2739 12.3654 19.4074 12.1379 19.5725 11.943C19.6871 11.8076 19.75 11.6359 19.75 11.4585V7.87108C19.75 7.47576 19.75 7.13463 19.7271 6.85372C19.7028 6.55721 19.6494 6.2623 19.5048 5.97851C19.289 5.55514 18.9448 5.21094 18.5215 4.99522Z" fill="#353566"/>
<path d="M10 0.25C7.37665 0.25 5.25 2.37665 5.25 5V5.5C5.25 5.91421 5.58579 6.25 6 6.25C6.41421 6.25 6.75 5.91421 6.75 5.5V5C6.75 3.20507 8.20507 1.75 10 1.75C11.7949 1.75 13.25 3.20507 13.25 5V5.5C13.25 5.91421 13.5858 6.25 14 6.25C14.4142 6.25 14.75 5.91421 14.75 5.5V5C14.75 2.37665 12.6234 0.25 10 0.25Z" fill="#353566"/>
<path d="M6 8.5C5.44772 8.5 5 8.94771 5 9.5C5 10.0523 5.44772 10.5 6 10.5C6.55228 10.5 7.0001 10.0523 7.0001 9.5C7.0001 8.94771 6.55228 8.5 6 8.5Z" fill="#353566"/>
<path d="M13 9.5C13 8.94771 13.4477 8.5 14 8.5C14.5523 8.5 15.0001 8.94771 15.0001 9.5C15.0001 10.0523 14.5524 10.5 14.0001 10.5C13.4478 10.5 13 10.0523 13 9.5Z" fill="#353566"/>
<path d="M20.8731 13.0883C20.9167 12.9706 21.0833 12.9706 21.1269 13.0883L21.3211 13.6133C21.5038 14.107 21.893 14.4962 22.3867 14.6789L22.9117 14.8731C23.0294 14.9167 23.0294 15.0833 22.9117 15.1269L22.3867 15.3211C21.893 15.5038 21.5038 15.893 21.3211 16.3867L21.1269 16.9117C21.0833 17.0294 20.9167 17.0294 20.8731 16.9117L20.6789 16.3867C20.4962 15.893 20.107 15.5038 19.6133 15.3211L19.0883 15.1269C18.9706 15.0833 18.9706 14.9167 19.0883 14.8731L19.6133 14.6789C20.107 14.4962 20.4962 14.107 20.6789 13.6133L20.8731 13.0883Z" fill="#353566"/>
<path d="M17.6521 15.6281C17.3422 14.7906 16.1578 14.7906 15.8479 15.6281L15.5495 16.4345C15.2726 17.1827 14.6827 17.7726 13.9345 18.0495L13.1281 18.3479C12.2906 18.6578 12.2906 19.8422 13.1281 20.1521L13.9345 20.4505C14.6827 20.7274 15.2726 21.3173 15.5495 22.0655L15.8479 22.8719C16.1578 23.7094 17.3422 23.7094 17.6521 22.8719L17.9505 22.0655C18.2274 21.3173 18.8173 20.7274 19.5655 20.4505L20.3719 20.1521C21.2094 19.8422 21.2094 18.6578 20.3719 18.3479L19.5655 18.0495C18.8173 17.7726 18.2274 17.1827 17.9505 16.4345L17.6521 15.6281Z" fill="#353566"/>
</svg>
