<svg width="24" height="24" viewBox="0 0 24 24" fill="none" xmlns="http://www.w3.org/2000/svg">
<path fill-rule="evenodd" clip-rule="evenodd" d="M18.935 2.785C19.847 3.163 20.587 3.903 20.964 4.815H20.963C21.249 5.504 21.249 6.254 21.249 7.75V17.699C21.249 19.496 21.249 20.399 20.84 21.201C20.478 21.911 19.912 22.478 19.201 22.84C18.4 23.249 17.497 23.249 15.699 23.249H8.29902C6.50202 23.249 5.59902 23.249 4.79702 22.84C4.08702 22.478 3.52002 21.911 3.15802 21.201C2.74902 20.399 2.74902 19.497 2.74902 17.699V7.749C2.74902 6.253 2.74902 5.503 3.03502 4.814C3.41802 3.889 4.13902 3.168 5.06502 2.785C5.63602 2.549 6.29802 2.51 7.25002 2.503V2.5C7.25002 1.535 8.03502 0.75 9.00002 0.75H15C15.965 0.75 16.75 1.535 16.75 2.5V2.503C17.702 2.51 18.364 2.548 18.935 2.785ZM9.00002 2.25C8.86202 2.25 8.75002 2.362 8.75002 2.5L8.74802 2.499V3.399C8.74802 3.652 8.74902 3.904 8.76402 4.038C8.77202 4.08 8.78502 4.119 8.81102 4.151C8.82202 4.165 8.83502 4.177 8.84902 4.188C8.88202 4.213 8.92102 4.228 8.96302 4.235C9.09402 4.25 9.34702 4.25 9.59902 4.25H14.399C14.652 4.25 14.904 4.249 15.038 4.234C15.08 4.226 15.119 4.213 15.151 4.187C15.1646 4.17633 15.1754 4.16377 15.187 4.15024L15.188 4.149C15.214 4.116 15.229 4.077 15.236 4.034C15.25 3.904 15.25 3.652 15.25 3.4V2.5C15.25 2.362 15.138 2.25 15 2.25H9.00002ZM12.75 16.9998C12.75 17.4141 12.4142 17.7498 12 17.7498C11.5858 17.7498 11.25 17.4141 11.25 16.9998L11.25 11.8105L9.53035 13.5302C9.23746 13.8231 8.76259 13.8231 8.46969 13.5302C8.1768 13.2373 8.1768 12.7624 8.46969 12.4695L11.4697 9.46951C11.6103 9.32886 11.8011 9.24984 12 9.24984C12.1989 9.24984 12.3897 9.32886 12.5304 9.46951L15.5304 12.4695C15.8232 12.7624 15.8232 13.2373 15.5304 13.5302C15.2375 13.8231 14.7626 13.8231 14.4697 13.5302L12.75 11.8105V16.9998Z" fill="#353566"/>
</svg>
