<svg width="24" height="24" viewBox="0 0 24 24" fill="none" xmlns="http://www.w3.org/2000/svg">
<path fill-rule="evenodd" clip-rule="evenodd" d="M12.4326 1.25H6.56739C5.61495 1.24999 4.85439 1.24999 4.24013 1.30018C3.61012 1.35165 3.06824 1.45963 2.57054 1.71322C1.77085 2.12068 1.12068 2.77085 0.713223 3.57054C0.459634 4.06824 0.35165 4.61012 0.300176 5.24013C0.249989 5.85439 0.249994 6.61495 0.25 7.56738V16.4326C0.249994 17.3851 0.249989 18.1456 0.300176 18.7599C0.35165 19.3899 0.459634 19.9318 0.713223 20.4295C1.12069 21.2291 1.77085 21.8793 2.57054 22.2868C3.06824 22.5404 3.61012 22.6483 4.24013 22.6998C4.85438 22.75 5.61496 22.75 6.56737 22.75H12.4327C13.3851 22.75 14.1456 22.75 14.7599 22.6998C15.3899 22.6483 15.9318 22.5404 16.4295 22.2868C16.7217 22.1379 16.994 21.9565 17.2418 21.7473C17.4345 21.5846 17.5326 21.3359 17.5027 21.0854C17.4728 20.8349 17.319 20.6163 17.0934 20.5034L16.2452 20.0794C16.0704 19.9919 15.8683 19.9762 15.682 20.0356C15.2611 20.1698 14.8804 20.25 14.5 20.25C12.7051 20.25 11.25 18.7949 11.25 17C11.25 15.2051 12.7051 13.75 14.5 13.75C14.8804 13.75 15.2611 13.8302 15.682 13.9644C15.8683 14.0238 16.0704 14.0081 16.2452 13.9206L17.9899 13.0483C18.1648 12.9609 18.2986 12.8085 18.3628 12.6239C18.4418 12.3968 18.5393 12.181 18.6533 11.9787C18.7167 11.8663 18.75 11.7395 18.75 11.6104V7.5673C18.75 6.6149 18.75 5.85438 18.6998 5.24013C18.6483 4.61012 18.5404 4.06824 18.2868 3.57054C17.8793 2.77085 17.2292 2.12069 16.4295 1.71322C15.9318 1.45963 15.3899 1.35165 14.7599 1.30018C14.1456 1.24999 13.385 1.24999 12.4326 1.25ZM8.04144 8.25897C8.32807 7.95994 8.31801 7.48517 8.01898 7.19855C7.71995 6.91192 7.24518 6.92198 6.95856 7.22101L6.21184 8.00005L6.03154 7.81892C5.73932 7.52536 5.26444 7.52427 4.97088 7.8165C4.67732 8.10872 4.67624 8.58359 4.96846 8.87715L5.69044 9.60244C5.83292 9.74558 6.02711 9.8252 6.22907 9.82329C6.43102 9.82138 6.62367 9.73811 6.76342 9.5923L8.04144 8.25897ZM10 7.58997C9.58579 7.58997 9.25 7.92575 9.25 8.33997C9.25 8.75418 9.58579 9.08997 10 9.08997H13.5C13.9142 9.08997 14.25 8.75418 14.25 8.33997C14.25 7.92575 13.9142 7.58997 13.5 7.58997H10ZM9.25 12.17C9.25 11.7558 9.58579 11.42 10 11.42H13.5C13.9142 11.42 14.25 11.7558 14.25 12.17C14.25 12.5843 13.9142 12.92 13.5 12.92H10C9.58579 12.92 9.25 12.5843 9.25 12.17ZM8.5 16C8.5 15.5858 8.83579 15.25 9.25 15.25H10.9021C10.679 15.7079 10.5407 16.2147 10.5077 16.75H9.25C8.83579 16.75 8.5 16.4142 8.5 16ZM8.04144 12.089C8.32807 11.79 8.31801 11.3153 8.01898 11.0286C7.71995 10.742 7.24518 10.7521 6.95856 11.0511L6.21184 11.8301L6.03154 11.649C5.73932 11.3554 5.26444 11.3544 4.97088 11.6466C4.67732 11.9388 4.67624 12.4137 4.96846 12.7072L5.69044 13.4325C5.83292 13.5757 6.02711 13.6553 6.22907 13.6534C6.43102 13.6515 6.62367 13.5682 6.76342 13.4224L8.04144 12.089ZM6.5 15C5.94772 15 5.5 15.4477 5.5 16C5.5 16.5523 5.94782 17 6.5001 17C7.05238 17 7.5001 16.5523 7.5001 16C7.5001 15.4477 7.05228 15 6.5 15Z" fill="#353566"/>
<path d="M16.4615 16.6076L20.0098 14.8335C20.376 15.2425 20.9081 15.5 21.5004 15.5C22.605 15.5 23.5004 14.6046 23.5004 13.5C23.5004 12.3954 22.605 11.5 21.5004 11.5C20.426 11.5 19.5494 12.3473 19.5024 13.4101L15.6642 15.3292C15.652 15.3353 15.64 15.3417 15.6283 15.3484C15.3071 15.1286 14.9186 15 14.5 15C13.3954 15 12.5 15.8954 12.5 17C12.5 18.1046 13.3954 19 14.5 19C14.9186 19 15.3071 18.8714 15.6282 18.6516C15.64 18.6583 15.652 18.6647 15.6642 18.6708L19.5024 20.5899C19.5494 21.6528 20.4259 22.5 21.5004 22.5C22.605 22.5 23.5004 21.6046 23.5004 20.5C23.5004 19.3954 22.605 18.5 21.5004 18.5C20.9081 18.5 20.376 18.7575 20.0098 19.1665L16.4615 17.3924C16.4868 17.2655 16.5 17.1343 16.5 17C16.5 16.8657 16.4868 16.7345 16.4615 16.6076Z" fill="#353566"/>
</svg>
