<svg width="24" height="24" viewBox="0 0 24 24" fill="none" xmlns="http://www.w3.org/2000/svg">
<path fill-rule="evenodd" clip-rule="evenodd" d="M13.4326 1.25H7.56739C6.61496 1.24999 5.85439 1.24999 5.24013 1.30018C4.61012 1.35165 4.06824 1.45963 3.57054 1.71322C2.77085 2.12068 2.12068 2.77085 1.71322 3.57054C1.45963 4.06824 1.35165 4.61012 1.30018 5.24013C1.24999 5.85439 1.24999 6.61494 1.25 7.56738V16.4326C1.24999 17.3851 1.24999 18.1456 1.30018 18.7599C1.35165 19.3899 1.45963 19.9318 1.71322 20.4295C2.12069 21.2291 2.77085 21.8793 3.57054 22.2868C4.06824 22.5404 4.61012 22.6483 5.24013 22.6998C5.85438 22.75 6.61496 22.75 7.56737 22.75H13.4347C14.4053 22.75 15.1772 22.75 15.7987 22.6966C16.1113 22.6697 16.3741 22.4511 16.4575 22.1486C16.5408 21.8462 16.4271 21.5238 16.1724 21.3405C16.0959 21.2855 16.0197 21.2292 15.9437 21.1716C15.1732 20.5882 15.0215 19.4906 15.605 18.72C15.6807 18.6201 15.7723 18.5233 15.8997 18.3905L15.901 18.3891C15.935 18.3536 15.9719 18.3152 16.0086 18.2761C16.2535 18.0159 16.2808 17.6191 16.0739 17.3278C15.5492 16.5892 15.2501 15.8963 15.2501 15.0817C15.2501 13.666 16.1159 12.5148 17.4443 11.8815C17.6101 11.8024 17.7412 11.6653 17.8126 11.496C18.0908 10.8364 18.5754 10.4035 19.1513 10.2848C19.4999 10.213 19.75 9.90615 19.75 9.55025V7.5673C19.75 6.6149 19.75 5.85438 19.6998 5.24013C19.6483 4.61012 19.5404 4.06824 19.2868 3.57054C18.8793 2.77085 18.2292 2.12069 17.4295 1.71322C16.9318 1.45963 16.3899 1.35165 15.7599 1.30018C15.1456 1.24999 14.385 1.24999 13.4326 1.25ZM6.5 7C5.94772 7 5.5 7.44772 5.5 8C5.5 8.55228 5.94782 9 6.5001 9C7.05238 9 7.5001 8.55228 7.5001 8C7.5001 7.44772 7.05228 7 6.5 7ZM9.5 7.25C9.08579 7.25 8.75 7.58579 8.75 8C8.75 8.41421 9.08579 8.75 9.5 8.75H14.5C14.9142 8.75 15.25 8.41421 15.25 8C15.25 7.58579 14.9142 7.25 14.5 7.25H9.5ZM8.75 12C8.75 11.5858 9.08579 11.25 9.5 11.25H14.5C14.9142 11.25 15.25 11.5858 15.25 12C15.25 12.4142 14.9142 12.75 14.5 12.75H9.5C9.08579 12.75 8.75 12.4142 8.75 12ZM8.75 16C8.75 15.5858 9.08579 15.25 9.5 15.25H14.5L14.5036 15.25C14.525 15.7621 14.6436 16.2293 14.834 16.6717C14.7334 16.7218 14.62 16.75 14.5 16.75H9.5C9.08579 16.75 8.75 16.4142 8.75 16ZM6.5 11C5.94772 11 5.5 11.4477 5.5 12C5.5 12.5523 5.94772 13 6.5 13C7.05228 13 7.5001 12.5523 7.5001 12C7.5001 11.4477 7.05228 11 6.5 11ZM6.5 15C5.94772 15 5.5 15.4477 5.5 16C5.5 16.5523 5.94782 17 6.5001 17C7.05238 17 7.5001 16.5523 7.5001 16C7.5001 15.4477 7.05228 15 6.5 15Z" fill="#353566"/>
<path d="M19.5 11.25C19.9143 11.25 20.25 11.5858 20.25 12V12.5489C20.5143 12.5879 20.7685 12.6533 21.0266 12.7556C21.4998 12.9433 21.9411 13.2381 22.4528 13.6256C22.783 13.8756 22.848 14.346 22.598 14.6763C22.3479 15.0065 21.8775 15.0715 21.5473 14.8214C21.059 14.4517 20.7503 14.2597 20.4735 14.15C20.2143 14.0471 19.9407 14 19.5 14C18.8566 14 18.4008 14.1521 18.1275 14.35C17.8766 14.5317 17.75 14.7677 17.75 15.0817C17.75 15.461 17.916 15.6783 18.2414 15.8604C18.6142 16.0691 19.1186 16.1761 19.6233 16.2602C20.1186 16.3427 20.8642 16.4795 21.4914 16.8306C22.166 17.2083 22.75 17.8667 22.75 18.9183C22.75 19.7329 22.3766 20.4128 21.7525 20.8648C21.3312 21.1699 20.8154 21.3592 20.25 21.4452V22C20.25 22.4142 19.9143 22.75 19.5 22.75C19.0858 22.75 18.75 22.4142 18.75 22V21.4511C18.4857 21.4121 18.2316 21.3467 17.9735 21.2443C17.5003 21.0566 17.059 20.7618 16.5473 20.3743C16.2171 20.1243 16.1521 19.6539 16.4021 19.3236C16.6522 18.9934 17.1226 18.9284 17.4528 19.1785C17.9411 19.5482 18.2498 19.7402 18.5266 19.85C18.7858 19.9528 19.0594 20 19.5 20C20.1435 20 20.5993 19.8479 20.8726 19.6499C21.1235 19.4682 21.25 19.2322 21.25 18.9183C21.25 18.539 21.0841 18.3217 20.7587 18.1395C20.3859 17.9308 19.8815 17.8239 19.3767 17.7398C18.8815 17.6572 18.1359 17.5204 17.5087 17.1693C16.8341 16.7917 16.25 16.1332 16.25 15.0817C16.25 14.267 16.6235 13.5872 17.2476 13.1352C17.6689 12.8301 18.1846 12.6408 18.75 12.5548V12C18.75 11.5858 19.0858 11.25 19.5 11.25Z" fill="#353566"/>
</svg>
