<svg width="24" height="24" viewBox="0 0 24 24" fill="none" xmlns="http://www.w3.org/2000/svg">
<path opacity="0.4" fill-rule="evenodd" clip-rule="evenodd" d="M21.6111 13.7711C21.8643 12.8911 22 11.9614 22 11C22 5.47715 17.5228 1 12 1C6.47715 1 2 5.47715 2 11C2 16.5228 6.47715 21 12 21C14.0335 21 15.9252 20.393 17.5039 19.3504C16.7858 18.5991 16.1753 17.7681 16.1753 16.6777C16.1753 15.667 16.6464 14.8099 17.4176 14.2514C17.7596 14.0037 18.1486 13.824 18.5501 13.6963C18.5539 12.9473 19.2344 12.3251 19.9753 12.3251C20.7274 12.3251 21.3821 12.949 21.4001 13.6999C21.4713 13.7214 21.5416 13.7452 21.6111 13.7711ZM13.2499 13.9165H10.22L10.2352 10.9999H10.2215L10.22 8.08325H12.6249C13.4303 8.08325 14.0833 8.73617 14.0833 9.5416C14.0833 10.3407 13.4406 10.9896 12.644 10.9998H13.2499C14.0553 10.9998 14.7083 11.6527 14.7083 12.4582C14.7083 13.2636 14.0553 13.9165 13.2499 13.9165Z" fill="#353566"/>
<path d="M2.5 11.0002C2.5 5.75354 6.75329 1.50024 12 1.50024C17.2467 1.50024 21.5 5.75354 21.5 11.0002C21.5 11.734 21.4168 12.4484 21.2593 13.1344C21.3449 13.3076 21.3953 13.4993 21.4001 13.7002C21.633 13.7704 21.8564 13.8656 22.072 13.9774C22.3505 13.0335 22.5 12.0344 22.5 11.0002C22.5 5.20125 17.799 0.500244 12 0.500244C6.20101 0.500244 1.5 5.20125 1.5 11.0002C1.5 16.7992 6.20101 21.5002 12 21.5002C13.5262 21.5002 14.9764 21.1746 16.2849 20.589C16.3303 20.4805 16.3899 20.3758 16.4643 20.2776C16.728 19.9293 17.3151 19.4502 17.6001 19.4502C17.4493 19.2958 17.3022 19.1382 17.1633 18.9759C15.6768 19.9402 13.9038 20.5002 12 20.5002C6.75329 20.5002 2.5 16.2469 2.5 11.0002Z" fill="#353566"/>
<path fill-rule="evenodd" clip-rule="evenodd" d="M8.79167 8.08356C8.79167 7.80742 9.01552 7.58356 9.29167 7.58356H10.25V6.83358C10.25 6.55744 10.4739 6.33358 10.75 6.33358C11.0262 6.33358 11.25 6.55744 11.25 6.83358V7.58356H11.9167V6.83361C11.9167 6.55747 12.1405 6.33361 12.4167 6.33361C12.6928 6.33361 12.9167 6.55747 12.9167 6.83361V7.60513C13.8599 7.74599 14.5833 8.55946 14.5833 9.5419C14.5833 9.9905 14.4325 10.4039 14.1788 10.7341C14.7918 11.0649 15.2084 11.7131 15.2084 12.4586C15.2084 13.5402 14.3316 14.4169 13.25 14.4169H12.9167V15.1669C12.9167 15.4431 12.6928 15.6669 12.4167 15.6669C12.1405 15.6669 11.9167 15.4431 11.9167 15.1669V14.4169H11.25V15.1669C11.25 15.4431 11.0262 15.6669 10.75 15.6669C10.4739 15.6669 10.25 15.4431 10.25 15.1669V14.4169H9.29169C9.01554 14.4169 8.79169 14.1931 8.79169 13.9169C8.79169 13.6408 9.01554 13.4169 9.29169 13.4169H9.69684V8.58356H9.29167C9.01552 8.58356 8.79167 8.3597 8.79167 8.08356ZM13.25 13.4169H10.6968V11.5002H13.25C13.7793 11.5002 14.2084 11.9293 14.2084 12.4586C14.2084 12.9879 13.7793 13.4169 13.25 13.4169ZM12.4122 8.58356L12.4167 8.58358L12.4212 8.58356H12.625C13.1543 8.58356 13.5833 9.01262 13.5833 9.5419C13.5833 10.0712 13.1543 10.5002 12.625 10.5002H10.6968V8.58356H10.7455L10.75 8.58358L10.7545 8.58356H12.4122Z" fill="#353566"/>
<path d="M19.3917 14.4399V13.767C19.3917 13.4909 19.6156 13.267 19.8917 13.267C20.1679 13.267 20.3917 13.4909 20.3917 13.767V14.4358C20.6818 14.4653 20.9499 14.5261 21.222 14.634C21.6312 14.7963 22.0191 15.0537 22.4853 15.4066C22.7054 15.5733 22.7488 15.8869 22.5821 16.1071C22.4154 16.3272 22.1018 16.3706 21.8816 16.2039C21.4311 15.8627 21.1315 15.6739 20.8533 15.5635C20.5867 15.4578 20.3105 15.4128 19.8918 15.4128C19.2753 15.4128 18.8152 15.5582 18.5236 15.7694C18.247 15.9697 18.1001 16.2415 18.1001 16.5919C18.1001 17.0236 18.3045 17.278 18.6464 17.4694C19.02 17.6785 19.5125 17.7802 19.974 17.8571C20.4292 17.933 21.0825 18.0547 21.6256 18.3587C22.2003 18.6804 22.6835 19.2289 22.6835 20.1088C22.6835 20.7929 22.372 21.3607 21.8465 21.7412C21.4509 22.0277 20.9501 22.1984 20.3917 22.2608V22.9336C20.3917 23.2097 20.1679 23.4336 19.8917 23.4336C19.6156 23.4336 19.3917 23.2097 19.3917 22.9336V22.2649C19.1017 22.2354 18.8337 22.1746 18.5616 22.0667C18.1524 21.9044 17.7644 21.647 17.2983 21.294C17.0781 21.1273 17.0348 20.8137 17.2015 20.5936C17.3682 20.3734 17.6818 20.3301 17.902 20.4968C18.3525 20.8379 18.652 21.0268 18.9303 21.1371C19.195 21.2421 19.4692 21.2872 19.8831 21.2878C19.8859 21.2878 19.8888 21.2878 19.8917 21.2878C19.8946 21.2878 19.8974 21.2878 19.9002 21.2878C20.5125 21.2865 20.9697 21.1415 21.26 20.9313C21.5366 20.731 21.6835 20.4591 21.6835 20.1088C21.6835 19.6771 21.4791 19.4227 21.1372 19.2313C20.7636 19.0222 20.2711 18.9205 19.8096 18.8435C19.3544 18.7677 18.7011 18.646 18.158 18.342C17.5833 18.0202 17.1001 17.4718 17.1001 16.5919C17.1001 15.9077 17.4116 15.34 17.9371 14.9595C18.3326 14.673 18.8334 14.5023 19.3917 14.4399Z" fill="#353566"/>
</svg>
