<svg width="24" height="24" viewBox="0 0 24 24" fill="none" xmlns="http://www.w3.org/2000/svg">
<g clip-path="url(#clip0_9001_301889)">
<path opacity="0.4" d="M20.0245 15.3132C20.6498 14.0073 21 12.5446 21 11C21 5.47715 16.5228 1 11 1C5.47715 1 1 5.47715 1 11C1 16.5228 5.47715 21 11 21C12.2309 21 13.4098 20.7776 14.4988 20.3708C14.4944 20.2683 14.4926 20.1604 14.4926 20.0466C14.3829 20.0269 14.2697 20.0102 14.1553 19.9934C13.6298 19.9159 13.0772 19.8345 12.706 19.435C12.1704 18.8584 12.2035 17.9567 12.7801 17.4211C14.2792 16.0284 16.2913 15.175 18.4994 15.175C19.02 15.175 19.5298 15.2225 20.0245 15.3132Z" fill="#353566"/>
<path d="M1.5 11C1.5 5.75329 5.75329 1.5 11 1.5C16.2467 1.5 20.5 5.75329 20.5 11C20.5 12.5217 20.1422 13.9598 19.5063 15.2348C19.8532 15.2763 20.1938 15.3389 20.5265 15.4214C21.1512 14.0776 21.5 12.5795 21.5 11C21.5 5.20101 16.799 0.5 11 0.5C5.20101 0.5 0.5 5.20101 0.5 11C0.5 16.799 5.20101 21.5 11 21.5C12.2471 21.5 13.4435 21.2826 14.5532 20.8836C14.5072 20.6419 14.4926 20.3682 14.4926 20.0466C14.3829 20.0269 14.2698 20.0102 14.1554 19.9934L14.095 19.9844C13.1248 20.3186 12.0836 20.5 11 20.5C5.75329 20.5 1.5 16.2467 1.5 11Z" fill="#353566"/>
<path d="M12.0287 6.41926C11.2246 6.24012 10.3945 6.343 9.64641 6.70974C8.89997 7.07567 8.27522 7.68414 7.841 8.44651C7.6957 8.70161 7.57346 8.97082 7.47512 9.25H6.25C5.97386 9.25 5.75 9.47386 5.75 9.75C5.75 10.0261 5.97386 10.25 6.25 10.25H7.23144C7.19639 10.4972 7.17863 10.748 7.17863 11C7.17863 11.252 7.19639 11.5028 7.23144 11.75H6.25C5.97386 11.75 5.75 11.9739 5.75 12.25C5.75 12.5261 5.97386 12.75 6.25 12.75H7.47512C7.57346 13.0292 7.6957 13.2984 7.841 13.5535C8.27522 14.3159 8.89997 14.9243 9.64641 15.2903C10.3945 15.657 11.2246 15.7599 12.0287 15.5807C12.8316 15.4019 13.5593 14.9531 14.1259 14.3054C14.3077 14.0976 14.2866 13.7817 14.0787 13.5999C13.8709 13.418 13.555 13.4391 13.3732 13.647C12.9351 14.1477 12.3899 14.4757 11.8112 14.6047C11.2338 14.7333 10.6352 14.6613 10.0866 14.3924C9.53636 14.1226 9.05415 13.6629 8.70994 13.0586C8.65302 12.9586 8.60039 12.8556 8.55221 12.75H11.2495C11.5257 12.75 11.7495 12.5261 11.7495 12.25C11.7495 11.9739 11.5257 11.75 11.2495 11.75H8.24379C8.20075 11.505 8.17863 11.2537 8.17863 11C8.17863 10.7463 8.20075 10.495 8.24379 10.25H11.2495C11.5257 10.25 11.7495 10.0261 11.7495 9.75C11.7495 9.47386 11.5257 9.25 11.2495 9.25H8.55221C8.60039 9.14436 8.65302 9.04137 8.70994 8.94143C9.05415 8.33709 9.53636 7.87739 10.0866 7.60764C10.6352 7.3387 11.2338 7.26667 11.8112 7.39533C12.3899 7.52426 12.9351 7.85226 13.3732 8.35302C13.555 8.56086 13.8709 8.58195 14.0787 8.40013C14.2866 8.21831 14.3077 7.90243 14.1259 7.6946C13.5593 7.04695 12.8316 6.59813 12.0287 6.41926Z" fill="#353566"/>
<path d="M14.1769 18.7526C15.2901 17.7184 16.7804 17.0867 18.4193 17.0867C20.0588 17.0867 21.5496 17.7188 22.6629 18.7536C22.8651 18.9416 23.1815 18.9301 23.3695 18.7278C23.5575 18.5256 23.5459 18.2092 23.3437 18.0212C22.0527 16.8212 20.3212 16.0867 18.4193 16.0867C16.5181 16.0867 14.7871 16.8207 13.4963 18.02C13.294 18.2079 13.2823 18.5243 13.4703 18.7266C13.6583 18.9289 13.9746 18.9406 14.1769 18.7526Z" fill="#353566"/>
<path d="M18.4229 20.1422C17.6491 20.1422 16.9435 20.4686 16.4239 21.0077C16.2322 21.2065 15.9157 21.2124 15.7169 21.0207C15.518 20.8291 15.5122 20.5126 15.7038 20.3138C16.3984 19.5931 17.3586 19.1422 18.4229 19.1422C19.4872 19.1422 20.4475 19.5931 21.142 20.3138C21.3336 20.5126 21.3278 20.8291 21.129 21.0207C20.9301 21.2124 20.6136 21.2065 20.422 21.0077C19.9024 20.4686 19.1967 20.1422 18.4229 20.1422Z" fill="#353566"/>
<path d="M18.4199 21.67C17.9367 21.67 17.5449 22.0617 17.5449 22.545C17.5449 23.0282 17.9367 23.42 18.4199 23.42C18.9032 23.42 19.295 23.0282 19.295 22.545C19.295 22.0617 18.9032 21.67 18.4199 21.67Z" fill="#353566"/>
</g>
<defs>
<clipPath id="clip0_9001_301889">
<rect width="24" height="24" fill="white"/>
</clipPath>
</defs>
</svg>
