<svg width="24" height="24" viewBox="0 0 24 24" fill="none" xmlns="http://www.w3.org/2000/svg">
<g clip-path="url(#clip0_9001_301879)">
<path opacity="0.4" d="M20.8696 12.6191C20.9554 12.0921 21 11.5512 21 11C21 5.47715 16.5228 1 11 1C5.47715 1 1 5.47715 1 11C1 16.5228 5.47715 21 11 21C13.3342 21 15.4816 20.2003 17.1832 18.8598C17.0225 18.6669 16.8057 18.3984 16.5847 18.0999C16.1463 17.5081 15.8875 16.6826 15.8875 15.8875C15.8875 13.92 17.4825 12.325 19.45 12.325C19.9546 12.325 20.4347 12.4299 20.8696 12.6191Z" fill="#353566"/>
<path d="M11 1.5C5.75329 1.5 1.5 5.75329 1.5 11C1.5 16.2467 5.75329 20.5 11 20.5C13.215 20.5 15.2529 19.742 16.8685 18.4712C17.1888 18.8782 17.4446 19.1659 17.4446 19.1659L16.2718 20.0098C16.1586 20.0913 16.0487 20.1769 15.9424 20.2664C14.4694 21.0537 12.7868 21.5 11 21.5C5.20101 21.5 0.5 16.799 0.5 11C0.5 5.20101 5.20101 0.5 11 0.5C16.799 0.5 21.5 5.20101 21.5 11C21.5 11.6361 21.4434 12.2591 21.335 12.864C21.0453 12.683 20.7276 12.5424 20.39 12.4503C20.4624 11.9775 20.5 11.4931 20.5 11C20.5 5.75329 16.2467 1.5 11 1.5Z" fill="#353566"/>
<path d="M9.64641 6.70974C10.3945 6.343 11.2246 6.24012 12.0287 6.41926C12.8316 6.59813 13.5593 7.04695 14.1259 7.6946C14.3077 7.90243 14.2866 8.21831 14.0787 8.40013C13.8709 8.58195 13.555 8.56086 13.3732 8.35302C12.9351 7.85226 12.3899 7.52426 11.8112 7.39533C11.2338 7.26667 10.6352 7.3387 10.0866 7.60764C9.53636 7.87739 9.05415 8.33709 8.70994 8.94143C8.65302 9.04137 8.60039 9.14436 8.55221 9.25H11.2495C11.5257 9.25 11.7495 9.47386 11.7495 9.75C11.7495 10.0261 11.5257 10.25 11.2495 10.25H8.24379C8.20075 10.495 8.17863 10.7463 8.17863 11C8.17863 11.2537 8.20075 11.505 8.24379 11.75H11.2495C11.5257 11.75 11.7495 11.9739 11.7495 12.25C11.7495 12.5261 11.5257 12.75 11.2495 12.75H8.55221C8.60039 12.8556 8.65302 12.9586 8.70994 13.0586C9.05415 13.6629 9.53636 14.1226 10.0866 14.3924C10.6352 14.6613 11.2338 14.7333 11.8112 14.6047C12.3899 14.4757 12.9351 14.1477 13.3732 13.647C13.555 13.4391 13.8709 13.418 14.0787 13.5999C14.2866 13.7817 14.3077 14.0976 14.1259 14.3054C13.5593 14.9531 12.8316 15.4019 12.0287 15.5807C11.2246 15.7599 10.3945 15.657 9.64641 15.2903C8.89997 14.9243 8.27522 14.3159 7.841 13.5535C7.6957 13.2984 7.57346 13.0292 7.47512 12.75H6.25C5.97386 12.75 5.75 12.5261 5.75 12.25C5.75 11.9739 5.97386 11.75 6.25 11.75H7.23144C7.19639 11.5028 7.17863 11.252 7.17863 11C7.17863 10.748 7.19639 10.4972 7.23144 10.25H6.25C5.97386 10.25 5.75 10.0261 5.75 9.75C5.75 9.47386 5.97386 9.25 6.25 9.25H7.47512C7.57346 8.97082 7.6957 8.70161 7.841 8.44651C8.27522 7.68414 8.89997 7.07567 9.64641 6.70974Z" fill="#353566"/>
<path d="M19.3366 20.7534C17.8432 20.7534 16.5011 21.7798 16.1541 23.128C16.0853 23.3954 15.8127 23.5564 15.5453 23.4876C15.2779 23.4187 15.1169 23.1462 15.1857 22.8787C15.6528 21.064 17.4129 19.7534 19.3366 19.7534C21.2602 19.7534 23.0204 21.064 23.4875 22.8787C23.5563 23.1462 23.3953 23.4187 23.1279 23.4876C22.8605 23.5564 22.5879 23.3954 22.519 23.128C22.172 21.7798 20.83 20.7534 19.3366 20.7534Z" fill="#353566"/>
<path fill-rule="evenodd" clip-rule="evenodd" d="M19.3365 13.3367C17.9213 13.3367 16.774 14.4839 16.774 15.8992C16.774 17.3144 17.9213 18.4617 19.3365 18.4617C20.7518 18.4617 21.899 17.3144 21.899 15.8992C21.899 14.4839 20.7518 13.3367 19.3365 13.3367ZM17.774 15.8992C17.774 15.0362 18.4736 14.3367 19.3365 14.3367C20.1995 14.3367 20.899 15.0362 20.899 15.8992C20.899 16.7621 20.1995 17.4617 19.3365 17.4617C18.4736 17.4617 17.774 16.7621 17.774 15.8992Z" fill="#353566"/>
</g>
<defs>
<clipPath id="clip0_9001_301879">
<rect width="24" height="24" fill="white"/>
</clipPath>
</defs>
</svg>
