<svg width="24" height="24" viewBox="0 0 24 24" fill="none" xmlns="http://www.w3.org/2000/svg">
<path d="M17.2145 1.28129C16.8176 1.16281 16.3998 1.38853 16.2814 1.78544C16.1629 2.18235 16.3886 2.60015 16.7855 2.71862C18.5925 3.258 20.0897 4.43867 20.8483 6.23149L19.7786 5.8036C19.394 5.64976 18.9575 5.83682 18.8037 6.22141C18.6498 6.606 18.8369 7.04248 19.2215 7.19631L21.7215 8.19631C21.9748 8.29762 22.2631 8.25342 22.4744 8.08089C22.6857 7.90836 22.7866 7.63471 22.738 7.36629C22.1561 4.15354 19.929 2.09154 17.2145 1.28129Z" fill="#353566"/>
<path d="M6.7855 22.7186C7.18241 22.8371 7.60021 22.6114 7.71869 22.2145C7.83716 21.8176 7.61144 21.3998 7.21453 21.2813C5.40751 20.7419 3.91037 19.5612 3.15175 17.7684L4.22148 18.1963C4.60606 18.3501 5.04254 18.1631 5.19638 17.7785C5.35021 17.3939 5.16315 16.9574 4.77856 16.8036L2.27856 15.8036C2.02528 15.7023 1.73697 15.7465 1.52567 15.919C1.31437 16.0915 1.21341 16.3652 1.26203 16.6336C1.84393 19.8464 4.071 21.9084 6.7855 22.7186Z" fill="#353566"/>
<path d="M15.3591 10.6231C15.1982 10.3478 14.8003 10.3478 14.6395 10.6232L12.3106 14.6114C12.1942 14.8107 12.262 15.0666 12.4617 15.1822L14.7907 16.53C14.9198 16.6047 15.0789 16.6047 15.208 16.5301L17.5382 15.1822C17.738 15.0666 17.8058 14.8106 17.6893 14.6113L15.3591 10.6231Z" fill="#353566"/>
<path d="M12.4071 16.0555C12.3578 15.9822 12.4416 15.8927 12.518 15.9369L14.8428 17.2823C14.9396 17.3383 15.059 17.3383 15.1558 17.2823L17.4821 15.9367C17.5585 15.8925 17.6423 15.982 17.593 16.0553L15.3452 19.3991C15.18 19.6447 14.8186 19.6447 14.6535 19.399L12.4071 16.0555Z" fill="#353566"/>
<path fill-rule="evenodd" clip-rule="evenodd" d="M7.41205 16.5871C3.89327 15.854 1.25 12.7363 1.25 9.00002C1.25 4.7198 4.71979 1.25 9 1.25C12.7365 1.25 15.8544 3.89362 16.5872 7.41276C20.1058 8.14535 22.7494 11.2639 22.7494 15C22.7494 19.2802 19.2796 22.75 14.9994 22.75C11.2631 22.75 8.14437 20.1061 7.41205 16.5871ZM2.75 9.00002C2.75 5.54823 5.54822 2.75 9 2.75C11.844 2.75 14.2452 4.65016 15.0019 7.24997L14.9994 7.24997C10.7192 7.24997 7.2494 10.7198 7.2494 15L7.2494 15.0017C4.64988 14.2449 2.75 11.8438 2.75 9.00002ZM14.9994 8.74997C18.4512 8.74997 21.2494 11.5482 21.2494 15C21.2494 18.4518 18.4512 21.25 14.9994 21.25C11.5476 21.25 8.7494 18.4518 8.7494 15C8.7494 11.5482 11.5476 8.74997 14.9994 8.74997Z" fill="#353566"/>
</svg>
