<svg width="24" height="24" viewBox="0 0 24 24" fill="none" xmlns="http://www.w3.org/2000/svg">
<path d="M14.75 11.8172V11.5C14.75 11.0858 15.0858 10.75 15.5 10.75C15.9142 10.75 16.25 11.0858 16.25 11.5V11.8123C16.4266 11.8459 16.6003 11.8952 16.7765 11.9651C17.1747 12.123 17.541 12.3691 17.9528 12.6809C18.283 12.931 18.348 13.4014 18.0979 13.7316C17.8479 14.0618 17.3775 14.1268 17.0472 13.8768C16.659 13.5828 16.4253 13.4394 16.2235 13.3594C16.0392 13.2863 15.8406 13.25 15.5 13.25C15.0065 13.25 14.6758 13.3669 14.4899 13.5015C14.3265 13.6199 14.25 13.7643 14.25 13.9654C14.25 14.2016 14.3409 14.3313 14.5663 14.4575C14.8391 14.6102 15.2185 14.6927 15.6233 14.7602C16.0185 14.8261 16.6392 14.9385 17.1663 15.2336C17.7409 15.5553 18.25 16.1262 18.25 17.0346C18.25 17.7364 17.9266 18.3247 17.3899 18.7133C17.0627 18.9503 16.6726 19.1031 16.25 19.1828V19.5C16.25 19.9142 15.9142 20.25 15.5 20.25C15.0858 20.25 14.75 19.9142 14.75 19.5V19.1877C14.5734 19.1541 14.3997 19.1048 14.2235 19.0349C13.8252 18.8769 13.459 18.6308 13.0472 18.3191C12.717 18.069 12.652 17.5986 12.9021 17.2684C13.1521 16.9382 13.6225 16.8732 13.9527 17.1232C14.341 17.4172 14.5748 17.5605 14.7765 17.6406C14.9608 17.7137 15.1594 17.75 15.5 17.75C15.9935 17.75 16.3242 17.6331 16.5101 17.4985C16.6734 17.3801 16.75 17.2357 16.75 17.0346C16.75 16.7984 16.6591 16.6687 16.4337 16.5425C16.1608 16.3898 15.7815 16.3073 15.3767 16.2398C14.9815 16.1739 14.3608 16.0615 13.8337 15.7664C13.2591 15.4447 12.75 14.8738 12.75 13.9654C12.75 13.2636 13.0734 12.6753 13.6101 12.2867C13.9373 12.0497 14.3275 11.8969 14.75 11.8172Z" fill="#353566"/>
<path fill-rule="evenodd" clip-rule="evenodd" d="M8.5 18.75C8.67207 18.75 8.84278 18.7462 9.01192 18.7388C10.2014 21.117 12.66 22.75 15.5 22.75C19.5041 22.75 22.75 19.5041 22.75 15.5C22.75 11.5796 19.6383 8.38599 15.75 8.25423V6C15.75 4.53785 14.7897 3.33307 13.4893 2.53283C12.1768 1.72512 10.4109 1.25 8.50001 1.25C6.58914 1.25 4.82327 1.72512 3.51075 2.53283C2.21166 3.33227 1.25195 4.53542 1.25002 5.99559L1.25 6.00055V14.1176C1.25 15.5583 2.22354 16.7328 3.51922 17.5067C4.83036 18.2899 6.59311 18.75 8.5 18.75ZM8.50001 2.75C10.179 2.75 11.6631 3.17031 12.7031 3.81032C13.7553 4.45779 14.25 5.25301 14.25 6L14.25 6.0018C14.2492 6.74826 13.7544 7.54273 12.7031 8.18968C11.6631 8.82969 10.179 9.25 8.50001 9.25C6.82103 9.25 5.3369 8.82969 4.29689 8.18968C3.24475 7.54221 2.75001 6.74699 2.75001 6C2.75001 5.25301 3.24475 4.45779 4.29689 3.81032C5.3369 3.17031 6.82104 2.75 8.50001 2.75ZM8.50001 10.75C9.05722 10.75 9.60211 10.7096 10.127 10.6323C9.44976 11.3794 8.92616 12.2684 8.60612 13.2494C8.57083 13.2498 8.53545 13.25 8.5 13.25C6.81704 13.25 5.32978 12.841 4.28839 12.2189C3.23196 11.588 2.75039 10.8217 2.75 10.1185L2.75 8.91747C2.9852 9.11728 3.24064 9.30095 3.51075 9.46717C4.82327 10.2749 6.58914 10.75 8.50001 10.75ZM3.51922 13.5067C4.78176 14.2608 6.46303 14.7154 8.28854 14.7481C8.26307 14.9952 8.25001 15.2461 8.25001 15.5C8.25001 16.1033 8.32372 16.6895 8.4626 17.2499C6.79501 17.2439 5.32206 16.8363 4.28839 16.2189C3.23154 15.5877 2.75 14.8211 2.75 14.1176L2.75 12.9661C2.98809 13.1632 3.24652 13.3438 3.51922 13.5067ZM21.25 15.5C21.25 12.3244 18.6757 9.75 15.5 9.75C12.3244 9.75 9.75001 12.3244 9.75001 15.5C9.75001 18.6756 12.3244 21.25 15.5 21.25C18.6756 21.25 21.25 18.6756 21.25 15.5Z" fill="#353566"/>
</svg>
