<svg width="24" height="24" viewBox="0 0 24 24" fill="none" xmlns="http://www.w3.org/2000/svg">
<g clip-path="url(#clip0_9001_297394)">
<path fill-rule="evenodd" clip-rule="evenodd" d="M8.78033 5.46967L6.53033 3.21967C6.23744 2.92678 5.76256 2.92678 5.46967 3.21967L3.21967 5.46967C2.92678 5.76256 2.92678 6.23744 3.21967 6.53033L5.46967 8.78033C5.76256 9.07322 6.23744 9.07322 6.53033 8.78033L8.78033 6.53033C9.07322 6.23744 9.07322 5.76256 8.78033 5.46967ZM6 7.18934L4.81066 6L6 4.81066L7.18934 6L6 7.18934Z" fill="#353566"/>
<path fill-rule="evenodd" clip-rule="evenodd" d="M0.25 6C0.25 2.82436 2.82436 0.25 6 0.25C9.17564 0.25 11.75 2.82436 11.75 6C11.75 9.17564 9.17564 11.75 6 11.75C2.82436 11.75 0.25 9.17564 0.25 6ZM6 1.75C3.65279 1.75 1.75 3.65279 1.75 6C1.75 8.34721 3.65279 10.25 6 10.25C8.34721 10.25 10.25 8.34721 10.25 6C10.25 3.65279 8.34721 1.75 6 1.75Z" fill="#353566"/>
<path d="M15.5 2.25C17.5711 2.25 19.25 3.92893 19.25 6V8.68934L20.4697 7.46967C20.7626 7.17678 21.2374 7.17678 21.5303 7.46967C21.8232 7.76256 21.8232 8.23744 21.5303 8.53033L19.0303 11.0303C18.7374 11.3232 18.2626 11.3232 17.9697 11.0303L15.4697 8.53033C15.1768 8.23744 15.1768 7.76256 15.4697 7.46967C15.7626 7.17678 16.2374 7.17678 16.5303 7.46967L17.75 8.68934V6C17.75 4.75736 16.7426 3.75 15.5 3.75H14C13.5858 3.75 13.25 3.41421 13.25 3C13.25 2.58579 13.5858 2.25 14 2.25H15.5Z" fill="#353566"/>
<path d="M8.5 21.75H10C10.4142 21.75 10.75 21.4142 10.75 21C10.75 20.5858 10.4142 20.25 10 20.25H8.5C7.25736 20.25 6.25 19.2426 6.25 18V15.3107L7.46967 16.5303C7.76256 16.8232 8.23744 16.8232 8.53033 16.5303C8.82322 16.2374 8.82322 15.7626 8.53033 15.4697L6.03033 12.9697C5.73744 12.6768 5.26256 12.6768 4.96967 12.9697L2.46967 15.4697C2.17678 15.7626 2.17678 16.2374 2.46967 16.5303C2.76256 16.8232 3.23744 16.8232 3.53033 16.5303L4.75 15.3107V18C4.75 20.0711 6.42893 21.75 8.5 21.75Z" fill="#353566"/>
<path fill-rule="evenodd" clip-rule="evenodd" d="M20.7803 17.4697L18.5303 15.2197C18.2374 14.9268 17.7626 14.9268 17.4697 15.2197L15.2197 17.4697C14.9268 17.7626 14.9268 18.2374 15.2197 18.5303L17.4697 20.7803C17.7626 21.0732 18.2374 21.0732 18.5303 20.7803L20.7803 18.5303C21.0732 18.2374 21.0732 17.7626 20.7803 17.4697ZM18 19.1893L16.8107 18L18 16.8107L19.1893 18L18 19.1893Z" fill="#353566"/>
<path fill-rule="evenodd" clip-rule="evenodd" d="M12.25 18C12.25 14.8244 14.8244 12.25 18 12.25C21.1756 12.25 23.75 14.8244 23.75 18C23.75 21.1756 21.1756 23.75 18 23.75C14.8244 23.75 12.25 21.1756 12.25 18ZM18 13.75C15.6528 13.75 13.75 15.6528 13.75 18C13.75 20.3472 15.6528 22.25 18 22.25C20.3472 22.25 22.25 20.3472 22.25 18C22.25 15.6528 20.3472 13.75 18 13.75Z" fill="#353566"/>
</g>
<defs>
<clipPath id="clip0_9001_297394">
<rect width="24" height="24" fill="white"/>
</clipPath>
</defs>
</svg>
