<svg width="24" height="24" viewBox="0 0 24 24" fill="none" xmlns="http://www.w3.org/2000/svg">
<path d="M5.5 11C4.94772 11 4.5 11.4477 4.5 12C4.5 12.5523 4.94772 13 5.5 13C6.05228 13 6.5001 12.5523 6.5001 12C6.5001 11.4477 6.05228 11 5.5 11Z" fill="#353566"/>
<path fill-rule="evenodd" clip-rule="evenodd" d="M2.53033 1.46967C2.23744 1.17678 1.76256 1.17678 1.46967 1.46967C1.17678 1.76256 1.17678 2.23744 1.46967 2.53033L2.80191 3.86257C2.12517 4.27151 1.57404 4.8624 1.21322 5.57054C0.959634 6.06824 0.85165 6.61012 0.800176 7.24013C0.749989 7.8544 0.749994 8.61494 0.75 9.56739V14.4326C0.749994 15.3851 0.749989 16.1456 0.800176 16.7599C0.85165 17.3899 0.959634 17.9318 1.21322 18.4295C1.62068 19.2291 2.27085 19.8793 3.07054 20.2868C3.56824 20.5404 4.11012 20.6483 4.74013 20.6998C5.35438 20.75 6.1149 20.75 7.0673 20.75L16.9942 20.75C18.0758 20.7501 18.9212 20.7501 19.6036 20.6643L21.4697 22.5303C21.7626 22.8232 22.2374 22.8232 22.5303 22.5303C22.8232 22.2374 22.8232 21.7626 22.5303 21.4697L20.4016 19.341C20.3965 19.3357 20.3913 19.3305 20.3861 19.3254L4.67564 3.61498C4.67047 3.60966 4.66523 3.60442 4.65992 3.59925L2.53033 1.46967ZM3.91609 4.97675C3.85749 4.99919 3.80302 5.0235 3.75153 5.04973C3.23408 5.31338 2.81338 5.73408 2.54973 6.25153C2.42184 6.50252 2.33909 6.82503 2.29519 7.36228C2.25058 7.90829 2.25 8.60753 2.25 9.6V14.4C2.25 15.3925 2.25058 16.0917 2.29519 16.6377C2.33909 17.175 2.42184 17.4975 2.54973 17.7485C2.81338 18.2659 3.23408 18.6866 3.75153 18.9503C4.00252 19.0782 4.32503 19.1609 4.86228 19.2048C5.40829 19.2494 6.10753 19.25 7.1 19.25H16.9C17.3979 19.25 17.8201 19.2495 18.1833 19.244L14.068 15.1286C13.4753 15.521 12.764 15.75 12 15.75C9.92893 15.75 8.25 14.0711 8.25 12C8.25 11.236 8.479 10.5247 8.87138 9.93204L3.91609 4.97675ZM9.96914 11.0298C9.82853 11.3235 9.75 11.6524 9.75 12C9.75 13.2426 10.7574 14.25 12 14.25C12.3476 14.25 12.6765 14.1715 12.9702 14.0309L9.96914 11.0298Z" fill="#353566"/>
<path d="M16.9 4.75C17.8925 4.75 18.5917 4.75058 19.1377 4.79519C19.675 4.83909 19.9975 4.92184 20.2485 5.04973C20.7659 5.31338 21.1866 5.73408 21.4503 6.25153C21.5782 6.50252 21.6609 6.82503 21.7048 7.36228C21.7494 7.90829 21.75 8.60753 21.75 9.6V14.4C21.75 15.3925 21.7494 16.0917 21.7048 16.6377C21.6609 17.175 21.5781 17.4975 21.4503 17.7485L21.4424 17.7638C21.252 18.1316 21.3959 18.5842 21.7638 18.7746C22.1316 18.965 22.5842 18.8211 22.7746 18.4532L22.7868 18.4295C23.0404 17.9318 23.1483 17.3899 23.1998 16.7599C23.25 16.1456 23.25 15.3851 23.25 14.4327V9.56737C23.25 8.61496 23.25 7.85438 23.1998 7.24013C23.1483 6.61012 23.0404 6.06824 22.7868 5.57054C22.3793 4.77085 21.7291 4.12068 20.9295 3.71322C20.4318 3.45963 19.8899 3.35165 19.2599 3.30018C18.6456 3.24999 17.8851 3.24999 16.9326 3.25L8 3.25C7.58579 3.25 7.25 3.58579 7.25 4C7.25 4.41421 7.58579 4.75 8 4.75H16.9Z" fill="#353566"/>
<path d="M17.5 12C17.5 11.4477 17.9477 11 18.5 11C19.0523 11 19.5001 11.4477 19.5001 12C19.5001 12.5523 19.0524 13 18.5001 13C17.9478 13 17.5 12.5523 17.5 12Z" fill="#353566"/>
</svg>
