<svg width="24" height="24" viewBox="0 0 24 24" fill="none" xmlns="http://www.w3.org/2000/svg">
<g clip-path="url(#clip0_9001_297674)">
<path fill-rule="evenodd" clip-rule="evenodd" d="M3.75 9.98706L3.75001 9.98324C3.75001 9.48092 3.7514 9.08583 3.75985 8.76559C3.8788 7.35653 5.06018 6.25 6.5 6.25H19.5C21.0188 6.25 22.25 7.48122 22.25 9V17.5C22.25 19.0188 21.0188 20.25 19.5 20.25H13.4942C13.08 20.25 12.7442 20.5858 12.7442 21C12.7442 21.4142 13.08 21.75 13.4942 21.75H19.5C21.8472 21.75 23.75 19.8472 23.75 17.5V9C23.75 6.90871 22.2395 5.17021 20.25 4.81597V4.17121C20.25 3.53763 20.25 3.01181 20.2122 2.59218C20.1734 2.16139 20.0886 1.74467 19.8527 1.37785C19.505 0.837194 18.9624 0.451243 18.3376 0.300153C17.9137 0.197641 17.4922 0.254264 17.0726 0.358916C16.6638 0.460855 16.1671 0.63336 15.5686 0.841215L6.3699 4.03566C5.15776 4.45613 4.35407 4.73492 3.74518 5.25323C3.20887 5.70975 2.79442 6.29241 2.5391 6.94881C2.34172 7.45626 2.27888 8.01258 2.25901 8.72101C2.25303 8.81324 2.25 8.90627 2.25 9V12.5891C2.25 13.0033 2.58579 13.3391 3 13.3391C3.41421 13.3391 3.75 13.0033 3.75 12.5891V9.98706ZM16.0275 2.26972C16.6676 2.04743 17.1002 1.89796 17.4355 1.81435C17.7675 1.73157 17.9092 1.73979 17.9851 1.75813C18.235 1.81857 18.452 1.97295 18.5911 2.18921C18.6333 2.25482 18.6876 2.38604 18.7183 2.7268C18.7493 3.071 18.75 3.52866 18.75 4.20627V4.75H8.88539L16.0275 2.26972Z" fill="#353566"/>
<path d="M18 13.25C18 12.6977 18.4477 12.25 19 12.25C19.5523 12.25 20.0001 12.6977 20.0001 13.25C20.0001 13.8023 19.5524 14.25 19.0001 14.25C18.4478 14.25 18 13.8023 18 13.25Z" fill="#353566"/>
<path fill-rule="evenodd" clip-rule="evenodd" d="M6 16.875C4.82521 16.875 3.875 17.8252 3.875 19C3.875 20.1748 4.82521 21.125 6 21.125C7.17479 21.125 8.125 20.1748 8.125 19C8.125 17.8252 7.17479 16.875 6 16.875ZM5.125 19C5.125 18.5156 5.51557 18.125 6 18.125C6.48443 18.125 6.875 18.5156 6.875 19C6.875 19.4844 6.48443 19.875 6 19.875C5.51557 19.875 5.125 19.4844 5.125 19Z" fill="#353566"/>
<path fill-rule="evenodd" clip-rule="evenodd" d="M6 14.25C8.31454 14.25 10.5739 15.665 11.6301 18.3627C11.79 18.771 11.79 19.229 11.6301 19.6373C10.5739 22.335 8.31454 23.75 6 23.75C3.68546 23.75 1.42613 22.335 0.369891 19.6373C0.210036 19.229 0.210036 18.771 0.369891 18.3627C1.42613 15.665 3.68546 14.25 6 14.25ZM6 15.75C4.3319 15.75 2.6086 16.7591 1.76665 18.9096C1.74445 18.9663 1.74445 19.0337 1.76665 19.0904C2.6086 21.2409 4.3319 22.25 6 22.25C7.6681 22.25 9.3914 21.2409 10.2333 19.0904C10.2556 19.0337 10.2556 18.9663 10.2333 18.9096C9.3914 16.7591 7.6681 15.75 6 15.75Z" fill="#353566"/>
</g>
<defs>
<clipPath id="clip0_9001_297674">
<rect width="24" height="24" fill="white"/>
</clipPath>
</defs>
</svg>
