<svg width="24" height="24" viewBox="0 0 24 24" fill="none" xmlns="http://www.w3.org/2000/svg">
<g clip-path="url(#clip0_9001_297584)">
<path fill-rule="evenodd" clip-rule="evenodd" d="M3.75012 9.82993C3.75044 9.40006 3.75233 9.05337 3.75988 8.76664C3.87833 7.35708 5.05994 6.25 6.50012 6.25H19.5001C21.0189 6.25 22.2501 7.48122 22.2501 9V17.5C22.2501 19.0188 21.0189 20.25 19.5001 20.25H11.4463C11.0321 20.25 10.6963 20.5858 10.6963 21C10.6963 21.4142 11.0321 21.75 11.4463 21.75H19.5001C21.8473 21.75 23.7501 19.8472 23.7501 17.5V9C23.7501 6.90869 22.2396 5.17017 20.2501 4.81596V4.17121C20.2501 3.53763 20.2501 3.01181 20.2123 2.59218C20.1735 2.16139 20.0887 1.74467 19.8528 1.37785C19.5051 0.837194 18.9625 0.451243 18.3377 0.300153C17.9138 0.197641 17.4923 0.254264 17.0726 0.358916C16.6638 0.460855 16.1671 0.63336 15.5686 0.841215L6.36996 4.03566C5.15782 4.45613 4.35413 4.73492 3.74524 5.25323C3.20893 5.70975 2.79449 6.29241 2.53916 6.94881C2.34162 7.45665 2.27884 8.01345 2.25903 8.72268C2.25312 8.81436 2.25012 8.90683 2.25012 9V9.49562C2.24996 9.60305 2.24999 9.71367 2.25003 9.8277L2.25007 9.98324L2.25012 9.99212V10.3944C2.25012 10.8086 2.58591 11.1444 3.00012 11.1444C3.41434 11.1444 3.75012 10.8086 3.75012 10.3944V9.82993ZM16.0276 2.26972C16.6677 2.04743 17.1002 1.89796 17.4356 1.81435C17.7675 1.73157 17.9093 1.73979 17.9851 1.75813C18.235 1.81857 18.4521 1.97295 18.5912 2.18921C18.6334 2.25482 18.6876 2.38604 18.7183 2.7268C18.7494 3.071 18.7501 3.52866 18.7501 4.20627V4.75H8.88545L16.0276 2.26972Z" fill="#353566"/>
<path d="M18.0001 13.25C18.0001 12.6977 18.4478 12.25 19.0001 12.25C19.5524 12.25 20.0002 12.6977 20.0002 13.25C20.0002 13.8023 19.5525 14.25 19.0002 14.25C18.4479 14.25 18.0001 13.8023 18.0001 13.25Z" fill="#353566"/>
<path d="M5.00017 20.75C3.459 20.75 2.08047 21.8117 1.72651 23.1869C1.62326 23.5881 1.21438 23.8296 0.813237 23.7263C0.412098 23.6231 0.170607 23.2142 0.273853 22.8131C0.807973 20.7379 2.81367 19.25 5.00017 19.25C7.18667 19.25 9.19239 20.7379 9.72651 22.8131C9.82975 23.2142 9.58826 23.6231 9.18713 23.7263C8.78598 23.8296 8.3771 23.5881 8.27385 23.1869C7.91989 21.8117 6.54135 20.75 5.00017 20.75Z" fill="#353566"/>
<path fill-rule="evenodd" clip-rule="evenodd" d="M5.00012 12.25C3.34327 12.25 2.00012 13.5931 2.00012 15.25C2.00012 16.9069 3.34327 18.25 5.00012 18.25C6.65698 18.25 8.00012 16.9069 8.00012 15.25C8.00012 13.5931 6.65698 12.25 5.00012 12.25ZM3.50012 15.25C3.50012 14.4216 4.17169 13.75 5.00012 13.75C5.82855 13.75 6.50012 14.4216 6.50012 15.25C6.50012 16.0784 5.82855 16.75 5.00012 16.75C4.17169 16.75 3.50012 16.0784 3.50012 15.25Z" fill="#353566"/>
</g>
<defs>
<clipPath id="clip0_9001_297584">
<rect width="24" height="24" fill="white"/>
</clipPath>
</defs>
</svg>
