<svg width="24" height="24" viewBox="0 0 24 24" fill="none" xmlns="http://www.w3.org/2000/svg">
<g clip-path="url(#clip0_9001_297634)">
<path fill-rule="evenodd" clip-rule="evenodd" d="M3.75 9.98706L3.75001 9.98324C3.75001 9.48092 3.7514 9.08583 3.75985 8.76559C3.8788 7.35653 5.06018 6.25 6.5 6.25H19.5C21.0188 6.25 22.25 7.48122 22.25 9V17.5C22.25 19.0188 21.0188 20.25 19.5 20.25H12C11.5858 20.25 11.25 20.5858 11.25 21C11.25 21.4142 11.5858 21.75 12 21.75H19.5C21.8472 21.75 23.75 19.8472 23.75 17.5V9C23.75 6.90871 22.2395 5.17021 20.25 4.81597V4.17121C20.25 3.53763 20.25 3.01181 20.2122 2.59218C20.1734 2.16139 20.0886 1.74467 19.8527 1.37785C19.505 0.837194 18.9624 0.451243 18.3376 0.300153C17.9137 0.197641 17.4922 0.254264 17.0726 0.358916C16.6638 0.460855 16.1671 0.63336 15.5686 0.841215L6.3699 4.03566C5.15776 4.45613 4.35407 4.73492 3.74518 5.25323C3.20887 5.70975 2.79442 6.29241 2.5391 6.94881C2.34172 7.45626 2.27888 8.01258 2.25901 8.72101C2.25303 8.81324 2.25 8.90627 2.25 9V10.3862C2.25 10.8004 2.58579 11.1362 3 11.1362C3.41421 11.1362 3.75 10.8004 3.75 10.3862V9.98706ZM16.0275 2.26972C16.6676 2.04743 17.1002 1.89796 17.4355 1.81435C17.7675 1.73157 17.9092 1.73979 17.9851 1.75813C18.235 1.81857 18.452 1.97295 18.5911 2.18921C18.6333 2.25482 18.6876 2.38604 18.7183 2.7268C18.7493 3.071 18.75 3.52866 18.75 4.20627V4.75H8.88539L16.0275 2.26972Z" fill="#353566"/>
<path d="M18 13.25C18 12.6977 18.4477 12.25 19 12.25C19.5523 12.25 20.0001 12.6977 20.0001 13.25C20.0001 13.8023 19.5524 14.25 19.0001 14.25C18.4478 14.25 18 13.8023 18 13.25Z" fill="#353566"/>
<path fill-rule="evenodd" clip-rule="evenodd" d="M2 15C2 13.4006 3.42863 12.25 5 12.25C6.57137 12.25 8 13.4006 8 15V16.0155C8.98658 16.1385 9.75 16.9801 9.75 18V21.75C9.75 22.8546 8.85457 23.75 7.75 23.75H2.25C1.14543 23.75 0.25 22.8546 0.25 21.75V18C0.25 16.9801 1.01342 16.1385 2 16.0155L2 15ZM3.5 16H6.5V15C6.5 14.3902 5.91391 13.75 5 13.75C4.08609 13.75 3.5 14.3902 3.5 15V16ZM2.25 17.5C1.97386 17.5 1.75 17.7239 1.75 18V21.75C1.75 22.0261 1.97386 22.25 2.25 22.25H7.75C8.02614 22.25 8.25 22.0261 8.25 21.75V18C8.25 17.7239 8.02614 17.5 7.75 17.5H2.25Z" fill="#353566"/>
</g>
<defs>
<clipPath id="clip0_9001_297634">
<rect width="24" height="24" fill="white"/>
</clipPath>
</defs>
</svg>
