<svg width="24" height="24" viewBox="0 0 24 24" fill="none" xmlns="http://www.w3.org/2000/svg">
<path opacity="0.4" d="M15.633 1.25H8.367C7.27486 1.24999 6.40936 1.24999 5.71173 1.30699C4.99835 1.36527 4.39472 1.48688 3.84355 1.76772C2.94978 2.22312 2.22312 2.94978 1.76772 3.84355C1.48688 4.39472 1.36527 4.99834 1.30699 5.71173C1.24999 6.40935 1.24999 7.27485 1.25 8.36699V15.633C1.24999 16.7251 1.24999 17.5906 1.30699 18.2883C1.36527 19.0017 1.48688 19.6053 1.76772 20.1565C2.22312 21.0502 2.94977 21.7769 3.84355 22.2323C4.39472 22.5131 4.99835 22.6347 5.71173 22.693C6.40935 22.75 7.27484 22.75 8.36698 22.75H15.633C16.7252 22.75 17.5906 22.75 18.2883 22.693C19.0017 22.6347 19.6053 22.5131 20.1565 22.2323C21.0502 21.7769 21.7769 21.0502 22.2323 20.1565C22.5131 19.6053 22.6347 19.0017 22.693 18.2883C22.75 17.5906 22.75 16.7252 22.75 15.633V8.36698C22.75 7.27484 22.75 6.40935 22.693 5.71173C22.6347 4.99835 22.5131 4.39472 22.2323 3.84355C21.7769 2.94977 21.0502 2.22312 20.1565 1.76772C19.6053 1.48688 19.0017 1.36527 18.2883 1.30699C17.5906 1.24999 16.7251 1.24999 15.633 1.25Z" fill="#353566"/>
<path fill-rule="evenodd" clip-rule="evenodd" d="M10.5 6.375C10.8452 6.375 11.125 6.65482 11.125 7V7.75H11.875V7C11.875 6.65482 12.1548 6.375 12.5 6.375C12.8452 6.375 13.125 6.65482 13.125 7V7.77794C14.3278 7.95888 15.25 8.99675 15.25 10.25C15.25 10.7619 15.0962 11.2378 14.8322 11.6341C15.5339 12.0769 16 12.859 16 13.75C16 15.1307 14.8807 16.25 13.5 16.25H13.125V17C13.125 17.3452 12.8452 17.625 12.5 17.625C12.1548 17.625 11.875 17.3452 11.875 17V16.25H11.125V17C11.125 17.3452 10.8452 17.625 10.5 17.625C10.1548 17.625 9.875 17.3452 9.875 17V16.25H8.75C8.33579 16.25 8 15.9142 8 15.5C8 15.0858 8.33579 14.75 8.75 14.75H9.08618V9.25H8.75C8.33579 9.25 8 8.91421 8 8.5C8 8.08579 8.33579 7.75 8.75 7.75H9.875V7C9.875 6.65482 10.1548 6.375 10.5 6.375ZM10.5862 9.25V11.25H12.7599C13.3076 11.2447 13.75 10.799 13.75 10.25C13.75 9.69772 13.3023 9.25 12.75 9.25H10.5862ZM10.5862 12.75V14.75H13.5C14.0523 14.75 14.5 14.3023 14.5 13.75C14.5 13.1977 14.0523 12.75 13.5 12.75H12.7657L12.75 12.75H10.5862Z" fill="#353566"/>
</svg>
