<svg width="24" height="24" viewBox="0 0 24 24" fill="none" xmlns="http://www.w3.org/2000/svg">
<path opacity="0.4" d="M11 1.25C5.06294 1.25 0.25 6.06294 0.25 12C0.25 17.9371 5.06294 22.75 11 22.75C16.9371 22.75 21.75 17.9371 21.75 12C21.75 11.316 21.686 10.6462 21.5635 9.9966C21.5242 9.78801 21.3983 9.60585 21.2171 9.49531C21.0359 9.38476 20.8163 9.35619 20.6128 9.41667C20.1026 9.56831 19.5615 9.65 19 9.65C15.8796 9.65 13.35 7.12041 13.35 4C13.35 3.43847 13.4317 2.89735 13.5833 2.38719C13.6438 2.18371 13.6152 1.96414 13.5047 1.78292C13.3942 1.60171 13.212 1.47582 13.0034 1.43648C12.3538 1.31398 11.684 1.25 11 1.25Z" fill="#353566"/>
<path d="M23.5271 2.5335C23.82 2.24061 23.82 1.76574 23.5271 1.47284C23.2343 1.17995 22.7594 1.17995 22.4665 1.47284L17.9968 5.94251L16.0271 3.97284C15.7343 3.67995 15.2594 3.67995 14.9665 3.97284C14.6736 4.26574 14.6736 4.74061 14.9665 5.0335L17.4665 7.5335C17.7594 7.8264 18.2343 7.8264 18.5271 7.5335L23.5271 2.5335Z" fill="#353566"/>
<path fill-rule="evenodd" clip-rule="evenodd" d="M10.3751 7.83333C10.3751 7.48816 10.0953 7.20833 9.7501 7.20833C9.40492 7.20833 9.1251 7.48816 9.1251 7.83333V8.33331H8.29175C7.87753 8.33331 7.54175 8.6691 7.54175 9.08331C7.54175 9.49753 7.87753 9.83331 8.29175 9.83331H8.44692V14.1667H8.29177C7.87755 14.1667 7.54177 14.5025 7.54177 14.9167C7.54177 15.3309 7.87755 15.6667 8.29177 15.6667H9.1251V16.1667C9.1251 16.5119 9.40492 16.7917 9.7501 16.7917C10.0953 16.7917 10.3751 16.5119 10.3751 16.1667V15.6667H10.7918V16.1667C10.7918 16.5119 11.0716 16.7917 11.4168 16.7917C11.7619 16.7917 12.0418 16.5119 12.0418 16.1667V15.6667H12.2501C13.4697 15.6667 14.4584 14.678 14.4584 13.4583C14.4584 12.716 14.0921 12.0592 13.5304 11.6588C13.723 11.3311 13.8334 10.9493 13.8334 10.5417C13.8334 9.46447 13.0622 8.56742 12.0418 8.37257V7.83337C12.0418 7.48819 11.7619 7.20837 11.4168 7.20837C11.0716 7.20837 10.7918 7.48819 10.7918 7.83337V8.33331H10.3751V7.83333ZM9.94692 11.25V9.83331H11.6251C12.0163 9.83331 12.3334 10.1504 12.3334 10.5417C12.3334 10.9329 12.0163 11.25 11.6251 11.25H9.94692ZM9.94692 14.1667V12.75H12.2501C12.6413 12.75 12.9584 13.0671 12.9584 13.4583C12.9584 13.8496 12.6413 14.1667 12.2501 14.1667H9.94692Z" fill="#353566"/>
</svg>
