<svg width="24" height="24" viewBox="0 0 24 24" fill="none" xmlns="http://www.w3.org/2000/svg">
<g clip-path="url(#clip0_9001_301993)">
<path opacity="0.4" d="M11 0.25C5.06294 0.25 0.25 5.06294 0.25 11C0.25 16.9371 5.06294 21.75 11 21.75C11.1146 21.75 11.2288 21.7482 11.3425 21.7446C11.581 21.7372 11.8017 21.6167 11.9369 21.4201C12.0722 21.2235 12.1058 20.9743 12.0275 20.7489C11.7831 20.0454 11.65 19.2891 11.65 18.5C11.65 14.7168 14.7168 11.65 18.5 11.65C19.2891 11.65 20.0454 11.7831 20.7489 12.0275C20.9743 12.1058 21.2235 12.0722 21.4201 11.9369C21.6167 11.8017 21.7372 11.581 21.7446 11.3425C21.7482 11.2288 21.75 11.1146 21.75 11C21.75 5.06294 16.9371 0.25 11 0.25Z" fill="#353566"/>
<path fill-rule="evenodd" clip-rule="evenodd" d="M9.7501 6.0835C10.1643 6.0835 10.5001 6.41928 10.5001 6.8335V7.33348H10.6668V6.83353C10.6668 6.41932 11.0026 6.08353 11.4168 6.08353C11.831 6.08353 12.1668 6.41932 12.1668 6.83353V7.4004C13.1245 7.64192 13.8334 8.50908 13.8334 9.54182C13.8334 9.94943 13.723 10.3312 13.5304 10.659C13.9952 10.9902 14.3262 11.4971 14.4266 12.0827C13.0198 12.9775 11.9272 14.3221 11.3513 15.914C10.9677 15.8808 10.6668 15.559 10.6668 15.1668V14.6669H10.5001V15.1668C10.5001 15.5811 10.1643 15.9168 9.7501 15.9168C9.33589 15.9168 9.0001 15.5811 9.0001 15.1668V14.6669H8.29177C7.87755 14.6669 7.54177 14.3311 7.54177 13.9169C7.54177 13.5026 7.87755 13.1669 8.29177 13.1669H8.44692L8.44692 8.83348H8.29175C7.87753 8.83348 7.54175 8.49769 7.54175 8.08348C7.54175 7.66926 7.87753 7.33348 8.29175 7.33348H9.0001L9.0001 6.8335C9.0001 6.41928 9.33589 6.0835 9.7501 6.0835ZM9.94692 8.83348L9.94692 10.2502H11.6251C12.0163 10.2502 12.3334 9.93303 12.3334 9.54182C12.3334 9.15061 12.0163 8.83348 11.6251 8.83348H11.4223L11.4168 8.8335L11.4112 8.83348H9.94692ZM9.94692 11.7502H12.2501C12.6413 11.7502 12.9584 12.0673 12.9584 12.4585C12.9584 12.8497 12.6413 13.1669 12.2501 13.1669H9.94692V11.7502Z" fill="#353566"/>
<path fill-rule="evenodd" clip-rule="evenodd" d="M23.7532 18.42C23.7532 15.4745 21.3654 13.0867 18.4199 13.0867C15.4744 13.0867 13.0866 15.4745 13.0866 18.42C13.0866 21.3655 15.4744 23.7533 18.4199 23.7533C21.3654 23.7533 23.7532 21.3655 23.7532 18.42ZM17.6699 17.2742C17.6699 16.86 18.0057 16.5242 18.4199 16.5242C18.8341 16.5242 19.1699 16.86 19.1699 17.2742C19.1699 17.4835 19.0849 17.6719 18.946 17.8087C18.8659 17.8875 18.7964 17.9309 18.6787 18.0043C18.6448 18.0254 18.607 18.049 18.5637 18.0766C18.3792 18.1946 18.1354 18.3695 17.9597 18.6985C17.7971 19.003 17.9121 19.3816 18.2166 19.5442C18.521 19.7068 18.8997 19.5918 19.0623 19.2874C19.0876 19.2401 19.1169 19.2066 19.2371 19.1298C19.2543 19.1187 19.2749 19.1061 19.2983 19.0917C19.4254 19.0137 19.6337 18.8858 19.823 18.6994C20.1907 18.3374 20.4199 17.832 20.4199 17.2742C20.4199 16.1696 19.5245 15.2742 18.4199 15.2742C17.3153 15.2742 16.4199 16.1696 16.4199 17.2742C16.4199 17.6193 16.6997 17.8992 17.0449 17.8992C17.3901 17.8992 17.6699 17.6193 17.6699 17.2742ZM18.4199 19.9617C18.0057 19.9617 17.6699 20.2975 17.6699 20.7117C17.6699 21.1259 18.0057 21.4617 18.4199 21.4617C18.8341 21.4617 19.17 21.1259 19.17 20.7117C19.17 20.2975 18.8341 19.9617 18.4199 19.9617Z" fill="#353566"/>
</g>
<defs>
<clipPath id="clip0_9001_301993">
<rect width="24" height="24" fill="white"/>
</clipPath>
</defs>
</svg>
