<svg width="24" height="24" viewBox="0 0 24 24" fill="none" xmlns="http://www.w3.org/2000/svg">
<g clip-path="url(#clip0_9001_301428)">
<path opacity="0.4" d="M11 0.25C5.06294 0.25 0.25 5.06294 0.25 11C0.25 16.9371 5.06294 21.75 11 21.75C11.4535 21.75 11.9008 21.7219 12.3401 21.6672C12.612 21.6334 12.8437 21.454 12.9447 21.1994C13.0457 20.9448 12.9998 20.6553 12.825 20.4444C12.3874 19.9163 12.125 19.2398 12.125 18.5C12.125 16.8155 13.4905 15.45 15.175 15.45C15.5311 15.45 15.8887 15.5251 16.2865 15.6519C16.4728 15.7113 16.6749 15.6956 16.8497 15.6081L18.5071 14.7794C18.682 14.692 18.8159 14.5397 18.8801 14.355C19.266 13.2455 20.1116 12.4379 21.1562 12.1994C21.4847 12.1244 21.7229 11.8394 21.7384 11.5028C21.7461 11.3361 21.75 11.1685 21.75 11C21.75 5.06294 16.9371 0.25 11 0.25Z" fill="#353566"/>
<path d="M11.7501 6.83325C11.7501 6.41904 11.4143 6.08325 11.0001 6.08325C10.5859 6.08325 10.2501 6.41904 10.2501 6.83325V7.18968C9.80392 7.27062 9.39288 7.42952 9.04978 7.678C8.49857 8.07721 8.16679 8.68073 8.16679 9.40132C8.16679 10.3336 8.68837 10.9191 9.27961 11.2501C9.82347 11.5545 10.4649 11.671 10.8768 11.7397C11.2983 11.8099 11.6985 11.8965 11.988 12.0586C12.23 12.1941 12.3335 12.3384 12.3335 12.5985C12.3335 12.8184 12.2486 12.9781 12.0706 13.1069C11.8702 13.2521 11.5186 13.3749 11.0001 13.3749C10.6428 13.3749 10.4317 13.3368 10.235 13.2587C10.0207 13.1737 9.77449 13.0223 9.36954 12.7157C9.03932 12.4656 8.56891 12.5306 8.31887 12.8608C8.06882 13.1911 8.13381 13.6615 8.46404 13.9115C8.89242 14.2359 9.2712 14.4901 9.68193 14.653C9.87192 14.7284 10.0591 14.7806 10.2501 14.8153V15.1666C10.2501 15.5808 10.5859 15.9166 11.0001 15.9166C11.4143 15.9166 11.7501 15.5808 11.7501 15.1666V14.8101C12.1963 14.7292 12.6074 14.5703 12.9505 14.3218C13.5017 13.9226 13.8335 13.3191 13.8335 12.5985C13.8335 11.6662 13.3119 11.0807 12.7206 10.7497C12.1768 10.4453 11.5353 10.3288 11.1234 10.2601C10.702 10.1899 10.3018 10.1033 10.0123 9.94122C9.77021 9.8057 9.66679 9.66136 9.66679 9.40132C9.66679 9.18143 9.75168 9.02174 9.92963 8.89286C10.1301 8.74771 10.4816 8.6249 11.0001 8.6249C11.3574 8.6249 11.5685 8.66305 11.7653 8.74108C11.9795 8.82607 12.2258 8.97749 12.6307 9.28411C12.9609 9.53416 13.4313 9.46916 13.6814 9.13894C13.9314 8.80871 13.8664 8.33831 13.5362 8.08826C13.1078 7.76387 12.729 7.50965 12.3183 7.34675C12.1283 7.27139 11.9411 7.21924 11.7501 7.18453V6.83325Z" fill="#353566"/>
<path d="M20.2676 16.5011L17.0603 18.1048C17.0776 18.2072 17.0867 18.3125 17.0867 18.4199C17.0867 18.5273 17.0776 18.6326 17.0603 18.735L20.2676 20.3387C20.6093 19.9781 21.0927 19.7533 21.6287 19.7533C22.6642 19.7533 23.5037 20.5927 23.5037 21.6283C23.5037 22.6638 22.6642 23.5033 21.6287 23.5033C20.6378 23.5033 19.8265 22.7346 19.7583 21.7611L16.2509 20.0074C16.2433 20.0036 16.2357 19.9996 16.2283 19.9956C15.9354 20.185 15.5864 20.2949 15.2117 20.2949C14.1761 20.2949 13.3367 19.4554 13.3367 18.4199C13.3367 17.3844 14.1761 16.5449 15.2117 16.5449C15.5864 16.5449 15.9354 16.6548 16.2283 16.8442C16.2358 16.8402 16.2433 16.8362 16.2509 16.8324L19.7583 15.0787C19.8265 14.1052 20.6378 13.3366 21.6287 13.3366C22.6642 13.3366 23.5037 14.176 23.5037 15.2116C23.5037 16.2471 22.6642 17.0866 21.6287 17.0866C21.0927 17.0866 20.6093 16.8617 20.2676 16.5011Z" fill="#353566"/>
</g>
<defs>
<clipPath id="clip0_9001_301428">
<rect width="24" height="24" fill="white"/>
</clipPath>
</defs>
</svg>
