<svg width="24" height="24" viewBox="0 0 24 24" fill="none" xmlns="http://www.w3.org/2000/svg">
<g clip-path="url(#clip0_9001_301453)">
<path opacity="0.4" d="M11 0.25C5.06294 0.25 0.25 5.06294 0.25 11C0.25 16.9371 5.06294 21.75 11 21.75C11.4648 21.75 11.9232 21.7205 12.3731 21.663C12.6247 21.6309 12.8431 21.4738 12.9534 21.2454C13.0638 21.017 13.0513 20.7483 12.9201 20.5312C12.4155 19.6962 12.125 18.7176 12.125 17.6688C12.125 14.607 14.607 12.125 17.6688 12.125C18.7176 12.125 19.6962 12.4155 20.5312 12.9201C20.7483 13.0513 21.017 13.0638 21.2454 12.9534C21.4738 12.8431 21.6309 12.6247 21.6631 12.3731C21.7205 11.9232 21.75 11.4648 21.75 11C21.75 5.06294 16.9371 0.25 11 0.25Z" fill="#353566"/>
<path d="M10.9999 6.08337C11.4141 6.08337 11.7499 6.41916 11.7499 6.83337V7.18465C11.9409 7.21936 12.1281 7.27152 12.3181 7.34687C12.7288 7.50978 13.1076 7.764 13.536 8.08838C13.8662 8.33843 13.9312 8.80883 13.6811 9.13906C13.4311 9.46929 12.9607 9.53428 12.6305 9.28423C12.2255 8.97761 11.9793 8.82619 11.765 8.74121C11.5683 8.66317 11.3572 8.62503 10.9999 8.62503C10.4814 8.62503 10.1298 8.74783 9.92938 8.89298C9.75143 9.02186 9.66655 9.18155 9.66655 9.40144C9.66655 9.66148 9.76997 9.80582 10.0121 9.94134C10.3015 10.1034 10.7017 10.19 11.1232 10.2602C11.5351 10.3289 12.1765 10.4454 12.7204 10.7498C13.3116 11.0808 13.8332 11.6663 13.8332 12.5986C13.8332 13.3192 13.5014 13.9227 12.9502 14.3219C12.6071 14.5704 12.1961 14.7293 11.7499 14.8103V15.1667C11.7499 15.5809 11.4141 15.9167 10.9999 15.9167C10.5857 15.9167 10.2499 15.5809 10.2499 15.1667V14.8154C10.0589 14.7807 9.87168 14.7285 9.68168 14.6532C9.27095 14.4902 8.89218 14.236 8.46379 13.9116C8.13357 13.6616 8.06857 13.1912 8.31862 12.861C8.56867 12.5307 9.03908 12.4657 9.3693 12.7158C9.77424 13.0224 10.0205 13.1738 10.2347 13.2588C10.4315 13.3369 10.6426 13.375 10.9999 13.375C11.5184 13.375 11.87 13.2522 12.0704 13.1071C12.2483 12.9782 12.3332 12.8185 12.3332 12.5986C12.3332 12.3386 12.2298 12.1942 11.9877 12.0587C11.6982 11.8967 11.298 11.8101 10.8766 11.7398C10.4647 11.6712 9.82323 11.5547 9.27937 11.2502C8.68812 10.9193 8.16655 10.3337 8.16655 9.40144C8.16655 8.68086 8.49832 8.07734 9.04954 7.67813C9.39264 7.42964 9.80367 7.27075 10.2499 7.1898V6.83337C10.2499 6.41916 10.5857 6.08337 10.9999 6.08337Z" fill="#353566"/>
<path fill-rule="evenodd" clip-rule="evenodd" d="M13.0865 17.6179C13.0865 15.1154 15.1152 13.0867 17.6177 13.0867C20.1203 13.0867 22.149 15.1154 22.149 17.6179C22.149 18.5985 21.8376 19.5062 21.3082 20.2478L23.5334 22.473C23.8263 22.7659 23.8263 23.2408 23.5334 23.5337C23.2405 23.8266 22.7656 23.8266 22.4727 23.5337L20.2475 21.3084C19.506 21.8378 18.5983 22.1492 17.6177 22.1492C15.1152 22.1492 13.0865 20.1205 13.0865 17.6179ZM17.6177 14.5867C15.9436 14.5867 14.5865 15.9438 14.5865 17.6179C14.5865 19.2921 15.9436 20.6492 17.6177 20.6492C19.2919 20.6492 20.649 19.2921 20.649 17.6179C20.649 15.9438 19.2919 14.5867 17.6177 14.5867Z" fill="#353566"/>
</g>
<defs>
<clipPath id="clip0_9001_301453">
<rect width="24" height="24" fill="white"/>
</clipPath>
</defs>
</svg>
