<svg width="24" height="24" viewBox="0 0 24 24" fill="none" xmlns="http://www.w3.org/2000/svg">
<g clip-path="url(#clip0_9001_301413)">
<path opacity="0.4" d="M11 0.25C5.06294 0.25 0.25 5.06294 0.25 11C0.25 16.9371 5.06294 21.75 11 21.75C12.1044 21.75 13.1712 21.5832 14.1759 21.273C14.3828 21.2091 14.552 21.0589 14.6399 20.861C14.7279 20.6631 14.726 20.4369 14.6348 20.2405C14.257 19.4268 14.025 18.5326 14.025 17.5519C14.025 14.5567 16.4529 12.125 19.4501 12.125C19.9165 12.125 20.3681 12.1837 20.7984 12.2937C21.0157 12.3493 21.2465 12.3046 21.4275 12.1721C21.6084 12.0395 21.7205 11.8329 21.733 11.6089C21.7443 11.4073 21.75 11.2043 21.75 11C21.75 5.06294 16.9371 0.25 11 0.25Z" fill="#353566"/>
<path d="M11.7499 6.83337C11.7499 6.41916 11.4141 6.08337 10.9999 6.08337C10.5857 6.08337 10.2499 6.41916 10.2499 6.83337V7.1898C9.80367 7.27075 9.39264 7.42964 9.04954 7.67813C8.49832 8.07734 8.16655 8.68086 8.16655 9.40144C8.16655 10.3337 8.68812 10.9193 9.27937 11.2502C9.82323 11.5547 10.4647 11.6712 10.8766 11.7398C11.298 11.8101 11.6982 11.8967 11.9877 12.0587C12.2298 12.1942 12.3332 12.3386 12.3332 12.5986C12.3332 12.8185 12.2483 12.9782 12.0704 13.1071C11.87 13.2522 11.5184 13.375 10.9999 13.375C10.6426 13.375 10.4315 13.3369 10.2347 13.2588C10.0205 13.1738 9.77424 13.0224 9.3693 12.7158C9.03908 12.4657 8.56867 12.5307 8.31862 12.861C8.06857 13.1912 8.13357 13.6616 8.46379 13.9116C8.89218 14.236 9.27095 14.4902 9.68168 14.6532C9.87168 14.7285 10.0589 14.7807 10.2499 14.8154V15.1667C10.2499 15.5809 10.5857 15.9167 10.9999 15.9167C11.4141 15.9167 11.7499 15.5809 11.7499 15.1667V14.8103C12.1961 14.7293 12.6071 14.5704 12.9502 14.3219C13.5014 13.9227 13.8332 13.3192 13.8332 12.5986C13.8332 11.6663 13.3116 11.0808 12.7204 10.7498C12.1765 10.4454 11.5351 10.3289 11.1232 10.2602C10.7017 10.19 10.3015 10.1034 10.0121 9.94134C9.76997 9.80582 9.66655 9.66148 9.66655 9.40144C9.66655 9.18155 9.75143 9.02186 9.92938 8.89298C10.1298 8.74783 10.4814 8.62503 10.9999 8.62503C11.3572 8.62503 11.5683 8.66317 11.765 8.74121C11.9793 8.82619 12.2255 8.97761 12.6305 9.28423C12.9607 9.53428 13.4311 9.46929 13.6811 9.13906C13.9312 8.80883 13.8662 8.33843 13.536 8.08838C13.1076 7.764 12.7288 7.50978 12.3181 7.34687C12.1281 7.27152 11.9409 7.21936 11.7499 7.18465V6.83337Z" fill="#353566"/>
<path fill-rule="evenodd" clip-rule="evenodd" d="M19.3365 13.3367C17.035 13.3367 15.1698 15.2043 15.1698 17.5052C15.1698 20.0618 17.2032 22.0284 19.0365 23.4034C19.2142 23.5367 19.4587 23.5367 19.6365 23.4034C21.4698 22.0284 23.5031 20.0617 23.5031 17.5034C23.5031 15.2022 21.6378 13.3367 19.3365 13.3367ZM20.7115 17.5034C20.7115 18.2628 20.0959 18.8785 19.3365 18.8785C18.5771 18.8785 17.9615 18.2628 17.9615 17.5034C17.9615 16.744 18.5771 16.1284 19.3365 16.1284C20.0959 16.1284 20.7115 16.744 20.7115 17.5034Z" fill="#353566"/>
</g>
<defs>
<clipPath id="clip0_9001_301413">
<rect width="24" height="24" fill="white"/>
</clipPath>
</defs>
</svg>
