<svg width="24" height="24" viewBox="0 0 24 24" fill="none" xmlns="http://www.w3.org/2000/svg">
<g clip-path="url(#clip0_9001_302113)">
<path opacity="0.4" d="M11 0.25C5.06294 0.25 0.25 5.06294 0.25 11C0.25 16.9371 5.06294 21.75 11 21.75C11.8718 21.75 12.7203 21.6461 13.5334 21.4496C13.9277 21.3543 14.1748 20.9627 14.0911 20.5658C14.0478 20.3607 14.0249 20.1473 14.0249 19.9278C14.0249 19.8485 14.0244 19.7696 14.0239 19.6937L14.0239 19.6922C14.0187 18.8986 14.0381 18.4181 14.3428 18.005C14.5593 17.7116 14.6339 17.3372 14.547 16.9834C14.4119 16.4339 14.5702 15.8456 14.9766 15.438L16.8766 13.5323C17.6994 12.7071 19.1748 13.0545 19.5571 14.1416C19.662 14.44 19.8747 14.6788 20.142 14.8197C20.337 14.9224 20.5672 14.9342 20.7716 14.852C20.976 14.7698 21.134 14.6018 21.2034 14.3927C21.5582 13.3252 21.75 12.1843 21.75 11C21.75 5.06294 16.9371 0.25 11 0.25Z" fill="#353566"/>
<path d="M11.4668 5.3104C11.2577 4.95247 10.7404 4.95254 10.5313 5.31051L7.50369 10.4953C7.35242 10.7543 7.44049 11.087 7.70013 11.2372L10.7278 12.9894C10.8956 13.0865 11.1025 13.0865 11.2704 12.9895L14.2996 11.2372C14.5593 11.087 14.6474 10.7542 14.4961 10.4951L11.4668 5.3104Z" fill="#353566"/>
<path d="M7.62917 12.3725C7.56512 12.2772 7.67395 12.1608 7.77335 12.2184L10.7955 13.9674C10.9214 14.0402 11.0766 14.0402 11.2024 13.9674L14.2266 12.2181C14.326 12.1606 14.4349 12.277 14.3708 12.3723L11.4486 16.7192C11.2339 17.0385 10.7641 17.0385 10.5495 16.7191L7.62917 12.3725Z" fill="#353566"/>
<path d="M23.0034 19.6284C23.4176 19.6284 23.7534 19.2926 23.7534 18.8784V18.0868C23.7534 16.8441 22.7461 15.8368 21.5034 15.8368H17.939L18.492 15.2837C18.7849 14.9909 18.7849 14.516 18.492 14.2231C18.1991 13.9302 17.7243 13.9302 17.4314 14.2231L15.598 16.0564C15.3835 16.2709 15.3194 16.5935 15.4355 16.8738C15.5515 17.154 15.825 17.3368 16.1284 17.3368H21.5034C21.9176 17.3368 22.2534 17.6725 22.2534 18.0868V18.8784C22.2534 19.2926 22.5892 19.6284 23.0034 19.6284Z" fill="#353566"/>
<path d="M14.92 18.8784C14.92 18.4642 15.2558 18.1284 15.67 18.1284C16.0843 18.1284 16.42 18.4642 16.42 18.8784V19.6701C16.42 20.0843 16.7558 20.4201 17.17 20.4201H22.545C22.8484 20.4201 23.1219 20.6028 23.238 20.8831C23.354 21.1633 23.2899 21.4859 23.0754 21.7004L21.242 23.5338C20.9491 23.8266 20.4742 23.8266 20.1813 23.5337C19.8884 23.2408 19.8884 22.766 20.1813 22.4731L20.7343 21.9201H17.17C15.9274 21.9201 14.92 20.9127 14.92 19.6701V18.8784Z" fill="#353566"/>
</g>
<defs>
<clipPath id="clip0_9001_302113">
<rect width="24" height="24" fill="white"/>
</clipPath>
</defs>
</svg>
