<svg width="24" height="24" viewBox="0 0 24 24" fill="none" xmlns="http://www.w3.org/2000/svg">
<g clip-path="url(#clip0_9001_301878)">
<path opacity="0.4" d="M11 0.25C5.06294 0.25 0.25 5.06294 0.25 11C0.25 16.9371 5.06294 21.75 11 21.75C12.3511 21.75 13.6457 21.5004 14.8389 21.0441C14.9563 20.9992 15.0605 20.9255 15.142 20.8299C15.5344 20.3691 16.0088 19.9526 16.546 19.5661C16.7089 19.4489 16.818 19.2713 16.8489 19.073C16.8799 18.8747 16.8301 18.6722 16.7106 18.511L16.424 18.1239C15.9609 17.4988 15.6875 16.7269 15.6875 15.8875C15.6875 13.8095 17.3721 12.125 19.45 12.125C19.8991 12.125 20.3282 12.2034 20.7256 12.3465C20.9475 12.4265 21.1942 12.3974 21.3914 12.2679C21.5886 12.1384 21.7134 11.9237 21.7283 11.6883C21.7427 11.4606 21.75 11.2311 21.75 11C21.75 5.06294 16.9371 0.25 11 0.25Z" fill="#353566"/>
<path d="M12.0831 6.17517C11.2224 5.98341 10.3343 6.094 9.53637 6.48519C8.74088 6.87517 8.08048 7.52084 7.62376 8.32271C7.50016 8.53972 7.39253 8.76622 7.30129 8.99993H6.25C5.83579 8.99993 5.5 9.33572 5.5 9.74993C5.5 10.1641 5.83579 10.4999 6.25 10.4999H6.95097C6.93611 10.6657 6.92863 10.8326 6.92863 10.9999C6.92863 11.1672 6.93611 11.3341 6.95097 11.4999H6.25C5.83579 11.4999 5.5 11.8357 5.5 12.2499C5.5 12.6641 5.83579 12.9999 6.25 12.9999H7.30129C7.39253 13.2336 7.50016 13.4601 7.62376 13.6771C8.08048 14.479 8.74088 15.1247 9.53637 15.5147C10.3343 15.9059 11.2224 16.0164 12.0831 15.8247C12.942 15.6333 13.7153 15.1543 14.314 14.4699C14.5867 14.1582 14.5551 13.6844 14.2434 13.4116C13.9316 13.1389 13.4578 13.1705 13.185 13.4823C12.7791 13.9463 12.2795 14.2441 11.7569 14.3606C11.236 14.4766 10.6954 14.4123 10.1966 14.1678C9.71492 13.9316 9.28365 13.5322 8.96521 12.9999H11.2495C11.6637 12.9999 11.9995 12.6641 11.9995 12.2499C11.9995 11.8357 11.6637 11.4999 11.2495 11.4999H8.45918C8.43896 11.3354 8.42863 11.1683 8.42863 10.9999C8.42863 10.8315 8.43896 10.6645 8.45918 10.4999H11.2495C11.6637 10.4999 11.9995 10.1641 11.9995 9.74993C11.9995 9.33572 11.6637 8.99993 11.2495 8.99993H8.96521C9.28365 8.46771 9.71492 8.06821 10.1966 7.83205C10.6954 7.58755 11.236 7.52323 11.7569 7.63928C12.2795 7.75572 12.7791 8.05352 13.185 8.51756C13.4578 8.82932 13.9316 8.86095 14.2434 8.58822C14.5551 8.31549 14.5867 7.84168 14.314 7.52992C13.7153 6.84555 12.942 6.36653 12.0831 6.17517Z" fill="#353566"/>
<path d="M19.3366 19.7533C17.413 19.7533 15.6528 21.0639 15.1857 22.8787C15.1472 23.0284 15.1801 23.1875 15.2748 23.3096C15.3695 23.4318 15.5153 23.5033 15.6699 23.5033H23.0033C23.1578 23.5033 23.3037 23.4318 23.3984 23.3096C23.4931 23.1875 23.526 23.0284 23.4875 22.8787C23.0204 21.0639 21.2602 19.7533 19.3366 19.7533Z" fill="#353566"/>
<path d="M16.774 15.8991C16.774 14.4839 17.9213 13.3366 19.3365 13.3366C20.7518 13.3366 21.899 14.4839 21.899 15.8991C21.899 17.3143 20.7518 18.4616 19.3365 18.4616C17.9213 18.4616 16.774 17.3143 16.774 15.8991Z" fill="#353566"/>
</g>
<defs>
<clipPath id="clip0_9001_301878">
<rect width="24" height="24" fill="white"/>
</clipPath>
</defs>
</svg>
