<svg width="24" height="24" viewBox="0 0 24 24" fill="none" xmlns="http://www.w3.org/2000/svg">
<g clip-path="url(#clip0_9001_301903)">
<path opacity="0.4" d="M11 0.25C5.06294 0.25 0.25 5.06294 0.25 11C0.25 16.9371 5.06294 21.75 11 21.75C11.2498 21.75 11.4976 21.7415 11.7433 21.7247C12.0003 21.7071 12.2302 21.559 12.3524 21.3323C12.4746 21.1056 12.4719 20.8321 12.3454 20.6078C12.2099 20.3677 12.1222 20.072 12.1222 19.6875C12.1222 19.0802 12.3398 18.6666 12.6839 18.3366C13.0537 17.9819 13.5898 17.7075 14.236 17.469L14.2372 17.4685C14.6308 17.3225 14.9391 17.0125 15.0872 16.6274C15.1007 16.5923 15.1116 16.5562 15.1197 16.5195C15.3843 15.3177 16.3033 14.3589 17.5811 14.5241L17.7793 14.5497C17.9794 14.5756 18.1815 14.5197 18.34 14.3947C18.5824 14.2035 18.8009 14.0681 19.0387 13.9798C19.1138 13.952 19.1839 13.9123 19.2464 13.8623L19.4233 13.7208C19.5296 13.6358 19.6107 13.5235 19.658 13.3959C19.9082 12.721 20.4697 12.24 21.1048 12.1435C21.4602 12.0894 21.7273 11.7908 21.7415 11.4316C21.7471 11.2884 21.75 11.1445 21.75 11C21.75 5.06294 16.9371 0.25 11 0.25Z" fill="#353566"/>
<path d="M12.0831 6.17517C11.2224 5.98341 10.3343 6.094 9.53637 6.48519C8.74088 6.87517 8.08048 7.52084 7.62376 8.32271C7.50016 8.53972 7.39253 8.76622 7.30129 8.99993H6.25C5.83579 8.99993 5.5 9.33572 5.5 9.74993C5.5 10.1641 5.83579 10.4999 6.25 10.4999H6.95097C6.93611 10.6657 6.92863 10.8326 6.92863 10.9999C6.92863 11.1672 6.93611 11.3341 6.95097 11.4999H6.25C5.83579 11.4999 5.5 11.8357 5.5 12.2499C5.5 12.6641 5.83579 12.9999 6.25 12.9999H7.30129C7.39253 13.2336 7.50016 13.4601 7.62376 13.6771C8.08048 14.479 8.74088 15.1247 9.53637 15.5147C10.3343 15.9059 11.2224 16.0164 12.0831 15.8247C12.942 15.6333 13.7153 15.1543 14.314 14.4699C14.5867 14.1582 14.5551 13.6844 14.2434 13.4116C13.9316 13.1389 13.4578 13.1705 13.185 13.4823C12.7791 13.9463 12.2795 14.2441 11.7569 14.3606C11.236 14.4766 10.6954 14.4123 10.1966 14.1678C9.71492 13.9316 9.28365 13.5322 8.96521 12.9999H11.2495C11.6637 12.9999 11.9995 12.6641 11.9995 12.2499C11.9995 11.8357 11.6637 11.4999 11.2495 11.4999H8.45918C8.43896 11.3354 8.42863 11.1683 8.42863 10.9999C8.42863 10.8315 8.43896 10.6645 8.45918 10.4999H11.2495C11.6637 10.4999 11.9995 10.1641 11.9995 9.74993C11.9995 9.33572 11.6637 8.99993 11.2495 8.99993H8.96521C9.28365 8.46771 9.71492 8.06821 10.1966 7.83205C10.6954 7.58755 11.236 7.52323 11.7569 7.63928C12.2795 7.75572 12.7791 8.05352 13.185 8.51756C13.4578 8.82932 13.9316 8.86095 14.2434 8.58822C14.5551 8.31549 14.5867 7.84168 14.314 7.52992C13.7153 6.84555 12.942 6.36653 12.0831 6.17517Z" fill="#353566"/>
<path d="M16.4472 16.2457C16.7312 15.478 17.817 15.478 18.1011 16.2457L18.3746 16.9849C18.6284 17.6707 19.1691 18.2115 19.855 18.4653L20.5942 18.7388C21.3619 19.0229 21.3619 20.1086 20.5942 20.3927L19.855 20.6663C19.1691 20.92 18.6284 21.4608 18.3746 22.1466L18.1011 22.8858C17.817 23.6535 16.7312 23.6535 16.4472 22.8858L16.1736 22.1466C15.9199 21.4608 15.3791 20.92 14.6933 20.6663L13.954 20.3927C13.1864 20.1086 13.1864 19.0229 13.954 18.7388L14.6933 18.4653C15.3791 18.2115 15.9199 17.6707 16.1736 16.9849L16.4472 16.2457Z" fill="#353566"/>
<path d="M21.0537 13.9176C21.0937 13.8096 21.2463 13.8096 21.2863 13.9176L21.4644 14.3988C21.6318 14.8513 21.9886 15.2081 22.4412 15.3756L22.9224 15.5536C23.0303 15.5936 23.0303 15.7463 22.9224 15.7862L22.4412 15.9643C21.9886 16.1318 21.6318 16.4886 21.4644 16.9411L21.2863 17.4223C21.2463 17.5303 21.0937 17.5303 21.0537 17.4223L20.8756 16.9411C20.7082 16.4886 20.3514 16.1318 19.8988 15.9643L19.4176 15.7862C19.3097 15.7463 19.3097 15.5936 19.4176 15.5536L19.8988 15.3756C20.3514 15.2081 20.7082 14.8513 20.8756 14.3988L21.0537 13.9176Z" fill="#353566"/>
</g>
<defs>
<clipPath id="clip0_9001_301903">
<rect width="24" height="24" fill="white"/>
</clipPath>
</defs>
</svg>
