<svg width="24" height="24" viewBox="0 0 24 24" fill="none" xmlns="http://www.w3.org/2000/svg">
<g opacity="0.4">
<path d="M17.3536 6.64645C17.5488 6.84171 17.5488 7.15829 17.3536 7.35355L11.8536 12.8536C11.6583 13.0488 11.3417 13.0488 11.1464 12.8536C10.9512 12.6583 10.9512 12.3417 11.1464 12.1464L16.6464 6.64645C16.8417 6.45118 17.1583 6.45118 17.3536 6.64645Z" fill="#353566"/>
<path d="M1.64645 11.6464C1.84171 11.4512 2.15829 11.4512 2.35355 11.6464L7 16.2929L7.14645 16.1464C7.34171 15.9512 7.65829 15.9512 7.85355 16.1464C8.04882 16.3417 8.04882 16.6583 7.85355 16.8536L7.35355 17.3536C7.15829 17.5488 6.84171 17.5488 6.64645 17.3536L1.64645 12.3536C1.45118 12.1583 1.45118 11.8417 1.64645 11.6464Z" fill="#353566"/>
</g>
<path d="M22.3536 6.64645C22.5488 6.84171 22.5488 7.15829 22.3536 7.35355L12.3536 17.3536C12.1583 17.5488 11.8417 17.5488 11.6464 17.3536L6.64645 12.3536C6.45118 12.1583 6.45118 11.8417 6.64645 11.6464C6.84171 11.4512 7.15829 11.4512 7.35355 11.6464L12 16.2929L21.6464 6.64645C21.8417 6.45118 22.1583 6.45118 22.3536 6.64645Z" fill="#353566"/>
</svg>
