<svg width="24" height="24" viewBox="0 0 24 24" fill="none" xmlns="http://www.w3.org/2000/svg">
<path opacity="0.4" d="M7.89333 2.5C4.02715 2.5 1.5 5.79054 1.5 9.47438C1.5 13.1964 3.74864 16.2028 6.1044 18.3072C8.4609 20.4122 11.0191 21.7001 11.8419 21.9743L12 22.027L12.1581 21.9743C12.9809 21.7001 15.5391 20.4122 17.8956 18.3072C20.2514 16.2028 22.5 13.1964 22.5 9.47438C22.5 5.79054 19.9729 2.5 16.1067 2.5C14.1987 2.5 12.8582 3.3934 12 4.25953C11.1418 3.3934 9.80129 2.5 7.89333 2.5Z" fill="#353566"/>
<path d="M15.5303 8.46967C15.8232 8.76256 15.8232 9.23744 15.5303 9.53033L9.53033 15.5303C9.23744 15.8232 8.76256 15.8232 8.46967 15.5303C8.17678 15.2374 8.17678 14.7626 8.46967 14.4697L14.4697 8.46967C14.7626 8.17678 15.2374 8.17678 15.5303 8.46967Z" fill="#353566"/>
<path d="M8.5 9.5C8.5 8.94772 8.94772 8.5 9.5 8.5C10.0523 8.5 10.5001 8.94772 10.5001 9.5C10.5001 10.0523 10.0524 10.5 9.5001 10.5C8.94782 10.5 8.5 10.0523 8.5 9.5Z" fill="#353566"/>
<path d="M14.5 13.5C13.9477 13.5 13.5 13.9477 13.5 14.5C13.5 15.0523 13.9477 15.5 14.5 15.5C15.0523 15.5 15.5001 15.0523 15.5001 14.5C15.5001 13.9477 15.0523 13.5 14.5 13.5Z" fill="#353566"/>
</svg>
