<svg width="24" height="24" viewBox="0 0 24 24" fill="none" xmlns="http://www.w3.org/2000/svg">
<path opacity="0.4" d="M7.89333 2.5C4.02715 2.5 1.5 5.79054 1.5 9.47438C1.5 13.1964 3.74864 16.2028 6.1044 18.3072C8.4609 20.4122 11.0191 21.7001 11.8419 21.9743L12 22.027L12.1581 21.9743C12.9809 21.7001 15.5391 20.4122 17.8956 18.3072C20.2514 16.2028 22.5 13.1964 22.5 9.47438C22.5 5.79054 19.9729 2.5 16.1067 2.5C14.1987 2.5 12.8582 3.3934 12 4.25953C11.1418 3.3934 9.80129 2.5 7.89333 2.5Z" fill="#353566"/>
<path d="M14.46 6.25C14.46 5.83579 14.7957 5.5 15.21 5.5C17.8342 5.5 19.496 7.7358 19.496 10.1346C19.496 10.5488 19.1602 10.8846 18.746 10.8846C18.3317 10.8846 17.996 10.5488 17.996 10.1346C17.996 8.3642 16.819 7 15.21 7C14.7957 7 14.46 6.66421 14.46 6.25Z" fill="#353566"/>
</svg>
