<svg width="24" height="24" viewBox="0 0 24 24" fill="none" xmlns="http://www.w3.org/2000/svg">
<path opacity="0.4" d="M7.89333 2.5C4.02715 2.5 1.5 5.79054 1.5 9.47438C1.5 13.1964 3.74864 16.2028 6.1044 18.3072C8.4609 20.4122 11.0191 21.7001 11.8419 21.9743L12 22.027L12.1581 21.9743C12.9809 21.7001 15.5391 20.4122 17.8956 18.3072C20.2514 16.2028 22.5 13.1964 22.5 9.47438C22.5 5.79054 19.9729 2.5 16.1067 2.5C14.1987 2.5 12.8582 3.3934 12 4.25953C11.1418 3.3934 9.80129 2.5 7.89333 2.5Z" fill="#353566"/>
<path d="M16.0303 9.21967C16.3232 9.51256 16.3232 9.98744 16.0303 10.2803L11.5303 14.7803C11.2374 15.0732 10.7626 15.0732 10.4697 14.7803L7.96967 12.2803C7.67678 11.9874 7.67678 11.5126 7.96967 11.2197C8.26256 10.9268 8.73744 10.9268 9.03033 11.2197L11 13.1893L14.9697 9.21967C15.2626 8.92678 15.7374 8.92678 16.0303 9.21967Z" fill="#353566"/>
</svg>
