<svg width="24" height="24" viewBox="0 0 24 24" fill="none" xmlns="http://www.w3.org/2000/svg">
<path opacity="0.4" d="M12.8017 2.38008C12.0745 0.871349 9.92578 0.871355 9.19851 2.38009L7.06774 6.80039C7.03109 6.87641 6.95857 6.92881 6.87489 6.93973L1.99207 7.57688C0.318077 7.79532 -0.348975 9.8615 0.881268 11.0175L4.43805 14.3598C4.50017 14.4182 4.52826 14.5042 4.51259 14.588L3.61714 19.375C3.30824 21.0264 5.04969 22.2997 6.52961 21.5046L10.8818 19.1663C10.9557 19.1266 11.0445 19.1266 11.1184 19.1663L12.3882 19.8485C12.5778 19.9504 12.8021 19.9659 13.004 19.891C13.2058 19.8161 13.3658 19.6581 13.4431 19.4572C13.6605 18.8923 14.0497 18.4034 14.5358 18.0388C15.117 17.6029 15.8038 17.394 16.6331 17.2449C16.9904 17.1806 17.2504 16.8697 17.2504 16.5067V13.7087C17.2504 12.4865 18.0571 11.4109 19.2305 11.0686L21.1932 10.4962C21.4687 10.4158 21.6742 10.1853 21.7225 9.90237C21.8989 8.86941 21.2272 7.73595 20.0082 7.57688L15.1254 6.93973C15.0417 6.92881 14.9691 6.87641 14.9325 6.80039L12.8017 2.38008Z" fill="#353566"/>
<path d="M19.5005 16.124L22.6009 15.2197C23.1343 15.0641 23.501 14.5752 23.501 14.0196V12.6253C23.501 11.8752 22.7809 11.3352 22.0609 11.5452L19.5806 12.2686C18.9405 12.4553 18.5005 13.042 18.5005 13.7088V18.8953C18.049 18.6257 17.5167 18.4995 17.0003 18.4995C16.3995 18.4995 15.7773 18.6703 15.2859 19.0388C14.7891 19.4114 14.5 19.9352 14.5 20.4996C14.5 21.0641 14.7891 21.5879 15.2859 21.9604C15.7773 22.329 16.3995 22.4998 17.0003 22.4998C17.601 22.4998 18.2232 22.329 18.7147 21.9604C19.2114 21.5879 19.5005 21.0641 19.5005 20.4996C19.5005 20.4967 19.5005 20.4937 19.5005 20.4907V16.124Z" fill="#353566"/>
</svg>
