<svg width="24" height="24" viewBox="0 0 24 24" fill="none" xmlns="http://www.w3.org/2000/svg">
<path opacity="0.4" d="M12.8017 2.38008C12.0745 0.871349 9.92578 0.871355 9.19851 2.38009L7.06774 6.80039C7.03109 6.87641 6.95857 6.92881 6.87489 6.93973L1.99207 7.57688C0.318077 7.79532 -0.348975 9.8615 0.881268 11.0175L4.43805 14.3598C4.50017 14.4182 4.52826 14.5042 4.51259 14.588L3.61714 19.375C3.30824 21.0264 5.04969 22.2997 6.52961 21.5046L10.8818 19.1663C10.9147 19.1486 10.9503 19.1389 10.9864 19.1369C11.2579 19.122 11.5001 18.9614 11.6193 18.7171C11.7386 18.4728 11.7164 18.183 11.5611 17.9598C11.0719 17.2564 11.1629 16.281 11.8088 15.6809C13.4311 14.1737 15.6093 13.2498 17.9992 13.2498C18.1347 13.2498 18.2694 13.2528 18.4034 13.2586C18.6054 13.2675 18.8024 13.1944 18.9498 13.0559L21.119 11.0175C22.3492 9.8615 21.6822 7.79532 20.0082 7.57688L15.1254 6.93973C15.0417 6.92881 14.9691 6.87641 14.9325 6.80039L12.8017 2.38008Z" fill="#353566"/>
<path d="M17.9993 15.75C16.2651 15.75 14.6885 16.4182 13.5105 17.5127C13.207 17.7946 12.7325 17.7772 12.4505 17.4737C12.1686 17.1702 12.1861 16.6957 12.4895 16.4138C13.9341 15.0717 15.8716 14.25 17.9993 14.25C20.1278 14.25 22.0659 15.0723 23.5106 16.4151C23.814 16.6971 23.8313 17.1717 23.5493 17.4751C23.2673 17.7785 22.7928 17.7958 22.4894 17.5138C21.3112 16.4187 19.7342 15.75 17.9993 15.75Z" fill="#353566"/>
<path d="M18.0032 19.0833C17.2185 19.0833 16.5008 19.4138 15.9697 19.9648C15.6823 20.2631 15.2075 20.2718 14.9092 19.9844C14.611 19.6969 14.6022 19.2221 14.8897 18.9239C15.6831 18.1006 16.7827 17.5833 18.0032 17.5833C19.2237 17.5833 20.3233 18.1006 21.1168 18.9239C21.4042 19.2221 21.3955 19.6969 21.0972 19.9844C20.799 20.2718 20.3242 20.2631 20.0367 19.9648C19.5057 19.4138 18.7879 19.0833 18.0032 19.0833Z" fill="#353566"/>
<path d="M18 20.5C17.4477 20.5 17 20.9477 17 21.5C17 22.0523 17.4477 22.5 18 22.5C18.5523 22.5 19.0001 22.0523 19.0001 21.5C19.0001 20.9477 18.5523 20.5 18 20.5Z" fill="#353566"/>
</svg>
