<svg width="24" height="24" viewBox="0 0 24 24" fill="none" xmlns="http://www.w3.org/2000/svg">
<path opacity="0.4" d="M12.8017 2.38008C12.0745 0.871349 9.92578 0.871355 9.19851 2.38009L7.06774 6.80039C7.03109 6.87641 6.95857 6.92881 6.87489 6.93973L1.99207 7.57688C0.318077 7.79532 -0.348975 9.8615 0.881268 11.0175L4.43805 14.3598C4.50017 14.4182 4.52826 14.5042 4.51259 14.588L3.61714 19.375C3.30824 21.0264 5.04969 22.2997 6.52961 21.5046L10.5342 19.353C10.8286 19.1949 10.9828 18.8611 10.9125 18.5344C10.8061 18.0404 10.7499 17.5271 10.7499 16.9998C10.7499 12.9958 13.9958 9.74982 17.9999 9.74982C18.963 9.74982 19.8805 9.93722 20.7193 10.2769C20.9491 10.3699 21.21 10.3434 21.4164 10.206C21.6228 10.0686 21.7479 9.83806 21.7507 9.59015C21.7612 8.65783 21.1054 7.72006 20.0082 7.57688L15.1254 6.93973C15.0417 6.92881 14.9691 6.87641 14.9325 6.80039L12.8017 2.38008Z" fill="#353566"/>
<path fill-rule="evenodd" clip-rule="evenodd" d="M12.25 17C12.25 13.8244 14.8244 11.25 18 11.25C21.1756 11.25 23.75 13.8244 23.75 17C23.75 20.1756 21.1756 22.75 18 22.75C14.8244 22.75 12.25 20.1756 12.25 17ZM15.5581 16.942C15.314 16.6979 15.314 16.3022 15.5581 16.0581L17.5581 14.0581C17.6753 13.9408 17.8343 13.875 18 13.875C18.1658 13.875 18.3248 13.9408 18.442 14.0581L20.442 16.058C20.686 16.3021 20.686 16.6979 20.442 16.9419C20.1979 17.186 19.8021 17.186 19.5581 16.9419L18.625 16.0089L18.625 19.5C18.625 19.8452 18.3452 20.125 18 20.125C17.6548 20.125 17.375 19.8452 17.375 19.5L17.375 16.0089L16.4419 16.942C16.1979 17.186 15.8021 17.186 15.5581 16.942Z" fill="#353566"/>
</svg>
