<svg width="24" height="24" viewBox="0 0 24 24" fill="none" xmlns="http://www.w3.org/2000/svg">
<path opacity="0.4" d="M13.0008 22.5018C12.5136 22.5031 12.0623 22.2455 11.8157 21.8252L7.35913 14.2314C7.42788 14.0412 7.46047 13.841 7.4779 13.6277C7.5 13.3571 7.5 13.0249 7.49999 12.6224V4.38114C7.5 3.97864 7.5 3.64646 7.4779 3.37586C7.47343 3.3212 7.46797 3.2674 7.46116 3.21441C8.66918 2.61039 9.32393 2.28368 10.0128 2.05186C10.6281 1.84479 11.2613 1.69522 11.9043 1.6051C12.6284 1.50361 13.3646 1.50344 14.7309 1.50313L15.467 1.50296C16.2616 1.50277 16.8855 1.50262 17.393 1.54005C17.9111 1.57826 18.3424 1.65735 18.7473 1.83301C19.4195 2.12461 19.9986 2.59523 20.4216 3.1935C20.6764 3.5539 20.842 3.95993 20.9854 4.45921C21.1259 4.94836 21.2534 5.55909 21.4158 6.33692L22.0987 9.60819C22.2667 10.413 22.3995 11.0493 22.4608 11.5643C22.5232 12.0886 22.5195 12.5425 22.375 12.9682C22.1442 13.6483 21.6771 14.223 21.0585 14.588C20.6713 14.8164 20.2277 14.9128 19.7018 14.9588C19.1851 15.0041 18.5351 15.0041 17.7129 15.0041H14.5711L15.2312 19.9532C15.4111 21.3024 14.3618 22.5013 13.0008 22.5018Z" fill="#353566"/>
<path d="M4.62065 15.5017H4.37935C3.97687 15.5017 3.64468 15.5017 3.37409 15.4796C3.09304 15.4566 2.83469 15.4074 2.59202 15.2837C2.2157 15.092 1.90973 14.786 1.71799 14.4097C1.59434 14.167 1.54506 13.9087 1.5221 13.6276C1.49999 13.357 1.49999 13.0248 1.5 12.6224V4.38106C1.49999 3.97858 1.49999 3.64639 1.5221 3.3758C1.54506 3.09475 1.59434 2.8364 1.71799 2.59373C1.90973 2.2174 2.2157 1.91144 2.59202 1.7197C2.83469 1.59605 3.09304 1.54677 3.37409 1.52381C3.64468 1.5017 3.97686 1.5017 4.37934 1.50171H4.62066C5.02314 1.5017 5.35532 1.5017 5.62591 1.52381C5.90696 1.54677 6.16531 1.59605 6.40798 1.7197C6.78431 1.91144 7.09027 2.2174 7.28201 2.59373C7.40566 2.8364 7.45494 3.09475 7.4779 3.3758C7.50001 3.6464 7.50001 3.97858 7.5 4.38107V12.6223C7.50001 13.0248 7.50001 13.357 7.4779 13.6276C7.45494 13.9087 7.40566 14.167 7.28201 14.4097C7.09027 14.786 6.78431 15.092 6.40798 15.2837C6.16531 15.4074 5.90696 15.4566 5.62591 15.4796C5.35532 15.5017 5.02313 15.5017 4.62065 15.5017Z" fill="#353566"/>
</svg>
