<svg width="24" height="24" viewBox="0 0 24 24" fill="none" xmlns="http://www.w3.org/2000/svg">
<g clip-path="url(#clip0_9001_288152)">
<path fill-rule="evenodd" clip-rule="evenodd" d="M8.93021 0.385518C9.26955 0.623054 9.35208 1.0907 9.11454 1.43004L6.44061 5.24994H15.5596L12.8857 1.43004C12.6482 1.0907 12.7307 0.623054 13.07 0.385518C13.4094 0.147983 13.877 0.230509 14.1145 0.569846L17.3906 5.24994L19.084 5.24988C19.4648 5.24948 19.7933 5.24913 20.0825 5.32661C20.8589 5.53466 21.4654 6.14114 21.6735 6.9176C21.7509 7.20675 21.7506 7.53527 21.7502 7.91607L21.7501 7.99994L21.7502 8.08382C21.7506 8.46461 21.7509 8.79314 21.6734 9.08229C21.525 9.63644 21.1735 10.104 20.7022 10.402L20.5325 11.6462C20.4766 12.0566 20.0985 12.3439 19.6881 12.288C19.2777 12.232 18.9903 11.8539 19.0463 11.4435L19.1409 10.7501H2.85931L3.83043 17.8715C4.01623 19.2341 5.18001 20.25 6.55521 20.25H11.9557C12.3699 20.25 12.7057 20.5858 12.7057 21C12.7057 21.4142 12.3699 21.75 11.9557 21.75H6.55521C4.42991 21.75 2.63134 20.18 2.34418 18.0742L1.29796 10.4019C0.826667 10.104 0.475261 9.63641 0.326783 9.08229C0.249307 8.79314 0.249654 8.46462 0.250057 8.08382L0.250116 7.99994L0.250057 7.91606C0.249654 7.53527 0.249307 7.20675 0.326783 6.9176C0.534834 6.14114 1.14132 5.53466 1.91777 5.32661C2.20692 5.24913 2.53544 5.24948 2.91623 5.24988L4.60962 5.24994L7.88569 0.569846C8.12323 0.230509 8.59088 0.147983 8.93021 0.385518ZM3.00012 6.74994C2.48684 6.74994 2.37734 6.75638 2.306 6.7755C2.04718 6.84485 1.84502 7.04701 1.77567 7.30583C1.75656 7.37716 1.75012 7.48667 1.75012 7.99994C1.75012 8.51321 1.75656 8.62272 1.77567 8.69406C1.84502 8.95288 2.04718 9.15504 2.306 9.22439C2.37734 9.2435 2.48684 9.24994 3.00012 9.24994H19.0001C19.5134 9.24994 19.6229 9.2435 19.6942 9.22439C19.953 9.15504 20.1552 8.95288 20.2246 8.69406C20.2437 8.62272 20.2501 8.51321 20.2501 7.99994C20.2501 7.48667 20.2437 7.37716 20.2246 7.30583C20.1552 7.04701 19.9531 6.84485 19.6942 6.7755C19.6229 6.75638 19.5134 6.74994 19.0001 6.74994H3.00012Z" fill="#353566"/>
<path d="M7.00022 12.751C7.41444 12.751 7.75022 13.0868 7.75022 13.501L7.75021 17.0011C7.75021 17.4153 7.41442 17.7511 7.00021 17.7511C6.586 17.7511 6.25021 17.4153 6.25021 17.0011L6.25022 13.501C6.25022 13.0868 6.58601 12.751 7.00022 12.751Z" fill="#353566"/>
<path d="M11.0003 12.751C11.4145 12.751 11.7503 13.0868 11.7503 13.501L11.7503 14.521C11.7503 14.9353 11.4145 15.271 11.0003 15.271C10.5861 15.271 10.2503 14.9353 10.2503 14.521L10.2503 13.501C10.2503 13.0868 10.5861 12.751 11.0003 12.751Z" fill="#353566"/>
<path fill-rule="evenodd" clip-rule="evenodd" d="M22.8768 19.5938C24.0425 17.9761 23.9756 15.8953 23.0654 14.6621C22.3351 13.6726 21.0851 13.0497 19.8485 13.3089C19.1568 13.4553 18.5155 13.7626 18.0002 14.2484C17.4848 13.7626 16.8435 13.4553 16.1518 13.3089C14.9141 13.052 13.6664 13.671 12.9349 14.6621C12.0247 15.8953 11.9579 17.9761 13.1235 19.5938C13.9148 20.6919 15.5056 22.1469 16.5097 23.0245C16.5314 23.0435 16.5532 23.0626 16.5751 23.0819C16.8421 23.3168 17.1314 23.5712 17.5044 23.6815C17.8197 23.7747 18.1807 23.7747 18.496 23.6815C18.869 23.5712 19.1583 23.3167 19.4253 23.0819C19.4472 23.0626 19.469 23.0434 19.4907 23.0245C20.4947 22.1469 22.0855 20.6919 22.8768 19.5938ZM18.5944 15.835C19.0108 15.2942 19.478 14.9209 20.1576 14.7767C20.6188 14.6815 21.3303 14.8371 21.8585 15.5528C22.3493 16.2178 22.4773 17.5824 21.6599 18.7169C20.9853 19.653 19.5281 20.9995 18.5035 21.8951C18.4787 21.9168 18.452 21.9407 18.4241 21.9657C18.3095 22.0684 18.1753 22.1887 18.0728 22.2423C18.0292 22.2581 17.9712 22.2582 17.9275 22.2423C17.8251 22.1888 17.691 22.0686 17.5764 21.9658C17.5484 21.9408 17.5217 21.9168 17.4968 21.8951C16.4722 20.9995 15.015 19.653 14.3405 18.7169C13.5231 17.5824 13.6511 16.2178 14.1418 15.5528C14.67 14.8371 15.3816 14.6815 15.8427 14.7767C16.5223 14.9209 16.9895 15.2942 17.4059 15.835C17.5479 16.0194 17.7674 16.1274 18.0002 16.1274C18.2329 16.1274 18.4524 16.0194 18.5944 15.835Z" fill="#353566"/>
</g>
<defs>
<clipPath id="clip0_9001_288152">
<rect width="24" height="24" fill="white"/>
</clipPath>
</defs>
</svg>
