<svg width="24" height="24" viewBox="0 0 24 24" fill="none" xmlns="http://www.w3.org/2000/svg">
<path fill-rule="evenodd" clip-rule="evenodd" d="M6.51204 1.25H14.15C14.7777 1.25258 15.3083 1.26328 15.7599 1.30018C16.3899 1.35165 16.9318 1.45963 17.4295 1.71322C18.2291 2.12068 18.8793 2.77085 19.2868 3.57054C19.5404 4.06824 19.6483 4.61012 19.6998 5.24013C19.75 5.85438 19.75 6.6149 19.75 7.5673V10.4057C19.75 10.8199 19.4142 11.1557 19 11.1557C18.5858 11.1557 18.25 10.8199 18.25 10.4057V7.6C18.25 6.60753 18.2494 5.90829 18.2048 5.36228C18.1609 4.82503 18.0782 4.50252 17.9503 4.25153C17.6866 3.73408 17.2659 3.31338 16.7485 3.04973C16.4975 2.92184 16.175 2.83909 15.6377 2.79519C15.2407 2.76276 14.7628 2.7536 14.15 2.75101V9.39201C14.15 10.4684 12.8801 11.0415 12.073 10.3293L9.99998 8.50022L7.92703 10.3293C7.11991 11.0415 5.85 10.4684 5.85 9.39201L5.84998 2.75101C5.23722 2.7536 4.75925 2.76276 4.36228 2.79519C3.82503 2.83909 3.50252 2.92184 3.25153 3.04973C2.73408 3.31338 2.31338 3.73408 2.04973 4.25153C1.92184 4.50252 1.83909 4.82503 1.79519 5.36228C1.75058 5.90829 1.75 6.60753 1.75 7.6V14.4C1.75 15.3925 1.75058 16.0917 1.79519 16.6377C1.83909 17.175 1.92184 17.4975 2.04973 17.7485C2.31338 18.2659 2.73408 18.6866 3.25153 18.9503C3.50252 19.0782 3.82503 19.1609 4.36228 19.2048C4.90829 19.2494 5.60753 19.25 6.6 19.25H12.2531C12.6673 19.25 13.0031 19.5858 13.0031 20C13.0031 20.4142 12.6673 20.75 12.2531 20.75H6.56737C5.61496 20.75 4.85438 20.75 4.24013 20.6998C3.61012 20.6483 3.06824 20.5404 2.57054 20.2868C1.77085 19.8793 1.12068 19.2291 0.713223 18.4295C0.459634 17.9318 0.35165 17.3899 0.300176 16.7599C0.249989 16.1456 0.249994 15.3851 0.25 14.4326V7.56739C0.249994 6.61495 0.249989 5.85439 0.300176 5.24013C0.35165 4.61012 0.459634 4.06824 0.713223 3.57054C1.12068 2.77085 1.77085 2.12068 2.57054 1.71322C3.06824 1.45963 3.61012 1.35165 4.24013 1.30018C4.69166 1.26328 5.22224 1.25351 5.84998 1.25093L6.51204 1.25ZM7.35 8.83801L7.34998 2.75H12.65V8.83802L10.827 7.22951C10.3545 6.81258 9.64548 6.81258 9.17295 7.22952L7.35 8.83801Z" fill="#353566"/>
<path d="M8.75 15.5C8.75 15.9142 8.41421 16.25 8 16.25H5.50003C5.08581 16.25 4.75003 15.9142 4.75003 15.5C4.75003 15.0858 5.08581 14.75 5.50003 14.75H8C8.41421 14.75 8.75 15.0858 8.75 15.5Z" fill="#353566"/>
<path d="M23 18.25C23.4142 18.25 23.75 17.9142 23.75 17.5V16.5C23.75 15.2574 22.7426 14.25 21.5 14.25H17.3106L18.0303 13.5303C18.3232 13.2374 18.3232 12.7626 18.0303 12.4697C17.7374 12.1768 17.2625 12.1768 16.9696 12.4697L14.9696 14.4697C14.7551 14.6842 14.6909 15.0068 14.807 15.287C14.9231 15.5673 15.1966 15.75 15.4999 15.75H21.5C21.9142 15.75 22.25 16.0858 22.25 16.5V17.5C22.25 17.9142 22.5858 18.25 23 18.25Z" fill="#353566"/>
<path d="M14.25 17.5C14.25 17.0858 14.5858 16.75 15 16.75C15.4142 16.75 15.75 17.0858 15.75 17.5V18.5C15.75 18.9142 16.0858 19.25 16.5 19.25H22.5C22.8033 19.25 23.0768 19.4327 23.1929 19.713C23.309 19.9933 23.2448 20.3158 23.0303 20.5303L21.0303 22.5303C20.7374 22.8232 20.2625 22.8232 19.9696 22.5303C19.6767 22.2374 19.6767 21.7626 19.9696 21.4697L20.6893 20.75H16.5C15.2574 20.75 14.25 19.7426 14.25 18.5V17.5Z" fill="#353566"/>
</svg>
