<svg width="24" height="24" viewBox="0 0 24 24" fill="none" xmlns="http://www.w3.org/2000/svg">
<path d="M6.31605 16.2925C6.48601 15.9148 6.93001 15.7464 7.30775 15.9163L9.30775 16.8162C9.68548 16.9862 9.85392 17.4302 9.68396 17.8079C9.51399 18.1857 9.06999 18.3541 8.69226 18.1841L6.69226 17.2842C6.31452 17.1143 6.14609 16.6703 6.31605 16.2925Z" fill="#353566"/>
<path fill-rule="evenodd" clip-rule="evenodd" d="M10.2073 1.64707C11.344 1.1183 12.656 1.11829 13.7927 1.64707L20.2927 4.67096C21.7915 5.36823 22.75 6.87131 22.75 8.52438V15.5457C22.75 17.2114 21.7769 18.7236 20.2609 19.4138L13.7609 22.3727C12.6422 22.882 11.3578 22.882 10.2392 22.3727L3.73915 19.4138C2.22311 18.7236 1.25 17.2114 1.25 15.5457V8.52438C1.25 6.87132 2.20852 5.36823 3.70733 4.67096L10.2073 1.64707ZM13.16 3.0071C12.4245 2.66495 11.5755 2.66495 10.84 3.0071L8.60021 4.0491L17.5239 8.18448L20.6344 6.79035C20.3763 6.47252 20.0458 6.21049 19.66 6.03099L13.16 3.0071ZM21.227 8.16856L12.7511 11.9674L12.751 21.1502C12.883 21.1127 13.0128 21.0652 13.1394 21.0075L19.6394 18.0486C20.6203 17.602 21.25 16.6235 21.25 15.5457V8.52438C21.25 8.40435 21.2422 8.28554 21.227 8.16856ZM11.2511 11.9684L2.77305 8.16856C2.75781 8.28555 2.75 8.40435 2.75 8.52438V15.5457C2.75 16.6235 3.37966 17.602 4.36063 18.0486L10.8606 21.0075C10.9878 21.0655 11.1184 21.1132 11.251 21.1507L11.2511 11.9684ZM3.36556 6.79036L12 10.6603L15.7104 8.99729L6.93463 4.93048C6.89802 4.91351 6.86343 4.89397 6.83097 4.87217L4.34004 6.03099C3.9542 6.21049 3.62369 6.47252 3.36556 6.79036Z" fill="#353566"/>
</svg>
