<svg width="24" height="24" viewBox="0 0 24 24" fill="none" xmlns="http://www.w3.org/2000/svg">
<g clip-path="url(#clip0_9001_290294)">
<path fill-rule="evenodd" clip-rule="evenodd" d="M10.4164 0.25C10.4337 0.25 10.4511 0.25 10.4686 0.25H13.5314C13.5489 0.25 13.5663 0.25 13.5836 0.25H13.7C13.7026 0.25 13.7052 0.250008 13.7078 0.250024C14.3017 0.250279 14.7952 0.253229 15.2031 0.286552C15.6663 0.324402 16.0847 0.405138 16.4755 0.60423C17.087 0.915818 17.5842 1.413 17.8958 2.02453C18.0949 2.41527 18.1756 2.83367 18.2134 3.29693C18.25 3.74449 18.25 4.29519 18.25 4.96856V8.03144C18.25 8.70481 18.25 9.25551 18.2134 9.70307C18.1756 10.1663 18.0949 10.5847 17.8958 10.9755C17.8477 11.0698 17.7952 11.1614 17.7386 11.25H19.2L19.2078 11.25C19.8017 11.2503 20.2952 11.2532 20.7031 11.2866C21.1663 11.3244 21.5847 11.4051 21.9755 11.6042C22.587 11.9158 23.0842 12.413 23.3958 13.0245C23.5949 13.4153 23.6756 13.8337 23.7134 14.2969C23.75 14.7445 23.75 15.2952 23.75 15.9686V19.0314C23.75 19.7048 23.75 20.2555 23.7134 20.7031C23.6756 21.1663 23.5949 21.5847 23.3958 21.9755C23.0842 22.587 22.587 23.0842 21.9755 23.3958C21.5847 23.5949 21.1663 23.6756 20.7031 23.7134C20.2555 23.75 19.7048 23.75 19.0314 23.75H15.9686C15.2952 23.75 14.7445 23.75 14.2969 23.7134C13.8337 23.6756 13.4153 23.5949 13.0245 23.3958C12.6287 23.1941 12.2807 22.9146 12 22.5767C11.7193 22.9146 11.3713 23.1941 10.9755 23.3958C10.5847 23.5949 10.1663 23.6756 9.70307 23.7134C9.25551 23.75 8.70481 23.75 8.03144 23.75H4.96856C4.29519 23.75 3.74449 23.75 3.29693 23.7134C2.83367 23.6756 2.41527 23.5949 2.02453 23.3958C1.413 23.0842 0.915818 22.587 0.604229 21.9755C0.405137 21.5847 0.324402 21.1663 0.286552 20.7031C0.249984 20.2555 0.249992 19.7048 0.25 19.0314V15.9686C0.249992 15.2952 0.249984 14.7445 0.286552 14.2969C0.324402 13.8337 0.405137 13.4153 0.604229 13.0245C0.915818 12.413 1.413 11.9158 2.02453 11.6042C2.41527 11.4051 2.83367 11.3244 3.29693 11.2866C3.70481 11.2532 4.19836 11.2503 4.79234 11.25L4.80005 11.25H6.26138C6.20476 11.1614 6.15229 11.0698 6.10423 10.9755C5.90514 10.5847 5.8244 10.1663 5.78655 9.70307C5.74998 9.25551 5.74999 8.7048 5.75 8.03142V4.96858C5.74999 4.2952 5.74998 3.7445 5.78655 3.29693C5.8244 2.83367 5.90514 2.41527 6.10423 2.02453C6.41582 1.413 6.913 0.915818 7.52453 0.60423C7.91527 0.405138 8.33367 0.324402 8.79693 0.286552C9.20481 0.253227 9.69835 0.250278 10.2923 0.250024C10.2949 0.250008 10.2975 0.25 10.3 0.25H10.4164ZM9.05005 1.77231C9.00492 1.77505 8.96132 1.77812 8.91908 1.78157C8.54858 1.81184 8.34956 1.86735 8.20552 1.94074C7.87623 2.10852 7.60852 2.37623 7.44074 2.70552C7.36735 2.84956 7.31184 3.04858 7.28157 3.41908C7.25058 3.79833 7.25 4.28756 7.25 5V8C7.25 8.71244 7.25058 9.20167 7.28157 9.58092C7.31184 9.95142 7.36735 10.1504 7.44074 10.2945C7.60852 10.6238 7.87623 10.8915 8.20552 11.0593C8.34956 11.1327 8.54858 11.1882 8.91908 11.2184C9.29833 11.2494 9.78756 11.25 10.5 11.25H13.5C14.2124 11.25 14.7017 11.2494 15.0809 11.2184C15.4514 11.1882 15.6504 11.1327 15.7945 11.0593C16.1238 10.8915 16.3915 10.6238 16.5593 10.2945C16.6327 10.1504 16.6882 9.95142 16.7184 9.58092C16.7494 9.20167 16.75 8.71244 16.75 8V5C16.75 4.28756 16.7494 3.79833 16.7184 3.41908C16.6882 3.04858 16.6327 2.84956 16.5593 2.70552C16.3915 2.37623 16.1238 2.10852 15.7945 1.94074C15.6504 1.86735 15.4514 1.81184 15.0809 1.78157C15.0387 1.77812 14.9951 1.77505 14.95 1.77231V5.92534C14.95 6.79933 13.9078 7.25277 13.2683 6.65696L12 5.47514L10.7318 6.65693C10.0924 7.25276 9.05005 6.79932 9.05005 5.92532V1.77231ZM13.45 1.75H10.55V4.77597L11.3183 4.06011C11.7023 3.70225 12.2977 3.70225 12.6817 4.0601L13.45 4.77602V1.75ZM14.55 12.7723C14.5049 12.775 14.4613 12.7781 14.4191 12.7816C14.0486 12.8118 13.8496 12.8673 13.7055 12.9407C13.3762 13.1085 13.1085 13.3762 12.9407 13.7055C12.8673 13.8496 12.8118 14.0486 12.7816 14.4191C12.7506 14.7983 12.75 15.2876 12.75 16L12.75 19.046C12.75 19.7336 12.7513 20.2099 12.7816 20.5809C12.8118 20.9514 12.8673 21.1504 12.9407 21.2945C13.1085 21.6238 13.3762 21.8915 13.7055 22.0593C13.8496 22.1327 14.0486 22.1882 14.4191 22.2184C14.7983 22.2494 15.2876 22.25 16 22.25H19C19.7124 22.25 20.2017 22.2494 20.5809 22.2184C20.9514 22.1882 21.1504 22.1327 21.2945 22.0593C21.6238 21.8915 21.8915 21.6238 22.0593 21.2945C22.1327 21.1504 22.1882 20.9514 22.2184 20.5809C22.2494 20.2017 22.25 19.7124 22.25 19V16C22.25 15.2876 22.2494 14.7983 22.2184 14.4191C22.1882 14.0486 22.1327 13.8496 22.0593 13.7055C21.8915 13.3762 21.6238 13.1085 21.2945 12.9407C21.1504 12.8673 20.9514 12.8118 20.5809 12.7816C20.5387 12.7781 20.4951 12.7751 20.45 12.7723V16.9253C20.45 17.7993 19.4078 18.2528 18.7683 17.657L17.5 16.4751L16.2318 17.6569C15.5924 18.2528 14.55 17.7993 14.55 16.9253V12.7723ZM18.95 12.75H16.05V15.776L16.8183 15.0601C17.2023 14.7023 17.7977 14.7022 18.1817 15.0601L18.95 15.776V12.75ZM11.25 16C11.25 15.2876 11.2494 14.7983 11.2184 14.4191C11.1882 14.0486 11.1327 13.8496 11.0593 13.7055C10.8915 13.3762 10.6238 13.1085 10.2945 12.9407C10.1504 12.8673 9.95142 12.8118 9.58092 12.7816C9.53871 12.7781 9.49514 12.7751 9.45005 12.7723V16.9253C9.45005 17.7993 8.40776 18.2528 7.76833 17.657L6.50001 16.4751L5.23178 17.6569C4.59236 18.2528 3.55005 17.7993 3.55005 16.9253V12.7723C3.50492 12.775 3.46132 12.7781 3.41908 12.7816C3.04858 12.8118 2.84956 12.8673 2.70552 12.9407C2.37623 13.1085 2.10852 13.3762 1.94074 13.7055C1.86735 13.8496 1.81184 14.0486 1.78157 14.4191C1.75058 14.7983 1.75 15.2876 1.75 16V19C1.75 19.7124 1.75058 20.2017 1.78157 20.5809C1.81184 20.9514 1.86735 21.1504 1.94074 21.2945C2.10852 21.6238 2.37623 21.8915 2.70552 22.0593C2.84956 22.1327 3.04858 22.1882 3.41908 22.2184C3.79833 22.2494 4.28756 22.25 5 22.25H8C8.71244 22.25 9.20167 22.2494 9.58092 22.2184C9.95142 22.1882 10.1504 22.1327 10.2945 22.0593C10.6238 21.8915 10.8915 21.6238 11.0593 21.2945C11.1327 21.1504 11.1882 20.9514 11.2184 20.5809C11.2487 20.2099 11.25 19.7336 11.25 19.046L11.25 16ZM7.95005 12.75H5.05005V15.776L5.81827 15.0601C6.20231 14.7023 6.79768 14.7022 7.18172 15.0601L7.95005 15.776V12.75Z" fill="#353566"/>
</g>
<defs>
<clipPath id="clip0_9001_290294">
<rect width="24" height="24" fill="white"/>
</clipPath>
</defs>
</svg>
