<svg width="24" height="24" viewBox="0 0 24 24" fill="none" xmlns="http://www.w3.org/2000/svg">
<path fill-rule="evenodd" clip-rule="evenodd" d="M2 1.25C1.58579 1.25 1.25 1.58579 1.25 2C1.25 2.41421 1.58579 2.75 2 2.75H3.18189C3.55884 2.75 3.87721 3.02977 3.92567 3.40358L5.28029 13.8535C5.32617 14.2075 5.43805 14.5384 5.60258 14.8346C4.53571 15.1199 3.75 16.0932 3.75 17.25C3.75 18.6307 4.86929 19.75 6.25 19.75H6.37803C6.29512 19.9846 6.25 20.237 6.25 20.5C6.25 21.7426 7.25736 22.75 8.5 22.75C9.74264 22.75 10.75 21.7426 10.75 20.5C10.75 20.237 10.7049 19.9846 10.622 19.75H16.378C16.2951 19.9846 16.25 20.237 16.25 20.5C16.25 21.7426 17.2574 22.75 18.5 22.75C19.7426 22.75 20.75 21.7426 20.75 20.5C20.75 20.237 20.7049 19.9846 20.622 19.75H21C21.4142 19.75 21.75 19.4142 21.75 19C21.75 18.5858 21.4142 18.25 21 18.25H6.25C5.69772 18.25 5.25 17.8023 5.25 17.25C5.25 16.6977 5.69772 16.25 6.25 16.25H18.717C20.3979 16.25 21.8014 14.9682 21.9536 13.2942L22.7469 4.5679C22.7844 4.15539 22.4804 3.79058 22.0679 3.75308C21.6554 3.71558 21.2906 4.01959 21.2531 4.4321L20.4598 13.1584C20.3778 14.0598 19.6221 14.75 18.717 14.75H8.00747C7.37924 14.75 6.84861 14.2837 6.76785 13.6607L5.41322 3.21075C5.26785 2.08931 4.31272 1.25 3.18189 1.25H2ZM18.5 19.75C18.0858 19.75 17.75 20.0858 17.75 20.5C17.75 20.9142 18.0858 21.25 18.5 21.25C18.9142 21.25 19.25 20.9142 19.25 20.5C19.25 20.0858 18.9142 19.75 18.5 19.75ZM7.75 20.5C7.75 20.0858 8.08579 19.75 8.5 19.75C8.91421 19.75 9.25 20.0858 9.25 20.5C9.25 20.9142 8.91421 21.25 8.5 21.25C8.08579 21.25 7.75 20.9142 7.75 20.5Z" fill="#353566"/>
<path d="M17.25 8C17.25 8.41421 16.9142 8.75 16.5 8.75H14.25V11C14.25 11.4142 13.9142 11.75 13.5 11.75C13.0858 11.75 12.75 11.4142 12.75 11V8.75H10.5C10.0858 8.75 9.75 8.41421 9.75 8C9.75 7.58579 10.0858 7.25 10.5 7.25H12.75V5C12.75 4.58579 13.0858 4.25 13.5 4.25C13.9142 4.25 14.25 4.58579 14.25 5V7.25H16.5C16.9142 7.25 17.25 7.58579 17.25 8Z" fill="#353566"/>
</svg>
