<svg width="24" height="24" viewBox="0 0 24 24" fill="none" xmlns="http://www.w3.org/2000/svg">
<g clip-path="url(#clip0_9001_287882)">
<path d="M15.5303 5.03033C15.8232 4.73744 15.8232 4.26256 15.5303 3.96967C15.2374 3.67678 14.7626 3.67678 14.4697 3.96967L11 7.43934L9.53033 5.96967C9.23744 5.67678 8.76256 5.67678 8.46967 5.96967C8.17678 6.26256 8.17678 6.73744 8.46967 7.03033L10.4697 9.03033C10.7626 9.32322 11.2374 9.32322 11.5303 9.03033L15.5303 5.03033Z" fill="#353566"/>
<path fill-rule="evenodd" clip-rule="evenodd" d="M9.7679 0.25H14.2321C15.0449 0.249993 15.7006 0.249987 16.2315 0.293364C16.7781 0.338026 17.2582 0.432386 17.7025 0.658726C18.4081 1.01825 18.9817 1.59193 19.3413 2.29754C19.5676 2.74175 19.662 3.2219 19.7066 3.76853C19.75 4.29945 19.75 4.95507 19.75 5.76793V7.23207C19.75 8.04493 19.75 8.70055 19.7066 9.23147C19.662 9.7781 19.5676 10.2582 19.3413 10.7025C18.9817 11.4081 18.4081 11.9817 17.7025 12.3413C17.2582 12.5676 16.7781 12.662 16.2315 12.7066C15.7006 12.75 15.045 12.75 14.2321 12.75H9.76788C8.95505 12.75 8.29944 12.75 7.76853 12.7066C7.2219 12.662 6.74175 12.5676 6.29754 12.3413C5.59193 11.9817 5.01825 11.4081 4.65873 10.7025C4.43239 10.2582 4.33803 9.7781 4.29336 9.23147C4.24999 8.70056 4.24999 8.04495 4.25 7.23212V5.7679C4.24999 4.95506 4.24999 4.29944 4.29336 3.76853C4.33803 3.2219 4.43239 2.74175 4.65873 2.29754C5.01825 1.59193 5.59193 1.01825 6.29754 0.658726C6.74175 0.432386 7.2219 0.338026 7.76853 0.293364C8.29944 0.249987 8.95506 0.249993 9.7679 0.25ZM7.89068 1.78838C7.4368 1.82547 7.17604 1.8946 6.97852 1.99524C6.55516 2.21095 6.21095 2.55516 5.99524 2.97852C5.8946 3.17604 5.82547 3.43681 5.78838 3.89068C5.75058 4.35331 5.75 4.94755 5.75 5.8V7.2C5.75 8.05245 5.75058 8.64669 5.78838 9.10932C5.82547 9.5632 5.8946 9.82396 5.99524 10.0215C6.21095 10.4448 6.55516 10.789 6.97852 11.0048C7.17604 11.1054 7.4368 11.1745 7.89068 11.2116C8.35331 11.2494 8.94755 11.25 9.8 11.25H14.2C15.0525 11.25 15.6467 11.2494 16.1093 11.2116C16.5632 11.1745 16.824 11.1054 17.0215 11.0048C17.4448 10.789 17.789 10.4448 18.0048 10.0215C18.1054 9.82396 18.1745 9.5632 18.2116 9.10932C18.2494 8.64669 18.25 8.05245 18.25 7.2V5.8C18.25 4.94755 18.2494 4.35331 18.2116 3.89068C18.1745 3.43681 18.1054 3.17604 18.0048 2.97852C17.789 2.55516 17.4448 2.21095 17.0215 1.99524C16.824 1.8946 16.5632 1.82547 16.1093 1.78838C15.6467 1.75058 15.0525 1.75 14.2 1.75H9.8C8.94755 1.75 8.35331 1.75058 7.89068 1.78838Z" fill="#353566"/>
<path d="M6 18C5.44772 18 5 18.4477 5 19C5 19.5523 5.44772 20 6 20C6.55228 20 7.0001 19.5523 7.0001 19C7.0001 18.4477 6.55228 18 6 18Z" fill="#353566"/>
<path d="M11 19C11 18.4477 11.4477 18 12 18C12.5523 18 13.0001 18.4477 13.0001 19C13.0001 19.5523 12.5524 20 12.0001 20C11.4478 20 11 19.5523 11 19Z" fill="#353566"/>
<path d="M18 18C17.4477 18 17 18.4477 17 19C17 19.5523 17.4477 20 18 20C18.5523 20 19.0001 19.5523 19.0001 19C19.0001 18.4477 18.5523 18 18 18Z" fill="#353566"/>
<path fill-rule="evenodd" clip-rule="evenodd" d="M5 14.25C2.37665 14.25 0.25 16.3766 0.25 19C0.25 21.6234 2.37665 23.75 5 23.75H19C21.6234 23.75 23.75 21.6234 23.75 19C23.75 16.3766 21.6234 14.25 19 14.25H5ZM1.75 19C1.75 17.2051 3.20507 15.75 5 15.75H19C20.7949 15.75 22.25 17.2051 22.25 19C22.25 20.7949 20.7949 22.25 19 22.25H5C3.20507 22.25 1.75 20.7949 1.75 19Z" fill="#353566"/>
</g>
<defs>
<clipPath id="clip0_9001_287882">
<rect width="24" height="24" fill="white"/>
</clipPath>
</defs>
</svg>
