<svg width="24" height="24" viewBox="0 0 24 24" fill="none" xmlns="http://www.w3.org/2000/svg">
<path fill-rule="evenodd" clip-rule="evenodd" d="M1.69277 2.75C2.06199 2.75 2.29764 2.75049 2.47842 2.7641C2.64978 2.77699 2.71698 2.7988 2.75301 2.81484C2.8814 2.872 2.99115 2.96409 3.06974 3.0806C3.09179 3.1133 3.12494 3.17569 3.1674 3.34221C3.21219 3.51788 3.25359 3.74987 3.31771 4.11347L5.55997 16.8297C4.23576 17.1414 3.25005 18.3305 3.25005 19.7499C3.25005 21.4068 4.59319 22.7499 6.25005 22.7499C7.79205 22.7499 9.06233 21.5865 9.23103 20.0896L23.1314 17.6386C23.5393 17.5667 23.8117 17.1777 23.7397 16.7698C23.6678 16.3618 23.2788 16.0895 22.8709 16.1614L9.02306 18.6031C8.67768 17.7689 7.96679 17.1243 7.09007 16.8691L4.79043 3.82755C4.73211 3.49671 4.6813 3.20855 4.6209 2.97162C4.55661 2.71949 4.46953 2.47344 4.31329 2.24181C4.07752 1.89227 3.74829 1.61601 3.36312 1.44452C3.10788 1.33088 2.85044 1.28785 2.59098 1.26833C2.34716 1.24998 2.05456 1.24999 1.71862 1.25L1 1.25C0.585786 1.25 0.25 1.58579 0.25 2C0.25 2.41421 0.585786 2.75 1 2.75L1.69277 2.75ZM6.25005 21.2499C5.42162 21.2499 4.75005 20.5783 4.75005 19.7499C4.75005 18.9215 5.42162 18.2499 6.25005 18.2499C7.07847 18.2499 7.75005 18.9215 7.75005 19.7499C7.75005 20.5783 7.07847 21.2499 6.25005 21.2499Z" fill="#353566"/>
<path d="M18.3557 11.9221C18.7636 11.8501 19.036 11.4612 18.9641 11.0532C18.8921 10.6453 18.5031 10.3729 18.0952 10.4449L16.1256 10.7922C15.7177 10.8641 15.4453 11.2531 15.5172 11.661C15.5892 12.0689 15.9782 12.3413 16.3861 12.2694L18.3557 11.9221Z" fill="#353566"/>
<path fill-rule="evenodd" clip-rule="evenodd" d="M14.7913 1.88858L12.3645 2.31649C11.5641 2.45763 10.9184 2.57147 10.4031 2.70638C9.87251 2.84528 9.41605 3.02158 9.01788 3.32162C8.38543 3.79821 7.92008 4.46279 7.68855 5.22011C7.54278 5.69689 7.53323 6.18612 7.58417 6.73221C7.63365 7.26258 7.7475 7.90824 7.88865 8.70872L8.31656 11.1355C8.4577 11.936 8.57154 12.5816 8.70645 13.097C8.84536 13.6275 9.02166 14.084 9.3217 14.4822C9.79829 15.1146 10.4629 15.58 11.2202 15.8115C11.697 15.9573 12.1862 15.9668 12.7323 15.9159C13.2627 15.8664 13.9083 15.7525 14.7088 15.6114L17.1356 15.1835C17.9361 15.0423 18.5817 14.9285 19.097 14.7936C19.6276 14.6547 20.0841 14.4784 20.4822 14.1783C21.1147 13.7018 21.58 13.0372 21.8116 12.2799C21.9573 11.8031 21.9669 11.3139 21.9159 10.7678C21.8665 10.2374 21.7526 9.59175 21.6115 8.79127L21.1836 6.36446C21.0424 5.56397 20.9286 4.91832 20.7937 4.40302C20.6548 3.87244 20.4785 3.41598 20.1784 3.01781C19.7018 2.38535 19.0372 1.92001 18.2799 1.68847C17.8032 1.54271 17.3139 1.53316 16.7678 1.5841C16.2375 1.63357 15.5918 1.74742 14.7913 1.88858ZM9.92061 4.51958C10.0976 4.38617 10.3424 4.27281 10.783 4.15747C10.8912 4.12913 11.0074 4.1016 11.1331 4.07405L11.9494 8.70363C12.0019 9.00128 12.2279 9.23835 12.5227 9.30495C12.8176 9.37156 13.1235 9.25469 13.2989 9.00851L14.4951 7.32907L16.2026 8.52466C16.4511 8.69865 16.7799 8.70583 17.0358 8.54284C17.2916 8.37985 17.4241 8.0788 17.3714 7.78006L16.5495 3.11898C16.6771 3.10186 16.7957 3.08801 16.9072 3.07762C17.3606 3.03532 17.6294 3.05812 17.8414 3.12293C18.2958 3.26185 18.6945 3.54106 18.9805 3.92053C19.1139 4.09757 19.2272 4.34237 19.3426 4.78292C19.4601 5.23195 19.5639 5.81706 19.7119 6.65656L20.1287 9.0201C20.2767 9.85961 20.3793 10.4449 20.4224 10.9071C20.4647 11.3605 20.4419 11.6293 20.3771 11.8413C20.2382 12.2957 19.959 12.6944 19.5795 12.9804C19.4025 13.1138 19.1577 13.2272 18.7171 13.3425C18.2681 13.4601 17.683 13.5638 16.8435 13.7118L14.4799 14.1286C13.6404 14.2766 13.0551 14.3792 12.593 14.4224C12.1395 14.4646 11.8707 14.4419 11.6587 14.377C11.2044 14.2381 10.8056 13.9589 10.5197 13.5794C10.3862 13.4024 10.2729 13.1576 10.1575 12.7171C10.04 12.268 9.93622 11.6829 9.7882 10.8434L9.37144 8.47987C9.22341 7.64037 9.1208 7.05506 9.07769 6.59289C9.03539 6.13947 9.05819 5.87066 9.12301 5.65867C9.26193 5.20428 9.54113 4.80553 9.92061 4.51958ZM13.1158 6.68013L12.6073 3.79681L15.0694 3.36269L15.5798 6.25738L14.7461 5.67361C14.4087 5.43738 13.944 5.5174 13.705 5.85286L13.1158 6.68013Z" fill="#353566"/>
</svg>
