<svg width="24" height="24" viewBox="0 0 24 24" fill="none" xmlns="http://www.w3.org/2000/svg">
<path fill-rule="evenodd" clip-rule="evenodd" d="M16.9326 2.25C17.8851 2.24999 18.6456 2.24999 19.2599 2.30018C19.8899 2.35165 20.4318 2.45963 20.9295 2.71322C21.7291 3.12068 22.3793 3.77085 22.7868 4.57054C23.0404 5.06824 23.1483 5.61012 23.1998 6.24013C23.25 6.8544 23.25 7.61495 23.25 8.56741V15.4325C23.25 16.385 23.25 17.1456 23.1998 17.7599C23.1483 18.3899 23.0404 18.9318 22.7868 19.4295C22.3793 20.2291 21.7291 20.8793 20.9295 21.2868C20.4318 21.5404 19.8899 21.6484 19.2599 21.6998C18.6456 21.75 17.8851 21.75 16.9327 21.75H7.06737C6.11496 21.75 5.35438 21.75 4.74013 21.6998C4.11012 21.6484 3.56824 21.5404 3.07054 21.2868C2.27085 20.8793 1.62068 20.2291 1.21322 19.4295C0.959634 18.9318 0.85165 18.3899 0.800176 17.7599C0.749989 17.1456 0.749994 16.3851 0.75 15.4326V8.56739C0.749994 7.61495 0.749989 6.8544 0.800176 6.24013C0.85165 5.61012 0.959634 5.06824 1.21322 4.57054C1.62068 3.77085 2.27085 3.12068 3.07054 2.71322C3.56824 2.45963 4.11012 2.35165 4.74013 2.30018C5.35439 2.24999 6.11494 2.24999 7.06738 2.25H16.9326ZM11.25 3.75H7.1C6.10753 3.75 5.40829 3.75058 4.86228 3.79519C4.32503 3.83909 4.00252 3.92184 3.75153 4.04973C3.23408 4.31338 2.81338 4.73408 2.54973 5.25153C2.42184 5.50252 2.33909 5.82503 2.29519 6.36228C2.25058 6.90829 2.25 7.60753 2.25 8.6V11.25H6.50355C6.32264 10.8485 6.24234 10.4102 6.25058 9.98547C6.26325 9.33181 6.48632 8.65437 6.94868 8.12933C7.42384 7.58976 8.1195 7.25 8.97701 7.25C9.94635 7.25 10.6972 7.73823 11.25 8.34991L11.25 3.75ZM12.75 8.34991L12.75 3.75H16.9C17.8925 3.75 18.5917 3.75058 19.1377 3.79519C19.675 3.83909 19.9975 3.92184 20.2485 4.04973C20.7659 4.31338 21.1866 4.73408 21.4503 5.25153C21.5782 5.50252 21.6609 5.82503 21.7048 6.36228C21.7494 6.90829 21.75 7.60753 21.75 8.6V11.25H17.4964C17.6774 10.8485 17.7577 10.4102 17.7494 9.98547C17.7368 9.33181 17.5137 8.65437 17.0513 8.12933C16.5762 7.58976 15.8805 7.25 15.023 7.25C14.0537 7.25 13.3028 7.73823 12.75 8.34991ZM10.4669 12.75H2.25V15.4C2.25 16.3925 2.25058 17.0917 2.29519 17.6377C2.33909 18.175 2.42184 18.4975 2.54973 18.7485C2.81338 19.2659 3.23408 19.6866 3.75153 19.9503C4.00252 20.0782 4.32503 20.1609 4.86228 20.2048C5.40829 20.2494 6.10753 20.25 7.1 20.25H11.25L11.25 14.0735C11.0809 14.2273 10.9015 14.3794 10.7133 14.5273C9.77335 15.2658 8.5425 15.9564 7.14704 16.2355C6.74087 16.3167 6.34576 16.0533 6.26452 15.6471C6.18329 15.241 6.4467 14.8458 6.85287 14.7646C7.95741 14.5437 8.97656 13.9843 9.78659 13.3478C10.0415 13.1475 10.2689 12.945 10.4669 12.75ZM12.75 20.25L12.75 14.0736C12.9191 14.2273 13.0985 14.3794 13.2867 14.5273C14.2266 15.2658 15.4575 15.9564 16.853 16.2355C17.2591 16.3167 17.6542 16.0533 17.7355 15.6471C17.8167 15.241 17.5533 14.8458 17.1471 14.7646C16.0426 14.5437 15.0234 13.9843 14.2134 13.3478C13.9585 13.1475 13.7311 12.945 13.5331 12.75H21.75V15.4C21.75 16.3925 21.7494 17.0917 21.7048 17.6377C21.6609 18.175 21.5782 18.4975 21.4503 18.7485C21.1866 19.2659 20.7659 19.6866 20.2485 19.9503C19.9975 20.0782 19.675 20.1609 19.1377 20.2048C18.5917 20.2494 17.8925 20.25 16.9 20.25H12.75ZM11.1172 11.25H8.89948C8.46583 11.25 8.1995 11.0909 8.03199 10.892C7.85051 10.6764 7.74357 10.3614 7.7503 10.0145C7.75701 9.66819 7.87629 9.34563 8.0744 9.12067C8.25971 8.91024 8.54263 8.75 8.97701 8.75C9.57758 8.75 10.1371 9.19869 10.5969 9.99871C10.8409 10.4234 11.0117 10.8726 11.1172 11.25ZM12.8828 11.25H15.1005C15.5342 11.25 15.8005 11.0909 15.968 10.892C16.1495 10.6764 16.2564 10.3614 16.2497 10.0145C16.243 9.66819 16.1237 9.34563 15.9256 9.12067C15.7403 8.91024 15.4574 8.75 15.023 8.75C14.4224 8.75 13.8629 9.19869 13.4031 9.99871C13.1591 10.4234 12.9883 10.8726 12.8828 11.25Z" fill="#353566"/>
</svg>
