<svg width="24" height="24" viewBox="0 0 24 24" fill="none" xmlns="http://www.w3.org/2000/svg">
<path fill-rule="evenodd" clip-rule="evenodd" d="M15.633 1.25C16.7251 1.24999 17.5906 1.24999 18.2883 1.30699C19.0017 1.36527 19.6053 1.48688 20.1565 1.76772C21.0502 2.22312 21.7769 2.94978 22.2323 3.84355C22.5131 4.39472 22.6347 4.99834 22.693 5.71173C22.75 6.40935 22.75 7.27484 22.75 8.36698V15.633C22.75 16.7252 22.75 17.5906 22.693 18.2883C22.6347 19.0017 22.5131 19.6053 22.2323 20.1565C21.7769 21.0502 21.0502 21.7769 20.1565 22.2323C19.6053 22.5131 19.0017 22.6347 18.2883 22.693C17.5906 22.75 16.7252 22.75 15.633 22.75H8.36698C7.27484 22.75 6.40935 22.75 5.71173 22.693C4.99834 22.6347 4.39472 22.5131 3.84355 22.2323C2.94978 21.7769 2.22312 21.0502 1.76772 20.1565C1.48688 19.6053 1.36527 19.0017 1.30699 18.2883C1.24999 17.5906 1.24999 16.7251 1.25 15.633V8.367C1.24999 7.27486 1.24999 6.40935 1.30699 5.71173C1.36527 4.99834 1.48688 4.39472 1.76772 3.84355C2.22312 2.94978 2.94978 2.22312 3.84355 1.76772C4.39472 1.48688 4.99834 1.36527 5.71173 1.30699C6.40935 1.24999 7.27485 1.24999 8.36699 1.25H15.633ZM11.25 2.75H8.4C7.26752 2.75 6.46327 2.75058 5.83388 2.80201C5.21325 2.85271 4.829 2.94909 4.52453 3.10423C3.913 3.41582 3.41582 3.913 3.10423 4.52453C2.94909 4.829 2.85271 5.21325 2.80201 5.83388C2.75058 6.46327 2.75 7.26752 2.75 8.4V11.25H6.50355C6.32264 10.8485 6.24234 10.4102 6.25058 9.98547C6.26325 9.33181 6.48632 8.65437 6.94868 8.12933C7.42384 7.58976 8.1195 7.25 8.97701 7.25C9.94634 7.25 10.6972 7.73823 11.25 8.34991V2.75ZM10.4669 12.75H2.75V15.6C2.75 16.7325 2.75058 17.5367 2.80201 18.1661C2.85271 18.7867 2.94909 19.171 3.10423 19.4755C3.41582 20.087 3.913 20.5842 4.52453 20.8958C4.829 21.0509 5.21325 21.1473 5.83388 21.198C6.46327 21.2494 7.26752 21.25 8.4 21.25H11.25V14.0736C11.0809 14.2273 10.9015 14.3794 10.7133 14.5273C9.77335 15.2658 8.5425 15.9564 7.14704 16.2355C6.74087 16.3167 6.34576 16.0533 6.26452 15.6471C6.18329 15.241 6.4467 14.8458 6.85287 14.7646C7.95741 14.5437 8.97656 13.9843 9.78659 13.3478C10.0415 13.1475 10.2689 12.945 10.4669 12.75ZM11.1172 11.25C11.0117 10.8726 10.8409 10.4234 10.5969 9.99871C10.1371 9.19869 9.57758 8.75 8.97701 8.75C8.54263 8.75 8.25971 8.91024 8.0744 9.12067C7.87629 9.34563 7.75701 9.66819 7.7503 10.0145C7.74357 10.3614 7.85051 10.6764 8.03199 10.892C8.1995 11.0909 8.46583 11.25 8.89948 11.25H11.1172ZM15.1005 11.25H12.8828C12.9883 10.8726 13.1591 10.4234 13.4031 9.99871C13.8629 9.19869 14.4224 8.75 15.023 8.75C15.4574 8.75 15.7403 8.91024 15.9256 9.12067C16.1237 9.34563 16.243 9.66819 16.2497 10.0145C16.2564 10.3614 16.1495 10.6764 15.968 10.892C15.8005 11.0909 15.5342 11.25 15.1005 11.25ZM14.2134 13.3478C13.9585 13.1475 13.7311 12.945 13.5331 12.75H21.25V15.6C21.25 16.7325 21.2494 17.5367 21.198 18.1661C21.1473 18.7867 21.0509 19.171 20.8958 19.4755C20.5842 20.087 20.087 20.5842 19.4755 20.8958C19.171 21.0509 18.7867 21.1473 18.1661 21.198C17.5367 21.2494 16.7325 21.25 15.6 21.25H12.75V14.0736C12.9191 14.2273 13.0985 14.3794 13.2867 14.5273C14.2266 15.2658 15.4575 15.9564 16.853 16.2355C17.2591 16.3167 17.6542 16.0533 17.7355 15.6471C17.8167 15.241 17.5533 14.8458 17.1471 14.7646C16.0426 14.5437 15.0234 13.9843 14.2134 13.3478ZM17.7494 9.98547C17.7577 10.4102 17.6774 10.8485 17.4964 11.25H21.25V8.4C21.25 7.26752 21.2494 6.46327 21.198 5.83388C21.1473 5.21325 21.0509 4.829 20.8958 4.52453C20.5842 3.913 20.087 3.41582 19.4755 3.10423C19.171 2.94909 18.7867 2.85271 18.1661 2.80201C17.5367 2.75058 16.7325 2.75 15.6 2.75H12.75V8.34991C13.3028 7.73823 14.0537 7.25 15.023 7.25C15.8805 7.25 16.5762 7.58976 17.0513 8.12933C17.5137 8.65437 17.7368 9.33181 17.7494 9.98547Z" fill="#353566"/>
</svg>
