<svg width="24" height="24" viewBox="0 0 24 24" fill="none" xmlns="http://www.w3.org/2000/svg">
<path d="M12 11.25C12.4142 11.25 12.75 11.5858 12.75 12V17.1893L14.4697 15.4697C14.7626 15.1768 15.2374 15.1768 15.5303 15.4697C15.8232 15.7626 15.8232 16.2374 15.5303 16.5303L12.5303 19.5303C12.3897 19.671 12.1989 19.75 12 19.75C11.8011 19.75 11.6103 19.671 11.4697 19.5303L8.46967 16.5303C8.17678 16.2374 8.17678 15.7626 8.46967 15.4697C8.76256 15.1768 9.23744 15.1768 9.53033 15.4697L11.25 17.1893V12C11.25 11.5858 11.5858 11.25 12 11.25Z" fill="#353566"/>
<path fill-rule="evenodd" clip-rule="evenodd" d="M7.04508 1.25C5.81408 1.25 4.68872 1.94551 4.1382 3.04656L1.48754 8.34787C1.33133 8.6603 1.25 9.0048 1.25 9.3541V19C1.25 21.0711 2.92893 22.75 5 22.75H19C21.0711 22.75 22.75 21.0711 22.75 19V9.3541C22.75 9.0048 22.6687 8.6603 22.5125 8.34787L19.8618 3.04656C19.3113 1.94551 18.1859 1.25 16.9549 1.25H7.04508ZM7.04508 2.75C6.38223 2.75 5.77627 3.1245 5.47984 3.71738L3.21353 8.25H11.25V2.75H7.04508ZM12.75 2.75V8.25H20.7865L18.5202 3.71738C18.2237 3.1245 17.6178 2.75 16.9549 2.75H12.75ZM2.75 9.75V19C2.75 20.2426 3.75736 21.25 5 21.25H19C20.2426 21.25 21.25 20.2426 21.25 19V9.75H2.75Z" fill="#353566"/>
</svg>
