<svg width="24" height="24" viewBox="0 0 24 24" fill="none" xmlns="http://www.w3.org/2000/svg">
<g clip-path="url(#clip0_9001_291314)">
<path fill-rule="evenodd" clip-rule="evenodd" d="M6.85263 0.250531C6.07173 0.250091 5.5027 0.24977 4.98538 0.428204C4.52997 0.585284 4.11518 0.841638 3.77102 1.17872C3.38008 1.56162 3.12588 2.07073 2.77705 2.76939L0.566651 7.19025C0.487648 7.34803 0.417918 7.48731 0.36749 7.63719C0.323104 7.76911 0.291055 7.90487 0.271756 8.04272C0.249831 8.19933 0.249916 8.35509 0.250013 8.53155L0.250025 16.2327C0.250018 17.0455 0.250012 17.7011 0.293389 18.232C0.338051 18.7787 0.43241 19.2588 0.658751 19.703C1.01828 20.4086 1.59195 20.9823 2.29756 21.3419C2.74178 21.5682 3.22192 21.6625 3.76856 21.7072C4.29946 21.7506 4.95507 21.7506 5.7679 21.7506H10.3809C10.7951 21.7506 11.1309 21.4148 11.1309 21.0006C11.1309 20.5864 10.7951 20.2506 10.3809 20.2506H5.80003C4.94757 20.2506 4.35334 20.25 3.89071 20.2122C3.43683 20.1751 3.17606 20.106 2.97855 20.0053C2.55518 19.7896 2.21098 19.4454 1.99526 19.0221C1.89462 18.8245 1.82549 18.5638 1.78841 18.1099C1.75061 17.6473 1.75003 17.053 1.75003 16.2006V8.75049H20.25V10.0006C20.25 10.4148 20.5858 10.7506 21 10.7506C21.4142 10.7506 21.75 10.4148 21.75 10.0006L21.75 8.53156C21.7501 8.35509 21.7502 8.19934 21.7283 8.04273C21.709 7.90487 21.6769 7.76911 21.6326 7.63719C21.5821 7.48732 21.5124 7.34807 21.4334 7.1903L21.4175 7.15842L19.223 2.76939C18.8742 2.07073 18.62 1.56162 18.229 1.17872C17.8849 0.841638 17.4701 0.585284 17.0147 0.428204C16.4974 0.24977 15.9283 0.250091 15.1474 0.250531L11.0116 0.250576L11 0.250488L10.9884 0.250576L6.85263 0.250531ZM21.4175 7.15842L21.4222 7.16798L21.4276 7.17953L20.9496 7.40017L20.9434 7.3955L21.4175 7.15842ZM10.25 1.75058H6.97216C6.0204 1.75058 5.72341 1.76036 5.47449 1.84622C5.22927 1.9308 5.00592 2.06884 4.8206 2.25034C4.63248 2.43459 4.49092 2.69585 4.06527 3.54713L2.21359 7.25049H10.25V1.75058ZM11.75 7.25049H19.7865L17.9348 3.54713C17.5091 2.69585 17.3676 2.43459 17.1794 2.25034C16.9941 2.06884 16.7708 1.9308 16.5256 1.84622C16.2766 1.76036 15.9797 1.75058 15.0279 1.75058H11.75V7.25049Z" fill="#353566"/>
<path d="M8 16.7505C8.41421 16.7505 8.75 16.4147 8.75 16.0005C8.75 15.5863 8.41421 15.2505 8 15.2505H5C4.58579 15.2505 4.25 15.5863 4.25 16.0005C4.25 16.4147 4.58579 16.7505 5 16.7505H8Z" fill="#353566"/>
<path fill-rule="evenodd" clip-rule="evenodd" d="M19.7348 12.6543C20.5068 12.1174 21.5313 12.1172 22.3036 12.6538C22.47 12.7695 22.6273 12.9269 22.81 13.1097L22.8906 13.1903C23.0736 13.373 23.2312 13.5302 23.3469 13.6966C23.8841 14.4687 23.8843 15.4935 23.3474 16.2659C23.2317 16.4323 23.0742 16.5896 22.8913 16.7723L16.9076 22.7571C16.8079 22.8569 16.6821 22.9265 16.5446 22.9579L13.1674 23.7314C12.9157 23.789 12.6521 23.7131 12.4696 23.5305C12.287 23.3479 12.2113 23.0842 12.269 22.8325L13.0433 19.4592C13.0748 19.3219 13.1444 19.1963 13.2439 19.0967L19.2286 13.1105C19.4112 12.9275 19.5684 12.7701 19.7348 12.6543ZM21.4476 13.8856C21.1902 13.7067 20.8487 13.7068 20.5913 13.8858C20.5503 13.9143 20.4951 13.9652 20.2491 14.2113L19.7704 14.6902L21.3113 16.2311L21.7902 15.7521C22.0363 15.5059 22.0872 15.4507 22.1158 15.4097C22.2948 15.1522 22.2947 14.8106 22.1156 14.5533C22.0871 14.5122 22.0361 14.4571 21.7899 14.211C21.5438 13.965 21.4886 13.9141 21.4476 13.8856ZM20.2507 17.2918L18.7098 15.751L14.4571 20.0048L13.9986 22.0022L15.9994 21.544L20.2507 17.2918Z" fill="#353566"/>
</g>
<defs>
<clipPath id="clip0_9001_291314">
<rect width="24" height="24" fill="white"/>
</clipPath>
</defs>
</svg>
