<svg width="24" height="24" viewBox="0 0 24 24" fill="none" xmlns="http://www.w3.org/2000/svg">
<g clip-path="url(#clip0_9001_291239)">
<path fill-rule="evenodd" clip-rule="evenodd" d="M6.85263 0.250043C6.07173 0.249602 5.5027 0.249282 4.98538 0.427716C4.52997 0.584795 4.11518 0.84115 3.77102 1.17823C3.38008 1.56113 3.12588 2.07024 2.77705 2.7689L0.566651 7.18976C0.487648 7.34755 0.417918 7.48682 0.36749 7.6367C0.323104 7.76862 0.291055 7.90439 0.271756 8.04224C0.249831 8.19884 0.249916 8.3546 0.250013 8.53106L0.250025 16.2322C0.250018 17.045 0.250012 17.7006 0.293389 18.2316C0.338051 18.7782 0.43241 19.2583 0.658751 19.7026C1.01828 20.4082 1.59195 20.9818 2.29756 21.3414C2.74178 21.5677 3.22192 21.6621 3.76856 21.7067C4.29946 21.7501 4.95507 21.7501 5.7679 21.7501H11.1449C11.5591 21.7501 11.8949 21.4143 11.8949 21.0001C11.8949 20.5859 11.5591 20.2501 11.1449 20.2501H5.80003C4.94757 20.2501 4.35334 20.2495 3.89071 20.2117C3.43683 20.1746 3.17606 20.1055 2.97855 20.0049C2.55518 19.7891 2.21098 19.4449 1.99526 19.0216C1.89462 18.824 1.82549 18.5633 1.78841 18.1094C1.75061 17.6468 1.75003 17.0525 1.75003 16.2001V8.75H20.25V11.145C20.25 11.5592 20.5858 11.895 21 11.895C21.4142 11.895 21.75 11.5592 21.75 11.145L21.75 8.53107C21.7501 8.3546 21.7502 8.19885 21.7283 8.04224C21.709 7.90438 21.6769 7.76863 21.6326 7.6367C21.5821 7.48683 21.5124 7.34758 21.4334 7.18981L21.4175 7.15793L19.223 2.7689C18.8742 2.07024 18.62 1.56113 18.229 1.17823C17.8849 0.84115 17.4701 0.584795 17.0147 0.427716C16.4974 0.249282 15.9283 0.249602 15.1474 0.250043L11.0116 0.250088L11 0.25L10.9884 0.250088L6.85263 0.250043ZM21.4175 7.15793L21.4222 7.1675L21.4276 7.17904L20.9496 7.39968L20.9434 7.39502L21.4175 7.15793ZM10.25 1.75009H6.97216C6.0204 1.75009 5.72341 1.75987 5.47449 1.84573C5.22927 1.93031 5.00592 2.06835 4.8206 2.24986C4.63248 2.4341 4.49092 2.69536 4.06527 3.54664L2.21359 7.25H10.25V1.75009ZM11.75 7.25H19.7865L17.9348 3.54664C17.5091 2.69536 17.3676 2.4341 17.1794 2.24986C16.9941 2.06835 16.7708 1.93031 16.5256 1.84573C16.2766 1.75987 15.9797 1.75009 15.0279 1.75009H11.75V7.25Z" fill="#353566"/>
<path d="M8 16.75C8.41421 16.75 8.75 16.4142 8.75 16C8.75 15.5858 8.41421 15.25 8 15.25H5C4.58579 15.25 4.25 15.5858 4.25 16C4.25 16.4142 4.58579 16.75 5 16.75H8Z" fill="#353566"/>
<path fill-rule="evenodd" clip-rule="evenodd" d="M12.25 17.125C12.25 14.4326 14.4326 12.25 17.125 12.25C19.8174 12.25 22 14.4326 22 17.125C22 18.2006 21.6517 19.1948 21.0617 20.001L23.5303 22.4697C23.8232 22.7626 23.8232 23.2374 23.5303 23.5303C23.2374 23.8232 22.7625 23.8232 22.4696 23.5303L20.001 21.0617C19.1948 21.6517 18.2006 22 17.125 22C14.4326 22 12.25 19.8174 12.25 17.125ZM17.125 13.75C15.261 13.75 13.75 15.261 13.75 17.125C13.75 18.989 15.261 20.5 17.125 20.5C18.989 20.5 20.5 18.989 20.5 17.125C20.5 15.261 18.989 13.75 17.125 13.75Z" fill="#353566"/>
</g>
<defs>
<clipPath id="clip0_9001_291239">
<rect width="24" height="24" fill="white"/>
</clipPath>
</defs>
</svg>
