<svg width="24" height="24" viewBox="0 0 24 24" fill="none" xmlns="http://www.w3.org/2000/svg">
<path fill-rule="evenodd" clip-rule="evenodd" d="M7.16762 1.25L8 1.25C8.41421 1.25 8.75 1.58579 8.75 2C8.75 2.41421 8.41421 2.75 8 2.75H7.2C6.27754 2.75 5.6308 2.75058 5.12648 2.79179C4.63092 2.83228 4.33928 2.90822 4.11502 3.02248C3.64462 3.26217 3.26217 3.64462 3.02248 4.11502C2.90822 4.33928 2.83228 4.63092 2.79179 5.12648C2.75058 5.6308 2.75 6.27754 2.75 7.2V8C2.75 8.41421 2.41421 8.75 2 8.75C1.58579 8.75 1.25 8.41421 1.25 8L1.25 7.16762C1.24999 6.285 1.24999 5.57692 1.29677 5.00433C1.34484 4.41601 1.44601 3.905 1.68597 3.43404C2.06947 2.68139 2.68139 2.06947 3.43404 1.68597C3.905 1.44601 4.41601 1.34484 5.00433 1.29677C5.57692 1.24999 6.285 1.24999 7.16762 1.25ZM18.8735 2.79179C18.3692 2.75058 17.7225 2.75 16.8 2.75H16C15.5858 2.75 15.25 2.41421 15.25 2C15.25 1.58579 15.5858 1.25 16 1.25L16.8324 1.25C17.715 1.24999 18.4231 1.24999 18.9957 1.29677C19.584 1.34484 20.095 1.44601 20.566 1.68597C21.3186 2.06947 21.9305 2.68139 22.314 3.43404C22.554 3.905 22.6552 4.41601 22.7032 5.00433C22.75 5.57691 22.75 6.28499 22.75 7.16761V8C22.75 8.41421 22.4142 8.75 22 8.75C21.5858 8.75 21.25 8.41421 21.25 8V7.2C21.25 6.27754 21.2494 5.6308 21.2082 5.12648C21.1677 4.63092 21.0918 4.33928 20.9775 4.11502C20.7378 3.64462 20.3554 3.26217 19.885 3.02248C19.6607 2.90822 19.3691 2.83228 18.8735 2.79179ZM7.57379 5.25H8.92621C9.1837 5.24998 9.42018 5.24996 9.61787 5.26612C9.83101 5.28353 10.0642 5.32339 10.2945 5.44074C10.6238 5.60852 10.8915 5.87623 11.0593 6.20552C11.1766 6.43582 11.2165 6.669 11.2339 6.88213C11.25 7.07981 11.25 7.31629 11.25 7.57377V8.92623C11.25 9.18371 11.25 9.42019 11.2339 9.61787C11.2165 9.83101 11.1766 10.0642 11.0593 10.2945C10.8915 10.6238 10.6238 10.8915 10.2945 11.0593C10.0642 11.1766 9.83101 11.2165 9.61787 11.2339C9.42019 11.25 9.18371 11.25 8.92623 11.25H7.57377C7.31629 11.25 7.07981 11.25 6.88213 11.2339C6.669 11.2165 6.43582 11.1766 6.20552 11.0593C5.87623 10.8915 5.60852 10.6238 5.44074 10.2945C5.32339 10.0642 5.28353 9.83101 5.26612 9.61787C5.24996 9.42018 5.24998 9.1837 5.25 8.92621V7.57379C5.24998 7.3163 5.24996 7.07982 5.26612 6.88213C5.28353 6.669 5.32339 6.43582 5.44074 6.20552C5.60852 5.87623 5.87623 5.60852 6.20552 5.44074C6.43582 5.32339 6.669 5.28353 6.88213 5.26612C7.07982 5.24996 7.3163 5.24998 7.57379 5.25ZM6.88088 6.77973L6.88239 6.77917ZM6.88346 6.77882C6.89234 6.77607 6.92546 6.76757 7.00428 6.76113C7.1334 6.75058 7.3076 6.75 7.6 6.75H8.9C9.1924 6.75 9.3666 6.75058 9.49572 6.76113C9.57453 6.76757 9.60766 6.77607 9.61654 6.77882C9.66118 6.80234 9.69766 6.83882 9.72118 6.88346C9.72393 6.89234 9.73243 6.92547 9.73887 7.00428C9.74942 7.1334 9.75 7.3076 9.75 7.6V8.9C9.75 9.1924 9.74942 9.3666 9.73887 9.49572C9.73243 9.57454 9.72393 9.60766 9.72118 9.61654C9.69766 9.66118 9.66118 9.69766 9.61654 9.72118C9.60766 9.72393 9.57453 9.73243 9.49572 9.73887C9.3666 9.74942 9.1924 9.75 8.9 9.75H7.6C7.3076 9.75 7.1334 9.74942 7.00428 9.73887C6.92547 9.73243 6.89234 9.72393 6.88346 9.72118C6.83882 9.69766 6.80234 9.66118 6.77882 9.61654C6.77607 9.60766 6.76757 9.57454 6.76113 9.49572C6.75058 9.3666 6.75 9.1924 6.75 8.9V7.6C6.75 7.3076 6.75058 7.1334 6.76113 7.00428C6.76757 6.92546 6.77607 6.89234 6.77882 6.88346C6.80234 6.83882 6.83882 6.80234 6.88346 6.77882ZM6.77973 6.88088L6.77917 6.88239ZM6.77973 9.61913L6.77918 9.61764ZM6.88088 9.72027L6.88239 9.72083ZM9.61913 9.72027L9.61764 9.72082ZM9.72027 9.61913L9.72083 9.61761ZM9.72027 6.88088L9.72082 6.88236ZM9.61761 6.77917L9.61913 6.77973ZM15.0738 5.25H16.4262C16.6837 5.24998 16.9202 5.24996 17.1179 5.26612C17.331 5.28353 17.5642 5.32339 17.7945 5.44074C18.1238 5.60852 18.3915 5.87623 18.5593 6.20552C18.6766 6.43582 18.7165 6.669 18.7339 6.88213C18.75 7.07981 18.75 7.31629 18.75 7.57377V8.92623C18.75 9.18371 18.75 9.42019 18.7339 9.61787C18.7165 9.83101 18.6766 10.0642 18.5593 10.2945C18.3915 10.6238 18.1238 10.8915 17.7945 11.0593C17.5642 11.1766 17.331 11.2165 17.1179 11.2339C16.9202 11.25 16.6837 11.25 16.4262 11.25H15.0738C14.8163 11.25 14.5798 11.25 14.3821 11.2339C14.169 11.2165 13.9358 11.1766 13.7055 11.0593C13.3762 10.8915 13.1085 10.6238 12.9407 10.2945C12.8234 10.0642 12.7835 9.83101 12.7661 9.61787C12.75 9.42019 12.75 9.18371 12.75 8.92623V7.57377C12.75 7.31629 12.75 7.07981 12.7661 6.88213C12.7835 6.669 12.8234 6.43582 12.9407 6.20552C13.1085 5.87623 13.3762 5.60852 13.7055 5.44074C13.9358 5.32339 14.169 5.28353 14.3821 5.26612C14.5798 5.24996 14.8163 5.24998 15.0738 5.25ZM14.3809 6.77973L14.3824 6.77918ZM14.3835 6.77882C14.3923 6.77607 14.4255 6.76757 14.5043 6.76113C14.6334 6.75058 14.8076 6.75 15.1 6.75H16.4C16.6924 6.75 16.8666 6.75058 16.9957 6.76113C17.0745 6.76757 17.1077 6.77607 17.1165 6.77882C17.1612 6.80234 17.1977 6.83882 17.2212 6.88346C17.2239 6.89234 17.2324 6.92547 17.2389 7.00428C17.2494 7.1334 17.25 7.3076 17.25 7.6V8.9C17.25 9.1924 17.2494 9.3666 17.2389 9.49572C17.2324 9.57453 17.2239 9.60766 17.2212 9.61654C17.1977 9.66118 17.1612 9.69766 17.1165 9.72118C17.1077 9.72393 17.0745 9.73243 16.9957 9.73887C16.8666 9.74942 16.6924 9.75 16.4 9.75H15.1C14.8076 9.75 14.6334 9.74942 14.5043 9.73887C14.4255 9.73243 14.3923 9.72393 14.3835 9.72118C14.3388 9.69766 14.3023 9.66118 14.2788 9.61654C14.2761 9.60765 14.2676 9.57453 14.2611 9.49572C14.2506 9.3666 14.25 9.1924 14.25 8.9V7.6C14.25 7.3076 14.2506 7.1334 14.2611 7.00428C14.2676 6.92547 14.2761 6.89234 14.2788 6.88346C14.3023 6.83882 14.3388 6.80234 14.3835 6.77882ZM14.2797 6.88088L14.2792 6.88236ZM14.2797 9.61912L14.2792 9.61764ZM14.3809 9.72027L14.3825 9.72086ZM17.1191 9.72027L17.1176 9.72083ZM17.2203 9.61913L17.2209 9.61753ZM17.2203 6.88088L17.2208 6.88239ZM17.1175 6.77914L17.1191 6.77973ZM7.57377 12.75H8.92623C9.18371 12.75 9.42019 12.75 9.61787 12.7661C9.83101 12.7835 10.0642 12.8234 10.2945 12.9407C10.6238 13.1085 10.8915 13.3762 11.0593 13.7055C11.1766 13.9358 11.2165 14.169 11.2339 14.3821C11.25 14.5798 11.25 14.8163 11.25 15.0738V16.4262C11.25 16.6837 11.25 16.9202 11.2339 17.1179C11.2165 17.331 11.1766 17.5642 11.0593 17.7945C10.8915 18.1238 10.6238 18.3915 10.2945 18.5593C10.0642 18.6766 9.83101 18.7165 9.61787 18.7339C9.42019 18.75 9.18371 18.75 8.92623 18.75H7.57377C7.31629 18.75 7.07981 18.75 6.88213 18.7339C6.669 18.7165 6.43582 18.6766 6.20552 18.5593C5.87623 18.3915 5.60852 18.1238 5.44074 17.7945C5.32339 17.5642 5.28353 17.331 5.26612 17.1179C5.24996 16.9202 5.24998 16.6837 5.25 16.4262V15.0738C5.24998 14.8163 5.24996 14.5798 5.26612 14.3821C5.28353 14.169 5.32339 13.9358 5.44074 13.7055C5.60852 13.3762 5.87623 13.1085 6.20552 12.9407C6.43582 12.8234 6.669 12.7835 6.88213 12.7661C7.07981 12.75 7.31629 12.75 7.57377 12.75ZM6.88088 14.2797L6.88239 14.2792ZM6.88346 14.2788C6.89235 14.2761 6.92547 14.2676 7.00428 14.2611C7.1334 14.2506 7.3076 14.25 7.6 14.25H8.9C9.1924 14.25 9.3666 14.2506 9.49572 14.2611C9.57454 14.2676 9.60766 14.2761 9.61654 14.2788C9.66118 14.3023 9.69766 14.3388 9.72118 14.3835C9.72393 14.3923 9.73243 14.4255 9.73887 14.5043C9.74942 14.6334 9.75 14.8076 9.75 15.1V16.4C9.75 16.6924 9.74942 16.8666 9.73887 16.9957C9.73243 17.0745 9.72393 17.1077 9.72118 17.1165C9.69766 17.1612 9.66118 17.1977 9.61654 17.2212C9.60766 17.2239 9.57453 17.2324 9.49572 17.2389C9.3666 17.2494 9.1924 17.25 8.9 17.25H7.6C7.3076 17.25 7.1334 17.2494 7.00428 17.2389C6.92547 17.2324 6.89234 17.2239 6.88346 17.2212C6.83882 17.1977 6.80234 17.1612 6.77882 17.1165C6.77607 17.1077 6.76757 17.0745 6.76113 16.9957C6.75058 16.8666 6.75 16.6924 6.75 16.4V15.1C6.75 14.8076 6.75058 14.6334 6.76113 14.5043C6.76757 14.4255 6.77607 14.3923 6.77882 14.3835C6.80234 14.3388 6.83882 14.3023 6.88346 14.2788ZM6.77973 14.3809L6.77917 14.3824ZM6.77973 17.1191L6.77918 17.1176ZM6.88088 17.2203L6.88238 17.2208ZM9.61912 17.2203L9.61761 17.2208ZM9.72027 17.1191L9.72083 17.1176ZM9.72027 14.3809L9.72085 14.3824ZM9.61761 14.2792L9.61912 14.2797ZM12.75 12.75H14.75V14.75H12.75V12.75ZM16.75 14.75V16.75H14.75V14.75H16.75ZM14.75 16.75H12.75V18.75H14.75V16.75ZM16.75 14.75H18.75V12.75H16.75V14.75ZM2 15.25C2.41421 15.25 2.75 15.5858 2.75 16V16.8C2.75 17.7225 2.75058 18.3692 2.79179 18.8735C2.83228 19.3691 2.90822 19.6607 3.02248 19.885C3.26217 20.3554 3.64462 20.7378 4.11502 20.9775C4.33928 21.0918 4.63092 21.1677 5.12648 21.2082C5.6308 21.2494 6.27754 21.25 7.2 21.25H8C8.41421 21.25 8.75 21.5858 8.75 22C8.75 22.4142 8.41421 22.75 8 22.75H7.16761C6.28499 22.75 5.57691 22.75 5.00433 22.7032C4.41601 22.6552 3.905 22.554 3.43404 22.314C2.68139 21.9305 2.06947 21.3186 1.68597 20.566C1.44601 20.095 1.34484 19.584 1.29677 18.9957C1.24999 18.4231 1.24999 17.715 1.25 16.8324L1.25 16C1.25 15.5858 1.58579 15.25 2 15.25ZM22 15.25C22.4142 15.25 22.75 15.5858 22.75 16V16.8324C22.75 17.715 22.75 18.4231 22.7032 18.9957C22.6552 19.584 22.554 20.095 22.314 20.566C21.9305 21.3186 21.3186 21.9305 20.566 22.314C20.095 22.554 19.584 22.6552 18.9957 22.7032C18.4231 22.75 17.715 22.75 16.8324 22.75H16C15.5858 22.75 15.25 22.4142 15.25 22C15.25 21.5858 15.5858 21.25 16 21.25H16.8C17.7225 21.25 18.3692 21.2494 18.8735 21.2082C19.3691 21.1677 19.6607 21.0918 19.885 20.9775C20.3554 20.7378 20.7378 20.3554 20.9775 19.885C21.0918 19.6607 21.1677 19.3691 21.2082 18.8735C21.2494 18.3692 21.25 17.7225 21.25 16.8V16C21.25 15.5858 21.5858 15.25 22 15.25ZM16.75 16.75H18.75V18.75H16.75V16.75Z" fill="#353566"/>
</svg>
