<svg width="24" height="24" viewBox="0 0 24 24" fill="none" xmlns="http://www.w3.org/2000/svg">
<path d="M9.34467 2.02957C8.44514 1.05263 6.92672 0.982127 5.94053 1.87151L5.11493 2.61606C4.83133 2.87182 4.39673 2.85928 4.12834 2.5876C3.07185 1.51811 1.25 2.26622 1.25 3.76955V20.2407C1.25 21.7441 3.07191 22.4922 4.12838 21.4226C4.39675 21.1509 4.83137 21.1383 5.11497 21.3941L5.93019 22.1293C6.92235 23.0241 8.45273 22.9423 9.34387 21.9468L9.45082 21.8274C9.73311 21.5121 10.1559 21.4041 10.5368 21.5088C10.9362 21.6186 11.349 21.3838 11.4587 20.9844C11.5685 20.585 11.3338 20.1722 10.9344 20.0624C10.0315 19.8142 9.01327 20.0673 8.33323 20.8269L8.22628 20.9463C7.88913 21.3229 7.31014 21.3539 6.93476 21.0154L6.11955 20.2802C5.2404 19.4873 3.89314 19.5262 3.06121 20.3685C2.94699 20.4841 2.75 20.4032 2.75 20.2407V3.76955C2.75 3.60701 2.94699 3.52612 3.06122 3.64176C3.89317 4.48394 5.24039 4.52281 6.11951 3.72998L6.94511 2.98543C7.32059 2.64681 7.8987 2.67366 8.24119 3.04561L8.34937 3.1631C9.37273 4.27454 11.1273 4.27454 12.1506 3.1631L12.2588 3.04561C12.6013 2.67366 13.1794 2.64681 13.5549 2.98543L14.3805 3.72999C15.2596 4.52281 16.6068 4.48394 17.4388 3.64176C17.553 3.52612 17.75 3.60701 17.75 3.76955V9.40542C17.75 9.81964 18.0858 10.1554 18.5 10.1554C18.9142 10.1554 19.25 9.81964 19.25 9.40542V3.76955C19.25 2.26623 17.4282 1.5181 16.3717 2.5876C16.1033 2.85928 15.6687 2.87182 15.3851 2.61606L14.5595 1.87151C13.5733 0.982127 12.0549 1.05263 11.1553 2.02958L11.0472 2.14707C10.6179 2.61322 9.88206 2.61322 9.45285 2.14706L9.34467 2.02957Z" fill="#353566"/>
<path d="M8.25 7.75C7.83579 7.75 7.5 8.08579 7.5 8.5C7.5 8.91421 7.83579 9.25 8.25 9.25H12.25C12.6642 9.25 13 8.91421 13 8.5C13 8.08579 12.6642 7.75 12.25 7.75H8.25Z" fill="#353566"/>
<path d="M6.25 11.25C5.83579 11.25 5.5 11.5858 5.5 12C5.5 12.4142 5.83579 12.75 6.25 12.75H10.5648C10.979 12.75 11.3148 12.4142 11.3148 12C11.3148 11.5858 10.979 11.25 10.5648 11.25H6.25Z" fill="#353566"/>
<path d="M7.25 14.75C6.83579 14.75 6.5 15.0858 6.5 15.5C6.5 15.9142 6.83579 16.25 7.25 16.25H9.27703C9.69125 16.25 10.027 15.9142 10.027 15.5C10.027 15.0858 9.69125 14.75 9.27703 14.75H7.25Z" fill="#353566"/>
<path fill-rule="evenodd" clip-rule="evenodd" d="M11.25 16.125C11.25 13.4326 13.4326 11.25 16.125 11.25C18.8174 11.25 21 13.4326 21 16.125C21 17.2006 20.6517 18.1948 20.0617 19.001L22.5303 21.4697C22.8232 21.7626 22.8232 22.2374 22.5303 22.5303C22.2374 22.8232 21.7625 22.8232 21.4696 22.5303L19.001 20.0617C18.1948 20.6517 17.2006 21 16.125 21C13.4326 21 11.25 18.8174 11.25 16.125ZM16.125 12.75C14.261 12.75 12.75 14.261 12.75 16.125C12.75 17.989 14.261 19.5 16.125 19.5C17.989 19.5 19.5 17.989 19.5 16.125C19.5 14.261 17.989 12.75 16.125 12.75Z" fill="#353566"/>
</svg>
