<svg width="24" height="24" viewBox="0 0 24 24" fill="none" xmlns="http://www.w3.org/2000/svg">
<g clip-path="url(#clip0_9001_289459)">
<path fill-rule="evenodd" clip-rule="evenodd" d="M4.06155 0.25C2.79967 0.25 1.69971 1.10882 1.39366 2.33303L0.514929 5.84796C0.338974 6.55178 0.25 7.27452 0.25 8C0.25 9.05486 0.842492 10.0982 1.75 10.7079V18.25C1.75 20.183 3.317 21.75 5.25 21.75H8.49217L8.5 21.75L8.50783 21.75H10.5815C10.9957 21.75 11.3315 21.4142 11.3315 21C11.3315 20.5858 10.9957 20.25 10.5815 20.25H9.25V15.5C9.25 15.362 9.36193 15.25 9.5 15.25H10.8042C11.2184 15.25 11.5542 14.9142 11.5542 14.5C11.5542 14.0858 11.2184 13.75 10.8042 13.75H9.5C8.5335 13.75 7.75 14.5335 7.75 15.5V20.25H5.25C4.14543 20.25 3.25 19.3546 3.25 18.25V11.2398C3.33243 11.2466 3.4158 11.25 3.5 11.25C4.43942 11.25 5.37545 10.8901 6 10.2662C6.62455 10.8901 7.56058 11.25 8.5 11.25C9.43942 11.25 10.3754 10.8901 11 10.2662C11.6246 10.8901 12.5606 11.25 13.5 11.25C14.4394 11.25 15.3754 10.8901 16 10.2662C16.6246 10.8901 17.5606 11.25 18.5 11.25C20.3198 11.25 21.75 9.63891 21.75 8C21.75 7.27452 21.661 6.55178 21.4851 5.84796L20.6063 2.33303C20.3003 1.10882 19.2003 0.25 17.9384 0.25H4.06155ZM8.5 9.75C7.36868 9.75 6.75 9.04283 6.75 8.5C6.75 8.08579 6.41421 7.75 6 7.75C5.58579 7.75 5.25 8.08579 5.25 8.5C5.25 9.04283 4.63132 9.75 3.5 9.75C2.55836 9.75 1.75 8.86109 1.75 8C1.75 7.39716 1.82393 6.7966 1.97014 6.21176L2.84887 2.69683C2.98799 2.14037 3.48797 1.75 4.06155 1.75H17.9384C18.512 1.75 19.012 2.14037 19.1511 2.69683L20.0299 6.21176C20.1761 6.7966 20.25 7.39716 20.25 8C20.25 8.86109 19.4416 9.75 18.5 9.75C17.3687 9.75 16.75 9.04283 16.75 8.5C16.75 8.08579 16.4142 7.75 16 7.75C15.5858 7.75 15.25 8.08579 15.25 8.5C15.25 9.04283 14.6313 9.75 13.5 9.75C12.3687 9.75 11.75 9.04283 11.75 8.5C11.75 8.08579 11.4142 7.75 11 7.75C10.5858 7.75 10.25 8.08579 10.25 8.5C10.25 9.04283 9.63132 9.75 8.5 9.75Z" fill="#353566"/>
<path d="M20 18.625C20.3452 18.625 20.625 18.3452 20.625 18C20.625 17.6548 20.3452 17.375 20 17.375H16C15.6548 17.375 15.375 17.6548 15.375 18C15.375 18.3452 15.6548 18.625 16 18.625H20Z" fill="#353566"/>
<path fill-rule="evenodd" clip-rule="evenodd" d="M12.25 18C12.25 14.8244 14.8244 12.25 18 12.25C21.1756 12.25 23.75 14.8244 23.75 18C23.75 21.1756 21.1756 23.75 18 23.75C14.8244 23.75 12.25 21.1756 12.25 18ZM18 13.75C15.6528 13.75 13.75 15.6528 13.75 18C13.75 20.3472 15.6528 22.25 18 22.25C20.3472 22.25 22.25 20.3472 22.25 18C22.25 15.6528 20.3472 13.75 18 13.75Z" fill="#353566"/>
</g>
<defs>
<clipPath id="clip0_9001_289459">
<rect width="24" height="24" fill="white"/>
</clipPath>
</defs>
</svg>
