<svg width="24" height="24" viewBox="0 0 24 24" fill="none" xmlns="http://www.w3.org/2000/svg">
<path fill-rule="evenodd" clip-rule="evenodd" d="M12 4.75049C10.6193 4.75049 9.5 5.86978 9.5 7.25049C9.5 8.6312 10.6193 9.75049 12 9.75049C13.3807 9.75049 14.5 8.6312 14.5 7.25049C14.5 5.86978 13.3807 4.75049 12 4.75049ZM11 7.25049C11 6.6982 11.4477 6.25049 12 6.25049C12.5523 6.25049 13 6.6982 13 7.25049C13 7.80277 12.5523 8.25049 12 8.25049C11.4477 8.25049 11 7.80277 11 7.25049Z" fill="#353566"/>
<path fill-rule="evenodd" clip-rule="evenodd" d="M13.1264 12.1574C12.6718 11.2145 11.3289 11.2145 10.8744 12.1574L10.1044 13.7548L8.33919 13.9851C7.29297 14.1217 6.87608 15.413 7.64496 16.1355L8.92799 17.3411L8.60505 19.0675C8.41199 20.0996 9.50037 20.8954 10.4253 20.3985L12.0004 19.5522L13.5755 20.3985C14.5004 20.8954 15.5888 20.0996 15.3957 19.0675L15.0728 17.3411L16.3558 16.1355C17.1247 15.413 16.7078 14.1217 15.6616 13.9851L13.8964 13.7548L13.1264 12.1574ZM11.3734 14.5767L12.0004 13.276L12.6274 14.5767C12.796 14.9264 13.1296 15.1675 13.5145 15.2177L14.9436 15.4042L13.906 16.3792C13.6203 16.6477 13.491 17.0433 13.5631 17.4287L13.8252 18.8299L12.5446 18.1419C12.2048 17.9593 11.796 17.9593 11.4561 18.1419L10.1755 18.8299L10.4376 17.4287C10.5097 17.0433 10.3805 16.6477 10.0948 16.3792L9.05715 15.4042L10.4863 15.2177C10.8712 15.1675 11.2048 14.9264 11.3734 14.5767Z" fill="#353566"/>
<path fill-rule="evenodd" clip-rule="evenodd" d="M11.2516 0.355262C11.741 0.216866 12.2591 0.216866 12.7484 0.355262C13.0639 0.444486 13.3343 0.599157 13.6017 0.787907C13.8562 0.9676 14.1462 1.20644 14.4907 1.49026L18.804 5.04337C19.374 5.51261 19.7685 5.8373 20.0581 6.24546C20.314 6.60592 20.504 7.00877 20.6196 7.43541C20.7505 7.91853 20.7503 8.42937 20.7501 9.16769L20.75 18.2323C20.75 19.0452 20.7501 19.7008 20.7067 20.2317C20.662 20.7783 20.5677 21.2584 20.3413 21.7027C19.9818 22.4083 19.4081 22.982 18.7025 23.3415C18.2583 23.5678 17.7781 23.6622 17.2315 23.7068C16.7006 23.7502 16.045 23.7502 15.2322 23.7502H8.76792C7.95509 23.7502 7.29948 23.7502 6.76857 23.7068C6.22194 23.6622 5.7418 23.5678 5.29758 23.3415C4.59197 22.982 4.01829 22.4083 3.65877 21.7027C3.43243 21.2584 3.33807 20.7783 3.2934 20.2317C3.25003 19.7008 3.25003 19.0451 3.25004 18.2323L3.25002 9.16769C3.24978 8.42937 3.24961 7.91853 3.38047 7.43541C3.49604 7.00877 3.68612 6.60592 3.94194 6.24546C4.23163 5.83729 4.62602 5.51262 5.19604 5.04337L9.50938 1.49027C9.85391 1.20645 10.1438 0.967602 10.3984 0.787907C10.6658 0.599157 10.9362 0.444486 11.2516 0.355262ZM12.3402 1.79865C12.1178 1.73574 11.8823 1.73574 11.6599 1.79865C11.5717 1.82357 11.4592 1.87517 11.2634 2.01334C11.06 2.15698 10.8131 2.35972 10.4423 2.66516L6.22501 6.13918C5.55104 6.69437 5.3249 6.88857 5.16518 7.11361C5.01169 7.32989 4.89764 7.5716 4.8283 7.82758C4.75615 8.09395 4.75004 8.39196 4.75004 9.26516V18.2002C4.75004 19.0527 4.75062 19.6469 4.78842 20.1095C4.82551 20.5634 4.89464 20.8242 4.99528 21.0217C5.21099 21.445 5.5552 21.7893 5.97856 22.005C6.17608 22.1056 6.43685 22.1747 6.89072 22.2118C7.35335 22.2496 7.94759 22.2502 8.80004 22.2502H15.2C16.0525 22.2502 16.6467 22.2496 17.1094 22.2118C17.5632 22.1747 17.824 22.1056 18.0215 22.005C18.4449 21.7893 18.7891 21.445 19.0048 21.0217C19.1054 20.8242 19.1746 20.5634 19.2117 20.1095C19.2495 19.6469 19.25 19.0527 19.25 18.2002V9.26516C19.25 8.39197 19.2439 8.09395 19.1718 7.82758C19.1024 7.5716 18.9884 7.32989 18.8349 7.11361C18.6752 6.88857 18.449 6.69437 17.7751 6.13919L13.5578 2.66516C13.187 2.35972 12.9401 2.15698 12.7366 2.01334C12.5409 1.87517 12.4283 1.82357 12.3402 1.79865Z" fill="#353566"/>
</svg>
