<svg width="24" height="24" viewBox="0 0 24 24" fill="none" xmlns="http://www.w3.org/2000/svg">
<g clip-path="url(#clip0_9001_289694)">
<path fill-rule="evenodd" clip-rule="evenodd" d="M10 0.25C7.46045 0.25 5.38638 2.24294 5.25646 4.75016L3.3711 4.75016C2.97574 4.75014 2.63466 4.75013 2.35373 4.77308C2.05722 4.79731 1.76231 4.8508 1.47852 4.99539C1.05516 5.21111 0.710952 5.55531 0.495237 5.97868C0.350641 6.26246 0.297154 6.55738 0.272929 6.85389C0.249976 7.13481 0.249987 7.47588 0.250001 7.87123V15.4328C0.249995 16.3852 0.249991 17.1458 0.300177 17.76C0.351651 18.39 0.459635 18.9319 0.713224 19.4296C1.12069 20.2293 1.77085 20.8795 2.57054 21.2869C3.06824 21.5405 3.61012 21.6485 4.24013 21.7C4.85438 21.7502 5.6149 21.7502 6.56731 21.7502H11.146C11.5602 21.7502 11.896 21.4144 11.896 21.0002C11.896 20.586 11.5602 20.2502 11.146 20.2502H6.6C5.60753 20.2502 4.90829 20.2496 4.36228 20.205C3.82503 20.1611 3.50252 20.0783 3.25153 19.9504C2.73408 19.6868 2.31339 19.2661 2.04973 18.7486C1.92185 18.4976 1.83909 18.1751 1.7952 17.6379C1.75058 17.0919 1.75 16.3926 1.75 15.4002V7.90016C1.75 7.46774 1.75058 7.18854 1.76795 6.97603C1.78459 6.77229 1.81285 6.69675 1.83175 6.65966C1.90365 6.51854 2.01839 6.40381 2.15951 6.3319C2.19659 6.31301 2.27213 6.28475 2.47588 6.2681C2.68838 6.25074 2.96759 6.25016 3.4 6.25016H15L15.0155 6.25H16.6C17.0324 6.25 17.3116 6.25058 17.5241 6.26795C17.7279 6.28459 17.8034 6.31285 17.8405 6.33175C17.9816 6.40365 18.0964 6.51839 18.1683 6.65951C18.1872 6.69659 18.2154 6.77213 18.2321 6.97588C18.2494 7.18838 18.25 7.46759 18.25 7.9V10.758C18.25 11.1722 18.5858 11.508 19 11.508C19.4142 11.508 19.75 11.1722 19.75 10.758V7.87108C19.75 7.47576 19.75 7.13463 19.7271 6.85373C19.7028 6.55722 19.6494 6.26231 19.5048 5.97852C19.2891 5.55516 18.9448 5.21095 18.5215 4.99524C18.2377 4.85064 17.9428 4.79715 17.6463 4.77293C17.3653 4.74997 17.0243 4.74999 16.6289 4.75L14.7435 4.75C14.6135 2.24286 12.5395 0.25 10 0.25ZM10 1.75C11.7109 1.75 13.113 3.07197 13.2405 4.75016H6.75946C6.88704 3.07197 8.28914 1.75 10 1.75Z" fill="#353566"/>
<path d="M6 8.5C5.44772 8.5 5 8.94771 5 9.5C5 10.0523 5.44772 10.5 6 10.5C6.55228 10.5 7.0001 10.0523 7.0001 9.5C7.0001 8.94771 6.55228 8.5 6 8.5Z" fill="#353566"/>
<path d="M13 9.5C13 8.94771 13.4477 8.5 14 8.5C14.5523 8.5 15.0001 8.94771 15.0001 9.5C15.0001 10.0523 14.5524 10.5 14.0001 10.5C13.4478 10.5 13 10.0523 13 9.5Z" fill="#353566"/>
<path fill-rule="evenodd" clip-rule="evenodd" d="M14.5 15.75C13.2574 15.75 12.25 16.7574 12.25 18C12.25 19.2426 13.2574 20.25 14.5 20.25C15.0196 20.25 15.498 20.0739 15.8789 19.7781L19.2508 21.4641C19.2506 21.476 19.2505 21.488 19.2505 21.5C19.2505 22.7426 20.2578 23.75 21.5005 23.75C22.7431 23.75 23.7505 22.7426 23.7505 21.5C23.7505 20.2574 22.7431 19.25 21.5005 19.25C20.8098 19.25 20.1917 19.5612 19.779 20.0511L16.6924 18.5078C16.7301 18.3446 16.75 18.1746 16.75 18C16.75 17.8254 16.7301 17.6554 16.6924 17.4922L19.779 15.9489C20.1917 16.4388 20.8098 16.75 21.5005 16.75C22.7431 16.75 23.7505 15.7426 23.7505 14.5C23.7505 13.2574 22.7431 12.25 21.5005 12.25C20.2578 12.25 19.2505 13.2574 19.2505 14.5L19.2508 14.5359L15.8789 16.2219C15.498 15.9261 15.0196 15.75 14.5 15.75ZM13.75 18C13.75 17.5858 14.0858 17.25 14.5 17.25C14.9142 17.25 15.25 17.5858 15.25 18C15.25 18.4142 14.9142 18.75 14.5 18.75C14.0858 18.75 13.75 18.4142 13.75 18ZM21.5005 13.75C21.0863 13.75 20.7505 14.0858 20.7505 14.5C20.7505 14.9142 21.0863 15.25 21.5005 15.25C21.9147 15.25 22.2505 14.9142 22.2505 14.5C22.2505 14.0858 21.9147 13.75 21.5005 13.75ZM20.7505 21.5C20.7505 21.0858 21.0863 20.75 21.5005 20.75C21.9147 20.75 22.2505 21.0858 22.2505 21.5C22.2505 21.9142 21.9147 22.25 21.5005 22.25C21.0863 22.25 20.7505 21.9142 20.7505 21.5Z" fill="#353566"/>
</g>
<defs>
<clipPath id="clip0_9001_289694">
<rect width="24" height="24" fill="white"/>
</clipPath>
</defs>
</svg>
