<svg width="24" height="24" viewBox="0 0 24 24" fill="none" xmlns="http://www.w3.org/2000/svg">
<path fill-rule="evenodd" clip-rule="evenodd" d="M9.92997 0.38564C10.2693 0.623176 10.3518 1.09082 10.1143 1.43016L7.44036 5.25006H16.5594L13.8854 1.43016C13.6479 1.09082 13.7304 0.623176 14.0698 0.38564C14.4091 0.148105 14.8768 0.230631 15.1143 0.569968L18.3904 5.25006L20.0838 5.25001C20.4645 5.2496 20.7931 5.24925 21.0822 5.32673C21.8587 5.53478 22.4652 6.14126 22.6732 6.91772C22.7507 7.20687 22.7503 7.5354 22.7499 7.91619L22.7499 8.00006L22.7499 8.08394C22.7503 8.46473 22.7507 8.79326 22.6732 9.08241C22.5247 9.63656 22.1733 10.1041 21.702 10.4021L21.6921 10.4741C21.6362 10.8845 21.2581 11.1719 20.8477 11.1159C20.6096 11.0834 20.4129 10.9425 20.3006 10.7498C20.2303 10.7503 20.158 10.7502 20.0838 10.7501L3.85907 10.7502L4.83018 17.8717C5.01599 19.2342 6.17977 20.2501 7.55496 20.2501H14.0241C14.4383 20.2501 14.7741 20.5859 14.7741 21.0001C14.7741 21.4143 14.4383 21.7501 14.0241 21.7501H7.55496C5.42966 21.7501 3.63109 20.1801 3.34394 18.0743L2.29772 10.402C1.82642 10.1041 1.47502 9.63654 1.32654 9.08241C1.24906 8.79326 1.24941 8.46474 1.24981 8.08395L1.24987 8.00006L1.24981 7.91618C1.24941 7.53539 1.24906 7.20687 1.32654 6.91772C1.53459 6.14126 2.14107 5.53478 2.91753 5.32673C3.20667 5.24925 3.5352 5.2496 3.91599 5.25001L5.60938 5.25006L8.88545 0.569968C9.12298 0.230631 9.59063 0.148105 9.92997 0.38564ZM3.99987 6.75006C3.4866 6.75006 3.37709 6.75651 3.30576 6.77562C3.04694 6.84497 2.84478 7.04713 2.77543 7.30595C2.75631 7.37728 2.74987 7.48679 2.74987 8.00006C2.74987 8.51334 2.75631 8.62284 2.77543 8.69418C2.84478 8.953 3.04694 9.15516 3.30576 9.22451C3.37709 9.24362 3.4866 9.25006 3.99987 9.25006H19.9999C20.5131 9.25006 20.6227 9.24362 20.694 9.22451C20.9528 9.15516 21.155 8.953 21.2243 8.69418C21.2434 8.62284 21.2499 8.51334 21.2499 8.00006C21.2499 7.48679 21.2434 7.37728 21.2243 7.30595C21.155 7.04713 20.9528 6.84497 20.694 6.77562C20.6227 6.75651 20.5131 6.75006 19.9999 6.75006H3.99987Z" fill="#353566"/>
<path d="M7.99998 12.7511C8.41419 12.7511 8.74998 13.0869 8.74998 13.5011L8.74997 17.0012C8.74997 17.4154 8.41418 17.7512 7.99997 17.7512C7.58575 17.7512 7.24997 17.4154 7.24997 17.0012L7.24998 13.5011C7.24998 13.0869 7.58577 12.7511 7.99998 12.7511Z" fill="#353566"/>
<path d="M12.0001 12.7511C12.4143 12.7511 12.7501 13.0869 12.7501 13.5011L12.7501 17.0012C12.7501 17.4154 12.4143 17.7512 12.0001 17.7512C11.5859 17.7512 11.2501 17.4154 11.2501 17.0012L11.2501 13.5011C11.2501 13.0869 11.5859 12.7511 12.0001 12.7511Z" fill="#353566"/>
<path d="M20.2499 13.0001C20.2499 12.5859 19.9141 12.2501 19.4999 12.2501C19.0857 12.2501 18.7499 12.5859 18.7499 13.0001V13.5549C18.1845 13.6409 17.6688 13.8302 17.2475 14.1353C16.6234 14.5873 16.2499 15.2672 16.2499 16.0818C16.2499 17.1333 16.834 17.7918 17.5086 18.1695C18.1358 18.5205 18.8814 18.6574 19.3766 18.7399C19.8814 18.824 20.3858 18.9309 20.7586 19.1396C21.084 19.3218 21.2499 19.5391 21.2499 19.9184C21.2499 20.2323 21.1234 20.4684 20.8725 20.65C20.5992 20.848 20.1434 21.0001 19.4999 21.0001C19.0593 21.0001 18.7857 20.9529 18.5264 20.8501C18.2497 20.7403 17.941 20.5483 17.4527 20.1786C17.1224 19.9285 16.652 19.9935 16.402 20.3238C16.1519 20.654 16.2169 21.1244 16.5472 21.3744C17.0589 21.7619 17.5002 22.0567 17.9734 22.2444C18.2315 22.3468 18.4856 22.4122 18.7499 22.4512V23.0001C18.7499 23.4143 19.0857 23.7501 19.4999 23.7501C19.9141 23.7501 20.2499 23.4143 20.2499 23.0001V22.4453C20.8153 22.3593 21.331 22.17 21.7523 21.8649C22.3765 21.4129 22.7499 20.733 22.7499 19.9184C22.7499 18.8669 22.1658 18.2084 21.4913 17.8308C20.8641 17.4797 20.1185 17.3428 19.6232 17.2603C19.1185 17.1762 18.6141 17.0693 18.2413 16.8606C17.9158 16.6784 17.7499 16.4611 17.7499 16.0818C17.7499 15.7679 17.8765 15.5319 18.1273 15.3502C18.4007 15.1522 18.8564 15.0001 19.4999 15.0001C19.9405 15.0001 20.2142 15.0473 20.4734 15.1501C20.7502 15.2599 21.0589 15.4518 21.5472 15.8216C21.8774 16.0716 22.3478 16.0066 22.5979 15.6764C22.8479 15.3462 22.7829 14.8758 22.4527 14.6257C21.9409 14.2382 21.4997 13.9434 21.0264 13.7558C20.7683 13.6534 20.5142 13.588 20.2499 13.549V13.0001Z" fill="#353566"/>
</svg>
