<svg width="24" height="24" viewBox="0 0 24 24" fill="none" xmlns="http://www.w3.org/2000/svg">
<g clip-path="url(#clip0_9001_288142)">
<path fill-rule="evenodd" clip-rule="evenodd" d="M8.93021 0.385518C9.26955 0.623054 9.35208 1.0907 9.11454 1.43004L6.44061 5.24994H15.5596L12.8857 1.43004C12.6482 1.0907 12.7307 0.623054 13.07 0.385518C13.4094 0.147983 13.877 0.230509 14.1145 0.569846L17.3906 5.24994L19.084 5.24988C19.4648 5.24948 19.7933 5.24913 20.0825 5.32661C20.8589 5.53466 21.4654 6.14114 21.6735 6.9176C21.7509 7.20675 21.7506 7.53527 21.7502 7.91607L21.7501 7.99994L21.7502 8.08382C21.7506 8.46461 21.7509 8.79314 21.6734 9.08229C21.5167 9.66725 21.1338 10.1557 20.6225 10.4501C20.4689 10.6845 20.1896 10.8229 19.8934 10.7825C19.8296 10.7738 19.7688 10.7574 19.7118 10.7342C19.5193 10.7505 19.311 10.7502 19.0841 10.75L2.85931 10.7501L3.83043 17.8715C4.01623 19.2341 5.18001 20.25 6.55521 20.25H13.0524C13.4666 20.25 13.8024 20.5858 13.8024 21C13.8024 21.4142 13.4666 21.75 13.0524 21.75H6.55521C4.42991 21.75 2.63134 20.18 2.34418 18.0742L1.29796 10.4019C0.826667 10.104 0.475261 9.63641 0.326783 9.08229C0.249307 8.79314 0.249654 8.46462 0.250057 8.08382L0.250116 7.99994L0.250057 7.91606C0.249654 7.53527 0.249307 7.20675 0.326783 6.9176C0.534834 6.14114 1.14132 5.53466 1.91777 5.32661C2.20692 5.24913 2.53544 5.24948 2.91623 5.24988L4.60962 5.24994L7.88569 0.569846C8.12323 0.230509 8.59088 0.147983 8.93021 0.385518ZM3.00012 6.74994C2.48684 6.74994 2.37734 6.75638 2.306 6.7755C2.04718 6.84485 1.84502 7.04701 1.77567 7.30583C1.75656 7.37716 1.75012 7.48667 1.75012 7.99994C1.75012 8.51321 1.75656 8.62272 1.77567 8.69406C1.84502 8.95288 2.04718 9.15504 2.306 9.22439C2.37734 9.2435 2.48684 9.24994 3.00012 9.24994H19.0001C19.5134 9.24994 19.6229 9.2435 19.6942 9.22439C19.953 9.15504 20.1552 8.95288 20.2246 8.69406C20.2437 8.62272 20.2501 8.51321 20.2501 7.99994C20.2501 7.48667 20.2437 7.37716 20.2246 7.30583C20.1552 7.04701 19.9531 6.84485 19.6942 6.7755C19.6229 6.75638 19.5134 6.74994 19.0001 6.74994H3.00012Z" fill="#353566"/>
<path d="M7.00022 12.751C7.41444 12.751 7.75022 13.0868 7.75022 13.501L7.75021 17.0011C7.75021 17.4153 7.41442 17.7511 7.00021 17.7511C6.586 17.7511 6.25021 17.4153 6.25021 17.0011L6.25022 13.501C6.25022 13.0868 6.58601 12.751 7.00022 12.751Z" fill="#353566"/>
<path d="M11.0003 12.751C11.4145 12.751 11.7503 13.0868 11.7503 13.501L11.7503 17.0011C11.7503 17.4153 11.4145 17.7511 11.0003 17.7511C10.5861 17.7511 10.2503 17.4153 10.2503 17.0011L10.2503 13.501C10.2503 13.0868 10.5861 12.751 11.0003 12.751Z" fill="#353566"/>
<path d="M15.0005 12.751C15.4147 12.751 15.7505 13.0868 15.7505 13.501V13.5304C15.7505 13.9446 15.4147 14.2804 15.0005 14.2804C14.5863 14.2804 14.2505 13.9446 14.2505 13.5304V13.501C14.2505 13.0868 14.5863 12.751 15.0005 12.751Z" fill="#353566"/>
<path fill-rule="evenodd" clip-rule="evenodd" d="M20.751 13.5007C20.751 12.3184 19.2625 11.7981 18.5249 12.72L14.525 17.7194C13.8698 18.5383 14.4537 19.7498 15.5011 19.7498H17.251V22.4992C17.251 23.6815 18.7396 24.2017 19.4772 23.2799L23.4771 18.2804C24.1323 17.4615 23.5483 16.25 22.501 16.25H20.751V13.5007ZM16.0216 18.2498L19.251 14.2135V16.5003C19.251 17.1909 19.8111 17.75 20.501 17.75H21.9805L18.751 21.7864V19.4996C18.751 18.809 18.191 18.2498 17.501 18.2498H16.0216Z" fill="#353566"/>
</g>
<defs>
<clipPath id="clip0_9001_288142">
<rect width="24" height="24" fill="white"/>
</clipPath>
</defs>
</svg>
