<svg width="24" height="24" viewBox="0 0 24 24" fill="none" xmlns="http://www.w3.org/2000/svg">
<path d="M4.50974 14.1141C4.67171 13.7329 5.11207 13.5552 5.4933 13.7171L7.2933 14.4819C7.67453 14.6439 7.85228 15.0842 7.6903 15.4655C7.52833 15.8467 7.08798 16.0244 6.70675 15.8625L4.90675 15.0977C4.52551 14.9357 4.34777 14.4954 4.50974 14.1141Z" fill="#353566"/>
<path fill-rule="evenodd" clip-rule="evenodd" d="M17.2423 7.40867C17.245 7.45374 17.2464 7.49908 17.2464 7.54463V10.0469C17.2464 10.4611 17.5822 10.7969 17.9964 10.7969C18.4106 10.7969 18.7464 10.4611 18.7464 10.0469V7.54463C18.7464 6.09601 17.9065 4.77882 16.593 4.16779L11.0692 1.59802C10.0731 1.13464 8.92331 1.13465 7.92726 1.59802L2.40342 4.16779C1.08997 4.77882 0.25 6.09601 0.25 7.54463V13.5115C0.25 14.9712 1.10276 16.2964 2.4313 16.9012L7.95514 19.4158C8.93546 19.8621 10.061 19.8621 11.0413 19.4158L12.3107 18.8379C12.6877 18.6663 12.8542 18.2215 12.6826 17.8446C12.511 17.4676 12.0663 17.3011 11.6893 17.4727L10.4198 18.0506C10.3637 18.0762 10.3067 18.0993 10.2491 18.1199L10.2491 10.543L17.2423 7.40867ZM10.4365 2.95805C9.84158 2.6813 9.15486 2.6813 8.55997 2.95805L6.81844 3.76823L14.0522 7.19468L16.6511 6.02989C16.4588 5.82311 16.2258 5.65131 15.9603 5.52782L10.4365 2.95805ZM8.7491 10.5438L1.75414 7.40871C1.75139 7.45377 1.75 7.49909 1.75 7.54463V13.5115C1.75 14.3833 2.25931 15.1748 3.05278 15.536L8.57662 18.0506C8.63335 18.0764 8.69089 18.0997 8.74908 18.1206L8.7491 10.5438ZM2.34535 6.02992L9.49817 9.23578L12.2518 8.00163L5.05064 4.59064L3.03612 5.52782C2.77065 5.65132 2.53757 5.82312 2.34535 6.02992Z" fill="#353566"/>
<path d="M23 18.25C23.4142 18.25 23.75 17.9142 23.75 17.5V16.5C23.75 15.2574 22.7426 14.25 21.5 14.25H17.3106L18.0303 13.5303C18.3232 13.2374 18.3232 12.7626 18.0303 12.4697C17.7374 12.1768 17.2625 12.1768 16.9696 12.4697L14.9696 14.4697C14.7551 14.6842 14.6909 15.0068 14.807 15.287C14.9231 15.5673 15.1966 15.75 15.4999 15.75H21.5C21.9142 15.75 22.25 16.0858 22.25 16.5V17.5C22.25 17.9142 22.5858 18.25 23 18.25Z" fill="#353566"/>
<path d="M14.25 17.5C14.25 17.0858 14.5858 16.75 15 16.75C15.4142 16.75 15.75 17.0858 15.75 17.5V18.5C15.75 18.9142 16.0858 19.25 16.5 19.25H22.5C22.8033 19.25 23.0768 19.4327 23.1929 19.713C23.309 19.9933 23.2448 20.3158 23.0303 20.5303L21.0303 22.5303C20.7374 22.8232 20.2625 22.8232 19.9696 22.5303C19.6767 22.2374 19.6767 21.7626 19.9696 21.4697L20.6893 20.75H16.5C15.2574 20.75 14.25 19.7426 14.25 18.5V17.5Z" fill="#353566"/>
</svg>
