<svg width="24" height="24" viewBox="0 0 24 24" fill="none" xmlns="http://www.w3.org/2000/svg">
<path fill-rule="evenodd" clip-rule="evenodd" d="M5.7991 8.55584C5.77033 8.7059 5.75387 8.85953 5.75057 9.01539C5.7418 9.42951 5.39898 9.75811 4.98486 9.74934C4.57074 9.74057 4.24213 9.39775 4.2509 8.98363C4.28506 7.37088 5.23049 5.91301 6.69567 5.22601L12.1957 2.64712C13.3388 2.11112 14.6611 2.11112 15.8042 2.64712L21.3042 5.22601C22.7967 5.92582 23.7499 7.42557 23.7499 9.074V14.9716C23.7499 16.6322 22.7828 18.1406 21.2739 18.8337L15.7739 21.36C14.6478 21.8772 13.3521 21.8772 12.226 21.36L6.726 18.8337C6.60315 18.7773 6.48381 18.7154 6.36825 18.6484C6.00986 18.4407 5.88769 17.9819 6.09537 17.6235C6.30305 17.2651 6.76194 17.1429 7.12033 17.3506C7.19509 17.3939 7.27239 17.434 7.3521 17.4706L12.8521 19.9969C12.9819 20.0565 13.1153 20.1056 13.2509 20.1439L13.2509 11.9866L5.7991 8.55584ZM12.8325 4.00524C13.5722 3.65841 14.4277 3.65841 15.1674 4.00524L20.6674 6.58412C20.9983 6.73929 21.2883 6.95523 21.5265 7.21499L18.9021 8.42325L11.1107 4.81257L12.8325 4.00524ZM17.1125 9.24717L9.40951 5.67747C9.38615 5.66664 9.36361 5.65476 9.34191 5.64192L7.33247 6.58412C7.00157 6.73928 6.71163 6.95521 6.47343 7.21496L14 10.6802L17.1125 9.24717ZM14.7509 11.9858L14.7509 20.1434C14.8858 20.1051 15.0185 20.0563 15.1478 19.9969L20.6478 17.4706C21.6242 17.0221 22.2499 16.0461 22.2499 14.9716V9.074C22.2499 8.89805 22.2332 8.72471 22.2008 8.55589L14.7509 11.9858Z" fill="#353566"/>
<path d="M0.25 11.9995C0.25 11.5853 0.585786 11.2495 1 11.2495L7 11.2495C7.41421 11.2495 7.75 11.5853 7.75 11.9995C7.75 12.4137 7.41421 12.7495 7 12.7495L1 12.7495C0.585786 12.7495 0.25 12.4137 0.25 11.9995Z" fill="#353566"/>
<path d="M3 14.2495C2.58579 14.2495 2.25 14.5853 2.25 14.9995C2.25 15.4137 2.58579 15.7495 3 15.7495L9 15.7495C9.41421 15.7495 9.75 15.4137 9.75 14.9995C9.75 14.5853 9.41421 14.2495 9 14.2495L3 14.2495Z" fill="#353566"/>
</svg>
