<svg width="24" height="24" viewBox="0 0 24 24" fill="none" xmlns="http://www.w3.org/2000/svg">
<path fill-rule="evenodd" clip-rule="evenodd" d="M1 1.25C0.585786 1.25 0.25 1.58579 0.25 2C0.25 2.41421 0.585786 2.75 1 2.75H2.18189C2.55884 2.75 2.87721 3.02977 2.92567 3.40358L4.28029 13.8535C4.32617 14.2075 4.43805 14.5384 4.60258 14.8346C3.53571 15.1199 2.75 16.0932 2.75 17.25C2.75 18.6307 3.86929 19.75 5.25 19.75H5.37803C5.29512 19.9846 5.25 20.237 5.25 20.5C5.25 21.7426 6.25736 22.75 7.5 22.75C8.74264 22.75 9.75 21.7426 9.75 20.5C9.75 20.237 9.70489 19.9846 9.62198 19.75H11.7099C12.1241 19.75 12.4599 19.4142 12.4599 19C12.4599 18.5858 12.1241 18.25 11.7099 18.25H5.25C4.69772 18.25 4.25 17.8023 4.25 17.25C4.25 16.6977 4.69772 16.25 5.25 16.25H11.0029C11.4171 16.25 11.7529 15.9142 11.7529 15.5C11.7529 15.0858 11.4171 14.75 11.0029 14.75H7.00747C6.37924 14.75 5.84861 14.2837 5.76785 13.6607L4.67757 5.25H20.004C20.152 5.25 20.2676 5.37785 20.2528 5.5251L19.8574 9.44286C19.8158 9.85498 20.1162 10.2228 20.5283 10.2644C20.9404 10.306 21.3082 10.0056 21.3498 9.59346L21.7452 5.6757C21.8492 4.64496 21.04 3.75 20.004 3.75H4.48313L4.41322 3.21075C4.26785 2.08931 3.31272 1.25 2.18189 1.25H1ZM6.75 20.5C6.75 20.0858 7.08579 19.75 7.5 19.75H7.50705L7.51198 19.7501C7.92053 19.7564 8.25 20.0898 8.25 20.5C8.25 20.9142 7.91421 21.25 7.5 21.25C7.08579 21.25 6.75 20.9142 6.75 20.5Z" fill="#353566"/>
<path fill-rule="evenodd" clip-rule="evenodd" d="M19.5052 11.4845C18.8717 11.1679 18.1261 11.1679 17.4927 11.4847L13.9242 13.2694C13.5112 13.476 13.2502 13.8981 13.25 14.3598C13.2493 15.8084 13.3464 17.1997 13.9377 18.5512C14.7529 20.4144 16.2607 21.8616 18.1165 22.6714C18.3604 22.7778 18.6376 22.7778 18.8814 22.6714C20.7377 21.8614 22.2459 20.4124 23.0612 18.5489C23.6518 17.1987 23.7493 15.8087 23.75 14.3615C23.7502 13.8989 23.4889 13.4758 23.0751 13.269L19.5052 11.4845ZM18.1637 12.8263C18.3748 12.7207 18.6233 12.7207 18.8345 12.8262L22.2499 14.5335C22.2494 15.7135 22.1684 16.847 21.6869 17.9477C21.0574 19.3867 19.9223 20.5433 18.4989 21.2002C17.076 20.5441 15.9412 19.3883 15.3119 17.95C14.83 16.8485 14.7494 15.7143 14.7499 14.5336L18.1637 12.8263Z" fill="#353566"/>
</svg>
