<svg width="24" height="24" viewBox="0 0 24 24" fill="none" xmlns="http://www.w3.org/2000/svg">
<g clip-path="url(#clip0_9001_291294)">
<path fill-rule="evenodd" clip-rule="evenodd" d="M6.85263 0.250043L10.9884 0.250088L11 0.25L11.0116 0.250088L15.1474 0.250043C15.9283 0.249602 16.4974 0.249282 17.0147 0.427716C17.4701 0.584795 17.8849 0.84115 18.229 1.17823C18.62 1.56113 18.8742 2.07024 19.223 2.7689L21.4175 7.15793L20.9434 7.39502L20.9496 7.39968L21.4276 7.17904L21.4222 7.1675L21.4175 7.15793L21.4334 7.18968C21.5124 7.34746 21.5821 7.48683 21.6326 7.6367C21.6769 7.76863 21.709 7.90438 21.7283 8.04224C21.7502 8.19885 21.7501 8.3546 21.75 8.53107L21.75 12.2198C21.75 12.634 21.4142 12.9698 21 12.9698C20.5858 12.9698 20.25 12.634 20.25 12.2198V8.75H1.75003V16.2001C1.75003 17.0525 1.75061 17.6468 1.78841 18.1094C1.82549 18.5633 1.89462 18.824 1.99526 19.0216C2.21098 19.4449 2.55518 19.7891 2.97855 20.0049C3.17606 20.1055 3.43683 20.1746 3.89071 20.2117C4.35334 20.2495 4.94757 20.2501 5.80003 20.2501H11.8721C12.2863 20.2501 12.6221 20.5859 12.6221 21.0001C12.6221 21.4143 12.2863 21.7501 11.8721 21.7501H5.7679C4.95507 21.7501 4.29946 21.7501 3.76856 21.7067C3.22192 21.6621 2.74178 21.5677 2.29756 21.3414C1.59195 20.9818 1.01828 20.4082 0.658751 19.7026C0.43241 19.2583 0.338051 18.7782 0.293389 18.2316C0.250012 17.7006 0.250018 17.045 0.250025 16.2322L0.250013 8.53106C0.249916 8.3546 0.249831 8.19884 0.271756 8.04224C0.291055 7.90439 0.323104 7.76862 0.36749 7.6367C0.417918 7.48682 0.487648 7.34755 0.566651 7.18976L2.77705 2.7689C3.12588 2.07024 3.38008 1.56113 3.77102 1.17823C4.11518 0.84115 4.52997 0.584795 4.98538 0.427716C5.5027 0.249282 6.07173 0.249602 6.85263 0.250043ZM6.97216 1.75009H10.25V7.25H2.21359L4.06527 3.54664C4.49092 2.69536 4.63248 2.4341 4.8206 2.24986C5.00592 2.06835 5.22927 1.93031 5.47449 1.84573C5.72341 1.75987 6.0204 1.75009 6.97216 1.75009ZM19.7865 7.25H11.75V1.75009H15.0279C15.9797 1.75009 16.2766 1.75987 16.5256 1.84573C16.7708 1.93031 16.9941 2.06835 17.1794 2.24986C17.3676 2.4341 17.5091 2.69536 17.9348 3.54664L19.7865 7.25Z" fill="#353566"/>
<path d="M8.75 16C8.75 16.4142 8.41421 16.75 8 16.75H5C4.58579 16.75 4.25 16.4142 4.25 16C4.25 15.5858 4.58579 15.25 5 15.25H8C8.41421 15.25 8.75 15.5858 8.75 16Z" fill="#353566"/>
<path fill-rule="evenodd" clip-rule="evenodd" d="M19.2386 13.5279C18.7386 12.4907 17.2614 12.4907 16.7614 13.5279L15.7549 15.6161L13.4478 15.9171C12.297 16.0673 11.8384 17.4877 12.6841 18.2825L14.3627 19.8598L13.9402 22.1187C13.7278 23.2539 14.925 24.1293 15.9424 23.5827L18 22.4772L20.0576 23.5827C21.075 24.1293 22.2722 23.2539 22.0599 22.1187L21.6373 19.8598L23.3159 18.2825C24.1617 17.4877 23.7031 16.0673 22.5522 15.9171L20.2451 15.6161L19.2386 13.5279ZM17.0473 16.3892L18 14.4129L18.9527 16.3892C19.1359 16.7693 19.4985 17.0313 19.9169 17.0859L22.0962 17.3703L20.5104 18.8604C20.1999 19.1522 20.0594 19.5822 20.1378 20.0011L20.5374 22.1377L18.5916 21.0923C18.2222 20.8938 17.7778 20.8938 17.4084 21.0923L15.4626 22.1377L15.8623 20.0011C15.9406 19.5822 15.8002 19.1522 15.4896 18.8604L13.9039 17.3703L16.0831 17.0859C16.5015 17.0313 16.8641 16.7693 17.0473 16.3892Z" fill="#353566"/>
</g>
<defs>
<clipPath id="clip0_9001_291294">
<rect width="24" height="24" fill="white"/>
</clipPath>
</defs>
</svg>
