<svg width="24" height="24" viewBox="0 0 24 24" fill="none" xmlns="http://www.w3.org/2000/svg">
<g clip-path="url(#clip0_9001_291344)">
<path fill-rule="evenodd" clip-rule="evenodd" d="M6.85263 0.250043L10.9884 0.250088L11 0.25L11.0116 0.250088L15.1474 0.250043C15.9283 0.249602 16.4974 0.249282 17.0147 0.427716C17.4701 0.584795 17.8849 0.84115 18.229 1.17823C18.62 1.56113 18.8742 2.07024 19.223 2.7689L21.4175 7.15793L20.9434 7.39502L20.9496 7.39968L21.4276 7.17904L21.4222 7.1675L21.4175 7.15793L21.4334 7.18968C21.5124 7.34746 21.5821 7.48683 21.6326 7.6367C21.6769 7.76863 21.709 7.90438 21.7283 8.04224C21.7502 8.19885 21.7501 8.3546 21.75 8.53107L21.75 13.4426C21.75 13.8568 21.4142 14.1926 21 14.1926C20.5858 14.1926 20.25 13.8568 20.25 13.4426V8.75H1.75003V16.2001C1.75003 17.0525 1.75061 17.6468 1.78841 18.1094C1.82549 18.5633 1.89462 18.824 1.99526 19.0216C2.21098 19.4449 2.55518 19.7891 2.97855 20.0049C3.17606 20.1055 3.43683 20.1746 3.89071 20.2117C4.35334 20.2495 4.94757 20.2501 5.80003 20.2501H12.4814C12.8956 20.2501 13.2314 20.5859 13.2314 21.0001C13.2314 21.4143 12.8956 21.7501 12.4814 21.7501H5.7679C4.95507 21.7501 4.29946 21.7501 3.76856 21.7067C3.22192 21.6621 2.74178 21.5677 2.29756 21.3414C1.59195 20.9818 1.01828 20.4082 0.658751 19.7026C0.43241 19.2583 0.338051 18.7782 0.293389 18.2316C0.250012 17.7006 0.250018 17.045 0.250025 16.2322L0.250013 8.53106C0.249916 8.3546 0.249831 8.19884 0.271756 8.04224C0.291055 7.90439 0.323104 7.76862 0.36749 7.6367C0.417918 7.48682 0.487648 7.34755 0.566651 7.18976L2.77705 2.7689C3.12588 2.07024 3.38008 1.56113 3.77102 1.17823C4.11518 0.84115 4.52997 0.584795 4.98538 0.427716C5.5027 0.249282 6.07173 0.249602 6.85263 0.250043ZM6.97216 1.75009H10.25V7.25H2.21359L4.06527 3.54664C4.49092 2.69536 4.63248 2.4341 4.8206 2.24986C5.00592 2.06835 5.22927 1.93031 5.47449 1.84573C5.72341 1.75987 6.0204 1.75009 6.97216 1.75009ZM19.7865 7.25H11.75V1.75009H15.0279C15.9797 1.75009 16.2766 1.75987 16.5256 1.84573C16.7708 1.93031 16.9941 2.06835 17.1794 2.24986C17.3676 2.4341 17.5091 2.69536 17.9348 3.54664L19.7865 7.25Z" fill="#353566"/>
<path d="M8.75 16C8.75 16.4142 8.41421 16.75 8 16.75H5C4.58579 16.75 4.25 16.4142 4.25 16C4.25 15.5858 4.58579 15.25 5 15.25H8C8.41421 15.25 8.75 15.5858 8.75 16Z" fill="#353566"/>
<path d="M13.5105 18.5127C14.6885 17.4182 16.2651 16.75 17.9993 16.75C19.7342 16.75 21.3112 17.4187 22.4894 18.5138C22.7928 18.7958 23.2673 18.7785 23.5493 18.4751C23.8313 18.1717 23.814 17.6971 23.5106 17.4151C22.0659 16.0723 20.1278 15.25 17.9993 15.25C15.8716 15.25 13.9341 16.0717 12.4895 17.4138C12.1861 17.6957 12.1686 18.1702 12.4505 18.4737C12.7325 18.7772 13.207 18.7946 13.5105 18.5127Z" fill="#353566"/>
<path d="M18.0032 20.0835C17.2185 20.0835 16.5008 20.414 15.9697 20.9651C15.6823 21.2633 15.2075 21.2721 14.9092 20.9846C14.611 20.6972 14.6022 20.2224 14.8897 19.9241C15.6831 19.1009 16.7827 18.5835 18.0032 18.5835C19.2237 18.5835 20.3233 19.1009 21.1168 19.9241C21.4042 20.2224 21.3955 20.6972 21.0972 20.9846C20.799 21.2721 20.3242 21.2633 20.0367 20.9651C19.5057 20.414 18.7879 20.0835 18.0032 20.0835Z" fill="#353566"/>
<path d="M18 21.5C17.4477 21.5 17 21.9477 17 22.5C17 23.0523 17.4477 23.5 18 23.5C18.5523 23.5 19.0001 23.0523 19.0001 22.5C19.0001 21.9477 18.5523 21.5 18 21.5Z" fill="#353566"/>
</g>
<defs>
<clipPath id="clip0_9001_291344">
<rect width="24" height="24" fill="white"/>
</clipPath>
</defs>
</svg>
