<svg width="24" height="24" viewBox="0 0 24 24" fill="none" xmlns="http://www.w3.org/2000/svg">
<path d="M5.94053 1.87151C6.92672 0.982127 8.44514 1.05263 9.34467 2.02957L9.45285 2.14706C9.88206 2.61322 10.6179 2.61322 11.0472 2.14707L11.1553 2.02958C12.0549 1.05263 13.5733 0.982127 14.5595 1.87151L15.3851 2.61606C15.6687 2.87182 16.1033 2.85928 16.3717 2.5876C17.4282 1.5181 19.25 2.26623 19.25 3.76955V11.0418C19.25 11.456 18.9142 11.7918 18.5 11.7918C18.0858 11.7918 17.75 11.456 17.75 11.0418V3.76955C17.75 3.60701 17.553 3.52612 17.4388 3.64176C16.6068 4.48394 15.2596 4.52281 14.3805 3.72999L13.5549 2.98543C13.1794 2.64681 12.6013 2.67366 12.2588 3.04561L12.1506 3.1631C11.1273 4.27454 9.37273 4.27454 8.34937 3.1631L8.24119 3.04561C7.89871 2.67366 7.32059 2.64681 6.94511 2.98543L6.11951 3.72998C5.24039 4.52281 3.89317 4.48394 3.06122 3.64176C2.94699 3.52612 2.75 3.60701 2.75 3.76955V20.2407C2.75 20.4032 2.94699 20.4841 3.06121 20.3685C3.89314 19.5262 5.2404 19.4873 6.11955 20.2802L6.93476 21.0154C7.31014 21.3539 7.88913 21.3229 8.22628 20.9463L8.33323 20.8269C8.93945 20.1497 9.81563 19.8748 10.6375 19.9994C11.047 20.0614 11.3287 20.4438 11.2666 20.8533C11.2046 21.2628 10.8222 21.5445 10.4127 21.4824C10.0658 21.4299 9.70292 21.5458 9.45082 21.8274L9.34387 21.9468C8.45273 22.9423 6.92235 23.0241 5.93019 22.1293L5.11497 21.3941C4.83137 21.1383 4.39676 21.1509 4.12838 21.4226C3.07191 22.4922 1.25 21.7441 1.25 20.2407V3.76955C1.25 2.26622 3.07185 1.51811 4.12834 2.5876C4.39673 2.85928 4.83133 2.87182 5.11493 2.61606L5.94053 1.87151Z" fill="#353566"/>
<path d="M7.5 8.5C7.5 8.08579 7.83579 7.75 8.25 7.75H12.25C12.6642 7.75 13 8.08579 13 8.5C13 8.91421 12.6642 9.25 12.25 9.25H8.25C7.83579 9.25 7.5 8.91421 7.5 8.5Z" fill="#353566"/>
<path d="M5.5 12C5.5 11.5858 5.83579 11.25 6.25 11.25H14.25C14.6642 11.25 15 11.5858 15 12C15 12.4142 14.6642 12.75 14.25 12.75H6.25C5.83579 12.75 5.5 12.4142 5.5 12Z" fill="#353566"/>
<path d="M6.5 15.5C6.5 15.0858 6.83579 14.75 7.25 14.75H10.4741C10.8883 14.75 11.2241 15.0858 11.2241 15.5C11.2241 15.9142 10.8883 16.25 10.4741 16.25H7.25C6.83579 16.25 6.5 15.9142 6.5 15.5Z" fill="#353566"/>
<path d="M14.5249 16.5357C14.8208 16.2457 14.8256 15.7709 14.5357 15.4751C14.2457 15.1792 13.7709 15.1744 13.4751 15.4643L11.4751 17.4243C11.333 17.5636 11.252 17.7536 11.25 17.9525C11.248 18.1514 11.3252 18.343 11.4644 18.485L13.4644 20.525C13.7544 20.8208 14.2292 20.8255 14.525 20.5356C14.8208 20.2456 14.8255 19.7707 14.5355 19.475L13.0607 17.9706L14.5249 16.5357Z" fill="#353566"/>
<path d="M19.4641 15.4753C19.7538 15.1793 20.2287 15.1743 20.5247 15.4641L22.5247 17.4221C22.6668 17.5612 22.7479 17.7512 22.75 17.9501C22.752 18.1491 22.675 18.3407 22.5358 18.4828L20.5358 20.5248C20.246 20.8207 19.7711 20.8256 19.4752 20.5358C19.1793 20.246 19.1744 19.7711 19.4642 19.4752L20.9393 17.9691L19.4753 16.5359C19.1793 16.2462 19.1743 15.7713 19.4641 15.4753Z" fill="#353566"/>
<path d="M18.7276 14.1821C18.8281 13.7802 18.5837 13.373 18.1819 13.2726C17.7801 13.1721 17.3728 13.4164 17.2724 13.8183L15.2724 21.8183C15.1719 22.2201 15.4162 22.6273 15.8181 22.7278C16.2199 22.8282 16.6271 22.5839 16.7276 22.1821L18.7276 14.1821Z" fill="#353566"/>
</svg>
