<svg width="24" height="24" viewBox="0 0 24 24" fill="none" xmlns="http://www.w3.org/2000/svg">
<path d="M15.0303 15.0302C14.7374 15.3231 14.2626 15.3231 13.9697 15.0302L12.0001 13.0606L10.0303 15.0303C9.73743 15.3232 9.26255 15.3232 8.96966 15.0303C8.67677 14.7374 8.67677 14.2626 8.96966 13.9697L10.9394 11.9999L8.9697 10.0302C8.67681 9.73735 8.67681 9.26248 8.9697 8.96959C9.26259 8.67669 9.73747 8.67669 10.0304 8.96959L12.0001 10.9393L13.9696 8.9697C14.2625 8.67681 14.7374 8.67681 15.0303 8.9697C15.3232 9.26259 15.3232 9.73747 15.0303 10.0304L13.0607 11.9999L15.0303 13.9696C15.3232 14.2625 15.3232 14.7373 15.0303 15.0302Z" fill="#353566"/>
<path fill-rule="evenodd" clip-rule="evenodd" d="M7.69053 1.87151C8.67672 0.982127 10.1951 1.05263 11.0947 2.02957L11.2028 2.14706C11.6321 2.61322 12.3679 2.61322 12.7972 2.14706L12.9053 2.02957C13.8049 1.05263 15.3233 0.982127 16.3095 1.87151L17.1351 2.61606C17.4187 2.87182 17.8533 2.85928 18.1217 2.5876C19.1782 1.5181 21 2.26623 21 3.76955V20.2407C21 21.7441 19.1781 22.4922 18.1216 21.4226C17.8532 21.1509 17.4186 21.1383 17.135 21.3941L16.3198 22.1293C15.3276 23.0241 13.7973 22.9423 12.9061 21.9468L12.7992 21.8274C12.3728 21.3511 11.6272 21.3511 11.2008 21.8274L11.0939 21.9468C10.2027 22.9423 8.67235 23.0241 7.68019 22.1293L6.86497 21.3941C6.58137 21.1383 6.14675 21.1509 5.87838 21.4226C4.82191 22.4922 3 21.7441 3 20.2407V3.76955C3 2.26622 4.82185 1.51811 5.87834 2.5876C6.14673 2.85928 6.58133 2.87182 6.86493 2.61606L7.69053 1.87151ZM9.99119 3.04561C9.6487 2.67366 9.07059 2.64681 8.69511 2.98543L7.86951 3.72998C6.99039 4.52281 5.64317 4.48394 4.81122 3.64176C4.69699 3.52612 4.5 3.60701 4.5 3.76955V20.2407C4.5 20.4032 4.69698 20.4841 4.81121 20.3685C5.64314 19.5262 6.9904 19.4873 7.86955 20.2802L8.68476 21.0154C9.06014 21.3539 9.63913 21.3229 9.97628 20.9463L10.0832 20.8269C11.1058 19.6846 12.8942 19.6846 13.9168 20.8269L14.0237 20.9463C14.3609 21.3229 14.9399 21.3539 15.3152 21.0154L16.1305 20.2802C17.0096 19.4873 18.3569 19.5262 19.1888 20.3685C19.303 20.4841 19.5 20.4032 19.5 20.2407V3.76955C19.5 3.60701 19.303 3.52612 19.1888 3.64176C18.3568 4.48394 17.0096 4.52281 16.1305 3.72999L15.3049 2.98543C14.9294 2.64681 14.3513 2.67366 14.0088 3.04561L13.9006 3.1631C12.8773 4.27454 11.1227 4.27454 10.0994 3.1631L9.99119 3.04561Z" fill="#353566"/>
</svg>
