<svg width="24" height="24" viewBox="0 0 24 24" fill="none" xmlns="http://www.w3.org/2000/svg">
<path d="M5.94053 1.87151C6.92672 0.982127 8.44514 1.05263 9.34467 2.02957L9.45285 2.14706C9.88206 2.61322 10.6179 2.61322 11.0472 2.14707L11.1553 2.02958C12.0549 1.05263 13.5733 0.982127 14.5595 1.87151L15.3851 2.61606C15.6687 2.87182 16.1033 2.85928 16.3717 2.5876C17.4282 1.5181 19.25 2.26623 19.25 3.76955V9.8311C19.25 10.2453 18.9142 10.5811 18.5 10.5811C18.0858 10.5811 17.75 10.2453 17.75 9.8311V3.76955C17.75 3.60701 17.553 3.52612 17.4388 3.64176C16.6068 4.48394 15.2596 4.52281 14.3805 3.72999L13.5549 2.98543C13.1794 2.64681 12.6013 2.67366 12.2588 3.04561L12.1506 3.1631C11.1273 4.27454 9.37273 4.27454 8.34937 3.1631L8.24119 3.04561C7.89871 2.67366 7.32059 2.64681 6.94511 2.98543L6.11951 3.72998C5.24039 4.52281 3.89317 4.48394 3.06122 3.64176C2.94699 3.52612 2.75 3.60701 2.75 3.76955V20.2407C2.75 20.4032 2.94699 20.4841 3.06121 20.3685C3.89314 19.5262 5.2404 19.4873 6.11955 20.2802L6.93476 21.0154C7.31014 21.3539 7.88913 21.3229 8.22628 20.9463L8.33324 20.8269C9.03035 20.0482 10.0825 19.8019 11.0022 20.0821C11.3985 20.2028 11.6218 20.6219 11.5011 21.0181C11.3803 21.4144 10.9613 21.6377 10.565 21.517C10.1772 21.3988 9.74012 21.5042 9.45082 21.8274L9.34387 21.9468C8.45273 22.9423 6.92235 23.0241 5.93019 22.1293L5.11497 21.3941C4.83137 21.1383 4.39676 21.1509 4.12838 21.4226C3.07191 22.4922 1.25 21.7441 1.25 20.2407V3.76955C1.25 2.26622 3.07185 1.51811 4.12834 2.5876C4.39673 2.85928 4.83133 2.87182 5.11493 2.61606L5.94053 1.87151Z" fill="#353566"/>
<path d="M7.5 8.5C7.5 8.08579 7.83579 7.75 8.25 7.75H12.25C12.6642 7.75 13 8.08579 13 8.5C13 8.91421 12.6642 9.25 12.25 9.25H8.25C7.83579 9.25 7.5 8.91421 7.5 8.5Z" fill="#353566"/>
<path d="M5.5 12C5.5 11.5858 5.83579 11.25 6.25 11.25H13.7869C14.2011 11.25 14.5369 11.5858 14.5369 12C14.5369 12.4142 14.2011 12.75 13.7869 12.75H6.25C5.83579 12.75 5.5 12.4142 5.5 12Z" fill="#353566"/>
<path d="M6.5 15.5C6.5 15.0858 6.83579 14.75 7.25 14.75H9.34049C9.7547 14.75 10.0905 15.0858 10.0905 15.5C10.0905 15.9142 9.7547 16.25 9.34049 16.25H7.25C6.83579 16.25 6.5 15.9142 6.5 15.5Z" fill="#353566"/>
<path fill-rule="evenodd" clip-rule="evenodd" d="M18.2386 12.5279C17.7386 11.4907 16.2614 11.4907 15.7614 12.5279L14.7549 14.6161L12.4478 14.9171C11.297 15.0673 10.8384 16.4877 11.6841 17.2825L13.3627 18.8598L12.9402 21.1187C12.7278 22.2539 13.925 23.1293 14.9424 22.5827L17 21.4772L19.0576 22.5827C20.075 23.1293 21.2722 22.2539 21.0599 21.1187L20.6373 18.8598L22.3159 17.2825C23.1617 16.4877 22.7031 15.0673 21.5522 14.9171L19.2451 14.6161L18.2386 12.5279ZM16.0473 15.3892L17 13.4129L17.9527 15.3892C18.1359 15.7693 18.4985 16.0313 18.9169 16.0859L21.0962 16.3703L19.5104 17.8604C19.1999 18.1522 19.0594 18.5822 19.1378 19.0011L19.5374 21.1377L17.5916 20.0923C17.2222 19.8938 16.7778 19.8938 16.4084 20.0923L14.4626 21.1377L14.8623 19.0011C14.9406 18.5822 14.8002 18.1522 14.4896 17.8604L12.9039 16.3703L15.0831 16.0859C15.5015 16.0313 15.8641 15.7693 16.0473 15.3892Z" fill="#353566"/>
</svg>
