<svg width="24" height="24" viewBox="0 0 24 24" fill="none" xmlns="http://www.w3.org/2000/svg">
<g clip-path="url(#clip0_9001_291474)">
<path d="M19.0512 1.77669C18.7551 1.75276 18.3705 1.75255 17.7976 1.75309L12.8401 1.75781C11.9501 1.75865 11.6271 1.76376 11.3312 1.83495C11.0512 1.90235 10.7835 2.01332 10.5378 2.16383C10.2784 2.32281 10.0465 2.54772 9.41684 3.17679L4.04165 8.54713C3.33957 9.24857 2.84533 9.74319 2.4906 10.1607C2.14157 10.5714 1.97191 10.8579 1.88474 11.1258C1.70503 11.678 1.70475 12.2729 1.88395 12.8253C1.97087 13.0933 2.14027 13.3799 2.48892 13.791C2.84325 14.2088 3.33703 14.7039 4.03846 15.406L7.59633 18.9672C8.05814 19.4295 8.2312 19.5997 8.38738 19.7147C8.97724 20.149 9.69715 20.3193 10.3899 20.225C10.8004 20.1691 11.1784 20.4566 11.2343 20.867C11.2901 21.2774 11.0027 21.6554 10.5923 21.7113C9.52347 21.8568 8.40997 21.5941 7.49798 20.9225C7.23804 20.7311 6.97943 20.4722 6.58491 20.0772L2.95423 16.443C2.28112 15.7693 1.74356 15.2312 1.34495 14.7612C0.936096 14.2792 0.629507 13.8195 0.457149 13.2882C0.180209 12.4345 0.180635 11.515 0.458369 10.6616C0.63122 10.1304 0.938236 9.67106 1.34753 9.18937C1.74659 8.71973 2.28461 8.18221 2.95837 7.50907L8.42013 2.05222C8.96357 1.50903 9.32492 1.14784 9.75413 0.884842C10.1337 0.652249 10.5475 0.480739 10.9803 0.376585C11.4697 0.258814 11.9806 0.258441 12.749 0.257879L17.8266 0.253062C18.3613 0.252543 18.8075 0.25211 19.172 0.281556C19.5522 0.312267 19.9092 0.379113 20.2468 0.550848C20.7647 0.814316 21.1859 1.23508 21.4498 1.75276C21.6219 2.09021 21.6891 2.44711 21.7202 2.82727C21.75 3.1918 21.75 3.63805 21.7499 4.17272L21.75 9.2445C21.7502 10.0148 21.7503 10.527 21.6324 11.0177C21.5282 11.4515 21.3563 11.8663 21.123 12.2467C21.0047 12.4397 20.8714 12.6128 20.715 12.7913C20.4419 13.1028 19.9681 13.134 19.6566 12.861C19.3451 12.588 19.3139 12.1141 19.5869 11.8026C19.7035 11.6695 19.7815 11.565 19.8443 11.4626C19.9952 11.2164 20.1065 10.948 20.1739 10.6673C20.2451 10.3707 20.25 10.0469 20.25 9.15454L20.2499 4.20307C20.2499 3.63017 20.2494 3.2456 20.2251 2.94947C20.2017 2.66209 20.1597 2.52473 20.1135 2.43414C19.9935 2.19883 19.8021 2.00757 19.5667 1.88781C19.476 1.84171 19.3386 1.7999 19.0512 1.77669Z" fill="#353566"/>
<path fill-rule="evenodd" clip-rule="evenodd" d="M13.2501 6.25004C13.2501 4.86933 14.3694 3.75004 15.7501 3.75004C17.1308 3.75004 18.2501 4.86933 18.2501 6.25004C18.2501 7.63076 17.1308 8.75004 15.7501 8.75004C14.3694 8.75004 13.2501 7.63076 13.2501 6.25004ZM15.7501 5.25004C15.1978 5.25004 14.7501 5.69776 14.7501 6.25004C14.7501 6.80233 15.1978 7.25004 15.7501 7.25004C16.3024 7.25004 16.7501 6.80233 16.7501 6.25004C16.7501 5.69776 16.3024 5.25004 15.7501 5.25004Z" fill="#353566"/>
<path d="M6.46969 12.4697C6.76259 12.1768 7.23746 12.1768 7.53035 12.4697L9.53035 14.4697C9.82325 14.7626 9.82325 15.2375 9.53035 15.5304C9.23746 15.8233 8.76259 15.8233 8.46969 15.5304L6.46969 13.5304C6.1768 13.2375 6.1768 12.7626 6.46969 12.4697Z" fill="#353566"/>
<path fill-rule="evenodd" clip-rule="evenodd" d="M18 16.875C16.8252 16.875 15.875 17.8252 15.875 19C15.875 20.1748 16.8252 21.125 18 21.125C19.1748 21.125 20.125 20.1748 20.125 19C20.125 17.8252 19.1748 16.875 18 16.875ZM17.125 19C17.125 18.5156 17.5156 18.125 18 18.125C18.4844 18.125 18.875 18.5156 18.875 19C18.875 19.4844 18.4844 19.875 18 19.875C17.5156 19.875 17.125 19.4844 17.125 19Z" fill="#353566"/>
<path fill-rule="evenodd" clip-rule="evenodd" d="M18 14.25C20.3145 14.25 22.5739 15.665 23.6301 18.3627C23.79 18.771 23.79 19.229 23.6301 19.6373C22.5739 22.335 20.3145 23.75 18 23.75C15.6855 23.75 13.4261 22.335 12.3699 19.6373C12.21 19.229 12.21 18.771 12.3699 18.3627C13.4261 15.665 15.6855 14.25 18 14.25ZM18 15.75C16.3319 15.75 14.6086 16.7591 13.7667 18.9096C13.7444 18.9663 13.7444 19.0337 13.7667 19.0904C14.6086 21.2409 16.3319 22.25 18 22.25C19.6681 22.25 21.3914 21.2409 22.2333 19.0904C22.2556 19.0337 22.2556 18.9663 22.2333 18.9096C21.3914 16.7591 19.6681 15.75 18 15.75Z" fill="#353566"/>
</g>
<defs>
<clipPath id="clip0_9001_291474">
<rect width="24" height="24" fill="white"/>
</clipPath>
</defs>
</svg>
