<svg width="24" height="24" viewBox="0 0 24 24" fill="none" xmlns="http://www.w3.org/2000/svg">
<path fill-rule="evenodd" clip-rule="evenodd" d="M16.7504 4.74951C18.1311 4.74951 19.2504 5.8688 19.2504 7.24951C19.2504 8.63022 18.1311 9.74951 16.7504 9.74951C15.3697 9.74951 14.2504 8.63022 14.2504 7.24951C14.2504 5.8688 15.3697 4.74951 16.7504 4.74951ZM17.7504 7.24951C17.7504 6.69723 17.3027 6.24951 16.7504 6.24951C16.1981 6.24951 15.7504 6.69723 15.7504 7.24951C15.7504 7.8018 16.1981 8.24951 16.7504 8.24951C17.3027 8.24951 17.7504 7.8018 17.7504 7.24951Z" fill="#353566"/>
<path d="M12.3541 11.6319C12.3567 11.6345 12.3593 11.6371 12.3619 11.6397C12.3646 11.6424 12.3673 11.645 12.37 11.6477C12.6053 11.8841 12.7183 12.0486 12.796 12.2285C12.8821 12.4277 12.946 12.6943 13.0127 13.1768C13.0694 13.5871 13.448 13.8737 13.8583 13.8171C14.2686 13.7604 14.5553 13.3818 14.4986 12.9715C14.4279 12.4599 14.3429 12.0268 14.173 11.6336C14.0978 11.4596 14.0099 11.302 13.9089 11.1534L14.1296 10.9326C14.4225 10.6397 14.4225 10.1648 14.1296 9.87195C13.8367 9.57905 13.3619 9.57905 13.069 9.87195L12.8448 10.0962C12.4896 9.85368 12.1057 9.68579 11.7066 9.62196C11.0523 9.51732 10.4077 9.70457 9.91144 10.2008C9.26906 10.8432 9.22534 11.6068 9.4042 12.2406C9.5683 12.822 9.92763 13.3404 10.1605 13.6664C10.399 14.0003 10.6089 14.327 10.6939 14.6279C10.764 14.8765 10.7366 15.0325 10.5696 15.1995C10.4274 15.3417 10.2711 15.3897 10.0719 15.3579C9.84535 15.3216 9.52879 15.1704 9.17984 14.8215C8.93899 14.5806 8.82425 14.4145 8.74565 14.2325C8.65956 14.0333 8.59564 13.7667 8.52898 13.2842C8.47229 12.8739 8.0937 12.5872 7.68339 12.6439C7.27307 12.7006 6.9864 13.0792 7.04309 13.4895C7.11378 14.0011 7.19874 14.4341 7.36864 14.8274C7.44386 15.0015 7.53184 15.1592 7.63301 15.3079L7.41217 15.5288C7.11927 15.8216 7.11927 16.2965 7.41217 16.5894C7.70506 16.8823 8.17993 16.8823 8.47283 16.5894L8.69719 16.365C9.05231 16.6074 9.43609 16.7752 9.83505 16.839C10.4893 16.9437 11.134 16.7564 11.6302 16.2602C12.2726 15.6178 12.3163 14.8542 12.1375 14.2204C11.9734 13.639 11.614 13.1206 11.3811 12.7946C11.1426 12.4607 10.9327 12.134 10.8478 11.8331C10.7776 11.5845 10.8051 11.4285 10.9721 11.2615C11.1143 11.1193 11.2705 11.0713 11.4697 11.1031C11.6946 11.1391 12.0082 11.2883 12.3541 11.6319Z" fill="#353566"/>
<path fill-rule="evenodd" clip-rule="evenodd" d="M20.1723 1.28107C20.5524 1.31178 20.9094 1.37862 21.247 1.55036C21.765 1.81383 22.1861 2.23459 22.4501 2.75228C22.6221 3.08972 22.6893 3.44663 22.7204 3.82679C22.7502 4.19132 22.7502 4.63758 22.7502 5.17225L22.7502 10.244C22.7504 11.0143 22.7505 11.5265 22.6327 12.0172C22.5284 12.4511 22.3565 12.8658 22.1232 13.2462C21.8595 13.6764 21.497 14.0383 20.952 14.5826L15.4846 20.045C14.8108 20.7182 14.2728 21.2558 13.8027 21.6545C13.3207 22.0634 12.861 22.37 12.3297 22.5423C11.4759 22.8193 10.5565 22.8189 9.70298 22.5411C9.17181 22.3683 8.71243 22.0612 8.23073 21.6519C7.7611 21.2528 7.2236 20.7148 6.55049 20.041L3.95453 17.4426C3.28136 16.7688 2.74383 16.2308 2.34519 15.7607C1.93634 15.2787 1.62975 14.819 1.45739 14.2877C1.18045 13.434 1.18088 12.5145 1.45861 11.6611C1.63146 11.1299 1.93848 10.6706 2.34778 10.1889C2.74684 9.71923 3.28487 9.1817 3.95864 8.50855L9.42038 3.05172C9.96381 2.50854 10.3252 2.14735 10.7544 1.88435C11.134 1.65176 11.5477 1.48025 11.9805 1.3761C12.47 1.25833 12.9809 1.25795 13.7492 1.25739L18.8269 1.25257C19.3615 1.25205 19.8077 1.25162 20.1723 1.28107ZM20.0515 2.7762C19.7553 2.75228 19.3708 2.75206 18.7979 2.7526L13.8404 2.75732C12.9503 2.75816 12.6273 2.76327 12.3315 2.83447C12.0514 2.90186 11.7837 3.01284 11.5381 3.16334C11.2786 3.32232 11.0467 3.54723 10.4171 4.1763L5.04189 9.54664C4.33981 10.2481 3.84557 10.7427 3.49085 11.1602C3.14181 11.5709 2.97216 11.8574 2.88498 12.1253C2.70528 12.6775 2.705 13.2724 2.8842 13.8248C2.97112 14.0928 3.14051 14.3794 3.48916 14.7905C3.8435 15.2083 4.33728 15.7034 5.03871 16.4055L7.58848 18.9577C8.28994 19.6598 8.78457 20.1541 9.20204 20.5088C9.61281 20.8579 9.8993 21.0276 10.1672 21.1148C10.7194 21.2945 11.3144 21.2947 11.8668 21.1155C12.1348 21.0286 12.4214 20.8592 12.8325 20.5105C13.2503 20.1562 13.7454 19.6624 14.4475 18.9609L19.8281 13.5851C20.4594 12.9544 20.6851 12.7221 20.8445 12.4621C20.9955 12.2159 21.1067 11.9476 21.1741 11.6668C21.2454 11.3702 21.2502 11.0464 21.2502 10.1541L21.2502 5.20259C21.2502 4.62968 21.2496 4.24512 21.2254 3.94899C21.2019 3.66161 21.16 3.52424 21.1138 3.43365C20.9938 3.19834 20.8024 3.00708 20.5669 2.88732C20.4763 2.84122 20.3389 2.79941 20.0515 2.7762Z" fill="#353566"/>
</svg>
