<svg width="24" height="24" viewBox="0 0 24 24" fill="none" xmlns="http://www.w3.org/2000/svg">
<g clip-path="url(#clip0_9001_291399)">
<path d="M17.7979 1.75309C18.3708 1.75255 18.7553 1.75276 19.0515 1.77669C19.3389 1.7999 19.4763 1.84171 19.5669 1.88781C19.8024 2.00757 19.9938 2.19883 20.1138 2.43414C20.16 2.52473 20.2019 2.66209 20.2254 2.94947C20.2496 3.2456 20.2502 3.63017 20.2502 4.20307L20.2502 9.15454C20.2502 9.84091 20.2486 10.188 20.2116 10.4637C20.1565 10.8742 20.4447 11.2517 20.8552 11.3067C21.2657 11.3618 21.6432 11.0737 21.6983 10.6631C21.7503 10.2756 21.7503 9.82415 21.7502 9.20882L21.7502 4.17272C21.7502 3.63805 21.7502 3.1918 21.7204 2.82727C21.6893 2.44711 21.6221 2.09021 21.4501 1.75276C21.1861 1.23508 20.765 0.814316 20.247 0.550848C19.9094 0.379113 19.5524 0.312267 19.1723 0.281556C18.8077 0.25211 18.3615 0.252543 17.8269 0.253062L12.7492 0.257879C11.9809 0.258441 11.47 0.258814 10.9805 0.376585C10.5477 0.480739 10.134 0.652249 9.75437 0.884842C9.32517 1.14784 8.96381 1.50903 8.42037 2.05222L2.95864 7.50903C2.28489 8.18217 1.74684 8.71973 1.34778 9.18937C0.93848 9.67106 0.631464 10.1304 0.458613 10.6616C0.18088 11.515 0.180453 12.4345 0.457394 13.2882C0.629751 13.8195 0.93634 14.2792 1.34519 14.7612C1.7438 15.2312 2.28129 15.7692 2.95439 16.4429L6.58515 20.0772C6.97968 20.4722 7.23829 20.7311 7.49822 20.9225C8.43556 21.6127 9.58569 21.8711 10.6815 21.6982C11.0907 21.6337 11.37 21.2497 11.3055 20.8405C11.2409 20.4314 10.8569 20.152 10.4478 20.2166C9.7375 20.3286 8.99383 20.161 8.38763 19.7147C8.23145 19.5997 8.05838 19.4295 7.59657 18.9672L4.03871 15.406C3.33728 14.7039 2.8435 14.2088 2.48916 13.791C2.14051 13.3799 1.97112 13.0933 1.8842 12.8253C1.705 12.2729 1.70528 11.678 1.88499 11.1258C1.97216 10.8579 2.14181 10.5714 2.49085 10.1607C2.84557 9.74319 3.33981 9.24857 4.04189 8.54713L9.41708 3.17679C10.0467 2.54772 10.2786 2.32281 10.5381 2.16383C10.7837 2.01332 11.0514 1.90235 11.3315 1.83495C11.6273 1.76376 11.9503 1.75865 12.8404 1.75781L17.7979 1.75309Z" fill="#353566"/>
<path fill-rule="evenodd" clip-rule="evenodd" d="M15.7503 3.75004C14.3696 3.75004 13.2503 4.86933 13.2503 6.25004C13.2503 7.63076 14.3696 8.75004 15.7503 8.75004C17.131 8.75004 18.2503 7.63076 18.2503 6.25004C18.2503 4.86933 17.131 3.75004 15.7503 3.75004ZM14.7503 6.25004C14.7503 5.69776 15.198 5.25004 15.7503 5.25004C16.3026 5.25004 16.7503 5.69776 16.7503 6.25004C16.7503 6.80233 16.3026 7.25004 15.7503 7.25004C15.198 7.25004 14.7503 6.80233 14.7503 6.25004Z" fill="#353566"/>
<path d="M7.5306 12.4697C7.23771 12.1768 6.76283 12.1768 6.46994 12.4697C6.17704 12.7626 6.17704 13.2375 6.46994 13.5304L8.46994 15.5304C8.76283 15.8233 9.23771 15.8233 9.5306 15.5304C9.82349 15.2375 9.82349 14.7626 9.5306 14.4697L7.5306 12.4697Z" fill="#353566"/>
<path d="M18.6252 17.0089L19.5583 17.9419C19.8024 18.186 20.1981 18.186 20.4422 17.9419C20.6862 17.6978 20.6862 17.3021 20.4422 17.058L18.4422 15.058C18.325 14.9408 18.166 14.875 18.0002 14.875C17.8345 14.875 17.6755 14.9408 17.5583 15.058L15.5583 17.0581C15.3142 17.3021 15.3142 17.6979 15.5583 17.9419C15.8024 18.186 16.1981 18.186 16.4422 17.9419L17.3752 17.0089V20.5C17.3752 20.8452 17.6551 21.125 18.0002 21.125C18.3454 21.125 18.6252 20.8452 18.6252 20.5V17.0089Z" fill="#353566"/>
<path fill-rule="evenodd" clip-rule="evenodd" d="M18.0002 12.25C14.8246 12.25 12.2502 14.8244 12.2502 18C12.2502 21.1756 14.8246 23.75 18.0002 23.75C21.1759 23.75 23.7502 21.1756 23.7502 18C23.7502 14.8244 21.1759 12.25 18.0002 12.25ZM13.7502 18C13.7502 15.6528 15.653 13.75 18.0002 13.75C20.3475 13.75 22.2502 15.6528 22.2502 18C22.2502 20.3472 20.3475 22.25 18.0002 22.25C15.653 22.25 13.7502 20.3472 13.7502 18Z" fill="#353566"/>
</g>
<defs>
<clipPath id="clip0_9001_291399">
<rect width="24" height="24" fill="white"/>
</clipPath>
</defs>
</svg>
