<svg width="24" height="24" viewBox="0 0 24 24" fill="none" xmlns="http://www.w3.org/2000/svg">
<g clip-path="url(#clip0_9001_291489)">
<path d="M17.7976 1.75309C18.3705 1.75255 18.7551 1.75276 19.0512 1.77669C19.3386 1.7999 19.476 1.84171 19.5667 1.88781C19.8021 2.00757 19.9935 2.19883 20.1135 2.43414C20.1597 2.52473 20.2017 2.66209 20.2251 2.94947C20.2494 3.2456 20.2499 3.63017 20.2499 4.20307L20.25 9.15454C20.25 10.0469 20.2451 10.3707 20.1739 10.6673C20.1065 10.948 19.9952 11.2164 19.8443 11.4626C19.7881 11.5542 19.7199 11.6473 19.6233 11.7605C19.3544 12.0756 19.3919 12.549 19.707 12.8179C20.0221 13.0867 20.4955 13.0493 20.7643 12.7342C20.9 12.5752 21.0175 12.4188 21.123 12.2467C21.3563 11.8663 21.5282 11.4515 21.6324 11.0177C21.7503 10.527 21.7502 10.0148 21.75 9.2445L21.7499 4.17272C21.75 3.63805 21.75 3.1918 21.7202 2.82727C21.6891 2.44711 21.6219 2.09021 21.4498 1.75276C21.1859 1.23508 20.7647 0.814316 20.2468 0.550848C19.9092 0.379113 19.5522 0.312267 19.172 0.281556C18.8075 0.25211 18.3613 0.252543 17.8266 0.253062L12.749 0.257879C11.9806 0.258441 11.4697 0.258814 10.9803 0.376585C10.5475 0.480739 10.1337 0.652249 9.75413 0.884842C9.32492 1.14784 8.96357 1.50903 8.42013 2.05222L2.9584 7.50903C2.28464 8.18217 1.74659 8.71973 1.34753 9.18937C0.938236 9.67106 0.63122 10.1304 0.458369 10.6616C0.180635 11.515 0.180209 12.4345 0.457149 13.2882C0.629507 13.8195 0.936096 14.2792 1.34495 14.7612C1.74356 15.2312 2.28104 15.7692 2.95414 16.4429L6.58491 20.0772C6.97943 20.4722 7.23804 20.7311 7.49798 20.9225C8.4943 21.6562 9.73086 21.9019 10.8874 21.6605C11.2929 21.5759 11.553 21.1786 11.4684 20.7731C11.3837 20.3676 10.9864 20.1075 10.5809 20.1921C9.83138 20.3486 9.03167 20.1891 8.38738 19.7147C8.2312 19.5997 8.05814 19.4295 7.59633 18.9672L4.03846 15.406C3.33703 14.7039 2.84325 14.2088 2.48892 13.791C2.14027 13.3799 1.97087 13.0933 1.88395 12.8253C1.70475 12.2729 1.70503 11.678 1.88474 11.1258C1.97191 10.8579 2.14157 10.5714 2.4906 10.1607C2.84533 9.74319 3.33957 9.24857 4.04165 8.54713L9.41684 3.17679C10.0465 2.54772 10.2784 2.32281 10.5378 2.16383C10.7835 2.01332 11.0512 1.90235 11.3312 1.83495C11.6271 1.76376 11.9501 1.75865 12.8401 1.75781L17.7976 1.75309Z" fill="#353566"/>
<path fill-rule="evenodd" clip-rule="evenodd" d="M15.7501 3.75004C14.3694 3.75004 13.2501 4.86933 13.2501 6.25004C13.2501 7.63076 14.3694 8.75004 15.7501 8.75004C17.1308 8.75004 18.2501 7.63076 18.2501 6.25004C18.2501 4.86933 17.1308 3.75004 15.7501 3.75004ZM14.7501 6.25004C14.7501 5.69776 15.1978 5.25004 15.7501 5.25004C16.3024 5.25004 16.7501 5.69776 16.7501 6.25004C16.7501 6.80233 16.3024 7.25004 15.7501 7.25004C15.1978 7.25004 14.7501 6.80233 14.7501 6.25004Z" fill="#353566"/>
<path d="M7.53035 12.4697C7.23746 12.1768 6.76259 12.1768 6.46969 12.4697C6.1768 12.7626 6.1768 13.2375 6.46969 13.5304L8.46969 15.5304C8.76259 15.8233 9.23746 15.8233 9.53035 15.5304C9.82325 15.2375 9.82325 14.7626 9.53035 14.4697L7.53035 12.4697Z" fill="#353566"/>
<path d="M15.5249 17.5357C15.8208 17.2457 15.8256 16.7709 15.5357 16.4751C15.2457 16.1792 14.7709 16.1744 14.4751 16.4643L12.4751 18.4243C12.333 18.5636 12.252 18.7536 12.25 18.9525C12.248 19.1514 12.3252 19.343 12.4644 19.485L14.4644 21.525C14.7544 21.8208 15.2292 21.8255 15.525 21.5356C15.8208 21.2456 15.8255 20.7707 15.5355 20.475L14.0607 18.9706L15.5249 17.5357Z" fill="#353566"/>
<path d="M20.4641 16.4753C20.7538 16.1793 21.2287 16.1743 21.5247 16.4641L23.5247 18.4221C23.6668 18.5612 23.7479 18.7512 23.75 18.9501C23.752 19.1491 23.675 19.3407 23.5358 19.4828L21.5358 21.5248C21.246 21.8207 20.7711 21.8256 20.4752 21.5358C20.1793 21.246 20.1744 20.7711 20.4642 20.4752L21.9393 18.9691L20.4753 17.5359C20.1793 17.2462 20.1743 16.7713 20.4641 16.4753Z" fill="#353566"/>
<path d="M19.7276 15.1821C19.8281 14.7802 19.5837 14.373 19.1819 14.2726C18.7801 14.1721 18.3728 14.4164 18.2724 14.8183L16.2724 22.8183C16.1719 23.2201 16.4162 23.6273 16.8181 23.7278C17.2199 23.8282 17.6271 23.5839 17.7276 23.1821L19.7276 15.1821Z" fill="#353566"/>
</g>
<defs>
<clipPath id="clip0_9001_291489">
<rect width="24" height="24" fill="white"/>
</clipPath>
</defs>
</svg>
