<svg width="24" height="24" viewBox="0 0 24 24" fill="none" xmlns="http://www.w3.org/2000/svg">
<path d="M6.56739 2.25H16.4326C17.3851 2.24999 18.1456 2.24999 18.7599 2.30018C19.3899 2.35165 19.9318 2.45963 20.4295 2.71322C21.2291 3.12068 21.8793 3.77085 22.2868 4.57054C22.5404 5.06824 22.6483 5.61012 22.6998 6.24013C22.75 6.85438 22.75 7.6149 22.75 8.5673V8.76121C22.75 9.14934 22.4539 9.47335 22.0673 9.50818C21.1429 9.59148 20.3983 10.3062 20.2698 11.2171C20.2119 11.6272 19.8325 11.9128 19.4223 11.8549C19.0122 11.7971 18.7266 11.4177 18.7845 11.0075C18.9772 9.64185 19.9563 8.53014 21.2498 8.14512C21.2487 7.38748 21.2423 6.82084 21.2048 6.36228C21.1609 5.82503 21.0782 5.50252 20.9503 5.25153C20.6866 4.73408 20.2659 4.31338 19.7485 4.04973C19.4975 3.92184 19.175 3.83909 18.6377 3.79519C18.0917 3.75058 17.3925 3.75 16.4 3.75H9.25V6.5C9.25 6.91421 8.91421 7.25 8.5 7.25C8.08579 7.25 7.75 6.91421 7.75 6.5V3.75H6.6C5.60753 3.75 4.90829 3.75058 4.36228 3.79519C3.82503 3.83909 3.50252 3.92184 3.25153 4.04973C2.73408 4.31338 2.31338 4.73408 2.04973 5.25153C1.92184 5.50252 1.83909 5.82503 1.79519 6.36228C1.75773 6.82085 1.75132 7.3875 1.75022 8.14516C3.19609 8.57565 4.25 9.91443 4.25 11.5C4.25 13.0856 3.19608 14.4243 1.75022 14.8548C1.75132 15.6125 1.75773 16.1792 1.79519 16.6377C1.83909 17.175 1.92184 17.4975 2.04973 17.7485C2.31338 18.2659 2.73408 18.6866 3.25153 18.9503C3.50252 19.0782 3.82503 19.1609 4.36228 19.2048C4.90829 19.2494 5.60753 19.25 6.6 19.25H7.75V16.5C7.75 16.0858 8.08579 15.75 8.5 15.75C8.91421 15.75 9.25 16.0858 9.25 16.5V19.25H12.8636C13.2779 19.25 13.6136 19.5858 13.6136 20C13.6136 20.4142 13.2779 20.75 12.8636 20.75H6.56737C5.61496 20.75 4.85438 20.75 4.24013 20.6998C3.61012 20.6483 3.06824 20.5404 2.57054 20.2868C1.77085 19.8793 1.12068 19.2291 0.713223 18.4295C0.459634 17.9318 0.35165 17.3899 0.300176 16.7599C0.249989 16.1456 0.249994 15.3851 0.25 14.4326V14.2388C0.25 13.8507 0.546124 13.5267 0.932687 13.4918C1.95126 13.4 2.75 12.5429 2.75 11.5C2.75 10.4571 1.95126 9.59997 0.932687 9.50818C0.546125 9.47335 0.25 9.14934 0.25 8.76121V8.56739C0.249994 7.61495 0.249989 6.85439 0.300176 6.24013C0.35165 5.61012 0.459634 5.06824 0.713223 4.57054C1.12068 3.77085 1.77085 3.12068 2.57054 2.71322C3.06824 2.45963 3.61012 2.35165 4.24013 2.30018C4.85439 2.24999 5.61495 2.24999 6.56739 2.25Z" fill="#353566"/>
<path d="M8.5 9.25C8.91421 9.25 9.25 9.58579 9.25 10V13C9.25 13.4142 8.91421 13.75 8.5 13.75C8.08579 13.75 7.75 13.4142 7.75 13V10C7.75 9.58579 8.08579 9.25 8.5 9.25Z" fill="#353566"/>
<path d="M13.5105 16.5127C14.6885 15.4182 16.2651 14.75 17.9993 14.75C19.7342 14.75 21.3112 15.4187 22.4894 16.5138C22.7928 16.7958 23.2673 16.7785 23.5493 16.4751C23.8313 16.1717 23.814 15.6971 23.5106 15.4151C22.0659 14.0723 20.1278 13.25 17.9993 13.25C15.8716 13.25 13.9341 14.0717 12.4895 15.4138C12.1861 15.6957 12.1686 16.1702 12.4505 16.4737C12.7325 16.7772 13.207 16.7946 13.5105 16.5127Z" fill="#353566"/>
<path d="M18.0032 18.083C17.2185 18.083 16.5008 18.4135 15.9697 18.9646C15.6823 19.2628 15.2075 19.2716 14.9092 18.9841C14.611 18.6967 14.6022 18.2219 14.8897 17.9237C15.6831 17.1004 16.7827 16.583 18.0032 16.583C19.2237 16.583 20.3233 17.1004 21.1168 17.9237C21.4042 18.2219 21.3955 18.6967 21.0972 18.9841C20.799 19.2716 20.3242 19.2628 20.0367 18.9646C19.5057 18.4135 18.7879 18.083 18.0032 18.083Z" fill="#353566"/>
<path d="M18 19.5C17.4477 19.5 17 19.9477 17 20.5C17 21.0523 17.4477 21.5 18 21.5C18.5523 21.5 19.0001 21.0523 19.0001 20.5C19.0001 19.9477 18.5523 19.5 18 19.5Z" fill="#353566"/>
</svg>
