<svg width="24" height="24" viewBox="0 0 24 24" fill="none" xmlns="http://www.w3.org/2000/svg">
<path fill-rule="evenodd" clip-rule="evenodd" d="M9 1.25C6.1005 1.25 3.75 3.6005 3.75 6.5C3.75 9.3995 6.1005 11.75 9 11.75C11.8995 11.75 14.25 9.3995 14.25 6.5C14.25 3.6005 11.8995 1.25 9 1.25ZM5.25 6.5C5.25 4.42893 6.92893 2.75 9 2.75C11.0711 2.75 12.75 4.42893 12.75 6.5C12.75 8.57107 11.0711 10.25 9 10.25C6.92893 10.25 5.25 8.57107 5.25 6.5Z" fill="#353566"/>
<path fill-rule="evenodd" clip-rule="evenodd" d="M8.99888 13.25C5.37406 13.25 1.44112 15.1212 0.349731 19.0645C0.234659 19.4803 0.236397 19.9131 0.269775 20.262C0.395175 21.573 1.43215 22.6118 2.7432 22.7375C2.87482 22.7501 3.02177 22.7501 3.21236 22.75H14.7863C14.9768 22.7501 15.1238 22.7501 15.2553 22.7375C16.5666 22.6119 17.6036 21.5731 17.729 20.2619C17.7624 19.9122 17.7705 19.4741 17.642 19.0393C16.5583 15.3745 13.1531 13.25 8.99888 13.25ZM1.79538 19.4646C2.64407 16.3983 5.7795 14.75 8.99888 14.75C12.643 14.75 15.3488 16.574 16.2035 19.4647C16.253 19.6319 16.2616 19.849 16.2358 20.1192C16.1787 20.7159 15.707 21.1873 15.1123 21.2443C15.062 21.2491 14.9935 21.25 14.7507 21.25H3.24812C3.00521 21.25 2.93668 21.2491 2.88636 21.2443C2.29173 21.1873 1.82003 20.7158 1.76296 20.1192C1.73856 19.8642 1.7483 19.6347 1.79538 19.4646Z" fill="#353566"/>
<path d="M23.75 11C23.75 11.4142 23.4142 11.75 23 11.75H20.75V14C20.75 14.4142 20.4142 14.75 20 14.75C19.5858 14.75 19.25 14.4142 19.25 14V11.75H17C16.5858 11.75 16.25 11.4142 16.25 11C16.25 10.5858 16.5858 10.25 17 10.25H19.25V8C19.25 7.58579 19.5858 7.25 20 7.25C20.4142 7.25 20.75 7.58579 20.75 8V10.25H23C23.4142 10.25 23.75 10.5858 23.75 11Z" fill="#353566"/>
</svg>
