<svg width="24" height="24" viewBox="0 0 24 24" fill="none" xmlns="http://www.w3.org/2000/svg">
<path fill-rule="evenodd" clip-rule="evenodd" d="M4.75 6.5C4.75 3.6005 7.1005 1.25 10 1.25C12.8995 1.25 15.25 3.6005 15.25 6.5C15.25 9.3995 12.8995 11.75 10 11.75C7.1005 11.75 4.75 9.3995 4.75 6.5ZM10 2.75C7.92893 2.75 6.25 4.42893 6.25 6.5C6.25 8.57107 7.92893 10.25 10 10.25C12.0711 10.25 13.75 8.57107 13.75 6.5C13.75 4.42893 12.0711 2.75 10 2.75Z" fill="#353566"/>
<path d="M10.3273 13.9773C10.3447 14.3911 10.0233 14.7407 9.60947 14.7581C6.52294 14.888 3.60951 16.5231 2.79538 19.4646C2.7483 19.6346 2.73856 19.8641 2.76296 20.1192C2.82003 20.7158 3.29173 21.1872 3.88636 21.2443C3.93668 21.2491 4.00521 21.2499 4.24812 21.2499H10.7546C11.1689 21.2499 11.5046 21.5857 11.5046 21.9999C11.5046 22.4142 11.1689 22.7499 10.7546 22.7499L4.21249 22.7499C4.02192 22.75 3.87481 22.75 3.7432 22.7374C2.43215 22.6117 1.39518 21.573 1.26978 20.262C1.2364 19.913 1.23466 19.4802 1.34973 19.0644C2.3962 15.2835 6.06012 13.4061 9.54643 13.2595C9.96028 13.2421 10.3099 13.5634 10.3273 13.9773Z" fill="#353566"/>
<path d="M17.625 16.0089L18.558 16.9419C18.8021 17.186 19.1978 17.186 19.4419 16.9419C19.686 16.6978 19.686 16.3021 19.4419 16.058L17.4419 14.058C17.3247 13.9408 17.1658 13.875 17 13.875C16.8342 13.875 16.6753 13.9408 16.5581 14.058L14.558 16.0581C14.314 16.3021 14.314 16.6979 14.558 16.9419C14.8021 17.186 15.1978 17.186 15.4419 16.9419L16.375 16.0089L16.375 19.5C16.375 19.8452 16.6548 20.125 17 20.125C17.3452 20.125 17.625 19.8452 17.625 19.5V16.0089Z" fill="#353566"/>
<path fill-rule="evenodd" clip-rule="evenodd" d="M17 11.25C13.8244 11.25 11.25 13.8244 11.25 17C11.25 20.1756 13.8244 22.75 17 22.75C20.1756 22.75 22.75 20.1756 22.75 17C22.75 13.8244 20.1756 11.25 17 11.25ZM12.75 17C12.75 14.6528 14.6528 12.75 17 12.75C19.3472 12.75 21.25 14.6528 21.25 17C21.25 19.3472 19.3472 21.25 17 21.25C14.6528 21.25 12.75 19.3472 12.75 17Z" fill="#353566"/>
</svg>
