<svg width="24" height="24" viewBox="0 0 24 24" fill="none" xmlns="http://www.w3.org/2000/svg">
<path fill-rule="evenodd" clip-rule="evenodd" d="M4.75 6.5C4.75 3.6005 7.1005 1.25 10 1.25C12.8995 1.25 15.25 3.6005 15.25 6.5C15.25 9.3995 12.8995 11.75 10 11.75C7.1005 11.75 4.75 9.3995 4.75 6.5ZM10 2.75C7.92893 2.75 6.25 4.42893 6.25 6.5C6.25 8.57107 7.92893 10.25 10 10.25C12.0711 10.25 13.75 8.57107 13.75 6.5C13.75 4.42893 12.0711 2.75 10 2.75Z" fill="#353566"/>
<path d="M10.3273 13.9773C10.3447 14.3911 10.0233 14.7407 9.60947 14.7581C6.52294 14.888 3.60951 16.5231 2.79538 19.4646C2.7483 19.6346 2.73856 19.8641 2.76296 20.1192C2.82003 20.7158 3.29173 21.1872 3.88636 21.2443C3.93668 21.2491 4.00521 21.2499 4.24812 21.2499H10.7546C11.1689 21.2499 11.5046 21.5857 11.5046 21.9999C11.5046 22.4142 11.1689 22.7499 10.7546 22.7499L4.21249 22.7499C4.02192 22.75 3.87481 22.75 3.7432 22.7374C2.43215 22.6117 1.39518 21.573 1.26978 20.262C1.2364 19.913 1.23466 19.4802 1.34973 19.0644C2.3962 15.2835 6.06012 13.4061 9.54643 13.2595C9.96028 13.2421 10.3099 13.5634 10.3273 13.9773Z" fill="#353566"/>
<path d="M17.625 17.9911L18.5581 17.0581C18.8022 16.814 19.1979 16.814 19.442 17.0581C19.686 17.3021 19.686 17.6979 19.442 17.9419L17.4419 19.942C17.3247 20.0592 17.1658 20.125 17 20.125C16.8342 20.125 16.6753 20.0592 16.5581 19.942L14.5581 17.942C14.314 17.6979 14.314 17.3022 14.5581 17.0581C14.8022 16.814 15.1979 16.814 15.442 17.0581L16.375 17.9911V14.5C16.375 14.1548 16.6548 13.875 17 13.875C17.3452 13.875 17.625 14.1548 17.625 14.5V17.9911Z" fill="#353566"/>
<path fill-rule="evenodd" clip-rule="evenodd" d="M17 11.25C13.8244 11.25 11.25 13.8244 11.25 17C11.25 20.1756 13.8244 22.75 17 22.75C20.1756 22.75 22.75 20.1756 22.75 17C22.75 13.8244 20.1756 11.25 17 11.25ZM12.75 17C12.75 14.6528 14.6528 12.75 17 12.75C19.3472 12.75 21.25 14.6528 21.25 17C21.25 19.3472 19.3472 21.25 17 21.25C14.6528 21.25 12.75 19.3472 12.75 17Z" fill="#353566"/>
</svg>
