<svg width="24" height="24" viewBox="0 0 24 24" fill="none" xmlns="http://www.w3.org/2000/svg">
<path fill-rule="evenodd" clip-rule="evenodd" d="M10.0001 1.25C7.10057 1.25 4.75006 3.6005 4.75006 6.5C4.75006 9.3995 7.10057 11.75 10.0001 11.75C12.8996 11.75 15.2501 9.3995 15.2501 6.5C15.2501 3.6005 12.8996 1.25 10.0001 1.25ZM6.25006 6.5C6.25006 4.42893 7.92899 2.75 10.0001 2.75C12.0711 2.75 13.7501 4.42893 13.7501 6.5C13.7501 8.57107 12.0711 10.25 10.0001 10.25C7.92899 10.25 6.25006 8.57107 6.25006 6.5Z" fill="#353566"/>
<path d="M9.36849 14.7728C9.78164 14.743 10.0925 14.384 10.0627 13.9709C10.033 13.5577 9.67401 13.2469 9.26086 13.2766C5.30024 13.5616 1.79158 16.1564 1.25763 19.894C1.19905 20.3041 1.48398 20.684 1.89403 20.7426C2.30408 20.8011 2.68398 20.5162 2.74256 20.1062C3.15101 17.247 5.91339 15.0213 9.36849 14.7728Z" fill="#353566"/>
<path fill-rule="evenodd" clip-rule="evenodd" d="M11.2501 16.125C11.2501 13.4326 13.4327 11.25 16.1251 11.25C18.8174 11.25 21.0001 13.4326 21.0001 16.125C21.0001 17.2006 20.6517 18.1948 20.0617 19.001L22.5303 21.4697C22.8232 21.7626 22.8232 22.2374 22.5303 22.5303C22.2374 22.8232 21.7626 22.8232 21.4697 22.5303L19.0011 20.0617C18.1949 20.6517 17.2006 21 16.1251 21C13.4327 21 11.2501 18.8174 11.2501 16.125ZM16.1251 12.75C14.2611 12.75 12.7501 14.261 12.7501 16.125C12.7501 17.989 14.2611 19.5 16.1251 19.5C17.989 19.5 19.5001 17.989 19.5001 16.125C19.5001 14.261 17.989 12.75 16.1251 12.75Z" fill="#353566"/>
</svg>
