<svg width="24" height="24" viewBox="0 0 24 24" fill="none" xmlns="http://www.w3.org/2000/svg">
<path fill-rule="evenodd" clip-rule="evenodd" d="M4.25 11C4.25 6.71979 7.71979 3.25 12 3.25C15.7587 3.25 18.8916 5.92521 19.6 9.47575C21.9971 10.169 23.75 12.3791 23.75 15C23.75 18.1756 21.1756 20.75 18 20.75H5C2.37665 20.75 0.25 18.6234 0.25 16C0.25 13.6298 1.98608 11.665 4.25602 11.3079C4.25202 11.2057 4.25 11.1031 4.25 11ZM15.6666 8.5835C15.2524 8.5835 14.9166 8.91928 14.9166 9.3335V9.6837C14.139 8.9992 13.1183 8.58356 11.9999 8.58356C9.94092 8.58356 8.21272 9.99184 7.72246 11.8966C7.61921 12.2978 7.8607 12.7066 8.26184 12.8099C8.66298 12.9131 9.07187 12.6716 9.17512 12.2705C9.49894 11.0124 10.6419 10.0836 11.9999 10.0836C12.7232 10.0836 13.3855 10.3468 13.8957 10.7835H13.4666C13.0524 10.7835 12.7166 11.1192 12.7166 11.5335C12.7166 11.9477 13.0524 12.2835 13.4666 12.2835H15.3407C15.3548 12.2839 15.3689 12.2839 15.3831 12.2835H15.6666C16.0808 12.2835 16.4166 11.9477 16.4166 11.5335V9.3335C16.4166 8.91928 16.0808 8.5835 15.6666 8.5835ZM8.33325 17.4167C8.74747 17.4167 9.08325 17.081 9.08325 16.6667V16.3168C9.8609 17.0013 10.8816 17.417 11.9999 17.417C14.059 17.417 15.7872 16.0087 16.2774 14.1039C16.3807 13.7027 16.1392 13.2938 15.738 13.1906C15.3369 13.0874 14.928 13.3289 14.8248 13.73C14.501 14.9882 13.358 15.917 11.9999 15.917C11.2766 15.917 10.6141 15.6536 10.1039 15.2168H10.5333C10.9475 15.2168 11.2833 14.881 11.2833 14.4668C11.2833 14.0526 10.9475 13.7168 10.5333 13.7168H8.33325C8.13434 13.7168 7.94357 13.7958 7.80292 13.9365C7.66227 14.0771 7.58325 14.2679 7.58325 14.4668V16.6667C7.58325 17.081 7.91904 17.4167 8.33325 17.4167Z" fill="#353566"/>
</svg>
