<svg width="24" height="24" viewBox="0 0 24 24" fill="none" xmlns="http://www.w3.org/2000/svg">
<path fill-rule="evenodd" clip-rule="evenodd" d="M4.25 11C4.25 6.71979 7.71979 3.25 12 3.25C15.7587 3.25 18.8916 5.92521 19.6 9.47575C21.9971 10.169 23.75 12.3791 23.75 15C23.75 18.1756 21.1756 20.75 18 20.75H5C2.37665 20.75 0.25 18.6234 0.25 16C0.25 13.6298 1.98608 11.665 4.25602 11.3079C4.25202 11.2057 4.25 11.1031 4.25 11ZM11.25 13.5V9.5C11.25 9.08579 11.5858 8.75 12 8.75C12.4142 8.75 12.75 9.08579 12.75 9.5V13.5C12.75 13.9142 12.4142 14.25 12 14.25C11.5858 14.25 11.25 13.9142 11.25 13.5ZM11 17C11 16.4477 11.4477 16 12 16C12.5523 16 13.0001 16.4477 13.0001 17C13.0001 17.5523 12.5523 18 12 18C11.4477 18 11 17.5523 11 17Z" fill="#353566"/>
</svg>
