<svg width="24" height="24" viewBox="0 0 24 24" fill="none" xmlns="http://www.w3.org/2000/svg">
<path fill-rule="evenodd" clip-rule="evenodd" d="M4.25 11C4.25 6.71979 7.71979 3.25 12 3.25C15.7587 3.25 18.8916 5.92521 19.6 9.47575C21.9971 10.169 23.75 12.3791 23.75 15C23.75 18.1756 21.1756 20.75 18 20.75H5C2.37665 20.75 0.25 18.6234 0.25 16C0.25 13.6298 1.98608 11.665 4.25602 11.3079C4.25202 11.2057 4.25 11.1031 4.25 11ZM14.4596 8.54841C15.2247 8.32525 15.9996 8.89735 15.9996 9.70049V11.1802C16.0002 11.1937 16.0002 11.2072 15.9996 11.2206V14.6669C15.9999 14.6779 16 14.6889 16 14.6999C16 14.7067 16 14.7134 15.9999 14.7201C15.9998 14.7244 15.9997 14.7287 15.9996 14.7329V14.75C15.9996 14.7732 15.998 14.7961 15.9949 14.8186C15.9623 15.2009 15.7722 15.5591 15.4555 15.8252C14.7814 16.3915 13.7186 16.3915 13.0445 15.8252C12.6952 15.5318 12.5 15.1262 12.5 14.6999C12.5 14.2736 12.6952 13.868 13.0445 13.5746C13.5807 13.1242 14.3628 13.032 14.9996 13.2982V11.8491L10.5 13.0353V15.9999C10.5 16.0255 10.4981 16.0507 10.4944 16.0753C10.46 16.4551 10.2704 16.8107 9.95548 17.0752C9.28137 17.6415 8.21862 17.6415 7.54452 17.0752C7.19517 16.7818 7 16.3762 7 15.9499C7 15.5236 7.19517 15.118 7.54452 14.8246C8.08083 14.3741 8.86312 14.282 9.5 14.5483V11C9.5 10.4228 9.88052 9.91479 10.4342 9.75241L14.4596 8.54841Z" fill="#353566"/>
</svg>
