<svg width="24" height="24" viewBox="0 0 24 24" fill="none" xmlns="http://www.w3.org/2000/svg">
<path fill-rule="evenodd" clip-rule="evenodd" d="M4.25 11C4.25 6.71979 7.71979 3.25 12 3.25C15.7587 3.25 18.8916 5.92521 19.6 9.47575C21.9971 10.169 23.75 12.3791 23.75 15C23.75 18.1756 21.1756 20.75 18 20.75H5C2.37665 20.75 0.25 18.6234 0.25 16C0.25 13.6298 1.98608 11.665 4.25602 11.3079C4.25202 11.2057 4.25 11.1031 4.25 11ZM10.3304 10.7697C10.6233 11.0626 10.6233 11.5375 10.3304 11.8304L8.6607 13.5L10.3304 15.1697C10.6233 15.4626 10.6233 15.9375 10.3304 16.2304C10.0375 16.5233 9.5626 16.5233 9.26971 16.2304L7.06971 14.0304C6.77681 13.7375 6.77681 13.2626 7.06971 12.9697L9.26971 10.7697C9.5626 10.4768 10.0375 10.4768 10.3304 10.7697ZM13.6697 10.7697C13.9626 10.4768 14.4374 10.4768 14.7303 10.7697L16.9303 12.9697C17.2232 13.2626 17.2232 13.7375 16.9303 14.0304L14.7303 16.2304C14.4374 16.5233 13.9626 16.5233 13.6697 16.2304C13.3768 15.9375 13.3768 15.4626 13.6697 15.1697L15.3394 13.5L13.6697 11.8304C13.3768 11.5375 13.3768 11.0626 13.6697 10.7697Z" fill="#353566"/>
</svg>
