<svg width="24" height="24" viewBox="0 0 24 24" fill="none" xmlns="http://www.w3.org/2000/svg">
<path d="M10.75 1.5C10.75 1.36193 10.6381 1.25 10.5 1.25H6.36821C5.62513 1.24999 5.02197 1.24999 4.53273 1.28996C4.02778 1.33121 3.57851 1.41876 3.16103 1.63148C2.50247 1.96703 1.96704 2.50247 1.63148 3.16103C1.41876 3.57851 1.33121 4.02778 1.28996 4.53273C1.24999 5.02196 1.24999 5.62512 1.25 6.36819V17.6318C1.24999 18.3749 1.24999 18.978 1.28996 19.4673C1.33121 19.9722 1.41876 20.4215 1.63148 20.839C1.96704 21.4975 2.50247 22.033 3.16104 22.3685C3.79974 22.694 4.54458 22.736 5.491 22.7469C5.69135 22.7492 5.88429 22.6712 6.0268 22.5304C6.16931 22.3895 6.24954 22.1975 6.24959 21.9972C6.24968 21.6988 6.3261 21.3964 6.48839 21.1182L7.50358 19.3779C7.6398 19.1444 7.6398 18.8556 7.50358 18.6221L6.48839 16.8818C6.0014 16.0469 6.28339 14.9754 7.11823 14.4884C7.81377 14.0827 8.67548 14.2104 9.22482 14.7492C9.5165 15.0353 9.98351 15.0353 10.2752 14.7492C10.8245 14.2104 11.6862 14.0827 12.3818 14.4884C12.4412 14.523 12.4975 14.5605 12.5508 14.6003C12.8176 14.7999 13.1841 14.7995 13.4505 14.5995C13.7429 14.3798 14.1052 14.25 14.5 14.25C15.1287 14.25 15.6807 14.581 15.9902 15.0819C16.1115 15.2781 16.3162 15.4076 16.5454 15.433C16.7746 15.4585 17.0028 15.3771 17.1641 15.2123C17.4766 14.8931 17.8547 14.6395 18.2758 14.473C18.562 14.3598 18.75 14.0833 18.75 13.7755V9.50001C18.75 9.36194 18.6381 9.25001 18.5 9.25001H13.5C11.9812 9.25001 10.75 8.01879 10.75 6.50001V1.5Z" fill="#353566"/>
<path d="M18.4921 7.74984V7.74984C18.3822 7.57045 18.2341 7.42291 18.0958 7.28502L18.0617 7.25104L12.7489 1.93829L12.715 1.90423C12.5771 1.76587 12.4295 1.61781 12.2502 1.50788V1.50788L12.25 6.50001C12.25 7.19036 12.8096 7.75001 13.5 7.75001L18.4921 7.74984Z" fill="#353566"/>
<path d="M8.64783 15.6221C8.43912 15.2643 7.97989 15.1435 7.6221 15.3522C7.26431 15.5609 7.14346 16.0201 7.35217 16.3779L8.80824 18.874C8.85365 18.9519 8.85365 19.0481 8.80824 19.126L7.35217 21.6221C7.14346 21.9799 7.26431 22.4391 7.6221 22.6478C7.97989 22.8566 8.43912 22.7357 8.64783 22.3779L9.53406 20.8587C9.63053 20.6933 9.86948 20.6933 9.96595 20.8587L10.8522 22.3779C11.0609 22.7357 11.5201 22.8566 11.8779 22.6478C12.2357 22.4391 12.3565 21.9799 12.1478 21.6221L10.6918 19.126C10.6464 19.0481 10.6464 18.9519 10.6918 18.874L12.1478 16.3779C12.3565 16.0201 12.2357 15.5609 11.8779 15.3522C11.5201 15.1435 11.0609 15.2643 10.8522 15.6221L9.96595 17.1413C9.86948 17.3067 9.63053 17.3067 9.53406 17.1413L8.64783 15.6221Z" fill="#353566"/>
<path d="M19.4528 16.75C19.0647 16.75 18.75 17.0647 18.75 17.4529C18.75 17.7554 18.9436 18.024 19.2306 18.1196L20.2438 18.4574C21.1433 18.7572 21.75 19.599 21.75 20.5472C21.75 21.7638 20.7638 22.75 19.5472 22.75H18.5C18.0858 22.75 17.75 22.4142 17.75 22C17.75 21.5858 18.0858 21.25 18.5 21.25H19.5472C19.9353 21.25 20.25 20.9353 20.25 20.5472C20.25 20.2446 20.0564 19.976 19.7694 19.8804L18.7562 19.5427C17.8567 19.2428 17.25 18.401 17.25 17.4529C17.25 16.2363 18.2362 15.25 19.4528 15.25H20.5C20.9142 15.25 21.25 15.5858 21.25 16C21.25 16.4142 20.9142 16.75 20.5 16.75H19.4528Z" fill="#353566"/>
<path d="M14.5 22.75C14.0858 22.75 13.75 22.4142 13.75 22V16C13.75 15.5858 14.0858 15.25 14.5 15.25C14.9142 15.25 15.25 15.5858 15.25 16V21C15.25 21.1381 15.3619 21.25 15.5 21.25H16C16.4142 21.25 16.75 21.5858 16.75 22C16.75 22.4142 16.4142 22.75 16 22.75H14.5Z" fill="#353566"/>
</svg>
