<svg width="24" height="24" viewBox="0 0 24 24" fill="none" xmlns="http://www.w3.org/2000/svg">
<path fill-rule="evenodd" clip-rule="evenodd" d="M12.7228 1.38663C12.75 1.4401 12.75 1.51011 12.75 1.65012V6.50001C12.75 8.01879 13.9812 9.25001 15.5 9.25001H20.35C20.49 9.25001 20.56 9.25001 20.6135 9.27726C20.6605 9.30123 20.6988 9.33947 20.7228 9.38651C20.75 9.43999 20.75 9.51 20.75 9.65001V17.632C20.75 18.3751 20.75 18.9782 20.71 19.4674C20.6688 19.9723 20.5812 20.4216 20.3685 20.8391C20.033 21.4977 19.4975 22.0331 18.839 22.3686C18.4215 22.5814 17.9722 22.6689 17.4673 22.7102C16.9781 22.7501 16.3748 22.7501 15.6318 22.7501H8.36811C7.62507 22.7501 7.02195 22.7501 6.53273 22.7102C6.02778 22.6689 5.57851 22.5814 5.16104 22.3686C4.50247 22.0331 3.96704 21.4977 3.63148 20.8391C3.41876 20.4216 3.33121 19.9723 3.28996 19.4674C3.24999 18.9782 3.24999 18.375 3.25 17.6319V6.3683C3.24999 5.62524 3.24999 5.02208 3.28996 4.53285C3.33121 4.02791 3.41876 3.57864 3.63148 3.16116C3.96704 2.50259 4.50247 1.96716 5.16103 1.6316C5.57851 1.41888 6.02778 1.33134 6.53273 1.29008C7.02196 1.25011 7.62512 1.25011 8.36819 1.25012H12.35C12.49 1.25012 12.56 1.25012 12.6135 1.27737C12.6605 1.30134 12.6988 1.33958 12.7228 1.38663ZM12.75 9.91663C12.75 9.50241 12.4142 9.16663 12 9.16663C11.5857 9.16663 11.25 9.50241 11.25 9.91663V10.3718C10.7443 10.4555 10.281 10.6297 9.89858 10.9066C9.31091 11.3322 8.95829 11.9739 8.95829 12.7415C8.95829 13.7334 9.51112 14.3554 10.144 14.7097C10.7296 15.0375 11.4231 15.1641 11.8767 15.2397C12.3398 15.3169 12.7921 15.4137 13.1232 15.5991C13.407 15.7579 13.5416 15.9387 13.5416 16.2584C13.5416 16.5253 13.4359 16.7232 13.2215 16.8784C12.9846 17.05 12.5809 17.1874 12 17.1874C11.601 17.1874 11.3587 17.1448 11.1307 17.0543C10.8851 16.957 10.6077 16.7852 10.161 16.4471C9.83082 16.197 9.36042 16.262 9.11037 16.5922C8.86032 16.9225 8.92531 17.3929 9.25554 17.6429C9.72559 17.9988 10.1356 18.2734 10.5776 18.4487C10.8018 18.5376 11.0225 18.5966 11.25 18.6337V19.0833C11.25 19.4975 11.5857 19.8333 12 19.8333C12.4142 19.8333 12.75 19.4975 12.75 19.0833V18.6281C13.2556 18.5444 13.719 18.3702 14.1013 18.0933C14.689 17.6677 15.0416 17.026 15.0416 16.2584C15.0416 15.2665 14.4888 14.6445 13.8559 14.2902C13.2704 13.9624 12.5768 13.8357 12.1233 13.7601C11.6602 13.683 11.2079 13.5862 10.8767 13.4008C10.593 13.242 10.4583 13.0612 10.4583 12.7415C10.4583 12.4746 10.564 12.2767 10.7784 12.1215C11.0153 11.9499 11.419 11.8124 12 11.8124C12.3989 11.8124 12.6413 11.8551 12.8693 11.9455C13.1148 12.0429 13.3923 12.2146 13.8389 12.5528C14.1691 12.8028 14.6395 12.7378 14.8896 12.4076C15.1396 12.0774 15.0746 11.607 14.7444 11.3569C14.2743 11.001 13.8643 10.7265 13.4223 10.5512C13.1981 10.4623 12.9774 10.4033 12.75 10.3662V9.91663Z" fill="#353566"/>
<path d="M20.0958 7.28514C20.2341 7.42303 20.3822 7.57057 20.4921 7.74996L15.5 7.75001C14.8096 7.75001 14.25 7.19036 14.25 6.50001L14.2502 1.508C14.4296 1.61794 14.5771 1.766 14.715 1.90437L14.749 1.93842L20.0617 7.25116L20.0958 7.28514Z" fill="#353566"/>
</svg>
