<svg width="24" height="24" viewBox="0 0 24 24" fill="none" xmlns="http://www.w3.org/2000/svg">
<path d="M9.75 1.65C9.75 1.50999 9.75 1.43998 9.72275 1.3865C9.69878 1.33946 9.66054 1.30122 9.6135 1.27725C9.56002 1.25 9.49001 1.25 9.35 1.25H5.36821C4.62513 1.24999 4.02197 1.24999 3.53273 1.28996C3.02778 1.33121 2.57851 1.41876 2.16103 1.63148C1.50247 1.96703 0.967035 2.50247 0.631478 3.16103C0.418762 3.57851 0.331215 4.02778 0.289959 4.53273C0.249987 5.02196 0.249993 5.6251 0.25 6.36817V17.6318C0.249993 18.3749 0.249987 18.978 0.289959 19.4673C0.331215 19.9722 0.418762 20.4215 0.631479 20.839C0.967035 21.4975 1.50247 22.033 2.16104 22.3685C2.57851 22.5812 3.02778 22.6688 3.53273 22.71C4.02195 22.75 4.62507 22.75 5.36811 22.75L12.6867 22.75C13.6911 22.7501 14.4566 22.7502 15.0554 22.6318C15.393 22.5651 15.6419 22.2771 15.659 21.9333C15.6761 21.5896 15.4571 21.2783 15.1277 21.1784C14.7243 21.0559 14.4405 20.9215 14.2153 20.7045C13.8888 20.3898 13.7426 19.9809 13.6458 19.3692C13.5959 19.0539 13.352 18.8048 13.0378 18.7483C12.43 18.639 12.0254 18.4853 11.7179 18.1543C11.0601 17.4463 11.1008 16.339 11.8089 15.6811C13.2199 14.3703 15.0512 13.5009 17.0754 13.2964C17.4585 13.2577 17.75 12.9352 17.75 12.5502V9.65001C17.75 9.51 17.75 9.43999 17.7228 9.38651C17.6988 9.33947 17.6605 9.30123 17.6135 9.27726C17.56 9.25001 17.49 9.25001 17.35 9.25001H12.5C10.9812 9.25001 9.75 8.01879 9.75 6.50001V1.65Z" fill="#353566"/>
<path d="M17.4922 7.75001V7.75001C17.3823 7.57062 17.2341 7.4229 17.0958 7.28502L17.0617 7.25104L11.7496 1.93892L11.715 1.90423C11.5771 1.76587 11.4295 1.61781 11.2502 1.50788V1.50788L11.25 6.50001C11.25 7.19036 11.8096 7.75001 12.5 7.75001H17.4922Z" fill="#353566"/>
<path d="M17.9993 15.75C16.2651 15.75 14.6885 16.4183 13.5105 17.5127C13.207 17.7946 12.7325 17.7772 12.4505 17.4737C12.1686 17.1702 12.1861 16.6957 12.4895 16.4138C13.9341 15.0717 15.8716 14.25 17.9993 14.25C20.1278 14.25 22.0659 15.0723 23.5106 16.4151C23.814 16.6971 23.8313 17.1717 23.5493 17.4751C23.2673 17.7785 22.7928 17.7958 22.4894 17.5138C21.3112 16.4187 19.7342 15.75 17.9993 15.75Z" fill="#353566"/>
<path d="M18.0032 19.0833C17.2185 19.0833 16.5008 19.4139 15.9697 19.9649C15.6823 20.2631 15.2075 20.2719 14.9092 19.9845C14.611 19.697 14.6022 19.2222 14.8897 18.924C15.6831 18.1007 16.7827 17.5833 18.0032 17.5833C19.2237 17.5833 20.3233 18.1007 21.1168 18.924C21.4042 19.2222 21.3955 19.697 21.0972 19.9845C20.799 20.2719 20.3242 20.2631 20.0367 19.9649C19.5057 19.4139 18.7879 19.0833 18.0032 19.0833Z" fill="#353566"/>
<path d="M17 21.5C17 20.9477 17.4477 20.5 18 20.5C18.5523 20.5 19.0001 20.9477 19.0001 21.5C19.0001 22.0523 18.5523 22.5 18 22.5C17.4477 22.5 17 22.0523 17 21.5Z" fill="#353566"/>
</svg>
