<svg width="24" height="24" viewBox="0 0 24 24" fill="none" xmlns="http://www.w3.org/2000/svg">
<path d="M10.75 1.5C10.75 1.36193 10.6381 1.25 10.5 1.25H6.36821C5.62513 1.24999 5.02197 1.24999 4.53273 1.28996C4.02778 1.33121 3.57851 1.41876 3.16103 1.63148C2.50247 1.96703 1.96704 2.50247 1.63148 3.16103C1.41876 3.57851 1.33121 4.02778 1.28996 4.53273C1.24999 5.02196 1.24999 5.62512 1.25 6.36819V17.6318C1.24999 18.3749 1.24999 18.978 1.28996 19.4673C1.33121 19.9722 1.41876 20.4215 1.63148 20.839C1.96704 21.4975 2.50247 22.033 3.16104 22.3685C3.57851 22.5812 4.02778 22.6688 4.53273 22.71C5.02195 22.75 5.62515 22.75 6.36819 22.75H8.5C8.91421 22.75 9.25 22.4142 9.25 22V16C9.25 15.0335 10.0335 14.25 11 14.25H13.5C13.82 14.25 14.1178 14.3352 14.3745 14.4837C14.6068 14.6181 14.8932 14.6181 15.1255 14.4837C15.3822 14.3352 15.68 14.25 16 14.25C16.4974 14.25 16.9453 14.4565 17.2648 14.7905C17.5212 15.0586 17.935 15.0989 18.2384 14.8854C18.2905 14.8488 18.3435 14.8135 18.3976 14.7797C18.6168 14.6426 18.75 14.4023 18.75 14.1438V9.50001C18.75 9.36194 18.6381 9.25001 18.5 9.25001H13.5C11.9812 9.25001 10.75 8.01879 10.75 6.50001V1.5Z" fill="#353566"/>
<path d="M18.4921 7.74984V7.74984C18.3822 7.57045 18.2341 7.42291 18.0958 7.28502L18.0617 7.25104L12.7489 1.93829L12.715 1.90423C12.5771 1.76587 12.4295 1.61781 12.2502 1.50788V1.50788L12.25 6.50001C12.25 7.19036 12.8096 7.75001 13.5 7.75001L18.4921 7.74984Z" fill="#353566"/>
<path d="M11 15.25C10.5858 15.25 10.25 15.5858 10.25 16V22C10.25 22.4142 10.5858 22.75 11 22.75C11.4142 22.75 11.75 22.4142 11.75 22V20.25C11.75 20.1119 11.8619 20 12 20H13.5C13.9142 20 14.25 19.6642 14.25 19.25C14.25 18.8358 13.9142 18.5 13.5 18.5H12C11.8619 18.5 11.75 18.3881 11.75 18.25V17C11.75 16.8619 11.8619 16.75 12 16.75H13.5C13.9142 16.75 14.25 16.4142 14.25 16C14.25 15.5858 13.9142 15.25 13.5 15.25H11Z" fill="#353566"/>
<path d="M16 15.25C16.4142 15.25 16.75 15.5858 16.75 16V22C16.75 22.4142 16.4142 22.75 16 22.75C15.5858 22.75 15.25 22.4142 15.25 22V16C15.25 15.5858 15.5858 15.25 16 15.25Z" fill="#353566"/>
<path d="M20.25 15.25C18.8693 15.25 17.75 16.3693 17.75 17.75V20.25C17.75 21.6307 18.8693 22.75 20.25 22.75C21.6307 22.75 22.75 21.6307 22.75 20.25V19.5C22.75 19.0858 22.4142 18.75 22 18.75H20.75C20.3358 18.75 20 19.0858 20 19.5C20 19.9142 20.3358 20.25 20.75 20.25H21C21.1381 20.25 21.2532 20.3637 21.2191 20.4975C21.109 20.9301 20.7169 21.25 20.25 21.25C19.6977 21.25 19.25 20.8023 19.25 20.25V17.75C19.25 17.1977 19.6977 16.75 20.25 16.75C20.6478 16.75 20.9928 16.9822 21.1541 17.3218C21.3319 17.696 21.7793 17.8552 22.1534 17.6775C22.5276 17.4997 22.6868 17.0523 22.509 16.6782C22.1086 15.8353 21.2484 15.25 20.25 15.25Z" fill="#353566"/>
</svg>
