<svg width="24" height="24" viewBox="0 0 24 24" fill="none" xmlns="http://www.w3.org/2000/svg">
<path fill-rule="evenodd" clip-rule="evenodd" d="M13.5852 1.24996C14.0615 1.24974 14.4213 1.24956 14.7684 1.33288C15.0745 1.40637 15.3671 1.52758 15.6355 1.69207C15.9398 1.87854 16.1941 2.13311 16.5307 2.47003L19.53 5.46926C19.8669 5.80585 20.1215 6.06018 20.3079 6.36447C20.4724 6.63289 20.5936 6.92552 20.6671 7.23163C20.7504 7.57865 20.7503 7.9385 20.75 8.41475L20.75 17.2321C20.75 18.0449 20.75 18.7006 20.7066 19.2315C20.662 19.7781 20.5676 20.2582 20.3413 20.7025C19.9818 21.4081 19.4081 21.9817 18.7025 22.3413C18.2582 22.5676 17.7781 22.662 17.2315 22.7066C16.7006 22.75 16.045 22.75 15.2321 22.75H8.76788C7.95505 22.75 7.29944 22.75 6.76853 22.7066C6.2219 22.662 5.74176 22.5676 5.29754 22.3413C4.59193 21.9817 4.01825 21.4081 3.65873 20.7025C3.43239 20.2582 3.33803 19.7781 3.29336 19.2315C3.24999 18.7006 3.24999 18.0449 3.25 17.2321V6.76787C3.24999 5.95504 3.24999 5.29942 3.29336 4.76852C3.33803 4.22188 3.43239 3.74174 3.65873 3.29752C4.01825 2.59191 4.59193 2.01824 5.29754 1.65871C5.74176 1.43237 6.2219 1.33801 6.76853 1.29335C7.29944 1.24997 7.95506 1.24998 8.7679 1.24999L13.5852 1.24996ZM8 15.75C7.58579 15.75 7.25 16.0858 7.25 16.5C7.25 16.9142 7.58579 17.25 8 17.25H16C16.4142 17.25 16.75 16.9142 16.75 16.5C16.75 16.0858 16.4142 15.75 16 15.75H8ZM7.25 12.5C7.25 12.0858 7.58579 11.75 8 11.75H16C16.4142 11.75 16.75 12.0858 16.75 12.5C16.75 12.9142 16.4142 13.25 16 13.25H8C7.58579 13.25 7.25 12.9142 7.25 12.5ZM8 7.75C7.58579 7.75 7.25 8.08579 7.25 8.5C7.25 8.91421 7.58579 9.25 8 9.25H12C12.4142 9.25 12.75 8.91421 12.75 8.5C12.75 8.08579 12.4142 7.75 12 7.75H8Z" fill="#353566"/>
</svg>
