<svg width="24" height="24" viewBox="0 0 24 24" fill="none" xmlns="http://www.w3.org/2000/svg">
<g clip-path="url(#clip0_9001_302017)">
<path d="M9.94692 8.83348L9.94692 10.2502H11.6251C12.0163 10.2502 12.3334 9.93303 12.3334 9.54182C12.3334 9.15061 12.0163 8.83348 11.6251 8.83348H11.4223L11.4168 8.8335L11.4112 8.83348H9.94692Z" fill="#353566"/>
<path d="M9.94692 13.1669V11.7502H12.2501C12.6413 11.7502 12.9584 12.0673 12.9584 12.4585C12.9584 12.8497 12.6413 13.1669 12.2501 13.1669H9.94692Z" fill="#353566"/>
<path fill-rule="evenodd" clip-rule="evenodd" d="M17.6108 12.4447C18.4631 12.0182 19.4859 12.0185 20.3398 12.445L20.6234 12.5868C20.8451 12.6975 21.1072 12.6916 21.3237 12.571C21.5402 12.4503 21.6831 12.2305 21.7055 11.9837C21.735 11.6595 21.75 11.3314 21.75 11C21.75 5.06294 16.9371 0.25 11 0.25C5.06294 0.25 0.25 5.06294 0.25 11C0.25 16.9371 5.06294 21.75 11 21.75C11.8092 21.75 12.5984 21.6604 13.3579 21.4904C13.5794 21.4408 13.7665 21.2936 13.8669 21.0901C13.9672 20.8865 13.9699 20.6484 13.8743 20.4426C13.3575 19.33 13.075 18.1049 13.075 16.845C13.075 16.1189 13.1437 15.5498 13.3198 15.1088C13.4842 14.6974 13.7503 14.3763 14.2186 14.1408L17.6108 12.4447ZM9.7501 6.0835C10.1643 6.0835 10.5001 6.41928 10.5001 6.8335V7.33348H10.6668V6.83353C10.6668 6.41932 11.0026 6.08353 11.4168 6.08353C11.831 6.08353 12.1668 6.41932 12.1668 6.83353V7.4004C13.1245 7.64192 13.8334 8.50908 13.8334 9.54182C13.8334 9.94942 13.723 10.3312 13.5304 10.659C14.0921 11.0593 14.4584 11.7161 14.4584 12.4585C14.4584 12.74 14.4058 13.0091 14.3098 13.2567L13.882 13.4706C13.3232 13.7513 12.9556 14.141 12.7187 14.617C12.5677 14.6497 12.4109 14.6669 12.2501 14.6669H12.1668V15.1668C12.1668 15.5811 11.831 15.9168 11.4168 15.9168C11.0026 15.9168 10.6668 15.5811 10.6668 15.1668V14.6669H10.5001V15.1668C10.5001 15.5811 10.1643 15.9168 9.7501 15.9168C9.33589 15.9168 9.0001 15.5811 9.0001 15.1668V14.6669H8.29177C7.87755 14.6669 7.54177 14.3311 7.54177 13.9169C7.54177 13.5026 7.87755 13.1669 8.29177 13.1669H8.44692L8.44692 8.83348H8.29175C7.87753 8.83348 7.54175 8.49769 7.54175 8.08348C7.54175 7.66926 7.87753 7.33348 8.29175 7.33348H9.0001L9.0001 6.8335C9.0001 6.41928 9.33589 6.0835 9.7501 6.0835Z" fill="#353566"/>
<path d="M19.6976 13.569C19.1814 13.3109 18.5739 13.311 18.0578 13.5691L14.7866 15.2051C14.4856 15.3557 14.2954 15.6633 14.2953 15.9998C14.2947 17.2958 14.3772 18.5404 14.9064 19.7499C15.6339 21.4125 16.9763 22.6919 18.6187 23.4086C18.7838 23.4806 18.9715 23.4806 19.1366 23.4086C20.7796 22.6916 22.1223 21.4106 22.8497 19.7478C23.3784 18.5394 23.4614 17.2959 23.462 16.0011C23.4621 15.6639 23.2716 15.3555 22.97 15.2047L19.6976 13.569Z" fill="#353566"/>
</g>
<defs>
<clipPath id="clip0_9001_302017">
<rect width="24" height="24" fill="white"/>
</clipPath>
</defs>
</svg>
