<svg width="24" height="24" viewBox="0 0 24 24" fill="none" xmlns="http://www.w3.org/2000/svg">
<g clip-path="url(#clip0_9001_302182)">
<path fill-rule="evenodd" clip-rule="evenodd" d="M0.25 11C0.25 5.06294 5.06294 0.25 11 0.25C16.9371 0.25 21.75 5.06294 21.75 11C21.75 11.9703 21.6213 12.9116 21.3795 13.8074C21.3261 14.0054 21.194 14.1728 21.0139 14.2708C20.8338 14.3688 20.6215 14.3888 20.4263 14.3261C19.807 14.1274 19.1587 14.025 18.5 14.025C15.9091 14.025 13.4359 15.615 12.3017 18.5119C12.0661 19.1137 12.0661 19.7863 12.3017 20.3881C12.3396 20.485 12.3791 20.5804 12.4199 20.6743C12.517 20.8974 12.4999 21.1536 12.374 21.3618C12.2481 21.5699 12.029 21.7041 11.7864 21.7216C11.5266 21.7404 11.2643 21.75 11 21.75C5.06294 21.75 0.25 16.9371 0.25 11ZM10.5312 5.31019C10.7402 4.95221 11.2575 4.95215 11.4666 5.31008L14.4959 10.4948C14.6473 10.7539 14.5592 11.0867 14.2994 11.2369L11.2702 12.9891C11.1024 13.0862 10.8955 13.0862 10.7277 12.9891L7.69997 11.2369C7.44033 11.0866 7.35225 10.754 7.50353 10.4949L10.5312 5.31019ZM7.77319 12.218C7.67378 12.1605 7.56495 12.2769 7.629 12.3722L10.5493 16.7188C10.7639 17.0382 11.2338 17.0382 11.4485 16.7189L14.3706 12.372C14.4347 12.2766 14.3259 12.1602 14.2265 12.2178L11.2023 13.9671C11.0764 14.0399 10.9212 14.0399 10.7954 13.967L7.77319 12.218Z" fill="#353566"/>
<path d="M18.4199 18.0033C17.6821 18.0033 17.0866 18.5988 17.0866 19.3366C17.0866 20.0744 17.6821 20.6699 18.4199 20.6699C19.1578 20.6699 19.7533 20.0744 19.7533 19.3366C19.7533 18.5988 19.1578 18.0033 18.4199 18.0033Z" fill="#353566"/>
<path fill-rule="evenodd" clip-rule="evenodd" d="M18.4199 15.1699C20.4608 15.1699 22.4649 16.4162 23.4063 18.8208C23.5356 19.1511 23.5356 19.5221 23.4063 19.8524C22.4649 22.2569 20.4608 23.5033 18.4199 23.5033C16.3791 23.5033 14.375 22.2569 13.4336 19.8524C13.3043 19.5221 13.3043 19.1511 13.4336 18.8208C14.375 16.4162 16.3791 15.1699 18.4199 15.1699ZM18.4199 17.0033C17.1298 17.0033 16.0866 18.0465 16.0866 19.3366C16.0866 20.6267 17.1298 21.6699 18.4199 21.6699C19.7101 21.6699 20.7533 20.6267 20.7533 19.3366C20.7533 18.0465 19.7101 17.0033 18.4199 17.0033Z" fill="#353566"/>
</g>
<defs>
<clipPath id="clip0_9001_302182">
<rect width="24" height="24" fill="white"/>
</clipPath>
</defs>
</svg>
