<svg width="24" height="24" viewBox="0 0 24 24" fill="none" xmlns="http://www.w3.org/2000/svg">
<g clip-path="url(#clip0_9001_302132)">
<path fill-rule="evenodd" clip-rule="evenodd" d="M11 0.25C5.06294 0.25 0.25 5.06294 0.25 11C0.25 16.9371 5.06294 21.75 11 21.75C11.1146 21.75 11.2288 21.7482 11.3425 21.7446C11.581 21.7372 11.8017 21.6167 11.9369 21.4201C12.0722 21.2235 12.1058 20.9743 12.0275 20.7489C11.7831 20.0454 11.65 19.2891 11.65 18.5C11.65 14.7168 14.7168 11.65 18.5 11.65C19.2891 11.65 20.0454 11.7831 20.7489 12.0275C20.9743 12.1058 21.2235 12.0722 21.4201 11.9369C21.6167 11.8017 21.7372 11.581 21.7446 11.3425C21.7482 11.2288 21.75 11.1146 21.75 11C21.75 5.06294 16.9371 0.25 11 0.25ZM10.5313 5.31027C10.7403 4.95229 11.2576 4.95223 11.4667 5.31016L14.496 10.4949C14.6474 10.754 14.5593 11.0867 14.2995 11.237L11.2703 12.9892C11.1025 13.0863 10.8955 13.0863 10.7277 12.9892L7.70005 11.237C7.44041 11.0867 7.35234 10.7541 7.50361 10.495L10.5313 5.31027ZM7.77327 12.2181C7.67387 12.1606 7.56503 12.277 7.62908 12.3723L10.5494 16.7188C10.6689 16.8967 10.8675 16.9755 11.0572 16.9553C11.4598 15.0049 12.6098 13.3277 14.1946 12.2363L11.2024 13.9672C11.0765 14.04 10.9213 14.0399 10.7955 13.9671L7.77327 12.2181Z" fill="#353566"/>
<path fill-rule="evenodd" clip-rule="evenodd" d="M18.42 13.0867C21.3655 13.0867 23.7533 15.4745 23.7533 18.42C23.7533 21.3655 21.3655 23.7533 18.42 23.7533C15.4744 23.7533 13.0866 21.3655 13.0866 18.42C13.0866 15.4745 15.4744 13.0867 18.42 13.0867ZM22.2533 18.42C22.2533 16.3029 20.5371 14.5867 18.42 14.5867C17.6326 14.5867 16.9006 14.8241 16.2918 15.2312L21.6088 20.5482C22.0159 19.9393 22.2533 19.2074 22.2533 18.42ZM20.5481 21.6088C19.9393 22.0159 19.2074 22.2533 18.42 22.2533C16.3029 22.2533 14.5866 20.5371 14.5866 18.42C14.5866 17.6326 14.824 16.9007 15.2312 16.2919L20.5481 21.6088Z" fill="#353566"/>
</g>
<defs>
<clipPath id="clip0_9001_302132">
<rect width="24" height="24" fill="white"/>
</clipPath>
</defs>
</svg>
