<svg width="24" height="24" viewBox="0 0 24 24" fill="none" xmlns="http://www.w3.org/2000/svg">
<g clip-path="url(#clip0_9001_301487)">
<path fill-rule="evenodd" clip-rule="evenodd" d="M17.6108 12.4447C18.4631 12.0182 19.4859 12.0185 20.3398 12.445L20.6234 12.5868C20.8451 12.6975 21.1072 12.6916 21.3237 12.571C21.5402 12.4503 21.6831 12.2305 21.7055 11.9837C21.735 11.6595 21.75 11.3314 21.75 11C21.75 5.06294 16.9371 0.25 11 0.25C5.06294 0.25 0.25 5.06294 0.25 11C0.25 16.9371 5.06294 21.75 11 21.75C11.8092 21.75 12.5984 21.6604 13.3579 21.4904C13.5794 21.4408 13.7665 21.2936 13.8669 21.0901C13.9672 20.8865 13.9699 20.6484 13.8743 20.4426C13.3575 19.33 13.075 18.1049 13.075 16.845C13.075 16.1189 13.1437 15.5498 13.3198 15.1088C13.4842 14.6974 13.7503 14.3763 14.2186 14.1408L17.6108 12.4447ZM11.75 6.83337C11.75 6.41916 11.4142 6.08337 11 6.08337C10.5858 6.08337 10.25 6.41916 10.25 6.83337V7.1898C9.80379 7.27075 9.39276 7.42964 9.04966 7.67813C8.49845 8.07734 8.16667 8.68086 8.16667 9.40144C8.16667 10.3337 8.68824 10.9193 9.27949 11.2502C9.82335 11.5547 10.4648 11.6712 10.8767 11.7398C11.2981 11.8101 11.6984 11.8967 11.9878 12.0587C12.2299 12.1942 12.3333 12.3386 12.3333 12.5986C12.3333 12.8185 12.2485 12.9782 12.0705 13.1071C11.8701 13.2522 11.5185 13.375 11 13.375C10.6427 13.375 10.4316 13.3369 10.2349 13.2588C10.0206 13.1738 9.77437 13.0224 9.36942 12.7158C9.0392 12.4657 8.56879 12.5307 8.31874 12.861C8.06869 13.1912 8.13369 13.6616 8.46391 13.9116C8.8923 14.236 9.27108 14.4902 9.6818 14.6532C9.8718 14.7285 10.059 14.7807 10.25 14.8154V15.1667C10.25 15.5809 10.5858 15.9167 11 15.9167C11.4142 15.9167 11.75 15.5809 11.75 15.1667V14.8103C12.1962 14.7293 12.6072 14.5704 12.9503 14.3219C13.5016 13.9227 13.8333 13.3192 13.8333 12.5986C13.8333 11.6663 13.3118 11.0808 12.7205 10.7498C12.1767 10.4454 11.5352 10.3289 11.1233 10.2602C10.7019 10.19 10.3017 10.1034 10.0122 9.94134C9.77009 9.80582 9.66667 9.66148 9.66667 9.40144C9.66667 9.18155 9.75155 9.02186 9.92951 8.89298C10.1299 8.74783 10.4815 8.62503 11 8.62503C11.3573 8.62503 11.5684 8.66317 11.7652 8.74121C11.9794 8.82619 12.2256 8.97761 12.6306 9.28423C12.9608 9.53428 13.4312 9.46929 13.6813 9.13906C13.9313 8.80883 13.8663 8.33843 13.5361 8.08838C13.1077 7.764 12.7289 7.50978 12.3182 7.34687C12.1282 7.27152 11.941 7.21936 11.75 7.18465V6.83337Z" fill="#353566"/>
<path d="M19.6976 13.5691C19.1814 13.3111 18.5739 13.3111 18.0578 13.5692L14.7866 15.2052C14.4856 15.3558 14.2954 15.6634 14.2953 15.9999C14.2947 17.2959 14.3772 18.5405 14.9064 19.75C15.6339 21.4127 16.9763 22.692 18.6187 23.4087C18.7838 23.4808 18.9715 23.4808 19.1366 23.4087C20.7796 22.6918 22.1223 21.4107 22.8497 19.7479C23.3784 18.5395 23.4614 17.296 23.462 16.0012C23.4621 15.664 23.2716 15.3556 22.97 15.2049L19.6976 13.5691Z" fill="#353566"/>
</g>
<defs>
<clipPath id="clip0_9001_301487">
<rect width="24" height="24" fill="white"/>
</clipPath>
</defs>
</svg>
