<svg width="24" height="24" viewBox="0 0 24 24" fill="none" xmlns="http://www.w3.org/2000/svg">
<path d="M16.4664 7.53357C16.1735 7.24067 16.1735 6.7658 16.4664 6.47291L18.4361 4.50324L16.4664 2.53357C16.1735 2.24068 16.1735 1.76581 16.4664 1.47291C16.7593 1.18002 17.2342 1.18002 17.5271 1.47291L19.4968 3.44257L21.4664 1.4729C21.7593 1.18001 22.2342 1.18001 22.5271 1.47291C22.82 1.7658 22.82 2.24067 22.5271 2.53357L20.5574 4.50323L22.5271 6.47291C22.82 6.76581 22.82 7.24068 22.5271 7.53357C22.2342 7.82647 21.7593 7.82647 21.4664 7.53357L19.4968 5.5639L17.5271 7.53357C17.2342 7.82646 16.7593 7.82646 16.4664 7.53357Z" fill="#353566"/>
<path fill-rule="evenodd" clip-rule="evenodd" d="M0.25 13C0.25 7.06294 5.06294 2.25 11 2.25C11.684 2.25 12.3538 2.31398 13.0034 2.43648C13.212 2.47582 13.3942 2.60171 13.5047 2.78292C13.6152 2.96414 13.6438 3.18372 13.5833 3.38719C13.4317 3.89735 13.35 4.43847 13.35 5C13.35 8.12041 15.8796 10.65 19 10.65C19.5615 10.65 20.1026 10.5683 20.6128 10.4167C20.8163 10.3562 21.0359 10.3848 21.2171 10.4953C21.3983 10.6058 21.5242 10.788 21.5635 10.9966C21.686 11.6462 21.75 12.316 21.75 13C21.75 18.9371 16.9371 23.75 11 23.75C5.06294 23.75 0.25 18.9371 0.25 13ZM11.75 8.83337C11.75 8.41915 11.4142 8.08337 11 8.08337C10.5858 8.08337 10.25 8.41915 10.25 8.83337V9.18979C9.80379 9.27074 9.39276 9.42964 9.04966 9.67812C8.49845 10.0773 8.16667 10.6808 8.16667 11.4014C8.16667 12.3337 8.68824 12.9192 9.27949 13.2502C9.82335 13.5547 10.4648 13.6712 10.8767 13.7398C11.2981 13.8101 11.6984 13.8967 11.9878 14.0587C12.2299 14.1942 12.3333 14.3386 12.3333 14.5986C12.3333 14.8185 12.2485 14.9782 12.0705 15.1071C11.8701 15.2522 11.5185 15.375 11 15.375C10.6427 15.375 10.4316 15.3369 10.2349 15.2588C10.0206 15.1738 9.77437 15.0224 9.36942 14.7158C9.0392 14.4657 8.56879 14.5307 8.31874 14.8609C8.06869 15.1912 8.13369 15.6616 8.46391 15.9116C8.8923 16.236 9.27108 16.4902 9.6818 16.6531C9.8718 16.7285 10.059 16.7807 10.25 16.8154V17.1667C10.25 17.5809 10.5858 17.9167 11 17.9167C11.4142 17.9167 11.75 17.5809 11.75 17.1667V16.8102C12.1962 16.7293 12.6072 16.5704 12.9503 16.3219C13.5016 15.9227 13.8333 15.3192 13.8333 14.5986C13.8333 13.6663 13.3118 13.0808 12.7205 12.7498C12.1767 12.4454 11.5352 12.3289 11.1233 12.2602C10.7019 12.19 10.3017 12.1034 10.0122 11.9413C9.77009 11.8058 9.66667 11.6615 9.66667 11.4014C9.66667 11.1815 9.75155 11.0219 9.92951 10.893C10.1299 10.7478 10.4815 10.625 11 10.625C11.3573 10.625 11.5684 10.6632 11.7652 10.7412C11.9794 10.8262 12.2256 10.9776 12.6306 11.2842C12.9608 11.5343 13.4312 11.4693 13.6813 11.1391C13.9313 10.8088 13.8663 10.3384 13.5361 10.0884C13.1077 9.76399 12.7289 9.50977 12.3182 9.34686C12.1282 9.27151 11.941 9.21935 11.75 9.18464V8.83337Z" fill="#353566"/>
</svg>
