<svg width="24" height="24" viewBox="0 0 24 24" fill="none" xmlns="http://www.w3.org/2000/svg">
<g clip-path="url(#clip0_9001_302087)">
<path fill-rule="evenodd" clip-rule="evenodd" d="M11 0.25C5.06294 0.25 0.25 5.06294 0.25 11C0.25 16.9371 5.06294 21.75 11 21.75C11.1146 21.75 11.2288 21.7482 11.3425 21.7446C11.581 21.7372 11.8017 21.6167 11.9369 21.4201C12.0722 21.2235 12.1058 20.9743 12.0275 20.7489C11.7831 20.0454 11.65 19.2891 11.65 18.5C11.65 14.7168 14.7168 11.65 18.5 11.65C19.2891 11.65 20.0454 11.7831 20.7489 12.0275C20.9743 12.1058 21.2235 12.0722 21.4201 11.9369C21.6167 11.8017 21.7372 11.581 21.7446 11.3425C21.7482 11.2288 21.75 11.1146 21.75 11C21.75 5.06294 16.9371 0.25 11 0.25ZM10.5312 5.31027C10.7402 4.95229 11.2575 4.95223 11.4666 5.31016L14.4959 10.4949C14.6473 10.754 14.5592 11.0867 14.2994 11.237L11.2702 12.9892C11.1024 13.0863 10.8955 13.0863 10.7277 12.9892L7.69997 11.237C7.44033 11.0867 7.35225 10.7541 7.50353 10.495L10.5312 5.31027ZM7.77319 12.2181C7.67378 12.1606 7.56495 12.277 7.629 12.3723L10.5493 16.7188C10.6688 16.8967 10.8674 16.9755 11.0571 16.9553C11.4597 15.0049 12.6098 13.3277 14.1945 12.2363L11.2023 13.9672C11.0764 14.04 10.9212 14.0399 10.7954 13.9671L7.77319 12.2181Z" fill="#353566"/>
<path fill-rule="evenodd" clip-rule="evenodd" d="M13.0866 18.42C13.0866 15.4745 15.4744 13.0867 18.4199 13.0867C21.3655 13.0867 23.7533 15.4745 23.7533 18.42C23.7533 21.3655 21.3655 23.7533 18.4199 23.7533C15.4744 23.7533 13.0866 21.3655 13.0866 18.42ZM20.237 20.2369C19.9929 20.481 19.5972 20.481 19.3531 20.2369L18.42 19.3038L17.4869 20.2369C17.2428 20.481 16.8471 20.481 16.603 20.2369C16.3589 19.9929 16.3589 19.5971 16.603 19.3531L17.5361 18.42L16.6031 17.4869C16.359 17.2429 16.359 16.8471 16.603 16.6031C16.8471 16.359 17.2428 16.359 17.4869 16.6031L18.42 17.5361L19.353 16.6031C19.5971 16.359 19.9928 16.359 20.2369 16.6031C20.481 16.8471 20.481 17.2429 20.2369 17.4869L19.3039 18.42L20.237 19.3531C20.4811 19.5971 20.4811 19.9929 20.237 20.2369Z" fill="#353566"/>
</g>
<defs>
<clipPath id="clip0_9001_302087">
<rect width="24" height="24" fill="white"/>
</clipPath>
</defs>
</svg>
