<svg width="24" height="24" viewBox="0 0 24 24" fill="none" xmlns="http://www.w3.org/2000/svg">
<g clip-path="url(#clip0_9001_302102)">
<path fill-rule="evenodd" clip-rule="evenodd" d="M11 0.25C5.06294 0.25 0.25 5.06294 0.25 11C0.25 16.9371 5.06294 21.75 11 21.75C11.1146 21.75 11.2288 21.7482 11.3425 21.7446C11.581 21.7372 11.8017 21.6167 11.9369 21.4201C12.0722 21.2235 12.1058 20.9743 12.0275 20.7489C11.7831 20.0454 11.65 19.2891 11.65 18.5C11.65 14.7168 14.7168 11.65 18.5 11.65C19.2891 11.65 20.0454 11.7831 20.7489 12.0275C20.9743 12.1058 21.2235 12.0722 21.4201 11.9369C21.6167 11.8017 21.7372 11.581 21.7446 11.3425C21.7482 11.2288 21.75 11.1146 21.75 11C21.75 5.06294 16.9371 0.25 11 0.25ZM10.5312 5.31027C10.7402 4.95229 11.2575 4.95223 11.4666 5.31016L14.4959 10.4949C14.6473 10.754 14.5592 11.0867 14.2994 11.237L11.2702 12.9892C11.1024 13.0863 10.8955 13.0863 10.7277 12.9892L7.69997 11.237C7.44033 11.0867 7.35225 10.7541 7.50353 10.495L10.5312 5.31027ZM7.77319 12.2181C7.67378 12.1606 7.56495 12.277 7.629 12.3723L10.5493 16.7188C10.6688 16.8967 10.8674 16.9755 11.0571 16.9553C11.4597 15.0049 12.6098 13.3277 14.1945 12.2363L11.2023 13.9672C11.0764 14.04 10.9212 14.0399 10.7954 13.9671L7.77319 12.2181Z" fill="#353566"/>
<path fill-rule="evenodd" clip-rule="evenodd" d="M13.0865 18.42C13.0865 15.4745 15.4744 13.0867 18.4199 13.0867C21.3654 13.0867 23.7532 15.4745 23.7532 18.42C23.7532 21.3655 21.3654 23.7533 18.4199 23.7533C15.4744 23.7533 13.0865 21.3655 13.0865 18.42ZM16.1446 18.4036C15.9005 18.1596 15.9005 17.7638 16.1446 17.5197L17.978 15.6864C18.0952 15.5692 18.2541 15.5033 18.4199 15.5033C18.5857 15.5033 18.7446 15.5692 18.8618 15.6864L20.6952 17.5197C20.9392 17.7638 20.9392 18.1595 20.6952 18.4036C20.4511 18.6477 20.0554 18.6477 19.8113 18.4036L19.0449 17.6372V20.7117C19.0449 21.0569 18.7651 21.3367 18.4199 21.3367C18.0747 21.3367 17.7949 21.0569 17.7949 20.7117V17.6372L17.0285 18.4036C16.7844 18.6477 16.3887 18.6477 16.1446 18.4036Z" fill="#353566"/>
</g>
<defs>
<clipPath id="clip0_9001_302102">
<rect width="24" height="24" fill="white"/>
</clipPath>
</defs>
</svg>
