<svg width="24" height="24" viewBox="0 0 24 24" fill="none" xmlns="http://www.w3.org/2000/svg">
<g clip-path="url(#clip0_9001_301782)">
<path fill-rule="evenodd" clip-rule="evenodd" d="M11 0.249878C5.06294 0.249878 0.25 5.06282 0.25 10.9999C0.25 16.9369 5.06294 21.7499 11 21.7499C11.1146 21.7499 11.2288 21.7481 11.3425 21.7445C11.581 21.737 11.8017 21.6165 11.9369 21.4199C12.0722 21.2234 12.1058 20.9742 12.0275 20.7488C11.7831 20.0453 11.65 19.2889 11.65 18.4999C11.65 14.7167 14.7168 11.6499 18.5 11.6499C19.2891 11.6499 20.0454 11.783 20.7489 12.0274C20.9743 12.1057 21.2235 12.0721 21.4201 11.9368C21.6167 11.8016 21.7372 11.5809 21.7446 11.3424C21.7482 11.2286 21.75 11.1144 21.75 10.9999C21.75 5.06282 16.9371 0.249878 11 0.249878ZM9.53633 6.48519C10.3343 6.094 11.2223 5.98342 12.083 6.17518C12.9419 6.36653 13.7153 6.84555 14.314 7.52992C14.5867 7.84168 14.5551 8.3155 14.2433 8.58823C13.9316 8.86096 13.4577 8.82932 13.185 8.51756C12.7791 8.05352 12.2795 7.75573 11.7568 7.63928C11.236 7.52324 10.6953 7.58755 10.1966 7.83205C9.71488 8.06822 9.28361 8.46771 8.96517 8.99993H11.2495C11.6637 8.99993 11.9995 9.33572 11.9995 9.74993C11.9995 10.1641 11.6637 10.4999 11.2495 10.4999H8.45914C8.43892 10.6645 8.42859 10.8315 8.42859 10.9999C8.42859 11.1683 8.43892 11.3354 8.45914 11.4999H11.2495C11.6637 11.4999 11.9995 11.8357 11.9995 12.2499C11.9995 12.6641 11.6637 12.9999 11.2495 12.9999H8.96517C9.28361 13.5322 9.71488 13.9317 10.1966 14.1678C10.6953 14.4123 11.236 14.4766 11.7568 14.3606C11.9179 14.3247 12.0767 14.2716 12.2313 14.2018C11.8692 14.7288 11.5719 15.3038 11.3508 15.9153C10.7285 15.9317 10.1092 15.7955 9.53633 15.5147C8.74084 15.1247 8.08044 14.479 7.62372 13.6772C7.50012 13.4601 7.39249 13.2336 7.30124 12.9999H6.24996C5.83575 12.9999 5.49996 12.6641 5.49996 12.2499C5.49996 11.8357 5.83575 11.4999 6.24996 11.4999H6.95092C6.93607 11.3341 6.92859 11.1672 6.92859 10.9999C6.92859 10.8326 6.93607 10.6657 6.95092 10.4999H6.24996C5.83575 10.4999 5.49996 10.1641 5.49996 9.74993C5.49996 9.33572 5.83575 8.99993 6.24996 8.99993H7.30124C7.39249 8.76623 7.50012 8.53972 7.62372 8.32271C8.08044 7.52084 8.74084 6.87517 9.53633 6.48519Z" fill="#353566"/>
<path fill-rule="evenodd" clip-rule="evenodd" d="M13.0865 18.4199C13.0865 15.4744 15.4744 13.0865 18.4199 13.0865C21.3654 13.0865 23.7532 15.4744 23.7532 18.4199C23.7532 21.3654 21.3654 23.7532 18.4199 23.7532C15.4744 23.7532 13.0865 21.3654 13.0865 18.4199ZM20.2532 19.0449C20.5984 19.0449 20.8782 18.7651 20.8782 18.4199C20.8782 18.0747 20.5984 17.7949 20.2532 17.7949H16.5865C16.2414 17.7949 15.9615 18.0747 15.9615 18.4199C15.9615 18.7651 16.2414 19.0449 16.5865 19.0449H20.2532Z" fill="#353566"/>
</g>
<defs>
<clipPath id="clip0_9001_301782">
<rect width="24" height="24" fill="white"/>
</clipPath>
</defs>
</svg>
