<svg width="24" height="24" viewBox="0 0 24 24" fill="none" xmlns="http://www.w3.org/2000/svg">
<g clip-path="url(#clip0_9001_301777)">
<path fill-rule="evenodd" clip-rule="evenodd" d="M11 0.249878C5.06294 0.249878 0.25 5.06282 0.25 10.9999C0.25 16.9369 5.06294 21.7499 11 21.7499C11.5378 21.7499 12.0667 21.7103 12.5841 21.6339C12.8069 21.601 13.0031 21.4697 13.1185 21.2763C13.2339 21.0829 13.2563 20.8479 13.1795 20.6362C12.9847 20.0993 13.0702 19.5051 13.3736 18.7943C13.4539 18.6062 13.4539 18.3934 13.3736 18.2053C13.019 17.3748 12.9547 16.6953 13.3208 16.0622L13.9114 15.0407C14.2777 14.407 14.9009 14.1214 15.8006 14.0113C16.0027 13.9866 16.186 13.8808 16.3085 13.7182C16.8523 12.9965 17.4109 12.5999 18.1469 12.5999H19.3281C19.7697 12.5999 20.1299 12.7397 20.4574 12.9836C20.6701 13.1419 20.9506 13.1761 21.1951 13.0737C21.4396 12.9712 21.6119 12.7473 21.6482 12.4847C21.7153 11.999 21.75 11.5033 21.75 10.9999C21.75 5.06282 16.9371 0.249878 11 0.249878ZM9.53637 6.48519C10.3343 6.094 11.2224 5.98341 12.0831 6.17517C12.942 6.36653 13.7153 6.84555 14.314 7.52992C14.5867 7.84168 14.5551 8.31549 14.2434 8.58822C13.9316 8.86095 13.4578 8.82932 13.185 8.51756C12.7791 8.05352 12.2795 7.75572 11.7569 7.63928C11.236 7.52323 10.6954 7.58755 10.1966 7.83205C9.71492 8.06821 9.28365 8.46771 8.96521 8.99993H11.2495C11.6637 8.99993 11.9995 9.33572 11.9995 9.74993C11.9995 10.1641 11.6637 10.4999 11.2495 10.4999H8.45918C8.43896 10.6645 8.42863 10.8315 8.42863 10.9999C8.42863 11.1683 8.43896 11.3354 8.45918 11.4999H11.2495C11.6637 11.4999 11.9995 11.8357 11.9995 12.2499C11.9995 12.6641 11.6637 12.9999 11.2495 12.9999H8.96521C9.28365 13.5322 9.71492 13.9316 10.1966 14.1678C10.6954 14.4123 11.236 14.4766 11.7569 14.3606C12.2795 14.2441 12.7791 13.9463 13.185 13.4823C13.4578 13.1705 13.9316 13.1389 14.2434 13.4116C14.3116 13.4713 14.3664 13.5406 14.4075 13.6158C13.9466 13.8345 13.5508 14.1659 13.2621 14.6653L12.7038 15.631C12.503 15.7123 12.2957 15.7773 12.0831 15.8247C11.2224 16.0164 10.3343 15.9059 9.53637 15.5147C8.74088 15.1247 8.08048 14.479 7.62376 13.6771C7.50016 13.4601 7.39253 13.2336 7.30129 12.9999H6.25C5.83579 12.9999 5.5 12.6641 5.5 12.2499C5.5 11.8357 5.83579 11.4999 6.25 11.4999H6.95097C6.93611 11.3341 6.92863 11.1672 6.92863 10.9999C6.92863 10.8326 6.93611 10.6657 6.95097 10.4999H6.25C5.83579 10.4999 5.5 10.1641 5.5 9.74993C5.5 9.33572 5.83579 8.99993 6.25 8.99993H7.30129C7.39253 8.76622 7.50016 8.53972 7.62376 8.32271C8.08048 7.52084 8.74088 6.87517 9.53637 6.48519Z" fill="#353566"/>
<path fill-rule="evenodd" clip-rule="evenodd" d="M14.2043 20.3331C13.9191 19.8383 14.0882 19.2053 14.5826 18.9194C14.9663 18.6974 14.9663 18.1422 14.5826 17.9202C14.0882 17.6343 13.9191 17.0014 14.2043 16.5065L14.7724 15.5208C15.0577 15.0258 15.69 14.8558 16.1846 15.1419C16.5675 15.3634 17.0474 15.087 17.0474 14.6424C17.0474 14.0711 17.5098 13.6074 18.081 13.6074H19.2172C19.7884 13.6074 20.2508 14.0712 20.2508 14.6424C20.2508 15.087 20.7307 15.3634 21.1136 15.142C21.6082 14.8559 22.2405 15.0258 22.5258 15.5209L23.0939 16.5066C23.3791 17.0014 23.21 17.6343 22.7156 17.9203C22.3319 18.1422 22.3319 18.6974 22.7156 18.9193C23.21 19.2053 23.3791 19.8382 23.0939 20.333L22.5258 21.3187C22.2405 21.8138 21.6082 21.9837 21.1136 21.6977C20.7307 21.4762 20.2508 21.7526 20.2508 22.1972C20.2508 22.7685 19.7884 23.2324 19.2172 23.2324H18.081C17.5098 23.2324 17.0474 22.7685 17.0474 22.1973C17.0474 21.7527 16.5675 21.4762 16.1846 21.6977C15.69 21.9838 15.0577 21.8138 14.7724 21.3188L14.2043 20.3331ZM18.6491 19.7949C19.4085 19.7949 20.0241 19.1793 20.0241 18.4199C20.0241 17.6605 19.4085 17.0449 18.6491 17.0449C17.8897 17.0449 17.2741 17.6605 17.2741 18.4199C17.2741 19.1793 17.8897 19.7949 18.6491 19.7949Z" fill="#353566"/>
</g>
<defs>
<clipPath id="clip0_9001_301777">
<rect width="24" height="24" fill="white"/>
</clipPath>
</defs>
</svg>
