<svg width="24" height="24" viewBox="0 0 24 24" fill="none" xmlns="http://www.w3.org/2000/svg">
<path fill-rule="evenodd" clip-rule="evenodd" d="M8.367 0.25H15.633C16.7251 0.249995 17.5907 0.249991 18.2883 0.306988C19.0017 0.365275 19.6053 0.486883 20.1565 0.76772C21.0502 1.22312 21.7769 1.94978 22.2323 2.84355C22.5131 3.39472 22.6347 3.99834 22.693 4.71173C22.75 5.40935 22.75 6.27484 22.75 7.36698V13.633C22.75 14.7252 22.75 15.5906 22.693 16.2883C22.6347 17.0017 22.5131 17.6053 22.2323 18.1565C21.7769 19.0502 21.0502 19.7769 20.1565 20.2323C19.6053 20.5131 19.0017 20.6347 18.2883 20.693C17.5906 20.75 16.7252 20.75 15.633 20.75L14.9061 20.75L13.9501 22.2146C13.742 22.5334 13.5585 22.8145 13.3901 23.0275C13.2162 23.2473 12.9935 23.4815 12.6766 23.6144C12.2438 23.7959 11.7562 23.7959 11.3234 23.6144C11.0065 23.4815 10.7838 23.2473 10.6099 23.0275C10.4414 22.8145 10.2581 22.5335 10.05 22.2146L9.09392 20.75L8.36698 20.75C7.27484 20.75 6.40935 20.75 5.71173 20.693C4.99835 20.6347 4.39472 20.5131 3.84355 20.2323C2.94978 19.7769 2.22312 19.0502 1.76772 18.1565C1.48688 17.6053 1.36527 17.0017 1.30699 16.2883C1.24999 15.5907 1.24999 14.7252 1.25 13.633V7.367C1.24999 6.27486 1.24999 5.40935 1.30699 4.71173C1.36527 3.99835 1.48688 3.39472 1.76772 2.84355C2.22312 1.94978 2.94978 1.22312 3.84355 0.76772C4.39472 0.486883 4.99834 0.365275 5.71173 0.306988C6.40935 0.249991 7.27487 0.249995 8.367 0.25ZM13.4671 4.85671C12.4682 4.63417 11.4373 4.76225 10.5097 5.21701C9.58451 5.67056 8.81342 6.42304 8.27886 7.36159C8.11744 7.64499 7.97922 7.94238 7.86491 8.25001H6.5C6.08579 8.25001 5.75 8.5858 5.75 9.00001C5.75 9.41422 6.08579 9.75001 6.5 9.75001H7.50726C7.47876 9.99806 7.46435 10.2486 7.46435 10.5C7.46435 10.7514 7.47876 11.002 7.50726 11.25H6.5C6.08579 11.25 5.75 11.5858 5.75 12C5.75 12.4142 6.08579 12.75 6.5 12.75H7.86491C7.97922 13.0576 8.11744 13.355 8.27886 13.6384C8.81342 14.577 9.58451 15.3295 10.5097 15.783C11.4373 16.2378 12.4682 16.3659 13.4671 16.1433C14.4641 15.9212 15.3648 15.3645 16.0639 14.5653C16.3366 14.2535 16.305 13.7797 15.9933 13.507C15.6815 13.2342 15.2077 13.2659 14.935 13.5776C14.4285 14.1565 13.8017 14.532 13.1409 14.6792C12.4819 14.826 11.7984 14.7442 11.17 14.4362C10.5391 14.1269 9.98182 13.5976 9.58227 12.8961C9.55488 12.848 9.52835 12.7993 9.50269 12.75H12.4994C12.9137 12.75 13.2494 12.4142 13.2494 12C13.2494 11.5858 12.9137 11.25 12.4994 11.25H9.0201C8.98324 11.0041 8.96435 10.7532 8.96435 10.5C8.96435 10.2468 8.98324 9.99593 9.0201 9.75001H12.4994C12.9137 9.75001 13.2494 9.41423 13.2494 9.00001C13.2494 8.5858 12.9137 8.25001 12.4994 8.25001H9.50269C9.52835 8.20073 9.55488 8.15204 9.58227 8.10397C9.98182 7.40246 10.5391 6.87314 11.17 6.56387C11.7984 6.2558 12.4819 6.17399 13.1409 6.32082C13.8017 6.46804 14.4285 6.84352 14.935 7.4224C15.2077 7.73416 15.6815 7.7658 15.9933 7.49307C16.305 7.22034 16.3366 6.74652 16.0639 6.43476C15.3648 5.63555 14.4641 5.07885 13.4671 4.85671Z" fill="#353566"/>
</svg>
