<svg width="24" height="24" viewBox="0 0 24 24" fill="none" xmlns="http://www.w3.org/2000/svg">
<path d="M1.5 8.47438C1.5 5.20946 3.70396 2.5 6.89333 2.5C8.7073 2.5 9.90462 3.47766 10.618 4.32255C10.713 4.43508 10.8527 4.5 11 4.5C11.1473 4.5 11.287 4.43508 11.382 4.32255C12.0954 3.47766 13.2927 2.5 15.1067 2.5C18.296 2.5 20.5 5.20946 20.5 8.47438C20.5 8.65048 20.4943 8.82488 20.4833 8.99756C20.4656 9.27313 20.6747 9.51084 20.9503 9.52848C21.2259 9.54613 21.4636 9.33703 21.4812 9.06145C21.4936 8.86765 21.5 8.67195 21.5 8.47438C21.5 4.79054 18.9729 1.5 15.1067 1.5C13.1987 1.5 11.8582 2.3934 11 3.25953C10.1418 2.3934 8.80129 1.5 6.89333 1.5C3.02715 1.5 0.5 4.79054 0.5 8.47438C0.5 12.1964 2.74864 15.2028 5.1044 17.3072C7.4609 19.4122 10.0191 20.7001 10.8419 20.9743C10.9445 21.0086 11.0555 21.0086 11.1581 20.9743C11.2933 20.9293 11.4645 20.861 11.6616 20.7734C11.9139 20.6612 12.0275 20.3657 11.9153 20.1133C11.8031 19.861 11.5076 19.7474 11.2553 19.8596C11.1578 19.9029 11.0724 19.9388 10.9998 19.9674C10.1563 19.6348 7.88795 18.4528 5.7706 16.5614C3.50136 14.5343 1.5 11.7779 1.5 8.47438Z" fill="#353566"/>
<path fill-rule="evenodd" clip-rule="evenodd" d="M14.5 15C13.3954 15 12.5 15.8954 12.5 17C12.5 18.1046 13.3954 19 14.5 19C15.0174 19 15.4888 18.8036 15.8439 18.4812L19.509 20.3138C19.5034 20.3751 19.5005 20.4372 19.5005 20.5C19.5005 21.6046 20.3959 22.5 21.5005 22.5C22.6051 22.5 23.5005 21.6046 23.5005 20.5C23.5005 19.3954 22.6051 18.5 21.5005 18.5C20.8165 18.5 20.2126 18.8434 19.852 19.3672L16.3957 17.6391C16.4633 17.4384 16.5 17.2235 16.5 17C16.5 16.7765 16.4633 16.5616 16.3957 16.3609L19.852 14.6328C20.2126 15.1566 20.8165 15.5 21.5005 15.5C22.6051 15.5 23.5005 14.6046 23.5005 13.5C23.5005 12.3954 22.6051 11.5 21.5005 11.5C20.3959 11.5 19.5005 12.3954 19.5005 13.5C19.5005 13.5628 19.5034 13.6249 19.509 13.6862L15.8439 15.5188C15.4888 15.1964 15.0174 15 14.5 15ZM13.5 17C13.5 16.4477 13.9477 16 14.5 16C15.0523 16 15.5 16.4477 15.5 17C15.5 17.5523 15.0523 18 14.5 18C13.9477 18 13.5 17.5523 13.5 17ZM21.5005 12.5C20.9482 12.5 20.5005 12.9477 20.5005 13.5C20.5005 14.0523 20.9482 14.5 21.5005 14.5C22.0528 14.5 22.5005 14.0523 22.5005 13.5C22.5005 12.9477 22.0528 12.5 21.5005 12.5ZM20.5005 20.5C20.5005 19.9477 20.9482 19.5 21.5005 19.5C22.0528 19.5 22.5005 19.9477 22.5005 20.5C22.5005 21.0523 22.0528 21.5 21.5005 21.5C20.9482 21.5 20.5005 21.0523 20.5005 20.5Z" fill="#353566"/>
</svg>
