<svg width="24" height="24" viewBox="0 0 24 24" fill="none" xmlns="http://www.w3.org/2000/svg">
<path d="M6.89333 2.5C3.70396 2.5 1.5 5.20946 1.5 8.47438C1.5 11.6721 3.37487 14.3574 5.55558 16.3664C7.73291 18.3722 10.1379 19.6309 11.0174 19.9742C11.2746 20.0746 11.4017 20.3645 11.3013 20.6218C11.2009 20.879 10.911 21.0062 10.6537 20.9057C9.66389 20.5193 7.15114 19.196 4.87802 17.1018C2.60826 15.0108 0.5 12.0781 0.5 8.47438C0.5 4.79054 3.02715 1.5 6.89333 1.5C8.80129 1.5 10.1418 2.3934 11 3.25953C11.8582 2.3934 13.1987 1.5 15.1067 1.5C18.9729 1.5 21.5 4.79054 21.5 8.47438C21.5 8.66136 21.4943 8.84667 21.4832 9.03026C21.4665 9.3059 21.2295 9.51581 20.9538 9.4991C20.6782 9.4824 20.4683 9.24541 20.485 8.96977C20.4949 8.80617 20.5 8.64104 20.5 8.47438C20.5 5.20946 18.296 2.5 15.1067 2.5C13.2927 2.5 12.0954 3.47766 11.382 4.32255C11.287 4.43508 11.1473 4.5 11 4.5C10.8527 4.5 10.713 4.43508 10.618 4.32255C9.90462 3.47766 8.7073 2.5 6.89333 2.5Z" fill="#353566"/>
<path fill-rule="evenodd" clip-rule="evenodd" d="M15.8479 14.6281C16.1578 13.7906 17.3422 13.7906 17.6521 14.6281L17.9505 15.4345C18.2274 16.1827 18.8173 16.7726 19.5655 17.0495L20.3719 17.3479C21.2094 17.6578 21.2094 18.8422 20.3719 19.1521L19.5655 19.4505C18.8173 19.7274 18.2274 20.3173 17.9505 21.0655L17.6521 21.8719C17.3422 22.7094 16.1578 22.7094 15.8479 21.8719L15.5495 21.0655C15.2726 20.3173 14.6827 19.7274 13.9345 19.4505L13.1281 19.1521C12.2906 18.8422 12.2906 17.6578 13.1281 17.3479L13.9345 17.0495C14.6827 16.7726 15.2726 16.1827 15.5495 15.4345L15.8479 14.6281ZM16.75 15.0717L16.4873 15.7816C16.1092 16.8035 15.3035 17.6092 14.2816 17.9873L13.5717 18.25L14.2816 18.5127C15.3035 18.8908 16.1092 19.6965 16.4873 20.7184L16.75 21.4283L17.0127 20.7184C17.3908 19.6965 18.1965 18.8908 19.2184 18.5127L19.9283 18.25L19.2184 17.9873C18.1965 17.6092 17.3908 16.8035 17.0127 15.7816L16.75 15.0717Z" fill="#353566"/>
<path d="M21.1269 12.0883C21.0833 11.9706 20.9167 11.9706 20.8731 12.0883L20.6789 12.6133C20.4962 13.107 20.107 13.4962 19.6133 13.6789L19.0883 13.8731C18.9706 13.9167 18.9706 14.0833 19.0883 14.1269L19.6133 14.3211C20.107 14.5038 20.4962 14.893 20.6789 15.3867L20.8731 15.9117C20.9167 16.0294 21.0833 16.0294 21.1269 15.9117L21.3211 15.3867C21.5038 14.893 21.893 14.5038 22.3867 14.3211L22.9117 14.1269C23.0294 14.0833 23.0294 13.9167 22.9117 13.8731L22.3867 13.6789C21.893 13.4962 21.5038 13.107 21.3211 12.6133L21.1269 12.0883Z" fill="#353566"/>
</svg>
