<svg width="24" height="24" viewBox="0 0 24 24" fill="none" xmlns="http://www.w3.org/2000/svg">
<path fill-rule="evenodd" clip-rule="evenodd" d="M18.2452 14.0386C19.9928 13.017 21.6952 11.4677 22.3016 9.20429C22.9853 6.65277 21.8485 3.87329 19.1363 3.14656C17.8769 2.80912 16.8271 3.0869 16.0686 3.48831C15.6125 2.76143 14.8422 1.99597 13.5829 1.65853C10.8707 0.931802 8.49641 2.77048 7.81274 5.322C7.56521 6.24579 7.53554 7.15924 7.65508 8.03529C6.97405 7.86516 6.17765 7.8311 5.28823 8.06942C2.2353 8.88745 0.947611 12.0179 1.72121 14.9051C2.50271 17.8217 4.89318 19.697 7.15965 20.8406C9.42699 21.9846 11.6837 22.4544 12.3916 22.4969L12.558 22.5069L12.697 22.415C13.2888 22.0243 15.0083 20.4891 16.3999 18.3646C17.2144 17.1211 17.9403 15.639 18.2452 14.0386ZM13.324 2.62445C11.2656 2.0729 9.35391 3.43396 8.77866 5.58082C8.51884 6.55049 8.5391 7.51947 8.74505 8.45545C8.76387 8.46543 8.78252 8.47548 8.80102 8.48559C9.31023 7.65 10.1843 6.75751 11.635 6.36881C12.0777 6.25017 12.5126 6.19222 12.935 6.18865C15.4252 6.16758 17.4805 8.03669 18.142 10.5051C18.3465 11.2685 18.4199 12.0252 18.3919 12.7645C19.7472 11.8416 20.8938 10.5945 21.3357 8.94547C21.9109 6.7986 20.9359 4.66404 18.8775 4.11249C17.6971 3.7962 16.7677 4.17952 16.167 4.59745L15.6808 4.93566L15.4289 4.39969C15.1176 3.73738 14.5044 2.94074 13.324 2.62445ZM17.2768 11.2004C17.737 13.5659 16.8139 15.9075 15.5634 17.8167C14.3457 19.6756 12.8756 21.0345 12.2834 21.4823C11.5467 21.3906 9.59413 20.9488 7.61012 19.9478C5.44723 18.8565 3.36033 17.1586 2.68714 14.6462C2.02196 12.1638 3.14787 9.6782 5.54705 9.03535C6.55323 8.76574 7.40333 8.93289 8.06056 9.23225L8.1 9.25074C8.32517 9.35631 8.52724 9.47699 8.70398 9.59995L9.19013 9.93816L9.44209 9.40219C9.80387 8.63247 10.5186 7.70322 11.8938 7.33473C12.2429 7.24119 12.5882 7.19492 12.9254 7.19178C14.9055 7.17339 16.6076 8.64271 17.176 10.7639C17.215 10.9095 17.2485 11.055 17.2768 11.2004Z" fill="#353566"/>
</svg>
