<svg width="24" height="24" viewBox="0 0 24 24" fill="none" xmlns="http://www.w3.org/2000/svg">
<path d="M1.5 8.47438C1.5 5.20946 3.70396 2.5 6.89333 2.5C8.7073 2.5 9.90462 3.47766 10.618 4.32255C10.713 4.43508 10.8527 4.5 11 4.5C11.1473 4.5 11.287 4.43508 11.382 4.32255C12.0954 3.47766 13.2927 2.5 15.1067 2.5C18.296 2.5 20.5 5.20946 20.5 8.47438C20.5 8.85957 20.4729 9.23671 20.4215 9.60569C20.3834 9.87919 20.5743 10.1318 20.8478 10.1699C21.1213 10.2079 21.3739 10.0171 21.412 9.74358C21.4696 9.32987 21.5 8.90665 21.5 8.47438C21.5 4.79054 18.9729 1.5 15.1067 1.5C13.1987 1.5 11.8582 2.3934 11 3.25953C10.1418 2.3934 8.80129 1.5 6.89333 1.5C3.02715 1.5 0.5 4.79054 0.5 8.47438C0.5 12.1964 2.74864 15.2028 5.1044 17.3072C7.4609 19.4122 10.0191 20.7001 10.8419 20.9743C10.9445 21.0086 11.0555 21.0086 11.1581 20.9743C11.4278 20.8844 11.8582 20.6958 12.3833 20.424C12.6286 20.297 12.7245 19.9953 12.5975 19.7501C12.4705 19.5048 12.1688 19.409 11.9236 19.5359C11.53 19.7397 11.214 19.8828 10.9998 19.9675C10.1563 19.6348 7.88797 18.4528 5.7706 16.5614C3.50136 14.5343 1.5 11.7779 1.5 8.47438Z" fill="#353566"/>
<path fill-rule="evenodd" clip-rule="evenodd" d="M19.3934 11.7081C18.8303 11.4267 18.1676 11.4267 17.6045 11.7083L14.036 13.493C13.7076 13.6573 13.5002 13.9928 13.5 14.36C13.4993 15.7737 13.5894 17.1315 14.1667 18.451C14.9568 20.2568 16.4181 21.6575 18.2165 22.4423C18.3966 22.5209 18.6013 22.5209 18.7815 22.4423C20.5804 21.6573 22.042 20.2548 22.8321 18.4487C23.4088 17.1304 23.4993 15.7739 23.5 14.3614C23.5002 13.9935 23.2924 13.6571 22.9633 13.4926L19.3934 11.7081ZM18.0518 12.6027C18.3334 12.4619 18.6647 12.4619 18.9463 12.6026L22.5 14.379C22.4994 15.6465 22.4342 16.8633 21.916 18.0479C21.2465 19.5782 20.0268 20.8009 18.499 21.4744C16.9715 20.8018 15.7521 19.5797 15.0828 18.0502C14.5642 16.8648 14.4994 15.6473 14.5 14.3791L18.0518 12.6027Z" fill="#353566"/>
</svg>
