<svg width="24" height="24" viewBox="0 0 24 24" fill="none" xmlns="http://www.w3.org/2000/svg">
<path fill-rule="evenodd" clip-rule="evenodd" d="M10.9007 11.2657C10.5371 10.5114 9.46282 10.5114 9.0992 11.2657L8.27045 12.985L6.37112 13.2328C5.53416 13.342 5.20065 14.3751 5.81574 14.9531L7.19847 16.2524L6.85038 18.1133C6.69593 18.9389 7.56663 19.5755 8.30656 19.178L9.99997 18.2682L11.6934 19.178C12.4333 19.5755 13.304 18.9389 13.1496 18.1133L12.8015 16.2524L14.1842 14.9531C14.7993 14.3751 14.4658 13.342 13.6288 13.2328L11.7295 12.985L10.9007 11.2657ZM9.14775 13.4679L9.99997 11.7L10.8522 13.4679C10.9841 13.7416 11.2452 13.9302 11.5464 13.9695L13.4993 14.2244L12.0768 15.5611C11.8532 15.7713 11.752 16.0808 11.8085 16.3825L12.1666 18.2971L10.4259 17.3619C10.1599 17.2189 9.84001 17.2189 9.57403 17.3619L7.83334 18.2971L8.19148 16.3825C8.2479 16.0808 8.14676 15.7713 7.92315 15.5611L6.50059 14.2244L8.4535 13.9695C8.75475 13.9302 9.01583 13.7416 9.14775 13.4679Z" fill="#353566"/>
<path fill-rule="evenodd" clip-rule="evenodd" d="M10.5763 1.83041L18.8924 3.29676C19.7012 3.43937 20.3383 3.55172 20.8437 3.68402C21.3593 3.819 21.7805 3.98481 22.1418 4.25708C22.7321 4.7019 23.1664 5.32217 23.3825 6.029C23.5147 6.46164 23.5265 6.91414 23.477 7.44478C23.4285 7.96491 23.3161 8.60204 23.1735 9.41081L22.4018 13.7878C22.2592 14.5965 22.1468 15.2337 22.0145 15.739C21.8795 16.2546 21.7137 16.6758 21.4415 17.0371C21.1358 17.4428 20.7472 17.7748 20.3046 18.0129C20.1032 18.1213 19.8906 18.2102 19.6695 18.2778C19.6117 18.2955 19.5535 18.311 19.4948 18.3246C19.4895 18.656 19.4788 18.9495 19.4575 19.2111C19.4141 19.7423 19.3239 20.1859 19.1185 20.589C18.783 21.2475 18.2475 21.783 17.589 22.1185C17.1859 22.3239 16.7423 22.4141 16.2111 22.4575C15.6905 22.5 15.0435 22.5 14.2223 22.5H5.77778C4.95656 22.5 4.30952 22.5 3.78889 22.4575C3.25771 22.4141 2.81413 22.3239 2.41103 22.1185C1.75247 21.783 1.21703 21.2475 0.881477 20.589C0.676087 20.1859 0.585932 19.7423 0.542533 19.2111C0.499994 18.6905 0.499997 18.0435 0.5 17.2222V12.7778C0.499997 11.9565 0.499994 11.3095 0.542533 10.7889C0.585932 10.2577 0.676087 9.81413 0.881477 9.41103C1.21703 8.75247 1.75247 8.21703 2.41103 7.88148C2.81413 7.67609 3.25771 7.58593 3.78889 7.54253C4.30954 7.49999 4.95651 7.5 5.77777 7.5H14.2222C15.0435 7.5 15.6905 7.49999 16.2111 7.54253C16.7423 7.58593 17.1859 7.67609 17.589 7.88148C18.2475 8.21703 18.783 8.75247 19.1185 9.41103C19.3239 9.81413 19.4141 10.2577 19.4575 10.7889C19.5 11.3095 19.5 11.9565 19.5 12.7778V17.2805C19.6141 17.239 19.7246 17.1894 19.8308 17.1323C20.1469 16.9622 20.4245 16.7251 20.6428 16.4353C20.804 16.2214 20.9278 15.9413 21.0471 15.4858C21.1679 15.0246 21.2735 14.4277 21.4208 13.5922L22.1849 9.25908C22.3322 8.42364 22.4371 7.8266 22.4813 7.3519C22.5251 6.88304 22.5045 6.57749 22.4262 6.32137C22.2718 5.81649 21.9616 5.37344 21.5399 5.05571C21.3261 4.89453 21.046 4.77068 20.5904 4.65142C20.1292 4.53067 19.5323 4.42503 18.6969 4.27772L10.4245 2.81907C9.58905 2.67176 8.99202 2.56688 8.51732 2.5226C8.04846 2.47887 7.74291 2.49946 7.48679 2.57776C6.98191 2.73212 6.53886 3.04235 6.22113 3.46399C5.98603 3.77597 5.83871 4.21416 5.66392 5.09711C5.61029 5.368 5.34723 5.54412 5.07634 5.4905C4.80545 5.43687 4.62933 5.17381 4.68295 4.90292C4.85775 4.01994 5.0363 3.37467 5.42249 2.86217C5.86731 2.27188 6.48759 1.83756 7.19442 1.62146C7.62706 1.48918 8.07955 1.47743 8.6102 1.52692C9.13033 1.57544 9.76748 1.68779 10.5763 1.83041ZM3.87032 8.53921C3.40099 8.57756 3.10366 8.65089 2.86502 8.77248C2.39462 9.01217 2.01217 9.39462 1.77248 9.86502C1.65089 10.1037 1.57756 10.401 1.53921 10.8703C1.50039 11.3455 1.5 11.9517 1.5 12.8V17.2C1.5 18.0483 1.50039 18.6545 1.53921 19.1297C1.57756 19.599 1.65089 19.8963 1.77248 20.135C2.01217 20.6054 2.39462 20.9878 2.86502 21.2275C3.10366 21.3491 3.40099 21.4224 3.87032 21.4608C4.34549 21.4996 4.95167 21.5 5.8 21.5H14.2C15.0483 21.5 15.6545 21.4996 16.1297 21.4608C16.599 21.4224 16.8963 21.3491 17.135 21.2275C17.6054 20.9878 17.9878 20.6054 18.2275 20.135C18.3491 19.8963 18.4224 19.599 18.4608 19.1297C18.4996 18.6545 18.5 18.0483 18.5 17.2V12.8C18.5 11.9517 18.4996 11.3455 18.4608 10.8703C18.4224 10.401 18.3491 10.1037 18.2275 9.86502C17.9878 9.39462 17.6054 9.01217 17.135 8.77248C16.8963 8.65089 16.599 8.57756 16.1297 8.53921C15.6545 8.50039 15.0483 8.5 14.2 8.5H5.8C4.95167 8.5 4.34549 8.50039 3.87032 8.53921Z" fill="#353566"/>
</svg>
