<svg width="24" height="24" viewBox="0 0 24 24" fill="none" xmlns="http://www.w3.org/2000/svg">
<g clip-path="url(#clip0_9001_274722)">
<path opacity="0.4" d="M1 7.4V11.7658C1 13.8497 1 14.8917 1.37876 15.699C1.77545 16.5445 2.45549 17.2246 3.301 17.6212C4.10828 18 5.15026 18 7.23421 18C7.67611 18 7.89707 18 8.09831 18.0573C8.30986 18.1174 8.50559 18.2234 8.67162 18.3677C8.82957 18.5049 8.95034 18.6899 9.19188 19.06L9.66017 19.7774C10.107 20.4619 10.3303 20.8041 10.6133 20.9227C10.8607 21.0264 11.1393 21.0264 11.3867 20.9227C11.6097 20.8292 11.7957 20.5968 12.0832 20.1675L11.9289 20.0101C11.3569 19.4266 11.3666 18.4606 11.9502 17.8887L13.9502 15.9287C14.3853 15.5023 15.0164 15.3925 15.5538 15.6052L16.9047 16.1398C17.0156 16.1836 17.1399 16.1214 17.1713 16.0064L17.5531 14.6046C17.7668 13.82 18.5707 13.3465 19.3638 13.5448C19.8923 13.6769 20.2865 14.0739 20.4362 14.5656L20.6386 15.2301C20.6563 15.2882 20.6992 15.3347 20.7549 15.3573C21 14.5914 21 13.5684 21 11.7658V7.4C21 5.15979 21 4.03969 20.564 3.18404C20.1805 2.43139 19.5686 1.81947 18.816 1.43597C17.9603 1 16.8402 1 14.6 1H7.4C5.15979 1 4.03969 1 3.18404 1.43597C2.43139 1.81947 1.81947 2.43139 1.43597 3.18404C1 4.03969 1 5.15979 1 7.4Z" fill="#353566"/>
<path d="M7.37737 0.499756C6.27642 0.499753 5.41948 0.499751 4.73209 0.555913C4.03416 0.612936 3.4671 0.730339 2.95704 0.990227C2.11031 1.42166 1.4219 2.11007 0.990471 2.9568C0.730584 3.46686 0.613181 4.03392 0.556157 4.73185C0.499996 5.41924 0.499998 6.27617 0.5 7.37712V11.7866C0.499998 12.8108 0.499996 13.608 0.548787 14.2489C0.598312 14.8994 0.700224 15.4297 0.926101 15.9111C1.37238 16.8623 2.13743 17.6274 3.08863 18.0737C3.57006 18.2995 4.10037 18.4014 4.7509 18.451C5.39177 18.4998 6.18892 18.4998 7.21304 18.4998H7.23421C7.70536 18.4998 7.84317 18.5043 7.96148 18.5379C8.10252 18.5781 8.233 18.6487 8.3437 18.7449C8.43655 18.8255 8.51566 18.9385 8.77319 19.333L9.25433 20.0701C9.46674 20.3956 9.64472 20.6682 9.80601 20.8722C9.97092 21.0807 10.1616 21.2753 10.42 21.3836C10.791 21.5392 11.209 21.5392 11.58 21.3836C11.8384 21.2753 12.0291 21.0807 12.194 20.8722C12.2716 20.774 12.3531 20.6599 12.4405 20.5317L11.9289 20.0099C11.8579 19.9374 11.7958 19.859 11.7427 19.7762C11.607 19.9818 11.5023 20.1347 11.4097 20.2518C11.2804 20.4152 11.2179 20.4511 11.1933 20.4614C11.0697 20.5132 10.9303 20.5132 10.8067 20.4614C10.7821 20.4511 10.7196 20.4152 10.5903 20.2518C10.4607 20.088 10.3075 19.8542 10.0789 19.5038L9.57665 18.7344C9.36834 18.4149 9.21124 18.1739 8.99955 17.99C8.77817 17.7976 8.5172 17.6563 8.23513 17.5761C7.9654 17.4994 7.67773 17.4995 7.2963 17.4997L7.23421 17.4998C6.18457 17.4998 5.42532 17.4994 4.82681 17.4539C4.23354 17.4087 3.83922 17.3212 3.51338 17.1683C2.77356 16.8212 2.17852 16.2262 1.83141 15.4864C1.67853 15.1605 1.59107 14.7662 1.5459 14.1729C1.50034 13.5744 1.5 12.8152 1.5 11.7656V7.39976C1.5 6.2714 1.50039 5.4552 1.55284 4.81328C1.60481 4.17719 1.70539 3.75638 1.88148 3.41079C2.21703 2.75222 2.75247 2.21679 3.41103 1.88123C3.75662 1.70515 4.17744 1.60456 4.81352 1.55259C5.45545 1.50014 6.27164 1.49976 7.4 1.49976H14.6C15.7284 1.49976 16.5446 1.50014 17.1865 1.55259C17.8226 1.60456 18.2434 1.70515 18.589 1.88123C19.2475 2.21679 19.783 2.75222 20.1185 3.41079C20.2946 3.75638 20.3952 4.17719 20.4472 4.81328C20.4996 5.4552 20.5 6.2714 20.5 7.39976V11.7656C20.5 12.8152 20.4997 13.5744 20.4541 14.1729C20.4448 14.2956 20.4336 14.4098 20.4205 14.5166C20.426 14.5327 20.4312 14.549 20.4362 14.5654L20.6386 15.2299C20.658 15.2938 20.7081 15.3437 20.772 15.3631L21.2332 15.5026C21.3517 15.1298 21.4153 14.721 21.4512 14.2489C21.5 13.608 21.5 12.8108 21.5 11.7867V7.37711C21.5 6.27622 21.5 5.41921 21.4438 4.73185C21.3868 4.03392 21.2694 3.46686 21.0095 2.9568C20.5781 2.11007 19.8897 1.42166 19.043 0.990227C18.5329 0.730339 17.9658 0.612936 17.2679 0.555913C16.5805 0.499751 15.7236 0.499753 14.6226 0.499756H7.37737Z" fill="#353566"/>
<path d="M6.5 7.99976L15.5 7.99976C15.7761 7.99976 16 7.7759 16 7.49976C16 7.22361 15.7761 6.99976 15.5 6.99976H6.5C6.22386 6.99976 6 7.22361 6 7.49976C6 7.7759 6.22386 7.99976 6.5 7.99976Z" fill="#353566"/>
<path d="M6.5 11.9998L11.5 11.9998C11.7761 11.9998 12 11.7759 12 11.4998C12 11.2236 11.7761 10.9998 11.5 10.9998L6.5 10.9998C6.22386 10.9998 6 11.2236 6 11.4998C6 11.7759 6.22386 11.9998 6.5 11.9998Z" fill="#353566"/>
<path d="M15.35 17.3569C15.5472 17.1636 15.5504 16.847 15.3571 16.6498C15.1638 16.4526 14.8473 16.4494 14.65 16.6426L12.65 18.6026C12.5553 18.6955 12.5014 18.8221 12.5 18.9548C12.4987 19.0874 12.5501 19.2151 12.643 19.3098L14.6429 21.3498C14.8362 21.547 15.1528 21.5501 15.35 21.3568C15.5472 21.1635 15.5503 20.8469 15.357 20.6497L13.7071 18.9668L15.35 17.3569Z" fill="#353566"/>
<path d="M20.6427 16.65C20.8359 16.4527 21.1525 16.4493 21.3498 16.6425L23.3498 18.6005C23.4446 18.6933 23.4986 18.8199 23.5 18.9525C23.5014 19.0851 23.45 19.2129 23.3572 19.3076L21.3572 21.3496C21.164 21.5469 20.8474 21.5502 20.6501 21.357C20.4529 21.1637 20.4496 20.8472 20.6428 20.6499L22.2929 18.9652L20.6502 17.357C20.4529 17.1639 20.4495 16.8473 20.6427 16.65Z" fill="#353566"/>
<path d="M19.4851 15.1211C19.552 14.8532 19.3892 14.5818 19.1213 14.5148C18.8534 14.4478 18.5819 14.6107 18.5149 14.8786L16.5149 22.8786C16.448 23.1465 16.6108 23.418 16.8787 23.4849C17.1466 23.5519 17.4181 23.389 17.4851 23.1211L19.4851 15.1211Z" fill="#353566"/>
</g>
<defs>
<clipPath id="clip0_9001_274722">
<rect width="24" height="24" fill="white"/>
</clipPath>
</defs>
</svg>
