<svg width="24" height="24" viewBox="0 0 24 24" fill="none" xmlns="http://www.w3.org/2000/svg">
<path opacity="0.4" fill-rule="evenodd" clip-rule="evenodd" d="M2 8.4V12.7658C2 14.8497 2 15.8917 2.37876 16.699C2.77545 17.5445 3.45549 18.2246 4.301 18.6212C5.10828 19 6.15026 19 8.23421 19C8.67611 19 8.89707 19 9.09831 19.0573C9.30986 19.1174 9.50559 19.2234 9.67162 19.3677C9.82957 19.5049 9.95034 19.6899 10.1919 20.06L10.6602 20.7774C11.107 21.4619 11.3303 21.8041 11.6133 21.9227C11.8607 22.0264 12.1393 22.0264 12.3867 21.9227C12.6697 21.8041 12.893 21.4619 13.3398 20.7774L13.8081 20.06C14.0497 19.6899 14.1704 19.5049 14.3284 19.3677C14.4944 19.2234 14.6901 19.1174 14.9017 19.0573C15.1029 19 15.3239 19 15.7658 19C17.8497 19 18.8917 19 19.699 18.6212C20.5445 18.2246 21.2246 17.5445 21.6212 16.699C22 15.8917 22 14.8497 22 12.7658V8.4C22 6.15979 22 5.03969 21.564 4.18404C21.1805 3.43139 20.5686 2.81947 19.816 2.43597C18.9603 2 17.8402 2 15.6 2H8.4C6.15979 2 5.03969 2 4.18404 2.43597C3.43139 2.81947 2.81947 3.43139 2.43597 4.18404C2 5.03969 2 6.15979 2 8.4ZM16.0125 7.4623C15.7702 7.04181 15.2335 6.89774 14.8137 7.14051C14.2287 7.4789 13.4973 7.05592 13.4973 6.37915C13.4973 5.89361 13.1044 5.5 12.6197 5.5H11.3802C10.8956 5.5 10.5027 5.8936 10.5027 6.37913C10.5027 7.05589 9.77133 7.47885 9.18629 7.14047C8.76654 6.89769 8.22979 7.04175 7.98744 7.46225L7.36772 8.53755C7.12538 8.95806 7.2692 9.49576 7.68896 9.73854C8.27403 10.0769 8.27403 10.9229 7.68896 11.2613C7.2692 11.5041 7.12538 12.0418 7.36772 12.4623L7.98744 13.5376C8.22979 13.9581 8.76652 14.1022 9.18627 13.8594C9.77133 13.521 10.5027 13.944 10.5027 14.6208C10.5027 15.1064 10.8956 15.5 11.3803 15.5H12.6197C13.1044 15.5 13.4973 15.1063 13.4973 14.6208C13.4973 13.944 14.2287 13.521 14.8137 13.8594C15.2335 14.1021 15.7702 13.9581 16.0125 13.5376L16.6323 12.4622C16.8746 12.0417 16.7308 11.5041 16.3111 11.2613C15.726 10.9229 15.726 10.077 16.3111 9.73858C16.7308 9.49581 16.8746 8.95813 16.6323 8.53764L16.0125 7.4623Z" fill="#353566"/>
<path fill-rule="evenodd" clip-rule="evenodd" d="M12 8.75C11.0335 8.75 10.25 9.5335 10.25 10.5C10.25 11.4665 11.0335 12.25 12 12.25C12.9665 12.25 13.75 11.4665 13.75 10.5C13.75 9.5335 12.9665 8.75 12 8.75ZM11.25 10.5C11.25 10.0858 11.5858 9.75 12 9.75C12.4142 9.75 12.75 10.0858 12.75 10.5C12.75 10.9142 12.4142 11.25 12 11.25C11.5858 11.25 11.25 10.9142 11.25 10.5Z" fill="#353566"/>
<path fill-rule="evenodd" clip-rule="evenodd" d="M6.93453 12.712C6.55465 12.0529 6.77973 11.2096 7.43863 10.8285C7.69082 10.6827 7.69082 10.3172 7.43863 10.1714C6.77973 9.79027 6.55465 8.94702 6.93453 8.28789L7.55425 7.21259C7.93442 6.55293 8.77723 6.32626 9.43663 6.70765C9.68703 6.85248 10.0027 6.67233 10.0027 6.37913C10.0027 5.6183 10.6186 5 11.3802 5H12.6197C13.3814 5 13.9973 5.61831 13.9973 6.37915C13.9973 6.67238 14.313 6.85252 14.5634 6.70769C15.2228 6.3263 16.0656 6.55299 16.4458 7.21264L17.0655 8.28798C17.4454 8.94709 17.2203 9.79031 16.5614 10.1714C16.3092 10.3172 16.3092 10.6826 16.5614 10.8285C17.2203 11.2096 17.4454 12.0528 17.0655 12.7119L16.4458 13.7872C16.0656 14.4469 15.2228 14.6736 14.5634 14.2922C14.313 14.1474 13.9973 14.3275 13.9973 14.6208C13.9973 15.3816 13.3814 16 12.6197 16H11.3803C10.6186 16 10.0027 15.3817 10.0027 14.6208C10.0027 14.3275 9.687 14.1474 9.43661 14.2922C8.7772 14.6736 7.93442 14.4469 7.55425 13.7873L6.93453 12.712ZM7.9393 11.6942C7.75868 11.7986 7.69612 12.0308 7.80094 12.2127L8.42066 13.288C8.52517 13.4693 8.75586 13.5308 8.93594 13.4266C9.85569 12.8946 11.0027 13.5605 11.0027 14.6208C11.0027 14.8311 11.1726 15 11.3803 15H12.6197C12.8274 15 12.9973 14.8311 12.9973 14.6208C12.9973 13.5605 14.1443 12.8946 15.0641 13.4265C15.2441 13.5307 15.4748 13.4693 15.5793 13.2879L16.1991 12.2126C16.3039 12.0307 16.2413 11.7986 16.0607 11.6941C15.1428 11.1632 15.1428 9.83668 16.0607 9.30576C16.2413 9.2013 16.3039 8.96917 16.1991 8.78731L15.5793 7.71197C15.4748 7.53063 15.2441 7.46917 15.0641 7.57333C14.1443 8.10528 12.9973 7.43946 12.9973 6.37915C12.9973 6.16891 12.8274 6 12.6197 6L11.3802 6C11.1726 6 11.0027 6.1689 11.0027 6.37913C11.0027 7.43945 9.85564 8.10521 8.93596 7.57329C8.75586 7.46912 8.52517 7.53058 8.42066 7.71192L7.80094 8.78722C7.69612 8.9691 7.75868 9.20126 7.9393 9.30572C8.85726 9.83666 8.85726 11.1632 7.9393 11.6942Z" fill="#353566"/>
<path fill-rule="evenodd" clip-rule="evenodd" d="M8.37737 1.5H15.6226C16.7236 1.5 17.5805 1.5 18.2679 1.55616C18.9658 1.61318 19.5329 1.73058 20.043 1.99047C20.8897 2.4219 21.5781 3.11031 22.0095 3.95704C22.2694 4.4671 22.3868 5.03416 22.4438 5.73209C22.5 6.41947 22.5 7.27638 22.5 8.37731V12.7868C22.5 13.811 22.5 14.6082 22.4512 15.2491C22.4017 15.8996 22.2998 16.4299 22.0739 16.9114C21.6276 17.8626 20.8626 18.6276 19.9114 19.0739C19.4299 19.2998 18.8996 19.4017 18.2491 19.4512C17.6082 19.5 16.811 19.5 15.7869 19.5H15.7658C15.2946 19.5 15.1568 19.5045 15.0385 19.5382C14.8975 19.5783 14.767 19.6489 14.6563 19.7451C14.5634 19.8258 14.4843 19.9387 14.2268 20.3333L13.7456 21.0704C13.5332 21.3958 13.3553 21.6685 13.194 21.8724C13.0291 22.0809 12.8384 22.2755 12.58 22.3839C12.209 22.5394 11.791 22.5394 11.42 22.3839C11.1616 22.2755 10.9709 22.0809 10.806 21.8724C10.6447 21.6685 10.4668 21.3959 10.2544 21.0704L9.77319 20.3333C9.51566 19.9387 9.43655 19.8258 9.3437 19.7451C9.233 19.6489 9.10252 19.5783 8.96148 19.5382C8.84317 19.5045 8.70536 19.5 8.23421 19.5H8.21317C7.18901 19.5 6.39179 19.5 5.7509 19.4512C5.10037 19.4017 4.57006 19.2998 4.08863 19.0739C3.13743 18.6276 2.37238 17.8626 1.9261 16.9114C1.70022 16.4299 1.59831 15.8996 1.54879 15.2491C1.5 14.6082 1.5 13.811 1.5 12.7868V8.37737C1.5 7.27642 1.5 6.41948 1.55616 5.73209C1.61318 5.03416 1.73058 4.4671 1.99047 3.95704C2.4219 3.11031 3.11031 2.4219 3.95704 1.99047C4.4671 1.73058 5.03416 1.61318 5.73209 1.55616C6.41948 1.5 7.27642 1.5 8.37737 1.5ZM5.81352 2.55284C5.17744 2.60481 4.75662 2.70539 4.41103 2.88148C3.75247 3.21703 3.21703 3.75247 2.88148 4.41103C2.70539 4.75662 2.60481 5.17744 2.55284 5.81352C2.50039 6.45545 2.5 7.27164 2.5 8.4V12.7658C2.5 13.8154 2.50034 14.5747 2.5459 15.1732C2.59107 15.7665 2.67853 16.1608 2.83141 16.4866C3.17852 17.2264 3.77356 17.8215 4.51338 18.1686C4.83922 18.3215 5.23354 18.4089 5.82681 18.4541C6.42532 18.4997 7.18457 18.5 8.23421 18.5L8.2963 18.5C8.67773 18.4998 8.9654 18.4996 9.23513 18.5763C9.5172 18.6566 9.77817 18.7979 9.99955 18.9902C10.2112 19.1741 10.3683 19.4151 10.5766 19.7346L11.0789 20.5041C11.3075 20.8544 11.4607 21.0882 11.5903 21.2521C11.7196 21.4155 11.7821 21.4513 11.8067 21.4616C11.9303 21.5135 12.0697 21.5135 12.1933 21.4616C12.2179 21.4513 12.2804 21.4155 12.4097 21.2521C12.5393 21.0882 12.6925 20.8544 12.9211 20.5041L13.4233 19.7346C13.6317 19.4151 13.7888 19.1741 14.0004 18.9902C14.2218 18.7979 14.4828 18.6566 14.7649 18.5763C15.0346 18.4996 15.3223 18.4998 15.7037 18.5L15.7658 18.5C16.8154 18.5 17.5747 18.4997 18.1732 18.4541C18.7665 18.4089 19.1608 18.3215 19.4866 18.1686C20.2264 17.8215 20.8215 17.2264 21.1686 16.4866C21.3215 16.1608 21.4089 15.7665 21.4541 15.1732C21.4997 14.5747 21.5 13.8154 21.5 12.7658V8.4C21.5 7.27164 21.4996 6.45545 21.4472 5.81352C21.3952 5.17744 21.2946 4.75662 21.1185 4.41103C20.783 3.75247 20.2475 3.21703 19.589 2.88148C19.2434 2.70539 18.8226 2.60481 18.1865 2.55284C17.5446 2.50039 16.7284 2.5 15.6 2.5H8.4C7.27164 2.5 6.45545 2.50039 5.81352 2.55284Z" fill="#353566"/>
</svg>
