<svg width="24" height="24" viewBox="0 0 24 24" fill="none" xmlns="http://www.w3.org/2000/svg">
<path fill-rule="evenodd" clip-rule="evenodd" d="M8.16917 2.53254C8.45161 1.90419 9.07643 1.5 9.76534 1.5H15.2165C16.1456 1.5 16.75 2.4777 16.3346 3.30881L13.7386 8.50325H18.0019C19.3105 8.50325 19.9916 10.0618 19.1028 11.0221L8.77955 22.176C8.05772 22.9559 6.77854 22.2205 7.08937 21.2043L9.75026 12.5046H6.00562C4.91741 12.5046 4.19133 11.3822 4.63748 10.3897L8.16917 2.53254ZM9.76534 2.5C9.47009 2.5 9.20231 2.67322 9.08127 2.94252L5.54957 10.7997C5.40086 11.1305 5.64288 11.5046 6.00562 11.5046H10.4261C10.5846 11.5046 10.7337 11.5798 10.828 11.7073C10.9223 11.8347 10.9506 11.9993 10.9042 12.1509L8.04564 21.4968L18.3688 10.3429C18.6651 10.0228 18.4381 9.50325 18.0019 9.50325H12.9298C12.7565 9.50325 12.5956 9.41354 12.5045 9.26616C12.4133 9.11877 12.405 8.93472 12.4825 8.77973L15.4401 2.86176C15.5232 2.69554 15.4023 2.5 15.2165 2.5H9.76534Z" fill="#353566"/>
</svg>
