<svg width="24" height="24" viewBox="0 0 24 24" fill="none" xmlns="http://www.w3.org/2000/svg">
<path fill-rule="evenodd" clip-rule="evenodd" d="M17.7338 2.95574C17.4168 2.60872 16.9467 2.44398 16.4824 2.51704C16.1274 2.57292 15.8402 2.83064 15.6008 3.08297C15.3464 3.35101 15.0407 3.73316 14.6607 4.20815L9.09273 11.1687C8.80651 11.5265 8.57019 11.8219 8.40783 12.0675C8.24766 12.3098 8.10039 12.5869 8.1001 12.8992C8.0997 13.3254 8.29363 13.7286 8.62684 13.9945C8.87089 14.1892 9.17924 14.2473 9.46857 14.2736C9.76183 14.3002 10.1402 14.3002 10.5985 14.3002H12.5601C12.8203 14.3002 12.9855 14.3006 13.1105 14.3108C13.2297 14.3205 13.2677 14.3366 13.2817 14.3438C13.357 14.3821 13.4182 14.4433 13.4565 14.5185C13.4636 14.5324 13.4797 14.5704 13.4895 14.6895C13.4997 14.8144 13.5001 14.9795 13.5001 15.2397V18.586C13.5001 19.1942 13.5001 19.6835 13.5313 20.0517C13.5607 20.3983 13.6239 20.7789 13.8664 21.0443C14.1834 21.3913 14.6535 21.556 15.1178 21.483C15.4728 21.4271 15.7599 21.1694 15.9994 20.917C16.2538 20.649 16.5595 20.2669 16.9395 19.7919L22.5075 12.8313C22.7937 12.4735 23.03 12.1781 23.1924 11.9325C23.3525 11.6902 23.4998 11.4131 23.5001 11.1009C23.5005 10.6746 23.3066 10.2714 22.9734 10.0055C22.7293 9.8108 22.421 9.75273 22.1316 9.72646C21.8384 9.69983 21.46 9.69984 21.0018 9.69985H19.0401C18.7799 9.69985 18.6147 9.69946 18.4897 9.68925C18.3705 9.67952 18.3325 9.6634 18.3185 9.65625C18.2432 9.61791 18.182 9.55674 18.1437 9.48155C18.1366 9.46757 18.1204 9.42961 18.1107 9.31052C18.1005 9.18558 18.1001 9.02052 18.1001 8.76032V5.41402C18.1001 4.80595 18.1001 4.31646 18.0689 3.94834C18.0395 3.60176 17.9763 3.22111 17.7338 2.95574ZM16.638 3.50486C16.7707 3.48404 16.9049 3.5311 16.9954 3.63008C17.0013 3.64128 17.0466 3.72792 17.0725 4.03286C17.0997 4.35354 17.1001 4.80002 17.1001 5.43914V8.77917C17.1001 9.015 17.1001 9.22139 17.114 9.39198C17.1288 9.57294 17.1618 9.75718 17.2527 9.93566C17.387 10.199 17.6012 10.4132 17.8646 10.5473C18.0431 10.6382 18.2273 10.6711 18.4083 10.6859C18.5789 10.6999 18.7853 10.6999 19.0212 10.6998L20.9768 10.6998C21.4663 10.6998 21.7987 10.7003 22.0412 10.7224C22.1595 10.7331 22.2373 10.7476 22.289 10.7627C22.3379 10.777 22.3511 10.7883 22.3497 10.7872C22.4449 10.8632 22.5002 10.9783 22.5001 11.0999C22.5001 11.0977 22.501 11.1149 22.4814 11.1625C22.4609 11.2123 22.4236 11.282 22.3582 11.3811C22.2239 11.5841 22.0167 11.844 21.711 12.2261L16.1743 19.1476C15.775 19.6467 15.4957 19.9952 15.2741 20.2286C15.0632 20.4509 14.9738 20.4901 14.9623 20.4951C14.8295 20.516 14.6952 20.4682 14.6046 20.369C14.5987 20.3578 14.5536 20.2721 14.5277 19.9672C14.5005 19.6465 14.5001 19.2 14.5001 18.5609L14.5001 15.2208C14.5001 14.9851 14.5001 14.7786 14.4862 14.608C14.4714 14.4271 14.4384 14.2428 14.3475 14.0644C14.2132 13.801 13.999 13.5869 13.7356 13.4527C13.5571 13.3618 13.3729 13.3289 13.1919 13.3141C13.0213 13.3001 12.8148 13.3002 12.5789 13.3002H10.6234C10.1339 13.3002 9.80149 13.2997 9.559 13.2777C9.44074 13.2669 9.36293 13.2524 9.31121 13.2373C9.26222 13.223 9.24904 13.2117 9.25047 13.2128C9.1553 13.1368 9.09998 13.0217 9.1001 12.9001C9.10006 12.9005 9.10015 12.8829 9.11882 12.8375C9.1393 12.7877 9.17658 12.718 9.24204 12.619C9.37627 12.4159 9.58349 12.1561 9.88916 11.7739L15.4259 4.85244C15.8252 4.35329 16.1045 4.00486 16.3261 3.77138C16.537 3.54916 16.6265 3.50989 16.638 3.50486Z" fill="#353566"/>
<path d="M4 6.5H8C8.27614 6.5 8.5 6.27614 8.5 6C8.5 5.72386 8.27614 5.5 8 5.5H4C3.72386 5.5 3.5 5.72386 3.5 6C3.5 6.27614 3.72386 6.5 4 6.5Z" fill="#353566"/>
<path d="M0.5 12C0.5 11.7239 0.723858 11.5 1 11.5H5C5.27614 11.5 5.5 11.7239 5.5 12C5.5 12.2761 5.27614 12.5 5 12.5H1C0.723858 12.5 0.5 12.2761 0.5 12Z" fill="#353566"/>
<path d="M4 18.5H8C8.27614 18.5 8.5 18.2761 8.5 18C8.5 17.7239 8.27614 17.5 8 17.5L4 17.5C3.72386 17.5 3.5 17.7239 3.5 18C3.5 18.2761 3.72386 18.5 4 18.5Z" fill="#353566"/>
</svg>
