<svg width="24" height="24" viewBox="0 0 24 24" fill="none" xmlns="http://www.w3.org/2000/svg">
<path fill-rule="evenodd" clip-rule="evenodd" d="M11.9997 8.5C10.0667 8.5 8.49966 10.067 8.49966 12C8.49966 13.933 10.0667 15.5 11.9997 15.5C13.9327 15.5 15.4997 13.933 15.4997 12C15.4997 10.067 13.9327 8.5 11.9997 8.5ZM9.49966 12C9.49966 10.6193 10.619 9.5 11.9997 9.5C13.3804 9.5 14.4997 10.6193 14.4997 12C14.4997 13.3807 13.3804 14.5 11.9997 14.5C10.619 14.5 9.49966 13.3807 9.49966 12Z" fill="#353566"/>
<path fill-rule="evenodd" clip-rule="evenodd" d="M11.9996 1.5C9.7577 1.5 8.15472 3.34362 8.1608 5.35034C6.42609 4.34291 4.02909 4.80962 2.90846 6.7506C1.78762 8.69195 2.58249 11.0017 4.32303 12C2.58249 12.9983 1.78762 15.308 2.90846 17.2494C4.02909 19.1904 6.42609 19.6571 8.1608 18.6496C8.15489 20.6563 9.75781 22.4997 11.9996 22.4997C14.2415 22.4997 15.8445 20.6561 15.8384 18.6495C17.5732 19.6572 19.9704 19.1905 21.0911 17.2494C22.212 15.308 21.4171 12.9983 19.6766 12C21.4171 11.0017 22.212 8.69195 21.0911 6.7506C19.9704 4.80951 17.5732 4.34285 15.8385 5.35053C15.8446 3.34376 14.2416 1.5 11.9996 1.5ZM9.5187 6.70159C8.47843 4.82144 9.83718 2.5 11.9996 2.5C14.1647 2.5 15.5241 4.82705 14.4767 6.70847C14.3439 6.94704 14.4271 7.24805 14.6635 7.38463C14.8999 7.5212 15.2022 7.44283 15.3425 7.20857C16.4486 5.36185 19.1428 5.37593 20.2251 7.2506C21.3077 9.12563 19.972 11.4664 17.819 11.5001C17.5459 11.5043 17.3268 11.7269 17.3268 12C17.3268 12.2731 17.5459 12.4957 17.819 12.4999C19.972 12.5336 21.3077 14.8744 20.2251 16.7494C19.1435 18.6229 16.452 18.6381 15.3447 16.795C15.2042 16.5612 14.9022 16.4831 14.666 16.6195C14.4298 16.756 14.3465 17.0565 14.4789 17.2951C15.5222 19.1758 14.1632 21.4997 11.9996 21.4997C9.83846 21.4997 8.48001 19.181 9.51686 17.3014C9.64839 17.063 9.56494 16.7631 9.32914 16.6269C9.09334 16.4907 8.7919 16.5683 8.65109 16.8014C7.54145 18.6381 4.85488 18.6207 3.77449 16.7494C2.69194 14.8744 4.02757 12.5336 6.18064 12.4999C6.45371 12.4957 6.67284 12.2731 6.67284 12C6.67284 11.7269 6.45371 11.5043 6.18064 11.5001C4.02757 11.4664 2.69194 9.12563 3.77449 7.2506C4.85548 5.37826 7.54439 5.36188 8.65294 7.2017C8.79359 7.43514 9.0953 7.51294 9.3313 7.37661C9.5673 7.24029 9.65065 6.94007 9.5187 6.70159Z" fill="#353566"/>
</svg>
