<svg width="24" height="24" viewBox="0 0 24 24" fill="none" xmlns="http://www.w3.org/2000/svg">
<path fill-rule="evenodd" clip-rule="evenodd" d="M14.1598 3.75549C13.2023 2.08151 10.7975 2.0815 9.84001 3.75549L1.83382 17.7528C0.882258 19.4164 2.07419 21.5 3.99373 21.5H20.0061C21.9256 21.5 23.1176 19.4164 22.166 17.7528L14.1598 3.75549ZM10.708 4.25199C11.2815 3.24934 12.7183 3.24934 13.2918 4.25199L15.9574 8.91228L14.4998 11.0986L12.9158 8.72266C12.8217 8.58139 12.6622 8.49756 12.4925 8.50006C12.3227 8.50256 12.1658 8.59103 12.0758 8.73501L9.99982 12.0566L8.0387 8.91882L10.708 4.25199ZM7.4752 9.904L2.70186 18.2493C2.1271 19.2541 2.85126 20.5 3.99373 20.5H20.0061C21.1486 20.5 21.8727 19.2541 21.298 18.2493L16.5124 9.88257L14.9158 12.2774C14.8231 12.4165 14.667 12.5 14.4998 12.5C14.3326 12.5 14.1765 12.4165 14.0838 12.2774L12.5134 9.92172L10.4238 13.265C10.3325 13.4112 10.1722 13.5 9.99982 13.5C9.82743 13.5 9.66719 13.4112 9.57582 13.265L7.4752 9.904Z" fill="#353566"/>
</svg>
