<svg width="24" height="24" viewBox="0 0 24 24" fill="none" xmlns="http://www.w3.org/2000/svg">
<g clip-path="url(#clip0_9001_303710)">
<path opacity="0.4" d="M15.4326 2.25H6.56739C5.61495 2.24999 4.85439 2.24999 4.24013 2.30018C3.61012 2.35165 3.06824 2.45963 2.57054 2.71322C1.77085 3.12068 1.12068 3.77085 0.713223 4.57054C0.459634 5.06824 0.35165 5.61012 0.300176 6.24013C0.249989 6.8544 0.249994 7.61494 0.25 8.56738V17.4326C0.249994 18.3851 0.249989 19.1456 0.300176 19.7599C0.35165 20.3899 0.459634 20.9318 0.713223 21.4295C1.12068 22.2291 1.77085 22.8793 2.57054 23.2868C3.06824 23.5404 3.61012 23.6483 4.24013 23.6998C4.85438 23.75 5.6149 23.75 6.5673 23.75H14.5379C14.8786 23.75 15.1765 23.5204 15.2632 23.1909C15.3499 22.8614 15.2037 22.5149 14.9072 22.3472C13.917 21.7871 13.2499 20.7233 13.2499 19.503C13.2499 19.4195 13.2494 19.3365 13.2489 19.2565L13.2488 19.2552C13.2434 18.4219 13.2625 17.9025 13.5922 17.4556C13.8131 17.1561 13.8893 16.774 13.8006 16.413C13.6552 15.8214 13.8256 15.188 14.2632 14.749L16.2632 12.743C17.1502 11.8534 18.7381 12.2278 19.15 13.3991C19.3257 13.8989 19.7975 14.235 20.329 14.235H21C21.4142 14.235 21.75 13.8993 21.75 13.485V8.56737C21.75 7.61496 21.75 6.85438 21.6998 6.24013C21.6483 5.61012 21.5404 5.06824 21.2868 4.57054C20.8793 3.77085 20.2291 3.12068 19.4295 2.71322C18.9318 2.45963 18.3899 2.35165 17.7599 2.30018C17.1456 2.24999 16.3851 2.24999 15.4326 2.25Z" fill="#353566"/>
<path d="M7.75 1C7.75 0.585786 7.41421 0.25 7 0.25C6.58579 0.25 6.25 0.585786 6.25 1V2.25007C5.44394 2.25064 4.78456 2.25569 4.24011 2.30018C3.6101 2.35165 3.06821 2.45963 2.57052 2.71322C1.77083 3.12069 1.12066 3.77085 0.7132 4.57054C0.459611 5.06824 0.351628 5.61012 0.300153 6.24013C0.254027 6.8047 0.250299 7.49283 0.250001 8.33994C0.249983 8.39596 0.249974 8.42398 0.26087 8.44538C0.270453 8.4642 0.285758 8.47951 0.304573 8.4891C0.325968 8.5 0.353973 8.5 0.409982 8.5H21.59C21.646 8.5 21.674 8.5 21.6954 8.4891C21.7142 8.47951 21.7295 8.4642 21.7391 8.44538C21.75 8.42398 21.75 8.39597 21.75 8.33994C21.7497 7.49283 21.7459 6.80469 21.6998 6.24013C21.6483 5.61012 21.5403 5.06824 21.2868 4.57054C20.8793 3.77085 20.2291 3.12069 19.4294 2.71322C18.9317 2.45963 18.3899 2.35165 17.7598 2.30018C17.2154 2.25569 16.556 2.25064 15.75 2.25007V1C15.75 0.585786 15.4142 0.25 15 0.25C14.5858 0.25 14.25 0.585786 14.25 1V2.25H7.75V1Z" fill="#353566"/>
<path d="M6.5 12.5C5.94772 12.5 5.5 12.9477 5.5 13.5C5.5 14.0523 5.94772 14.5 6.5 14.5C7.05229 14.5 7.5001 14.0523 7.5001 13.5C7.5001 12.9477 7.05229 12.5 6.5 12.5Z" fill="#353566"/>
<path d="M10 13.5C10 12.9477 10.4477 12.5 11 12.5C11.5523 12.5 12.0001 12.9477 12.0001 13.5C12.0001 14.0523 11.5524 14.5 11.0001 14.5C10.4478 14.5 10 14.0523 10 13.5Z" fill="#353566"/>
<path d="M6.5 16.5C5.94772 16.5 5.5 16.9477 5.5 17.5C5.5 18.0523 5.94772 18.5 6.5 18.5C7.05229 18.5 7.5001 18.0523 7.5001 17.5C7.5001 16.9477 7.05229 16.5 6.5 16.5Z" fill="#353566"/>
<path d="M23 19.25C23.4142 19.25 23.75 18.9142 23.75 18.5V17.5C23.75 16.2574 22.7426 15.25 21.5 15.25H17.3106L18.0303 14.5303C18.3232 14.2374 18.3232 13.7626 18.0303 13.4697C17.7374 13.1768 17.2625 13.1768 16.9696 13.4697L14.9696 15.4697C14.7551 15.6842 14.6909 16.0068 14.807 16.287C14.9231 16.5673 15.1966 16.75 15.4999 16.75H21.5C21.9142 16.75 22.25 17.0858 22.25 17.5V18.5C22.25 18.9142 22.5858 19.25 23 19.25Z" fill="#353566"/>
<path d="M14.25 18.5C14.25 18.0858 14.5858 17.75 15 17.75C15.4142 17.75 15.75 18.0858 15.75 18.5V19.5C15.75 19.9142 16.0858 20.25 16.5 20.25H22.5C22.8034 20.25 23.0768 20.4327 23.1929 20.713C23.309 20.9933 23.2448 21.3158 23.0303 21.5303L21.0303 23.5303C20.7374 23.8232 20.2625 23.8232 19.9696 23.5303C19.6767 23.2374 19.6767 22.7626 19.9696 22.4697L20.6893 21.75H16.5C15.2574 21.75 14.25 20.7426 14.25 19.5V18.5Z" fill="#353566"/>
</g>
<defs>
<clipPath id="clip0_9001_303710">
<rect width="24" height="24" fill="white"/>
</clipPath>
</defs>
</svg>
