<svg width="24" height="24" viewBox="0 0 24 24" fill="none" xmlns="http://www.w3.org/2000/svg">
<g clip-path="url(#clip0_9001_305306)">
<path opacity="0.4" d="M12 0.25C5.51065 0.25 0.25 5.51065 0.25 12C0.25 18.4893 5.51065 23.75 12 23.75C18.4893 23.75 23.75 18.4893 23.75 12C23.75 5.51065 18.4893 0.25 12 0.25Z" fill="#353566"/>
<path d="M11.6364 11.344C11.8749 11.2118 12.1663 11.2195 12.3975 11.364L16.3975 13.864C16.7488 14.0835 16.8555 14.5462 16.636 14.8975C16.4165 15.2488 15.9538 15.3555 15.6025 15.136L12.75 13.3532V18C12.75 18.4142 12.4142 18.75 12 18.75C11.5858 18.75 11.25 18.4142 11.25 18V12C11.25 11.7274 11.398 11.4762 11.6364 11.344Z" fill="#353566"/>
</g>
<defs>
<clipPath id="clip0_9001_305306">
<rect width="24" height="24" fill="white"/>
</clipPath>
</defs>
</svg>
