<svg width="24" height="24" viewBox="0 0 24 24" fill="none" xmlns="http://www.w3.org/2000/svg">
<g clip-path="url(#clip0_9001_305336)">
<path opacity="0.4" d="M12 0.25C5.51065 0.25 0.25 5.51065 0.25 12C0.25 18.4893 5.51065 23.75 12 23.75C18.4893 23.75 23.75 18.4893 23.75 12C23.75 5.51065 18.4893 0.25 12 0.25Z" fill="#353566"/>
<path d="M9.1026 7.3641C8.75135 7.58363 8.64457 8.04635 8.8641 8.3976L11.2501 12.2152V18.0001C11.2501 18.4143 11.5859 18.7501 12.0001 18.7501C12.4143 18.7501 12.7501 18.4143 12.7501 18.0001V12.0001C12.7501 11.8595 12.7106 11.7218 12.6361 11.6026L10.1361 7.6026C9.91657 7.25135 9.45385 7.14457 9.1026 7.3641Z" fill="#353566"/>
</g>
<defs>
<clipPath id="clip0_9001_305336">
<rect width="24" height="24" fill="white"/>
</clipPath>
</defs>
</svg>
