<svg width="24" height="24" viewBox="0 0 24 24" fill="none" xmlns="http://www.w3.org/2000/svg">
<path fill-rule="evenodd" clip-rule="evenodd" d="M10 2.5073C9.87033 2.50091 9.6941 2.50002 9.42452 2.50002H5.8C4.95167 2.50002 4.34549 2.50041 3.87032 2.53923C3.40099 2.57758 3.10366 2.65092 2.86502 2.77251C2.39462 3.01219 2.01217 3.39464 1.77248 3.86505C1.65089 4.10368 1.57756 4.40101 1.53921 4.87034C1.50039 5.34552 1.5 5.95169 1.5 6.80002V17.2C1.5 18.0483 1.50039 18.6545 1.53921 19.1297C1.57756 19.599 1.65089 19.8964 1.77248 20.135C2.01217 20.6054 2.39462 20.9879 2.86502 21.2275C3.10366 21.3491 3.40099 21.4225 3.87032 21.4608C4.34549 21.4996 4.95167 21.5 5.8 21.5H12C12.2761 21.5 12.5 21.7239 12.5 22C12.5 22.2762 12.2761 22.5 12 22.5H5.77778C4.95651 22.5 4.30954 22.5 3.78889 22.4575C3.25771 22.4141 2.81413 22.3239 2.41103 22.1185C1.75247 21.783 1.21703 21.2476 0.881478 20.589C0.676087 20.1859 0.585932 19.7423 0.542533 19.2111C0.499994 18.6905 0.499997 18.0435 0.5 17.2222V6.77782C0.499997 5.95655 0.499994 5.30957 0.542533 4.78891C0.585932 4.25773 0.676087 3.81416 0.881477 3.41105C1.21703 2.75249 1.75247 2.21706 2.41103 1.8815C2.81414 1.67611 3.25771 1.58595 3.78889 1.54255C4.30954 1.50002 4.95652 1.50002 5.77779 1.50002L9.48149 1.50001C9.91586 1.49988 10.2165 1.4998 10.5052 1.5691C10.7603 1.63034 11.0041 1.73135 11.2278 1.86842C11.4809 2.02353 11.6935 2.23619 12.0005 2.54343L16.4566 6.99949C16.7638 7.30654 16.9765 7.51909 17.1316 7.7722C17.2687 7.99588 17.3697 8.23974 17.4309 8.49483C17.4948 8.76076 17.4991 9.0298 17.4999 9.39336C17.5005 9.6695 17.2771 9.89386 17.001 9.89447C16.7248 9.89509 16.5005 9.67173 16.4999 9.39559C16.4995 9.22358 16.4976 9.09816 16.4926 9H12.5C11.1193 9 10 7.88071 10 6.5V2.5073ZM16.038 8C15.9575 7.91529 15.852 7.80916 15.7092 7.66632L11.3337 3.29083C11.1909 3.14798 11.0847 3.04255 11 2.96199V6.5C11 7.32843 11.6716 8 12.5 8H16.038Z" fill="#353566"/>
<path d="M19 19.5C17.3513 19.5 15.8682 20.6327 15.4842 22.1246C15.4154 22.3921 15.1428 22.553 14.8754 22.4842C14.6079 22.4154 14.4469 22.1428 14.5158 21.8754C15.0199 19.9168 16.921 18.5 19 18.5C21.0789 18.5 22.9801 19.9168 23.4842 21.8754C23.553 22.1428 23.3921 22.4154 23.1246 22.4842C22.8572 22.553 22.5846 22.3921 22.5158 22.1246C22.1318 20.6327 20.6487 19.5 19 19.5Z" fill="#353566"/>
<path fill-rule="evenodd" clip-rule="evenodd" d="M19 11.5C17.4812 11.5 16.25 12.7312 16.25 14.25C16.25 15.7688 17.4812 17 19 17C20.5188 17 21.75 15.7688 21.75 14.25C21.75 12.7312 20.5188 11.5 19 11.5ZM17.25 14.25C17.25 13.2835 18.0335 12.5 19 12.5C19.9665 12.5 20.75 13.2835 20.75 14.25C20.75 15.2165 19.9665 16 19 16C18.0335 16 17.25 15.2165 17.25 14.25Z" fill="#353566"/>
</svg>
