<svg width="24" height="24" viewBox="0 0 24 24" fill="none" xmlns="http://www.w3.org/2000/svg">
<path fill-rule="evenodd" clip-rule="evenodd" d="M10 2.5073C9.87033 2.50091 9.6941 2.50002 9.42452 2.50002H5.8C4.95167 2.50002 4.34549 2.50041 3.87032 2.53923C3.40099 2.57758 3.10366 2.65092 2.86502 2.77251C2.39462 3.01219 2.01217 3.39464 1.77248 3.86505C1.65089 4.10368 1.57756 4.40101 1.53921 4.87034C1.50039 5.34552 1.5 5.95169 1.5 6.80002V17.2C1.5 18.0483 1.50039 18.6545 1.53921 19.1297C1.57756 19.599 1.65089 19.8964 1.77248 20.135C2.01217 20.6054 2.39462 20.9879 2.86502 21.2275C3.10366 21.3491 3.40099 21.4225 3.87032 21.4608C4.34549 21.4996 4.95167 21.5 5.8 21.5H13.2278C13.504 21.5 13.7278 21.7239 13.7278 22C13.7278 22.2762 13.504 22.5 13.2278 22.5H5.77778C4.95651 22.5 4.30954 22.5 3.78889 22.4575C3.25771 22.4141 2.81413 22.3239 2.41103 22.1185C1.75247 21.783 1.21703 21.2476 0.881478 20.589C0.676087 20.1859 0.585932 19.7423 0.542533 19.2111C0.499994 18.6905 0.499997 18.0435 0.5 17.2222V6.77782C0.499997 5.95655 0.499994 5.30957 0.542533 4.78891C0.585932 4.25773 0.676087 3.81416 0.881477 3.41105C1.21703 2.75249 1.75247 2.21706 2.41103 1.8815C2.81414 1.67611 3.25771 1.58595 3.78889 1.54255C4.30954 1.50002 4.95652 1.50002 5.77779 1.50002L9.48149 1.50001C9.91586 1.49988 10.2165 1.4998 10.5052 1.5691C10.7603 1.63034 11.0041 1.73135 11.2278 1.86842C11.4809 2.02353 11.6935 2.23619 12.0005 2.54343L16.4566 6.99949C16.7638 7.30654 16.9765 7.51909 17.1316 7.7722C17.2687 7.99588 17.3697 8.23974 17.4309 8.49483C17.5002 8.78348 17.5001 9.08415 17.5 9.51852L17.5 11.5161C17.5 11.7922 17.2761 12.0161 17 12.0161C16.7239 12.0161 16.5 11.7922 16.5 11.5161V9.5755C16.5 9.30591 16.4991 9.12967 16.4927 9H12.5C11.1193 9 10 7.88071 10 6.5V2.5073ZM16.038 8C15.9575 7.91529 15.852 7.80916 15.7092 7.66632L11.3337 3.29083C11.1909 3.14798 11.0847 3.04255 11 2.96199V6.5C11 7.32843 11.6716 8 12.5 8H16.038Z" fill="#353566"/>
<path fill-rule="evenodd" clip-rule="evenodd" d="M15.8479 14.6281C16.1578 13.7906 17.3422 13.7906 17.6521 14.6281L17.9505 15.4345C18.2274 16.1827 18.8173 16.7726 19.5655 17.0495L20.3719 17.3479C21.2094 17.6578 21.2094 18.8422 20.3719 19.1521L19.5655 19.4505C18.8173 19.7274 18.2274 20.3173 17.9505 21.0655L17.6521 21.8719C17.3422 22.7094 16.1578 22.7094 15.8479 21.8719L15.5495 21.0655C15.2726 20.3173 14.6827 19.7274 13.9345 19.4505L13.1281 19.1521C12.2906 18.8422 12.2906 17.6578 13.1281 17.3479L13.9345 17.0495C14.6827 16.7726 15.2726 16.1827 15.5495 15.4345L15.8479 14.6281ZM16.75 15.0717L16.4873 15.7816C16.1092 16.8035 15.3035 17.6092 14.2816 17.9873L13.5717 18.25L14.2816 18.5127C15.3035 18.8908 16.1092 19.6965 16.4873 20.7184L16.75 21.4283L17.0127 20.7184C17.3908 19.6965 18.1965 18.8908 19.2184 18.5127L19.9283 18.25L19.2184 17.9873C18.1965 17.6092 17.3908 16.8035 17.0127 15.7816L16.75 15.0717Z" fill="#353566"/>
<path d="M21.1269 12.0883C21.0833 11.9706 20.9167 11.9706 20.8731 12.0883L20.6789 12.6133C20.4962 13.107 20.107 13.4962 19.6133 13.6789L19.0883 13.8731C18.9706 13.9167 18.9706 14.0833 19.0883 14.1269L19.6133 14.3211C20.107 14.5038 20.4962 14.893 20.6789 15.3867L20.8731 15.9117C20.9167 16.0294 21.0833 16.0294 21.1269 15.9117L21.3211 15.3867C21.5038 14.893 21.893 14.5038 22.3867 14.3211L22.9117 14.1269C23.0294 14.0833 23.0294 13.9167 22.9117 13.8731L22.3867 13.6789C21.893 13.4962 21.5038 13.107 21.3211 12.6133L21.1269 12.0883Z" fill="#353566"/>
</svg>
