<svg width="24" height="24" viewBox="0 0 24 24" fill="none" xmlns="http://www.w3.org/2000/svg">
<g clip-path="url(#clip0_9001_272926)">
<path d="M7.367 0.25H14.633C15.7251 0.249995 16.5906 0.24999 17.2883 0.306988C18.0017 0.365274 18.6053 0.486882 19.1565 0.76772C20.0502 1.22312 20.7769 1.94978 21.2323 2.84355C21.5131 3.39472 21.6347 3.99835 21.693 4.71173C21.75 5.40935 21.75 6.27485 21.75 7.36698V11.3208C21.75 11.735 21.4142 12.0708 21 12.0708C20.5858 12.0708 20.25 11.735 20.25 11.3208V7.4C20.25 6.26752 20.2494 5.46327 20.198 4.83388C20.1473 4.21325 20.0509 3.829 19.8958 3.52453C19.5842 2.913 19.087 2.41582 18.4755 2.10423C18.171 1.94909 17.7867 1.85271 17.1661 1.80201C16.5367 1.75058 15.7325 1.75 14.6 1.75H7.4C6.26752 1.75 5.46326 1.75058 4.83388 1.80201C4.21325 1.85271 3.829 1.94909 3.52453 2.10423C2.913 2.41582 2.41582 2.913 2.10423 3.52453C1.94909 3.829 1.85271 4.21325 1.80201 4.83388C1.75058 5.46327 1.75 6.26752 1.75 7.4V14.6C1.75 15.7325 1.75058 16.5367 1.80201 17.1661C1.85271 17.7867 1.94909 18.171 2.10423 18.4755C2.41582 19.087 2.913 19.5842 3.52453 19.8958C3.829 20.0509 4.21325 20.1473 4.83388 20.198C5.46326 20.2494 6.26752 20.25 7.4 20.25H11.3208C11.735 20.25 12.0708 20.5858 12.0708 21C12.0708 21.4142 11.735 21.75 11.3208 21.75H7.36698C6.27485 21.75 5.40935 21.75 4.71173 21.693C3.99834 21.6347 3.39472 21.5131 2.84355 21.2323C1.94978 20.7769 1.22312 20.0502 0.767719 19.1565C0.486881 18.6053 0.365275 18.0017 0.306988 17.2883C0.249991 16.5906 0.249994 15.7251 0.25 14.633V7.367C0.249994 6.27486 0.249991 5.40936 0.306988 4.71173C0.365275 3.99835 0.486881 3.39472 0.767719 2.84355C1.22312 1.94978 1.94978 1.22312 2.84354 0.76772C3.39472 0.486882 3.99834 0.365274 4.71173 0.306988C5.40936 0.24999 6.27485 0.249995 7.367 0.25Z" fill="#353566"/>
<path d="M16.5303 8.46967C16.8232 8.76256 16.8232 9.23744 16.5303 9.53033L13.0303 13.0303C12.7374 13.3232 12.2626 13.3232 11.9697 13.0303L9.5 10.5607L6.53033 13.5303C6.23744 13.8232 5.76256 13.8232 5.46967 13.5303C5.17678 13.2374 5.17678 12.7626 5.46967 12.4697L8.96967 8.96967C9.26256 8.67678 9.73744 8.67678 10.0303 8.96967L12.5 11.4393L15.4697 8.46967C15.7626 8.17678 16.2374 8.17678 16.5303 8.46967Z" fill="#353566"/>
<path fill-rule="evenodd" clip-rule="evenodd" d="M23.7533 18.42C23.7533 15.4745 21.3655 13.0867 18.42 13.0867C15.4744 13.0867 13.0866 15.4745 13.0866 18.42C13.0866 21.3655 15.4744 23.7533 18.42 23.7533C21.3655 23.7533 23.7533 21.3655 23.7533 18.42ZM18.42 14.5867C20.5371 14.5867 22.2533 16.3029 22.2533 18.42C22.2533 19.2074 22.0159 19.9393 21.6088 20.5482L16.2918 15.2312C16.9006 14.8241 17.6326 14.5867 18.42 14.5867ZM18.42 22.2533C19.2074 22.2533 19.9393 22.0159 20.5481 21.6088L15.2312 16.2919C14.824 16.9007 14.5866 17.6326 14.5866 18.42C14.5866 20.5371 16.3029 22.2533 18.42 22.2533Z" fill="#353566"/>
</g>
<defs>
<clipPath id="clip0_9001_272926">
<rect width="24" height="24" fill="white"/>
</clipPath>
</defs>
</svg>
