<svg width="24" height="24" viewBox="0 0 24 24" fill="none" xmlns="http://www.w3.org/2000/svg">
<path d="M2 1.25C2.41421 1.25 2.75 1.58579 2.75 2V18.5C2.75 20.0188 3.98122 21.25 5.5 21.25H22C22.4142 21.25 22.75 21.5858 22.75 22C22.75 22.4142 22.4142 22.75 22 22.75H5.5C3.15279 22.75 1.25 20.8472 1.25 18.5V2C1.25 1.58579 1.58579 1.25 2 1.25Z" fill="#353566"/>
<path d="M20.25 12.1893V10C20.25 9.58579 20.5858 9.25 21 9.25C21.4142 9.25 21.75 9.58579 21.75 10V14C21.75 14.4142 21.4142 14.75 21 14.75H17C16.5858 14.75 16.25 14.4142 16.25 14C16.25 13.5858 16.5858 13.25 17 13.25H19.1893L15 9.06066L11.5303 12.5303C11.2374 12.8232 10.7626 12.8232 10.4697 12.5303L5.46967 7.53033C5.17678 7.23744 5.17678 6.76256 5.46967 6.46967C5.76256 6.17678 6.23744 6.17678 6.53033 6.46967L11 10.9393L14.4697 7.46967C14.7626 7.17678 15.2374 7.17678 15.5303 7.46967L20.25 12.1893Z" fill="#353566"/>
</svg>
