<svg width="24" height="24" viewBox="0 0 24 24" fill="none" xmlns="http://www.w3.org/2000/svg">
<g clip-path="url(#clip0_9001_272761)">
<path d="M18.0303 10.0303C18.3232 9.73744 18.3232 9.26256 18.0303 8.96967C17.7374 8.67678 17.2626 8.67678 16.9697 8.96967L13.5 12.4393L11.0303 9.96967C10.7374 9.67678 10.2626 9.67678 9.96967 9.96967L5.96967 13.9697C5.67678 14.2626 5.67678 14.7374 5.96967 15.0303C6.26256 15.3232 6.73744 15.3232 7.03033 15.0303L10.5 11.5607L12.9697 14.0303C13.2626 14.3232 13.7374 14.3232 14.0303 14.0303L18.0303 10.0303Z" fill="#353566"/>
<path fill-rule="evenodd" clip-rule="evenodd" d="M12 0.25C5.51065 0.25 0.25 5.51065 0.25 12C0.25 18.4893 5.51065 23.75 12 23.75C18.4893 23.75 23.75 18.4893 23.75 12C23.75 5.51065 18.4893 0.25 12 0.25ZM1.75 12C1.75 6.33908 6.33908 1.75 12 1.75C17.6609 1.75 22.25 6.33908 22.25 12C22.25 17.6609 17.6609 22.25 12 22.25C6.33908 22.25 1.75 17.6609 1.75 12Z" fill="#353566"/>
</g>
<defs>
<clipPath id="clip0_9001_272761">
<rect width="24" height="24" fill="white"/>
</clipPath>
</defs>
</svg>
