<svg width="24" height="24" viewBox="0 0 24 24" fill="none" xmlns="http://www.w3.org/2000/svg">
<g clip-path="url(#clip0_9001_272781)">
<path fill-rule="evenodd" clip-rule="evenodd" d="M0.25 12C0.25 5.51065 5.51065 0.25 12 0.25C18.4893 0.25 23.75 5.51065 23.75 12C23.75 18.4893 18.4893 23.75 12 23.75C5.51065 23.75 0.25 18.4893 0.25 12ZM2.38356 8.44422C1.97381 9.55195 1.75 10.7498 1.75 12C1.75 17.6609 6.33908 22.25 12 22.25C17.6609 22.25 22.25 17.6609 22.25 12C22.25 6.33908 17.6609 1.75 12 1.75C8.15744 1.75 4.80874 3.86442 3.05391 6.99325L8 11.9393L10.1161 9.82322C10.6043 9.33507 11.3957 9.33507 11.8839 9.82322L16.25 14.1893V12C16.25 11.5858 16.5858 11.25 17 11.25C17.4142 11.25 17.75 11.5858 17.75 12V16C17.75 16.4142 17.4142 16.75 17 16.75H13C12.5858 16.75 12.25 16.4142 12.25 16C12.25 15.5858 12.5858 15.25 13 15.25H15.1893L11 11.0607L8.88388 13.1768C8.39573 13.6649 7.60427 13.6649 7.11612 13.1768L2.38356 8.44422Z" fill="#353566"/>
</g>
<defs>
<clipPath id="clip0_9001_272781">
<rect width="24" height="24" fill="white"/>
</clipPath>
</defs>
</svg>
