<svg width="24" height="24" viewBox="0 0 24 24" fill="none" xmlns="http://www.w3.org/2000/svg">
<g clip-path="url(#clip0_9001_273171)">
<path d="M14.633 0.25H7.367C6.27486 0.249995 5.40935 0.24999 4.71173 0.306988C3.99835 0.365274 3.39472 0.486882 2.84355 0.76772C1.94978 1.22312 1.22312 1.94978 0.76772 2.84355C0.486882 3.39472 0.365274 3.99835 0.306988 4.71173C0.24999 5.40935 0.249995 6.27485 0.25 7.36699V14.633C0.249995 15.7251 0.24999 16.5906 0.306988 17.2883C0.365274 18.0017 0.486882 18.6053 0.76772 19.1565C1.22312 20.0502 1.94978 20.7769 2.84355 21.2323C3.39472 21.5131 3.99835 21.6347 4.71173 21.693C5.40935 21.75 6.27485 21.75 7.36698 21.75H13.5092C13.9234 21.75 14.2592 21.4142 14.2592 21C14.2592 20.5858 13.923 20.25 13.5088 20.25H7.4C6.26752 20.25 5.46326 20.2494 4.83388 20.198C4.21325 20.1473 3.829 20.0509 3.52453 19.8958C2.913 19.5842 2.41582 19.087 2.10423 18.4755C1.94909 18.171 1.85271 17.7867 1.80201 17.1661C1.75058 16.5367 1.75 15.7325 1.75 14.6V7.4C1.75 6.26752 1.75058 5.46326 1.80201 4.83388C1.85271 4.21325 1.94909 3.829 2.10423 3.52453C2.41582 2.913 2.913 2.41582 3.52453 2.10423C3.829 1.94909 4.21325 1.85271 4.83388 1.80201C5.46326 1.75058 6.26752 1.75 7.4 1.75H14.6C15.7325 1.75 16.5367 1.75058 17.1661 1.80201C17.7867 1.85271 18.171 1.94909 18.4755 2.10423C19.087 2.41582 19.5842 2.913 19.8958 3.52453C20.0509 3.829 20.1473 4.21325 20.198 4.83388C20.2494 5.46326 20.25 6.26752 20.25 7.4V11.1455C20.25 11.5598 20.5858 11.8955 21 11.8955C21.4142 11.8955 21.75 11.5598 21.75 11.1455V7.36698C21.75 6.27484 21.75 5.40935 21.693 4.71173C21.6347 3.99835 21.5131 3.39472 21.2323 2.84355C20.7769 1.94978 20.0502 1.22312 19.1565 0.76772C18.6053 0.486882 18.0017 0.365274 17.2883 0.306988C16.5906 0.24999 15.7251 0.249995 14.633 0.25Z" fill="#353566"/>
<path d="M11.75 7C11.75 6.58579 11.4142 6.25 11 6.25C10.5858 6.25 10.25 6.58579 10.25 7V15C10.25 15.4142 10.5858 15.75 11 15.75C11.4142 15.75 11.75 15.4142 11.75 15V7Z" fill="#353566"/>
<path d="M15.25 9C15.25 8.58579 14.9142 8.25 14.5 8.25C14.0858 8.25 13.75 8.58579 13.75 9V15C13.75 15.4142 14.0858 15.75 14.5 15.75C14.9142 15.75 15.25 15.4142 15.25 15V9Z" fill="#353566"/>
<path d="M8.25 12C8.25 11.5858 7.91421 11.25 7.5 11.25C7.08579 11.25 6.75 11.5858 6.75 12V15C6.75 15.4142 7.08579 15.75 7.5 15.75C7.91421 15.75 8.25 15.4142 8.25 15V12Z" fill="#353566"/>
<path d="M19.3366 21.0034C17.9508 21.0034 16.7133 21.9589 16.3963 23.1904C16.2931 23.5915 15.8842 23.833 15.483 23.7297C15.0819 23.6265 14.8404 23.2176 14.9437 22.8165C15.4408 20.885 17.3055 19.5034 19.3366 19.5034C21.3678 19.5034 23.2325 20.885 23.7296 22.8165C23.8329 23.2176 23.5914 23.6265 23.1903 23.7297C22.7891 23.833 22.3802 23.5915 22.277 23.1904C21.96 21.9589 20.7225 21.0034 19.3366 21.0034Z" fill="#353566"/>
<path fill-rule="evenodd" clip-rule="evenodd" d="M19.3365 13.0867C17.7832 13.0867 16.524 14.3459 16.524 15.8992C16.524 17.4525 17.7832 18.7117 19.3365 18.7117C20.8898 18.7117 22.149 17.4525 22.149 15.8992C22.149 14.3459 20.8898 13.0867 19.3365 13.0867ZM18.024 15.8992C18.024 15.1743 18.6117 14.5867 19.3365 14.5867C20.0614 14.5867 20.649 15.1743 20.649 15.8992C20.649 16.624 20.0614 17.2117 19.3365 17.2117C18.6117 17.2117 18.024 16.624 18.024 15.8992Z" fill="#353566"/>
</g>
<defs>
<clipPath id="clip0_9001_273171">
<rect width="24" height="24" fill="white"/>
</clipPath>
</defs>
</svg>
