<svg width="24" height="24" viewBox="0 0 24 24" fill="none" xmlns="http://www.w3.org/2000/svg">
<g clip-path="url(#clip0_9001_269105)">
<path fill-rule="evenodd" clip-rule="evenodd" d="M9.21578 0.783784C10.2987 0.0727232 11.7005 0.0727227 12.7834 0.783784L20.8462 6.07791C22.5064 7.168 21.7345 9.74973 19.7485 9.74973H2.25073C0.264677 9.74973 -0.507174 7.168 1.15299 6.07791L9.21578 0.783784ZM11.7498 5C11.7498 4.58579 11.414 4.25 10.9998 4.25C10.5856 4.25 10.2498 4.58579 10.2498 5V6.5C10.2498 6.91421 10.5856 7.25 10.9998 7.25C11.414 7.25 11.7498 6.91421 11.7498 6.5V5Z" fill="#353566"/>
<path d="M4.24976 11.25C4.66397 11.25 4.99976 11.5858 4.99976 12V15C4.99976 15.4142 4.66397 15.75 4.24976 15.75C3.83554 15.75 3.49976 15.4142 3.49976 15V12C3.49976 11.5858 3.83554 11.25 4.24976 11.25Z" fill="#353566"/>
<path d="M8.74976 11.25C9.16397 11.25 9.49976 11.5858 9.49976 12V15C9.49976 15.4142 9.16397 15.75 8.74976 15.75C8.33554 15.75 7.99976 15.4142 7.99976 15V12C7.99976 11.5858 8.33554 11.25 8.74976 11.25Z" fill="#353566"/>
<path d="M1.74976 18C1.74976 17.5858 2.08554 17.25 2.49976 17.25H10.0905C10.5047 17.25 10.8405 17.5858 10.8405 18C10.8405 18.4142 10.5047 18.75 10.0905 18.75H2.49976C2.08554 18.75 1.74976 18.4142 1.74976 18Z" fill="#353566"/>
<path d="M0.249756 21C0.249756 20.5858 0.585542 20.25 0.999756 20.25H11.3578C11.772 20.25 12.1078 20.5858 12.1078 21C12.1078 21.4142 11.772 21.75 11.3578 21.75H0.999756C0.585542 21.75 0.249756 21.4142 0.249756 21Z" fill="#353566"/>
<path d="M19.9019 13.5517C20.8468 13.3556 22.0488 13.7049 22.8638 14.8092C23.7041 15.9477 23.7813 17.9092 22.6736 19.4463C21.9018 20.5175 20.3332 21.9543 19.3257 22.8349C19.3021 22.8557 19.2784 22.8766 19.2547 22.8976C19.0058 23.1173 18.7481 23.3448 18.4247 23.4404C18.1557 23.5199 17.8439 23.5199 17.5748 23.4404C17.2514 23.3448 16.9938 23.1173 16.7449 22.8976C16.7211 22.8766 16.6975 22.8557 16.6738 22.8349C15.6663 21.9544 14.0977 20.5175 13.3259 19.4463C12.2184 17.9092 12.2954 15.9478 13.1357 14.8092C13.9507 13.7049 15.1528 13.3556 16.0977 13.5517L16.0996 13.5521C16.8338 13.7076 17.4855 14.0554 17.9998 14.6007C18.5141 14.0554 19.1657 13.7076 19.8999 13.5521L19.9019 13.5517Z" fill="#353566"/>
</g>
<defs>
<clipPath id="clip0_9001_269105">
<rect width="24" height="24" fill="white"/>
</clipPath>
</defs>
</svg>
