<svg width="24" height="24" viewBox="0 0 24 24" fill="none" xmlns="http://www.w3.org/2000/svg">
<path fill-rule="evenodd" clip-rule="evenodd" d="M5.36819 1.25C4.62511 1.24999 4.02196 1.24999 3.53273 1.28996C3.02778 1.33121 2.57851 1.41876 2.16103 1.63148C1.50247 1.96703 0.967035 2.50247 0.631478 3.16103C0.418762 3.57851 0.331215 4.02778 0.289959 4.53273C0.249987 5.02196 0.249993 5.62511 0.25 6.36818V17.6318C0.249993 18.3749 0.249987 18.978 0.289959 19.4673C0.326058 19.9091 0.397598 20.3083 0.557423 20.6809C0.580255 20.7341 0.60489 20.7868 0.631479 20.839C0.967035 21.4975 1.50247 22.033 2.16104 22.3685C2.57851 22.5812 3.02778 22.6688 3.53273 22.71C4.02195 22.75 4.62507 22.75 5.36811 22.75L12.4942 22.75L12.5 22.75L12.791 22.75C12.9791 22.7499 13.151 22.6806 13.2826 22.5662C13.3078 22.5443 13.3316 22.5207 13.3538 22.4955C13.4671 22.3668 13.537 22.199 13.5406 22.0149C13.5408 22.0027 13.5408 21.9904 13.5404 21.9781C13.5377 21.8811 13.5165 21.7888 13.4803 21.7044C13.3319 21.3329 13.25 20.9269 13.25 20.5V17.25C13.25 16.2004 13.7461 15.2674 14.5216 14.6712L14.7019 14.5326C14.8738 14.4005 14.9801 14.2005 14.9934 13.9842L15.0074 13.7572C15.0979 12.2909 16.04 11.173 17.2875 10.6189C17.3514 10.5923 17.4109 10.5572 17.4645 10.5148C17.5013 10.4858 17.5351 10.4535 17.5656 10.4185C17.6805 10.2867 17.75 10.1145 17.75 9.92597V6.36819C17.75 5.62515 17.75 5.02195 17.71 4.53273C17.6688 4.02778 17.5812 3.57851 17.3685 3.16103C17.0539 2.54363 16.5637 2.03445 15.961 1.69672C15.9208 1.6742 15.8801 1.65245 15.839 1.63148C15.4215 1.41876 14.9722 1.33121 14.4673 1.28996C14.0086 1.25249 13.4498 1.25015 12.7695 1.25001L5.36819 1.25ZM10.75 15.5C11.3023 15.5 11.75 15.9477 11.75 16.5V21.25L6.25 21.25V16.5C6.25 15.9477 6.69772 15.5 7.25 15.5H10.75ZM12.75 6.5C12.75 6.91421 12.4142 7.25 12 7.25H11C10.5858 7.25 10.25 6.91421 10.25 6.5C10.25 6.08579 10.5858 5.75 11 5.75H12C12.4142 5.75 12.75 6.08579 12.75 6.5ZM12 10.25C12.4142 10.25 12.75 9.91421 12.75 9.5C12.75 9.08579 12.4142 8.75 12 8.75H11C10.5858 8.75 10.25 9.08579 10.25 9.5C10.25 9.91421 10.5858 10.25 11 10.25H12ZM12 13.25C12.4142 13.25 12.75 12.9142 12.75 12.5C12.75 12.0858 12.4142 11.75 12 11.75H11C10.5858 11.75 10.25 12.0858 10.25 12.5C10.25 12.9142 10.5858 13.25 11 13.25H12ZM7 10.25C7.41421 10.25 7.75 9.91421 7.75 9.5C7.75 9.08579 7.41421 8.75 7 8.75H6C5.58579 8.75 5.25 9.08579 5.25 9.5C5.25 9.91421 5.58579 10.25 6 10.25H7ZM7.75 6.5C7.75 6.91421 7.41421 7.25 7 7.25H6C5.58579 7.25 5.25 6.91421 5.25 6.5C5.25 6.08579 5.58579 5.75 6 5.75H7C7.41421 5.75 7.75 6.08579 7.75 6.5ZM7 13.25C7.41421 13.25 7.75 12.9142 7.75 12.5C7.75 12.0858 7.41421 11.75 7 11.75H6C5.58579 11.75 5.25 12.0858 5.25 12.5C5.25 12.9142 5.58579 13.25 6 13.25H7Z" fill="#353566"/>
<path fill-rule="evenodd" clip-rule="evenodd" d="M19 11.25C17.4286 11.25 16 12.4006 16 14V15.2677C15.1519 15.389 14.5 16.1184 14.5 17V20.75C14.5 21.7165 15.2835 22.5 16.25 22.5H21.75C22.7165 22.5 23.5 21.7165 23.5 20.75V17C23.5 16.1184 22.8481 15.389 22 15.2677V14C22 12.4006 20.5714 11.25 19 11.25ZM17.5 14C17.5 13.3902 18.0861 12.75 19 12.75C19.9139 12.75 20.5 13.3902 20.5 14V15H17.5V14Z" fill="#353566"/>
</svg>
