<svg width="24" height="24" viewBox="0 0 24 24" fill="none" xmlns="http://www.w3.org/2000/svg">
<path d="M7.5 2.75C5.98122 2.75 4.75 3.98122 4.75 5.5V9.58152C4.75 9.99573 4.41421 10.3315 4 10.3315C3.58579 10.3315 3.25 9.99573 3.25 9.58152V5.5C3.25 3.15279 5.15279 1.25 7.5 1.25H20.5C21.7426 1.25 22.75 2.25736 22.75 3.5V15.5C22.75 16.6581 21.875 17.6119 20.75 17.7363V21.25H22C22.4142 21.25 22.75 21.5858 22.75 22C22.75 22.4142 22.4142 22.75 22 22.75H13.2454C12.8312 22.75 12.4954 22.4142 12.4954 22C12.4954 21.5858 12.8312 21.25 13.2454 21.25H19.25V17.75H15C14.5858 17.75 14.25 17.4142 14.25 17C14.25 16.5858 14.5858 16.25 15 16.25H20.5C20.9142 16.25 21.25 15.9142 21.25 15.5V3.5C21.25 3.08579 20.9142 2.75 20.5 2.75H7.5Z" fill="#353566"/>
<path d="M9.44194 15.4419C9.68602 15.1979 9.68602 14.8021 9.44194 14.5581C9.19786 14.314 8.80214 14.314 8.55806 14.5581L4.55806 18.5581C4.31398 18.8021 4.31398 19.1979 4.55806 19.4419C4.80214 19.686 5.19786 19.686 5.44194 19.4419L9.44194 15.4419Z" fill="#353566"/>
<path d="M4.75 15.5C4.75 15.0858 5.08579 14.75 5.5 14.75C5.91421 14.75 6.2501 15.0858 6.2501 15.5C6.2501 15.9142 5.91431 16.25 5.5001 16.25C5.08589 16.25 4.75 15.9142 4.75 15.5Z" fill="#353566"/>
<path d="M8.5 17.75C8.08579 17.75 7.75 18.0858 7.75 18.5C7.75 18.9142 8.08579 19.25 8.5 19.25C8.91421 19.25 9.2501 18.9142 9.2501 18.5C9.2501 18.0858 8.91421 17.75 8.5 17.75Z" fill="#353566"/>
<path fill-rule="evenodd" clip-rule="evenodd" d="M1.25 17C1.25 13.8244 3.82436 11.25 7 11.25C10.1756 11.25 12.75 13.8244 12.75 17C12.75 20.1756 10.1756 22.75 7 22.75C3.82436 22.75 1.25 20.1756 1.25 17ZM7 12.75C4.65279 12.75 2.75 14.6528 2.75 17C2.75 19.3472 4.65279 21.25 7 21.25C9.34721 21.25 11.25 19.3472 11.25 17C11.25 14.6528 9.34721 12.75 7 12.75Z" fill="#353566"/>
</svg>
