<svg width="24" height="24" viewBox="0 0 24 24" fill="none" xmlns="http://www.w3.org/2000/svg">
<path d="M19.4419 4.30806C19.686 4.55214 19.686 4.94786 19.4419 5.19194L16.9419 7.69194C16.8244 7.80947 16.6649 7.87534 16.4987 7.875C16.3325 7.87466 16.1733 7.80813 16.0563 7.69013L14.5563 6.17778C14.3132 5.93271 14.3148 5.53698 14.5599 5.29391C14.8049 5.05083 15.2007 5.05245 15.4437 5.29753L16.5018 6.3643L18.5581 4.30806C18.8021 4.06398 19.1979 4.06398 19.4419 4.30806Z" fill="#353566"/>
<path fill-rule="evenodd" clip-rule="evenodd" d="M11.25 6C11.25 2.82436 13.8244 0.25 17 0.25C20.1756 0.25 22.75 2.82436 22.75 6C22.75 9.17564 20.1756 11.75 17 11.75C13.8244 11.75 11.25 9.17564 11.25 6ZM17 1.75C14.6528 1.75 12.75 3.65279 12.75 6C12.75 8.34721 14.6528 10.25 17 10.25C19.3472 10.25 21.25 8.34721 21.25 6C21.25 3.65279 19.3472 1.75 17 1.75Z" fill="#353566"/>
<path d="M5.12578 3.79176C4.6486 3.83072 4.36058 3.90252 4.13976 4.00969C3.36808 4.49077 3.08767 4.86076 2.94378 5.28179C2.77076 5.78802 2.75875 6.44848 2.75321 7.65932C2.75242 7.8314 2.75159 8.01288 2.75 8.20314V22.2102L7.89257 17.4636C8.32079 17.028 8.84153 16.6064 9.49991 16.6066C10.1578 16.6069 10.6787 17.0284 11.1071 17.4633L16.25 22.2102V14C16.25 13.5858 16.5858 13.25 17 13.25C17.4142 13.25 17.75 13.5858 17.75 14V22.281C17.75 23.0922 17.0922 23.75 16.281 23.75C15.9115 23.75 15.5556 23.6109 15.2838 23.3596L10.0763 18.5531C10.0671 18.5446 10.0582 18.5359 10.0494 18.527C9.85843 18.3322 9.72023 18.2204 9.61944 18.1592C9.57174 18.1302 9.53994 18.1173 9.52203 18.1116C9.5056 18.1063 9.49934 18.1066 9.49934 18.1066L9.49768 18.1067L9.49424 18.1071C9.49127 18.1076 9.48565 18.1087 9.47695 18.1115C9.45923 18.1171 9.42762 18.13 9.38011 18.1588C9.27972 18.2198 9.14184 18.3315 8.95121 18.5264C8.94227 18.5355 8.93309 18.5444 8.92369 18.5531L3.71622 23.3596C3.44443 23.611 3.08852 23.75 2.719 23.75C1.90779 23.75 1.25 23.0922 1.25 22.281L1.25003 8.1937C1.25161 8.00534 1.25243 7.82537 1.25323 7.65181L1.25369 7.54641C1.25831 6.47751 1.26226 5.56364 1.52439 4.79668C1.82247 3.92451 2.41706 3.31033 3.38 2.71583C3.39745 2.70506 3.41533 2.695 3.4336 2.6857C3.90445 2.44587 4.41538 2.34477 5.00372 2.29674C5.57634 2.24999 6.28458 2.24999 7.16763 2.25H9.58152C9.99573 2.25 10.3315 2.58579 10.3315 3C10.3315 3.41421 9.99573 3.75 9.58152 3.75H7.2C6.27713 3.75 5.63018 3.75058 5.12578 3.79176Z" fill="#353566"/>
</svg>
