<svg width="24" height="24" viewBox="0 0 24 24" fill="none" xmlns="http://www.w3.org/2000/svg">
<path d="M12.5105 3.51269C13.6885 2.41825 15.2651 1.75 16.9993 1.75C18.7342 1.75 20.3112 2.41869 21.4894 3.51379C21.7928 3.79579 22.2673 3.77845 22.5493 3.47506C22.8313 3.17166 22.814 2.69711 22.5106 2.4151C21.0659 1.07228 19.1278 0.25 16.9993 0.25C14.8716 0.25 12.9341 1.07172 11.4895 2.41375C11.1861 2.69568 11.1686 3.17023 11.4505 3.47369C11.7325 3.77716 12.207 3.79461 12.5105 3.51269Z" fill="#353566"/>
<path d="M5.12578 3.79176C4.6486 3.83072 4.36058 3.90252 4.13976 4.00969C3.36808 4.49077 3.08767 4.86076 2.94378 5.28179C2.77076 5.78802 2.75875 6.44848 2.75321 7.65932C2.75242 7.8314 2.75159 8.01288 2.75 8.20314V22.2102L7.89257 17.4636C8.32079 17.028 8.84153 16.6064 9.49991 16.6066C10.1578 16.6069 10.6787 17.0284 11.1071 17.4633L16.25 22.2102V11C16.25 10.5858 16.5858 10.25 17 10.25C17.4142 10.25 17.75 10.5858 17.75 11V22.281C17.75 23.0922 17.0922 23.75 16.281 23.75C15.9115 23.75 15.5556 23.6109 15.2838 23.3596L10.0763 18.5531C10.0671 18.5446 10.0582 18.5359 10.0494 18.527C9.85843 18.3322 9.72023 18.2204 9.61944 18.1592C9.57174 18.1302 9.53994 18.1173 9.52203 18.1116C9.5056 18.1063 9.49935 18.1066 9.49934 18.1066L9.49768 18.1067L9.49424 18.1071C9.49331 18.1073 9.49211 18.1075 9.49064 18.1078C9.48973 18.108 9.48871 18.1082 9.48759 18.1085C9.48475 18.1092 9.48122 18.1101 9.47695 18.1115C9.45923 18.1171 9.42762 18.13 9.38011 18.1588C9.27972 18.2198 9.14184 18.3315 8.95121 18.5264C8.94227 18.5355 8.93309 18.5444 8.92369 18.5531L3.71622 23.3596C3.44443 23.611 3.08852 23.75 2.719 23.75C1.90779 23.75 1.25 23.0922 1.25 22.281L1.25003 8.1937C1.25161 8.00534 1.25243 7.82537 1.25323 7.65181L1.25369 7.54641C1.25831 6.47751 1.26226 5.56364 1.52439 4.79668C1.82247 3.92451 2.41706 3.31033 3.38 2.71583C3.39745 2.70506 3.41533 2.695 3.4336 2.6857C3.90445 2.44587 4.41538 2.34477 5.00372 2.29674C5.57634 2.24999 6.28458 2.24999 7.16763 2.25H9.00022C9.41443 2.25 9.75022 2.58579 9.75022 3C9.75022 3.41421 9.41443 3.75 9.00022 3.75H7.2C6.27713 3.75 5.63018 3.75058 5.12578 3.79176Z" fill="#353566"/>
<path d="M17.0032 5.08331C16.2185 5.08331 15.5008 5.41385 14.9697 5.96488C14.6823 6.26313 14.2075 6.27189 13.9092 5.98444C13.611 5.697 13.6022 5.22221 13.8897 4.92396C14.6831 4.10069 15.7827 3.58331 17.0032 3.58331C18.2237 3.58331 19.3233 4.10069 20.1168 4.92396C20.4042 5.22221 20.3955 5.697 20.0972 5.98444C19.799 6.27189 19.3242 6.26313 19.0367 5.96488C18.5057 5.41385 17.7879 5.08331 17.0032 5.08331Z" fill="#353566"/>
<path d="M17 6.5C16.4477 6.5 16 6.94772 16 7.5C16 8.05228 16.4477 8.5 17 8.5C17.5523 8.5 18.0001 8.05228 18.0001 7.5C18.0001 6.94772 17.5523 6.5 17 6.5Z" fill="#353566"/>
</svg>
