<svg width="24" height="24" viewBox="0 0 24 24" fill="none" xmlns="http://www.w3.org/2000/svg">
<path fill-rule="evenodd" clip-rule="evenodd" d="M21.8767 6.59378C23.0424 4.97609 22.9754 2.89531 22.0653 1.66206C21.335 0.672604 20.085 0.0496547 18.8484 0.308881C18.1567 0.455313 17.5154 0.762599 17 1.24839C16.4847 0.7626 15.8434 0.455308 15.1517 0.308875C13.914 0.0519597 12.6662 0.671045 11.9348 1.66206C11.0246 2.89534 10.9578 4.9761 12.1234 6.59377C12.9146 7.69193 14.5055 9.1469 15.5095 10.0245C15.5312 10.0435 15.553 10.0626 15.575 10.082C15.842 10.3168 16.1312 10.5712 16.5042 10.6815C16.8196 10.7747 17.1805 10.7747 17.4959 10.6815C17.8689 10.5712 18.1582 10.3167 18.4252 10.0819C18.4471 10.0626 18.4689 10.0434 18.4905 10.0245C19.4946 9.14688 21.0854 7.69193 21.8767 6.59378ZM17.5943 2.83501C18.0107 2.29422 18.4779 1.92087 19.1575 1.77669C19.6186 1.68155 20.3302 1.83711 20.8584 2.5528C21.3491 3.21778 21.4772 4.58243 20.6597 5.71685C19.9852 6.65296 18.528 7.99951 17.5034 8.89509C17.4786 8.91678 17.4519 8.94071 17.424 8.96567C17.3094 9.06842 17.1752 9.18869 17.0727 9.24226C17.0291 9.25811 16.9711 9.25816 16.9274 9.24226C16.825 9.18883 16.6908 9.06856 16.5762 8.96584C16.5483 8.94081 16.5215 8.91682 16.4967 8.8951C15.4721 7.99951 14.0149 6.65297 13.3404 5.71687C12.5229 4.58242 12.6509 3.21777 13.1417 2.5528C13.6699 1.83711 14.3814 1.68155 14.8426 1.77669C15.5222 1.92087 15.9894 2.29422 16.4058 2.83501C16.5478 3.01939 16.7673 3.12742 17 3.12742C17.2328 3.12742 17.4523 3.01939 17.5943 2.83501Z" fill="#353566"/>
<path d="M5.12578 3.79176C4.6486 3.83072 4.36058 3.90252 4.13976 4.00969C3.36808 4.49077 3.08767 4.86076 2.94378 5.28179C2.77076 5.78802 2.75875 6.44848 2.75321 7.65932C2.75242 7.8314 2.75159 8.01288 2.75 8.20314V22.2102L7.89257 17.4636C8.32079 17.028 8.84153 16.6064 9.49991 16.6066C10.1578 16.6069 10.6787 17.0284 11.1071 17.4633L16.25 22.2102V12.5002C16.25 12.086 16.5858 11.7502 17 11.7502C17.4142 11.7502 17.75 12.086 17.75 12.5002V22.281C17.75 23.0922 17.0922 23.75 16.281 23.75C15.9115 23.75 15.5556 23.6109 15.2838 23.3596L10.0763 18.5531C10.0671 18.5446 10.0582 18.5359 10.0494 18.527C9.85843 18.3322 9.72023 18.2204 9.61944 18.1592C9.57174 18.1302 9.53994 18.1173 9.52203 18.1116C9.5056 18.1063 9.49934 18.1066 9.49934 18.1066L9.49768 18.1067L9.49424 18.1071C9.49127 18.1076 9.48565 18.1087 9.47695 18.1115C9.45923 18.1171 9.42762 18.13 9.38011 18.1588C9.27972 18.2198 9.14184 18.3315 8.95121 18.5264C8.94227 18.5355 8.93309 18.5444 8.92369 18.5531L3.71622 23.3596C3.44443 23.611 3.08852 23.75 2.719 23.75C1.90779 23.75 1.25 23.0922 1.25 22.281L1.25003 8.1937C1.25161 8.00534 1.25243 7.82537 1.25323 7.65181L1.25369 7.54641C1.25831 6.47751 1.26226 5.56364 1.52439 4.79668C1.82247 3.92451 2.41706 3.31033 3.38 2.71583C3.39745 2.70506 3.41533 2.695 3.4336 2.6857C3.90445 2.44587 4.41538 2.34477 5.00372 2.29674C5.57634 2.24999 6.28458 2.24999 7.16763 2.25H9.56805C9.98226 2.25 10.3181 2.58579 10.3181 3C10.3181 3.41421 9.98226 3.75 9.56805 3.75H7.2C6.27713 3.75 5.63018 3.75058 5.12578 3.79176Z" fill="#353566"/>
</svg>
