<svg width="24" height="24" viewBox="0 0 24 24" fill="none" xmlns="http://www.w3.org/2000/svg">
<path fill-rule="evenodd" clip-rule="evenodd" d="M5.66957 4.25H18.3304C18.8646 4.24999 19.3104 4.24998 19.6747 4.27974C20.0546 4.31078 20.4112 4.37789 20.7485 4.54973C21.2659 4.81338 21.6866 5.23408 21.9503 5.75153C22.1221 6.08879 22.1892 6.44545 22.2203 6.82533C22.25 7.18956 22.25 7.6354 22.25 8.16955V13C22.25 13.4142 21.9142 13.75 21.5 13.75C21.0858 13.75 20.75 13.4142 20.75 13V8.2C20.75 7.62757 20.7494 7.24336 20.7252 6.94748C20.7018 6.66036 20.6599 6.52307 20.6138 6.43251C20.4939 6.19731 20.3027 6.00608 20.0675 5.88624C19.9769 5.8401 19.8396 5.79822 19.5525 5.77476C19.2566 5.75058 18.8724 5.75 18.3 5.75H5.7C5.12757 5.75 4.74336 5.75058 4.44748 5.77476C4.16035 5.79822 4.02307 5.8401 3.93251 5.88624C3.69731 6.00608 3.50608 6.19731 3.38624 6.43251C3.3401 6.52307 3.29822 6.66036 3.27476 6.94748C3.25058 7.24336 3.25 7.62757 3.25 8.2V18.25H14.75L14.75 17.5738C14.75 17.3163 14.75 17.0798 14.7661 16.8821C14.7835 16.669 14.8234 16.4358 14.9407 16.2055C15.1085 15.8762 15.3762 15.6085 15.7055 15.4407C15.9358 15.3234 16.169 15.2835 16.3821 15.2661C16.5798 15.25 16.8163 15.25 17.0738 15.25H19.9262C20.1837 15.25 20.4202 15.25 20.6179 15.2661C20.831 15.2835 21.0642 15.3234 21.2945 15.4407C21.6238 15.6085 21.8915 15.8762 22.0593 16.2055C22.1766 16.4358 22.2165 16.669 22.2339 16.8821C22.25 17.0798 22.25 17.3163 22.25 17.5738V18.25H23C23.4142 18.25 23.75 18.5858 23.75 19C23.75 19.4142 23.4142 19.75 23 19.75H1C0.585786 19.75 0.25 19.4142 0.25 19C0.25 18.5858 0.585786 18.25 1 18.25H1.75L1.75 8.16957C1.74999 7.63541 1.74998 7.18956 1.77974 6.82533C1.81078 6.44545 1.87789 6.08879 2.04973 5.75153C2.31338 5.23408 2.73408 4.81338 3.25153 4.54973C3.58879 4.37789 3.94544 4.31078 4.32533 4.27974C4.68956 4.24998 5.13541 4.24999 5.66957 4.25ZM16.25 18.25H20.75V17.6C20.75 17.3076 20.7494 17.1334 20.7389 17.0043C20.7324 16.9255 20.7239 16.8923 20.7212 16.8835C20.6977 16.8388 20.6612 16.8023 20.6165 16.7788C20.6077 16.7761 20.5745 16.7676 20.4957 16.7611C20.3666 16.7506 20.1924 16.75 19.9 16.75H17.1C16.8076 16.75 16.6334 16.7506 16.5043 16.7611C16.4255 16.7676 16.3923 16.7761 16.3835 16.7788C16.3388 16.8023 16.3023 16.8388 16.2788 16.8835C16.2761 16.8923 16.2676 16.9255 16.2611 17.0043C16.2506 17.1334 16.25 17.3076 16.25 17.6V18.25ZM16.2797 16.8809L16.2792 16.8824ZM16.3809 16.7797L16.3823 16.7792ZM20.6191 16.7797L20.6176 16.7792ZM20.7203 16.8809L20.7208 16.8824Z" fill="#353566"/>
</svg>
