<svg width="24" height="24" viewBox="0 0 24 24" fill="none" xmlns="http://www.w3.org/2000/svg">
<path fill-rule="evenodd" clip-rule="evenodd" d="M6.05005 11.8038C6.05005 10.9129 7.12719 10.4667 7.75716 11.0967L12.9036 16.2431C13.5336 16.8731 13.0874 17.9502 12.1965 17.9502H7.05005C6.49776 17.9502 6.05005 17.5025 6.05005 16.9502V11.8038ZM7.55005 13.0109V16.4502H10.9894L7.55005 13.0109Z" fill="#353566"/>
<path fill-rule="evenodd" clip-rule="evenodd" d="M1.25 3.75483C1.25 1.52758 3.94285 0.412145 5.51777 1.98706L22.0129 18.4822C23.5878 20.0571 22.4724 22.75 20.2451 22.75H4.25C2.59315 22.75 1.25 21.4068 1.25 19.75V3.75483ZM4.45711 3.04772C3.82715 2.41776 2.75 2.86392 2.75 3.75483V19.75C2.75 20.5784 3.42157 21.25 4.25 21.25H20.2451C21.136 21.25 21.5822 20.1728 20.9522 19.5428L19.235 17.8256L18.5303 18.5303C18.2374 18.8232 17.7626 18.8232 17.4697 18.5303C17.1768 18.2374 17.1768 17.7625 17.4697 17.4696L18.1743 16.7649L16.235 14.8256L15.5303 15.5303C15.2374 15.8232 14.7626 15.8232 14.4697 15.5303C14.1768 15.2374 14.1768 14.7625 14.4697 14.4696L15.1743 13.7649L13.235 11.8256L12.5303 12.5303C12.2374 12.8232 11.7626 12.8232 11.4697 12.5303C11.1768 12.2374 11.1768 11.7625 11.4697 11.4696L12.1743 10.7649L10.235 8.82561L9.53033 9.53027C9.23744 9.82316 8.76256 9.82316 8.46967 9.53027C8.17678 9.23738 8.17678 8.7625 8.46967 8.46961L9.17433 7.76495L7.23499 5.82561L6.53033 6.53027C6.23744 6.82316 5.76256 6.82316 5.46967 6.53027C5.17678 6.23738 5.17678 5.7625 5.46967 5.46961L6.17433 4.76495L4.45711 3.04772Z" fill="#353566"/>
</svg>
