<svg width="24" height="24" viewBox="0 0 24 24" fill="none" xmlns="http://www.w3.org/2000/svg">
<path fill-rule="evenodd" clip-rule="evenodd" d="M17.7222 2.5H6.27779C5.45653 2.5 4.80954 2.49999 4.28889 2.54253C3.75771 2.58593 3.31414 2.67609 2.91103 2.88148C2.25247 3.21703 1.71703 3.75247 1.38148 4.41103C1.17609 4.81414 1.08593 5.25771 1.04253 5.78889C0.999994 6.30954 0.999997 6.95652 1 7.77778V14.2222C0.999997 15.0435 0.999994 15.6905 1.04253 16.2111C1.08593 16.7423 1.17609 17.1859 1.38148 17.589C1.71703 18.2475 2.25247 18.783 2.91103 19.1185C3.31413 19.3239 3.75771 19.4141 4.28889 19.4575C4.80954 19.5 5.45651 19.5 6.27778 19.5H13.6128C13.889 19.5 14.1128 19.2761 14.1128 19C14.1128 18.7239 13.889 18.5 13.6128 18.5H6.3C5.45167 18.5 4.84549 18.4996 4.37032 18.4608C3.90099 18.4224 3.60366 18.3491 3.36502 18.2275C2.89462 17.9878 2.51217 17.6054 2.27248 17.135C2.15089 16.8963 2.07756 16.599 2.03921 16.1297C2.00039 15.6545 2 15.0483 2 14.2V9H22V11.2597C22 11.5358 22.2239 11.7597 22.5 11.7597C22.7761 11.7597 23 11.5358 23 11.2597V7.77778C23 6.95652 23 6.30954 22.9575 5.78889C22.9141 5.25771 22.8239 4.81413 22.6185 4.41103C22.283 3.75247 21.7475 3.21703 21.089 2.88148C20.6859 2.67609 20.2423 2.58593 19.7111 2.54253C19.1905 2.49999 18.5435 2.5 17.7222 2.5ZM22 8H2V7.8C2 6.95167 2.00039 6.34549 2.03921 5.87032C2.07756 5.40099 2.15089 5.10366 2.27248 4.86502C2.51217 4.39462 2.89462 4.01217 3.36502 3.77248C3.60366 3.65089 3.90099 3.57756 4.37032 3.53921C4.84549 3.50039 5.45167 3.5 6.3 3.5H17.7C18.5483 3.5 19.1545 3.50039 19.6297 3.53921C20.099 3.57756 20.3963 3.65089 20.635 3.77248C21.1054 4.01217 21.4878 4.39462 21.7275 4.86502C21.8491 5.10366 21.9224 5.40099 21.9608 5.87032C21.9996 6.3455 22 6.95167 22 7.8V8Z" fill="#353566"/>
<path d="M5.5 14C5.22386 14 5 14.2239 5 14.5C5 14.7761 5.22386 15 5.5 15H10C10.2761 15 10.5 14.7761 10.5 14.5C10.5 14.2239 10.2761 14 10 14H5.5Z" fill="#353566"/>
<path d="M18.5 12.7749V12C18.5 11.7239 18.7239 11.5 19 11.5C19.2761 11.5 19.5 11.7239 19.5 12V12.7708C19.8289 12.801 20.1294 12.8671 20.4344 12.988C20.8749 13.1627 21.294 13.4404 21.8019 13.8249C22.022 13.9916 22.0653 14.3052 21.8987 14.5254C21.732 14.7455 21.4183 14.7889 21.1982 14.6222C20.706 14.2495 20.3752 14.0404 20.0657 13.9176C19.7679 13.7995 19.4604 13.75 19 13.75C18.321 13.75 17.8089 13.91 17.4808 14.1476C17.1677 14.3743 17 14.6843 17 15.0817C17 15.573 17.2356 15.8639 17.6193 16.0786C18.0345 16.311 18.5791 16.4229 19.0822 16.5068C19.5791 16.5896 20.2845 16.7214 20.8693 17.0488C21.4856 17.3938 22 17.9788 22 18.9183C22 19.6495 21.6677 20.2554 21.1058 20.6623C20.6725 20.9761 20.1194 21.1616 19.5 21.2251V22C19.5 22.2761 19.2761 22.5 19 22.5C18.7239 22.5 18.5 22.2761 18.5 22V21.2292C18.1711 21.199 17.8706 21.1329 17.5657 21.0119C17.1252 20.8372 16.706 20.5596 16.1982 20.175C15.978 20.0083 15.9347 19.6947 16.1014 19.4746C16.2681 19.2544 16.5817 19.2111 16.8019 19.3778C17.2941 19.7505 17.6249 19.9596 17.9344 20.0824C18.2322 20.2005 18.5396 20.25 19 20.25C19.679 20.25 20.1912 20.09 20.5193 19.8524C20.8323 19.6257 21 19.3157 21 18.9183C21 18.427 20.7644 18.1361 20.3808 17.9214C19.9656 17.689 19.421 17.5771 18.9178 17.4932C18.421 17.4104 17.7156 17.2786 17.1308 16.9512C16.5144 16.6062 16 16.0212 16 15.0817C16 14.3505 16.3323 13.7446 16.8942 13.3377C17.3275 13.0239 17.8806 12.8384 18.5 12.7749Z" fill="#353566"/>
</svg>
