<svg width="24" height="24" viewBox="0 0 24 24" fill="none" xmlns="http://www.w3.org/2000/svg">
<path fill-rule="evenodd" clip-rule="evenodd" d="M2.35355 1.64645C2.15829 1.45118 1.84171 1.45118 1.64645 1.64645C1.45118 1.84171 1.45118 2.15829 1.64645 2.35355L3.21388 3.92099C3.20391 3.92592 3.19396 3.93092 3.18404 3.93597C2.43139 4.31947 1.81947 4.93139 1.43597 5.68404C1.20334 6.14062 1.09956 6.64594 1.04935 7.26049C0.999995 7.86451 0.999997 8.61646 1 9.57755V14.4224C0.999997 15.3835 0.999995 16.1355 1.04935 16.7395C1.09956 17.3541 1.20334 17.8594 1.43597 18.316C1.81947 19.0686 2.43139 19.6805 3.18404 20.064C3.64062 20.2967 4.14594 20.4004 4.76049 20.4507C5.36451 20.5 6.11646 20.5 7.07754 20.5H16.967C18.1401 20.5 19.0094 20.5001 19.6928 20.3999L21.6464 22.3536C21.8417 22.5488 22.1583 22.5488 22.3536 22.3536C22.5488 22.1583 22.5488 21.8417 22.3536 21.6464L20.2221 19.515C20.2187 19.5115 20.2153 19.508 20.2118 19.5047L14.4752 13.7681L4.49608 3.78897C4.49263 3.78542 4.48914 3.78193 4.4856 3.77849L2.35355 1.64645ZM3.983 4.69011C3.85578 4.72837 3.74264 4.77368 3.63803 4.82698C3.07354 5.1146 2.6146 5.57354 2.32698 6.13803C2.17814 6.43014 2.09118 6.78921 2.04602 7.34192C2.00039 7.90047 2 8.61166 2 9.6V14.4C2 15.3883 2.00039 16.0995 2.04602 16.6581C2.09118 17.2108 2.17814 17.5699 2.32698 17.862C2.6146 18.4265 3.07354 18.8854 3.63803 19.173C3.93014 19.3219 4.28921 19.4088 4.84192 19.454C5.40047 19.4996 6.11166 19.5 7.1 19.5H16.9C17.6799 19.5 18.2837 19.4992 18.7707 19.4778L14.0961 14.8032C13.5119 15.2405 12.786 15.5 12 15.5C10.067 15.5 8.5 13.933 8.5 12C8.5 11.214 8.7595 10.4881 9.19684 9.90395L3.983 4.69011ZM9.91414 10.6212C9.65221 11.0166 9.5 11.4902 9.5 12C9.5 13.3807 10.6193 14.5 12 14.5C12.5098 14.5 12.9834 14.3478 13.3788 14.0859L9.91414 10.6212Z" fill="#353566"/>
<path d="M16.9 4.5C17.8883 4.5 18.5995 4.50039 19.1581 4.54602C19.7108 4.59118 20.0699 4.67814 20.362 4.82698C20.9265 5.1146 21.3854 5.57354 21.673 6.13803C21.8219 6.43014 21.9088 6.78921 21.954 7.34192C21.9996 7.90047 22 8.61166 22 9.6V14.4C22 15.3883 21.9996 16.0995 21.954 16.6581C21.9088 17.2108 21.8219 17.5699 21.673 17.862L21.6644 17.8787C21.5375 18.1239 21.6334 18.4256 21.8787 18.5525C22.1239 18.6795 22.4256 18.5836 22.5526 18.3383L22.564 18.316C22.7967 17.8594 22.9004 17.3541 22.9507 16.7395C23 16.1355 23 15.3835 23 14.4225V9.57754C23 8.61646 23 7.86451 22.9507 7.26049C22.9004 6.64594 22.7967 6.14062 22.564 5.68404C22.1805 4.93139 21.5686 4.31947 20.816 3.93597C20.3594 3.70334 19.8541 3.59956 19.2395 3.54935C18.6355 3.49999 17.8835 3.5 16.9224 3.5H8C7.72386 3.5 7.5 3.72386 7.5 4C7.5 4.27614 7.72386 4.5 8 4.5H16.9Z" fill="#353566"/>
</svg>
