<svg width="24" height="24" viewBox="0 0 24 24" fill="none" xmlns="http://www.w3.org/2000/svg">
<path d="M6.57755 2.5H16.4224C17.3835 2.5 18.1355 2.49999 18.7395 2.54935C19.3541 2.59956 19.8594 2.70334 20.316 2.93597C21.0686 3.31947 21.6805 3.93139 22.064 4.68404C22.2967 5.14062 22.4004 5.64594 22.4507 6.26049C22.5 6.86451 22.5 7.61646 22.5 8.57754V9.04352C22.5 9.31967 22.2761 9.54352 22 9.54352C21.7239 9.54352 21.5 9.31967 21.5 9.04352V8.6C21.5 7.61166 21.4996 6.90047 21.454 6.34192C21.4088 5.78921 21.3219 5.43014 21.173 5.13803C20.8854 4.57354 20.4265 4.1146 19.862 3.82698C19.5699 3.67814 19.2108 3.59118 18.6581 3.54602C18.0995 3.50039 17.3883 3.5 16.4 3.5H6.6C5.61166 3.5 4.90047 3.50039 4.34192 3.54602C3.78921 3.59118 3.43014 3.67814 3.13803 3.82698C2.57354 4.1146 2.1146 4.57354 1.82698 5.13803C1.67814 5.43014 1.59118 5.78921 1.54602 6.34192C1.50039 6.90047 1.5 7.61166 1.5 8.6V13.4C1.5 14.3883 1.50039 15.0995 1.54602 15.6581C1.59118 16.2108 1.67814 16.5699 1.82698 16.862C2.1146 17.4265 2.57354 17.8854 3.13803 18.173C3.43014 18.3219 3.78921 18.4088 4.34192 18.454C4.90047 18.4996 5.61166 18.5 6.6 18.5H13.0523C13.3284 18.5 13.5523 18.7239 13.5523 19C13.5523 19.2761 13.3284 19.5 13.0523 19.5H6.57754C5.61646 19.5 4.86451 19.5 4.26049 19.4507C3.64594 19.4004 3.14062 19.2967 2.68404 19.064C1.93139 18.6805 1.31947 18.0686 0.935974 17.316C0.703335 16.8594 0.599556 16.3541 0.549345 15.7395C0.499995 15.1355 0.499997 14.3835 0.5 13.4225V8.57756C0.499997 7.61647 0.499995 6.86451 0.549345 6.26049C0.599556 5.64594 0.703335 5.14062 0.935974 4.68404C1.31947 3.93139 1.93139 3.31947 2.68404 2.93597C3.14062 2.70334 3.64594 2.59956 4.26049 2.54935C4.86451 2.49999 5.61647 2.5 6.57755 2.5Z" fill="#353566"/>
<path fill-rule="evenodd" clip-rule="evenodd" d="M11.5046 14.5L11.5092 14.5C13.4504 14.5 15 12.8463 15 11C15 9.067 13.433 7.5 11.5 7.5C9.567 7.5 8 9.067 8 11C8 12.933 9.567 14.5 11.5 14.5L11.5046 14.5ZM11.5 8.5C10.1193 8.5 9 9.61929 9 11C9 12.3807 10.1193 13.5 11.5 13.5L11.5046 13.5L11.5092 13.5C12.8781 13.5 14 12.3142 14 11C14 9.61929 12.8807 8.5 11.5 8.5Z" fill="#353566"/>
<path d="M4.25 11C4.25 10.5858 4.58579 10.25 5 10.25C5.41421 10.25 5.7501 10.5858 5.7501 11C5.7501 11.4142 5.41431 11.75 5.0001 11.75C4.58589 11.75 4.25 11.4142 4.25 11Z" fill="#353566"/>
<path fill-rule="evenodd" clip-rule="evenodd" d="M20.5009 11.5007C20.5009 10.555 19.3101 10.1386 18.72 10.8762L14.72 15.8756C14.196 16.5306 14.663 17.4998 15.5009 17.4998H17.5009V20.4992C17.5009 21.4449 18.6917 21.8613 19.2818 21.1237L23.2818 16.1243C23.8058 15.4693 23.3388 14.5001 22.5009 14.5001H20.5009V11.5007ZM19.5009 11.5007V14.5003C19.5009 15.0527 19.9489 15.5001 20.5009 15.5001H22.5005L18.501 20.499L18.5009 17.4996C18.5009 16.9472 18.0529 16.4998 17.5009 16.4998H15.5013L19.5009 11.5007Z" fill="#353566"/>
</svg>
