<svg width="24" height="24" viewBox="0 0 24 24" fill="none" xmlns="http://www.w3.org/2000/svg">
<path d="M1.25 2C1.25 2.41421 1.58579 2.75 2 2.75L22 2.75C22.4142 2.75 22.75 2.41421 22.75 2C22.75 1.58579 22.4142 1.25 22 1.25L2 1.25C1.58579 1.25 1.25 1.58579 1.25 2Z" fill="#353566"/>
<path d="M3.75 19.6289L3.75 8.37109C3.74999 7.97573 3.74998 7.63466 3.77293 7.35373C3.79715 7.05722 3.85064 6.76231 3.99524 6.47852C4.21095 6.05516 4.55516 5.71095 4.97852 5.49524C5.26231 5.35064 5.55722 5.29715 5.85373 5.27293C6.13466 5.24998 6.47573 5.24999 6.87108 5.25H7.62891C8.02427 5.24999 8.36535 5.24998 8.64627 5.27293C8.94278 5.29715 9.23769 5.35064 9.52148 5.49524C9.94484 5.71095 10.2891 6.05516 10.5048 6.47852C10.6494 6.76231 10.7028 7.05722 10.7271 7.35373C10.75 7.63466 10.75 7.97574 10.75 8.3711L10.75 19.6289C10.75 20.0243 10.75 20.3653 10.7271 20.6463C10.7028 20.9428 10.6494 21.2377 10.5048 21.5215C10.2891 21.9448 9.94485 22.2891 9.52148 22.5048C9.2377 22.6494 8.94278 22.7028 8.64627 22.7271C8.36537 22.75 8.02434 22.75 7.62902 22.75H6.87108C6.47576 22.75 6.13463 22.75 5.85373 22.7271C5.55722 22.7028 5.26231 22.6494 4.97852 22.5048C4.55516 22.2891 4.21095 21.9448 3.99524 21.5215C3.85064 21.2377 3.79715 20.9428 3.77293 20.6463C3.74998 20.3653 3.74999 20.0243 3.75 19.6289Z" fill="#353566"/>
<path d="M13.25 13.6289L13.25 8.37109C13.25 7.97575 13.25 7.63465 13.2729 7.35373C13.2972 7.05722 13.3506 6.76231 13.4952 6.47852C13.711 6.05516 14.0552 5.71095 14.4785 5.49524C14.7623 5.35064 15.0572 5.29715 15.3537 5.27293C15.6347 5.24998 15.9757 5.24999 16.3711 5.25L17.1289 5.25C17.5243 5.24999 17.8653 5.24998 18.1463 5.27293C18.4428 5.29715 18.7377 5.35064 19.0215 5.49524C19.4448 5.71095 19.7891 6.05516 20.0048 6.47852C20.1494 6.76231 20.2028 7.05722 20.2271 7.35373C20.25 7.63466 20.25 7.97574 20.25 8.3711V13.6289C20.25 14.0243 20.25 14.3653 20.2271 14.6463C20.2028 14.9428 20.1494 15.2377 20.0048 15.5215C19.7891 15.9448 19.4448 16.2891 19.0215 16.5048C18.7377 16.6494 18.4428 16.7028 18.1463 16.7271C17.8653 16.75 17.5243 16.75 17.1289 16.75H16.3711C15.9757 16.75 15.6347 16.75 15.3537 16.7271C15.0572 16.7028 14.7623 16.6494 14.4785 16.5048C14.0552 16.2891 13.711 15.9448 13.4952 15.5215C13.3506 15.2377 13.2972 14.9428 13.2729 14.6463C13.25 14.3654 13.25 14.0243 13.25 13.6289Z" fill="#353566"/>
</svg>
