<svg width="24" height="24" viewBox="0 0 24 24" fill="none" xmlns="http://www.w3.org/2000/svg">
<path d="M12 1.25C12.4142 1.25 12.75 1.58579 12.75 2V4.75H18.6207C19.0231 4.74999 19.3553 4.74999 19.6259 4.7721C19.907 4.79506 20.1653 4.84434 20.408 4.96799C20.7843 5.15973 21.0903 5.4657 21.282 5.84202C21.4057 6.08469 21.4549 6.34304 21.4779 6.62409C21.5 6.89467 21.5 7.22683 21.5 7.62928V7.87066C21.5 8.27312 21.5 8.60533 21.4779 8.87591C21.4549 9.15696 21.4057 9.41531 21.282 9.65798C21.0903 10.0343 20.7843 10.3403 20.408 10.532C20.1653 10.6557 19.907 10.7049 19.6259 10.7279C19.3553 10.75 19.0231 10.75 18.6207 10.75H12.75V13.25H14.6206C15.0231 13.25 15.3553 13.25 15.6259 13.2721C15.907 13.2951 16.1653 13.3443 16.408 13.468C16.7843 13.6597 17.0903 13.9657 17.282 14.342C17.4057 14.5847 17.4549 14.843 17.4779 15.1241C17.5 15.3947 17.5 15.7269 17.5 16.1293V16.3707C17.5 16.7731 17.5 17.1053 17.4779 17.3759C17.4549 17.657 17.4057 17.9153 17.282 18.158C17.0903 18.5343 16.7843 18.8403 16.408 19.032C16.1653 19.1557 15.907 19.2049 15.6259 19.2279C15.3553 19.25 15.0231 19.25 14.6207 19.25H12.75V22C12.75 22.4142 12.4142 22.75 12 22.75C11.5858 22.75 11.25 22.4142 11.25 22V19.25H9.37934C8.97686 19.25 8.64468 19.25 8.37409 19.2279C8.09304 19.2049 7.83469 19.1557 7.59202 19.032C7.2157 18.8403 6.90973 18.5343 6.71799 18.158C6.59434 17.9153 6.54506 17.657 6.5221 17.3759C6.49999 17.1053 6.49999 16.7731 6.5 16.3707V16.1294C6.49999 15.7269 6.49999 15.3947 6.5221 15.1241C6.54506 14.843 6.59434 14.5847 6.71799 14.342C6.90973 13.9657 7.2157 13.6597 7.59202 13.468C7.83469 13.3443 8.09304 13.2951 8.37409 13.2721C8.64467 13.25 8.97684 13.25 9.3793 13.25H11.25V10.75H5.37934C4.97686 10.75 4.64468 10.75 4.37409 10.7279C4.09304 10.7049 3.83469 10.6557 3.59202 10.532C3.2157 10.3403 2.90973 10.0343 2.71799 9.65798C2.59434 9.41531 2.54506 9.15696 2.5221 8.87591C2.49999 8.60532 2.49999 8.27314 2.5 7.87066V7.62935C2.49999 7.22687 2.49999 6.89468 2.5221 6.62409C2.54506 6.34304 2.59434 6.08469 2.71799 5.84202C2.90973 5.4657 3.2157 5.15973 3.59202 4.96799C3.83469 4.84434 4.09304 4.79506 4.37409 4.7721C4.64469 4.74999 4.97687 4.74999 5.37935 4.75H11.25V2C11.25 1.58579 11.5858 1.25 12 1.25Z" fill="#353566"/>
</svg>
