<svg width="24" height="24" viewBox="0 0 24 24" fill="none" xmlns="http://www.w3.org/2000/svg">
<path d="M1.25 3.75C1.25 2.36929 2.36929 1.25 3.75 1.25H17.25C18.6307 1.25 19.75 2.36929 19.75 3.75V4.25H20C21.5188 4.25 22.75 5.48122 22.75 7V10C22.75 11.5188 21.5188 12.75 20 12.75H12.5C11.8096 12.75 11.25 13.3096 11.25 14V15.25H11.5C12.4665 15.25 13.25 16.0335 13.25 17V21C13.25 21.9665 12.4665 22.75 11.5 22.75H9.5C8.5335 22.75 7.75 21.9665 7.75 21V17C7.75 16.0335 8.5335 15.25 9.5 15.25H9.75V14C9.75 12.4812 10.9812 11.25 12.5 11.25H20C20.6904 11.25 21.25 10.6904 21.25 10V7C21.25 6.30964 20.6904 5.75 20 5.75H19.75V6.25C19.75 7.63071 18.6307 8.75 17.25 8.75H3.75C2.36929 8.75 1.25 7.63071 1.25 6.25V3.75Z" fill="#353566"/>
</svg>
