<svg width="24" height="24" viewBox="0 0 24 24" fill="none" xmlns="http://www.w3.org/2000/svg">
<path d="M21 5.75C21.414 5.75 21.75 5.414 21.75 5H21.752C21.752 4.586 21.416 4.25 21.002 4.25H18.286C17.769 4.25 17.667 4.243 17.586 4.218C17.492 4.19 17.404 4.143 17.328 4.08C17.262 4.026 17.199 3.946 16.913 3.516L16.2894 2.58054C16.0749 2.25879 15.8855 1.9748 15.627 1.762C15.398 1.574 15.135 1.433 14.852 1.347C14.529 1.25 14.186 1.25 13.797 1.25H10.204C9.814 1.25 9.472 1.25 9.15 1.347C8.867 1.433 8.603 1.574 8.375 1.762C8.11618 1.9752 7.92817 2.25724 7.71442 2.57788L7.089 3.516C6.803 3.945 6.74 4.026 6.674 4.08C6.598 4.142 6.51 4.189 6.416 4.218C6.334 4.242 6.232 4.25 5.716 4.25H3C2.586 4.25 2.25 4.586 2.25 5C2.25 5.414 2.586 5.75 3 5.75H21Z" fill="#353566"/>
<path fill-rule="evenodd" clip-rule="evenodd" d="M19.307 7.25C19.56 7.25 19.687 7.25 19.783 7.293H19.785C19.914 7.35 20.012 7.459 20.057 7.592C20.0896 7.69083 20.0783 7.81506 20.0558 8.06121L20.055 8.07L19.1164 18.126C19.0541 18.7972 19.0033 19.3447 18.926 19.789C18.846 20.253 18.729 20.662 18.505 21.039C18.15 21.636 17.626 22.114 16.998 22.412C16.602 22.6 16.183 22.678 15.714 22.715C15.26 22.75 14.705 22.75 14.023 22.75H9.98C9.298 22.75 8.742 22.75 8.289 22.715C7.82 22.678 7.401 22.6 7.005 22.412C6.378 22.114 5.853 21.636 5.498 21.039C5.274 20.662 5.157 20.253 5.077 19.789C5 19.341 4.948 18.788 4.885 18.109L3.948 8.07C3.924 7.818 3.913 7.692 3.946 7.592C3.991 7.458 4.089 7.35 4.218 7.293C4.314 7.25 4.441 7.25 4.694 7.25H19.307ZM8.26192 14.3097C7.86078 14.2064 7.6193 13.7975 7.72254 13.3964C8.2128 11.4916 9.941 10.0833 12 10.0833C13.1184 10.0833 14.1391 10.499 14.9167 11.1835V10.8334C14.9167 10.4192 15.2525 10.0834 15.6667 10.0834C16.0809 10.0834 16.4167 10.4192 16.4167 10.8334V13.0333C16.4167 13.4475 16.0809 13.7833 15.6667 13.7833H15.3797C15.3678 13.7836 15.356 13.7836 15.3443 13.7833H13.4667C13.0525 13.7833 12.7167 13.4475 12.7167 13.0333C12.7167 12.6191 13.0525 12.2833 13.4667 12.2833H13.8959C13.3857 11.8467 12.7233 11.5833 12 11.5833C10.642 11.5833 9.49902 12.5121 9.1752 13.7703C9.07195 14.1714 8.66306 14.4129 8.26192 14.3097ZM8.33333 18.9167C8.74755 18.9167 9.08333 18.5809 9.08333 18.1667V17.8166C9.86098 18.5011 10.8816 18.9167 12 18.9167C14.0591 18.9167 15.7873 17.5084 16.2775 15.6036C16.3808 15.2024 16.1393 14.7936 15.7381 14.6903C15.337 14.5871 14.9281 14.8286 14.8249 15.2297C14.501 16.4879 13.3581 17.4167 12 17.4167C11.2767 17.4167 10.6144 17.1534 10.1042 16.7167H10.5333C10.9475 16.7167 11.2833 16.3809 11.2833 15.9667C11.2833 15.5525 10.9475 15.2167 10.5333 15.2167H8.65608C8.6441 15.2164 8.63209 15.2164 8.62006 15.2167H8.33333C8.13442 15.2167 7.94365 15.2957 7.803 15.4364C7.66235 15.577 7.58333 15.7678 7.58333 15.9667V18.1667C7.58333 18.5809 7.91912 18.9167 8.33333 18.9167Z" fill="#353566"/>
</svg>
