<svg width="24" height="24" viewBox="0 0 24 24" fill="none" xmlns="http://www.w3.org/2000/svg">
<g opacity="0.4">
<path d="M8 4.5C8 5.88071 6.88071 7 5.5 7C4.11929 7 3 5.88071 3 4.5C3 3.11929 4.11929 2 5.5 2C6.88071 2 8 3.11929 8 4.5Z" fill="#353566"/>
<path d="M8 19.5C8 20.8807 6.88071 22 5.5 22C4.11929 22 3 20.8807 3 19.5C3 18.1193 4.11929 17 5.5 17C6.88071 17 8 18.1193 8 19.5Z" fill="#353566"/>
<path d="M18.5 22C19.8807 22 21 20.8807 21 19.5C21 18.1193 19.8807 17 18.5 17C17.1193 17 16 18.1193 16 19.5C16 20.8807 17.1193 22 18.5 22Z" fill="#353566"/>
</g>
<path fill-rule="evenodd" clip-rule="evenodd" d="M6 7.45852C7.41886 7.22048 8.5 5.9865 8.5 4.5C8.5 2.84315 7.15685 1.5 5.5 1.5C3.84315 1.5 2.5 2.84315 2.5 4.5C2.5 5.9865 3.58114 7.22048 5 7.45852V16.5415C3.58114 16.7795 2.5 18.0135 2.5 19.5C2.5 21.1569 3.84315 22.5 5.5 22.5C7.15685 22.5 8.5 21.1569 8.5 19.5C8.5 18.0135 7.41886 16.7795 6 16.5415V7.45852ZM3.5 4.5C3.5 3.39543 4.39543 2.5 5.5 2.5C6.60457 2.5 7.5 3.39543 7.5 4.5C7.5 5.60457 6.60457 6.5 5.5 6.5C4.39543 6.5 3.5 5.60457 3.5 4.5ZM3.5 19.5C3.5 18.3954 4.39543 17.5 5.5 17.5C6.60457 17.5 7.5 18.3954 7.5 19.5C7.5 20.6046 6.60457 21.5 5.5 21.5C4.39543 21.5 3.5 20.6046 3.5 19.5Z" fill="#353566"/>
<path d="M18.5 2C17.9477 2 17.5 2.44772 17.5 3C17.5 3.55228 17.9477 4 18.5 4C19.0523 4 19.5001 3.55228 19.5001 3C19.5001 2.44772 19.0523 2 18.5 2Z" fill="#353566"/>
<path d="M17.5 10.5C17.5 9.94771 17.9477 9.5 18.5 9.5C19.0523 9.5 19.5001 9.94771 19.5001 10.5C19.5001 11.0523 19.0524 11.5 18.5001 11.5C17.9478 11.5 17.5 11.0523 17.5 10.5Z" fill="#353566"/>
<path fill-rule="evenodd" clip-rule="evenodd" d="M18.5 16.5C16.8431 16.5 15.5 17.8431 15.5 19.5C15.5 21.1569 16.8431 22.5 18.5 22.5C20.1569 22.5 21.5 21.1569 21.5 19.5C21.5 17.8431 20.1569 16.5 18.5 16.5ZM16.5 19.5C16.5 18.3954 17.3954 17.5 18.5 17.5C19.6046 17.5 20.5 18.3954 20.5 19.5C20.5 20.6046 19.6046 21.5 18.5 21.5C17.3954 21.5 16.5 20.6046 16.5 19.5Z" fill="#353566"/>
</svg>
