<svg width="24" height="24" viewBox="0 0 24 24" fill="none" xmlns="http://www.w3.org/2000/svg">
<g opacity="0.4">
<path d="M8 4.5C8 5.88071 6.88071 7 5.5 7C4.11929 7 3 5.88071 3 4.5C3 3.11929 4.11929 2 5.5 2C6.88071 2 8 3.11929 8 4.5Z" fill="#353566"/>
<path d="M8 19.5C8 20.8807 6.88071 22 5.5 22C4.11929 22 3 20.8807 3 19.5C3 18.1193 4.11929 17 5.5 17C6.88071 17 8 18.1193 8 19.5Z" fill="#353566"/>
<path d="M18.5 7C19.8807 7 21 5.88071 21 4.5C21 3.11929 19.8807 2 18.5 2C17.1193 2 16 3.11929 16 4.5C16 5.88071 17.1193 7 18.5 7Z" fill="#353566"/>
</g>
<path fill-rule="evenodd" clip-rule="evenodd" d="M6 7.45852C7.41886 7.22048 8.5 5.9865 8.5 4.5C8.5 2.84315 7.15685 1.5 5.5 1.5C3.84315 1.5 2.5 2.84315 2.5 4.5C2.5 5.9865 3.58114 7.22048 5 7.45852V16.5415C3.58114 16.7795 2.5 18.0135 2.5 19.5C2.5 21.1569 3.84315 22.5 5.5 22.5C7.15685 22.5 8.5 21.1569 8.5 19.5C8.5 18.0135 7.41886 16.7795 6 16.5415V15C6 13.8954 6.89543 13 8 13H16C17.6569 13 19 11.6569 19 10V7.45852C20.4189 7.22048 21.5 5.9865 21.5 4.5C21.5 2.84315 20.1569 1.5 18.5 1.5C16.8431 1.5 15.5 2.84315 15.5 4.5C15.5 5.9865 16.5811 7.22048 18 7.45852V10C18 11.1046 17.1046 12 16 12H8C7.23165 12 6.53076 12.2889 6 12.7639V7.45852ZM3.5 4.5C3.5 3.39543 4.39543 2.5 5.5 2.5C6.60457 2.5 7.5 3.39543 7.5 4.5C7.5 5.60457 6.60457 6.5 5.5 6.5C4.39543 6.5 3.5 5.60457 3.5 4.5ZM18.5 6.5C19.6046 6.5 20.5 5.60457 20.5 4.5C20.5 3.39543 19.6046 2.5 18.5 2.5C17.3954 2.5 16.5 3.39543 16.5 4.5C16.5 5.60457 17.3954 6.5 18.5 6.5ZM3.5 19.5C3.5 18.3954 4.39543 17.5 5.5 17.5C6.60457 17.5 7.5 18.3954 7.5 19.5C7.5 20.6046 6.60457 21.5 5.5 21.5C4.39543 21.5 3.5 20.6046 3.5 19.5Z" fill="#353566"/>
</svg>
