<svg width="24" height="24" viewBox="0 0 24 24" fill="none" xmlns="http://www.w3.org/2000/svg">
<path opacity="0.4" d="M1.5 5C1.5 4.72386 1.72386 4.5 2 4.5H7.3101C7.89395 4.5 8.44865 4.75513 8.82861 5.19842L14.23 11.5H21.5C21.7761 11.5 22 11.7239 22 12C22 12.2761 21.7761 12.5 21.5 12.5H14.23L8.82861 18.8016C8.44865 19.2449 7.89395 19.5 7.3101 19.5H2C1.72386 19.5 1.5 19.2761 1.5 19C1.5 18.7239 1.72386 18.5 2 18.5H7.3101C7.60202 18.5 7.87937 18.3724 8.06935 18.1508L13.3415 12L8.06935 5.84921C7.87937 5.62756 7.60202 5.5 7.3101 5.5H2C1.72386 5.5 1.5 5.27614 1.5 5Z" fill="#353566"/>
<path d="M17.6464 7.64645C17.4512 7.84171 17.4512 8.15829 17.6464 8.35355L21.2929 12L17.6464 15.6464C17.4512 15.8417 17.4512 16.1583 17.6464 16.3536C17.8417 16.5488 18.1583 16.5488 18.3536 16.3536L22.3536 12.3536C22.5488 12.1583 22.5488 11.8417 22.3536 11.6464L18.3536 7.64645C18.1583 7.45118 17.8417 7.45118 17.6464 7.64645Z" fill="#353566"/>
</svg>
