<svg width="24" height="24" viewBox="0 0 24 24" fill="none" xmlns="http://www.w3.org/2000/svg">
<path opacity="0.4" d="M22 5C22 4.72386 21.7761 4.5 21.5 4.5H15.1899C14.6061 4.5 14.0514 4.75513 13.6714 5.19842L8.27003 11.5H2C1.72386 11.5 1.5 11.7239 1.5 12C1.5 12.2761 1.72386 12.5 2 12.5H8.27003L13.6714 18.8016C14.0514 19.2449 14.6061 19.5 15.1899 19.5H21.5C21.7761 19.5 22 19.2761 22 19C22 18.7239 21.7761 18.5 21.5 18.5H15.1899C14.898 18.5 14.6206 18.3724 14.4306 18.1508L9.15854 12L14.4306 5.84921C14.6206 5.62756 14.898 5.5 15.1899 5.5H21.5C21.7761 5.5 22 5.27614 22 5Z" fill="#353566"/>
<path d="M18.6464 2.35355C18.4512 2.15829 18.4512 1.84171 18.6464 1.64645C18.8417 1.45118 19.1583 1.45118 19.3536 1.64645L22.3536 4.64645C22.5488 4.84171 22.5488 5.15829 22.3536 5.35355L19.3536 8.35355C19.1583 8.54882 18.8417 8.54882 18.6464 8.35355C18.4512 8.15829 18.4512 7.84171 18.6464 7.64645L21.2929 5L18.6464 2.35355Z" fill="#353566"/>
<path d="M18.6464 16.3536C18.4512 16.1583 18.4512 15.8417 18.6464 15.6464C18.8417 15.4512 19.1583 15.4512 19.3536 15.6464L22.3536 18.6464C22.5488 18.8417 22.5488 19.1583 22.3536 19.3536L19.3536 22.3536C19.1583 22.5488 18.8417 22.5488 18.6464 22.3536C18.4512 22.1583 18.4512 21.8417 18.6464 21.6464L21.2929 19L18.6464 16.3536Z" fill="#353566"/>
</svg>
