<svg width="24" height="24" viewBox="0 0 24 24" fill="none" xmlns="http://www.w3.org/2000/svg">
<path d="M1.46967 7.03033C1.76256 7.32322 2.23744 7.32322 2.53033 7.03033L5.75 3.81066V22C5.75 22.4142 6.08579 22.75 6.5 22.75C6.91421 22.75 7.25 22.4142 7.25 22V3.81066L10.4697 7.03033C10.7626 7.32322 11.2374 7.32322 11.5303 7.03033C11.8232 6.73744 11.8232 6.26256 11.5303 5.96967L7.03033 1.46967C6.73744 1.17678 6.26256 1.17678 5.96967 1.46967L1.46967 5.96967C1.17678 6.26256 1.17678 6.73744 1.46967 7.03033Z" fill="#353566"/>
<path d="M13.5303 16.9697C13.2374 16.6768 12.7626 16.6768 12.4697 16.9697C12.1768 17.2626 12.1768 17.7374 12.4697 18.0303L16.9697 22.5303C17.2626 22.8232 17.7374 22.8232 18.0303 22.5303L22.5303 18.0303C22.8232 17.7374 22.8232 17.2626 22.5303 16.9697C22.2374 16.6768 21.7626 16.6768 21.4697 16.9697L18.25 20.1893V2C18.25 1.58579 17.9142 1.25 17.5 1.25C17.0858 1.25 16.75 1.58579 16.75 2V20.1893L13.5303 16.9697Z" fill="#353566"/>
</svg>
