<svg width="24" height="24" viewBox="0 0 24 24" fill="none" xmlns="http://www.w3.org/2000/svg">
<g clip-path="url(#clip0_9001_267098)">
<path d="M9.2803 13.2196C8.9874 12.9268 8.51252 12.9268 8.21964 13.2197C7.92677 13.5126 7.92679 13.9875 8.2197 14.2804L11.47 17.5304C11.6107 17.671 11.8015 17.75 12.0004 17.75C12.1993 17.75 12.39 17.671 12.5307 17.5303L15.7804 14.2803C16.0732 13.9874 16.0732 13.5125 15.7803 13.2196C15.4874 12.9268 15.0125 12.9268 14.7196 13.2197L12.75 15.1895V10C12.75 9.58579 12.4142 9.25 12 9.25C11.5858 9.25 11.25 9.58579 11.25 10V15.1891L9.2803 13.2196Z" fill="#353566"/>
<path d="M7 6.25C6.58579 6.25 6.25 6.58579 6.25 7C6.25 7.41421 6.58579 7.75 7 7.75H17C17.4142 7.75 17.75 7.41421 17.75 7C17.75 6.58579 17.4142 6.25 17 6.25H7Z" fill="#353566"/>
<path fill-rule="evenodd" clip-rule="evenodd" d="M12 0.25C5.51065 0.25 0.25 5.51065 0.25 12C0.25 18.4893 5.51065 23.75 12 23.75C18.4893 23.75 23.75 18.4893 23.75 12C23.75 5.51065 18.4893 0.25 12 0.25ZM1.75 12C1.75 6.33908 6.33908 1.75 12 1.75C17.6609 1.75 22.25 6.33908 22.25 12C22.25 17.6609 17.6609 22.25 12 22.25C6.33908 22.25 1.75 17.6609 1.75 12Z" fill="#353566"/>
</g>
<defs>
<clipPath id="clip0_9001_267098">
<rect width="24" height="24" fill="white"/>
</clipPath>
</defs>
</svg>
