<svg width="24" height="24" viewBox="0 0 24 24" fill="none" xmlns="http://www.w3.org/2000/svg">
<g clip-path="url(#clip0_9001_267173)">
<path d="M1.75 12C1.75 6.33908 6.33908 1.75 12 1.75C17.6609 1.75 22.25 6.33908 22.25 12C22.25 15.9822 19.9793 19.4353 16.6586 21.1328C16.2898 21.3213 16.1437 21.7731 16.3322 22.142C16.5207 22.5108 16.9726 22.6569 17.3414 22.4684C21.144 20.5245 23.75 16.5672 23.75 12C23.75 5.51065 18.4893 0.25 12 0.25C5.51065 0.25 0.25 5.51065 0.25 12C0.25 17.5795 4.13819 22.2491 9.35206 23.4502C11.2856 23.8957 12.75 22.2338 12.75 20.5V10.8107L15.4697 13.5303C15.7626 13.8232 16.2374 13.8232 16.5303 13.5303C16.8232 13.2374 16.8232 12.7626 16.5303 12.4697L12.5303 8.46967C12.3897 8.32902 12.1989 8.25 12 8.25C11.8011 8.25 11.6103 8.32902 11.4697 8.46967L7.46967 12.4697C7.17678 12.7626 7.17678 13.2374 7.46967 13.5303C7.76256 13.8232 8.23744 13.8232 8.53033 13.5303L11.25 10.8107V20.5C11.25 21.5276 10.4462 22.163 9.68881 21.9885C5.1407 20.9407 1.75 16.8654 1.75 12Z" fill="#353566"/>
</g>
<defs>
<clipPath id="clip0_9001_267173">
<rect width="24" height="24" fill="white"/>
</clipPath>
</defs>
</svg>
