<svg width="24" height="24" viewBox="0 0 24 24" fill="none" xmlns="http://www.w3.org/2000/svg">
<path fill-rule="evenodd" clip-rule="evenodd" d="M21.7902 2.20995C20.4085 0.828193 18.1299 0.964224 16.9223 2.50056L13.775 6.50474C13.69 6.61291 13.5336 6.63205 13.425 6.54758L10.5814 4.33562C9.78523 3.71627 8.65242 3.78679 7.93917 4.5001L7.1033 5.33605C6.37784 6.06158 6.32628 7.20579 6.94863 7.99082L2.05375 12.8857C0.979807 13.9596 0.979804 15.7008 2.05375 16.7748L7.22532 21.9464C7.81952 22.5406 8.61798 22.806 9.39467 22.7427C9.42906 22.7475 9.46421 22.75 9.49994 22.75H17.9999C18.4142 22.75 18.7499 22.4142 18.7499 22C18.7499 21.5858 18.4142 21.25 17.9999 21.25H11.8108L16.0093 17.0515C16.7944 17.6738 17.9386 17.6221 18.6641 16.8966L19.5 16.0606C20.2132 15.3474 20.2836 14.2147 19.6643 13.4185L17.4527 10.5753C17.3682 10.4667 17.3874 10.3103 17.4955 10.2253L21.4997 7.07778C23.036 5.8702 23.1719 3.59167 21.7902 2.20995ZM14.9392 16.0002L7.99987 9.0609L3.11441 13.9464C2.62625 14.4345 2.62625 15.226 3.11441 15.7141L3.44016 16.0399L6.95988 13.6934C7.18725 13.5418 7.45815 13.8127 7.30657 14.0401L4.96009 17.5598L8.28598 20.8857C8.77414 21.3739 9.56559 21.3739 10.0537 20.8857L14.9392 16.0002ZM16.5322 15.4719L16.8963 15.836C17.0915 16.0313 17.4081 16.0312 17.6034 15.836L18.4393 15C18.6176 14.8217 18.6352 14.5385 18.4803 14.3395L16.2687 11.4963C15.6775 10.7361 15.8114 9.64112 16.5686 9.04598L20.5727 5.8985C21.4021 5.24659 21.4755 4.01652 20.7296 3.27061C19.9836 2.52467 18.7535 2.59811 18.1016 3.42749L14.9544 7.43168C14.3592 8.18885 13.2642 8.32286 12.504 7.73155L9.66044 5.51959C9.46139 5.36475 9.17819 5.38238 8.99988 5.56071L8.16401 6.39666C7.96876 6.59193 7.96877 6.9085 8.16402 7.10375L8.52818 7.4679L8.5302 7.46991L16.5302 15.4699L16.5322 15.4719Z" fill="#353566"/>
</svg>
