<svg width="24" height="24" viewBox="0 0 24 24" fill="none" xmlns="http://www.w3.org/2000/svg">
<path d="M1.25 22C1.25 21.5858 1.58579 21.25 2 21.25H22C22.4142 21.25 22.75 21.5858 22.75 22C22.75 22.4142 22.4142 22.75 22 22.75H2C1.58579 22.75 1.25 22.4142 1.25 22Z" fill="#353566"/>
<path fill-rule="evenodd" clip-rule="evenodd" d="M3.75 15.6289L3.75 4.37109C3.74999 3.97573 3.74997 3.63466 3.77293 3.35373C3.79715 3.05722 3.85064 2.76231 3.99524 2.47852C4.21095 2.05516 4.55516 1.71095 4.97852 1.49524C5.26231 1.35064 5.55722 1.29715 5.85373 1.27293C6.13463 1.24998 6.47567 1.24999 6.87098 1.25L7.62893 1.25C8.02424 1.24999 8.36537 1.24998 8.64627 1.27293C8.94278 1.29715 9.23769 1.35064 9.52148 1.49524C9.94484 1.71095 10.2891 2.05516 10.5048 2.47852C10.6494 2.76231 10.7028 3.05722 10.7271 3.35373C10.75 3.63466 10.75 3.97574 10.75 4.3711L10.75 15.6289C10.75 16.0243 10.75 16.3653 10.7271 16.6463C10.7028 16.9428 10.6494 17.2377 10.5048 17.5215C10.2891 17.9448 9.94485 18.2891 9.52148 18.5048C9.2377 18.6494 8.94278 18.7028 8.64627 18.7271C8.36535 18.75 8.02428 18.75 7.62892 18.75H6.87109C6.47574 18.75 6.13466 18.75 5.85373 18.7271C5.55722 18.7028 5.26231 18.6494 4.97852 18.5048C4.55516 18.2891 4.21095 17.9448 3.99524 17.5215C3.85064 17.2377 3.79715 16.9428 3.77293 16.6463C3.74998 16.3653 3.74999 16.0243 3.75 15.6289ZM5.26795 16.5241C5.28459 16.7279 5.31285 16.8034 5.33175 16.8405C5.40365 16.9816 5.51839 17.0964 5.65951 17.1683C5.69659 17.1872 5.77213 17.2154 5.97588 17.2321C6.18838 17.2494 6.46759 17.25 6.9 17.25H7.6C8.03242 17.25 8.31162 17.2494 8.52413 17.2321C8.72787 17.2154 8.80341 17.1872 8.84049 17.1683C8.98162 17.0964 9.09635 16.9816 9.16826 16.8405C9.18715 16.8034 9.21541 16.7279 9.23206 16.5241C9.24942 16.3116 9.25 16.0324 9.25 15.6L9.25 4.4C9.25 3.96759 9.24942 3.68838 9.23206 3.47588C9.21541 3.27213 9.18715 3.19659 9.16826 3.15951C9.09635 3.01839 8.98162 2.90365 8.84049 2.83175C8.80341 2.81285 8.72787 2.78459 8.52412 2.76795C8.31162 2.75059 8.03242 2.75 7.6 2.75L6.9 2.75C6.46759 2.75 6.18838 2.75059 5.97588 2.76795C5.77213 2.78459 5.69659 2.81285 5.65951 2.83175C5.51839 2.90365 5.40365 3.01839 5.33175 3.15951C5.31285 3.19659 5.28459 3.27213 5.26795 3.47588C5.25058 3.68838 5.25 3.96759 5.25 4.4L5.25 15.6C5.25 16.0324 5.25058 16.3116 5.26795 16.5241Z" fill="#353566"/>
<path fill-rule="evenodd" clip-rule="evenodd" d="M13.25 10.3711L13.25 15.6289C13.25 16.0243 13.25 16.3654 13.2729 16.6463C13.2972 16.9428 13.3506 17.2377 13.4952 17.5215C13.711 17.9448 14.0552 18.2891 14.4785 18.5048C14.7623 18.6494 15.0572 18.7028 15.3537 18.7271C15.6347 18.75 15.9757 18.75 16.3711 18.75H17.1289C17.5243 18.75 17.8653 18.75 18.1463 18.7271C18.4428 18.7028 18.7377 18.6494 19.0215 18.5048C19.4448 18.2891 19.7891 17.9448 20.0048 17.5215C20.1494 17.2377 20.2028 16.9428 20.2271 16.6463C20.25 16.3653 20.25 16.0243 20.25 15.6289V10.3711C20.25 9.97573 20.25 9.63466 20.2271 9.35373C20.2028 9.05722 20.1494 8.76231 20.0048 8.47852C19.7891 8.05516 19.4448 7.71095 19.0215 7.49524C18.7377 7.35064 18.4428 7.29715 18.1463 7.27293C17.8653 7.24998 17.5243 7.24999 17.1289 7.25L16.3711 7.25C15.9757 7.24999 15.6347 7.24998 15.3537 7.27293C15.0572 7.29715 14.7623 7.35064 14.4785 7.49524C14.0552 7.71095 13.711 8.05516 13.4952 8.47852C13.3506 8.76231 13.2972 9.05722 13.2729 9.35373C13.25 9.63465 13.25 9.97575 13.25 10.3711ZM14.8317 16.8405C14.8129 16.8034 14.7846 16.7279 14.7679 16.5241C14.7506 16.3116 14.75 16.0324 14.75 15.6L14.75 10.4C14.75 9.96759 14.7506 9.68838 14.7679 9.47588C14.7846 9.27213 14.8129 9.19659 14.8317 9.15951C14.9037 9.01839 15.0184 8.90365 15.1595 8.83175C15.1966 8.81285 15.2721 8.78459 15.4759 8.76795C15.6884 8.75059 15.9676 8.75 16.4 8.75L17.1 8.75C17.5324 8.75 17.8116 8.75059 18.0241 8.76795C18.2279 8.78459 18.3034 8.81285 18.3405 8.83175C18.4816 8.90365 18.5964 9.01839 18.6683 9.15951C18.6872 9.19659 18.7154 9.27213 18.7321 9.47588C18.7494 9.68838 18.75 9.96759 18.75 10.4V15.6C18.75 16.0324 18.7494 16.3116 18.7321 16.5241C18.7154 16.7279 18.6872 16.8034 18.6683 16.8405C18.5964 16.9816 18.4816 17.0964 18.3405 17.1683C18.3034 17.1872 18.2279 17.2154 18.0241 17.2321C17.8116 17.2494 17.5324 17.25 17.1 17.25H16.4C15.9676 17.25 15.6884 17.2494 15.4759 17.2321C15.2721 17.2154 15.1966 17.1872 15.1595 17.1683C15.0184 17.0964 14.9037 16.9816 14.8317 16.8405Z" fill="#353566"/>
</svg>
