<svg width="24" height="24" viewBox="0 0 24 24" fill="none" xmlns="http://www.w3.org/2000/svg">
<path d="M15 8C15 7.44772 15.4477 7 16 7C16.5523 7 17.0001 7.44772 17.0001 8C17.0001 8.55228 16.5524 9 16.0001 9C15.4478 9 15 8.55228 15 8Z" fill="#353566"/>
<path d="M11.5 5C10.9477 5 10.5 5.44772 10.5 6C10.5 6.55228 10.9477 7 11.5 7C12.0523 7 12.5001 6.55228 12.5001 6C12.5001 5.44772 12.0523 5 11.5 5Z" fill="#353566"/>
<path d="M6 9C6 8.44772 6.44772 8 7 8C7.55228 8 8.0001 8.44772 8.0001 9C8.0001 9.55229 7.55238 10 7.0001 10C6.44782 10 6 9.55229 6 9Z" fill="#353566"/>
<path d="M7 13C6.44772 13 6 13.4477 6 14C6 14.5523 6.44772 15 7 15C7.55228 15 8.0001 14.5523 8.0001 14C8.0001 13.4477 7.55228 13 7 13Z" fill="#353566"/>
<path fill-rule="evenodd" clip-rule="evenodd" d="M1.25 12.0562C1.25 6.09066 6.10788 1.25 12 1.25C17.8101 1.25 22.75 5.50977 22.75 11C22.75 13.3144 21.5405 14.787 20.0992 15.6445C18.6953 16.4798 17.0571 16.75 16.0107 16.75H15C13.8858 16.75 13.3034 17.1014 13.0585 17.4644C12.8229 17.8136 12.7452 18.4067 13.1716 19.2644C13.4641 19.8527 13.5994 20.4311 13.5153 20.9728C13.4279 21.5365 13.1169 21.9683 12.7003 22.2573C11.923 22.7966 10.8025 22.8392 9.84777 22.6413C4.97375 21.631 1.25 17.277 1.25 12.0562ZM12 2.75C6.93975 2.75 2.75 6.91564 2.75 12.0562C2.75 16.5495 5.95834 20.3032 10.1522 21.1725C10.9249 21.3327 11.5544 21.2267 11.8453 21.0249C11.9628 20.9434 12.0154 20.8565 12.033 20.7429C12.0541 20.6073 12.0359 20.3495 11.8284 19.9322C11.2548 18.7786 11.1761 17.5726 11.815 16.6255C12.4447 15.6922 13.6123 15.25 15 15.25H16.0107C16.8586 15.25 18.215 15.0202 19.3322 14.3555C20.412 13.713 21.25 12.6856 21.25 11C21.25 6.49023 17.1423 2.75 12 2.75Z" fill="#353566"/>
</svg>
