<svg width="24" height="24" viewBox="0 0 24 24" fill="none" xmlns="http://www.w3.org/2000/svg">
<path fill-rule="evenodd" clip-rule="evenodd" d="M19.5025 3.377C19.0004 3.21385 18.4595 3.21385 17.9574 3.377C17.626 3.48469 17.353 3.67242 17.0943 3.89202C16.8476 4.10146 16.5694 4.37964 16.2409 4.70819L6.91311 14.0359C6.75956 14.1893 6.62406 14.3246 6.51232 14.4827C6.41401 14.6218 6.33181 14.7716 6.26731 14.9292C6.19399 15.1084 6.15265 15.2954 6.10581 15.5073L5.37404 18.807C5.33384 18.9882 5.29339 19.1704 5.27363 19.3249C5.25293 19.4869 5.23764 19.7285 5.33917 19.9798C5.4662 20.2942 5.71552 20.5436 6.02995 20.6706C6.28127 20.7721 6.52287 20.7568 6.68481 20.7361C6.83934 20.7164 7.02157 20.6759 7.2027 20.6357L10.5024 19.9039C10.7143 19.8571 10.9013 19.8157 11.0805 19.7424C11.2381 19.6779 11.3879 19.5957 11.527 19.4974C11.6851 19.3857 11.8205 19.2502 11.9738 19.0966L21.3014 9.76897C21.63 9.44039 21.9082 9.16218 22.1177 8.91544C22.3373 8.65676 22.525 8.38376 22.6327 8.05231C22.7959 7.5502 22.7959 7.00933 22.6327 6.50722C22.525 6.17577 22.3373 5.90277 22.1177 5.64409C21.9083 5.3974 21.6301 5.11925 21.3016 4.79075L21.2191 4.70828C20.8906 4.3797 20.6124 4.10148 20.3656 3.89202C20.107 3.67242 19.834 3.48469 19.5025 3.377ZM18.4209 4.80358C18.6218 4.73832 18.8381 4.73832 19.039 4.80358C19.1071 4.82572 19.2071 4.87616 19.3949 5.03553C19.5893 5.20059 19.8243 5.43473 20.1795 5.78999L20.2197 5.8302C20.575 6.18546 20.8091 6.42043 20.9742 6.61485C21.1336 6.80258 21.184 6.90262 21.2061 6.97075C21.2714 7.17159 21.2714 7.38794 21.2061 7.58878C21.184 7.65691 21.1336 7.75695 20.9742 7.94468C20.8091 8.1391 20.575 8.37407 20.2197 8.72933L19.2549 9.6942L16.3155 6.75486L17.2804 5.78999C17.6357 5.43473 17.8706 5.20059 18.065 5.03553C18.2528 4.87616 18.3528 4.82572 18.4209 4.80358ZM15.2549 7.81552L8.00487 15.0655C7.80337 15.267 7.7657 15.3082 7.73726 15.3484C7.70449 15.3948 7.67709 15.4447 7.65559 15.4973C7.63693 15.5429 7.62243 15.5968 7.56073 15.875L6.82725 19.1825L10.1347 18.449C10.4129 18.3873 10.4668 18.3728 10.5124 18.3541C10.565 18.3326 10.6149 18.3052 10.6613 18.2725C10.7015 18.244 10.7427 18.2064 10.9442 18.0049L18.1942 10.7549L15.2549 7.81552Z" fill="#353566"/>
<path d="M1.25 6C1.25 5.58579 1.58579 5.25 2 5.25H10C10.4142 5.25 10.75 5.58579 10.75 6C10.75 6.41421 10.4142 6.75 10 6.75H2C1.58579 6.75 1.25 6.41421 1.25 6Z" fill="#353566"/>
<path d="M2 9.25C1.58579 9.25 1.25 9.58579 1.25 10C1.25 10.4142 1.58579 10.75 2 10.75H7C7.41421 10.75 7.75 10.4142 7.75 10C7.75 9.58579 7.41421 9.25 7 9.25H2Z" fill="#353566"/>
</svg>
