<svg width="24" height="24" viewBox="0 0 24 24" fill="none" xmlns="http://www.w3.org/2000/svg">
<path d="M22.6128 5.32125C22.4958 4.96125 22.2908 4.66125 22.0448 4.37125C21.8078 4.09225 21.4928 3.77725 21.1148 3.39925L20.5968 2.88125C20.2188 2.50325 19.9038 2.18825 19.6258 1.95225C19.3348 1.70525 19.0358 1.50125 18.6758 1.38425C18.1238 1.20525 17.5288 1.20525 16.9758 1.38425C16.6158 1.50125 16.3168 1.70625 16.0258 1.95225C15.7468 2.18825 15.4318 2.50425 15.0548 2.88125L6.2778 11.6583C5.1558 12.7793 4.5408 13.3953 4.0208 14.0793C3.2018 15.1553 2.5588 16.3553 2.1158 17.6333C1.8348 18.4453 1.6628 19.2993 1.3498 20.8563L1.3338 20.9382C1.3068 21.0712 1.2798 21.2073 1.2648 21.3223C1.2488 21.4433 1.2348 21.6222 1.2848 21.8162C1.3988 22.2562 1.7418 22.6003 2.1828 22.7143C2.3768 22.7643 2.5558 22.7503 2.6768 22.7343C2.7928 22.7193 2.9278 22.6923 3.0608 22.6653L3.1428 22.6493C4.6998 22.3363 5.5538 22.1643 6.3658 21.8833C7.6438 21.4413 8.8438 20.7983 9.9198 19.9783C10.6038 19.4573 11.2198 18.8412 12.3428 17.7192L18.4978 11.5642L18.7708 11.8373C19.0768 12.1433 19.2738 12.3413 19.4118 12.5033C19.5438 12.6593 19.5778 12.7323 19.5908 12.7723C19.6398 12.9233 19.6398 13.0853 19.5908 13.2363C19.5778 13.2763 19.5448 13.3492 19.4118 13.5052C19.2738 13.6682 19.0768 13.8653 18.7708 14.1713L15.9678 16.9743C15.6748 17.2673 15.6748 17.7422 15.9678 18.0352C16.2608 18.3282 16.7358 18.3282 17.0288 18.0352L19.8518 15.2123C20.1318 14.9323 20.3728 14.6913 20.5548 14.4763C20.7478 14.2493 20.9178 14.0033 21.0168 13.7003C21.1638 13.2483 21.1638 12.7613 21.0168 12.3093C20.9188 12.0063 20.7478 11.7603 20.5548 11.5333C20.3728 11.3183 20.1308 11.0773 19.8518 10.7973L19.5588 10.5043L21.1178 8.94525C21.4958 8.56725 21.8108 8.25225 22.0468 7.97425C22.2938 7.68325 22.4978 7.38425 22.6148 7.02425C22.7948 6.47225 22.7948 5.87725 22.6148 5.32425L22.6128 5.32125ZM11.3248 16.6113C10.1458 17.7903 9.6028 18.3303 9.0088 18.7833C8.0598 19.5063 7.0008 20.0733 5.8728 20.4643C5.1718 20.7073 4.4268 20.8592 2.8128 21.1842C3.1378 19.5702 3.2898 18.8253 3.5328 18.1243C3.9228 16.9963 4.4908 15.9383 5.2138 14.9883C5.6658 14.3943 6.2058 13.8523 7.3828 12.6743L13.4948 6.56225L17.4338 10.5013L11.3238 16.6113H11.3248ZM21.1858 6.55725C21.1548 6.65425 21.0868 6.78025 20.9008 7.00025C20.7088 7.22625 20.4378 7.49825 20.0328 7.90325L18.4958 9.44025L14.5568 5.50125L16.0948 3.96325C16.4988 3.55825 16.7718 3.28725 16.9978 3.09525C17.2178 2.90925 17.3438 2.84125 17.4408 2.81025C17.6918 2.72825 17.9618 2.72825 18.2128 2.81025C18.3098 2.84125 18.4358 2.90925 18.6558 3.09525C18.8818 3.28725 19.1538 3.55825 19.5588 3.96325L20.0328 4.43825C20.4378 4.84325 20.7088 5.11525 20.9008 5.34125C21.0868 5.56125 21.1548 5.68725 21.1858 5.78425C21.2678 6.03525 21.2678 6.30525 21.1858 6.55725Z" fill="#353566"/>
</svg>
