<svg width="24" height="24" viewBox="0 0 24 24" fill="none" xmlns="http://www.w3.org/2000/svg">
<path fill-rule="evenodd" clip-rule="evenodd" d="M9.13084 20.9299C9.09975 20.961 9.06937 20.9915 9.03939 21.0211L9.03033 21.0303C9.0256 21.035 9.02083 21.0397 9.01601 21.0443C9.01487 21.0453 9.01374 21.0464 9.01261 21.0475C8.89919 21.1587 8.7901 21.2584 8.6676 21.3439C8.52309 21.4448 8.36722 21.5283 8.20321 21.5928C8.01677 21.6662 7.82231 21.7052 7.60193 21.7494L3.16217 22.643C2.98735 22.6782 2.80998 22.7139 2.65927 22.7302C2.49975 22.7475 2.26511 22.7575 2.0213 22.6567C1.71417 22.5298 1.47021 22.2859 1.34332 21.9788C1.24259 21.7349 1.25253 21.5003 1.26981 21.3408C1.28614 21.1901 1.32186 21.0128 1.35708 20.8379L2.2507 16.3981C2.2949 16.1778 2.3339 15.9833 2.40722 15.7968C2.47171 15.6328 2.55525 15.477 2.65612 15.3324C2.74156 15.21 2.84058 15.1017 2.95064 14.9894C2.95684 14.9827 2.96318 14.9761 2.96967 14.9697L2.98112 14.9584C3.00917 14.9301 3.0379 14.9014 3.06726 14.8721L12.9633 4.97611L12.9697 4.96966L12.9761 4.96329L15.0593 2.88015C15.4366 2.50277 15.7519 2.1875 16.0303 1.95114C16.3208 1.70455 16.6204 1.4999 16.9804 1.38295C17.5327 1.20349 18.1276 1.20349 18.6799 1.38295C19.0399 1.49992 19.3396 1.70466 19.6302 1.95133C19.9087 2.18783 20.224 2.50308 20.6017 2.88078L21.1192 3.39835C21.497 3.77606 21.8122 4.09132 22.0487 4.36992C22.2954 4.66049 22.5002 4.96014 22.6171 5.32013C22.7966 5.87245 22.7966 6.4674 22.6171 7.01972C22.5002 7.37971 22.2954 7.67936 22.0487 7.96993C21.8122 8.24852 21.497 8.56377 21.1193 8.94145L9.13084 20.9299ZM17.4439 2.80953C17.6949 2.72796 17.9654 2.72796 18.2164 2.80953C18.3131 2.84094 18.4398 2.9084 18.6594 3.09484C18.8857 3.28696 19.1578 3.55823 19.5626 3.963L20.0371 4.43751C20.4418 4.84228 20.7131 5.11437 20.9052 5.34069C21.0917 5.5603 21.1591 5.68699 21.1905 5.78365C21.2721 6.03471 21.2721 6.30514 21.1905 6.5562C21.1591 6.65286 21.0917 6.77955 20.9052 6.99916C20.7131 7.22548 20.4418 7.49757 20.0371 7.90234L18.5 9.43937L14.5607 5.50003L16.0984 3.96234C16.5029 3.55779 16.7749 3.2867 17.0011 3.09469C17.2205 2.90839 17.3472 2.84095 17.4439 2.80953ZM14.9393 8L6 16.9393L4.56069 15.5L13.5 6.56069L14.9393 8ZM5.46967 18.5303L5.47195 18.5326L7.23288 20.2935L2.81791 21.1821L3.70652 16.7672L5.46739 18.528L5.46967 18.5303ZM7.06066 18L8.50003 19.4394L17.4394 10.5L16 9.06066L7.06066 18Z" fill="#353566"/>
<path d="M13 21.25C12.5858 21.25 12.25 21.5858 12.25 22C12.25 22.4142 12.5858 22.75 13 22.75H22C22.4142 22.75 22.75 22.4142 22.75 22C22.75 21.5858 22.4142 21.25 22 21.25H13Z" fill="#353566"/>
</svg>
