<svg width="24" height="24" viewBox="0 0 24 24" fill="none" xmlns="http://www.w3.org/2000/svg">
<path fill-rule="evenodd" clip-rule="evenodd" d="M12.9633 4.97611L10.9697 6.96973C10.6768 7.26263 10.6768 7.7375 10.9697 8.03039C11.2626 8.32329 11.7374 8.32329 12.0303 8.03039L13.5 6.56069L14.9392 7.99982L13.4695 9.46952C13.1766 9.76241 13.1766 10.2373 13.4695 10.5302C13.7624 10.8231 14.2372 10.8231 14.5301 10.5302L15.9998 9.06048L17.4394 10.5L15.9697 11.9697C15.6768 12.2626 15.6768 12.7375 15.9697 13.0304C16.2626 13.3233 16.7374 13.3233 17.0303 13.0304L21.1192 8.94151C21.4969 8.56381 21.8122 8.24853 22.0487 7.96993C22.2954 7.67936 22.5002 7.37971 22.6171 7.01972C22.7966 6.4674 22.7966 5.87245 22.6171 5.32013C22.5002 4.96014 22.2954 4.66049 22.0487 4.36992C21.8122 4.09132 21.497 3.77605 21.1192 3.39835L20.6017 2.88077C20.224 2.50308 19.9087 2.18783 19.6301 1.95133C19.3396 1.70466 19.0399 1.49992 18.6799 1.38295C18.1276 1.20349 17.5327 1.20349 16.9804 1.38295C16.6204 1.4999 16.3208 1.70455 16.0303 1.95114C15.7518 2.18756 15.4367 2.50268 15.0592 2.88017L12.9761 4.96328L12.9697 4.96966L12.9633 4.97611ZM17.4439 2.80953C17.6949 2.72796 17.9654 2.72796 18.2164 2.80953C18.3131 2.84094 18.4398 2.9084 18.6594 3.09484C18.8857 3.28696 19.1578 3.55823 19.5626 3.963L20.0371 4.43751C20.4418 4.84228 20.7131 5.11437 20.9052 5.34069C21.0917 5.5603 21.1591 5.68699 21.1905 5.78365C21.2721 6.03471 21.2721 6.30514 21.1905 6.5562C21.1591 6.65286 21.0917 6.77955 20.9052 6.99916C20.7131 7.22547 20.4418 7.49757 20.0371 7.90234L18.5 9.43937L14.5607 5.50003L16.0984 3.96234C16.5029 3.55779 16.7749 3.2867 17.001 3.09469C17.2205 2.90839 17.3472 2.84095 17.4439 2.80953Z" fill="#353566"/>
<path fill-rule="evenodd" clip-rule="evenodd" d="M8.43937 9.50003L1.46967 2.53033C1.17678 2.23744 1.17678 1.76256 1.46967 1.46967C1.76256 1.17678 2.23744 1.17678 2.53033 1.46967L22.5303 21.4697C22.8232 21.7626 22.8232 22.2374 22.5303 22.5303C22.2374 22.8232 21.7626 22.8232 21.4697 22.5303L14.5 15.5607L9.13087 20.9299C9.09804 20.9627 9.06602 20.9948 9.03442 21.026C9.03306 21.0274 9.0317 21.0288 9.03033 21.0301C9.0262 21.0343 9.02203 21.0383 9.01783 21.0424C8.90253 21.1556 8.79199 21.2571 8.66761 21.3439C8.5231 21.4448 8.36722 21.5283 8.20321 21.5928C8.01678 21.6661 7.82232 21.7052 7.60196 21.7493L3.16204 22.643C2.98724 22.6782 2.80997 22.7139 2.65927 22.7302C2.49975 22.7475 2.26511 22.7575 2.0213 22.6567C1.71418 22.5298 1.47021 22.2859 1.34332 21.9788C1.24259 21.7349 1.25253 21.5003 1.26981 21.3408C1.28614 21.1901 1.32186 21.0128 1.35708 20.8379L2.2507 16.3981C2.2949 16.1778 2.3339 15.9833 2.40722 15.7968C2.47171 15.6328 2.55525 15.477 2.65612 15.3325C2.74076 15.2112 2.83874 15.1037 2.94756 14.9925C2.95474 14.9847 2.96211 14.977 2.96967 14.9695C2.97452 14.9646 2.97943 14.9598 2.98438 14.9552C3.0114 14.9279 3.03904 14.9003 3.06727 14.8721L8.43937 9.50003ZM3.70655 16.767L2.81791 21.1821L7.23303 20.2935L5.47962 18.5401C5.47622 18.5368 5.47285 18.5335 5.46949 18.5301C5.46614 18.5268 5.46283 18.5234 5.45955 18.52L3.70655 16.767ZM5.99992 16.9391L4.56078 15.4999L9.50003 10.5607L10.9392 11.9998L5.99992 16.9391ZM7.06058 17.9997L8.50012 19.4393L13.4394 14.5L11.9998 13.0605L7.06058 17.9997Z" fill="#353566"/>
</svg>
