<svg width="24" height="24" viewBox="0 0 24 24" fill="none" xmlns="http://www.w3.org/2000/svg">
<path d="M2.75 4.75C2.75 3.64543 3.64543 2.75 4.75 2.75L6.5 2.75C6.91421 2.75 7.25 2.41421 7.25 2C7.25 1.58579 6.91421 1.25 6.5 1.25H4.75C2.817 1.25 1.25 2.817 1.25 4.75V7.5C1.25 7.91421 1.58579 8.25 2 8.25C2.41421 8.25 2.75 7.91421 2.75 7.5L2.75 4.75Z" fill="#353566"/>
<path d="M19.25 1.25H17.5C17.0858 1.25 16.75 1.58579 16.75 2C16.75 2.41421 17.0858 2.75 17.5 2.75L19.25 2.75C20.3546 2.75 21.25 3.64543 21.25 4.75L21.25 6.5C21.25 6.91421 21.5858 7.25 22 7.25C22.4142 7.25 22.75 6.91421 22.75 6.5L22.75 4.75C22.75 2.817 21.183 1.25 19.25 1.25Z" fill="#353566"/>
<path d="M10 1.25C9.58579 1.25 9.25 1.58579 9.25 2C9.25 2.41421 9.58579 2.75 10 2.75H14C14.4142 2.75 14.75 2.41421 14.75 2C14.75 1.58579 14.4142 1.25 14 1.25H10Z" fill="#353566"/>
<path d="M22.75 10C22.75 9.58579 22.4142 9.25 22 9.25C21.5858 9.25 21.25 9.58579 21.25 10V14C21.25 14.4142 21.5858 14.75 22 14.75C22.4142 14.75 22.75 14.4142 22.75 14V10Z" fill="#353566"/>
<path d="M22.75 17.5C22.75 17.0858 22.4142 16.75 22 16.75C21.5858 16.75 21.25 17.0858 21.25 17.5V19.25C21.25 20.3546 20.3546 21.25 19.25 21.25H16.5C16.0858 21.25 15.75 21.5858 15.75 22C15.75 22.4142 16.0858 22.75 16.5 22.75H19.25C21.183 22.75 22.75 21.183 22.75 19.25V17.5Z" fill="#353566"/>
<path fill-rule="evenodd" clip-rule="evenodd" d="M9.43097 10.25H5.56903C4.9653 10.25 4.46703 10.25 4.06113 10.2831C3.63956 10.3176 3.25203 10.3915 2.88803 10.577C2.32354 10.8646 1.8646 11.3235 1.57698 11.888C1.39151 12.252 1.31759 12.6396 1.28315 13.0611C1.24998 13.467 1.24999 13.9653 1.25 14.569V18.431C1.24999 19.0347 1.24998 19.533 1.28315 19.9389C1.31759 20.3604 1.39151 20.748 1.57698 21.112C1.8646 21.6765 2.32354 22.1354 2.88803 22.423C3.25203 22.6085 3.63956 22.6824 4.06113 22.7169C4.46702 22.75 4.96529 22.75 5.56901 22.75H9.43099C10.0347 22.75 10.533 22.75 10.9389 22.7169C11.3604 22.6824 11.748 22.6085 12.112 22.423C12.6765 22.1354 13.1354 21.6765 13.423 21.112C13.6085 20.748 13.6824 20.3604 13.7169 19.9389C13.75 19.533 13.75 19.0347 13.75 18.431V14.5691C13.75 13.9653 13.75 13.467 13.7169 13.0611C13.6824 12.6396 13.6085 12.252 13.423 11.888C13.1354 11.3235 12.6765 10.8646 12.112 10.577C11.748 10.3915 11.3604 10.3176 10.9389 10.2831C10.533 10.25 10.0347 10.25 9.43097 10.25ZM3.56902 11.9135C3.68631 11.8537 3.85447 11.805 4.18328 11.7782C4.52085 11.7506 4.95757 11.75 5.6 11.75H9.4C10.0424 11.75 10.4792 11.7506 10.8167 11.7782C11.1455 11.805 11.3137 11.8537 11.431 11.9135C11.7132 12.0573 11.9427 12.2868 12.0865 12.569C12.1463 12.6863 12.195 12.8545 12.2218 13.1833C12.2494 13.5208 12.25 13.9576 12.25 14.6V18.4C12.25 19.0424 12.2494 19.4792 12.2218 19.8167C12.195 20.1455 12.1463 20.3137 12.0865 20.431C11.9427 20.7132 11.7132 20.9427 11.431 21.0865C11.3137 21.1463 11.1455 21.195 10.8167 21.2218C10.4792 21.2494 10.0424 21.25 9.4 21.25H5.6C4.95757 21.25 4.52085 21.2494 4.18328 21.2218C3.85447 21.195 3.68631 21.1463 3.56902 21.0865C3.28677 20.9427 3.0573 20.7132 2.91349 20.431C2.85372 20.3137 2.80503 20.1455 2.77816 19.8167C2.75058 19.4792 2.75 19.0424 2.75 18.4V14.6C2.75 13.9576 2.75058 13.5208 2.77816 13.1833C2.80503 12.8545 2.85372 12.6863 2.91349 12.569C3.0573 12.2868 3.28677 12.0573 3.56902 11.9135Z" fill="#353566"/>
</svg>
