<svg width="24" height="24" viewBox="0 0 24 24" fill="none" xmlns="http://www.w3.org/2000/svg">
<path fill-rule="evenodd" clip-rule="evenodd" d="M13.2235 3.23583L3.23595 13.2234C2.7598 13.6996 2.37038 14.089 2.07976 14.4313C1.77895 14.7856 1.54019 15.1386 1.40467 15.5556C1.19258 16.2084 1.19258 16.9115 1.40467 17.5643C1.54019 17.9813 1.77895 18.3343 2.07976 18.6886C2.37038 19.0309 2.75978 19.4203 3.23592 19.8965L4.09228 20.7528C4.56841 21.229 4.95784 21.6184 5.30016 21.909C5.6545 22.2098 6.00744 22.4486 6.42452 22.5841C7.07726 22.7962 7.78039 22.7962 8.43313 22.5841C8.8502 22.4486 9.20314 22.2098 9.55748 21.909C9.89981 21.6184 10.2892 21.229 10.7653 20.7528L20.753 10.7652C21.2291 10.2891 21.6185 9.89969 21.9091 9.55736C22.2099 9.20302 22.4487 8.85008 22.5842 8.433C22.7963 7.78026 22.7963 7.07714 22.5842 6.4244C22.4487 6.00732 22.2099 5.65438 21.9091 5.30004C21.6185 4.95771 21.2291 4.56831 20.753 4.09217L19.8966 3.23582C19.4205 2.75967 19.0311 2.37026 18.6887 2.07964C18.3344 1.77883 17.9815 1.54007 17.5644 1.40455C16.9116 1.19246 16.2085 1.19246 15.5558 1.40455C15.1387 1.54007 14.7858 1.77883 14.4314 2.07964C14.0891 2.37026 13.6997 2.75968 13.2235 3.23583ZM2.83126 16.0192C2.88121 15.8654 2.98269 15.6854 3.22327 15.4021C3.45993 15.1233 3.78825 14.7926 4.26059 14.3201L6.46979 16.5293C6.76268 16.8222 7.23756 16.8222 7.53045 16.5293C7.82334 16.2364 7.82334 15.7615 7.53045 15.4686L5.32124 13.2594L7.26058 11.3201L9.46979 13.5293C9.76268 13.8222 10.2376 13.8222 10.5304 13.5293C10.8233 13.2364 10.8233 12.7615 10.5304 12.4686L8.32124 10.2594L10.2606 8.3201L12.4698 10.5293C12.7627 10.8222 13.2376 10.8222 13.5304 10.5293C13.8233 10.2364 13.8233 9.76154 13.5304 9.46865L11.3212 7.25944L13.2606 5.3201L15.4698 7.52931C15.7627 7.8222 16.2376 7.8222 16.5304 7.52931C16.8233 7.23641 16.8233 6.76154 16.5304 6.46865L14.3212 4.25944C14.7932 3.78765 15.1236 3.45964 15.4022 3.22315C15.6856 2.98257 15.8655 2.88109 16.0193 2.83113C16.3708 2.71693 16.7494 2.71693 17.1009 2.83113C17.2546 2.88109 17.4346 2.98257 17.718 3.22315C18.0081 3.46941 18.3544 3.81493 18.8582 4.31871L19.6701 5.1306C20.1738 5.63437 20.5194 5.98072 20.7656 6.27081C21.0062 6.55419 21.1077 6.73417 21.1576 6.88792C21.2718 7.2394 21.2718 7.618 21.1576 7.96948C21.1077 8.12323 21.0062 8.30321 20.7656 8.58659C20.5194 8.87668 20.1738 9.22302 19.6701 9.7268L9.72692 19.6699C9.22315 20.1737 8.8768 20.5192 8.58672 20.7655C8.30333 21.0061 8.12335 21.1076 7.9696 21.1575C7.61813 21.2717 7.23952 21.2717 6.88804 21.1575C6.7343 21.1076 6.55432 21.0061 6.27093 20.7655C5.98084 20.5192 5.6345 20.1737 5.13072 19.6699L4.31883 18.858C3.81506 18.3543 3.46953 18.0079 3.22327 17.7178C2.98269 17.4345 2.88121 17.2545 2.83126 17.1007C2.71706 16.7493 2.71706 16.3706 2.83126 16.0192Z" fill="#353566"/>
</svg>
