<svg width="24" height="24" viewBox="0 0 24 24" fill="none" xmlns="http://www.w3.org/2000/svg">
<g clip-path="url(#clip0_9002_191)">
<path fill-rule="evenodd" clip-rule="evenodd" d="M15.4326 0.25H6.56739C5.61495 0.249994 4.8544 0.249989 4.24014 0.300176C3.61012 0.35165 3.06824 0.459634 2.57054 0.713223C1.77086 1.12068 1.12069 1.77085 0.713227 2.57054C0.459638 3.06824 0.351654 3.61012 0.30018 4.24013C0.249996 4.85436 0.25 5.61486 0.250005 6.56722L0.250002 19.9152C0.249974 20.1532 0.249947 20.3804 0.26663 20.5639C0.282815 20.7418 0.323484 21.0306 0.520845 21.2793C0.756431 21.5762 1.114 21.7502 1.49299 21.7523C1.81048 21.7541 2.06282 21.6078 2.21281 21.5107C2.36741 21.4106 2.54616 21.2704 2.73337 21.1235L5.31069 19.1017C5.57573 18.8938 5.62983 18.8558 5.6814 18.8298C5.74093 18.7999 5.80417 18.7781 5.86947 18.7649C5.92607 18.7534 5.99209 18.75 6.32902 18.75H12.0642C12.4784 18.75 12.8142 18.4142 12.8142 18C12.8142 17.5858 12.4784 17.25 12.0642 17.25L6.27692 17.25C6.02082 17.2498 5.7949 17.2496 5.57211 17.2947C5.37623 17.3343 5.1865 17.3998 5.00792 17.4895C4.80484 17.5916 4.62717 17.7312 4.42583 17.8894L4.38483 17.9216L1.75006 19.9883L1.75 6.59999C1.75 5.60753 1.75059 4.90829 1.7952 4.36228C1.83909 3.82503 1.92185 3.50252 2.04974 3.25153C2.31339 2.73408 2.73409 2.31338 3.25153 2.04973C3.50253 1.92184 3.82503 1.83909 4.36229 1.79519C4.90829 1.75058 5.60754 1.75 6.6 1.75H15.4C16.3925 1.75 17.0917 1.75058 17.6377 1.79519C18.175 1.83909 18.4975 1.92184 18.7485 2.04973C19.2659 2.31338 19.6866 2.73408 19.9503 3.25153C20.0782 3.50252 20.1609 3.82503 20.2048 4.36228C20.2494 4.90829 20.25 5.60753 20.25 6.6V10.2899C20.25 10.7041 20.5858 11.0399 21 11.0399C21.4142 11.0399 21.75 10.7041 21.75 10.2899V6.56737C21.75 5.61496 21.75 4.85438 21.6998 4.24013C21.6484 3.61012 21.5404 3.06824 21.2868 2.57054C20.8793 1.77085 20.2292 1.12068 19.4295 0.713223C18.9318 0.459634 18.3899 0.35165 17.7599 0.300176C17.1456 0.249989 16.3851 0.249994 15.4326 0.25ZM4.38483 17.9216C4.39076 17.9169 4.39676 17.9124 4.40283 17.9079L4.84779 18.5116L4.38483 17.9216Z" fill="#353566"/>
<path d="M15.5 8.25H6.5C6.08579 8.25 5.75 7.91421 5.75 7.5C5.75 7.08579 6.08579 6.75 6.5 6.75H15.5C15.9142 6.75 16.25 7.08579 16.25 7.5C16.25 7.91421 15.9142 8.25 15.5 8.25Z" fill="#353566"/>
<path d="M11.5 12.25L6.5 12.25C6.08579 12.25 5.75 11.9142 5.75 11.5C5.75 11.0858 6.08579 10.75 6.5 10.75L11.5 10.75C11.9142 10.75 12.25 11.0858 12.25 11.5C12.25 11.9142 11.9142 12.25 11.5 12.25Z" fill="#353566"/>
<path fill-rule="evenodd" clip-rule="evenodd" d="M19 14.875C17.8264 14.875 16.875 15.8264 16.875 17C16.875 18.1736 17.8264 19.125 19 19.125C20.1736 19.125 21.125 18.1736 21.125 17C21.125 15.8264 20.1736 14.875 19 14.875ZM18.125 17C18.125 16.5168 18.5168 16.125 19 16.125C19.4833 16.125 19.875 16.5168 19.875 17C19.875 17.4833 19.4833 17.875 19 17.875C18.5168 17.875 18.125 17.4833 18.125 17Z" fill="#353566"/>
<path fill-rule="evenodd" clip-rule="evenodd" d="M14.25 17.002C14.25 14.3791 16.3762 12.25 19.0001 12.25C21.6235 12.25 23.75 14.3766 23.75 17C23.75 19.9 21.45 22.1 19.45 23.6C19.1833 23.8 18.8167 23.8 18.55 23.6C16.5501 22.1001 14.25 19.9001 14.25 17.002ZM19.0001 13.75C17.2056 13.75 15.75 15.2066 15.75 17.002C15.75 18.9406 17.2014 20.6247 19 22.0529C20.7985 20.6248 22.25 18.9405 22.25 17C22.25 15.205 20.795 13.75 19.0001 13.75Z" fill="#353566"/>
</g>
<defs>
<clipPath id="clip0_9002_191">
<rect width="24" height="24" fill="white"/>
</clipPath>
</defs>
</svg>
