<svg width="24" height="24" viewBox="0 0 24 24" fill="none" xmlns="http://www.w3.org/2000/svg">
<path fill-rule="evenodd" clip-rule="evenodd" d="M10.1134 11.0413C10.5038 9.98622 11.9962 9.98622 12.3866 11.0413L12.685 11.8478C12.9365 12.5275 13.4725 13.0635 14.1522 13.315L14.9587 13.6134C16.0138 14.0038 16.0138 15.4962 14.9587 15.8866L14.1522 16.185C13.4725 16.4365 12.9365 16.9725 12.685 17.6522L12.3866 18.4587C11.9962 19.5138 10.5038 19.5138 10.1134 18.4587L9.815 17.6522C9.56347 16.9725 9.02753 16.4365 8.34778 16.185L7.54133 15.8866C6.48622 15.4962 6.48622 14.0038 7.54133 13.6134L8.34778 13.315C9.02753 13.0635 9.56347 12.5275 9.815 11.8478L10.1134 11.0413ZM11.25 12.2921L11.2218 12.3683C10.8183 13.4587 9.95866 14.3183 8.86833 14.7218L8.79205 14.75L8.86834 14.7782C9.95866 15.1817 10.8183 16.0413 11.2218 17.1317L11.25 17.2079L11.2782 17.1317C11.6817 16.0413 12.5413 15.1817 13.6317 14.7782L13.7079 14.75L13.6317 14.7218C12.5413 14.3183 11.6817 13.4587 11.2782 12.3683L11.25 12.2921Z" fill="#353566"/>
<path d="M15.6269 8.58833C15.5833 8.47056 15.4167 8.47056 15.3731 8.58833L15.1789 9.11328C14.9962 9.60697 14.607 9.99621 14.1133 10.1789L13.5883 10.3731C13.4706 10.4167 13.4706 10.5833 13.5883 10.6269L14.1133 10.8211C14.607 11.0038 14.9962 11.393 15.1789 11.8867L15.3731 12.4117C15.4167 12.5294 15.5833 12.5294 15.6269 12.4117L15.8211 11.8867C16.0038 11.393 16.393 11.0038 16.8867 10.8211L17.4117 10.6269C17.5294 10.5833 17.5294 10.4167 17.4117 10.3731L16.8867 10.1789C16.393 9.99621 16.0038 9.60697 15.8211 9.11328L15.6269 8.58833Z" fill="#353566"/>
<path fill-rule="evenodd" clip-rule="evenodd" d="M9 0.75C8.0335 0.75 7.25 1.5335 7.25 2.5V2.50171C6.89278 2.50447 6.58088 2.51163 6.30748 2.53029C5.85092 2.56144 5.44721 2.62711 5.06494 2.78545C4.14608 3.16605 3.41605 3.89608 3.03545 4.81494C2.87711 5.19721 2.81144 5.60092 2.78029 6.05748C2.74999 6.50148 2.75 7.04703 2.75 7.72334V17.7321C2.74999 18.5449 2.74999 19.2006 2.79336 19.7315C2.83803 20.2781 2.93239 20.7582 3.15873 21.2025C3.51825 21.9081 4.09193 22.4817 4.79754 22.8413C5.24175 23.0676 5.7219 23.162 6.26853 23.2066C6.79944 23.25 7.45505 23.25 8.26788 23.25H15.7321C16.545 23.25 17.2006 23.25 17.7315 23.2066C18.2781 23.162 18.7582 23.0676 19.2025 22.8413C19.9081 22.4817 20.4817 21.9081 20.8413 21.2025C21.0676 20.7582 21.162 20.2781 21.2066 19.7315C21.25 19.2006 21.25 18.545 21.25 17.7321V7.72336C21.25 7.04704 21.25 6.50148 21.2197 6.05748C21.1886 5.60092 21.1229 5.19721 20.9645 4.81494C20.5839 3.89608 19.8539 3.16605 18.9351 2.78545C18.5528 2.62711 18.1491 2.56144 17.6925 2.53029C17.4191 2.51163 17.1072 2.50447 16.75 2.50171V2.5C16.75 1.5335 15.9665 0.75 15 0.75H9ZM16.75 4.0018C17.0849 4.00442 17.3572 4.01089 17.5904 4.02681C17.9706 4.05275 18.192 4.10125 18.361 4.17127C18.9124 4.39963 19.3504 4.83765 19.5787 5.38896C19.6487 5.558 19.6973 5.7794 19.7232 6.15959C19.7496 6.54651 19.75 7.04083 19.75 7.75V17.7C19.75 18.5525 19.7494 19.1467 19.7116 19.6093C19.6745 20.0632 19.6054 20.324 19.5048 20.5215C19.289 20.9448 18.9448 21.289 18.5215 21.5048C18.324 21.6054 18.0632 21.6745 17.6093 21.7116C17.1467 21.7494 16.5525 21.75 15.7 21.75H8.3C7.44755 21.75 6.85331 21.7494 6.39068 21.7116C5.93681 21.6745 5.67604 21.6054 5.47852 21.5048C5.05516 21.289 4.71095 20.9448 4.49524 20.5215C4.3946 20.324 4.32547 20.0632 4.28838 19.6093C4.25058 19.1467 4.25 18.5525 4.25 17.7V7.75C4.25 7.04083 4.25041 6.54651 4.27681 6.15959C4.30275 5.7794 4.35125 5.558 4.42127 5.38896C4.64963 4.83765 5.08765 4.39963 5.63896 4.17127C5.808 4.10125 6.0294 4.05275 6.40959 4.02681C6.64285 4.01089 6.91513 4.00442 7.25 4.0018C7.25097 4.96747 8.0341 5.75 9 5.75H15C15.9659 5.75 16.749 4.96747 16.75 4.0018ZM15.25 2.5C15.25 2.36193 15.1381 2.25 15 2.25H9C8.86193 2.25 8.75 2.36193 8.75 2.5V4C8.75 4.13807 8.86193 4.25 9 4.25H15C15.1381 4.25 15.25 4.13807 15.25 4V2.5Z" fill="#353566"/>
</svg>
