<svg width="24" height="24" viewBox="0 0 24 24" fill="none" xmlns="http://www.w3.org/2000/svg">
<path d="M8.01898 6.95856C8.31801 7.24518 8.32807 7.71995 8.04144 8.01898L6.76342 9.35231C6.62367 9.49812 6.43102 9.58139 6.22907 9.5833C6.02711 9.58521 5.83292 9.50559 5.69044 9.36245L4.96846 8.63716C4.67624 8.3436 4.67732 7.86873 4.97088 7.57651C5.26445 7.28428 5.73932 7.28537 6.03154 7.57893L6.21184 7.76006L6.95856 6.98102C7.24518 6.68199 7.71995 6.67194 8.01898 6.95856Z" fill="#353566"/>
<path d="M10 7.25C9.58579 7.25 9.25 7.58579 9.25 8C9.25 8.41421 9.58579 8.75 10 8.75H14C14.4142 8.75 14.75 8.41421 14.75 8C14.75 7.58579 14.4142 7.25 14 7.25H10Z" fill="#353566"/>
<path d="M8.01898 10.9586C8.31801 11.2452 8.32807 11.72 8.04144 12.019L6.76342 13.3523C6.62367 13.4981 6.43102 13.5814 6.22907 13.5833C6.02711 13.5852 5.83292 13.5056 5.69044 13.3625L4.96846 12.6372C4.67624 12.3436 4.67732 11.8687 4.97088 11.5765C5.26445 11.2843 5.73932 11.2854 6.03154 11.5789L6.21184 11.7601L6.95856 10.981C7.24518 10.682 7.71995 10.6719 8.01898 10.9586Z" fill="#353566"/>
<path d="M10 11.25C9.58579 11.25 9.25 11.5858 9.25 12C9.25 12.4142 9.58579 12.75 10 12.75H14C14.4142 12.75 14.75 12.4142 14.75 12C14.75 11.5858 14.4142 11.25 14 11.25H10Z" fill="#353566"/>
<path d="M8.01898 14.9586C8.31801 15.2452 8.32807 15.72 8.04144 16.019L6.76342 17.3523C6.62367 17.4981 6.43102 17.5814 6.22907 17.5833C6.02711 17.5852 5.83292 17.5056 5.69044 17.3625L4.96846 16.6372C4.67624 16.3436 4.67732 15.8687 4.97088 15.5765C5.26445 15.2843 5.73932 15.2854 6.03154 15.5789L6.21184 15.7601L6.95856 14.981C7.24518 14.682 7.71995 14.6719 8.01898 14.9586Z" fill="#353566"/>
<path d="M10 15.25C9.58579 15.25 9.25 15.5858 9.25 16C9.25 16.4142 9.58579 16.75 10 16.75H14C14.4142 16.75 14.75 16.4142 14.75 16C14.75 15.5858 14.4142 15.25 14 15.25H10Z" fill="#353566"/>
<path fill-rule="evenodd" clip-rule="evenodd" d="M13.5314 1.25H5.96858C5.29521 1.24999 4.74449 1.24999 4.29693 1.28655C3.83367 1.3244 3.41527 1.40514 3.02453 1.60423C2.413 1.91582 1.91582 2.413 1.60423 3.02453C1.40514 3.41527 1.3244 3.83367 1.28655 4.29693C1.24999 4.74449 1.24999 5.29519 1.25 5.96856V16.4325C1.24999 17.3849 1.24999 18.1455 1.30018 18.7597C1.35165 19.3898 1.45963 19.9316 1.71322 20.4293C2.12068 21.229 2.77085 21.8792 3.57054 22.2867C4.06824 22.5402 4.61012 22.6482 5.24013 22.6997C5.85438 22.7499 6.6149 22.7499 7.5673 22.7499H19.5C19.528 22.7499 19.5556 22.7483 19.5828 22.7454C19.6381 22.7484 19.6938 22.7499 19.7499 22.7499C21.4068 22.75 22.75 21.4068 22.75 19.7499V13C22.75 12.5858 22.4142 12.25 22 12.25H18.25V5.96859C18.25 5.29521 18.25 4.7445 18.2134 4.29693C18.1756 3.83367 18.0949 3.41527 17.8958 3.02453C17.5842 2.413 17.087 1.91582 16.4755 1.60423C16.0847 1.40514 15.6663 1.3244 15.2031 1.28655C14.7555 1.24999 14.2048 1.24999 13.5314 1.25ZM18.25 13.75H21.25V19.7499C21.25 20.5784 20.5784 21.25 19.75 21.2499C18.9215 21.2499 18.25 20.5784 18.25 19.7499V13.75ZM17.1513 21.2499H7.6C6.60753 21.2499 5.90829 21.2493 5.36228 21.2047C4.82503 21.1608 4.50252 21.078 4.25153 20.9501C3.73408 20.6865 3.31338 20.2658 3.04973 19.7484C2.92184 19.4974 2.83909 19.1748 2.79519 18.6376C2.75058 18.0916 2.75 17.3923 2.75 16.3999V6C2.75 5.28756 2.75058 4.79834 2.78157 4.41908C2.81184 4.04858 2.86735 3.84956 2.94074 3.70552C3.10852 3.37623 3.37623 3.10852 3.70552 2.94074C3.84956 2.86735 4.04858 2.81184 4.41908 2.78157C4.79833 2.75058 5.28756 2.75 6 2.75H13.5C14.2124 2.75 14.7017 2.75058 15.0809 2.78157C15.4514 2.81184 15.6504 2.86735 15.7945 2.94074C16.1238 3.10852 16.3915 3.37623 16.5593 3.70552C16.6327 3.84956 16.6882 4.04858 16.7184 4.41908C16.7494 4.79833 16.75 5.28756 16.75 6V19.7499C16.75 20.2963 16.8961 20.8086 17.1513 21.2499Z" fill="#353566"/>
</svg>
