<svg width="24" height="24" viewBox="0 0 24 24" fill="none" xmlns="http://www.w3.org/2000/svg">
<path d="M6.56739 1.25H12.4326C13.385 1.24999 14.1456 1.24999 14.7599 1.30018C15.3899 1.35165 15.9318 1.45963 16.4295 1.71322C17.2291 2.12068 17.8793 2.77085 18.2868 3.57054C18.5404 4.06824 18.6483 4.61012 18.6998 5.24013C18.75 5.85438 18.75 6.6149 18.75 7.5673V11.1712C18.75 11.5854 18.4142 11.9212 18 11.9212C17.5858 11.9212 17.25 11.5854 17.25 11.1712V7.6C17.25 6.60753 17.2494 5.90829 17.2048 5.36228C17.1609 4.82503 17.0782 4.50252 16.9503 4.25153C16.6866 3.73408 16.2659 3.31338 15.7485 3.04973C15.4975 2.92184 15.175 2.83909 14.6377 2.79519C14.0917 2.75058 13.3925 2.75 12.4 2.75H6.6C5.60753 2.75 4.90829 2.75058 4.36228 2.79519C3.82503 2.83909 3.50252 2.92184 3.25153 3.04973C2.73408 3.31338 2.31338 3.73408 2.04973 4.25153C1.92184 4.50252 1.83909 4.82503 1.79519 5.36228C1.75058 5.90829 1.75 6.60753 1.75 7.6V16.4C1.75 17.3925 1.75058 18.0917 1.79519 18.6377C1.83909 19.175 1.92184 19.4975 2.04973 19.7485C2.31338 20.2659 2.73408 20.6866 3.25153 20.9503C3.50252 21.0782 3.82503 21.1609 4.36228 21.2048C4.90829 21.2494 5.60753 21.25 6.6 21.25L12.7588 21.2499C13.173 21.2496 13.509 21.5851 13.5094 21.9993C13.5097 22.4135 13.1742 22.7496 12.76 22.7499L6.56737 22.75C5.61497 22.75 4.85438 22.75 4.24013 22.6998C3.61012 22.6483 3.06824 22.5404 2.57054 22.2868C1.77085 21.8793 1.12068 21.2291 0.713223 20.4295C0.459634 19.9318 0.35165 19.3899 0.300176 18.7599C0.249989 18.1456 0.249994 17.3851 0.25 16.4326V7.56739C0.249994 6.61495 0.249989 5.85439 0.300176 5.24013C0.35165 4.61012 0.459634 4.06824 0.713223 3.57054C1.12068 2.77085 1.77085 2.12068 2.57054 1.71322C3.06824 1.45963 3.61012 1.35165 4.24013 1.30018C4.85439 1.24999 5.61495 1.24999 6.56739 1.25Z" fill="#353566"/>
<path d="M4.75 8C4.75 7.58579 5.08579 7.25 5.5 7.25H9.5C9.91421 7.25 10.25 7.58579 10.25 8C10.25 8.41421 9.91421 8.75 9.5 8.75H5.5C5.08579 8.75 4.75 8.41421 4.75 8Z" fill="#353566"/>
<path d="M4.75 12C4.75 11.5858 5.08579 11.25 5.5 11.25H13.5C13.9142 11.25 14.25 11.5858 14.25 12C14.25 12.4142 13.9142 12.75 13.5 12.75H5.5C5.08579 12.75 4.75 12.4142 4.75 12Z" fill="#353566"/>
<path d="M4.75 16C4.75 15.5858 5.08579 15.25 5.5 15.25H10.7288C11.143 15.25 11.4788 15.5858 11.4788 16C11.4788 16.4142 11.143 16.75 10.7288 16.75H5.5C5.08579 16.75 4.75 16.4142 4.75 16Z" fill="#353566"/>
<path d="M15.5249 16.5357C15.8208 16.2457 15.8256 15.7709 15.5357 15.4751C15.2457 15.1792 14.7709 15.1744 14.4751 15.4643L12.4751 17.4243C12.333 17.5636 12.252 17.7536 12.25 17.9525C12.248 18.1514 12.3252 18.343 12.4644 18.485L14.4644 20.525C14.7544 20.8208 15.2292 20.8255 15.525 20.5356C15.8208 20.2456 15.8255 19.7707 15.5355 19.475L14.0607 17.9706L15.5249 16.5357Z" fill="#353566"/>
<path d="M20.4641 15.4753C20.7538 15.1793 21.2287 15.1743 21.5247 15.4641L23.5247 17.4221C23.6668 17.5612 23.7479 17.7512 23.75 17.9501C23.752 18.1491 23.675 18.3407 23.5358 18.4828L21.5358 20.5248C21.246 20.8207 20.7711 20.8256 20.4752 20.5358C20.1793 20.246 20.1744 19.7711 20.4642 19.4752L21.9393 17.9691L20.4753 16.5359C20.1793 16.2462 20.1743 15.7713 20.4641 15.4753Z" fill="#353566"/>
<path d="M19.7276 14.182C19.8281 13.7801 19.5837 13.3729 19.1819 13.2724C18.7801 13.172 18.3728 13.4163 18.2724 13.8182L16.2724 21.8182C16.1719 22.22 16.4162 22.6272 16.8181 22.7277C17.2199 22.8281 17.6271 22.5838 17.7276 22.182L19.7276 14.182Z" fill="#353566"/>
</svg>
