<svg width="24" height="24" viewBox="0 0 24 24" fill="none" xmlns="http://www.w3.org/2000/svg">
<path d="M12.4326 1.25H6.56739C5.61495 1.24999 4.85439 1.24999 4.24013 1.30018C3.61012 1.35165 3.06824 1.45963 2.57054 1.71322C1.77085 2.12068 1.12068 2.77085 0.713223 3.57054C0.459634 4.06824 0.35165 4.61012 0.300176 5.24013C0.249989 5.85439 0.249994 6.61494 0.25 7.56738V16.4326C0.249994 17.385 0.249989 18.1456 0.300176 18.7599C0.35165 19.3899 0.459634 19.9318 0.713223 20.4295C1.12068 21.2291 1.77085 21.8793 2.57054 22.2868C3.06824 22.5404 3.61012 22.6483 4.24013 22.6998C4.85438 22.75 5.6149 22.75 6.56731 22.75H12.2808C12.695 22.75 13.0308 22.4142 13.0308 22C13.0308 21.5858 12.695 21.25 12.2808 21.25H6.6C5.60753 21.25 4.90829 21.2494 4.36228 21.2048C3.82503 21.1609 3.50252 21.0782 3.25153 20.9503C2.73408 20.6866 2.31338 20.2659 2.04973 19.7485C1.92184 19.4975 1.83909 19.175 1.79519 18.6377C1.75058 18.0917 1.75 17.3925 1.75 16.4V7.6C1.75 6.60753 1.75058 5.90829 1.79519 5.36228C1.83909 4.82503 1.92184 4.50252 2.04973 4.25153C2.31338 3.73408 2.73408 3.31338 3.25153 3.04973C3.50252 2.92184 3.82503 2.83909 4.36228 2.79519C4.90829 2.75058 5.60753 2.75 6.6 2.75H12.4C13.3925 2.75 14.0917 2.75058 14.6377 2.79519C15.175 2.83909 15.4975 2.92184 15.7485 3.04973C16.2659 3.31338 16.6866 3.73408 16.9503 4.25153C17.0782 4.50252 17.1609 4.82503 17.2048 5.36228C17.2494 5.90829 17.25 6.60753 17.25 7.6V10.2447C17.25 10.6589 17.5858 10.9947 18 10.9947C18.4142 10.9947 18.75 10.6589 18.75 10.2447V7.56737C18.75 6.61496 18.75 5.85438 18.6998 5.24013C18.6483 4.61012 18.5404 4.06824 18.2868 3.57054C17.8793 2.77085 17.2291 2.12068 16.4295 1.71322C15.9318 1.45963 15.3899 1.35165 14.7599 1.30018C14.1456 1.24999 13.385 1.24999 12.4326 1.25Z" fill="#353566"/>
<path d="M5.5 7.25C5.08579 7.25 4.75 7.58579 4.75 8C4.75 8.41421 5.08579 8.75 5.5 8.75H9.5C9.91421 8.75 10.25 8.41421 10.25 8C10.25 7.58579 9.91421 7.25 9.5 7.25H5.5Z" fill="#353566"/>
<path d="M5.5 11.25C5.08579 11.25 4.75 11.5858 4.75 12C4.75 12.4142 5.08579 12.75 5.5 12.75H13.5C13.9142 12.75 14.25 12.4142 14.25 12C14.25 11.5858 13.9142 11.25 13.5 11.25H5.5Z" fill="#353566"/>
<path d="M5.5 15.25C5.08579 15.25 4.75 15.5858 4.75 16C4.75 16.4142 5.08579 16.75 5.5 16.75H13.5C13.9142 16.75 14.25 16.4142 14.25 16C14.25 15.5858 13.9142 15.25 13.5 15.25H5.5Z" fill="#353566"/>
<path fill-rule="evenodd" clip-rule="evenodd" d="M15.1359 18.839C14.586 19.2514 14.25 19.8452 14.25 20.4998C14.25 21.1545 14.586 21.7482 15.1359 22.1606C15.6777 22.567 16.3551 22.75 17.0003 22.75C17.6454 22.75 18.3228 22.567 18.8647 22.1606C19.4135 21.749 19.7492 21.1568 19.7505 20.5036C19.7505 20.5023 19.7505 20.5011 19.7505 20.4998V16.3117L22.671 15.4599C23.311 15.2732 23.751 14.6865 23.751 14.0198V12.6255C23.751 11.7087 22.871 11.0487 21.9909 11.3054L19.5106 12.0288C18.7639 12.2466 18.2505 12.9311 18.2505 13.7089V18.4916C17.8507 18.3266 17.4187 18.2496 17.0003 18.2496C16.3551 18.2496 15.6777 18.4326 15.1359 18.839ZM17.0003 19.7496C16.6216 19.7496 16.2752 19.8596 16.0359 20.039C15.8046 20.2125 15.75 20.3866 15.75 20.4998C15.75 20.613 15.8046 20.7872 16.0359 20.9606C16.2752 21.1401 16.6216 21.25 17.0003 21.25C17.3789 21.25 17.7254 21.1401 17.9647 20.9606C18.1959 20.7872 18.2505 20.613 18.2505 20.4998C18.2505 20.3866 18.1959 20.2125 17.9647 20.039C17.7254 19.8596 17.3789 19.7496 17.0003 19.7496ZM19.9306 13.4688L22.251 12.792L22.251 14.0199L19.7505 14.7492V13.7089C19.7505 13.5978 19.8239 13.4999 19.9306 13.4688Z" fill="#353566"/>
</svg>
