<svg width="24" height="24" viewBox="0 0 24 24" fill="none" xmlns="http://www.w3.org/2000/svg">
<path d="M6.56739 1.25H12.4326C13.385 1.24999 14.1456 1.24999 14.7599 1.30018C15.3899 1.35165 15.9318 1.45963 16.4295 1.71322C17.2291 2.12068 17.8793 2.77085 18.2868 3.57054C18.5404 4.06824 18.6483 4.61012 18.6998 5.24013C18.75 5.85438 18.75 6.6149 18.75 7.5673V11C18.75 11.4142 18.4142 11.75 18 11.75C17.5858 11.75 17.25 11.4142 17.25 11V7.6C17.25 6.60753 17.2494 5.90829 17.2048 5.36228C17.1609 4.82503 17.0782 4.50252 16.9503 4.25153C16.6866 3.73408 16.2659 3.31338 15.7485 3.04973C15.4975 2.92184 15.175 2.83909 14.6377 2.79519C14.0917 2.75058 13.3925 2.75 12.4 2.75H6.6C5.60753 2.75 4.90829 2.75058 4.36228 2.79519C3.82503 2.83909 3.50252 2.92184 3.25153 3.04973C2.73408 3.31338 2.31338 3.73408 2.04973 4.25153C1.92184 4.50252 1.83909 4.82503 1.79519 5.36228C1.75058 5.90829 1.75 6.60753 1.75 7.6V16.4C1.75 17.3925 1.75058 18.0917 1.79519 18.6377C1.83909 19.175 1.92184 19.4975 2.04973 19.7485C2.31338 20.2659 2.73408 20.6866 3.25153 20.9503C3.50252 21.0782 3.82503 21.1609 4.36228 21.2048C4.90829 21.2494 5.60753 21.25 6.6 21.25H11.7548C12.169 21.25 12.5048 21.5858 12.5048 22C12.5048 22.4142 12.169 22.75 11.7548 22.75H6.56737C5.61497 22.75 4.85438 22.75 4.24013 22.6998C3.61012 22.6483 3.06824 22.5404 2.57054 22.2868C1.77085 21.8793 1.12068 21.2291 0.713223 20.4295C0.459634 19.9318 0.35165 19.3899 0.300176 18.7599C0.249989 18.1456 0.249994 17.3851 0.25 16.4326V7.56739C0.249994 6.61495 0.249989 5.85439 0.300176 5.24013C0.35165 4.61012 0.459634 4.06824 0.713223 3.57054C1.12068 2.77085 1.77085 2.12068 2.57054 1.71322C3.06824 1.45963 3.61012 1.35165 4.24013 1.30018C4.85439 1.24999 5.61495 1.24999 6.56739 1.25Z" fill="#353566"/>
<path d="M7.75 8C7.75 7.58579 8.08579 7.25 8.5 7.25H13.5C13.9142 7.25 14.25 7.58579 14.25 8C14.25 8.41421 13.9142 8.75 13.5 8.75H8.5C8.08579 8.75 7.75 8.41421 7.75 8Z" fill="#353566"/>
<path d="M7.75 12C7.75 11.5858 8.08579 11.25 8.5 11.25H13.5C13.9142 11.25 14.25 11.5858 14.25 12C14.25 12.4142 13.9142 12.75 13.5 12.75H8.5C8.08579 12.75 7.75 12.4142 7.75 12Z" fill="#353566"/>
<path d="M7.75 16C7.75 15.5858 8.08579 15.25 8.5 15.25H10.5058C10.92 15.25 11.2558 15.5858 11.2558 16C11.2558 16.4142 10.92 16.75 10.5058 16.75H8.5C8.08579 16.75 7.75 16.4142 7.75 16Z" fill="#353566"/>
<path d="M5.5 7C4.94772 7 4.5 7.44772 4.5 8C4.5 8.55228 4.94772 9 5.5 9C6.05228 9 6.5001 8.55228 6.5001 8C6.5001 7.44772 6.05228 7 5.5 7Z" fill="#353566"/>
<path d="M4.5 12C4.5 11.4477 4.94772 11 5.5 11C6.05228 11 6.5001 11.4477 6.5001 12C6.5001 12.5523 6.05238 13 5.5001 13C4.94782 13 4.5 12.5523 4.5 12Z" fill="#353566"/>
<path d="M5.5 15C4.94772 15 4.5 15.4477 4.5 16C4.5 16.5523 4.94772 17 5.5 17C6.05228 17 6.5001 16.5523 6.5001 16C6.5001 15.4477 6.05228 15 5.5 15Z" fill="#353566"/>
<path fill-rule="evenodd" clip-rule="evenodd" d="M18 15.875C16.8252 15.875 15.875 16.8252 15.875 18C15.875 19.1748 16.8252 20.125 18 20.125C19.1748 20.125 20.125 19.1748 20.125 18C20.125 16.8252 19.1748 15.875 18 15.875ZM17.125 18C17.125 17.5156 17.5156 17.125 18 17.125C18.4844 17.125 18.875 17.5156 18.875 18C18.875 18.4844 18.4844 18.875 18 18.875C17.5156 18.875 17.125 18.4844 17.125 18Z" fill="#353566"/>
<path fill-rule="evenodd" clip-rule="evenodd" d="M18 13.25C20.3145 13.25 22.5739 14.665 23.6301 17.3627C23.79 17.771 23.79 18.229 23.6301 18.6373C22.5739 21.335 20.3145 22.75 18 22.75C15.6855 22.75 13.4261 21.335 12.3699 18.6373C12.21 18.229 12.21 17.771 12.3699 17.3627C13.4261 14.665 15.6855 13.25 18 13.25ZM18 14.75C16.3319 14.75 14.6086 15.7591 13.7667 17.9096C13.7444 17.9663 13.7444 18.0337 13.7667 18.0904C14.6086 20.2409 16.3319 21.25 18 21.25C19.6681 21.25 21.3914 20.2409 22.2333 18.0904C22.2556 18.0337 22.2556 17.9663 22.2333 17.9096C21.3914 15.7591 19.6681 14.75 18 14.75Z" fill="#353566"/>
</svg>
