<svg width="24" height="24" viewBox="0 0 24 24" fill="none" xmlns="http://www.w3.org/2000/svg">
<path d="M6.56739 1.25H12.4326C13.385 1.24999 14.1456 1.24999 14.7599 1.30018C15.3899 1.35165 15.9318 1.45963 16.4295 1.71322C17.2291 2.12068 17.8793 2.77085 18.2868 3.57054C18.5404 4.06824 18.6483 4.61012 18.6998 5.24013C18.75 5.85438 18.75 6.6149 18.75 7.5673V11.0652C18.75 11.4794 18.4142 11.8152 18 11.8152C17.5858 11.8152 17.25 11.4794 17.25 11.0652V7.6C17.25 6.60753 17.2494 5.90829 17.2048 5.36228C17.1609 4.82503 17.0782 4.50252 16.9503 4.25153C16.6866 3.73408 16.2659 3.31338 15.7485 3.04973C15.4975 2.92184 15.175 2.83909 14.6377 2.79519C14.0917 2.75058 13.3925 2.75 12.4 2.75H6.6C5.60753 2.75 4.90829 2.75058 4.36228 2.79519C3.82503 2.83909 3.50252 2.92184 3.25153 3.04973C2.73408 3.31338 2.31338 3.73408 2.04973 4.25153C1.92184 4.50252 1.83909 4.82503 1.79519 5.36228C1.75058 5.90829 1.75 6.60753 1.75 7.6V16.4C1.75 17.3925 1.75058 18.0917 1.79519 18.6377C1.83909 19.175 1.92184 19.4975 2.04973 19.7485C2.31338 20.2659 2.73408 20.6866 3.25153 20.9503C3.50252 21.0782 3.82503 21.1609 4.36228 21.2048C4.90829 21.2494 5.60753 21.25 6.6 21.25H12.4C12.698 21.25 12.9708 21.25 13.2234 21.2487C13.6376 21.2465 13.9752 21.5805 13.9773 21.9947C13.9795 22.409 13.6455 22.7465 13.2313 22.7487C12.9743 22.75 12.6978 22.75 12.4013 22.75H6.56737C5.61497 22.75 4.85438 22.75 4.24013 22.6998C3.61012 22.6483 3.06824 22.5404 2.57054 22.2868C1.77085 21.8793 1.12068 21.2291 0.713223 20.4295C0.459634 19.9318 0.35165 19.3899 0.300176 18.7599C0.249989 18.1456 0.249994 17.3851 0.25 16.4326V7.56739C0.249994 6.61495 0.249989 5.85439 0.300176 5.24013C0.35165 4.61012 0.459634 4.06824 0.713223 3.57054C1.12068 2.77085 1.77085 2.12068 2.57054 1.71322C3.06824 1.45963 3.61012 1.35165 4.24013 1.30018C4.85439 1.24999 5.61495 1.24999 6.56739 1.25Z" fill="#353566"/>
<path d="M9.25 8.1001C9.25 7.68588 9.58579 7.3501 10 7.3501H13.5C13.9142 7.3501 14.25 7.68588 14.25 8.1001C14.25 8.51431 13.9142 8.8501 13.5 8.8501H10C9.58579 8.8501 9.25 8.51431 9.25 8.1001Z" fill="#353566"/>
<path d="M9.25 11.9301C9.25 11.5158 9.58579 11.1801 10 11.1801H13.5C13.9142 11.1801 14.25 11.5158 14.25 11.9301C14.25 12.3443 13.9142 12.6801 13.5 12.6801H10C9.58579 12.6801 9.25 12.3443 9.25 11.9301Z" fill="#353566"/>
<path d="M9.25 15.7601C9.25 15.3459 9.58579 15.0101 10 15.0101H11.1474C11.5616 15.0101 11.8974 15.3459 11.8974 15.7601C11.8974 16.1743 11.5616 16.5101 11.1474 16.5101H10C9.58579 16.5101 9.25 16.1743 9.25 15.7601Z" fill="#353566"/>
<path d="M8.04144 8.01898C8.32807 7.71995 8.31801 7.24518 8.01898 6.95856C7.71995 6.67193 7.24518 6.68199 6.95856 6.98102L6.21184 7.76006L6.03154 7.57893C5.73932 7.28537 5.26444 7.28428 4.97088 7.57651C4.67732 7.86873 4.67624 8.3436 4.96846 8.63716L5.69044 9.36245C5.83292 9.50559 6.02711 9.58521 6.22907 9.5833C6.43102 9.58139 6.62367 9.49812 6.76342 9.35231L8.04144 8.01898Z" fill="#353566"/>
<path d="M8.01898 10.7886C8.31801 11.0753 8.32807 11.55 8.04144 11.8491L6.76342 13.1824C6.62367 13.3282 6.43102 13.4115 6.22907 13.4134C6.02711 13.4153 5.83292 13.3357 5.69044 13.1925L4.96846 12.4672C4.67624 12.1737 4.67732 11.6988 4.97088 11.4066C5.26444 11.1144 5.73932 11.1154 6.03154 11.409L6.21184 11.5901L6.95856 10.8111C7.24518 10.5121 7.71995 10.502 8.01898 10.7886Z" fill="#353566"/>
<path d="M8.04144 15.6789C8.32807 15.3799 8.31801 14.9051 8.01898 14.6185C7.71995 14.3318 7.24518 14.3419 6.95856 14.6409L6.21184 15.42L6.03154 15.2388C5.73932 14.9453 5.26444 14.9442 4.97088 15.2364C4.67732 15.5286 4.67624 16.0035 4.96846 16.2971L5.69044 17.0224C5.83292 17.1655 6.02711 17.2451 6.22907 17.2432C6.43102 17.2413 6.62367 17.158 6.76342 17.0122L8.04144 15.6789Z" fill="#353566"/>
<path fill-rule="evenodd" clip-rule="evenodd" d="M15.6134 14.5413C16.0038 13.4862 17.4962 13.4862 17.8866 14.5413L18.185 15.3478C18.4365 16.0275 18.9725 16.5635 19.6522 16.815L20.4587 17.1134C21.5138 17.5038 21.5138 18.9962 20.4587 19.3866L19.6522 19.685C18.9725 19.9365 18.4365 20.4725 18.185 21.1522L17.8866 21.9587C17.4962 23.0138 16.0038 23.0138 15.6134 21.9587L15.315 21.1522C15.0635 20.4725 14.5275 19.9365 13.8478 19.685L13.0413 19.3866C11.9862 18.9962 11.9862 17.5038 13.0413 17.1134L13.8478 16.815C14.5275 16.5635 15.0635 16.0275 15.315 15.3478L15.6134 14.5413ZM16.75 15.7921L16.7218 15.8683C16.3183 16.9587 15.4587 17.8183 14.3683 18.2218L14.2921 18.25L14.3683 18.2782C15.4587 18.6817 16.3183 19.5413 16.7218 20.6317L16.75 20.7079L16.7782 20.6317C17.1817 19.5413 18.0413 18.6817 19.1317 18.2782L19.2079 18.25L19.1317 18.2218C18.0413 17.8183 17.1817 16.9587 16.7782 15.8683L16.75 15.7921Z" fill="#353566"/>
<path d="M21.1269 12.0883C21.0833 11.9706 20.9167 11.9706 20.8731 12.0883L20.6789 12.6133C20.4962 13.107 20.107 13.4962 19.6133 13.6789L19.0883 13.8731C18.9706 13.9167 18.9706 14.0833 19.0883 14.1269L19.6133 14.3211C20.107 14.5038 20.4962 14.893 20.6789 15.3867L20.8731 15.9117C20.9167 16.0294 21.0833 16.0294 21.1269 15.9117L21.3211 15.3867C21.5038 14.893 21.893 14.5038 22.3867 14.3211L22.9117 14.1269C23.0294 14.0833 23.0294 13.9167 22.9117 13.8731L22.3867 13.6789C21.893 13.4962 21.5038 13.107 21.3211 12.6133L21.1269 12.0883Z" fill="#353566"/>
</svg>
