<svg width="24" height="24" viewBox="0 0 24 24" fill="none" xmlns="http://www.w3.org/2000/svg">
<path d="M6.56739 1.25H12.4326C13.385 1.24999 14.1456 1.24999 14.7599 1.30018C15.3899 1.35165 15.9318 1.45963 16.4295 1.71322C17.2291 2.12068 17.8793 2.77085 18.2868 3.57054C18.5404 4.06824 18.6483 4.61012 18.6998 5.24013C18.75 5.85438 18.75 6.6149 18.75 7.5673V9.09587C18.75 9.51009 18.4142 9.84587 18 9.84587C17.5858 9.84587 17.25 9.51009 17.25 9.09587V7.6C17.25 6.60753 17.2494 5.90829 17.2048 5.36228C17.1609 4.82503 17.0782 4.50252 16.9503 4.25153C16.6866 3.73408 16.2659 3.31338 15.7485 3.04973C15.4975 2.92184 15.175 2.83909 14.6377 2.79519C14.0917 2.75058 13.3925 2.75 12.4 2.75H6.6C5.60753 2.75 4.90829 2.75058 4.36228 2.79519C3.82503 2.83909 3.50252 2.92184 3.25153 3.04973C2.73408 3.31338 2.31338 3.73408 2.04973 4.25153C1.92184 4.50252 1.83909 4.82503 1.79519 5.36228C1.75058 5.90829 1.75 6.60753 1.75 7.6V16.4C1.75 17.3925 1.75058 18.0917 1.79519 18.6377C1.83909 19.175 1.92184 19.4975 2.04973 19.7485C2.31338 20.2659 2.73408 20.6866 3.25153 20.9503C3.50252 21.0782 3.82503 21.1609 4.36228 21.2048C4.90829 21.2494 5.60753 21.25 6.6 21.25H12.2561C12.6703 21.25 13.0061 21.5858 13.0061 22C13.0061 22.4142 12.6703 22.75 12.2561 22.75H6.56737C5.61497 22.75 4.85438 22.75 4.24013 22.6998C3.61012 22.6483 3.06824 22.5404 2.57054 22.2868C1.77085 21.8793 1.12068 21.2291 0.713223 20.4295C0.459634 19.9318 0.35165 19.3899 0.300176 18.7599C0.249989 18.1456 0.249994 17.3851 0.25 16.4326V7.56739C0.249994 6.61495 0.249989 5.85439 0.300176 5.24013C0.35165 4.61012 0.459634 4.06824 0.713223 3.57054C1.12068 2.77085 1.77085 2.12068 2.57054 1.71322C3.06824 1.45963 3.61012 1.35165 4.24013 1.30018C4.85439 1.24999 5.61495 1.24999 6.56739 1.25Z" fill="#353566"/>
<path d="M9.25 8.33984C9.25 7.92563 9.58579 7.58984 10 7.58984H13.5C13.9142 7.58984 14.25 7.92563 14.25 8.33984C14.25 8.75406 13.9142 9.08984 13.5 9.08984H10C9.58579 9.08984 9.25 8.75406 9.25 8.33984Z" fill="#353566"/>
<path d="M9.25 12.1699C9.25 11.7557 9.58579 11.4199 10 11.4199H13.5C13.9142 11.4199 14.25 11.7557 14.25 12.1699C14.25 12.5841 13.9142 12.9199 13.5 12.9199H10C9.58579 12.9199 9.25 12.5841 9.25 12.1699Z" fill="#353566"/>
<path d="M8.5 15.9999C8.5 15.5857 8.83579 15.2499 9.25 15.2499H12.1759C12.5901 15.2499 12.9259 15.5857 12.9259 15.9999C12.9259 16.4141 12.5901 16.7499 12.1759 16.7499H9.25C8.83579 16.7499 8.5 16.4141 8.5 15.9999Z" fill="#353566"/>
<path d="M8.04144 8.25897C8.32807 7.95994 8.31801 7.48517 8.01898 7.19855C7.71995 6.91192 7.24518 6.92198 6.95856 7.22101L6.21184 8.00005L6.03154 7.81892C5.73932 7.52536 5.26444 7.52427 4.97088 7.8165C4.67732 8.10872 4.67624 8.58359 4.96846 8.87715L5.69044 9.60244C5.83292 9.74558 6.02711 9.8252 6.22907 9.82329C6.43102 9.82138 6.62367 9.73811 6.76342 9.5923L8.04144 8.25897Z" fill="#353566"/>
<path d="M8.01898 11.0286C8.31801 11.3153 8.32807 11.79 8.04144 12.089L6.76342 13.4224C6.62367 13.5682 6.43102 13.6515 6.22907 13.6534C6.02711 13.6553 5.83292 13.5757 5.69044 13.4325L4.96846 12.7072C4.67624 12.4137 4.67732 11.9388 4.97088 11.6466C5.26444 11.3544 5.73932 11.3554 6.03154 11.649L6.21184 11.8301L6.95856 11.0511C7.24518 10.7521 7.71995 10.742 8.01898 11.0286Z" fill="#353566"/>
<path d="M6.5 15C5.94772 15 5.5 15.4477 5.5 16C5.5 16.5523 5.94772 17 6.5 17C7.05228 17 7.5001 16.5523 7.5001 16C7.5001 15.4477 7.05228 15 6.5 15Z" fill="#353566"/>
<path fill-rule="evenodd" clip-rule="evenodd" d="M16 14C16 12.4006 17.4286 11.25 19 11.25C20.5714 11.25 22 12.4006 22 14V15.0155C22.9866 15.1385 23.75 15.9801 23.75 17V20.75C23.75 21.8546 22.8546 22.75 21.75 22.75H16.25C15.1454 22.75 14.25 21.8546 14.25 20.75V17C14.25 15.9801 15.0134 15.1385 16 15.0155V14ZM17.5 15H20.5V14C20.5 13.3902 19.9139 12.75 19 12.75C18.0861 12.75 17.5 13.3902 17.5 14V15ZM16.25 16.5C15.9739 16.5 15.75 16.7239 15.75 17V20.75C15.75 21.0261 15.9739 21.25 16.25 21.25H21.75C22.0261 21.25 22.25 21.0261 22.25 20.75V17C22.25 16.7239 22.0261 16.5 21.75 16.5H16.25Z" fill="#353566"/>
</svg>
