<svg width="24" height="24" viewBox="0 0 24 24" fill="none" xmlns="http://www.w3.org/2000/svg">
<path d="M6.56739 1.25H12.4326C13.385 1.24999 14.1456 1.24999 14.7599 1.30018C15.3899 1.35165 15.9318 1.45963 16.4295 1.71322C17.2291 2.12068 17.8793 2.77085 18.2868 3.57054C18.5404 4.06824 18.6483 4.61012 18.6998 5.24013C18.75 5.85438 18.75 6.6149 18.75 7.5673V10.2447C18.75 10.6589 18.4142 10.9947 18 10.9947C17.5858 10.9947 17.25 10.6589 17.25 10.2447V7.6C17.25 6.60753 17.2494 5.90829 17.2048 5.36228C17.1609 4.82503 17.0782 4.50252 16.9503 4.25153C16.6866 3.73408 16.2659 3.31338 15.7485 3.04973C15.4975 2.92184 15.175 2.83909 14.6377 2.79519C14.0917 2.75058 13.3925 2.75 12.4 2.75H6.6C5.60753 2.75 4.90829 2.75058 4.36228 2.79519C3.82503 2.83909 3.50252 2.92184 3.25153 3.04973C2.73408 3.31338 2.31338 3.73408 2.04973 4.25153C1.92184 4.50252 1.83909 4.82503 1.79519 5.36228C1.75058 5.90829 1.75 6.60753 1.75 7.6V16.4C1.75 17.3925 1.75058 18.0917 1.79519 18.6377C1.83909 19.175 1.92184 19.4975 2.04973 19.7485C2.31338 20.2659 2.73408 20.6866 3.25153 20.9503C3.50252 21.0782 3.82503 21.1609 4.36228 21.2048C4.90829 21.2494 5.60753 21.25 6.6 21.25H12.2808C12.695 21.25 13.0308 21.5858 13.0308 22C13.0308 22.4142 12.695 22.75 12.2808 22.75H6.56737C5.61497 22.75 4.85438 22.75 4.24013 22.6998C3.61012 22.6483 3.06824 22.5404 2.57054 22.2868C1.77085 21.8793 1.12068 21.2291 0.713223 20.4295C0.459634 19.9318 0.35165 19.3899 0.300176 18.7599C0.249989 18.1456 0.249994 17.3851 0.25 16.4326V7.56739C0.249994 6.61495 0.249989 5.85439 0.300176 5.24013C0.35165 4.61012 0.459634 4.06824 0.713223 3.57054C1.12068 2.77085 1.77085 2.12068 2.57054 1.71322C3.06824 1.45963 3.61012 1.35165 4.24013 1.30018C4.85439 1.24999 5.61495 1.24999 6.56739 1.25Z" fill="#353566"/>
<path d="M7.75 8C7.75 7.58579 8.08579 7.25 8.5 7.25H13.5C13.9142 7.25 14.25 7.58579 14.25 8C14.25 8.41421 13.9142 8.75 13.5 8.75H8.5C8.08579 8.75 7.75 8.41421 7.75 8Z" fill="#353566"/>
<path d="M7.75 12C7.75 11.5858 8.08579 11.25 8.5 11.25H13.5C13.9142 11.25 14.25 11.5858 14.25 12C14.25 12.4142 13.9142 12.75 13.5 12.75H8.5C8.08579 12.75 7.75 12.4142 7.75 12Z" fill="#353566"/>
<path d="M7.75 16C7.75 15.5858 8.08579 15.25 8.5 15.25H13.5C13.9142 15.25 14.25 15.5858 14.25 16C14.25 16.4142 13.9142 16.75 13.5 16.75H8.5C8.08579 16.75 7.75 16.4142 7.75 16Z" fill="#353566"/>
<path d="M5.5 7C4.94772 7 4.5 7.44772 4.5 8C4.5 8.55228 4.94772 9 5.5 9C6.05228 9 6.5001 8.55228 6.5001 8C6.5001 7.44772 6.05228 7 5.5 7Z" fill="#353566"/>
<path d="M4.5 12C4.5 11.4477 4.94772 11 5.5 11C6.05228 11 6.5001 11.4477 6.5001 12C6.5001 12.5523 6.05238 13 5.5001 13C4.94782 13 4.5 12.5523 4.5 12Z" fill="#353566"/>
<path d="M5.5 15C4.94772 15 4.5 15.4477 4.5 16C4.5 16.5523 4.94772 17 5.5 17C6.05228 17 6.5001 16.5523 6.5001 16C6.5001 15.4477 6.05228 15 5.5 15Z" fill="#353566"/>
<path fill-rule="evenodd" clip-rule="evenodd" d="M15.1359 18.8389C14.586 19.2513 14.25 19.8451 14.25 20.4997C14.25 21.1544 14.586 21.7481 15.1359 22.1605C15.6777 22.5669 16.3551 22.7499 17.0003 22.7499C17.6454 22.7499 18.3228 22.5669 18.8647 22.1605C19.4134 21.7489 19.7492 21.1568 19.7505 20.5037C19.7505 20.5024 19.7505 20.5011 19.7505 20.4998V16.3117L22.671 15.4599C23.311 15.2732 23.751 14.6865 23.751 14.0198V12.6255C23.751 11.7087 22.871 11.0487 21.9909 11.3054L19.5106 12.0288C18.7639 12.2466 18.2505 12.9311 18.2505 13.7089V18.4915C17.8507 18.3265 17.4187 18.2495 17.0003 18.2495C16.3551 18.2495 15.6777 18.4325 15.1359 18.8389ZM17.0003 19.7495C16.6216 19.7495 16.2752 19.8594 16.0359 20.0389C15.8046 20.2124 15.75 20.3865 15.75 20.4997C15.75 20.6129 15.8046 20.787 16.0359 20.9605C16.2752 21.14 16.6216 21.2499 17.0003 21.2499C17.3789 21.2499 17.7254 21.14 17.9647 20.9605C18.1959 20.787 18.2505 20.6129 18.2505 20.4997C18.2505 20.3865 18.1959 20.2124 17.9647 20.0389C17.7254 19.8594 17.3789 19.7495 17.0003 19.7495ZM19.9306 13.4688L22.251 12.792L22.251 14.0199L19.7505 14.7492V13.7089C19.7505 13.5978 19.8239 13.4999 19.9306 13.4688Z" fill="#353566"/>
</svg>
