<svg width="24" height="24" viewBox="0 0 24 24" fill="none" xmlns="http://www.w3.org/2000/svg">
<path opacity="0.4" d="M20.5 17.7V7.74999C20.5 6.35216 20.5 5.65325 20.2716 5.10194C19.9672 4.36685 19.3831 3.78283 18.6481 3.47835C18.1169 3.25832 17.4486 3.25029 16.1503 3.25C16.0674 3.24998 16 3.31715 16 3.39999C16 3.96004 16 4.24007 15.891 4.45398C15.7951 4.64214 15.6422 4.79512 15.454 4.891C15.2401 4.99999 14.9601 4.99999 14.4 4.99999H9.6C9.03995 4.99999 8.75992 4.99999 8.54601 4.891C8.35785 4.79512 8.20487 4.64214 8.10899 4.45398C8 4.24007 8 3.96004 8 3.39999C8 3.31715 7.93257 3.24998 7.84972 3.25C6.55136 3.25029 5.88314 3.25832 5.35195 3.47835C4.61687 3.78283 4.03284 4.36685 3.72836 5.10194C3.5 5.65325 3.5 6.35216 3.5 7.74999V17.7C3.5 19.3801 3.5 20.2202 3.82698 20.862C4.1146 21.4264 4.57354 21.8854 5.13803 22.173C5.77976 22.5 6.61984 22.5 8.3 22.5H15.7C17.3802 22.5 18.2202 22.5 18.862 22.173C19.4265 21.8854 19.8854 21.4264 20.173 20.862C20.5 20.2202 20.5 19.3801 20.5 17.7Z" fill="#353566"/>
<path d="M10.346 8.87879C10.5453 9.06987 10.552 9.38638 10.361 9.58573L9.08294 10.9191C8.98977 11.0163 8.86134 11.0718 8.72671 11.0731C8.59207 11.0743 8.46261 11.0212 8.36762 10.9258L7.64564 10.2005C7.45082 10.0048 7.45155 9.68825 7.64726 9.49343C7.84296 9.29862 8.15954 9.29934 8.35436 9.49505L8.71522 9.85756L9.63904 8.89376C9.83012 8.69441 10.1466 8.6877 10.346 8.87879Z" fill="#353566"/>
<path d="M12.5 9.33984C12.2239 9.33984 12 9.5637 12 9.83984C12 10.116 12.2239 10.3398 12.5 10.3398H16C16.2761 10.3398 16.5 10.116 16.5 9.83984C16.5 9.5637 16.2761 9.33984 16 9.33984H12.5Z" fill="#353566"/>
<path d="M10.346 12.7089C10.5453 12.8999 10.552 13.2165 10.361 13.4158L9.08294 14.7491C8.98977 14.8463 8.86134 14.9019 8.72671 14.9031C8.59207 14.9044 8.46261 14.8513 8.36762 14.7559L7.64564 14.0306C7.45082 13.8349 7.45155 13.5183 7.64726 13.3235C7.84296 13.1287 8.15954 13.1294 8.35436 13.3251L8.71522 13.6876L9.63904 12.7238C9.83012 12.5245 10.1466 12.5178 10.346 12.7089Z" fill="#353566"/>
<path d="M12.5 13.1699C12.2239 13.1699 12 13.3938 12 13.6699C12 13.9461 12.2239 14.1699 12.5 14.1699H16C16.2761 14.1699 16.5 13.9461 16.5 13.6699C16.5 13.3938 16.2761 13.1699 16 13.1699H12.5Z" fill="#353566"/>
<path d="M8.25 17.4995C8.25 17.0853 8.58579 16.7495 9 16.7495C9.41421 16.7495 9.7501 17.0853 9.7501 17.4995C9.7501 17.9137 9.41431 18.2495 9.0001 18.2495C8.58589 18.2495 8.25 17.9137 8.25 17.4995Z" fill="#353566"/>
<path d="M11.75 16.9995C11.4739 16.9995 11.25 17.2234 11.25 17.4995C11.25 17.7757 11.4739 17.9995 11.75 17.9995H16C16.2761 17.9995 16.5 17.7757 16.5 17.4995C16.5 17.2234 16.2761 16.9995 16 16.9995H11.75Z" fill="#353566"/>
<path fill-rule="evenodd" clip-rule="evenodd" d="M9 0.999512C8.17157 0.999512 7.5 1.67108 7.5 2.49951V2.74996C7.03797 2.75133 6.65211 2.75686 6.3245 2.77922C5.88067 2.8095 5.50734 2.87231 5.16061 3.01593C4.30301 3.37116 3.62165 4.05252 3.26642 4.91012C3.1228 5.25686 3.05999 5.63018 3.02971 6.07401C3 6.50944 3 7.04777 3 7.73108V17.7217C3 18.543 2.99999 19.19 3.04253 19.7106C3.08593 20.2418 3.17609 20.6854 3.38148 21.0885C3.71703 21.747 4.25247 22.2825 4.91103 22.618C5.31413 22.8234 5.75771 22.9136 6.28889 22.957C6.80954 22.9995 7.45651 22.9995 8.27778 22.9995H15.7222C16.5435 22.9995 17.1905 22.9995 17.7111 22.957C18.2423 22.9136 18.6859 22.8234 19.089 22.618C19.7475 22.2825 20.283 21.747 20.6185 21.0885C20.8239 20.6854 20.9141 20.2418 20.9575 19.7106C21 19.19 21 18.543 21 17.7217V7.73109C21 7.04787 21 6.5094 20.9703 6.07401C20.94 5.63018 20.8772 5.25686 20.7336 4.91012C20.3783 4.05252 19.697 3.37116 18.8394 3.01593C18.4927 2.87231 18.1193 2.8095 17.6755 2.77922C17.3479 2.75686 16.962 2.75133 16.5 2.74996V2.49951C16.5 1.67108 15.8284 0.999512 15 0.999512H9ZM16.1017 5.01752C16.3489 4.75008 16.5 4.39244 16.5 3.99951V3.75C16.9549 3.75138 17.3109 3.75666 17.6074 3.7769C18.0003 3.80371 18.2521 3.85507 18.4567 3.93981C19.0693 4.19355 19.556 4.68023 19.8097 5.2928C19.8944 5.49738 19.9458 5.74917 19.9726 6.14208C19.9997 6.53948 20 7.04376 20 7.74951V17.6995C20 18.5478 19.9996 19.154 19.9608 19.6292C19.9224 20.0985 19.8491 20.3959 19.7275 20.6345C19.4878 21.1049 19.1054 21.4873 18.635 21.727C18.3963 21.8486 18.099 21.922 17.6297 21.9603C17.1545 21.9991 16.5483 21.9995 15.7 21.9995H8.3C7.45167 21.9995 6.84549 21.9991 6.37032 21.9603C5.90099 21.922 5.60366 21.8486 5.36502 21.727C4.89462 21.4873 4.51217 21.1049 4.27248 20.6345C4.15089 20.3959 4.07756 20.0985 4.03921 19.6292C4.00039 19.154 4 18.5478 4 17.6995V7.74951C4 7.04376 4.00027 6.53948 4.02739 6.14208C4.05419 5.74917 4.10556 5.49738 4.1903 5.2928C4.44404 4.68023 4.93072 4.19355 5.54329 3.93981C5.74787 3.85507 5.99966 3.80371 6.39257 3.7769C6.68911 3.75666 7.04515 3.75138 7.5 3.75V3.99951C7.5 4.82794 8.17157 5.49951 9 5.49951H15C15.3948 5.49951 15.754 5.34699 16.0218 5.09765C16.0494 5.07195 16.0761 5.04522 16.1017 5.01752ZM15.5 2.49951C15.5 2.22337 15.2761 1.99951 15 1.99951H9C8.72386 1.99951 8.5 2.22337 8.5 2.49951V3.39951C8.5 3.68779 8.50039 3.87393 8.51196 4.01559C8.52306 4.15143 8.5419 4.20179 8.5545 4.22651C8.57463 4.26603 8.59981 4.30245 8.62921 4.33495C8.64017 4.34706 8.65172 4.35863 8.66381 4.36962C8.6965 4.39932 8.73318 4.42472 8.773 4.44501C8.79773 4.45761 8.84809 4.47645 8.98392 4.48755C9.12559 4.49912 9.31172 4.49951 9.6 4.49951H14.4C14.6883 4.49951 14.8744 4.49912 15.0161 4.48755C15.1519 4.47645 15.2023 4.45761 15.227 4.44501C15.2633 4.4265 15.297 4.40374 15.3275 4.37734C15.3425 4.36431 15.3567 4.35041 15.3701 4.3357C15.3998 4.30301 15.4252 4.26633 15.4455 4.22651C15.4581 4.20179 15.4769 4.15143 15.488 4.01559C15.4996 3.87393 15.5 3.68779 15.5 3.39951V2.49951Z" fill="#353566"/>
</svg>
