<svg width="24" height="24" viewBox="0 0 24 24" fill="none" xmlns="http://www.w3.org/2000/svg">
<path opacity="0.4" fill-rule="evenodd" clip-rule="evenodd" d="M20.5 7.75V17.7C20.5 19.3802 20.5 20.2202 20.173 20.862C19.8854 21.4265 19.4265 21.8854 18.862 22.173C18.2202 22.5 17.3802 22.5 15.7 22.5H8.3C6.61984 22.5 5.77976 22.5 5.13803 22.173C4.57354 21.8854 4.1146 21.4265 3.82698 20.862C3.5 20.2202 3.5 19.3802 3.5 17.7V7.75C3.5 6.35218 3.5 5.65326 3.72836 5.10195C4.03284 4.36687 4.61687 3.78284 5.35195 3.47836C5.90326 3.25 6.60218 3.25 8 3.25V3.4C8 3.96005 8 4.24008 8.10899 4.45399C8.20487 4.64215 8.35785 4.79513 8.54601 4.89101C8.75992 5 9.03995 5 9.6 5H14.4C14.9601 5 15.2401 5 15.454 4.89101C15.6422 4.79513 15.7951 4.64215 15.891 4.45399C16 4.24008 16 3.96005 16 3.4V3.25C17.3978 3.25 18.0967 3.25 18.6481 3.47836C19.3831 3.78284 19.9672 4.36687 20.2716 5.10195C20.5 5.65326 20.5 6.35218 20.5 7.75ZM11.1796 9.15197C11.6957 8.89385 12.3032 8.89379 12.8193 9.1518L16.0917 10.7876C16.3934 10.9384 16.5839 11.2467 16.5837 11.584C16.5831 12.8787 16.5002 14.1222 15.9715 15.3306C15.2441 16.9934 13.9014 18.2745 12.2584 18.9915C12.0933 19.0635 11.9056 19.0635 11.7405 18.9914C10.0981 18.2748 8.75564 16.9954 8.0282 15.3328C7.49897 14.1232 7.41646 12.8786 7.41706 11.5826C7.41722 11.2461 7.6074 10.9385 7.9084 10.788L11.1796 9.15197Z" fill="#353566"/>
<path fill-rule="evenodd" clip-rule="evenodd" d="M12.82 9.14903C12.3038 8.89102 11.6963 8.89108 11.1802 9.1492L7.90907 10.7852C7.60807 10.9357 7.41788 11.2433 7.41773 11.5799C7.41712 12.8759 7.49964 14.1204 8.02886 15.33C8.75313 16.9853 10.0926 18.2693 11.7412 18.9887C11.9063 19.0607 12.094 19.0607 12.2591 18.9887C13.9081 18.2691 15.2479 16.9835 15.9722 15.3279C16.5008 14.1194 16.5838 12.876 16.5844 11.5812C16.5846 11.244 16.3941 10.9356 16.0924 10.7848L12.82 9.14903ZM11.5903 9.96905C11.8483 9.83999 12.1521 9.83996 12.4101 9.96897L15.6677 11.5973C15.6672 12.7592 15.6074 13.8746 15.1324 14.9605C14.5187 16.3632 13.4007 17.4841 12.0001 18.1015C10.5999 17.4849 9.48213 16.3647 8.86867 14.9626C8.39326 13.876 8.33384 12.76 8.33439 11.5974L11.5903 9.96905Z" fill="#353566"/>
<path fill-rule="evenodd" clip-rule="evenodd" d="M7.5 2.5C7.5 1.67157 8.17157 1 9 1H15C15.8284 1 16.5 1.67157 16.5 2.5V2.75045C16.962 2.75182 17.3479 2.75735 17.6755 2.7797C18.1193 2.80999 18.4927 2.8728 18.8394 3.01642C19.697 3.37165 20.3783 4.05301 20.7336 4.91061C20.8772 5.25734 20.94 5.63067 20.9703 6.0745C21 6.50992 21 7.04823 21 7.73152V17.7222C21 18.5435 21 19.1905 20.9575 19.7111C20.9141 20.2423 20.8239 20.6859 20.6185 21.089C20.283 21.7475 19.7475 22.283 19.089 22.6185C18.6859 22.8239 18.2423 22.9141 17.7111 22.9575C17.1905 23 16.5435 23 15.7222 23H8.27778C7.45651 23 6.80954 23 6.28889 22.9575C5.75771 22.9141 5.31413 22.8239 4.91103 22.6185C4.25247 22.283 3.71703 21.7475 3.38148 21.089C3.17609 20.6859 3.08593 20.2423 3.04253 19.7111C2.99999 19.1905 3 18.5435 3 17.7222V7.73158C3 7.04827 3 6.50993 3.02971 6.0745C3.05999 5.63067 3.1228 5.25734 3.26642 4.91061C3.62165 4.05301 4.30301 3.37165 5.16061 3.01642C5.50734 2.8728 5.88067 2.80999 6.3245 2.7797C6.65211 2.75735 7.03797 2.75182 7.5 2.75045V2.5ZM16.5 4C16.5 4.39293 16.3489 4.75057 16.1017 5.018C16.0761 5.04571 16.0494 5.07244 16.0218 5.09814C15.754 5.34748 15.3948 5.5 15 5.5H9C8.17157 5.5 7.5 4.82843 7.5 4V3.75049C7.04515 3.75187 6.68911 3.75715 6.39257 3.77739C5.99966 3.80419 5.74787 3.85556 5.54329 3.9403C4.93072 4.19404 4.44404 4.68072 4.1903 5.29329C4.10556 5.49787 4.05419 5.74966 4.02739 6.14257C4.00027 6.53997 4 7.04425 4 7.75V17.7C4 18.5483 4.00039 19.1545 4.03921 19.6297C4.07756 20.099 4.15089 20.3963 4.27248 20.635C4.51217 21.1054 4.89462 21.4878 5.36502 21.7275C5.60366 21.8491 5.90099 21.9224 6.37032 21.9608C6.84549 21.9996 7.45167 22 8.3 22H15.7C16.5483 22 17.1545 21.9996 17.6297 21.9608C18.099 21.9224 18.3963 21.8491 18.635 21.7275C19.1054 21.4878 19.4878 21.1054 19.7275 20.635C19.8491 20.3963 19.9224 20.099 19.9608 19.6297C19.9996 19.1545 20 18.5483 20 17.7V7.75C20 7.04425 19.9997 6.53997 19.9726 6.14257C19.9458 5.74966 19.8944 5.49787 19.8097 5.29329C19.556 4.68072 19.0693 4.19404 18.4567 3.9403C18.2521 3.85556 18.0003 3.80419 17.6074 3.77739C17.3109 3.75715 16.9549 3.75187 16.5 3.75049V4ZM15.5 2.5V3.4C15.5 3.68828 15.4996 3.87441 15.488 4.01608C15.4769 4.15191 15.4581 4.20227 15.4455 4.227C15.4252 4.26682 15.3998 4.3035 15.3701 4.33619C15.3567 4.3509 15.3425 4.3648 15.3275 4.37783C15.297 4.40423 15.2633 4.42699 15.227 4.4455C15.2023 4.4581 15.1519 4.47694 15.0161 4.48804C14.8744 4.49961 14.6883 4.5 14.4 4.5H9.6C9.31172 4.5 9.12559 4.49961 8.98392 4.48804C8.84809 4.47694 8.79773 4.4581 8.773 4.4455C8.73318 4.42521 8.6965 4.3998 8.66381 4.37011C8.65172 4.35912 8.64017 4.34755 8.62921 4.33544C8.59981 4.30294 8.57463 4.26652 8.5545 4.227C8.5419 4.20227 8.52306 4.15191 8.51196 4.01608C8.50039 3.87441 8.5 3.68828 8.5 3.4V2.5C8.5 2.22386 8.72386 2 9 2H15C15.2761 2 15.5 2.22386 15.5 2.5Z" fill="#353566"/>
</svg>
