<svg width="24" height="24" viewBox="0 0 24 24" fill="none" xmlns="http://www.w3.org/2000/svg">
<path opacity="0.4" d="M16.3124 21.4942C14.7429 21.3974 13.5 20.0938 13.5 18.5V17.5C13.5 16.9819 13.7938 16.5949 14.0895 16.2056C14.1305 16.1515 14.1716 16.0974 14.212 16.0428C14.2073 16.0237 14.2025 16.0045 14.1978 15.9853C14.0199 15.266 13.8401 14.5385 14.4393 13.9393L16.4393 11.9393C16.8696 11.509 17.4818 11.42 18 11.6014V7.6C18 5.63982 18 4.65972 17.6185 3.91103C17.283 3.25247 16.7475 2.71703 16.089 2.38148C15.3403 2 14.3602 2 12.4 2H6.6C4.63982 2 3.65972 2 2.91103 2.38148C2.25247 2.71703 1.71703 3.25247 1.38148 3.91103C1 4.65972 1 5.63982 1 7.6V16.4C1 18.3602 1 19.3403 1.38148 20.089C1.71703 20.7475 2.25247 21.283 2.91103 21.6185C3.65972 22 4.63982 22 6.6 22H12.4C14.3602 22 15.3403 22 16.089 21.6185C16.1651 21.5797 16.2396 21.5382 16.3124 21.4942Z" fill="#353566"/>
<path d="M6.57755 1.5C5.61647 1.5 4.86451 1.5 4.26049 1.54935C3.64594 1.59956 3.14062 1.70334 2.68404 1.93597C1.93139 2.31947 1.31947 2.93139 0.935974 3.68404C0.703335 4.14062 0.599556 4.64594 0.549345 5.26049C0.499995 5.86451 0.499997 6.61646 0.5 7.57754V16.4224C0.499997 17.3835 0.499995 18.1355 0.549345 18.7395C0.599556 19.3541 0.703335 19.8594 0.935974 20.316C1.31947 21.0686 1.93139 21.6805 2.68404 22.064C3.14062 22.2967 3.64594 22.4004 4.26049 22.4507C4.86453 22.5 5.61651 22.5 6.57765 22.5H12.4223C13.3835 22.5 14.1355 22.5 14.7395 22.4507C15.3541 22.4004 15.8594 22.2967 16.316 22.064C16.6169 21.9107 16.8954 21.7208 17.1458 21.5H16.4999C16.141 21.5 15.7968 21.437 15.4778 21.3214C15.2569 21.3839 14.993 21.4266 14.6581 21.454C14.0995 21.4996 13.3883 21.5 12.4 21.5H6.6C5.61166 21.5 4.90047 21.4996 4.34192 21.454C3.78921 21.4088 3.43014 21.3219 3.13803 21.173C2.57354 20.8854 2.1146 20.4265 1.82698 19.862C1.67814 19.5699 1.59118 19.2108 1.54602 18.6581C1.50039 18.0995 1.5 17.3883 1.5 16.4V7.6C1.5 6.61166 1.50039 5.90047 1.54602 5.34192C1.59118 4.78921 1.67814 4.43014 1.82698 4.13803C2.1146 3.57354 2.57354 3.1146 3.13803 2.82698C3.43014 2.67814 3.78921 2.59118 4.34192 2.54602C4.90047 2.50039 5.61166 2.5 6.6 2.5H12.4C13.3883 2.5 14.0995 2.50039 14.6581 2.54602C15.2108 2.59118 15.5699 2.67814 15.862 2.82698C16.4265 3.1146 16.8854 3.57354 17.173 4.13803C17.3219 4.43014 17.4088 4.78921 17.454 5.34192C17.4996 5.90047 17.5 6.61166 17.5 7.6V11.5128C17.8637 11.5176 18.2237 11.6502 18.5 11.8903V7.57754C18.5 6.61646 18.5 5.86451 18.4507 5.26049C18.4004 4.64594 18.2967 4.14062 18.064 3.68404C17.6805 2.93139 17.0686 2.31947 16.316 1.93597C15.8594 1.70334 15.3541 1.59956 14.7395 1.54935C14.1355 1.5 13.3835 1.5 12.4225 1.5H6.57755Z" fill="#353566"/>
<path d="M10 7.59998C9.72386 7.59998 9.5 7.82383 9.5 8.09998C9.5 8.37612 9.72386 8.59998 10 8.59998H13.5C13.7761 8.59998 14 8.37612 14 8.09998C14 7.82383 13.7761 7.59998 13.5 7.59998H10Z" fill="#353566"/>
<path d="M9.5 11.9301C9.5 11.6539 9.72386 11.4301 10 11.4301H13.5C13.7761 11.4301 14 11.6539 14 11.9301C14 12.2062 13.7761 12.4301 13.5 12.4301H10C9.72386 12.4301 9.5 12.2062 9.5 11.9301Z" fill="#353566"/>
<path d="M10 15.26C9.72386 15.26 9.5 15.4839 9.5 15.76C9.5 16.0362 9.72386 16.26 10 16.26H13.5C13.7761 16.26 14 16.0362 14 15.76C14 15.4839 13.7761 15.26 13.5 15.26H10Z" fill="#353566"/>
<path d="M7.84599 7.13904C8.04534 7.33012 8.05204 7.64663 7.86096 7.84599L6.58294 9.17932C6.48977 9.27652 6.36134 9.33204 6.22671 9.33331C6.09207 9.33458 5.96261 9.2815 5.86762 9.18608L5.14564 8.46079C4.95082 8.26508 4.95155 7.9485 5.14726 7.75368C5.34296 7.55887 5.65954 7.55959 5.85436 7.7553L6.21522 8.11781L7.13904 7.15401C7.33012 6.95466 7.64663 6.94796 7.84599 7.13904Z" fill="#353566"/>
<path d="M7.86096 11.6761C8.05204 11.4767 8.04534 11.1602 7.84599 10.9691C7.64663 10.778 7.33012 10.7847 7.13904 10.9841L6.21522 11.9479L5.85436 11.5854C5.65954 11.3897 5.34296 11.3889 5.14726 11.5838C4.95155 11.7786 4.95082 12.0952 5.14564 12.2909L5.86762 13.0162C5.96261 13.1116 6.09207 13.1647 6.22671 13.1634C6.36134 13.1621 6.48977 13.1066 6.58294 13.0094L7.86096 11.6761Z" fill="#353566"/>
<path d="M7.84599 14.7991C8.04534 14.9902 8.05204 15.3067 7.86096 15.506L6.58294 16.8394C6.48977 16.9366 6.36134 16.9921 6.22671 16.9933C6.09207 16.9946 5.96261 16.9415 5.86762 16.8461L5.14564 16.1208C4.95082 15.9251 4.95155 15.6085 5.14726 15.4137C5.34296 15.2189 5.65954 15.2196 5.85436 15.4153L6.21522 15.7778L7.13904 14.814C7.33012 14.6147 7.64663 14.608 7.84599 14.7991Z" fill="#353566"/>
<path d="M23 18C23.2761 18 23.5 17.7761 23.5 17.5V16.5C23.5 15.3954 22.6046 14.5 21.5 14.5H16.707L17.8535 13.3536C18.0488 13.1583 18.0488 12.8417 17.8535 12.6464C17.6582 12.4512 17.3416 12.4512 17.1464 12.6464L15.1464 14.6464C15.0034 14.7894 14.9606 15.0045 15.038 15.1913C15.1154 15.3782 15.2977 15.5 15.4999 15.5H21.5C22.0523 15.5 22.5 15.9477 22.5 16.5V17.5C22.5 17.7761 22.7239 18 23 18Z" fill="#353566"/>
<path d="M14.5 18.5V17.5C14.5 17.2239 14.7239 17 15 17C15.2761 17 15.5 17.2239 15.5 17.5V18.5C15.5 19.0523 15.9477 19.5 16.5 19.5H22.5C22.7022 19.5 22.8846 19.6218 22.9619 19.8087C23.0393 19.9955 22.9965 20.2106 22.8535 20.3536L20.8535 22.3536C20.6582 22.5488 20.3416 22.5488 20.1464 22.3535C19.9511 22.1583 19.9511 21.8417 20.1464 21.6464L21.2929 20.5H16.5C15.3954 20.5 14.5 19.6046 14.5 18.5Z" fill="#353566"/>
</svg>
