<svg width="24" height="24" viewBox="0 0 24 24" fill="none" xmlns="http://www.w3.org/2000/svg">
<path opacity="0.4" d="M16.1847 21.5678C14.7509 20.1451 13.5 18.2896 13.5 16.002C13.5 13.3066 15.4393 11.0614 18 10.5908V7.6C18 5.63982 18 4.65972 17.6185 3.91103C17.283 3.25247 16.7475 2.71703 16.089 2.38148C15.3403 2 14.3602 2 12.4 2H6.6C4.63982 2 3.65972 2 2.91103 2.38148C2.25247 2.71703 1.71703 3.25247 1.38148 3.91103C1 4.65972 1 5.63982 1 7.6V16.4C1 18.3602 1 19.3403 1.38148 20.089C1.71703 20.7475 2.25247 21.283 2.91103 21.6185C3.65972 22 4.63982 22 6.6 22H12.4C14.3602 22 15.3403 22 16.089 21.6185C16.1212 21.6021 16.1531 21.5852 16.1847 21.5678Z" fill="#353566"/>
<path d="M6.57755 1.5C5.61647 1.5 4.86451 1.5 4.26049 1.54935C3.64594 1.59956 3.14062 1.70334 2.68404 1.93597C1.93139 2.31947 1.31947 2.93139 0.935974 3.68404C0.703335 4.14062 0.599556 4.64594 0.549345 5.26049C0.499995 5.86451 0.499997 6.61646 0.5 7.57755V16.4224C0.499997 17.3835 0.499995 18.1355 0.549345 18.7395C0.599556 19.3541 0.703335 19.8594 0.935974 20.316C1.31947 21.0686 1.93139 21.6805 2.68404 22.064C3.14062 22.2967 3.64594 22.4004 4.26049 22.4507C4.86453 22.5 5.61651 22.5 6.57765 22.5H12.4223C13.3835 22.5 14.1355 22.5 14.7395 22.4507C15.3541 22.4004 15.8594 22.2967 16.316 22.064C16.3994 22.0215 16.4812 21.9762 16.561 21.9281C16.31 21.696 16.0616 21.451 15.8213 21.1931C15.5365 21.3298 15.1854 21.4109 14.6581 21.454C14.0995 21.4996 13.3883 21.5 12.4 21.5H6.6C5.61166 21.5 4.90047 21.4996 4.34192 21.454C3.78921 21.4088 3.43014 21.3219 3.13803 21.173C2.57354 20.8854 2.1146 20.4265 1.82698 19.862C1.67814 19.5699 1.59118 19.2108 1.54602 18.6581C1.50039 18.0995 1.5 17.3883 1.5 16.4V7.6C1.5 6.61166 1.50039 5.90047 1.54602 5.34192C1.59118 4.78921 1.67814 4.43014 1.82698 4.13803C2.1146 3.57354 2.57354 3.1146 3.13803 2.82698C3.43014 2.67814 3.78921 2.59118 4.34192 2.54602C4.90047 2.50039 5.61166 2.5 6.6 2.5H12.4C13.3883 2.5 14.0995 2.50039 14.6581 2.54602C15.2108 2.59118 15.5699 2.67814 15.862 2.82698C16.4265 3.1146 16.8854 3.57354 17.173 4.13803C17.3219 4.43014 17.4088 4.78921 17.454 5.34192C17.4996 5.90047 17.5 6.61166 17.5 7.6V10.7072C17.8223 10.616 18.1566 10.5534 18.5 10.5224V7.57754C18.5 6.61646 18.5 5.86451 18.4507 5.26049C18.4004 4.64594 18.2967 4.14062 18.064 3.68404C17.6805 2.93139 17.0686 2.31947 16.316 1.93597C15.8594 1.70334 15.3541 1.59956 14.7395 1.54935C14.1355 1.5 13.3835 1.5 12.4225 1.5H6.57755Z" fill="#353566"/>
<path d="M13.5225 15.5005C13.515 15.5002 13.5075 15.5 13.5 15.5H9.25C8.97386 15.5 8.75 15.7239 8.75 16C8.75 16.2761 8.97386 16.5 9.25 16.5H13.5C13.5066 16.5 13.5132 16.4999 13.5198 16.4996C13.5067 16.3361 13.4999 16.1702 13.4999 16.002C13.4999 15.833 13.5076 15.6657 13.5225 15.5005Z" fill="#353566"/>
<path d="M10 7.83997C9.72386 7.83997 9.5 8.06382 9.5 8.33997C9.5 8.61611 9.72386 8.83997 10 8.83997H13.5C13.7761 8.83997 14 8.61611 14 8.33997C14 8.06382 13.7761 7.83997 13.5 7.83997H10Z" fill="#353566"/>
<path d="M9.5 12.17C9.5 11.8939 9.72386 11.67 10 11.67H13.5C13.7761 11.67 14 11.8939 14 12.17C14 12.4462 13.7761 12.67 13.5 12.67H10C9.72386 12.67 9.5 12.4462 9.5 12.17Z" fill="#353566"/>
<path d="M7.84599 7.37903C8.04534 7.57011 8.05204 7.88662 7.86096 8.08598L6.58294 9.41931C6.48977 9.51651 6.36134 9.57203 6.22671 9.5733C6.09207 9.57457 5.96261 9.52149 5.86762 9.42607L5.14564 8.70078C4.95082 8.50507 4.95155 8.18849 5.14726 7.99368C5.34296 7.79886 5.65954 7.79958 5.85436 7.99529L6.21522 8.3578L7.13904 7.394C7.33012 7.19465 7.64663 7.18795 7.84599 7.37903Z" fill="#353566"/>
<path d="M7.86096 11.9161C8.05204 11.7167 8.04534 11.4002 7.84599 11.2091C7.64663 11.018 7.33012 11.0247 7.13904 11.2241L6.21522 12.1879L5.85436 11.8254C5.65954 11.6297 5.34296 11.6289 5.14726 11.8238C4.95155 12.0186 4.95082 12.3352 5.14564 12.5309L5.86762 13.2561C5.96261 13.3516 6.09207 13.4047 6.22671 13.4034C6.36134 13.4021 6.48977 13.3466 6.58294 13.2494L7.86096 11.9161Z" fill="#353566"/>
<path d="M5.75 16C5.75 15.5858 6.08579 15.25 6.5 15.25C6.91421 15.25 7.2501 15.5858 7.2501 16C7.2501 16.4142 6.91431 16.75 6.5001 16.75C6.08589 16.75 5.75 16.4142 5.75 16Z" fill="#353566"/>
<path fill-rule="evenodd" clip-rule="evenodd" d="M19 14C17.8954 14 17 14.8954 17 16C17 17.1046 17.8954 18 19 18C20.1046 18 21 17.1046 21 16C21 14.8954 20.1046 14 19 14ZM18 16C18 15.4477 18.4477 15 19 15C19.5523 15 20 15.4477 20 16C20 16.5523 19.5523 17 19 17C18.4477 17 18 16.5523 18 16Z" fill="#353566"/>
<path fill-rule="evenodd" clip-rule="evenodd" d="M14.5 16.002C14.5 13.517 16.5144 11.5 19.0001 11.5C21.4854 11.5 23.5 13.5147 23.5 16C23.5 18.7667 21.3 20.9 19.3 22.4C19.1222 22.5333 18.8778 22.5333 18.7 22.4C16.7001 20.9001 14.5 18.7667 14.5 16.002ZM19.0001 12.5C17.0674 12.5 15.5 14.0687 15.5 16.002C15.5 18.1211 17.1234 19.9113 19 21.3709C20.8765 19.9113 22.5 18.121 22.5 16C22.5 14.067 20.9331 12.5 19.0001 12.5Z" fill="#353566"/>
</svg>
