<svg width="24" height="24" viewBox="0 0 24 24" fill="none" xmlns="http://www.w3.org/2000/svg">
<path opacity="0.4" d="M13.2806 21.9984C13.0878 21.2848 13.2659 20.4664 13.4331 19.6981C13.4756 19.5026 13.5175 19.3104 13.5523 19.1239C13.4174 18.9971 13.2741 18.8696 13.1285 18.7399C12.196 17.9098 11.1658 16.9927 11.6065 15.628C12.0485 14.2595 13.4301 14.1178 14.6778 13.9898C14.8761 13.9695 15.071 13.9495 15.2583 13.925C15.3399 13.7557 15.4195 13.5778 15.5006 13.3968C16.0102 12.2592 16.5737 11.0013 18 11V7.6C18 5.63982 18 4.65972 17.6185 3.91103C17.283 3.25247 16.7475 2.71703 16.089 2.38148C15.3403 2 14.3602 2 12.4 2H6.6C4.63982 2 3.65972 2 2.91103 2.38148C2.25247 2.71703 1.71703 3.25247 1.38148 3.91103C1 4.65972 1 5.63982 1 7.6V16.4C1 18.3602 1 19.3403 1.38148 20.089C1.71703 20.7475 2.25247 21.283 2.91103 21.6185C3.65972 22 4.63982 22 6.6 22H12.4C12.7183 22 13.0108 22 13.2806 21.9984Z" fill="#353566"/>
<path d="M6.57755 1.5H12.4224C13.3835 1.5 14.1355 1.5 14.7395 1.54935C15.3541 1.59956 15.8594 1.70334 16.316 1.93597C17.0686 2.31947 17.6805 2.93139 18.064 3.68404C18.2967 4.14062 18.4004 4.64594 18.4507 5.26049C18.5 5.86451 18.5 6.61646 18.5 7.57754V11.0566C18.3465 11.0198 18.1811 11 18.0021 11C17.8214 11 17.6546 11.0201 17.5 11.0576V7.6C17.5 6.61166 17.4996 5.90047 17.454 5.34192C17.4088 4.78921 17.3219 4.43014 17.173 4.13803C16.8854 3.57354 16.4265 3.1146 15.862 2.82698C15.5699 2.67814 15.2108 2.59118 14.6581 2.54602C14.0995 2.50039 13.3883 2.5 12.4 2.5H6.6C5.61166 2.5 4.90047 2.50039 4.34192 2.54602C3.78921 2.59118 3.43014 2.67814 3.13803 2.82698C2.57354 3.1146 2.1146 3.57354 1.82698 4.13803C1.67814 4.43014 1.59118 4.78921 1.54602 5.34192C1.50039 5.90047 1.5 6.61166 1.5 7.6V16.4C1.5 17.3883 1.50039 18.0995 1.54602 18.6581C1.59118 19.2108 1.67814 19.5699 1.82698 19.862C2.1146 20.4265 2.57354 20.8854 3.13803 21.173C3.43014 21.3219 3.78921 21.4088 4.34192 21.454C4.90047 21.4996 5.61166 21.5 6.6 21.5H12.4C12.6902 21.5 12.9566 21.5 13.2022 21.4988C13.2229 21.8521 13.3063 22.1901 13.4916 22.4967C13.1671 22.5 12.8125 22.5 12.4237 22.5H6.57765C5.61651 22.5 4.86453 22.5 4.26049 22.4507C3.64594 22.4004 3.14062 22.2967 2.68404 22.064C1.93139 21.6805 1.31947 21.0686 0.935974 20.316C0.703335 19.8594 0.599556 19.3541 0.549345 18.7395C0.499995 18.1355 0.499997 17.3835 0.5 16.4225V7.57756C0.499997 6.61647 0.499995 5.86451 0.549345 5.26049C0.599556 4.64594 0.703335 4.14062 0.935974 3.68404C1.31947 2.93139 1.93139 2.31947 2.68404 1.93597C3.14062 1.70334 3.64594 1.59956 4.26049 1.54935C4.86451 1.5 5.61647 1.5 6.57755 1.5Z" fill="#353566"/>
<path d="M10 15.26H11.7624C11.7021 15.3717 11.6498 15.4939 11.6065 15.628C11.5348 15.85 11.502 16.0601 11.5014 16.26H10C9.72386 16.26 9.5 16.0362 9.5 15.76C9.5 15.4839 9.72386 15.26 10 15.26Z" fill="#353566"/>
<path d="M9.5 8.09998C9.5 7.82383 9.72386 7.59998 10 7.59998H13.5C13.7761 7.59998 14 7.82383 14 8.09998C14 8.37612 13.7761 8.59998 13.5 8.59998H10C9.72386 8.59998 9.5 8.37612 9.5 8.09998Z" fill="#353566"/>
<path d="M10 11.4301C9.72386 11.4301 9.5 11.6539 9.5 11.9301C9.5 12.2062 9.72386 12.4301 10 12.4301H13.5C13.7761 12.4301 14 12.2062 14 11.9301C14 11.6539 13.7761 11.4301 13.5 11.4301H10Z" fill="#353566"/>
<path d="M7.86096 7.84599C8.05204 7.64663 8.04534 7.33012 7.84599 7.13904C7.64663 6.94796 7.33012 6.95466 7.13904 7.15401L6.21522 8.11781L5.85436 7.7553C5.65954 7.55959 5.34296 7.55887 5.14726 7.75368C4.95155 7.9485 4.95082 8.26508 5.14564 8.46079L5.86762 9.18608C5.96261 9.2815 6.09207 9.33458 6.22671 9.33331C6.36134 9.33204 6.48977 9.27652 6.58294 9.17932L7.86096 7.84599Z" fill="#353566"/>
<path d="M7.84599 10.9691C8.04534 11.1602 8.05204 11.4767 7.86096 11.6761L6.58294 13.0094C6.48977 13.1066 6.36134 13.1621 6.22671 13.1634C6.09207 13.1647 5.96261 13.1116 5.86762 13.0162L5.14564 12.2909C4.95082 12.0952 4.95155 11.7786 5.14726 11.5838C5.34296 11.3889 5.65954 11.3897 5.85436 11.5854L6.21522 11.9479L7.13904 10.9841C7.33012 10.7847 7.64663 10.778 7.84599 10.9691Z" fill="#353566"/>
<path d="M7.86096 15.506C8.05204 15.3067 8.04534 14.9902 7.84599 14.7991C7.64663 14.608 7.33012 14.6147 7.13904 14.814L6.21522 15.7778L5.85436 15.4153C5.65954 15.2196 5.34296 15.2189 5.14726 15.4137C4.95155 15.6085 4.95082 15.9251 5.14564 16.1208L5.86762 16.8461C5.96261 16.9415 6.09207 16.9946 6.22671 16.9933C6.36134 16.9921 6.48977 16.9366 6.58294 16.8394L7.86096 15.506Z" fill="#353566"/>
<path fill-rule="evenodd" clip-rule="evenodd" d="M19.0133 12.6365C18.6043 11.7878 17.3957 11.7878 16.9866 12.6365L15.9213 14.8464L13.4801 15.165C12.5385 15.2879 12.1633 16.45 12.8553 17.1003L14.6335 18.7713L14.1858 21.1646C14.0121 22.0935 14.9916 22.8097 15.824 22.3625L18 21.1934L20.1759 22.3625C21.0083 22.8097 21.9878 22.0935 21.8141 21.1646L21.3664 18.7713L23.1446 17.1003C23.8366 16.45 23.4614 15.2879 22.5198 15.165L20.0786 14.8464L19.0133 12.6365ZM17.8874 13.0707C17.9328 12.9764 18.0671 12.9764 18.1125 13.0707L19.1778 15.2807C19.3244 15.5848 19.6145 15.7944 19.9492 15.838L22.3905 16.1566C22.495 16.1702 22.5367 16.2993 22.4599 16.3716L20.6816 18.0426C20.4331 18.2761 20.3208 18.62 20.3834 18.9552L20.8311 21.3485C20.8504 21.4517 20.7416 21.5312 20.6492 21.4815L18.4732 20.3125C18.1777 20.1537 17.8222 20.1537 17.5267 20.3125L15.3508 21.4815C15.2583 21.5312 15.1495 21.4517 15.1688 21.3485L15.6165 18.9552C15.6792 18.62 15.5668 18.2761 15.3183 18.0426L13.5401 16.3716C13.4632 16.2993 13.5049 16.1702 13.6095 16.1566L16.0507 15.838C16.3854 15.7944 16.6755 15.5848 16.8221 15.2807L17.8874 13.0707Z" fill="#353566"/>
</svg>
