<svg width="24" height="24" viewBox="0 0 24 24" fill="none" xmlns="http://www.w3.org/2000/svg">
<path opacity="0.4" d="M10.5582 14.2413C10.6363 14.0105 10.5974 13.7561 10.4538 13.5592C10.3103 13.3623 10.0801 13.2474 9.83644 13.2511C6.26032 13.3051 2.42499 15.1794 1.34973 19.0643C1.23466 19.4801 1.2364 19.9129 1.26978 20.2619C1.39518 21.5728 2.43215 22.6116 3.7432 22.7373C3.87485 22.7499 4.02183 22.7499 4.21248 22.7498L13.0602 22.7498C13.4055 22.7498 13.7062 22.5141 13.7886 22.1787C13.8709 21.8434 13.7137 21.4951 13.4077 21.3352C11.5293 20.3533 10.25 18.3878 10.25 16.1248C10.25 15.4648 10.3586 14.8316 10.5582 14.2413Z" fill="#353566"/>
<path d="M10 1.25C7.1005 1.25 4.75 3.6005 4.75 6.5C4.75 9.3995 7.1005 11.75 10 11.75C12.8995 11.75 15.25 9.3995 15.25 6.5C15.25 3.6005 12.8995 1.25 10 1.25Z" fill="#353566"/>
<path fill-rule="evenodd" clip-rule="evenodd" d="M11.25 16.125C11.25 13.4326 13.4326 11.25 16.125 11.25C18.8174 11.25 21 13.4326 21 16.125C21 17.2006 20.6517 18.1948 20.0617 19.001L22.5303 21.4697C22.8232 21.7626 22.8232 22.2374 22.5303 22.5303C22.2374 22.8232 21.7625 22.8232 21.4696 22.5303L19.001 20.0617C18.1948 20.6517 17.2006 21 16.125 21C13.4326 21 11.25 18.8174 11.25 16.125ZM16.125 12.75C14.261 12.75 12.75 14.261 12.75 16.125C12.75 17.989 14.261 19.5 16.125 19.5C17.989 19.5 19.5 17.989 19.5 16.125C19.5 14.261 17.989 12.75 16.125 12.75Z" fill="#353566"/>
</svg>
