<svg width="24" height="24" viewBox="0 0 24 24" fill="none" xmlns="http://www.w3.org/2000/svg">
<path opacity="0.4" d="M10.0005 13.25C5.7345 13.25 1.82425 15.927 1.25754 19.8939C1.2268 20.1092 1.29096 20.3272 1.43341 20.4914C1.57587 20.6557 1.78259 20.75 2 20.75H12.8373C13.1674 20.75 13.4586 20.5342 13.5548 20.2184C13.6509 19.9027 13.5293 19.5612 13.2552 19.3772C12.2223 18.684 11.8761 17.1873 12.7491 16.0958L13.6438 14.9774C13.7959 14.7871 13.8462 14.5348 13.7786 14.3007C13.711 14.0666 13.5339 13.88 13.3036 13.8002C12.2732 13.4431 11.155 13.25 10.0005 13.25Z" fill="#353566"/>
<path d="M4.75 6.5C4.75 3.6005 7.1005 1.25 10 1.25C12.8995 1.25 15.25 3.6005 15.25 6.5C15.25 9.3995 12.8995 11.75 10 11.75C7.1005 11.75 4.75 9.3995 4.75 6.5Z" fill="#353566"/>
<path d="M17.72 11.8763C18.3101 11.1388 19.5009 11.5551 19.5009 12.5008V15.5002H21.5009C22.3388 15.5002 22.8058 16.4694 22.2818 17.1244L18.2818 22.1238C17.6917 22.8614 16.5009 22.445 16.5009 21.4993V18.5H14.5009C13.663 18.5 13.196 17.5308 13.72 16.8758L17.72 11.8763Z" fill="#353566"/>
</svg>
