<svg width="24" height="24" viewBox="0 0 24 24" fill="none" xmlns="http://www.w3.org/2000/svg">
<path opacity="0.4" d="M10.0005 13.25C5.7345 13.25 1.82425 15.927 1.25754 19.8939C1.2268 20.1092 1.29096 20.3272 1.43341 20.4914C1.57587 20.6557 1.78259 20.75 2 20.75H10.1064C10.3975 20.75 10.6623 20.5816 10.7857 20.3179C10.9091 20.0543 10.8688 19.7431 10.6824 19.5196C10.4177 19.2023 10.2471 18.8048 10.2471 18.25C10.2471 17.5993 10.481 17.1538 10.8505 16.7995C11.2456 16.4206 11.8159 16.1294 12.4979 15.8777L12.4991 15.8772C12.9026 15.7275 13.2189 15.4096 13.3708 15.0147C13.3843 14.9796 13.3951 14.9435 13.4032 14.9068C13.4232 14.8161 13.4473 14.7253 13.4755 14.635C13.535 14.4446 13.5162 14.2384 13.4233 14.0619C13.3304 13.8854 13.171 13.7532 12.9804 13.6945C12.041 13.4052 11.0354 13.25 10.0005 13.25Z" fill="#353566"/>
<path d="M10 1.25C7.1005 1.25 4.75 3.6005 4.75 6.5C4.75 9.3995 7.1005 11.75 10 11.75C12.8995 11.75 15.25 9.3995 15.25 6.5C15.25 3.6005 12.8995 1.25 10 1.25Z" fill="#353566"/>
<path d="M14.8479 14.6281C15.1578 13.7906 16.3422 13.7906 16.6521 14.6281L16.9505 15.4345C17.2274 16.1827 17.8173 16.7726 18.5655 17.0495L19.3719 17.3479C20.2094 17.6578 20.2094 18.8422 19.3719 19.1521L18.5655 19.4505C17.8173 19.7274 17.2274 20.3173 16.9505 21.0655L16.6521 21.8719C16.3422 22.7094 15.1578 22.7094 14.8479 21.8719L14.5495 21.0655C14.2726 20.3173 13.6827 19.7274 12.9345 19.4505L12.1281 19.1521C11.2906 18.8422 11.2906 17.6578 12.1281 17.3479L12.9345 17.0495C13.6827 16.7726 14.2726 16.1827 14.5495 15.4345L14.8479 14.6281Z" fill="#353566"/>
<path d="M19.8731 12.0883C19.9167 11.9706 20.0833 11.9706 20.1269 12.0883L20.3211 12.6133C20.5038 13.107 20.893 13.4962 21.3867 13.6789L21.9117 13.8731C22.0294 13.9167 22.0294 14.0833 21.9117 14.1269L21.3867 14.3211C20.893 14.5038 20.5038 14.893 20.3211 15.3867L20.1269 15.9117C20.0833 16.0294 19.9167 16.0294 19.8731 15.9117L19.6789 15.3867C19.4962 14.893 19.107 14.5038 18.6133 14.3211L18.0883 14.1269C17.9706 14.0833 17.9706 13.9167 18.0883 13.8731L18.6133 13.6789C19.107 13.4962 19.4962 13.107 19.6789 12.6133L19.8731 12.0883Z" fill="#353566"/>
</svg>
