<svg width="24" height="24" viewBox="0 0 24 24" fill="none" xmlns="http://www.w3.org/2000/svg">
<path opacity="0.4" d="M16.9326 3.25H7.06739C6.11495 3.24999 5.35439 3.24999 4.74013 3.30018C4.11012 3.35165 3.56824 3.45963 3.07054 3.71322C2.27085 4.12068 1.62068 4.77085 1.21322 5.57054C0.959634 6.06824 0.85165 6.61012 0.800176 7.24013C0.749989 7.85439 0.749994 8.61494 0.75 9.56738V14.4326C0.749994 15.3851 0.749989 16.1456 0.800176 16.7599C0.85165 17.3899 0.959634 17.9318 1.21322 18.4295C1.62068 19.2291 2.27085 19.8793 3.07054 20.2868C3.56824 20.5404 4.11012 20.6483 4.74013 20.6998C5.35438 20.75 6.1149 20.75 7.0673 20.75H16.9326C17.885 20.75 18.6456 20.75 19.2599 20.6998C19.8899 20.6483 20.4318 20.5404 20.9295 20.2868C21.7291 19.8793 22.3793 19.2291 22.7868 18.4295C23.0404 17.9318 23.1483 17.3899 23.1998 16.7599C23.25 16.1456 23.25 15.3851 23.25 14.4327V9.56737C23.25 8.61496 23.25 7.85438 23.1998 7.24013C23.1483 6.61012 23.0404 6.06824 22.7868 5.57054C22.3793 4.77085 21.7291 4.12068 20.9295 3.71322C20.4318 3.45963 19.8899 3.35165 19.2599 3.30018C18.6456 3.24999 17.8851 3.24999 16.9326 3.25Z" fill="#353566"/>
<path d="M9.25 9.25C9.25 7.73122 10.4812 6.5 12 6.5C13.5188 6.5 14.75 7.73122 14.75 9.25C14.75 10.7688 13.5188 12 12 12C10.4812 12 9.25 10.7688 9.25 9.25Z" fill="#353566"/>
<path d="M7.51579 16.8754C8.01988 14.9168 9.92104 13.5 12 13.5C14.0789 13.5 15.9801 14.9168 16.4842 16.8754C16.5228 17.0251 16.4899 17.1842 16.3952 17.3063C16.3005 17.4285 16.1546 17.5 16 17.5H8C7.84543 17.5 7.69954 17.4285 7.60484 17.3063C7.51013 17.1842 7.47726 17.0251 7.51579 16.8754Z" fill="#353566"/>
</svg>
