<svg width="24" height="24" viewBox="0 0 24 24" fill="none" xmlns="http://www.w3.org/2000/svg">
<path opacity="0.4" d="M10.0005 13.25C5.7345 13.25 1.82425 15.927 1.25754 19.8939C1.2268 20.1092 1.29096 20.3272 1.43341 20.4914C1.57587 20.6557 1.78259 20.75 2 20.75H11.5C11.9142 20.75 12.25 20.4142 12.25 20V17.25C12.25 16.3407 12.622 15.5199 13.2252 14.9288C13.4146 14.7432 13.4919 14.4712 13.4284 14.2137C13.3649 13.9561 13.1701 13.7513 12.9161 13.6749C11.9952 13.3982 11.0118 13.25 10.0005 13.25Z" fill="#353566"/>
<path d="M4.75 6.5C4.75 3.6005 7.1005 1.25 10 1.25C12.8995 1.25 15.25 3.6005 15.25 6.5C15.25 9.3995 12.8995 11.75 10 11.75C7.1005 11.75 4.75 9.3995 4.75 6.5Z" fill="#353566"/>
<path fill-rule="evenodd" clip-rule="evenodd" d="M18 11.25C16.4286 11.25 15 12.4006 15 14V15.2677C14.1519 15.389 13.5 16.1184 13.5 17V20.75C13.5 21.7165 14.2835 22.5 15.25 22.5H20.75C21.7165 22.5 22.5 21.7165 22.5 20.75V17C22.5 16.1184 21.8481 15.389 21 15.2677V14C21 12.4006 19.5714 11.25 18 11.25ZM16.5 14C16.5 13.3902 17.0861 12.75 18 12.75C18.9139 12.75 19.5 13.3902 19.5 14V15H16.5V14Z" fill="#353566"/>
</svg>
