<svg width="24" height="24" viewBox="0 0 24 24" fill="none" xmlns="http://www.w3.org/2000/svg">
<g opacity="0.4">
<path d="M16.5 2.25C18.5711 2.25 20.25 3.92893 20.25 6V8.18934L21.2197 7.21967C21.5126 6.92678 21.9874 6.92678 22.2803 7.21967C22.5732 7.51256 22.5732 7.98744 22.2803 8.28033L20.0303 10.5303C19.7374 10.8232 19.2626 10.8232 18.9697 10.5303L16.7197 8.28033C16.4268 7.98744 16.4268 7.51256 16.7197 7.21967C17.0126 6.92678 17.4874 6.92678 17.7803 7.21967L18.75 8.18934V6C18.75 4.75736 17.7426 3.75 16.5 3.75H13C12.5858 3.75 12.25 3.41421 12.25 3C12.25 2.58579 12.5858 2.25 13 2.25H16.5Z" fill="#353566"/>
<path d="M7.5 21.75H11C11.4142 21.75 11.75 21.4142 11.75 21C11.75 20.5858 11.4142 20.25 11 20.25H7.5C6.25736 20.25 5.25 19.2426 5.25 18V15.8107L6.21967 16.7803C6.51256 17.0732 6.98744 17.0732 7.28033 16.7803C7.57322 16.4874 7.57322 16.0126 7.28033 15.7197L5.03033 13.4697C4.88968 13.329 4.69891 13.25 4.5 13.25C4.30109 13.25 4.11032 13.329 3.96967 13.4697L1.71967 15.7197C1.42678 16.0126 1.42678 16.4874 1.71967 16.7803C2.01256 17.0732 2.48744 17.0732 2.78033 16.7803L3.75 15.8107V18C3.75 20.0711 5.42893 21.75 7.5 21.75Z" fill="#353566"/>
</g>
<path d="M3.02094 3.97913C3.02094 2.5639 4.16821 1.41663 5.58344 1.41663C6.99866 1.41663 8.14594 2.5639 8.14594 3.97913C8.14594 5.39436 6.99866 6.54163 5.58344 6.54163C4.16821 6.54163 3.02094 5.39436 3.02094 3.97913Z" fill="#353566"/>
<path d="M5.58341 7.83331C3.65978 7.83331 1.89962 9.14391 1.43253 10.9587C1.394 11.1084 1.42688 11.2675 1.52159 11.3897C1.61629 11.5118 1.76218 11.5833 1.91675 11.5833H9.25008C9.40466 11.5833 9.55055 11.5118 9.64525 11.3897C9.73996 11.2675 9.77283 11.1084 9.7343 10.9587C9.26721 9.14391 7.50703 7.83331 5.58341 7.83331Z" fill="#353566"/>
<path d="M18.4167 18.8333C16.4931 18.8333 14.7329 20.1439 14.2658 21.9587C14.2273 22.1084 14.2602 22.2675 14.3549 22.3897C14.4496 22.5118 14.5955 22.5833 14.7501 22.5833H22.0834C22.238 22.5833 22.3839 22.5118 22.4786 22.3897C22.5733 22.2675 22.6061 22.1084 22.5676 21.9587C22.1005 20.1439 20.3403 18.8333 18.4167 18.8333Z" fill="#353566"/>
<path d="M15.8542 14.9791C15.8542 13.5639 17.0015 12.4166 18.4167 12.4166C19.832 12.4166 20.9792 13.5639 20.9792 14.9791C20.9792 16.3944 19.832 17.5416 18.4167 17.5416C17.0015 17.5416 15.8542 16.3944 15.8542 14.9791Z" fill="#353566"/>
</svg>
