<svg width="24" height="24" viewBox="0 0 24 24" fill="none" xmlns="http://www.w3.org/2000/svg">
<path opacity="0.4" d="M10.0005 13.25C5.7345 13.25 1.82425 15.927 1.25754 19.8939C1.2268 20.1092 1.29096 20.3272 1.43341 20.4914C1.57587 20.6557 1.78259 20.75 2 20.75H10.4989C10.8009 20.75 11.0735 20.5689 11.1904 20.2904C11.3074 20.012 11.2459 19.6906 11.0345 19.475L10.7504 19.1851C10.4254 18.8537 10.2454 18.4067 10.2501 17.9425C10.2547 17.4784 10.4436 17.0351 10.7751 16.7102L12.7294 14.795C12.9242 14.604 13 14.3224 12.9273 14.0594C12.8546 13.7965 12.6449 13.5938 12.3797 13.5301C11.6171 13.3468 10.818 13.25 10.0005 13.25Z" fill="#353566"/>
<path d="M4.75 6.5C4.75 3.6005 7.1005 1.25 10 1.25C12.8995 1.25 15.25 3.6005 15.25 6.5C15.25 9.3995 12.8995 11.75 10 11.75C7.1005 11.75 4.75 9.3995 4.75 6.5Z" fill="#353566"/>
<path d="M14.5249 16.5357C14.8208 16.2457 14.8256 15.7709 14.5357 15.4751C14.2457 15.1792 13.7709 15.1744 13.4751 15.4643L11.4751 17.4243C11.333 17.5636 11.252 17.7536 11.25 17.9525C11.248 18.1514 11.3252 18.343 11.4644 18.485L13.4644 20.525C13.7544 20.8208 14.2292 20.8255 14.525 20.5356C14.8208 20.2456 14.8255 19.7707 14.5355 19.475L13.0607 17.9706L14.5249 16.5357Z" fill="#353566"/>
<path d="M19.4641 15.4753C19.7538 15.1793 20.2287 15.1743 20.5247 15.4641L22.5247 17.4221C22.6668 17.5612 22.7479 17.7512 22.75 17.9501C22.752 18.1491 22.675 18.3407 22.5358 18.4828L20.5358 20.5248C20.246 20.8207 19.7711 20.8256 19.4752 20.5358C19.1793 20.246 19.1744 19.7711 19.4642 19.4752L20.9393 17.9691L19.4753 16.5359C19.1793 16.2462 19.1743 15.7713 19.4641 15.4753Z" fill="#353566"/>
<path d="M18.7276 14.182C18.8281 13.7801 18.5837 13.3729 18.1819 13.2724C17.7801 13.172 17.3728 13.4163 17.2724 13.8182L15.2724 21.8182C15.1719 22.22 15.4162 22.6272 15.8181 22.7277C16.2199 22.8281 16.6271 22.5838 16.7276 22.182L18.7276 14.182Z" fill="#353566"/>
</svg>
