<svg width="24" height="24" viewBox="0 0 24 24" fill="none" xmlns="http://www.w3.org/2000/svg">
<path opacity="0.4" d="M2 1.5C1.72386 1.5 1.5 1.72386 1.5 2V18.5C1.5 20.7091 3.29086 22.5 5.5 22.5H22C22.2761 22.5 22.5 22.2761 22.5 22V2C22.5 1.72386 22.2761 1.5 22 1.5H2Z" fill="#353566"/>
<path d="M2 1.5C2.27614 1.5 2.5 1.72386 2.5 2V18.5C2.5 20.1569 3.84315 21.5 5.5 21.5H22C22.2761 21.5 22.5 21.7239 22.5 22C22.5 22.2761 22.2761 22.5 22 22.5H5.5C3.29086 22.5 1.5 20.7091 1.5 18.5V2C1.5 1.72386 1.72386 1.5 2 1.5Z" fill="#353566"/>
<path d="M19.5 18V16.5C19.5 16.2239 19.2761 16 19 16C18.7239 16 18.5 16.2239 18.5 16.5V18C18.5 18.2761 18.7239 18.5 19 18.5C19.2761 18.5 19.5 18.2761 19.5 18Z" fill="#353566"/>
<path d="M15.5 14.65V18C15.5 18.2761 15.2761 18.5 15 18.5C14.7239 18.5 14.5 18.2761 14.5 18L14.5 14.65C14.5 14.3739 14.7239 14.15 15 14.15C15.2761 14.15 15.5 14.3739 15.5 14.65Z" fill="#353566"/>
<path d="M11 18.5C11.2761 18.5 11.5 18.2761 11.5 18V12.8C11.5 12.5239 11.2761 12.3 11 12.3C10.7239 12.3 10.5 12.5239 10.5 12.8V18C10.5 18.2761 10.7239 18.5 11 18.5Z" fill="#353566"/>
<path d="M7.5 18C7.5 18.2761 7.27614 18.5 7 18.5C6.72386 18.5 6.5 18.2761 6.5 18L6.5 11C6.5 10.7239 6.72385 10.5 7 10.5C7.27614 10.5 7.5 10.7239 7.5 11L7.5 18Z" fill="#353566"/>
<path d="M17.8799 7.12701C18.119 6.98894 18.4248 7.07087 18.5629 7.31002L20.4379 10.5576C20.5042 10.6725 20.5222 10.8089 20.4878 10.937C20.4535 11.0651 20.3697 11.1743 20.2549 11.2406L17.0073 13.1156C16.7681 13.2537 16.4623 13.1718 16.3243 12.9326C16.1862 12.6935 16.2681 12.3877 16.5073 12.2496L18.5403 11.0758C13.3363 10.0378 8.52389 8.17699 5.57124 3.25725C5.42914 3.02048 5.50588 2.71334 5.74265 2.57124C5.97943 2.42914 6.28657 2.50588 6.42867 2.74265C9.21825 7.39068 13.8092 9.14738 19.0519 10.1571L17.6969 7.81002C17.5588 7.57087 17.6407 7.26508 17.8799 7.12701Z" fill="#353566"/>
</svg>
