<svg width="24" height="24" viewBox="0 0 24 24" fill="none" xmlns="http://www.w3.org/2000/svg">
<g clip-path="url(#clip0_9001_272584)">
<path opacity="0.4" fill-rule="evenodd" clip-rule="evenodd" d="M12 23C18.0751 23 23 18.0751 23 12C23 5.92487 18.0751 1 12 1C5.92487 1 1 5.92487 1 12C1 18.0751 5.92487 23 12 23ZM10.1362 6.68251C10 6.9499 10 7.29993 10 8V10H8C7.29993 10 6.9499 10 6.68251 10.1362C6.44731 10.2561 6.25608 10.4473 6.13624 10.6825C6 10.9499 6 11.2999 6 12V17.2C6 17.48 6 17.62 6.0545 17.727C6.10243 17.8211 6.17892 17.8976 6.273 17.9455C6.37996 18 6.51997 18 6.8 18H17.2C17.48 18 17.62 18 17.727 17.9455C17.8211 17.8976 17.8976 17.8211 17.9455 17.727C18 17.62 18 17.48 18 17.2V14C18 13.2999 18 12.9499 17.8638 12.6825C17.7439 12.4473 17.5527 12.2561 17.3175 12.1362C17.0501 12 16.7001 12 16 12H14V8C14 7.29993 14 6.9499 13.8638 6.68251C13.7439 6.44731 13.5527 6.25608 13.3175 6.13624C13.0501 6 12.7001 6 12 6C11.2999 6 10.9499 6 10.6825 6.13624C10.4473 6.25608 10.2561 6.44731 10.1362 6.68251Z" fill="#353566"/>
<path fill-rule="evenodd" clip-rule="evenodd" d="M14.5 11.5L16.0201 11.5C16.353 11.5 16.6328 11.5 16.8617 11.5187C17.1011 11.5382 17.3286 11.5807 17.5445 11.6907C17.8738 11.8585 18.1415 12.1262 18.3093 12.4555C18.4193 12.6714 18.4618 12.8989 18.4813 13.1383C18.5 13.3672 18.5 13.647 18.5 13.9799V17.2159C18.5 17.3421 18.5 17.4651 18.4915 17.5691C18.4822 17.6834 18.4602 17.8183 18.391 17.954C18.2951 18.1422 18.1422 18.2951 17.954 18.391C17.8183 18.4602 17.6834 18.4822 17.5691 18.4915C17.465 18.5 17.3421 18.5 17.2159 18.5L6.78404 18.5C6.6579 18.5 6.53493 18.5 6.43089 18.4915C6.31659 18.4822 6.18172 18.4602 6.04601 18.391C5.85785 18.2951 5.70487 18.1422 5.609 17.954C5.53985 17.8183 5.51781 17.6834 5.50848 17.5691C5.49997 17.465 5.49999 17.3421 5.5 17.216L5.5 11.9799C5.49999 11.647 5.49999 11.3672 5.51869 11.1383C5.53825 10.8989 5.58072 10.6714 5.69074 10.4555C5.85852 10.1262 6.12624 9.85852 6.45552 9.69074C6.67145 9.58072 6.89893 9.53825 7.13829 9.51869C7.36723 9.49999 7.64699 9.49999 7.97992 9.5L9.5 9.5V7.97992C9.49999 7.64699 9.49999 7.36722 9.51869 7.13829C9.53825 6.89893 9.58072 6.67145 9.69074 6.45552C9.85852 6.12623 10.1262 5.85852 10.4555 5.69074C10.6714 5.58072 10.8989 5.53825 11.1383 5.51869C11.3672 5.49999 11.647 5.49999 11.9799 5.5H12.0201C12.353 5.49999 12.6328 5.49999 12.8617 5.51869C13.1011 5.53825 13.3286 5.58072 13.5445 5.69074C13.8738 5.85852 14.1415 6.12623 14.3093 6.45552C14.4193 6.67145 14.4618 6.89893 14.4813 7.13829C14.5 7.36722 14.5 7.64698 14.5 7.97992V11.5ZM16 12.5C16.3583 12.5 16.5969 12.5004 16.7803 12.5154C16.9578 12.5299 17.039 12.5555 17.0905 12.5817C17.2316 12.6537 17.3463 12.7684 17.4183 12.9095C17.4445 12.961 17.4701 13.0422 17.4846 13.2197C17.4996 13.4031 17.5 13.6417 17.5 14V17.2C17.5 17.3483 17.4996 17.4294 17.4948 17.4877L17.4943 17.4943L17.4877 17.4948C17.4294 17.4996 17.3483 17.5 17.2 17.5H14.5V12.5H16ZM13.5 8C13.5 7.64172 13.4996 7.40308 13.4846 7.21972C13.4701 7.0422 13.4445 6.96097 13.4183 6.90951C13.3464 6.76839 13.2316 6.65365 13.0905 6.58175C13.039 6.55552 12.9578 6.52987 12.7803 6.51537C12.5969 6.50039 12.3583 6.5 12 6.5C11.6417 6.5 11.4031 6.50039 11.2197 6.51537C11.0422 6.52987 10.961 6.55552 10.9095 6.58175C10.7684 6.65365 10.6537 6.76839 10.5817 6.90951C10.5555 6.96097 10.5299 7.0422 10.5154 7.21972C10.5004 7.40308 10.5 7.64172 10.5 8V9.99901C10.5 9.99934 10.5 9.99868 10.5 9.99901V17.5H13.5V8ZM9.5 10.5H8C7.64172 10.5 7.40308 10.5004 7.21972 10.5154C7.0422 10.5299 6.96097 10.5555 6.90951 10.5817C6.76839 10.6537 6.65365 10.7684 6.58175 10.9095C6.55553 10.961 6.52988 11.0422 6.51537 11.2197C6.50039 11.4031 6.5 11.6417 6.5 12V17.2C6.5 17.3483 6.50039 17.4294 6.50515 17.4877L6.50573 17.4943L6.51232 17.4948C6.57061 17.4996 6.65174 17.5 6.8 17.5H9.5V10.5Z" fill="#353566"/>
<path fill-rule="evenodd" clip-rule="evenodd" d="M12 0.5C5.64873 0.5 0.5 5.64873 0.5 12C0.5 18.3513 5.64873 23.5 12 23.5C18.3513 23.5 23.5 18.3513 23.5 12C23.5 5.64873 18.3513 0.5 12 0.5ZM1.5 12C1.5 6.20101 6.20101 1.5 12 1.5C17.799 1.5 22.5 6.20101 22.5 12C22.5 17.799 17.799 22.5 12 22.5C6.20101 22.5 1.5 17.799 1.5 12Z" fill="#353566"/>
</g>
<defs>
<clipPath id="clip0_9001_272584">
<rect width="24" height="24" fill="white"/>
</clipPath>
</defs>
</svg>
