<svg width="24" height="24" viewBox="0 0 24 24" fill="none" xmlns="http://www.w3.org/2000/svg">
<path opacity="0.4" d="M22.5 7.00001C22.5 6.79778 22.3782 6.61547 22.1914 6.53807C22.0045 6.46068 21.7895 6.50346 21.6465 6.64646L14.5 13.7929L9.85357 9.14646C9.65831 8.9512 9.34172 8.9512 9.14646 9.14646L1.64646 16.6465C1.50346 16.7895 1.46068 17.0045 1.53807 17.1914C1.61547 17.3782 1.79778 17.5 2.00001 17.5H22C22.2762 17.5 22.5 17.2762 22.5 17V7.00001Z" fill="#353566"/>
<path d="M22.3536 6.64645C22.5488 6.84171 22.5488 7.15829 22.3536 7.35355L14.8536 14.8536C14.7598 14.9473 14.6326 15 14.5 15C14.3674 15 14.2402 14.9473 14.1464 14.8536L9.5 10.2071L2.35355 17.3536C2.15829 17.5488 1.84171 17.5488 1.64645 17.3536C1.45118 17.1583 1.45118 16.8417 1.64645 16.6464L9.14645 9.14645C9.34171 8.95118 9.65829 8.95118 9.85355 9.14645L14.5 13.7929L21.6464 6.64645C21.8417 6.45118 22.1583 6.45118 22.3536 6.64645Z" fill="#353566"/>
</svg>
