<svg width="24" height="24" viewBox="0 0 24 24" fill="none" xmlns="http://www.w3.org/2000/svg">
<g clip-path="url(#clip0_9001_273124)">
<path opacity="0.4" d="M16.7343 20.9753L15.8476 20.8534C14.4373 20.6596 13.7156 18.954 14.6471 17.7894L18.4434 13.0432C19.1288 12.1864 20.2406 12.1504 21 12.6628V7.4C21 5.15979 21 4.03969 20.564 3.18404C20.1805 2.43139 19.5686 1.81947 18.816 1.43597C17.9603 1 16.8402 1 14.6 1H7.4C5.15979 1 4.03969 1 3.18404 1.43597C2.43139 1.81947 1.81947 2.43139 1.43597 3.18404C1 4.03969 1 5.15979 1 7.4V14.6C1 16.8402 1 17.9603 1.43597 18.816C1.81947 19.5686 2.43139 20.1805 3.18404 20.564C4.03969 21 5.15979 21 7.4 21H14.6C15.4605 21 16.1558 21 16.7343 20.9753Z" fill="#353566"/>
<path d="M7.37737 0.500244C6.27655 0.500244 5.41942 0.500244 4.73209 0.556403C4.03416 0.613426 3.4671 0.730829 2.95704 0.990716C2.11031 1.42215 1.4219 2.11056 0.990472 2.95729C0.730584 3.46735 0.613181 4.03441 0.556159 4.73234C0.5 5.41968 0.5 6.27655 0.5 7.37741V14.6229C0.5 15.7237 0.5 16.5808 0.556158 17.2682C0.61318 17.9661 0.730585 18.5331 0.990471 19.0432C1.4219 19.8899 2.11031 20.5783 2.95704 21.0098C3.4671 21.2697 4.03416 21.3871 4.73209 21.4441C5.41946 21.5002 6.27635 21.5002 7.37726 21.5002H14.6225C15.6246 21.5002 16.4247 21.5002 17.0786 21.4579V21.0228L15.8476 20.8537C15.5203 20.8087 15.2301 20.6823 14.9891 20.5001L7.4 20.5002C6.27165 20.5002 5.45545 20.4999 4.81352 20.4474C4.17744 20.3954 3.75662 20.2949 3.41103 20.1188C2.75247 19.7832 2.21704 19.2478 1.88148 18.5892C1.70539 18.2436 1.60481 17.8228 1.55284 17.1867C1.50039 16.5448 1.5 15.7286 1.5 14.6002L1.5 7.40024C1.5 6.27189 1.50039 5.45569 1.55284 4.81377C1.60481 4.17768 1.70539 3.75687 1.88148 3.41128C2.21703 2.75271 2.75247 2.21728 3.41103 1.88172C3.75662 1.70564 4.17744 1.60505 4.81353 1.55308C5.45545 1.50063 6.27165 1.50025 7.4 1.50025L14.6 1.50025C15.7284 1.50025 16.5446 1.50063 17.1865 1.55308C17.8226 1.60505 18.2434 1.70563 18.589 1.88172C19.2475 2.21728 19.783 2.75271 20.1185 3.41128C20.2946 3.75687 20.3952 4.17768 20.4472 4.81377C20.4996 5.45569 20.5 6.27189 20.5 7.40024V12.4209C20.8992 12.5486 21.2576 12.8032 21.5 13.1585V7.3776C21.5 6.27667 21.5 5.41971 21.4438 4.73234C21.3868 4.03441 21.2694 3.46735 21.0095 2.95729C20.5781 2.11056 19.8897 1.42215 19.043 0.990715C18.5329 0.730829 17.9658 0.613426 17.2679 0.556402C16.5805 0.50024 15.7236 0.500242 14.6226 0.500244H7.37737Z" fill="#353566"/>
<path d="M14.5 15.5002C14.2239 15.5002 14 15.2764 14 15.0002L14 9.00025C14 8.7241 14.2239 8.50025 14.5 8.50025C14.7761 8.50025 15 8.7241 15 9.00025L15 15.0002C15 15.2764 14.7761 15.5002 14.5 15.5002Z" fill="#353566"/>
<path d="M10.5 15.0002C10.5 15.2764 10.7239 15.5002 11 15.5002C11.2761 15.5002 11.5 15.2764 11.5 15.0002L11.5 7.00025C11.5 6.7241 11.2761 6.50025 11 6.50025C10.7239 6.50025 10.5 6.7241 10.5 7.00025L10.5 15.0002Z" fill="#353566"/>
<path d="M7 15.0002C7 15.2764 7.22386 15.5002 7.5 15.5002C7.77614 15.5002 8 15.2764 8 15.0002V12.0002C8 11.7241 7.77614 11.5002 7.5 11.5002C7.22386 11.5002 7 11.7241 7 12.0002V15.0002Z" fill="#353566"/>
<path fill-rule="evenodd" clip-rule="evenodd" d="M20.7541 14.2959C20.7541 13.3896 19.6129 12.9906 19.0474 13.6974L15.3808 18.2802C14.8785 18.9079 15.3261 19.8368 16.1291 19.8368H17.9208V22.5445C17.9208 23.4508 19.062 23.8498 19.6275 23.143L23.2941 18.5602C23.7963 17.9325 23.3487 17.0036 22.5457 17.0036H20.7541V14.2959ZM16.2161 18.8368L19.7541 14.4148V17.0455C19.7541 17.5749 20.1834 18.0036 20.7124 18.0036H22.4587L18.9208 22.4256V19.7949C18.9208 19.2655 18.4914 18.8368 17.9624 18.8368H16.2161Z" fill="#353566"/>
</g>
<defs>
<clipPath id="clip0_9001_273124">
<rect width="24" height="24" fill="white"/>
</clipPath>
</defs>
</svg>
