<svg width="24" height="24" viewBox="0 0 24 24" fill="none" xmlns="http://www.w3.org/2000/svg">
<path fill-rule="evenodd" clip-rule="evenodd" d="M10.0776 1.21257C11.285 0.60079 12.7116 0.600688 13.919 1.21229L21.0167 4.80744C21.7732 5.19063 22.25 5.96662 22.25 6.81464V8.83929C22.25 9.34079 22.1488 10.3274 22.0344 11.2977C21.7672 13.5642 20.8916 15.7017 19.573 17.541C18.0478 19.6687 16.0449 21.4093 13.7253 22.623L12.9749 23.0156C12.3632 23.3357 11.6335 23.3357 11.0218 23.0157L10.2731 22.6241C7.95128 21.4097 5.94702 19.6671 4.42162 17.5367C3.10653 15.7 2.23322 13.5662 1.96632 11.3039C1.85159 10.3314 1.75 9.34177 1.75 8.83929V6.81449C1.75 5.96659 2.22667 5.19068 2.98302 4.80744L10.0776 1.21257ZM6.25 10.7502C6.25 9.09321 7.59321 7.75 9.25015 7.75H11.7503C13.4073 7.75 14.7505 9.09321 14.7505 10.7502C14.7505 11.791 14.2198 12.7076 13.4177 13.2446C13.2119 13.3823 12.9879 13.4955 12.7498 13.5796C12.3592 13.7175 11.9308 13.5128 11.7928 13.1222C11.6549 12.7316 11.8596 12.3032 12.2502 12.1652C12.3685 12.1234 12.4802 12.0671 12.5833 11.9981C12.9872 11.7277 13.2505 11.2695 13.2505 10.7502C13.2505 9.92164 12.5788 9.25 11.7503 9.25H9.25015C8.42164 9.25 7.75 9.92164 7.75 10.7502C7.75 11.2695 8.01332 11.7277 8.41722 11.9981C8.76142 12.2285 8.85366 12.6944 8.62324 13.0386C8.39282 13.3828 7.92699 13.475 7.58278 13.2446C6.78069 12.7076 6.25 11.791 6.25 10.7502ZM17.7505 13.2503C17.7505 14.9073 16.4073 16.2505 14.7503 16.2505L12.2502 16.2505C10.5932 16.2505 9.25002 14.9073 9.25002 13.2503C9.25002 12.2095 9.78071 11.2928 10.5828 10.7559C10.7886 10.6182 11.0126 10.505 11.2507 10.4209C11.6412 10.283 12.0697 10.4877 12.2077 10.8783C12.3456 11.2688 12.1409 11.6973 11.7503 11.8353C11.632 11.8771 11.5203 11.9334 11.4172 12.0024C11.0133 12.2728 10.75 12.731 10.75 13.2503C10.75 14.0788 11.4217 14.7505 12.2502 14.7505H14.7503C15.5788 14.7505 16.2505 14.0788 16.2505 13.2503C16.2505 12.731 15.9872 12.2728 15.5833 12.0024C15.2391 11.772 15.1468 11.3061 15.3772 10.9619C15.6077 10.6177 16.0735 10.5255 16.4177 10.7559C17.2198 11.2928 17.7505 12.2095 17.7505 13.2503Z" fill="#353566"/>
</svg>
