<svg width="24" height="24" viewBox="0 0 24 24" fill="none" xmlns="http://www.w3.org/2000/svg">
<path fill-rule="evenodd" clip-rule="evenodd" d="M10.0776 1.21257C11.285 0.60079 12.7116 0.600688 13.919 1.21229L21.0167 4.80744C21.7732 5.19063 22.25 5.96662 22.25 6.81464V8.83929C22.25 9.34079 22.1488 10.3274 22.0344 11.2977C21.7672 13.5642 20.8916 15.7017 19.573 17.541C18.0478 19.6687 16.0449 21.4093 13.7253 22.623L12.9749 23.0156C12.3632 23.3357 11.6335 23.3357 11.0218 23.0157L10.2731 22.6241C7.95128 21.4097 5.94702 19.6671 4.42162 17.5367C3.10653 15.7 2.23322 13.5662 1.96632 11.3039C1.85159 10.3314 1.75 9.34177 1.75 8.83929V6.81449C1.75 5.96659 2.22667 5.19068 2.98302 4.80744L10.0776 1.21257ZM12.4504 7.48282C12.2686 7.10566 11.7314 7.10566 11.5496 7.48282L10.6974 9.25081C10.6388 9.37244 10.5227 9.45628 10.3888 9.47375L8.43585 9.72859C8.01738 9.78319 7.85063 10.2997 8.15817 10.5887L9.58078 11.9255C9.68016 12.0189 9.72511 12.1565 9.70004 12.2905L9.34188 14.2052C9.26466 14.618 9.7 14.9363 10.0699 14.7376L11.8107 13.8023C11.9289 13.7388 12.0711 13.7388 12.1893 13.8023L13.9301 14.7376C14.3 14.9363 14.7353 14.618 14.6581 14.2052L14.3 12.2905C14.2749 12.1565 14.3198 12.0189 14.4192 11.9255L15.8418 10.5887C16.1494 10.2997 15.9826 9.78319 15.5641 9.72859L13.6112 9.47375C13.4773 9.45628 13.3612 9.37244 13.3026 9.25081L12.4504 7.48282Z" fill="#353566"/>
</svg>
