<svg width="24" height="24" viewBox="0 0 24 24" fill="none" xmlns="http://www.w3.org/2000/svg">
<path fill-rule="evenodd" clip-rule="evenodd" d="M10.0776 1.21257C11.285 0.60079 12.7116 0.600688 13.919 1.21229L21.0167 4.80744C21.7732 5.19063 22.25 5.96662 22.25 6.81464V8.83929C22.25 9.34079 22.1488 10.3274 22.0344 11.2977C21.7672 13.5642 20.8916 15.7017 19.573 17.541C18.0478 19.6687 16.0449 21.4093 13.7253 22.623L12.9749 23.0156C12.3632 23.3357 11.6335 23.3357 11.0218 23.0157L10.2731 22.6241C7.95128 21.4097 5.94702 19.6671 4.42162 17.5367C3.10653 15.7 2.23322 13.5662 1.96632 11.3039C1.85159 10.3314 1.75 9.34177 1.75 8.83929V6.81449C1.75 5.96659 2.22667 5.19068 2.98302 4.80744L10.0776 1.21257ZM12 15.75C11.5858 15.75 11.25 15.4142 11.25 15V12.75H9C8.58579 12.75 8.25 12.4142 8.25 12C8.25 11.5858 8.58579 11.25 9 11.25H11.25V9C11.25 8.58579 11.5858 8.25 12 8.25C12.4142 8.25 12.75 8.58579 12.75 9V11.25H15C15.4142 11.25 15.75 11.5858 15.75 12C15.75 12.4142 15.4142 12.75 15 12.75H12.75V15C12.75 15.4142 12.4142 15.75 12 15.75Z" fill="#353566"/>
</svg>
