<svg width="24" height="24" viewBox="0 0 24 24" fill="none" xmlns="http://www.w3.org/2000/svg">
<path opacity="0.4" d="M22 8.5H1V14.2C1 15.8802 1 16.7202 1.32698 17.362C1.6146 17.9265 2.07354 18.3854 2.63803 18.673C3.27976 19 4.11984 19 5.8 19H12.2639C11.7889 18.4692 11.5 17.7684 11.5 17C11.5 15.3431 12.8431 14 14.5 14C15.0232 14 15.5 14.1 15.9934 14.326L18.4654 13.0901C18.9531 11.6877 19.8555 10.5 21.5004 10.5C21.6706 10.5 21.8375 10.5142 22 10.5414V8.5Z" fill="#353566"/>
<path fill-rule="evenodd" clip-rule="evenodd" d="M5.77779 2.5H17.2222C18.0435 2.5 18.6905 2.49999 19.2111 2.54253C19.7423 2.58593 20.1859 2.67609 20.589 2.88148C21.2475 3.21703 21.783 3.75247 22.1185 4.41103C22.3239 4.81413 22.4141 5.25771 22.4575 5.78889C22.5 6.30954 22.5 6.95652 22.5 7.77778V10.6706C22.1873 10.5601 21.8509 10.5 21.5004 10.5L21.5 9H1.5V14.2C1.5 15.0483 1.50039 15.6545 1.53921 16.1297C1.57756 16.599 1.65089 16.8963 1.77248 17.135C2.01217 17.6054 2.39462 17.9878 2.86502 18.2275C3.10366 18.3491 3.40099 18.4224 3.87032 18.4608C4.34549 18.4996 4.95167 18.5 5.8 18.5H11.9013C12.1335 18.9014 12.4561 19.244 12.8411 19.5H5.77778C4.95651 19.5 4.30954 19.5 3.78889 19.4575C3.25771 19.4141 2.81414 19.3239 2.41103 19.1185C1.75247 18.783 1.21703 18.2475 0.881477 17.589C0.676087 17.1859 0.585932 16.7423 0.542533 16.2111C0.499994 15.6905 0.499997 15.0435 0.5 14.2222V7.77779C0.499997 6.95653 0.499994 6.30954 0.542533 5.78889C0.585932 5.25771 0.676087 4.81414 0.881477 4.41103C1.21703 3.75247 1.75247 3.21703 2.41103 2.88148C2.81414 2.67609 3.25771 2.58593 3.78889 2.54253C4.30954 2.49999 4.95653 2.5 5.77779 2.5ZM21.5 8H1.5V7.8C1.5 6.95167 1.50039 6.34549 1.53921 5.87032C1.57756 5.40099 1.65089 5.10366 1.77248 4.86502C2.01217 4.39462 2.39462 4.01217 2.86502 3.77248C3.10366 3.65089 3.40099 3.57756 3.87032 3.53921C4.34549 3.50039 4.95167 3.5 5.8 3.5H17.2C18.0483 3.5 18.6545 3.50039 19.1297 3.53921C19.599 3.57756 19.8963 3.65089 20.135 3.77248C20.6054 4.01217 20.9878 4.39462 21.2275 4.86502C21.3491 5.10366 21.4224 5.40099 21.4608 5.87032C21.4996 6.3455 21.5 6.95167 21.5 7.8V8Z" fill="#353566"/>
<path d="M4.5 14.5C4.5 14.2239 4.72386 14 5 14H9.5C9.77614 14 10 14.2239 10 14.5C10 14.7761 9.77614 15 9.5 15H5C4.72386 15 4.5 14.7761 4.5 14.5Z" fill="#353566"/>
<path fill-rule="evenodd" clip-rule="evenodd" d="M14.5 15C13.3954 15 12.5 15.8954 12.5 17C12.5 18.1046 13.3954 19 14.5 19C15.0174 19 15.4888 18.8036 15.8439 18.4812L19.509 20.3138C19.5034 20.3751 19.5005 20.4372 19.5005 20.5C19.5005 21.6046 20.3959 22.5 21.5005 22.5C22.6051 22.5 23.5005 21.6046 23.5005 20.5C23.5005 19.3954 22.6051 18.5 21.5005 18.5C20.8165 18.5 20.2126 18.8434 19.852 19.3672L16.3957 17.6391C16.4633 17.4384 16.5 17.2235 16.5 17C16.5 16.7765 16.4633 16.5616 16.3957 16.3609L19.852 14.6328C20.2126 15.1566 20.8165 15.5 21.5005 15.5C22.6051 15.5 23.5005 14.6046 23.5005 13.5C23.5005 12.3954 22.6051 11.5 21.5005 11.5C20.3959 11.5 19.5005 12.3954 19.5005 13.5C19.5005 13.5628 19.5034 13.6249 19.509 13.6862L15.8439 15.5188C15.4888 15.1964 15.0174 15 14.5 15ZM13.5 17C13.5 16.4477 13.9477 16 14.5 16C15.0523 16 15.5 16.4477 15.5 17C15.5 17.5523 15.0523 18 14.5 18C13.9477 18 13.5 17.5523 13.5 17ZM21.5005 12.5C20.9482 12.5 20.5005 12.9477 20.5005 13.5C20.5005 14.0523 20.9482 14.5 21.5005 14.5C22.0528 14.5 22.5005 14.0523 22.5005 13.5C22.5005 12.9477 22.0528 12.5 21.5005 12.5ZM20.5005 20.5C20.5005 19.9477 20.9482 19.5 21.5005 19.5C22.0528 19.5 22.5005 19.9477 22.5005 20.5C22.5005 21.0523 22.0528 21.5 21.5005 21.5C20.9482 21.5 20.5005 21.0523 20.5005 20.5Z" fill="#353566"/>
</svg>
