<svg width="24" height="24" viewBox="0 0 24 24" fill="none" xmlns="http://www.w3.org/2000/svg">
<path opacity="0.4" d="M22 8.5H1V14.2C1 15.8802 1 16.7202 1.32698 17.362C1.6146 17.9265 2.07354 18.3854 2.63803 18.673C3.27976 19 4.11984 19 5.8 19H13.7896C13.784 18.8829 13.7816 18.7593 13.7816 18.628C13.6662 18.6073 13.5471 18.5897 13.4267 18.572C12.8735 18.4904 12.2918 18.4047 11.9011 17.9842C11.3372 17.3772 11.3721 16.4281 11.9791 15.8643C13.557 14.3983 15.6751 13.5 17.9993 13.5C19.4383 13.5 20.7983 13.8443 22 14.4545C22 14.3719 22 14.2871 22 14.2V8.5Z" fill="#353566"/>
<path fill-rule="evenodd" clip-rule="evenodd" d="M5.77779 2.5H17.2222C18.0435 2.5 18.6905 2.49999 19.2111 2.54253C19.7423 2.58593 20.1859 2.67609 20.589 2.88148C21.2475 3.21703 21.783 3.75247 22.1185 4.41103C22.3239 4.81413 22.4141 5.25771 22.4575 5.78889C22.5 6.30954 22.5 6.95652 22.5 7.77778V14.2246C22.5 14.4005 22.5 14.5684 22.4996 14.7288C22.1789 14.539 21.8451 14.3689 21.5 14.22V9H1.5V14.2C1.5 15.0483 1.50039 15.6545 1.53921 16.1297C1.57756 16.599 1.65089 16.8963 1.77248 17.135C2.01217 17.6054 2.39462 17.9878 2.86502 18.2275C3.10366 18.3491 3.40099 18.4224 3.87032 18.4608C4.34549 18.4996 4.95167 18.5 5.8 18.5H12.9844C13.1311 18.5284 13.2799 18.5503 13.4267 18.572C13.5471 18.5897 13.6662 18.6073 13.7816 18.628C13.7816 18.9625 13.7967 19.2478 13.8438 19.5H5.77778C4.95651 19.5 4.30954 19.5 3.78889 19.4575C3.25771 19.4141 2.81414 19.3239 2.41103 19.1185C1.75247 18.783 1.21703 18.2475 0.881477 17.589C0.676087 17.1859 0.585932 16.7423 0.542533 16.2111C0.499994 15.6905 0.499997 15.0435 0.5 14.2222V7.77779C0.499997 6.95653 0.499994 6.30954 0.542533 5.78889C0.585932 5.25771 0.676087 4.81414 0.881477 4.41103C1.21703 3.75247 1.75247 3.21703 2.41103 2.88148C2.81414 2.67609 3.25771 2.58593 3.78889 2.54253C4.30954 2.49999 4.95653 2.5 5.77779 2.5ZM21.5 8H1.5V7.8C1.5 6.95167 1.50039 6.34549 1.53921 5.87032C1.57756 5.40099 1.65089 5.10366 1.77248 4.86502C2.01217 4.39462 2.39462 4.01217 2.86502 3.77248C3.10366 3.65089 3.40099 3.57756 3.87032 3.53921C4.34549 3.50039 4.95167 3.5 5.8 3.5H17.2C18.0483 3.5 18.6545 3.50039 19.1297 3.53921C19.599 3.57756 19.8963 3.65089 20.135 3.77248C20.6054 4.01217 20.9878 4.39462 21.2275 4.86502C21.3491 5.10366 21.4224 5.40099 21.4608 5.87032C21.4996 6.3455 21.5 6.95167 21.5 7.8V8Z" fill="#353566"/>
<path d="M4.5 14.5C4.5 14.2239 4.72386 14 5 14H9.5C9.77614 14 10 14.2239 10 14.5C10 14.7761 9.77614 15 9.5 15H5C4.72386 15 4.5 14.7761 4.5 14.5Z" fill="#353566"/>
<path d="M13.3403 17.3295C14.5628 16.1938 16.1995 15.5 17.9993 15.5C19.7998 15.5 21.437 16.1943 22.6596 17.3307C22.8619 17.5187 23.1782 17.5071 23.3662 17.3049C23.5542 17.1026 23.5427 16.7862 23.3404 16.5982C21.9401 15.2967 20.0622 14.5 17.9993 14.5C15.9372 14.5 14.0598 15.2961 12.6597 16.5969C12.4574 16.7849 12.4457 17.1012 12.6337 17.3035C12.8216 17.5058 13.138 17.5175 13.3403 17.3295Z" fill="#353566"/>
<path d="M18.0032 18.8334C17.1459 18.8334 16.3645 19.1951 15.7897 19.7915C15.5981 19.9903 15.2815 19.9961 15.0827 19.8045C14.8839 19.6129 14.878 19.2963 15.0697 19.0975C15.8194 18.3196 16.8553 17.8334 18.0032 17.8334C19.1511 17.8334 20.187 18.3196 20.9368 19.0975C21.1284 19.2963 21.1225 19.6129 20.9237 19.8045C20.7249 19.9961 20.4084 19.9903 20.2167 19.7915C19.6419 19.1951 18.8605 18.8334 18.0032 18.8334Z" fill="#353566"/>
<path d="M18 20.625C17.5168 20.625 17.125 21.0168 17.125 21.5C17.125 21.9832 17.5168 22.375 18 22.375C18.4832 22.375 18.8751 21.9832 18.8751 21.5C18.8751 21.0168 18.4832 20.625 18 20.625Z" fill="#353566"/>
</svg>
