<svg width="24" height="24" viewBox="0 0 24 24" fill="none" xmlns="http://www.w3.org/2000/svg">
<path opacity="0.4" d="M14.9995 22C11.1335 22 7.99951 18.866 7.99951 15C7.99951 11.134 11.1335 8 14.9995 8C18.8655 8 21.9995 11.134 21.9995 15C21.9995 18.866 18.8655 22 14.9995 22Z" fill="#353566"/>
<path d="M17.143 1.5209C16.8784 1.44192 16.5999 1.59239 16.5209 1.857C16.4419 2.1216 16.5924 2.40014 16.857 2.47912C18.9032 3.08989 20.5772 4.50234 21.2792 6.67315L19.6857 6.03577C19.4293 5.93321 19.1383 6.05792 19.0358 6.31431C18.9332 6.57071 19.0579 6.86169 19.3143 6.96425L21.8143 7.96425C21.9832 8.03179 22.1754 8.00232 22.3162 7.8873C22.4571 7.77228 22.5244 7.58985 22.492 7.4109C21.9289 4.30215 19.7788 2.30767 17.143 1.5209Z" fill="#353566"/>
<path d="M14.5 11.5308V11C14.5 10.7239 14.7239 10.5 15 10.5C15.2761 10.5 15.5 10.7239 15.5 11V11.5266C15.7363 11.5548 15.9586 11.6079 16.1844 11.6975C16.5499 11.8424 16.894 12.0714 17.3019 12.3802C17.522 12.5469 17.5653 12.8605 17.3986 13.0807C17.232 13.3008 16.9183 13.3441 16.6982 13.1774C16.306 12.8805 16.0502 12.72 15.8157 12.627C15.5929 12.5387 15.3604 12.5 15 12.5C14.471 12.5 14.0839 12.6248 13.8433 12.7991C13.6177 12.9624 13.5 13.1808 13.5 13.4654C13.5 13.8136 13.6606 14.0169 13.9443 14.1756C14.2595 14.3521 14.6791 14.4396 15.0822 14.5068C15.4791 14.5729 16.0595 14.6804 16.5443 14.9518C17.0606 15.2408 17.5 15.7382 17.5 16.5346C17.5 17.153 17.2177 17.6673 16.7433 18.0108C16.4009 18.2588 15.9734 18.4089 15.5 18.4692V19C15.5 19.2761 15.2761 19.5 15 19.5C14.7239 19.5 14.5 19.2761 14.5 19V18.4733C14.2637 18.4451 14.0414 18.392 13.8157 18.3025C13.4502 18.1575 13.106 17.9286 12.6982 17.6197C12.478 17.453 12.4347 17.1394 12.6014 16.9193C12.7681 16.6991 13.0817 16.6558 13.3019 16.8225C13.694 17.1195 13.9499 17.2799 14.1844 17.373C14.4072 17.4613 14.6396 17.5 15 17.5C15.529 17.5 15.9162 17.3752 16.1568 17.2009C16.3823 17.0376 16.5 16.8192 16.5 16.5346C16.5 16.1864 16.3394 15.9831 16.0558 15.8244C15.7406 15.6479 15.321 15.5604 14.9178 15.4932C14.521 15.4271 13.9406 15.3196 13.4558 15.0482C12.9394 14.7592 12.5 14.2618 12.5 13.4654C12.5 12.847 12.7823 12.3327 13.2567 11.9892C13.5991 11.7412 14.0267 11.5912 14.5 11.5308Z" fill="#353566"/>
<path fill-rule="evenodd" clip-rule="evenodd" d="M1.5 9C1.5 12.6727 4.13942 15.7281 7.62506 16.3742C8.27052 19.86 11.3267 22.5 14.9995 22.5C19.1416 22.5 22.4995 19.1421 22.4995 15C22.4995 11.3275 19.8598 8.27147 16.3743 7.62573C15.7285 4.13976 12.6729 1.5 9 1.5C4.85786 1.5 1.5 4.85786 1.5 9ZM9 2.5C5.41015 2.5 2.5 5.41015 2.5 9C2.5 12.0757 4.63664 14.6531 7.50643 15.3277C7.50176 15.219 7.49939 15.1098 7.49939 15C7.49939 11.1876 10.344 8.03952 14.0265 7.56253C14.345 7.52127 14.6697 7.5 14.9994 7.5C15.0544 7.5 15.1093 7.50059 15.164 7.50178C15.2188 7.50295 15.2734 7.50472 15.3278 7.50706C14.6534 4.63695 12.0759 2.5 9 2.5ZM8.49945 15C8.49945 11.6906 10.9726 8.95889 14.1715 8.55222L14.9994 8.5L15.0548 8.50023C15.1471 8.501 15.2389 8.50369 15.3302 8.50826C18.7664 8.68047 21.4995 11.5211 21.4995 15C21.4995 18.5899 18.5893 21.5 14.9995 21.5C11.4096 21.5 8.49945 18.5899 8.49945 15Z" fill="#353566"/>
<path d="M7.47916 22.143C7.40018 22.4076 7.12165 22.5581 6.85704 22.4791C4.22122 21.6923 2.07112 19.6979 1.50806 16.5891C1.47565 16.4102 1.54295 16.2277 1.68382 16.1127C1.82468 15.9977 2.01689 15.9682 2.18575 16.0358L4.68575 17.0358C4.94214 17.1383 5.06685 17.4293 4.96429 17.6857C4.86173 17.9421 4.57075 18.0668 4.31436 17.9642L2.7209 17.3268C3.42288 19.4977 5.09688 20.9101 7.14306 21.5209C7.40767 21.5999 7.55815 21.8784 7.47916 22.143Z" fill="#353566"/>
</svg>
