<svg width="24" height="24" viewBox="0 0 24 24" fill="none" xmlns="http://www.w3.org/2000/svg">
<path opacity="0.4" d="M14.9995 22C11.1335 22 7.99951 18.866 7.99951 15C7.99951 11.134 11.1335 8 14.9995 8C18.8655 8 21.9995 11.134 21.9995 15C21.9995 18.866 18.8655 22 14.9995 22Z" fill="#353566"/>
<path d="M17.143 1.5209C16.8784 1.44192 16.5999 1.59239 16.5209 1.857C16.4419 2.1216 16.5924 2.40014 16.857 2.47912C18.9032 3.08989 20.5772 4.50234 21.2792 6.67315L19.6857 6.03577C19.4293 5.93321 19.1383 6.05792 19.0358 6.31431C18.9332 6.57071 19.0579 6.86169 19.3143 6.96425L21.8143 7.96425C21.9832 8.03179 22.1754 8.00232 22.3162 7.8873C22.4571 7.77228 22.5244 7.58985 22.492 7.4109C21.9289 4.30215 19.7788 2.30767 17.143 1.5209Z" fill="#353566"/>
<path d="M16.2676 10.9759C15.5575 10.8177 14.8245 10.9087 14.1646 11.2322C13.5063 11.5549 12.9568 12.0907 12.5755 12.7602C12.4637 12.9565 12.3675 13.1623 12.2873 13.375H11.26C10.9839 13.375 10.76 13.5989 10.76 13.875C10.76 14.1512 10.9839 14.375 11.26 14.375H12.0361C12.0084 14.5813 11.9943 14.7902 11.9943 15C11.9943 15.2099 12.0084 15.4188 12.0361 15.625H11.26C10.9839 15.625 10.76 15.8489 10.76 16.125C10.76 16.4012 10.9839 16.625 11.26 16.625H12.2873C12.3675 16.8378 12.4637 17.0436 12.5755 17.2399C12.9568 17.9093 13.5063 18.4452 14.1646 18.7679C14.8245 19.0914 15.5575 19.1824 16.2676 19.0242C16.9765 18.8662 17.6177 18.4702 18.1159 17.9007C18.2977 17.6928 18.2767 17.377 18.0688 17.1951C17.861 17.0133 17.5451 17.0344 17.3633 17.2422C16.9935 17.6649 16.5349 17.9401 16.0501 18.0481C15.5666 18.1558 15.0652 18.0957 14.6048 17.87C14.1427 17.6434 13.7358 17.2564 13.4445 16.745C13.422 16.7056 13.4004 16.6656 13.3795 16.625H15.5796C15.8557 16.625 16.0796 16.4012 16.0796 16.125C16.0796 15.8489 15.8557 15.625 15.5796 15.625H13.0477C13.0125 15.4208 12.9943 15.2115 12.9943 15C12.9943 14.7886 13.0125 14.5793 13.0477 14.375L15.5796 14.375C15.8557 14.375 16.0796 14.1512 16.0796 13.875C16.0796 13.5989 15.8557 13.375 15.5796 13.375H13.3795C13.4004 13.3345 13.422 13.2945 13.4445 13.2551C13.7358 12.7437 14.1427 12.3566 14.6048 12.1301C15.0652 11.9044 15.5666 11.8442 16.0501 11.952C16.5349 12.06 16.9935 12.3351 17.3633 12.7578C17.5451 12.9657 17.861 12.9867 18.0688 12.8049C18.2767 12.6231 18.2977 12.3072 18.1159 12.0994C17.6177 11.5298 16.9765 11.1338 16.2676 10.9759Z" fill="#353566"/>
<path fill-rule="evenodd" clip-rule="evenodd" d="M1.5 9C1.5 12.6727 4.13942 15.7281 7.62506 16.3742C8.27052 19.86 11.3267 22.5 14.9995 22.5C19.1416 22.5 22.4995 19.1421 22.4995 15C22.4995 11.3275 19.8598 8.27147 16.3743 7.62573C15.7285 4.13976 12.6729 1.5 9 1.5C4.85786 1.5 1.5 4.85786 1.5 9ZM9 2.5C5.41015 2.5 2.5 5.41015 2.5 9C2.5 12.0757 4.63664 14.6531 7.50643 15.3277C7.50176 15.219 7.49939 15.1098 7.49939 15C7.49939 11.1876 10.344 8.03952 14.0265 7.56253C14.345 7.52127 14.6697 7.5 14.9994 7.5C15.0544 7.5 15.1093 7.50059 15.164 7.50178C15.2188 7.50295 15.2734 7.50472 15.3278 7.50706C14.6534 4.63695 12.0759 2.5 9 2.5ZM8.49945 15C8.49945 11.6906 10.9726 8.95889 14.1715 8.55222L14.9994 8.5L15.0548 8.50023C15.1471 8.501 15.2389 8.50369 15.3302 8.50826C18.7664 8.68047 21.4995 11.5211 21.4995 15C21.4995 18.5899 18.5893 21.5 14.9995 21.5C11.4096 21.5 8.49945 18.5899 8.49945 15Z" fill="#353566"/>
<path d="M7.47916 22.143C7.40018 22.4076 7.12165 22.5581 6.85704 22.4791C4.22122 21.6923 2.07112 19.6979 1.50806 16.5891C1.47565 16.4102 1.54295 16.2277 1.68382 16.1127C1.82468 15.9977 2.01689 15.9682 2.18575 16.0358L4.68575 17.0358C4.94214 17.1383 5.06685 17.4293 4.96429 17.6857C4.86173 17.9421 4.57075 18.0668 4.31436 17.9642L2.7209 17.3268C3.42288 19.4977 5.09688 20.9101 7.14306 21.5209C7.40767 21.5999 7.55815 21.8784 7.47916 22.143Z" fill="#353566"/>
</svg>
