<svg width="24" height="24" viewBox="0 0 24 24" fill="none" xmlns="http://www.w3.org/2000/svg">
<path opacity="0.4" fill-rule="evenodd" clip-rule="evenodd" d="M1 8.6C1 6.63982 1 5.65972 1.38148 4.91103C1.71703 4.25247 2.25247 3.71703 2.91103 3.38148C3.65972 3 4.63982 3 6.6 3H16.4C18.3602 3 19.3403 3 20.089 3.38148C20.7475 3.71703 21.283 4.25247 21.6185 4.91103C22 5.65972 22 6.63982 22 8.6V13.4545C20.7983 12.8443 19.4384 12.5 17.9993 12.5C15.6751 12.5 13.557 13.3983 11.9791 14.8643C11.3721 15.4281 11.3372 16.3772 11.9011 16.9842C12.2918 17.4047 12.8735 17.4904 13.4267 17.572C13.5471 17.5897 13.6662 17.6073 13.7816 17.628C13.7816 18.2039 13.8263 18.6341 14.002 19H6.6C4.63982 19 3.65972 19 2.91103 18.6185C2.25247 18.283 1.71703 17.7475 1.38148 17.089C1 16.3403 1 15.3602 1 13.4V8.6ZM11.5 14C13.1569 14 14.5 12.6569 14.5 11C14.5 9.34315 13.1569 8 11.5 8C9.84315 8 8.5 9.34315 8.5 11C8.5 12.6569 9.84315 14 11.5 14Z" fill="#353566"/>
<path d="M6.57755 2.5H16.4224C17.3835 2.5 18.1355 2.5 18.7395 2.54935C19.3541 2.59956 19.8594 2.70334 20.316 2.93597C21.0686 3.31947 21.6805 3.93139 22.064 4.68404C22.2967 5.14062 22.4004 5.64594 22.4507 6.26049C22.5 6.86453 22.5 7.61651 22.5 8.57765V13.7291C22.1792 13.5392 21.8453 13.369 21.5 13.2201V8.6C21.5 7.61166 21.4996 6.90047 21.454 6.34192C21.4088 5.78921 21.3219 5.43014 21.173 5.13803C20.8854 4.57354 20.4265 4.1146 19.862 3.82698C19.5699 3.67814 19.2108 3.59118 18.6581 3.54602C18.0995 3.50039 17.3883 3.5 16.4 3.5H6.6C5.61166 3.5 4.90047 3.50039 4.34192 3.54602C3.78921 3.59118 3.43014 3.67814 3.13803 3.82698C2.57354 4.1146 2.1146 4.57354 1.82698 5.13803C1.67814 5.43014 1.59118 5.78921 1.54602 6.34192C1.50039 6.90047 1.5 7.61166 1.5 8.6V13.4C1.5 14.3883 1.50039 15.0995 1.54602 15.6581C1.59118 16.2108 1.67814 16.5699 1.82698 16.862C2.1146 17.4265 2.57354 17.8854 3.13803 18.173C3.43014 18.3219 3.78921 18.4088 4.34192 18.454C4.90047 18.4996 5.61166 18.5 6.6 18.5H13.8437C13.9173 18.8942 14.0691 19.2073 14.3637 19.5H6.57754C5.61646 19.5 4.86451 19.5 4.26049 19.4507C3.64594 19.4004 3.14062 19.2967 2.68404 19.064C1.93139 18.6805 1.31947 18.0686 0.935974 17.316C0.703335 16.8594 0.599556 16.3541 0.549346 15.7395C0.499995 15.1355 0.499997 14.3835 0.5 13.4225V8.57756C0.499997 7.61647 0.499995 6.86451 0.549346 6.26049C0.599556 5.64594 0.703335 5.14062 0.935974 4.68404C1.31947 3.93139 1.93139 3.31947 2.68404 2.93597C3.14062 2.70334 3.64594 2.59956 4.26049 2.54935C4.86451 2.5 5.61647 2.5 6.57755 2.5Z" fill="#353566"/>
<path fill-rule="evenodd" clip-rule="evenodd" d="M13.9413 13.4839C13.4846 13.72 13.0511 13.9947 12.6453 14.3035C12.2898 14.4303 11.9078 14.5 11.5092 14.5L11.5046 14.5L11.5 14.5C9.567 14.5 8 12.933 8 11C8 9.067 9.567 7.5 11.5 7.5C13.433 7.5 15 9.067 15 11C15 11.9432 14.5956 12.8361 13.9413 13.4839ZM11.5 8.5C10.1193 8.5 9 9.61929 9 11C9 12.3807 10.1193 13.5 11.5 13.5L11.5046 13.5L11.5092 13.5C12.8781 13.5 14 12.3142 14 11C14 9.61929 12.8807 8.5 11.5 8.5Z" fill="#353566"/>
<path d="M4.25 11C4.25 10.5858 4.58579 10.25 5 10.25C5.41421 10.25 5.7501 10.5858 5.7501 11C5.7501 11.4142 5.41431 11.75 5.0001 11.75C4.58589 11.75 4.25 11.4142 4.25 11Z" fill="#353566"/>
<path d="M13.3403 16.3295C14.5628 15.1938 16.1995 14.5 17.9993 14.5C19.7998 14.5 21.437 15.1943 22.6596 16.3307C22.8619 16.5187 23.1782 16.5071 23.3662 16.3049C23.5542 16.1026 23.5427 15.7862 23.3404 15.5982C21.9401 14.2967 20.0622 13.5 17.9993 13.5C15.9372 13.5 14.0598 14.2961 12.6597 15.5969C12.4574 15.7849 12.4457 16.1012 12.6337 16.3035C12.8216 16.5058 13.138 16.5175 13.3403 16.3295Z" fill="#353566"/>
<path d="M18.0032 17.8333C17.1459 17.8333 16.3645 18.1949 15.7897 18.7913C15.5981 18.9902 15.2815 18.996 15.0827 18.8044C14.8839 18.6127 14.878 18.2962 15.0697 18.0974C15.8194 17.3195 16.8553 16.8333 18.0032 16.8333C19.1511 16.8333 20.187 17.3195 20.9368 18.0974C21.1284 18.2962 21.1225 18.6127 20.9237 18.8044C20.7249 18.996 20.4084 18.9902 20.2167 18.7913C19.6419 18.1949 18.8605 17.8333 18.0032 17.8333Z" fill="#353566"/>
<path d="M18 19.625C17.5168 19.625 17.125 20.0168 17.125 20.5C17.125 20.9832 17.5168 21.375 18 21.375C18.4832 21.375 18.8751 20.9832 18.8751 20.5C18.8751 20.0168 18.4832 19.625 18 19.625Z" fill="#353566"/>
</svg>
