<svg width="24" height="24" viewBox="0 0 24 24" fill="none" xmlns="http://www.w3.org/2000/svg">
<path opacity="0.4" fill-rule="evenodd" clip-rule="evenodd" d="M1 8.6C1 6.63982 1 5.65972 1.38148 4.91103C1.71703 4.25247 2.25247 3.71703 2.91103 3.38148C3.65972 3 4.63982 3 6.6 3H16.4C18.3602 3 19.3403 3 20.089 3.38148C20.7475 3.71703 21.283 4.25247 21.6185 4.91103C22 5.65972 22 6.63982 22 8.6V12.8899C20.8329 11.9772 19.4324 11.5 18 11.5C15.3638 11.5 12.8355 13.1163 11.6715 16.0893C11.4428 16.6734 11.4428 17.3266 11.6715 17.9107C11.8227 18.2969 11.9969 18.6602 12.1914 19H6.6C4.63982 19 3.65972 19 2.91103 18.6185C2.25247 18.283 1.71703 17.7475 1.38148 17.089C1 16.3403 1 15.3602 1 13.4V8.6ZM11.5 14C13.1569 14 14.5 12.6569 14.5 11C14.5 9.34315 13.1569 8 11.5 8C9.84315 8 8.5 9.34315 8.5 11C8.5 12.6569 9.84315 14 11.5 14Z" fill="#353566"/>
<path d="M6.57755 2.5C5.61647 2.5 4.86451 2.5 4.26049 2.54935C3.64594 2.59956 3.14062 2.70334 2.68404 2.93597C1.93139 3.31947 1.31947 3.93139 0.935974 4.68404C0.703335 5.14062 0.599556 5.64594 0.549346 6.26049C0.499995 6.86451 0.499997 7.61645 0.5 8.57754V13.4224C0.499997 14.3835 0.499995 15.1355 0.549346 15.7395C0.599556 16.3541 0.703335 16.8594 0.935974 17.316C1.31947 18.0686 1.93139 18.6805 2.68404 19.064C3.14062 19.2967 3.64594 19.4004 4.26049 19.4507C4.86451 19.5 5.61646 19.5 6.57754 19.5H12.5033C12.2925 19.1894 12.1 18.8559 11.9283 18.5H6.6C5.61166 18.5 4.90047 18.4996 4.34192 18.454C3.78921 18.4088 3.43014 18.3219 3.13803 18.173C2.57354 17.8854 2.1146 17.4265 1.82698 16.862C1.67814 16.5699 1.59118 16.2108 1.54602 15.6581C1.50039 15.0995 1.5 14.3883 1.5 13.4V8.6C1.5 7.61166 1.50039 6.90047 1.54602 6.34192C1.59118 5.78921 1.67814 5.43014 1.82698 5.13803C2.1146 4.57354 2.57354 4.1146 3.13803 3.82698C3.43014 3.67814 3.78921 3.59118 4.34192 3.54602C4.90047 3.50039 5.61166 3.5 6.6 3.5H16.4C17.3883 3.5 18.0995 3.50039 18.6581 3.54602C19.2108 3.59118 19.5699 3.67814 19.862 3.82698C20.4265 4.1146 20.8854 4.57354 21.173 5.13803C21.3219 5.43014 21.4088 5.78921 21.454 6.34192C21.4996 6.90047 21.5 7.61166 21.5 8.6V12.5345C21.8518 12.761 22.1867 13.0237 22.5 13.3216V8.57765C22.5 7.61651 22.5 6.86453 22.4507 6.26049C22.4004 5.64594 22.2967 5.14062 22.064 4.68404C21.6805 3.93139 21.0686 3.31947 20.316 2.93597C19.8594 2.70334 19.3541 2.59956 18.7395 2.54935C18.1355 2.5 17.3835 2.5 16.4225 2.5H6.57755Z" fill="#353566"/>
<path fill-rule="evenodd" clip-rule="evenodd" d="M12.6399 14.3054C13.2154 13.513 13.9136 12.8807 14.6867 12.4185C14.8881 11.9785 15 11.4962 15 11C15 9.067 13.433 7.5 11.5 7.5C9.567 7.5 8 9.067 8 11C8 12.933 9.567 14.5 11.5 14.5L11.5046 14.5L11.5092 14.5C11.9058 14.5 12.2859 14.431 12.6399 14.3054ZM9 11C9 9.61929 10.1193 8.5 11.5 8.5C12.8807 8.5 14 9.61929 14 11C14 12.3142 12.8781 13.5 11.5092 13.5L11.5046 13.5L11.5 13.5C10.1193 13.5 9 12.3807 9 11Z" fill="#353566"/>
<path d="M5 10.25C4.58579 10.25 4.25 10.5858 4.25 11C4.25 11.4142 4.58579 11.75 5 11.75C5.41421 11.75 5.7501 11.4142 5.7501 11C5.7501 10.5858 5.41421 10.25 5 10.25Z" fill="#353566"/>
<path fill-rule="evenodd" clip-rule="evenodd" d="M18 15C16.8942 15 16 15.8942 16 17C16 18.1058 16.8942 19 18 19C19.1058 19 20 18.1058 20 17C20 15.8942 19.1058 15 18 15ZM17 17C17 16.4465 17.4465 16 18 16C18.5535 16 19 16.4465 19 17C19 17.5535 18.5535 18 18 18C17.4465 18 17 17.5535 17 17Z" fill="#353566"/>
<path fill-rule="evenodd" clip-rule="evenodd" d="M18 12.5C20.2068 12.5 22.3768 13.8473 23.3973 16.4539C23.5342 16.8036 23.5342 17.1964 23.3973 17.5461C22.3768 20.1527 20.2068 21.5 18 21.5C15.7932 21.5 13.6232 20.1527 12.6027 17.5461C12.4658 17.1964 12.4658 16.8036 12.6027 16.4539C13.6232 13.8473 15.7932 12.5 18 12.5ZM18 13.5C16.2242 13.5 14.4115 14.5768 13.5339 16.8184C13.4887 16.9337 13.4887 17.0663 13.5339 17.1816C14.4115 19.4232 16.2242 20.5 18 20.5C19.7758 20.5 21.5885 19.4232 22.4661 17.1816C22.5113 17.0663 22.5113 16.9337 22.4661 16.8184C21.5885 14.5768 19.7758 13.5 18 13.5Z" fill="#353566"/>
</svg>
