<svg width="24" height="24" viewBox="0 0 24 24" fill="none" xmlns="http://www.w3.org/2000/svg">
<path opacity="0.4" d="M1 8.6C1 6.63982 1 5.65972 1.38148 4.91103C1.71703 4.25247 2.25247 3.71703 2.91103 3.38148C3.65972 3 4.63982 3 6.6 3H16.4C18.3602 3 19.3403 3 20.089 3.38148C20.7475 3.71703 21.283 4.25247 21.6185 4.91103C22 5.65972 22 6.63982 22 8.6V11.1063C21.7326 11.0398 21.4516 10.9971 21.165 10.962C20.5763 10.1807 19.9436 9.5 18.8718 9.5H17.6282C16.5564 9.5 15.9238 10.1807 15.335 10.962C15.0477 10.9971 14.7661 11.0399 14.4981 11.1067C14.4994 11.0713 14.5 11.0357 14.5 11C14.5 9.34315 13.1569 8 11.5 8C9.84315 8 8.5 9.34315 8.5 11C8.5 12.6569 9.84315 14 11.5 14C11.6853 14 11.8667 13.9832 12.0427 13.951C11.9018 14.6417 12.1303 15.3174 12.4218 15.9999C12.0379 16.899 11.7632 17.7862 12.2982 18.7113L12.4651 19H6.6C4.63982 19 3.65972 19 2.91103 18.6185C2.25247 18.283 1.71703 17.7475 1.38148 17.089C1 16.3403 1 15.3602 1 13.4V8.6Z" fill="#353566"/>
<path d="M6.57755 2.5C5.61647 2.5 4.86451 2.5 4.26049 2.54935C3.64594 2.59956 3.14062 2.70334 2.68404 2.93597C1.93139 3.31947 1.31947 3.93139 0.935974 4.68404C0.703335 5.14062 0.599556 5.64594 0.549346 6.26049C0.499995 6.86451 0.499997 7.61645 0.5 8.57754V13.4224C0.499997 14.3835 0.499995 15.1355 0.549346 15.7395C0.599556 16.3541 0.703335 16.8594 0.935974 17.316C1.31947 18.0686 1.93139 18.6805 2.68404 19.064C3.14062 19.2967 3.64594 19.4004 4.26049 19.4507C4.86451 19.5 5.61646 19.5 6.57754 19.5H12.7542L12.2981 18.7113C12.2572 18.6407 12.2211 18.5702 12.1894 18.5H6.6C5.61166 18.5 4.90047 18.4996 4.34192 18.454C3.78921 18.4088 3.43014 18.3219 3.13803 18.173C2.57354 17.8854 2.1146 17.4265 1.82698 16.862C1.67814 16.5699 1.59118 16.2108 1.54602 15.6581C1.50039 15.0995 1.5 14.3883 1.5 13.4V8.6C1.5 7.61166 1.50039 6.90047 1.54602 6.34192C1.59118 5.78921 1.67814 5.43014 1.82698 5.13803C2.1146 4.57354 2.57354 4.1146 3.13803 3.82698C3.43014 3.67814 3.78921 3.59118 4.34192 3.54602C4.90047 3.50039 5.61166 3.5 6.6 3.5H16.4C17.3883 3.5 18.0995 3.50039 18.6581 3.54602C19.2108 3.59118 19.5699 3.67814 19.862 3.82698C20.4265 4.1146 20.8854 4.57354 21.173 5.13803C21.3219 5.43014 21.4088 5.78921 21.454 6.34192C21.4996 6.90047 21.5 7.61166 21.5 8.6V11.0079C21.8523 11.0626 22.1908 11.1392 22.5 11.2696V8.57765C22.5 7.61651 22.5 6.86453 22.4507 6.26049C22.4004 5.64594 22.2967 5.14062 22.064 4.68404C21.6805 3.93139 21.0686 3.31947 20.316 2.93597C19.8594 2.70334 19.3541 2.59956 18.7395 2.54935C18.1355 2.5 17.3835 2.5 16.4225 2.5H6.57755Z" fill="#353566"/>
<path d="M15 11L15 11.0078C14.6414 11.0635 14.2971 11.1419 13.9835 11.2766C13.9944 11.1853 14 11.093 14 11C14 9.61929 12.8807 8.5 11.5 8.5C10.1193 8.5 9 9.61929 9 11C9 12.3807 10.1193 13.5 11.5 13.5L11.5046 13.5L11.5092 13.5C11.7656 13.5 12.0133 13.4584 12.2466 13.3822C12.0562 13.7475 11.9889 14.1071 12.0014 14.4641C11.8407 14.4877 11.6764 14.5 11.5092 14.5L11.5046 14.5L11.5 14.5C9.567 14.5 8 12.933 8 11C8 9.067 9.567 7.5 11.5 7.5C13.433 7.5 15 9.067 15 11Z" fill="#353566"/>
<path d="M5 10.25C4.58579 10.25 4.25 10.5858 4.25 11C4.25 11.4142 4.58579 11.75 5 11.75C5.41421 11.75 5.7501 11.4142 5.7501 11C5.7501 10.5858 5.41421 10.25 5 10.25Z" fill="#353566"/>
<path fill-rule="evenodd" clip-rule="evenodd" d="M18.25 14.25C17.2835 14.25 16.5 15.0335 16.5 16C16.5 16.9665 17.2835 17.75 18.25 17.75C19.2165 17.75 20 16.9665 20 16C20 15.0335 19.2165 14.25 18.25 14.25ZM17.5 16C17.5 15.5858 17.8358 15.25 18.25 15.25C18.6642 15.25 19 15.5858 19 16C19 16.4142 18.6642 16.75 18.25 16.75C17.8358 16.75 17.5 16.4142 17.5 16Z" fill="#353566"/>
<path fill-rule="evenodd" clip-rule="evenodd" d="M13.1845 18.212C12.8047 17.5529 13.0297 16.7096 13.6886 16.3285C13.9408 16.1827 13.9408 15.8172 13.6886 15.6714C13.0297 15.2903 12.8047 14.447 13.1845 13.7879L13.8042 12.7126C14.1844 12.0529 15.0272 11.8263 15.6866 12.2076C15.937 12.3525 16.2527 12.1723 16.2527 11.8791C16.2527 11.1183 16.8686 10.5 17.6302 10.5L18.8697 10.5C19.6314 10.5 20.2473 11.1183 20.2473 11.8792C20.2473 12.1724 20.563 12.3525 20.8134 12.2077C21.4728 11.8263 22.3156 12.053 22.6958 12.7126L23.3155 13.788C23.6954 14.4471 23.4703 15.2903 22.8114 15.6714C22.5592 15.8172 22.5592 16.1826 22.8114 16.3285C23.4703 16.7096 23.6954 17.5528 23.3155 18.2119L22.6958 19.2872C22.3156 19.9469 21.4728 20.1736 20.8134 19.7922C20.563 19.6474 20.2473 19.8275 20.2473 20.1208C20.2473 20.8816 19.6314 21.5 18.8697 21.5H17.6303C16.8686 21.5 16.2527 20.8817 16.2527 20.1208C16.2527 19.8275 15.937 19.6474 15.6866 19.7922C15.0272 20.1736 14.1844 19.9469 13.8042 19.2873L13.1845 18.212ZM14.1893 17.1942C14.0087 17.2986 13.9461 17.5308 14.0509 17.7127L14.6707 18.788C14.7752 18.9693 15.0059 19.0308 15.1859 18.9266C16.1057 18.3946 17.2527 19.0605 17.2527 20.1208C17.2527 20.3311 17.4226 20.5 17.6303 20.5H18.8697C19.0774 20.5 19.2473 20.3311 19.2473 20.1208C19.2473 19.0605 20.3943 18.3946 21.3141 18.9265C21.4941 19.0307 21.7248 18.9693 21.8293 18.7879L22.4491 17.7126C22.5539 17.5307 22.4913 17.2986 22.3107 17.1941C21.3928 16.6632 21.3928 15.3367 22.3107 14.8058C22.4913 14.7013 22.5539 14.4692 22.4491 14.2873L21.8293 13.212C21.7248 13.0306 21.4941 12.9692 21.3141 13.0733C20.3943 13.6053 19.2473 12.9395 19.2473 11.8792C19.2473 11.6689 19.0774 11.5 18.8697 11.5H17.6302C17.4226 11.5 17.2527 11.6689 17.2527 11.8791C17.2527 12.9395 16.1056 13.6052 15.186 13.0733C15.0059 12.9691 14.7752 13.0306 14.6707 13.2119L14.0509 14.2872C13.9461 14.4691 14.0087 14.7013 14.1893 14.8057C15.1073 15.3367 15.1073 16.6632 14.1893 17.1942Z" fill="#353566"/>
</svg>
