<svg width="24" height="24" viewBox="0 0 24 24" fill="none" xmlns="http://www.w3.org/2000/svg">
<path d="M3.17992 10.1989C4.01372 6.09132 7.6469 3 11.9999 3C16.1583 3 19.6603 5.82122 20.6917 9.65553C20.756 10.0638 21.0711 10.4056 21.5007 10.4838C21.5557 10.4938 21.6103 10.4991 21.6644 10.5C21.7532 10.5018 21.8438 10.4917 21.9341 10.4684C22.359 10.3591 22.6496 9.99243 22.682 9.57813L23.4828 5.1791C23.5817 4.63574 23.2214 4.11509 22.6781 4.01618C22.1347 3.91727 21.614 4.27756 21.5151 4.82092L21.2829 6.09664C19.3306 3.03268 15.9033 1 11.9999 1C6.677 1 2.23917 4.77972 1.21989 9.80107C1.11002 10.3423 1.45972 10.8701 2.00097 10.98C2.54222 11.0899 3.07005 10.7402 3.17992 10.1989Z" fill="#353566"/>
<path d="M22.7798 14.1989C22.8897 13.6577 22.54 13.1299 21.9988 13.02C21.4575 12.9101 20.9297 13.2598 20.8198 13.8011C19.986 17.9087 16.3528 21 11.9999 21C7.84149 21 4.33953 18.1789 3.30807 14.3447C3.24391 13.9364 2.9288 13.5945 2.4992 13.5162C2.44494 13.5063 2.39091 13.501 2.3375 13.5C2.24796 13.498 2.15666 13.5081 2.06565 13.5316C1.64069 13.6409 1.35011 14.0076 1.31769 14.4219L0.51613 18.8207C0.417122 19.3641 0.777322 19.8848 1.32066 19.9838C1.864 20.0828 2.38472 19.7226 2.48373 19.1793L2.71636 17.9026C4.66862 20.967 8.0961 23 11.9999 23C17.3227 23 21.7606 19.2203 22.7798 14.1989Z" fill="#353566"/>
<path fill-rule="evenodd" clip-rule="evenodd" d="M14.7499 10.5C14.7499 10.0858 14.4141 9.75 13.9999 9.75C13.5857 9.75 13.2499 10.0858 13.2499 10.5V11.25H11.6457C11.5222 10.8126 11.2882 10.3997 10.944 10.0554C9.87006 8.98153 8.12919 8.98153 7.0553 10.0554C5.9814 11.1293 5.9814 12.8702 7.0553 13.9441C8.12919 15.018 9.87006 15.018 10.944 13.9441C11.2881 13.5999 11.522 13.1873 11.6455 12.75H13.9806C13.987 12.7502 13.9934 12.7502 13.9999 12.7502C14.0063 12.7502 14.0128 12.7502 14.0192 12.75H16.9999C17.4141 12.75 17.7499 12.4142 17.7499 12V10C17.7499 9.58579 17.4141 9.25 16.9999 9.25C16.5857 9.25 16.2499 9.58579 16.2499 10V11.25H14.7499V10.5ZM9.8833 11.1161C9.39519 10.628 8.60406 10.628 8.11596 11.1161C7.62785 11.6042 7.62785 12.3953 8.11596 12.8834C8.60406 13.3715 9.39519 13.3715 9.8833 12.8834C10.3714 12.3953 10.3714 11.6042 9.8833 11.1161Z" fill="#353566"/>
</svg>
