<svg width="24" height="24" viewBox="0 0 24 24" fill="none" xmlns="http://www.w3.org/2000/svg">
<path d="M10.5 9C10.5 8.39025 11.0861 7.75 12 7.75C12.9139 7.75 13.5 8.39025 13.5 9V10H10.5V9Z" fill="#353566"/>
<path fill-rule="evenodd" clip-rule="evenodd" d="M9.77005 0.874614C11.1291 0.0436512 12.8387 0.0424472 14.1989 0.871494L20.7119 4.8411C21.9777 5.61258 22.75 6.98782 22.75 8.47016V15.5295C22.75 17.0118 21.9777 18.387 20.712 19.1585L14.199 23.1283C12.8388 23.9574 11.1291 23.9562 9.76997 23.1251L3.28293 19.1586C2.02011 18.3864 1.25 17.0129 1.25 15.5327V8.46691C1.25 6.98671 2.02014 5.61313 3.283 4.84098L9.77005 0.874614ZM12 6.25C10.4286 6.25 9 7.40061 9 9V10.2677C8.15193 10.389 7.5 11.1184 7.5 12V15.75C7.5 16.7165 8.2835 17.5 9.25 17.5H14.75C15.7165 17.5 16.5 16.7165 16.5 15.75V12C16.5 11.1184 15.8481 10.389 15 10.2677V9C15 7.40061 13.5714 6.25 12 6.25Z" fill="#353566"/>
</svg>
