<svg width="24" height="24" viewBox="0 0 24 24" fill="none" xmlns="http://www.w3.org/2000/svg">
<path d="M21.0674 10.1778C20.8095 9.85369 20.3376 9.80002 20.0135 10.0579C19.6894 10.3158 19.6357 10.7877 19.8936 11.1118C20.7429 12.1792 21.25 13.5293 21.25 15C21.25 16.212 20.9057 17.3414 20.3099 18.2982C20.1351 18.579 20.0871 18.9343 20.2071 19.2641L20.7459 20.7459L19.2641 20.2071C18.9343 20.0871 18.579 20.1351 18.2982 20.3099C17.3414 20.9057 16.212 21.25 15 21.25C13.5293 21.25 12.1791 20.7429 11.1117 19.8936C10.7876 19.6356 10.3157 19.6893 10.0578 20.0134C9.7999 20.3375 9.85357 20.8094 10.1777 21.0673C11.501 22.1203 13.178 22.75 15 22.75C16.4327 22.75 17.7766 22.3605 18.9292 21.6814L20.334 22.1922C21.4911 22.613 22.613 21.4911 22.1922 20.334L21.6814 18.9292C22.3605 17.7766 22.75 16.4327 22.75 15C22.75 13.178 22.1203 11.5011 21.0674 10.1778Z" fill="#353566"/>
<path d="M10 14.2499C9.58579 14.2499 9.25 13.9141 9.25 13.4999V8.31054L7.53033 10.0302C7.23744 10.3231 6.76256 10.3231 6.46967 10.0302C6.17678 9.73731 6.17678 9.26244 6.46967 8.96955L9.46967 5.96955C9.61032 5.82889 9.80109 5.74988 10 5.74988C10.1989 5.74988 10.3897 5.82889 10.5303 5.96955L13.5303 8.96955C13.8232 9.26244 13.8232 9.73731 13.5303 10.0302C13.2374 10.3231 12.7626 10.3231 12.4697 10.0302L10.75 8.31054V13.4999C10.75 13.9141 10.4142 14.2499 10 14.2499Z" fill="#353566"/>
<path fill-rule="evenodd" clip-rule="evenodd" d="M10 1.24988C5.16751 1.24988 1.25 5.16739 1.25 9.99988C1.25 11.6356 1.69955 13.1685 2.48214 14.4794L1.881 16.1325C1.43121 17.3694 2.63044 18.5687 3.86738 18.1189L5.52052 17.5177C6.83136 18.3003 8.36425 18.7499 10 18.7499C14.8325 18.7499 18.75 14.8324 18.75 9.99988C18.75 5.16739 14.8325 1.24988 10 1.24988ZM2.75 9.99988C2.75 5.99581 5.99594 2.74988 10 2.74988C14.0041 2.74988 17.25 5.99581 17.25 9.99988C17.25 14.0039 14.0041 17.2499 10 17.2499C8.59419 17.2499 7.28395 16.8505 6.17391 16.1594C5.87976 15.9762 5.508 15.9262 5.16326 16.0516L3.35477 16.7092C3.34413 16.7131 3.33781 16.7137 3.33514 16.7138C3.33227 16.714 3.32995 16.7137 3.32753 16.7131C3.32207 16.7118 3.31231 16.7075 3.30233 16.6976C3.29234 16.6876 3.28808 16.6778 3.28674 16.6723C3.28615 16.6699 3.28589 16.6676 3.28604 16.6647C3.28618 16.6621 3.28682 16.6557 3.29069 16.6451L3.94833 14.8366C4.07368 14.4919 4.02366 14.1201 3.84051 13.826C3.14937 12.7159 2.75 11.4057 2.75 9.99988Z" fill="#353566"/>
</svg>
