<svg width="24" height="24" viewBox="0 0 24 24" fill="none" xmlns="http://www.w3.org/2000/svg">
<g clip-path="url(#clip0_9001_275712)">
<path d="M1.75 11C1.75 5.89137 5.89137 1.75 11 1.75C15.9179 1.75 19.9399 5.58829 20.2329 10.4321C20.2579 10.8455 20.6133 11.1604 21.0268 11.1354C21.4403 11.1104 21.7551 10.755 21.7301 10.3415C21.3895 4.71075 16.716 0.25 11 0.25C5.06294 0.25 0.25 5.06294 0.25 11C0.25 13.0416 0.819848 14.9523 1.80949 16.5793L1.02746 18.7298C0.519627 20.1264 1.8736 21.4804 3.27015 20.9725L5.42072 20.1905C7.04768 21.1802 8.9584 21.75 11 21.75C11.5917 21.75 12.1727 21.7021 12.7392 21.6099C13.1481 21.5434 13.4256 21.158 13.359 20.7492C13.2925 20.3403 12.9071 20.0629 12.4983 20.1294C12.011 20.2087 11.5106 20.25 11 20.25C9.2067 20.25 7.53471 19.7404 6.11828 18.8585C5.79731 18.6587 5.39258 18.6047 5.01816 18.7408L2.75754 19.5628C2.55803 19.6354 2.3646 19.442 2.43715 19.2425L3.2592 16.9818C3.39535 16.6074 3.34131 16.2027 3.14147 15.8817C2.25957 14.4653 1.75 12.7933 1.75 11Z" fill="#353566"/>
<path d="M15.75 9C15.75 9.41421 15.4142 9.75 15 9.75H7C6.58579 9.75 6.25 9.41421 6.25 9C6.25 8.58579 6.58579 8.25 7 8.25H15C15.4142 8.25 15.75 8.58579 15.75 9Z" fill="#353566"/>
<path d="M12 13.75H7C6.58579 13.75 6.25 13.4142 6.25 13C6.25 12.5858 6.58579 12.25 7 12.25H12C12.4142 12.25 12.75 12.5858 12.75 13C12.75 13.4142 12.4142 13.75 12 13.75Z" fill="#353566"/>
<path d="M19 20.75C17.4589 20.75 16.0804 21.8117 15.7264 23.1869C15.6231 23.5881 15.2143 23.8296 14.8131 23.7263C14.412 23.6231 14.1705 23.2142 14.2737 22.8131C14.8079 20.7379 16.8135 19.25 19 19.25C21.1865 19.25 23.1923 20.7379 23.7264 22.8131C23.8296 23.2142 23.5881 23.6231 23.187 23.7263C22.7859 23.8296 22.377 23.5881 22.2737 23.1869C21.9198 21.8117 20.5412 20.75 19 20.75Z" fill="#353566"/>
<path fill-rule="evenodd" clip-rule="evenodd" d="M19 12.25C17.3431 12.25 16 13.5931 16 15.25C16 16.9069 17.3431 18.25 19 18.25C20.6569 18.25 22 16.9069 22 15.25C22 13.5931 20.6569 12.25 19 12.25ZM17.5 15.25C17.5 14.4216 18.1716 13.75 19 13.75C19.8284 13.75 20.5 14.4216 20.5 15.25C20.5 16.0784 19.8284 16.75 19 16.75C18.1716 16.75 17.5 16.0784 17.5 15.25Z" fill="#353566"/>
</g>
<defs>
<clipPath id="clip0_9001_275712">
<rect width="24" height="24" fill="white"/>
</clipPath>
</defs>
</svg>
