<svg width="24" height="24" viewBox="0 0 24 24" fill="none" xmlns="http://www.w3.org/2000/svg">
<path fill-rule="evenodd" clip-rule="evenodd" d="M11.2128 5.70585C11.8227 5.09593 12.8083 5.0998 13.4154 5.70698L14.2931 6.58462C14.9016 7.19317 14.9016 8.17983 14.2931 8.78838L9.13398 13.9475C8.94505 14.1364 8.70452 14.2653 8.44259 14.318L6.39011 14.7312C5.7231 14.8654 5.13464 14.277 5.26889 13.6099L5.68201 11.5575C5.73396 11.2994 5.8588 11.0599 6.05045 10.8682L11.2128 5.70585ZM12.3548 6.76764C12.3306 6.74351 12.2949 6.74511 12.2735 6.76651L11.6502 7.3898L12.6103 8.34988L13.2324 7.72772C13.2552 7.70496 13.2552 7.66805 13.2324 7.64528L12.3548 6.76764ZM11.5496 9.41054L10.5895 8.45046L7.14395 11.896L6.90201 13.0981L8.10403 12.8561L11.5496 9.41054Z" fill="#353566"/>
<path fill-rule="evenodd" clip-rule="evenodd" d="M10 1.25C5.16751 1.25 1.25 5.16751 1.25 10C1.25 11.6357 1.69955 13.1686 2.48214 14.4795L1.881 16.1326C1.4312 17.3696 2.63044 18.5688 3.86738 18.119L5.52052 17.5179C6.83136 18.3005 8.36425 18.75 10 18.75C14.8325 18.75 18.75 14.8325 18.75 10C18.75 5.16751 14.8325 1.25 10 1.25ZM2.75 10C2.75 5.99594 5.99594 2.75 10 2.75C14.0041 2.75 17.25 5.99594 17.25 10C17.25 14.0041 14.0041 17.25 10 17.25C8.59419 17.25 7.28395 16.8506 6.1739 16.1595C5.87976 15.9763 5.50799 15.9263 5.16326 16.0517L3.35477 16.7093C3.34413 16.7132 3.33781 16.7138 3.33514 16.714C3.33227 16.7141 3.32994 16.7139 3.32753 16.7133C3.32207 16.7119 3.31231 16.7077 3.30233 16.6977C3.29234 16.6877 3.28808 16.6779 3.28674 16.6725C3.28615 16.6701 3.28589 16.6677 3.28604 16.6649C3.28618 16.6622 3.28682 16.6559 3.29069 16.6452L3.94833 14.8367C4.07368 14.492 4.02366 14.1202 3.84051 13.8261C3.14937 12.7161 2.75 11.4058 2.75 10Z" fill="#353566"/>
<path d="M21.0674 10.1779C20.8095 9.85382 20.3376 9.80014 20.0135 10.0581C19.6894 10.316 19.6357 10.7878 19.8936 11.1119C20.743 12.1793 21.25 13.5294 21.25 15.0001C21.25 16.2122 20.9057 17.3415 20.3099 18.2984C20.1351 18.5791 20.0871 18.9344 20.2071 19.2643L20.7459 20.746L19.2641 20.2072C18.9343 20.0872 18.579 20.1353 18.2982 20.31C17.3414 20.9058 16.212 21.2501 15 21.2501C13.5293 21.2501 12.1791 20.743 11.1117 19.8937C10.7876 19.6358 10.3157 19.6894 10.0578 20.0135C9.7999 20.3377 9.85357 20.8095 10.1777 21.0674C11.501 22.1204 13.178 22.7501 15 22.7501C16.4327 22.7501 17.7766 22.3606 18.9292 21.6815L20.334 22.1923C21.4911 22.6131 22.613 21.4912 22.1922 20.3341L21.6814 18.9293C22.3605 17.7767 22.75 16.4328 22.75 15.0001C22.75 13.1782 22.1203 11.5012 21.0674 10.1779Z" fill="#353566"/>
</svg>
