<svg width="24" height="24" viewBox="0 0 24 24" fill="none" xmlns="http://www.w3.org/2000/svg">
<g clip-path="url(#clip0_9001_275657)">
<path d="M1.75 11C1.75 5.89137 5.89137 1.75 11 1.75C15.9947 1.75 20.065 5.70892 20.2439 10.6596C20.2588 11.0735 20.6065 11.397 21.0204 11.382C21.4344 11.3671 21.7578 11.0194 21.7429 10.6054C21.535 4.85088 16.805 0.25 11 0.25C5.06294 0.25 0.25 5.06294 0.25 11C0.25 13.0416 0.819848 14.9523 1.80949 16.5793L1.02746 18.7298C0.519627 20.1264 1.8736 21.4804 3.27015 20.9725L5.42072 20.1905C6.98793 21.1438 8.81854 21.7077 10.7761 21.7477C11.1902 21.7562 11.5328 21.4273 11.5412 21.0132C11.5497 20.5991 11.2209 20.2565 10.8068 20.248C9.0868 20.2128 7.48383 19.7088 6.11828 18.8585C5.79731 18.6587 5.39258 18.6047 5.01816 18.7408L2.75754 19.5628C2.55803 19.6354 2.3646 19.442 2.43715 19.2425L3.2592 16.9818C3.39535 16.6074 3.34131 16.2027 3.14147 15.8817C2.25957 14.4653 1.75 12.7933 1.75 11Z" fill="#353566"/>
<path d="M15.75 9C15.75 9.41421 15.4142 9.75 15 9.75H7C6.58579 9.75 6.25 9.41421 6.25 9C6.25 8.58579 6.58579 8.25 7 8.25H15C15.4142 8.25 15.75 8.58579 15.75 9Z" fill="#353566"/>
<path d="M12 13.75H7C6.58579 13.75 6.25 13.4142 6.25 13C6.25 12.5858 6.58579 12.25 7 12.25H12C12.4142 12.25 12.75 12.5858 12.75 13C12.75 13.4142 12.4142 13.75 12 13.75Z" fill="#353566"/>
<path fill-rule="evenodd" clip-rule="evenodd" d="M18.25 16.125C17.2145 16.125 16.375 16.9645 16.375 18C16.375 19.0355 17.2145 19.875 18.25 19.875C19.2855 19.875 20.125 19.0355 20.125 18C20.125 16.9645 19.2855 16.125 18.25 16.125ZM17.625 18C17.625 17.6548 17.9048 17.375 18.25 17.375C18.5952 17.375 18.875 17.6548 18.875 18C18.875 18.3452 18.5952 18.625 18.25 18.625C17.9048 18.625 17.625 18.3452 17.625 18Z" fill="#353566"/>
<path fill-rule="evenodd" clip-rule="evenodd" d="M12.9679 20.3368C12.5193 19.5584 12.785 18.5624 13.5634 18.1121C13.6492 18.0625 13.6492 17.9374 13.5634 17.8878C12.785 17.4375 12.5193 16.4415 12.9679 15.6631L13.5876 14.5878C14.0367 13.8085 15.0325 13.5405 15.8118 13.9912C15.8949 14.0393 16.0026 13.9805 16.0026 13.8791C16.0026 12.9806 16.7301 12.25 17.6302 12.25H18.8697C19.7699 12.25 20.4973 12.9807 20.4973 13.8792C20.4973 13.9806 20.6051 14.0393 20.6882 13.9913C21.4674 13.5406 22.4632 13.8086 22.9123 14.5878L23.5321 15.6631C23.9807 16.4416 23.715 17.4376 22.9365 17.8878C22.8508 17.9374 22.8508 18.0625 22.9365 18.1121C23.715 18.5623 23.9807 19.5583 23.5321 20.3367L22.9123 21.4121C22.4632 22.1913 21.4674 22.4593 20.6882 22.0086C20.6052 21.9606 20.4973 22.0192 20.4973 22.1208C20.4973 23.0193 19.7699 23.75 18.8697 23.75H17.6303C16.7301 23.75 16.0026 23.0193 16.0026 22.1208C16.0026 22.0193 15.8948 21.9606 15.8118 22.0086C15.0325 22.4594 14.0367 22.1913 13.5876 21.4121L12.9679 20.3368ZM14.3144 19.4106C14.2534 19.4459 14.2315 19.5253 14.2675 19.5878L14.8872 20.6631C14.9228 20.7249 15.0005 20.745 15.0607 20.7102C16.1478 20.0814 17.5026 20.8688 17.5026 22.1208C17.5026 22.1934 17.5611 22.25 17.6303 22.25H18.8697C18.9389 22.25 18.9973 22.1934 18.9973 22.1208C18.9973 20.8688 20.3521 20.0814 21.4392 20.7101C21.4995 20.745 21.5771 20.7248 21.6127 20.6631L22.2325 19.5877C22.2685 19.5252 22.2466 19.4458 22.1855 19.4105C21.1012 18.7833 21.1012 17.2165 22.1855 16.5893C22.2466 16.5541 22.2685 16.4747 22.2325 16.4121L21.6127 15.3368C21.5771 15.275 21.4995 15.2549 21.4392 15.2897C20.3521 15.9185 18.9973 15.1312 18.9973 13.8792C18.9973 13.8066 18.9389 13.75 18.8697 13.75H17.6302C17.561 13.75 17.5026 13.8066 17.5026 13.8791C17.5026 15.1312 16.1478 15.9184 15.0608 15.2897C15.0005 15.2548 14.9228 15.275 14.8872 15.3368L14.2675 16.4121C14.2315 16.4746 14.2534 16.554 14.3144 16.5893C15.3988 17.2165 15.3988 18.7834 14.3144 19.4106Z" fill="#353566"/>
</g>
<defs>
<clipPath id="clip0_9001_275657">
<rect width="24" height="24" fill="white"/>
</clipPath>
</defs>
</svg>
