<svg width="24" height="24" viewBox="0 0 24 24" fill="none" xmlns="http://www.w3.org/2000/svg">
<path d="M2.75 12C2.75 6.89137 6.89137 2.75 12 2.75C12.7192 2.75 13.4183 2.83193 14.0888 2.98665C14.4924 3.07978 14.8951 2.82809 14.9882 2.42448C15.0814 2.02087 14.8297 1.61819 14.4261 1.52506C13.6457 1.34499 12.8335 1.25 12 1.25C6.06294 1.25 1.25 6.06294 1.25 12C1.25 14.0416 1.81985 15.9523 2.80949 17.5793L2.02746 19.7298C1.51963 21.1264 2.8736 22.4804 4.27015 21.9725L6.42072 21.1905C8.04768 22.1802 9.9584 22.75 12 22.75C17.9371 22.75 22.75 17.9371 22.75 12C22.75 11.1665 22.655 10.3543 22.4749 9.57394C22.3818 9.17033 21.9791 8.91863 21.5755 9.01176C21.1719 9.10489 20.9202 9.50758 21.0133 9.91118C21.1681 10.5817 21.25 11.2808 21.25 12C21.25 17.1086 17.1086 21.25 12 21.25C10.2067 21.25 8.53471 20.7404 7.11828 19.8585C6.79731 19.6587 6.39258 19.6047 6.01816 19.7408L3.75754 20.5628C3.55803 20.6354 3.3646 20.442 3.43715 20.2425L4.2592 17.9818C4.39535 17.6074 4.34131 17.2027 4.14147 16.8817C3.25957 15.4653 2.75 13.7933 2.75 12Z" fill="#353566"/>
<path fill-rule="evenodd" clip-rule="evenodd" d="M20 1.25C18.4812 1.25 17.25 2.48122 17.25 4C17.25 5.51878 18.4812 6.75 20 6.75C21.5188 6.75 22.75 5.51878 22.75 4C22.75 2.48122 21.5188 1.25 20 1.25ZM18.75 4C18.75 3.30964 19.3096 2.75 20 2.75C20.6904 2.75 21.25 3.30964 21.25 4C21.25 4.69036 20.6904 5.25 20 5.25C19.3096 5.25 18.75 4.69036 18.75 4Z" fill="#353566"/>
</svg>
