<svg width="24" height="24" viewBox="0 0 24 24" fill="none" xmlns="http://www.w3.org/2000/svg">
<path d="M11 15.5C11 14.9477 11.4477 14.5 12 14.5C12.5523 14.5 13.0001 14.9477 13.0001 15.5C13.0001 16.0523 12.5524 16.5 12.0001 16.5C11.4478 16.5 11 16.0523 11 15.5Z" fill="#353566"/>
<path d="M11.25 8V12C11.25 12.4142 11.5858 12.75 12 12.75C12.4142 12.75 12.75 12.4142 12.75 12V8C12.75 7.58579 12.4142 7.25 12 7.25C11.5858 7.25 11.25 7.58579 11.25 8Z" fill="#353566"/>
<path fill-rule="evenodd" clip-rule="evenodd" d="M1.25 12C1.25 6.06294 6.06294 1.25 12 1.25C17.9371 1.25 22.75 6.06294 22.75 12C22.75 17.9371 17.9371 22.75 12 22.75C9.9584 22.75 8.04768 22.1802 6.42072 21.1905L4.27015 21.9725C2.8736 22.4804 1.51963 21.1264 2.02746 19.7298L2.80949 17.5793C1.81985 15.9523 1.25 14.0416 1.25 12ZM12 2.75C6.89137 2.75 2.75 6.89137 2.75 12C2.75 13.7933 3.25957 15.4653 4.14147 16.8817C4.34132 17.2027 4.39535 17.6074 4.2592 17.9818L3.43715 20.2425C3.3646 20.442 3.55803 20.6354 3.75754 20.5628L6.01816 19.7408C6.39258 19.6047 6.79731 19.6587 7.11828 19.8585C8.53471 20.7404 10.2067 21.25 12 21.25C17.1086 21.25 21.25 17.1086 21.25 12C21.25 6.89137 17.1086 2.75 12 2.75Z" fill="#353566"/>
</svg>
