<svg width="24" height="24" viewBox="0 0 24 24" fill="none" xmlns="http://www.w3.org/2000/svg">
<g clip-path="url(#clip0_9001_275592)">
<path d="M1.75 11C1.75 5.89137 5.89137 1.75 11 1.75C15.9777 1.75 20.0374 5.68206 20.2419 10.6091C20.2591 11.0229 20.6085 11.3445 21.0224 11.3273C21.4362 11.3102 21.7578 10.9607 21.7406 10.5469C21.5028 4.81967 16.7853 0.25 11 0.25C5.06294 0.25 0.25 5.06294 0.25 11C0.25 13.0416 0.819848 14.9523 1.80949 16.5793L1.02746 18.7298C0.519627 20.1264 1.8736 21.4804 3.27015 20.9725L5.42072 20.1905C6.9265 21.1064 8.67553 21.6629 10.5469 21.7406C10.9607 21.7578 11.3102 21.4362 11.3273 21.0224C11.3445 20.6085 11.0229 20.2591 10.6091 20.2419C8.96418 20.1736 7.4315 19.6762 6.11828 18.8585C5.79731 18.6587 5.39258 18.6047 5.01816 18.7408L2.75754 19.5628C2.55803 19.6354 2.3646 19.442 2.43715 19.2425L3.2592 16.9818C3.39535 16.6074 3.34131 16.2027 3.14147 15.8817C2.25957 14.4653 1.75 12.7933 1.75 11Z" fill="#353566"/>
<path d="M15.75 9C15.75 9.41421 15.4142 9.75 15 9.75H7C6.58579 9.75 6.25 9.41421 6.25 9C6.25 8.58579 6.58579 8.25 7 8.25H15C15.4142 8.25 15.75 8.58579 15.75 9Z" fill="#353566"/>
<path d="M12 13.75H7C6.58579 13.75 6.25 13.4142 6.25 13C6.25 12.5858 6.58579 12.25 7 12.25H12C12.4142 12.25 12.75 12.5858 12.75 13C12.75 13.4142 12.4142 13.75 12 13.75Z" fill="#353566"/>
<path d="M16.4419 20.4419L20.4419 16.4419C20.686 16.1979 20.686 15.8021 20.4419 15.5581C20.1979 15.314 19.8021 15.314 19.5581 15.5581L15.5581 19.5581C15.314 19.8021 15.314 20.1979 15.5581 20.4419C15.8021 20.686 16.1979 20.686 16.4419 20.4419Z" fill="#353566"/>
<path d="M15.75 16.5C15.75 16.0858 16.0858 15.75 16.5 15.75C16.9142 15.75 17.2501 16.0858 17.2501 16.5C17.2501 16.9142 16.9143 17.25 16.5001 17.25C16.0859 17.25 15.75 16.9142 15.75 16.5Z" fill="#353566"/>
<path d="M19.5 18.75C19.0858 18.75 18.75 19.0858 18.75 19.5C18.75 19.9142 19.0858 20.25 19.5 20.25C19.9142 20.25 20.2501 19.9142 20.2501 19.5C20.2501 19.0858 19.9142 18.75 19.5 18.75Z" fill="#353566"/>
<path fill-rule="evenodd" clip-rule="evenodd" d="M12.25 18C12.25 14.8244 14.8244 12.25 18 12.25C21.1756 12.25 23.75 14.8244 23.75 18C23.75 21.1756 21.1756 23.75 18 23.75C14.8244 23.75 12.25 21.1756 12.25 18ZM18 13.75C15.6528 13.75 13.75 15.6528 13.75 18C13.75 20.3472 15.6528 22.25 18 22.25C20.3472 22.25 22.25 20.3472 22.25 18C22.25 15.6528 20.3472 13.75 18 13.75Z" fill="#353566"/>
</g>
<defs>
<clipPath id="clip0_9001_275592">
<rect width="24" height="24" fill="white"/>
</clipPath>
</defs>
</svg>
