<svg width="24" height="24" viewBox="0 0 24 24" fill="none" xmlns="http://www.w3.org/2000/svg">
<path opacity="0.4" d="M22 8.5H1V14.2C1 15.8802 1 16.7202 1.32698 17.362C1.6146 17.9265 2.07354 18.3854 2.63803 18.673C3.27976 19 4.11984 19 5.8 19H15.147C15.3078 18.8539 15.4773 18.7168 15.6546 18.5892L16.8891 17.701C16.8891 17.701 16.4453 17.2019 15.9839 16.5789C15.5224 15.9558 15.25 15.0869 15.25 14.25C15.25 12.1789 16.9289 10.5 19 10.5C20.2267 10.5 21.3158 11.089 22 11.9996V8.5Z" fill="#353566"/>
<path fill-rule="evenodd" clip-rule="evenodd" d="M5.77779 2.5C4.95653 2.5 4.30954 2.49999 3.78889 2.54253C3.25771 2.58593 2.81414 2.67609 2.41103 2.88148C1.75247 3.21703 1.21703 3.75247 0.881477 4.41103C0.676087 4.81414 0.585932 5.25771 0.542533 5.78889C0.499994 6.30954 0.499997 6.95652 0.5 7.77779V14.2222C0.499997 15.0435 0.499994 15.6905 0.542533 16.2111C0.585932 16.7423 0.676087 17.1859 0.881477 17.589C1.21703 18.2475 1.75247 18.783 2.41103 19.1185C2.81414 19.3239 3.25771 19.4141 3.78889 19.4575C4.30954 19.5 4.95651 19.5 5.77778 19.5H14.6611C14.9531 19.1592 15.2871 18.8536 15.6546 18.5892L15.7786 18.5H5.8C4.95167 18.5 4.34549 18.4996 3.87032 18.4608C3.40099 18.4224 3.10366 18.3491 2.86502 18.2275C2.39462 17.9878 2.01217 17.6054 1.77248 17.135C1.65089 16.8963 1.57756 16.599 1.53921 16.1297C1.50039 15.6545 1.5 15.0483 1.5 14.2V9H21.5V11.4549C21.9387 11.8475 22.2844 12.3418 22.5 12.9009V7.77778C22.5 6.95652 22.5 6.30954 22.4575 5.78889C22.4141 5.25771 22.3239 4.81413 22.1185 4.41103C21.783 3.75247 21.2475 3.21703 20.589 2.88148C20.1859 2.67609 19.7423 2.58593 19.2111 2.54253C18.6905 2.49999 18.0435 2.5 17.2222 2.5H5.77779ZM1.5 8H21.5V7.8C21.5 6.95167 21.4996 6.3455 21.4608 5.87032C21.4224 5.40099 21.3491 5.10366 21.2275 4.86502C20.9878 4.39462 20.6054 4.01217 20.135 3.77248C19.8963 3.65089 19.599 3.57756 19.1297 3.53921C18.6545 3.50039 18.0483 3.5 17.2 3.5H5.8C4.95167 3.5 4.34549 3.50039 3.87032 3.53921C3.40099 3.57756 3.10366 3.65089 2.86502 3.77248C2.39462 4.01217 2.01217 4.39462 1.77248 4.86502C1.65089 5.10366 1.57756 5.40099 1.53921 5.87032C1.50039 6.34549 1.5 6.95167 1.5 7.8V8Z" fill="#353566"/>
<path d="M5 14C4.72386 14 4.5 14.2239 4.5 14.5C4.5 14.7761 4.72386 15 5 15H9.5C9.77614 15 10 14.7761 10 14.5C10 14.2239 9.77614 14 9.5 14H5Z" fill="#353566"/>
<path d="M19 19.5C17.3513 19.5 15.8682 20.6327 15.4842 22.1246C15.4154 22.3921 15.1428 22.553 14.8754 22.4842C14.6079 22.4154 14.4469 22.1428 14.5158 21.8754C15.0199 19.9168 16.921 18.5 19 18.5C21.0789 18.5 22.9801 19.9168 23.4842 21.8754C23.553 22.1428 23.3921 22.4154 23.1246 22.4842C22.8572 22.553 22.5846 22.3921 22.5158 22.1246C22.1318 20.6327 20.6487 19.5 19 19.5Z" fill="#353566"/>
<path fill-rule="evenodd" clip-rule="evenodd" d="M19 11.5C17.4812 11.5 16.25 12.7312 16.25 14.25C16.25 15.7688 17.4812 17 19 17C20.5188 17 21.75 15.7688 21.75 14.25C21.75 12.7312 20.5188 11.5 19 11.5ZM17.25 14.25C17.25 13.2835 18.0335 12.5 19 12.5C19.9665 12.5 20.75 13.2835 20.75 14.25C20.75 15.2165 19.9665 16 19 16C18.0335 16 17.25 15.2165 17.25 14.25Z" fill="#353566"/>
</svg>
