<svg width="24" height="24" viewBox="0 0 24 24" fill="none" xmlns="http://www.w3.org/2000/svg">
<path opacity="0.4" d="M22 8.5H1V14.2C1 15.8802 1 16.7202 1.32698 17.362C1.6146 17.9265 2.07354 18.3854 2.63803 18.673C3.27976 19 4.11984 19 5.8 19H13.325C13.325 15.5896 16.0896 12.825 19.5 12.825C20.3898 12.825 21.2357 13.0132 22 13.352V8.5Z" fill="#353566"/>
<path fill-rule="evenodd" clip-rule="evenodd" d="M5.77779 2.5H17.2222C18.0435 2.5 18.6905 2.49999 19.2111 2.54253C19.7423 2.58593 20.1859 2.67609 20.589 2.88148C21.2475 3.21703 21.783 3.75247 22.1185 4.41103C22.3239 4.81413 22.4141 5.25771 22.4575 5.78889C22.5 6.30954 22.5 6.95652 22.5 7.77778V13.6014C22.1828 13.4248 21.8484 13.2753 21.5 13.1561V9H1.5V14.2C1.5 15.0483 1.50039 15.6545 1.53921 16.1297C1.57756 16.599 1.65089 16.8963 1.77248 17.135C2.01217 17.6054 2.39462 17.9878 2.86502 18.2275C3.10366 18.3491 3.40099 18.4224 3.87032 18.4608C4.34549 18.4996 4.95167 18.5 5.8 18.5H13.3449C13.3317 18.6649 13.325 18.8317 13.325 19C13.325 19.1683 13.3317 19.3351 13.3449 19.5H5.77778C4.95651 19.5 4.30954 19.5 3.78889 19.4575C3.25771 19.4141 2.81414 19.3239 2.41103 19.1185C1.75247 18.783 1.21703 18.2475 0.881477 17.589C0.676087 17.1859 0.585932 16.7423 0.542533 16.2111C0.499994 15.6905 0.499997 15.0435 0.5 14.2222V7.77779C0.499997 6.95653 0.499994 6.30954 0.542533 5.78889C0.585932 5.25771 0.676087 4.81414 0.881477 4.41103C1.21703 3.75247 1.75247 3.21703 2.41103 2.88148C2.81414 2.67609 3.25771 2.58593 3.78889 2.54253C4.30954 2.49999 4.95653 2.5 5.77779 2.5ZM21.5 8H1.5V7.8C1.5 6.95167 1.50039 6.34549 1.53921 5.87032C1.57756 5.40099 1.65089 5.10366 1.77248 4.86502C2.01217 4.39462 2.39462 4.01217 2.86502 3.77248C3.10366 3.65089 3.40099 3.57756 3.87032 3.53921C4.34549 3.50039 4.95167 3.5 5.8 3.5H17.2C18.0483 3.5 18.6545 3.50039 19.1297 3.53921C19.599 3.57756 19.8963 3.65089 20.135 3.77248C20.6054 4.01217 20.9878 4.39462 21.2275 4.86502C21.3491 5.10366 21.4224 5.40099 21.4608 5.87032C21.4996 6.3455 21.5 6.95167 21.5 7.8V8Z" fill="#353566"/>
<path d="M4.5 14.5C4.5 14.2239 4.72386 14 5 14H9.5C9.77614 14 10 14.2239 10 14.5C10 14.7761 9.77614 15 9.5 15H5C4.72386 15 4.5 14.7761 4.5 14.5Z" fill="#353566"/>
<path d="M23.3536 16.8536C23.5488 16.6583 23.5488 16.3417 23.3536 16.1464C23.1583 15.9512 22.8417 15.9512 22.6464 16.1464L18.5 20.2929L16.3536 18.1464C16.1583 17.9512 15.8417 17.9512 15.6464 18.1464C15.4512 18.3417 15.4512 18.6583 15.6464 18.8536L18.1464 21.3536C18.3417 21.5488 18.6583 21.5488 18.8536 21.3536L23.3536 16.8536Z" fill="#353566"/>
</svg>
