<svg width="24" height="24" viewBox="0 0 24 24" fill="none" xmlns="http://www.w3.org/2000/svg">
<g opacity="0.4">
<path d="M2 6C2 8.20914 4.91015 10 8.5 10C12.0899 10 15 8.20914 15 6C15 3.79086 12.0899 2 8.5 2C4.91015 2 2 3.79086 2 6Z" fill="#353566"/>
<path d="M9 15.5C9 19.0898 11.9101 22 15.5 22C19.0898 22 22 19.0898 22 15.5C22 11.9101 19.0899 9 15.5 9C11.9101 9 9 11.9101 9 15.5Z" fill="#353566"/>
</g>
<path d="M15.8591 11.1232C15.6983 10.8478 15.3004 10.8479 15.1396 11.1232L12.8106 15.1115C12.6942 15.3108 12.762 15.5667 12.9617 15.6823L15.2907 17.0301C15.4198 17.1048 15.5789 17.1048 15.708 17.0301L18.0382 15.6823C18.238 15.5667 18.3058 15.3107 18.1893 15.1114L15.8591 11.1232Z" fill="#353566"/>
<path d="M12.9071 16.5556C12.8578 16.4822 12.9416 16.3927 13.018 16.437L15.3428 17.7824C15.4396 17.8384 15.559 17.8384 15.6558 17.7824L17.9821 16.4368C18.0586 16.3925 18.1423 16.4821 18.093 16.5554L15.8452 19.8991C15.68 20.1448 15.3186 20.1447 15.1535 19.8991L12.9071 16.5556Z" fill="#353566"/>
<path fill-rule="evenodd" clip-rule="evenodd" d="M9.02269 18.4881C9.06934 18.486 9.11421 18.4776 9.1565 18.4636C10.2724 20.8482 12.6933 22.5 15.5 22.5C19.366 22.5 22.5 19.366 22.5 15.5C22.5 11.634 19.366 8.5 15.5 8.5L15.5 6C15.5 4.65704 14.6173 3.52053 13.3583 2.74574C12.0911 1.96598 10.3722 1.5 8.50001 1.5C6.62778 1.5 4.90887 1.96598 3.64177 2.74574C2.38367 3.51996 1.50131 4.65537 1.50001 5.99704L1.5 6.00055V14.1176C1.5 15.4354 2.39154 16.542 3.64742 17.2921C4.9136 18.0484 6.63043 18.5 8.5 18.5C8.6758 18.5 8.85011 18.496 9.02269 18.4881ZM8.50001 2.5C10.2176 2.5 11.7487 2.92945 12.8342 3.5974C13.9277 4.27034 14.5 5.13382 14.5 6L14.5 6.00194C14.4992 6.86747 13.9269 7.73017 12.8342 8.4026C11.7487 9.07056 10.2176 9.5 8.50001 9.5C6.78238 9.5 5.25129 9.07055 4.16586 8.4026C3.07235 7.72966 2.50001 6.86618 2.50001 6C2.50001 5.13382 3.07235 4.27034 4.16586 3.5974C5.25129 2.92945 6.78238 2.5 8.50001 2.5ZM14.5 8.33616C14.4092 8.43307 14.3132 8.5271 14.2126 8.61813C14.3078 8.60045 14.4036 8.58468 14.5 8.57089V8.33616ZM8.50001 10.5C9.33467 10.5 10.1389 10.4074 10.8861 10.2356C9.90888 11.0928 9.17234 12.2178 8.7911 13.4959C8.69465 13.4986 8.5976 13.5 8.5 13.5C6.77972 13.5 5.24655 13.0824 4.1602 12.4336C3.06394 11.7788 2.50042 10.9445 2.5 10.1185L2.5 8.33616C2.82276 8.68053 3.21015 8.98865 3.64177 9.25426C4.90887 10.034 6.62778 10.5 8.50001 10.5ZM8.5 14.5L8.57093 14.4997C8.52419 14.8264 8.50001 15.1604 8.50001 15.5C8.50001 16.1935 8.60086 16.8635 8.7887 17.496C8.69304 17.4986 8.59679 17.5 8.5 17.5C6.77972 17.5 5.24655 17.0824 4.1602 16.4336C3.06354 15.7786 2.5 14.9439 2.5 14.1176L2.5 12.3951C2.82476 12.7325 3.21444 13.0335 3.64742 13.2921C4.9136 14.0484 6.63043 14.5 8.5 14.5ZM21.5 15.5C21.5 12.1863 18.8137 9.5 15.5 9.5C12.1863 9.5 9.50001 12.1863 9.50001 15.5C9.50001 18.8137 12.1863 21.5 15.5 21.5C18.8137 21.5 21.5 18.8137 21.5 15.5Z" fill="#353566"/>
</svg>
