<svg width="24" height="24" viewBox="0 0 24 24" fill="none" xmlns="http://www.w3.org/2000/svg">
<path opacity="0.4" d="M8.1 5.5H16.9C18.8602 5.5 19.8403 5.5 20.589 5.88148C21.2475 6.21703 21.783 6.75247 22.1185 7.41103C22.5 8.15972 22.5 9.13982 22.5 11.1V15.4C22.5 17.3602 22.5 18.3403 22.1185 19.089C21.783 19.7475 21.2475 20.283 20.589 20.6185C19.8403 21 18.8602 21 16.9 21H8.81495C8.93571 20.6653 9.00033 20.3023 9.00033 19.9183C9.00033 18.7515 8.32473 17.7699 7.50008 17C7.80008 17 8.41852 16.4958 8.69618 16.1291C9.19628 15.4686 9.06629 14.5278 8.40584 14.0277C7.82543 13.5882 7.20427 13.1596 6.50008 12.9473C6.48114 12.1568 5.79196 11.5001 5.00028 11.5001C4.22046 11.5001 3.50406 12.1551 3.50008 12.9435C3.15093 13.0545 2.81073 13.203 2.5 13.3983V11.1C2.5 9.13982 2.5 8.15972 2.88148 7.41103C3.21703 6.75247 3.75247 6.21703 4.41103 5.88148C5.15972 5.5 6.13982 5.5 8.1 5.5Z" fill="#353566"/>
<path fill-rule="evenodd" clip-rule="evenodd" d="M3.00003 11.0998C3.00003 10.1115 3.00041 9.40032 3.04605 8.84177C3.09121 8.28906 3.17817 7.92999 3.32701 7.63788C3.61463 7.07339 4.07357 6.61445 4.63805 6.32683C4.93017 6.17799 5.28924 6.09103 5.84195 6.04587C6.4005 6.00024 7.11168 5.99985 8.10003 5.99985H16.9C17.8884 5.99985 18.5996 6.00024 19.1581 6.04587C19.7108 6.09103 20.0699 6.17799 20.362 6.32683C20.9265 6.61445 21.3854 7.07339 21.673 7.63788C21.8219 7.92999 21.9088 8.28906 21.954 8.84177C21.9996 9.40032 22 10.1115 22 11.0998V15.3998C22 16.3882 21.9996 17.0994 21.954 17.6579C21.9088 18.2106 21.8219 18.5697 21.673 18.8618C21.3854 19.4263 20.9265 19.8852 20.362 20.1729C20.0699 20.3217 19.7108 20.4087 19.1581 20.4538C18.5996 20.4995 17.8884 20.4998 16.9 20.4998H8.94896C8.88388 20.8604 8.75843 21.1962 8.58112 21.4998H16.9225C17.8836 21.4999 18.6355 21.4999 19.2395 21.4505C19.8541 21.4003 20.3594 21.2965 20.816 21.0639C21.5686 20.6804 22.1806 20.0685 22.5641 19.3158C22.7967 18.8592 22.9005 18.3539 22.9507 17.7394C23 17.1353 23 16.3834 23 15.4223V11.0774C23 10.1163 23 9.36436 22.9507 8.76034C22.9005 8.14579 22.7967 7.64047 22.5641 7.18389C22.1806 6.43124 21.5686 5.81932 20.816 5.43582C20.4256 5.2369 19.9995 5.13219 19.5 5.07463V4.18161C19.5 3.53912 19.5 3.02289 19.4632 2.61462C19.4258 2.19884 19.3461 1.82971 19.1425 1.51309C18.8295 1.0265 18.3412 0.679141 17.7789 0.54316C17.413 0.454678 17.0381 0.500493 16.6331 0.601499C16.2353 0.700684 15.7477 0.870034 15.1407 1.08083L5.98956 4.25879C4.74027 4.6924 3.97955 4.95644 3.40725 5.44361C2.90248 5.87328 2.51242 6.42166 2.27211 7.03945C1.99966 7.7399 1.99979 8.54513 2.00001 9.86755L2.00003 13.7796C2.09676 13.6902 2.19955 13.6061 2.30798 13.5276C2.52353 13.3715 2.75681 13.241 3.00003 13.1326V11.0998ZM16.875 1.57179C16.5262 1.65877 16.0811 1.81282 15.4455 2.03357L6.89058 5.00448C7.24684 4.99985 7.64059 4.99985 8.07757 4.99985H16.9225C17.5257 4.99985 18.0465 4.99985 18.5 5.01204V4.20628C18.5 3.5334 18.4995 3.06243 18.4673 2.70437C18.4352 2.34861 18.3759 2.16981 18.3014 2.05399C18.1275 1.78367 17.8562 1.59069 17.5438 1.51514C17.41 1.48278 17.2216 1.48536 16.875 1.57179Z" fill="#353566"/>
<path d="M2.50008 18.9998C2.44694 18.9998 2.38384 19.0156 2.31441 19.0436C2.2687 18.9258 2.22992 18.8043 2.19697 18.6782C2.29551 18.7871 2.39698 18.8941 2.50008 18.9998Z" fill="#353566"/>
<path d="M18.5 12.2498C17.9477 12.2498 17.5 12.6976 17.5 13.2498C17.5 13.8021 17.9477 14.2498 18.5 14.2498C19.0523 14.2498 19.5001 13.8021 19.5001 13.2498C19.5001 12.6976 19.0523 12.2498 18.5 12.2498Z" fill="#353566"/>
<path d="M5.5 13.7708C5.82889 13.801 6.12945 13.8671 6.43437 13.988C6.87486 14.1627 7.29405 14.4404 7.80187 14.8249C8.02202 14.9916 8.06535 15.3052 7.89865 15.5254C7.73195 15.7455 7.41835 15.7889 7.1982 15.6222C6.70601 15.2495 6.3752 15.0404 6.06569 14.9176C5.76786 14.7995 5.46045 14.75 5.00003 14.75C4.32104 14.75 3.80887 14.91 3.48081 15.1476C3.16773 15.3743 3.00003 15.6843 3.00003 16.0817C3.00003 16.573 3.23564 16.8639 3.61926 17.0786C4.03446 17.311 4.57905 17.4229 5.08223 17.5068C5.57906 17.5896 6.28447 17.7214 6.86926 18.0488C7.48565 18.3938 8.00003 18.9788 8.00003 19.9183C8.00003 20.6495 7.66774 21.2554 7.10581 21.6623C6.6725 21.9761 6.11938 22.1616 5.5 22.2251V23C5.5 23.2761 5.27614 23.5 5 23.5C4.72386 23.5 4.5 23.2761 4.5 23V22.2292C4.17113 22.199 3.87058 22.1329 3.56568 22.0119C3.12519 21.8372 2.70601 21.5596 2.19819 21.175C1.97804 21.0083 1.93471 20.6947 2.10141 20.4746C2.26811 20.2544 2.58171 20.2111 2.80186 20.3778C3.29405 20.7505 3.62487 20.9596 3.93438 21.0824C4.23221 21.2005 4.53962 21.25 5.00003 21.25C5.67902 21.25 6.19119 21.09 6.51925 20.8524C6.83233 20.6257 7.00003 20.3157 7.00003 19.9183C7.00003 19.427 6.76442 19.1361 6.3808 18.9214C5.9656 18.689 5.42101 18.5771 4.91783 18.4932C4.421 18.4104 3.71559 18.2786 3.1308 17.9512C2.51441 17.6062 2.00003 17.0212 2.00003 16.0817C2.00003 15.3505 2.33233 14.7446 2.89425 14.3377C3.32754 14.0239 3.88065 13.8384 4.5 13.7749V13C4.5 12.7239 4.72386 12.5 5 12.5C5.27614 12.5 5.5 12.7239 5.5 13V13.7708Z" fill="#353566"/>
</svg>
