<svg width="24" height="24" viewBox="0 0 24 24" fill="none" xmlns="http://www.w3.org/2000/svg">
<path d="M15.0303 13.0303C14.7374 13.3232 14.2625 13.3232 13.9696 13.0303L11.9999 11.0607L10.0303 13.0303C9.73737 13.3232 9.26249 13.3232 8.9696 13.0303C8.67671 12.7374 8.67671 12.2626 8.9696 11.9697L10.9393 10L8.96964 8.03037C8.67675 7.73748 8.67675 7.2626 8.96964 6.96971C9.26253 6.67682 9.73741 6.67682 10.0303 6.96971L11.9999 8.93934L13.9696 6.9697C14.2625 6.67681 14.7373 6.67681 15.0302 6.9697C15.3231 7.26259 15.3231 7.73747 15.0302 8.03036L13.0606 10L15.0303 11.9697C15.3232 12.2626 15.3232 12.7374 15.0303 13.0303Z" fill="#353566"/>
<path fill-rule="evenodd" clip-rule="evenodd" d="M3.25 10.0001C3.25 5.16766 7.16751 1.25012 12 1.25012C16.8324 1.25012 20.7499 5.16768 20.7499 10.0001C20.7499 14.2079 17.9881 17.2707 16.2124 19.2399L16.0574 19.4118C15.3752 20.1698 13.7978 21.6321 13.007 22.3569C12.4365 22.8799 11.5634 22.8799 10.9929 22.357C10.2022 21.6321 8.62466 20.1698 7.94247 19.4118L7.78067 19.2323C5.92621 17.1755 3.25 14.2074 3.25 10.0001ZM12 2.75012C7.99594 2.75012 4.75 5.99608 4.75 10.0001C4.75 13.6237 7.07627 16.2077 8.98624 18.3293L9.05741 18.4084C9.67866 19.0987 11.1873 20.5002 12 21.2452C12.8126 20.5002 14.3212 19.0987 14.9425 18.4084L15.0091 18.3344C16.8369 16.304 19.2499 13.6236 19.2499 10.0001C19.2499 5.99609 16.004 2.75012 12 2.75012Z" fill="#353566"/>
</svg>
