<svg width="24" height="24" viewBox="0 0 24 24" fill="none" xmlns="http://www.w3.org/2000/svg">
<path d="M1.24951 9.99977C1.24951 14.2034 3.91885 17.1661 5.77047 19.2213L5.94211 19.4118C6.56047 20.0989 7.90963 21.36 8.74086 22.1257C8.93746 22.3068 9.21557 22.3695 9.47089 22.2904C9.72621 22.2114 9.92015 22.0024 9.97997 21.7419L9.98022 21.7408C10.0405 21.4783 9.95544 21.2037 9.75738 21.0213C8.90902 20.2398 7.61874 19.031 7.05764 18.4075L6.93557 18.272C5.03317 16.1601 2.75051 13.5874 2.75051 9.99977C2.75051 5.996 5.99623 2.75027 9.99999 2.75027C14.0037 2.75027 17.2495 5.99602 17.2495 9.99977C17.2495 10.1496 17.2453 10.2977 17.2373 10.4441C17.2226 10.7118 17.3519 10.9671 17.5766 11.1135C17.8012 11.2599 18.087 11.2753 18.326 11.1538L18.327 11.1533C18.5655 11.032 18.7214 10.7929 18.736 10.5258C18.7456 10.3524 18.7505 10.177 18.7505 9.99977C18.7505 5.16705 14.8327 1.24927 9.99999 1.24927C5.16724 1.24927 1.24951 5.16703 1.24951 9.99977Z" fill="#353566"/>
<path fill-rule="evenodd" clip-rule="evenodd" d="M10 6.74976C8.20507 6.74976 6.75 8.20483 6.75 9.99976C6.75 11.7947 8.20507 13.2498 10 13.2498C11.7949 13.2498 13.25 11.7947 13.25 9.99976C13.25 8.20483 11.7949 6.74976 10 6.74976ZM8.25 9.99976C8.25 9.03326 9.0335 8.24976 10 8.24976C10.9665 8.24976 11.75 9.03326 11.75 9.99976C11.75 10.9663 10.9665 11.7498 10 11.7498C9.0335 11.7498 8.25 10.9663 8.25 9.99976Z" fill="#353566"/>
<path fill-rule="evenodd" clip-rule="evenodd" d="M18.7348 12.6539C19.5068 12.1169 20.5313 12.1167 21.3036 12.6533C21.47 12.769 21.6273 12.9264 21.81 13.1092L21.8906 13.1898C22.0736 13.3725 22.2312 13.5297 22.3469 13.6961C22.8841 14.4682 22.8843 15.4931 22.3474 16.2654C22.2317 16.4318 22.0742 16.5891 21.8913 16.7718L15.9076 22.7567C15.8079 22.8564 15.6821 22.926 15.5446 22.9575L12.1674 23.7309C11.9157 23.7885 11.6521 23.7127 11.4696 23.53C11.287 23.3474 11.2113 23.0837 11.269 22.832L12.0433 19.4587C12.0748 19.3214 12.1444 19.1958 12.2439 19.0962L18.2286 13.11C18.4112 12.9271 18.5684 12.7696 18.7348 12.6539ZM20.4476 13.8851C20.1902 13.7062 19.8487 13.7063 19.5913 13.8853C19.5503 13.9138 19.4951 13.9647 19.2491 14.2108L18.7705 14.6896L20.3114 16.2305L20.7902 15.7516C21.0363 15.5054 21.0872 15.4503 21.1158 15.4092C21.2948 15.1518 21.2947 14.8101 21.1156 14.5528C21.0871 14.5117 21.0361 14.4566 20.7899 14.2105C20.5438 13.9645 20.4886 13.9136 20.4476 13.8851ZM19.2508 17.2912L17.71 15.7504L13.4571 20.0043L12.9986 22.0017L14.9994 21.5435L19.2508 17.2912Z" fill="#353566"/>
</svg>
