<svg width="24" height="24" viewBox="0 0 24 24" fill="none" xmlns="http://www.w3.org/2000/svg">
<path d="M5.77047 19.2215C3.91885 17.1664 1.24951 14.2036 1.24951 10C1.24951 5.16727 5.16724 1.24951 9.99999 1.24951C14.8327 1.24951 18.7505 5.16729 18.7505 10L18.7502 10.0671C18.7487 10.2814 18.6556 10.4849 18.4944 10.6261C18.3333 10.7673 18.1195 10.8328 17.9069 10.8061L17.9057 10.806C17.5286 10.7586 17.2466 10.4366 17.2493 10.0566L17.2495 10C17.2495 5.99626 14.0037 2.75051 9.99999 2.75051C5.99623 2.75051 2.75051 5.99625 2.75051 10C2.75051 13.5877 5.03317 16.1604 6.93557 18.2722L7.05764 18.4078C7.67982 19.0991 9.19221 20.504 10.004 21.2482C10.2934 21.2235 10.5713 21.3683 10.7168 21.62L10.7174 21.6209C10.8454 21.8423 10.8518 22.1137 10.7343 22.3409C10.6169 22.568 10.3918 22.7197 10.1371 22.7432C9.73184 22.7807 9.31351 22.6514 8.99259 22.3572C8.20183 21.6324 6.62432 20.1701 5.94211 19.4121L5.77047 19.2215Z" fill="#353566"/>
<path fill-rule="evenodd" clip-rule="evenodd" d="M6.75 10C6.75 8.20507 8.20507 6.75 10 6.75C11.7949 6.75 13.25 8.20507 13.25 10C13.25 11.7949 11.7949 13.25 10 13.25C8.20507 13.25 6.75 11.7949 6.75 10ZM10 8.25C9.0335 8.25 8.25 9.0335 8.25 10C8.25 10.9665 9.0335 11.75 10 11.75C10.9665 11.75 11.75 10.9665 11.75 10C11.75 9.0335 10.9665 8.25 10 8.25Z" fill="#353566"/>
<path fill-rule="evenodd" clip-rule="evenodd" d="M22.75 18C22.75 14.8244 20.1756 12.25 17 12.25C13.8244 12.25 11.25 14.8244 11.25 18C11.25 21.1756 13.8244 23.75 17 23.75C20.1756 23.75 22.75 21.1756 22.75 18ZM17 13.75C19.3472 13.75 21.25 15.6528 21.25 18C21.25 18.9027 20.9686 19.7397 20.4886 20.428L14.572 14.5114C15.2603 14.0314 16.0973 13.75 17 13.75ZM17 22.25C17.9027 22.25 18.7397 21.9686 19.428 21.4886L13.5114 15.572C13.0314 16.2603 12.75 17.0973 12.75 18C12.75 20.3472 14.6528 22.25 17 22.25Z" fill="#353566"/>
</svg>
