<svg width="24" height="24" viewBox="0 0 24 24" fill="none" xmlns="http://www.w3.org/2000/svg">
<path fill-rule="evenodd" clip-rule="evenodd" d="M19.9331 1.42426C21.6095 0.673709 23.3263 2.39045 22.5757 4.06691L14.7438 21.5605C13.9167 23.4079 11.1833 22.9985 10.9337 20.9899L10.0818 14.1354C10.0677 14.0218 9.9782 13.9323 9.86457 13.9181L3.01009 13.0663C1.00147 12.8167 0.592121 10.0832 2.4395 9.25616L19.9331 1.42426ZM21.2067 3.45398C21.3943 3.03487 20.9651 2.60568 20.546 2.79332L3.05243 10.6252C2.59059 10.832 2.69292 11.5153 3.19508 11.5778L10.0496 12.4296C10.845 12.5284 11.4715 13.155 11.5704 13.9504L12.4222 20.8049C12.4846 21.3071 13.168 21.4094 13.3748 20.9476L21.2067 3.45398Z" fill="#353566"/>
</svg>
