<svg width="24" height="24" viewBox="0 0 24 24" fill="none" xmlns="http://www.w3.org/2000/svg">
<g clip-path="url(#clip0_9001_303997)">
<path d="M4.78545 1.72108C4.48737 1.57948 4.15367 1.5 3.8 1.5C2.52974 1.5 1.5 2.52975 1.5 3.8C1.5 4.15367 1.57948 4.48737 1.72108 4.78545C1.83957 5.03488 1.73343 5.33314 1.484 5.45163C1.23457 5.57012 0.936312 5.46397 0.817821 5.21455C0.613872 4.78522 0.5 4.30521 0.5 3.8C0.5 1.97746 1.97746 0.5 3.8 0.5C4.30521 0.5 4.78522 0.613873 5.21455 0.817822C5.46397 0.936313 5.57012 1.23457 5.45163 1.484C5.33314 1.73343 5.03488 1.83957 4.78545 1.72108Z" fill="#353566"/>
<path d="M18.2 1.5C17.8463 1.5 17.5126 1.57948 17.2145 1.72108C16.9651 1.83957 16.6668 1.73343 16.5484 1.484C16.4299 1.23457 16.536 0.936313 16.7854 0.817822C17.2148 0.613873 17.6948 0.5 18.2 0.5C20.0225 0.5 21.5 1.97746 21.5 3.8C21.5 4.30521 21.3861 4.78522 21.1822 5.21455C21.0637 5.46397 20.7654 5.57012 20.516 5.45163C20.2666 5.33314 20.1604 5.03488 20.2789 4.78545C20.4205 4.48737 20.5 4.15367 20.5 3.8C20.5 2.52975 19.4702 1.5 18.2 1.5Z" fill="#353566"/>
<path d="M2.49999 11.5C2.49999 6.80558 6.30557 3 11 3C15.6944 3 19.5 6.80558 19.5 11.5C19.5 12.0378 19.4501 12.5635 19.3549 13.0729C19.3041 13.3443 19.483 13.6055 19.7544 13.6562C20.0259 13.707 20.287 13.5281 20.3378 13.2567C20.4444 12.687 20.5 12.0998 20.5 11.5C20.5 6.25329 16.2467 2 11 2C5.75329 2 1.49999 6.25329 1.49999 11.5C1.49999 14.0707 2.52105 16.4029 4.17972 18.1132L1.64644 20.6464C1.45118 20.8417 1.45118 21.1583 1.64644 21.3536C1.8417 21.5488 2.15829 21.5488 2.35355 21.3536L4.91304 18.7941C6.56152 20.1712 8.68397 21 11 21C11.1358 21 11.271 20.9971 11.4055 20.9915C11.6814 20.9799 11.8956 20.7468 11.884 20.4709C11.8724 20.195 11.6394 19.9808 11.3635 19.9924C11.243 19.9974 11.1218 20 11 20C6.30557 20 2.49999 16.1944 2.49999 11.5Z" fill="#353566"/>
<path d="M11 6C11.2761 6 11.5 6.22386 11.5 6.5V11.5C11.5 11.7761 11.2761 12 11 12C10.7239 12 10.5 11.7761 10.5 11.5V6.5C10.5 6.22386 10.7239 6 11 6Z" fill="#353566"/>
<path d="M13.3403 18.3295C14.5628 17.1938 16.1995 16.5 17.9993 16.5C19.7998 16.5 21.437 17.1943 22.6596 18.3307C22.8619 18.5187 23.1782 18.5071 23.3662 18.3049C23.5542 18.1026 23.5427 17.7862 23.3404 17.5982C21.9401 16.2967 20.0622 15.5 17.9993 15.5C15.9372 15.5 14.0598 16.2961 12.6597 17.5969C12.4574 17.7849 12.4457 18.1012 12.6337 18.3035C12.8216 18.5058 13.138 18.5175 13.3403 18.3295Z" fill="#353566"/>
<path d="M18.0032 19.8333C17.1459 19.8333 16.3645 20.1949 15.7897 20.7913C15.5981 20.9902 15.2815 20.996 15.0827 20.8044C14.8839 20.6127 14.878 20.2962 15.0697 20.0974C15.8194 19.3195 16.8553 18.8333 18.0032 18.8333C19.1511 18.8333 20.187 19.3195 20.9368 20.0974C21.1284 20.2962 21.1225 20.6127 20.9237 20.8044C20.7249 20.996 20.4084 20.9902 20.2167 20.7913C19.6419 20.1949 18.8605 19.8333 18.0032 19.8333Z" fill="#353566"/>
<path d="M18 21.625C17.5167 21.625 17.125 22.0168 17.125 22.5C17.125 22.9832 17.5167 23.375 18 23.375C18.4832 23.375 18.8751 22.9832 18.8751 22.5C18.8751 22.0168 18.4832 21.625 18 21.625Z" fill="#353566"/>
</g>
<defs>
<clipPath id="clip0_9001_303997">
<rect width="24" height="24" fill="white"/>
</clipPath>
</defs>
</svg>
