<svg width="24" height="24" viewBox="0 0 24 24" fill="none" xmlns="http://www.w3.org/2000/svg">
<path fill-rule="evenodd" clip-rule="evenodd" d="M3.44373 5.92315C3.26767 5.03759 3.32605 4.08838 3.45675 2.5H2C1.72386 2.5 1.5 2.27614 1.5 2C1.5 1.72386 1.72386 1.5 2 1.5H18C18.2761 1.5 18.5 1.72386 18.5 2C18.5 2.27614 18.2761 2.5 18 2.5H16.5433C16.674 4.08838 16.7324 5.03759 16.5563 5.92315C16.3075 7.17468 15.7213 8.3344 14.8611 9.27692C14.1973 10.0043 13.3072 10.552 11.7143 11.5321L10.9515 12.0015C11.1525 12.1556 11.2083 12.4398 11.0727 12.6602C10.928 12.8953 10.62 12.9687 10.3849 12.8239L10 12.5871L8.88971 13.2703C7.19511 14.3132 6.43494 14.7864 5.87753 15.3972C5.14023 16.2051 4.63779 17.1991 4.42452 18.2719C4.27627 19.0175 4.3233 19.8323 4.46027 21.5L9 21.5L9.00197 21.5H9.99803L10 21.5L13.0602 21.5C13.0947 21.5 13.1284 21.5035 13.161 21.5102C13.3888 21.5568 13.5602 21.7584 13.5602 22C13.5602 22.0345 13.5567 22.0682 13.55 22.1008C13.5034 22.3286 13.3018 22.5 13.0602 22.5L2 22.5C1.72386 22.5 1.5 22.2761 1.5 22C1.5 21.7239 1.72386 21.5 2 21.5H3.45674C3.32604 19.9116 3.26766 18.9624 3.44372 18.0769C3.69253 16.8253 4.27871 15.6656 5.13889 14.7231C5.80269 13.9957 6.69281 13.448 8.28569 12.4679L9.04599 12L8.2857 11.5321C6.69282 10.552 5.8027 10.0043 5.1389 9.27692C4.27873 8.3344 3.69255 7.17468 3.44373 5.92315ZM15.5397 2.5H4.46029C4.32331 4.16771 4.27628 4.98247 4.42454 5.72816C4.63781 6.8009 5.14025 7.79494 5.87754 8.60282C6.43495 9.21359 7.19512 9.68682 8.88973 10.7297L10 11.4129L11.1103 10.7297C12.8049 9.68682 13.5651 9.21359 14.1225 8.60282C14.8598 7.79494 15.3622 6.8009 15.5755 5.72816C15.7237 4.98247 15.6767 4.16771 15.5397 2.5Z" fill="#353566"/>
<path fill-rule="evenodd" clip-rule="evenodd" d="M11.5 16.125C11.5 13.5707 13.5707 11.5 16.125 11.5C18.6793 11.5 20.75 13.5707 20.75 16.125C20.75 17.222 20.368 18.2299 19.7299 19.0228L22.3535 21.6465C22.5488 21.8417 22.5488 22.1583 22.3535 22.3536C22.1582 22.5488 21.8416 22.5488 21.6464 22.3535L19.0228 19.7299C18.2299 20.368 17.222 20.75 16.125 20.75C13.5707 20.75 11.5 18.6793 11.5 16.125ZM16.125 12.5C14.123 12.5 12.5 14.123 12.5 16.125C12.5 18.127 14.123 19.75 16.125 19.75C18.127 19.75 19.75 18.127 19.75 16.125C19.75 14.123 18.127 12.5 16.125 12.5Z" fill="#353566"/>
</svg>
