<svg width="24" height="24" viewBox="0 0 24 24" fill="none" xmlns="http://www.w3.org/2000/svg">
<path fill-rule="evenodd" clip-rule="evenodd" d="M3.45669 2.5C3.32599 4.08838 3.26761 5.03759 3.44367 5.92315C3.69249 7.17468 4.27867 8.3344 5.13884 9.27692C5.80264 10.0043 6.69276 10.552 8.28564 11.5321L9.04596 12L8.28569 12.4679C6.69281 13.448 5.80269 13.9957 5.13889 14.7231C4.27871 15.6656 3.69253 16.8253 3.44372 18.0769C3.26766 18.9624 3.32604 19.9116 3.45674 21.5H2C1.72386 21.5 1.5 21.7239 1.5 22C1.5 22.2761 1.72386 22.5 2 22.5H16.2564C16.5326 22.5 16.7564 22.2761 16.7564 22C16.7564 21.7636 16.5924 21.5655 16.3719 21.5134C16.2906 21.4288 16.1793 21.3724 16.0531 21.3619C15.904 21.3494 15.7648 21.4038 15.6648 21.5L10 21.5L9.99803 21.5H9.00197L9 21.5L4.46027 21.5C4.3233 19.8323 4.27627 19.0175 4.42452 18.2719C4.63779 17.1991 5.14023 16.2051 5.87753 15.3972C6.43494 14.7864 7.19511 14.3132 8.88971 13.2703L10 12.5871L11.2783 13.3737C11.5134 13.5185 11.8214 13.4452 11.9662 13.2101C12.1109 12.9749 12.0377 12.6669 11.8025 12.5222L10.954 12L11.7143 11.5321C13.3071 10.552 14.1973 10.0043 14.8611 9.27692C15.7212 8.3344 16.3074 7.17468 16.5562 5.92315C16.7323 5.03759 16.6739 4.08838 16.5432 2.5H18C18.2761 2.5 18.5 2.27614 18.5 2C18.5 1.72386 18.2761 1.5 18 1.5H2C1.72386 1.5 1.5 1.72386 1.5 2C1.5 2.27614 1.72386 2.5 2 2.5H3.45669ZM15.5397 2.5C15.6767 4.16771 15.7237 4.98247 15.5754 5.72816C15.3622 6.8009 14.8597 7.79494 14.1224 8.60282C13.565 9.21359 12.8049 9.68682 11.1102 10.7297L9.99995 11.4129L8.88966 10.7297C7.19506 9.68682 6.43489 9.21359 5.87748 8.60282C5.14019 7.79494 4.63775 6.8009 4.42447 5.72816C4.27622 4.98247 4.32325 4.16771 4.46023 2.5H15.5397Z" fill="#353566"/>
<path fill-rule="evenodd" clip-rule="evenodd" d="M13.5 15C12.3954 15 11.5 15.8954 11.5 17C11.5 18.1046 12.3954 19 13.5 19C14.0173 19 14.4887 18.8036 14.8438 18.4813L18.509 20.3139C18.5034 20.3752 18.5005 20.4372 18.5005 20.5C18.5005 21.6046 19.3959 22.5 20.5005 22.5C21.6051 22.5 22.5005 21.6046 22.5005 20.5C22.5005 19.3954 21.6051 18.5 20.5005 18.5C19.8164 18.5 19.2126 18.8434 18.8519 19.3673L15.3957 17.6392C15.4633 17.4385 15.5 17.2235 15.5 17C15.5 16.7765 15.4633 16.5615 15.3957 16.3608L18.8519 14.6327C19.2126 15.1566 19.8164 15.5 20.5005 15.5C21.6051 15.5 22.5005 14.6046 22.5005 13.5C22.5005 12.3954 21.6051 11.5 20.5005 11.5C19.3959 11.5 18.5005 12.3954 18.5005 13.5C18.5005 13.5628 18.5034 13.6248 18.509 13.6861L14.8438 15.5187C14.4888 15.1964 14.0173 15 13.5 15ZM12.5 17C12.5 16.4477 12.9477 16 13.5 16C14.0523 16 14.5 16.4477 14.5 17C14.5 17.5523 14.0523 18 13.5 18C12.9477 18 12.5 17.5523 12.5 17ZM20.5005 12.5C19.9482 12.5 19.5005 12.9477 19.5005 13.5C19.5005 14.0523 19.9482 14.5 20.5005 14.5C21.0528 14.5 21.5005 14.0523 21.5005 13.5C21.5005 12.9477 21.0528 12.5 20.5005 12.5ZM19.5005 20.5C19.5005 19.9477 19.9482 19.5 20.5005 19.5C21.0528 19.5 21.5005 19.9477 21.5005 20.5C21.5005 21.0523 21.0528 21.5 20.5005 21.5C19.9482 21.5 19.5005 21.0523 19.5005 20.5Z" fill="#353566"/>
</svg>
