<svg width="24" height="24" viewBox="0 0 24 24" fill="none" xmlns="http://www.w3.org/2000/svg">
<path d="M13.75 10C13.9394 10 14.1125 10.107 14.1972 10.2764C14.2819 10.4457 14.2636 10.6484 14.1501 10.7998L14.1495 10.8007L14.1458 10.8056L14.1294 10.8281C14.1145 10.8486 14.092 10.88 14.0629 10.9215C14.0048 11.0045 13.9206 11.128 13.819 11.286C13.6156 11.6025 13.3438 12.0554 13.0722 12.5986C12.5239 13.6953 12 15.1133 12 16.5C12 16.7761 11.7761 17 11.5 17C11.2239 17 11 16.7761 11 16.5C11 14.8867 11.6011 13.3047 12.1778 12.1514C12.4023 11.7024 12.6267 11.3113 12.8178 11H10.25C9.97386 11 9.75 10.7761 9.75 10.5C9.75 10.2239 9.97386 10 10.25 10H13.75Z" fill="#353566"/>
<path fill-rule="evenodd" clip-rule="evenodd" d="M12.5 2V4.01293C14.6209 4.12291 16.5579 4.92851 18.087 6.20594L19.6465 4.64645C19.8417 4.45118 20.1583 4.45118 20.3536 4.64645C20.5488 4.84171 20.5488 5.15829 20.3536 5.35355L18.8203 6.88684C20.479 8.59713 21.5 10.9293 21.5 13.5C21.5 18.7467 17.2467 23 12 23C6.75329 23 2.5 18.7467 2.5 13.5C2.5 8.42101 6.48572 4.27294 11.5 4.01293V2H9C8.72386 2 8.5 1.77614 8.5 1.5C8.5 1.22386 8.72386 1 9 1H15C15.2761 1 15.5 1.22386 15.5 1.5C15.5 1.77614 15.2761 2 15 2H12.5ZM3.5 13.5C3.5 8.80558 7.30558 5 12 5C16.6944 5 20.5 8.80558 20.5 13.5C20.5 18.1944 16.6944 22 12 22C7.30558 22 3.5 18.1944 3.5 13.5Z" fill="#353566"/>
</svg>
