<svg width="24" height="24" viewBox="0 0 24 24" fill="none" xmlns="http://www.w3.org/2000/svg">
<path d="M12 2.5C14.1392 2.5 16.112 3.20648 17.6997 4.39907C18.3472 4.88541 19.0711 5.6069 19.7047 6.33867C20.0576 6.74632 20.3736 7.14673 20.627 7.5H16.5C16.2238 7.5 16 7.72386 16 8C16 8.27614 16.2238 8.5 16.5 8.5H21.5328C21.5394 8.50013 21.5459 8.50013 21.5524 8.5H22C22.2761 8.5 22.5 8.27614 22.5 8V2.5C22.5 2.22386 22.2761 2 22 2C21.7238 2 21.5 2.22386 21.5 2.5V7.00218C21.2105 6.59144 20.8511 6.135 20.4607 5.6841C19.802 4.92335 19.0259 4.14448 18.3003 3.5995C16.5454 2.28131 14.3632 1.5 12 1.5C6.20101 1.5 1.5 6.20101 1.5 12C1.5 17.799 6.20101 22.5 12 22.5C16.7023 22.5 20.6814 19.4093 22.0192 15.1498C22.102 14.8864 21.9555 14.6057 21.692 14.523C21.4286 14.4402 21.1479 14.5867 21.0652 14.8502C19.8545 18.7049 16.253 21.5 12 21.5C6.75329 21.5 2.5 17.2467 2.5 12C2.5 6.75329 6.75329 2.5 12 2.5Z" fill="#353566"/>
<path d="M8.07294 9.883C8.29084 9.63896 8.58039 9.5 8.99997 9.5C9.82818 9.5 10.2492 10.0738 10.25 10.5985L10.2498 10.6202C10.2452 10.9378 10.0701 11.2172 9.70316 11.5312C9.52117 11.6869 9.31015 11.8356 9.07884 11.9924C9.03356 12.0231 8.98715 12.0544 8.94005 12.0861C8.75478 12.2108 8.55846 12.3429 8.37908 12.4771C8.21929 12.5967 8.05733 12.7355 7.89642 12.8964C7.351 13.4419 7.06214 13.9358 6.91073 14.3143C6.83534 14.5028 6.79505 14.6601 6.77366 14.7777C6.76298 14.8365 6.75706 14.8851 6.7538 14.9225C6.75218 14.9412 6.75122 14.9571 6.75067 14.9701L6.75011 14.9873L6.75 14.9942L6.74998 14.9973L6.74997 14.9987L6.74997 15C6.74999 15.0002 6.75115 15.0002 6.81245 15.0001L7.24997 15H6.74997C6.74997 15.2761 6.97383 15.5 7.24997 15.5H11C11.2761 15.5 11.5 15.2761 11.5 15C11.5 14.7239 11.2761 14.5 11 14.5H7.92413C8.04489 14.2644 8.25101 13.9561 8.60353 13.6036C8.7304 13.4767 8.85623 13.3691 8.97827 13.2778C9.13559 13.16 9.30425 13.0465 9.48677 12.9236C9.53679 12.8899 9.58785 12.8555 9.64 12.8201C9.87467 12.661 10.1257 12.4858 10.3533 12.291C10.8052 11.9043 11.2401 11.3764 11.2498 10.6317L11.25 10.6033V10.6C11.25 9.52511 10.3837 8.5 8.99997 8.5C8.31956 8.5 7.75006 8.74315 7.327 9.217C7.05695 9.51945 6.74997 9.98744 6.74997 10.7C6.74997 10.9761 6.97383 11.2 7.24997 11.2C7.52611 11.2 7.74997 10.9761 7.74997 10.7C7.74997 10.3126 7.90449 10.0717 8.07294 9.883Z" fill="#353566"/>
<path d="M15.75 10.8999C16.0261 10.8999 16.25 11.1238 16.25 11.3999V12.7001H16.75C17.0261 12.7001 17.25 12.924 17.25 13.2001C17.25 13.4763 17.0261 13.7001 16.75 13.7001H16.25V14.9999C16.25 15.2761 16.0261 15.4999 15.75 15.4999C15.4738 15.4999 15.25 15.2761 15.25 14.9999V13.7001H12.75C12.5921 13.7001 12.4435 13.6256 12.3492 13.499C12.2548 13.3725 12.2257 13.2088 12.2707 13.0575L13.5208 8.8575C13.5995 8.59283 13.8779 8.44213 14.1426 8.52091C14.4073 8.59968 14.558 8.87809 14.4792 9.14276L13.4205 12.7001H15.25V11.3999C15.25 11.1238 15.4738 10.8999 15.75 10.8999Z" fill="#353566"/>
</svg>
