<svg width="24" height="24" viewBox="0 0 24 24" fill="none" xmlns="http://www.w3.org/2000/svg">
<path opacity="0.4" d="M22.75 22C22.75 22.4142 22.4142 22.75 22 22.75H13.2454C12.9569 22.75 12.6941 22.5846 12.5692 22.3246C12.4444 22.0645 12.4798 21.756 12.6602 21.5309C13.6553 20.2896 14.25 18.7153 14.25 17C14.25 12.9959 11.0041 9.75 7 9.75C6.03718 9.75 5.11995 9.93729 4.28141 10.2767C4.05022 10.3703 3.78763 10.3428 3.58081 10.2034C3.37399 10.064 3.25 9.83093 3.25 9.58152V5.5C3.25 3.15279 5.15279 1.25 7.5 1.25H20.5C21.7426 1.25 22.75 2.25736 22.75 3.5V15.5C22.75 16.6581 21.875 17.6119 20.75 17.7363V21.25H22C22.4142 21.25 22.75 21.5858 22.75 22Z" fill="#353566"/>
<path fill-rule="evenodd" clip-rule="evenodd" d="M7 11.25C3.82436 11.25 1.25 13.8244 1.25 17C1.25 20.1756 3.82436 22.75 7 22.75C10.1756 22.75 12.75 20.1756 12.75 17C12.75 13.8244 10.1756 11.25 7 11.25ZM8.05817 18.9419C8.30225 19.186 8.69798 19.186 8.94205 18.9419C9.18613 18.6979 9.18613 18.3021 8.94205 18.0581L7.88393 17L8.94194 15.9419C9.18602 15.6979 9.18602 15.3021 8.94194 15.0581C8.69786 14.814 8.30214 14.814 8.05806 15.0581L7.00004 16.1161L5.94199 15.0581C5.69791 14.814 5.30218 14.814 5.05811 15.0581C4.81403 15.3021 4.81404 15.6979 5.05812 15.9419L6.11615 17L5.05806 18.0581C4.81398 18.3021 4.81398 18.6979 5.05806 18.9419C5.30214 19.186 5.69786 19.186 5.94194 18.9419L7.00004 17.8838L8.05817 18.9419Z" fill="#353566"/>
<path d="M14.9653 17.75L14.9587 17.818C14.8337 19.0492 14.4294 20.198 13.8102 21.1998L13.779 21.25H19.25V17.75H14.9653Z" fill="#353566"/>
</svg>
