<svg width="24" height="24" viewBox="0 0 24 24" fill="none" xmlns="http://www.w3.org/2000/svg">
<g opacity="0.4">
<path d="M11.25 2.92403C11.25 2.78637 11.1563 2.66638 11.0228 2.63299L5.73507 1.31107C4.47278 0.995493 3.25 1.95021 3.25 3.25135V15.8292C3.25 16.8617 3.95267 17.7616 4.95429 18.012L10.8772 19.4928C11.0666 19.5401 11.25 19.3969 11.25 19.2017V2.92403Z" fill="#353566"/>
<path d="M12.75 19.2017C12.75 19.3969 12.9334 19.5401 13.1228 19.4928L19.0457 18.012C20.0473 17.7616 20.75 16.8617 20.75 15.8292V3.25135C20.75 1.95021 19.5272 0.995493 18.2649 1.31107L12.9772 2.63299C12.8437 2.66638 12.75 2.78637 12.75 2.92403V19.2017Z" fill="#353566"/>
</g>
<path d="M1 2.75049C1.41421 2.75049 1.75 3.08627 1.75 3.50049V17.3488C1.75 18.1498 2.29386 18.8486 3.07036 19.0453L11.5704 21.198C11.8523 21.2694 12.1477 21.2694 12.4296 21.198L20.9296 19.0453C21.7061 18.8486 22.25 18.1498 22.25 17.3488V3.50049C22.25 3.08627 22.5858 2.75049 23 2.75049C23.4142 2.75049 23.75 3.08627 23.75 3.50049V17.3488C23.75 18.8364 22.74 20.1341 21.2979 20.4994L12.7979 22.6521C12.2742 22.7847 11.7258 22.7847 11.2021 22.6521L2.70209 20.4994C1.26002 20.1341 0.25 18.8364 0.25 17.3488V3.50049C0.25 3.08627 0.585786 2.75049 1 2.75049Z" fill="#353566"/>
<path d="M18.7277 9.82298C18.8281 10.2248 18.5838 10.632 18.182 10.7325L15.182 11.4825C14.7801 11.5829 14.3729 11.3386 14.2724 10.9368C14.172 10.5349 14.4163 10.1277 14.8182 10.0273L17.8182 9.27727C18.22 9.17681 18.6272 9.42113 18.7277 9.82298Z" fill="#353566"/>
<path d="M18.182 13.7325C18.5838 13.632 18.8281 13.2248 18.7277 12.823C18.6272 12.4211 18.22 12.1768 17.8182 12.2773L14.8182 13.0273C14.4163 13.1277 14.172 13.5349 14.2724 13.9368C14.3729 14.3386 14.7801 14.5829 15.182 14.4825L18.182 13.7325Z" fill="#353566"/>
<path d="M18.7277 6.82298C18.8281 7.22482 18.5838 7.63202 18.182 7.73248L15.182 8.48248C14.7801 8.58295 14.3729 8.33862 14.2724 7.93678C14.172 7.53493 14.4163 7.12773 14.8182 7.02727L17.8182 6.27727C18.22 6.17681 18.6272 6.42113 18.7277 6.82298Z" fill="#353566"/>
<path d="M5.81804 10.7325C5.4162 10.632 5.17188 10.2248 5.27234 9.82298C5.3728 9.42113 5.78 9.17681 6.18185 9.27727L9.18185 10.0273C9.58369 10.1277 9.82801 10.5349 9.72755 10.9368C9.62709 11.3386 9.21989 11.5829 8.81804 11.4825L5.81804 10.7325Z" fill="#353566"/>
<path d="M5.27234 12.823C5.17188 13.2248 5.4162 13.632 5.81804 13.7325L8.81804 14.4825C9.21989 14.5829 9.62709 14.3386 9.72755 13.9368C9.82801 13.5349 9.58369 13.1277 9.18185 13.0273L6.18185 12.2773C5.78 12.1768 5.3728 12.4211 5.27234 12.823Z" fill="#353566"/>
<path d="M5.81804 7.73248C5.4162 7.63202 5.17188 7.22482 5.27234 6.82298C5.3728 6.42113 5.78 6.17681 6.18185 6.27727L9.18185 7.02727C9.58369 7.12773 9.82801 7.53493 9.72755 7.93678C9.62709 8.33862 9.21989 8.58295 8.81804 8.48248L5.81804 7.73248Z" fill="#353566"/>
</svg>
