<svg width="24" height="24" viewBox="0 0 24 24" fill="none" xmlns="http://www.w3.org/2000/svg">
<g opacity="0.4">
<path d="M23.1415 5.90145C22.7984 4.79421 21.6675 4.31785 20.6677 4.54014C19.3311 4.83729 17.0759 5.29625 14.8808 5.55507C15.922 5.78617 16.677 6.81888 16.4537 7.96114L16.4124 8.17233L16.5909 8.29247C17.803 9.10816 17.803 10.8918 16.5909 11.7075L16.4124 11.8277L16.4537 12.0389C16.6496 13.0409 16.0926 13.9586 15.2501 14.3248V14.4902C17.3257 14.7546 19.406 15.1793 20.6677 15.4598C21.6675 15.6821 22.7984 15.2057 23.1415 14.0985C23.431 13.1644 23.75 11.7409 23.75 9.99997C23.75 8.25899 23.431 6.83553 23.1415 5.90145Z" fill="#353566"/>
<path d="M9.11924 5.55507C8.07802 5.78617 7.32302 6.81888 7.54632 7.96114L7.58761 8.17233L7.40908 8.29247C6.19697 9.10816 6.19697 10.8918 7.40908 11.7075L7.58761 11.8277L7.54632 12.0389C7.35043 13.0409 7.90742 13.9587 8.75006 14.3249V14.4902C6.67442 14.7546 4.59402 15.1793 3.33231 15.4598C2.33251 15.6821 1.20161 15.2057 0.85848 14.0985C0.569012 13.1644 0.25 11.7409 0.25 9.99997C0.25 8.25899 0.569012 6.83553 0.85848 5.90145C1.20161 4.79421 2.33251 4.31785 3.33231 4.54014C4.66887 4.83729 6.92413 5.29625 9.11924 5.55507Z" fill="#353566"/>
</g>
<path fill-rule="evenodd" clip-rule="evenodd" d="M13.7075 5.40908C12.8918 4.19697 11.1082 4.19697 10.2925 5.40908L10.1723 5.58761L9.96114 5.54632C8.52726 5.26602 7.26602 6.52726 7.54632 7.96114L7.58761 8.17233L7.40908 8.29247C6.19697 9.10816 6.19697 10.8918 7.40908 11.7075L7.58761 11.8277L7.54632 12.0389C7.35043 13.0409 7.90742 13.9587 8.75006 14.3249V19.0001C8.75006 19.2942 8.92196 19.5612 9.18971 19.6829C9.45746 19.8046 9.77163 19.7586 9.99321 19.5652L12.0104 17.8047L14.0189 19.4845C14.2423 19.6714 14.5537 19.712 14.8176 19.5887C15.0814 19.4654 15.2501 19.2005 15.2501 18.9092V14.3248C16.0926 13.9586 16.6496 13.0409 16.4537 12.0389L16.4124 11.8277L16.5909 11.7075C17.803 10.8918 17.803 9.10816 16.5909 8.29247L16.4124 8.17233L16.4537 7.96114C16.734 6.52726 15.4727 5.26602 14.0389 5.54632L13.8277 5.58761L13.7075 5.40908ZM13.7501 14.5277L13.7075 14.5909C12.8918 15.803 11.1082 15.803 10.2925 14.5909L10.2501 14.5279V17.3501L11.5069 16.2532C11.7849 16.0106 12.1981 16.0063 12.4812 16.243L13.7501 17.3042V14.5277ZM13.75 10C13.75 10.9665 12.9665 11.75 12 11.75C11.0335 11.75 10.25 10.9665 10.25 10C10.25 9.0335 11.0335 8.25 12 8.25C12.9665 8.25 13.75 9.0335 13.75 10Z" fill="#353566"/>
</svg>
