<svg width="24" height="24" viewBox="0 0 24 24" fill="none" xmlns="http://www.w3.org/2000/svg">
<path opacity="0.4" d="M11.75 1.25H6.36821C5.62513 1.24999 5.02197 1.24999 4.53273 1.28996C4.02778 1.33121 3.57851 1.41876 3.16103 1.63148C2.50247 1.96703 1.96703 2.50247 1.63148 3.16103C1.41876 3.57851 1.33121 4.02778 1.28996 4.53273C1.24999 5.02197 1.24999 5.62512 1.25 6.3682V17.6318C1.24999 18.3749 1.24999 18.978 1.28996 19.4673C1.33121 19.9722 1.41876 20.4215 1.63148 20.839C1.96703 21.4975 2.50247 22.033 3.16103 22.3685C3.79982 22.694 4.54478 22.7361 5.49142 22.7469C5.6918 22.7492 5.88477 22.6712 6.02729 22.5303C6.1698 22.3894 6.25 22.1973 6.25 21.9969V16C6.25 15.1976 6.79572 14.498 7.57399 14.3026C8.21872 14.1408 8.8869 14.3594 9.31244 14.8421C9.45482 15.0035 9.65972 15.0961 9.875 15.0961C10.0903 15.0961 10.2952 15.0035 10.4376 14.8421C10.8631 14.3594 11.5313 14.1408 12.176 14.3026C12.4342 14.3674 12.6659 14.4872 12.8609 14.6476C13.1141 14.8559 13.4733 14.8755 13.7477 14.6961C14.1792 14.414 14.6943 14.25 15.25 14.25H15.75C16.2154 14.25 16.6517 14.365 17.0342 14.5675C17.275 14.695 17.566 14.6818 17.7943 14.5332C17.9245 14.4484 18.0684 14.3797 18.2245 14.3307C18.5372 14.2326 18.75 13.9428 18.75 13.6151V8.25C18.75 8.05109 18.671 7.86032 18.5303 7.71967L12.2803 1.46967C12.1397 1.32902 11.9489 1.25 11.75 1.25Z" fill="#353566"/>
<path d="M18.5303 7.71962C18.671 7.86027 18.75 8.05103 18.75 8.24995L13.75 8.24994C12.6454 8.24994 11.75 7.35452 11.75 6.24996V1.25C11.9489 1.25 12.1397 1.32902 12.2803 1.46967L18.5303 7.71962Z" fill="#353566"/>
<path d="M21.0989 22.1961C21.0103 22.523 20.7136 22.75 20.3749 22.75C20.0362 22.75 19.7396 22.523 19.651 22.1961L18.026 16.1961C17.9177 15.7963 18.1541 15.3844 18.5539 15.2761C18.9537 15.1678 19.3656 15.4041 19.4739 15.8039L20.3749 19.131L21.276 15.8039C21.3843 15.4041 21.7962 15.1678 22.196 15.2761C22.5958 15.3844 22.8321 15.7963 22.7239 16.1961L21.0989 22.1961Z" fill="#353566"/>
<path d="M7.81742 15.2726C8.15097 15.1889 8.49872 15.3427 8.66111 15.6458L9.875 17.9118L11.0889 15.6458C11.2513 15.3427 11.599 15.1889 11.9326 15.2726C12.2661 15.3563 12.5 15.6561 12.5 16V22C12.5 22.4142 12.1642 22.75 11.75 22.75C11.3358 22.75 11 22.4142 11 22V18.9883L10.5361 19.8542C10.4055 20.0979 10.1515 20.25 9.875 20.25C9.59851 20.25 9.34445 20.0979 9.21389 19.8542L8.75 18.9883V22C8.75 22.4142 8.41421 22.75 8 22.75C7.58579 22.75 7.25 22.4142 7.25 22V16C7.25 15.6561 7.48388 15.3563 7.81742 15.2726Z" fill="#353566"/>
<path fill-rule="evenodd" clip-rule="evenodd" d="M15.25 15.25C14.2835 15.25 13.5 16.0335 13.5 17V21C13.5 21.9665 14.2835 22.75 15.25 22.75H15.75C16.7165 22.75 17.5 21.9665 17.5 21V17C17.5 16.0335 16.7165 15.25 15.75 15.25H15.25ZM15 17C15 16.8619 15.1119 16.75 15.25 16.75H15.75C15.8881 16.75 16 16.8619 16 17V21C16 21.1381 15.8881 21.25 15.75 21.25H15.25C15.1119 21.25 15 21.1381 15 21V17Z" fill="#353566"/>
</svg>
