<svg width="24" height="24" viewBox="0 0 24 24" fill="none" xmlns="http://www.w3.org/2000/svg">
<path opacity="0.4" d="M10.75 1.25H5.36821C4.62513 1.24999 4.02197 1.24999 3.53273 1.28996C3.02778 1.33121 2.57851 1.41876 2.16103 1.63148C1.50247 1.96703 0.967035 2.50247 0.631478 3.16103C0.418761 3.57851 0.331214 4.02778 0.289958 4.53273C0.249986 5.02197 0.249992 5.62512 0.25 6.3682V17.6318C0.249992 18.3749 0.249986 18.978 0.289958 19.4673C0.331214 19.9722 0.418762 20.4215 0.631478 20.839C0.967034 21.4975 1.50247 22.033 2.16103 22.3685C2.57851 22.5812 3.02778 22.6688 3.53273 22.71C4.02195 22.75 4.62507 22.75 5.36811 22.75H12.4162C12.7134 22.75 12.9825 22.5745 13.1024 22.3026C13.2224 22.0307 13.1704 21.7136 12.9699 21.4942C12.3461 20.8113 11.8208 19.9777 11.4387 19.0019C11.1871 18.3592 11.1871 17.6408 11.4387 16.9981C12.5077 14.268 14.702 12.6359 17.1008 12.3106C17.4727 12.2602 17.75 11.9427 17.75 11.5674V8.25C17.75 8.05109 17.671 7.86032 17.5303 7.71967L11.2803 1.46967C11.1397 1.32902 10.9489 1.25 10.75 1.25Z" fill="#353566"/>
<path d="M17.5303 7.71962C17.671 7.86027 17.75 8.05103 17.75 8.24995L12.75 8.24994C11.6454 8.24994 10.75 7.35452 10.75 6.24996V1.25C10.9489 1.25 11.1397 1.32902 11.2803 1.46967L17.5303 7.71962Z" fill="#353566"/>
<path d="M18 16.5C17.17 16.5 16.5 17.17 16.5 18C16.5 18.83 17.17 19.5 18 19.5C18.83 19.5 19.5 18.83 19.5 18C19.5 17.17 18.83 16.5 18 16.5Z" fill="#353566"/>
<path fill-rule="evenodd" clip-rule="evenodd" d="M23.3973 17.4539C22.3768 14.8473 20.2068 13.5 18 13.5C15.7932 13.5 13.6232 14.8473 12.6027 17.4539C12.4658 17.8036 12.4658 18.1964 12.6027 18.5461C13.6232 21.1527 15.7932 22.5 18 22.5C20.2068 22.5 22.3768 21.1527 23.3973 18.5461C23.5342 18.1964 23.5342 17.8036 23.3973 17.4539ZM15.5 18C15.5 16.6177 16.6177 15.5 18 15.5C19.3823 15.5 20.5 16.6177 20.5 18C20.5 19.3823 19.3823 20.5 18 20.5C16.6177 20.5 15.5 19.3823 15.5 18Z" fill="#353566"/>
</svg>
