<svg width="24" height="24" viewBox="0 0 24 24" fill="none" xmlns="http://www.w3.org/2000/svg">
<path opacity="0.4" d="M13.75 1.25H8.36821C7.62513 1.24999 7.02197 1.24999 6.53273 1.28996C6.02778 1.33121 5.57851 1.41876 5.16103 1.63148C4.50247 1.96703 3.96703 2.50247 3.63148 3.16103C3.41876 3.57851 3.33121 4.02778 3.28996 4.53273C3.24999 5.02197 3.24999 5.62512 3.25 6.3682V17.6318C3.24999 18.3749 3.24999 18.978 3.28996 19.4673C3.33121 19.9722 3.41876 20.4215 3.63148 20.839C3.96703 21.4975 4.50247 22.033 5.16103 22.3685C5.57851 22.5812 6.02778 22.6688 6.53273 22.71C7.02195 22.75 7.62507 22.75 8.36811 22.75H15.6318C16.3748 22.75 16.9781 22.75 17.4673 22.71C17.9722 22.6688 18.4215 22.5812 18.839 22.3685C19.4975 22.033 20.033 21.4975 20.3685 20.839C20.5812 20.4215 20.6688 19.9722 20.71 19.4673C20.75 18.9781 20.75 18.3749 20.75 17.6319V8.25C20.75 8.05109 20.671 7.86032 20.5303 7.71967L14.2803 1.46967C14.1397 1.32902 13.9489 1.25 13.75 1.25Z" fill="#353566"/>
<path d="M20.5301 7.71962C20.6707 7.86027 20.7498 8.05103 20.7498 8.24995L15.7498 8.24994C14.6452 8.24994 13.7498 7.35452 13.7498 6.24996V1.25C13.9487 1.25 14.1394 1.32902 14.2801 1.46967L20.5301 7.71962Z" fill="#353566"/>
<path d="M12.7497 9.91663C12.7497 9.50241 12.4139 9.16663 11.9997 9.16663C11.5855 9.16663 11.2497 9.50241 11.2497 9.91663V10.3718C10.7441 10.4555 10.2807 10.6297 9.89834 10.9066C9.31066 11.3322 8.95805 11.9739 8.95805 12.7415C8.95805 13.7334 9.51088 14.3554 10.1438 14.7097C10.7293 15.0375 11.4228 15.1641 11.8764 15.2397C12.3395 15.3169 12.7918 15.4137 13.123 15.5991C13.4067 15.7579 13.5414 15.9387 13.5414 16.2584C13.5414 16.5253 13.4357 16.7232 13.2213 16.8784C12.9844 17.05 12.5807 17.1874 11.9997 17.1874C11.6008 17.1874 11.3584 17.1448 11.1304 17.0543C10.8849 16.957 10.6074 16.7852 10.1608 16.4471C9.83058 16.197 9.36017 16.262 9.11013 16.5922C8.86008 16.9225 8.92507 17.3929 9.25529 17.6429C9.72535 17.9988 10.1354 18.2734 10.5774 18.4487C10.8015 18.5376 11.0223 18.5966 11.2497 18.6337V19.0833C11.2497 19.4975 11.5855 19.8333 11.9997 19.8333C12.4139 19.8333 12.7497 19.4975 12.7497 19.0833V18.6281C13.2553 18.5444 13.7187 18.3702 14.1011 18.0933C14.6888 17.6677 15.0414 17.026 15.0414 16.2584C15.0414 15.2665 14.4886 14.6445 13.8556 14.2902C13.2701 13.9624 12.5766 13.8357 12.123 13.7601C11.6599 13.683 11.2076 13.5862 10.8765 13.4008C10.5927 13.242 10.458 13.0612 10.458 12.7415C10.458 12.4746 10.5638 12.2767 10.7782 12.1215C11.0151 11.9499 11.4187 11.8124 11.9997 11.8124C12.3987 11.8124 12.641 11.8551 12.869 11.9455C13.1146 12.0429 13.392 12.2146 13.8386 12.5528C14.1689 12.8028 14.6393 12.7378 14.8893 12.4076C15.1394 12.0774 15.0744 11.607 14.7441 11.3569C14.2741 11.001 13.864 10.7265 13.4221 10.5512C13.1979 10.4623 12.9771 10.4033 12.7497 10.3662V9.91663Z" fill="#353566"/>
</svg>
