<svg width="24" height="24" viewBox="0 0 24 24" fill="none" xmlns="http://www.w3.org/2000/svg">
<path opacity="0.4" d="M11.75 1.25H6.36821C5.62513 1.24999 5.02197 1.24999 4.53273 1.28996C4.02778 1.33121 3.57851 1.41876 3.16103 1.63148C2.50247 1.96703 1.96703 2.50247 1.63148 3.16103C1.41876 3.57851 1.33121 4.02778 1.28996 4.53273C1.24999 5.02197 1.24999 5.62512 1.25 6.3682V17.6318C1.24999 18.3749 1.24999 18.978 1.28996 19.4673C1.33121 19.9722 1.41876 20.4215 1.63148 20.839C1.96703 21.4975 2.50247 22.033 3.16103 22.3685C3.57851 22.5812 4.02778 22.6688 4.53273 22.71C5.02195 22.75 5.62507 22.75 6.36811 22.75H13.6592C14.5564 22.75 15.2573 22.7501 15.8112 22.6727C16.1144 22.6303 16.3614 22.408 16.4353 22.111C16.5092 21.8139 16.3952 21.5018 16.1472 21.3223C16.0792 21.2731 16.0114 21.2228 15.9437 21.1716C15.1732 20.5882 15.0215 19.4906 15.605 18.72C15.6807 18.6201 15.7723 18.5233 15.8997 18.3905L15.901 18.3891C15.935 18.3536 15.9719 18.3152 16.0086 18.2761C16.2535 18.0159 16.2808 17.6191 16.0739 17.3278C15.5492 16.5892 15.2501 15.8963 15.2501 15.0817C15.2501 13.666 16.1159 12.5148 17.4443 11.8815C17.6101 11.8024 17.7412 11.6653 17.8126 11.496C17.9699 11.123 18.1965 10.8194 18.4647 10.6077C18.6449 10.4655 18.75 10.2486 18.75 10.019V8.25C18.75 8.05109 18.671 7.86032 18.5303 7.71967L12.2803 1.46967C12.1397 1.32902 11.9489 1.25 11.75 1.25Z" fill="#353566"/>
<path d="M18.5303 7.71962C18.671 7.86027 18.75 8.05103 18.75 8.24995L13.75 8.24994C12.6454 8.24994 11.75 7.35452 11.75 6.24996V1.25C11.9489 1.25 12.1397 1.32902 12.2803 1.46967L18.5303 7.71962Z" fill="#353566"/>
<path d="M20.25 12C20.25 11.5858 19.9143 11.25 19.5 11.25C19.0858 11.25 18.75 11.5858 18.75 12V12.5548C18.1846 12.6408 17.6689 12.8301 17.2476 13.1352C16.6235 13.5872 16.25 14.267 16.25 15.0817C16.25 16.1332 16.8341 16.7917 17.5087 17.1693C18.1359 17.5204 18.8815 17.6572 19.3767 17.7398C19.8815 17.8239 20.3859 17.9308 20.7587 18.1395C21.0841 18.3217 21.25 18.539 21.25 18.9183C21.25 19.2322 21.1235 19.4682 20.8726 19.6499C20.5993 19.8479 20.1435 20 19.5 20C19.0594 20 18.7858 19.9528 18.5266 19.85C18.2498 19.7402 17.9411 19.5482 17.4528 19.1785C17.1226 18.9284 16.6522 18.9934 16.4021 19.3236C16.1521 19.6539 16.2171 20.1243 16.5473 20.3743C17.059 20.7618 17.5003 21.0566 17.9735 21.2443C18.2316 21.3467 18.4857 21.4121 18.75 21.4511V22C18.75 22.4142 19.0858 22.75 19.5 22.75C19.9143 22.75 20.25 22.4142 20.25 22V21.4452C20.8154 21.3592 21.3312 21.1699 21.7525 20.8648C22.3766 20.4128 22.75 19.7329 22.75 18.9183C22.75 17.8667 22.166 17.2083 21.4914 16.8306C20.8642 16.4795 20.1186 16.3427 19.6233 16.2602C19.1186 16.1761 18.6142 16.0691 18.2414 15.8604C17.916 15.6783 17.75 15.461 17.75 15.0817C17.75 14.7677 17.8766 14.5317 18.1275 14.35C18.4008 14.1521 18.8566 14 19.5 14C19.9407 14 20.2143 14.0471 20.4735 14.15C20.7503 14.2597 21.059 14.4517 21.5473 14.8214C21.8775 15.0715 22.3479 15.0065 22.598 14.6763C22.848 14.346 22.783 13.8756 22.4528 13.6256C21.9411 13.2381 21.4998 12.9433 21.0266 12.7556C20.7685 12.6533 20.5143 12.5879 20.25 12.5489V12Z" fill="#353566"/>
</svg>
