<svg width="24" height="24" viewBox="0 0 24 24" fill="none" xmlns="http://www.w3.org/2000/svg">
<path opacity="0.4" d="M10.75 1.25H5.36821C4.62513 1.24999 4.02197 1.24999 3.53273 1.28996C3.02778 1.33121 2.57851 1.41876 2.16103 1.63148C1.50247 1.96703 0.967035 2.50247 0.631478 3.16103C0.418761 3.57851 0.331214 4.02778 0.289958 4.53273C0.249986 5.02197 0.249992 5.62512 0.25 6.3682V17.6318C0.249992 18.3749 0.249986 18.978 0.289958 19.4673C0.331214 19.9722 0.418761 20.4215 0.631478 20.839C0.967035 21.4975 1.50247 22.033 2.16103 22.3685C2.57851 22.5812 3.02778 22.6688 3.53273 22.71C4.02195 22.75 4.62507 22.75 5.36811 22.75H12.6318C13.3748 22.75 13.9781 22.75 14.4673 22.71C14.9722 22.6688 15.4215 22.5812 15.839 22.3685C16.4975 22.033 17.033 21.4975 17.3685 20.839C17.5812 20.4215 17.6688 19.9722 17.71 19.4673C17.75 18.9781 17.75 18.3749 17.75 17.6319V8.25C17.75 8.05109 17.671 7.86032 17.5303 7.71967L11.2803 1.46967C11.1397 1.32902 10.9489 1.25 10.75 1.25Z" fill="#353566"/>
<path d="M17.75 8.24995C17.75 8.05103 17.671 7.86027 17.5303 7.71962L11.2803 1.46967C11.1397 1.32902 10.9489 1.25 10.75 1.25V6.24996C10.75 7.35452 11.6454 8.24994 12.75 8.24994L17.75 8.24995Z" fill="#353566"/>
<path d="M11.25 15C11.25 14.5858 11.5858 14.25 12 14.25H21.1893L19.4697 12.5303C19.1768 12.2374 19.1768 11.7626 19.4697 11.4697C19.7626 11.1768 20.2374 11.1768 20.5303 11.4697L23.5303 14.4697C23.671 14.6103 23.75 14.8011 23.75 15C23.75 15.1989 23.671 15.3897 23.5303 15.5303L20.5303 18.5303C20.2374 18.8232 19.7626 18.8232 19.4697 18.5303C19.1768 18.2374 19.1768 17.7626 19.4697 17.4697L21.1893 15.75H12C11.5858 15.75 11.25 15.4142 11.25 15Z" fill="#353566"/>
</svg>
