<svg width="24" height="24" viewBox="0 0 24 24" fill="none" xmlns="http://www.w3.org/2000/svg">
<path opacity="0.4" d="M11.75 1.25H6.36821C5.62513 1.24999 5.02197 1.24999 4.53273 1.28996C4.02778 1.33121 3.57851 1.41876 3.16103 1.63148C2.50247 1.96703 1.96703 2.50247 1.63148 3.16103C1.41876 3.57851 1.33121 4.02778 1.28996 4.53273C1.24999 5.02197 1.24999 5.62512 1.25 6.3682V17.6318C1.24999 18.3749 1.24999 18.978 1.28996 19.4673C1.33121 19.9722 1.41876 20.4215 1.63148 20.839C1.96703 21.4975 2.50247 22.033 3.16103 22.3685C3.55651 22.57 3.97993 22.659 4.45196 22.703C4.91532 22.7462 5.47717 22.7496 6.15993 22.75C6.40285 22.7501 6.63079 22.6326 6.77157 22.4346C6.91236 22.2366 6.94854 21.9828 6.86866 21.7533C6.7596 21.4401 6.7 21.1028 6.7 20.75V20.5C6.7 19.5178 7.4869 18.7191 8.46442 18.7003C8.87294 18.6925 9.2 18.3591 9.2 17.9505V16C9.2 15.0059 10.0059 14.2 11 14.2C11.3219 14.2 11.6219 14.2838 11.8818 14.4303C12.1104 14.5591 12.3896 14.5591 12.6182 14.4303C12.8781 14.2838 13.1781 14.2 13.5 14.2H14.75C15.6141 14.2 16.4044 14.5078 17.0201 15.0205C17.2981 15.2521 17.7019 15.2521 17.9799 15.0205C18.1102 14.9121 18.2482 14.8128 18.393 14.7237C18.6148 14.5872 18.75 14.3454 18.75 14.0849V8.25C18.75 8.05109 18.671 7.86032 18.5303 7.71967L12.2803 1.46967C12.1397 1.32902 11.9489 1.25 11.75 1.25Z" fill="#353566"/>
<path d="M18.5303 7.71962C18.671 7.86027 18.75 8.05103 18.75 8.24995L13.75 8.24994C12.6454 8.24994 11.75 7.35452 11.75 6.24996V1.25C11.9489 1.25 12.1397 1.32902 12.2803 1.46967L18.5303 7.71962Z" fill="#353566"/>
<path d="M11 15.25C10.5858 15.25 10.25 15.5858 10.25 16V20.75C10.25 21.0261 10.0261 21.25 9.75 21.25C9.47386 21.25 9.25 21.0261 9.25 20.75V20.5C9.25 20.0858 8.91421 19.75 8.5 19.75C8.08579 19.75 7.75 20.0858 7.75 20.5V20.75C7.75 21.8546 8.64543 22.75 9.75 22.75C10.8546 22.75 11.75 21.8546 11.75 20.75V16C11.75 15.5858 11.4142 15.25 11 15.25Z" fill="#353566"/>
<path d="M17.75 17.75C17.75 16.3693 18.8693 15.25 20.25 15.25C21.2484 15.25 22.1086 15.8353 22.509 16.6782C22.6868 17.0523 22.5276 17.4997 22.1534 17.6774C21.7793 17.8552 21.3319 17.696 21.1541 17.3218C20.9928 16.9822 20.6478 16.75 20.25 16.75C19.6977 16.75 19.25 17.1977 19.25 17.75V20.25C19.25 20.8023 19.6977 21.25 20.25 21.25C20.8023 21.25 21.25 20.8023 21.25 20.25H20.75C20.3358 20.25 20 19.9142 20 19.5C20 19.0858 20.3358 18.75 20.75 18.75H22C22.4142 18.75 22.75 19.0858 22.75 19.5V20.25C22.75 21.6307 21.6307 22.75 20.25 22.75C18.8693 22.75 17.75 21.6307 17.75 20.25V17.75Z" fill="#353566"/>
<path fill-rule="evenodd" clip-rule="evenodd" d="M12.75 16C12.75 15.5858 13.0858 15.25 13.5 15.25H14.75C16.1307 15.25 17.25 16.3693 17.25 17.75C17.25 19.1307 16.1307 20.25 14.75 20.25H14.25V22C14.25 22.4142 13.9142 22.75 13.5 22.75C13.0858 22.75 12.75 22.4142 12.75 22V16ZM14.25 18.75H14.75C15.3023 18.75 15.75 18.3023 15.75 17.75C15.75 17.1977 15.3023 16.75 14.75 16.75H14.25V18.75Z" fill="#353566"/>
</svg>
