<svg width="24" height="24" viewBox="0 0 24 24" fill="none" xmlns="http://www.w3.org/2000/svg">
<path opacity="0.4" d="M22.5426 12.8072C18.9239 2.73093 5.07613 2.73094 1.45739 12.8072C1.18087 13.5772 1.18087 14.4228 1.45739 15.1928C5.07613 25.2691 18.9239 25.2691 22.5426 15.1928C22.8191 14.4228 22.8191 13.5772 22.5426 12.8072Z" fill="#353566"/>
<path d="M12.75 2C12.75 1.58579 12.4142 1.25 12 1.25C11.5858 1.25 11.25 1.58579 11.25 2V3.5C11.25 3.91421 11.5858 4.25 12 4.25C12.4142 4.25 12.75 3.91421 12.75 3.5V2Z" fill="#353566"/>
<path d="M3.58405 3.37596C3.23941 3.60573 3.14628 4.07138 3.37604 4.41603L4.37604 5.91603C4.60581 6.26067 5.07146 6.3538 5.41611 6.12404C5.76075 5.89427 5.85388 5.42862 5.62412 5.08397L4.62412 3.58397C4.39435 3.23933 3.9287 3.1462 3.58405 3.37596Z" fill="#353566"/>
<path d="M20.6241 4.41603C20.8539 4.07138 20.7608 3.60573 20.4161 3.37596C20.0715 3.1462 19.6058 3.23933 19.3761 3.58397L18.3761 5.08397C18.1463 5.42862 18.2394 5.89427 18.5841 6.12404C18.9287 6.3538 19.3944 6.26067 19.6241 5.91603L20.6241 4.41603Z" fill="#353566"/>
<path fill-rule="evenodd" clip-rule="evenodd" d="M12 9.75C9.65006 9.75 7.75003 11.65 7.75003 14C7.75003 16.35 9.65006 18.25 12 18.25C14.35 18.25 16.25 16.35 16.25 14C16.25 11.65 14.35 9.75 12 9.75ZM9.25003 14C9.25003 12.4785 10.4785 11.25 12 11.25C13.5216 11.25 14.75 12.4785 14.75 14C14.75 15.5215 13.5216 16.75 12 16.75C10.4785 16.75 9.25003 15.5215 9.25003 14Z" fill="#353566"/>
</svg>
