<svg width="24" height="24" viewBox="0 0 24 24" fill="none" xmlns="http://www.w3.org/2000/svg">
<g clip-path="url(#clip0_9002_1585)">
<path opacity="0.4" d="M12 0.25C5.51065 0.25 0.25 5.51065 0.25 12C0.25 18.4893 5.51065 23.75 12 23.75C18.4893 23.75 23.75 18.4893 23.75 12C23.75 5.51065 18.4893 0.25 12 0.25Z" fill="#353566"/>
<path fill-rule="evenodd" clip-rule="evenodd" d="M9 9C9 7.40061 10.4286 6.25 12 6.25C13.5714 6.25 15 7.40061 15 9V10.2677C15.8481 10.389 16.5 11.1184 16.5 12V15.75C16.5 16.7165 15.7165 17.5 14.75 17.5H9.25C8.2835 17.5 7.5 16.7165 7.5 15.75V12C7.5 11.1184 8.15193 10.389 9 10.2677L9 9ZM12 7.75C11.0861 7.75 10.5 8.39025 10.5 9V10H13.5V9C13.5 8.39025 12.9139 7.75 12 7.75Z" fill="#353566"/>
</g>
<defs>
<clipPath id="clip0_9002_1585">
<rect width="24" height="24" fill="white"/>
</clipPath>
</defs>
</svg>
