<svg width="24" height="24" viewBox="0 0 24 24" fill="none" xmlns="http://www.w3.org/2000/svg">
<path opacity="0.4" d="M13.919 1.21229C12.7116 0.600688 11.285 0.60079 10.0776 1.21257L2.98302 4.80744C2.22667 5.19068 1.75 5.96659 1.75 6.81449V8.83929C1.75 9.34177 1.85159 10.3314 1.96632 11.3039C2.23322 13.5662 3.10653 15.7 4.42162 17.5367C5.94702 19.6671 7.95128 21.4097 10.2731 22.6241L11.0218 23.0157C11.6335 23.3357 12.3632 23.3357 12.9749 23.0156L13.7253 22.623C16.0449 21.4093 18.0478 19.6687 19.573 17.541C20.8916 15.7017 21.7672 13.5642 22.0344 11.2977C22.1488 10.3274 22.25 9.34079 22.25 8.83929V6.81464C22.25 5.96662 21.7732 5.19063 21.0167 4.80744L13.919 1.21229Z" fill="#353566"/>
<path d="M11.1 12C11.1 11.5018 11.5018 11.1 12 11.1C12.4982 11.1 12.9 11.5018 12.9 12C12.9 12.4982 12.4982 12.9 12 12.9C11.5018 12.9 11.1 12.4982 11.1 12Z" fill="#353566"/>
<path fill-rule="evenodd" clip-rule="evenodd" d="M12 8.25C13.8132 8.25 15.5832 9.37487 16.4119 11.5245C16.5294 11.8292 16.5294 12.1708 16.4119 12.4755C15.5832 14.6251 13.8132 15.75 12 15.75C10.1868 15.75 8.41677 14.6251 7.58808 12.4755C7.47064 12.1708 7.47064 11.8292 7.58808 11.5245C8.41677 9.37487 10.1868 8.25 12 8.25ZM12 9.9C10.839 9.9 9.9 10.839 9.9 12C9.9 13.161 10.839 14.1 12 14.1C13.161 14.1 14.1 13.161 14.1 12C14.1 10.839 13.161 9.9 12 9.9Z" fill="#353566"/>
</svg>
