<svg width="24" height="24" viewBox="0 0 24 24" fill="none" xmlns="http://www.w3.org/2000/svg">
<g clip-path="url(#clip0_9001_279819)">
<path d="M0.630138 9.75C0.534362 9.75 0.451846 9.81786 0.43494 9.91213C0.313426 10.5897 0.25 11.2875 0.25 12C0.25 12.7125 0.313426 13.4103 0.43494 14.0879C0.451846 14.1821 0.534362 14.25 0.630138 14.25H6.62262C6.7391 14.25 6.83088 14.1509 6.82277 14.0347C6.77462 13.3443 6.75 12.6614 6.75 12C6.75 11.3386 6.77462 10.6557 6.82277 9.96534C6.83088 9.84914 6.7391 9.75 6.62262 9.75H0.630138Z" fill="#353566"/>
<path d="M1.13943 15.75C1.00268 15.75 0.90636 15.8843 0.95306 16.0128C2.23761 19.5483 5.17101 22.2924 8.82359 23.3156C8.9973 23.3643 9.13702 23.1705 9.04813 23.0136C8.64339 22.2988 8.29656 21.4526 8.00453 20.5414C7.55865 19.1503 7.22295 17.5517 7.01155 15.9253C6.99855 15.8252 6.91351 15.75 6.81259 15.75H1.13943Z" fill="#353566"/>
<path d="M12.0368 23.7499L12 23.75L11.9583 23.7499C11.6247 23.7328 11.2098 23.5079 10.739 22.8734C10.2572 22.2241 9.81126 21.2639 9.43295 20.0836C9.03871 18.8535 8.73338 17.434 8.53175 15.9758C8.51521 15.8562 8.60847 15.75 8.72921 15.75H11.749C11.6034 15.9584 11.4818 16.2022 11.3893 16.4886C10.8567 18.1377 11.9346 19.2084 13.0218 20.2302C12.853 21.1336 12.8158 22.162 13.0825 23.0095C12.6645 23.5482 12.3072 23.7346 12.0368 23.7499Z" fill="#353566"/>
<path d="M23.3699 14.25H20.9966C20.3692 12.9578 19.6689 11.7 18.0018 11.7C17.7258 11.7 17.4763 11.7345 17.2492 11.7979C17.2448 11.1998 17.2205 10.5856 17.1772 9.96534C17.1691 9.84914 17.2609 9.75 17.3774 9.75H23.3699C23.4656 9.75 23.5482 9.81786 23.5651 9.91213C23.6866 10.5897 23.75 11.2875 23.75 12C23.75 12.7125 23.6866 13.4103 23.5651 14.0879C23.5482 14.1821 23.4656 14.25 23.3699 14.25Z" fill="#353566"/>
<path d="M15.75 12C15.75 12.3085 15.7422 12.6309 15.7269 12.9638C15.4529 13.3539 15.2255 13.7998 15.0069 14.25H8.52768C8.42345 14.25 8.33662 14.1699 8.32889 14.066C8.27684 13.3657 8.25 12.6715 8.25 12C8.25 11.3285 8.27684 10.6343 8.32889 9.934C8.33662 9.83006 8.42345 9.75 8.52768 9.75H15.4723C15.5765 9.75 15.6634 9.83006 15.6711 9.934C15.7232 10.6343 15.75 11.3285 15.75 12Z" fill="#353566"/>
<path d="M22.8606 8.25C22.9973 8.25 23.0936 8.1157 23.0469 7.98717C21.7624 4.45172 18.829 1.70756 15.1764 0.684368C15.0027 0.635707 14.8629 0.829444 14.9518 0.986422C15.3566 1.70117 15.7034 2.54743 15.9954 3.45858C16.4413 4.84973 16.777 6.44827 16.9884 8.07474C17.0014 8.17481 17.0865 8.25 17.1874 8.25H22.8606Z" fill="#353566"/>
<path d="M9.04813 0.986434C9.13702 0.829455 8.9973 0.635719 8.82358 0.684381C5.17101 1.70758 2.23761 4.45174 0.95306 7.98717C0.90636 8.1157 1.00268 8.25 1.13943 8.25H6.81259C6.91351 8.25 6.99855 8.17481 7.01155 8.07474C7.22295 6.44827 7.55865 4.84973 8.00453 3.45859C8.29656 2.54743 8.64339 1.70118 9.04813 0.986434Z" fill="#353566"/>
<path d="M12 0.25C12.3405 0.25 12.7703 0.465464 13.261 1.12664C13.7428 1.77591 14.1887 2.73606 14.567 3.91642C14.9613 5.14646 15.2666 6.56599 15.4682 8.02419C15.4848 8.1438 15.3915 8.25 15.2708 8.25H8.72921C8.60847 8.25 8.51521 8.1438 8.53175 8.02419C8.73338 6.56599 9.03871 5.14646 9.43295 3.91641C9.81126 2.73606 10.2572 1.7759 10.739 1.12664C11.2296 0.465463 11.6594 0.25 12 0.25Z" fill="#353566"/>
<path d="M16.9866 13.6365C17.3957 12.7878 18.6043 12.7878 19.0133 13.6365L20.0786 15.8464L22.5198 16.165C23.4614 16.2879 23.8366 17.45 23.1446 18.1003L21.3664 19.7713L21.8141 22.1646C21.9878 23.0935 21.0083 23.8097 20.1759 23.3625L18 22.1934L15.824 23.3625C14.9916 23.8097 14.0121 23.0935 14.1858 22.1646L14.6335 19.7713L12.8553 18.1003C12.1633 17.45 12.5385 16.2879 13.4801 16.165L15.9213 15.8464L16.9866 13.6365Z" fill="#353566"/>
</g>
<defs>
<clipPath id="clip0_9001_279819">
<rect width="24" height="24" fill="white"/>
</clipPath>
</defs>
</svg>
