<svg width="24" height="24" viewBox="0 0 24 24" fill="none" xmlns="http://www.w3.org/2000/svg">
<g clip-path="url(#clip0_9001_279864)">
<path d="M0.630138 9.74988C0.534362 9.74988 0.451846 9.81774 0.43494 9.91201C0.313426 10.5896 0.25 11.2873 0.25 11.9999C0.25 12.7124 0.313426 13.4102 0.43494 14.0877C0.451846 14.182 0.534362 14.2499 0.630138 14.2499H6.62262C6.7391 14.2499 6.83088 14.1507 6.82277 14.0345C6.77462 13.3442 6.75 12.6613 6.75 11.9999C6.75 11.3384 6.77462 10.6556 6.82277 9.96522C6.83088 9.84902 6.7391 9.74988 6.62262 9.74988H0.630138Z" fill="#353566"/>
<path d="M1.13943 15.7499C1.00268 15.7499 0.90636 15.8842 0.95306 16.0127C2.23761 19.5481 5.17101 22.2923 8.82359 23.3155C8.9973 23.3642 9.13702 23.1704 9.04813 23.0134C8.64339 22.2987 8.29656 21.4524 8.00453 20.5413C7.55865 19.1501 7.22295 17.5516 7.01155 15.9251C6.99855 15.8251 6.91351 15.7499 6.81259 15.7499H1.13943Z" fill="#353566"/>
<path d="M12.7649 18.0311L15.0455 15.7499H8.72921C8.60847 15.7499 8.51521 15.8561 8.53175 15.9757C8.73338 17.4339 9.03871 18.8534 9.43295 20.0835C9.81126 21.2638 10.2572 22.224 10.739 22.8732C11.1846 23.4738 11.5801 23.7074 11.904 23.7452C11.5313 23.2681 11.389 22.6444 11.5264 22.0458L12.2233 19.0098C12.3083 18.6392 12.496 18.3 12.7649 18.0311Z" fill="#353566"/>
<path d="M22.6437 12.0784C23.0201 12.34 23.3979 12.6942 23.7023 13.0663C23.7339 12.715 23.75 12.3593 23.75 11.9999C23.75 11.2873 23.6866 10.5896 23.5651 9.91201C23.5482 9.81774 23.4656 9.74988 23.3699 9.74988H17.3774C17.2609 9.74988 17.1691 9.84902 17.1772 9.96522C17.2254 10.6556 17.25 11.3384 17.25 11.9999C17.25 12.5049 17.2307 13.043 17.1929 13.6019L18.1148 12.6798C18.3273 12.4664 18.5424 12.2517 18.7905 12.0792C19.9485 11.2737 21.4853 11.2734 22.6437 12.0784Z" fill="#353566"/>
<path d="M22.8606 8.24988C22.9973 8.24988 23.0936 8.11558 23.0469 7.98705C21.7624 4.4516 18.829 1.70744 15.1764 0.684246C15.0027 0.635585 14.8629 0.829322 14.9518 0.9863C15.3566 1.70105 15.7034 2.5473 15.9954 3.45846C16.4413 4.84961 16.777 6.44815 16.9884 8.07461C17.0014 8.17469 17.0865 8.24988 17.1874 8.24988H22.8606Z" fill="#353566"/>
<path d="M9.04813 0.986312C9.13702 0.829333 8.9973 0.635596 8.82358 0.684259C5.17101 1.70746 2.23761 4.45161 0.95306 7.98705C0.90636 8.11558 1.00268 8.24988 1.13943 8.24988H6.81259C6.91351 8.24988 6.99855 8.17469 7.01155 8.07461C7.22295 6.44815 7.55865 4.84961 8.00453 3.45847C8.29656 2.54731 8.64339 1.70106 9.04813 0.986312Z" fill="#353566"/>
<path d="M12 0.249878C12.3405 0.249878 12.7703 0.465342 13.261 1.12652C13.7428 1.77579 14.1887 2.73594 14.567 3.91629C14.9613 5.14634 15.2666 6.56587 15.4682 8.02407C15.4848 8.14368 15.3915 8.24988 15.2708 8.24988H8.72921C8.60847 8.24988 8.51521 8.14368 8.53175 8.02407C8.73338 6.56587 9.03871 5.14634 9.43295 3.91629C9.81126 2.73594 10.2572 1.77578 10.739 1.12652C11.2296 0.465341 11.6594 0.249878 12 0.249878Z" fill="#353566"/>
<path d="M8.32889 14.0659C8.33662 14.1698 8.42345 14.2499 8.52768 14.2499H15.4534C15.5565 14.2499 15.6428 14.1715 15.6519 14.0687C15.7166 13.3392 15.75 12.6397 15.75 11.9999C15.75 11.3284 15.7232 10.6342 15.6711 9.93388C15.6634 9.82993 15.5765 9.74988 15.4723 9.74988H8.52768C8.42345 9.74988 8.33662 9.82993 8.32889 9.93388C8.27684 10.6342 8.25 11.3284 8.25 11.9999C8.25 12.6714 8.27684 13.3656 8.32889 14.0659Z" fill="#353566"/>
<path d="M22.0182 13.064C21.4176 12.6466 20.6208 12.6468 20.0203 13.0644C19.892 13.1537 19.7659 13.2799 19.5629 13.4829L18.9917 14.0542C18.7965 14.2495 18.7965 14.5661 18.9918 14.7613L21.2398 17.0093C21.4351 17.2046 21.7517 17.2046 21.9469 17.0093L22.5184 16.4377C22.7215 16.2346 22.8477 16.1085 22.9369 15.9801C23.3545 15.3794 23.3543 14.5823 22.9365 13.9818C22.8472 13.8535 22.721 13.7273 22.5178 13.5243L22.4758 13.4823C22.2728 13.2794 22.1466 13.1532 22.0182 13.064Z" fill="#353566"/>
<path d="M17.5777 15.4686C17.773 15.2733 18.0896 15.2733 18.2849 15.4686L20.5328 17.7165C20.7281 17.9118 20.7281 18.2284 20.5329 18.4236L16.554 22.4033C16.5207 22.4365 16.4788 22.4597 16.433 22.4702L13.0558 23.2436C12.9719 23.2629 12.884 23.2376 12.8232 23.1767C12.7623 23.1158 12.7371 23.0279 12.7563 22.944L13.5307 19.5706C13.5412 19.5249 13.5643 19.483 13.5975 19.4498L17.5777 15.4686Z" fill="#353566"/>
</g>
<defs>
<clipPath id="clip0_9001_279864">
<rect width="24" height="24" fill="white"/>
</clipPath>
</defs>
</svg>
