<svg width="24" height="24" viewBox="0 0 24 24" fill="none" xmlns="http://www.w3.org/2000/svg">
<path d="M23 2C23 1.44772 22.5523 1 22 1C21.4477 1 21 1.44772 21 2V22C21 22.5523 21.4477 23 22 23C22.5523 23 23 22.5523 23 22V2Z" fill="#353566"/>
<path d="M18 6.25C18 5.69772 17.5523 5.25 17 5.25C16.4477 5.25 16 5.69772 16 6.25V22C16 22.5523 16.4477 23 17 23C17.5523 23 18 22.5523 18 22V6.25Z" fill="#353566"/>
<path d="M12 9.5C12.5523 9.5 13 9.94771 13 10.5V22C13 22.5523 12.5523 23 12 23C11.4477 23 11 22.5523 11 22V10.5C11 9.94771 11.4477 9.5 12 9.5Z" fill="#353566"/>
<path d="M8 14.75C8 14.1977 7.55228 13.75 7 13.75C6.44772 13.75 6 14.1977 6 14.75V22C6 22.5523 6.44772 23 7 23C7.55228 23 8 22.5523 8 22V14.75Z" fill="#353566"/>
<path d="M2 18C2.55228 18 3 18.4477 3 19V22C3 22.5523 2.55228 23 2 23C1.44772 23 1 22.5523 1 22V19C1 18.4477 1.44772 18 2 18Z" fill="#353566"/>
<path fill-rule="evenodd" clip-rule="evenodd" d="M2.5 5.08236C1.74201 5.15763 1.15002 5.79716 1.15002 6.57495V9.57495C1.15002 10.4034 1.8216 11.075 2.65002 11.075H7.45002C8.27845 11.075 8.95002 10.4034 8.95002 9.57495V6.57495C8.95002 5.79714 8.35801 5.1576 7.6 5.08236V4.47505C7.6 3.06672 6.45833 1.92505 5.05 1.92505C3.64167 1.92505 2.5 3.06672 2.5 4.47505V5.08236ZM6.1 5.07495H4V4.47505C4 3.89515 4.4701 3.42505 5.05 3.42505C5.6299 3.42505 6.1 3.89515 6.1 4.47505V5.07495Z" fill="#353566"/>
</svg>
