<svg width="24" height="24" viewBox="0 0 24 24" fill="none" xmlns="http://www.w3.org/2000/svg">
<path d="M12 5C7.95036 5 4.31491 6.54595 1.71424 9.1999C1.3277 9.59436 0.694565 9.60078 0.3001 9.21424C-0.094364 8.8277 -0.100785 8.19456 0.285759 7.8001C3.27537 4.74923 7.43142 3 12 3C15.8371 3 19.3845 4.23377 22.1951 6.43942C22.4937 6.67368 22.6229 7.04375 22.5639 7.39333C22.9035 7.29151 23.2867 7.37387 23.5562 7.64109C23.6092 7.69369 23.6619 7.7467 23.7142 7.8001C24.1008 8.19457 24.0944 8.8277 23.6999 9.21424C23.3054 9.60079 22.6723 9.59436 22.2858 9.1999C22.2401 9.15331 22.1941 9.10707 22.1479 9.06117C21.9078 8.82312 21.8137 8.49355 21.866 8.18375C21.5651 8.27405 21.2264 8.22151 20.9604 8.0128C18.5128 6.092 15.4033 5 12 5Z" fill="#353566"/>
<path d="M11.999 10C9.37037 10 6.97755 11.0312 5.18716 12.7246C4.78593 13.1041 4.15301 13.0865 3.7735 12.6853C3.39399 12.284 3.4116 11.6511 3.81284 11.2716C5.95632 9.24421 8.83457 8 11.999 8C12.9702 8 13.9157 8.11729 14.822 8.33912C15.3585 8.47042 15.6869 9.01174 15.5556 9.54819C15.4243 10.0846 14.883 10.4131 14.3466 10.2818C13.5945 10.0977 12.8086 10 11.999 10Z" fill="#353566"/>
<path d="M11.9999 15C10.7763 15 9.75602 15.4598 8.93348 16.23C8.53033 16.6074 7.89751 16.5866 7.52003 16.1835C7.14256 15.7803 7.16337 15.1475 7.56652 14.77C8.72547 13.6849 10.2237 13 11.9999 13C12.2011 13 12.3995 13.0088 12.5949 13.0262C13.145 13.0751 13.5513 13.5607 13.5024 14.1108C13.4535 14.6609 12.9679 15.0672 12.4178 15.0183C12.282 15.0062 12.1427 15 11.9999 15Z" fill="#353566"/>
<path d="M10.75 19C10.75 18.3096 11.3096 17.75 12 17.75C12.6904 17.75 13.2501 18.3096 13.2501 19C13.2501 19.6904 12.6905 20.25 12.0001 20.25C11.3097 20.25 10.75 19.6904 10.75 19Z" fill="#353566"/>
<path fill-rule="evenodd" clip-rule="evenodd" d="M19 8.25C17.4286 8.25 16 9.40061 16 11V12.2677C15.1519 12.389 14.5 13.1184 14.5 14V17.75C14.5 18.7165 15.2835 19.5 16.25 19.5H21.75C22.7165 19.5 23.5 18.7165 23.5 17.75V14C23.5 13.1184 22.8481 12.389 22 12.2677V11C22 9.40061 20.5714 8.25 19 8.25ZM17.5 11C17.5 10.3902 18.0861 9.75 19 9.75C19.9139 9.75 20.5 10.3902 20.5 11V12H17.5V11Z" fill="#353566"/>
</svg>
