<svg width="24" height="24" viewBox="0 0 24 24" fill="none" xmlns="http://www.w3.org/2000/svg">
<path d="M1.71424 9.1999C4.31491 6.54595 7.95036 5 12 5C16.0496 5 19.6851 6.54595 22.2858 9.1999C22.6723 9.59436 23.3054 9.60078 23.6999 9.21424C24.0944 8.8277 24.1008 8.19456 23.7142 7.8001C20.7246 4.74923 16.5686 3 12 3C7.43142 3 3.27537 4.74923 0.285759 7.8001C-0.100785 8.19456 -0.094364 8.8277 0.3001 9.21424C0.694565 9.60078 1.3277 9.59436 1.71424 9.1999Z" fill="#353566"/>
<path d="M11.9457 10.0001C12.498 9.99722 12.9434 9.54713 12.9404 8.99486C12.9375 8.44258 12.4874 7.99724 11.9351 8.00017C8.79573 8.0168 5.94183 9.25791 3.81284 11.2716C3.4116 11.6511 3.39399 12.284 3.7735 12.6853C4.15301 13.0865 4.78593 13.1041 5.18716 12.7246C6.96551 11.0426 9.33817 10.014 11.9457 10.0001Z" fill="#353566"/>
<path d="M10.8418 15.1482C11.3754 15.0058 11.6925 14.4578 11.55 13.9242C11.4076 13.3905 10.8596 13.0734 10.326 13.2159C9.25898 13.5007 8.33534 14.0502 7.56652 14.77C7.16337 15.1475 7.14256 15.7803 7.52003 16.1835C7.89751 16.5866 8.53033 16.6074 8.93348 16.23C9.48694 15.7117 10.1247 15.3396 10.8418 15.1482Z" fill="#353566"/>
<path d="M12 17.75C11.3096 17.75 10.75 18.3096 10.75 19C10.75 19.6904 11.3096 20.25 12 20.25C12.6904 20.25 13.2501 19.6904 13.2501 19C13.2501 18.3096 12.6904 17.75 12 17.75Z" fill="#353566"/>
<path fill-rule="evenodd" clip-rule="evenodd" d="M12.25 13.125C12.25 10.4326 14.4326 8.25 17.125 8.25C19.8174 8.25 22 10.4326 22 13.125C22 14.2006 21.6517 15.1948 21.0617 16.001L23.5303 18.4697C23.8232 18.7626 23.8232 19.2374 23.5303 19.5303C23.2374 19.8232 22.7625 19.8232 22.4696 19.5303L20.001 17.0617C19.1948 17.6517 18.2006 18 17.125 18C14.4326 18 12.25 15.8174 12.25 13.125ZM17.125 9.75C15.261 9.75 13.75 11.261 13.75 13.125C13.75 14.989 15.261 16.5 17.125 16.5C18.989 16.5 20.5 14.989 20.5 13.125C20.5 11.261 18.989 9.75 17.125 9.75Z" fill="#353566"/>
</svg>
