<svg width="24" height="24" viewBox="0 0 24 24" fill="none" xmlns="http://www.w3.org/2000/svg">
<path d="M11 4L11 15C11 15.5523 11.4477 16 12 16C12.5523 16 13 15.5523 13 15L13 4C13 3.44772 12.5523 3 12 3C11.4477 3 11 3.44772 11 4Z" fill="#353566"/>
<path d="M15.1834 3.29155C14.6405 3.19027 14.1182 3.54828 14.017 4.0912C13.9157 4.63412 14.2737 5.15635 14.8166 5.25763C17.722 5.79966 20.3033 7.17689 22.2858 9.19996C22.6723 9.59443 23.3054 9.60085 23.6999 9.2143C24.0944 8.82776 24.1008 8.19463 23.7142 7.80016C21.4382 5.47747 18.4836 3.90723 15.1834 3.29155Z" fill="#353566"/>
<path d="M9.18339 5.25763C9.72631 5.15635 10.0843 4.63412 9.98304 4.0912C9.88175 3.54828 9.35952 3.19027 8.81661 3.29155C5.51639 3.90723 2.56181 5.47747 0.285759 7.80016C-0.100785 8.19463 -0.094364 8.82776 0.3001 9.2143C0.694565 9.60085 1.3277 9.59443 1.71424 9.19996C3.69669 7.17689 6.27798 5.79966 9.18339 5.25763Z" fill="#353566"/>
<path d="M9.96113 9.14441C10.1136 9.67523 9.80692 10.2292 9.2761 10.3816C7.73133 10.8254 6.33543 11.6386 5.18716 12.7247C4.78593 13.1042 4.15301 13.0866 3.7735 12.6853C3.39399 12.2841 3.4116 11.6512 3.81284 11.2717C5.18657 9.97233 6.86227 8.99418 8.7239 8.45939C9.25471 8.3069 9.80864 8.6136 9.96113 9.14441Z" fill="#353566"/>
<path d="M15.2763 8.46001C14.7455 8.30742 14.1915 8.61401 14.0389 9.1448C13.8863 9.67559 14.1929 10.2296 14.7237 10.3822C16.2686 10.8263 17.6645 11.6399 18.8127 12.7264C19.2138 13.106 19.8467 13.0885 20.2263 12.6874C20.6059 12.2863 20.5885 11.6533 20.1873 11.2737C18.8137 9.97387 17.138 8.99522 15.2763 8.46001Z" fill="#353566"/>
<path d="M9.83119 14.3468C10.1383 14.8059 10.015 15.4269 9.55599 15.734C9.33851 15.8794 9.13081 16.0453 8.93348 16.23C8.53033 16.6075 7.89751 16.5867 7.52003 16.1835C7.14256 15.7804 7.16337 15.1476 7.56652 14.7701C7.83922 14.5148 8.13176 14.2805 8.44401 14.0716C8.90307 13.7645 9.52413 13.8877 9.83119 14.3468Z" fill="#353566"/>
<path d="M15.556 14.0716C15.0969 13.7646 14.4758 13.8878 14.1688 14.3468C13.8617 14.8059 13.985 15.427 14.444 15.734C14.6615 15.8795 14.8692 16.0453 15.0665 16.23C15.4697 16.6075 16.1025 16.5867 16.48 16.1835C16.8574 15.7804 16.8366 15.1476 16.4335 14.7701C16.1608 14.5148 15.8682 14.2805 15.556 14.0716Z" fill="#353566"/>
<path d="M10.75 19C10.75 18.3096 11.3096 17.75 12 17.75C12.6904 17.75 13.2501 18.3096 13.2501 19C13.2501 19.6904 12.6904 20.25 12 20.25C11.3096 20.25 10.75 19.6904 10.75 19Z" fill="#353566"/>
</svg>
