<svg width="24" height="24" viewBox="0 0 24 24" fill="none" xmlns="http://www.w3.org/2000/svg">
<path d="M17.5 3.49994C17.5 3.2238 17.2761 2.99994 17 2.99994C16.7239 2.99994 16.5 3.2238 16.5 3.49994V5.99999C16.5 6.16717 16.5836 6.32329 16.7227 6.41603L18.2227 7.41597C18.4524 7.56914 18.7629 7.50705 18.916 7.27728C19.0692 7.04751 19.0071 6.73708 18.7773 6.58391L17.5 5.73239V3.49994Z" fill="#353566"/>
<path fill-rule="evenodd" clip-rule="evenodd" d="M11.5 6C11.5 2.96243 13.9624 0.5 17 0.5C20.0376 0.5 22.5 2.96243 22.5 6C22.5 9.03757 20.0376 11.5 17 11.5C13.9624 11.5 11.5 9.03757 11.5 6ZM17 1.5C14.5147 1.5 12.5 3.51472 12.5 6C12.5 8.48528 14.5147 10.5 17 10.5C19.4853 10.5 21.5 8.48528 21.5 6C21.5 3.51472 19.4853 1.5 17 1.5Z" fill="#353566"/>
<path d="M4.01838 3.79078C4.28059 3.66095 4.60547 3.58341 5.10544 3.54259C5.62237 3.50039 6.28125 3.5 7.2 3.5H9.58152C9.85766 3.5 10.0815 3.27614 10.0815 3C10.0815 2.72386 9.85766 2.5 9.58152 2.5H7.17767C6.28608 2.5 5.58644 2.49999 5.02406 2.54591C4.45117 2.59268 3.9768 2.68958 3.54707 2.90847C3.53489 2.91467 3.52297 2.92137 3.51134 2.92855C2.5767 3.50558 2.03363 4.0797 1.76095 4.87753C1.51236 5.60491 1.50845 6.48138 1.50357 7.5757L1.50323 7.65295C1.50243 7.82646 1.5016 8.00689 1.50002 8.1958L1.5 22.281C1.5 22.9541 2.04586 23.5 2.719 23.5C3.02559 23.5 3.32078 23.3847 3.54628 23.1763L8.75413 18.3694C8.76039 18.3636 8.76651 18.3577 8.77248 18.3516C9.18693 17.9278 9.38995 17.8566 9.49944 17.8566C9.60933 17.8567 9.81274 17.9284 10.2279 18.352C10.2338 18.358 10.2398 18.3638 10.2459 18.3694L15.4535 23.1761C15.679 23.3847 15.9743 23.5 16.281 23.5C16.9541 23.5 17.5 22.9541 17.5 22.281V14C17.5 13.7239 17.2761 13.5 17 13.5C16.7239 13.5 16.5 13.7239 16.5 14V22.281C16.5 22.4019 16.4019 22.5 16.281 22.5C16.2257 22.5 16.173 22.4793 16.1325 22.4419L10.9331 17.6429C10.5079 17.2106 10.0498 16.8568 9.49981 16.8566C8.94949 16.8564 8.49162 17.2101 8.06664 17.6431L2.86787 22.4416C2.8274 22.479 2.77432 22.5 2.719 22.5C2.59814 22.5 2.5 22.4019 2.5 22.281V8.2021C2.50159 8.01194 2.50242 7.83051 2.50321 7.65802C2.50868 6.46326 2.51792 5.7548 2.70721 5.20093C2.87698 4.70421 3.21023 4.29275 4.01838 3.79078Z" fill="#353566"/>
</svg>
