<svg width="24" height="24" viewBox="0 0 24 24" fill="none" xmlns="http://www.w3.org/2000/svg">
<path fill-rule="evenodd" clip-rule="evenodd" d="M18.0133 1.13647C17.6043 0.287841 16.3957 0.287845 15.9866 1.13647L14.9213 3.34645L12.4801 3.665C11.5385 3.78786 11.1633 4.95004 11.8553 5.6003L13.6335 7.27131L13.1858 9.66463C13.0121 10.5935 13.9916 11.3097 14.824 10.8625L17 9.69341L19.1759 10.8625C20.0083 11.3097 20.9878 10.5935 20.8141 9.66463L20.3664 7.27131L22.1446 5.6003C22.8366 4.95004 22.4614 3.78786 21.5198 3.665L19.0786 3.34645L18.0133 1.13647ZM16.8874 1.5707C16.9328 1.47643 17.0671 1.47644 17.1125 1.5707L18.1778 3.78069C18.3244 4.08476 18.6145 4.29436 18.9492 4.33804L21.3905 4.65659C21.495 4.67024 21.5367 4.79933 21.4599 4.87156L19.6816 6.54258C19.4331 6.77605 19.3208 7.12003 19.3834 7.45516L19.8311 9.8485C19.8504 9.95167 19.7416 10.0312 19.6492 9.98155L17.4732 8.81249C17.1777 8.65371 16.8222 8.65371 16.5267 8.81249L14.3508 9.98155C14.2583 10.0312 14.1495 9.95167 14.1688 9.8485L14.6165 7.45516C14.6792 7.12003 14.5668 6.77605 14.3183 6.54258L12.5401 4.87156C12.4632 4.79933 12.5049 4.67024 12.6095 4.65659L15.0507 4.33804C15.3854 4.29436 15.6755 4.08476 15.8221 3.78069L16.8874 1.5707Z" fill="#353566"/>
<path d="M5.10544 3.54259C4.60547 3.58341 4.28059 3.66095 4.01838 3.79078C3.21023 4.29275 2.87698 4.70421 2.70721 5.20093C2.51792 5.7548 2.50868 6.46317 2.50321 7.65792C2.50242 7.83042 2.50159 8.01194 2.5 8.2021V22.281C2.5 22.4019 2.59814 22.5 2.719 22.5C2.77432 22.5 2.8274 22.479 2.86787 22.4416L8.06664 17.6431C8.49162 17.2101 8.94949 16.8564 9.49981 16.8566C10.0498 16.8568 10.5079 17.2106 10.9331 17.6429L16.1325 22.4419C16.173 22.4793 16.2257 22.5 16.281 22.5C16.4019 22.5 16.5 22.4019 16.5 22.281V12.5667C16.5 12.2906 16.7239 12.0667 17 12.0667C17.2761 12.0667 17.5 12.2906 17.5 12.5667V22.281C17.5 22.9541 16.9541 23.5 16.281 23.5C15.9743 23.5 15.679 23.3847 15.4535 23.1761L10.2459 18.3694C10.2398 18.3638 10.2338 18.358 10.2279 18.352C9.81274 17.9284 9.60933 17.8567 9.49944 17.8566C9.38995 17.8566 9.18693 17.9278 8.77248 18.3516C8.76651 18.3577 8.76039 18.3636 8.75413 18.3694L3.54628 23.1763C3.32078 23.3847 3.02559 23.5 2.719 23.5C2.04586 23.5 1.5 22.9541 1.5 22.281L1.50002 8.1958C1.5016 8.00689 1.50243 7.82646 1.50323 7.65295L1.50357 7.5757C1.50845 6.48138 1.51236 5.60491 1.76095 4.87753C2.03363 4.0797 2.5767 3.50558 3.51134 2.92855C3.52297 2.92137 3.53489 2.91467 3.54707 2.90847C3.9768 2.68958 4.45117 2.59268 5.02406 2.54591C5.58644 2.49999 6.28608 2.5 7.17767 2.5H9.47311C9.74925 2.5 9.97311 2.72386 9.97311 3C9.97311 3.27614 9.74925 3.5 9.47311 3.5H7.2C6.28125 3.5 5.62237 3.50039 5.10544 3.54259Z" fill="#353566"/>
</svg>
