<svg width="24" height="24" viewBox="0 0 24 24" fill="none" xmlns="http://www.w3.org/2000/svg">
<path d="M7.49997 2.5C5.84311 2.5 4.49997 3.84315 4.49997 5.5V9.00004C4.49997 9.27619 4.27611 9.50004 3.99997 9.50004C3.72383 9.50004 3.49997 9.27619 3.49997 9.00004V5.5C3.49997 3.29086 5.29083 1.5 7.49997 1.5H20.5C21.6045 1.5 22.5 2.39543 22.5 3.5V15.5C22.5 16.6046 21.6045 17.5 20.5 17.5V21.5H22C22.2761 21.5 22.5 21.7239 22.5 22C22.5 22.2761 22.2761 22.5 22 22.5H15C14.7238 22.5 14.5 22.2761 14.5 22C14.5 21.7239 14.7238 21.5 15 21.5H19.5V17.5H13.7471C13.4709 17.5 13.2471 17.2761 13.2471 17C13.2471 16.7239 13.4709 16.5 13.7471 16.5H20.5C21.0523 16.5 21.5 16.0523 21.5 15.5V3.5C21.5 2.94772 21.0523 2.5 20.5 2.5H7.49997Z" fill="#353566"/>
<path fill-rule="evenodd" clip-rule="evenodd" d="M5.12242 11.8592C4.43618 11.3819 3.52549 11.3817 2.83906 11.8587C2.69183 11.9611 2.55034 12.1026 2.35949 12.2934L2.29338 12.3595C2.10232 12.5503 1.96067 12.6918 1.85825 12.839C1.38074 13.5253 1.38057 14.4363 1.85781 15.1228C1.96018 15.2701 2.10177 15.4116 2.29276 15.6025L8.26919 21.58C8.33566 21.6465 8.41953 21.6929 8.51116 21.7139L11.8883 22.4873C12.0561 22.5258 12.2319 22.4752 12.3536 22.3534C12.4753 22.2317 12.5258 22.0559 12.4873 21.8881L11.713 18.5147C11.692 18.4232 11.6456 18.3395 11.5792 18.2731L5.60184 12.2941C5.41106 12.1032 5.26961 11.9616 5.12242 11.8592ZM3.40973 12.6799C3.75294 12.4414 4.20829 12.4415 4.55141 12.6802C4.61536 12.7246 4.68928 12.7958 4.92765 13.0342L5.58307 13.6898L3.68862 15.5842L3.03298 14.9285C2.79452 14.69 2.72338 14.616 2.67891 14.552C2.44028 14.2088 2.44037 13.7533 2.67912 13.4101C2.72362 13.3462 2.79479 13.2722 3.03334 13.0338C3.27181 12.7955 3.34576 12.7244 3.40973 12.6799ZM4.39566 16.2914L8.87464 20.7712L11.3342 21.3345L10.7705 18.8785L6.29008 14.397L4.39566 16.2914Z" fill="#353566"/>
</svg>
