<svg width="24" height="24" viewBox="0 0 24 24" fill="none" xmlns="http://www.w3.org/2000/svg">
<g clip-path="url(#clip0_9001_279880)">
<g opacity="0.4">
<path d="M22.6936 8.25007C22.8431 8.25007 22.9178 8.25007 22.9678 8.21735C23.0106 8.18931 23.0424 8.14314 23.0534 8.09318C23.0663 8.03489 23.0405 7.96683 22.9888 7.83072C21.7105 4.46341 18.9288 1.83626 15.4635 0.768855C15.2293 0.696724 15.1122 0.660659 15.0446 0.689817C14.9852 0.715415 14.943 0.766223 14.9287 0.829293C14.9124 0.901134 14.9733 1.01722 15.095 1.24938C15.439 1.90528 15.7385 2.65684 15.9954 3.45865C16.4317 4.81982 16.7625 6.37955 16.9746 7.9697C16.988 8.06987 16.9946 8.11995 17.0181 8.15699C17.0388 8.18983 17.0682 8.21549 17.1035 8.23174C17.1433 8.25007 17.1933 8.25007 17.2934 8.25007H22.6936Z" fill="#353566"/>
<path d="M0.25 12.0001C0.25 11.3216 0.307497 10.6566 0.417883 10.0097C0.433277 9.91946 0.440974 9.87435 0.464705 9.83887C0.485285 9.80811 0.515505 9.78261 0.549294 9.76749C0.58826 9.75007 0.635208 9.75007 0.729103 9.75007H6.49307C6.61314 9.75007 6.67318 9.75007 6.71736 9.77368C6.75646 9.79458 6.78696 9.82715 6.80525 9.86753C6.82593 9.91316 6.82196 9.97367 6.81403 10.0947C6.77164 10.741 6.75 11.3799 6.75 12.0001C6.75 12.6202 6.77164 13.2591 6.81403 13.9055C6.82196 14.0265 6.82593 14.087 6.80525 14.1326C6.78696 14.173 6.75646 14.2056 6.71736 14.2265C6.67318 14.2501 6.61314 14.2501 6.49307 14.2501H0.729103C0.635208 14.2501 0.58826 14.2501 0.549295 14.2326C0.515505 14.2175 0.485285 14.192 0.464705 14.1613C0.440974 14.1258 0.433277 14.0807 0.417883 13.9904C0.307497 13.3435 0.25 12.6785 0.25 12.0001Z" fill="#353566"/>
<path d="M8.90491 22.7507C9.02666 22.9829 9.08754 23.099 9.07126 23.1708C9.05698 23.2339 9.01476 23.2847 8.95537 23.3103C8.88773 23.3395 8.77064 23.3034 8.53647 23.2313C5.07113 22.1639 2.28951 19.5367 1.0112 16.1694C0.959528 16.0333 0.933692 15.9652 0.946559 15.907C0.957587 15.857 0.989448 15.8108 1.03224 15.7828C1.08217 15.7501 1.15692 15.7501 1.30643 15.7501H6.70659C6.80668 15.7501 6.85673 15.7501 6.89654 15.7684C6.93184 15.7846 6.96115 15.8103 6.98192 15.8431C7.00535 15.8802 7.01203 15.9303 7.02539 16.0304C7.23747 17.6206 7.56826 19.1803 8.00453 20.5415C8.26151 21.3433 8.56093 22.0948 8.90491 22.7507Z" fill="#353566"/>
<path d="M20.3345 14.2501C20.3188 14.2501 20.3109 14.2501 20.3033 14.2495C20.2963 14.2489 20.2898 14.2481 20.2829 14.2469C20.2753 14.2455 20.2675 14.2434 20.2518 14.2393C19.5323 14.0506 18.7773 13.9501 17.9994 13.9501C17.8468 13.9501 17.6952 13.9539 17.5445 13.9616C17.4084 13.9685 17.3404 13.9719 17.2939 13.9491C17.2517 13.9284 17.221 13.8971 17.201 13.8546C17.179 13.8077 17.1835 13.7414 17.1925 13.6087C17.2305 13.0474 17.25 12.5071 17.25 12.0001C17.25 11.3799 17.2284 10.741 17.186 10.0947C17.178 9.97367 17.1741 9.91316 17.1947 9.86753C17.213 9.82715 17.2435 9.79458 17.2826 9.77368C17.3268 9.75007 17.3869 9.75007 17.5069 9.75007H23.2709C23.3648 9.75007 23.4117 9.75007 23.4507 9.76749C23.4845 9.78261 23.5147 9.80811 23.5353 9.83887C23.559 9.87435 23.5667 9.91946 23.5821 10.0097C23.6925 10.6566 23.75 11.3216 23.75 12.0001C23.75 12.6785 23.6925 13.3435 23.5821 13.9904C23.5667 14.0807 23.559 14.1258 23.5353 14.1613C23.5147 14.192 23.4845 14.2175 23.4507 14.2326C23.4117 14.2501 23.3648 14.2501 23.2709 14.2501H20.3345Z" fill="#353566"/>
<path d="M1.30643 8.25007C1.15692 8.25007 1.08217 8.25007 1.03224 8.21735C0.989448 8.18931 0.957587 8.14314 0.946559 8.09318C0.933692 8.03489 0.959528 7.96683 1.0112 7.83072C2.28951 4.46342 5.07113 1.83628 8.53647 0.768868C8.77064 0.696737 8.88773 0.660671 8.95537 0.689829C9.01476 0.715427 9.05698 0.766235 9.07126 0.829305C9.08754 0.901146 9.02666 1.01723 8.90491 1.24939C8.56093 1.90529 8.26151 2.65684 8.00453 3.45866C7.56826 4.81982 7.23747 6.37955 7.02539 7.9697C7.01203 8.06987 7.00535 8.11995 6.98192 8.15699C6.96115 8.18983 6.93184 8.21549 6.89654 8.23174C6.85673 8.25007 6.80668 8.25007 6.70659 8.25007H1.30643Z" fill="#353566"/>
</g>
<path d="M13.261 1.12664C12.7703 0.465464 12.3405 0.25 12 0.25C11.6594 0.25 11.2296 0.465463 10.739 1.12664C10.2572 1.7759 9.81126 2.73606 9.43295 3.91641C9.05092 5.10837 8.75238 6.47825 8.55078 7.88883C8.53316 8.01209 8.52435 8.07372 8.54345 8.12267C8.56009 8.16533 8.59159 8.20167 8.63147 8.22417C8.67723 8.25 8.74012 8.25 8.8659 8.25H15.1341C15.2599 8.25 15.3228 8.25 15.3685 8.22417C15.4084 8.20167 15.4399 8.16533 15.4565 8.12267C15.4756 8.07372 15.4668 8.01209 15.4492 7.88883C15.2476 6.47825 14.9491 5.10837 14.567 3.91642C14.1887 2.73606 13.7428 1.77591 13.261 1.12664Z" fill="#353566"/>
<path d="M10.739 22.8734C11.2294 23.5342 11.6517 23.75 12 23.75C12.3177 23.75 12.7372 23.5266 13.2448 22.7866C13.447 22.4918 13.6423 22.1417 13.8287 21.7454C13.8569 21.6856 13.871 21.6556 13.8752 21.626C13.8793 21.5977 13.878 21.5749 13.8708 21.5473C13.8633 21.5183 13.8427 21.4848 13.8014 21.4179C13.6226 21.1274 13.5218 20.8048 13.4541 20.4618C13.4375 20.3777 13.4292 20.3357 13.411 20.3056C13.3939 20.2772 13.3747 20.2576 13.3467 20.2399C13.317 20.2211 13.2751 20.2119 13.1914 20.1936C12.6847 20.0825 12.2245 19.8997 11.8516 19.4983C11.0058 18.5879 11.0582 17.1643 11.9686 16.3185C12.1572 16.1433 12.2515 16.0557 12.2657 15.9974C12.2866 15.9117 12.2551 15.8316 12.1815 15.783C12.1314 15.75 12.0079 15.75 11.7611 15.75H8.8659C8.74012 15.75 8.67723 15.75 8.63147 15.7758C8.59159 15.7983 8.56009 15.8347 8.54345 15.8773C8.52435 15.9263 8.53316 15.9879 8.55078 16.1112C8.75238 17.5218 9.05092 18.8916 9.43295 20.0836C9.81126 21.2639 10.2572 22.2241 10.739 22.8734Z" fill="#353566"/>
<path d="M15.6255 14.1512C15.6485 14.1121 15.6528 14.0614 15.6613 13.9602C15.7199 13.2698 15.75 12.608 15.75 12C15.75 11.3638 15.7259 10.7073 15.6791 10.0444C15.6719 9.94164 15.6682 9.89024 15.6455 9.85052C15.6255 9.81578 15.595 9.78734 15.559 9.76992C15.5177 9.75 15.4657 9.75 15.3616 9.75H8.63841C8.53431 9.75 8.48227 9.75 8.44104 9.76992C8.40499 9.78734 8.37446 9.81578 8.35455 9.85052C8.33177 9.89024 8.32814 9.94164 8.32089 10.0444C8.27409 10.7073 8.25 11.3638 8.25 12C8.25 12.6362 8.27409 13.2927 8.32089 13.9556C8.32814 14.0584 8.33177 14.1098 8.35455 14.1495C8.37446 14.1842 8.40499 14.2127 8.44104 14.2301C8.48227 14.25 8.53431 14.25 8.63841 14.25H15.3443C15.447 14.25 15.4984 14.25 15.5393 14.2304C15.575 14.2133 15.6055 14.1854 15.6255 14.1512Z" fill="#353566"/>
<path d="M13.5105 18.5127C14.6885 17.4182 16.2651 16.75 17.9993 16.75C19.7342 16.75 21.3112 17.4187 22.4894 18.5138C22.7928 18.7958 23.2673 18.7785 23.5493 18.4751C23.8313 18.1717 23.814 17.6971 23.5106 17.4151C22.0659 16.0723 20.1278 15.25 17.9993 15.25C15.8716 15.25 13.9341 16.0717 12.4895 17.4138C12.1861 17.6957 12.1686 18.1702 12.4505 18.4737C12.7325 18.7772 13.207 18.7946 13.5105 18.5127Z" fill="#353566"/>
<path d="M18.0032 20.0834C17.2185 20.0834 16.5008 20.4139 15.9697 20.9649C15.6823 21.2632 15.2075 21.2719 14.9092 20.9845C14.611 20.6971 14.6022 20.2223 14.8897 19.924C15.6831 19.1008 16.7827 18.5834 18.0032 18.5834C19.2237 18.5834 20.3233 19.1008 21.1168 19.924C21.4042 20.2223 21.3955 20.6971 21.0972 20.9845C20.799 21.2719 20.3242 21.2632 20.0367 20.9649C19.5057 20.4139 18.7879 20.0834 18.0032 20.0834Z" fill="#353566"/>
<path d="M18 21.5C17.4477 21.5 17 21.9477 17 22.5C17 23.0523 17.4477 23.5 18 23.5C18.5523 23.5 19.0001 23.0523 19.0001 22.5C19.0001 21.9477 18.5523 21.5 18 21.5Z" fill="#353566"/>
</g>
<defs>
<clipPath id="clip0_9001_279880">
<rect width="24" height="24" fill="white"/>
</clipPath>
</defs>
</svg>
