<svg width="24" height="24" viewBox="0 0 24 24" fill="none" xmlns="http://www.w3.org/2000/svg">
<path fill-rule="evenodd" clip-rule="evenodd" d="M9.75 2.75125C9.66147 2.75035 9.55485 2.75005 9.42452 2.75005H5.8C4.94755 2.75005 4.35331 2.75064 3.89068 2.78844C3.43681 2.82552 3.17604 2.89465 2.97852 2.99529C2.55516 3.21101 2.21095 3.55521 1.99524 3.97858C1.8946 4.17609 1.82547 4.43686 1.78838 4.89073C1.75058 5.35337 1.75 5.9476 1.75 6.80006V17.2001C1.75 18.0525 1.75058 18.6467 1.78838 19.1094C1.82547 19.5633 1.8946 19.824 1.99524 20.0215C2.21095 20.4449 2.55516 20.7891 2.97852 21.0048C3.17604 21.1055 3.43681 21.1746 3.89068 21.2117C4.35331 21.2495 4.94755 21.2501 5.8 21.2501H11.9524C12.3666 21.2501 12.7024 21.5858 12.7024 22.0001C12.7024 22.4143 12.3666 22.7501 11.9524 22.7501H5.76788C4.95505 22.7501 4.29944 22.7501 3.76853 22.7067C3.2219 22.662 2.74176 22.5677 2.29754 22.3413C1.59193 21.9818 1.01825 21.4081 0.658726 20.7025C0.432386 20.2583 0.338026 19.7782 0.293364 19.2315C0.249988 18.7006 0.249993 18.045 0.25 17.2322V6.76795C0.249993 5.95512 0.249988 5.29949 0.293364 4.76859C0.338026 4.22195 0.432386 3.74181 0.658726 3.29759C1.01825 2.59198 1.59193 2.01831 2.29754 1.65878C2.74176 1.43244 3.2219 1.33808 3.76853 1.29342C4.29944 1.25004 4.95506 1.25005 5.7679 1.25005L9.49699 1.25003C9.91561 1.24978 10.2451 1.24959 10.5635 1.32604C10.8441 1.3934 11.1124 1.50452 11.3584 1.65529C11.6377 1.82639 11.8705 2.05954 12.1664 2.35572L16.6443 6.83369C16.9405 7.12952 17.1737 7.3624 17.3448 7.64161C17.4955 7.88766 17.6067 8.15591 17.674 8.43651C17.7216 8.63454 17.738 8.82396 17.7449 9.02657C17.7588 9.44055 17.4345 9.78745 17.0205 9.80139C16.6663 9.81332 16.3612 9.57765 16.2718 9.25006H12.5C10.9812 9.25006 9.75 8.01884 9.75 6.50006V2.75125ZM15.4393 7.75006L11.25 3.56071V6.50006C11.25 7.19042 11.8096 7.75006 12.5 7.75006H15.4393Z" fill="#353566"/>
<path fill-rule="evenodd" clip-rule="evenodd" d="M18.25 15.1251C17.2145 15.1251 16.375 15.9645 16.375 17.0001C16.375 18.0356 17.2145 18.8751 18.25 18.8751C19.2855 18.8751 20.125 18.0356 20.125 17.0001C20.125 15.9645 19.2855 15.1251 18.25 15.1251ZM17.625 17.0001C17.625 16.6549 17.9048 16.3751 18.25 16.3751C18.5952 16.3751 18.875 16.6549 18.875 17.0001C18.875 17.3452 18.5952 17.6251 18.25 17.6251C17.9048 17.6251 17.625 17.3452 17.625 17.0001Z" fill="#353566"/>
<path fill-rule="evenodd" clip-rule="evenodd" d="M12.9679 19.3369C12.5193 18.5584 12.785 17.5624 13.5634 17.1122C13.6492 17.0626 13.6492 16.9374 13.5634 16.8878C12.785 16.4376 12.5193 15.4416 12.9679 14.6631L13.5876 13.5878C14.0367 12.8086 15.0325 12.5406 15.8118 12.9913C15.8949 13.0394 16.0026 12.9806 16.0026 12.8792C16.0026 11.9807 16.7301 11.2501 17.6302 11.2501H18.8697C19.7699 11.2501 20.4973 11.9807 20.4973 12.8792C20.4973 12.9807 20.6051 13.0394 20.6882 12.9913C21.4674 12.5406 22.4632 12.8086 22.9123 13.5879L23.5321 14.6632C23.9807 15.4416 23.715 16.4376 22.9365 16.8879C22.8508 16.9374 22.8508 17.0626 22.9365 17.1121C23.715 17.5624 23.9807 18.5584 23.5321 19.3368L22.9123 20.4121C22.4632 21.1914 21.4674 21.4594 20.6882 21.0087C20.6052 20.9606 20.4973 21.0193 20.4973 21.1208C20.4973 22.0193 19.7699 22.7501 18.8697 22.7501H17.6303C16.7301 22.7501 16.0026 22.0194 16.0026 21.1209C16.0026 21.0194 15.8948 20.9607 15.8118 21.0087C15.0325 21.4594 14.0367 21.1914 13.5876 20.4122L12.9679 19.3369ZM14.3144 18.4106C14.2534 18.4459 14.2315 18.5253 14.2675 18.5879L14.8872 19.6632C14.9228 19.725 15.0005 19.7451 15.0607 19.7103C16.1478 19.0815 17.5026 19.8688 17.5026 21.1209C17.5026 21.1935 17.5611 21.2501 17.6303 21.2501H18.8697C18.9389 21.2501 18.9973 21.1935 18.9973 21.1208C18.9973 19.8688 20.3521 19.0814 21.4392 19.7102C21.4995 19.745 21.5771 19.7249 21.6127 19.6631L22.2325 18.5878C22.2685 18.5253 22.2466 18.4459 22.1855 18.4106C21.1012 17.7834 21.1012 16.2166 22.1855 15.5894C22.2466 15.5541 22.2685 15.4747 22.2325 15.4122L21.6127 14.3369C21.5771 14.2751 21.4995 14.255 21.4392 14.2898C20.3521 14.9185 18.9973 14.1313 18.9973 12.8792C18.9973 12.8066 18.9389 12.7501 18.8697 12.7501H17.6302C17.561 12.7501 17.5026 12.8066 17.5026 12.8792C17.5026 14.1313 16.1478 14.9185 15.0608 14.2898C15.0005 14.2549 14.9228 14.2751 14.8872 14.3368L14.2675 15.4121C14.2315 15.4747 14.2534 15.5541 14.3144 15.5894C15.3988 16.2166 15.3988 17.7834 14.3144 18.4106Z" fill="#353566"/>
</svg>
