<svg width="24" height="24" viewBox="0 0 24 24" fill="none" xmlns="http://www.w3.org/2000/svg">
<path fill-rule="evenodd" clip-rule="evenodd" d="M17.25 13.0001V9.25006H13.5C11.9812 9.25006 10.75 8.01884 10.75 6.50006V2.75008H6.8C5.94755 2.75008 5.35331 2.75066 4.89068 2.78846C4.43681 2.82554 4.17604 2.89467 3.97852 2.99531C3.55516 3.21103 3.21095 3.55523 2.99524 3.9786C2.8946 4.17611 2.82547 4.43688 2.78838 4.89076C2.75058 5.35339 2.75 5.94762 2.75 6.80008V17.2001C2.75 18.0525 2.75058 18.6468 2.78838 19.1094C2.82547 19.5633 2.8946 19.824 2.99524 20.0216C3.21095 20.4449 3.55516 20.7891 3.97852 21.0048C4.26316 21.1499 4.65693 21.2211 5.51779 21.2415C5.93188 21.2513 6.25961 21.595 6.24979 22.0091C6.23997 22.4232 5.89631 22.7509 5.48222 22.7411C4.6126 22.7205 3.91224 22.6546 3.29754 22.3414C2.59193 21.9818 2.01825 21.4081 1.65873 20.7025C1.43239 20.2583 1.33803 19.7782 1.29336 19.2315C1.24999 18.7006 1.24999 18.045 1.25 17.2322V6.76797C1.24999 5.95514 1.24999 5.29951 1.29336 4.76861C1.33803 4.22197 1.43239 3.74183 1.65873 3.29761C2.01825 2.592 2.59193 2.01833 3.29754 1.6588C3.74176 1.43246 4.2219 1.3381 4.76853 1.29344C5.29944 1.25006 5.95506 1.25007 6.7679 1.25008L10.8184 1.25004C11.1235 1.24975 11.3926 1.2495 11.6539 1.31224C11.8835 1.36736 12.103 1.45827 12.3043 1.58164C12.5335 1.72206 12.7235 1.91249 12.9391 2.12847L17.8716 7.06095C18.0876 7.27654 18.278 7.46662 18.4184 7.69577C18.5418 7.89709 18.6327 8.11656 18.6878 8.34615C18.7506 8.60748 18.7503 8.87654 18.75 9.18171L18.75 13.0001C18.75 13.4143 18.4142 13.7501 18 13.7501C17.5858 13.7501 17.25 13.4143 17.25 13.0001ZM12.25 6.50006V3.56074L16.4393 7.75006H13.5C12.8096 7.75006 12.25 7.19042 12.25 6.50006ZM12.4529 2.70301L12.25 2.90595V2.88594L12.4529 2.70301Z" fill="#353566"/>
<path d="M21.0989 22.1961C21.0103 22.5231 20.7136 22.7501 20.3749 22.7501C20.0362 22.7501 19.7396 22.5231 19.651 22.1961L18.026 16.1961C17.9177 15.7963 18.1541 15.3844 18.5539 15.2761C18.9537 15.1679 19.3656 15.4042 19.4739 15.804L20.3749 19.1311L21.276 15.804C21.3843 15.4042 21.7962 15.1679 22.196 15.2761C22.5958 15.3844 22.8321 15.7963 22.7239 16.1961L21.0989 22.1961Z" fill="#353566"/>
<path d="M7.81742 15.2726C8.15097 15.1889 8.49872 15.3428 8.66111 15.6459L9.875 17.9118L11.0889 15.6459C11.2513 15.3428 11.599 15.1889 11.9326 15.2726C12.2661 15.3564 12.5 15.6562 12.5 16.0001V22.0001C12.5 22.4143 12.1642 22.7501 11.75 22.7501C11.3358 22.7501 11 22.4143 11 22.0001V18.9883L10.5361 19.8542C10.4055 20.098 10.1515 20.2501 9.875 20.2501C9.59851 20.2501 9.34445 20.098 9.21389 19.8542L8.75 18.9883V22.0001C8.75 22.4143 8.41421 22.7501 8 22.7501C7.58579 22.7501 7.25 22.4143 7.25 22.0001V16.0001C7.25 15.6562 7.48388 15.3564 7.81742 15.2726Z" fill="#353566"/>
<path fill-rule="evenodd" clip-rule="evenodd" d="M15.25 15.2501C14.2835 15.2501 13.5 16.0336 13.5 17.0001V21.0001C13.5 21.9666 14.2835 22.7501 15.25 22.7501H15.75C16.7165 22.7501 17.5 21.9666 17.5 21.0001V17.0001C17.5 16.0336 16.7165 15.2501 15.75 15.2501H15.25ZM15 17.0001C15 16.862 15.1119 16.7501 15.25 16.7501H15.75C15.8881 16.7501 16 16.862 16 17.0001V21.0001C16 21.1381 15.8881 21.2501 15.75 21.2501H15.25C15.1119 21.2501 15 21.1381 15 21.0001V17.0001Z" fill="#353566"/>
</svg>
