<svg width="24" height="24" viewBox="0 0 24 24" fill="none" xmlns="http://www.w3.org/2000/svg">
<path fill-rule="evenodd" clip-rule="evenodd" d="M14.5834 13.125C14.5834 12.7108 14.2476 12.375 13.8334 12.375C13.4192 12.375 13.0834 12.7108 13.0834 13.125V13.75H11.7221C11.603 13.356 11.3877 12.9848 11.0762 12.6733C10.0674 11.6645 8.43204 11.6645 7.42323 12.6733C6.41442 13.6821 6.41442 15.3175 7.42323 16.3263C8.43204 17.3351 10.0674 17.3351 11.0762 16.3263C11.3876 16.0149 11.6028 15.6439 11.722 15.25H13.8157C13.8216 15.2502 13.8275 15.2502 13.8334 15.2502C13.8393 15.2502 13.8451 15.2502 13.851 15.25H16.5834C16.9976 15.25 17.3334 14.9142 17.3334 14.5V12.6667C17.3334 12.2525 16.9976 11.9167 16.5834 11.9167C16.1692 11.9167 15.8334 12.2525 15.8334 12.6667V13.75H14.5834V13.125ZM10.0156 13.734C9.59254 13.3109 8.90692 13.3109 8.48389 13.734C8.06087 14.157 8.06087 14.8426 8.48389 15.2656C8.90692 15.6887 9.59254 15.6887 10.0156 15.2656C10.4386 14.8426 10.4386 14.157 10.0156 13.734Z" fill="#353566"/>
<path fill-rule="evenodd" clip-rule="evenodd" d="M12.497 1.24997C12.9156 1.24972 13.2451 1.24953 13.5635 1.32598C13.8441 1.39334 14.1124 1.50445 14.3584 1.65523C14.6376 1.82633 14.8705 2.05946 15.1663 2.35562L19.6443 6.83364C19.9405 7.12947 20.1737 7.36234 20.3448 7.64155C20.4955 7.8876 20.6067 8.15585 20.674 8.43645C20.7505 8.75486 20.7503 9.08439 20.75 9.503L20.75 17.2321C20.75 18.0449 20.75 18.7006 20.7066 19.2315C20.662 19.7781 20.5676 20.2582 20.3413 20.7025C19.9817 21.4081 19.4081 21.9817 18.7025 22.3413C18.2582 22.5676 17.7781 22.662 17.2315 22.7066C16.7006 22.75 16.045 22.75 15.2321 22.75H8.76788C7.95505 22.75 7.29944 22.75 6.76853 22.7066C6.2219 22.662 5.74175 22.5676 5.29754 22.3413C4.59193 21.9817 4.01825 21.4081 3.65873 20.7025C3.43239 20.2582 3.33803 19.7781 3.29336 19.2315C3.24999 18.7006 3.24999 18.0449 3.25 17.2321V6.76789C3.24999 5.95505 3.24999 5.29943 3.29336 4.76853C3.33803 4.22189 3.43239 3.74175 3.65873 3.29753C4.01825 2.59192 4.59193 2.01824 5.29754 1.65872C5.74175 1.43238 6.2219 1.33802 6.76853 1.29336C7.29944 1.24998 7.95506 1.24999 8.7679 1.24999L12.497 1.24997ZM12.4245 2.74999C12.5549 2.74999 12.6615 2.75029 12.75 2.75119V6.5C12.75 8.01878 13.9812 9.25 15.5 9.25H19.2488C19.2497 9.33853 19.25 9.44515 19.25 9.57548V17.2C19.25 18.0524 19.2494 18.6467 19.2116 19.1093C19.1745 19.5632 19.1054 19.824 19.0048 20.0215C18.789 20.4448 18.4448 20.789 18.0215 21.0048C17.824 21.1054 17.5632 21.1745 17.1093 21.2116C16.6467 21.2494 16.0525 21.25 15.2 21.25H8.8C7.94755 21.25 7.35331 21.2494 6.89068 21.2116C6.43681 21.1745 6.17604 21.1054 5.97852 21.0048C5.55516 20.789 5.21095 20.4448 4.99524 20.0215C4.8946 19.824 4.82547 19.5632 4.78838 19.1093C4.75058 18.6467 4.75 18.0524 4.75 17.2V6.79999C4.75 5.94754 4.75058 5.3533 4.78838 4.89067C4.82547 4.4368 4.8946 4.17603 4.99524 3.97852C5.21095 3.55515 5.55516 3.21094 5.97852 2.99523C6.17604 2.89459 6.43681 2.82546 6.89068 2.78838C7.35331 2.75058 7.94755 2.74999 8.8 2.74999H12.4245ZM14.25 3.56065L18.4393 7.75H15.5C14.8096 7.75 14.25 7.19036 14.25 6.5V3.56065Z" fill="#353566"/>
</svg>
