<svg width="24" height="24" viewBox="0 0 24 24" fill="none" xmlns="http://www.w3.org/2000/svg">
<path fill-rule="evenodd" clip-rule="evenodd" d="M9.75 2.75125C9.66147 2.75035 9.55485 2.75005 9.42452 2.75005H5.8C4.94755 2.75005 4.35331 2.75064 3.89068 2.78844C3.43681 2.82552 3.17604 2.89465 2.97852 2.99529C2.55516 3.21101 2.21095 3.55521 1.99524 3.97858C1.8946 4.17609 1.82547 4.43686 1.78838 4.89073C1.75058 5.35337 1.75 5.9476 1.75 6.80006V17.2001C1.75 18.0525 1.75058 18.6467 1.78838 19.1094C1.82547 19.5633 1.8946 19.824 1.99524 20.0215C2.21095 20.4449 2.55516 20.7891 2.97852 21.0048C3.17604 21.1055 3.43681 21.1746 3.89068 21.2117C4.35331 21.2495 4.94755 21.2501 5.8 21.2501H12.2808C12.695 21.2501 13.0308 21.5858 13.0308 22.0001C13.0308 22.4143 12.695 22.7501 12.2808 22.7501H5.76788C4.95505 22.7501 4.29944 22.7501 3.76853 22.7067C3.2219 22.662 2.74176 22.5677 2.29754 22.3413C1.59193 21.9818 1.01825 21.4081 0.658726 20.7025C0.432386 20.2583 0.338026 19.7782 0.293364 19.2315C0.249988 18.7006 0.249993 18.045 0.25 17.2322V6.76795C0.249993 5.95512 0.249988 5.29949 0.293364 4.76859C0.338026 4.22195 0.432386 3.74181 0.658726 3.29759C1.01825 2.59198 1.59193 2.01831 2.29754 1.65878C2.74176 1.43244 3.2219 1.33808 3.76853 1.29342C4.29944 1.25004 4.95506 1.25005 5.7679 1.25005L9.49699 1.25003C9.91561 1.24978 10.2451 1.24959 10.5635 1.32604C10.8441 1.3934 11.1124 1.50452 11.3584 1.65529C11.6377 1.82639 11.8705 2.05954 12.1664 2.35572L16.6443 6.83369C16.9405 7.12952 17.1737 7.3624 17.3448 7.64161C17.4955 7.88766 17.6067 8.15591 17.674 8.43651C17.7505 8.75492 17.7503 9.08445 17.75 9.50306L17.75 11.0637C17.75 11.4779 17.4142 11.8137 17 11.8137C16.5858 11.8137 16.25 11.4779 16.25 11.0637V9.57554C16.25 9.44521 16.2497 9.33859 16.2488 9.25006H12.5C10.9812 9.25006 9.75 8.01884 9.75 6.50006V2.75125ZM15.4393 7.75006L11.25 3.56071V6.50006C11.25 7.19042 11.8096 7.75006 12.5 7.75006H15.4393Z" fill="#353566"/>
<path fill-rule="evenodd" clip-rule="evenodd" d="M15.1359 18.8391C14.586 19.2515 14.25 19.8452 14.25 20.4999C14.25 21.1545 14.586 21.7483 15.1359 22.1607C15.6777 22.5671 16.3551 22.7501 17.0003 22.7501C17.6454 22.7501 18.3228 22.5671 18.8647 22.1607C19.4135 21.7491 19.7492 21.1568 19.7505 20.5037C19.7505 20.5024 19.7505 20.5011 19.7505 20.4999V16.3117L22.671 15.4599C23.311 15.2733 23.751 14.6865 23.751 14.0198V12.6255C23.751 11.7088 22.871 11.0488 21.9909 11.3054L19.5106 12.0289C18.7639 12.2467 18.2505 12.9312 18.2505 13.709V18.4917C17.8507 18.3267 17.4187 18.2497 17.0003 18.2497C16.3551 18.2497 15.6777 18.4327 15.1359 18.8391ZM17.0003 19.7497C16.6216 19.7497 16.2752 19.8596 16.0359 20.0391C15.8046 20.2125 15.75 20.3867 15.75 20.4999C15.75 20.6131 15.8046 20.7872 16.0359 20.9607C16.2752 21.1402 16.6216 21.2501 17.0003 21.2501C17.3789 21.2501 17.7254 21.1402 17.9647 20.9607C18.1959 20.7872 18.2505 20.6131 18.2505 20.4999C18.2505 20.3867 18.1959 20.2125 17.9647 20.0391C17.7254 19.8596 17.3789 19.7497 17.0003 19.7497ZM19.9306 13.4689L22.251 12.7921L22.251 14.0199L19.7505 14.7492V13.709C19.7505 13.5978 19.8239 13.5 19.9306 13.4689Z" fill="#353566"/>
</svg>
