<svg width="24" height="24" viewBox="0 0 24 24" fill="none" xmlns="http://www.w3.org/2000/svg">
<path fill-rule="evenodd" clip-rule="evenodd" d="M14.107 10.1499C14.558 10.0189 15.033 10.1049 15.409 10.3869C15.785 10.6699 16.001 11.0999 16.001 11.5699V16.4649C16.001 16.9619 15.769 17.4409 15.365 17.7769C14.601 18.4159 13.402 18.4149 12.637 17.7769C12.233 17.4409 12.001 16.9629 12.001 16.4649C12.001 15.9669 12.233 15.4889 12.637 15.1519C13.149 14.7239 13.859 14.5829 14.501 14.7299V13.9219L11.035 14.9329L11 18.1319C11 18.6289 10.768 19.1069 10.364 19.4439C9.982 19.7629 9.491 19.9219 9 19.9219C8.509 19.9219 8.018 19.7629 7.636 19.4439C7.232 19.1079 7 18.6299 7 18.1319C7 17.6339 7.232 17.1559 7.636 16.8189C8.149 16.3909 8.86 16.2519 9.5 16.3969V12.6809C9.5 11.9809 9.97 11.3559 10.641 11.1609L14.107 10.1499ZM8.596 18.2919C8.808 18.4679 9.193 18.4679 9.404 18.2919C9.466 18.2399 9.5 18.1829 9.5 18.1319C9.5 18.0799 9.466 18.0229 9.404 17.9709C9.298 17.8829 9.149 17.8389 9 17.8389C8.851 17.8389 8.702 17.8829 8.597 17.9709C8.534 18.0229 8.5 18.0799 8.5 18.1319C8.5 18.1829 8.534 18.2399 8.596 18.2919ZM13.597 16.6249C13.809 16.8009 14.193 16.8019 14.405 16.6249C14.467 16.5729 14.501 16.5159 14.501 16.4649C14.501 16.4129 14.467 16.3559 14.405 16.3039C14.299 16.2159 14.15 16.1719 14.001 16.1719C13.852 16.1719 13.703 16.2159 13.597 16.3039C13.535 16.3559 13.501 16.4129 13.501 16.4649C13.501 16.5159 13.535 16.5729 13.597 16.6249ZM11.052 13.3659L14.501 12.3599L14.5 11.5699L11.06 12.6009L11.052 13.3659Z" fill="#353566"/>
<path fill-rule="evenodd" clip-rule="evenodd" d="M12.497 1.25003C12.9156 1.24978 13.2451 1.24959 13.5635 1.32604C13.8441 1.3934 14.1124 1.50452 14.3584 1.65529C14.6376 1.82639 14.8705 2.05956 15.1664 2.35572L19.6443 6.8337C19.9405 7.12953 20.1737 7.3624 20.3448 7.64161C20.4955 7.88766 20.6067 8.15591 20.674 8.43651C20.7505 8.75492 20.7503 9.08445 20.75 9.50307L20.75 17.2322C20.75 18.045 20.75 18.7006 20.7066 19.2315C20.662 19.7782 20.5676 20.2583 20.3413 20.7025C19.9817 21.4081 19.4081 21.9818 18.7025 22.3413C18.2582 22.5677 17.7781 22.662 17.2315 22.7067C16.7006 22.7501 16.045 22.7501 15.2321 22.7501H8.76788C7.95505 22.7501 7.29944 22.7501 6.76853 22.7067C6.2219 22.662 5.74175 22.5677 5.29754 22.3413C4.59193 21.9818 4.01825 21.4081 3.65873 20.7025C3.43239 20.2583 3.33803 19.7782 3.29336 19.2315C3.24999 18.7006 3.24999 18.045 3.25 17.2322V6.76794C3.24999 5.9551 3.24999 5.29949 3.29336 4.76859C3.33803 4.22195 3.43239 3.74181 3.65873 3.29759C4.01825 2.59198 4.59193 2.01831 5.29754 1.65878C5.74175 1.43244 6.2219 1.33808 6.76853 1.29342C7.29944 1.25004 7.95506 1.25005 8.7679 1.25005L12.497 1.25003ZM12.4245 2.75006C12.5549 2.75006 12.6615 2.75035 12.75 2.75125V6.5C12.75 8.01878 13.9812 9.25 15.5 9.25H19.2488C19.2497 9.33854 19.25 9.44518 19.25 9.57554V17.2001C19.25 18.0525 19.2494 18.6467 19.2116 19.1094C19.1745 19.5633 19.1054 19.824 19.0048 20.0215C18.789 20.4449 18.4448 20.7891 18.0215 21.0048C17.824 21.1055 17.5632 21.1746 17.1093 21.2117C16.6467 21.2495 16.0525 21.2501 15.2 21.2501H8.8C7.94755 21.2501 7.35331 21.2495 6.89068 21.2117C6.43681 21.1746 6.17604 21.1055 5.97852 21.0048C5.55516 20.7891 5.21095 20.4449 4.99524 20.0215C4.8946 19.824 4.82547 19.5633 4.78838 19.1094C4.75058 18.6467 4.75 18.0525 4.75 17.2001V6.80006C4.75 5.9476 4.75058 5.35337 4.78838 4.89073C4.82547 4.43686 4.8946 4.17609 4.99524 3.97858C5.21095 3.55521 5.55516 3.21101 5.97852 2.99529C6.17604 2.89465 6.43681 2.82552 6.89068 2.78844C7.35331 2.75064 7.94755 2.75006 8.8 2.75006H12.4245ZM14.25 3.56071L18.4393 7.75H15.5C14.8096 7.75 14.25 7.19036 14.25 6.5V3.56071Z" fill="#353566"/>
</svg>
