<svg width="24" height="24" viewBox="0 0 24 24" fill="none" xmlns="http://www.w3.org/2000/svg">
<path fill-rule="evenodd" clip-rule="evenodd" d="M9.75 2.75125C9.66147 2.75035 9.55485 2.75005 9.42452 2.75005H5.8C4.94755 2.75005 4.35331 2.75064 3.89068 2.78844C3.43681 2.82552 3.17604 2.89465 2.97852 2.99529C2.55516 3.21101 2.21095 3.55521 1.99524 3.97858C1.8946 4.17609 1.82547 4.43686 1.78838 4.89073C1.75058 5.35337 1.75 5.9476 1.75 6.80006V17.2001C1.75 18.0525 1.75058 18.6467 1.78838 19.1094C1.82547 19.5633 1.8946 19.824 1.99524 20.0215C2.21095 20.4449 2.55516 20.7891 2.97852 21.0048C3.17604 21.1055 3.43681 21.1746 3.89068 21.2117C4.35331 21.2495 4.94755 21.2501 5.8 21.2501H11.7548C12.169 21.2501 12.5048 21.5858 12.5048 22.0001C12.5048 22.4143 12.169 22.7501 11.7548 22.7501H5.76788C4.95505 22.7501 4.29944 22.7501 3.76853 22.7067C3.2219 22.662 2.74176 22.5677 2.29754 22.3413C1.59193 21.9818 1.01825 21.4081 0.658726 20.7025C0.432386 20.2583 0.338026 19.7782 0.293364 19.2315C0.249988 18.7006 0.249993 18.045 0.25 17.2322V6.76795C0.249993 5.95512 0.249988 5.29949 0.293364 4.76859C0.338026 4.22195 0.432386 3.74181 0.658726 3.29759C1.01825 2.59198 1.59193 2.01831 2.29754 1.65878C2.74176 1.43244 3.2219 1.33808 3.76853 1.29342C4.29944 1.25004 4.95506 1.25005 5.7679 1.25005L9.49699 1.25003C9.91561 1.24978 10.2451 1.24959 10.5635 1.32604C10.8441 1.3934 11.1124 1.50452 11.3584 1.65529C11.6377 1.82639 11.8705 2.05954 12.1664 2.35572L16.6443 6.83369C16.9405 7.12952 17.1737 7.3624 17.3448 7.64161C17.4955 7.88766 17.6067 8.15591 17.674 8.43651C17.7505 8.75492 17.7503 9.08445 17.75 9.50306L17.75 11.0631C17.75 11.4773 17.4142 11.8131 17 11.8131C16.5858 11.8131 16.25 11.4773 16.25 11.0631V9.57554C16.25 9.44521 16.2497 9.33859 16.2488 9.25006H12.5C10.9812 9.25006 9.75 8.01884 9.75 6.50006V2.75125ZM15.4393 7.75006L11.25 3.56071V6.50006C11.25 7.19042 11.8096 7.75006 12.5 7.75006H15.4393Z" fill="#353566"/>
<path fill-rule="evenodd" clip-rule="evenodd" d="M18 15.8751C16.8252 15.8751 15.875 16.8253 15.875 18.0001C15.875 19.1748 16.8252 20.1251 18 20.1251C19.1748 20.1251 20.125 19.1748 20.125 18.0001C20.125 16.8253 19.1748 15.8751 18 15.8751ZM17.125 18.0001C17.125 17.5156 17.5156 17.1251 18 17.1251C18.4844 17.1251 18.875 17.5156 18.875 18.0001C18.875 18.4845 18.4844 18.8751 18 18.8751C17.5156 18.8751 17.125 18.4845 17.125 18.0001Z" fill="#353566"/>
<path fill-rule="evenodd" clip-rule="evenodd" d="M18 13.2501C20.3145 13.2501 22.5739 14.665 23.6301 17.3628C23.79 17.7711 23.79 18.229 23.6301 18.6373C22.5739 21.3351 20.3145 22.7501 18 22.7501C15.6855 22.7501 13.4261 21.3351 12.3699 18.6373C12.21 18.2291 12.21 17.7711 12.3699 17.3628C13.4261 14.665 15.6855 13.2501 18 13.2501ZM18 14.7501C16.3319 14.7501 14.6086 15.7592 13.7667 17.9096C13.7444 17.9664 13.7444 18.0338 13.7667 18.0905C14.6086 20.2409 16.3319 21.2501 18 21.2501C19.6681 21.2501 21.3914 20.2409 22.2333 18.0905C22.2556 18.0338 22.2556 17.9664 22.2333 17.9096C21.3914 15.7592 19.6681 14.7501 18 14.7501Z" fill="#353566"/>
</svg>
