<svg width="24" height="24" viewBox="0 0 24 24" fill="none" xmlns="http://www.w3.org/2000/svg">
<g clip-path="url(#clip0_9001_276005)">
<path opacity="0.4" d="M12.1959 20.9292C11.8038 20.976 11.4047 21 11 21C9.06255 21 7.25379 20.449 5.72187 19.4952C5.58775 19.4117 5.42294 19.3917 5.27446 19.4457L3.01384 20.2677C2.21582 20.5579 1.44212 19.7842 1.73231 18.9862L2.55435 16.7255C2.60834 16.5771 2.5883 16.4122 2.5048 16.2781C1.55098 14.7462 1 12.9374 1 11C1 5.47715 5.47715 1 11 1C16.5228 1 21 5.47715 21 11C21 11.4047 20.976 11.8038 20.9292 12.1959C20.049 11.7508 19.0538 11.5 18 11.5C14.4101 11.5 11.5 14.4101 11.5 18C11.5 19.0538 11.7508 20.049 12.1959 20.9292Z" fill="#353566"/>
<path d="M11 1.5C5.75329 1.5 1.5 5.75329 1.5 11C1.5 12.8414 2.02337 14.5589 2.92925 16.0139C3.09031 16.2725 3.13301 16.5973 3.02425 16.8964L2.2022 19.157C2.05711 19.556 2.44396 19.9429 2.84297 19.7978L5.10359 18.9758C5.4027 18.867 5.72746 18.9097 5.98614 19.0708C7.44107 19.9766 9.15865 20.5 11 20.5C11.3301 20.5 11.6563 20.4832 11.9777 20.4503C12.1124 20.7812 12.2737 21.0984 12.4588 21.3995C11.982 21.4657 11.495 21.5 11 21.5C8.96646 21.5 7.06652 20.9214 5.45759 19.9197C5.45022 19.9151 5.44563 19.9156 5.44492 19.9157L3.18471 20.7376C1.98767 21.1729 0.827123 20.0123 1.26241 18.8153L2.08431 16.5551C2.08442 16.5544 2.08493 16.5498 2.08034 16.5424C1.07859 14.9335 0.5 13.0335 0.5 11C0.5 5.20101 5.20101 0.5 11 0.5C16.799 0.5 21.5 5.20101 21.5 11C21.5 11.495 21.4657 11.982 21.3995 12.4588C21.0984 12.2737 20.7812 12.1124 20.4503 11.9777C20.4832 11.6563 20.5 11.3301 20.5 11C20.5 5.75329 16.2467 1.5 11 1.5Z" fill="#353566"/>
<path d="M11 10.25C10.5858 10.25 10.25 10.5858 10.25 11C10.25 11.4142 10.5858 11.75 11 11.75C11.4142 11.75 11.7501 11.4142 11.7501 11C11.7501 10.5858 11.4142 10.25 11 10.25Z" fill="#353566"/>
<path d="M6.25 11C6.25 10.5858 6.58579 10.25 7 10.25C7.41421 10.25 7.7501 10.5858 7.7501 11C7.7501 11.4142 7.41431 11.75 7.0001 11.75C6.58589 11.75 6.25 11.4142 6.25 11Z" fill="#353566"/>
<path d="M15 10.25C14.5858 10.25 14.25 10.5858 14.25 11C14.25 11.4142 14.5858 11.75 15 11.75C15.4142 11.75 15.7501 11.4142 15.7501 11C15.7501 10.5858 15.4142 10.25 15 10.25Z" fill="#353566"/>
<path d="M18.5 15.5C18.5 15.2239 18.2761 15 18 15C17.7239 15 17.5 15.2239 17.5 15.5V18.0001C17.5 18.1672 17.5836 18.3234 17.7227 18.4161L19.2227 19.416C19.4524 19.5692 19.7629 19.5071 19.916 19.2773C20.0692 19.0476 20.0071 18.7371 19.7773 18.584L18.5 17.7325V15.5Z" fill="#353566"/>
<path fill-rule="evenodd" clip-rule="evenodd" d="M12.5 18C12.5 14.9624 14.9624 12.5 18 12.5C21.0376 12.5 23.5 14.9624 23.5 18C23.5 21.0376 21.0376 23.5 18 23.5C14.9624 23.5 12.5 21.0376 12.5 18ZM18 13.5C15.5147 13.5 13.5 15.5147 13.5 18C13.5 20.4853 15.5147 22.5 18 22.5C20.4853 22.5 22.5 20.4853 22.5 18C22.5 15.5147 20.4853 13.5 18 13.5Z" fill="#353566"/>
</g>
<defs>
<clipPath id="clip0_9001_276005">
<rect width="24" height="24" fill="white"/>
</clipPath>
</defs>
</svg>
