<svg width="24" height="24" viewBox="0 0 24 24" fill="none" xmlns="http://www.w3.org/2000/svg">
<g opacity="0.4">
<path d="M4.92893 4.92893C3.11929 6.73858 2 9.23858 2 12C2 13.9374 2.55098 15.7462 3.5048 17.2781C3.5883 17.4122 3.60834 17.5771 3.55435 17.7255L2.73231 19.9862C2.44212 20.7842 3.21582 21.5579 4.01384 21.2677L6.27446 20.4457C6.42294 20.3917 6.58775 20.4117 6.72187 20.4952C8.25379 21.449 10.0626 22 12 22C14.7614 22 17.2614 20.8807 19.0711 19.0711L4.92893 4.92893Z" fill="#353566"/>
<path d="M20.2103 17.7103C21.3385 16.0913 22 14.1229 22 12C22 6.47715 17.5228 2 12 2C9.87709 2 7.90868 2.66152 6.28966 3.78966L20.2103 17.7103Z" fill="#353566"/>
</g>
<path fill-rule="evenodd" clip-rule="evenodd" d="M2.35355 1.64645C2.15829 1.45118 1.84171 1.45118 1.64645 1.64645C1.45118 1.84171 1.45118 2.15829 1.64645 2.35355L4.2302 4.9373C2.53395 6.80228 1.5 9.28039 1.5 12C1.5 14.0335 2.07859 15.9335 3.08034 17.5424C3.08493 17.5498 3.08442 17.5544 3.08431 17.5551L2.26241 19.8153C1.82712 21.0123 2.98767 22.1729 4.18471 21.7376L6.44485 20.9157C6.44556 20.9156 6.45022 20.9151 6.45759 20.9197C8.06652 21.9214 9.96646 22.5 12 22.5C14.7196 22.5 17.1977 21.4661 19.0627 19.7698L21.6464 22.3536C21.8417 22.5488 22.1583 22.5488 22.3536 22.3536C22.5488 22.1583 22.5488 21.8417 22.3536 21.6464L2.35355 1.64645ZM18.3547 19.0618L4.93818 5.64529C3.42249 7.32856 2.5 9.55655 2.5 12C2.5 13.8414 3.02337 15.5589 3.92925 17.0139C4.09031 17.2725 4.13301 17.5973 4.02425 17.8964L3.2022 20.157C3.05711 20.556 3.44396 20.9429 3.84297 20.7978L6.10359 19.9758C6.4027 19.867 6.72746 19.9097 6.98614 20.0708C8.44107 20.9766 10.1586 21.5 12 21.5C14.4434 21.5 16.6714 20.5775 18.3547 19.0618Z" fill="#353566"/>
<path d="M21.5 12C21.5 13.9845 20.8915 15.827 19.8508 17.3508L20.5692 18.0692C21.7852 16.3555 22.5 14.2612 22.5 12C22.5 6.20101 17.799 1.5 12 1.5C9.73876 1.5 7.64447 2.21479 5.93075 3.43075L6.64915 4.14915C8.17303 3.10852 10.0155 2.5 12 2.5C17.2467 2.5 21.5 6.75329 21.5 12Z" fill="#353566"/>
</svg>
