<svg width="24" height="24" viewBox="0 0 24 24" fill="none" xmlns="http://www.w3.org/2000/svg">
<path opacity="0.4" fill-rule="evenodd" clip-rule="evenodd" d="M22 12C22 17.5228 17.5228 22 12 22C10.0626 22 8.25379 21.449 6.72187 20.4952C6.58775 20.4117 6.42294 20.3917 6.27446 20.4457L4.01384 21.2677C3.21582 21.5579 2.44212 20.7842 2.73231 19.9862L3.55435 17.7255C3.60834 17.5771 3.5883 17.4122 3.5048 17.2781C2.55098 15.7462 2 13.9374 2 12C2 6.47715 6.47715 2 12 2C17.5228 2 22 6.47715 22 12ZM12 16C14.2091 16 16 14.2091 16 12C16 9.79086 14.2091 8 12 8C9.79086 8 8 9.79086 8 12C8 14.2091 9.79086 16 12 16Z" fill="#353566"/>
<path fill-rule="evenodd" clip-rule="evenodd" d="M16.5 12C16.5 9.51472 14.4853 7.5 12 7.5C9.51472 7.5 7.5 9.51472 7.5 12C7.5 14.4853 9.51472 16.5 12 16.5C14.4853 16.5 16.5 14.4853 16.5 12ZM12 8.5C13.933 8.5 15.5 10.067 15.5 12C15.5 12.7862 15.2408 13.5119 14.8031 14.0962L9.90382 9.19688C10.4881 8.75923 11.2138 8.5 12 8.5ZM9.19674 9.904L14.096 14.8033C13.5117 15.2408 12.7861 15.5 12 15.5C10.067 15.5 8.5 13.933 8.5 12C8.5 11.2139 8.75918 10.4883 9.19674 9.904Z" fill="#353566"/>
<path fill-rule="evenodd" clip-rule="evenodd" d="M1.5 12C1.5 6.20101 6.20101 1.5 12 1.5C17.799 1.5 22.5 6.20101 22.5 12C22.5 17.799 17.799 22.5 12 22.5C9.96646 22.5 8.06652 21.9214 6.45759 20.9197C6.45022 20.9151 6.44563 20.9156 6.44492 20.9157L4.18472 21.7376C2.98767 22.1729 1.82712 21.0123 2.26241 19.8153L3.0843 17.5551C3.08442 17.5544 3.08493 17.5498 3.08034 17.5424C2.07858 15.9335 1.5 14.0335 1.5 12ZM12 2.5C6.75329 2.5 2.5 6.75329 2.5 12C2.5 13.8414 3.02337 15.5589 3.92925 17.0139C4.09031 17.2725 4.13301 17.5973 4.02425 17.8964L3.2022 20.157C3.05711 20.556 3.44396 20.9429 3.84297 20.7978L6.10359 19.9758C6.4027 19.867 6.72746 19.9097 6.98614 20.0708C8.44107 20.9766 10.1586 21.5 12 21.5C17.2467 21.5 21.5 17.2467 21.5 12C21.5 6.75329 17.2467 2.5 12 2.5Z" fill="#353566"/>
</svg>
