<svg width="24" height="24" viewBox="0 0 24 24" fill="none" xmlns="http://www.w3.org/2000/svg">
<g clip-path="url(#clip0_9001_276025)">
<path opacity="0.4" d="M12.7498 20.8474C12.1816 20.9477 11.5969 21 11 21C9.06255 21 7.25379 20.449 5.72187 19.4952C5.58775 19.4117 5.42294 19.3917 5.27446 19.4457L3.01384 20.2677C2.21582 20.5579 1.44212 19.7842 1.73231 18.9862L2.55435 16.7255C2.60834 16.5771 2.5883 16.4122 2.5048 16.2781C1.55098 14.7462 1 12.9374 1 11C1 5.47715 5.47715 1 11 1C16.5228 1 21 5.47715 21 11C21 12.2091 20.7854 13.3681 20.3922 14.441C20.2177 14.0076 19.8469 13.6656 19.3638 13.5448C18.5707 13.3465 17.7668 13.82 17.5531 14.6046L17.1713 16.0064C17.1399 16.1214 17.0156 16.1836 16.9047 16.1398L15.5538 15.6052C15.0164 15.3925 14.3853 15.5023 13.9502 15.9287L11.9502 17.8887C11.3666 18.4606 11.3569 19.4266 11.9289 20.0101L12.7498 20.8474Z" fill="#353566"/>
<path d="M1.5 11C1.5 5.75329 5.75329 1.5 11 1.5C16.2467 1.5 20.5 5.75329 20.5 11C20.5 12.019 20.3396 13.0006 20.0425 13.9208C20.2256 14.098 20.3614 14.32 20.4362 14.5656L20.6281 15.1958C21.1889 13.9108 21.5 12.4917 21.5 11C21.5 5.20101 16.799 0.5 11 0.5C5.20101 0.5 0.5 5.20101 0.5 11C0.5 13.0335 1.07859 14.9335 2.08034 16.5424C2.08493 16.5498 2.08442 16.5544 2.08431 16.5551L1.26241 18.8153C0.827123 20.0123 1.98767 21.1729 3.18471 20.7376L5.44485 19.9157C5.44556 19.9156 5.45022 19.9151 5.45759 19.9197C7.06652 20.9214 8.96646 21.5 11 21.5C11.7438 21.5 12.4695 21.4227 13.1696 21.2756L12.32 20.409C11.8886 20.469 11.4479 20.5 11 20.5C9.15865 20.5 7.44107 19.9766 5.98614 19.0708C5.72746 18.9097 5.4027 18.867 5.10359 18.9758L2.84297 19.7978C2.44396 19.9429 2.05711 19.556 2.2022 19.157L3.02425 16.8964C3.13301 16.5973 3.09031 16.2725 2.92925 16.0139C2.02337 14.5589 1.5 12.8414 1.5 11Z" fill="#353566"/>
<path d="M10.25 11C10.25 10.5858 10.5858 10.25 11 10.25C11.4142 10.25 11.7501 10.5858 11.7501 11C11.7501 11.4142 11.4143 11.75 11.0001 11.75C10.5859 11.75 10.25 11.4142 10.25 11Z" fill="#353566"/>
<path d="M7 10.25C6.58579 10.25 6.25 10.5858 6.25 11C6.25 11.4142 6.58579 11.75 7 11.75C7.41421 11.75 7.7501 11.4142 7.7501 11C7.7501 10.5858 7.41421 10.25 7 10.25Z" fill="#353566"/>
<path d="M14.25 11C14.25 10.5858 14.5858 10.25 15 10.25C15.4142 10.25 15.7501 10.5858 15.7501 11C15.7501 11.4142 15.4143 11.75 15.0001 11.75C14.5859 11.75 14.25 11.4142 14.25 11Z" fill="#353566"/>
<path d="M15.35 17.3571C15.5472 17.1638 15.5504 16.8473 15.3571 16.65C15.1638 16.4528 14.8473 16.4496 14.65 16.6429L12.65 18.6029C12.5553 18.6957 12.5014 18.8224 12.5 18.955C12.4987 19.0876 12.5501 19.2153 12.643 19.31L14.6429 21.35C14.8362 21.5472 15.1528 21.5504 15.35 21.357C15.5472 21.1637 15.5503 20.8472 15.357 20.65L13.7071 18.9671L15.35 17.3571Z" fill="#353566"/>
<path d="M20.6427 16.6502C20.8359 16.4529 21.1525 16.4495 21.3498 16.6427L23.3498 18.6007C23.4446 18.6935 23.4986 18.8201 23.5 18.9527C23.5014 19.0854 23.45 19.2131 23.3572 19.3079L21.3572 21.3499C21.164 21.5471 20.8474 21.5504 20.6501 21.3572C20.4529 21.164 20.4496 20.8474 20.6428 20.6501L22.2929 18.9654L20.6502 17.3573C20.4529 17.1641 20.4495 16.8475 20.6427 16.6502Z" fill="#353566"/>
<path d="M19.4851 15.1213C19.552 14.8534 19.3892 14.5819 19.1213 14.5149C18.8534 14.448 18.5819 14.6108 18.5149 14.8787L16.5149 22.8787C16.448 23.1466 16.6108 23.4181 16.8787 23.4851C17.1466 23.552 17.4181 23.3892 17.4851 23.1213L19.4851 15.1213Z" fill="#353566"/>
</g>
<defs>
<clipPath id="clip0_9001_276025">
<rect width="24" height="24" fill="white"/>
</clipPath>
</defs>
</svg>
