<svg width="24" height="24" viewBox="0 0 24 24" fill="none" xmlns="http://www.w3.org/2000/svg">
<path fill-rule="evenodd" clip-rule="evenodd" d="M12.0153 17.2501L11.126 18.5841C10.8962 18.9287 10.9893 19.3944 11.334 19.6242C11.6786 19.8539 12.1443 19.7608 12.3741 19.4161L13.6807 17.4562C14.211 16.6608 14.4958 15.7272 14.5 14.7716C14.5 14.7644 14.5001 14.7573 14.5001 14.7501C14.5001 13.3694 13.3808 12.2501 12.0001 12.2501C10.6194 12.2501 9.50006 13.3694 9.50006 14.7501C9.50006 16.1308 10.6194 17.2501 12.0001 17.2501C12.0052 17.2501 12.0102 17.2501 12.0153 17.2501ZM13 14.744C13 14.746 13 14.7481 13 14.7501C13 14.7539 13 14.7576 13 14.7613C12.994 15.3085 12.5486 15.7501 12.0001 15.7501C11.4478 15.7501 11.0001 15.3024 11.0001 14.7501C11.0001 14.1978 11.4478 13.7501 12.0001 13.7501C12.5503 13.7501 12.9967 14.1945 13 14.744Z" fill="#353566"/>
<path fill-rule="evenodd" clip-rule="evenodd" d="M8.75 1.00025C8.75 0.58603 8.41421 0.250245 8 0.250245C7.58579 0.250245 7.25 0.586032 7.25 1.00025L7.25 2.25032C6.44395 2.25089 5.78458 2.25594 5.24013 2.30042C4.61012 2.35189 4.06824 2.45988 3.57054 2.71347C2.77085 3.12093 2.12069 3.7711 1.71322 4.57078C1.45964 5.06848 1.35165 5.61036 1.30018 6.24038C1.24999 6.85463 1.24999 7.61516 1.25 8.56757L1.25 17.4329C1.25 18.3853 1.24999 19.1459 1.30018 19.7601C1.35165 20.3901 1.45963 20.932 1.71322 21.4297C2.12068 22.2294 2.77085 22.8796 3.57054 23.287C4.06824 23.5406 4.61012 23.6486 5.24013 23.7001C5.85438 23.7503 6.6149 23.7503 7.5673 23.7502H16.4326C17.385 23.7503 18.1456 23.7503 18.7599 23.7001C19.3899 23.6486 19.9318 23.5406 20.4295 23.287C21.2291 22.8796 21.8793 22.2294 22.2868 21.4297C22.5404 20.932 22.6483 20.3901 22.6998 19.7601C22.75 19.1459 22.75 18.3853 22.75 17.4329V8.56761C22.75 7.61522 22.75 6.85462 22.6998 6.24038C22.6483 5.61037 22.5404 5.06848 22.2868 4.57079C21.8793 3.7711 21.2291 3.12093 20.4295 2.71347C19.9318 2.45988 19.3899 2.35189 18.7599 2.30042C18.2154 2.25594 17.5561 2.25089 16.75 2.25032V1.00024C16.75 0.586031 16.4142 0.250244 16 0.250244C15.5858 0.250244 15.25 0.586031 15.25 1.00024V2.25024L8.75 2.25025L8.75 1.00025ZM16.4 3.75024C17.3925 3.75024 18.0917 3.75083 18.6377 3.79544C19.175 3.83933 19.4975 3.92209 19.7485 4.04998C20.2659 4.31363 20.6866 4.73433 20.9503 5.25177C21.0782 5.50277 21.1609 5.82527 21.2048 6.36253C21.2355 6.73764 21.2453 7.18508 21.2485 7.75024L2.75151 7.75025C2.75468 7.18508 2.76455 6.73764 2.79519 6.36252C2.83909 5.82527 2.92184 5.50276 3.04973 5.25177C3.31339 4.73432 3.73408 4.31363 4.25153 4.04998C4.50252 3.92209 4.82503 3.83933 5.36228 3.79544C5.90829 3.75083 6.60753 3.75025 7.6 3.75025L16.4 3.75024ZM2.75 9.25025L2.75 17.4002C2.75 18.3927 2.75058 19.092 2.7952 19.638C2.83909 20.1752 2.92185 20.4977 3.04973 20.7487C3.31339 21.2662 3.73408 21.6869 4.25153 21.9505C4.50252 22.0784 4.82503 22.1612 5.36228 22.205C5.90829 22.2497 6.60754 22.2502 7.6 22.2502H16.4C17.3925 22.2502 18.0917 22.2497 18.6377 22.205C19.175 22.1612 19.4975 22.0784 19.7485 21.9505C20.2659 21.6869 20.6866 21.2662 20.9503 20.7487C21.0782 20.4977 21.1609 20.1752 21.2048 19.638C21.2494 19.092 21.25 18.3927 21.25 17.4002V9.25024L2.75 9.25025Z" fill="#353566"/>
</svg>
