<svg width="24" height="24" viewBox="0 0 24 24" fill="none" xmlns="http://www.w3.org/2000/svg">
<g clip-path="url(#clip0_9001_303668)">
<path fill-rule="evenodd" clip-rule="evenodd" d="M7 0.25C7.41421 0.25 7.75 0.585786 7.75 1V2.05C7.75 2.16046 7.83954 2.25 7.95 2.25H14.05C14.1605 2.25 14.25 2.16046 14.25 2.05V1C14.25 0.585786 14.5858 0.25 15 0.25C15.4142 0.25 15.75 0.585786 15.75 1V2.05021C15.75 2.16061 15.8395 2.25011 15.9499 2.25033C16.666 2.25177 17.2611 2.25943 17.7599 2.30018C18.3899 2.35165 18.9318 2.45963 19.4295 2.71322C20.2291 3.12068 20.8793 3.77085 21.2868 4.57054C21.5404 5.06824 21.6483 5.61012 21.6998 6.24013C21.75 6.85438 21.75 7.6149 21.75 8.5673V10.2507C21.75 10.6649 21.4142 11.0007 21 11.0007C20.5858 11.0007 20.25 10.6649 20.25 10.2507V9.45C20.25 9.33954 20.1605 9.25 20.05 9.25H1.95C1.83954 9.25 1.75 9.33954 1.75 9.45V17.4C1.75 18.3925 1.75058 19.0917 1.79519 19.6377C1.83909 20.175 1.92184 20.4975 2.04973 20.7485C2.31338 21.2659 2.73408 21.6866 3.25153 21.9503C3.50252 22.0782 3.82503 22.1609 4.36228 22.2048C4.90829 22.2494 5.60753 22.25 6.6 22.25H12.2808C12.695 22.25 13.0308 22.5858 13.0308 23C13.0308 23.4142 12.695 23.75 12.2808 23.75H6.56737C5.61496 23.75 4.85438 23.75 4.24013 23.6998C3.61012 23.6483 3.06824 23.5404 2.57054 23.2868C1.77085 22.8793 1.12068 22.2291 0.713223 21.4295C0.459634 20.9318 0.35165 20.3899 0.300176 19.7599C0.249989 19.1456 0.249994 18.3851 0.25 17.4326V8.56739C0.249994 7.61495 0.249989 6.85439 0.300176 6.24013C0.35165 5.61012 0.459634 5.06824 0.713223 4.57054C1.12068 3.77085 1.77085 3.12068 2.57054 2.71322C3.06824 2.45963 3.61012 2.35165 4.24013 2.30018C4.73887 2.25943 5.33404 2.25177 6.05005 2.25033C6.16045 2.25011 6.25 2.16061 6.25 2.05021V1C6.25 0.585786 6.58579 0.25 7 0.25ZM20.2048 6.36228C20.2317 6.69175 20.2426 7.07702 20.247 7.54885C20.248 7.65974 20.1583 7.75 20.0474 7.75H1.95263C1.84173 7.75 1.75195 7.65974 1.75299 7.54885C1.75739 7.07702 1.76828 6.69175 1.79519 6.36228C1.83909 5.82503 1.92184 5.50252 2.04973 5.25153C2.31338 4.73408 2.73408 4.31338 3.25153 4.04973C3.50252 3.92184 3.82503 3.83909 4.36228 3.79519C4.90829 3.75058 5.60753 3.75 6.6 3.75H15.4C16.3925 3.75 17.0917 3.75058 17.6377 3.79519C18.175 3.83909 18.4975 3.92184 18.7485 4.04973C19.2659 4.31338 19.6866 4.73408 19.9503 5.25153C20.0782 5.50252 20.1609 5.82503 20.2048 6.36228Z" fill="#353566"/>
<path d="M6.5 12.5C5.94772 12.5 5.5 12.9477 5.5 13.5C5.5 14.0523 5.94772 14.5 6.5 14.5C7.05228 14.5 7.5001 14.0523 7.5001 13.5C7.5001 12.9477 7.05228 12.5 6.5 12.5Z" fill="#353566"/>
<path d="M10 13.5C10 12.9477 10.4477 12.5 11 12.5C11.5523 12.5 12.0001 12.9477 12.0001 13.5C12.0001 14.0523 11.5524 14.5 11.0001 14.5C10.4478 14.5 10 14.0523 10 13.5Z" fill="#353566"/>
<path d="M6.5 16.5C5.94772 16.5 5.5 16.9477 5.5 17.5C5.5 18.0523 5.94772 18.5 6.5 18.5C7.05228 18.5 7.5001 18.0523 7.5001 17.5C7.5001 16.9477 7.05228 16.5 6.5 16.5Z" fill="#353566"/>
<path fill-rule="evenodd" clip-rule="evenodd" d="M15.1359 19.839C14.586 20.2514 14.25 20.8452 14.25 21.4998C14.25 22.1545 14.586 22.7482 15.1359 23.1606C15.6777 23.567 16.3551 23.75 17.0003 23.75C17.6454 23.75 18.3228 23.567 18.8647 23.1606C19.4135 22.749 19.7492 22.1568 19.7505 21.5036L19.7505 21.4998V17.4617C19.7505 17.3728 19.8092 17.2946 19.8945 17.2697L22.671 16.4599C23.311 16.2732 23.751 15.6865 23.751 15.0198V13.6255C23.751 12.7087 22.871 12.0487 21.9909 12.3054L19.5106 13.0288C18.7639 13.2466 18.2505 13.9311 18.2505 14.7089V19.1927C18.2505 19.3351 18.1054 19.4326 17.9691 19.3913C17.652 19.2952 17.3221 19.2496 17.0003 19.2496C16.3551 19.2496 15.6777 19.4326 15.1359 19.839ZM17.0003 20.7496C16.6216 20.7496 16.2752 20.8596 16.0359 21.039C15.8046 21.2125 15.75 21.3866 15.75 21.4998C15.75 21.613 15.8046 21.7872 16.0359 21.9606C16.2752 22.1401 16.6216 22.25 17.0003 22.25C17.3789 22.25 17.7254 22.1401 17.9647 21.9606C18.1959 21.7872 18.2505 21.613 18.2505 21.4998C18.2505 21.3866 18.1959 21.2125 17.9647 21.039C17.7254 20.8596 17.3789 20.7496 17.0003 20.7496ZM19.9306 14.4688L21.995 13.8667C22.123 13.8294 22.251 13.9254 22.251 14.0587L22.251 14.8699C22.251 14.9588 22.1923 15.037 22.107 15.0619L20.0065 15.6745C19.8785 15.7118 19.7505 15.6158 19.7505 15.4825V14.7089C19.7505 14.5978 19.8239 14.4999 19.9306 14.4688Z" fill="#353566"/>
</g>
<defs>
<clipPath id="clip0_9001_303668">
<rect width="24" height="24" fill="white"/>
</clipPath>
</defs>
</svg>
