<svg width="24" height="24" viewBox="0 0 24 24" fill="none" xmlns="http://www.w3.org/2000/svg">
<path d="M12.9046 14.9061L14.2803 13.5303C14.4948 13.3158 14.559 12.9932 14.4429 12.713C14.3268 12.4327 14.0533 12.25 13.75 12.25H10.25C9.83579 12.25 9.5 12.5858 9.5 13C9.5 13.4142 9.83579 13.75 10.25 13.75H11.9393L10.7249 14.9645C10.7026 14.9863 10.6818 15.0094 10.6624 15.0339C10.6317 15.0724 10.6054 15.1132 10.5835 15.1557C10.5301 15.2588 10.4999 15.3759 10.4999 15.5C10.4999 15.6244 10.5303 15.7418 10.5839 15.8451C10.6054 15.8867 10.6312 15.9267 10.6611 15.9645C10.6947 16.007 10.7328 16.0458 10.7747 16.0802C10.8254 16.1218 10.8802 16.1558 10.9378 16.1821C11.0328 16.2257 11.1385 16.25 11.2499 16.25H12.0428C12.285 16.25 12.5177 16.3418 12.6945 16.5061C12.8753 16.7346 12.9423 16.8897 12.9702 16.9808C12.9983 17.0727 12.9999 17.1375 12.9999 17.25C12.9999 17.8023 12.5522 18.25 11.9999 18.25C11.5282 18.25 11.061 17.9548 10.9254 17.6739C10.7453 17.3009 10.2969 17.1445 9.92387 17.3246C9.55086 17.5047 9.39449 17.9531 9.5746 18.3261C10.0099 19.2277 11.0755 19.75 11.9999 19.75C13.3807 19.75 14.4999 18.6307 14.4999 17.25L14.5 17.2432C14.5 17.1042 14.5 16.8542 14.4047 16.5424C14.3089 16.2288 14.131 15.8944 13.8316 15.5265C13.8155 15.5067 13.7983 15.4877 13.7803 15.4697C13.5296 15.219 13.2303 15.0281 12.9046 14.9061Z" fill="#353566"/>
<path fill-rule="evenodd" clip-rule="evenodd" d="M8.75 1C8.75 0.585786 8.41421 0.25 8 0.25C7.58579 0.25 7.25 0.585786 7.25 1V2.25007C6.44395 2.25064 5.78458 2.25569 5.24013 2.30018C4.61012 2.35165 4.06824 2.45963 3.57054 2.71322C2.77085 3.12068 2.12068 3.77085 1.71322 4.57054C1.45963 5.06824 1.35165 5.61012 1.30018 6.24013C1.24999 6.85439 1.24999 7.61493 1.25 8.56737V17.4326C1.24999 18.385 1.24999 19.1456 1.30018 19.7599C1.35165 20.3899 1.45963 20.9318 1.71322 21.4295C2.12068 22.2291 2.77085 22.8793 3.57054 23.2868C4.06824 23.5404 4.61012 23.6483 5.24013 23.6998C5.85438 23.75 6.6149 23.75 7.5673 23.75H16.4326C17.385 23.75 18.1456 23.75 18.7599 23.6998C19.3899 23.6483 19.9318 23.5404 20.4295 23.2868C21.2291 22.8793 21.8793 22.2291 22.2868 21.4295C22.5404 20.9318 22.6483 20.3899 22.6998 19.7599C22.75 19.1456 22.75 18.3851 22.75 17.4327V8.56737C22.75 7.61496 22.75 6.85438 22.6998 6.24013C22.6483 5.61012 22.5404 5.06824 22.2868 4.57054C21.8793 3.77085 21.2291 3.12068 20.4295 2.71322C19.9318 2.45963 19.3899 2.35165 18.7599 2.30018C18.2154 2.25569 17.5561 2.25064 16.75 2.25007V1C16.75 0.585786 16.4142 0.25 16 0.25C15.5858 0.25 15.25 0.585786 15.25 1V2.25H8.75V1ZM16.4 3.75C17.3925 3.75 18.0917 3.75058 18.6377 3.79519C19.175 3.83909 19.4975 3.92184 19.7485 4.04973C20.2659 4.31338 20.6866 4.73408 20.9503 5.25153C21.0782 5.50252 21.1609 5.82503 21.2048 6.36228C21.2355 6.7374 21.2453 7.18484 21.2485 7.75H2.7515C2.75468 7.18484 2.76455 6.7374 2.79519 6.36228C2.83909 5.82503 2.92184 5.50252 3.04973 5.25153C3.31338 4.73408 3.73408 4.31338 4.25153 4.04973C4.50252 3.92184 4.82503 3.83909 5.36228 3.79519C5.90829 3.75058 6.60753 3.75 7.6 3.75H16.4ZM2.75 9.25V17.4C2.75 18.3925 2.75058 19.0917 2.79519 19.6377C2.83909 20.175 2.92184 20.4975 3.04973 20.7485C3.31338 21.2659 3.73408 21.6866 4.25153 21.9503C4.50252 22.0782 4.82503 22.1609 5.36228 22.2048C5.90829 22.2494 6.60753 22.25 7.6 22.25H16.4C17.3925 22.25 18.0917 22.2494 18.6377 22.2048C19.175 22.1609 19.4975 22.0782 19.7485 21.9503C20.2659 21.6866 20.6866 21.2659 20.9503 20.7485C21.0782 20.4975 21.1609 20.175 21.2048 19.6377C21.2494 19.0917 21.25 18.3925 21.25 17.4V9.25H2.75Z" fill="#353566"/>
</svg>
