<svg width="24" height="24" viewBox="0 0 24 24" fill="none" xmlns="http://www.w3.org/2000/svg">
<path fill-rule="evenodd" clip-rule="evenodd" d="M7 0.25C7.41421 0.25 7.75 0.585786 7.75 1V2.25H14.25V1C14.25 0.585786 14.5858 0.25 15 0.25C15.4142 0.25 15.75 0.585786 15.75 1V2.25007C16.5561 2.25064 17.2154 2.25569 17.7599 2.30018C18.3899 2.35165 18.9318 2.45963 19.4295 2.71322C20.2291 3.12068 20.8793 3.77085 21.2868 4.57054C21.5404 5.06824 21.6483 5.61012 21.6998 6.24013C21.75 6.85438 21.75 7.6149 21.75 8.5673V10C21.75 10.4142 21.4142 10.75 21 10.75C20.5858 10.75 20.25 10.4142 20.25 10V9.25H1.75V17.4C1.75 18.3925 1.75058 19.0917 1.79519 19.6377C1.83909 20.175 1.92184 20.4975 2.04973 20.7485C2.31338 21.2659 2.73408 21.6866 3.25153 21.9503C3.50252 22.0782 3.82503 22.1609 4.36228 22.2048C4.90829 22.2494 5.60753 22.25 6.6 22.25H13.2278C13.6421 22.25 13.9778 22.5858 13.9778 23C13.9778 23.4142 13.6421 23.75 13.2278 23.75H6.56737C5.61496 23.75 4.85438 23.75 4.24013 23.6998C3.61012 23.6483 3.06824 23.5404 2.57054 23.2868C1.77085 22.8793 1.12068 22.2291 0.713223 21.4295C0.459634 20.9318 0.35165 20.3899 0.300176 19.7599C0.249989 19.1456 0.249994 18.3851 0.25 17.4326V8.56739C0.249994 7.61495 0.249989 6.85439 0.300176 6.24013C0.35165 5.61012 0.459634 5.06824 0.713223 4.57054C1.12068 3.77085 1.77085 3.12068 2.57054 2.71322C3.06824 2.45963 3.61012 2.35165 4.24013 2.30018C4.78458 2.25569 5.44395 2.25064 6.25 2.25007V1C6.25 0.585786 6.58579 0.25 7 0.25ZM20.2048 6.36228C20.2355 6.7374 20.2453 7.18484 20.2485 7.75H1.7515C1.75468 7.18484 1.76455 6.7374 1.79519 6.36228C1.83909 5.82503 1.92184 5.50252 2.04973 5.25153C2.31338 4.73408 2.73408 4.31338 3.25153 4.04973C3.50252 3.92184 3.82503 3.83909 4.36228 3.79519C4.90829 3.75058 5.60753 3.75 6.6 3.75H15.4C16.3925 3.75 17.0917 3.75058 17.6377 3.79519C18.175 3.83909 18.4975 3.92184 18.7485 4.04973C19.2659 4.31338 19.6866 4.73408 19.9503 5.25153C20.0782 5.50252 20.1609 5.82503 20.2048 6.36228Z" fill="#353566"/>
<path d="M6.5 12.5C5.94772 12.5 5.5 12.9477 5.5 13.5C5.5 14.0523 5.94772 14.5 6.5 14.5C7.05228 14.5 7.5001 14.0523 7.5001 13.5C7.5001 12.9477 7.05228 12.5 6.5 12.5Z" fill="#353566"/>
<path d="M10 13.5C10 12.9477 10.4477 12.5 11 12.5C11.5523 12.5 12.0001 12.9477 12.0001 13.5C12.0001 14.0523 11.5524 14.5 11.0001 14.5C10.4478 14.5 10 14.0523 10 13.5Z" fill="#353566"/>
<path d="M6.5 16.5C5.94772 16.5 5.5 16.9477 5.5 17.5C5.5 18.0523 5.94772 18.5 6.5 18.5C7.05228 18.5 7.5001 18.0523 7.5001 17.5C7.5001 16.9477 7.05228 16.5 6.5 16.5Z" fill="#353566"/>
<path fill-rule="evenodd" clip-rule="evenodd" d="M15.6134 15.5413C16.0038 14.4862 17.4962 14.4862 17.8866 15.5413L18.185 16.3478C18.4365 17.0275 18.9725 17.5635 19.6522 17.815L20.4587 18.1134C21.5138 18.5038 21.5138 19.9962 20.4587 20.3866L19.6522 20.685C18.9725 20.9365 18.4365 21.4725 18.185 22.1522L17.8866 22.9587C17.4962 24.0138 16.0038 24.0138 15.6134 22.9587L15.315 22.1522C15.0635 21.4725 14.5275 20.9365 13.8478 20.685L13.0413 20.3866C11.9862 19.9962 11.9862 18.5038 13.0413 18.1134L13.8478 17.815C14.5275 17.5635 15.0635 17.0275 15.315 16.3478L15.6134 15.5413ZM16.75 16.7921L16.7218 16.8683C16.3183 17.9587 15.4587 18.8183 14.3683 19.2218L14.2921 19.25L14.3683 19.2782C15.4587 19.6817 16.3183 20.5413 16.7218 21.6317L16.75 21.7079L16.7782 21.6317C17.1817 20.5413 18.0413 19.6817 19.1317 19.2782L19.2079 19.25L19.1317 19.2218C18.0413 18.8183 17.1817 17.9587 16.7782 16.8683L16.75 16.7921Z" fill="#353566"/>
<path d="M21.3211 13.6133L21.1269 13.0883C21.0833 12.9706 20.9167 12.9706 20.8731 13.0883L20.6789 13.6133C20.4962 14.107 20.107 14.4962 19.6133 14.6789L19.0883 14.8731C18.9706 14.9167 18.9706 15.0833 19.0883 15.1269L19.6133 15.3211C20.107 15.5038 20.4962 15.893 20.6789 16.3867L20.8731 16.9117C20.9167 17.0294 21.0833 17.0294 21.1269 16.9117L21.3211 16.3867C21.5038 15.893 21.893 15.5038 22.3867 15.3211L22.9117 15.1269C23.0294 15.0833 23.0294 14.9167 22.9117 14.8731L22.3867 14.6789C21.893 14.4962 21.5038 14.107 21.3211 13.6133Z" fill="#353566"/>
</svg>
