<svg width="24" height="24" viewBox="0 0 24 24" fill="none" xmlns="http://www.w3.org/2000/svg">
<path d="M11.2595 14.0495C11.4261 13.8629 11.6456 13.75 12 13.75C12.6891 13.75 12.9989 14.2107 13 14.598L12.9999 14.6174C12.9965 14.8284 12.8859 15.0458 12.5406 15.3412C12.3701 15.4872 12.169 15.6293 11.9386 15.7855C11.8947 15.8152 11.8493 15.8458 11.8027 15.8772C11.617 16.0021 11.4143 16.1386 11.2293 16.277C11.0601 16.4037 10.8891 16.5502 10.7197 16.7197C10.1515 17.2878 9.84326 17.8099 9.67864 18.2215C9.5968 18.4261 9.55199 18.5996 9.52772 18.733C9.51561 18.7996 9.50868 18.8559 9.50477 18.9008C9.50282 18.9233 9.50163 18.9429 9.50092 18.9594L9.5002 18.982L9.50004 18.9916L9.50001 18.9959L9.5 18.998L9.5 19C9.5 19.0005 9.5 19 10.25 19H9.5C9.5 19.4142 9.83579 19.75 10.25 19.75H14C14.4142 19.75 14.75 19.4142 14.75 19C14.75 18.5858 14.4142 18.25 14 18.25H11.3737C11.4775 18.1081 11.6103 17.9504 11.7803 17.7803C11.8987 17.662 12.0155 17.5622 12.1281 17.4779C12.2799 17.3643 12.4419 17.2552 12.6234 17.133C12.6741 17.0988 12.7264 17.0637 12.7803 17.0271C13.0158 16.8674 13.2768 16.6855 13.5159 16.4809C13.9889 16.0762 14.4888 15.4863 14.4998 14.6349L14.5 14.6049V14.6C14.5 13.3877 13.5225 12.25 12 12.25C11.2544 12.25 10.6149 12.5192 10.1405 13.0505C9.8451 13.3814 9.5 13.9062 9.5 14.7C9.5 15.1142 9.83579 15.45 10.25 15.45C10.6642 15.45 11 15.1142 11 14.7C11 14.3938 11.1164 14.2097 11.2595 14.0495Z" fill="#353566"/>
<path fill-rule="evenodd" clip-rule="evenodd" d="M8 0.25C8.41421 0.25 8.75 0.585786 8.75 1V2.25H15.25V1C15.25 0.585786 15.5858 0.25 16 0.25C16.4142 0.25 16.75 0.585786 16.75 1V2.25007C17.5561 2.25064 18.2154 2.25569 18.7599 2.30018C19.3899 2.35165 19.9318 2.45963 20.4295 2.71322C21.2291 3.12068 21.8793 3.77085 22.2868 4.57054C22.5404 5.06824 22.6483 5.61012 22.6998 6.24013C22.75 6.85438 22.75 7.6149 22.75 8.5673V17.4326C22.75 18.385 22.75 19.1456 22.6998 19.7599C22.6483 20.3899 22.5404 20.9318 22.2868 21.4295C21.8793 22.2291 21.2291 22.8793 20.4295 23.2868C19.9318 23.5404 19.3899 23.6483 18.7599 23.6998C18.1456 23.75 17.3851 23.75 16.4327 23.75H7.56737C6.61496 23.75 5.85438 23.75 5.24013 23.6998C4.61012 23.6483 4.06824 23.5404 3.57054 23.2868C2.77085 22.8793 2.12068 22.2291 1.71322 21.4295C1.45963 20.9318 1.35165 20.3899 1.30018 19.7599C1.24999 19.1456 1.24999 18.3851 1.25 17.4326V8.56739C1.24999 7.61495 1.24999 6.85439 1.30018 6.24013C1.35165 5.61012 1.45963 5.06824 1.71322 4.57054C2.12068 3.77085 2.77085 3.12068 3.57054 2.71322C4.06824 2.45963 4.61012 2.35165 5.24013 2.30018C5.78458 2.25569 6.44395 2.25064 7.25 2.25007V1C7.25 0.585786 7.58579 0.25 8 0.25ZM7.6 3.75C6.60753 3.75 5.90829 3.75058 5.36228 3.79519C4.82503 3.83909 4.50252 3.92184 4.25153 4.04973C3.73408 4.31338 3.31338 4.73408 3.04973 5.25153C2.92184 5.50252 2.83909 5.82503 2.79519 6.36228C2.76455 6.7374 2.75468 7.18484 2.7515 7.75H21.2485C21.2453 7.18484 21.2355 6.7374 21.2048 6.36228C21.1609 5.82503 21.0782 5.50252 20.9503 5.25153C20.6866 4.73408 20.2659 4.31338 19.7485 4.04973C19.4975 3.92184 19.175 3.83909 18.6377 3.79519C18.0917 3.75058 17.3925 3.75 16.4 3.75H7.6ZM2.75 17.4V9.25H21.25V17.4C21.25 18.3925 21.2494 19.0917 21.2048 19.6377C21.1609 20.175 21.0782 20.4975 20.9503 20.7485C20.6866 21.2659 20.2659 21.6866 19.7485 21.9503C19.4975 22.0782 19.175 22.1609 18.6377 22.2048C18.0917 22.2494 17.3925 22.25 16.4 22.25H7.6C6.60753 22.25 5.90829 22.2494 5.36228 22.2048C4.82503 22.1609 4.50252 22.0782 4.25153 21.9503C3.73408 21.6866 3.31338 21.2659 3.04973 20.7485C2.92184 20.4975 2.83909 20.175 2.79519 19.6377C2.75058 19.0917 2.75 18.3925 2.75 17.4Z" fill="#353566"/>
</svg>
