<svg width="24" height="24" viewBox="0 0 24 24" fill="none" xmlns="http://www.w3.org/2000/svg">
<path fill-rule="evenodd" clip-rule="evenodd" d="M3.18544 2.75C3.07063 4.17673 3.02558 5.1022 3.19848 5.9719C3.45619 7.26813 4.0633 8.46926 4.9542 9.44545C5.64203 10.1991 6.56047 10.7642 8.12217 11.7251L8.56896 12L8.12219 12.2749C6.5605 13.2358 5.64206 13.8009 4.95423 14.5546C4.06333 15.5307 3.45622 16.7319 3.19851 18.0281C3.02561 18.8978 3.07067 19.8233 3.18547 21.25H2C1.58579 21.25 1.25 21.5858 1.25 22C1.25 22.4142 1.58579 22.75 2 22.75H10.7546C11.1688 22.75 11.5046 22.4142 11.5046 22C11.5046 21.5858 11.1688 21.25 10.7546 21.25L10 21.25L9.99759 21.25H9.00242L9 21.25L4.6908 21.25C4.56846 19.7315 4.53578 18.9943 4.66972 18.3206C4.87411 17.2925 5.35561 16.3399 6.06219 15.5657C6.59025 14.9871 7.31327 14.534 9.02073 13.4833L10 12.8806L10.1207 12.9549C10.4735 13.172 10.9354 13.062 11.1525 12.7092C11.2656 12.5255 11.2899 12.3121 11.2374 12.1191L11.8778 11.7251C13.4395 10.7642 14.3579 10.1991 15.0457 9.44545C15.9366 8.46926 16.5438 7.26813 16.8015 5.9719C16.9744 5.1022 16.9293 4.17673 16.8145 2.75H18C18.4142 2.75 18.75 2.41421 18.75 2C18.75 1.58579 18.4142 1.25 18 1.25H2C1.58579 1.25 1.25 1.58579 1.25 2C1.25 2.41421 1.58579 2.75 2 2.75H3.18544ZM15.3092 2.75C15.4315 4.26847 15.4642 5.00568 15.3302 5.67941C15.1259 6.70745 14.6444 7.66008 13.9378 8.43429C13.4097 9.0129 12.6867 9.46599 10.9792 10.5167L9.99997 11.1194L9.0207 10.5167C7.31324 9.46599 6.59021 9.0129 6.06215 8.43429C5.35558 7.66008 4.87408 6.70745 4.66969 5.67941C4.53575 5.00568 4.56843 4.26847 4.69077 2.75H15.3092Z" fill="#353566"/>
<path d="M15.75 14.75C16.1642 14.75 16.5 15.0858 16.5 15.5V18.5C16.5 18.9142 16.1642 19.25 15.75 19.25C15.3358 19.25 15 18.9142 15 18.5V15.5C15 15.0858 15.3358 14.75 15.75 14.75Z" fill="#353566"/>
<path d="M19 15.5C19 15.0858 18.6642 14.75 18.25 14.75C17.8358 14.75 17.5 15.0858 17.5 15.5V18.5C17.5 18.9142 17.8358 19.25 18.25 19.25C18.6642 19.25 19 18.9142 19 18.5V15.5Z" fill="#353566"/>
<path fill-rule="evenodd" clip-rule="evenodd" d="M17 11.25C13.8244 11.25 11.25 13.8244 11.25 17C11.25 20.1756 13.8244 22.75 17 22.75C20.1756 22.75 22.75 20.1756 22.75 17C22.75 13.8244 20.1756 11.25 17 11.25ZM12.75 17C12.75 14.6528 14.6528 12.75 17 12.75C19.3472 12.75 21.25 14.6528 21.25 17C21.25 19.3472 19.3472 21.25 17 21.25C14.6528 21.25 12.75 19.3472 12.75 17Z" fill="#353566"/>
</svg>
