<svg width="24" height="24" viewBox="0 0 24 24" fill="none" xmlns="http://www.w3.org/2000/svg">
<path fill-rule="evenodd" clip-rule="evenodd" d="M20 2.75C20.4142 2.75 20.75 2.41421 20.75 2C20.75 1.58579 20.4142 1.25 20 1.25H4C3.58579 1.25 3.25 1.58579 3.25 2C3.25 2.41421 3.58579 2.75 4 2.75H5.18544C5.07063 4.17673 5.02558 5.1022 5.19848 5.9719C5.45619 7.26813 6.0633 8.46926 6.9542 9.44545C7.64203 10.1991 8.56047 10.7642 10.1222 11.7251L10.569 12L10.1222 12.2749C8.56053 13.2358 7.64209 13.8009 6.95426 14.5546C6.06336 15.5307 5.45625 16.7319 5.19854 18.0281C5.02564 18.8978 5.0707 19.8233 5.1855 21.25H4C3.58578 21.25 3.25 21.5858 3.25 22C3.25 22.4142 3.58578 22.75 4 22.75L18 22.75L18.0024 22.75H20C20.4142 22.75 20.75 22.4142 20.75 22C20.75 21.5858 20.4142 21.25 20 21.25H18.8146C18.9294 19.8233 18.9744 18.8978 18.8015 18.0281C18.5438 16.7319 17.9367 15.5307 17.0458 14.5546C16.358 13.8009 15.4395 13.2358 13.8778 12.2749L13.431 12L13.8778 11.7251C15.4395 10.7642 16.3579 10.1991 17.0457 9.44545C17.9366 8.46926 18.5438 7.26813 18.8015 5.9719C18.9744 5.1022 18.9293 4.17673 18.8145 2.75H20ZM17.3303 18.3206C17.4643 18.9943 17.4316 19.7315 17.3092 21.25L6.69083 21.25C6.56849 19.7315 6.53581 18.9943 6.66975 18.3206C6.70814 18.1275 6.7563 17.9371 6.8139 17.75H17.1862C17.2438 17.9371 17.2919 18.1275 17.3303 18.3206ZM16.4735 16.25C16.313 16.0096 16.1341 15.7808 15.9379 15.5657C15.4098 14.9871 14.6868 14.534 12.9793 13.4833L12 12.8806L11.0208 13.4833C9.3133 14.534 8.59028 14.9871 8.06222 15.5657C7.86594 15.7808 7.68703 16.0096 7.52661 16.25H16.4735ZM17.3092 2.75H6.69077C6.56843 4.26847 6.53575 5.00568 6.66969 5.67941C6.87408 6.70745 7.35558 7.66008 8.06215 8.43429C8.59021 9.0129 9.31324 9.46599 11.0207 10.5167L12 11.1194L12.9792 10.5167C14.6867 9.46599 15.4097 9.0129 15.9378 8.43429C16.6444 7.66008 17.1259 6.70745 17.3302 5.67941C17.4642 5.00568 17.4315 4.26847 17.3092 2.75Z" fill="#353566"/>
</svg>
