<svg width="24" height="24" viewBox="0 0 24 24" fill="none" xmlns="http://www.w3.org/2000/svg">
<path d="M11.75 2C11.75 1.58579 12.0858 1.25 12.5 1.25H17C17.2962 1.25 17.5646 1.42431 17.6851 1.69487C17.8056 1.96543 17.7556 2.28157 17.5575 2.50172L14.184 6.25H17C17.4142 6.25 17.75 6.58579 17.75 7C17.75 7.41421 17.4142 7.75 17 7.75H12.5C12.2038 7.75 11.9354 7.57569 11.8149 7.30513C11.6944 7.03457 11.7444 6.71843 11.9425 6.49828L15.316 2.75H12.5C12.0858 2.75 11.75 2.41421 11.75 2Z" fill="#353566"/>
<path d="M15.75 13C15.75 12.5858 16.0858 12.25 16.5 12.25H22C22.2871 12.25 22.549 12.4139 22.6746 12.6721C22.8001 12.9304 22.7671 13.2376 22.5897 13.4634L18.0431 19.25H22C22.4142 19.25 22.75 19.5858 22.75 20C22.75 20.4142 22.4142 20.75 22 20.75H16.5C16.2129 20.75 15.951 20.5861 15.8255 20.3279C15.7 20.0696 15.7329 19.7624 15.9103 19.5366L20.4569 13.75H16.5C16.0858 13.75 15.75 13.4142 15.75 13Z" fill="#353566"/>
<path d="M2.00001 10.25C1.5858 10.25 1.25001 10.5858 1.25001 11C1.25001 11.4142 1.5858 11.75 2.00001 11.75H10.3046L1.44506 21.4955C1.24537 21.7152 1.19403 22.0319 1.31413 22.3034C1.43423 22.5749 1.70315 22.75 2.00001 22.75H12C12.4142 22.75 12.75 22.4142 12.75 22C12.75 21.5858 12.4142 21.25 12 21.25H3.69543L12.555 11.5045C12.7547 11.2848 12.806 10.9681 12.6859 10.6966C12.5658 10.4251 12.2969 10.25 12 10.25H2.00001Z" fill="#353566"/>
</svg>
