<svg width="24" height="24" viewBox="0 0 24 24" fill="none" xmlns="http://www.w3.org/2000/svg">
<g clip-path="url(#clip0_9001_303438)">
<path d="M12 1.75006C17.6609 1.75006 22.25 6.33914 22.25 12.0001C22.25 17.661 17.6609 22.2501 12 22.2501C11.5858 22.2501 11.25 22.5858 11.25 23.0001C11.25 23.4143 11.5858 23.7501 12 23.7501C18.4893 23.7501 23.75 18.4894 23.75 12.0001C23.75 5.51072 18.4893 0.250061 12 0.250061C11.5858 0.250061 11.25 0.585847 11.25 1.00006C11.25 1.41427 11.5858 1.75006 12 1.75006Z" fill="#353566"/>
<path d="M8.76354 1.43611C8.55445 0.924942 7.97055 0.680061 7.45938 0.889157C7.42394 0.903655 7.38858 0.918318 7.35331 0.933144C6.84417 1.14715 6.60492 1.73337 6.81893 2.24251C7.03294 2.75165 7.61916 2.9909 8.1283 2.77689C8.15765 2.76455 8.18709 2.75234 8.21659 2.74028C8.72776 2.53118 8.97264 1.94729 8.76354 1.43611Z" fill="#353566"/>
<path d="M4.96963 3.481C4.58097 3.08862 3.94781 3.0856 3.55544 3.47426C3.52823 3.50121 3.50115 3.52829 3.4742 3.5555C3.08554 3.94788 3.08855 4.58104 3.48093 4.9697C3.87331 5.35836 4.50647 5.35535 4.89513 4.96297C4.91761 4.94027 4.9402 4.91768 4.9629 4.89519C5.35528 4.50653 5.35829 3.87337 4.96963 3.481Z" fill="#353566"/>
<path d="M2.24244 6.819C1.73331 6.60499 1.14708 6.84424 0.933077 7.35337C0.918251 7.38865 0.903587 7.424 0.88909 7.45945C0.679993 7.97062 0.924875 8.55451 1.43605 8.76361C1.94722 8.97271 2.53111 8.72783 2.74021 8.21665C2.75228 8.18715 2.76448 8.15772 2.77682 8.12836C2.99083 7.61923 2.75158 7.033 2.24244 6.819Z" fill="#353566"/>
<path d="M1.00484 10.9471C0.45256 10.9445 0.00273895 11.3901 0.000135422 11.9424L0 12.0001L0.000135422 12.0577C0.00273895 12.61 0.45256 13.0556 1.00484 13.053C1.55712 13.0504 2.00272 12.6006 2.00011 12.0483L2 12.0001L2.00011 11.9518C2.00272 11.3995 1.55712 10.9497 1.00484 10.9471Z" fill="#353566"/>
<path d="M1.43605 15.2365C0.924873 15.4456 0.679993 16.0295 0.88909 16.5407L0.915586 16.6049L0.933077 16.6468C1.14708 17.1559 1.73331 17.3951 2.24244 17.1811C2.75158 16.9671 2.99083 16.3809 2.77682 15.8718L2.75878 15.8286L2.74021 15.7835C2.53111 15.2723 1.94722 15.0274 1.43605 15.2365Z" fill="#353566"/>
<path d="M3.48093 19.0304C3.08855 19.4191 3.08554 20.0523 3.4742 20.4446C3.50115 20.4718 3.52822 20.4989 3.55543 20.5259C3.94781 20.9145 4.58097 20.9115 4.96963 20.5191C5.35829 20.1268 5.35528 19.4936 4.9629 19.1049L4.9381 19.0803L4.89512 19.0372C4.50646 18.6448 3.87331 18.6418 3.48093 19.0304Z" fill="#353566"/>
<path d="M6.81893 21.7576C6.60492 22.2668 6.84417 22.853 7.35331 23.067C7.38858 23.0818 7.42394 23.0965 7.45938 23.111C7.97055 23.3201 8.55445 23.0752 8.76354 22.564C8.97264 22.0528 8.72776 21.469 8.21658 21.2599C8.18708 21.2478 8.15765 21.2356 8.12829 21.2232C7.61916 21.0092 7.03294 21.2485 6.81893 21.7576Z" fill="#353566"/>
<path fill-rule="evenodd" clip-rule="evenodd" d="M17.4935 7.62955L17.6395 7.39187C17.8206 7.09621 17.7755 6.71487 17.5303 6.46971C17.2851 6.22455 16.9038 6.17945 16.6081 6.36056L16.3705 6.50659C16.2191 6.59975 16.0024 6.73341 15.7405 6.8956C15.2169 7.2199 14.5122 7.65871 13.7886 8.11618C13.0659 8.57313 12.3207 9.05095 11.7177 9.45264C11.4166 9.65323 11.1465 9.83776 10.9306 9.99285C10.7306 10.1365 10.532 10.2863 10.4091 10.4092C9.53044 11.2878 9.53044 12.7125 10.4091 13.5911C11.2878 14.4698 12.7124 14.4698 13.5911 13.5911C13.714 13.4683 13.8638 13.2697 14.0074 13.0697C14.1625 12.8537 14.347 12.5836 14.5476 12.2825C14.9493 11.6794 15.4271 10.9343 15.884 10.2115C16.3414 9.48795 16.7802 8.78317 17.1045 8.25955C17.2667 7.99766 17.4003 7.7809 17.4935 7.62955ZM14.6161 9.41L14.6607 9.3395L14.5902 9.38403C13.871 9.83872 13.1376 10.3091 12.5493 10.701C12.2548 10.8972 12.0011 11.0708 11.8055 11.2112C11.7077 11.2815 11.6281 11.3408 11.5672 11.3886C11.5368 11.4125 11.5132 11.4318 11.4955 11.4469C11.4778 11.4621 11.4703 11.4694 11.4698 11.4698C11.1769 11.7627 11.1769 12.2376 11.4698 12.5305C11.7627 12.8234 12.2376 12.8234 12.5305 12.5305C12.531 12.5299 12.5383 12.5224 12.5534 12.5048C12.5685 12.4871 12.5878 12.4634 12.6116 12.4331C12.6594 12.3722 12.7187 12.2926 12.789 12.1948C12.9294 11.9992 13.103 11.7455 13.2992 11.4509C13.691 10.8626 14.1614 10.1292 14.6161 9.41Z" fill="#353566"/>
</g>
<defs>
<clipPath id="clip0_9001_303438">
<rect width="24" height="24" fill="white"/>
</clipPath>
</defs>
</svg>
