<svg width="24" height="24" viewBox="0 0 24 24" fill="none" xmlns="http://www.w3.org/2000/svg">
<path d="M6.45045 4.59896C7.99636 3.43778 9.9168 2.75 12 2.75C17.1087 2.75 21.25 6.89137 21.25 12C21.25 17.1086 17.1087 21.25 12 21.25C7.85935 21.25 4.35229 18.5288 3.17338 14.7753C3.04926 14.3801 2.62829 14.1603 2.23311 14.2845C1.83792 14.4086 1.61819 14.8296 1.74231 15.2247C3.11193 19.5854 7.18544 22.75 12 22.75C17.9371 22.75 22.75 17.9371 22.75 12C22.75 6.06294 17.9371 1.25 12 1.25C9.58084 1.25 7.34633 2.05002 5.54958 3.39961C4.80452 3.95925 4.01532 4.75246 3.35036 5.52046C3.14014 5.76325 2.93794 6.00861 2.75 6.24865L2.75 2.5C2.75 2.08579 2.41421 1.75 2 1.75C1.58579 1.75 1.25 2.08579 1.25 2.5V8C1.25 8.41421 1.58579 8.75 2 8.75H2.4425C2.4523 8.75019 2.46209 8.75019 2.47187 8.75H7.5C7.91421 8.75 8.25 8.41421 8.25 8C8.25 7.58579 7.91421 7.25 7.5 7.25H3.87145C4.05573 7.01164 4.26208 6.75904 4.48436 6.50232C5.11169 5.77778 5.82249 5.07064 6.45045 4.59896Z" fill="#353566"/>
<path d="M10.3355 8.32918C10.5895 8.45623 10.75 8.71593 10.75 9V15C10.75 15.4142 10.4143 15.75 10 15.75C9.58583 15.75 9.25004 15.4142 9.25004 15V10.5L8.45004 11.1C8.11867 11.3485 7.64857 11.2814 7.40004 10.95C7.15152 10.6186 7.21867 10.1485 7.55004 9.9L9.55004 8.4C9.77731 8.22956 10.0814 8.20214 10.3355 8.32918Z" fill="#353566"/>
<path d="M13.2595 10.0495C13.4261 9.86291 13.6456 9.75 14 9.75C14.6891 9.75 14.9989 10.2107 15 10.598L14.9999 10.6174C14.9965 10.8284 14.8859 11.0458 14.5406 11.3412C14.3701 11.4872 14.169 11.6293 13.9386 11.7855C13.8947 11.8152 13.8493 11.8458 13.8027 11.8772C13.617 12.0021 13.4143 12.1386 13.2293 12.277C13.0601 12.4037 12.8891 12.5502 12.7197 12.7197C12.1515 13.2878 11.8433 13.8099 11.6786 14.2215C11.5968 14.4261 11.552 14.5996 11.5277 14.733C11.5156 14.7996 11.5087 14.8559 11.5048 14.9008C11.5028 14.9233 11.5016 14.9429 11.5009 14.9594L11.5002 14.982L11.5 14.9916L11.5 14.9959L11.5 14.998L11.5 15C11.5001 15.0005 11.507 15 12.25 15H11.5C11.5 15.4142 11.8358 15.75 12.25 15.75H16C16.4142 15.75 16.75 15.4142 16.75 15C16.75 14.5858 16.4142 14.25 16 14.25H13.3737C13.4775 14.1081 13.6103 13.9504 13.7803 13.7803C13.8987 13.662 14.0155 13.5622 14.1281 13.4779C14.28 13.3643 14.4419 13.2552 14.6234 13.133C14.6741 13.0988 14.7264 13.0637 14.7803 13.0271C15.0158 12.8674 15.2768 12.6855 15.5159 12.4809C15.9889 12.0762 16.4888 11.4863 16.4998 10.6349L16.5 10.6049V10.6C16.5 9.38767 15.5225 8.25 14 8.25C13.2544 8.25 12.6149 8.5192 12.1405 9.05049C11.8451 9.3814 11.5 9.90616 11.5 10.7C11.5 11.1142 11.8358 11.45 12.25 11.45C12.6642 11.45 13 11.1142 13 10.7C13 10.3938 13.1164 10.2097 13.2595 10.0495Z" fill="#353566"/>
</svg>
