<svg width="24" height="24" viewBox="0 0 24 24" fill="none" xmlns="http://www.w3.org/2000/svg">
<path opacity="0.4" d="M15.633 1.25H8.367C7.27486 1.24999 6.40936 1.24999 5.71173 1.30699C4.99835 1.36527 4.39472 1.48688 3.84355 1.76772C2.94978 2.22312 2.22312 2.94978 1.76772 3.84355C1.48688 4.39472 1.36527 4.99834 1.30699 5.71173C1.24999 6.40935 1.24999 7.27485 1.25 8.36699V15.633C1.24999 16.7251 1.24999 17.5906 1.30699 18.2883C1.36527 19.0017 1.48688 19.6053 1.76772 20.1565C2.22312 21.0502 2.94977 21.7769 3.84355 22.2323C4.39472 22.5131 4.99835 22.6347 5.71173 22.693C6.40935 22.75 7.27484 22.75 8.36698 22.75H15.633C16.7252 22.75 17.5906 22.75 18.2883 22.693C19.0017 22.6347 19.6053 22.5131 20.1565 22.2323C21.0502 21.7769 21.7769 21.0502 22.2323 20.1565C22.5131 19.6053 22.6347 19.0017 22.693 18.2883C22.75 17.5906 22.75 16.7252 22.75 15.633V8.36698C22.75 7.27484 22.75 6.40935 22.693 5.71173C22.6347 4.99835 22.5131 4.39472 22.2323 3.84355C21.7769 2.94977 21.0502 2.22312 20.1565 1.76772C19.6053 1.48688 19.0017 1.36527 18.2883 1.30699C17.5906 1.24999 16.7251 1.24999 15.633 1.25Z" fill="#353566"/>
<path d="M17.3997 8.08688C17.8219 7.14383 16.8562 6.17812 15.9132 6.60033L7.16572 10.5166C6.12652 10.9818 6.3568 12.5194 7.48669 12.6599L10.9142 13.0858L11.3402 16.5134C11.4806 17.6433 13.0182 17.8735 13.4835 16.8343L17.3997 8.08688Z" fill="#353566"/>
</svg>
