<svg width="24" height="24" viewBox="0 0 24 24" fill="none" xmlns="http://www.w3.org/2000/svg">
<path opacity="0.4" d="M12 1.25C7.16751 1.25 3.25 5.16754 3.25 10C3.25 14.2073 5.92621 17.1754 7.78067 19.2322L7.94247 19.4117C8.62466 20.1697 10.2022 21.632 10.9929 22.3568C11.5634 22.8798 12.4365 22.8798 13.007 22.3568C13.7978 21.632 15.3752 20.1697 16.0574 19.4117L16.2124 19.2397C17.9881 17.2706 20.7499 14.2078 20.7499 10C20.7499 5.16755 16.8324 1.25 12 1.25Z" fill="#353566"/>
<path d="M8.96967 11.9695C8.67678 12.2624 8.67678 12.7373 8.96967 13.0302C9.26256 13.3231 9.73744 13.3231 10.0303 13.0302L12 11.0605L13.9697 13.0302C14.2626 13.3231 14.7374 13.3231 15.0303 13.0302C15.3232 12.7373 15.3232 12.2624 15.0303 11.9695L13.0607 9.99985L15.0303 8.03021C15.3232 7.73731 15.3232 7.26244 15.0303 6.96955C14.7374 6.67665 14.2625 6.67665 13.9696 6.96955L12 8.93919L10.0304 6.96956C9.73748 6.67666 9.2626 6.67666 8.96971 6.96956C8.67682 7.26245 8.67682 7.73732 8.96971 8.03022L10.9393 9.99985L8.96967 11.9695Z" fill="#353566"/>
</svg>
