<svg width="24" height="24" viewBox="0 0 24 24" fill="none" xmlns="http://www.w3.org/2000/svg">
<path opacity="0.4" d="M9.99998 1.25C5.16751 1.25 1.25 5.16754 1.25 10C1.25 14.2034 3.91922 17.166 5.77085 19.2212L5.94247 19.4117C6.62465 20.1697 8.20215 21.632 8.99292 22.3568C9.31361 22.6508 9.7316 22.78 10.1366 22.7428C10.3912 22.7193 10.6164 22.5678 10.7339 22.3406C10.8515 22.1135 10.8452 21.8422 10.7173 21.6208C10.1022 20.556 9.74994 19.3203 9.74994 18C9.74994 13.9959 12.9959 10.75 16.9999 10.75C17.3074 10.75 17.6101 10.7691 17.9069 10.8061C18.1195 10.8326 18.3332 10.767 18.4942 10.6258C18.6552 10.4846 18.7482 10.2812 18.7497 10.0671L18.7499 10C18.7499 5.16756 14.8324 1.25 9.99998 1.25Z" fill="#353566"/>
<path d="M12.5 10C12.5 11.3807 11.3807 12.5 10 12.5C8.61929 12.5 7.5 11.3807 7.5 10C7.5 8.61929 8.61929 7.5 10 7.5C11.3807 7.5 12.5 8.61929 12.5 10Z" fill="#353566"/>
<path fill-rule="evenodd" clip-rule="evenodd" d="M17 12.25C13.8244 12.25 11.25 14.8244 11.25 18C11.25 21.1756 13.8244 23.75 17 23.75C20.1756 23.75 22.75 21.1756 22.75 18C22.75 14.8244 20.1756 12.25 17 12.25ZM18.0582 19.9419C18.3023 20.186 18.698 20.186 18.9421 19.9419C19.1861 19.6979 19.1861 19.3021 18.942 19.0581L17.8839 18L18.9419 16.9419C19.186 16.6979 19.186 16.3021 18.9419 16.0581C18.6979 15.814 18.3021 15.814 18.0581 16.0581L17 17.1161L15.942 16.0581C15.6979 15.814 15.3022 15.814 15.0581 16.0581C14.814 16.3021 14.814 16.6979 15.0581 16.9419L16.1162 18L15.0581 19.0581C14.814 19.3021 14.814 19.6979 15.0581 19.9419C15.3021 20.186 15.6979 20.186 15.9419 19.9419L17 18.8838L18.0582 19.9419Z" fill="#353566"/>
</svg>
