<svg width="24" height="24" viewBox="0 0 24 24" fill="none" xmlns="http://www.w3.org/2000/svg">
<path opacity="0.4" d="M12 1.25C7.16751 1.25 3.25 5.16754 3.25 10C3.25 14.2073 5.92621 17.1754 7.78067 19.2322L7.94247 19.4117C8.62466 20.1697 10.2022 21.632 10.9929 22.3568C11.5634 22.8798 12.4365 22.8798 13.007 22.3568C13.7978 21.632 15.3752 20.1697 16.0574 19.4117L16.2124 19.2397C17.9881 17.2706 20.7499 14.2078 20.7499 10C20.7499 5.16755 16.8324 1.25 12 1.25Z" fill="#353566"/>
<path d="M5.25 22C5.25 21.5858 5.58579 21.25 6 21.25H18C18.4142 21.25 18.75 21.5858 18.75 22C18.75 22.4142 18.4142 22.75 18 22.75H6C5.58579 22.75 5.25 22.4142 5.25 22Z" fill="#353566"/>
</svg>
