<svg width="24" height="24" viewBox="0 0 24 24" fill="none" xmlns="http://www.w3.org/2000/svg">
<path opacity="0.4" d="M13.2 15.2633C12.4889 15.7966 11.5111 15.7966 10.8 15.2633C8.53454 13.5642 5.51391 10.8117 5.34113 7.00818C5.33427 6.8571 5.17207 6.76042 5.0389 6.83213L2.43328 8.23516C1.70448 8.62758 1.25 9.38848 1.25 10.2162V20.8432C1.25 21.789 2.25983 22.3922 3.09262 21.9438L8.24494 19.1694C8.39686 19.0876 8.58024 19.0899 8.73005 19.1755L14.5257 22.4874C15.125 22.8298 15.8585 22.8391 16.4662 22.5118L21.5667 19.7654C22.2955 19.373 22.75 18.6121 22.75 17.7843V7.15738C22.75 6.21154 21.7402 5.60837 20.9074 6.05679L18.7374 7.22523C18.6778 7.25736 18.6386 7.318 18.6321 7.38545C18.2844 10.995 15.3899 13.6209 13.2 15.2633Z" fill="#353566"/>
<path fill-rule="evenodd" clip-rule="evenodd" d="M12 1.49677C9.14616 1.49677 6.83325 3.81261 6.83325 6.6658C6.83325 9.84682 9.36668 12.3135 11.6999 14.0634C11.8777 14.1968 12.1221 14.1968 12.2999 14.0634C14.6333 12.3134 17.1666 9.84677 17.1666 6.66343C17.1666 3.80993 14.8535 1.49677 12 1.49677ZM13.75 6.66353C13.75 7.63005 12.9665 8.41356 11.9999 8.41356C11.0334 8.41356 10.2499 7.63005 10.2499 6.66353C10.2499 5.69702 11.0334 4.9135 11.9999 4.9135C12.9665 4.9135 13.75 5.69702 13.75 6.66353Z" fill="#353566"/>
<path d="M10.7999 15.2633C11.511 15.7967 12.4887 15.7967 13.1999 15.2633C13.9285 14.7169 14.7351 14.0616 15.4999 13.2973V22.75C15.1633 22.747 14.8275 22.6591 14.5257 22.4866L8.72999 19.1748C8.65859 19.134 8.57955 19.1121 8.49994 19.1092V13.2976C9.2648 14.0617 10.0714 14.717 10.7999 15.2633Z" fill="#353566"/>
</svg>
