<svg width="24" height="24" viewBox="0 0 24 24" fill="none" xmlns="http://www.w3.org/2000/svg">
<path opacity="0.4" d="M12 1.25C8.82436 1.25 6.25 3.82436 6.25 7C6.25 10.1756 8.82436 12.75 12 12.75C15.1756 12.75 17.75 10.1756 17.75 7C17.75 3.82436 15.1756 1.25 12 1.25Z" fill="#353566"/>
<path d="M10.75 7C10.75 6.30964 11.3096 5.75 12 5.75C12.4142 5.75 12.75 5.41421 12.75 5C12.75 4.58579 12.4142 4.25 12 4.25C10.4812 4.25 9.25 5.48122 9.25 7C9.25 7.41421 9.58579 7.75 10 7.75C10.4142 7.75 10.75 7.41421 10.75 7Z" fill="#353566"/>
<path d="M12 12.75C11.7458 12.75 11.4955 12.7335 11.25 12.7015V22C11.25 22.4142 11.5858 22.75 12 22.75C12.4142 22.75 12.75 22.4142 12.75 22V12.7015C12.5045 12.7335 12.2542 12.75 12 12.75Z" fill="#353566"/>
</svg>
