<svg width="24" height="24" viewBox="0 0 24 24" fill="none" xmlns="http://www.w3.org/2000/svg">
<g clip-path="url(#clip0_9001_311218)">
<path opacity="0.4" d="M8.30213 0.249936C7.22028 0.249311 6.45624 0.24887 5.80028 0.526104C5.22391 0.769699 4.72339 1.16335 4.35083 1.66608C3.92682 2.23823 3.74719 2.98085 3.49285 4.03237L0.851021 14.9271C0.612884 15.9091 0.422412 16.6945 0.32608 17.3328C0.227747 17.9842 0.212168 18.5682 0.387292 19.1251C0.661608 19.9973 1.24514 20.7392 2.02815 21.2114C2.52802 21.5128 3.09923 21.6353 3.75553 21.6932C4.39846 21.75 5.20663 21.75 6.21706 21.75H12.5C12.9142 21.75 13.25 21.4142 13.25 21V18.25C13.25 17.2004 13.7461 16.2674 14.5216 15.6712L14.7019 15.5326C14.8738 15.4005 14.9801 15.2005 14.9934 14.9842L15.0074 14.7572C15.1368 12.6605 17.0423 11.25 19 11.25C19.7198 11.25 20.453 11.4466 21.0926 11.8108C21.3526 11.9589 21.6758 11.9382 21.9149 11.7582C22.154 11.5781 22.2631 11.2732 22.1926 10.9823L20.5072 4.03231C20.2528 2.9808 20.0732 2.23819 19.6491 1.66604C19.2766 1.16333 18.7761 0.769685 18.1997 0.526097C17.5437 0.24887 16.7797 0.249311 15.6979 0.249936H8.30213Z" fill="#353566"/>
<path d="M12.75 0.25V5C12.75 5.41421 12.4142 5.75 12 5.75C11.5858 5.75 11.25 5.41421 11.25 5V0.25H12.75Z" fill="#353566"/>
<path d="M12 8.25C12.4142 8.25 12.75 8.58579 12.75 9V13C12.75 13.4142 12.4142 13.75 12 13.75C11.5858 13.75 11.25 13.4142 11.25 13V9C11.25 8.58579 11.5858 8.25 12 8.25Z" fill="#353566"/>
<path d="M12.5001 21.5C12.5001 21.584 12.5026 21.6673 12.5077 21.75H11.25V17C11.25 16.5858 11.5858 16.25 12 16.25C12.3736 16.25 12.6833 16.5231 12.7405 16.8805C12.5849 17.3078 12.5001 17.769 12.5001 18.25V21.5Z" fill="#353566"/>
<path fill-rule="evenodd" clip-rule="evenodd" d="M19 12.25C17.4286 12.25 16 13.4006 16 15V16.2677C15.1519 16.389 14.5 17.1184 14.5 18V21.75C14.5 22.7165 15.2835 23.5 16.25 23.5H21.75C22.7165 23.5 23.5 22.7165 23.5 21.75V18C23.5 17.1184 22.8481 16.389 22 16.2677V15C22 13.4006 20.5714 12.25 19 12.25ZM17.5 15C17.5 14.3902 18.0861 13.75 19 13.75C19.9139 13.75 20.5 14.3902 20.5 15V16H17.5V15Z" fill="#353566"/>
</g>
<defs>
<clipPath id="clip0_9001_311218">
<rect width="24" height="24" fill="white"/>
</clipPath>
</defs>
</svg>
