<svg width="24" height="24" viewBox="0 0 24 24" fill="none" xmlns="http://www.w3.org/2000/svg">
<g clip-path="url(#clip0_9001_279746)">
<path opacity="0.4" d="M22.8702 13.6951C22.9557 13.1426 23 12.5765 23 12C23 5.92487 18.0751 1 12 1C5.92487 1 1 5.92487 1 12C1 18.0751 5.92487 23 12 23C12.5765 23 13.1426 22.9557 13.6951 22.8702C12.3488 21.6793 11.5 19.9388 11.5 18C11.5 14.4101 14.4101 11.5 18 11.5C19.9388 11.5 21.6793 12.3488 22.8702 13.6951Z" fill="#353566"/>
<path fill-rule="evenodd" clip-rule="evenodd" d="M12 0.5C5.64873 0.5 0.5 5.64873 0.5 12C0.5 18.3513 5.64873 23.5 12 23.5C12.7584 23.5 13.4997 23.4266 14.2172 23.2865C13.754 22.9544 13.3363 22.5631 12.9751 22.1235C12.6451 22.3803 12.3187 22.5 12 22.5C11.4955 22.5 10.9949 22.2516 10.5055 21.717C10.0129 21.1791 9.56432 20.3833 9.18633 19.3854C8.76331 18.2686 8.44187 16.9338 8.24099 15.5H11.9982C12.1441 15.1501 12.3197 14.8158 12.5218 14.5H8.1221C8.04178 13.682 8 12.8419 8 12C8 11.1581 8.04178 10.318 8.1221 9.5H15.8779C15.9523 10.2577 15.9936 11.0343 15.9993 11.8137C16.3215 11.7096 16.6546 11.63 16.9966 11.577C16.9855 10.88 16.9471 10.184 16.8825 9.5H22.2006C22.3962 10.3012 22.5 11.1385 22.5 12C22.5 12.4199 22.4754 12.834 22.4274 13.241C22.7451 13.5366 23.033 13.8637 23.2865 14.2172C23.4266 13.4997 23.5 12.7584 23.5 12C23.5 5.64873 18.3513 0.5 12 0.5ZM1.79945 9.5C1.60375 10.3012 1.5 11.1385 1.5 12C1.5 12.8615 1.60375 13.6988 1.79945 14.5H7.11749C7.03988 13.6776 7 12.838 7 12C7 11.162 7.03988 10.3224 7.11749 9.5H1.79945ZM2.09747 8.5H7.23163C7.43989 6.94951 7.78484 5.49149 8.25117 4.26039C8.62269 3.27958 9.08014 2.41901 9.62607 1.76948C6.11718 2.58044 3.28149 5.15011 2.09747 8.5ZM12 1.5C11.4955 1.5 10.9949 1.74843 10.5055 2.28296C10.0129 2.82093 9.56432 3.61673 9.18633 4.61461C8.76331 5.73138 8.44187 7.06619 8.24099 8.5H15.759C15.5581 7.06619 15.2367 5.73138 14.8137 4.61461C14.4357 3.61673 13.9871 2.82093 13.4945 2.28296C13.0051 1.74843 12.5045 1.5 12 1.5ZM16.7684 8.5C16.5601 6.94951 16.2152 5.49149 15.7488 4.26039C15.3773 3.27958 14.9199 2.41901 14.3739 1.76948C17.8828 2.58044 20.7185 5.15011 21.9025 8.5H16.7684ZM9.62607 22.2305C9.08014 21.581 8.62269 20.7204 8.25117 19.7396C7.78484 18.5085 7.43989 17.0505 7.23163 15.5H2.09747C3.28149 18.8499 6.11718 21.4196 9.62607 22.2305Z" fill="#353566"/>
<path d="M19.8535 16.8536C20.0488 16.6583 20.0488 16.3417 19.8535 16.1464C19.6582 15.9512 19.3417 15.9512 19.1464 16.1464L18 17.2928L16.8535 16.1464C16.6583 15.9511 16.3417 15.9511 16.1464 16.1464C15.9512 16.3417 15.9512 16.6582 16.1465 16.8535L17.2929 17.9999L16.1464 19.1464C15.9511 19.3417 15.9511 19.6583 16.1464 19.8536C16.3417 20.0488 16.6582 20.0488 16.8535 19.8536L18 18.707L19.1465 19.8535C19.3418 20.0488 19.6584 20.0488 19.8536 19.8535C20.0489 19.6582 20.0489 19.3416 19.8536 19.1464L18.7071 17.9999L19.8535 16.8536Z" fill="#353566"/>
<path fill-rule="evenodd" clip-rule="evenodd" d="M18 12.5C14.9624 12.5 12.5 14.9624 12.5 18C12.5 21.0376 14.9624 23.5 18 23.5C21.0376 23.5 23.5 21.0376 23.5 18C23.5 14.9624 21.0376 12.5 18 12.5ZM13.5 18C13.5 15.5147 15.5147 13.5 18 13.5C20.4853 13.5 22.5 15.5147 22.5 18C22.5 20.4853 20.4853 22.5 18 22.5C15.5147 22.5 13.5 20.4853 13.5 18Z" fill="#353566"/>
</g>
<defs>
<clipPath id="clip0_9001_279746">
<rect width="24" height="24" fill="white"/>
</clipPath>
</defs>
</svg>
