<svg width="24" height="24" viewBox="0 0 24 24" fill="none" xmlns="http://www.w3.org/2000/svg">
<path opacity="0.4" d="M21.2099 1.54618C21.3868 1.62799 21.5 1.80512 21.5 2.00001V13.5344C20.4427 12.8537 19.2331 12.5 18 12.5C15.3638 12.5 12.8355 14.1163 11.6715 17.0893C11.4428 17.6734 11.4428 18.3266 11.6715 18.9107C12.3003 20.5166 13.3271 21.7267 14.5541 22.5H1C0.723858 22.5 0.5 22.2761 0.5 22V19C0.5 18.8533 0.564411 18.714 0.676176 18.619L20.6762 1.61904C20.8247 1.49282 21.033 1.46438 21.2099 1.54618Z" fill="#353566"/>
<path d="M21.5 2C21.5 1.72386 21.2761 1.5 21 1.5C20.7239 1.5 20.5 1.72386 20.5 2V13.0062C20.8449 13.1517 21.1795 13.3281 21.5 13.5344V2Z" fill="#353566"/>
<path d="M11.5 10.5C11.5 10.2239 11.2761 10 11 10C10.7239 10 10.5 10.2239 10.5 10.5V22C10.5 22.2761 10.7239 22.5 11 22.5C11.2761 22.5 11.5 22.2761 11.5 22V10.5Z" fill="#353566"/>
<path d="M16.5 12.6775C16.1594 12.7593 15.8251 12.8691 15.5 13.0062V6.25C15.5 5.97386 15.7239 5.75 16 5.75C16.2761 5.75 16.5 5.97386 16.5 6.25V12.6775Z" fill="#353566"/>
<path d="M6.5 14.75C6.5 14.4739 6.27614 14.25 6 14.25C5.72386 14.25 5.5 14.4739 5.5 14.75V22C5.5 22.2761 5.72386 22.5 6 22.5C6.27614 22.5 6.5 22.2761 6.5 22V14.75Z" fill="#353566"/>
<path d="M1 18.5C1.27614 18.5 1.5 18.7239 1.5 19V22C1.5 22.2761 1.27614 22.5 1 22.5C0.723858 22.5 0.5 22.2761 0.5 22V19C0.5 18.7239 0.723858 18.5 1 18.5Z" fill="#353566"/>
<path fill-rule="evenodd" clip-rule="evenodd" d="M18.0001 16C16.8943 16 16.0001 16.8942 16.0001 18C16.0001 19.1058 16.8943 20 18.0001 20C19.1058 20 20.0001 19.1058 20.0001 18C20.0001 16.8942 19.1058 16 18.0001 16ZM17.0001 18C17.0001 17.4465 17.4466 17 18.0001 17C18.5535 17 19.0001 17.4465 19.0001 18C19.0001 18.5535 18.5535 19 18.0001 19C17.4466 19 17.0001 18.5535 17.0001 18Z" fill="#353566"/>
<path fill-rule="evenodd" clip-rule="evenodd" d="M18.0001 13.5C20.2069 13.5 22.3769 14.8473 23.3974 17.4539C23.5343 17.8036 23.5343 18.1964 23.3974 18.5461C22.3769 21.1527 20.2069 22.5 18.0001 22.5C15.7933 22.5 13.6233 21.1527 12.6027 18.5461C12.4658 18.1964 12.4658 17.8036 12.6027 17.4539C13.6233 14.8473 15.7933 13.5 18.0001 13.5ZM18.0001 14.5C16.2242 14.5 14.4116 15.5768 13.5339 17.8184C13.4888 17.9337 13.4888 18.0663 13.5339 18.1816C14.4116 20.4232 16.2242 21.5 18.0001 21.5C19.7759 21.5 21.5885 20.4232 22.4662 18.1816C22.5113 18.0663 22.5113 17.9337 22.4662 17.8184C21.5885 15.5768 19.7759 14.5 18.0001 14.5Z" fill="#353566"/>
</svg>
