<svg width="24" height="24" viewBox="0 0 24 24" fill="none" xmlns="http://www.w3.org/2000/svg">
<path opacity="0.4" d="M0.64288 8.15005C3.53525 5.19841 7.56115 3.5 12 3.5C16.4388 3.5 20.4647 5.19841 23.3571 8.15005C23.549 8.34587 23.5474 8.65969 23.3536 8.85355L22.4957 9.71142C21.9296 8.36608 20.4952 7.5 19 7.5C17.1411 7.5 15.3763 8.83864 15.2569 10.7726L15.2149 11.4536L14.674 11.8694C13.9573 12.4204 13.5 13.2815 13.5 14.25V17.5C13.5 17.7432 13.5289 17.9796 13.5835 18.206L12.3412 19.3655C12.1491 19.5448 11.8509 19.5448 11.6588 19.3655L4.16064 12.3653C4.15587 12.3609 4.15117 12.3564 4.14654 12.3518L0.646541 8.85365C0.452589 8.6598 0.450955 8.34591 0.64288 8.15005Z" fill="#353566"/>
<path d="M12 4.5C7.82062 4.5 4.05502 6.09677 1.35712 8.84995C1.16385 9.04718 0.847282 9.05039 0.65005 8.85712C0.452818 8.66385 0.449608 8.34728 0.64288 8.15005C3.53525 5.19841 7.56115 3.5 12 3.5C16.4388 3.5 20.4647 5.19841 23.3571 8.15005C23.5504 8.34728 23.5472 8.66385 23.35 8.85712C23.1527 9.05039 22.8362 9.04718 22.6429 8.84995C19.945 6.09677 16.1794 4.5 12 4.5Z" fill="#353566"/>
<path d="M11.999 9.5C9.23642 9.5 6.72224 10.5844 4.84358 12.3614C4.64296 12.5511 4.3265 12.5423 4.13675 12.3417C3.94699 12.1411 3.9558 11.8246 4.15642 11.6349C6.21163 9.69096 8.96852 8.5 11.999 8.5C13.3328 8.5 14.6135 8.73069 15.8048 9.15473C15.6196 9.43123 15.4744 9.7363 15.3791 10.0652C14.3181 9.69863 13.1813 9.5 11.999 9.5Z" fill="#353566"/>
<path d="M13.5 14.25C13.5 14.0622 13.5172 13.8785 13.5501 13.7003C13.0633 13.5699 12.546 13.5 11.9999 13.5C10.3619 13.5 8.98311 14.1286 7.90826 15.135C7.70668 15.3238 7.69628 15.6402 7.88502 15.8417C8.07376 16.0433 8.39017 16.0537 8.59174 15.865C9.49838 15.0161 10.6382 14.5 11.9999 14.5C12.5343 14.5 13.0346 14.5795 13.5 14.7274V14.25Z" fill="#353566"/>
<path d="M12 18.25C11.5858 18.25 11.25 18.5858 11.25 19C11.25 19.4142 11.5858 19.75 12 19.75C12.4142 19.75 12.7501 19.4142 12.7501 19C12.7501 18.5858 12.4142 18.25 12 18.25Z" fill="#353566"/>
<path fill-rule="evenodd" clip-rule="evenodd" d="M16.25 11C16.25 9.56555 17.5382 8.5 19 8.5C20.4618 8.5 21.75 9.56555 21.75 11V12.25C22.7165 12.25 23.5 13.0335 23.5 14V17.75C23.5 18.7165 22.7165 19.5 21.75 19.5H16.25C15.2835 19.5 14.5 18.7165 14.5 17.75V14C14.5 13.0335 15.2835 12.25 16.25 12.25V11ZM17.25 12.25H20.75V11C20.75 10.2253 20.0235 9.5 19 9.5C17.9765 9.5 17.25 10.2253 17.25 11V12.25ZM16.25 13.25C15.8358 13.25 15.5 13.5858 15.5 14V17.75C15.5 18.1642 15.8358 18.5 16.25 18.5H21.75C22.1642 18.5 22.5 18.1642 22.5 17.75V14C22.5 13.5858 22.1642 13.25 21.75 13.25H16.25Z" fill="#353566"/>
</svg>
