<svg width="24" height="24" viewBox="0 0 24 24" fill="none" xmlns="http://www.w3.org/2000/svg">
<path opacity="0.4" d="M0.64288 8.15005C3.53525 5.19841 7.56115 3.5 12 3.5C16.4388 3.5 20.4647 5.19841 23.3571 8.15005C23.549 8.34587 23.5474 8.65969 23.3536 8.85355L21.9594 10.2477C20.9779 8.60218 19.1802 7.5 17.125 7.5C14.0184 7.5 11.5 10.0184 11.5 13.125C11.5 15.0792 12.4965 16.8006 14.0091 17.8088L12.3412 19.3655C12.1491 19.5448 11.8509 19.5448 11.6588 19.3655L4.16064 12.3653C4.15587 12.3609 4.15117 12.3564 4.14654 12.3518L0.646541 8.85365C0.452589 8.6598 0.450955 8.34591 0.64288 8.15005Z" fill="#353566"/>
<path d="M12 4.5C7.82062 4.5 4.05502 6.09677 1.35712 8.84995C1.16385 9.04718 0.847282 9.05039 0.65005 8.85712C0.452818 8.66385 0.449608 8.34728 0.64288 8.15005C3.53525 5.19841 7.56115 3.5 12 3.5C16.4388 3.5 20.4647 5.19841 23.3571 8.15005C23.5504 8.34728 23.5472 8.66385 23.35 8.85712C23.1527 9.05039 22.8362 9.04718 22.6429 8.84995C19.945 6.09677 16.1794 4.5 12 4.5Z" fill="#353566"/>
<path d="M11.999 9.5C9.23642 9.5 6.72224 10.5844 4.84358 12.3614C4.64296 12.5511 4.3265 12.5423 4.13675 12.3417C3.94699 12.1411 3.9558 11.8246 4.15642 11.6349C6.21163 9.69096 8.96852 8.5 11.999 8.5C12.5905 8.5 13.1716 8.54537 13.739 8.63285C13.3919 8.89494 13.076 9.19635 12.7982 9.53045C12.5344 9.51027 12.2679 9.5 11.999 9.5Z" fill="#353566"/>
<path d="M11.6718 14.5102C11.5907 14.1898 11.5371 13.8584 11.5136 13.5188C10.0876 13.6303 8.875 14.2298 7.90826 15.135C7.70668 15.3238 7.69628 15.6402 7.88502 15.8417C8.07376 16.0433 8.39017 16.0537 8.59174 15.865C9.42459 15.0852 10.4542 14.5862 11.6718 14.5102Z" fill="#353566"/>
<path d="M12 18.25C11.5858 18.25 11.25 18.5858 11.25 19C11.25 19.4142 11.5858 19.75 12 19.75C12.4142 19.75 12.7501 19.4142 12.7501 19C12.7501 18.5858 12.4142 18.25 12 18.25Z" fill="#353566"/>
<path fill-rule="evenodd" clip-rule="evenodd" d="M12.5 13.125C12.5 10.5707 14.5707 8.5 17.125 8.5C19.6793 8.5 21.75 10.5707 21.75 13.125C21.75 14.222 21.368 15.2299 20.7299 16.0228L23.3535 18.6465C23.5488 18.8417 23.5488 19.1583 23.3535 19.3536C23.1582 19.5488 22.8416 19.5488 22.6464 19.3535L20.0228 16.7299C19.2299 17.368 18.222 17.75 17.125 17.75C14.5707 17.75 12.5 15.6793 12.5 13.125ZM17.125 9.5C15.123 9.5 13.5 11.123 13.5 13.125C13.5 15.127 15.123 16.75 17.125 16.75C19.127 16.75 20.75 15.127 20.75 13.125C20.75 11.123 19.127 9.5 17.125 9.5Z" fill="#353566"/>
</svg>
