<svg width="24" height="24" viewBox="0 0 24 24" fill="none" xmlns="http://www.w3.org/2000/svg">
<path d="M2.35355 1.64645C2.15829 1.45118 1.84171 1.45118 1.64645 1.64645C1.45118 1.84171 1.45118 2.15829 1.64645 2.35355L4.83292 5.54002C3.96922 6.89466 3.5 8.47806 3.5 10.1099V17C3.5 17.2761 3.72386 17.5 4 17.5C4.27614 17.5 4.5 17.2761 4.5 17V10.1099C4.5 8.74529 4.87187 7.41904 5.55951 6.26662L7.76671 8.47381C7.59187 8.95874 7.5 9.47464 7.5 10V11.1099C7.5 11.386 7.72386 11.6099 8 11.6099C8.27614 11.6099 8.5 11.386 8.5 11.1099V10C8.5 9.75675 8.52532 9.51611 8.5745 9.28161L11.5 12.2071L11.5 18.1099C11.5 18.386 11.7239 18.6099 12 18.6099C12.2761 18.6099 12.5 18.386 12.5 18.1099L12.5 13.2071L15.5 16.2071V18.1099C15.5 19.0381 15.1313 19.9284 14.4749 20.5847C13.8185 21.2411 12.9283 21.6099 12 21.6099C11.7239 21.6099 11.5 21.8337 11.5 22.1099C11.5 22.386 11.7239 22.6099 12 22.6099C13.1935 22.6099 14.3381 22.1358 15.182 21.2918C16.0259 20.4479 16.5 19.3033 16.5 18.1099V17.2071L21.6464 22.3536C21.8417 22.5488 22.1583 22.5488 22.3536 22.3536C22.5488 22.1583 22.5488 21.8417 22.3536 21.6464L8.71593 8.00882C8.71061 8.00325 8.70515 7.99779 8.69956 7.99245L5.83782 5.13071C5.83371 5.12646 5.82952 5.12227 5.82524 5.11814L2.35355 1.64645Z" fill="#353566"/>
<path d="M12 1.60986C10.2814 1.60986 8.61641 2.13035 7.21588 3.084C6.98762 3.23942 6.92858 3.55045 7.084 3.7787C7.23942 4.00696 7.55045 4.066 7.7787 3.91058C9.01451 3.06909 10.4836 2.60986 12 2.60986C13.712 2.60986 15.3637 3.19523 16.6875 4.25513C16.903 4.42773 17.2177 4.3929 17.3903 4.17734C17.5629 3.96178 17.5281 3.64712 17.3125 3.47452C15.8122 2.27329 13.9403 1.60986 12 1.60986Z" fill="#353566"/>
<path d="M12 5.5C11.3554 5.5 10.7249 5.63833 10.1485 5.89853C9.89685 6.01214 9.78491 6.30827 9.89853 6.55996C10.0121 6.81165 10.3083 6.92358 10.56 6.80997C11.0083 6.60757 11.4986 6.5 12 6.5C12.9283 6.5 13.8185 6.86875 14.4749 7.52513C15.1313 8.1815 15.5 9.07174 15.5 10V12C15.5 12.2761 15.7239 12.5 16 12.5C16.2761 12.5 16.5 12.2761 16.5 12V10C16.5 8.80653 16.0259 7.66193 15.182 6.81802C14.3381 5.97411 13.1935 5.5 12 5.5Z" fill="#353566"/>
<path d="M20.2301 7.98485C20.1611 7.71748 19.8883 7.5567 19.621 7.62574C19.3536 7.69479 19.1928 7.9675 19.2619 8.23488C19.4187 8.84224 19.5 9.47184 19.5 10.1099V16C19.5 16.2761 19.7239 16.5 20 16.5C20.2761 16.5 20.5 16.2761 20.5 16V10.1099C20.5 9.38683 20.4079 8.67324 20.2301 7.98485Z" fill="#353566"/>
<path d="M8.5 15.6099C8.5 15.3337 8.27614 15.1099 8 15.1099C7.72386 15.1099 7.5 15.3337 7.5 15.6099V18.1099C7.5 18.386 7.72386 18.6099 8 18.6099C8.27614 18.6099 8.5 18.386 8.5 18.1099V15.6099Z" fill="#353566"/>
</svg>
