<svg width="24" height="24" viewBox="0 0 24 24" fill="none" xmlns="http://www.w3.org/2000/svg">
<path fill-rule="evenodd" clip-rule="evenodd" d="M12 10.4583C11.1485 10.4583 10.4583 11.1485 10.4583 11.9999C10.4583 12.8514 11.1485 13.5416 12 13.5416C12.8514 13.5416 13.5416 12.8514 13.5416 11.9999C13.5416 11.1485 12.8514 10.4583 12 10.4583ZM11.4583 11.9999C11.4583 11.7008 11.7008 11.4583 12 11.4583C12.2991 11.4583 12.5416 11.7008 12.5416 11.9999C12.5416 12.2991 12.2991 12.5416 12 12.5416C11.7008 12.5416 11.4583 12.2991 11.4583 11.9999Z" fill="#353566"/>
<path fill-rule="evenodd" clip-rule="evenodd" d="M7.70659 13.8849C7.36711 13.2958 7.56822 12.5422 8.15716 12.2016C8.31184 12.1121 8.31184 11.8877 8.15716 11.7982C7.56822 11.4576 7.36711 10.704 7.70659 10.1149L8.22303 9.21884C8.56281 8.62926 9.31616 8.42661 9.9056 8.76753C10.0585 8.85596 10.2523 8.74631 10.2523 8.5659C10.2523 7.88599 10.8027 7.33329 11.4836 7.33329H12.5165C13.1974 7.33329 13.7478 7.886 13.7478 8.56592C13.7478 8.74636 13.9416 8.85599 14.0945 8.76757C14.6839 8.42664 15.4372 8.62931 15.777 9.21888L16.2935 10.115C16.6329 10.704 16.4318 11.4576 15.8429 11.7983C15.6883 11.8877 15.6883 12.1121 15.8429 12.2016C16.4318 12.5422 16.6329 13.2958 16.2935 13.8848L15.777 14.7809C15.4372 15.3705 14.6839 15.5732 14.0945 15.2323C13.9416 15.1438 13.7478 15.2535 13.7478 15.4339C13.7478 16.1139 13.1974 16.6666 12.5164 16.6666H11.4836C10.8027 16.6666 10.2523 16.1139 10.2523 15.434C10.2523 15.2535 10.0585 15.1439 9.90559 15.2323C9.31613 15.5732 8.56281 15.3705 8.22303 14.781L7.70659 13.8849ZM8.65783 13.0672C8.54717 13.1312 8.50857 13.2738 8.573 13.3856L9.08944 14.2816C9.15356 14.3929 9.29479 14.4304 9.40492 14.3667C10.2272 13.8911 11.2523 14.4865 11.2523 15.434C11.2523 15.5633 11.3567 15.6666 11.4836 15.6666H12.5164C12.6434 15.6666 12.7478 15.5633 12.7478 15.4339C12.7478 14.4865 13.7729 13.891 14.5951 14.3666C14.7053 14.4303 14.8465 14.3929 14.9106 14.2816L15.4271 13.3855C15.4915 13.2737 15.4529 13.1312 15.3422 13.0672C14.5218 12.5927 14.5218 11.4071 15.3422 10.9326C15.4529 10.8686 15.4915 10.7261 15.4271 10.6143L14.9106 9.71821C14.8465 9.60695 14.7053 9.56951 14.5951 9.63321C13.7729 10.1088 12.7478 9.51343 12.7478 8.56592C12.7478 8.4366 12.6434 8.33329 12.5165 8.33329H11.4836C11.3567 8.33329 11.2523 8.43659 11.2523 8.5659C11.2523 9.51343 10.2271 10.1087 9.40493 9.63317C9.29479 9.56946 9.15355 9.60692 9.08944 9.71817L8.573 10.6143C8.50857 10.726 8.54717 10.8686 8.65783 10.9326C9.47828 11.4071 9.47828 12.5927 8.65783 13.0672Z" fill="#353566"/>
<path fill-rule="evenodd" clip-rule="evenodd" d="M10.1906 1.43545C11.327 0.859661 12.6696 0.859565 13.8061 1.43519L20.9037 5.03034C21.5762 5.37095 22 6.06072 22 6.81451V8.83917C22 9.32294 21.9011 10.2936 21.7861 11.2683C21.5242 13.4897 20.6656 15.5876 19.3699 17.3952C17.8673 19.4912 15.8944 21.2058 13.6094 22.4014L12.859 22.794C12.3199 23.0761 11.6768 23.0761 11.1377 22.7941L10.3889 22.4025C8.10183 21.2062 6.12751 19.4896 4.62489 17.391C3.3325 15.586 2.47619 13.4918 2.2146 11.2745C2.09935 10.2976 2 9.3239 2 8.83917V6.81437C2 6.06068 2.42371 5.37098 3.09602 5.03032L10.1906 1.43545ZM13.3542 2.32728C12.5019 1.89556 11.4949 1.89563 10.6426 2.32747L3.54801 5.92235C3.21185 6.09268 3 6.43752 3 6.81437V8.83917C3 9.25291 3.09037 10.1627 3.20771 11.1573C3.44805 13.1945 4.23636 15.1307 5.43796 16.8089C6.84945 18.7802 8.70403 20.3926 10.8524 21.5164L11.6011 21.908C11.8499 22.0381 12.1467 22.0381 12.3954 21.9079L13.1458 21.5153C15.2923 20.3922 17.1457 18.7815 18.5571 16.8126C19.7619 15.1319 20.5524 13.1923 20.793 11.1512C20.91 10.1589 21 9.252 21 8.83917V6.81451C21 6.43762 20.7881 6.09273 20.4519 5.92243L13.3542 2.32728Z" fill="#353566"/>
</svg>
