<svg width="24" height="24" viewBox="0 0 24 24" fill="none" xmlns="http://www.w3.org/2000/svg">
<g clip-path="url(#clip0_9001_271104)">
<path fill-rule="evenodd" clip-rule="evenodd" d="M12.6287 0.249879H9.37085C8.9755 0.249866 8.63441 0.249855 8.35349 0.272807C8.05698 0.297033 7.76206 0.35052 7.47828 0.495115C7.05491 0.710831 6.71071 1.05504 6.49499 1.4784C6.3504 1.76219 6.29691 2.0571 6.27269 2.35361C6.25211 2.60544 6.24999 2.9056 6.24978 3.24988H4.96834C4.29496 3.24987 3.74425 3.24986 3.29669 3.28643C2.83343 3.32428 2.41503 3.40502 2.02429 3.60411C1.41276 3.9157 0.915575 4.41288 0.603986 5.02441C0.404894 5.41515 0.324159 5.83355 0.286308 6.29681C0.249742 6.74437 0.249748 7.29509 0.249756 7.96845V8.98319C0.249878 8.98876 0.249939 8.99434 0.249939 8.99994V10.5189C0.250596 10.8919 0.253586 11.222 0.267137 11.5134C0.3961 12.4934 1.23468 13.2499 2.24994 13.2499L8.74994 13.2499C8.74994 12.0073 9.7573 10.9999 10.9999 10.9999C12.2426 10.9999 13.2499 12.0073 13.2499 13.2499L16.8188 13.2499C16.6134 13.6976 16.5004 14.1929 16.5004 14.7089V14.7499L13.2499 14.7499C13.2499 15.9926 12.2426 16.9999 10.9999 16.9999C9.7573 16.9999 8.74994 15.9926 8.74994 14.7499L2.24994 14.7499C1.71307 14.7499 1.20443 14.6291 0.749757 14.413L0.749757 15.8323C0.74975 16.715 0.749744 17.423 0.796527 17.9956C0.844595 18.5839 0.945766 19.095 1.18573 19.5659C1.56922 20.3186 2.18115 20.9305 2.9338 21.314C3.40475 21.5539 3.91576 21.6551 4.50409 21.7032C5.07667 21.75 5.78474 21.75 6.66736 21.75H12.5339C12.9087 21.75 13.226 21.4733 13.277 21.102C13.3923 20.262 13.8722 19.5366 14.5358 19.0389C15.117 18.603 15.8038 18.3941 16.6332 18.245C16.9904 18.1807 17.2504 17.8698 17.2504 17.5068V14.7088C17.2504 14.5185 17.2701 14.3313 17.3074 14.1509C17.5104 13.1693 18.24 12.3576 19.2305 12.0687L21.2086 11.4917C21.5269 11.3989 21.7465 11.108 21.7486 10.7764C21.7498 10.5867 21.7498 10.3814 21.7498 10.1609V7.96844C21.7498 7.29507 21.7498 6.74437 21.7132 6.29681C21.6754 5.83355 21.5946 5.41515 21.3955 5.02441C21.0839 4.41288 20.5868 3.9157 19.9752 3.60411C19.5845 3.40502 19.1661 3.32428 18.7028 3.28643C18.2553 3.24986 17.7046 3.24987 17.0312 3.24988H15.7497C15.7495 2.9056 15.7474 2.60544 15.7268 2.35361C15.7026 2.0571 15.6491 1.76219 15.5045 1.4784C15.2888 1.05504 14.9446 0.710831 14.5212 0.495115C14.2375 0.35052 13.9425 0.297033 13.646 0.272807C13.3651 0.249855 13.024 0.249866 12.6287 0.249879ZM14.2497 3.24988C14.2494 2.90105 14.2471 2.66262 14.2318 2.47576C14.2152 2.27201 14.1869 2.19647 14.168 2.15939C14.0961 2.01827 13.9814 1.90353 13.8403 1.83163C13.8032 1.81273 13.7276 1.78447 13.5239 1.76783C13.3114 1.75046 13.0322 1.74988 12.5998 1.74988H9.39976C8.96734 1.74988 8.68814 1.75046 8.47563 1.76783C8.27189 1.78447 8.19635 1.81273 8.15927 1.83163C8.01814 1.90353 7.90341 2.01827 7.8315 2.15939C7.81261 2.19647 7.78435 2.27201 7.7677 2.47576C7.75244 2.66262 7.75014 2.90105 7.74981 3.24988H14.2497Z" fill="#353566"/>
<path d="M19.5004 17.1241L22.6009 16.2198C23.1342 16.0643 23.5009 15.5753 23.5009 15.0197V13.6254C23.5009 12.8754 22.7809 12.3353 22.0608 12.5453L19.5805 13.2688C18.9405 13.4555 18.5004 14.0422 18.5004 14.7089V19.8954C18.049 19.6258 17.5166 19.4996 17.0002 19.4996C16.3995 19.4996 15.7772 19.6704 15.2858 20.039C14.789 20.4116 14.4999 20.9354 14.4999 21.4998C14.4999 22.0642 14.789 22.588 15.2858 22.9606C15.7772 23.3291 16.3995 23.5 17.0002 23.5C17.6009 23.5 18.2232 23.3291 18.7146 22.9606C19.2114 22.588 19.5005 22.0642 19.5005 21.4998L19.5004 21.4908V17.1241Z" fill="#353566"/>
<path d="M11.7499 13.9845V13.2499C11.7499 12.8357 11.4142 12.4999 10.9999 12.4999C10.5857 12.4999 10.2499 12.8357 10.2499 13.2499V14.7499C10.2499 15.1642 10.5857 15.4999 10.9999 15.4999C11.4142 15.4999 11.7499 15.1642 11.7499 14.7499V14.0154L11.7498 13.9999L11.7499 13.9845Z" fill="#353566"/>
</g>
<defs>
<clipPath id="clip0_9001_271104">
<rect width="24" height="24" fill="white"/>
</clipPath>
</defs>
</svg>
