<svg width="24" height="24" viewBox="0 0 24 24" fill="none" xmlns="http://www.w3.org/2000/svg">
<g clip-path="url(#clip0_9001_270999)">
<path fill-rule="evenodd" clip-rule="evenodd" d="M12.6287 0.250001H9.37085C8.9755 0.249988 8.63441 0.249977 8.35349 0.272929C8.05698 0.297155 7.76206 0.350642 7.47828 0.495238C7.05491 0.710953 6.71071 1.05516 6.49499 1.47852C6.3504 1.76231 6.29691 2.05722 6.27269 2.35373C6.25211 2.60556 6.24999 2.90573 6.24978 3.25H4.96834C4.29496 3.24999 3.74425 3.24999 3.29669 3.28655C2.83343 3.3244 2.41503 3.40514 2.02429 3.60423C1.41276 3.91582 0.915575 4.413 0.603986 5.02453C0.404894 5.41527 0.324159 5.83367 0.286308 6.29693C0.249742 6.74449 0.249748 7.29521 0.249756 7.96857V8.98632C0.249838 8.99087 0.249878 8.99543 0.249878 9V10.4794C0.250399 10.8689 0.253113 11.2124 0.267166 11.5141C0.396429 12.4939 1.23485 13.25 2.24988 13.25L8.74988 13.25C8.74988 12.0074 9.75724 11 10.9999 11C12.2425 11 13.2499 12.0074 13.2499 13.25L17.7007 13.25C17.6847 13.2922 17.6692 13.3347 17.6543 13.3775L15.9097 14.2498C15.4492 14.103 14.9867 14 14.4999 14C12.6467 14 11.0879 15.2602 10.6337 16.9703C9.5652 16.7954 8.74988 15.8679 8.74988 14.75L2.24988 14.75C1.71303 14.75 1.20442 14.6291 0.749757 14.4131L0.749757 15.8325C0.74975 16.7151 0.749744 17.4232 0.796527 17.9957C0.844595 18.5841 0.945766 19.0951 1.18573 19.566C1.56922 20.3187 2.18115 20.9306 2.9338 21.3141C3.40475 21.5541 3.91576 21.6552 4.50409 21.7033C5.07667 21.7501 5.78474 21.7501 6.66736 21.7501H11.8542C12.1661 21.7501 12.4454 21.5571 12.5557 21.2654C12.666 20.9737 12.5843 20.6441 12.3505 20.4378C11.6745 19.8411 11.2499 18.9706 11.2499 18C11.2499 16.2135 12.6914 14.7636 14.4747 14.7501L14.4819 14.75H14.5155L14.5222 14.7501C14.8953 14.7532 15.2693 14.8329 15.682 14.9644C15.8682 15.0238 16.0703 15.0081 16.2451 14.9206L17.9898 14.0483C18.1647 13.9609 18.2985 13.8085 18.3628 13.6239C18.8091 12.3404 19.8339 11.4339 21.0932 11.2753C21.4677 11.2281 21.7488 10.9101 21.7495 10.5327C21.7496 10.4762 21.7497 10.4185 21.7497 10.3595V9C21.7497 8.99758 21.7497 8.99516 21.7498 8.99275V7.96856C21.7498 7.29519 21.7498 6.74449 21.7132 6.29693C21.6754 5.83367 21.5946 5.41527 21.3955 5.02453C21.0839 4.413 20.5868 3.91582 19.9752 3.60423C19.5845 3.40514 19.1661 3.3244 18.7028 3.28655C18.2553 3.24999 17.7046 3.24999 17.0312 3.25H15.7497C15.7495 2.90573 15.7474 2.60556 15.7268 2.35373C15.7026 2.05722 15.6491 1.76231 15.5045 1.47852C15.2888 1.05516 14.9446 0.710953 14.5212 0.495238C14.2375 0.350642 13.9425 0.297155 13.646 0.272929C13.3651 0.249977 13.024 0.249988 12.6287 0.250001ZM14.2497 3.25C14.2494 2.90117 14.2471 2.66274 14.2318 2.47588C14.2152 2.27213 14.1869 2.19659 14.168 2.15951C14.0961 2.01839 13.9814 1.90365 13.8403 1.83175C13.8032 1.81285 13.7276 1.78459 13.5239 1.76795C13.3114 1.75059 13.0322 1.75 12.5998 1.75H9.39976C8.96734 1.75 8.68814 1.75059 8.47563 1.76795C8.27189 1.78459 8.19635 1.81285 8.15927 1.83175C8.01814 1.90365 7.90341 2.01839 7.8315 2.15951C7.81261 2.19659 7.78435 2.27213 7.7677 2.47588C7.75244 2.66274 7.75014 2.90117 7.74981 3.25H14.2497Z" fill="#353566"/>
<path d="M16.4614 17.6076L20.0096 15.8335C20.3759 16.2426 20.908 16.5 21.5003 16.5C22.6048 16.5 23.5003 15.6046 23.5003 14.5C23.5003 13.3954 22.6048 12.5 21.5003 12.5C20.4258 12.5 19.5493 13.3473 19.5023 14.4101L15.6641 16.3292C15.6518 16.3353 15.6399 16.3417 15.6281 16.3484C15.307 16.1286 14.9184 16 14.4999 16C13.3953 16 12.4999 16.8954 12.4999 18C12.4999 19.1046 13.3953 20 14.4999 20C14.9184 20 15.307 19.8714 15.6281 19.6516C15.6399 19.6583 15.6518 19.6647 15.6641 19.6708L19.5023 21.5899C19.5493 22.6528 20.4258 23.5 21.5003 23.5C22.6048 23.5 23.5003 22.6046 23.5003 21.5C23.5003 20.3954 22.6048 19.5 21.5003 19.5C20.908 19.5 20.3759 19.7575 20.0097 20.1665L16.4614 18.3924C16.4866 18.2655 16.4999 18.1343 16.4999 18C16.4999 17.8657 16.4866 17.7345 16.4614 17.6076Z" fill="#353566"/>
<path d="M11.7499 13.9845V13.25C11.7499 12.8358 11.4141 12.5 10.9999 12.5C10.5857 12.5 10.2499 12.8358 10.2499 13.25V14.75C10.2499 15.1642 10.5857 15.5 10.9999 15.5C11.4141 15.5 11.7499 15.1642 11.7499 14.75V14.0155L11.7497 14L11.7499 13.9845Z" fill="#353566"/>
</g>
<defs>
<clipPath id="clip0_9001_270999">
<rect width="24" height="24" fill="white"/>
</clipPath>
</defs>
</svg>
