<svg width="24" height="24" viewBox="0 0 24 24" fill="none" xmlns="http://www.w3.org/2000/svg">
<g clip-path="url(#clip0_9001_271109)">
<path fill-rule="evenodd" clip-rule="evenodd" d="M9.37085 0.250001H12.6287C13.024 0.249989 13.3651 0.249979 13.646 0.27293C13.9425 0.297156 14.2375 0.350643 14.5212 0.495239C14.9446 0.710954 15.2888 1.05516 15.5045 1.47852C15.6491 1.76231 15.7026 2.05722 15.7268 2.35373C15.7474 2.60556 15.7495 2.90573 15.7497 3.25H17.0312C17.7046 3.24999 18.2553 3.24999 18.7028 3.28655C19.1661 3.3244 19.5845 3.40514 19.9752 3.60423C20.5868 3.91582 21.0839 4.41301 21.3955 5.02453C21.5946 5.41527 21.6754 5.83367 21.7132 6.29693C21.7498 6.74449 21.7498 7.29519 21.7498 7.96856V10.1913C21.7498 10.7027 21.7498 11.1414 21.7323 11.5159C21.6023 12.4947 20.7642 13.25 19.7498 13.25L13.2499 13.25C13.2499 13.2451 13.2499 13.2403 13.2499 13.2355C13.2421 11.9995 12.2377 11 10.9999 11C9.7573 11 8.74994 12.0074 8.74994 13.25L2.24994 13.25C2.18648 13.25 2.12372 13.247 2.06178 13.2413C1.13261 13.1546 0.388022 12.4322 0.267133 11.5134C0.253586 11.2221 0.250596 10.8919 0.24994 10.519V9C0.24994 9.00002 0.24994 8.99999 0.24994 9C0.249939 8.99443 0.249878 8.98882 0.249756 8.98327L0.249756 7.96857C0.249748 7.29522 0.249742 6.74449 0.286309 6.29693C0.324159 5.83367 0.404894 5.41527 0.603987 5.02453C0.915575 4.41301 1.41276 3.91582 2.02429 3.60423C2.41503 3.40514 2.83343 3.3244 3.29669 3.28655C3.74425 3.24999 4.29496 3.24999 4.96834 3.25H6.24978C6.24999 2.90573 6.25211 2.60556 6.27269 2.35373C6.29691 2.05722 6.3504 1.76231 6.49499 1.47852C6.71071 1.05516 7.05491 0.710954 7.47828 0.495239C7.76206 0.350643 8.05698 0.297156 8.35349 0.27293C8.63439 0.249979 8.97552 0.249989 9.37085 0.250001ZM14.2318 2.47588C14.2471 2.66274 14.2494 2.90117 14.2497 3.25H7.74981C7.75014 2.90117 7.75244 2.66274 7.7677 2.47588C7.78435 2.27213 7.81261 2.19659 7.8315 2.15951C7.90341 2.01839 8.01814 1.90365 8.15927 1.83175C8.19635 1.81285 8.27189 1.7846 8.47563 1.76795C8.68814 1.75059 8.96734 1.75 9.39976 1.75H12.5998C13.0322 1.75 13.3114 1.75059 13.5239 1.76795C13.7276 1.7846 13.8032 1.81285 13.8403 1.83175C13.9814 1.90365 14.0961 2.01839 14.168 2.15951C14.1869 2.19659 14.2152 2.27213 14.2318 2.47588Z" fill="#353566"/>
<path d="M0.749757 14.4131L0.749757 15.8325C0.74975 16.7151 0.749745 17.4232 0.796527 17.9957C0.844595 18.5841 0.945767 19.0951 1.18573 19.566C1.56922 20.3187 2.18115 20.9306 2.9338 21.3141C3.40475 21.5541 3.91576 21.6552 4.50409 21.7033C5.07667 21.7501 5.78474 21.7501 6.66736 21.7501H13.0087C13.2406 21.7501 13.4595 21.6428 13.6016 21.4595C13.7436 21.2762 13.7929 21.0375 13.735 20.8129C13.6998 20.6763 13.6711 20.5293 13.6458 20.3692C13.5959 20.0539 13.3519 19.8048 13.0377 19.7483C12.43 19.639 12.0253 19.4853 11.7179 19.1543C11.1345 18.5265 11.1005 17.5847 11.5939 16.9208C11.4047 16.9724 11.2055 17 10.9999 17C10.8985 17 10.7985 16.9933 10.7006 16.9803C9.59948 16.8339 8.74994 15.8912 8.74994 14.75L2.24994 14.75C1.71307 14.75 1.20443 14.6291 0.749757 14.4131Z" fill="#353566"/>
<path d="M15.0187 14.75L13.2499 14.75C13.2499 15.1007 13.1697 15.4327 13.0266 15.7286C13.6428 15.3257 14.3111 14.9954 15.0187 14.75Z" fill="#353566"/>
<path d="M17.9993 16.75C16.265 16.75 14.6885 17.4182 13.5104 18.5127C13.207 18.7946 12.7324 18.7772 12.4505 18.4737C12.1685 18.1702 12.186 17.6957 12.4895 17.4138C13.934 16.0717 15.8715 15.25 17.9993 15.25C20.1278 15.25 22.0659 16.0723 23.5106 17.4151C23.8139 17.6971 23.8313 18.1717 23.5493 18.4751C23.2673 18.7785 22.7927 18.7958 22.4893 18.5138C21.3112 17.4187 19.7342 16.75 17.9993 16.75Z" fill="#353566"/>
<path d="M15.9696 20.9649C16.5007 20.4139 17.2185 20.0834 18.0032 20.0834C18.7878 20.0834 19.5056 20.4139 20.0367 20.9649C20.3241 21.2632 20.7989 21.2719 21.0971 20.9845C21.3954 20.6971 21.4041 20.2223 21.1167 19.924C20.3233 19.1008 19.2237 18.5834 18.0032 18.5834C16.7826 18.5834 15.6831 19.1008 14.8896 19.924C14.6022 20.2223 14.6109 20.6971 14.9092 20.9845C15.2074 21.2719 15.6822 21.2632 15.9696 20.9649Z" fill="#353566"/>
<path d="M16.9999 22.5C16.9999 21.9477 17.4477 21.5 17.9999 21.5C18.5522 21.5 19 21.9477 19 22.5C19 23.0523 18.5522 23.5 17.9999 23.5C17.4477 23.5 16.9999 23.0523 16.9999 22.5Z" fill="#353566"/>
<path d="M10.9999 12.5C11.4142 12.5 11.7499 12.8358 11.7499 13.25V13.9845L11.7498 14L11.7499 14.0155V14.75C11.7499 15.1642 11.4142 15.5 10.9999 15.5C10.5857 15.5 10.2499 15.1642 10.2499 14.75V13.25C10.2499 13.2241 10.2513 13.1985 10.2538 13.1733C10.2922 12.7951 10.6116 12.5 10.9999 12.5Z" fill="#353566"/>
</g>
<defs>
<clipPath id="clip0_9001_271109">
<rect width="24" height="24" fill="white"/>
</clipPath>
</defs>
</svg>
