<svg width="24" height="24" viewBox="0 0 24 24" fill="none" xmlns="http://www.w3.org/2000/svg">
<path opacity="0.4" d="M11.5 22C11.4999 21.8879 11.5124 21.775 11.538 21.6633L12.3124 18.2899C12.3754 18.0154 12.5144 17.7641 12.7136 17.565L18 12.2772V7.6C18 5.63982 18 4.65972 17.6185 3.91103C17.283 3.25247 16.7475 2.71703 16.089 2.38148C15.3403 2 14.3602 2 12.4 2H6.6C4.63982 2 3.65972 2 2.91103 2.38148C2.25247 2.71703 1.71703 3.25247 1.38148 3.91103C1 4.65972 1 5.63982 1 7.6V16.4C1 18.3602 1 19.3403 1.38148 20.089C1.71703 20.7475 2.25247 21.283 2.91103 21.6185C3.65972 22 4.63982 22 6.6 22H11.5Z" fill="#353566"/>
<path d="M6.57755 1.49976C5.61647 1.49975 4.86451 1.49975 4.26049 1.5491C3.64594 1.59931 3.14062 1.70309 2.68404 1.93573C1.93139 2.31922 1.31947 2.93115 0.935974 3.68379C0.703335 4.14037 0.599556 4.64569 0.549345 5.26025C0.499995 5.86427 0.499997 6.61622 0.5 7.57731V16.4222C0.499997 17.3833 0.499995 18.1352 0.549345 18.7393C0.599556 19.3538 0.703335 19.8591 0.935974 20.3157C1.31947 21.0684 1.93139 21.6803 2.68404 22.0638C3.14062 22.2964 3.64594 22.4002 4.26049 22.4504C4.86453 22.4998 5.61651 22.4998 6.57765 22.4998H11.5862C11.4924 22.2352 11.4732 21.9453 11.538 21.663L11.5755 21.4998H6.6C5.61166 21.4998 4.90047 21.4994 4.34192 21.4537C3.78921 21.4086 3.43014 21.3216 3.13803 21.1728C2.57354 20.8852 2.1146 20.4262 1.82698 19.8617C1.67814 19.5696 1.59118 19.2105 1.54602 18.6578C1.50039 18.0993 1.5 17.3881 1.5 16.3998V7.59976C1.5 6.61141 1.50039 5.90023 1.54602 5.34168C1.59118 4.78897 1.67814 4.4299 1.82698 4.13778C2.1146 3.5733 2.57354 3.11436 3.13803 2.82674C3.43014 2.6779 3.78921 2.59094 4.34192 2.54578C4.90047 2.50014 5.61166 2.49976 6.6 2.49976H12.4C13.3883 2.49976 14.0995 2.50014 14.6581 2.54578C15.2108 2.59094 15.5699 2.6779 15.862 2.82674C16.4265 3.11436 16.8854 3.5733 17.173 4.13778C17.3219 4.4299 17.4088 4.78897 17.454 5.34168C17.4996 5.90023 17.5 6.61141 17.5 7.59976V12.777L18.5 11.7767V7.5773C18.5 6.61621 18.5 5.86427 18.4507 5.26025C18.4004 4.64569 18.2967 4.14037 18.064 3.68379C17.6805 2.93115 17.0686 2.31922 16.316 1.93573C15.8594 1.70309 15.3541 1.59931 14.7395 1.5491C14.1355 1.49975 13.3835 1.49975 12.4225 1.49976H6.57755Z" fill="#353566"/>
<path d="M10 7.83972C9.72386 7.83972 9.5 8.06358 9.5 8.33972C9.5 8.61586 9.72386 8.83972 10 8.83972H13.5C13.7761 8.83972 14 8.61586 14 8.33972C14 8.06358 13.7761 7.83972 13.5 7.83972H10Z" fill="#353566"/>
<path d="M9.5 12.1698C9.5 11.8937 9.72386 11.6698 10 11.6698H13.5C13.7761 11.6698 14 11.8937 14 12.1698C14 12.4459 13.7761 12.6698 13.5 12.6698H10C9.72386 12.6698 9.5 12.4459 9.5 12.1698Z" fill="#353566"/>
<path d="M9.25 15.4998C8.97386 15.4998 8.75 15.7236 8.75 15.9998C8.75 16.2759 8.97386 16.4998 9.25 16.4998H13.5C13.7761 16.4998 14 16.2759 14 15.9998C14 15.7236 13.7761 15.4998 13.5 15.4998H9.25Z" fill="#353566"/>
<path d="M7.84599 7.37878C8.04534 7.56987 8.05204 7.88638 7.86096 8.08573L6.58294 9.41907C6.48977 9.51627 6.36134 9.57178 6.22671 9.57306C6.09207 9.57433 5.96261 9.52125 5.86762 9.42582L5.14564 8.70054C4.95082 8.50483 4.95155 8.18825 5.14726 7.99343C5.34296 7.79862 5.65954 7.79934 5.85436 7.99505L6.21522 8.35756L7.13904 7.39376C7.33012 7.19441 7.64663 7.1877 7.84599 7.37878Z" fill="#353566"/>
<path d="M7.86096 11.9158C8.05204 11.7165 8.04534 11.3999 7.84599 11.2089C7.64663 11.0178 7.33012 11.0245 7.13904 11.2238L6.21522 12.1876L5.85436 11.8251C5.65954 11.6294 5.34296 11.6287 5.14726 11.8235C4.95155 12.0183 4.95082 12.3349 5.14564 12.5306L5.86762 13.2559C5.96261 13.3513 6.09207 13.4044 6.22671 13.4031C6.36134 13.4019 6.48977 13.3463 6.58294 13.2491L7.86096 11.9158Z" fill="#353566"/>
<path d="M5.75 15.9998C5.75 15.5855 6.08579 15.2498 6.5 15.2498C6.91421 15.2498 7.2501 15.5855 7.2501 15.9998C7.2501 16.414 6.91431 16.7498 6.5001 16.7498C6.08589 16.7498 5.75 16.414 5.75 15.9998Z" fill="#353566"/>
<path fill-rule="evenodd" clip-rule="evenodd" d="M19.8776 11.8591C20.5638 11.3818 21.4745 11.3816 22.1609 11.8586C22.3081 11.9609 22.4496 12.1025 22.6405 12.2934L22.7066 12.3594C22.8976 12.5502 23.0393 12.6917 23.1417 12.8389C23.6192 13.5252 23.6194 14.4362 23.1422 15.1227C23.0398 15.2699 22.8982 15.4115 22.7072 15.6023L16.7308 21.5799C16.6643 21.6464 16.5804 21.6928 16.4888 21.7138L13.1116 22.4872C12.9438 22.5256 12.7681 22.475 12.6464 22.3533C12.5247 22.2315 12.4742 22.0557 12.5127 21.888L13.287 18.5146C13.308 18.4231 13.3543 18.3393 13.4207 18.2729L19.3981 12.294C19.5889 12.1031 19.7304 11.9615 19.8776 11.8591ZM21.5902 12.6798C21.247 12.4413 20.7917 12.4414 20.4486 12.68C20.3846 12.7245 20.3107 12.7956 20.0723 13.0341L19.417 13.6896L21.3114 15.584L21.967 14.9283C22.2054 14.6898 22.2766 14.6159 22.3211 14.5519C22.5597 14.2086 22.5596 13.7532 22.3208 13.41C22.2763 13.346 22.2052 13.2721 21.9666 13.0337C21.7282 12.7954 21.6542 12.7242 21.5902 12.6798ZM20.6044 16.2912L18.7099 14.3968L14.2295 18.8784L13.6658 21.3344L16.1253 20.7711L20.6044 16.2912Z" fill="#353566"/>
</svg>
