<svg width="24" height="24" viewBox="0 0 24 24" fill="none" xmlns="http://www.w3.org/2000/svg">
<path opacity="0.4" d="M16.5038 21.3696V19.6554L15.208 19.4773C13.7235 19.2733 12.9638 17.4779 13.9444 16.252L17.9404 11.256C17.96 11.2316 17.9798 11.2078 18 11.1847V7.6C18 5.63982 18 4.65972 17.6185 3.91103C17.283 3.25247 16.7475 2.71703 16.089 2.38148C15.3403 2 14.3602 2 12.4 2H6.6C4.63982 2 3.65972 2 2.91103 2.38148C2.25247 2.71703 1.71703 3.25247 1.38148 3.91103C1 4.65972 1 5.63982 1 7.6V16.4C1 18.3602 1 19.3403 1.38148 20.089C1.71703 20.7475 2.25247 21.283 2.91103 21.6185C3.65972 22 4.63982 22 6.6 22H12.4C14.3602 22 15.3403 22 16.089 21.6185C16.2334 21.5449 16.372 21.4617 16.5038 21.3696Z" fill="#353566"/>
<path d="M6.57755 1.5H12.4224C13.3835 1.5 14.1355 1.5 14.7395 1.54935C15.3541 1.59956 15.8594 1.70334 16.316 1.93597C17.0686 2.31947 17.6805 2.93139 18.064 3.68404C18.2967 4.14062 18.4004 4.64594 18.4507 5.26049C18.5 5.86451 18.5 6.61646 18.5 7.57754V10.767C18.2963 10.8865 18.1065 11.0484 17.9404 11.256L17.5 11.8066V7.6C17.5 6.61166 17.4996 5.90047 17.454 5.34192C17.4088 4.78921 17.3219 4.43014 17.173 4.13803C16.8854 3.57354 16.4265 3.1146 15.862 2.82698C15.5699 2.67814 15.2108 2.59118 14.6581 2.54602C14.0995 2.50039 13.3883 2.5 12.4 2.5H6.6C5.61166 2.5 4.90047 2.50039 4.34192 2.54602C3.78921 2.59118 3.43014 2.67814 3.13803 2.82698C2.57354 3.1146 2.1146 3.57354 1.82698 4.13803C1.67814 4.43014 1.59118 4.78921 1.54602 5.34192C1.50039 5.90047 1.5 6.61166 1.5 7.6V16.4C1.5 17.3883 1.50039 18.0995 1.54602 18.6581C1.59118 19.2108 1.67814 19.5699 1.82698 19.862C2.1146 20.4265 2.57354 20.8854 3.13803 21.173C3.43014 21.3219 3.78921 21.4088 4.34192 21.454C4.90047 21.4996 5.61166 21.5 6.6 21.5H12.4C13.3883 21.5 14.0995 21.4996 14.6581 21.454C15.2108 21.4088 15.5699 21.3219 15.862 21.173C16.0955 21.054 16.311 20.9057 16.5037 20.7327V21.4962C16.5037 21.6498 16.5194 21.7964 16.549 21.9354C16.4729 21.9807 16.3952 22.0236 16.316 22.064C15.8594 22.2967 15.3541 22.4004 14.7395 22.4507C14.1355 22.5 13.3835 22.5 12.4223 22.5H6.57765C5.61651 22.5 4.86453 22.5 4.26049 22.4507C3.64594 22.4004 3.14062 22.2967 2.68404 22.064C1.93139 21.6805 1.31947 21.0686 0.935974 20.316C0.703335 19.8594 0.599556 19.3541 0.549345 18.7395C0.499995 18.1355 0.499997 17.3835 0.5 16.4225V7.57756C0.499997 6.61647 0.499995 5.86451 0.549345 5.26049C0.599556 4.64594 0.703335 4.14062 0.935974 3.68404C1.31947 2.93139 1.93139 2.31947 2.68404 1.93597C3.14062 1.70334 3.64594 1.59956 4.26049 1.54935C4.86451 1.5 5.61647 1.5 6.57755 1.5Z" fill="#353566"/>
<path d="M8 8C8 7.72386 8.22386 7.5 8.5 7.5H13.5C13.7761 7.5 14 7.72386 14 8C14 8.27614 13.7761 8.5 13.5 8.5H8.5C8.22386 8.5 8 8.27614 8 8Z" fill="#353566"/>
<path d="M8.5 11.5C8.22386 11.5 8 11.7239 8 12C8 12.2761 8.22386 12.5 8.5 12.5H13.5C13.7761 12.5 14 12.2761 14 12C14 11.7239 13.7761 11.5 13.5 11.5H8.5Z" fill="#353566"/>
<path d="M8 16C8 15.7239 8.22386 15.5 8.5 15.5H13.5C13.7761 15.5 14 15.7239 14 16C14 16.2761 13.7761 16.5 13.5 16.5H8.5C8.22386 16.5 8 16.2761 8 16Z" fill="#353566"/>
<path d="M5.5 7.25C5.08579 7.25 4.75 7.58579 4.75 8C4.75 8.41421 5.08579 8.75 5.5 8.75C5.91421 8.75 6.2501 8.41421 6.2501 8C6.2501 7.58579 5.91421 7.25 5.5 7.25Z" fill="#353566"/>
<path d="M4.75 12C4.75 11.5858 5.08579 11.25 5.5 11.25C5.91421 11.25 6.2501 11.5858 6.2501 12C6.2501 12.4142 5.91431 12.75 5.5001 12.75C5.08589 12.75 4.75 12.4142 4.75 12Z" fill="#353566"/>
<path d="M5.5 15.25C5.08579 15.25 4.75 15.5858 4.75 16C4.75 16.4142 5.08579 16.75 5.5 16.75C5.91421 16.75 6.2501 16.4142 6.2501 16C6.2501 15.5858 5.91421 15.25 5.5 15.25Z" fill="#353566"/>
<path fill-rule="evenodd" clip-rule="evenodd" d="M20.5009 12.5007C20.5009 11.555 19.3101 11.1386 18.72 11.8762L14.72 16.8756C14.196 17.5306 14.663 18.4998 15.5009 18.4998H17.5009V21.4992C17.5009 22.4449 18.6917 22.8613 19.2818 22.1237L23.2818 17.1243C23.8058 16.4693 23.3388 15.5001 22.5009 15.5001H20.5009V12.5007ZM19.5009 12.5007V15.5003C19.5009 16.0527 19.9489 16.5001 20.5009 16.5001H22.5005L18.501 21.499L18.5009 18.4996C18.5009 17.9472 18.0529 17.4998 17.5009 17.4998H15.5013L19.5009 12.5007Z" fill="#353566"/>
</svg>
