<svg width="24" height="24" viewBox="0 0 24 24" fill="none" xmlns="http://www.w3.org/2000/svg">
<path opacity="0.4" d="M13.8363 21.9915C12.4084 20.7992 11.5 19.0057 11.5 17C11.5 13.4101 14.4101 10.5 18 10.5V7.6C18 5.63982 18 4.65972 17.6185 3.91103C17.283 3.25247 16.7475 2.71703 16.089 2.38148C15.3403 2 14.3602 2 12.4 2H6.6C4.63982 2 3.65972 2 2.91103 2.38148C2.25247 2.71703 1.71703 3.25247 1.38148 3.91103C1 4.65972 1 5.63982 1 7.6V16.4C1 18.3602 1 19.3403 1.38148 20.089C1.71703 20.7475 2.25247 21.283 2.91103 21.6185C3.65972 22 4.63982 22 6.6 22H12.4C12.9505 22 13.4238 22 13.8363 21.9915Z" fill="#353566"/>
<path d="M6.57755 1.5C5.61647 1.5 4.86451 1.5 4.26049 1.54935C3.64594 1.59956 3.14062 1.70334 2.68404 1.93597C1.93139 2.31947 1.31947 2.93139 0.935974 3.68404C0.703335 4.14062 0.599556 4.64594 0.549345 5.26049C0.499995 5.86451 0.499997 6.61646 0.5 7.57755V16.4224C0.499997 17.3835 0.499995 18.1355 0.549345 18.7395C0.599556 19.3541 0.703335 19.8594 0.935974 20.316C1.31947 21.0686 1.93139 21.6805 2.68404 22.064C3.14062 22.2967 3.64594 22.4004 4.26049 22.4507C4.86453 22.5 5.61651 22.5 6.57765 22.5H12.4223C13.2526 22.5 13.9268 22.5 14.4844 22.4682C14.0548 22.1914 13.6599 21.8654 13.3077 21.4982C13.0333 21.5 12.7323 21.5 12.4 21.5H6.6C5.61166 21.5 4.90047 21.4996 4.34192 21.454C3.78921 21.4088 3.43014 21.3219 3.13803 21.173C2.57354 20.8854 2.1146 20.4265 1.82698 19.862C1.67814 19.5699 1.59118 19.2108 1.54602 18.6581C1.50039 18.0995 1.5 17.3883 1.5 16.4V7.6C1.5 6.61166 1.50039 5.90047 1.54602 5.34192C1.59118 4.78921 1.67814 4.43014 1.82698 4.13803C2.1146 3.57354 2.57354 3.1146 3.13803 2.82698C3.43014 2.67814 3.78921 2.59118 4.34192 2.54602C4.90047 2.50039 5.61166 2.5 6.6 2.5H12.4C13.3883 2.5 14.0995 2.50039 14.6581 2.54602C15.2108 2.59118 15.5699 2.67814 15.862 2.82698C16.4265 3.1146 16.8854 3.57354 17.173 4.13803C17.3219 4.43014 17.4088 4.78921 17.454 5.34192C17.4996 5.90047 17.5 6.61166 17.5 7.6V10.5189C17.665 10.5064 17.8317 10.5 17.9999 10.5C18.1682 10.5 18.335 10.5064 18.5 10.5189V7.57754C18.5 6.61646 18.5 5.86451 18.4507 5.26049C18.4004 4.64594 18.2967 4.14062 18.064 3.68404C17.6805 2.93139 17.0686 2.31947 16.316 1.93597C15.8594 1.70334 15.3541 1.59956 14.7395 1.54935C14.1355 1.5 13.3835 1.5 12.4225 1.5H6.57755Z" fill="#353566"/>
<path d="M13.9973 11.8782C13.9714 11.6264 13.7586 11.4301 13.5 11.4301H10C9.72386 11.4301 9.5 11.6539 9.5 11.9301C9.5 12.2062 9.72386 12.4301 10 12.4301H13.3776C13.5722 12.2333 13.7792 12.0489 13.9973 11.8782Z" fill="#353566"/>
<path d="M11.7354 15.26H10C9.72386 15.26 9.5 15.4839 9.5 15.76C9.5 16.0362 9.72386 16.26 10 16.26H11.5416C11.5804 15.9179 11.6457 15.5839 11.7354 15.26Z" fill="#353566"/>
<path d="M10 7.59998C9.72386 7.59998 9.5 7.82383 9.5 8.09998C9.5 8.37612 9.72386 8.59998 10 8.59998H13.5C13.7761 8.59998 14 8.37612 14 8.09998C14 7.82383 13.7761 7.59998 13.5 7.59998H10Z" fill="#353566"/>
<path d="M7.84599 7.13904C8.04534 7.33012 8.05204 7.64663 7.86096 7.84599L6.58294 9.17932C6.48977 9.27652 6.36134 9.33204 6.22671 9.33331C6.09207 9.33458 5.96261 9.2815 5.86762 9.18608L5.14564 8.46079C4.95082 8.26508 4.95155 7.9485 5.14726 7.75368C5.34296 7.55887 5.65954 7.55959 5.85436 7.7553L6.21522 8.11781L7.13904 7.15401C7.33012 6.95466 7.64663 6.94796 7.84599 7.13904Z" fill="#353566"/>
<path d="M7.86096 11.6761C8.05204 11.4767 8.04534 11.1602 7.84599 10.9691C7.64663 10.778 7.33012 10.7847 7.13904 10.9841L6.21522 11.9479L5.85436 11.5854C5.65954 11.3897 5.34296 11.3889 5.14726 11.5838C4.95155 11.7786 4.95082 12.0952 5.14564 12.2909L5.86762 13.0162C5.96261 13.1116 6.09207 13.1647 6.22671 13.1634C6.36134 13.1621 6.48977 13.1066 6.58294 13.0094L7.86096 11.6761Z" fill="#353566"/>
<path d="M7.84599 14.7991C8.04534 14.9902 8.05204 15.3067 7.86096 15.506L6.58294 16.8394C6.48977 16.9366 6.36134 16.9921 6.22671 16.9933C6.09207 16.9946 5.96261 16.9415 5.86762 16.8461L5.14564 16.1208C4.95082 15.9251 4.95155 15.6085 5.14726 15.4137C5.34296 15.2189 5.65954 15.2196 5.85436 15.4153L6.21522 15.7778L7.13904 14.814C7.33012 14.6147 7.64663 14.608 7.84599 14.7991Z" fill="#353566"/>
<path d="M20 17.5C20.2761 17.5 20.5 17.2761 20.5 17C20.5 16.7239 20.2761 16.5 20 16.5H16C15.7239 16.5 15.5 16.7239 15.5 17C15.5 17.2761 15.7239 17.5 16 17.5H20Z" fill="#353566"/>
<path fill-rule="evenodd" clip-rule="evenodd" d="M12.5 17C12.5 13.9624 14.9624 11.5 18 11.5C21.0376 11.5 23.5 13.9624 23.5 17C23.5 20.0376 21.0376 22.5 18 22.5C14.9624 22.5 12.5 20.0376 12.5 17ZM18 12.5C15.5147 12.5 13.5 14.5147 13.5 17C13.5 19.4853 15.5147 21.5 18 21.5C20.4853 21.5 22.5 19.4853 22.5 17C22.5 14.5147 20.4853 12.5 18 12.5Z" fill="#353566"/>
</svg>
