<svg width="24" height="24" viewBox="0 0 24 24" fill="none" xmlns="http://www.w3.org/2000/svg">
<g opacity="0.4">
<path d="M4.30409 4.30403C4.1102 4.65928 4 5.06677 4 5.5C4 6.88071 5.11929 8 6.5 8C6.93323 8 7.34072 7.8898 7.69597 7.69591L4.30409 4.30403Z" fill="#353566"/>
<path d="M10.2323 10.2322C9.77983 10.6846 9.5 11.3096 9.5 12C9.5 13.3807 10.6193 14.5 12 14.5C12.6904 14.5 13.3154 14.2202 13.7678 13.7677L10.2323 10.2322Z" fill="#353566"/>
<path d="M12.0001 9.5L14.5 11.9999C14.5 10.6193 13.3807 9.50003 12.0001 9.5Z" fill="#353566"/>
<path d="M8.85133 6.35127L5.64873 3.14867C5.91443 3.05246 6.20109 3 6.5 3C7.88071 3 9 4.11929 9 5.5C9 5.79891 8.94754 6.08557 8.85133 6.35127Z" fill="#353566"/>
<path d="M17.5 8C18.8807 8 20 6.88071 20 5.5C20 4.11929 18.8807 3 17.5 3C16.1193 3 15 4.11929 15 5.5C15 6.88071 16.1193 8 17.5 8Z" fill="#353566"/>
<path d="M17.0001 14.5L22 14.5C22 12 19.75 10.5 17.5 10.5C17.093 10.5 16.6859 10.5491 16.2922 10.6443C16.4272 11.0721 16.5 11.5276 16.5 12C16.5 12.5928 16.3854 13.1588 16.1771 13.677L17.0001 14.5Z" fill="#353566"/>
<path d="M7.5 12C7.5 11.5276 7.5728 11.0721 7.7078 10.6443C7.31408 10.5491 6.90704 10.5 6.49999 10.5C4.24999 10.5 2 12 2 14.5L8.25777 14.5C7.77913 13.7849 7.5 12.9251 7.5 12Z" fill="#353566"/>
<path d="M12 17C14.25 17 16.5 18.5 16.5 21L7.5 21C7.5 18.5 9.74999 17 12 17Z" fill="#353566"/>
</g>
<path fill-rule="evenodd" clip-rule="evenodd" d="M2.35355 1.64645C2.15829 1.45118 1.84171 1.45118 1.64645 1.64645C1.45118 1.84171 1.45118 2.15829 1.64645 2.35355L3.7038 4.41091C3.57221 4.74852 3.5 5.11583 3.5 5.5C3.5 7.15685 4.84315 8.5 6.5 8.5C6.88417 8.5 7.25148 8.42779 7.58909 8.2962L9.55463 10.2617C9.2054 10.7521 9 11.3521 9 12C9 13.6569 10.3431 15 12 15C12.6479 15 13.2479 14.7946 13.7383 14.4454L21.6464 22.3536C21.8417 22.5488 22.1583 22.5488 22.3536 22.3536C22.5488 22.1583 22.5488 21.8417 22.3536 21.6464L2.35355 1.64645ZM13.016 13.7231L10.2769 10.984C10.101 11.2818 10 11.6291 10 12C10 13.1046 10.8954 14 12 14C12.3709 14 12.7182 13.899 13.016 13.7231ZM6.77425 7.48135L4.51865 5.22575C4.50635 5.31541 4.5 5.40696 4.5 5.5C4.5 6.60457 5.39543 7.5 6.5 7.5C6.59304 7.5 6.68459 7.49365 6.77425 7.48135Z" fill="#353566"/>
<path d="M8.5 5.5C8.5 5.65448 8.48249 5.80486 8.44934 5.94928L9.23489 6.73483C9.4052 6.35823 9.5 5.94019 9.5 5.5C9.5 3.84315 8.15685 2.5 6.5 2.5C6.05981 2.5 5.64177 2.5948 5.26517 2.76511L6.05072 3.55066C6.19514 3.51751 6.34552 3.5 6.5 3.5C7.60457 3.5 8.5 4.39543 8.5 5.5Z" fill="#353566"/>
<path d="M11.5358 9.0357L12.5878 10.0878C13.2197 10.2818 13.7182 10.7803 13.9122 11.4122L14.9643 12.4642C14.9878 12.3129 15 12.1579 15 12C15 10.3431 13.6569 9 12 9C11.8421 9 11.6871 9.0122 11.5358 9.0357Z" fill="#353566"/>
<path fill-rule="evenodd" clip-rule="evenodd" d="M14.5 5.5C14.5 3.84315 15.8431 2.5 17.5 2.5C19.1569 2.5 20.5 3.84315 20.5 5.5C20.5 7.15685 19.1569 8.5 17.5 8.5C15.8431 8.5 14.5 7.15685 14.5 5.5ZM17.5 3.5C16.3954 3.5 15.5 4.39543 15.5 5.5C15.5 6.60457 16.3954 7.5 17.5 7.5C18.6046 7.5 19.5 6.60457 19.5 5.5C19.5 4.39543 18.6046 3.5 17.5 3.5Z" fill="#353566"/>
<path d="M22 15L17.5001 15L16.5001 14L21.4635 14C21.189 12.1557 19.4074 11 17.5 11C17.1304 11 16.7655 11.0434 16.4153 11.1268C16.3501 10.7952 16.2485 10.4766 16.1147 10.1755C16.5693 10.0594 17.0374 10 17.5 10C19.9256 10 22.5 11.633 22.5 14.5C22.5 14.6326 22.4473 14.7598 22.3536 14.8536C22.2598 14.9473 22.1326 15 22 15Z" fill="#353566"/>
<path d="M7.88525 10.1755C7.43068 10.0594 6.96263 10 6.49999 10C4.07442 10 1.5 11.633 1.5 14.5C1.5 14.7761 1.72386 15 2 15L8.64584 15C8.37744 14.7001 8.14867 14.364 7.96776 14L2.53652 14C2.81103 12.1557 4.59257 11 6.49999 11C6.86963 11 7.23453 11.0434 7.58466 11.1268C7.64987 10.7952 7.75152 10.4766 7.88525 10.1755Z" fill="#353566"/>
<path fill-rule="evenodd" clip-rule="evenodd" d="M7 21C7 18.133 9.57442 16.5 12 16.5C14.4256 16.5 17 18.133 17 21C17 21.1326 16.9473 21.2598 16.8536 21.3536C16.7598 21.4473 16.6326 21.5 16.5 21.5L7.5 21.5C7.22386 21.5 7 21.2761 7 21ZM15.9635 20.5C15.689 18.6557 13.9074 17.5 12 17.5C10.0926 17.5 8.31103 18.6557 8.03652 20.5L15.9635 20.5Z" fill="#353566"/>
</svg>
