<svg width="24" height="24" viewBox="0 0 24 24" fill="none" xmlns="http://www.w3.org/2000/svg">
<g opacity="0.4">
<path d="M23 7.6V12.4C23 14.3602 23 15.3403 22.6185 16.089C22.283 16.7475 21.7475 17.283 21.089 17.6185C20.3403 18 19.3602 18 17.4 18H9.6C8.71634 18 8.03186 18 7.47797 17.9651L7.11096 17.701C7.11096 17.701 7.55472 17.2019 8.01617 16.5789C8.47763 15.9558 8.75001 15.0869 8.75001 14.25C8.75001 12.1789 7.07108 10.5 5.00001 10.5C4.65371 10.5 4.31836 10.5469 4 10.6348V7.6C4 5.63982 4 4.65972 4.38148 3.91103C4.71703 3.25247 5.25247 2.71703 5.91103 2.38148C6.65972 2 7.63982 2 9.6 2H17.4C19.3602 2 20.3403 2 21.089 2.38148C21.7475 2.71703 22.283 3.25247 22.6185 3.91103C23 4.65972 23 5.63982 23 7.6Z" fill="#353566"/>
<path d="M4.99999 18.5C2.92104 18.5 1.01988 19.9168 0.515786 21.8754C0.477257 22.0251 0.510132 22.1842 0.604837 22.3063C0.699542 22.4285 0.845428 22.5 1 22.5H9C9.15458 22.5 9.30047 22.4285 9.39517 22.3063C9.48988 22.1842 9.52275 22.0251 9.48422 21.8754C8.98013 19.9168 7.07894 18.5 4.99999 18.5Z" fill="#353566"/>
<path d="M2.25 14.25C2.25 12.7312 3.48122 11.5 5 11.5C6.51878 11.5 7.75 12.7312 7.75 14.25C7.75 15.7688 6.51878 17 5 17C3.48122 17 2.25 15.7688 2.25 14.25Z" fill="#353566"/>
</g>
<path d="M9.57768 1.5H17.4226C18.3837 1.5 19.1356 1.49999 19.7396 1.54935C20.3542 1.59956 20.8595 1.70334 21.3161 1.93597C22.0687 2.31947 22.6807 2.93139 23.0641 3.68404C23.2968 4.14062 23.4006 4.64594 23.4508 5.26049C23.5001 5.86451 23.5001 6.61646 23.5001 7.57754V12.4225C23.5001 13.3835 23.5001 14.1355 23.4508 14.7395C23.4006 15.3541 23.2968 15.8594 23.0641 16.316C22.6807 17.0686 22.0687 17.6805 21.3161 18.064C20.8595 18.2967 20.3542 18.4004 19.7396 18.4507C19.1356 18.5 18.3837 18.5 17.4226 18.5H9.57766C9.06631 18.5 8.61338 18.5 8.21123 18.4926L7.11108 17.701C7.11108 17.701 7.19363 17.6081 7.32456 17.4525L7.34204 17.454C7.90059 17.4996 8.61178 17.5 9.60012 17.5H17.4001C18.3885 17.5 19.0996 17.4996 19.6582 17.454C20.2109 17.4088 20.57 17.3219 20.8621 17.173C21.4266 16.8854 21.8855 16.4265 22.1731 15.862C22.322 15.5699 22.4089 15.2108 22.4541 14.6581C22.4997 14.0995 22.5001 13.3883 22.5001 12.4V7.6C22.5001 6.61166 22.4997 5.90047 22.4541 5.34192C22.4089 4.78921 22.322 4.43014 22.1731 4.13803C21.8855 3.57354 21.4266 3.1146 20.8621 2.82698C20.57 2.67814 20.2109 2.59118 19.6582 2.54602C19.0996 2.50039 18.3885 2.5 17.4001 2.5H9.60012C8.61178 2.5 7.90059 2.50039 7.34204 2.54602C6.78933 2.59118 6.43026 2.67814 6.13815 2.82698C5.57366 3.1146 5.11472 3.57354 4.8271 4.13803C4.67826 4.43014 4.5913 4.78921 4.54614 5.34192C4.50051 5.90047 4.50012 6.61166 4.50012 7.6V10.533C4.14911 10.5798 3.81345 10.6751 3.50012 10.812V7.57756C3.50012 6.61647 3.50012 5.86451 3.54947 5.26049C3.59968 4.64594 3.70346 4.14062 3.93609 3.68404C4.31959 2.93139 4.93151 2.31947 5.68416 1.93597C6.14074 1.70334 6.64606 1.59956 7.26061 1.54935C7.86463 1.49999 8.61658 1.5 9.57768 1.5Z" fill="#353566"/>
<path d="M1.48434 22.1246C1.86833 20.6327 3.35138 19.5 5.00011 19.5C6.64884 19.5 8.13191 20.6327 8.5159 22.1246C8.58473 22.3921 8.85732 22.553 9.12475 22.4842C9.39218 22.4154 9.55317 22.1428 9.48434 21.8754C8.98024 19.9168 7.07906 18.5 5.00011 18.5C2.92116 18.5 1.02 19.9168 0.515902 21.8754C0.447071 22.1428 0.608065 22.4154 0.875492 22.4842C1.14292 22.553 1.41551 22.3921 1.48434 22.1246Z" fill="#353566"/>
<path fill-rule="evenodd" clip-rule="evenodd" d="M2.25011 14.25C2.25011 12.7312 3.48133 11.5 5.00011 11.5C6.51889 11.5 7.75011 12.7312 7.75011 14.25C7.75011 15.7688 6.51889 17 5.00011 17C3.48133 17 2.25011 15.7688 2.25011 14.25ZM5.00011 12.5C4.03361 12.5 3.25011 13.2835 3.25011 14.25C3.25011 15.2165 4.03361 16 5.00011 16C5.96661 16 6.75011 15.2165 6.75011 14.25C6.75011 13.2835 5.96661 12.5 5.00011 12.5Z" fill="#353566"/>
<path d="M12.9745 6.84189C12.9105 6.65004 12.7373 6.5156 12.5356 6.50126C12.3338 6.48693 12.1433 6.59552 12.0529 6.7764L10.6911 9.50001H9.50012C9.22398 9.50001 9.00012 9.72386 9.00012 10C9.00012 10.2761 9.22398 10.5 9.50012 10.5H11.0001C11.1895 10.5 11.3626 10.393 11.4473 10.2236L12.4075 8.30328L14.0258 13.1581C14.0897 13.35 14.263 13.4844 14.4647 13.4987C14.6664 13.5131 14.8569 13.4045 14.9473 13.2236L16.3091 10.5H17.5001C17.7763 10.5 18.0001 10.2761 18.0001 10C18.0001 9.72386 17.7763 9.50001 17.5001 9.50001H16.0001C15.8107 9.50001 15.6376 9.60701 15.5529 9.7764L14.5927 11.6967L12.9745 6.84189Z" fill="#353566"/>
</svg>
