<svg width="24" height="24" viewBox="0 0 24 24" fill="none" xmlns="http://www.w3.org/2000/svg">
<g opacity="0.4">
<path d="M10 11C12.4853 11 14.5 8.98528 14.5 6.5C14.5 4.01472 12.4853 2 10 2C7.51472 2 5.5 4.01472 5.5 6.5C5.5 8.98528 7.51472 11 10 11Z" fill="#353566"/>
<path d="M9.99887 14C10.543 14 11.0708 14.0385 11.5787 14.1135C11.5243 14.4348 11.5 14.8124 11.5 15.2579C11.5 17.8753 12.687 20.3431 14.6366 22H4.2481C4.02257 22 3.9098 22 3.81476 21.9909C2.86193 21.8995 2.10759 21.1444 2.01635 20.1906C1.98747 19.8886 1.99147 19.5575 2.07254 19.2646C3.04258 15.7598 6.57677 14 9.99887 14Z" fill="#353566"/>
</g>
<path fill-rule="evenodd" clip-rule="evenodd" d="M5 6.5C5 3.73858 7.23858 1.5 10 1.5C12.7614 1.5 15 3.73858 15 6.5C15 9.26142 12.7614 11.5 10 11.5C7.23858 11.5 5 9.26142 5 6.5ZM10 2.5C7.79086 2.5 6 4.29086 6 6.5C6 8.70914 7.79086 10.5 10 10.5C12.2091 10.5 14 8.70914 14 6.5C14 4.29086 12.2091 2.5 10 2.5Z" fill="#353566"/>
<path d="M11.6987 13.6264C11.1511 13.5427 10.583 13.5 9.99888 13.5C6.44163 13.5 2.64161 15.3341 1.59067 19.1312C1.48693 19.506 1.48675 19.9049 1.51863 20.2382C1.63265 21.4301 2.57541 22.3744 3.76705 22.4886C3.88634 22.5 4.02153 22.5 4.21999 22.5L15.2836 22.5C14.857 22.201 14.4598 21.8658 14.0956 21.5H4.24811C4.011 21.5 3.92772 21.4994 3.86249 21.4932C3.14846 21.4247 2.58255 20.8587 2.51409 20.143C2.4882 19.8723 2.49603 19.609 2.55444 19.3979C3.44357 16.1854 6.71192 14.5 9.99888 14.5C10.5253 14.5 11.0336 14.5373 11.521 14.61C11.549 14.2206 11.6062 13.8971 11.6987 13.6264Z" fill="#353566"/>
<path fill-rule="evenodd" clip-rule="evenodd" d="M18.3935 11.7081C17.8304 11.4267 17.1676 11.4267 16.6046 11.7083L13.0361 13.493C12.7077 13.6573 12.5002 13.9928 12.5001 14.36C12.4994 15.7737 12.5894 17.1315 13.1668 18.451C13.9569 20.2568 15.4181 21.6575 17.2166 22.4423C17.3967 22.5209 17.6014 22.5209 17.7815 22.4423C19.5804 21.6573 21.042 20.2548 21.8322 18.4487C22.4089 17.1304 22.4994 15.7739 22.5001 14.3614C22.5002 13.9935 22.2924 13.6571 21.9633 13.4926L18.3935 11.7081ZM17.0519 12.6027C17.3334 12.4619 17.6648 12.4619 17.9463 12.6026L21.5001 14.379C21.4995 15.6465 21.4342 16.8633 20.916 18.0479C20.2466 19.5782 19.0269 20.8009 17.499 21.4744C15.9715 20.8018 14.7521 19.5797 14.0829 18.0502C13.5643 16.8648 13.4995 15.6473 13.5001 14.3791L17.0519 12.6027Z" fill="#353566"/>
</svg>
