<svg width="24" height="24" viewBox="0 0 24 24" fill="none" xmlns="http://www.w3.org/2000/svg">
<g clip-path="url(#clip0_9002_6148)">
<g opacity="0.4">
<path d="M3.97498 7.32501C3.97498 6.38969 4.31069 5.53277 4.86819 4.86819L10.2568 10.2568C9.59222 10.8143 8.7353 11.15 7.79998 11.15C5.68749 11.15 3.97498 9.43751 3.97498 7.32501Z" fill="#353566"/>
<path d="M11.625 7.32501C11.625 7.85598 11.5168 8.36167 11.3213 8.82126L6.30372 3.80372C6.76331 3.60819 7.26901 3.5 7.79998 3.5C9.91247 3.5 11.625 5.21252 11.625 7.32501Z" fill="#353566"/>
<path d="M0.5 20.5C0.5 17.1777 3.72555 14 8.00041 14C12.2753 14 15.5 17.1777 15.5 20.5C15.5 20.7761 15.2761 21 15 21H1C0.723858 21 0.5 20.7761 0.5 20.5Z" fill="#353566"/>
<path d="M18.781 18.781C18.8418 19.0175 18.8905 19.2574 18.9263 19.5H19.5L18.781 18.781Z" fill="#353566"/>
<path d="M22 19.5H22.9999C23.2761 19.5 23.4999 19.2761 23.4999 19C23.4999 16.2044 20.9365 13.5 17.5002 13.5C17.0307 13.5 16.5774 13.5505 16.1448 13.6448L22 19.5Z" fill="#353566"/>
<path d="M17.5 11C19.0187 11 20.2499 9.76878 20.2499 8.25C20.2499 6.73122 19.0187 5.5 17.5 5.5C15.9812 5.5 14.75 6.73122 14.75 8.25C14.75 9.76878 15.9812 11 17.5 11Z" fill="#353566"/>
</g>
<path fill-rule="evenodd" clip-rule="evenodd" d="M1.35355 0.646447C1.15829 0.451184 0.841709 0.451184 0.646447 0.646447C0.451184 0.841709 0.451184 1.15829 0.646447 1.35355L4.35543 5.06254C3.97106 5.70157 3.75 6.44999 3.75 7.25004C3.75 9.59726 5.65278 11.5001 8 11.5001C8.80006 11.5001 9.54848 11.279 10.1875 10.8946L22.6464 23.3536C22.8417 23.5488 23.1583 23.5488 23.3536 23.3536C23.5488 23.1583 23.5488 22.8417 23.3536 22.6464L1.35355 0.646447ZM9.45158 10.1587L5.09137 5.79847C4.87292 6.23536 4.75 6.72835 4.75 7.25004C4.75 9.04499 6.20508 10.5001 8 10.5001C8.5217 10.5001 9.01468 10.3772 9.45158 10.1587Z" fill="#353566"/>
<path d="M11.25 7.25004C11.25 7.69323 11.1613 8.1157 11.0007 8.50066L11.7506 9.25064C12.0693 8.65442 12.25 7.97333 12.25 7.25004C12.25 4.90281 10.3472 3 8 3C7.2767 3 6.5956 3.18069 5.99938 3.49938L6.74935 4.24935C7.13432 4.08871 7.5568 4 8 4C9.79492 4 11.25 5.45509 11.25 7.25004Z" fill="#353566"/>
<path d="M16.1448 13.6448L17.0209 14.5209C17.1779 14.5071 17.3378 14.5 17.5003 14.5C20.424 14.5 22.5 16.7956 22.5 19C22.5 19.2761 22.7238 19.5 23 19.5C23.2761 19.5 23.5 19.2761 23.5 19C23.5 16.2044 20.9366 13.5 17.5003 13.5C17.0307 13.5 16.5775 13.5505 16.1448 13.6448Z" fill="#353566"/>
<path d="M1.5 20.5C1.5 17.8223 4.1807 15 8.00041 15C11.82 15 14.5 17.8223 14.5 20.5C14.5 20.7761 14.7239 21 15 21C15.2761 21 15.5 20.7761 15.5 20.5C15.5 17.1777 12.2753 14 8.00041 14C3.72555 14 0.5 17.1777 0.5 20.5C0.5 20.7761 0.723858 21 1 21C1.27614 21 1.5 20.7761 1.5 20.5Z" fill="#353566"/>
<path fill-rule="evenodd" clip-rule="evenodd" d="M14.25 8.25C14.25 6.45508 15.705 5 17.5 5C19.2949 5 20.7499 6.45508 20.7499 8.25C20.7499 10.0449 19.2949 11.5 17.5 11.5C15.705 11.5 14.25 10.0449 14.25 8.25ZM17.5 6C16.2573 6 15.25 7.00735 15.25 8.25C15.25 9.49265 16.2573 10.5 17.5 10.5C18.7426 10.5 19.7499 9.49265 19.7499 8.25C19.7499 7.00735 18.7426 6 17.5 6Z" fill="#353566"/>
</g>
<defs>
<clipPath id="clip0_9002_6148">
<rect width="24" height="24" fill="white"/>
</clipPath>
</defs>
</svg>
