<svg width="24" height="24" viewBox="0 0 24 24" fill="none" xmlns="http://www.w3.org/2000/svg">
<path d="M3.12132 1.25C1.53553 1.25 0.25 2.53553 0.25 4.12132C0.25 4.88284 0.552513 5.61317 1.09099 6.15165L7.53033 12.591C7.67098 12.7316 7.75 12.9224 7.75 13.1213V17.5194C7.75 18.051 7.99166 18.5538 8.40679 18.8859L13.0315 22.5857C13.2566 22.7658 13.565 22.8009 13.8249 22.676C14.0847 22.5511 14.25 22.2883 14.25 22V16.599C14.25 16.1848 13.9142 15.849 13.5 15.849C13.0858 15.849 12.75 16.1848 12.75 16.599V20.4395L9.34383 17.7146C9.28452 17.6671 9.25 17.5953 9.25 17.5194V13.1213C9.25 12.5246 9.01295 11.9523 8.59099 11.5303L2.15165 5.09099C1.89448 4.83382 1.75 4.48502 1.75 4.12132C1.75 3.36396 2.36396 2.75 3.12132 2.75H18.8787C19.636 2.75 20.25 3.36396 20.25 4.12132C20.25 4.42947 20.1463 4.72696 19.9582 4.96706C19.7027 5.29311 19.7599 5.76453 20.0859 6.02C20.412 6.27547 20.8834 6.21826 21.1389 5.89221C21.5328 5.38947 21.75 4.76661 21.75 4.12132C21.75 2.53553 20.4645 1.25 18.8787 1.25H3.12132Z" fill="#353566"/>
<path d="M15.5249 10.5357C15.8208 10.2457 15.8256 9.77089 15.5357 9.47505C15.2457 9.17922 14.7709 9.17442 14.4751 9.46434L12.4751 11.4243C12.333 11.5636 12.252 11.7536 12.25 11.9525C12.248 12.1514 12.3252 12.343 12.4644 12.485L14.4644 14.525C14.7544 14.8208 15.2292 14.8255 15.525 14.5356C15.8208 14.2456 15.8255 13.7707 15.5355 13.475L14.0607 11.9706L15.5249 10.5357Z" fill="#353566"/>
<path d="M20.4641 9.47533C20.7538 9.17934 21.2287 9.1743 21.5247 9.46407L23.5247 11.4221C23.6668 11.5612 23.7479 11.7512 23.75 11.9501C23.752 12.1491 23.675 12.3407 23.5358 12.4828L21.5358 14.5248C21.246 14.8207 20.7711 14.8256 20.4752 14.5358C20.1793 14.246 20.1744 13.7711 20.4642 13.4752L21.9393 11.9691L20.4753 10.5359C20.1793 10.2462 20.1743 9.77131 20.4641 9.47533Z" fill="#353566"/>
<path d="M19.7276 8.18196C19.8281 7.78011 19.5837 7.37291 19.1819 7.27245C18.7801 7.17199 18.3728 7.41631 18.2724 7.81815L16.2724 15.8182C16.1719 16.22 16.4162 16.6272 16.8181 16.7277C17.2199 16.8281 17.6271 16.5838 17.7276 16.182L19.7276 8.18196Z" fill="#353566"/>
</svg>
