<svg width="24" height="24" viewBox="0 0 24 24" fill="none" xmlns="http://www.w3.org/2000/svg">
<path d="M2.53033 1.46967C2.23744 1.17678 1.76256 1.17678 1.46967 1.46967C1.17678 1.76256 1.17678 2.23744 1.46967 2.53033L5.41155 6.47221C3.00849 7.16148 1.25 9.37538 1.25 12C1.25 15.1756 3.82436 17.75 7 17.75H9C9.41421 17.75 9.75 17.4142 9.75 17C9.75 16.5858 9.41421 16.25 9 16.25H7C4.65279 16.25 2.75 14.3472 2.75 12C2.75 9.75372 4.49266 7.91447 6.69978 7.76044L10.1893 11.25H8C7.58579 11.25 7.25 11.5858 7.25 12C7.25 12.4142 7.58579 12.75 8 12.75H11.6893L15.1893 16.25H15C14.5858 16.25 14.25 16.5858 14.25 17C14.25 17.4142 14.5858 17.75 15 17.75H16.6893L21.4697 22.5303C21.7626 22.8232 22.2374 22.8232 22.5303 22.5303C22.8232 22.2374 22.8232 21.7626 22.5303 21.4697L12.5349 11.4742C12.5319 11.4712 12.5289 11.4682 12.5258 11.4652L2.53033 1.46967Z" fill="#353566"/>
<path d="M15 6.25C14.5858 6.25 14.25 6.58579 14.25 7C14.25 7.41421 14.5858 7.75 15 7.75H17C19.3472 7.75 21.25 9.65279 21.25 12C21.25 13.3899 20.5836 14.6239 19.5498 15.4005C19.2186 15.6493 19.1518 16.1195 19.4006 16.4507C19.6494 16.7818 20.1195 16.8486 20.4507 16.5998C21.8455 15.5521 22.75 13.8816 22.75 12C22.75 8.82436 20.1756 6.25 17 6.25H15Z" fill="#353566"/>
</svg>
