<svg width="24" height="24" viewBox="0 0 24 24" fill="none" xmlns="http://www.w3.org/2000/svg">
<path fill-rule="evenodd" clip-rule="evenodd" d="M4.96858 20.75H6.03142C6.7048 20.75 7.25551 20.75 7.70307 20.7134C8.16633 20.6756 8.58473 20.5949 8.97547 20.3958C9.587 20.0842 10.0842 19.587 10.3958 18.9755C10.5949 18.5847 10.6756 18.1663 10.7134 17.7031C10.75 17.2555 10.75 16.7048 10.75 16.0314V14.9686C10.75 14.2952 10.75 13.7445 10.7134 13.2969C10.6756 12.8337 10.5949 12.4153 10.3958 12.0245C10.0842 11.413 9.587 10.9158 8.97547 10.6042C8.58473 10.4051 8.16633 10.3244 7.70307 10.2866C7.25552 10.25 6.70482 10.25 6.03147 10.25H1.75V9C1.75 6.65279 3.65279 4.75 6 4.75C6.41421 4.75 6.75 4.41421 6.75 4C6.75 3.58579 6.41421 3.25 6 3.25C2.82436 3.25 0.25 5.82436 0.25 9V16.0314C0.249991 16.7048 0.249983 17.2555 0.286551 17.7031C0.3244 18.1663 0.405136 18.5847 0.604229 18.9755C0.915818 19.587 1.413 20.0842 2.02453 20.3958C2.41527 20.5949 2.83367 20.6756 3.29693 20.7134C3.7445 20.75 4.2952 20.75 4.96858 20.75ZM1.75 16V11.75H6C6.71244 11.75 7.20167 11.7506 7.58092 11.7816C7.95142 11.8118 8.15044 11.8673 8.29448 11.9407C8.62377 12.1085 8.89148 12.3762 9.05926 12.7055C9.13265 12.8496 9.18816 13.0486 9.21843 13.4191C9.24942 13.7983 9.25 14.2876 9.25 15V16C9.25 16.7124 9.24942 17.2017 9.21843 17.5809C9.18816 17.9514 9.13265 18.1504 9.05926 18.2945C8.89148 18.6238 8.62377 18.8915 8.29448 19.0593C8.15044 19.1327 7.95142 19.1882 7.58092 19.2184C7.20167 19.2494 6.71244 19.25 6 19.25H5C4.28756 19.25 3.79833 19.2494 3.41908 19.2184C3.04858 19.1882 2.84955 19.1327 2.70552 19.0593C2.37623 18.8915 2.10852 18.6238 1.94074 18.2945C1.86735 18.1504 1.81184 17.9514 1.78157 17.5809C1.75058 17.2017 1.75 16.7124 1.75 16Z" fill="#353566"/>
<path fill-rule="evenodd" clip-rule="evenodd" d="M17.9686 20.75H19.0314C19.7048 20.75 20.2555 20.75 20.7031 20.7134C21.1663 20.6756 21.5847 20.5949 21.9755 20.3958C22.587 20.0842 23.0842 19.587 23.3958 18.9755C23.5949 18.5847 23.6756 18.1663 23.7134 17.7031C23.75 17.2555 23.75 16.7048 23.75 16.0314V14.9686C23.75 14.2952 23.75 13.7445 23.7134 13.2969C23.6756 12.8337 23.5949 12.4153 23.3958 12.0245C23.0842 11.413 22.587 10.9158 21.9755 10.6042C21.5847 10.4051 21.1663 10.3244 20.7031 10.2866C20.2555 10.25 19.7048 10.25 19.0315 10.25H14.75V9C14.75 6.65279 16.6528 4.75 19 4.75C19.4142 4.75 19.75 4.41421 19.75 4C19.75 3.58579 19.4142 3.25 19 3.25C15.8244 3.25 13.25 5.82436 13.25 9V16.0314C13.25 16.7048 13.25 17.2555 13.2866 17.7031C13.3244 18.1663 13.4051 18.5847 13.6042 18.9755C13.9158 19.587 14.413 20.0842 15.0245 20.3958C15.4153 20.5949 15.8337 20.6756 16.2969 20.7134C16.7445 20.75 17.2952 20.75 17.9686 20.75ZM14.75 16V11.75H19C19.7124 11.75 20.2017 11.7506 20.5809 11.7816C20.9514 11.8118 21.1504 11.8673 21.2945 11.9407C21.6238 12.1085 21.8915 12.3762 22.0593 12.7055C22.1327 12.8496 22.1882 13.0486 22.2184 13.4191C22.2494 13.7983 22.25 14.2876 22.25 15V16C22.25 16.7124 22.2494 17.2017 22.2184 17.5809C22.1882 17.9514 22.1327 18.1504 22.0593 18.2945C21.8915 18.6238 21.6238 18.8915 21.2945 19.0593C21.1504 19.1327 20.9514 19.1882 20.5809 19.2184C20.2017 19.2494 19.7124 19.25 19 19.25H18C17.2876 19.25 16.7983 19.2494 16.4191 19.2184C16.0486 19.1882 15.8496 19.1327 15.7055 19.0593C15.3762 18.8915 15.1085 18.6238 14.9407 18.2945C14.8673 18.1504 14.8118 17.9514 14.7816 17.5809C14.7506 17.2017 14.75 16.7124 14.75 16Z" fill="#353566"/>
</svg>
