<svg width="24" height="24" viewBox="0 0 24 24" fill="none" xmlns="http://www.w3.org/2000/svg">
<path d="M10.1145 2.43016C10.352 2.09082 10.2695 1.62318 9.93016 1.38564C9.59082 1.1481 9.12318 1.23063 8.88564 1.56997L5.60961 6.25001L2.77977 6.25C2.65762 6.24997 2.52517 6.24994 2.41053 6.25931C2.28078 6.26991 2.10935 6.29615 1.93252 6.38625C1.69732 6.50609 1.50609 6.69732 1.38625 6.93252C1.29615 7.10935 1.26991 7.28078 1.25931 7.41053C1.24994 7.52518 1.24997 7.65763 1.25 7.77979V8.72022C1.24997 8.84238 1.24994 8.97483 1.25931 9.08948C1.26991 9.21924 1.29615 9.39067 1.38625 9.56749C1.50609 9.8027 1.69732 9.99392 1.93252 10.1138C2.10935 10.2039 2.28078 10.2301 2.41053 10.2407C2.52518 10.2501 2.65763 10.25 2.77979 10.25H21.2202C21.3424 10.25 21.4748 10.2501 21.5895 10.2407C21.7192 10.2301 21.8907 10.2039 22.0675 10.1138C22.3027 9.99392 22.4939 9.8027 22.6138 9.56749C22.7039 9.39067 22.7301 9.21924 22.7407 9.08948C22.7501 8.97485 22.75 8.84238 22.75 8.72024V7.77972C22.75 7.65758 22.7501 7.52516 22.7407 7.41053C22.7301 7.28078 22.7039 7.10935 22.6138 6.93252C22.4939 6.69732 22.3027 6.50609 22.0675 6.38625C21.8907 6.29615 21.7192 6.26991 21.5895 6.25931C21.4748 6.24994 21.3424 6.24997 21.2202 6.25L18.3905 6.25L15.1145 1.56997C14.877 1.23063 14.4093 1.1481 14.07 1.38564C13.7306 1.62318 13.6481 2.09082 13.8856 2.43016L16.5595 6.25L7.4406 6.25001L10.1145 2.43016Z" fill="#353566"/>
<path fill-rule="evenodd" clip-rule="evenodd" d="M3.20459 11.7501C2.98801 11.7501 2.782 11.8438 2.63957 12.0069C2.49714 12.1701 2.43221 12.3869 2.46147 12.6015L3.10054 17.288C3.21411 18.1209 3.30512 18.7883 3.42104 19.3264C3.5403 19.8801 3.69644 20.352 3.96819 20.7796C4.40744 21.4708 5.03702 22.0204 5.78122 22.3622C6.24165 22.5737 6.73033 22.6646 7.29504 22.708C7.84385 22.7501 8.51753 22.7501 9.35812 22.7501H14.642C15.4826 22.7501 16.1563 22.7501 16.7051 22.708C17.2698 22.6646 17.7585 22.5737 18.2189 22.3622C18.9631 22.0204 19.5927 21.4708 20.0319 20.7796C20.3037 20.352 20.4598 19.8801 20.5791 19.3264C20.695 18.7883 20.786 18.1208 20.8996 17.2879L21.5386 12.6015C21.5679 12.3869 21.503 12.1701 21.3605 12.0069C21.2181 11.8438 21.0121 11.7501 20.7955 11.7501H3.20459ZM14.1291 14.1646C14.0021 13.9105 13.7424 13.75 13.4583 13.75H10.5416C10.1274 13.75 9.79163 14.0858 9.79163 14.5C9.79163 14.9142 10.1274 15.25 10.5416 15.25H12.1013C12.0191 15.3983 11.9346 15.5579 11.85 15.7271C11.36 16.707 10.8333 18.0801 10.8333 19.5C10.8333 19.9142 11.1691 20.25 11.5833 20.25C11.9975 20.25 12.3333 19.9142 12.3333 19.5C12.3333 18.4199 12.7441 17.293 13.1916 16.3979C13.4115 15.9582 13.6317 15.5912 13.7962 15.3353C13.8783 15.2076 13.946 15.1084 13.9922 15.0424C14.0152 15.0094 14.0329 14.9848 14.0442 14.9692L14.0563 14.9526L14.0585 14.9497C14.2288 14.7225 14.2561 14.4186 14.1291 14.1646Z" fill="#353566"/>
</svg>
