<svg width="24" height="24" viewBox="0 0 24 24" fill="none" xmlns="http://www.w3.org/2000/svg">
<path d="M11.0692 1.59753C10.0731 1.13416 8.92331 1.13416 7.92726 1.59753L5.90922 2.53635C5.79409 2.58991 5.79344 2.75337 5.90813 2.80785L14.7211 6.99402C14.7607 7.0128 14.8064 7.01338 14.8464 6.9956L17.9922 5.59713C18.0763 5.55974 18.1074 5.45599 18.0539 5.38107C17.6872 4.86694 17.1888 4.44447 16.593 4.1673L11.0692 1.59753Z" fill="#353566"/>
<path d="M18.6816 6.85166C18.6642 6.75952 18.5648 6.71054 18.4791 6.74863L10.2132 10.4233C10.159 10.4474 10.1241 10.5011 10.1241 10.5604L10.1241 19.5193C10.1241 19.6122 10.2078 19.683 10.2985 19.663C10.337 19.6546 10.3753 19.6455 10.4136 19.6358C10.8128 19.5346 11.0557 19.1304 10.9577 18.7304C10.8221 18.1765 10.75 17.5969 10.75 16.9995C10.75 12.9965 13.9942 9.75126 17.9968 9.74951C18.4108 9.74933 18.7464 9.4136 18.7464 8.99951V7.54414C18.7464 7.30903 18.7243 7.07739 18.6816 6.85166Z" fill="#353566"/>
<path fill-rule="evenodd" clip-rule="evenodd" d="M8.69972 19.6634C8.79045 19.6833 8.87408 19.6126 8.87408 19.5197L8.87408 10.5611C8.87408 10.5018 8.83919 10.4481 8.78504 10.424L0.517591 6.74739C0.431921 6.70929 0.332509 6.75824 0.315055 6.85037C0.27221 7.0765 0.25 7.30859 0.25 7.54415V13.511C0.25 14.9707 1.10276 16.2959 2.4313 16.9007L7.95514 19.4153C8.19601 19.525 8.44564 19.6077 8.69972 19.6634ZM4.62476 14.1625C4.75973 13.8448 5.12669 13.6967 5.44439 13.8317L7.24439 14.5964C7.56208 14.7314 7.7102 15.0984 7.57522 15.4161C7.44025 15.7337 7.07329 15.8819 6.75559 15.7469L4.95559 14.9821C4.6379 14.8472 4.48978 14.4802 4.62476 14.1625Z" fill="#353566"/>
<path d="M0.943285 5.38C0.889805 5.45491 0.920848 5.55869 1.00495 5.5961L9.43731 9.34605C9.4761 9.3633 9.52039 9.3633 9.55919 9.34605L12.9803 7.82518C13.0975 7.77311 13.0995 7.60762 12.9838 7.55262L4.21176 3.38592C4.17142 3.36676 4.12463 3.36657 4.08413 3.38541L2.40342 4.1673C1.80804 4.44428 1.30995 4.86635 0.943285 5.38Z" fill="#353566"/>
<path fill-rule="evenodd" clip-rule="evenodd" d="M12.25 16.9995C12.25 13.8239 14.8244 11.2495 18 11.2495C21.1756 11.2495 23.75 13.8239 23.75 16.9995C23.75 20.1751 21.1756 22.7495 18 22.7495C14.8244 22.7495 12.25 20.1751 12.25 16.9995ZM20.4419 16.1915C20.686 15.9474 20.686 15.5516 20.4419 15.3076C20.1979 15.0635 19.8021 15.0635 19.5581 15.3076L17.6083 17.2573C17.5496 17.3161 17.4543 17.3159 17.3958 17.2569L16.4437 16.297C16.2007 16.052 15.8049 16.0503 15.5599 16.2934C15.3148 16.5365 15.3132 16.9322 15.5563 17.1773L17.0563 18.6896C17.1733 18.8076 17.3325 18.8742 17.4987 18.8745C17.6649 18.8749 17.8244 18.809 17.9419 18.6915L20.4419 16.1915Z" fill="#353566"/>
</svg>
