<svg width="24" height="24" viewBox="0 0 24 24" fill="none" xmlns="http://www.w3.org/2000/svg">
<path d="M11.0692 1.59753C10.0731 1.13416 8.92331 1.13416 7.92726 1.59753L5.90923 2.53635C5.79411 2.58991 5.79345 2.75336 5.90815 2.80784L14.7212 6.99402C14.7607 7.0128 14.8065 7.01338 14.8465 6.9956L17.9922 5.59714C18.0763 5.55975 18.1074 5.456 18.0539 5.38108C17.6872 4.86694 17.1888 4.44447 16.593 4.1673L11.0692 1.59753Z" fill="#353566"/>
<path d="M18.6816 6.85167C18.6642 6.75953 18.5648 6.71055 18.4791 6.74864L10.2132 10.4233C10.159 10.4474 10.1241 10.5011 10.1241 10.5604L10.1241 19.5193C10.1241 19.6122 10.2078 19.683 10.2985 19.663C10.552 19.6073 10.801 19.5247 11.0413 19.4153L12.8088 18.6107C13.0749 18.4896 13.2463 18.2249 13.248 17.9325C13.2519 17.2767 13.3138 16.8325 13.5922 16.4551C13.8131 16.1556 13.8893 15.7735 13.8006 15.4125C13.6552 14.8209 13.8256 14.1875 14.2632 13.7485L16.2632 11.7425C16.6916 11.3129 17.2821 11.1718 17.8436 11.2887C18.0646 11.3347 18.2945 11.2787 18.4697 11.1363C18.6448 10.9938 18.7464 10.7801 18.7464 10.5544V7.54414C18.7464 7.30904 18.7243 7.0774 18.6816 6.85167Z" fill="#353566"/>
<path fill-rule="evenodd" clip-rule="evenodd" d="M8.69976 19.6634C8.79048 19.6833 8.87411 19.6126 8.87411 19.5197L8.87411 10.5611C8.87412 10.5018 8.83922 10.4481 8.78507 10.424L0.517594 6.74738C0.431924 6.70928 0.332512 6.75823 0.315058 6.85035C0.272211 7.07649 0.25 7.30858 0.25 7.54415V13.511C0.25 14.9707 1.10276 16.2959 2.4313 16.9007L7.95514 19.4153C8.19602 19.525 8.44566 19.6077 8.69976 19.6634ZM4.62476 14.1625C4.75973 13.8448 5.12669 13.6967 5.44439 13.8317L7.24439 14.5964C7.56208 14.7314 7.7102 15.0984 7.57522 15.4161C7.44025 15.7337 7.07329 15.8819 6.75559 15.7469L4.95559 14.9821C4.6379 14.8472 4.48978 14.4802 4.62476 14.1625Z" fill="#353566"/>
<path d="M0.943293 5.37999C0.889812 5.4549 0.920855 5.55868 1.00496 5.59609L9.43734 9.34605C9.47613 9.3633 9.52042 9.3633 9.55922 9.34605L12.9804 7.82518C13.0975 7.77311 13.0996 7.60762 12.9838 7.55262L4.21178 3.38591C4.17143 3.36675 4.12464 3.36656 4.08415 3.3854L2.40342 4.1673C1.80805 4.44428 1.30996 4.86635 0.943293 5.37999Z" fill="#353566"/>
<path d="M23 18.2495C23.4142 18.2495 23.75 17.9137 23.75 17.4995V16.4995C23.75 15.2569 22.7426 14.2495 21.5 14.2495H17.6727C17.5391 14.2495 17.4722 14.0879 17.5667 13.9934L18.0303 13.5298C18.3232 13.2369 18.3232 12.7621 18.0303 12.4692C17.7374 12.1763 17.2625 12.1763 16.9696 12.4692L14.9696 14.4692C14.7551 14.6837 14.6909 15.0063 14.807 15.2865C14.9231 15.5668 15.1966 15.7495 15.4999 15.7495H21.5C21.9142 15.7495 22.25 16.0853 22.25 16.4995V17.4995C22.25 17.9137 22.5858 18.2495 23 18.2495Z" fill="#353566"/>
<path d="M15 16.7495C14.5858 16.7495 14.25 17.0853 14.25 17.4995V18.4995C14.25 19.7422 15.2574 20.7495 16.5 20.7495H20.3272C20.4608 20.7495 20.5277 20.9111 20.4332 21.0056L19.9696 21.4692C19.6767 21.7621 19.6767 22.2369 19.9696 22.5298C20.2625 22.8227 20.7374 22.8227 21.0303 22.5299L23.0303 20.5299C23.2448 20.3154 23.309 19.9928 23.1929 19.7125C23.0768 19.4322 22.8033 19.2495 22.5 19.2495H16.5C16.0858 19.2495 15.75 18.9137 15.75 18.4995V17.4995C15.75 17.0853 15.4142 16.7495 15 16.7495Z" fill="#353566"/>
</svg>
