<svg width="24" height="24" viewBox="0 0 24 24" fill="none" xmlns="http://www.w3.org/2000/svg">
<g clip-path="url(#clip0_9001_290230)">
<path d="M12.0002 0.25C12.4144 0.25 12.7502 0.585786 12.7502 1C12.7502 1.78946 12.1998 2.25105 11.9286 2.47845C11.909 2.49486 11.8904 2.51047 11.8741 2.52447C11.8348 2.55815 11.8133 2.58393 11.8021 2.59956C11.7966 2.60736 11.7934 2.61293 11.7918 2.61617C11.791 2.6177 11.7907 2.61939 11.791 2.62107C11.7914 2.62394 11.7921 2.62807 11.7935 2.63355C11.8007 2.66217 11.8226 2.71663 11.878 2.79323C11.9325 2.86859 12.0086 2.95006 12.1025 3.03056C12.9859 3.78778 12.8395 5.12551 12.0657 5.78883C11.9344 5.90133 11.9542 6.10992 12.1043 6.1957L12.3723 6.34882C12.7319 6.55432 12.8569 7.01247 12.6514 7.3721C12.4459 7.73174 11.9877 7.85669 11.6281 7.65118L11.3601 7.49806C10.3094 6.89765 10.1706 5.43751 11.0895 4.64994C11.1521 4.59623 11.2023 4.49941 11.2067 4.38707C11.2108 4.28008 11.1731 4.20957 11.1263 4.16944C10.8135 3.90137 10.4655 3.50249 10.3389 3.00001C10.2721 2.73478 10.2677 2.43961 10.3684 2.14124C10.4682 1.84521 10.6555 1.59339 10.8979 1.38559L10.929 1.35894C10.9967 1.30102 11.0494 1.25591 11.0992 1.2094C11.1541 1.15814 11.1891 1.11996 11.2125 1.08952C11.2488 1.04212 11.2502 1.02514 11.2502 1C11.2502 0.585786 11.586 0.25 12.0002 0.25Z" fill="#353566"/>
<path d="M1.81435 8.69656C1.95191 8.38568 2.28138 8.2062 2.61718 8.25922L11.9378 9.73091C11.9612 9.73459 11.9728 9.73643 11.9846 9.73717C11.995 9.73782 12.0054 9.73782 12.0159 9.73717C12.0276 9.73643 12.0393 9.73459 12.0626 9.73091L21.3832 8.25922C21.719 8.2062 22.0485 8.38568 22.1861 8.69656L23.6255 11.9495C23.9811 12.7532 23.5727 13.6891 22.7416 13.9749L16.9102 15.9802C16.2111 16.2206 15.4364 15.9958 14.9746 15.4186L12.3126 12.0911C12.2058 11.9576 12.1524 11.8909 12.0879 11.8667C12.0314 11.8455 11.9691 11.8455 11.9125 11.8667C11.848 11.8909 11.7946 11.9576 11.6879 12.0911L9.02585 15.4186C8.56405 15.9958 7.78932 16.2206 7.09025 15.9802L1.25885 13.9749C0.427721 13.6891 0.0192758 12.7532 0.374927 11.9495L1.81435 8.69656Z" fill="#353566"/>
<path d="M11.2502 15.2092C11.2502 15.0201 11.0121 14.9366 10.894 15.0843L10.002 16.1994C9.21029 17.1889 7.88219 17.5743 6.68378 17.1622L2.51501 15.7287C2.38516 15.684 2.24997 15.7805 2.24997 15.9178V18.9926C2.24997 20.2195 3.06274 21.298 4.24216 21.6361L11.2422 23.6428C11.2462 23.644 11.2502 23.6409 11.2502 23.6367V15.2092Z" fill="#353566"/>
<path d="M12.7502 23.6371C12.7502 23.641 12.754 23.6439 12.7578 23.6428L19.7578 21.6361C20.9372 21.298 21.75 20.2195 21.75 18.9926V15.918C21.75 15.7807 21.6148 15.6842 21.4849 15.7288L17.3167 17.1622C16.1182 17.5743 14.7901 17.1889 13.9985 16.1994L13.1064 15.0842C12.9883 14.9366 12.7502 15.0201 12.7502 15.2092V23.6371Z" fill="#353566"/>
<path d="M18.4303 4.11449C18.7696 3.87695 18.8521 3.4093 18.6146 3.06997C18.3771 2.73063 17.9094 2.6481 17.5701 2.88564C16.3822 3.71718 15.4818 5.21305 15.2568 6.90094C15.202 7.31152 15.4905 7.68874 15.9011 7.74349C16.3116 7.79823 16.6889 7.50977 16.7436 7.09919C16.9185 5.78708 17.6182 4.68294 18.4303 4.11449Z" fill="#353566"/>
<path d="M5.38582 3.06997C5.14829 3.4093 5.23081 3.87695 5.57015 4.11449C6.38223 4.68294 7.08188 5.78708 7.25683 7.09919C7.31157 7.50977 7.68879 7.79823 8.09937 7.74349C8.50995 7.68874 8.79841 7.31152 8.74367 6.90094C8.51862 5.21305 7.61826 3.71718 6.43034 2.88564C6.09101 2.6481 5.62336 2.73063 5.38582 3.06997Z" fill="#353566"/>
<path d="M4.00021 5C3.44793 5 3.00021 5.44772 3.00021 6C3.00021 6.55228 3.44793 7 4.00021 7C4.5525 7 5.00031 6.55228 5.00031 6C5.00031 5.44772 4.5525 5 4.00021 5Z" fill="#353566"/>
<path d="M19.0002 6C19.0002 5.44772 19.4479 5 20.0002 5C20.5525 5 21.0003 5.44772 21.0003 6C21.0003 6.55228 20.5526 7 20.0003 7C19.448 7 19.0002 6.55228 19.0002 6Z" fill="#353566"/>
<path d="M14.5002 2C13.9479 2 13.5002 2.44772 13.5002 3C13.5002 3.55228 13.9479 4 14.5002 4C15.0525 4 15.5003 3.55228 15.5003 3C15.5003 2.44772 15.0525 2 14.5002 2Z" fill="#353566"/>
</g>
<defs>
<clipPath id="clip0_9001_290230">
<rect width="24" height="24" fill="white"/>
</clipPath>
</defs>
</svg>
