<svg width="24" height="24" viewBox="0 0 24 24" fill="none" xmlns="http://www.w3.org/2000/svg">
<g clip-path="url(#clip0_9001_290260)">
<path d="M11.25 14.2092C11.25 14.0202 11.0119 13.9367 10.8938 14.0843L10.0017 15.1994C9.21005 16.189 7.88195 16.5744 6.68354 16.1623L2.51476 14.7287C2.38492 14.684 2.24972 14.7805 2.24972 14.9178V18.9926C2.24972 20.2196 3.06249 21.2981 4.24191 21.6362L11.2419 23.6428C11.246 23.644 11.25 23.6409 11.25 23.6367V14.2092Z" fill="#353566"/>
<path d="M12.75 23.6371C12.75 23.6411 12.7537 23.6439 12.7575 23.6428L19.7575 21.6362C20.937 21.2981 21.7497 20.2196 21.7497 18.9926V14.918C21.7497 14.7807 21.6145 14.6842 21.4847 14.7289L17.3164 16.1623C16.118 16.5744 14.7899 16.189 13.9982 15.1994L13.1061 14.0843C12.988 13.9366 12.75 14.0202 12.75 14.2092V23.6371Z" fill="#353566"/>
<path d="M22.1858 7.69658C22.0483 7.3857 21.7188 7.20622 21.383 7.25924L12.039 8.73462C12.0131 8.7387 11.9868 8.7387 11.961 8.73462L2.61693 7.25924C2.28113 7.20622 1.95167 7.3857 1.81411 7.69658L0.374683 10.9495C0.0190317 11.7532 0.427477 12.6892 1.25861 12.975L7.09001 14.9803C7.78908 15.2207 8.5638 14.9958 9.02561 14.4186L11.8048 10.9447C11.9048 10.8196 12.0951 10.8196 12.1952 10.9447L14.9743 14.4186C15.4361 14.9958 16.2109 15.2207 16.9099 14.9803L22.7413 12.975C23.5725 12.6892 23.9809 11.7532 23.6253 10.9495L22.1858 7.69658Z" fill="#353566"/>
<path d="M15.5303 4.53084C15.8232 4.23795 15.8232 3.76307 15.5303 3.47018L12.5303 0.470158C12.2374 0.177265 11.7625 0.177265 11.4696 0.470158L8.4696 3.47018C8.17671 3.76307 8.17671 4.23795 8.4696 4.53084C8.7625 4.82373 9.23737 4.82373 9.53026 4.53084L10.8232 3.23791C10.9807 3.08042 11.25 3.19196 11.25 3.41469V7.00051C11.25 7.41472 11.5858 7.75051 12 7.75051C12.4142 7.75051 12.75 7.41472 12.75 7.00051V3.41471C12.75 3.19199 13.0193 3.08045 13.1767 3.23794L14.4696 4.53084C14.7625 4.82373 15.2374 4.82373 15.5303 4.53084Z" fill="#353566"/>
</g>
<defs>
<clipPath id="clip0_9001_290260">
<rect width="24" height="24" fill="white"/>
</clipPath>
</defs>
</svg>
