<svg width="24" height="24" viewBox="0 0 24 24" fill="none" xmlns="http://www.w3.org/2000/svg">
<path fill-rule="evenodd" clip-rule="evenodd" d="M14.2321 1.25H5.76789C4.95507 1.24999 4.29944 1.24999 3.76853 1.29336C3.22189 1.33803 2.74175 1.43238 2.29754 1.65873C1.59193 2.01825 1.01825 2.59193 0.658725 3.29754C0.432385 3.74175 0.338025 4.22189 0.293363 4.76853C0.249987 5.29944 0.249992 5.95507 0.25 6.76789V15.2321C0.249992 16.045 0.249987 16.7006 0.293363 17.2315C0.338025 17.7781 0.432385 18.2582 0.658725 18.7025C1.01825 19.4081 1.59193 19.9817 2.29754 20.3413C2.74175 20.5676 3.22189 20.662 3.76853 20.7066C4.29944 20.75 4.95504 20.75 5.76788 20.75H10.5815C10.8309 20.75 11.064 20.626 11.2034 20.4192C11.3428 20.2124 11.3703 19.9498 11.2767 19.7186C10.9373 18.88 10.75 17.9628 10.75 17C10.75 12.9959 13.9959 9.75 18 9.75C18.3076 9.75 18.6103 9.76911 18.9072 9.80613C19.1206 9.83274 19.3352 9.76645 19.4964 9.62408C19.6577 9.48171 19.75 9.27698 19.75 9.06189V6.76788C19.75 5.95505 19.75 5.29944 19.7066 4.76853C19.662 4.22189 19.5676 3.74175 19.3413 3.29754C18.9817 2.59193 18.4081 2.01825 17.7025 1.65873C17.2582 1.43238 16.7781 1.33803 16.2315 1.29336C15.7006 1.24999 15.0449 1.24999 14.2321 1.25ZM6.09998 2.75H13.9V9.94601C13.9 10.5918 13.138 10.9357 12.6538 10.5084L9.99998 8.16681L7.34622 10.5084C6.86195 10.9357 6.10001 10.5918 6.1 9.94601L6.09998 2.75ZM7.99997 16.25C8.41419 16.25 8.74997 15.9142 8.74997 15.5C8.74997 15.0858 8.41419 14.75 7.99997 14.75H5.5C5.08579 14.75 4.75 15.0858 4.75 15.5C4.75 15.9142 5.08579 16.25 5.5 16.25H7.99997Z" fill="#353566"/>
<path fill-rule="evenodd" clip-rule="evenodd" d="M18 11.25C21.1756 11.25 23.75 13.8244 23.75 17C23.75 20.1756 21.1756 22.75 18 22.75C14.8244 22.75 12.25 20.1756 12.25 17C12.25 13.8244 14.8244 11.25 18 11.25ZM18 14.875C17.5167 14.875 17.125 15.2667 17.125 15.75C17.125 16.0952 16.8452 16.375 16.5 16.375C16.1548 16.375 15.875 16.0952 15.875 15.75C15.875 14.5764 16.8264 13.625 18 13.625C19.1736 13.625 20.125 14.5764 20.125 15.75C20.125 16.3427 19.8816 16.8796 19.4908 17.2643C19.2895 17.4625 19.0688 17.5982 18.9296 17.6837C18.9036 17.6996 18.8805 17.7139 18.8608 17.7264C18.7268 17.8121 18.6851 17.855 18.6507 17.9194C18.4881 18.2239 18.1094 18.3389 17.8049 18.1763C17.5005 18.0137 17.3855 17.635 17.5481 17.3306C17.7329 16.9845 17.9891 16.8001 18.1875 16.6733C18.233 16.6442 18.2733 16.6191 18.3098 16.5963C18.44 16.5152 18.5217 16.4643 18.6138 16.3736C18.7758 16.2141 18.875 15.9942 18.875 15.75C18.875 15.2667 18.4832 14.875 18 14.875ZM17.25 19.5C17.25 19.0858 17.5858 18.75 18 18.75C18.4142 18.75 18.7501 19.0858 18.7501 19.5C18.7501 19.9142 18.4142 20.25 18 20.25C17.5858 20.25 17.25 19.9142 17.25 19.5Z" fill="#353566"/>
</svg>
