<svg width="24" height="24" viewBox="0 0 24 24" fill="none" xmlns="http://www.w3.org/2000/svg">
<path d="M0.25 2C0.25 1.58579 0.585786 1.25 1 1.25H2.18189C3.31272 1.25 4.26785 2.08931 4.41322 3.21075L4.48313 3.75H20.004C21.04 3.75 21.8492 4.64496 21.7452 5.6757L21.2504 10.5786C21.2112 10.9673 20.8801 11.2608 20.4895 11.2531C20.2055 11.2475 19.9214 11.273 19.6415 11.3308C19.1954 11.4264 18.7638 11.5879 18.3169 11.7966C18.116 11.8905 17.8838 11.8906 17.6828 11.7969C17.2321 11.5869 16.7978 11.4242 16.349 11.3288C14.8354 11.0137 13.1645 11.6602 12.1235 13.076C11.6191 13.7621 11.3241 14.6247 11.2623 15.55C11.236 15.9439 10.9088 16.25 10.514 16.25H5.25C4.69772 16.25 4.25 16.6977 4.25 17.25C4.25 17.8023 4.69772 18.25 5.25 18.25H11.2842C11.6984 18.25 12.0342 18.5858 12.0342 19C12.0342 19.4142 11.6984 19.75 11.2842 19.75H9.35462C9.44837 19.9816 9.5 20.2348 9.5 20.5C9.5 21.6046 8.60457 22.5 7.5 22.5C6.39543 22.5 5.5 21.6046 5.5 20.5C5.5 20.2348 5.55163 19.9816 5.64538 19.75H5.25C3.86929 19.75 2.75 18.6307 2.75 17.25C2.75 16.0932 3.53571 15.1199 4.60258 14.8346C4.43805 14.5384 4.32617 14.2075 4.28029 13.8535L2.92567 3.40358C2.87721 3.02977 2.55884 2.75 2.18189 2.75H1C0.585786 2.75 0.25 2.41421 0.25 2Z" fill="#353566"/>
<path d="M19.9021 12.5517C20.847 12.3556 22.0491 12.7049 22.8641 13.8092C23.7044 14.9477 23.7815 16.9092 22.6739 18.4463C21.902 19.5175 20.3335 20.9543 19.326 21.8349C19.3023 21.8557 19.2787 21.8766 19.2549 21.8976C19.006 22.1173 18.7484 22.3448 18.425 22.4404C18.1559 22.5199 17.8441 22.5199 17.5751 22.4404C17.2517 22.3448 16.994 22.1173 16.7452 21.8976C16.7214 21.8766 16.6977 21.8557 16.6741 21.8349C15.6666 20.9544 14.098 19.5175 13.3262 18.4463C12.2186 16.9092 12.2957 14.9478 13.136 13.8092C13.951 12.7049 15.153 12.3556 16.0979 12.5517L16.0999 12.5521C16.8341 12.7076 17.4857 13.0554 18 13.6007C18.5143 13.0554 19.166 12.7076 19.9002 12.5521L19.9021 12.5517Z" fill="#353566"/>
</svg>
