<svg width="24" height="24" viewBox="0 0 24 24" fill="none" xmlns="http://www.w3.org/2000/svg">
<path d="M1.69277 2.74997C2.06199 2.74997 2.29764 2.75046 2.47842 2.76407C2.64978 2.77696 2.71698 2.79877 2.75301 2.81481C2.8814 2.87197 2.99115 2.96406 3.06974 3.08057C3.09179 3.11327 3.12494 3.17566 3.1674 3.34218C3.21219 3.51785 3.25359 3.74984 3.31771 4.11344L5.55997 16.8296C4.23576 17.1414 3.25005 18.3305 3.25005 19.7499C3.25005 21.4067 4.59319 22.7499 6.25005 22.7499C7.79205 22.7499 9.06233 21.5865 9.23103 20.0896L23.1314 17.6386C23.5393 17.5666 23.8117 17.1777 23.7398 16.7697C23.6678 16.3618 23.2788 16.0894 22.8709 16.1614L9.02306 18.6031C8.67767 17.7689 7.96678 17.1243 7.09007 16.8691L4.79043 3.82752C4.7321 3.49668 4.6813 3.20852 4.6209 2.97159C4.55661 2.71946 4.46953 2.47341 4.31329 2.24178C4.07752 1.89224 3.74829 1.61598 3.36312 1.44449C3.10788 1.33085 2.85044 1.28782 2.59098 1.2683C2.34717 1.24995 2.05455 1.24996 1.71863 1.24997L1 1.24997C0.585786 1.24997 0.25 1.58576 0.25 1.99997C0.25 2.41418 0.585786 2.74997 1 2.74997L1.69277 2.74997Z" fill="#353566"/>
<path fill-rule="evenodd" clip-rule="evenodd" d="M12.3645 2.31646L14.7913 1.88855C15.5917 1.7474 16.2374 1.63354 16.7678 1.58407C17.3139 1.53313 17.8031 1.54268 18.2799 1.68845C19.0372 1.91998 19.7018 2.38532 20.1784 3.01778C20.4784 3.41595 20.6547 3.87241 20.7936 4.40299C20.9285 4.91829 21.0424 5.56394 21.1835 6.36443L21.6114 8.7913C21.7526 9.59175 21.8664 10.2374 21.9159 10.7677C21.9668 11.3138 21.9573 11.8031 21.8115 12.2798C21.58 13.0371 21.1146 13.7017 20.4822 14.1783C20.084 14.4784 19.6275 14.6547 19.097 14.7936C18.5817 14.9285 17.936 15.0423 17.1355 15.1835L14.7087 15.6114C13.9082 15.7525 13.2626 15.8664 12.7322 15.9158C12.1861 15.9668 11.6969 15.9572 11.2201 15.8115C10.4628 15.5799 9.79823 15.1146 9.32164 14.4821C9.0216 14.084 8.84529 13.6275 8.70639 13.0969C8.57148 12.5816 8.45764 11.936 8.3165 11.1355L7.88859 8.70867C7.74744 7.90821 7.63358 7.26254 7.58411 6.73218C7.53317 6.18609 7.54272 5.69686 7.68849 5.22008C7.92002 4.46276 8.38537 3.79818 9.01782 3.32159C9.41599 3.02155 9.87245 2.84525 10.403 2.70635C10.9183 2.57144 11.564 2.4576 12.3645 2.31646ZM15.4014 12.443C14.9934 12.515 14.6044 12.2426 14.5325 11.8347L13.805 7.70901L12.8157 9.12192C12.5781 9.46122 12.1105 9.54368 11.7712 9.3061C11.4319 9.06852 11.3494 8.60086 11.587 8.26156L13.6149 5.36539C13.8525 5.02608 14.3201 4.94362 14.6594 5.1812L17.5556 7.20907C17.8949 7.44665 17.9773 7.91431 17.7397 8.25361C17.5022 8.59292 17.0345 8.67538 16.6952 8.4378L15.2822 7.44844L16.0097 11.5742C16.0816 11.9821 15.8093 12.3711 15.4014 12.443Z" fill="#353566"/>
</svg>
