<svg width="24" height="24" viewBox="0 0 24 24" fill="none" xmlns="http://www.w3.org/2000/svg">
<path fill-rule="evenodd" clip-rule="evenodd" d="M12 1.25C10.4812 1.25 9.25 2.48122 9.25 4C9.25 4.49801 9.38238 4.96511 9.61387 5.36801L6.1629 9.25036C5.50953 9.25183 4.96339 9.25926 4.50433 9.29677C3.91601 9.34484 3.405 9.44601 2.93404 9.68597C2.18139 10.0695 1.56947 10.6814 1.18597 11.434C0.94601 11.905 0.844838 12.416 0.79677 13.0043C0.749988 13.5769 0.749994 14.285 0.75 15.1676V16.8324C0.749994 17.715 0.749988 18.4231 0.79677 18.9957C0.844838 19.584 0.94601 20.095 1.18597 20.566C1.56947 21.3186 2.18139 21.9305 2.93404 22.314C3.405 22.554 3.91601 22.6552 4.50433 22.7032C5.07691 22.75 5.78499 22.75 6.66761 22.75H17.3324C18.215 22.75 18.9231 22.75 19.4957 22.7032C20.084 22.6552 20.595 22.554 21.066 22.314C21.8186 21.9305 22.4305 21.3186 22.814 20.566C23.054 20.095 23.1552 19.584 23.2032 18.9957C23.25 18.4231 23.25 17.715 23.25 16.8323V15.1677C23.25 14.285 23.25 13.5769 23.2032 13.0043C23.1552 12.416 23.054 11.905 22.814 11.434C22.4305 10.6814 21.8186 10.0695 21.066 9.68597C20.595 9.44601 20.084 9.34484 19.4957 9.29677C19.0366 9.25926 18.4905 9.25183 17.8371 9.25036L14.3861 5.36801C14.6176 4.96511 14.75 4.49801 14.75 4C14.75 2.48122 13.5188 1.25 12 1.25ZM10.75 4C10.75 3.30964 11.3096 2.75 12 2.75C12.6904 2.75 13.25 3.30964 13.25 4C13.25 4.69036 12.6904 5.25 12 5.25C11.3096 5.25 10.75 4.69036 10.75 4ZM13.312 6.41744L15.8299 9.25H8.17015L10.688 6.41744C11.0779 6.62952 11.5249 6.75 12 6.75C12.4751 6.75 12.9221 6.62952 13.312 6.41744ZM15.5303 14.5303C15.8232 14.2374 15.8232 13.7626 15.5303 13.4697C15.2374 13.1768 14.7626 13.1768 14.4697 13.4697L11 16.9393L9.53033 15.4697C9.23744 15.1768 8.76256 15.1768 8.46967 15.4697C8.17678 15.7626 8.17678 16.2374 8.46967 16.5303L10.4697 18.5303C10.7626 18.8232 11.2374 18.8232 11.5303 18.5303L15.5303 14.5303Z" fill="#353566"/>
</svg>
