<svg width="24" height="24" viewBox="0 0 24 24" fill="none" xmlns="http://www.w3.org/2000/svg">
<path fill-rule="evenodd" clip-rule="evenodd" d="M5.75061 4.23591C5.74085 4.75127 5.84803 5.28433 6.08983 5.76002C5.77885 5.76713 5.49673 5.77933 5.24013 5.8003C4.61012 5.85177 4.06824 5.95976 3.57054 6.21334C2.77085 6.62081 2.12068 7.27097 1.71322 8.07066C1.45963 8.56836 1.35165 9.11024 1.30018 9.74026C1.24999 10.3545 1.24999 11.1151 1.25 12.0675V16.0001C1.25 16.1382 1.36193 16.2501 1.5 16.2501H22.5C22.6381 16.2501 22.75 16.1382 22.75 16.0001V12.0674C22.75 11.115 22.75 10.3545 22.6998 9.74026C22.6483 9.11024 22.5404 8.56836 22.2868 8.07066C21.8793 7.27097 21.2291 6.62081 20.4295 6.21334C19.9318 5.95976 19.3899 5.85177 18.7599 5.8003C18.5033 5.77933 18.2212 5.76713 17.9102 5.76002C18.152 5.28433 18.2592 4.75127 18.2494 4.23591C18.2359 3.52403 17.9984 2.78615 17.5057 2.21387C16.9995 1.626 16.2535 1.25012 15.3253 1.25012C13.8576 1.25012 12.8253 2.18338 12.2009 3.13579C12.1302 3.24369 12.0632 3.35398 12 3.4658C11.9368 3.35398 11.8698 3.24369 11.7991 3.13579C11.1747 2.18338 10.1424 1.25012 8.6747 1.25012C7.74653 1.25012 7.00054 1.626 6.49435 2.21387C6.00158 2.78615 5.7641 3.52403 5.75061 4.23591ZM16.4169 5.32034C16.2156 5.56484 15.9026 5.75012 15.4106 5.75012H12.7627C12.8155 5.31451 13.0348 4.59976 13.4554 3.9582C13.9373 3.22312 14.5677 2.75012 15.3253 2.75012C15.8182 2.75012 16.1486 2.93675 16.369 3.19262C16.6027 3.46409 16.7418 3.85121 16.7497 4.26433C16.7575 4.67801 16.6329 5.05798 16.4169 5.32034ZM10.5446 3.9582C10.9652 4.59976 11.1845 5.31451 11.2373 5.75012H8.58943C8.09744 5.75012 7.78438 5.56484 7.58312 5.32034C7.36714 5.05798 7.24251 4.67801 7.25034 4.26433C7.25817 3.85121 7.39728 3.46409 7.63103 3.19262C7.85136 2.93675 8.18183 2.75012 8.6747 2.75012C9.43234 2.75012 10.0627 3.22312 10.5446 3.9582ZM9.78666 7.84784C10.6092 7.20155 11.1452 6.5326 11.3292 6.16467H12.6708C12.8548 6.5326 13.3908 7.20155 14.2134 7.84784C15.0234 8.4843 16.0426 9.04374 17.1471 9.26465C17.5533 9.34588 17.8167 9.741 17.7355 10.1472C17.6542 10.5533 17.2591 10.8168 16.8529 10.7355C15.4575 10.4564 14.2266 9.76587 13.2867 9.02732C12.7859 8.63383 12.3473 8.2105 12 7.80477C11.6528 8.2105 11.2142 8.63383 10.7134 9.02732C9.77342 9.76587 8.54257 10.4564 7.14711 10.7355C6.74094 10.8168 6.34582 10.5533 6.26459 10.1472C6.18335 9.741 6.44677 9.34588 6.85294 9.26465C7.95748 9.04374 8.97663 8.4843 9.78666 7.84784Z" fill="#353566"/>
<path d="M22.7378 18.0044C22.7415 17.8647 22.6287 17.7501 22.489 17.7501H1.51103C1.37128 17.7501 1.25849 17.8647 1.26223 18.0044C1.26958 18.2785 1.28135 18.5295 1.30018 18.76C1.35165 19.39 1.45963 19.9319 1.71322 20.4296C2.12068 21.2293 2.77085 21.8794 3.57054 22.2869C4.06824 22.5405 4.61012 22.6485 5.24013 22.6999C5.85438 22.7501 6.61496 22.7501 7.56737 22.7501H16.4327C17.3851 22.7501 18.1456 22.7501 18.7599 22.6999C19.3899 22.6485 19.9318 22.5405 20.4295 22.2869C21.2291 21.8794 21.8793 21.2293 22.2868 20.4296C22.5404 19.9319 22.6483 19.39 22.6998 18.76C22.7187 18.5295 22.7304 18.2785 22.7378 18.0044Z" fill="#353566"/>
</svg>
