<svg width="24" height="24" viewBox="0 0 24 24" fill="none" xmlns="http://www.w3.org/2000/svg">
<path d="M10.25 0.250043H6.85262C6.07172 0.249602 5.50268 0.249282 4.98537 0.427716C4.52996 0.584795 4.11517 0.84115 3.77101 1.17823C3.38006 1.56113 3.12587 2.07024 2.77703 2.7689L0.566629 7.18977C0.556433 7.21014 0.546393 7.23019 0.536528 7.25H10.25V0.250043Z" fill="#353566"/>
<path fill-rule="evenodd" clip-rule="evenodd" d="M0.25 8.75L0.250012 16.2322C0.250005 17.045 0.25 17.7006 0.293376 18.2316C0.338038 18.7782 0.432397 19.2583 0.658738 19.7026C1.01826 20.4082 1.59194 20.9818 2.29755 21.3414C2.74177 21.5677 3.22191 21.6621 3.76854 21.7067C4.29945 21.7501 4.95506 21.7501 5.76789 21.7501H11.1065C11.3975 21.7501 11.6623 21.5817 11.7857 21.318C11.9091 21.0544 11.8688 20.7432 11.6824 20.5196C11.4177 20.2024 11.2471 19.8049 11.2471 19.2501C11.2471 18.5994 11.4811 18.1539 11.8505 17.7996C12.2457 17.4207 12.8159 17.1295 13.498 16.8777L13.4991 16.8773C13.9026 16.7276 14.2189 16.4097 14.3708 16.0148C14.3843 15.9797 14.3951 15.9436 14.4032 15.9068C14.6843 14.6303 15.6649 13.5983 17.0379 13.7758L17.2465 13.8027C17.4466 13.8286 17.6487 13.7727 17.8071 13.6478C18.0642 13.445 18.2979 13.2998 18.5534 13.205C18.6284 13.1772 18.6986 13.1375 18.7611 13.0875L18.9472 12.9385C19.0535 12.8535 19.1346 12.7412 19.1819 12.6136C19.4839 11.799 20.2045 11.2501 21 11.2501C21.4142 11.2501 21.75 10.9143 21.75 10.5001L21.75 8.75H0.25ZM8.74999 16C8.74999 16.4142 8.4142 16.75 7.99999 16.75H4.99999C4.58577 16.75 4.24999 16.4142 4.24999 16C4.24999 15.5858 4.58577 15.25 4.99999 15.25H7.99999C8.4142 15.25 8.74999 15.5858 8.74999 16Z" fill="#353566"/>
<path d="M21.4635 7.25C21.4536 7.23019 21.4436 7.21014 21.4334 7.18979L21.4175 7.15793L19.223 2.7689C18.8742 2.07024 18.62 1.56113 18.229 1.17823C17.8849 0.84115 17.4701 0.584795 17.0147 0.427716C16.4973 0.249282 15.9283 0.249602 15.1474 0.250043H11.75V7.25H21.2333L21.4175 7.15793L21.4222 7.1675L21.4276 7.17904L21.2739 7.25H21.4635Z" fill="#353566"/>
<path d="M20.8731 13.0883C20.9167 12.9706 21.0833 12.9706 21.1269 13.0883L21.3211 13.6133C21.5038 14.107 21.893 14.4962 22.3867 14.6789L22.9117 14.8731C23.0294 14.9167 23.0294 15.0833 22.9117 15.1269L22.3867 15.3211C21.893 15.5038 21.5038 15.893 21.3211 16.3867L21.1269 16.9117C21.0833 17.0294 20.9167 17.0294 20.8731 16.9117L20.6789 16.3867C20.4962 15.893 20.107 15.5038 19.6133 15.3211L19.0883 15.1269C18.9705 15.0833 18.9705 14.9167 19.0883 14.8731L19.6133 14.6789C20.107 14.4962 20.4962 14.107 20.6789 13.6133L20.8731 13.0883Z" fill="#353566"/>
<path d="M15.8479 15.6281C16.1577 14.7906 17.3422 14.7906 17.6521 15.6281L17.9505 16.4345C18.2274 17.1827 18.8173 17.7726 19.5654 18.0495L20.3719 18.3479C21.2093 18.6578 21.2094 19.8422 20.3719 20.1521L19.5654 20.4505C18.8173 20.7274 18.2274 21.3173 17.9505 22.0655L17.6521 22.8719C17.3422 23.7094 16.1577 23.7094 15.8479 22.8719L15.5494 22.0655C15.2726 21.3173 14.6827 20.7274 13.9345 20.4505L13.1281 20.1521C12.2906 19.8422 12.2906 18.6578 13.1281 18.3479L13.9345 18.0495C14.6827 17.7726 15.2726 17.1827 15.5494 16.4345L15.8479 15.6281Z" fill="#353566"/>
</svg>
