<svg width="24" height="24" viewBox="0 0 24 24" fill="none" xmlns="http://www.w3.org/2000/svg">
<path fill-rule="evenodd" clip-rule="evenodd" d="M9.34467 2.02957C8.44514 1.05263 6.92672 0.982127 5.94053 1.87151L5.11493 2.61606C4.83133 2.87182 4.39673 2.85928 4.12834 2.5876C3.07185 1.51811 1.25 2.26622 1.25 3.76955V20.2407C1.25 21.7441 3.07191 22.4922 4.12838 21.4226C4.39676 21.1509 4.83137 21.1383 5.11497 21.3941L5.93019 22.1293C6.92235 23.0241 8.45273 22.9423 9.34387 21.9468L9.45082 21.8274C9.87718 21.3511 10.6228 21.3511 11.0492 21.8274L11.1561 21.9468C11.9861 22.8739 13.3694 23.0083 14.3577 22.3001C14.531 22.1759 14.6432 21.9839 14.6664 21.772C14.6896 21.5601 14.6215 21.3483 14.4791 21.1896C13.2326 19.8 12.25 18.0749 12.25 16.0021C12.25 12.8274 14.8234 10.2501 18.0001 10.2501C18.1493 10.2501 18.297 10.2557 18.4431 10.2668C18.6513 10.2827 18.8567 10.211 19.0098 10.0691C19.163 9.92713 19.25 9.72779 19.25 9.51899V3.76955C19.25 2.26623 17.4282 1.5181 16.3717 2.5876C16.1033 2.85928 15.6687 2.87182 15.3851 2.61606L14.5595 1.87151C13.5733 0.982127 12.0549 1.05263 11.1553 2.02958L11.0472 2.14707C10.6179 2.61322 9.88206 2.61322 9.45285 2.14706L9.34467 2.02957ZM8.25 7.75C7.83579 7.75 7.5 8.08579 7.5 8.5C7.5 8.91421 7.83579 9.25 8.25 9.25H12.25C12.6642 9.25 13 8.91421 13 8.5C13 8.08579 12.6642 7.75 12.25 7.75H8.25ZM6.25 11.25C5.83579 11.25 5.5 11.5858 5.5 12C5.5 12.4142 5.83579 12.75 6.25 12.75H12.3705C12.6932 12.1924 13.0962 11.6871 13.5639 11.25H6.25ZM11.5 16.002C11.5 15.5738 11.5414 15.1552 11.6205 14.75H7.25C6.83579 14.75 6.5 15.0858 6.5 15.5C6.5 15.9142 6.83579 16.25 7.25 16.25H11.5042C11.5014 16.1679 11.5 16.0852 11.5 16.002Z" fill="#353566"/>
<path fill-rule="evenodd" clip-rule="evenodd" d="M13.5 16.002C13.5 13.517 15.5144 11.5 18.0001 11.5C20.4854 11.5 22.5 13.5147 22.5 16C22.5 18.7667 20.3 20.9 18.3 22.4C18.1222 22.5333 17.8778 22.5333 17.7 22.4C15.7001 20.9001 13.5 18.7667 13.5 16.002ZM18 17.5001C18.8285 17.5001 19.5 16.8285 19.5 16.0001C19.5 15.1716 18.8285 14.5001 18 14.5001C17.1716 14.5001 16.5 15.1716 16.5 16.0001C16.5 16.8285 17.1716 17.5001 18 17.5001Z" fill="#353566"/>
</svg>
