<svg width="24" height="24" viewBox="0 0 24 24" fill="none" xmlns="http://www.w3.org/2000/svg">
<g clip-path="url(#clip0_9001_289430)">
<path d="M4.77745 0.25007H17.2226C17.9003 0.249467 18.4301 0.248997 18.897 0.4226C19.4285 0.620254 19.8859 0.977388 20.2066 1.44509C20.4882 1.85587 20.6162 2.36998 20.78 3.02766L21.4851 5.8481C21.661 6.55192 21.75 7.27466 21.75 8.00014C21.75 9.055 21.1575 10.0983 20.25 10.708V12.6529C20.25 13.0671 19.9142 13.4029 19.5 13.4029C19.0858 13.4029 18.75 13.0671 18.75 12.6529V11.24C18.6676 11.2467 18.5842 11.2501 18.5 11.2501C17.5606 11.2501 16.6246 10.8902 16 10.2663C15.3754 10.8902 14.4394 11.2501 13.5 11.2501C12.5606 11.2501 11.6246 10.8902 11 10.2663C10.3754 10.8902 9.43942 11.2501 8.5 11.2501C7.56058 11.2501 6.62455 10.8902 6 10.2663C5.37545 10.8902 4.43942 11.2501 3.5 11.2501C3.4158 11.2501 3.33243 11.2467 3.25 11.24V16.6001C3.25 17.3826 3.25058 17.9243 3.28498 18.3452C3.31865 18.7574 3.38097 18.9873 3.46799 19.1581C3.65973 19.5344 3.9657 19.8404 4.34202 20.0321C4.5128 20.1191 4.74269 20.1815 5.15488 20.2151C5.57582 20.2495 6.11755 20.2501 6.9 20.2501H7.75L7.75 15.6762C7.74998 15.4869 7.74995 15.3026 7.76271 15.1465C7.77672 14.975 7.80977 14.7727 7.91349 14.5692C8.0573 14.2869 8.28677 14.0575 8.56901 13.9136C8.77258 13.8099 8.97488 13.7769 9.14633 13.7629C9.30245 13.7501 9.48679 13.7501 9.67608 13.7502L12.343 13.7501C12.5727 13.75 12.8088 13.7499 13.0066 13.7806C13.2909 13.8248 13.5249 14.0277 13.6088 14.3029C13.6928 14.578 13.612 14.877 13.4007 15.0723C12.5866 15.8254 11.9056 16.8058 11.4387 17.9983C11.1871 18.641 11.1871 19.3593 11.4387 20.002C11.5289 20.2323 11.627 20.4546 11.7325 20.6689C11.8469 20.9013 11.8333 21.1764 11.6964 21.3964C11.5595 21.6164 11.3187 21.7502 11.0596 21.7502H8.5L8.49255 21.7501H6.86819C6.12511 21.7501 5.52196 21.7501 5.03273 21.7102C4.52778 21.6689 4.07851 21.5814 3.66103 21.3686C3.00247 21.0331 2.46703 20.4977 2.13148 19.8391C1.91876 19.4216 1.83121 18.9723 1.78996 18.4674C1.74999 17.9781 1.74999 17.375 1.75 16.6319L1.75 10.708C0.842492 10.0983 0.25 9.055 0.25 8.00014C0.25 7.27466 0.338974 6.55192 0.514929 5.8481L1.21996 3.02767C1.38376 2.36999 1.5118 1.85587 1.79345 1.44509C2.11411 0.977388 2.57152 0.620254 3.10303 0.422599C3.56985 0.248997 4.09967 0.249467 4.77745 0.25007Z" fill="#353566"/>
<path d="M18 17.5001C17.17 17.5001 16.5 18.1701 16.5 19.0001C16.5 19.8301 17.17 20.5001 18 20.5001C18.83 20.5001 19.5 19.8301 19.5 19.0001C19.5 18.1701 18.83 17.5001 18 17.5001Z" fill="#353566"/>
<path fill-rule="evenodd" clip-rule="evenodd" d="M23.3973 18.454C22.3768 15.8474 20.2068 14.5001 18 14.5001C15.7932 14.5001 13.6232 15.8474 12.6027 18.454C12.4658 18.8037 12.4658 19.1966 12.6027 19.5463C13.6232 22.1528 15.7932 23.5001 18 23.5001C20.2068 23.5001 22.3768 22.1528 23.3973 19.5463C23.5342 19.1966 23.5342 18.8037 23.3973 18.454ZM15.5 19.0001C15.5 17.6178 16.6177 16.5001 18 16.5001C19.3823 16.5001 20.5 17.6178 20.5 19.0001C20.5 20.3824 19.3823 21.5001 18 21.5001C16.6177 21.5001 15.5 20.3824 15.5 19.0001Z" fill="#353566"/>
</g>
<defs>
<clipPath id="clip0_9001_289430">
<rect width="24" height="24" fill="white"/>
</clipPath>
</defs>
</svg>
