<svg width="24" height="24" viewBox="0 0 24 24" fill="none" xmlns="http://www.w3.org/2000/svg">
<path d="M5.77745 0.25007H18.2226C18.9003 0.249467 19.4301 0.248997 19.897 0.4226C20.4285 0.620254 20.8859 0.977388 21.2066 1.44509C21.4882 1.85587 21.6162 2.36998 21.78 3.02766L22.4851 5.8481C22.661 6.55192 22.75 7.27466 22.75 8.00014C22.75 9.055 22.1575 10.0983 21.25 10.708V10.7131C21.25 11.1273 20.9142 11.4631 20.5 11.4631C20.2801 11.4631 20.0823 11.3684 19.9451 11.2177C19.7998 11.239 19.6513 11.2501 19.5 11.2501C18.5606 11.2501 17.6246 10.8902 17 10.2663C16.3754 10.8902 15.4394 11.2501 14.5 11.2501C13.5606 11.2501 12.6246 10.8902 12 10.2663C11.3754 10.8902 10.4394 11.2501 9.5 11.2501C8.56058 11.2501 7.62455 10.8902 7 10.2663C6.37545 10.8902 5.43942 11.2501 4.5 11.2501C4.4158 11.2501 4.33243 11.2467 4.25 11.24V16.6001C4.25 17.3826 4.25058 17.9243 4.28498 18.3452C4.31865 18.7574 4.38097 18.9873 4.46799 19.1581C4.65973 19.5344 4.9657 19.8404 5.34202 20.0321C5.5128 20.1191 5.74269 20.1815 6.15488 20.2151C6.57582 20.2495 7.11755 20.2501 7.9 20.2501H8.75L8.75 15.6762C8.74998 15.4869 8.74995 15.3026 8.76271 15.1465C8.77672 14.975 8.80977 14.7727 8.91349 14.5692C9.0573 14.2869 9.28677 14.0575 9.56901 13.9136C9.77258 13.8099 9.97488 13.7769 10.1463 13.7629C10.3024 13.7501 10.4868 13.7501 10.6761 13.7502H13.3239C13.5132 13.7501 13.6976 13.7501 13.8537 13.7629C14.0251 13.7769 14.2274 13.8099 14.431 13.9136C14.7132 14.0575 14.9427 14.2869 15.0865 14.5692C15.1902 14.7727 15.2233 14.975 15.2373 15.1465C15.25 15.3026 15.25 15.4869 15.25 15.6762L15.25 20.8765C15.2567 20.9167 15.2601 20.958 15.2601 21.0001C15.2601 21.4143 14.9243 21.7501 14.5101 21.7501H14.5075L14.5 21.7502H9.5L9.49255 21.7501H7.86819C7.12511 21.7501 6.52196 21.7501 6.03273 21.7102C5.52778 21.6689 5.07851 21.5814 4.66103 21.3686C4.00247 21.0331 3.46703 20.4977 3.13148 19.8391C2.91876 19.4216 2.83121 18.9723 2.78996 18.4674C2.74999 17.9781 2.74999 17.375 2.75 16.6319L2.75 10.708C1.84249 10.0983 1.25 9.055 1.25 8.00014C1.25 7.27466 1.33897 6.55192 1.51493 5.8481L2.21996 3.02767C2.38376 2.36999 2.5118 1.85587 2.79345 1.44509C3.11411 0.977388 3.57152 0.620254 4.10303 0.422599C4.56985 0.248997 5.09967 0.249467 5.77745 0.25007Z" fill="#353566"/>
<path d="M20.25 13.0001C20.25 12.5859 19.9143 12.2501 19.5 12.2501C19.0858 12.2501 18.75 12.5859 18.75 13.0001V13.5549C18.1846 13.6409 17.6689 13.8302 17.2476 14.1353C16.6235 14.5873 16.25 15.2672 16.25 16.0818C16.25 17.1333 16.8341 17.7918 17.5087 18.1695C18.1359 18.5205 18.8815 18.6574 19.3767 18.7399C19.8815 18.824 20.3859 18.9309 20.7587 19.1396C21.0841 19.3218 21.25 19.5391 21.25 19.9184C21.25 20.2323 21.1235 20.4684 20.8726 20.65C20.5993 20.848 20.1435 21.0001 19.5 21.0001C19.0594 21.0001 18.7858 20.9529 18.5266 20.8501C18.2498 20.7403 17.9411 20.5483 17.4528 20.1786C17.1226 19.9285 16.6522 19.9935 16.4021 20.3238C16.1521 20.654 16.2171 21.1244 16.5473 21.3744C17.059 21.7619 17.5003 22.0567 17.9735 22.2444C18.2316 22.3468 18.4857 22.4122 18.75 22.4512V23.0001C18.75 23.4143 19.0858 23.7501 19.5 23.7501C19.9143 23.7501 20.25 23.4143 20.25 23.0001V22.4453C20.8154 22.3593 21.3312 22.17 21.7525 21.8649C22.3766 21.4129 22.75 20.733 22.75 19.9184C22.75 18.8669 22.166 18.2084 21.4914 17.8308C20.8642 17.4797 20.1186 17.3428 19.6233 17.2603C19.1186 17.1762 18.6142 17.0693 18.2414 16.8606C17.916 16.6784 17.75 16.4611 17.75 16.0818C17.75 15.7679 17.8766 15.5319 18.1275 15.3502C18.4008 15.1522 18.8566 15.0001 19.5 15.0001C19.9407 15.0001 20.2143 15.0473 20.4735 15.1501C20.7503 15.2599 21.059 15.4518 21.5473 15.8216C21.8775 16.0716 22.3479 16.0066 22.598 15.6764C22.848 15.3462 22.783 14.8758 22.4528 14.6257C21.9411 14.2382 21.4998 13.9434 21.0266 13.7558C20.7685 13.6534 20.5143 13.588 20.25 13.549V13.0001Z" fill="#353566"/>
</svg>
