<svg width="24" height="24" viewBox="0 0 24 24" fill="none" xmlns="http://www.w3.org/2000/svg">
<path fill-rule="evenodd" clip-rule="evenodd" d="M7.75 2.25H6.56739C5.61495 2.24999 4.85439 2.24999 4.24013 2.30018C3.61012 2.35165 3.06824 2.45963 2.57054 2.71322C1.77085 3.12068 1.12068 3.77085 0.713223 4.57054C0.459634 5.06824 0.35165 5.61012 0.300176 6.24013C0.249989 6.85439 0.249994 7.61495 0.25 8.56739V8.76121C0.25 9.14934 0.546125 9.47335 0.932687 9.50818C1.95126 9.59997 2.75 10.4571 2.75 11.5C2.75 12.5429 1.95126 13.4 0.932687 13.4918C0.546124 13.5267 0.25 13.8507 0.25 14.2388V14.4326C0.249994 15.3851 0.249989 16.1456 0.300176 16.7599C0.35165 17.3899 0.459634 17.9318 0.713223 18.4295C1.12068 19.2291 1.77085 19.8793 2.57054 20.2868C3.06824 20.5404 3.61012 20.6483 4.24013 20.6998C4.85438 20.75 5.61496 20.75 6.56737 20.75H7.75V17C7.75 16.5858 8.08579 16.25 8.5 16.25C8.91421 16.25 9.25 16.5858 9.25 17V20.75H14.3449C14.6309 20.75 14.892 20.5874 15.0181 20.3307C15.1442 20.074 15.1134 19.768 14.9386 19.5416C13.9591 18.2732 13.25 16.7642 13.25 15.002C13.25 11.8274 15.8234 9.25 19.0001 9.25C19.7177 9.25 20.403 9.38111 21.0344 9.62003C21.2033 9.68392 21.3896 9.68475 21.559 9.62237C21.7194 9.5633 21.8897 9.52419 22.0673 9.50818C22.4539 9.47335 22.75 9.14934 22.75 8.76121V8.5673C22.75 7.6149 22.75 6.85438 22.6998 6.24013C22.6483 5.61012 22.5404 5.06824 22.2868 4.57054C21.8793 3.77085 21.2291 3.12068 20.4295 2.71322C19.9318 2.45963 19.3899 2.35165 18.7599 2.30018C18.1456 2.24999 17.3851 2.24999 16.4326 2.25H9.25V6C9.25 6.41421 8.91421 6.75 8.5 6.75C8.08579 6.75 7.75 6.41421 7.75 6V2.25ZM8.5 9.25C8.91421 9.25 9.25 9.58579 9.25 10V13C9.25 13.4142 8.91421 13.75 8.5 13.75C8.08579 13.75 7.75 13.4142 7.75 13V10C7.75 9.58579 8.08579 9.25 8.5 9.25Z" fill="#353566"/>
<path fill-rule="evenodd" clip-rule="evenodd" d="M14.5 15.002C14.5 12.517 16.5144 10.5 19.0001 10.5C21.4854 10.5 23.5 12.5147 23.5 15C23.5 17.7667 21.3 19.9 19.3 21.4C19.1222 21.5333 18.8778 21.5333 18.7 21.4C16.7001 19.9001 14.5 17.7667 14.5 15.002ZM19 16.5001C19.8285 16.5001 20.5 15.8285 20.5 15.0001C20.5 14.1716 19.8285 13.5001 19 13.5001C18.1716 13.5001 17.5 14.1716 17.5 15.0001C17.5 15.8285 18.1716 16.5001 19 16.5001Z" fill="#353566"/>
</svg>
