<svg width="24" height="24" viewBox="0 0 24 24" fill="none" xmlns="http://www.w3.org/2000/svg">
<g clip-path="url(#clip0_9001_289660)">
<path fill-rule="evenodd" clip-rule="evenodd" d="M10 0.25C7.46047 0.25 5.38641 2.24292 5.25646 4.75011L3.37103 4.75012C2.97568 4.75011 2.63463 4.7501 2.35371 4.77306C2.0572 4.79729 1.76229 4.85078 1.47851 4.99537C1.05515 5.21109 0.710948 5.55529 0.495235 5.97866C0.350641 6.26244 0.297155 6.55735 0.272929 6.85386C0.249977 7.13478 0.249988 7.47585 0.250001 7.87119V15.4328C0.249996 16.3852 0.249992 17.1458 0.300178 17.76C0.351652 18.39 0.459636 18.9319 0.713224 19.4296C1.12069 20.2293 1.77085 20.8795 2.57054 21.2869C3.06824 21.5405 3.61012 21.6485 4.24014 21.7C4.85438 21.7502 5.61497 21.7502 6.56737 21.7502H13.4C13.5514 21.7502 13.6975 21.7502 13.8382 21.75C14.1681 21.7496 14.459 21.5336 14.5549 21.218C14.6508 20.9023 14.5291 20.5611 14.2552 20.3772C13.2223 19.684 12.8761 18.1873 13.7491 17.0958L17.7452 12.0999C18.1338 11.6141 18.6218 11.3589 19.1191 11.2789C19.4827 11.2204 19.75 10.9066 19.75 10.5384V7.87099C19.75 7.47567 19.75 7.13463 19.7271 6.85373C19.7028 6.55722 19.6494 6.2623 19.5048 5.97851C19.289 5.55515 18.9448 5.21094 18.5215 4.99523C18.2377 4.85063 17.9428 4.79715 17.6463 4.77293C17.3653 4.74998 17.0242 4.74999 16.6289 4.75001L14.7435 4.75002C14.6135 2.24287 12.5395 0.25 10 0.25ZM13.2405 4.75004L6.75947 4.75009C6.88708 3.07194 8.28916 1.75 10 1.75C11.7108 1.75 13.1129 3.07191 13.2405 4.75004ZM5 9.5C5 8.94771 5.44772 8.5 6 8.5C6.55229 8.5 7.0001 8.94771 7.0001 9.5C7.0001 10.0523 6.55229 10.5 6 10.5C5.44772 10.5 5 10.0523 5 9.5ZM13 9.5C13 8.94771 13.4477 8.5 14 8.5C14.5523 8.5 15.0001 8.94771 15.0001 9.5C15.0001 10.0523 14.5523 10.5 14 10.5C13.4477 10.5 13 10.0523 13 9.5Z" fill="#353566"/>
<path d="M20.5009 13.5007C20.5009 12.555 19.3101 12.1386 18.72 12.8762L14.72 17.8756C14.196 18.5306 14.663 19.4998 15.501 19.4998H17.5009V22.4992C17.5009 23.4449 18.6917 23.8613 19.2818 23.1237L23.2818 18.1243C23.8058 17.4693 23.3388 16.5001 22.5009 16.5001H20.5009V13.5007Z" fill="#353566"/>
</g>
<defs>
<clipPath id="clip0_9001_289660">
<rect width="24" height="24" fill="white"/>
</clipPath>
</defs>
</svg>
