<svg width="24" height="24" viewBox="0 0 24 24" fill="none" xmlns="http://www.w3.org/2000/svg">
<g opacity="0.4">
<path d="M2 2C1.44772 2 1 2.44772 1 3C1 3.55228 1.44772 4 2 4H22C22.5523 4 23 3.55228 23 3C23 2.44772 22.5523 2 22 2H2Z" fill="#353566"/>
<path d="M2 14C1.44772 14 1 14.4477 1 15C1 15.5523 1.44772 16 2 16H22C22.5523 16 23 15.5523 23 15C23 14.4477 22.5523 14 22 14H2Z" fill="#353566"/>
</g>
<path d="M2 8C1.44772 8 1 8.44772 1 9C1 9.55228 1.44772 10 2 10H22C22.5523 10 23 9.55228 23 9C23 8.44772 22.5523 8 22 8H2Z" fill="#353566"/>
<path d="M12 20C11.4477 20 11 20.4477 11 21C11 21.5523 11.4477 22 12 22H22C22.5523 22 23 21.5523 23 21C23 20.4477 22.5523 20 22 20H12Z" fill="#353566"/>
</svg>
