<svg width="24" height="24" viewBox="0 0 24 24" fill="none" xmlns="http://www.w3.org/2000/svg">
<path opacity="0.4" d="M3.12132 1.25C1.53553 1.25 0.25 2.53553 0.25 4.12132C0.25 4.88284 0.552513 5.61317 1.09099 6.15165L7.53033 12.591C7.67098 12.7316 7.75 12.9224 7.75 13.1213V17.5194C7.75 18.051 7.99166 18.5538 8.40679 18.8859L13.0315 22.5857C13.2566 22.7658 13.565 22.8009 13.8249 22.676C14.0847 22.5511 14.25 22.2883 14.25 22V17.0117C14.25 16.8229 14.1788 16.6411 14.0507 16.5025C13.5529 15.9641 13.25 15.2852 13.25 14.4998C13.25 13.4871 13.771 12.6127 14.5359 12.039C14.8015 11.8398 15.0891 11.6882 15.4011 11.5681C15.4991 11.5305 15.588 11.4727 15.6622 11.3985L17.0308 10.0298C17.1715 9.88919 17.2505 9.69842 17.2505 9.49951V7.70893C17.2505 6.48665 18.0572 5.41104 19.2306 5.06881L21.1826 4.49947C21.546 4.39346 21.7735 4.03323 21.7129 3.65952C21.4916 2.29314 20.3077 1.25 18.8787 1.25H3.12132Z" fill="#353566"/>
<path d="M19.5005 10.1241L22.6009 9.21984C23.1343 9.06427 23.501 8.57534 23.501 8.01974V6.62542C23.501 5.87537 22.7809 5.33533 22.0609 5.54534L19.5806 6.26877C18.9405 6.45545 18.5005 7.04217 18.5005 7.70889V12.8954C18.049 12.6258 17.5167 12.4996 17.0003 12.4996C16.3995 12.4996 15.7773 12.6704 15.2859 13.039C14.7891 13.4116 14.5 13.9354 14.5 14.4998C14.5 15.0642 14.7891 15.588 15.2859 15.9606C15.7773 16.3291 16.3995 16.5 17.0003 16.5C17.601 16.5 18.2232 16.3291 18.7147 15.9606C19.2114 15.588 19.5005 15.0642 19.5005 14.4998C19.5005 14.4968 19.5005 14.4938 19.5005 14.4908V10.1241Z" fill="#353566"/>
</svg>
