<svg width="24" height="24" viewBox="0 0 24 24" fill="none" xmlns="http://www.w3.org/2000/svg">
<path opacity="0.4" d="M3.12132 1.25C1.53553 1.25 0.25 2.53553 0.25 4.12132C0.25 4.88284 0.552513 5.61317 1.09099 6.15165L7.53033 12.591C7.67098 12.7316 7.75 12.9224 7.75 13.1213V17.5194C7.75 18.051 7.99166 18.5538 8.40679 18.8859L13.0315 22.5857C13.2566 22.7658 13.565 22.8009 13.8249 22.676C14.0847 22.5511 14.25 22.2883 14.25 22V16.9867C14.25 16.7511 14.1392 16.5291 13.9509 16.3874C12.8924 15.591 12.0069 14.4531 11.4387 13.0019C11.1871 12.3592 11.1871 11.6408 11.4387 10.9981C12.6383 7.93436 15.2557 6.25 18 6.25C18.6676 6.25 19.3251 6.34934 19.9551 6.54234C20.2204 6.62361 20.5089 6.55176 20.7051 6.35556L20.909 6.15165C21.4475 5.61317 21.75 4.88284 21.75 4.12132C21.75 2.53553 20.4645 1.25 18.8787 1.25H3.12132Z" fill="#353566"/>
<path d="M16.5 12C16.5 11.17 17.17 10.5 18 10.5C18.83 10.5 19.5 11.17 19.5 12C19.5 12.83 18.83 13.5 18 13.5C17.17 13.5 16.5 12.83 16.5 12Z" fill="#353566"/>
<path fill-rule="evenodd" clip-rule="evenodd" d="M18 7.5C20.2068 7.5 22.3768 8.84732 23.3973 11.4539C23.5342 11.8036 23.5342 12.1964 23.3973 12.5461C22.3768 15.1527 20.2068 16.5 18 16.5C15.7932 16.5 13.6232 15.1527 12.6027 12.5461C12.4658 12.1964 12.4658 11.8036 12.6027 11.4539C13.6232 8.84733 15.7932 7.5 18 7.5ZM18 9.5C16.6177 9.5 15.5 10.6177 15.5 12C15.5 13.3823 16.6177 14.5 18 14.5C19.3823 14.5 20.5 13.3823 20.5 12C20.5 10.6177 19.3823 9.5 18 9.5Z" fill="#353566"/>
</svg>
