<svg width="24" height="24" viewBox="0 0 24 24" fill="none" xmlns="http://www.w3.org/2000/svg">
<path opacity="0.4" d="M3.12132 1.25C1.53553 1.25 0.25 2.53553 0.25 4.12132C0.25 4.88284 0.552513 5.61317 1.09099 6.15165L7.53033 12.591C7.67098 12.7316 7.75 12.9224 7.75 13.1213V17.5194C7.75 18.051 7.99166 18.5538 8.40679 18.8859L13.0315 22.5857C13.2566 22.7658 13.565 22.8009 13.8249 22.676C14.0847 22.5511 14.25 22.2883 14.25 22V16.0415C14.25 15.7711 14.1044 15.5215 13.8689 15.3885C13.5755 15.2228 13.3279 14.9934 13.1357 14.6609L12.514 13.5856C12.1197 12.9037 12.192 12.1739 12.5675 11.2944C12.6478 11.1063 12.6478 10.8936 12.5675 10.7054C12.192 9.82597 12.1197 9.09621 12.514 8.41428L13.1357 7.33898C13.5303 6.6565 14.201 6.35257 15.1537 6.23605C15.3558 6.21133 15.5392 6.10551 15.6617 5.94289C16.2375 5.17861 16.8358 4.75 17.6283 4.75H18.8717C19.458 4.75 19.9242 4.98125 20.3545 5.391C20.5377 5.56544 20.7965 5.63577 21.0428 5.57806C21.2891 5.52035 21.4897 5.34237 21.5764 5.10471C21.6902 4.79252 21.75 4.45998 21.75 4.12132C21.75 2.53553 20.4645 1.25 18.8787 1.25H3.12132Z" fill="#353566"/>
<path fill-rule="evenodd" clip-rule="evenodd" d="M13.4012 13.0872C13.09 12.5473 13.2745 11.8569 13.8138 11.5449C14.2325 11.3028 14.2325 10.6971 13.8138 10.455C13.2745 10.143 13.09 9.45254 13.4012 8.91272L14.0209 7.83742C14.3321 7.29734 15.0219 7.11198 15.5615 7.42406C15.9792 7.66566 16.5027 7.36411 16.5027 6.87913C16.5027 6.25595 17.0071 5.75 17.6303 5.75H18.8698C19.4929 5.75 19.9974 6.25596 19.9974 6.87915C19.9974 7.36415 20.5209 7.66571 20.9386 7.4241C21.4782 7.11202 22.1679 7.2974 22.4792 7.83747L23.0989 8.91281C23.41 9.45261 23.2256 10.1431 22.6863 10.455C22.2677 10.6971 22.2677 11.3028 22.6863 11.5449C23.2256 11.8568 23.41 12.5473 23.0989 13.0871L22.4792 14.1624C22.1679 14.7025 21.4782 14.8879 20.9386 14.5758C20.5209 14.3342 19.9974 14.6357 19.9974 15.1208C19.9974 15.744 19.4929 16.25 18.8697 16.25H17.6303C17.0071 16.25 16.5027 15.744 16.5027 15.1208C16.5027 14.6358 15.9792 14.3342 15.5615 14.5758C15.0219 14.8879 14.3321 14.7025 14.0209 14.1625L13.4012 13.0872ZM18.25 12.5C19.0784 12.5 19.75 11.8284 19.75 11C19.75 10.1716 19.0784 9.5 18.25 9.5C17.4216 9.5 16.75 10.1716 16.75 11C16.75 11.8284 17.4216 12.5 18.25 12.5Z" fill="#353566"/>
</svg>
