<svg width="24" height="24" viewBox="0 0 24 24" fill="none" xmlns="http://www.w3.org/2000/svg">
<g opacity="0.4">
<path d="M9 5.99988C9.55229 5.99988 10 6.44759 10 6.99988C10 7.55216 9.55229 7.99988 9 7.99988H7C4.79086 7.99988 3 9.79074 3 11.9999C3 14.209 4.79086 15.9999 7 15.9999H9C9.55229 15.9999 10 16.4476 10 16.9999C10 17.5522 9.55229 17.9999 9 17.9999H7C3.68629 17.9999 1 15.3136 1 11.9999C1 8.68617 3.68629 5.99988 7 5.99988H9Z" fill="#353566"/>
<path d="M15 5.99988C14.4477 5.99988 14 6.44759 14 6.99988C14 7.55216 14.4477 7.99988 15 7.99988H17C19.2091 7.99988 21 9.79074 21 11.9999C21 14.209 19.2091 15.9999 17 15.9999H15C14.4477 15.9999 14 16.4476 14 16.9999C14 17.5522 14.4477 17.9999 15 17.9999H17C20.3137 17.9999 23 15.3136 23 11.9999C23 8.68617 20.3137 5.99988 17 5.99988H15Z" fill="#353566"/>
</g>
<path d="M9.20711 2.29289C8.81658 1.90237 8.18342 1.90237 7.79289 2.29289C7.40237 2.68342 7.40237 3.31658 7.79289 3.70711L9.29289 5.20711C9.68342 5.59763 10.3166 5.59763 10.7071 5.20711C11.0976 4.81658 11.0976 4.18342 10.7071 3.79289L9.20711 2.29289Z" fill="#353566"/>
<path d="M16.2071 3.70711C16.5976 3.31658 16.5976 2.68342 16.2071 2.29289C15.8166 1.90237 15.1834 1.90237 14.7929 2.29289L13.2929 3.79289C12.9024 4.18342 12.9024 4.81658 13.2929 5.20711C13.6834 5.59763 14.3166 5.59763 14.7071 5.20711L16.2071 3.70711Z" fill="#353566"/>
<path d="M7.79289 21.707C7.40237 21.3165 7.40237 20.6834 7.79289 20.2928L9.29289 18.7928C9.68342 18.4023 10.3166 18.4023 10.7071 18.7928C11.0976 19.1834 11.0976 19.8165 10.7071 20.207L9.20711 21.707C8.81658 22.0976 8.18342 22.0976 7.79289 21.707Z" fill="#353566"/>
<path d="M14.7929 21.707C15.1834 22.0976 15.8166 22.0976 16.2071 21.707C16.5976 21.3165 16.5976 20.6834 16.2071 20.2928L14.7071 18.7928C14.3166 18.4023 13.6834 18.4023 13.2929 18.7928C12.9024 19.1834 12.9024 19.8165 13.2929 20.207L14.7929 21.707Z" fill="#353566"/>
</svg>
