<svg width="24" height="24" viewBox="0 0 24 24" fill="none" xmlns="http://www.w3.org/2000/svg">
<g opacity="0.4">
<path d="M20.5 1C20.9044 1 21.2691 1.24364 21.4239 1.61732C21.5786 1.99099 21.4931 2.42111 21.2071 2.70711L15.9142 8H20.5C21.0523 8 21.5 8.44772 21.5 9C21.5 9.55228 21.0523 10 20.5 10H13.5C13.0955 10 12.7309 9.75636 12.5761 9.38268C12.4213 9.00901 12.5069 8.57889 12.7929 8.29289L18.0858 3H13.5C12.9477 3 12.5 2.55228 12.5 2C12.5 1.44772 12.9477 1 13.5 1H20.5Z" fill="#353566"/>
<path fill-rule="evenodd" clip-rule="evenodd" d="M17.9138 12.5939C17.7533 12.2327 17.3952 12 17 12C16.6048 12 16.2467 12.2327 16.0862 12.5939L12.0862 21.5939C11.8619 22.0985 12.0892 22.6895 12.5939 22.9138C13.0986 23.1381 13.6895 22.9108 13.9138 22.4061L14.9499 20.075H19.0501L20.0862 22.4061C20.3105 22.9108 20.9015 23.1381 21.4061 22.9138C21.9108 22.6895 22.1381 22.0985 21.9138 21.5939L17.9138 12.5939ZM17 15.4622L18.1612 18.075H15.8388L17 15.4622Z" fill="#353566"/>
</g>
<path d="M7.5 2C7.5 1.44772 7.05229 1 6.5 1C5.94772 1 5.5 1.44772 5.5 2V19.5858L3.70711 17.7929C3.31658 17.4024 2.68342 17.4024 2.29289 17.7929C1.90237 18.1834 1.90237 18.8166 2.29289 19.2071L5.79289 22.7071C6.18342 23.0976 6.81658 23.0976 7.20711 22.7071L10.7071 19.2071C11.0976 18.8166 11.0976 18.1834 10.7071 17.7929C10.3166 17.4024 9.68342 17.4024 9.29289 17.7929L7.5 19.5858V2Z" fill="#353566"/>
</svg>
