<svg width="24" height="24" viewBox="0 0 24 24" fill="none" xmlns="http://www.w3.org/2000/svg">
<path fill-rule="evenodd" clip-rule="evenodd" d="M17.695 9.791C17.688 9.80725 17.6774 9.82114 17.6667 9.83502C17.659 9.84506 17.6513 9.85509 17.645 9.866L17.6303 9.89179C17.6026 9.94043 17.5751 9.98892 17.536 10.028C17.5206 10.0434 17.5021 10.0546 17.4833 10.0659C17.4703 10.0737 17.4572 10.0816 17.445 10.091C17.4345 10.0988 17.4242 10.1069 17.4138 10.1149C17.3778 10.143 17.3417 10.1711 17.299 10.189C17.2761 10.1989 17.251 10.2027 17.2257 10.2065C17.21 10.2088 17.1943 10.2112 17.179 10.215C17.1628 10.2189 17.1469 10.2236 17.1309 10.2283C17.0938 10.2393 17.0566 10.2503 17.016 10.251C15.3064 10.2827 13.764 11.0339 12.705 12.2434C12.6002 11.9556 12.3241 11.75 12 11.75H11C10.5858 11.75 10.25 12.0858 10.25 12.5C10.25 12.9142 10.5858 13.25 11 13.25H11.9964C11.7148 13.7561 11.5043 14.3117 11.379 14.905C11.306 15.252 11 15.5 10.645 15.5H7.252C6.701 15.5 6.252 15.949 6.252 16.5V21.25H11.752V20.868C11.752 20.566 11.933 20.294 12.211 20.177C12.489 20.06 12.81 20.121 13.026 20.332C13.429 20.725 13.885 21.058 14.384 21.322C14.4096 21.3358 14.4309 21.354 14.4522 21.3722C14.4617 21.3802 14.4712 21.3883 14.481 21.396C14.4887 21.4018 14.4965 21.4073 14.5043 21.4127C14.5207 21.4242 14.5368 21.4354 14.551 21.449C14.613 21.509 14.665 21.577 14.702 21.653L14.7034 21.6551L14.7054 21.6579C14.7071 21.66 14.7089 21.6622 14.71 21.665C14.749 21.748 14.77 21.839 14.776 21.932C14.776 21.936 14.7773 21.9395 14.7785 21.943C14.7797 21.9465 14.781 21.95 14.781 21.954C14.781 21.9661 14.7785 21.9771 14.776 21.9882C14.7737 21.9981 14.7715 22.0081 14.771 22.019C14.7704 22.0322 14.7703 22.0453 14.7703 22.0584C14.7701 22.0889 14.77 22.1192 14.763 22.15C14.7608 22.1606 14.756 22.1703 14.7512 22.1801C14.7475 22.1878 14.7436 22.1956 14.741 22.204C14.73 22.238 14.717 22.269 14.701 22.301C14.677 22.352 14.648 22.399 14.613 22.443C14.592 22.47 14.572 22.495 14.547 22.519C14.504 22.561 14.456 22.593 14.404 22.624C14.3949 22.6292 14.3863 22.6348 14.3776 22.6404C14.3614 22.6508 14.3452 22.6612 14.327 22.669C14.244 22.705 14.155 22.73 14.06 22.734C13.662 22.75 13.185 22.75 12.6 22.75H5.4C3.742 22.75 2.91 22.75 2.161 22.369C1.498 22.031 0.97 21.502 0.632 20.84C0.25 20.091 0.25 19.258 0.25 17.6V6.4C0.25 4.742 0.25 3.91 0.631 3.161C0.969 2.497 1.498 1.969 2.161 1.631C2.91 1.25 3.742 1.25 5.4 1.25H12.6C14.258 1.25 15.09 1.25 15.838 1.631C16.502 1.969 17.03 2.498 17.368 3.161C17.749 3.91 17.749 4.742 17.749 6.4V9.501C17.749 9.604 17.728 9.702 17.69 9.791H17.695ZM12.75 6.5C12.75 6.91421 12.4142 7.25 12 7.25H11C10.5858 7.25 10.25 6.91421 10.25 6.5C10.25 6.08579 10.5858 5.75 11 5.75H12C12.4142 5.75 12.75 6.08579 12.75 6.5ZM12 10.25C12.4142 10.25 12.75 9.91421 12.75 9.5C12.75 9.08579 12.4142 8.75 12 8.75H11C10.5858 8.75 10.25 9.08579 10.25 9.5C10.25 9.91421 10.5858 10.25 11 10.25H12ZM7 10.25C7.41421 10.25 7.75 9.91421 7.75 9.5C7.75 9.08579 7.41421 8.75 7 8.75H6C5.58579 8.75 5.25 9.08579 5.25 9.5C5.25 9.91421 5.58579 10.25 6 10.25H7ZM7.75 6.5C7.75 6.91421 7.41421 7.25 7 7.25H6C5.58579 7.25 5.25 6.91421 5.25 6.5C5.25 6.08579 5.58579 5.75 6 5.75H7C7.41421 5.75 7.75 6.08579 7.75 6.5ZM7 13.25C7.41421 13.25 7.75 12.9142 7.75 12.5C7.75 12.0858 7.41421 11.75 7 11.75H6C5.58579 11.75 5.25 12.0858 5.25 12.5C5.25 12.9142 5.58579 13.25 6 13.25H7Z" fill="#353566"/>
<path fill-rule="evenodd" clip-rule="evenodd" d="M12.25 16.125C12.25 13.4326 14.4326 11.25 17.125 11.25C19.8174 11.25 22 13.4326 22 16.125C22 17.2006 21.6517 18.1948 21.0617 19.001L23.5303 21.4697C23.8232 21.7626 23.8232 22.2374 23.5303 22.5303C23.2374 22.8232 22.7625 22.8232 22.4696 22.5303L20.001 20.0617C19.1948 20.6517 18.2006 21 17.125 21C14.4326 21 12.25 18.8174 12.25 16.125ZM17.125 12.75C15.261 12.75 13.75 14.261 13.75 16.125C13.75 17.989 15.261 19.5 17.125 19.5C18.989 19.5 20.5 17.989 20.5 16.125C20.5 14.261 18.989 12.75 17.125 12.75Z" fill="#353566"/>
</svg>
