<svg width="24" height="24" viewBox="0 0 24 24" fill="none" xmlns="http://www.w3.org/2000/svg">
<path fill-rule="evenodd" clip-rule="evenodd" d="M16.2114 12.0849C15.8858 12.1902 15.5944 12.3899 15.3773 12.6644C14.4197 13.8754 13.25 15.7637 13.25 18C13.25 19.2783 13.6227 20.5191 14.3694 21.5282C14.4471 21.6292 14.5001 21.7513 14.518 21.8861C14.5196 21.898 14.5209 21.9099 14.5219 21.9218C14.5367 22.0961 14.4905 22.2621 14.4006 22.3982C14.2847 22.5737 14.0962 22.6993 13.8726 22.7287L13.856 22.7307C13.7388 22.7435 13.6201 22.7501 13.5 22.7501H3.5C1.70508 22.7501 0.25 21.295 0.25 19.5001V7.80652C0.25 6.40476 1.14876 5.16094 2.47965 4.72085L12.4796 1.4141C14.5827 0.718681 16.75 2.28474 16.75 4.49978V11.3651C16.75 11.5567 16.6781 11.7315 16.5599 11.8641C16.5242 11.9042 16.4841 11.9405 16.4402 11.9724C16.3717 12.0221 16.2946 12.0605 16.2114 12.0849ZM11.25 16.4999V21.2499H5.75V16.4999C5.75 15.9476 6.19772 15.4999 6.75 15.4999H10.25C10.8023 15.4999 11.25 15.9476 11.25 16.4999ZM6.5 10.25C6.91421 10.25 7.25 9.91421 7.25 9.5C7.25 9.08579 6.91421 8.75 6.5 8.75H5.5C5.08579 8.75 4.75 9.08579 4.75 9.5C4.75 9.91421 5.08579 10.25 5.5 10.25H6.5ZM12.25 9.5C12.25 9.91421 11.9142 10.25 11.5 10.25H10.5C10.0858 10.25 9.75 9.91421 9.75 9.5C9.75 9.08579 10.0858 8.75 10.5 8.75H11.5C11.9142 8.75 12.25 9.08579 12.25 9.5ZM11.5 13.25C11.9142 13.25 12.25 12.9142 12.25 12.5C12.25 12.0858 11.9142 11.75 11.5 11.75H10.5C10.0858 11.75 9.75 12.0858 9.75 12.5C9.75 12.9142 10.0858 13.25 10.5 13.25H11.5ZM7.25 12.5C7.25 12.9142 6.91421 13.25 6.5 13.25H5.5C5.08579 13.25 4.75 12.9142 4.75 12.5C4.75 12.0858 5.08579 11.75 5.5 11.75H6.5C6.91421 11.75 7.25 12.0858 7.25 12.5Z" fill="#353566"/>
<path fill-rule="evenodd" clip-rule="evenodd" d="M19.54 11.5932C19.426 11.5122 19.284 11.4822 19.148 11.5102C19.011 11.5382 18.893 11.6232 18.821 11.7422L17.664 13.6702L17.6252 13.6355C17.5486 13.5665 17.4716 13.4972 17.374 13.4382C17.213 13.3412 16.998 13.2502 16.75 13.2502C16.597 13.2502 16.453 13.3202 16.358 13.4402C15.459 14.5772 14.5 16.1882 14.5 18.0002C14.5 19.2182 14.914 20.3462 15.7 21.1732C16.489 22.0042 17.624 22.5002 19 22.5002C20.376 22.5002 21.511 22.0042 22.3 21.1732C23.086 20.3462 23.5 19.2182 23.5 18.0002C23.499 14.9942 21.318 12.8632 19.54 11.5932ZM18.06 21.1312C17.747 20.8822 17.499 20.5052 17.499 19.9422C17.499 19.4082 17.88 18.7952 18.369 18.2562C18.596 18.0052 18.824 17.7962 18.999 17.6452C19.174 17.7962 19.401 18.0052 19.629 18.2562C20.118 18.7962 20.499 19.4082 20.499 19.9422C20.499 20.5052 20.252 20.8822 19.938 21.1312C19.606 21.3952 19.214 21.5012 18.999 21.5012C18.784 21.5012 18.392 21.3952 18.06 21.1312Z" fill="#353566"/>
</svg>
