<svg width="24" height="24" viewBox="0 0 24 24" fill="none" xmlns="http://www.w3.org/2000/svg">
<path d="M11.0737 1.36298C11.6815 1.20803 12.3185 1.20803 12.9264 1.36298C13.6171 1.53907 14.2313 1.98173 15.1216 2.62337L19.8719 6.04366C20.7563 6.68009 21.3258 7.08997 21.7445 7.62645C22.1145 8.10056 22.3912 8.64062 22.5597 9.21794C22.7504 9.87122 22.7503 10.5729 22.75 11.6624L22.75 16.4327C22.75 17.3851 22.75 18.1456 22.6999 18.7599C22.6484 19.3899 22.5404 19.9318 22.2868 20.4295C21.8793 21.2292 21.2292 21.8793 20.4295 22.2868C19.9318 22.5404 19.3899 22.6484 18.7599 22.6999C18.1457 22.75 17.3851 22.75 16.4327 22.75H12.175C11.9175 22.75 11.7888 22.75 11.7209 22.6969C11.6618 22.6506 11.6266 22.5802 11.6251 22.5052C11.6233 22.419 11.7005 22.316 11.855 22.11L14.6 18.45C14.726 18.282 14.7758 18.0689 14.7373 17.8625C14.6988 17.6561 14.5756 17.4753 14.3975 17.364L11.074 15.2868L13.1103 12.4359C13.3511 12.0989 13.273 11.6305 12.936 11.3897C12.5989 11.1489 12.1305 11.227 11.8897 11.5641L9.38974 15.0641C9.26946 15.2325 9.22411 15.4431 9.2644 15.646C9.3047 15.849 9.42706 16.0263 9.60254 16.136L12.9101 18.2032L9.62002 22.59C9.57602 22.6487 9.55402 22.678 9.52614 22.6992C9.50145 22.7179 9.47348 22.7319 9.44368 22.7404C9.41002 22.75 9.37336 22.75 9.30002 22.75H7.56734C6.61493 22.75 5.85441 22.75 5.24016 22.6999C4.61015 22.6484 4.06827 22.5404 3.57057 22.2868C2.77088 21.8793 2.12072 21.2292 1.71325 20.4295C1.45966 19.9318 1.35168 19.3899 1.30021 18.7599C1.25002 18.1456 1.25003 17.3851 1.25003 16.4326L1.25002 11.6624C1.24979 10.5729 1.24964 9.87122 1.44035 9.21794C1.60888 8.64062 1.88552 8.10056 2.25556 7.62645C2.67428 7.08997 3.24381 6.68009 4.12813 6.04366L8.87845 2.62338C9.76874 1.98173 10.3829 1.53907 11.0737 1.36298Z" fill="#353566"/>
</svg>
