<svg width="24" height="24" viewBox="0 0 24 24" fill="none" xmlns="http://www.w3.org/2000/svg">
<g clip-path="url(#clip0_9001_268650)">
<path d="M9.54678 0.787134C10.3856 0.0774662 11.6144 0.0774655 12.4532 0.787134L19.2344 6.52402L19.24 6.52879L21.4844 8.42758C21.8006 8.69511 21.8401 9.16834 21.5726 9.48457C21.3051 9.8008 20.8318 9.84028 20.5156 9.57275L19.5 8.71355V10.0348C19.5 10.449 19.1642 10.7848 18.75 10.7848C18.7222 10.7848 18.6947 10.7832 18.6677 10.7803C18.448 10.7603 18.2253 10.75 18 10.75C16.0409 10.75 14.2647 11.526 12.9593 12.7891C12.8194 12.9244 12.6324 13.0001 12.4378 13.0001H9C8.44771 13.0001 8 13.4478 8 14.0001V20.2499H10.5815C10.9957 20.2499 11.3315 20.5857 11.3315 20.9999C11.3315 21.4141 10.9957 21.7499 10.5815 21.7499H6.00002C4.65644 21.7499 3.48971 20.9928 2.90308 19.882C2.69846 19.4946 2.56442 19.0641 2.51807 18.6077C2.50612 18.49 2.5 18.3707 2.5 18.2498V8.71357L1.48442 9.57275C1.16819 9.84028 0.694962 9.8008 0.427433 9.48457C0.159903 9.16834 0.199382 8.69511 0.515611 8.42758L2.75863 6.52999L2.76559 6.52402L9.54678 0.787134Z" fill="#353566"/>
<path fill-rule="evenodd" clip-rule="evenodd" d="M18 12.2501C14.8244 12.2501 12.25 14.8244 12.25 18.0001C12.25 21.1757 14.8244 23.7501 18 23.7501C21.1756 23.7501 23.75 21.1757 23.75 18.0001C23.75 14.8244 21.1756 12.2501 18 12.2501ZM20.625 18.0001C20.625 18.3452 20.3452 18.6251 20 18.6251H16C15.6548 18.6251 15.375 18.3452 15.375 18.0001C15.375 17.6549 15.6548 17.3751 16 17.3751H20C20.3452 17.3751 20.625 17.6549 20.625 18.0001Z" fill="#353566"/>
</g>
<defs>
<clipPath id="clip0_9001_268650">
<rect width="24" height="24" fill="white"/>
</clipPath>
</defs>
</svg>
