<svg width="24" height="24" viewBox="0 0 24 24" fill="none" xmlns="http://www.w3.org/2000/svg">
<g clip-path="url(#clip0_9001_303983)">
<path d="M3.8 1.75C4.11578 1.75 4.41291 1.82088 4.67818 1.9469C5.05232 2.12463 5.49971 1.96541 5.67745 1.59127C5.85518 1.21713 5.69596 0.769743 5.32182 0.592007C4.85969 0.372471 4.3431 0.25 3.8 0.25C1.83939 0.25 0.25 1.83939 0.25 3.8C0.25 4.3431 0.37247 4.85968 0.592007 5.32182C0.769742 5.69596 1.21713 5.85518 1.59127 5.67745C1.96541 5.49971 2.12463 5.05232 1.9469 4.67818C1.82088 4.41291 1.75 4.11578 1.75 3.8C1.75 2.66782 2.66782 1.75 3.8 1.75Z" fill="#353566"/>
<path d="M17.3218 1.9469C17.5871 1.82088 17.8842 1.75 18.2 1.75C19.3322 1.75 20.25 2.66782 20.25 3.8C20.25 4.11578 20.1791 4.41291 20.0531 4.67818C19.8754 5.05232 20.0346 5.49971 20.4087 5.67745C20.7829 5.85518 21.2302 5.69596 21.408 5.32182C21.6275 4.85968 21.75 4.3431 21.75 3.8C21.75 1.83939 20.1606 0.25 18.2 0.25C17.6569 0.25 17.1403 0.372471 16.6782 0.592007C16.304 0.769743 16.1448 1.21713 16.3225 1.59127C16.5003 1.96541 16.9477 2.12463 17.3218 1.9469Z" fill="#353566"/>
<path d="M10.9999 3.25C6.44358 3.25 2.74993 6.94365 2.74993 11.5C2.74993 16.0563 6.44358 19.75 10.9999 19.75C11.3406 19.75 11.676 19.7294 12.0053 19.6894C12.4165 19.6395 12.7903 19.9324 12.8402 20.3436C12.8901 20.7548 12.5972 21.1286 12.186 21.1785C11.7969 21.2257 11.4011 21.25 10.9999 21.25C8.70514 21.25 6.59552 20.4572 4.93001 19.1306L2.53026 21.5303C2.23737 21.8232 1.76249 21.8232 1.4696 21.5303C1.17671 21.2374 1.17671 20.7626 1.4696 20.4697L3.83098 18.1083C2.22868 16.3709 1.24993 14.0498 1.24993 11.5C1.24993 6.11522 5.61515 1.75 10.9999 1.75C16.3847 1.75 20.7499 6.11522 20.7499 11.5C20.7499 11.7831 20.7378 12.0636 20.7141 12.3409C20.6788 12.7536 20.3157 13.0596 19.903 13.0243C19.4902 12.989 19.1843 12.6258 19.2196 12.2131C19.2397 11.9782 19.2499 11.7404 19.2499 11.5C19.2499 6.94365 15.5563 3.25 10.9999 3.25Z" fill="#353566"/>
<path d="M11.7499 6.5C11.7499 6.08579 11.4141 5.75 10.9999 5.75C10.5857 5.75 10.2499 6.08579 10.2499 6.5V11.5C10.2499 11.9142 10.5857 12.25 10.9999 12.25C11.4141 12.25 11.7499 11.9142 11.7499 11.5V6.5Z" fill="#353566"/>
<path d="M22.9999 19.25C23.4141 19.25 23.7499 18.9142 23.7499 18.5V17.5C23.7499 16.2574 22.7426 15.25 21.4999 15.25H17.3105L18.0302 14.5303C18.3231 14.2374 18.3231 13.7626 18.0302 13.4697C17.7373 13.1768 17.2624 13.1768 16.9695 13.4697L14.9695 15.4697C14.755 15.6842 14.6909 16.0068 14.807 16.287C14.923 16.5673 15.1965 16.75 15.4999 16.75H21.4999C21.9141 16.75 22.2499 17.0858 22.2499 17.5V18.5C22.2499 18.9142 22.5857 19.25 22.9999 19.25Z" fill="#353566"/>
<path d="M14.2499 18.5C14.2499 18.0858 14.5857 17.75 14.9999 17.75C15.4141 17.75 15.7499 18.0858 15.7499 18.5V19.5C15.7499 19.9142 16.0857 20.25 16.4999 20.25H22.4999C22.8033 20.25 23.0768 20.4327 23.1928 20.713C23.3089 20.9933 23.2448 21.3158 23.0303 21.5303L21.0302 23.5303C20.7373 23.8232 20.2624 23.8232 19.9695 23.5303C19.6766 23.2374 19.6767 22.7626 19.9695 22.4697L20.6892 21.75H16.4999C15.2573 21.75 14.2499 20.7426 14.2499 19.5V18.5Z" fill="#353566"/>
</g>
<defs>
<clipPath id="clip0_9001_303983">
<rect width="24" height="24" fill="white"/>
</clipPath>
</defs>
</svg>
