<svg width="24" height="24" viewBox="0 0 24 24" fill="none" xmlns="http://www.w3.org/2000/svg">
<g clip-path="url(#clip0_9001_305294)">
<path d="M16.3975 10.1361C16.7488 9.91657 16.8555 9.45385 16.636 9.1026C16.4165 8.75135 15.9538 8.64457 15.6025 8.8641L11.6025 11.3641C11.3832 11.5012 11.25 11.7415 11.25 12.0001V18.0001C11.25 18.4143 11.5858 18.7501 12 18.7501C12.4142 18.7501 12.75 18.4143 12.75 18.0001V12.4158L16.3975 10.1361Z" fill="#353566"/>
<path fill-rule="evenodd" clip-rule="evenodd" d="M12 0.25C5.51065 0.25 0.25 5.51065 0.25 12C0.25 18.4893 5.51065 23.75 12 23.75C18.4893 23.75 23.75 18.4893 23.75 12C23.75 5.51065 18.4893 0.25 12 0.25ZM1.75 12C1.75 6.33908 6.33908 1.75 12 1.75C17.6609 1.75 22.25 6.33908 22.25 12C22.25 17.6609 17.6609 22.25 12 22.25C6.33908 22.25 1.75 17.6609 1.75 12Z" fill="#353566"/>
</g>
<defs>
<clipPath id="clip0_9001_305294">
<rect width="24" height="24" fill="white"/>
</clipPath>
</defs>
</svg>
