<svg width="24" height="24" viewBox="0 0 24 24" fill="none" xmlns="http://www.w3.org/2000/svg">
<path fill-rule="evenodd" clip-rule="evenodd" d="M3.18544 2.75C3.07063 4.17673 3.02558 5.1022 3.19848 5.9719C3.45619 7.26813 4.0633 8.46926 4.9542 9.44545C5.64203 10.1991 6.56047 10.7642 8.12217 11.7251L8.56896 12L8.12219 12.2749C6.5605 13.2358 5.64206 13.8009 4.95423 14.5546C4.06333 15.5307 3.45622 16.7319 3.19851 18.0281C3.02561 18.8978 3.07067 19.8233 3.18547 21.25H2C1.58579 21.25 1.25 21.5858 1.25 22C1.25 22.4142 1.58579 22.75 2 22.75H12.8232C13.2374 22.75 13.5732 22.4142 13.5732 22C13.5732 21.5858 13.2374 21.25 12.8232 21.25L10 21.25L9.99758 21.25H9.00242L9 21.25L4.6908 21.25C4.56846 19.7315 4.53578 18.9943 4.66972 18.3206C4.87411 17.2925 5.35561 16.3399 6.06219 15.5657C6.59025 14.9871 7.31327 14.534 9.02073 13.4833L10 12.8806L10.2898 13.0589C10.6425 13.276 11.1045 13.166 11.3216 12.8133C11.4685 12.5745 11.4656 12.2857 11.339 12.0566L11.8778 11.7251C13.4395 10.7642 14.3579 10.1991 15.0457 9.44545C15.9366 8.46926 16.5438 7.26813 16.8015 5.9719C16.9744 5.1022 16.9293 4.17673 16.8145 2.75H18C18.4142 2.75 18.75 2.41421 18.75 2C18.75 1.58579 18.4142 1.25 18 1.25H2C1.58579 1.25 1.25 1.58579 1.25 2C1.25 2.41421 1.58579 2.75 2 2.75H3.18544ZM15.3092 2.75C15.4315 4.26847 15.4642 5.00568 15.3302 5.67941C15.1259 6.70745 14.6444 7.66008 13.9378 8.43429C13.4097 9.0129 12.6867 9.46599 10.9792 10.5167L9.99997 11.1194L9.0207 10.5167C7.31324 9.46599 6.59021 9.0129 6.06215 8.43429C5.35558 7.66008 4.87408 6.70745 4.66969 5.67941C4.53575 5.00568 4.56843 4.26847 4.69077 2.75H15.3092Z" fill="#353566"/>
<path fill-rule="evenodd" clip-rule="evenodd" d="M21.8767 18.5938C23.0424 16.9761 22.9754 14.8953 22.0653 13.6621C21.335 12.6726 20.085 12.0497 18.8484 12.3089C18.1567 12.4553 17.5154 12.7626 17 13.2484C16.4847 12.7626 15.8434 12.4553 15.1517 12.3089C13.914 12.052 12.6662 12.671 11.9348 13.6621C11.0246 14.8953 10.9578 16.9761 12.1234 18.5938C12.9146 19.6919 14.5055 21.1469 15.5095 22.0245C15.5312 22.0435 15.553 22.0626 15.575 22.082C15.842 22.3168 16.1312 22.5712 16.5042 22.6815C16.8196 22.7747 17.1805 22.7747 17.4959 22.6815C17.8689 22.5712 18.1582 22.3167 18.4252 22.0819C18.4471 22.0626 18.4689 22.0434 18.4905 22.0245C19.4946 21.1469 21.0854 19.6919 21.8767 18.5938ZM17.5943 14.835C18.0107 14.2942 18.4779 13.9209 19.1575 13.7767C19.6186 13.6815 20.3302 13.8371 20.8584 14.5528C21.3491 15.2178 21.4772 16.5824 20.6597 17.7169C19.9852 18.653 18.528 19.9995 17.5034 20.8951C17.4786 20.9168 17.4519 20.9407 17.424 20.9657C17.3094 21.0684 17.1752 21.1887 17.0727 21.2423C17.0291 21.2581 16.9711 21.2582 16.9274 21.2423C16.825 21.1888 16.6908 21.0686 16.5762 20.9658C16.5483 20.9408 16.5216 20.9168 16.4967 20.8951C15.4721 19.9995 14.0149 18.653 13.3404 17.7169C12.5229 16.5824 12.6509 15.2178 13.1417 14.5528C13.6699 13.8371 14.3814 13.6815 14.8426 13.7767C15.5222 13.9209 15.9894 14.2942 16.4058 14.835C16.5478 15.0194 16.7673 15.1274 17 15.1274C17.2328 15.1274 17.4523 15.0194 17.5943 14.835Z" fill="#353566"/>
</svg>
