<svg width="24" height="24" viewBox="0 0 24 24" fill="none" xmlns="http://www.w3.org/2000/svg">
<path fill-rule="evenodd" clip-rule="evenodd" d="M4.18544 2.75C4.07063 4.17673 4.02558 5.1022 4.19848 5.9719C4.45619 7.26813 5.0633 8.46926 5.9542 9.44545C6.64203 10.1991 7.56047 10.7642 9.12217 11.7251L9.56896 12L9.12219 12.2749C7.5605 13.2358 6.64206 13.8009 5.95423 14.5546C5.06333 15.5307 4.45622 16.7319 4.19851 18.0281C4.02561 18.8978 4.07067 19.8233 4.18547 21.25H3C2.58579 21.25 2.25 21.5858 2.25 22C2.25 22.4142 2.58579 22.75 3 22.75H13.9865C14.4007 22.75 14.7365 22.4142 14.7365 22C14.7365 21.5858 14.4007 21.25 13.9865 21.25L11 21.25L10.9976 21.25H10.0024L10 21.25L5.6908 21.25C5.56846 19.7315 5.53578 18.9943 5.66972 18.3206C5.87411 17.2925 6.35561 16.3399 7.06219 15.5657C7.59025 14.9871 8.31327 14.534 10.0207 13.4833L11 12.8806L11.9842 13.4863C12.33 13.6991 12.6371 13.8881 12.9137 14.0609C13.2649 14.2804 13.7276 14.1736 13.9471 13.8223C14.1666 13.4711 14.0598 13.0084 13.7086 12.7889C13.4259 12.6122 13.113 12.4197 12.7671 12.2068L12.431 12L12.8778 11.7251C14.4395 10.7642 15.3579 10.1991 16.0457 9.44545C16.9366 8.46926 17.5438 7.26813 17.8015 5.9719C17.9744 5.1022 17.9293 4.17673 17.8145 2.75H19C19.4142 2.75 19.75 2.41421 19.75 2C19.75 1.58579 19.4142 1.25 19 1.25H3C2.58579 1.25 2.25 1.58579 2.25 2C2.25 2.41421 2.58579 2.75 3 2.75H4.18544ZM16.3092 2.75C16.4315 4.26847 16.4642 5.00568 16.3302 5.67941C16.1259 6.70745 15.6444 7.66008 14.9378 8.43429C14.4097 9.0129 13.6867 9.46599 11.9792 10.5167L11 11.1194L10.0207 10.5167C8.31324 9.46599 7.59021 9.0129 7.06215 8.43429C6.35558 7.66008 5.87408 6.70745 5.66969 5.67941C5.53575 5.00568 5.56843 4.26847 5.69077 2.75H16.3092Z" fill="#353566"/>
<path d="M19.25 12C19.25 11.5858 18.9143 11.25 18.5 11.25C18.0858 11.25 17.75 11.5858 17.75 12V12.5548C17.1846 12.6408 16.6689 12.8301 16.2476 13.1352C15.6235 13.5872 15.25 14.267 15.25 15.0817C15.25 16.1332 15.8341 16.7917 16.5087 17.1693C17.1359 17.5204 17.8815 17.6572 18.3767 17.7398C18.8815 17.8239 19.3859 17.9308 19.7587 18.1395C20.0841 18.3217 20.25 18.539 20.25 18.9183C20.25 19.2322 20.1235 19.4682 19.8726 19.6499C19.5993 19.8479 19.1435 20 18.5 20C18.0594 20 17.7858 19.9528 17.5266 19.85C17.2498 19.7402 16.9411 19.5482 16.4528 19.1785C16.1226 18.9284 15.6522 18.9934 15.4021 19.3236C15.1521 19.6539 15.2171 20.1243 15.5473 20.3743C16.059 20.7618 16.5003 21.0566 16.9735 21.2443C17.2316 21.3467 17.4857 21.4121 17.75 21.4511V22C17.75 22.4142 18.0858 22.75 18.5 22.75C18.9143 22.75 19.25 22.4142 19.25 22V21.4452C19.8154 21.3592 20.3312 21.1699 20.7525 20.8648C21.3766 20.4128 21.75 19.7329 21.75 18.9183C21.75 17.8667 21.166 17.2083 20.4914 16.8306C19.8642 16.4795 19.1186 16.3427 18.6233 16.2602C18.1186 16.1761 17.6142 16.0691 17.2414 15.8604C16.916 15.6783 16.75 15.461 16.75 15.0817C16.75 14.7677 16.8766 14.5317 17.1275 14.35C17.4008 14.1521 17.8566 14 18.5 14C18.9407 14 19.2143 14.0471 19.4735 14.15C19.7503 14.2597 20.059 14.4517 20.5473 14.8214C20.8775 15.0715 21.3479 15.0065 21.598 14.6763C21.848 14.346 21.783 13.8756 21.4528 13.6256C20.9411 13.2381 20.4998 12.9433 20.0266 12.7556C19.7685 12.6533 19.5143 12.5879 19.25 12.5489V12Z" fill="#353566"/>
</svg>
