<svg width="24" height="24" viewBox="0 0 24 24" fill="none" xmlns="http://www.w3.org/2000/svg">
<path d="M14 9.75C14.4142 9.75 14.75 10.0858 14.75 10.5L14.75 16.5C14.75 16.9142 14.4142 17.25 14 17.25C13.5858 17.25 13.25 16.9142 13.25 16.5V10.5C13.25 10.0858 13.5858 9.75 14 9.75Z" fill="#353566"/>
<path d="M10.75 10.5C10.75 10.0858 10.4142 9.75 10 9.75C9.58579 9.75 9.25 10.0858 9.25 10.5V16.5C9.25 16.9142 9.58579 17.25 10 17.25C10.4142 17.25 10.75 16.9142 10.75 16.5V10.5Z" fill="#353566"/>
<path fill-rule="evenodd" clip-rule="evenodd" d="M12.75 3.77842V2.25H15C15.4142 2.25 15.75 1.91421 15.75 1.5C15.75 1.08579 15.4142 0.75 15 0.75H9C8.58579 0.75 8.25 1.08579 8.25 1.5C8.25 1.91421 8.58579 2.25 9 2.25H11.25V3.77842C6.21566 4.16139 2.25 8.36758 2.25 13.5C2.25 18.8848 6.61522 23.25 12 23.25C17.3848 23.25 21.75 18.8848 21.75 13.5C21.75 10.9502 20.7712 8.62906 19.169 6.8917L20.5303 5.53033C20.8232 5.23744 20.8232 4.76256 20.5303 4.46967C20.2374 4.17678 19.7626 4.17678 19.4697 4.46967L18.0699 5.86941C16.5876 4.68867 14.7534 3.93082 12.75 3.77842ZM12 5.25C7.44365 5.25 3.75 8.94365 3.75 13.5C3.75 18.0564 7.44365 21.75 12 21.75C16.5563 21.75 20.25 18.0564 20.25 13.5C20.25 8.94365 16.5563 5.25 12 5.25Z" fill="#353566"/>
</svg>
