<svg width="24" height="24" viewBox="0 0 24 24" fill="none" xmlns="http://www.w3.org/2000/svg">
<path d="M7.25 1C7.25 0.585786 7.58579 0.25 8 0.25H14C14.4142 0.25 14.75 0.585786 14.75 1C14.75 1.41421 14.4142 1.75 14 1.75H11.75V3.27841C13.7537 3.43082 15.5877 4.1888 17.0699 5.36947L18.4697 3.96967C18.7626 3.67678 19.2374 3.67678 19.5303 3.96967C19.8232 4.26256 19.8232 4.73744 19.5303 5.03033L18.1689 6.3918C19.0551 7.3528 19.7505 8.49233 20.195 9.75016C20.3331 10.1407 20.1284 10.5692 19.7378 10.7072C19.3473 10.8452 18.9188 10.6406 18.7808 10.25C17.6479 7.04468 14.591 4.75 11 4.75C6.44365 4.75 2.75 8.44365 2.75 13C2.75 17.5563 6.44365 21.25 11 21.25C11.9973 21.25 12.9517 21.0734 13.8347 20.7503C14.2237 20.608 14.6544 20.808 14.7968 21.1969C14.9391 21.5859 14.7391 22.0167 14.3501 22.159C13.3044 22.5416 12.1757 22.75 11 22.75C5.61522 22.75 1.25 18.3848 1.25 13C1.25 7.86758 5.21566 3.66139 10.25 3.27842V1.75H8C7.58579 1.75 7.25 1.41421 7.25 1Z" fill="#353566"/>
<path d="M11 7.75C11.4142 7.75 11.75 8.08579 11.75 8.5V13C11.75 13.4142 11.4142 13.75 11 13.75C10.5858 13.75 10.25 13.4142 10.25 13V8.5C10.25 8.08579 10.5858 7.75 11 7.75Z" fill="#353566"/>
<path d="M20.25 13C20.25 12.5858 19.9143 12.25 19.5 12.25C19.0858 12.25 18.75 12.5858 18.75 13V13.5548C18.1846 13.6408 17.6689 13.8301 17.2476 14.1352C16.6235 14.5872 16.25 15.267 16.25 16.0817C16.25 17.1332 16.8341 17.7917 17.5087 18.1693C18.1359 18.5204 18.8815 18.6572 19.3767 18.7398C19.8815 18.8239 20.3859 18.9308 20.7587 19.1395C21.0841 19.3217 21.25 19.539 21.25 19.9183C21.25 20.2322 21.1235 20.4682 20.8726 20.6499C20.5993 20.8479 20.1435 21 19.5 21C19.0594 21 18.7858 20.9528 18.5266 20.85C18.2498 20.7402 17.9411 20.5482 17.4528 20.1785C17.1226 19.9284 16.6522 19.9934 16.4021 20.3236C16.1521 20.6539 16.2171 21.1243 16.5473 21.3743C17.059 21.7618 17.5003 22.0566 17.9735 22.2443C18.2316 22.3467 18.4857 22.4121 18.75 22.4511V23C18.75 23.4142 19.0858 23.75 19.5 23.75C19.9143 23.75 20.25 23.4142 20.25 23V22.4452C20.8154 22.3592 21.3312 22.1699 21.7525 21.8648C22.3766 21.4128 22.75 20.7329 22.75 19.9183C22.75 18.8667 22.166 18.2083 21.4914 17.8306C20.8642 17.4795 20.1186 17.3427 19.6233 17.2602C19.1186 17.1761 18.6142 17.0691 18.2414 16.8604C17.916 16.6783 17.75 16.461 17.75 16.0817C17.75 15.7677 17.8766 15.5317 18.1275 15.35C18.4008 15.1521 18.8566 15 19.5 15C19.9407 15 20.2143 15.0471 20.4735 15.15C20.7503 15.2597 21.059 15.4517 21.5473 15.8214C21.8775 16.0715 22.3479 16.0065 22.598 15.6763C22.848 15.346 22.783 14.8756 22.4528 14.6256C21.9411 14.2381 21.4998 13.9433 21.0266 13.7556C20.7685 13.6533 20.5143 13.5879 20.25 13.5489V13Z" fill="#353566"/>
</svg>
