<svg width="24" height="24" viewBox="0 0 24 24" fill="none" xmlns="http://www.w3.org/2000/svg">
<path d="M12 2.75C14.0832 2.75 16.0037 3.43778 17.5496 4.59896C18.1775 5.07064 18.8883 5.77778 19.5157 6.50232C19.738 6.75904 19.9443 7.01164 20.1286 7.25H16.5C16.0858 7.25 15.75 7.58579 15.75 8C15.75 8.41421 16.0858 8.75 16.5 8.75H21.5282C21.538 8.75019 21.5477 8.75019 21.5575 8.75H22C22.4143 8.75 22.75 8.41421 22.75 8V2.5C22.75 2.08579 22.4143 1.75 22 1.75C21.5858 1.75 21.25 2.08579 21.25 2.5V6.24865C21.0621 6.00861 20.8599 5.76325 20.6497 5.52046C19.9847 4.75246 19.1955 3.95925 18.4505 3.39961C16.6537 2.05002 14.4192 1.25 12 1.25C6.06294 1.25 1.25 6.06294 1.25 12C1.25 17.9371 6.06294 22.75 12 22.75C16.8146 22.75 20.8881 19.5854 22.2577 15.2247C22.3819 14.8296 22.1621 14.4086 21.7669 14.2845C21.3718 14.1603 20.9508 14.3801 20.8267 14.7753C19.6478 18.5288 16.1407 21.25 12 21.25C6.89136 21.25 2.75 17.1086 2.75 12C2.75 6.89137 6.89136 2.75 12 2.75Z" fill="#353566"/>
<path d="M8.2595 10.0495C8.4261 9.86291 8.64566 9.75 9.00004 9.75C9.68913 9.75 9.99897 10.2107 10 10.598L9.99991 10.6174C9.99652 10.8284 9.88597 11.0458 9.54068 11.3412C9.37012 11.4872 9.16908 11.6293 8.93861 11.7855C8.89477 11.8152 8.8493 11.8458 8.80276 11.8772C8.61709 12.0021 8.41428 12.1386 8.22935 12.277C8.06012 12.4037 7.88914 12.5502 7.71971 12.7197C7.15158 13.2878 6.84329 13.8099 6.67868 14.2215C6.59684 14.4261 6.55203 14.5996 6.52776 14.733C6.51565 14.7996 6.50872 14.8559 6.50481 14.9008C6.50195 14.9337 6.50009 14.967 6.50004 15C6.50004 15.4142 6.83582 15.75 7.25004 15.75H11C11.4143 15.75 11.75 15.4142 11.75 15C11.75 14.5858 11.4143 14.25 11 14.25H8.37379C8.47753 14.1081 8.61034 13.9504 8.78037 13.7803C8.89873 13.662 9.01554 13.5622 9.12813 13.4779C9.27999 13.3643 9.44193 13.2552 9.62348 13.133C9.67417 13.0988 9.7264 13.0637 9.78036 13.0271C10.0159 12.8674 10.2768 12.6855 10.5159 12.4809C10.9889 12.0762 11.4888 11.4863 11.4998 10.6349L11.5 10.6049V10.6C11.5 9.38767 10.5225 8.25 9.00004 8.25C8.25442 8.25 7.61494 8.5192 7.14058 9.05049C6.84514 9.3814 6.50004 9.90616 6.50004 10.7C6.50004 11.1142 6.83582 11.45 7.25004 11.45C7.66425 11.45 8.00004 11.1142 8.00004 10.7C8.00004 10.3938 8.11644 10.2097 8.2595 10.0495Z" fill="#353566"/>
<path d="M15.75 10.6499C16.1643 10.6499 16.5 10.9857 16.5 11.3999V12.4502H16.75C17.1643 12.4502 17.5 12.786 17.5 13.2002C17.5 13.6144 17.1643 13.9502 16.75 13.9502H16.5V14.9999C16.5 15.4141 16.1643 15.7499 15.75 15.7499C15.3358 15.7499 15 15.4141 15 14.9999V13.9502H12.75C12.5133 13.9502 12.2904 13.8384 12.1488 13.6486C12.0073 13.4587 11.9637 13.2132 12.0312 12.9863L13.2812 8.78626C13.3994 8.38925 13.817 8.1632 14.214 8.28136C14.611 8.39951 14.837 8.81713 14.7189 9.21414L13.7558 12.4502H15V11.3999C15 10.9857 15.3358 10.6499 15.75 10.6499Z" fill="#353566"/>
</svg>
