<svg width="24" height="24" viewBox="0 0 24 24" fill="none" xmlns="http://www.w3.org/2000/svg">
<g clip-path="url(#clip0_9001_303423)">
<path d="M11.25 0.999786C11.25 0.585573 11.5858 0.249786 12 0.249786C18.4893 0.249786 23.75 5.51044 23.75 11.9998C23.75 18.4891 18.4893 23.7498 12 23.7498C5.51065 23.7498 0.25 18.4891 0.25 11.9998C0.25 11.5856 0.585786 11.2498 1 11.2498C1.41421 11.2498 1.75 11.5856 1.75 11.9998C1.75 17.6607 6.33908 22.2498 12 22.2498C17.6609 22.2498 22.25 17.6607 22.25 11.9998C22.25 6.33887 17.6609 1.74979 12 1.74979C11.5858 1.74979 11.25 1.414 11.25 0.999786Z" fill="#353566"/>
<path d="M8.71359 1.45102C8.92512 1.96119 8.68302 2.54625 8.17285 2.75778C7.6627 2.96936 7.07672 2.72769 6.86514 2.21754C6.65356 1.7074 6.8956 1.12232 7.40575 0.910738L7.40683 0.910287C7.917 0.698758 8.50206 0.940854 8.71359 1.45102Z" fill="#353566"/>
<path d="M4.92936 3.51392C5.31986 3.90447 5.31983 4.53763 4.92929 4.92814C4.53878 5.31868 3.90493 5.31941 3.51438 4.9289C3.12384 4.5384 3.12381 3.90523 3.51431 3.51469L3.51514 3.51386C3.90569 3.12335 4.53885 3.12338 4.92936 3.51392Z" fill="#353566"/>
<path d="M2.218 6.86468C2.72815 7.07626 2.97019 7.66134 2.75861 8.17149C2.54708 8.68166 1.96165 8.92466 1.45148 8.71313C0.941312 8.5016 0.699216 7.91655 0.910745 7.40638L0.911196 7.40529C1.12278 6.89514 1.70785 6.6531 2.218 6.86468Z" fill="#353566"/>
<path d="M11.25 5.99979C11.25 5.58557 11.5858 5.24979 12 5.24979C12.4142 5.24979 12.75 5.58557 12.75 5.99979V11.9998C12.75 12.414 12.4142 12.7498 12 12.7498H6C5.58579 12.7498 5.25 12.414 5.25 11.9998C5.25 11.5856 5.58579 11.2498 6 11.2498H11.25V5.99979Z" fill="#353566"/>
</g>
<defs>
<clipPath id="clip0_9001_303423">
<rect width="24" height="24" fill="white"/>
</clipPath>
</defs>
</svg>
