<svg width="24" height="24" viewBox="0 0 24 24" fill="none" xmlns="http://www.w3.org/2000/svg">
<path opacity="0.4" d="M12 1.25C8.21397 1.25 5.05264 4.13698 4.70987 7.90746L4.532 9.86398C4.36027 11.753 3.7192 13.5691 2.66706 15.1473L2.6338 15.1972C2.38354 15.5726 2.25 16.0137 2.25 16.4648C2.25 17.7269 3.27311 18.75 4.53518 18.75H19.4648C20.7269 18.75 21.75 17.7269 21.75 16.4648C21.75 16.0137 21.6165 15.5726 21.3662 15.1972L21.3329 15.1473C20.2808 13.5691 19.6397 11.753 19.468 9.86397L19.2901 7.90746C18.9474 4.13698 15.786 1.25 12 1.25Z" fill="#353566"/>
<path d="M14.3007 6.25C13.2454 6.25 12.3859 7.08829 12.3518 8.13529L9.818 9.40217C9.50145 9.18027 9.11593 9.05005 8.7 9.05005C7.62304 9.05005 6.75 9.92309 6.75 11C6.75 12.077 7.62304 12.95 8.7 12.95C9.11597 12.95 9.50151 12.8198 9.81808 12.5979L12.3518 13.8647C12.3858 14.9118 13.2454 15.7501 14.3007 15.7501C15.3777 15.7501 16.2507 14.8771 16.2507 13.8001C16.2507 12.7231 15.3777 11.8501 14.3007 11.8501C13.7448 11.8501 13.2433 12.0827 12.8881 12.4558L10.6233 11.3234C10.6409 11.2182 10.65 11.1102 10.65 11C10.65 10.8899 10.6409 10.7818 10.6233 10.6766L12.888 9.5442C13.2433 9.91739 13.7448 10.15 14.3007 10.15C15.3777 10.15 16.2507 9.27695 16.2507 8.2C16.2507 7.12304 15.3777 6.25 14.3007 6.25Z" fill="#353566"/>
<path d="M9.02583 19.8507C9.38437 19.6433 9.84317 19.7658 10.0506 20.1243C10.4407 20.7988 11.1681 21.2499 12 21.2499C12.8319 21.2499 13.5593 20.7988 13.9495 20.1243C14.1569 19.7658 14.6157 19.6433 14.9742 19.8507C15.3328 20.0581 15.4553 20.5169 15.2479 20.8754C14.6006 21.9943 13.389 22.7499 12 22.7499C10.611 22.7499 9.39943 21.9943 8.75217 20.8754C8.54476 20.5169 8.66728 20.0581 9.02583 19.8507Z" fill="#353566"/>
</svg>
