<svg width="24" height="24" viewBox="0 0 24 24" fill="none" xmlns="http://www.w3.org/2000/svg">
<g opacity="0.4">
<path d="M12.4242 9.48462C12.4324 9.4928 12.4407 9.50076 12.4492 9.50852C12.457 9.51702 12.4649 9.52538 12.4731 9.53358L16.2575 13.3179C16.4017 13.4621 16.5984 13.5414 16.8023 13.5374C17.0062 13.5335 17.1997 13.4467 17.3382 13.297L19.2865 11.1919C20.3235 10.0715 19.5289 8.25325 18.0022 8.25325H14.1433L16.5585 3.42057C17.057 2.42324 16.3317 1.25 15.2168 1.25H9.76563C8.9783 1.25 8.26422 1.71193 7.94143 2.43005L7.35604 3.73241C7.22834 4.01651 7.28953 4.34997 7.50978 4.57022L12.4242 9.48462Z" fill="#353566"/>
<path d="M7.33003 6.26915C7.1557 6.09482 6.90683 6.0173 6.66433 6.0618C6.42184 6.1063 6.21671 6.26713 6.11563 6.492L4.40974 10.2872C3.88924 11.4452 4.73632 12.7546 6.0059 12.7546H9.41265L6.85059 21.1312C6.46205 22.4014 8.06103 23.3207 8.96331 22.3458L15.4156 15.3744C15.6893 15.0786 15.6804 14.6195 15.3955 14.3346L7.33003 6.26915Z" fill="#353566"/>
</g>
<path d="M1.46967 1.46967C1.76256 1.17678 2.23744 1.17678 2.53033 1.46967L22.5303 21.4697C22.8232 21.7626 22.8232 22.2374 22.5303 22.5303C22.2374 22.8232 21.7626 22.8232 21.4697 22.5303L1.46967 2.53033C1.17678 2.23744 1.17678 1.76256 1.46967 1.46967Z" fill="#353566"/>
</svg>
