<svg width="24" height="24" viewBox="0 0 24 24" fill="none" xmlns="http://www.w3.org/2000/svg">
<path opacity="0.4" d="M12 7.25C7.71979 7.25 4.25 10.7198 4.25 15C4.25 19.2802 7.71979 22.75 12 22.75C16.2802 22.75 19.75 19.2802 19.75 15C19.75 10.7198 16.2802 7.25 12 7.25Z" fill="#353566"/>
<path d="M12 7.24987C14.4833 7.24987 16.6937 8.4178 18.1121 10.2343L22.6495 2.37521C22.7835 2.14316 22.7835 1.85726 22.6495 1.62521C22.5155 1.39316 22.268 1.25021 22 1.25021H16.5729L16.506 1.25011C16.2389 1.24948 15.9536 1.24881 15.6857 1.33586C15.4525 1.41165 15.2378 1.53561 15.0555 1.69971C14.8462 1.88821 14.7041 2.1356 14.5711 2.36721L14.5377 2.42521L12 6.82072L9.42888 2.3672C9.29588 2.13559 9.15383 1.8882 8.94448 1.69971C8.76223 1.53561 8.54752 1.41165 8.31428 1.33586C8.04636 1.24881 7.76109 1.24948 7.49401 1.25011L7.42709 1.25021H2C1.73205 1.25021 1.48446 1.39316 1.35048 1.62521C1.21651 1.85726 1.21651 2.14316 1.35048 2.37521L5.88794 10.2343C7.30628 8.4178 9.51675 7.24987 12 7.24987Z" fill="#353566"/>
<path d="M13.1398 13.2314L12.3941 11.6957C12.235 11.3681 11.765 11.3681 11.6059 11.6957L10.8602 13.2314C10.8089 13.337 10.7074 13.4098 10.5902 13.425L8.88137 13.6464C8.51521 13.6938 8.3693 14.1424 8.6384 14.3935L9.88319 15.5546C9.97014 15.6357 10.0095 15.7553 9.98753 15.8717L9.67415 17.5348C9.60658 17.8934 9.9875 18.1699 10.3112 17.9972L11.8344 17.1848C11.9378 17.1297 12.0622 17.1297 12.1656 17.1848L13.6888 17.9972C14.0125 18.1699 14.3934 17.8934 14.3259 17.5348L14.0125 15.8717C13.9905 15.7553 14.0299 15.6357 14.1168 15.5546L15.3616 14.3935C15.6307 14.1424 15.4848 13.6938 15.1186 13.6464L13.4098 13.425C13.2926 13.4098 13.1911 13.337 13.1398 13.2314Z" fill="#353566"/>
</svg>
