<svg width="24" height="24" viewBox="0 0 24 24" fill="none" xmlns="http://www.w3.org/2000/svg">
<path opacity="0.4" d="M10.5 1.25C5.39137 1.25 1.25 5.39137 1.25 10.5C1.25 15.6086 5.39137 19.75 10.5 19.75C15.6086 19.75 19.75 15.6086 19.75 10.5C19.75 5.39137 15.6086 1.25 10.5 1.25Z" fill="#353566"/>
<path d="M10.4997 9.33317C9.85403 9.33317 9.33301 9.85419 9.33301 10.4998C9.33301 11.1455 9.85403 11.6665 10.4997 11.6665C11.1453 11.6665 11.6663 11.1455 11.6663 10.4998C11.6663 9.85419 11.1453 9.33317 10.4997 9.33317Z" fill="#353566"/>
<path fill-rule="evenodd" clip-rule="evenodd" d="M15.075 10.0143C14.2127 7.81182 12.3746 6.6665 10.4997 6.6665C8.62476 6.6665 6.78665 7.81182 5.92431 10.0143C5.80257 10.3253 5.80257 10.6744 5.92431 10.9853C6.78665 13.1879 8.62476 14.3332 10.4997 14.3332C12.3746 14.3332 14.2127 13.1879 15.075 10.9853C15.1968 10.6744 15.1968 10.3253 15.075 10.0143ZM8.33301 10.4998C8.33301 9.30191 9.30174 8.33317 10.4997 8.33317C11.6976 8.33317 12.6663 9.30191 12.6663 10.4998C12.6663 11.6978 11.6976 12.6665 10.4997 12.6665C9.30174 12.6665 8.33301 11.6978 8.33301 10.4998Z" fill="#353566"/>
<path d="M17.5494 16.4888C17.225 16.8702 16.8702 17.225 16.4887 17.5494L21.4694 22.5301C21.7623 22.823 22.2371 22.823 22.53 22.5301C22.8229 22.2372 22.8229 21.7623 22.53 21.4694L17.5494 16.4888Z" fill="#353566"/>
</svg>
