<svg width="24" height="24" viewBox="0 0 24 24" fill="none" xmlns="http://www.w3.org/2000/svg">
<path opacity="0.4" d="M16.9326 3.25H7.06739C6.11495 3.24999 5.35439 3.24999 4.74013 3.30018C4.11012 3.35165 3.56824 3.45963 3.07054 3.71322C2.27085 4.12068 1.62068 4.77085 1.21322 5.57054C0.959634 6.06824 0.85165 6.61012 0.800176 7.24013C0.749989 7.85439 0.749994 8.61494 0.75 9.56738V14.4326C0.749994 15.3851 0.749989 16.1456 0.800176 16.7599C0.85165 17.3899 0.959634 17.9318 1.21322 18.4295C1.62068 19.2291 2.27085 19.8793 3.07054 20.2868C3.56824 20.5404 4.11012 20.6483 4.74013 20.6998C5.35438 20.75 6.1149 20.75 7.0673 20.75H16.9326C17.885 20.75 18.6456 20.75 19.2599 20.6998C19.8899 20.6483 20.4318 20.5404 20.9295 20.2868C21.7291 19.8793 22.3793 19.2291 22.7868 18.4295C23.0404 17.9318 23.1483 17.3899 23.1998 16.7599C23.25 16.1456 23.25 15.3851 23.25 14.4327V9.56737C23.25 8.61496 23.25 7.85438 23.1998 7.24013C23.1483 6.61012 23.0404 6.06824 22.7868 5.57054C22.3793 4.77085 21.7291 4.12068 20.9295 3.71322C20.4318 3.45963 19.8899 3.35165 19.2599 3.30018C18.6456 3.24999 17.8851 3.24999 16.9326 3.25Z" fill="#353566"/>
<path d="M6.42507 9.75C6.05224 9.75 5.75 10.0522 5.75 10.4251C5.75 10.7265 5.94981 10.9914 6.23961 11.0742L7.67247 11.4836C8.60623 11.7503 9.25 12.6038 9.25 13.5749C9.25 14.7762 8.27619 15.75 7.07493 15.75H5.5C5.08579 15.75 4.75 15.4142 4.75 15C4.75 14.5858 5.08579 14.25 5.5 14.25H7.07493C7.44776 14.25 7.75 13.9478 7.75 13.5749C7.75 13.2735 7.55019 13.0086 7.26039 12.9258L5.82753 12.5164C4.89377 12.2497 4.25 11.3962 4.25 10.4251C4.25 9.22381 5.22381 8.25 6.42507 8.25H8C8.41421 8.25 8.75 8.58579 8.75 9C8.75 9.41421 8.41421 9.75 8 9.75H6.42507Z" fill="#353566"/>
<path fill-rule="evenodd" clip-rule="evenodd" d="M14.75 10.75C14.75 9.36929 15.8693 8.25 17.25 8.25C18.6307 8.25 19.75 9.36929 19.75 10.75V13.25C19.75 14.6307 18.6307 15.75 17.25 15.75C15.8693 15.75 14.75 14.6307 14.75 13.25V10.75ZM17.25 9.75C16.6977 9.75 16.25 10.1977 16.25 10.75V13.25C16.25 13.8023 16.6977 14.25 17.25 14.25C17.8023 14.25 18.25 13.8023 18.25 13.25V10.75C18.25 10.1977 17.8023 9.75 17.25 9.75Z" fill="#353566"/>
<path d="M10.5 8.25C10.0858 8.25 9.75 8.58579 9.75 9V15C9.75 15.4142 10.0858 15.75 10.5 15.75H13.5C13.9142 15.75 14.25 15.4142 14.25 15C14.25 14.5858 13.9142 14.25 13.5 14.25H11.25V12.75H13.5C13.9142 12.75 14.25 12.4142 14.25 12C14.25 11.5858 13.9142 11.25 13.5 11.25H11.25V9.75H13.5C13.9142 9.75 14.25 9.41421 14.25 9C14.25 8.58579 13.9142 8.25 13.5 8.25H10.5Z" fill="#353566"/>
</svg>
