<svg width="24" height="24" viewBox="0 0 24 24" fill="none" xmlns="http://www.w3.org/2000/svg">
<path d="M21 1.25024C21.4142 1.25024 21.75 1.58603 21.75 2.00024V9.58176C21.75 9.99598 21.4142 10.3318 21 10.3318C20.5858 10.3318 20.25 9.99598 20.25 9.58176V2.00024C20.25 1.58603 20.5858 1.25024 21 1.25024Z" fill="#353566"/>
<path d="M16 5.50024C16.4142 5.50024 16.75 5.83603 16.75 6.25024V9.25228C16.75 9.66649 16.4142 10.0023 16 10.0023C15.5858 10.0023 15.25 9.66649 15.25 9.25228V6.25024C15.25 5.83603 15.5858 5.50024 16 5.50024Z" fill="#353566"/>
<path d="M6 14.0002C6.41421 14.0002 6.75 14.336 6.75 14.7502V22.0002C6.75 22.4145 6.41421 22.7502 6 22.7502C5.58579 22.7502 5.25 22.4145 5.25 22.0002V14.7502C5.25 14.336 5.58579 14.0002 6 14.0002Z" fill="#353566"/>
<path d="M1 18.2502C1.41421 18.2502 1.75 18.586 1.75 19.0002V22.0002C1.75 22.4145 1.41421 22.7502 1 22.7502C0.585786 22.7502 0.25 22.4145 0.25 22.0002V19.0002C0.25 18.586 0.585786 18.2502 1 18.2502Z" fill="#353566"/>
<path d="M11 9.75024C11.4142 9.75024 11.75 10.086 11.75 10.5002V22.0002C11.75 22.4145 11.4142 22.7502 11 22.7502C10.5858 22.7502 10.25 22.4145 10.25 22.0002V10.5002C10.25 10.086 10.5858 9.75024 11 9.75024Z" fill="#353566"/>
<path d="M17.6699 19.7119C17.6699 19.2977 18.0057 18.9619 18.4199 18.9619C18.8341 18.9619 19.17 19.2977 19.17 19.7119C19.17 20.1261 18.8342 20.4619 18.42 20.4619C18.0058 20.4619 17.6699 20.1261 17.6699 19.7119Z" fill="#353566"/>
<path d="M17.6699 16.2744C17.6699 15.8602 18.0057 15.5244 18.4199 15.5244C18.8341 15.5244 19.1699 15.8602 19.1699 16.2744C19.1699 16.4838 19.085 16.6722 18.9461 16.8089C18.8659 16.8878 18.7964 16.9311 18.6787 17.0045C18.6449 17.0256 18.6069 17.0493 18.5637 17.0769C18.3792 17.1948 18.1354 17.3697 17.9597 17.6987C17.7971 18.0032 17.9121 18.3818 18.2166 18.5445C18.5211 18.7071 18.8997 18.5921 19.0623 18.2876C19.0876 18.2403 19.1169 18.2069 19.2371 18.13C19.2543 18.119 19.275 18.1063 19.2984 18.092C19.4255 18.0139 19.6337 17.886 19.823 17.6997C20.1908 17.3376 20.4199 16.8322 20.4199 16.2744C20.4199 15.1698 19.5245 14.2744 18.4199 14.2744C17.3154 14.2744 16.4199 15.1698 16.4199 16.2744C16.4199 16.6196 16.6997 16.8994 17.0449 16.8994C17.3901 16.8994 17.6699 16.6196 17.6699 16.2744Z" fill="#353566"/>
<path fill-rule="evenodd" clip-rule="evenodd" d="M23.7532 17.4202C23.7532 14.4747 21.3654 12.0869 18.4199 12.0869C15.4744 12.0869 13.0866 14.4747 13.0866 17.4202C13.0866 20.3658 15.4744 22.7536 18.4199 22.7536C21.3654 22.7536 23.7532 20.3658 23.7532 17.4202ZM18.4199 13.5869C20.537 13.5869 22.2532 15.3032 22.2532 17.4202C22.2532 19.5373 20.537 21.2536 18.4199 21.2536C16.3028 21.2536 14.5866 19.5373 14.5866 17.4202C14.5866 15.3032 16.3028 13.5869 18.4199 13.5869Z" fill="#353566"/>
</svg>
