<svg width="24" height="24" viewBox="0 0 24 24" fill="none" xmlns="http://www.w3.org/2000/svg">
<path d="M22 1.25C22.4142 1.25 22.75 1.58579 22.75 2V22C22.75 22.4142 22.4142 22.75 22 22.75C21.5858 22.75 21.25 22.4142 21.25 22V2C21.25 1.58579 21.5858 1.25 22 1.25Z" fill="#353566"/>
<path d="M17 5.5C17.4142 5.5 17.75 5.83579 17.75 6.25V22C17.75 22.4142 17.4142 22.75 17 22.75C16.5858 22.75 16.25 22.4142 16.25 22V6.25C16.25 5.83579 16.5858 5.5 17 5.5Z" fill="#353566"/>
<path d="M12.75 10.5C12.75 10.0858 12.4142 9.75 12 9.75C11.5858 9.75 11.25 10.0858 11.25 10.5V22C11.25 22.4142 11.5858 22.75 12 22.75C12.4142 22.75 12.75 22.4142 12.75 22V10.5Z" fill="#353566"/>
<path d="M7 14C7.41421 14 7.75 14.3358 7.75 14.75V22C7.75 22.4142 7.41421 22.75 7 22.75C6.58579 22.75 6.25 22.4142 6.25 22V14.75C6.25 14.3358 6.58579 14 7 14Z" fill="#353566"/>
<path d="M2.75 19C2.75 18.5858 2.41421 18.25 2 18.25C1.58579 18.25 1.25 18.5858 1.25 19V22C1.25 22.4142 1.58579 22.75 2 22.75C2.41421 22.75 2.75 22.4142 2.75 22V19Z" fill="#353566"/>
</svg>
