<svg width="24" height="24" viewBox="0 0 24 24" fill="none" xmlns="http://www.w3.org/2000/svg">
<path d="M21.75 2C21.75 1.58579 21.4142 1.25 21 1.25C20.5858 1.25 20.25 1.58579 20.25 2V9C20.25 9.41421 20.5858 9.75 21 9.75C21.4142 9.75 21.75 9.41421 21.75 9V2Z" fill="#353566"/>
<path d="M16.75 6.25C16.75 5.83579 16.4142 5.5 16 5.5C15.5858 5.5 15.25 5.83579 15.25 6.25V11.5938C15.25 12.008 15.5858 12.3438 16 12.3438C16.4142 12.3438 16.75 12.008 16.75 11.5938V6.25Z" fill="#353566"/>
<path d="M6.75 14.75C6.75 14.3358 6.41421 14 6 14C5.58579 14 5.25 14.3358 5.25 14.75V22C5.25 22.4142 5.58579 22.75 6 22.75C6.41421 22.75 6.75 22.4142 6.75 22V14.75Z" fill="#353566"/>
<path d="M1.75 19C1.75 18.5858 1.41421 18.25 1 18.25C0.585786 18.25 0.25 18.5858 0.25 19V22C0.25 22.4142 0.585786 22.75 1 22.75C1.41421 22.75 1.75 22.4142 1.75 22V19Z" fill="#353566"/>
<path d="M11.75 10.5C11.75 10.0858 11.4142 9.75 11 9.75C10.5858 9.75 10.25 10.0858 10.25 10.5V22C10.25 22.4142 10.5858 22.75 11 22.75C11.4142 22.75 11.75 22.4142 11.75 22V10.5Z" fill="#353566"/>
<path fill-rule="evenodd" clip-rule="evenodd" d="M17.8866 14.5413L18.185 15.3478C18.4365 16.0275 18.9725 16.5635 19.6522 16.815L20.4587 17.1134C21.5138 17.5038 21.5138 18.9962 20.4587 19.3866L19.6522 19.685C18.9725 19.9365 18.4365 20.4725 18.185 21.1522L17.8866 21.9587C17.4962 23.0138 16.0038 23.0138 15.6134 21.9587L15.315 21.1522C15.0635 20.4725 14.5275 19.9365 13.8478 19.685L13.0413 19.3866C11.9862 18.9962 11.9862 17.5038 13.0413 17.1134L13.8478 16.815C14.5275 16.5635 15.0635 16.0275 15.315 15.3478L15.6134 14.5413C16.0038 13.4862 17.4962 13.4862 17.8866 14.5413ZM16.75 15.7921L16.7218 15.8683C16.3183 16.9587 15.4587 17.8183 14.3683 18.2218L14.2921 18.25L14.3683 18.2782C15.4587 18.6817 16.3183 19.5413 16.7218 20.6317L16.75 20.7079L16.7782 20.6317C17.1817 19.5413 18.0413 18.6817 19.1317 18.2782L19.2079 18.25L19.1317 18.2218C18.0413 17.8183 17.1817 16.9587 16.7782 15.8683L16.75 15.7921Z" fill="#353566"/>
<path d="M21.3211 12.6133L21.1269 12.0883C21.0833 11.9706 20.9167 11.9706 20.8731 12.0883L20.6789 12.6133C20.4962 13.107 20.107 13.4962 19.6133 13.6789L19.0883 13.8731C18.9706 13.9167 18.9706 14.0833 19.0883 14.1269L19.6133 14.3211C20.107 14.5038 20.4962 14.893 20.6789 15.3867L20.8731 15.9117C20.9167 16.0294 21.0833 16.0294 21.1269 15.9117L21.3211 15.3867C21.5038 14.893 21.893 14.5038 22.3867 14.3211L22.9117 14.1269C23.0294 14.0833 23.0294 13.9167 22.9117 13.8731L22.3867 13.6789C21.893 13.4962 21.5038 13.107 21.3211 12.6133Z" fill="#353566"/>
</svg>
