<svg width="24" height="24" viewBox="0 0 24 24" fill="none" xmlns="http://www.w3.org/2000/svg">
<path d="M2.74951 6.99934C2.74951 5.29605 3.49258 3.7295 4.74098 2.54382C5.04133 2.25857 5.05356 1.78385 4.76831 1.48351C4.48306 1.18317 4.00834 1.17093 3.708 1.45618C2.19508 2.89309 1.24951 4.84058 1.24951 6.99934C1.24951 9.15883 2.19571 11.1069 3.70953 12.5439C4.00994 12.8291 4.48465 12.8168 4.76983 12.5164C5.05501 12.2159 5.04266 11.7412 4.74224 11.4561C3.49308 10.2702 2.74951 8.7032 2.74951 6.99934Z" fill="#353566"/>
<path d="M21.2495 6.99934C21.2495 5.29605 20.5064 3.7295 19.258 2.54382C18.9577 2.25857 18.9455 1.78385 19.2307 1.48351C19.516 1.18317 19.9907 1.17093 20.291 1.45618C21.8039 2.89309 22.7495 4.84058 22.7495 6.99934C22.7495 9.15883 21.8033 11.1069 20.2895 12.5439C19.9891 12.8291 19.5144 12.8168 19.2292 12.5164C18.944 12.2159 18.9564 11.7412 19.2568 11.4561C20.5059 10.2702 21.2495 8.7032 21.2495 6.99934Z" fill="#353566"/>
<path fill-rule="evenodd" clip-rule="evenodd" d="M12 4.25C10.4812 4.25 9.25 5.48122 9.25 7C9.25 7.81371 9.60341 8.54487 10.1651 9.04837L4.8092 21.7078C4.64781 22.0893 4.82622 22.5293 5.2077 22.6907C5.58918 22.8521 6.02926 22.6737 6.19065 22.2922L7.68929 18.75H16.3106L17.8092 22.2922C17.9706 22.6737 18.4107 22.8521 18.7922 22.6907C19.1737 22.5293 19.3521 22.0893 19.1907 21.7078L13.8348 9.04845C14.3966 8.54494 14.75 7.81375 14.75 7C14.75 5.48122 13.5188 4.25 12 4.25ZM10.75 7C10.75 6.30964 11.3096 5.75 12 5.75C12.6904 5.75 13.25 6.30964 13.25 7C13.25 7.69036 12.6904 8.25 12 8.25C11.3096 8.25 10.75 7.69036 10.75 7ZM15.676 17.25L14.6183 14.75H9.3816L8.32391 17.25H15.676ZM13.9837 13.25H10.0162L11.515 9.70737C11.6725 9.73538 11.8345 9.75 12 9.75C12.1654 9.75 12.3275 9.73539 12.4849 9.70739L13.9837 13.25Z" fill="#353566"/>
<path d="M16.5121 4.99939C17.1439 5.54072 17.5 6.25086 17.5 7.00335C17.5 7.75584 17.1439 8.46598 16.5121 9.00731C16.1975 9.2768 16.1609 9.75026 16.4304 10.0648C16.6999 10.3794 17.1734 10.4159 17.4879 10.1465C18.4022 9.36326 19 8.25605 19 7.00335C19 5.75065 18.4022 4.64345 17.4879 3.86025C17.1734 3.59077 16.6999 3.62731 16.4304 3.94188C16.1609 4.25644 16.1975 4.72991 16.5121 4.99939Z" fill="#353566"/>
<path d="M7.48697 4.99939C6.85509 5.54072 6.49902 6.25086 6.49902 7.00335C6.49902 7.75584 6.85509 8.46598 7.48697 9.00731C7.80153 9.2768 7.83808 9.75026 7.56859 10.0648C7.29911 10.3794 6.82564 10.4159 6.51108 10.1465C5.59687 9.36326 4.99902 8.25605 4.99902 7.00335C4.99902 5.75065 5.59687 4.64345 6.51108 3.86025C6.82564 3.59077 7.29911 3.62731 7.56859 3.94188C7.83808 4.25644 7.80153 4.72991 7.48697 4.99939Z" fill="#353566"/>
</svg>
