<svg width="24" height="24" viewBox="0 0 24 24" fill="none" xmlns="http://www.w3.org/2000/svg">
<path d="M1.53568 9.02492C4.18496 6.32136 7.88549 4.75 12 4.75C14.829 4.75 17.4611 5.49302 19.6893 6.83369C20.0442 7.04725 20.505 6.93265 20.7186 6.57773C20.9321 6.22282 20.8175 5.76198 20.4626 5.54842C17.9948 4.06351 15.0942 3.25 12 3.25C7.49628 3.25 3.40531 4.97382 0.46432 7.97507C0.174412 8.27092 0.179227 8.74577 0.475075 9.03568C0.770924 9.32559 1.24577 9.32077 1.53568 9.02492Z" fill="#353566"/>
<path d="M11.9554 9.75009C12.3696 9.74834 12.704 9.41114 12.7023 8.99693C12.7005 8.58272 12.3633 8.24835 11.9491 8.25011C8.8712 8.26312 6.07265 9.47829 3.98463 11.4532C3.6837 11.7379 3.67049 12.2126 3.95512 12.5135C4.23975 12.8144 4.71444 12.8276 5.01537 12.543C6.84004 10.8171 9.27703 9.76142 11.9554 9.75009Z" fill="#353566"/>
<path d="M10.9243 14.8701C11.3279 14.7768 11.5794 14.374 11.4861 13.9704C11.3927 13.5668 10.9899 13.3153 10.5864 13.4086C9.48098 13.6642 8.52676 14.2134 7.73739 14.9525C7.43503 15.2356 7.41942 15.7103 7.70253 16.0126C7.98563 16.315 8.46025 16.3306 8.76261 16.0475C9.37958 15.4698 10.1022 15.0602 10.9243 14.8701Z" fill="#353566"/>
<path d="M12 18C11.4477 18 11 18.4477 11 19C11 19.5523 11.4477 20 12 20C12.5523 20 13.0001 19.5523 13.0001 19C13.0001 18.4477 12.5523 18 12 18Z" fill="#353566"/>
<path fill-rule="evenodd" clip-rule="evenodd" d="M18.25 12.125C17.2145 12.125 16.375 12.9645 16.375 14C16.375 15.0355 17.2145 15.875 18.25 15.875C19.2855 15.875 20.125 15.0355 20.125 14C20.125 12.9645 19.2855 12.125 18.25 12.125ZM17.625 14C17.625 13.6548 17.9048 13.375 18.25 13.375C18.5952 13.375 18.875 13.6548 18.875 14C18.875 14.3452 18.5952 14.625 18.25 14.625C17.9048 14.625 17.625 14.3452 17.625 14Z" fill="#353566"/>
<path fill-rule="evenodd" clip-rule="evenodd" d="M12.9679 16.3368C12.5193 15.5584 12.785 14.5624 13.5634 14.1121C13.6492 14.0625 13.6492 13.9374 13.5634 13.8878C12.785 13.4375 12.5193 12.4415 12.9679 11.6631L13.5876 10.5878C14.0367 9.80851 15.0325 9.54055 15.8118 9.99124C15.8949 10.0393 16.0026 9.98055 16.0026 9.87913C16.0026 8.98065 16.7301 8.25 17.6302 8.25L18.8697 8.25C19.7699 8.25 20.4973 8.98066 20.4973 9.87915C20.4973 9.98062 20.6051 10.0393 20.6882 9.99128C21.4674 9.54059 22.4632 9.80858 22.9123 10.5878L23.5321 11.6631C23.9807 12.4416 23.715 13.4376 22.9365 13.8878C22.8508 13.9374 22.8508 14.0625 22.9365 14.1121C23.715 14.5623 23.9807 15.5583 23.5321 16.3367L22.9123 17.4121C22.4632 18.1913 21.4674 18.4593 20.6882 18.0086C20.6052 17.9606 20.4973 18.0192 20.4973 18.1208C20.4973 19.0193 19.7699 19.75 18.8697 19.75H17.6303C16.7301 19.75 16.0026 19.0193 16.0026 18.1208C16.0026 18.0193 15.8948 17.9606 15.8118 18.0087C15.0325 18.4594 14.0367 18.1913 13.5876 17.4121L12.9679 16.3368ZM14.3144 15.4106C14.2534 15.4459 14.2315 15.5253 14.2675 15.5878L14.8872 16.6631C14.9228 16.7249 15.0005 16.745 15.0607 16.7102C16.1478 16.0814 17.5026 16.8688 17.5026 18.1208C17.5026 18.1934 17.5611 18.25 17.6303 18.25H18.8697C18.9389 18.25 18.9973 18.1934 18.9973 18.1208C18.9973 16.8688 20.3521 16.0814 21.4392 16.7101C21.4995 16.745 21.5771 16.7248 21.6127 16.6631L22.2325 15.5877C22.2685 15.5252 22.2466 15.4458 22.1855 15.4105C21.1012 14.7833 21.1012 13.2165 22.1855 12.5893C22.2466 12.5541 22.2685 12.4747 22.2325 12.4121L21.6127 11.3368C21.5771 11.275 21.4995 11.2549 21.4392 11.2897C20.3521 11.9185 18.9973 11.1312 18.9973 9.87915C18.9973 9.80656 18.9389 9.75 18.8697 9.75L17.6302 9.75C17.561 9.75 17.5026 9.80655 17.5026 9.87913C17.5026 11.1312 16.1478 11.9184 15.0608 11.2897C15.0005 11.2548 14.9228 11.275 14.8872 11.3368L14.2675 12.4121C14.2315 12.4746 14.2534 12.554 14.3144 12.5893C15.3988 13.2165 15.3988 14.7834 14.3144 15.4106Z" fill="#353566"/>
</svg>
