<svg width="24" height="24" viewBox="0 0 24 24" fill="none" xmlns="http://www.w3.org/2000/svg">
<path d="M12 4.75C7.88549 4.75 4.18496 6.32136 1.53568 9.02492C1.24577 9.32077 0.770924 9.32559 0.475075 9.03568C0.179227 8.74577 0.174412 8.27092 0.46432 7.97507C3.40531 4.97382 7.49628 3.25 12 3.25C15.2027 3.25 18.198 4.1216 20.7204 5.70698C21.0711 5.9274 21.1767 6.39038 20.9563 6.74108C20.7359 7.09178 20.2729 7.19739 19.9222 6.97698C17.6454 5.54598 14.9281 4.75 12 4.75Z" fill="#353566"/>
<path d="M12.5022 8.986C12.5115 9.40011 12.1833 9.74331 11.7692 9.75257C9.16443 9.81079 6.79779 10.8571 5.01537 12.543C4.71444 12.8276 4.23975 12.8144 3.95512 12.5135C3.67049 12.2126 3.6837 11.7379 3.98463 11.4532C6.02415 9.52416 8.74166 8.31986 11.7357 8.25294C12.1498 8.24369 12.493 8.57189 12.5022 8.986Z" fill="#353566"/>
<path d="M10.7058 14.0959C10.8583 14.4811 10.6697 14.9169 10.2845 15.0693C9.72382 15.2913 9.21521 15.6237 8.76261 16.0475C8.46025 16.3306 7.98563 16.315 7.70253 16.0126C7.41942 15.7102 7.43503 15.2356 7.73739 14.9525C8.31466 14.412 8.98098 13.9721 9.73245 13.6746C10.1176 13.5222 10.5534 13.7108 10.7058 14.0959Z" fill="#353566"/>
<path d="M11 19C11 18.4477 11.4477 18 12 18C12.5523 18 13.0001 18.4477 13.0001 19C13.0001 19.5523 12.5524 20 12.0001 20C11.4478 20 11 19.5523 11 19Z" fill="#353566"/>
<path d="M19.9419 12.9419C20.186 12.6979 20.186 12.3021 19.9419 12.0581C19.6978 11.814 19.3021 11.814 19.058 12.0581L18 13.116L16.9419 12.058C16.6979 11.8139 16.3021 11.8139 16.0581 12.058C15.814 12.3021 15.814 12.6978 16.0581 12.9419L17.1161 13.9999L16.058 15.0581C15.8139 15.3021 15.8139 15.6979 16.058 15.9419C16.3021 16.186 16.6978 16.186 16.9419 15.9419L18 14.8838L19.0581 15.9419C19.3022 16.186 19.6979 16.186 19.942 15.9419C20.1861 15.6978 20.1861 15.3021 19.942 15.058L18.8839 13.9999L19.9419 12.9419Z" fill="#353566"/>
<path fill-rule="evenodd" clip-rule="evenodd" d="M18 8.25C14.8244 8.25 12.25 10.8244 12.25 14C12.25 17.1756 14.8244 19.75 18 19.75C21.1756 19.75 23.75 17.1756 23.75 14C23.75 10.8244 21.1756 8.25 18 8.25ZM13.75 14C13.75 11.6528 15.6528 9.75 18 9.75C20.3472 9.75 22.25 11.6528 22.25 14C22.25 16.3472 20.3472 18.25 18 18.25C15.6528 18.25 13.75 16.3472 13.75 14Z" fill="#353566"/>
</svg>
