<svg width="24" height="24" viewBox="0 0 24 24" fill="none" xmlns="http://www.w3.org/2000/svg">
<path d="M11.25 4L11.25 15C11.25 15.4142 11.5858 15.75 12 15.75C12.4142 15.75 12.75 15.4142 12.75 15L12.75 4C12.75 3.58579 12.4142 3.25 12 3.25C11.5858 3.25 11.25 3.58579 11.25 4Z" fill="#353566"/>
<path d="M10.2413 4.0754C10.3043 4.4848 10.0234 4.86774 9.61404 4.93072C6.46516 5.41513 3.66253 6.85447 1.53568 9.02489C1.24577 9.32074 0.770923 9.32556 0.475075 9.03565C0.179227 8.74574 0.174412 8.27089 0.46432 7.97504C2.82344 5.56759 5.92422 3.98071 9.38596 3.44816C9.79536 3.38518 10.1783 3.666 10.2413 4.0754Z" fill="#353566"/>
<path d="M13.7587 4.0754C13.8217 3.666 14.2046 3.38518 14.614 3.44816C18.0758 3.98071 21.1766 5.56759 23.5357 7.97504C23.8256 8.27089 23.8208 8.74574 23.5249 9.03565C23.2291 9.32556 22.7542 9.32074 22.4643 9.02489C20.3375 6.85447 17.5348 5.41513 14.386 4.93072C13.9766 4.86774 13.6957 4.4848 13.7587 4.0754Z" fill="#353566"/>
<path d="M10.2299 9.11738C10.3251 9.52051 10.0754 9.92446 9.6723 10.0196C7.90248 10.4374 6.30587 11.3224 5.01537 12.543C4.71444 12.8276 4.23975 12.8144 3.95512 12.5135C3.67049 12.2125 3.6837 11.7378 3.98463 11.4532C5.46064 10.0571 7.29187 9.04028 9.3277 8.55974C9.73084 8.46458 10.1348 8.71424 10.2299 9.11738Z" fill="#353566"/>
<path d="M13.7701 9.11771C13.8653 8.71459 14.2693 8.465 14.6724 8.56024C16.7084 9.04122 18.5396 10.0586 20.0155 11.4552C20.3164 11.7399 20.3295 12.2146 20.0448 12.5155C19.76 12.8163 19.2854 12.8294 18.9845 12.5447C17.6941 11.3236 16.0975 10.4382 14.3276 10.0201C13.9244 9.92482 13.6749 9.52083 13.7701 9.11771Z" fill="#353566"/>
<path d="M10.1642 14.2569C10.3566 14.6238 10.2151 15.0771 9.8483 15.2695C9.45767 15.4743 9.09513 15.7361 8.76261 16.0474C8.46025 16.3306 7.98563 16.3149 7.70253 16.0126C7.41942 15.7102 7.43503 15.2356 7.73739 14.9525C8.16103 14.5558 8.63285 14.2131 9.1517 13.941C9.51853 13.7487 9.97185 13.8901 10.1642 14.2569Z" fill="#353566"/>
<path d="M13.8358 14.257C14.0281 13.8902 14.4815 13.7487 14.8483 13.9411C15.3671 14.2131 15.839 14.5558 16.2626 14.9525C16.565 15.2356 16.5806 15.7102 16.2975 16.0126C16.0144 16.3149 15.5398 16.3306 15.2374 16.0474C14.9049 15.7361 14.5424 15.4743 14.1517 15.2695C13.7849 15.0772 13.6434 14.6238 13.8358 14.257Z" fill="#353566"/>
<path d="M11 19C11 18.4477 11.4477 18 12 18C12.5523 18 13.0001 18.4477 13.0001 19C13.0001 19.5523 12.5524 20 12.0001 20C11.4478 20 11 19.5523 11 19Z" fill="#353566"/>
</svg>
