<svg width="24" height="24" viewBox="0 0 24 24" fill="none" xmlns="http://www.w3.org/2000/svg">
<path opacity="0.4" d="M17.2321 2.25H5.7679C4.95506 2.24999 4.29944 2.24999 3.76853 2.29336C3.2219 2.33803 2.74175 2.43239 2.29754 2.65873C1.59193 3.01825 1.01825 3.59193 0.658726 4.29754C0.432386 4.74175 0.338026 5.2219 0.293364 5.76853C0.249987 6.29944 0.249993 6.95505 0.25 7.76788V14.2321C0.249993 15.0449 0.249987 15.7006 0.293364 16.2315C0.338026 16.7781 0.432385 17.2582 0.658726 17.7025C1.01825 18.4081 1.59193 18.9818 2.29754 19.3413C2.74175 19.5676 3.2219 19.662 3.76853 19.7066C4.29944 19.75 4.95505 19.75 5.76788 19.75H11.5275C11.7451 19.75 11.9519 19.6555 12.0944 19.4911C12.2368 19.3267 12.3009 19.1085 12.2699 18.8932C12.2013 18.4169 12.3125 17.8916 12.5675 17.2944C12.6478 17.1063 12.6478 16.8936 12.5675 16.7054C12.192 15.826 12.1197 15.0962 12.514 14.4143L13.1357 13.339C13.5303 12.6565 14.201 12.3526 15.1537 12.236C15.3558 12.2113 15.5392 12.1055 15.6617 11.9429C16.2375 11.1786 16.8358 10.75 17.6283 10.75H18.8717C19.6642 10.75 20.2625 11.1786 20.8383 11.9429C20.9608 12.1055 21.1442 12.2114 21.3463 12.2361C21.5173 12.257 21.6805 12.2843 21.8355 12.3191C22.0578 12.3691 22.2907 12.3153 22.4686 12.173C22.6465 12.0307 22.75 11.8152 22.75 11.5874V7.76788C22.75 6.95505 22.75 6.29944 22.7066 5.76853C22.662 5.2219 22.5676 4.74175 22.3413 4.29754C21.9817 3.59193 21.4081 3.01825 20.7025 2.65873C20.2582 2.43239 19.7781 2.33803 19.2315 2.29336C18.7006 2.24999 18.0449 2.24999 17.2321 2.25Z" fill="#353566"/>
<path d="M5.71881 2.25H17.2812C18.0712 2.24999 18.7085 2.24999 19.225 2.29103C19.7566 2.33328 20.2242 2.4225 20.6586 2.63673C21.399 3.00184 21.9982 3.60105 22.3633 4.34142C22.5775 4.77582 22.6667 5.24338 22.709 5.77504C22.75 6.29154 22.75 6.92878 22.75 7.71883V8.5H0.25V7.71881C0.249994 6.92878 0.249988 6.29153 0.29103 5.77504C0.333278 5.24338 0.422504 4.77582 0.636728 4.34142C1.00184 3.60105 1.60105 3.00184 2.34142 2.63673C2.77582 2.4225 3.24338 2.33328 3.77504 2.29103C4.29153 2.24999 4.92878 2.24999 5.71881 2.25Z" fill="#353566"/>
<path d="M9.75 14.5C9.75 14.0858 9.41421 13.75 9 13.75H4.5C4.08579 13.75 3.75 14.0858 3.75 14.5C3.75 14.9142 4.08579 15.25 4.5 15.25H9C9.41421 15.25 9.75 14.9142 9.75 14.5Z" fill="#353566"/>
<path fill-rule="evenodd" clip-rule="evenodd" d="M13.8138 17.5449C13.2745 17.8569 13.09 18.5473 13.4012 19.0872L14.0209 20.1625C14.3321 20.7025 15.0219 20.8879 15.5615 20.5758C15.9792 20.3342 16.5027 20.6358 16.5027 21.1208C16.5027 21.744 17.0071 22.25 17.6303 22.25H18.8697C19.4929 22.25 19.9974 21.744 19.9974 21.1208C19.9974 20.6357 20.5209 20.3342 20.9386 20.5758C21.4782 20.8879 22.1679 20.7025 22.4792 20.1624L23.0989 19.0871C23.41 18.5473 23.2256 17.8568 22.6863 17.5449C22.2677 17.3028 22.2677 16.6971 22.6863 16.455C23.2256 16.1431 23.41 15.4526 23.0989 14.9128L22.4792 13.8375C22.1679 13.2974 21.4782 13.112 20.9386 13.4241C20.5209 13.6657 19.9974 13.3642 19.9974 12.8792C19.9974 12.256 19.4929 11.75 18.8698 11.75H17.6303C17.0071 11.75 16.5027 12.2559 16.5027 12.8791C16.5027 13.3641 15.9792 13.6657 15.5615 13.4241C15.0219 13.112 14.3321 13.2973 14.0209 13.8374L13.4012 14.9127C13.09 15.4525 13.2745 16.143 13.8138 16.455C14.2325 16.6971 14.2325 17.3028 13.8138 17.5449ZM19.75 17C19.75 17.8284 19.0784 18.5 18.25 18.5C17.4216 18.5 16.75 17.8284 16.75 17C16.75 16.1716 17.4216 15.5 18.25 15.5C19.0784 15.5 19.75 16.1716 19.75 17Z" fill="#353566"/>
</svg>
