<svg width="24" height="24" viewBox="0 0 24 24" fill="none" xmlns="http://www.w3.org/2000/svg">
<path opacity="0.4" d="M17.2321 2.25H5.7679C4.95506 2.24999 4.29944 2.24999 3.76853 2.29336C3.2219 2.33803 2.74175 2.43239 2.29754 2.65873C1.59193 3.01825 1.01825 3.59193 0.658726 4.29754C0.432386 4.74175 0.338026 5.2219 0.293364 5.76853C0.249987 6.29944 0.249993 6.95505 0.25 7.76788V14.2321C0.249993 15.0449 0.249987 15.7006 0.293364 16.2315C0.338026 16.7781 0.432385 17.2582 0.658726 17.7025C1.01825 18.4081 1.59193 18.9818 2.29754 19.3413C2.74175 19.5676 3.2219 19.662 3.76853 19.7066C4.29944 19.75 4.95505 19.75 5.76788 19.75H13.3171C13.5249 19.75 13.7234 19.6638 13.8653 19.5119C14.0071 19.36 14.0796 19.156 14.0653 18.9487C14.0552 18.8005 14.05 18.6509 14.05 18.5C14.05 14.9378 16.9378 12.05 20.5 12.05C20.9618 12.05 21.4115 12.0984 21.8445 12.1902C22.0658 12.2371 22.2964 12.1816 22.4722 12.0392C22.6479 11.8968 22.75 11.6827 22.75 11.4565V7.76788C22.75 6.95505 22.75 6.29944 22.7066 5.76853C22.662 5.2219 22.5676 4.74175 22.3413 4.29754C21.9817 3.59193 21.4081 3.01825 20.7025 2.65873C20.2582 2.43239 19.7781 2.33803 19.2315 2.29336C18.7006 2.24999 18.0449 2.24999 17.2321 2.25Z" fill="#353566"/>
<path d="M23 21.75C23.1989 21.75 23.3897 21.671 23.5303 21.5303C23.671 21.3897 23.75 21.1989 23.75 21L23.75 17C23.75 16.5858 23.4142 16.25 23 16.25C22.5858 16.25 22.25 16.5858 22.25 17L22.25 19.1894L18.5303 15.4697C18.2374 15.1768 17.7626 15.1768 17.4697 15.4697C17.1768 15.7626 17.1768 16.2374 17.4697 16.5303L21.1893 20.25H19C18.5858 20.25 18.25 20.5858 18.25 21C18.25 21.4142 18.5858 21.75 19 21.75H23Z" fill="#353566"/>
<path d="M9.75 14.5C9.75 14.0858 9.41422 13.75 9 13.75H4.5C4.08579 13.75 3.75 14.0858 3.75 14.5C3.75 14.9142 4.08579 15.25 4.5 15.25H9C9.41422 15.25 9.75 14.9142 9.75 14.5Z" fill="#353566"/>
<path d="M17.2812 2.25L5.71881 2.25C4.92877 2.24999 4.29154 2.24999 3.77504 2.29103C3.24338 2.33328 2.77582 2.4225 2.34142 2.63673C1.60105 3.00184 1.00184 3.60105 0.636729 4.34142C0.422505 4.77582 0.333279 5.24338 0.291031 5.77504C0.249991 6.29152 0.249994 6.92874 0.25 7.71875L0.250002 8.5H22.75V7.71883C22.75 6.92878 22.75 6.29154 22.709 5.77504C22.6667 5.24338 22.5775 4.77582 22.3633 4.34142C21.9982 3.60105 21.399 3.00184 20.6586 2.63673C20.2242 2.4225 19.7566 2.33328 19.225 2.29103C18.7085 2.24999 18.0712 2.24999 17.2812 2.25Z" fill="#353566"/>
</svg>
