<svg width="24" height="24" viewBox="0 0 24 24" fill="none" xmlns="http://www.w3.org/2000/svg">
<g opacity="0.4">
<path d="M15.75 6.00003C15.75 6.33044 15.7009 6.64772 15.61 6.95015C15.6981 6.8272 15.75 6.6765 15.75 6.51368L15.75 6.00003Z" fill="#353566"/>
<path d="M1.25 6.018V14.1176C1.25 15.3225 1.93651 16.3474 2.91098 17.0952C3.88766 17.8447 5.21554 18.3721 6.69642 18.6088C7.10543 18.6742 7.49002 18.3957 7.55542 17.9866C7.62082 17.5776 7.34226 17.193 6.93324 17.1276C5.6412 16.9211 4.56167 16.4711 3.82417 15.9052C3.08445 15.3376 2.75 14.7088 2.75 14.1176V12.967C2.7841 12.9952 2.81861 13.023 2.8535 13.0505C3.79827 13.7946 5.0842 14.3254 6.52207 14.5795C6.92997 14.6516 7.31907 14.3794 7.39116 13.9715C7.46325 13.5636 7.19102 13.1745 6.78313 13.1024C5.53105 12.8811 4.49067 12.4306 3.78163 11.8721C3.07128 11.3126 2.75 10.6975 2.75 10.1176V8.91755C1.85745 8.15935 1.2562 7.16881 1.25 6.018Z" fill="#353566"/>
<path d="M22.5 15.5001C22.5 11.6341 19.366 8.50006 15.5 8.50006C11.634 8.50006 8.5 11.6341 8.5 15.5001C8.5 19.3661 11.634 22.5001 15.5 22.5001C19.366 22.5001 22.5 19.3661 22.5 15.5001Z" fill="#353566"/>
</g>
<path d="M3.51073 2.53283C4.82326 1.72512 6.58913 1.25 8.5 1.25C10.4109 1.25 12.1767 1.72512 13.4893 2.53283C14.7897 3.33307 15.75 4.53785 15.75 6C15.75 6.22763 15.7262 6.45166 15.6803 6.67061C15.611 7.00137 15.329 7.2449 14.9917 7.26538C12.5436 7.41397 10.3827 8.63036 8.96941 10.4581C8.82552 10.6442 8.60267 10.7519 8.36747 10.7492C6.48662 10.7276 4.75281 10.2453 3.4652 9.4389C2.18868 8.63941 1.25 7.44516 1.25 6C1.25 4.53785 2.21034 3.33307 3.51073 2.53283Z" fill="#353566"/>
<path fill-rule="evenodd" clip-rule="evenodd" d="M14.8 11.5C14.8 11.2239 14.5762 11 14.3 11C14.0239 11 13.8 11.2239 13.8 11.5V12L13.7932 12H12.9C12.4858 12 12.15 12.3358 12.15 12.75C12.15 13.1642 12.4858 13.5 12.9 13.5H13.05V17.5H12.9C12.4858 17.5 12.15 17.8358 12.15 18.25C12.15 18.6642 12.4858 19 12.9 19H13.7932L13.8 19V19.5C13.8 19.7762 14.0239 20 14.3 20C14.5762 20 14.8 19.7762 14.8 19.5V19H15.4V19.5C15.4 19.7762 15.6239 20 15.9 20C16.1762 20 16.4 19.7762 16.4 19.5V19H16.725C17.8986 19 18.85 18.0486 18.85 16.875C18.85 16.1713 18.5079 15.5474 17.981 15.1607C18.1523 14.8543 18.25 14.5011 18.25 14.125C18.25 13.0446 17.4437 12.1525 16.4 12.0177V11.5C16.4 11.2239 16.1762 11 15.9 11C15.6239 11 15.4 11.2239 15.4 11.5V12H14.8V11.5ZM14.55 13.5V14.75H16.125C16.4702 14.75 16.75 14.4702 16.75 14.125C16.75 13.7798 16.4702 13.5 16.125 13.5H14.55ZM14.55 16.25V17.5H16.725C17.0702 17.5 17.35 17.2202 17.35 16.875C17.35 16.5298 17.0702 16.25 16.725 16.25H14.55Z" fill="#353566"/>
</svg>
