<svg width="24" height="24" viewBox="0 0 24 24" fill="none" xmlns="http://www.w3.org/2000/svg">
<path opacity="0.4" d="M22.75 14C22.75 9.16751 18.8325 5.25 14 5.25C9.16751 5.25 5.25 9.16751 5.25 14C5.25 18.8325 9.16751 22.75 14 22.75C18.8325 22.75 22.75 18.8325 22.75 14Z" fill="#353566"/>
<path d="M5.25 14C5.25 15.3841 5.57136 16.6931 6.14352 17.8565C3.24485 16.4309 1.25 13.4484 1.25 10C1.25 5.16751 5.16751 1.25 10 1.25C13.4484 1.25 16.4309 3.24485 17.8565 6.14352C16.6931 5.57136 15.3841 5.25 14 5.25C9.16751 5.25 5.25 9.16751 5.25 14Z" fill="#353566"/>
<path fill-rule="evenodd" clip-rule="evenodd" d="M13.3 10C13.3 9.72386 13.0762 9.5 12.8 9.5C12.5239 9.5 12.3 9.72386 12.3 10V10.5L12.2932 10.5H11.4C10.9858 10.5 10.65 10.8358 10.65 11.25C10.65 11.6642 10.9858 12 11.4 12H11.55V16H11.4C10.9858 16 10.65 16.3358 10.65 16.75C10.65 17.1642 10.9858 17.5 11.4 17.5H12.2932L12.3 17.5V18C12.3 18.2762 12.5239 18.5 12.8 18.5C13.0762 18.5 13.3 18.2762 13.3 18V17.5H13.9V18C13.9 18.2762 14.1239 18.5 14.4 18.5C14.6762 18.5 14.9 18.2762 14.9 18V17.5H15.225C16.3986 17.5 17.35 16.5486 17.35 15.375C17.35 14.6713 17.0079 14.0474 16.481 13.6607C16.6523 13.3543 16.75 13.0011 16.75 12.625C16.75 11.5446 15.9437 10.6525 14.9 10.5177V10C14.9 9.72386 14.6762 9.5 14.4 9.5C14.1239 9.5 13.9 9.72386 13.9 10V10.5H13.3V10ZM13.05 12V13.25H14.625C14.9702 13.25 15.25 12.9702 15.25 12.625C15.25 12.2798 14.9702 12 14.625 12H13.05ZM13.05 14.75V16H15.225C15.5702 16 15.85 15.7202 15.85 15.375C15.85 15.0298 15.5702 14.75 15.225 14.75H13.05Z" fill="#353566"/>
</svg>
