<svg width="24" height="24" viewBox="0 0 24 24" fill="none" xmlns="http://www.w3.org/2000/svg">
<path opacity="0.4" d="M14.2319 6.5H5.7679C4.95506 6.49999 4.29944 6.49999 3.76853 6.54336C3.2219 6.58803 2.74175 6.68239 2.29754 6.90873C1.59193 7.26825 1.01825 7.84193 0.658726 8.54754C0.432386 8.99175 0.338026 9.4719 0.293364 10.0185C0.249987 10.5494 0.249993 11.205 0.25 12.0179V15.9821C0.249993 16.7949 0.249987 17.4506 0.293364 17.9815C0.338026 18.5281 0.432386 19.0082 0.658726 19.4525C1.01825 20.1581 1.59193 20.7317 2.29754 21.0913C2.74175 21.3176 3.2219 21.412 3.76853 21.4566C4.29944 21.5 4.95505 21.5 5.76788 21.5H14.232C15.0448 21.5 15.7004 21.5 16.2313 21.4566C16.7779 21.412 17.2581 21.3176 17.7023 21.0913C18.4079 20.7317 18.9816 20.1581 19.3411 19.4525C19.5675 19.0082 19.6618 18.5281 19.7065 17.9815C19.7499 17.4506 19.7498 16.795 19.7498 15.9821V12.0179C19.7498 11.205 19.7499 10.5494 19.7065 10.0185C19.6618 9.4719 19.5675 8.99175 19.3411 8.54754C18.9816 7.84193 18.4079 7.26825 17.7023 6.90873C17.2581 6.68239 16.7779 6.58803 16.2313 6.54336C15.7004 6.49999 15.0448 6.49999 14.2319 6.5Z" fill="#353566"/>
<path d="M9.76793 2.5H18.232C19.0448 2.49999 19.7004 2.49999 20.2313 2.54336C20.778 2.58803 21.2581 2.68239 21.7023 2.90873C22.4079 3.26825 22.9816 3.84193 23.3411 4.54754C23.5675 4.99175 23.6618 5.4719 23.7065 6.01853C23.7499 6.54944 23.7499 7.20505 23.7499 8.01788V12.9821C23.7499 13.795 23.7499 14.4506 23.7065 14.9815C23.6618 15.5281 23.5675 16.0082 23.3411 16.4525C23.0109 17.1007 22.4999 17.6375 21.8719 17.9993C21.513 18.2061 21.0544 18.0828 20.8476 17.7238C20.6409 17.3649 20.7642 16.9064 21.1231 16.6996C21.4999 16.4825 21.8065 16.1604 22.0046 15.7715C22.1053 15.574 22.1744 15.3132 22.2115 14.8593C22.2493 14.3967 22.2499 13.8025 22.2499 12.95V8.05C22.2499 7.19755 22.2493 6.60331 22.2115 6.14068C22.1744 5.68681 22.1053 5.42604 22.0046 5.22852C21.7889 4.80516 21.4447 4.46095 21.0214 4.24524C20.8238 4.1446 20.5631 4.07547 20.1092 4.03838C19.6466 4.00058 19.0523 4 18.1999 4H9.80003C8.94758 4 8.35334 4.00058 7.89071 4.03838C7.43684 4.07547 7.17607 4.1446 6.97856 4.24524C6.58961 4.44341 6.26747 4.75005 6.0504 5.12686C5.84364 5.48578 5.38507 5.60914 5.02615 5.40238C4.66723 5.19562 4.54388 4.73705 4.75063 4.37813C5.11242 3.75008 5.64932 3.23903 6.29757 2.90873C6.74179 2.68239 7.22193 2.58803 7.76857 2.54336C8.29947 2.49999 8.95509 2.49999 9.76793 2.5Z" fill="#353566"/>
<path d="M10.0001 10.75C8.20514 10.75 6.75006 12.2051 6.75006 14C6.75006 15.7949 8.20514 17.25 10.0001 17.25C11.795 17.25 13.2501 15.7949 13.2501 14C13.2501 12.2051 11.795 10.75 10.0001 10.75Z" fill="#353566"/>
</svg>
