<svg width="24" height="24" viewBox="0 0 24 24" fill="none" xmlns="http://www.w3.org/2000/svg">
<path opacity="0.4" d="M16.4326 2.25H6.56739C5.61495 2.24999 4.85439 2.24999 4.24013 2.30018C3.61012 2.35165 3.06824 2.45963 2.57054 2.71322C1.77085 3.12068 1.12068 3.77085 0.713223 4.57054C0.459634 5.06824 0.35165 5.61012 0.300176 6.24013C0.249989 6.85439 0.249994 7.61494 0.25 8.56738V13.4326C0.249994 14.3851 0.249989 15.1456 0.300176 15.7599C0.35165 16.3899 0.459634 16.9318 0.713223 17.4295C1.12068 18.2291 1.77085 18.8793 2.57054 19.2868C3.06824 19.5404 3.61012 19.6483 4.24013 19.6998C4.85438 19.75 5.6149 19.75 6.5673 19.75H13.1265C13.3994 19.75 13.6508 19.6018 13.7828 19.3629C14.27 18.4819 15.0094 17.7454 15.9201 17.0902C16.083 16.973 16.1921 16.7954 16.2231 16.5971C16.254 16.3987 16.2042 16.1963 16.0847 16.035L15.783 15.6277C15.2907 14.9631 15 14.1423 15 13.25C15 11.0409 16.7909 9.25 19 9.25C19.9588 9.25 20.837 9.58639 21.526 10.1483C21.7504 10.3313 22.0601 10.3688 22.3217 10.2446C22.5833 10.1203 22.75 9.85664 22.75 9.56706V8.56737C22.75 7.61496 22.75 6.85438 22.6998 6.24013C22.6483 5.61012 22.5404 5.06824 22.2868 4.57054C21.8793 3.77085 21.2291 3.12068 20.4295 2.71322C19.9318 2.45963 19.3899 2.35165 18.7599 2.30018C18.1456 2.24999 17.3851 2.24999 16.4326 2.25Z" fill="#353566"/>
<path d="M11.5 7.5C9.567 7.5 8 9.067 8 11C8 12.933 9.567 14.5 11.5 14.5C12.6159 14.5 13.6099 13.9777 14.2508 13.1643C14.2668 12.261 14.5349 11.4191 14.9878 10.7062C14.8386 8.91071 13.3341 7.5 11.5 7.5Z" fill="#353566"/>
<path d="M5 10C4.44772 10 4 10.4477 4 11C4 11.5523 4.44772 12 5 12C5.55228 12 6.0001 11.5523 6.0001 11C6.0001 10.4477 5.55228 10 5 10Z" fill="#353566"/>
<path d="M19 17.5C16.921 17.5 15.0199 18.9168 14.5158 20.8754C14.4773 21.0251 14.5101 21.1842 14.6048 21.3063C14.6995 21.4285 14.8454 21.5 15 21.5H23C23.1546 21.5 23.3005 21.4285 23.3952 21.3063C23.4899 21.1842 23.5228 21.0251 23.4842 20.8754C22.9801 18.9168 21.0789 17.5 19 17.5Z" fill="#353566"/>
<path d="M16.25 13.25C16.25 11.7312 17.4812 10.5 19 10.5C20.5188 10.5 21.75 11.7312 21.75 13.25C21.75 14.7688 20.5188 16 19 16C17.4812 16 16.25 14.7688 16.25 13.25Z" fill="#353566"/>
</svg>
