<svg width="24" height="24" viewBox="0 0 24 24" fill="none" xmlns="http://www.w3.org/2000/svg">
<path opacity="0.4" d="M17.7637 1.75C15.5712 1.75 13.7607 2.26773 12.0327 2.76192L11.9444 2.78717C10.1792 3.29177 8.48258 3.76656 6.39081 3.76656C5.31871 3.76656 4.31983 3.55361 3.23473 3.24464C2.67673 3.08575 2.08133 3.15545 1.60549 3.43545C1.11602 3.72347 0.75 4.24358 0.75 4.9108V16.1449C0.75 16.7566 0.924693 17.2893 1.26344 17.7254C1.59329 18.1501 2.04038 18.4342 2.51044 18.6295C3.50506 19.0484 4.33549 19.25 6.2363 19.25C8.42884 19.25 10.2393 18.7323 11.9674 18.2381L12.0556 18.2128C13.8208 17.7082 15.5174 17.2334 17.6092 17.2334C18.6813 17.2334 19.6802 17.4464 20.7653 17.7554C21.3233 17.9142 21.9187 17.8445 22.3945 17.5645C22.884 17.2765 23.25 16.7564 23.25 16.0892V4.85513C23.25 4.24344 23.0753 3.71073 22.7366 3.27461C22.4067 2.84994 21.9596 2.56576 21.4895 2.37047C20.4949 1.95165 19.6645 1.75 17.7637 1.75Z" fill="#353566"/>
<path d="M11.9999 6.25C14.0313 6.25 15.4999 8.26267 15.4999 10.5C15.4999 12.7373 14.0313 14.75 11.9999 14.75C9.96856 14.75 8.49991 12.7373 8.49991 10.5C8.49991 8.26267 9.96856 6.25 11.9999 6.25Z" fill="#353566"/>
<path d="M22.7465 19.6541C19.747 18.6096 16.7013 18.8626 13.7476 19.5476C12.9126 19.7226 12.0563 19.9797 11.2113 20.2335L10.9121 20.3232C9.95411 20.6097 8.99854 20.8844 8.01591 21.0606C6.07292 21.4089 4.0475 21.3678 1.84791 20.2156C1.48099 20.0235 1.02773 20.1651 0.835533 20.532C0.643337 20.8989 0.784982 21.3522 1.15191 21.5444C3.7251 22.8922 6.10953 22.9262 8.28058 22.537C9.35497 22.3444 10.3825 22.0473 11.3419 21.7603L11.639 21.6713C12.4974 21.4137 13.2922 21.1751 14.0625 21.0142L14.0788 21.0106C16.9076 20.3538 19.6334 20.1584 22.2533 21.0707C22.6444 21.2069 23.072 21.0003 23.2082 20.6091C23.3444 20.2179 23.1377 19.7904 22.7465 19.6541Z" fill="#353566"/>
</svg>
