<svg width="24" height="24" viewBox="0 0 24 24" fill="none" xmlns="http://www.w3.org/2000/svg">
<path opacity="0.4" d="M16.4326 2.25H6.56739C5.61495 2.24999 4.85439 2.24999 4.24013 2.30018C3.61012 2.35165 3.06824 2.45963 2.57054 2.71322C1.77085 3.12068 1.12068 3.77085 0.713223 4.57054C0.459634 5.06824 0.35165 5.61012 0.300176 6.24013C0.249989 6.85439 0.249994 7.61494 0.25 8.56738V13.4326C0.249994 14.3851 0.249989 15.1456 0.300176 15.7599C0.35165 16.3899 0.459634 16.9318 0.713223 17.4295C1.12068 18.2291 1.77085 18.8793 2.57054 19.2868C3.06824 19.5404 3.61012 19.6483 4.24013 19.6998C4.85438 19.75 5.6149 19.75 6.5673 19.75H10.5815C10.8309 19.75 11.064 19.626 11.2034 19.4192C11.3428 19.2124 11.3703 18.9498 11.2767 18.7186C10.9373 17.88 10.75 16.9628 10.75 16C10.75 11.9959 13.9959 8.75 18 8.75C19.3218 8.75 20.5588 9.10304 21.6245 9.71946C21.8565 9.85369 22.1425 9.85387 22.3747 9.71993C22.6069 9.586 22.75 9.33832 22.75 9.07026V8.56737C22.75 7.61496 22.75 6.85438 22.6998 6.24013C22.6483 5.61012 22.5404 5.06824 22.2868 4.57054C21.8793 3.77085 21.2291 3.12068 20.4295 2.71322C19.9318 2.45963 19.3899 2.35165 18.7599 2.30018C18.1456 2.24999 17.3851 2.24999 16.4326 2.25Z" fill="#353566"/>
<path d="M8 11C8 9.067 9.567 7.5 11.5 7.5C12.6467 7.5 13.6646 8.05146 14.303 8.90364C12.2448 9.97811 10.7123 11.9218 10.1925 14.2476C8.90719 13.7297 8 12.4708 8 11Z" fill="#353566"/>
<path d="M4 11C4 10.4477 4.44772 10 5 10C5.55228 10 6.0001 10.4477 6.0001 11C6.0001 11.5523 5.55238 12 5.0001 12C4.44782 12 4 11.5523 4 11Z" fill="#353566"/>
<path fill-rule="evenodd" clip-rule="evenodd" d="M18 10.25C14.8244 10.25 12.25 12.8244 12.25 16C12.25 19.1756 14.8244 21.75 18 21.75C21.1756 21.75 23.75 19.1756 23.75 16C23.75 12.8244 21.1756 10.25 18 10.25ZM17.375 16.9912V13.5C17.375 13.1548 17.6548 12.875 18 12.875C18.3452 12.875 18.625 13.1548 18.625 13.5V16.9911L19.5581 16.0581C19.8021 15.814 20.1979 15.814 20.442 16.0581C20.686 16.3021 20.686 16.6979 20.442 16.9419L18.4419 18.942C18.1979 19.186 17.8021 19.186 17.558 18.942L15.5581 16.942C15.314 16.6979 15.314 16.3022 15.5581 16.0581C15.8021 15.814 16.1979 15.814 16.4419 16.0581L17.375 16.9912Z" fill="#353566"/>
</svg>
