<svg width="24" height="24" viewBox="0 0 24 24" fill="none" xmlns="http://www.w3.org/2000/svg">
<path opacity="0.4" d="M8.90682 6H15.0932C15.1108 6.00921 15.1285 6.01851 15.146 6.02789C19.2109 8.19582 21.75 12.4276 21.75 17.0345V18C21.75 20.6234 19.6234 22.75 17 22.75H7C4.37665 22.75 2.25 20.6234 2.25 18V17.0345C2.25 12.4276 4.78909 8.19582 8.85396 6.02789C8.87154 6.01851 8.88916 6.00921 8.90682 6Z" fill="#353566"/>
<path d="M7.82261 1.25C6.65742 1.25 5.89958 2.47621 6.42067 3.51838C6.95535 4.58773 7.81123 5.45284 8.85722 6H15.1428C16.1888 5.45284 17.0447 4.58773 17.5793 3.51838C18.1004 2.47621 17.3426 1.25 16.1774 1.25H7.82261Z" fill="#353566"/>
<path fill-rule="evenodd" clip-rule="evenodd" d="M11.3 10.5C11.3 10.2239 11.0762 10 10.8 10C10.5239 10 10.3 10.2239 10.3 10.5V11L10.2932 11H9.40002C8.98581 11 8.65002 11.3358 8.65002 11.75C8.65002 12.1642 8.98581 12.5 9.40002 12.5H9.55005V16.5H9.40002C8.98581 16.5 8.65002 16.8358 8.65002 17.25C8.65002 17.6642 8.98581 18 9.40002 18H10.2932L10.3 18V18.5C10.3 18.7762 10.5239 19 10.8 19C11.0762 19 11.3 18.7762 11.3 18.5V18H11.9V18.5C11.9 18.7762 12.1239 19 12.4 19C12.6762 19 12.9 18.7762 12.9 18.5V18H13.225C14.3986 18 15.35 17.0486 15.35 15.875C15.35 15.1713 15.0079 14.5474 14.481 14.1607C14.6523 13.8543 14.75 13.5011 14.75 13.125C14.75 12.0446 13.9437 11.1525 12.9 11.0177V10.5C12.9 10.2239 12.6762 10 12.4 10C12.1239 10 11.9 10.2239 11.9 10.5V11H11.3V10.5ZM11.05 12.5V13.75H12.625C12.9702 13.75 13.25 13.4702 13.25 13.125C13.25 12.7798 12.9702 12.5 12.625 12.5H11.05ZM11.05 15.25V16.5H13.225C13.5702 16.5 13.85 16.2202 13.85 15.875C13.85 15.5298 13.5702 15.25 13.225 15.25H11.05Z" fill="#353566"/>
</svg>
