<svg width="24" height="24" viewBox="0 0 24 24" fill="none" xmlns="http://www.w3.org/2000/svg">
<g clip-path="url(#clip0_9001_297701)">
<path opacity="0.4" d="M18.2321 4.75H7.7679C6.95506 4.74999 6.29944 4.74999 5.76853 4.79336C5.2219 4.83803 4.74175 4.93239 4.29754 5.15873C3.59193 5.51825 3.01825 6.09193 2.65873 6.79754C2.43239 7.24175 2.33803 7.7219 2.29336 8.26853C2.24999 8.79944 2.24999 9.45505 2.25 10.2679V12.9068C2.25 13.2439 2.4748 13.5395 2.79956 13.6296C3.12431 13.7196 3.46927 13.582 3.64286 13.2931C3.99112 12.7136 4.54896 12.2676 5.23058 12.0688L7.7109 11.3454C9.23095 10.902 10.751 12.0421 10.751 13.6255V15.0198C10.751 16.1309 10.0176 17.1087 8.95093 17.4199L7.29049 17.9042C6.97049 17.9975 6.75049 18.2908 6.75049 18.6242V20.9999C6.75049 21.4139 7.08592 21.7496 7.49991 21.7499L18.2321 21.75C19.045 21.75 19.7006 21.75 20.2315 21.7066C20.7781 21.662 21.2582 21.5676 21.7025 21.3413C22.4081 20.9818 22.9817 20.4081 23.3413 19.7025C23.5676 19.2582 23.662 18.7781 23.7066 18.2315C23.75 17.7006 23.75 17.045 23.75 16.2321V10.2679C23.75 9.45505 23.75 8.79944 23.7066 8.26853C23.662 7.7219 23.5676 7.24175 23.3413 6.79754C22.9817 6.09193 22.4081 5.51825 21.7025 5.15873C21.2582 4.93239 20.7781 4.83803 20.2315 4.79336C19.7006 4.74999 19.0449 4.74999 18.2321 4.75Z" fill="#353566"/>
<path d="M17.0726 0.359402C17.4922 0.254752 17.9137 0.19813 18.3376 0.30064C18.9624 0.451727 19.505 0.837671 19.8527 1.37832C20.0886 1.74513 20.1734 2.16184 20.2122 2.59262C20.25 3.01224 20.25 3.53805 20.25 4.17162V4.7953L20.2314 4.79376C19.7005 4.75039 19.0449 4.75039 18.2321 4.7504H7.76787C6.95504 4.75039 6.29941 4.75039 5.7685 4.79376C5.22187 4.83842 4.74172 4.93278 4.29751 5.15912C3.5919 5.51863 3.01822 6.0923 2.6587 6.79789C2.43236 7.2421 2.338 7.72223 2.29333 8.26886C2.25422 8.74753 2.25038 9.32756 2.25001 10.0328L2.24997 9.82799C2.24952 8.54501 2.24923 7.69438 2.5391 6.94916C2.79442 6.29278 3.20887 5.71013 3.74518 5.25362C4.35407 4.73532 5.15773 4.45654 6.36987 4.03608L15.5686 0.84169C16.1671 0.63384 16.6638 0.461339 17.0726 0.359402Z" fill="#353566"/>
<path d="M18 13.2505C18 12.6982 18.4477 12.2505 19 12.2505C19.5523 12.2505 20.0001 12.6982 20.0001 13.2505C20.0001 13.8028 19.5524 14.2505 19.0001 14.2505C18.4478 14.2505 18 13.8028 18 13.2505Z" fill="#353566"/>
<path d="M8.60093 16.2202L5.50049 17.1245V21.4912L5.50051 21.5001C5.50051 22.0645 5.21143 22.5883 4.71465 22.9609C4.22322 23.3295 3.60099 23.5003 3.00026 23.5003C2.39952 23.5003 1.77729 23.3295 1.28586 22.9609C0.789085 22.5883 0.5 22.0645 0.5 21.5001C0.5 20.9357 0.789085 20.4119 1.28586 20.0393C1.77729 19.6708 2.39952 19.4999 3.00026 19.4999C3.5167 19.4999 4.04903 19.6262 4.50049 19.8958V14.7093C4.50049 14.0425 4.94053 13.4558 5.58058 13.2691L8.0609 12.5457C8.78095 12.3357 9.501 12.8757 9.501 13.6258V15.0201C9.501 15.5757 9.13431 16.0646 8.60093 16.2202Z" fill="#353566"/>
</g>
<defs>
<clipPath id="clip0_9001_297701">
<rect width="24" height="24" fill="white"/>
</clipPath>
</defs>
</svg>
