<svg width="24" height="24" viewBox="0 0 24 24" fill="none" xmlns="http://www.w3.org/2000/svg">
<g clip-path="url(#clip0_9001_271116)">
<g opacity="0.4">
<path d="M5 4H17C18.4001 4 19.1002 4 19.635 4.27248C20.1054 4.51217 20.4878 4.89462 20.7275 5.36502C21 5.8998 21 6.59987 21 8V10.16C21 11.5041 21 12.1762 20.7384 12.6896C20.5196 13.119 20.1769 13.4721 19.7555 13.7036C19.6358 13.634 19.5046 13.58 19.3638 13.5448C18.806 13.4053 18.2427 13.5982 17.8833 13.998C17.6659 14 17.4261 14 17.16 14L12.5 14V13.25C12.5 12.4216 11.8284 11.75 11 11.75C10.1716 11.75 9.5 12.4216 9.5 13.25V14H4.84C3.49587 14 2.82381 14 2.31042 13.7384C1.85883 13.5083 1.49168 13.1412 1.26159 12.6896C1 12.1762 1 11.5041 1 10.16V8C1 6.59987 1 5.8998 1.27248 5.36502C1.51217 4.89462 1.89462 4.51217 2.36502 4.27249C2.8998 4 3.59987 4 5 4Z" fill="#353566"/>
<path d="M17.8833 13.998C17.6659 14 17.4261 14 17.16 14L12.5 14V14.7501C12.5 15.5785 11.8284 16.2501 11 16.2501C10.1716 16.2501 9.5 15.5785 9.5 14.7501V14H4.84C3.49587 14 2.82381 14 2.31042 13.7384C1.99222 13.5763 1.71595 13.3462 1.5 13.0664V15.8001C1.5 17.6202 1.5 18.5303 1.85423 19.2255C2.16582 19.8371 2.663 20.3343 3.27453 20.6458C3.96974 21.0001 4.87983 21.0001 6.7 21.0001H12.8994L11.9289 20.0102C11.3569 19.4267 11.3666 18.4607 11.9502 17.8887L13.9502 15.9287C14.3853 15.5023 15.0164 15.3925 15.5538 15.6052L16.9047 16.1398C17.0156 16.1837 17.1399 16.1214 17.1713 16.0064L17.5531 14.6046C17.6164 14.372 17.7318 14.1665 17.8833 13.998Z" fill="#353566"/>
<path d="M20.5 14.7751V13.0664C20.2991 13.3267 20.0459 13.544 19.7555 13.7036C20.0849 13.8951 20.3264 14.2049 20.4362 14.5656L20.5 14.7751Z" fill="#353566"/>
</g>
<path fill-rule="evenodd" clip-rule="evenodd" d="M9.37935 0.499878H12.6206C13.0231 0.499872 13.3553 0.499867 13.6259 0.521976C13.907 0.544938 14.1653 0.59422 14.408 0.717866C14.7843 0.909612 15.0903 1.21557 15.282 1.5919C15.4057 1.83457 15.4549 2.09292 15.4779 2.37397C15.5 2.64456 15.5 2.97674 15.5 3.37922V3.49988H17.0219C17.7034 3.49987 18.2454 3.49987 18.6827 3.5356C19.1305 3.57219 19.5123 3.64872 19.862 3.82686C20.4265 4.11448 20.8854 4.57343 21.173 5.13792C21.3512 5.48755 21.4277 5.86939 21.4643 6.31719C21.5 6.75444 21.5 7.29638 21.5 7.9778V10.1817C21.5 10.8352 21.5 11.3564 21.4656 11.777C21.4304 12.2081 21.3566 12.5776 21.1839 12.9165C21.1288 13.0247 21.0672 13.1289 20.9995 13.2285L20.9998 13.2358L21 13.25V15.4323L20.7719 15.3633C20.708 15.344 20.658 15.2941 20.6385 15.2302L20.4362 14.5657C20.2864 14.0739 19.8923 13.6769 19.3638 13.5448C18.6067 13.3555 17.8398 13.7784 17.5857 14.4996C17.457 14.5 17.3225 14.5 17.1819 14.5H13V14.75C13 15.8546 12.1046 16.75 11 16.75C9.89543 16.75 9 15.8546 9 14.75V14.5H4.81819C4.16463 14.5 3.64358 14.5 3.22297 14.4656C2.79184 14.4304 2.42236 14.3566 2.08343 14.1839C2.05535 14.1696 2.02753 14.1548 2 14.1397V15.8C2 16.7183 2.00039 17.377 2.04262 17.8938C2.08437 18.4049 2.16452 18.7331 2.29973 18.9985C2.56338 19.5159 2.98408 19.9366 3.50153 20.2003C3.7669 20.3355 4.0951 20.4156 4.60612 20.4574C5.12298 20.4996 5.78166 20.5 6.7 20.5H12.409L13.3894 21.5H6.67765C5.78648 21.5 5.08703 21.5 4.52469 21.4541C3.95183 21.4073 3.47738 21.3103 3.04754 21.0913C2.34193 20.7317 1.76825 20.1581 1.40873 19.4524C1.18971 19.0226 1.09274 18.5482 1.04594 17.9753C0.999995 17.4129 0.999997 16.7135 1 15.8223V13.25C1 13.2428 1.00015 13.2356 1.00045 13.2285C0.932818 13.1289 0.871197 13.0247 0.816083 12.9165C0.643389 12.5776 0.569583 12.2081 0.534359 11.777C0.499993 11.3564 0.499996 10.8353 0.5 10.1817V7.97804C0.499997 7.29652 0.499994 6.75449 0.535722 6.31719C0.572309 5.86939 0.648839 5.48755 0.826981 5.13792C1.1146 4.57343 1.57354 4.11449 2.13803 3.82686C2.48765 3.64872 2.86949 3.57219 3.31729 3.5356C3.75458 3.49987 4.2966 3.49987 4.97812 3.49988H6.5V3.37923C6.49999 2.97676 6.49999 2.64456 6.5221 2.37397C6.54506 2.09292 6.59434 1.83457 6.71799 1.5919C6.90973 1.21557 7.2157 0.909612 7.59202 0.717866C7.83469 0.59422 8.09304 0.544938 8.37409 0.521976C8.64468 0.499867 8.97687 0.499872 9.37935 0.499878ZM14.5 3.39988V3.49988H7.5V3.39988C7.5 2.97159 7.50039 2.68044 7.51878 2.4554C7.53669 2.23619 7.56915 2.12409 7.60899 2.04589C7.70487 1.85773 7.85785 1.70475 8.04601 1.60887C8.12421 1.56903 8.23631 1.53656 8.45552 1.51865C8.68056 1.50027 8.97171 1.49988 9.4 1.49988H12.6C13.0283 1.49988 13.3194 1.50027 13.5445 1.51865C13.7637 1.53656 13.8758 1.56903 13.954 1.60887C14.1422 1.70475 14.2951 1.85773 14.391 2.04589C14.4309 2.12409 14.4633 2.23619 14.4812 2.4554C14.4996 2.68044 14.5 2.97159 14.5 3.39988ZM10 14.75V13.25C10 12.6977 10.4477 12.25 11 12.25C11.5523 12.25 12 12.6977 12 13.25V13.99L12 13.995L12 14V14.75C12 15.3023 11.5523 15.75 11 15.75C10.4477 15.75 10 15.3023 10 14.75ZM17.16 13.5H13V13.25C13 12.1454 12.1046 11.2499 11 11.2499C9.89543 11.2499 9 12.1454 9 13.25V13.5H4.84C4.15969 13.5 3.67952 13.4996 3.3044 13.4689C2.93512 13.4388 2.71188 13.3818 2.53742 13.2929C2.17991 13.1107 1.88925 12.8201 1.70709 12.4625C1.6182 12.2881 1.56121 12.0648 1.53104 11.6956C1.50039 11.3204 1.5 10.8403 1.5 10.1599L1.5 7.99992C1.5 7.2916 1.50039 6.79042 1.5324 6.39862C1.56394 6.01266 1.62365 5.77707 1.71799 5.59192C1.90973 5.21559 2.2157 4.90962 2.59202 4.71788C2.77717 4.62353 3.01276 4.56382 3.39872 4.53229C3.79052 4.50028 4.29168 4.49989 5 4.49989H17C17.7083 4.49989 18.2095 4.50028 18.6013 4.53229C18.9872 4.56382 19.2228 4.62353 19.408 4.71788C19.7843 4.90962 20.0903 5.21559 20.282 5.59191C20.3764 5.77707 20.4361 6.01266 20.4676 6.39862C20.4996 6.79042 20.5 7.29159 20.5 7.99992V10.1599C20.5 10.8403 20.4996 11.3204 20.469 11.6956C20.4388 12.0648 20.3818 12.2881 20.2929 12.4625C20.1108 12.8201 19.8201 13.1107 19.4626 13.2929C19.2881 13.3818 19.0649 13.4388 18.6956 13.4689C18.3205 13.4996 17.8403 13.5 17.16 13.5Z" fill="#353566"/>
<path d="M15.35 17.3571C15.5472 17.1638 15.5504 16.8473 15.3571 16.65C15.1638 16.4528 14.8473 16.4496 14.65 16.6429L12.65 18.6029C12.5553 18.6957 12.5014 18.8224 12.5 18.955C12.4987 19.0876 12.5501 19.2153 12.643 19.31L14.6429 21.35C14.8362 21.5472 15.1528 21.5504 15.35 21.357C15.5472 21.1637 15.5503 20.8472 15.357 20.65L13.7071 18.9671L15.35 17.3571Z" fill="#353566"/>
<path d="M20.6427 16.6502C20.8359 16.4529 21.1525 16.4495 21.3498 16.6427L23.3498 18.6007C23.4446 18.6935 23.4986 18.8201 23.5 18.9527C23.5014 19.0854 23.45 19.2131 23.3572 19.3079L21.3572 21.3499C21.164 21.5471 20.8474 21.5504 20.6501 21.3572C20.4529 21.164 20.4496 20.8474 20.6428 20.6501L22.2929 18.9654L20.6502 17.3573C20.4529 17.1641 20.4495 16.8475 20.6427 16.6502Z" fill="#353566"/>
<path d="M19.4851 15.1213C19.552 14.8534 19.3892 14.5819 19.1213 14.5149C18.8534 14.448 18.5819 14.6108 18.5149 14.8787L16.5149 22.8787C16.448 23.1466 16.6108 23.4181 16.8787 23.4851C17.1466 23.552 17.4181 23.3892 17.4851 23.1213L19.4851 15.1213Z" fill="#353566"/>
</g>
<defs>
<clipPath id="clip0_9001_271116">
<rect width="24" height="24" fill="white"/>
</clipPath>
</defs>
</svg>
