<svg width="24" height="24" viewBox="0 0 24 24" fill="none" xmlns="http://www.w3.org/2000/svg">
<path d="M10.5862 9.74998V7.75H12.75C13.3023 7.75 13.75 8.19772 13.75 8.75001C13.75 9.29899 13.3076 9.74465 12.7599 9.74998H10.5862Z" fill="#353566"/>
<path d="M10.5862 13.25V11.25H12.75L12.7657 11.25H13.5C14.0523 11.25 14.5 11.6977 14.5 12.25C14.5 12.8023 14.0523 13.25 13.5 13.25H10.5862Z" fill="#353566"/>
<path fill-rule="evenodd" clip-rule="evenodd" d="M8.367 0.25H15.633C16.7251 0.249995 17.5907 0.249991 18.2883 0.306988C19.0017 0.365275 19.6053 0.486883 20.1565 0.76772C21.0502 1.22312 21.7769 1.94978 22.2323 2.84355C22.5131 3.39472 22.6347 3.99834 22.693 4.71173C22.75 5.40935 22.75 6.27484 22.75 7.36698V13.633C22.75 14.7252 22.75 15.5906 22.693 16.2883C22.6347 17.0017 22.5131 17.6053 22.2323 18.1565C21.7769 19.0502 21.0502 19.7769 20.1565 20.2323C19.6053 20.5131 19.0017 20.6347 18.2883 20.693C17.5906 20.75 16.7252 20.75 15.633 20.75L14.9061 20.75L13.9501 22.2146C13.742 22.5334 13.5585 22.8145 13.3901 23.0275C13.2162 23.2473 12.9935 23.4815 12.6766 23.6144C12.2438 23.7959 11.7562 23.7959 11.3234 23.6144C11.0065 23.4815 10.7838 23.2473 10.6099 23.0275C10.4414 22.8145 10.2581 22.5335 10.05 22.2146L9.09392 20.75L8.36698 20.75C7.27484 20.75 6.40935 20.75 5.71173 20.693C4.99835 20.6347 4.39472 20.5131 3.84355 20.2323C2.94978 19.7769 2.22312 19.0502 1.76772 18.1565C1.48688 17.6053 1.36527 17.0017 1.30699 16.2883C1.24999 15.5907 1.24999 14.7252 1.25 13.633V7.367C1.24999 6.27486 1.24999 5.40935 1.30699 4.71173C1.36527 3.99835 1.48688 3.39472 1.76772 2.84355C2.22312 1.94978 2.94978 1.22312 3.84355 0.76772C4.39472 0.486883 4.99834 0.365275 5.71173 0.306988C6.40935 0.249991 7.27487 0.249995 8.367 0.25ZM11.125 5.5C11.125 5.15482 10.8452 4.875 10.5 4.875C10.1548 4.875 9.875 5.15482 9.875 5.5V6.25H8.75C8.33579 6.25 8 6.58579 8 7C8 7.41421 8.33579 7.75 8.75 7.75H9.08618V13.25H8.75C8.33579 13.25 8 13.5858 8 14C8 14.4142 8.33579 14.75 8.75 14.75H9.875V15.5C9.875 15.8452 10.1548 16.125 10.5 16.125C10.8452 16.125 11.125 15.8452 11.125 15.5V14.75H11.875V15.5C11.875 15.8452 12.1548 16.125 12.5 16.125C12.8452 16.125 13.125 15.8452 13.125 15.5V14.75H13.5C14.8807 14.75 16 13.6307 16 12.25C16 11.359 15.5339 10.5769 14.8322 10.1341C15.0962 9.73783 15.25 9.26188 15.25 8.75001C15.25 7.49675 14.3278 6.45888 13.125 6.27794V5.5C13.125 5.15482 12.8452 4.875 12.5 4.875C12.1548 4.875 11.875 5.15482 11.875 5.5V6.25H11.125V5.5Z" fill="#353566"/>
</svg>
