<svg width="24" height="24" viewBox="0 0 24 24" fill="none" xmlns="http://www.w3.org/2000/svg">
<g clip-path="url(#clip0_9001_302037)">
<path d="M9.94692 8.83346L9.94692 10.2501H11.6251C12.0163 10.2501 12.3334 9.93301 12.3334 9.5418C12.3334 9.15059 12.0163 8.83346 11.6251 8.83346H11.4223L11.4168 8.83348L11.4112 8.83346H9.94692Z" fill="#353566"/>
<path d="M9.94692 13.1668V11.7501H12.2501C12.6413 11.7501 12.9584 12.0673 12.9584 12.4585C12.9584 12.8497 12.6413 13.1668 12.2501 13.1668H9.94692Z" fill="#353566"/>
<path fill-rule="evenodd" clip-rule="evenodd" d="M11 0.25C5.06294 0.25 0.25 5.06294 0.25 11C0.25 16.9371 5.06294 21.75 11 21.75C11.9129 21.75 12.8003 21.636 13.6482 21.4212C13.8932 21.3591 14.0905 21.1777 14.1729 20.9387C14.3688 20.3709 14.7488 19.8792 15.2316 19.5171C15.7768 19.1082 16.4224 18.911 17.2082 18.7697C17.5655 18.7055 17.8255 18.3946 17.8255 18.0316V15.3735C17.8255 14.229 18.5808 13.2218 19.6796 12.9014L21.1828 12.4629C21.4834 12.3752 21.6979 12.1101 21.7208 11.7978C21.7402 11.5343 21.75 11.2682 21.75 11C21.75 5.06294 16.9371 0.25 11 0.25ZM9.7501 6.08348C10.1643 6.08348 10.5001 6.41927 10.5001 6.83348V7.33346H10.6668V6.83352C10.6668 6.4193 11.0026 6.08352 11.4168 6.08352C11.831 6.08352 12.1668 6.4193 12.1668 6.83352V7.40038C13.1245 7.6419 13.8334 8.50906 13.8334 9.5418C13.8334 9.94941 13.723 10.3312 13.5304 10.659C14.0921 11.0593 14.4584 11.7161 14.4584 12.4585C14.4584 13.6781 13.4697 14.6668 12.2501 14.6668H12.1668V15.1668C12.1668 15.581 11.831 15.9168 11.4168 15.9168C11.0026 15.9168 10.6668 15.581 10.6668 15.1668V14.6668H10.5001V15.1668C10.5001 15.581 10.1643 15.9168 9.7501 15.9168C9.33589 15.9168 9.0001 15.581 9.0001 15.1668V14.6668H8.29177C7.87755 14.6668 7.54177 14.331 7.54177 13.9168C7.54177 13.5026 7.87755 13.1668 8.29177 13.1668H8.44692L8.44692 8.83346H8.29175C7.87753 8.83346 7.54175 8.49767 7.54175 8.08346C7.54175 7.66925 7.87753 7.33346 8.29175 7.33346H9.0001L9.0001 6.83348C9.0001 6.41927 9.33589 6.08348 9.7501 6.08348Z" fill="#353566"/>
<path d="M19.7954 17.6171L22.6374 16.7881C23.1264 16.6455 23.4625 16.1973 23.4625 15.688V14.4099C23.4625 13.7224 22.8024 13.2273 22.1424 13.4198L19.8688 14.083C19.2821 14.2541 18.8787 14.7919 18.8787 15.4031V20.1574C18.4649 19.9103 17.9769 19.7945 17.5035 19.7945C16.9528 19.7945 16.3824 19.9511 15.932 20.289C15.4766 20.6305 15.2116 21.1107 15.2116 21.6281C15.2116 22.1454 15.4766 22.6256 15.932 22.9671C16.3824 23.305 16.9528 23.4616 17.5035 23.4616C18.0542 23.4616 18.6245 23.305 19.075 22.9671C19.5304 22.6256 19.7954 22.1454 19.7954 21.6281L19.7954 21.6198V17.6171Z" fill="#353566"/>
</g>
<defs>
<clipPath id="clip0_9001_302037">
<rect width="24" height="24" fill="white"/>
</clipPath>
</defs>
</svg>
