<svg width="24" height="24" viewBox="0 0 24 24" fill="none" xmlns="http://www.w3.org/2000/svg">
<g clip-path="url(#clip0_9001_301982)">
<path d="M9.94692 8.83348L9.94692 10.2502H11.6251C12.0163 10.2502 12.3334 9.93303 12.3334 9.54182C12.3334 9.15061 12.0163 8.83348 11.6251 8.83348H11.4223L11.4168 8.8335L11.4112 8.83348H9.94692Z" fill="#353566"/>
<path d="M9.94692 13.1669V11.7502H12.2501C12.6413 11.7502 12.9584 12.0673 12.9584 12.4585C12.9584 12.8497 12.6413 13.1669 12.2501 13.1669H9.94692Z" fill="#353566"/>
<path fill-rule="evenodd" clip-rule="evenodd" d="M11 0.25C5.06294 0.25 0.25 5.06294 0.25 11C0.25 16.9371 5.06294 21.75 11 21.75C11.5378 21.75 12.0667 21.7105 12.5841 21.634C12.8069 21.6011 13.0031 21.4698 13.1185 21.2764C13.2339 21.083 13.2563 20.848 13.1795 20.6363C12.9847 20.0994 13.0702 19.5052 13.3736 18.7944C13.4539 18.6063 13.4539 18.3936 13.3736 18.2054C13.019 17.3749 12.9547 16.6954 13.3208 16.0623L13.9114 15.0408C14.2777 14.4071 14.9009 14.1215 15.8006 14.0115C16.0027 13.9867 16.186 13.8809 16.3085 13.7183C16.8523 12.9966 17.4109 12.6 18.1469 12.6H19.3281C19.7697 12.6 20.1299 12.7398 20.4574 12.9837C20.6701 13.142 20.9506 13.1763 21.1951 13.0738C21.4396 12.9714 21.6119 12.7474 21.6482 12.4848C21.7153 11.9991 21.75 11.5034 21.75 11C21.75 5.06294 16.9371 0.25 11 0.25ZM9.7501 6.0835C10.1643 6.0835 10.5001 6.41928 10.5001 6.8335V7.33348H10.6668V6.83353C10.6668 6.41932 11.0026 6.08353 11.4168 6.08353C11.831 6.08353 12.1668 6.41932 12.1668 6.83353V7.4004C13.1245 7.64192 13.8334 8.50908 13.8334 9.54182C13.8334 9.94942 13.723 10.3312 13.5304 10.659C14.0921 11.0593 14.4584 11.7161 14.4584 12.4585C14.4584 13.0226 14.2469 13.5373 13.8989 13.9276C13.79 14.0127 13.687 14.1077 13.5908 14.2135C13.219 14.4979 12.7543 14.6669 12.2501 14.6669H12.1668V15.1668C12.1668 15.5811 11.831 15.9168 11.4168 15.9168C11.0026 15.9168 10.6668 15.5811 10.6668 15.1668V14.6669H10.5001V15.1668C10.5001 15.5811 10.1643 15.9168 9.7501 15.9168C9.33589 15.9168 9.0001 15.5811 9.0001 15.1668V14.6669H8.29177C7.87755 14.6669 7.54177 14.3311 7.54177 13.9169C7.54177 13.5026 7.87755 13.1669 8.29177 13.1669H8.44692L8.44692 8.83348H8.29175C7.87753 8.83348 7.54175 8.49769 7.54175 8.08348C7.54175 7.66926 7.87753 7.33348 8.29175 7.33348H9.0001L9.0001 6.8335C9.0001 6.41928 9.33589 6.0835 9.7501 6.0835Z" fill="#353566"/>
<path fill-rule="evenodd" clip-rule="evenodd" d="M14.2043 20.3332C13.9191 19.8383 14.0882 19.2054 14.5826 18.9194C14.9663 18.6975 14.9663 18.1422 14.5826 17.9203C14.0882 17.6344 13.9191 17.0014 14.2043 16.5066L14.7724 15.5209C15.0577 15.0258 15.69 14.8559 16.1846 15.142C16.5675 15.3634 17.0474 15.087 17.0474 14.6425C17.0474 14.0712 17.5098 13.6074 18.081 13.6074H19.2172C19.7884 13.6074 20.2508 14.0712 20.2508 14.6425C20.2508 15.0871 20.7307 15.3635 21.1136 15.142C21.6082 14.8559 22.2405 15.0259 22.5258 15.5209L23.0939 16.5067C23.3791 17.0015 23.21 17.6344 22.7156 17.9203C22.3319 18.1423 22.3319 18.6975 22.7156 18.9194C23.21 19.2053 23.3791 19.8382 23.0939 20.3331L22.5258 21.3188C22.2405 21.8139 21.6082 21.9838 21.1136 21.6977C20.7307 21.4763 20.2508 21.7527 20.2508 22.1973C20.2508 22.7686 19.7884 23.2324 19.2172 23.2324H18.081C17.5098 23.2324 17.0474 22.7686 17.0474 22.1973C17.0474 21.7527 16.5675 21.4763 16.1846 21.6978C15.69 21.9838 15.0577 21.8139 14.7724 21.3188L14.2043 20.3332ZM18.6491 19.7949C19.4085 19.7949 20.0241 19.1793 20.0241 18.4199C20.0241 17.6605 19.4085 17.0449 18.6491 17.0449C17.8897 17.0449 17.2741 17.6605 17.2741 18.4199C17.2741 19.1793 17.8897 19.7949 18.6491 19.7949Z" fill="#353566"/>
</g>
<defs>
<clipPath id="clip0_9001_301982">
<rect width="24" height="24" fill="white"/>
</clipPath>
</defs>
</svg>
