<svg width="24" height="24" viewBox="0 0 24 24" fill="none" xmlns="http://www.w3.org/2000/svg">
<g clip-path="url(#clip0_9001_301382)">
<path fill-rule="evenodd" clip-rule="evenodd" d="M11 0.25C5.06294 0.25 0.25 5.06294 0.25 11C0.25 16.9371 5.06294 21.75 11 21.75C12.3511 21.75 13.6457 21.5004 14.8389 21.0441C14.9563 20.9992 15.0605 20.9255 15.142 20.8299C15.5344 20.3691 16.0088 19.9526 16.546 19.5661C16.7089 19.4489 16.818 19.2713 16.8489 19.073C16.8799 18.8747 16.8301 18.6722 16.7106 18.511L16.424 18.1239C15.9609 17.4988 15.6875 16.7269 15.6875 15.8875C15.6875 13.8095 17.3721 12.125 19.45 12.125C19.8991 12.125 20.3282 12.2034 20.7256 12.3465C20.9475 12.4265 21.1942 12.3974 21.3914 12.2679C21.5886 12.1384 21.7134 11.9237 21.7283 11.6883C21.7427 11.4606 21.75 11.2311 21.75 11C21.75 5.06294 16.9371 0.25 11 0.25ZM11.75 6.83338C11.75 6.41916 11.4142 6.08338 11 6.08338C10.5858 6.08338 10.25 6.41916 10.25 6.83338V7.1898C9.80379 7.27075 9.39276 7.42964 9.04966 7.67813C8.49845 8.07734 8.16667 8.68086 8.16667 9.40145C8.16667 10.3338 8.68824 10.9193 9.27949 11.2502C9.82335 11.5547 10.4648 11.6712 10.8767 11.7398C11.2981 11.8101 11.6984 11.8967 11.9878 12.0587C12.2299 12.1942 12.3333 12.3386 12.3333 12.5986C12.3333 12.8185 12.2485 12.9782 12.0705 13.1071C11.8701 13.2522 11.5185 13.375 11 13.375C10.6427 13.375 10.4316 13.3369 10.2349 13.2588C10.0206 13.1738 9.77437 13.0224 9.36942 12.7158C9.0392 12.4657 8.56879 12.5307 8.31874 12.861C8.06869 13.1912 8.13369 13.6616 8.46391 13.9116C8.8923 14.236 9.27108 14.4902 9.6818 14.6532C9.8718 14.7285 10.059 14.7807 10.25 14.8154V15.1667C10.25 15.5809 10.5858 15.9167 11 15.9167C11.4142 15.9167 11.75 15.5809 11.75 15.1667V14.8103C12.1962 14.7293 12.6072 14.5704 12.9503 14.3219C13.5016 13.9227 13.8333 13.3192 13.8333 12.5986C13.8333 11.6663 13.3118 11.0808 12.7205 10.7498C12.1767 10.4454 11.5352 10.3289 11.1233 10.2602C10.7019 10.19 10.3017 10.1034 10.0122 9.94134C9.77009 9.80583 9.66667 9.66149 9.66667 9.40145C9.66667 9.18155 9.75155 9.02186 9.92951 8.89299C10.1299 8.74783 10.4815 8.62503 11 8.62503C11.3573 8.62503 11.5684 8.66317 11.7652 8.74121C11.9794 8.82619 12.2256 8.97761 12.6306 9.28424C12.9608 9.53428 13.4312 9.46929 13.6813 9.13906C13.9313 8.80884 13.8663 8.33843 13.5361 8.08838C13.1077 7.764 12.7289 7.50978 12.3182 7.34687C12.1282 7.27152 11.941 7.21936 11.75 7.18465V6.83338Z" fill="#353566"/>
<path d="M19.3366 19.7534C17.413 19.7534 15.6528 21.064 15.1857 22.8787C15.1472 23.0284 15.1801 23.1875 15.2748 23.3097C15.3695 23.4319 15.5153 23.5034 15.6699 23.5034H23.0033C23.1578 23.5034 23.3037 23.4319 23.3984 23.3097C23.4931 23.1875 23.526 23.0284 23.4875 22.8787C23.0204 21.064 21.2602 19.7534 19.3366 19.7534Z" fill="#353566"/>
<path d="M19.3365 13.3367C17.9213 13.3367 16.774 14.4839 16.774 15.8992C16.774 17.3144 17.9213 18.4617 19.3365 18.4617C20.7518 18.4617 21.899 17.3144 21.899 15.8992C21.899 14.4839 20.7518 13.3367 19.3365 13.3367Z" fill="#353566"/>
</g>
<defs>
<clipPath id="clip0_9001_301382">
<rect width="24" height="24" fill="white"/>
</clipPath>
</defs>
</svg>
