<svg width="24" height="24" viewBox="0 0 24 24" fill="none" xmlns="http://www.w3.org/2000/svg">
<g clip-path="url(#clip0_9001_302187)">
<path fill-rule="evenodd" clip-rule="evenodd" d="M11 0.25C5.06294 0.25 0.25 5.06294 0.25 11C0.25 16.9371 5.06294 21.75 11 21.75C11.9129 21.75 12.8003 21.636 13.6482 21.4212C13.8932 21.3591 14.0905 21.1777 14.1729 20.9387C14.3688 20.3709 14.7488 19.8792 15.2316 19.5171C15.7768 19.1082 16.4224 18.911 17.2082 18.7697C17.5655 18.7055 17.8255 18.3946 17.8255 18.0316V15.3735C17.8255 14.229 18.5808 13.2218 19.6796 12.9014L21.1828 12.4629C21.4834 12.3752 21.6979 12.1101 21.7208 11.7978C21.7402 11.5343 21.75 11.2682 21.75 11C21.75 5.06294 16.9371 0.25 11 0.25ZM10.5312 5.31025C10.7402 4.95227 11.2575 4.95221 11.4666 5.31014L14.4959 10.4948C14.6473 10.7539 14.5592 11.0867 14.2994 11.237L11.2702 12.9892C11.1024 13.0863 10.8955 13.0863 10.7277 12.9892L7.69998 11.237C7.44034 11.0867 7.35227 10.754 7.50354 10.495L10.5312 5.31025ZM7.7732 12.2181C7.67379 12.1606 7.56496 12.2769 7.62901 12.3723L10.5493 16.7188C10.7639 17.0382 11.2338 17.0383 11.4485 16.7189L14.3706 12.372C14.4347 12.2767 14.3259 12.1603 14.2265 12.2178L11.2023 13.9671C11.0764 14.0399 10.9212 14.0399 10.7954 13.9671L7.7732 12.2181Z" fill="#353566"/>
<path d="M19.7954 17.6171L22.6374 16.7881C23.1264 16.6455 23.4625 16.1973 23.4625 15.688V14.4099C23.4625 13.7224 22.8024 13.2273 22.1424 13.4198L19.8688 14.083C19.2821 14.2541 18.8787 14.7919 18.8787 15.4031V20.1574C18.4649 19.9103 17.9769 19.7945 17.5035 19.7945C16.9528 19.7945 16.3824 19.9511 15.932 20.289C15.4766 20.6305 15.2116 21.1107 15.2116 21.6281C15.2116 22.1454 15.4766 22.6256 15.932 22.9671C16.3824 23.305 16.9528 23.4616 17.5035 23.4616C18.0542 23.4616 18.6245 23.305 19.075 22.9671C19.5304 22.6256 19.7954 22.1454 19.7954 21.6281L19.7954 21.6198V17.6171Z" fill="#353566"/>
</g>
<defs>
<clipPath id="clip0_9001_302187">
<rect width="24" height="24" fill="white"/>
</clipPath>
</defs>
</svg>
