<svg width="24" height="24" viewBox="0 0 24 24" fill="none" xmlns="http://www.w3.org/2000/svg">
<g clip-path="url(#clip0_9001_302197)">
<path fill-rule="evenodd" clip-rule="evenodd" d="M11 0.25C5.06294 0.25 0.25 5.06294 0.25 11C0.25 16.9371 5.06294 21.75 11 21.75C11.4535 21.75 11.9008 21.7219 12.3401 21.6672C12.612 21.6334 12.8437 21.454 12.9447 21.1994C13.0457 20.9448 12.9998 20.6553 12.825 20.4444C12.3874 19.9163 12.125 19.2398 12.125 18.5C12.125 16.8155 13.4905 15.45 15.175 15.45C15.5311 15.45 15.8887 15.5251 16.2865 15.6519C16.4728 15.7113 16.6749 15.6956 16.8497 15.6081L18.5071 14.7794C18.682 14.692 18.8159 14.5397 18.8801 14.355C19.266 13.2455 20.1116 12.4379 21.1562 12.1994C21.4847 12.1244 21.7229 11.8394 21.7384 11.5028C21.7461 11.3361 21.75 11.1685 21.75 11C21.75 5.06294 16.9371 0.25 11 0.25ZM10.5312 5.31027C10.7402 4.95229 11.2575 4.95223 11.4666 5.31016L14.4959 10.4949C14.6473 10.754 14.5592 11.0867 14.2994 11.237L11.2702 12.9892C11.1024 13.0863 10.8955 13.0863 10.7277 12.9892L7.69997 11.237C7.44033 11.0867 7.35225 10.7541 7.50353 10.495L10.5312 5.31027ZM7.77319 12.2181C7.67378 12.1606 7.56495 12.277 7.629 12.3723L10.5493 16.7188C10.6999 16.9429 10.9761 17.0098 11.2017 16.9195C11.4747 16.2336 11.9203 15.6351 12.4847 15.1774L14.3706 12.372C14.4347 12.2767 14.3259 12.1603 14.2265 12.2178L11.2023 13.9672C11.0764 14.04 10.9212 14.0399 10.7954 13.9671L7.77319 12.2181Z" fill="#353566"/>
<path d="M17.0602 18.1049L20.2675 16.5012C20.6092 16.8618 21.0926 17.0867 21.6286 17.0867C22.6641 17.0867 23.5036 16.2472 23.5036 15.2117C23.5036 14.1761 22.6641 13.3367 21.6286 13.3367C20.6377 13.3367 19.8264 14.1053 19.7582 15.0788L16.2508 16.8325L16.2386 16.8388L16.2282 16.8443C15.9353 16.6549 15.5863 16.545 15.2115 16.545C14.176 16.545 13.3365 17.3845 13.3365 18.42C13.3365 19.4555 14.176 20.295 15.2115 20.295C15.5863 20.295 15.9353 20.1851 16.2282 19.9957C16.2356 19.9997 16.2432 20.0037 16.2508 20.0075L19.7582 21.7612C19.8264 22.7347 20.6377 23.5033 21.6286 23.5033C22.6641 23.5033 23.5036 22.6639 23.5036 21.6283C23.5036 20.5928 22.6641 19.7533 21.6286 19.7533C21.0926 19.7533 20.6092 19.9782 20.2675 20.3388L17.0602 18.7351C17.0775 18.6327 17.0865 18.5274 17.0865 18.42C17.0865 18.3126 17.0775 18.2073 17.0602 18.1049Z" fill="#353566"/>
</g>
<defs>
<clipPath id="clip0_9001_302197">
<rect width="24" height="24" fill="white"/>
</clipPath>
</defs>
</svg>
