<svg width="24" height="24" viewBox="0 0 24 24" fill="none" xmlns="http://www.w3.org/2000/svg">
<path d="M20.2467 1.00323C20.2467 0.589021 19.9109 0.253235 19.4967 0.253235C19.0825 0.253235 18.7467 0.589021 18.7467 1.00323V5.85926L17.527 4.63959C17.2341 4.3467 16.7593 4.3467 16.4664 4.63959C16.1735 4.93249 16.1735 5.40736 16.4664 5.70025L18.9664 8.20025C19.2593 8.49314 19.7341 8.49314 20.027 8.20025L22.527 5.70025C22.8199 5.40736 22.8199 4.93249 22.527 4.63959C22.2341 4.3467 21.7593 4.3467 21.4664 4.63959L20.2467 5.85926V1.00323Z" fill="#353566"/>
<path fill-rule="evenodd" clip-rule="evenodd" d="M1.25 13C1.25 7.06294 6.06294 2.25 12 2.25C12.684 2.25 13.3538 2.31398 14.0034 2.43648C14.212 2.47582 14.3942 2.60171 14.5047 2.78292C14.6152 2.96414 14.6438 3.18371 14.5833 3.38719C14.4317 3.89735 14.35 4.43847 14.35 5C14.35 8.12041 16.8796 10.65 20 10.65C20.5615 10.65 21.1026 10.5683 21.6128 10.4167C21.8163 10.3562 22.0359 10.3848 22.2171 10.4953C22.3983 10.6058 22.5242 10.788 22.5635 10.9966C22.686 11.6462 22.75 12.316 22.75 13C22.75 18.9371 17.9371 23.75 12 23.75C6.06294 23.75 1.25 18.9371 1.25 13ZM12.75 8.83337C12.75 8.41916 12.4142 8.08337 12 8.08337C11.5858 8.08337 11.25 8.41916 11.25 8.83337V9.1898C10.8038 9.27075 10.3928 9.42964 10.0497 9.67813C9.49845 10.0773 9.16667 10.6809 9.16667 11.4014C9.16667 12.3337 9.68824 12.9193 10.2795 13.2502C10.8233 13.5547 11.4648 13.6712 11.8767 13.7398C12.2981 13.8101 12.6984 13.8967 12.9878 14.0587C13.2299 14.1942 13.3333 14.3386 13.3333 14.5986C13.3333 14.8185 13.2485 14.9782 13.0705 15.1071C12.8701 15.2522 12.5185 15.375 12 15.375C11.6427 15.375 11.4316 15.3369 11.2349 15.2588C11.0206 15.1738 10.7744 15.0224 10.3694 14.7158C10.0392 14.4657 9.56879 14.5307 9.31874 14.861C9.06869 15.1912 9.13369 15.6616 9.46391 15.9116C9.8923 16.236 10.2711 16.4902 10.6818 16.6532C10.8718 16.7285 11.059 16.7807 11.25 16.8154V17.1667C11.25 17.5809 11.5858 17.9167 12 17.9167C12.4142 17.9167 12.75 17.5809 12.75 17.1667V16.8103C13.1962 16.7293 13.6072 16.5704 13.9503 16.3219C14.5016 15.9227 14.8333 15.3192 14.8333 14.5986C14.8333 13.6663 14.3118 13.0808 13.7205 12.7498C13.1767 12.4454 12.5352 12.3289 12.1233 12.2602C11.7019 12.19 11.3017 12.1034 11.0122 11.9413C10.7701 11.8058 10.6667 11.6615 10.6667 11.4014C10.6667 11.1815 10.7516 11.0219 10.9295 10.893C11.1299 10.7478 11.4815 10.625 12 10.625C12.3573 10.625 12.5684 10.6632 12.7652 10.7412C12.9794 10.8262 13.2256 10.9776 13.6306 11.2842C13.9608 11.5343 14.4312 11.4693 14.6813 11.1391C14.9313 10.8088 14.8663 10.3384 14.5361 10.0884C14.1077 9.764 13.7289 9.50978 13.3182 9.34687C13.1282 9.27152 12.941 9.21936 12.75 9.18465V8.83337Z" fill="#353566"/>
</svg>
