<svg width="24" height="24" viewBox="0 0 24 24" fill="none" xmlns="http://www.w3.org/2000/svg">
<g clip-path="url(#clip0_9001_301902)">
<path fill-rule="evenodd" clip-rule="evenodd" d="M11 0.249878C5.06294 0.249878 0.25 5.06282 0.25 10.9999C0.25 16.9369 5.06294 21.7499 11 21.7499C11.2498 21.7499 11.4976 21.7413 11.7433 21.7245C12.0003 21.707 12.2302 21.5588 12.3524 21.3322C12.4746 21.1055 12.4719 20.832 12.3454 20.6077C12.2099 20.3676 12.1222 20.0719 12.1222 19.6874C12.1222 19.0801 12.3398 18.6665 12.6839 18.3365C13.0537 17.9818 13.5898 17.7074 14.236 17.4688L14.2372 17.4684C14.6308 17.3224 14.9391 17.0124 15.0872 16.6273C15.1007 16.5922 15.1116 16.5561 15.1197 16.5194C15.3843 15.3176 16.3033 14.3588 17.5811 14.524L17.7793 14.5496C17.9794 14.5755 18.1815 14.5196 18.34 14.3946C18.5824 14.2034 18.8009 14.0679 19.0387 13.9797C19.1138 13.9519 19.1839 13.9122 19.2464 13.8622L19.4233 13.7207C19.5296 13.6357 19.6107 13.5233 19.658 13.3957C19.9082 12.7209 20.4697 12.2399 21.1048 12.1433C21.4602 12.0893 21.7273 11.7907 21.7415 11.4315C21.7471 11.2883 21.75 11.1444 21.75 10.9999C21.75 5.06282 16.9371 0.249878 11 0.249878ZM9.53641 6.48519C10.3344 6.094 11.2224 5.98342 12.0831 6.17518C12.942 6.36653 13.7154 6.84555 14.3141 7.52992C14.5868 7.84168 14.5551 8.3155 14.2434 8.58823C13.9316 8.86096 13.4578 8.82932 13.1851 8.51756C12.7791 8.05352 12.2796 7.75573 11.7569 7.63928C11.2361 7.52324 10.6954 7.58755 10.1967 7.83205C9.71496 8.06822 9.28369 8.46771 8.96525 8.99993H11.2496C11.6638 8.99993 11.9996 9.33572 11.9996 9.74993C11.9996 10.1641 11.6638 10.4999 11.2496 10.4999H8.45922C8.439 10.6645 8.42867 10.8315 8.42867 10.9999C8.42867 11.1683 8.439 11.3354 8.45922 11.4999H11.2496C11.6638 11.4999 11.9996 11.8357 11.9996 12.2499C11.9996 12.6641 11.6638 12.9999 11.2496 12.9999H8.96525C9.28369 13.5322 9.71496 13.9317 10.1967 14.1678C10.6954 14.4123 11.2361 14.4766 11.7569 14.3606C12.2796 14.2441 12.7791 13.9463 13.1851 13.4823C13.4578 13.1705 13.9316 13.1389 14.2434 13.4116C14.5551 13.6844 14.5868 14.1582 14.3141 14.4699C13.7154 15.1543 12.942 15.6333 12.0831 15.8247C11.2224 16.0164 10.3344 15.9059 9.53641 15.5147C8.74092 15.1247 8.08053 14.479 7.6238 13.6772C7.5002 13.4601 7.39257 13.2336 7.30133 12.9999H6.25004C5.83583 12.9999 5.50004 12.6641 5.50004 12.2499C5.50004 11.8357 5.83583 11.4999 6.25004 11.4999H6.95101C6.93615 11.3341 6.92867 11.1672 6.92867 10.9999C6.92867 10.8326 6.93615 10.6657 6.95101 10.4999H6.25004C5.83583 10.4999 5.50004 10.1641 5.50004 9.74993C5.50004 9.33572 5.83583 8.99993 6.25004 8.99993H7.30133C7.39257 8.76623 7.5002 8.53972 7.6238 8.32271C8.08053 7.52084 8.74092 6.87517 9.53641 6.48519Z" fill="#353566"/>
<path d="M16.4472 16.2456C16.7312 15.4779 17.817 15.4779 18.1011 16.2456L18.3746 16.9849C18.6284 17.6707 19.1691 18.2114 19.855 18.4652L20.5942 18.7387C21.3619 19.0228 21.3619 20.1086 20.5942 20.3926L19.855 20.6662C19.1691 20.92 18.6284 21.4607 18.3746 22.1465L18.1011 22.8858C17.817 23.6534 16.7312 23.6534 16.4472 22.8858L16.1736 22.1465C15.9199 21.4607 15.3791 20.92 14.6933 20.6662L13.954 20.3926C13.1864 20.1086 13.1864 19.0228 13.954 18.7387L14.6933 18.4652C15.3791 18.2114 15.9199 17.6707 16.1736 16.9849L16.4472 16.2456Z" fill="#353566"/>
<path d="M21.2863 13.9175C21.2463 13.8096 21.0937 13.8096 21.0537 13.9175L20.8756 14.3987C20.7082 14.8513 20.3514 15.2081 19.8988 15.3755L19.4176 15.5536C19.3097 15.5935 19.3097 15.7462 19.4176 15.7862L19.8988 15.9642C20.3514 16.1317 20.7082 16.4885 20.8756 16.941L21.0537 17.4222C21.0937 17.5302 21.2463 17.5302 21.2863 17.4222L21.4644 16.941C21.6318 16.4885 21.9886 16.1317 22.4412 15.9642L22.9224 15.7862C23.0303 15.7462 23.0303 15.5935 22.9224 15.5536L22.4412 15.3755C21.9886 15.2081 21.6318 14.8513 21.4644 14.3987L21.2863 13.9175Z" fill="#353566"/>
</g>
<defs>
<clipPath id="clip0_9001_301902">
<rect width="24" height="24" fill="white"/>
</clipPath>
</defs>
</svg>
