<svg width="24" height="24" viewBox="0 0 24 24" fill="none" xmlns="http://www.w3.org/2000/svg">
<g clip-path="url(#clip0_9001_277271)">
<path d="M4.25 2.5C4.25 1.25736 5.25736 0.25 6.5 0.25H17.5C18.7426 0.25 19.75 1.25736 19.75 2.5V10C19.75 10.4142 19.4142 10.75 19 10.75C18.5858 10.75 18.25 10.4142 18.25 10V2.5C18.25 2.08579 17.9142 1.75 17.5 1.75H6.5C6.08579 1.75 5.75 2.08579 5.75 2.5V10C5.75 10.4142 5.41421 10.75 5 10.75C4.58579 10.75 4.25 10.4142 4.25 10V2.5Z" fill="#353566"/>
<path d="M1.89477 10.8623C1.66344 10.7191 1.3727 10.7124 1.13502 10.8448C0.897339 10.9772 0.75 11.2279 0.75 11.5V18.2321C0.749993 19.0449 0.749988 19.7006 0.793364 20.2315C0.838026 20.7781 0.932386 21.2582 1.15873 21.7025C1.51825 22.4081 2.09193 22.9818 2.79754 23.3413C3.24175 23.5676 3.7219 23.662 4.26853 23.7066C4.79944 23.75 5.45505 23.75 6.26788 23.75H17.7321C18.545 23.75 19.2006 23.75 19.7315 23.7066C20.2781 23.662 20.7582 23.5676 21.2025 23.3413C21.9081 22.9818 22.4817 22.4081 22.8413 21.7025C23.0676 21.2582 23.162 20.7781 23.2066 20.2315C23.25 19.7006 23.25 19.045 23.25 18.2321V11.5C23.25 11.2279 23.1027 10.9772 22.865 10.8448C22.6273 10.7124 22.3366 10.7191 22.1052 10.8623L13.7107 16.0589C12.9001 16.5607 12.6421 16.7089 12.3848 16.7669C12.1315 16.824 11.8685 16.824 11.6152 16.7669C11.3579 16.7089 11.0999 16.5607 10.2893 16.0589L1.89477 10.8623Z" fill="#353566"/>
<path d="M12.4504 4.48282C12.2686 4.10566 11.7314 4.10566 11.5496 4.48282L10.6974 6.25081C10.6388 6.37244 10.5227 6.45628 10.3888 6.47375L8.43585 6.72859C8.01738 6.78319 7.85063 7.2997 8.15817 7.58869L9.58078 8.92551C9.68016 9.0189 9.72511 9.15648 9.70004 9.29053L9.34188 11.2052C9.26466 11.618 9.7 11.9363 10.0699 11.7376L11.8107 10.8023C11.9289 10.7388 12.0711 10.7388 12.1893 10.8023L13.9301 11.7376C14.3 11.9363 14.7353 11.618 14.6581 11.2052L14.3 9.29053C14.2749 9.15648 14.3198 9.0189 14.4192 8.92551L15.8418 7.58869C16.1494 7.2997 15.9826 6.78319 15.5641 6.72859L13.6112 6.47375C13.4773 6.45628 13.3612 6.37244 13.3026 6.25081L12.4504 4.48282Z" fill="#353566"/>
</g>
<defs>
<clipPath id="clip0_9001_277271">
<rect width="24" height="24" fill="white"/>
</clipPath>
</defs>
</svg>
