<svg width="24" height="24" viewBox="0 0 24 24" fill="none" xmlns="http://www.w3.org/2000/svg">
<g clip-path="url(#clip0_9001_277311)">
<path d="M6.5 0.25C5.25736 0.25 4.25 1.25736 4.25 2.5V10C4.25 10.4142 4.58579 10.75 5 10.75C5.41421 10.75 5.75 10.4142 5.75 10V2.5C5.75 2.08579 6.08579 1.75 6.5 1.75H17.5C17.9142 1.75 18.25 2.08579 18.25 2.5V10C18.25 10.4142 18.5858 10.75 19 10.75C19.4142 10.75 19.75 10.4142 19.75 10V2.5C19.75 1.25736 18.7426 0.25 17.5 0.25H6.5Z" fill="#353566"/>
<path d="M1.13502 10.8448C1.3727 10.7124 1.66344 10.7191 1.89477 10.8623L10.2893 16.0589C11.0999 16.5607 11.3579 16.7089 11.6152 16.7669C11.8685 16.824 12.1315 16.824 12.3848 16.7669C12.6421 16.7089 12.9001 16.5607 13.7107 16.0589L22.1052 10.8623C22.3366 10.7191 22.6273 10.7124 22.865 10.8448C23.1027 10.9772 23.25 11.2279 23.25 11.5V18.2321C23.25 19.045 23.25 19.7006 23.2066 20.2315C23.162 20.7781 23.0676 21.2582 22.8413 21.7025C22.4817 22.4081 21.9081 22.9818 21.2025 23.3413C20.7582 23.5676 20.2781 23.662 19.7315 23.7066C19.2006 23.75 18.545 23.75 17.7321 23.75H6.26788C5.45505 23.75 4.79944 23.75 4.26853 23.7066C3.7219 23.662 3.24175 23.5676 2.79754 23.3413C2.09193 22.9818 1.51825 22.4081 1.15873 21.7025C0.932386 21.2582 0.838026 20.7781 0.793364 20.2315C0.749988 19.7006 0.749993 19.045 0.75 18.2321V11.5C0.75 11.2279 0.897339 10.9772 1.13502 10.8448Z" fill="#353566"/>
<path d="M11 11.5C11 10.9477 11.4477 10.5 12 10.5C12.5523 10.5 13.0001 10.9477 13.0001 11.5C13.0001 12.0523 12.5524 12.5 12.0001 12.5C11.4478 12.5 11 12.0523 11 11.5Z" fill="#353566"/>
<path d="M10.5 6.25C10.5 5.42157 11.1716 4.75 12 4.75C12.8284 4.75 13.5 5.42157 13.5 6.25C13.5 6.66862 13.3295 7.04604 13.0523 7.31898C12.9035 7.46541 12.7672 7.54237 12.5585 7.66022C12.5133 7.68575 12.4644 7.71334 12.4116 7.74384C12.12 7.91199 11.7508 8.15376 11.4875 8.64667C11.2924 9.01204 11.4304 9.46642 11.7957 9.66156C12.1611 9.8567 12.6155 9.7187 12.8106 9.35333C12.8762 9.2305 12.9539 9.16263 13.1609 9.04325C13.1897 9.02666 13.2223 9.00855 13.258 8.98869C13.4725 8.86951 13.8007 8.6871 14.1046 8.38788C14.6565 7.84459 15 7.08673 15 6.25C15 4.59315 13.6569 3.25 12 3.25C10.3431 3.25 9 4.59315 9 6.25C9 6.43586 9.02058 6.60532 9.04768 6.74871C9.1246 7.15572 9.5169 7.42331 9.92391 7.3464C10.3309 7.26948 10.5985 6.87718 10.5216 6.47017C10.5086 6.40123 10.5 6.32624 10.5 6.25Z" fill="#353566"/>
</g>
<defs>
<clipPath id="clip0_9001_277311">
<rect width="24" height="24" fill="white"/>
</clipPath>
</defs>
</svg>
