<svg width="24" height="24" viewBox="0 0 24 24" fill="none" xmlns="http://www.w3.org/2000/svg">
<path d="M17.2321 1.74988H5.7679C4.95507 1.74987 4.29944 1.74987 3.76853 1.79324C3.2219 1.8379 2.74176 1.93226 2.29754 2.1586C1.59193 2.51813 1.01825 3.09181 0.658727 3.79741C0.545593 4.01945 0.465433 4.25046 0.407972 4.49427C0.390365 4.56897 0.420004 4.6464 0.481133 4.69281L10.0175 11.9334C10.7647 12.5007 10.9745 12.6428 11.178 12.6969C11.3884 12.7528 11.6097 12.7528 11.8201 12.6969C12.0237 12.6428 12.2335 12.5007 12.9806 11.9334L22.5186 4.6916C22.5797 4.64518 22.6094 4.56773 22.5917 4.49301C22.5343 4.24967 22.4542 4.01907 22.3413 3.79741C21.9817 3.09181 21.4081 2.51813 20.7025 2.1586C20.2582 1.93226 19.7781 1.8379 19.2315 1.79324C18.7006 1.74987 18.0449 1.74987 17.2321 1.74988Z" fill="#353566"/>
<path d="M22.7497 6.79949C22.7493 6.63498 22.5613 6.54255 22.4303 6.64203L13.7815 13.2088C13.1937 13.656 12.7333 14.0062 12.2054 14.1465C11.7426 14.2696 11.2556 14.2696 10.7927 14.1465C10.2648 14.0063 9.80442 13.656 9.21665 13.2088L0.569733 6.64345C0.438705 6.54396 0.250713 6.6364 0.250338 6.80092C0.249998 6.95048 0.249999 7.10601 0.25 7.26777V14.232C0.249993 15.0448 0.249988 15.7004 0.293364 16.2313C0.338026 16.778 0.432386 17.2581 0.658727 17.7023C1.01825 18.4079 1.59193 18.9816 2.29754 19.3412C2.74176 19.5675 3.2219 19.6619 3.76853 19.7065C4.29944 19.7499 4.95505 19.7499 5.76788 19.7499H13.88C14.2942 19.7499 14.63 19.4141 14.63 18.9999V17.5549C14.63 16.6345 15.0649 15.8164 15.7452 15.2934L15.9075 15.1687C16.0793 15.0366 16.1856 14.8366 16.1989 14.6203L16.2116 14.416C16.325 12.5769 17.9988 11.3299 19.73 11.3299C20.3813 11.3299 21.0455 11.5126 21.6201 11.8502C21.852 11.9864 22.1391 11.9881 22.3725 11.8545C22.606 11.7209 22.75 11.4725 22.75 11.2035V7.26776C22.75 7.10549 22.75 6.94948 22.7497 6.79949Z" fill="#353566"/>
<path fill-rule="evenodd" clip-rule="evenodd" d="M17.0384 14.8299C17.0384 13.4146 18.2992 12.4132 19.6634 12.4132C21.0277 12.4132 22.2884 13.4146 22.2884 14.8299V15.7284C22.2884 15.815 22.3447 15.8907 22.4246 15.9243C23.0544 16.1892 23.4967 16.812 23.4967 17.5382V20.2465C23.4967 21.213 22.7132 21.9965 21.7467 21.9965H17.5801C16.6136 21.9965 15.8301 21.213 15.8301 20.2465V17.5382C15.8301 16.812 16.2724 16.1892 16.9023 15.9243C16.9821 15.8907 17.0384 15.815 17.0384 15.7284V14.8299ZM19.6634 13.9132C18.9566 13.9132 18.5384 14.4042 18.5384 14.8299V15.3382C18.5384 15.4487 18.628 15.5382 18.7384 15.5382H20.5884C20.6989 15.5382 20.7884 15.4487 20.7884 15.3382V14.8299C20.7884 14.4042 20.3702 13.9132 19.6634 13.9132Z" fill="#353566"/>
</svg>
