<svg width="24" height="24" viewBox="0 0 24 24" fill="none" xmlns="http://www.w3.org/2000/svg">
<path d="M17.2321 1.75H5.7679C4.95507 1.74999 4.29943 1.74999 3.76853 1.79336C3.2219 1.83803 2.74176 1.93239 2.29754 2.15873C1.59193 2.51825 1.01825 3.09193 0.658726 3.79754C0.526796 4.05646 0.439707 4.3276 0.381164 4.61699L10.0175 11.9335C10.7647 12.5008 10.9745 12.6429 11.178 12.697C11.3884 12.7529 11.6097 12.7529 11.8201 12.697C12.0237 12.6429 12.2335 12.5008 12.9806 11.9335L22.6186 4.61576C22.56 4.32683 22.473 4.0561 22.3413 3.79754C21.9817 3.09193 21.4081 2.51825 20.7025 2.15873C20.2582 1.93239 19.7781 1.83803 19.2315 1.79336C18.7006 1.74999 18.0449 1.74999 17.2321 1.75Z" fill="#353566"/>
<path d="M22.7476 6.40119L13.7815 13.2089C13.1937 13.656 12.7333 14.0063 12.2054 14.1466C11.7426 14.2696 11.2556 14.2696 10.7927 14.1466C10.2648 14.0063 9.80442 13.656 9.21665 13.2089L0.252418 6.4026C0.249995 6.66926 0.249998 6.95708 0.25 7.26789V14.2321C0.249993 15.045 0.249988 15.7006 0.293364 16.2315C0.338026 16.7781 0.432386 17.2582 0.658727 17.7025C1.01825 18.4081 1.59193 18.9818 2.29754 19.3413C2.74176 19.5676 3.2219 19.662 3.76853 19.7066C4.29944 19.75 4.95505 19.75 5.76788 19.75H12.1C12.5142 19.75 12.85 19.4142 12.85 19C12.85 14.775 16.275 11.35 20.5 11.35C20.9672 11.35 21.4239 11.3918 21.8669 11.4716C22.0856 11.5111 22.3105 11.4515 22.481 11.309C22.6515 11.1665 22.75 10.9557 22.75 10.7335V7.26788C22.75 6.95652 22.75 6.66824 22.7476 6.40119Z" fill="#353566"/>
<path d="M19.5 22.25C19.0858 22.25 18.75 21.9142 18.75 21.5V14.5C18.75 14.0858 19.0858 13.75 19.5 13.75C19.9142 13.75 20.25 14.0858 20.25 14.5V21.5C20.25 21.9142 19.9142 22.25 19.5 22.25Z" fill="#353566"/>
<path d="M16 22.25C15.5858 22.25 15.25 21.9142 15.25 21.5V19C15.25 18.5858 15.5858 18.25 16 18.25C16.4142 18.25 16.75 18.5858 16.75 19V21.5C16.75 21.9142 16.4142 22.25 16 22.25Z" fill="#353566"/>
<path d="M23.75 21.5C23.75 21.9142 23.4142 22.25 23 22.25C22.5858 22.25 22.25 21.9142 22.25 21.5V16.5C22.25 16.0858 22.5858 15.75 23 15.75C23.4142 15.75 23.75 16.0858 23.75 16.5V21.5Z" fill="#353566"/>
</svg>
