<svg width="24" height="24" viewBox="0 0 24 24" fill="none" xmlns="http://www.w3.org/2000/svg">
<path d="M17.2321 2.24976H5.7679C4.95507 2.24975 4.29944 2.24974 3.76853 2.29312C3.2219 2.33778 2.74176 2.43214 2.29754 2.65848C1.59193 3.01801 1.01825 3.59168 0.658726 4.29729C0.545609 4.5193 0.465456 4.75028 0.407996 4.99404C0.390387 5.06875 0.420025 5.14617 0.481156 5.19259L10.0175 12.4331C10.7646 13.0004 10.9744 13.1425 11.178 13.1966C11.3883 13.2525 11.6097 13.2525 11.8201 13.1966C12.0236 13.1425 12.2334 13.0004 12.9806 12.4331L22.5185 5.1913C22.5797 5.14488 22.6093 5.06742 22.5917 4.9927C22.5343 4.74943 22.4542 4.51889 22.3413 4.29729C21.9817 3.59169 21.4081 3.01801 20.7025 2.65848C20.2582 2.43214 19.7781 2.33778 19.2315 2.29312C18.7006 2.24974 18.0449 2.24975 17.2321 2.24976Z" fill="#353566"/>
<path d="M22.7497 7.29916C22.7493 7.13464 22.5613 7.04221 22.4303 7.1417L13.7815 13.7085C13.1937 14.1557 12.7332 14.506 12.2053 14.6463C11.7425 14.7693 11.2555 14.7693 10.7927 14.6463C10.2648 14.506 9.80436 14.1557 9.21659 13.7085L0.569732 7.14321C0.438705 7.04372 0.250713 7.13616 0.250338 7.30068C0.249997 7.45027 0.249999 7.60585 0.25 7.76765V14.7319C0.249993 15.5447 0.249988 16.2003 0.293364 16.7312C0.338026 17.2779 0.432386 17.758 0.658727 18.2022C1.01825 18.9078 1.59193 19.4815 2.29754 19.841C2.74176 20.0674 3.2219 20.1617 3.76853 20.2064C4.29944 20.2498 4.95505 20.2498 5.76788 20.2498H12.8C13.2142 20.2498 13.55 19.914 13.55 19.4998C13.55 15.9375 16.4378 13.0498 20 13.0498C20.6229 13.0498 21.224 13.1378 21.7921 13.3018C22.0185 13.3671 22.2625 13.3222 22.4509 13.1805C22.6392 13.0388 22.75 12.8169 22.75 12.5812V7.76763C22.75 7.60529 22.75 7.44922 22.7497 7.29916Z" fill="#353566"/>
<path d="M23.5303 15.9694C23.8232 16.2623 23.8232 16.7372 23.5303 17.0301L19.0303 21.5301C18.7374 21.823 18.2626 21.823 17.9697 21.5301L15.4697 19.0301C15.1768 18.7372 15.1768 18.2623 15.4697 17.9694C15.7626 17.6765 16.2374 17.6765 16.5303 17.9694L18.3586 19.7977C18.4367 19.8758 18.5633 19.8758 18.6414 19.7977L22.4697 15.9694C22.7626 15.6765 23.2374 15.6765 23.5303 15.9694Z" fill="#353566"/>
</svg>
