<svg width="24" height="24" viewBox="0 0 24 24" fill="none" xmlns="http://www.w3.org/2000/svg">
<path d="M4.74956 1.89108C5.19002 1.66695 5.72117 1.72336 6.10472 2.03501C6.22619 2.1337 6.33334 2.27763 6.49083 2.48916L9.84469 6.99099C9.91215 7.08154 9.97088 7.16037 10.0148 7.22973C10.0616 7.30355 10.1016 7.38157 10.122 7.47316C10.1526 7.61131 10.1436 7.75531 10.0959 7.88854C10.0643 7.97688 10.0149 8.0493 9.95924 8.1167C9.90695 8.18005 9.83878 8.25099 9.76051 8.33244L7.83046 10.3409C8.54344 11.7501 9.26623 12.8152 10.172 13.721C11.0777 14.6267 12.1761 15.3828 13.6524 16.1626L15.5132 14.1634C15.5946 14.0759 15.6653 13.9999 15.7289 13.9415C15.7963 13.8795 15.8695 13.8239 15.9606 13.7873C16.0976 13.7323 16.2477 13.719 16.3923 13.749C16.4884 13.7689 16.5703 13.8108 16.6476 13.8599C16.7204 13.9062 16.8033 13.9684 16.8988 14.0401L16.9005 14.0414L16.9064 14.0453L21.5182 17.5084C21.7293 17.6668 21.873 17.7746 21.9714 17.8968C22.2801 18.28 22.3352 18.8086 22.1123 19.2473C22.0412 19.3871 21.9229 19.5222 21.749 19.7208L21.1523 20.4027L21.1516 20.4035L21.1508 20.4044C21.1029 20.4591 21.077 20.4888 21.0523 20.5161C19.7436 21.9697 17.7353 22.5752 15.8412 22.0872C15.8052 22.078 15.7568 22.0648 15.6665 22.0402L15.6203 22.0275C13.942 21.5687 12.3481 20.8433 10.8998 19.879L10.8532 19.848C8.20079 18.0768 5.92368 15.7998 4.15253 13.1473L4.12148 13.1008C3.15722 11.6525 2.43175 10.0586 1.97292 8.38025L1.96018 8.33355C1.93559 8.24336 1.92245 8.1952 1.91319 8.15926C1.42528 6.26516 2.03078 4.25686 3.48433 2.9481C3.51192 2.92325 3.54186 2.89706 3.59753 2.84834L4.27668 2.254C4.47509 2.08027 4.61008 1.96206 4.74956 1.89108Z" fill="#353566"/>
<path d="M14.0002 5.74805C13.586 5.74805 13.2502 6.08383 13.2502 6.49805C13.2502 6.91226 13.586 7.24805 14.0002 7.24805H20.1914L17.9699 9.46969C17.677 9.76259 17.677 10.2375 17.9699 10.5303C18.2628 10.8232 18.7377 10.8232 19.0306 10.5303L22.5303 7.03031C22.8232 6.73742 22.8232 6.26258 22.5303 5.96969L19.0306 2.46969C18.7377 2.17678 18.2628 2.17677 17.9699 2.46965C17.677 2.76253 17.677 3.23741 17.9699 3.53031L20.1875 5.74805H14.0002Z" fill="#353566"/>
</svg>
