<svg width="24" height="24" viewBox="0 0 24 24" fill="none" xmlns="http://www.w3.org/2000/svg">
<path d="M14.5 2.25C12.7848 2.25 11.2105 2.84472 9.96913 3.83981C9.64594 4.09889 9.17392 4.04692 8.91484 3.72373C8.65576 3.40054 8.70773 2.92852 9.03092 2.66944C10.5288 1.46872 12.4315 0.75 14.5 0.75C19.3325 0.75 23.25 4.66751 23.25 9.5C23.25 11.5685 22.5313 13.4712 21.3306 14.9691C21.0715 15.2923 20.5995 15.3443 20.2763 15.0852C19.9531 14.8261 19.9011 14.3541 20.1602 14.0309C21.1553 12.7896 21.75 11.2153 21.75 9.5C21.75 5.49594 18.5041 2.25 14.5 2.25Z" fill="#353566"/>
<path d="M5.60448 2.53501C5.22093 2.22336 4.68977 2.16695 4.24932 2.39108C4.10984 2.46206 3.97484 2.58027 3.77644 2.754L3.09729 3.34834C3.04162 3.39706 3.01168 3.42325 2.98409 3.4481C1.53053 4.75686 0.92504 6.76516 1.41295 8.65926C1.4222 8.69517 1.43536 8.74344 1.45992 8.83347L1.47268 8.88025C1.93151 10.5586 2.65698 12.1525 3.62123 13.6008L3.65228 13.6473C5.42344 16.2998 7.70055 18.5768 10.353 20.348L10.3995 20.379C11.8478 21.3433 13.4417 22.0687 15.1201 22.5275L15.1668 22.5403C15.2565 22.5648 15.3051 22.578 15.3409 22.5872C17.235 23.0752 19.2433 22.4697 20.5521 21.0161C20.5767 20.9888 20.6027 20.9591 20.6506 20.9044L20.6514 20.9035L20.652 20.9027L21.2487 20.2208C21.4226 20.0222 21.541 19.8871 21.612 19.7473C21.835 19.3086 21.7798 18.78 21.4711 18.3968C21.3728 18.2746 21.2291 18.1668 21.018 18.0084L16.4061 14.5453L16.4003 14.5414L16.3987 14.5402C16.3031 14.4685 16.2202 14.4062 16.1474 14.3599C16.0701 14.3108 15.9882 14.2689 15.892 14.249C15.7475 14.219 15.5974 14.2323 15.4604 14.2873C15.3693 14.3239 15.296 14.3795 15.2286 14.4415C15.1651 14.4999 15.0944 14.5759 15.013 14.6634L13.1521 16.6626C11.6758 15.8828 10.5775 15.1267 9.67179 14.221C8.76599 13.3152 8.04319 12.2501 7.33022 10.8409L9.26025 8.83245C9.33854 8.75099 9.4067 8.68006 9.45899 8.6167C9.51462 8.5493 9.56406 8.47688 9.59568 8.38854C9.64337 8.25531 9.6524 8.11131 9.62172 7.97316C9.60137 7.88157 9.56136 7.80355 9.51458 7.72973C9.47066 7.66041 9.41185 7.58147 9.34444 7.49099L5.99059 2.98916C5.8331 2.77763 5.72594 2.6337 5.60448 2.53501Z" fill="#353566"/>
<path d="M14.25 11.5C14.25 11.0858 14.5858 10.75 15 10.75C15.4142 10.75 15.7501 11.0858 15.7501 11.5C15.7501 11.9142 15.4143 12.25 15.0001 12.25C14.5859 12.25 14.25 11.9142 14.25 11.5Z" fill="#353566"/>
<path d="M14.25 8.5V5C14.25 4.58579 14.5858 4.25 15 4.25C15.4142 4.25 15.75 4.58579 15.75 5V8.5C15.75 8.91421 15.4142 9.25 15 9.25C14.5858 9.25 14.25 8.91421 14.25 8.5Z" fill="#353566"/>
</svg>
