<svg width="24" height="24" viewBox="0 0 24 24" fill="none" xmlns="http://www.w3.org/2000/svg">
<path d="M6.10749 0.599913C3.23492 -0.816334 0.332098 2.22071 1.52987 5.08234L1.53645 5.09759L3.80912 10.2066C3.81053 10.21 3.81192 10.2134 3.81331 10.2168H10.9999C11.4141 10.2168 11.7499 10.5526 11.7499 10.9668C11.7499 11.381 11.4141 11.7168 10.9999 11.7168H3.82034C3.8104 11.7421 3.79993 11.7672 3.78894 11.7921L1.64556 16.8928C0.386271 19.7645 3.28138 22.8369 6.18391 21.3895L9.41087 19.7803C9.69902 19.6366 9.86329 19.325 9.81905 19.006C9.77349 18.6775 9.74989 18.3416 9.74989 17.9998C9.74989 13.9958 12.9958 10.7498 16.9999 10.7498C18.6768 10.7498 20.2189 11.3183 21.4469 12.2734C21.6459 12.4282 21.9093 12.4726 22.1481 12.3917C22.3868 12.3108 22.569 12.1154 22.6329 11.8715C23.0179 10.4018 22.4504 8.65736 20.8558 7.87117L6.10749 0.599913Z" fill="#353566"/>
<path fill-rule="evenodd" clip-rule="evenodd" d="M11.2499 18C11.2499 14.8244 13.8242 12.25 16.9999 12.25C20.1755 12.25 22.7499 14.8244 22.7499 18C22.7499 21.1756 20.1755 23.75 16.9999 23.75C13.8242 23.75 11.2499 21.1756 11.2499 18ZM14.5579 17.942C14.3139 17.6979 14.3139 17.3022 14.5579 17.0581L16.558 15.0581C16.6752 14.9408 16.8341 14.875 16.9999 14.875C17.1657 14.875 17.3246 14.9408 17.4418 15.0581L19.4418 17.058C19.6859 17.3021 19.6859 17.6979 19.4418 17.9419C19.1978 18.186 18.802 18.186 18.5579 17.9419L17.6249 17.0089V20.5C17.6249 20.8452 17.3451 21.125 16.9999 21.125C16.6547 21.125 16.3749 20.8452 16.3749 20.5V17.0089L15.4418 17.942C15.1977 18.186 14.802 18.186 14.5579 17.942Z" fill="#353566"/>
</svg>
