<svg width="24" height="24" viewBox="0 0 24 24" fill="none" xmlns="http://www.w3.org/2000/svg">
<path d="M6.10749 0.599913C3.23492 -0.816334 0.332098 2.22071 1.52987 5.08234L1.53645 5.09759L3.80912 10.2066C3.8105 10.2099 3.81187 10.2133 3.81323 10.2166H10.9999C11.4141 10.2166 11.7499 10.5524 11.7499 10.9666C11.7499 11.3808 11.4141 11.7166 10.9999 11.7166H3.82041C3.81045 11.742 3.79996 11.7671 3.78894 11.7921L1.64556 16.8928C0.386271 19.7645 3.28138 22.8369 6.18391 21.3895L15.8351 16.5767C16.0896 16.4498 16.2504 16.1898 16.2504 15.9055V14.7088C16.2504 13.4865 17.0571 12.4109 18.2305 12.0686L20.7108 11.3452C21.0942 11.2334 21.4734 11.2223 21.8274 11.2913C22.0658 11.3378 22.312 11.2659 22.4879 11.0984C22.6639 10.9309 22.7478 10.6886 22.7132 10.4482C22.563 9.40539 21.9455 8.40842 20.8558 7.87117L6.10749 0.599913Z" fill="#353566"/>
<path d="M18.5004 17.124L21.6008 16.2197C22.1342 16.0641 22.5009 15.5752 22.5009 15.0196V13.6253C22.5009 12.8752 21.7808 12.3352 21.0608 12.5452L18.5805 13.2686C17.9404 13.4553 17.5004 14.042 17.5004 14.7088V19.8953C17.0489 19.6257 16.5166 19.4995 16.0001 19.4995C15.3994 19.4995 14.7772 19.6703 14.2857 20.0388C13.789 20.4114 13.4999 20.9352 13.4999 21.4996C13.4999 22.0641 13.789 22.5879 14.2857 22.9604C14.7772 23.329 15.3994 23.4998 16.0001 23.4998C16.6009 23.4998 17.2231 23.329 17.7145 22.9604C18.2113 22.5879 18.5004 22.0641 18.5004 21.4996L18.5004 21.4907V17.124Z" fill="#353566"/>
</svg>
