<svg width="24" height="24" viewBox="0 0 24 24" fill="none" xmlns="http://www.w3.org/2000/svg">
<g clip-path="url(#clip0_9001_275696)">
<path d="M1.5 11C1.5 5.75329 5.75329 1.5 11 1.5C16.2467 1.5 20.5 5.75329 20.5 11C20.5 11.4987 20.4616 11.9881 20.3877 12.4654C20.3455 12.7383 20.5325 12.9938 20.8054 13.036C21.0783 13.0783 21.3337 12.8913 21.376 12.6184C21.4577 12.0906 21.5 11.5501 21.5 11C21.5 5.20101 16.799 0.5 11 0.5C5.20101 0.5 0.5 5.20101 0.5 11C0.5 13.0335 1.07859 14.9335 2.08034 16.5424C2.08493 16.5498 2.08442 16.5544 2.08431 16.5551L1.26241 18.8153C0.827123 20.0123 1.98768 21.1729 3.18471 20.7376L5.44483 19.9157C5.44553 19.9156 5.45021 19.9151 5.45759 19.9197C6.9272 20.8347 8.63977 21.3967 10.4755 21.4871C10.7513 21.5007 10.9859 21.2881 10.9995 21.0123C11.0131 20.7365 10.8005 20.5019 10.5247 20.4883C8.86351 20.4065 7.3153 19.8983 5.98614 19.0708C5.72745 18.9097 5.4027 18.867 5.10359 18.9758L2.84297 19.7978C2.44396 19.9429 2.05711 19.556 2.2022 19.157L3.02425 16.8964C3.13301 16.5973 3.09031 16.2725 2.92925 16.0139C2.02337 14.5589 1.5 12.8413 1.5 11Z" fill="#353566"/>
<path d="M15.5 9C15.5 9.27614 15.2761 9.5 15 9.5H7C6.72386 9.5 6.5 9.27614 6.5 9C6.5 8.72386 6.72386 8.5 7 8.5H15C15.2761 8.5 15.5 8.72386 15.5 9Z" fill="#353566"/>
<path d="M12 13.5H7C6.72386 13.5 6.5 13.2761 6.5 13C6.5 12.7239 6.72386 12.5 7 12.5L12 12.5C12.2761 12.5 12.5 12.7239 12.5 13C12.5 13.2761 12.2761 13.5 12 13.5Z" fill="#353566"/>
<path fill-rule="evenodd" clip-rule="evenodd" d="M18 17C16.8942 17 16 17.8942 16 19C16 20.1058 16.8942 21 18 21C19.1058 21 20 20.1058 20 19C20 17.8942 19.1058 17 18 17ZM17 19C17 18.4465 17.4465 18 18 18C18.5535 18 19 18.4465 19 19C19 19.5535 18.5535 20 18 20C17.4465 20 17 19.5535 17 19Z" fill="#353566"/>
<path fill-rule="evenodd" clip-rule="evenodd" d="M18 14.5C20.2068 14.5 22.3768 15.8473 23.3973 18.4539C23.5342 18.8036 23.5342 19.1964 23.3973 19.5461C22.3768 22.1527 20.2068 23.5 18 23.5C15.7932 23.5 13.6232 22.1527 12.6027 19.5461C12.4658 19.1964 12.4658 18.8036 12.6027 18.4539C13.6232 15.8473 15.7932 14.5 18 14.5ZM18 15.5C16.2242 15.5 14.4115 16.5768 13.5339 18.8184C13.4887 18.9337 13.4887 19.0663 13.5339 19.1816C14.4115 21.4232 16.2242 22.5 18 22.5C19.7758 22.5 21.5885 21.4232 22.4661 19.1816C22.5113 19.0663 22.5113 18.9337 22.4661 18.8184C21.5885 16.5768 19.7758 15.5 18 15.5Z" fill="#353566"/>
</g>
<defs>
<clipPath id="clip0_9001_275696">
<rect width="24" height="24" fill="white"/>
</clipPath>
</defs>
</svg>
