<svg width="24" height="24" viewBox="0 0 24 24" fill="none" xmlns="http://www.w3.org/2000/svg">
<path d="M12 2.5C6.75329 2.5 2.5 6.75329 2.5 12C2.5 13.8413 3.02337 15.5589 3.92925 17.0139C4.09031 17.2725 4.13301 17.5973 4.02425 17.8964L3.2022 20.157C3.05711 20.556 3.44396 20.9429 3.84297 20.7978L6.10359 19.9758C6.40269 19.867 6.72745 19.9097 6.98614 20.0708C8.44107 20.9766 10.1587 21.5 12 21.5C17.2467 21.5 21.5 17.2467 21.5 12C21.5 11.2618 21.4159 10.5438 21.2569 9.85498C21.1949 9.5859 21.3627 9.31745 21.6317 9.25536C21.9008 9.19328 22.1693 9.36107 22.2313 9.63015C22.4072 10.3922 22.5 11.1856 22.5 12C22.5 17.799 17.799 22.5 12 22.5C9.96646 22.5 8.06652 21.9214 6.45759 20.9197C6.45022 20.9151 6.44563 20.9156 6.44492 20.9157L4.18471 21.7376C2.98768 22.1729 1.82712 21.0123 2.26241 19.8153L3.08431 17.5551C3.08442 17.5544 3.08493 17.5498 3.08034 17.5424C2.07859 15.9335 1.5 14.0335 1.5 12C1.5 6.20101 6.20101 1.5 12 1.5C12.8144 1.5 13.6078 1.59282 14.3699 1.76866C14.6389 1.83074 14.8067 2.0992 14.7446 2.36827C14.6826 2.63734 14.4141 2.80514 14.145 2.74305C13.4562 2.58411 12.7382 2.5 12 2.5Z" fill="#353566"/>
<path fill-rule="evenodd" clip-rule="evenodd" d="M17.5 4C17.5 2.61929 18.6193 1.5 20 1.5C21.3807 1.5 22.5 2.61929 22.5 4C22.5 5.38071 21.3807 6.5 20 6.5C18.6193 6.5 17.5 5.38071 17.5 4ZM20 2.5C19.1716 2.5 18.5 3.17157 18.5 4C18.5 4.82843 19.1716 5.5 20 5.5C20.8284 5.5 21.5 4.82843 21.5 4C21.5 3.17157 20.8284 2.5 20 2.5Z" fill="#353566"/>
<path d="M12 11.25C11.5858 11.25 11.25 11.5858 11.25 12C11.25 12.4142 11.5858 12.75 12 12.75C12.4142 12.75 12.7501 12.4142 12.7501 12C12.7501 11.5858 12.4142 11.25 12 11.25Z" fill="#353566"/>
<path d="M7.25 12C7.25 11.5858 7.58579 11.25 8 11.25C8.41421 11.25 8.7501 11.5858 8.7501 12C8.7501 12.4142 8.41431 12.75 8.0001 12.75C7.58589 12.75 7.25 12.4142 7.25 12Z" fill="#353566"/>
<path d="M16 11.25C15.5858 11.25 15.25 11.5858 15.25 12C15.25 12.4142 15.5858 12.75 16 12.75C16.4142 12.75 16.7501 12.4142 16.7501 12C16.7501 11.5858 16.4142 11.25 16 11.25Z" fill="#353566"/>
</svg>
