<svg width="24" height="24" viewBox="0 0 24 24" fill="none" xmlns="http://www.w3.org/2000/svg">
<g clip-path="url(#clip0_9001_276041)">
<path d="M1.5 11C1.5 5.75329 5.75329 1.5 11 1.5C16.0509 1.5 20.1815 5.44204 20.4824 10.417C20.4991 10.6926 20.7361 10.9026 21.0117 10.8859C21.2873 10.8692 21.4973 10.6322 21.4806 10.3566C21.1479 4.857 16.583 0.5 11 0.5C5.20101 0.5 0.5 5.20101 0.5 11C0.5 13.0335 1.07859 14.9335 2.08034 16.5424C2.08493 16.5498 2.08442 16.5544 2.08431 16.5551L1.26241 18.8153C0.827123 20.0123 1.98768 21.1729 3.18471 20.7376L5.44483 19.9157C5.44553 19.9156 5.45021 19.9151 5.45759 19.9197C7.06652 20.9214 8.96646 21.5 11 21.5C11.5781 21.5 12.1457 21.4532 12.6991 21.3632C12.9716 21.3188 13.1566 21.0619 13.1123 20.7893C13.0679 20.5168 12.811 20.3318 12.5384 20.3761C12.038 20.4576 11.5241 20.5 11 20.5C9.15865 20.5 7.44107 19.9766 5.98614 19.0708C5.72745 18.9097 5.4027 18.867 5.10359 18.9758L2.84297 19.7978C2.44396 19.9429 2.05711 19.556 2.2022 19.157L3.02425 16.8964C3.13301 16.5973 3.09031 16.2725 2.92925 16.0139C2.02337 14.5589 1.5 12.8413 1.5 11Z" fill="#353566"/>
<path d="M11 10.25C10.5858 10.25 10.25 10.5858 10.25 11C10.25 11.4142 10.5858 11.75 11 11.75C11.4142 11.75 11.7501 11.4142 11.7501 11C11.7501 10.5858 11.4142 10.25 11 10.25Z" fill="#353566"/>
<path d="M6.25 11C6.25 10.5858 6.58579 10.25 7 10.25C7.41421 10.25 7.7501 10.5858 7.7501 11C7.7501 11.4142 7.41431 11.75 7.0001 11.75C6.58589 11.75 6.25 11.4142 6.25 11Z" fill="#353566"/>
<path d="M15 10.25C14.5858 10.25 14.25 10.5858 14.25 11C14.25 11.4142 14.5858 11.75 15 11.75C15.4142 11.75 15.7501 11.4142 15.7501 11C15.7501 10.5858 15.4142 10.25 15 10.25Z" fill="#353566"/>
<path d="M19 20.5C17.3513 20.5 15.8682 21.6327 15.4842 23.1246C15.4154 23.3921 15.1428 23.553 14.8754 23.4842C14.6079 23.4154 14.4469 23.1428 14.5158 22.8754C15.0199 20.9168 16.921 19.5 19 19.5C21.0789 19.5 22.9801 20.9168 23.4842 22.8754C23.553 23.1428 23.3921 23.4154 23.1246 23.4842C22.8572 23.553 22.5846 23.3921 22.5158 23.1246C22.1318 21.6327 20.6487 20.5 19 20.5Z" fill="#353566"/>
<path fill-rule="evenodd" clip-rule="evenodd" d="M19 12.5C17.4812 12.5 16.25 13.7312 16.25 15.25C16.25 16.7688 17.4812 18 19 18C20.5188 18 21.75 16.7688 21.75 15.25C21.75 13.7312 20.5188 12.5 19 12.5ZM17.25 15.25C17.25 14.2835 18.0335 13.5 19 13.5C19.9665 13.5 20.75 14.2835 20.75 15.25C20.75 16.2165 19.9665 17 19 17C18.0335 17 17.25 16.2165 17.25 15.25Z" fill="#353566"/>
</g>
<defs>
<clipPath id="clip0_9001_276041">
<rect width="24" height="24" fill="white"/>
</clipPath>
</defs>
</svg>
