<svg width="24" height="24" viewBox="0 0 24 24" fill="none" xmlns="http://www.w3.org/2000/svg">
<path d="M12 16C11.7239 16 11.5 15.7761 11.5 15.5V9.70711L9.35355 11.8536C9.15829 12.0488 8.84171 12.0488 8.64645 11.8536C8.45119 11.6583 8.45119 11.3417 8.64645 11.1464L11.6464 8.14645C11.7402 8.05268 11.8674 8 12 8C12.1326 8 12.2598 8.05268 12.3536 8.14645L15.3536 11.1464C15.5488 11.3417 15.5488 11.6583 15.3536 11.8536C15.1583 12.0488 14.8417 12.0488 14.6464 11.8536L12.5 9.70711V15.5C12.5 15.7761 12.2761 16 12 16Z" fill="#353566"/>
<path fill-rule="evenodd" clip-rule="evenodd" d="M1.5 12C1.5 6.20101 6.20101 1.5 12 1.5C17.799 1.5 22.5 6.20101 22.5 12C22.5 17.799 17.799 22.5 12 22.5C9.96646 22.5 8.06652 21.9214 6.45759 20.9197C6.45022 20.9151 6.44563 20.9156 6.44492 20.9157L4.18471 21.7376C2.98768 22.1729 1.82712 21.0123 2.26241 19.8153L3.08431 17.5551C3.08442 17.5544 3.08493 17.5498 3.08034 17.5424C2.07859 15.9335 1.5 14.0335 1.5 12ZM12 2.5C6.7533 2.5 2.5 6.75329 2.5 12C2.5 13.8413 3.02337 15.5589 3.92925 17.0139C4.09031 17.2725 4.13301 17.5973 4.02425 17.8964L3.2022 20.157C3.05711 20.556 3.44396 20.9429 3.84297 20.7978L6.10359 19.9758C6.4027 19.867 6.72746 19.9097 6.98614 20.0708C8.44107 20.9766 10.1587 21.5 12 21.5C17.2467 21.5 21.5 17.2467 21.5 12C21.5 6.75329 17.2467 2.5 12 2.5Z" fill="#353566"/>
</svg>
