<svg width="24" height="24" viewBox="0 0 24 24" fill="none" xmlns="http://www.w3.org/2000/svg">
<g clip-path="url(#clip0_9001_276101)">
<path d="M11 1.5C5.75329 1.5 1.5 5.75329 1.5 11C1.5 12.8413 2.02337 14.5589 2.92925 16.0139C3.09031 16.2725 3.13301 16.5973 3.02425 16.8964L2.2022 19.157C2.05711 19.556 2.44396 19.9429 2.84297 19.7978L5.10359 18.9758C5.40269 18.867 5.72745 18.9097 5.98614 19.0708C7.44107 19.9766 9.15865 20.5 11 20.5C11.3331 20.5 11.6619 20.4829 11.9859 20.4495C12.2606 20.4212 12.5062 20.6209 12.5345 20.8956C12.5628 21.1703 12.3631 21.4159 12.0884 21.4442C11.7305 21.4811 11.3674 21.5 11 21.5C8.96646 21.5 7.06652 20.9214 5.45759 19.9197C5.45022 19.9151 5.44563 19.9156 5.44492 19.9157L3.18471 20.7376C1.98768 21.1729 0.827123 20.0123 1.26241 18.8153L2.08431 16.5551C2.08442 16.5544 2.08493 16.5498 2.08034 16.5424C1.07859 14.9335 0.5 13.0335 0.5 11C0.5 5.20101 5.20101 0.5 11 0.5C16.5374 0.5 21.0732 4.78606 21.4716 10.222C21.4918 10.4974 21.2849 10.737 21.0095 10.7572C20.7341 10.7774 20.4945 10.5705 20.4743 10.2951C20.1139 5.37782 16.0096 1.5 11 1.5Z" fill="#353566"/>
<path d="M10.25 11C10.25 10.5858 10.5858 10.25 11 10.25C11.4142 10.25 11.7501 10.5858 11.7501 11C11.7501 11.4142 11.4143 11.75 11.0001 11.75C10.5859 11.75 10.25 11.4142 10.25 11Z" fill="#353566"/>
<path d="M7 10.25C6.58579 10.25 6.25 10.5858 6.25 11C6.25 11.4142 6.58579 11.75 7 11.75C7.41421 11.75 7.7501 11.4142 7.7501 11C7.7501 10.5858 7.41421 10.25 7 10.25Z" fill="#353566"/>
<path d="M14.25 11C14.25 10.5858 14.5858 10.25 15 10.25C15.4142 10.25 15.7501 10.5858 15.7501 11C15.7501 11.4142 15.4143 11.75 15.0001 11.75C14.5859 11.75 14.25 11.4142 14.25 11Z" fill="#353566"/>
<path fill-rule="evenodd" clip-rule="evenodd" d="M22.601 16.2198L19.5005 17.1241V21.4998C19.5005 22.0642 19.2114 22.588 18.7146 22.9606C18.2232 23.3291 17.601 23.4999 17.0003 23.4999C16.3995 23.4999 15.7773 23.3291 15.2859 22.9606C14.7891 22.588 14.5 22.0642 14.5 21.4998C14.5 20.9353 14.7891 20.4115 15.2859 20.039C15.7773 19.6704 16.3995 19.4996 17.0003 19.4996C17.5167 19.4996 18.0491 19.6258 18.5005 19.8954V14.7089C18.5005 14.0422 18.9405 13.4555 19.5806 13.2688L22.0609 12.5453C22.781 12.3353 23.501 12.8754 23.501 13.6254V15.0197C23.501 15.5753 23.1343 16.0643 22.601 16.2198ZM22.3409 13.5053C22.421 13.482 22.501 13.542 22.501 13.6254V15.0197C22.501 15.1309 22.4277 15.2287 22.321 15.2598L19.5005 16.0825V14.7089C19.5005 14.4866 19.6472 14.291 19.8606 14.2288L22.3409 13.5053ZM18.1147 20.839C18.3988 21.052 18.5003 21.2959 18.5005 21.4992C18.5005 21.7027 18.399 21.9473 18.1147 22.1605C17.8249 22.3778 17.4233 22.4999 17.0003 22.4999C16.5772 22.4999 16.1756 22.3778 15.8859 22.1606C15.6015 21.9473 15.5 21.7032 15.5 21.4998C15.5 21.2963 15.6015 21.0522 15.8859 20.839C16.1756 20.6217 16.5772 20.4996 17.0003 20.4996C17.4233 20.4996 17.8249 20.6217 18.1147 20.839Z" fill="#353566"/>
</g>
<defs>
<clipPath id="clip0_9001_276101">
<rect width="24" height="24" fill="white"/>
</clipPath>
</defs>
</svg>
