<svg width="24" height="24" viewBox="0 0 24 24" fill="none" xmlns="http://www.w3.org/2000/svg">
<path opacity="0.4" d="M18.7211 9.93187L18.5432 7.97536C18.2356 4.59119 15.3981 2 12 2C8.60187 2 5.76444 4.59119 5.45679 7.97536L5.27892 9.93188C5.09588 11.9453 4.41257 13.8811 3.29109 15.5634L3.25783 15.6132C3.08971 15.8654 3 16.1617 3 16.4648C3 17.3127 3.68732 18 4.53518 18H19.4648C20.3127 18 21 17.3127 21 16.4648C21 16.1617 20.9103 15.8654 20.7422 15.6132L20.7089 15.5634C19.5874 13.8811 18.9041 11.9453 18.7211 9.93187Z" fill="#353566"/>
<path d="M11.125 14.5C11.125 14.0168 11.5168 13.625 12 13.625C12.4832 13.625 12.8751 14.0168 12.8751 14.5C12.8751 14.9832 12.4833 15.375 12.0001 15.375C11.5169 15.375 11.125 14.9832 11.125 14.5Z" fill="#353566"/>
<path d="M10.25 9.25C10.25 8.2835 11.0335 7.5 12 7.5C12.9665 7.5 13.75 8.2835 13.75 9.25C13.75 9.7383 13.5507 10.1791 13.2277 10.4971C13.0537 10.6684 12.8864 10.7626 12.6742 10.8822C12.6304 10.9069 12.5846 10.9326 12.5365 10.9604C12.259 11.1204 11.9383 11.3332 11.708 11.7644C11.5779 12.008 11.6699 12.3109 11.9135 12.441C12.1571 12.5711 12.46 12.4791 12.5901 12.2356C12.6887 12.051 12.8149 11.9542 13.036 11.8267C13.0682 11.8081 13.1033 11.7885 13.1409 11.7676C13.3566 11.6474 13.6518 11.4828 13.9292 11.2097C14.4353 10.7115 14.75 10.017 14.75 9.25C14.75 7.73122 13.5188 6.5 12 6.5C10.4812 6.5 9.25 7.73122 9.25 9.25C9.25 9.41759 9.26858 9.57131 9.29333 9.70229C9.34461 9.97363 9.60614 10.152 9.87748 10.1007C10.1488 10.0495 10.3272 9.78794 10.2759 9.51659C10.2606 9.43524 10.25 9.34451 10.25 9.25Z" fill="#353566"/>
<path fill-rule="evenodd" clip-rule="evenodd" d="M12 1.5C8.34327 1.5 5.2899 4.28838 4.95884 7.93009L4.78097 9.88661C4.60547 11.8171 3.95033 13.6731 2.87507 15.286L2.84181 15.3359C2.61893 15.6702 2.5 16.063 2.5 16.4648C2.5 17.5888 3.41118 18.5 4.53518 18.5H19.4648C20.5888 18.5 21.5 17.5888 21.5 16.4648C21.5 16.063 21.3811 15.6702 21.1582 15.3359L21.1249 15.286C20.0497 13.6731 19.3945 11.8171 19.219 9.8866L19.0412 7.93009C18.7101 4.28838 15.6567 1.5 12 1.5ZM5.95473 8.02063C6.23897 4.894 8.86047 2.5 12 2.5C15.1395 2.5 17.761 4.89399 18.0453 8.02063L18.2231 9.97714C18.4137 12.0736 19.1252 14.0892 20.2929 15.8407L20.3261 15.8906C20.4395 16.0606 20.5 16.2604 20.5 16.4648C20.5 17.0365 20.0365 17.5 19.4648 17.5H4.53518C3.96347 17.5 3.5 17.0365 3.5 16.4648C3.5 16.2604 3.56049 16.0606 3.67386 15.8906L3.70712 15.8407C4.87481 14.0892 5.58628 12.0736 5.77687 9.97714L5.95473 8.02063Z" fill="#353566"/>
<path d="M9.83416 20.2497C9.69589 20.0107 9.39003 19.929 9.151 20.0673C8.91197 20.2056 8.83028 20.5114 8.96856 20.7504C9.57297 21.7953 10.7039 22.5001 12 22.5001C13.2961 22.5001 14.4271 21.7953 15.0315 20.7504C15.1697 20.5114 15.0881 20.2056 14.849 20.0673C14.61 19.929 14.3041 20.0107 14.1659 20.2497C13.7328 20.9983 12.9247 21.5001 12 21.5001C11.0753 21.5001 10.2672 20.9983 9.83416 20.2497Z" fill="#353566"/>
</svg>
