<svg width="24" height="24" viewBox="0 0 24 24" fill="none" xmlns="http://www.w3.org/2000/svg">
<path opacity="0.4" d="M7.5 7.5H4.75C3.23122 7.5 2 6.26878 2 4.75C2 3.23122 3.23122 2 4.75 2C6.26878 2 7.5 3.23122 7.5 4.75V7.5H16.5V4.75C16.5 3.23122 17.7312 2 19.25 2C20.7688 2 22 3.23122 22 4.75C22 6.26878 20.7688 7.5 19.25 7.5H16.5V16.5H19.25C20.7688 16.5 22 17.7312 22 19.25C22 20.7688 20.7688 22 19.25 22C17.7312 22 16.5 20.7688 16.5 19.25V16.5H7.5V19.25C7.5 20.7688 6.26878 22 4.75 22C3.23122 22 2 20.7688 2 19.25C2 17.7312 3.23122 16.5 4.75 16.5H7.5V7.5Z" fill="#353566"/>
<path fill-rule="evenodd" clip-rule="evenodd" d="M8 7V4.75C8 2.95507 6.54493 1.5 4.75 1.5C2.95507 1.5 1.5 2.95507 1.5 4.75C1.5 6.54493 2.95507 8 4.75 8H7V16H4.75C2.95507 16 1.5 17.4551 1.5 19.25C1.5 21.0449 2.95507 22.5 4.75 22.5C6.54493 22.5 8 21.0449 8 19.25V17H16V19.25C16 21.0449 17.4551 22.5 19.25 22.5C21.0449 22.5 22.5 21.0449 22.5 19.25C22.5 17.4551 21.0449 16 19.25 16H17V8H19.25C21.0449 8 22.5 6.54493 22.5 4.75C22.5 2.95507 21.0449 1.5 19.25 1.5C17.4551 1.5 16 2.95507 16 4.75V7H8ZM4.75 2.5C3.50736 2.5 2.5 3.50736 2.5 4.75C2.5 5.99264 3.50736 7 4.75 7H7V4.75C7 3.50736 5.99264 2.5 4.75 2.5ZM8 8V16H16V8H8ZM17 7H19.25C20.4926 7 21.5 5.99264 21.5 4.75C21.5 3.50736 20.4926 2.5 19.25 2.5C18.0074 2.5 17 3.50736 17 4.75V7ZM17 17V19.25C17 20.4926 18.0074 21.5 19.25 21.5C20.4926 21.5 21.5 20.4926 21.5 19.25C21.5 18.0074 20.4926 17 19.25 17H17ZM7 17H4.75C3.50736 17 2.5 18.0074 2.5 19.25C2.5 20.4926 3.50736 21.5 4.75 21.5C5.99264 21.5 7 20.4926 7 19.25V17Z" fill="#353566"/>
</svg>
