<svg width="24" height="24" viewBox="0 0 24 24" fill="none" xmlns="http://www.w3.org/2000/svg">
<path opacity="0.4" d="M6.17864 9.17355L2.10313 19.9633C1.64687 21.1712 2.82849 22.3528 4.03639 21.8965L14.8261 17.821C15.8452 17.4361 16.127 16.1274 15.3567 15.3571L8.64254 8.64292C7.87222 7.87261 6.56358 8.15444 6.17864 9.17355Z" fill="#353566"/>
<path d="M20.4711 14.4682C20.764 14.1754 21.2388 14.1754 21.5317 14.4682C21.8246 14.7611 21.8247 15.2361 21.5318 15.529C21.2389 15.8219 20.764 15.8219 20.4711 15.529C20.1783 15.2361 20.1782 14.7611 20.4711 14.4682Z" fill="#353566"/>
<path d="M19.2643 11.3312C18.7737 11.5491 18.3234 11.8819 17.8529 12.3524C17.6576 12.5477 17.3411 12.5477 17.1458 12.3525C16.9505 12.1573 16.9505 11.8407 17.1457 11.6454C17.6752 11.1158 18.2244 10.6989 18.8583 10.4173C19.4944 10.1347 20.1901 9.99968 20.9983 9.99968C21.2745 9.99968 21.4983 10.2235 21.4983 10.4997C21.4983 10.7758 21.2745 10.9997 20.9983 10.9997C20.3065 10.9997 19.7528 11.1142 19.2643 11.3312Z" fill="#353566"/>
<path fill-rule="evenodd" clip-rule="evenodd" d="M5.71107 8.9966C6.22432 7.63779 7.96917 7.26201 8.99626 8.2891L15.7105 15.0033C16.7375 16.0304 16.3618 17.7752 15.0029 18.2885L4.21324 22.364C2.6027 22.9723 1.02721 21.3969 1.63555 19.7863L5.71107 8.9966ZM8.28915 8.9962C7.77561 8.48266 6.90318 8.67055 6.64656 9.34996L5.93663 11.2294L12.7701 18.0629L14.6496 17.353C15.329 17.0964 15.5169 16.2239 15.0033 15.7104L8.28915 8.9962ZM4.28891 15.5917L5.5489 12.2559L11.7436 18.4506L8.40786 19.7106C8.3918 19.688 8.37364 19.6665 8.35337 19.6462L4.35337 15.6462C4.3331 15.6259 4.31153 15.6078 4.28891 15.5917ZM3.90392 16.6109L2.57104 20.1397C2.26687 20.9449 3.05461 21.7327 3.85988 21.4285L7.3886 20.0956L3.90392 16.6109Z" fill="#353566"/>
<path d="M11.6458 6.14512C12.1163 5.67464 12.4491 5.2243 12.667 4.7337C12.884 4.24525 12.9985 3.69146 12.9985 2.99968C12.9985 2.72354 13.2224 2.49968 13.4985 2.49968C13.7746 2.49968 13.9985 2.72354 13.9985 2.99968C13.9985 3.8079 13.8635 4.50362 13.5809 5.13969C13.2993 5.77359 12.8824 6.32277 12.3528 6.85229C12.1575 7.04754 11.8409 7.0475 11.6457 6.85222C11.4504 6.65694 11.4505 6.34036 11.6458 6.14512Z" fill="#353566"/>
<path d="M17.5005 1.99994C17.4995 5.85499 15.5707 8.65473 13.7765 9.55187C13.5295 9.67536 13.4294 9.9757 13.5528 10.2227C13.6763 10.4697 13.9767 10.5698 14.2237 10.4463C16.4294 9.34344 18.4994 6.14513 18.5005 2.00018C18.5005 1.72404 18.2767 1.50013 18.0006 1.50006C17.7244 1.49999 17.5005 1.7238 17.5005 1.99994Z" fill="#353566"/>
<path d="M9.53125 2.46873C9.23835 2.17584 8.76348 2.17584 8.47059 2.46873C8.17769 2.76163 8.17769 3.2365 8.47059 3.52939C8.76348 3.82229 9.23842 3.82236 9.53132 3.52946C9.82421 3.23657 9.82414 2.76163 9.53125 2.46873Z" fill="#353566"/>
<path d="M21.5311 5.46885C21.2382 5.17596 20.7634 5.17596 20.4705 5.46885C20.1776 5.76175 20.1776 6.23662 20.4705 6.52951C20.7634 6.82241 21.2383 6.82248 21.5312 6.52959C21.8241 6.23669 21.824 5.76175 21.5311 5.46885Z" fill="#353566"/>
</svg>
