<svg width="24" height="24" viewBox="0 0 24 24" fill="none" xmlns="http://www.w3.org/2000/svg">
<path opacity="0.4" d="M19 10.5C19 15.1944 15.1944 19 10.5 19C5.80558 19 2 15.1944 2 10.5C2 5.80558 5.80558 2 10.5 2C15.1944 2 19 5.80558 19 10.5Z" fill="#353566"/>
<path d="M10.5 6.5C10.7761 6.5 11 6.72386 11 7V12.7929L13.1464 10.6464C13.3417 10.4512 13.6583 10.4512 13.8536 10.6464C14.0488 10.8417 14.0488 11.1583 13.8536 11.3536L10.8536 14.3536C10.7598 14.4473 10.6326 14.5 10.5 14.5C10.3674 14.5 10.2402 14.4473 10.1464 14.3536L7.14645 11.3536C6.95118 11.1583 6.95118 10.8417 7.14645 10.6464C7.34171 10.4512 7.65829 10.4512 7.85355 10.6464L10 12.7929V7C10 6.72386 10.2239 6.5 10.5 6.5Z" fill="#353566"/>
<path fill-rule="evenodd" clip-rule="evenodd" d="M16.5006 17.2077C14.9083 18.6332 12.8054 19.5 10.5 19.5C5.52944 19.5 1.5 15.4706 1.5 10.5C1.5 5.52944 5.52944 1.5 10.5 1.5C15.4706 1.5 19.5 5.52944 19.5 10.5C19.5 12.8054 18.6332 14.9083 17.2077 16.5006L22.3536 21.6464C22.5488 21.8417 22.5488 22.1583 22.3536 22.3536C22.1583 22.5488 21.8417 22.5488 21.6464 22.3536L16.5006 17.2077ZM2.5 10.5C2.5 6.08172 6.08172 2.5 10.5 2.5C14.9183 2.5 18.5 6.08172 18.5 10.5C18.5 12.6669 17.6385 14.6326 16.2393 16.0732C16.2062 16.0934 16.175 16.1179 16.1464 16.1464C16.1179 16.175 16.0934 16.2062 16.0732 16.2393C14.6326 17.6385 12.6669 18.5 10.5 18.5C6.08172 18.5 2.5 14.9183 2.5 10.5Z" fill="#353566"/>
</svg>
