<svg width="24" height="24" viewBox="0 0 24 24" fill="none" xmlns="http://www.w3.org/2000/svg">
<path opacity="0.4" d="M18.5 4H5.5C4.09987 4 3.3998 4 2.86502 4.27248C2.39462 4.51217 2.01217 4.89462 1.77248 5.36502C1.5 5.8998 1.5 6.59987 1.5 8V16C1.5 17.4001 1.5 18.1002 1.77248 18.635C2.01217 19.1054 2.39462 19.4878 2.86502 19.7275C3.3998 20 4.09987 20 5.5 20H18.5C19.9001 20 20.6002 20 21.135 19.7275C21.6054 19.4878 21.9878 19.1054 22.2275 18.635C22.5 18.1002 22.5 17.4001 22.5 16V8C22.5 6.59987 22.5 5.8998 22.2275 5.36502C21.9878 4.89462 21.6054 4.51217 21.135 4.27248C20.6002 4 19.9001 4 18.5 4Z" fill="#353566"/>
<path fill-rule="evenodd" clip-rule="evenodd" d="M5.47812 3.5C4.7966 3.5 4.25458 3.49999 3.81729 3.53572C3.36949 3.57231 2.98765 3.64884 2.63803 3.82698C2.07354 4.1146 1.6146 4.57354 1.32698 5.13803C1.14884 5.48765 1.07231 5.86949 1.03572 6.31729C0.999993 6.75458 0.999996 7.2966 1 7.97812V16.0219C0.999996 16.7034 0.999993 17.2454 1.03572 17.6827C1.07231 18.1305 1.14884 18.5123 1.32698 18.862C1.6146 19.4265 2.07354 19.8854 2.63803 20.173C2.98765 20.3512 3.36949 20.4277 3.81729 20.4643C4.25453 20.5 4.79647 20.5 5.47789 20.5H18.5219C19.2033 20.5 19.7455 20.5 20.1827 20.4643C20.6305 20.4277 21.0123 20.3512 21.362 20.173C21.9265 19.8854 22.3854 19.4265 22.673 18.862C22.8512 18.5123 22.9277 18.1305 22.9643 17.6827C23 17.2454 23 16.7035 23 16.022V7.97821C23 7.29675 23 6.75456 22.9643 6.31729C22.9277 5.86949 22.8512 5.48765 22.673 5.13803C22.3854 4.57354 21.9265 4.1146 21.362 3.82698C21.0123 3.64884 20.6305 3.57231 20.1827 3.53572C19.7454 3.49999 19.2034 3.5 18.5219 3.5H5.47812ZM2 15.5V16C2 16.7083 2.00039 17.2095 2.0324 17.6013C2.06393 17.9872 2.12365 18.2228 2.21799 18.408C2.40973 18.7843 2.71569 19.0903 3.09202 19.282C3.27717 19.3764 3.51276 19.4361 3.89872 19.4676C4.29052 19.4996 4.79168 19.5 5.5 19.5H11.5V15.9691C9.52684 15.723 8 14.0398 8 12C8 9.96019 9.52684 8.277 11.5 8.03095V4.5H5.5C4.79168 4.5 4.29052 4.50039 3.89872 4.5324C3.51276 4.56393 3.27717 4.62365 3.09202 4.71799C2.71569 4.90973 2.40973 5.21569 2.21799 5.59202C2.12365 5.77717 2.06393 6.01276 2.0324 6.39872C2.00039 6.79052 2 7.29168 2 8V8.5H4.25C4.94036 8.5 5.5 9.05964 5.5 9.75V14.25C5.5 14.9404 4.94036 15.5 4.25 15.5H2ZM2 9.5H4.25C4.38807 9.5 4.5 9.61193 4.5 9.75V14.25C4.5 14.3881 4.38807 14.5 4.25 14.5H2V9.5ZM19.75 9.5H22V14.5H19.75C19.6119 14.5 19.5 14.3881 19.5 14.25V9.75C19.5 9.61193 19.6119 9.5 19.75 9.5ZM19.75 8.5H22V8C22 7.29168 21.9996 6.79052 21.9676 6.39872C21.9361 6.01276 21.8764 5.77717 21.782 5.59202C21.5903 5.21569 21.2843 4.90973 20.908 4.71799C20.7228 4.62365 20.4872 4.56393 20.1013 4.5324C19.7095 4.50039 19.2083 4.5 18.5 4.5H12.5V8.03095C14.4732 8.277 16 9.96019 16 12C16 14.0398 14.4732 15.723 12.5 15.9691V19.5H18.5C19.2083 19.5 19.7095 19.4996 20.1013 19.4676C20.4872 19.4361 20.7228 19.3764 20.908 19.282C21.2843 19.0903 21.5903 18.7843 21.782 18.408C21.8764 18.2228 21.9361 17.9872 21.9676 17.6013C21.9996 17.2095 22 16.7083 22 16V15.5H19.75C19.0596 15.5 18.5 14.9404 18.5 14.25V9.75C18.5 9.05964 19.0596 8.5 19.75 8.5ZM12 15C13.6569 15 15 13.6569 15 12C15 10.3431 13.6569 9 12 9C10.3431 9 9 10.3431 9 12C9 13.6569 10.3431 15 12 15Z" fill="#353566"/>
</svg>
