<svg width="24" height="24" viewBox="0 0 24 24" fill="none" xmlns="http://www.w3.org/2000/svg">
<path fill-rule="evenodd" clip-rule="evenodd" d="M11.8821 4.59026C11.6386 4.48956 11.3877 4.51944 11.1946 4.54244L11.1449 4.54828C7.4052 4.97303 4.5 8.1469 4.5 12C4.5 15.8531 7.4052 19.027 11.1449 19.4518L11.1946 19.4576C11.3877 19.4806 11.6386 19.5105 11.8821 19.4098C12.0844 19.3261 12.2691 19.1612 12.3751 18.9696C12.4517 18.8311 12.4786 18.6936 12.49 18.5718C12.5 18.4649 12.5 18.3405 12.5 18.2171V5.78297C12.5 5.65958 12.5 5.53519 12.49 5.42819C12.4786 5.30647 12.4517 5.1689 12.3751 5.03042C12.2691 4.83885 12.0844 4.67391 11.8821 4.59026ZM11.2578 5.54189C11.3209 5.53472 11.3695 5.52922 11.4117 5.52529C11.4497 5.52174 11.4756 5.52017 11.4942 5.51975L11.4944 5.52158C11.4995 5.5761 11.5 5.65251 11.5 5.80002V18.2C11.5 18.3475 11.4995 18.4239 11.4944 18.4785L11.4942 18.4803C11.4756 18.4799 11.4497 18.4783 11.4117 18.4748C11.3695 18.4708 11.3209 18.4653 11.2577 18.4582C8.01766 18.0901 5.5 15.3387 5.5 12C5.5 8.66129 8.01766 5.9099 11.2578 5.54189Z" fill="#353566"/>
<path fill-rule="evenodd" clip-rule="evenodd" d="M12 1.5C6.20101 1.5 1.5 6.20101 1.5 12C1.5 17.799 6.20101 22.5 12 22.5C17.799 22.5 22.5 17.799 22.5 12C22.5 6.20101 17.799 1.5 12 1.5ZM2.5 12C2.5 6.75329 6.75329 2.5 12 2.5C17.2467 2.5 21.5 6.75329 21.5 12C21.5 17.2467 17.2467 21.5 12 21.5C6.75329 21.5 2.5 17.2467 2.5 12Z" fill="#353566"/>
</svg>
