<svg width="24" height="24" viewBox="0 0 24 24" fill="none" xmlns="http://www.w3.org/2000/svg">
<path fill-rule="evenodd" clip-rule="evenodd" d="M17.9367 2.54574C18.3097 2.46672 18.6975 2.49598 19.0545 2.63006C19.2828 2.71581 19.4743 2.84966 19.6642 3.0127C19.8462 3.16886 20.0516 3.37432 20.2991 3.62182L21.3778 4.70051C21.6254 4.94806 21.8309 5.15357 21.9871 5.33552C22.1501 5.52547 22.284 5.717 22.3697 5.94528C22.5038 6.30222 22.533 6.69005 22.454 7.06307C22.4035 7.30163 22.2999 7.51107 22.1672 7.72333C22.0401 7.92665 21.8677 8.16066 21.6601 8.44255L15.085 17.3697C14.8575 17.679 14.6857 17.9125 14.4604 18.0857C14.2619 18.2382 14.0366 18.3521 13.7961 18.4215C13.5231 18.5002 13.2332 18.5 12.8492 18.4998L11.6627 18.4998C11.3943 18.4998 11.3416 18.503 11.2975 18.5136C11.2464 18.5259 11.1977 18.5461 11.1529 18.5735C11.1142 18.5972 11.0747 18.6322 10.8849 18.822L9.97121 19.7357C9.78486 19.922 9.62411 20.0828 9.48087 20.2044C9.32967 20.3327 9.16544 20.4465 8.9635 20.5122C8.66223 20.6101 8.33771 20.6101 8.03645 20.5122C7.83451 20.4465 7.67027 20.3327 7.51907 20.2044L7.51012 20.1968L6.35357 21.3533C6.2598 21.4471 6.13262 21.4998 6.00001 21.4998H2.00001C1.79778 21.4998 1.61547 21.3779 1.53807 21.1911C1.46068 21.0043 1.50346 20.7892 1.64646 20.6462L4.80302 17.4896L4.79538 17.4807C4.66702 17.3295 4.55321 17.1653 4.4876 16.9633C4.38971 16.6621 4.38971 16.3375 4.4876 16.0363C4.55321 15.8343 4.66702 15.6701 4.79538 15.5189C4.91699 15.3756 5.07778 15.2149 5.26416 15.0285L6.17779 14.1149C6.36757 13.9251 6.40256 13.8855 6.42629 13.8468C6.45371 13.8021 6.47391 13.7533 6.48616 13.7023C6.49676 13.6581 6.49997 13.6054 6.49997 13.3371L6.49995 12.1506C6.49973 11.7666 6.49956 11.4767 6.5783 11.2037C6.64767 10.9632 6.76157 10.7378 6.9141 10.5393C7.08722 10.314 7.32073 10.1423 7.63005 9.91471L16.5573 3.33966C16.8391 3.13206 17.0731 2.9597 17.2764 2.83259C17.4887 2.69988 17.6981 2.59628 17.9367 2.54574ZM6.79287 19.4998L5.49997 18.2069L3.20712 20.4998H5.79291L6.79287 19.4998ZM8.16625 19.442C8.07352 19.3633 7.96355 19.2558 7.806 19.0986L5.90131 17.1939C5.74407 17.0363 5.63647 16.9263 5.55772 16.8335C5.46952 16.7296 5.44723 16.6807 5.43866 16.6543C5.40603 16.5539 5.40603 16.4457 5.43866 16.3453C5.44723 16.3189 5.46952 16.27 5.55772 16.1661C5.64971 16.0577 5.78105 15.9258 5.9849 15.722L6.91437 14.7925C7.05836 14.6488 7.18531 14.5221 7.27893 14.3693C7.36117 14.2351 7.42178 14.0888 7.45853 13.9357C7.50035 13.7615 7.50019 13.5822 7.5 13.3787L7.49997 12.2128C7.49997 11.7389 7.50458 11.6007 7.53913 11.4808C7.57382 11.3606 7.63077 11.2479 7.70704 11.1486C7.78302 11.0498 7.89163 10.964 8.27321 10.683L8.678 10.3849L14.6149 16.3218L14.3168 16.7266C14.0357 17.1081 13.95 17.2167 13.8511 17.2927C13.7519 17.369 13.6392 17.4259 13.5189 17.4606C13.3991 17.4952 13.2608 17.4998 12.7869 17.4998L11.6211 17.4998C11.4176 17.4996 11.2382 17.4994 11.064 17.5412C10.911 17.578 10.7646 17.6386 10.6304 17.7208C10.4777 17.8144 10.351 17.9414 10.2072 18.0854L9.27779 19.0149C9.07395 19.2187 8.94205 19.3501 8.83369 19.442C8.7298 19.5302 8.68087 19.5525 8.65448 19.5611C8.55406 19.5937 8.44588 19.5937 8.34546 19.5611C8.31907 19.5525 8.27014 19.5302 8.16625 19.442ZM15.2147 15.5074L20.8438 7.86462C21.0654 7.56376 21.2147 7.36036 21.3193 7.19319C21.4205 7.03134 21.459 6.93469 21.4757 6.85582C21.5152 6.66932 21.5006 6.4754 21.4336 6.29693C21.4052 6.22147 21.3526 6.1317 21.2283 5.98686C21.0999 5.83726 20.9216 5.65857 20.6574 5.39436L19.6054 4.34233C19.3412 4.07812 19.1625 3.89991 19.0129 3.7715C18.8681 3.64717 18.7783 3.59454 18.7028 3.56619C18.5244 3.49915 18.3304 3.48452 18.1439 3.52403C18.0651 3.54074 17.9684 3.5793 17.8066 3.6805C17.6394 3.78502 17.436 3.93441 17.1351 4.156L9.4924 9.78505L15.2147 15.5074Z" fill="#353566"/>
</svg>
