<svg width="24" height="24" viewBox="0 0 24 24" fill="none" xmlns="http://www.w3.org/2000/svg">
<path fill-rule="evenodd" clip-rule="evenodd" d="M10.2185 1.50003C9.81317 1.49978 9.50727 1.4996 9.22161 1.58635C8.97003 1.66275 8.73598 1.78801 8.53286 1.95496C8.30222 2.14452 8.13269 2.39915 7.90805 2.73654L7.29645 3.65398C7.01869 4.07062 6.93336 4.18944 6.83218 4.2726C6.73062 4.35607 6.6136 4.4187 6.48781 4.4569C6.36249 4.49496 6.2163 4.50005 5.71556 4.50005H5L4.99684 4.50006H3C2.72386 4.50006 2.5 4.72392 2.5 5.00006C2.5 5.2762 2.72386 5.50006 3 5.50006H21C21.2761 5.50006 21.5 5.2762 21.5 5.00006C21.5 4.72392 21.2761 4.50006 21 4.50006H19.0032L19 4.50005H18.2844C17.7837 4.50005 17.6375 4.49496 17.5122 4.4569C17.3864 4.4187 17.2694 4.35607 17.1678 4.2726C17.0666 4.18944 16.9813 4.07062 16.7035 3.65398L16.092 2.73655C15.8673 2.39915 15.6978 2.14453 15.4671 1.95496C15.264 1.78801 15.03 1.66275 14.7784 1.58635C14.4927 1.4996 14.1868 1.49978 13.7815 1.50003H10.2185ZM16.0671 4.50006C16.0163 4.42618 15.9639 4.34747 15.9081 4.26365L15.2965 3.34612C15.0187 2.92948 14.9334 2.81066 14.8322 2.72751C14.7306 2.64403 14.6136 2.5814 14.4878 2.5432C14.3625 2.50514 14.2163 2.50005 13.7156 2.50005H10.2844C9.7837 2.50005 9.63751 2.50514 9.51219 2.5432C9.3864 2.5814 9.26938 2.64403 9.16782 2.72751C9.06664 2.81066 8.98131 2.92948 8.70355 3.34612L8.09195 4.26356C8.03616 4.34736 7.98366 4.4262 7.93288 4.50006H16.0671Z" fill="#353566"/>
<path d="M4.64731 7.50223C4.92226 7.47657 5.16594 7.67867 5.1916 7.95361L6.0916 17.5995C6.16405 18.376 6.21606 18.9297 6.291 19.3629C6.36488 19.79 6.4552 20.0606 6.5842 20.2776C6.83777 20.7041 7.21252 21.0455 7.66076 21.2584C7.8888 21.3667 8.16664 21.4315 8.59876 21.4653C9.03704 21.4997 9.59316 21.5001 10.373 21.5001H13.627C14.4069 21.5001 14.963 21.4997 15.4013 21.4653C15.8334 21.4315 16.1112 21.3667 16.3393 21.2584C16.7875 21.0455 17.1623 20.7041 17.4158 20.2776C17.5448 20.0606 17.6352 19.79 17.709 19.3629C17.784 18.9297 17.836 18.376 17.9084 17.5996L18.8085 7.95361C18.8342 7.67866 19.0778 7.47657 19.3528 7.50223C19.6277 7.52788 19.8298 7.77157 19.8042 8.04652L18.9022 17.7134C18.8321 18.4643 18.7768 19.057 18.6944 19.5333C18.6102 20.0202 18.4919 20.4245 18.2754 20.7886C17.9204 21.3858 17.3958 21.8637 16.7682 22.1617C16.3855 22.3434 15.972 22.4237 15.4794 22.4623C14.9976 22.5001 14.4024 22.5001 13.6483 22.5001H10.352C9.5979 22.5001 9.00248 22.5001 8.52059 22.4623C8.02804 22.4237 7.61452 22.3434 7.23181 22.1617C6.60428 21.8637 6.07962 21.3857 5.72463 20.7886C5.50813 20.4244 5.38984 20.0202 5.30563 19.5333C5.22324 19.057 5.16794 18.4643 5.09788 17.7134L4.19592 8.04651C4.17027 7.77157 4.37236 7.52788 4.64731 7.50223Z" fill="#353566"/>
<path d="M14.5 17.0001V15.5001C14.5 14.3955 13.6046 13.5001 12.5 13.5001H9.20711L10.8536 15.1465C11.0488 15.3418 11.0488 15.6584 10.8536 15.8536C10.6583 16.0489 10.3417 16.0489 10.1464 15.8536L7.64645 13.3536C7.55268 13.2598 7.5 13.1327 7.5 13.0001C7.5 12.8675 7.55268 12.7403 7.64645 12.6465L10.1464 10.1465C10.3417 9.95125 10.6583 9.95125 10.8536 10.1465C11.0488 10.3418 11.0488 10.6584 10.8536 10.8536L9.20711 12.5001H12.5C14.1569 12.5001 15.5 13.8432 15.5 15.5001V17.0001C15.5 17.2762 15.2761 17.5001 15 17.5001C14.7239 17.5001 14.5 17.2762 14.5 17.0001Z" fill="#353566"/>
</svg>
