<svg width="24" height="24" viewBox="0 0 24 24" fill="none" xmlns="http://www.w3.org/2000/svg">
<path fill-rule="evenodd" clip-rule="evenodd" d="M10.2185 1.50003H13.7815C14.1868 1.49978 14.4927 1.4996 14.7784 1.58635C15.03 1.66275 15.264 1.78801 15.4671 1.95496C15.6978 2.14453 15.8673 2.39915 16.092 2.73655L16.7035 3.65398C16.9813 4.07062 17.0666 4.18944 17.1678 4.2726C17.2694 4.35607 17.3864 4.4187 17.5122 4.4569C17.6375 4.49496 17.7837 4.50005 18.2844 4.50005H19L19.0032 4.50006H21C21.2761 4.50006 21.5 4.72392 21.5 5.00006C21.5 5.2762 21.2761 5.50006 21 5.50006H3C2.72386 5.50006 2.5 5.2762 2.5 5.00006C2.5 4.72392 2.72386 4.50006 3 4.50006H4.99684L5 4.50005H5.71556C6.2163 4.50005 6.36249 4.49496 6.48781 4.4569C6.6136 4.4187 6.73062 4.35607 6.83218 4.2726C6.93336 4.18944 7.01869 4.07062 7.29645 3.65398L7.90805 2.73654C8.13268 2.39915 8.30222 2.14452 8.53286 1.95496C8.73598 1.78801 8.97003 1.66275 9.22161 1.58635C9.50727 1.4996 9.81317 1.49978 10.2185 1.50003ZM15.9081 4.26365C15.9639 4.34747 16.0163 4.42618 16.0671 4.50006H7.93288C7.98366 4.4262 8.03606 4.34751 8.09185 4.26371L8.70355 3.34612C8.98131 2.92948 9.06664 2.81066 9.16782 2.72751C9.26938 2.64403 9.3864 2.5814 9.51219 2.5432C9.63751 2.50514 9.7837 2.50005 10.2844 2.50005H13.7156C14.2163 2.50005 14.3625 2.50514 14.4878 2.5432C14.6136 2.5814 14.7306 2.64403 14.8322 2.72751C14.9334 2.81066 15.0187 2.92948 15.2965 3.34612L15.9081 4.26365Z" fill="#353566"/>
<path d="M5.1916 7.95358C5.16594 7.67864 4.92226 7.47654 4.64731 7.5022C4.37236 7.52785 4.17027 7.77154 4.19592 8.04648L5.09788 17.7134C5.16794 18.4643 5.22324 19.057 5.30563 19.5333C5.38984 20.0201 5.50813 20.4244 5.72463 20.7886C6.07962 21.3857 6.60428 21.8637 7.23181 22.1617C7.61452 22.3434 8.02804 22.4236 8.52059 22.4623C9.00247 22.5 9.59767 22.5 10.3517 22.5H13.6481C14.4021 22.5 14.9976 22.5 15.4794 22.4623C15.972 22.4236 16.3855 22.3434 16.7682 22.1617C17.3958 21.8637 17.9204 21.3857 18.2754 20.7886C18.4919 20.4244 18.6102 20.0201 18.6944 19.5333C18.7768 19.057 18.8321 18.4643 18.9022 17.7134L19.8042 8.04649C19.8298 7.77154 19.6277 7.52785 19.3528 7.5022C19.0778 7.47654 18.8342 7.67863 18.8085 7.95358L17.9084 17.5995C17.836 18.376 17.784 18.9297 17.709 19.3629C17.6352 19.79 17.5448 20.0606 17.4158 20.2776C17.1623 20.7041 16.7875 21.0455 16.3393 21.2584C16.1112 21.3666 15.8334 21.4314 15.4013 21.4653C14.963 21.4997 14.4069 21.5 13.627 21.5H10.373C9.59316 21.5 9.03704 21.4997 8.59876 21.4653C8.16664 21.4314 7.8888 21.3666 7.66076 21.2584C7.21252 21.0455 6.83777 20.7041 6.5842 20.2776C6.4552 20.0606 6.36488 19.7899 6.291 19.3628C6.21606 18.9297 6.16405 18.376 6.0916 17.5995L5.1916 7.95358Z" fill="#353566"/>
<path d="M15.3536 11.3536C15.5488 11.1584 15.5488 10.8418 15.3536 10.6465C15.1583 10.4512 14.8417 10.4512 14.6464 10.6465L8.64645 16.6465C8.45118 16.8418 8.45118 17.1584 8.64645 17.3536C8.84171 17.5489 9.15829 17.5489 9.35355 17.3536L15.3536 11.3536Z" fill="#353566"/>
<path d="M8.75 11.5001C8.75 11.0858 9.08579 10.7501 9.5 10.7501C9.91421 10.7501 10.2501 11.0858 10.2501 11.5001C10.2501 11.9143 9.91431 12.2501 9.5001 12.2501C9.08589 12.2501 8.75 11.9143 8.75 11.5001Z" fill="#353566"/>
<path d="M14.5 15.7501C14.0858 15.7501 13.75 16.0858 13.75 16.5001C13.75 16.9143 14.0858 17.2501 14.5 17.2501C14.9142 17.2501 15.2501 16.9143 15.2501 16.5001C15.2501 16.0858 14.9142 15.7501 14.5 15.7501Z" fill="#353566"/>
</svg>
