<svg width="24" height="24" viewBox="0 0 24 24" fill="none" xmlns="http://www.w3.org/2000/svg">
<path fill-rule="evenodd" clip-rule="evenodd" d="M10.2185 1.50003C9.81317 1.49978 9.50727 1.4996 9.22161 1.58635C8.97003 1.66275 8.73598 1.78801 8.53286 1.95496C8.30222 2.14452 8.13269 2.39915 7.90805 2.73654L7.29645 3.65398C7.01869 4.07062 6.93336 4.18944 6.83218 4.2726C6.73062 4.35607 6.6136 4.4187 6.48781 4.4569C6.36249 4.49496 6.2163 4.50005 5.71556 4.50005H5L4.99684 4.50006H3C2.72386 4.50006 2.5 4.72392 2.5 5.00006C2.5 5.2762 2.72386 5.50006 3 5.50006H21C21.2761 5.50006 21.5 5.2762 21.5 5.00006C21.5 4.72392 21.2761 4.50006 21 4.50006H19.0032L19 4.50005H18.2844C17.7837 4.50005 17.6375 4.49496 17.5122 4.4569C17.3864 4.4187 17.2694 4.35607 17.1678 4.2726C17.0666 4.18944 16.9813 4.07062 16.7035 3.65398L16.092 2.73655C15.8673 2.39915 15.6978 2.14453 15.4671 1.95496C15.264 1.78801 15.03 1.66275 14.7784 1.58635C14.4927 1.4996 14.1868 1.49978 13.7815 1.50003H10.2185ZM16.0671 4.50006H7.93288C7.98369 4.42616 8.03612 4.34741 8.09195 4.26356L8.70355 3.34612C8.98131 2.92948 9.06664 2.81066 9.16782 2.72751C9.26938 2.64403 9.3864 2.5814 9.51219 2.5432C9.63751 2.50514 9.7837 2.50005 10.2844 2.50005H13.7156C14.2163 2.50005 14.3625 2.50514 14.4878 2.5432C14.6136 2.5814 14.7306 2.64403 14.8322 2.72751C14.9334 2.81066 15.0187 2.92948 15.2965 3.34612L15.908 4.26355C15.9639 4.34741 16.0163 4.42616 16.0671 4.50006Z" fill="#353566"/>
<path d="M4.19592 8.04648C4.17027 7.77154 4.37236 7.52785 4.64731 7.5022C4.92226 7.47654 5.16594 7.67864 5.1916 7.95358L6.0916 17.5995C6.16405 18.376 6.21606 18.9297 6.291 19.3628C6.36488 19.7899 6.4552 20.0606 6.5842 20.2776C6.83777 20.7041 7.21252 21.0455 7.66076 21.2584C7.8888 21.3666 8.16664 21.4314 8.59876 21.4653C9.03704 21.4997 9.59316 21.5 10.373 21.5H13.627C14.4069 21.5 14.963 21.4997 15.4013 21.4653C15.8334 21.4314 16.1112 21.3666 16.3393 21.2584C16.7875 21.0455 17.1623 20.7041 17.4158 20.2776C17.5448 20.0606 17.6352 19.79 17.709 19.3629C17.784 18.9297 17.836 18.376 17.9084 17.5995L18.8085 7.95358C18.8342 7.67863 19.0778 7.47654 19.3528 7.5022C19.6277 7.52785 19.8298 7.77154 19.8042 8.04649L18.9022 17.7134C18.8321 18.4643 18.7768 19.057 18.6944 19.5333C18.6102 20.0201 18.4919 20.4244 18.2754 20.7886C17.9204 21.3857 17.3958 21.8637 16.7682 22.1617C16.3855 22.3434 15.972 22.4236 15.4794 22.4623C14.9976 22.5 14.4024 22.5 13.6483 22.5H10.352C9.59789 22.5 9.00248 22.5 8.52059 22.4623C8.02804 22.4236 7.61452 22.3434 7.23181 22.1617C6.60428 21.8637 6.07962 21.3857 5.72463 20.7886C5.50813 20.4244 5.38984 20.0201 5.30563 19.5333C5.22324 19.057 5.16794 18.4643 5.09788 17.7134L4.19592 8.04648Z" fill="#353566"/>
<path fill-rule="evenodd" clip-rule="evenodd" d="M16.5 14.0001C16.5 11.5148 14.4853 9.50006 12 9.50006C9.51472 9.50006 7.5 11.5148 7.5 14.0001C7.5 16.4853 9.51472 18.5001 12 18.5001C14.4853 18.5001 16.5 16.4853 16.5 14.0001ZM12 10.5001C13.933 10.5001 15.5 12.0671 15.5 14.0001C15.5 14.7863 15.2408 15.5119 14.8031 16.0962L9.90382 11.1969C10.4881 10.7593 11.2138 10.5001 12 10.5001ZM9.19674 11.9041L14.096 16.8033C13.5117 17.2409 12.7861 17.5001 12 17.5001C10.067 17.5001 8.5 15.9331 8.5 14.0001C8.5 13.2139 8.75918 12.4883 9.19674 11.9041Z" fill="#353566"/>
</svg>
