<svg width="24" height="24" viewBox="0 0 24 24" fill="none" xmlns="http://www.w3.org/2000/svg">
<g clip-path="url(#clip0_9001_272983)">
<path opacity="0.4" d="M14.633 0.25H7.367C6.27486 0.249995 5.40936 0.24999 4.71173 0.306988C3.99835 0.365274 3.39472 0.486882 2.84355 0.767719C1.94978 1.22312 1.22312 1.94978 0.767719 2.84355C0.486882 3.39472 0.365274 3.99834 0.306988 4.71173C0.24999 5.40935 0.249995 6.27485 0.25 7.36699V14.633C0.249995 15.7251 0.24999 16.5906 0.306988 17.2883C0.365274 18.0017 0.486882 18.6053 0.76772 19.1565C1.22312 20.0502 1.94977 20.7769 2.84355 21.2323C3.39472 21.5131 3.99835 21.6347 4.71173 21.693C5.40935 21.75 6.27484 21.75 7.36698 21.75H12.3279C12.6005 21.75 12.8517 21.602 12.9839 21.3636C13.1161 21.1251 13.1084 20.8337 12.9639 20.6025C12.4323 19.7521 12.125 18.7474 12.125 17.6688C12.125 14.607 14.607 12.125 17.6688 12.125C18.7474 12.125 19.7521 12.4323 20.6025 12.9639C20.8337 13.1084 21.1251 13.1161 21.3636 12.9839C21.602 12.8517 21.75 12.6005 21.75 12.3279V7.36698C21.75 6.27484 21.75 5.40935 21.693 4.71173C21.6347 3.99835 21.5131 3.39472 21.2323 2.84355C20.7769 1.94977 20.0502 1.22312 19.1565 0.767719C18.6053 0.486882 18.0017 0.365274 17.2883 0.306988C16.5906 0.24999 15.7251 0.249995 14.633 0.25Z" fill="#353566"/>
<path d="M16.5303 8.46991C16.8232 8.76281 16.8232 9.23768 16.5303 9.53057L13.0303 13.0306C12.7374 13.3235 12.2626 13.3235 11.9697 13.0306L9.5 10.5609L6.53033 13.5306C6.23744 13.8235 5.76256 13.8235 5.46967 13.5306C5.17678 13.2377 5.17678 12.7628 5.46967 12.4699L8.96967 8.96991C9.26256 8.67702 9.73744 8.67702 10.0303 8.96991L12.5 11.4396L15.4697 8.46991C15.7626 8.17702 16.2374 8.17702 16.5303 8.46991Z" fill="#353566"/>
<path fill-rule="evenodd" clip-rule="evenodd" d="M13.0866 17.6182C13.0866 15.1156 15.1153 13.0869 17.6179 13.0869C20.1204 13.0869 22.1491 15.1156 22.1491 17.6182C22.1491 18.5987 21.8377 19.5064 21.3083 20.2479L23.5335 22.4732C23.8264 22.7661 23.8264 23.2409 23.5335 23.5338C23.2406 23.8267 22.7658 23.8267 22.4729 23.5338L20.2477 21.3086C19.5062 21.838 18.5984 22.1494 17.6179 22.1494C15.1153 22.1494 13.0866 20.1207 13.0866 17.6182ZM17.6179 14.5869C15.9437 14.5869 14.5866 15.9441 14.5866 17.6182C14.5866 19.2923 15.9437 20.6494 17.6179 20.6494C19.292 20.6494 20.6491 19.2923 20.6491 17.6182C20.6491 15.9441 19.292 14.5869 17.6179 14.5869Z" fill="#353566"/>
</g>
<defs>
<clipPath id="clip0_9001_272983">
<rect width="24" height="24" fill="white"/>
</clipPath>
</defs>
</svg>
