<svg width="24" height="24" viewBox="0 0 24 24" fill="none" xmlns="http://www.w3.org/2000/svg">
<g clip-path="url(#clip0_9001_273008)">
<path opacity="0.4" d="M14.633 0.25H7.367C6.27486 0.249995 5.40936 0.24999 4.71173 0.306988C3.99835 0.365274 3.39472 0.486882 2.84355 0.767719C1.94978 1.22312 1.22312 1.94978 0.767719 2.84355C0.486882 3.39472 0.365274 3.99834 0.306988 4.71173C0.24999 5.40935 0.249995 6.27485 0.25 7.36699V14.633C0.249995 15.7251 0.24999 16.5906 0.306988 17.2883C0.365274 18.0017 0.486882 18.6053 0.76772 19.1565C1.22312 20.0502 1.94977 20.7769 2.84355 21.2323C3.39472 21.5131 3.99835 21.6347 4.71173 21.693C5.40935 21.75 6.27484 21.75 7.36698 21.75H13.374C13.7195 21.75 14.0203 21.5139 14.1025 21.1783C14.2663 20.5088 14.6817 19.9295 15.2316 19.5171C15.7768 19.1082 16.4224 18.911 17.2082 18.7697C17.5655 18.7055 17.8255 18.3946 17.8255 18.0316V15.3735C17.8255 14.229 18.5808 13.2218 19.6796 12.9014L21.21 12.455C21.53 12.3617 21.75 12.0683 21.75 11.735V7.36698C21.75 6.27484 21.75 5.40935 21.693 4.71173C21.6347 3.99835 21.5131 3.39472 21.2323 2.84355C20.7769 1.94977 20.0502 1.22312 19.1565 0.767719C18.6053 0.486882 18.0017 0.365274 17.2883 0.306988C16.5906 0.24999 15.7251 0.249995 14.633 0.25Z" fill="#353566"/>
<path d="M16.5303 9.53033C16.8232 9.23744 16.8232 8.76256 16.5303 8.46967C16.2374 8.17678 15.7626 8.17678 15.4697 8.46967L12.5 11.4393L10.0303 8.96967C9.73744 8.67678 9.26256 8.67678 8.96967 8.96967L5.46967 12.4697C5.17678 12.7626 5.17678 13.2374 5.46967 13.5303C5.76256 13.8232 6.23744 13.8232 6.53033 13.5303L9.5 10.5607L11.9697 13.0303C12.2626 13.3232 12.7374 13.3232 13.0303 13.0303L16.5303 9.53033Z" fill="#353566"/>
<path d="M22.6374 16.7881L19.7954 17.6171V21.6198L19.7954 21.6281C19.7954 22.1454 19.5304 22.6256 19.075 22.9671C18.6245 23.305 18.0542 23.4616 17.5035 23.4616C16.9528 23.4616 16.3824 23.305 15.932 22.9671C15.4766 22.6256 15.2116 22.1454 15.2116 21.6281C15.2116 21.1107 15.4766 20.6305 15.932 20.289C16.3824 19.9511 16.9528 19.7945 17.5035 19.7945C17.9769 19.7945 18.4649 19.9103 18.8787 20.1574V15.4031C18.8787 14.7919 19.2821 14.2541 19.8688 14.083L22.1424 13.4198C22.8024 13.2273 23.4625 13.7224 23.4625 14.4099V15.688C23.4625 16.1973 23.1264 16.6455 22.6374 16.7881Z" fill="#353566"/>
</g>
<defs>
<clipPath id="clip0_9001_273008">
<rect width="24" height="24" fill="white"/>
</clipPath>
</defs>
</svg>
