<svg width="24" height="24" viewBox="0 0 24 24" fill="none" xmlns="http://www.w3.org/2000/svg">
<g clip-path="url(#clip0_9001_273003)">
<path opacity="0.4" d="M14.633 0.25H7.367C6.27486 0.249995 5.40936 0.24999 4.71173 0.306988C3.99835 0.365274 3.39472 0.486882 2.84355 0.767719C1.94978 1.22312 1.22312 1.94978 0.767719 2.84355C0.486882 3.39472 0.365274 3.99834 0.306988 4.71173C0.24999 5.40935 0.249995 6.27485 0.25 7.36699V14.633C0.249995 15.7251 0.24999 16.5906 0.306988 17.2883C0.365274 18.0017 0.486882 18.6053 0.76772 19.1565C1.22312 20.0502 1.94977 20.7769 2.84355 21.2323C3.39472 21.5131 3.99835 21.6347 4.71173 21.693C5.40935 21.75 6.27484 21.75 7.36698 21.75H14.0802C14.3343 21.75 14.5711 21.6214 14.7094 21.4082C15.1625 20.7098 15.7915 20.109 16.546 19.5661C16.7089 19.4489 16.818 19.2713 16.8489 19.073C16.8799 18.8747 16.8301 18.6722 16.7106 18.511L16.424 18.1239C15.9609 17.4988 15.6875 16.7269 15.6875 15.8875C15.6875 13.8095 17.3721 12.125 19.45 12.125C19.9054 12.125 20.3404 12.2056 20.7424 12.3526C20.9724 12.4367 21.229 12.4033 21.4297 12.2629C21.6304 12.1226 21.75 11.8931 21.75 11.6482V7.36698C21.75 6.27484 21.75 5.40935 21.693 4.71173C21.6347 3.99835 21.5131 3.39472 21.2323 2.84355C20.7769 1.94977 20.0502 1.22312 19.1565 0.767719C18.6053 0.486882 18.0017 0.365274 17.2883 0.306988C16.5906 0.24999 15.7251 0.249995 14.633 0.25Z" fill="#353566"/>
<path d="M16.5303 8.46967C16.8232 8.76256 16.8232 9.23744 16.5303 9.53033L13.0303 13.0303C12.7374 13.3232 12.2626 13.3232 11.9697 13.0303L9.5 10.5607L6.53033 13.5303C6.23744 13.8232 5.76256 13.8232 5.46967 13.5303C5.17678 13.2374 5.17678 12.7626 5.46967 12.4697L8.96967 8.96967C9.26256 8.67678 9.73744 8.67678 10.0303 8.96967L12.5 11.4393L15.4697 8.46967C15.7626 8.17678 16.2374 8.17678 16.5303 8.46967Z" fill="#353566"/>
<path d="M19.3366 19.7534C17.413 19.7534 15.6528 21.064 15.1857 22.8788C15.1472 23.0285 15.1801 23.1876 15.2748 23.3098C15.3695 23.4319 15.5153 23.5034 15.6699 23.5034H23.0033C23.1578 23.5034 23.3037 23.4319 23.3984 23.3098C23.4931 23.1876 23.526 23.0285 23.4875 22.8788C23.0204 21.064 21.2602 19.7534 19.3366 19.7534Z" fill="#353566"/>
<path d="M16.774 15.8992C16.774 14.4839 17.9213 13.3367 19.3365 13.3367C20.7518 13.3367 21.899 14.4839 21.899 15.8992C21.899 17.3144 20.7518 18.4617 19.3365 18.4617C17.9213 18.4617 16.774 17.3144 16.774 15.8992Z" fill="#353566"/>
</g>
<defs>
<clipPath id="clip0_9001_273003">
<rect width="24" height="24" fill="white"/>
</clipPath>
</defs>
</svg>
