<svg width="24" height="24" viewBox="0 0 24 24" fill="none" xmlns="http://www.w3.org/2000/svg">
<path fill-rule="evenodd" clip-rule="evenodd" d="M6.25 7.66303C7.68335 7.32445 8.75 6.03679 8.75 4.5C8.75 2.70507 7.29493 1.25 5.5 1.25C3.70507 1.25 2.25 2.70507 2.25 4.5C2.25 6.03679 3.31665 7.32445 4.75 7.66303V16.337C3.31665 16.6755 2.25 17.9632 2.25 19.5C2.25 21.2949 3.70507 22.75 5.5 22.75C7.29493 22.75 8.75 21.2949 8.75 19.5C8.75 17.9632 7.68335 16.6755 6.25 16.337V7.66303ZM3.75 4.5C3.75 3.5335 4.5335 2.75 5.5 2.75C6.4665 2.75 7.25 3.5335 7.25 4.5C7.25 5.4665 6.4665 6.25 5.5 6.25C4.5335 6.25 3.75 5.4665 3.75 4.5ZM3.75 19.5C3.75 18.5335 4.5335 17.75 5.5 17.75C6.4665 17.75 7.25 18.5335 7.25 19.5C7.25 20.4665 6.4665 21.25 5.5 21.25C4.5335 21.25 3.75 20.4665 3.75 19.5Z" fill="#353566"/>
<path d="M18.5 1.75C17.8096 1.75 17.25 2.30964 17.25 3C17.25 3.69036 17.8096 4.25 18.5 4.25C19.1904 4.25 19.7501 3.69036 19.7501 3C19.7501 2.30964 19.1904 1.75 18.5 1.75Z" fill="#353566"/>
<path d="M17.25 10.5C17.25 9.80964 17.8096 9.25 18.5 9.25C19.1904 9.25 19.7501 9.80964 19.7501 10.5C19.7501 11.1904 19.1905 11.75 18.5001 11.75C17.8097 11.75 17.25 11.1904 17.25 10.5Z" fill="#353566"/>
<path fill-rule="evenodd" clip-rule="evenodd" d="M18.5 16.25C16.7051 16.25 15.25 17.7051 15.25 19.5C15.25 21.2949 16.7051 22.75 18.5 22.75C20.2949 22.75 21.75 21.2949 21.75 19.5C21.75 17.7051 20.2949 16.25 18.5 16.25ZM16.75 19.5C16.75 18.5335 17.5335 17.75 18.5 17.75C19.4665 17.75 20.25 18.5335 20.25 19.5C20.25 20.4665 19.4665 21.25 18.5 21.25C17.5335 21.25 16.75 20.4665 16.75 19.5Z" fill="#353566"/>
</svg>
