<svg width="24" height="24" viewBox="0 0 24 24" fill="none" xmlns="http://www.w3.org/2000/svg">
<path d="M5.25 8C5.25 8.41421 5.58579 8.75 6 8.75L18 8.75C18.4142 8.75 18.75 8.41421 18.75 8C18.75 7.58579 18.4142 7.25 18 7.25L6 7.25C5.58579 7.25 5.25 7.58579 5.25 8Z" fill="#353566"/>
<path fill-rule="evenodd" clip-rule="evenodd" d="M5.96858 1.25H18.0314C18.7048 1.24999 19.2555 1.24998 19.7031 1.28655C20.1663 1.3244 20.5847 1.40514 20.9755 1.60423C21.587 1.91582 22.0842 2.413 22.3958 3.02453C22.5949 3.41527 22.6756 3.83367 22.7134 4.29693C22.75 4.74449 22.75 5.29519 22.75 5.96856V8.03144C22.75 8.70481 22.75 9.25551 22.7134 9.70307C22.6756 10.1663 22.5949 10.5847 22.3958 10.9755C22.0842 11.587 21.587 12.0842 20.9755 12.3958C20.5847 12.5949 20.1663 12.6756 19.7031 12.7134C19.2555 12.75 18.7048 12.75 18.0315 12.75H5.96856C5.29521 12.75 4.74448 12.75 4.29693 12.7134C3.83367 12.6756 3.41527 12.5949 3.02453 12.3958C2.413 12.0842 1.91582 11.587 1.60423 10.9755C1.40514 10.5847 1.3244 10.1663 1.28655 9.70307C1.24998 9.25551 1.24999 8.7048 1.25 8.03143V5.96858C1.24999 5.29521 1.24998 4.74449 1.28655 4.29693C1.3244 3.83367 1.40514 3.41527 1.60423 3.02453C1.91582 2.413 2.413 1.91582 3.02453 1.60423C3.41527 1.40514 3.83367 1.3244 4.29693 1.28655C4.74449 1.24998 5.29521 1.24999 5.96858 1.25ZM4.41908 2.78157C4.04858 2.81184 3.84956 2.86735 3.70552 2.94074C3.37623 3.10852 3.10852 3.37623 2.94074 3.70552C2.86735 3.84956 2.81184 4.04858 2.78157 4.41908C2.75058 4.79833 2.75 5.28756 2.75 6V8C2.75 8.71244 2.75058 9.20167 2.78157 9.58092C2.81184 9.95142 2.86735 10.1504 2.94074 10.2945C3.10852 10.6238 3.37623 10.8915 3.70552 11.0593C3.84956 11.1327 4.04858 11.1882 4.41908 11.2184C4.79833 11.2494 5.28756 11.25 6 11.25H18C18.7124 11.25 19.2017 11.2494 19.5809 11.2184C19.9514 11.1882 20.1504 11.1327 20.2945 11.0593C20.6238 10.8915 20.8915 10.6238 21.0593 10.2945C21.1327 10.1504 21.1882 9.95142 21.2184 9.58092C21.2494 9.20167 21.25 8.71244 21.25 8V6C21.25 5.28756 21.2494 4.79833 21.2184 4.41908C21.1882 4.04858 21.1327 3.84956 21.0593 3.70552C20.8915 3.37623 20.6238 3.10852 20.2945 2.94074C20.1504 2.86735 19.9514 2.81184 19.5809 2.78157C19.2017 2.75058 18.7124 2.75 18 2.75H6C5.28756 2.75 4.79833 2.75058 4.41908 2.78157Z" fill="#353566"/>
<path d="M9.75 14.5C9.75 14.0858 9.41421 13.75 9 13.75C8.58579 13.75 8.25 14.0858 8.25 14.5V19.5C8.25 20.4665 7.4665 21.25 6.5 21.25C5.5335 21.25 4.75 20.4665 4.75 19.5C4.75 18.6542 5.35073 17.9471 6.1492 17.785C6.55513 17.7026 6.81741 17.3067 6.73501 16.9008C6.65261 16.4949 6.25674 16.2326 5.8508 16.315C4.36703 16.6162 3.25 17.9268 3.25 19.5C3.25 21.2949 4.70508 22.75 6.5 22.75C8.29493 22.75 9.75 21.2949 9.75 19.5V14.5Z" fill="#353566"/>
<path d="M15 13.75C14.5858 13.75 14.25 14.0858 14.25 14.5V18.5C14.25 20.2949 15.7051 21.75 17.5 21.75C19.2949 21.75 20.75 20.2949 20.75 18.5C20.75 16.9268 19.633 15.6162 18.1492 15.315C17.7433 15.2326 17.3474 15.4949 17.265 15.9008C17.1826 16.3067 17.4449 16.7026 17.8508 16.785C18.6493 16.9471 19.25 17.6542 19.25 18.5C19.25 19.4665 18.4665 20.25 17.5 20.25C16.5335 20.25 15.75 19.4665 15.75 18.5V14.5C15.75 14.0858 15.4142 13.75 15 13.75Z" fill="#353566"/>
<path d="M12.75 14.5C12.75 14.0858 12.4142 13.75 12 13.75C11.5858 13.75 11.25 14.0858 11.25 14.5V19C11.25 19.4142 11.5858 19.75 12 19.75C12.4142 19.75 12.75 19.4142 12.75 19V14.5Z" fill="#353566"/>
</svg>
