<svg width="24" height="24" viewBox="0 0 24 24" fill="none" xmlns="http://www.w3.org/2000/svg">
<path d="M21.286 3.571C20.876 2.766 20.234 2.124 19.429 1.714C18.52 1.25 17.477 1.25 15.399 1.25H8.599C6.522 1.25 5.479 1.25 4.57 1.713C3.765 2.124 3.122 2.766 2.713 3.57C2.25 4.479 2.25 5.522 2.25 7.599V16.399C2.25 18.476 2.25 19.519 2.713 20.428C3.123 21.233 3.765 21.875 4.57 22.285C5.479 22.748 6.522 22.748 8.599 22.748H15.399C17.477 22.748 18.52 22.748 19.428 22.285C20.233 21.875 20.875 21.233 21.285 20.428C21.749 19.518 21.749 18.475 21.749 16.398V7.6C21.749 5.522 21.749 4.479 21.286 3.571ZM20.249 16.4C20.249 18.237 20.249 19.16 19.949 19.749C19.684 20.27 19.268 20.685 18.748 20.95C18.16 21.25 17.237 21.25 15.399 21.25H8.599C6.762 21.25 5.839 21.25 5.25 20.95C4.729 20.685 4.314 20.269 4.049 19.749C3.749 19.16 3.749 18.238 3.749 16.4V7.6C3.749 5.762 3.749 4.84 4.049 4.251C4.314 3.73 4.729 3.315 5.251 3.049C5.839 2.749 6.762 2.749 8.599 2.749H15.399C17.237 2.749 18.159 2.749 18.748 3.049C19.269 3.314 19.684 3.73 19.95 4.251C20.25 4.839 20.25 5.761 20.25 7.599V16.399L20.249 16.4ZM16.794 4.941C16.419 4.75 16.035 4.75 15.399 4.75H8.599C7.963 4.75 7.578 4.75 7.206 4.94C6.873 5.109 6.608 5.374 6.44 5.706C6.25 6.08 6.25 6.464 6.25 7.1V8.9C6.25 9.536 6.25 9.92 6.44 10.294C6.609 10.626 6.874 10.891 7.205 11.059C7.579 11.249 7.963 11.249 8.599 11.249H15.399C16.035 11.249 16.419 11.249 16.792 11.059C17.124 10.89 17.389 10.625 17.558 10.294C17.749 9.919 17.749 9.535 17.749 8.899V7.099C17.749 6.463 17.749 6.078 17.559 5.706C17.39 5.373 17.125 5.109 16.794 4.941ZM16.249 8.9C16.249 9.213 16.249 9.538 16.221 9.613C16.198 9.66 16.159 9.698 16.117 9.72C16.037 9.749 15.713 9.749 15.399 9.749H8.599C8.285 9.749 7.96 9.749 7.885 9.721C7.839 9.698 7.801 9.659 7.779 9.617C7.75 9.537 7.75 9.213 7.75 8.899V7.099C7.75 6.785 7.75 6.46 7.778 6.385C7.801 6.339 7.839 6.301 7.882 6.279C7.962 6.25 8.286 6.25 8.599 6.25H15.399C15.712 6.25 16.037 6.25 16.113 6.278C16.159 6.301 16.197 6.339 16.219 6.382C16.248 6.462 16.248 6.786 16.248 7.099V8.899L16.249 8.9ZM8.999 14.5C8.999 15.052 8.551 15.5 7.999 15.5C7.447 15.5 6.999 15.052 6.999 14.5C6.999 13.948 7.447 13.5 7.999 13.5C8.551 13.5 8.999 13.948 8.999 14.5ZM12.999 14.5C12.999 15.052 12.551 15.5 11.999 15.5C11.447 15.5 10.999 15.052 10.999 14.5C10.999 13.948 11.447 13.5 11.999 13.5C12.551 13.5 12.999 13.948 12.999 14.5ZM16.999 14.5C16.999 15.052 16.551 15.5 15.999 15.5C15.447 15.5 14.999 15.052 14.999 14.5C14.999 13.948 15.447 13.5 15.999 13.5C16.551 13.5 16.999 13.948 16.999 14.5ZM16.999 17.5C16.999 18.052 16.551 18.5 15.999 18.5C15.447 18.5 14.999 18.052 14.999 17.5C14.999 16.948 15.447 16.5 15.999 16.5C16.551 16.5 16.999 16.948 16.999 17.5ZM12.999 17.5C12.999 18.052 12.551 18.5 11.999 18.5C11.447 18.5 10.999 18.052 10.999 17.5C10.999 16.948 11.447 16.5 11.999 16.5C12.551 16.5 12.999 16.948 12.999 17.5ZM8.999 17.5C8.999 18.052 8.551 18.5 7.999 18.5C7.447 18.5 6.999 18.052 6.999 17.5C6.999 16.948 7.447 16.5 7.999 16.5C8.551 16.5 8.999 16.948 8.999 17.5Z" fill="#353566"/>
</svg>
