<svg width="24" height="24" viewBox="0 0 24 24" fill="none" xmlns="http://www.w3.org/2000/svg">
<path d="M12.7768 2.74965L10.1831 2.74959C9.8001 2.74915 9.46283 2.74876 9.14446 2.84396C8.86521 2.92746 8.60485 3.06442 8.37784 3.24722C8.11903 3.45565 7.92827 3.73379 7.71165 4.04965L6.88685 5.24947C6.01819 5.24965 5.31508 5.25266 4.74013 5.29963C4.11012 5.35111 3.56824 5.45909 3.07054 5.71268C2.27085 6.12014 1.62069 6.77031 1.21322 7.57C0.959635 8.06769 0.851651 8.60958 0.800177 9.23959C0.749991 9.85384 0.749994 10.6144 0.75 11.5668L0.750002 16.4321C0.749994 17.3845 0.74999 18.1451 0.800176 18.7593C0.851652 19.3893 0.959634 19.9312 1.21322 20.4289C1.62068 21.2286 2.27085 21.8788 3.07054 22.2862C3.56824 22.5398 4.11012 22.6478 4.74013 22.6993C5.35436 22.7495 6.11496 22.7495 7.06733 22.7495L19.0002 22.7495C21.3473 22.7495 23.25 20.8468 23.25 18.4997L23.25 18.4947L23.25 18.4897V11.5954C23.25 11.1344 23.25 10.7209 23.2449 10.3516C23.2391 9.93741 22.8987 9.60632 22.4845 9.61208C22.0703 9.61784 21.7392 9.95826 21.745 10.3724C21.75 10.7303 21.75 11.1339 21.75 11.5995V18.4897L21.75 18.4947L21.75 18.4997C21.75 20.0183 20.5189 21.2495 19.0002 21.2495H7.1C6.10753 21.2495 5.40829 21.2489 4.86228 21.2043C4.32503 21.1604 4.00252 21.0776 3.75153 20.9497C3.23408 20.6861 2.81338 20.2654 2.54973 19.7479C2.42185 19.4969 2.33909 19.1744 2.29519 18.6372C2.25059 18.0912 2.25 17.3919 2.25 16.3995L2.25 11.5995C2.25 10.607 2.25058 9.90775 2.29519 9.36174C2.33909 8.82449 2.42184 8.50198 2.54973 8.25098C2.81339 7.73354 3.23408 7.31284 3.75153 7.04919C4.00252 6.9213 4.32503 6.83854 4.86228 6.79465C5.40829 6.75004 6.10753 6.74946 7.1 6.74946H7.28138C7.52836 6.74946 7.7595 6.62787 7.89942 6.42435L8.9028 4.96488C9.19048 4.54644 9.25333 4.4681 9.31864 4.41551C9.39431 4.35457 9.4811 4.30892 9.57418 4.28109C9.65453 4.25706 9.75469 4.24965 10.2625 4.24965L12.7768 4.24965C13.191 4.24965 13.5268 3.91386 13.5268 3.49965C13.5268 3.08544 13.191 2.74965 12.7768 2.74965Z" fill="#353566"/>
<path d="M16.5303 5.02987L17.75 3.81019L17.75 7.99953C17.75 8.41374 18.0858 8.74953 18.5 8.74953C18.9142 8.74953 19.25 8.41374 19.25 7.99953L19.25 3.81015L20.4697 5.02981C20.7626 5.3227 21.2374 5.3227 21.5303 5.0298C21.8232 4.73691 21.8232 4.26204 21.5303 3.96915L19.0303 1.46918C18.7374 1.17629 18.2626 1.17629 17.9697 1.46918L15.4697 3.96921C15.1768 4.26211 15.1768 4.73698 15.4697 5.02987C15.7626 5.32276 16.2374 5.32276 16.5303 5.02987Z" fill="#353566"/>
<path fill-rule="evenodd" clip-rule="evenodd" d="M16.7499 14.0152L16.7499 14.0137L16.75 13.9995C16.75 11.3762 14.6234 9.24951 12 9.24951C9.37665 9.24951 7.25 11.3762 7.25 13.9995C7.25 16.6229 9.37665 18.7495 12 18.7495C14.6155 18.7495 16.73 16.6223 16.7499 14.0152ZM15.2499 14.0038L15.25 13.9962C15.2482 12.2028 13.7938 10.7495 12 10.7495C10.2051 10.7495 8.75 12.2046 8.75 13.9995C8.75 15.7944 10.2051 17.2495 12 17.2495C13.7819 17.2495 15.2362 15.7967 15.2499 14.0038Z" fill="#353566"/>
</svg>
