<svg width="24" height="24" viewBox="0 0 24 24" fill="none" xmlns="http://www.w3.org/2000/svg">
<path d="M16.4326 1.25H6.56739C5.61495 1.24999 4.85439 1.24999 4.24013 1.30018C3.61012 1.35165 3.06824 1.45963 2.57054 1.71322C1.77085 2.12068 1.12068 2.77085 0.713223 3.57054C0.459634 4.06824 0.35165 4.61012 0.300176 5.24013C0.249989 5.85439 0.249994 6.61494 0.25 7.56738V12.4326C0.249998 12.7936 0.249996 13.1272 0.252728 13.4356C0.250922 13.4568 0.25 13.4783 0.25 13.5C0.25 13.5271 0.251439 13.5539 0.254243 13.5802C0.259669 14.0248 0.272028 14.4154 0.300176 14.7599C0.35165 15.3899 0.459634 15.9318 0.713223 16.4295C1.12068 17.2291 1.77085 17.8793 2.57054 18.2868C3.06824 18.5404 3.61012 18.6483 4.24013 18.6998C4.85438 18.75 5.6149 18.75 6.5673 18.75H8.75V20C8.75 20.6904 8.19036 21.25 7.5 21.25H7C6.58579 21.25 6.25 21.5858 6.25 22C6.25 22.4142 6.58579 22.75 7 22.75H13.5159C13.9301 22.75 14.2659 22.4142 14.2659 22C14.2659 21.5858 13.9301 21.25 13.5159 21.25H9.95014C10.1419 20.875 10.25 20.4501 10.25 20V18.75H11.3756C11.7898 18.75 12.1256 18.4142 12.1256 18C12.1256 17.5858 11.7898 17.25 11.3756 17.25H6.6C5.60753 17.25 4.90829 17.2494 4.36228 17.2048C3.82503 17.1609 3.50252 17.0782 3.25153 16.9503C2.73408 16.6866 2.31338 16.2659 2.04973 15.7485C1.92184 15.4975 1.83909 15.175 1.79519 14.6377C1.78529 14.5165 1.77756 14.3878 1.77152 14.25H11.1762C11.5904 14.25 11.9262 13.9142 11.9262 13.5C11.9262 13.0858 11.5904 12.75 11.1762 12.75H1.75011L1.75 7.6C1.75 6.60753 1.75058 5.90829 1.79519 5.36228C1.83909 4.82503 1.92184 4.50252 2.04973 4.25153C2.31338 3.73408 2.73408 3.31338 3.25153 3.04973C3.50252 2.92184 3.82503 2.83909 4.36228 2.79519C4.90829 2.75058 5.60753 2.75 6.6 2.75H16.4C17.3925 2.75 18.0917 2.75058 18.6377 2.79519C19.175 2.83909 19.4975 2.92184 19.7485 3.04973C20.2659 3.31338 20.6866 3.73408 20.9503 4.25153C21.0782 4.50252 21.1609 4.82503 21.2048 5.36228C21.2494 5.90829 21.25 6.60753 21.25 7.6V10.216C21.25 10.6302 21.5858 10.966 22 10.966C22.4142 10.966 22.75 10.6302 22.75 10.216V7.56737C22.75 6.61496 22.75 5.85438 22.6998 5.24013C22.6483 4.61012 22.5404 4.06824 22.2868 3.57054C21.8793 2.77085 21.2291 2.12068 20.4295 1.71322C19.9318 1.45963 19.3899 1.35165 18.7599 1.30018C18.1456 1.24999 17.3851 1.24999 16.4326 1.25Z" fill="#353566"/>
<path fill-rule="evenodd" clip-rule="evenodd" d="M19.5052 11.4845C18.8717 11.1679 18.1261 11.1679 17.4927 11.4847L13.9242 13.2694C13.5112 13.476 13.2502 13.8981 13.25 14.3598C13.2493 15.8084 13.3464 17.1997 13.9377 18.5512C14.7529 20.4144 16.2607 21.8616 18.1165 22.6714C18.3604 22.7778 18.6376 22.7778 18.8814 22.6714C20.7377 21.8614 22.2459 20.4124 23.0612 18.5489C23.6518 17.1987 23.7493 15.8087 23.75 14.3615C23.7502 13.8989 23.4889 13.4758 23.0751 13.269L19.5052 11.4845ZM18.1637 12.8263C18.3748 12.7207 18.6233 12.7207 18.8345 12.8262L22.2499 14.5335C22.2494 15.7135 22.1684 16.847 21.6869 17.9477C21.0574 19.3867 19.9223 20.5433 18.4989 21.2002C17.076 20.5441 15.9412 19.3883 15.3119 17.95C14.83 16.8485 14.7494 15.7143 14.7499 14.5336L18.1637 12.8263Z" fill="#353566"/>
</svg>
