<svg width="24" height="24" viewBox="0 0 24 24" fill="none" xmlns="http://www.w3.org/2000/svg">
<g clip-path="url(#clip0_9001_285340)">
<path d="M13.5105 3.51269C14.6885 2.41825 16.2651 1.75 17.9993 1.75C19.7342 1.75 21.3112 2.41869 22.4894 3.51379C22.7928 3.79579 23.2673 3.77845 23.5493 3.47506C23.8313 3.17166 23.814 2.69711 23.5106 2.4151C22.0659 1.07228 20.1278 0.25 17.9993 0.25C15.8716 0.25 13.9341 1.07172 12.4895 2.41375C12.1861 2.69568 12.1686 3.17023 12.4505 3.47369C12.7325 3.77716 13.207 3.79461 13.5105 3.51269Z" fill="#353566"/>
<path d="M17.5 18C16.9477 18 16.5 18.4477 16.5 19C16.5 19.5523 16.9477 20 17.5 20C18.0523 20 18.5001 19.5523 18.5001 19C18.5001 18.4477 18.0523 18 17.5 18Z" fill="#353566"/>
<path d="M13.5 19C13.5 18.4477 13.9477 18 14.5 18C15.0523 18 15.5001 18.4477 15.5001 19C15.5001 19.5523 15.0524 20 14.5001 20C13.9478 20 13.5 19.5523 13.5 19Z" fill="#353566"/>
<path fill-rule="evenodd" clip-rule="evenodd" d="M8.06432 4.27755C8.90381 4.24258 9.88836 4.24676 10.8143 4.25826C11.2285 4.2634 11.5601 4.60333 11.5549 5.01751C11.5498 5.4317 11.2099 5.76329 10.7957 5.75814C9.87146 5.74667 8.92223 5.74311 8.12675 5.77625C7.7288 5.79282 7.38103 5.81816 7.10068 5.85411C6.81847 5.89031 6.65753 5.93117 6.58782 5.95847C5.88709 6.29396 5.57308 6.57452 5.35046 6.91949C5.09326 7.31805 4.92087 7.85038 4.61443 8.83314C4.5783 8.94902 4.54038 9.07063 4.50071 9.19684L4.50003 9.19902L2.77576 14.8019C3.43932 14.4496 4.19635 14.25 5 14.25H18C18.8051 14.25 19.5634 14.4503 20.2279 14.8038L18.9888 10.7776C18.867 10.3817 19.0892 9.962 19.4851 9.84016C19.8809 9.71832 20.3006 9.94049 20.4225 10.3364L22.4241 16.8404C22.6685 17.6026 22.7636 18.2277 22.7525 19.0315C22.7522 19.0523 22.751 19.0729 22.7491 19.0932C22.6994 21.6736 20.5922 23.75 18 23.75H5C2.37665 23.75 0.25 21.6234 0.25 19L0.250102 18.9685C0.246476 18.1962 0.339221 17.5859 0.579134 16.8399L3.06903 8.74924C3.1084 8.624 3.14599 8.50347 3.18243 8.38662L3.2077 8.30554C3.48043 7.4303 3.70903 6.69668 4.09011 6.10616C4.51569 5.44668 5.09519 5.00752 5.96029 4.59589C5.96922 4.59164 5.97823 4.58757 5.98732 4.58367C6.25127 4.47066 6.58637 4.40779 6.90986 4.3663C7.24978 4.3227 7.64479 4.29502 8.06432 4.27755ZM1.75049 19.0128C1.7506 19.0225 1.75052 19.0322 1.75026 19.0418C1.77264 20.8175 3.21902 22.25 5 22.25H18C19.7949 22.25 21.25 20.7949 21.25 19C21.25 17.2051 19.7949 15.75 18 15.75H5C3.21492 15.75 1.76597 17.1892 1.75013 18.9705L1.75049 19.0128Z" fill="#353566"/>
<path d="M18.0032 5.08331C17.2185 5.08331 16.5008 5.41385 15.9697 5.96488C15.6823 6.26313 15.2075 6.27189 14.9092 5.98444C14.611 5.697 14.6022 5.22221 14.8897 4.92396C15.6831 4.10069 16.7827 3.58331 18.0032 3.58331C19.2237 3.58331 20.3233 4.10069 21.1168 4.92396C21.4042 5.22221 21.3955 5.697 21.0972 5.98444C20.799 6.27189 20.3242 6.26313 20.0367 5.96488C19.5057 5.41385 18.7879 5.08331 18.0032 5.08331Z" fill="#353566"/>
<path d="M18 6.5C17.4477 6.5 17 6.94772 17 7.5C17 8.05228 17.4477 8.5 18 8.5C18.5523 8.5 19.0001 8.05228 19.0001 7.5C19.0001 6.94772 18.5523 6.5 18 6.5Z" fill="#353566"/>
</g>
<defs>
<clipPath id="clip0_9001_285340">
<rect width="24" height="24" fill="white"/>
</clipPath>
</defs>
</svg>
