<svg width="24" height="24" viewBox="0 0 24 24" fill="none" xmlns="http://www.w3.org/2000/svg">
<path d="M9.5 2.75C5.75622 2.75 2.75 5.71369 2.75 9.33456C2.75 11.509 3.57571 13.4254 5.76712 15.25H9.06189C9.47611 15.25 9.81189 15.5858 9.81189 16C9.81189 16.4142 9.47611 16.75 9.06189 16.75H6.25V17.5C6.25 17.9142 6.58579 18.25 7 18.25H9.25204C9.66625 18.25 10.002 18.5858 10.002 19C10.002 19.4142 9.66625 19.75 9.25204 19.75H7.37803C7.68691 20.6239 8.52034 21.25 9.5 21.25C9.79115 21.25 10.0677 21.1951 10.321 21.0957C10.7067 20.9445 11.1419 21.1345 11.2931 21.5201C11.4443 21.9057 11.2543 22.3409 10.8687 22.4922C10.4437 22.6588 9.98159 22.75 9.5 22.75C7.55856 22.75 5.96171 21.2747 5.76942 19.384C5.15554 18.9822 4.75 18.2884 4.75 17.5V16.3547C2.29431 14.2875 1.25 11.9807 1.25 9.33456C1.25 4.8539 4.95951 1.25 9.5 1.25C13.9154 1.25 17.5438 4.6569 17.7415 8.96561C17.7605 9.37939 17.4405 9.73022 17.0267 9.74921C16.6129 9.76821 16.2621 9.44818 16.2431 9.0344C16.0833 5.55214 13.1396 2.75 9.5 2.75Z" fill="#353566"/>
<path d="M19.4419 15.4419C19.686 15.1979 19.686 14.8021 19.4419 14.5581C19.1979 14.314 18.8021 14.314 18.5581 14.5581L14.5581 18.5581C14.314 18.8021 14.314 19.1979 14.5581 19.4419C14.8021 19.686 15.1979 19.686 15.4419 19.4419L19.4419 15.4419Z" fill="#353566"/>
<path d="M14.75 15.5C14.75 15.0858 15.0858 14.75 15.5 14.75C15.9142 14.75 16.2501 15.0858 16.2501 15.5C16.2501 15.9142 15.9143 16.25 15.5001 16.25C15.0859 16.25 14.75 15.9142 14.75 15.5Z" fill="#353566"/>
<path d="M18.5 17.75C18.0858 17.75 17.75 18.0858 17.75 18.5C17.75 18.9142 18.0858 19.25 18.5 19.25C18.9142 19.25 19.2501 18.9142 19.2501 18.5C19.2501 18.0858 18.9142 17.75 18.5 17.75Z" fill="#353566"/>
<path fill-rule="evenodd" clip-rule="evenodd" d="M11.25 17C11.25 13.8244 13.8244 11.25 17 11.25C20.1756 11.25 22.75 13.8244 22.75 17C22.75 20.1756 20.1756 22.75 17 22.75C13.8244 22.75 11.25 20.1756 11.25 17ZM17 12.75C14.6528 12.75 12.75 14.6528 12.75 17C12.75 19.3472 14.6528 21.25 17 21.25C19.3472 21.25 21.25 19.3472 21.25 17C21.25 14.6528 19.3472 12.75 17 12.75Z" fill="#353566"/>
</svg>
