<svg width="24" height="24" viewBox="0 0 24 24" fill="none" xmlns="http://www.w3.org/2000/svg">
<path fill-rule="evenodd" clip-rule="evenodd" d="M9.5 2.75C5.75622 2.75 2.75 5.71369 2.75 9.33456C2.75 11.509 3.57571 13.4254 5.76712 15.25H13.2329C13.276 15.2141 13.3186 15.1781 13.3607 15.1421C13.6755 14.8728 14.1489 14.9097 14.4182 15.2245C14.6874 15.5393 14.6505 16.0127 14.3358 16.282C14.3074 16.3062 14.2788 16.3305 14.25 16.3547V17.495C14.25 18.283 13.8448 18.9767 13.2311 19.3786C13.0413 21.2719 11.4433 22.75 9.5 22.75C7.55856 22.75 5.96171 21.2747 5.76942 19.384C5.15554 18.9822 4.75 18.2884 4.75 17.5V16.3547C2.29431 14.2875 1.25 11.9807 1.25 9.33456C1.25 4.8539 4.95951 1.25 9.5 1.25C13.9514 1.25 17.6032 4.713 17.7457 9.07138C17.7592 9.48537 17.4346 9.83195 17.0206 9.84548C16.6066 9.85901 16.26 9.53438 16.2465 9.12039C16.1314 5.59817 13.1696 2.75 9.5 2.75ZM6.25 16.75V17.5C6.25 17.9142 6.58579 18.25 7 18.25H10.4986L12.0025 18.245C12.4157 18.2436 12.75 17.9082 12.75 17.495V16.75H6.25ZM7.37803 19.75C7.68691 20.6239 8.52034 21.25 9.5 21.25C10.4797 21.25 11.3131 20.6239 11.622 19.75H7.37803Z" fill="#353566"/>
<path d="M18 19.75C16.4589 19.75 15.0804 20.8117 14.7264 22.1869C14.6231 22.5881 14.2143 22.8296 13.8131 22.7263C13.412 22.6231 13.1705 22.2142 13.2737 21.8131C13.8079 19.7379 15.8135 18.25 18 18.25C20.1865 18.25 22.1923 19.7379 22.7264 21.8131C22.8296 22.2142 22.5881 22.6231 22.187 22.7263C21.7859 22.8296 21.377 22.5881 21.2737 22.1869C20.9198 20.8117 19.5412 19.75 18 19.75Z" fill="#353566"/>
<path fill-rule="evenodd" clip-rule="evenodd" d="M18 11.25C16.3431 11.25 15 12.5931 15 14.25C15 15.9069 16.3431 17.25 18 17.25C19.6569 17.25 21 15.9069 21 14.25C21 12.5931 19.6569 11.25 18 11.25ZM16.5 14.25C16.5 13.4216 17.1716 12.75 18 12.75C18.8284 12.75 19.5 13.4216 19.5 14.25C19.5 15.0784 18.8284 15.75 18 15.75C17.1716 15.75 16.5 15.0784 16.5 14.25Z" fill="#353566"/>
</svg>
