<svg width="24" height="24" viewBox="0 0 24 24" fill="none" xmlns="http://www.w3.org/2000/svg">
<path fill-rule="evenodd" clip-rule="evenodd" d="M10 8.25C10.3028 8.25 10.5759 8.43205 10.6923 8.71154L13.1923 14.7115C13.3516 15.0939 13.1708 15.533 12.7885 15.6923C12.4061 15.8516 11.967 15.6708 11.8077 15.2885L11.1667 13.75H8.83335L8.19232 15.2885C8.03301 15.6708 7.5939 15.8516 7.21155 15.6923C6.8292 15.533 6.64839 15.0939 6.8077 14.7115L9.3077 8.71154C9.42416 8.43205 9.69724 8.25 10 8.25ZM10.5417 12.25L10 10.95L9.45835 12.25H10.5417Z" fill="#353566"/>
<path d="M15 15C15 15.4142 15.3358 15.75 15.75 15.75C16.1642 15.75 16.5 15.4142 16.5 15L16.5 9C16.5 8.58579 16.1642 8.25 15.75 8.25C15.3358 8.25 15 8.58579 15 9L15 15Z" fill="#353566"/>
<path fill-rule="evenodd" clip-rule="evenodd" d="M8 1.25C8.41421 1.25 8.75 1.58579 8.75 2V3.25141C9.00555 3.25 9.27759 3.25 9.56739 3.25H11.25V2C11.25 1.58579 11.5858 1.25 12 1.25C12.4142 1.25 12.75 1.58579 12.75 2V3.25H14.4326C14.7224 3.25 14.9944 3.25 15.25 3.25141V2C15.25 1.58579 15.5858 1.25 16 1.25C16.4142 1.25 16.75 1.58579 16.75 2V3.29937L16.7599 3.30018C17.3899 3.35165 17.9318 3.45963 18.4295 3.71322C19.2291 4.12068 19.8793 4.77085 20.2868 5.57054C20.5404 6.06824 20.6483 6.61012 20.6998 7.24013L20.7006 7.25H22C22.4142 7.25 22.75 7.58579 22.75 8C22.75 8.41421 22.4142 8.75 22 8.75H20.7486C20.75 9.00518 20.75 9.2768 20.75 9.56613V11.25H22C22.4142 11.25 22.75 11.5858 22.75 12C22.75 12.4142 22.4142 12.75 22 12.75H20.75V14.4339C20.75 14.7232 20.75 14.9948 20.7486 15.25H22C22.4142 15.25 22.75 15.5858 22.75 16C22.75 16.4142 22.4142 16.75 22 16.75H20.7006L20.6998 16.7599C20.6483 17.3899 20.5404 17.9318 20.2868 18.4295C19.8793 19.2291 19.2291 19.8793 18.4295 20.2868C17.9318 20.5404 17.3899 20.6484 16.7599 20.6998L16.75 20.7006V22C16.75 22.4142 16.4142 22.75 16 22.75C15.5858 22.75 15.25 22.4142 15.25 22V20.7486C14.9948 20.75 14.7232 20.75 14.4339 20.75H12.75V22C12.75 22.4142 12.4142 22.75 12 22.75C11.5858 22.75 11.25 22.4142 11.25 22V20.75H9.56613C9.2768 20.75 9.00518 20.75 8.75 20.7486V22C8.75 22.4142 8.41421 22.75 8 22.75C7.58579 22.75 7.25 22.4142 7.25 22V20.7006L7.24013 20.6998C6.61012 20.6484 6.06824 20.5404 5.57054 20.2868C4.77085 19.8793 4.12068 19.2291 3.71322 18.4295C3.45963 17.9318 3.35165 17.3899 3.30018 16.7599L3.29937 16.75H2C1.58579 16.75 1.25 16.4142 1.25 16C1.25 15.5858 1.58579 15.25 2 15.25H3.25141C3.25 14.9944 3.25 14.7224 3.25 14.4326V12.75H2C1.58579 12.75 1.25 12.4142 1.25 12C1.25 11.5858 1.58579 11.25 2 11.25H3.25V9.56739C3.25 9.27759 3.25 9.00555 3.25141 8.75H2C1.58579 8.75 1.25 8.41421 1.25 8C1.25 7.58579 1.58579 7.25 2 7.25H3.29937L3.30018 7.24013C3.35165 6.61012 3.45963 6.06824 3.71322 5.57054C4.12068 4.77085 4.77085 4.12068 5.57054 3.71322C6.06824 3.45963 6.61012 3.35165 7.24013 3.30018L7.25 3.29937V2C7.25 1.58579 7.58579 1.25 8 1.25ZM19.25 9.6V14.4C19.25 15.3925 19.2494 16.0917 19.2048 16.6377C19.1609 17.175 19.0782 17.4975 18.9503 17.7485C18.6866 18.2659 18.2659 18.6866 17.7485 18.9503C17.4975 19.0782 17.175 19.1609 16.6377 19.2048C16.0917 19.2494 15.3925 19.25 14.4 19.25H9.6C8.60753 19.25 7.90829 19.2494 7.36228 19.2048C6.82503 19.1609 6.50252 19.0782 6.25153 18.9503C5.73408 18.6866 5.31338 18.2659 5.04973 17.7485C4.92184 17.4975 4.83909 17.175 4.79519 16.6377C4.75058 16.0917 4.75 15.3925 4.75 14.4V9.6C4.75 8.60753 4.75058 7.90829 4.79519 7.36228C4.83909 6.82503 4.92184 6.50252 5.04973 6.25153C5.31338 5.73408 5.73408 5.31338 6.25153 5.04973C6.50252 4.92184 6.82503 4.83909 7.36228 4.79519C7.90829 4.75058 8.60753 4.75 9.6 4.75H14.4C15.3925 4.75 16.0917 4.75058 16.6377 4.79519C17.175 4.83909 17.4975 4.92184 17.7485 5.04973C18.2659 5.31338 18.6866 5.73408 18.9503 6.25153C19.0782 6.50252 19.1609 6.82503 19.2048 7.36228C19.2494 7.90829 19.25 8.60753 19.25 9.6Z" fill="#353566"/>
</svg>
