<svg width="24" height="24" viewBox="0 0 24 24" fill="none" xmlns="http://www.w3.org/2000/svg">
<path d="M4.25 6C4.25 3.37665 6.37665 1.25 9 1.25C11.6234 1.25 13.75 3.37665 13.75 6V9.98L13.7499 9.99L13.75 10V12C13.75 12.2383 13.7324 12.473 13.6983 12.7027C13.6374 13.1124 13.256 13.3953 12.8462 13.3344C12.4365 13.2736 12.1537 12.8921 12.2145 12.4824C12.2379 12.3254 12.25 12.1643 12.25 12V10L12.2501 9.99L12.25 9.98V6C12.25 4.20507 10.7949 2.75 9 2.75C7.20507 2.75 5.75 4.20507 5.75 6V12C5.75 13.7949 7.20507 15.25 9 15.25L9.0094 15.25C9.42361 15.2488 9.76032 15.5837 9.76145 15.9979C9.76259 16.4121 9.42773 16.7488 9.01352 16.75L9 16.75C6.37665 16.75 4.25 14.6234 4.25 12V6Z" fill="#353566"/>
<path d="M2 11.25C2.41421 11.25 2.75 11.5858 2.75 12C2.75 15.4498 5.54496 18.2468 8.99396 18.25L9 18.25L9.00605 18.25C9.36037 18.2497 9.70725 18.2199 10.0445 18.1632C10.453 18.0946 10.8398 18.3701 10.9085 18.7785C10.9771 19.187 10.7016 19.5738 10.2932 19.6425C10.114 19.6726 9.9329 19.6966 9.75 19.7141V21.25H10.8297C11.2439 21.25 11.5797 21.5858 11.5797 22C11.5797 22.4142 11.2439 22.75 10.8297 22.75H5C4.58579 22.75 4.25 22.4142 4.25 22C4.25 21.5858 4.58579 21.25 5 21.25H8.25V19.7142C4.3217 19.337 1.25 16.0272 1.25 12C1.25 11.5858 1.58579 11.25 2 11.25Z" fill="#353566"/>
<path fill-rule="evenodd" clip-rule="evenodd" d="M18.2386 12.5279C17.7386 11.4907 16.2614 11.4907 15.7614 12.5279L14.7549 14.6161L12.4478 14.9171C11.297 15.0673 10.8384 16.4877 11.6841 17.2825L13.3627 18.8598L12.9402 21.1187C12.7278 22.2539 13.925 23.1293 14.9424 22.5827L17 21.4772L19.0576 22.5827C20.075 23.1293 21.2722 22.2539 21.0599 21.1187L20.6373 18.8598L22.3159 17.2825C23.1617 16.4877 22.7031 15.0673 21.5522 14.9171L19.2451 14.6161L18.2386 12.5279ZM16.0473 15.3892L17 13.4129L17.9527 15.3892C18.1359 15.7693 18.4985 16.0313 18.9169 16.0859L21.0962 16.3703L19.5104 17.8604C19.1999 18.1522 19.0594 18.5822 19.1378 19.0011L19.5374 21.1377L17.5916 20.0923C17.2222 19.8938 16.7778 19.8938 16.4084 20.0923L14.4626 21.1377L14.8623 19.0011C14.9406 18.5822 14.8002 18.1522 14.4896 17.8604L12.9039 16.3703L15.0831 16.0859C15.5015 16.0313 15.8641 15.7693 16.0473 15.3892Z" fill="#353566"/>
</svg>
