<svg width="24" height="24" viewBox="0 0 24 24" fill="none" xmlns="http://www.w3.org/2000/svg">
<path d="M5.75 1.25C6.16421 1.25 6.5 1.58579 6.5 2V5.75H5V2C5 1.58579 5.33579 1.25 5.75 1.25Z" fill="#353566"/>
<path d="M1.75 8.25V12C1.75 15.7508 4.59833 18.8364 8.25 19.2117V22C8.25 22.4142 8.58579 22.75 9 22.75C9.41421 22.75 9.75 22.4142 9.75 22V19.2116C10.0656 19.1791 10.3755 19.1264 10.6783 19.0546C11.0813 18.959 11.3306 18.5548 11.235 18.1518C11.1394 17.7488 10.7352 17.4995 10.3322 17.5951C9.90537 17.6963 9.45945 17.75 9 17.75C5.82436 17.75 3.25 15.1756 3.25 12V8.25L14.75 8.25V9.6374C14.75 10.0516 15.0858 10.3874 15.5 10.3874C15.9142 10.3874 16.25 10.0516 16.25 9.6374V8.25H17C17.4142 8.25 17.75 7.91421 17.75 7.5C17.75 7.08579 17.4142 6.75 17 6.75L1 6.75C0.585787 6.75 0.25 7.08578 0.25 7.5C0.25 7.91421 0.585787 8.25 1 8.25H1.75Z" fill="#353566"/>
<path d="M13 2C13 1.58579 12.6642 1.25 12.25 1.25C11.8358 1.25 11.5 1.58579 11.5 2V5.75H13V2Z" fill="#353566"/>
<path fill-rule="evenodd" clip-rule="evenodd" d="M18.25 15.125C17.2145 15.125 16.375 15.9645 16.375 17C16.375 18.0355 17.2145 18.875 18.25 18.875C19.2855 18.875 20.125 18.0355 20.125 17C20.125 15.9645 19.2855 15.125 18.25 15.125ZM17.625 17C17.625 16.6548 17.9048 16.375 18.25 16.375C18.5952 16.375 18.875 16.6548 18.875 17C18.875 17.3452 18.5952 17.625 18.25 17.625C17.9048 17.625 17.625 17.3452 17.625 17Z" fill="#353566"/>
<path fill-rule="evenodd" clip-rule="evenodd" d="M12.9679 19.3368C12.5193 18.5584 12.785 17.5624 13.5634 17.1121C13.6492 17.0625 13.6492 16.9374 13.5634 16.8878C12.785 16.4375 12.5193 15.4415 12.9679 14.6631L13.5876 13.5878C14.0367 12.8085 15.0325 12.5405 15.8118 12.9912C15.8949 13.0393 16.0026 12.9805 16.0026 12.8791C16.0026 11.9806 16.7301 11.25 17.6302 11.25H18.8697C19.7699 11.25 20.4973 11.9807 20.4973 12.8792C20.4973 12.9806 20.6051 13.0393 20.6882 12.9913C21.4674 12.5406 22.4632 12.8086 22.9123 13.5878L23.5321 14.6631C23.9807 15.4416 23.715 16.4376 22.9365 16.8878C22.8508 16.9374 22.8508 17.0625 22.9365 17.1121C23.715 17.5623 23.9807 18.5583 23.5321 19.3367L22.9123 20.4121C22.4632 21.1913 21.4674 21.4593 20.6882 21.0086C20.6052 20.9606 20.4973 21.0192 20.4973 21.1208C20.4973 22.0193 19.7699 22.75 18.8697 22.75H17.6303C16.7301 22.75 16.0026 22.0193 16.0026 21.1208C16.0026 21.0193 15.8948 20.9606 15.8118 21.0086C15.0325 21.4594 14.0367 21.1913 13.5876 20.4121L12.9679 19.3368ZM14.3144 18.4106C14.2534 18.4459 14.2315 18.5253 14.2675 18.5878L14.8872 19.6631C14.9228 19.7249 15.0005 19.745 15.0607 19.7102C16.1478 19.0814 17.5026 19.8688 17.5026 21.1208C17.5026 21.1934 17.5611 21.25 17.6303 21.25H18.8697C18.9389 21.25 18.9973 21.1934 18.9973 21.1208C18.9973 19.8688 20.3521 19.0814 21.4392 19.7101C21.4995 19.745 21.5771 19.7248 21.6127 19.6631L22.2325 18.5877C22.2685 18.5252 22.2466 18.4458 22.1855 18.4105C21.1012 17.7833 21.1012 16.2165 22.1855 15.5893C22.2466 15.5541 22.2685 15.4747 22.2325 15.4121L21.6127 14.3368C21.5771 14.275 21.4995 14.2549 21.4392 14.2897C20.3521 14.9185 18.9973 14.1312 18.9973 12.8792C18.9973 12.8066 18.9389 12.75 18.8697 12.75H17.6302C17.561 12.75 17.5026 12.8066 17.5026 12.8791C17.5026 14.1312 16.1478 14.9184 15.0608 14.2897C15.0005 14.2548 14.9228 14.275 14.8872 14.3368L14.2675 15.4121C14.2315 15.4746 14.2534 15.554 14.3144 15.5893C15.3988 16.2165 15.3988 17.7834 14.3144 18.4106Z" fill="#353566"/>
</svg>
