<svg width="24" height="24" viewBox="0 0 24 24" fill="none" xmlns="http://www.w3.org/2000/svg">
<path d="M6.5 2C6.5 1.58579 6.16421 1.25 5.75 1.25C5.33579 1.25 5 1.58579 5 2V5.75H6.5V2Z" fill="#353566"/>
<path d="M1.75 12V8.25H1C0.585787 8.25 0.25 7.91421 0.25 7.5C0.25 7.08578 0.585787 6.75 1 6.75L17 6.75C17.4142 6.75 17.75 7.08579 17.75 7.5C17.75 7.91421 17.4142 8.25 17 8.25H16.25V9.39838C16.25 9.81259 15.9142 10.1484 15.5 10.1484C15.0858 10.1484 14.75 9.81259 14.75 9.39838V8.25L3.25 8.25V12C3.25 15.1756 5.82436 17.75 9 17.75C9.33955 17.75 9.67164 17.7206 9.99404 17.6645C10.4021 17.5935 10.7905 17.8667 10.8616 18.2747C10.9326 18.6828 10.6594 19.0712 10.2513 19.1423C10.086 19.1711 9.91881 19.1942 9.75 19.2116V22C9.75 22.4142 9.41421 22.75 9 22.75C8.58579 22.75 8.25 22.4142 8.25 22V19.2117C4.59833 18.8364 1.75 15.7508 1.75 12Z" fill="#353566"/>
<path d="M12.25 1.25C12.6642 1.25 13 1.58579 13 2V5.75H11.5V2C11.5 1.58579 11.8358 1.25 12.25 1.25Z" fill="#353566"/>
<path d="M17.25 19.5C17.25 19.0858 17.5858 18.75 18 18.75C18.4142 18.75 18.7501 19.0858 18.7501 19.5C18.7501 19.9142 18.4143 20.25 18.0001 20.25C17.5859 20.25 17.25 19.9142 17.25 19.5Z" fill="#353566"/>
<path d="M17.125 15.75C17.125 15.2668 17.5168 14.875 18 14.875C18.4832 14.875 18.875 15.2668 18.875 15.75C18.875 15.9942 18.7758 16.2141 18.6138 16.3736C18.5217 16.4643 18.44 16.5152 18.3098 16.5963C18.2733 16.6191 18.233 16.6442 18.1875 16.6733C17.9891 16.8001 17.7329 16.9845 17.5481 17.3306C17.3855 17.635 17.5005 18.0137 17.8049 18.1763C18.1094 18.3389 18.4881 18.2239 18.6507 17.9194C18.6851 17.855 18.7268 17.8121 18.8608 17.7264C18.8805 17.7139 18.9037 17.6996 18.9297 17.6836C19.0689 17.5981 19.2895 17.4625 19.4908 17.2643C19.8816 16.8796 20.125 16.3427 20.125 15.75C20.125 14.5764 19.1736 13.625 18 13.625C16.8264 13.625 15.875 14.5764 15.875 15.75C15.875 16.0952 16.1548 16.375 16.5 16.375C16.8452 16.375 17.125 16.0952 17.125 15.75Z" fill="#353566"/>
<path fill-rule="evenodd" clip-rule="evenodd" d="M23.75 17C23.75 13.8244 21.1756 11.25 18 11.25C14.8244 11.25 12.25 13.8244 12.25 17C12.25 20.1756 14.8244 22.75 18 22.75C21.1756 22.75 23.75 20.1756 23.75 17ZM18 12.75C20.3472 12.75 22.25 14.6528 22.25 17C22.25 19.3472 20.3472 21.25 18 21.25C15.6528 21.25 13.75 19.3472 13.75 17C13.75 14.6528 15.6528 12.75 18 12.75Z" fill="#353566"/>
</svg>
