<svg width="24" height="24" viewBox="0 0 24 24" fill="none" xmlns="http://www.w3.org/2000/svg">
<g clip-path="url(#clip0_9001_286109)">
<path fill-rule="evenodd" clip-rule="evenodd" d="M12 1.75C6.33908 1.75 1.75 6.33908 1.75 12C1.75 16.8654 5.1407 20.9407 9.68881 21.9885C10.4462 22.163 11.25 21.5276 11.25 20.5V18.1968C8.70578 17.8329 6.75 15.6449 6.75 13V10.25H6C5.58579 10.25 5.25 9.91421 5.25 9.5C5.25 9.08579 5.58579 8.75 6 8.75L8.75 8.75V6C8.75 5.58579 9.08579 5.25 9.5 5.25C9.91421 5.25 10.25 5.58579 10.25 6V8.75H13.75V6C13.75 5.58579 14.0858 5.25 14.5 5.25C14.9142 5.25 15.25 5.58579 15.25 6V8.75L18 8.75C18.4142 8.75 18.75 9.08578 18.75 9.5C18.75 9.91421 18.4142 10.25 18 10.25H17.25V13C17.25 15.6449 15.2942 17.8329 12.75 18.1968V20.5C12.75 22.2338 11.2856 23.8957 9.35206 23.4502C4.13819 22.2491 0.25 17.5795 0.25 12C0.25 5.51065 5.51065 0.25 12 0.25C18.4893 0.25 23.75 5.51065 23.75 12C23.75 16.5672 21.144 20.5245 17.3414 22.4684C16.9726 22.6569 16.5207 22.5108 16.3322 22.142C16.1437 21.7731 16.2898 21.3213 16.6586 21.1328C19.9793 19.4353 22.25 15.9822 22.25 12C22.25 6.33908 17.6609 1.75 12 1.75ZM8.25 10.25V13C8.25 15.0711 9.92893 16.75 12 16.75C14.0711 16.75 15.75 15.0711 15.75 13V10.25H8.25Z" fill="#353566"/>
</g>
<defs>
<clipPath id="clip0_9001_286109">
<rect width="24" height="24" fill="white"/>
</clipPath>
</defs>
</svg>
