<svg width="24" height="24" viewBox="0 0 24 24" fill="none" xmlns="http://www.w3.org/2000/svg">
<path d="M5.75 1.25C6.16421 1.25 6.5 1.58579 6.5 2V5.75H5V2C5 1.58579 5.33579 1.25 5.75 1.25Z" fill="#353566"/>
<path d="M1.75 8.25V12C1.75 15.7508 4.59833 18.8364 8.25 19.2117V22C8.25 22.4142 8.58579 22.75 9 22.75C9.41421 22.75 9.75 22.4142 9.75 22V19.2116C9.91881 19.1942 10.086 19.1711 10.2513 19.1423C10.6594 19.0712 10.9326 18.6828 10.8616 18.2747C10.7905 17.8667 10.4021 17.5935 9.99404 17.6645C9.67164 17.7206 9.33955 17.75 9 17.75C5.82436 17.75 3.25 15.1756 3.25 12V8.25L14.75 8.25V9.39838C14.75 9.81259 15.0858 10.1484 15.5 10.1484C15.9142 10.1484 16.25 9.81259 16.25 9.39838V8.25H17C17.4142 8.25 17.75 7.91421 17.75 7.5C17.75 7.08579 17.4142 6.75 17 6.75L1 6.75C0.585787 6.75 0.25 7.08578 0.25 7.5C0.25 7.91421 0.585787 8.25 1 8.25H1.75Z" fill="#353566"/>
<path d="M13 2C13 1.58579 12.6642 1.25 12.25 1.25C11.8358 1.25 11.5 1.58579 11.5 2V5.75H13V2Z" fill="#353566"/>
<path d="M20.4419 15.4419C20.686 15.1979 20.686 14.8021 20.4419 14.5581C20.1979 14.314 19.8021 14.314 19.5581 14.5581L15.5581 18.5581C15.314 18.8021 15.314 19.1979 15.5581 19.4419C15.8021 19.686 16.1979 19.686 16.4419 19.4419L20.4419 15.4419Z" fill="#353566"/>
<path d="M15.75 15.5C15.75 15.0858 16.0858 14.75 16.5 14.75C16.9142 14.75 17.2501 15.0858 17.2501 15.5C17.2501 15.9142 16.9143 16.25 16.5001 16.25C16.0859 16.25 15.75 15.9142 15.75 15.5Z" fill="#353566"/>
<path d="M19.5 17.75C19.0858 17.75 18.75 18.0858 18.75 18.5C18.75 18.9142 19.0858 19.25 19.5 19.25C19.9142 19.25 20.2501 18.9142 20.2501 18.5C20.2501 18.0858 19.9142 17.75 19.5 17.75Z" fill="#353566"/>
<path fill-rule="evenodd" clip-rule="evenodd" d="M12.25 17C12.25 13.8244 14.8244 11.25 18 11.25C21.1756 11.25 23.75 13.8244 23.75 17C23.75 20.1756 21.1756 22.75 18 22.75C14.8244 22.75 12.25 20.1756 12.25 17ZM18 12.75C15.6528 12.75 13.75 14.6528 13.75 17C13.75 19.3472 15.6528 21.25 18 21.25C20.3472 21.25 22.25 19.3472 22.25 17C22.25 14.6528 20.3472 12.75 18 12.75Z" fill="#353566"/>
</svg>
