<svg width="24" height="24" viewBox="0 0 24 24" fill="none" xmlns="http://www.w3.org/2000/svg">
<path d="M5.75 1.25C6.16421 1.25 6.5 1.58579 6.5 2V5.75H5V2C5 1.58579 5.33579 1.25 5.75 1.25Z" fill="#353566"/>
<path d="M1.75 8.25V12C1.75 15.7508 4.59833 18.8364 8.25 19.2117V22C8.25 22.4142 8.58579 22.75 9 22.75C9.41421 22.75 9.75 22.4142 9.75 22V19.2117C11.7315 19.0079 13.4766 18.0057 14.6572 16.5345C14.9165 16.2115 14.8647 15.7394 14.5417 15.4802C14.2186 15.2209 13.7466 15.2727 13.4873 15.5957C12.4323 16.9105 10.8144 17.75 9 17.75C5.82436 17.75 3.25 15.1756 3.25 12V8.25L14.75 8.25V10.3368C14.75 10.7511 15.0858 11.0868 15.5 11.0868C15.9142 11.0868 16.25 10.7511 16.25 10.3368V8.25H17C17.4142 8.25 17.75 7.91421 17.75 7.5C17.75 7.08579 17.4142 6.75 17 6.75L1 6.75C0.585787 6.75 0.25 7.08578 0.25 7.5C0.25 7.91421 0.585787 8.25 1 8.25H1.75Z" fill="#353566"/>
<path d="M13 2C13 1.58579 12.6642 1.25 12.25 1.25C11.8358 1.25 11.5 1.58579 11.5 2V5.75H13V2Z" fill="#353566"/>
<path d="M19 19.75C17.4589 19.75 16.0804 20.8117 15.7264 22.1869C15.6231 22.5881 15.2143 22.8296 14.8131 22.7263C14.412 22.6231 14.1705 22.2142 14.2737 21.8131C14.8079 19.7379 16.8135 18.25 19 18.25C21.1865 18.25 23.1923 19.7379 23.7264 21.8131C23.8296 22.2142 23.5881 22.6231 23.187 22.7263C22.7859 22.8296 22.377 22.5881 22.2737 22.1869C21.9198 20.8117 20.5412 19.75 19 19.75Z" fill="#353566"/>
<path fill-rule="evenodd" clip-rule="evenodd" d="M19 11.25C17.3431 11.25 16 12.5931 16 14.25C16 15.9069 17.3431 17.25 19 17.25C20.6569 17.25 22 15.9069 22 14.25C22 12.5931 20.6569 11.25 19 11.25ZM17.5 14.25C17.5 13.4216 18.1716 12.75 19 12.75C19.8284 12.75 20.5 13.4216 20.5 14.25C20.5 15.0784 19.8284 15.75 19 15.75C18.1716 15.75 17.5 15.0784 17.5 14.25Z" fill="#353566"/>
</svg>
