<svg width="24" height="24" viewBox="0 0 24 24" fill="none" xmlns="http://www.w3.org/2000/svg">
<g clip-path="url(#clip0_9001_286139)">
<path d="M19.7276 1.18208C19.8281 0.780233 19.5837 0.373032 19.1819 0.272571C18.7801 0.172109 18.3728 0.416429 18.2724 0.818276L16.2724 8.81828C16.1719 9.22012 16.4162 9.62732 16.8181 9.72778C17.2199 9.82825 17.6271 9.58393 17.7276 9.18208L19.7276 1.18208Z" fill="#353566"/>
<path d="M6.5 1.75018C6.08579 1.75018 5.75 2.08597 5.75 2.50018V6.00018C5.75 6.4144 5.41422 6.75018 5 6.75018C4.58579 6.75018 4.25 6.4144 4.25 6.00018V2.50018C4.25 1.25754 5.25736 0.250183 6.5 0.250183H12.7547C13.1689 0.250183 13.5047 0.58597 13.5047 1.00018C13.5047 1.4144 13.1689 1.75018 12.7547 1.75018H6.5Z" fill="#353566"/>
<path fill-rule="evenodd" clip-rule="evenodd" d="M5.7679 8.25018H12.7595C13.1737 8.25018 13.5095 8.58597 13.5095 9.00018C13.5095 9.4144 13.1737 9.75018 12.7595 9.75018H5.8C4.94755 9.75018 4.35331 9.75077 3.89068 9.78856C3.43681 9.82565 3.17604 9.89478 2.97852 9.99542C2.55516 10.2111 2.21095 10.5553 1.99524 10.9787C1.8946 11.1762 1.82547 11.437 1.78838 11.8909C1.75058 12.3535 1.75 12.9477 1.75 13.8002V16.6002C1.75 17.0326 1.75058 17.3118 1.76795 17.5243C1.78459 17.7281 1.81285 17.8036 1.83175 17.8407C1.90365 17.9818 2.01839 18.0965 2.15951 18.1684C2.19659 18.1873 2.27213 18.2156 2.47588 18.2322C2.68838 18.2496 2.96759 18.2502 3.4 18.2502H4.25V15.0002C4.25 14.586 4.58579 14.2502 5 14.2502H17C17.4142 14.2502 17.75 14.586 17.75 15.0002V18.2502H18.6C19.0324 18.2502 19.3116 18.2496 19.5241 18.2322C19.7279 18.2156 19.8034 18.1873 19.8405 18.1684C19.9816 18.0965 20.0964 17.9818 20.1683 17.8407C20.1872 17.8036 20.2154 17.7281 20.2321 17.5243C20.2494 17.3118 20.25 17.0326 20.25 16.6002V13.8002C20.25 12.9477 20.2494 12.3535 20.2116 11.8909C20.1745 11.437 20.1054 11.1762 20.0048 10.9787C19.8946 10.7626 19.7511 10.5671 19.5805 10.3988C19.2857 10.1078 19.2826 9.63296 19.5736 9.33816C19.8645 9.04335 20.3394 9.04024 20.6342 9.3312C20.9184 9.61169 21.1577 9.93752 21.3413 10.2977C21.5676 10.7419 21.662 11.2221 21.7066 11.7687C21.75 12.2996 21.75 12.9552 21.75 13.7681V16.6291C21.75 17.0244 21.75 17.3656 21.7271 17.6465C21.7028 17.943 21.6494 18.2379 21.5048 18.5217C21.2891 18.945 20.9448 19.2892 20.5215 19.5049C20.2377 19.6495 19.9428 19.703 19.6463 19.7273C19.3654 19.7502 19.0243 19.7502 18.629 19.7502H17.75V21.5002C17.75 22.7428 16.7426 23.7502 15.5 23.7502H6.5C5.25736 23.7502 4.25 22.7428 4.25 21.5002V19.7502H3.37108C2.97576 19.7502 2.63463 19.7502 2.35373 19.7273C2.05722 19.703 1.76231 19.6495 1.47852 19.5049C1.05516 19.2892 0.710952 18.945 0.495238 18.5217C0.350641 18.2379 0.297154 17.943 0.272929 17.6465C0.249976 17.3655 0.249987 17.0245 0.250001 16.6291V13.7681C0.249994 12.9553 0.249989 12.2996 0.293365 11.7687C0.338027 11.2221 0.432387 10.7419 0.658727 10.2977C1.01825 9.59211 1.59193 9.01843 2.29754 8.65891C2.74176 8.43257 3.2219 8.33821 3.76853 8.29355C4.29944 8.25017 4.95506 8.25018 5.7679 8.25018ZM5.75 19.0002L5.75 21.5002C5.75 21.9144 6.08579 22.2502 6.5 22.2502H15.5C15.9142 22.2502 16.25 21.9144 16.25 21.5002V15.7502H5.75L5.75 19.0002Z" fill="#353566"/>
<path d="M15.5249 3.53584C15.8208 3.24592 15.8256 2.77107 15.5357 2.47524C15.2457 2.1794 14.7709 2.1746 14.4751 2.46452L12.4751 4.42452C12.333 4.56377 12.252 4.75375 12.25 4.95268C12.248 5.15161 12.3252 5.34317 12.4644 5.48523L14.4644 7.52523C14.7544 7.82101 15.2292 7.82572 15.525 7.53574C15.8208 7.24577 15.8255 6.77092 15.5355 6.47513L14.0607 4.9708L15.5249 3.53584Z" fill="#353566"/>
<path d="M20.4641 2.47551C20.7538 2.17953 21.2287 2.17449 21.5247 2.46426L23.5247 4.42226C23.6668 4.56143 23.7479 4.75138 23.75 4.95031C23.752 5.14924 23.675 5.34085 23.5358 5.48297L21.5358 7.52497C21.246 7.8209 20.7711 7.82583 20.4752 7.536C20.1793 7.24616 20.1744 6.77131 20.4642 6.47539L21.9393 4.96932L20.4753 3.53611C20.1793 3.24634 20.1743 2.7715 20.4641 2.47551Z" fill="#353566"/>
</g>
<defs>
<clipPath id="clip0_9001_286139">
<rect width="24" height="24" fill="white"/>
</clipPath>
</defs>
</svg>
