<svg width="24" height="24" viewBox="0 0 24 24" fill="none" xmlns="http://www.w3.org/2000/svg">
<g clip-path="url(#clip0_9001_286224)">
<path d="M5.75 2.5C5.75 2.08579 6.08579 1.75 6.5 1.75H13.7974C14.02 1.75 14.2311 1.84887 14.3736 2.01986L14.6767 2.38358C14.9419 2.70179 15.4148 2.74478 15.733 2.47961C16.0512 2.21443 16.0942 1.74151 15.829 1.4233L15.5259 1.05959C15.0985 0.546602 14.4652 0.25 13.7974 0.25H6.5C5.25736 0.25 4.25 1.25736 4.25 2.5V6C4.25 6.41421 4.58579 6.75 5 6.75C5.41422 6.75 5.75 6.41421 5.75 6V2.5Z" fill="#353566"/>
<path fill-rule="evenodd" clip-rule="evenodd" d="M10.3809 8.25H5.7679C4.95506 8.24999 4.29944 8.24999 3.76853 8.29336C3.2219 8.33803 2.74176 8.43238 2.29754 8.65873C1.59193 9.01825 1.01825 9.59193 0.658727 10.2975C0.432387 10.7418 0.338027 11.2219 0.293365 11.7685C0.249989 12.2994 0.249994 12.955 0.250001 13.7679V16.6289C0.249987 17.0243 0.249976 17.3653 0.272929 17.6463C0.297154 17.9428 0.350641 18.2377 0.495238 18.5215C0.710952 18.9448 1.05516 19.289 1.47852 19.5048C1.76231 19.6494 2.05722 19.7028 2.35373 19.7271C2.63463 19.75 2.97567 19.75 3.37098 19.75H4.25V21.5C4.25 22.7426 5.25736 23.75 6.5 23.75H15.5C16.7426 23.75 17.75 22.7426 17.75 21.5V19.75H18.6289C19.0242 19.75 19.3654 19.75 19.6463 19.7271C19.9428 19.7028 20.2377 19.6494 20.5215 19.5048C20.9448 19.289 21.2891 18.9448 21.5048 18.5215C21.6494 18.2377 21.7028 17.9428 21.7271 17.6463C21.75 17.3654 21.75 17.0243 21.75 16.629V13.7679C21.75 12.955 21.75 12.2994 21.7066 11.7685C21.662 11.2219 21.5676 10.7417 21.3413 10.2975C21.2765 10.1704 21.2048 10.0476 21.1266 9.92952C20.8979 9.58417 20.4325 9.4896 20.0872 9.7183C19.7418 9.94699 19.6473 10.4124 19.876 10.7577C19.9229 10.8285 19.9659 10.9022 20.0048 10.9785C20.1054 11.176 20.1745 11.4368 20.2116 11.8907C20.2494 12.3533 20.25 12.9475 20.25 13.8V16.6C20.25 17.0324 20.2494 17.3116 20.2321 17.5241C20.2154 17.7279 20.1872 17.8034 20.1683 17.8405C20.0964 17.9816 19.9816 18.0963 19.8405 18.1683C19.8034 18.1871 19.7279 18.2154 19.5241 18.2321C19.3116 18.2494 19.0324 18.25 18.6 18.25H17.75V15C17.75 14.5858 17.4142 14.25 17 14.25H5C4.58579 14.25 4.25 14.5858 4.25 15V18.25H3.4C2.96759 18.25 2.68838 18.2494 2.47588 18.2321C2.27213 18.2154 2.19659 18.1871 2.15951 18.1683C2.01839 18.0963 1.90365 17.9816 1.83175 17.8405C1.81285 17.8034 1.78459 17.7279 1.76795 17.5241C1.75058 17.3116 1.75 17.0324 1.75 16.6V13.8C1.75 12.9475 1.75058 12.3533 1.78838 11.8907C1.82547 11.4368 1.8946 11.176 1.99524 10.9785C2.21095 10.5552 2.55516 10.2109 2.97852 9.99524C3.17604 9.8946 3.43681 9.82547 3.89068 9.78838C4.35331 9.75058 4.94755 9.75 5.8 9.75H10.3809C10.7951 9.75 11.1309 9.41421 11.1309 9C11.1309 8.58579 10.7951 8.25 10.3809 8.25ZM5.75 19L5.75 15.75H16.25V21.5C16.25 21.9142 15.9142 22.25 15.5 22.25H6.5C6.08579 22.25 5.75 21.9142 5.75 21.5L5.75 19Z" fill="#353566"/>
<path fill-rule="evenodd" clip-rule="evenodd" d="M19.7348 0.654034C20.5068 0.117062 21.5313 0.116851 22.3036 0.653505C22.47 0.769156 22.6273 0.926572 22.81 1.10945L22.8906 1.18999C23.0736 1.37266 23.2312 1.5299 23.3469 1.69629C23.8841 2.46842 23.8843 3.49323 23.3474 4.26557C23.2317 4.43201 23.0742 4.5893 22.8913 4.77203L16.9076 10.7568C16.8079 10.8566 16.6821 10.9262 16.5446 10.9576L13.1674 11.7311C12.9157 11.7887 12.6521 11.7128 12.4696 11.5302C12.287 11.3476 12.2113 11.0839 12.269 10.8322L13.0433 7.45885C13.0749 7.32159 13.1444 7.19597 13.2439 7.09638L19.2286 1.11019C19.4112 0.927249 19.5684 0.769748 19.7348 0.654034ZM21.4476 1.88527C21.1902 1.70639 20.8487 1.70646 20.5913 1.88545C20.5503 1.914 20.4951 1.96492 20.2491 2.21101L19.7705 2.68979L21.3114 4.23069L21.7902 3.75176C22.0363 3.5056 22.0872 3.45044 22.1158 3.40938C22.2948 3.15193 22.2947 2.81033 22.1156 2.55295C22.0871 2.5119 22.0361 2.45677 21.7899 2.2107C21.5438 1.96471 21.4886 1.91381 21.4476 1.88527ZM20.2508 5.29145L18.7099 3.75058L14.4571 8.00449L13.9986 10.0019L15.9994 9.54367L20.2508 5.29145Z" fill="#353566"/>
</g>
<defs>
<clipPath id="clip0_9001_286224">
<rect width="24" height="24" fill="white"/>
</clipPath>
</defs>
</svg>
