<svg width="24" height="24" viewBox="0 0 24 24" fill="none" xmlns="http://www.w3.org/2000/svg">
<path fill-rule="evenodd" clip-rule="evenodd" d="M15.7267 9.17874C15.0646 8.28162 14.0665 7.97496 13.2502 8.1444L13.2473 8.14501C12.8049 8.23866 12.4432 8.39743 12.131 8.62261C12.0857 8.65532 12.0421 8.68896 12 8.72334C11.958 8.68896 11.9144 8.65532 11.8691 8.62261C11.5569 8.39743 11.1952 8.23866 10.7528 8.14501L10.7499 8.1444C9.93362 7.97496 8.93548 8.28162 8.27336 9.17875C7.5733 10.1273 7.53568 11.6912 8.40382 12.8961C8.97523 13.6891 10.1089 14.7238 10.8086 15.3355L10.8574 15.3784C11.0374 15.5374 11.2775 15.7496 11.5892 15.8417C11.8516 15.9192 12.1485 15.9192 12.4109 15.8417C12.7226 15.7496 12.9627 15.5374 13.1427 15.3784L13.1915 15.3355C13.8912 14.7238 15.0248 13.6891 15.5963 12.8961C16.4645 11.6912 16.4268 10.1273 15.7267 9.17874ZM13.0087 9.83907C13.1346 9.74822 13.2984 9.66763 13.5563 9.61284C13.7922 9.56443 14.2018 9.63859 14.5198 10.0695C14.8005 10.4497 14.8993 11.2976 14.3793 12.0192C13.9246 12.6501 12.9246 13.5765 12.2043 14.2061C12.1442 14.2586 12.0978 14.2992 12.0571 14.3336C12.034 14.3531 12.0154 14.3684 12 14.3806C11.9847 14.3684 11.9661 14.3531 11.943 14.3336C11.9023 14.2992 11.8559 14.2586 11.7958 14.2061C11.0754 13.5765 10.0754 12.6501 9.62081 12.0192C9.10084 11.2976 9.19963 10.4497 9.48025 10.0695C9.79826 9.6386 10.2079 9.56443 10.4438 9.61283C10.7017 9.66763 10.8655 9.74822 10.9914 9.83907C11.1249 9.93536 11.2485 10.0664 11.4058 10.2707C11.5478 10.4551 11.7673 10.5631 12 10.5631C12.2328 10.5631 12.4523 10.4551 12.5943 10.2707C12.7516 10.0664 12.8752 9.93536 13.0087 9.83907Z" fill="#353566"/>
<path fill-rule="evenodd" clip-rule="evenodd" d="M4.71322 6.07073C5.07935 5.35216 5.64145 4.75431 6.3319 4.3448L7.02794 1.73468C7.2614 0.859168 8.0543 0.25 8.9604 0.25H15.0397C15.9458 0.25 16.7387 0.859168 16.9722 1.73467L17.6682 4.34488C18.3586 4.75439 18.9207 5.3522 19.2868 6.07073C19.5404 6.56842 19.6484 7.11031 19.6998 7.74032C19.75 8.35458 19.75 9.11512 19.75 10.0676V13.9328C19.75 14.8853 19.75 15.6458 19.6998 16.2601C19.6484 16.8901 19.5404 17.432 19.2868 17.9296C18.9206 18.6482 18.3586 19.2461 17.6681 19.6556L16.9721 22.2657C16.7386 23.1412 15.9457 23.7504 15.0396 23.7504H8.96029C8.05419 23.7504 7.26129 23.1412 7.02782 22.2657L6.33177 19.6555C5.64137 19.246 5.07933 18.6482 4.71322 17.9296C4.45963 17.432 4.35165 16.8901 4.30018 16.2601C4.24999 15.6458 4.24999 14.8852 4.25 13.9328V10.0676C4.24999 9.11513 4.24999 8.35458 4.30018 7.74032C4.35165 7.11031 4.45963 6.56842 4.71322 6.07073ZM8.24013 3.80036C8.16695 3.80634 8.09495 3.81308 8.02407 3.82073L8.47729 2.12117C8.53566 1.90229 8.73388 1.75 8.96041 1.75L15.0397 1.75C15.2662 1.75 15.4645 1.90229 15.5228 2.12117L15.976 3.82074C15.9051 3.81309 15.8331 3.80635 15.7599 3.80036C15.1456 3.75018 14.3851 3.75018 13.4326 3.75019H10.5674C9.61494 3.75018 8.8544 3.75018 8.24013 3.80036ZM15.7599 20.2C15.8331 20.194 15.905 20.1873 15.9759 20.1796L15.5227 21.8792C15.4643 22.0981 15.2661 22.2504 15.0396 22.2504H8.96029C8.73376 22.2504 8.53554 22.0981 8.47717 21.8792L8.02395 20.1796C8.09487 20.1873 8.16691 20.194 8.24013 20.2C8.85439 20.2502 9.61493 20.2502 10.5674 20.2502H13.4326C14.3851 20.2502 15.1456 20.2502 15.7599 20.2ZM8.36228 5.29538C7.82503 5.33928 7.50252 5.42203 7.25153 5.54992C6.73408 5.81357 6.31338 6.23427 6.04973 6.75171C5.92184 7.00271 5.83909 7.32522 5.79519 7.86247C5.75058 8.40848 5.75 9.10772 5.75 10.1002V13.9002C5.75 14.8927 5.75058 15.5919 5.79519 16.1379C5.83909 16.6752 5.92184 16.9977 6.04973 17.2487C6.31338 17.7661 6.73408 18.1868 7.25153 18.4505C7.50252 18.5783 7.82503 18.6611 8.36228 18.705C8.90829 18.7496 9.60753 18.7502 10.6 18.7502H13.4C14.3925 18.7502 15.0917 18.7496 15.6377 18.705C16.175 18.6611 16.4975 18.5783 16.7485 18.4505C17.2659 18.1868 17.6866 17.7661 17.9503 17.2487C18.0782 16.9977 18.1609 16.6752 18.2048 16.1379C18.2494 15.5919 18.25 14.8927 18.25 13.9002V10.1002C18.25 9.10772 18.2494 8.40848 18.2048 7.86247C18.1609 7.32522 18.0782 7.00271 17.9503 6.75171C17.6866 6.23427 17.2659 5.81357 16.7485 5.54992C16.4975 5.42203 16.175 5.33928 15.6377 5.29538C15.0917 5.25077 14.3925 5.25019 13.4 5.25019H10.6C9.60753 5.25019 8.90829 5.25077 8.36228 5.29538Z" fill="#353566"/>
</svg>
