<svg width="24" height="24" viewBox="0 0 24 24" fill="none" xmlns="http://www.w3.org/2000/svg">
<path fill-rule="evenodd" clip-rule="evenodd" d="M8.75 7.25019C7.92157 7.25019 7.25 7.92176 7.25 8.75019V10.2502C7.25 11.0786 7.92157 11.7502 8.75 11.7502H15.25C16.0784 11.7502 16.75 11.0786 16.75 10.2502V8.75019C16.75 7.92176 16.0784 7.25019 15.25 7.25019H8.75ZM8.75 8.75019H15.25V10.2502H8.75V8.75019Z" fill="#353566"/>
<path d="M8.125 13.5002C8.125 13.0169 8.51675 12.6252 9 12.6252C9.48325 12.6252 9.8751 13.0169 9.8751 13.5002C9.8751 13.9834 9.48335 14.3752 9.0001 14.3752C8.51685 14.3752 8.125 13.9834 8.125 13.5002Z" fill="#353566"/>
<path d="M12 12.6252C11.5168 12.6252 11.125 13.0169 11.125 13.5002C11.125 13.9834 11.5168 14.3752 12 14.3752C12.4832 14.3752 12.8751 13.9834 12.8751 13.5002C12.8751 13.0169 12.4832 12.6252 12 12.6252Z" fill="#353566"/>
<path d="M14.125 13.5002C14.125 13.0169 14.5168 12.6252 15 12.6252C15.4832 12.6252 15.8751 13.0169 15.8751 13.5002C15.8751 13.9834 15.4833 14.3752 15.0001 14.3752C14.5169 14.3752 14.125 13.9834 14.125 13.5002Z" fill="#353566"/>
<path d="M9 15.1252C8.51675 15.1252 8.125 15.5169 8.125 16.0002C8.125 16.4834 8.51675 16.8752 9 16.8752C9.48325 16.8752 9.8751 16.4834 9.8751 16.0002C9.8751 15.5169 9.48325 15.1252 9 15.1252Z" fill="#353566"/>
<path d="M11.125 16.0002C11.125 15.5169 11.5168 15.1252 12 15.1252C12.4832 15.1252 12.8751 15.5169 12.8751 16.0002C12.8751 16.4834 12.4833 16.8752 12.0001 16.8752C11.5169 16.8752 11.125 16.4834 11.125 16.0002Z" fill="#353566"/>
<path d="M15 15.1252C14.5168 15.1252 14.125 15.5169 14.125 16.0002C14.125 16.4834 14.5168 16.8752 15 16.8752C15.4832 16.8752 15.8751 16.4834 15.8751 16.0002C15.8751 15.5169 15.4832 15.1252 15 15.1252Z" fill="#353566"/>
<path fill-rule="evenodd" clip-rule="evenodd" d="M4.71322 6.07073C5.07934 5.35218 5.64141 4.75435 6.33183 4.34484L7.02787 1.73468C7.26134 0.859168 8.05424 0.25 8.96034 0.25H15.0396C15.9458 0.25 16.7387 0.859168 16.9721 1.73467L17.6682 4.34484C18.3586 4.75435 18.9207 5.35218 19.2868 6.07073C19.5404 6.56842 19.6484 7.11031 19.6998 7.74032C19.75 8.35458 19.75 9.11512 19.75 10.0676V13.9328C19.75 14.8853 19.75 15.6458 19.6998 16.2601C19.6484 16.8901 19.5404 17.432 19.2868 17.9296C18.9207 18.6482 18.3586 19.246 17.6682 19.6555L16.9721 22.2657C16.7387 23.1412 15.9458 23.7504 15.0397 23.7504H8.96035C8.05425 23.7504 7.26135 23.1412 7.02788 22.2657L6.33184 19.6555C5.64141 19.246 5.07934 18.6482 4.71322 17.9296C4.45963 17.432 4.35165 16.8901 4.30018 16.2601C4.24999 15.6458 4.24999 14.8852 4.25 13.9328V10.0676C4.24999 9.11513 4.24999 8.35458 4.30018 7.74032C4.35165 7.11031 4.45963 6.56842 4.71322 6.07073ZM8.24013 3.80036C8.16693 3.80634 8.09491 3.81309 8.02401 3.82074L8.47723 2.12117C8.53559 1.90229 8.73382 1.75 8.96034 1.75L15.0396 1.75C15.2662 1.75 15.4644 1.90229 15.5228 2.12117L15.976 3.82074C15.9051 3.81309 15.8331 3.80634 15.7599 3.80036C15.1456 3.75018 14.3851 3.75018 13.4326 3.75019H10.5674C9.61494 3.75018 8.8544 3.75018 8.24013 3.80036ZM15.7599 20.2C15.8331 20.194 15.9051 20.1873 15.976 20.1796L15.5228 21.8792C15.4644 22.0981 15.2662 22.2504 15.0397 22.2504H8.96035C8.73382 22.2504 8.5356 22.0981 8.47723 21.8792L8.02402 20.1796C8.09491 20.1873 8.16693 20.194 8.24013 20.2C8.85439 20.2502 9.61493 20.2502 10.5674 20.2502H13.4326C14.3851 20.2502 15.1456 20.2502 15.7599 20.2ZM8.36228 5.29538C7.82503 5.33928 7.50252 5.42203 7.25153 5.54992C6.73408 5.81357 6.31338 6.23427 6.04973 6.75171C5.92184 7.00271 5.83909 7.32522 5.79519 7.86247C5.75058 8.40848 5.75 9.10772 5.75 10.1002V13.9002C5.75 14.8927 5.75058 15.5919 5.79519 16.1379C5.83909 16.6752 5.92184 16.9977 6.04973 17.2487C6.31338 17.7661 6.73408 18.1868 7.25153 18.4505C7.50252 18.5783 7.82503 18.6611 8.36228 18.705C8.90829 18.7496 9.60753 18.7502 10.6 18.7502H13.4C14.3925 18.7502 15.0917 18.7496 15.6377 18.705C16.175 18.6611 16.4975 18.5783 16.7485 18.4505C17.2659 18.1868 17.6866 17.7661 17.9503 17.2487C18.0782 16.9977 18.1609 16.6752 18.2048 16.1379C18.2494 15.5919 18.25 14.8927 18.25 13.9002V10.1002C18.25 9.10772 18.2494 8.40848 18.2048 7.86247C18.1609 7.32522 18.0782 7.00271 17.9503 6.75171C17.6866 6.23427 17.2659 5.81357 16.7485 5.54992C16.4975 5.42203 16.175 5.33928 15.6377 5.29538C15.0917 5.25077 14.3925 5.25019 13.4 5.25019H10.6C9.60753 5.25019 8.90829 5.25077 8.36228 5.29538Z" fill="#353566"/>
</svg>
