<svg width="24" height="24" viewBox="0 0 24 24" fill="none" xmlns="http://www.w3.org/2000/svg">
<path d="M12.8324 1.25H6.16762C5.285 1.24999 4.57692 1.24999 4.00433 1.29677C3.41601 1.34484 2.905 1.44601 2.43404 1.68597C1.68139 2.06947 1.06947 2.68139 0.685975 3.43404C0.44601 3.905 0.344838 4.41601 0.29677 5.00433C0.249988 5.57692 0.249994 6.28499 0.25 7.16761V16.8324C0.249994 17.715 0.249988 18.4231 0.29677 18.9957C0.344838 19.584 0.44601 20.095 0.685975 20.566C1.06947 21.3186 1.68139 21.9305 2.43404 22.314C2.905 22.554 3.41601 22.6552 4.00433 22.7032C4.57691 22.75 5.28499 22.75 6.16761 22.75H11.7546C12.1688 22.75 12.5046 22.4142 12.5046 22C12.5046 21.5858 12.1688 21.25 11.7546 21.25H6.2C5.27754 21.25 4.6308 21.2494 4.12648 21.2082C3.63092 21.1677 3.33928 21.0918 3.11502 20.9775C2.64462 20.7378 2.26217 20.3554 2.02248 19.885C1.90822 19.6607 1.83228 19.3691 1.79179 18.8735C1.75058 18.3692 1.75 17.7225 1.75 16.8V7.2C1.75 6.27754 1.75058 5.6308 1.79179 5.12648C1.83228 4.63092 1.90822 4.33928 2.02248 4.11502C2.26217 3.64462 2.64462 3.26217 3.11502 3.02248C3.33928 2.90822 3.63092 2.83228 4.12648 2.79179C4.6308 2.75058 5.27754 2.75 6.2 2.75H12.8C13.7225 2.75 14.3692 2.75058 14.8735 2.79179C15.3691 2.83228 15.6607 2.90822 15.885 3.02248C16.3554 3.26217 16.7378 3.64462 16.9775 4.11502C17.0918 4.33928 17.1677 4.63092 17.2082 5.12648C17.2494 5.6308 17.25 6.27754 17.25 7.2V9C17.25 9.41421 17.5858 9.75 18 9.75C18.4142 9.75 18.75 9.41421 18.75 9V7.16761C18.75 6.28499 18.75 5.57691 18.7032 5.00433C18.6552 4.41601 18.554 3.905 18.314 3.43404C17.9305 2.68139 17.3186 2.06947 16.566 1.68597C16.095 1.44601 15.584 1.34484 14.9957 1.29677C14.4231 1.24999 13.715 1.24999 12.8324 1.25Z" fill="#353566"/>
<path d="M9.5 17.5C8.94771 17.5 8.5 17.9477 8.5 18.5C8.5 19.0523 8.94771 19.5 9.5 19.5C10.0523 19.5 10.5001 19.0523 10.5001 18.5C10.5001 17.9477 10.0523 17.5 9.5 17.5Z" fill="#353566"/>
<path d="M7.25 5C7.25 4.58579 7.58579 4.25 8 4.25H11C11.4142 4.25 11.75 4.58579 11.75 5C11.75 5.41421 11.4142 5.75 11 5.75H8C7.58579 5.75 7.25 5.41421 7.25 5Z" fill="#353566"/>
<path d="M19.9419 15.9419C20.186 15.6979 20.186 15.3021 19.9419 15.0581C19.6978 14.814 19.3021 14.814 19.058 15.0581L18 16.116L16.9419 15.058C16.6979 14.8139 16.3021 14.8139 16.0581 15.058C15.814 15.3021 15.814 15.6978 16.0581 15.9419L17.1161 16.9999L16.058 18.0581C15.8139 18.3021 15.8139 18.6979 16.058 18.9419C16.3021 19.186 16.6978 19.186 16.9419 18.9419L18 17.8838L19.0581 18.9419C19.3022 19.186 19.6979 19.186 19.942 18.9419C20.1861 18.6978 20.1861 18.3021 19.942 18.058L18.8839 16.9999L19.9419 15.9419Z" fill="#353566"/>
<path fill-rule="evenodd" clip-rule="evenodd" d="M18 11.25C14.8244 11.25 12.25 13.8244 12.25 17C12.25 20.1756 14.8244 22.75 18 22.75C21.1756 22.75 23.75 20.1756 23.75 17C23.75 13.8244 21.1756 11.25 18 11.25ZM13.75 17C13.75 14.6528 15.6528 12.75 18 12.75C20.3472 12.75 22.25 14.6528 22.25 17C22.25 19.3472 20.3472 21.25 18 21.25C15.6528 21.25 13.75 19.3472 13.75 17Z" fill="#353566"/>
</svg>
