<svg width="24" height="24" viewBox="0 0 24 24" fill="none" xmlns="http://www.w3.org/2000/svg">
<path d="M6.16762 1.25H12.8324C13.715 1.24999 14.4231 1.24999 14.9957 1.29677C15.584 1.34484 16.095 1.44601 16.566 1.68597C17.3186 2.06947 17.9305 2.68139 18.314 3.43404C18.554 3.905 18.6552 4.41601 18.7032 5.00433C18.75 5.57691 18.75 6.28499 18.75 7.16761V10.0475C18.75 10.4617 18.4142 10.7975 18 10.7975C17.5858 10.7975 17.25 10.4617 17.25 10.0475V7.2C17.25 6.27754 17.2494 5.6308 17.2082 5.12648C17.1677 4.63092 17.0918 4.33928 16.9775 4.11502C16.7378 3.64462 16.3554 3.26217 15.885 3.02248C15.6607 2.90822 15.3691 2.83228 14.8735 2.79179C14.3692 2.75058 13.7225 2.75 12.8 2.75H6.2C5.27754 2.75 4.6308 2.75058 4.12648 2.79179C3.63092 2.83228 3.33928 2.90822 3.11502 3.02248C2.64462 3.26217 2.26217 3.64462 2.02248 4.11502C1.90822 4.33928 1.83228 4.63092 1.79179 5.12648C1.75058 5.6308 1.75 6.27754 1.75 7.2V16.8C1.75 17.7225 1.75058 18.3692 1.79179 18.8735C1.83228 19.3691 1.90822 19.6607 2.02248 19.885C2.26217 20.3554 2.64462 20.7378 3.11502 20.9775C3.33928 21.0918 3.63092 21.1677 4.12648 21.2082C4.6308 21.2494 5.27754 21.25 6.2 21.25H13.6529C14.0671 21.25 14.4029 21.5858 14.4029 22C14.4029 22.4142 14.0671 22.75 13.6529 22.75H6.16761C5.28499 22.75 4.57691 22.75 4.00433 22.7032C3.41601 22.6552 2.905 22.554 2.43404 22.314C1.68139 21.9305 1.06947 21.3186 0.685975 20.566C0.44601 20.095 0.344838 19.584 0.29677 18.9957C0.249988 18.4231 0.249994 17.715 0.25 16.8324V7.16763C0.249994 6.285 0.249988 5.57692 0.29677 5.00433C0.344838 4.41601 0.44601 3.905 0.685975 3.43404C1.06947 2.68139 1.68139 2.06947 2.43404 1.68597C2.905 1.44601 3.41601 1.34484 4.00433 1.29677C4.57692 1.24999 5.285 1.24999 6.16762 1.25Z" fill="#353566"/>
<path d="M8.5 18.5C8.5 17.9477 8.94771 17.5 9.5 17.5C10.0523 17.5 10.5001 17.9477 10.5001 18.5C10.5001 19.0523 10.0524 19.5 9.5001 19.5C8.94781 19.5 8.5 19.0523 8.5 18.5Z" fill="#353566"/>
<path d="M8 4.25C7.58579 4.25 7.25 4.58579 7.25 5C7.25 5.41421 7.58579 5.75 8 5.75H11C11.4142 5.75 11.75 5.41421 11.75 5C11.75 4.58579 11.4142 4.25 11 4.25H8Z" fill="#353566"/>
<path d="M23 18.25C23.4142 18.25 23.75 17.9142 23.75 17.5V16.5C23.75 15.2574 22.7426 14.25 21.5 14.25H17.3106L18.0303 13.5303C18.3232 13.2374 18.3232 12.7626 18.0303 12.4697C17.7374 12.1768 17.2625 12.1768 16.9696 12.4697L14.9696 14.4697C14.7551 14.6842 14.6909 15.0068 14.807 15.287C14.9231 15.5673 15.1966 15.75 15.4999 15.75H21.5C21.9142 15.75 22.25 16.0858 22.25 16.5V17.5C22.25 17.9142 22.5858 18.25 23 18.25Z" fill="#353566"/>
<path d="M14.25 17.5C14.25 17.0858 14.5858 16.75 15 16.75C15.4142 16.75 15.75 17.0858 15.75 17.5V18.5C15.75 18.9142 16.0858 19.25 16.5 19.25H22.5C22.8033 19.25 23.0768 19.4327 23.1929 19.713C23.309 19.9933 23.2448 20.3158 23.0303 20.5303L21.0303 22.5303C20.7374 22.8232 20.2625 22.8232 19.9696 22.5303C19.6767 22.2374 19.6767 21.7626 19.9696 21.4697L20.6893 20.75H16.5C15.2574 20.75 14.25 19.7426 14.25 18.5V17.5Z" fill="#353566"/>
</svg>
