<svg width="24" height="24" viewBox="0 0 24 24" fill="none" xmlns="http://www.w3.org/2000/svg">
<path fill-rule="evenodd" clip-rule="evenodd" d="M11.9698 6.77971C10.8008 5.98106 9.04999 6.72345 9.04999 8.24927V12.7508C9.04999 14.2766 10.8008 15.019 11.9698 14.2203L15.2642 11.9696C16.3119 11.2538 16.3119 9.7462 15.2642 9.03045L11.9698 6.77971ZM10.55 8.24927C10.55 8.14781 10.6042 8.0518 10.728 7.9915C10.8536 7.93037 11.001 7.93447 11.1236 8.01826L14.4181 10.269C14.5154 10.3355 14.55 10.4223 14.55 10.5C14.55 10.5778 14.5154 10.6645 14.4181 10.731L11.1236 12.9818C11.001 13.0656 10.8536 13.0696 10.728 13.0085C10.6042 12.9482 10.55 12.8522 10.55 12.7508V8.24927Z" fill="#353566"/>
<path fill-rule="evenodd" clip-rule="evenodd" d="M6.2679 2.25H17.7321C18.5449 2.24999 19.2006 2.24999 19.7315 2.29336C20.2781 2.33803 20.7582 2.43239 21.2025 2.65873C21.9081 3.01825 22.4817 3.59193 22.8413 4.29754C23.0676 4.74176 23.162 5.2219 23.2066 5.76853C23.25 6.29944 23.25 6.95505 23.25 7.76788V13.2321C23.25 14.045 23.25 14.7006 23.2066 15.2315C23.162 15.7781 23.0676 16.2582 22.8413 16.7025C22.4817 17.4081 21.9081 17.9817 21.2025 18.3413C20.7582 18.5676 20.2781 18.662 19.7315 18.7066C19.2006 18.75 18.545 18.75 17.7321 18.75H6.26788C5.45505 18.75 4.79944 18.75 4.26853 18.7066C3.7219 18.662 3.24175 18.5676 2.79754 18.3413C2.09193 17.9817 1.51825 17.4081 1.15873 16.7025C0.932386 16.2582 0.838026 15.7781 0.793364 15.2315C0.749988 14.7006 0.749993 14.045 0.75 13.2321V7.7679C0.749993 6.95507 0.749988 6.29944 0.793364 5.76853C0.838026 5.2219 0.932386 4.74175 1.15873 4.29754C1.51825 3.59193 2.09193 3.01825 2.79754 2.65873C3.24176 2.43239 3.7219 2.33803 4.26853 2.29336C4.79944 2.24999 5.45507 2.24999 6.2679 2.25ZM4.39068 3.78838C3.93681 3.82547 3.67604 3.8946 3.47852 3.99524C3.05516 4.21095 2.71095 4.55516 2.49524 4.97852C2.3946 5.17604 2.32547 5.43681 2.28838 5.89068C2.25058 6.35331 2.25 6.94755 2.25 7.8V13.2C2.25 14.0525 2.25058 14.6467 2.28838 15.1093C2.32547 15.5632 2.3946 15.824 2.49524 16.0215C2.71095 16.4448 3.05516 16.789 3.47852 17.0048C3.67604 17.1054 3.93681 17.1745 4.39068 17.2116C4.85331 17.2494 5.44755 17.25 6.3 17.25H17.7C18.5525 17.25 19.1467 17.2494 19.6093 17.2116C20.0632 17.1745 20.324 17.1054 20.5215 17.0048C20.9448 16.789 21.289 16.4448 21.5048 16.0215C21.6054 15.824 21.6745 15.5632 21.7116 15.1093C21.7494 14.6467 21.75 14.0525 21.75 13.2V7.8C21.75 6.94755 21.7494 6.35331 21.7116 5.89068C21.6745 5.43681 21.6054 5.17604 21.5048 4.97852C21.289 4.55516 20.9448 4.21095 20.5215 3.99524C20.324 3.8946 20.0632 3.82547 19.6093 3.78838C19.1467 3.75058 18.5525 3.75 17.7 3.75H6.3C5.44755 3.75 4.85331 3.75058 4.39068 3.78838Z" fill="#353566"/>
<path d="M5.75 21C5.75 20.5858 6.08579 20.25 6.5 20.25H17.5C17.9142 20.25 18.25 20.5858 18.25 21C18.25 21.4142 17.9142 21.75 17.5 21.75H6.5C6.08579 21.75 5.75 21.4142 5.75 21Z" fill="#353566"/>
</svg>
