<svg width="24" height="24" viewBox="0 0 24 24" fill="none" xmlns="http://www.w3.org/2000/svg">
<g clip-path="url(#clip0_9002_2703)">
<path opacity="0.4" d="M23 12C23 18.0751 18.0751 23 12 23C5.92487 23 1 18.0751 1 12C1 5.92487 5.92487 1 12 1C18.0751 1 23 5.92487 23 12Z" fill="#353566"/>
<path d="M16.3536 7.64645C16.5488 7.84171 16.5488 8.15829 16.3536 8.35355L10.8536 13.8536C10.6583 14.0488 10.3417 14.0488 10.1464 13.8536L7.64645 11.3536C7.45118 11.1583 7.45118 10.8417 7.64645 10.6464C7.84171 10.4512 8.15829 10.4512 8.35355 10.6464L10.5 12.7929L15.6464 7.64645C15.8417 7.45118 16.1583 7.45118 16.3536 7.64645Z" fill="#353566"/>
<path d="M8 16C7.72386 16 7.5 16.2239 7.5 16.5C7.5 16.7761 7.72386 17 8 17H16C16.2761 17 16.5 16.7761 16.5 16.5C16.5 16.2239 16.2761 16 16 16H8Z" fill="#353566"/>
<path fill-rule="evenodd" clip-rule="evenodd" d="M0.5 12C0.5 5.64873 5.64873 0.5 12 0.5C18.3513 0.5 23.5 5.64873 23.5 12C23.5 18.3513 18.3513 23.5 12 23.5C5.64873 23.5 0.5 18.3513 0.5 12ZM12 1.5C6.20101 1.5 1.5 6.20101 1.5 12C1.5 17.799 6.20101 22.5 12 22.5C17.799 22.5 22.5 17.799 22.5 12C22.5 6.20101 17.799 1.5 12 1.5Z" fill="#353566"/>
</g>
<defs>
<clipPath id="clip0_9002_2703">
<rect width="24" height="24" fill="white"/>
</clipPath>
</defs>
</svg>
