<svg width="24" height="24" viewBox="0 0 24 24" fill="none" xmlns="http://www.w3.org/2000/svg">
<path opacity="0.4" d="M17.6796 6.21713C17.2448 5.76824 17.0274 5.5438 16.7717 5.38315C16.5451 5.24073 16.297 5.13564 16.037 5.0719C15.7437 5 15.4312 5 14.8063 5L5.50073 5C4.1006 5 3.40054 5 2.86576 5.27248C2.39535 5.51217 2.0129 5.89462 1.77322 6.36502C1.50073 6.8998 1.50073 7.59987 1.50073 9L1.50073 15C1.50073 16.4002 1.50073 17.1002 1.77322 17.635C2.0129 18.1054 2.39535 18.4879 2.86576 18.7276C3.40054 19 4.10061 19 5.50074 19L14.8063 19C15.4312 19 15.7437 19 16.037 18.9281C16.297 18.8644 16.5451 18.7593 16.7717 18.6169C17.0274 18.4562 17.2448 18.2318 17.6796 17.7829L21.1243 14.2263C21.8813 13.4446 22.2599 13.0538 22.4022 12.6059C22.5275 12.2117 22.5275 11.7883 22.4022 11.3941C22.2599 10.9462 21.8813 10.5554 21.1243 9.77371L17.6796 6.21713Z" fill="#353566"/>
<path fill-rule="evenodd" clip-rule="evenodd" d="M22.8787 11.2427C23.0354 11.7354 23.0354 12.2646 22.8787 12.7573C22.7803 13.0671 22.6064 13.3336 22.3797 13.6088C22.1598 13.8758 21.8642 14.1811 21.498 14.5591L18.0387 18.1307C18.024 18.1459 18.0095 18.1609 17.9952 18.1757C17.6022 18.5816 17.3453 18.847 17.0377 19.0402C16.7657 19.2111 16.468 19.3372 16.156 19.4137C15.8033 19.5002 15.4339 19.5001 14.8689 19.5C14.8483 19.5 14.8275 19.5 14.8063 19.5L5.47888 19.5C4.79735 19.5 4.25533 19.5001 3.81803 19.4643C3.37023 19.4277 2.98839 19.3512 2.63877 19.1731C2.07428 18.8854 1.61534 18.4265 1.32771 17.862C1.14957 17.5124 1.07304 17.1306 1.03645 16.6828C1.00072 16.2455 1.00073 15.7035 1.00073 15.0219L1.00073 8.97813C1.00073 8.29661 1.00073 7.7546 1.03645 7.31731C1.07304 6.8695 1.14957 6.48767 1.32771 6.13804C1.61533 5.57356 2.07427 5.11462 2.63876 4.827C2.98838 4.64885 3.37022 4.57232 3.81802 4.53574C4.25532 4.50001 4.79733 4.50001 5.47885 4.50002L14.8063 4.50002C14.8274 4.50002 14.8483 4.50001 14.8689 4.50001C15.4338 4.4999 15.8033 4.49982 16.156 4.5863C16.468 4.66279 16.7657 4.78889 17.0377 4.95979C17.3453 5.15301 17.6022 5.41844 17.9952 5.82431C18.0095 5.83912 18.024 5.85411 18.0387 5.86929L21.498 9.44095C21.8642 9.81897 22.1598 10.1242 22.3797 10.3912C22.6064 10.6664 22.7803 10.933 22.8787 11.2427ZM21.9257 12.4544C22.0197 12.1588 22.0197 11.8413 21.9257 11.5456C21.8818 11.4074 21.7953 11.2546 21.6078 11.027C21.4165 10.7947 21.1493 10.5182 20.7651 10.1216L17.3204 6.56501C16.8687 6.09862 16.6984 5.92757 16.5057 5.80653C16.3244 5.6926 16.1259 5.60853 15.9179 5.55754C15.697 5.50336 15.4556 5.50002 14.8063 5.50002L5.50073 5.50002C4.79242 5.50002 4.29125 5.5004 3.89945 5.53242C3.51349 5.56395 3.27791 5.62366 3.09275 5.718C2.71643 5.90975 2.41047 6.21571 2.21872 6.59203C2.12438 6.77719 2.06467 7.01278 2.03313 7.39874C2.00112 7.79053 2.00073 8.2917 2.00073 9.00002L2.00073 15C2.00073 15.7084 2.00112 16.2095 2.03313 16.6013C2.06467 16.9873 2.12438 17.2229 2.21872 17.408C2.41047 17.7844 2.71643 18.0903 3.09275 18.2821C3.27791 18.3764 3.5135 18.4361 3.89946 18.4676C4.29126 18.4997 4.79242 18.5 5.50074 18.5L14.8063 18.5C15.4556 18.5 15.697 18.4967 15.9179 18.4425C16.1259 18.3915 16.3244 18.3074 16.5057 18.1935C16.6984 18.0725 16.8687 17.9014 17.3204 17.435L20.7651 13.8785C21.1493 13.4818 21.4165 13.2053 21.6078 12.9731C21.7953 12.7455 21.8818 12.5926 21.9257 12.4544Z" fill="#353566"/>
</svg>
