<svg width="24" height="24" viewBox="0 0 24 24" fill="none" xmlns="http://www.w3.org/2000/svg">
<path opacity="0.4" d="M3.93834 16.4478C2.86798 15.3775 2.3328 14.8423 2.13228 14.2252C1.95591 13.6823 1.95591 13.0976 2.13228 12.5547C2.3328 11.9376 2.86798 11.4024 3.93834 10.3321L10.3321 3.93834C11.4024 2.86798 11.9376 2.3328 12.5547 2.13228C13.0976 1.95591 13.6823 1.95591 14.2252 2.13228C14.8423 2.3328 15.3775 2.86798 16.4478 3.93834L20.0617 7.55219C21.132 8.62254 21.6672 9.15772 21.8677 9.77485C22.0441 10.3177 22.0441 10.9024 21.8677 11.4453C21.6672 12.0624 21.132 12.5976 20.0617 13.6679L13.6679 20.0617C12.5976 21.132 12.0624 21.6672 11.4453 21.8677C10.9024 22.0441 10.3177 22.0441 9.77485 21.8677C9.15772 21.6672 8.62254 21.132 7.55219 20.0617L3.93834 16.4478Z" fill="#353566"/>
<path fill-rule="evenodd" clip-rule="evenodd" d="M3.56921 16.7857C3.2018 16.4183 2.88821 16.1047 2.62803 15.8255C2.61985 15.8173 2.61194 15.8088 2.60433 15.8C2.50408 15.6919 2.41196 15.589 2.32795 15.49C2.01522 15.1216 1.78553 14.7759 1.65676 14.3795C1.44775 13.7363 1.44775 13.0434 1.65676 12.4001C1.78553 12.0038 2.01522 11.658 2.32795 11.2897C2.63386 10.9293 3.04722 10.5159 3.56921 9.99397L9.99409 3.56909C10.5161 3.0471 10.9294 2.63373 11.2898 2.32783C11.6582 2.0151 12.0039 1.78541 12.4002 1.65663C13.0435 1.44763 13.7364 1.44763 14.3797 1.65663C14.776 1.78541 15.1217 2.0151 15.4901 2.32783C15.8504 2.63372 16.2638 3.04708 16.7857 3.56904L20.4308 7.21414C20.9527 7.73602 21.3662 8.14947 21.672 8.50977C21.9848 8.87815 22.2145 9.22388 22.3432 9.62022C22.5523 10.2635 22.5523 10.9564 22.3432 11.5997C22.2145 11.996 21.9848 12.3417 21.672 12.7101C21.3662 13.0704 20.9528 13.4837 20.4309 14.0057L14.0059 20.4307C13.5761 20.8605 13.2199 21.2167 12.9063 21.4999H20C20.2761 21.4999 20.5 21.7237 20.5 21.9999C20.5 22.276 20.2761 22.4999 20 22.4999H10.6147C10.6116 22.4999 10.6085 22.4999 10.6055 22.4999L2 22.4999C1.72386 22.4999 1.5 22.276 1.5 21.9999C1.5 21.7237 1.72386 21.4999 2 21.4999L8.3138 21.4999C8.00024 21.2167 7.64406 20.8605 7.21425 20.4307L3.56921 16.7857ZM14.0706 2.60769C13.6282 2.46394 13.1517 2.46394 12.7092 2.60769C12.4885 2.67943 12.258 2.81759 11.9369 3.09017C11.6114 3.36653 11.2266 3.75075 10.6856 4.29177L4.29189 10.6855C3.75088 11.2265 3.36666 11.6113 3.09029 11.9368C2.81771 12.2579 2.67955 12.4883 2.60781 12.7091C2.46406 13.1515 2.46406 13.6281 2.60781 14.0705C2.67955 14.2913 2.81771 14.5217 3.09029 14.8428C3.11786 14.8753 3.1465 14.9083 3.17626 14.9421L11.5437 13.8114C12.4391 13.6904 12.7424 13.6401 12.9725 13.5069C13.194 13.3786 13.378 13.1946 13.5062 12.9731C13.6395 12.743 13.6897 12.4398 13.8107 11.5443L14.9416 3.17563C14.9081 3.14605 14.8752 3.11758 14.8429 3.09017C14.5219 2.81759 14.2914 2.67943 14.0706 2.60769ZM10.6069 21.4999C10.609 21.4999 10.6111 21.4999 10.6133 21.4999C10.8419 21.4995 11.0706 21.4636 11.2908 21.3921C11.5115 21.3203 11.742 21.1822 12.0631 20.9096C12.3886 20.6332 12.7734 20.249 13.3144 19.708L19.7081 13.3143C20.2491 12.7732 20.6333 12.3885 20.9097 12.0629C21.1823 11.7418 21.3205 11.5114 21.3922 11.2906C21.5359 10.8482 21.5359 10.3717 21.3922 9.92923C21.3205 9.70844 21.1823 9.47802 20.9097 9.15694C20.6333 8.8314 20.2491 8.44663 19.7081 7.90562L16.0943 4.29177C16.0036 4.20108 15.9173 4.11479 15.8349 4.03269L14.7877 11.7822C14.6868 12.5316 14.617 13.0506 14.3716 13.4743C14.1558 13.8469 13.8462 14.1564 13.4737 14.3722C13.05 14.6176 12.5309 14.6875 11.7816 14.7883L4.03338 15.8354C4.11532 15.9176 4.20141 16.0037 4.29189 16.0941L7.90574 19.708C8.44675 20.249 8.83152 20.6332 9.15706 20.9096C9.47814 21.1822 9.70857 21.3203 9.92935 21.3921C10.1495 21.4636 10.3782 21.4995 10.6069 21.4999Z" fill="#353566"/>
</svg>
