<svg width="24" height="24" viewBox="0 0 24 24" fill="none" xmlns="http://www.w3.org/2000/svg">
<path opacity="0.4" d="M1.35423 4.27453C1 4.96974 1 5.87983 1 7.7V13.8C1 15.6202 1 16.5303 1.35423 17.2255C1.66582 17.837 2.163 18.3342 2.77453 18.6458C3.46974 19 4.37983 19 6.2 19H16.4162C16.4888 18.9415 16.5632 18.8849 16.6391 18.8303L17.7502 18.0309C17.7502 18.0309 17.3508 17.5817 16.9355 17.021C16.5202 16.4603 16.275 15.6782 16.275 14.925C16.275 13.061 17.7861 11.55 19.65 11.55C20.5636 11.55 21.3923 11.913 22 12.5026V7.7C22 5.87983 22 4.96974 21.6458 4.27453C21.3342 3.663 20.837 3.16582 20.2255 2.85423C19.5303 2.5 18.6202 2.5 16.8 2.5H6.2C4.37983 2.5 3.46974 2.5 2.77453 2.85423C2.163 3.16582 1.66582 3.663 1.35423 4.27453Z" fill="#353566"/>
<path fill-rule="evenodd" clip-rule="evenodd" d="M6.17767 1.99988H16.8223C17.7135 1.99987 18.413 1.99987 18.9753 2.04582C19.5482 2.09262 20.0226 2.18959 20.4525 2.4086C21.1581 2.76813 21.7317 3.34181 22.0913 4.04741C22.3103 4.47725 22.4073 4.9517 22.4541 5.52457C22.4658 5.6687 22.4746 5.82183 22.4811 5.98489C22.4814 5.99068 22.4817 5.99647 22.4818 6.00226C22.5 6.47155 22.5 7.02263 22.5 7.67712V13.1163C22.2425 12.7113 21.901 12.3649 21.5 12.1016V7.69988C21.5 7.45178 21.5 7.22263 21.4991 7.01011L13.6584 12.984C13.0458 13.4513 12.6234 13.7734 12.1438 13.9012C11.722 14.0136 11.2781 14.0136 10.8563 13.9012C10.3767 13.7734 9.95426 13.4513 9.34162 12.984L1.5009 7.01011C1.50003 7.22263 1.5 7.45178 1.5 7.69988V13.7999C1.5 14.7182 1.50039 15.3769 1.54262 15.8938C1.58437 16.4048 1.66452 16.733 1.79973 16.9984C2.06338 17.5158 2.48408 17.9365 3.00153 18.2001C3.2669 18.3354 3.5951 18.4155 4.10612 18.4573C4.62298 18.4995 5.28166 18.4999 6.2 18.4999L17.0983 18.4998L16.6391 18.8302C16.3632 19.0287 16.1084 19.253 15.8789 19.4999H6.17765C5.28648 19.4999 4.58703 19.4999 4.02469 19.4539C3.45183 19.4071 2.97738 19.3102 2.54754 19.0912C1.84193 18.7316 1.26825 18.158 0.908726 17.4523C0.689711 17.0225 0.592744 16.5481 0.545939 15.9752C0.499995 15.4129 0.499997 14.7134 0.5 13.8222V7.67754C0.499998 7.02289 0.499996 6.47168 0.518208 6.0023C0.518336 5.99648 0.518565 5.99067 0.518895 5.98485C0.525408 5.82181 0.534165 5.66868 0.545939 5.52457C0.592744 4.9517 0.689711 4.47725 0.908726 4.04741C1.26825 3.34181 1.84193 2.76813 2.54754 2.4086C2.97738 2.18959 3.45183 2.09262 4.02469 2.04582C4.58703 1.99987 5.2865 1.99987 6.17767 1.99988ZM21.4574 5.606C21.4619 5.66086 21.4659 5.71731 21.4695 5.77551L13.1363 12.1246C12.4057 12.6813 12.1497 12.8647 11.8863 12.9349C11.6332 13.0024 11.3668 13.0024 11.1138 12.9349C10.8503 12.8647 10.5943 12.6813 9.86369 12.1246L1.53054 5.77551C1.53413 5.71731 1.53814 5.66086 1.54262 5.606C1.58437 5.09498 1.66452 4.76678 1.79973 4.5014C2.06338 3.98396 2.48408 3.56326 3.00153 3.29961C3.2669 3.1644 3.5951 3.08425 4.10612 3.0425C4.62298 3.00027 5.28166 2.99988 6.2 2.99988H16.8C17.7183 2.99988 18.377 3.00027 18.8939 3.0425C19.4049 3.08425 19.7331 3.1644 19.9985 3.29961C20.5159 3.56326 20.9366 3.98396 21.2003 4.5014C21.3355 4.76678 21.4156 5.09498 21.4574 5.606Z" fill="#353566"/>
<path d="M21.6626 18.1119C21.8273 17.9088 21.9712 17.6879 22.0913 17.4523C22.1218 17.3924 22.15 17.3316 22.176 17.2697C21.8361 17.7088 21.5499 18.0308 21.5499 18.0308L21.6626 18.1119Z" fill="#353566"/>
<path d="M19.6634 19.4966C18.3253 19.4966 17.1243 20.4168 16.8143 21.6212C16.7455 21.8886 16.4729 22.0496 16.2054 21.9808C15.938 21.912 15.777 21.6394 15.8459 21.372C16.2759 19.7009 17.8951 18.4966 19.6634 18.4966C21.4317 18.4966 23.0509 19.7009 23.481 21.372C23.5498 21.6394 23.3888 21.912 23.1214 21.9808C22.8539 22.0496 22.5814 21.8886 22.5125 21.6212C22.2025 20.4168 21.0015 19.4966 19.6634 19.4966Z" fill="#353566"/>
<path fill-rule="evenodd" clip-rule="evenodd" d="M19.6635 12.6632C18.3518 12.6632 17.2885 13.7265 17.2885 15.0382C17.2885 16.3499 18.3518 17.4132 19.6635 17.4132C20.9751 17.4132 22.0385 16.3499 22.0385 15.0382C22.0385 13.7265 20.9751 12.6632 19.6635 12.6632ZM18.2885 15.0382C18.2885 14.2788 18.9041 13.6632 19.6635 13.6632C20.4228 13.6632 21.0385 14.2788 21.0385 15.0382C21.0385 15.7976 20.4228 16.4132 19.6635 16.4132C18.9041 16.4132 18.2885 15.7976 18.2885 15.0382Z" fill="#353566"/>
</svg>
