<svg width="24" height="24" viewBox="0 0 24 24" fill="none" xmlns="http://www.w3.org/2000/svg">
<path opacity="0.4" d="M1.35423 4.27453C1 4.96974 1 5.87983 1 7.7V13.8C1 15.6202 1 16.5303 1.35423 17.2255C1.66582 17.837 2.163 18.3342 2.77453 18.6458C3.46974 19 4.37983 19 6.2 19H13.675C13.675 15.2307 16.7307 12.175 20.5 12.175C21.0153 12.175 21.5173 12.2321 22 12.3404V7.7C22 5.87983 22 4.96974 21.6458 4.27453C21.3342 3.663 20.837 3.16582 20.2255 2.85423C19.5303 2.5 18.6202 2.5 16.8 2.5H6.2C4.37983 2.5 3.46974 2.5 2.77453 2.85423C2.163 3.16582 1.66582 3.663 1.35423 4.27453Z" fill="#353566"/>
<path fill-rule="evenodd" clip-rule="evenodd" d="M6.17767 2C5.2865 2 4.58703 1.99999 4.02469 2.04594C3.45183 2.09274 2.97738 2.18971 2.54754 2.40873C1.84193 2.76825 1.26825 3.34193 0.908726 4.04754C0.689711 4.47738 0.592744 4.95183 0.545939 5.52469C0.534165 5.66881 0.525408 5.82193 0.518895 5.98497C0.518565 5.99079 0.518336 5.99661 0.518208 6.00242C0.499996 6.47181 0.499998 7.023 0.5 7.67765V13.8223C0.499997 14.7135 0.499995 15.413 0.545939 15.9753C0.592744 16.5482 0.689711 17.0226 0.908726 17.4525C1.26825 18.1581 1.84193 18.7317 2.54754 19.0913C2.97738 19.3103 3.45183 19.4073 4.02469 19.4541C4.58703 19.5 5.28648 19.5 6.17765 19.5H13.693C13.6811 19.3349 13.675 19.1682 13.675 19C13.675 18.8318 13.6811 18.6651 13.693 18.5H6.2C5.28166 18.5 4.62298 18.4996 4.10612 18.4574C3.5951 18.4156 3.2669 18.3355 3.00153 18.2003C2.48408 17.9366 2.06338 17.5159 1.79973 16.9985C1.66452 16.7331 1.58437 16.4049 1.54262 15.8939C1.50039 15.377 1.5 14.7183 1.5 13.8V7.7C1.5 7.4519 1.50003 7.22275 1.5009 7.01023L9.34161 12.9841C9.95425 13.4514 10.3767 13.7735 10.8563 13.9013C11.2781 14.0137 11.722 14.0137 12.1438 13.9013C12.6234 13.7735 13.0458 13.4514 13.6584 12.9841L21.4991 7.01023C21.5 7.22275 21.5 7.4519 21.5 7.7V12.2477C21.8423 12.298 22.1762 12.3736 22.5 12.4727V7.67765C22.5 7.02316 22.5 6.47168 22.4818 6.00238C22.4817 5.99659 22.4814 5.9908 22.4811 5.98502C22.4746 5.82195 22.4658 5.66882 22.4541 5.52469C22.4073 4.95183 22.3103 4.47738 22.0913 4.04754C21.7317 3.34193 21.1581 2.76825 20.4525 2.40873C20.0226 2.18971 19.5482 2.09274 18.9753 2.04594C18.413 1.99999 17.7135 2 16.8223 2H6.17767ZM21.4695 5.77563C21.4659 5.71743 21.4619 5.66098 21.4574 5.60612C21.4156 5.0951 21.3355 4.7669 21.2003 4.50153C20.9366 3.98408 20.5159 3.56338 19.9985 3.29973C19.7331 3.16452 19.4049 3.08437 18.8939 3.04262C18.377 3.00039 17.7183 3 16.8 3H6.2C5.28166 3 4.62298 3.00039 4.10612 3.04262C3.5951 3.08437 3.2669 3.16452 3.00153 3.29973C2.48408 3.56338 2.06338 3.98408 1.79973 4.50153C1.66452 4.7669 1.58437 5.0951 1.54262 5.60612C1.53814 5.66098 1.53413 5.71744 1.53054 5.77563L9.86369 12.1247C10.5943 12.6814 10.8503 12.8649 11.1138 12.9351C11.3668 13.0025 11.6332 13.0025 11.8863 12.9351C12.1497 12.8648 12.4057 12.6814 13.1363 12.1247L21.4695 5.77563Z" fill="#353566"/>
<path d="M19 21.5C19 21.7761 19.2239 22 19.5 22C19.7761 22 20 21.7761 20 21.5V14.5C20 14.2239 19.7761 14 19.5 14C19.2239 14 19 14.2239 19 14.5V21.5Z" fill="#353566"/>
<path d="M16.5 19V21.5C16.5 21.7761 16.2761 22 16 22C15.7239 22 15.5 21.7761 15.5 21.5V19C15.5 18.7239 15.7239 18.5 16 18.5C16.2761 18.5 16.5 18.7239 16.5 19Z" fill="#353566"/>
<path d="M23 22C23.2761 22 23.5 21.7761 23.5 21.5V16.5C23.5 16.2239 23.2761 16 23 16C22.7239 16 22.5 16.2239 22.5 16.5V21.5C22.5 21.7761 22.7239 22 23 22Z" fill="#353566"/>
</svg>
