<svg width="24" height="24" viewBox="0 0 24 24" fill="none" xmlns="http://www.w3.org/2000/svg">
<path opacity="0.4" fill-rule="evenodd" clip-rule="evenodd" d="M2 8.2V12.9256C2 15.3274 2 16.5283 2.44665 17.4546C2.88875 18.3714 3.62861 19.1112 4.54542 19.5533C5.47168 20 6.67258 20 9.0744 20C9.22529 20 9.30073 20 9.36933 20.02C9.43754 20.0399 9.50072 20.0741 9.55466 20.1204C9.60892 20.1669 9.65016 20.23 9.73263 20.3564L10.6602 21.7774C11.107 22.4619 11.3303 22.8041 11.6133 22.9227C11.8607 23.0264 12.1393 23.0264 12.3867 22.9227C12.6697 22.8041 12.893 22.4619 13.3398 21.7774L14.2674 20.3564C14.3498 20.23 14.3911 20.1669 14.4453 20.1204C14.4993 20.0741 14.5625 20.0399 14.6307 20.02C14.6993 20 14.7747 20 14.9256 20C17.3274 20 18.5283 20 19.4546 19.5533C20.3714 19.1112 21.1112 18.3714 21.5533 17.4546C22 16.5283 22 15.3274 22 12.9256V8.2C22 5.67976 22 4.41965 21.5095 3.45704C21.0781 2.61031 20.3897 1.9219 19.543 1.49047C18.5804 1 17.3202 1 14.8 1H9.2C6.67976 1 5.41965 1 4.45704 1.49047C3.61031 1.9219 2.9219 2.61031 2.49047 3.45704C2 4.41965 2 5.67976 2 8.2ZM18.2048 12.6746L14.9826 12.2145C14.8276 12.1924 14.7501 12.1813 14.6918 12.1439C14.6404 12.1109 14.5996 12.0639 14.5742 12.0084C14.5455 11.9454 14.5455 11.8671 14.5455 11.7105V10.185C12.7162 9.62064 11.4003 9.62064 9.45455 10.185V11.7105C9.45455 11.8671 9.45455 11.9454 9.42576 12.0084C9.40039 12.0639 9.35959 12.1109 9.30821 12.1439C9.24992 12.1813 9.17242 12.1924 9.01743 12.2145L5.7958 12.6746C5.59902 12.7027 5.50063 12.7167 5.42063 12.7026C5.23569 12.67 5.08373 12.5382 5.02528 12.3597C5 12.2825 5 12.1831 5 11.9843V11.1632C5 10.1012 5.58343 9.11427 6.50737 8.59074C7.36443 8.10509 8.30416 7.75308 9.27013 7.55989C11.0703 7.19986 12.9257 7.20021 14.7258 7.56024C15.6901 7.75308 16.63 8.10466 17.4859 8.58868C18.4133 9.11308 19 10.1036 19 11.1689L19 11.9849C19 12.1831 19 12.2822 18.9749 12.3592C18.9165 12.5381 18.7642 12.6701 18.5789 12.7027C18.4991 12.7167 18.401 12.7027 18.2048 12.6746Z" fill="#353566"/>
<path fill-rule="evenodd" clip-rule="evenodd" d="M14.8239 7.06992C12.959 6.69695 11.037 6.69658 9.17204 7.06957C8.15332 7.27331 7.16356 7.64418 6.26084 8.15569C5.18258 8.76667 4.49997 9.91843 4.49997 11.1631C4.49997 11.2557 4.50007 11.3483 4.50016 11.4409C4.50037 11.6366 4.50057 11.8323 4.49987 12.028C4.49933 12.1779 4.49869 12.3583 4.55009 12.5153C4.66594 12.869 4.96715 13.1303 5.33373 13.195C5.49637 13.2236 5.67489 13.1975 5.82321 13.1758C6.55163 13.0691 7.28057 12.9659 8.0095 12.8626C8.36905 12.8117 8.7286 12.7608 9.08809 12.7095L9.09984 12.7078C9.16691 12.6982 9.24211 12.6875 9.30731 12.6731C9.38245 12.6564 9.47988 12.6278 9.57823 12.5647C9.71032 12.4799 9.81525 12.3589 9.88049 12.2162C9.92906 12.1099 9.9436 12.0094 9.94947 11.9327C9.95457 11.8661 9.95455 11.7901 9.95453 11.7224L9.95453 10.5653C11.4916 10.1614 12.6062 10.1616 14.0454 10.5595L14.0454 11.7224C14.0454 11.7901 14.0454 11.8661 14.0505 11.9327C14.0564 12.0094 14.0709 12.1099 14.1195 12.2162C14.1847 12.3589 14.2896 12.4799 14.4217 12.5647C14.5201 12.6278 14.6175 12.6564 14.6926 12.6731C14.7578 12.6875 14.833 12.6982 14.9001 12.7078C15.2609 12.7593 15.6218 12.8104 15.9827 12.8615C16.7144 12.9652 17.4461 13.0688 18.1772 13.1759C18.3251 13.1975 18.5031 13.2236 18.6653 13.1951C19.0326 13.1307 19.3344 12.8689 19.4501 12.5144C19.5012 12.3579 19.5006 12.178 19.5001 12.0285C19.4994 11.8339 19.4996 11.6394 19.4998 11.4448C19.4999 11.3529 19.5 11.2609 19.5 11.1689C19.5 9.92043 18.8137 8.76511 17.732 8.15341C16.8305 7.64364 15.8407 7.27328 14.8239 7.06992ZM9.36816 8.05015C11.1035 7.70307 12.8923 7.7034 14.6278 8.0505C15.5394 8.23282 16.4294 8.56562 17.2398 9.02388C18.0128 9.46099 18.5 10.2866 18.5 11.1689L18.5 11.9849C18.5 12.0894 18.4998 12.1482 18.4975 12.191C18.4968 12.2046 18.4934 12.2076 18.4798 12.2064C18.4371 12.2025 18.3789 12.1944 18.2755 12.1796L15.0454 11.7184L15.0454 10.185C15.0454 9.96565 14.9024 9.77191 14.6928 9.70723C12.7647 9.11234 11.3489 9.11488 9.31523 9.70481C9.10155 9.76679 8.95453 9.96252 8.95453 10.185L8.95453 11.7184L5.7251 12.1795C5.62139 12.1944 5.56298 12.2025 5.52014 12.2063C5.50659 12.2075 5.50315 12.2046 5.50243 12.191C5.50014 12.148 5.49997 12.089 5.49997 11.9843V11.1631C5.49997 10.2839 5.98424 9.46181 6.75384 9.02572C7.56526 8.56594 8.45494 8.23279 9.36816 8.05015Z" fill="#353566"/>
<path fill-rule="evenodd" clip-rule="evenodd" d="M15.6226 0.5H8.37737C7.27642 0.499997 6.41948 0.499995 5.73209 0.556157C5.03416 0.61318 4.4671 0.730584 3.95704 0.990471C3.11031 1.4219 2.4219 2.11031 1.99047 2.95704C1.73058 3.4671 1.61318 4.03416 1.55616 4.73209C1.5 5.41948 1.5 6.27641 1.5 7.37737V13.6226C1.5 14.7236 1.5 15.5805 1.55616 16.2679C1.61318 16.9658 1.73058 17.5329 1.99047 18.043C2.4219 18.8897 3.11031 19.5781 3.95704 20.0095C4.4671 20.2694 5.03416 20.3868 5.73209 20.4438C6.41947 20.5 7.27639 20.5 8.37734 20.5H9.06685C9.15145 20.5 9.19444 20.5002 9.22559 20.5019L9.22814 20.5021L9.22966 20.5042C9.24817 20.5293 9.27182 20.5652 9.31807 20.636L10.2543 22.0704C10.4667 22.3958 10.6447 22.6685 10.806 22.8724C10.9709 23.0809 11.1616 23.2755 11.42 23.3839C11.791 23.5394 12.209 23.5394 12.58 23.3839C12.8384 23.2755 13.0291 23.0809 13.194 22.8724C13.3553 22.6685 13.5332 22.3959 13.7456 22.0705L14.6819 20.636C14.7282 20.5652 14.7518 20.5293 14.7703 20.5042L14.7719 20.5021L14.7744 20.5019C14.8056 20.5002 14.8486 20.5 14.9332 20.5H15.6226C16.7236 20.5 17.5805 20.5 18.2679 20.4438C18.9658 20.3868 19.5329 20.2694 20.043 20.0095C20.8897 19.5781 21.5781 18.8897 22.0095 18.043C22.2694 17.5329 22.3868 16.9658 22.4438 16.2679C22.5 15.5805 22.5 14.7236 22.5 13.6227V7.37736C22.5 6.27642 22.5 5.41947 22.4438 4.73209C22.3868 4.03416 22.2694 3.4671 22.0095 2.95704C21.5781 2.11031 20.8897 1.4219 20.043 0.990471C19.5329 0.730584 18.9658 0.61318 18.2679 0.556157C17.5805 0.499995 16.7236 0.499997 15.6226 0.5ZM4.41103 1.88148C4.75662 1.70539 5.17744 1.60481 5.81352 1.55284C6.45545 1.50039 7.27164 1.5 8.4 1.5H15.6C16.7284 1.5 17.5446 1.50039 18.1865 1.55284C18.8226 1.60481 19.2434 1.70539 19.589 1.88148C20.2475 2.21703 20.783 2.75247 21.1185 3.41103C21.2946 3.75662 21.3952 4.17744 21.4472 4.81352C21.4996 5.45545 21.5 6.27164 21.5 7.4V13.6C21.5 14.7284 21.4996 15.5446 21.4472 16.1865C21.3952 16.8226 21.2946 17.2434 21.1185 17.589C20.783 18.2475 20.2475 18.783 19.589 19.1185C19.2434 19.2946 18.8226 19.3952 18.1865 19.4472C17.5446 19.4996 16.7284 19.5 15.6 19.5H14.9332L14.8999 19.4999C14.7777 19.4995 14.624 19.499 14.4774 19.544C14.3504 19.583 14.2325 19.6468 14.1305 19.7318C14.0127 19.83 13.9291 19.959 13.8626 20.0616L13.8445 20.0894L12.9211 21.5041C12.6925 21.8544 12.5393 22.0882 12.4097 22.2521C12.2804 22.4155 12.2179 22.4513 12.1933 22.4616C12.0697 22.5135 11.9303 22.5135 11.8067 22.4616C11.7821 22.4513 11.7196 22.4155 11.5903 22.2521C11.4607 22.0882 11.3075 21.8544 11.0789 21.5041L10.1555 20.0894L10.1374 20.0615C10.0709 19.959 9.98734 19.83 9.86947 19.7318C9.76748 19.6468 9.64958 19.583 9.52265 19.544C9.37597 19.499 9.22227 19.4995 9.1001 19.4999L9.06685 19.5H8.4C7.27164 19.5 6.45545 19.4996 5.81352 19.4472C5.17744 19.3952 4.75662 19.2946 4.41103 19.1185C3.75247 18.783 3.21703 18.2475 2.88148 17.589C2.70539 17.2434 2.60481 16.8226 2.55284 16.1865C2.50039 15.5446 2.5 14.7284 2.5 13.6V7.4C2.5 6.27164 2.50039 5.45545 2.55284 4.81352C2.60481 4.17744 2.70539 3.75662 2.88148 3.41103C3.21703 2.75247 3.75247 2.21703 4.41103 1.88148Z" fill="#353566"/>
</svg>
