<svg width="24" height="24" viewBox="0 0 24 24" fill="none" xmlns="http://www.w3.org/2000/svg">
<path opacity="0.4" fill-rule="evenodd" clip-rule="evenodd" d="M22 8.4V15.6C22 17.8402 22 18.9603 21.564 19.816C21.1805 20.5686 20.5686 21.1805 19.816 21.564C18.9603 22 17.8402 22 15.6 22H8.4C6.15979 22 5.03969 22 4.18404 21.564C3.43139 21.1805 2.81947 20.5686 2.43597 19.816C2 18.9603 2 17.8402 2 15.6V8.4C2 6.15979 2 5.03969 2.43597 4.18404C2.81947 3.43139 3.43139 2.81947 4.18404 2.43597C5.03969 2 6.15979 2 8.4 2H15.6C17.8402 2 18.9603 2 19.816 2.43597C20.5686 2.81947 21.1805 3.43139 21.564 4.18404C22 5.03969 22 6.15979 22 8.4ZM8.58972 6.39823L10.5943 9.08897C10.6778 9.20097 10.7195 9.25697 10.7337 9.31784C10.7462 9.37153 10.7437 9.42763 10.7265 9.47999C10.7069 9.53936 10.6604 9.59143 10.5674 9.69559L9.42217 10.9774C10.2022 12.5976 11.4023 13.7977 13.0225 14.5777L14.2162 13.3809C14.3207 13.2762 14.3729 13.2239 14.4341 13.201C14.4881 13.1808 14.5468 13.1766 14.6031 13.1889C14.667 13.2028 14.7261 13.2472 14.8443 13.336L17.6055 15.4092C17.7497 15.5174 17.8218 15.5715 17.8688 15.6299C18.017 15.8139 18.0435 16.0677 17.9365 16.2783C17.9025 16.3451 17.8431 16.4129 17.7244 16.5486L17.3821 16.9397C17.352 16.9742 17.3369 16.9914 17.3227 17.0072C16.5748 17.8379 15.4271 18.1839 14.3446 17.9051C14.3241 17.8998 14.296 17.8921 14.24 17.8768L14.2141 17.8698C13.2225 17.5987 12.2809 17.1701 11.4252 16.6004L11.3974 16.5819C9.8222 15.53 8.46997 14.1778 7.41814 12.6026L7.39958 12.5748C6.82988 11.7191 6.4013 10.7775 6.13021 9.78585L6.12316 9.76002C6.10788 9.70398 6.10023 9.67592 6.09494 9.65539C5.81611 8.57294 6.16213 7.42524 6.99281 6.67731C7.00857 6.66313 7.02582 6.64803 7.06026 6.61789L7.44964 6.27714C7.58519 6.15852 7.65297 6.09921 7.71967 6.06527C7.93111 5.95767 8.18608 5.98475 8.37021 6.13435C8.42829 6.18155 8.4821 6.25378 8.58972 6.39823Z" fill="#353566"/>
<path fill-rule="evenodd" clip-rule="evenodd" d="M8.95782 6.05619C8.87765 5.94791 8.79203 5.83228 8.68408 5.74522L8.68508 5.74622C8.34707 5.47164 7.88006 5.42254 7.49305 5.61995C7.31963 5.71425 7.12589 5.89049 6.94643 6.05373C6.85889 6.13336 6.77475 6.20989 6.69803 6.27232C5.664 7.1712 5.25398 8.61421 5.647 9.92595C6.46402 12.8851 8.62708 15.3162 11.1162 17.0218L11.1182 17.0228C13.0192 18.2994 15.9143 19.4188 17.6933 17.3675C17.6937 17.3671 17.6967 17.3636 17.7021 17.3574C17.7776 17.2707 18.3169 16.6513 18.3804 16.5287C18.5764 16.1419 18.5294 15.676 18.2554 15.3373C18.1907 15.2264 16.929 14.2882 16.0288 13.6188C15.5785 13.284 15.2186 13.0164 15.1443 12.9533C14.9153 12.7489 14.5712 12.6216 14.2602 12.7489C14.0282 12.8413 13.6366 13.2541 13.3174 13.5905C13.1591 13.7573 13.0187 13.9054 12.9242 13.9864C11.6622 13.307 10.6971 12.337 10.0221 11.0693C10.0938 10.9746 10.2355 10.8226 10.3969 10.6494C10.7222 10.3004 11.1276 9.86539 11.2012 9.64036V9.64436C11.3112 9.35376 11.1862 9.01405 10.9951 8.79759L8.99109 6.10096C8.98008 6.08624 8.969 6.07129 8.95782 6.05619ZM7.94906 6.51082C7.98406 6.49478 8.02406 6.49979 8.05306 6.52284L8.05006 6.52084C8.08027 6.55317 9.0643 7.87799 9.68452 8.71301C9.96779 9.09438 10.1752 9.37359 10.1811 9.38081L9.04709 10.6535C8.91209 10.8048 8.88109 11.0222 8.96909 11.2046C9.79911 12.9302 11.0812 14.2159 12.8032 15.0467C12.9952 15.1398 13.2242 15.1008 13.3742 14.9494L14.5562 13.762C14.5675 13.7715 14.9025 14.0231 15.342 14.3533C16.1944 14.9936 17.4401 15.9292 17.4803 15.9676C17.5013 15.9966 17.5063 16.0347 17.4903 16.0688C17.4592 16.1111 17.4339 16.1401 17.3868 16.1938C17.3749 16.2074 17.3615 16.2227 17.3463 16.2401L17.0043 16.632C16.3873 17.3685 15.3963 17.6852 14.4682 17.4447L14.3442 17.4116C13.3952 17.1521 12.4942 16.7402 11.6772 16.19C10.1551 15.1719 8.84909 13.8632 7.83306 12.339C6.88203 10.8268 5.696 8.513 7.32704 7.05094C7.34587 7.03397 7.50211 6.89704 7.62628 6.78822C7.7 6.72362 7.76241 6.66893 7.77806 6.65512C7.80108 6.63527 7.82031 6.6185 7.83711 6.60385C7.88309 6.56376 7.91098 6.53944 7.94906 6.51082Z" fill="#353566"/>
<path fill-rule="evenodd" clip-rule="evenodd" d="M15.6226 1.5H8.37737C7.27643 1.5 6.41948 1.5 5.73209 1.55616C5.03416 1.61318 4.4671 1.73058 3.95704 1.99047C3.11031 2.4219 2.4219 3.11031 1.99047 3.95704C1.73058 4.4671 1.61318 5.03416 1.55616 5.73209C1.5 6.41948 1.5 7.2764 1.5 8.37734V15.6226C1.5 16.7236 1.5 17.5805 1.55616 18.2679C1.61318 18.9658 1.73058 19.5329 1.99047 20.043C2.4219 20.8897 3.11031 21.5781 3.95704 22.0095C4.4671 22.2694 5.03416 22.3868 5.73209 22.4438C6.4195 22.5 7.27645 22.5 8.37744 22.5H15.6225C16.7235 22.5 17.5805 22.5 18.2679 22.4438C18.9658 22.3868 19.5329 22.2694 20.043 22.0095C20.8897 21.5781 21.5781 20.8897 22.0095 20.043C22.2694 19.5329 22.3868 18.9658 22.4438 18.2679C22.5 17.5805 22.5 16.7236 22.5 15.6227V8.37736C22.5 7.27642 22.5 6.41947 22.4438 5.73209C22.3868 5.03416 22.2694 4.4671 22.0095 3.95704C21.5781 3.11031 20.8897 2.4219 20.043 1.99047C19.5329 1.73058 18.9658 1.61318 18.2679 1.55616C17.5805 1.5 16.7236 1.5 15.6226 1.5ZM4.41103 2.88148C4.75662 2.70539 5.17744 2.60481 5.81352 2.55284C6.45545 2.50039 7.27164 2.5 8.4 2.5H15.6C16.7284 2.5 17.5446 2.50039 18.1865 2.55284C18.8226 2.60481 19.2434 2.70539 19.589 2.88148C20.2475 3.21703 20.783 3.75247 21.1185 4.41103C21.2946 4.75662 21.3952 5.17744 21.4472 5.81352C21.4996 6.45545 21.5 7.27164 21.5 8.4V15.6C21.5 16.7284 21.4996 17.5446 21.4472 18.1865C21.3952 18.8226 21.2946 19.2434 21.1185 19.589C20.783 20.2475 20.2475 20.783 19.589 21.1185C19.2434 21.2946 18.8226 21.3952 18.1865 21.4472C17.5446 21.4996 16.7284 21.5 15.6 21.5H8.4C7.27164 21.5 6.45545 21.4996 5.81352 21.4472C5.17744 21.3952 4.75662 21.2946 4.41103 21.1185C3.75247 20.783 3.21703 20.2475 2.88148 19.589C2.70539 19.2434 2.60481 18.8226 2.55284 18.1865C2.50039 17.5446 2.5 16.7284 2.5 15.6V8.4C2.5 7.27164 2.50039 6.45545 2.55284 5.81352C2.60481 5.17744 2.70539 4.75662 2.88148 4.41103C3.21703 3.75247 3.75247 3.21703 4.41103 2.88148Z" fill="#353566"/>
</svg>
