<svg width="24" height="24" viewBox="0 0 24 24" fill="none" xmlns="http://www.w3.org/2000/svg">
<path opacity="0.4" d="M20.5242 8.54403L5.77595 1.27277C3.59159 0.195831 1.263 2.50218 2.22183 4.79294L4.49815 9.91016C4.78979 10.6069 4.78156 11.4002 4.47547 12.0948L2.33474 17.1892C1.32078 19.4901 3.64075 21.8198 5.84932 20.7185L10.6896 18.3047C10.2872 16.8353 10.536 15.293 11.3313 14.2153C12.3753 12.8007 13.9692 12.2961 15.3011 12.5726C15.9068 12.6995 16.4902 12.929 17 13.2828C17.484 12.9469 18.0375 12.7126 18.693 12.5738C19.5523 12.3937 20.4199 12.5495 21.1753 12.9397C22.4593 11.7044 22.2452 9.39253 20.5242 8.54403Z" fill="#353566"/>
<path d="M5.99697 0.824525C3.35381 -0.47862 0.642398 2.31486 1.76052 4.9862L1.76491 4.99637L4.03887 10.1083C4.27521 10.6767 4.26823 11.3252 4.01785 11.8934L4.01444 11.9013L1.87532 16.9918C0.697726 19.6733 3.40112 22.4982 6.07238 21.1661L10.8459 18.7857C10.7238 18.4624 10.6347 18.1325 10.5775 17.8021L5.62611 20.2712C3.88158 21.1412 1.94644 19.3103 2.79221 17.391L2.79562 17.3831L4.93475 12.2925C5.05137 12.0269 5.13115 11.7491 5.17393 11.4668H11C11.2761 11.4668 11.5 11.2429 11.5 10.9668C11.5 10.6907 11.2761 10.4668 11 10.4668H5.17145C5.13131 10.2112 5.06063 9.95941 4.9593 9.71732L4.95491 9.70715L2.68094 4.59521C1.88676 2.68682 3.83069 0.871426 5.55477 1.72144L20.303 8.9927C21.762 9.71202 21.8915 11.7556 20.6675 12.7193C21.0026 12.8382 21.3225 13.0023 21.6183 13.2039C23.0303 11.722 22.7512 9.08477 20.7452 8.09578L5.99697 0.824525Z" fill="#353566"/>
<path fill-rule="evenodd" clip-rule="evenodd" d="M21.8641 14.8092C21.0491 13.7049 19.847 13.3556 18.9021 13.5517L18.9002 13.5521C18.166 13.7076 17.5143 14.0554 17 14.6007C16.4857 14.0554 15.8341 13.7076 15.0999 13.5521L15.0979 13.5517C14.153 13.3556 12.951 13.7049 12.136 14.8092C11.2957 15.9478 11.2186 17.9092 12.3262 19.4463C13.098 20.5175 14.6666 21.9544 15.6741 22.8349C15.6931 22.8516 15.712 22.8682 15.7307 22.8846C16.0094 23.129 16.2574 23.3465 16.5751 23.4404C16.8441 23.5199 17.1559 23.5199 17.425 23.4404C17.7426 23.3465 17.9907 23.129 18.2692 22.8847C18.288 22.8682 18.3069 22.8516 18.326 22.8349C19.3335 21.9543 20.902 20.5175 21.6739 19.4463C22.7815 17.9092 22.7044 15.9477 21.8641 14.8092ZM19.1063 14.5307C19.6641 14.4153 20.4738 14.6095 21.0595 15.403C21.6202 16.1627 21.738 17.6467 20.8626 18.8617C20.1685 19.8248 18.6891 21.1894 17.6679 22.082C17.2983 22.4051 17.2221 22.4576 17.1415 22.4814C17.0575 22.5063 16.9426 22.5063 16.8585 22.4814C16.7779 22.4576 16.7018 22.4051 16.3322 22.082C15.3109 21.1894 13.8315 19.8248 13.1375 18.8617C12.262 17.6467 12.3799 16.1627 12.9406 15.403C13.5262 14.6095 14.336 14.4153 14.8938 14.5307C15.6317 14.6871 16.1513 15.0935 16.6039 15.6812C16.6985 15.8041 16.8449 15.8761 17 15.8761C17.1552 15.8761 17.3015 15.8041 17.3962 15.6812C17.8487 15.0935 18.3684 14.6871 19.1063 14.5307Z" fill="#353566"/>
</svg>
