<svg width="24" height="24" viewBox="0 0 24 24" fill="none" xmlns="http://www.w3.org/2000/svg">
<path opacity="0.4" d="M4.8723 1.20642L20.8255 9.11065C21.9769 9.68109 22.2782 11.0478 21.7294 12.035C20.7 11.3209 19.3352 11.3217 18.3066 12.0372C18.117 12.169 17.9282 12.3467 17.662 12.615L14.0135 16.2645L4.87231 20.7936C4.10716 21.1727 3.18658 21.0201 2.58329 20.4142C2.06328 19.8919 1.8722 19.1242 2.08633 18.4176L4.33402 11L2.08634 3.58237C1.87222 2.87575 2.06329 2.10812 2.5833 1.58584C3.18658 0.979917 4.10716 0.827324 4.8723 1.20642Z" fill="#353566"/>
<path d="M2.22898 1.23357C2.98365 0.475601 4.13619 0.284206 5.09428 0.758907L21.0475 8.66313C22.4987 9.38212 22.8588 11.1219 22.1279 12.3475C21.9975 12.2338 21.864 12.129 21.7316 12.0369C21.5918 11.9398 21.4459 11.8559 21.2954 11.7851C21.7099 11.0324 21.4792 9.99305 20.6035 9.55918L4.65033 1.65495C4.07814 1.37146 3.38953 1.48525 2.93763 1.93913C2.54778 2.33069 2.40399 2.90699 2.56486 3.43788L4.28885 9.12728L11.8634 10.7561C12.1266 10.8127 12.1266 11.1883 11.8634 11.2449L4.28886 12.8737L2.56485 18.5631C2.40398 19.094 2.54776 19.6703 2.93762 20.0619C3.38953 20.5158 4.07814 20.6296 4.65034 20.3461L15.1188 15.1593L12.908 17.3707L5.0943 21.2421C4.13619 21.7168 2.98364 21.5254 2.22897 20.7674C1.57881 20.1144 1.34045 19.1555 1.60782 18.2731L3.81158 11.0005L1.60783 3.72788C1.34046 2.84552 1.57882 1.88657 2.22898 1.23357Z" fill="#353566"/>
<path fill-rule="evenodd" clip-rule="evenodd" d="M18.8776 12.8596C19.5638 12.3823 20.4745 12.3821 21.1609 12.8591C21.3081 12.9614 21.4496 13.1029 21.6405 13.2938L21.7066 13.3599C21.8976 13.5507 22.0393 13.6922 22.1417 13.8394C22.6192 14.5257 22.6194 15.4367 22.1422 16.1232C22.0398 16.2704 21.8982 16.4119 21.7072 16.6028L15.7308 22.5804C15.6643 22.6469 15.5804 22.6933 15.4888 22.7143L12.1116 23.4877C11.9438 23.5261 11.7681 23.4755 11.6464 23.3538C11.5247 23.232 11.4742 23.0562 11.5127 22.8885L12.287 19.5151C12.308 19.4236 12.3543 19.3398 12.4207 19.2734L18.3981 13.2945C18.5889 13.1036 18.7304 12.962 18.8776 12.8596ZM20.5902 13.6803C20.247 13.4418 19.7917 13.4419 19.4486 13.6805C19.3846 13.725 19.3107 13.7961 19.0723 14.0346L18.4168 14.6902L20.3113 16.5847L20.967 15.9288C21.2054 15.6903 21.2766 15.6164 21.3211 15.5524C21.5597 15.2091 21.5596 14.7537 21.3208 14.4105C21.2763 14.3465 21.2052 14.2726 20.9666 14.0342C20.7282 13.7958 20.6542 13.7247 20.5902 13.6803ZM19.6042 17.2918L17.7098 15.3974L13.2295 19.8788L12.6658 22.3349L15.1253 21.7716L19.6042 17.2918Z" fill="#353566"/>
</svg>
