<svg width="24" height="24" viewBox="0 0 24 24" fill="none" xmlns="http://www.w3.org/2000/svg">
<path opacity="0.4" d="M20.5242 8.54403L5.77595 1.27277C3.59159 0.195831 1.263 2.50218 2.22183 4.79294L4.49815 9.91016C4.78979 10.6069 4.78156 11.4002 4.47547 12.0948L2.33474 17.1892C1.32078 19.4901 3.64075 21.8198 5.84932 20.7185L11.4006 17.9502C11.028 17.0681 10.7731 16.1966 11.2982 15.2886L11.92 14.2133C12.4548 13.2883 13.3623 13.0809 14.335 12.962C14.9238 12.1807 15.5564 11.5 16.6282 11.5H17.8718C18.9436 11.5 19.5763 12.1807 20.165 12.962C20.4474 12.9965 20.7243 13.0385 20.9882 13.1034C22.4759 11.9207 22.3246 9.43164 20.5242 8.54403Z" fill="#353566"/>
<path d="M1.76052 4.9862C0.642398 2.31486 3.35381 -0.47862 5.99697 0.824525L20.7452 8.09578C22.7887 9.10325 23.0401 11.8211 21.5374 13.2857C21.1489 13.115 20.7124 13.0325 20.2595 12.9739L20.2841 12.9616C21.9041 12.1538 21.8999 9.78001 20.303 8.9927L5.55477 1.72144C3.83069 0.871426 1.88676 2.68682 2.68094 4.59521L4.95941 9.71727C5.06074 9.95936 5.13131 10.2112 5.17145 10.4668H10.9999C11.2761 10.4668 11.4999 10.6907 11.4999 10.9668C11.4999 11.2429 11.2761 11.4668 10.9999 11.4668H5.17393C5.13115 11.7491 5.05137 12.0269 4.93475 12.2925L2.79228 17.391C1.9465 19.3103 3.88158 21.1412 5.62611 20.2712L11.2176 17.4829C11.2783 17.655 11.348 17.8273 11.4218 17.9999C11.3337 18.2062 11.2514 18.4118 11.1832 18.6175L6.07238 21.1661C3.40112 22.4982 0.697726 19.6733 1.87532 16.9918L4.01778 11.8934C4.26816 11.3252 4.27521 10.6767 4.03887 10.1083L1.76491 4.99637L1.76052 4.9862Z" fill="#353566"/>
<path fill-rule="evenodd" clip-rule="evenodd" d="M17.2499 16.25C16.2834 16.25 15.4999 17.0335 15.4999 18C15.4999 18.9665 16.2834 19.75 17.2499 19.75C18.2164 19.75 18.9999 18.9665 18.9999 18C18.9999 17.0335 18.2164 16.25 17.2499 16.25ZM16.4999 18C16.4999 17.5858 16.8357 17.25 17.2499 17.25C17.6642 17.25 17.9999 17.5858 17.9999 18C17.9999 18.4142 17.6642 18.75 17.2499 18.75C16.8357 18.75 16.4999 18.4142 16.4999 18Z" fill="#353566"/>
<path fill-rule="evenodd" clip-rule="evenodd" d="M12.1845 20.212C11.8046 19.5529 12.0297 18.7096 12.6886 18.3285C12.9408 18.1827 12.9408 17.8172 12.6886 17.6714C12.0297 17.2903 11.8046 16.447 12.1845 15.7879L12.8042 14.7126C13.1844 14.0529 14.0272 13.8263 14.6866 14.2076C14.937 14.3525 15.2526 14.1723 15.2526 13.8791C15.2526 13.1183 15.8685 12.5 16.6302 12.5H17.8697C18.6313 12.5 19.2473 13.1183 19.2473 13.8792C19.2473 14.1724 19.5629 14.3525 19.8133 14.2077C20.4727 13.8263 21.3155 14.053 21.6957 14.7126L22.3154 15.788C22.6953 16.4471 22.4702 17.2903 21.8113 17.6714C21.5592 17.8172 21.5592 18.1826 21.8113 18.3285C22.4702 18.7096 22.6953 19.5528 22.3154 20.2119L21.6957 21.2872C21.3155 21.9469 20.4727 22.1736 19.8133 21.7922C19.563 21.6474 19.2473 21.8275 19.2473 22.1208C19.2473 22.8816 18.6313 23.5 17.8696 23.5H16.6302C15.8685 23.5 15.2526 22.8817 15.2526 22.1208C15.2526 21.8275 14.9369 21.6474 14.6865 21.7922C14.0271 22.1736 13.1844 21.9469 12.8042 21.2873L12.1845 20.212ZM13.1892 19.1942C13.0086 19.2986 12.9461 19.5308 13.0509 19.7127L13.6706 20.788C13.7751 20.9693 14.0058 21.0308 14.1859 20.9266C15.1056 20.3946 16.2526 21.0605 16.2526 22.1208C16.2526 22.3311 16.4225 22.5 16.6302 22.5H17.8696C18.0773 22.5 18.2473 22.3311 18.2473 22.1208C18.2473 21.0605 19.3942 20.3946 20.314 20.9265C20.4941 21.0307 20.7248 20.9693 20.8293 20.7879L21.449 19.7126C21.5538 19.5307 21.4913 19.2986 21.3107 19.1941C20.3927 18.6632 20.3927 17.3367 21.3107 16.8058C21.4913 16.7013 21.5538 16.4692 21.449 16.2873L20.8293 15.212C20.7248 15.0306 20.4941 14.9692 20.314 15.0733C19.3943 15.6053 18.2473 14.9395 18.2473 13.8792C18.2473 13.6689 18.0774 13.5 17.8697 13.5H16.6302C16.4225 13.5 16.2526 13.6689 16.2526 13.8791C16.2526 14.9395 15.1056 15.6052 14.1859 15.0733C14.0058 14.9691 13.7751 15.0306 13.6706 15.2119L13.0509 16.2872C12.9461 16.4691 13.0086 16.7013 13.1892 16.8057C14.1072 17.3367 14.1072 18.6632 13.1892 19.1942Z" fill="#353566"/>
</svg>
