<svg width="24" height="24" viewBox="0 0 24 24" fill="none" xmlns="http://www.w3.org/2000/svg">
<path d="M20.7059 18.611L18.6417 15.038C18.8668 14.5 18.9519 13.909 18.8368 13.319L18.7958 13.111C18.7568 12.913 18.8398 12.713 19.0069 12.601L19.183 12.483C20.0115 11.926 20.5057 10.998 20.5057 10C20.5057 9.002 20.0115 8.074 19.183 7.516L19.0079 7.398C18.8408 7.285 18.7578 7.085 18.7968 6.887L18.8378 6.679C19.0289 5.7 18.7217 4.694 18.0163 3.989C17.3099 3.283 16.3024 2.976 15.3248 3.168L15.1167 3.209C14.9206 3.248 14.7185 3.165 14.6064 2.998L14.4874 2.822C13.93 1.994 13.0015 1.5 12.003 1.5C11.0044 1.5 10.0759 1.994 9.51857 2.822L9.4005 2.998C9.28844 3.165 9.08933 3.248 8.88922 3.209L8.6811 3.168C7.70455 2.977 6.69598 3.284 5.98959 3.989C5.28319 4.695 4.97602 5.7 5.16813 6.679L5.20915 6.887C5.24817 7.085 5.16512 7.285 4.99803 7.397L4.82193 7.516C3.99347 8.073 3.49919 9.001 3.49919 9.999C3.49919 10.997 3.99347 11.925 4.82193 12.482L4.99703 12.6C5.16412 12.713 5.24717 12.913 5.20815 13.111L5.16713 13.319C5.05206 13.909 5.13711 14.5 5.36224 15.038L3.29908 18.61C3.09196 18.968 2.96689 19.184 3.00991 19.46C3.04693 19.704 3.19102 19.914 3.40714 20.037C3.65328 20.176 3.89841 20.135 4.30464 20.069L6.42083 19.723L7.21928 21.664C7.37136 22.036 7.46442 22.26 7.70655 22.396C7.82862 22.464 7.9627 22.499 8.09877 22.499C8.19883 22.499 8.29888 22.48 8.39294 22.442C8.65308 22.339 8.77415 22.129 8.97526 21.781L10.9864 18.299C11.3096 18.416 11.6468 18.498 12.001 18.498C12.3552 18.498 12.6924 18.416 13.0155 18.299L15.0277 21.781C15.2278 22.129 15.3488 22.339 15.61 22.443C15.705 22.481 15.8051 22.5 15.9042 22.5C16.0392 22.5 16.1743 22.465 16.2954 22.397C16.5385 22.261 16.6296 22.037 16.7837 21.664L17.5821 19.723L19.6983 20.069C20.1035 20.135 20.3507 20.175 20.5968 20.037C20.8119 19.915 20.957 19.705 20.993 19.463C21.036 19.184 20.911 18.968 20.7049 18.612L20.7059 18.611ZM8.12879 21.246L7.33935 19.327C7.27431 19.169 7.22328 19.044 7.10721 18.929C7.00416 18.827 6.87508 18.755 6.73601 18.722C6.57592 18.682 6.44484 18.704 6.27475 18.732L4.18457 19.073L5.96858 15.984C5.97558 15.991 5.98058 16.001 5.98759 16.008C6.69298 16.714 7.70155 17.022 8.6791 16.829L8.88721 16.788C9.08733 16.749 9.28544 16.832 9.3975 16.999L9.51557 17.175C9.68166 17.421 9.88778 17.627 10.1109 17.81L8.12679 21.244L8.12879 21.246ZM12.001 17.499C11.3266 17.499 10.7232 17.178 10.347 16.619L10.228 16.443C9.94581 16.024 9.47755 15.78 8.98527 15.78C8.88922 15.78 8.79216 15.789 8.69511 15.808L8.48699 15.849C7.82462 15.978 7.17125 15.779 6.69398 15.302C6.21671 14.825 6.0176 14.172 6.14668 13.51L6.1877 13.303C6.30376 12.71 6.05462 12.108 5.55234 11.77L5.37724 11.652C4.81693 11.276 4.49675 10.673 4.49675 9.999C4.49675 9.325 4.81793 8.722 5.37724 8.345L5.55334 8.226C6.05462 7.889 6.30376 7.287 6.1877 6.694L6.14668 6.486C6.0176 5.824 6.21671 5.171 6.69398 4.694C7.17125 4.217 7.82462 4.016 8.48699 4.147L8.69411 4.188C9.29244 4.305 9.88978 4.055 10.228 3.553L10.346 3.377C10.7222 2.818 11.3256 2.497 12 2.497C12.6743 2.497 13.2777 2.818 13.6549 3.377L13.773 3.553C14.1091 4.054 14.7095 4.303 15.3058 4.188L15.5139 4.147C16.1753 4.016 16.8297 4.217 17.3069 4.694C17.7842 5.171 17.9833 5.824 17.8543 6.486L17.8132 6.693C17.6972 7.286 17.9463 7.888 18.4486 8.226L18.6237 8.344C19.184 8.721 19.5042 9.324 19.5042 9.998C19.5042 10.672 19.183 11.275 18.6237 11.651L18.4476 11.77C17.9463 12.107 17.6972 12.709 17.8132 13.302L17.8543 13.51C17.9833 14.172 17.7842 14.825 17.3069 15.302C16.8297 15.779 16.1753 15.978 15.5139 15.849L15.3068 15.808C14.7095 15.69 14.1111 15.941 13.773 16.443L13.6549 16.618C13.2777 17.178 12.6753 17.498 12 17.498L12.001 17.499ZM17.7252 18.732C17.5581 18.705 17.426 18.682 17.2679 18.722C17.1278 18.756 16.9988 18.828 16.8957 18.93C16.7786 19.045 16.7276 19.17 16.6636 19.327L15.8741 21.245L13.89 17.811C14.1142 17.628 14.3203 17.422 14.4864 17.176L14.6044 17C14.7165 16.833 14.9156 16.75 15.1157 16.789L15.3238 16.83C16.3024 17.023 17.3099 16.714 18.0153 16.009C18.0223 16.002 18.0273 15.992 18.0344 15.985L19.8184 19.074L17.7252 18.732ZM16.0042 9.999C16.0042 7.793 14.2092 5.999 12.002 5.999C9.79472 5.999 7.99972 7.793 7.99972 9.999C7.99972 12.205 9.79472 13.999 12.002 13.999C14.2092 13.999 16.0042 12.205 16.0042 9.999ZM12.002 12.999C10.347 12.999 9.00028 11.653 9.00028 9.999C9.00028 8.345 10.347 6.999 12.002 6.999C13.6569 6.999 15.0037 8.345 15.0037 9.999C15.0037 11.653 13.6569 12.999 12.002 12.999Z" fill="#353566"/>
</svg>
