<svg width="24" height="24" viewBox="0 0 24 24" fill="none" xmlns="http://www.w3.org/2000/svg">
<path fill-rule="evenodd" clip-rule="evenodd" d="M12.1075 1.99041C11.7678 1.61851 11.2642 1.4419 10.7667 1.52022C10.3924 1.57914 10.0848 1.85213 9.81867 2.1326C9.53764 2.4288 9.1992 2.85203 8.77569 3.38165L2.59217 11.1143C2.27287 11.5136 2.01165 11.8402 1.83267 12.1111C1.65585 12.3786 1.50031 12.6749 1.5 13.0047C1.49957 13.4615 1.70729 13.8935 2.0643 14.1785C2.32203 14.3842 2.65057 14.4477 2.96997 14.4767C3.29327 14.5061 3.71151 14.5061 4.22276 14.5061H6.39992C6.6882 14.5061 6.87434 14.5065 7.01601 14.5181C7.15184 14.5292 7.2022 14.548 7.22692 14.5606C7.321 14.6085 7.39749 14.685 7.44543 14.7791C7.45802 14.8038 7.47686 14.8542 7.48796 14.99C7.49953 15.1317 7.49992 15.3178 7.49992 15.6061V19.3229C7.49992 20.001 7.49991 20.5429 7.53441 20.9498C7.56708 21.335 7.63685 21.7404 7.89234 22.0201C8.232 22.392 8.73564 22.5686 9.23319 22.4903C9.60742 22.4314 9.91507 22.1584 10.1812 21.8779C10.4622 21.5817 10.8006 21.1585 11.2241 20.6289L17.4076 12.8962C17.727 12.497 17.9882 12.1703 18.1672 11.8994C18.344 11.6319 18.4995 11.3356 18.4998 11.0058C18.5003 10.5491 18.2926 10.117 17.9355 9.83205C17.6778 9.62634 17.3493 9.56279 17.0299 9.53377C16.7066 9.50441 16.2883 9.50441 15.7771 9.50442H13.5999C13.3116 9.50442 13.1255 9.50403 12.9838 9.49246C12.848 9.48136 12.7977 9.46252 12.7729 9.44992C12.6788 9.40199 12.6024 9.3255 12.5544 9.23142C12.5418 9.20669 12.523 9.15633 12.5119 9.0205C12.5003 8.87883 12.4999 8.6927 12.4999 8.40442V4.68759C12.4999 4.00946 12.4999 3.46756 12.4654 3.06073C12.4328 2.67549 12.363 2.27015 12.1075 1.99041ZM10.9222 2.50806C11.0879 2.48197 11.2556 2.54071 11.3688 2.66444C11.3701 2.66605 11.388 2.68941 11.4091 2.76276C11.433 2.84587 11.4539 2.96752 11.469 3.14523C11.4995 3.50459 11.4999 4.00371 11.4999 4.71301V8.4237C11.4999 8.68727 11.4999 8.91465 11.5152 9.10193C11.5314 9.29961 11.567 9.49622 11.6634 9.68541C11.8072 9.96765 12.0367 10.1971 12.3189 10.3409C12.5081 10.4373 12.7047 10.473 12.9024 10.4891C13.0897 10.5044 13.3171 10.5044 13.5806 10.5044H15.7518C16.2945 10.5044 16.6669 10.5049 16.9394 10.5297C17.2212 10.5553 17.2958 10.6009 17.3117 10.6136C17.4307 10.7086 17.5 10.8526 17.4998 11.0049C17.4998 11.0253 17.4889 11.1121 17.3329 11.3481C17.182 11.5764 16.9498 11.8676 16.6109 12.2914L10.459 19.9845C10.016 20.5385 9.70398 20.928 9.45574 21.1896C9.33299 21.319 9.24068 21.4009 9.17008 21.4509C9.10654 21.4959 9.07866 21.5022 9.0777 21.5024C8.91201 21.5285 8.74426 21.4698 8.63104 21.3461C8.62971 21.3444 8.61185 21.321 8.59076 21.2477C8.56682 21.1646 8.54591 21.043 8.53084 20.8653C8.50036 20.5059 8.49992 20.0068 8.49992 19.2975V15.5868C8.49993 15.3233 8.49994 15.0959 8.48464 14.9086C8.46849 14.7109 8.43283 14.5143 8.33643 14.3251C8.19262 14.0429 7.96315 13.8134 7.68091 13.6696C7.49172 13.5732 7.29511 13.5375 7.09744 13.5214C6.91015 13.5061 6.68278 13.5061 6.41921 13.5061H4.24805C3.70535 13.5061 3.33296 13.5056 3.06043 13.4808C2.77869 13.4552 2.70402 13.4096 2.6881 13.3969C2.5691 13.3019 2.49986 13.1579 2.5 13.0056C2.50002 12.9852 2.51099 12.8984 2.66696 12.6624C2.81784 12.4341 3.05002 12.143 3.38895 11.7191L9.54083 4.02602C9.9838 3.47206 10.2959 3.08252 10.5441 2.82089C10.6669 2.69152 10.7592 2.60958 10.8298 2.55962C10.8934 2.51458 10.9213 2.50826 10.9222 2.50806Z" fill="#353566"/>
<path fill-rule="evenodd" clip-rule="evenodd" d="M19.4596 14.8029C19.3808 14.6191 19.2 14.4999 19 14.4999C18.8 14.4999 18.6192 14.6191 18.5404 14.8029L15.5404 21.8029C15.4317 22.0567 15.5492 22.3507 15.803 22.4594C16.0569 22.5682 16.3508 22.4507 16.4596 22.1968L17.3297 20.1665H20.6703L21.5404 22.1968C21.6492 22.4507 21.9432 22.5682 22.197 22.4594C22.4508 22.3507 22.5684 22.0567 22.4596 21.8029L19.4596 14.8029ZM20.2417 19.1665H17.7583L19 16.2692L20.2417 19.1665Z" fill="#353566"/>
</svg>
