<svg width="24" height="24" viewBox="0 0 24 24" fill="none" xmlns="http://www.w3.org/2000/svg">
<path d="M6 8.25C5.58579 8.25 5.25 8.58579 5.25 9C5.25 9.41421 5.58579 9.75 6 9.75C6.41421 9.75 6.7501 9.41421 6.7501 9C6.7501 8.58579 6.41421 8.25 6 8.25Z" fill="#353566"/>
<path d="M7.25 6C7.25 5.58579 7.58579 5.25 8 5.25C8.41421 5.25 8.7501 5.58579 8.7501 6C8.7501 6.41421 8.41431 6.75 8.0001 6.75C7.58589 6.75 7.25 6.41421 7.25 6Z" fill="#353566"/>
<path d="M10 8.25C9.58579 8.25 9.25 8.58579 9.25 9C9.25 9.41421 9.58579 9.75 10 9.75C10.4142 9.75 10.7501 9.41421 10.7501 9C10.7501 8.58579 10.4142 8.25 10 8.25Z" fill="#353566"/>
<path fill-rule="evenodd" clip-rule="evenodd" d="M2 11.1667C2 5.82791 6.32791 1.5 11.6667 1.5H12.3333C17.6721 1.5 22 5.82792 22 11.1667C22 11.903 21.403 12.5 20.6667 12.5H3.33333C2.59695 12.5 2 11.903 2 11.1667ZM11.6667 2.5C6.8802 2.5 3 6.3802 3 11.1667C3 11.3508 3.14924 11.5 3.33333 11.5H20.6667C20.8508 11.5 21 11.3508 21 11.1667C21 6.3802 17.1198 2.5 12.3333 2.5H11.6667Z" fill="#353566"/>
<path d="M2 14C1.72386 14 1.5 14.2239 1.5 14.5C1.5 14.7761 1.72386 15 2 15C2.61978 15 2.90945 15.2681 3.31745 15.6604L3.33038 15.6729C3.75249 16.0788 4.29436 16.6 5.328 16.6C6.3613 16.6 6.90364 16.0792 7.32623 15.6733L7.33941 15.6607C7.748 15.2684 8.03848 15 8.659 15C9.27947 15 9.56967 15.2683 9.97834 15.6607L9.99106 15.6729C10.4139 16.079 10.9565 16.6 11.991 16.6C13.0253 16.6 13.5676 16.0792 13.9903 15.6732L14.0034 15.6607C14.4119 15.2685 14.7024 15 15.324 15C15.9458 15 16.2368 15.2687 16.6463 15.661L16.6588 15.673C17.0827 16.0792 17.6262 16.6 18.662 16.6C19.6977 16.6 20.2407 16.0794 20.6642 15.6732L20.677 15.6609C21.0861 15.2688 21.3771 15 22 15C22.2761 15 22.5 14.7761 22.5 14.5C22.5 14.2239 22.2761 14 22 14C20.9643 14 20.4213 14.5206 19.9978 14.9268L19.985 14.9391C19.5759 15.3312 19.2849 15.6 18.662 15.6C18.039 15.6 17.7474 15.3311 17.3382 14.939L17.3249 14.9262C16.9014 14.5204 16.3584 14 15.324 14C14.289 14 13.7464 14.521 13.3235 14.9272L13.3108 14.9393C12.9022 15.3316 12.612 15.6 11.991 15.6C11.3699 15.6 11.0794 15.3315 10.6709 14.9393L10.6578 14.9267C10.2351 14.5208 9.6928 14 8.659 14C7.62496 14 7.08241 14.521 6.65962 14.9271L6.64684 14.9393C6.2381 15.3318 5.94792 15.6 5.328 15.6C4.70822 15.6 4.41855 15.3319 4.01055 14.9396L3.99762 14.9271C3.57551 14.5212 3.03364 14 2 14Z" fill="#353566"/>
<path fill-rule="evenodd" clip-rule="evenodd" d="M2.5 18C2.22386 18 2 18.2239 2 18.5V19.5C2 21.1569 3.34315 22.5 5 22.5H19C20.6569 22.5 22 21.1569 22 19.5V18.5C22 18.2239 21.7761 18 21.5 18H2.5ZM3 19.5V19H21V19.5C21 20.6046 20.1046 21.5 19 21.5H5C3.89543 21.5 3 20.6046 3 19.5Z" fill="#353566"/>
</svg>
