<svg width="24" height="24" viewBox="0 0 24 24" fill="none" xmlns="http://www.w3.org/2000/svg">
<path d="M22.188 3.536C22 3.461 21.784 3.505 21.641 3.651C21.623 3.669 19.842 5.478 17.519 5.499C16.397 5.504 15.506 5.272 14.591 5.021C13.571 4.741 12.514 4.445 11.042 4.5C7.95302 4.601 5.60002 6.727 4.63902 8.788C3.84902 10.481 3.79302 12.215 4.46802 13.951C1.91202 16.706 1.50902 19.889 1.50302 19.944C1.47302 20.218 1.67002 20.465 1.94502 20.496C1.96402 20.498 1.98202 20.499 2.00102 20.499C2.25202 20.499 2.46902 20.31 2.49802 20.054C2.50302 20.006 2.84102 17.348 4.94302 14.921C6.21602 17.169 8.88602 18.495 11.832 18.495C12.795 18.495 13.787 18.354 14.766 18.058C22.506 15.72 22.503 7.605 22.501 4.14V3.998C22.501 3.794 22.377 3.611 22.189 3.535L22.188 3.536ZM14.476 17.102C10.865 18.191 7.09102 16.969 5.70102 14.255C5.68702 14.228 5.67802 14.201 5.66402 14.174C7.38102 12.553 10.003 11.182 14.023 10.999C14.299 10.986 14.513 10.752 14.5 10.477C14.487 10.201 14.226 9.986 13.978 10C9.88302 10.186 7.12402 11.534 5.26302 13.178C4.84202 11.837 4.93102 10.53 5.54602 9.211C6.37802 7.426 8.41102 5.586 11.076 5.499C11.175 5.496 11.272 5.495 11.367 5.495C12.539 5.495 13.409 5.734 14.327 5.986C15.267 6.244 16.245 6.496 17.529 6.5C19.226 6.484 20.644 5.693 21.496 5.074C21.454 8.819 20.931 15.153 14.475 17.103L14.476 17.102Z" fill="#353566"/>
</svg>
