<svg width="24" height="24" viewBox="0 0 24 24" fill="none" xmlns="http://www.w3.org/2000/svg">
<path d="M22.496 19.3518C22.491 19.2468 22.466 19.1478 22.455 19.0448C22.456 19.0288 22.464 19.0158 22.464 18.9998C22.464 18.9298 22.449 18.8628 22.422 18.8018C22.086 16.6598 20.404 14.9398 18.216 14.6238C18.118 14.6098 18.005 14.5978 17.699 14.5668C17.512 14.5418 17.357 14.4158 17.278 14.1838L14.977 6.8508C14.936 6.7198 14.843 6.6118 14.719 6.5518C14.596 6.4908 14.452 6.4858 14.324 6.5328C12.812 7.0988 11.208 6.9338 10.029 6.0908C9.317 5.5818 8.902 4.9088 8.92 4.2908C8.954 3.1378 8.96 2.8588 8.897 2.6308C8.855 2.4738 8.825 2.4118 8.689 2.2428C8.572 2.0948 8.416 1.9858 8.105 1.7698L7.845 1.5888C7.636 1.4438 7.348 1.4798 7.182 1.6718C7.183 1.6728 2.841 6.6848 2.698 6.8538C2.698 6.8538 2.696 6.8548 2.695 6.8558C2.693 6.8578 2.693 6.8598 2.692 6.8608C2.088 7.5718 1.746 8.0378 1.603 8.5778C1.445 9.1718 1.473 9.7908 1.683 10.3698C1.92 11.0228 2.429 11.5138 3.443 12.4928L12.042 20.7918C12.668 21.3958 12.982 21.6998 13.378 21.9358C13.73 22.1458 14.111 22.2998 14.513 22.3938C14.964 22.4998 15.402 22.4998 16.275 22.4998H19.861C20.008 22.4998 20.081 22.4998 20.14 22.4958C21.414 22.4258 22.427 21.4128 22.497 20.1418C22.501 20.0798 22.501 20.0008 22.501 19.8448C22.501 19.5848 22.501 19.4558 22.496 19.3518ZM7.645 2.6668C7.77 2.7558 7.886 2.8438 7.942 2.9178C7.958 3.0338 7.942 3.6028 7.921 4.2608C7.894 5.2128 8.465 6.1998 9.449 6.9028C10.768 7.8448 12.503 8.1048 14.176 7.6318L14.775 9.5408L12.88 10.0148C12.612 10.0818 12.449 10.3528 12.516 10.6208C12.573 10.8488 12.776 10.9998 13 10.9998C13.04 10.9998 13.081 10.9948 13.122 10.9848L15.075 10.4968L15.576 12.0918L13.88 12.5158C13.612 12.5828 13.449 12.8538 13.516 13.1218C13.573 13.3498 13.776 13.5008 14 13.5008C14.04 13.5008 14.081 13.4958 14.122 13.4858L15.875 13.0478L16.353 14.5708C16.541 15.1038 17.006 15.4828 17.566 15.5578L17.688 15.5708C17.883 15.5908 17.985 15.6008 18.073 15.6128C19.664 15.8438 20.922 17.0038 21.341 18.4998H16.428C15.778 18.4998 15.154 18.2468 14.687 17.7938L3.74 7.1738C3.803 7.1008 7.645 2.6668 7.645 2.6668ZM21.498 20.0838C21.456 20.8478 20.848 21.4558 20.081 21.4978C20.032 21.4998 19.975 21.4998 19.86 21.4998H16.274C15.479 21.4998 15.079 21.4998 14.741 21.4198C14.44 21.3488 14.154 21.2338 13.89 21.0758C13.593 20.8988 13.306 20.6228 12.732 20.0688L4.136 11.7728C3.233 10.9008 2.78 10.4638 2.622 10.0288C2.482 9.6428 2.464 9.2308 2.569 8.8348C2.637 8.5788 2.815 8.3018 3.097 7.9438L13.991 18.5118C14.644 19.1458 15.518 19.4998 16.428 19.4998H21.499C21.5 19.5818 21.501 19.6798 21.501 19.8448C21.501 19.9698 21.501 20.0318 21.499 20.0838H21.498ZM10.5 21.9998C10.5 22.2758 10.276 22.4998 10 22.4998H2C1.724 22.4998 1.5 22.2758 1.5 21.9998C1.5 21.7238 1.724 21.4998 2 21.4998H10C10.276 21.4998 10.5 21.7238 10.5 21.9998ZM1.5 17.9998C1.5 17.7238 1.724 17.4998 2 17.4998H5C5.276 17.4998 5.5 17.7238 5.5 17.9998C5.5 18.2758 5.276 18.4998 5 18.4998H2C1.724 18.4998 1.5 18.2768 1.5 17.9998Z" fill="#353566"/>
</svg>
