<svg width="24" height="24" viewBox="0 0 24 24" fill="none" xmlns="http://www.w3.org/2000/svg">
<path d="M4.75 5C5.02614 5 5.25 5.22386 5.25 5.5V8.5C5.25 8.77614 5.02614 9 4.75 9C4.47386 9 4.25 8.77614 4.25 8.5V5.5C4.25 5.22386 4.47386 5 4.75 5Z" fill="#353566"/>
<path d="M7.75 5.5C7.75 5.22386 7.52614 5 7.25 5C6.97386 5 6.75 5.22386 6.75 5.5V8.5C6.75 8.77614 6.97386 9 7.25 9C7.52614 9 7.75 8.77614 7.75 8.5V5.5Z" fill="#353566"/>
<path fill-rule="evenodd" clip-rule="evenodd" d="M6 1.5C2.96243 1.5 0.5 3.96243 0.5 7C0.5 10.0376 2.96243 12.5 6 12.5C9.03757 12.5 11.5 10.0376 11.5 7C11.5 3.96243 9.03757 1.5 6 1.5ZM1.5 7C1.5 4.51472 3.51472 2.5 6 2.5C8.48528 2.5 10.5 4.51472 10.5 7C10.5 9.48528 8.48528 11.5 6 11.5C3.51472 11.5 1.5 9.48528 1.5 7Z" fill="#353566"/>
<path fill-rule="evenodd" clip-rule="evenodd" d="M13.4185 3.5C13.1423 3.5 12.9185 3.72386 12.9185 4C12.9185 4.27614 13.1423 4.5 13.4185 4.5H13.5C14.6046 4.5 15.5 5.39543 15.5 6.5V18.5H10.0002C9.54408 17.8928 8.81791 17.5 8 17.5C7.18209 17.5 6.45592 17.8928 5.99982 18.5H4.5C3.94772 18.5 3.5 18.0523 3.5 17.5V14.4185C3.5 14.1423 3.27614 13.9185 3 13.9185C2.72386 13.9185 2.5 14.1423 2.5 14.4185V17.5C2.5 18.6046 3.39543 19.5 4.5 19.5H5.55001C5.51721 19.6616 5.5 19.8288 5.5 20C5.5 21.3807 6.61929 22.5 8 22.5C9.38071 22.5 10.5 21.3807 10.5 20C10.5 19.8288 10.4828 19.6616 10.45 19.5H15.55C15.5172 19.6616 15.5 19.8288 15.5 20C15.5 21.3807 16.6193 22.5 18 22.5C19.3807 22.5 20.5 21.3807 20.5 20C20.5 19.8288 20.4828 19.6616 20.45 19.5H21.5C22.6046 19.5 23.5 18.6046 23.5 17.5V13C23.5 12.9286 23.4847 12.8581 23.4552 12.7931L21.3549 8.17239C21.0303 7.45841 20.3184 7 19.5341 7H16.5V6.5C16.5 4.84315 15.1569 3.5 13.5 3.5H13.4185ZM16.5 12.5V8H19.5341C19.9263 8 20.2822 8.2292 20.4445 8.5862L22.2235 12.5H16.5ZM16.5 13.5H22.5V17.5C22.5 18.0523 22.0523 18.5 21.5 18.5H20.0002C19.5441 17.8928 18.8179 17.5 18 17.5C17.4372 17.5 16.9178 17.686 16.5 17.9998V13.5ZM6.5 20C6.5 19.1716 7.17157 18.5 8 18.5C8.82843 18.5 9.5 19.1716 9.5 20C9.5 20.8284 8.82843 21.5 8 21.5C7.17157 21.5 6.5 20.8284 6.5 20ZM16.5 20C16.5 19.1716 17.1716 18.5 18 18.5C18.8284 18.5 19.5 19.1716 19.5 20C19.5 20.8284 18.8284 21.5 18 21.5C17.1716 21.5 16.5 20.8284 16.5 20Z" fill="#353566"/>
</svg>
