<svg width="24" height="24" viewBox="0 0 24 24" fill="none" xmlns="http://www.w3.org/2000/svg">
<g clip-path="url(#clip0_11005_389)">
<path opacity="0.4" d="M23 12C23 18.0751 18.0751 23 12 23C5.92487 23 1 18.0751 1 12C1 5.92487 5.92487 1 12 1C18.0751 1 23 5.92487 23 12Z" fill="#353566"/>
<path d="M8.84992 10.0238C9.04715 9.83051 9.05035 9.51395 8.85707 9.31672C8.66379 9.1195 8.34722 9.1163 8.15 9.30958L5.81666 11.5962C5.72194 11.6891 5.66798 11.8157 5.66665 11.9484C5.66532 12.081 5.71674 12.2087 5.80959 12.3034L8.14287 14.6834C8.33619 14.8806 8.65276 14.8837 8.84995 14.6904C9.04713 14.4971 9.05027 14.1805 8.85695 13.9833L6.87376 11.9604L8.84992 10.0238Z" fill="#353566"/>
<path d="M15.1427 9.31691C15.3359 9.11958 15.6525 9.11622 15.8498 9.3094L18.1831 11.5937C18.2779 11.6865 18.3319 11.8132 18.3333 11.9458C18.3347 12.0784 18.2833 12.2061 18.1905 12.3009L15.8572 14.6832C15.664 14.8805 15.3474 14.8838 15.1501 14.6906C14.9529 14.4973 14.9496 14.1808 15.1428 13.9835L17.1262 11.9584L15.1502 10.024C14.9529 9.83079 14.9495 9.51423 15.1427 9.31691Z" fill="#353566"/>
<path d="M13.6517 7.45461C13.7186 7.18671 13.5557 6.91524 13.2878 6.84827C13.02 6.78129 12.7485 6.94417 12.6815 7.21207L10.3482 16.5454C10.2812 16.8133 10.4441 17.0848 10.712 17.1517C10.9799 17.2187 11.2513 17.0558 11.3183 16.7879L13.6517 7.45461Z" fill="#353566"/>
<path fill-rule="evenodd" clip-rule="evenodd" d="M12 0.5C5.64873 0.5 0.5 5.64873 0.5 12C0.5 18.3513 5.64873 23.5 12 23.5C18.3513 23.5 23.5 18.3513 23.5 12C23.5 5.64873 18.3513 0.5 12 0.5ZM1.5 12C1.5 6.20101 6.20101 1.5 12 1.5C17.799 1.5 22.5 6.20101 22.5 12C22.5 17.799 17.799 22.5 12 22.5C6.20101 22.5 1.5 17.799 1.5 12Z" fill="#353566"/>
</g>
<defs>
<clipPath id="clip0_11005_389">
<rect width="24" height="24" fill="white"/>
</clipPath>
</defs>
</svg>
