<svg width="24" height="24" viewBox="0 0 24 24" fill="none" xmlns="http://www.w3.org/2000/svg">
<g clip-path="url(#clip0_9001_271066)">
<g opacity="0.4">
<path d="M5 4H17C18.4001 4 19.1002 4 19.635 4.27248C20.1054 4.51217 20.4878 4.89462 20.7275 5.36502C21 5.8998 21 6.59987 21 8V10.16C21 11.3622 21 12.0267 20.8129 12.521C20.313 11.9413 19.7347 11.5 18.8718 11.5H17.6282C16.5564 11.5 15.9238 12.1807 15.335 12.962C14.442 13.0712 13.604 13.2549 13.0588 14H12.5V13.25C12.5 12.4216 11.8284 11.75 11 11.75C10.1716 11.75 9.5 12.4216 9.5 13.25V14H4.84C3.49587 14 2.82381 14 2.31042 13.7384C1.85883 13.5083 1.49168 13.1412 1.26159 12.6896C1 12.1762 1 11.5041 1 10.16V8C1 6.59987 1 5.8998 1.27248 5.36502C1.51217 4.89462 1.89462 4.51217 2.36502 4.27249C2.8998 4 3.59987 4 5 4Z" fill="#353566"/>
<path d="M13.0588 14H12.5V14.7501C12.5 14.8235 12.4947 14.8957 12.4845 14.9663L12.92 14.2133C12.9638 14.1375 13.0102 14.0665 13.0588 14Z" fill="#353566"/>
<path d="M12.083 15.788C11.8099 16.0728 11.4257 16.2501 11 16.2501C10.1716 16.2501 9.5 15.5785 9.5 14.7501V14H4.84C3.49587 14 2.82381 14 2.31042 13.7384C1.99222 13.5763 1.71595 13.3462 1.5 13.0664V15.8001C1.5 17.6202 1.5 18.5303 1.85423 19.2255C2.16582 19.8371 2.663 20.3343 3.27453 20.6458C3.96974 21.0001 4.87983 21.0001 6.7 21.0001H12.4651L12.2982 20.7113C11.7632 19.7862 12.0379 18.899 12.4218 18C12.1074 17.2638 11.8663 16.5356 12.083 15.788Z" fill="#353566"/>
</g>
<path fill-rule="evenodd" clip-rule="evenodd" d="M12.6206 0.499878H9.37935C8.97687 0.499872 8.64468 0.499867 8.37409 0.521976C8.09304 0.544938 7.83469 0.59422 7.59202 0.717866C7.2157 0.909612 6.90973 1.21557 6.71799 1.5919C6.59434 1.83457 6.54506 2.09292 6.5221 2.37397C6.49999 2.64456 6.49999 2.97673 6.5 3.37921V3.49988H4.97812C4.2966 3.49987 3.75458 3.49987 3.31729 3.5356C2.86949 3.57219 2.48765 3.64872 2.13803 3.82686C1.57354 4.11449 1.1146 4.57343 0.826981 5.13792C0.648839 5.48755 0.572309 5.86939 0.535722 6.31719C0.499994 6.75449 0.499997 7.2965 0.5 7.97802V10.1817C0.499996 10.8353 0.499993 11.3564 0.534359 11.777C0.569583 12.2081 0.643389 12.5776 0.816083 12.9165C0.871197 13.0247 0.932818 13.1289 1.00045 13.2285C1.00015 13.2356 1 13.2428 1 13.25V15.8223C0.999997 16.7135 0.999995 17.4129 1.04594 17.9753C1.09274 18.5482 1.18971 19.0226 1.40873 19.4524C1.76825 20.1581 2.34193 20.7317 3.04754 21.0913C3.47738 21.3103 3.95183 21.4073 4.52469 21.4541C5.08703 21.5 5.78648 21.5 6.67765 21.5H12.7541L12.2981 20.7114C12.2572 20.6407 12.2211 20.5703 12.1893 20.5H6.7C5.78166 20.5 5.12298 20.4996 4.60612 20.4574C4.0951 20.4156 3.7669 20.3355 3.50153 20.2003C2.98408 19.9366 2.56338 19.5159 2.29973 18.9985C2.16452 18.7331 2.08437 18.4049 2.04262 17.8938C2.00039 17.377 2 16.7183 2 15.8V14.1397C2.02753 14.1548 2.05535 14.1696 2.08343 14.1839C2.42236 14.3566 2.79184 14.4304 3.22297 14.4656C3.64358 14.5 4.16459 14.5 4.81814 14.5H9V14.75C9 15.8546 9.89543 16.75 11 16.75C11.3651 16.75 11.7074 16.6521 12.002 16.4812C11.9855 16.0882 12.0648 15.692 12.2981 15.2886L12.9199 14.2133C13.0997 13.9024 13.3215 13.6726 13.5738 13.5H13V13.25C13 12.1454 12.1046 11.2499 11 11.2499C9.89543 11.2499 9 12.1454 9 13.25V13.5H4.84C4.15969 13.5 3.67952 13.4996 3.3044 13.4689C2.93512 13.4388 2.71188 13.3818 2.53742 13.2929C2.17991 13.1107 1.88925 12.8201 1.70709 12.4625C1.6182 12.2881 1.56121 12.0648 1.53104 11.6956C1.50039 11.3204 1.5 10.8403 1.5 10.1599L1.5 7.99992C1.5 7.2916 1.50039 6.79042 1.5324 6.39862C1.56394 6.01266 1.62365 5.77707 1.71799 5.59192C1.90973 5.21559 2.2157 4.90962 2.59202 4.71788C2.77717 4.62353 3.01276 4.56382 3.39872 4.53229C3.79052 4.50028 4.29168 4.49989 5 4.49989H17C17.7083 4.49989 18.2095 4.50028 18.6013 4.53229C18.9872 4.56382 19.2228 4.62353 19.408 4.71788C19.7843 4.90962 20.0903 5.21559 20.282 5.59191C20.3764 5.77707 20.4361 6.01266 20.4676 6.39862C20.4996 6.79042 20.5 7.29159 20.5 7.99992V10.1599C20.5 10.8403 20.4996 11.3204 20.469 11.6956C20.4555 11.8598 20.4368 11.9951 20.4124 12.1101C20.686 12.3523 20.9276 12.6473 21.1622 12.9584C21.1651 12.9529 21.1679 12.9475 21.1708 12.942C21.1752 12.9335 21.1796 12.925 21.1839 12.9165C21.3566 12.5776 21.4304 12.2081 21.4656 11.777C21.5 11.3564 21.5 10.8354 21.5 10.1819V7.97802C21.5 7.29658 21.5 6.75445 21.4643 6.31719C21.4277 5.86939 21.3512 5.48755 21.173 5.13792C20.8854 4.57343 20.4265 4.11448 19.862 3.82686C19.5123 3.64872 19.1305 3.57219 18.6827 3.5356C18.2454 3.49987 17.7034 3.49987 17.0219 3.49988H15.5V3.37922C15.5 2.97674 15.5 2.64456 15.4779 2.37397C15.4549 2.09292 15.4057 1.83457 15.282 1.5919C15.0903 1.21557 14.7843 0.909612 14.408 0.717866C14.1653 0.59422 13.907 0.544938 13.6259 0.521976C13.3553 0.499867 13.0231 0.499872 12.6206 0.499878ZM14.5 3.49988V3.39988C14.5 2.97159 14.4996 2.68044 14.4812 2.4554C14.4633 2.23619 14.4309 2.12409 14.391 2.04589C14.2951 1.85773 14.1422 1.70475 13.954 1.60887C13.8758 1.56903 13.7637 1.53656 13.5445 1.51865C13.3194 1.50027 13.0283 1.49988 12.6 1.49988H9.4C8.97171 1.49988 8.68056 1.50027 8.45552 1.51865C8.23631 1.53656 8.12421 1.56903 8.04601 1.60887C7.85785 1.70475 7.70487 1.85773 7.60899 2.04589C7.56915 2.12409 7.53669 2.23619 7.51878 2.4554C7.50039 2.68044 7.5 2.97159 7.5 3.39988V3.49988H14.5ZM10 14.75C10 15.3023 10.4477 15.75 11 15.75C11.5523 15.75 12 15.3023 12 14.75V14L12 13.995L12 13.99V13.25C12 12.6977 11.5523 12.25 11 12.25C10.4477 12.25 10 12.6977 10 13.25V14.75Z" fill="#353566"/>
<path fill-rule="evenodd" clip-rule="evenodd" d="M18.25 16.25C17.2835 16.25 16.5 17.0335 16.5 18C16.5 18.9665 17.2835 19.75 18.25 19.75C19.2165 19.75 20 18.9665 20 18C20 17.0335 19.2165 16.25 18.25 16.25ZM17.5 18C17.5 17.5858 17.8358 17.25 18.25 17.25C18.6642 17.25 19 17.5858 19 18C19 18.4142 18.6642 18.75 18.25 18.75C17.8358 18.75 17.5 18.4142 17.5 18Z" fill="#353566"/>
<path fill-rule="evenodd" clip-rule="evenodd" d="M13.1845 20.212C12.8047 19.5529 13.0297 18.7096 13.6886 18.3285C13.9408 18.1827 13.9408 17.8172 13.6886 17.6714C13.0297 17.2903 12.8047 16.447 13.1845 15.7879L13.8042 14.7126C14.1844 14.0529 15.0272 13.8263 15.6866 14.2076C15.937 14.3525 16.2527 14.1723 16.2527 13.8791C16.2527 13.1183 16.8686 12.5 17.6302 12.5H18.8697C19.6314 12.5 20.2473 13.1183 20.2473 13.8792C20.2473 14.1724 20.563 14.3525 20.8134 14.2077C21.4728 13.8263 22.3156 14.053 22.6958 14.7126L23.3155 15.788C23.6954 16.4471 23.4703 17.2903 22.8114 17.6714C22.5592 17.8172 22.5592 18.1826 22.8114 18.3285C23.4703 18.7096 23.6954 19.5528 23.3155 20.2119L22.6958 21.2872C22.3156 21.9469 21.4728 22.1736 20.8134 21.7922C20.563 21.6474 20.2473 21.8275 20.2473 22.1208C20.2473 22.8816 19.6314 23.5 18.8697 23.5H17.6303C16.8686 23.5 16.2527 22.8817 16.2527 22.1208C16.2527 21.8275 15.937 21.6474 15.6866 21.7922C15.0272 22.1736 14.1844 21.9469 13.8042 21.2873L13.1845 20.212ZM14.1893 19.1942C14.0087 19.2986 13.9461 19.5308 14.0509 19.7127L14.6707 20.788C14.7752 20.9693 15.0059 21.0308 15.1859 20.9266C16.1057 20.3946 17.2527 21.0605 17.2527 22.1208C17.2527 22.3311 17.4226 22.5 17.6303 22.5H18.8697C19.0774 22.5 19.2473 22.3311 19.2473 22.1208C19.2473 21.0605 20.3943 20.3946 21.3141 20.9265C21.4941 21.0307 21.7248 20.9693 21.8293 20.7879L22.4491 19.7126C22.5539 19.5307 22.4913 19.2986 22.3107 19.1941C21.3928 18.6632 21.3928 17.3367 22.3107 16.8058C22.4913 16.7013 22.5539 16.4692 22.4491 16.2873L21.8293 15.212C21.7248 15.0306 21.4941 14.9692 21.3141 15.0733C20.3943 15.6053 19.2473 14.9395 19.2473 13.8792C19.2473 13.6689 19.0774 13.5 18.8697 13.5H17.6302C17.4226 13.5 17.2527 13.6689 17.2527 13.8791C17.2527 14.9395 16.1056 15.6052 15.186 15.0733C15.0059 14.9691 14.7752 15.0306 14.6707 15.2119L14.0509 16.2872C13.9461 16.4691 14.0087 16.7013 14.1893 16.8057C15.1073 17.3367 15.1073 18.6632 14.1893 19.1942Z" fill="#353566"/>
</g>
<defs>
<clipPath id="clip0_9001_271066">
<rect width="24" height="24" fill="white"/>
</clipPath>
</defs>
</svg>
