<svg width="24" height="24" viewBox="0 0 24 24" fill="none" xmlns="http://www.w3.org/2000/svg">
<g clip-path="url(#clip0_9001_271046)">
<g opacity="0.4">
<path d="M5 4H17C18.4001 4 19.1002 4 19.635 4.27248C20.1054 4.51217 20.4878 4.89462 20.7275 5.36502C21 5.8998 21 6.59987 21 8V10.16C21 11.1106 21 11.725 20.9075 12.185C20.0326 11.7467 19.0451 11.5 18 11.5C15.9187 11.5 14.0659 12.4782 12.8762 14H12.5V13.25C12.5 12.4216 11.8284 11.75 11 11.75C10.1716 11.75 9.5 12.4216 9.5 13.25V14H4.84C3.49587 14 2.82381 14 2.31042 13.7384C1.85883 13.5083 1.49168 13.1412 1.26159 12.6896C1 12.1762 1 11.5041 1 10.16V8C1 6.59987 1 5.8998 1.27248 5.36502C1.51217 4.89462 1.89462 4.51217 2.36502 4.27249C2.8998 4 3.59987 4 5 4Z" fill="#353566"/>
<path d="M12.8762 14H12.5V14.5343C12.6165 14.3498 12.7422 14.1714 12.8762 14Z" fill="#353566"/>
<path d="M11.8092 16.0133C11.5758 16.1632 11.298 16.2501 11 16.2501C10.1716 16.2501 9.5 15.5785 9.5 14.7501V14H4.84C3.49587 14 2.82381 14 2.31042 13.7384C1.99222 13.5763 1.71595 13.3462 1.5 13.0664V15.8001C1.5 17.6202 1.5 18.5303 1.85423 19.2255C2.16582 19.8371 2.663 20.3343 3.27453 20.6458C3.96974 21.0001 4.87983 21.0001 6.7 21.0001H12.2322C11.7644 20.1026 11.5 19.0822 11.5 18C11.5 17.3071 11.6084 16.6396 11.8092 16.0133Z" fill="#353566"/>
</g>
<path fill-rule="evenodd" clip-rule="evenodd" d="M9.37935 0.499878H12.6206C13.0231 0.499872 13.3553 0.499867 13.6259 0.521976C13.907 0.544938 14.1653 0.59422 14.408 0.717866C14.7843 0.909612 15.0903 1.21557 15.282 1.5919C15.4057 1.83457 15.4549 2.09292 15.4779 2.37397C15.5 2.64456 15.5 2.97674 15.5 3.37922V3.49988H17.0219C17.7034 3.49987 18.2454 3.49987 18.6827 3.5356C19.1305 3.57219 19.5123 3.64872 19.862 3.82686C20.4265 4.11448 20.8854 4.57342 21.173 5.13791C21.3512 5.48753 21.4277 5.86937 21.4643 6.31717C21.5 6.75443 21.5 7.29649 21.5 7.97794V10.1818C21.5 10.8353 21.5 11.3563 21.4656 11.7769C21.4463 12.0136 21.4153 12.2317 21.3628 12.4363C21.0688 12.2582 20.7595 12.1028 20.4374 11.9724C20.4501 11.89 20.4606 11.7984 20.469 11.6955C20.4996 11.3204 20.5 10.8402 20.5 10.1599V7.99988C20.5 7.29156 20.4996 6.7904 20.4676 6.3986C20.4361 6.01264 20.3764 5.77705 20.282 5.5919C20.0903 5.21557 19.7843 4.90961 19.408 4.71786C19.2228 4.62352 18.9872 4.56381 18.6013 4.53228C18.2095 4.50027 17.7083 4.49988 17 4.49988H5C4.29168 4.49988 3.79052 4.50027 3.39872 4.53228C3.01276 4.56381 2.77717 4.62352 2.59202 4.71787C2.2157 4.90961 1.90973 5.21557 1.71799 5.5919C1.62365 5.77705 1.56394 6.01264 1.5324 6.3986C1.50039 6.7904 1.5 7.29156 1.5 7.99988L1.5 10.1599C1.5 10.8402 1.50039 11.3204 1.53104 11.6955C1.56121 12.0648 1.6182 12.288 1.70709 12.4625C1.88925 12.82 2.17991 13.1106 2.53742 13.2928C2.71188 13.3817 2.93512 13.4387 3.3044 13.4688C3.67952 13.4995 4.15969 13.4999 4.84 13.4999H9V13.2499C9 12.1453 9.89543 11.2499 11 11.2499C12.1046 11.2499 13 12.1453 13 13.2499V13.4999H13.3096C12.487 14.357 11.8971 15.4392 11.6414 16.6448C11.4401 16.7129 11.2243 16.7499 11 16.7499C9.89543 16.7499 9 15.8545 9 14.7499V14.4999H4.81814C4.16459 14.4999 3.64358 14.4999 3.22297 14.4655C2.79184 14.4303 2.42236 14.3565 2.08343 14.1838C2.05535 14.1695 2.02753 14.1547 2 14.1396V15.7999C2 16.7182 2.00039 17.3769 2.04262 17.8937C2.08437 18.4048 2.16452 18.733 2.29973 18.9983C2.56338 19.5158 2.98408 19.9365 3.50153 20.2001C3.7669 20.3353 4.0951 20.4155 4.60612 20.4572C5.12298 20.4995 5.78166 20.4998 6.7 20.4998H11.9981C12.144 20.8497 12.3196 21.1841 12.5217 21.4998H6.67765C5.78648 21.4999 5.08703 21.4999 4.52469 21.4539C3.95183 21.4071 3.47738 21.3101 3.04754 21.0911C2.34193 20.7316 1.76825 20.1579 1.40873 19.4523C1.18971 19.0225 1.09274 18.548 1.04594 17.9752C0.999995 17.4128 0.999997 16.7134 1 15.8222V13.2499C1 13.2427 1.00015 13.2355 1.00045 13.2284C0.932818 13.1288 0.871197 13.0246 0.816083 12.9165C0.643389 12.5775 0.569584 12.208 0.534359 11.7769C0.499993 11.3563 0.499996 10.8353 0.5 10.1817V7.97798C0.499997 7.29647 0.499994 6.75446 0.535722 6.31717C0.572309 5.86937 0.648839 5.48753 0.826981 5.13791C1.1146 4.57342 1.57354 4.11448 2.13803 3.82686C2.48765 3.64872 2.86949 3.57219 3.31729 3.5356C3.75458 3.49987 4.2966 3.49987 4.97812 3.49988H6.5V3.37922C6.49999 2.97674 6.49999 2.64456 6.5221 2.37397C6.54506 2.09292 6.59434 1.83457 6.71799 1.5919C6.90973 1.21557 7.2157 0.909612 7.59202 0.717866C7.83469 0.59422 8.09304 0.544938 8.37409 0.521976C8.64468 0.499867 8.97687 0.499872 9.37935 0.499878ZM14.5 3.39988V3.49988H7.5V3.39988C7.5 2.97159 7.50039 2.68044 7.51878 2.4554C7.53669 2.23619 7.56915 2.12409 7.60899 2.04589C7.70487 1.85773 7.85785 1.70475 8.04601 1.60887C8.12421 1.56903 8.23631 1.53656 8.45552 1.51865C8.68056 1.50027 8.97171 1.49988 9.4 1.49988H12.6C13.0283 1.49988 13.3194 1.50027 13.5445 1.51865C13.7637 1.53656 13.8758 1.56903 13.954 1.60887C14.1422 1.70475 14.2951 1.85773 14.391 2.04589C14.4309 2.12409 14.4633 2.23619 14.4812 2.4554C14.4996 2.68044 14.5 2.97159 14.5 3.39988ZM10 14.7499V13.2499C10 12.6976 10.4477 12.2499 11 12.2499C11.5523 12.2499 12 12.6976 12 13.2499V13.9899L12 13.9949L12 13.9999V14.7499C12 15.3022 11.5523 15.7499 11 15.7499C10.4477 15.7499 10 15.3022 10 14.7499Z" fill="#353566"/>
<path fill-rule="evenodd" clip-rule="evenodd" d="M18 12.5C21.0376 12.5 23.5 14.9624 23.5 18C23.5 21.0376 21.0376 23.5 18 23.5C14.9624 23.5 12.5 21.0376 12.5 18C12.5 14.9624 14.9624 12.5 18 12.5ZM22.5 18C22.5 15.5147 20.4853 13.5 18 13.5C16.9375 13.5 15.961 13.8682 15.1912 14.484L21.5159 20.8088C22.1318 20.039 22.5 19.0625 22.5 18ZM20.8088 21.5159C20.039 22.1318 19.0625 22.5 18 22.5C15.5147 22.5 13.5 20.4853 13.5 18C13.5 16.9375 13.8682 15.961 14.484 15.1912L20.8088 21.5159Z" fill="#353566"/>
</g>
<defs>
<clipPath id="clip0_9001_271046">
<rect width="24" height="24" fill="white"/>
</clipPath>
</defs>
</svg>
