<svg width="24" height="24" viewBox="0 0 24 24" fill="none" xmlns="http://www.w3.org/2000/svg">
<g clip-path="url(#clip0_9001_271031)">
<g opacity="0.4">
<path d="M5 4H17C18.4001 4 19.1002 4 19.635 4.27248C20.1054 4.51217 20.4878 4.89462 20.7275 5.36502C21 5.8998 21 6.59987 21 8V10.16C21 11.2142 21 11.855 20.8738 12.3301L19.8425 11.8147C19.0029 11.3953 17.996 11.3951 17.1582 11.8143L13.5881 13.5994L13.5871 13.5999C13.3737 13.7072 13.1968 13.8376 13.0522 14H12.5V13.25C12.5 12.4216 11.8284 11.75 11 11.75C10.1716 11.75 9.5 12.4216 9.5 13.25V14H4.84C3.49587 14 2.82381 14 2.31042 13.7384C1.85883 13.5083 1.49168 13.1412 1.26159 12.6896C1 12.1762 1 11.5041 1 10.16V8C1 6.59987 1 5.8998 1.27248 5.36502C1.51217 4.89462 1.89462 4.51217 2.36502 4.27249C2.8998 4 3.59987 4 5 4Z" fill="#353566"/>
<path d="M13.0522 14H12.5V14.7501C12.5 15.5785 11.8284 16.2501 11 16.2501C10.1716 16.2501 9.5 15.5785 9.5 14.7501V14H4.84C3.49587 14 2.82381 14 2.31042 13.7384C1.99222 13.5763 1.71595 13.3462 1.5 13.0664V15.8001C1.5 17.6202 1.5 18.5303 1.85423 19.2255C2.16582 19.8371 2.663 20.3343 3.27453 20.6458C3.96974 21.0001 4.87983 21.0001 6.7 21.0001H13.894C13.0038 19.6048 12.5 17.9631 12.5 16.2579C12.5 15.1378 12.6539 14.4474 13.0522 14Z" fill="#353566"/>
</g>
<path fill-rule="evenodd" clip-rule="evenodd" d="M9.37935 0.499878H12.6206C13.0231 0.499872 13.3553 0.499867 13.6259 0.521976C13.907 0.544938 14.1653 0.59422 14.408 0.717866C14.7843 0.909612 15.0903 1.21557 15.282 1.5919C15.4057 1.83457 15.4549 2.09292 15.4779 2.37397C15.5 2.64456 15.5 2.97674 15.5 3.37922V3.49988H17.0219C17.7034 3.49987 18.2454 3.49987 18.6827 3.5356C19.1305 3.57219 19.5123 3.64872 19.862 3.82686C20.4265 4.11448 20.8854 4.57343 21.173 5.13792C21.3512 5.48755 21.4277 5.86939 21.4643 6.31719C21.5 6.75446 21.5 7.29643 21.5 7.97789V10.1817C21.5 10.8353 21.5 11.3564 21.4656 11.777C21.4424 12.0609 21.4025 12.3181 21.3286 12.5574L20.4144 12.1005C20.4379 11.9876 20.4559 11.8552 20.469 11.6956C20.4996 11.3204 20.5 10.8403 20.5 10.1599V7.99992C20.5 7.29159 20.4996 6.79042 20.4676 6.39862C20.4361 6.01266 20.3764 5.77707 20.282 5.59191C20.0903 5.21559 19.7843 4.90962 19.408 4.71788C19.2228 4.62353 18.9872 4.56382 18.6013 4.53229C18.2095 4.50028 17.7083 4.49989 17 4.49989H5C4.29168 4.49989 3.79052 4.50028 3.39872 4.53229C3.01276 4.56382 2.77717 4.62353 2.59202 4.71788C2.2157 4.90962 1.90973 5.21559 1.71799 5.59192C1.62365 5.77707 1.56394 6.01266 1.5324 6.39862C1.50039 6.79042 1.5 7.2916 1.5 7.99992L1.5 10.1599C1.5 10.8403 1.50039 11.3204 1.53104 11.6956C1.56121 12.0648 1.6182 12.2881 1.70709 12.4625C1.88925 12.82 2.17991 13.1107 2.53742 13.2929C2.71188 13.3818 2.93512 13.4388 3.3044 13.4689C3.67952 13.4996 4.15969 13.5 4.84 13.5H9V13.25C9 12.1454 9.89543 11.2499 11 11.2499C12.1046 11.2499 13 12.1454 13 13.25V13.5H13.7869L13.588 13.5994L13.587 13.5999C12.8192 13.9859 12.5246 14.6709 12.5014 16.0713C12.1349 16.4874 11.5981 16.75 11 16.75C9.89543 16.75 9 15.8546 9 14.75V14.5H4.81819C4.16463 14.5 3.64358 14.5 3.22297 14.4656C2.79184 14.4304 2.42236 14.3566 2.08343 14.1839C2.05535 14.1696 2.02753 14.1548 2 14.1397V15.8C2 16.7183 2.00039 17.377 2.04262 17.8938C2.08437 18.4049 2.16452 18.7331 2.29973 18.9985C2.56338 19.5159 2.98408 19.9366 3.50153 20.2003C3.7669 20.3355 4.0951 20.4156 4.60612 20.4574C5.12298 20.4996 5.78166 20.5 6.7 20.5H13.5972C13.7882 20.847 14.002 21.1812 14.2372 21.5H6.67765C5.78648 21.5 5.08703 21.5 4.52469 21.4541C3.95183 21.4073 3.47738 21.3103 3.04754 21.0913C2.34193 20.7317 1.76825 20.1581 1.40873 19.4524C1.18971 19.0226 1.09274 18.5482 1.04594 17.9753C0.999995 17.4129 0.999997 16.7135 1 15.8223V13.25C1 13.2428 1.00015 13.2356 1.00045 13.2285C0.932818 13.1289 0.871197 13.0247 0.816083 12.9165C0.643389 12.5776 0.569583 12.2081 0.534359 11.777C0.499993 11.3564 0.499996 10.8353 0.5 10.1817V7.97804C0.499997 7.29652 0.499994 6.75449 0.535722 6.31719C0.572309 5.86939 0.648839 5.48755 0.826981 5.13792C1.1146 4.57343 1.57354 4.11449 2.13803 3.82686C2.48765 3.64872 2.86949 3.57219 3.31729 3.5356C3.75458 3.49987 4.2966 3.49987 4.97812 3.49988H6.5V3.37923C6.49999 2.97675 6.49999 2.64456 6.5221 2.37397C6.54506 2.09292 6.59434 1.83457 6.71799 1.5919C6.90973 1.21557 7.2157 0.909612 7.59202 0.717866C7.83469 0.59422 8.09304 0.544938 8.37409 0.521976C8.64468 0.499867 8.97687 0.499872 9.37935 0.499878ZM14.5 3.39988V3.49988H7.5V3.39988C7.5 2.97159 7.50039 2.68044 7.51878 2.4554C7.53669 2.23619 7.56915 2.12409 7.60899 2.04589C7.70487 1.85773 7.85785 1.70475 8.04601 1.60887C8.12421 1.56903 8.23631 1.53656 8.45552 1.51865C8.68056 1.50027 8.97171 1.49988 9.4 1.49988H12.6C13.0283 1.49988 13.3194 1.50027 13.5445 1.51865C13.7637 1.53656 13.8758 1.56903 13.954 1.60887C14.1422 1.70475 14.2951 1.85773 14.391 2.04589C14.4309 2.12409 14.4633 2.23619 14.4812 2.4554C14.4996 2.68044 14.5 2.97159 14.5 3.39988ZM10 14.75V13.25C10 12.6977 10.4477 12.25 11 12.25C11.5523 12.25 12 12.6977 12 13.25V13.99L12 13.995L12 14V14.75C12 15.3023 11.5523 15.75 11 15.75C10.4477 15.75 10 15.3023 10 14.75Z" fill="#353566"/>
<path fill-rule="evenodd" clip-rule="evenodd" d="M19.3934 12.7081C18.8303 12.4267 18.1676 12.4267 17.6045 12.7083L14.036 14.493C13.7076 14.6573 13.5002 14.9928 13.5 15.36C13.4993 16.7737 13.5894 18.1315 14.1667 19.451C14.9568 21.2568 16.4181 22.6575 18.2165 23.4423C18.3966 23.5209 18.6013 23.5209 18.7815 23.4423C20.5804 22.6573 22.042 21.2548 22.8321 19.4487C23.4088 18.1304 23.4993 16.7739 23.5 15.3614C23.5002 14.9935 23.2924 14.6571 22.9633 14.4926L19.3934 12.7081ZM18.0518 13.6027C18.3334 13.4619 18.6647 13.4619 18.9463 13.6026L22.5 15.379C22.4994 16.6465 22.4342 17.8633 21.916 19.0479C21.2465 20.5782 20.0268 21.8009 18.499 22.4744C16.9715 21.8018 15.7521 20.5797 15.0828 19.0502C14.5642 17.8648 14.4994 16.6474 14.5 15.3791L18.0518 13.6027Z" fill="#353566"/>
</g>
<defs>
<clipPath id="clip0_9001_271031">
<rect width="24" height="24" fill="white"/>
</clipPath>
</defs>
</svg>
