<svg width="24" height="24" viewBox="0 0 24 24" fill="none" xmlns="http://www.w3.org/2000/svg">
<path opacity="0.4" d="M3 2H21V10.4C21 12.3602 21 13.3403 20.6185 14.089C20.283 14.7475 19.7475 15.283 19.089 15.6185C18.3403 16 17.3602 16 15.4 16H8.6C6.63982 16 5.65972 16 4.91103 15.6185C4.25247 15.283 3.71703 14.7475 3.38148 14.089C3 13.3403 3 12.3602 3 10.4V2Z" fill="#353566"/>
<path d="M12 13C11.7239 13 11.5 12.7761 11.5 12.5L11.5 6.70711L9.35355 8.85355C9.15829 9.04882 8.84171 9.04882 8.64645 8.85355C8.45118 8.65829 8.45118 8.34171 8.64645 8.14645L11.6464 5.14645C11.7402 5.05268 11.8674 5 12 5C12.1326 5 12.2598 5.05268 12.3536 5.14645L15.3536 8.14645C15.5488 8.34171 15.5488 8.65829 15.3536 8.85355C15.1583 9.04882 14.8417 9.04882 14.6464 8.85355L12.5 6.70711L12.5 12.5C12.5 12.7761 12.2761 13 12 13Z" fill="#353566"/>
<path fill-rule="evenodd" clip-rule="evenodd" d="M12.5 18.75L16.3 21.6C16.5209 21.7657 16.5657 22.0791 16.4 22.3C16.2343 22.5209 15.9209 22.5657 15.7 22.4L12 19.625L8.30003 22.4C8.07912 22.5657 7.76572 22.5209 7.60003 22.3C7.43434 22.0791 7.47912 21.7657 7.70003 21.6L11.5 18.75L11.5 16.5H8.57754C7.61649 16.5 6.86449 16.5 6.26049 16.4507C5.64594 16.4004 5.14062 16.2967 4.68404 16.064C3.93139 15.6805 3.31947 15.0686 2.93597 14.316C2.70334 13.8594 2.59956 13.3541 2.54935 12.7395C2.5 12.1355 2.5 11.3836 2.5 10.4226L2.5 2.5H1.5C1.22386 2.5 1 2.27614 1 2C1 1.72386 1.22386 1.5 1.5 1.5L22.5 1.5C22.7761 1.5 23 1.72386 23 2C23 2.27614 22.7761 2.5 22.5 2.5L21.5 2.5V10.4225C21.5 11.3835 21.5 12.1355 21.4507 12.7395C21.4004 13.3541 21.2967 13.8594 21.064 14.316C20.6805 15.0686 20.0686 15.6805 19.316 16.064C18.8594 16.2967 18.3541 16.4004 17.7395 16.4507C17.1355 16.5 16.3836 16.5 15.4225 16.5H12.5L12.5 18.75ZM15.4 15.5C16.3883 15.5 17.0995 15.4996 17.6581 15.454C18.2108 15.4088 18.5699 15.3219 18.862 15.173C19.4265 14.8854 19.8854 14.4265 20.173 13.862C20.3219 13.5699 20.4088 13.2108 20.454 12.6581C20.4996 12.0995 20.5 11.3883 20.5 10.4V2.5L3.5 2.5L3.5 10.4C3.5 11.3883 3.50039 12.0995 3.54602 12.6581C3.59118 13.2108 3.67814 13.5699 3.82698 13.862C4.1146 14.4265 4.57354 14.8854 5.13803 15.173C5.43014 15.3219 5.78921 15.4088 6.34192 15.454C6.90047 15.4996 7.61166 15.5 8.6 15.5H15.4Z" fill="#353566"/>
</svg>
