<svg width="24" height="24" viewBox="0 0 24 24" fill="none" xmlns="http://www.w3.org/2000/svg">
<path opacity="0.4" d="M3 2H21V10.4C21 12.3602 21 13.3403 20.6185 14.089C20.283 14.7475 19.7475 15.283 19.089 15.6185C18.3403 16 17.3602 16 15.4 16H8.6C6.63982 16 5.65972 16 4.91103 15.6185C4.25247 15.283 3.71703 14.7475 3.38148 14.089C3 13.3403 3 12.3602 3 10.4V2Z" fill="#353566"/>
<path d="M7.5 7C7.5 6.72386 7.72386 6.5 8 6.5H16C16.2761 6.5 16.5 6.72386 16.5 7C16.5 7.27614 16.2761 7.5 16 7.5H8C7.72386 7.5 7.5 7.27614 7.5 7Z" fill="#353566"/>
<path d="M8 10.5C7.72386 10.5 7.5 10.7239 7.5 11C7.5 11.2761 7.72386 11.5 8 11.5H12C12.2761 11.5 12.5 11.2761 12.5 11C12.5 10.7239 12.2761 10.5 12 10.5H8Z" fill="#353566"/>
<path fill-rule="evenodd" clip-rule="evenodd" d="M1.5 1.5C1.22386 1.5 1 1.72386 1 2C1 2.27614 1.22386 2.5 1.5 2.5H2.5V10.4224C2.5 11.3835 2.49999 12.1355 2.54935 12.7395C2.59956 13.3541 2.70334 13.8594 2.93597 14.316C3.31947 15.0686 3.93139 15.6805 4.68404 16.064C5.14062 16.2967 5.64594 16.4004 6.26049 16.4507C6.8645 16.5 7.61644 16.5 8.57751 16.5H11.5V18.563C10.6374 18.785 10 19.5681 10 20.5C10 21.6046 10.8954 22.5 12 22.5C13.1046 22.5 14 21.6046 14 20.5C14 19.5681 13.3626 18.785 12.5 18.563V16.5H15.4225C16.3835 16.5 17.1355 16.5 17.7395 16.4507C18.3541 16.4004 18.8594 16.2967 19.316 16.064C20.0686 15.6805 20.6805 15.0686 21.064 14.316C21.2967 13.8594 21.4004 13.3541 21.4507 12.7395C21.5 12.1355 21.5 11.3835 21.5 10.4225V2.5H22.5C22.7761 2.5 23 2.27614 23 2C23 1.72386 22.7761 1.5 22.5 1.5H1.5ZM12 19.5C11.4477 19.5 11 19.9477 11 20.5C11 21.0523 11.4477 21.5 12 21.5C12.5523 21.5 13 21.0523 13 20.5C13 19.9477 12.5523 19.5 12 19.5ZM15.4 15.5C16.3883 15.5 17.0995 15.4996 17.6581 15.454C18.2108 15.4088 18.5699 15.3219 18.862 15.173C19.4265 14.8854 19.8854 14.4265 20.173 13.862C20.3219 13.5699 20.4088 13.2108 20.454 12.6581C20.4996 12.0995 20.5 11.3883 20.5 10.4V2.5H3.5V10.4C3.5 11.3883 3.50039 12.0995 3.54602 12.6581C3.59118 13.2108 3.67814 13.5699 3.82698 13.862C4.1146 14.4265 4.57354 14.8854 5.13803 15.173C5.43014 15.3219 5.78921 15.4088 6.34192 15.454C6.90047 15.4996 7.61166 15.5 8.6 15.5H15.4Z" fill="#353566"/>
</svg>
