<svg width="24" height="24" viewBox="0 0 24 24" fill="none" xmlns="http://www.w3.org/2000/svg">
<path fill-rule="evenodd" clip-rule="evenodd" d="M8.367 1.25H15.633C16.7251 1.24999 17.5906 1.24999 18.2883 1.30699C19.0017 1.36527 19.6053 1.48688 20.1565 1.76772C21.0502 2.22312 21.7769 2.94978 22.2323 3.84355C22.5131 4.39472 22.6347 4.99835 22.693 5.71173C22.75 6.40935 22.75 7.27484 22.75 8.36698V15.633C22.75 16.7252 22.75 17.5906 22.693 18.2883C22.6347 19.0017 22.5131 19.6053 22.2323 20.1565C21.7769 21.0502 21.0502 21.7769 20.1565 22.2323C19.6053 22.5131 19.0017 22.6347 18.2883 22.693C17.5906 22.75 16.7252 22.75 15.633 22.75H8.36698C7.27484 22.75 6.40935 22.75 5.71173 22.693C4.99835 22.6347 4.39472 22.5131 3.84355 22.2323C2.94978 21.7769 2.22312 21.0502 1.76772 20.1565C1.48688 19.6053 1.36527 19.0017 1.30699 18.2883C1.24999 17.5906 1.24999 16.7252 1.25 15.633V8.36699C1.24999 7.27486 1.24999 6.40935 1.30699 5.71173C1.36527 4.99834 1.48688 4.39472 1.76772 3.84355C2.22312 2.94978 2.94978 2.22312 3.84355 1.76772C4.39472 1.48688 4.99835 1.36527 5.71173 1.30699C6.40935 1.24999 7.27486 1.24999 8.367 1.25ZM17 17.75C17.4142 17.75 17.75 17.4142 17.75 17V7C17.75 6.58579 17.4142 6.25 17 6.25C16.5858 6.25 16.25 6.58579 16.25 7V17C16.25 17.4142 16.5858 17.75 17 17.75ZM10.7804 14.7197C11.0732 15.0126 11.0732 15.4875 10.7803 15.7804C10.4874 16.0732 10.0125 16.0732 9.71964 15.7803L6.46964 12.53C6.329 12.3893 6.24999 12.1985 6.25 11.9996C6.25001 11.8007 6.32904 11.61 6.4697 11.4693L9.7197 8.21964C10.0126 7.92676 10.4875 7.92679 10.7804 8.2197C11.0732 8.5126 11.0732 8.98748 10.7803 9.28036L8.81046 11.25H14C14.4142 11.25 14.75 11.5858 14.75 12C14.75 12.4142 14.4142 12.75 14 12.75H8.81086L10.7804 14.7197Z" fill="#353566"/>
</svg>
