<svg width="24" height="24" viewBox="0 0 24 24" fill="none" xmlns="http://www.w3.org/2000/svg">
<path d="M2 22.9998C1.44772 22.9998 1 22.552 1 21.9998V15.9998C1 15.4475 1.44772 14.9998 2 14.9998C2.55228 14.9998 3 15.4475 3 15.9998V19.5855L9.29289 13.2926C9.68342 12.9021 10.3166 12.9021 10.7071 13.2926C11.0976 13.6832 11.0976 14.3163 10.7071 14.7069L4.41421 20.9998H8C8.55229 20.9998 9 21.4475 9 21.9998C9 22.552 8.55229 22.9998 8 22.9998H2Z" fill="#353566"/>
<path d="M22.9999 2C22.9999 1.44772 22.5522 1 21.9999 1H15.9999C15.4476 1 14.9999 1.44771 14.9999 2C14.9999 2.55228 15.4476 3 15.9999 3H19.5857L13.2928 9.29289C12.9022 9.68342 12.9022 10.3166 13.2928 10.7071C13.6833 11.0976 14.3165 11.0976 14.707 10.7071L20.9999 4.41422V8C20.9999 8.55229 21.4476 9 21.9999 9C22.5522 9 22.9999 8.55229 22.9999 8V2Z" fill="#353566"/>
</svg>
