<svg width="24" height="24" viewBox="0 0 24 24" fill="none" xmlns="http://www.w3.org/2000/svg">
<g clip-path="url(#clip0_9001_267472)">
<path d="M2 11.9999C2 17.5227 6.47715 21.9999 12 21.9999C17.5228 21.9999 22 17.5227 22 11.9999C22 8.11521 19.7852 4.74614 16.5448 3.08968C16.0531 2.8383 15.8582 2.23586 16.1096 1.74411C16.361 1.25235 16.9634 1.05749 17.4552 1.30887C21.3382 3.29383 24 7.33513 24 11.9999C24 18.6273 18.6274 23.9999 12 23.9999C5.37258 23.9999 0 18.6273 0 11.9999C0 6.30134 3.97111 1.53273 9.29593 0.305989C11.4256 -0.184638 13 1.64835 13 3.49986V12.5856L15.2929 10.2927C15.6834 9.90222 16.3166 9.90222 16.7071 10.2927C17.0976 10.6833 17.0976 11.3164 16.7071 11.707L12.7071 15.707C12.5196 15.8945 12.2652 15.9999 12 15.9999C11.7348 15.9999 11.4804 15.8945 11.2929 15.707L7.29289 11.707C6.90237 11.3164 6.90237 10.6833 7.29289 10.2927C7.68342 9.90222 8.31658 9.90222 8.70711 10.2927L11 12.5856V3.49986C11 2.58994 10.3062 2.12562 9.74493 2.25494C5.30778 3.27717 2 7.25343 2 11.9999Z" fill="#353566"/>
</g>
<defs>
<clipPath id="clip0_9001_267472">
<rect width="24" height="24" fill="white"/>
</clipPath>
</defs>
</svg>
