<svg width="24" height="24" viewBox="0 0 24 24" fill="none" xmlns="http://www.w3.org/2000/svg">
<path fill-rule="evenodd" clip-rule="evenodd" d="M6 1.5C3.51472 1.5 1.5 3.51472 1.5 6C1.5 8.48528 3.51472 10.5 6 10.5C8.48528 10.5 10.5 8.48528 10.5 6C10.5 3.51472 8.48528 1.5 6 1.5ZM2.5 6C2.5 4.067 4.067 2.5 6 2.5C7.933 2.5 9.5 4.067 9.5 6C9.5 7.933 7.933 9.5 6 9.5C4.067 9.5 2.5 7.933 2.5 6Z" fill="#353566"/>
<path fill-rule="evenodd" clip-rule="evenodd" d="M18 1.5C15.5147 1.5 13.5 3.51472 13.5 6C13.5 8.48528 15.5147 10.5 18 10.5C20.4853 10.5 22.5 8.48528 22.5 6C22.5 3.51472 20.4853 1.5 18 1.5ZM14.5 6C14.5 4.067 16.067 2.5 18 2.5C19.933 2.5 21.5 4.067 21.5 6C21.5 7.933 19.933 9.5 18 9.5C16.067 9.5 14.5 7.933 14.5 6Z" fill="#353566"/>
<path fill-rule="evenodd" clip-rule="evenodd" d="M1.5 18C1.5 15.5147 3.51472 13.5 6 13.5C8.48528 13.5 10.5 15.5147 10.5 18C10.5 20.4853 8.48528 22.5 6 22.5C3.51472 22.5 1.5 20.4853 1.5 18ZM6 14.5C4.067 14.5 2.5 16.067 2.5 18C2.5 19.933 4.067 21.5 6 21.5C7.933 21.5 9.5 19.933 9.5 18C9.5 16.067 7.933 14.5 6 14.5Z" fill="#353566"/>
<path d="M18.5 14C18.5 13.7239 18.2761 13.5 18 13.5C17.7239 13.5 17.5 13.7239 17.5 14V17.5H14C13.7239 17.5 13.5 17.7239 13.5 18C13.5 18.2761 13.7239 18.5 14 18.5H17.5V22C17.5 22.2761 17.7239 22.5 18 22.5C18.2761 22.5 18.5 22.2761 18.5 22V18.5H22C22.2761 18.5 22.5 18.2761 22.5 18C22.5 17.7239 22.2761 17.5 22 17.5H18.5V14Z" fill="#353566"/>
</svg>
