<svg width="24" height="24" viewBox="0 0 24 24" fill="none" xmlns="http://www.w3.org/2000/svg">
<path opacity="0.4" d="M17.7321 2.25H6.2679C5.45506 2.24999 4.79944 2.24999 4.26853 2.29336C3.7219 2.33803 3.24175 2.43239 2.79754 2.65873C2.09193 3.01825 1.51825 3.59193 1.15873 4.29754C0.932386 4.74175 0.838026 5.2219 0.793364 5.76853C0.749987 6.29944 0.749993 6.95505 0.75 7.76788V14.7321C0.749993 15.5449 0.749987 16.2006 0.793364 16.7315C0.838026 17.2781 0.932385 17.7582 1.15873 18.2025C1.51825 18.9081 2.09193 19.4818 2.79754 19.8413C3.24175 20.0676 3.7219 20.162 4.26853 20.2066C4.79944 20.25 5.45505 20.25 6.26788 20.25H14.5814C14.8171 20.25 15.0391 20.1392 15.1808 19.9509C15.3225 19.7625 15.3674 19.5185 15.302 19.2921C15.1381 18.724 15.05 18.1229 15.05 17.5C15.05 13.9378 17.9378 11.05 21.5 11.05C21.8047 11.05 22.1041 11.0711 22.3968 11.1117C22.6116 11.1416 22.8289 11.077 22.9925 10.9345C23.1561 10.7921 23.25 10.5858 23.25 10.3689V7.76788C23.25 6.95505 23.25 6.29944 23.2066 5.76853C23.162 5.2219 23.0676 4.74175 22.8413 4.29754C22.4817 3.59193 21.9081 3.01825 21.2025 2.65873C20.7582 2.43239 20.2781 2.33803 19.7315 2.29336C19.2006 2.24999 18.5449 2.24999 17.7321 2.25Z" fill="#353566"/>
<path d="M17.7323 2.25H6.26807C5.45525 2.24999 4.79962 2.24999 4.26871 2.29336C3.72207 2.33803 3.24193 2.43239 2.79771 2.65873C2.09211 3.01825 1.51843 3.59193 1.1589 4.29754C0.84496 4.91369 0.779418 5.61608 0.758995 6.48902C0.753376 6.7292 0.863158 6.95754 1.05426 7.10314L9.71273 13.7002C10.3016 14.1497 10.7629 14.5019 11.2921 14.6429C11.7561 14.7666 12.2443 14.7666 12.7083 14.6429C13.2375 14.5019 13.6988 14.1497 14.2876 13.7002L22.9461 7.10313C23.1372 6.95754 23.247 6.7292 23.2414 6.48902C23.2209 5.61608 23.1554 4.91369 22.8415 4.29754C22.4819 3.59193 21.9082 3.01825 21.2026 2.65873C20.7584 2.43239 20.2783 2.33803 19.7316 2.29336C19.2007 2.24999 18.5451 2.24999 17.7323 2.25Z" fill="#353566"/>
<path d="M19.75 20.5C19.75 20.0858 20.0858 19.75 20.5 19.75C20.9142 19.75 21.2501 20.0858 21.2501 20.5C21.2501 20.9142 20.9143 21.25 20.5001 21.25C20.0859 21.25 19.75 20.9142 19.75 20.5Z" fill="#353566"/>
<path d="M19.75 14V17.5C19.75 17.9142 20.0858 18.25 20.5 18.25C20.9142 18.25 21.25 17.9142 21.25 17.5V14C21.25 13.5858 20.9142 13.25 20.5 13.25C20.0858 13.25 19.75 13.5858 19.75 14Z" fill="#353566"/>
</svg>
