<svg width="24" height="24" viewBox="0 0 24 24" fill="none" xmlns="http://www.w3.org/2000/svg">
<g clip-path="url(#clip0_9001_277207)">
<path opacity="0.4" d="M18.8716 8.25H9.12843C8.42718 8.24999 7.85548 8.24999 7.39125 8.28791C6.91132 8.32713 6.48057 8.41059 6.07913 8.61513C5.44879 8.9363 4.9363 9.44879 4.61513 10.0791C4.41059 10.4806 4.32713 10.9113 4.28791 11.3913C4.24999 11.8555 4.24999 12.4272 4.25 13.1284V18.8716C4.24999 19.5728 4.24999 20.1445 4.28791 20.6088C4.32713 21.0887 4.41059 21.5194 4.61513 21.9209C4.9363 22.5512 5.44879 23.0637 6.07913 23.3849C6.48057 23.5894 6.91132 23.6729 7.39125 23.7121C7.85548 23.75 8.42716 23.75 9.12841 23.75H18.8716C19.5728 23.75 20.1445 23.75 20.6087 23.7121C21.0887 23.6729 21.5194 23.5894 21.9209 23.3849C22.5512 23.0637 23.0637 22.5512 23.3849 21.9209C23.5894 21.5194 23.6729 21.0887 23.7121 20.6087C23.75 20.1445 23.75 19.5728 23.75 18.8716V13.1284C23.75 12.4272 23.75 11.8555 23.7121 11.3913C23.6729 10.9113 23.5894 10.4806 23.3849 10.0791C23.0637 9.44879 22.5512 8.9363 21.9209 8.61513C21.5194 8.41059 21.0887 8.32713 20.6087 8.28791C20.1445 8.24999 19.5728 8.24999 18.8716 8.25Z" fill="#353566"/>
<path d="M10.3446 1.78914C10.118 1.73565 9.88208 1.73565 9.65546 1.78914C9.42983 1.8424 9.20099 1.97929 8.43939 2.47772L3.58227 5.65644C2.7492 6.20164 2.46895 6.39435 2.27036 6.63305C2.07954 6.86242 1.93625 7.12746 1.84882 7.41273C1.75783 7.70961 1.75005 8.04963 1.75005 9.04524V14.2C1.75005 15.0524 1.75064 15.6466 1.78843 16.1093C1.82552 16.5632 1.89465 16.8239 1.99529 17.0214C2.20627 17.4355 2.54015 17.7738 2.95079 17.9903C3.31721 18.1835 3.45766 18.6371 3.2645 19.0035C3.07134 19.3699 2.61771 19.5104 2.25129 19.3172C1.56689 18.9564 1.01041 18.3925 0.658779 17.7024C0.432438 17.2582 0.338079 16.7781 0.293417 16.2314C0.25004 15.7005 0.250046 15.0449 0.250053 14.2321L0.250026 8.93339C0.249718 8.0931 0.249505 7.51207 0.414662 6.97319C0.560378 6.49773 0.799204 6.05601 1.11724 5.67373C1.47771 5.24044 1.96399 4.92245 2.66727 4.46256L7.71934 1.15622C8.33298 0.754002 8.79534 0.450945 9.31087 0.329259C9.7641 0.222278 10.236 0.222278 10.6892 0.329259C11.2048 0.450946 11.6671 0.754003 12.2808 1.15622L17.3328 4.46256C18.0361 4.92245 18.5224 5.24044 18.8829 5.67373C18.997 5.81093 19.101 5.95579 19.194 6.10711C19.4111 6.45991 19.301 6.92186 18.9482 7.1389C18.5954 7.35594 18.1335 7.24588 17.9164 6.89308C17.8606 6.80228 17.7982 6.71537 17.7297 6.63305C17.5312 6.39435 17.2509 6.20164 16.4178 5.65645L11.5607 2.47772C10.7991 1.97929 10.5703 1.8424 10.3446 1.78914Z" fill="#353566"/>
<path d="M18.8712 8.25H9.12805C8.42679 8.24999 7.8551 8.24998 7.39087 8.28791C6.91094 8.32713 6.48019 8.41059 6.07875 8.61513C5.44841 8.9363 4.93592 9.44879 4.61475 10.0791C4.33522 10.6277 4.27685 11.2465 4.25811 11.9876C4.25203 12.2282 4.36184 12.4572 4.55334 12.6031L12.0903 18.3455L12.1817 18.4153C12.61 18.7427 12.9855 19.0297 13.4199 19.1455C13.7996 19.2467 14.1991 19.2467 14.5787 19.1455C15.0131 19.0297 15.3887 18.7427 15.8169 18.4153L15.9083 18.3455L23.4459 12.6026C23.6374 12.4567 23.7472 12.2278 23.7411 11.9871C23.7224 11.2463 23.664 10.6276 23.3845 10.0791C23.0633 9.44879 22.5508 8.9363 21.9205 8.61513C21.5191 8.41059 21.0883 8.32713 20.6084 8.28791C20.1441 8.24998 19.5725 8.24999 18.8712 8.25Z" fill="#353566"/>
</g>
<defs>
<clipPath id="clip0_9001_277207">
<rect width="24" height="24" fill="white"/>
</clipPath>
</defs>
</svg>
