<svg width="24" height="24" viewBox="0 0 24 24" fill="none" xmlns="http://www.w3.org/2000/svg">
<path opacity="0.4" d="M17.2326 1.75H5.76838C4.95555 1.74999 4.29993 1.74999 3.76902 1.79336C3.22238 1.83803 2.74224 1.93239 2.29802 2.15873C1.59242 2.51825 1.01874 3.09193 0.659214 3.79754C0.432874 4.24175 0.338514 4.7219 0.293852 5.26853C0.250475 5.79944 0.250481 6.45505 0.250488 7.26788V14.2321C0.250481 15.0449 0.250475 15.7006 0.293852 16.2315C0.338514 16.7781 0.432874 17.2582 0.659214 17.7025C1.01874 18.4081 1.59242 18.9818 2.29803 19.3413C2.74224 19.5676 3.22238 19.662 3.76902 19.7066C4.29993 19.75 4.95553 19.75 5.76836 19.75H12.2293C12.4763 19.75 12.7075 19.6284 12.8474 19.4249C12.9873 19.2213 13.018 18.9619 12.9296 18.7313C12.8626 18.5568 12.8282 18.3696 12.8301 18.179C12.8341 17.7812 12.996 17.4012 13.2801 17.1227L15.0801 15.3587C15.5158 14.9318 16.1471 14.8229 16.6836 15.0352L17.1512 15.2202C17.3496 15.2988 17.5721 15.2891 17.7629 15.1936C17.9537 15.0981 18.0948 14.9258 18.1508 14.72L18.283 14.2347C18.4967 13.4501 19.3006 12.9765 20.0938 13.1748C20.6229 13.3071 21.0167 13.7047 21.1661 14.1954L21.2361 14.4254C21.3091 14.6649 21.4968 14.8523 21.7365 14.9248L21.7834 14.939C22.0106 15.0077 22.2569 14.9648 22.4475 14.8233C22.6381 14.6818 22.7505 14.458 22.7505 14.2206V7.26788C22.7505 6.45505 22.7505 5.79944 22.7071 5.26853C22.6625 4.7219 22.5681 4.24175 22.3418 3.79754C21.9822 3.09193 21.4086 2.51825 20.703 2.15873C20.2587 1.93239 19.7786 1.83803 19.232 1.79336C18.701 1.74999 18.0454 1.74999 17.2326 1.75Z" fill="#353566"/>
<path d="M5.76783 1.75H17.232C18.0449 1.74999 18.7005 1.74999 19.2314 1.79336C19.778 1.83803 20.2582 1.93239 20.7024 2.15873C21.408 2.51825 21.9817 3.09193 22.3412 3.79754C22.6552 4.41369 22.7207 5.11608 22.7411 5.98902C22.7467 6.2292 22.637 6.45754 22.4459 6.60313L13.7874 13.2002C13.1985 13.6497 12.7373 14.0019 12.2081 14.1429C11.7441 14.2666 11.2558 14.2666 10.7918 14.1429C10.2626 14.0019 9.80136 13.6497 9.21249 13.2002L0.554013 6.60314C0.362914 6.45754 0.253131 6.2292 0.258751 5.98902C0.279174 5.11608 0.344716 4.41369 0.65866 3.79754C1.01819 3.09193 1.59186 2.51825 2.29747 2.15873C2.74169 1.93239 3.22183 1.83803 3.76847 1.79336C4.29937 1.74999 4.955 1.74999 5.76783 1.75Z" fill="#353566"/>
<path d="M16.855 17.0322C17.1508 16.7423 17.1556 16.2675 16.8657 15.9716C16.5758 15.6758 16.1009 15.671 15.8051 15.9609L14.1384 17.5943C13.9964 17.7335 13.9154 17.9235 13.9134 18.1224C13.9114 18.3213 13.9886 18.5129 14.1278 18.655L15.7945 20.355C16.0844 20.6507 16.5593 20.6555 16.8551 20.3655C17.1509 20.0755 17.1556 19.6006 16.8656 19.3049L15.7241 18.1405L16.855 17.0322Z" fill="#353566"/>
<path d="M20.7942 15.9719C21.0839 15.6759 21.5588 15.6709 21.8548 15.9607L23.5214 17.5923C23.6636 17.7315 23.7446 17.9214 23.7467 18.1204C23.7488 18.3193 23.6718 18.5109 23.5326 18.653L21.8659 20.3547C21.5761 20.6506 21.1012 20.6556 20.8053 20.3657C20.5094 20.0759 20.5044 19.601 20.7943 19.3051L21.936 18.1394L20.8054 17.0325C20.5094 16.7427 20.5044 16.2679 20.7942 15.9719Z" fill="#353566"/>
<path d="M20.391 15.0119C20.4914 14.6101 20.2471 14.2029 19.8453 14.1024C19.4434 14.0019 19.0362 14.2463 18.9358 14.6481L17.2691 21.3148C17.1686 21.7166 17.413 22.1238 17.8148 22.2243C18.2166 22.3247 18.6238 22.0804 18.7243 21.6786L20.391 15.0119Z" fill="#353566"/>
</svg>
