<svg width="24" height="24" viewBox="0 0 24 24" fill="none" xmlns="http://www.w3.org/2000/svg">
<path opacity="0.4" d="M17.2321 1.75H5.7679C4.95506 1.74999 4.29944 1.74999 3.76853 1.79336C3.2219 1.83803 2.74175 1.93239 2.29754 2.15873C1.59193 2.51825 1.01825 3.09193 0.658726 3.79754C0.432386 4.24175 0.338026 4.7219 0.293364 5.26853C0.249987 5.79944 0.249993 6.45505 0.25 7.26788V14.2321C0.249993 15.0449 0.249987 15.7006 0.293364 16.2315C0.338026 16.7781 0.432385 17.2582 0.658726 17.7025C1.01825 18.4081 1.59193 18.9818 2.29754 19.3413C2.74175 19.5676 3.2219 19.662 3.76853 19.7066C4.29944 19.75 4.95505 19.75 5.76788 19.75H12.366C12.5938 19.75 12.8093 19.6464 12.9517 19.4685C13.094 19.2905 13.1477 19.0576 13.0977 18.8353C13.0011 18.4064 12.95 17.9596 12.95 17.5C12.95 14.1587 15.6587 11.45 19 11.45C19.9594 11.45 20.8646 11.6728 21.6687 12.0687C21.9012 12.1832 22.1762 12.1695 22.3962 12.0326C22.6162 11.8957 22.75 11.655 22.75 11.3958V7.26788C22.75 6.45505 22.75 5.79944 22.7066 5.26853C22.662 4.7219 22.5676 4.24175 22.3413 3.79754C21.9817 3.09193 21.4081 2.51825 20.7025 2.15873C20.2582 1.93239 19.7781 1.83803 19.2315 1.79336C18.7006 1.74999 18.0449 1.74999 17.2321 1.75Z" fill="#353566"/>
<path d="M5.76807 1.75H17.2323C18.0451 1.74999 18.7007 1.74999 19.2316 1.79336C19.7783 1.83803 20.2584 1.93239 20.7026 2.15873C21.4082 2.51825 21.9819 3.09193 22.3415 3.79754C22.6554 4.41369 22.7209 5.11608 22.7414 5.98902C22.747 6.2292 22.6372 6.45754 22.4461 6.60313L13.7876 13.2002C13.1988 13.6497 12.7375 14.0019 12.2083 14.1429C11.7443 14.2666 11.2561 14.2666 10.7921 14.1429C10.2629 14.0019 9.8016 13.6497 9.21273 13.2002L0.554258 6.60314C0.363158 6.45754 0.253376 6.2292 0.258995 5.98902C0.279418 5.11608 0.34496 4.41369 0.658904 3.79754C1.01843 3.09193 1.59211 2.51825 2.29771 2.15873C2.74193 1.93239 3.22207 1.83803 3.76871 1.79336C4.29962 1.74999 4.95525 1.74999 5.76807 1.75Z" fill="#353566"/>
<path fill-rule="evenodd" clip-rule="evenodd" d="M19 12.75C16.3766 12.75 14.25 14.8766 14.25 17.5C14.25 20.1234 16.3766 22.25 19 22.25C21.6234 22.25 23.75 20.1234 23.75 17.5C23.75 14.8766 21.6234 12.75 19 12.75ZM21.0414 15.458C21.2854 15.702 21.2854 16.0978 21.0414 16.3418L17.8414 19.5418C17.5973 19.7859 17.2015 19.7859 16.9575 19.5418C16.7134 19.2978 16.7134 18.902 16.9575 18.658L20.1575 15.458C20.4016 15.2139 20.7973 15.2139 21.0414 15.458ZM17.75 15.5C17.3358 15.5 17 15.8358 17 16.25C17 16.6642 17.3358 17 17.75 17C18.1642 17 18.5001 16.6642 18.5001 16.25C18.5001 15.8358 18.1642 15.5 17.75 15.5ZM19.5 18.75C19.5 18.3358 19.8358 18 20.25 18C20.6642 18 21.0001 18.3358 21.0001 18.75C21.0001 19.1642 20.6643 19.5 20.2501 19.5C19.8359 19.5 19.5 19.1642 19.5 18.75Z" fill="#353566"/>
</svg>
