<svg width="24" height="24" viewBox="0 0 24 24" fill="none" xmlns="http://www.w3.org/2000/svg">
<path opacity="0.4" d="M17.2326 2.25H5.76838C4.95555 2.24999 4.29993 2.24999 3.76902 2.29336C3.22238 2.33803 2.74224 2.43239 2.29802 2.65873C1.59242 3.01825 1.01874 3.59193 0.659214 4.29754C0.432874 4.74175 0.338514 5.2219 0.293852 5.76853C0.250475 6.29944 0.250481 6.95505 0.250488 7.76788V14.7321C0.250481 15.5449 0.250475 16.2006 0.293852 16.7315C0.338514 17.2781 0.432874 17.7582 0.659214 18.2025C1.01874 18.9081 1.59242 19.4818 2.29803 19.8413C2.74224 20.0676 3.22238 20.162 3.76902 20.2066C4.29993 20.25 4.95553 20.25 5.76836 20.25H12.8005C13.2147 20.25 13.5505 19.9142 13.5505 19.5C13.5505 15.9378 16.4383 13.05 20.0005 13.05C20.6234 13.05 21.2245 13.1381 21.7926 13.302C22.019 13.3674 22.263 13.3225 22.4513 13.1808C22.6397 13.0391 22.7505 12.8171 22.7505 12.5814V7.76788C22.7505 6.95505 22.7505 6.29944 22.7071 5.76853C22.6625 5.2219 22.5681 4.74175 22.3418 4.29754C21.9822 3.59193 21.4086 3.01825 20.703 2.65873C20.2587 2.43239 19.7786 2.33803 19.232 2.29336C18.701 2.24999 18.0454 2.24999 17.2326 2.25Z" fill="#353566"/>
<path d="M5.76783 2.25H17.232C18.0449 2.24999 18.7005 2.24999 19.2314 2.29336C19.778 2.33803 20.2582 2.43239 20.7024 2.65873C21.408 3.01825 21.9817 3.59193 22.3412 4.29754C22.6552 4.91369 22.7207 5.61608 22.7411 6.48902C22.7467 6.7292 22.637 6.95754 22.4459 7.10313L13.7874 13.7002C13.1985 14.1497 12.7373 14.5019 12.2081 14.6429C11.7441 14.7666 11.2558 14.7666 10.7918 14.6429C10.2626 14.5019 9.80136 14.1497 9.21249 13.7002L0.554013 7.10314C0.362914 6.95754 0.253131 6.7292 0.258751 6.48902C0.279174 5.61608 0.344716 4.91369 0.65866 4.29754C1.01819 3.59193 1.59186 3.01825 2.29747 2.65873C2.74169 2.43239 3.22183 2.33803 3.76847 2.29336C4.29937 2.24999 4.955 2.24999 5.76783 2.25Z" fill="#353566"/>
<path d="M23.5303 17.0303C23.8232 16.7374 23.8232 16.2626 23.5303 15.9697C23.2374 15.6768 22.7625 15.6768 22.4696 15.9697L18.4999 19.9393L16.5303 17.9697C16.2374 17.6768 15.7625 17.6768 15.4696 17.9697C15.1767 18.2626 15.1767 18.7374 15.4696 19.0303L17.9696 21.5303C18.2625 21.8232 18.7374 21.8232 19.0303 21.5303L23.5303 17.0303Z" fill="#353566"/>
</svg>
