<svg width="24" height="24" viewBox="0 0 24 24" fill="none" xmlns="http://www.w3.org/2000/svg">
<g clip-path="url(#clip0_9001_276967)">
<path opacity="0.4" d="M7.95917 6.24997C7.3017 6.24965 6.82201 6.24942 6.37232 6.38125C5.97585 6.49748 5.60519 6.68823 5.28017 6.94329C4.91152 7.2326 4.63289 7.62307 4.25101 8.15825L0.80868 12.9775C0.670146 13.1712 0.54792 13.342 0.458806 13.5342C0.380432 13.7032 0.323355 13.8813 0.288886 14.0644C0.249695 14.2726 0.249849 14.4827 0.250023 14.7208L0.250046 19.0314C0.250037 19.7048 0.25003 20.2555 0.286598 20.7031C0.324448 21.1663 0.405183 21.5847 0.604275 21.9755C0.915864 22.587 1.41305 23.0842 2.02458 23.3958C2.41532 23.5949 2.83372 23.6756 3.29698 23.7135C3.74454 23.75 4.29524 23.75 4.96861 23.75H19.0315C19.7049 23.75 20.2556 23.75 20.7031 23.7135C21.1664 23.6756 21.5848 23.5949 21.9755 23.3958C22.587 23.0842 23.0842 22.587 23.3958 21.9755C23.5949 21.5847 23.6756 21.1663 23.7135 20.7031C23.7501 20.2555 23.7501 19.7048 23.75 19.0314L23.7501 14.7208C23.7502 14.4827 23.7504 14.2726 23.7112 14.0644C23.6767 13.8813 23.6197 13.7032 23.5413 13.5342C23.4522 13.342 23.33 13.1712 23.1914 12.9776L19.7491 8.15824C19.3672 7.62306 19.0886 7.23259 18.7199 6.94329C18.3949 6.68823 18.0242 6.49748 17.6278 6.38125C17.1781 6.24942 16.6984 6.24965 16.0409 6.24997H7.95917Z" fill="#353566"/>
<path d="M12 0.249969C12.4142 0.249969 12.75 0.585756 12.75 0.99997V11.1893L14.4697 9.46964C14.7626 9.17675 15.2374 9.17675 15.5303 9.46964C15.8232 9.76253 15.8232 10.2374 15.5303 10.5303L12.5303 13.5303C12.3897 13.671 12.1989 13.75 12 13.75C11.8011 13.75 11.6103 13.671 11.4697 13.5303L8.46967 10.5303C8.17678 10.2374 8.17678 9.76253 8.46967 9.46964C8.76256 9.17675 9.23744 9.17675 9.53033 9.46964L11.25 11.1893V0.999969C11.25 0.585756 11.5858 0.249969 12 0.249969Z" fill="#353566"/>
<path d="M1 13.75C0.585786 13.75 0.25 14.0858 0.25 14.5V20.5C0.25 22.2949 1.70507 23.75 3.5 23.75H20.5C22.2949 23.75 23.75 22.2949 23.75 20.5V14.5C23.75 14.0858 23.4142 13.75 23 13.75H16.7831C16.344 13.75 15.9371 13.9803 15.7112 14.3568L14.7938 15.8858C14.6583 16.1117 14.4142 16.25 14.1507 16.25H9.84929C9.58584 16.25 9.34171 16.1117 9.20617 15.8858L8.28877 14.3568C8.06287 13.9803 7.65598 13.75 7.2169 13.75H1Z" fill="#353566"/>
</g>
<defs>
<clipPath id="clip0_9001_276967">
<rect width="24" height="24" fill="white"/>
</clipPath>
</defs>
</svg>
