<svg width="24" height="24" viewBox="0 0 24 24" fill="none" xmlns="http://www.w3.org/2000/svg">
<path opacity="0.4" d="M5.20528 0.534416C4.1507 0.011915 2.88218 0.22271 2.05182 1.0567C1.33659 1.77507 1.07459 2.82967 1.36858 3.7999L3.55035 11L1.36857 18.2001C1.07457 19.1704 1.33657 20.225 2.05181 20.9434C2.88218 21.7774 4.15071 21.9881 5.20529 21.4656L9.88549 19.1468C10.1914 18.9952 10.3563 18.6562 10.2868 18.322C10.1657 17.7396 10.3438 17.1133 10.8089 16.6812C12.4312 15.174 14.6095 14.25 16.9994 14.25C17.6748 14.25 18.3327 14.3238 18.9655 14.4633C19.1324 14.5001 19.3068 14.4788 19.46 14.403L21.1585 13.5614C23.274 12.5132 23.274 9.48678 21.1585 8.43864L5.20528 0.534416Z" fill="#353566"/>
<path d="M11.8763 11.2442L2.88405 13.1991L3.55042 11L2.88403 8.80078L11.8763 10.7556C12.1388 10.8127 12.1388 11.1871 11.8763 11.2442Z" fill="#353566"/>
<path d="M12.5105 18.5127C13.6886 17.4182 15.2651 16.75 16.9994 16.75C18.7343 16.75 20.3113 17.4187 21.4895 18.5138C21.7928 18.7958 22.2674 18.7785 22.5494 18.4751C22.8314 18.1717 22.8141 17.6971 22.5107 17.4151C21.066 16.0723 19.1279 15.25 16.9994 15.25C14.8716 15.25 12.9341 16.0717 11.4896 17.4138C11.1861 17.6957 11.1687 18.1702 11.4506 18.4737C11.7325 18.7772 12.2071 18.7946 12.5105 18.5127Z" fill="#353566"/>
<path d="M17.0033 20.0835C16.2186 20.0835 15.5008 20.414 14.9698 20.9651C14.6823 21.2633 14.2075 21.2721 13.9093 20.9846C13.611 20.6972 13.6023 20.2224 13.8897 19.9241C14.6832 19.1009 15.7828 18.5835 17.0033 18.5835C18.2238 18.5835 19.3234 19.1009 20.1168 19.9241C20.4043 20.2224 20.3955 20.6972 20.0973 20.9846C19.799 21.2721 19.3242 21.2633 19.0368 20.9651C18.5057 20.414 17.788 20.0835 17.0033 20.0835Z" fill="#353566"/>
<path d="M17.0001 21.5C16.4478 21.5 16.0001 21.9477 16.0001 22.5C16.0001 23.0523 16.4478 23.5 17.0001 23.5C17.5523 23.5 18.0002 23.0523 18.0002 22.5C18.0002 21.9477 17.5523 21.5 17.0001 21.5Z" fill="#353566"/>
</svg>
