<svg width="24" height="24" viewBox="0 0 24 24" fill="none" xmlns="http://www.w3.org/2000/svg">
<path fill-rule="evenodd" clip-rule="evenodd" d="M16.8324 2.25H6.16762C5.285 2.24999 4.57692 2.24999 4.00433 2.29677C3.41601 2.34484 2.905 2.44601 2.43404 2.68597C1.68139 3.06947 1.06947 3.68139 0.685975 4.43404C0.44601 4.905 0.344838 5.41601 0.29677 6.00433C0.284825 6.15053 0.27593 6.30557 0.269307 6.47008C0.268787 6.47914 0.26843 6.48819 0.268238 6.49725C0.249991 6.97101 0.249995 7.52272 0.25 8.16761V14.3324C0.249994 15.215 0.249988 15.9231 0.29677 16.4957C0.344838 17.084 0.44601 17.595 0.685975 18.066C1.06947 18.8186 1.68139 19.4305 2.43404 19.814C2.905 20.054 3.41601 20.1552 4.00433 20.2032C4.57691 20.25 5.28499 20.25 6.16761 20.25H13.9565C14.3707 20.25 14.7065 19.9142 14.7065 19.5C14.7065 19.0858 14.3707 18.75 13.9565 18.75H6.2C5.27754 18.75 4.6308 18.7494 4.12648 18.7082C3.63092 18.6677 3.33928 18.5918 3.11502 18.4775C2.64462 18.2378 2.26217 17.8554 2.02248 17.385C1.90822 17.1607 1.83228 16.8691 1.79179 16.3735C1.75058 15.8692 1.75 15.2225 1.75 14.3L1.75002 8.01437L9.21254 13.7002C9.80141 14.1498 10.2627 14.5019 10.7919 14.6429C11.2559 14.7666 11.7441 14.7666 12.2081 14.6429C12.7373 14.5019 13.1986 14.1498 13.7875 13.7002L21.25 8.01436L21.25 10.8689C21.25 11.2831 21.5858 11.6189 22 11.6189C22.4142 11.6189 22.75 11.2831 22.75 10.8689V8.16761C22.75 7.52227 22.75 6.97025 22.7317 6.49627C22.7315 6.48787 22.7312 6.47947 22.7307 6.47107C22.7241 6.30619 22.7152 6.15083 22.7032 6.00433C22.6552 5.41601 22.554 4.905 22.314 4.43404C21.9305 3.68139 21.3186 3.06947 20.566 2.68597C20.095 2.44601 19.584 2.34484 18.9957 2.29677C18.4231 2.24999 17.715 2.24999 16.8324 2.25ZM21.2108 6.15847L21.2082 6.12648C21.1677 5.63092 21.0918 5.33928 20.9775 5.11502C20.7378 4.64462 20.3554 4.26217 19.885 4.02248C19.6607 3.90822 19.3691 3.83228 18.8735 3.79179C18.3692 3.75058 17.7225 3.75 16.8 3.75H6.2C5.27754 3.75 4.6308 3.75058 4.12648 3.79179C3.63092 3.83228 3.33928 3.90822 3.11502 4.02248C2.64462 4.26217 2.26217 4.64462 2.02248 5.11502C1.90822 5.33928 1.83228 5.63092 1.79179 6.12648L1.78924 6.15848L10.0152 12.4259C10.7638 12.9963 10.9741 13.1392 11.1781 13.1935C11.389 13.2497 11.611 13.2497 11.8219 13.1935C12.0259 13.1392 12.2362 12.9963 12.9848 12.4259L21.2108 6.15847Z" fill="#353566"/>
<path d="M20 13.25C20.4142 13.25 20.75 13.5858 20.75 14V19.1893L22.4697 17.4697C22.7626 17.1768 23.2374 17.1768 23.5303 17.4697C23.8232 17.7626 23.8232 18.2374 23.5303 18.5303L20.5303 21.5303C20.3897 21.671 20.1989 21.75 20 21.75C19.8011 21.75 19.6103 21.671 19.4697 21.5303L16.4697 18.5303C16.1768 18.2374 16.1768 17.7626 16.4697 17.4697C16.7626 17.1768 17.2374 17.1768 17.5303 17.4697L19.25 19.1893V14C19.25 13.5858 19.5858 13.25 20 13.25Z" fill="#353566"/>
</svg>
