<svg width="24" height="24" viewBox="0 0 24 24" fill="none" xmlns="http://www.w3.org/2000/svg">
<path fill-rule="evenodd" clip-rule="evenodd" d="M6.16762 1.75H16.8324C17.715 1.74999 18.4231 1.74999 18.9957 1.79677C19.584 1.84484 20.095 1.94601 20.566 2.18597C21.3186 2.56947 21.9305 3.18139 22.314 3.93404C22.554 4.405 22.6552 4.91601 22.7032 5.50433C22.7152 5.65083 22.7241 5.80619 22.7307 5.97107C22.7312 5.97947 22.7315 5.98787 22.7317 5.99627C22.75 6.47025 22.75 7.02227 22.75 7.66761V12.9234C22.75 13.3376 22.4142 13.6734 22 13.6734C21.5858 13.6734 21.25 13.3376 21.25 12.9234L21.25 7.51436L13.7875 13.2002C13.1986 13.6498 12.7373 14.0019 12.2081 14.1429C11.7441 14.2666 11.2559 14.2666 10.7919 14.1429C10.2627 14.0019 9.80141 13.6498 9.21254 13.2002L1.75002 7.51437L1.75 13.8C1.75 14.7225 1.75058 15.3692 1.79179 15.8735C1.83228 16.3691 1.90822 16.6607 2.02248 16.885C2.26217 17.3554 2.64462 17.7378 3.11502 17.9775C3.33928 18.0918 3.63092 18.1677 4.12648 18.2082C4.6308 18.2494 5.27754 18.25 6.2 18.25H12.6449C13.0591 18.25 13.3949 18.5858 13.3949 19C13.3949 19.4142 13.0591 19.75 12.6449 19.75H6.16761C5.28499 19.75 4.57691 19.75 4.00433 19.7032C3.41601 19.6552 2.905 19.554 2.43404 19.314C1.68139 18.9305 1.06947 18.3186 0.685975 17.566C0.44601 17.095 0.344838 16.584 0.29677 15.9957C0.249988 15.4231 0.249994 14.715 0.25 13.8324V7.66762C0.249995 7.02273 0.249991 6.47101 0.268237 5.99725C0.26843 5.98819 0.268787 5.97914 0.269307 5.97009C0.27593 5.80557 0.284825 5.65053 0.29677 5.50433C0.344838 4.91601 0.44601 4.405 0.685975 3.93404C1.06947 3.18139 1.68139 2.56947 2.43404 2.18597C2.905 1.94601 3.41601 1.84484 4.00433 1.79677C4.57692 1.74999 5.285 1.74999 6.16762 1.75ZM21.2082 5.62648L21.2108 5.65847L12.9848 11.9259C12.2362 12.4963 12.0259 12.6392 11.8219 12.6935C11.611 12.7497 11.389 12.7497 11.1781 12.6935C10.9741 12.6392 10.7638 12.4963 10.0152 11.9259L1.78924 5.65848L1.79179 5.62648C1.83228 5.13092 1.90822 4.83928 2.02248 4.61502C2.26217 4.14462 2.64462 3.76217 3.11502 3.52248C3.33928 3.40822 3.63092 3.33228 4.12648 3.29179C4.6308 3.25058 5.27754 3.25 6.2 3.25H16.8C17.7225 3.25 18.3692 3.25058 18.8735 3.29179C19.3691 3.33228 19.6607 3.40822 19.885 3.52248C20.3554 3.76217 20.7378 4.14462 20.9775 4.61502C21.0918 4.83928 21.1677 5.13092 21.2082 5.62648Z" fill="#353566"/>
<path fill-rule="evenodd" clip-rule="evenodd" d="M19.8622 13.6032C19.4456 12.7389 18.2146 12.7389 17.798 13.6032L16.9592 15.3433L15.0366 15.5942C14.0776 15.7193 13.6954 16.9031 14.4002 17.5654L15.799 18.8798L15.4469 20.7622C15.2699 21.7082 16.2676 22.4377 17.1154 21.9822L18.8301 21.061L20.5448 21.9822C21.3926 22.4377 22.3903 21.7082 22.2133 20.7622L21.8612 18.8798L23.26 17.5654C23.9648 16.9031 23.5827 15.7193 22.6236 15.5942L20.7011 15.3433L19.8622 13.6032ZM18.0362 15.9877L18.8301 14.3407L19.624 15.9877C19.7767 16.3044 20.0789 16.5227 20.4275 16.5682L22.2436 16.8052L20.9221 18.047C20.6633 18.2902 20.5463 18.6485 20.6116 18.9976L20.9446 20.778L19.3231 19.9068C19.0152 19.7414 18.645 19.7414 18.3371 19.9068L16.7156 20.778L17.0487 18.9976C17.114 18.6485 16.9969 18.2902 16.7381 18.047L15.4167 16.8052L17.2327 16.5682C17.5814 16.5227 17.8835 16.3044 18.0362 15.9877Z" fill="#353566"/>
</svg>
