<svg width="24" height="24" viewBox="0 0 24 24" fill="none" xmlns="http://www.w3.org/2000/svg">
<path fill-rule="evenodd" clip-rule="evenodd" d="M3.38559 16.9557C3.02483 16.595 2.71129 16.2814 2.44847 15.9996C2.43772 15.9888 2.4273 15.9776 2.41722 15.966C2.31609 15.8569 2.22274 15.7525 2.13737 15.6519C1.8146 15.2717 1.56203 14.8971 1.41899 14.4569C1.19367 13.7634 1.19367 13.0164 1.41899 12.323C1.56203 11.8827 1.8146 11.5082 2.13737 11.128C2.44993 10.7598 2.86942 10.3403 3.38555 9.8242L9.8242 3.38555C10.3403 2.86942 10.7598 2.44993 11.128 2.13737C11.5082 1.8146 11.8827 1.56203 12.323 1.41899C13.0164 1.19367 13.7634 1.19367 14.4569 1.41899C14.8971 1.56203 15.2717 1.8146 15.6519 2.13737C16.0201 2.44994 16.4396 2.86944 16.9557 3.38558L20.6144 7.04428C21.1306 7.56041 21.5501 7.9799 21.8626 8.34809C22.1854 8.7283 22.438 9.10286 22.581 9.54308C22.8063 10.2366 22.8063 10.9836 22.581 11.677C22.438 12.1173 22.1854 12.4918 21.8626 12.872C21.5501 13.2402 21.1306 13.6597 20.6144 14.1758L14.1759 20.6144C13.9442 20.846 13.7321 21.0582 13.5352 21.25H20C20.4142 21.25 20.75 21.5858 20.75 22C20.75 22.4142 20.4142 22.75 20 22.75L10.6147 22.75C10.6116 22.75 10.6085 22.75 10.6055 22.75L2 22.75C1.58579 22.75 1.25 22.4142 1.25 22C1.25 21.5858 1.58579 21.25 2 21.25L7.68487 21.25C7.48807 21.0582 7.2759 20.846 7.04427 20.6144L3.38559 16.9557ZM13.9934 2.84558C13.6012 2.71814 13.1787 2.71814 12.7865 2.84558C12.6096 2.90305 12.408 3.01834 12.0987 3.28087C11.7828 3.5491 11.4063 3.92474 10.8624 4.46867L4.46867 10.8624C3.92474 11.4063 3.5491 11.7828 3.28087 12.0987C3.01834 12.408 2.90305 12.6096 2.84558 12.7865C2.71814 13.1787 2.71814 13.6012 2.84558 13.9934C2.90275 14.1694 3.01712 14.3698 3.27674 14.6763L11.5101 13.5636C12.428 13.4396 12.6703 13.393 12.8471 13.2905C13.0308 13.1842 13.1834 13.0315 13.2898 12.8479C13.3922 12.671 13.4389 12.4287 13.5629 11.5109L14.6757 3.27624C14.3695 3.01698 14.1692 2.90272 13.9934 2.84558ZM10.6064 21.25C10.6088 21.25 10.6113 21.25 10.6137 21.25C10.8162 21.2496 11.0186 21.2178 11.2135 21.1544C11.3904 21.0969 11.592 20.9817 11.9013 20.7191C12.2172 20.4509 12.5937 20.0753 13.1376 19.5313L19.5313 13.1376C20.0753 12.5937 20.4509 12.2172 20.7191 11.9013C20.9817 11.592 21.0969 11.3904 21.1544 11.2135C21.2819 10.8213 21.2819 10.3988 21.1544 10.0066C21.0969 9.82971 20.9817 9.62811 20.7191 9.31886C20.4509 9.00291 20.0753 8.62644 19.5313 8.08252L16.015 4.56618L15.0317 11.8433C14.9351 12.5637 14.8589 13.1316 14.5878 13.5996C14.3502 14.01 14.0092 14.3509 13.5989 14.5886C13.1308 14.8597 12.563 14.9358 11.8426 15.0324L4.56675 16.0156L8.08251 19.5313C8.62644 20.0753 9.00291 20.4509 9.31886 20.7191C9.62811 20.9817 9.82971 21.0969 10.0066 21.1544C10.2015 21.2178 10.4039 21.2496 10.6064 21.25Z" fill="#353566"/>
</svg>
