<svg width="24" height="24" viewBox="0 0 24 24" fill="none" xmlns="http://www.w3.org/2000/svg">
<path fill-rule="evenodd" clip-rule="evenodd" d="M6.16762 1.75H16.8324C17.715 1.74999 18.4231 1.74999 18.9957 1.79677C19.584 1.84484 20.095 1.94601 20.566 2.18597C21.3186 2.56947 21.9305 3.18139 22.314 3.93404C22.554 4.405 22.6552 4.91601 22.7032 5.50433C22.7152 5.65083 22.7241 5.80619 22.7307 5.97107C22.7312 5.97947 22.7315 5.98787 22.7317 5.99627C22.75 6.47025 22.75 7.02227 22.75 7.66761V13.1681C22.75 13.5823 22.4142 13.9181 22 13.9181C21.5858 13.9181 21.25 13.5823 21.25 13.1681L21.25 7.51436L13.7875 13.2002C13.1986 13.6498 12.7373 14.0019 12.2081 14.1429C11.7441 14.2666 11.2559 14.2666 10.7919 14.1429C10.2627 14.0019 9.80141 13.6498 9.21254 13.2002L1.75002 7.51437L1.75 13.8C1.75 14.7225 1.75058 15.3692 1.79179 15.8735C1.83228 16.3691 1.90822 16.6607 2.02248 16.885C2.26217 17.3554 2.64462 17.7378 3.11502 17.9775C3.33928 18.0918 3.63092 18.1677 4.12648 18.2082C4.6308 18.2494 5.27754 18.25 6.2 18.25H11.7531C12.1673 18.25 12.5031 18.5858 12.5031 19C12.5031 19.4142 12.1673 19.75 11.7531 19.75H6.16761C5.28499 19.75 4.57691 19.75 4.00433 19.7032C3.41601 19.6552 2.905 19.554 2.43404 19.314C1.68139 18.9305 1.06947 18.3186 0.685975 17.566C0.44601 17.095 0.344838 16.584 0.29677 15.9957C0.249988 15.4231 0.249994 14.715 0.25 13.8324V7.66762C0.249995 7.02273 0.249991 6.47101 0.268237 5.99725C0.26843 5.98819 0.268787 5.97914 0.269307 5.97009C0.27593 5.80557 0.284825 5.65053 0.29677 5.50433C0.344838 4.91601 0.44601 4.405 0.685975 3.93404C1.06947 3.18139 1.68139 2.56947 2.43404 2.18597C2.905 1.94601 3.41601 1.84484 4.00433 1.79677C4.57692 1.74999 5.285 1.74999 6.16762 1.75ZM21.2082 5.62648L21.2108 5.65847L12.9848 11.9259C12.2362 12.4963 12.0259 12.6392 11.8219 12.6935C11.611 12.7497 11.389 12.7497 11.1781 12.6935C10.9741 12.6392 10.7638 12.4963 10.0152 11.9259L1.78924 5.65848L1.79179 5.62648C1.83228 5.13092 1.90822 4.83928 2.02248 4.61502C2.26217 4.14462 2.64462 3.76217 3.11502 3.52248C3.33928 3.40822 3.63092 3.33228 4.12648 3.29179C4.6308 3.25058 5.27754 3.25 6.2 3.25H16.8C17.7225 3.25 18.3692 3.25058 18.8735 3.29179C19.3691 3.33228 19.6607 3.40822 19.885 3.52248C20.3554 3.76217 20.7378 4.14462 20.9775 4.61502C21.0918 4.83928 21.1677 5.13092 21.2082 5.62648Z" fill="#353566"/>
<path d="M16.855 17.0322C17.1508 16.7423 17.1556 16.2675 16.8657 15.9716C16.5758 15.6758 16.1009 15.671 15.8051 15.9609L14.1384 17.5943C13.9964 17.7335 13.9154 17.9235 13.9134 18.1224C13.9114 18.3213 13.9886 18.5129 14.1278 18.655L15.7945 20.355C16.0844 20.6507 16.5593 20.6555 16.8551 20.3655C17.1509 20.0755 17.1556 19.6006 16.8656 19.3049L15.7241 18.1405L16.855 17.0322Z" fill="#353566"/>
<path d="M20.7942 15.9719C21.0839 15.6759 21.5588 15.6709 21.8548 15.9607L23.5214 17.5923C23.6636 17.7315 23.7446 17.9214 23.7467 18.1204C23.7488 18.3193 23.6718 18.5109 23.5326 18.653L21.8659 20.3547C21.5761 20.6506 21.1012 20.6556 20.8053 20.3657C20.5094 20.0759 20.5044 19.601 20.7943 19.3051L21.936 18.1394L20.8054 17.0325C20.5094 16.7427 20.5044 16.2679 20.7942 15.9719Z" fill="#353566"/>
<path d="M20.391 15.0119C20.4914 14.6101 20.2471 14.2029 19.8453 14.1024C19.4434 14.0019 19.0362 14.2463 18.9358 14.6481L17.2691 21.3148C17.1686 21.7166 17.413 22.1238 17.8148 22.2243C18.2166 22.3247 18.6238 22.0804 18.7243 21.6786L20.391 15.0119Z" fill="#353566"/>
</svg>
