<svg width="24" height="24" viewBox="0 0 24 24" fill="none" xmlns="http://www.w3.org/2000/svg">
<g clip-path="url(#clip0_9001_277280)">
<path d="M6.5 0.25C5.25736 0.25 4.25 1.25736 4.25 2.5V10C4.25 10.4142 4.58579 10.75 5 10.75C5.41421 10.75 5.75 10.4142 5.75 10V2.5C5.75 2.08579 6.08579 1.75 6.5 1.75H17.5C17.9142 1.75 18.25 2.08579 18.25 2.5V10C18.25 10.4142 18.5858 10.75 19 10.75C19.4142 10.75 19.75 10.4142 19.75 10V2.5C19.75 1.25736 18.7426 0.25 17.5 0.25H6.5Z" fill="#353566"/>
<path fill-rule="evenodd" clip-rule="evenodd" d="M1.89477 10.8623C1.66344 10.7191 1.3727 10.7124 1.13502 10.8448C0.897339 10.9772 0.75 11.2279 0.75 11.5V18.2321C0.749993 19.0449 0.749988 19.7006 0.793364 20.2315C0.838026 20.7781 0.932386 21.2582 1.15873 21.7025C1.51825 22.4081 2.09193 22.9818 2.79754 23.3413C3.24175 23.5676 3.7219 23.662 4.26853 23.7066C4.79944 23.75 5.45505 23.75 6.26788 23.75H17.7321C18.545 23.75 19.2006 23.75 19.7315 23.7066C20.2781 23.662 20.7582 23.5676 21.2025 23.3413C21.9081 22.9818 22.4817 22.4081 22.8413 21.7025C23.0676 21.2582 23.162 20.7781 23.2066 20.2315C23.25 19.7006 23.25 19.045 23.25 18.2321V11.5C23.25 11.2279 23.1027 10.9772 22.865 10.8448C22.6273 10.7124 22.3366 10.7191 22.1052 10.8623L13.7107 16.0589C12.9001 16.5607 12.6421 16.7089 12.3848 16.7669C12.1315 16.824 11.8685 16.824 11.6152 16.7669C11.3579 16.7089 11.0999 16.5607 10.2893 16.0589L1.89477 10.8623ZM2.25 18.2V12.8464L9.60159 17.3974C10.2663 17.8094 10.7507 18.1097 11.2853 18.2302C11.7559 18.3363 12.2441 18.3363 12.7147 18.2302C13.2493 18.1097 13.7337 17.8094 14.3984 17.3974L21.75 12.8464V18.2C21.75 19.0525 21.7494 19.6467 21.7116 20.1093C21.6745 20.5632 21.6054 20.824 21.5048 21.0215C21.289 21.4448 20.9448 21.789 20.5215 22.0048C20.324 22.1054 20.0632 22.1745 19.6093 22.2116C19.1467 22.2494 18.5525 22.25 17.7 22.25H6.3C5.44755 22.25 4.85331 22.2494 4.39068 22.2116C3.93681 22.1745 3.67604 22.1054 3.47852 22.0048C3.05516 21.789 2.71095 21.4448 2.49524 21.0215C2.3946 20.824 2.32547 20.5632 2.28838 20.1093C2.25058 19.6467 2.25 19.0525 2.25 18.2Z" fill="#353566"/>
<path d="M15.0303 11.0302C14.7374 11.3231 14.2626 11.3231 13.9697 11.0302L12.0001 9.0606L10.0303 11.0303C9.73743 11.3232 9.26255 11.3232 8.96966 11.0303C8.67677 10.7374 8.67677 10.2626 8.96966 9.96967L10.9394 7.99994L8.9697 6.03025C8.67681 5.73735 8.67681 5.26248 8.9697 4.96959C9.26259 4.67669 9.73747 4.67669 10.0304 4.96959L12.0001 6.93928L13.9696 4.9697C14.2625 4.67681 14.7374 4.67681 15.0303 4.9697C15.3232 5.26259 15.3232 5.73747 15.0303 6.03036L13.0607 7.99994L15.0303 9.96956C15.3232 10.2625 15.3232 10.7373 15.0303 11.0302Z" fill="#353566"/>
</g>
<defs>
<clipPath id="clip0_9001_277280">
<rect width="24" height="24" fill="white"/>
</clipPath>
</defs>
</svg>
