<svg width="24" height="24" viewBox="0 0 24 24" fill="none" xmlns="http://www.w3.org/2000/svg">
<g clip-path="url(#clip0_9001_277370)">
<path d="M4.25 2.5C4.25 1.25736 5.25736 0.25 6.5 0.25H17.5C18.7426 0.25 19.75 1.25736 19.75 2.5V10C19.75 10.4142 19.4142 10.75 19 10.75C18.5858 10.75 18.25 10.4142 18.25 10V2.5C18.25 2.08579 17.9142 1.75 17.5 1.75H6.5C6.08579 1.75 5.75 2.08579 5.75 2.5V10C5.75 10.4142 5.41421 10.75 5 10.75C4.58579 10.75 4.25 10.4142 4.25 10V2.5Z" fill="#353566"/>
<path fill-rule="evenodd" clip-rule="evenodd" d="M1.13502 10.8448C1.3727 10.7124 1.66344 10.7191 1.89477 10.8623L10.2893 16.0589C11.0999 16.5607 11.3579 16.7089 11.6152 16.7669C11.8685 16.824 12.1315 16.824 12.3848 16.7669C12.6421 16.7089 12.9001 16.5607 13.7107 16.0589L22.1052 10.8623C22.3366 10.7191 22.6273 10.7124 22.865 10.8448C23.1027 10.9772 23.25 11.2279 23.25 11.5V18.2321C23.25 19.045 23.25 19.7006 23.2066 20.2315C23.162 20.7781 23.0676 21.2582 22.8413 21.7025C22.4817 22.4081 21.9081 22.9818 21.2025 23.3413C20.7582 23.5676 20.2781 23.662 19.7315 23.7066C19.2006 23.75 18.545 23.75 17.7321 23.75H6.26788C5.45505 23.75 4.79944 23.75 4.26853 23.7066C3.7219 23.662 3.24175 23.5676 2.79754 23.3413C2.09193 22.9818 1.51825 22.4081 1.15873 21.7025C0.932386 21.2582 0.838026 20.7781 0.793364 20.2315C0.749988 19.7006 0.749993 19.045 0.75 18.2321V11.5C0.75 11.2279 0.897339 10.9772 1.13502 10.8448ZM2.25 12.8464V18.2C2.25 19.0525 2.25058 19.6467 2.28838 20.1093C2.32547 20.5632 2.3946 20.824 2.49524 21.0215C2.71095 21.4448 3.05516 21.789 3.47852 22.0048C3.67604 22.1054 3.93681 22.1745 4.39068 22.2116C4.85331 22.2494 5.44755 22.25 6.3 22.25H17.7C18.5525 22.25 19.1467 22.2494 19.6093 22.2116C20.0632 22.1745 20.324 22.1054 20.5215 22.0048C20.9448 21.789 21.289 21.4448 21.5048 21.0215C21.6054 20.824 21.6745 20.5632 21.7116 20.1093C21.7494 19.6467 21.75 19.0525 21.75 18.2V12.8464L14.3984 17.3974C13.7337 17.8094 13.2493 18.1097 12.7147 18.2302C12.2441 18.3363 11.7559 18.3363 11.2853 18.2302C10.7507 18.1097 10.2663 17.8094 9.60159 17.3974L2.25 12.8464Z" fill="#353566"/>
<path fill-rule="evenodd" clip-rule="evenodd" d="M10.24 3.8501C9.30009 3.8501 8.52882 4.25863 8.00797 4.90182C7.49886 5.53053 7.25 6.35293 7.25 7.18985C7.25 8.80901 8.23638 10.0982 9.19278 10.9763C10.1647 11.8686 11.233 12.4551 11.6646 12.6709L12 12.8386L12.3354 12.6709C12.767 12.4551 13.8353 11.8686 14.8072 10.9763C15.7636 10.0982 16.75 8.80901 16.75 7.18985C16.75 6.35293 16.5011 5.53053 15.992 4.90182C15.4712 4.25863 14.6999 3.8501 13.76 3.8501C13.0388 3.8501 12.4366 4.14869 12 4.47772C11.5634 4.14869 10.9612 3.8501 10.24 3.8501ZM8.75 7.18985C8.75 6.63701 8.91559 6.16454 9.17369 5.84581C9.42007 5.54156 9.7688 5.3501 10.24 5.3501C10.7246 5.3501 11.1816 5.6933 11.4269 5.98393L12 6.66269L12.5731 5.98393C12.8184 5.6933 13.2754 5.3501 13.76 5.3501C14.2312 5.3501 14.5799 5.54156 14.8263 5.84581C15.0844 6.16454 15.25 6.63701 15.25 7.18985C15.25 8.18094 14.6364 9.09684 13.7928 9.87134C13.1551 10.4568 12.456 10.8959 12 11.151C11.544 10.8959 10.8449 10.4568 10.2072 9.87134C9.36362 9.09684 8.75 8.18094 8.75 7.18985Z" fill="#353566"/>
</g>
<defs>
<clipPath id="clip0_9001_277370">
<rect width="24" height="24" fill="white"/>
</clipPath>
</defs>
</svg>
