<svg width="24" height="24" viewBox="0 0 24 24" fill="none" xmlns="http://www.w3.org/2000/svg">
<path d="M16.125 3C16.125 2.65482 15.8452 2.375 15.5 2.375C15.1548 2.375 14.875 2.65482 14.875 3V3.875H12.5C12.1548 3.875 11.875 4.15482 11.875 4.5C11.875 4.84518 12.1548 5.125 12.5 5.125H16.647C16.3181 5.84799 15.9399 6.41927 15.5001 6.88668C15.2636 6.63549 15.0487 6.35827 14.8513 6.04983C14.6653 5.75907 14.2788 5.67418 13.988 5.86022C13.6973 6.04625 13.6124 6.43277 13.7984 6.72352C14.0263 7.07975 14.2738 7.40099 14.5421 7.69222C14.1283 7.9678 13.6602 8.2059 13.1253 8.41985C12.8049 8.54804 12.649 8.91177 12.7772 9.23226C12.9054 9.55275 13.2691 9.70864 13.5896 9.58044C14.2993 9.29656 14.9343 8.96239 15.5001 8.54732C16.0629 8.96011 16.697 9.295 17.4104 9.58036C17.7309 9.70856 18.0946 9.55267 18.2228 9.23218C18.351 8.91169 18.1951 8.54796 17.8747 8.41977C17.3424 8.20688 16.8739 7.96927 16.458 7.69222C17.0948 7.00097 17.5965 6.15996 18.0038 5.125H18.5C18.8452 5.125 19.125 4.84518 19.125 4.5C19.125 4.15482 18.8452 3.875 18.5 3.875H17.5848C17.5748 3.87476 17.5647 3.87476 17.5547 3.875H16.125V3Z" fill="#353566"/>
<path fill-rule="evenodd" clip-rule="evenodd" d="M22.75 3.5C22.75 1.70507 21.2949 0.25 19.5 0.25H11.5C9.70507 0.25 8.25 1.70507 8.25 3.5V9C8.25 10.7949 9.70507 12.25 11.5 12.25H15.1199C15.1811 12.25 15.2402 12.2725 15.286 12.3131L17.6697 14.4313C18.4759 15.1476 19.75 14.5753 19.75 13.4968V12.2405C21.4281 12.1129 22.75 10.7108 22.75 9V3.5ZM19.5 1.75C20.4665 1.75 21.25 2.5335 21.25 3.5V9C21.25 9.9665 20.4665 10.75 19.5 10.75C18.8096 10.75 18.25 11.3096 18.25 12V12.9403L16.2823 11.1918C15.962 10.9072 15.5484 10.75 15.1199 10.75H11.5C10.5335 10.75 9.75 9.9665 9.75 9V3.5C9.75 2.5335 10.5335 1.75 11.5 1.75H19.5Z" fill="#353566"/>
<path d="M4.5 10.75C3.5335 10.75 2.75 11.5335 2.75 12.5V18C2.75 18.9665 3.5335 19.75 4.5 19.75C5.19036 19.75 5.75 20.3096 5.75 21V21.9403L7.71769 20.1918C8.038 19.9072 8.4516 19.75 8.8801 19.75H12.5C13.4665 19.75 14.25 18.9665 14.25 18V16C14.25 15.5858 14.5858 15.25 15 15.25C15.4142 15.25 15.75 15.5858 15.75 16V18C15.75 19.7949 14.2949 21.25 12.5 21.25H8.8801C8.81888 21.25 8.7598 21.2725 8.71404 21.3131L6.33029 23.4313C5.52411 24.1476 4.25 23.5753 4.25 22.4968V21.2405C2.57189 21.1129 1.25 19.7108 1.25 18V12.5C1.25 10.7051 2.70507 9.25 4.5 9.25H6.5C6.91421 9.25 7.25 9.58579 7.25 10C7.25 10.4142 6.91421 10.75 6.5 10.75H4.5Z" fill="#353566"/>
<path fill-rule="evenodd" clip-rule="evenodd" d="M9.059 12.2205C8.95314 12.0088 8.73673 11.875 8.5 11.875C8.26327 11.875 8.04685 12.0087 7.94096 12.2205L5.44053 17.2205C5.28614 17.5292 5.41125 17.9046 5.71998 18.059C6.02871 18.2134 6.40413 18.0883 6.55852 17.7795L7.1359 16.625H9.86336L10.4405 17.7795C10.5948 18.0882 10.9702 18.2134 11.279 18.059C11.5877 17.9047 11.7129 17.5293 11.5586 17.2205L10.8147 15.7326C10.8119 15.7266 10.8089 15.7205 10.8058 15.7146L10.8031 15.7093L9.059 12.2205ZM9.23846 15.375H7.76101L8.49986 13.8975L9.23846 15.375Z" fill="#353566"/>
</svg>
