<svg width="24" height="24" viewBox="0 0 24 24" fill="none" xmlns="http://www.w3.org/2000/svg">
<path fill-rule="evenodd" clip-rule="evenodd" d="M16.1925 10.7116C16.0761 10.4321 15.803 10.25 15.5002 10.25C15.1974 10.25 14.9243 10.4321 14.8079 10.7116L13.1481 14.6961C13.1435 14.7065 13.1391 14.717 13.1349 14.7276L12.3085 16.7116C12.1492 17.094 12.33 17.5331 12.7124 17.6923C13.0948 17.8516 13.5339 17.6708 13.6931 17.2884L14.334 15.75H16.6667L17.3077 17.2884C17.467 17.6708 17.9061 17.8516 18.2885 17.6923C18.6708 17.533 18.8516 17.0939 18.6923 16.7116L17.8658 14.7276C17.8616 14.717 17.8572 14.7065 17.8526 14.6961L16.1925 10.7116ZM16.0418 14.25H14.9588L15.5003 12.9503L16.0418 14.25Z" fill="#353566"/>
<path d="M9.59979 6.25C10.014 6.25 10.3498 6.58579 10.3498 7V7.5H11.9823C11.9933 7.49976 12.0043 7.49976 12.0154 7.5H13.2C13.6142 7.5 13.95 7.83579 13.95 8.25C13.95 8.66421 13.6142 9 13.2 9H12.5861C12.2534 10.1994 11.741 11.2133 10.9717 12.1195C10.872 12.2369 10.7684 12.352 10.6608 12.4651C11.1379 12.826 11.6979 13.1809 12.3591 13.5416C12.7228 13.7399 12.8567 14.1955 12.6584 14.5591C12.4601 14.9228 12.0045 15.0568 11.6408 14.8584C10.8254 14.4136 10.1246 13.9614 9.52278 13.48C8.89645 13.9608 8.17776 14.4121 7.35946 14.8584C6.99583 15.0568 6.54025 14.9228 6.3419 14.5591C6.14356 14.1955 6.27755 13.7399 6.64119 13.5416C7.3254 13.1684 7.91126 12.8045 8.41446 12.4362C8.00784 11.9789 7.66651 11.4891 7.38054 10.953C7.18558 10.5875 7.3238 10.1332 7.68926 9.93827C8.05473 9.74331 8.50904 9.88153 8.704 10.247C8.93216 10.6747 9.20809 11.0738 9.55029 11.456C9.64757 11.3548 9.74011 11.2524 9.8282 11.1487C10.3554 10.5278 10.7412 9.83591 11.0189 9H6C5.58579 9 5.25 8.66421 5.25 8.25C5.25 7.83579 5.58579 7.5 6 7.5H8.84979V7C8.84979 6.58579 9.18558 6.25 9.59979 6.25Z" fill="#353566"/>
<path fill-rule="evenodd" clip-rule="evenodd" d="M15.633 1.25H8.367C7.27486 1.24999 6.40935 1.24999 5.71173 1.30699C4.99834 1.36527 4.39472 1.48688 3.84355 1.76772C2.94978 2.22312 2.22312 2.94978 1.76772 3.84355C1.48688 4.39472 1.36527 4.99834 1.30699 5.71173C1.24999 6.40935 1.24999 7.27485 1.25 8.36699V15.633C1.24999 16.7251 1.24999 17.5906 1.30699 18.2883C1.36527 19.0017 1.48688 19.6053 1.76772 20.1565C2.22312 21.0502 2.94978 21.7769 3.84355 22.2323C4.39472 22.5131 4.99834 22.6347 5.71173 22.693C6.40935 22.75 7.27484 22.75 8.36698 22.75H15.633C16.7252 22.75 17.5906 22.75 18.2883 22.693C19.0017 22.6347 19.6053 22.5131 20.1565 22.2323C21.0502 21.7769 21.7769 21.0502 22.2323 20.1565C22.5131 19.6053 22.6347 19.0017 22.693 18.2883C22.75 17.5906 22.75 16.7252 22.75 15.633V8.36698C22.75 7.27484 22.75 6.40935 22.693 5.71173C22.6347 4.99834 22.5131 4.39472 22.2323 3.84355C21.7769 2.94978 21.0502 2.22312 20.1565 1.76772C19.6053 1.48688 19.0017 1.36527 18.2883 1.30699C17.5906 1.24999 16.7251 1.24999 15.633 1.25ZM4.52453 3.10423C4.829 2.94909 5.21325 2.85271 5.83388 2.80201C6.46327 2.75058 7.26752 2.75 8.4 2.75H15.6C16.7325 2.75 17.5367 2.75058 18.1661 2.80201C18.7867 2.85271 19.171 2.94909 19.4755 3.10423C20.087 3.41582 20.5842 3.913 20.8958 4.52453C21.0509 4.829 21.1473 5.21325 21.198 5.83388C21.2494 6.46327 21.25 7.26752 21.25 8.4V15.6C21.25 16.7325 21.2494 17.5367 21.198 18.1661C21.1473 18.7867 21.0509 19.171 20.8958 19.4755C20.5842 20.087 20.087 20.5842 19.4755 20.8958C19.171 21.0509 18.7867 21.1473 18.1661 21.198C17.5367 21.2494 16.7325 21.25 15.6 21.25H8.4C7.26752 21.25 6.46327 21.2494 5.83388 21.198C5.21325 21.1473 4.829 21.0509 4.52453 20.8958C3.913 20.5842 3.41582 20.087 3.10423 19.4755C2.94909 19.171 2.85271 18.7867 2.80201 18.1661C2.75058 17.5367 2.75 16.7325 2.75 15.6V8.4C2.75 7.26752 2.75058 6.46327 2.80201 5.83388C2.85271 5.21325 2.94909 4.829 3.10423 4.52453C3.41582 3.913 3.913 3.41582 4.52453 3.10423Z" fill="#353566"/>
</svg>
