<svg width="24" height="24" viewBox="0 0 24 24" fill="none" xmlns="http://www.w3.org/2000/svg">
<g clip-path="url(#clip0_9001_277600)">
<path fill-rule="evenodd" clip-rule="evenodd" d="M9.18043 5.93703C9.13965 5.88342 8.96124 5.64892 8.83964 5.55073C8.42464 5.21473 7.85263 5.15573 7.37764 5.39673C7.22485 5.4746 7.08762 5.59522 6.98891 5.68197L6.98464 5.68573C6.98048 5.68951 6.91054 5.75079 6.82425 5.8264C6.68211 5.95095 6.49559 6.11439 6.48564 6.12373C5.45164 7.05773 5.02064 8.48773 5.36864 9.83473C5.37364 9.85473 5.40764 9.97873 5.40764 9.97873V9.98173C5.69964 11.0517 6.16264 12.0667 6.77564 12.9887L6.79664 13.0207C7.90264 14.6757 9.32364 16.0967 10.9786 17.2027L11.0046 17.2197L11.0096 17.2237C11.9326 17.8387 12.9476 18.2997 14.0166 18.5927H14.0196C14.0196 18.5927 14.1436 18.6257 14.1636 18.6307C15.5146 18.9767 16.9466 18.5437 17.8806 17.5067L17.8876 17.4987C17.8916 17.4942 17.9316 17.4484 17.9857 17.3865C18.1103 17.2441 18.3094 17.0164 18.3156 17.0087C18.4026 16.9097 18.5256 16.7697 18.6046 16.6147C18.8446 16.1427 18.7866 15.5707 18.4506 15.1557C18.3413 15.0205 18.1944 14.911 18.0846 14.8292L18.0826 14.8277C18.0805 14.8263 17.9494 14.7278 17.7432 14.5731C16.9731 13.9953 15.1561 12.6321 15.1056 12.5997C15.0286 12.5517 14.9136 12.4877 14.7626 12.4537H14.7596C14.5656 12.4127 14.3616 12.4257 14.1726 12.4957L14.1686 12.4977C14.0236 12.5517 13.9186 12.6317 13.8516 12.6897C13.7997 12.7335 13.7478 12.7855 13.7056 12.8277C13.7015 12.8318 13.6975 12.8358 13.6936 12.8397L13.6836 12.8497L12.8796 13.6557C11.7906 13.0357 10.9426 12.1837 10.3256 11.0897L11.1256 10.1947C11.1286 10.1917 11.1326 10.1877 11.1356 10.1837C11.1736 10.1417 11.2256 10.0837 11.2686 10.0277C11.3216 9.95873 11.3946 9.85173 11.4406 9.70573L11.4386 9.71273C11.4966 9.53573 11.5086 9.33973 11.4626 9.14573C11.4286 9.00173 11.3666 8.89173 11.3216 8.82073C11.2846 8.76173 9.19064 5.94973 9.19064 5.94973L9.18863 5.94773C9.18863 5.94773 9.18492 5.94293 9.18043 5.93703ZM7.49364 7.23473L7.55364 7.18173L7.55464 7.18073L7.94764 6.83673C7.95113 6.83373 7.95439 6.83073 7.95763 6.82773C7.96089 6.82473 7.96413 6.82173 7.96764 6.81873C7.97464 6.82673 9.86064 9.35973 9.86064 9.35973L8.86264 10.4777C8.66064 10.7037 8.61464 11.0297 8.74664 11.3027C9.59964 13.0757 10.9236 14.3987 12.6966 15.2527C12.9836 15.3907 13.3276 15.3327 13.5526 15.1067L14.5806 14.0757L17.1806 16.0277C17.1756 16.0337 16.8166 16.4437 16.8166 16.4437L16.7616 16.5077C16.2006 17.1287 15.3416 17.3867 14.5316 17.1777L14.4096 17.1457C13.4966 16.8957 12.6306 16.5017 11.8426 15.9777L11.8176 15.9607L11.8126 15.9577C10.3196 14.9607 9.03764 13.6787 8.04064 12.1857L8.02064 12.1567C7.49664 11.3687 7.10164 10.5027 6.85264 9.58973L6.81964 9.46773C6.61064 8.65673 6.87064 7.79573 7.49364 7.23473Z" fill="#353566"/>
<path fill-rule="evenodd" clip-rule="evenodd" d="M12 0.25C5.51065 0.25 0.25 5.51065 0.25 12C0.25 18.4893 5.51065 23.75 12 23.75C18.4893 23.75 23.75 18.4893 23.75 12C23.75 5.51065 18.4893 0.25 12 0.25ZM1.75 12C1.75 6.33908 6.33908 1.75 12 1.75C17.6609 1.75 22.25 6.33908 22.25 12C22.25 17.6609 17.6609 22.25 12 22.25C6.33908 22.25 1.75 17.6609 1.75 12Z" fill="#353566"/>
</g>
<defs>
<clipPath id="clip0_9001_277600">
<rect width="24" height="24" fill="white"/>
</clipPath>
</defs>
</svg>
