<svg width="24" height="24" viewBox="0 0 24 24" fill="none" xmlns="http://www.w3.org/2000/svg">
<path fill-rule="evenodd" clip-rule="evenodd" d="M6.41979 1.64696C5.88282 1.21066 5.13921 1.13168 4.52257 1.44547C4.32448 1.54627 4.14185 1.7067 3.96581 1.86134L3.91878 1.9026L3.26512 2.47462C3.21222 2.52091 3.1798 2.54929 3.14954 2.57653C1.55755 4.00993 0.894393 6.2095 1.42877 8.28399C1.43893 8.32344 1.45292 8.37471 1.47618 8.46003L1.49039 8.51211C1.96334 10.2421 2.71106 11.8849 3.70499 13.3778L3.73648 13.425C5.54416 16.1321 7.8681 18.4561 10.5752 20.2637L10.6224 20.2952C12.1153 21.2892 13.7581 22.0369 15.4881 22.5098L15.5396 22.5239C15.6253 22.5472 15.6767 22.5613 15.7162 22.5714C17.7907 23.1058 19.9903 22.4427 21.4237 20.8507C21.4508 20.8205 21.4791 20.7882 21.5251 20.7356L22.1002 20.0785L22.1415 20.0314C22.2963 19.8552 22.4569 19.6724 22.5578 19.4739C22.8699 18.8597 22.7927 18.1196 22.3605 17.5831C22.2208 17.4097 22.0259 17.2639 21.8381 17.1235L21.788 17.0859L17.1912 13.6345C17.1027 13.5681 17.0054 13.495 16.9156 13.4379C16.8129 13.3726 16.6727 13.2965 16.4935 13.2594C16.2527 13.2094 16.0025 13.2317 15.7742 13.3233C15.6044 13.3914 15.4798 13.491 15.3902 13.5735C15.3119 13.6455 15.229 13.7345 15.1536 13.8156L13.5491 15.5395C12.2714 14.839 11.3164 14.1585 10.5254 13.3675C9.73401 12.5761 9.08193 11.6493 8.43864 10.4294L10.1272 8.67228C10.1996 8.59689 10.2799 8.5134 10.3446 8.43497C10.4191 8.34477 10.5076 8.22131 10.5664 8.05706C10.6459 7.83501 10.661 7.595 10.6098 7.36476C10.572 7.19445 10.4995 7.06089 10.4369 6.96211C10.3825 6.87622 10.3133 6.78337 10.2508 6.69954L6.9141 2.22071L6.87679 2.17049C6.73715 1.98233 6.59229 1.78712 6.41979 1.64696ZM5.15025 2.82238C5.18507 2.79443 5.20134 2.78365 5.20539 2.78106C5.29213 2.73814 5.39589 2.74916 5.47168 2.80934C5.4751 2.81272 5.48874 2.82668 5.51691 2.86133C5.56146 2.91611 5.61774 2.99139 5.71122 3.11686L9.06254 7.61529L6.98681 9.77541C6.76745 10.0037 6.71506 10.3451 6.85587 10.6287C7.62619 12.1799 8.42633 13.3897 9.4647 14.4281C10.5013 15.4647 11.744 16.299 13.3594 17.1382C13.6585 17.2935 14.0245 17.2303 14.2541 16.9836L16.2695 14.8183L20.8874 18.2855C21.0126 18.3795 21.0877 18.4361 21.1424 18.4809C21.1769 18.5092 21.1908 18.5229 21.1942 18.5263C21.2538 18.602 21.2646 18.7053 21.2219 18.7917C21.2193 18.7957 21.2085 18.812 21.1805 18.8469C21.1363 18.9019 21.0745 18.9728 20.9714 19.0907L20.4009 19.7425C20.3492 19.8016 20.3282 19.8256 20.309 19.847C19.2495 21.0237 17.6237 21.5138 16.0904 21.1189C16.0627 21.1117 16.0226 21.1008 15.9263 21.0745L15.8837 21.0629C14.3086 20.6323 12.8129 19.9516 11.4537 19.0466L11.4082 19.0163C8.86515 17.3182 6.68205 15.1351 4.98393 12.592L4.95357 12.5465C4.04865 11.1873 3.36789 9.69161 2.9373 8.11655L2.92567 8.07394C2.89939 7.97758 2.88849 7.93753 2.88135 7.90981C2.48638 6.37649 2.97654 4.75073 4.15323 3.69125C4.17461 3.672 4.19858 3.651 4.2577 3.59926L4.90661 3.0314C5.02435 2.92837 5.09519 2.86659 5.15025 2.82238Z" fill="#353566"/>
<path d="M16.2594 4.04951C16.426 3.86291 16.6456 3.75 16.9999 3.75C17.689 3.75 17.9989 4.21074 17.9999 4.598L17.9998 4.61741C17.9964 4.8284 17.8859 5.04577 17.5406 5.34124C17.37 5.48719 17.169 5.62926 16.9385 5.78551C16.8947 5.81524 16.8492 5.84584 16.8027 5.87716C16.617 6.00212 16.4142 6.13858 16.2293 6.277C16.06 6.40366 15.889 6.55024 15.7196 6.71967C15.1515 7.2878 14.8432 7.80992 14.6786 8.22146C14.5967 8.42606 14.5519 8.59957 14.5277 8.73302C14.5156 8.79963 14.5086 8.85594 14.5047 8.90085C14.5028 8.92329 14.5016 8.94287 14.5009 8.95945L14.5001 8.98203L14.5 8.9916L14.4999 8.99595L14.4999 8.99801L14.4999 9C14.5 9.00047 14.507 9 15.2499 9H14.4999C14.4999 9.41421 14.8357 9.75 15.2499 9.75H18.9999C19.4142 9.75 19.7499 9.41421 19.7499 9C19.7499 8.58579 19.4142 8.25 18.9999 8.25H16.3737C16.4774 8.10815 16.6102 7.95036 16.7803 7.78033C16.8986 7.66197 17.0154 7.56218 17.128 7.47791C17.2799 7.36426 17.4418 7.25521 17.6234 7.13296C17.6741 7.09884 17.7263 7.06364 17.7803 7.02707C18.0158 6.8674 18.2767 6.68552 18.5158 6.48092C18.9888 6.07615 19.4887 5.48631 19.4997 4.63491L19.4999 4.60488V4.6C19.4999 3.38767 18.5224 2.25 16.9999 2.25C16.2543 2.25 15.6148 2.5192 15.1405 3.05049C14.845 3.3814 14.4999 3.90616 14.4999 4.7C14.4999 5.11421 14.8357 5.45 15.2499 5.45C15.6642 5.45 15.9999 5.11421 15.9999 4.7C15.9999 4.39384 16.1163 4.20973 16.2594 4.04951Z" fill="#353566"/>
</svg>
