<svg width="24" height="24" viewBox="0 0 24 24" fill="none" xmlns="http://www.w3.org/2000/svg">
<path d="M18.4696 2.46967C18.7625 2.17678 19.2373 2.17678 19.5302 2.46967C19.8231 2.76256 19.8231 3.23744 19.5302 3.53033L15.0051 8.05546C13.3454 9.71519 10.6544 9.71518 8.9947 8.05546L5.7499 4.81066V7.5C5.7499 7.91421 5.41412 8.25 4.9999 8.25C4.58569 8.25 4.2499 7.91421 4.2499 7.5V3C4.2499 2.58579 4.58569 2.25 4.9999 2.25H9.4999C9.91411 2.25 10.2499 2.58579 10.2499 3C10.2499 3.41421 9.91411 3.75 9.4999 3.75H6.81056L10.0554 6.9948C11.1293 8.06874 12.8705 8.06874 13.9444 6.9948L18.4696 2.46967Z" fill="#353566"/>
<path fill-rule="evenodd" clip-rule="evenodd" d="M23.6736 20.6828C23.4958 21.2273 23.0322 21.6293 22.468 21.7284C22.2192 21.772 21.9456 21.732 21.7119 21.6979L21.6445 21.6881L16.563 20.9625C16.4571 20.9474 16.3402 20.9307 16.2392 20.9083C16.1232 20.8826 15.9746 20.8388 15.825 20.7428C15.6232 20.6133 15.4629 20.4285 15.3632 20.2104C15.2893 20.0487 15.267 19.8955 15.2579 19.777C15.25 19.6738 15.2501 19.5557 15.2501 19.4488L15.2501 17.2961C12.9609 16.6595 11.1944 16.6591 8.7501 17.3049L8.7501 19.4488C8.75013 19.5557 8.75015 19.6738 8.74225 19.777C8.73318 19.8955 8.71087 20.0487 8.63699 20.2104C8.53731 20.4285 8.37701 20.6133 8.17519 20.7428C8.02559 20.8388 7.87703 20.8826 7.76103 20.9083C7.65997 20.9307 7.54309 20.9474 7.43726 20.9624L2.35664 21.6879L2.28906 21.6977C2.0547 21.732 1.78025 21.7721 1.53075 21.7281C0.967661 21.6288 0.504999 21.2275 0.327047 20.6841C0.248201 20.4433 0.249127 20.166 0.249917 19.9291L0.25007 19.8608L0.250071 18.5704C0.250071 16.6275 1.31565 14.8294 2.99905 13.8755C4.41434 13.0735 5.96611 12.4921 7.56319 12.1727C10.4892 11.5875 13.5048 11.5881 16.4307 12.1732C18.0248 12.4921 19.5766 13.0727 20.99 13.8719C22.6788 14.8269 23.7501 16.6307 23.7501 18.5795L23.7501 19.8618L23.7503 19.9299C23.751 20.1661 23.752 20.4426 23.6736 20.6828ZM22.245 20.2071C22.2454 20.2014 22.2458 20.1949 22.2462 20.1875C22.2499 20.1191 22.2501 20.0256 22.2501 19.8618L22.2501 18.5795C22.2501 17.18 21.4774 15.8708 20.2516 15.1776C18.9749 14.4557 17.5728 13.9314 16.1365 13.6441C13.4046 13.0977 10.589 13.0972 7.85737 13.6436C6.41855 13.9313 5.01689 14.4562 3.73854 15.1806C2.51814 15.8721 1.75007 17.1758 1.75007 18.5704L1.75007 19.8608C1.75007 20.025 1.75032 20.1188 1.75398 20.1875C1.75496 20.206 1.75606 20.2188 1.7569 20.2269C1.76245 20.2364 1.77101 20.2438 1.7812 20.248C1.78941 20.2477 1.80222 20.247 1.82064 20.2453C1.88913 20.2392 1.98201 20.2262 2.1446 20.203L7.25009 19.4739L7.2501 16.7348C7.2501 16.4011 7.47063 16.1075 7.79116 16.0145C10.9807 15.0893 13.1984 15.0855 16.2212 16.0181C16.5356 16.1151 16.7501 16.4058 16.7501 16.7348L16.7501 19.4739L21.8565 20.2031C22.0187 20.2263 22.1113 20.2393 22.1796 20.2453L22.1962 20.2467C22.2013 20.2471 22.2058 20.2474 22.2097 20.2476C22.2132 20.2478 22.2163 20.2479 22.2189 20.248C22.2292 20.2439 22.2377 20.2364 22.2433 20.2269C22.2438 20.222 22.2444 20.2155 22.245 20.2071Z" fill="#353566"/>
</svg>
