<svg width="24" height="24" viewBox="0 0 24 24" fill="none" xmlns="http://www.w3.org/2000/svg">
<path d="M11 1.25C11.4142 1.25 11.75 1.58579 11.75 2C11.75 2.41421 11.4142 2.75 11 2.75C8.81197 2.75 6.71354 3.6192 5.16637 5.16637C3.6192 6.71354 2.75 8.81197 2.75 11C2.75 11.4142 2.41421 11.75 2 11.75C1.58579 11.75 1.25 11.4142 1.25 11C1.25 8.41414 2.27723 5.93419 4.10571 4.10571C5.93419 2.27723 8.41414 1.25 11 1.25Z" fill="#353566"/>
<path fill-rule="evenodd" clip-rule="evenodd" d="M19.4774 1.44547C18.8608 1.13168 18.1172 1.21066 17.5802 1.64696C17.4077 1.78712 17.2629 1.98232 17.1232 2.17049L17.0859 2.22071L13.7492 6.69954C13.6867 6.78337 13.6175 6.87622 13.5631 6.96211C13.5005 7.06089 13.428 7.19445 13.3902 7.36476C13.339 7.595 13.3541 7.83501 13.4336 8.05706C13.4924 8.22131 13.5809 8.34477 13.6554 8.43497C13.7201 8.5134 13.8004 8.59689 13.8728 8.67228L15.5614 10.4294C14.9181 11.6493 14.266 12.5761 13.4746 13.3675C12.6836 14.1585 11.7286 14.839 10.4509 15.5395L8.84636 13.8156C8.771 13.7345 8.68814 13.6455 8.6098 13.5735C8.52017 13.491 8.3956 13.3914 8.22582 13.3233C7.99754 13.2317 7.74731 13.2094 7.50646 13.2594C7.32732 13.2965 7.18714 13.3726 7.08439 13.4379C6.99458 13.495 6.89731 13.5681 6.80884 13.6345L2.21199 17.0859L2.1619 17.1234C1.97407 17.2639 1.77917 17.4097 1.63947 17.5831C1.20728 18.1196 1.13007 18.8597 1.44223 19.4739C1.54312 19.6724 1.70374 19.8552 1.85852 20.0314L1.89981 20.0785L2.4749 20.7356C2.5209 20.7882 2.54917 20.8205 2.57632 20.8507C4.00972 22.4427 6.20928 23.1058 8.28378 22.5714C8.32324 22.5613 8.37454 22.5473 8.45991 22.524L8.5119 22.5098C10.2419 22.0369 11.8847 21.2892 13.3776 20.2952L13.4248 20.2637C16.1319 18.4561 18.4558 16.1321 20.2635 13.425L20.295 13.3778C21.2889 11.8849 22.0367 10.2421 22.5096 8.51211L22.5238 8.46003C22.5471 8.37471 22.5611 8.32344 22.5712 8.28399C23.1056 6.2095 22.4424 4.00993 20.8505 2.57653C20.8202 2.54929 20.7878 2.52091 20.7349 2.47462L20.0812 1.9026L20.0342 1.86134C19.8581 1.7067 19.6755 1.54627 19.4774 1.44547ZM18.7946 2.78106C18.7987 2.78365 18.8149 2.79443 18.8498 2.82238C18.9048 2.86659 18.9757 2.92837 19.0934 3.0314L19.7423 3.59926C19.8014 3.651 19.8254 3.672 19.8468 3.69125C21.0235 4.75073 21.5136 6.37649 21.1186 7.90981C21.1115 7.93753 21.1006 7.97758 21.0743 8.07394L21.0627 8.11655C20.6321 9.69161 19.9513 11.1873 19.0464 12.5465L19.0161 12.592C17.3179 15.1351 15.1349 17.3182 12.5918 19.0163L12.5463 19.0466C11.1871 19.9516 9.6914 20.6323 8.11634 21.0629L8.07373 21.0745C7.97736 21.1008 7.93731 21.1117 7.9096 21.1189C6.37628 21.5138 4.75052 21.0237 3.69105 19.847C3.67179 19.8256 3.65079 19.8016 3.59905 19.7425L3.02862 19.0907C2.9255 18.9728 2.86369 18.9019 2.81947 18.8469C2.7915 18.812 2.78073 18.7957 2.77815 18.7917C2.73545 18.7053 2.74622 18.602 2.80583 18.5263C2.80918 18.5229 2.82309 18.5092 2.85765 18.4809C2.91229 18.4361 2.98739 18.3795 3.11262 18.2855L7.73048 14.8183L9.74587 16.9836C9.9755 17.2303 10.3415 17.2935 10.6406 17.1382C12.256 16.299 13.4987 15.4647 14.5353 14.4281C15.5737 13.3897 16.3738 12.1799 17.1441 10.6287C17.2849 10.3451 17.2325 10.0037 17.0132 9.77541L14.9375 7.61529L18.2888 3.11686C18.3823 2.99139 18.4385 2.91611 18.4831 2.86133C18.5113 2.82668 18.5249 2.81272 18.5283 2.80934C18.6041 2.74916 18.7079 2.73814 18.7946 2.78106Z" fill="#353566"/>
<path d="M11.2916 5.92261C11.2916 5.50839 10.9558 5.17261 10.5416 5.17261C9.14924 5.17261 7.81388 5.72573 6.82932 6.7103C5.84475 7.69486 5.29163 9.03022 5.29163 10.4226C5.29163 10.8368 5.62741 11.1726 6.04163 11.1726C6.45584 11.1726 6.79163 10.8368 6.79163 10.4226C6.79163 9.42805 7.18672 8.47422 7.88998 7.77096C8.59324 7.0677 9.54706 6.67261 10.5416 6.67261C10.9558 6.67261 11.2916 6.33682 11.2916 5.92261Z" fill="#353566"/>
</svg>
