<svg width="24" height="24" viewBox="0 0 24 24" fill="none" xmlns="http://www.w3.org/2000/svg">
<path d="M6.10749 0.599913C3.23492 -0.816334 0.332098 2.22071 1.52987 5.08234L1.53645 5.09759L3.80912 10.2066C4.01792 10.7109 4.0115 11.2871 3.78894 11.7921L1.64556 16.8928C0.386275 19.7645 3.28138 22.8369 6.18391 21.3895L9.79178 19.5903C10.1625 19.4054 10.3131 18.9551 10.1283 18.5844C9.94341 18.2137 9.49307 18.0631 9.12239 18.2479L5.51451 20.0471C4.002 20.8014 2.25937 19.22 3.02105 17.4915L5.16444 12.3908C5.26015 12.1724 5.33275 11.9464 5.38215 11.7165H10.9999C11.4141 11.7165 11.7499 11.3807 11.7499 10.9665C11.7499 10.5523 11.4141 10.2165 10.9999 10.2165H5.37858C5.33389 10.0138 5.27101 9.81425 5.18987 9.62041L5.18329 9.60516L2.91058 4.49606C2.19852 2.77894 3.9501 1.20867 5.44418 1.94529L20.1924 9.21654C21.565 9.89323 21.6126 11.9228 20.2706 12.6853C19.9105 12.8899 19.7844 13.3477 19.989 13.7079C20.1936 14.068 20.6515 14.1941 21.0116 13.9894C23.3654 12.6521 23.3433 9.09758 20.8558 7.87117L6.10749 0.599913Z" fill="#353566"/>
<path fill-rule="evenodd" clip-rule="evenodd" d="M18.2385 13.5279C17.7385 12.4907 16.2613 12.4907 15.7613 13.5279L14.7548 15.6161L12.4477 15.9171C11.2968 16.0673 10.8382 17.4877 11.684 18.2825L13.3626 19.8598L12.94 22.1187C12.7277 23.2539 13.9249 24.1293 14.9423 23.5827L16.9999 22.4772L19.0575 23.5827C20.0749 24.1293 21.2721 23.2539 21.0597 22.1187L20.6372 19.8598L22.3158 18.2825C23.1615 17.4877 22.7029 16.0673 21.5521 15.9171L19.245 15.6161L18.2385 13.5279ZM16.0472 16.3892L16.9999 14.4129L17.9526 16.3892C18.1358 16.7693 18.4984 17.0313 18.9168 17.0859L21.096 17.3703L19.5103 18.8604C19.1997 19.1522 19.0593 19.5822 19.1376 20.0011L19.5373 22.1377L17.5915 21.0923C17.2221 20.8938 16.7777 20.8938 16.4083 21.0923L14.4625 22.1377L14.8622 20.0011C14.9405 19.5822 14.8 19.1522 14.4895 18.8604L12.9037 17.3703L15.083 17.0859C15.5014 17.0313 15.864 16.7693 16.0472 16.3892Z" fill="#353566"/>
</svg>
