<svg width="24" height="24" viewBox="0 0 24 24" fill="none" xmlns="http://www.w3.org/2000/svg">
<path d="M5.20528 0.534416C4.1507 0.011915 2.88218 0.22271 2.05182 1.0567C1.33659 1.77507 1.07459 2.82967 1.36858 3.7999L3.55035 11L1.36857 18.2001C1.07457 19.1704 1.33657 20.225 2.05181 20.9434C2.88218 21.7773 4.15071 21.9882 5.20529 21.4656L11.3612 18.4156C11.7323 18.2317 11.8841 17.7818 11.7002 17.4106C11.5163 17.0395 11.0664 16.8877 10.6952 17.0716L4.53935 20.1216C4.06364 20.3573 3.49101 20.2629 3.11479 19.885C2.79 19.5588 2.66986 19.0782 2.80411 18.6351L4.5683 12.8131L11.8634 11.2444C12.1266 11.1878 12.1266 10.8122 11.8634 10.7556L4.56829 9.18688L2.80412 3.3649C2.66988 2.92188 2.79002 2.44124 3.1148 2.11504C3.49101 1.73718 4.06363 1.64279 4.53934 1.87849L20.4926 9.78271C21.1325 10.0998 21.3735 10.8032 21.1819 11.4179C21.0587 11.8134 21.2794 12.2338 21.6749 12.3571C22.0703 12.4803 22.4908 12.2596 22.614 11.8641C23.0014 10.6208 22.5274 9.11689 21.1585 8.43864L5.20528 0.534416Z" fill="#353566"/>
<path fill-rule="evenodd" clip-rule="evenodd" d="M15 15C15 13.4006 16.4286 12.25 18 12.25C19.5714 12.25 21 13.4006 21 15V16.0155C21.9866 16.1385 22.75 16.9801 22.75 18V21.75C22.75 22.8546 21.8546 23.75 20.75 23.75H15.25C14.1454 23.75 13.25 22.8546 13.25 21.75V18C13.25 16.9801 14.0134 16.1385 15 16.0155V15ZM16.5 16H19.5V15C19.5 14.3902 18.9139 13.75 18 13.75C17.0861 13.75 16.5 14.3902 16.5 15V16ZM15.25 17.5C14.9739 17.5 14.75 17.7239 14.75 18V21.75C14.75 22.0261 14.9739 22.25 15.25 22.25H20.75C21.0261 22.25 21.25 22.0261 21.25 21.75V18C21.25 17.7239 21.0261 17.5 20.75 17.5H15.25Z" fill="#353566"/>
</svg>
