<svg width="24" height="24" viewBox="0 0 24 24" fill="none" xmlns="http://www.w3.org/2000/svg">
<g clip-path="url(#clip0_9002_427)">
<path fill-rule="evenodd" clip-rule="evenodd" d="M15.4326 0.25H6.56739C5.61496 0.249994 4.8544 0.249989 4.24014 0.300176C3.61012 0.35165 3.06824 0.459634 2.57054 0.713223C1.77086 1.12068 1.12069 1.77085 0.713227 2.57054C0.459638 3.06824 0.351654 3.61012 0.30018 4.24013C0.249997 4.85435 0.25 5.61499 0.250005 6.56733L0.250002 19.9152C0.249974 20.1532 0.249947 20.3804 0.26663 20.5639C0.282815 20.7418 0.323484 21.0306 0.520845 21.2793C0.756431 21.5762 1.114 21.7502 1.49299 21.7523C1.81048 21.7541 2.06282 21.6078 2.21281 21.5107C2.36741 21.4106 2.54616 21.2704 2.73337 21.1235L5.31064 19.1018L5.31212 19.1006C5.57594 18.8937 5.62991 18.8557 5.6814 18.8298C5.74093 18.7999 5.80417 18.7781 5.86947 18.7649C5.92607 18.7534 5.99209 18.75 6.32902 18.75L10.5 18.75C10.9142 18.75 11.25 18.4142 11.25 18C11.25 16.2051 12.7051 14.75 14.5 14.75C14.8804 14.75 15.2611 14.8302 15.682 14.9644C15.8683 15.0238 16.0704 15.0081 16.2452 14.9206L17.9899 14.0483C18.1648 13.9609 18.2986 13.8085 18.3628 13.6239C18.8092 12.3403 19.8342 11.4337 21.0936 11.2753C21.4687 11.2281 21.75 10.9091 21.75 10.5311V6.5673C21.75 5.6149 21.75 4.85438 21.6998 4.24013C21.6484 3.61012 21.5404 3.06824 21.2868 2.57054C20.8793 1.77085 20.2292 1.12068 19.4295 0.713223C18.9318 0.459634 18.3899 0.35165 17.7599 0.300176C17.1456 0.249989 16.3851 0.249994 15.4326 0.25ZM6 9.5C6 8.94771 6.44771 8.5 7 8.5C7.55228 8.5 8.0001 8.94771 8.0001 9.5C8.0001 10.0523 7.55238 10.5 7.0001 10.5C6.44781 10.5 6 10.0523 6 9.5ZM10 9.5C10 8.94771 10.4477 8.5 11 8.5C11.5523 8.5 12.0001 8.94771 12.0001 9.5C12.0001 10.0523 11.5524 10.5 11.0001 10.5C10.4478 10.5 10 10.0523 10 9.5ZM14 9.5C14 8.94771 14.4477 8.5 15 8.5C15.5523 8.5 16.0001 8.94771 16.0001 9.5C16.0001 10.0523 15.5523 10.5 15 10.5C14.4477 10.5 14 10.0523 14 9.5Z" fill="#353566"/>
<path d="M16.4615 17.6076L20.0098 15.8335C20.376 16.2425 20.9081 16.5 21.5004 16.5C22.605 16.5 23.5004 15.6046 23.5004 14.5C23.5004 13.3954 22.605 12.5 21.5004 12.5C20.426 12.5 19.5494 13.3473 19.5024 14.4101L15.6642 16.3292C15.652 16.3353 15.64 16.3417 15.6283 16.3484C15.3071 16.1286 14.9186 16 14.5 16C13.3954 16 12.5 16.8954 12.5 18C12.5 19.1046 13.3954 20 14.5 20C14.9186 20 15.3071 19.8714 15.6282 19.6516C15.64 19.6583 15.652 19.6647 15.6642 19.6708L19.5024 21.5899C19.5494 22.6528 20.4259 23.5 21.5004 23.5C22.605 23.5 23.5004 22.6046 23.5004 21.5C23.5004 20.3954 22.605 19.5 21.5004 19.5C20.9081 19.5 20.376 19.7575 20.0098 20.1665L16.4615 18.3924C16.4868 18.2655 16.5 18.1343 16.5 18C16.5 17.8657 16.4868 17.7345 16.4615 17.6076Z" fill="#353566"/>
</g>
<defs>
<clipPath id="clip0_9002_427">
<rect width="24" height="24" fill="white"/>
</clipPath>
</defs>
</svg>
