<svg width="24" height="24" viewBox="0 0 24 24" fill="none" xmlns="http://www.w3.org/2000/svg">
<path fill-rule="evenodd" clip-rule="evenodd" d="M7.56739 1.25H16.4326C17.3851 1.24999 18.1456 1.24999 18.7599 1.30018C19.3899 1.35165 19.9318 1.45963 20.4295 1.71322C21.2292 2.12068 21.8793 2.77085 22.2868 3.57054C22.5404 4.06824 22.6484 4.61012 22.6998 5.24013C22.75 5.85438 22.75 6.61496 22.75 7.56737V13.4327C22.75 14.3851 22.75 15.1456 22.6998 15.7599C22.6484 16.3899 22.5404 16.9318 22.2868 17.4295C21.8793 18.2291 21.2292 18.8793 20.4295 19.2868C19.9318 19.5404 19.3899 19.6483 18.7599 19.6998C18.1456 19.75 17.385 19.75 16.4326 19.75H7.32902C6.99209 19.75 6.92607 19.7534 6.86947 19.7649C6.80417 19.7781 6.74093 19.7999 6.6814 19.8298C6.62991 19.8557 6.57594 19.8937 6.31212 20.1006L6.31064 20.1018L3.73337 22.1235C3.54616 22.2704 3.36741 22.4106 3.21281 22.5107C3.06282 22.6078 2.81048 22.7541 2.49299 22.7523C2.114 22.7502 1.75643 22.5762 1.52085 22.2793C1.32348 22.0306 1.28281 21.7418 1.26663 21.5639C1.24995 21.3804 1.24997 21.1532 1.25 20.9152L1.25 7.56719C1.25 6.61484 1.25 5.85435 1.30018 5.24013C1.35165 4.61012 1.45964 4.06824 1.71323 3.57054C2.12069 2.77085 2.77086 2.12068 3.57054 1.71322C4.06824 1.45963 4.61012 1.35165 5.24014 1.30018C5.8544 1.24999 6.61496 1.24999 7.56739 1.25ZM11.9993 7.75C10.2651 7.75 8.68852 8.41825 7.51048 9.51269C7.20702 9.79461 6.73246 9.77716 6.45054 9.47369C6.16861 9.17023 6.18607 8.69568 6.48953 8.41375C7.93407 7.07172 9.87158 6.25 11.9993 6.25C14.1278 6.25 16.0659 7.07228 17.5106 8.4151C17.814 8.69711 17.8313 9.17166 17.5493 9.47506C17.2673 9.77845 16.7928 9.79579 16.4894 9.51379C15.3112 8.41869 13.7342 7.75 11.9993 7.75ZM12.0032 11.0833C11.2185 11.0833 10.5008 11.4139 9.96971 11.9649C9.68227 12.2631 9.20747 12.2719 8.90923 11.9844C8.61098 11.697 8.60223 11.2222 8.88967 10.924C9.68312 10.1007 10.7827 9.58331 12.0032 9.58331C13.2237 9.58331 14.3233 10.1007 15.1168 10.924C15.4042 11.2222 15.3955 11.697 15.0972 11.9844C14.799 12.2719 14.3242 12.2631 14.0367 11.9649C13.5057 11.4139 12.7879 11.0833 12.0032 11.0833ZM11 13.5C11 12.9477 11.4477 12.5 12 12.5C12.5523 12.5 13.0001 12.9477 13.0001 13.5C13.0001 14.0523 12.5523 14.5 12 14.5C11.4477 14.5 11 14.0523 11 13.5Z" fill="#353566"/>
</svg>
