<svg width="24" height="24" viewBox="0 0 24 24" fill="none" xmlns="http://www.w3.org/2000/svg">
<path d="M2 2.5C1.72386 2.5 1.5 2.72386 1.5 3C1.5 3.27614 1.72386 3.5 2 3.5H22C22.2761 3.5 22.5 3.27614 22.5 3C22.5 2.72386 22.2761 2.5 22 2.5H2Z" fill="#353566"/>
<path d="M1.5 9C1.5 8.72386 1.72386 8.5 2 8.5H22C22.2761 8.5 22.5 8.72386 22.5 9C22.5 9.27614 22.2761 9.5 22 9.5H2C1.72386 9.5 1.5 9.27614 1.5 9Z" fill="#353566"/>
<path d="M2 14.5C1.72386 14.5 1.5 14.7239 1.5 15C1.5 15.2761 1.72386 15.5 2 15.5H22C22.2761 15.5 22.5 15.2761 22.5 15C22.5 14.7239 22.2761 14.5 22 14.5H2Z" fill="#353566"/>
<path d="M2 20.5C1.72386 20.5 1.5 20.7239 1.5 21C1.5 21.2761 1.72386 21.5 2 21.5H12C12.2761 21.5 12.5 21.2761 12.5 21C12.5 20.7239 12.2761 20.5 12 20.5H2Z" fill="#353566"/>
</svg>
