<svg width="24" height="24" viewBox="0 0 24 24" fill="none" xmlns="http://www.w3.org/2000/svg">
<path d="M3.12132 1.5C1.67361 1.5 0.5 2.6736 0.5 4.12132C0.5 4.81654 0.776174 5.48328 1.26777 5.97487L7.70711 12.4142C7.89464 12.6017 8 12.8561 8 13.1213V17.5194C8 17.9751 8.20713 18.406 8.56296 18.6907L13.1877 22.3904C13.3377 22.5105 13.5434 22.5339 13.7166 22.4507C13.8898 22.3674 14 22.1922 14 22V15.6857C14 15.4096 13.7761 15.1857 13.5 15.1857C13.2239 15.1857 13 15.4096 13 15.6857V20.9597L9.18765 17.9098C9.06905 17.8149 9 17.6713 9 17.5194V13.1213C9 12.5909 8.78929 12.0822 8.41421 11.7071L1.97487 5.26777C1.67082 4.96371 1.5 4.55132 1.5 4.12132C1.5 3.22589 2.22589 2.5 3.12132 2.5H18.8787C19.7741 2.5 20.5 3.22589 20.5 4.12132C20.5 4.22816 20.4895 4.33387 20.469 4.4371C20.4152 4.70795 20.5911 4.97113 20.862 5.02491C21.1328 5.0787 21.396 4.90273 21.4498 4.63188C21.483 4.46493 21.5 4.29399 21.5 4.12132C21.5 2.6736 20.3264 1.5 18.8787 1.5H3.12132Z" fill="#353566"/>
<path fill-rule="evenodd" clip-rule="evenodd" d="M22.8641 7.8092C22.0491 6.70492 20.847 6.35559 19.9021 6.55174L19.9002 6.55215C19.166 6.70757 18.5143 7.05543 18 7.60069C17.4857 7.05543 16.8341 6.70757 16.0999 6.55214L16.0979 6.55174C15.153 6.35559 13.951 6.70492 13.136 7.8092C12.2957 8.94776 12.2186 10.9092 13.3262 12.4463C14.098 13.5175 15.6666 14.9544 16.6741 15.8349C16.6931 15.8516 16.712 15.8682 16.7307 15.8846C17.0093 16.129 17.2574 16.3465 17.5751 16.4404C17.8441 16.5199 18.1559 16.5199 18.425 16.4404C18.7426 16.3465 18.9907 16.129 19.2692 15.8846C19.288 15.8682 19.3069 15.8516 19.326 15.8349C20.3335 14.9543 21.902 13.5175 22.6739 12.4463C23.7815 10.9092 23.7044 8.94774 22.8641 7.8092ZM20.1063 7.53068C20.6641 7.41528 21.4738 7.6095 22.0595 8.40302C22.6202 9.16272 22.738 10.6467 21.8626 11.8617C21.1685 12.8248 19.6891 14.1894 18.6679 15.082C18.2983 15.4051 18.2221 15.4576 18.1415 15.4814C18.0575 15.5063 17.9426 15.5063 17.8585 15.4814C17.7779 15.4576 17.7018 15.4051 17.3322 15.082C16.3109 14.1894 14.8315 12.8248 14.1375 11.8617C13.262 10.6467 13.3799 9.16271 13.9406 8.40303C14.5262 7.60951 15.336 7.41528 15.8938 7.53068C16.6317 7.68709 17.1513 8.09352 17.6039 8.68116C17.6985 8.80408 17.8449 8.8761 18 8.8761C18.1552 8.8761 18.3015 8.80408 18.3962 8.68116C18.8487 8.09352 19.3684 7.68709 20.1063 7.53068Z" fill="#353566"/>
</svg>
