<svg width="24" height="24" viewBox="0 0 24 24" fill="none" xmlns="http://www.w3.org/2000/svg">
<path d="M0.5 4.12132C0.5 2.6736 1.67361 1.5 3.12132 1.5H18.8787C19.8263 1.5 20.656 2.00318 21.1158 2.75454C21.26 2.99008 21.1859 3.29787 20.9504 3.44202C20.7148 3.58616 20.407 3.51208 20.2629 3.27655C19.9772 2.80971 19.4639 2.5 18.8787 2.5H3.12132C2.22589 2.5 1.5 3.22589 1.5 4.12132C1.5 4.55132 1.67082 4.96371 1.97487 5.26777L8.41421 11.7071C8.78929 12.0822 9 12.5909 9 13.1213V17.5194C9 17.6713 9.06905 17.8149 9.18765 17.9098L13 20.9597V16.645C13 16.3688 13.2239 16.145 13.5 16.145C13.7761 16.145 14 16.3688 14 16.645V22C14 22.1922 13.8898 22.3674 13.7166 22.4507C13.5434 22.5339 13.3377 22.5105 13.1877 22.3904L8.56296 18.6907C8.20713 18.406 8 17.9751 8 17.5194V13.1213C8 12.8561 7.89464 12.6017 7.70711 12.4142L1.26777 5.97487C0.776174 5.48328 0.5 4.81654 0.5 4.12132Z" fill="#353566"/>
<path fill-rule="evenodd" clip-rule="evenodd" d="M15.8479 8.62809C16.1578 7.79064 17.3422 7.79063 17.6521 8.62809L17.9505 9.43454C18.2274 10.1827 18.8173 10.7726 19.5655 11.0495L20.3719 11.3479C21.2094 11.6578 21.2094 12.8422 20.3719 13.1521L19.5655 13.4505C18.8173 13.7274 18.2274 14.3173 17.9505 15.0655L17.6521 15.8719C17.3422 16.7094 16.1578 16.7094 15.8479 15.8719L15.5495 15.0655C15.2726 14.3173 14.6827 13.7274 13.9345 13.4505L13.1281 13.1521C12.2906 12.8422 12.2906 11.6578 13.1281 11.3479L13.9345 11.0495C14.6827 10.7726 15.2726 10.1827 15.5495 9.43454L15.8479 8.62809ZM16.75 9.07167L16.4873 9.78158C16.1092 10.8035 15.3035 11.6092 14.2816 11.9873L13.5717 12.25L14.2816 12.5127C15.3035 12.8908 16.1092 13.6965 16.4873 14.7184L16.75 15.4283L17.0127 14.7184C17.3908 13.6965 18.1965 12.8908 19.2184 12.5127L19.9283 12.25L19.2184 11.9873C18.1965 11.6092 17.3908 10.8035 17.0127 9.78158L16.75 9.07167Z" fill="#353566"/>
<path d="M21.1269 6.08833C21.0833 5.97056 20.9167 5.97056 20.8731 6.08833L20.6789 6.61328C20.4962 7.10697 20.107 7.49621 19.6133 7.67888L19.0883 7.87314C18.9706 7.91671 18.9706 8.08329 19.0883 8.12686L19.6133 8.32112C20.107 8.50379 20.4962 8.89303 20.6789 9.38672L20.8731 9.91167C20.9167 10.0294 21.0833 10.0294 21.1269 9.91167L21.3211 9.38672C21.5038 8.89303 21.893 8.50379 22.3867 8.32112L22.9117 8.12686C23.0294 8.08329 23.0294 7.91671 22.9117 7.87314L22.3867 7.67888C21.893 7.49621 21.5038 7.10697 21.3211 6.61328L21.1269 6.08833Z" fill="#353566"/>
</svg>
