<svg width="24" height="24" viewBox="0 0 24 24" fill="none" xmlns="http://www.w3.org/2000/svg">
<path d="M10.5 1.5C7.23385 1.5 4.99997 3.83344 4.99997 6.73402C4.99997 8.47396 5.85738 10.0491 7.2111 11.0074C7.43649 11.1669 7.74854 11.1135 7.90808 10.8881C8.06762 10.6627 8.01424 10.3507 7.78885 10.1912C6.69291 9.41539 5.99997 8.14096 5.99997 6.73402C5.99997 4.40555 7.7661 2.5 10.5 2.5H13.5C15.3985 2.5 17.5789 3.44397 18.0097 5.59806C18.0638 5.86884 18.3273 6.04445 18.598 5.99029C18.8688 5.93613 19.0444 5.67272 18.9903 5.40194C18.4211 2.55603 15.6014 1.5 13.5 1.5H10.5Z" fill="#353566"/>
<path d="M15.7021 13.5H2C1.72386 13.5 1.5 13.2761 1.5 13C1.5 12.7239 1.72386 12.5 2 12.5H15.8091C15.8162 12.4998 15.8233 12.4998 15.8305 12.5H22C22.2761 12.5 22.5 12.7239 22.5 13C22.5 13.2761 22.2761 13.5 22 13.5H17.401C18.396 14.461 19 15.8055 19 17.266C19 20.1666 16.7661 22.5 13.5 22.5H10.5C8.39852 22.5 5.57887 21.444 5.00968 18.5981C4.95553 18.3273 5.13114 18.0639 5.40192 18.0097C5.6727 17.9556 5.93611 18.1312 5.99026 18.4019C6.42108 20.556 8.60143 21.5 10.5 21.5H13.5C16.2339 21.5 18 19.5944 18 17.266C18 15.6517 17.0876 14.2119 15.7021 13.5Z" fill="#353566"/>
</svg>
