<svg width="24" height="24" viewBox="0 0 24 24" fill="none" xmlns="http://www.w3.org/2000/svg">
<path d="M2 2.5C1.17157 2.5 0.5 3.17157 0.5 4V6C0.5 6.27614 0.723858 6.5 1 6.5C1.27614 6.5 1.5 6.27614 1.5 6V4C1.5 3.72386 1.72386 3.5 2 3.5H7L7 20.5H4.5C4.22386 20.5 4 20.7239 4 21C4 21.2761 4.22386 21.5 4.5 21.5H10.5C10.7761 21.5 11 21.2761 11 21C11 20.7239 10.7761 20.5 10.5 20.5H8L8 3.5H13C13.2761 3.5 13.5 3.72386 13.5 4V6C13.5 6.27614 13.7239 6.5 14 6.5C14.2761 6.5 14.5 6.27614 14.5 6V4C14.5 3.17157 13.8284 2.5 13 2.5H2Z" fill="#353566"/>
<path d="M17.3536 17.6464C17.1583 17.4512 16.8417 17.4512 16.6464 17.6464C16.4512 17.8417 16.4512 18.1583 16.6464 18.3536L19.6464 21.3536C19.8417 21.5488 20.1583 21.5488 20.3536 21.3536L23.3536 18.3536C23.5488 18.1583 23.5488 17.8417 23.3536 17.6464C23.1583 17.4512 22.8417 17.4512 22.6464 17.6464L20.5 19.7929V4.20711L22.6464 6.35355C22.8417 6.54882 23.1583 6.54882 23.3536 6.35355C23.5488 6.15829 23.5488 5.84171 23.3536 5.64645L20.3536 2.64645C20.1583 2.45118 19.8417 2.45118 19.6464 2.64645L16.6464 5.64645C16.4512 5.84171 16.4512 6.15829 16.6464 6.35355C16.8417 6.54882 17.1583 6.54882 17.3536 6.35355L19.5 4.20711V19.7929L17.3536 17.6464Z" fill="#353566"/>
</svg>
