<svg width="24" height="24" viewBox="0 0 24 24" fill="none" xmlns="http://www.w3.org/2000/svg">
<path opacity="0.4" d="M15.1067 2C13.09 2 11.7656 3.09325 11 4C10.2344 3.09325 8.91 2 6.89333 2C3.36556 2 1 5 1 8.47438C1 15.5 9.5 20 11 20.5C11.3412 20.3863 12.0445 20.0656 12.9276 19.5554C12.071 19.0271 11.5 18.0802 11.5 17C11.5 15.3431 12.8431 14 14.5 14C15.0232 14 15.5 14.1 15.9934 14.326L18.4654 13.0901C18.8719 11.9213 19.5664 10.9016 20.7388 10.5944C20.907 9.91645 21 9.20923 21 8.47438C21 5 18.6344 2 15.1067 2Z" fill="#353566"/>
<path d="M6.89333 2.5C3.70396 2.5 1.5 5.20946 1.5 8.47438C1.5 11.7779 3.50136 14.5343 5.7706 16.5614C7.88811 18.4529 10.1566 19.6349 11 19.9675C11.3204 19.8412 11.8463 19.5923 12.4916 19.2285C12.7736 19.4829 13.1042 19.6845 13.4678 19.8177C12.4235 20.4426 11.5716 20.8365 11.1581 20.9743L11 21.027L10.8419 20.9743C10.0191 20.7001 7.4609 19.4122 5.1044 17.3072C2.74864 15.2028 0.5 12.1964 0.5 8.47438C0.5 4.79054 3.02715 1.5 6.89333 1.5C8.80129 1.5 10.1418 2.3934 11 3.25953C11.8582 2.3934 13.1987 1.5 15.1067 1.5C18.9729 1.5 21.5 4.79054 21.5 8.47438C21.5 9.17818 21.4196 9.8564 21.2733 10.5078C20.852 10.5371 20.4827 10.6479 20.1591 10.8219C20.3776 10.0747 20.5 9.29124 20.5 8.47438C20.5 5.20946 18.296 2.5 15.1067 2.5C13.2927 2.5 12.0954 3.47766 11.382 4.32255L11 4.77506L10.618 4.32255C9.90462 3.47766 8.7073 2.5 6.89333 2.5Z" fill="#353566"/>
<path fill-rule="evenodd" clip-rule="evenodd" d="M14.5 15C13.3954 15 12.5 15.8954 12.5 17C12.5 18.1046 13.3954 19 14.5 19C15.0174 19 15.4888 18.8036 15.8439 18.4812L19.509 20.3138C19.5034 20.3751 19.5005 20.4372 19.5005 20.5C19.5005 21.6046 20.3959 22.5 21.5005 22.5C22.6051 22.5 23.5005 21.6046 23.5005 20.5C23.5005 19.3954 22.6051 18.5 21.5005 18.5C20.8165 18.5 20.2126 18.8434 19.852 19.3672L16.3957 17.6391C16.4633 17.4384 16.5 17.2235 16.5 17C16.5 16.7765 16.4633 16.5616 16.3957 16.3609L19.852 14.6328C20.2126 15.1566 20.8165 15.5 21.5005 15.5C22.6051 15.5 23.5005 14.6046 23.5005 13.5C23.5005 12.3954 22.6051 11.5 21.5005 11.5C20.3959 11.5 19.5005 12.3954 19.5005 13.5C19.5005 13.5628 19.5034 13.6249 19.509 13.6862L15.8439 15.5188C15.4888 15.1964 15.0174 15 14.5 15ZM13.5 17C13.5 16.4477 13.9477 16 14.5 16C15.0523 16 15.5 16.4477 15.5 17C15.5 17.5523 15.0523 18 14.5 18C13.9477 18 13.5 17.5523 13.5 17ZM21.5005 12.5C20.9482 12.5 20.5005 12.9477 20.5005 13.5C20.5005 14.0523 20.9482 14.5 21.5005 14.5C22.0528 14.5 22.5005 14.0523 22.5005 13.5C22.5005 12.9477 22.0528 12.5 21.5005 12.5ZM20.5005 20.5C20.5005 19.9477 20.9482 19.5 21.5005 19.5C22.0528 19.5 22.5005 19.9477 22.5005 20.5C22.5005 21.0523 22.0528 21.5 21.5005 21.5C20.9482 21.5 20.5005 21.0523 20.5005 20.5Z" fill="#353566"/>
</svg>
