<svg width="24" height="24" viewBox="0 0 24 24" fill="none" xmlns="http://www.w3.org/2000/svg">
<path opacity="0.4" d="M12 5C12.7656 4.09325 14.09 3 16.1067 3C19.6344 3 22 6 22 9.47438C22 16.5 13.5 21 12 21.5C10.5 21 2 16.5 2 9.47438C2 6 4.36556 3 7.89333 3C9.91 3 11.2344 4.09325 12 5Z" fill="#353566"/>
<path fill-rule="evenodd" clip-rule="evenodd" d="M7.89333 2.50003C4.02715 2.50003 1.5 5.79057 1.5 9.47441C1.5 13.1965 3.74864 16.2029 6.1044 18.3072C8.4609 20.4122 11.0191 21.7001 11.8419 21.9744L12 22.0271L12.1581 21.9744C12.9809 21.7001 15.5391 20.4122 17.8956 18.3072C20.2514 16.2029 22.5 13.1965 22.5 9.47441C22.5 5.79057 19.9729 2.50003 16.1067 2.50003C14.1987 2.50003 12.8582 3.39343 12 4.25956C11.1418 3.39343 9.80129 2.50003 7.89333 2.50003ZM2.5 9.47441C2.5 6.20949 4.70396 3.50003 7.89333 3.50003C9.51094 3.50003 10.6382 4.27749 11.3691 5.04495L9.58398 7.72267C9.50901 7.83513 9.48275 7.97315 9.51121 8.10528C9.53966 8.23741 9.62039 8.35239 9.735 8.42402L13.2734 10.6355L10.6 14.2C10.4343 14.4209 10.4791 14.7343 10.7 14.9C10.9209 15.0657 11.2343 15.0209 11.4 14.8L14.4 10.8C14.484 10.688 14.5172 10.546 14.4915 10.4084C14.4659 10.2708 14.3837 10.1502 14.265 10.076L10.7017 7.84893L12.4 5.3014C13.1154 4.46144 14.3078 3.50003 16.1067 3.50003C19.296 3.50003 21.5 6.20949 21.5 9.47441C21.5 12.778 19.4986 15.5344 17.2294 17.5614C15.1119 19.453 12.8434 20.635 12 20.9676C11.1566 20.635 8.88811 19.453 6.7706 17.5614C4.50136 15.5344 2.5 12.778 2.5 9.47441Z" fill="#353566"/>
</svg>
