<svg width="24" height="24" viewBox="0 0 24 24" fill="none" xmlns="http://www.w3.org/2000/svg">
<path opacity="0.4" d="M15.1067 2C13.09 2 11.7656 3.09325 11 4C10.2344 3.09325 8.91 2 6.89333 2C3.36556 2 1 5 1 8.47438C1 15.5 9.5 20 11 20.5C11.242 20.4193 11.6661 20.2346 12.2074 19.9519C11.7551 19.0661 11.5 18.0628 11.5 17C11.5 13.4101 14.4101 10.5 18 10.5C18.9299 10.5 19.8142 10.6953 20.6141 11.047C20.8605 10.233 21 9.37441 21 8.47438C21 5 18.6344 2 15.1067 2Z" fill="#353566"/>
<path d="M6.89333 2.5C3.70396 2.5 1.5 5.20946 1.5 8.47438C1.5 11.7779 3.50136 14.5343 5.7706 16.5614C7.88811 18.4529 10.1566 19.6349 11 19.9675C11.234 19.8753 11.5776 19.7177 11.9972 19.4977C12.1262 19.8074 12.2785 20.105 12.4519 20.3882C11.8805 20.6871 11.4268 20.8848 11.1581 20.9743L11 21.027L10.8419 20.9743C10.0191 20.7001 7.4609 19.4122 5.1044 17.3072C2.74864 15.2028 0.5 12.1964 0.5 8.47438C0.5 4.79054 3.02715 1.5 6.89333 1.5C8.80129 1.5 10.1418 2.3934 11 3.25953C11.8582 2.3934 13.1987 1.5 15.1067 1.5C18.9729 1.5 21.5 4.79054 21.5 8.47438C21.5 9.45689 21.3433 10.3895 21.0693 11.2689C20.7747 11.1108 20.4666 10.9747 20.147 10.8629C20.3731 10.1034 20.5 9.30623 20.5 8.47438C20.5 5.20946 18.296 2.5 15.1067 2.5C13.2927 2.5 12.0954 3.47766 11.382 4.32255L11 4.77506L10.618 4.32255C9.90462 3.47766 8.7073 2.5 6.89333 2.5Z" fill="#353566"/>
<path d="M19.8535 15.8536C20.0488 15.6583 20.0488 15.3417 19.8535 15.1464C19.6582 14.9512 19.3417 14.9512 19.1464 15.1464L18 16.2928L16.8535 15.1464C16.6583 14.9511 16.3417 14.9511 16.1464 15.1464C15.9512 15.3417 15.9512 15.6582 16.1465 15.8535L17.2929 16.9999L16.1464 18.1464C15.9511 18.3417 15.9511 18.6583 16.1464 18.8536C16.3417 19.0488 16.6582 19.0488 16.8535 18.8536L18 17.707L19.1465 18.8535C19.3418 19.0488 19.6584 19.0488 19.8536 18.8535C20.0489 18.6582 20.0489 18.3416 19.8536 18.1464L18.7071 16.9999L19.8535 15.8536Z" fill="#353566"/>
<path fill-rule="evenodd" clip-rule="evenodd" d="M18 11.5C14.9624 11.5 12.5 13.9624 12.5 17C12.5 20.0376 14.9624 22.5 18 22.5C21.0376 22.5 23.5 20.0376 23.5 17C23.5 13.9624 21.0376 11.5 18 11.5ZM13.5 17C13.5 14.5147 15.5147 12.5 18 12.5C20.4853 12.5 22.5 14.5147 22.5 17C22.5 19.4853 20.4853 21.5 18 21.5C15.5147 21.5 13.5 19.4853 13.5 17Z" fill="#353566"/>
</svg>
