<svg width="24" height="24" viewBox="0 0 24 24" fill="none" xmlns="http://www.w3.org/2000/svg">
<path opacity="0.4" d="M12.1262 2.706C11.6717 1.76304 10.3288 1.76304 9.87422 2.706L7.74345 7.1263C7.59687 7.43039 7.30677 7.63999 6.97204 7.68367L2.08922 8.32082C1.04298 8.45734 0.626067 9.74871 1.39497 10.4712L4.95175 13.8135C5.20022 14.047 5.3126 14.391 5.24991 14.7261L4.35446 19.5132C4.1614 20.5452 5.2498 21.3411 6.17475 20.8441L10.5269 18.5058C10.8225 18.3471 11.178 18.3471 11.4735 18.5058L15.2522 20.536C14.249 19.2836 13.5 17.7722 13.5 16.002C13.5 12.9653 15.9616 10.5 19.0001 10.5C19.4792 10.5 19.944 10.5613 20.3872 10.6764L20.6055 10.4712C21.3744 9.7487 20.9575 8.45734 19.9112 8.32082L15.0284 7.68367C14.6937 7.63999 14.4036 7.43039 14.257 7.1263L12.1262 2.706Z" fill="#353566"/>
<path d="M12.5767 2.48888C11.9404 1.16874 10.0603 1.16875 9.42391 2.48889L7.29314 6.90919C7.21985 7.06123 7.0748 7.16604 6.90743 7.18788L2.02461 7.82503C0.559873 8.01616 -0.023798 9.82406 1.05266 10.8356L4.60945 14.1779C4.73368 14.2946 4.78987 14.4666 4.75853 14.6342L3.86307 19.4212C3.59279 20.8661 5.11656 21.9803 6.41148 21.2846L10.7637 18.9463C10.9114 18.8669 11.0892 18.8669 11.237 18.9463L15.5891 21.2846C15.7507 21.3714 15.9159 21.43 16.0806 21.4633C15.5358 20.9111 15.0216 20.2955 14.5977 19.6167L11.7102 18.0654C11.2669 17.8272 10.7337 17.8272 10.2904 18.0654L5.9382 20.4037C5.38323 20.7018 4.73019 20.2243 4.84603 19.6051L5.74148 14.8181C5.83551 14.3154 5.66694 13.7994 5.29424 13.4492L1.73746 10.1069C1.27611 9.67335 1.52626 8.89853 2.15401 8.81662L7.03682 8.17947C7.53892 8.11395 7.97407 7.79954 8.19394 7.34342L10.3247 2.92311C10.5974 2.35734 11.4032 2.35734 11.6759 2.92311L13.8067 7.34342C14.0266 7.79954 14.4617 8.11395 14.9638 8.17947L19.8466 8.81662C20.4744 8.89853 20.7245 9.67335 20.2632 10.1069L19.7856 10.5557C20.1835 10.6126 20.5677 10.712 20.9333 10.8493L20.948 10.8356C22.0244 9.82406 21.4408 8.01616 19.976 7.82503L15.0932 7.18788C14.9258 7.16604 14.7808 7.06123 14.7075 6.90919L12.5767 2.48888Z" fill="#353566"/>
<path fill-rule="evenodd" clip-rule="evenodd" d="M19.0001 14C17.8955 14 17.0001 14.8954 17.0001 16C17.0001 17.1046 17.8955 18 19.0001 18C20.1047 18 21.0001 17.1046 21.0001 16C21.0001 14.8954 20.1047 14 19.0001 14ZM18.0001 16C18.0001 15.4477 18.4478 15 19.0001 15C19.5524 15 20.0001 15.4477 20.0001 16C20.0001 16.5523 19.5524 17 19.0001 17C18.4478 17 18.0001 16.5523 18.0001 16Z" fill="#353566"/>
<path fill-rule="evenodd" clip-rule="evenodd" d="M14.5001 16.002C14.5001 13.517 16.5145 11.5 19.0002 11.5C21.4855 11.5 23.5001 13.5147 23.5001 16C23.5001 18.7667 21.3001 20.9 19.3001 22.4C19.1223 22.5333 18.8779 22.5333 18.7001 22.4C16.7002 20.9001 14.5001 18.7667 14.5001 16.002ZM19.0002 12.5C17.0674 12.5 15.5001 14.0687 15.5001 16.002C15.5001 18.1211 17.1235 19.9113 19.0001 21.3709C20.8766 19.9113 22.5001 18.121 22.5001 16C22.5001 14.067 20.9332 12.5 19.0002 12.5Z" fill="#353566"/>
</svg>
