<svg width="24" height="24" viewBox="0 0 24 24" fill="none" xmlns="http://www.w3.org/2000/svg">
<path opacity="0.4" d="M16.9326 3.25H7.06739C6.11495 3.24999 5.35439 3.24999 4.74013 3.30018C4.11012 3.35165 3.56824 3.45963 3.07054 3.71322C2.27085 4.12068 1.62068 4.77085 1.21322 5.57054C0.959634 6.06824 0.85165 6.61012 0.800176 7.24013C0.749989 7.85439 0.749994 8.61494 0.75 9.56738V14.4326C0.749994 15.3851 0.749989 16.1456 0.800176 16.7599C0.85165 17.3899 0.959634 17.9318 1.21322 18.4295C1.62068 19.2291 2.27085 19.8793 3.07054 20.2868C3.56824 20.5404 4.11012 20.6483 4.74013 20.6998C5.35438 20.75 6.1149 20.75 7.0673 20.75H16.9326C17.885 20.75 18.6456 20.75 19.2599 20.6998C19.8899 20.6483 20.4318 20.5404 20.9295 20.2868C21.7291 19.8793 22.3793 19.2291 22.7868 18.4295C23.0404 17.9318 23.1483 17.3899 23.1998 16.7599C23.25 16.1456 23.25 15.3851 23.25 14.4327V9.56737C23.25 8.61496 23.25 7.85438 23.1998 7.24013C23.1483 6.61012 23.0404 6.06824 22.7868 5.57054C22.3793 4.77085 21.7291 4.12068 20.9295 3.71322C20.4318 3.45963 19.8899 3.35165 19.2599 3.30018C18.6456 3.24999 17.8851 3.24999 16.9326 3.25Z" fill="#353566"/>
<path d="M13 8.25C12.5858 8.25 12.25 8.58579 12.25 9V15C12.25 15.4142 12.5858 15.75 13 15.75C13.4142 15.75 13.75 15.4142 13.75 15V13.3107L14.4043 12.6564L16.3898 15.436C16.6305 15.773 17.0989 15.8511 17.436 15.6104C17.773 15.3696 17.8511 14.9012 17.6104 14.5641L15.4796 11.5811L17.5303 9.53033C17.8232 9.23744 17.8232 8.76256 17.5303 8.46967C17.2374 8.17678 16.7626 8.17678 16.4697 8.46967L13.9741 10.9652C13.9707 10.9686 13.9673 10.972 13.964 10.9754L13.75 11.1893V9C13.75 8.58579 13.4142 8.25 13 8.25Z" fill="#353566"/>
<path d="M7.96395 8.28136C8.36095 8.39951 8.587 8.81713 8.46885 9.21414L7.50573 12.4502H8.75V11.4004C8.75 10.9862 9.08579 10.6504 9.5 10.6504C9.91421 10.6504 10.25 10.9862 10.25 11.4004V12.4502H10.5C10.9142 12.4502 11.25 12.786 11.25 13.2002C11.25 13.6144 10.9142 13.9502 10.5 13.9502H10.25V15.0004C10.25 15.4146 9.91421 15.7504 9.5 15.7504C9.08579 15.7504 8.75 15.4146 8.75 15.0004V13.9502H6.50001C6.26322 13.9502 6.04033 13.8384 5.89878 13.6486C5.75722 13.4587 5.71362 13.2132 5.78117 12.9863L7.03117 8.78626C7.14932 8.38925 7.56694 8.1632 7.96395 8.28136Z" fill="#353566"/>
</svg>
