<svg width="24" height="24" viewBox="0 0 24 24" fill="none" xmlns="http://www.w3.org/2000/svg">
<g clip-path="url(#clip0_9001_293923)">
<g opacity="0.4">
<path d="M15.6219 1.25H8.367C7.27486 1.24999 6.40935 1.24999 5.71173 1.30699C4.99834 1.36527 4.39472 1.48688 3.84355 1.76772C2.94978 2.22312 2.22312 2.94978 1.76772 3.84355C1.48688 4.39472 1.36527 4.99834 1.30699 5.71173C1.24999 6.40935 1.24999 7.27485 1.25 8.36699V15.6219C1.25 16.5811 1.25 17.3635 1.28749 18.0074C1.30466 18.3023 1.49337 18.5597 1.76947 18.6647C2.04558 18.7698 2.35765 18.703 2.56655 18.4941L18.4941 2.56655C18.703 2.35765 18.7698 2.04558 18.6647 1.76947C18.5597 1.49337 18.3023 1.30466 18.0074 1.28749C17.3635 1.25 16.5811 1.25 15.6219 1.25Z" fill="#353566"/>
<path d="M21.3588 2.64124C21.2181 2.50059 21.0273 2.42157 20.8284 2.42157C20.6295 2.42157 20.4387 2.50059 20.2981 2.64124L2.64124 20.2981C2.50059 20.4387 2.42157 20.6295 2.42157 20.8284C2.42157 21.0273 2.50059 21.2181 2.64124 21.3588C2.99155 21.7091 3.39666 22.0046 3.84354 22.2323C4.39472 22.5131 4.99834 22.6347 5.71173 22.693C6.40935 22.75 7.27484 22.75 8.36698 22.75H15.633C16.7252 22.75 17.5906 22.75 18.2883 22.693C19.0017 22.6347 19.6053 22.5131 20.1565 22.2323C21.0502 21.7769 21.7769 21.0502 22.2323 20.1565C22.5131 19.6053 22.6347 19.0017 22.693 18.2883C22.75 17.5906 22.75 16.7252 22.75 15.633V8.36698C22.75 7.27484 22.75 6.40935 22.693 5.71173C22.6347 4.99834 22.5131 4.39472 22.2323 3.84354C22.0046 3.39666 21.7091 2.99155 21.3588 2.64124Z" fill="#353566"/>
</g>
<path d="M22.4697 0.46967C22.7626 0.176777 23.2374 0.176777 23.5303 0.46967C23.8232 0.762563 23.8232 1.23744 23.5303 1.53033L17.5307 7.52994C17.6713 7.82366 17.75 8.15266 17.75 8.49991C17.75 9.74255 16.7427 10.7499 15.5 10.7499C15.1528 10.7499 14.8238 10.6711 14.5301 10.5306L11.5628 13.4979L19.4004 21.3356C19.5981 21.5332 19.6695 21.8245 19.5855 22.0911C19.5016 22.3578 19.2763 22.5556 19.001 22.6044C18.1812 22.7497 17.1239 22.7496 15.6862 22.7496L8.37078 22.7496C7.27868 22.7496 6.41314 22.7496 5.71554 22.6926C5.00215 22.6343 4.39853 22.5127 3.84735 22.2319C3.62597 22.1191 3.41484 21.9896 3.21554 21.8451L1.53033 23.5303C1.23744 23.8232 0.762562 23.8232 0.469669 23.5303C0.176777 23.2374 0.176777 22.7626 0.469669 22.4697L2.63563 20.3037C2.63816 20.3011 2.64072 20.2985 2.6433 20.2959L9.97172 12.9675C9.97431 12.9649 9.97691 12.9624 9.97953 12.9598L22.4697 0.46967Z" fill="#353566"/>
<path d="M5.55926 11.3835C6.43495 10.5078 7.75257 10.347 8.79105 10.8973C9.00131 11.0087 9.14623 11.2133 9.18157 11.4486C9.21691 11.6839 9.13848 11.9221 8.97022 12.0903L2.57016 18.4904C2.36124 18.6993 2.04913 18.7661 1.773 18.661C1.49687 18.5559 1.30819 18.2984 1.29109 18.0035C1.2587 17.4448 1.25452 16.7852 1.25391 16.0001C1.25375 15.801 1.33278 15.61 1.47358 15.4692L5.55926 11.3835Z" fill="#353566"/>
</g>
<defs>
<clipPath id="clip0_9001_293923">
<rect width="24" height="24" fill="white"/>
</clipPath>
</defs>
</svg>
