<svg width="24" height="24" viewBox="0 0 24 24" fill="none" xmlns="http://www.w3.org/2000/svg">
<g opacity="0.4">
<path d="M12 21.75C12.4142 21.75 12.75 21.4142 12.75 21C12.75 20.5858 12.4142 20.25 12 20.25L2 20.25C1.58579 20.25 1.25 20.5858 1.25 21C1.25 21.4142 1.58579 21.75 2 21.75L12 21.75Z" fill="#353566"/>
<path d="M12 15.75C12.4142 15.75 12.75 15.4142 12.75 15C12.75 14.5858 12.4142 14.25 12 14.25H2C1.58579 14.25 1.25 14.5858 1.25 15C1.25 15.4142 1.58579 15.75 2 15.75H12Z" fill="#353566"/>
<path d="M22.75 3C22.75 3.41421 22.4142 3.75 22 3.75H2C1.58579 3.75 1.25 3.41421 1.25 3C1.25 2.58579 1.58579 2.25 2 2.25H22C22.4142 2.25 22.75 2.58579 22.75 3Z" fill="#353566"/>
<path d="M22 9.75C22.4142 9.75 22.75 9.41421 22.75 9C22.75 8.58579 22.4142 8.25 22 8.25L2 8.25C1.58579 8.25 1.25 8.58578 1.25 9C1.25 9.41421 1.58579 9.75 2 9.75L22 9.75Z" fill="#353566"/>
</g>
<path d="M22.5303 15.2197C22.8232 15.5126 22.8232 15.9874 22.5303 16.2803L18.0303 20.7803C17.7374 21.0732 17.2626 21.0732 16.9697 20.7803L14.4697 18.2803C14.1768 17.9874 14.1768 17.5126 14.4697 17.2197C14.7626 16.9268 15.2374 16.9268 15.5303 17.2197L17.5 19.1893L21.4697 15.2197C21.7626 14.9268 22.2374 14.9268 22.5303 15.2197Z" fill="#353566"/>
</svg>
