<svg width="24" height="24" viewBox="0 0 24 24" fill="none" xmlns="http://www.w3.org/2000/svg">
<path opacity="0.4" d="M13 4C13 3.44772 12.5523 3 12 3C6.47715 3 2 7.47715 2 13C2 18.5228 6.47715 23 12 23C17.5228 23 22 18.5228 22 13C22 11.4053 21.626 9.89511 20.96 8.55497C20.7142 8.06039 20.114 7.8587 19.6194 8.10449C19.1249 8.35027 18.9232 8.95045 19.169 9.44503C19.7006 10.5148 20 11.721 20 13C20 17.4183 16.4183 21 12 21C7.58172 21 4 17.4183 4 13C4 8.58172 7.58172 5 12 5C12.5523 5 13 4.55228 13 4Z" fill="#353566"/>
<path d="M9.79289 0.792893C9.40237 1.18342 9.40237 1.81658 9.79289 2.20711L11.5858 4L9.79289 5.79289C9.40237 6.18342 9.40237 6.81658 9.79289 7.20711C10.1834 7.59763 10.8166 7.59763 11.2071 7.20711L13.7071 4.70711C13.8946 4.51957 14 4.26522 14 4C14 3.73478 13.8946 3.48043 13.7071 3.29289L11.2071 0.792893C10.8166 0.402369 10.1834 0.402369 9.79289 0.792893Z" fill="#353566"/>
<path d="M13.2929 0.792893C12.9024 1.18342 12.9024 1.81658 13.2929 2.20711L15.0858 4L13.2929 5.79289C12.9024 6.18342 12.9024 6.81658 13.2929 7.20711C13.6834 7.59763 14.3166 7.59763 14.7071 7.20711L17.2071 4.70711C17.3946 4.51957 17.5 4.26522 17.5 4C17.5 3.73478 17.3946 3.48043 17.2071 3.29289L14.7071 0.792893C14.3166 0.402369 13.6834 0.402369 13.2929 0.792893Z" fill="#353566"/>
<path fill-rule="evenodd" clip-rule="evenodd" d="M15 9.75C13.6193 9.75 12.5 10.8693 12.5 12.25V14.75C12.5 16.1307 13.6193 17.25 15 17.25C16.3807 17.25 17.5 16.1307 17.5 14.75V12.25C17.5 10.8693 16.3807 9.75 15 9.75ZM14 12.25C14 11.6977 14.4477 11.25 15 11.25C15.5523 11.25 16 11.6977 16 12.25V14.75C16 15.3023 15.5523 15.75 15 15.75C14.4477 15.75 14 15.3023 14 14.75V12.25Z" fill="#353566"/>
<path d="M10.25 12.1499C10.6642 12.1499 11 12.4857 11 12.8999V13.9502H11.25C11.6642 13.9502 12 14.286 12 14.7002C12 15.1144 11.6642 15.4502 11.25 15.4502H11V16.4999C11 16.9141 10.6642 17.2499 10.25 17.2499C9.83579 17.2499 9.5 16.9141 9.5 16.4999V15.4502H7.25001C7.01322 15.4502 6.79033 15.3384 6.64878 15.1486C6.50722 14.9587 6.46362 14.7132 6.53117 14.4863L7.78117 10.2863C7.89932 9.88925 8.31694 9.6632 8.71395 9.78136C9.11095 9.89951 9.337 10.3171 9.21885 10.7141L8.25573 13.9502H9.5V12.8999C9.5 12.4857 9.83579 12.1499 10.25 12.1499Z" fill="#353566"/>
</svg>
