<svg width="24" height="24" viewBox="0 0 24 24" fill="none" xmlns="http://www.w3.org/2000/svg">
<g clip-path="url(#clip0_9001_294463)">
<path opacity="0.4" d="M12 0.25C5.51065 0.25 0.25 5.51065 0.25 12C0.25 18.4893 5.51065 23.75 12 23.75C18.4893 23.75 23.75 18.4893 23.75 12C23.75 5.51065 18.4893 0.25 12 0.25Z" fill="#353566"/>
<path d="M8.99805 5.75C9.41226 5.75 9.74805 6.08579 9.74805 6.5V17.5C9.74805 17.9142 9.41226 18.25 8.99805 18.25C8.58383 18.25 8.24805 17.9142 8.24805 17.5V6.5C8.24805 6.08579 8.58383 5.75 8.99805 5.75Z" fill="#353566"/>
<path d="M14.996 7.25C15.4102 7.25 15.746 7.58579 15.746 8V16C15.746 16.4142 15.4102 16.75 14.996 16.75C14.5818 16.75 14.246 16.4142 14.246 16V8C14.246 7.58579 14.5818 7.25 14.996 7.25Z" fill="#353566"/>
<path d="M17.9961 10.75C18.4103 10.75 18.7461 11.0858 18.7461 11.5V12.5C18.7461 12.9142 18.4103 13.25 17.9961 13.25C17.5819 13.25 17.2461 12.9142 17.2461 12.5V11.5C17.2461 11.0858 17.5819 10.75 17.9961 10.75Z" fill="#353566"/>
<path d="M12.748 10C12.748 9.58579 12.4123 9.25 11.998 9.25C11.5838 9.25 11.248 9.58579 11.248 10V14C11.248 14.4142 11.5838 14.75 11.998 14.75C12.4123 14.75 12.748 14.4142 12.748 14V10Z" fill="#353566"/>
<path d="M6.75 9.5C6.75 9.08579 6.41421 8.75 6 8.75C5.58579 8.75 5.25 9.08579 5.25 9.5V14.5C5.25 14.9142 5.58579 15.25 6 15.25C6.41421 15.25 6.75 14.9142 6.75 14.5V9.5Z" fill="#353566"/>
</g>
<defs>
<clipPath id="clip0_9001_294463">
<rect width="24" height="24" fill="white"/>
</clipPath>
</defs>
</svg>
