<svg width="24" height="24" viewBox="0 0 24 24" fill="none" xmlns="http://www.w3.org/2000/svg">
<path d="M21.5 10.75C22.1904 10.75 22.75 11.3096 22.75 12C22.75 12.6904 22.1904 13.2501 21.5 13.2501C20.8096 13.2501 20.25 12.6905 20.25 12.0001C20.25 11.3097 20.8096 10.75 21.5 10.75Z" fill="#353566"/>
<path d="M12 10.75C12.6904 10.75 13.25 11.3096 13.25 12C13.25 12.6904 12.6904 13.2501 12 13.2501C11.3096 13.2501 10.75 12.6905 10.75 12.0001C10.75 11.3097 11.3096 10.75 12 10.75Z" fill="#353566"/>
<path d="M3.75 12C3.75 11.3096 3.19036 10.75 2.5 10.75C1.80964 10.75 1.25 11.3096 1.25 12C1.25 12.6904 1.80964 13.2501 2.5 13.2501C3.19036 13.2501 3.75 12.6904 3.75 12Z" fill="#353566"/>
</svg>
