<svg width="24" height="24" viewBox="0 0 24 24" fill="none" xmlns="http://www.w3.org/2000/svg">
<path d="M10.75 2.5C10.75 1.80964 11.3096 1.25 12 1.25C12.6904 1.25 13.2501 1.80964 13.2501 2.5C13.2501 3.19036 12.6905 3.75 12.0001 3.75C11.3097 3.75 10.75 3.19036 10.75 2.5Z" fill="#353566"/>
<path d="M10.75 12C10.75 11.3096 11.3096 10.75 12 10.75C12.6904 10.75 13.2501 11.3096 13.2501 12C13.2501 12.6904 12.6905 13.25 12.0001 13.25C11.3097 13.25 10.75 12.6904 10.75 12Z" fill="#353566"/>
<path d="M12 20.25C11.3096 20.25 10.75 20.8096 10.75 21.5C10.75 22.1904 11.3096 22.75 12 22.75C12.6904 22.75 13.2501 22.1904 13.2501 21.5C13.2501 20.8096 12.6904 20.25 12 20.25Z" fill="#353566"/>
</svg>
