<svg width="24" height="24" viewBox="0 0 24 24" fill="none" xmlns="http://www.w3.org/2000/svg">
<path opacity="0.4" d="M1.5 5C1.5 3.067 3.067 1.5 5 1.5H19C20.933 1.5 22.5 3.067 22.5 5V14C22.5 15.933 20.933 17.5 19 17.5H16.7559C16.851 16.4867 17.075 15.4901 17.4692 14.5011H17.4995C18.3279 14.5011 18.9995 13.8296 18.9995 13.0011C18.9995 12.1727 18.3279 11.5011 17.4995 11.5011H16.559C16.5199 11.4996 16.4809 11.4996 16.4421 11.5011H7.55786C7.51905 11.4996 7.48007 11.4996 7.44099 11.5011H6.49951C5.67108 11.5011 4.99951 12.1727 4.99951 13.0011C4.99951 13.8296 5.67108 14.5011 6.49951 14.5011H6.53084C6.92495 15.4901 7.14896 16.4867 7.24412 17.5H5C3.067 17.5 1.5 15.933 1.5 14V5Z" fill="#353566"/>
<path d="M5 1.5C3.067 1.5 1.5 3.067 1.5 5V14C1.5 15.933 3.067 17.5 5 17.5H5.5C5.77614 17.5 6 17.2761 6 17C6 16.7239 5.77614 16.5 5.5 16.5H5C3.61929 16.5 2.5 15.3807 2.5 14V5C2.5 3.61929 3.61929 2.5 5 2.5H19C20.3807 2.5 21.5 3.61929 21.5 5V14C21.5 15.3807 20.3807 16.5 19 16.5H18.5C18.2239 16.5 18 16.7239 18 17C18 17.2761 18.2239 17.5 18.5 17.5H19C20.933 17.5 22.5 15.933 22.5 14V5C22.5 3.067 20.933 1.5 19 1.5H5Z" fill="#353566"/>
<path fill-rule="evenodd" clip-rule="evenodd" d="M6.49957 12.5009C6.22343 12.5009 5.99957 12.7247 5.99957 13.0009C5.99957 13.277 6.22343 13.5009 6.49957 13.5009H7.18698C8.48709 16.2775 8.48199 19.0666 8.00679 21.9178C7.96139 22.1902 8.1454 22.4478 8.41779 22.4932C8.69017 22.5386 8.94779 22.3546 8.99318 22.0822C9.08076 21.5567 9.15359 21.0293 9.20618 20.5002H11.5V21.9991C11.5 22.2753 11.7239 22.4991 12 22.4991C12.2761 22.4991 12.5 22.2753 12.5 21.9991V20.5002H14.7938C14.8464 21.0293 14.9192 21.5567 15.0068 22.0822C15.0522 22.3546 15.3098 22.5386 15.5822 22.4932C15.8546 22.4478 16.0386 22.1902 15.9932 21.9178C15.518 19.0666 15.5129 16.2775 16.813 13.5009H17.4996C17.7757 13.5009 17.9996 13.277 17.9996 13.0009C17.9996 12.7247 17.7757 12.5009 17.4996 12.5009H16.5316C16.5107 12.4995 16.4899 12.4996 16.4692 12.5009H7.53079C7.51011 12.4996 7.48929 12.4995 7.46843 12.5009H6.49957ZM12.5 19.5002H14.72C14.681 18.67 14.6998 17.8361 14.7976 16.9996H12.5V19.5002ZM12.5 15.9996H14.9531C15.1156 15.1685 15.3638 14.3352 15.7181 13.5009H12.5V15.9996ZM11.5 13.5009V15.9996H9.04686C8.88441 15.1685 8.63624 14.3352 8.2819 13.5009H11.5ZM11.5 16.9996V19.5002H9.28001C9.31903 18.67 9.30016 17.8361 9.2024 16.9996H11.5Z" fill="#353566"/>
<path d="M7.5 7.25C7.5 6.2835 8.2835 5.5 9.25 5.5H14.75C15.7165 5.5 16.5 6.2835 16.5 7.25V10C16.5 10.2761 16.2761 10.5 16 10.5C15.7239 10.5 15.5 10.2761 15.5 10V7.25C15.5 6.83579 15.1642 6.5 14.75 6.5H9.25C8.83579 6.5 8.5 6.83579 8.5 7.25V10C8.5 10.2761 8.27614 10.5 8 10.5C7.72386 10.5 7.5 10.2761 7.5 10V7.25Z" fill="#353566"/>
</svg>
