<svg width="24" height="24" viewBox="0 0 24 24" fill="none" xmlns="http://www.w3.org/2000/svg">
<path opacity="0.4" fill-rule="evenodd" clip-rule="evenodd" d="M18.5432 7.97536L18.7211 9.93187C18.9041 11.9453 19.5874 13.8811 20.7089 15.5634L20.7422 15.6132C20.9103 15.8654 21 16.1617 21 16.4648C21 17.3127 20.3127 18 19.4648 18H4.53518C3.68732 18 3 17.3127 3 16.4648C3 16.1617 3.08971 15.8654 3.25783 15.6132L3.29109 15.5634C4.41257 13.8811 5.09588 11.9453 5.27892 9.93188L5.45679 7.97536C5.76444 4.59119 8.60187 2 12 2C15.3981 2 18.2356 4.59119 18.5432 7.97536ZM9.5 10.25C8.94772 10.25 8.5 10.6977 8.5 11.25V14.25C8.5 14.8023 8.94772 15.25 9.5 15.25H14.5C15.0523 15.25 15.5 14.8023 15.5 14.25V11.25C15.5 10.6977 15.0523 10.25 14.5 10.25H9.5Z" fill="#353566"/>
<path fill-rule="evenodd" clip-rule="evenodd" d="M8 11.25C8 10.4216 8.67157 9.75 9.5 9.75V8.75C9.5 7.36929 10.6193 6.25 12 6.25C13.3807 6.25 14.5 7.36929 14.5 8.75V9.75C15.3284 9.75 16 10.4216 16 11.25V14.25C16 15.0784 15.3284 15.75 14.5 15.75H9.5C8.67157 15.75 8 15.0784 8 14.25V11.25ZM13.5 9.75V8.75C13.5 7.92157 12.8284 7.25 12 7.25C11.1716 7.25 10.5 7.92157 10.5 8.75V9.75H13.5ZM9.5 10.75C9.22386 10.75 9 10.9739 9 11.25V14.25C9 14.5261 9.22386 14.75 9.5 14.75H14.5C14.7761 14.75 15 14.5261 15 14.25V11.25C15 10.9739 14.7761 10.75 14.5 10.75H9.5Z" fill="#353566"/>
<path fill-rule="evenodd" clip-rule="evenodd" d="M12 1.5C8.34327 1.5 5.2899 4.28838 4.95884 7.93009L4.78097 9.88661C4.60547 11.8171 3.95033 13.6731 2.87507 15.286L2.84181 15.3359C2.61893 15.6702 2.5 16.063 2.5 16.4648C2.5 17.5888 3.41118 18.5 4.53518 18.5H19.4648C20.5888 18.5 21.5 17.5888 21.5 16.4648C21.5 16.063 21.3811 15.6702 21.1582 15.3359L21.1249 15.286C20.0497 13.6731 19.3945 11.8171 19.219 9.8866L19.0412 7.93009C18.7101 4.28838 15.6567 1.5 12 1.5ZM5.95473 8.02063C6.23897 4.894 8.86047 2.5 12 2.5C15.1395 2.5 17.761 4.89399 18.0453 8.02063L18.2231 9.97714C18.4137 12.0736 19.1252 14.0892 20.2929 15.8407L20.3261 15.8906C20.4395 16.0606 20.5 16.2604 20.5 16.4648C20.5 17.0365 20.0365 17.5 19.4648 17.5H4.53518C3.96347 17.5 3.5 17.0365 3.5 16.4648C3.5 16.2604 3.56049 16.0606 3.67386 15.8906L3.70712 15.8407C4.87481 14.0892 5.58628 12.0736 5.77687 9.97714L5.95473 8.02063Z" fill="#353566"/>
<path d="M9.83416 20.2497C9.69589 20.0107 9.39003 19.929 9.151 20.0673C8.91197 20.2056 8.83028 20.5114 8.96856 20.7504C9.57297 21.7953 10.7039 22.5001 12 22.5001C13.2961 22.5001 14.4271 21.7953 15.0315 20.7504C15.1697 20.5114 15.0881 20.2056 14.849 20.0673C14.61 19.929 14.3041 20.0107 14.1659 20.2497C13.7328 20.9983 12.9247 21.5001 12 21.5001C11.0753 21.5001 10.2672 20.9983 9.83416 20.2497Z" fill="#353566"/>
</svg>
