<svg width="24" height="24" viewBox="0 0 24 24" fill="none" xmlns="http://www.w3.org/2000/svg">
<path opacity="0.4" d="M12.2772 22.0001H11.7226C9.12316 22.0001 7.82341 22.0001 6.69518 21.0206C5.56695 20.041 5.4098 18.933 5.09551 16.7168C5.06271 16.4855 5.03077 16.2466 4.99996 16.0001C4.55029 12.4027 4.10061 5.97436 4.01465 4.7168C4.26721 6.53653 7.74581 7.00008 12 7.00008C16.2458 7.00008 19.719 6.53836 19.9838 4.72751C19.8917 6.01042 19.4235 12.4128 19 16.0001C18.9731 16.2276 18.9453 16.4486 18.9166 16.6631C18.618 18.9007 18.4686 20.0195 17.3374 21.0098C16.2061 22.0001 14.8965 22.0001 12.2772 22.0001Z" fill="#353566"/>
<path fill-rule="evenodd" clip-rule="evenodd" d="M12.441 22.5C14.8986 22.5006 16.3931 22.5009 17.6667 21.3859C18.9401 20.2713 19.1132 18.9721 19.3964 16.8478L19.4122 16.7292C19.4412 16.5122 19.4694 16.2886 19.4965 16.0586C19.9196 12.4751 20.3861 6.105 20.4811 4.78215C20.4936 4.69086 20.5 4.59681 20.5 4.5C20.5 3.82474 20.1877 3.28368 19.6862 2.8772C19.2017 2.48452 18.5373 2.21156 17.7822 2.01597C16.2694 1.62409 14.2156 1.5 12 1.5C9.78439 1.5 7.73065 1.62409 6.21777 2.01597C5.46268 2.21156 4.7983 2.48452 4.31384 2.87719C3.81234 3.28368 3.5 3.82474 3.5 4.5C3.5 4.59163 3.50575 4.6808 3.51695 4.76749C3.60544 6.06063 4.05402 12.4637 4.50382 16.062C4.53497 16.3113 4.56727 16.5529 4.60046 16.7869L4.61705 16.904C4.91514 19.0085 5.09742 20.2955 6.36738 21.398C7.63764 22.5009 9.12093 22.5006 11.5603 22.5H12.441ZM4.75381 5.16517C4.66247 5.06044 4.59846 4.95238 4.55759 4.84046C4.51856 4.73321 4.5 4.62026 4.5 4.5C4.5 4.17526 4.63537 3.90382 4.94352 3.65405C5.2687 3.39048 5.77589 3.16343 6.46852 2.98403C7.85107 2.6259 9.79733 2.5 12 2.5C14.2027 2.5 16.1489 2.6259 17.5315 2.98402C18.2241 3.16344 18.7313 3.39048 19.0565 3.65405C19.3646 3.90382 19.5 4.17526 19.5 4.5C19.5 4.59333 19.4888 4.68226 19.4656 4.76754C19.4229 4.92367 19.338 5.07251 19.2 5.2153C19.1571 5.25959 19.1094 5.30309 19.0565 5.34595C19.0371 5.36164 19.0171 5.3772 18.9965 5.39263C18.9771 5.40706 18.9572 5.42143 18.9365 5.43574C18.8473 5.49768 18.7477 5.55719 18.6376 5.61419C18.3429 5.76681 17.9738 5.90138 17.5315 6.01597C17.4783 6.02976 17.424 6.04325 17.3687 6.05645C15.9963 6.38399 14.1152 6.50001 12 6.50001C11.776 6.50001 11.5546 6.49871 11.3362 6.49599C10.2629 6.48265 9.26097 6.43516 8.36897 6.34006C7.72486 6.27139 7.13809 6.1779 6.62321 6.05453C6.57089 6.04199 6.51933 6.02913 6.46852 6.01597C5.77589 5.83656 5.2687 5.60952 4.94352 5.34594C4.87083 5.28703 4.80776 5.22691 4.75381 5.16517ZM9.68056 7.44467C8.44749 7.37946 7.3233 7.25058 6.3902 7.02701C5.71558 6.86536 5.11141 6.64762 4.63155 6.34827C4.81301 8.83298 5.15491 13.2085 5.4961 15.938C5.52657 16.1817 5.55814 16.4179 5.59055 16.6465C5.9108 18.9047 6.05985 19.8068 7.02297 20.6429C7.98124 21.4749 9.06004 21.5 11.7226 21.5H12.2772C14.9603 21.5 16.0473 21.4746 17.008 20.6335C17.9736 19.7882 18.1166 18.8773 18.421 16.5969C18.4493 16.3849 18.4768 16.1664 18.5034 15.9414C18.8257 13.2115 19.1746 8.8382 19.3625 6.35196C19.3023 6.38929 19.2403 6.42535 19.1764 6.46019C18.9136 6.60349 18.6198 6.72611 18.3022 6.8315C18.1565 6.87984 18.0058 6.92456 17.8508 6.96599C17.7686 6.98795 17.6853 7.00898 17.6008 7.02913C16.9867 7.17571 16.29 7.2814 15.5342 7.35504C14.9131 7.41555 14.2521 7.45441 13.5641 7.4765C13.0557 7.49283 12.5326 7.50001 12 7.50001C11.5683 7.50001 11.1428 7.4953 10.7264 7.48482C10.3706 7.47586 10.0214 7.4627 9.68056 7.44467Z" fill="#353566"/>
</svg>
