<svg width="24" height="24" viewBox="0 0 24 24" fill="none" xmlns="http://www.w3.org/2000/svg">
<path opacity="0.4" fill-rule="evenodd" clip-rule="evenodd" d="M22 9.2V14.8C22 17.3202 22 18.5804 21.5095 19.543C21.0781 20.3897 20.3897 21.0781 19.543 21.5095C18.5804 22 17.3202 22 14.8 22H9.2C6.67976 22 5.41965 22 4.45704 21.5095C3.61031 21.0781 2.9219 20.3897 2.49047 19.543C2 18.5804 2 17.3202 2 14.8V9.2C2 6.67976 2 5.41965 2.49047 4.45704C2.9219 3.61031 3.61031 2.9219 4.45704 2.49047C5.41965 2 6.67976 2 9.2 2H14.8C17.3202 2 18.5804 2 19.543 2.49047C20.3897 2.9219 21.0781 3.61031 21.5095 4.45704C22 5.41964 22 6.67978 22 9.2ZM7.91744 13.1669H10.2507C10.5729 13.1669 10.8341 13.4279 10.8341 13.7499V17.2495C10.8341 17.8007 11.5286 18.0441 11.873 17.6136L16.5396 11.7809C16.845 11.3992 16.5731 10.8338 16.084 10.8338H13.7507C13.4286 10.8338 13.1674 10.5728 13.1674 10.2508V6.75117C13.1674 6.19999 12.4729 5.95658 12.1285 6.38705L7.46185 12.2197C7.15641 12.6015 7.42836 13.1669 7.91744 13.1669Z" fill="#353566"/>
<path fill-rule="evenodd" clip-rule="evenodd" d="M13.6678 6.75088C13.6678 5.72649 12.3777 5.27533 11.7384 6.07439L7.07181 11.9071C6.50412 12.6166 7.00999 13.6666 7.91781 13.6666H10.2511C10.2974 13.6666 10.3344 13.704 10.3344 13.7496V17.2492C10.3344 18.2736 11.6245 18.7247 12.2638 17.9257L16.9304 12.093C17.4981 11.3835 16.9922 10.3335 16.0844 10.3335H13.7511C13.7048 10.3335 13.6678 10.2961 13.6678 10.2505V6.75088ZM12.5193 6.69912C12.5371 6.67685 12.5513 6.67126 12.5606 6.66888C12.5733 6.66562 12.5917 6.66541 12.6121 6.67256C12.6325 6.67971 12.6466 6.69132 12.6545 6.70171C12.6602 6.70929 12.6678 6.72244 12.6678 6.75088V10.2505C12.6678 10.8489 13.153 11.3335 13.7511 11.3335H16.0844C16.1074 11.3335 16.1207 11.3394 16.1298 11.3453C16.1406 11.3525 16.1517 11.3643 16.1595 11.3806C16.1674 11.3969 16.1697 11.413 16.1685 11.4258C16.1675 11.4365 16.1639 11.4504 16.1496 11.4683L11.4829 17.3009C11.4651 17.3232 11.4509 17.3288 11.4416 17.3312C11.4289 17.3344 11.4105 17.3347 11.3901 17.3275C11.3697 17.3204 11.3556 17.3087 11.3477 17.2984C11.342 17.2908 11.3344 17.2776 11.3344 17.2492V13.7496C11.3344 13.1512 10.8492 12.6666 10.2511 12.6666H7.91781C7.89477 12.6666 7.88149 12.6607 7.87245 12.6547C7.86159 12.6476 7.85051 12.6357 7.84266 12.6194C7.83482 12.6031 7.8325 12.5871 7.83368 12.5743C7.83466 12.5636 7.83832 12.5497 7.85265 12.5318L12.5193 6.69912Z" fill="#353566"/>
<path fill-rule="evenodd" clip-rule="evenodd" d="M15.6226 1.5H8.37737C7.27642 1.5 6.41948 1.5 5.73209 1.55616C5.03416 1.61318 4.4671 1.73058 3.95704 1.99047C3.11031 2.4219 2.4219 3.11031 1.99047 3.95704C1.73058 4.4671 1.61318 5.03416 1.55616 5.73209C1.5 6.41948 1.5 7.27641 1.5 8.37737V15.6226C1.5 16.7236 1.5 17.5805 1.55616 18.2679C1.61318 18.9658 1.73058 19.5329 1.99047 20.043C2.4219 20.8897 3.11031 21.5781 3.95704 22.0095C4.4671 22.2694 5.03416 22.3868 5.73209 22.4438C6.4195 22.5 7.27645 22.5 8.37744 22.5H15.6225C16.7235 22.5 17.5805 22.5 18.2679 22.4438C18.9658 22.3868 19.5329 22.2694 20.043 22.0095C20.8897 21.5781 21.5781 20.8897 22.0095 20.043C22.2694 19.5329 22.3868 18.9658 22.4438 18.2679C22.5 17.5805 22.5 16.7236 22.5 15.6227V8.37736C22.5 7.27642 22.5 6.41947 22.4438 5.73209C22.3868 5.03416 22.2694 4.4671 22.0095 3.95704C21.5781 3.11031 20.8897 2.4219 20.043 1.99047C19.5329 1.73058 18.9658 1.61318 18.2679 1.55616C17.5805 1.5 16.7236 1.5 15.6226 1.5ZM4.41103 2.88148C4.75662 2.70539 5.17744 2.60481 5.81352 2.55284C6.45545 2.50039 7.27164 2.5 8.4 2.5H15.6C16.7284 2.5 17.5446 2.50039 18.1865 2.55284C18.8226 2.60481 19.2434 2.70539 19.589 2.88148C20.2475 3.21703 20.783 3.75247 21.1185 4.41103C21.2946 4.75662 21.3952 5.17744 21.4472 5.81352C21.4996 6.45545 21.5 7.27164 21.5 8.4V15.6C21.5 16.7284 21.4996 17.5446 21.4472 18.1865C21.3952 18.8226 21.2946 19.2434 21.1185 19.589C20.783 20.2475 20.2475 20.783 19.589 21.1185C19.2434 21.2946 18.8226 21.3952 18.1865 21.4472C17.5446 21.4996 16.7284 21.5 15.6 21.5H8.4C7.27164 21.5 6.45545 21.4996 5.81352 21.4472C5.17744 21.3952 4.75662 21.2946 4.41103 21.1185C3.75247 20.783 3.21703 20.2475 2.88148 19.589C2.70539 19.2434 2.60481 18.8226 2.55284 18.1865C2.50039 17.5446 2.5 16.7284 2.5 15.6V8.4C2.5 7.27164 2.50039 6.45545 2.55284 5.81352C2.60481 5.17744 2.70539 4.75662 2.88148 4.41103C3.21703 3.75247 3.75247 3.21703 4.41103 2.88148Z" fill="#353566"/>
</svg>
