<svg width="24" height="24" viewBox="0 0 24 24" fill="none" xmlns="http://www.w3.org/2000/svg">
<path opacity="0.4" fill-rule="evenodd" clip-rule="evenodd" d="M10.5 19C15.1944 19 19 15.1944 19 10.5C19 5.80558 15.1944 2 10.5 2C5.80558 2 2 5.80558 2 10.5C2 15.1944 5.80558 19 10.5 19ZM10.5 14.5C12.7091 14.5 14.5 12.7091 14.5 10.5C14.5 8.29086 12.7091 6.5 10.5 6.5C8.29086 6.5 6.5 8.29086 6.5 10.5C6.5 12.7091 8.29086 14.5 10.5 14.5Z" fill="#353566"/>
<path d="M11 8.5C11 8.22386 10.7761 8 10.5 8C10.2239 8 10 8.22386 10 8.5V10.5C10 10.6326 10.0527 10.7598 10.1464 10.8536L11.1464 11.8536C11.3417 12.0488 11.6583 12.0488 11.8536 11.8536C12.0488 11.6583 12.0488 11.3417 11.8536 11.1464L11 10.2929V8.5Z" fill="#353566"/>
<path fill-rule="evenodd" clip-rule="evenodd" d="M6 10.5C6 8.01472 8.01472 6 10.5 6C12.9853 6 15 8.01472 15 10.5C15 12.9853 12.9853 15 10.5 15C8.01472 15 6 12.9853 6 10.5ZM10.5 7C8.567 7 7 8.567 7 10.5C7 12.433 8.567 14 10.5 14C12.433 14 14 12.433 14 10.5C14 8.567 12.433 7 10.5 7Z" fill="#353566"/>
<path fill-rule="evenodd" clip-rule="evenodd" d="M16.5006 17.2077C14.9083 18.6332 12.8054 19.5 10.5 19.5C5.52944 19.5 1.5 15.4706 1.5 10.5C1.5 5.52944 5.52944 1.5 10.5 1.5C15.4706 1.5 19.5 5.52944 19.5 10.5C19.5 12.8054 18.6332 14.9083 17.2077 16.5006L22.3536 21.6464C22.5488 21.8417 22.5488 22.1583 22.3536 22.3536C22.1583 22.5488 21.8417 22.5488 21.6464 22.3536L16.5006 17.2077ZM2.5 10.5C2.5 6.08172 6.08172 2.5 10.5 2.5C14.9183 2.5 18.5 6.08172 18.5 10.5C18.5 12.6669 17.6385 14.6326 16.2393 16.0732C16.2062 16.0934 16.175 16.1179 16.1464 16.1464C16.1179 16.175 16.0934 16.2062 16.0732 16.2393C14.6326 17.6385 12.6669 18.5 10.5 18.5C6.08172 18.5 2.5 14.9183 2.5 10.5Z" fill="#353566"/>
</svg>
