<svg width="24" height="24" viewBox="0 0 24 24" fill="none" xmlns="http://www.w3.org/2000/svg">
<path opacity="0.4" d="M6.558 2.20598C6.749 2.57998 6.749 2.96398 6.749 3.60098V4.40098C6.749 5.03798 6.749 5.42198 6.558 5.79698C6.39 6.12698 6.125 6.39198 5.794 6.56098C5.419 6.75198 5.035 6.75198 4.399 6.75198H3.599C2.963 6.75198 2.579 6.75198 2.205 6.56198C1.873 6.39298 1.608 6.12798 1.44 5.79698C1.25 5.42298 1.25 5.03898 1.25 4.40198V3.60198C1.25 2.96598 1.25 2.58098 1.44 2.20698C1.609 1.87498 1.874 1.60998 2.206 1.44098C2.579 1.25098 2.963 1.25098 3.599 1.25098H4.399C5.035 1.25098 5.419 1.25098 5.793 1.44098C6.124 1.60898 6.389 1.87398 6.558 2.20598ZM22.558 2.20598C22.389 1.87398 22.124 1.60898 21.793 1.44098C21.419 1.25098 21.035 1.25098 20.399 1.25098H19.599C18.963 1.25098 18.579 1.25098 18.206 1.44098C17.874 1.60998 17.609 1.87498 17.44 2.20698C17.25 2.58098 17.25 2.96498 17.25 3.60198V4.40198C17.25 5.03798 17.25 5.42298 17.44 5.79698C17.608 6.12798 17.873 6.39298 18.205 6.56198C18.579 6.75198 18.963 6.75198 19.599 6.75198H20.399C21.035 6.75198 21.419 6.75198 21.794 6.56098C22.126 6.39198 22.39 6.12698 22.558 5.79698C22.749 5.42198 22.749 5.03798 22.749 4.40098V3.60098C22.749 2.96398 22.749 2.57998 22.558 2.20598ZM5.793 9.43998C5.419 9.24998 5.035 9.24998 4.399 9.24998H3.599C2.963 9.24998 2.579 9.24998 2.206 9.43998C1.874 9.60898 1.609 9.87398 1.44 10.206C1.25 10.58 1.25 10.964 1.25 11.601V12.401C1.25 13.037 1.25 13.422 1.44 13.796C1.608 14.127 1.873 14.392 2.205 14.561C2.579 14.751 2.963 14.751 3.599 14.751H4.399C5.035 14.751 5.419 14.751 5.794 14.56C6.126 14.391 6.39 14.126 6.558 13.796C6.749 13.421 6.749 13.037 6.749 12.4V11.6C6.749 10.963 6.749 10.579 6.558 10.205C6.389 9.87298 6.124 9.60798 5.793 9.43998ZM5.793 17.44C5.419 17.25 5.035 17.25 4.399 17.25H3.599C2.963 17.25 2.579 17.25 2.206 17.44C1.874 17.609 1.609 17.874 1.44 18.206C1.25 18.58 1.25 18.964 1.25 19.601V20.401C1.25 21.037 1.25 21.422 1.44 21.796C1.608 22.127 1.873 22.392 2.205 22.561C2.579 22.751 2.963 22.751 3.599 22.751H4.399C5.035 22.751 5.419 22.751 5.794 22.56C6.126 22.391 6.39 22.126 6.558 21.796C6.749 21.421 6.749 21.037 6.749 20.4V19.6C6.749 18.963 6.749 18.579 6.558 18.205C6.389 17.873 6.124 17.608 5.793 17.44ZM21.793 9.43998C21.419 9.24998 21.035 9.24998 20.399 9.24998H19.599C18.963 9.24998 18.579 9.24998 18.206 9.43998C17.874 9.60898 17.609 9.87398 17.44 10.206C17.25 10.58 17.25 10.964 17.25 11.601V12.401C17.25 13.037 17.25 13.422 17.44 13.796C17.608 14.127 17.873 14.392 18.205 14.561C18.579 14.751 18.963 14.751 19.599 14.751H20.399C21.035 14.751 21.419 14.751 21.794 14.56C22.126 14.391 22.39 14.126 22.558 13.796C22.749 13.421 22.749 13.037 22.749 12.4V11.6C22.749 10.963 22.749 10.579 22.558 10.205C22.389 9.87298 22.124 9.60798 21.793 9.43998ZM21.793 17.44C21.419 17.25 21.035 17.25 20.399 17.25H19.599C18.963 17.25 18.579 17.25 18.206 17.44C17.874 17.609 17.609 17.874 17.44 18.206C17.25 18.58 17.25 18.964 17.25 19.601V20.401C17.25 21.037 17.25 21.422 17.44 21.796C17.608 22.127 17.873 22.392 18.205 22.561C18.579 22.751 18.963 22.751 19.599 22.751H20.399C21.035 22.751 21.419 22.751 21.794 22.56C22.126 22.391 22.39 22.126 22.558 21.796C22.749 21.421 22.749 21.037 22.749 20.4V19.6C22.749 18.963 22.749 18.579 22.558 18.205C22.389 17.873 22.124 17.608 21.793 17.44Z" fill="#353566"/>
<path d="M13.793 1.44C13.419 1.25 13.035 1.25 12.399 1.25H11.599C10.963 1.25 10.579 1.25 10.206 1.44C9.874 1.609 9.609 1.874 9.44 2.206C9.25 2.58 9.25 2.964 9.25 3.601V4.401C9.25 5.037 9.25 5.422 9.44 5.796C9.608 6.127 9.873 6.392 10.205 6.561C10.579 6.751 10.963 6.751 11.599 6.751H12.399C13.035 6.751 13.419 6.751 13.794 6.56C14.126 6.391 14.39 6.126 14.558 5.796C14.749 5.421 14.749 5.037 14.749 4.4V3.6C14.749 2.963 14.749 2.579 14.558 2.205C14.389 1.873 14.124 1.608 13.793 1.44ZM13.793 9.44C13.419 9.25 13.035 9.25 12.399 9.25H11.599C10.963 9.25 10.579 9.25 10.206 9.44C9.874 9.609 9.609 9.874 9.44 10.206C9.25 10.58 9.25 10.964 9.25 11.601V12.401C9.25 13.037 9.25 13.422 9.44 13.796C9.608 14.127 9.873 14.392 10.205 14.561C10.579 14.751 10.963 14.751 11.599 14.751H12.399C13.035 14.751 13.419 14.751 13.794 14.56C14.126 14.391 14.39 14.126 14.558 13.796C14.749 13.421 14.749 13.037 14.749 12.4V11.6C14.749 10.963 14.749 10.579 14.558 10.205C14.389 9.873 14.124 9.608 13.793 9.44ZM13.793 17.44C13.419 17.25 13.035 17.25 12.399 17.25H11.599C10.963 17.25 10.579 17.25 10.206 17.44C9.874 17.609 9.609 17.874 9.44 18.206C9.25 18.58 9.25 18.964 9.25 19.601V20.401C9.25 21.037 9.25 21.422 9.44 21.796C9.608 22.127 9.873 22.392 10.205 22.561C10.579 22.751 10.963 22.751 11.599 22.751H12.399C13.035 22.751 13.419 22.751 13.794 22.56C14.126 22.391 14.39 22.126 14.558 21.796C14.749 21.421 14.749 21.037 14.749 20.4V19.6C14.749 18.963 14.749 18.579 14.558 18.205C14.389 17.873 14.124 17.608 13.793 17.44Z" fill="#353566"/>
</svg>
