<svg width="24" height="24" viewBox="0 0 24 24" fill="none" xmlns="http://www.w3.org/2000/svg">
<g clip-path="url(#clip0_9001_301931)">
<path d="M11 1.75024C5.89137 1.75024 1.75 5.89161 1.75 11.0002C1.75 16.1089 5.89137 20.2502 11 20.2502C11.0989 20.2502 11.1974 20.2487 11.2955 20.2456C11.7095 20.2326 12.0557 20.5577 12.0687 20.9718C12.0816 21.3858 11.7565 21.7319 11.3425 21.7449C11.2288 21.7484 11.1146 21.7502 11 21.7502C5.06294 21.7502 0.25 16.9373 0.25 11.0002C0.25 5.06318 5.06294 0.250244 11 0.250244C16.9371 0.250244 21.75 5.06318 21.75 11.0002C21.75 11.1148 21.7482 11.229 21.7446 11.3428C21.7317 11.7568 21.3855 12.0819 20.9715 12.0689C20.5575 12.0559 20.2324 11.7098 20.2454 11.2958C20.2484 11.1977 20.25 11.0991 20.25 11.0002C20.25 5.89161 16.1086 1.75024 11 1.75024Z" fill="#353566"/>
<path fill-rule="evenodd" clip-rule="evenodd" d="M7.54167 8.08356C7.54167 7.66934 7.87745 7.33356 8.29167 7.33356H9.12502V6.83358C9.12502 6.4884 9.40484 6.20858 9.75002 6.20858C10.0952 6.20858 10.375 6.4884 10.375 6.83358V7.33356H10.7917V6.83361C10.7917 6.48844 11.0715 6.20861 11.4167 6.20861C11.7619 6.20861 12.0417 6.48844 12.0417 6.83361V7.37281C13.0621 7.56767 13.8333 8.46472 13.8333 9.5419C13.8333 9.94951 13.7229 10.3313 13.5303 10.6591C14.092 11.0594 14.4584 11.7162 14.4584 12.4586C14.4584 13.6782 13.4696 14.6669 12.25 14.6669H12.0417V15.1669C12.0417 15.5121 11.7619 15.7919 11.4167 15.7919C11.0715 15.7919 10.7917 15.5121 10.7917 15.1669V14.6669H10.375V15.1669C10.375 15.5121 10.0952 15.7919 9.75002 15.7919C9.40484 15.7919 9.12502 15.5121 9.12502 15.1669V14.6669H8.29169C7.87747 14.6669 7.54169 14.3311 7.54169 13.9169C7.54169 13.5027 7.87747 13.1669 8.29169 13.1669H8.44684V8.83356H8.29167C7.87745 8.83356 7.54167 8.49777 7.54167 8.08356ZM12.25 13.1669H9.94684V11.7502H12.25C12.6412 11.7502 12.9584 12.0674 12.9584 12.4586C12.9584 12.8498 12.6412 13.1669 12.25 13.1669ZM11.625 10.2502H9.94684V8.83356H11.625C12.0162 8.83356 12.3333 9.15069 12.3333 9.5419C12.3333 9.93311 12.0162 10.2502 11.625 10.2502Z" fill="#353566"/>
<path d="M19.0449 19.2028L19.8113 18.4365C20.0553 18.1924 20.4511 18.1924 20.6951 18.4365C20.9392 18.6806 20.9392 19.0763 20.6951 19.3204L18.8618 21.1537C18.7446 21.2709 18.5856 21.3368 18.4198 21.3368C18.2541 21.3368 18.0951 21.2709 17.9779 21.1537L16.1446 19.3204C15.9005 19.0763 15.9005 18.6806 16.1446 18.4365C16.3887 18.1924 16.7844 18.1924 17.0285 18.4365L17.7949 19.203V16.1284C17.7949 15.7832 18.0747 15.5034 18.4199 15.5034C18.7651 15.5034 19.0449 15.7832 19.0449 16.1284V19.2028Z" fill="#353566"/>
<path fill-rule="evenodd" clip-rule="evenodd" d="M18.4199 13.0869C15.4744 13.0869 13.0865 15.4747 13.0865 18.4202C13.0865 21.3658 15.4744 23.7536 18.4199 23.7536C21.3654 23.7536 23.7532 21.3658 23.7532 18.4202C23.7532 15.4747 21.3654 13.0869 18.4199 13.0869ZM14.5865 18.4202C14.5865 16.3032 16.3028 14.5869 18.4199 14.5869C20.537 14.5869 22.2532 16.3032 22.2532 18.4202C22.2532 20.5373 20.537 22.2536 18.4199 22.2536C16.3028 22.2536 14.5865 20.5373 14.5865 18.4202Z" fill="#353566"/>
</g>
<defs>
<clipPath id="clip0_9001_301931">
<rect width="24" height="24" fill="white"/>
</clipPath>
</defs>
</svg>
