<svg width="24" height="24" viewBox="0 0 24 24" fill="none" xmlns="http://www.w3.org/2000/svg">
<g clip-path="url(#clip0_9001_301961)">
<path d="M1.75 11C1.75 5.89137 5.89137 1.75 11 1.75C16.1086 1.75 20.25 5.89137 20.25 11C20.25 11.0989 20.2484 11.1974 20.2454 11.2955C20.2324 11.7095 20.5575 12.0557 20.9715 12.0687C21.3855 12.0816 21.7317 11.7565 21.7446 11.3425C21.7482 11.2288 21.75 11.1146 21.75 11C21.75 5.06294 16.9371 0.25 11 0.25C5.06294 0.25 0.25 5.06294 0.25 11C0.25 16.9371 5.06294 21.75 11 21.75C11.1146 21.75 11.2288 21.7482 11.3425 21.7446C11.7565 21.7317 12.0816 21.3855 12.0687 20.9715C12.0557 20.5575 11.7095 20.2324 11.2955 20.2454C11.1974 20.2484 11.0989 20.25 11 20.25C5.89137 20.25 1.75 16.1086 1.75 11Z" fill="#353566"/>
<path fill-rule="evenodd" clip-rule="evenodd" d="M8.29167 7.33331C7.87745 7.33331 7.54167 7.6691 7.54167 8.08331C7.54167 8.49753 7.87745 8.83331 8.29167 8.83331H8.44684V13.1667H8.29169C7.87747 13.1667 7.54169 13.5025 7.54169 13.9167C7.54169 14.3309 7.87747 14.6667 8.29169 14.6667H9.12502V15.1667C9.12502 15.5119 9.40484 15.7917 9.75002 15.7917C10.0952 15.7917 10.375 15.5119 10.375 15.1667V14.6667H10.7917V15.1667C10.7917 15.5119 11.0715 15.7917 11.4167 15.7917C11.7619 15.7917 12.0417 15.5119 12.0417 15.1667V14.6667H12.25C13.4696 14.6667 14.4584 13.678 14.4584 12.4583C14.4584 11.716 14.092 11.0592 13.5303 10.6588C13.7229 10.3311 13.8333 9.94926 13.8333 9.54166C13.8333 8.46447 13.0621 7.56742 12.0417 7.37257V6.83337C12.0417 6.48819 11.7619 6.20837 11.4167 6.20837C11.0715 6.20837 10.7917 6.48819 10.7917 6.83337V7.33331H10.375V6.83333C10.375 6.48816 10.0952 6.20833 9.75002 6.20833C9.40484 6.20833 9.12502 6.48816 9.12502 6.83333V7.33331H8.29167ZM9.94684 13.1667H12.25C12.6412 13.1667 12.9584 12.8496 12.9584 12.4583C12.9584 12.0671 12.6412 11.75 12.25 11.75H9.94684V13.1667ZM9.94684 10.25H11.625C12.0162 10.25 12.3333 9.93286 12.3333 9.54166C12.3333 9.15045 12.0162 8.83331 11.625 8.83331H9.94684V10.25Z" fill="#353566"/>
<path d="M19.0449 16.1282C19.0449 15.783 18.7651 15.5032 18.4199 15.5032C18.0747 15.5032 17.7949 15.783 17.7949 16.1282V18.4199C17.7949 18.6289 17.8994 18.824 18.0732 18.9399L19.4482 19.8565C19.7355 20.048 20.1235 19.9704 20.315 19.6832C20.5064 19.396 20.4288 19.0079 20.1416 18.8165L19.0449 18.0854V16.1282Z" fill="#353566"/>
<path fill-rule="evenodd" clip-rule="evenodd" d="M13.0865 18.42C13.0865 15.4745 15.4744 13.0867 18.4199 13.0867C21.3654 13.0867 23.7532 15.4745 23.7532 18.42C23.7532 21.3655 21.3654 23.7533 18.4199 23.7533C15.4744 23.7533 13.0865 21.3655 13.0865 18.42ZM18.4199 14.5867C16.3028 14.5867 14.5865 16.3029 14.5865 18.42C14.5865 20.5371 16.3028 22.2533 18.4199 22.2533C20.537 22.2533 22.2532 20.5371 22.2532 18.42C22.2532 16.3029 20.537 14.5867 18.4199 14.5867Z" fill="#353566"/>
</g>
<defs>
<clipPath id="clip0_9001_301961">
<rect width="24" height="24" fill="white"/>
</clipPath>
</defs>
</svg>
