<svg width="24" height="24" viewBox="0 0 24 24" fill="none" xmlns="http://www.w3.org/2000/svg">
<g clip-path="url(#clip0_9001_302031)">
<path d="M1.75 11C1.75 5.89137 5.89137 1.75 11 1.75C16.0827 1.75 20.2079 5.84941 20.2497 10.9221C20.2531 11.3363 20.5916 11.6693 21.0058 11.6659C21.42 11.6625 21.753 11.3239 21.7496 10.9097C21.7011 5.01416 16.9069 0.25 11 0.25C5.06294 0.25 0.25 5.06294 0.25 11C0.25 16.9371 5.06294 21.75 11 21.75C11.1234 21.75 11.2463 21.7479 11.3688 21.7438C11.7828 21.7298 12.107 21.3829 12.0931 20.9689C12.0791 20.5549 11.7322 20.2307 11.3182 20.2446C11.2126 20.2482 11.1065 20.25 11 20.25C5.89137 20.25 1.75 16.1086 1.75 11Z" fill="#353566"/>
<path fill-rule="evenodd" clip-rule="evenodd" d="M8.29167 7.33331C7.87745 7.33331 7.54167 7.6691 7.54167 8.08331C7.54167 8.49753 7.87745 8.83331 8.29167 8.83331H8.44684V13.1667H8.29169C7.87747 13.1667 7.54169 13.5025 7.54169 13.9167C7.54169 14.3309 7.87747 14.6667 8.29169 14.6667H9.12502V15.1667C9.12502 15.5119 9.40484 15.7917 9.75002 15.7917C10.0952 15.7917 10.375 15.5119 10.375 15.1667V14.6667H10.7917V15.1667C10.7917 15.5119 11.0715 15.7917 11.4167 15.7917C11.7619 15.7917 12.0417 15.5119 12.0417 15.1667V14.6667H12.25C13.4696 14.6667 14.4584 13.678 14.4584 12.4583C14.4584 11.716 14.092 11.0592 13.5303 10.6588C13.7229 10.3311 13.8333 9.94926 13.8333 9.54166C13.8333 8.46447 13.0621 7.56742 12.0417 7.37257V6.83337C12.0417 6.48819 11.7619 6.20837 11.4167 6.20837C11.0715 6.20837 10.7917 6.48819 10.7917 6.83337V7.33331H10.375V6.83333C10.375 6.48816 10.0952 6.20833 9.75002 6.20833C9.40484 6.20833 9.12502 6.48816 9.12502 6.83333V7.33331H8.29167ZM9.94684 13.1667H12.25C12.6412 13.1667 12.9584 12.8496 12.9584 12.4583C12.9584 12.0671 12.6412 11.75 12.25 11.75H9.94684V13.1667ZM9.94684 10.25H11.625C12.0162 10.25 12.3333 9.93286 12.3333 9.54166C12.3333 9.15045 12.0162 8.83331 11.625 8.83331H9.94684V10.25Z" fill="#353566"/>
<path fill-rule="evenodd" clip-rule="evenodd" d="M19.9744 13.4681C20.7036 12.961 21.6712 12.9608 22.4005 13.4676C22.5579 13.577 22.706 13.7253 22.8719 13.8914L22.9101 13.9296L22.9484 13.9678C23.1146 14.1337 23.2631 14.2818 23.3726 14.4392C23.8799 15.1684 23.8801 16.1363 23.373 16.8657C23.2636 17.0231 23.1152 17.1713 22.9491 17.3372L17.4627 22.8245C17.363 22.9243 17.2372 22.9939 17.0997 23.0253L14.004 23.7343C13.7523 23.792 13.4886 23.7161 13.3061 23.5335C13.1236 23.3508 13.0478 23.0871 13.1056 22.8355L13.8154 19.7432C13.8469 19.606 13.9164 19.4803 14.016 19.3807L19.5032 13.8921C19.669 13.726 19.8171 13.5776 19.9744 13.4681ZM21.5445 14.6994C21.33 14.5503 21.0454 14.5504 20.8309 14.6996C20.799 14.7217 20.7532 14.7634 20.5258 14.9909L20.1311 15.3856L21.4552 16.7097L21.85 16.3148C22.0776 16.0873 22.1192 16.0414 22.1414 16.0095C22.2905 15.795 22.2905 15.5103 22.1412 15.2958C22.119 15.2639 22.0774 15.2181 21.8498 14.9906C21.6222 14.7632 21.5764 14.7216 21.5445 14.6994ZM20.3947 17.7705L19.0706 16.4464L15.2291 20.2889L14.8352 22.0051L16.5545 21.6114L20.3947 17.7705Z" fill="#353566"/>
</g>
<defs>
<clipPath id="clip0_9001_302031">
<rect width="24" height="24" fill="white"/>
</clipPath>
</defs>
</svg>
