<svg width="24" height="24" viewBox="0 0 24 24" fill="none" xmlns="http://www.w3.org/2000/svg">
<g clip-path="url(#clip0_9001_302016)">
<path d="M11 1.75024C5.89137 1.75024 1.75 5.89161 1.75 11.0002C1.75 16.1089 5.89137 20.2502 11 20.2502C11.5418 20.2502 12.0722 20.2037 12.5874 20.1147C12.9956 20.0441 13.3837 20.3178 13.4542 20.726C13.5248 21.1341 13.2511 21.5222 12.8429 21.5928C12.2436 21.6963 11.6278 21.7502 11 21.7502C5.06294 21.7502 0.25 16.9373 0.25 11.0002C0.25 5.06318 5.06294 0.250244 11 0.250244C16.9371 0.250244 21.75 5.06318 21.75 11.0002C21.75 11.1446 21.7472 11.2883 21.7415 11.4314C21.7252 11.8453 21.3764 12.1676 20.9625 12.1512C20.5486 12.1349 20.2263 11.7861 20.2427 11.3722C20.2475 11.2489 20.25 11.1249 20.25 11.0002C20.25 5.89161 16.1086 1.75024 11 1.75024Z" fill="#353566"/>
<path fill-rule="evenodd" clip-rule="evenodd" d="M7.54167 8.08356C7.54167 7.66934 7.87745 7.33356 8.29167 7.33356H9.12502V6.83358C9.12502 6.4884 9.40484 6.20858 9.75002 6.20858C10.0952 6.20858 10.375 6.4884 10.375 6.83358V7.33356H10.7917V6.83361C10.7917 6.48844 11.0715 6.20861 11.4167 6.20861C11.7619 6.20861 12.0417 6.48844 12.0417 6.83361V7.37281C13.0621 7.56767 13.8333 8.46472 13.8333 9.5419C13.8333 9.94951 13.7229 10.3313 13.5303 10.6591C14.092 11.0594 14.4584 11.7162 14.4584 12.4586C14.4584 13.6782 13.4696 14.6669 12.25 14.6669H12.0417V15.1669C12.0417 15.5121 11.7619 15.7919 11.4167 15.7919C11.0715 15.7919 10.7917 15.5121 10.7917 15.1669V14.6669H10.375V15.1669C10.375 15.5121 10.0952 15.7919 9.75002 15.7919C9.40484 15.7919 9.12502 15.5121 9.12502 15.1669V14.6669H8.29169C7.87747 14.6669 7.54169 14.3311 7.54169 13.9169C7.54169 13.5027 7.87747 13.1669 8.29169 13.1669H8.44684V8.83356H8.29167C7.87745 8.83356 7.54167 8.49777 7.54167 8.08356ZM12.25 13.1669H9.94684V11.7502H12.25C12.6412 11.7502 12.9584 12.0674 12.9584 12.4586C12.9584 12.8498 12.6412 13.1669 12.25 13.1669ZM11.625 10.2502H9.94684V8.83356H11.625C12.0162 8.83356 12.3333 9.15069 12.3333 9.5419C12.3333 9.93311 12.0162 10.2502 11.625 10.2502Z" fill="#353566"/>
<path fill-rule="evenodd" clip-rule="evenodd" d="M19.7996 13.3644C19.219 13.0741 18.5355 13.0742 17.9549 13.3646L14.6837 15.0006C14.3051 15.1899 14.0659 15.5768 14.0657 16.0001C14.0651 17.3279 14.1541 18.6033 14.6961 19.8422C15.4434 21.5501 16.8255 22.8767 18.5267 23.619C18.7503 23.7166 19.0043 23.7166 19.2279 23.619C20.9295 22.8765 22.312 21.5482 23.0593 19.84C23.6007 18.6024 23.6901 17.3282 23.6907 16.0016C23.6909 15.5775 23.4514 15.1898 23.072 15.0002L19.7996 13.3644ZM18.5699 14.5943C18.7635 14.4975 18.9913 14.4975 19.1849 14.5943L22.3157 16.1593C22.3152 17.2409 22.241 18.28 21.7996 19.2889C21.2225 20.6081 20.182 21.6682 18.8772 22.2704C17.5729 21.669 16.5327 20.6095 15.9558 19.291C15.514 18.2814 15.4402 17.2417 15.4407 16.1594L18.5699 14.5943Z" fill="#353566"/>
</g>
<defs>
<clipPath id="clip0_9001_302016">
<rect width="24" height="24" fill="white"/>
</clipPath>
</defs>
</svg>
