<svg width="24" height="24" viewBox="0 0 24 24" fill="none" xmlns="http://www.w3.org/2000/svg">
<g clip-path="url(#clip0_9001_301376)">
<path d="M11 1.75006C5.89137 1.75006 1.75 5.89143 1.75 11.0001C1.75 16.1087 5.89137 20.2501 11 20.2501C11.7361 20.2501 12.4512 20.1642 13.1362 20.0023C13.5393 19.9071 13.9433 20.1566 14.0386 20.5597C14.1339 20.9628 13.8843 21.3669 13.4812 21.4621C12.684 21.6505 11.8531 21.7501 11 21.7501C5.06294 21.7501 0.25 16.9371 0.25 11.0001C0.25 5.063 5.06294 0.250061 11 0.250061C16.9371 0.250061 21.75 5.063 21.75 11.0001C21.75 11.0305 21.7499 11.061 21.7496 11.0914C21.7462 11.5056 21.4076 11.8385 20.9934 11.8351C20.5792 11.8316 20.2462 11.4931 20.2497 11.0789C20.2499 11.0526 20.25 11.0264 20.25 11.0001C20.25 5.89143 16.1086 1.75006 11 1.75006Z" fill="#353566"/>
<path d="M11 6.08341C11.4142 6.08341 11.75 6.41919 11.75 6.83341V7.18468C11.941 7.21939 12.1282 7.27155 12.3182 7.3469C12.7289 7.50981 13.1077 7.76403 13.5361 8.08841C13.8663 8.33846 13.9313 8.80887 13.6813 9.13909C13.4312 9.46932 12.9608 9.53431 12.6306 9.28427C12.2256 8.97764 11.9794 8.82622 11.7652 8.74124C11.5684 8.6632 11.3573 8.62506 11 8.62506C10.4815 8.62506 10.1299 8.74786 9.9295 8.89302C9.75155 9.02189 9.66667 9.18158 9.66667 9.40147C9.66667 9.66152 9.77009 9.80586 10.0122 9.94137C10.3017 10.1034 10.7019 10.19 11.1233 10.2603C11.5352 10.3289 12.1767 10.4454 12.7205 10.7499C13.3118 11.0808 13.8333 11.6663 13.8333 12.5986C13.8333 13.3192 13.5016 13.9228 12.9503 14.322C12.6072 14.5704 12.1962 14.7293 11.75 14.8103V15.1667C11.75 15.5809 11.4142 15.9167 11 15.9167C10.5858 15.9167 10.25 15.5809 10.25 15.1667V14.8154C10.059 14.7807 9.8718 14.7285 9.6818 14.6532C9.27108 14.4903 8.8923 14.236 8.46391 13.9117C8.13369 13.6616 8.06869 13.1912 8.31874 12.861C8.56879 12.5308 9.0392 12.4658 9.36942 12.7158C9.77437 13.0224 10.0206 13.1739 10.2349 13.2589C10.4316 13.3369 10.6427 13.3751 11 13.3751C11.5185 13.3751 11.8701 13.2523 12.0705 13.1071C12.2485 12.9782 12.3333 12.8185 12.3333 12.5986C12.3333 12.3386 12.2299 12.1943 11.9878 12.0587C11.6984 11.8967 11.2981 11.8101 10.8767 11.7399C10.4648 11.6712 9.82335 11.5547 9.27949 11.2503C8.68824 10.9193 8.16667 10.3338 8.16667 9.40147C8.16667 8.68089 8.49845 8.07737 9.04966 7.67816C9.39276 7.42968 9.80379 7.27078 10.25 7.18983V6.83341C10.25 6.41919 10.5858 6.08341 11 6.08341Z" fill="#353566"/>
<path fill-rule="evenodd" clip-rule="evenodd" d="M20.9416 14.2957C20.9416 13.212 19.5771 12.7351 18.901 13.5801L15.2343 18.1629C14.6338 18.9136 15.1691 20.0241 16.1291 20.0241H17.7333V22.5444C17.7333 23.6281 19.0978 24.105 19.7739 23.26L23.4405 18.6772C24.0411 17.9265 23.5058 16.816 22.5457 16.816H20.9416V14.2957ZM16.6063 18.6491L19.5666 14.9491V17.0454C19.5666 17.6784 20.0799 18.191 20.7124 18.191H22.0686L19.1083 21.891V19.7947C19.1083 19.1617 18.5949 18.6491 17.9624 18.6491H16.6063Z" fill="#353566"/>
</g>
<defs>
<clipPath id="clip0_9001_301376">
<rect width="24" height="24" fill="white"/>
</clipPath>
</defs>
</svg>
