<svg width="24" height="24" viewBox="0 0 24 24" fill="none" xmlns="http://www.w3.org/2000/svg">
<g clip-path="url(#clip0_9001_301786)">
<path d="M11 1.75C5.89137 1.75 1.75 5.89137 1.75 11C1.75 16.1086 5.89137 20.25 11 20.25C11.0989 20.25 11.1974 20.2484 11.2955 20.2454C11.7095 20.2324 12.0557 20.5575 12.0687 20.9715C12.0816 21.3855 11.7565 21.7317 11.3425 21.7446C11.2288 21.7482 11.1146 21.75 11 21.75C5.06294 21.75 0.25 16.9371 0.25 11C0.25 5.06294 5.06294 0.25 11 0.25C16.9371 0.25 21.75 5.06294 21.75 11C21.75 11.1146 21.7482 11.2288 21.7446 11.3425C21.7317 11.7565 21.3855 12.0816 20.9715 12.0687C20.5575 12.0557 20.2324 11.7095 20.2454 11.2955C20.2484 11.1974 20.25 11.0989 20.25 11C20.25 5.89137 16.1086 1.75 11 1.75Z" fill="#353566"/>
<path d="M9.53617 6.48193C10.3341 6.09074 11.2222 5.98015 12.0829 6.17191C12.9418 6.36327 13.7151 6.84228 14.3138 7.52666C14.5865 7.83841 14.5549 8.31223 14.2432 8.58496C13.9314 8.85769 13.4576 8.82605 13.1849 8.5143C12.7789 8.05025 12.2793 7.75246 11.7567 7.63601C11.2358 7.51997 10.6952 7.58429 10.1965 7.82878C9.71467 8.06497 9.28337 8.46452 8.96492 8.99683H11.2495C11.6637 8.99683 11.9995 9.33261 11.9995 9.74683C11.9995 10.161 11.6637 10.4968 11.2495 10.4968H8.46027C8.4407 10.6596 8.43001 10.828 8.42859 11.0024C8.42882 11.1689 8.43915 11.3341 8.45916 11.4968H11.2495C11.6637 11.4968 11.9995 11.8326 11.9995 12.2468C11.9995 12.661 11.6637 12.9968 11.2495 12.9968H8.96523C9.28366 13.529 9.7149 13.9285 10.1966 14.1646C10.6396 14.3818 11.1148 14.4564 11.5787 14.39C11.9887 14.3313 12.3687 14.6161 12.4274 15.0261C12.4861 15.4361 12.2013 15.8161 11.7912 15.8748C11.0223 15.9849 10.2435 15.8582 9.53633 15.5115C8.74084 15.1215 8.08045 14.4758 7.62373 13.674C7.50014 13.457 7.39252 13.2305 7.30128 12.9968H6.25C5.83579 12.9968 5.5 12.661 5.5 12.2468C5.5 11.8326 5.83579 11.4968 6.25 11.4968H6.95094C6.93624 11.3328 6.92875 11.1677 6.92859 11.0021L6.92859 10.9988L6.92859 10.997L6.92861 10.9942L6.9287 10.984C6.9302 10.8189 6.93809 10.6565 6.9523 10.4968H6.25C5.83579 10.4968 5.5 10.161 5.5 9.74683C5.5 9.33261 5.83579 8.99683 6.25 8.99683H7.30003C7.39146 8.76324 7.49943 8.5374 7.62357 8.31945C8.08029 7.51757 8.74068 6.87191 9.53617 6.48193Z" fill="#353566"/>
<path d="M20.6952 17.0286C20.9392 16.7845 20.9392 16.3888 20.6952 16.1447C20.4511 15.9007 20.0554 15.9007 19.8113 16.1447L16.1446 19.8114C15.9005 20.0555 15.9005 20.4512 16.1446 20.6953C16.3887 20.9394 16.7844 20.9394 17.0285 20.6953L20.6952 17.0286Z" fill="#353566"/>
<path d="M16.2949 17.045C16.2949 16.6308 16.6307 16.295 17.0449 16.295C17.4591 16.295 17.795 16.6308 17.795 17.045C17.795 17.4592 17.4592 17.795 17.045 17.795C16.6308 17.795 16.2949 17.4592 16.2949 17.045Z" fill="#353566"/>
<path d="M19.7949 19.045C19.3807 19.045 19.0449 19.3808 19.0449 19.795C19.0449 20.2092 19.3807 20.545 19.7949 20.545C20.2091 20.545 20.545 20.2092 20.545 19.795C20.545 19.3808 20.2091 19.045 19.7949 19.045Z" fill="#353566"/>
<path fill-rule="evenodd" clip-rule="evenodd" d="M13.0865 18.42C13.0865 15.4745 15.4744 13.0867 18.4199 13.0867C21.3654 13.0867 23.7532 15.4745 23.7532 18.42C23.7532 21.3655 21.3654 23.7533 18.4199 23.7533C15.4744 23.7533 13.0865 21.3655 13.0865 18.42ZM18.4199 14.5867C16.3028 14.5867 14.5865 16.3029 14.5865 18.42C14.5865 20.5371 16.3028 22.2533 18.4199 22.2533C20.537 22.2533 22.2532 20.5371 22.2532 18.42C22.2532 16.3029 20.537 14.5867 18.4199 14.5867Z" fill="#353566"/>
</g>
<defs>
<clipPath id="clip0_9001_301786">
<rect width="24" height="24" fill="white"/>
</clipPath>
</defs>
</svg>
