<svg width="24" height="24" viewBox="0 0 24 24" fill="none" xmlns="http://www.w3.org/2000/svg">
<g clip-path="url(#clip0_9001_301846)">
<path d="M1.75 11C1.75 5.89137 5.89137 1.75 11 1.75C16.1086 1.75 20.25 5.89137 20.25 11C20.25 11.1246 20.2475 11.2486 20.2427 11.372C20.2263 11.7859 20.5486 12.1346 20.9625 12.151C21.3764 12.1673 21.7252 11.8451 21.7415 11.4312C21.7472 11.2881 21.75 11.1444 21.75 11C21.75 5.06294 16.9371 0.25 11 0.25C5.06294 0.25 0.25 5.06294 0.25 11C0.25 16.9371 5.06294 21.75 11 21.75C11.6278 21.75 12.2436 21.6961 12.8429 21.5925C13.2511 21.522 13.5248 21.1339 13.4542 20.7257C13.3837 20.3176 12.9956 20.0439 12.5874 20.1144C12.0722 20.2035 11.5418 20.25 11 20.25C5.89137 20.25 1.75 16.1086 1.75 11Z" fill="#353566"/>
<path d="M12.0829 6.17188C11.2222 5.98012 10.3341 6.09071 9.53617 6.48189C8.74068 6.87187 8.08029 7.51754 7.62357 8.31942C7.49944 8.53736 7.39147 8.76318 7.30005 8.99677H6.25C5.83579 8.99677 5.5 9.33255 5.5 9.74677C5.5 10.161 5.83579 10.4968 6.25 10.4968H6.95231C6.9381 10.6564 6.9302 10.8188 6.9287 10.9839L6.92861 10.9941L6.92859 10.997L6.92859 10.9987L6.92859 11.0021C6.92875 11.1676 6.93624 11.3327 6.95094 11.4968H6.25C5.83579 11.4968 5.5 11.8326 5.5 12.2468C5.5 12.661 5.83579 12.9968 6.25 12.9968H7.30128C7.39252 13.2305 7.50014 13.457 7.62373 13.6739C8.08045 14.4758 8.74084 15.1215 9.53633 15.5115C10.3343 15.9026 11.2223 16.0132 12.083 15.8215C12.1362 15.8096 12.189 15.7967 12.2414 15.7827C12.6416 15.6757 12.8793 15.2646 12.7723 14.8644C12.6653 14.4643 12.2542 14.2266 11.854 14.3336C11.8217 14.3422 11.7893 14.3501 11.7568 14.3574C11.236 14.4734 10.6953 14.4091 10.1966 14.1646C9.7149 13.9284 9.28366 13.529 8.96523 12.9968H11.2495C11.6637 12.9968 11.9995 12.661 11.9995 12.2468C11.9995 11.8326 11.6637 11.4968 11.2495 11.4968H8.45916C8.43915 11.3341 8.42882 11.1689 8.42859 11.0023C8.43001 10.828 8.4407 10.6596 8.46027 10.4968H11.2495C11.6637 10.4968 11.9995 10.161 11.9995 9.74677C11.9995 9.33255 11.6637 8.99677 11.2495 8.99677H8.96494C9.28338 8.46448 9.71468 8.06494 10.1965 7.82875C10.6952 7.58426 11.2358 7.51994 11.7567 7.63598C12.2793 7.75243 12.7789 8.05022 13.1849 8.51427C13.4576 8.82602 13.9314 8.85766 14.2432 8.58493C14.5549 8.3122 14.5865 7.83838 14.3138 7.52662C13.7151 6.84225 12.9418 6.36323 12.0829 6.17188Z" fill="#353566"/>
<path fill-rule="evenodd" clip-rule="evenodd" d="M19.7997 13.3641C19.219 13.0739 18.5355 13.0739 17.9549 13.3643L14.6838 15.0003C14.3052 15.1897 14.066 15.5766 14.0658 15.9999C14.0652 17.3277 14.1541 18.6031 14.6961 19.8419C15.4434 21.5499 16.8256 22.8765 18.5267 23.6188C18.7503 23.7164 19.0044 23.7164 19.2279 23.6188C20.9295 22.8763 22.312 21.548 23.0593 19.8398C23.6008 18.6022 23.6901 17.3279 23.6908 16.0014C23.691 15.5773 23.4514 15.1895 23.0721 14.9999L19.7997 13.3641ZM18.57 14.5941C18.7635 14.4973 18.9913 14.4973 19.1849 14.594L22.3157 16.159C22.3152 17.2407 22.241 18.2797 21.7996 19.2887C21.2225 20.6079 20.182 21.668 18.8773 22.2702C17.5729 21.6687 16.5327 20.6093 15.9558 19.2908C15.5141 18.2811 15.4402 17.2415 15.4407 16.1591L18.57 14.5941Z" fill="#353566"/>
</g>
<defs>
<clipPath id="clip0_9001_301846">
<rect width="24" height="24" fill="white"/>
</clipPath>
</defs>
</svg>
