<svg width="24" height="24" viewBox="0 0 24 24" fill="none" xmlns="http://www.w3.org/2000/svg">
<g clip-path="url(#clip0_9002_2787)">
<path opacity="0.4" d="M12 0.25C5.51065 0.25 0.25 5.51065 0.25 12C0.25 18.4893 5.51065 23.75 12 23.75C18.4893 23.75 23.75 18.4893 23.75 12C23.75 5.51065 18.4893 0.25 12 0.25Z" fill="#353566"/>
<path d="M12.3436 8.75C10.64 8.75 9.25 10.1422 9.25 11.8705V12.1295C9.25 13.8578 10.64 15.25 12.3436 15.25C13.1123 15.25 13.8419 14.9026 14.3307 14.3011L14.4179 14.1937C14.6791 13.8722 15.1515 13.8234 15.4729 14.0846C15.7944 14.3458 15.8433 14.8181 15.5821 15.1396L15.4949 15.247C14.7227 16.1974 13.5662 16.75 12.3436 16.75C9.80172 16.75 7.75 14.6764 7.75 12.1295V11.8705C7.75 9.32361 9.80172 7.25 12.3436 7.25C13.5662 7.25 14.7227 7.80265 15.4949 8.75303L15.5821 8.86039C15.8433 9.18187 15.7944 9.65422 15.4729 9.91542C15.1515 10.1766 14.6791 10.1278 14.4179 9.80628L14.3307 9.69892C13.8419 9.09739 13.1123 8.75 12.3436 8.75Z" fill="#353566"/>
</g>
<defs>
<clipPath id="clip0_9002_2787">
<rect width="24" height="24" fill="white"/>
</clipPath>
</defs>
</svg>
