<svg width="24" height="24" viewBox="0 0 24 24" fill="none" xmlns="http://www.w3.org/2000/svg">
<path d="M2.75 12.0003C2.75 17.9493 6.699 20.2503 6.867 20.3463C7.226 20.5503 7.355 21.0063 7.153 21.3673C7.015 21.6123 6.761 21.7513 6.499 21.7513C6.376 21.7513 6.251 21.7213 6.136 21.6573C5.936 21.5463 1.25 18.8643 1.25 12.0013C1.25 5.13835 5.936 2.45535 6.136 2.34435C6.496 2.14435 6.954 2.27335 7.156 2.63635C7.357 2.99735 7.227 3.45235 6.867 3.65535C6.699 3.75035 2.75 6.05235 2.75 12.0013V12.0003ZM17.864 2.34435C17.502 2.14335 17.049 2.27435 16.847 2.63435C16.645 2.99435 16.774 3.45135 17.133 3.65535C17.301 3.75035 21.25 6.05235 21.25 12.0013C21.25 17.9503 17.301 20.2513 17.136 20.3453C16.774 20.5463 16.643 21.0033 16.844 21.3653C16.981 21.6123 17.237 21.7513 17.5 21.7513C17.624 21.7513 17.749 21.7213 17.864 21.6573C18.064 21.5463 22.75 18.8643 22.75 12.0013C22.75 5.13835 18.064 2.45535 17.864 2.34435Z" fill="#353566"/>
</svg>
