<svg width="24" height="24" viewBox="0 0 24 24" fill="none" xmlns="http://www.w3.org/2000/svg">
<g clip-path="url(#clip0_9001_301535)">
<path d="M22.5 12C22.5 17.799 17.799 22.5 12 22.5C11.4405 22.5 10.8915 22.4563 10.3563 22.3722C10.0835 22.3293 9.82758 22.5157 9.78471 22.7885C9.74184 23.0613 9.92823 23.3172 10.201 23.36C10.7875 23.4522 11.3883 23.5 12 23.5C18.3513 23.5 23.5 18.3513 23.5 12C23.5 5.64873 18.3513 0.5 12 0.5C11.3883 0.5 10.7875 0.547802 10.201 0.639959C9.92823 0.682831 9.74184 0.938728 9.78471 1.21152C9.82758 1.48432 10.0835 1.67071 10.3563 1.62784C10.8915 1.54372 11.4405 1.5 12 1.5C17.799 1.5 22.5 6.20101 22.5 12Z" fill="#353566"/>
<path d="M5.93827 21.1941C5.77577 21.4174 5.46305 21.4666 5.23978 21.3041C4.26468 20.5945 3.4055 19.7353 2.69585 18.7602C2.53335 18.537 2.58263 18.2242 2.8059 18.0617C3.02917 17.8992 3.3419 17.9485 3.50439 18.1718C4.15261 19.0625 4.93753 19.8474 5.82821 20.4956C6.05149 20.6581 6.10076 20.9708 5.93827 21.1941Z" fill="#353566"/>
<path d="M1.21152 14.2153C0.938728 14.2582 0.682831 14.0718 0.63996 13.799C0.547801 13.2125 0.5 12.6117 0.5 12C0.5 11.3883 0.547801 10.7875 0.63996 10.201C0.682831 9.92823 0.938728 9.74184 1.21152 9.78471C1.48432 9.82758 1.67071 10.0835 1.62784 10.3563C1.54372 10.8915 1.5 11.4405 1.5 12C1.5 12.5595 1.54372 13.1085 1.62784 13.6437C1.67071 13.9165 1.48432 14.1724 1.21152 14.2153Z" fill="#353566"/>
<path d="M2.8059 5.93826C2.58263 5.77577 2.53336 5.46305 2.69585 5.23977C3.4055 4.26468 4.26468 3.4055 5.23978 2.69585C5.46305 2.53335 5.77577 2.58263 5.93827 2.8059C6.10076 3.02917 6.05149 3.3419 5.82822 3.50439C4.93753 4.15261 4.15262 4.93753 3.50439 5.82821C3.3419 6.05149 3.02917 6.10076 2.8059 5.93826Z" fill="#353566"/>
<path fill-rule="evenodd" clip-rule="evenodd" d="M8.75 8C8.47386 8 8.25 8.22386 8.25 8.5C8.25 8.77614 8.47386 9 8.75 9H9.33618V15H8.75C8.47386 15 8.25 15.2239 8.25 15.5C8.25 15.7761 8.47386 16 8.75 16H10V17C10 17.2761 10.2239 17.5 10.5 17.5C10.7761 17.5 11 17.2761 11 17V16H12V17C12 17.2761 12.2239 17.5 12.5 17.5C12.7761 17.5 13 17.2761 13 17V16H13.5C14.7426 16 15.75 14.9926 15.75 13.75C15.75 12.8502 15.2219 12.0739 14.4587 11.7139C14.7962 11.3204 15 10.809 15 10.25C15 9.09187 14.125 8.1381 13 8.01373V7C13 6.72386 12.7761 6.5 12.5 6.5C12.2239 6.5 12 6.72386 12 7V8H11V7C11 6.72386 10.7761 6.5 10.5 6.5C10.2239 6.5 10 6.72386 10 7V8H8.75ZM13.5 15C14.1904 15 14.75 14.4404 14.75 13.75C14.75 13.0596 14.1904 12.5 13.5 12.5H12.7649L12.75 12.5H10.3362V15H13.5ZM10.3362 9H12.75C13.4404 9 14 9.55965 14 10.25C14 10.9367 13.4464 11.494 12.7611 11.5H10.3362V9Z" fill="#353566"/>
</g>
<defs>
<clipPath id="clip0_9001_301535">
<rect width="24" height="24" fill="white"/>
</clipPath>
</defs>
</svg>
