<svg width="24" height="24" viewBox="0 0 24 24" fill="none" xmlns="http://www.w3.org/2000/svg">
<path d="M12 2.5C6.20101 2.5 1.5 7.20101 1.5 13C1.5 18.799 6.20101 23.5 12 23.5C17.799 23.5 22.5 18.799 22.5 13C22.5 12.3316 22.4375 11.6774 22.3178 11.0429C22.2667 10.7716 22.0052 10.5931 21.7339 10.6442C21.4625 10.6954 21.284 10.9569 21.3352 11.2282C21.4433 11.8019 21.5 12.3941 21.5 13C21.5 18.2467 17.2467 22.5 12 22.5C6.7533 22.5 2.5 18.2467 2.5 13C2.5 7.75329 6.7533 3.5 12 3.5C12.6059 3.5 13.1981 3.55666 13.7718 3.66484C14.0431 3.71601 14.3046 3.53751 14.3558 3.26615C14.4069 2.99479 14.2284 2.73333 13.9571 2.68216C13.3226 2.56252 12.6684 2.5 12 2.5Z" fill="#353566"/>
<path d="M12.5 9.40047C12.7516 9.42909 12.987 9.48444 13.226 9.57924C13.604 9.72915 13.9607 9.96624 14.3852 10.2877C14.6053 10.4544 14.6487 10.768 14.482 10.9881C14.3153 11.2083 14.0017 11.2516 13.7815 11.0849C13.3727 10.7753 13.1043 10.6068 12.8573 10.5088C12.622 10.4155 12.3771 10.375 12 10.375C11.446 10.375 11.038 10.5057 10.7829 10.6905C10.5427 10.8644 10.4167 11.0981 10.4167 11.4014C10.4167 11.7735 10.5898 11.9914 10.8901 12.1595C11.2219 12.3452 11.6624 12.4368 12.0822 12.5068C12.4957 12.5757 13.0969 12.6872 13.5984 12.968C14.1315 13.2663 14.5833 13.7783 14.5833 14.5986C14.5833 15.2357 14.2927 15.7653 13.8037 16.1194C13.4461 16.3784 12.9976 16.5344 12.5 16.5954V17.1667C12.5 17.4428 12.2761 17.6667 12 17.6667C11.7239 17.6667 11.5 17.4428 11.5 17.1667V16.5995C11.2484 16.5709 11.013 16.5155 10.774 16.4207C10.396 16.2708 10.0393 16.0337 9.61483 15.7123C9.39468 15.5456 9.35135 15.232 9.51805 15.0118C9.68475 14.7917 9.99835 14.7484 10.2185 14.9151C10.6274 15.2247 10.8957 15.3932 11.1427 15.4912C11.378 15.5845 11.6229 15.625 12 15.625C12.554 15.625 12.962 15.4943 13.2171 15.3095C13.4573 15.1356 13.5833 14.9019 13.5833 14.5986C13.5833 14.2265 13.4102 14.0086 13.1099 13.8405C12.7781 13.6548 12.3376 13.5632 11.9178 13.4932C11.5043 13.4243 10.9031 13.3128 10.4016 13.032C9.86855 12.7337 9.41667 12.2217 9.41667 11.4014C9.41667 10.7643 9.7073 10.2347 10.1963 9.88058C10.5539 9.62157 11.0024 9.46561 11.5 9.40463V8.83335C11.5 8.55721 11.7239 8.33335 12 8.33335C12.2761 8.33335 12.5 8.55721 12.5 8.83335V9.40047Z" fill="#353566"/>
<path d="M19.4967 8.16992C19.2206 8.16992 18.9967 7.94606 18.9967 7.66992V2.21034L17.3503 3.85679C17.155 4.05205 16.8384 4.05205 16.6431 3.85679C16.4479 3.66152 16.4479 3.34494 16.6431 3.14968L19.1432 0.649681C19.3384 0.45442 19.655 0.45442 19.8503 0.649681L22.3503 3.14968C22.5455 3.34494 22.5455 3.66153 22.3503 3.85679C22.155 4.05205 21.8384 4.05205 21.6432 3.85679L19.9967 2.21034V7.66992C19.9967 7.94606 19.7728 8.16992 19.4967 8.16992Z" fill="#353566"/>
</svg>
