<svg width="24" height="24" viewBox="0 0 24 24" fill="none" xmlns="http://www.w3.org/2000/svg">
<g clip-path="url(#clip0_9001_301750)">
<path d="M22.9967 0.503296C22.7206 0.503296 22.4967 0.727154 22.4967 1.0033V1.75472C21.7959 0.986111 20.7863 0.5033 19.6634 0.5033C17.8765 0.5033 16.3764 1.72543 15.9508 3.37867C15.882 3.64609 16.043 3.91868 16.3104 3.98751C16.5779 4.05635 16.8505 3.89535 16.9193 3.62793C17.2338 2.40578 18.3439 1.5033 19.6634 1.5033C20.5286 1.5033 21.3038 1.89112 21.8238 2.50325H20.9967C20.7206 2.50325 20.4967 2.72711 20.4967 3.00325C20.4967 3.2794 20.7206 3.50325 20.9967 3.50325H22.7065C22.7152 3.50348 22.724 3.50348 22.7327 3.50325H22.9967C23.2728 3.50325 23.4967 3.2794 23.4967 3.00325V1.0033C23.4967 0.727154 23.2728 0.503296 22.9967 0.503296Z" fill="#353566"/>
<path d="M11 2.50006C5.20101 2.50006 0.5 7.20107 0.5 13.0001C0.5 18.7991 5.20101 23.5001 11 23.5001C16.799 23.5001 21.5 18.7991 21.5 13.0001C21.5 12.3317 21.4375 11.6774 21.3178 11.043C21.2667 10.7716 21.0052 10.5931 20.7339 10.6443C20.4625 10.6955 20.284 10.9569 20.3352 11.2283C20.4433 11.8019 20.5 12.3942 20.5 13.0001C20.5 18.2468 16.2467 22.5001 11 22.5001C5.75329 22.5001 1.5 18.2468 1.5 13.0001C1.5 7.75336 5.75329 3.50006 11 3.50006C11.6059 3.50006 12.1981 3.55672 12.7718 3.6649C13.0431 3.71607 13.3046 3.53757 13.3558 3.26621C13.4069 2.99485 13.2284 2.73339 12.9571 2.68222C12.3226 2.56258 11.6684 2.50006 11 2.50006Z" fill="#353566"/>
<path d="M10.5 9.40469V8.83341C10.5 8.55727 10.7239 8.33341 11 8.33341C11.2761 8.33341 11.5 8.55727 11.5 8.83341V9.40053C11.7516 9.42916 11.987 9.4845 12.226 9.5793C12.604 9.72921 12.9607 9.9663 13.3852 10.2877C13.6053 10.4544 13.6487 10.768 13.482 10.9882C13.3153 11.2083 13.0017 11.2517 12.7815 11.085C12.3727 10.7754 12.1043 10.6068 11.8573 10.5089C11.622 10.4155 11.3771 10.3751 11 10.3751C10.446 10.3751 10.038 10.5058 9.78286 10.6905C9.5427 10.8645 9.41667 11.0981 9.41667 11.4015C9.41667 11.7736 9.58978 11.9914 9.89006 12.1595C10.2219 12.3453 10.6624 12.4369 11.0822 12.5069C11.4957 12.5758 12.0969 12.6873 12.5984 12.968C13.1315 13.2664 13.5833 13.7784 13.5833 14.5986C13.5833 15.2358 13.2927 15.7653 12.8037 16.1195C12.4461 16.3785 11.9976 16.5345 11.5 16.5954V17.1667C11.5 17.4429 11.2761 17.6667 11 17.6667C10.7239 17.6667 10.5 17.4429 10.5 17.1667V16.5996C10.2484 16.571 10.013 16.5156 9.77398 16.4208C9.396 16.2709 9.03931 16.0338 8.61483 15.7124C8.39468 15.5457 8.35135 15.2321 8.51805 15.0119C8.68475 14.7918 8.99835 14.7484 9.2185 14.9151C9.62735 15.2247 9.89567 15.3933 10.1427 15.4913C10.378 15.5846 10.6229 15.6251 11 15.6251C11.554 15.6251 11.962 15.4944 12.2171 15.3096C12.4573 15.1356 12.5833 14.902 12.5833 14.5986C12.5833 14.2266 12.4102 14.0087 12.1099 13.8406C11.7781 13.6548 11.3376 13.5632 10.9178 13.4933C10.5043 13.4243 9.90306 13.3128 9.40161 13.0321C8.86855 12.7337 8.41667 12.2217 8.41667 11.4015C8.41667 10.7643 8.7073 10.2348 9.1963 9.88064C9.55393 9.62163 10.0024 9.46567 10.5 9.40469Z" fill="#353566"/>
<path d="M16.8301 7.66998C16.8301 7.94613 16.6062 8.16998 16.3301 8.16998C16.0539 8.16998 15.8301 7.94613 15.8301 7.66998V5.67002C15.8301 5.53742 15.8828 5.41024 15.9765 5.31647C16.0703 5.2227 16.1975 5.17002 16.3301 5.17002H16.5961C16.6035 5.16986 16.6109 5.16986 16.6182 5.17002H18.3301C18.6062 5.17002 18.8301 5.39388 18.8301 5.67002C18.8301 5.94617 18.6062 6.17002 18.3301 6.17002H17.503C18.023 6.78218 18.7982 7.17003 19.6634 7.17003C20.9829 7.17003 22.093 6.26752 22.4075 5.04536C22.4763 4.77793 22.7489 4.61693 23.0163 4.68576C23.2838 4.75459 23.4448 5.02718 23.3759 5.2946C22.9505 6.94787 21.4503 8.17003 19.6634 8.17003C18.5405 8.17003 17.5309 7.68722 16.8301 6.9186V7.66998Z" fill="#353566"/>
</g>
<defs>
<clipPath id="clip0_9001_301750">
<rect width="24" height="24" fill="white"/>
</clipPath>
</defs>
</svg>
