<svg width="24" height="24" viewBox="0 0 24 24" fill="none" xmlns="http://www.w3.org/2000/svg">
<g clip-path="url(#clip0_9001_301875)">
<path d="M11 1.5C5.75329 1.5 1.5 5.75329 1.5 11C1.5 16.2467 5.75329 20.5 11 20.5C11.9036 20.5 12.7769 20.374 13.6038 20.1389C13.8694 20.0634 14.1459 20.2175 14.2215 20.4831C14.297 20.7487 14.1429 21.0252 13.8773 21.1008C12.9623 21.3609 11.997 21.5 11 21.5C5.20101 21.5 0.5 16.799 0.5 11C0.5 5.20101 5.20101 0.5 11 0.5C16.799 0.5 21.5 5.20101 21.5 11C21.5 11.0509 21.4996 11.1016 21.4989 11.1523C21.495 11.4284 21.268 11.6491 20.9918 11.6452C20.7157 11.6412 20.4951 11.4142 20.499 11.1381C20.4997 11.0921 20.5 11.0461 20.5 11C20.5 5.75329 16.2467 1.5 11 1.5Z" fill="#353566"/>
<path d="M9.64622 6.70649C10.3943 6.33975 11.2245 6.23687 12.0285 6.41601C12.8314 6.59488 13.5591 7.0437 14.1257 7.69135C14.3075 7.89919 14.2864 8.21507 14.0785 8.39689C13.8707 8.5787 13.5548 8.55761 13.373 8.34978C12.9349 7.84901 12.3897 7.52101 11.811 7.39208C11.2336 7.26342 10.635 7.33545 10.0864 7.60439C9.53616 7.87415 9.05395 8.33384 8.70974 8.93818C8.65259 9.03852 8.59976 9.14137 8.5514 9.24683H11.2495C11.5257 9.24683 11.7495 9.47068 11.7495 9.74683C11.7495 10.023 11.5257 10.2468 11.2495 10.2468H8.24416C8.20289 10.487 8.18067 10.7383 8.17859 11.0016C8.17887 11.2537 8.20099 11.5034 8.24377 11.7469H11.2495C11.5257 11.7469 11.7495 11.9708 11.7495 12.2469C11.7495 12.5231 11.5257 12.7469 11.2495 12.7469H8.55221C8.60038 12.8525 8.65299 12.9555 8.7099 13.0554C9.05411 13.6597 9.53632 14.1194 10.0866 14.3892C10.6352 14.6581 11.2337 14.7302 11.8112 14.6015C12.3899 14.4726 12.9351 14.1446 13.3732 13.6438C13.555 13.436 13.8709 13.4149 14.0787 13.5967C14.2865 13.7785 14.3076 14.0944 14.1258 14.3022C13.5592 14.9499 12.8315 15.3987 12.0287 15.5776C11.2246 15.7567 10.3945 15.6538 9.64638 15.2871C8.89994 14.9212 8.27518 14.3127 7.84096 13.5503C7.69568 13.2952 7.57345 13.0261 7.47511 12.7469H6.25C5.97386 12.7469 5.75 12.5231 5.75 12.2469C5.75 11.9708 5.97386 11.7469 6.25 11.7469H7.23141C7.19657 11.5012 7.17881 11.2519 7.17859 11.0015L7.17859 10.997L7.17868 10.9874C7.18094 10.7335 7.19894 10.4866 7.2323 10.2468H6.25C5.97386 10.2468 5.75 10.023 5.75 9.74683C5.75 9.47068 5.97386 9.24683 6.25 9.24683H7.47381C7.5723 8.96731 7.6949 8.69943 7.8408 8.44326C8.27502 7.6809 8.89978 7.07242 9.64622 6.70649Z" fill="#353566"/>
<path d="M19.3366 20.7534C17.8432 20.7534 16.5011 21.7798 16.1541 23.128C16.0853 23.3954 15.8127 23.5564 15.5453 23.4876C15.2779 23.4187 15.1169 23.1462 15.1857 22.8787C15.6528 21.064 17.4129 19.7534 19.3366 19.7534C21.2602 19.7534 23.0204 21.064 23.4875 22.8787C23.5563 23.1462 23.3953 23.4187 23.1279 23.4876C22.8605 23.5564 22.5879 23.3954 22.519 23.128C22.172 21.7798 20.83 20.7534 19.3366 20.7534Z" fill="#353566"/>
<path fill-rule="evenodd" clip-rule="evenodd" d="M19.3365 13.3367C17.9213 13.3367 16.774 14.4839 16.774 15.8992C16.774 17.3144 17.9213 18.4617 19.3365 18.4617C20.7518 18.4617 21.899 17.3144 21.899 15.8992C21.899 14.4839 20.7518 13.3367 19.3365 13.3367ZM17.774 15.8992C17.774 15.0362 18.4736 14.3367 19.3365 14.3367C20.1995 14.3367 20.899 15.0362 20.899 15.8992C20.899 16.7621 20.1995 17.4617 19.3365 17.4617C18.4736 17.4617 17.774 16.7621 17.774 15.8992Z" fill="#353566"/>
</g>
<defs>
<clipPath id="clip0_9001_301875">
<rect width="24" height="24" fill="white"/>
</clipPath>
</defs>
</svg>
