<svg width="24" height="24" viewBox="0 0 24 24" fill="none" xmlns="http://www.w3.org/2000/svg">
<g clip-path="url(#clip0_9001_301770)">
<path d="M1.5 11C1.5 5.75329 5.75329 1.5 11 1.5C16.2467 1.5 20.5 5.75329 20.5 11C20.5 11.1015 20.4984 11.2026 20.4953 11.3034C20.4866 11.5794 20.7033 11.8101 20.9793 11.8188C21.2553 11.8274 21.4861 11.6107 21.4948 11.3347C21.4982 11.2235 21.5 11.112 21.5 11C21.5 5.20101 16.799 0.5 11 0.5C5.20101 0.5 0.5 5.20101 0.5 11C0.5 16.799 5.20101 21.5 11 21.5C11.112 21.5 11.2235 21.4982 11.3347 21.4948C11.6107 21.4861 11.8274 21.2553 11.8188 20.9793C11.8101 20.7033 11.5794 20.4866 11.3034 20.4953C11.2026 20.4984 11.1015 20.5 11 20.5C5.75329 20.5 1.5 16.2467 1.5 11Z" fill="#353566"/>
<path d="M12.0285 6.41601C11.2244 6.23687 10.3942 6.33975 9.64616 6.70649C8.89972 7.07242 8.27496 7.6809 7.84074 8.44326C7.69484 8.69943 7.57224 8.96731 7.47375 9.24683H6.24994C5.9738 9.24683 5.74994 9.47068 5.74994 9.74683C5.74994 10.023 5.9738 10.2468 6.24994 10.2468H7.23224C7.19888 10.4866 7.18088 10.7335 7.17861 10.9874L7.17853 10.997L7.17853 11.0015C7.17875 11.2519 7.19651 11.5012 7.23135 11.7469H6.24994C5.9738 11.7469 5.74994 11.9708 5.74994 12.2469C5.74994 12.5231 5.9738 12.7469 6.24994 12.7469H7.47505C7.57339 13.0261 7.69562 13.2952 7.8409 13.5503C8.27512 14.3127 8.89987 14.9212 9.64632 15.2871C10.3095 15.6122 11.0376 15.7302 11.7557 15.6274C12.0291 15.5883 12.219 15.335 12.1798 15.0616C12.1407 14.7883 11.8874 14.5984 11.614 14.6375C11.0993 14.7112 10.5735 14.6279 10.0865 14.3892C9.53626 14.1194 9.05405 13.6597 8.70984 13.0554C8.65293 12.9555 8.60032 12.8525 8.55215 12.7469H11.2495C11.5256 12.7469 11.7495 12.5231 11.7495 12.2469C11.7495 11.9708 11.5256 11.7469 11.2495 11.7469H8.24371C8.20092 11.5034 8.17881 11.2537 8.17853 11.0016C8.18061 10.7383 8.20283 10.487 8.2441 10.2468H11.2495C11.5256 10.2468 11.7495 10.023 11.7495 9.74683C11.7495 9.47068 11.5256 9.24683 11.2495 9.24683H8.55134C8.5997 9.14137 8.65253 9.03852 8.70968 8.93818C9.05389 8.33384 9.5361 7.87415 10.0863 7.60439C10.6349 7.33545 11.2335 7.26342 11.811 7.39208C12.3897 7.52101 12.9349 7.84901 13.373 8.34978C13.5548 8.55761 13.8707 8.5787 14.0785 8.39689C14.2863 8.21507 14.3074 7.89919 14.1256 7.69135C13.559 7.0437 12.8313 6.59488 12.0285 6.41601Z" fill="#353566"/>
<path d="M20.1484 17.3986C20.3437 17.2033 20.3437 16.8867 20.1484 16.6915C19.9532 16.4962 19.6366 16.4962 19.4413 16.6915L18.4199 17.7128L17.3985 16.6914C17.2032 16.4961 16.8866 16.4961 16.6914 16.6914C16.4961 16.8867 16.4961 17.2032 16.6914 17.3985L17.7128 18.4199L16.6913 19.4415C16.496 19.6367 16.496 19.9533 16.6913 20.1486C16.8866 20.3438 17.2032 20.3438 17.3984 20.1486L18.4199 19.127L19.4414 20.1485C19.6367 20.3438 19.9533 20.3438 20.1485 20.1485C20.3438 19.9532 20.3438 19.6367 20.1485 19.4414L19.127 18.4199L20.1484 17.3986Z" fill="#353566"/>
<path fill-rule="evenodd" clip-rule="evenodd" d="M18.4199 13.3367C15.6125 13.3367 13.3366 15.6126 13.3366 18.42C13.3366 21.2275 15.6125 23.5033 18.4199 23.5033C21.2274 23.5033 23.5032 21.2275 23.5032 18.42C23.5032 15.6126 21.2274 13.3367 18.4199 13.3367ZM14.3366 18.42C14.3366 16.1648 16.1647 14.3367 18.4199 14.3367C20.6751 14.3367 22.5032 16.1648 22.5032 18.42C22.5032 20.6752 20.6751 22.5033 18.4199 22.5033C16.1647 22.5033 14.3366 20.6752 14.3366 18.42Z" fill="#353566"/>
</g>
<defs>
<clipPath id="clip0_9001_301770">
<rect width="24" height="24" fill="white"/>
</clipPath>
</defs>
</svg>
