<svg width="24" height="24" viewBox="0 0 24 24" fill="none" xmlns="http://www.w3.org/2000/svg">
<g clip-path="url(#clip0_9001_290265)">
<path d="M12.75 0.999512C12.75 0.585298 12.4142 0.249512 12 0.249512C11.5858 0.249512 11.25 0.585298 11.25 0.999512V4.58539C11.25 4.80812 10.9807 4.91966 10.8233 4.76217L9.53026 3.46918C9.23737 3.17629 8.7625 3.17629 8.4696 3.46918C8.17671 3.76207 8.17671 4.23695 8.4696 4.52984L11.4696 7.52986C11.7625 7.82276 12.2374 7.82276 12.5303 7.52986L15.5303 4.52984C15.8232 4.23695 15.8232 3.76207 15.5303 3.46918C15.2374 3.17629 14.7625 3.17629 14.4696 3.46918L13.1768 4.76202C13.0193 4.91951 12.75 4.80797 12.75 4.58525V0.999512Z" fill="#353566"/>
<path d="M1.81411 7.69607C1.95167 7.38519 2.28113 7.20572 2.61693 7.25874L11.961 8.73411C11.9868 8.73819 12.0131 8.73819 12.039 8.73411L21.383 7.25874C21.7188 7.20572 22.0483 7.38519 22.1858 7.69607L23.6253 10.949C23.9809 11.7527 23.5725 12.6886 22.7413 12.9745L16.9099 14.9798C16.2109 15.2201 15.4361 14.9953 14.9743 14.4181L12.1952 10.9442C12.0951 10.8191 11.9048 10.8191 11.8048 10.9442L9.02561 14.4181C8.5638 14.9953 7.78908 15.2201 7.09001 14.9798L1.25861 12.9745C0.427477 12.6886 0.0190317 11.7527 0.374683 10.949L1.81411 7.69607Z" fill="#353566"/>
<path d="M11.25 14.2087C11.25 14.0197 11.012 13.9361 10.8939 14.0838L10.0018 15.1989C9.21011 16.1885 7.88201 16.5738 6.6836 16.1617L2.51482 14.7282C2.38498 14.6835 2.24978 14.78 2.24978 14.9173V18.9921C2.24978 20.2191 3.06256 21.2976 4.24197 21.6357L11.242 23.6423C11.246 23.6435 11.25 23.6404 11.25 23.6362V14.2087Z" fill="#353566"/>
<path d="M12.75 23.6366C12.75 23.6406 12.7538 23.6434 12.7576 23.6423L19.7576 21.6357C20.937 21.2976 21.7498 20.2191 21.7498 18.9921V14.9175C21.7498 14.7802 21.6146 14.6837 21.4847 14.7284L17.3165 16.1617C16.1181 16.5738 14.79 16.1885 13.9983 15.1989L13.1062 14.0838C12.9881 13.9361 12.75 14.0196 12.75 14.2087V23.6366Z" fill="#353566"/>
</g>
<defs>
<clipPath id="clip0_9001_290265">
<rect width="24" height="24" fill="white"/>
</clipPath>
</defs>
</svg>
