<svg width="24" height="24" viewBox="0 0 24 24" fill="none" xmlns="http://www.w3.org/2000/svg">
<path fill-rule="evenodd" clip-rule="evenodd" d="M15.2321 1.25H6.7679C5.95507 1.24999 5.29944 1.24999 4.76853 1.29336C4.2219 1.33803 3.74176 1.43239 3.29754 1.65873C2.59193 2.01825 2.01825 2.59193 1.65873 3.29754C1.43239 3.74176 1.33803 4.2219 1.29336 4.76853C1.24999 5.29944 1.24999 5.95506 1.25 6.76789V15.2321C1.24999 16.045 1.24999 16.7006 1.29336 17.2315C1.33803 17.7781 1.43239 18.2582 1.65873 18.7025C2.01825 19.4081 2.59193 19.9817 3.29754 20.3413C3.74176 20.5676 4.2219 20.662 4.76853 20.7066C5.29944 20.75 5.95505 20.75 6.76788 20.75H14.5101C14.7207 20.75 14.9217 20.6614 15.0637 20.506C15.2058 20.3505 15.276 20.1425 15.2571 19.9327C15.2194 19.5136 15.3311 19.0817 15.605 18.72C15.6807 18.6201 15.7723 18.5233 15.8997 18.3905L15.901 18.3891C15.935 18.3536 15.9719 18.3152 16.0086 18.2761C16.2535 18.0159 16.2808 17.6191 16.0739 17.3278C15.5492 16.5892 15.2501 15.8963 15.2501 15.0817C15.2501 13.666 16.1159 12.5148 17.4443 11.8815C17.6101 11.8024 17.7412 11.6653 17.8126 11.496C18.1406 10.7184 18.7521 10.2501 19.5001 10.2501C19.6234 10.2501 19.7395 10.2623 19.8488 10.2848C20.0696 10.3302 20.2991 10.274 20.4739 10.1315C20.6486 9.98911 20.75 9.77563 20.75 9.5502V6.76788C20.75 5.95505 20.75 5.29944 20.7066 4.76853C20.662 4.2219 20.5676 3.74176 20.3413 3.29754C19.9817 2.59193 19.4081 2.01825 18.7025 1.65873C18.2582 1.43239 17.7781 1.33803 17.2315 1.29336C16.7006 1.24999 16.0449 1.24999 15.2321 1.25ZM7.09995 2.75H14.9V9.94601C14.9 10.5918 14.138 10.9357 13.6537 10.5084L11 8.16681L8.34619 10.5084C7.86192 10.9357 7.09997 10.5918 7.09997 9.94601L7.09995 2.75ZM8.99997 16.25C9.41419 16.25 9.74997 15.9142 9.74997 15.5C9.74997 15.0858 9.41419 14.75 8.99997 14.75H6.5C6.08579 14.75 5.75 15.0858 5.75 15.5C5.75 15.9142 6.08579 16.25 6.5 16.25H8.99997Z" fill="#353566"/>
<path d="M19.5 11.25C19.9143 11.25 20.25 11.5858 20.25 12V12.5489C20.5143 12.5879 20.7685 12.6533 21.0266 12.7556C21.4998 12.9433 21.9411 13.2381 22.4528 13.6256C22.783 13.8756 22.848 14.346 22.598 14.6763C22.3479 15.0065 21.8775 15.0715 21.5473 14.8214C21.059 14.4517 20.7503 14.2597 20.4735 14.15C20.2143 14.0471 19.9407 14 19.5 14C18.8566 14 18.4008 14.1521 18.1275 14.35C17.8766 14.5317 17.75 14.7677 17.75 15.0817C17.75 15.461 17.916 15.6783 18.2414 15.8604C18.6142 16.0691 19.1186 16.1761 19.6233 16.2602C20.1186 16.3427 20.8642 16.4795 21.4914 16.8306C22.166 17.2083 22.75 17.8667 22.75 18.9183C22.75 19.7329 22.3766 20.4128 21.7525 20.8648C21.3312 21.1699 20.8154 21.3592 20.25 21.4452V22C20.25 22.4142 19.9143 22.75 19.5 22.75C19.0858 22.75 18.75 22.4142 18.75 22V21.4511C18.4857 21.4121 18.2316 21.3467 17.9735 21.2443C17.5003 21.0566 17.059 20.7618 16.5473 20.3743C16.2171 20.1243 16.1521 19.6539 16.4021 19.3236C16.6522 18.9934 17.1226 18.9284 17.4528 19.1785C17.9411 19.5482 18.2498 19.7402 18.5266 19.85C18.7858 19.9528 19.0594 20 19.5 20C20.1435 20 20.5993 19.8479 20.8726 19.6499C21.1235 19.4682 21.25 19.2322 21.25 18.9183C21.25 18.539 21.0841 18.3217 20.7587 18.1395C20.3859 17.9308 19.8815 17.8239 19.3767 17.7398C18.8815 17.6572 18.1359 17.5204 17.5087 17.1693C16.8341 16.7917 16.25 16.1332 16.25 15.0817C16.25 14.267 16.6235 13.5872 17.2476 13.1352C17.6689 12.8301 18.1846 12.6408 18.75 12.5548V12C18.75 11.5858 19.0858 11.25 19.5 11.25Z" fill="#353566"/>
</svg>
