<svg width="24" height="24" viewBox="0 0 24 24" fill="none" xmlns="http://www.w3.org/2000/svg">
<path d="M11.0692 1.59753C10.0731 1.13416 8.92331 1.13416 7.92726 1.59753L5.90923 2.53635C5.79411 2.58991 5.79345 2.75336 5.90815 2.80784L14.7212 6.99402C14.7607 7.0128 14.8065 7.01338 14.8465 6.9956L17.9922 5.59714C18.0763 5.55975 18.1074 5.456 18.0539 5.38108C17.6872 4.86694 17.1888 4.44447 16.593 4.1673L11.0692 1.59753Z" fill="#353566"/>
<path d="M18.6816 6.85167C18.6642 6.75953 18.5648 6.71055 18.4791 6.74864L10.2132 10.4233C10.159 10.4474 10.1241 10.5011 10.1241 10.5604L10.1241 19.5193C10.1241 19.6122 10.2078 19.683 10.2985 19.663C10.337 19.6546 10.3754 19.6455 10.4136 19.6358C10.8128 19.5346 11.0557 19.1304 10.9577 18.7304C10.8221 18.1765 10.75 17.5969 10.75 16.9995C10.75 12.9965 13.9942 9.75126 17.9968 9.74951C18.4108 9.74933 18.7464 9.4136 18.7464 8.99951V7.54414C18.7464 7.30904 18.7243 7.0774 18.6816 6.85167Z" fill="#353566"/>
<path fill-rule="evenodd" clip-rule="evenodd" d="M8.69976 19.6634C8.79048 19.6833 8.87411 19.6126 8.87411 19.5197L8.87411 10.5611C8.87412 10.5018 8.83922 10.4481 8.78507 10.424L0.517594 6.74738C0.431924 6.70928 0.332512 6.75823 0.315058 6.85035C0.272211 7.07649 0.25 7.30858 0.25 7.54415V13.511C0.25 14.9707 1.10276 16.2959 2.4313 16.9007L7.95514 19.4153C8.19602 19.525 8.44566 19.6077 8.69976 19.6634ZM4.62476 14.1625C4.75973 13.8448 5.12669 13.6967 5.44439 13.8317L7.24439 14.5964C7.56208 14.7314 7.7102 15.0984 7.57522 15.4161C7.44025 15.7337 7.07329 15.8819 6.75559 15.7469L4.95559 14.9821C4.6379 14.8472 4.48978 14.4802 4.62476 14.1625Z" fill="#353566"/>
<path d="M0.943293 5.37999C0.889812 5.4549 0.920855 5.55868 1.00496 5.59609L9.43734 9.34605C9.47613 9.3633 9.52042 9.3633 9.55922 9.34605L12.9804 7.82518C13.0975 7.77311 13.0996 7.60762 12.9838 7.55262L4.21178 3.38591C4.17143 3.36675 4.12464 3.36656 4.08415 3.3854L2.40342 4.1673C1.80805 4.44428 1.30996 4.86635 0.943293 5.37999Z" fill="#353566"/>
<path fill-rule="evenodd" clip-rule="evenodd" d="M12.25 16.9995C12.25 13.8239 14.8244 11.2495 18 11.2495C21.1756 11.2495 23.75 13.8239 23.75 16.9995C23.75 20.1751 21.1756 22.7495 18 22.7495C14.8244 22.7495 12.25 20.1751 12.25 16.9995ZM20.4419 15.4415C20.686 15.1974 20.686 14.8016 20.4419 14.5576C20.1979 14.3135 19.8021 14.3135 19.5581 14.5576L15.5581 18.5576C15.314 18.8016 15.314 19.1974 15.5581 19.4415C15.8021 19.6855 16.1979 19.6855 16.4419 19.4415L20.4419 15.4415ZM16.5 14.7495C16.0858 14.7495 15.75 15.0853 15.75 15.4995C15.75 15.9137 16.0859 16.2495 16.5001 16.2495C16.9143 16.2495 17.2501 15.9137 17.2501 15.4995C17.2501 15.0853 16.9142 14.7495 16.5 14.7495ZM18.75 18.4995C18.75 18.0853 19.0858 17.7495 19.5 17.7495C19.9142 17.7495 20.2501 18.0853 20.2501 18.4995C20.2501 18.9137 19.9142 19.2495 19.5 19.2495C19.0858 19.2495 18.75 18.9137 18.75 18.4995Z" fill="#353566"/>
</svg>
