<svg width="24" height="24" viewBox="0 0 24 24" fill="none" xmlns="http://www.w3.org/2000/svg">
<path d="M11.0692 1.59753C10.0731 1.13416 8.92331 1.13416 7.92726 1.59753L5.9092 2.53636C5.79407 2.58992 5.79342 2.75338 5.90812 2.80786L14.7211 6.99402C14.7606 7.0128 14.8064 7.01338 14.8464 6.9956L17.9922 5.59712C18.0763 5.55973 18.1074 5.45598 18.0539 5.38105C17.6872 4.86693 17.1888 4.44447 16.593 4.1673L11.0692 1.59753Z" fill="#353566"/>
<path d="M18.6816 6.85165C18.6642 6.75951 18.5648 6.71053 18.4791 6.74862L10.2131 10.4233C10.159 10.4474 10.1241 10.5011 10.1241 10.5604L10.124 19.5193C10.124 19.6122 10.2077 19.683 10.2985 19.663C10.337 19.6546 10.3753 19.6455 10.4136 19.6358C10.8128 19.5346 11.0557 19.1304 10.9577 18.7304C10.8221 18.1765 10.75 17.5969 10.75 16.9995C10.75 12.9965 13.9942 9.75126 17.9968 9.74951C18.4108 9.74933 18.7464 9.4136 18.7464 8.99951V7.54414C18.7464 7.30903 18.7243 7.07738 18.6816 6.85165Z" fill="#353566"/>
<path fill-rule="evenodd" clip-rule="evenodd" d="M8.69969 19.6634C8.79042 19.6833 8.87405 19.6126 8.87405 19.5197L8.87405 10.5611C8.87405 10.5018 8.83916 10.4481 8.785 10.424L0.517589 6.7474C0.431919 6.70931 0.332506 6.75826 0.315053 6.85038C0.27221 7.07651 0.25 7.30859 0.25 7.54415V13.511C0.25 14.9707 1.10276 16.2959 2.4313 16.9007L7.95514 19.4153C8.196 19.5249 8.44562 19.6077 8.69969 19.6634ZM4.62476 14.1625C4.75973 13.8448 5.12669 13.6967 5.44439 13.8317L7.24439 14.5964C7.56208 14.7314 7.7102 15.0984 7.57522 15.4161C7.44025 15.7337 7.07329 15.8819 6.75559 15.7469L4.95559 14.9821C4.6379 14.8472 4.48978 14.4802 4.62476 14.1625Z" fill="#353566"/>
<path d="M0.943278 5.38001C0.889797 5.45493 0.920841 5.5587 1.00495 5.59611L9.43728 9.34605C9.47607 9.3633 9.52036 9.3633 9.55916 9.34605L12.9803 7.82518C13.0974 7.77311 13.0995 7.60762 12.9837 7.55262L4.21174 3.38593C4.1714 3.36677 4.12461 3.36658 4.08412 3.38542L2.40342 4.1673C1.80804 4.44428 1.30995 4.86636 0.943278 5.38001Z" fill="#353566"/>
<path fill-rule="evenodd" clip-rule="evenodd" d="M12.25 16.9995C12.25 13.8239 14.8244 11.2495 18 11.2495C21.1756 11.2495 23.75 13.8239 23.75 16.9995C23.75 20.1751 21.1756 22.7495 18 22.7495C14.8244 22.7495 12.25 20.1751 12.25 16.9995ZM18 19.6245C17.6548 19.6245 17.375 19.3447 17.375 18.9995V17.7745C17.375 17.6917 17.3078 17.6245 17.225 17.6245H16C15.6548 17.6245 15.375 17.3447 15.375 16.9995C15.375 16.6543 15.6548 16.3745 16 16.3745H17.225C17.3078 16.3745 17.375 16.3074 17.375 16.2245V14.9995C17.375 14.6543 17.6548 14.3745 18 14.3745C18.3452 14.3745 18.625 14.6543 18.625 14.9995V16.2245C18.625 16.3074 18.6922 16.3745 18.775 16.3745H20C20.3452 16.3745 20.625 16.6543 20.625 16.9995C20.625 17.3447 20.3452 17.6245 20 17.6245H18.775C18.6922 17.6245 18.625 17.6917 18.625 17.7745V18.9995C18.625 19.3447 18.3452 19.6245 18 19.6245Z" fill="#353566"/>
</svg>
