<svg width="24" height="24" viewBox="0 0 24 24" fill="none" xmlns="http://www.w3.org/2000/svg">
<path d="M12.75 1.65C12.75 1.50999 12.75 1.43998 12.7772 1.3865C12.8012 1.33946 12.8395 1.30122 12.8865 1.27725C12.94 1.25 13.01 1.25 13.15 1.25H15.633C16.7251 1.24999 17.5906 1.24999 18.2883 1.30699C19.0017 1.36527 19.6053 1.48688 20.1565 1.76772C21.0502 2.22312 21.7769 2.94977 22.2323 3.84355C22.5131 4.39472 22.6347 4.99835 22.693 5.71173C22.75 6.40935 22.75 7.27484 22.75 8.36698V10.85C22.75 10.99 22.75 11.06 22.7228 11.1135C22.6988 11.1605 22.6605 11.1988 22.6135 11.2228C22.56 11.25 22.49 11.25 22.35 11.25H18.1154C17.9074 11.25 17.8033 11.25 17.7446 11.2153C17.6865 11.1811 17.6565 11.1442 17.6348 11.0804C17.6129 11.0158 17.6375 10.8979 17.6866 10.6623C17.7334 10.4378 17.7538 10.2098 17.7494 9.98547C17.7368 9.33181 17.5137 8.65437 17.0513 8.12933C16.5762 7.58976 15.8805 7.25 15.023 7.25C14.4549 7.25 13.9618 7.4177 13.5397 7.67966C13.221 7.87743 13.0617 7.97631 12.9794 7.96951C12.8979 7.96277 12.8479 7.93495 12.7992 7.86923C12.75 7.80291 12.75 7.63885 12.75 7.31071V1.65Z" fill="#353566"/>
<path d="M11.25 1.65C11.25 1.50999 11.25 1.43998 11.2228 1.3865C11.1988 1.33946 11.1605 1.30122 11.1135 1.27725C11.06 1.25 10.99 1.25 10.85 1.25H8.367C7.27486 1.24999 6.40935 1.24999 5.71173 1.30699C4.99835 1.36527 4.39472 1.48688 3.84355 1.76772C2.94978 2.22312 2.22312 2.94978 1.76772 3.84355C1.48688 4.39472 1.36527 4.99834 1.30699 5.71173C1.24999 6.40935 1.24999 7.27485 1.25 8.36699V10.85C1.25 10.99 1.25 11.06 1.27725 11.1135C1.30122 11.1605 1.33946 11.1988 1.3865 11.2228C1.43998 11.25 1.50999 11.25 1.65 11.25H5.8846C6.09265 11.25 6.19667 11.25 6.25544 11.2153C6.31347 11.1811 6.3435 11.1442 6.36516 11.0804C6.3871 11.0158 6.36252 10.8979 6.31337 10.6623C6.26657 10.4378 6.24623 10.2098 6.25058 9.98547C6.26325 9.33181 6.48632 8.65437 6.94868 8.12933C7.42384 7.58976 8.1195 7.25 8.97701 7.25C9.54511 7.25 10.0382 7.4177 10.4603 7.67966C10.779 7.87743 10.9383 7.97631 11.0206 7.96951C11.1021 7.96277 11.1521 7.93495 11.2008 7.86923C11.25 7.80291 11.25 7.63885 11.25 7.31071V1.65Z" fill="#353566"/>
<path d="M1.65 12.75C1.50999 12.75 1.43998 12.75 1.3865 12.7772C1.33946 12.8012 1.30122 12.8395 1.27725 12.8865C1.25 12.94 1.25 13.01 1.25 13.15V15.633C1.24999 16.7251 1.24999 17.5906 1.30699 18.2883C1.36527 19.0017 1.48688 19.6053 1.76772 20.1565C2.22312 21.0502 2.94977 21.7769 3.84355 22.2323C4.39472 22.5131 4.99835 22.6347 5.71173 22.693C6.40935 22.75 7.27484 22.75 8.36698 22.75H10.85C10.99 22.75 11.06 22.75 11.1135 22.7228C11.1605 22.6988 11.1988 22.6605 11.2228 22.6135C11.25 22.56 11.25 22.49 11.25 22.35V14.7765C11.25 14.6493 11.25 14.5857 11.2408 14.5528C11.199 14.4029 11.0478 14.3294 10.9041 14.3891C10.8725 14.4022 10.8194 14.4439 10.7133 14.5273C9.77335 15.2658 8.5425 15.9564 7.14704 16.2355C6.74087 16.3167 6.34576 16.0533 6.26452 15.6471C6.18329 15.241 6.4467 14.8458 6.85287 14.7646C7.95741 14.5437 8.97656 13.9843 9.78659 13.3478C9.95551 13.2151 10.04 13.1487 10.0632 13.0748C10.0944 12.975 10.0522 12.8529 9.96597 12.7938C9.90207 12.75 9.78831 12.75 9.56078 12.75H1.65Z" fill="#353566"/>
<path d="M12.75 22.35C12.75 22.49 12.75 22.56 12.7772 22.6135C12.8012 22.6605 12.8395 22.6988 12.8865 22.7228C12.94 22.75 13.01 22.75 13.15 22.75H15.633C16.7252 22.75 17.5906 22.75 18.2883 22.693C19.0017 22.6347 19.6053 22.5131 20.1565 22.2323C21.0502 21.7769 21.7769 21.0502 22.2323 20.1565C22.5131 19.6053 22.6347 19.0017 22.693 18.2883C22.75 17.5906 22.75 16.7252 22.75 15.633V13.15C22.75 13.01 22.75 12.94 22.7228 12.8865C22.6988 12.8395 22.6605 12.8012 22.6135 12.7772C22.56 12.75 22.49 12.75 22.35 12.75H14.4392C14.2117 12.75 14.0979 12.75 14.034 12.7938C13.9478 12.8529 13.9056 12.975 13.9368 13.0748C13.96 13.1487 14.0445 13.2151 14.2134 13.3478C15.0234 13.9843 16.0426 14.5437 17.1471 14.7646C17.5533 14.8458 17.8167 15.241 17.7355 15.6471C17.6542 16.0533 17.2591 16.3167 16.853 16.2355C15.4575 15.9564 14.2266 15.2658 13.2867 14.5273C13.1806 14.4439 13.1275 14.4022 13.0959 14.3891C12.9522 14.3294 12.801 14.4029 12.7592 14.5528C12.75 14.5857 12.75 14.6493 12.75 14.7765V22.35Z" fill="#353566"/>
<path d="M13.0485 10.7497C12.9896 10.9035 12.9602 10.9803 12.9761 11.0534C12.9894 11.1141 13.0312 11.1749 13.0831 11.209C13.1456 11.25 13.2337 11.25 13.41 11.25H15.1005C15.5342 11.25 15.8005 11.0909 15.968 10.892C16.1495 10.6764 16.2564 10.3614 16.2497 10.0145C16.243 9.66819 16.1237 9.34563 15.9256 9.12067C15.7403 8.91024 15.4574 8.75 15.023 8.75C14.4224 8.75 13.8629 9.19869 13.4031 9.99871C13.2604 10.2471 13.1427 10.5039 13.0485 10.7497Z" fill="#353566"/>
<path d="M10.9515 10.7497C11.0104 10.9035 11.0398 10.9803 11.0239 11.0534C11.0106 11.1141 10.9688 11.1749 10.9169 11.209C10.8544 11.25 10.7663 11.25 10.59 11.25H8.89948C8.46583 11.25 8.1995 11.0909 8.03199 10.892C7.85051 10.6764 7.74357 10.3614 7.7503 10.0145C7.75701 9.66819 7.87629 9.34563 8.0744 9.12067C8.25971 8.91024 8.54263 8.75 8.97701 8.75C9.57758 8.75 10.1371 9.19869 10.5969 9.99871C10.7396 10.2471 10.8573 10.5039 10.9515 10.7497Z" fill="#353566"/>
</svg>
