<svg width="24" height="24" viewBox="0 0 24 24" fill="none" xmlns="http://www.w3.org/2000/svg">
<g clip-path="url(#clip0_9001_291315)">
<path d="M10.25 0.250531H6.85262C6.07172 0.250091 5.50268 0.24977 4.98537 0.428204C4.52996 0.585284 4.11517 0.841638 3.77101 1.17872C3.38006 1.56162 3.12587 2.07073 2.77703 2.76939L0.566629 7.19026C0.556465 7.21056 0.546455 7.23056 0.536619 7.25031H10.25V0.250531Z" fill="#353566"/>
<path fill-rule="evenodd" clip-rule="evenodd" d="M0.25 8.75031L0.250012 16.2327C0.250005 17.0455 0.25 17.7011 0.293376 18.232C0.338038 18.7787 0.432397 19.2588 0.658738 19.703C1.01826 20.4086 1.59194 20.9823 2.29755 21.3419C2.74177 21.5682 3.22191 21.6625 3.76854 21.7072C4.29945 21.7506 4.95506 21.7506 5.76789 21.7506H11.1504C11.4999 21.7506 11.8031 21.5091 11.8813 21.1684L12.3124 19.2905C12.3754 19.016 12.5144 18.7647 12.7136 18.5655L18.659 12.6186C18.9017 12.3749 19.0951 12.1849 19.3066 12.0377C19.817 11.6827 20.4098 11.5037 21.0039 11.5006C21.4166 11.4985 21.75 11.1633 21.75 10.7506L21.75 8.75031H0.25ZM8.74999 16.0003C8.74999 16.4145 8.4142 16.7503 7.99999 16.7503H4.99999C4.58578 16.7503 4.24999 16.4145 4.24999 16.0003C4.24999 15.5861 4.58578 15.2503 4.99999 15.2503H7.99999C8.4142 15.2503 8.74999 15.5861 8.74999 16.0003Z" fill="#353566"/>
<path d="M21.4634 7.25031C21.4536 7.23056 21.4436 7.21057 21.4334 7.19027L21.4175 7.15842L19.223 2.76939C18.8742 2.07073 18.62 1.56162 18.229 1.17872C17.8849 0.841638 17.4701 0.585284 17.0147 0.428204C16.4973 0.24977 15.9283 0.250091 15.1474 0.250531H11.75V7.25031H21.2337L21.4175 7.15842L21.4222 7.16798L21.4276 7.17953L21.2743 7.25031H21.4634Z" fill="#353566"/>
<path d="M22.0182 13.0644C21.4176 12.647 20.6207 12.6472 20.0203 13.0648C19.892 13.154 19.7659 13.2802 19.5629 13.4833L18.9917 14.0546C18.7965 14.2499 18.7965 14.5664 18.9918 14.7617L21.2398 17.0097C21.4351 17.2049 21.7517 17.2049 21.9469 17.0096L22.5184 16.4381C22.7215 16.235 22.8476 16.1088 22.9369 15.9805C23.3545 15.3798 23.3543 14.5827 22.9365 13.9822C22.8472 13.8538 22.721 13.7277 22.5178 13.5247L22.4758 13.4827C22.2728 13.2798 22.1465 13.1536 22.0182 13.0644Z" fill="#353566"/>
<path d="M18.2848 15.469C18.0896 15.2737 17.773 15.2737 17.5777 15.469L13.5975 19.4502C13.5643 19.4834 13.5411 19.5253 13.5306 19.571L12.7563 22.9444C12.7371 23.0283 12.7623 23.1162 12.8232 23.177C12.884 23.2379 12.9719 23.2632 13.0558 23.244L16.433 22.4706C16.4788 22.4601 16.5207 22.4369 16.554 22.4036L20.5328 18.424C20.7281 18.2287 20.7281 17.9122 20.5328 17.7169L18.2848 15.469Z" fill="#353566"/>
</g>
<defs>
<clipPath id="clip0_9001_291315">
<rect width="24" height="24" fill="white"/>
</clipPath>
</defs>
</svg>
