<svg width="24" height="24" viewBox="0 0 24 24" fill="none" xmlns="http://www.w3.org/2000/svg">
<g clip-path="url(#clip0_9001_291490)">
<path fill-rule="evenodd" clip-rule="evenodd" d="M20.2468 0.549871C19.9092 0.378137 19.5522 0.311291 19.172 0.28058C18.8075 0.251133 18.3613 0.251567 17.8266 0.252086L12.749 0.256902C11.9806 0.257464 11.4697 0.257838 10.9803 0.375608C10.5475 0.479762 10.1337 0.651273 9.75413 0.883865C9.32492 1.14686 8.96357 1.50805 8.42014 2.05123L2.95839 7.50806C2.28462 8.18122 1.7466 8.71875 1.34753 9.18839C0.938236 9.67008 0.63122 10.1295 0.458369 10.6606C0.180635 11.514 0.180209 12.4335 0.457149 13.2872C0.629507 13.8185 0.936096 14.2782 1.34495 14.7603C1.74357 15.2303 2.28111 15.7683 2.95423 16.4421L5.55007 19.0404C6.22326 19.7142 6.76082 20.2523 7.23048 20.6514C7.71218 21.0607 8.17157 21.3678 8.70274 21.5406C9.55621 21.8184 10.4757 21.8188 11.3294 21.5418C11.4054 21.5172 11.4803 21.4897 11.5545 21.4593C11.7854 21.3645 11.9541 21.1611 12.0044 20.9166C12.0548 20.6721 11.9802 20.4186 11.8054 20.2403L11.7504 20.1842C11.4254 19.8527 11.2455 19.4058 11.2501 18.9416C11.2548 18.4774 11.4436 18.0341 11.7751 17.7092L13.7751 15.7492C14.2835 15.251 15.0202 15.1242 15.6458 15.3718L16.1654 15.5774C16.3638 15.6559 16.5862 15.6462 16.777 15.5507C16.9678 15.4552 17.1089 15.283 17.165 15.0771L17.3118 14.538C17.5612 13.6225 18.499 13.07 19.4244 13.3013C19.4782 13.3148 19.5305 13.3305 19.5814 13.3483C19.8568 13.4448 20.1632 13.3727 20.3667 13.1636C20.6839 12.8378 20.9261 12.5668 21.123 12.2457C21.3563 11.8653 21.5282 11.4506 21.6324 11.0167C21.7503 10.526 21.7502 10.0138 21.75 9.24352L21.7499 4.17175C21.75 3.63708 21.75 3.19083 21.7202 2.82629C21.6891 2.44614 21.6219 2.08923 21.4498 1.75179C21.1859 1.2341 20.7647 0.813339 20.2468 0.549871ZM15.75 7.9992C14.7835 7.9992 14 7.2157 14 6.2492C14 5.2827 14.7835 4.4992 15.75 4.4992C16.7165 4.4992 17.5 5.2827 17.5 6.2492C17.5 7.2157 16.7165 7.9992 15.75 7.9992ZM9.53033 15.5295C9.23744 15.8224 8.76256 15.8224 8.46967 15.5295L6.46967 13.5295C6.17678 13.2366 6.17678 12.7618 6.46967 12.4689C6.76256 12.176 7.23744 12.176 7.53033 12.4689L9.53033 14.4689C9.82322 14.7618 9.82322 15.2366 9.53033 15.5295Z" fill="#353566"/>
<path d="M15.5357 16.4741C15.8256 16.7699 15.8208 17.2448 15.5249 17.5347L14.0607 18.9696L15.5355 20.474C15.8255 20.7698 15.8208 21.2446 15.525 21.5346C15.2292 21.8246 14.7544 21.8199 14.4644 21.5241L12.4644 19.4841C12.3252 19.342 12.248 19.1504 12.25 18.9515C12.252 18.7526 12.333 18.5626 12.4751 18.4234L14.4751 16.4634C14.7709 16.1734 15.2457 16.1782 15.5357 16.4741Z" fill="#353566"/>
<path d="M20.4641 16.4743C20.7538 16.1784 21.2287 16.1733 21.5247 16.4631L23.5247 18.4211C23.6668 18.5603 23.7479 18.7502 23.75 18.9491C23.752 19.1481 23.675 19.3397 23.5358 19.4818L21.5358 21.5238C21.246 21.8197 20.7711 21.8247 20.4752 21.5348C20.1793 21.245 20.1744 20.7702 20.4642 20.4742L21.9393 18.9682L20.4753 17.535C20.1793 17.2452 20.1743 16.7703 20.4641 16.4743Z" fill="#353566"/>
<path d="M19.1819 14.2716C19.5837 14.3721 19.8281 14.7793 19.7276 15.1811L17.7276 23.1811C17.6271 23.5829 17.2199 23.8273 16.8181 23.7268C16.4162 23.6263 16.1719 23.2191 16.2724 22.8173L18.2724 14.8173C18.3728 14.4155 18.7801 14.1711 19.1819 14.2716Z" fill="#353566"/>
</g>
<defs>
<clipPath id="clip0_9001_291490">
<rect width="24" height="24" fill="white"/>
</clipPath>
</defs>
</svg>
