<svg width="24" height="24" viewBox="0 0 24 24" fill="none" xmlns="http://www.w3.org/2000/svg">
<g clip-path="url(#clip0_9001_279782)">
<path fill-rule="evenodd" clip-rule="evenodd" d="M8.24097 15.5H10.7923C11.0684 15.5 11.2923 15.2761 11.2923 15C11.2923 14.7238 11.0684 14.5 10.7923 14.5H8.12209C8.04178 13.682 8 12.8419 8 12C8 11.1582 8.04178 10.3181 8.12209 9.50005H15.8779C15.9014 9.73897 15.9215 9.97969 15.9383 10.2217C15.9574 10.4972 16.1963 10.705 16.4717 10.6859C16.7472 10.6668 16.955 10.4279 16.9359 10.1525C16.9208 9.93396 16.9029 9.71637 16.8825 9.50005H22.2006C22.3834 10.2487 22.486 11.0287 22.4987 11.8306C22.503 12.1068 22.7304 12.327 23.0065 12.3227C23.2826 12.3183 23.5029 12.091 23.4985 11.8148C23.3996 5.54887 18.2894 0.5 12 0.5C5.64873 0.5 0.5 5.64873 0.5 12C0.5 18.3347 5.62182 23.4731 11.9502 23.4999L11.9638 23.4998L12 23.5C12.2761 23.5 12.5 23.2762 12.5 23C12.5 22.7239 12.2761 22.5 12 22.5C11.4955 22.5 10.9949 22.2516 10.5055 21.7171C10.0129 21.1791 9.5643 20.3833 9.18632 19.3854C8.7633 18.2686 8.44185 16.9338 8.24097 15.5ZM1.5 12C1.5 11.1385 1.60375 10.3013 1.79943 9.50005H7.11749C7.03988 10.3224 7 11.162 7 12C7 12.838 7.03987 13.6776 7.11748 14.5H1.79943C1.60375 13.6987 1.5 12.8615 1.5 12ZM7.23161 15.5H2.09745C3.28146 18.8499 6.11715 21.4195 9.62602 22.2305C9.08011 21.581 8.62267 20.7204 8.25116 19.7396C7.78483 18.5085 7.43988 17.0505 7.23161 15.5ZM8.24098 8.50005H15.759C15.4912 6.58828 15.0108 4.86535 14.3699 3.59958C13.6504 2.17871 12.8218 1.50003 12 1.50003C11.4955 1.50003 10.9949 1.74846 10.5055 2.28298C10.0129 2.82095 9.5643 3.61676 9.18632 4.61464C8.7633 5.73141 8.44186 7.06623 8.24098 8.50005ZM16.7684 8.50005H21.9026C20.7185 5.14983 17.8823 2.57993 14.3729 1.76924C14.7076 2.16748 15.0037 2.63776 15.262 3.14786C15.9837 4.57322 16.4949 6.46382 16.7684 8.50005ZM9.62607 1.76948C6.11717 2.58044 3.28146 5.15013 2.09745 8.50005H7.23162C7.43988 6.94956 7.78483 5.49152 8.25116 4.26041C8.62268 3.27959 9.08013 2.41901 9.62607 1.76948Z" fill="#353566"/>
<path fill-rule="evenodd" clip-rule="evenodd" d="M18.25 16.25C17.2835 16.25 16.5 17.0335 16.5 18C16.5 18.9665 17.2835 19.75 18.25 19.75C19.2165 19.75 20 18.9665 20 18C20 17.0335 19.2165 16.25 18.25 16.25ZM17.5 18C17.5 17.5858 17.8358 17.25 18.25 17.25C18.6642 17.25 19 17.5858 19 18C19 18.4142 18.6642 18.75 18.25 18.75C17.8358 18.75 17.5 18.4142 17.5 18Z" fill="#353566"/>
<path fill-rule="evenodd" clip-rule="evenodd" d="M13.1845 20.212C12.8047 19.5529 13.0297 18.7096 13.6886 18.3285C13.9408 18.1827 13.9408 17.8172 13.6886 17.6714C13.0297 17.2903 12.8047 16.447 13.1845 15.7879L13.8042 14.7126C14.1844 14.0529 15.0272 13.8263 15.6866 14.2076C15.937 14.3525 16.2527 14.1723 16.2527 13.8791C16.2527 13.1183 16.8686 12.5 17.6302 12.5H18.8697C19.6314 12.5 20.2473 13.1183 20.2473 13.8792C20.2473 14.1724 20.563 14.3525 20.8134 14.2077C21.4728 13.8263 22.3156 14.053 22.6958 14.7126L23.3155 15.788C23.6954 16.4471 23.4703 17.2903 22.8114 17.6714C22.5592 17.8172 22.5592 18.1826 22.8114 18.3285C23.4703 18.7096 23.6954 19.5528 23.3155 20.2119L22.6958 21.2872C22.3156 21.9469 21.4728 22.1736 20.8134 21.7922C20.563 21.6474 20.2473 21.8275 20.2473 22.1208C20.2473 22.8816 19.6314 23.5 18.8697 23.5H17.6303C16.8686 23.5 16.2527 22.8817 16.2527 22.1208C16.2527 21.8275 15.937 21.6474 15.6866 21.7922C15.0272 22.1736 14.1844 21.9469 13.8042 21.2873L13.1845 20.212ZM14.1893 19.1942C14.0087 19.2986 13.9461 19.5308 14.0509 19.7127L14.6707 20.788C14.7752 20.9693 15.0059 21.0308 15.1859 20.9266C16.1057 20.3946 17.2527 21.0605 17.2527 22.1208C17.2527 22.3311 17.4226 22.5 17.6303 22.5H18.8697C19.0774 22.5 19.2473 22.3311 19.2473 22.1208C19.2473 21.0605 20.3943 20.3946 21.3141 20.9265C21.4941 21.0307 21.7248 20.9693 21.8293 20.7879L22.4491 19.7126C22.5539 19.5307 22.4913 19.2986 22.3107 19.1941C21.3928 18.6632 21.3928 17.3367 22.3107 16.8058C22.4913 16.7013 22.5539 16.4692 22.4491 16.2873L21.8293 15.212C21.7248 15.0306 21.4941 14.9692 21.3141 15.0733C20.3943 15.6053 19.2473 14.9395 19.2473 13.8792C19.2473 13.6689 19.0774 13.5 18.8697 13.5H17.6302C17.4226 13.5 17.2527 13.6689 17.2527 13.8791C17.2527 14.9395 16.1056 15.6052 15.186 15.0733C15.0059 14.9691 14.7752 15.0306 14.6707 15.2119L14.0509 16.2872C13.9461 16.4691 14.0087 16.7013 14.1893 16.8057C15.1073 17.3367 15.1073 18.6632 14.1893 19.1942Z" fill="#353566"/>
</g>
<defs>
<clipPath id="clip0_9001_279782">
<rect width="24" height="24" fill="white"/>
</clipPath>
</defs>
</svg>
