<svg width="24" height="24" viewBox="0 0 24 24" fill="none" xmlns="http://www.w3.org/2000/svg">
<path d="M2.35355 1.64645C2.15829 1.45118 1.84171 1.45118 1.64645 1.64645C1.45118 1.84171 1.45118 2.15829 1.64645 2.35355L3.00308 3.71019C2.04714 5.27127 1.5 7.07595 1.5 8.99907C1.5 11.8487 2.70058 14.4344 4.6489 16.356C4.8455 16.5499 5.16208 16.5477 5.35599 16.3511C5.5499 16.1545 5.54771 15.8379 5.3511 15.644C3.57635 13.8936 2.5 11.5582 2.5 8.99907C2.5 7.35385 2.94458 5.80265 3.73255 4.43965L6.36697 7.07408C6.13293 7.67352 6.00488 8.32272 6.00488 9C6.00488 10.5075 6.63849 11.8702 7.65658 12.8587C7.85471 13.0511 8.17125 13.0464 8.36361 12.8483C8.55597 12.6502 8.5513 12.3336 8.35318 12.1413C7.51596 11.3284 7.00488 10.2195 7.00488 9C7.00488 8.60741 7.05777 8.22688 7.15716 7.86427L11.5 12.2071V22C11.5 22.2761 11.7239 22.5 12 22.5C12.2761 22.5 12.5 22.2761 12.5 22V13.2071L21.6464 22.3536C21.8417 22.5488 22.1583 22.5488 22.3536 22.3536C22.5488 22.1583 22.5488 21.8417 22.3536 21.6464L7.32162 6.61451C7.31628 6.60892 7.3108 6.60344 7.30518 6.59808L4.00164 3.29454C3.99714 3.28985 3.99253 3.28524 3.98782 3.28071L2.35355 1.64645Z" fill="#353566"/>
<path d="M19.3531 1.6441C19.1565 1.45014 18.8399 1.45225 18.646 1.64881C18.452 1.84537 18.4541 2.16194 18.6507 2.3559C20.4244 4.10612 21.5 6.44086 21.5 8.99907C21.5 11.3273 20.6093 13.4694 19.113 15.155C18.9297 15.3615 18.9485 15.6775 19.155 15.8608C19.3615 16.0442 19.6775 16.0254 19.8608 15.8189C21.5069 13.9646 22.5 11.5905 22.5 8.99907C22.5 6.15042 21.3002 3.5655 19.3531 1.6441Z" fill="#353566"/>
<path d="M16.3434 5.14127C16.1453 4.94891 15.8287 4.95358 15.6364 5.1517C15.444 5.34982 15.4487 5.66637 15.6468 5.85873C16.484 6.6716 16.9951 7.78049 16.9951 9C16.9951 10.1075 16.5738 11.123 15.87 11.9089C15.6858 12.1147 15.7032 12.4308 15.9089 12.615C16.1147 12.7992 16.4308 12.7817 16.615 12.576C17.4731 11.6177 17.9951 10.3681 17.9951 9C17.9951 7.49245 17.3615 6.12975 16.3434 5.14127Z" fill="#353566"/>
<path d="M12 7C11.7988 7 11.6036 7.02987 11.4192 7.08576C11.155 7.16586 11.0057 7.44503 11.0858 7.7093C11.1659 7.97357 11.445 8.12287 11.7093 8.04277C11.8007 8.01507 11.8981 8 12 8C12.5523 8 13 8.44772 13 9C13 9.10187 12.9849 9.19932 12.9572 9.2907C12.8771 9.55497 13.0264 9.83414 13.2907 9.91424C13.555 9.99434 13.8341 9.84503 13.9142 9.58076C13.9701 9.39636 14 9.20122 14 9C14 7.89543 13.1046 7 12 7Z" fill="#353566"/>
</svg>
