<svg width="24" height="24" viewBox="0 0 24 24" fill="none" xmlns="http://www.w3.org/2000/svg">
<path d="M11.5 4L11.5 15C11.5 15.2761 11.7239 15.5 12 15.5C12.2761 15.5 12.5 15.2761 12.5 15L12.5 4C12.5 3.72386 12.2761 3.5 12 3.5C11.7239 3.5 11.5 3.72386 11.5 4Z" fill="#353566"/>
<path d="M14.0058 4.1135C14.0478 3.84057 14.3031 3.65335 14.576 3.69534C17.9856 4.21986 21.0367 5.78216 23.3571 8.15011C23.5504 8.34734 23.5472 8.6639 23.35 8.85718C23.1527 9.05045 22.8362 9.04724 22.6429 8.85001C20.4773 6.64008 17.625 5.17615 14.424 4.68371C14.151 4.64172 13.9638 4.38643 14.0058 4.1135Z" fill="#353566"/>
<path d="M9.99419 4.1135C10.0362 4.38643 9.84896 4.64172 9.57603 4.68371C6.375 5.17615 3.52268 6.64008 1.35712 8.85001C1.16385 9.04724 0.847282 9.05045 0.65005 8.85718C0.452818 8.6639 0.449608 8.34734 0.64288 8.15011C2.96329 5.78216 6.01438 4.21986 9.42397 3.69534C9.69691 3.65335 9.9522 3.84057 9.99419 4.1135Z" fill="#353566"/>
<path d="M9.98663 9.1749C10.0501 9.44366 9.88362 9.71295 9.61487 9.77639C7.80071 10.2046 6.165 11.1116 4.84358 12.3614C4.64296 12.5512 4.3265 12.5424 4.13675 12.3418C3.94699 12.1411 3.9558 11.8247 4.15642 11.6349C5.60151 10.2681 7.39364 9.27322 9.38513 8.80314C9.65389 8.7397 9.92319 8.90614 9.98663 9.1749Z" fill="#353566"/>
<path d="M14.0134 9.17528C14.0769 8.90653 14.3462 8.74014 14.615 8.80363C16.6066 9.27413 18.3987 10.2695 19.8437 11.6369C20.0442 11.8267 20.053 12.1432 19.8632 12.3437C19.6734 12.5443 19.3569 12.553 19.1563 12.3632C17.835 11.1129 16.1993 10.2054 14.385 9.77684C14.1163 9.71335 13.9499 9.44402 14.0134 9.17528Z" fill="#353566"/>
<path d="M9.94281 14.3731C10.0711 14.6177 9.97676 14.9199 9.7322 15.0481C9.3202 15.2642 8.93944 15.5395 8.59174 15.865C8.39017 16.0538 8.07376 16.0434 7.88502 15.8418C7.69628 15.6402 7.70668 15.3238 7.90826 15.1351C8.31671 14.7526 8.77032 14.4234 9.2678 14.1625C9.51235 14.0343 9.81457 14.1286 9.94281 14.3731Z" fill="#353566"/>
<path d="M14.0572 14.3732C14.1854 14.1286 14.4876 14.0343 14.7322 14.1626C15.2297 14.4234 15.6833 14.7526 16.0917 15.1351C16.2933 15.3238 16.3037 15.6402 16.115 15.8418C15.9262 16.0434 15.6098 16.0538 15.4083 15.865C15.0606 15.5395 14.6798 15.2642 14.2678 15.0482C14.0232 14.9199 13.9289 14.6177 14.0572 14.3732Z" fill="#353566"/>
<path d="M11.25 19C11.25 18.5858 11.5858 18.25 12 18.25C12.4142 18.25 12.7501 18.5858 12.7501 19C12.7501 19.4142 12.4143 19.75 12.0001 19.75C11.5859 19.75 11.25 19.4142 11.25 19Z" fill="#353566"/>
</svg>
