<svg width="24" height="24" viewBox="0 0 24 24" fill="none" xmlns="http://www.w3.org/2000/svg">
<path opacity="0.4" d="M2 4.79954V17.5993C2 17.9329 2.38438 18.1199 2.64688 17.914L5.27386 15.8536C5.48516 15.6879 5.74595 15.5978 6.01451 15.5978H15.2C16.7464 15.5978 18 14.3444 18 12.7983V4.79955C18 3.2534 16.7464 2 15.2 2H4.8C3.2536 2 2 3.2534 2 4.79954Z" fill="#353566"/>
<path d="M13 9.5C13.2761 9.5 13.5 9.27614 13.5 9C13.5 8.72386 13.2761 8.5 13 8.5H7C6.72386 8.5 6.5 8.72386 6.5 9C6.5 9.27614 6.72386 9.5 7 9.5H13Z" fill="#353566"/>
<path fill-rule="evenodd" clip-rule="evenodd" d="M1.5 4.79954C1.5 2.97718 2.97754 1.5 4.8 1.5H15.2C17.0225 1.5 18.5 2.97718 18.5 4.79955V12.7983C18.5 14.6206 17.0225 16.0978 15.2 16.0978H6.01451C5.85783 16.0978 5.70569 16.1504 5.58244 16.247L2.95545 18.3074C2.36495 18.7706 1.5 18.3501 1.5 17.5993V4.79954ZM4.8 2.5C3.52967 2.5 2.5 3.52962 2.5 4.79954V17.3937L4.96529 15.4602C5.26463 15.2254 5.63408 15.0978 6.01451 15.0978H15.2C16.4703 15.0978 17.5 14.0682 17.5 12.7983V4.79955C17.5 3.52962 16.4703 2.5 15.2 2.5H4.8Z" fill="#353566"/>
<path d="M20.6074 7.25351C20.7785 7.03674 21.0929 6.99968 21.3097 7.17075C22.0337 7.74211 22.5 8.62906 22.5 9.62461V21.6244C22.5 22.3543 21.659 22.7631 21.0849 22.3128L18.6221 20.3812C18.5121 20.2949 18.3762 20.248 18.2364 20.248H9.62495C8.49965 20.248 7.51373 19.6529 6.96414 18.7627C6.81908 18.5277 6.89197 18.2196 7.12694 18.0746C7.36191 17.9295 7.66999 18.0024 7.81505 18.2374C8.19009 18.8449 8.86064 19.248 9.62495 19.248H18.2364C18.6 19.248 18.9531 19.3699 19.2393 19.5944L21.5 21.3675V9.62461C21.5 8.94815 21.1843 8.34567 20.6902 7.95576C20.4734 7.78469 20.4364 7.47029 20.6074 7.25351Z" fill="#353566"/>
</svg>
