<svg width="24" height="24" viewBox="0 0 24 24" fill="none" xmlns="http://www.w3.org/2000/svg">
<path opacity="0.4" d="M1 19.8857V6.59999C1 4.63981 1 3.65972 1.38148 2.91103C1.71703 2.25247 2.25247 1.71703 2.91103 1.38148C3.65972 1 4.63982 1 6.6 1H15.4C17.3602 1 18.3403 1 19.089 1.38148C19.7475 1.71703 20.283 2.25247 20.6185 2.91103C21 3.65972 21 4.63982 21 6.6V11.502C21.0003 11.502 20.9997 11.502 21 11.502H20.992C19.9908 11.505 19.5721 12.2833 19.271 13.094C19.201 13.2815 18.9427 13.3554 18.7326 13.4156C18.6726 13.4327 18.6166 13.4488 18.57 13.466C18.178 13.61 17.881 13.905 17.697 14.263C17.412 14.104 17.095 14 16.749 14C15.4458 14 14.9934 15.0559 14.61 16.088C14.436 16.563 14.063 16.935 13.586 17.111C12.9875 17.333 12.3814 17.5787 11.978 18H6.32902C6.02165 18 5.86797 18 5.72079 18.0298C5.5902 18.0562 5.46371 18.0999 5.34466 18.1597C5.21049 18.2271 5.08958 18.322 4.84777 18.5116L2.29376 20.5151C1.8789 20.8405 1.67148 21.0033 1.49719 21.0023C1.3456 21.0014 1.20257 20.9319 1.10834 20.8131C1 20.6766 1 20.4129 1 19.8857Z" fill="#353566"/>
<path d="M6.57756 0.5H15.4224C16.3835 0.499997 17.1355 0.499995 17.7395 0.549345C18.3541 0.599556 18.8594 0.703335 19.316 0.935974C20.0686 1.31947 20.6805 1.93139 21.064 2.68404C21.2967 3.14062 21.4004 3.64594 21.4507 4.26049C21.5 4.86451 21.5 5.61646 21.5 6.57754V11.5774C21.351 11.5287 21.185 11.502 20.999 11.502H20.992C20.8096 11.5025 20.6465 11.5288 20.5 11.5763V6.6C20.5 5.61166 20.4996 4.90047 20.454 4.34192C20.4088 3.78921 20.3219 3.43014 20.173 3.13803C19.8854 2.57354 19.4265 2.1146 18.862 1.82698C18.5699 1.67814 18.2108 1.59118 17.6581 1.54602C17.0995 1.50039 16.3883 1.5 15.4 1.5H6.6C5.61166 1.5 4.90047 1.50039 4.34193 1.54602C3.78921 1.59118 3.43014 1.67814 3.13803 1.82698C2.57355 2.1146 2.1146 2.57354 1.82698 3.13803C1.67815 3.43014 1.59119 3.78921 1.54603 4.34192C1.50039 4.90047 1.5 5.61165 1.5 6.59999V19.8857C1.5 20.1593 1.5005 20.3298 1.51149 20.4506L1.51384 20.4739L1.53357 20.4614C1.6354 20.3954 1.76989 20.2906 1.98516 20.1217L4.57251 18.0921C4.782 17.9276 4.94037 17.8033 5.12017 17.7129C5.2789 17.6332 5.44755 17.5749 5.62167 17.5397C5.81891 17.4998 6.02024 17.4999 6.28658 17.5L12.6717 17.5C12.2218 17.7362 11.8405 18.0416 11.6435 18.5H6.32902C6.00194 18.5 5.9067 18.5023 5.81991 18.5198C5.73285 18.5375 5.64852 18.5666 5.56915 18.6065C5.49003 18.6462 5.41368 18.7032 5.15633 18.9051L2.58485 20.9223C2.39244 21.0732 2.22175 21.2071 2.07696 21.3008C1.93514 21.3926 1.7351 21.5036 1.49439 21.5023C1.1912 21.5006 0.905147 21.3614 0.716675 21.1239C0.567045 20.9353 0.530904 20.7095 0.515601 20.5412C0.499977 20.3694 0.499988 20.1525 0.500001 19.9079V6.57755C0.500001 5.61656 0.500001 4.86446 0.549348 4.26049C0.599559 3.64594 0.703338 3.14062 0.935977 2.68404C1.31947 1.93139 1.93139 1.31947 2.68404 0.935974C3.14062 0.703335 3.64594 0.599556 4.26049 0.549345C4.86451 0.499995 5.61647 0.499997 6.57756 0.5Z" fill="#353566"/>
<path d="M11 8.75C10.5858 8.75 10.25 9.08579 10.25 9.5C10.25 9.91421 10.5858 10.25 11 10.25C11.4142 10.25 11.7501 9.91421 11.7501 9.5C11.7501 9.08579 11.4142 8.75 11 8.75Z" fill="#353566"/>
<path d="M6.25 9.5C6.25 9.08579 6.58579 8.75 7 8.75C7.41421 8.75 7.7501 9.08579 7.7501 9.5C7.7501 9.91421 7.41431 10.25 7.0001 10.25C6.58589 10.25 6.25 9.91421 6.25 9.5Z" fill="#353566"/>
<path d="M15 8.75C14.5858 8.75 14.25 9.08579 14.25 9.5C14.25 9.91421 14.5858 10.25 15 10.25C15.4142 10.25 15.7501 9.91421 15.7501 9.5C15.7501 9.08579 15.4142 8.75 15 8.75Z" fill="#353566"/>
<path fill-rule="evenodd" clip-rule="evenodd" d="M15.8479 15.6281C16.1578 14.7906 17.3422 14.7906 17.6521 15.6281L17.9505 16.4345C18.2274 17.1827 18.8173 17.7726 19.5655 18.0495L20.3719 18.3479C21.2094 18.6578 21.2094 19.8422 20.3719 20.1521L19.5655 20.4505C18.8173 20.7274 18.2274 21.3173 17.9505 22.0655L17.6521 22.8719C17.3422 23.7094 16.1578 23.7094 15.8479 22.8719L15.5495 22.0655C15.2726 21.3173 14.6827 20.7274 13.9345 20.4505L13.1281 20.1521C12.2906 19.8422 12.2906 18.6578 13.1281 18.3479L13.9345 18.0495C14.6827 17.7726 15.2726 17.1827 15.5495 16.4345L15.8479 15.6281ZM16.75 16.0717L16.4873 16.7816C16.1092 17.8035 15.3035 18.6092 14.2816 18.9873L13.5717 19.25L14.2816 19.5127C15.3035 19.8908 16.1092 20.6965 16.4873 21.7184L16.75 22.4283L17.0127 21.7184C17.3908 20.6965 18.1965 19.8908 19.2184 19.5127L19.9283 19.25L19.2184 18.9873C18.1965 18.6092 17.3908 17.8035 17.0127 16.7816L16.75 16.0717Z" fill="#353566"/>
<path d="M21.1269 13.0883C21.0833 12.9706 20.9167 12.9706 20.8731 13.0883L20.6789 13.6133C20.4962 14.107 20.107 14.4962 19.6133 14.6789L19.0883 14.8731C18.9706 14.9167 18.9706 15.0833 19.0883 15.1269L19.6133 15.3211C20.107 15.5038 20.4962 15.893 20.6789 16.3867L20.8731 16.9117C20.9167 17.0294 21.0833 17.0294 21.1269 16.9117L21.3211 16.3867C21.5038 15.893 21.893 15.5038 22.3867 15.3211L22.9117 15.1269C23.0294 15.0833 23.0294 14.9167 22.9117 14.8731L22.3867 14.6789C21.893 14.4962 21.5038 14.107 21.3211 13.6133L21.1269 13.0883Z" fill="#353566"/>
</svg>
