<svg width="24" height="24" viewBox="0 0 24 24" fill="none" xmlns="http://www.w3.org/2000/svg">
<path opacity="0.4" d="M2 4.79954V17.5993C2 17.9329 2.38438 18.1199 2.64688 17.914L5.27386 15.8536C5.48516 15.6879 5.74595 15.5978 6.01451 15.5978H15.2C16.7464 15.5978 18 14.3444 18 12.7983V4.79955C18 3.2534 16.7464 2 15.2 2H4.8C3.2536 2 2 3.2534 2 4.79954Z" fill="#353566"/>
<path d="M10 5C10.2761 5 10.5 5.22386 10.5 5.5V11.2929L12.6464 9.14645C12.8417 8.95118 13.1583 8.95118 13.3536 9.14645C13.5488 9.34171 13.5488 9.65829 13.3536 9.85355L10.3536 12.8536C10.2598 12.9473 10.1326 13 10 13C9.86739 13 9.74022 12.9473 9.64645 12.8536L6.64645 9.85355C6.45118 9.65829 6.45118 9.34171 6.64645 9.14645C6.84171 8.95118 7.15829 8.95118 7.35355 9.14645L9.5 11.2929V5.5C9.5 5.22386 9.72386 5 10 5Z" fill="#353566"/>
<path fill-rule="evenodd" clip-rule="evenodd" d="M4.8 1.5C2.97754 1.5 1.5 2.97718 1.5 4.79954V17.5993C1.5 18.3501 2.36495 18.7706 2.95545 18.3074L5.58243 16.247C5.70569 16.1504 5.85783 16.0978 6.01451 16.0978H15.2C17.0225 16.0978 18.5 14.6206 18.5 12.7983V4.79955C18.5 2.97718 17.0225 1.5 15.2 1.5H4.8ZM2.5 4.79954C2.5 3.52962 3.52967 2.5 4.8 2.5H15.2C16.4703 2.5 17.5 3.52962 17.5 4.79955V12.7983C17.5 14.0682 16.4703 15.0978 15.2 15.0978H6.01451C5.63408 15.0978 5.26463 15.2254 4.96529 15.4602L2.5 17.3937V4.79954Z" fill="#353566"/>
<path d="M21.3097 7.17075C21.0929 6.99968 20.7785 7.03674 20.6074 7.25351C20.4364 7.47029 20.4734 7.78469 20.6902 7.95576C21.1843 8.34567 21.5 8.94815 21.5 9.62461V21.3675L19.2393 19.5944C18.9531 19.3699 18.6 19.248 18.2364 19.248H9.62495C8.86064 19.248 8.19009 18.8449 7.81505 18.2374C7.66999 18.0024 7.36191 17.9295 7.12694 18.0746C6.89197 18.2196 6.81908 18.5277 6.96414 18.7627C7.51373 19.6529 8.49965 20.248 9.62495 20.248H18.2364C18.3762 20.248 18.5121 20.2949 18.6221 20.3812L21.0849 22.3128C21.659 22.7631 22.5 22.3543 22.5 21.6244V9.62461C22.5 8.62906 22.0337 7.74211 21.3097 7.17075Z" fill="#353566"/>
</svg>
