<svg width="24" height="24" viewBox="0 0 24 24" fill="none" xmlns="http://www.w3.org/2000/svg">
<path opacity="0.4" d="M9.28905 1.25C8.54813 1.25 7.8547 1.61476 7.43495 2.22531L6.38685 3.74982C5.51819 3.75 4.81508 3.75301 4.24013 3.79998C3.61012 3.85145 3.06824 3.95944 2.57054 4.21303C1.77085 4.62049 1.12068 5.27066 0.713223 6.07035C0.459634 6.56804 0.35165 7.10992 0.300176 7.73994C0.249989 8.3542 0.249994 9.11475 0.25 10.0672V14.9324C0.249994 15.8849 0.249989 16.6454 0.300176 17.2597C0.35165 17.8897 0.459634 18.4316 0.713223 18.9293C1.12068 19.729 1.77085 20.3791 2.57054 20.7866C3.06824 21.0402 3.61012 21.1482 4.24013 21.1996C4.85438 21.2498 5.6149 21.2498 6.5673 21.2498H13.0268C13.3 21.2498 13.5517 21.1012 13.6836 20.8618C13.8155 20.6225 13.8068 20.3303 13.6609 20.0993C12.7582 18.6703 12.25 16.9954 12.25 15.2579C12.25 14.492 12.3223 13.8868 12.5105 13.4157C12.6869 12.974 12.9734 12.6285 13.4756 12.3761L17.0464 10.5907C17.9547 10.1362 19.0445 10.1366 19.9543 10.5911L21.6647 11.4458C21.8972 11.562 22.1733 11.5495 22.3944 11.4129C22.6154 11.2762 22.75 11.0348 22.75 10.7749V10.0672C22.75 9.11477 22.75 8.35418 22.6998 7.73994C22.6483 7.10992 22.5404 6.56804 22.2868 6.07035C21.8793 5.27066 21.2291 4.62049 20.4295 4.21303C19.9318 3.95944 19.3899 3.85145 18.7599 3.79998C18.1849 3.75301 17.4818 3.75 16.6131 3.74982L15.565 2.22531C15.1453 1.61476 14.4519 1.25 13.711 1.25H9.28905Z" fill="#353566"/>
<path d="M6.75 12.5C6.75 9.87665 8.87665 7.75 11.5 7.75C13.3703 7.75 14.9867 8.83105 15.7611 10.399C15.9438 10.7691 15.7932 11.2173 15.424 11.4019L13.4756 12.3761C12.9735 12.6285 12.6869 12.9741 12.5105 13.4157C12.3223 13.8868 12.25 14.492 12.25 15.2579C12.25 15.6434 12.275 16.0258 12.3238 16.403C12.3511 16.6144 12.2872 16.8274 12.1481 16.9888C12.009 17.1503 11.8078 17.2449 11.5947 17.2491C11.5632 17.2497 11.5316 17.25 11.5 17.25C8.87665 17.25 6.75 15.1234 6.75 12.5Z" fill="#353566"/>
<path d="M17.605 11.7083C18.168 11.4267 18.8307 11.4267 19.3938 11.7081L22.9637 13.4926C23.2928 13.6571 23.5006 13.9935 23.5004 14.3614C23.4998 15.7739 23.4093 17.1304 22.8326 18.4487C22.039 20.2626 20.5743 21.6601 18.7819 22.4423C18.6018 22.5209 18.397 22.5209 18.2169 22.4423C16.4252 21.6604 14.9607 20.2648 14.1671 18.451C13.5898 17.1315 13.4998 15.7737 13.5004 14.36C13.5006 13.9928 13.7081 13.6573 14.0364 13.493L17.605 11.7083Z" fill="#353566"/>
</svg>
