<svg width="24" height="24" viewBox="0 0 24 24" fill="none" xmlns="http://www.w3.org/2000/svg">
<path opacity="0.4" d="M16.9326 1.25H7.06739C6.11495 1.24999 5.35439 1.24999 4.74013 1.30018C4.11012 1.35165 3.56824 1.45963 3.07054 1.71322C2.27085 2.12068 1.62068 2.77085 1.21322 3.57054C0.959634 4.06824 0.85165 4.61012 0.800176 5.24013C0.749989 5.85439 0.749994 6.61494 0.75 7.56738V12.4326C0.749994 13.3851 0.749989 14.1456 0.800176 14.7599C0.85165 15.3899 0.959634 15.9318 1.21322 16.4295C1.62068 17.2291 2.27085 17.8793 3.07054 18.2868C3.56824 18.5404 4.11012 18.6483 4.74013 18.6998C5.35438 18.75 6.1149 18.75 7.0673 18.75H14.8158C14.9931 18.75 15.1647 18.6872 15.3001 18.5726C15.4967 18.4063 15.7038 18.2458 15.9201 18.0902C16.083 17.973 16.1921 17.7954 16.2231 17.5971C16.254 17.3987 16.2042 17.1963 16.0847 17.035L15.783 16.6277C15.2907 15.9631 15 15.1423 15 14.25C15 12.0409 16.7909 10.25 19 10.25C20.1664 10.25 21.2153 10.7483 21.9475 11.5458C22.1566 11.7736 22.484 11.8497 22.7722 11.7375C23.0603 11.6253 23.25 11.3478 23.25 11.0386V7.56737C23.25 6.61496 23.25 5.85438 23.1998 5.24013C23.1483 4.61012 23.0404 4.06824 22.7868 3.57054C22.3793 2.77085 21.7291 2.12068 20.9295 1.71322C20.4318 1.45963 19.8899 1.35165 19.2599 1.30018C18.6456 1.24999 17.8851 1.24999 16.9326 1.25Z" fill="#353566"/>
<path d="M16.25 14.25C16.25 12.7312 17.4812 11.5 19 11.5C20.5188 11.5 21.75 12.7312 21.75 14.25C21.75 15.7688 20.5188 17 19 17C17.4812 17 16.25 15.7688 16.25 14.25Z" fill="#353566"/>
<path d="M0.75 14.75H0.75723C0.886604 16.9807 2.73617 18.75 4.99957 18.75H9.25V20C9.25 20.6904 8.69036 21.25 8 21.25H7.5C7.08579 21.25 6.75 21.5858 6.75 22C6.75 22.4142 7.08579 22.75 7.5 22.75H12.5C12.6989 22.75 12.8897 22.671 13.0303 22.5303C13.171 22.3897 13.25 22.1989 13.25 22C13.25 21.8544 13.2682 21.7079 13.3053 21.5638C13.5317 20.6839 13.9677 19.9415 14.557 19.288C14.8747 18.9357 14.9389 18.8782 15.3001 18.5726C15.4967 18.4063 15.7038 18.2458 15.9201 18.0902C16.083 17.973 16.1921 17.7954 16.2231 17.5971C16.254 17.3987 16.2042 17.1963 16.0847 17.035L15.783 16.6277C15.2907 15.9631 15 15.1423 15 14.25C15 14.0343 15.017 13.8231 15.0496 13.6175C15.084 13.4008 15.0218 13.1799 14.8793 13.013C14.7368 12.8461 14.5283 12.75 14.3089 12.75H0.75V14.75Z" fill="#353566"/>
<path d="M19 18.5C16.921 18.5 15.0199 19.9168 14.5158 21.8754C14.4773 22.0251 14.5101 22.1842 14.6048 22.3063C14.6995 22.4285 14.8454 22.5 15 22.5H23C23.1546 22.5 23.3005 22.4285 23.3952 22.3063C23.4899 22.1842 23.5228 22.0251 23.4842 21.8754C22.9801 19.9168 21.0789 18.5 19 18.5Z" fill="#353566"/>
</svg>
