<svg width="24" height="24" viewBox="0 0 24 24" fill="none" xmlns="http://www.w3.org/2000/svg">
<path opacity="0.4" d="M16.9326 1.25H7.06739C6.11495 1.24999 5.35439 1.24999 4.74013 1.30018C4.11012 1.35165 3.56824 1.45963 3.07054 1.71322C2.27085 2.12068 1.62068 2.77085 1.21322 3.57054C0.959634 4.06824 0.85165 4.61012 0.800176 5.24013C0.749989 5.85439 0.749994 6.61494 0.75 7.56738V12.4326C0.749994 13.3851 0.749989 14.1456 0.800176 14.7599C0.85165 15.3899 0.959634 15.9318 1.21322 16.4295C1.62068 17.2291 2.27085 17.8793 3.07054 18.2868C3.56824 18.5404 4.11012 18.6483 4.74013 18.6998C5.35438 18.75 6.1149 18.75 7.0673 18.75H10.5C10.9142 18.75 11.25 18.4142 11.25 18C11.25 17.6594 11.313 17.3192 11.4387 16.9981C12.6383 13.9344 15.2557 12.25 18 12.25C19.4548 12.25 20.8651 12.7219 22.0486 13.6122C22.2755 13.7829 22.5793 13.8108 22.8335 13.6844C23.0877 13.5579 23.2487 13.2988 23.2495 13.0149C23.25 12.8206 23.25 12.6156 23.25 12.4V7.56737C23.25 6.61496 23.25 5.85438 23.1998 5.24013C23.1483 4.61012 23.0404 4.06824 22.7868 3.57054C22.3793 2.77085 21.7291 2.12068 20.9295 1.71322C20.4318 1.45963 19.8899 1.35165 19.2599 1.30018C18.6456 1.24999 17.8851 1.24999 16.9326 1.25Z" fill="#353566"/>
<path d="M0.75 14.75V12.75H12.9149C13.2241 12.75 13.5017 12.9398 13.6138 13.228C13.726 13.5161 13.6498 13.8436 13.422 14.0526C12.5984 14.8082 11.9097 15.7953 11.4387 16.9981C11.1871 17.6408 11.1871 18.3592 11.4387 19.0019C11.8208 19.9777 12.3461 20.8113 12.9699 21.4942C13.1704 21.7136 13.2224 22.0307 13.1024 22.3026C12.9825 22.5745 12.7134 22.75 12.4162 22.75H7.5C7.08579 22.75 6.75 22.4142 6.75 22C6.75 21.5858 7.08579 21.25 7.5 21.25H8C8.69036 21.25 9.25 20.6904 9.25 20V18.75H4.99957C2.73617 18.75 0.886604 16.9807 0.75723 14.75H0.75Z" fill="#353566"/>
<path d="M18 16.5C17.17 16.5 16.5 17.17 16.5 18C16.5 18.83 17.17 19.5 18 19.5C18.83 19.5 19.5 18.83 19.5 18C19.5 17.17 18.83 16.5 18 16.5Z" fill="#353566"/>
<path fill-rule="evenodd" clip-rule="evenodd" d="M23.3973 17.4539C22.3768 14.8473 20.2068 13.5 18 13.5C15.7932 13.5 13.6232 14.8473 12.6027 17.4539C12.4658 17.8036 12.4658 18.1964 12.6027 18.5461C13.6232 21.1527 15.7932 22.5 18 22.5C20.2068 22.5 22.3768 21.1527 23.3973 18.5461C23.5342 18.1964 23.5342 17.8036 23.3973 17.4539ZM15.5 18C15.5 16.6177 16.6177 15.5 18 15.5C19.3823 15.5 20.5 16.6177 20.5 18C20.5 19.3823 19.3823 20.5 18 20.5C16.6177 20.5 15.5 19.3823 15.5 18Z" fill="#353566"/>
</svg>
