<svg width="24" height="24" viewBox="0 0 24 24" fill="none" xmlns="http://www.w3.org/2000/svg">
<path opacity="0.4" d="M16.9326 1.25H7.06739C6.11495 1.24999 5.35439 1.24999 4.74013 1.30018C4.11012 1.35165 3.56824 1.45963 3.07054 1.71322C2.27085 2.12068 1.62068 2.77085 1.21322 3.57054C0.959634 4.06824 0.85165 4.61012 0.800176 5.24013C0.749989 5.85439 0.749994 6.61494 0.75 7.56738V12.4326C0.749994 13.3851 0.749989 14.1456 0.800176 14.7599C0.85165 15.3899 0.959634 15.9318 1.21322 16.4295C1.62068 17.2291 2.27085 17.8793 3.07054 18.2868C3.56824 18.5404 4.11012 18.6483 4.74013 18.6998C5.35438 18.75 6.1149 18.75 7.0673 18.75H12.7802C13.0154 18.75 13.237 18.6396 13.3788 18.4519C13.5205 18.2641 13.5659 18.0208 13.5015 17.7945C13.341 17.2313 13.25 16.6344 13.25 16.002C13.25 12.8274 15.8234 10.25 19.0001 10.25C20.1411 10.25 21.2025 10.5816 22.0956 11.1534C22.3265 11.3012 22.6195 11.3113 22.86 11.1797C23.1005 11.0481 23.25 10.7959 23.25 10.5218V7.56737C23.25 6.61496 23.25 5.85438 23.1998 5.24013C23.1483 4.61012 23.0404 4.06824 22.7868 3.57054C22.3793 2.77085 21.7291 2.12068 20.9295 1.71322C20.4318 1.45963 19.8899 1.35165 19.2599 1.30018C18.6456 1.24999 17.8851 1.24999 16.9326 1.25Z" fill="#353566"/>
<path fill-rule="evenodd" clip-rule="evenodd" d="M19.0001 11.5C16.5144 11.5 14.5 13.517 14.5 16.002C14.5 18.7667 16.7001 20.9001 18.7 22.4C18.8778 22.5333 19.1222 22.5333 19.3 22.4C21.3 20.9 23.5 18.7667 23.5 16C23.5 13.5147 21.4854 11.5 19.0001 11.5ZM20.5 16.0001C20.5 16.8285 19.8285 17.5001 19 17.5001C18.1716 17.5001 17.5 16.8285 17.5 16.0001C17.5 15.1716 18.1716 14.5001 19 14.5001C19.8285 14.5001 20.5 15.1716 20.5 16.0001Z" fill="#353566"/>
<path d="M0.75 14.75V12.75H12.9989C13.2498 12.75 13.484 12.8754 13.6231 13.0841C13.7622 13.2929 13.7877 13.5573 13.6911 13.7888C13.4071 14.4693 13.25 15.2165 13.25 16.002C13.25 17.6426 13.8644 19.0629 14.7392 20.2747C14.7773 20.3276 14.8084 20.3851 14.8317 20.446C14.9261 20.6931 15.0978 20.904 15.3178 21.0477C15.3728 21.0836 15.4228 21.1266 15.4666 21.1756C15.5598 21.2798 15.6544 21.382 15.75 21.4821C15.9573 21.6992 16.0151 22.019 15.897 22.295C15.779 22.571 15.5077 22.75 15.2075 22.75H7.5C7.08579 22.75 6.75 22.4142 6.75 22C6.75 21.5858 7.08579 21.25 7.5 21.25H8C8.69036 21.25 9.25 20.6904 9.25 20V18.75H4.99957C2.73617 18.75 0.886604 16.9807 0.75723 14.75H0.75Z" fill="#353566"/>
</svg>
