<svg width="24" height="24" viewBox="0 0 24 24" fill="none" xmlns="http://www.w3.org/2000/svg">
<path opacity="0.4" d="M16.9326 1.25H7.06739C6.11495 1.24999 5.35439 1.24999 4.74013 1.30018C4.11012 1.35165 3.56824 1.45963 3.07054 1.71322C2.27085 2.12068 1.62068 2.77085 1.21322 3.57054C0.959634 4.06824 0.85165 4.61012 0.800176 5.24013C0.749989 5.85439 0.749994 6.61494 0.75 7.56738V12.4326C0.749994 13.3851 0.749989 14.1456 0.800176 14.7599C0.85165 15.3899 0.959634 15.9318 1.21322 16.4295C1.62068 17.2291 2.27085 17.8793 3.07054 18.2868C3.56824 18.5404 4.11012 18.6483 4.74013 18.6998C5.35438 18.75 6.1149 18.75 7.0673 18.75H16.9326C17.885 18.75 18.6456 18.75 19.2599 18.6998C19.8899 18.6483 20.4318 18.5404 20.9295 18.2868C21.7291 17.8793 22.3793 17.2291 22.7868 16.4295C23.0404 15.9318 23.1483 15.3899 23.1998 14.7599C23.25 14.1456 23.25 13.3851 23.25 12.4327V7.56737C23.25 6.61496 23.25 5.85438 23.1998 5.24013C23.1483 4.61012 23.0404 4.06824 22.7868 3.57054C22.3793 2.77085 21.7291 2.12068 20.9295 1.71322C20.4318 1.45963 19.8899 1.35165 19.2599 1.30018C18.6456 1.24999 17.8851 1.24999 16.9326 1.25Z" fill="#353566"/>
<path fill-rule="evenodd" clip-rule="evenodd" d="M17.15 10.0001C17.15 7.15583 14.8443 4.8501 12 4.8501C9.15576 4.8501 6.85003 7.15583 6.85003 10.0001C6.85003 12.8444 9.15576 15.1501 12 15.1501C14.8443 15.1501 17.15 12.8444 17.15 10.0001ZM12 6.3501C14.0159 6.3501 15.65 7.98426 15.65 10.0001C15.65 10.7368 15.4318 11.4224 15.0565 11.996L10.0041 6.94367C10.5777 6.56833 11.2634 6.3501 12 6.3501ZM8.94346 8.00436L13.9958 13.0567C13.4222 13.4319 12.7366 13.6501 12 13.6501C9.98419 13.6501 8.35003 12.0159 8.35003 10.0001C8.35003 9.26353 8.5682 8.57791 8.94346 8.00436Z" fill="#353566"/>
<path d="M14.75 18.75H9.25V20C9.25 20.6904 8.69036 21.25 8 21.25H7.5C7.08579 21.25 6.75 21.5858 6.75 22C6.75 22.4142 7.08579 22.75 7.5 22.75H16.5C16.9142 22.75 17.25 22.4142 17.25 22C17.25 21.5858 16.9142 21.25 16.5 21.25H16C15.3096 21.25 14.75 20.6904 14.75 20V18.75Z" fill="#353566"/>
</svg>
