<svg width="24" height="24" viewBox="0 0 24 24" fill="none" xmlns="http://www.w3.org/2000/svg">
<g clip-path="url(#clip0_9001_285312)">
<g opacity="0.4">
<path d="M5.81889 4.51996C6.49359 4.24915 7.26836 4.24951 8.39171 4.25005L10.5925 4.25009C10.9579 4.25009 11.2702 4.51352 11.3318 4.87377C11.4734 5.70279 11.799 6.51433 12.3069 7.22178C12.9333 8.09328 14.1022 9.30444 15.8483 10.835L15.8528 10.839C16.4854 11.4024 17.1425 11.6849 17.7699 11.7401C18.3946 11.795 19.0455 11.6297 19.682 11.2025C19.879 11.0702 20.1269 11.039 20.3505 11.1183C20.5742 11.1975 20.7471 11.3779 20.8169 11.6046L21.8004 14.801C20.8662 14.1451 19.7281 13.7601 18.5 13.7601H4.49997C3.2719 13.7601 2.13374 14.1451 1.19962 14.801L3.28566 8.02124C3.61551 6.94742 3.84301 6.2068 4.30027 5.64157C4.70254 5.14431 5.22531 4.7582 5.81889 4.51996Z" fill="#353566"/>
<path d="M22.75 19.5051C22.7473 21.85 20.8455 23.75 18.5 23.75H4.49997C2.15445 23.75 0.25271 21.85 0.25 19.5051C0.25271 17.1602 2.15445 15.2601 4.49997 15.2601H18.5C20.8455 15.2601 22.7473 17.1602 22.75 19.5051Z" fill="#353566"/>
</g>
<path d="M19.9021 0.551743C20.847 0.355591 22.0491 0.70492 22.8641 1.8092C23.7044 2.94774 23.7815 4.90917 22.6739 6.44631C21.902 7.51745 20.3335 8.95434 19.326 9.83494C19.3023 9.85566 19.2787 9.87657 19.2549 9.89756C19.006 10.1173 18.7484 10.3448 18.425 10.4404C18.1559 10.5199 17.8441 10.5199 17.5751 10.4404C17.2517 10.3448 16.994 10.1173 16.7451 9.89756C16.7214 9.87658 16.6977 9.85567 16.6741 9.83495C15.6666 8.95435 14.098 7.51746 13.3262 6.4463C12.2186 4.90917 12.2957 2.94776 13.136 1.8092C13.951 0.704925 15.153 0.355591 16.0979 0.551743L16.0999 0.552146C16.8341 0.70757 17.4857 1.05543 18 1.60069C18.5143 1.05543 19.166 0.70757 19.9002 0.552146L19.9021 0.551743Z" fill="#353566"/>
<path d="M13.5 19.5C13.5 18.9477 13.9477 18.5 14.5 18.5C15.0523 18.5 15.5001 18.9477 15.5001 19.5C15.5001 20.0523 15.0524 20.5 14.5001 20.5C13.9478 20.5 13.5 20.0523 13.5 19.5Z" fill="#353566"/>
<path d="M16.5 19.5C16.5 18.9477 16.9477 18.5 17.5 18.5C18.0523 18.5 18.5001 18.9477 18.5001 19.5C18.5001 20.0523 18.0524 20.5 17.5001 20.5C16.9478 20.5 16.5 20.0523 16.5 19.5Z" fill="#353566"/>
</g>
<defs>
<clipPath id="clip0_9001_285312">
<rect width="24" height="24" fill="white"/>
</clipPath>
</defs>
</svg>
