<svg width="24" height="24" viewBox="0 0 24 24" fill="none" xmlns="http://www.w3.org/2000/svg">
<g opacity="0.4">
<path d="M9.08323 0.500014C7.86201 0.49978 7.1082 0.499635 6.45163 0.754911C5.87266 0.980019 5.35868 1.34543 4.95586 1.81832C4.49905 2.35458 4.25155 3.0666 3.85057 4.22012L2.16014 9.08015C2.85828 8.70979 3.65464 8.5 4.5 8.5H19.5C20.3454 8.5 21.1417 8.70979 21.8399 9.08016L20.1494 4.22013C19.7485 3.06663 19.5009 2.35457 19.0441 1.81832C18.6413 1.34543 18.1273 0.980019 17.5484 0.754911C16.8918 0.499635 16.138 0.49978 14.9168 0.500014H9.08323Z" fill="#353566"/>
<path d="M1 13.5C1 11.567 2.567 10 4.5 10H19.5C21.433 10 23 11.567 23 13.5C23 15.433 21.433 17 19.5 17H4.5C2.567 17 1 15.433 1 13.5Z" fill="#353566"/>
</g>
<path d="M17 13.5C17 12.9477 17.4477 12.5 18 12.5C18.5523 12.5 19.0001 12.9477 19.0001 13.5C19.0001 14.0523 18.5524 14.5 18.0001 14.5C17.4478 14.5 17 14.0523 17 13.5Z" fill="#353566"/>
<path fill-rule="evenodd" clip-rule="evenodd" d="M12.75 19.3781V17C12.75 16.5858 12.4142 16.25 12 16.25C11.5858 16.25 11.25 16.5858 11.25 17V19.3781C10.6107 19.604 10.104 20.1107 9.87803 20.75H5C4.58579 20.75 4.25 21.0858 4.25 21.5C4.25 21.9142 4.58579 22.25 5 22.25H9.87803C10.1869 23.1239 11.0203 23.75 12 23.75C12.9797 23.75 13.8131 23.1239 14.122 22.25H19C19.4142 22.25 19.75 21.9142 19.75 21.5C19.75 21.0858 19.4142 20.75 19 20.75H14.122C13.896 20.1107 13.3893 19.604 12.75 19.3781ZM12.75 21.5C12.75 21.0858 12.4142 20.75 12 20.75C11.5858 20.75 11.25 21.0858 11.25 21.5C11.25 21.9142 11.5858 22.25 12 22.25C12.4142 22.25 12.75 21.9142 12.75 21.5Z" fill="#353566"/>
<path d="M15 12.5C14.4477 12.5 14 12.9477 14 13.5C14 14.0523 14.4477 14.5 15 14.5C15.5523 14.5 16.0001 14.0523 16.0001 13.5C16.0001 12.9477 15.5523 12.5 15 12.5Z" fill="#353566"/>
</svg>
