<svg width="24" height="24" viewBox="0 0 24 24" fill="none" xmlns="http://www.w3.org/2000/svg">
<g clip-path="url(#clip0_9001_285282)">
<g opacity="0.4">
<path d="M5.81889 4.51996C6.49359 4.24915 7.26836 4.24951 8.39171 4.25005L10.5097 4.25009C10.8975 4.25009 11.2213 4.54569 11.2566 4.93186C11.3362 5.80377 12.0103 6.51799 12.9823 7.43154C13.1686 7.60662 13.2529 7.86452 13.2059 8.11581C13.0131 9.14771 13.0062 10.24 13.3193 11.0328C13.4702 11.415 13.6865 11.7065 13.9755 11.9063C14.263 12.1051 14.6774 12.2511 15.29 12.2511C15.3009 12.2511 15.3118 12.2513 15.3226 12.2518C15.9335 12.2411 16.492 11.9461 17.2343 11.5311L17.2372 11.5294C17.3691 11.4557 17.5071 11.3785 17.6464 11.3037C17.868 11.1848 18.1345 11.1848 18.3561 11.3039C19.1793 11.7462 19.8748 12.1022 20.5476 12.197C20.8356 12.2376 21.0742 12.4411 21.1598 12.7191L21.8004 14.801C20.8662 14.1451 19.7281 13.7601 18.5 13.7601H4.49997C3.2719 13.7601 2.13374 14.1451 1.19962 14.801L3.28566 8.02124C3.61551 6.94742 3.84301 6.2068 4.30027 5.64157C4.70254 5.14431 5.22531 4.7582 5.81889 4.51996Z" fill="#353566"/>
<path d="M22.75 19.5051C22.7473 21.85 20.8455 23.75 18.5 23.75H4.49997C2.15445 23.75 0.25271 21.85 0.25 19.5051C0.25271 17.1602 2.15445 15.2601 4.49997 15.2601H18.5C20.8455 15.2601 22.7473 17.1602 22.75 19.5051Z" fill="#353566"/>
</g>
<path d="M16.9867 1.13647C17.3958 0.287845 18.6044 0.287841 19.0135 1.13647L20.0788 3.34645L22.52 3.665C23.4616 3.78786 23.8368 4.95004 23.1448 5.6003L21.3665 7.27131L21.8142 9.66463C21.988 10.5935 21.0084 11.3097 20.176 10.8625L18.0001 9.69341L15.8242 10.8625C14.9917 11.3097 14.0122 10.5935 14.186 9.66463L14.6337 7.27131L12.8554 5.6003C12.1634 4.95004 12.5386 3.78786 13.4802 3.665L15.9214 3.34645L16.9867 1.13647Z" fill="#353566"/>
<path d="M13.5001 19.5C13.5001 18.9477 13.9478 18.5 14.5001 18.5C15.0524 18.5 15.5002 18.9477 15.5002 19.5C15.5002 20.0523 15.0525 20.5 14.5002 20.5C13.9479 20.5 13.5001 20.0523 13.5001 19.5Z" fill="#353566"/>
<path d="M16.5001 19.5C16.5001 18.9477 16.9478 18.5 17.5001 18.5C18.0524 18.5 18.5002 18.9477 18.5002 19.5C18.5002 20.0523 18.0525 20.5 17.5002 20.5C16.9479 20.5 16.5001 20.0523 16.5001 19.5Z" fill="#353566"/>
</g>
<defs>
<clipPath id="clip0_9001_285282">
<rect width="24" height="24" fill="white"/>
</clipPath>
</defs>
</svg>
