<svg width="24" height="24" viewBox="0 0 24 24" fill="none" xmlns="http://www.w3.org/2000/svg">
<path opacity="0.4" d="M18.0314 7.25H5.96858C5.29521 7.24999 4.74449 7.24998 4.29693 7.28655C3.83367 7.3244 3.41527 7.40514 3.02453 7.60423C2.413 7.91582 1.91582 8.413 1.60423 9.02453C1.40514 9.41527 1.3244 9.83367 1.28655 10.2969C1.24998 10.7445 1.24999 11.2952 1.25 11.9686V17.0314C1.24999 17.7048 1.24998 18.2555 1.28655 18.7031C1.3244 19.1663 1.40514 19.5847 1.60423 19.9755C1.91582 20.587 2.413 21.0842 3.02453 21.3958C3.41527 21.5949 3.83367 21.6756 4.29693 21.7134C4.74448 21.75 5.29518 21.75 5.96853 21.75H18.0314C18.7048 21.75 19.2555 21.75 19.7031 21.7134C20.1663 21.6756 20.5847 21.5949 20.9755 21.3958C21.587 21.0842 22.0842 20.587 22.3958 19.9755C22.5949 19.5847 22.6756 19.1663 22.7134 18.7031C22.75 18.2555 22.75 17.7048 22.75 17.0314V11.9686C22.75 11.2952 22.75 10.7445 22.7134 10.2969C22.6756 9.83367 22.5949 9.41527 22.3958 9.02453C22.0842 8.413 21.587 7.91582 20.9755 7.60423C20.5847 7.40514 20.1663 7.3244 19.7031 7.28655C19.2555 7.24998 18.7048 7.24999 18.0314 7.25Z" fill="#353566"/>
<path d="M17.75 3C17.75 2.58579 17.4142 2.25 17 2.25C16.5858 2.25 16.25 2.58579 16.25 3V3.5C16.25 4.19036 15.6904 4.75 15 4.75H14C12.4812 4.75 11.25 5.98122 11.25 7.5V8C11.25 8.41421 11.5858 8.75 12 8.75C12.4142 8.75 12.75 8.41421 12.75 8V7.5C12.75 6.80964 13.3096 6.25 14 6.25H15C16.5188 6.25 17.75 5.01878 17.75 3.5V3Z" fill="#353566"/>
<path d="M5.5 11C4.94772 11 4.5 11.4477 4.5 12C4.5 12.5523 4.94772 13 5.5 13C6.05228 13 6.5001 12.5523 6.5001 12C6.5001 11.4477 6.05228 11 5.5 11Z" fill="#353566"/>
<path d="M8.5 12C8.5 11.4477 8.94772 11 9.5 11C10.0523 11 10.5001 11.4477 10.5001 12C10.5001 12.5523 10.0524 13 9.5001 13C8.94782 13 8.5 12.5523 8.5 12Z" fill="#353566"/>
<path d="M12.5 12C12.5 11.4477 12.9477 11 13.5 11C14.0523 11 14.5001 11.4477 14.5001 12C14.5001 12.5523 14.0524 13 13.5001 13C12.9478 13 12.5 12.5523 12.5 12Z" fill="#353566"/>
<path d="M6.5 15C6.5 14.4477 6.94772 14 7.5 14C8.05228 14 8.5001 14.4477 8.5001 15C8.5001 15.5523 8.05238 16 7.5001 16C6.94782 16 6.5 15.5523 6.5 15Z" fill="#353566"/>
<path d="M11.5 14C10.9477 14 10.5 14.4477 10.5 15C10.5 15.5523 10.9477 16 11.5 16C12.0523 16 12.5001 15.5523 12.5001 15C12.5001 14.4477 12.0523 14 11.5 14Z" fill="#353566"/>
<path d="M16.25 12C16.25 11.5858 16.5858 11.25 17 11.25H19C19.4142 11.25 19.75 11.5858 19.75 12C19.75 12.4142 19.4142 12.75 19 12.75H17C16.5858 12.75 16.25 12.4142 16.25 12Z" fill="#353566"/>
<path d="M15 14.25C14.5858 14.25 14.25 14.5858 14.25 15C14.25 15.4142 14.5858 15.75 15 15.75H17C17.4142 15.75 17.75 15.4142 17.75 15C17.75 14.5858 17.4142 14.25 17 14.25H15Z" fill="#353566"/>
<path d="M8.25 18C8.25 17.5858 8.58579 17.25 9 17.25H15C15.4142 17.25 15.75 17.5858 15.75 18C15.75 18.4142 15.4142 18.75 15 18.75H9C8.58579 18.75 8.25 18.4142 8.25 18Z" fill="#353566"/>
</svg>
