<svg width="24" height="24" viewBox="0 0 24 24" fill="none" xmlns="http://www.w3.org/2000/svg">
<path opacity="0.4" d="M17.0314 3.25H6.96858C6.29521 3.24999 5.74449 3.24998 5.29693 3.28655C4.83367 3.3244 4.41527 3.40514 4.02453 3.60423C3.413 3.91582 2.91582 4.413 2.60423 5.02453C2.40514 5.41527 2.3244 5.83367 2.28655 6.29693C2.24998 6.74449 2.24999 7.2952 2.25 7.96857V17C2.25 17.4142 2.58579 17.75 3 17.75H21C21.4142 17.75 21.75 17.4142 21.75 17V7.96856C21.75 7.29519 21.75 6.74449 21.7134 6.29693C21.6756 5.83367 21.5949 5.41527 21.3958 5.02453C21.0842 4.413 20.587 3.91582 19.9755 3.60423C19.5847 3.40514 19.1663 3.3244 18.7031 3.28655C18.2555 3.24998 17.7048 3.24999 17.0314 3.25Z" fill="#353566"/>
<path d="M9.15692 10.7999H10.7815C11.0058 10.7999 11.1877 10.9789 11.1877 11.1997V13.5994C11.1877 13.9774 11.6712 14.1443 11.9111 13.8491L15.1603 9.84956C15.373 9.58778 15.1836 9.20009 14.8431 9.20009H13.2185C12.9942 9.20009 12.8123 9.02109 12.8123 8.8003V6.40058C12.8123 6.02263 12.3288 5.85572 12.089 6.1509L8.83971 10.1504C8.62704 10.4122 8.81639 10.7999 9.15692 10.7999Z" fill="#353566"/>
<path d="M0.25 17C0.25 16.5858 0.585786 16.25 1 16.25H23C23.4142 16.25 23.75 16.5858 23.75 17V17.75C23.75 19.4069 22.4069 20.75 20.75 20.75H3.25C1.59315 20.75 0.25 19.4069 0.25 17.75V17Z" fill="#353566"/>
</svg>
