<svg width="24" height="24" viewBox="0 0 24 24" fill="none" xmlns="http://www.w3.org/2000/svg">
<path opacity="0.4" d="M12 1.25C7.45951 1.25 3.75 4.8539 3.75 9.33456C3.75 12.0796 4.87388 14.4596 7.53148 16.5857C7.66446 16.692 7.8297 16.75 8 16.75H16C16.1703 16.75 16.3355 16.692 16.4685 16.5857C19.1261 14.4596 20.25 12.0796 20.25 9.33456C20.25 4.8539 16.5405 1.25 12 1.25Z" fill="#353566"/>
<path fill-rule="evenodd" clip-rule="evenodd" d="M10.0303 9.46967C9.73744 9.17678 9.26256 9.17678 8.96967 9.46967C8.67678 9.76256 8.67678 10.2374 8.96967 10.5303L11.25 12.8107V16.7501H8C7.8297 16.7501 7.66446 16.6922 7.53148 16.5858L7.5 16.5605V17.5001C7.5 18.132 7.79298 18.6954 8.2505 19.0619C8.28355 21.1044 9.9496 22.75 12 22.75C14.0504 22.75 15.7164 21.1044 15.7495 19.0619C16.207 18.6954 16.5 18.132 16.5 17.5001V16.5605L16.4685 16.5858C16.3355 16.6922 16.1703 16.7501 16 16.7501H12.75V12.8107L15.0303 10.5303C15.3232 10.2374 15.3232 9.76256 15.0303 9.46967C14.7374 9.17678 14.2626 9.17678 13.9697 9.46967L12 11.4393L10.0303 9.46967ZM12 21.25C11.0203 21.25 10.1869 20.6239 9.87803 19.75H14.122C13.8131 20.6239 12.9797 21.25 12 21.25Z" fill="#353566"/>
</svg>
