<svg width="24" height="24" viewBox="0 0 24 24" fill="none" xmlns="http://www.w3.org/2000/svg">
<path opacity="0.4" d="M9.5 1.25C4.95951 1.25 1.25 4.8539 1.25 9.33456C1.25 11.9807 2.29431 14.2875 4.75 16.3547V17.5C4.75 18.7426 5.75736 19.75 7 19.75H10.1546C10.4127 19.75 10.6526 19.6173 10.7898 19.3988C10.927 19.1803 10.9423 18.9065 10.8301 18.6741C10.4586 17.904 10.25 17.0399 10.25 16.125C10.25 12.8803 12.8803 10.25 16.125 10.25C16.3879 10.25 16.6464 10.2672 16.8995 10.3005C17.1105 10.3283 17.3233 10.2651 17.485 10.1267C17.6466 9.98839 17.7419 9.78787 17.7471 9.57515C17.749 9.49515 17.75 9.41495 17.75 9.33456C17.75 4.8539 14.0405 1.25 9.5 1.25Z" fill="#353566"/>
<path fill-rule="evenodd" clip-rule="evenodd" d="M11.25 16.125C11.25 13.4326 13.4326 11.25 16.125 11.25C18.8174 11.25 21 13.4326 21 16.125C21 17.2006 20.6517 18.1948 20.0617 19.001L22.5303 21.4697C22.8232 21.7626 22.8232 22.2374 22.5303 22.5303C22.2374 22.8232 21.7625 22.8232 21.4696 22.5303L19.001 20.0617C18.1948 20.6517 17.2006 21 16.125 21C13.4326 21 11.25 18.8174 11.25 16.125ZM16.125 12.75C14.261 12.75 12.75 14.261 12.75 16.125C12.75 17.989 14.261 19.5 16.125 19.5C17.989 19.5 19.5 17.989 19.5 16.125C19.5 14.261 17.989 12.75 16.125 12.75Z" fill="#353566"/>
<path d="M5.03148 16.5854C4.93567 16.5088 4.84185 16.4318 4.75 16.3545V17.4998C4.75 18.2882 5.15553 18.9819 5.76939 19.3837C5.96158 21.2745 7.55848 22.75 9.5 22.75C10.5812 22.75 11.5564 22.2915 12.2398 21.5605C12.5226 21.2579 12.5067 20.7833 12.2041 20.5004C11.9015 20.2176 11.4269 20.2335 11.144 20.5361C10.7324 20.9764 10.1487 21.25 9.5 21.25C8.52026 21.25 7.68677 20.6238 7.37795 19.7498H10.1548C10.4128 19.7498 10.6527 19.6171 10.79 19.3986C10.9272 19.18 10.9424 18.9063 10.8303 18.6739C10.5445 18.0815 10.3551 17.4336 10.2828 16.7498H5.5C5.3297 16.7498 5.16446 16.6918 5.03148 16.5854Z" fill="#353566"/>
</svg>
