<svg width="24" height="24" viewBox="0 0 24 24" fill="none" xmlns="http://www.w3.org/2000/svg">
<path opacity="0.4" d="M9.5 1.25C4.95951 1.25 1.25 4.8539 1.25 9.33456C1.25 11.9807 2.29431 14.2875 4.75 16.3547V17.5C4.75 18.7426 5.75736 19.75 7 19.75H9.64563C9.88246 19.75 10.1054 19.6381 10.2469 19.4483C10.3885 19.2584 10.432 19.0128 10.3644 18.7858C10.1901 18.2008 10.215 17.5694 10.4387 16.9981C11.6011 14.0292 14.0948 12.3565 16.7425 12.2549C17.0678 12.2424 17.348 12.0214 17.4359 11.7079C17.6516 10.9381 17.75 10.1471 17.75 9.33456C17.75 4.8539 14.0405 1.25 9.5 1.25Z" fill="#353566"/>
<path d="M17 16.5C16.17 16.5 15.5 17.17 15.5 18C15.5 18.83 16.17 19.5 17 19.5C17.83 19.5 18.5 18.83 18.5 18C18.5 17.17 17.83 16.5 17 16.5Z" fill="#353566"/>
<path fill-rule="evenodd" clip-rule="evenodd" d="M22.3973 17.4539C21.3768 14.8473 19.2068 13.5 17 13.5C14.7932 13.5 12.6232 14.8473 11.6027 17.4539C11.4658 17.8036 11.4658 18.1964 11.6027 18.5461C12.6232 21.1527 14.7932 22.5 17 22.5C19.2068 22.5 21.3768 21.1527 22.3973 18.5461C22.5342 18.1964 22.5342 17.8036 22.3973 17.4539ZM14.5 18C14.5 16.6177 15.6177 15.5 17 15.5C18.3823 15.5 19.5 16.6177 19.5 18C19.5 19.3823 18.3823 20.5 17 20.5C15.6177 20.5 14.5 19.3823 14.5 18Z" fill="#353566"/>
<path d="M4.75 16.3545C4.84185 16.4318 4.93567 16.5088 5.03148 16.5854C5.16446 16.6918 5.3297 16.7498 5.5 16.7498H10.5402C10.5053 16.8314 10.4715 16.914 10.4387 16.9977C10.215 17.5691 10.1901 18.2005 10.3645 18.7856C10.4321 19.0126 10.3886 19.2581 10.247 19.448C10.1055 19.6379 9.88255 19.7498 9.64571 19.7498H7.37795C7.68677 20.6238 8.52026 21.25 9.5 21.25C9.92641 21.25 10.323 21.1321 10.6615 20.9275C11.016 20.7133 11.4771 20.827 11.6913 21.1815C11.9055 21.536 11.7918 21.9971 11.4373 22.2113C10.8713 22.5534 10.2075 22.75 9.5 22.75C7.55848 22.75 5.96158 21.2745 5.76939 19.3837C5.15553 18.9819 4.75 18.2882 4.75 17.4998V16.3545Z" fill="#353566"/>
</svg>
