<svg width="24" height="24" viewBox="0 0 24 24" fill="none" xmlns="http://www.w3.org/2000/svg">
<path opacity="0.4" d="M9 1.25C6.37665 1.25 4.25 3.37665 4.25 6V12C4.25 14.6234 6.37665 16.75 9 16.75C9.20057 16.75 9.39857 16.7375 9.59321 16.7132C9.97096 16.6661 10.2535 16.3435 10.2503 15.9628C10.2414 14.885 10.5441 13.864 11.1235 13.0761C11.6865 12.3103 12.4377 11.7667 13.2489 11.4814C13.5491 11.3758 13.75 11.0921 13.75 10.7739V6C13.75 3.37665 11.6234 1.25 9 1.25Z" fill="#353566"/>
<path d="M2.75 12C2.75 11.5858 2.41421 11.25 2 11.25C1.58579 11.25 1.25 11.5858 1.25 12C1.25 16.0272 4.3217 19.337 8.25 19.7142V21.25H5C4.58579 21.25 4.25 21.5858 4.25 22C4.25 22.4142 4.58579 22.75 5 22.75H12.8232C13.2374 22.75 13.5732 22.4142 13.5732 22C13.5732 21.5858 13.2374 21.25 12.8232 21.25H9.75V19.7141C9.95492 19.6944 10.1576 19.6667 10.3578 19.6314C10.7657 19.5592 11.0378 19.1701 10.9657 18.7622C10.8936 18.3543 10.5045 18.0821 10.0966 18.1543C9.74299 18.2168 9.37866 18.2497 9.0061 18.25L9 18.25L8.9939 18.25C5.54493 18.2467 2.75 15.4498 2.75 12Z" fill="#353566"/>
<path d="M18.9021 12.5517C19.847 12.3556 21.0491 12.7049 21.8641 13.8092C22.7044 14.9477 22.7815 16.9092 21.6739 18.4463C20.902 19.5175 19.3335 20.9543 18.326 21.8349C18.3023 21.8557 18.2787 21.8766 18.2549 21.8976C18.006 22.1173 17.7484 22.3448 17.425 22.4404C17.1559 22.5199 16.8441 22.5199 16.5751 22.4404C16.2517 22.3448 15.994 22.1173 15.7452 21.8976C15.7214 21.8766 15.6977 21.8557 15.6741 21.8349C14.6666 20.9544 13.098 19.5175 12.3262 18.4463C11.2186 16.9092 11.2957 14.9478 12.136 13.8092C12.951 12.7049 14.153 12.3556 15.0979 12.5517L15.0999 12.5521C15.8341 12.7076 16.4857 13.0554 17 13.6007C17.5143 13.0554 18.166 12.7076 18.9002 12.5521L18.9021 12.5517Z" fill="#353566"/>
</svg>
