<svg width="24" height="24" viewBox="0 0 24 24" fill="none" xmlns="http://www.w3.org/2000/svg">
<path opacity="0.4" d="M9 1.25C6.37665 1.25 4.25 3.37665 4.25 6V12C4.25 14.6234 6.37665 16.75 9 16.75C9.02449 16.75 9.04894 16.7498 9.07333 16.7494C9.44727 16.7438 9.75989 16.4635 9.80619 16.0924C10.0927 13.7959 11.4548 11.8306 13.3755 10.7195C13.6073 10.5854 13.75 10.338 13.75 10.0703V6C13.75 3.37665 11.6234 1.25 9 1.25Z" fill="#353566"/>
<path d="M2.75 12C2.75 11.5858 2.41421 11.25 2 11.25C1.58579 11.25 1.25 11.5858 1.25 12C1.25 16.0272 4.3217 19.337 8.25 19.7142V21.25H5C4.58579 21.25 4.25 21.5858 4.25 22C4.25 22.4142 4.58579 22.75 5 22.75H10.7546C11.1688 22.75 11.5046 22.4142 11.5046 22C11.5046 21.5858 11.1688 21.25 10.7546 21.25H9.75V19.5555C9.91059 19.4121 10.0086 19.2011 10.0004 18.9692C9.98586 18.5552 9.63846 18.2315 9.2245 18.2461C9.15203 18.2486 9.07922 18.25 9.0061 18.25L9 18.25L8.9939 18.25C5.54493 18.2467 2.75 15.4498 2.75 12Z" fill="#353566"/>
<path fill-rule="evenodd" clip-rule="evenodd" d="M22.75 17C22.75 13.8244 20.1756 11.25 17 11.25C13.8244 11.25 11.25 13.8244 11.25 17C11.25 20.1756 13.8244 22.75 17 22.75C20.1756 22.75 22.75 20.1756 22.75 17ZM16.125 15.75C16.125 15.2668 16.5168 14.875 17 14.875C17.4832 14.875 17.875 15.2668 17.875 15.75C17.875 15.9942 17.7758 16.2141 17.6138 16.3736C17.5217 16.4643 17.44 16.5152 17.3098 16.5963C17.2733 16.6191 17.2329 16.6442 17.1875 16.6733C16.9891 16.8001 16.7329 16.9845 16.5481 17.3306C16.3855 17.635 16.5005 18.0137 16.8049 18.1763C17.1094 18.3389 17.4881 18.2239 17.6507 17.9194C17.6851 17.855 17.7268 17.8121 17.8608 17.7264C17.8805 17.7139 17.9036 17.6997 17.9296 17.6837C18.0688 17.5982 18.2895 17.4625 18.4908 17.2643C18.8816 16.8796 19.125 16.3427 19.125 15.75C19.125 14.5764 18.1736 13.625 17 13.625C15.8264 13.625 14.875 14.5764 14.875 15.75C14.875 16.0952 15.1548 16.375 15.5 16.375C15.8452 16.375 16.125 16.0952 16.125 15.75ZM17 18.75C16.5858 18.75 16.25 19.0858 16.25 19.5C16.25 19.9142 16.5858 20.25 17 20.25C17.4142 20.25 17.7501 19.9142 17.7501 19.5C17.7501 19.0858 17.4142 18.75 17 18.75Z" fill="#353566"/>
</svg>
