<svg width="24" height="24" viewBox="0 0 24 24" fill="none" xmlns="http://www.w3.org/2000/svg">
<path opacity="0.4" d="M2.5 7C2.22386 7 2 7.22386 2 7.5V12C2 15.866 5.13401 19 9 19C10.4489 19 11.7964 18.5592 12.9138 17.8044C13.0801 17.6921 13.1631 17.4913 13.1247 17.2943C13.044 16.8807 13 16.4501 13 16.002C13 13.879 14.1027 12.0113 15.7697 10.9434C15.9132 10.8515 16 10.6928 16 10.5224V7.5C16 7.22386 15.7761 7 15.5 7H2.5Z" fill="#353566"/>
<path d="M5.75 1.25C6.16421 1.25 6.5 1.58579 6.5 2V5.75H5V2C5 1.58579 5.33579 1.25 5.75 1.25Z" fill="#353566"/>
<path d="M12.25 1.25C12.6642 1.25 13 1.58579 13 2V5.75H11.5V2C11.5 1.58579 11.8358 1.25 12.25 1.25Z" fill="#353566"/>
<path d="M9 18.9997C8.74663 18.9997 8.49641 18.9862 8.25 18.96V21.9997C8.25 22.4139 8.58579 22.7497 9 22.7497C9.41421 22.7497 9.75 22.4139 9.75 21.9997V18.96C9.5036 18.9862 9.25337 18.9997 9 18.9997Z" fill="#353566"/>
<path d="M17.75 7.5C17.75 7.91421 17.4142 8.25 17 8.25L1 8.25C0.585787 8.25 0.25 7.91421 0.25 7.5C0.25 7.08578 0.585787 6.75 1 6.75L17 6.75C17.4142 6.75 17.75 7.08579 17.75 7.5Z" fill="#353566"/>
<path fill-rule="evenodd" clip-rule="evenodd" d="M19.0001 11.5C16.5144 11.5 14.5 13.517 14.5 16.002C14.5 18.7667 16.7001 20.9001 18.7 22.4C18.8778 22.5333 19.1222 22.5333 19.3 22.4C21.3 20.9 23.5 18.7667 23.5 16C23.5 13.5147 21.4854 11.5 19.0001 11.5ZM20.5 16.0001C20.5 16.8285 19.8285 17.5001 19 17.5001C18.1716 17.5001 17.5 16.8285 17.5 16.0001C17.5 15.1716 18.1716 14.5001 19 14.5001C19.8285 14.5001 20.5 15.1716 20.5 16.0001Z" fill="#353566"/>
</svg>
