<svg width="24" height="24" viewBox="0 0 24 24" fill="none" xmlns="http://www.w3.org/2000/svg">
<g clip-path="url(#clip0_9001_286231)">
<path opacity="0.4" d="M13.25 8.25H5.7679C4.95506 8.24999 4.29944 8.24999 3.76853 8.29336C3.2219 8.33803 2.74176 8.43239 2.29754 8.65873C1.59193 9.01825 1.01825 9.59193 0.658727 10.2975C0.432387 10.7418 0.338027 11.2219 0.293365 11.7685C0.249989 12.2994 0.249994 12.955 0.250001 13.7678V16.6289C0.249988 17.0243 0.249977 17.3653 0.272929 17.6463C0.297155 17.9428 0.350642 18.2377 0.495237 18.5215C0.710952 18.9448 1.05516 19.289 1.47852 19.5048C1.76231 19.6494 2.05722 19.7028 2.35373 19.7271C2.63466 19.75 2.97572 19.75 3.37108 19.75H5C5.41422 19.75 5.75 19.4142 5.75 19V15.75H16.25V19C16.25 19.4142 16.5858 19.75 17 19.75H18.6289C19.0243 19.75 19.3653 19.75 19.6463 19.7271C19.9428 19.7028 20.2377 19.6494 20.5215 19.5048C20.9448 19.289 21.2891 18.9448 21.5048 18.5215C21.6494 18.2377 21.7028 17.9428 21.7271 17.6463C21.75 17.3654 21.75 17.0243 21.75 16.629L21.7499 13.4994C21.7496 13.0854 21.4139 12.75 20.9999 12.75H16.5C14.7051 12.75 13.25 11.2949 13.25 9.5V8.25Z" fill="#353566"/>
<path d="M4.25 2.5C4.25 1.25736 5.25736 0.25 6.5 0.25H13.7974C14.237 0.25 14.6616 0.378541 15.0223 0.6126C15.3314 0.813209 15.449 1.2087 15.2997 1.54562C15.1381 1.91037 15.0347 2.31497 15.0074 2.75721L14.9934 2.9842C14.9801 3.20054 14.8738 3.40052 14.7019 3.53262L14.5216 3.67123C13.7461 4.2674 13.25 5.20043 13.25 6.25V8.25H4.25V2.5Z" fill="#353566"/>
<path d="M4.25 15C4.25 14.5858 4.58579 14.25 5 14.25H17C17.4142 14.25 17.75 14.5858 17.75 15V21.5C17.75 22.7426 16.7426 23.75 15.5 23.75H6.5C5.25736 23.75 4.25 22.7426 4.25 21.5V15Z" fill="#353566"/>
<path fill-rule="evenodd" clip-rule="evenodd" d="M19 0.25C17.4286 0.25 16 1.40061 16 3V4.26772C15.1519 4.38903 14.5 5.11838 14.5 6V9.75C14.5 10.7165 15.2835 11.5 16.25 11.5H21.75C22.7165 11.5 23.5 10.7165 23.5 9.75V6C23.5 5.11838 22.8481 4.38903 22 4.26772V3C22 1.40061 20.5714 0.25 19 0.25ZM17.5 3C17.5 2.39025 18.0861 1.75 19 1.75C19.9139 1.75 20.5 2.39025 20.5 3V4H17.5V3Z" fill="#353566"/>
</g>
<defs>
<clipPath id="clip0_9001_286231">
<rect width="24" height="24" fill="white"/>
</clipPath>
</defs>
</svg>
