<svg width="24" height="24" viewBox="0 0 24 24" fill="none" xmlns="http://www.w3.org/2000/svg">
<path opacity="0.4" d="M9.30499 1.35221C9.70449 1.2496 10.1227 1.24978 10.6956 1.25002L15.5315 1.25005C16.2048 1.25004 16.7555 1.25003 17.2031 1.2866C17.6664 1.32445 18.0848 1.40518 18.4755 1.60428C19.087 1.91586 19.5842 2.41305 19.8958 3.02458C20.0949 3.41532 20.1756 3.83372 20.2135 4.29698C20.25 4.74453 20.25 5.29521 20.25 5.96855V18.0315C20.25 18.7048 20.25 19.2556 20.2135 19.7031C20.1756 20.1664 20.0949 20.5848 19.8958 20.9755C19.5842 21.587 19.087 22.0842 18.4755 22.3958C18.0848 22.5949 17.6664 22.6756 17.2031 22.7135C16.7555 22.7501 16.2048 22.7501 15.5315 22.75H8.4686C7.79523 22.7501 7.24453 22.7501 6.79697 22.7135C6.33371 22.6756 5.91531 22.5949 5.52457 22.3958C4.91304 22.0842 4.41585 21.587 4.10427 20.9755C3.90517 20.5848 3.82444 20.1664 3.78659 19.7031C3.75002 19.2556 3.75003 18.7049 3.75004 18.0316L3.75002 8.46107C3.74983 7.96474 3.7497 7.6022 3.82826 7.25063C3.89763 6.94017 4.01222 6.64157 4.16834 6.36439C4.34513 6.05052 4.58776 5.78114 4.91993 5.41234L7.30827 2.75861C7.69132 2.33264 7.97098 2.02164 8.3145 1.79333C8.61763 1.59186 8.95245 1.44275 9.30499 1.35221Z" fill="#353566"/>
<path d="M11.25 5.5C11.25 5.08579 10.9142 4.75 10.5 4.75C10.0858 4.75 9.75 5.08579 9.75 5.5V9.5C9.75 9.91421 10.0858 10.25 10.5 10.25C10.9142 10.25 11.25 9.91421 11.25 9.5V5.5Z" fill="#353566"/>
<path d="M13.5 4.75C13.9142 4.75 14.25 5.08579 14.25 5.5V9.5C14.25 9.91421 13.9142 10.25 13.5 10.25C13.0858 10.25 12.75 9.91421 12.75 9.5V5.5C12.75 5.08579 13.0858 4.75 13.5 4.75Z" fill="#353566"/>
<path d="M16.5 4.75C16.9142 4.75 17.25 5.08579 17.25 5.5V9.5C17.25 9.91421 16.9142 10.25 16.5 10.25C16.0858 10.25 15.75 9.91421 15.75 9.5V5.5C15.75 5.08579 16.0858 4.75 16.5 4.75Z" fill="#353566"/>
</svg>
