<svg width="24" height="24" viewBox="0 0 24 24" fill="none" xmlns="http://www.w3.org/2000/svg">
<path opacity="0.4" d="M14.7232 1.33984C14.3475 1.24965 13.9573 1.24981 13.423 1.25002L7.96858 1.25004C7.2952 1.25003 6.7445 1.25003 6.29693 1.28659C5.83367 1.32444 5.41527 1.40518 5.02453 1.60427C4.413 1.91586 3.91582 2.41305 3.60423 3.02457C3.40514 3.41531 3.3244 3.83371 3.28655 4.29697C3.24998 4.74453 3.24999 5.29524 3.25 5.96861V18.0315C3.24999 18.7048 3.24998 19.2555 3.28655 19.7031C3.3244 20.1664 3.40514 20.5848 3.60423 20.9755C3.91582 21.587 4.413 22.0842 5.02453 22.3958C5.41527 22.5949 5.83367 22.6756 6.29693 22.7135C6.74449 22.7501 7.29519 22.7501 7.96856 22.75H16.0314C16.7048 22.7501 17.2555 22.7501 17.7031 22.7135C18.1663 22.6756 18.5847 22.5949 18.9755 22.3958C19.587 22.0842 20.0842 21.587 20.3958 20.9755C20.5949 20.5848 20.6756 20.1664 20.7134 19.7031C20.75 19.2556 20.75 18.7049 20.75 18.0315L20.75 8.57707C20.7502 8.04275 20.7504 7.65252 20.6602 7.27688C20.5806 6.94526 20.4493 6.62824 20.2711 6.33745C20.0692 6.00806 19.7932 5.73226 19.4152 5.35458L16.6455 2.58482C16.2678 2.20684 15.992 1.93082 15.6626 1.72896C15.3718 1.55077 15.0548 1.41945 14.7232 1.33984Z" fill="#353566"/>
<path d="M8.96967 14.4695C8.67678 14.7624 8.67678 15.2373 8.96967 15.5302C9.26256 15.8231 9.73744 15.8231 10.0303 15.5302L12 13.5605L13.9697 15.5302C14.2626 15.8231 14.7374 15.8231 15.0303 15.5302C15.3232 15.2373 15.3232 14.7624 15.0303 14.4695L13.0607 12.4998L15.0303 10.5302C15.3232 10.2373 15.3232 9.76244 15.0303 9.46955C14.7374 9.17665 14.2625 9.17665 13.9696 9.46955L12 11.4392L10.0304 9.46956C9.73748 9.17666 9.2626 9.17666 8.96971 9.46956C8.67682 9.76245 8.67682 10.2373 8.96971 10.5302L10.9393 12.4998L8.96967 14.4695Z" fill="#353566"/>
</svg>
