<svg width="24" height="24" viewBox="0 0 24 24" fill="none" xmlns="http://www.w3.org/2000/svg">
<path opacity="0.4" d="M14.7232 1.33984C14.3475 1.24965 13.9573 1.24981 13.423 1.25002L7.96858 1.25004C7.2952 1.25003 6.7445 1.25003 6.29693 1.28659C5.83367 1.32444 5.41527 1.40518 5.02453 1.60427C4.413 1.91586 3.91582 2.41305 3.60423 3.02457C3.40514 3.41531 3.3244 3.83371 3.28655 4.29697C3.24998 4.74453 3.24999 5.29524 3.25 5.96861V18.0315C3.24999 18.7048 3.24998 19.2555 3.28655 19.7031C3.3244 20.1664 3.40514 20.5848 3.60423 20.9755C3.91582 21.587 4.413 22.0842 5.02453 22.3958C5.41527 22.5949 5.83367 22.6756 6.29693 22.7135C6.74449 22.7501 7.29519 22.7501 7.96856 22.75H16.0314C16.7048 22.7501 17.2555 22.7501 17.7031 22.7135C18.1663 22.6756 18.5847 22.5949 18.9755 22.3958C19.587 22.0842 20.0842 21.587 20.3958 20.9755C20.5949 20.5848 20.6756 20.1664 20.7134 19.7031C20.75 19.2556 20.75 18.7049 20.75 18.0315L20.75 8.57707C20.7502 8.04275 20.7504 7.65252 20.6602 7.27688C20.5806 6.94526 20.4493 6.62824 20.2711 6.33745C20.0692 6.00806 19.7932 5.73226 19.4152 5.35458L16.6455 2.58482C16.2678 2.20684 15.992 1.93082 15.6626 1.72896C15.3718 1.55077 15.0548 1.41945 14.7232 1.33984Z" fill="#353566"/>
<path d="M12 9.75C11.6456 9.75 11.4261 9.86291 11.2595 10.0495C11.1164 10.2097 11 10.3938 11 10.7C11 11.1142 10.6642 11.45 10.25 11.45C9.83579 11.45 9.5 11.1142 9.5 10.7C9.5 9.90616 9.8451 9.3814 10.1405 9.05049C10.6149 8.5192 11.2544 8.25 12 8.25C13.5225 8.25 14.5 9.38767 14.5 10.6V10.6049L14.4998 10.6349C14.4888 11.4863 13.9889 12.0762 13.5159 12.4809C13.2768 12.6855 13.0158 12.8674 12.7803 13.0271C12.7264 13.0637 12.6741 13.0988 12.6234 13.133C12.4419 13.2552 12.28 13.3643 12.1281 13.4779C12.0155 13.5622 11.8987 13.662 11.7803 13.7803C11.6103 13.9504 11.4775 14.1081 11.3737 14.25H14C14.4142 14.25 14.75 14.5858 14.75 15C14.75 15.4142 14.4142 15.75 14 15.75H10.25C9.83579 15.75 9.5 15.4142 9.5 15H10.25C9.5 15 9.5 15 9.5 15L9.5 14.998L9.50001 14.9959L9.50004 14.9916L9.5002 14.982L9.50092 14.9594C9.50163 14.9429 9.50282 14.9233 9.50477 14.9008C9.50868 14.8559 9.51561 14.7996 9.52772 14.733C9.55199 14.5996 9.5968 14.4261 9.67864 14.2215C9.84326 13.8099 10.1515 13.2878 10.7197 12.7197C10.8891 12.5502 11.0601 12.4037 11.2293 12.277C11.4143 12.1386 11.617 12.0021 11.8027 11.8772C11.8493 11.8458 11.8947 11.8152 11.9386 11.7855C12.169 11.6293 12.3701 11.4872 12.5406 11.3412C12.8859 11.0458 12.9965 10.8284 12.9999 10.6174L13 10.598C12.9989 10.2107 12.6891 9.75 12 9.75Z" fill="#353566"/>
</svg>
