<svg width="24" height="24" viewBox="0 0 24 24" fill="none" xmlns="http://www.w3.org/2000/svg">
<path opacity="0.4" d="M12.7321 3.75H5.7679C4.95506 3.74999 4.29944 3.74999 3.76853 3.79336C3.2219 3.83803 2.74175 3.93239 2.29754 4.15873C1.59193 4.51825 1.01825 5.09193 0.658726 5.79754C0.432386 6.24175 0.338026 6.7219 0.293364 7.26853C0.249987 7.79944 0.249993 8.45505 0.25 9.26788V14.7321C0.249993 15.5449 0.249987 16.2006 0.293364 16.7315C0.338026 17.2781 0.432386 17.7582 0.658726 18.2025C1.01825 18.9081 1.59193 19.4817 2.29754 19.8413C2.74175 20.0676 3.2219 20.162 3.76853 20.2066C4.29944 20.25 4.95505 20.25 5.76788 20.25H12.7321C13.545 20.25 14.2006 20.25 14.7315 20.2066C15.2781 20.162 15.7582 20.0676 16.2025 19.8413C16.9081 19.4817 17.4817 18.9081 17.8413 18.2025C18.0676 17.7582 18.162 17.2781 18.2066 16.7315C18.25 16.2006 18.25 15.545 18.25 14.7321V9.26788C18.25 8.45505 18.25 7.79944 18.2066 7.26853C18.162 6.7219 18.0676 6.24175 17.8413 5.79754C17.4817 5.09193 16.9081 4.51825 16.2025 4.15873C15.7582 3.93239 15.2781 3.83803 14.7315 3.79336C14.2006 3.74999 13.5449 3.74999 12.7321 3.75Z" fill="#353566"/>
<path d="M18.25 14.8575V9.14237L21.4092 6.27041C22.2121 5.54044 23.5 6.11015 23.5 7.19533V16.8045C23.5 17.8897 22.2121 18.4594 21.4092 17.7294L18.25 14.8575Z" fill="#353566"/>
<path d="M8.25 15.5C8.25 14.9477 8.69772 14.5 9.25 14.5C9.80228 14.5 10.2501 14.9477 10.2501 15.5C10.2501 16.0523 9.80238 16.5 9.2501 16.5C8.69782 16.5 8.25 16.0523 8.25 15.5Z" fill="#353566"/>
<path d="M7.75 10.25C7.75 9.42157 8.42157 8.75 9.25 8.75C10.0784 8.75 10.75 9.42157 10.75 10.25C10.75 10.6686 10.5795 11.046 10.3023 11.319C10.1535 11.4654 10.0172 11.5424 9.80853 11.6602C9.76329 11.6858 9.71447 11.7133 9.66156 11.7438C9.36999 11.912 9.00076 12.1538 8.73751 12.6467C8.54237 13.012 8.68037 13.4664 9.04574 13.6616C9.41111 13.8567 9.86549 13.7187 10.0606 13.3533C10.1262 13.2305 10.2039 13.1626 10.4109 13.0433C10.4397 13.0267 10.4723 13.0086 10.508 12.9887C10.7225 12.8695 11.0507 12.6871 11.3546 12.3879C11.9065 11.8446 12.25 11.0867 12.25 10.25C12.25 8.59315 10.9069 7.25 9.25 7.25C7.59315 7.25 6.25 8.59315 6.25 10.25C6.25 10.4359 6.27058 10.6053 6.29768 10.7487C6.3746 11.1557 6.7669 11.4233 7.17391 11.3464C7.58092 11.2695 7.84851 10.8772 7.77159 10.4702C7.75856 10.4012 7.75 10.3262 7.75 10.25Z" fill="#353566"/>
</svg>
