<svg width="24" height="24" viewBox="0 0 24 24" fill="none" xmlns="http://www.w3.org/2000/svg">
<g clip-path="url(#clip0_9001_293622)">
<path d="M11 10C10.4477 10 10 10.4477 10 11C10 11.5523 10.4478 12 11.0001 12C11.5524 12 12.0001 11.5523 12.0001 11C12.0001 10.4477 11.5523 10 11 10Z" fill="#353566"/>
<path fill-rule="evenodd" clip-rule="evenodd" d="M14.633 0.249939H7.367C6.27486 0.249934 5.40935 0.249929 4.71173 0.306927C3.99834 0.365213 3.39472 0.486821 2.84355 0.767659C1.94978 1.22306 1.22312 1.94971 0.76772 2.84348C0.486882 3.39466 0.365274 3.99828 0.306988 4.71167C0.24999 5.40929 0.249995 6.2748 0.25 7.36693V14.633C0.249995 15.7251 0.24999 16.5906 0.306988 17.2882C0.365274 18.0016 0.486882 18.6052 0.76772 19.1564C1.22312 20.0502 1.94978 20.7768 2.84355 21.2322C3.39472 21.5131 3.99834 21.6347 4.71173 21.693C5.40935 21.7499 6.27484 21.7499 7.36698 21.7499H10.5815C10.8309 21.7499 11.064 21.6259 11.2034 21.4191C11.3428 21.2123 11.3703 20.9497 11.2767 20.7185C10.9373 19.88 10.75 18.9628 10.75 17.9999C10.75 13.9959 13.9959 10.7499 18 10.7499C18.9628 10.7499 19.88 10.9372 20.7186 11.2767C20.9498 11.3702 21.2124 11.3428 21.4192 11.2034C21.626 11.064 21.75 10.8309 21.75 10.5815V7.36692C21.75 6.27478 21.75 5.40929 21.693 4.71167C21.6347 3.99828 21.5131 3.39466 21.2323 2.84348C20.7769 1.94971 20.0502 1.22306 19.1565 0.767659C18.6053 0.486821 18.0017 0.365213 17.2883 0.306927C16.5906 0.249929 15.7251 0.249934 14.633 0.249939ZM3.75 11C3.75 6.99594 6.99594 3.75 11 3.75C14.6655 3.75 17.6956 6.47018 18.1819 10.002C18.1214 10.0006 18.0608 9.99995 18 9.99995C13.5817 9.99995 10 13.5817 10 18C10 18.0608 10.0007 18.1214 10.002 18.1819C6.4702 17.6956 3.75 14.6655 3.75 11Z" fill="#353566"/>
<path fill-rule="evenodd" clip-rule="evenodd" d="M12.25 17.9999C12.25 14.8243 14.8244 12.2499 18 12.2499C21.1756 12.2499 23.75 14.8243 23.75 17.9999C23.75 21.1756 21.1756 23.7499 18 23.7499C14.8244 23.7499 12.25 21.1756 12.25 17.9999ZM18 20.6249C17.6548 20.6249 17.375 20.3451 17.375 19.9999V18.6249H16C15.6548 18.6249 15.375 18.3451 15.375 17.9999C15.375 17.6548 15.6548 17.3749 16 17.3749H17.375V15.9999C17.375 15.6548 17.6548 15.3749 18 15.3749C18.3452 15.3749 18.625 15.6548 18.625 15.9999V17.3749H20C20.3452 17.3749 20.625 17.6548 20.625 17.9999C20.625 18.3451 20.3452 18.6249 20 18.6249H18.625V19.9999C18.625 20.3451 18.3452 20.6249 18 20.6249Z" fill="#353566"/>
</g>
<defs>
<clipPath id="clip0_9001_293622">
<rect width="24" height="24" fill="white"/>
</clipPath>
</defs>
</svg>
