<svg width="24" height="24" viewBox="0 0 24 24" fill="none" xmlns="http://www.w3.org/2000/svg">
<path fill-rule="evenodd" clip-rule="evenodd" d="M7.06739 3.25H16.9326C17.8851 3.24999 18.6456 3.24999 19.2599 3.30018C19.8899 3.35165 20.4318 3.45963 20.9295 3.71322C21.7291 4.12068 22.3793 4.77085 22.7868 5.57054C23.0404 6.06824 23.1483 6.61012 23.1998 7.24013C23.25 7.85438 23.25 8.61496 23.25 9.56737V14.4327C23.25 15.3851 23.25 16.1456 23.1998 16.7599C23.1483 17.3899 23.0404 17.9318 22.7868 18.4295C22.3793 19.2291 21.7291 19.8793 20.9295 20.2868C20.4318 20.5404 19.8899 20.6483 19.2599 20.6998C18.6456 20.75 17.885 20.75 16.9326 20.75H7.0673C6.1149 20.75 5.35438 20.75 4.74013 20.6998C4.11012 20.6483 3.56824 20.5404 3.07054 20.2868C2.27085 19.8793 1.62068 19.2291 1.21322 18.4295C0.959634 17.9318 0.85165 17.3899 0.800176 16.7599C0.749989 16.1456 0.749994 15.3851 0.75 14.4326V9.56738C0.749994 8.61495 0.749989 7.85439 0.800176 7.24013C0.85165 6.61012 0.959634 6.06824 1.21322 5.57054C1.62068 4.77085 2.27085 4.12068 3.07054 3.71322C3.56824 3.45963 4.11012 3.35165 4.74013 3.30018C5.35439 3.24999 6.11495 3.24999 7.06739 3.25ZM8.66097 10C7.60557 10 6.75 10.8556 6.75 11.911V12.089C6.75 13.1444 7.60557 14 8.66097 14C9.1253 14 9.56511 13.7916 9.85915 13.4322L9.91953 13.3584C10.1818 13.0378 10.6543 12.9906 10.9749 13.2529C11.2955 13.5152 11.3428 13.9877 11.0805 14.3083L11.0201 14.3821C10.4412 15.0896 9.5752 15.5 8.66097 15.5C6.77714 15.5 5.25 13.9729 5.25 12.089V11.911C5.25 10.0271 6.77714 8.5 8.66097 8.5C9.5752 8.5 10.4412 8.91036 11.0201 9.61793L11.0805 9.69174C11.3428 10.0123 11.2955 10.4848 10.9749 10.7471C10.6543 11.0094 10.1818 10.9622 9.91953 10.6416L9.85915 10.5678C9.56511 10.2084 9.1253 10 8.66097 10ZM15.661 10C14.6056 10 13.75 10.8556 13.75 11.911V12.089C13.75 13.1444 14.6056 14 15.661 14C16.1253 14 16.5651 13.7916 16.8591 13.4322L16.9195 13.3584C17.1818 13.0378 17.6543 12.9906 17.9749 13.2529C18.2955 13.5152 18.3428 13.9877 18.0805 14.3083L18.0201 14.3821C17.4412 15.0896 16.5752 15.5 15.661 15.5C13.7771 15.5 12.25 13.9729 12.25 12.089V11.911C12.25 10.0271 13.7771 8.5 15.661 8.5C16.5752 8.5 17.4412 8.91036 18.0201 9.61793L18.0805 9.69174C18.3428 10.0123 18.2955 10.4848 17.9749 10.7471C17.6543 11.0094 17.1818 10.9622 16.9195 10.6416L16.8591 10.5678C16.5651 10.2084 16.1253 10 15.661 10Z" fill="#353566"/>
</svg>
