<svg width="24" height="24" viewBox="0 0 24 24" fill="none" xmlns="http://www.w3.org/2000/svg">
<g clip-path="url(#clip0_9001_293722)">
<path d="M11 2C11 1.44772 11.4477 1 12 1C12.5523 1 13.0001 1.44772 13.0001 2C13.0001 2.55228 12.5523 3 12 3C11.4477 3 11 2.55228 11 2Z" fill="#353566"/>
<path d="M19 5C19 4.44772 19.4477 4 20 4C20.5523 4 21.0001 4.44772 21.0001 5C21.0001 5.55228 20.5523 6 20 6C19.4477 6 19 5.55228 19 5Z" fill="#353566"/>
<path d="M0 13C0 12.4477 0.447716 12 1 12C1.55228 12 2.0001 12.4477 2.0001 13C2.0001 13.5523 1.55239 14 1.0001 14C0.447815 14 0 13.5523 0 13Z" fill="#353566"/>
<path d="M22 13C22 12.4477 22.4477 12 23 12C23.5523 12 24.0001 12.4477 24.0001 13C24.0001 13.5523 23.5523 14 23 14C22.4477 14 22 13.5523 22 13Z" fill="#353566"/>
<path d="M3 21C3 20.4477 3.44772 20 4 20C4.55228 20 5.0001 20.4477 5.0001 21C5.0001 21.5523 4.55239 22 4.0001 22C3.44781 22 3 21.5523 3 21Z" fill="#353566"/>
<path d="M20 20C19.4477 20 19 20.4477 19 21C19 21.5523 19.4478 22 20.0001 22C20.5524 22 21.0001 21.5523 21.0001 21C21.0001 20.4477 20.5523 20 20 20Z" fill="#353566"/>
<path d="M3 5C3 4.44772 3.44772 4 4 4C4.55228 4 5.0001 4.44772 5.0001 5C5.0001 5.55228 4.55239 6 4.0001 6C3.44781 6 3 5.55228 3 5Z" fill="#353566"/>
<path d="M4.25 13C4.25 8.71979 7.71979 5.25 12 5.25C13.7118 5.25 15.294 5.80499 16.5764 6.74484C16.693 6.83029 16.7513 6.87302 16.7784 6.93336C16.8013 6.98455 16.8061 7.04776 16.7913 7.10184C16.7737 7.1656 16.7201 7.21929 16.6127 7.32666L11.4697 12.4697C11.1768 12.7626 11.1768 13.2374 11.4697 13.5303C11.7626 13.8232 12.2374 13.8232 12.5303 13.5303L17.6733 8.38732C17.7807 8.27995 17.8344 8.22626 17.8982 8.20873C17.9522 8.19387 18.0155 8.19871 18.0666 8.22164C18.127 8.24868 18.1697 8.30698 18.2552 8.42358C19.195 9.70602 19.75 11.2882 19.75 13C19.75 17.2802 16.2802 20.75 12 20.75C7.71979 20.75 4.25 17.2802 4.25 13Z" fill="#353566"/>
</g>
<defs>
<clipPath id="clip0_9001_293722">
<rect width="24" height="24" fill="white"/>
</clipPath>
</defs>
</svg>
