<svg width="24" height="24" viewBox="0 0 24 24" fill="none" xmlns="http://www.w3.org/2000/svg">
<g clip-path="url(#clip0_9001_293647)">
<path d="M11 2C11 1.44772 11.4477 1 12 1C12.5523 1 13.0001 1.44772 13.0001 2C13.0001 2.55228 12.5523 3 12 3C11.4477 3 11 2.55228 11 2Z" fill="#353566"/>
<path d="M19 5C19 4.44772 19.4477 4 20 4C20.5523 4 21.0001 4.44772 21.0001 5C21.0001 5.55228 20.5523 6 20 6C19.4477 6 19 5.55228 19 5Z" fill="#353566"/>
<path d="M0 13C0 12.4477 0.447715 12 1 12C1.55228 12 2.0001 12.4477 2.0001 13C2.0001 13.5523 1.55238 14 1.0001 14C0.447815 14 0 13.5523 0 13Z" fill="#353566"/>
<path d="M22 13C22 12.4477 22.4477 12 23 12C23.5523 12 24.0001 12.4477 24.0001 13C24.0001 13.5523 23.5523 14 23 14C22.4477 14 22 13.5523 22 13Z" fill="#353566"/>
<path d="M3 21C3 20.4477 3.44772 20 4 20C4.55228 20 5.0001 20.4477 5.0001 21C5.0001 21.5523 4.55238 22 4.0001 22C3.44782 22 3 21.5523 3 21Z" fill="#353566"/>
<path d="M20 20C19.4477 20 19 20.4477 19 21C19 21.5523 19.4478 22 20.0001 22C20.5524 22 21.0001 21.5523 21.0001 21C21.0001 20.4477 20.5523 20 20 20Z" fill="#353566"/>
<path d="M3 5C3 4.44772 3.44772 4 4 4C4.55228 4 5.0001 4.44772 5.0001 5C5.0001 5.55228 4.55238 6 4.0001 6C3.44782 6 3 5.55228 3 5Z" fill="#353566"/>
<path d="M4.25 13C4.25 8.71979 7.71979 5.25 12 5.25C16.2802 5.25 19.75 8.71979 19.75 13C19.75 17.2802 16.2802 20.75 12 20.75C10.2882 20.75 8.70602 20.195 7.42358 19.2552C7.30698 19.1697 7.24868 19.127 7.22164 19.0666C7.19871 19.0155 7.19387 18.9522 7.20873 18.8982C7.22626 18.8344 7.27995 18.7807 7.38732 18.6733L12.5303 13.5303C12.8232 13.2374 12.8232 12.7626 12.5303 12.4697C12.2374 12.1768 11.7626 12.1768 11.4697 12.4697L6.32666 17.6127C6.21929 17.7201 6.1656 17.7737 6.10184 17.7913C6.04776 17.8061 5.98455 17.8013 5.93336 17.7784C5.87302 17.7513 5.83029 17.693 5.74484 17.5764C4.80499 16.294 4.25 14.7118 4.25 13Z" fill="#353566"/>
</g>
<defs>
<clipPath id="clip0_9001_293647">
<rect width="24" height="24" fill="white"/>
</clipPath>
</defs>
</svg>
