<svg width="24" height="24" viewBox="0 0 24 24" fill="none" xmlns="http://www.w3.org/2000/svg">
<path d="M6.56739 1.25H16.4326C17.3851 1.24999 18.1456 1.24999 18.7599 1.30018C19.3899 1.35165 19.9318 1.45963 20.4295 1.71322C21.2291 2.12068 21.8793 2.77085 22.2868 3.57054C22.5404 4.06824 22.6483 4.61012 22.6998 5.24013C22.75 5.85438 22.75 6.6149 22.75 7.5673V10.7521C22.75 11.1663 22.4142 11.5021 22 11.5021C21.5858 11.5021 21.25 11.1663 21.25 10.7521V7.6C21.25 6.60753 21.2494 5.90829 21.2048 5.36228C21.1609 4.82503 21.0782 4.50252 20.9503 4.25153C20.6866 3.73408 20.2659 3.31338 19.7485 3.04973C19.4975 2.92184 19.175 2.83909 18.6377 2.79519C18.0917 2.75058 17.3925 2.75 16.4 2.75H6.6C5.60753 2.75 4.90829 2.75058 4.36228 2.79519C3.82503 2.83909 3.50252 2.92184 3.25153 3.04973C2.73408 3.31338 2.31338 3.73408 2.04973 4.25153C1.92184 4.50252 1.83909 4.82503 1.79519 5.36228C1.75058 5.90829 1.75 6.60753 1.75 7.6V13.4C1.75 14.3925 1.75058 15.0917 1.79519 15.6377L1.79721 15.662L5.28152 12.1771C5.96498 11.4935 7.07322 11.4936 7.75665 12.1772L8.99929 13.4201L14.7626 7.65707C15.446 6.97368 16.554 6.97369 17.2374 7.65709L18.9504 9.37008C19.1639 9.58359 19.2286 9.9043 19.1145 10.1839C19.0004 10.4634 18.7297 10.6473 18.4278 10.6504C14.678 10.689 11.65 13.7409 11.65 17.5C11.65 17.9585 11.6949 18.4058 11.7804 18.8379C11.7898 18.8804 11.7955 18.9242 11.7974 18.969C11.7984 18.9948 11.7982 19.0206 11.7966 19.0463C11.7882 19.1846 11.7423 19.3127 11.669 19.4207C11.6562 19.4395 11.6426 19.4578 11.6281 19.4755C11.5751 19.5402 11.5123 19.5947 11.4429 19.6377C11.361 19.6886 11.2685 19.7241 11.1696 19.7402C11.1297 19.7467 11.089 19.7501 11.048 19.7501H6.56755C5.61514 19.7501 4.85456 19.7501 4.24031 19.6999C3.6103 19.6485 3.06842 19.5405 2.57072 19.2869L2.53706 19.2695C2.44876 19.2235 2.36231 19.1746 2.27785 19.1228C1.6121 18.7144 1.06975 18.1292 0.713223 17.4295C0.459634 16.9318 0.35165 16.3899 0.300176 15.7599C0.249989 15.1456 0.249994 14.3851 0.25 13.4326V7.56739C0.249994 6.61495 0.249989 5.85439 0.300176 5.24013C0.35165 4.61012 0.459634 4.06824 0.713223 3.57054C1.12068 2.77085 1.77085 2.12068 2.57054 1.71322C3.06824 1.45963 3.61012 1.35165 4.24013 1.30018C4.85439 1.24999 5.61495 1.24999 6.56739 1.25Z" fill="#353566"/>
<path d="M5 7.5C5 6.39543 5.89543 5.5 7 5.5C8.10457 5.5 9 6.39543 9 7.5C9 8.60457 8.10457 9.5 7 9.5C5.89543 9.5 5 8.60457 5 7.5Z" fill="#353566"/>
<path fill-rule="evenodd" clip-rule="evenodd" d="M18.4199 12.0867C15.4744 12.0867 13.0866 14.4745 13.0866 17.42C13.0866 20.3655 15.4744 22.7533 18.4199 22.7533C21.3654 22.7533 23.7532 20.3655 23.7532 17.42C23.7532 14.4745 21.3654 12.0867 18.4199 12.0867ZM20.6952 15.8322C20.9393 16.0763 20.9393 16.472 20.6952 16.7161L18.4035 19.0078C18.286 19.1253 18.1265 19.1912 17.9603 19.1908C17.7941 19.1905 17.6349 19.124 17.5178 19.006L16.1428 17.6196C15.8998 17.3746 15.9014 16.9788 16.1465 16.7358C16.3915 16.4927 16.7873 16.4943 17.0303 16.7394L17.9634 17.6801L19.8113 15.8322C20.0554 15.5882 20.4511 15.5882 20.6952 15.8322Z" fill="#353566"/>
</svg>
