<svg width="24" height="24" viewBox="0 0 24 24" fill="none" xmlns="http://www.w3.org/2000/svg">
<path d="M12.6307 9.69175C12.8247 9.88575 13.1078 9.95775 13.3708 9.88175L19.1297 8.20175C20.0897 7.92175 20.7498 7.04175 20.7498 6.04175V3.25375C20.7498 1.92075 19.4698 0.96075 18.1898 1.33375L13.2297 2.78075C12.0567 3.12275 11.2498 4.19875 11.2498 5.42075V8.00075C11.2498 8.19975 11.3288 8.39075 11.4698 8.53075L12.6307 9.69175ZM22.5298 21.4697L12.5297 11.4698L2.52975 1.46975C2.23675 1.17675 1.76275 1.17675 1.46975 1.46975C1.17675 1.76275 1.17675 2.23675 1.46975 2.52975L11.2498 12.3098V16.2598C9.40975 14.9008 6.55075 14.9067 4.72075 16.2778C3.77175 16.9898 3.24975 17.9568 3.24975 18.9998C3.24975 20.0428 3.77175 21.0098 4.72075 21.7208C5.63975 22.4098 6.81975 22.7547 7.99975 22.7547C9.17975 22.7547 10.3587 22.4098 11.2778 21.7208C12.2258 21.0098 12.7467 20.0457 12.7487 19.0037V18.9998V13.8098L21.4688 22.5298C21.6147 22.6758 21.8068 22.7498 21.9988 22.7498C22.1908 22.7498 22.3827 22.6768 22.5287 22.5298C22.8217 22.2368 22.8217 21.7618 22.5287 21.4688L22.5298 21.4697Z" fill="#353566"/>
</svg>
