<svg width="24" height="24" viewBox="0 0 24 24" fill="none" xmlns="http://www.w3.org/2000/svg">
<path d="M9.79289 0.792893C9.40237 1.18342 9.40237 1.81658 9.79289 2.20711L10.6731 3.08727C5.77747 3.73633 2 7.92702 2 13C2 18.5228 6.47715 23 12 23C17.5228 23 22 18.5228 22 13C22 9.53192 20.2337 6.47677 17.5563 4.68454C17.0973 4.37733 16.4762 4.50034 16.169 4.95929C15.8618 5.41824 15.9848 6.03934 16.4437 6.34656C18.5902 7.78337 20 10.2273 20 13C20 17.4183 16.4183 21 12 21C7.58172 21 4 17.4183 4 13C4 9.11829 6.7646 5.88228 10.4322 5.15356L9.79289 5.79289C9.40237 6.18342 9.40237 6.81658 9.79289 7.20711C10.1834 7.59763 10.8166 7.59763 11.2071 7.20711L13.7071 4.70711C13.8946 4.51957 14 4.26522 14 4C14 3.73478 13.8946 3.48043 13.7071 3.29289L11.2071 0.792893C10.8166 0.402369 10.1834 0.402369 9.79289 0.792893Z" fill="#353566"/>
<path d="M10.75 9.75C10.3834 9.75 10.0705 10.0151 10.0102 10.3767L9.51019 13.3767C9.46105 13.6716 9.59172 13.9675 9.84276 14.1298C10.0924 14.2912 10.4136 14.2899 10.6617 14.1269L10.6732 14.1198C10.6859 14.1121 10.7087 14.0987 10.7405 14.0815C10.8043 14.0469 10.903 13.9978 11.0298 13.948C11.286 13.8472 11.6395 13.75 12.0428 13.75C12.5516 13.75 12.9999 14.1983 12.9999 14.75C12.9999 15.3023 12.5522 15.75 11.9999 15.75C11.5282 15.75 11.061 15.4548 10.9254 15.1739C10.7453 14.8009 10.2969 14.6445 9.92387 14.8246C9.55086 15.0047 9.39449 15.4531 9.5746 15.8261C10.0099 16.7277 11.0755 17.25 11.9999 17.25C13.3807 17.25 14.4999 16.1307 14.4999 14.75C14.4999 13.4257 13.4347 12.25 12.0428 12.25C11.7391 12.25 11.4572 12.2845 11.2042 12.3366L11.3853 11.25H13.5C13.9142 11.25 14.25 10.9142 14.25 10.5C14.25 10.0858 13.9142 9.75 13.5 9.75H10.75Z" fill="#353566"/>
</svg>
