<svg width="24" height="24" viewBox="0 0 24 24" fill="none" xmlns="http://www.w3.org/2000/svg">
<path d="M14.2071 2.20711C14.5976 1.81658 14.5976 1.18342 14.2071 0.792893C13.8166 0.402369 13.1834 0.402369 12.7929 0.792893L10.2929 3.29289C10.1054 3.48043 10 3.73478 10 4C10 4.26522 10.1054 4.51957 10.2929 4.70711L12.7929 7.20711C13.1834 7.59763 13.8166 7.59763 14.2071 7.20711C14.5976 6.81658 14.5976 6.18342 14.2071 5.79289L13.5678 5.15356C17.2354 5.88228 20 9.11829 20 13C20 17.4183 16.4183 21 12 21C7.58172 21 4 17.4183 4 13C4 11.721 4.2994 10.5148 4.83103 9.44503C5.07682 8.95045 4.87513 8.35027 4.38055 8.10449C3.88597 7.8587 3.28579 8.06039 3.04001 8.55497C2.37401 9.89511 2 11.4053 2 13C2 18.5228 6.47715 23 12 23C17.5228 23 22 18.5228 22 13C22 7.92702 18.2225 3.73633 13.3269 3.08727L14.2071 2.20711Z" fill="#353566"/>
<path d="M10.7071 0.792893C11.0976 1.18342 11.0976 1.81658 10.7071 2.20711L8.91421 4L10.7071 5.79289C11.0976 6.18342 11.0976 6.81658 10.7071 7.20711C10.3166 7.59763 9.68342 7.59763 9.29289 7.20711L6.79289 4.70711C6.60536 4.51957 6.5 4.26522 6.5 4C6.5 3.73478 6.60536 3.48043 6.79289 3.29289L9.29289 0.792893C9.68342 0.402369 10.3166 0.402369 10.7071 0.792893Z" fill="#353566"/>
<path d="M10.75 9.75C10.3834 9.75 10.0705 10.0151 10.0102 10.3767L9.51019 13.3767C9.46105 13.6716 9.59172 13.9675 9.84276 14.1298C10.0924 14.2912 10.4136 14.2899 10.6617 14.1269L10.6732 14.1198C10.6859 14.1121 10.7087 14.0987 10.7405 14.0815C10.8043 14.0469 10.903 13.9978 11.0298 13.948C11.286 13.8472 11.6395 13.75 12.0428 13.75C12.5516 13.75 12.9999 14.1983 12.9999 14.75C12.9999 15.3023 12.5522 15.75 11.9999 15.75C11.5282 15.75 11.061 15.4548 10.9254 15.1739C10.7453 14.8009 10.2969 14.6445 9.92387 14.8246C9.55086 15.0047 9.39449 15.4531 9.5746 15.8261C10.0099 16.7277 11.0755 17.25 11.9999 17.25C13.3807 17.25 14.4999 16.1307 14.4999 14.75C14.4999 13.4257 13.4347 12.25 12.0428 12.25C11.7391 12.25 11.4572 12.2845 11.2042 12.3366L11.3853 11.25H13.5C13.9142 11.25 14.25 10.9142 14.25 10.5C14.25 10.0858 13.9142 9.75 13.5 9.75H10.75Z" fill="#353566"/>
</svg>
