<svg width="24" height="24" viewBox="0 0 24 24" fill="none" xmlns="http://www.w3.org/2000/svg">
<path d="M14.2071 2.20711C14.5976 1.81658 14.5976 1.18342 14.2071 0.792893C13.8166 0.402369 13.1834 0.402369 12.7929 0.792893L10.2929 3.29289C10.1054 3.48043 10 3.73478 10 4C10 4.26522 10.1054 4.51957 10.2929 4.70711L12.7929 7.20711C13.1834 7.59763 13.8166 7.59763 14.2071 7.20711C14.5976 6.81658 14.5976 6.18342 14.2071 5.79289L13.5678 5.15356C17.2354 5.88228 20 9.11829 20 13C20 17.4183 16.4183 21 12 21C7.58172 21 4 17.4183 4 13C4 10.2273 5.40977 7.78337 7.55626 6.34656C8.01521 6.03934 8.13822 5.41824 7.83101 4.95929C7.5238 4.50034 6.90269 4.37733 6.44374 4.68454C3.76629 6.47677 2 9.53192 2 13C2 18.5228 6.47715 23 12 23C17.5228 23 22 18.5228 22 13C22 7.92703 18.2225 3.73633 13.3269 3.08727L14.2071 2.20711Z" fill="#353566"/>
<path d="M11.7289 9.97437C10.9193 9.4212 9.75 9.95376 9.75 10.9538V15.046C9.75 16.0461 10.9192 16.5786 11.7289 16.0255L14.7239 13.9793C15.4254 13.5001 15.4254 12.4997 14.7239 12.0205L11.7289 9.97437Z" fill="#353566"/>
</svg>
