<svg width="24" height="24" viewBox="0 0 24 24" fill="none" xmlns="http://www.w3.org/2000/svg">
<path opacity="0.4" fill-rule="evenodd" clip-rule="evenodd" d="M12 22C17.5228 22 22 17.5228 22 12C22 6.47715 17.5228 2 12 2C6.47715 2 2 6.47715 2 12C2 13.9374 2.55098 15.7462 3.5048 17.2781C3.5883 17.4122 3.60834 17.5771 3.55435 17.7255L2.73231 19.9862C2.44212 20.7842 3.21582 21.5579 4.01384 21.2677L6.27446 20.4457C6.42294 20.3917 6.58775 20.4117 6.72187 20.4952C8.25379 21.449 10.0626 22 12 22ZM11.4147 14.439C12.1958 15.0249 12.1958 15.9747 11.4147 16.5606C10.6335 17.1465 9.36701 17.1465 8.58586 16.5606C7.80471 15.9747 7.80471 15.0249 8.58586 14.439C9.36701 13.8531 10.6335 13.8531 11.4147 14.439ZM12.0005 8.70894V10.7492L15.461 9.73989C15.781 9.64654 16.001 9.35317 16.001 9.0198V7.62547C16.001 7.20875 15.601 6.90871 15.2009 7.0254L12.7206 7.74882C12.2939 7.87328 12.0005 8.26444 12.0005 8.70894Z" fill="#353566"/>
<path fill-rule="evenodd" clip-rule="evenodd" d="M15.601 10.2199L12.5005 11.1242V15.4998C12.5005 16.0642 12.2114 16.588 11.7147 16.9606C11.2232 17.3292 10.601 17.5 10.0003 17.5C9.39952 17.5 8.77729 17.3292 8.28586 16.9606C7.78908 16.588 7.5 16.0642 7.5 15.4998C7.5 14.9354 7.78909 14.4116 8.28586 14.039C8.77729 13.6705 9.39952 13.4996 10.0003 13.4996C10.5167 13.4996 11.0491 13.6259 11.5005 13.8955V8.70895C11.5005 8.04223 11.9405 7.45551 12.5806 7.26883L15.0609 6.5454C15.781 6.33539 16.501 6.87543 16.501 7.62548V9.0198C16.501 9.5754 16.1343 10.0643 15.601 10.2199ZM15.3409 7.5054C15.421 7.48206 15.501 7.5421 15.501 7.62548V9.0198C15.501 9.13096 15.4277 9.22877 15.321 9.2599L12.5005 10.0825V8.70895C12.5005 8.48667 12.6472 8.29107 12.8606 8.22883L15.3409 7.5054ZM11.1147 14.839C11.3988 15.0521 11.5003 15.2959 11.5005 15.4993C11.5005 15.7027 11.399 15.9473 11.1147 16.1606C10.8249 16.3779 10.4233 16.5 10.0003 16.5C9.57717 16.5 9.17558 16.3779 8.88586 16.1606C8.60149 15.9473 8.5 15.7033 8.5 15.4998C8.5 15.2964 8.60149 15.0523 8.88586 14.839C9.17558 14.6217 9.57717 14.4996 10.0003 14.4996C10.4233 14.4996 10.8249 14.6217 11.1147 14.839Z" fill="#353566"/>
<path fill-rule="evenodd" clip-rule="evenodd" d="M12 1.5C6.20101 1.5 1.5 6.20101 1.5 12C1.5 14.0335 2.07859 15.9335 3.08034 17.5424C3.08493 17.5498 3.08442 17.5544 3.08431 17.5551L2.26241 19.8153C1.82712 21.0123 2.98767 22.1729 4.18471 21.7376L6.44485 20.9157C6.44556 20.9156 6.45022 20.9151 6.45759 20.9197C8.06652 21.9214 9.96646 22.5 12 22.5C17.799 22.5 22.5 17.799 22.5 12C22.5 6.20101 17.799 1.5 12 1.5ZM2.5 12C2.5 6.75329 6.75329 2.5 12 2.5C17.2467 2.5 21.5 6.75329 21.5 12C21.5 17.2467 17.2467 21.5 12 21.5C10.1586 21.5 8.44107 20.9766 6.98614 20.0708C6.72746 19.9097 6.4027 19.867 6.10359 19.9758L3.84297 20.7978C3.44396 20.9429 3.05711 20.556 3.2022 20.157L4.02425 17.8964C4.13301 17.5973 4.09031 17.2725 3.92925 17.0139C3.02337 15.5589 2.5 13.8414 2.5 12Z" fill="#353566"/>
</svg>
