<svg width="24" height="24" viewBox="0 0 24 24" fill="none" xmlns="http://www.w3.org/2000/svg">
<path opacity="0.4" d="M12 22C17.5228 22 22 17.5228 22 12C22 6.47715 17.5228 2 12 2C6.47715 2 2 6.47715 2 12C2 13.9374 2.55098 15.7462 3.5048 17.2781C3.5883 17.4122 3.60834 17.5771 3.55435 17.7255L2.73231 19.9862C2.44212 20.7842 3.21582 21.5579 4.01384 21.2677L6.27446 20.4457C6.42294 20.3917 6.58775 20.4117 6.72187 20.4952C8.25379 21.449 10.0626 22 12 22Z" fill="#353566"/>
<path d="M9.34996 10.3571C9.54719 10.1638 9.55039 9.84726 9.35711 9.65004C9.16383 9.45281 8.84726 9.44961 8.65004 9.64289L6.65004 11.6029C6.55531 11.6957 6.50135 11.8224 6.50003 11.955C6.4987 12.0876 6.55011 12.2153 6.64296 12.31L8.64292 14.35C8.83624 14.5472 9.15281 14.5504 9.34999 14.357C9.54718 14.1637 9.55032 13.8472 9.357 13.65L7.70714 11.9671L9.34996 10.3571Z" fill="#353566"/>
<path d="M14.6427 9.65022C14.8359 9.4529 15.1525 9.44954 15.3498 9.64272L17.3498 11.6007C17.4446 11.6935 17.4986 11.8201 17.5 11.9527C17.5014 12.0854 17.45 12.2131 17.3572 12.3079L15.3572 14.3499C15.164 14.5471 14.8474 14.5504 14.6501 14.3572C14.4529 14.164 14.4496 13.8474 14.6428 13.6501L16.2929 11.9654L14.6502 10.3573C14.4529 10.1641 14.4495 9.84754 14.6427 9.65022Z" fill="#353566"/>
<path d="M13.4851 8.12126C13.552 7.85337 13.3892 7.5819 13.1213 7.51493C12.8534 7.44795 12.5819 7.61083 12.5149 7.87873L10.5149 15.8787C10.448 16.1466 10.6108 16.4181 10.8787 16.4851C11.1466 16.552 11.4181 16.3892 11.4851 16.1213L13.4851 8.12126Z" fill="#353566"/>
<path fill-rule="evenodd" clip-rule="evenodd" d="M12 1.5C6.20101 1.5 1.5 6.20101 1.5 12C1.5 14.0335 2.07859 15.9335 3.08034 17.5424C3.08493 17.5498 3.08442 17.5544 3.08431 17.5551L2.26241 19.8153C1.82712 21.0123 2.98767 22.1729 4.18471 21.7376L6.44485 20.9157C6.44556 20.9156 6.45022 20.9151 6.45759 20.9197C8.06652 21.9214 9.96646 22.5 12 22.5C17.799 22.5 22.5 17.799 22.5 12C22.5 6.20101 17.799 1.5 12 1.5ZM2.5 12C2.5 6.75329 6.75329 2.5 12 2.5C17.2467 2.5 21.5 6.75329 21.5 12C21.5 17.2467 17.2467 21.5 12 21.5C10.1586 21.5 8.44107 20.9766 6.98614 20.0708C6.72746 19.9097 6.4027 19.867 6.10359 19.9758L3.84297 20.7978C3.44396 20.9429 3.05711 20.556 3.2022 20.157L4.02425 17.8964C4.13301 17.5973 4.09031 17.2725 3.92925 17.0139C3.02337 15.5589 2.5 13.8414 2.5 12Z" fill="#353566"/>
</svg>
