<svg width="24" height="24" viewBox="0 0 24 24" fill="none" xmlns="http://www.w3.org/2000/svg">
<g clip-path="url(#clip0_9001_276105)">
<path opacity="0.4" d="M13.6405 20.6477C12.7994 20.8774 11.914 21 11 21C9.06255 21 7.25379 20.449 5.72187 19.4952C5.58775 19.4117 5.42294 19.3917 5.27446 19.4457L3.01384 20.2677C2.21582 20.5579 1.44212 19.7842 1.73231 18.9862L2.55435 16.7255C2.60834 16.5771 2.5883 16.4122 2.5048 16.2781C1.55098 14.7462 1 12.9374 1 11C1 5.47715 5.47715 1 11 1C16.5228 1 21 5.47715 21 11C21 11.2771 20.9887 11.5515 20.9666 11.8229L19.3006 12.3088C18.2339 12.6199 17.5005 13.5978 17.5005 14.7089V18.3432C17.3763 18.3655 17.2516 18.3866 17.127 18.4078C16.2667 18.5536 15.4048 18.6998 14.6859 19.239C14.2036 19.6007 13.8311 20.0861 13.6405 20.6477Z" fill="#353566"/>
<path d="M1.5 11C1.5 5.75329 5.75329 1.5 11 1.5C16.2467 1.5 20.5 5.75329 20.5 11C20.5 11.3286 20.4833 11.6533 20.4507 11.9734L21.4787 11.6735C21.4928 11.4508 21.5 11.2262 21.5 11C21.5 5.20101 16.799 0.5 11 0.5C5.20101 0.5 0.5 5.20101 0.5 11C0.5 13.0335 1.07859 14.9335 2.08034 16.5424C2.08493 16.5498 2.08442 16.5544 2.08431 16.5551L1.26241 18.8153C0.827123 20.0123 1.98767 21.1729 3.18471 20.7376L5.44485 19.9157C5.44556 19.9156 5.45022 19.9151 5.45759 19.9197C7.06652 20.9214 8.96646 21.5 11 21.5C11.8677 21.5 12.7108 21.3947 13.5173 21.1963C13.5657 20.7749 13.7135 20.3833 13.9362 20.0376C13.0115 20.3378 12.0247 20.5 11 20.5C9.15865 20.5 7.44107 19.9766 5.98614 19.0708C5.72746 18.9097 5.4027 18.867 5.10359 18.9758L2.84297 19.7978C2.44396 19.9429 2.05711 19.556 2.2022 19.157L3.02425 16.8964C3.13301 16.5973 3.09031 16.2725 2.92925 16.0139C2.02337 14.5589 1.5 12.8414 1.5 11Z" fill="#353566"/>
<path d="M16.8996 18.4466C16.9753 18.4335 17.0511 18.4206 17.127 18.4078C17.2516 18.3866 17.3763 18.3655 17.5005 18.3432V17.9278C17.3076 18.1089 17.1071 18.282 16.8996 18.4466Z" fill="#353566"/>
<path d="M10.25 11C10.25 10.5858 10.5858 10.25 11 10.25C11.4142 10.25 11.7501 10.5858 11.7501 11C11.7501 11.4142 11.4143 11.75 11.0001 11.75C10.5859 11.75 10.25 11.4142 10.25 11Z" fill="#353566"/>
<path d="M7 10.25C6.58579 10.25 6.25 10.5858 6.25 11C6.25 11.4142 6.58579 11.75 7 11.75C7.41421 11.75 7.7501 11.4142 7.7501 11C7.7501 10.5858 7.41421 10.25 7 10.25Z" fill="#353566"/>
<path d="M14.25 11C14.25 10.5858 14.5858 10.25 15 10.25C15.4142 10.25 15.7501 10.5858 15.7501 11C15.7501 11.4142 15.4143 11.75 15.0001 11.75C14.5859 11.75 14.25 11.4142 14.25 11Z" fill="#353566"/>
<path fill-rule="evenodd" clip-rule="evenodd" d="M22.601 16.2198L19.5005 17.1241V21.4998C19.5005 22.0642 19.2114 22.588 18.7146 22.9606C18.2232 23.3291 17.601 23.4999 17.0003 23.4999C16.3995 23.4999 15.7773 23.3291 15.2859 22.9606C14.7891 22.588 14.5 22.0642 14.5 21.4998C14.5 20.9353 14.7891 20.4115 15.2859 20.039C15.7773 19.6704 16.3995 19.4996 17.0003 19.4996C17.5167 19.4996 18.0491 19.6258 18.5005 19.8954V14.7089C18.5005 14.0422 18.9405 13.4555 19.5806 13.2688L22.0609 12.5453C22.781 12.3353 23.501 12.8754 23.501 13.6254V15.0197C23.501 15.5753 23.1343 16.0643 22.601 16.2198ZM22.3409 13.5053C22.421 13.482 22.501 13.542 22.501 13.6254V15.0197C22.501 15.1309 22.4277 15.2287 22.321 15.2598L19.5005 16.0825V14.7089C19.5005 14.4866 19.6472 14.291 19.8606 14.2288L22.3409 13.5053ZM18.1147 20.839C18.3988 21.052 18.5003 21.2959 18.5005 21.4992C18.5005 21.7027 18.399 21.9473 18.1147 22.1605C17.8249 22.3778 17.4233 22.4999 17.0003 22.4999C16.5772 22.4999 16.1756 22.3778 15.8859 22.1606C15.6015 21.9473 15.5 21.7032 15.5 21.4998C15.5 21.2963 15.6015 21.0522 15.8859 20.839C16.1756 20.6217 16.5772 20.4996 17.0003 20.4996C17.4233 20.4996 17.8249 20.6217 18.1147 20.839Z" fill="#353566"/>
</g>
<defs>
<clipPath id="clip0_9001_276105">
<rect width="24" height="24" fill="white"/>
</clipPath>
</defs>
</svg>
