<svg width="24" height="24" viewBox="0 0 24 24" fill="none" xmlns="http://www.w3.org/2000/svg">
<g clip-path="url(#clip0_9001_301989)">
<path opacity="0.4" fill-rule="evenodd" clip-rule="evenodd" d="M20.736 13.2924C20.9087 12.5563 21 11.7888 21 11C21 5.47715 16.5228 1 11 1C5.47715 1 1 5.47715 1 11C1 16.5228 5.47715 21 11 21C11.7888 21 12.5563 20.9087 13.2924 20.736C12.6828 19.8679 12.325 18.8101 12.325 17.6688C12.325 14.7175 14.7175 12.325 17.6688 12.325C18.8101 12.325 19.8679 12.6828 20.736 13.2924ZM12.2499 13.9165H9.21997L9.23518 10.9999H9.22147L9.21997 8.08325H11.6249C12.4303 8.08325 13.0833 8.73617 13.0833 9.5416C13.0833 10.3407 12.4406 10.9896 11.644 10.9998H12.2499C13.0553 10.9998 13.7083 11.6527 13.7083 12.4582C13.7083 13.2636 13.0553 13.9165 12.2499 13.9165Z" fill="#353566"/>
<path d="M11 1.50024C5.75329 1.50024 1.5 5.75354 1.5 11.0002C1.5 16.2469 5.75329 20.5002 11 20.5002C11.6894 20.5002 12.3616 20.4268 13.0093 20.2873C13.1866 20.6021 13.3948 20.8971 13.6299 21.1682C12.7894 21.3849 11.9082 21.5002 11 21.5002C5.20101 21.5002 0.5 16.7992 0.5 11.0002C0.5 5.20125 5.20101 0.500244 11 0.500244C16.799 0.500244 21.5 5.20125 21.5 11.0002C21.5 11.9084 21.3847 12.7897 21.1679 13.6302C20.8969 13.3951 20.6019 13.1868 20.2871 13.0096C20.4266 12.3619 20.5 11.6896 20.5 11.0002C20.5 5.75354 16.2467 1.50024 11 1.50024Z" fill="#353566"/>
<path fill-rule="evenodd" clip-rule="evenodd" d="M8.29167 7.58356C8.01552 7.58356 7.79167 7.80742 7.79167 8.08356C7.79167 8.3597 8.01552 8.58356 8.29167 8.58356H8.69684V13.4169H8.29169C8.01554 13.4169 7.79169 13.6408 7.79169 13.9169C7.79169 14.1931 8.01554 14.4169 8.29169 14.4169H9.25002V15.1669C9.25002 15.4431 9.47388 15.6669 9.75002 15.6669C10.0262 15.6669 10.25 15.4431 10.25 15.1669V14.4169H10.9167V15.1669C10.9167 15.4431 11.1405 15.6669 11.4167 15.6669C11.6928 15.6669 11.9167 15.4431 11.9167 15.1669V14.4169H12.25C13.3316 14.4169 14.2084 13.5402 14.2084 12.4586C14.2084 11.7131 13.7918 11.0649 13.1788 10.7341C13.4325 10.4039 13.5833 9.9905 13.5833 9.5419C13.5833 8.55946 12.8599 7.74599 11.9167 7.60513V6.83361C11.9167 6.55747 11.6928 6.33361 11.4167 6.33361C11.1405 6.33361 10.9167 6.55747 10.9167 6.83361V7.58356H10.25V6.83358C10.25 6.55744 10.0262 6.33358 9.75002 6.33358C9.47388 6.33358 9.25002 6.55744 9.25002 6.83358V7.58356H8.29167ZM12.25 13.4169C12.7793 13.4169 13.2084 12.9879 13.2084 12.4586C13.2084 11.9293 12.7793 11.5002 12.25 11.5002H9.69684V13.4169H12.25ZM11.4167 8.58358L11.4122 8.58356H9.75454L9.75002 8.58358L9.7455 8.58356H9.69684V10.5002H11.625C12.1543 10.5002 12.5833 10.0712 12.5833 9.5419C12.5833 9.01262 12.1543 8.58356 11.625 8.58356H11.4212L11.4167 8.58358Z" fill="#353566"/>
<path fill-rule="evenodd" clip-rule="evenodd" d="M13.3366 17.6182C13.3366 15.2537 15.2534 13.3369 17.6179 13.3369C19.9823 13.3369 21.8991 15.2537 21.8991 17.6182C21.8991 18.6202 21.5548 19.5419 20.9781 20.2713L23.3568 22.65C23.552 22.8452 23.552 23.1618 23.3567 23.3571C23.1615 23.5523 22.8449 23.5523 22.6496 23.357L20.271 20.9784C19.5416 21.5551 18.6199 21.8994 17.6179 21.8994C15.2534 21.8994 13.3366 19.9826 13.3366 17.6182ZM17.6179 14.3369C15.8057 14.3369 14.3366 15.806 14.3366 17.6182C14.3366 19.4303 15.8057 20.8994 17.6179 20.8994C19.43 20.8994 20.8991 19.4303 20.8991 17.6182C20.8991 15.806 19.43 14.3369 17.6179 14.3369Z" fill="#353566"/>
</g>
<defs>
<clipPath id="clip0_9001_301989">
<rect width="24" height="24" fill="white"/>
</clipPath>
</defs>
</svg>
