<svg width="24" height="24" viewBox="0 0 24 24" fill="none" xmlns="http://www.w3.org/2000/svg">
<path opacity="0.4" fill-rule="evenodd" clip-rule="evenodd" d="M22 9.2V14.8C22 17.3202 22 18.5804 21.5095 19.543C21.0781 20.3897 20.3897 21.0781 19.543 21.5095C18.5804 22 17.3202 22 14.8 22H9.2C6.67976 22 5.41965 22 4.45704 21.5095C3.61031 21.0781 2.9219 20.3897 2.49047 19.543C2 18.5804 2 17.3202 2 14.8V9.2C2 6.67976 2 5.41965 2.49047 4.45704C2.9219 3.61031 3.61031 2.9219 4.45704 2.49047C5.41965 2 6.67976 2 9.2 2H14.8C17.3202 2 18.5804 2 19.543 2.49047C20.3897 2.9219 21.0781 3.61031 21.5095 4.45704C22 5.41964 22 6.67978 22 9.2ZM12.8841 8.5H10.0042L10 12V15.5H13.63C14.5965 15.5 15.38 14.7165 15.38 13.75C15.38 12.7835 14.5965 12 13.63 12H12.8973C13.8577 11.9929 14.6342 11.2121 14.6342 10.25C14.6342 9.28351 13.8506 8.5 12.8841 8.5Z" fill="#353566"/>
<path fill-rule="evenodd" clip-rule="evenodd" d="M8.75 8C8.47386 8 8.25 8.22386 8.25 8.5C8.25 8.77614 8.47386 9 8.75 9H9.33618V15H8.75C8.47386 15 8.25 15.2239 8.25 15.5C8.25 15.7761 8.47386 16 8.75 16H10V17C10 17.2761 10.2239 17.5 10.5 17.5C10.7761 17.5 11 17.2761 11 17V16H12V17C12 17.2761 12.2239 17.5 12.5 17.5C12.7761 17.5 13 17.2761 13 17V16H13.5C14.7426 16 15.75 14.9926 15.75 13.75C15.75 12.8502 15.2219 12.0739 14.4587 11.7139C14.7962 11.3204 15 10.809 15 10.25C15 9.09187 14.125 8.1381 13 8.01373V7C13 6.72386 12.7761 6.5 12.5 6.5C12.2239 6.5 12 6.72386 12 7V8H11V7C11 6.72386 10.7761 6.5 10.5 6.5C10.2239 6.5 10 6.72386 10 7V8H8.75ZM13.5 15C14.1904 15 14.75 14.4404 14.75 13.75C14.75 13.0596 14.1904 12.5 13.5 12.5H12.7649L12.75 12.5H10.3362V15H13.5ZM10.3362 9H12.75C13.4404 9 14 9.55965 14 10.25C14 10.9367 13.4464 11.494 12.7611 11.5H10.3362V9Z" fill="#353566"/>
<path fill-rule="evenodd" clip-rule="evenodd" d="M15.6226 1.5H8.37737C7.27642 1.5 6.41948 1.5 5.73209 1.55616C5.03416 1.61318 4.4671 1.73058 3.95704 1.99047C3.11031 2.4219 2.4219 3.11031 1.99047 3.95704C1.73058 4.4671 1.61318 5.03416 1.55616 5.73209C1.5 6.41948 1.5 7.27641 1.5 8.37737V15.6226C1.5 16.7236 1.5 17.5805 1.55616 18.2679C1.61318 18.9658 1.73058 19.5329 1.99047 20.043C2.4219 20.8897 3.11031 21.5781 3.95704 22.0095C4.4671 22.2694 5.03416 22.3868 5.73209 22.4438C6.41947 22.5 7.27637 22.5 8.3773 22.5H15.6225C16.7235 22.5 17.5805 22.5 18.2679 22.4438C18.9658 22.3868 19.5329 22.2694 20.043 22.0095C20.8897 21.5781 21.5781 20.8897 22.0095 20.043C22.2694 19.5329 22.3868 18.9658 22.4438 18.2679C22.5 17.5806 22.5 16.7237 22.5 15.6228V8.37736C22.5 7.27648 22.5 6.41944 22.4438 5.73209C22.3868 5.03416 22.2694 4.4671 22.0095 3.95704C21.5781 3.11031 20.8897 2.4219 20.043 1.99047C19.5329 1.73058 18.9658 1.61318 18.2679 1.55616C17.5805 1.5 16.7236 1.5 15.6226 1.5ZM4.41103 2.88148C4.75662 2.70539 5.17744 2.60481 5.81352 2.55284C6.45545 2.50039 7.27164 2.5 8.4 2.5H15.6C16.7284 2.5 17.5446 2.50039 18.1865 2.55284C18.8226 2.60481 19.2434 2.70539 19.589 2.88148C20.2475 3.21703 20.783 3.75247 21.1185 4.41103C21.2946 4.75662 21.3952 5.17744 21.4472 5.81352C21.4996 6.45545 21.5 7.27164 21.5 8.4V15.6C21.5 16.7284 21.4996 17.5446 21.4472 18.1865C21.3952 18.8226 21.2946 19.2434 21.1185 19.589C20.783 20.2475 20.2475 20.783 19.589 21.1185C19.2434 21.2946 18.8226 21.3952 18.1865 21.4472C17.5446 21.4996 16.7284 21.5 15.6 21.5H8.4C7.27164 21.5 6.45545 21.4996 5.81352 21.4472C5.17744 21.3952 4.75662 21.2946 4.41103 21.1185C3.75247 20.783 3.21703 20.2475 2.88148 19.589C2.70539 19.2434 2.60481 18.8226 2.55284 18.1865C2.50039 17.5446 2.5 16.7284 2.5 15.6V8.4C2.5 7.27164 2.50039 6.45545 2.55284 5.81352C2.60481 5.17744 2.70539 4.75662 2.88148 4.41103C3.21703 3.75247 3.75247 3.21703 4.41103 2.88148Z" fill="#353566"/>
</svg>
