<svg width="24" height="24" viewBox="0 0 24 24" fill="none" xmlns="http://www.w3.org/2000/svg">
<g clip-path="url(#clip0_9001_302064)">
<path opacity="0.4" fill-rule="evenodd" clip-rule="evenodd" d="M21 11C21 12.5446 20.6498 14.0073 20.0245 15.3132C19.5298 15.2225 19.02 15.175 18.4994 15.175C16.2913 15.175 14.2792 16.0284 12.7801 17.4211C12.2035 17.9567 12.1704 18.8584 12.706 19.435C13.0772 19.8345 13.6298 19.9159 14.1553 19.9934C14.2697 20.0102 14.3829 20.0269 14.4926 20.0466C14.4926 20.1604 14.4944 20.2683 14.4988 20.3708C13.4098 20.7776 12.2309 21 11 21C5.47715 21 1 16.5228 1 11C1 5.47715 5.47715 1 11 1C16.5228 1 21 5.47715 21 11ZM14.3629 10.7495L11.393 5.82726C11.2024 5.50187 10.7985 5.50193 10.608 5.82736L7.63562 10.7494C7.43452 11.0824 7.44479 11.5018 7.66194 11.8246L10.6049 16.1988C10.7807 16.4891 11.1777 16.4892 11.393 16.1989L14.3364 11.8243C14.5535 11.5017 14.5638 11.0825 14.3629 10.7495Z" fill="#353566"/>
<path d="M11 1.5C5.75329 1.5 1.5 5.75329 1.5 11C1.5 16.2467 5.75329 20.5 11 20.5C12.0836 20.5 13.1248 20.3186 14.095 19.9844L14.1553 19.9934C14.2697 20.0102 14.3829 20.0269 14.4926 20.0466C14.4926 20.3682 14.5072 20.6419 14.5532 20.8836C13.4435 21.2826 12.2471 21.5 11 21.5C5.20101 21.5 0.5 16.799 0.5 11C0.5 5.20101 5.20101 0.5 11 0.5C16.799 0.5 21.5 5.20101 21.5 11C21.5 12.5795 21.1512 14.0776 20.5265 15.4214C20.1938 15.3389 19.8532 15.2763 19.5063 15.2348C20.1422 13.9598 20.5 12.5217 20.5 11C20.5 5.75329 16.2467 1.5 11 1.5Z" fill="#353566"/>
<path fill-rule="evenodd" clip-rule="evenodd" d="M14.791 10.4913L11.8225 5.57141C11.6455 5.2715 11.3411 5.08329 11.0004 5.08333C10.6598 5.08338 10.3555 5.2716 10.1785 5.57145L7.20757 10.491C6.90592 10.9905 6.92132 11.6196 7.24704 12.1037L10.1843 16.4695C10.5757 17.0983 11.4037 17.0238 11.7946 16.4968L11.8014 16.4876L14.7512 12.1035C15.0768 11.6196 15.0923 10.9907 14.791 10.4913ZM11.0005 6.14469L8.07289 10.9926L10.9991 12.6647L13.9254 10.9924L11.0005 6.14469ZM11.4952 13.5329L13.2644 12.522L10.9989 15.8889L8.7336 12.5219L10.5029 13.5329C10.8104 13.7086 11.1878 13.7086 11.4952 13.5329Z" fill="#353566"/>
<path d="M14.1769 18.7526C15.2901 17.7184 16.7804 17.0867 18.4193 17.0867C20.0588 17.0867 21.5496 17.7188 22.6629 18.7536C22.8651 18.9416 23.1815 18.9301 23.3695 18.7278C23.5575 18.5256 23.5459 18.2092 23.3437 18.0212C22.0527 16.8212 20.3212 16.0867 18.4193 16.0867C16.5181 16.0867 14.7871 16.8207 13.4963 18.02C13.294 18.2079 13.2823 18.5243 13.4703 18.7266C13.6583 18.9289 13.9746 18.9406 14.1769 18.7526Z" fill="#353566"/>
<path d="M18.4229 20.1423C17.6491 20.1423 16.9435 20.4687 16.4239 21.0078C16.2322 21.2067 15.9157 21.2125 15.7169 21.0209C15.518 20.8292 15.5122 20.5127 15.7038 20.3139C16.3984 19.5932 17.3586 19.1423 18.4229 19.1423C19.4872 19.1423 20.4475 19.5932 21.142 20.3139C21.3336 20.5127 21.3278 20.8292 21.129 21.0209C20.9301 21.2125 20.6136 21.2067 20.422 21.0078C19.9024 20.4687 19.1967 20.1423 18.4229 20.1423Z" fill="#353566"/>
<path d="M18.4199 21.6699C17.9367 21.6699 17.5449 22.0617 17.5449 22.5449C17.5449 23.0282 17.9367 23.4199 18.4199 23.4199C18.9032 23.4199 19.295 23.0282 19.295 22.5449C19.295 22.0617 18.9032 21.6699 18.4199 21.6699Z" fill="#353566"/>
</g>
<defs>
<clipPath id="clip0_9001_302064">
<rect width="24" height="24" fill="white"/>
</clipPath>
</defs>
</svg>
