<svg width="24" height="24" viewBox="0 0 24 24" fill="none" xmlns="http://www.w3.org/2000/svg">
<g clip-path="url(#clip0_9001_302174)">
<path opacity="0.4" fill-rule="evenodd" clip-rule="evenodd" d="M21 11C21 11.6524 20.9375 12.2902 20.8182 12.9077L20.2504 12.6239C19.4527 12.2255 18.4962 12.2253 17.7003 12.6236L14.3087 14.3194L14.3077 14.3199C13.5466 14.7025 13.275 15.3945 13.275 16.845C13.275 18.1311 13.5767 19.3792 14.1242 20.5023C13.1413 20.8253 12.091 21 11 21C5.47715 21 1 16.5228 1 11C1 5.47715 5.47715 1 11 1C16.5228 1 21 5.47715 21 11ZM14.3629 10.7495L11.393 5.82726C11.2024 5.50187 10.7985 5.50193 10.608 5.82736L7.63562 10.7494C7.43452 11.0824 7.44479 11.5018 7.66194 11.8246L10.6049 16.1988C10.7807 16.4891 11.1777 16.4892 11.393 16.1989L14.3364 11.8243C14.5535 11.5017 14.5638 11.0825 14.3629 10.7495Z" fill="#353566"/>
<path d="M11 1.50024C5.75329 1.50024 1.5 5.75354 1.5 11.0002C1.5 16.2469 5.75329 20.5002 11 20.5002C12.0177 20.5002 12.9981 20.3402 13.9172 20.0439C14.0467 20.3552 14.1946 20.6581 14.3598 20.9512C13.3049 21.3072 12.175 21.5002 11 21.5002C5.20101 21.5002 0.5 16.7992 0.5 11.0002C0.5 5.20125 5.20101 0.500244 11 0.500244C16.799 0.500244 21.5 5.20125 21.5 11.0002C21.5 11.7334 21.4249 12.4489 21.2819 13.1397L20.3528 12.6754C20.4495 12.1316 20.5 11.5718 20.5 11.0002C20.5 5.75354 16.2467 1.50024 11 1.50024Z" fill="#353566"/>
<path fill-rule="evenodd" clip-rule="evenodd" d="M14.791 10.4915L11.8225 5.57165C11.6455 5.27174 11.3411 5.08353 11.0004 5.08358C10.6598 5.08362 10.3555 5.27184 10.1785 5.57169L7.20757 10.4913C6.90592 10.9908 6.92132 11.6199 7.24704 12.104L10.1843 16.4698C10.5757 17.0985 11.4037 17.0241 11.7946 16.4971L11.8014 16.4879L14.7512 12.1038C15.0768 11.6198 15.0923 10.991 14.791 10.4915ZM11.0005 6.14494L8.07289 10.9928L10.9991 12.6649L13.9254 10.9927L11.0005 6.14494ZM11.4952 13.5331L13.2644 12.5222L10.9989 15.8892L8.7336 12.5221L10.5029 13.5331C10.8104 13.7088 11.1878 13.7088 11.4952 13.5331Z" fill="#353566"/>
<path fill-rule="evenodd" clip-rule="evenodd" d="M19.6972 13.5692C19.181 13.3112 18.5735 13.3112 18.0574 13.5694L14.7863 15.2054C14.4853 15.3559 14.2951 15.6635 14.2949 16C14.2943 17.296 14.3768 18.5406 14.9061 19.7502C15.6303 21.4055 16.9698 22.6895 18.6184 23.4088C18.7835 23.4809 18.9711 23.4809 19.1363 23.4088C20.7853 22.6893 22.1251 21.4037 22.8494 19.748C23.378 18.5396 23.461 17.2961 23.4616 16.0014C23.4617 15.6641 23.2713 15.3558 22.9696 15.205L19.6972 13.5692ZM18.4674 14.3892C18.7255 14.2602 19.0293 14.2601 19.2873 14.3891L22.5449 16.0175C22.5444 17.1794 22.4846 18.2948 22.0096 19.3806C21.3959 20.7834 20.2779 21.9043 18.8773 22.5217C17.4771 21.9051 16.3593 20.7849 15.7459 19.3827C15.2705 18.2962 15.211 17.1802 15.2116 16.0176L18.4674 14.3892Z" fill="#353566"/>
</g>
<defs>
<clipPath id="clip0_9001_302174">
<rect width="24" height="24" fill="white"/>
</clipPath>
</defs>
</svg>
