<svg width="24" height="24" viewBox="0 0 24 24" fill="none" xmlns="http://www.w3.org/2000/svg">
<path opacity="0.4" d="M22 15.6V8.4C22 6.15979 22 5.03969 21.564 4.18404C21.1805 3.43139 20.5686 2.81947 19.816 2.43597C18.9603 2 17.8402 2 15.6 2H8.4C6.15979 2 5.03969 2 4.18404 2.43597C3.43139 2.81947 2.81947 3.43139 2.43597 4.18404C2 5.03969 2 6.15979 2 8.4V15.6C2 17.8402 2 18.9603 2.43597 19.816C2.81947 20.5686 3.43139 21.1805 4.18404 21.564C5.03969 22 6.15979 22 8.4 22H15.6C17.8402 22 18.9603 22 19.816 21.564C20.5686 21.1805 21.1805 20.5686 21.564 19.816C22 18.9603 22 17.8402 22 15.6Z" fill="#353566"/>
<path d="M11.5 7.7749V6.99999C11.5 6.72384 11.7239 6.49999 12 6.49999C12.2761 6.49999 12.5 6.72385 12.5 6.99999V7.77078C12.8289 7.80099 13.1295 7.86707 13.4344 7.98801C13.8749 8.16271 14.294 8.44036 14.8019 8.82489C15.022 8.99159 15.0653 9.30519 14.8987 9.52534C14.732 9.74549 14.4183 9.78882 14.1982 9.62212C13.706 9.24944 13.3752 9.04032 13.0657 8.91756C12.7679 8.79944 12.4604 8.74997 12 8.74997C11.321 8.74997 10.8089 8.90996 10.4808 9.14756C10.1677 9.3743 10 9.68428 10 10.0817C10 10.573 10.2356 10.8638 10.6193 11.0786C11.0345 11.311 11.5791 11.4229 12.0822 11.5068C12.5791 11.5896 13.2845 11.7214 13.8693 12.0488C14.4856 12.3938 15 12.9788 15 13.9183C15 14.6495 14.6677 15.2553 14.1058 15.6623C13.6725 15.9761 13.1194 16.1615 12.5 16.225V17C12.5 17.2761 12.2761 17.5 12 17.5C11.7239 17.5 11.5 17.2761 11.5 17V16.2291C11.1711 16.1989 10.8706 16.1328 10.5657 16.0119C10.1252 15.8372 9.70601 15.5595 9.19819 15.175C8.97804 15.0083 8.93471 14.6947 9.10141 14.4745C9.26811 14.2544 9.58171 14.2111 9.80186 14.3778C10.294 14.7505 10.6249 14.9596 10.9344 15.0824C11.2322 15.2005 11.5396 15.25 12 15.25C12.679 15.25 13.1912 15.09 13.5193 14.8524C13.8323 14.6256 14 14.3157 14 13.9183C14 13.427 13.7644 13.1361 13.3808 12.9214C12.9656 12.6889 12.421 12.577 11.9178 12.4932C11.421 12.4104 10.7156 12.2785 10.1308 11.9512C9.51441 11.6061 9.00003 11.0212 9.00003 10.0817C9.00003 9.35048 9.33233 8.74462 9.89425 8.33765C10.3275 8.02384 10.8806 7.83841 11.5 7.7749Z" fill="#353566"/>
<path fill-rule="evenodd" clip-rule="evenodd" d="M15.6226 1.49997H8.37737C7.27642 1.49997 6.41948 1.49996 5.73209 1.55613C5.03416 1.61315 4.4671 1.73055 3.95704 1.99044C3.11031 2.42187 2.4219 3.11028 1.99047 3.95701C1.73058 4.46707 1.61318 5.03413 1.55616 5.73206C1.5 6.41945 1.5 7.27638 1.5 8.37734V15.6226C1.5 16.7236 1.5 17.5805 1.55616 18.2679C1.61318 18.9658 1.73058 19.5329 1.99047 20.0429C2.4219 20.8897 3.11031 21.5781 3.95704 22.0095C4.4671 22.2694 5.03416 22.3868 5.73209 22.4438C6.41949 22.5 7.27642 22.5 8.3774 22.5H15.6225C16.7235 22.5 17.5805 22.5 18.2679 22.4438C18.9658 22.3868 19.5329 22.2694 20.043 22.0095C20.8897 21.5781 21.5781 20.8897 22.0095 20.0429C22.2694 19.5329 22.3868 18.9658 22.4438 18.2679C22.5 17.5805 22.5 16.7236 22.5 15.6227V8.37733C22.5 7.27641 22.5 6.41943 22.4438 5.73206C22.3868 5.03413 22.2694 4.46707 22.0095 3.95701C21.5781 3.11028 20.8897 2.42187 20.043 1.99044C19.5329 1.73055 18.9658 1.61315 18.2679 1.55613C17.5805 1.49996 16.7236 1.49997 15.6226 1.49997ZM4.41103 2.88145C4.75662 2.70536 5.17744 2.60478 5.81352 2.55281C6.45545 2.50036 7.27164 2.49997 8.4 2.49997H15.6C16.7284 2.49997 17.5446 2.50036 18.1865 2.55281C18.8226 2.60478 19.2434 2.70536 19.589 2.88145C20.2475 3.217 20.783 3.75244 21.1185 4.411C21.2946 4.75659 21.3952 5.17741 21.4472 5.81349C21.4996 6.45542 21.5 7.27161 21.5 8.39997V15.6C21.5 16.7283 21.4996 17.5445 21.4472 18.1864C21.3952 18.8225 21.2946 19.2433 21.1185 19.5889C20.783 20.2475 20.2475 20.7829 19.589 21.1185C19.2434 21.2946 18.8226 21.3952 18.1865 21.4471C17.5446 21.4996 16.7284 21.5 15.6 21.5H8.4C7.27164 21.5 6.45545 21.4996 5.81352 21.4471C5.17744 21.3952 4.75662 21.2946 4.41103 21.1185C3.75247 20.7829 3.21703 20.2475 2.88148 19.5889C2.70539 19.2433 2.60481 18.8225 2.55284 18.1864C2.50039 17.5445 2.5 16.7283 2.5 15.6V8.39997C2.5 7.27161 2.50039 6.45542 2.55284 5.81349C2.60481 5.17741 2.70539 4.75659 2.88148 4.411C3.21703 3.75244 3.75247 3.217 4.41103 2.88145Z" fill="#353566"/>
</svg>
