<svg width="24" height="24" viewBox="0 0 24 24" fill="none" xmlns="http://www.w3.org/2000/svg">
<g clip-path="url(#clip0_9001_301849)">
<path opacity="0.4" d="M20.8182 12.9077C20.9375 12.2902 21 11.6524 21 11C21 5.47715 16.5228 1 11 1C5.47715 1 1 5.47715 1 11C1 16.5228 5.47715 21 11 21C12.091 21 13.1413 20.8253 14.1242 20.5023C13.5767 19.3792 13.275 18.1311 13.275 16.845C13.275 15.3945 13.5466 14.7025 14.3077 14.3199L14.3087 14.3194L17.7003 12.6236C18.4962 12.2253 19.4527 12.2255 20.2504 12.6239L20.8182 12.9077Z" fill="#353566"/>
<path d="M1.5 11C1.5 5.75329 5.75329 1.5 11 1.5C16.2467 1.5 20.5 5.75329 20.5 11C20.5 11.5716 20.4495 12.1313 20.3528 12.6751L21.2819 13.1394C21.4249 12.4487 21.5 11.7331 21.5 11C21.5 5.20101 16.799 0.5 11 0.5C5.20101 0.5 0.5 5.20101 0.5 11C0.5 16.799 5.20101 21.5 11 21.5C12.175 21.5 13.3049 21.307 14.3598 20.951C14.1946 20.6579 14.0467 20.3549 13.9172 20.0437C12.9981 20.34 12.0177 20.5 11 20.5C5.75329 20.5 1.5 16.2467 1.5 11Z" fill="#353566"/>
<path d="M12.0287 6.41926C11.2246 6.24012 10.3945 6.343 9.64641 6.70974C8.89997 7.07567 8.27522 7.68414 7.841 8.44651C7.6957 8.70161 7.57346 8.97082 7.47512 9.25H6.25C5.97386 9.25 5.75 9.47386 5.75 9.75C5.75 10.0261 5.97386 10.25 6.25 10.25H7.23144C7.19639 10.4972 7.17863 10.748 7.17863 11C7.17863 11.252 7.19639 11.5028 7.23144 11.75H6.25C5.97386 11.75 5.75 11.9739 5.75 12.25C5.75 12.5261 5.97386 12.75 6.25 12.75H7.47512C7.57346 13.0292 7.6957 13.2984 7.841 13.5535C8.27522 14.3159 8.89997 14.9243 9.64641 15.2903C10.3945 15.657 11.2246 15.7599 12.0287 15.5807C12.8316 15.4019 13.5593 14.9531 14.1259 14.3054C14.3077 14.0976 14.2866 13.7817 14.0787 13.5999C13.8709 13.418 13.555 13.4391 13.3732 13.647C12.9351 14.1477 12.3899 14.4757 11.8112 14.6047C11.2338 14.7333 10.6352 14.6613 10.0866 14.3924C9.53636 14.1226 9.05415 13.6629 8.70994 13.0586C8.65302 12.9586 8.60039 12.8556 8.55221 12.75H11.2495C11.5257 12.75 11.7495 12.5261 11.7495 12.25C11.7495 11.9739 11.5257 11.75 11.2495 11.75H8.24379C8.20075 11.505 8.17863 11.2537 8.17863 11C8.17863 10.7463 8.20075 10.495 8.24379 10.25H11.2495C11.5257 10.25 11.7495 10.0261 11.7495 9.75C11.7495 9.47386 11.5257 9.25 11.2495 9.25H8.55221C8.60039 9.14436 8.65302 9.04137 8.70994 8.94143C9.05415 8.33709 9.53636 7.87739 10.0866 7.60764C10.6352 7.3387 11.2338 7.26667 11.8112 7.39533C12.3899 7.52426 12.9351 7.85226 13.3732 8.35302C13.555 8.56086 13.8709 8.58195 14.0787 8.40013C14.2866 8.21831 14.3077 7.90243 14.1259 7.6946C13.5593 7.04695 12.8316 6.59813 12.0287 6.41926Z" fill="#353566"/>
<path fill-rule="evenodd" clip-rule="evenodd" d="M19.6972 13.5691C19.181 13.3111 18.5735 13.3111 18.0574 13.5692L14.7863 15.2052C14.4853 15.3558 14.2951 15.6634 14.2949 15.9999C14.2943 17.2959 14.3768 18.5405 14.9061 19.75C15.6303 21.4054 16.9698 22.6894 18.6184 23.4087C18.7835 23.4808 18.9711 23.4808 19.1363 23.4087C20.7853 22.6892 22.1251 21.4035 22.8494 19.7479C23.378 18.5395 23.461 17.296 23.4616 16.0012C23.4617 15.664 23.2713 15.3556 22.9696 15.2049L19.6972 13.5691ZM18.4674 14.3891C18.7255 14.26 19.0293 14.26 19.2873 14.389L22.5449 16.0174C22.5444 17.1792 22.4846 18.2946 22.0096 19.3805C21.3959 20.7833 20.2779 21.9042 18.8773 22.5215C17.4771 21.9049 16.3593 20.7847 15.7459 19.3826C15.2705 18.296 15.211 17.18 15.2116 16.0174L18.4674 14.3891Z" fill="#353566"/>
</g>
<defs>
<clipPath id="clip0_9001_301849">
<rect width="24" height="24" fill="white"/>
</clipPath>
</defs>
</svg>
