<svg width="24" height="24" viewBox="0 0 24 24" fill="none" xmlns="http://www.w3.org/2000/svg">
<path opacity="0.4" d="M14.0296 3.46716C13.8804 3.95171 13.8 4.46647 13.8 5C13.8 7.87188 16.1281 10.2 19 10.2C19.5335 10.2 20.0483 10.1196 20.5328 9.97039C20.8363 10.926 21 11.9439 21 13C21 18.5228 16.5228 23 11 23C5.47715 23 1 18.5228 1 13C1 7.47715 5.47715 3 11 3C12.0561 3 13.074 3.16372 14.0296 3.46716Z" fill="#353566"/>
<path d="M16.6432 6.64974C16.4479 6.84501 16.4479 7.16159 16.6432 7.35685C16.8384 7.55211 17.155 7.55211 17.3503 7.35685L19.4967 5.2104L21.6432 7.3569C21.8385 7.55216 22.1551 7.55216 22.3503 7.3569C22.5456 7.16163 22.5456 6.84505 22.3503 6.64979L20.2038 4.5033L22.3503 2.35685C22.5455 2.16159 22.5455 1.845 22.3503 1.64974C22.155 1.45448 21.8384 1.45448 21.6432 1.64974L19.4967 3.79619L17.3503 1.64979C17.1551 1.45453 16.8385 1.45453 16.6432 1.64979C16.4479 1.84505 16.4479 2.16163 16.6432 2.3569L18.7896 4.5033L16.6432 6.64974Z" fill="#353566"/>
<path d="M20.5 13C20.5 11.9866 20.3413 11.0103 20.0475 10.0945C20.3787 10.0267 20.6984 9.92748 21.0035 9.80002C21.3259 10.8089 21.5 11.8841 21.5 13C21.5 18.799 16.799 23.5 11 23.5C5.20101 23.5 0.5 18.799 0.5 13C0.5 7.20101 5.20101 2.5 11 2.5C12.1159 2.5 13.1911 2.67407 14.2 2.99653C14.0725 3.30156 13.9733 3.62132 13.9055 3.95255C12.9897 3.65868 12.0134 3.5 11 3.5C5.75329 3.5 1.5 7.7533 1.5 13C1.5 18.2467 5.75329 22.5 11 22.5C16.2467 22.5 20.5 18.2467 20.5 13Z" fill="#353566"/>
<path d="M12.0287 8.41926C11.2246 8.24012 10.3945 8.343 9.64641 8.70974C8.89997 9.07567 8.27522 9.68414 7.841 10.4465C7.6957 10.7016 7.57346 10.9708 7.47512 11.25H6.25C5.97386 11.25 5.75 11.4739 5.75 11.75C5.75 12.0261 5.97386 12.25 6.25 12.25H7.23144C7.19639 12.4972 7.17863 12.748 7.17863 13C7.17863 13.252 7.19639 13.5028 7.23144 13.75H6.25C5.97386 13.75 5.75 13.9739 5.75 14.25C5.75 14.5261 5.97386 14.75 6.25 14.75H7.47512C7.57346 15.0292 7.6957 15.2984 7.841 15.5535C8.27522 16.3159 8.89997 16.9243 9.64641 17.2903C10.3945 17.657 11.2246 17.7599 12.0287 17.5807C12.8316 17.4019 13.5593 16.9531 14.1259 16.3054C14.3077 16.0976 14.2866 15.7817 14.0787 15.5999C13.8709 15.418 13.555 15.4391 13.3732 15.647C12.9351 16.1477 12.3899 16.4757 11.8112 16.6047C11.2338 16.7333 10.6352 16.6613 10.0866 16.3924C9.53636 16.1226 9.05415 15.6629 8.70994 15.0586C8.65302 14.9586 8.60039 14.8556 8.55221 14.75H11.2495C11.5257 14.75 11.7495 14.5261 11.7495 14.25C11.7495 13.9739 11.5257 13.75 11.2495 13.75H8.24379C8.20075 13.505 8.17863 13.2537 8.17863 13C8.17863 12.7463 8.20075 12.495 8.24379 12.25L11.2495 12.25C11.5257 12.25 11.7495 12.0261 11.7495 11.75C11.7495 11.4739 11.5257 11.25 11.2495 11.25L8.55221 11.25C8.60039 11.1444 8.65302 11.0414 8.70994 10.9414C9.05415 10.3371 9.53636 9.87739 10.0866 9.60764C10.6352 9.3387 11.2338 9.26667 11.8112 9.39533C12.3899 9.52426 12.9351 9.85226 13.3732 10.353C13.555 10.5609 13.8709 10.582 14.0787 10.4001C14.2866 10.2183 14.3077 9.90244 14.1259 9.6946C13.5593 9.04695 12.8316 8.59813 12.0287 8.41926Z" fill="#353566"/>
</svg>
