<svg width="24" height="24" viewBox="0 0 24 24" fill="none" xmlns="http://www.w3.org/2000/svg">
<path opacity="0.4" d="M1 3C1.55228 3 2 3.44772 2 4V11H11V4C11 3.44772 11.4477 3 12 3C12.5523 3 13 3.44772 13 4V20C13 20.5523 12.5523 21 12 21C11.4477 21 11 20.5523 11 20V13H2V20C2 20.5523 1.55228 21 1 21C0.447715 21 0 20.5523 0 20V4C0 3.44772 0.447715 3 1 3Z" fill="#353566"/>
<path d="M16.5103 8.8356C16.5907 8.35341 17.0079 8 17.4967 8H22.5384C23.0907 8 23.5384 8.44772 23.5384 9C23.5384 9.55228 23.0907 10 22.5384 10H18.3439L17.8661 12.8663C18.4325 12.7058 19.1117 12.5833 19.867 12.5833C22.1979 12.5833 23.9967 14.5569 23.9967 16.7917C23.9967 19.1159 22.1125 21 19.7883 21C18.2067 21 16.4027 20.0992 15.6795 18.6015C15.4394 18.1042 15.6479 17.5063 16.1452 17.2662C16.6426 17.026 17.2404 17.2345 17.4806 17.7318C17.8042 18.402 18.8102 19 19.7883 19C21.008 19 21.9967 18.0113 21.9967 16.7917C21.9967 15.5871 21.0205 14.5833 19.867 14.5833C19.0685 14.5833 18.373 14.7755 17.8725 14.9723C17.624 15.07 17.4292 15.1667 17.3008 15.2362C17.2367 15.2709 17.1897 15.2985 17.1614 15.3157C17.1473 15.3242 17.1378 15.3302 17.1333 15.3331L17.1343 15.3324C17.1331 15.3332 17.1319 15.3339 17.1307 15.3347C17.1307 15.3347 17.1307 15.3347 17.1307 15.3347C16.7996 15.5532 16.3705 15.5553 16.0371 15.3398C15.7024 15.1233 15.5281 14.7288 15.5937 14.3356L16.5103 8.8356Z" fill="#353566"/>
<path d="M17.1307 15.3347C17.1313 15.3344 17.1323 15.3337 17.1333 15.3331L17.1307 15.3347Z" fill="#353566"/>
</svg>
