<svg width="24" height="24" viewBox="0 0 24 24" fill="none" xmlns="http://www.w3.org/2000/svg">
<g opacity="0.4">
<path d="M9.79287 5.79287C9.40234 6.1834 9.40234 6.81656 9.79287 7.20709C10.1834 7.59761 10.8166 7.59761 11.2071 7.20709L14.2571 4.1571C15.7995 2.61463 18.3004 2.61463 19.8429 4.1571C21.3853 5.69957 21.3853 8.20041 19.8429 9.74289L16.7929 12.7929C16.4023 13.1834 16.4023 13.8166 16.7929 14.2071C17.1834 14.5976 17.8166 14.5976 18.2071 14.2071L21.2571 11.1571C23.5806 8.83358 23.5806 5.06641 21.2571 2.74288C18.9335 0.419364 15.1664 0.419364 12.8429 2.74289L9.79287 5.79287Z" fill="#353566"/>
<path d="M14.2071 18.2071C14.5976 17.8166 14.5976 17.1834 14.2071 16.7929C13.8166 16.4023 13.1834 16.4023 12.7929 16.7929L9.74288 19.8429C8.20041 21.3853 5.69957 21.3853 4.1571 19.8429C2.61463 18.3004 2.61463 15.7995 4.1571 14.2571L7.20709 11.2071C7.59761 10.8166 7.59761 10.1834 7.20709 9.79287C6.81656 9.40235 6.1834 9.40235 5.79287 9.79287L2.74289 12.8429C0.419364 15.1664 0.419363 18.9336 2.74288 21.2571C5.06641 23.5806 8.83358 23.5806 11.1571 21.2571L14.2071 18.2071Z" fill="#353566"/>
</g>
<path d="M8 2C8 1.44772 7.55228 1 7 1C6.44772 1 6 1.44772 6 2V4.5C6 5.05228 6.44772 5.5 7 5.5C7.55228 5.5 8 5.05228 8 4.5V2Z" fill="#353566"/>
<path d="M2 6C1.44772 6 1 6.44772 1 7C1 7.55228 1.44772 8 2 8H4.5C5.05228 8 5.5 7.55228 5.5 7C5.5 6.44772 5.05228 6 4.5 6H2Z" fill="#353566"/>
<path d="M17 23C16.4477 23 16 22.5523 16 22V19.5C16 18.9477 16.4477 18.5 17 18.5C17.5523 18.5 18 18.9477 18 19.5V22C18 22.5523 17.5523 23 17 23Z" fill="#353566"/>
<path d="M19.5 18H22C22.5523 18 23 17.5523 23 17C23 16.4477 22.5523 16 22 16H19.5C18.9477 16 18.5 16.4477 18.5 17C18.5 17.5523 18.9477 18 19.5 18Z" fill="#353566"/>
</svg>
