<svg width="24" height="24" viewBox="0 0 24 24" fill="none" xmlns="http://www.w3.org/2000/svg">
<g opacity="0.4">
<path d="M2 19C1.44772 19 1 18.5523 1 18C1 17.4477 1.44772 17 2 17H22C22.5523 17 23 17.4477 23 18C23 18.5523 22.5523 19 22 19H2Z" fill="#353566"/>
<path d="M9 7C8.44772 7 8 6.55229 8 6C8 5.44771 8.44772 5 9 5H15C15.5523 5 16 5.44771 16 6C16 6.55229 15.5523 7 15 7H9Z" fill="#353566"/>
</g>
<path d="M4.5 12C4.5 12.5523 4.94772 13 5.5 13H18.5C19.0523 13 19.5 12.5523 19.5 12C19.5 11.4477 19.0523 11 18.5 11H5.5C4.94772 11 4.5 11.4477 4.5 12Z" fill="#353566"/>
</svg>
