<svg width="24" height="24" viewBox="0 0 24 24" fill="none" xmlns="http://www.w3.org/2000/svg">
<path opacity="0.4" d="M1.75 2C0.783502 2 0 2.7835 0 3.75V6C0 6.55228 0.447715 7 1 7C1.55228 7 2 6.55228 2 6V4H8V20H6C5.44772 20 5 20.4477 5 21C5 21.5523 5.44772 22 6 22H12C12.5523 22 13 21.5523 13 21C13 20.4477 12.5523 20 12 20H10V4H16V6C16 6.55228 16.4477 7 17 7C17.5523 7 18 6.55228 18 6V3.75C18 2.7835 17.2165 2 16.25 2H1.75Z" fill="#353566"/>
<path d="M13.5 10C12.6716 10 12 10.6716 12 11.5V13C12 13.5523 12.4477 14 13 14C13.5523 14 14 13.5523 14 13V12H17L17 20H16C15.4477 20 15 20.4477 15 21C15 21.5523 15.4477 22 16 22H20C20.5523 22 21 21.5523 21 21C21 20.4477 20.5523 20 20 20H19L19 12H22V13C22 13.5523 22.4477 14 23 14C23.5523 14 24 13.5523 24 13V11.5C24 10.6716 23.3284 10 22.5 10H13.5Z" fill="#353566"/>
</svg>
