<svg width="24" height="24" viewBox="0 0 24 24" fill="none" xmlns="http://www.w3.org/2000/svg">
<path fill-rule="evenodd" clip-rule="evenodd" d="M5.00012 6.5C5.00012 3.73858 7.2387 1.5 10.0001 1.5C12.7615 1.5 15.0001 3.73858 15.0001 6.5C15.0001 9.26142 12.7615 11.5 10.0001 11.5C7.2387 11.5 5.00012 9.26142 5.00012 6.5ZM10.0001 2.5C7.79098 2.5 6.00012 4.29086 6.00012 6.5C6.00012 8.70914 7.79098 10.5 10.0001 10.5C12.2093 10.5 14.0001 8.70914 14.0001 6.5C14.0001 4.29086 12.2093 2.5 10.0001 2.5Z" fill="#353566"/>
<path d="M10.0005 14.5C6.17707 14.5 2.95057 16.882 2.49504 20.0707C2.45599 20.3441 2.20272 20.534 1.92935 20.495C1.65599 20.4559 1.46604 20.2027 1.50509 19.9293C2.04956 16.118 5.82306 13.5 10.0005 13.5C11.5126 13.5 12.9601 13.8395 14.2212 14.449C14.4698 14.5691 14.574 14.8681 14.4538 15.1167C14.3337 15.3653 14.0347 15.4695 13.7861 15.3493C12.6626 14.8064 11.364 14.5 10.0005 14.5Z" fill="#353566"/>
<path d="M19.0001 12.7749V12C19.0001 11.7239 19.224 11.5 19.5001 11.5C19.7763 11.5 20.0001 11.7239 20.0001 12V12.7708C20.329 12.801 20.6296 12.8671 20.9345 12.988C21.375 13.1627 21.7942 13.4404 22.302 13.8249C22.5221 13.9916 22.5655 14.3052 22.3988 14.5254C22.2321 14.7455 21.9185 14.7889 21.6983 14.6222C21.2061 14.2495 20.8753 14.0404 20.5658 13.9176C20.268 13.7995 19.9606 13.75 19.5002 13.75C18.8212 13.75 18.309 13.91 17.9809 14.1476C17.6679 14.3743 17.5001 14.6843 17.5001 15.0817C17.5001 15.573 17.7358 15.8639 18.1194 16.0786C18.5346 16.311 19.0792 16.4229 19.5824 16.5068C20.0792 16.5896 20.7846 16.7214 21.3694 17.0488C21.9858 17.3938 22.5002 17.9788 22.5002 18.9183C22.5002 19.6495 22.1679 20.2554 21.6059 20.6623C21.1726 20.9761 20.6195 21.1616 20.0001 21.2251V22C20.0001 22.2761 19.7763 22.5 19.5001 22.5C19.224 22.5 19.0001 22.2761 19.0001 22V21.2292C18.6712 21.199 18.3707 21.1329 18.0658 21.0119C17.6253 20.8372 17.2061 20.5596 16.6983 20.175C16.4782 20.0083 16.4348 19.6947 16.6015 19.4746C16.7682 19.2544 17.0818 19.2111 17.302 19.3778C17.7942 19.7505 18.125 19.9596 18.4345 20.0824C18.7323 20.2005 19.0397 20.25 19.5002 20.25C20.1791 20.25 20.6913 20.09 21.0194 19.8524C21.3325 19.6257 21.5002 19.3157 21.5002 18.9183C21.5002 18.427 21.2645 18.1361 20.8809 17.9214C20.4657 17.689 19.9211 17.5771 19.418 17.4932C18.9211 17.4104 18.2157 17.2786 17.6309 16.9512C17.0145 16.6062 16.5001 16.0212 16.5001 15.0817C16.5001 14.3505 16.8324 13.7446 17.3944 13.3377C17.8277 13.0239 18.3808 12.8384 19.0001 12.7749Z" fill="#353566"/>
</svg>
