<svg width="24" height="24" viewBox="0 0 24 24" fill="none" xmlns="http://www.w3.org/2000/svg">
<path fill-rule="evenodd" clip-rule="evenodd" d="M5 6.5C5 3.73858 7.23858 1.5 10 1.5C12.7614 1.5 15 3.73858 15 6.5C15 9.26142 12.7614 11.5 10 11.5C7.23858 11.5 5 9.26142 5 6.5ZM10 2.5C7.79086 2.5 6 4.29086 6 6.5C6 8.70914 7.79086 10.5 10 10.5C12.2091 10.5 14 8.70914 14 6.5C14 4.29086 12.2091 2.5 10 2.5Z" fill="#353566"/>
<path d="M9.99888 14.5C6.71192 14.5 3.44357 16.1854 2.55444 19.3979C2.49603 19.609 2.4882 19.8723 2.51409 20.143C2.58255 20.8587 3.14846 21.4247 3.86249 21.4932C3.92772 21.4994 4.011 21.5 4.24811 21.5H10.7744C11.0505 21.5 11.2744 21.7239 11.2744 22C11.2744 22.2761 11.0505 22.5 10.7744 22.5L4.21999 22.5C4.02153 22.5 3.88634 22.5 3.76705 22.4886C2.57541 22.3744 1.63265 21.4301 1.51863 20.2382C1.48675 19.9049 1.48693 19.506 1.59067 19.1312C2.64161 15.3341 6.44163 13.5 9.99888 13.5C10.4067 13.5 10.8064 13.5207 11.1969 13.5616C11.4715 13.5903 11.6709 13.8363 11.6421 14.1109C11.6134 14.3855 11.3674 14.5849 11.0928 14.5561C10.7379 14.519 10.3728 14.5 9.99888 14.5Z" fill="#353566"/>
<path fill-rule="evenodd" clip-rule="evenodd" d="M18.0133 12.6365C17.6043 11.7878 16.3957 11.7878 15.9866 12.6365L14.9213 14.8464L12.4801 15.165C11.5385 15.2879 11.1633 16.45 11.8553 17.1003L13.6335 18.7713L13.1858 21.1646C13.0121 22.0935 13.9916 22.8097 14.824 22.3625L17 21.1934L19.1759 22.3625C20.0083 22.8097 20.9878 22.0935 20.8141 21.1646L20.3664 18.7713L22.1446 17.1003C22.8366 16.45 22.4614 15.2879 21.5198 15.165L19.0786 14.8464L18.0133 12.6365ZM16.8874 13.0707C16.9328 12.9764 17.0671 12.9764 17.1125 13.0707L18.1778 15.2807C18.3244 15.5848 18.6145 15.7944 18.9492 15.838L21.3905 16.1566C21.495 16.1702 21.5367 16.2993 21.4599 16.3716L19.6816 18.0426C19.4331 18.2761 19.3208 18.62 19.3834 18.9552L19.8311 21.3485C19.8504 21.4517 19.7416 21.5312 19.6492 21.4815L17.4732 20.3125C17.1777 20.1537 16.8222 20.1537 16.5267 20.3125L14.3508 21.4815C14.2583 21.5312 14.1495 21.4517 14.1688 21.3485L14.6165 18.9552C14.6792 18.62 14.5668 18.2761 14.3183 18.0426L12.5401 16.3716C12.4632 16.2993 12.5049 16.1702 12.6095 16.1566L15.0507 15.838C15.3854 15.7944 15.6755 15.5848 15.8221 15.2807L16.8874 13.0707Z" fill="#353566"/>
</svg>
