<svg width="24" height="24" viewBox="0 0 24 24" fill="none" xmlns="http://www.w3.org/2000/svg">
<path opacity="0.4" fill-rule="evenodd" clip-rule="evenodd" d="M12.4214 20.0028C12.3261 19.9159 12.2278 19.8284 12.1284 19.7399C11.1959 18.9098 10.1657 17.9927 10.6065 16.628C11.0484 15.2595 12.43 15.1178 13.6778 14.9898C13.8761 14.9695 14.071 14.9495 14.2582 14.925C14.3398 14.7557 14.4195 14.5778 14.5006 14.3968C15.0104 13.2587 15.5742 12 17.0021 12C17.2785 12 17.5225 12.0472 17.7401 12.1315C17.9055 11.4584 17.9999 10.7483 17.9999 10C17.9999 5.58176 14.4182 2 9.99998 2C5.58172 2 2 5.58175 2 10C2 13.9146 4.50014 16.69 6.37791 18.7745L6.49994 18.91C7.15249 19.6351 8.69874 21.0698 9.49969 21.804C9.78347 22.0641 10.2165 22.0641 10.5002 21.8039C10.9877 21.3571 11.7513 20.6508 12.4214 20.0028ZM12.4999 10C12.4999 11.3807 11.3806 12.5 9.99994 12.5C8.61923 12.5 7.49994 11.3807 7.49994 10C7.49994 8.61929 8.61923 7.5 9.99994 7.5C11.3806 7.5 12.4999 8.61929 12.4999 10Z" fill="#353566"/>
<path d="M2.5 10C2.5 5.85789 5.85787 2.5 9.99998 2.5C14.1421 2.5 17.4999 5.8579 17.4999 10C17.4999 10.7059 17.411 11.3766 17.2545 12.0138C17.6245 12.0554 17.9311 12.1885 18.1917 12.3831C18.3869 11.6347 18.4999 10.8406 18.4999 10C18.4999 5.30563 14.6944 1.5 9.99998 1.5C5.30558 1.5 1.5 5.30561 1.5 10C1.5 14.1095 4.1173 17.0133 5.97871 19.0784L6.12829 19.2445C6.8006 19.9915 8.36768 21.4446 9.16184 22.1725C9.63678 22.6079 10.3632 22.6079 10.8381 22.1725C11.2435 21.8009 11.8503 21.2404 12.4367 20.6812C12.4779 20.4916 12.5184 20.305 12.5522 20.1239C12.4173 19.9971 12.274 19.8696 12.1284 19.7399L12.048 19.6684C11.3934 20.3004 10.6481 20.9901 10.1624 21.4354C10.0698 21.5203 9.93016 21.5203 9.83754 21.4354C9.02981 20.695 7.50437 19.2786 6.87159 18.5755L6.78201 18.476C4.88396 16.368 2.5 13.7203 2.5 10Z" fill="#353566"/>
<path fill-rule="evenodd" clip-rule="evenodd" d="M9.99994 7C8.34308 7 6.99994 8.34315 6.99994 10C6.99994 11.6569 8.34308 13 9.99994 13C11.6568 13 12.9999 11.6569 12.9999 10C12.9999 8.34315 11.6568 7 9.99994 7ZM7.99994 10C7.99994 8.89543 8.89537 8 9.99994 8C11.1045 8 11.9999 8.89543 11.9999 10C11.9999 11.1046 11.1045 12 9.99994 12C8.89537 12 7.99994 11.1046 7.99994 10Z" fill="#353566"/>
<path fill-rule="evenodd" clip-rule="evenodd" d="M18.0132 13.6365C17.6041 12.7878 16.3956 12.7878 15.9865 13.6365L14.9212 15.8464L12.48 16.165C11.5384 16.2879 11.1632 17.45 11.8552 18.1003L13.6334 19.7713L13.1857 22.1646C13.012 23.0935 13.9915 23.8097 14.8239 23.3625L16.9998 22.1934L19.1758 23.3625C20.0082 23.8097 20.9877 23.0935 20.814 22.1646L20.3663 19.7713L22.1445 18.1003C22.8365 17.45 22.4613 16.2879 21.5197 16.165L19.0785 15.8464L18.0132 13.6365ZM16.8873 14.0707C16.9327 13.9764 17.067 13.9764 17.1124 14.0707L18.1777 16.2807C18.3243 16.5848 18.6144 16.7944 18.9491 16.838L21.3903 17.1566C21.4949 17.1702 21.5366 17.2993 21.4597 17.3716L19.6815 19.0426C19.433 19.2761 19.3206 19.62 19.3833 19.9552L19.831 22.3485C19.8503 22.4517 19.7415 22.5312 19.6491 22.4815L17.4731 21.3125C17.1776 21.1537 16.8221 21.1537 16.5266 21.3125L14.3506 22.4815C14.2582 22.5312 14.1494 22.4517 14.1687 22.3485L14.6164 19.9552C14.6791 19.62 14.5667 19.2761 14.3182 19.0426L12.54 17.3716C12.4631 17.2993 12.5048 17.1702 12.6094 17.1566L15.0506 16.838C15.3853 16.7944 15.6754 16.5848 15.822 16.2807L16.8873 14.0707Z" fill="#353566"/>
</svg>
