<svg width="24" height="24" viewBox="0 0 24 24" fill="none" xmlns="http://www.w3.org/2000/svg">
<g clip-path="url(#clip0_9001_311324)">
<path opacity="0.4" fill-rule="evenodd" clip-rule="evenodd" d="M12 23C18.0751 23 23 18.0751 23 12C23 5.92487 18.0751 1 12 1C5.92487 1 1 5.92487 1 12C1 18.0751 5.92487 23 12 23ZM14.9859 16.3622C15.4852 16.7546 16.1837 16.2388 15.9554 15.6462L12.5859 6.9003C12.3803 6.36671 11.6254 6.36652 11.4195 6.90001L8.04467 15.6466C7.81608 16.2391 8.51439 16.7553 9.01387 16.3631L11.693 14.2593C11.8744 14.1169 12.1296 14.117 12.3109 14.2595L14.9859 16.3622Z" fill="#353566"/>
<path d="M22.5 12C22.5 17.799 17.799 22.5 12 22.5C11.4405 22.5 10.8915 22.4563 10.3563 22.3722C10.0835 22.3293 9.82758 22.5157 9.78471 22.7885C9.74184 23.0613 9.92823 23.3172 10.201 23.36C10.7875 23.4522 11.3883 23.5 12 23.5C18.3513 23.5 23.5 18.3513 23.5 12C23.5 5.64873 18.3513 0.5 12 0.5C11.3883 0.5 10.7875 0.547802 10.201 0.639959C9.92823 0.682831 9.74184 0.938728 9.78471 1.21152C9.82758 1.48432 10.0835 1.67071 10.3563 1.62784C10.8915 1.54372 11.4405 1.5 12 1.5C17.799 1.5 22.5 6.20101 22.5 12Z" fill="#353566"/>
<path d="M5.93827 21.1941C5.77577 21.4174 5.46305 21.4666 5.23978 21.3041C4.26468 20.5945 3.4055 19.7353 2.69585 18.7602C2.53335 18.537 2.58263 18.2242 2.8059 18.0617C3.02917 17.8992 3.3419 17.9485 3.50439 18.1718C4.15261 19.0625 4.93753 19.8474 5.82821 20.4956C6.05149 20.6581 6.10076 20.9708 5.93827 21.1941Z" fill="#353566"/>
<path d="M1.21152 14.2153C0.938728 14.2582 0.682831 14.0718 0.63996 13.799C0.547801 13.2125 0.5 12.6117 0.5 12C0.5 11.3883 0.547801 10.7875 0.63996 10.201C0.682831 9.92823 0.938728 9.74184 1.21152 9.78471C1.48432 9.82758 1.67071 10.0835 1.62784 10.3563C1.54372 10.8915 1.5 11.4405 1.5 12C1.5 12.5595 1.54372 13.1085 1.62784 13.6437C1.67071 13.9165 1.48432 14.1724 1.21152 14.2153Z" fill="#353566"/>
<path d="M2.8059 5.93826C2.58263 5.77577 2.53336 5.46305 2.69585 5.23977C3.4055 4.26468 4.26468 3.4055 5.23978 2.69585C5.46305 2.53335 5.77577 2.58263 5.93827 2.8059C6.10076 3.02917 6.05149 3.3419 5.82822 3.50439C4.93753 4.15261 4.15262 4.93753 3.50439 5.82821C3.3419 6.05149 3.02917 6.10076 2.8059 5.93826Z" fill="#353566"/>
<path fill-rule="evenodd" clip-rule="evenodd" d="M13.0525 6.72054C12.6825 5.76007 11.3236 5.75974 10.9531 6.72002L7.57824 15.4666C7.16665 16.5334 8.42391 17.4621 9.32271 16.7563L12.0019 14.6526L14.677 16.7552C15.5754 17.4615 16.8331 16.5334 16.4221 15.4665L13.0525 6.72054ZM11.886 7.08C11.9272 6.9733 12.0783 6.97335 12.1194 7.08005L15.4889 15.826C15.5045 15.8665 15.5007 15.8913 15.4954 15.9074C15.4887 15.9279 15.4729 15.9519 15.4465 15.9713C15.4202 15.9908 15.3926 15.9989 15.371 15.9993C15.354 15.9996 15.3291 15.9959 15.2949 15.9691L12.6199 13.8664C12.2574 13.5814 11.747 13.5813 11.3843 13.8661L8.70512 15.9698C8.67093 15.9967 8.64606 16.0003 8.62906 16C8.60743 15.9996 8.57988 15.9915 8.55351 15.972C8.52713 15.9525 8.51137 15.9286 8.50465 15.9081C8.49938 15.8919 8.49557 15.8672 8.5112 15.8266L11.886 7.08Z" fill="#353566"/>
</g>
<defs>
<clipPath id="clip0_9001_311324">
<rect width="24" height="24" fill="white"/>
</clipPath>
</defs>
</svg>
