<svg width="24" height="24" viewBox="0 0 24 24" fill="none" xmlns="http://www.w3.org/2000/svg">
<g clip-path="url(#clip0_9001_311309)">
<path opacity="0.4" fill-rule="evenodd" clip-rule="evenodd" d="M12 23C18.0751 23 23 18.0751 23 12C23 5.92487 18.0751 1 12 1C5.92487 1 1 5.92487 1 12C1 18.0751 5.92487 23 12 23ZM14.9859 16.3622C15.4852 16.7546 16.1837 16.2388 15.9554 15.6462L12.5859 6.9003C12.3803 6.36671 11.6254 6.36652 11.4195 6.90001L8.04467 15.6466C7.81608 16.2391 8.51439 16.7553 9.01387 16.3631L11.693 14.2593C11.8744 14.1169 12.1296 14.117 12.3109 14.2595L14.9859 16.3622Z" fill="#353566"/>
<path fill-rule="evenodd" clip-rule="evenodd" d="M13.0525 6.72054C12.6824 5.76007 11.3235 5.75974 10.953 6.72002L7.57818 15.4666C7.16659 16.5334 8.42385 17.4621 9.32265 16.7563L12.0018 14.6526L14.6769 16.7552C15.5753 17.4615 16.8331 16.5334 16.422 15.4665L13.0525 6.72054ZM11.886 7.08C11.9271 6.9733 12.0782 6.97335 12.1193 7.08005L15.4889 15.826C15.5045 15.8665 15.5007 15.8913 15.4954 15.9074C15.4886 15.9279 15.4729 15.9519 15.4465 15.9713C15.4201 15.9908 15.3925 15.9989 15.3709 15.9993C15.3539 15.9996 15.3291 15.9959 15.2949 15.9691L12.6199 13.8664C12.2573 13.5814 11.7469 13.5813 11.3842 13.8661L8.70506 15.9698C8.67087 15.9967 8.646 16.0003 8.629 16C8.60737 15.9996 8.57982 15.9915 8.55345 15.972C8.52707 15.9525 8.51131 15.9286 8.50459 15.9081C8.49931 15.8919 8.4955 15.8672 8.51114 15.8266L11.886 7.08Z" fill="#353566"/>
<path fill-rule="evenodd" clip-rule="evenodd" d="M12 0.5C5.64873 0.5 0.5 5.64873 0.5 12C0.5 18.3513 5.64873 23.5 12 23.5C18.3513 23.5 23.5 18.3513 23.5 12C23.5 5.64873 18.3513 0.5 12 0.5ZM1.5 12C1.5 6.20101 6.20101 1.5 12 1.5C17.799 1.5 22.5 6.20101 22.5 12C22.5 17.799 17.799 22.5 12 22.5C6.20101 22.5 1.5 17.799 1.5 12Z" fill="#353566"/>
</g>
<defs>
<clipPath id="clip0_9001_311309">
<rect width="24" height="24" fill="white"/>
</clipPath>
</defs>
</svg>
