<svg width="24" height="24" viewBox="0 0 24 24" fill="none" xmlns="http://www.w3.org/2000/svg">
<g opacity="0.4">
<path d="M3.17157 3.17157C2.87657 3.46657 2.62772 3.80771 2.43597 4.18404C2 5.03969 2 6.15979 2 8.4V15.6C2 17.8402 2 18.9603 2.43597 19.816C2.81947 20.5686 3.43139 21.1805 4.18404 21.564C5.03969 22 6.15979 22 8.4 22H15.6C17.8402 22 18.9603 22 19.816 21.564C20.1923 21.3723 20.5334 21.1234 20.8284 20.8284L12.5 12.5H9V9L3.17157 3.17157Z" fill="#353566"/>
<path d="M14.6295 12.1295C15.449 11.6534 16 10.766 16 9.75C16 8.23122 14.7688 7 13.25 7H9.58333C9.55684 7 9.53075 7.00177 9.50519 7.00519L4.72603 2.22603C5.52355 2 6.60034 2 8.4 2H15.6C17.8402 2 18.9603 2 19.816 2.43597C20.5686 2.81947 21.1805 3.43139 21.564 4.18404C22 5.03969 22 6.15979 22 8.4V15.6C22 17.3997 22 18.4764 21.774 19.274L14.6295 12.1295Z" fill="#353566"/>
</g>
<path fill-rule="evenodd" clip-rule="evenodd" d="M2.62863 3.33574L1.64645 2.35355C1.45118 2.15829 1.45118 1.84171 1.64645 1.64645C1.84171 1.45118 2.15829 1.45118 2.35355 1.64645L22.3536 21.6464C22.5488 21.8417 22.5488 22.1583 22.3536 22.3536C22.1583 22.5488 21.8417 22.5488 21.6464 22.3536L20.6643 21.3714C20.3894 21.5961 20.0898 21.792 19.77 21.955C19.2064 22.2422 18.5776 22.3732 17.7963 22.437C17.0255 22.5 16.0636 22.5 14.8228 22.5H9.17733C7.93646 22.5 6.97446 22.5 6.20369 22.437C5.42239 22.3732 4.79358 22.2422 4.23005 21.955C3.28924 21.4757 2.52433 20.7108 2.04497 19.77C1.75783 19.2064 1.6268 18.5776 1.56297 17.7963C1.5 17.0255 1.5 16.0636 1.5 14.8228V9.17723C1.5 7.93637 1.5 6.97445 1.56297 6.20369C1.6268 5.42239 1.75783 4.79358 2.04497 4.23005C2.20795 3.91017 2.40394 3.61063 2.62863 3.33574ZM19.9527 20.6598C19.7547 20.8135 19.5416 20.949 19.316 21.064C18.9169 21.2674 18.4343 21.3816 17.7149 21.4404C16.9896 21.4996 16.0684 21.5 14.8 21.5H9.2C7.93163 21.5 7.01043 21.4996 6.28512 21.4404C5.56566 21.3816 5.08311 21.2674 4.68404 21.064C3.93139 20.6805 3.31947 20.0686 2.93597 19.316C2.73264 18.9169 2.61843 18.4343 2.55965 17.7149C2.50039 16.9896 2.5 16.0684 2.5 14.8V9.2C2.5 7.93163 2.50039 7.01043 2.55965 6.28512C2.61843 5.56566 2.73264 5.08311 2.93597 4.68404C3.05097 4.45835 3.1865 4.24532 3.3402 4.04731L8.5 9.20711V17C8.5 17.2761 8.72386 17.5 9 17.5C9.27614 17.5 9.5 17.2761 9.5 17V13H12.2929L19.9527 20.6598ZM11.2929 12L9.5 10.2071V12H11.2929Z" fill="#353566"/>
<path d="M9.10906 6.60906L10 7.5H13.25C14.4926 7.5 15.5 8.50736 15.5 9.75C15.5 10.6292 14.9958 11.3905 14.2607 11.7607L14.9933 12.4933C15.8991 11.9165 16.5 10.9034 16.5 9.75C16.5 7.95507 15.0449 6.5 13.25 6.5H9.58333C9.41324 6.5 9.2523 6.5392 9.10906 6.60906Z" fill="#353566"/>
<path d="M21.4404 17.7149C21.4057 18.139 21.3518 18.4808 21.2717 18.7717L22.0555 19.5555C22.2739 19.0469 22.3812 18.48 22.437 17.7963C22.5 17.0256 22.5 16.0637 22.5 14.8229V9.17722C22.5 7.9364 22.5 6.97443 22.437 6.20369C22.3732 5.42239 22.2422 4.79358 21.955 4.23005C21.4757 3.28924 20.7108 2.52433 19.77 2.04497C19.2064 1.75783 18.5776 1.6268 17.7963 1.56297C17.0255 1.5 16.0636 1.5 14.8228 1.5H9.17723C7.93637 1.5 6.97445 1.5 6.20369 1.56297C5.52 1.61883 4.95308 1.72614 4.44448 1.94449L5.22829 2.7283C5.51919 2.64822 5.86099 2.5943 6.28512 2.55965C7.01043 2.50039 7.93163 2.5 9.2 2.5H14.8C16.0684 2.5 16.9896 2.50039 17.7149 2.55965C18.4343 2.61843 18.9169 2.73264 19.316 2.93597C20.0686 3.31947 20.6805 3.93139 21.064 4.68404C21.2674 5.08311 21.3816 5.56566 21.4404 6.28512C21.4996 7.01043 21.5 7.93163 21.5 9.2V14.8C21.5 16.0684 21.4996 16.9896 21.4404 17.7149Z" fill="#353566"/>
</svg>
