<svg width="24" height="24" viewBox="0 0 24 24" fill="none" xmlns="http://www.w3.org/2000/svg">
<g opacity="0.4">
<path d="M2.96967 2.46967C3.11032 2.32902 3.30109 2.25 3.5 2.25H20.5C20.9142 2.25 21.25 2.58579 21.25 3V6.25H22C22.4142 6.25 22.75 6.58579 22.75 7C22.75 7.41421 22.4142 7.75 22 7.75H2C1.58579 7.75 1.25 7.41421 1.25 7C1.25 6.58579 1.58579 6.25 2 6.25H2.75V3C2.75 2.80109 2.82902 2.61032 2.96967 2.46967Z" fill="#353566"/>
<path d="M9.25 14.75H2.75V20.25H2C1.58579 20.25 1.25 20.5858 1.25 21C1.25 21.4142 1.58579 21.75 2 21.75H10C10.4142 21.75 10.75 21.4142 10.75 21C10.75 20.5858 10.4142 20.25 10 20.25H9.25V14.75Z" fill="#353566"/>
<path d="M21.25 14.75H14.75V20.25H14C13.5858 20.25 13.25 20.5858 13.25 21C13.25 21.4142 13.5858 21.75 14 21.75H22C22.4142 21.75 22.75 21.4142 22.75 21C22.75 20.5858 22.4142 20.25 22 20.25H21.25V14.75Z" fill="#353566"/>
</g>
<path d="M2.75 12.25V8.75H21.25V12.25H22C22.4142 12.25 22.75 12.5858 22.75 13C22.75 13.4142 22.4142 13.75 22 13.75H14.75V13.5C14.75 11.9812 13.5188 10.75 12 10.75C10.4812 10.75 9.25 11.9812 9.25 13.5V13.75H2C1.58579 13.75 1.25 13.4142 1.25 13C1.25 12.5858 1.58579 12.25 2 12.25H2.75Z" fill="#353566"/>
</svg>
