<svg width="24" height="24" viewBox="0 0 24 24" fill="none" xmlns="http://www.w3.org/2000/svg">
<g clip-path="url(#clip0_9001_269491)">
<g opacity="0.4">
<path d="M12.7837 0.783784C11.7007 0.0727227 10.299 0.0727232 9.21603 0.783785L1.15323 6.07791C-0.50693 7.168 0.264921 9.74973 2.25097 9.74973H19.7487C21.7348 9.74973 22.5066 7.168 20.8465 6.07791L12.7837 0.783784Z" fill="#353566"/>
<path d="M1.75 18C1.75 17.5858 2.08579 17.25 2.5 17.25H10.2227C10.6369 17.25 10.9727 17.5858 10.9727 18C10.9727 18.4142 10.6369 18.75 10.2227 18.75H2.5C2.08579 18.75 1.75 18.4142 1.75 18Z" fill="#353566"/>
<path d="M0.25 21C0.25 20.5858 0.585786 20.25 1 20.25H12.262C12.6762 20.25 13.012 20.5858 13.012 21C13.012 21.4142 12.6762 21.75 12.262 21.75H1C0.585786 21.75 0.25 21.4142 0.25 21Z" fill="#353566"/>
</g>
<path d="M11 4.25C11.4142 4.25 11.75 4.58579 11.75 5V6.5C11.75 6.91421 11.4142 7.25 11 7.25C10.5858 7.25 10.25 6.91421 10.25 6.5V5C10.25 4.58579 10.5858 4.25 11 4.25Z" fill="#353566"/>
<path d="M4.25 11.25C4.66421 11.25 5 11.5858 5 12V15C5 15.4142 4.66421 15.75 4.25 15.75C3.83579 15.75 3.5 15.4142 3.5 15V12C3.5 11.5858 3.83579 11.25 4.25 11.25Z" fill="#353566"/>
<path d="M8.75 11.25C9.16421 11.25 9.5 11.5858 9.5 12V15C9.5 15.4142 9.16421 15.75 8.75 15.75C8.33579 15.75 8 15.4142 8 15V12C8 11.5858 8.33579 11.25 8.75 11.25Z" fill="#353566"/>
<path d="M15.0498 13.5C14.4225 13.5 13.8431 13.8358 13.5312 14.3801L12.7338 15.7722C12.7261 15.7857 12.7186 15.7992 12.7112 15.8128C12.6314 15.9611 12.751 16.125 12.9194 16.125H23.081C23.2494 16.125 23.369 15.9611 23.2892 15.8128C23.2854 15.8058 23.2816 15.7988 23.2777 15.7919C23.2741 15.7853 23.2704 15.7787 23.2666 15.7722L22.4692 14.3801C22.1573 13.8358 21.578 13.5 20.9506 13.5H15.0498Z" fill="#353566"/>
<path d="M12.8652 17.7086C12.7539 17.5639 12.8716 17.375 13.054 17.375H22.9464C23.1289 17.375 23.2465 17.5639 23.1352 17.7086L23.1271 17.7191L18.9852 23.0196C18.4847 23.6601 17.5157 23.6601 17.0152 23.0196L12.8733 17.7191L12.8652 17.7086Z" fill="#353566"/>
</g>
<defs>
<clipPath id="clip0_9001_269491">
<rect width="24" height="24" fill="white"/>
</clipPath>
</defs>
</svg>
