<svg width="24" height="24" viewBox="0 0 24 24" fill="none" xmlns="http://www.w3.org/2000/svg">
<path opacity="0.4" d="M16.75 4.49978C16.75 2.28474 14.5827 0.718682 12.4796 1.4141L2.47965 4.72085C1.14876 5.16094 0.25 6.40476 0.25 7.80652V19.5001C0.25 21.295 1.70508 22.7501 3.5 22.7501H12.4163C12.7135 22.7501 12.9827 22.5746 13.1026 22.3027C13.2225 22.0307 13.1705 21.7136 12.9701 21.4942C12.3462 20.8113 11.8208 19.9777 11.4387 19.0018C11.1871 18.3591 11.1871 17.6407 11.4387 16.9981C12.3735 14.6105 14.1685 13.065 16.202 12.4962C16.526 12.4056 16.75 12.1104 16.75 11.7739V4.49978Z" fill="#353566"/>
<path d="M6.5 10.25C6.91421 10.25 7.25 9.91421 7.25 9.5C7.25 9.08579 6.91421 8.75 6.5 8.75H5.5C5.08579 8.75 4.75 9.08579 4.75 9.5C4.75 9.91421 5.08579 10.25 5.5 10.25H6.5Z" fill="#353566"/>
<path d="M12.25 9.5C12.25 9.91421 11.9142 10.25 11.5 10.25H10.5C10.0858 10.25 9.75 9.91421 9.75 9.5C9.75 9.08579 10.0858 8.75 10.5 8.75H11.5C11.9142 8.75 12.25 9.08579 12.25 9.5Z" fill="#353566"/>
<path d="M10.5 11.75C10.0858 11.75 9.75 12.0858 9.75 12.5C9.75 12.9142 10.0858 13.25 10.5 13.25H11.5C11.9142 13.25 12.25 12.9142 12.25 12.5C12.25 12.0858 11.9142 11.75 11.5 11.75H10.5Z" fill="#353566"/>
<path d="M6.75 15.75C6.05964 15.75 5.5 16.3096 5.5 17V22C5.5 22.4142 5.83579 22.75 6.25 22.75H10.75C11.1642 22.75 11.5 22.4142 11.5 22V19.2999C11.5 19.2056 11.4822 19.1122 11.4476 19.0245L11.4387 19.0019C11.1953 18.38 11.1873 17.6872 11.4151 17.0606C11.4801 16.882 11.4748 16.6855 11.4004 16.5106C11.2107 16.0649 10.768 15.75 10.25 15.75H6.75Z" fill="#353566"/>
<path d="M7.25 12.5C7.25 12.9142 6.91421 13.25 6.5 13.25H5.5C5.08579 13.25 4.75 12.9142 4.75 12.5C4.75 12.0858 5.08579 11.75 5.5 11.75H6.5C6.91421 11.75 7.25 12.0858 7.25 12.5Z" fill="#353566"/>
<path d="M18 16.5C17.17 16.5 16.5 17.17 16.5 18C16.5 18.83 17.17 19.5 18 19.5C18.83 19.5 19.5 18.83 19.5 18C19.5 17.17 18.83 16.5 18 16.5Z" fill="#353566"/>
<path fill-rule="evenodd" clip-rule="evenodd" d="M23.3973 17.4539C22.3768 14.8473 20.2068 13.5 18 13.5C15.7932 13.5 13.6232 14.8473 12.6027 17.4539C12.4658 17.8036 12.4658 18.1964 12.6027 18.5461C13.6232 21.1527 15.7932 22.5 18 22.5C20.2068 22.5 22.3768 21.1527 23.3973 18.5461C23.5342 18.1964 23.5342 17.8036 23.3973 17.4539ZM15.5 18C15.5 16.6177 16.6177 15.5 18 15.5C19.3823 15.5 20.5 16.6177 20.5 18C20.5 19.3823 19.3823 20.5 18 20.5C16.6177 20.5 15.5 19.3823 15.5 18Z" fill="#353566"/>
</svg>
