<svg width="24" height="24" viewBox="0 0 24 24" fill="none" xmlns="http://www.w3.org/2000/svg">
<path opacity="0.4" d="M16.75 4.50002C16.75 2.28498 14.5827 0.718926 12.4796 1.41435L2.47965 4.72109C1.14876 5.16118 0.25 6.405 0.25 7.80677V19.5003C0.25 21.2952 1.70508 22.7503 3.5 22.7503H13.4994C13.822 22.7503 14.1085 22.544 14.2108 22.2381C14.313 21.9321 14.2082 21.595 13.9504 21.401C13.8809 21.3487 13.8139 21.2902 13.7503 21.2253L11.7504 19.1853C11.4254 18.8538 11.2454 18.4068 11.2501 17.9427C11.2547 17.4785 11.4436 17.0352 11.7751 16.7103L13.7751 14.7503C14.2835 14.2521 15.0201 14.1253 15.6458 14.3729L15.724 14.4039C15.955 14.4953 16.2162 14.4664 16.4216 14.3268C16.627 14.1871 16.75 13.9549 16.75 13.7065V4.50002Z" fill="#353566"/>
<path d="M6.5 10.25C6.91421 10.25 7.25 9.91421 7.25 9.5C7.25 9.08579 6.91421 8.75 6.5 8.75H5.5C5.08579 8.75 4.75 9.08579 4.75 9.5C4.75 9.91421 5.08579 10.25 5.5 10.25H6.5Z" fill="#353566"/>
<path d="M12.25 9.5C12.25 9.91421 11.9142 10.25 11.5 10.25H10.5C10.0858 10.25 9.75 9.91421 9.75 9.5C9.75 9.08579 10.0858 8.75 10.5 8.75H11.5C11.9142 8.75 12.25 9.08579 12.25 9.5Z" fill="#353566"/>
<path d="M10.5 11.75C10.0858 11.75 9.75 12.0858 9.75 12.5C9.75 12.9142 10.0858 13.25 10.5 13.25H11.5C11.9142 13.25 12.25 12.9142 12.25 12.5C12.25 12.0858 11.9142 11.75 11.5 11.75H10.5Z" fill="#353566"/>
<path d="M6.75 15.75C6.05964 15.75 5.5 16.3096 5.5 17V22C5.5 22.4142 5.83579 22.75 6.25 22.75H10.75C11.1642 22.75 11.5 22.4142 11.5 22V19.0498C11.5 18.9365 11.4744 18.8248 11.425 18.7229C11.3083 18.4819 11.2474 18.2152 11.2501 17.9425C11.2526 17.688 11.3106 17.4397 11.4171 17.2137C11.4874 17.0647 11.5066 16.8966 11.4718 16.7355C11.3501 16.1724 10.8503 15.75 10.25 15.75H6.75Z" fill="#353566"/>
<path d="M7.25 12.5C7.25 12.9142 6.91421 13.25 6.5 13.25H5.5C5.08579 13.25 4.75 12.9142 4.75 12.5C4.75 12.0858 5.08579 11.75 5.5 11.75H6.5C6.91421 11.75 7.25 12.0858 7.25 12.5Z" fill="#353566"/>
<path d="M15.5249 16.5357C15.8208 16.2457 15.8256 15.7709 15.5357 15.4751C15.2457 15.1792 14.7709 15.1744 14.4751 15.4643L12.4751 17.4243C12.333 17.5636 12.252 17.7536 12.25 17.9525C12.248 18.1514 12.3252 18.343 12.4644 18.485L14.4644 20.525C14.7544 20.8208 15.2292 20.8255 15.525 20.5356C15.8208 20.2456 15.8255 19.7707 15.5355 19.475L14.0607 17.9706L15.5249 16.5357Z" fill="#353566"/>
<path d="M20.4641 15.4753C20.7538 15.1793 21.2287 15.1743 21.5247 15.4641L23.5247 17.4221C23.6668 17.5612 23.7479 17.7512 23.75 17.9501C23.752 18.1491 23.675 18.3407 23.5358 18.4828L21.5358 20.5248C21.246 20.8207 20.7711 20.8256 20.4752 20.5358C20.1793 20.246 20.1744 19.7711 20.4642 19.4752L21.9393 17.9691L20.4753 16.5359C20.1793 16.2462 20.1743 15.7713 20.4641 15.4753Z" fill="#353566"/>
<path d="M19.7276 14.1818C19.8281 13.78 19.5837 13.3728 19.1819 13.2723C18.7801 13.1719 18.3728 13.4162 18.2724 13.818L16.2724 21.818C16.1719 22.2199 16.4162 22.6271 16.8181 22.7275C17.2199 22.828 17.6271 22.5837 17.7276 22.1818L19.7276 14.1818Z" fill="#353566"/>
</svg>
