<svg width="24" height="24" viewBox="0 0 24 24" fill="none" xmlns="http://www.w3.org/2000/svg">
<path opacity="0.4" d="M17.75 4.49978C17.75 2.28474 15.5827 0.718682 13.4796 1.4141L3.47965 4.72085C2.14876 5.16094 1.25 6.40476 1.25 7.80652V19.5001C1.25 21.295 2.70508 22.7501 4.5 22.7501H17C17.4142 22.7501 17.75 22.4143 17.75 22.0001V4.49978Z" fill="#353566"/>
<path d="M17.7499 22.0004C17.7499 22.4072 17.4259 22.7385 17.0219 22.75H19.5C21.2949 22.75 22.75 21.295 22.75 19.5V9.2156C22.75 7.6238 21.1423 6.53535 19.6643 7.12653L19.2214 7.30369C18.8368 7.45753 18.6498 7.894 18.8036 8.27859C18.9574 8.66318 19.3939 8.85024 19.7785 8.69641L20.2214 8.51924C20.7141 8.32218 21.25 8.685 21.25 9.2156V19.5C21.25 20.4665 20.4665 21.25 19.5 21.25H17.7499V22.0004Z" fill="#353566"/>
<path d="M7.5 10.25C7.91421 10.25 8.25 9.91421 8.25 9.5C8.25 9.08579 7.91421 8.75 7.5 8.75H6.5C6.08579 8.75 5.75 9.08579 5.75 9.5C5.75 9.91421 6.08579 10.25 6.5 10.25H7.5Z" fill="#353566"/>
<path d="M13.25 9.5C13.25 9.91421 12.9142 10.25 12.5 10.25H11.5C11.0858 10.25 10.75 9.91421 10.75 9.5C10.75 9.08579 11.0858 8.75 11.5 8.75H12.5C12.9142 8.75 13.25 9.08579 13.25 9.5Z" fill="#353566"/>
<path d="M13.25 12.5C13.25 12.9142 12.9142 13.25 12.5 13.25H11.5C11.0858 13.25 10.75 12.9142 10.75 12.5C10.75 12.0858 11.0858 11.75 11.5 11.75H12.5C12.9142 11.75 13.25 12.0858 13.25 12.5Z" fill="#353566"/>
<path d="M8.25 12.5C8.25 12.9142 7.91421 13.25 7.5 13.25H6.5C6.08579 13.25 5.75 12.9142 5.75 12.5C5.75 12.0858 6.08579 11.75 6.5 11.75H7.5C7.91421 11.75 8.25 12.0858 8.25 12.5Z" fill="#353566"/>
<path d="M6.50006 17C6.50006 16.3096 7.05971 15.75 7.75006 15.75H11.2501C11.9404 15.75 12.5001 16.3096 12.5001 17V22.75H6.50006V17Z" fill="#353566"/>
</svg>
