<svg width="24" height="24" viewBox="0 0 24 24" fill="none" xmlns="http://www.w3.org/2000/svg">
<path opacity="0.4" d="M11.0314 1.25H5.96858C5.29521 1.24999 4.74449 1.24998 4.29693 1.28655C3.83367 1.3244 3.41527 1.40514 3.02453 1.60423C2.413 1.91582 1.91582 2.413 1.60423 3.02453C1.40514 3.41527 1.3244 3.83367 1.28655 4.29693C1.24998 4.74449 1.24999 5.2952 1.25 5.96857V22C1.25 22.4142 1.58579 22.75 2 22.75H15C15.4142 22.75 15.75 22.4142 15.75 22V5.96856C15.75 5.29521 15.75 4.74448 15.7134 4.29693C15.6756 3.83367 15.5949 3.41527 15.3958 3.02453C15.0842 2.413 14.587 1.91582 13.9755 1.60423C13.5847 1.40514 13.1663 1.3244 12.7031 1.28655C12.2555 1.24998 11.7048 1.24999 11.0314 1.25Z" fill="#353566"/>
<path d="M11 7.25C11.4142 7.25 11.75 6.91421 11.75 6.5C11.75 6.08579 11.4142 5.75 11 5.75H10C9.58579 5.75 9.25 6.08579 9.25 6.5C9.25 6.91421 9.58579 7.25 10 7.25H11Z" fill="#353566"/>
<path d="M11.75 9.5C11.75 9.91421 11.4142 10.25 11 10.25H10C9.58579 10.25 9.25 9.91421 9.25 9.5C9.25 9.08579 9.58579 8.75 10 8.75H11C11.4142 8.75 11.75 9.08579 11.75 9.5Z" fill="#353566"/>
<path d="M11.75 12.5C11.75 12.9142 11.4142 13.25 11 13.25H10C9.58579 13.25 9.25 12.9142 9.25 12.5C9.25 12.0858 9.58579 11.75 10 11.75H11C11.4142 11.75 11.75 12.0858 11.75 12.5Z" fill="#353566"/>
<path d="M7.75 9.5C7.75 9.91421 7.41421 10.25 7 10.25H6C5.58579 10.25 5.25 9.91421 5.25 9.5C5.25 9.08579 5.58579 8.75 6 8.75H7C7.41421 8.75 7.75 9.08579 7.75 9.5Z" fill="#353566"/>
<path d="M7 7.25C7.41421 7.25 7.75 6.91421 7.75 6.5C7.75 6.08579 7.41421 5.75 7 5.75H6C5.58579 5.75 5.25 6.08579 5.25 6.5C5.25 6.91421 5.58579 7.25 6 7.25H7Z" fill="#353566"/>
<path d="M7.75 12.5C7.75 12.9142 7.41421 13.25 7 13.25H6C5.58579 13.25 5.25 12.9142 5.25 12.5C5.25 12.0858 5.58579 11.75 6 11.75H7C7.41421 11.75 7.75 12.0858 7.75 12.5Z" fill="#353566"/>
<path d="M11.0001 16.5V21.25H19.25V17.3855C18.2357 17.067 17.5 16.1194 17.5 15V11C17.5 9.61929 18.6193 8.5 20 8.5C21.3807 8.5 22.5 9.61929 22.5 11V15C22.5 16.1194 21.7643 17.067 20.75 17.3855V21.25H23C23.4142 21.25 23.75 21.5858 23.75 22C23.75 22.4142 23.4142 22.75 23 22.75H1C0.585787 22.75 0.25 22.4142 0.25 22C0.25 21.5858 0.585787 21.25 1 21.25H6V16.5C6 15.9477 6.44771 15.5 7 15.5H10.0001C10.5524 15.5 11.0001 15.9477 11.0001 16.5Z" fill="#353566"/>
</svg>
