<svg width="24" height="24" viewBox="0 0 24 24" fill="none" xmlns="http://www.w3.org/2000/svg">
<path opacity="0.4" d="M16.75 4.49978C16.75 2.28474 14.5827 0.718682 12.4796 1.4141L2.47965 4.72085C1.14876 5.16094 0.25 6.40476 0.25 7.80652V19.5001C0.25 21.295 1.70508 22.7501 3.5 22.7501H13.2059C13.4844 22.7501 13.7399 22.5958 13.8696 22.3493C13.9993 22.1028 13.9817 21.8048 13.824 21.5753C13.4683 21.0578 13.2514 20.4308 13.2514 19.6644C13.2514 18.8436 13.251 17.9977 13.2507 17.1519C13.2503 16.3058 13.25 15.4595 13.25 14.6384C13.25 12.9296 14.4912 11.8074 16.2437 11.2051C16.5466 11.101 16.75 10.8161 16.75 10.4958V4.49978Z" fill="#353566"/>
<path d="M6.5 10.25C6.91421 10.25 7.25 9.91421 7.25 9.5C7.25 9.08579 6.91421 8.75 6.5 8.75H5.5C5.08579 8.75 4.75 9.08579 4.75 9.5C4.75 9.91421 5.08579 10.25 5.5 10.25H6.5Z" fill="#353566"/>
<path d="M12.25 9.5C12.25 9.91421 11.9142 10.25 11.5 10.25H10.5C10.0858 10.25 9.75 9.91421 9.75 9.5C9.75 9.08579 10.0858 8.75 10.5 8.75H11.5C11.9142 8.75 12.25 9.08579 12.25 9.5Z" fill="#353566"/>
<path d="M10.5 11.75C10.0858 11.75 9.75 12.0858 9.75 12.5C9.75 12.9142 10.0858 13.25 10.5 13.25H11.5C11.9142 13.25 12.25 12.9142 12.25 12.5C12.25 12.0858 11.9142 11.75 11.5 11.75H10.5Z" fill="#353566"/>
<path d="M6.75 15.75C6.05964 15.75 5.5 16.3096 5.5 17V22C5.5 22.4142 5.83579 22.75 6.25 22.75H10.75C11.1642 22.75 11.5 22.4142 11.5 22V17C11.5 16.3096 10.9404 15.75 10.25 15.75H6.75Z" fill="#353566"/>
<path d="M7.25 12.5C7.25 12.9142 6.91421 13.25 6.5 13.25H5.5C5.08579 13.25 4.75 12.9142 4.75 12.5C4.75 12.0858 5.08579 11.75 5.5 11.75H6.5C6.91421 11.75 7.25 12.0858 7.25 12.5Z" fill="#353566"/>
<path fill-rule="evenodd" clip-rule="evenodd" d="M22.1086 12.5239C22.8995 12.9205 23.625 13.5836 23.625 14.5008C23.625 15.8461 23.6252 17.1914 23.6253 18.5367C23.6254 18.9507 23.6255 19.3646 23.6255 19.7786C23.6255 20.7773 22.958 21.5043 22.1223 21.9482C21.2838 22.3936 20.1758 22.6204 19.001 22.6204C17.8261 22.6204 16.7182 22.3936 15.8797 21.9482C15.044 21.5043 14.3765 20.7773 14.3765 19.7786C14.3765 18.8989 14.3761 18.0193 14.3757 17.1397C14.3754 16.2601 14.375 15.3805 14.375 14.5008C14.375 13.5836 15.1005 12.9205 15.8914 12.5239C16.7193 12.1088 17.8192 11.8701 19 11.8701C20.1808 11.8701 21.2807 12.1088 22.1086 12.5239ZM19.0005 20.0902C20.151 20.0902 21.3866 19.8956 22.3755 19.271L22.3755 19.7786C22.3755 20.138 22.1477 20.5193 21.5359 20.8443C20.9268 21.1678 20.035 21.3704 19.001 21.3704C17.967 21.3704 17.0751 21.1678 16.4661 20.8443C15.8543 20.5193 15.6265 20.138 15.6265 19.7786V19.2716C16.6152 19.8957 17.8502 20.0902 19.0005 20.0902ZM16.4656 18.3141C15.8706 17.9981 15.6388 17.6287 15.6265 17.278C15.6265 17.1205 15.6263 16.9629 15.6262 16.8054C15.6261 16.6478 15.6259 16.4902 15.6259 16.3327C16.6267 16.9283 17.8506 17.1316 19 17.1316C20.1497 17.1316 21.374 16.9282 22.3749 16.3322L22.375 17.2484C22.375 17.6078 22.1472 17.9892 21.5354 18.3141C20.9263 18.6376 20.0345 18.8402 19.0005 18.8402C17.9664 18.8402 17.0746 18.6376 16.4656 18.3141Z" fill="#353566"/>
</svg>
