<svg width="24" height="24" viewBox="0 0 24 24" fill="none" xmlns="http://www.w3.org/2000/svg">
<path d="M22.75 4C22.75 4.41421 22.4142 4.75 22 4.75H8C7.58579 4.75 7.25 4.41421 7.25 4C7.25 3.58579 7.58579 3.25 8 3.25H22C22.4142 3.25 22.75 3.58579 22.75 4Z" fill="#353566"/>
<path d="M1.25 12C1.25 12.4142 1.58579 12.75 2 12.75H22C22.4142 12.75 22.75 12.4142 22.75 12C22.75 11.5858 22.4142 11.25 22 11.25H2C1.58579 11.25 1.25 11.5858 1.25 12Z" fill="#353566"/>
<path d="M14 20.75C13.5858 20.75 13.25 20.4142 13.25 20C13.25 19.5858 13.5858 19.25 14 19.25H22C22.4142 19.25 22.75 19.5858 22.75 20C22.75 20.4142 22.4142 20.75 22 20.75H14Z" fill="#353566"/>
</svg>
