<svg width="24" height="24" viewBox="0 0 24 24" fill="none" xmlns="http://www.w3.org/2000/svg">
<path opacity="0.4" d="M13.7071 16.7929C13.3166 16.4024 12.6834 16.4024 12.2929 16.7929C11.9024 17.1834 11.9024 17.8166 12.2929 18.2071L16.7929 22.7071C17.1834 23.0976 17.8166 23.0976 18.2071 22.7071L22.7071 18.2071C23.0976 17.8166 23.0976 17.1834 22.7071 16.7929C22.3166 16.4024 21.6834 16.4024 21.2929 16.7929L18.5 19.5858V2C18.5 1.44772 18.0523 1 17.5 1C16.9477 1 16.5 1.44772 16.5 2V19.5858L13.7071 16.7929Z" fill="#353566"/>
<path d="M2.70711 7.20711C2.31658 7.59763 1.68342 7.59763 1.29289 7.20711C0.902369 6.81658 0.902369 6.18342 1.29289 5.79289L5.79289 1.29289C6.18342 0.902369 6.81658 0.902369 7.20711 1.29289L11.7071 5.79289C12.0976 6.18342 12.0976 6.81658 11.7071 7.20711C11.3166 7.59763 10.6834 7.59763 10.2929 7.20711L7.5 4.41421V22C7.5 22.5523 7.05228 23 6.5 23C5.94772 23 5.5 22.5523 5.5 22V4.41421L2.70711 7.20711Z" fill="#353566"/>
</svg>
