<svg width="24" height="24" viewBox="0 0 24 24" fill="none" xmlns="http://www.w3.org/2000/svg">
<path opacity="0.4" d="M22.275 14.0385C22.806 14.1902 23.1135 14.7437 22.9618 15.2747L22.288 17.6329C22.2686 17.7009 22.2495 17.7679 22.2306 17.8339C21.8119 19.3023 21.5231 20.3148 20.9144 21.0894C20.379 21.7707 19.6757 22.3012 18.8736 22.6288C17.9616 23.0013 16.9087 23.0008 15.3818 23.0001C15.313 23 15.2434 23 15.1727 23H8.82779C8.75713 23 8.68747 23 8.61877 23.0001C7.09183 23.0008 6.03896 23.0013 5.12694 22.6288C4.32477 22.3012 3.62151 21.7707 3.08612 21.0894C2.4774 20.3148 2.18864 19.3023 1.76987 17.8339C1.75102 17.7679 1.73192 17.7009 1.71251 17.6329L1.03873 15.2747C0.887008 14.7437 1.1945 14.1902 1.72554 14.0385C2.25657 13.8868 2.81006 14.1943 2.96178 14.7253L3.63556 17.0835C4.13555 18.8335 4.32423 19.4281 4.65865 19.8537C4.97989 20.2624 5.40185 20.5807 5.88315 20.7773C6.3842 20.9819 7.0078 21 8.82779 21H15.1727C16.9927 21 17.6163 20.9819 18.1174 20.7773C18.5987 20.5807 19.0206 20.2624 19.3419 19.8537C19.6763 19.4281 19.865 18.8335 20.365 17.0835L21.0387 14.7253C21.1905 14.1943 21.7439 13.8868 22.275 14.0385Z" fill="#353566"/>
<path d="M11 12.5858L11 2C11 1.44771 11.4477 1 12 1C12.5523 1 13 1.44771 13 2L13 12.5858L16.2929 9.29289C16.6834 8.90237 17.3166 8.90237 17.7071 9.29289C18.0976 9.68342 18.0976 10.3166 17.7071 10.7071L12.7071 15.7071C12.5196 15.8946 12.2652 16 12 16C11.7348 16 11.4804 15.8946 11.2929 15.7071L6.29289 10.7071C5.90237 10.3166 5.90237 9.68342 6.29289 9.29289C6.68342 8.90237 7.31658 8.90237 7.70711 9.29289L11 12.5858Z" fill="#353566"/>
</svg>
