<svg width="24" height="24" viewBox="0 0 24 24" fill="none" xmlns="http://www.w3.org/2000/svg">
<g clip-path="url(#clip0_9001_267773)">
<path opacity="0.4" d="M12 2.00024C6.47715 2.00024 2 6.4774 2 12.0002C2 16.7467 5.30778 20.7229 9.74493 21.7452C10.3062 21.8745 11 21.4102 11 20.5002V9.50024C11 8.94796 11.4477 8.50024 12 8.50024C12.5523 8.50024 13 8.94796 13 9.50024V20.5002C13 22.3518 11.4256 24.1847 9.29593 23.6941C3.97111 22.4674 0 17.6988 0 12.0002C0 5.37283 5.37258 0.000244141 12 0.000244141C18.6274 0.000244141 24 5.37283 24 12.0002C24 16.665 21.3382 20.7063 17.4552 22.6912C16.9634 22.9426 16.361 22.7478 16.1096 22.256C15.8582 21.7642 16.0531 21.1618 16.5448 20.9104C19.7852 19.254 22 15.8849 22 12.0002C22 6.4774 17.5228 2.00024 12 2.00024Z" fill="#353566"/>
<path d="M16.7071 13.7071C17.0976 13.3166 17.0976 12.6834 16.7071 12.2929L12.7071 8.29289C12.5196 8.10536 12.2652 8 12 8C11.7348 8 11.4804 8.10536 11.2929 8.29289L7.29289 12.2929C6.90237 12.6834 6.90237 13.3166 7.29289 13.7071C7.68342 14.0976 8.31658 14.0976 8.70711 13.7071L12 10.4142L15.2929 13.7071C15.6834 14.0976 16.3166 14.0976 16.7071 13.7071Z" fill="#353566"/>
</g>
<defs>
<clipPath id="clip0_9001_267773">
<rect width="24" height="24" fill="white"/>
</clipPath>
</defs>
</svg>
