<svg width="24" height="24" viewBox="0 0 24 24" fill="none" xmlns="http://www.w3.org/2000/svg">
<path opacity="0.4" d="M13.1312 2.72179L18.2685 7.85905C19.1252 8.71581 19.5536 9.14418 19.5826 9.51197C19.6077 9.83108 19.4785 10.1429 19.2351 10.3508C18.9546 10.5904 18.3487 10.5904 17.1371 10.5904H15.8999C15.7598 10.5904 15.6898 10.5904 15.6364 10.6177C15.5893 10.6416 15.5511 10.6799 15.5271 10.7269C15.4999 10.7804 15.4999 10.8504 15.4999 10.9904V15.9004C15.4999 16.4605 15.4999 16.7405 15.3909 16.9544C15.295 17.1426 15.142 17.2956 14.9538 17.3914C14.7399 17.5004 14.4599 17.5004 13.8999 17.5004H10.0999C9.5398 17.5004 9.25978 17.5004 9.04587 17.3914C8.8577 17.2956 8.70472 17.1426 8.60885 16.9544C8.49986 16.7405 8.49986 16.4605 8.49986 15.9004L8.49986 10.9904C8.49986 10.8504 8.49986 10.7804 8.47261 10.7269C8.44864 10.6799 8.41039 10.6416 8.36335 10.6177C8.30987 10.5904 8.23987 10.5904 8.09986 10.5904H6.8626C5.65096 10.5904 5.04515 10.5904 4.76462 10.3508C4.52121 10.1429 4.39204 9.83108 4.41715 9.51197C4.4461 9.14418 4.87447 8.71581 5.73122 7.85906L10.8685 2.7218C11.2645 2.32578 11.4625 2.12777 11.6908 2.05358C11.8917 1.98832 12.108 1.98832 12.3089 2.05358C12.5372 2.12777 12.7352 2.32578 13.1312 2.72179Z" fill="#353566"/>
<path d="M1.25 22C1.25 21.5858 1.58579 21.25 2 21.25H22C22.4142 21.25 22.75 21.5858 22.75 22C22.75 22.4142 22.4142 22.75 22 22.75H2C1.58579 22.75 1.25 22.4142 1.25 22Z" fill="#353566"/>
</svg>
