<svg width="24" height="24" viewBox="0 0 24 24" fill="none" xmlns="http://www.w3.org/2000/svg">
<path d="M15 10.5C15.2761 10.5 15.5 10.2761 15.5 10C15.5 9.72386 15.2761 9.5 15 9.5H14C13.7239 9.5 13.5 9.72386 13.5 10C13.5 10.2761 13.7239 10.5 14 10.5H15Z" fill="#353566"/>
<path d="M15.5 7C15.5 7.27614 15.2761 7.5 15 7.5H14C13.7239 7.5 13.5 7.27614 13.5 7C13.5 6.72386 13.7239 6.5 14 6.5H15C15.2761 6.5 15.5 6.72386 15.5 7Z" fill="#353566"/>
<path d="M15 13.5C15.2761 13.5 15.5 13.2761 15.5 13C15.5 12.7239 15.2761 12.5 15 12.5H14C13.7239 12.5 13.5 12.7239 13.5 13C13.5 13.2761 13.7239 13.5 14 13.5H15Z" fill="#353566"/>
<path d="M10.5 10C10.5 10.2761 10.2761 10.5 10 10.5H9C8.72386 10.5 8.5 10.2761 8.5 10C8.5 9.72386 8.72386 9.5 9 9.5H10C10.2761 9.5 10.5 9.72386 10.5 10Z" fill="#353566"/>
<path d="M10 7.5C10.2761 7.5 10.5 7.27614 10.5 7C10.5 6.72386 10.2761 6.5 10 6.5H9C8.72386 6.5 8.5 6.72386 8.5 7C8.5 7.27614 8.72386 7.5 9 7.5H10Z" fill="#353566"/>
<path d="M10.5 13C10.5 13.2761 10.2761 13.5 10 13.5H9C8.72386 13.5 8.5 13.2761 8.5 13C8.5 12.7239 8.72386 12.5 9 12.5H10C10.2761 12.5 10.5 12.7239 10.5 13Z" fill="#353566"/>
<path fill-rule="evenodd" clip-rule="evenodd" d="M15.2222 1.5H8.77779C7.95653 1.5 7.30954 1.49999 6.78889 1.54253C6.25771 1.58593 5.81413 1.67609 5.41103 1.88148C4.75247 2.21703 4.21703 2.75247 3.88148 3.41103C3.67609 3.81413 3.58593 4.25771 3.54253 4.78889C3.49999 5.30954 3.5 5.95652 3.5 6.77779V17.2222C3.5 18.0435 3.49999 18.6905 3.54253 19.2111C3.58593 19.7423 3.67609 20.1859 3.88148 20.589C4.21703 21.2475 4.75247 21.783 5.41103 22.1185C5.81413 22.3239 6.25771 22.4141 6.78889 22.4575C7.30954 22.5 7.95652 22.5 8.77778 22.5H15.2222C16.0435 22.5 16.6905 22.5 17.2111 22.4575C17.7423 22.4141 18.1859 22.3239 18.589 22.1185C19.2475 21.783 19.783 21.2475 20.1185 20.589C20.3239 20.1859 20.4141 19.7423 20.4575 19.2111C20.5 18.6905 20.5 18.0435 20.5 17.2222V6.77778C20.5 5.95651 20.5 5.30954 20.4575 4.78889C20.4141 4.25771 20.3239 3.81413 20.1185 3.41103C19.783 2.75247 19.2475 2.21703 18.589 1.88148C18.1859 1.67609 17.7423 1.58593 17.2111 1.54253C16.6905 1.49999 16.0435 1.5 15.2222 1.5ZM15 21.5H15.2C16.0483 21.5 16.6545 21.4996 17.1297 21.4608C17.599 21.4224 17.8963 21.3491 18.135 21.2275C18.6054 20.9878 18.9878 20.6054 19.2275 20.135C19.3491 19.8963 19.4224 19.599 19.4608 19.1297C19.4996 18.6545 19.5 18.0483 19.5 17.2V6.8C19.5 5.95167 19.4996 5.34549 19.4608 4.87032C19.4224 4.40099 19.3491 4.10366 19.2275 3.86502C18.9878 3.39462 18.6054 3.01217 18.135 2.77248C17.8963 2.65089 17.599 2.57756 17.1297 2.53921C16.6545 2.50039 16.0483 2.5 15.2 2.5H8.8C7.95167 2.5 7.34549 2.50039 6.87032 2.53921C6.40099 2.57756 6.10366 2.65089 5.86502 2.77248C5.39462 3.01217 5.01217 3.39462 4.77248 3.86502C4.65089 4.10366 4.57756 4.40099 4.53921 4.87032C4.50039 5.34549 4.5 5.95167 4.5 6.8V17.2C4.5 18.0483 4.50039 18.6545 4.53921 19.1297C4.57756 19.599 4.65089 19.8963 4.77248 20.135C5.01217 20.6054 5.39462 20.9878 5.86502 21.2275C6.10366 21.3491 6.40099 21.4224 6.87032 21.4608C7.34549 21.4996 7.95167 21.5 8.8 21.5H9V17C9 16.1716 9.67157 15.5 10.5 15.5H13.5C14.3284 15.5 15 16.1716 15 17V21.5ZM10 21.5H14V17C14 16.7239 13.7761 16.5 13.5 16.5H10.5C10.2239 16.5 10 16.7239 10 17V21.5Z" fill="#353566"/>
</svg>
