<svg width="24" height="24" viewBox="0 0 24 24" fill="none" xmlns="http://www.w3.org/2000/svg">
<path d="M5.77779 1.5H12.2222C13.0435 1.5 13.6905 1.49999 14.2111 1.54253C14.7423 1.58593 15.1859 1.67609 15.589 1.88148C16.2475 2.21703 16.783 2.75247 17.1185 3.41103C17.3239 3.81413 17.4141 4.25771 17.4575 4.78889C17.5 5.30954 17.5 5.95651 17.5 6.77778V9.2553C17.5 9.53145 17.2761 9.7553 17 9.7553C16.7239 9.7553 16.5 9.53145 16.5 9.2553V6.8C16.5 5.95167 16.4996 5.34549 16.4608 4.87032C16.4224 4.40099 16.3491 4.10366 16.2275 3.86502C15.9878 3.39462 15.6054 3.01217 15.135 2.77248C14.8963 2.65089 14.599 2.57756 14.1297 2.53921C13.6545 2.50039 13.0483 2.5 12.2 2.5H5.8C4.95167 2.5 4.34549 2.50039 3.87032 2.53921C3.40099 2.57756 3.10366 2.65089 2.86502 2.77248C2.39462 3.01217 2.01217 3.39462 1.77248 3.86502C1.65089 4.10366 1.57756 4.40099 1.53921 4.87032C1.50039 5.34549 1.5 5.95167 1.5 6.8V17.2C1.5 18.0483 1.50039 18.6545 1.53921 19.1297C1.57756 19.599 1.65089 19.8963 1.77248 20.135C2.01217 20.6054 2.39462 20.9878 2.86502 21.2275C3.10366 21.3491 3.40099 21.4224 3.87032 21.4608C4.34549 21.4996 4.95167 21.5 5.8 21.5H6V17C6 16.1716 6.67157 15.5 7.5 15.5H10.5C10.7976 15.5 11.0763 15.5872 11.3103 15.7375C11.5426 15.8868 11.6098 16.1962 11.4605 16.4285C11.3113 16.6608 11.0019 16.7281 10.7696 16.5788C10.6921 16.5289 10.6002 16.5 10.5 16.5H7.5C7.22386 16.5 7 16.7239 7 17V21.5H11V18.4131C11 18.1369 11.2239 17.9131 11.5 17.9131C11.7761 17.9131 12 18.1369 12 18.4131V21.5H12.5C12.8881 21.5 13.2169 21.5 13.5034 21.4952C13.7795 21.4906 14.0071 21.7107 14.0117 21.9869C14.0162 22.263 13.7961 22.4905 13.52 22.4951C13.2244 22.5 12.8877 22.5 12.5036 22.5H5.77778C4.95651 22.5 4.30954 22.5 3.78889 22.4575C3.25771 22.4141 2.81413 22.3239 2.41103 22.1185C1.75247 21.783 1.21703 21.2475 0.881478 20.589C0.676087 20.1859 0.585932 19.7423 0.542533 19.2111C0.499994 18.6905 0.499997 18.0435 0.5 17.2222V6.77779C0.499997 5.95653 0.499994 5.30954 0.542533 4.78889C0.585932 4.25771 0.676087 3.81414 0.881477 3.41103C1.21703 2.75247 1.75247 2.21703 2.41103 1.88148C2.81414 1.67609 3.25771 1.58593 3.78889 1.54253C4.30954 1.49999 4.95653 1.5 5.77779 1.5Z" fill="#353566"/>
<path d="M10.5 13C10.5 12.7239 10.7239 12.5 11 12.5H11.331C11.6071 12.5 11.831 12.7239 11.831 13C11.831 13.2761 11.6071 13.5 11.331 13.5H11C10.7239 13.5 10.5 13.2761 10.5 13Z" fill="#353566"/>
<path d="M12.5 10C12.5 10.2761 12.2761 10.5 12 10.5H11C10.7239 10.5 10.5 10.2761 10.5 10C10.5 9.72386 10.7239 9.5 11 9.5H12C12.2761 9.5 12.5 9.72386 12.5 10Z" fill="#353566"/>
<path d="M12 7.5C12.2761 7.5 12.5 7.27614 12.5 7C12.5 6.72386 12.2761 6.5 12 6.5H11C10.7239 6.5 10.5 6.72386 10.5 7C10.5 7.27614 10.7239 7.5 11 7.5H12Z" fill="#353566"/>
<path d="M7.5 10C7.5 10.2761 7.27614 10.5 7 10.5H6C5.72386 10.5 5.5 10.2761 5.5 10C5.5 9.72386 5.72386 9.5 6 9.5H7C7.27614 9.5 7.5 9.72386 7.5 10Z" fill="#353566"/>
<path d="M7 7.5C7.27614 7.5 7.5 7.27614 7.5 7C7.5 6.72386 7.27614 6.5 7 6.5H6C5.72386 6.5 5.5 6.72386 5.5 7C5.5 7.27614 5.72386 7.5 6 7.5H7Z" fill="#353566"/>
<path d="M7.5 13C7.5 13.2761 7.27614 13.5 7 13.5H6C5.72386 13.5 5.5 13.2761 5.5 13C5.5 12.7239 5.72386 12.5 6 12.5H7C7.27614 12.5 7.5 12.7239 7.5 13Z" fill="#353566"/>
<path fill-rule="evenodd" clip-rule="evenodd" d="M19.3934 11.7081C18.8303 11.4267 18.1676 11.4267 17.6045 11.7083L14.036 13.493C13.7076 13.6573 13.5002 13.9928 13.5 14.36C13.4993 15.7737 13.5894 17.1315 14.1667 18.451C14.9568 20.2568 16.4181 21.6575 18.2165 22.4423C18.3966 22.5209 18.6013 22.5209 18.7815 22.4423C20.5804 21.6573 22.042 20.2548 22.8321 18.4487C23.4088 17.1304 23.4993 15.7739 23.5 14.3614C23.5002 13.9935 23.2924 13.6571 22.9633 13.4926L19.3934 11.7081ZM18.0518 12.6027C18.3334 12.4619 18.6647 12.4619 18.9463 12.6026L22.5 14.379C22.4994 15.6465 22.4342 16.8633 21.916 18.0479C21.2465 19.5782 20.0268 20.8009 18.499 21.4744C16.9715 20.8018 15.7521 19.5797 15.0828 18.0502C14.5642 16.8648 14.4994 15.6473 14.5 14.3791L18.0518 12.6027Z" fill="#353566"/>
</svg>
