<svg width="24" height="24" viewBox="0 0 24 24" fill="none" xmlns="http://www.w3.org/2000/svg">
<path fill-rule="evenodd" clip-rule="evenodd" d="M5.77779 1.5H12.2222C13.0435 1.5 13.6905 1.49999 14.2111 1.54253C14.7423 1.58593 15.1859 1.67609 15.589 1.88148C16.2475 2.21703 16.783 2.75247 17.1185 3.41103C17.3239 3.81413 17.4141 4.25771 17.4575 4.78889C17.5 5.30954 17.5 5.95651 17.5 6.77778V10.0559C17.5 10.3321 17.2761 10.5559 17 10.5559C16.7239 10.5559 16.5 10.3321 16.5 10.0559V6.8C16.5 5.95167 16.4996 5.34549 16.4608 4.87032C16.4224 4.40099 16.3491 4.10366 16.2275 3.86502C15.9878 3.39462 15.6054 3.01217 15.135 2.77248C14.8963 2.65089 14.599 2.57756 14.1297 2.53921C13.6545 2.50039 13.0483 2.5 12.2 2.5H5.8C4.95167 2.5 4.34549 2.50039 3.87032 2.53921C3.40099 2.57756 3.10366 2.65089 2.86502 2.77248C2.39462 3.01217 2.01217 3.39462 1.77248 3.86502C1.65089 4.10366 1.57756 4.40099 1.53921 4.87032C1.50039 5.34549 1.5 5.95167 1.5 6.8V17.2C1.5 18.0483 1.50039 18.6545 1.53921 19.1297C1.57756 19.599 1.65089 19.8963 1.77248 20.135C2.01217 20.6054 2.39462 20.9878 2.86502 21.2275C3.10366 21.3491 3.40099 21.4224 3.87032 21.4608C4.34549 21.4996 4.95167 21.5 5.8 21.5H6V17C6 16.1716 6.67157 15.5 7.5 15.5H10.5C11.3284 15.5 12 16.1716 12 17V21.5H12.5C13.831 21.5 14.4225 21.4934 14.8579 21.3467C15.1196 21.2585 15.4032 21.3992 15.4914 21.6609C15.5795 21.9226 15.4388 22.2062 15.1771 22.2944C14.5657 22.5003 13.7963 22.5002 12.6103 22.5L5.77778 22.5C4.95651 22.5 4.30954 22.5 3.78889 22.4575C3.25771 22.4141 2.81413 22.3239 2.41103 22.1185C1.75247 21.783 1.21703 21.2475 0.881478 20.589C0.676087 20.1859 0.585932 19.7423 0.542533 19.2111C0.499994 18.6905 0.499997 18.0435 0.5 17.2222V6.77779C0.499997 5.95653 0.499994 5.30954 0.542533 4.78889C0.585932 4.25771 0.676087 3.81414 0.881477 3.41103C1.21703 2.75247 1.75247 2.21703 2.41103 1.88148C2.81414 1.67609 3.25771 1.58593 3.78889 1.54253C4.30954 1.49999 4.95653 1.5 5.77779 1.5ZM7 21.5H11V17C11 16.7239 10.7761 16.5 10.5 16.5H7.5C7.22386 16.5 7 16.7239 7 17V21.5Z" fill="#353566"/>
<path d="M10.5 13C10.5 12.7239 10.7239 12.5 11 12.5H12C12.2761 12.5 12.5 12.7239 12.5 13C12.5 13.2761 12.2761 13.5 12 13.5H11C10.7239 13.5 10.5 13.2761 10.5 13Z" fill="#353566"/>
<path d="M12.5 10C12.5 10.2761 12.2761 10.5 12 10.5H11C10.7239 10.5 10.5 10.2761 10.5 10C10.5 9.72386 10.7239 9.5 11 9.5H12C12.2761 9.5 12.5 9.72386 12.5 10Z" fill="#353566"/>
<path d="M12 7.5C12.2761 7.5 12.5 7.27614 12.5 7C12.5 6.72386 12.2761 6.5 12 6.5H11C10.7239 6.5 10.5 6.72386 10.5 7C10.5 7.27614 10.7239 7.5 11 7.5H12Z" fill="#353566"/>
<path d="M7.5 10C7.5 10.2761 7.27614 10.5 7 10.5H6C5.72386 10.5 5.5 10.2761 5.5 10C5.5 9.72386 5.72386 9.5 6 9.5H7C7.27614 9.5 7.5 9.72386 7.5 10Z" fill="#353566"/>
<path d="M7 7.5C7.27614 7.5 7.5 7.27614 7.5 7C7.5 6.72386 7.27614 6.5 7 6.5H6C5.72386 6.5 5.5 6.72386 5.5 7C5.5 7.27614 5.72386 7.5 6 7.5H7Z" fill="#353566"/>
<path d="M7.5 13C7.5 13.2761 7.27614 13.5 7 13.5H6C5.72386 13.5 5.5 13.2761 5.5 13C5.5 12.7239 5.72386 12.5 6 12.5H7C7.27614 12.5 7.5 12.7239 7.5 13Z" fill="#353566"/>
<path fill-rule="evenodd" clip-rule="evenodd" d="M20.5009 12.5007C20.5009 11.555 19.3101 11.1386 18.72 11.8762L14.72 16.8756C14.196 17.5306 14.663 18.4998 15.5009 18.4998H17.5009V21.4992C17.5009 22.4449 18.6917 22.8613 19.2818 22.1237L23.2818 17.1243C23.8058 16.4693 23.3388 15.5001 22.5009 15.5001H20.5009V12.5007ZM19.5009 12.5007V15.5003C19.5009 16.0527 19.9489 16.5001 20.5009 16.5001H22.5005L18.501 21.499L18.5009 18.4996C18.5009 17.9472 18.0529 17.4998 17.5009 17.4998H15.5013L19.5009 12.5007Z" fill="#353566"/>
</svg>
