<svg width="24" height="24" viewBox="0 0 24 24" fill="none" xmlns="http://www.w3.org/2000/svg">
<path d="M12.8721 2.60096C14.1663 2.173 15.5 3.13673 15.5 4.49983V11.2559C15.5 11.5321 15.7239 11.7559 16 11.7559C16.2761 11.7559 16.5 11.5321 16.5 11.2559V4.49983C16.5 2.45518 14.4994 1.00959 12.5581 1.65152L2.55814 4.95826C1.32962 5.3645 0.5 6.51264 0.5 7.80658V19.5001C0.5 21.157 1.84315 22.5001 3.5 22.5001H11.7549C12.031 22.5001 12.2549 22.2763 12.2549 22.0001C12.2549 21.724 12.031 21.5001 11.7549 21.5001H11.5V20.9324C11.5 20.6563 11.2761 20.4324 11 20.4324C10.7239 20.4324 10.5 20.6563 10.5 20.9324V21.5001H6.5V17C6.5 16.7238 6.72386 16.5 7 16.5H10C10.083 16.5 10.1599 16.5198 10.2276 16.5546C10.4733 16.6806 10.7747 16.5837 10.9008 16.338C11.0269 16.0923 10.9299 15.7909 10.6842 15.6649C10.4785 15.5593 10.2455 15.5 10 15.5H7C6.17157 15.5 5.5 16.1715 5.5 17V21.5001H3.5C2.39543 21.5001 1.5 20.6047 1.5 19.5001V7.80658C1.5 6.94395 2.05308 6.17853 2.87209 5.9077L12.8721 2.60096Z" fill="#353566"/>
<path d="M10.5 12.5C10.2239 12.5 10 12.7238 10 13C10 13.2761 10.2239 13.5 10.5 13.5H11.5C11.7761 13.5 12 13.2761 12 13C12 12.7238 11.7761 12.5 11.5 12.5H10.5Z" fill="#353566"/>
<path d="M11.5 10.5C11.7761 10.5 12 10.2761 12 10C12 9.72386 11.7761 9.5 11.5 9.5H10.5C10.2239 9.5 10 9.72386 10 10C10 10.2761 10.2239 10.5 10.5 10.5H11.5Z" fill="#353566"/>
<path d="M7 10C7 10.2761 6.77614 10.5 6.5 10.5H5.5C5.22386 10.5 5 10.2761 5 10C5 9.72386 5.22386 9.5 5.5 9.5H6.5C6.77614 9.5 7 9.72386 7 10Z" fill="#353566"/>
<path d="M6.5 13.5C6.77614 13.5 7 13.2761 7 13C7 12.7239 6.77614 12.5 6.5 12.5H5.5C5.22386 12.5 5 12.7239 5 13C5 13.2761 5.22386 13.5 5.5 13.5H6.5Z" fill="#353566"/>
<path fill-rule="evenodd" clip-rule="evenodd" d="M18 16C16.8942 16 16 16.8942 16 18C16 19.1058 16.8942 20 18 20C19.1058 20 20 19.1058 20 18C20 16.8942 19.1058 16 18 16ZM17 18C17 17.4465 17.4465 17 18 17C18.5535 17 19 17.4465 19 18C19 18.5535 18.5535 19 18 19C17.4465 19 17 18.5535 17 18Z" fill="#353566"/>
<path fill-rule="evenodd" clip-rule="evenodd" d="M18 13.5C20.2068 13.5 22.3768 14.8473 23.3973 17.4539C23.5342 17.8036 23.5342 18.1964 23.3973 18.5461C22.3768 21.1527 20.2068 22.5 18 22.5C15.7932 22.5 13.6232 21.1527 12.6027 18.5461C12.4658 18.1964 12.4658 17.8036 12.6027 17.4539C13.6232 14.8473 15.7932 13.5 18 13.5ZM18 14.5C16.2242 14.5 14.4115 15.5768 13.5339 17.8184C13.4887 17.9337 13.4887 18.0663 13.5339 18.1816C14.4115 20.4232 16.2242 21.5 18 21.5C19.7758 21.5 21.5885 20.4232 22.4661 18.1816C22.5113 18.0663 22.5113 17.9337 22.4661 17.8184C21.5885 15.5768 19.7758 14.5 18 14.5Z" fill="#353566"/>
</svg>
