<svg width="24" height="24" viewBox="0 0 24 24" fill="none" xmlns="http://www.w3.org/2000/svg">
<g clip-path="url(#clip0_9001_268658)">
<path d="M12.2918 0.977994C11.5461 0.347179 10.4539 0.347179 9.70826 0.977995L0.677074 8.61838C0.466254 8.79673 0.439935 9.11222 0.618289 9.32304C0.796642 9.53386 1.11213 9.56018 1.32295 9.38183L2.75 8.17454L2.75 16.6219C2.75 17.3733 2.74999 17.9678 2.78913 18.4468C2.82912 18.9362 2.91246 19.349 3.10423 19.7253C3.41582 20.3368 3.913 20.834 4.52453 21.1456C4.90089 21.3374 5.3136 21.4207 5.80309 21.4607C6.28206 21.4999 6.87655 21.4999 7.62793 21.4998H7.98521L8 21.5001L8.01479 21.4998H10.5814C10.8576 21.4998 11.0814 21.276 11.0814 20.9998C11.0814 20.7237 10.8576 20.4998 10.5814 20.4998H8.5V14.0001C8.5 13.7239 8.72386 13.5001 9 13.5001H11.7546C12.0308 13.5001 12.2546 13.2762 12.2546 13.0001C12.2546 12.7239 12.0308 12.5001 11.7546 12.5001H9C8.17157 12.5001 7.5 13.1716 7.5 14.0001V20.4998C6.7997 20.4996 6.28963 20.4971 5.88452 20.464C5.45687 20.4291 5.19042 20.3626 4.97852 20.2546C4.55516 20.0389 4.21095 19.6947 3.99524 19.2713C3.88727 19.0594 3.82075 18.793 3.78581 18.3653C3.75039 17.9318 3.75 17.3782 3.75 16.5998V7.32854L10.3541 1.74144C10.727 1.42603 11.2731 1.42603 11.6459 1.74144L18.25 7.32852V10.0348C18.25 10.3109 18.4739 10.5348 18.75 10.5348C19.0261 10.5348 19.25 10.3109 19.25 10.0348V8.17452L20.6771 9.38183C20.8879 9.56018 21.2034 9.53386 21.3817 9.32304C21.5601 9.11222 21.5338 8.79673 21.3229 8.61838L12.2918 0.977994Z" fill="#353566"/>
<path d="M20.3536 16.3536C20.5488 16.1584 20.5488 15.8418 20.3536 15.6465C20.1583 15.4512 19.8417 15.4512 19.6464 15.6465L15.6464 19.6465C15.4512 19.8418 15.4512 20.1584 15.6464 20.3536C15.8417 20.5489 16.1583 20.5489 16.3536 20.3536L20.3536 16.3536Z" fill="#353566"/>
<path d="M15.75 16.5001C15.75 16.0858 16.0858 15.7501 16.5 15.7501C16.9142 15.7501 17.2501 16.0858 17.2501 16.5001C17.2501 16.9143 16.9143 17.2501 16.5001 17.2501C16.0859 17.2501 15.75 16.9143 15.75 16.5001Z" fill="#353566"/>
<path d="M19.5 18.7501C19.0858 18.7501 18.75 19.0858 18.75 19.5001C18.75 19.9143 19.0858 20.2501 19.5 20.2501C19.9142 20.2501 20.2501 19.9143 20.2501 19.5001C20.2501 19.0858 19.9142 18.7501 19.5 18.7501Z" fill="#353566"/>
<path fill-rule="evenodd" clip-rule="evenodd" d="M12.5 18.0001C12.5 14.9625 14.9624 12.5001 18 12.5001C21.0376 12.5001 23.5 14.9625 23.5 18.0001C23.5 21.0376 21.0376 23.5001 18 23.5001C14.9624 23.5001 12.5 21.0376 12.5 18.0001ZM18 13.5001C15.5147 13.5001 13.5 15.5148 13.5 18.0001C13.5 20.4853 15.5147 22.5001 18 22.5001C20.4853 22.5001 22.5 20.4853 22.5 18.0001C22.5 15.5148 20.4853 13.5001 18 13.5001Z" fill="#353566"/>
</g>
<defs>
<clipPath id="clip0_9001_268658">
<rect width="24" height="24" fill="white"/>
</clipPath>
</defs>
</svg>
