<svg width="24" height="24" viewBox="0 0 24 24" fill="none" xmlns="http://www.w3.org/2000/svg">
<g clip-path="url(#clip0_9001_268728)">
<path d="M12.2918 0.977994C11.5461 0.347179 10.4539 0.347179 9.70826 0.977995L0.677074 8.61838C0.466254 8.79673 0.439935 9.11222 0.618289 9.32304C0.796642 9.53386 1.11213 9.56018 1.32295 9.38183L2.75 8.17454L2.75 16.6219C2.75 17.3733 2.74999 17.9678 2.78913 18.4468C2.82912 18.9362 2.91246 19.349 3.10423 19.7253C3.41582 20.3368 3.913 20.834 4.52453 21.1456C4.90089 21.3374 5.3136 21.4207 5.80309 21.4607C6.28206 21.4999 6.87655 21.4999 7.62793 21.4998H7.98521L8 21.5001L8.01479 21.4998H12.554C12.8301 21.4998 13.054 21.276 13.054 20.9998C13.054 20.7237 12.8301 20.4998 12.554 20.4998H8.5V14.0001C8.5 13.7239 8.72386 13.5001 9 13.5001H13C13.2319 13.5001 13.4282 13.6585 13.484 13.8738C13.5534 14.141 13.8263 14.3015 14.0936 14.2321C14.3609 14.1628 14.5213 13.8899 14.452 13.6226C14.2845 12.9772 13.6986 12.5001 13 12.5001H9C8.17157 12.5001 7.5 13.1716 7.5 14.0001V20.4998C6.7997 20.4996 6.28963 20.4971 5.88452 20.464C5.45687 20.4291 5.19042 20.3626 4.97852 20.2546C4.55516 20.0389 4.21095 19.6947 3.99524 19.2713C3.88727 19.0594 3.82075 18.793 3.78581 18.3653C3.75039 17.9318 3.75 17.3782 3.75 16.5998V7.32854L10.3541 1.74144C10.727 1.42603 11.2731 1.42603 11.6459 1.74144L18.25 7.32852V10.0059C18.25 10.2821 18.4739 10.5059 18.75 10.5059C19.0261 10.5059 19.25 10.2821 19.25 10.0059V8.17452L20.6771 9.38183C20.8879 9.56018 21.2034 9.53386 21.3817 9.32304C21.5601 9.11222 21.5338 8.79673 21.3229 8.61838L12.2918 0.977994Z" fill="#353566"/>
<path d="M19 20.5001C17.3513 20.5001 15.8682 21.6328 15.4842 23.1247C15.4154 23.3921 15.1428 23.5531 14.8754 23.4843C14.6079 23.4154 14.4469 23.1429 14.5158 22.8754C15.0199 20.9169 16.921 19.5001 19 19.5001C21.0789 19.5001 22.9801 20.9169 23.4842 22.8754C23.553 23.1429 23.3921 23.4154 23.1246 23.4843C22.8572 23.5531 22.5846 23.3921 22.5158 23.1247C22.1318 21.6328 20.6487 20.5001 19 20.5001Z" fill="#353566"/>
<path fill-rule="evenodd" clip-rule="evenodd" d="M19 12.5001C17.4812 12.5001 16.25 13.7313 16.25 15.2501C16.25 16.7688 17.4812 18.0001 19 18.0001C20.5188 18.0001 21.75 16.7688 21.75 15.2501C21.75 13.7313 20.5188 12.5001 19 12.5001ZM17.25 15.2501C17.25 14.2836 18.0335 13.5001 19 13.5001C19.9665 13.5001 20.75 14.2836 20.75 15.2501C20.75 16.2166 19.9665 17.0001 19 17.0001C18.0335 17.0001 17.25 16.2166 17.25 15.2501Z" fill="#353566"/>
</g>
<defs>
<clipPath id="clip0_9001_268728">
<rect width="24" height="24" fill="white"/>
</clipPath>
</defs>
</svg>
