<svg width="24" height="24" viewBox="0 0 24 24" fill="none" xmlns="http://www.w3.org/2000/svg">
<g clip-path="url(#clip0_9001_294056)">
<path fill-rule="evenodd" clip-rule="evenodd" d="M13.3917 7.62209C14.3859 6.92688 15.7511 7.63811 15.7511 8.85122V15.1471C15.7511 16.3602 14.3859 17.0714 13.3917 16.3762L9.25 13.4798V15.8986C9.25 16.3128 8.91421 16.6486 8.5 16.6486C8.08579 16.6486 7.75 16.3128 7.75 15.8986V8.1001C7.75 7.68588 8.08579 7.3501 8.5 7.3501C8.91421 7.3501 9.25 7.68588 9.25 8.1001V10.5185L13.3917 7.62209ZM14.2511 8.85149L9.75011 11.9991L14.2511 15.1468V8.85149Z" fill="#353566"/>
<path fill-rule="evenodd" clip-rule="evenodd" d="M0.25 12C0.25 5.51065 5.51065 0.25 12 0.25C18.4893 0.25 23.75 5.51065 23.75 12C23.75 18.4893 18.4893 23.75 12 23.75C5.51065 23.75 0.25 18.4893 0.25 12ZM12 1.75C6.33908 1.75 1.75 6.33908 1.75 12C1.75 17.6609 6.33908 22.25 12 22.25C17.6609 22.25 22.25 17.6609 22.25 12C22.25 6.33908 17.6609 1.75 12 1.75Z" fill="#353566"/>
</g>
<defs>
<clipPath id="clip0_9001_294056">
<rect width="24" height="24" fill="white"/>
</clipPath>
</defs>
</svg>
