<svg width="24" height="24" viewBox="0 0 24 24" fill="none" xmlns="http://www.w3.org/2000/svg">
<g clip-path="url(#clip0_9001_293721)">
<path d="M12 1C11.4477 1 11 1.44772 11 2C11 2.55228 11.4477 3 12 3C12.5523 3 13.0001 2.55228 13.0001 2C13.0001 1.44772 12.5523 1 12 1Z" fill="#353566"/>
<path d="M20 4C19.4477 4 19 4.44772 19 5C19 5.55228 19.4477 6 20 6C20.5523 6 21.0001 5.55228 21.0001 5C21.0001 4.44772 20.5523 4 20 4Z" fill="#353566"/>
<path d="M23 12C22.4477 12 22 12.4477 22 13C22 13.5523 22.4477 14 23 14C23.5523 14 24.0001 13.5523 24.0001 13C24.0001 12.4477 23.5523 12 23 12Z" fill="#353566"/>
<path d="M19 21C19 20.4477 19.4477 20 20 20C20.5523 20 21.0001 20.4477 21.0001 21C21.0001 21.5523 20.5524 22 20.0001 22C19.4478 22 19 21.5523 19 21Z" fill="#353566"/>
<path d="M3 21C3 20.4477 3.44772 20 4 20C4.55229 20 5.0001 20.4477 5.0001 21C5.0001 21.5523 4.55239 22 4.0001 22C3.44781 22 3 21.5523 3 21Z" fill="#353566"/>
<path d="M0 13C0 12.4477 0.447716 12 1 12C1.55229 12 2.0001 12.4477 2.0001 13C2.0001 13.5523 1.55239 14 1.0001 14C0.447815 14 0 13.5523 0 13Z" fill="#353566"/>
<path d="M3 5C3 4.44772 3.44772 4 4 4C4.55229 4 5.0001 4.44772 5.0001 5C5.0001 5.55228 4.55239 6 4.0001 6C3.44781 6 3 5.55228 3 5Z" fill="#353566"/>
<path fill-rule="evenodd" clip-rule="evenodd" d="M4.25 13C4.25 8.71979 7.71979 5.25 12 5.25C16.2802 5.25 19.75 8.71979 19.75 13C19.75 17.2802 16.2802 20.75 12 20.75C7.71979 20.75 4.25 17.2802 4.25 13ZM12 6.75C8.54822 6.75 5.75 9.54822 5.75 13C5.75 16.4518 8.54822 19.25 12 19.25C15.4518 19.25 18.25 16.4518 18.25 13C18.25 11.5444 17.7524 10.205 16.918 9.14266L12.5303 13.5303C12.2374 13.8232 11.7626 13.8232 11.4697 13.5303C11.1768 13.2374 11.1768 12.7626 11.4697 12.4697L15.8573 8.082C14.795 7.24761 13.4556 6.75 12 6.75Z" fill="#353566"/>
</g>
<defs>
<clipPath id="clip0_9001_293721">
<rect width="24" height="24" fill="white"/>
</clipPath>
</defs>
</svg>
