<svg width="24" height="24" viewBox="0 0 24 24" fill="none" xmlns="http://www.w3.org/2000/svg">
<g clip-path="url(#clip0_9001_293951)">
<path fill-rule="evenodd" clip-rule="evenodd" d="M11.2489 15.1469V13.8309L7.60936 16.3761C6.61522 17.0713 5.24995 16.36 5.24995 15.1469V8.8511C5.24995 7.63799 6.61522 6.92676 7.60936 7.62197L11.2489 10.1671V8.8511C11.2489 7.63799 12.6141 6.92676 13.6083 7.62197L17.75 10.5184V8.09998C17.75 7.68576 18.0858 7.34998 18.5 7.34998C18.9142 7.34998 19.25 7.68576 19.25 8.09998V15.8985C19.25 16.3127 18.9142 16.6485 18.5 16.6485C18.0858 16.6485 17.75 16.3127 17.75 15.8985V13.4797L13.6083 16.3761C12.6141 17.0713 11.2489 16.36 11.2489 15.1469ZM12.7489 12.0816C12.7518 12.0266 12.7518 11.9714 12.7489 11.9164V8.85137L17.2499 11.999L12.7489 15.1467V12.0816ZM6.74995 8.85137L11.2489 11.9975V12.0005L6.74995 15.1467V8.85137Z" fill="#353566"/>
<path fill-rule="evenodd" clip-rule="evenodd" d="M12 0.25C18.4893 0.25 23.75 5.51065 23.75 12C23.75 18.4893 18.4893 23.75 12 23.75C5.51065 23.75 0.25 18.4893 0.25 12C0.25 5.51065 5.51065 0.25 12 0.25ZM22.25 12C22.25 6.33908 17.6609 1.75 12 1.75C6.33908 1.75 1.75 6.33908 1.75 12C1.75 17.6609 6.33908 22.25 12 22.25C17.6609 22.25 22.25 17.6609 22.25 12Z" fill="#353566"/>
</g>
<defs>
<clipPath id="clip0_9001_293951">
<rect width="24" height="24" fill="white"/>
</clipPath>
</defs>
</svg>
