<svg width="24" height="24" viewBox="0 0 24 24" fill="none" xmlns="http://www.w3.org/2000/svg">
<path d="M16.4326 1.25H6.56739C5.61495 1.24999 4.85439 1.24999 4.24013 1.30018C3.61012 1.35165 3.06824 1.45963 2.57054 1.71322C1.77085 2.12068 1.12068 2.77085 0.713223 3.57054C0.459634 4.06824 0.35165 4.61012 0.300176 5.24013C0.249989 5.85439 0.249994 6.61494 0.25 7.56738V13.4326C0.249994 14.385 0.249989 15.1456 0.300176 15.7599C0.35165 16.3899 0.459634 16.9318 0.713223 17.4295L0.727924 17.458C0.731571 17.4653 0.735344 17.4725 0.739242 17.4797C1.14809 18.2564 1.78766 18.8879 2.57054 19.2868C3.06824 19.5404 3.61012 19.6483 4.24013 19.6998C4.85438 19.75 5.6149 19.75 6.5673 19.75H11.048C11.4622 19.75 11.798 19.4142 11.798 19C11.798 18.5858 11.4622 18.25 11.048 18.25H6.6C5.60753 18.25 4.90829 18.2494 4.36228 18.2048C3.82503 18.1609 3.50252 18.0782 3.25153 17.9503C2.9035 17.7729 2.59924 17.5246 2.3571 17.2235L6.34228 13.2377C6.43992 13.14 6.59824 13.14 6.69587 13.2377L8.46883 15.0111C8.60948 15.1518 8.80025 15.2308 8.99918 15.2308C9.1981 15.2308 9.38888 15.1518 9.52955 15.0112L15.8232 8.71775C15.9209 8.62012 16.0792 8.62012 16.1768 8.71776L17.8898 10.4307C18.1827 10.7236 18.6575 10.7236 18.9504 10.4307C19.2433 10.1378 19.2433 9.66298 18.9504 9.37008L17.2374 7.65709C16.554 6.97369 15.446 6.97368 14.7626 7.65707L8.9993 13.4201L7.75666 12.1772C7.07323 11.4936 5.965 11.4935 5.28154 12.1771L1.79722 15.662L1.79519 15.6377C1.75058 15.0917 1.75 14.3925 1.75 13.4V7.6C1.75 6.60753 1.75058 5.90829 1.79519 5.36228C1.83909 4.82503 1.92184 4.50252 2.04973 4.25153C2.31338 3.73408 2.73408 3.31338 3.25153 3.04973C3.50252 2.92184 3.82503 2.83909 4.36228 2.79519C4.90829 2.75058 5.60753 2.75 6.6 2.75H16.4C17.3925 2.75 18.0917 2.75058 18.6377 2.79519C19.175 2.83909 19.4975 2.92184 19.7485 3.04973C20.2659 3.31338 20.6866 3.73408 20.9503 4.25153C21.0782 4.50252 21.1609 4.82503 21.2048 5.36228C21.2494 5.90829 21.25 6.60753 21.25 7.6V10.7521C21.25 11.1663 21.5858 11.5021 22 11.5021C22.4142 11.5021 22.75 11.1663 22.75 10.7521V7.56737C22.75 6.61496 22.75 5.85438 22.6998 5.24013C22.6483 4.61012 22.5404 4.06824 22.2868 3.57054C21.8793 2.77085 21.2291 2.12068 20.4295 1.71322C19.9318 1.45963 19.3899 1.35165 18.7599 1.30018C18.1456 1.24999 17.3851 1.24999 16.4326 1.25Z" fill="#353566"/>
<path fill-rule="evenodd" clip-rule="evenodd" d="M7 5.25C5.75736 5.25 4.75 6.25736 4.75 7.5C4.75 8.74264 5.75736 9.75 7 9.75C8.24264 9.75 9.25 8.74264 9.25 7.5C9.25 6.25736 8.24264 5.25 7 5.25ZM6.25 7.5C6.25 7.08579 6.58579 6.75 7 6.75C7.41421 6.75 7.75 7.08579 7.75 7.5C7.75 7.91421 7.41421 8.25 7 8.25C6.58579 8.25 6.25 7.91421 6.25 7.5Z" fill="#353566"/>
<path d="M19.0449 15.1282C19.0449 14.783 18.7651 14.5032 18.4199 14.5032C18.0747 14.5032 17.7949 14.783 17.7949 15.1282V17.4199C17.7949 17.6289 17.8994 17.824 18.0732 17.9399L19.4482 18.8565C19.7355 19.048 20.1235 18.9704 20.315 18.6832C20.5064 18.396 20.4288 18.0079 20.1416 17.8165L19.0449 17.0854V15.1282Z" fill="#353566"/>
<path fill-rule="evenodd" clip-rule="evenodd" d="M13.0865 17.42C13.0865 14.4745 15.4744 12.0867 18.4199 12.0867C21.3654 12.0867 23.7532 14.4745 23.7532 17.42C23.7532 20.3655 21.3654 22.7533 18.4199 22.7533C15.4744 22.7533 13.0865 20.3655 13.0865 17.42ZM18.4199 13.5867C16.3028 13.5867 14.5865 15.3029 14.5865 17.42C14.5865 19.5371 16.3028 21.2533 18.4199 21.2533C20.537 21.2533 22.2532 19.5371 22.2532 17.42C22.2532 15.3029 20.537 13.5867 18.4199 13.5867Z" fill="#353566"/>
</svg>
