<svg width="24" height="24" viewBox="0 0 24 24" fill="none" xmlns="http://www.w3.org/2000/svg">
<g clip-path="url(#clip0_9001_294361)">
<path d="M7.367 0.25H14.633C15.7251 0.249995 16.5906 0.24999 17.2883 0.306988C18.0017 0.365274 18.6053 0.486882 19.1565 0.76772C20.0502 1.22312 20.7769 1.94978 21.2323 2.84355C21.5131 3.39472 21.6347 3.99834 21.693 4.71173C21.75 5.40935 21.75 6.27484 21.75 7.36698V10.0275C21.75 10.4417 21.4142 10.7775 21 10.7775C20.5858 10.7775 20.25 10.4417 20.25 10.0275V7.4C20.25 6.26752 20.2494 5.46326 20.198 4.83388C20.1473 4.21325 20.0509 3.829 19.8958 3.52453C19.5842 2.913 19.087 2.41582 18.4755 2.10423C18.171 1.94909 17.7867 1.85271 17.1661 1.80201C16.5367 1.75058 15.7325 1.75 14.6 1.75H7.4C6.26752 1.75 5.46327 1.75058 4.83388 1.80201C4.21325 1.85271 3.829 1.94909 3.52453 2.10423C2.913 2.41582 2.41582 2.913 2.10423 3.52453C1.94909 3.829 1.85271 4.21325 1.80201 4.83388C1.75058 5.46326 1.75 6.26752 1.75 7.4V13.1893L4.55545 10.3839C5.6294 9.30994 7.3706 9.30994 8.44454 10.3839L12.1081 14.0475C12.401 14.3404 12.401 14.8152 12.1081 15.1081C11.8152 15.401 11.3403 15.401 11.0475 15.1081L7.38388 11.4445C6.89573 10.9564 6.10427 10.9564 5.61611 11.4445L1.75007 15.3106C1.75055 16.0923 1.75449 16.671 1.78632 17.1376C1.82178 17.6572 1.88931 17.9828 1.99739 18.2437C2.32725 19.0401 2.95994 19.6728 3.75628 20.0026C4.0172 20.1107 4.34279 20.1782 4.86243 20.2137C5.38881 20.2496 6.05786 20.25 7 20.25H11.1458C11.5601 20.25 11.8958 20.5858 11.8958 21C11.8958 21.4142 11.5601 21.75 11.1458 21.75H6.97262C6.06408 21.75 5.34368 21.75 4.76032 21.7102C4.16431 21.6695 3.65641 21.5848 3.18225 21.3884C2.01837 20.9063 1.09367 19.9816 0.611572 18.8177C0.415169 18.3436 0.330466 17.8357 0.2898 17.2397C0.249993 16.6562 0.249996 15.9361 0.25 15.0274V15L0.250017 14.995L0.25 14.99V7.367C0.249995 6.27486 0.24999 5.40935 0.306988 4.71173C0.365274 3.99834 0.486882 3.39472 0.76772 2.84355C1.22312 1.94978 1.94977 1.22312 2.84355 0.76772C3.39472 0.486882 3.99834 0.365274 4.71173 0.306988C5.40935 0.24999 6.27486 0.249995 7.367 0.25Z" fill="#353566"/>
<path fill-rule="evenodd" clip-rule="evenodd" d="M17.25 7.5C17.25 5.98122 16.0188 4.75 14.5 4.75C12.9812 4.75 11.75 5.98122 11.75 7.5C11.75 9.01878 12.9812 10.25 14.5 10.25C16.0188 10.25 17.25 9.01878 17.25 7.5ZM14.5 6.25C15.1904 6.25 15.75 6.80964 15.75 7.5C15.75 8.19036 15.1904 8.75 14.5 8.75C13.8096 8.75 13.25 8.19036 13.25 7.5C13.25 6.80964 13.8096 6.25 14.5 6.25Z" fill="#353566"/>
<path fill-rule="evenodd" clip-rule="evenodd" d="M14.5 15.75C13.2574 15.75 12.25 16.7574 12.25 18C12.25 19.2426 13.2574 20.25 14.5 20.25C15.0196 20.25 15.498 20.0739 15.8789 19.7781L19.2508 21.4641C19.2506 21.476 19.2505 21.488 19.2505 21.5C19.2505 22.7426 20.2578 23.75 21.5005 23.75C22.7431 23.75 23.7505 22.7426 23.7505 21.5C23.7505 20.2574 22.7431 19.25 21.5005 19.25C20.8098 19.25 20.1917 19.5612 19.779 20.0511L16.6924 18.5078C16.7301 18.3446 16.75 18.1746 16.75 18C16.75 17.8254 16.7301 17.6554 16.6924 17.4922L19.779 15.9489C20.1917 16.4388 20.8098 16.75 21.5005 16.75C22.7431 16.75 23.7505 15.7426 23.7505 14.5C23.7505 13.2574 22.7431 12.25 21.5005 12.25C20.2578 12.25 19.2505 13.2574 19.2505 14.5L19.2508 14.5359L15.8789 16.2219C15.498 15.9261 15.0196 15.75 14.5 15.75ZM13.75 18C13.75 17.5858 14.0858 17.25 14.5 17.25C14.9142 17.25 15.25 17.5858 15.25 18C15.25 18.4142 14.9142 18.75 14.5 18.75C14.0858 18.75 13.75 18.4142 13.75 18ZM21.5005 13.75C21.0863 13.75 20.7505 14.0858 20.7505 14.5C20.7505 14.9142 21.0863 15.25 21.5005 15.25C21.9147 15.25 22.2505 14.9142 22.2505 14.5C22.2505 14.0858 21.9147 13.75 21.5005 13.75ZM20.7505 21.5C20.7505 21.0858 21.0863 20.75 21.5005 20.75C21.9147 20.75 22.2505 21.0858 22.2505 21.5C22.2505 21.9142 21.9147 22.25 21.5005 22.25C21.0863 22.25 20.7505 21.9142 20.7505 21.5Z" fill="#353566"/>
</g>
<defs>
<clipPath id="clip0_9001_294361">
<rect width="24" height="24" fill="white"/>
</clipPath>
</defs>
</svg>
