<svg width="24" height="24" viewBox="0 0 24 24" fill="none" xmlns="http://www.w3.org/2000/svg">
<path d="M16.4326 1.25024H6.56739C5.61495 1.25024 4.85439 1.25023 4.24013 1.30042C3.61012 1.35189 3.06824 1.45988 2.57054 1.71347C1.77085 2.12093 1.12068 2.7711 0.713223 3.57079C0.459634 4.06848 0.35165 4.61036 0.300176 5.24038C0.249989 5.85464 0.249994 6.61518 0.25 7.56762V13.4329C0.249994 14.3853 0.249989 15.1459 0.300176 15.7601C0.35165 16.3901 0.459634 16.932 0.713223 17.4297L0.727924 17.4583C0.731571 17.4656 0.735344 17.4728 0.739242 17.4799C1.14809 18.2566 1.78766 18.8881 2.57054 19.287C3.06824 19.5406 3.61012 19.6486 4.24013 19.7001C4.85438 19.7503 5.6149 19.7502 6.5673 19.7502H13.2167C13.6309 19.7502 13.9667 19.4145 13.9667 19.0002C13.9667 18.586 13.6309 18.2502 13.2167 18.2502H6.6C5.60753 18.2502 4.90829 18.2497 4.36228 18.205C3.82503 18.1612 3.50252 18.0784 3.25153 17.9505C2.9035 17.7732 2.59924 17.5248 2.3571 17.2237L6.34228 13.2379C6.43992 13.1403 6.59824 13.1403 6.69587 13.2379L8.46883 15.0113C8.60948 15.152 8.80025 15.2311 8.99918 15.2311C9.1981 15.2311 9.38888 15.1521 9.52955 15.0114L15.8232 8.718C15.9209 8.62037 16.0792 8.62037 16.1768 8.718L17.9584 10.4996C18.2513 10.7925 18.7261 10.7925 19.019 10.4996C19.3119 10.2067 19.3119 9.73181 19.019 9.43892L17.2374 7.65734C16.554 6.97393 15.446 6.97392 14.7626 7.65731L8.9993 13.4204L7.75666 12.1774C7.07323 11.4938 5.965 11.4938 5.28154 12.1774L1.79722 15.6622L1.79519 15.638C1.75058 15.092 1.75 14.3927 1.75 13.4002V7.60025C1.75 6.60778 1.75058 5.90853 1.79519 5.36253C1.83909 4.82527 1.92184 4.50277 2.04973 4.25177C2.31338 3.73433 2.73408 3.31363 3.25153 3.04998C3.50252 2.92209 3.82503 2.83933 4.36228 2.79544C4.90829 2.75083 5.60753 2.75024 6.6 2.75024H16.4C17.3925 2.75024 18.0917 2.75083 18.6377 2.79544C19.175 2.83933 19.4975 2.92209 19.7485 3.04998C20.2659 3.31363 20.6866 3.73433 20.9503 4.25177C21.0782 4.50277 21.1609 4.82527 21.2048 5.36252C21.2494 5.90853 21.25 6.60778 21.25 7.60024V10.4067C21.25 10.8209 21.5858 11.1567 22 11.1567C22.4142 11.1567 22.75 10.8209 22.75 10.4067V7.56761C22.75 6.61521 22.75 5.85462 22.6998 5.24038C22.6483 4.61036 22.5404 4.06848 22.2868 3.57079C21.8793 2.7711 21.2291 2.12093 20.4295 1.71347C19.9318 1.45988 19.3899 1.35189 18.7599 1.30042C18.1456 1.25023 17.3851 1.25024 16.4326 1.25024Z" fill="#353566"/>
<path fill-rule="evenodd" clip-rule="evenodd" d="M7 5.25024C5.75736 5.25024 4.75 6.2576 4.75 7.50024C4.75 8.74288 5.75736 9.75024 7 9.75024C8.24264 9.75024 9.25 8.74288 9.25 7.50024C9.25 6.2576 8.24264 5.25024 7 5.25024ZM6.25 7.50024C6.25 7.08603 6.58579 6.75024 7 6.75024C7.41421 6.75024 7.75 7.08603 7.75 7.50024C7.75 7.91446 7.41421 8.25024 7 8.25024C6.58579 8.25024 6.25 7.91446 6.25 7.50024Z" fill="#353566"/>
<path fill-rule="evenodd" clip-rule="evenodd" d="M19.3366 14.5037C18.232 14.5037 17.3366 15.3991 17.3366 16.5037C17.3366 17.6083 18.232 18.5037 19.3366 18.5037C20.4412 18.5037 21.3366 17.6083 21.3366 16.5037C21.3366 15.3991 20.4412 14.5037 19.3366 14.5037ZM18.5866 16.5037C18.5866 16.0895 18.9224 15.7537 19.3366 15.7537C19.7508 15.7537 20.0866 16.0895 20.0866 16.5037C20.0866 16.9179 19.7508 17.2537 19.3366 17.2537C18.9224 17.2537 18.5866 16.9179 18.5866 16.5037Z" fill="#353566"/>
<path fill-rule="evenodd" clip-rule="evenodd" d="M14.9199 16.5054C14.9199 14.0666 16.8969 12.0869 19.3366 12.0869C21.776 12.0869 23.7533 14.0643 23.7533 16.5036C23.7533 19.1952 21.6199 21.2286 19.7866 22.6036C19.5199 22.8036 19.1533 22.8036 18.8866 22.6036C17.0534 21.2287 14.9199 19.1953 14.9199 16.5054ZM19.3366 13.5869C17.7263 13.5869 16.4199 14.8941 16.4199 16.5054C16.4199 18.2382 17.709 19.7553 19.3366 21.0555C20.9641 19.7554 22.2533 18.2381 22.2533 16.5036C22.2533 14.8927 20.9475 13.5869 19.3366 13.5869Z" fill="#353566"/>
</svg>
