<svg width="24" height="24" viewBox="0 0 24 24" fill="none" xmlns="http://www.w3.org/2000/svg">
<path d="M14.0303 2.03033C14.3232 1.73744 14.3232 1.26256 14.0303 0.96967C13.7374 0.676777 13.2626 0.676777 12.9697 0.96967L10.4697 3.46967C10.329 3.61032 10.25 3.80109 10.25 4C10.25 4.19891 10.329 4.38968 10.4697 4.53033L12.9697 7.03033C13.2626 7.32322 13.7374 7.32322 14.0303 7.03033C14.3232 6.73744 14.3232 6.26256 14.0303 5.96967L12.8544 4.7937C17.0093 5.22119 20.25 8.73214 20.25 13C20.25 17.5563 16.5563 21.25 12 21.25C7.44365 21.25 3.75 17.5563 3.75 13C3.75 10.1403 5.20433 7.62005 7.41719 6.13881C7.76141 5.90839 7.85367 5.44257 7.62326 5.09835C7.39285 4.75414 6.92702 4.66188 6.58281 4.89229C3.97173 6.64009 2.25 9.61883 2.25 13C2.25 18.3848 6.61522 22.75 12 22.75C17.3848 22.75 21.75 18.3848 21.75 13C21.75 7.87775 17.8 3.67806 12.7799 3.28074L14.0303 2.03033Z" fill="#353566"/>
<path fill-rule="evenodd" clip-rule="evenodd" d="M12.5 11.75C12.5 10.3693 13.6193 9.25 15 9.25C16.3807 9.25 17.5 10.3693 17.5 11.75V14.25C17.5 15.6307 16.3807 16.75 15 16.75C13.6193 16.75 12.5 15.6307 12.5 14.25V11.75ZM15 10.75C14.4477 10.75 14 11.1977 14 11.75V14.25C14 14.8023 14.4477 15.25 15 15.25C15.5523 15.25 16 14.8023 16 14.25V11.75C16 11.1977 15.5523 10.75 15 10.75Z" fill="#353566"/>
<path d="M8.25946 11.0495C8.42606 10.8629 8.64562 10.75 9 10.75C9.6891 10.75 9.99893 11.2107 10 11.598L9.99987 11.6174C9.99648 11.8284 9.88593 12.0458 9.54065 12.3412C9.37008 12.4872 9.16904 12.6293 8.93857 12.7855C8.89473 12.8152 8.84926 12.8458 8.80272 12.8772C8.61705 13.0021 8.41424 13.1386 8.22931 13.277C8.06008 13.4037 7.8891 13.5502 7.71967 13.7197C7.15154 14.2878 6.84326 14.8099 6.67864 15.2215C6.5968 15.4261 6.55199 15.5996 6.52772 15.733C6.51561 15.7996 6.50868 15.8559 6.50477 15.9008C6.50282 15.9233 6.50163 15.9429 6.50092 15.9594L6.5002 15.982L6.50004 15.9916L6.50001 15.9959L6.5 15.998L6.5 16C6.50007 16.0005 6.50705 16 7.25 16H6.5C6.5 16.4142 6.83579 16.75 7.25 16.75H11C11.4142 16.75 11.75 16.4142 11.75 16C11.75 15.5858 11.4142 15.25 11 15.25H8.37375C8.4775 15.1081 8.6103 14.9504 8.78033 14.7803C8.89869 14.662 9.0155 14.5622 9.12809 14.4779C9.27995 14.3643 9.44189 14.2552 9.62344 14.133C9.67414 14.0988 9.72636 14.0637 9.78032 14.0271C10.0158 13.8674 10.2768 13.6855 10.5159 13.4809C10.9889 13.0762 11.4888 12.4863 11.4998 11.6349L11.5 11.6049V11.6C11.5 10.3877 10.5225 9.25 9 9.25C8.25438 9.25 7.6149 9.5192 7.14054 10.0505C6.8451 10.3814 6.5 10.9062 6.5 11.7C6.5 12.1142 6.83579 12.45 7.25 12.45C7.66421 12.45 8 12.1142 8 11.7C8 11.3938 8.1164 11.2097 8.25946 11.0495Z" fill="#353566"/>
</svg>
