<svg width="24" height="24" viewBox="0 0 24 24" fill="none" xmlns="http://www.w3.org/2000/svg">
<path d="M14.0303 0.96967C14.3232 1.26256 14.3232 1.73744 14.0303 2.03033L12.7799 3.28074C17.8 3.67806 21.75 7.87775 21.75 13C21.75 18.3848 17.3848 22.75 12 22.75C6.61522 22.75 2.25 18.3848 2.25 13C2.25 11.4448 2.61468 9.97258 3.26388 8.66623C3.44822 8.29529 3.89836 8.14403 4.26929 8.32836C4.64023 8.5127 4.79149 8.96284 4.60716 9.33377C4.05873 10.4373 3.75 11.6815 3.75 13C3.75 17.5563 7.44365 21.25 12 21.25C16.5563 21.25 20.25 17.5563 20.25 13C20.25 8.73214 17.0093 5.22119 12.8544 4.7937L14.0303 5.96967C14.3232 6.26256 14.3232 6.73744 14.0303 7.03033C13.7374 7.32322 13.2626 7.32322 12.9697 7.03033L10.4697 4.53033C10.329 4.38968 10.25 4.19891 10.25 4C10.25 3.80109 10.329 3.61032 10.4697 3.46967L12.9697 0.96967C13.2626 0.676777 13.7374 0.676777 14.0303 0.96967Z" fill="#353566"/>
<path d="M10.5303 2.03033C10.8232 1.73744 10.8232 1.26256 10.5303 0.96967C10.2374 0.676777 9.76256 0.676777 9.46967 0.96967L6.96967 3.46967C6.82902 3.61032 6.75 3.80109 6.75 4C6.75 4.19891 6.82902 4.38968 6.96967 4.53033L9.46967 7.03033C9.76256 7.32322 10.2374 7.32322 10.5303 7.03033C10.8232 6.73744 10.8232 6.26256 10.5303 5.96967L8.56066 4L10.5303 2.03033Z" fill="#353566"/>
<path d="M10.3355 9.82918C10.5895 9.95623 10.75 10.2159 10.75 10.5V16.5C10.75 16.9142 10.4143 17.25 10 17.25C9.58583 17.25 9.25004 16.9142 9.25004 16.5V12L8.45004 12.6C8.11867 12.8485 7.64857 12.7814 7.40004 12.45C7.15152 12.1186 7.21867 11.6485 7.55004 11.4L9.55004 9.9C9.77731 9.72956 10.0814 9.70214 10.3355 9.82918Z" fill="#353566"/>
<path d="M13 9.75C12.6334 9.75 12.3205 10.0151 12.2603 10.3767L11.7603 13.3767C11.7111 13.6716 11.8418 13.9675 12.0928 14.1298C12.3424 14.2912 12.6636 14.2899 12.9118 14.1269L12.9232 14.1198C12.936 14.1121 12.9587 14.0987 12.9905 14.0815C13.0544 14.0469 13.1531 13.9978 13.2799 13.948C13.536 13.8472 13.8896 13.75 14.2929 13.75C14.8017 13.75 15.25 14.1983 15.25 14.75C15.25 15.3023 14.8023 15.75 14.25 15.75C13.7782 15.75 13.3111 15.4548 13.1754 15.1739C12.9953 14.8009 12.5469 14.6445 12.1739 14.8246C11.8009 15.0047 11.6446 15.4531 11.8247 15.8261C12.26 16.7277 13.3256 17.25 14.25 17.25C15.6307 17.25 16.75 16.1307 16.75 14.75C16.75 13.4257 15.6848 12.25 14.2929 12.25C13.9892 12.25 13.7073 12.2845 13.4543 12.3366L13.6354 11.25H15.75C16.1643 11.25 16.5 10.9142 16.5 10.5C16.5 10.0858 16.1643 9.75 15.75 9.75H13Z" fill="#353566"/>
</svg>
