<svg width="24" height="24" viewBox="0 0 24 24" fill="none" xmlns="http://www.w3.org/2000/svg">
<path d="M9.96967 5.96967L11.1456 4.7937C6.99073 5.22119 3.75 8.73213 3.75 13C3.75 17.5563 7.44365 21.25 12 21.25C16.5563 21.25 20.25 17.5563 20.25 13C20.25 10.1403 18.7957 7.62005 16.5828 6.1388C16.2386 5.90839 16.1463 5.44257 16.3767 5.09835C16.6072 4.75414 17.073 4.66188 17.4172 4.89229C20.0283 6.64009 21.75 9.61883 21.75 13C21.75 18.3848 17.3848 22.75 12 22.75C6.61522 22.75 2.25 18.3848 2.25 13C2.25 7.87775 6.19996 3.67806 11.2201 3.28074L9.96967 2.03033C9.67678 1.73744 9.67678 1.26256 9.96967 0.969669C10.2626 0.676777 10.7374 0.676777 11.0303 0.969669L13.5303 3.46967C13.671 3.61032 13.75 3.80109 13.75 4C13.75 4.19891 13.671 4.38968 13.5303 4.53033L11.0303 7.03033C10.7374 7.32322 10.2626 7.32322 9.96967 7.03033C9.67678 6.73744 9.67678 6.26256 9.96967 5.96967Z" fill="#353566"/>
<path fill-rule="evenodd" clip-rule="evenodd" d="M15 9.25C13.6193 9.25 12.5 10.3693 12.5 11.75V14.25C12.5 15.6307 13.6193 16.75 15 16.75C16.3807 16.75 17.5 15.6307 17.5 14.25V11.75C17.5 10.3693 16.3807 9.25 15 9.25ZM14 11.75C14 11.1977 14.4477 10.75 15 10.75C15.5523 10.75 16 11.1977 16 11.75V14.25C16 14.8023 15.5523 15.25 15 15.25C14.4477 15.25 14 14.8023 14 14.25V11.75Z" fill="#353566"/>
<path fill-rule="evenodd" clip-rule="evenodd" d="M9.01527 14.25L8.12592 15.584C7.89616 15.9286 7.98929 16.3943 8.33393 16.624C8.67858 16.8538 9.14423 16.7607 9.374 16.416L10.6806 14.4561C11.2109 13.6606 11.4958 12.7269 11.4999 11.7712C11.5 11.7641 11.5 11.7571 11.5 11.75C11.5 10.3693 10.3807 9.25 9 9.25C7.61929 9.25 6.5 10.3693 6.5 11.75C6.5 13.1307 7.61929 14.25 9 14.25C9.00509 14.25 9.01018 14.25 9.01527 14.25ZM9.99998 11.7439C9.99997 11.746 9.99996 11.748 9.99996 11.75C9.99996 11.7537 9.99995 11.7574 9.99994 11.7611C9.994 12.3083 9.54859 12.75 9 12.75C8.44772 12.75 8 12.3023 8 11.75C8 11.1977 8.44772 10.75 9 10.75C9.55026 10.75 9.99672 11.1944 9.99998 11.7439Z" fill="#353566"/>
</svg>
