<svg width="24" height="24" viewBox="0 0 24 24" fill="none" xmlns="http://www.w3.org/2000/svg">
<path opacity="0.4" fill-rule="evenodd" clip-rule="evenodd" d="M13.5 6.5V2.08547C13.4632 2.07434 13.426 2.06426 13.3885 2.05526C13.1583 2 12.9137 2 12.4245 2H8.8C7.11984 2 6.27976 2 5.63803 2.32698C5.07354 2.6146 4.6146 3.07354 4.32698 3.63803C4 4.27976 4 5.11984 4 6.8V17.2C4 18.8802 4 19.7202 4.32698 20.362C4.6146 20.9265 5.07354 21.3854 5.63803 21.673C6.27976 22 7.11984 22 8.8 22H15.2C16.8802 22 17.7202 22 18.362 21.673C18.9265 21.3854 19.3854 20.9265 19.673 20.362C20 19.7202 20 18.8802 20 17.2V9.57548C20 9.0863 20 8.84171 19.9447 8.61154C19.9357 8.57404 19.9257 8.53685 19.9145 8.5H15.5C14.3954 8.5 13.5 7.60457 13.5 6.5ZM8.85738 13.6667H8.3C8.01997 13.6667 7.87996 13.6667 7.773 13.7212C7.67892 13.7691 7.60243 13.8456 7.5545 13.9397C7.5 14.0466 7.5 14.1866 7.5 14.4667V15.5333C7.5 15.8134 7.5 15.9534 7.5545 16.0603C7.60243 16.1544 7.67892 16.2309 7.773 16.2788C7.87996 16.3333 8.01997 16.3333 8.3 16.3333H8.85738C8.97174 16.3333 9.02893 16.3333 9.08313 16.3455C9.13121 16.3563 9.17742 16.3742 9.22027 16.3985C9.26859 16.426 9.3109 16.4645 9.39552 16.5414L10.8968 17.9062C10.9632 17.9666 11.0497 18 11.1394 18C11.3386 18 11.5 17.8386 11.5 17.6394V12.3606C11.5 12.1614 11.3386 12 11.1394 12C11.0497 12 10.9632 12.0334 10.8968 12.0938L9.39552 13.4586C9.3109 13.5355 9.26859 13.574 9.22027 13.6014C9.17742 13.6258 9.13121 13.6437 9.08313 13.6545C9.02893 13.6667 8.97174 13.6667 8.85738 13.6667Z" fill="#353566"/>
<path fill-rule="evenodd" clip-rule="evenodd" d="M11.1394 11.5C10.9253 11.5 10.7189 11.5798 10.5605 11.7238L9.05919 13.0886C9.01384 13.1299 8.99122 13.1503 8.97419 13.1645L8.97293 13.1655L8.97128 13.1656C8.94913 13.1666 8.91866 13.1667 8.85738 13.1667L8.28405 13.1667C8.15788 13.1667 8.03495 13.1666 7.93089 13.1751C7.81659 13.1845 7.68172 13.2065 7.54601 13.2757C7.35785 13.3715 7.20487 13.5245 7.109 13.7127C7.03985 13.8484 7.01781 13.9833 7.00848 14.0976C6.99997 14.2016 6.99999 14.3245 7 14.4507V15.5493C6.99999 15.6755 6.99997 15.7984 7.00848 15.9024C7.01781 16.0167 7.03985 16.1516 7.109 16.2873C7.20487 16.4755 7.35785 16.6285 7.54601 16.7243C7.68172 16.7935 7.81659 16.8155 7.93089 16.8249C8.03496 16.8334 8.15783 16.8333 8.28401 16.8333L8.85738 16.8333C8.91866 16.8333 8.94913 16.8334 8.97128 16.8344L8.97293 16.8345L8.97419 16.8355C8.99122 16.8497 9.01384 16.8701 9.05919 16.9114L10.5605 18.2762C10.7189 18.4202 10.9253 18.5 11.1394 18.5C11.6147 18.5 12 18.1147 12 17.6394V12.3606C12 11.8853 11.6147 11.5 11.1394 11.5ZM9.73186 13.8286L11 12.6757V17.3243L9.73186 16.1714L9.71425 16.1553C9.64862 16.0954 9.56596 16.0199 9.46718 15.9638C9.38148 15.9151 9.28906 15.8794 9.19291 15.8577C9.08208 15.8328 8.97012 15.8331 8.88122 15.8333L8.85738 15.8333H8.3C8.15174 15.8333 8.07061 15.8329 8.01232 15.8282L8.00573 15.8276L8.00515 15.821C8.00039 15.7627 8 15.6816 8 15.5333V14.4667C8 14.3184 8.00039 14.2373 8.00515 14.179L8.00573 14.1724L8.01232 14.1718C8.07061 14.1671 8.15174 14.1667 8.3 14.1667H8.85738L8.88122 14.1667C8.97012 14.1669 9.08208 14.1672 9.19291 14.1423C9.28906 14.1206 9.38148 14.0849 9.46718 14.0362C9.56597 13.9801 9.64862 13.9046 9.71425 13.8447L9.73186 13.8286Z" fill="#353566"/>
<path d="M14.1001 10.6997C14.2659 10.4789 14.5794 10.4344 14.8002 10.6003C16.1348 11.6028 16.9998 13.2003 16.9998 15C16.9998 16.7995 16.1351 18.3972 14.8007 19.3998C14.5799 19.5656 14.2665 19.5211 14.1006 19.3004C13.9347 19.0796 13.9792 18.7662 14.2 18.6003C15.2939 17.7784 15.9998 16.4717 15.9998 15C15.9998 13.5282 15.2936 12.2217 14.1995 11.3998C13.9788 11.2339 13.9342 10.9205 14.1001 10.6997Z" fill="#353566"/>
<path d="M13.8842 13.18C13.7075 12.9678 13.3922 12.9391 13.18 13.1158C12.9678 13.2925 12.9391 13.6078 13.1158 13.82C13.3395 14.0886 13.5 14.5071 13.5 15C13.5 15.4929 13.3395 15.9115 13.1158 16.18C12.9391 16.3922 12.9678 16.7075 13.18 16.8842C13.3922 17.0609 13.7075 17.0322 13.8842 16.82C14.2743 16.3516 14.5 15.6991 14.5 15C14.5 14.3009 14.2743 13.6485 13.8842 13.18Z" fill="#353566"/>
<path fill-rule="evenodd" clip-rule="evenodd" d="M12.8068 1.50002C13.1243 1.49986 13.3642 1.49975 13.5956 1.55529C13.7996 1.60429 13.9947 1.68509 14.1737 1.79475C14.3765 1.91906 14.5461 2.08878 14.7705 2.31339L19.6866 7.22954C19.9113 7.45394 20.081 7.62349 20.2053 7.82635C20.3149 8.0053 20.3957 8.20039 20.4447 8.40446C20.5003 8.63581 20.5002 8.8757 20.5 9.1932L20.5 17.2222C20.5 18.0435 20.5 18.6905 20.4575 19.2111C20.4141 19.7423 20.3239 20.1859 20.1185 20.589C19.783 21.2476 19.2475 21.783 18.589 22.1186C18.1859 22.3239 17.7423 22.4141 17.2111 22.4575C16.6905 22.5 16.0435 22.5 15.2222 22.5H8.77778C7.95651 22.5 7.30954 22.5 6.78889 22.4575C6.25771 22.4141 5.81413 22.3239 5.41103 22.1186C4.75247 21.783 4.21703 21.2476 3.88148 20.589C3.67609 20.1859 3.58593 19.7423 3.54253 19.2111C3.49999 18.6905 3.5 18.0435 3.5 17.2222V6.77783C3.5 5.95656 3.49999 5.30957 3.54253 4.78892C3.58593 4.25774 3.67609 3.81417 3.88148 3.41106C4.21703 2.7525 4.75247 2.21707 5.41103 1.88151C5.81413 1.67612 6.25771 1.58596 6.78889 1.54256C7.30954 1.50003 7.95652 1.50003 8.77779 1.50003L12.8068 1.50002ZM12.7559 2.50003C12.853 2.50003 12.933 2.50023 13 2.5009V6.5C13 7.88071 14.1193 9 15.5 9H19.4991C19.4998 9.06698 19.5 9.147 19.5 9.24414V17.2C19.5 18.0484 19.4996 18.6545 19.4608 19.1297C19.4224 19.599 19.3491 19.8964 19.2275 20.135C18.9878 20.6054 18.6054 20.9879 18.135 21.2275C17.8963 21.3491 17.599 21.4225 17.1297 21.4608C16.6545 21.4996 16.0483 21.5 15.2 21.5H8.8C7.95167 21.5 7.34549 21.4996 6.87032 21.4608C6.40099 21.4225 6.10366 21.3491 5.86502 21.2275C5.39462 20.9879 5.01217 20.6054 4.77248 20.135C4.65089 19.8964 4.57756 19.599 4.53921 19.1297C4.50039 18.6545 4.5 18.0484 4.5 17.2V6.80003C4.5 5.9517 4.50039 5.34553 4.53921 4.87035C4.57756 4.40102 4.65089 4.10369 4.77248 3.86506C5.01217 3.39465 5.39462 3.0122 5.86502 2.77252C6.10366 2.65093 6.40099 2.57759 6.87032 2.53924C7.34549 2.50042 7.95167 2.50003 8.8 2.50003H12.7559ZM18.9435 7.90064L19.0426 8H15.5C14.6716 8 14 7.32843 14 6.5V2.95743L14.0994 3.05653L18.9435 7.90064Z" fill="#353566"/>
</svg>
