<svg width="24" height="24" viewBox="0 0 24 24" fill="none" xmlns="http://www.w3.org/2000/svg">
<path opacity="0.4" d="M11.5 2.08547V6.5C11.5 7.60457 12.3954 8.5 13.5 8.5H17.9145C17.9257 8.53685 17.9357 8.57404 17.9447 8.61154C18 8.84171 18 9.0863 18 9.57548V15.3932C17.9735 15.4248 17.9475 15.4569 17.9222 15.4895C17.2802 14.7313 16.3213 14.25 15.25 14.25H14C13.5103 14.25 13.0676 14.4511 12.75 14.7753C12.4324 14.4511 11.9897 14.25 11.5 14.25H9C8.0335 14.25 7.25 15.0335 7.25 16V22H6.8C5.11984 22 4.27976 22 3.63803 21.673C3.07354 21.3854 2.6146 20.9265 2.32698 20.362C2 19.7202 2 18.8802 2 17.2V6.8C2 5.11984 2 4.27976 2.32698 3.63803C2.6146 3.07354 3.07354 2.6146 3.63803 2.32698C4.27976 2 5.11984 2 6.8 2H10.4245C10.9137 2 11.1583 2 11.3885 2.05526C11.426 2.06426 11.4632 2.07434 11.5 2.08547Z" fill="#353566"/>
<path fill-rule="evenodd" clip-rule="evenodd" d="M10.7559 2.50003C10.853 2.50003 10.933 2.50023 11 2.5009V6.50003C11 7.88074 12.1193 9.00003 13.5 9.00003H17.4991C17.4998 9.067 17.5 9.14702 17.5 9.24414V15.0689C17.6523 15.1969 17.7936 15.3376 17.9222 15.4895C18.0896 15.274 18.2838 15.0805 18.5 14.914L18.5 9.1932C18.5002 8.8757 18.5003 8.63581 18.4447 8.40446C18.3957 8.20039 18.3149 8.0053 18.2053 7.82635C18.081 7.62349 17.9113 7.45394 17.6866 7.22954L12.7705 2.31339C12.5461 2.08878 12.3765 1.91906 12.1737 1.79475C11.9947 1.68509 11.7996 1.60429 11.5956 1.55529C11.3642 1.49975 11.1243 1.49986 10.8068 1.50002L6.77779 1.50003C5.95652 1.50003 5.30954 1.50003 4.78889 1.54256C4.25771 1.58596 3.81413 1.67612 3.41103 1.88151C2.75247 2.21707 2.21703 2.7525 1.88148 3.41106C1.67609 3.81417 1.58593 4.25774 1.54253 4.78892C1.49999 5.30957 1.5 5.95654 1.5 6.77781V17.2222C1.5 18.0435 1.49999 18.6905 1.54253 19.2111C1.58593 19.7423 1.67609 20.1859 1.88148 20.589C2.21703 21.2476 2.75247 21.783 3.41103 22.1186C3.81413 22.3239 4.25771 22.4141 4.78889 22.4575C5.30954 22.5 5.95651 22.5 6.77778 22.5H7.32248C7.27532 22.3416 7.25 22.1738 7.25 22V21.5H6.8C5.95167 21.5 5.34549 21.4996 4.87032 21.4608C4.40099 21.4225 4.10366 21.3491 3.86502 21.2275C3.39462 20.9879 3.01217 20.6054 2.77248 20.135C2.65089 19.8964 2.57756 19.599 2.53921 19.1297C2.50039 18.6545 2.5 18.0484 2.5 17.2V6.80003C2.5 5.9517 2.50039 5.34553 2.53921 4.87035C2.57756 4.40102 2.65089 4.10369 2.77248 3.86506C3.01217 3.39465 3.39462 3.0122 3.86502 2.77252C4.10366 2.65093 4.40099 2.57759 4.87032 2.53924C5.34549 2.50042 5.95167 2.50003 6.8 2.50003H10.7559ZM16.9435 7.90064L17.0426 8.00003H13.5C12.6716 8.00003 12 7.32846 12 6.50003V2.95743L12.0994 3.05653L16.9435 7.90064Z" fill="#353566"/>
<path d="M9 15.5001C8.72386 15.5001 8.5 15.7239 8.5 16.0001V22.0001C8.5 22.2762 8.72386 22.5001 9 22.5001H11.5C11.7761 22.5001 12 22.2762 12 22.0001C12 21.7239 11.7761 21.5001 11.5 21.5001H9.5V19.5001H11.5C11.7761 19.5001 12 19.2762 12 19.0001C12 18.7239 11.7761 18.5001 11.5 18.5001H9.5V16.5001H11.5C11.7761 16.5001 12 16.2762 12 16.0001C12 15.7239 11.7761 15.5001 11.5 15.5001H9Z" fill="#353566"/>
<path fill-rule="evenodd" clip-rule="evenodd" d="M13.5 16.0001C13.5 15.7239 13.7239 15.5001 14 15.5001H15.25C16.4926 15.5001 17.5 16.5074 17.5 17.7501C17.5 18.9927 16.4926 20.0001 15.25 20.0001H14.5V22.0001C14.5 22.2762 14.2761 22.5001 14 22.5001C13.7239 22.5001 13.5 22.2762 13.5 22.0001V16.0001ZM14.5 19.0001H15.25C15.9404 19.0001 16.5 18.4404 16.5 17.7501C16.5 17.0597 15.9404 16.5001 15.25 16.5001H14.5V19.0001Z" fill="#353566"/>
<path d="M19.5 17.4529C19.5 16.9267 19.9266 16.5001 20.4528 16.5001H21.5C21.7761 16.5001 22 16.2762 22 16.0001C22 15.7239 21.7761 15.5001 21.5 15.5001H20.4528C19.3743 15.5001 18.5 16.3744 18.5 17.4529C18.5 18.2935 19.0379 19.0397 19.8353 19.3055L20.8485 19.6433C21.2376 19.773 21.5 20.1371 21.5 20.5472C21.5 21.0735 21.0734 21.5001 20.5472 21.5001H19.5C19.2239 21.5001 19 21.7239 19 22.0001C19 22.2762 19.2239 22.5001 19.5 22.5001H20.5472C21.6257 22.5001 22.5 21.6257 22.5 20.5472C22.5 19.7066 21.9621 18.9604 21.1647 18.6946L20.1515 18.3569C19.7624 18.2272 19.5 17.863 19.5 17.4529Z" fill="#353566"/>
</svg>
