<svg width="24" height="24" viewBox="0 0 24 24" fill="none" xmlns="http://www.w3.org/2000/svg">
<path opacity="0.4" d="M2 16.1V7.9C2 6.35986 2 5.58978 2.29973 5.00153C2.56338 4.48408 2.98408 4.06338 3.50153 3.79973C4.08978 3.5 4.85986 3.5 6.4 3.5H8.50589C8.87277 3.5 9.05622 3.5 9.22885 3.54145C9.3819 3.57819 9.52822 3.6388 9.66243 3.72104C9.8138 3.8138 9.94352 3.94352 10.2029 4.20294L10.7971 4.79706C11.0565 5.05647 11.1862 5.1862 11.3376 5.27896C11.4718 5.3612 11.6181 5.42181 11.7712 5.45855C11.9438 5.5 12.1272 5.5 12.4941 5.5H17.6C19.1401 5.5 19.9102 5.5 20.4985 5.79973C21.0159 6.06338 21.4366 6.48408 21.7003 7.00153C22 7.58978 22 8.35986 22 9.9V16.1C22 17.6401 22 18.4102 21.7003 18.9985C21.4366 19.5159 21.0159 19.9366 20.4985 20.2003C19.9102 20.5 19.1401 20.5 17.6 20.5H6.4C4.85986 20.5 4.08978 20.5 3.50153 20.2003C2.98408 19.9366 2.56338 19.5159 2.29973 18.9985C2 18.4102 2 17.6401 2 16.1Z" fill="#353566"/>
<path d="M14.8536 15.8535C14.6583 16.0487 14.3417 16.0487 14.1464 15.8535L11.9999 13.707L9.85357 15.8533C9.65831 16.0486 9.34172 16.0486 9.14646 15.8533C8.9512 15.658 8.9512 15.3415 9.14646 15.1462L11.2928 12.9998L9.14648 10.8535C8.95122 10.6582 8.95122 10.3417 9.14648 10.1464C9.34174 9.95114 9.65832 9.95114 9.85358 10.1464L11.9999 12.2927L14.1464 10.1462C14.3417 9.95097 14.6583 9.95097 14.8535 10.1462C15.0488 10.3415 15.0488 10.6581 14.8535 10.8533L12.707 12.9998L14.8536 15.1464C15.0488 15.3416 15.0488 15.6582 14.8536 15.8535Z" fill="#353566"/>
<path fill-rule="evenodd" clip-rule="evenodd" d="M8.55683 2.99977C8.87433 2.99962 9.11422 2.99951 9.34557 3.05505C9.54964 3.10404 9.74473 3.18485 9.92368 3.29451C10.1265 3.41882 10.2961 3.58854 10.5205 3.81315L11.1506 4.44329C11.4269 4.71955 11.5096 4.79778 11.5988 4.85243C11.6883 4.90726 11.7858 4.94766 11.8879 4.97216C11.9896 4.99657 12.1034 4.99979 12.4941 4.99979H17.6221C18.3734 4.99978 18.9679 4.99978 19.4469 5.03891C19.9364 5.07891 20.3491 5.16225 20.7255 5.35402C21.337 5.6656 21.8342 6.16279 22.1458 6.77432C22.3375 7.15068 22.4209 7.56339 22.4609 8.05288C22.5 8.53183 22.5 9.12629 22.5 9.87763V16.1219C22.5 16.8732 22.5 17.4677 22.4609 17.9467C22.4209 18.4362 22.3375 18.8489 22.1458 19.2253C21.8342 19.8368 21.337 20.334 20.7255 20.6456C20.3491 20.8373 19.9364 20.9207 19.4469 20.9607C18.968 20.9998 18.3735 20.9998 17.6222 20.9998H6.37793C5.62659 20.9998 5.03204 20.9998 4.55309 20.9607C4.0636 20.9207 3.65089 20.8373 3.27453 20.6456C2.663 20.334 2.16582 19.8368 1.85423 19.2253C1.66246 18.8489 1.57912 18.4362 1.53913 17.9467C1.49999 17.4677 1.5 16.8732 1.5 16.1219V7.87773C1.5 7.12635 1.49999 6.53185 1.53913 6.05288C1.57912 5.56339 1.66246 5.15068 1.85423 4.77432C2.16582 4.16279 2.663 3.6656 3.27453 3.35402C3.65089 3.16225 4.0636 3.07891 4.55309 3.03891C5.03206 2.99978 5.62655 2.99978 6.37794 2.99979L8.55683 2.99977ZM9.11212 4.02742C9.01042 4.003 8.89657 3.99979 8.50589 3.99979H6.4C5.62168 3.99979 5.06801 4.00018 4.63452 4.03559C4.20687 4.07053 3.94042 4.13706 3.72852 4.24502C3.30516 4.46074 2.96095 4.80494 2.74524 5.22831C2.63727 5.4402 2.57075 5.70666 2.53581 6.13431C2.50039 6.56779 2.5 7.12147 2.5 7.89979V16.0998C2.5 16.8781 2.50039 17.4318 2.53581 17.8653C2.57075 18.2929 2.63727 18.5594 2.74524 18.7713C2.96095 19.1946 3.30516 19.5388 3.72852 19.7546C3.94042 19.8625 4.20687 19.929 4.63452 19.964C5.06801 19.9994 5.62168 19.9998 6.4 19.9998H17.6C18.3783 19.9998 18.932 19.9994 19.3655 19.964C19.7931 19.929 20.0596 19.8625 20.2715 19.7546C20.6948 19.5388 21.039 19.1946 21.2548 18.7713C21.3627 18.5594 21.4293 18.2929 21.4642 17.8653C21.4996 17.4318 21.5 16.8781 21.5 16.0998V9.89979C21.5 9.12146 21.4996 8.56779 21.4642 8.13431C21.4293 7.70666 21.3627 7.4402 21.2548 7.22831C21.039 6.80494 20.6948 6.46074 20.2715 6.24502C20.0596 6.13706 19.7931 6.07053 19.3655 6.03559C18.932 6.00018 18.3783 5.99979 17.6 5.99979L12.4432 5.9998C12.1257 5.99995 11.8858 6.00007 11.6544 5.94453C11.4504 5.89553 11.2553 5.81473 11.0763 5.70507C10.8735 5.58075 10.7039 5.41104 10.4795 5.18643L9.84939 4.55628C9.57313 4.28003 9.49036 4.2018 9.40118 4.14715C9.31171 4.09232 9.21416 4.05191 9.11212 4.02742Z" fill="#353566"/>
</svg>
