<svg width="24" height="24" viewBox="0 0 24 24" fill="none" xmlns="http://www.w3.org/2000/svg">
<path opacity="0.4" d="M6.77779 3.5L11 3.5C11.2761 3.5 11.5 3.72386 11.5 4C11.5 4.27614 11.2761 4.5 11 4.5H6.8C5.95167 4.5 5.34549 4.50039 4.87032 4.53921C4.40099 4.57756 4.10366 4.65089 3.86502 4.77248C3.39462 5.01217 3.01217 5.39462 2.77248 5.86502C2.65089 6.10366 2.57756 6.40099 2.53921 6.87032C2.50039 7.34549 2.5 7.95167 2.5 8.8V17.2C2.5 18.0483 2.50039 18.6545 2.53921 19.1297C2.57756 19.599 2.65089 19.8963 2.77248 20.135C3.01217 20.6054 3.39462 20.9878 3.86502 21.2275C4.10366 21.3491 4.40099 21.4224 4.87032 21.4608C5.34549 21.4996 5.95167 21.5 6.8 21.5H15.2C16.0483 21.5 16.6545 21.4996 17.1297 21.4608C17.599 21.4224 17.8963 21.3491 18.135 21.2275C18.6054 20.9878 18.9878 20.6054 19.2275 20.135C19.3491 19.8963 19.4224 19.599 19.4608 19.1297C19.4996 18.6545 19.5 18.0483 19.5 17.2V13C19.5 12.7239 19.7239 12.5 20 12.5C20.2761 12.5 20.5 12.7239 20.5 13V17.2222C20.5 18.0435 20.5 18.6905 20.4575 19.2111C20.4141 19.7423 20.3239 20.1859 20.1185 20.589C19.783 21.2475 19.2475 21.783 18.589 22.1185C18.1859 22.3239 17.7423 22.4141 17.2111 22.4575C16.6905 22.5 16.0435 22.5 15.2222 22.5H6.77778C5.95651 22.5 5.30954 22.5 4.78889 22.4575C4.25771 22.4141 3.81413 22.3239 3.41103 22.1185C2.75247 21.783 2.21703 21.2475 1.88148 20.589C1.67609 20.1859 1.58593 19.7423 1.54253 19.2111C1.49999 18.6905 1.5 18.0435 1.5 17.2222V8.77779C1.5 7.95652 1.49999 7.30955 1.54253 6.78889C1.58593 6.25771 1.67609 5.81413 1.88148 5.41103C2.21703 4.75247 2.75247 4.21703 3.41103 3.88148C3.81413 3.67609 4.25771 3.58593 4.78889 3.54253C5.30955 3.49999 5.95652 3.5 6.77779 3.5Z" fill="#353566"/>
<path d="M21.5 8.00012C21.5 8.27626 21.7239 8.50012 22 8.50012C22.2761 8.50012 22.5 8.27626 22.5 8.00012V2C22.5 1.72386 22.2761 1.5 22 1.5L16 1.5C15.7239 1.5 15.5 1.72386 15.5 2C15.5 2.27614 15.7239 2.5 16 2.5H20.793L10.6464 12.6466C10.4512 12.8418 10.4512 13.1584 10.6464 13.3537C10.8417 13.5489 11.1583 13.5489 11.3536 13.3537L21.5 3.20722V8.00012Z" fill="#353566"/>
</svg>
