<svg width="24" height="24" viewBox="0 0 24 24" fill="none" xmlns="http://www.w3.org/2000/svg">
<path opacity="0.4" d="M19.3158 7.43604C18.8592 7.20341 18.3539 7.09965 17.7393 7.04947C17.1352 7.00015 16.3832 7.00019 15.4221 7.00025L8.57722 7.00063C7.61617 7.00068 6.86426 7.00072 6.26027 7.0501C5.64575 7.10034 5.14045 7.20414 4.6839 7.43679C3.93129 7.8203 3.31941 8.43222 2.93594 9.18484C2.70332 9.64141 2.59955 10.1467 2.54934 10.7612C2.49999 11.3652 2.5 12.1171 2.5 13.0782V17.4224C2.5 18.3835 2.49999 19.1354 2.54935 19.7394C2.59956 20.354 2.70334 20.8593 2.93597 21.3159C3.31947 22.0685 3.93139 22.6805 4.68404 23.064C5.14062 23.2966 5.64594 23.4004 6.26049 23.4506C6.86451 23.4999 7.61646 23.4999 8.57754 23.4999H15.4225C16.3835 23.4999 17.1355 23.4999 17.7395 23.4506C18.3541 23.4004 18.8594 23.2966 19.316 23.064C20.0686 22.6805 20.6805 22.0685 21.064 21.3159C21.2967 20.8593 21.4004 20.354 21.4507 19.7394C21.5 19.1354 21.5 18.3835 21.5 17.4224V13.0778C21.5 12.1167 21.5 11.3647 21.4507 10.7606C21.4004 10.146 21.2967 9.6407 21.064 9.18411C20.6805 8.43144 20.0685 7.81951 19.3158 7.43604Z" fill="#353566"/>
<path d="M8.14645 4.85355C7.95118 4.65829 7.95118 4.34171 8.14645 4.14645L11.6464 0.646446C11.7402 0.552678 11.8674 0.5 12 0.5C12.1326 0.5 12.2598 0.552678 12.3536 0.646446L15.8536 4.14645C16.0488 4.34171 16.0488 4.65829 15.8536 4.85355C15.6583 5.04881 15.3417 5.04881 15.1464 4.85355L12.5 2.20711L12.5 16C12.5 16.2761 12.2761 16.5 12 16.5C11.7239 16.5 11.5 16.2761 11.5 16L11.5 2.20711L8.85355 4.85355C8.65829 5.04882 8.34171 5.04882 8.14645 4.85355Z" fill="#353566"/>
<path d="M18.5226 8.17967C18.0479 8.00757 17.4366 8.00002 15.95 8.00002C15.6739 8.00002 15.45 7.77617 15.45 7.50002C15.45 7.22388 15.6739 7.00002 15.95 7.00002L16.0709 7.00001C17.3983 6.9998 18.2018 6.99967 18.8634 7.23955C19.9783 7.64375 20.8563 8.52178 21.2605 9.63663C21.5004 10.2983 21.5002 11.1017 21.5 12.4291L21.5 17.4225C21.5 18.3836 21.5 19.1355 21.4507 19.7395C21.4005 20.3541 21.2967 20.8594 21.0641 21.316C20.6806 22.0686 20.0686 22.6806 19.316 23.0641C18.8594 23.2967 18.3541 23.4005 17.7395 23.4507C17.1355 23.5 16.3836 23.5 15.4225 23.5H8.57757C7.61648 23.5 6.86453 23.5 6.26052 23.4507C5.64596 23.4005 5.14064 23.2967 4.68406 23.0641C3.93141 22.6806 3.31949 22.0686 2.936 21.316C2.70336 20.8594 2.59958 20.3541 2.54937 19.7395C2.50002 19.1355 2.50002 18.3836 2.50002 17.4225L2.50001 12.4301C2.4998 11.1023 2.49967 10.2986 2.7397 9.63681C3.14386 8.52245 4.02146 7.64474 5.13577 7.24045C5.79755 7.00034 6.60128 7.00038 7.92905 7.00043L8.04996 7.00043C8.32611 7.00039 8.54999 7.22422 8.55002 7.50037C8.55006 7.77651 8.32623 8.00039 8.05008 8.00043C6.56308 8.0006 5.95162 8.00823 5.47684 8.18049C4.6411 8.48371 3.9829 9.14199 3.67978 9.97776C3.50758 10.4526 3.50003 11.064 3.50003 12.551V17.4C3.50003 18.3884 3.50041 19.0996 3.54605 19.6581C3.59121 20.2108 3.67817 20.5699 3.82701 20.862C4.11463 21.4265 4.57357 21.8854 5.13805 22.173C5.43017 22.3219 5.78924 22.4088 6.34195 22.454C6.9005 22.4996 7.61168 22.5 8.60003 22.5H15.4C16.3884 22.5 17.0996 22.4996 17.6581 22.454C18.2108 22.4088 18.5699 22.3219 18.862 22.173C19.4265 21.8854 19.8854 21.4265 20.173 20.862C20.3219 20.5699 20.4088 20.2108 20.454 19.6581C20.4996 19.0996 20.5 18.3884 20.5 17.4V12.55C20.5 11.0634 20.4925 10.4522 20.3204 9.97748C20.0172 9.14134 19.3587 8.48282 18.5226 8.17967Z" fill="#353566"/>
</svg>
