<svg width="24" height="24" viewBox="0 0 24 24" fill="none" xmlns="http://www.w3.org/2000/svg">
<path fill-rule="evenodd" clip-rule="evenodd" d="M4.70987 7.90746C5.05264 4.13698 8.21397 1.25 12 1.25C15.786 1.25 18.9474 4.13698 19.2901 7.90746L19.468 9.86397C19.6397 11.753 20.2808 13.5691 21.3329 15.1473L21.3662 15.1972C21.6165 15.5726 21.75 16.0137 21.75 16.4648C21.75 17.7269 20.7269 18.75 19.4648 18.75H4.53518C3.27311 18.75 2.25 17.7269 2.25 16.4648C2.25 16.0137 2.38354 15.5726 2.6338 15.1972L2.66706 15.1473C3.7192 13.5691 4.36027 11.753 4.532 9.86398L4.70987 7.90746ZM12.3518 8.13529C12.3859 7.08829 13.2454 6.25 14.3007 6.25C15.3777 6.25 16.2507 7.12304 16.2507 8.2C16.2507 9.27695 15.3777 10.15 14.3007 10.15C13.7448 10.15 13.2433 9.91739 12.888 9.5442L10.6233 10.6766C10.6409 10.7818 10.65 10.8899 10.65 11C10.65 11.1102 10.6409 11.2182 10.6233 11.3234L12.8881 12.4558C13.2433 12.0827 13.7448 11.8501 14.3007 11.8501C15.3777 11.8501 16.2507 12.7231 16.2507 13.8001C16.2507 14.8771 15.3777 15.7501 14.3007 15.7501C13.2454 15.7501 12.3858 14.9118 12.3518 13.8647L9.81808 12.5979C9.50151 12.8198 9.11597 12.95 8.7 12.95C7.62304 12.95 6.75 12.077 6.75 11C6.75 9.92309 7.62304 9.05005 8.7 9.05005C9.11593 9.05005 9.50145 9.18027 9.818 9.40217L12.3518 8.13529Z" fill="#353566"/>
<path d="M10.0506 20.1243C9.84317 19.7658 9.38437 19.6433 9.02583 19.8507C8.66728 20.0581 8.54476 20.5169 8.75217 20.8754C9.39943 21.9943 10.611 22.7499 12 22.7499C13.389 22.7499 14.6006 21.9943 15.2479 20.8754C15.4553 20.5169 15.3328 20.0581 14.9742 19.8507C14.6157 19.6433 14.1569 19.7658 13.9495 20.1243C13.5593 20.7988 12.8319 21.2499 12 21.2499C11.1681 21.2499 10.4407 20.7988 10.0506 20.1243Z" fill="#353566"/>
</svg>
