<svg width="24" height="24" viewBox="0 0 24 24" fill="none" xmlns="http://www.w3.org/2000/svg">
<path fill-rule="evenodd" clip-rule="evenodd" d="M7 1.25C5.48122 1.25 4.25 2.48122 4.25 4V21.25H2C1.58579 21.25 1.25 21.5858 1.25 22C1.25 22.4142 1.58579 22.75 2 22.75H22C22.4142 22.75 22.75 22.4142 22.75 22C22.75 21.5858 22.4142 21.25 22 21.25H19.75V4C19.75 2.48122 18.5188 1.25 17 1.25H7ZM15 11C14.4477 11 14 11.4477 14 12C14 12.5523 14.4478 13 15.0001 13C15.5524 13 16.0001 12.5523 16.0001 12C16.0001 11.4477 15.5523 11 15 11Z" fill="#353566"/>
</svg>
