<svg width="24" height="24" viewBox="0 0 24 24" fill="none" xmlns="http://www.w3.org/2000/svg">
<path d="M11.0898 5.0041C10.5397 4.95453 10.0536 5.36026 10.004 5.91031C9.95447 6.46037 10.3602 6.94646 10.9103 6.99603C12.5492 7.14372 13.8563 8.45083 14.004 10.0898C14.0536 10.6399 14.5397 11.0456 15.0898 10.996C15.6398 10.9465 16.0455 10.4604 15.996 9.91031C15.7615 7.30857 13.6915 5.23855 11.0898 5.0041Z" fill="#353566"/>
<path fill-rule="evenodd" clip-rule="evenodd" d="M10.5 20C12.7631 20 14.8415 19.2086 16.4733 17.8875L21.2929 22.7071C21.6834 23.0976 22.3166 23.0976 22.7071 22.7071C23.0976 22.3166 23.0976 21.6834 22.7071 21.2929L17.8875 16.4733C19.2086 14.8415 20 12.7631 20 10.5C20 5.25329 15.7467 1 10.5 1C5.25329 1 1 5.25329 1 10.5C1 15.7467 5.25329 20 10.5 20ZM10.5 3C6.35786 3 3 6.35786 3 10.5C3 14.6421 6.35786 18 10.5 18C12.5129 18 14.3407 17.207 15.6878 15.9163C15.719 15.8731 15.754 15.8318 15.7929 15.7929C15.8318 15.754 15.8731 15.719 15.9163 15.6878C17.207 14.3407 18 12.5129 18 10.5C18 6.35786 14.6421 3 10.5 3Z" fill="#353566"/>
</svg>
