<svg width="24" height="24" viewBox="0 0 24 24" fill="none" xmlns="http://www.w3.org/2000/svg">
<g clip-path="url(#clip0_7343_914)">
<path fill-rule="evenodd" clip-rule="evenodd" d="M0.25 12C0.25 5.51065 5.51065 0.25 12 0.25C18.4893 0.25 23.75 5.51065 23.75 12C23.75 18.4893 18.4893 23.75 12 23.75C5.51065 23.75 0.25 18.4893 0.25 12ZM10.5 15.75C10.914 15.75 11.25 15.414 11.25 15C11.25 14.586 10.914 14.25 10.5 14.25H7C6.586 14.25 6.25 14.586 6.25 15C6.25 15.414 6.586 15.75 7 15.75H10.5ZM10.75 9C10.75 10.241 9.741 11.25 8.5 11.25C7.259 11.25 6.25 10.241 6.25 9C6.25 7.759 7.259 6.75 8.5 6.75C9.741 6.75 10.75 7.759 10.75 9ZM17.75 9C17.75 9.414 17.414 9.75 17 9.75H13.5C13.086 9.75 12.75 9.414 12.75 9C12.75 8.586 13.086 8.25 13.5 8.25H17C17.414 8.25 17.75 8.586 17.75 9ZM13.25 15C13.25 13.759 14.259 12.75 15.5 12.75C16.741 12.75 17.75 13.759 17.75 15C17.75 16.241 16.741 17.25 15.5 17.25C14.259 17.25 13.25 16.241 13.25 15Z" fill="#353566"/>
</g>
<defs>
<clipPath id="clip0_7343_914">
<rect width="24" height="24" fill="white"/>
</clipPath>
</defs>
</svg>
