<svg width="24" height="24" viewBox="0 0 24 24" fill="none" xmlns="http://www.w3.org/2000/svg">
<path d="M2.38667 10.3791C3.13249 6.04634 6.80736 3.07695 11.2499 2.77534V2C11.2499 1.58579 11.5857 1.25 11.9999 1.25C12.4141 1.25 12.7499 1.58579 12.7499 2V2.77534C17.1924 3.07692 20.8673 6.04631 21.6132 10.3791C21.8477 11.7419 20.6995 12.75 19.4999 12.75H12.75V19.75C12.75 21.4069 11.4068 22.75 9.74998 22.75C8.44259 22.75 7.33236 21.9141 6.92088 20.7499C6.78285 20.3594 6.98754 19.9309 7.37808 19.7929C7.76861 19.6548 8.19711 19.8595 8.33514 20.2501C8.54142 20.8337 9.09805 21.25 9.74998 21.25C10.5784 21.25 11.25 20.5784 11.25 19.75V12.75H4.49991C3.30037 12.75 2.15208 11.7419 2.38667 10.3791Z" fill="#353566"/>
</svg>
