<svg width="24" height="24" viewBox="0 0 24 24" fill="none" xmlns="http://www.w3.org/2000/svg">
<path d="M9 7.5C8.72386 7.5 8.5 7.72386 8.5 8C8.5 8.27614 8.72386 8.5 9 8.5H11.5L11.5 22C11.5 22.2761 11.7239 22.5 12 22.5C12.2762 22.5 12.5 22.2761 12.5 22L12.5 8C12.5 7.72386 12.2762 7.5 12 7.5H9Z" fill="#353566"/>
<path d="M12 2.75C11.5858 2.75 11.25 2.41421 11.25 2C11.25 1.58579 11.5858 1.25 12 1.25C12.4142 1.25 12.7501 1.58579 12.7501 2C12.7501 2.41421 12.4142 2.75 12 2.75Z" fill="#353566"/>
</svg>
