<svg width="24" height="24" viewBox="0 0 24 24" fill="none" xmlns="http://www.w3.org/2000/svg">
<path fill-rule="evenodd" clip-rule="evenodd" d="M18.935 2.785C19.847 3.163 20.587 3.903 20.964 4.815H20.963C21.249 5.504 21.249 6.254 21.249 7.75V17.699C21.249 19.496 21.249 20.399 20.84 21.201C20.478 21.911 19.912 22.478 19.201 22.84C18.4 23.249 17.497 23.249 15.699 23.249H8.29902C6.50202 23.249 5.59902 23.249 4.79702 22.84C4.08702 22.478 3.52002 21.911 3.15802 21.201C2.74902 20.399 2.74902 19.497 2.74902 17.699V7.749C2.74902 6.253 2.74902 5.503 3.03502 4.814C3.41802 3.889 4.13902 3.168 5.06502 2.785C5.63602 2.549 6.29802 2.51 7.25002 2.503V2.5C7.25002 1.535 8.03502 0.75 9.00002 0.75H15C15.965 0.75 16.75 1.535 16.75 2.5V2.503C17.702 2.51 18.364 2.548 18.935 2.785ZM9.00002 2.25C8.86202 2.25 8.75002 2.362 8.75002 2.5L8.74802 2.499V3.399C8.74802 3.652 8.74902 3.904 8.76402 4.038C8.77202 4.08 8.78502 4.119 8.81102 4.151C8.82202 4.165 8.83502 4.177 8.84902 4.188C8.88202 4.213 8.92102 4.228 8.96302 4.235C9.09402 4.25 9.34702 4.25 9.59902 4.25H14.399C14.652 4.25 14.904 4.249 15.038 4.234C15.08 4.226 15.119 4.213 15.151 4.187C15.1646 4.17633 15.1754 4.16377 15.187 4.15024L15.188 4.149C15.214 4.116 15.229 4.077 15.236 4.034C15.25 3.904 15.25 3.652 15.25 3.4V2.5C15.25 2.362 15.138 2.25 15 2.25H9.00002ZM15.6009 11.7199L12.5005 12.6242V16.9908L12.5005 16.9998C12.5005 17.5642 12.2114 18.088 11.7147 18.4606C11.2232 18.8292 10.601 19 10.0003 19C9.39952 19 8.77729 18.8292 8.28586 18.4606C7.78908 18.088 7.5 17.5642 7.5 16.9998C7.5 16.4354 7.78909 15.9116 8.28586 15.539C8.77729 15.1704 9.39952 14.9996 10.0003 14.9996C10.5167 14.9996 11.049 15.1259 11.5005 15.3955V10.2089C11.5005 9.54222 11.9405 8.95551 12.5806 8.76882L15.0609 8.0454C15.7809 7.83538 16.501 8.37542 16.501 9.12547V10.5198C16.501 11.0754 16.1343 11.5643 15.6009 11.7199Z" fill="#353566"/>
</svg>
