<svg width="24" height="24" viewBox="0 0 24 24" fill="none" xmlns="http://www.w3.org/2000/svg">
<path fill-rule="evenodd" clip-rule="evenodd" d="M18.935 2.785C19.847 3.163 20.587 3.903 20.964 4.815H20.963C21.249 5.504 21.249 6.254 21.249 7.75V17.699C21.249 19.496 21.249 20.399 20.84 21.201C20.478 21.911 19.912 22.478 19.201 22.84C18.4 23.249 17.497 23.249 15.699 23.249H8.29902C6.50202 23.249 5.59902 23.249 4.79702 22.84C4.08702 22.478 3.52002 21.911 3.15802 21.201C2.74902 20.399 2.74902 19.497 2.74902 17.699V7.749C2.74902 6.253 2.74902 5.503 3.03502 4.814C3.41802 3.889 4.13902 3.168 5.06502 2.785C5.63602 2.549 6.29802 2.51 7.25002 2.503V2.5C7.25002 1.535 8.03502 0.75 9.00002 0.75H15C15.965 0.75 16.75 1.535 16.75 2.5V2.503C17.702 2.51 18.364 2.548 18.935 2.785ZM9.00002 2.25C8.86202 2.25 8.75002 2.362 8.75002 2.5L8.74802 2.499V3.399C8.74802 3.652 8.74902 3.904 8.76402 4.038C8.77202 4.08 8.78502 4.119 8.81102 4.151C8.82202 4.165 8.83502 4.177 8.84902 4.188C8.88202 4.213 8.92102 4.228 8.96302 4.235C9.09402 4.25 9.34702 4.25 9.59902 4.25H14.399C14.652 4.25 14.904 4.249 15.038 4.234C15.08 4.226 15.119 4.213 15.151 4.187C15.1646 4.17633 15.1754 4.16377 15.187 4.15024L15.188 4.149C15.214 4.116 15.229 4.077 15.236 4.034C15.25 3.904 15.25 3.652 15.25 3.4V2.5C15.25 2.362 15.138 2.25 15 2.25H9.00002ZM10.519 8.69855C10.818 8.98517 10.8281 9.45994 10.5414 9.75897L9.26342 11.0923C9.12367 11.2381 8.93102 11.3214 8.72907 11.3233C8.52711 11.3252 8.33292 11.2456 8.19044 11.1024L7.46846 10.3772C7.17624 10.0836 7.17732 9.60872 7.47088 9.3165C7.76444 9.02427 8.23932 9.02536 8.53154 9.31892L8.71184 9.50005L9.45856 8.72101C9.74518 8.42198 10.2199 8.41192 10.519 8.69855ZM11.75 9.84009C11.75 9.42587 12.0858 9.09009 12.5 9.09009H16C16.4142 9.09009 16.75 9.42587 16.75 9.84009C16.75 10.2543 16.4142 10.5901 16 10.5901H12.5C12.0858 10.5901 11.75 10.2543 11.75 9.84009ZM10.519 12.5286C10.818 12.8153 10.8281 13.29 10.5414 13.589L9.26342 14.9224C9.12367 15.0682 8.93102 15.1515 8.72907 15.1534C8.52711 15.1553 8.33292 15.0757 8.19044 14.9325L7.46846 14.2072C7.17624 13.9137 7.17732 13.4388 7.47088 13.1466C7.76444 12.8544 8.23932 12.8554 8.53154 13.149L8.71184 13.3301L9.45856 12.5511C9.74518 12.2521 10.2199 12.242 10.519 12.5286ZM11.75 13.6702C11.75 13.256 12.0858 12.9202 12.5 12.9202H16C16.4142 12.9202 16.75 13.256 16.75 13.6702C16.75 14.0844 16.4142 14.4202 16 14.4202H12.5C12.0858 14.4202 11.75 14.0844 11.75 13.6702ZM8 17.4998C8 16.9475 8.44772 16.4998 9 16.4998C9.55228 16.4998 10.0001 16.9475 10.0001 17.4998C10.0001 18.052 9.55238 18.4998 9.0001 18.4998C8.44782 18.4998 8 18.052 8 17.4998ZM11 17.4998C11 17.0855 11.3358 16.7498 11.75 16.7498H16C16.4142 16.7498 16.75 17.0855 16.75 17.4998C16.75 17.914 16.4142 18.2498 16 18.2498H11.75C11.3358 18.2498 11 17.914 11 17.4998Z" fill="#353566"/>
</svg>
