<svg width="24" height="24" viewBox="0 0 24 24" fill="none" xmlns="http://www.w3.org/2000/svg">
<path fill-rule="evenodd" clip-rule="evenodd" d="M18.935 2.785C19.847 3.163 20.587 3.903 20.964 4.815H20.963C21.249 5.504 21.249 6.254 21.249 7.75V17.699C21.249 19.496 21.249 20.399 20.84 21.201C20.478 21.911 19.912 22.478 19.201 22.84C18.4 23.249 17.497 23.249 15.699 23.249H8.29902C6.50202 23.249 5.59902 23.249 4.79702 22.84C4.08702 22.478 3.52002 21.911 3.15802 21.201C2.74902 20.399 2.74902 19.497 2.74902 17.699V7.749C2.74902 6.253 2.74902 5.503 3.03502 4.814C3.41802 3.889 4.13902 3.168 5.06502 2.785C5.63602 2.549 6.29802 2.51 7.25002 2.503V2.5C7.25002 1.535 8.03502 0.75 9.00002 0.75H15C15.965 0.75 16.75 1.535 16.75 2.5V2.503C17.702 2.51 18.364 2.548 18.935 2.785ZM9.00002 2.25C8.86202 2.25 8.75002 2.362 8.75002 2.5L8.74802 2.499V3.399C8.74802 3.652 8.74902 3.904 8.76402 4.038C8.77202 4.08 8.78502 4.119 8.81102 4.151C8.82202 4.165 8.83502 4.177 8.84902 4.188C8.88202 4.213 8.92102 4.228 8.96302 4.235C9.09402 4.25 9.34702 4.25 9.59902 4.25H14.399C14.652 4.25 14.904 4.249 15.038 4.234C15.08 4.226 15.119 4.213 15.151 4.187C15.1646 4.17633 15.1754 4.16377 15.187 4.15024L15.188 4.149C15.214 4.116 15.229 4.077 15.236 4.034C15.25 3.904 15.25 3.652 15.25 3.4V2.5C15.25 2.362 15.138 2.25 15 2.25H9.00002ZM12.0001 9C10.7298 9 9.70007 10.0297 9.70007 11.3C9.70007 12.5703 10.7298 13.6 12.0001 13.6C13.2703 13.6 14.3001 12.5703 14.3001 11.3C14.3001 10.0297 13.2703 9 12.0001 9ZM12 14.6001C10.2939 14.6001 8.73112 15.762 8.31583 17.3755C8.27731 17.5252 8.31018 17.6843 8.40489 17.8064C8.49959 17.9286 8.64548 18.0001 8.80005 18.0001H15.2001C15.3546 18.0001 15.5005 17.9286 15.5952 17.8064C15.6899 17.6843 15.7228 17.5252 15.6843 17.3755C15.269 15.762 13.7062 14.6001 12 14.6001Z" fill="#353566"/>
</svg>
