<svg width="24" height="24" viewBox="0 0 24 24" fill="none" xmlns="http://www.w3.org/2000/svg">
<path fill-rule="evenodd" clip-rule="evenodd" d="M12.4326 1.25H6.56739C5.61495 1.24999 4.85439 1.24999 4.24013 1.30018C3.61012 1.35165 3.06824 1.45963 2.57054 1.71322C1.77085 2.12068 1.12068 2.77085 0.713223 3.57054C0.459634 4.06824 0.35165 4.61012 0.300176 5.24013C0.249989 5.85439 0.249994 6.61495 0.25 7.56738V16.4326C0.249994 17.3851 0.249989 18.1456 0.300176 18.7599C0.35165 19.3899 0.459634 19.9318 0.713223 20.4295C1.12069 21.2291 1.77085 21.8793 2.57054 22.2868C3.06824 22.5404 3.61012 22.6483 4.24013 22.6998C4.85438 22.75 5.61496 22.75 6.56737 22.75H12.4027C12.8051 22.75 13.171 22.75 13.5025 22.7466C13.8233 22.7433 14.1065 22.5363 14.207 22.2316C14.3076 21.9269 14.2031 21.592 13.9472 21.3984C13.8788 21.3467 13.813 21.289 13.7503 21.2251L11.7504 19.1851C11.4254 18.8537 11.2454 18.4067 11.2501 17.9425C11.2547 17.4784 11.4436 17.0351 11.7751 16.7102L13.7751 14.7502C14.2835 14.2519 15.0201 14.1252 15.6458 14.3727L16.1653 14.5783C16.3637 14.6569 16.5862 14.6471 16.777 14.5517C16.9678 14.4562 17.1089 14.2839 17.165 14.0781L17.3118 13.5389C17.4559 13.01 17.8292 12.6018 18.3005 12.3958C18.5735 12.2764 18.75 12.0066 18.75 11.7086V7.5673C18.75 6.6149 18.75 5.85438 18.6998 5.24013C18.6483 4.61012 18.5404 4.06824 18.2868 3.57054C17.8793 2.77085 17.2292 2.12069 16.4295 1.71322C15.9318 1.45963 15.3899 1.35165 14.7599 1.30018C14.1456 1.24999 13.385 1.24999 12.4326 1.25ZM8.04144 8.25897C8.32807 7.95994 8.31801 7.48517 8.01898 7.19855C7.71995 6.91192 7.24518 6.92198 6.95856 7.22101L6.21184 8.00005L6.03154 7.81892C5.73932 7.52536 5.26444 7.52427 4.97088 7.8165C4.67732 8.10872 4.67624 8.58359 4.96846 8.87715L5.69044 9.60244C5.83292 9.74558 6.02711 9.8252 6.22907 9.82329C6.43102 9.82138 6.62367 9.73811 6.76342 9.5923L8.04144 8.25897ZM10 7.58997C9.58579 7.58997 9.25 7.92575 9.25 8.33997C9.25 8.75418 9.58579 9.08997 10 9.08997H13.5C13.9142 9.08997 14.25 8.75418 14.25 8.33997C14.25 7.92575 13.9142 7.58997 13.5 7.58997H10ZM9.25 12.17C9.25 11.7558 9.58579 11.42 10 11.42H13.5C13.9142 11.42 14.25 11.7558 14.25 12.17C14.25 12.5843 13.9142 12.92 13.5 12.92H10C9.58579 12.92 9.25 12.5843 9.25 12.17ZM8.5 16C8.5 15.5858 8.83579 15.25 9.25 15.25H12.1935L11.2502 16.1745C11.0755 16.3457 10.9286 16.5398 10.8123 16.75H9.25C8.83579 16.75 8.5 16.4142 8.5 16ZM8.04144 12.089C8.32807 11.79 8.31801 11.3153 8.01898 11.0286C7.71995 10.742 7.24518 10.7521 6.95856 11.0511L6.21184 11.8301L6.03154 11.649C5.73932 11.3554 5.26444 11.3544 4.97088 11.6466C4.67732 11.9388 4.67624 12.4137 4.96846 12.7072L5.69044 13.4325C5.83292 13.5757 6.02711 13.6553 6.22907 13.6534C6.43102 13.6515 6.62367 13.5682 6.76342 13.4224L8.04144 12.089ZM6.5 15C5.94772 15 5.5 15.4477 5.5 16C5.5 16.5523 5.94782 17 6.5001 17C7.05238 17 7.5001 16.5523 7.5001 16C7.5001 15.4477 7.05228 15 6.5 15Z" fill="#353566"/>
<path d="M15.5357 15.4751C15.8256 15.7709 15.8208 16.2457 15.5249 16.5357L14.0607 17.9706L15.5355 19.475C15.8255 19.7707 15.8208 20.2456 15.525 20.5356C15.2292 20.8255 14.7544 20.8208 14.4644 20.525L12.4644 18.485C12.3252 18.343 12.248 18.1514 12.25 17.9525C12.252 17.7536 12.333 17.5636 12.4751 17.4243L14.4751 15.4643C14.7709 15.1744 15.2457 15.1792 15.5357 15.4751Z" fill="#353566"/>
<path d="M20.4641 15.4753C20.7538 15.1793 21.2287 15.1743 21.5247 15.4641L23.5247 17.4221C23.6668 17.5612 23.7479 17.7512 23.75 17.9501C23.752 18.1491 23.675 18.3407 23.5358 18.4828L21.5358 20.5248C21.246 20.8207 20.7711 20.8256 20.4752 20.5358C20.1793 20.246 20.1744 19.7711 20.4642 19.4752L21.9393 17.9691L20.4753 16.5359C20.1793 16.2462 20.1743 15.7713 20.4641 15.4753Z" fill="#353566"/>
<path d="M19.1819 13.2723C19.5837 13.3728 19.8281 13.78 19.7276 14.1818L17.7276 22.1818C17.6271 22.5837 17.2199 22.828 16.8181 22.7275C16.4162 22.6271 16.1719 22.2199 16.2724 21.818L18.2724 13.818C18.3728 13.4162 18.7801 13.1719 19.1819 13.2723Z" fill="#353566"/>
</svg>
