<svg width="24" height="24" viewBox="0 0 24 24" fill="none" xmlns="http://www.w3.org/2000/svg">
<path fill-rule="evenodd" clip-rule="evenodd" d="M12.4326 1.25H6.56739C5.61495 1.24999 4.85439 1.24999 4.24013 1.30018C3.61012 1.35165 3.06824 1.45963 2.57054 1.71322C1.77085 2.12068 1.12068 2.77085 0.713223 3.57054C0.459634 4.06824 0.35165 4.61012 0.300176 5.24013C0.249989 5.85439 0.249994 6.61495 0.25 7.56738V16.4326C0.249994 17.3851 0.249989 18.1456 0.300176 18.7599C0.35165 19.3899 0.459634 19.9318 0.713223 20.4295C1.12069 21.2291 1.77085 21.8793 2.57054 22.2868C3.06824 22.5404 3.61012 22.6483 4.24013 22.6998C4.85438 22.75 5.61496 22.75 6.56737 22.75L12.7914 22.7499C13.0407 22.7496 13.2736 22.6255 13.4128 22.4188C13.5521 22.212 13.5794 21.9496 13.4859 21.7185C13.334 21.3432 13.25 20.9323 13.25 20.5V17.25C13.25 16.2004 13.7461 15.2674 14.5216 14.6712L14.7019 14.5326C14.8738 14.4005 14.9801 14.2005 14.9934 13.9842L15.0074 13.7572C15.1178 11.9679 16.5095 10.6837 18.1539 10.3389C18.5013 10.266 18.75 9.95972 18.75 9.60483V7.5673C18.75 6.6149 18.75 5.85438 18.6998 5.24013C18.6483 4.61012 18.5404 4.06824 18.2868 3.57054C17.8793 2.77085 17.2292 2.12069 16.4295 1.71322C15.9318 1.45963 15.3899 1.35165 14.7599 1.30018C14.1456 1.24999 13.385 1.24999 12.4326 1.25ZM4.75 8C4.75 7.58579 5.08579 7.25 5.5 7.25H9.5C9.91421 7.25 10.25 7.58579 10.25 8C10.25 8.41421 9.91421 8.75 9.5 8.75H5.5C5.08579 8.75 4.75 8.41421 4.75 8ZM5.5 11.25C5.08579 11.25 4.75 11.5858 4.75 12C4.75 12.4142 5.08579 12.75 5.5 12.75H13.5C13.9142 12.75 14.25 12.4142 14.25 12C14.25 11.5858 13.9142 11.25 13.5 11.25H5.5ZM4.75 16C4.75 15.5858 5.08579 15.25 5.5 15.25H13.035C12.7737 15.7017 12.5983 16.2091 12.5309 16.75H5.5C5.08579 16.75 4.75 16.4142 4.75 16Z" fill="#353566"/>
<path fill-rule="evenodd" clip-rule="evenodd" d="M16 14C16 12.4006 17.4286 11.25 19 11.25C20.5714 11.25 22 12.4006 22 14V15.2677C22.8481 15.389 23.5 16.1184 23.5 17V20.75C23.5 21.7165 22.7165 22.5 21.75 22.5H16.25C15.2835 22.5 14.5 21.7165 14.5 20.75V17C14.5 16.1184 15.1519 15.389 16 15.2677V14ZM19 12.75C18.0861 12.75 17.5 13.3902 17.5 14V15H20.5V14C20.5 13.3902 19.9139 12.75 19 12.75Z" fill="#353566"/>
</svg>
