<svg width="24" height="24" viewBox="0 0 24 24" fill="none" xmlns="http://www.w3.org/2000/svg">
<path fill-rule="evenodd" clip-rule="evenodd" d="M14.9232 1.63831L18.2373 2.22268C19.1752 2.38806 19.9242 2.52012 20.5205 2.67621C21.132 2.83631 21.6469 3.03675 22.093 3.37291C22.8097 3.91304 23.3371 4.66623 23.5995 5.52453C23.7628 6.0587 23.7751 6.6111 23.7164 7.24048C23.6592 7.85403 23.5271 8.60297 23.3617 9.54073L22.0046 17.2377C21.8392 18.1756 21.7071 18.9246 21.551 19.5208C21.3909 20.1323 21.1905 20.6472 20.8543 21.0933C20.3142 21.8101 19.561 22.3375 18.7027 22.5999C18.1686 22.7632 17.6162 22.7754 16.9868 22.7167C16.3732 22.6595 15.6242 22.5274 14.6863 22.362L12.0005 21.8885L9.31381 22.3622C8.37603 22.5276 7.62702 22.6596 7.01346 22.7169C6.38408 22.7756 5.83168 22.7633 5.29751 22.6C4.43921 22.3376 3.68602 21.8102 3.14589 21.0934C2.80973 20.6473 2.60929 20.1324 2.44919 19.5209C2.2931 18.9247 2.16104 18.1757 1.99566 17.2378L0.638554 9.54123C0.473159 8.60326 0.341088 7.85427 0.283847 7.24063C0.225138 6.61125 0.237384 6.05885 0.400697 5.52468C0.663104 4.66639 1.19049 3.9132 1.90728 3.37306C2.35338 3.0369 2.86828 2.83646 3.47978 2.67637C4.076 2.52028 4.82499 2.38821 5.76297 2.22283L6.07505 2.1678C6.48297 2.09587 6.87196 2.36825 6.94389 2.77617C7.01582 3.18409 6.74344 3.57309 6.33552 3.64501L6.05556 3.69438C5.07817 3.86672 4.38965 3.98871 3.85968 4.12746C3.33821 4.26398 3.03497 4.40148 2.81 4.57101C2.3462 4.92051 2.00495 5.40787 1.83515 5.96324C1.75279 6.23263 1.7273 6.56461 1.77736 7.10132C1.82824 7.64678 1.94909 8.3355 2.12143 9.31289L3.46721 16.9452C3.63955 17.9225 3.76154 18.6111 3.90029 19.141C4.03681 19.6625 4.17431 19.9657 4.34384 20.1907C4.69334 20.6545 5.1807 20.9958 5.73607 21.1656C6.00545 21.2479 6.33743 21.2734 6.87415 21.2233C7.24152 21.1891 7.67388 21.1231 8.21566 21.031C7.96435 20.921 7.7323 20.7901 7.51637 20.6274C6.79959 20.0873 6.2722 19.3341 6.00979 18.4758C5.84648 17.9416 5.83423 17.3892 5.89294 16.7598C5.95018 16.1462 6.08225 15.3972 6.24765 14.4592L7.60475 6.7627C7.77014 5.82475 7.9022 5.07574 8.05829 4.47954C8.21838 3.86803 8.41882 3.35313 8.75498 2.90703C9.29512 2.19025 10.0483 1.66286 10.9066 1.40045C11.4408 1.23714 11.9932 1.22489 12.6226 1.2836C13.2362 1.34084 13.9852 1.47292 14.9232 1.63831ZM14.492 6.65418C14.7368 6.98838 14.6642 7.45768 14.33 7.7024L12.8399 8.79355C12.6769 8.91287 12.4728 8.96143 12.2735 8.92824C12.0743 8.89505 11.8969 8.78291 11.7815 8.61721L11.1964 7.77757C10.9596 7.43772 11.0431 6.97025 11.383 6.73345C11.7228 6.49664 12.1903 6.58017 12.4271 6.92001L12.5732 7.1297L13.4438 6.49217C13.778 6.24745 14.2473 6.31999 14.492 6.65418ZM15.4367 8.3861C15.5086 7.97818 15.8976 7.70581 16.3055 7.77773L19.26 8.29868C19.6679 8.37061 19.9403 8.7596 19.8683 9.16752C19.7964 9.57544 19.4074 9.84782 18.9995 9.77589L16.0451 9.25494C15.6372 9.18302 15.3648 8.79402 15.4367 8.3861ZM14.7421 12.3253C14.8141 11.9174 15.203 11.645 15.611 11.7169L18.5654 12.2379C18.9733 12.3098 19.2457 12.6988 19.1738 13.1067C19.1018 13.5146 18.7128 13.787 18.3049 13.7151L15.3505 13.1942C14.9426 13.1222 14.6702 12.7332 14.7421 12.3253ZM13.7975 10.5934C14.0422 10.9276 13.9696 11.3969 13.6354 11.6416L12.1453 12.7328C11.9824 12.8521 11.7782 12.9006 11.579 12.8674C11.3797 12.8343 11.2023 12.7221 11.0869 12.5564L10.5018 11.7168C10.265 11.3769 10.3485 10.9095 10.6884 10.6727C11.0282 10.4358 11.4957 10.5194 11.7325 10.8592L11.8786 11.0689L12.7493 10.4314C13.0835 10.1867 13.5528 10.2592 13.7975 10.5934ZM14.0475 16.2645C14.1195 15.8566 14.5085 15.5842 14.9164 15.6562L17.8708 16.1771C18.2787 16.249 18.5511 16.638 18.4792 17.0459C18.4073 17.4539 18.0183 17.7262 17.6103 17.6543L14.6559 17.1334C14.248 17.0614 13.9756 16.6724 14.0475 16.2645ZM13.1029 14.5326C13.3476 14.8668 13.2751 15.3361 12.9409 15.5808L11.4507 16.672C11.2878 16.7913 11.0836 16.8398 10.8844 16.8067C10.6852 16.7735 10.5078 16.6613 10.3923 16.4956L9.80723 15.656C9.57042 15.3161 9.65395 14.8487 9.99379 14.6119C10.3336 14.3751 10.8011 14.4586 11.0379 14.7984L11.184 15.0081L12.0547 14.3706C12.3889 14.1259 12.8582 14.1984 13.1029 14.5326Z" fill="#353566"/>
</svg>
