<svg width="24" height="24" viewBox="0 0 24 24" fill="none" xmlns="http://www.w3.org/2000/svg">
<path fill-rule="evenodd" clip-rule="evenodd" d="M12.4326 1.25H6.56739C5.61495 1.24999 4.85439 1.24999 4.24013 1.30018C3.61012 1.35165 3.06824 1.45963 2.57054 1.71322C1.77085 2.12068 1.12068 2.77085 0.713223 3.57054C0.459634 4.06824 0.35165 4.61012 0.300176 5.24013C0.249989 5.85439 0.249994 6.61495 0.25 7.56738V16.4326C0.249994 17.3851 0.249989 18.1456 0.300176 18.7599C0.35165 19.3899 0.459634 19.9318 0.713223 20.4295C1.12069 21.2291 1.77085 21.8793 2.57054 22.2868C3.06824 22.5404 3.61012 22.6483 4.24013 22.6998C4.85438 22.75 5.61496 22.75 6.56737 22.75H12.4652C13.6387 22.75 14.5293 22.7501 15.2271 22.6477C15.5033 22.6071 15.7342 22.4165 15.8262 22.153C15.9183 21.8894 15.8564 21.5965 15.6655 21.3928C14.333 19.9708 13.25 18.1776 13.25 16.002C13.25 13.1288 15.3588 10.7434 18.1145 10.3177C18.4802 10.2612 18.75 9.94649 18.75 9.57649V7.5673C18.75 6.6149 18.75 5.85438 18.6998 5.24013C18.6483 4.61012 18.5404 4.06824 18.2868 3.57054C17.8793 2.77085 17.2292 2.12069 16.4295 1.71322C15.9318 1.45963 15.3899 1.35165 14.7599 1.30018C14.1456 1.24999 13.385 1.24999 12.4326 1.25ZM8.04144 8.01898C8.32807 7.71995 8.31801 7.24518 8.01898 6.95856C7.71995 6.67193 7.24518 6.68199 6.95856 6.98102L6.21184 7.76006L6.03154 7.57893C5.73932 7.28537 5.26444 7.28428 4.97088 7.57651C4.67732 7.86873 4.67624 8.3436 4.96846 8.63716L5.69044 9.36245C5.83292 9.50559 6.02711 9.58521 6.22907 9.5833C6.43102 9.58139 6.62367 9.49812 6.76342 9.35231L8.04144 8.01898ZM10 7.34998C9.58579 7.34998 9.25 7.68576 9.25 8.09998C9.25 8.51419 9.58579 8.84998 10 8.84998H13.5C13.9142 8.84998 14.25 8.51419 14.25 8.09998C14.25 7.68576 13.9142 7.34998 13.5 7.34998H10ZM9.25 11.9301C9.25 11.5158 9.58579 11.1801 10 11.1801H13.5C13.808 11.1801 14.0726 11.3657 14.1881 11.6312C13.8958 11.9531 13.6353 12.3043 13.4116 12.6801H10C9.58579 12.6801 9.25 12.3443 9.25 11.9301ZM10 15.01H12.5752C12.5257 15.3335 12.5 15.6648 12.5 16.002C12.5 16.1737 12.506 16.343 12.5177 16.51H10C9.58579 16.51 9.25 16.1742 9.25 15.76C9.25 15.3458 9.58579 15.01 10 15.01ZM8.04144 11.8491C8.32807 11.55 8.31801 11.0753 8.01898 10.7886C7.71995 10.502 7.24518 10.5121 6.95856 10.8111L6.21184 11.5901L6.03154 11.409C5.73932 11.1154 5.26444 11.1144 4.97088 11.4066C4.67732 11.6988 4.67624 12.1737 4.96846 12.4672L5.69044 13.1925C5.83292 13.3357 6.02711 13.4153 6.22907 13.4134C6.43102 13.4115 6.62367 13.3282 6.76342 13.1824L8.04144 11.8491ZM8.04144 15.679C8.32807 15.38 8.31801 14.9052 8.01898 14.6186C7.71995 14.332 7.24518 14.342 6.95856 14.6411L6.21184 15.4201L6.03154 15.239C5.73932 14.9454 5.26444 14.9443 4.97088 15.2365C4.67732 15.5288 4.67624 16.0036 4.96846 16.2972L5.69044 17.0225C5.83292 17.1656 6.02711 17.2452 6.22907 17.2433C6.43102 17.2414 6.62367 17.1582 6.76342 17.0123L8.04144 15.679Z" fill="#353566"/>
<path fill-rule="evenodd" clip-rule="evenodd" d="M14.5 16.002C14.5 13.517 16.5144 11.5 19.0001 11.5C21.4854 11.5 23.5 13.5147 23.5 16C23.5 18.7667 21.3 20.9 19.3 22.4C19.1222 22.5333 18.8778 22.5333 18.7 22.4C16.7001 20.9001 14.5 18.7667 14.5 16.002ZM19 17.5001C19.8285 17.5001 20.5 16.8285 20.5 16.0001C20.5 15.1716 19.8285 14.5001 19 14.5001C18.1716 14.5001 17.5 15.1716 17.5 16.0001C17.5 16.8285 18.1716 17.5001 19 17.5001Z" fill="#353566"/>
</svg>
