<svg width="24" height="24" viewBox="0 0 24 24" fill="none" xmlns="http://www.w3.org/2000/svg">
<path fill-rule="evenodd" clip-rule="evenodd" d="M13.423 22.75C13.9573 22.7502 14.3475 22.7504 14.7232 22.6602C15.0548 22.5806 15.3718 22.4493 15.6626 22.2711C15.992 22.0692 16.2678 21.7932 16.6455 21.4152L21.4152 16.6455C21.7932 16.2678 22.0692 15.992 22.2711 15.6626C22.4493 15.3718 22.5806 15.0548 22.6602 14.7232C22.7504 14.3475 22.7502 13.9573 22.75 13.423L22.75 8.36708C22.75 7.2749 22.75 6.40937 22.693 5.71173C22.6347 4.99835 22.5131 4.39472 22.2323 3.84355C21.7769 2.94978 21.0502 2.22312 20.1565 1.76772C19.6053 1.48688 19.0017 1.36527 18.2883 1.30699C17.5906 1.24999 16.7252 1.24999 15.633 1.25H8.36698C7.27484 1.25 6.40935 1.24999 5.71173 1.30699C4.99834 1.36528 4.39472 1.48688 3.84354 1.76772C2.94977 2.22312 2.22312 2.94978 1.76772 3.84355C1.48688 4.39472 1.36527 4.99835 1.30699 5.71174C1.24999 6.40936 1.24999 7.27486 1.25 8.367V15.633C1.24999 16.7251 1.24999 17.5906 1.30699 18.2883C1.36527 19.0017 1.48688 19.6053 1.76772 20.1565C2.22312 21.0502 2.94978 21.7769 3.84355 22.2323C4.39472 22.5131 4.99834 22.6347 5.71173 22.693C6.40936 22.75 7.27486 22.75 8.367 22.75L13.423 22.75ZM18 15H20.9075C20.8059 15.1296 20.6419 15.2974 20.2981 15.6412L15.6412 20.2981C15.2974 20.6419 15.1296 20.8059 15 20.9075V18C15 16.3431 16.3431 15 18 15Z" fill="#353566"/>
</svg>
