<svg width="24" height="24" viewBox="0 0 24 24" fill="none" xmlns="http://www.w3.org/2000/svg">
<path opacity="0.4" d="M13.1887 6.27153L21.5459 10.2797C22.1513 10.5701 22.1512 11.4321 21.5458 11.7224L13.1886 15.7298C12.4368 16.0903 11.5622 16.0903 10.8105 15.7298L2.45336 11.7224C1.84793 11.432 1.8479 10.5701 2.45331 10.2797L10.8103 6.27154C11.5621 5.91095 12.4369 5.91095 13.1887 6.27153Z" fill="#353566"/>
<path d="M17 2.5C16.7239 2.5 16.5 2.72386 16.5 3C16.5 3.27614 16.7239 3.5 17 3.5H22C22.2761 3.5 22.5 3.27614 22.5 3C22.5 2.72386 22.2761 2.5 22 2.5H17Z" fill="#353566"/>
<path fill-rule="evenodd" clip-rule="evenodd" d="M10.5941 5.82071C11.4826 5.39456 12.5164 5.39456 13.405 5.8207L21.7621 9.82886C22.7459 10.3007 22.7458 11.7015 21.762 12.1732L13.4048 16.1807C12.5164 16.6067 11.4827 16.6067 10.5943 16.1807L2.23717 12.1732C1.25334 11.7014 1.25329 10.3007 2.23708 9.82886L10.5941 5.82071ZM12.9725 6.72236C12.3574 6.42734 11.6416 6.42734 11.0265 6.72237L2.66953 10.7305C2.4425 10.8394 2.44252 11.1627 2.66955 11.2715L11.0267 15.279C11.6417 15.5739 12.3573 15.5739 12.9724 15.279L21.3296 11.2715C21.5566 11.1627 21.5567 10.8394 21.3296 10.7305L12.9725 6.72236Z" fill="#353566"/>
<path d="M3.73116 14.6666C3.85058 14.9156 3.74554 15.2142 3.49656 15.3336L2.66929 15.7304C2.44226 15.8393 2.44227 16.1625 2.66931 16.2714L11.0264 20.2789C11.6415 20.5738 12.3571 20.5738 12.9721 20.2789L21.3294 16.2714C21.5564 16.1625 21.5564 15.8393 21.3294 15.7304L20.5024 15.3338C20.2535 15.2144 20.1484 14.9157 20.2678 14.6667C20.3873 14.4178 20.6859 14.3127 20.9349 14.4321L21.7618 14.8287C22.7456 15.3006 22.7456 16.7013 21.7617 17.1731L13.4045 21.1806C12.5161 21.6066 11.4824 21.6066 10.594 21.1805L2.23692 17.1731C1.2531 16.7013 1.25305 15.3006 2.23684 14.8287L3.06411 14.432C3.31309 14.3126 3.61174 14.4176 3.73116 14.6666Z" fill="#353566"/>
</svg>
