<svg width="24" height="24" viewBox="0 0 24 24" fill="none" xmlns="http://www.w3.org/2000/svg">
<g opacity="0.4">
<path d="M9 5.5C9 7.433 7.433 9 5.5 9C3.567 9 2 7.433 2 5.5C2 3.567 3.567 2 5.5 2C7.433 2 9 3.567 9 5.5Z" fill="#353566"/>
<path d="M9 18.5C9 20.433 7.433 22 5.5 22C3.567 22 2 20.433 2 18.5C2 16.567 3.567 15 5.5 15C7.433 15 9 16.567 9 18.5Z" fill="#353566"/>
</g>
<path fill-rule="evenodd" clip-rule="evenodd" d="M1.5 5.5C1.5 3.29086 3.29086 1.5 5.5 1.5C7.70914 1.5 9.5 3.29086 9.5 5.5C9.5 6.16491 9.33777 6.79192 9.05073 7.34362L22.3536 20.6464C22.5488 20.8417 22.5488 21.1583 22.3536 21.3536C22.1583 21.5488 21.8417 21.5488 21.6464 21.3536L13 12.7071L9.05073 16.6564C9.33777 17.2081 9.5 17.8351 9.5 18.5C9.5 20.7091 7.70914 22.5 5.5 22.5C3.29086 22.5 1.5 20.7091 1.5 18.5C1.5 16.2909 3.29086 14.5 5.5 14.5C6.67909 14.5 7.73902 15.0102 8.4711 15.8218L12.2929 12L8.4711 8.17821C7.73902 8.98984 6.67909 9.5 5.5 9.5C3.29086 9.5 1.5 7.70914 1.5 5.5ZM5.5 2.5C3.84315 2.5 2.5 3.84315 2.5 5.5C2.5 7.15685 3.84315 8.5 5.5 8.5C7.15685 8.5 8.5 7.15685 8.5 5.5C8.5 3.84315 7.15685 2.5 5.5 2.5ZM5.5 15.5C3.84315 15.5 2.5 16.8431 2.5 18.5C2.5 20.1569 3.84315 21.5 5.5 21.5C7.15685 21.5 8.5 20.1569 8.5 18.5C8.5 16.8431 7.15685 15.5 5.5 15.5Z" fill="#353566"/>
<path d="M22.3536 3.35355C22.5488 3.15829 22.5488 2.84171 22.3536 2.64645C22.1583 2.45118 21.8417 2.45118 21.6464 2.64645L15.1464 9.14645C14.9512 9.34171 14.9512 9.65829 15.1464 9.85355C15.3417 10.0488 15.6583 10.0488 15.8536 9.85355L22.3536 3.35355Z" fill="#353566"/>
</svg>
