<svg width="24" height="24" viewBox="0 0 24 24" fill="none" xmlns="http://www.w3.org/2000/svg">
<path opacity="0.4" fill-rule="evenodd" clip-rule="evenodd" d="M4.69336 7.5C4.55267 7.5 4.4185 7.55927 4.32375 7.66327C4.229 7.76727 4.18245 7.90637 4.19552 8.04645L5.09748 17.7133C5.16754 18.4642 5.22284 19.0569 5.30523 19.5333C5.38944 20.0201 5.50773 20.4244 5.72423 20.7885C6.07922 21.3857 6.60388 21.8637 7.23141 22.1617C7.61412 22.3434 8.02764 22.4236 8.5202 22.4622C9.00212 22.5 9.59738 22.5 10.3515 22.5H13.6477C14.4018 22.5 14.9971 22.5 15.479 22.4622C15.9716 22.4236 16.3851 22.3434 16.7678 22.1617C17.3954 21.8637 17.92 21.3857 18.275 20.7886C18.4915 20.4244 18.6098 20.0201 18.694 19.5333C18.7764 19.0569 18.8317 18.4643 18.9018 17.7134L19.8038 8.04645C19.8168 7.90637 19.7703 7.76727 19.6755 7.66327C19.5808 7.55927 19.4466 7.5 19.3059 7.5H4.69336ZM12 15.6C10.2939 15.6 8.73112 16.7619 8.31583 18.3754C8.27731 18.5251 8.31018 18.6842 8.40489 18.8064C8.49959 18.9285 8.64548 19 8.80005 19H15.2001C15.3546 19 15.5005 18.9285 15.5952 18.8064C15.6899 18.6842 15.7228 18.5251 15.6843 18.3754C15.269 16.7619 13.7062 15.6 12 15.6ZM9.70007 12.3C9.70007 11.0297 10.7298 10 12.0001 10C13.2703 10 14.3001 11.0297 14.3001 12.3C14.3001 13.5703 13.2703 14.6 12.0001 14.6C10.7298 14.6 9.70007 13.5703 9.70007 12.3Z" fill="#353566"/>
<path fill-rule="evenodd" clip-rule="evenodd" d="M10.2185 1.50003C9.81317 1.49978 9.50727 1.4996 9.22161 1.58635C8.97003 1.66275 8.73598 1.78801 8.53286 1.95496C8.30222 2.14452 8.13269 2.39915 7.90805 2.73654L7.29645 3.65398C7.01869 4.07062 6.93336 4.18944 6.83218 4.2726C6.73062 4.35607 6.6136 4.4187 6.48781 4.4569C6.36249 4.49496 6.2163 4.50005 5.71556 4.50005H5L4.99684 4.50006H3C2.72386 4.50006 2.5 4.72392 2.5 5.00006C2.5 5.2762 2.72386 5.50006 3 5.50006H21C21.2761 5.50006 21.5 5.2762 21.5 5.00006C21.5 4.72392 21.2761 4.50006 21 4.50006H19.0032L19 4.50005H18.2844C17.7837 4.50005 17.6375 4.49496 17.5122 4.4569C17.3864 4.4187 17.2694 4.35607 17.1678 4.2726C17.0666 4.18944 16.9813 4.07062 16.7035 3.65398L16.092 2.73655C15.8673 2.39915 15.6978 2.14453 15.4671 1.95496C15.264 1.78801 15.03 1.66275 14.7784 1.58635C14.4927 1.4996 14.1868 1.49978 13.7815 1.50003H10.2185ZM16.0671 4.50006C16.0163 4.42618 15.9639 4.34747 15.9081 4.26365L15.2965 3.34612C15.0187 2.92948 14.9334 2.81066 14.8322 2.72751C14.7306 2.64403 14.6136 2.5814 14.4878 2.5432C14.3625 2.50514 14.2163 2.50005 13.7156 2.50005H10.2844C9.7837 2.50005 9.63751 2.50514 9.51219 2.5432C9.3864 2.5814 9.26938 2.64403 9.16782 2.72751C9.06664 2.81066 8.98131 2.92948 8.70355 3.34612L8.09195 4.26356C8.03616 4.34736 7.98366 4.4262 7.93288 4.50006H16.0671Z" fill="#353566"/>
<path d="M4.64731 7.5022C4.92226 7.47654 5.16594 7.67864 5.1916 7.95358L6.0916 17.5995C6.16405 18.376 6.21606 18.9297 6.291 19.3628C6.36488 19.7899 6.4552 20.0606 6.5842 20.2776C6.83777 20.7041 7.21252 21.0455 7.66076 21.2584C7.8888 21.3666 8.16664 21.4314 8.59876 21.4653C9.03704 21.4997 9.59316 21.5 10.373 21.5H13.627C14.4069 21.5 14.963 21.4997 15.4013 21.4653C15.8334 21.4314 16.1112 21.3666 16.3393 21.2584C16.7875 21.0455 17.1623 20.7041 17.4158 20.2776C17.5448 20.0606 17.6352 19.79 17.709 19.3629C17.784 18.9297 17.836 18.376 17.9084 17.5995L18.8085 7.95358C18.8342 7.67863 19.0778 7.47654 19.3528 7.5022C19.6277 7.52785 19.8298 7.77154 19.8042 8.04649L18.9022 17.7134C18.8321 18.4643 18.7768 19.057 18.6944 19.5333C18.6102 20.0201 18.4919 20.4244 18.2754 20.7886C17.9204 21.3857 17.3958 21.8637 16.7682 22.1617C16.3855 22.3434 15.972 22.4236 15.4794 22.4623C14.9976 22.5 14.4024 22.5 13.6483 22.5H10.352C9.5979 22.5 9.00248 22.5 8.52059 22.4623C8.02804 22.4236 7.61452 22.3434 7.23181 22.1617C6.60428 21.8637 6.07962 21.3857 5.72463 20.7886C5.50813 20.4244 5.38984 20.0201 5.30563 19.5333C5.22324 19.057 5.16794 18.4643 5.09788 17.7134L4.19592 8.04648C4.17027 7.77154 4.37236 7.52785 4.64731 7.5022Z" fill="#353566"/>
<path d="M12 16.6001C10.7241 16.6001 9.57945 17.4779 9.28427 18.6247C9.21544 18.8922 8.94284 19.0531 8.67542 18.9843C8.40799 18.9155 8.247 18.6429 8.31583 18.3755C8.73111 16.762 10.2939 15.6001 12 15.6001C13.7062 15.6001 15.269 16.762 15.6843 18.3755C15.7531 18.6429 15.5921 18.9155 15.3247 18.9843C15.0572 19.0531 14.7847 18.8922 14.7158 18.6247C14.4206 17.4779 13.276 16.6001 12 16.6001Z" fill="#353566"/>
<path fill-rule="evenodd" clip-rule="evenodd" d="M12.0001 10.0001C10.7298 10.0001 9.70007 11.0298 9.70007 12.3001C9.70007 13.5703 10.7298 14.6001 12.0001 14.6001C13.2703 14.6001 14.3001 13.5703 14.3001 12.3001C14.3001 11.0298 13.2703 10.0001 12.0001 10.0001ZM10.7001 12.3001C10.7001 11.5821 11.2821 11.0001 12.0001 11.0001C12.718 11.0001 13.3001 11.5821 13.3001 12.3001C13.3001 13.018 12.718 13.6001 12.0001 13.6001C11.2821 13.6001 10.7001 13.018 10.7001 12.3001Z" fill="#353566"/>
</svg>
