<svg width="24" height="24" viewBox="0 0 24 24" fill="none" xmlns="http://www.w3.org/2000/svg">
<g clip-path="url(#clip0_9001_279874)">
<path d="M0.630138 9.74988C0.534362 9.74988 0.451846 9.81774 0.43494 9.91201C0.313426 10.5896 0.25 11.2873 0.25 11.9999C0.25 12.7124 0.313426 13.4102 0.43494 14.0877C0.451846 14.182 0.534362 14.2499 0.630138 14.2499H6.62262C6.7391 14.2499 6.83088 14.1507 6.82277 14.0345C6.77462 13.3442 6.75 12.6613 6.75 11.9999C6.75 11.3384 6.77462 10.6556 6.82277 9.96522C6.83088 9.84902 6.7391 9.74988 6.62262 9.74988H0.630138Z" fill="#353566"/>
<path d="M1.13943 15.7499C1.00268 15.7499 0.90636 15.8842 0.95306 16.0127C2.23761 19.5481 5.17101 22.2923 8.82359 23.3155C8.9973 23.3642 9.13702 23.1704 9.04813 23.0134C8.64339 22.2987 8.29656 21.4524 8.00453 20.5413C7.55865 19.1501 7.22295 17.5516 7.01155 15.9251C6.99855 15.8251 6.91351 15.7499 6.81259 15.7499H1.13943Z" fill="#353566"/>
<path d="M12.0368 23.7498L12 23.7499L11.9583 23.7498C11.6247 23.7327 11.2098 23.5077 10.739 22.8732C10.2572 22.224 9.81126 21.2638 9.43295 20.0835C9.03871 18.8534 8.73338 17.4339 8.53175 15.9757C8.51521 15.8561 8.60847 15.7499 8.72921 15.7499H15.2229C15.3449 15.7499 15.4385 15.8581 15.42 15.9786C15.3133 16.674 15.1819 17.3734 15.0273 18.0543C14.8378 18.1502 14.6541 18.2624 14.4773 18.395C13.6468 19.0179 13.05 19.9932 13.05 21.1497C13.05 21.6724 13.1693 22.1531 13.3787 22.5815C13.3344 22.6525 13.2898 22.7209 13.2448 22.7865C12.7568 23.4979 12.3416 23.7325 12.0368 23.7498Z" fill="#353566"/>
<path d="M21.1508 11.3627C22.107 11.0838 23.0633 11.3341 23.7497 11.9111C23.7446 11.2293 23.6815 10.5614 23.5651 9.91201C23.5482 9.81774 23.4656 9.74988 23.3699 9.74988H17.3774C17.2609 9.74988 17.1691 9.84902 17.1772 9.96522C17.2254 10.6556 17.25 11.3384 17.25 11.9999C17.25 12.3945 17.2382 12.8093 17.215 13.2384C17.6163 12.6619 18.2089 12.2208 18.9185 12.0138L21.1508 11.3627Z" fill="#353566"/>
<path d="M22.8606 8.24988C22.9973 8.24988 23.0936 8.11558 23.0469 7.98705C21.7624 4.4516 18.829 1.70744 15.1764 0.684246C15.0027 0.635585 14.8629 0.829322 14.9518 0.9863C15.3566 1.70105 15.7034 2.5473 15.9954 3.45846C16.4413 4.84961 16.777 6.44815 16.9884 8.07461C17.0014 8.17469 17.0865 8.24988 17.1874 8.24988H22.8606Z" fill="#353566"/>
<path d="M9.04813 0.986312C9.13702 0.829333 8.9973 0.635596 8.82358 0.684259C5.17101 1.70746 2.23761 4.45161 0.95306 7.98705C0.90636 8.11558 1.00268 8.24988 1.13943 8.24988H6.81259C6.91351 8.24988 6.99855 8.17469 7.01155 8.07461C7.22295 6.44815 7.55865 4.84961 8.00453 3.45847C8.29656 2.54731 8.64339 1.70106 9.04813 0.986312Z" fill="#353566"/>
<path d="M12 0.249878C12.3405 0.249878 12.7703 0.465342 13.261 1.12652C13.7428 1.77579 14.1887 2.73594 14.567 3.91629C14.9613 5.14634 15.2666 6.56587 15.4682 8.02407C15.4848 8.14368 15.3915 8.24988 15.2708 8.24988H8.72921C8.60847 8.24988 8.51521 8.14368 8.53175 8.02407C8.73338 6.56587 9.03871 5.14634 9.43295 3.91629C9.81126 2.73594 10.2572 1.77578 10.739 1.12652C11.2296 0.465341 11.6594 0.249878 12 0.249878Z" fill="#353566"/>
<path d="M8.32889 14.0659C8.33662 14.1698 8.42345 14.2499 8.52768 14.2499H15.4534C15.5565 14.2499 15.6428 14.1715 15.6519 14.0687C15.7166 13.3392 15.75 12.6397 15.75 11.9999C15.75 11.3284 15.7232 10.6342 15.6711 9.93388C15.6634 9.82993 15.5765 9.74988 15.4723 9.74988H8.52768C8.42345 9.74988 8.33662 9.82993 8.32889 9.93388C8.27684 10.6342 8.25 11.3284 8.25 11.9999C8.25 12.6714 8.27684 13.3656 8.32889 14.0659Z" fill="#353566"/>
<path d="M22.6009 16.2198L19.5005 17.1241V21.4908L19.5005 21.4998C19.5005 22.0642 19.2114 22.588 18.7146 22.9606C18.2232 23.3291 17.601 23.5 17.0003 23.5C16.3995 23.5 15.7773 23.3291 15.2859 22.9606C14.7891 22.588 14.5 22.0642 14.5 21.4998C14.5 20.9354 14.7891 20.4116 15.2859 20.039C15.7773 19.6704 16.3995 19.4996 17.0003 19.4996C17.5167 19.4996 18.049 19.6258 18.5005 19.8954V14.7089C18.5005 14.0422 18.9405 13.4555 19.5806 13.2688L22.0609 12.5453C22.7809 12.3353 23.501 12.8754 23.501 13.6254V15.0197C23.501 15.5753 23.1343 16.0643 22.6009 16.2198Z" fill="#353566"/>
</g>
<defs>
<clipPath id="clip0_9001_279874">
<rect width="24" height="24" fill="white"/>
</clipPath>
</defs>
</svg>
