<svg width="24" height="24" viewBox="0 0 24 24" fill="none" xmlns="http://www.w3.org/2000/svg">
<g clip-path="url(#clip0_9001_279539)">
<path d="M10.709 14.352L12.036 13.025C12.329 13.165 12.654 13.25 13 13.25C14.241 13.25 15.25 12.241 15.25 11C15.25 9.75899 14.241 8.74999 13 8.74999C11.759 8.74999 10.75 9.75899 10.75 11C10.75 11.346 10.835 11.671 10.975 11.964L9.648 13.291L4.534 8.17599C4.186 7.82799 3.708 7.64799 3.224 7.66799C2.756 7.69299 2.336 7.90599 2.042 8.26999C0.786 9.82499 0.25 11.512 0.25 13.913C0.25 19.429 4.571 23.75 10.086 23.75C12.487 23.75 14.175 23.214 15.729 21.958C16.092 21.665 16.306 21.245 16.331 20.777C16.356 20.293 16.171 19.815 15.823 19.467L10.709 14.352ZM13 10.25C13.414 10.25 13.75 10.586 13.75 11C13.75 11.414 13.414 11.75 13 11.75C12.586 11.75 12.25 11.414 12.25 11C12.25 10.586 12.586 10.25 13 10.25ZM23.75 12.006C23.747 12.418 23.412 12.751 23 12.751H22.995C22.581 12.748 22.247 12.41 22.25 11.996C22.27 9.17999 21.231 6.57999 19.326 4.67499C17.438 2.78799 14.867 1.75099 12.079 1.75099C12.053 1.75099 12.027 1.75299 12 1.75099C11.588 1.75099 11.253 1.41799 11.25 1.00599C11.247 0.591994 11.581 0.253994 11.995 0.250994C15.221 0.225994 18.196 1.42399 20.386 3.61399C22.577 5.80499 23.773 8.78499 23.75 12.006ZM17.815 6.18499C19.089 7.45899 19.776 9.17299 19.749 11.011C19.743 11.422 19.408 11.75 18.999 11.75H18.988C18.573 11.744 18.243 11.403 18.249 10.989C18.27 9.55899 17.739 8.22999 16.754 7.24499C15.77 6.25999 14.446 5.70999 13.01 5.74999C12.601 5.76299 12.255 5.42499 12.249 5.01099C12.243 4.59699 12.574 4.25699 12.988 4.24999C14.83 4.22399 16.541 4.90999 17.814 6.18399L17.815 6.18499Z" fill="#353566"/>
</g>
<defs>
<clipPath id="clip0_9001_279539">
<rect width="24" height="24" fill="white"/>
</clipPath>
</defs>
</svg>
