<svg width="24" height="24" viewBox="0 0 24 24" fill="none" xmlns="http://www.w3.org/2000/svg">
<path d="M12 5C7.95036 5 4.31491 6.54595 1.71424 9.1999C1.3277 9.59436 0.694565 9.60078 0.3001 9.21424C-0.094364 8.8277 -0.100785 8.19456 0.285759 7.8001C3.27537 4.74923 7.43142 3 12 3C15.2485 3 18.2901 3.8842 20.8535 5.49532C21.3211 5.78921 21.4619 6.40651 21.168 6.87411C20.8741 7.34171 20.2568 7.48253 19.7892 7.18864C17.5533 5.78338 14.8824 5 12 5Z" fill="#353566"/>
<path d="M12.7522 8.98041C12.7645 9.53256 12.3269 9.99017 11.7748 10.0025C9.23489 10.0593 6.92673 11.0793 5.18716 12.7246C4.78593 13.1041 4.15301 13.0865 3.7735 12.6853C3.39399 12.284 3.4116 11.6511 3.81284 11.2716C5.89521 9.30201 8.67119 8.07137 11.7301 8.00301C12.2822 7.99067 12.7398 8.42826 12.7522 8.98041Z" fill="#353566"/>
<path d="M10.9383 14.0039C11.1416 14.5174 10.8901 15.0985 10.3766 15.3018C9.84763 15.5112 9.3653 15.8256 8.93348 16.23C8.53033 16.6074 7.89751 16.5866 7.52003 16.1835C7.14256 15.7803 7.16337 15.1475 7.56652 14.77C8.16457 14.2101 8.85718 13.7522 9.64044 13.4422C10.154 13.2389 10.735 13.4904 10.9383 14.0039Z" fill="#353566"/>
<path d="M10.75 19C10.75 18.3096 11.3096 17.75 12 17.75C12.6904 17.75 13.2501 18.3096 13.2501 19C13.2501 19.6904 12.6905 20.25 12.0001 20.25C11.3097 20.25 10.75 19.6904 10.75 19Z" fill="#353566"/>
<path fill-rule="evenodd" clip-rule="evenodd" d="M18 8.25C14.8244 8.25 12.25 10.8244 12.25 14C12.25 17.1756 14.8244 19.75 18 19.75C21.1756 19.75 23.75 17.1756 23.75 14C23.75 10.8244 21.1756 8.25 18 8.25ZM20.4419 11.5581C20.686 11.8021 20.686 12.1979 20.4419 12.4419L16.4419 16.4419C16.1979 16.686 15.8021 16.686 15.5581 16.4419C15.314 16.1979 15.314 15.8021 15.5581 15.5581L19.5581 11.5581C19.8021 11.314 20.1979 11.314 20.4419 11.5581ZM15.75 12.5C15.75 12.0858 16.0858 11.75 16.5 11.75C16.9142 11.75 17.2501 12.0858 17.2501 12.5C17.2501 12.9142 16.9143 13.25 16.5001 13.25C16.0859 13.25 15.75 12.9142 15.75 12.5ZM19.5 14.75C19.0858 14.75 18.75 15.0858 18.75 15.5C18.75 15.9142 19.0858 16.25 19.5 16.25C19.9142 16.25 20.2501 15.9142 20.2501 15.5C20.2501 15.0858 19.9142 14.75 19.5 14.75Z" fill="#353566"/>
</svg>
