<svg width="24" height="24" viewBox="0 0 24 24" fill="none" xmlns="http://www.w3.org/2000/svg">
<g clip-path="url(#clip0_9001_275697)">
<path d="M1.75 11C1.75 5.89137 5.89137 1.75 11 1.75C16.1086 1.75 20.25 5.89137 20.25 11C20.25 11.4858 20.2126 11.9624 20.1407 12.4272C20.0773 12.8366 20.3578 13.2197 20.7671 13.2831C21.1765 13.3465 21.5597 13.066 21.623 12.6566C21.7067 12.1162 21.75 11.5629 21.75 11C21.75 5.06294 16.9371 0.25 11 0.25C5.06294 0.25 0.25 5.06294 0.25 11C0.25 13.0416 0.819848 14.9523 1.80949 16.5793L1.02746 18.7298C0.519627 20.1264 1.8736 21.4804 3.27015 20.9725L5.42072 20.1905C6.904 21.0928 8.62336 21.6462 10.4632 21.7368C10.8769 21.7572 11.2288 21.4383 11.2492 21.0246C11.2696 20.6109 10.9507 20.259 10.537 20.2386C8.91945 20.159 7.41233 19.6642 6.11828 18.8585C5.79731 18.6587 5.39258 18.6047 5.01816 18.7408L2.75754 19.5628C2.55803 19.6354 2.3646 19.442 2.43715 19.2425L3.2592 16.9818C3.39535 16.6074 3.34131 16.2027 3.14147 15.8817C2.25957 14.4653 1.75 12.7933 1.75 11Z" fill="#353566"/>
<path d="M15.75 9C15.75 9.41421 15.4142 9.75 15 9.75H7C6.58579 9.75 6.25 9.41421 6.25 9C6.25 8.58579 6.58579 8.25 7 8.25H15C15.4142 8.25 15.75 8.58579 15.75 9Z" fill="#353566"/>
<path d="M12 13.75H7C6.58579 13.75 6.25 13.4142 6.25 13C6.25 12.5858 6.58579 12.25 7 12.25H12C12.4142 12.25 12.75 12.5858 12.75 13C12.75 13.4142 12.4142 13.75 12 13.75Z" fill="#353566"/>
<path fill-rule="evenodd" clip-rule="evenodd" d="M18 16.875C16.8252 16.875 15.875 17.8252 15.875 19C15.875 20.1748 16.8252 21.125 18 21.125C19.1748 21.125 20.125 20.1748 20.125 19C20.125 17.8252 19.1748 16.875 18 16.875ZM17.125 19C17.125 18.5156 17.5156 18.125 18 18.125C18.4844 18.125 18.875 18.5156 18.875 19C18.875 19.4844 18.4844 19.875 18 19.875C17.5156 19.875 17.125 19.4844 17.125 19Z" fill="#353566"/>
<path fill-rule="evenodd" clip-rule="evenodd" d="M18 14.25C20.3145 14.25 22.5739 15.665 23.6301 18.3627C23.79 18.771 23.79 19.229 23.6301 19.6373C22.5739 22.335 20.3145 23.75 18 23.75C15.6855 23.75 13.4261 22.335 12.3699 19.6373C12.21 19.229 12.21 18.771 12.3699 18.3627C13.4261 15.665 15.6855 14.25 18 14.25ZM18 15.75C16.3319 15.75 14.6086 16.7591 13.7667 18.9096C13.7444 18.9663 13.7444 19.0337 13.7667 19.0904C14.6086 21.2409 16.3319 22.25 18 22.25C19.6681 22.25 21.3914 21.2409 22.2333 19.0904C22.2556 19.0337 22.2556 18.9663 22.2333 18.9096C21.3914 16.7591 19.6681 15.75 18 15.75Z" fill="#353566"/>
</g>
<defs>
<clipPath id="clip0_9001_275697">
<rect width="24" height="24" fill="white"/>
</clipPath>
</defs>
</svg>
