<svg width="24" height="24" viewBox="0 0 24 24" fill="none" xmlns="http://www.w3.org/2000/svg">
<g clip-path="url(#clip0_9001_275707)">
<path d="M1.75 10.9998C1.75 5.89112 5.89137 1.74976 11 1.74976C15.7962 1.74976 19.7406 5.40059 20.2043 10.0743C20.2452 10.4865 20.6125 10.7875 21.0247 10.7466C21.4369 10.7057 21.7379 10.3384 21.697 9.92622C21.1578 4.49283 16.5749 0.249756 11 0.249756C5.06294 0.249756 0.25 5.06269 0.25 10.9998C0.25 13.0414 0.819848 14.9521 1.80949 16.579L1.02746 18.7296C0.519627 20.1262 1.8736 21.4801 3.27015 20.9723L5.42072 20.1903C6.87071 21.0723 8.54633 21.621 10.3397 21.7298C10.7532 21.7549 11.1087 21.44 11.1337 21.0266C11.1588 20.6131 10.844 20.2576 10.4305 20.2325C8.85341 20.1369 7.38395 19.6463 6.11828 18.8583C5.79731 18.6584 5.39258 18.6044 5.01816 18.7406L2.75754 19.5626C2.55803 19.6352 2.3646 19.4417 2.43715 19.2422L3.2592 16.9816C3.39535 16.6072 3.34131 16.2024 3.14147 15.8815C2.25957 14.4651 1.75 12.7931 1.75 10.9998Z" fill="#353566"/>
<path d="M15.75 8.99976C15.75 9.41397 15.4142 9.74976 15 9.74976H7C6.58579 9.74976 6.25 9.41397 6.25 8.99976C6.25 8.58554 6.58579 8.24976 7 8.24976H15C15.4142 8.24976 15.75 8.58554 15.75 8.99976Z" fill="#353566"/>
<path d="M12 13.7498H7C6.58579 13.7498 6.25 13.414 6.25 12.9998C6.25 12.5855 6.58579 12.2498 7 12.2498H12C12.4142 12.2498 12.75 12.5855 12.75 12.9998C12.75 13.414 12.4142 13.7498 12 13.7498Z" fill="#353566"/>
<path fill-rule="evenodd" clip-rule="evenodd" d="M19.7348 12.6539C20.5068 12.1169 21.5313 12.1167 22.3036 12.6533C22.47 12.769 22.6273 12.9264 22.81 13.1092L22.8906 13.1898C23.0736 13.3725 23.2312 13.5297 23.3469 13.6961C23.8841 14.4682 23.8843 15.4931 23.3474 16.2654C23.2317 16.4318 23.0742 16.5891 22.8913 16.7718L16.9076 22.7567C16.8079 22.8564 16.6821 22.926 16.5446 22.9575L13.1674 23.7309C12.9157 23.7885 12.6521 23.7127 12.4696 23.53C12.287 23.3474 12.2113 23.0837 12.269 22.832L13.0433 19.4587C13.0748 19.3214 13.1444 19.1958 13.2439 19.0962L19.2286 13.11C19.4112 12.9271 19.5684 12.7696 19.7348 12.6539ZM21.4476 13.8851C21.1902 13.7062 20.8487 13.7063 20.5913 13.8853C20.5503 13.9138 20.4951 13.9647 20.2491 14.2108L19.7705 14.6896L21.3114 16.2305L21.7902 15.7516C22.0363 15.5054 22.0872 15.4503 22.1158 15.4092C22.2948 15.1518 22.2947 14.8101 22.1156 14.5528C22.0871 14.5117 22.0361 14.4566 21.7899 14.2105C21.5438 13.9645 21.4886 13.9136 21.4476 13.8851ZM20.2508 17.2912L18.71 15.7504L14.4571 20.0043L13.9986 22.0017L15.9994 21.5435L20.2508 17.2912Z" fill="#353566"/>
</g>
<defs>
<clipPath id="clip0_9001_275707">
<rect width="24" height="24" fill="white"/>
</clipPath>
</defs>
</svg>
