<svg width="24" height="24" viewBox="0 0 24 24" fill="none" xmlns="http://www.w3.org/2000/svg">
<g clip-path="url(#clip0_9001_275582)">
<path d="M11 1.75C5.89137 1.75 1.75 5.89137 1.75 11C1.75 12.7933 2.25957 14.4653 3.14147 15.8817C3.34131 16.2027 3.39535 16.6074 3.2592 16.9818L2.43715 19.2425C2.3646 19.442 2.55803 19.6354 2.75754 19.5628L5.01815 18.7408C5.39257 18.6047 5.79731 18.6587 6.11828 18.8585C7.4315 19.6762 8.96418 20.1736 10.6091 20.2419C11.0229 20.2591 11.3445 20.6085 11.3273 21.0224C11.3102 21.4362 10.9607 21.7578 10.5469 21.7406C8.67553 21.6629 6.9265 21.1064 5.42072 20.1905L3.27015 20.9725C1.8736 21.4804 0.519627 20.1264 1.02746 18.7298L1.80949 16.5793C0.819848 14.9523 0.25 13.0416 0.25 11C0.25 5.06294 5.06294 0.25 11 0.25C16.7853 0.25 21.5028 4.81967 21.7406 10.5469C21.7578 10.9607 21.4362 11.3102 21.0224 11.3273C20.6085 11.3445 20.2591 11.0229 20.2419 10.6091C20.0374 5.68206 15.9777 1.75 11 1.75Z" fill="#353566"/>
<path d="M15 9.75C15.4142 9.75 15.75 9.41421 15.75 9C15.75 8.58579 15.4142 8.25 15 8.25H7C6.58579 8.25 6.25 8.58579 6.25 9C6.25 9.41421 6.58579 9.75 7 9.75H15Z" fill="#353566"/>
<path d="M7 13.75H12C12.4142 13.75 12.75 13.4142 12.75 13C12.75 12.5858 12.4142 12.25 12 12.25H7C6.58579 12.25 6.25 12.5858 6.25 13C6.25 13.4142 6.58579 13.75 7 13.75Z" fill="#353566"/>
<path d="M19.9419 16.9419C20.186 16.6979 20.186 16.3021 19.9419 16.0581C19.6978 15.814 19.3021 15.814 19.058 16.0581L18 17.116L16.9419 16.058C16.6979 15.8139 16.3021 15.8139 16.0581 16.058C15.814 16.3021 15.814 16.6978 16.0581 16.9419L17.1161 17.9999L16.058 19.0581C15.8139 19.3021 15.8139 19.6979 16.058 19.9419C16.3021 20.186 16.6978 20.186 16.9419 19.9419L18 18.8838L19.0581 19.9419C19.3022 20.186 19.6979 20.186 19.942 19.9419C20.1861 19.6978 20.1861 19.3021 19.942 19.058L18.8839 17.9999L19.9419 16.9419Z" fill="#353566"/>
<path fill-rule="evenodd" clip-rule="evenodd" d="M18 12.25C14.8244 12.25 12.25 14.8244 12.25 18C12.25 21.1756 14.8244 23.75 18 23.75C21.1756 23.75 23.75 21.1756 23.75 18C23.75 14.8244 21.1756 12.25 18 12.25ZM13.75 18C13.75 15.6528 15.6528 13.75 18 13.75C20.3472 13.75 22.25 15.6528 22.25 18C22.25 20.3472 20.3472 22.25 18 22.25C15.6528 22.25 13.75 20.3472 13.75 18Z" fill="#353566"/>
</g>
<defs>
<clipPath id="clip0_9001_275582">
<rect width="24" height="24" fill="white"/>
</clipPath>
</defs>
</svg>
