<svg width="24" height="24" viewBox="0 0 24 24" fill="none" xmlns="http://www.w3.org/2000/svg">
<path fill-rule="evenodd" clip-rule="evenodd" d="M7.5 9.75C6.25736 9.75 5.25 10.7574 5.25 12C5.25 13.2426 6.25736 14.25 7.5 14.25C8.01955 14.25 8.49796 14.0739 8.87883 13.7781L12.2508 15.4641C12.2506 15.4761 12.2505 15.488 12.2505 15.5C12.2505 16.7426 13.2578 17.75 14.5005 17.75C15.7431 17.75 16.7505 16.7426 16.7505 15.5C16.7505 14.2574 15.7431 13.25 14.5005 13.25C13.8097 13.25 13.1917 13.5613 12.779 14.0512L9.69243 12.5079C9.73009 12.3447 9.75 12.1747 9.75 12C9.75 11.8253 9.73009 11.6553 9.69244 11.4921L12.779 9.94883C13.1917 10.4387 13.8097 10.75 14.5005 10.75C15.7431 10.75 16.7505 9.74264 16.7505 8.5C16.7505 7.25736 15.7431 6.25 14.5005 6.25C13.2578 6.25 12.2505 7.25736 12.2505 8.5L12.2508 8.53589L8.87883 10.2219C8.49797 9.9261 8.01955 9.75 7.5 9.75ZM6.75 12C6.75 11.5858 7.08579 11.25 7.5 11.25C7.91421 11.25 8.25 11.5858 8.25 12C8.25 12.4142 7.91421 12.75 7.5 12.75C7.08579 12.75 6.75 12.4142 6.75 12ZM14.5005 7.75C14.0863 7.75 13.7505 8.08579 13.7505 8.5C13.7505 8.91421 14.0863 9.25 14.5005 9.25C14.9147 9.25 15.2505 8.91421 15.2505 8.5C15.2505 8.08579 14.9147 7.75 14.5005 7.75ZM13.7505 15.5C13.7505 15.0858 14.0863 14.75 14.5005 14.75C14.9147 14.75 15.2505 15.0858 15.2505 15.5C15.2505 15.9142 14.9147 16.25 14.5005 16.25C14.0863 16.25 13.7505 15.9142 13.7505 15.5Z" fill="#353566"/>
<path fill-rule="evenodd" clip-rule="evenodd" d="M12 1.25C6.06294 1.25 1.25 6.06294 1.25 12C1.25 14.0416 1.81985 15.9523 2.80949 17.5793L2.02746 19.7298C1.51963 21.1264 2.8736 22.4804 4.27015 21.9725L6.42072 21.1905C8.04768 22.1802 9.9584 22.75 12 22.75C17.9371 22.75 22.75 17.9371 22.75 12C22.75 6.06294 17.9371 1.25 12 1.25ZM2.75 12C2.75 6.89137 6.89137 2.75 12 2.75C17.1086 2.75 21.25 6.89137 21.25 12C21.25 17.1086 17.1086 21.25 12 21.25C10.2067 21.25 8.53471 20.7404 7.11828 19.8585C6.79731 19.6587 6.39258 19.6047 6.01816 19.7408L3.75754 20.5628C3.55803 20.6354 3.3646 20.442 3.43715 20.2425L4.2592 17.9818C4.39535 17.6074 4.34132 17.2027 4.14147 16.8817C3.25957 15.4653 2.75 13.7933 2.75 12Z" fill="#353566"/>
</svg>
