<svg width="24" height="24" viewBox="0 0 24 24" fill="none" xmlns="http://www.w3.org/2000/svg">
<g clip-path="url(#clip0_9001_276007)">
<path d="M11 1.75C5.89137 1.75 1.75 5.89137 1.75 11C1.75 12.7933 2.25957 14.4653 3.14147 15.8817C3.34131 16.2027 3.39535 16.6074 3.2592 16.9818L2.43715 19.2425C2.3646 19.442 2.55803 19.6354 2.75754 19.5628L5.01815 18.7408C5.39257 18.6047 5.79731 18.6587 6.11828 18.8585C7.53471 19.7404 9.2067 20.25 11 20.25C11.1096 20.25 11.2188 20.2481 11.3275 20.2443C11.7414 20.2299 12.0887 20.5539 12.103 20.9678C12.1174 21.3818 11.7935 21.729 11.3795 21.7434C11.2536 21.7478 11.127 21.75 11 21.75C8.9584 21.75 7.04768 21.1802 5.42072 20.1905L3.27015 20.9725C1.8736 21.4804 0.519627 20.1264 1.02746 18.7298L1.80949 16.5793C0.819848 14.9523 0.25 13.0416 0.25 11C0.25 5.06294 5.06294 0.25 11 0.25C16.9371 0.25 21.75 5.06294 21.75 11L21.7499 11.0381C21.7485 11.4524 21.4115 11.7869 20.9973 11.7855C20.5831 11.784 20.2485 11.447 20.2499 11.0328L20.25 11C20.25 5.89137 16.1086 1.75 11 1.75Z" fill="#353566"/>
<path d="M10 11C10 10.4477 10.4477 10 11 10C11.5523 10 12.0001 10.4477 12.0001 11C12.0001 11.5523 11.5524 12 11.0001 12C10.4478 12 10 11.5523 10 11Z" fill="#353566"/>
<path d="M7 10C6.44772 10 6 10.4477 6 11C6 11.5523 6.44772 12 7 12C7.55228 12 8.0001 11.5523 8.0001 11C8.0001 10.4477 7.55228 10 7 10Z" fill="#353566"/>
<path d="M14 11C14 10.4477 14.4477 10 15 10C15.5523 10 16.0001 10.4477 16.0001 11C16.0001 11.5523 15.5524 12 15.0001 12C14.4478 12 14 11.5523 14 11Z" fill="#353566"/>
<path fill-rule="evenodd" clip-rule="evenodd" d="M22.8767 19.5938C24.0424 17.9761 23.9754 15.8953 23.0653 14.6621C22.335 13.6726 21.085 13.0497 19.8484 13.3089C19.1567 13.4553 18.5154 13.7626 18 14.2484C17.4847 13.7626 16.8434 13.4553 16.1517 13.3089C14.914 13.052 13.6662 13.671 12.9348 14.6621C12.0246 15.8953 11.9578 17.9761 13.1234 19.5938C13.9146 20.6919 15.5055 22.1469 16.5095 23.0245C16.5312 23.0435 16.553 23.0626 16.575 23.082C16.842 23.3168 17.1312 23.5712 17.5042 23.6815C17.8196 23.7747 18.1805 23.7747 18.4959 23.6815C18.8689 23.5712 19.1582 23.3167 19.4252 23.0819C19.4471 23.0626 19.4689 23.0434 19.4905 23.0245C20.4946 22.1469 22.0854 20.6919 22.8767 19.5938ZM18.5943 15.835C19.0107 15.2942 19.4779 14.9209 20.1575 14.7767C20.6186 14.6815 21.3302 14.8371 21.8584 15.5528C22.3491 16.2178 22.4772 17.5824 21.6597 18.7169C20.9852 19.653 19.528 20.9995 18.5034 21.8951C18.4786 21.9168 18.4519 21.9407 18.424 21.9657C18.3094 22.0684 18.1752 22.1887 18.0727 22.2423C18.0291 22.2581 17.9711 22.2582 17.9274 22.2423C17.825 22.1888 17.6908 22.0686 17.5762 21.9658C17.5483 21.9408 17.5216 21.9168 17.4967 21.8951C16.4721 20.9995 15.0149 19.653 14.3404 18.7169C13.5229 17.5824 13.6509 16.2178 14.1417 15.5528C14.6699 14.8371 15.3814 14.6815 15.8426 14.7767C16.5222 14.9209 16.9894 15.2942 17.4058 15.835C17.5478 16.0194 17.7673 16.1274 18 16.1274C18.2328 16.1274 18.4523 16.0194 18.5943 15.835Z" fill="#353566"/>
</g>
<defs>
<clipPath id="clip0_9001_276007">
<rect width="24" height="24" fill="white"/>
</clipPath>
</defs>
</svg>
