<svg width="24" height="24" viewBox="0 0 24 24" fill="none" xmlns="http://www.w3.org/2000/svg">
<path opacity="0.4" d="M20.3675 14.8209C20.7756 13.7934 21 12.6729 21 11.5C21 6.52944 16.9706 2.5 12 2.5C7.02944 2.5 3 6.52944 3 11.5C3 16.4706 7.02944 20.5 12 20.5C12.622 20.5 13.2293 20.4369 13.8157 20.3168C13.7905 20.1112 13.7816 19.884 13.7816 19.628C13.6662 19.6073 13.5471 19.5897 13.4267 19.572C12.8735 19.4904 12.2918 19.4047 11.9011 18.9842C11.3372 18.3772 11.3721 17.4281 11.9791 16.8643C13.557 15.3983 15.6751 14.5 17.9993 14.5C18.8193 14.5 19.6136 14.6118 20.3675 14.8209Z" fill="#353566"/>
<path d="M4.8 1.5C5.15367 1.5 5.48737 1.57948 5.78545 1.72108C6.03488 1.83957 6.33314 1.73343 6.45163 1.484C6.57012 1.23457 6.46397 0.936313 6.21455 0.817822C5.78522 0.613873 5.30521 0.5 4.8 0.5C2.97746 0.5 1.5 1.97746 1.5 3.8C1.5 4.30521 1.61387 4.78522 1.81782 5.21455C1.93631 5.46397 2.23457 5.57012 2.484 5.45163C2.73343 5.33314 2.83957 5.03488 2.72108 4.78545C2.57948 4.48737 2.5 4.15367 2.5 3.8C2.5 2.52975 3.52974 1.5 4.8 1.5Z" fill="#353566"/>
<path d="M18.2145 1.72108C18.5126 1.57948 18.8463 1.5 19.2 1.5C20.4703 1.5 21.5 2.52975 21.5 3.8C21.5 4.15367 21.4205 4.48737 21.2789 4.78545C21.1604 5.03488 21.2666 5.33314 21.516 5.45163C21.7654 5.57012 22.0637 5.46397 22.1822 5.21455C22.3861 4.78522 22.5 4.30521 22.5 3.8C22.5 1.97746 21.0225 0.5 19.2 0.5C18.6948 0.5 18.2148 0.613873 17.7855 0.817822C17.536 0.936313 17.4299 1.23457 17.5484 1.484C17.6669 1.73343 17.9651 1.83957 18.2145 1.72108Z" fill="#353566"/>
<path d="M12 3C7.30558 3 3.5 6.80558 3.5 11.5C3.5 16.1944 7.30558 20 12 20C12.6117 20 13.2083 19.9354 13.7834 19.8126C13.7912 20.204 13.8269 20.5249 13.9227 20.8053C13.3017 20.933 12.6587 21 12 21C9.68398 21 7.56153 20.1712 5.91304 18.7941L3.35355 21.3536C3.15829 21.5488 2.84171 21.5488 2.64645 21.3536C2.45118 21.1583 2.45118 20.8417 2.64645 20.6464L5.17973 18.1132C3.52105 16.4029 2.5 14.0707 2.5 11.5C2.5 6.25329 6.75329 2 12 2C17.2467 2 21.5 6.25329 21.5 11.5C21.5 12.7241 21.2685 13.8941 20.8469 14.9686C20.5312 14.8614 20.2076 14.7714 19.8771 14.6999C20.2787 13.7122 20.5 12.632 20.5 11.5C20.5 6.80558 16.6944 3 12 3Z" fill="#353566"/>
<path d="M12 6C12.2761 6 12.5 6.22386 12.5 6.5V11.5C12.5 11.7761 12.2761 12 12 12C11.7239 12 11.5 11.7761 11.5 11.5V6.5C11.5 6.22386 11.7239 6 12 6Z" fill="#353566"/>
<path d="M13.3403 18.3295C14.5628 17.1938 16.1995 16.5 17.9993 16.5C19.7998 16.5 21.437 17.1943 22.6596 18.3307C22.8619 18.5187 23.1782 18.5071 23.3662 18.3049C23.5542 18.1026 23.5427 17.7862 23.3404 17.5982C21.9401 16.2967 20.0622 15.5 17.9993 15.5C15.9372 15.5 14.0598 16.2961 12.6597 17.5969C12.4574 17.7849 12.4457 18.1012 12.6337 18.3035C12.8216 18.5058 13.138 18.5175 13.3403 18.3295Z" fill="#353566"/>
<path d="M18.0032 19.8333C17.1459 19.8333 16.3645 20.1949 15.7897 20.7913C15.5981 20.9902 15.2815 20.996 15.0827 20.8044C14.8839 20.6127 14.878 20.2962 15.0697 20.0974C15.8194 19.3195 16.8553 18.8333 18.0032 18.8333C19.1511 18.8333 20.187 19.3195 20.9368 20.0974C21.1284 20.2962 21.1225 20.6127 20.9237 20.8044C20.7249 20.996 20.4084 20.9902 20.2167 20.7913C19.6419 20.1949 18.8605 19.8333 18.0032 19.8333Z" fill="#353566"/>
<path d="M18 21.625C17.5168 21.625 17.125 22.0168 17.125 22.5C17.125 22.9832 17.5168 23.375 18 23.375C18.4832 23.375 18.8751 22.9832 18.8751 22.5C18.8751 22.0168 18.4832 21.625 18 21.625Z" fill="#353566"/>
</svg>
