<svg width="24" height="24" viewBox="0 0 24 24" fill="none" xmlns="http://www.w3.org/2000/svg">
<g clip-path="url(#clip0_9001_303696)">
<path opacity="0.4" d="M1.1 8.5H20.9C20.9552 8.5 21 8.54477 21 8.6V12.5472C20.5729 12.4774 20.1318 12.4818 19.693 12.5738C19.0375 12.7126 18.484 12.9469 18 13.2828C17.4902 12.929 16.9068 12.6995 16.3011 12.5726C14.9692 12.2961 13.3753 12.8007 12.3313 14.2153C11.2114 15.7328 11.1751 18.1716 12.5148 20.0308C13.1952 20.9751 14.3936 22.1309 15.3544 23H6.6C4.63982 23 3.65972 23 2.91103 22.6185C2.25247 22.283 1.71703 21.7475 1.38148 21.089C1 20.3403 1 19.3602 1 17.4V8.6C1 8.54478 1.04478 8.5 1.1 8.5Z" fill="#353566"/>
<path fill-rule="evenodd" clip-rule="evenodd" d="M7.5 1C7.5 0.723858 7.27614 0.5 7 0.5C6.72386 0.5 6.5 0.723858 6.5 1V2.5C5.57588 2.50003 4.84817 2.50133 4.26049 2.54935C3.64594 2.59956 3.14062 2.70334 2.68404 2.93597C1.93139 3.31947 1.31947 3.93139 0.935974 4.68404C0.703335 5.14062 0.599557 5.64594 0.549346 6.26049C0.499995 6.86451 0.499997 7.61646 0.5 8.57754V17.4224C0.499997 18.3835 0.499995 19.1355 0.549346 19.7395C0.599557 20.3541 0.703335 20.8594 0.935974 21.316C1.31947 22.0686 1.93139 22.6805 2.68404 23.064C3.14062 23.2967 3.64594 23.4004 4.26049 23.4507C4.86451 23.5 5.61646 23.5 6.57754 23.5H15.4225C15.5932 23.5 15.7574 23.5 15.9153 23.4997C15.5921 23.2159 15.2091 22.8728 14.8108 22.5H6.6C5.61166 22.5 4.90047 22.4996 4.34192 22.454C3.78921 22.4088 3.43014 22.3219 3.13803 22.173C2.57354 21.8854 2.1146 21.4265 1.82698 20.862C1.67814 20.5699 1.59118 20.2108 1.54602 19.6581C1.50039 19.0995 1.5 18.3883 1.5 17.4V9H20.5V12.5003C20.8406 12.5085 21.1765 12.5653 21.5 12.664V8.57754C21.5 7.61646 21.5 6.86451 21.4507 6.26049C21.4004 5.64594 21.2967 5.14062 21.064 4.68404C20.6805 3.93139 20.0686 3.31947 19.316 2.93597C18.8594 2.70334 18.3541 2.59956 17.7395 2.54935C17.1518 2.50133 16.4241 2.50003 15.5 2.5V1C15.5 0.723858 15.2761 0.5 15 0.5C14.7239 0.5 14.5 0.723858 14.5 1V2.5H7.5V1ZM20.4995 8C20.4977 7.31305 20.4898 6.78044 20.454 6.34192C20.4088 5.78921 20.3219 5.43014 20.173 5.13803C19.8854 4.57354 19.4265 4.1146 18.862 3.82698C18.5699 3.67814 18.2108 3.59118 17.6581 3.54602C17.0995 3.50039 16.3883 3.5 15.4 3.5H6.6C5.61166 3.5 4.90047 3.50039 4.34192 3.54602C3.78921 3.59118 3.43014 3.67814 3.13803 3.82698C2.57354 4.1146 2.1146 4.57354 1.82698 5.13803C1.67814 5.43014 1.59118 5.78921 1.54602 6.34192C1.5102 6.78044 1.50226 7.31305 1.5005 8H20.4995Z" fill="#353566"/>
<path d="M5.75 13.5C5.75 13.0858 6.08579 12.75 6.5 12.75C6.91421 12.75 7.2501 13.0858 7.2501 13.5C7.2501 13.9142 6.91431 14.25 6.5001 14.25C6.08589 14.25 5.75 13.9142 5.75 13.5Z" fill="#353566"/>
<path d="M11 12.75C10.5858 12.75 10.25 13.0858 10.25 13.5C10.25 13.9142 10.5858 14.25 11 14.25C11.4142 14.25 11.7501 13.9142 11.7501 13.5C11.7501 13.0858 11.4142 12.75 11 12.75Z" fill="#353566"/>
<path d="M5.75 17.5C5.75 17.0858 6.08579 16.75 6.5 16.75C6.91421 16.75 7.2501 17.0858 7.2501 17.5C7.2501 17.9142 6.91431 18.25 6.5001 18.25C6.08589 18.25 5.75 17.9142 5.75 17.5Z" fill="#353566"/>
<path fill-rule="evenodd" clip-rule="evenodd" d="M22.8641 14.8092C22.0491 13.7049 20.847 13.3556 19.9021 13.5517L19.9002 13.5521C19.166 13.7076 18.5143 14.0554 18 14.6007C17.4857 14.0554 16.8341 13.7076 16.0999 13.5521L16.0979 13.5517C15.153 13.3556 13.951 13.7049 13.136 14.8092C12.2957 15.9478 12.2186 17.9092 13.3262 19.4463C14.098 20.5175 15.6666 21.9544 16.6741 22.8349C16.6931 22.8516 16.712 22.8682 16.7307 22.8846C17.0093 23.129 17.2574 23.3465 17.5751 23.4404C17.8441 23.5199 18.1559 23.5199 18.425 23.4404C18.7426 23.3465 18.9907 23.129 19.2692 22.8847C19.288 22.8682 19.3069 22.8516 19.326 22.8349C20.3335 21.9543 21.902 20.5175 22.6739 19.4463C23.7815 17.9092 23.7044 15.9477 22.8641 14.8092ZM20.1063 14.5307C20.6641 14.4153 21.4738 14.6095 22.0595 15.403C22.6202 16.1627 22.738 17.6467 21.8626 18.8617C21.1685 19.8248 19.6891 21.1894 18.6679 22.082C18.2983 22.4051 18.2221 22.4576 18.1415 22.4814C18.0575 22.5063 17.9426 22.5063 17.8585 22.4814C17.7779 22.4576 17.7018 22.4051 17.3322 22.082C16.3109 21.1894 14.8315 19.8248 14.1375 18.8617C13.262 17.6467 13.3799 16.1627 13.9406 15.403C14.5262 14.6095 15.336 14.4153 15.8938 14.5307C16.6317 14.6871 17.1513 15.0935 17.6039 15.6812C17.6985 15.8041 17.8449 15.8761 18 15.8761C18.1552 15.8761 18.3015 15.8041 18.3962 15.6812C18.8487 15.0935 19.3684 14.6871 20.1063 14.5307Z" fill="#353566"/>
</g>
<defs>
<clipPath id="clip0_9001_303696">
<rect width="24" height="24" fill="white"/>
</clipPath>
</defs>
</svg>
