<svg width="24" height="24" viewBox="0 0 24 24" fill="none" xmlns="http://www.w3.org/2000/svg">
<g clip-path="url(#clip0_9001_303711)">
<path opacity="0.4" d="M1.1 8.5H20.9C20.9552 8.5 21 8.54477 21 8.6V14.5H19.2676L18.9145 13.4989C18.5592 12.4915 17.2086 12.17 16.4393 12.9393L14.4393 14.9393C13.8401 15.5385 14.0199 16.266 14.1978 16.9853C14.2025 17.0045 14.2073 17.0237 14.212 17.0428C14.1716 17.0974 14.1305 17.1515 14.0895 17.2056C13.7938 17.5949 13.5 17.9819 13.5 18.5V19.5C13.5 21.1569 14.8431 22.5 16.5 22.5H18.7323L18.816 22.7372C18.098 23 17.1312 23 15.4 23H6.6C4.63982 23 3.65972 23 2.91103 22.6185C2.25247 22.283 1.71703 21.7475 1.38148 21.089C1 20.3403 1 19.3602 1 17.4V8.6C1 8.54478 1.04478 8.5 1.1 8.5Z" fill="#353566"/>
<path fill-rule="evenodd" clip-rule="evenodd" d="M7 0.5C7.27614 0.5 7.5 0.723858 7.5 1V2.5H14.5V1C14.5 0.723858 14.7239 0.5 15 0.5C15.2761 0.5 15.5 0.723858 15.5 1V2.5C16.4241 2.50003 17.1518 2.50133 17.7395 2.54935C18.3541 2.59956 18.8594 2.70334 19.316 2.93597C20.0686 3.31947 20.6805 3.93139 21.064 4.68404C21.2967 5.14062 21.4004 5.64594 21.4507 6.26049C21.5 6.86451 21.5 7.61646 21.5 8.57754L21.5 14.5H20.5V9H1.5V17.4C1.5 18.3883 1.50039 19.0995 1.54602 19.6581C1.59118 20.2108 1.67814 20.5699 1.82698 20.862C2.1146 21.4265 2.57354 21.8854 3.13803 22.173C3.43014 22.3219 3.78921 22.4088 4.34192 22.454C4.90047 22.4996 5.61166 22.5 6.6 22.5H15.4C15.7618 22.5 16.0864 22.4999 16.38 22.4976C16.4198 22.4992 16.4598 22.5 16.5 22.5H18.7323L18.9823 23.2087C18.6137 23.3429 18.2084 23.4123 17.7395 23.4507C17.1355 23.5 16.3835 23.5 15.4225 23.5H6.57754C5.61646 23.5 4.86451 23.5 4.26049 23.4507C3.64594 23.4004 3.14062 23.2967 2.68404 23.064C1.93139 22.6805 1.31947 22.0686 0.935974 21.316C0.703335 20.8594 0.599557 20.3541 0.549346 19.7395C0.499995 19.1355 0.499997 18.3835 0.5 17.4225V8.57755C0.499997 7.61646 0.499995 6.86451 0.549346 6.26049C0.599557 5.64594 0.703335 5.14062 0.935974 4.68404C1.31947 3.93139 1.93139 3.31947 2.68404 2.93597C3.14062 2.70334 3.64594 2.59956 4.26049 2.54935C4.84817 2.50133 5.57588 2.50003 6.5 2.5V1C6.5 0.723858 6.72386 0.5 7 0.5ZM20.454 6.34192C20.4898 6.78044 20.4977 7.31305 20.4995 8H1.5005C1.50226 7.31305 1.5102 6.78044 1.54602 6.34192C1.59118 5.78921 1.67814 5.43014 1.82698 5.13803C2.1146 4.57354 2.57354 4.1146 3.13803 3.82698C3.43014 3.67814 3.78921 3.59118 4.34192 3.54602C4.90047 3.50039 5.61166 3.5 6.6 3.5H15.4C16.3883 3.5 17.0995 3.50039 17.6581 3.54602C18.2108 3.59118 18.5699 3.67814 18.862 3.82698C19.4265 4.1146 19.8854 4.57354 20.173 5.13803C20.3219 5.43014 20.4088 5.78921 20.454 6.34192Z" fill="#353566"/>
<path d="M6.5 12.75C6.08579 12.75 5.75 13.0858 5.75 13.5C5.75 13.9142 6.08579 14.25 6.5 14.25C6.91421 14.25 7.2501 13.9142 7.2501 13.5C7.2501 13.0858 6.91421 12.75 6.5 12.75Z" fill="#353566"/>
<path d="M10.25 13.5C10.25 13.0858 10.5858 12.75 11 12.75C11.4142 12.75 11.7501 13.0858 11.7501 13.5C11.7501 13.9142 11.4143 14.25 11.0001 14.25C10.5859 14.25 10.25 13.9142 10.25 13.5Z" fill="#353566"/>
<path d="M6.5 16.75C6.08579 16.75 5.75 17.0858 5.75 17.5C5.75 17.9142 6.08579 18.25 6.5 18.25C6.91421 18.25 7.2501 17.9142 7.2501 17.5C7.2501 17.0858 6.91421 16.75 6.5 16.75Z" fill="#353566"/>
<path d="M23 19C23.2761 19 23.5 18.7761 23.5 18.5V17.5C23.5 16.3954 22.6046 15.5 21.5 15.5H16.707L17.8535 14.3536C18.0488 14.1583 18.0488 13.8417 17.8535 13.6464C17.6582 13.4512 17.3416 13.4512 17.1464 13.6464L15.1464 15.6464C15.0034 15.7894 14.9606 16.0045 15.038 16.1913C15.1154 16.3782 15.2977 16.5 15.4999 16.5H21.5C22.0523 16.5 22.5 16.9477 22.5 17.5V18.5C22.5 18.7761 22.7239 19 23 19Z" fill="#353566"/>
<path d="M14.5 19.5V18.5C14.5 18.2239 14.7239 18 15 18C15.2761 18 15.5 18.2239 15.5 18.5V19.5C15.5 20.0523 15.9477 20.5 16.5 20.5H22.5C22.7022 20.5 22.8846 20.6218 22.9619 20.8087C23.0393 20.9955 22.9965 21.2106 22.8535 21.3536L20.8535 23.3536C20.6582 23.5488 20.3416 23.5488 20.1464 23.3535C19.9511 23.1583 19.9511 22.8417 20.1464 22.6464L21.2929 21.5H16.5C15.3954 21.5 14.5 20.6046 14.5 19.5Z" fill="#353566"/>
</g>
<defs>
<clipPath id="clip0_9001_303711">
<rect width="24" height="24" fill="white"/>
</clipPath>
</defs>
</svg>
