<svg width="24" height="24" viewBox="0 0 24 24" fill="none" xmlns="http://www.w3.org/2000/svg">
<g opacity="0.4">
<path d="M4.00005 2H16C16.1628 3.95281 16.2442 4.92922 16.0659 5.82565C15.8349 6.98779 15.2906 8.06467 14.4918 8.93987C13.8757 9.61496 13.0413 10.1285 11.3724 11.1555L10 12L8.62771 11.1555C6.95882 10.1285 6.12437 9.61496 5.50825 8.93987C4.70952 8.06467 4.16521 6.98779 3.93417 5.82565C3.75595 4.92922 3.83732 3.95281 4.00005 2Z" fill="#353566"/>
<path d="M15.8781 17.4504C15.5936 16.5662 15.1219 15.7505 14.4919 15.0601C13.8757 14.385 13.0413 13.8715 11.3724 12.8445L10 12L8.62771 12.8445C6.95882 13.8715 6.12437 14.385 5.50826 15.0601C4.70952 15.9353 4.16521 17.0122 3.93417 18.1744C3.75595 19.0708 3.83732 20.0472 4.00005 22H12.962C12.673 21.5751 12.5 21.0704 12.5 20.4999C12.5 19.5784 12.9732 18.7736 13.6859 18.2391C14.3355 17.7519 15.1018 17.5855 15.8781 17.4504Z" fill="#353566"/>
</g>
<path fill-rule="evenodd" clip-rule="evenodd" d="M3.45672 2.5C3.32602 4.08838 3.26764 5.03759 3.4437 5.92315C3.69252 7.17468 4.2787 8.3344 5.13887 9.27692C5.80267 10.0043 6.69279 10.552 8.28567 11.5321L9.04597 12L8.28569 12.4679C6.69281 13.448 5.80269 13.9957 5.13889 14.7231C4.27871 15.6656 3.69253 16.8253 3.44372 18.0769C3.26766 18.9624 3.32604 19.9116 3.45674 21.5H2C1.72386 21.5 1.5 21.7239 1.5 22C1.5 22.2761 1.72386 22.5 2 22.5H13.3917C13.0914 22.2184 12.849 21.8828 12.6932 21.5L4.46027 21.5C4.3233 19.8323 4.27627 19.0175 4.42452 18.2719C4.63779 17.1991 5.14023 16.2051 5.87753 15.3972C6.43494 14.7864 7.19511 14.3132 8.88971 13.2703L10 12.5871L11.1103 13.2703C12.8049 14.3132 13.5651 14.7864 14.1225 15.3972C14.6899 16.0189 15.1182 16.7509 15.3827 17.5441C15.6285 17.4923 15.8778 17.45 16.1269 17.4078C16.2098 17.3937 16.2928 17.3796 16.3756 17.3652C16.0716 16.3869 15.5557 15.4842 14.8611 14.7231C14.1973 13.9957 13.3072 13.448 11.7143 12.4679L10.954 12L11.7143 11.5321C13.3072 10.552 14.1973 10.0043 14.8611 9.27692C15.7213 8.3344 16.3075 7.17468 16.5563 5.92315C16.7323 5.03759 16.6739 4.08838 16.5432 2.5H18C18.2761 2.5 18.5 2.27614 18.5 2C18.5 1.72386 18.2761 1.5 18 1.5H2C1.72386 1.5 1.5 1.72386 1.5 2C1.5 2.27614 1.72386 2.5 2 2.5H3.45672ZM4.46026 2.5H15.5397C15.6767 4.16771 15.7237 4.98247 15.5755 5.72816C15.3622 6.8009 14.8598 7.79494 14.1225 8.60282C13.5651 9.21359 12.8049 9.68682 11.1103 10.7297L9.99998 11.4129L8.88969 10.7297C7.19509 9.68682 6.43492 9.21359 5.87751 8.60282C5.14022 7.79494 4.63778 6.8009 4.4245 5.72816C4.27625 4.98247 4.32328 4.16771 4.46026 2.5Z" fill="#353566"/>
<path fill-rule="evenodd" clip-rule="evenodd" d="M21.601 15.2197L18.5005 16.124V20.4996C18.5005 21.064 18.2114 21.5878 17.7146 21.9604C17.2232 22.329 16.601 22.4998 16.0003 22.4998C15.3995 22.4998 14.7773 22.329 14.2859 21.9604C13.7891 21.5878 13.5 21.064 13.5 20.4996C13.5 19.9352 13.7891 19.4114 14.2859 19.0388C14.7773 18.6703 15.3995 18.4994 16.0003 18.4994C16.5167 18.4994 17.0491 18.6257 17.5005 18.8953V13.7088C17.5005 13.042 17.9405 12.4553 18.5806 12.2686L21.0609 11.5452C21.781 11.3352 22.501 11.8752 22.501 12.6253V14.0196C22.501 14.5752 22.1343 15.0641 21.601 15.2197ZM21.3409 12.5052C21.421 12.4819 21.501 12.5419 21.501 12.6253V14.0196C21.501 14.1308 21.4277 14.2286 21.321 14.2597L18.5005 15.0823V13.7088C18.5005 13.4865 18.6472 13.2909 18.8606 13.2286L21.3409 12.5052ZM17.1147 19.8388C17.3988 20.0519 17.5003 20.2957 17.5005 20.4991C17.5005 20.7025 17.399 20.9471 17.1147 21.1604C16.8249 21.3777 16.4233 21.4998 16.0003 21.4998C15.5772 21.4998 15.1756 21.3777 14.8859 21.1604C14.6015 20.9471 14.5 20.7031 14.5 20.4996C14.5 20.2962 14.6015 20.0521 14.8859 19.8388C15.1756 19.6215 15.5772 19.4994 16.0003 19.4994C16.4233 19.4994 16.8249 19.6215 17.1147 19.8388Z" fill="#353566"/>
</svg>
