<svg width="24" height="24" viewBox="0 0 24 24" fill="none" xmlns="http://www.w3.org/2000/svg">
<g clip-path="url(#clip0_9001_305157)">
<path opacity="0.4" d="M18.9999 12.9518C18.7818 13.2976 18.6063 13.6849 18.4654 14.0901L15.9934 15.326C15.5 15.1 15.0232 15 14.5 15C12.8431 15 11.5 16.3431 11.5 18C11.5 19.543 12.6649 20.8139 14.1632 20.9813C12.9182 21.632 11.5021 22 10 22C5.02944 22 1 17.9706 1 13C1 8.02944 5.02944 4 10 4C14.9545 4 18.9739 8.0034 18.9999 12.9518Z" fill="#353566"/>
<path d="M10.5 1.5V3.51293C12.6209 3.62291 14.5578 4.42851 16.087 5.70594L17.6464 4.14645C17.8417 3.95118 18.1583 3.95118 18.3536 4.14645C18.5488 4.34171 18.5488 4.65829 18.3536 4.85355L16.8203 6.38683C18.3358 7.94954 19.319 10.0315 19.4774 12.3401C19.0229 12.8052 18.6973 13.4234 18.4654 14.0901L18.4284 14.1086C18.4756 13.7458 18.5 13.3757 18.5 13C18.5 8.30558 14.6944 4.5 10 4.5C5.30558 4.5 1.5 8.30558 1.5 13C1.5 17.6944 5.30558 21.5 10 21.5C11.2092 21.5 12.3595 21.2475 13.4009 20.7923C13.7413 20.9264 14.112 21.0001 14.5 21.0001C14.7551 21.0001 14.9992 20.9763 15.2395 20.9257C13.7376 21.9206 11.9365 22.5 10 22.5C4.75329 22.5 0.5 18.2467 0.5 13C0.5 7.92101 4.48572 3.77294 9.5 3.51293V1.5H7C6.72386 1.5 6.5 1.27614 6.5 1C6.5 0.723858 6.72386 0.5 7 0.5H13C13.2761 0.5 13.5 0.723858 13.5 1C13.5 1.27614 13.2761 1.5 13 1.5H10.5Z" fill="#353566"/>
<path d="M10 8C10.2761 8 10.5 8.22386 10.5 8.5V13C10.5 13.2761 10.2761 13.5 10 13.5C9.72386 13.5 9.5 13.2761 9.5 13V8.5C9.5 8.22386 9.72386 8 10 8Z" fill="#353566"/>
<path fill-rule="evenodd" clip-rule="evenodd" d="M14.5 16C13.3954 16 12.5 16.8954 12.5 18C12.5 19.1046 13.3954 20 14.5 20C15.0173 20 15.4887 19.8036 15.8438 19.4813L19.509 21.3139C19.5034 21.3752 19.5005 21.4372 19.5005 21.5C19.5005 22.6046 20.3959 23.5 21.5005 23.5C22.6051 23.5 23.5005 22.6046 23.5005 21.5C23.5005 20.3954 22.6051 19.5 21.5005 19.5C20.8164 19.5 20.2126 19.8434 19.8519 20.3673L16.3957 18.6392C16.4633 18.4385 16.5 18.2235 16.5 18C16.5 17.7765 16.4633 17.5615 16.3957 17.3608L19.8519 15.6327C20.2126 16.1566 20.8164 16.5 21.5005 16.5C22.6051 16.5 23.5005 15.6046 23.5005 14.5C23.5005 13.3954 22.6051 12.5 21.5005 12.5C20.3959 12.5 19.5005 13.3954 19.5005 14.5C19.5005 14.5628 19.5034 14.6248 19.509 14.6861L15.8438 16.5187C15.4888 16.1964 15.0173 16 14.5 16ZM13.5 18C13.5 17.4477 13.9477 17 14.5 17C15.0523 17 15.5 17.4477 15.5 18C15.5 18.5523 15.0523 19 14.5 19C13.9477 19 13.5 18.5523 13.5 18ZM21.5005 13.5C20.9482 13.5 20.5005 13.9477 20.5005 14.5C20.5005 15.0523 20.9482 15.5 21.5005 15.5C22.0528 15.5 22.5005 15.0523 22.5005 14.5C22.5005 13.9477 22.0528 13.5 21.5005 13.5ZM20.5005 21.5C20.5005 20.9477 20.9482 20.5 21.5005 20.5C22.0528 20.5 22.5005 20.9477 22.5005 21.5C22.5005 22.0523 22.0528 22.5 21.5005 22.5C20.9482 22.5 20.5005 22.0523 20.5005 21.5Z" fill="#353566"/>
</g>
<defs>
<clipPath id="clip0_9001_305157">
<rect width="24" height="24" fill="white"/>
</clipPath>
</defs>
</svg>
