<svg width="24" height="24" viewBox="0 0 24 24" fill="none" xmlns="http://www.w3.org/2000/svg">
<g clip-path="url(#clip0_9001_268994)">
<path d="M11 4.25C11.4142 4.25 11.75 4.58579 11.75 5V6.5C11.75 6.91421 11.4142 7.25 11 7.25C10.5858 7.25 10.25 6.91421 10.25 6.5V5C10.25 4.58579 10.5858 4.25 11 4.25Z" fill="#353566"/>
<path fill-rule="evenodd" clip-rule="evenodd" d="M12.7837 0.783784C11.7007 0.0727227 10.299 0.0727232 9.21603 0.783784L1.15323 6.07791C-0.50693 7.168 0.264921 9.74973 2.25097 9.74973H19.7487C21.7348 9.74973 22.5066 7.168 20.8465 6.07791L12.7837 0.783784ZM10.0393 2.03765C10.6224 1.65477 11.3773 1.65477 11.9604 2.03765L20.0232 7.33178C20.4382 7.6043 20.2452 8.24973 19.7487 8.24973H2.25097C1.75445 8.24973 1.5615 7.6043 1.97654 7.33178L10.0393 2.03765Z" fill="#353566"/>
<path d="M5.00003 12C5.00003 11.5858 4.66424 11.25 4.25003 11.25C3.83582 11.25 3.50003 11.5858 3.50003 12V15C3.50003 15.4142 3.83582 15.75 4.25003 15.75C4.66424 15.75 5.00003 15.4142 5.00003 15V12Z" fill="#353566"/>
<path d="M9.50003 12C9.50003 11.5858 9.16424 11.25 8.75003 11.25C8.33582 11.25 8.00003 11.5858 8.00003 12V15C8.00003 15.4142 8.33582 15.75 8.75003 15.75C9.16424 15.75 9.50003 15.4142 9.50003 15V12Z" fill="#353566"/>
<path d="M2.50003 17.25C2.08582 17.25 1.75003 17.5858 1.75003 18C1.75003 18.4142 2.08582 18.75 2.50003 18.75H10C10.4142 18.75 10.75 18.4142 10.75 18C10.75 17.5858 10.4142 17.25 10 17.25H2.50003Z" fill="#353566"/>
<path d="M1.00003 20.25C0.585817 20.25 0.250031 20.5858 0.250031 21C0.250031 21.4142 0.585817 21.75 1.00003 21.75H10.5815C10.9958 21.75 11.3315 21.4142 11.3315 21C11.3315 20.5858 10.9958 20.25 10.5815 20.25H1.00003Z" fill="#353566"/>
<path d="M20.442 16.3081C20.6861 16.5521 20.6861 16.9479 20.442 17.1919L17.942 19.6919C17.8244 19.8095 17.665 19.8753 17.4987 19.875C17.3325 19.8747 17.1733 19.8081 17.0563 19.6901L15.5563 18.1778C15.3132 17.9327 15.3148 17.537 15.5599 17.2939C15.805 17.0508 16.2007 17.0525 16.4438 17.2975L17.5018 18.3643L19.5581 16.3081C19.8022 16.064 20.1979 16.064 20.442 16.3081Z" fill="#353566"/>
<path fill-rule="evenodd" clip-rule="evenodd" d="M12.25 18C12.25 14.8244 14.8244 12.25 18 12.25C21.1757 12.25 23.75 14.8244 23.75 18C23.75 21.1756 21.1757 23.75 18 23.75C14.8244 23.75 12.25 21.1756 12.25 18ZM18 13.75C15.6528 13.75 13.75 15.6528 13.75 18C13.75 20.3472 15.6528 22.25 18 22.25C20.3472 22.25 22.25 20.3472 22.25 18C22.25 15.6528 20.3472 13.75 18 13.75Z" fill="#353566"/>
</g>
<defs>
<clipPath id="clip0_9001_268994">
<rect width="24" height="24" fill="white"/>
</clipPath>
</defs>
</svg>
