<svg width="24" height="24" viewBox="0 0 24 24" fill="none" xmlns="http://www.w3.org/2000/svg">
<path d="M5.7679 1.25H12.2321C13.0449 1.24999 13.7006 1.24999 14.2315 1.29336C14.7781 1.33803 15.2582 1.43239 15.7025 1.65873C16.4081 2.01825 16.9818 2.59193 17.3413 3.29754C17.5676 3.74176 17.662 4.2219 17.7066 4.76853C17.75 5.29944 17.75 5.95505 17.75 6.76788V9.63766C17.75 10.0519 17.4142 10.3877 17 10.3877C16.5858 10.3877 16.25 10.0519 16.25 9.63766V6.8C16.25 5.94755 16.2494 5.35331 16.2116 4.89068C16.1745 4.43681 16.1054 4.17604 16.0048 3.97852C15.7891 3.55516 15.4448 3.21095 15.0215 2.99524C14.824 2.8946 14.5632 2.82547 14.1093 2.78838C13.6467 2.75058 13.0525 2.75 12.2 2.75H5.8C4.94755 2.75 4.35331 2.75058 3.89068 2.78838C3.43681 2.82547 3.17604 2.8946 2.97852 2.99524C2.55516 3.21095 2.21095 3.55516 1.99524 3.97852C1.8946 4.17604 1.82547 4.43681 1.78838 4.89068C1.75058 5.35331 1.75 5.94755 1.75 6.8V17.2C1.75 18.0525 1.75058 18.6467 1.78838 19.1093C1.82547 19.5632 1.8946 19.824 1.99524 20.0215C2.21095 20.4448 2.55516 20.789 2.97852 21.0048C3.17604 21.1054 3.43681 21.1745 3.89068 21.2116C4.34421 21.2487 4.92422 21.25 5.75 21.25V17C5.75 16.0335 6.5335 15.25 7.5 15.25H10.0115C10.4257 15.25 10.7615 15.5858 10.7615 16C10.7615 16.4142 10.4257 16.75 10.0115 16.75H7.5C7.36193 16.75 7.25 16.8619 7.25 17V21.25H10.75V19.26C10.75 18.8458 11.0858 18.51 11.5 18.51C11.9142 18.51 12.25 18.8458 12.25 19.26V21.3788C12.4489 21.5136 12.5797 21.7416 12.5797 22C12.5797 22.4142 12.2439 22.75 11.8297 22.75H5.76788C4.95505 22.75 4.29944 22.75 3.76853 22.7066C3.2219 22.662 2.74176 22.5676 2.29754 22.3413C1.59193 21.9817 1.01825 21.4081 0.658726 20.7025C0.432386 20.2582 0.338026 19.7781 0.293364 19.2315C0.249988 18.7006 0.249993 18.045 0.25 17.2321V6.7679C0.249993 5.95507 0.249988 5.29944 0.293364 4.76853C0.338026 4.2219 0.432386 3.74176 0.658726 3.29754C1.01825 2.59193 1.59193 2.01825 2.29754 1.65873C2.74176 1.43239 3.2219 1.33803 3.76853 1.29336C4.29944 1.24999 4.95507 1.24999 5.7679 1.25Z" fill="#353566"/>
<path d="M10.25 13C10.25 12.5858 10.5858 12.25 11 12.25H12C12.4142 12.25 12.75 12.5858 12.75 13C12.75 13.4142 12.4142 13.75 12 13.75H11C10.5858 13.75 10.25 13.4142 10.25 13Z" fill="#353566"/>
<path d="M12.75 10C12.75 10.4142 12.4142 10.75 12 10.75H11C10.5858 10.75 10.25 10.4142 10.25 10C10.25 9.58579 10.5858 9.25 11 9.25H12C12.4142 9.25 12.75 9.58579 12.75 10Z" fill="#353566"/>
<path d="M12 7.75C12.4142 7.75 12.75 7.41421 12.75 7C12.75 6.58579 12.4142 6.25 12 6.25H11C10.5858 6.25 10.25 6.58579 10.25 7C10.25 7.41421 10.5858 7.75 11 7.75H12Z" fill="#353566"/>
<path d="M7.75 10C7.75 10.4142 7.41421 10.75 7 10.75H6C5.58579 10.75 5.25 10.4142 5.25 10C5.25 9.58579 5.58579 9.25 6 9.25H7C7.41421 9.25 7.75 9.58579 7.75 10Z" fill="#353566"/>
<path d="M7 7.75C7.41421 7.75 7.75 7.41421 7.75 7C7.75 6.58579 7.41421 6.25 7 6.25H6C5.58579 6.25 5.25 6.58579 5.25 7C5.25 7.41421 5.58579 7.75 6 7.75H7Z" fill="#353566"/>
<path d="M7.75 13C7.75 13.4142 7.41421 13.75 7 13.75H6C5.58579 13.75 5.25 13.4142 5.25 13C5.25 12.5858 5.58579 12.25 6 12.25H7C7.41421 12.25 7.75 12.5858 7.75 13Z" fill="#353566"/>
<path fill-rule="evenodd" clip-rule="evenodd" d="M19.2386 12.5279C18.7386 11.4907 17.2614 11.4907 16.7614 12.5279L15.7549 14.6161L13.4478 14.9171C12.297 15.0673 11.8384 16.4877 12.6841 17.2825L14.3627 18.8598L13.9402 21.1187C13.7278 22.2539 14.925 23.1293 15.9424 22.5827L18 21.4772L20.0576 22.5827C21.075 23.1293 22.2722 22.2539 22.0599 21.1187L21.6373 18.8598L23.3159 17.2825C24.1617 16.4877 23.7031 15.0673 22.5522 14.9171L20.2451 14.6161L19.2386 12.5279ZM17.0473 15.3892L18 13.4129L18.9527 15.3892C19.1359 15.7693 19.4985 16.0313 19.9169 16.0859L22.0962 16.3703L20.5104 17.8604C20.1999 18.1522 20.0594 18.5822 20.1378 19.0011L20.5374 21.1377L18.5916 20.0923C18.2222 19.8938 17.7778 19.8938 17.4084 20.0923L15.4626 21.1377L15.8623 19.0011C15.9406 18.5822 15.8002 18.1522 15.4896 17.8604L13.9039 16.3703L16.0831 16.0859C16.5015 16.0313 16.8641 15.7693 17.0473 15.3892Z" fill="#353566"/>
</svg>
