<svg width="24" height="24" viewBox="0 0 24 24" fill="none" xmlns="http://www.w3.org/2000/svg">
<path d="M12.2321 1.25H5.7679C4.95507 1.24999 4.29944 1.24999 3.76853 1.29336C3.2219 1.33803 2.74176 1.43239 2.29754 1.65873C1.59193 2.01825 1.01825 2.59193 0.658726 3.29754C0.432386 3.74176 0.338026 4.2219 0.293364 4.76853C0.249988 5.29944 0.249993 5.95504 0.25 6.76787V17.2321C0.249993 18.0449 0.249988 18.7006 0.293364 19.2315C0.338026 19.7781 0.432386 20.2582 0.658726 20.7025C1.01825 21.4081 1.59193 21.9817 2.29754 22.3413C2.74176 22.5676 3.2219 22.662 3.76853 22.7066C4.29944 22.75 4.95505 22.75 5.76788 22.75H12.5015C12.7132 22.75 12.911 22.75 13.0948 22.7492C13.509 22.7474 13.8433 22.4101 13.8415 21.9959C13.8397 21.5817 13.5024 21.2474 13.0882 21.2492C12.9079 21.25 12.7131 21.25 12.5 21.25H12.25V20.4987C12.25 20.0845 11.9142 19.7487 11.5 19.7487C11.0858 19.7487 10.75 20.0845 10.75 20.4987V21.25H7.25V17C7.25 16.8619 7.36193 16.75 7.5 16.75H10.0011C10.4153 16.75 10.7511 16.4142 10.7511 16C10.7511 15.5858 10.4153 15.25 10.0011 15.25H7.5C6.5335 15.25 5.75 16.0335 5.75 17V21.25C4.92422 21.25 4.34421 21.2487 3.89068 21.2116C3.43681 21.1745 3.17604 21.1054 2.97852 21.0048C2.55516 20.789 2.21095 20.4448 1.99524 20.0215C1.8946 19.824 1.82547 19.5632 1.78838 19.1093C1.75058 18.6467 1.75 18.0525 1.75 17.2V6.8C1.75 5.94755 1.75058 5.35331 1.78838 4.89068C1.82547 4.43681 1.8946 4.17604 1.99524 3.97852C2.21095 3.55516 2.55516 3.21095 2.97852 2.99524C3.17604 2.8946 3.43681 2.82547 3.89068 2.78838C4.35331 2.75058 4.94755 2.75 5.8 2.75H12.2C13.0525 2.75 13.6467 2.75058 14.1093 2.78838C14.5632 2.82547 14.824 2.8946 15.0215 2.99524C15.4448 3.21095 15.7891 3.55516 16.0048 3.97852C16.1054 4.17604 16.1745 4.43681 16.2116 4.89068C16.2494 5.35331 16.25 5.94755 16.25 6.8V9.00107C16.25 9.41529 16.5858 9.75107 17 9.75107C17.4142 9.75107 17.75 9.41529 17.75 9.00107V6.76788C17.75 5.95505 17.75 5.29944 17.7066 4.76853C17.662 4.2219 17.5676 3.74176 17.3413 3.29754C16.9818 2.59193 16.4081 2.01825 15.7025 1.65873C15.2582 1.43239 14.7781 1.33803 14.2315 1.29336C13.7006 1.24999 13.0449 1.24999 12.2321 1.25Z" fill="#353566"/>
<path d="M12 10.75C12.4142 10.75 12.75 10.4142 12.75 10C12.75 9.58579 12.4142 9.25 12 9.25H11C10.5858 9.25 10.25 9.58579 10.25 10C10.25 10.4142 10.5858 10.75 11 10.75H12Z" fill="#353566"/>
<path d="M12.75 7C12.75 7.41421 12.4142 7.75 12 7.75H11C10.5858 7.75 10.25 7.41421 10.25 7C10.25 6.58579 10.5858 6.25 11 6.25H12C12.4142 6.25 12.75 6.58579 12.75 7Z" fill="#353566"/>
<path d="M7 10.75C7.41421 10.75 7.75 10.4142 7.75 10C7.75 9.58579 7.41421 9.25 7 9.25H6C5.58579 9.25 5.25 9.58579 5.25 10C5.25 10.4142 5.58579 10.75 6 10.75H7Z" fill="#353566"/>
<path d="M7.75 7C7.75 7.41421 7.41421 7.75 7 7.75H6C5.58579 7.75 5.25 7.41421 5.25 7C5.25 6.58579 5.58579 6.25 6 6.25H7C7.41421 6.25 7.75 6.58579 7.75 7Z" fill="#353566"/>
<path d="M7 13.75C7.41421 13.75 7.75 13.4142 7.75 13C7.75 12.5858 7.41421 12.25 7 12.25H6C5.58579 12.25 5.25 12.5858 5.25 13C5.25 13.4142 5.58579 13.75 6 13.75H7Z" fill="#353566"/>
<path fill-rule="evenodd" clip-rule="evenodd" d="M12.25 16.125C12.25 13.4326 14.4326 11.25 17.125 11.25C19.8174 11.25 22 13.4326 22 16.125C22 17.2006 21.6517 18.1948 21.0617 19.001L23.5303 21.4697C23.8232 21.7626 23.8232 22.2374 23.5303 22.5303C23.2374 22.8232 22.7625 22.8232 22.4696 22.5303L20.001 20.0617C19.1948 20.6517 18.2006 21 17.125 21C14.4326 21 12.25 18.8174 12.25 16.125ZM17.125 12.75C15.261 12.75 13.75 14.261 13.75 16.125C13.75 17.989 15.261 19.5 17.125 19.5C18.989 19.5 20.5 17.989 20.5 16.125C20.5 14.261 18.989 12.75 17.125 12.75Z" fill="#353566"/>
</svg>
