<svg width="24" height="24" viewBox="0 0 24 24" fill="none" xmlns="http://www.w3.org/2000/svg">
<path d="M12.2321 1.25H5.7679C4.95507 1.24999 4.29944 1.24999 3.76853 1.29336C3.2219 1.33803 2.74176 1.43239 2.29754 1.65873C1.59193 2.01825 1.01825 2.59193 0.658726 3.29754C0.432386 3.74176 0.338026 4.2219 0.293364 4.76853C0.249988 5.29944 0.249993 5.95504 0.25 6.76787V17.2321C0.249993 18.0449 0.249988 18.7006 0.293364 19.2315C0.338026 19.7781 0.432386 20.2582 0.658726 20.7025C1.01825 21.4081 1.59193 21.9817 2.29754 22.3413C2.74176 22.5676 3.2219 22.662 3.76853 22.7066C4.29944 22.75 4.95505 22.75 5.76788 22.75H12.5019C12.767 22.75 13.0104 22.75 13.2327 22.7484C13.6469 22.7454 13.9802 22.4072 13.9772 21.993C13.9742 21.5788 13.636 21.2454 13.2218 21.2484C13.0055 21.25 12.7673 21.25 12.5 21.25H12.25V21.0104C12.25 20.5962 11.9142 20.2604 11.5 20.2604C11.0858 20.2604 10.75 20.5962 10.75 21.0104V21.25H7.25V17C7.25 16.8619 7.36193 16.75 7.5 16.75H10.5C10.5308 16.75 10.5588 16.7553 10.5841 16.7643C10.9742 16.9036 11.4034 16.7002 11.5426 16.3101C11.6819 15.92 11.4785 15.4909 11.0884 15.3516C10.9036 15.2856 10.7051 15.25 10.5 15.25H7.5C6.5335 15.25 5.75 16.0335 5.75 17V21.25C4.92422 21.25 4.34421 21.2487 3.89068 21.2116C3.43681 21.1745 3.17604 21.1054 2.97852 21.0048C2.55516 20.789 2.21095 20.4448 1.99524 20.0215C1.8946 19.824 1.82547 19.5632 1.78838 19.1093C1.75058 18.6467 1.75 18.0525 1.75 17.2V6.8C1.75 5.94755 1.75058 5.35331 1.78838 4.89068C1.82547 4.43681 1.8946 4.17604 1.99524 3.97852C2.21095 3.55516 2.55516 3.21095 2.97852 2.99524C3.17604 2.8946 3.43681 2.82547 3.89068 2.78838C4.35331 2.75058 4.94755 2.75 5.8 2.75H12.2C13.0525 2.75 13.6467 2.75058 14.1093 2.78838C14.5632 2.82547 14.824 2.8946 15.0215 2.99524C15.4448 3.21095 15.7891 3.55516 16.0048 3.97852C16.1054 4.17604 16.1745 4.43681 16.2116 4.89068C16.2494 5.35331 16.25 5.94755 16.25 6.8V11.516C16.25 11.9302 16.5858 12.266 17 12.266C17.4142 12.266 17.75 11.9302 17.75 11.516V6.76788C17.75 5.95505 17.75 5.29944 17.7066 4.76853C17.662 4.2219 17.5676 3.74176 17.3413 3.29754C16.9818 2.59193 16.4081 2.01825 15.7025 1.65873C15.2582 1.43239 14.7781 1.33803 14.2315 1.29336C13.7006 1.24999 13.0449 1.24999 12.2321 1.25Z" fill="#353566"/>
<path d="M11 12.25C10.5858 12.25 10.25 12.5858 10.25 13C10.25 13.4142 10.5858 13.75 11 13.75H12C12.4142 13.75 12.75 13.4142 12.75 13C12.75 12.5858 12.4142 12.25 12 12.25H11Z" fill="#353566"/>
<path d="M12 10.75C12.4142 10.75 12.75 10.4142 12.75 10C12.75 9.58579 12.4142 9.25 12 9.25H11C10.5858 9.25 10.25 9.58579 10.25 10C10.25 10.4142 10.5858 10.75 11 10.75H12Z" fill="#353566"/>
<path d="M12.75 7C12.75 7.41421 12.4142 7.75 12 7.75H11C10.5858 7.75 10.25 7.41421 10.25 7C10.25 6.58579 10.5858 6.25 11 6.25H12C12.4142 6.25 12.75 6.58579 12.75 7Z" fill="#353566"/>
<path d="M7 10.75C7.41421 10.75 7.75 10.4142 7.75 10C7.75 9.58579 7.41421 9.25 7 9.25H6C5.58579 9.25 5.25 9.58579 5.25 10C5.25 10.4142 5.58579 10.75 6 10.75H7Z" fill="#353566"/>
<path d="M7.75 7C7.75 7.41421 7.41421 7.75 7 7.75H6C5.58579 7.75 5.25 7.41421 5.25 7C5.25 6.58579 5.58579 6.25 6 6.25H7C7.41421 6.25 7.75 6.58579 7.75 7Z" fill="#353566"/>
<path d="M7 13.75C7.41421 13.75 7.75 13.4142 7.75 13C7.75 12.5858 7.41421 12.25 7 12.25H6C5.58579 12.25 5.25 12.5858 5.25 13C5.25 13.4142 5.58579 13.75 6 13.75H7Z" fill="#353566"/>
<path fill-rule="evenodd" clip-rule="evenodd" d="M15.6134 14.5413C16.0038 13.4862 17.4962 13.4862 17.8866 14.5413L18.185 15.3478C18.4365 16.0275 18.9725 16.5635 19.6522 16.815L20.4587 17.1134C21.5138 17.5038 21.5138 18.9962 20.4587 19.3866L19.6522 19.685C18.9725 19.9365 18.4365 20.4725 18.185 21.1522L17.8866 21.9587C17.4962 23.0138 16.0038 23.0138 15.6134 21.9587L15.315 21.1522C15.0635 20.4725 14.5275 19.9365 13.8478 19.685L13.0413 19.3866C11.9862 18.9962 11.9862 17.5038 13.0413 17.1134L13.8478 16.815C14.5275 16.5635 15.0635 16.0275 15.315 15.3478L15.6134 14.5413ZM16.75 15.7921L16.7218 15.8683C16.3183 16.9587 15.4587 17.8183 14.3683 18.2218L14.2921 18.25L14.3683 18.2782C15.4587 18.6817 16.3183 19.5413 16.7218 20.6317L16.75 20.7079L16.7782 20.6317C17.1817 19.5413 18.0413 18.6817 19.1317 18.2782L19.2079 18.25L19.1317 18.2218C18.0413 17.8183 17.1817 16.9587 16.7782 15.8683L16.75 15.7921Z" fill="#353566"/>
<path d="M21.1269 12.0883C21.0833 11.9706 20.9167 11.9706 20.8731 12.0883L20.6789 12.6133C20.4962 13.107 20.107 13.4962 19.6133 13.6789L19.0883 13.8731C18.9706 13.9167 18.9706 14.0833 19.0883 14.1269L19.6133 14.3211C20.107 14.5038 20.4962 14.893 20.6789 15.3867L20.8731 15.9117C20.9167 16.0294 21.0833 16.0294 21.1269 15.9117L21.3211 15.3867C21.5038 14.893 21.893 14.5038 22.3867 14.3211L22.9117 14.1269C23.0294 14.0833 23.0294 13.9167 22.9117 13.8731L22.3867 13.6789C21.893 13.4962 21.5038 13.107 21.3211 12.6133L21.1269 12.0883Z" fill="#353566"/>
</svg>
