<svg width="24" height="24" viewBox="0 0 24 24" fill="none" xmlns="http://www.w3.org/2000/svg">
<g clip-path="url(#clip0_9001_268644)">
<path d="M9.5468 0.787134C10.3857 0.0774663 11.6144 0.0774656 12.4532 0.787133L21.4844 8.42752C21.8006 8.69505 21.8401 9.16828 21.5726 9.48451C21.3051 9.80074 20.8318 9.84022 20.5156 9.57269L19.5 8.71348V10.007C19.5 10.4212 19.1642 10.757 18.75 10.757C18.3358 10.757 18 10.4212 18 10.007V7.44448L11.4844 1.9323C11.2048 1.69574 10.7952 1.69574 10.5156 1.9323L4 7.44451V16.5998C4 17.3823 4.00058 17.924 4.03498 18.345C4.06865 18.7572 4.13097 18.987 4.21799 19.1578C4.40973 19.5342 4.7157 19.8401 5.09202 20.0319C5.2628 20.1189 5.49269 20.1812 5.90488 20.2149C6.25002 20.2431 6.67636 20.2485 7.25 20.2496V14.0001C7.25 13.0336 8.0335 12.2501 9 12.2501H11.93C12.3442 12.2501 12.68 12.5858 12.68 13.0001C12.68 13.4143 12.3442 13.7501 11.93 13.7501H9C8.86193 13.7501 8.75 13.862 8.75 14.0001V20.2498H12.1637C12.578 20.2498 12.9137 20.5856 12.9137 20.9998C12.9137 21.4141 12.578 21.7498 12.1637 21.7498H8.01812L8 21.7501L7.98188 21.7498H7.61819C6.87515 21.7499 6.27195 21.7499 5.78273 21.7099C5.27778 21.6686 4.82851 21.5811 4.41103 21.3684C3.75247 21.0328 3.21703 20.4974 2.88148 19.8388C2.66876 19.4213 2.58121 18.9721 2.53996 18.4671C2.49999 17.9779 2.49999 17.3747 2.5 16.6316L2.5 8.71351L1.48442 9.57269C1.16819 9.84022 0.694962 9.80074 0.427433 9.48451C0.159903 9.16828 0.199382 8.69505 0.515611 8.42752L9.5468 0.787134Z" fill="#353566"/>
<path fill-rule="evenodd" clip-rule="evenodd" d="M19.5052 12.4846C18.8717 12.1679 18.1261 12.168 17.4927 12.4848L13.9242 14.2695C13.5112 14.4761 13.2502 14.8981 13.25 15.3599C13.2493 16.8085 13.3464 18.1998 13.9377 19.5513C14.7529 21.4144 16.2607 22.8617 18.1165 23.6715C18.3604 23.7779 18.6376 23.7779 18.8814 23.6715C20.7377 22.8615 22.2459 21.4124 23.0612 19.5489C23.6518 18.1988 23.7493 16.8087 23.75 15.3616C23.7502 14.8989 23.4889 14.4759 23.0751 14.2691L19.5052 12.4846ZM18.1637 13.8263C18.3748 13.7208 18.6233 13.7207 18.8345 13.8263L22.2499 15.5336C22.2494 16.7135 22.1684 17.847 21.6869 18.9477C21.0574 20.3868 19.9223 21.5433 18.4989 22.2003C17.076 21.5441 15.9412 20.3884 15.3119 18.95C14.83 17.8486 14.7494 16.7144 14.7499 15.5337L18.1637 13.8263Z" fill="#353566"/>
</g>
<defs>
<clipPath id="clip0_9001_268644">
<rect width="24" height="24" fill="white"/>
</clipPath>
</defs>
</svg>
