<svg width="24" height="24" viewBox="0 0 24 24" fill="none" xmlns="http://www.w3.org/2000/svg">
<path d="M11.5777 1.5H16.4226C17.3837 1.5 18.1356 1.49999 18.7396 1.54935C19.3542 1.59956 19.8595 1.70334 20.3161 1.93597C21.0687 2.31947 21.6807 2.93139 22.0641 3.68404C22.2968 4.14062 22.4006 4.64594 22.4508 5.26049C22.5001 5.8645 22.5001 6.61643 22.5001 7.5775L22.5001 10.8934C22.5003 12.032 22.5004 12.7207 22.3232 13.2964C22.2269 13.6095 22.0937 13.9058 21.9287 14.1804C21.7864 14.4171 21.4792 14.4937 21.2426 14.3514C21.0059 14.2092 20.9293 13.902 21.0716 13.6653C21.1953 13.4594 21.2951 13.2373 21.3674 13.0023C21.4945 12.5893 21.5001 12.0643 21.5001 10.7897V7.6C21.5001 6.61166 21.4997 5.90047 21.4541 5.34192C21.4089 4.78921 21.322 4.43014 21.1731 4.13803C20.8855 3.57354 20.4266 3.1146 19.8621 2.82698C19.57 2.67814 19.2109 2.59118 18.6582 2.54602C18.0996 2.50039 17.3885 2.5 16.4001 2.5H11.6001C10.6118 2.5 9.90059 2.50039 9.34204 2.54602C8.78933 2.59118 8.43026 2.67814 8.13815 2.82698C8.07573 2.85878 8.01461 2.89268 7.95488 2.92857C7.71818 3.07081 7.411 2.99423 7.26877 2.75753C7.12653 2.52084 7.20311 2.21366 7.43981 2.07143C7.51946 2.02356 7.60095 1.97837 7.68416 1.93597C8.14074 1.70334 8.64606 1.59956 9.26061 1.54935C9.86463 1.49999 10.6166 1.5 11.5777 1.5Z" fill="#353566"/>
<path d="M13 13.5C13.2761 13.5 13.5 13.2761 13.5 13C13.5 12.7239 13.2761 12.5 13 12.5H7C6.72386 12.5 6.5 12.7239 6.5 13C6.5 13.2761 6.72386 13.5 7 13.5H13Z" fill="#353566"/>
<path fill-rule="evenodd" clip-rule="evenodd" d="M7.57757 5.5H12.4225C13.3836 5.5 14.1355 5.49999 14.7395 5.54935C15.3541 5.59956 15.8594 5.70334 16.316 5.93597C17.0686 6.31947 17.6806 6.93139 18.064 7.68404C18.2967 8.14062 18.4005 8.64594 18.4507 9.26049C18.5 9.86451 18.5 10.6165 18.5 11.5775L18.5 14.8934C18.5002 16.032 18.5003 16.7207 18.3231 17.2964C17.9335 18.5625 16.9425 19.5535 15.6765 19.9431C15.1007 20.1203 14.412 20.1202 13.2734 20.12L13.1697 20.12C12.8363 20.12 12.7381 20.1223 12.6533 20.139C12.443 20.1807 12.2517 20.2888 12.1075 20.4474C12.0494 20.5114 11.9968 20.5944 11.8247 20.8799L11.741 21.0189C11.5453 21.3439 11.3822 21.6146 11.235 21.8183C11.086 22.0246 10.913 22.2215 10.6757 22.3412C10.2508 22.5557 9.74926 22.5557 9.3243 22.3412C9.087 22.2215 8.91401 22.0246 8.76499 21.8183C8.61781 21.6145 8.45477 21.3439 8.259 21.0189L8.17529 20.8799C8.00327 20.5944 7.95065 20.5114 7.89252 20.4474C7.74835 20.2888 7.55701 20.1807 7.34673 20.139C7.26194 20.1223 7.16372 20.12 6.83034 20.12L6.72665 20.12C5.58804 20.1202 4.89934 20.1203 4.32358 19.9431C3.05756 19.5535 2.06651 18.5625 1.67693 17.2964C1.49976 16.7207 1.49985 16.032 1.50001 14.8934L1.50002 11.5776C1.50002 10.6165 1.50001 9.86451 1.54936 9.26049C1.59957 8.64594 1.70335 8.14062 1.93599 7.68404C2.31949 6.93139 2.93141 6.31947 3.68406 5.93597C4.14064 5.70334 4.64596 5.59956 5.26051 5.54935C5.86453 5.49999 6.61648 5.5 7.57757 5.5ZM5.34194 6.54602C4.78923 6.59118 4.43016 6.67814 4.13805 6.82698C3.57356 7.1146 3.11462 7.57354 2.827 8.13803C2.67816 8.43014 2.5912 8.78921 2.54604 9.34192C2.50041 9.90047 2.50002 10.6117 2.50002 11.6V14.7897C2.50002 16.0643 2.50559 16.5893 2.6327 17.0023C2.92489 17.9518 3.66818 18.6951 4.61769 18.9873C5.03076 19.1144 5.55568 19.12 6.83034 19.12L6.87444 19.12C7.14445 19.1199 7.34758 19.1198 7.54097 19.1581C7.96153 19.2414 8.34421 19.4576 8.63256 19.7749C8.76515 19.9208 8.86989 20.0948 9.00913 20.3261L9.1043 20.4841C9.31427 20.8327 9.45589 21.067 9.57563 21.2327C9.69634 21.3999 9.75472 21.4383 9.77478 21.4485C9.91643 21.5199 10.0836 21.5199 10.2253 21.4485C10.2453 21.4383 10.3037 21.3999 10.4244 21.2327C10.5441 21.067 10.6858 20.8327 10.8957 20.4841L10.9909 20.3261C11.1301 20.0948 11.2349 19.9208 11.3675 19.7749C11.6558 19.4576 12.0385 19.2414 12.4591 19.1581C12.6525 19.1198 12.8556 19.1199 13.1256 19.12L13.1697 19.12C14.4444 19.12 14.9693 19.1144 15.3823 18.9873C16.3319 18.6951 17.0751 17.9518 17.3673 17.0023C17.4944 16.5893 17.5 16.0643 17.5 14.7897V11.6C17.5 10.6117 17.4996 9.90047 17.454 9.34192C17.4088 8.78921 17.3219 8.43014 17.173 8.13803C16.8854 7.57354 16.4265 7.1146 15.862 6.82698C15.5699 6.67814 15.2108 6.59118 14.6581 6.54602C14.0995 6.50039 13.3884 6.5 12.4 6.5H7.60002C6.61168 6.5 5.90049 6.50039 5.34194 6.54602Z" fill="#353566"/>
</svg>
