<svg width="24" height="24" viewBox="0 0 24 24" fill="none" xmlns="http://www.w3.org/2000/svg">
<g clip-path="url(#clip0_9001_274718)">
<path d="M7.37737 0.499756H14.6226C15.7236 0.499753 16.5805 0.499751 17.2679 0.555913C17.9658 0.612936 18.5329 0.730339 19.043 0.990227C19.8897 1.42166 20.5781 2.11007 21.0095 2.9568C21.2694 3.46686 21.3868 4.03392 21.4438 4.73185C21.5 5.41921 21.5 6.27611 21.5 7.37702V12.7629C21.5 13.039 21.2761 13.2629 21 13.2629C20.7239 13.2629 20.5 13.039 20.5 12.7629V7.39976C20.5 6.2714 20.4996 5.4552 20.4472 4.81328C20.3952 4.17719 20.2946 3.75638 20.1185 3.41079C19.783 2.75222 19.2475 2.21679 18.589 1.88123C18.2434 1.70515 17.8226 1.60456 17.1865 1.55259C16.5446 1.50014 15.7284 1.49976 14.6 1.49976H7.4C6.27164 1.49976 5.45545 1.50014 4.81352 1.55259C4.17744 1.60456 3.75662 1.70515 3.41103 1.88123C2.75247 2.21679 2.21703 2.75222 1.88148 3.41079C1.70539 3.75638 1.60481 4.17719 1.55284 4.81328C1.50039 5.4552 1.5 6.2714 1.5 7.39976V11.7656C1.5 12.8152 1.50034 13.5744 1.5459 14.1729C1.59107 14.7662 1.67853 15.1605 1.83141 15.4864C2.17852 16.2262 2.77356 16.8212 3.51338 17.1683C3.83922 17.3212 4.23354 17.4087 4.82681 17.4539C5.42532 17.4994 6.18457 17.4998 7.23421 17.4998L7.2963 17.4997C7.67773 17.4995 7.9654 17.4994 8.23513 17.5761C8.5172 17.6563 8.77817 17.7976 8.99955 17.99C9.21125 18.1739 9.36835 18.4149 9.57667 18.7344L10.0789 19.5038C10.3075 19.8542 10.4607 20.088 10.5903 20.2518C10.7196 20.4152 10.7821 20.4511 10.8067 20.4614C10.8335 20.4726 10.861 20.4814 10.8889 20.4878C11.1582 20.5491 11.3267 20.8171 11.2654 21.0863C11.2041 21.3556 10.9361 21.5241 10.6669 21.4628C10.583 21.4437 10.5004 21.4173 10.42 21.3836C10.1616 21.2753 9.97092 21.0807 9.80601 20.8722C9.64475 20.6683 9.46683 20.3957 9.25447 20.0703L8.77319 19.333C8.51566 18.9385 8.43655 18.8255 8.3437 18.7449C8.233 18.6487 8.10252 18.578 7.96148 18.5379C7.84317 18.5043 7.70536 18.4998 7.23421 18.4998H7.21317C6.18904 18.4998 5.39177 18.4998 4.7509 18.451C4.10037 18.4014 3.57006 18.2995 3.08863 18.0737C2.13743 17.6274 1.37238 16.8623 0.926101 15.9111C0.700224 15.4297 0.598312 14.8994 0.548787 14.2489C0.499996 13.608 0.499998 12.8108 0.5 11.7866V7.37713C0.499997 6.27617 0.499996 5.41924 0.556157 4.73185C0.61318 4.03392 0.730584 3.46686 0.990471 2.9568C1.4219 2.11007 2.11031 1.42166 2.95704 0.990227C3.4671 0.730339 4.03416 0.612936 4.73209 0.555913C5.41948 0.499751 6.27642 0.499753 7.37737 0.499756Z" fill="#353566"/>
<path d="M6.5 7.99976L15.5 7.99976C15.7761 7.99976 16 7.7759 16 7.49976C16 7.22361 15.7761 6.99976 15.5 6.99976H6.5C6.22386 6.99976 6 7.22361 6 7.49976C6 7.7759 6.22386 7.99976 6.5 7.99976Z" fill="#353566"/>
<path d="M6.5 11.9998L11.5 11.9998C11.7761 11.9998 12 11.7759 12 11.4998C12 11.2236 11.7761 10.9998 11.5 10.9998L6.5 10.9998C6.22386 10.9998 6 11.2236 6 11.4998C6 11.7759 6.22386 11.9998 6.5 11.9998Z" fill="#353566"/>
<path d="M15.35 17.3569C15.5472 17.1636 15.5504 16.847 15.3571 16.6498C15.1638 16.4526 14.8473 16.4494 14.65 16.6426L12.65 18.6026C12.5553 18.6955 12.5014 18.8221 12.5 18.9548C12.4987 19.0874 12.5501 19.2151 12.643 19.3098L14.6429 21.3498C14.8362 21.547 15.1528 21.5501 15.35 21.3568C15.5472 21.1635 15.5503 20.8469 15.357 20.6497L13.7071 18.9668L15.35 17.3569Z" fill="#353566"/>
<path d="M20.6427 16.65C20.8359 16.4527 21.1525 16.4493 21.3498 16.6425L23.3498 18.6005C23.4446 18.6933 23.4986 18.8199 23.5 18.9525C23.5014 19.0851 23.45 19.2129 23.3572 19.3076L21.3572 21.3496C21.164 21.5469 20.8474 21.5502 20.6501 21.357C20.4529 21.1637 20.4496 20.8472 20.6428 20.6499L22.2929 18.9652L20.6502 17.357C20.4529 17.1639 20.4495 16.8473 20.6427 16.65Z" fill="#353566"/>
<path d="M19.4851 15.1211C19.552 14.8532 19.3892 14.5818 19.1213 14.5148C18.8534 14.4478 18.5819 14.6107 18.5149 14.8786L16.5149 22.8786C16.448 23.1465 16.6108 23.418 16.8787 23.4849C17.1466 23.5519 17.4181 23.389 17.4851 23.1211L19.4851 15.1211Z" fill="#353566"/>
</g>
<defs>
<clipPath id="clip0_9001_274718">
<rect width="24" height="24" fill="white"/>
</clipPath>
</defs>
</svg>
