<svg width="24" height="24" viewBox="0 0 24 24" fill="none" xmlns="http://www.w3.org/2000/svg">
<g clip-path="url(#clip0_9001_274508)">
<path d="M7.37737 0.5H14.6226C15.7236 0.499997 16.5805 0.499995 17.2679 0.556157C17.9658 0.61318 18.5329 0.730584 19.043 0.990471C19.8897 1.4219 20.5781 2.11031 21.0095 2.95704C21.2694 3.4671 21.3868 4.03416 21.4438 4.73209C21.5 5.41946 21.5 6.27635 21.5 7.37726V10.2506C21.5 10.5268 21.2761 10.7506 21 10.7506C20.7239 10.7506 20.5 10.5268 20.5 10.2506V7.4C20.5 6.27164 20.4996 5.45545 20.4472 4.81352C20.3952 4.17744 20.2946 3.75662 20.1185 3.41103C19.783 2.75247 19.2475 2.21703 18.589 1.88148C18.2434 1.70539 17.8226 1.60481 17.1865 1.55284C16.5446 1.50039 15.7284 1.5 14.6 1.5H7.4C6.27164 1.5 5.45545 1.50039 4.81352 1.55284C4.17744 1.60481 3.75662 1.70539 3.41103 1.88148C2.75247 2.21703 2.21703 2.75247 1.88148 3.41103C1.70539 3.75662 1.60481 4.17744 1.55284 4.81352C1.50039 5.45545 1.5 6.27164 1.5 7.4V11.7658C1.5 12.8154 1.50034 13.5747 1.5459 14.1732C1.59107 14.7665 1.67853 15.1608 1.83141 15.4866C2.17852 16.2264 2.77356 16.8215 3.51338 17.1686C3.83922 17.3215 4.23354 17.4089 4.82681 17.4541C5.42532 17.4997 6.18457 17.5 7.23421 17.5L7.2963 17.5C7.67773 17.4998 7.9654 17.4996 8.23513 17.5763C8.5172 17.6566 8.77817 17.7979 8.99955 17.9902C9.21125 18.1742 9.36835 18.4151 9.57667 18.7347L10.0789 19.5041C10.3075 19.8544 10.4607 20.0882 10.5903 20.2521C10.7196 20.4155 10.7821 20.4513 10.8067 20.4616C10.9303 20.5135 11.0697 20.5135 11.1933 20.4616C11.2179 20.4513 11.2804 20.4155 11.4097 20.2521C11.5393 20.0882 11.6925 19.8544 11.9211 19.5041L12.1026 19.226C12.1666 19.128 12.2591 19.0598 12.3621 19.0253C12.3523 18.917 12.3776 18.8046 12.4418 18.7065C12.6462 18.3943 12.8073 18.1507 13.0318 17.9636C13.1668 17.851 13.3158 17.7571 13.4747 17.6838C13.7255 17.5682 14.0225 17.6777 14.1381 17.9285C14.2537 18.1792 14.1442 18.4763 13.8934 18.5919C13.814 18.6285 13.7395 18.6755 13.672 18.7318C13.5836 18.8055 13.5023 18.9124 13.2785 19.2543C13.2145 19.352 13.1221 19.4199 13.0193 19.4544C13.0292 19.5625 13.004 19.6746 12.94 19.7726L12.7456 20.0704C12.5332 20.3958 12.3553 20.6685 12.194 20.8724C12.0291 21.0809 11.8384 21.2755 11.58 21.3839C11.209 21.5394 10.791 21.5394 10.42 21.3839C10.1616 21.2755 9.97092 21.0809 9.80601 20.8724C9.64475 20.6685 9.46683 20.3959 9.25447 20.0706L8.77319 19.3333C8.51566 18.9387 8.43655 18.8258 8.3437 18.7451C8.233 18.6489 8.10252 18.5783 7.96148 18.5382C7.84317 18.5045 7.70536 18.5 7.23421 18.5H7.21317C6.18904 18.5 5.39177 18.5 4.7509 18.4512C4.10037 18.4017 3.57006 18.2998 3.08863 18.0739C2.13743 17.6276 1.37238 16.8626 0.926101 15.9114C0.700224 15.4299 0.598312 14.8996 0.548787 14.2491C0.499996 13.6082 0.499998 12.811 0.5 11.7868V7.37737C0.499997 6.27642 0.499996 5.41948 0.556157 4.73209C0.61318 4.03416 0.730584 3.4671 0.990471 2.95704C1.4219 2.11031 2.11031 1.4219 2.95704 0.990471C3.4671 0.730584 4.03416 0.61318 4.73209 0.556157C5.41948 0.499996 6.27642 0.499997 7.37737 0.5Z" fill="#353566"/>
<path d="M10.25 9.5C10.25 9.08579 10.5858 8.75 11 8.75C11.4142 8.75 11.7501 9.08579 11.7501 9.5C11.7501 9.91421 11.4143 10.25 11.0001 10.25C10.5859 10.25 10.25 9.91421 10.25 9.5Z" fill="#353566"/>
<path d="M7 8.75C6.58579 8.75 6.25 9.08579 6.25 9.5C6.25 9.91421 6.58579 10.25 7 10.25C7.41421 10.25 7.7501 9.91421 7.7501 9.5C7.7501 9.08579 7.41421 8.75 7 8.75Z" fill="#353566"/>
<path d="M14.25 9.5C14.25 9.08579 14.5858 8.75 15 8.75C15.4142 8.75 15.7501 9.08579 15.7501 9.5C15.7501 9.91421 15.4143 10.25 15.0001 10.25C14.5859 10.25 14.25 9.91421 14.25 9.5Z" fill="#353566"/>
<path fill-rule="evenodd" clip-rule="evenodd" d="M22.601 16.2198L19.5005 17.1241V21.4998C19.5005 22.0642 19.2114 22.588 18.7146 22.9606C18.2232 23.3291 17.601 23.4999 17.0003 23.4999C16.3995 23.4999 15.7773 23.3291 15.2859 22.9606C14.7891 22.588 14.5 22.0642 14.5 21.4998C14.5 20.9353 14.7891 20.4115 15.2859 20.039C15.7773 19.6704 16.3995 19.4996 17.0003 19.4996C17.5167 19.4996 18.0491 19.6258 18.5005 19.8954V14.7089C18.5005 14.0422 18.9405 13.4555 19.5806 13.2688L22.0609 12.5453C22.781 12.3353 23.501 12.8754 23.501 13.6254V15.0197C23.501 15.5753 23.1343 16.0643 22.601 16.2198ZM22.3409 13.5053C22.421 13.482 22.501 13.542 22.501 13.6254V15.0197C22.501 15.1309 22.4277 15.2287 22.321 15.2598L19.5005 16.0825V14.7089C19.5005 14.4866 19.6472 14.291 19.8606 14.2288L22.3409 13.5053ZM18.1147 20.839C18.3988 21.052 18.5003 21.2959 18.5005 21.4992C18.5005 21.7027 18.399 21.9473 18.1147 22.1605C17.8249 22.3778 17.4233 22.4999 17.0003 22.4999C16.5772 22.4999 16.1756 22.3778 15.8859 22.1606C15.6015 21.9473 15.5 21.7032 15.5 21.4998C15.5 21.2963 15.6015 21.0522 15.8859 20.839C16.1756 20.6217 16.5772 20.4996 17.0003 20.4996C17.4233 20.4996 17.8249 20.6217 18.1147 20.839Z" fill="#353566"/>
</g>
<defs>
<clipPath id="clip0_9001_274508">
<rect width="24" height="24" fill="white"/>
</clipPath>
</defs>
</svg>
