<svg width="24" height="24" viewBox="0 0 24 24" fill="none" xmlns="http://www.w3.org/2000/svg">
<path d="M7.5 2.75C5.98122 2.75 4.75 3.98122 4.75 5.5V12.0069C4.75 12.4211 4.41421 12.7569 4 12.7569C3.58579 12.7569 3.25 12.4211 3.25 12.0069V5.5C3.25 3.15279 5.15279 1.25 7.5 1.25H20.5C21.7426 1.25 22.75 2.25736 22.75 3.5V15.5C22.75 16.6581 21.875 17.6119 20.75 17.7363V21.25H22C22.4142 21.25 22.75 21.5858 22.75 22C22.75 22.4142 22.4142 22.75 22 22.75H9.26767C8.85346 22.75 8.51767 22.4142 8.51767 22C8.51767 21.5858 8.85346 21.25 9.26767 21.25H19.25V17.75H12.9221C12.5078 17.75 12.1721 17.4142 12.1721 17C12.1721 16.5858 12.5078 16.25 12.9221 16.25H20.5C20.9142 16.25 21.25 15.9142 21.25 15.5V3.5C21.25 3.08579 20.9142 2.75 20.5 2.75H7.5Z" fill="#353566"/>
<path fill-rule="evenodd" clip-rule="evenodd" d="M4.61341 14.5413C5.00383 13.4862 6.49617 13.4862 6.88659 14.5413L7.185 15.3478C7.43653 16.0275 7.97247 16.5635 8.65222 16.815L9.45867 17.1134C10.5138 17.5038 10.5138 18.9962 9.45867 19.3866L8.65222 19.685C7.97247 19.9365 7.43653 20.4725 7.18501 21.1522L6.88659 21.9587C6.49617 23.0138 5.00383 23.0138 4.61341 21.9587L4.315 21.1522C4.06347 20.4725 3.52753 19.9365 2.84778 19.685L2.04133 19.3866C0.986224 18.9962 0.98622 17.5038 2.04133 17.1134L2.84778 16.815C3.52753 16.5635 4.06347 16.0275 4.315 15.3478L4.61341 14.5413ZM5.75 15.7921L5.72177 15.8683C5.31832 16.9587 4.45866 17.8183 3.36834 18.2218L3.29205 18.25L3.36834 18.2782C4.45866 18.6817 5.31832 19.5413 5.72177 20.6317L5.75 20.7079L5.77823 20.6317C6.18168 19.5413 7.04134 18.6817 8.13167 18.2782L8.20795 18.25L8.13167 18.2218C7.04134 17.8183 6.18168 16.9587 5.77823 15.8683L5.75 15.7921Z" fill="#353566"/>
<path d="M10.1269 12.0883C10.0833 11.9706 9.91671 11.9706 9.87314 12.0883L9.67889 12.6133C9.49621 13.107 9.10697 13.4962 8.61328 13.6789L8.08833 13.8731C7.97056 13.9167 7.97056 14.0833 8.08833 14.1269L8.61328 14.3211C9.10697 14.5038 9.49621 14.893 9.67889 15.3867L9.87314 15.9117C9.91671 16.0294 10.0833 16.0294 10.1269 15.9117L10.3211 15.3867C10.5038 14.893 10.893 14.5038 11.3867 14.3211L11.9117 14.1269C12.0294 14.0833 12.0294 13.9167 11.9117 13.8731L11.3867 13.6789C10.893 13.4962 10.5038 13.107 10.3211 12.6133L10.1269 12.0883Z" fill="#353566"/>
</svg>
