<svg width="24" height="24" viewBox="0 0 24 24" fill="none" xmlns="http://www.w3.org/2000/svg">
<path d="M15.7321 0.25H12.2679C11.4551 0.249993 10.7994 0.249988 10.2685 0.293364C9.72189 0.338026 9.24175 0.432386 8.79753 0.658727C8.38196 0.870471 8.01214 1.1565 7.70491 1.5C7.42877 1.80873 7.45518 2.28287 7.76392 2.55901C8.07265 2.83516 8.54679 2.80874 8.82294 2.50001C9.0073 2.29389 9.22918 2.12228 9.47851 1.99524C9.67603 1.8946 9.9368 1.82547 10.3907 1.78838C10.8533 1.75058 11.4475 1.75 12.3 1.75H15.7C16.5524 1.75 17.1467 1.75058 17.6093 1.78838C18.0632 1.82547 18.324 1.8946 18.5215 1.99524C18.9448 2.21095 19.289 2.55516 19.5048 2.97852C19.6054 3.17604 19.6745 3.43681 19.7116 3.89068C19.7494 4.35331 19.75 4.94755 19.75 5.8V18.1607C19.455 18.0564 19.114 18.1451 18.9101 18.4049C18.6543 18.7306 18.711 19.2021 19.0368 19.4579C19.2768 19.6463 19.5741 19.75 19.8818 19.75C20.6374 19.75 21.25 19.1374 21.25 18.3818V5.76788C21.25 4.95505 21.25 4.29944 21.2066 3.76853C21.162 3.2219 21.0676 2.74176 20.8413 2.29754C20.4817 1.59193 19.9081 1.01825 19.2025 0.658727C18.7582 0.432386 18.2781 0.338026 17.7315 0.293364C17.2006 0.249988 16.5449 0.249993 15.7321 0.25Z" fill="#353566"/>
<path d="M9.25 14.5C9.25 14.9142 9.58579 15.25 10 15.25C10.4142 15.25 10.75 14.9142 10.75 14.5V12.75H12.5C12.9142 12.75 13.25 12.4142 13.25 12C13.25 11.5858 12.9142 11.25 12.5 11.25H10.75V9.5C10.75 9.08579 10.4142 8.75 10 8.75C9.58579 8.75 9.25 9.08579 9.25 9.5V11.25H7.5C7.08579 11.25 6.75 11.5858 6.75 12C6.75 12.4142 7.08579 12.75 7.5 12.75H9.25V14.5Z" fill="#353566"/>
<path fill-rule="evenodd" clip-rule="evenodd" d="M11.7059 4.25L8.2679 4.25C7.45514 4.24999 6.79957 4.24999 6.26867 4.29337C5.72202 4.33803 5.24189 4.4324 4.7976 4.6587C4.77938 4.66798 4.76154 4.67801 4.74413 4.68875C3.77461 5.28705 3.20892 5.90719 2.95199 6.81469C2.83358 7.23293 2.78975 7.68105 2.77045 8.15572C2.7565 8.49866 2.75475 8.8865 2.75284 9.30964C2.75213 9.46634 2.75138 9.62788 2.75 9.79377V22.382C2.75 23.1372 3.36279 23.75 4.118 23.75C4.47253 23.75 4.81143 23.612 5.065 23.3694L9.412 19.2024C9.42156 19.1933 9.43087 19.1838 9.43993 19.1742C9.63271 18.9687 9.77376 18.8505 9.87689 18.7858C9.92576 18.7551 9.9584 18.7415 9.97669 18.7355C9.98564 18.7326 9.9914 18.7314 9.99439 18.7309C9.99729 18.7304 9.99997 18.7304 9.99997 18.7304C9.99997 18.7304 10.0022 18.7305 10.0044 18.7309C10.0074 18.7314 10.0133 18.7326 10.0223 18.7356C10.0408 18.7416 10.0736 18.7554 10.1227 18.7861C10.2262 18.851 10.3675 18.9695 10.5607 19.1748C10.5695 19.1843 10.5786 19.1935 10.588 19.2024L14.9356 23.37C15.1891 23.6125 15.5275 23.75 15.882 23.75C16.6372 23.75 17.25 23.1372 17.25 22.382V9.76788C17.25 8.95513 17.25 8.29957 17.2066 7.76867C17.162 7.22202 17.0676 6.74189 16.8413 6.2976C16.832 6.27932 16.8219 6.26143 16.8112 6.24397C16.2128 5.27498 15.5925 4.70924 14.6852 4.45205C14.2668 4.33349 13.8187 4.28951 13.3439 4.27017C12.9989 4.25611 12.6086 4.25446 12.1827 4.25265C12.0283 4.25199 11.8692 4.25129 11.7059 4.25ZM4.39526 7.22331C4.51508 6.80011 4.75341 6.45069 5.50348 5.98287C5.69821 5.88889 5.95591 5.82392 6.39083 5.78838C6.85345 5.75058 7.44763 5.75 8.3 5.75H11.697C11.8766 5.75142 12.0448 5.75213 12.2036 5.75281C12.6177 5.75458 12.9672 5.75607 13.2829 5.76893C13.7156 5.78655 14.0263 5.82439 14.2761 5.8952C14.6997 6.01525 15.0494 6.25401 15.5172 7.00356C15.6111 7.19828 15.6761 7.45597 15.7116 7.89083C15.7494 8.35345 15.75 8.94763 15.75 9.8V22.0728L11.6397 18.1327C11.2066 17.6747 10.6756 17.2306 9.9999 17.2304C9.32373 17.2301 8.79287 17.6742 8.36004 18.133L4.25 22.0728V9.80311C4.25151 9.62059 4.25228 9.44971 4.25301 9.28864C4.25487 8.87772 4.25644 8.53059 4.26921 8.21666C4.28681 7.7837 4.32455 7.47307 4.39526 7.22331Z" fill="#353566"/>
</svg>
