<svg width="24" height="24" viewBox="0 0 24 24" fill="none" xmlns="http://www.w3.org/2000/svg">
<path d="M4.75 5.5C4.75 3.98122 5.98122 2.75 7.5 2.75H20.5C20.9142 2.75 21.25 3.08579 21.25 3.5V15.5C21.25 15.9142 20.9142 16.25 20.5 16.25H15C14.5858 16.25 14.25 16.5858 14.25 17C14.25 17.4142 14.5858 17.75 15 17.75H19.25V21.25H13.2454C12.8312 21.25 12.4954 21.5858 12.4954 22C12.4954 22.4142 12.8312 22.75 13.2454 22.75H22C22.4142 22.75 22.75 22.4142 22.75 22C22.75 21.5858 22.4142 21.25 22 21.25H20.75V17.7363C21.875 17.6119 22.75 16.6581 22.75 15.5V3.5C22.75 2.25736 21.7426 1.25 20.5 1.25H7.5C5.15279 1.25 3.25 3.15279 3.25 5.5V9.58152C3.25 9.99573 3.58579 10.3315 4 10.3315C4.41421 10.3315 4.75 9.99573 4.75 9.58152V5.5Z" fill="#353566"/>
<path d="M8.94189 15.9419C9.18597 15.6979 9.18597 15.3021 8.94189 15.0581C8.69781 14.814 8.30208 14.814 8.058 15.0581L7.00001 16.116L5.94194 15.058C5.69786 14.8139 5.30213 14.8139 5.05805 15.058C4.81398 15.3021 4.81398 15.6978 5.05806 15.9419L6.11613 16.9999L5.058 18.0581C4.81393 18.3021 4.81393 18.6979 5.058 18.9419C5.30208 19.186 5.69781 19.186 5.94189 18.9419L7.00002 17.8838L8.05812 18.9419C8.3022 19.186 8.69792 19.186 8.942 18.9419C9.18608 18.6978 9.18607 18.3021 8.94199 18.058L7.8839 16.9999L8.94189 15.9419Z" fill="#353566"/>
<path fill-rule="evenodd" clip-rule="evenodd" d="M7 11.25C3.82436 11.25 1.25 13.8244 1.25 17C1.25 20.1756 3.82436 22.75 7 22.75C10.1756 22.75 12.75 20.1756 12.75 17C12.75 13.8244 10.1756 11.25 7 11.25ZM2.75 17C2.75 14.6528 4.65279 12.75 7 12.75C9.34721 12.75 11.25 14.6528 11.25 17C11.25 19.3472 9.34721 21.25 7 21.25C4.65279 21.25 2.75 19.3472 2.75 17Z" fill="#353566"/>
</svg>
