<svg width="24" height="24" viewBox="0 0 24 24" fill="none" xmlns="http://www.w3.org/2000/svg">
<path d="M7.5 2.75C5.98122 2.75 4.75 3.98122 4.75 5.5V9.38618C4.75 9.80039 4.41421 10.1362 4 10.1362C3.58579 10.1362 3.25 9.80039 3.25 9.38618V5.5C3.25 3.15279 5.15279 1.25 7.5 1.25H20.5C21.7426 1.25 22.75 2.25736 22.75 3.5V15.5C22.75 16.6581 21.875 17.6119 20.75 17.7363V21.25H22C22.4142 21.25 22.75 21.5858 22.75 22C22.75 22.4142 22.4142 22.75 22 22.75H12.7439C12.3297 22.75 11.9939 22.4142 11.9939 22C11.9939 21.5858 12.3297 21.25 12.7439 21.25H19.25V17.75H12.9932C12.579 17.75 12.2432 17.4142 12.2432 17C12.2432 16.5858 12.579 16.25 12.9932 16.25H20.5C20.9142 16.25 21.25 15.9142 21.25 15.5V3.5C21.25 3.08579 20.9142 2.75 20.5 2.75H7.5Z" fill="#353566"/>
<path fill-rule="evenodd" clip-rule="evenodd" d="M3 14C3 12.4006 4.42863 11.25 6 11.25C7.57137 11.25 9 12.4006 9 14V15.0155C9.98658 15.1385 10.75 15.9801 10.75 17V20.75C10.75 21.8546 9.85457 22.75 8.75 22.75H3.25C2.14543 22.75 1.25 21.8546 1.25 20.75V17C1.25 15.9801 2.01342 15.1385 3 15.0155L3 14ZM4.5 15H7.5V14C7.5 13.3902 6.91391 12.75 6 12.75C5.08609 12.75 4.5 13.3902 4.5 14V15ZM3.25 16.5C2.97386 16.5 2.75 16.7239 2.75 17V20.75C2.75 21.0261 2.97386 21.25 3.25 21.25H8.75C9.02614 21.25 9.25 21.0261 9.25 20.75V17C9.25 16.7239 9.02614 16.5 8.75 16.5H3.25Z" fill="#353566"/>
</svg>
