<svg width="24" height="24" viewBox="0 0 24 24" fill="none" xmlns="http://www.w3.org/2000/svg">
<path fill-rule="evenodd" clip-rule="evenodd" d="M5.73507 1.31088L12 2.87712L18.2649 1.31088C19.5272 0.99531 20.75 1.95002 20.75 3.25117V15.829C20.75 16.8615 20.0473 17.7614 19.0457 18.0119L12.1819 19.7278C12.1731 19.73 12.1644 19.732 12.1556 19.7339C12.0455 19.7572 11.9301 19.7558 11.8181 19.7278L4.95429 18.0119C3.95267 17.7614 3.25 16.8615 3.25 15.829V3.25117C3.25 1.95002 4.47278 0.99531 5.73507 1.31088ZM4.75 3.25117C4.75 2.92588 5.05569 2.6872 5.37127 2.7661L11.25 4.23578V18.0396L5.3181 16.5566C4.98422 16.4732 4.75 16.1732 4.75 15.829V3.25117ZM12.75 18.0396V4.23578L18.6287 2.7661C18.9443 2.6872 19.25 2.92588 19.25 3.25117V15.829C19.25 16.1732 19.0158 16.4732 18.6819 16.5566L12.75 18.0396Z" fill="#353566"/>
<path d="M1.75 3.50018C1.75 3.08597 1.41421 2.75018 1 2.75018C0.585786 2.75018 0.25 3.08597 0.25 3.50018V17.3485C0.25 18.8361 1.26002 20.1338 2.70209 20.4991L11.2021 22.6518C11.7258 22.7844 12.2742 22.7844 12.7979 22.6518L21.2979 20.4991C22.74 20.1338 23.75 18.8361 23.75 17.3485V3.50018C23.75 3.08597 23.4142 2.75018 23 2.75018C22.5858 2.75018 22.25 3.08597 22.25 3.50018V17.3485C22.25 18.1495 21.7061 18.8483 20.9296 19.045L12.4296 21.1977C12.1477 21.2691 11.8523 21.2691 11.5704 21.1977L3.07036 19.045C2.29386 18.8483 1.75 18.1495 1.75 17.3485V3.50018Z" fill="#353566"/>
</svg>
