<svg width="24" height="24" viewBox="0 0 24 24" fill="none" xmlns="http://www.w3.org/2000/svg">
<path d="M6.31804 10.7323C5.9162 10.6318 5.67188 10.2246 5.77234 9.82279C5.8728 9.42095 6.28 9.17663 6.68185 9.27709L9.68185 10.0271C10.0837 10.1275 10.328 10.5347 10.2276 10.9366C10.1271 11.3384 9.71989 11.5828 9.31804 11.4823L6.31804 10.7323Z" fill="#353566"/>
<path d="M5.77234 12.8228C5.67188 13.2246 5.9162 13.6318 6.31804 13.7323L9.31804 14.4823C9.71989 14.5828 10.1271 14.3384 10.2276 13.9366C10.328 13.5347 10.0837 13.1275 9.68185 13.0271L6.68185 12.2771C6.28 12.1766 5.8728 12.4209 5.77234 12.8228Z" fill="#353566"/>
<path d="M6.31804 7.7323C5.9162 7.63184 5.67188 7.22464 5.77234 6.82279C5.8728 6.42095 6.28 6.17663 6.68185 6.27709L9.68185 7.02709C10.0837 7.12755 10.328 7.53475 10.2276 7.9366C10.1271 8.33844 9.71989 8.58276 9.31804 8.4823L6.31804 7.7323Z" fill="#353566"/>
<path d="M18.2277 9.82279C18.3281 10.2246 18.0838 10.6318 17.682 10.7323L14.682 11.4823C14.2801 11.5828 13.8729 11.3384 13.7724 10.9366C13.672 10.5347 13.9163 10.1275 14.3182 10.0271L17.3182 9.27709C17.72 9.17663 18.1272 9.42095 18.2277 9.82279Z" fill="#353566"/>
<path d="M17.682 13.7323C18.0838 13.6318 18.3281 13.2246 18.2277 12.8228C18.1272 12.4209 17.72 12.1766 17.3182 12.2771L14.3182 13.0271C13.9163 13.1275 13.672 13.5347 13.7724 13.9366C13.8729 14.3384 14.2801 14.5828 14.682 14.4823L17.682 13.7323Z" fill="#353566"/>
<path d="M18.2277 6.82279C18.3281 7.22464 18.0838 7.63184 17.682 7.7323L14.682 8.4823C14.2801 8.58276 13.8729 8.33844 13.7724 7.9366C13.672 7.53475 13.9163 7.12755 14.3182 7.02709L17.3182 6.27709C17.72 6.17663 18.1272 6.42095 18.2277 6.82279Z" fill="#353566"/>
<path fill-rule="evenodd" clip-rule="evenodd" d="M5.73507 1.31088L12 2.87712L18.2649 1.31088C19.5272 0.99531 20.75 1.95002 20.75 3.25117V15.829C20.75 16.8615 20.0473 17.7614 19.0457 18.0119L12.1819 19.7278C12.1731 19.73 12.1644 19.732 12.1556 19.7339C12.0455 19.7572 11.9301 19.7558 11.8181 19.7278L4.95429 18.0119C3.95267 17.7614 3.25 16.8615 3.25 15.829V3.25117C3.25 1.95002 4.47278 0.99531 5.73507 1.31088ZM4.75 3.25117C4.75 2.92588 5.05569 2.6872 5.37127 2.7661L11.25 4.23578V18.0396L5.3181 16.5566C4.98422 16.4732 4.75 16.1732 4.75 15.829V3.25117ZM12.75 18.0396V4.23578L18.6287 2.7661C18.9443 2.6872 19.25 2.92588 19.25 3.25117V15.829C19.25 16.1732 19.0158 16.4732 18.6819 16.5566L12.75 18.0396Z" fill="#353566"/>
<path d="M1.75 3.50018C1.75 3.08597 1.41421 2.75018 1 2.75018C0.585786 2.75018 0.25 3.08597 0.25 3.50018V17.3485C0.25 18.8361 1.26002 20.1338 2.70209 20.4991L11.2021 22.6518C11.7258 22.7844 12.2742 22.7844 12.7979 22.6518L21.2979 20.4991C22.74 20.1338 23.75 18.8361 23.75 17.3485V3.50018C23.75 3.08597 23.4142 2.75018 23 2.75018C22.5858 2.75018 22.25 3.08597 22.25 3.50018V17.3485C22.25 18.1495 21.7061 18.8483 20.9296 19.045L12.4296 21.1977C12.1477 21.2691 11.8523 21.2691 11.5704 21.1977L3.07036 19.045C2.29386 18.8483 1.75 18.1495 1.75 17.3485V3.50018Z" fill="#353566"/>
</svg>
