<svg width="24" height="24" viewBox="0 0 24 24" fill="none" xmlns="http://www.w3.org/2000/svg">
<path d="M4.75 5.5C4.75 3.98122 5.98122 2.75 7.5 2.75H20.5C20.9142 2.75 21.25 3.08579 21.25 3.5V15.5C21.25 15.9142 20.9142 16.25 20.5 16.25H14.8429C14.4287 16.25 14.0929 16.5858 14.0929 17C14.0929 17.4142 14.4287 17.75 14.8429 17.75H19.25V21.25H12.2404C11.8262 21.25 11.4904 21.5858 11.4904 22C11.4904 22.4142 11.8262 22.75 12.2404 22.75H22C22.4142 22.75 22.75 22.4142 22.75 22C22.75 21.5858 22.4142 21.25 22 21.25H20.75V17.7363C21.875 17.6119 22.75 16.6581 22.75 15.5V3.5C22.75 2.25736 21.7426 1.25 20.5 1.25H7.5C5.15279 1.25 3.25 3.15279 3.25 5.5V13C3.25 13.4142 3.58579 13.75 4 13.75C4.41421 13.75 4.75 13.4142 4.75 13V5.5Z" fill="#353566"/>
<path d="M4.52495 16.5357C4.82078 16.2457 4.82558 15.7709 4.53566 15.4751C4.24574 15.1792 3.77089 15.1744 3.47505 15.4643L1.47505 17.4243C1.33297 17.5636 1.25203 17.7536 1.25004 17.9525C1.24805 18.1514 1.32517 18.343 1.46444 18.485L3.4644 20.525C3.75438 20.8208 4.22923 20.8255 4.52501 20.5356C4.82079 20.2456 4.8255 19.7707 4.53552 19.475L3.06071 17.9706L4.52495 16.5357Z" fill="#353566"/>
<path d="M9.46407 15.4753C9.75384 15.1793 10.2287 15.1743 10.5247 15.4641L12.5247 17.4221C12.6668 17.5612 12.7479 17.7512 12.75 17.9501C12.752 18.1491 12.675 18.3407 12.5358 18.4828L10.5358 20.5248C10.246 20.8207 9.77113 20.8256 9.47521 20.5358C9.17929 20.246 9.17435 19.7711 9.46419 19.4752L10.9393 17.9691L9.47533 16.5359C9.17934 16.2462 9.1743 15.7713 9.46407 15.4753Z" fill="#353566"/>
<path d="M8.7276 14.182C8.82806 13.7801 8.58374 13.3729 8.1819 13.2724C7.78005 13.172 7.37285 13.4163 7.27239 13.8182L5.27239 21.8182C5.17193 22.22 5.41625 22.6272 5.81809 22.7277C6.21994 22.8281 6.62714 22.5838 6.7276 22.182L8.7276 14.182Z" fill="#353566"/>
</svg>
