<svg width="24" height="24" viewBox="0 0 24 24" fill="none" xmlns="http://www.w3.org/2000/svg">
<g clip-path="url(#clip0_9001_272940)">
<path d="M7.37737 0.500244H14.6226C15.7236 0.500242 16.5805 0.50024 17.2679 0.556402C17.9658 0.613425 18.5329 0.730828 19.043 0.990715C19.8897 1.42215 20.5781 2.11056 21.0095 2.95729C21.2694 3.46734 21.3868 4.03441 21.4438 4.73234C21.5 5.4197 21.5 6.2766 21.5 7.37751V11.321C21.5 11.5971 21.2761 11.821 21 11.821C20.7239 11.821 20.5 11.5971 20.5 11.321V7.40024C20.5 6.27189 20.4996 5.45569 20.4472 4.81377C20.3952 4.17768 20.2946 3.75687 20.1185 3.41128C19.783 2.75271 19.2475 2.21728 18.589 1.88172C18.2434 1.70563 17.8226 1.60505 17.1865 1.55308C16.5446 1.50063 15.7284 1.50024 14.6 1.50024H7.4C6.27164 1.50024 5.45545 1.50063 4.81352 1.55308C4.17744 1.60505 3.75662 1.70563 3.41103 1.88172C2.75247 2.21728 2.21703 2.75271 1.88148 3.41128C1.70539 3.75687 1.60481 4.17768 1.55284 4.81377C1.50039 5.45569 1.5 6.27189 1.5 7.40024V14.6002C1.5 15.7286 1.50039 16.5448 1.55284 17.1867C1.60481 17.8228 1.70539 18.2436 1.88148 18.5892C2.21703 19.2478 2.75247 19.7832 3.41103 20.1188C3.75662 20.2949 4.17744 20.3954 4.81352 20.4474C5.45545 20.4999 6.27165 20.5002 7.4 20.5002H11.3208C11.5969 20.5002 11.8208 20.7241 11.8208 21.0002C11.8208 21.2764 11.5969 21.5002 11.3208 21.5002H7.37736C6.27645 21.5002 5.41946 21.5002 4.73209 21.4441C4.03416 21.3871 3.4671 21.2697 2.95704 21.0098C2.11031 20.5783 1.4219 19.8899 0.990471 19.0432C0.730584 18.5331 0.61318 17.9661 0.556157 17.2682C0.499995 16.5808 0.499997 15.7238 0.5 14.6229V7.37762C0.499997 6.27666 0.499996 5.41972 0.556157 4.73234C0.61318 4.03441 0.730584 3.46734 0.990471 2.95729C1.4219 2.11056 2.11031 1.42215 2.95704 0.990715C3.4671 0.730828 4.03416 0.613425 4.73209 0.556402C5.41948 0.50024 6.27642 0.500242 7.37737 0.500244Z" fill="#353566"/>
<path d="M15.6464 8.64669C15.8417 8.45143 16.1583 8.45143 16.3536 8.64669C16.5488 8.84195 16.5488 9.15854 16.3536 9.3538L12.8536 12.8538C12.6583 13.0491 12.3417 13.0491 12.1464 12.8538L9.5 10.2074L6.35355 13.3538C6.15829 13.5491 5.84171 13.5491 5.64645 13.3538C5.45118 13.1585 5.45118 12.842 5.64645 12.6467L9.14645 9.14669C9.34171 8.95143 9.65829 8.95143 9.85355 9.14669L12.5 11.7931L15.6464 8.64669Z" fill="#353566"/>
<path d="M18.9199 19.5046L19.8997 18.5249C20.0949 18.3296 20.4115 18.3296 20.6068 18.5249C20.802 18.7201 20.802 19.0367 20.6068 19.232L18.7734 21.0653C18.6797 21.1591 18.5525 21.2118 18.4199 21.2118C18.2873 21.2118 18.1601 21.1591 18.0663 21.0653L16.233 19.232C16.0377 19.0367 16.0377 18.7202 16.233 18.5249C16.4283 18.3296 16.7448 18.3296 16.9401 18.5249L17.9199 19.5047V16.1284C17.9199 15.8523 18.1438 15.6284 18.4199 15.6284C18.6961 15.6284 18.9199 15.8523 18.9199 16.1284V19.5046Z" fill="#353566"/>
<path fill-rule="evenodd" clip-rule="evenodd" d="M18.4199 13.3369C15.6124 13.3369 13.3365 15.6128 13.3365 18.4202C13.3365 21.2277 15.6124 23.5036 18.4199 23.5036C21.2273 23.5036 23.5032 21.2277 23.5032 18.4202C23.5032 15.6128 21.2273 13.3369 18.4199 13.3369ZM14.3365 18.4202C14.3365 16.1651 16.1647 14.3369 18.4199 14.3369C20.675 14.3369 22.5032 16.1651 22.5032 18.4202C22.5032 20.6754 20.675 22.5036 18.4199 22.5036C16.1647 22.5036 14.3365 20.6754 14.3365 18.4202Z" fill="#353566"/>
</g>
<defs>
<clipPath id="clip0_9001_272940">
<rect width="24" height="24" fill="white"/>
</clipPath>
</defs>
</svg>
