<svg width="24" height="24" viewBox="0 0 24 24" fill="none" xmlns="http://www.w3.org/2000/svg">
<path fill-rule="evenodd" clip-rule="evenodd" d="M6.8214 10.5H5.1786C4.6367 10.5 4.19963 10.5 3.84569 10.4711C3.48126 10.4413 3.16117 10.3784 2.86502 10.2275C2.39462 9.98783 2.01217 9.60538 1.77248 9.13497C1.62159 8.83883 1.55868 8.51873 1.52891 8.15431C1.49999 7.80039 1.5 7.36333 1.5 6.82147V5.17858C1.5 4.63672 1.49999 4.19961 1.52891 3.84569C1.55868 3.48126 1.62159 3.16117 1.77248 2.86502C2.01217 2.39462 2.39462 2.01217 2.86502 1.77248C3.16117 1.62159 3.48126 1.55868 3.84569 1.52891C4.19961 1.49999 4.63665 1.5 5.1785 1.5H6.82142C7.36326 1.5 7.8004 1.49999 8.15431 1.52891C8.51874 1.55868 8.83883 1.62159 9.13498 1.77249C9.60538 2.01217 9.98783 2.39462 10.2275 2.86503C10.3784 3.16117 10.4413 3.48126 10.4711 3.84569C10.5 4.19962 10.5 4.63668 10.5 5.17855V6.8214C10.5 7.3633 10.5 7.80037 10.4711 8.15431C10.4413 8.51874 10.3784 8.83883 10.2275 9.13498C9.98783 9.60538 9.60538 9.98783 9.13498 10.2275C8.83883 10.3784 8.51874 10.4413 8.15431 10.4711C7.80038 10.5 7.36327 10.5 6.8214 10.5ZM8.07288 9.47441C8.37546 9.44969 8.54931 9.4036 8.68099 9.33651C8.96323 9.1927 9.1927 8.96323 9.33651 8.68099C9.4036 8.54931 9.44969 8.37546 9.47441 8.07288C9.49961 7.76446 9.5 7.3683 9.5 6.8V5.2C9.5 4.6317 9.49961 4.23554 9.47441 3.92712C9.44969 3.62454 9.4036 3.45069 9.33651 3.31902C9.1927 3.03677 8.96323 2.8073 8.68099 2.66349C8.54931 2.5964 8.37546 2.55031 8.07288 2.52559C7.76446 2.50039 7.3683 2.5 6.8 2.5L5.2 2.5C4.6317 2.5 4.23554 2.50039 3.92712 2.52559C3.62454 2.55031 3.45069 2.5964 3.31901 2.66349C3.03677 2.8073 2.8073 3.03677 2.66349 3.31901C2.5964 3.45069 2.55031 3.62454 2.52559 3.92712C2.50039 4.23554 2.5 4.6317 2.5 5.2L2.5 6.8C2.5 7.3683 2.50039 7.76446 2.52559 8.07288C2.55031 8.37546 2.5964 8.54931 2.66349 8.68098C2.8073 8.96323 3.03677 9.1927 3.31901 9.33651C3.45069 9.4036 3.62454 9.44969 3.92712 9.47441C4.23554 9.49961 4.6317 9.5 5.2 9.5L6.8 9.5C7.3683 9.5 7.76446 9.49961 8.07288 9.47441Z" fill="#353566"/>
<path fill-rule="evenodd" clip-rule="evenodd" d="M6.8214 22.5L5.1786 22.5C4.6367 22.5 4.19963 22.5 3.84569 22.4711C3.48126 22.4413 3.16117 22.3784 2.86502 22.2275C2.39462 21.9878 2.01217 21.6054 1.77248 21.135C1.62159 20.8388 1.55868 20.5187 1.52891 20.1543C1.49999 19.8004 1.5 19.3633 1.5 18.8215V17.1786C1.5 16.6367 1.49999 16.1996 1.52891 15.8457C1.55868 15.4813 1.62159 15.1612 1.77248 14.865C2.01217 14.3946 2.39462 14.0122 2.86502 13.7725C3.16117 13.6216 3.48126 13.5587 3.84569 13.5289C4.19961 13.5 4.63667 13.5 5.17853 13.5H6.82142C7.36328 13.5 7.80039 13.5 8.15431 13.5289C8.51874 13.5587 8.83883 13.6216 9.13498 13.7725C9.60538 14.0122 9.98783 14.3946 10.2275 14.865C10.3784 15.1612 10.4413 15.4813 10.4711 15.8457C10.5 16.1996 10.5 16.6367 10.5 17.1785V18.8214C10.5 19.3633 10.5 19.8004 10.4711 20.1543C10.4413 20.5187 10.3784 20.8388 10.2275 21.135C9.98783 21.6054 9.60538 21.9878 9.13498 22.2275C8.83883 22.3784 8.51874 22.4413 8.15431 22.4711C7.80041 22.5 7.36322 22.5 6.8214 22.5ZM8.07288 21.4744C8.37546 21.4497 8.54931 21.4036 8.68099 21.3365C8.96323 21.1927 9.1927 20.9632 9.33651 20.681C9.4036 20.5493 9.44969 20.3755 9.47441 20.0729C9.49961 19.7645 9.5 19.3683 9.5 18.8V17.2C9.5 16.6317 9.49961 16.2355 9.47441 15.9271C9.44969 15.6245 9.4036 15.4507 9.33651 15.319C9.1927 15.0368 8.96323 14.8073 8.68099 14.6635C8.54931 14.5964 8.37546 14.5503 8.07288 14.5256C7.76446 14.5004 7.3683 14.5 6.8 14.5L5.2 14.5C4.6317 14.5 4.23554 14.5004 3.92712 14.5256C3.62454 14.5503 3.45069 14.5964 3.31901 14.6635C3.03677 14.8073 2.8073 15.0368 2.66349 15.319C2.5964 15.4507 2.55031 15.6245 2.52559 15.9271C2.50039 16.2355 2.5 16.6317 2.5 17.2L2.5 18.8C2.5 19.3683 2.50039 19.7645 2.52559 20.0729C2.55031 20.3755 2.5964 20.5493 2.66349 20.681C2.8073 20.9632 3.03677 21.1927 3.31901 21.3365C3.45069 21.4036 3.62454 21.4497 3.92712 21.4744C4.23554 21.4996 4.6317 21.5 5.2 21.5H6.8C7.3683 21.5 7.76446 21.4996 8.07288 21.4744Z" fill="#353566"/>
<path fill-rule="evenodd" clip-rule="evenodd" d="M15.4799 7L20.0201 7C20.353 7.00001 20.6328 7.00001 20.8617 6.98131C21.1011 6.96175 21.3286 6.91928 21.5445 6.80926C21.8738 6.64148 22.1415 6.37377 22.3093 6.04448C22.4193 5.82855 22.4618 5.60107 22.4813 5.36171C22.5 5.13278 22.5 4.85301 22.5 4.52008V4.47992C22.5 4.14699 22.5 3.86722 22.4813 3.63829C22.4618 3.39893 22.4193 3.17145 22.3093 2.95552C22.1415 2.62623 21.8738 2.35852 21.5445 2.19074C21.3286 2.08072 21.1011 2.03825 20.8617 2.01869C20.6328 1.99999 20.353 1.99999 20.0201 2L15.4799 2C15.147 1.99999 14.8672 1.99999 14.6383 2.01869C14.3989 2.03825 14.1714 2.08072 13.9555 2.19074C13.6262 2.35852 13.3585 2.62623 13.1907 2.95552C13.0807 3.17144 13.0382 3.39893 13.0187 3.63829C13 3.86721 13 4.14695 13 4.47987V4.52009C13 4.853 13 5.13279 13.0187 5.36171C13.0382 5.60107 13.0807 5.82855 13.1907 6.04448C13.3585 6.37377 13.6262 6.64148 13.9555 6.80926C14.1714 6.91928 14.3989 6.96175 14.6383 6.98131C14.8672 7.00001 15.147 7.00001 15.4799 7ZM21.0905 5.91825C21.039 5.94447 20.9578 5.97013 20.7803 5.98463C20.5969 5.99961 20.3583 6 20 6L15.5 6C15.1417 6 14.9031 5.99961 14.7197 5.98463C14.5422 5.97013 14.461 5.94447 14.4095 5.91825C14.2684 5.84635 14.1536 5.73161 14.0817 5.59049C14.0555 5.53903 14.0299 5.4578 14.0154 5.28028C14.0004 5.09692 14 4.85828 14 4.5C14 4.14172 14.0004 3.90307 14.0154 3.71972C14.0299 3.5422 14.0555 3.46097 14.0817 3.40951C14.1536 3.26839 14.2684 3.15365 14.4095 3.08174C14.461 3.05552 14.5422 3.02987 14.7197 3.01537C14.9031 3.00039 15.1417 3 15.5 3L20 3C20.3583 3 20.5969 3.00039 20.7803 3.01537C20.9578 3.02987 21.039 3.05552 21.0905 3.08175C21.2316 3.15365 21.3463 3.26839 21.4183 3.40951C21.4445 3.46097 21.4701 3.5422 21.4846 3.71972C21.4996 3.90308 21.5 4.14172 21.5 4.5C21.5 4.85828 21.4996 5.09692 21.4846 5.28028C21.4701 5.4578 21.4445 5.53903 21.4183 5.59049C21.3463 5.73161 21.2316 5.84635 21.0905 5.91825Z" fill="#353566"/>
<path fill-rule="evenodd" clip-rule="evenodd" d="M20.0201 14.5H15.4799C15.147 14.5 14.8672 14.5 14.6383 14.4813C14.3989 14.4618 14.1714 14.4193 13.9555 14.3093C13.6262 14.1415 13.3585 13.8738 13.1907 13.5445C13.0807 13.3286 13.0382 13.1011 13.0187 12.8617C13 12.6328 13 12.353 13 12.0201V11.9799C13 11.647 13 11.3672 13.0187 11.1383C13.0382 10.8989 13.0807 10.6714 13.1907 10.4555C13.3585 10.1262 13.6262 9.85852 13.9555 9.69074C14.1714 9.58072 14.3989 9.53825 14.6383 9.51869C14.8672 9.49999 15.147 9.49999 15.4799 9.5H20.0201C20.353 9.49999 20.6328 9.49999 20.8617 9.51869C21.1011 9.53825 21.3286 9.58072 21.5445 9.69074C21.8738 9.85852 22.1415 10.1262 22.3093 10.4555C22.4193 10.6714 22.4618 10.8989 22.4813 11.1383C22.5 11.3672 22.5 11.647 22.5 11.9799V12.0201C22.5 12.353 22.5 12.6328 22.4813 12.8617C22.4618 13.1011 22.4193 13.3286 22.3093 13.5445C22.1415 13.8738 21.8738 14.1415 21.5445 14.3093C21.3286 14.4193 21.1011 14.4618 20.8617 14.4813C20.6328 14.5 20.353 14.5 20.0201 14.5ZM20.7803 13.4846C20.9578 13.4701 21.039 13.4445 21.0905 13.4183C21.2316 13.3463 21.3463 13.2316 21.4183 13.0905C21.4445 13.039 21.4701 12.9578 21.4846 12.7803C21.4996 12.5969 21.5 12.3583 21.5 12C21.5 11.6417 21.4996 11.4031 21.4846 11.2197C21.4701 11.0422 21.4445 10.961 21.4183 10.9095C21.3463 10.7684 21.2316 10.6537 21.0905 10.5817C21.039 10.5555 20.9578 10.5299 20.7803 10.5154C20.5969 10.5004 20.3583 10.5 20 10.5H15.5C15.1417 10.5 14.9031 10.5004 14.7197 10.5154C14.5422 10.5299 14.461 10.5555 14.4095 10.5817C14.2684 10.6536 14.1536 10.7684 14.0817 10.9095C14.0555 10.961 14.0299 11.0422 14.0154 11.2197C14.0004 11.4031 14 11.6417 14 12C14 12.3583 14.0004 12.5969 14.0154 12.7803C14.0299 12.9578 14.0555 13.039 14.0817 13.0905C14.1536 13.2316 14.2684 13.3463 14.4095 13.4183C14.461 13.4445 14.5422 13.4701 14.7197 13.4846C14.9031 13.4996 15.1417 13.5 15.5 13.5H20C20.3583 13.5 20.5969 13.4996 20.7803 13.4846Z" fill="#353566"/>
<path fill-rule="evenodd" clip-rule="evenodd" d="M15.4799 22H20.0201C20.353 22 20.6328 22 20.8617 21.9813C21.1011 21.9618 21.3286 21.9193 21.5445 21.8093C21.8738 21.6415 22.1415 21.3738 22.3093 21.0445C22.4193 20.8286 22.4618 20.6011 22.4813 20.3617C22.5 20.1328 22.5 19.853 22.5 19.5201V19.4799C22.5 19.147 22.5 18.8672 22.4813 18.6383C22.4618 18.3989 22.4193 18.1714 22.3093 17.9555C22.1415 17.6262 21.8738 17.3585 21.5445 17.1907C21.3286 17.0807 21.1011 17.0382 20.8617 17.0187C20.6328 17 20.353 17 20.0201 17H15.4799C15.147 17 14.8672 17 14.6383 17.0187C14.3989 17.0382 14.1714 17.0807 13.9555 17.1907C13.6262 17.3585 13.3585 17.6262 13.1907 17.9555C13.0807 18.1714 13.0382 18.3989 13.0187 18.6383C13 18.8672 13 19.147 13 19.4799V19.5201C13 19.853 13 20.1328 13.0187 20.3617C13.0382 20.6011 13.0807 20.8286 13.1907 21.0445C13.3585 21.3738 13.6262 21.6415 13.9555 21.8093C14.1714 21.9193 14.3989 21.9618 14.6383 21.9813C14.8672 22 15.1471 22 15.4799 22ZM21.0905 20.9183C21.039 20.9445 20.9578 20.9701 20.7803 20.9846C20.5969 20.9996 20.3583 21 20 21L15.5 21C15.1417 21 14.9031 20.9996 14.7197 20.9846C14.5422 20.9701 14.461 20.9445 14.4095 20.9183C14.2684 20.8463 14.1536 20.7316 14.0817 20.5905C14.0555 20.539 14.0299 20.4578 14.0154 20.2803C14.0004 20.0969 14 19.8583 14 19.5C14 19.1417 14.0004 18.9031 14.0154 18.7197C14.0299 18.5422 14.0555 18.461 14.0817 18.4095C14.1536 18.2684 14.2684 18.1537 14.4095 18.0817C14.461 18.0555 14.5422 18.0299 14.7197 18.0154C14.9031 18.0004 15.1417 18 15.5 18H20C20.3583 18 20.5969 18.0004 20.7803 18.0154C20.9578 18.0299 21.039 18.0555 21.0905 18.0817C21.2316 18.1537 21.3463 18.2684 21.4183 18.4095C21.4445 18.461 21.4701 18.5422 21.4846 18.7197C21.4996 18.9031 21.5 19.1417 21.5 19.5C21.5 19.8583 21.4996 20.0969 21.4846 20.2803C21.4701 20.4578 21.4445 20.539 21.4183 20.5905C21.3463 20.7316 21.2316 20.8463 21.0905 20.9183Z" fill="#353566"/>
</svg>
