<svg width="24" height="24" viewBox="0 0 24 24" fill="none" xmlns="http://www.w3.org/2000/svg">
<g clip-path="url(#clip0_9001_273090)">
<path d="M7.37737 0.5H14.6226C15.7236 0.499997 16.5805 0.499995 17.2679 0.556157C17.9658 0.61318 18.5329 0.730584 19.043 0.990471C19.8897 1.4219 20.5781 2.11031 21.0095 2.95704C21.2694 3.4671 21.3868 4.03416 21.4438 4.73209C21.5 5.41947 21.5 6.27639 21.5 7.37734V11.3208C21.5 11.5969 21.2761 11.8208 21 11.8208C20.7239 11.8208 20.5 11.5969 20.5 11.3208V7.4C20.5 6.27164 20.4996 5.45545 20.4472 4.81352C20.3952 4.17744 20.2946 3.75662 20.1185 3.41103C19.783 2.75247 19.2475 2.21703 18.589 1.88148C18.2434 1.70539 17.8226 1.60481 17.1865 1.55284C16.5446 1.50039 15.7284 1.5 14.6 1.5H7.4C6.27164 1.5 5.45545 1.50039 4.81352 1.55284C4.17744 1.60481 3.75662 1.70539 3.41103 1.88148C2.75247 2.21703 2.21703 2.75247 1.88148 3.41103C1.70539 3.75662 1.60481 4.17744 1.55284 4.81352C1.50039 5.45545 1.5 6.27164 1.5 7.4V14.6C1.5 15.7284 1.50039 16.5446 1.55284 17.1865C1.60481 17.8226 1.70539 18.2434 1.88148 18.589C2.21703 19.2475 2.75247 19.783 3.41103 20.1185C3.75662 20.2946 4.17744 20.3952 4.81352 20.4472C5.45545 20.4996 6.27164 20.5 7.4 20.5H11.3208C11.5969 20.5 11.8208 20.7239 11.8208 21C11.8208 21.2761 11.5969 21.5 11.3208 21.5H7.37736C6.27643 21.5 5.41947 21.5 4.73209 21.4438C4.03416 21.3868 3.4671 21.2694 2.95704 21.0095C2.11031 20.5781 1.4219 19.8897 0.990471 19.043C0.730583 18.5329 0.61318 17.9658 0.556158 17.2679C0.499996 16.5805 0.499998 15.7236 0.5 14.6227V7.37737C0.499998 6.27644 0.499996 5.41947 0.556158 4.73209C0.61318 4.03416 0.730583 3.4671 0.990471 2.95704C1.4219 2.11031 2.11031 1.4219 2.95704 0.990471C3.4671 0.730584 4.03416 0.61318 4.73209 0.556157C5.41948 0.499995 6.27641 0.499997 7.37737 0.5Z" fill="#353566"/>
<path d="M11 6.5C11.2761 6.5 11.5 6.72386 11.5 7V15C11.5 15.2761 11.2761 15.5 11 15.5C10.7239 15.5 10.5 15.2761 10.5 15V7C10.5 6.72386 10.7239 6.5 11 6.5Z" fill="#353566"/>
<path d="M14.5 8.5C14.7761 8.5 15 8.72386 15 9V12.0366C15 12.3127 14.7761 12.5366 14.5 12.5366C14.2239 12.5366 14 12.3127 14 12.0366V9C14 8.72386 14.2239 8.5 14.5 8.5Z" fill="#353566"/>
<path d="M7.5 11.5C7.77614 11.5 8 11.7239 8 12V15C8 15.2761 7.77614 15.5 7.5 15.5C7.22386 15.5 7 15.2761 7 15V12C7 11.7239 7.22386 11.5 7.5 11.5Z" fill="#353566"/>
<path fill-rule="evenodd" clip-rule="evenodd" d="M23.5033 18.42C23.5033 15.6126 21.2274 13.3367 18.42 13.3367C15.6125 13.3367 13.3366 15.6126 13.3366 18.42C13.3366 21.2275 15.6125 23.5033 18.42 23.5033C21.2274 23.5033 23.5033 21.2275 23.5033 18.42ZM18.42 14.3367C20.6751 14.3367 22.5033 16.1648 22.5033 18.42C22.5033 19.3674 22.1807 20.2394 21.6393 20.9322L15.9078 15.2007C16.6006 14.6593 17.4726 14.3367 18.42 14.3367ZM18.42 22.5033C19.3673 22.5033 20.2394 22.1807 20.9322 21.6393L15.2007 15.9078C14.6593 16.6006 14.3366 17.4726 14.3366 18.42C14.3366 20.6752 16.1648 22.5033 18.42 22.5033Z" fill="#353566"/>
</g>
<defs>
<clipPath id="clip0_9001_273090">
<rect width="24" height="24" fill="white"/>
</clipPath>
</defs>
</svg>
