<svg width="24" height="24" viewBox="0 0 24 24" fill="none" xmlns="http://www.w3.org/2000/svg">
<g clip-path="url(#clip0_9001_273120)">
<path d="M7.37737 0.500244H14.6226C15.7236 0.500242 16.5805 0.50024 17.2679 0.556402C17.9658 0.613425 18.5329 0.730828 19.043 0.990715C19.8897 1.42215 20.5781 2.11056 21.0095 2.95729C21.2694 3.46734 21.3868 4.03441 21.4438 4.73234C21.5 5.41971 21.5 6.27662 21.5 7.37755V11.0854C21.5 11.3616 21.2761 11.5854 21 11.5854C20.7239 11.5854 20.5 11.3616 20.5 11.0854V7.40024C20.5 6.27189 20.4996 5.45569 20.4472 4.81377C20.3952 4.17768 20.2946 3.75687 20.1185 3.41128C19.783 2.75271 19.2475 2.21728 18.589 1.88172C18.2434 1.70563 17.8226 1.60505 17.1865 1.55308C16.5446 1.50063 15.7284 1.50024 14.6 1.50024H7.4C6.27164 1.50024 5.45545 1.50063 4.81352 1.55308C4.17744 1.60505 3.75662 1.70563 3.41103 1.88172C2.75247 2.21728 2.21703 2.75271 1.88148 3.41128C1.70539 3.75687 1.60481 4.17768 1.55284 4.81377C1.50039 5.45569 1.5 6.27189 1.5 7.40024V14.6002C1.5 15.7286 1.50039 16.5448 1.55284 17.1867C1.60481 17.8228 1.70539 18.2436 1.88148 18.5892C2.21703 19.2478 2.75247 19.7832 3.41103 20.1188C3.75662 20.2949 4.17744 20.3954 4.81352 20.4474C5.45545 20.4999 6.27165 20.5002 7.4 20.5002H13.4929C13.769 20.5002 13.9929 20.7241 13.9929 21.0002C13.9929 21.2764 13.769 21.5002 13.4929 21.5002H7.37736C6.27643 21.5002 5.41947 21.5002 4.73209 21.4441C4.03416 21.3871 3.4671 21.2697 2.95704 21.0098C2.11031 20.5783 1.4219 19.8899 0.990471 19.0432C0.730584 18.5331 0.61318 17.9661 0.556157 17.2682C0.499995 16.5808 0.499997 15.7238 0.5 14.6229V7.37762C0.499997 6.27666 0.499996 5.41972 0.556157 4.73234C0.61318 4.03441 0.730584 3.46734 0.990471 2.95729C1.4219 2.11056 2.11031 1.42215 2.95704 0.990715C3.4671 0.730828 4.03416 0.613425 4.73209 0.556402C5.41948 0.50024 6.27642 0.500242 7.37737 0.500244Z" fill="#353566"/>
<path d="M11 6.50024C11.2761 6.50024 11.5 6.7241 11.5 7.00024V15.0002C11.5 15.2764 11.2761 15.5002 11 15.5002C10.7239 15.5002 10.5 15.2764 10.5 15.0002V7.00024C10.5 6.7241 10.7239 6.50024 11 6.50024Z" fill="#353566"/>
<path d="M14.5 8.50024C14.7761 8.50024 15 8.7241 15 9.00024V15.0002C15 15.2764 14.7761 15.5002 14.5 15.5002C14.2239 15.5002 14 15.2764 14 15.0002V9.00024C14 8.7241 14.2239 8.50024 14.5 8.50024Z" fill="#353566"/>
<path d="M7.5 11.5002C7.77614 11.5002 8 11.7241 8 12.0002V15.0002C8 15.2764 7.77614 15.5002 7.5 15.5002C7.22386 15.5002 7 15.2764 7 15.0002V12.0002C7 11.7241 7.22386 11.5002 7.5 11.5002Z" fill="#353566"/>
<path fill-rule="evenodd" clip-rule="evenodd" d="M20.7541 14.2959C20.7541 13.3896 19.6129 12.9906 19.0474 13.6974L15.3808 18.2802C14.8785 18.9079 15.3261 19.8368 16.1291 19.8368H17.9208V22.5445C17.9208 23.4508 19.062 23.8498 19.6275 23.143L23.2941 18.5602C23.7963 17.9325 23.3487 17.0036 22.5457 17.0036H20.7541V14.2959ZM16.2161 18.8368L19.7541 14.4148V17.0455C19.7541 17.5749 20.1834 18.0036 20.7124 18.0036H22.4587L18.9208 22.4256V19.7949C18.9208 19.2655 18.4914 18.8368 17.9624 18.8368H16.2161Z" fill="#353566"/>
</g>
<defs>
<clipPath id="clip0_9001_273120">
<rect width="24" height="24" fill="white"/>
</clipPath>
</defs>
</svg>
