<svg width="24" height="24" viewBox="0 0 24 24" fill="none" xmlns="http://www.w3.org/2000/svg">
<path d="M6.45039 4.59896C7.9963 3.43778 9.91674 2.75 12 2.75C17.1086 2.75 21.25 6.89137 21.25 12C21.25 17.1086 17.1086 21.25 12 21.25C7.85929 21.25 4.35223 18.5288 3.17332 14.7753C3.0492 14.3801 2.62822 14.1603 2.23304 14.2845C1.83786 14.4086 1.61813 14.8296 1.74224 15.2247C3.11186 19.5854 7.18538 22.75 12 22.75C17.937 22.75 22.75 17.9371 22.75 12C22.75 6.06294 17.937 1.25 12 1.25C9.58078 1.25 7.34627 2.05002 5.54952 3.39961C4.80446 3.95925 4.01526 4.75246 3.3503 5.52046C3.14011 5.76322 2.93793 6.00856 2.75 6.24857L2.75 2.5C2.75 2.08579 2.41421 1.75 2 1.75C1.58579 1.75 1.25 2.08579 1.25 2.5V8C1.25 8.41421 1.58579 8.75 2 8.75H2.44244C2.45224 8.75019 2.46203 8.75019 2.4718 8.75H7.5C7.91421 8.75 8.25 8.41421 8.25 8C8.25 7.58579 7.91421 7.25 7.5 7.25H3.87139C4.05567 7.01164 4.26202 6.75904 4.4843 6.50232C5.11163 5.77778 5.82243 5.07064 6.45039 4.59896Z" fill="#353566"/>
<path d="M11.9994 7C10.3428 7 9 8.34326 9 10C9 11.6567 10.3428 13 11.9994 13C13.6561 13 14.9988 11.6567 14.9988 10C14.9988 8.34326 13.6561 7 11.9994 7Z" fill="#353566"/>
<path d="M12 14.25C10.3763 14.25 8.75484 14.8422 7.5059 15.9357C7.27086 16.1415 7.18801 16.4715 7.29794 16.7639C7.40787 17.0563 7.68756 17.25 7.99997 17.25H16C16.3124 17.25 16.5921 17.0563 16.702 16.7639C16.8119 16.4715 16.7291 16.1415 16.494 15.9357C15.2451 14.8422 13.6236 14.25 12 14.25Z" fill="#353566"/>
</svg>
