<svg width="24" height="24" viewBox="0 0 24 24" fill="none" xmlns="http://www.w3.org/2000/svg">
<path opacity="0.4" d="M21 11.502C21 11.5013 21 11.5007 21 11.5C21 6.52944 16.9706 2.5 12 2.5C7.02944 2.5 3 6.52944 3 11.5C3 16.4634 7.01785 20.4884 11.9785 20.5C11.6861 20.1946 11.5 19.7969 11.5 19.249C11.5 17.9466 12.5542 17.4938 13.586 17.111C14.063 16.935 14.436 16.563 14.61 16.088C14.9934 15.0559 15.4458 14 16.749 14C17.095 14 17.412 14.104 17.697 14.263C17.881 13.905 18.178 13.61 18.57 13.466C18.6166 13.4488 18.6726 13.4327 18.7326 13.4156C18.9427 13.3554 19.201 13.2815 19.271 13.094C19.5721 12.2833 19.9908 11.505 20.992 11.502L21 11.502C21.0003 11.502 20.9997 11.502 21 11.502Z" fill="#353566"/>
<path d="M5.78545 1.72108C5.48737 1.57948 5.15367 1.5 4.8 1.5C3.52974 1.5 2.5 2.52975 2.5 3.8C2.5 4.15367 2.57948 4.48737 2.72108 4.78545C2.83957 5.03488 2.73343 5.33314 2.484 5.45163C2.23457 5.57012 1.93631 5.46397 1.81782 5.21455C1.61387 4.78522 1.5 4.30521 1.5 3.8C1.5 1.97746 2.97746 0.5 4.8 0.5C5.30521 0.5 5.78522 0.613873 6.21455 0.817822C6.46397 0.936313 6.57012 1.23457 6.45163 1.484C6.33314 1.73343 6.03488 1.83957 5.78545 1.72108Z" fill="#353566"/>
<path d="M19.2 1.5C18.8463 1.5 18.5126 1.57948 18.2145 1.72108C17.9651 1.83957 17.6669 1.73343 17.5484 1.484C17.4299 1.23457 17.536 0.936313 17.7855 0.817822C18.2148 0.613873 18.6948 0.5 19.2 0.5C21.0225 0.5 22.5 1.97746 22.5 3.8C22.5 4.30521 22.3861 4.78522 22.1822 5.21455C22.0637 5.46397 21.7654 5.57012 21.516 5.45163C21.2666 5.33314 21.1604 5.03488 21.2789 4.78545C21.4205 4.48737 21.5 4.15367 21.5 3.8C21.5 2.52975 20.4703 1.5 19.2 1.5Z" fill="#353566"/>
<path d="M3.5 11.5C3.5 6.80558 7.30558 3 12 3C16.6944 3 20.5 6.80558 20.5 11.5C20.5 11.5255 20.4999 11.551 20.4997 11.5764C20.6463 11.5289 20.8095 11.5025 20.992 11.502H20.999C21.1848 11.502 21.3508 11.5287 21.4997 11.5773C21.4999 11.5515 21.5 11.5258 21.5 11.5C21.5 6.25329 17.2467 2 12 2C6.75329 2 2.5 6.25329 2.5 11.5C2.5 14.0707 3.52105 16.4029 5.17973 18.1132L2.64645 20.6464C2.45118 20.8417 2.45118 21.1583 2.64645 21.3536C2.84171 21.5488 3.15829 21.5488 3.35355 21.3536L5.91304 18.7941C7.56153 20.1712 9.68398 21 12 21C12.2128 21 12.424 20.993 12.6334 20.9792C12.198 20.7447 11.8314 20.4417 11.6408 19.9925C7.113 19.8043 3.5 16.0741 3.5 11.5Z" fill="#353566"/>
<path d="M12.5 6.5C12.5 6.22386 12.2761 6 12 6C11.7239 6 11.5 6.22386 11.5 6.5V11.5C11.5 11.7761 11.7239 12 12 12C12.2761 12 12.5 11.7761 12.5 11.5V6.5Z" fill="#353566"/>
<path fill-rule="evenodd" clip-rule="evenodd" d="M15.8479 15.6281C16.1578 14.7906 17.3422 14.7906 17.6521 15.6281L17.9505 16.4345C18.2274 17.1827 18.8173 17.7726 19.5655 18.0495L20.3719 18.3479C21.2094 18.6578 21.2094 19.8422 20.3719 20.1521L19.5655 20.4505C18.8173 20.7274 18.2274 21.3173 17.9505 22.0655L17.6521 22.8719C17.3422 23.7094 16.1578 23.7094 15.8479 22.8719L15.5495 22.0655C15.2726 21.3173 14.6827 20.7274 13.9345 20.4505L13.1281 20.1521C12.2906 19.8422 12.2906 18.6578 13.1281 18.3479L13.9345 18.0495C14.6827 17.7726 15.2726 17.1827 15.5495 16.4345L15.8479 15.6281ZM16.75 16.0717L16.4873 16.7816C16.1092 17.8035 15.3035 18.6092 14.2816 18.9873L13.5717 19.25L14.2816 19.5127C15.3035 19.8908 16.1092 20.6965 16.4873 21.7184L16.75 22.4283L17.0127 21.7184C17.3908 20.6965 18.1965 19.8908 19.2184 19.5127L19.9283 19.25L19.2184 18.9873C18.1965 18.6092 17.3908 17.8035 17.0127 16.7816L16.75 16.0717Z" fill="#353566"/>
<path d="M21.1269 13.0883C21.0833 12.9706 20.9167 12.9706 20.8731 13.0883L20.6789 13.6133C20.4962 14.107 20.107 14.4962 19.6133 14.6789L19.0883 14.8731C18.9706 14.9167 18.9706 15.0833 19.0883 15.1269L19.6133 15.3211C20.107 15.5038 20.4962 15.893 20.6789 16.3867L20.8731 16.9117C20.9167 17.0294 21.0833 17.0294 21.1269 16.9117L21.3211 16.3867C21.5038 15.893 21.893 15.5038 22.3867 15.3211L22.9117 15.1269C23.0294 15.0833 23.0294 14.9167 22.9117 14.8731L22.3867 14.6789C21.893 14.4962 21.5038 14.107 21.3211 13.6133L21.1269 13.0883Z" fill="#353566"/>
</svg>
