<svg width="24" height="24" viewBox="0 0 24 24" fill="none" xmlns="http://www.w3.org/2000/svg">
<path opacity="0.4" d="M20.9718 12.2176C20.9905 11.9809 21 11.7415 21 11.5C21 6.52944 16.9706 2.5 12 2.5C7.02944 2.5 3 6.52944 3 11.5C3 16.47 7.02845 20.499 11.9982 20.5C11.6772 19.7304 11.5 18.8859 11.5 18C11.5 14.4101 14.4101 11.5 18 11.5C19.0708 11.5 20.0812 11.7589 20.9718 12.2176Z" fill="#353566"/>
<path d="M4.8 1.5C5.15367 1.5 5.48737 1.57948 5.78545 1.72108C6.03488 1.83957 6.33314 1.73343 6.45163 1.484C6.57012 1.23457 6.46397 0.936313 6.21455 0.817822C5.78522 0.613873 5.30521 0.5 4.8 0.5C2.97746 0.5 1.5 1.97746 1.5 3.8C1.5 4.30521 1.61387 4.78522 1.81782 5.21455C1.93631 5.46397 2.23457 5.57012 2.484 5.45163C2.73343 5.33314 2.83957 5.03488 2.72108 4.78545C2.57948 4.48737 2.5 4.15367 2.5 3.8C2.5 2.52975 3.52974 1.5 4.8 1.5Z" fill="#353566"/>
<path d="M18.2145 1.72108C18.5126 1.57948 18.8463 1.5 19.2 1.5C20.4703 1.5 21.5 2.52975 21.5 3.8C21.5 4.15367 21.4205 4.48737 21.2789 4.78545C21.1604 5.03488 21.2666 5.33314 21.516 5.45163C21.7654 5.57012 22.0637 5.46397 22.1822 5.21455C22.3861 4.78522 22.5 4.30521 22.5 3.8C22.5 1.97746 21.0225 0.5 19.2 0.5C18.6948 0.5 18.2148 0.613873 17.7855 0.817822C17.536 0.936313 17.4299 1.23457 17.5484 1.484C17.6669 1.73343 17.9651 1.83957 18.2145 1.72108Z" fill="#353566"/>
<path d="M12 3C7.30558 3 3.5 6.80558 3.5 11.5C3.5 16.1319 7.20485 19.8984 11.8128 19.998C11.9247 20.3447 12.065 20.6787 12.2308 20.9973C12.1541 20.9991 12.0771 21 12 21C9.68398 21 7.56153 20.1712 5.91304 18.7941L3.35355 21.3536C3.15829 21.5488 2.84171 21.5488 2.64645 21.3536C2.45118 21.1583 2.45118 20.8417 2.64645 20.6464L5.17973 18.1132C3.52105 16.4029 2.5 14.0707 2.5 11.5C2.5 6.25329 6.75329 2 12 2C17.2467 2 21.5 6.25329 21.5 11.5C21.5 11.8342 21.4827 12.1643 21.4491 12.4896C21.1441 12.2983 20.8222 12.1316 20.486 11.9923C20.4953 11.8294 20.5 11.6653 20.5 11.5C20.5 6.80558 16.6944 3 12 3Z" fill="#353566"/>
<path d="M12 6C12.2761 6 12.5 6.22386 12.5 6.5V11.5C12.5 11.7761 12.2761 12 12 12C11.7239 12 11.5 11.7761 11.5 11.5V6.5C11.5 6.22386 11.7239 6 12 6Z" fill="#353566"/>
<path d="M20.3536 16.3964C20.5488 16.5917 20.5488 16.9083 20.3536 17.1036L17.8536 19.6036C17.7595 19.6976 17.6319 19.7503 17.499 19.75C17.366 19.7497 17.2386 19.6965 17.145 19.6021L15.645 18.0898C15.4505 17.8937 15.4518 17.5771 15.6479 17.3827C15.844 17.1882 16.1605 17.1895 16.355 17.3856L17.5015 18.5414L19.6464 16.3964C19.8417 16.2012 20.1583 16.2012 20.3536 16.3964Z" fill="#353566"/>
<path fill-rule="evenodd" clip-rule="evenodd" d="M12.5 18C12.5 14.9624 14.9624 12.5 18 12.5C21.0376 12.5 23.5 14.9624 23.5 18C23.5 21.0376 21.0376 23.5 18 23.5C14.9624 23.5 12.5 21.0376 12.5 18ZM18 13.5C15.5147 13.5 13.5 15.5147 13.5 18C13.5 20.4853 15.5147 22.5 18 22.5C20.4853 22.5 22.5 20.4853 22.5 18C22.5 15.5147 20.4853 13.5 18 13.5Z" fill="#353566"/>
</svg>
