<svg width="24" height="24" viewBox="0 0 24 24" fill="none" xmlns="http://www.w3.org/2000/svg">
<g clip-path="url(#clip0_9001_303681)">
<path opacity="0.4" d="M1.1 8.5H20.9C20.9552 8.5 21 8.54477 21 8.6V14.2427C20.0687 13.7529 19.0428 13.5 18 13.5C15.3638 13.5 12.8355 15.1163 11.6715 18.0893C11.4428 18.6734 11.4428 19.3266 11.6715 19.9107C12.1781 21.2046 12.9431 22.2415 13.8629 23H6.6C4.63982 23 3.65972 23 2.91103 22.6185C2.25247 22.283 1.71703 21.7475 1.38148 21.089C1 20.3403 1 19.3602 1 17.4V8.6C1 8.54478 1.04478 8.5 1.1 8.5Z" fill="#353566"/>
<path fill-rule="evenodd" clip-rule="evenodd" d="M7 0.5C7.27614 0.5 7.5 0.723858 7.5 1V2.5H14.5V1C14.5 0.723858 14.7239 0.5 15 0.5C15.2761 0.5 15.5 0.723858 15.5 1V2.5C16.4241 2.50003 17.1518 2.50133 17.7395 2.54935C18.3541 2.59956 18.8594 2.70334 19.316 2.93597C20.0686 3.31947 20.6805 3.93139 21.064 4.68404C21.2967 5.14062 21.4004 5.64594 21.4507 6.26049C21.5 6.86451 21.5 7.61646 21.5 8.57754V14.5344C21.1795 14.3281 20.8449 14.1517 20.5 14.0062V9H1.5V17.4C1.5 18.3883 1.50039 19.0995 1.54602 19.6581C1.59118 20.2108 1.67814 20.5699 1.82698 20.862C2.1146 21.4265 2.57354 21.8854 3.13803 22.173C3.43014 22.3219 3.78921 22.4088 4.34192 22.454C4.90047 22.4996 5.61166 22.5 6.6 22.5H13.319C13.6988 22.8884 14.1135 23.2223 14.5541 23.5H6.57754C5.61646 23.5 4.86451 23.5 4.26049 23.4507C3.64594 23.4004 3.14062 23.2967 2.68404 23.064C1.93139 22.6805 1.31947 22.0686 0.935974 21.316C0.703335 20.8594 0.599557 20.3541 0.549346 19.7395C0.499995 19.1355 0.499997 18.3835 0.5 17.4225V8.57755C0.499997 7.61646 0.499995 6.86451 0.549346 6.26049C0.599557 5.64594 0.703335 5.14062 0.935974 4.68404C1.31947 3.93139 1.93139 3.31947 2.68404 2.93597C3.14062 2.70334 3.64594 2.59956 4.26049 2.54935C4.84817 2.50133 5.57588 2.50003 6.5 2.5V1C6.5 0.723858 6.72386 0.5 7 0.5ZM20.454 6.34192C20.4898 6.78044 20.4977 7.31305 20.4995 8H1.5005C1.50226 7.31305 1.5102 6.78044 1.54602 6.34192C1.59118 5.78921 1.67814 5.43014 1.82698 5.13803C2.1146 4.57354 2.57354 4.1146 3.13803 3.82698C3.43014 3.67814 3.78921 3.59118 4.34192 3.54602C4.90047 3.50039 5.61166 3.5 6.6 3.5H15.4C16.3883 3.5 17.0995 3.50039 17.6581 3.54602C18.2108 3.59118 18.5699 3.67814 18.862 3.82698C19.4265 4.1146 19.8854 4.57354 20.173 5.13803C20.3219 5.43014 20.4088 5.78921 20.454 6.34192Z" fill="#353566"/>
<path d="M6.5 12.75C6.08579 12.75 5.75 13.0858 5.75 13.5C5.75 13.9142 6.08579 14.25 6.5 14.25C6.91421 14.25 7.2501 13.9142 7.2501 13.5C7.2501 13.0858 6.91421 12.75 6.5 12.75Z" fill="#353566"/>
<path d="M10.25 13.5C10.25 13.0858 10.5858 12.75 11 12.75C11.4142 12.75 11.7501 13.0858 11.7501 13.5C11.7501 13.9142 11.4143 14.25 11.0001 14.25C10.5859 14.25 10.25 13.9142 10.25 13.5Z" fill="#353566"/>
<path d="M6.5 16.75C6.08579 16.75 5.75 17.0858 5.75 17.5C5.75 17.9142 6.08579 18.25 6.5 18.25C6.91421 18.25 7.2501 17.9142 7.2501 17.5C7.2501 17.0858 6.91421 16.75 6.5 16.75Z" fill="#353566"/>
<path fill-rule="evenodd" clip-rule="evenodd" d="M18 17C16.8942 17 16 17.8942 16 19C16 20.1058 16.8942 21 18 21C19.1058 21 20 20.1058 20 19C20 17.8942 19.1058 17 18 17ZM17 19C17 18.4465 17.4465 18 18 18C18.5535 18 19 18.4465 19 19C19 19.5535 18.5535 20 18 20C17.4465 20 17 19.5535 17 19Z" fill="#353566"/>
<path fill-rule="evenodd" clip-rule="evenodd" d="M18 14.5C20.2068 14.5 22.3768 15.8473 23.3973 18.4539C23.5342 18.8036 23.5342 19.1964 23.3973 19.5461C22.3768 22.1527 20.2068 23.5 18 23.5C15.7932 23.5 13.6232 22.1527 12.6027 19.5461C12.4658 19.1964 12.4658 18.8036 12.6027 18.4539C13.6232 15.8473 15.7932 14.5 18 14.5ZM18 15.5C16.2242 15.5 14.4115 16.5768 13.5339 18.8184C13.4887 18.9337 13.4887 19.0663 13.5339 19.1816C14.4115 21.4232 16.2242 22.5 18 22.5C19.7758 22.5 21.5885 21.4232 22.4661 19.1816C22.5113 19.0663 22.5113 18.9337 22.4661 18.8184C21.5885 16.5768 19.7758 15.5 18 15.5Z" fill="#353566"/>
</g>
<defs>
<clipPath id="clip0_9001_303681">
<rect width="24" height="24" fill="white"/>
</clipPath>
</defs>
</svg>
