<svg width="24" height="24" viewBox="0 0 24 24" fill="none" xmlns="http://www.w3.org/2000/svg">
<g clip-path="url(#clip0_9001_303611)">
<path opacity="0.4" d="M1.1 8.5H20.9C20.9552 8.5 21 8.54477 21 8.6V12.2322C20.1025 11.7644 19.0821 11.5 18 11.5C14.4101 11.5 11.5 14.4101 11.5 18C11.5 20.0104 12.4127 21.8077 13.8464 23H6.6C4.63982 23 3.65972 23 2.91103 22.6185C2.25247 22.283 1.71703 21.7475 1.38148 21.089C1 20.3403 1 19.3602 1 17.4V8.6C1 8.54478 1.04478 8.5 1.1 8.5Z" fill="#353566"/>
<path fill-rule="evenodd" clip-rule="evenodd" d="M7.5 1C7.5 0.723858 7.27614 0.5 7 0.5C6.72386 0.5 6.5 0.723858 6.5 1V2.5C5.57588 2.50003 4.84817 2.50133 4.26049 2.54935C3.64594 2.59956 3.14062 2.70334 2.68404 2.93597C1.93139 3.31947 1.31947 3.93139 0.935974 4.68404C0.703335 5.14062 0.599557 5.64594 0.549346 6.26049C0.499995 6.86451 0.499997 7.61646 0.5 8.57754V17.4224C0.499997 18.3835 0.499995 19.1355 0.549346 19.7395C0.599557 20.3541 0.703335 20.8594 0.935974 21.316C1.31947 22.0686 1.93139 22.6805 2.68404 23.064C3.14062 23.2967 3.64594 23.4004 4.26049 23.4507C4.86451 23.5 5.61646 23.5 6.57754 23.5H14.5343C14.0861 23.217 13.6749 22.8807 13.3096 22.5H6.6C5.61166 22.5 4.90047 22.4996 4.34192 22.454C3.78921 22.4088 3.43014 22.3219 3.13803 22.173C2.57354 21.8854 2.1146 21.4265 1.82698 20.862C1.67814 20.5699 1.59118 20.2108 1.54602 19.6581C1.50039 19.0995 1.5 18.3883 1.5 17.4V9H20.5V11.9982C20.8499 12.1441 21.1842 12.3197 21.5 12.5218V8.57754C21.5 7.61646 21.5 6.86451 21.4507 6.26049C21.4004 5.64594 21.2967 5.14062 21.064 4.68404C20.6805 3.93139 20.0686 3.31947 19.316 2.93597C18.8594 2.70334 18.3541 2.59956 17.7395 2.54935C17.1518 2.50133 16.4241 2.50003 15.5 2.5V1C15.5 0.723858 15.2761 0.5 15 0.5C14.7239 0.5 14.5 0.723858 14.5 1V2.5H7.5V1ZM20.4995 8C20.4977 7.31305 20.4898 6.78044 20.454 6.34192C20.4088 5.78921 20.3219 5.43014 20.173 5.13803C19.8854 4.57354 19.4265 4.1146 18.862 3.82698C18.5699 3.67814 18.2108 3.59118 17.6581 3.54602C17.0995 3.50039 16.3883 3.5 15.4 3.5H6.6C5.61166 3.5 4.90047 3.50039 4.34192 3.54602C3.78921 3.59118 3.43014 3.67814 3.13803 3.82698C2.57354 4.1146 2.1146 4.57354 1.82698 5.13803C1.67814 5.43014 1.59118 5.78921 1.54602 6.34192C1.5102 6.78044 1.50226 7.31305 1.5005 8H20.4995Z" fill="#353566"/>
<path d="M5.75 13.5C5.75 13.0858 6.08579 12.75 6.5 12.75C6.91421 12.75 7.2501 13.0858 7.2501 13.5C7.2501 13.9142 6.91431 14.25 6.5001 14.25C6.08589 14.25 5.75 13.9142 5.75 13.5Z" fill="#353566"/>
<path d="M11 12.75C10.5858 12.75 10.25 13.0858 10.25 13.5C10.25 13.9142 10.5858 14.25 11 14.25C11.4142 14.25 11.7501 13.9142 11.7501 13.5C11.7501 13.0858 11.4142 12.75 11 12.75Z" fill="#353566"/>
<path d="M5.75 17.5C5.75 17.0858 6.08579 16.75 6.5 16.75C6.91421 16.75 7.2501 17.0858 7.2501 17.5C7.2501 17.9142 6.91431 18.25 6.5001 18.25C6.08589 18.25 5.75 17.9142 5.75 17.5Z" fill="#353566"/>
<path d="M19.6464 16.3964C19.8417 16.2012 20.1583 16.2012 20.3536 16.3964C20.5488 16.5917 20.5488 16.9083 20.3536 17.1036L17.8536 19.6036C17.7595 19.6976 17.6319 19.7503 17.499 19.75C17.366 19.7497 17.2386 19.6965 17.145 19.6021L15.645 18.0898C15.4505 17.8937 15.4518 17.5771 15.6479 17.3827C15.844 17.1882 16.1605 17.1895 16.355 17.3856L17.5015 18.5414L19.6464 16.3964Z" fill="#353566"/>
<path fill-rule="evenodd" clip-rule="evenodd" d="M12.5 18C12.5 14.9624 14.9624 12.5 18 12.5C21.0376 12.5 23.5 14.9624 23.5 18C23.5 21.0376 21.0376 23.5 18 23.5C14.9624 23.5 12.5 21.0376 12.5 18ZM18 13.5C15.5147 13.5 13.5 15.5147 13.5 18C13.5 20.4853 15.5147 22.5 18 22.5C20.4853 22.5 22.5 20.4853 22.5 18C22.5 15.5147 20.4853 13.5 18 13.5Z" fill="#353566"/>
</g>
<defs>
<clipPath id="clip0_9001_303611">
<rect width="24" height="24" fill="white"/>
</clipPath>
</defs>
</svg>
