<svg width="24" height="24" viewBox="0 0 24 24" fill="none" xmlns="http://www.w3.org/2000/svg">
<g clip-path="url(#clip0_9001_303661)">
<path opacity="0.4" d="M1.1 8.5H20.9C20.9552 8.5 21 8.54477 21 8.6V12.748C20.4553 12.0605 19.8443 11.5 18.8718 11.5H17.6282C16.5564 11.5 15.9238 12.1807 15.335 12.962C14.3623 13.0809 13.4548 13.2883 12.92 14.2133L12.2982 15.2886C11.7632 16.2137 12.0379 17.1009 12.4218 17.9999C12.0379 18.899 11.7632 19.7862 12.2982 20.7113L12.92 21.7866C13.4026 22.6213 14.1887 22.8717 15.0524 23H6.6C4.63982 23 3.65972 23 2.91103 22.6185C2.25247 22.283 1.71703 21.7475 1.38148 21.089C1 20.3403 1 19.3602 1 17.4V8.6C1 8.54478 1.04478 8.5 1.1 8.5Z" fill="#353566"/>
<path fill-rule="evenodd" clip-rule="evenodd" d="M7 0.5C7.27614 0.5 7.5 0.723858 7.5 1V2.5H14.5V1C14.5 0.723858 14.7239 0.5 15 0.5C15.2761 0.5 15.5 0.723858 15.5 1V2.5C16.4241 2.50003 17.1518 2.50133 17.7395 2.54935C18.3541 2.59956 18.8594 2.70334 19.316 2.93597C20.0686 3.31947 20.6805 3.93139 21.064 4.68404C21.2967 5.14062 21.4004 5.64594 21.4507 6.26049C21.5 6.86451 21.5 7.61646 21.5 8.57754V13.0079C21.3895 12.9908 21.2777 12.9758 21.165 12.962C20.9549 12.6832 20.7392 12.4172 20.5 12.1904V9H1.5V17.4C1.5 18.3883 1.50039 19.0995 1.54602 19.6581C1.59118 20.2108 1.67814 20.5699 1.82698 20.862C2.1146 21.4265 2.57354 21.8854 3.13803 22.173C3.43014 22.3219 3.78921 22.4088 4.34192 22.454C4.90047 22.4996 5.61166 22.5 6.6 22.5H13.5739C14.0722 22.841 14.6892 22.959 15.335 23.0379C15.4555 23.1978 15.5778 23.3535 15.7053 23.5L6.57754 23.5C5.61646 23.5 4.86451 23.5 4.26049 23.4507C3.64594 23.4004 3.14062 23.2967 2.68404 23.064C1.93139 22.6805 1.31947 22.0686 0.935974 21.316C0.703335 20.8594 0.599557 20.3541 0.549346 19.7395C0.499995 19.1355 0.499997 18.3835 0.5 17.4225V8.57755C0.499997 7.61646 0.499995 6.86451 0.549346 6.26049C0.599557 5.64594 0.703335 5.14062 0.935974 4.68404C1.31947 3.93139 1.93139 3.31947 2.68404 2.93597C3.14062 2.70334 3.64594 2.59956 4.26049 2.54935C4.84817 2.50133 5.57588 2.50003 6.5 2.5V1C6.5 0.723858 6.72386 0.5 7 0.5ZM20.454 6.34192C20.4898 6.78044 20.4977 7.31305 20.4995 8H1.5005C1.50226 7.31305 1.5102 6.78044 1.54602 6.34192C1.59118 5.78921 1.67814 5.43014 1.82698 5.13803C2.1146 4.57354 2.57354 4.1146 3.13803 3.82698C3.43014 3.67814 3.78921 3.59118 4.34192 3.54602C4.90047 3.50039 5.61166 3.5 6.6 3.5H15.4C16.3883 3.5 17.0995 3.50039 17.6581 3.54602C18.2108 3.59118 18.5699 3.67814 18.862 3.82698C19.4265 4.1146 19.8854 4.57354 20.173 5.13803C20.3219 5.43014 20.4088 5.78921 20.454 6.34192Z" fill="#353566"/>
<path d="M6.5 12.75C6.08579 12.75 5.75 13.0858 5.75 13.5C5.75 13.9142 6.08579 14.25 6.5 14.25C6.91421 14.25 7.2501 13.9142 7.2501 13.5C7.2501 13.0858 6.91421 12.75 6.5 12.75Z" fill="#353566"/>
<path d="M10.25 13.5C10.25 13.0858 10.5858 12.75 11 12.75C11.4142 12.75 11.7501 13.0858 11.7501 13.5C11.7501 13.9142 11.4143 14.25 11.0001 14.25C10.5859 14.25 10.25 13.9142 10.25 13.5Z" fill="#353566"/>
<path d="M6.5 16.75C6.08579 16.75 5.75 17.0858 5.75 17.5C5.75 17.9142 6.08579 18.25 6.5 18.25C6.91421 18.25 7.2501 17.9142 7.2501 17.5C7.2501 17.0858 6.91421 16.75 6.5 16.75Z" fill="#353566"/>
<path fill-rule="evenodd" clip-rule="evenodd" d="M18.25 16.25C17.2835 16.25 16.5 17.0335 16.5 18C16.5 18.9665 17.2835 19.75 18.25 19.75C19.2165 19.75 20 18.9665 20 18C20 17.0335 19.2165 16.25 18.25 16.25ZM17.5 18C17.5 17.5858 17.8358 17.25 18.25 17.25C18.6642 17.25 19 17.5858 19 18C19 18.4142 18.6642 18.75 18.25 18.75C17.8358 18.75 17.5 18.4142 17.5 18Z" fill="#353566"/>
<path fill-rule="evenodd" clip-rule="evenodd" d="M13.1845 20.212C12.8047 19.5529 13.0297 18.7096 13.6886 18.3285C13.9408 18.1827 13.9408 17.8172 13.6886 17.6714C13.0297 17.2903 12.8047 16.447 13.1845 15.7879L13.8042 14.7126C14.1844 14.0529 15.0272 13.8263 15.6866 14.2076C15.937 14.3525 16.2527 14.1723 16.2527 13.8791C16.2527 13.1183 16.8686 12.5 17.6302 12.5H18.8697C19.6314 12.5 20.2473 13.1183 20.2473 13.8792C20.2473 14.1724 20.563 14.3525 20.8134 14.2077C21.4728 13.8263 22.3156 14.053 22.6958 14.7126L23.3155 15.788C23.6954 16.4471 23.4703 17.2903 22.8114 17.6714C22.5592 17.8172 22.5592 18.1826 22.8114 18.3285C23.4703 18.7096 23.6954 19.5528 23.3155 20.2119L22.6958 21.2872C22.3156 21.9469 21.4728 22.1736 20.8134 21.7922C20.563 21.6474 20.2473 21.8275 20.2473 22.1208C20.2473 22.8816 19.6314 23.5 18.8697 23.5H17.6303C16.8686 23.5 16.2527 22.8817 16.2527 22.1208C16.2527 21.8275 15.937 21.6474 15.6866 21.7922C15.0272 22.1736 14.1844 21.9469 13.8042 21.2873L13.1845 20.212ZM14.1893 19.1942C14.0087 19.2986 13.9461 19.5308 14.0509 19.7127L14.6707 20.788C14.7752 20.9693 15.0059 21.0308 15.1859 20.9266C16.1057 20.3946 17.2527 21.0605 17.2527 22.1208C17.2527 22.3311 17.4226 22.5 17.6303 22.5H18.8697C19.0774 22.5 19.2473 22.3311 19.2473 22.1208C19.2473 21.0605 20.3943 20.3946 21.3141 20.9265C21.4941 21.0307 21.7248 20.9693 21.8293 20.7879L22.4491 19.7126C22.5539 19.5307 22.4913 19.2986 22.3107 19.1941C21.3928 18.6632 21.3928 17.3367 22.3107 16.8058C22.4913 16.7013 22.5539 16.4692 22.4491 16.2873L21.8293 15.212C21.7248 15.0306 21.4941 14.9692 21.3141 15.0733C20.3943 15.6053 19.2473 14.9395 19.2473 13.8792C19.2473 13.6689 19.0774 13.5 18.8697 13.5H17.6302C17.4226 13.5 17.2527 13.6689 17.2527 13.8791C17.2527 14.9395 16.1056 15.6052 15.186 15.0733C15.0059 14.9691 14.7752 15.0306 14.6707 15.2119L14.0509 16.2872C13.9461 16.4691 14.0087 16.7013 14.1893 16.8057C15.1073 17.3367 15.1073 18.6632 14.1893 19.1942Z" fill="#353566"/>
</g>
<defs>
<clipPath id="clip0_9001_303661">
<rect width="24" height="24" fill="white"/>
</clipPath>
</defs>
</svg>
