<svg width="24" height="24" viewBox="0 0 24 24" fill="none" xmlns="http://www.w3.org/2000/svg">
<g clip-path="url(#clip0_9001_305317)">
<path opacity="0.4" d="M23 12C23 18.0751 18.0751 23 12 23C5.92487 23 1 18.0751 1 12C1 5.92487 5.92487 1 12 1C18.0751 1 23 5.92487 23 12Z" fill="#353566"/>
<path d="M12.5 6C12.5 5.72386 12.2761 5.5 12 5.5C11.7239 5.5 11.5 5.72386 11.5 6V12C11.5 12.2231 11.6477 12.4191 11.8622 12.4806C12.0766 12.5421 12.3058 12.4541 12.424 12.265L14.924 8.265C15.0704 8.03083 14.9992 7.72236 14.765 7.576C14.5308 7.42965 14.2224 7.50083 14.076 7.735L12.5 10.2566V6Z" fill="#353566"/>
<path fill-rule="evenodd" clip-rule="evenodd" d="M12 0.5C5.64873 0.5 0.5 5.64873 0.5 12C0.5 18.3513 5.64873 23.5 12 23.5C18.3513 23.5 23.5 18.3513 23.5 12C23.5 5.64873 18.3513 0.5 12 0.5ZM1.5 12C1.5 6.20101 6.20101 1.5 12 1.5C17.799 1.5 22.5 6.20101 22.5 12C22.5 17.799 17.799 22.5 12 22.5C6.20101 22.5 1.5 17.799 1.5 12Z" fill="#353566"/>
</g>
<defs>
<clipPath id="clip0_9001_305317">
<rect width="24" height="24" fill="white"/>
</clipPath>
</defs>
</svg>
