<svg width="24" height="24" viewBox="0 0 24 24" fill="none" xmlns="http://www.w3.org/2000/svg">
<g opacity="0.4">
<path d="M4.00005 2H16C16.1628 3.95281 16.2442 4.92922 16.0659 5.82565C15.8349 6.98779 15.2906 8.06467 14.4918 8.93987C13.8757 9.61496 13.0413 10.1285 11.3724 11.1555L10 12L8.62771 11.1555C6.95882 10.1285 6.12437 9.61496 5.50825 8.93987C4.70952 8.06467 4.16521 6.98779 3.93417 5.82565C3.75595 4.92922 3.83732 3.95281 4.00005 2Z" fill="#353566"/>
<path d="M11.9335 13.1903C11.7576 13.0815 11.5709 12.9667 11.3724 12.8445L10 12L8.62771 12.8445C6.95882 13.8715 6.12437 14.385 5.50826 15.0601C4.70952 15.9353 4.16521 17.0122 3.93417 18.1744C3.75595 19.0708 3.83732 20.0472 4.00005 22H14.0522C13.1886 21.8716 12.4026 21.6213 11.92 20.7867L11.2982 19.7114C10.7632 18.7862 11.0379 17.899 11.4218 17C11.0379 16.101 10.7632 15.2137 11.2982 14.2886L11.92 13.2133C11.9245 13.2056 11.929 13.1979 11.9335 13.1903Z" fill="#353566"/>
</g>
<path fill-rule="evenodd" clip-rule="evenodd" d="M3.44373 5.92315C3.26767 5.03759 3.32605 4.08838 3.45675 2.5H2C1.72386 2.5 1.5 2.27614 1.5 2C1.5 1.72386 1.72386 1.5 2 1.5H18C18.2761 1.5 18.5 1.72386 18.5 2C18.5 2.27614 18.2761 2.5 18 2.5H16.5433C16.674 4.08838 16.7324 5.03759 16.5563 5.92315C16.3075 7.17468 15.7213 8.3344 14.8611 9.27692C14.1973 10.0043 13.3072 10.552 11.7143 11.5321L10.954 12L11.7154 12.4686C11.8975 12.5806 12.0704 12.687 12.2348 12.7886C12.1195 12.9103 12.014 13.0507 11.92 13.2133L11.6828 13.6234C11.5047 13.5131 11.3142 13.3959 11.1103 13.2703L10 12.5871L8.88971 13.2703C7.19511 14.3132 6.43494 14.7864 5.87753 15.3972C5.14023 16.2051 4.63779 17.1991 4.42452 18.2719C4.27627 19.0175 4.3233 19.8323 4.46027 21.5L12.5739 21.5C13.0722 21.841 13.6892 21.959 14.335 22.0379C14.4555 22.1978 14.5778 22.3535 14.7053 22.5H2C1.72386 22.5 1.5 22.2761 1.5 22C1.5 21.7239 1.72386 21.5 2 21.5H3.45674C3.32604 19.9116 3.26766 18.9624 3.44372 18.0769C3.69253 16.8253 4.27871 15.6656 5.13889 14.7231C5.80269 13.9957 6.69281 13.448 8.28569 12.4679L9.04599 12L8.2857 11.5321C6.69282 10.552 5.8027 10.0043 5.1389 9.27692C4.27873 8.3344 3.69255 7.17468 3.44373 5.92315ZM15.5397 2.5H4.46029C4.32331 4.16771 4.27628 4.98247 4.42454 5.72816C4.63781 6.8009 5.14025 7.79494 5.87754 8.60282C6.43495 9.21359 7.19512 9.68682 8.88973 10.7297L10 11.4129L11.1103 10.7297C12.8049 9.68682 13.5651 9.21359 14.1225 8.60282C14.8598 7.79494 15.3622 6.8009 15.5755 5.72816C15.7237 4.98247 15.6767 4.16771 15.5397 2.5Z" fill="#353566"/>
<path fill-rule="evenodd" clip-rule="evenodd" d="M17.25 15.25C16.2835 15.25 15.5 16.0335 15.5 17C15.5 17.9665 16.2835 18.75 17.25 18.75C18.2165 18.75 19 17.9665 19 17C19 16.0335 18.2165 15.25 17.25 15.25ZM16.5 17C16.5 16.5858 16.8358 16.25 17.25 16.25C17.6642 16.25 18 16.5858 18 17C18 17.4142 17.6642 17.75 17.25 17.75C16.8358 17.75 16.5 17.4142 16.5 17Z" fill="#353566"/>
<path fill-rule="evenodd" clip-rule="evenodd" d="M12.1845 19.212C11.8047 18.5529 12.0297 17.7096 12.6886 17.3285C12.9408 17.1827 12.9408 16.8172 12.6886 16.6714C12.0297 16.2903 11.8047 15.447 12.1845 14.7879L12.8042 13.7126C13.1844 13.0529 14.0272 12.8263 14.6866 13.2076C14.937 13.3525 15.2527 13.1723 15.2527 12.8791C15.2527 12.1183 15.8686 11.5 16.6302 11.5H17.8697C18.6314 11.5 19.2473 12.1183 19.2473 12.8792C19.2473 13.1724 19.563 13.3525 19.8134 13.2077C20.4728 12.8263 21.3156 13.053 21.6958 13.7126L22.3155 14.788C22.6954 15.4471 22.4703 16.2903 21.8114 16.6714C21.5592 16.8172 21.5592 17.1826 21.8114 17.3285C22.4703 17.7096 22.6954 18.5528 22.3155 19.2119L21.6958 20.2872C21.3156 20.9469 20.4728 21.1736 19.8134 20.7922C19.563 20.6474 19.2473 20.8275 19.2473 21.1208C19.2473 21.8816 18.6314 22.5 17.8697 22.5H16.6303C15.8686 22.5 15.2527 21.8817 15.2527 21.1208C15.2527 20.8275 14.937 20.6474 14.6866 20.7922C14.0272 21.1736 13.1844 20.9469 12.8042 20.2873L12.1845 19.212ZM13.1893 18.1942C13.0087 18.2986 12.9461 18.5308 13.0509 18.7127L13.6707 19.788C13.7752 19.9693 14.0059 20.0308 14.1859 19.9266C15.1057 19.3946 16.2527 20.0605 16.2527 21.1208C16.2527 21.3311 16.4226 21.5 16.6303 21.5H17.8697C18.0774 21.5 18.2473 21.3311 18.2473 21.1208C18.2473 20.0605 19.3943 19.3946 20.3141 19.9265C20.4941 20.0307 20.7248 19.9693 20.8293 19.7879L21.4491 18.7126C21.5539 18.5307 21.4913 18.2986 21.3107 18.1941C20.3928 17.6632 20.3928 16.3367 21.3107 15.8058C21.4913 15.7013 21.5539 15.4692 21.4491 15.2873L20.8293 14.212C20.7248 14.0306 20.4941 13.9692 20.3141 14.0733C19.3943 14.6053 18.2473 13.9395 18.2473 12.8792C18.2473 12.6689 18.0774 12.5 17.8697 12.5H16.6302C16.4226 12.5 16.2527 12.6689 16.2527 12.8791C16.2527 13.9395 15.1056 14.6052 14.186 14.0733C14.0059 13.9691 13.7752 14.0306 13.6707 14.2119L13.0509 15.2872C12.9461 15.4691 13.0087 15.7013 13.1893 15.8057C14.1073 16.3367 14.1073 17.6632 13.1893 18.1942Z" fill="#353566"/>
</svg>
