<svg width="24" height="24" viewBox="0 0 24 24" fill="none" xmlns="http://www.w3.org/2000/svg">
<g clip-path="url(#clip0_9001_305147)">
<path opacity="0.4" d="M18.9971 12.7704C18.6323 12.9025 18.3025 13.0728 18 13.2828C17.4902 12.929 16.9068 12.6995 16.3011 12.5726C14.9692 12.2961 13.3753 12.8007 12.3313 14.2153C11.2114 15.7328 11.1751 18.1716 12.5148 20.0308C12.7943 20.4187 13.1612 20.8423 13.5632 21.2671C12.4705 21.7387 11.2658 22 10 22C5.02944 22 1 17.9706 1 13C1 8.02944 5.02944 4 10 4C14.8938 4 18.8753 7.90596 18.9971 12.7704Z" fill="#353566"/>
<path d="M10.5 1.5V3.51293C12.6209 3.62291 14.5578 4.42851 16.087 5.70594L17.6464 4.14645C17.8417 3.95118 18.1583 3.95118 18.3536 4.14645C18.5488 4.34171 18.5488 4.65829 18.3536 4.85355L16.8203 6.38683C18.3968 8.01246 19.3974 10.2 19.4925 12.6201C19.1318 12.7102 18.8029 12.8314 18.5 12.9848C18.4918 8.29737 14.6894 4.5 10 4.5C5.30558 4.5 1.5 8.30558 1.5 13C1.5 17.6944 5.30558 21.5 10 21.5C11.1332 21.5 12.2145 21.2783 13.2031 20.8758C13.4317 21.132 13.6792 21.3926 13.9339 21.6498C12.7352 22.1958 11.4031 22.5 10 22.5C4.75329 22.5 0.5 18.2467 0.5 13C0.5 7.92101 4.48572 3.77294 9.5 3.51293V1.5H7C6.72386 1.5 6.5 1.27614 6.5 1C6.5 0.723858 6.72386 0.5 7 0.5H13C13.2761 0.5 13.5 0.723858 13.5 1C13.5 1.27614 13.2761 1.5 13 1.5H10.5Z" fill="#353566"/>
<path d="M10 8C10.2761 8 10.5 8.22386 10.5 8.5V13C10.5 13.2761 10.2761 13.5 10 13.5C9.72386 13.5 9.5 13.2761 9.5 13V8.5C9.5 8.22386 9.72386 8 10 8Z" fill="#353566"/>
<path fill-rule="evenodd" clip-rule="evenodd" d="M22.8641 14.8092C22.0491 13.7049 20.847 13.3556 19.9021 13.5517L19.9002 13.5521C19.166 13.7076 18.5143 14.0554 18 14.6007C17.4857 14.0554 16.8341 13.7076 16.0999 13.5521L16.0979 13.5517C15.153 13.3556 13.951 13.7049 13.136 14.8092C12.2957 15.9478 12.2186 17.9092 13.3262 19.4463C14.098 20.5175 15.6666 21.9544 16.6741 22.8349C16.6931 22.8516 16.712 22.8682 16.7307 22.8846C17.0093 23.129 17.2574 23.3465 17.5751 23.4404C17.8441 23.5199 18.1559 23.5199 18.425 23.4404C18.7426 23.3465 18.9907 23.129 19.2692 22.8847C19.288 22.8682 19.3069 22.8516 19.326 22.8349C20.3335 21.9543 21.902 20.5175 22.6739 19.4463C23.7815 17.9092 23.7044 15.9477 22.8641 14.8092ZM20.1063 14.5307C20.6641 14.4153 21.4738 14.6095 22.0595 15.403C22.6202 16.1627 22.738 17.6467 21.8626 18.8617C21.1685 19.8248 19.6891 21.1894 18.6679 22.082C18.2983 22.4051 18.2221 22.4576 18.1415 22.4814C18.0575 22.5063 17.9426 22.5063 17.8585 22.4814C17.7779 22.4576 17.7018 22.4051 17.3322 22.082C16.3109 21.1894 14.8315 19.8248 14.1375 18.8617C13.262 17.6467 13.3799 16.1627 13.9406 15.403C14.5262 14.6095 15.336 14.4153 15.8938 14.5307C16.6317 14.6871 17.1513 15.0935 17.6039 15.6812C17.6985 15.8041 17.8449 15.8761 18 15.8761C18.1552 15.8761 18.3015 15.8041 18.3962 15.6812C18.8487 15.0935 19.3684 14.6871 20.1063 14.5307Z" fill="#353566"/>
</g>
<defs>
<clipPath id="clip0_9001_305147">
<rect width="24" height="24" fill="white"/>
</clipPath>
</defs>
</svg>
