<svg width="24" height="24" viewBox="0 0 24 24" fill="none" xmlns="http://www.w3.org/2000/svg">
<g clip-path="url(#clip0_9001_303426)">
<path opacity="0.4" d="M12 23C18.0751 23 23 18.0751 23 12C23 5.92487 18.0751 1 12 1V12H1C1 18.0751 5.92487 23 12 23Z" fill="#353566"/>
<path d="M11.5 1C11.5 0.723858 11.7239 0.5 12 0.5C18.3513 0.5 23.5 5.64873 23.5 12C23.5 18.3513 18.3513 23.5 12 23.5C5.64873 23.5 0.5 18.3513 0.5 12C0.5 11.7239 0.723858 11.5 1 11.5C1.27614 11.5 1.5 11.7239 1.5 12C1.5 17.799 6.20101 22.5 12 22.5C17.799 22.5 22.5 17.799 22.5 12C22.5 6.20101 17.799 1.5 12 1.5C11.7239 1.5 11.5 1.27614 11.5 1Z" fill="#353566"/>
<path d="M8.48258 1.54723C8.64123 1.92986 8.45966 2.36865 8.07703 2.52729L8.07611 2.52768C7.69349 2.68636 7.25468 2.50484 7.096 2.12222C6.93731 1.73961 7.11884 1.3008 7.50146 1.14212L7.50252 1.14168C7.88515 0.98303 8.32394 1.1646 8.48258 1.54723Z" fill="#353566"/>
<path d="M4.75251 3.69115C5.04539 3.98405 5.04536 4.45893 4.75246 4.75181L4.75174 4.75252C4.45887 5.04543 3.98399 5.04545 3.69108 4.75257C3.39818 4.45969 3.39815 3.98482 3.69103 3.69191L3.69185 3.69109C3.98475 3.39822 4.45963 3.39824 4.75251 3.69115Z" fill="#353566"/>
<path d="M2.12216 7.09606C2.50477 7.25475 2.6863 7.69355 2.52762 8.07617L2.52723 8.07709C2.36859 8.45972 1.9298 8.64129 1.54717 8.48265C1.16454 8.324 0.982969 7.88521 1.14162 7.50258L1.14206 7.50152C1.30074 7.11891 1.73955 6.93738 2.12216 7.09606Z" fill="#353566"/>
<path d="M11.5 6C11.5 5.72386 11.7239 5.5 12 5.5C12.2761 5.5 12.5 5.72386 12.5 6V12C12.5 12.2761 12.2761 12.5 12 12.5H6C5.72386 12.5 5.5 12.2761 5.5 12C5.5 11.7239 5.72386 11.5 6 11.5H11.5V6Z" fill="#353566"/>
</g>
<defs>
<clipPath id="clip0_9001_303426">
<rect width="24" height="24" fill="white"/>
</clipPath>
</defs>
</svg>
