<svg width="24" height="24" viewBox="0 0 24 24" fill="none" xmlns="http://www.w3.org/2000/svg">
<path fill-rule="evenodd" clip-rule="evenodd" d="M8 11.5C6.89543 11.5 6 12.3954 6 13.5C6 14.6046 6.89543 15.5 8 15.5C8.51731 15.5 8.98875 15.3036 9.34381 14.9813L13.009 16.8139C13.0034 16.8752 13.0005 16.9372 13.0005 17C13.0005 18.1046 13.8959 19 15.0005 19C16.1051 19 17.0005 18.1046 17.0005 17C17.0005 15.8954 16.1051 15 15.0005 15C14.3164 15 13.7126 15.3434 13.3519 15.8673L9.89568 14.1392C9.96333 13.9385 10 13.7235 10 13.5C10 13.2765 9.96333 13.0615 9.89568 12.8608L13.3519 11.1327C13.7126 11.6566 14.3164 12 15.0005 12C16.1051 12 17.0005 11.1046 17.0005 10C17.0005 8.89543 16.1051 8 15.0005 8C13.8959 8 13.0005 8.89543 13.0005 10C13.0005 10.0628 13.0034 10.1248 13.009 10.1861L9.34382 12.0187C8.98875 11.6964 8.51731 11.5 8 11.5ZM7 13.5C7 12.9477 7.44771 12.5 8 12.5C8.55228 12.5 9 12.9477 9 13.5C9 14.0523 8.55228 14.5 8 14.5C7.44771 14.5 7 14.0523 7 13.5ZM15.0005 9C14.4482 9 14.0005 9.44771 14.0005 10C14.0005 10.5523 14.4482 11 15.0005 11C15.5528 11 16.0005 10.5523 16.0005 10C16.0005 9.44771 15.5528 9 15.0005 9ZM14.0005 17C14.0005 16.4477 14.4482 16 15.0005 16C15.5528 16 16.0005 16.4477 16.0005 17C16.0005 17.5523 15.5528 18 15.0005 18C14.4482 18 14.0005 17.5523 14.0005 17Z" fill="#353566"/>
<path fill-rule="evenodd" clip-rule="evenodd" d="M7.5 2.5C7.5 1.67157 8.17157 1 9 1H15C15.8284 1 16.5 1.67157 16.5 2.5V2.75045C16.962 2.75182 17.3479 2.75735 17.6755 2.7797C18.1193 2.80999 18.4927 2.8728 18.8394 3.01642C19.697 3.37165 20.3783 4.05301 20.7336 4.91061C20.8772 5.25734 20.94 5.63067 20.9703 6.0745C21 6.50989 21 7.04817 21 7.7314V17.7222C21 18.5435 21 19.1905 20.9575 19.7111C20.9141 20.2423 20.8239 20.6859 20.6185 21.089C20.283 21.7475 19.7475 22.283 19.089 22.6185C18.6859 22.8239 18.2423 22.9141 17.7111 22.9575C17.1905 23 16.5435 23 15.7222 23H8.27778C7.45651 23 6.80954 23 6.28889 22.9575C5.75771 22.9141 5.31413 22.8239 4.91103 22.6185C4.25247 22.283 3.71703 21.7475 3.38148 21.089C3.17609 20.6859 3.08593 20.2423 3.04253 19.7111C2.99999 19.1905 3 18.5435 3 17.7222V7.73158C3 7.04827 3 6.50993 3.02971 6.0745C3.05999 5.63067 3.1228 5.25734 3.26642 4.91061C3.62165 4.05301 4.30301 3.37165 5.16061 3.01642C5.50734 2.8728 5.88067 2.80999 6.3245 2.7797C6.65211 2.75735 7.03797 2.75182 7.5 2.75045V2.5ZM17.6074 3.77739C17.3109 3.75715 16.9549 3.75187 16.5 3.75049V4C16.5 4.82843 15.8284 5.5 15 5.5H9C8.17157 5.5 7.5 4.82843 7.5 4V3.75049C7.04515 3.75187 6.68911 3.75715 6.39257 3.77739C5.99966 3.80419 5.74787 3.85556 5.54329 3.9403C4.93072 4.19404 4.44404 4.68072 4.1903 5.29329C4.10556 5.49787 4.05419 5.74966 4.02739 6.14257C4.00027 6.53997 4 7.04425 4 7.75V17.7C4 18.5483 4.00039 19.1545 4.03921 19.6297C4.07756 20.099 4.15089 20.3963 4.27248 20.635C4.51217 21.1054 4.89462 21.4878 5.36502 21.7275C5.60366 21.8491 5.90099 21.9224 6.37032 21.9608C6.84549 21.9996 7.45167 22 8.3 22H15.7C16.5483 22 17.1545 21.9996 17.6297 21.9608C18.099 21.9224 18.3963 21.8491 18.635 21.7275C19.1054 21.4878 19.4878 21.1054 19.7275 20.635C19.8491 20.3963 19.9224 20.099 19.9608 19.6297C19.9996 19.1545 20 18.5483 20 17.7V7.75C20 7.04425 19.9997 6.53997 19.9726 6.14257C19.9458 5.74966 19.8944 5.49787 19.8097 5.29329C19.556 4.68072 19.0693 4.19404 18.4567 3.9403C18.2521 3.85556 18.0003 3.80419 17.6074 3.77739ZM15.5 2.5V4C15.5 4.27614 15.2761 4.5 15 4.5H9C8.72386 4.5 8.5 4.27614 8.5 4V2.5C8.5 2.22386 8.72386 2 9 2H15C15.2761 2 15.5 2.22386 15.5 2.5Z" fill="#353566"/>
</svg>
