<svg width="24" height="24" viewBox="0 0 24 24" fill="none" xmlns="http://www.w3.org/2000/svg">
<path d="M12.4224 1.5H6.57755C5.61647 1.5 4.86451 1.49999 4.26049 1.54935C3.64594 1.59956 3.14062 1.70334 2.68404 1.93597C1.93139 2.31947 1.31947 2.93139 0.935974 3.68404C0.703335 4.14062 0.599556 4.64594 0.549345 5.26049C0.499995 5.86451 0.499997 6.61646 0.5 7.57755V16.4224C0.499997 17.3835 0.499995 18.1355 0.549345 18.7395C0.599556 19.3541 0.703335 19.8594 0.935974 20.316C1.31947 21.0686 1.93139 21.6805 2.68404 22.064C3.14062 22.2967 3.64594 22.4004 4.26049 22.4507C4.86451 22.5 5.61646 22.5 6.57754 22.5H12.4038C12.9417 22.5 13.4122 22.5 13.8247 22.4919C14.1007 22.4864 14.3202 22.2582 14.3147 21.9821C14.3093 21.706 14.0811 21.4866 13.805 21.4921C13.4035 21.5 12.9425 21.5 12.4 21.5H6.6C5.61166 21.5 4.90047 21.4996 4.34192 21.454C3.78921 21.4088 3.43014 21.3219 3.13803 21.173C2.57354 20.8854 2.1146 20.4265 1.82698 19.862C1.67814 19.5699 1.59118 19.2108 1.54602 18.6581C1.50039 18.0995 1.5 17.3883 1.5 16.4V7.6C1.5 6.61166 1.50039 5.90047 1.54602 5.34192C1.59118 4.78921 1.67814 4.43014 1.82698 4.13803C2.1146 3.57354 2.57354 3.1146 3.13803 2.82698C3.43014 2.67814 3.78921 2.59118 4.34192 2.54602C4.90047 2.50039 5.61166 2.5 6.6 2.5H12.4C13.3883 2.5 14.0995 2.50039 14.6581 2.54602C15.2108 2.59118 15.5699 2.67814 15.862 2.82698C16.4265 3.1146 16.8854 3.57354 17.173 4.13803C17.3219 4.43014 17.4088 4.78921 17.454 5.34192C17.4996 5.90047 17.5 6.61166 17.5 7.6V11.1169C17.5 11.393 17.7239 11.6169 18 11.6169C18.2761 11.6169 18.5 11.393 18.5 11.1169V7.57754C18.5 6.61646 18.5 5.86451 18.4507 5.26049C18.4004 4.64594 18.2967 4.14062 18.064 3.68404C17.6805 2.93139 17.0686 2.31947 16.316 1.93597C15.8594 1.70334 15.3541 1.59956 14.7395 1.54935C14.1355 1.49999 13.3835 1.5 12.4224 1.5Z" fill="#353566"/>
<path d="M8.5 7.5C8.22386 7.5 8 7.72386 8 8C8 8.27614 8.22386 8.5 8.5 8.5H13.5C13.7761 8.5 14 8.27614 14 8C14 7.72386 13.7761 7.5 13.5 7.5H8.5Z" fill="#353566"/>
<path d="M8.5 11.5C8.22386 11.5 8 11.7239 8 12C8 12.2761 8.22386 12.5 8.5 12.5H11.375C11.6511 12.5 11.875 12.2761 11.875 12C11.875 11.7239 11.6511 11.5 11.375 11.5H8.5Z" fill="#353566"/>
<path d="M8.5 15.5C8.22386 15.5 8 15.7239 8 16C8 16.2761 8.22386 16.5 8.5 16.5H10.0009C10.277 16.5 10.5009 16.2761 10.5009 16C10.5009 15.7239 10.277 15.5 10.0009 15.5H8.5Z" fill="#353566"/>
<path d="M4.75 8C4.75 7.58579 5.08579 7.25 5.5 7.25C5.91421 7.25 6.2501 7.58579 6.2501 8C6.2501 8.41421 5.91431 8.75 5.5001 8.75C5.08589 8.75 4.75 8.41421 4.75 8Z" fill="#353566"/>
<path d="M5.5 11.25C5.08579 11.25 4.75 11.5858 4.75 12C4.75 12.4142 5.08579 12.75 5.5 12.75C5.91421 12.75 6.2501 12.4142 6.2501 12C6.2501 11.5858 5.91421 11.25 5.5 11.25Z" fill="#353566"/>
<path d="M4.75 16C4.75 15.5858 5.08579 15.25 5.5 15.25C5.91421 15.25 6.2501 15.5858 6.2501 16C6.2501 16.4142 5.91431 16.75 5.5001 16.75C5.08589 16.75 4.75 16.4142 4.75 16Z" fill="#353566"/>
<path fill-rule="evenodd" clip-rule="evenodd" d="M22.8641 13.8092C22.0491 12.7049 20.847 12.3556 19.9021 12.5517L19.9002 12.5521C19.166 12.7076 18.5143 13.0554 18 13.6007C17.4857 13.0554 16.8341 12.7076 16.0999 12.5521L16.0979 12.5517C15.153 12.3556 13.951 12.7049 13.136 13.8092C12.2957 14.9478 12.2186 16.9092 13.3262 18.4463C14.098 19.5175 15.6666 20.9544 16.6741 21.8349C16.6931 21.8516 16.712 21.8682 16.7307 21.8846C17.0093 22.129 17.2574 22.3465 17.5751 22.4404C17.8441 22.5199 18.1559 22.5199 18.425 22.4404C18.7426 22.3465 18.9907 22.129 19.2692 21.8847C19.288 21.8682 19.3069 21.8516 19.326 21.8349C20.3335 20.9543 21.902 19.5175 22.6739 18.4463C23.7815 16.9092 23.7044 14.9477 22.8641 13.8092ZM20.1063 13.5307C20.6641 13.4153 21.4738 13.6095 22.0595 14.403C22.6202 15.1627 22.738 16.6467 21.8626 17.8617C21.1685 18.8248 19.6891 20.1894 18.6679 21.082C18.2983 21.4051 18.2221 21.4576 18.1415 21.4814C18.0575 21.5063 17.9426 21.5063 17.8585 21.4814C17.7779 21.4576 17.7018 21.4051 17.3322 21.082C16.3109 20.1894 14.8315 18.8248 14.1375 17.8617C13.262 16.6467 13.3799 15.1627 13.9406 14.403C14.5262 13.6095 15.336 13.4153 15.8938 13.5307C16.6317 13.6871 17.1513 14.0935 17.6039 14.6812C17.6985 14.8041 17.8449 14.8761 18 14.8761C18.1552 14.8761 18.3015 14.8041 18.3962 14.6812C18.8487 14.0935 19.3684 13.6871 20.1063 13.5307Z" fill="#353566"/>
</svg>
