<svg width="24" height="24" viewBox="0 0 24 24" fill="none" xmlns="http://www.w3.org/2000/svg">
<path d="M6.57755 1.5H12.4224C13.3835 1.5 14.1355 1.49999 14.7395 1.54935C15.3541 1.59956 15.8594 1.70334 16.316 1.93597C17.0686 2.31947 17.6805 2.93139 18.064 3.68404C18.2967 4.14062 18.4004 4.64594 18.4507 5.26049C18.5 5.86451 18.5 6.61646 18.5 7.57754V9.32958C18.5 9.60572 18.2761 9.82958 18 9.82958C17.7239 9.82958 17.5 9.60572 17.5 9.32958V7.6C17.5 6.61166 17.4996 5.90047 17.454 5.34192C17.4088 4.78921 17.3219 4.43014 17.173 4.13803C16.8854 3.57354 16.4265 3.1146 15.862 2.82698C15.5699 2.67814 15.2108 2.59118 14.6581 2.54602C14.0995 2.50039 13.3883 2.5 12.4 2.5H6.6C5.61166 2.5 4.90047 2.50039 4.34192 2.54602C3.78921 2.59118 3.43014 2.67814 3.13803 2.82698C2.57354 3.1146 2.1146 3.57354 1.82698 4.13803C1.67814 4.43014 1.59118 4.78921 1.54602 5.34192C1.50039 5.90047 1.5 6.61166 1.5 7.6V16.4C1.5 17.3883 1.50039 18.0995 1.54602 18.6581C1.59118 19.2108 1.67814 19.5699 1.82698 19.862C2.1146 20.4265 2.57354 20.8854 3.13803 21.173C3.43014 21.3219 3.78921 21.4088 4.34192 21.454C4.90047 21.4996 5.61166 21.5 6.6 21.5H12.4C13.5876 21.5 14.3711 21.499 14.9629 21.4223C15.2367 21.3868 15.4875 21.5801 15.523 21.8539C15.5584 22.1278 15.3652 22.3786 15.0914 22.414C14.4276 22.5 13.5786 22.5 12.4393 22.5H6.57754C5.61646 22.5 4.86451 22.5 4.26049 22.4507C3.64594 22.4004 3.14062 22.2967 2.68404 22.064C1.93139 21.6805 1.31947 21.0686 0.935974 20.316C0.703335 19.8594 0.599556 19.3541 0.549345 18.7395C0.499995 18.1355 0.499997 17.3835 0.5 16.4225V7.57756C0.499997 6.61647 0.499995 5.86451 0.549345 5.26049C0.599556 4.64594 0.703335 4.14062 0.935974 3.68404C1.31947 2.93139 1.93139 2.31947 2.68404 1.93597C3.14062 1.70334 3.64594 1.59956 4.26049 1.54935C4.86451 1.49999 5.61647 1.5 6.57755 1.5Z" fill="#353566"/>
<path d="M5 8C5 7.72386 5.22386 7.5 5.5 7.5H9.5C9.77614 7.5 10 7.72386 10 8C10 8.27614 9.77614 8.5 9.5 8.5H5.5C5.22386 8.5 5 8.27614 5 8Z" fill="#353566"/>
<path d="M5 12C5 11.7239 5.22386 11.5 5.5 11.5H13.5C13.7761 11.5 14 11.7239 14 12C14 12.2761 13.7761 12.5 13.5 12.5H5.5C5.22386 12.5 5 12.2761 5 12Z" fill="#353566"/>
<path d="M5 16C5 15.7239 5.22386 15.5 5.5 15.5H12.3398C12.6159 15.5 12.8398 15.7239 12.8398 16C12.8398 16.2761 12.6159 16.5 12.3398 16.5H5.5C5.22386 16.5 5 16.2761 5 16Z" fill="#353566"/>
<path fill-rule="evenodd" clip-rule="evenodd" d="M20.5009 12.5007C20.5009 11.555 19.3101 11.1386 18.72 11.8762L14.72 16.8756C14.196 17.5306 14.663 18.4998 15.5009 18.4998H17.5009V21.4992C17.5009 22.4449 18.6917 22.8613 19.2818 22.1237L23.2818 17.1243C23.8058 16.4693 23.3388 15.5001 22.5009 15.5001H20.5009V12.5007ZM19.5009 12.5007V15.5003C19.5009 16.0527 19.9489 16.5001 20.5009 16.5001H22.5005L18.501 21.499L18.5009 18.4996C18.5009 17.9472 18.0529 17.4998 17.5009 17.4998H15.5013L19.5009 12.5007Z" fill="#353566"/>
</svg>
