<svg width="24" height="24" viewBox="0 0 24 24" fill="none" xmlns="http://www.w3.org/2000/svg">
<path d="M12.4224 1.5H6.57755C5.61647 1.5 4.86451 1.49999 4.26049 1.54935C3.64594 1.59956 3.14062 1.70334 2.68404 1.93597C1.93139 2.31947 1.31947 2.93139 0.935974 3.68404C0.703335 4.14062 0.599556 4.64594 0.549345 5.26049C0.499995 5.86451 0.499997 6.61646 0.5 7.57755V16.4224C0.499997 17.3835 0.499995 18.1355 0.549345 18.7395C0.599556 19.3541 0.703335 19.8594 0.935974 20.316C1.31947 21.0686 1.93139 21.6805 2.68404 22.064C3.14062 22.2967 3.64594 22.4004 4.26049 22.4507C4.86451 22.5 5.61646 22.5 6.57754 22.5H11.8297C12.1058 22.5 12.3297 22.2761 12.3297 22C12.3297 21.7239 12.1058 21.5 11.8297 21.5H6.6C5.61166 21.5 4.90047 21.4996 4.34192 21.454C3.78921 21.4088 3.43014 21.3219 3.13803 21.173C2.57354 20.8854 2.1146 20.4265 1.82698 19.862C1.67814 19.5699 1.59118 19.2108 1.54602 18.6581C1.50039 18.0995 1.5 17.3883 1.5 16.4V7.6C1.5 6.61166 1.50039 5.90047 1.54602 5.34192C1.59118 4.78921 1.67814 4.43014 1.82698 4.13803C2.1146 3.57354 2.57354 3.1146 3.13803 2.82698C3.43014 2.67814 3.78921 2.59118 4.34192 2.54602C4.90047 2.50039 5.61166 2.5 6.6 2.5H12.4C13.3883 2.5 14.0995 2.50039 14.6581 2.54602C15.2108 2.59118 15.5699 2.67814 15.862 2.82698C16.4265 3.1146 16.8854 3.57354 17.173 4.13803C17.3219 4.43014 17.4088 4.78921 17.454 5.34192C17.4996 5.90047 17.5 6.61166 17.5 7.6V9.5C17.5 9.77614 17.7239 10 18 10C18.2761 10 18.5 9.77614 18.5 9.5V7.57754C18.5 6.61646 18.5 5.86451 18.4507 5.26049C18.4004 4.64594 18.2967 4.14062 18.064 3.68404C17.6805 2.93139 17.0686 2.31947 16.316 1.93597C15.8594 1.70334 15.3541 1.59956 14.7395 1.54935C14.1355 1.49999 13.3835 1.5 12.4224 1.5Z" fill="#353566"/>
<path d="M10 7.6001C9.72386 7.6001 9.5 7.82396 9.5 8.1001C9.5 8.37624 9.72386 8.6001 10 8.6001H13.5C13.7761 8.6001 14 8.37624 14 8.1001C14 7.82396 13.7761 7.6001 13.5 7.6001H10Z" fill="#353566"/>
<path d="M10 11.4302C9.72386 11.4302 9.5 11.654 9.5 11.9302C9.5 12.2063 9.72386 12.4302 10 12.4302H13.5C13.7761 12.4302 14 12.2063 14 11.9302C14 11.654 13.7761 11.4302 13.5 11.4302H10Z" fill="#353566"/>
<path d="M10 15.2601C9.72386 15.2601 9.5 15.484 9.5 15.7601C9.5 16.0363 9.72386 16.2601 10 16.2601H10.0401C10.3162 16.2601 10.5401 16.0363 10.5401 15.7601C10.5401 15.484 10.3162 15.2601 10.0401 15.2601H10Z" fill="#353566"/>
<path d="M7.84599 7.13904C8.04534 7.33012 8.05204 7.64663 7.86096 7.84599L6.58294 9.17932C6.48977 9.27652 6.36134 9.33204 6.22671 9.33331C6.09207 9.33458 5.96261 9.2815 5.86762 9.18608L5.14564 8.46079C4.95082 8.26508 4.95155 7.9485 5.14726 7.75369C5.34296 7.55887 5.65954 7.55959 5.85436 7.7553L6.21522 8.11782L7.13904 7.15401C7.33012 6.95466 7.64663 6.94796 7.84599 7.13904Z" fill="#353566"/>
<path d="M7.86096 11.6761C8.05204 11.4767 8.04534 11.1602 7.84599 10.9691C7.64663 10.778 7.33012 10.7847 7.13904 10.9841L6.21522 11.9479L5.85436 11.5854C5.65954 11.3897 5.34296 11.3889 5.14726 11.5838C4.95155 11.7786 4.95082 12.0952 5.14564 12.2909L5.86762 13.0162C5.96261 13.1116 6.09207 13.1647 6.22671 13.1634C6.36134 13.1621 6.48977 13.1066 6.58294 13.0094L7.86096 11.6761Z" fill="#353566"/>
<path d="M7.84599 14.799C8.04534 14.99 8.05204 15.3065 7.86096 15.5059L6.58294 16.8392C6.48977 16.9364 6.36134 16.992 6.22671 16.9932C6.09207 16.9945 5.96261 16.9414 5.86762 16.846L5.14564 16.1207C4.95082 15.925 4.95155 15.6084 5.14726 15.4136C5.34296 15.2188 5.65954 15.2195 5.85436 15.4152L6.21522 15.7777L7.13904 14.8139C7.33012 14.6146 7.64663 14.6079 7.84599 14.799Z" fill="#353566"/>
<path fill-rule="evenodd" clip-rule="evenodd" d="M19.0133 12.6365C18.6043 11.7878 17.3957 11.7878 16.9866 12.6365L15.9213 14.8464L13.4801 15.165C12.5385 15.2879 12.1633 16.45 12.8553 17.1003L14.6335 18.7713L14.1858 21.1646C14.0121 22.0935 14.9916 22.8097 15.824 22.3625L18 21.1934L20.1759 22.3625C21.0083 22.8097 21.9878 22.0935 21.8141 21.1646L21.3664 18.7713L23.1446 17.1003C23.8366 16.45 23.4614 15.2879 22.5198 15.165L20.0786 14.8464L19.0133 12.6365ZM17.8874 13.0707C17.9328 12.9764 18.0671 12.9764 18.1125 13.0707L19.1778 15.2807C19.3244 15.5848 19.6145 15.7944 19.9492 15.838L22.3905 16.1566C22.495 16.1702 22.5367 16.2993 22.4599 16.3716L20.6816 18.0426C20.4331 18.2761 20.3208 18.62 20.3834 18.9552L20.8311 21.3485C20.8504 21.4517 20.7416 21.5312 20.6492 21.4815L18.4732 20.3125C18.1777 20.1537 17.8222 20.1537 17.5267 20.3125L15.3508 21.4815C15.2583 21.5312 15.1495 21.4517 15.1688 21.3485L15.6165 18.9552C15.6792 18.62 15.5668 18.2761 15.3183 18.0426L13.5401 16.3716C13.4632 16.2993 13.5049 16.1702 13.6095 16.1566L16.0507 15.838C16.3854 15.7944 16.6755 15.5848 16.8221 15.2807L17.8874 13.0707Z" fill="#353566"/>
</svg>
