<svg width="24" height="24" viewBox="0 0 24 24" fill="none" xmlns="http://www.w3.org/2000/svg">
<path d="M6.57755 1.5H12.4224C13.3835 1.5 14.1355 1.49999 14.7395 1.54935C15.3541 1.59956 15.8594 1.70334 16.316 1.93597C17.0686 2.31947 17.6805 2.93139 18.064 3.68404C18.2967 4.14062 18.4004 4.64594 18.4507 5.26049C18.5 5.86451 18.5 6.61646 18.5 7.57754V9C18.5 9.27614 18.2761 9.5 18 9.5C17.7239 9.5 17.5 9.27614 17.5 9V7.6C17.5 6.61166 17.4996 5.90047 17.454 5.34192C17.4088 4.78921 17.3219 4.43014 17.173 4.13803C16.8854 3.57354 16.4265 3.1146 15.862 2.82698C15.5699 2.67814 15.2108 2.59118 14.6581 2.54602C14.0995 2.50039 13.3883 2.5 12.4 2.5H6.6C5.61166 2.5 4.90047 2.50039 4.34192 2.54602C3.78921 2.59118 3.43014 2.67814 3.13803 2.82698C2.57354 3.1146 2.1146 3.57354 1.82698 4.13803C1.67814 4.43014 1.59118 4.78921 1.54602 5.34192C1.50039 5.90047 1.5 6.61166 1.5 7.6V16.4C1.5 17.3883 1.50039 18.0995 1.54602 18.6581C1.59118 19.2108 1.67814 19.5699 1.82698 19.862C2.1146 20.4265 2.57354 20.8854 3.13803 21.173C3.43014 21.3219 3.78921 21.4088 4.34192 21.454C4.90047 21.4996 5.61166 21.5 6.6 21.5H11.7546C12.0308 21.5 12.2546 21.7239 12.2546 22C12.2546 22.2761 12.0308 22.5 11.7546 22.5H6.57754C5.61646 22.5 4.86451 22.5 4.26049 22.4507C3.64594 22.4004 3.14062 22.2967 2.68404 22.064C1.93139 21.6805 1.31947 21.0686 0.935974 20.316C0.703335 19.8594 0.599556 19.3541 0.549345 18.7395C0.499995 18.1355 0.499997 17.3835 0.5 16.4225V7.57756C0.499997 6.61647 0.499995 5.86451 0.549345 5.26049C0.599556 4.64594 0.703335 4.14062 0.935974 3.68404C1.31947 2.93139 1.93139 2.31947 2.68404 1.93597C3.14062 1.70334 3.64594 1.59956 4.26049 1.54935C4.86451 1.49999 5.61647 1.5 6.57755 1.5Z" fill="#353566"/>
<path d="M8 8C8 7.72386 8.22386 7.5 8.5 7.5H13.5C13.7761 7.5 14 7.72386 14 8C14 8.27614 13.7761 8.5 13.5 8.5H8.5C8.22386 8.5 8 8.27614 8 8Z" fill="#353566"/>
<path d="M8 12C8 11.7239 8.22386 11.5 8.5 11.5H11.7546C12.0308 11.5 12.2546 11.7239 12.2546 12C12.2546 12.2761 12.0308 12.5 11.7546 12.5H8.5C8.22386 12.5 8 12.2761 8 12Z" fill="#353566"/>
<path d="M8 16C8 15.7239 8.22386 15.5 8.5 15.5H10.0619C10.338 15.5 10.5619 15.7239 10.5619 16C10.5619 16.2761 10.338 16.5 10.0619 16.5H8.5C8.22386 16.5 8 16.2761 8 16Z" fill="#353566"/>
<path d="M5.5 7.25C5.08579 7.25 4.75 7.58579 4.75 8C4.75 8.41421 5.08579 8.75 5.5 8.75C5.91421 8.75 6.2501 8.41421 6.2501 8C6.2501 7.58579 5.91421 7.25 5.5 7.25Z" fill="#353566"/>
<path d="M4.75 12C4.75 11.5858 5.08579 11.25 5.5 11.25C5.91421 11.25 6.2501 11.5858 6.2501 12C6.2501 12.4142 5.91431 12.75 5.5001 12.75C5.08589 12.75 4.75 12.4142 4.75 12Z" fill="#353566"/>
<path d="M5.5 15.25C5.08579 15.25 4.75 15.5858 4.75 16C4.75 16.4142 5.08579 16.75 5.5 16.75C5.91421 16.75 6.2501 16.4142 6.2501 16C6.2501 15.5858 5.91421 15.25 5.5 15.25Z" fill="#353566"/>
<path d="M20 17.5C20.2761 17.5 20.5 17.2761 20.5 17C20.5 16.7239 20.2761 16.5 20 16.5H16C15.7239 16.5 15.5 16.7239 15.5 17C15.5 17.2761 15.7239 17.5 16 17.5H20Z" fill="#353566"/>
<path fill-rule="evenodd" clip-rule="evenodd" d="M12.5 17C12.5 13.9624 14.9624 11.5 18 11.5C21.0376 11.5 23.5 13.9624 23.5 17C23.5 20.0376 21.0376 22.5 18 22.5C14.9624 22.5 12.5 20.0376 12.5 17ZM18 12.5C15.5147 12.5 13.5 14.5147 13.5 17C13.5 19.4853 15.5147 21.5 18 21.5C20.4853 21.5 22.5 19.4853 22.5 17C22.5 14.5147 20.4853 12.5 18 12.5Z" fill="#353566"/>
</svg>
