<svg width="24" height="24" viewBox="0 0 24 24" fill="none" xmlns="http://www.w3.org/2000/svg">
<g clip-path="url(#clip0_9001_272982)">
<path fill-rule="evenodd" clip-rule="evenodd" d="M7.367 0.250244H14.633C15.7251 0.250239 16.5906 0.250235 17.2883 0.307232C18.0017 0.365518 18.6053 0.487126 19.1565 0.767964C20.0502 1.22336 20.7769 1.95002 21.2323 2.84379C21.5131 3.39496 21.6347 3.99859 21.693 4.71198C21.75 5.4096 21.75 6.27509 21.75 7.36722V12.3281C21.75 12.6008 21.602 12.852 21.3636 12.9841C21.1251 13.1163 20.8337 13.1086 20.6025 12.9641C19.7521 12.4326 18.7474 12.1252 17.6688 12.1252C14.607 12.1252 12.125 14.6073 12.125 17.669C12.125 18.7477 12.4323 19.7523 12.9639 20.6027C13.1084 20.8339 13.1161 21.1253 12.9839 21.3638C12.8517 21.6023 12.6005 21.7502 12.3279 21.7502H7.36698C6.27484 21.7502 5.40935 21.7503 4.71173 21.6933C3.99835 21.635 3.39472 21.5134 2.84355 21.2325C1.94978 20.7771 1.22312 20.0505 0.76772 19.1567C0.486883 18.6055 0.365274 18.0019 0.306988 17.2885C0.24999 16.5909 0.249995 15.7254 0.25 14.6332V7.36723C0.249995 6.2751 0.24999 5.4096 0.306988 4.71198C0.365274 3.99859 0.486882 3.39496 0.76772 2.84379C1.22312 1.95002 1.94978 1.22336 2.84355 0.767964C3.39472 0.487126 3.99835 0.365518 4.71173 0.307232C5.40935 0.250235 6.27486 0.250239 7.367 0.250244ZM16.5303 9.5305C16.8232 9.2376 16.8232 8.76273 16.5303 8.46984C16.2374 8.17694 15.7626 8.17694 15.4697 8.46984L12.5 11.4395L10.0303 8.96984C9.73744 8.67694 9.26256 8.67694 8.96967 8.96984L5.46967 12.4698C5.17678 12.7627 5.17678 13.2376 5.46967 13.5305C5.76256 13.8234 6.23744 13.8234 6.53033 13.5305L9.5 10.5608L11.9697 13.0305C12.2626 13.3234 12.7374 13.3234 13.0303 13.0305L16.5303 9.5305Z" fill="#353566"/>
<path fill-rule="evenodd" clip-rule="evenodd" d="M17.6179 13.0869C15.1153 13.0869 13.0866 15.1156 13.0866 17.6182C13.0866 20.1207 15.1153 22.1494 17.6179 22.1494C18.5984 22.1494 19.5062 21.838 20.2477 21.3086L22.4729 23.5338C22.7658 23.8267 23.2406 23.8267 23.5335 23.5338C23.8264 23.2409 23.8264 22.7661 23.5335 22.4732L21.3083 20.2479C21.8377 19.5064 22.1491 18.5987 22.1491 17.6182C22.1491 15.1156 20.1204 13.0869 17.6179 13.0869ZM14.5866 17.6182C14.5866 15.9441 15.9437 14.5869 17.6179 14.5869C19.292 14.5869 20.6491 15.9441 20.6491 17.6182C20.6491 19.2923 19.292 20.6494 17.6179 20.6494C15.9437 20.6494 14.5866 19.2923 14.5866 17.6182Z" fill="#353566"/>
</g>
<defs>
<clipPath id="clip0_9001_272982">
<rect width="24" height="24" fill="white"/>
</clipPath>
</defs>
</svg>
