<svg width="24" height="24" viewBox="0 0 24 24" fill="none" xmlns="http://www.w3.org/2000/svg">
<g clip-path="url(#clip0_9001_272652)">
<path d="M10.7193 0.318998C11.0061 0.287906 11.25 0.517533 11.25 0.806041V11.9973C11.25 12.0023 11.25 12.0073 11.2501 12.0123C11.2527 12.1677 11.3035 12.3215 11.4003 12.4505L18.124 21.4013C18.2973 21.632 18.2404 21.9619 17.9923 22.1093C16.2378 23.1515 14.1888 23.75 12 23.75C5.51065 23.75 0.25 18.4893 0.25 12C0.25 5.94343 4.83239 0.957133 10.7193 0.318998Z" fill="#353566"/>
<path d="M13.2806 0.318987C12.9938 0.287897 12.75 0.517532 12.75 0.80604V10.75C12.75 11.0261 12.9739 11.25 13.25 11.25H23.194C23.4825 11.25 23.7121 11.0062 23.681 10.7194C23.0885 5.25306 18.7469 0.911483 13.2806 0.318987Z" fill="#353566"/>
<path d="M23.194 12.75C23.4825 12.75 23.7121 12.9938 23.681 13.2807C23.3706 16.1448 22.0309 18.7002 20.0394 20.5692C19.8288 20.7669 19.4956 20.7298 19.3222 20.4989L14.1026 13.5503C13.855 13.2207 14.0902 12.75 14.5023 12.75H23.194Z" fill="#353566"/>
</g>
<defs>
<clipPath id="clip0_9001_272652">
<rect width="24" height="24" fill="white"/>
</clipPath>
</defs>
</svg>
