<svg width="24" height="24" viewBox="0 0 24 24" fill="none" xmlns="http://www.w3.org/2000/svg">
<path d="M2 1.25C2.41421 1.25 2.75 1.58579 2.75 2V18.5C2.75 20.0188 3.98122 21.25 5.5 21.25H22C22.4142 21.25 22.75 21.5858 22.75 22C22.75 22.4142 22.4142 22.75 22 22.75H5.5C3.15279 22.75 1.25 20.8472 1.25 18.5V2C1.25 1.58579 1.58579 1.25 2 1.25Z" fill="#353566"/>
<path d="M6.75 6.26772C5.90193 6.38903 5.25 7.11838 5.25 8V12C5.25 12.8816 5.90193 13.611 6.75 13.7323V15.5C6.75 15.9142 7.08579 16.25 7.5 16.25C7.91421 16.25 8.25 15.9142 8.25 15.5V13.7323C9.09807 13.611 9.75 12.8816 9.75 12V8C9.75 7.11838 9.09807 6.38903 8.25 6.26772L8.25 4.5C8.25 4.08579 7.91421 3.75 7.5 3.75C7.08579 3.75 6.75 4.08579 6.75 4.5L6.75 6.26772Z" fill="#353566"/>
<path d="M12.75 4.26772C11.9019 4.38903 11.25 5.11838 11.25 6V9C11.25 9.88162 11.9019 10.611 12.75 10.7323V12.5C12.75 12.9142 13.0858 13.25 13.5 13.25C13.9142 13.25 14.25 12.9142 14.25 12.5V10.7323C15.0981 10.611 15.75 9.88162 15.75 9V6C15.75 5.11838 15.0981 4.38903 14.25 4.26772V2.5C14.25 2.08579 13.9142 1.75 13.5 1.75C13.0858 1.75 12.75 2.08579 12.75 2.5V4.26772Z" fill="#353566"/>
<path d="M18.75 7.26772C17.9019 7.38903 17.25 8.11838 17.25 9V15C17.25 15.8816 17.9019 16.611 18.75 16.7323V18.5C18.75 18.9142 19.0858 19.25 19.5 19.25C19.9142 19.25 20.25 18.9142 20.25 18.5V16.7323C21.0981 16.611 21.75 15.8816 21.75 15V9C21.75 8.11838 21.0981 7.38903 20.25 7.26772V5C20.25 4.58579 19.9142 4.25 19.5 4.25C19.0858 4.25 18.75 4.58579 18.75 5V7.26772Z" fill="#353566"/>
</svg>
