<svg width="24" height="24" viewBox="0 0 24 24" fill="none" xmlns="http://www.w3.org/2000/svg">
<path d="M19.5 1C18.9477 1 18.5 1.44772 18.5 2L18.5 18C18.5 18.5523 18.9477 19 19.5 19C20.0523 19 20.5 18.5523 20.5 18L20.5 2C20.5 1.44772 20.0523 1 19.5 1Z" fill="#353566"/>
<path d="M8.5 18C8.5 18.5523 8.94772 19 9.5 19C10.0523 19 10.5 18.5523 10.5 18L10.5 5C10.5 4.44771 10.0523 4 9.5 4C8.94772 4 8.5 4.44771 8.5 5L8.5 18Z" fill="#353566"/>
<path d="M4.5 19C3.94772 19 3.5 18.5523 3.5 18L3.5 11C3.5 10.4477 3.94772 10 4.5 10C5.05229 10 5.5 10.4477 5.5 11L5.5 18C5.5 18.5523 5.05228 19 4.5 19Z" fill="#353566"/>
<path d="M1 22C1 21.4477 1.44772 21 2 21H22C22.5523 21 23 21.4477 23 22C23 22.5523 22.5523 23 22 23H2C1.44772 23 1 22.5523 1 22Z" fill="#353566"/>
<path d="M14.5 19C13.9477 19 13.5 18.5523 13.5 18L13.5 9C13.5 8.44771 13.9477 8 14.5 8C15.0523 8 15.5 8.44771 15.5 9L15.5 18C15.5 18.5523 15.0523 19 14.5 19Z" fill="#353566"/>
</svg>
