<svg width="24" height="24" viewBox="0 0 24 24" fill="none" xmlns="http://www.w3.org/2000/svg">
<g clip-path="url(#clip0_9001_273157)">
<path fill-rule="evenodd" clip-rule="evenodd" d="M7.367 0.250244H14.633C15.7251 0.250239 16.5906 0.250235 17.2883 0.307232C18.0017 0.365518 18.6053 0.487126 19.1565 0.767964C20.0502 1.22336 20.7769 1.95002 21.2323 2.84379C21.5131 3.39496 21.6347 3.99859 21.693 4.71198C21.75 5.4096 21.75 6.27509 21.75 7.36722V13.7327C21.75 13.9792 21.6289 14.2099 21.4261 14.3499C21.2233 14.4899 20.9647 14.5214 20.7343 14.4341C20.0233 14.1647 19.2687 14.0252 18.5 14.0252C15.9091 14.0252 13.4359 15.6152 12.3017 18.5122C12.0661 19.1139 12.0661 19.7866 12.3017 20.3883C12.3429 20.4936 12.3859 20.597 12.4305 20.6987C12.5323 20.9306 12.5102 21.1983 12.3717 21.4103C12.2332 21.6224 11.9971 21.7502 11.7438 21.7502H7.36698C6.27484 21.7502 5.40935 21.7503 4.71173 21.6933C3.99835 21.635 3.39472 21.5134 2.84355 21.2325C1.94978 20.7771 1.22312 20.0505 0.76772 19.1567C0.486883 18.6055 0.365274 18.0019 0.306988 17.2885C0.24999 16.5909 0.249995 15.7254 0.25 14.6333V7.36724C0.249995 6.27511 0.24999 5.4096 0.306988 4.71198C0.365274 3.99859 0.486882 3.39496 0.76772 2.84379C1.22312 1.95002 1.94978 1.22336 2.84355 0.767964C3.39472 0.487126 3.99835 0.365518 4.71173 0.307232C5.40935 0.250235 6.27486 0.250239 7.367 0.250244ZM10.25 15.0002C10.25 15.4144 10.5858 15.7502 11 15.7502C11.4142 15.7502 11.75 15.4144 11.75 15.0002L11.75 7.00017C11.75 6.58595 11.4142 6.25017 11 6.25017C10.5858 6.25017 10.25 6.58595 10.25 7.00017L10.25 15.0002ZM6.75002 15.0002C6.75002 15.4144 7.08581 15.7502 7.50002 15.7502C7.91423 15.7502 8.25002 15.4144 8.25002 15.0002L8.25002 12.0002C8.25002 11.586 7.91423 11.2502 7.50002 11.2502C7.08581 11.2502 6.75002 11.586 6.75002 12.0002V15.0002ZM13.75 15.0002C13.75 15.0328 13.7521 15.065 13.7562 15.0966C14.2171 14.6868 14.7189 14.3426 15.25 14.0676L15.25 9.00017C15.25 8.58595 14.9142 8.25017 14.5 8.25017C14.0858 8.25017 13.75 8.58595 13.75 9.00017L13.75 15.0002Z" fill="#353566"/>
<path d="M18.4199 18.0035C17.6821 18.0035 17.0866 18.599 17.0866 19.3368C17.0866 20.0747 17.6821 20.6702 18.4199 20.6702C19.1578 20.6702 19.7533 20.0747 19.7533 19.3368C19.7533 18.599 19.1578 18.0035 18.4199 18.0035Z" fill="#353566"/>
<path fill-rule="evenodd" clip-rule="evenodd" d="M18.4199 15.1702C20.4608 15.1702 22.4649 16.4165 23.4063 18.821C23.5356 19.1513 23.5356 19.5223 23.4063 19.8526C22.4649 22.2572 20.4608 23.5035 18.4199 23.5035C16.3791 23.5035 14.375 22.2572 13.4336 19.8526C13.3043 19.5223 13.3043 19.1513 13.4336 18.821C14.375 16.4165 16.3791 15.1702 18.4199 15.1702ZM18.4199 17.0035C17.1298 17.0035 16.0866 18.0467 16.0866 19.3368C16.0866 20.6269 17.1298 21.6702 18.4199 21.6702C19.7101 21.6702 20.7533 20.6269 20.7533 19.3368C20.7533 18.0467 19.7101 17.0035 18.4199 17.0035Z" fill="#353566"/>
</g>
<defs>
<clipPath id="clip0_9001_273157">
<rect width="24" height="24" fill="white"/>
</clipPath>
</defs>
</svg>
