<svg width="24" height="24" viewBox="0 0 24 24" fill="none" xmlns="http://www.w3.org/2000/svg">
<g clip-path="url(#clip0_9001_273107)">
<path fill-rule="evenodd" clip-rule="evenodd" d="M14.633 0.25H7.367C6.27486 0.249995 5.40935 0.24999 4.71173 0.306988C3.99835 0.365274 3.39472 0.486882 2.84355 0.76772C1.94978 1.22312 1.22312 1.94978 0.76772 2.84355C0.486882 3.39472 0.365274 3.99834 0.306988 4.71173C0.24999 5.40935 0.249995 6.27486 0.25 7.36699V14.633C0.249995 15.7252 0.24999 16.5906 0.306988 17.2883C0.365274 18.0017 0.486883 18.6053 0.76772 19.1565C1.22312 20.0502 1.94978 20.7769 2.84355 21.2323C3.39472 21.5131 3.99835 21.6347 4.71173 21.693C5.40935 21.75 6.27484 21.75 7.36698 21.75H11.3208C11.5636 21.75 11.7914 21.6324 11.9321 21.4345C12.0728 21.2365 12.1089 20.9827 12.0291 20.7534C11.7837 20.0487 11.65 19.2907 11.65 18.5C11.65 14.7168 14.7168 11.65 18.5 11.65C19.2907 11.65 20.0487 11.7837 20.7534 12.0291C20.9827 12.1089 21.2365 12.0728 21.4345 11.9321C21.6324 11.7914 21.75 11.5636 21.75 11.3208V7.36698C21.75 6.27484 21.75 5.40935 21.693 4.71173C21.6347 3.99835 21.5131 3.39472 21.2323 2.84355C20.7769 1.94978 20.0502 1.22312 19.1565 0.767719C18.6053 0.486882 18.0017 0.365274 17.2883 0.306988C16.5906 0.24999 15.7251 0.249995 14.633 0.25ZM10.25 15C10.25 15.4142 10.5857 15.75 11 15.75C11.1845 15.75 11.3535 15.6833 11.4842 15.5728C11.5651 15.379 11.6538 15.1893 11.7499 15.0041L11.75 15L11.75 7C11.75 6.58579 11.4142 6.25 11 6.25C10.5857 6.25 10.25 6.58579 10.25 7L10.25 15ZM15.25 9V11.628C14.7123 11.8827 14.2093 12.1987 13.75 12.5669L13.75 9C13.75 8.58579 14.0857 8.25 14.5 8.25C14.9142 8.25 15.25 8.58579 15.25 9ZM7.49996 15.75C7.08575 15.75 6.74996 15.4142 6.74996 15V12C6.74996 11.5858 7.08575 11.25 7.49996 11.25C7.91417 11.25 8.24996 11.5858 8.24996 12L8.24996 15C8.24996 15.4142 7.91417 15.75 7.49996 15.75Z" fill="#353566"/>
<path fill-rule="evenodd" clip-rule="evenodd" d="M13.0865 18.42C13.0865 15.4745 15.4744 13.0867 18.4199 13.0867C21.3654 13.0867 23.7532 15.4745 23.7532 18.42C23.7532 21.3655 21.3654 23.7533 18.4199 23.7533C15.4744 23.7533 13.0865 21.3655 13.0865 18.42ZM17.7949 16.1283V19.2028L17.0285 18.4364C16.7844 18.1923 16.3887 18.1923 16.1446 18.4364C15.9005 18.6805 15.9005 19.0762 16.1446 19.3203L17.9779 21.1536C18.222 21.3977 18.6177 21.3977 18.8618 21.1536L20.6952 19.3203C20.9392 19.0762 20.9392 18.6805 20.6952 18.4364C20.4511 18.1923 20.0554 18.1923 19.8113 18.4364L19.0449 19.2028V16.1283C19.0449 15.7832 18.7651 15.5033 18.4199 15.5033C18.0747 15.5033 17.7949 15.7832 17.7949 16.1283Z" fill="#353566"/>
</g>
<defs>
<clipPath id="clip0_9001_273107">
<rect width="24" height="24" fill="white"/>
</clipPath>
</defs>
</svg>
