<svg width="24" height="24" viewBox="0 0 24 24" fill="none" xmlns="http://www.w3.org/2000/svg">
<g clip-path="url(#clip0_9001_273077)">
<path fill-rule="evenodd" clip-rule="evenodd" d="M14.633 0.25H7.367C6.27486 0.249995 5.40935 0.24999 4.71173 0.306988C3.99835 0.365274 3.39472 0.486882 2.84355 0.76772C1.94978 1.22312 1.22312 1.94978 0.76772 2.84355C0.486882 3.39472 0.365274 3.99834 0.306988 4.71173C0.24999 5.40935 0.249995 6.27486 0.25 7.36699V14.633C0.249995 15.7252 0.24999 16.5906 0.306988 17.2883C0.365274 18.0017 0.486883 18.6053 0.76772 19.1565C1.22312 20.0502 1.94978 20.7769 2.84355 21.2323C3.39472 21.5131 3.99835 21.6347 4.71173 21.693C5.40935 21.75 6.27484 21.75 7.36698 21.75H11.3208C11.5636 21.75 11.7914 21.6324 11.9321 21.4345C12.0728 21.2365 12.1089 20.9827 12.0291 20.7534C11.7837 20.0487 11.65 19.2907 11.65 18.5C11.65 14.7168 14.7168 11.65 18.5 11.65C19.2907 11.65 20.0487 11.7837 20.7534 12.0291C20.9827 12.1089 21.2365 12.0728 21.4345 11.9321C21.6324 11.7914 21.75 11.5636 21.75 11.3208V7.36698C21.75 6.27484 21.75 5.40935 21.693 4.71173C21.6347 3.99835 21.5131 3.39472 21.2323 2.84355C20.7769 1.94978 20.0502 1.22312 19.1565 0.767719C18.6053 0.486882 18.0017 0.365274 17.2883 0.306988C16.5906 0.24999 15.7251 0.249995 14.633 0.25ZM10.25 15C10.25 15.4142 10.5858 15.75 11 15.75C11.1845 15.75 11.3535 15.6833 11.4842 15.5728C11.5651 15.379 11.6539 15.1893 11.75 15.0041L11.75 15L11.75 7C11.75 6.58579 11.4142 6.25 11 6.25C10.5858 6.25 10.25 6.58579 10.25 7L10.25 15ZM15.25 9V11.628C14.7123 11.8827 14.2093 12.1987 13.75 12.5669V9C13.75 8.58579 14.0858 8.25 14.5 8.25C14.9142 8.25 15.25 8.58579 15.25 9ZM7.49999 15.75C7.08578 15.75 6.74999 15.4142 6.74999 15V12C6.74999 11.5858 7.08578 11.25 7.49999 11.25C7.9142 11.25 8.24999 11.5858 8.24999 12L8.24999 15C8.24999 15.4142 7.9142 15.75 7.49999 15.75Z" fill="#353566"/>
<path fill-rule="evenodd" clip-rule="evenodd" d="M18.4199 13.0867C21.3654 13.0867 23.7532 15.4745 23.7532 18.42C23.7532 21.3655 21.3654 23.7533 18.4199 23.7533C15.4744 23.7533 13.0866 21.3655 13.0866 18.42C13.0866 15.4745 15.4744 13.0867 18.4199 13.0867ZM18.4199 16.5242C18.0057 16.5242 17.6699 16.86 17.6699 17.2742C17.6699 17.6193 17.3901 17.8992 17.0449 17.8992C16.6997 17.8992 16.4199 17.6193 16.4199 17.2742C16.4199 16.1696 17.3153 15.2742 18.4199 15.2742C19.5245 15.2742 20.4199 16.1696 20.4199 17.2742C20.4199 17.832 20.1907 18.3374 19.823 18.6994C19.6337 18.8858 19.4254 19.0137 19.2983 19.0917C19.275 19.106 19.2543 19.1188 19.2371 19.1298C19.1169 19.2066 19.0876 19.2401 19.0623 19.2874C18.8997 19.5918 18.521 19.7068 18.2166 19.5442C17.9121 19.3816 17.7971 19.003 17.9597 18.6985C18.1354 18.3695 18.3792 18.1946 18.5637 18.0766C18.6063 18.0494 18.6437 18.0261 18.6772 18.0052L18.6787 18.0043C18.7964 17.9309 18.8659 17.8875 18.946 17.8087C19.0849 17.6719 19.1699 17.4835 19.1699 17.2742C19.1699 16.86 18.8341 16.5242 18.4199 16.5242ZM17.6699 20.7117C17.6699 20.2975 18.0057 19.9617 18.4199 19.9617C18.8341 19.9617 19.17 20.2975 19.17 20.7117C19.17 21.1259 18.8341 21.4617 18.4199 21.4617C18.0057 21.4617 17.6699 21.1259 17.6699 20.7117Z" fill="#353566"/>
</g>
<defs>
<clipPath id="clip0_9001_273077">
<rect width="24" height="24" fill="white"/>
</clipPath>
</defs>
</svg>
