<svg width="24" height="24" viewBox="0 0 24 24" fill="none" xmlns="http://www.w3.org/2000/svg">
<path d="M3.25 4.25L3.25 2C3.25 1.58579 3.58579 1.25 4 1.25C4.41421 1.25 4.75 1.58579 4.75 2L4.75 4.25H5C5.9665 4.25 6.75 5.0335 6.75 6V15C6.75 15.9665 5.9665 16.75 5 16.75H4.75V21C4.75 21.4142 4.41421 21.75 4 21.75C3.58579 21.75 3.25 21.4142 3.25 21V16.75H3C2.0335 16.75 1.25 15.9665 1.25 15V6C1.25 5.0335 2.0335 4.25 3 4.25H3.25Z" fill="#353566"/>
<path d="M20.75 6.25H21C21.9665 6.25 22.75 7.0335 22.75 8V14C22.75 14.9665 21.9665 15.75 21 15.75H20.75V18C20.75 18.4142 20.4142 18.75 20 18.75C19.5858 18.75 19.25 18.4142 19.25 18V15.75H19C18.0335 15.75 17.25 14.9665 17.25 14V8C17.25 7.0335 18.0335 6.25 19 6.25H19.25L19.25 3C19.25 2.58579 19.5858 2.25 20 2.25C20.4142 2.25 20.75 2.58579 20.75 3L20.75 6.25Z" fill="#353566"/>
<path d="M11 11.25C10.0335 11.25 9.25 12.0335 9.25 13V18C9.25 18.9665 10.0335 19.75 11 19.75H11.25V22C11.25 22.4142 11.5858 22.75 12 22.75C12.4142 22.75 12.75 22.4142 12.75 22V19.75H13C13.9665 19.75 14.75 18.9665 14.75 18V13C14.75 12.0335 13.9665 11.25 13 11.25H12.75L12.75 8C12.75 7.58579 12.4142 7.25 12 7.25C11.5858 7.25 11.25 7.58579 11.25 8L11.25 11.25H11Z" fill="#353566"/>
</svg>
