<svg width="24" height="24" viewBox="0 0 24 24" fill="none" xmlns="http://www.w3.org/2000/svg">
<path d="M23 19.5C23 18.9477 22.5523 18.5 22 18.5L6 18.5C5.44772 18.5 5 18.9477 5 19.5C5 20.0523 5.44772 20.5 6 20.5L22 20.5C22.5523 20.5 23 20.0523 23 19.5Z" fill="#353566"/>
<path d="M6 8.5C5.44772 8.5 5 8.94772 5 9.5C5 10.0523 5.44772 10.5 6 10.5L19 10.5C19.5523 10.5 20 10.0523 20 9.5C20 8.94772 19.5523 8.5 19 8.5L6 8.5Z" fill="#353566"/>
<path d="M5 4.5C5 3.94772 5.44772 3.5 6 3.5L13 3.5C13.5523 3.5 14 3.94772 14 4.5C14 5.05229 13.5523 5.5 13 5.5L6 5.5C5.44772 5.5 5 5.05228 5 4.5Z" fill="#353566"/>
<path d="M2 1C2.55228 1 3 1.44772 3 2V22C3 22.5523 2.55228 23 2 23C1.44772 23 1 22.5523 1 22V2C1 1.44772 1.44772 1 2 1Z" fill="#353566"/>
<path d="M5 14.5C5 13.9477 5.44772 13.5 6 13.5L15 13.5C15.5523 13.5 16 13.9477 16 14.5C16 15.0523 15.5523 15.5 15 15.5L6 15.5C5.44772 15.5 5 15.0523 5 14.5Z" fill="#353566"/>
</svg>
