<svg width="24" height="24" viewBox="0 0 24 24" fill="none" xmlns="http://www.w3.org/2000/svg">
<g clip-path="url(#clip0_9001_273177)">
<path fill-rule="evenodd" clip-rule="evenodd" d="M14.633 0.25H7.367C6.27486 0.249995 5.40935 0.24999 4.71173 0.306988C3.99835 0.365274 3.39472 0.486882 2.84355 0.76772C1.94978 1.22312 1.22312 1.94978 0.76772 2.84355C0.486882 3.39472 0.365274 3.99834 0.306988 4.71173C0.24999 5.40935 0.249995 6.27486 0.25 7.36699V14.633C0.249995 15.7252 0.24999 16.5906 0.306988 17.2883C0.365274 18.0017 0.486883 18.6053 0.76772 19.1565C1.22312 20.0502 1.94978 20.7769 2.84355 21.2323C3.39472 21.5131 3.99835 21.6347 4.71173 21.693C5.40935 21.75 6.27484 21.75 7.36698 21.75H13.374C13.7195 21.75 14.0203 21.5139 14.1025 21.1783C14.2663 20.5088 14.6817 19.9295 15.2316 19.5171C15.7768 19.1082 16.4224 18.911 17.2082 18.7697C17.5655 18.7055 17.8255 18.3946 17.8255 18.0316V15.3735C17.8255 14.229 18.5808 13.2218 19.6796 12.9014L21.21 12.455C21.53 12.3617 21.75 12.0683 21.75 11.735V7.36698C21.75 6.27484 21.75 5.40935 21.693 4.71173C21.6347 3.99835 21.5131 3.39472 21.2323 2.84355C20.7769 1.94978 20.0502 1.22312 19.1565 0.767719C18.6053 0.486882 18.0017 0.365274 17.2883 0.306988C16.5906 0.24999 15.7251 0.249995 14.633 0.25ZM10.25 15C10.25 15.4142 10.5858 15.75 11 15.75C11.4142 15.75 11.75 15.4142 11.75 15L11.75 6.99998C11.75 6.58577 11.4142 6.24998 11 6.24998C10.5858 6.24998 10.25 6.58577 10.25 6.99998L10.25 15ZM6.75 15C6.75 15.4142 7.08579 15.75 7.5 15.75C7.91421 15.75 8.25 15.4142 8.25 15V12C8.25 11.5858 7.91421 11.25 7.5 11.25C7.08579 11.25 6.75 11.5858 6.75 12V15ZM13.75 15C13.75 15.4142 14.0858 15.75 14.5 15.75C14.9142 15.75 15.25 15.4142 15.25 15L15.25 8.99998C15.25 8.58577 14.9142 8.24998 14.5 8.24998C14.0858 8.24998 13.75 8.58577 13.75 8.99998V15Z" fill="#353566"/>
<path d="M19.7954 17.6171L22.6374 16.7881C23.1264 16.6455 23.4625 16.1973 23.4625 15.688V14.4099C23.4625 13.7224 22.8024 13.2273 22.1424 13.4198L19.8688 14.083C19.2821 14.2541 18.8787 14.7919 18.8787 15.4031V20.1574C18.4649 19.9103 17.9769 19.7945 17.5035 19.7945C16.9528 19.7945 16.3824 19.9511 15.932 20.289C15.4766 20.6305 15.2116 21.1107 15.2116 21.6281C15.2116 22.1454 15.4766 22.6256 15.932 22.9671C16.3824 23.305 16.9528 23.4616 17.5035 23.4616C18.0542 23.4616 18.6245 23.305 19.075 22.9671C19.5304 22.6256 19.7954 22.1454 19.7954 21.6281L19.7954 21.6198V17.6171Z" fill="#353566"/>
</g>
<defs>
<clipPath id="clip0_9001_273177">
<rect width="24" height="24" fill="white"/>
</clipPath>
</defs>
</svg>
