<svg width="24" height="24" viewBox="0 0 24 24" fill="none" xmlns="http://www.w3.org/2000/svg">
<g clip-path="url(#clip0_9001_273132)">
<path fill-rule="evenodd" clip-rule="evenodd" d="M14.633 0.25H7.367C6.27486 0.249995 5.40935 0.249991 4.71173 0.306988C3.99835 0.365274 3.39472 0.486882 2.84355 0.76772C1.94978 1.22312 1.22312 1.94978 0.76772 2.84355C0.486882 3.39472 0.365274 3.99834 0.306988 4.71173C0.249991 5.40935 0.249995 6.27485 0.25 7.36699V14.633C0.249995 15.7251 0.249991 16.5906 0.306988 17.2883C0.365274 18.0017 0.486883 18.6053 0.76772 19.1565C1.22312 20.0502 1.94978 20.7769 2.84355 21.2323C3.39472 21.5131 3.99835 21.6347 4.71173 21.693C5.40935 21.75 6.27484 21.75 7.36698 21.75H13.2193C13.5852 21.75 13.8977 21.486 13.9587 21.1252C13.9663 21.0805 13.9743 21.036 13.9825 20.9918C14.0295 20.7405 13.9452 20.4826 13.7589 20.3076C13.173 19.7569 12.6885 19.279 12.396 18.7596C12.1284 18.2846 12.0265 17.7831 12.2358 17.1351C12.4465 16.4824 12.8264 16.1343 13.3273 15.9054C13.8756 15.6548 14.555 15.5525 15.3598 15.4471C15.6107 15.4143 15.8282 15.2571 15.9381 15.0291C16.2881 14.3026 16.5962 13.6939 17.0031 13.2539C17.3752 12.8516 17.8218 12.6 18.5019 12.6C19.3774 12.6 19.9022 13.0209 20.373 13.7383C20.5549 14.0154 20.8971 14.1403 21.2147 14.0454C21.5324 13.9505 21.75 13.6583 21.75 13.3268V7.36698C21.75 6.27484 21.75 5.40935 21.693 4.71173C21.6347 3.99835 21.5131 3.39472 21.2323 2.84355C20.7769 1.94978 20.0502 1.22312 19.1565 0.76772C18.6053 0.486882 18.0017 0.365274 17.2883 0.306988C16.5907 0.249991 15.7251 0.249995 14.633 0.25ZM10.25 15C10.25 15.4142 10.5858 15.75 11 15.75C11.4142 15.75 11.75 15.4142 11.75 15L11.75 7C11.75 6.58579 11.4142 6.25 11 6.25C10.5858 6.25 10.25 6.58579 10.25 7L10.25 15ZM6.75 15C6.75 15.4142 7.08579 15.75 7.5 15.75C7.91421 15.75 8.25 15.4142 8.25 15V12C8.25 11.5858 7.91421 11.25 7.5 11.25C7.08579 11.25 6.75 11.5858 6.75 12V15ZM15.25 9L15.25 14.7051C14.7409 14.7718 14.2288 14.8426 13.75 14.9678V9C13.75 8.58579 14.0858 8.25 14.5 8.25C14.9142 8.25 15.25 8.58579 15.25 9Z" fill="#353566"/>
<path d="M19.3488 14.4201C18.9738 13.6422 17.8659 13.6422 17.491 14.4201L16.5144 16.4459L14.2767 16.7379C13.4135 16.8505 13.0696 17.9159 13.7039 18.5119L15.334 20.0437L14.9236 22.2376C14.7643 23.089 15.6622 23.7456 16.4253 23.3356L18.4199 22.264L20.4145 23.3356C21.1775 23.7456 22.0754 23.089 21.9162 22.2376L21.5058 20.0437L23.1358 18.5119C23.7702 17.9159 23.4262 16.8505 22.5631 16.7379L20.3253 16.4459L19.3488 14.4201Z" fill="#353566"/>
</g>
<defs>
<clipPath id="clip0_9001_273132">
<rect width="24" height="24" fill="white"/>
</clipPath>
</defs>
</svg>
