<svg width="24" height="24" viewBox="0 0 24 24" fill="none" xmlns="http://www.w3.org/2000/svg">
<g clip-path="url(#clip0_9001_267397)">
<path fill-rule="evenodd" clip-rule="evenodd" d="M0.25 12C0.25 5.51065 5.51065 0.25 12 0.25C18.4893 0.25 23.75 5.51065 23.75 12C23.75 18.4893 18.4893 23.75 12 23.75C5.51065 23.75 0.25 18.4893 0.25 12ZM7 17.75C6.58579 17.75 6.25 17.4142 6.25 17V7C6.25 6.58579 6.58579 6.25 7 6.25C7.41421 6.25 7.75 6.58579 7.75 7V17C7.75 17.4142 7.41421 17.75 7 17.75ZM13.2196 14.7197C12.9268 15.0126 12.9268 15.4875 13.2197 15.7804C13.5126 16.0732 13.9875 16.0732 14.2804 15.7803L17.5304 12.53C17.671 12.3893 17.75 12.1985 17.75 11.9996C17.75 11.8007 17.671 11.61 17.5303 11.4693L14.2803 8.21964C13.9874 7.92676 13.5125 7.92679 13.2196 8.2197C12.9268 8.5126 12.9268 8.98748 13.2197 9.28036L15.1895 11.25H10C9.58579 11.25 9.25 11.5858 9.25 12C9.25 12.4142 9.58579 12.75 10 12.75H15.1891L13.2196 14.7197Z" fill="#353566"/>
</g>
<defs>
<clipPath id="clip0_9001_267397">
<rect width="24" height="24" fill="white"/>
</clipPath>
</defs>
</svg>
