<svg width="24" height="24" viewBox="0 0 24 24" fill="none" xmlns="http://www.w3.org/2000/svg">
<g clip-path="url(#clip0_9001_267447)">
<path d="M20.7972 16.2604C21.369 17.253 20.6533 18.5 19.4926 18.5H14.4141L15.707 17.2071C16.0975 16.8166 16.0975 16.1834 15.707 15.7929C15.3165 15.4024 14.6833 15.4024 14.2928 15.7929L11.2928 18.7929C11.261 18.8247 11.2316 18.8583 11.2047 18.8937C11.093 19.04 11.0207 19.218 11.0038 19.4119C11.0012 19.4411 10.9999 19.4705 10.9999 19.5C10.9999 19.5295 11.0012 19.5589 11.0038 19.5881C11.0244 19.821 11.1261 20.0405 11.2928 20.2071L14.2928 23.2071C14.6833 23.5976 15.3165 23.5976 15.707 23.2071C16.0975 22.8166 16.0975 22.1834 15.707 21.7929L14.4141 20.5H19.4926C22.1812 20.5 23.8754 17.5974 22.5303 15.2621L21.722 13.8589C21.4464 13.3803 20.835 13.2158 20.3564 13.4915C19.8778 13.7671 19.7133 14.3786 19.989 14.8571L20.7972 16.2604Z" fill="#353566"/>
<path d="M18.5652 8.37817L19.0301 6.64305C19.173 6.10958 19.7214 5.793 20.2548 5.93594C20.7883 6.07888 21.1049 6.62722 20.9619 7.16068L19.8639 11.2588C19.7952 11.5149 19.6276 11.7334 19.3979 11.866C19.1683 11.9986 18.8953 12.0345 18.6391 11.9659L14.541 10.8678C14.0076 10.7248 13.691 10.1765 13.8339 9.64305C13.9769 9.10958 14.5252 8.793 15.0587 8.93594L16.8558 9.41746L13.3046 3.25218C12.7269 2.24927 11.273 2.24927 10.6953 3.25218L9.58662 5.17698C9.31096 5.65555 8.69954 5.82005 8.22097 5.54439C7.74239 5.26874 7.5779 4.65731 7.85355 4.17874L8.96222 2.25394C10.3092 -0.0846499 13.6907 -0.0846442 15.0377 2.25394L18.5652 8.37817Z" fill="#353566"/>
<path d="M4.50733 20.5H7.99994C8.55223 20.5 8.99994 20.0523 8.99994 19.5C8.99994 18.9477 8.55223 18.5 7.99994 18.5H4.50733C3.3466 18.5 2.63093 17.253 3.20267 16.2603L6.4605 10.6043L6.93012 12.357C7.07306 12.8904 7.6214 13.207 8.15486 13.0641C8.68833 12.9211 9.00491 12.3728 8.86197 11.8393L7.76389 7.74124C7.69525 7.48506 7.52765 7.26664 7.29797 7.13403C7.06828 7.00142 6.79533 6.96549 6.53915 7.03413L2.44107 8.13221C1.90761 8.27515 1.59103 8.82349 1.73397 9.35695C1.87691 9.89042 2.42525 10.207 2.95871 10.0641L4.7383 9.58722L1.4696 15.2621C0.124511 17.5974 1.81866 20.5 4.50733 20.5Z" fill="#353566"/>
</g>
<defs>
<clipPath id="clip0_9001_267447">
<rect width="24" height="24" fill="white"/>
</clipPath>
</defs>
</svg>
