<svg width="24" height="24" viewBox="0 0 24 24" fill="none" xmlns="http://www.w3.org/2000/svg">
<path d="M17.5303 10.5303C17.8232 10.2374 17.8232 9.76256 17.5303 9.46967C17.2374 9.17678 16.7626 9.17678 16.4697 9.46967L13.5 12.4393L11.0303 9.96967C10.7374 9.67678 10.2626 9.67678 9.96967 9.96967L6.46967 13.4697C6.17678 13.7626 6.17678 14.2374 6.46967 14.5303C6.76256 14.8232 7.23744 14.8232 7.53033 14.5303L10.5 11.5607L12.9697 14.0303C13.2626 14.3232 13.7374 14.3232 14.0303 14.0303L17.5303 10.5303Z" fill="#353566"/>
<path fill-rule="evenodd" clip-rule="evenodd" d="M7.89333 2.25C3.85795 2.25 1.25 5.6858 1.25 9.47438C1.25 13.301 3.56046 16.37 5.93786 18.4936C8.31635 20.6183 10.9037 21.9251 11.7628 22.2115L12 22.2906L12.2372 22.2115C13.0963 21.9251 15.6837 20.6183 18.0621 18.4936C20.4395 16.37 22.75 13.301 22.75 9.47438C22.75 5.6858 20.1421 2.25 16.1067 2.25C14.2398 2.25 12.8942 3.06969 12 3.91063C11.1058 3.06969 9.76025 2.25 7.89333 2.25ZM2.75 9.47438C2.75 6.3142 4.87317 3.75 7.89333 3.75C9.60595 3.75 10.7397 4.66987 11.4269 5.48383L12 6.16259L12.5731 5.48383C13.2603 4.66987 14.3941 3.75 16.1067 3.75C19.1268 3.75 21.25 6.3142 21.25 9.47438C21.25 12.6733 19.3105 15.3672 17.0629 17.375C15.0361 19.1854 12.8742 20.3336 12 20.6978C11.1258 20.3336 8.96385 19.1854 6.93714 17.375C4.68954 15.3672 2.75 12.6733 2.75 9.47438Z" fill="#353566"/>
</svg>
