<svg width="24" height="24" viewBox="0 0 24 24" fill="none" xmlns="http://www.w3.org/2000/svg">
<path d="M12.8017 2.38033C12.0745 0.871593 9.92578 0.871599 9.19851 2.38033L7.06774 6.80063C7.03109 6.87666 6.95857 6.92906 6.87489 6.93998L1.99207 7.57713C0.318077 7.79556 -0.348975 9.86174 0.881268 11.0178L4.43805 14.3601C4.50017 14.4185 4.52826 14.5044 4.51259 14.5882L3.61714 19.3753C3.30824 21.0266 5.04969 22.2999 6.52961 21.5048L10.8818 19.1665C10.9557 19.1268 11.0445 19.1268 11.1184 19.1665L14.7362 21.1102C15.1011 21.3063 15.5558 21.1694 15.7518 20.8045C15.9479 20.4396 15.811 19.9849 15.4461 19.7889L11.8284 17.8452C11.3112 17.5673 10.6891 17.5673 10.1719 17.8452L5.81968 20.1834C5.4497 20.3822 5.01434 20.0639 5.09156 19.6511L5.98702 14.864C6.09672 14.2775 5.90005 13.6756 5.46524 13.267L1.90846 9.92468C1.60089 9.63567 1.76766 9.11913 2.18615 9.06452L7.06897 8.42737C7.65475 8.35093 8.16243 7.98412 8.41894 7.45197L10.5497 3.03167C10.7315 2.65448 11.2687 2.65448 11.4505 3.03167L13.5813 7.45197C13.8378 7.98412 14.3455 8.35093 14.9313 8.42737L19.8141 9.06452C20.0021 9.08905 20.1315 9.19739 20.2002 9.34329C20.3766 9.71804 20.8235 9.87878 21.1982 9.70232C21.573 9.52586 21.7337 9.07902 21.5572 8.70428C21.2871 8.13049 20.7399 7.67261 20.0082 7.57713L15.1254 6.93998C15.0417 6.92906 14.9691 6.87665 14.9325 6.80063L12.8017 2.38033Z" fill="#353566"/>
<path d="M21.2499 12C21.2499 11.5858 20.9141 11.25 20.4999 11.25C20.0857 11.25 19.7499 11.5858 19.7499 12V12.5548C19.1845 12.6408 18.6688 12.8301 18.2475 13.1352C17.6234 13.5872 17.2499 14.267 17.2499 15.0817C17.2499 16.1332 17.834 16.7917 18.5086 17.1693C19.1358 17.5204 19.8814 17.6572 20.3766 17.7398C20.8814 17.8239 21.3858 17.9308 21.7586 18.1395C22.084 18.3217 22.2499 18.539 22.2499 18.9183C22.2499 19.2322 22.1234 19.4682 21.8725 19.6499C21.5992 19.8479 21.1434 20 20.4999 20C20.0593 20 19.7857 19.9528 19.5264 19.85C19.2497 19.7402 18.941 19.5482 18.4527 19.1785C18.1224 18.9284 17.652 18.9934 17.402 19.3236C17.1519 19.6539 17.2169 20.1243 17.5472 20.3743C18.0589 20.7618 18.5002 21.0566 18.9734 21.2443C19.2315 21.3467 19.4856 21.4121 19.7499 21.4511V22C19.7499 22.4142 20.0857 22.75 20.4999 22.75C20.9141 22.75 21.2499 22.4142 21.2499 22V21.4452C21.8153 21.3592 22.331 21.1699 22.7523 20.8648C23.3765 20.4128 23.7499 19.7329 23.7499 18.9183C23.7499 17.8667 23.1658 17.2083 22.4913 16.8306C21.8641 16.4795 21.1185 16.3427 20.6232 16.2602C20.1185 16.1761 19.6141 16.0691 19.2413 15.8604C18.9158 15.6783 18.7499 15.461 18.7499 15.0817C18.7499 14.7677 18.8765 14.5317 19.1273 14.35C19.4007 14.1521 19.8564 14 20.4999 14C20.9405 14 21.2142 14.0471 21.4734 14.15C21.7502 14.2597 22.0589 14.4517 22.5472 14.8214C22.8774 15.0715 23.3478 15.0065 23.5979 14.6763C23.8479 14.346 23.7829 13.8756 23.4527 13.6256C22.9409 13.2381 22.4997 12.9433 22.0264 12.7556C21.7683 12.6533 21.5142 12.5879 21.2499 12.5489V12Z" fill="#353566"/>
</svg>
