<svg width="24" height="24" viewBox="0 0 24 24" fill="none" xmlns="http://www.w3.org/2000/svg">
<path d="M9.19851 2.38033C9.92578 0.871599 12.0745 0.871593 12.8017 2.38033L14.9325 6.80063C14.9691 6.87665 15.0417 6.92906 15.1254 6.93998L20.0082 7.57713C20.9834 7.70438 21.6141 8.46448 21.7307 9.28395C21.789 9.69404 21.5039 10.0738 21.0938 10.1321C20.6837 10.1905 20.304 9.90532 20.2457 9.49523C20.2141 9.27334 20.0541 9.09584 19.8141 9.06452L14.9313 8.42737C14.3455 8.35093 13.8378 7.98412 13.5813 7.45197L11.4505 3.03167C11.2687 2.65448 10.7315 2.65448 10.5497 3.03167L8.41894 7.45197C8.16243 7.98412 7.65475 8.35093 7.06897 8.42737L2.18615 9.06452C1.76766 9.11913 1.60089 9.63567 1.90846 9.92468L5.46524 13.267C5.90005 13.6756 6.09672 14.2775 5.98702 14.864L5.09156 19.6511C5.01434 20.0639 5.4497 20.3822 5.81968 20.1834L10.1719 17.8452C10.6891 17.5673 11.3112 17.5673 11.8284 17.8452L13.302 18.6369C13.6669 18.8329 13.8038 19.2877 13.6077 19.6525C13.4117 20.0174 12.957 20.1543 12.5921 19.9583L11.1184 19.1665C11.0445 19.1268 10.9557 19.1268 10.8818 19.1665L6.52961 21.5048C5.04969 22.2999 3.30824 21.0266 3.61714 19.3753L4.51259 14.5882C4.52826 14.5044 4.50017 14.4185 4.43805 14.3601L0.881268 11.0178C-0.348975 9.86174 0.318077 7.79556 1.99207 7.57713L6.87489 6.93998C6.95857 6.92906 7.03109 6.87666 7.06774 6.80063L9.19851 2.38033Z" fill="#353566"/>
<path d="M18.9999 19.75C17.4588 19.75 16.0802 20.8117 15.7263 22.1869C15.623 22.5881 15.2141 22.8296 14.813 22.7263C14.4119 22.6231 14.1704 22.2142 14.2736 21.8131C14.8077 19.7379 16.8134 18.25 18.9999 18.25C21.1864 18.25 23.1921 19.7379 23.7263 21.8131C23.8295 22.2142 23.588 22.6231 23.1869 22.7263C22.7857 22.8296 22.3769 22.5881 22.2736 22.1869C21.9196 20.8117 20.5411 19.75 18.9999 19.75Z" fill="#353566"/>
<path fill-rule="evenodd" clip-rule="evenodd" d="M18.9999 11.25C17.343 11.25 15.9999 12.5931 15.9999 14.25C15.9999 15.9069 17.343 17.25 18.9999 17.25C20.6567 17.25 21.9999 15.9069 21.9999 14.25C21.9999 12.5931 20.6567 11.25 18.9999 11.25ZM17.4999 14.25C17.4999 13.4216 18.1715 12.75 18.9999 12.75C19.8283 12.75 20.4999 13.4216 20.4999 14.25C20.4999 15.0784 19.8283 15.75 18.9999 15.75C18.1715 15.75 17.4999 15.0784 17.4999 14.25Z" fill="#353566"/>
</svg>
