<svg width="24" height="24" viewBox="0 0 24 24" fill="none" xmlns="http://www.w3.org/2000/svg">
<path d="M9.19875 2.38033C9.92602 0.871599 12.0747 0.871593 12.802 2.38033L14.9327 6.80063C14.9694 6.87665 15.0419 6.92906 15.1256 6.93998L20.0084 7.57713C21.6824 7.79556 22.3495 9.86174 21.1192 11.0178L20.3906 11.7025C20.0888 11.9861 19.6141 11.9714 19.3305 11.6695C19.0468 11.3676 19.0616 10.893 19.3634 10.6094L20.092 9.92468C20.3996 9.63567 20.2328 9.11913 19.8143 9.06452L14.9315 8.42737C14.3457 8.35093 13.8381 7.98412 13.5815 7.45197L11.4508 3.03167C11.2689 2.65448 10.7318 2.65448 10.55 3.03167L8.41919 7.45197C8.16267 7.98412 7.65499 8.35093 7.06922 8.42737L2.1864 9.06452C1.7679 9.11913 1.60114 9.63567 1.9087 9.92468L5.46548 13.267C5.9003 13.6756 6.09697 14.2775 5.98726 14.864L5.09181 19.6511C5.01458 20.0639 5.44995 20.3822 5.81993 20.1834L10.1721 17.8452C10.6893 17.5673 11.3114 17.5673 11.8286 17.8452L12.3643 18.133C12.7291 18.329 12.866 18.7837 12.67 19.1486C12.4739 19.5135 12.0192 19.6504 11.6543 19.4543L11.1187 19.1665C11.0448 19.1268 10.9559 19.1268 10.882 19.1665L6.52985 21.5048C5.04993 22.2999 3.30849 21.0266 3.61738 19.3753L4.51283 14.5882C4.52851 14.5044 4.50041 14.4185 4.43829 14.3601L0.881512 11.0178C-0.348731 9.86174 0.318321 7.79556 1.99231 7.57713L6.87513 6.93998C6.95881 6.92906 7.03134 6.87666 7.06798 6.80063L9.19875 2.38033Z" fill="#353566"/>
<path d="M23.0001 18.25C23.4143 18.25 23.7501 17.9142 23.7501 17.5V16.5C23.7501 15.2574 22.7428 14.25 21.5001 14.25H17.3107L18.0304 13.5303C18.3233 13.2374 18.3233 12.7626 18.0304 12.4697C17.7375 12.1768 17.2626 12.1768 16.9697 12.4697L14.9697 14.4697C14.7552 14.6842 14.6911 15.0068 14.8072 15.287C14.9232 15.5673 15.1967 15.75 15.5001 15.75H21.5001C21.9143 15.75 22.2501 16.0858 22.2501 16.5V17.5C22.2501 17.9142 22.5859 18.25 23.0001 18.25Z" fill="#353566"/>
<path d="M14.2501 17.5C14.2501 17.0858 14.5859 16.75 15.0001 16.75C15.4143 16.75 15.7501 17.0858 15.7501 17.5V18.5C15.7501 18.9142 16.0859 19.25 16.5001 19.25H22.5001C22.8035 19.25 23.077 19.4327 23.193 19.713C23.3091 19.9933 23.2449 20.3158 23.0304 20.5303L21.0304 22.5303C20.7375 22.8232 20.2626 22.8232 19.9697 22.5303C19.6768 22.2374 19.6768 21.7626 19.9697 21.4697L20.6894 20.75H16.5001C15.2575 20.75 14.2501 19.7426 14.2501 18.5V17.5Z" fill="#353566"/>
</svg>
