<svg width="24" height="24" viewBox="0 0 24 24" fill="none" xmlns="http://www.w3.org/2000/svg">
<path d="M12.7499 1V5C12.7499 5.41421 12.4141 5.75 11.9999 5.75C11.5857 5.75 11.2499 5.41421 11.2499 5V1C11.2499 0.585786 11.5857 0.25 11.9999 0.25C12.4141 0.25 12.7499 0.585786 12.7499 1Z" fill="#353566"/>
<path d="M18.2499 9C18.2499 9.41421 18.5857 9.75 18.9999 9.75C19.4141 9.75 19.7499 9.41421 19.7499 9V4C19.7499 3.58579 19.4141 3.25 18.9999 3.25C18.5857 3.25 18.2499 3.58579 18.2499 4V9Z" fill="#353566"/>
<path fill-rule="evenodd" clip-rule="evenodd" d="M13.5762 8.04011C12.9399 6.72002 11.0599 6.72003 10.4235 8.04012L8.71905 11.5761C8.71173 11.5913 8.69724 11.6018 8.68053 11.6039L4.77455 12.1136C3.30987 12.3047 2.72622 14.1126 3.80264 15.1241L6.64786 17.7977C6.66027 17.8094 6.66589 17.8266 6.66275 17.8433L5.94644 21.6726C5.67617 23.1175 7.19988 24.2316 8.49475 23.5359L11.9763 21.6654C11.991 21.6575 12.0088 21.6575 12.0235 21.6654L15.505 23.5359C16.7999 24.2316 18.3236 23.1175 18.0533 21.6726L17.337 17.8433C17.3339 17.8266 17.3395 17.8094 17.3519 17.7977L20.1971 15.1241C21.2736 14.1126 20.6899 12.3047 19.2252 12.1136L15.3193 11.6039C15.3025 11.6018 15.288 11.5913 15.2807 11.5761L13.5762 8.04011ZM11.7748 8.69145C11.8656 8.50291 12.1341 8.50292 12.225 8.69145L13.9295 12.2274C14.1567 12.6988 14.6064 13.0236 15.1252 13.0913L19.0311 13.601C19.2403 13.6283 19.3237 13.8865 19.17 14.031L16.3247 16.7046C15.9396 17.0665 15.7654 17.5997 15.8626 18.1191L16.5789 21.9484C16.6175 22.1548 16.3999 22.3139 16.215 22.2146L12.7335 20.3441C12.2754 20.098 11.7244 20.098 11.2663 20.3441L7.78483 22.2146C7.59989 22.3139 7.38227 22.1548 7.42087 21.9484L8.13718 18.1191C8.23435 17.5997 8.06016 17.0665 7.67505 16.7046L4.82983 14.031C4.67609 13.8865 4.75945 13.6283 4.96864 13.601L8.87461 13.0913C9.39343 13.0236 9.84307 12.6988 10.0703 12.2274L11.7748 8.69145Z" fill="#353566"/>
<path d="M4.24988 9C4.24988 9.41421 4.58566 9.75 4.99988 9.75C5.41409 9.75 5.74988 9.41421 5.74988 9V4C5.74988 3.58579 5.41409 3.25 4.99988 3.25C4.58566 3.25 4.24988 3.58579 4.24988 4V9Z" fill="#353566"/>
</svg>
