<svg width="24" height="24" viewBox="0 0 24 24" fill="none" xmlns="http://www.w3.org/2000/svg">
<path fill-rule="evenodd" clip-rule="evenodd" d="M13.0696 1.92184C12.6378 1.02605 11.362 1.02606 10.9302 1.92184L10.2785 3.27388L8.78422 3.46886C7.79031 3.59855 7.39426 4.82532 8.1247 5.5117L9.20996 6.53152L8.93683 7.99169C8.75342 8.97215 9.78738 9.72817 10.6661 9.25608L11.9999 8.53946L13.3337 9.25608C14.2124 9.72816 15.2464 8.97215 15.063 7.99169L14.7898 6.53152L15.8751 5.5117C16.6055 4.82531 16.2095 3.59855 15.2156 3.46886L13.7213 3.27388L13.0696 1.92184ZM11.5357 4.12017L11.9999 3.15721L12.4641 4.12017C12.6253 4.45466 12.9444 4.68522 13.3126 4.73326L14.3667 4.87081L13.6031 5.58831C13.3298 5.84513 13.2062 6.22351 13.2751 6.59216L13.4685 7.6257L12.5205 7.11638C12.1954 6.94172 11.8044 6.94172 11.4793 7.11638L10.5313 7.6257L10.7246 6.59216C10.7936 6.22351 10.67 5.84513 10.3967 5.58831L9.63312 4.87081L10.6872 4.73326C11.0554 4.68522 11.3745 4.45466 11.5357 4.12017Z" fill="#353566"/>
<path fill-rule="evenodd" clip-rule="evenodd" d="M10.7554 22.4243C10.4511 22.322 10.1593 22.1891 9.76918 21.9975C9.61778 22.2455 9.40022 22.4475 9.13992 22.5801C8.92833 22.688 8.71676 22.723 8.53281 22.7381C8.36423 22.7519 8.16426 22.7518 7.95459 22.7518H7.79517C7.5855 22.7518 7.38553 22.7519 7.21695 22.7381C7.033 22.723 6.82144 22.688 6.60985 22.5801C6.31349 22.4291 6.07255 22.1882 5.92155 21.8918C5.81374 21.6803 5.77864 21.4687 5.76361 21.2847C5.74984 21.1162 5.74986 20.9162 5.74988 20.7065V16.1471C5.74986 15.9374 5.74984 15.7375 5.76361 15.5689C5.77864 15.3849 5.81374 15.1734 5.92155 14.9618C6.07255 14.6654 6.31349 14.4245 6.60985 14.2735C6.82144 14.1657 7.033 14.1306 7.21695 14.1155C7.38552 14.1018 7.58547 14.1018 7.79512 14.1018H7.9546C8.16425 14.1018 8.36424 14.1018 8.53281 14.1155C8.71676 14.1306 8.92833 14.1657 9.13992 14.2735C9.23685 14.3229 9.32786 14.3819 9.41174 14.4493L11.488 10.863C11.7076 10.4838 12.1129 10.2507 12.5511 10.2517C13.8774 10.2524 14.8718 11.4661 14.6116 12.7668L14.2898 14.3754H15.1604C15.5967 14.3754 15.9722 14.3754 16.2773 14.4021C16.5962 14.4301 16.9218 14.4923 17.2234 14.6702C17.6616 14.9287 17.9925 15.3358 18.156 15.8175C18.2685 16.1491 18.2628 16.4806 18.225 16.7984C18.1888 17.1026 18.1121 17.47 18.0229 17.8971L17.6404 19.7297C17.5538 20.1444 17.4806 20.4951 17.3984 20.7812C17.3119 21.0824 17.2025 21.3618 17.0196 21.6205C16.7368 22.0206 16.3495 22.3353 15.9 22.5303C15.6094 22.6563 15.3135 22.7063 15.001 22.7294C14.7041 22.7513 14.3459 22.7512 13.9222 22.7511L13.4687 22.751C12.7487 22.7508 12.3127 22.7507 11.8813 22.6903C11.4986 22.6366 11.1217 22.5476 10.7554 22.4243ZM12.6965 11.7695C12.9999 11.845 13.2054 12.1494 13.1408 12.4725L12.6395 14.9783C12.5954 15.1986 12.6524 15.4271 12.7949 15.6009C12.9373 15.7747 13.1502 15.8754 13.3749 15.8754H15.1287C15.6057 15.8754 15.9146 15.8761 16.1464 15.8964C16.3718 15.9162 16.4395 15.9493 16.4612 15.9621C16.5901 16.0382 16.6874 16.1579 16.7355 16.2996C16.7436 16.3235 16.7623 16.3965 16.7355 16.6212C16.708 16.8522 16.6456 17.1548 16.5481 17.6218L16.1774 19.3972C16.084 19.8448 16.0217 20.1408 15.9567 20.3672C15.8943 20.5845 15.8427 20.6867 15.7948 20.7546C15.6705 20.9303 15.5004 21.0685 15.303 21.1542C15.2268 21.1873 15.1162 21.2168 14.8907 21.2334C14.6557 21.2508 14.3533 21.2512 13.896 21.2511L13.5264 21.251C12.732 21.2508 12.4052 21.249 12.0895 21.2048C11.7987 21.164 11.5122 21.0964 11.2338 21.0027C10.9421 20.9045 10.6588 20.7662 9.99988 20.4369V16.4272L12.6965 11.7695ZM8.49988 16.2258L8.49988 16.2237V16.1718C8.49988 15.9284 8.4993 15.791 8.49113 15.691C8.48869 15.6612 8.48599 15.6419 8.4841 15.6308C8.48027 15.6259 8.47584 15.6214 8.47091 15.6176C8.45976 15.6157 8.44052 15.613 8.41067 15.6106C8.31072 15.6024 8.17328 15.6018 7.92988 15.6018H7.81988C7.57648 15.6018 7.43904 15.6024 7.3391 15.6106C7.30924 15.613 7.29 15.6157 7.27885 15.6176C7.27393 15.6214 7.2695 15.6259 7.26567 15.6308C7.26377 15.6419 7.26107 15.6612 7.25863 15.691C7.25046 15.791 7.24988 15.9284 7.24988 16.1718V20.6818C7.24988 20.9252 7.25046 21.0626 7.25863 21.1626C7.26107 21.1924 7.26377 21.2117 7.26567 21.2228C7.2695 21.2278 7.27393 21.2322 7.27885 21.236C7.29 21.2379 7.30924 21.2406 7.3391 21.2431C7.43904 21.2512 7.57648 21.2518 7.81988 21.2518H7.92988C8.17328 21.2518 8.31072 21.2512 8.41067 21.2431C8.44052 21.2406 8.45976 21.2379 8.47091 21.236C8.47584 21.2322 8.48027 21.2278 8.4841 21.2228C8.48599 21.2117 8.48869 21.1924 8.49113 21.1626C8.49899 21.0664 8.49983 20.9355 8.49988 20.7089V16.2258Z" fill="#353566"/>
<path fill-rule="evenodd" clip-rule="evenodd" d="M18.9865 5.88648C19.3956 5.03784 20.6042 5.03784 21.0133 5.88648L21.5467 6.99315L22.77 7.15278C23.7116 7.27565 24.0869 8.43785 23.3949 9.08811L22.5074 9.92209L22.7307 11.116C22.9044 12.0449 21.9249 12.7611 21.0925 12.3139L19.9999 11.7269L18.9073 12.3139C18.0749 12.7611 17.0953 12.0449 17.2691 11.116L17.4924 9.92209L16.6049 9.08811C15.9129 8.43785 16.2881 7.27565 17.2297 7.15278L18.453 6.99315L18.9865 5.88648ZM19.9999 7.23864L19.6985 7.86382C19.5446 8.1831 19.24 8.40318 18.8886 8.44904L18.2096 8.53764L18.6991 8.99762C18.96 9.24277 19.078 9.60394 19.0121 9.95583L18.8876 10.6217L19.503 10.2911C19.8133 10.1244 20.1865 10.1244 20.4968 10.2911L21.1122 10.6217L20.9876 9.95583C20.9218 9.60394 21.0398 9.24277 21.3007 8.99762L21.7902 8.53764L21.1112 8.44904C20.7598 8.40318 20.4552 8.1831 20.3013 7.86382L19.9999 7.23864Z" fill="#353566"/>
<path fill-rule="evenodd" clip-rule="evenodd" d="M5.01327 5.88648C4.60419 5.03784 3.39559 5.03784 2.98651 5.88648L2.45305 6.99315L1.22974 7.15278C0.288139 7.27565 -0.0870679 8.43785 0.604927 9.08811L1.49243 9.92209L1.26909 11.116C1.09534 12.0449 2.07488 12.7611 2.90731 12.3139L3.99989 11.7269L5.09247 12.3139C5.9249 12.7611 6.90444 12.0449 6.73069 11.116L6.50735 9.92209L7.39486 9.08811C8.08685 8.43785 7.71164 7.27565 6.77005 7.15278L5.54673 6.99315L5.01327 5.88648ZM3.69853 7.86382L3.99989 7.23864L4.30125 7.86382C4.45516 8.1831 4.75976 8.40318 5.11122 8.44904L5.79021 8.53764L5.30071 8.99762C5.03983 9.24277 4.92183 9.60394 4.98765 9.95583L5.11221 10.6217L4.49683 10.2911C4.18651 10.1244 3.81327 10.1244 3.50295 10.2911L2.88758 10.6217L3.01213 9.95583C3.07796 9.60394 2.95996 9.24277 2.69907 8.99762L2.20958 8.53764L2.88856 8.44904C3.24002 8.40318 3.54463 8.1831 3.69853 7.86382Z" fill="#353566"/>
</svg>
