<svg width="24" height="24" viewBox="0 0 24 24" fill="none" xmlns="http://www.w3.org/2000/svg">
<path opacity="0.4" d="M22.7495 15C22.7495 10.7198 19.2797 7.25 14.9995 7.25C10.7193 7.25 7.24951 10.7198 7.24951 15C7.24951 19.2802 10.7193 22.75 14.9995 22.75C19.2797 22.75 22.7495 19.2802 22.7495 15Z" fill="#353566"/>
<path d="M16.2813 1.7855C16.3998 1.38859 16.8176 1.16287 17.2145 1.28135C19.929 2.0916 22.156 4.1536 22.7379 7.36635C22.7866 7.63477 22.6856 7.90842 22.4743 8.08095C22.263 8.25348 21.9747 8.29768 21.7214 8.19637L19.2214 7.19637C18.8368 7.04254 18.6498 6.60606 18.8036 6.22147C18.9574 5.83688 19.3939 5.64982 19.7785 5.80366L20.8482 6.23155C20.0896 4.43873 18.5925 3.25806 16.7854 2.71868C16.3885 2.60021 16.1628 2.18241 16.2813 1.7855Z" fill="#353566"/>
<path d="M7.71871 22.2146C7.60024 22.6115 7.18244 22.8372 6.78553 22.7188C4.07103 21.9085 1.84396 19.8465 1.26205 16.6338C1.21344 16.3654 1.3144 16.0917 1.5257 15.9192C1.737 15.7466 2.02531 15.7024 2.27859 15.8038L4.77859 16.8038C5.16318 16.9576 5.35024 17.3941 5.1964 17.7787C5.04257 18.1632 4.60609 18.3503 4.2215 18.1965L3.15178 17.7686C3.9104 19.5614 5.40753 20.7421 7.21456 21.2814C7.61147 21.3999 7.83719 21.8177 7.71871 22.2146Z" fill="#353566"/>
<path d="M7.24939 15.0001C7.24939 15.544 7.30543 16.0749 7.41206 16.5872C3.89351 15.8546 1.25 12.736 1.25 9.00006C1.25 4.71985 4.71979 1.25006 9 1.25006C12.7362 1.25006 15.855 3.89395 16.5873 7.41289C16.0748 7.30616 15.5436 7.25006 14.9994 7.25006C10.7192 7.25006 7.24939 10.7199 7.24939 15.0001Z" fill="#353566"/>
<path d="M18.0303 18.0303C17.7374 18.3232 17.2626 18.3232 16.9697 18.0303L15 16.0606L13.0303 18.0303C12.7374 18.3232 12.2626 18.3232 11.9697 18.0303C11.6768 17.7374 11.6768 17.2625 11.9697 16.9696L13.9393 14.9999L11.9697 13.0303C11.6768 12.7374 11.6768 12.2625 11.9697 11.9696C12.2626 11.6768 12.7375 11.6768 13.0304 11.9696L15 13.9393L16.9696 11.9696C17.2625 11.6767 17.7374 11.6767 18.0303 11.9696C18.3232 12.2625 18.3232 12.7374 18.0303 13.0303L16.0607 14.9999L18.0303 16.9696C18.3232 17.2625 18.3232 17.7374 18.0303 18.0303Z" fill="#353566"/>
</svg>
