<svg width="24" height="24" viewBox="0 0 24 24" fill="none" xmlns="http://www.w3.org/2000/svg">
<g opacity="0.4">
<path d="M15.75 6.00003C15.75 6.33044 15.7009 6.64772 15.61 6.95015C15.6981 6.8272 15.75 6.6765 15.75 6.51368L15.75 6.00003Z" fill="#353566"/>
<path d="M1.25 6.018V14.1176C1.25 15.3225 1.93651 16.3474 2.91098 17.0952C3.88766 17.8447 5.21554 18.3721 6.69642 18.6088C7.10543 18.6742 7.49002 18.3957 7.55542 17.9866C7.62082 17.5776 7.34226 17.193 6.93324 17.1276C5.6412 16.9211 4.56167 16.4711 3.82417 15.9052C3.08445 15.3376 2.75 14.7088 2.75 14.1176V12.967C2.7841 12.9952 2.81861 13.023 2.8535 13.0505C3.79827 13.7946 5.0842 14.3254 6.52207 14.5795C6.92997 14.6516 7.31907 14.3794 7.39116 13.9715C7.46325 13.5636 7.19102 13.1745 6.78313 13.1024C5.53105 12.8811 4.49067 12.4306 3.78163 11.8721C3.07128 11.3126 2.75 10.6975 2.75 10.1176V8.91755C1.85745 8.15935 1.2562 7.16881 1.25 6.018Z" fill="#353566"/>
<path d="M22.5 15.5001C22.5 11.6341 19.366 8.50006 15.5 8.50006C11.634 8.50006 8.5 11.6341 8.5 15.5001C8.5 19.3661 11.634 22.5001 15.5 22.5001C19.366 22.5001 22.5 19.3661 22.5 15.5001Z" fill="#353566"/>
</g>
<path d="M3.51073 2.53283C4.82326 1.72512 6.58913 1.25 8.5 1.25C10.4109 1.25 12.1767 1.72512 13.4893 2.53283C14.7897 3.33307 15.75 4.53785 15.75 6C15.75 6.22763 15.7262 6.45166 15.6803 6.67061C15.611 7.00137 15.329 7.2449 14.9917 7.26538C12.5436 7.41397 10.3827 8.63036 8.96941 10.4581C8.82552 10.6442 8.60267 10.7519 8.36747 10.7492C6.48662 10.7276 4.75281 10.2453 3.4652 9.4389C2.18868 8.63941 1.25 7.44516 1.25 6C1.25 4.53785 2.21034 3.33307 3.51073 2.53283Z" fill="#353566"/>
<path d="M14.75 11.8172V11.5C14.75 11.0858 15.0858 10.75 15.5 10.75C15.9142 10.75 16.25 11.0858 16.25 11.5V11.8123C16.4266 11.8459 16.6003 11.8952 16.7765 11.9651C17.1747 12.123 17.541 12.3691 17.9527 12.6809C18.283 12.931 18.348 13.4014 18.0979 13.7316C17.8479 14.0618 17.3775 14.1268 17.0472 13.8768C16.659 13.5828 16.4252 13.4394 16.2235 13.3594C16.0392 13.2863 15.8406 13.25 15.5 13.25C15.0065 13.25 14.6757 13.3669 14.4899 13.5015C14.3265 13.6199 14.25 13.7643 14.25 13.9654C14.25 14.2016 14.3409 14.3313 14.5663 14.4575C14.8391 14.6102 15.2185 14.6927 15.6233 14.7602C16.0185 14.8261 16.6391 14.9385 17.1663 15.2336C17.7409 15.5553 18.25 16.1262 18.25 17.0346C18.25 17.7364 17.9265 18.3247 17.3899 18.7133C17.0626 18.9503 16.6725 19.1031 16.25 19.1828V19.5C16.25 19.9142 15.9142 20.25 15.5 20.25C15.0858 20.25 14.75 19.9142 14.75 19.5V19.1877C14.5734 19.1541 14.3997 19.1048 14.2235 19.0349C13.8252 18.8769 13.4589 18.6308 13.0472 18.3191C12.717 18.069 12.652 17.5986 12.9021 17.2684C13.1521 16.9382 13.6225 16.8732 13.9527 17.1232C14.341 17.4172 14.5747 17.5605 14.7765 17.6406C14.9608 17.7137 15.1594 17.75 15.5 17.75C15.9935 17.75 16.3242 17.6331 16.5101 17.4985C16.6734 17.3801 16.75 17.2357 16.75 17.0346C16.75 16.7984 16.6591 16.6687 16.4336 16.5425C16.1608 16.3898 15.7814 16.3073 15.3767 16.2398C14.9814 16.1739 14.3608 16.0615 13.8336 15.7664C13.2591 15.4447 12.75 14.8738 12.75 13.9654C12.75 13.2636 13.0734 12.6753 13.6101 12.2867C13.9373 12.0497 14.3274 11.8969 14.75 11.8172Z" fill="#353566"/>
</svg>
