<svg width="24" height="24" viewBox="0 0 24 24" fill="none" xmlns="http://www.w3.org/2000/svg">
<g clip-path="url(#clip0_9001_297691)">
<path opacity="0.4" d="M18.2321 4.75H7.7679C6.95506 4.74999 6.29944 4.74999 5.76853 4.79336C5.2219 4.83803 4.74175 4.93239 4.29754 5.15873C3.59193 5.51825 3.01825 6.09193 2.65873 6.79754C2.43239 7.24175 2.33803 7.7219 2.29336 8.26853C2.24999 8.79944 2.24999 9.45505 2.25 10.2679V15.2171C2.25 15.5205 2.43275 15.794 2.71303 15.9101C2.99331 16.0262 3.31591 15.962 3.5304 15.7474L6.65897 12.6181C6.90172 12.3743 7.09508 12.1843 7.30658 12.0372C8.33593 11.3212 9.70197 11.3209 10.7316 12.0365C11.1839 12.3508 11.6481 12.8147 11.9626 13.2668C12.6789 14.2963 12.6791 15.6627 11.9633 16.6925C11.8316 16.882 11.6542 17.0707 11.3855 17.3373L11.3834 17.3394L8.25369 20.4697C8.03922 20.6842 7.97508 21.0068 8.09118 21.287C8.20727 21.5673 8.48074 21.75 8.78407 21.75H18.2321C19.045 21.75 19.7006 21.75 20.2315 21.7066C20.7781 21.662 21.2582 21.5676 21.7025 21.3413C22.4081 20.9818 22.9817 20.4081 23.3413 19.7025C23.5676 19.2582 23.662 18.7781 23.7066 18.2315C23.75 17.7006 23.75 17.045 23.75 16.2321V10.2679C23.75 9.45505 23.75 8.79944 23.7066 8.26853C23.662 7.7219 23.5676 7.24175 23.3413 6.79754C22.9817 6.09193 22.4081 5.51825 21.7025 5.15873C21.2582 4.93239 20.7781 4.83803 20.2315 4.79336C19.7006 4.74999 19.0449 4.74999 18.2321 4.75Z" fill="#353566"/>
<path d="M17.0726 0.359402C17.4923 0.254752 17.9138 0.19813 18.3377 0.30064C18.9625 0.451727 19.5051 0.837671 19.8528 1.37832C20.0887 1.74513 20.1735 2.16184 20.2123 2.59262C20.2501 3.01224 20.2501 3.53805 20.2501 4.17162V4.7953L20.2315 4.79376C19.7006 4.75039 19.045 4.75039 18.2322 4.7504H7.76793C6.9551 4.75039 6.29947 4.75039 5.76856 4.79376C5.22193 4.83842 4.74179 4.93278 4.29757 5.15912C3.59196 5.51863 3.01828 6.0923 2.65876 6.79789C2.43242 7.2421 2.33806 7.72223 2.2934 8.26886C2.25429 8.74753 2.25044 9.32756 2.25007 10.0328L2.25003 9.82799C2.24959 8.54501 2.24929 7.69438 2.53916 6.94916C2.79449 6.29278 3.20893 5.71013 3.74524 5.25362C4.35413 4.73532 5.15779 4.45654 6.36993 4.03608L15.5686 0.84169C16.1671 0.63384 16.6638 0.461339 17.0726 0.359402Z" fill="#353566"/>
<path d="M18.0001 13.2505C18.0001 12.6982 18.4478 12.2505 19.0001 12.2505C19.5524 12.2505 20.0002 12.6982 20.0002 13.2505C20.0002 13.8028 19.5525 14.2505 19.0002 14.2505C18.4479 14.2505 18.0001 13.8028 18.0001 13.2505Z" fill="#353566"/>
<path d="M10.0182 13.0644C9.41761 12.647 8.62075 12.6472 8.0203 13.0648C7.892 13.154 7.76589 13.2802 7.5629 13.4833L6.99175 14.0546C6.79653 14.2499 6.79655 14.5664 6.99179 14.7617L9.2398 17.0097C9.43507 17.2049 9.75168 17.2049 9.94694 17.0096L10.5184 16.4381C10.7215 16.235 10.8477 16.1088 10.9369 15.9805C11.3545 15.3798 11.3543 14.5827 10.9365 13.9822C10.8472 13.8538 10.721 13.7277 10.5178 13.5247L10.4758 13.4827C10.2727 13.2797 10.1466 13.1536 10.0182 13.0644Z" fill="#353566"/>
<path d="M5.57771 15.469C5.77297 15.2737 6.08958 15.2737 6.28486 15.469L8.53282 17.7169C8.72807 17.9122 8.72809 18.2287 8.53286 18.424L4.55398 22.4036C4.52074 22.4369 4.47881 22.4601 4.43299 22.4706L1.05582 23.244C0.971916 23.2632 0.884032 23.2379 0.823185 23.177C0.762338 23.1162 0.737085 23.0283 0.756341 22.9444L1.53066 19.571C1.54116 19.5253 1.56433 19.4834 1.59752 19.4502L5.57771 15.469Z" fill="#353566"/>
</g>
<defs>
<clipPath id="clip0_9001_297691">
<rect width="24" height="24" fill="white"/>
</clipPath>
</defs>
</svg>
