<svg width="24" height="24" viewBox="0 0 24 24" fill="none" xmlns="http://www.w3.org/2000/svg">
<path opacity="0.4" d="M23.249 10.299V16.199C23.249 17.997 23.249 18.9 22.84 19.702C22.478 20.412 21.912 20.978 21.201 21.341C20.399 21.75 19.497 21.75 17.699 21.75H9.861C9.628 21.75 9.409 21.642 9.267 21.458C9.125 21.274 9.077 21.034 9.136 20.809C9.212 20.524 9.25 20.225 9.25 19.919C9.25 19.168 8.996 18.475 8.426 17.673C8.218 17.381 8.246 16.983 8.493 16.723C8.493 16.722 8.599 16.611 8.601 16.609C8.703 16.503 8.807 16.398 8.895 16.28C9.177 15.907 9.297 15.447 9.233 14.984C9.169 14.521 8.929 14.11 8.556 13.828C8.038 13.436 7.546 13.129 7.053 12.888C6.889 12.808 6.76 12.671 6.689 12.502C6.532 12.126 6.053 11.25 5 11.25C3.947 11.25 3.471 12.121 3.313 12.496C3.24 12.668 3.106 12.807 2.938 12.885L2.842 12.932C2.61 13.051 2.332 13.04 2.109 12.904C1.886 12.768 1.75 12.526 1.75 12.264V10.3C1.75 8.503 1.75 7.6 2.158 6.798C2.52 6.087 3.087 5.521 3.797 5.158C4.6 4.75 5.502 4.75 7.299 4.75H17.699C19.497 4.75 20.4 4.75 21.201 5.158C21.911 5.52 22.478 6.087 22.84 6.797C23.249 7.599 23.249 8.502 23.249 10.299Z" fill="#353566"/>
<path d="M16.5726 0.358914C16.9923 0.254264 17.4138 0.197642 17.8377 0.300152C18.4625 0.451239 19.0051 0.837183 19.3528 1.37783C19.5887 1.74465 19.6735 2.16135 19.7123 2.59213C19.7501 3.01175 19.7501 3.53756 19.7501 4.17113V4.79481L19.7315 4.79327C19.2006 4.7499 18.545 4.7499 17.7322 4.74991H7.26793C6.4551 4.7499 5.79947 4.7499 5.26856 4.79327C4.72193 4.83793 4.24179 4.93229 3.79757 5.15863C3.09196 5.51815 2.51828 6.09181 2.15876 6.79741C1.93242 7.24161 1.83806 7.72175 1.7934 8.26837C1.75429 8.74704 1.75044 9.32708 1.75007 10.0323L1.75003 9.82751C1.74959 8.54452 1.74929 7.69389 2.03916 6.94867C2.29449 6.29229 2.70893 5.70964 3.24524 5.25313C3.85413 4.73483 4.6578 4.45605 5.86993 4.03559L15.0686 0.841202C15.6671 0.633352 16.1638 0.460851 16.5726 0.358914Z" fill="#353566"/>
<path d="M17.5001 13.25C17.5001 12.6977 17.9478 12.25 18.5001 12.25C19.0524 12.25 19.5002 12.6977 19.5002 13.25C19.5002 13.8023 19.0525 14.25 18.5002 14.25C17.9479 14.25 17.5001 13.8023 17.5001 13.25Z" fill="#353566"/>
<path d="M5.75004 13C5.75004 12.5858 5.41426 12.25 5.00004 12.25C4.58583 12.25 4.25004 12.5858 4.25004 13V13.5548C3.68463 13.6408 3.16891 13.8301 2.74762 14.1352C2.12349 14.5872 1.75004 15.267 1.75004 16.0817C1.75004 17.1332 2.33412 17.7917 3.0087 18.1693C3.63589 18.5204 4.38151 18.6572 4.87674 18.7398C5.38151 18.8239 5.88589 18.9308 6.2587 19.1395C6.58412 19.3217 6.75005 19.539 6.75005 19.9183C6.75005 20.2322 6.62349 20.4682 6.37262 20.6499C6.09928 20.8479 5.64353 21 5.00004 21C4.55943 21 4.28582 20.9528 4.02657 20.85C3.7498 20.7402 3.44107 20.5482 2.9528 20.1785C2.62257 19.9284 2.15217 19.9934 1.90212 20.3236C1.65207 20.6539 1.71706 21.1243 2.04729 21.3743C2.55901 21.7618 3.00028 22.0566 3.47351 22.2443C3.73161 22.3467 3.98573 22.4121 4.25004 22.4511V23C4.25004 23.4142 4.58583 23.75 5.00004 23.75C5.41426 23.75 5.75004 23.4142 5.75004 23V22.4452C6.31545 22.3592 6.83117 22.1699 7.25247 21.8648C7.8766 21.4128 8.25005 20.7329 8.25005 19.9183C8.25005 18.8667 7.66597 18.2083 6.99139 17.8306C6.3642 17.4795 5.61858 17.3427 5.12334 17.2602C4.61858 17.1761 4.1142 17.0691 3.74138 16.8604C3.41596 16.6783 3.25004 16.461 3.25004 16.0817C3.25004 15.7677 3.37659 15.5317 3.62746 15.35C3.9008 15.1521 4.35655 15 5.00004 15C5.44067 15 5.71429 15.0471 5.97353 15.15C6.2503 15.2597 6.55902 15.4517 7.04729 15.8214C7.37752 16.0715 7.84792 16.0065 8.09797 15.6763C8.34802 15.346 8.28303 14.8756 7.9528 14.6256C7.44107 14.2381 6.99979 13.9433 6.52655 13.7556C6.26846 13.6533 6.01435 13.5879 5.75004 13.5489V13Z" fill="#353566"/>
</svg>
