<svg width="24" height="24" viewBox="0 0 24 24" fill="none" xmlns="http://www.w3.org/2000/svg">
<path d="M0.5 4.12132C0.5 2.6736 1.67361 1.5 3.12132 1.5H18.8787C20.3264 1.5 21.5 2.6736 21.5 4.12132C21.5 4.81654 21.2238 5.48328 20.7322 5.97487L20.5942 6.1129C20.3989 6.30816 20.0824 6.30816 19.8871 6.1129C19.6918 5.91764 19.6918 5.60106 19.8871 5.4058L20.0251 5.26777C20.3292 4.96371 20.5 4.55132 20.5 4.12132C20.5 3.22589 19.7741 2.5 18.8787 2.5H3.12132C2.22589 2.5 1.5 3.22589 1.5 4.12132C1.5 4.55132 1.67082 4.96371 1.97487 5.26777L8.41421 11.7071C8.78929 12.0822 9 12.5909 9 13.1213V17.5194C9 17.6713 9.06905 17.8149 9.18765 17.9098L13 20.9597V15.8687C13 15.5926 13.2239 15.3687 13.5 15.3687C13.7761 15.3687 14 15.5926 14 15.8687V22C14 22.1922 13.8898 22.3674 13.7166 22.4507C13.5434 22.5339 13.3377 22.5105 13.1877 22.3904L8.56296 18.6907C8.20713 18.406 8 17.9751 8 17.5194V13.1213C8 12.8561 7.89464 12.6017 7.70711 12.4142L1.26777 5.97487C0.776174 5.48328 0.5 4.81654 0.5 4.12132Z" fill="#353566"/>
<path d="M23 12C23.2761 12 23.5 11.7761 23.5 11.5V10.5C23.5 9.39543 22.6046 8.5 21.5 8.5H16.707L17.8535 7.35355C18.0488 7.15829 18.0488 6.84171 17.8535 6.64645C17.6582 6.45118 17.3416 6.45118 17.1464 6.64645L15.1464 8.64645C15.0034 8.78945 14.9606 9.0045 15.038 9.19134C15.1154 9.37818 15.2977 9.5 15.4999 9.5H21.5C22.0523 9.5 22.5 9.94771 22.5 10.5V11.5C22.5 11.7761 22.7239 12 23 12Z" fill="#353566"/>
<path d="M14.5 12.5V11.5C14.5 11.2239 14.7239 11 15 11C15.2761 11 15.5 11.2239 15.5 11.5V12.5C15.5 13.0523 15.9477 13.5 16.5 13.5H22.5C22.7022 13.5 22.8846 13.6218 22.9619 13.8087C23.0393 13.9955 22.9965 14.2106 22.8535 14.3536L20.8535 16.3536C20.6582 16.5488 20.3416 16.5488 20.1464 16.3535C19.9511 16.1583 19.9511 15.8417 20.1464 15.6464L21.2929 14.5H16.5C15.3954 14.5 14.5 13.6046 14.5 12.5Z" fill="#353566"/>
</svg>
