<svg width="24" height="24" viewBox="0 0 24 24" fill="none" xmlns="http://www.w3.org/2000/svg">
<path d="M3.12132 1.5C1.67361 1.5 0.5 2.6736 0.5 4.12132C0.5 4.81654 0.776174 5.48328 1.26777 5.97487L7.70711 12.4142C7.89464 12.6017 8 12.8561 8 13.1213V17.5194C8 17.9751 8.20713 18.406 8.56296 18.6907L13.1877 22.3904C13.3377 22.5105 13.5434 22.5339 13.7166 22.4507C13.8898 22.3674 14 22.1922 14 22V15.3885C14 15.1123 13.7761 14.8885 13.5 14.8885C13.2239 14.8885 13 15.1123 13 15.3885V20.9597L9.18765 17.9098C9.06905 17.8149 9 17.6713 9 17.5194V13.1213C9 12.5909 8.78929 12.0822 8.41421 11.7071L1.97487 5.26777C1.67082 4.96371 1.5 4.55132 1.5 4.12132C1.5 3.22589 2.22589 2.5 3.12132 2.5H18.8787C19.4803 2.5 20.006 2.82742 20.2864 3.31618C20.4238 3.55571 20.7293 3.63852 20.9689 3.50112C21.2084 3.36373 21.2912 3.05817 21.1538 2.81863C20.7025 2.03183 19.853 1.5 18.8787 1.5H3.12132Z" fill="#353566"/>
<path fill-rule="evenodd" clip-rule="evenodd" d="M14.5 9C13.3954 9 12.5 9.89543 12.5 11C12.5 12.1046 13.3954 13 14.5 13C15.0174 13 15.4888 12.8036 15.8439 12.4812L19.509 14.3138C19.5034 14.3751 19.5005 14.4372 19.5005 14.5C19.5005 15.6046 20.3959 16.5 21.5005 16.5C22.6051 16.5 23.5005 15.6046 23.5005 14.5C23.5005 13.3954 22.6051 12.5 21.5005 12.5C20.8165 12.5 20.2126 12.8434 19.852 13.3672L16.3957 11.6391C16.4633 11.4384 16.5 11.2235 16.5 11C16.5 10.7765 16.4633 10.5616 16.3957 10.3609L19.852 8.63278C20.2126 9.15659 20.8165 9.5 21.5005 9.5C22.6051 9.5 23.5005 8.60457 23.5005 7.5C23.5005 6.39543 22.6051 5.5 21.5005 5.5C20.3959 5.5 19.5005 6.39543 19.5005 7.5C19.5005 7.56279 19.5034 7.62491 19.509 7.68622L15.8439 9.51879C15.4888 9.19644 15.0174 9 14.5 9ZM13.5 11C13.5 10.4477 13.9477 10 14.5 10C15.0523 10 15.5 10.4477 15.5 11C15.5 11.5523 15.0523 12 14.5 12C13.9477 12 13.5 11.5523 13.5 11ZM21.5005 6.5C20.9482 6.5 20.5005 6.94771 20.5005 7.5C20.5005 8.05228 20.9482 8.5 21.5005 8.5C22.0528 8.5 22.5005 8.05228 22.5005 7.5C22.5005 6.94771 22.0528 6.5 21.5005 6.5ZM20.5005 14.5C20.5005 13.9477 20.9482 13.5 21.5005 13.5C22.0528 13.5 22.5005 13.9477 22.5005 14.5C22.5005 15.0523 22.0528 15.5 21.5005 15.5C20.9482 15.5 20.5005 15.0523 20.5005 14.5Z" fill="#353566"/>
</svg>
