<svg width="24" height="24" viewBox="0 0 24 24" fill="none" xmlns="http://www.w3.org/2000/svg">
<path d="M1.5 18C1.5 18.2761 1.72386 18.5 2 18.5H22C22.2761 18.5 22.5 18.2761 22.5 18C22.5 17.7239 22.2761 17.5 22 17.5H2C1.72386 17.5 1.5 17.7239 1.5 18Z" fill="#353566"/>
<path d="M8.5 6C8.5 6.27614 8.72386 6.5 9 6.5H15C15.2761 6.5 15.5 6.27614 15.5 6C15.5 5.72386 15.2761 5.5 15 5.5H9C8.72386 5.5 8.5 5.72386 8.5 6Z" fill="#353566"/>
<path d="M5.5 12.5C5.22386 12.5 5 12.2761 5 12C5 11.7239 5.22386 11.5 5.5 11.5H18.5C18.7761 11.5 19 11.7239 19 12C19 12.2761 18.7761 12.5 18.5 12.5H5.5Z" fill="#353566"/>
</svg>
