<svg width="24" height="24" viewBox="0 0 24 24" fill="none" xmlns="http://www.w3.org/2000/svg">
<path d="M2.5 4C2.5 3.17157 3.17157 2.5 4 2.5H20C20.8284 2.5 21.5 3.17157 21.5 4V6C21.5 6.27614 21.2761 6.5 21 6.5C20.7239 6.5 20.5 6.27614 20.5 6V4C20.5 3.72386 20.2761 3.5 20 3.5H12.5L12.5 20.5H16C16.2761 20.5 16.5 20.7239 16.5 21C16.5 21.2761 16.2761 21.5 16 21.5H8C7.72386 21.5 7.5 21.2761 7.5 21C7.5 20.7239 7.72386 20.5 8 20.5H11.5L11.5 3.5H4C3.72386 3.5 3.5 3.72386 3.5 4V6C3.5 6.27614 3.27614 6.5 3 6.5C2.72386 6.5 2.5 6.27614 2.5 6V4Z" fill="#353566"/>
</svg>
