<svg width="24" height="24" viewBox="0 0 24 24" fill="none" xmlns="http://www.w3.org/2000/svg">
<path d="M7 12C7 10.0632 7.30407 8.35913 7.81432 7.16901C8.3437 5.93427 8.96876 5.5 9.5 5.5C10.0312 5.5 10.6563 5.93427 11.1857 7.16901C11.6959 8.35913 12 10.0632 12 12C12 13.9368 11.6959 15.6409 11.1857 16.831C10.6563 18.0657 10.0312 18.5 9.5 18.5C8.96876 18.5 8.3437 18.0657 7.81432 16.831C7.30407 15.6409 7 13.9368 7 12Z" fill="#353566"/>
<path fill-rule="evenodd" clip-rule="evenodd" d="M4.61424 4.54306C5.77213 2.61325 7.4762 1.25 9.5 1.25C9.52714 1.25 9.55422 1.25025 9.58125 1.25073L14.4999 1.25C16.5237 1.25 18.2278 2.61325 19.3857 4.54306C20.5516 6.48613 21.2488 9.12148 21.25 11.9926L21.25 12L21.25 12.0074C21.2488 14.8785 20.5516 17.5139 19.3857 19.4569C18.2278 21.3867 16.5238 22.75 14.5 22.75H9.5C7.4762 22.75 5.77212 21.3867 4.61424 19.4569C3.4474 17.5122 2.75 14.874 2.75 12C2.75 9.12602 3.4474 6.4878 4.61424 4.54306ZM19.7326 11.25C19.6646 9.78934 19.3999 8.43209 18.9901 7.25H15.5675C15.9416 8.4748 16.1735 9.82753 16.2341 11.25H19.7326ZM18.0995 5.3148C18.1837 5.45512 18.2653 5.60027 18.3443 5.75H15.0103C14.8209 5.32381 14.6122 4.92038 14.3858 4.54306C13.9781 3.86363 13.5027 3.25443 12.9696 2.75023L14.5001 2.75C15.79 2.75005 17.0858 3.62537 18.0995 5.3148ZM16.2341 12.75H19.7326C19.6646 14.2107 19.3999 15.5679 18.9901 16.75H15.5675C15.9416 15.5252 16.1735 14.1725 16.2341 12.75ZM12.9693 21.25H14.5C15.7899 21.25 17.0858 20.3747 18.0995 18.6852C18.1837 18.5449 18.2653 18.3997 18.3443 18.25H15.0103C14.8209 18.6762 14.6122 19.0796 14.3858 19.4569C13.978 20.1365 13.5026 20.7457 12.9693 21.25ZM9.5 4C8.03124 4 7.0313 5.1887 6.43568 6.57794C5.82093 8.0118 5.5 9.93278 5.5 12C5.5 14.0672 5.82093 15.9882 6.43568 17.4221C7.0313 18.8113 8.03124 20 9.5 20C10.9688 20 11.9687 18.8113 12.5643 17.4221C13.1791 15.9882 13.5 14.0672 13.5 12C13.5 9.93278 13.1791 8.0118 12.5643 6.57794C11.9687 5.1887 10.9688 4 9.5 4Z" fill="#353566"/>
</svg>
