<svg width="24" height="24" viewBox="0 0 24 24" fill="none" xmlns="http://www.w3.org/2000/svg">
<path fill-rule="evenodd" clip-rule="evenodd" d="M2.53033 1.46967C2.23744 1.17678 1.76256 1.17678 1.46967 1.46967C1.17678 1.76256 1.17678 2.23744 1.46967 2.53033L2.80191 3.86257C2.12517 4.27151 1.57404 4.8624 1.21322 5.57054C0.959634 6.06824 0.851651 6.61012 0.800176 7.24014C0.749989 7.8544 0.749994 8.61494 0.75 9.56738V14.4326C0.749994 15.3851 0.749989 16.1456 0.800176 16.7599C0.851651 17.3899 0.959634 17.9318 1.21322 18.4295C1.62069 19.2292 2.27085 19.8793 3.07054 20.2868C3.56824 20.5404 4.11012 20.6484 4.74014 20.6998C5.35438 20.75 6.1149 20.75 7.06731 20.75L16.9942 20.75C18.0758 20.7501 18.9212 20.7501 19.6036 20.6643L21.4697 22.5303C21.7626 22.8232 22.2374 22.8232 22.5303 22.5303C22.8232 22.2374 22.8232 21.7626 22.5303 21.4697L20.3952 19.3345C20.3946 19.3339 20.394 19.3333 20.3934 19.3327L4.66729 3.60663C4.66699 3.60633 4.66669 3.60603 4.66639 3.60573L2.53033 1.46967ZM9.05198 10.1126L13.8874 14.948C13.3428 15.2974 12.6951 15.5 12 15.5C10.067 15.5 8.50001 13.933 8.50001 12C8.50001 11.305 8.70261 10.6572 9.05198 10.1126Z" fill="#353566"/>
<path fill-rule="evenodd" clip-rule="evenodd" d="M22.7746 18.4532L22.7868 18.4295C23.0404 17.9318 23.1484 17.3899 23.1998 16.7599C23.25 16.1456 23.25 15.3851 23.25 14.4327V9.56737C23.25 8.61497 23.25 7.85438 23.1998 7.24014C23.1484 6.61012 23.0404 6.06824 22.7868 5.57054C22.3793 4.77085 21.7292 4.12069 20.9295 3.71322C20.4318 3.45963 19.8899 3.35165 19.2599 3.30018C18.6456 3.24999 17.8851 3.24999 16.9327 3.25H8.00001C7.69666 3.25 7.42318 3.43273 7.3071 3.71299C7.19101 3.99324 7.25518 4.31583 7.46967 4.53033L21.5782 18.6388C21.7474 18.808 21.9871 18.8863 22.2235 18.8496C22.4599 18.813 22.6646 18.6657 22.7746 18.4532Z" fill="#353566"/>
</svg>
