<svg width="24" height="24" viewBox="0 0 24 24" fill="none" xmlns="http://www.w3.org/2000/svg">
<path fill-rule="evenodd" clip-rule="evenodd" d="M6.56739 2.25H16.4326C17.385 2.24999 18.1456 2.24999 18.7599 2.30018C19.3899 2.35165 19.9318 2.45963 20.4295 2.71322C21.2291 3.12069 21.8793 3.77085 22.2868 4.57054C22.5404 5.06824 22.6483 5.61012 22.6998 6.24013C22.75 6.85438 22.75 7.61496 22.75 8.56737V12.252C22.75 12.4839 22.6428 12.7027 22.4595 12.8448C22.2763 12.9868 22.0376 13.0362 21.8131 12.9784C21.2344 12.8294 20.627 12.75 20 12.75C16.3034 12.75 13.252 15.5172 12.8061 19.0928C12.7593 19.4682 12.4402 19.75 12.0619 19.75H6.5673C5.6149 19.75 4.85438 19.75 4.24013 19.6998C3.61012 19.6483 3.06824 19.5404 2.57054 19.2868C1.77085 18.8793 1.12068 18.2291 0.713223 17.4295C0.459634 16.9318 0.35165 16.3899 0.300176 15.7599C0.249989 15.1456 0.249994 14.385 0.25 13.4326V8.56738C0.249994 7.61494 0.249989 6.85439 0.300176 6.24013C0.35165 5.61012 0.459634 5.06824 0.713223 4.57054C1.12068 3.77085 1.77085 3.12068 2.57054 2.71322C3.06824 2.45963 3.61012 2.35165 4.24013 2.30018C4.85439 2.24999 5.61495 2.24999 6.56739 2.25ZM11.5 7.5C9.567 7.5 8 9.067 8 11C8 12.933 9.567 14.5 11.5 14.5C13.433 14.5 15 12.933 15 11C15 9.067 13.433 7.5 11.5 7.5ZM4 11C4 10.4477 4.44772 10 5 10C5.55229 10 6.0001 10.4477 6.0001 11C6.0001 11.5523 5.55229 12 5 12C4.44772 12 4 11.5523 4 11Z" fill="#353566"/>
<path d="M20 16.25C19.5858 16.25 19.25 16.5858 19.25 17C19.25 17.4142 19.5858 17.75 20 17.75H21.1893L19.4 19.5393L17.9303 18.0697C17.6374 17.7768 17.1626 17.7768 16.8697 18.0697L14.4697 20.4697C14.1768 20.7626 14.1768 21.2374 14.4697 21.5303C14.7626 21.8232 15.2374 21.8232 15.5303 21.5303L17.4 19.6607L18.8697 21.1303C19.1626 21.4232 19.6374 21.4232 19.9303 21.1303L22.25 18.8107V20C22.25 20.4142 22.5857 20.75 23 20.75C23.4142 20.75 23.75 20.4142 23.75 20V17C23.75 16.5858 23.4142 16.25 23 16.25H20Z" fill="#353566"/>
</svg>
