<svg width="24" height="24" viewBox="0 0 24 24" fill="none" xmlns="http://www.w3.org/2000/svg">
<g clip-path="url(#clip0_9001_297570)">
<path fill-rule="evenodd" clip-rule="evenodd" d="M2.25013 9.99241L2.25007 9.98324L2.25003 9.8277C2.24959 8.54469 2.24929 7.69404 2.53916 6.94881C2.79449 6.29241 3.20893 5.70975 3.74524 5.25323C4.35414 4.73491 5.15781 4.45613 6.36996 4.03566L15.5686 0.841215C16.1671 0.63336 16.6638 0.460855 17.0726 0.358916C17.4923 0.254264 17.9138 0.197641 18.3377 0.300153C18.9625 0.451243 19.5051 0.837194 19.8528 1.37785C20.0887 1.74467 20.1735 2.16139 20.2123 2.59218C20.2501 3.01181 20.2501 3.53763 20.2501 4.17121V4.7949C20.789 4.84018 21.2633 4.93495 21.7025 5.15873C22.4081 5.51825 22.9818 6.09193 23.3413 6.79754C23.5677 7.24175 23.662 7.7219 23.7067 8.26853C23.7501 8.79944 23.7501 9.45505 23.7501 10.2679V16.2321C23.7501 17.045 23.7501 17.7006 23.7067 18.2315C23.662 18.7781 23.5677 19.2582 23.3413 19.7025C22.9818 20.4081 22.4081 20.9818 21.7025 21.3413C21.2583 21.5676 20.7782 21.662 20.2315 21.7066C19.7006 21.75 19.045 21.75 18.2322 21.75H11.2712C11.0058 21.75 10.7603 21.6098 10.6254 21.3814C10.4904 21.1529 10.4863 20.8702 10.6144 20.6379C11.3446 19.3134 11.7501 17.809 11.7501 16.2619C11.7501 15.4941 11.6776 14.8876 11.4889 14.4154C11.3119 13.9727 11.025 13.6264 10.5209 13.3734L6.95436 11.5911C6.04453 11.1366 4.95472 11.1362 4.04643 11.5907L3.33547 11.9462C3.10298 12.0625 2.82688 12.05 2.60576 11.9134C2.38465 11.7767 2.25006 11.5353 2.25006 11.2754L2.25013 9.99241ZM16.0276 2.26972C16.6677 2.04743 17.1002 1.89796 17.4356 1.81435C17.7675 1.73157 17.9093 1.73979 17.9851 1.75813C18.235 1.81857 18.4521 1.97295 18.5912 2.18921C18.6334 2.25482 18.6876 2.38604 18.7183 2.7268C18.7494 3.071 18.7501 3.52866 18.7501 4.20627V4.75047C18.5852 4.75 18.4123 4.75 18.2324 4.75H8.88545L16.0276 2.26972ZM19.0001 12.25C18.4478 12.25 18.0001 12.6977 18.0001 13.25C18.0001 13.8023 18.4479 14.25 19.0002 14.25C19.5524 14.25 20.0002 13.8023 20.0002 13.25C20.0002 12.6977 19.5523 12.25 19.0001 12.25Z" fill="#353566"/>
<path d="M6.39388 12.7081C5.8308 12.4267 5.16805 12.4267 4.60503 12.7083L1.0365 14.493C0.708138 14.6573 0.500663 14.9928 0.500492 15.36C0.499832 16.7737 0.58985 18.1315 1.16719 19.451C1.96076 21.2648 3.42526 22.6604 5.21698 23.4423C5.3971 23.5209 5.60182 23.5209 5.78194 23.4423C7.57432 22.6601 9.03908 21.2626 9.83261 19.4487C10.4093 18.1304 10.4998 16.7739 10.5005 15.3614C10.5007 14.9935 10.2928 14.6571 9.96377 14.4926L6.39388 12.7081Z" fill="#353566"/>
</g>
<defs>
<clipPath id="clip0_9001_297570">
<rect width="24" height="24" fill="white"/>
</clipPath>
</defs>
</svg>
