<svg width="24" height="24" viewBox="0 0 24 24" fill="none" xmlns="http://www.w3.org/2000/svg">
<g clip-path="url(#clip0_9001_297640)">
<path fill-rule="evenodd" clip-rule="evenodd" d="M2.25006 9.99663L2.24995 9.98348L2.24991 9.82794C2.24946 8.54493 2.24917 7.69428 2.53904 6.94905C2.79436 6.29265 3.20881 5.71 3.74512 5.25347C4.35401 4.73516 5.15769 4.45638 6.36983 4.0359L15.5685 0.841459C16.167 0.633604 16.6637 0.461099 17.0725 0.35916C17.4922 0.254508 17.9137 0.197885 18.3376 0.300397C18.9624 0.451487 19.505 0.837438 19.8527 1.37809C20.0886 1.74492 20.1733 2.16163 20.2122 2.59242C20.25 3.01205 20.25 3.53787 20.2499 4.17145V4.7949C20.7889 4.84017 21.2633 4.93494 21.7025 5.15873C22.4081 5.51825 22.9817 6.09193 23.3413 6.79754C23.5676 7.24175 23.662 7.7219 23.7066 8.26853C23.75 8.79944 23.75 9.45505 23.75 10.2679V16.2321C23.75 17.045 23.75 17.7006 23.7066 18.2315C23.662 18.7781 23.5676 19.2582 23.3413 19.7025C22.9817 20.4081 22.4081 20.9818 21.7025 21.3413C21.2582 21.5676 20.7781 21.662 20.2315 21.7066C19.7006 21.75 19.045 21.75 18.2321 21.75H13.4185C13.1691 21.75 12.936 21.626 12.7966 21.4192C12.6572 21.2124 12.6297 20.9498 12.7233 20.7186C13.0627 19.88 13.25 18.9628 13.25 18C13.25 13.9959 10.0041 10.75 6 10.75C5.03718 10.75 4.11995 10.9373 3.28141 11.2767C3.05022 11.3703 2.78763 11.3428 2.58081 11.2034C2.37399 11.064 2.25 10.8309 2.25 10.5815L2.25006 9.99663ZM16.0274 2.26996C16.6675 2.04767 17.1001 1.89821 17.4354 1.81459C17.7674 1.73181 17.9092 1.74004 17.985 1.75837C18.2349 1.81881 18.452 1.97319 18.591 2.18945C18.6332 2.25507 18.6875 2.38629 18.7182 2.72704C18.7492 3.07124 18.7499 3.52891 18.7499 4.20651V4.75047C18.5851 4.75 18.4122 4.75 18.2323 4.75H8.88604L16.0274 2.26996ZM19 12.25C18.4477 12.25 18 12.6977 18 13.25C18 13.8023 18.4478 14.25 19.0001 14.25C19.5524 14.25 20.0001 13.8023 20.0001 13.25C20.0001 12.6977 19.5523 12.25 19 12.25Z" fill="#353566"/>
<path fill-rule="evenodd" clip-rule="evenodd" d="M0.25 18C0.25 14.8244 2.82436 12.25 6 12.25C9.17564 12.25 11.75 14.8244 11.75 18C11.75 21.1756 9.17564 23.75 6 23.75C2.82436 23.75 0.25 21.1756 0.25 18ZM8.44194 16.4419C8.68602 16.1979 8.68602 15.8021 8.44194 15.5581C8.19786 15.314 7.80214 15.314 7.55806 15.5581L3.55806 19.5581C3.31398 19.8021 3.31398 20.1979 3.55806 20.4419C3.80214 20.686 4.19786 20.686 4.44194 20.4419L8.44194 16.4419ZM4.5 15.75C4.08579 15.75 3.75 16.0858 3.75 16.5C3.75 16.9142 4.08589 17.25 4.5001 17.25C4.91431 17.25 5.2501 16.9142 5.2501 16.5C5.2501 16.0858 4.91421 15.75 4.5 15.75ZM6.75 19.5C6.75 19.0858 7.08579 18.75 7.5 18.75C7.91421 18.75 8.2501 19.0858 8.2501 19.5C8.2501 19.9142 7.91421 20.25 7.5 20.25C7.08579 20.25 6.75 19.9142 6.75 19.5Z" fill="#353566"/>
</g>
<defs>
<clipPath id="clip0_9001_297640">
<rect width="24" height="24" fill="white"/>
</clipPath>
</defs>
</svg>
